<?xml version="1.0" encoding="utf-8"?>
<svg version="1.1" xmlns="http://www.w3.org/2000/svg" xmlns:xlink="http://www.w3.org/1999/xlink" x="0px" y="0px"
	 viewBox="673.92 415.2 510.83 146.8" enable-background="new 0 0 1920 1080" xml:space="preserve">
<g>
	<g opacity="0.3">
		<path fill="#5E72E4" d="M811.38,450.13c-2.2-3.81-7.6-6.93-12-6.93h-52.59c-4.4,0-9.8,3.12-12,6.93l-26.29,45.54
			c-2.2,3.81-2.2,10.05,0,13.86l26.29,45.54c2.2,3.81,7.6,6.93,12,6.93h52.59c4.4,0,9.8-3.12,12-6.93l26.29-45.54
			c2.2-3.81,2.2-10.05,0-13.86L811.38,450.13z"/>
	</g>
	<g opacity="0.8">
		<path fill="#5E72E4" d="M783.65,422.13c-2.2-3.81-7.6-6.93-12-6.93H715.6c-4.4,0-9.8,3.12-12,6.93l-28.03,48.54
			c-2.2,3.81-2.2,10.05,0,13.86l28.03,48.54c2.2,3.81,7.6,6.93,12,6.93h56.05c4.4,0,9.8-3.12,12-6.93l28.03-48.54
			c2.2-3.81,2.2-10.05,0-13.86L783.65,422.13z"/>
	</g>
</g>
<g>
	<circle opacity="0.3" fill="#5E72E4" enable-background="new    " cx="1946.5" cy="1357.5" r="563.5"/>
	<circle opacity="0.3" fill="#5E72E4" enable-background="new    " cx="-273.5" cy="1521.5" r="945.5"/>
	<circle opacity="0.3" fill="#5E72E4" enable-background="new    " cx="0" cy="3548" r="2737"/>
	<circle opacity="0.2" fill="#5E72E4" enable-background="new    " cx="1348" cy="2652" r="1681"/>
</g>
<g>
	<g>
		<g>
			<defs>
				<rect id="SVGID_7_" x="887.47" y="441.31" width="68.76" height="83.07"/>
			</defs>
			<clipPath id="SVGID_1_">
				<use xlink:href="#SVGID_7_"  overflow="visible"/>
			</clipPath>
			
				<path clip-path="url(#SVGID_1_)" fill="none" stroke="#5E72E4" stroke-width="10" stroke-linecap="square" stroke-linejoin="bevel" d="
				M893.52,533.63l28.71-90.3l31.52,90.31"/>
			<path clip-path="url(#SVGID_1_)" fill="none" stroke="#5E72E4" stroke-width="10" stroke-miterlimit="10" d="M940.44,495.5h-36.7
				"/>
		</g>
	</g>
	<g>
		<path fill="none" stroke="#5E72E4" stroke-width="10" stroke-miterlimit="10" d="M976.86,469.29v55.09"/>
		<path fill="none" stroke="#5E72E4" stroke-width="10" stroke-miterlimit="10" d="M976.86,489.77c0-9.68,7.85-17.52,17.52-17.52
			c3.5,0,6.76,1.03,9.5,2.8"/>
	</g>
	<g>
		<path fill="none" stroke="#5E72E4" stroke-width="10" stroke-miterlimit="10" d="M1057.86,492.08c0,10.94-8.87,19.81-19.81,19.81
			c-10.94,0-19.81-8.87-19.81-19.81s8.87-19.81,19.81-19.81C1048.99,472.27,1057.86,481.14,1057.86,492.08z"/>
		<path fill="none" stroke="#5E72E4" stroke-width="10" stroke-miterlimit="10" d="M1057.84,467.27v54.05
			c0,10.94-8.87,19.81-19.81,19.81c-8.36,0-15.51-5.18-18.42-12.5"/>
	</g>
	<g>
		<path fill="none" stroke="#5E72E4" stroke-width="10" stroke-miterlimit="10" d="M1121.83,495.46c0,12.81-9.45,23.19-21.11,23.19
			s-21.11-10.38-21.11-23.19c0-12.81,9.45-23.19,21.11-23.19S1121.83,482.65,1121.83,495.46z"/>
	</g>
	<g>
		<path fill="none" stroke="#5E72E4" stroke-width="10" stroke-miterlimit="10" d="M1143.78,524.38v-55.71"/>
		<path fill="none" stroke="#5E72E4" stroke-width="10" stroke-miterlimit="10" d="M1143.95,490.15c0-9.88,8.01-17.9,17.9-17.9
			c9.88,0,17.9,8.01,17.9,17.9v34.23"/>
	</g>
</g>
</svg>
