<?xml version="1.0" encoding="utf-8"?>
<svg version="1.1" xmlns="http://www.w3.org/2000/svg" xmlns:xlink="http://www.w3.org/1999/xlink" x="0px" y="0px"
	 viewBox="673.92 415.2 510.83 146.8" enable-background="new 0 0 1920 1080" xml:space="preserve">
<g>
	<g>
		<path fill="rgb(94, 114, 228, 0)" stroke="#5E72E4" stroke-width="3" stroke-dasharray="402" stroke-dashoffset="402" d="M811.38,450.13c-2.2-3.81-7.6-6.93-12-6.93h-52.59c-4.4,0-9.8,3.12-12,6.93l-26.29,45.54
			c-2.2,3.81-2.2,10.05,0,13.86l26.29,45.54c2.2,3.81,7.6,6.93,12,6.93h52.59c4.4,0,9.8-3.12,12-6.93l26.29-45.54
			c2.2-3.81,2.2-10.05,0-13.86L811.38,450.13z">
			<animate attributeName="stroke-width" begin="1s" values="3; 0" dur="1s" fill="freeze" calcMode="spline" keySplines="0.8 0 0.2 1"/>
			<animate attributeName="stroke-dashoffset" begin="0.5s" values="402; 0" dur="1s" fill="freeze" calcMode="spline" keySplines="0.8 0 0.2 1"/>
			<animate attributeName="fill" begin="1s" values="rgb(94, 114, 228, 0); rgb(94, 114, 228, 0.3)" dur="1s" fill="freeze" calcMode="spline" keySplines="0.8 0 0.2 1"/>
		</path>
	</g>
	<g>
		<path fill="rgb(94, 114, 228, 0)" d="M783.65,422.13c-2.2-3.81-7.6-6.93-12-6.93H715.6c-4.4,0-9.8,3.12-12,6.93l-28.03,48.54
			c-2.2,3.81-2.2,10.05,0,13.86l28.03,48.54c2.2,3.81,7.6,6.93,12,6.93h56.05c4.4,0,9.8-3.12,12-6.93l28.03-48.54
			c2.2-3.81,2.2-10.05,0-13.86L783.65,422.13z">
			<animateTransform attributeName="transform" type="translate" begin="1.5s" values="27.73,28; 0,0" dur="1.1s" fill="freeze" calcMode="spline" keySplines="0.8 0 0.2 1"/>
			<animate attributeName="fill" begin="1.5s" values="rgb(94, 114, 228, 0); rgb(94, 114, 228, 0.8)" dur="1.1s" fill="freeze" calcMode="spline" keySplines="0.8 0 0.2 1"/>
		</path>
	</g>
</g>
<g>
	<g>
		<clipPath id="clipPath_1">
			<rect x="887.47" y="441.31" width="68.76" height="83.07"/>
		</clipPath>
		<path clip-path="url(#clipPath_1)" fill="none" stroke="#5E72E4" stroke-width="0" stroke-linecap="square" stroke-linejoin="bevel" stroke-dasharray="190" d="M893.52,533.63l28.71-90.3l31.52,90.31">
			<animate attributeName="stroke-width" begin="1s" values="3; 10" dur="1s" fill="freeze" calcMode="spline" keySplines="0.8 0 0.2 1"/>
			<animate attributeName="stroke-dashoffset" begin="0.5s" values="190; 0" dur="1s" fill="freeze" calcMode="spline" keySplines="0.8 0 0.2 1"/>
			<set attributeName="stroke-width" to="3" begin="0.5s" />
		</path>
		<line clip-path="url(#clipPath_1)" fill="none" stroke="#5E72E4" stroke-width="0" stroke-miterlimit="10" stroke-dasharray="45" x1="940.44" y1="495.5" x2="905" y2="495.5">
			<animate attributeName="stroke-width" begin="1s" values="3; 10" dur="1s" fill="freeze" calcMode="spline" keySplines="0.8 0 0.2 1"/>
			<animate attributeName="stroke-dashoffset" begin="0.5s" values="-37; 0" dur="1s" fill="freeze" calcMode="spline" keySplines="0.8 0 0.2 1"/>
			<set attributeName="stroke-width" to="3" begin="0.5s" />
		</line>
	</g>
	<g>
		<path fill="none" stroke="#5E72E4" stroke-width="0" stroke-miterlimit="10" stroke-dasharray="56" d="M976.86,469.29v55.09">
			<animate attributeName="stroke-width" begin="1.15s" values="3; 10" dur="1s" fill="freeze" calcMode="spline" keySplines="0.8 0 0.2 1"/>
			<animate attributeName="stroke-dashoffset" begin="0.65s" values="56; 0" dur="1s" fill="freeze" calcMode="spline" keySplines="0.8 0 0.2 1"/>
			<set attributeName="stroke-width" to="3" begin="0.65s" />
		</path>
		<path fill="none" stroke="#5E72E4" stroke-width="0" stroke-miterlimit="10" stroke-dasharray="38" d="M976.86,489.77c0-9.68,7.85-17.52,17.52-17.52
			c3.5,0,6.76,1.03,9.5,2.8">
			<animate attributeName="stroke-width" begin="1.15s" values="3; 10" dur="1s" fill="freeze" calcMode="spline" keySplines="0.8 0 0.2 1"/>
			<animate attributeName="stroke-dashoffset" begin="0.65s" values="38; 0" dur="1s" fill="freeze" calcMode="spline" keySplines="0.8 0 0.2 1"/>
			<set attributeName="stroke-width" to="3" begin="0.65s" />
		</path>
	</g>
	<g>
		<path fill="none" stroke="#5E72E4" stroke-width="0" stroke-miterlimit="10" stroke-dasharray="124" d="M1057.86,492.08c0,10.94-8.87,19.81-19.81,19.81
			c-10.94,0-19.81-8.87-19.81-19.81s8.87-19.81,19.81-19.81C1048.99,472.27,1057.86,481.14,1057.86,492.08z">
			<animate attributeName="stroke-width" begin="1.3s" values="3; 10" dur="1s" fill="freeze" calcMode="spline" keySplines="0.8 0 0.2 1"/>
			<animate attributeName="stroke-dashoffset" begin="0.8s" values="-124; 0" dur="1s" fill="freeze" calcMode="spline" keySplines="0.8 0 0.2 1"/>
			<set attributeName="stroke-width" to="3" begin="0.8s" />
		</path>
		<path fill="none" stroke="#5E72E4" stroke-width="0" stroke-miterlimit="10" stroke-dasharray="110" d="M1057.84,467.27v54.05
			c0,10.94-8.87,19.81-19.81,19.81c-8.36,0-15.51-5.18-18.42-12.5">
			<animate attributeName="stroke-width" begin="1.3s" values="3; 10" dur="1s" fill="freeze" calcMode="spline" keySplines="0.8 0 0.2 1"/>
			<animate attributeName="stroke-dashoffset" begin="0.8s" values="110; 0" dur="1s" fill="freeze" calcMode="spline" keySplines="0.8 0 0.2 1"/>
			<set attributeName="stroke-width" to="3" begin="0.8s" />
		</path>
	</g>
	<g>
		<path fill="none" stroke="#5E72E4" stroke-width="0" stroke-miterlimit="10" stroke-dasharray="140" d="M1121.83,495.46c0,12.81-9.45,23.19-21.11,23.19
			s-21.11-10.38-21.11-23.19c0-12.81,9.45-23.19,21.11-23.19S1121.83,482.65,1121.83,495.46z">
			<animate attributeName="stroke-width" begin="1.45s" values="3; 10" dur="1s" fill="freeze" calcMode="spline" keySplines="0.8 0 0.2 1"/>
			<animate attributeName="stroke-dashoffset" begin="0.95s" values="-140; 0" dur="1s" fill="freeze" calcMode="spline" keySplines="0.8 0 0.2 1"/>
			<set attributeName="stroke-width" to="3" begin="0.95s" />
		</path>
	</g>
	<g>
		<path fill="none" stroke="#5E72E4" stroke-width="0" stroke-miterlimit="10" stroke-dasharray="57" d="M1143.78,524.38v-55.71">
			<animate attributeName="stroke-width" begin="1.6s" values="3; 10" dur="1s" fill="freeze" calcMode="spline" keySplines="0.8 0 0.2 1"/>
			<animate attributeName="stroke-dashoffset" begin="1.1s" values="-57; 0" dur="1s" fill="freeze" calcMode="spline" keySplines="0.8 0 0.2 1"/>
			<set attributeName="stroke-width" to="3" begin="1.1s" />
		</path>
		<path fill="none" stroke="#5E72E4" stroke-width="0" stroke-miterlimit="10" stroke-dasharray="90" d="M1143.95,490.15c0-9.88,8.01-17.9,17.9-17.9
			c9.88,0,17.9,8.01,17.9,17.9v34.23">
			<animate attributeName="stroke-width" begin="1.6s" values="3; 10" dur="1s" fill="freeze" calcMode="spline" keySplines="0.8 0 0.2 1"/>
			<animate attributeName="stroke-dashoffset" begin="1.1s" values="90; 0" dur="1s" fill="freeze" calcMode="spline" keySplines="0.8 0 0.2 1"/>
			<set attributeName="stroke-width" to="3" begin="1.1s" />
		</path>
	</g>
</g>
</svg>