<svg xmlns="http://www.w3.org/2000/svg" viewBox="0 0 512 512" width="512" height="512" style="width: 100%; height: 100%; transform: translate3d(0,0,0);" preserveAspectRatio="xMidYMid meet"><defs><clipPath id="__lottie_element_2"><rect width="512" height="512" x="0" y="0"></rect></clipPath><clipPath id="__lottie_element_4"><path d="M0,0 L712,0 L712,512 L0,512z"></path></clipPath><clipPath id="__lottie_element_8"><path d="M0,0 L912,0 L912,512 L0,512z"></path></clipPath><clipPath id="__lottie_element_28"><path d="M0,0 L712,0 L712,512 L0,512z"></path></clipPath><clipPath id="__lottie_element_47"><path d="M0,0 L712,0 L712,512 L0,512z"></path></clipPath><clipPath id="__lottie_element_81"><path d="M0,0 L912,0 L912,512 L0,512z"></path></clipPath><clipPath id="__lottie_element_101"><path d="M0,0 L712,0 L712,512 L0,512z"></path></clipPath><clipPath id="__lottie_element_120"><path d="M0,0 L712,0 L712,512 L0,512z"></path></clipPath></defs><g clip-path="url(#__lottie_element_2)"><g clip-path="url(#__lottie_element_4)" style="display: block;" transform="matrix(0.8500000238418579,0,0,0.8500000238418579,-46.600006103515625,38.399993896484375)" opacity="1"><g style="display: block;" transform="matrix(1,0,0,1,160.87301635742188,95.75701904296875)" opacity="0.1"><g opacity="1" transform="matrix(1,0,0,1,196.02499389648438,196.02499389648438)"><path fill="rgb(0,0,0)" fill-opacity="1" d=" M196.02499389648438,0 C196.02499389648438,108.26100158691406 108.26200103759766,196.02499389648438 0,196.02499389648438 C-108.26100158691406,196.02499389648438 -196.0240020751953,108.26100158691406 -196.0240020751953,0 C-196.0240020751953,-108.26100158691406 -108.26100158691406,-196.02499389648438 0,-196.02499389648438 C108.26200103759766,-196.02499389648438 196.02499389648438,-108.26100158691406 196.02499389648438,0z"></path><g opacity="1" transform="matrix(1,0,0,1,0,0)"></g></g></g><g style="display: block;" transform="matrix(1,0,0,1,148.02301025390625,67.90701293945312)" opacity="1"><g opacity="1" transform="matrix(1,0,0,1,208.875,208.875)"><path fill="rgb(255,176,57)" fill-opacity="1" d=" M188.875,0 C188.875,104.31300354003906 104.31400299072266,188.875 0.0010000000474974513,188.875 C-104.31199645996094,188.875 -188.87600708007812,104.31300354003906 -188.87600708007812,0 C-188.87600708007812,-104.31300354003906 -104.31199645996094,-188.875 0.0010000000474974513,-188.875 C104.31400299072266,-188.875 188.875,-104.31300354003906 188.875,0z"></path><g opacity="1" transform="matrix(1,0,0,1,0,0)"></g></g><g opacity="1" transform="matrix(1,0,0,1,208.875,208.875)"><path stroke-linecap="butt" stroke-linejoin="miter" fill-opacity="0" stroke-miterlimit="10" stroke="rgb(247,125,65)" stroke-opacity="1" stroke-width="8" d=" M188.875,0 C188.875,104.31300354003906 104.31400299072266,188.875 0.0010000000474974513,188.875 C-104.31199645996094,188.875 -188.87600708007812,104.31300354003906 -188.87600708007812,0 C-188.87600708007812,-104.31300354003906 -104.31199645996094,-188.875 0.0010000000474974513,-188.875 C104.31400299072266,-188.875 188.875,-104.31300354003906 188.875,0z"></path></g></g><g style="display: block;" transform="matrix(1,0,0,1,186.8970184326172,101.17401123046875)" opacity="1"><g opacity="1" transform="matrix(1,0,0,1,170.05799865722656,173.74000549316406)"><path fill="rgb(255,209,64)" fill-opacity="1" d=" M168.3509979248047,2.5799999237060547 C166.8939971923828,97.60800170898438 90.33999633789062,173.48899841308594 -2.638000011444092,172.06399536132812 C-95.61599731445312,170.63900756835938 -169.80799865722656,92.4489974975586 -168.3520050048828,-2.5799999237060547 C-166.89500427246094,-97.60800170898438 -90.34100341796875,-173.48899841308594 2.63700008392334,-172.06399536132812 C95.61499786376953,-170.63900756835938 169.80799865722656,-92.4489974975586 168.3509979248047,2.5799999237060547z"></path><g opacity="1" transform="matrix(1,0,0,1,0,0)"></g></g></g><g style="display: block;" transform="matrix(1,0,0,1,207.38101196289062,88.82101440429688)" opacity="1"><g opacity="1" transform="matrix(1,0,0,1,149.51699829101562,116.08699798583984)"><path fill="rgb(255,223,121)" fill-opacity="1" d=" M149.26699829101562,29.44499969482422 C149.26699829101562,102.08799743652344 82.43900299072266,44.624000549316406 0.0010000000474974513,44.624000549316406 C-82.43800354003906,44.624000549316406 -149.26800537109375,102.08799743652344 -149.26800537109375,29.44499969482422 C-149.26800537109375,-43.198001861572266 -82.43800354003906,-102.08799743652344 0.0010000000474974513,-102.08799743652344 C82.43900299072266,-102.08799743652344 149.26699829101562,-43.198001861572266 149.26699829101562,29.44499969482422z"></path><g opacity="1" transform="matrix(1,0,0,1,0,0)"></g></g><g opacity="1" transform="matrix(1,0,0,1,188.2790069580078,18.774999618530273)"><path stroke-linecap="round" stroke-linejoin="round" fill-opacity="0" stroke="rgb(255,255,255)" stroke-opacity="1" stroke-width="6" d=" M-2.388000011444092,-0.5559999942779541 C-0.8500000238418579,-0.22100000083446503 0.7440000176429749,0.14900000393390656 2.388000011444092,0.5559999942779541"></path></g><g opacity="1" transform="matrix(1,0,0,1,170.83099365234375,15.769000053405762)"><path stroke-linecap="round" stroke-linejoin="round" fill-opacity="0" stroke="rgb(255,255,255)" stroke-opacity="1" stroke-width="6" d=" M-6.295000076293945,-0.7689999938011169 C-6.295000076293945,-0.7689999938011169 -1.4279999732971191,-0.5090000033378601 6.295000076293945,0.7689999938011169"></path></g></g><g style="display: block;" transform="matrix(1,0,0,1,379.4070129394531,212.09698486328125)" opacity="1"><g opacity="1" transform="matrix(1,0,0,1,53.61000061035156,34.24100112915039)"><path fill="rgb(255,225,166)" fill-opacity="1" d=" M-51.81399917602539,12.189000129699707 C-53.356998443603516,7.388999938964844 -43.84299850463867,-10.095999717712402 -21.327999114990234,-17.695999145507812 C9.755999565124512,-28.18899917602539 48.01900100708008,-10.395999908447266 51.042999267578125,11.463000297546387 C53.356998443603516,28.190000534057617 34.84299850463867,4.046999931335449 -0.9779999852180481,4.334000110626221 C-39.25,4.639999866485596 -49.09000015258789,20.663000106811523 -51.81399917602539,12.189000129699707z"></path><g opacity="1" transform="matrix(1,0,0,1,0,0)"></g></g><g opacity="1" transform="matrix(1,0,0,1,53.61000061035156,28.44099998474121)"><path fill="rgb(133,62,19)" fill-opacity="1" d=" M-51.81399917602539,12.189000129699707 C-53.356998443603516,7.388999938964844 -43.84299850463867,-10.095999717712402 -21.327999114990234,-17.695999145507812 C9.755999565124512,-28.18899917602539 48.01900100708008,-10.395999908447266 51.042999267578125,11.463000297546387 C53.356998443603516,28.190000534057617 34.84299850463867,4.046999931335449 -0.9779999852180481,4.334000110626221 C-39.25,4.639999866485596 -49.09000015258789,20.663000106811523 -51.81399917602539,12.189000129699707z"></path><g opacity="1" transform="matrix(1,0,0,1,0,0)"></g></g><g opacity="1" transform="matrix(1,0,0,1,52.64500045776367,22.700000762939453)"><path fill="rgb(107,31,0)" fill-opacity="1" d=" M51.44499969482422,22.450000762939453 C45.80500030517578,1.8700000047683716 9.425000190734863,-14.050000190734863 -20.364999771118164,-4 C-36.935001373291016,1.590000033378601 -46.46500015258789,12.550000190734863 -49.71500015258789,19.850000381469727 C-50.185001373291016,19.450000762939453 -50.55500030517578,18.829999923706055 -50.845001220703125,17.93000030517578 C-52.39500045776367,13.130000114440918 -42.875,-4.360000133514404 -20.364999771118164,-11.960000038146973 C10.725000381469727,-22.450000762939453 48.98500061035156,-4.659999847412109 52.005001068115234,17.200000762939453 C52.39500045776367,19.979999542236328 52.20500183105469,21.6299991607666 51.44499969482422,22.450000762939453z"></path><g opacity="1" transform="matrix(1,0,0,1,0,0)"></g></g></g><g style="display: block;" transform="matrix(1,0,0,1,402.69000244140625,170.15599060058594)" opacity="1"><g opacity="1" transform="matrix(1,0,0,1,47.82099914550781,41.41600036621094)"><path fill="rgb(255,237,188)" fill-opacity="1" d=" M-38.827999114990234,-22.100000381469727 C-35.314998626708984,-26.232999801635742 -14.826000213623047,-37.391998291015625 11.82800006866455,-26.214000701904297 C35.742000579833984,-16.18600082397461 47.571998596191406,7.4720001220703125 45.257999420166016,21.614999771118164 C42.67599868774414,37.391998291015625 36.60100173950195,8.413999557495117 6.171999931335449,-6.671000003814697 C-27.284000396728516,-23.257999420166016 -47.57099914550781,-11.814000129699707 -38.827999114990234,-22.100000381469727z"></path><g opacity="1" transform="matrix(1,0,0,1,0,0)"></g></g><g opacity="1" transform="matrix(1,0,0,1,49.707000732421875,37.641998291015625)"><path fill="rgb(133,62,19)" fill-opacity="1" d=" M-38.827999114990234,-22.100000381469727 C-35.314998626708984,-26.232999801635742 -14.826000213623047,-37.391998291015625 11.82800006866455,-26.214000701904297 C35.742000579833984,-16.18600082397461 47.571998596191406,7.4720001220703125 45.257999420166016,21.614999771118164 C42.67599868774414,37.391998291015625 36.60100173950195,8.413999557495117 6.171999931335449,-6.671000003814697 C-27.284000396728516,-23.257999420166016 -47.57099914550781,-11.814000129699707 -38.827999114990234,-22.100000381469727z"></path><g opacity="1" transform="matrix(1,0,0,1,0,0)"></g></g><g opacity="1" transform="matrix(1,0,0,1,52.3120002746582,29.166000366210938)"><path fill="rgb(107,31,0)" fill-opacity="1" d=" M42.80500030517578,28.915000915527344 C41.494998931884766,14.845000267028809 29.864999771118164,-3.9549999237060547 9.225000381469727,-12.614999771118164 C-16.905000686645508,-23.575000762939453 -37.1150016784668,-13.0649995803833 -41.20500183105469,-8.755000114440918 C-44.04499816894531,-9.204999923706055 -44.30500030517578,-10.244999885559082 -41.435001373291016,-13.625 C-37.92499923706055,-17.7549991607666 -17.434999465942383,-28.915000915527344 9.225000381469727,-17.735000610351562 C32.48500061035156,-7.974999904632568 44.30500030517578,14.664999961853027 42.80500030517578,28.915000915527344z"></path><g opacity="1" transform="matrix(1,0,0,1,0,0)"></g></g></g><g style="display: block;" transform="matrix(1,0,0,1,225.51199340820312,212.09698486328125)" opacity="1"><g opacity="1" transform="matrix(1,0,0,1,53.606998443603516,34.24100112915039)"><path fill="rgb(255,225,166)" fill-opacity="1" d=" M51.81399917602539,12.189000129699707 C53.356998443603516,7.388999938964844 43.84299850463867,-10.095999717712402 21.327999114990234,-17.695999145507812 C-9.755999565124512,-28.18899917602539 -48.01900100708008,-10.395999908447266 -51.042999267578125,11.463000297546387 C-53.356998443603516,28.190000534057617 -34.84299850463867,4.046999931335449 0.9779999852180481,4.334000110626221 C39.25,4.639999866485596 49.09000015258789,20.663000106811523 51.81399917602539,12.189000129699707z"></path><g opacity="1" transform="matrix(1,0,0,1,0,0)"></g></g><g opacity="1" transform="matrix(1,0,0,1,53.606998443603516,28.44099998474121)"><path fill="rgb(133,62,19)" fill-opacity="1" d=" M51.81399917602539,12.189000129699707 C53.356998443603516,7.388999938964844 43.84299850463867,-10.095999717712402 21.327999114990234,-17.695999145507812 C-9.755999565124512,-28.18899917602539 -48.01900100708008,-10.395999908447266 -51.042999267578125,11.463000297546387 C-53.356998443603516,28.190000534057617 -34.84299850463867,4.046999931335449 0.9779999852180481,4.334000110626221 C39.25,4.639999866485596 49.09000015258789,20.663000106811523 51.81399917602539,12.189000129699707z"></path><g opacity="1" transform="matrix(1,0,0,1,0,0)"></g></g><g opacity="1" transform="matrix(1,0,0,1,54.57400131225586,22.700000762939453)"><path fill="rgb(107,31,0)" fill-opacity="1" d=" M50.849998474121094,17.93000030517578 C50.560001373291016,18.829999923706055 50.189998626708984,19.450000762939453 49.720001220703125,19.850000381469727 C46.459999084472656,12.539999961853027 36.93000030517578,1.590000033378601 20.360000610351562,-4 C-9.420000076293945,-14.050000190734863 -45.810001373291016,1.8700000047683716 -51.45000076293945,22.450000762939453 C-52.20000076293945,21.6299991607666 -52.38999938964844,19.979999542236328 -52.0099983215332,17.200000762939453 C-48.9900016784668,-4.659999847412109 -10.720000267028809,-22.450000762939453 20.360000610351562,-11.960000038146973 C42.880001068115234,-4.360000133514404 52.38999938964844,13.130000114440918 50.849998474121094,17.93000030517578z"></path><g opacity="1" transform="matrix(1,0,0,1,0,0)"></g></g></g><g style="display: block;" transform="matrix(1,0,0,1,213.5780029296875,170.15599060058594)" opacity="1"><g opacity="1" transform="matrix(1,0,0,1,49.707000732421875,41.41600036621094)"><path fill="rgb(255,237,188)" fill-opacity="1" d=" M38.82899856567383,-22.100000381469727 C35.316001892089844,-26.232999801635742 14.824999809265137,-37.391998291015625 -11.829000473022461,-26.214000701904297 C-35.74300003051758,-16.18600082397461 -47.57099914550781,7.4720001220703125 -45.25699996948242,21.614999771118164 C-42.67499923706055,37.391998291015625 -36.599998474121094,8.413999557495117 -6.171000003814697,-6.671000003814697 C27.28499984741211,-23.257999420166016 47.571998596191406,-11.814000129699707 38.82899856567383,-22.100000381469727z"></path><g opacity="1" transform="matrix(1,0,0,1,0,0)"></g></g><g opacity="1" transform="matrix(1,0,0,1,47.821998596191406,37.641998291015625)"><path fill="rgb(133,62,19)" fill-opacity="1" d=" M38.82899856567383,-22.100000381469727 C35.316001892089844,-26.232999801635742 14.824999809265137,-37.391998291015625 -11.829000473022461,-26.214000701904297 C-35.74300003051758,-16.18600082397461 -47.57099914550781,7.4720001220703125 -45.25699996948242,21.614999771118164 C-42.67499923706055,37.391998291015625 -36.599998474121094,8.413999557495117 -6.171000003814697,-6.671000003814697 C27.28499984741211,-23.257999420166016 47.571998596191406,-11.814000129699707 38.82899856567383,-22.100000381469727z"></path><g opacity="1" transform="matrix(1,0,0,1,0,0)"></g></g><g opacity="1" transform="matrix(1,0,0,1,45.20800018310547,29.10099983215332)"><path fill="rgb(107,31,0)" fill-opacity="1" d=" M41.41999816894531,-8.729999542236328 C37.869998931884766,-12.880000114440918 17.399999618530273,-23.979999542236328 -9.220000267028809,-12.829999923706055 C-29.920000076293945,-4.150000095367432 -41.56999969482422,14.760000228881836 -42.810001373291016,28.850000381469727 C-44.2400016784668,14.600000381469727 -32.40999984741211,-7.940000057220459 -9.220000267028809,-17.670000076293945 C17.440000534057617,-28.850000381469727 37.93000030517578,-17.690000534057617 41.439998626708984,-13.5600004196167 C44.2400016784668,-10.260000228881836 44.060001373291016,-9.199999809265137 41.41999816894531,-8.729999542236328z"></path><g opacity="1" transform="matrix(1,0,0,1,0,0)"></g></g></g><g style="display: block;" transform="matrix(1,0,0,1,220.2270050048828,251.01699829101562)" opacity="1"><g opacity="1" transform="matrix(1,0,0,1,136.6699981689453,69.86499786376953)"><path fill="rgb(255,176,57)" fill-opacity="1" d=" M136.4199981689453,-48.60499954223633 C136.4199981689453,15.024999618530273 75.34600067138672,69.61499786376953 0,69.61499786376953 C-75.34600067138672,69.61499786376953 -136.4199981689453,15.024999618530273 -136.4199981689453,-48.60499954223633 C-136.4199981689453,-49.23500061035156 -136.3990020751953,-49.814998626708984 -136.3679962158203,-50.3650016784668 C-135.11599731445312,-69.61499786376953 -110.9219970703125,-38.744998931884766 0,-36.415000915527344 C110.9219970703125,-38.744998931884766 135.11599731445312,-69.61499786376953 136.3679962158203,-50.3650016784668 C136.3990020751953,-49.814998626708984 136.4199981689453,-49.23500061035156 136.4199981689453,-48.60499954223633z"></path><g opacity="1" transform="matrix(1,0,0,1,0,0)"></g></g></g><g style="display: block;" transform="matrix(1,0,0,1,220.2270050048828,254.67298889160156)" opacity="1"><g opacity="1" transform="matrix(1,0,0,1,136.6699981689453,75.69499969482422)"><path fill="rgb(255,225,166)" fill-opacity="1" d=" M0,-38.02199935913086 C-114.06199645996094,-40.59000015258789 -136.4199981689453,-75.44499969482422 -136.4199981689453,-51.06700134277344 C-136.4199981689453,17.025999069213867 -75.34600067138672,75.44499969482422 0,75.44499969482422 C75.34600067138672,75.44499969482422 136.4199981689453,17.025999069213867 136.4199981689453,-51.06700134277344 C136.4199981689453,-75.44499969482422 114.06199645996094,-40.59000015258789 0,-38.02199935913086z"></path><g opacity="1" transform="matrix(1,0,0,1,0,0)"></g></g></g><g style="display: block;" transform="matrix(1,0,0,1,225.8870086669922,258.0169982910156)" opacity="1"><g opacity="1" transform="matrix(1,0,0,1,131.00999450683594,69.86499786376953)"><path fill="rgb(133,62,19)" fill-opacity="1" d=" M130.75999450683594,-48.60499954223633 C130.75999450683594,15.024999618530273 72.22000122070312,69.61499786376953 0,69.61499786376953 C-72.22000122070312,69.61499786376953 -130.75999450683594,15.024999618530273 -130.75999450683594,-48.60499954223633 C-130.75999450683594,-49.23500061035156 -130.74000549316406,-49.814998626708984 -130.7100067138672,-50.3650016784668 C-129.50999450683594,-69.61499786376953 -106.31999969482422,-38.744998931884766 0,-36.415000915527344 C106.31999969482422,-38.744998931884766 129.50999450683594,-69.61499786376953 130.7100067138672,-50.3650016784668 C130.74000549316406,-49.814998626708984 130.75999450683594,-49.23500061035156 130.75999450683594,-48.60499954223633z"></path><g opacity="1" transform="matrix(1,0,0,1,0,0)"></g></g></g><g style="display: block;" transform="matrix(1,0,0,1,237.64801025390625,286.906982421875)" opacity="1"><g opacity="1" transform="matrix(1,0,0,1,118.36000061035156,23.450000762939453)"><path fill="rgb(245,245,245)" fill-opacity="1" d=" M118.11000061035156,-23.200000762939453 C118.11000061035156,-23.200000762939453 113.80999755859375,-8.520000457763672 113.80999755859375,-8.520000457763672 C113.25,-6.619999885559082 111.73400115966797,-5.3480000495910645 110.26000213623047,-4.019999980926514 C66.64299774169922,35.275001525878906 -49.29399871826172,42.775001525878906 -110.26000213623047,-4.019999980926514 C-111.83399963378906,-5.228000164031982 -113.26000213623047,-6.619999885559082 -113.80999755859375,-8.520000457763672 C-113.80999755859375,-8.520000457763672 -118.11000061035156,-23.200000762939453 -118.11000061035156,-23.200000762939453 C-118.11000061035156,-23.200000762939453 -107.50599670410156,-19.856000900268555 -89.57499694824219,-16.084999084472656 C-68.24700164794922,-11.600000381469727 -36.55099868774414,-6.51200008392334 0,-5.730000019073486 C37.42499923706055,-6.531000137329102 69.75900268554688,-11.845999717712402 91.08699798583984,-16.4060001373291 C108.10099792480469,-20.042999267578125 118.11000061035156,-23.200000762939453 118.11000061035156,-23.200000762939453z"></path><g opacity="1" transform="matrix(1,0,0,1,0,0)"></g></g></g><g style="display: block;" transform="matrix(1,0,0,1,237.64801025390625,285.7339782714844)" opacity="1"><g opacity="1" transform="matrix(1,0,0,1,118.36000061035156,14.527000427246094)"><path fill="rgb(198,214,215)" fill-opacity="1" d=" M118.11000061035156,-13.104000091552734 C118.11000061035156,-13.104000091552734 113.80999755859375,1.5759999752044678 113.80999755859375,1.5759999752044678 C113.25,3.4760000705718994 111.9800033569336,5.086999893188477 110.26000213623047,6.077000141143799 C107.37000274658203,7.736999988555908 102.20800018310547,13.256999969482422 95.0780029296875,16.406999588012695 C106.81800079345703,-8.696999549865723 70.47699737548828,3.6070001125335693 0,4.367000102996826 C-69.75199890136719,5.11899995803833 -104.5530014038086,-11.526000022888184 -93.6520004272461,17.027000427246094 C-101.53199768066406,13.626999855041504 -107.18000030517578,7.8470001220703125 -110.26000213623047,6.077000141143799 C-111.9800033569336,5.086999893188477 -113.26000213623047,3.4760000705718994 -113.80999755859375,1.5759999752044678 C-113.80999755859375,1.5759999752044678 -118.11000061035156,-13.104000091552734 -118.11000061035156,-13.104000091552734 C-118.11000061035156,-13.104000091552734 -106.1259994506836,-9.324000358581543 -86.09400177001953,-5.270999908447266 C-64.87000274658203,-0.9769999980926514 -34.61199951171875,3.625999927520752 0,4.367000102996826 C42.16699981689453,3.4649999141693115 77.87200164794922,-3.1700000762939453 98.6520004272461,-7.995999813079834 C111.02799987792969,-10.869999885559082 118.11000061035156,-13.104000091552734 118.11000061035156,-13.104000091552734z"></path><g opacity="1" transform="matrix(1,0,0,1,0,0)"></g></g></g><g style="display: block;" transform="matrix(1,0,0,1,225.93699645996094,258.0169982910156)" opacity="1"><g opacity="1" transform="matrix(1,0,0,1,130.9600067138672,24.315000534057617)"><path fill="rgb(107,31,0)" fill-opacity="1" d=" M130.7100067138672,-4.815000057220459 C130.58999633789062,-1.1549999713897705 130.27999877929688,2.4749999046325684 129.7899932861328,6.054999828338623 C124.61000061035156,-3.765000104904175 96.66000366210938,21.94499969482422 0,24.065000534057617 C-96.66000366210938,21.94499969482422 -124.61000061035156,-3.765000104904175 -129.7899932861328,6.054999828338623 C-130.27999877929688,2.4749999046325684 -130.58999633789062,-1.1549999713897705 -130.7100067138672,-4.815000057220459 C-129.50999450683594,-24.065000534057617 -106.31999969482422,6.804999828338623 0,9.135000228881836 C106.31999969482422,6.804999828338623 129.50999450683594,-24.065000534057617 130.7100067138672,-4.815000057220459z"></path><g opacity="1" transform="matrix(1,0,0,1,0,0)"></g></g></g><g clip-path="url(#__lottie_element_81)" style="display: block;" transform="matrix(1,0,0,1,-99,0)" opacity="1"><g style="display: none;"><g><path></path><g></g></g></g><g style="display: none;"><g><path></path><g></g></g><g><path></path><g></g></g><g><path></path><g></g></g><g><path></path><g></g></g><g><path></path><g></g></g></g><g style="display: none;"><g><path></path><g></g></g></g><g style="display: none;"><g><path stroke-linecap="round" stroke-linejoin="round" fill-opacity="0"></path></g><g><path stroke-linecap="round" stroke-linejoin="round" fill-opacity="0"></path></g></g><g style="display: none;"><g><path stroke-linecap="round" stroke-linejoin="round" fill-opacity="0"></path></g></g><g clip-path="url(#__lottie_element_120)" style="display: none;"><g style="display: none;"><g><path></path><g></g></g></g><g style="display: none;"><g><path></path><g></g></g><g><path></path><g></g></g><g><path></path><g></g></g><g><path></path><g></g></g><g><path></path><g></g></g></g><g style="display: none;"><g><path></path><g></g></g></g><g style="display: none;"><g><path stroke-linecap="round" stroke-linejoin="round" fill-opacity="0"></path></g><g><path stroke-linecap="round" stroke-linejoin="round" fill-opacity="0"></path></g></g><g style="display: none;"><g><path stroke-linecap="round" stroke-linejoin="round" fill-opacity="0"></path></g></g></g><g clip-path="url(#__lottie_element_101)" style="display: none;"><g style="display: none;"><g><path></path><g></g></g></g><g style="display: none;"><g><path></path><g></g></g><g><path></path><g></g></g><g><path></path><g></g></g><g><path></path><g></g></g><g><path></path><g></g></g></g><g style="display: none;"><g><path></path><g></g></g></g><g style="display: none;"><g><path stroke-linecap="round" stroke-linejoin="round" fill-opacity="0"></path></g><g><path stroke-linecap="round" stroke-linejoin="round" fill-opacity="0"></path></g></g><g style="display: none;"><g><path stroke-linecap="round" stroke-linejoin="round" fill-opacity="0"></path></g></g></g><g style="display: block;" transform="matrix(1.0458048582077026,-0.18133744597434998,0.18133744597434998,1.0458048582077026,581.934326171875,255.01638793945312)" opacity="1"><g opacity="1" transform="matrix(1,0,0,1,46.58599853515625,57.25400161743164)"><path fill="rgb(56,163,223)" fill-opacity="1" d=" M-33.834999084472656,33.301998138427734 C-21.333999633789062,51.98899841308594 3.947999954223633,57.00400161743164 22.635000228881836,44.50299835205078 C41.321998596191406,32.00299835205078 46.33700180053711,6.71999979019165 33.83700180053711,-11.967000007629395 C21.336000442504883,-30.65399932861328 -45.26900100708008,-57.00400161743164 -45.26900100708008,-57.00400161743164 C-45.26900100708008,-57.00400161743164 -46.33599853515625,14.614999771118164 -33.834999084472656,33.301998138427734z"></path><g opacity="1" transform="matrix(1,0,0,1,0,0)"></g></g></g><g style="display: block;" transform="matrix(1.0458048582077026,-0.18133744597434998,0.18133744597434998,1.0458048582077026,606.5181884765625,292.155517578125)" opacity="1"><g opacity="1" transform="matrix(1,0,0,1,34.79499816894531,34.720001220703125)"><path fill="rgb(146,245,255)" fill-opacity="0.3" d=" M34.25699996948242,-4.693999767303467 C34.25699996948242,-4.693999767303467 34.25199890136719,-4.703999996185303 34.25199890136719,-4.703999996185303 C32.986000061035156,-8.446999549865723 34.54499816894531,-7.251999855041504 32.15299987792969,-10.727999687194824 C19.71299934387207,-28.77199935913086 -3.315999984741211,-34.47100067138672 -19.29199981689453,-23.45400047302246 C-29.718000411987305,-16.26799964904785 -34.54499816894531,-3.755000114440918 -33.20199966430664,9.081999778747559 C-30.632999420166016,19.922000885009766 -27.812000274658203,25.027000427246094 -19.448999404907227,31.399999618530273 C-19.437999725341797,31.395999908447266 -19.433000564575195,31.406999588012695 -19.429000854492188,31.417999267578125 C-15.911999702453613,32.93199920654297 -12.128000259399414,33.875999450683594 -8.10200023651123,34.14500045776367 C-3.5910000801086426,34.47100067138672 1.2239999771118164,33.9370002746582 6.264999866485596,32.39500045776367 C19.52400016784668,28.329999923706055 26.660999298095703,18.808000564575195 30.47599983215332,9.48900032043457 C32.569000244140625,4.388000011444092 33.680999755859375,-0.6489999890327454 34.25699996948242,-4.693999767303467z"></path><g opacity="1" transform="matrix(1,0,0,1,0,0)"></g></g><g opacity="1" transform="matrix(1,0,0,1,36.678001403808594,39.01599884033203)"><path fill="rgb(146,245,255)" fill-opacity="0.4" d=" M27.06399917602539,-11.029000282287598 C16.652000427246094,-26.13599967956543 -2.625999927520752,-30.905000686645508 -15.98799991607666,-21.690000534057617 C-29.36199951171875,-12.472000122070312 -31.7549991607666,7.24399995803833 -21.34600067138672,22.34000015258789 C-17.079999923706055,28.530000686645508 -14.711000442504883,28.11400032043457 -8.475000381469727,30.57900047302246 C-3.9639999866485596,30.905000686645508 0.8519999980926514,30.371000289916992 5.89300012588501,28.82900047302246 C19.152000427246094,24.763999938964844 26.288999557495117,15.243000030517578 30.104999542236328,5.923999786376953 C30.452999114990234,-1.371000051498413 31.7549991607666,-4.232999801635742 27.06399917602539,-11.029000282287598z"></path><g opacity="1" transform="matrix(1,0,0,1,0,0)"></g></g><g opacity="1" transform="matrix(1,0,0,1,39.92499923706055,43.8489990234375)"><path fill="rgb(146,245,255)" fill-opacity="0.4" d=" M-15.340999603271484,-20.312999725341797 C-26.222999572753906,-12.810999870300293 -28.176000595092773,3.2339999675750732 -19.70400047302246,15.52400016784668 C-11.230999946594238,27.815000534057617 1.069000005722046,26.82900047302246 11.951000213623047,19.32699966430664 C22.83300018310547,11.824999809265137 28.177000045776367,0.6480000019073486 19.70400047302246,-11.642000198364258 C11.230999946594238,-23.933000564575195 -4.459000110626221,-27.815000534057617 -15.340999603271484,-20.312999725341797z"></path><g opacity="1" transform="matrix(1,0,0,1,0,0)"></g></g><g opacity="1" transform="matrix(1,0,0,1,41.82600021362305,46.20500183105469)"><path fill="rgb(146,245,255)" fill-opacity="0.4" d=" M-11.354999542236328,-15.03499984741211 C-19.409000396728516,-9.482999801635742 -20.854999542236328,2.3929998874664307 -14.583999633789062,11.489999771118164 C-8.312999725341797,20.586999893188477 -0.09000000357627869,18.591999053955078 7.964000225067139,13.038999557495117 C16.018999099731445,7.486999988555908 20.854999542236328,0.47999998927116394 14.583999633789062,-8.616999626159668 C8.312999725341797,-17.714000701904297 -3.3010001182556152,-20.586999893188477 -11.354999542236328,-15.03499984741211z"></path><g opacity="1" transform="matrix(1,0,0,1,0,0)"></g></g><g opacity="1" transform="matrix(1,0,0,1,43.137001037597656,50.27799987792969)"><path fill="rgb(146,245,255)" fill-opacity="0.3" d=" M-6.2129998207092285,-8.227999687194824 C-10.621000289916992,-5.190000057220459 -11.413000106811523,1.309999942779541 -7.980999946594238,6.288000106811523 C-4.548999786376953,11.265999794006348 -1.5839999914169312,7.96999979019165 2.8239998817443848,4.932000160217285 C7.23199987411499,1.8940000534057617 11.413000106811523,0.2630000114440918 7.980999946594238,-4.715000152587891 C4.550000190734863,-9.692999839782715 -1.8049999475479126,-11.265999794006348 -6.2129998207092285,-8.227999687194824z"></path><g opacity="1" transform="matrix(1,0,0,1,0,0)"></g></g></g><g style="display: block;" transform="matrix(1.0458048582077026,-0.18133744597434998,0.18133744597434998,1.0458048582077026,595.581787109375,268.7763671875)" opacity="0.31"><g opacity="1" transform="matrix(1,0,0,1,27.3799991607666,33.625999450683594)"><path fill="rgb(255,255,255)" fill-opacity="1" d=" M-19.81100082397461,19.49799919128418 C-12.491999626159668,30.43899917602539 2.311000108718872,33.375999450683594 13.251999855041504,26.055999755859375 C24.194000244140625,18.73699951171875 27.1299991607666,3.934000015258789 19.81100082397461,-7.006999969482422 C12.491999626159668,-17.947999954223633 -26.5049991607666,-33.375999450683594 -26.5049991607666,-33.375999450683594 C-26.5049991607666,-33.375999450683594 -27.1299991607666,8.557000160217285 -19.81100082397461,19.49799919128418z"></path><g opacity="1" transform="matrix(1,0,0,1,0,0)"></g></g></g><g style="display: block;" transform="matrix(1.0458048582077026,-0.18133744597434998,0.18133744597434998,1.0458048582077026,595.2425537109375,265.9998779296875)" opacity="1"><g opacity="1" transform="matrix(1,0,0,1,16.218000411987305,10.517000198364258)"><path stroke-linecap="round" stroke-linejoin="round" fill-opacity="0" stroke="rgb(255,255,255)" stroke-opacity="1" stroke-width="6" d=" M-0.5249999761581421,-0.29899999499320984 C-0.5249999761581421,-0.29899999499320984 0.5249999761581421,0.29899999499320984 0.5249999761581421,0.29899999499320984"></path></g><g opacity="1" transform="matrix(1,0,0,1,5.658999919891357,4.51200008392334)"><path stroke-linecap="round" stroke-linejoin="round" fill-opacity="0" stroke="rgb(255,255,255)" stroke-opacity="1" stroke-width="6" d=" M-2.6589999198913574,-1.5119999647140503 C-2.6589999198913574,-1.5119999647140503 2.6589999198913574,1.5119999647140503 2.6589999198913574,1.5119999647140503"></path></g></g><g style="display: block;" transform="matrix(1.0458048582077026,-0.18133744597434998,0.18133744597434998,1.0458048582077026,558.9672241210938,238.7938995361328)" opacity="1"><g opacity="1" transform="matrix(1,0,0,1,65.81600189208984,76.50700378417969)"><path stroke-linecap="round" stroke-linejoin="round" fill-opacity="0" stroke="rgb(28,108,190)" stroke-opacity="1" stroke-width="9" d=" M-34.35599899291992,32.80500030517578 C-21.854999542236328,51.492000579833984 3.427000045776367,56.50699996948242 22.11400032043457,44.00600051879883 C40.80099868774414,31.506000518798828 45.816001892089844,6.2230000495910645 33.316001892089844,-12.46399974822998 C22.84600067138672,-28.114999771118164 -25.57699966430664,-49.141998291015625 -41.03300094604492,-55.56100082397461 C-43.3120002746582,-56.50699996948242 -45.816001892089844,-54.83300018310547 -45.81100082397461,-52.3650016784668 C-45.77799987792969,-35.62900161743164 -44.82600021362305,17.15399932861328 -34.35599899291992,32.80500030517578z"></path></g></g></g><g clip-path="url(#__lottie_element_8)" style="display: block;" transform="matrix(-1,0,0,1,812,0)" opacity="1"><g style="display: none;"><g><path></path><g></g></g></g><g style="display: none;"><g><path></path><g></g></g><g><path></path><g></g></g><g><path></path><g></g></g><g><path></path><g></g></g><g><path></path><g></g></g></g><g style="display: none;"><g><path></path><g></g></g></g><g style="display: none;"><g><path stroke-linecap="round" stroke-linejoin="round" fill-opacity="0"></path></g><g><path stroke-linecap="round" stroke-linejoin="round" fill-opacity="0"></path></g></g><g style="display: none;"><g><path stroke-linecap="round" stroke-linejoin="round" fill-opacity="0"></path></g></g><g clip-path="url(#__lottie_element_47)" style="display: none;"><g style="display: none;"><g><path></path><g></g></g></g><g style="display: none;"><g><path></path><g></g></g><g><path></path><g></g></g><g><path></path><g></g></g><g><path></path><g></g></g><g><path></path><g></g></g></g><g style="display: none;"><g><path></path><g></g></g></g><g style="display: none;"><g><path stroke-linecap="round" stroke-linejoin="round" fill-opacity="0"></path></g><g><path stroke-linecap="round" stroke-linejoin="round" fill-opacity="0"></path></g></g><g style="display: none;"><g><path stroke-linecap="round" stroke-linejoin="round" fill-opacity="0"></path></g></g></g><g clip-path="url(#__lottie_element_28)" style="display: none;"><g style="display: none;"><g><path></path><g></g></g></g><g style="display: none;"><g><path></path><g></g></g><g><path></path><g></g></g><g><path></path><g></g></g><g><path></path><g></g></g><g><path></path><g></g></g></g><g style="display: none;"><g><path></path><g></g></g></g><g style="display: none;"><g><path stroke-linecap="round" stroke-linejoin="round" fill-opacity="0"></path></g><g><path stroke-linecap="round" stroke-linejoin="round" fill-opacity="0"></path></g></g><g style="display: none;"><g><path stroke-linecap="round" stroke-linejoin="round" fill-opacity="0"></path></g></g></g><g style="display: block;" transform="matrix(1.0458048582077026,-0.18133744597434998,0.18133744597434998,1.0458048582077026,581.934326171875,255.01638793945312)" opacity="1"><g opacity="1" transform="matrix(1,0,0,1,46.58599853515625,57.25400161743164)"><path fill="rgb(56,163,223)" fill-opacity="1" d=" M-33.834999084472656,33.301998138427734 C-21.333999633789062,51.98899841308594 3.947999954223633,57.00400161743164 22.635000228881836,44.50299835205078 C41.321998596191406,32.00299835205078 46.33700180053711,6.71999979019165 33.83700180053711,-11.967000007629395 C21.336000442504883,-30.65399932861328 -45.26900100708008,-57.00400161743164 -45.26900100708008,-57.00400161743164 C-45.26900100708008,-57.00400161743164 -46.33599853515625,14.614999771118164 -33.834999084472656,33.301998138427734z"></path><g opacity="1" transform="matrix(1,0,0,1,0,0)"></g></g></g><g style="display: block;" transform="matrix(1.0458048582077026,-0.18133744597434998,0.18133744597434998,1.0458048582077026,606.5181884765625,292.155517578125)" opacity="1"><g opacity="1" transform="matrix(1,0,0,1,34.79499816894531,34.720001220703125)"><path fill="rgb(146,245,255)" fill-opacity="0.3" d=" M34.25699996948242,-4.693999767303467 C34.25699996948242,-4.693999767303467 34.25199890136719,-4.703999996185303 34.25199890136719,-4.703999996185303 C32.986000061035156,-8.446999549865723 34.54499816894531,-7.251999855041504 32.15299987792969,-10.727999687194824 C19.71299934387207,-28.77199935913086 -3.315999984741211,-34.47100067138672 -19.29199981689453,-23.45400047302246 C-29.718000411987305,-16.26799964904785 -34.54499816894531,-3.755000114440918 -33.20199966430664,9.081999778747559 C-30.632999420166016,19.922000885009766 -27.812000274658203,25.027000427246094 -19.448999404907227,31.399999618530273 C-19.437999725341797,31.395999908447266 -19.433000564575195,31.406999588012695 -19.429000854492188,31.417999267578125 C-15.911999702453613,32.93199920654297 -12.128000259399414,33.875999450683594 -8.10200023651123,34.14500045776367 C-3.5910000801086426,34.47100067138672 1.2239999771118164,33.9370002746582 6.264999866485596,32.39500045776367 C19.52400016784668,28.329999923706055 26.660999298095703,18.808000564575195 30.47599983215332,9.48900032043457 C32.569000244140625,4.388000011444092 33.680999755859375,-0.6489999890327454 34.25699996948242,-4.693999767303467z"></path><g opacity="1" transform="matrix(1,0,0,1,0,0)"></g></g><g opacity="1" transform="matrix(1,0,0,1,36.678001403808594,39.01599884033203)"><path fill="rgb(146,245,255)" fill-opacity="0.4" d=" M27.06399917602539,-11.029000282287598 C16.652000427246094,-26.13599967956543 -2.625999927520752,-30.905000686645508 -15.98799991607666,-21.690000534057617 C-29.36199951171875,-12.472000122070312 -31.7549991607666,7.24399995803833 -21.34600067138672,22.34000015258789 C-17.079999923706055,28.530000686645508 -14.711000442504883,28.11400032043457 -8.475000381469727,30.57900047302246 C-3.9639999866485596,30.905000686645508 0.8519999980926514,30.371000289916992 5.89300012588501,28.82900047302246 C19.152000427246094,24.763999938964844 26.288999557495117,15.243000030517578 30.104999542236328,5.923999786376953 C30.452999114990234,-1.371000051498413 31.7549991607666,-4.232999801635742 27.06399917602539,-11.029000282287598z"></path><g opacity="1" transform="matrix(1,0,0,1,0,0)"></g></g><g opacity="1" transform="matrix(1,0,0,1,39.92499923706055,43.8489990234375)"><path fill="rgb(146,245,255)" fill-opacity="0.4" d=" M-15.340999603271484,-20.312999725341797 C-26.222999572753906,-12.810999870300293 -28.176000595092773,3.2339999675750732 -19.70400047302246,15.52400016784668 C-11.230999946594238,27.815000534057617 1.069000005722046,26.82900047302246 11.951000213623047,19.32699966430664 C22.83300018310547,11.824999809265137 28.177000045776367,0.6480000019073486 19.70400047302246,-11.642000198364258 C11.230999946594238,-23.933000564575195 -4.459000110626221,-27.815000534057617 -15.340999603271484,-20.312999725341797z"></path><g opacity="1" transform="matrix(1,0,0,1,0,0)"></g></g><g opacity="1" transform="matrix(1,0,0,1,41.82600021362305,46.20500183105469)"><path fill="rgb(146,245,255)" fill-opacity="0.4" d=" M-11.354999542236328,-15.03499984741211 C-19.409000396728516,-9.482999801635742 -20.854999542236328,2.3929998874664307 -14.583999633789062,11.489999771118164 C-8.312999725341797,20.586999893188477 -0.09000000357627869,18.591999053955078 7.964000225067139,13.038999557495117 C16.018999099731445,7.486999988555908 20.854999542236328,0.47999998927116394 14.583999633789062,-8.616999626159668 C8.312999725341797,-17.714000701904297 -3.3010001182556152,-20.586999893188477 -11.354999542236328,-15.03499984741211z"></path><g opacity="1" transform="matrix(1,0,0,1,0,0)"></g></g><g opacity="1" transform="matrix(1,0,0,1,43.137001037597656,50.27799987792969)"><path fill="rgb(146,245,255)" fill-opacity="0.3" d=" M-6.2129998207092285,-8.227999687194824 C-10.621000289916992,-5.190000057220459 -11.413000106811523,1.309999942779541 -7.980999946594238,6.288000106811523 C-4.548999786376953,11.265999794006348 -1.5839999914169312,7.96999979019165 2.8239998817443848,4.932000160217285 C7.23199987411499,1.8940000534057617 11.413000106811523,0.2630000114440918 7.980999946594238,-4.715000152587891 C4.550000190734863,-9.692999839782715 -1.8049999475479126,-11.265999794006348 -6.2129998207092285,-8.227999687194824z"></path><g opacity="1" transform="matrix(1,0,0,1,0,0)"></g></g></g><g style="display: block;" transform="matrix(1.0458048582077026,-0.18133744597434998,0.18133744597434998,1.0458048582077026,595.581787109375,268.7763671875)" opacity="0.31"><g opacity="1" transform="matrix(1,0,0,1,27.3799991607666,33.625999450683594)"><path fill="rgb(255,255,255)" fill-opacity="1" d=" M-19.81100082397461,19.49799919128418 C-12.491999626159668,30.43899917602539 2.311000108718872,33.375999450683594 13.251999855041504,26.055999755859375 C24.194000244140625,18.73699951171875 27.1299991607666,3.934000015258789 19.81100082397461,-7.006999969482422 C12.491999626159668,-17.947999954223633 -26.5049991607666,-33.375999450683594 -26.5049991607666,-33.375999450683594 C-26.5049991607666,-33.375999450683594 -27.1299991607666,8.557000160217285 -19.81100082397461,19.49799919128418z"></path><g opacity="1" transform="matrix(1,0,0,1,0,0)"></g></g></g><g style="display: block;" transform="matrix(1.0458048582077026,-0.18133744597434998,0.18133744597434998,1.0458048582077026,595.2425537109375,265.9998779296875)" opacity="1"><g opacity="1" transform="matrix(1,0,0,1,16.218000411987305,10.517000198364258)"><path stroke-linecap="round" stroke-linejoin="round" fill-opacity="0" stroke="rgb(255,255,255)" stroke-opacity="1" stroke-width="6" d=" M-0.5249999761581421,-0.29899999499320984 C-0.5249999761581421,-0.29899999499320984 0.5249999761581421,0.29899999499320984 0.5249999761581421,0.29899999499320984"></path></g><g opacity="1" transform="matrix(1,0,0,1,5.658999919891357,4.51200008392334)"><path stroke-linecap="round" stroke-linejoin="round" fill-opacity="0" stroke="rgb(255,255,255)" stroke-opacity="1" stroke-width="6" d=" M-2.6589999198913574,-1.5119999647140503 C-2.6589999198913574,-1.5119999647140503 2.6589999198913574,1.5119999647140503 2.6589999198913574,1.5119999647140503"></path></g></g><g style="display: block;" transform="matrix(1.0458048582077026,-0.18133744597434998,0.18133744597434998,1.0458048582077026,558.9672241210938,238.7938995361328)" opacity="1"><g opacity="1" transform="matrix(1,0,0,1,65.81600189208984,76.50700378417969)"><path stroke-linecap="round" stroke-linejoin="round" fill-opacity="0" stroke="rgb(28,108,190)" stroke-opacity="1" stroke-width="9" d=" M-34.35599899291992,32.80500030517578 C-21.854999542236328,51.492000579833984 3.427000045776367,56.50699996948242 22.11400032043457,44.00600051879883 C40.80099868774414,31.506000518798828 45.816001892089844,6.2230000495910645 33.316001892089844,-12.46399974822998 C22.84600067138672,-28.114999771118164 -25.57699966430664,-49.141998291015625 -41.03300094604492,-55.56100082397461 C-43.3120002746582,-56.50699996948242 -45.816001892089844,-54.83300018310547 -45.81100082397461,-52.3650016784668 C-45.77799987792969,-35.62900161743164 -44.82600021362305,17.15399932861328 -34.35599899291992,32.80500030517578z"></path></g></g></g></g></g></svg>