<svg xmlns="http://www.w3.org/2000/svg" viewBox="0 0 512 512" width="512" height="512" style="width: 100%; height: 100%; transform: translate3d(0,0,0);" preserveAspectRatio="xMidYMid meet"><defs><clipPath id="__lottie_element_10070"><rect width="512" height="512" x="0" y="0"></rect></clipPath><linearGradient id="__lottie_element_10079" spreadMethod="pad" gradientUnits="userSpaceOnUse" x1="-160.03500366210938" y1="-109" x2="165.12100219726562" y2="-109"><stop offset="6%" stop-color="rgb(174,0,0)"></stop><stop offset="13%" stop-color="rgb(214,20,0)"></stop><stop offset="32%" stop-color="rgb(255,41,0)"></stop><stop offset="71%" stop-color="rgb(214,20,0)"></stop><stop offset="83%" stop-color="rgb(174,0,0)"></stop></linearGradient><linearGradient id="__lottie_element_10080" spreadMethod="pad" gradientUnits="userSpaceOnUse" x1="-181.03500366210938" y1="-46" x2="184.6230010986328" y2="-46"><stop offset="0%" stop-color="rgb(206,204,203)"></stop><stop offset="8%" stop-color="rgb(231,229,229)"></stop><stop offset="49%" stop-color="rgb(255,255,255)"></stop><stop offset="93%" stop-color="rgb(226,226,225)"></stop><stop offset="100%" stop-color="rgb(198,197,195)"></stop></linearGradient><linearGradient id="__lottie_element_10101" spreadMethod="pad" gradientUnits="userSpaceOnUse" x1="-60.534000396728516" y1="35" x2="-48.22700119018555" y2="53.73099899291992"><stop offset="0%" stop-color="rgb(60,5,0)"></stop><stop offset="38%" stop-color="rgb(111,45,0)"></stop><stop offset="100%" stop-color="rgb(162,84,0)"></stop></linearGradient><linearGradient id="__lottie_element_10102" spreadMethod="pad" gradientUnits="userSpaceOnUse" x1="62.840999603271484" y1="34.125" x2="76.14800262451172" y2="52.35599899291992"><stop offset="0%" stop-color="rgb(60,5,0)"></stop><stop offset="38%" stop-color="rgb(111,45,0)"></stop><stop offset="100%" stop-color="rgb(162,84,0)"></stop></linearGradient></defs><g clip-path="url(#__lottie_element_10070)"><g style="display: block;" transform="matrix(1,0,0,1,196.67800903320312,208.35301208496094)" opacity="1"><g opacity="1" transform="matrix(1,0,0,1,0,0)"><path fill="rgb(174,0,0)" fill-opacity="1" d=" M146.41400146484375,-66.71499633789062 C146.41400146484375,-66.71499633789062 152.25799560546875,-20.073999404907227 149.71499633789062,37.36800003051758 C148.1320037841797,73.12999725341797 147.28700256347656,110.96900177001953 154.25799560546875,141.75 C154.25799560546875,141.75 142.25,147 125.0250015258789,108.62699890136719 C106.08300018310547,66.4280014038086 93.68900299072266,1.4559999704360962 102.54100036621094,-38.03499984741211 C111.39299774169922,-77.5260009765625 146.41400146484375,-66.71499633789062 146.41400146484375,-66.71499633789062z"></path><path stroke-linecap="round" stroke-linejoin="round" fill-opacity="0" stroke="rgb(117,0,0)" stroke-opacity="1" stroke-width="8" d=" M146.41400146484375,-66.71499633789062 C146.41400146484375,-66.71499633789062 152.25799560546875,-20.073999404907227 149.71499633789062,37.36800003051758 C148.1320037841797,73.12999725341797 147.28700256347656,110.96900177001953 154.25799560546875,141.75 C154.25799560546875,141.75 142.25,147 125.0250015258789,108.62699890136719 C106.08300018310547,66.4280014038086 93.68900299072266,1.4559999704360962 102.54100036621094,-38.03499984741211 C111.39299774169922,-77.5260009765625 146.41400146484375,-66.71499633789062 146.41400146484375,-66.71499633789062z"></path></g></g><g style="display: block;" transform="matrix(1,0,0,1,196.67800903320312,208.35301208496094)" opacity="1"><g opacity="1" transform="matrix(1,0,0,1,0,0)"><path fill="rgb(235,234,234)" fill-opacity="1" d=" M162.4770050048828,122.53600311279297 C178.83299255371094,125.5 187.58200073242188,138.09800720214844 186.51300048828125,151.96600341796875 C185.44400024414062,165.83399963378906 176.56199645996094,177.52099609375 156.531005859375,177.66099548339844 C136.5,177.80099487304688 126.16699981689453,159.83399963378906 131.98300170898438,143.4499969482422 C135.26800537109375,134.197998046875 146.12100219726562,119.5719985961914 162.4770050048828,122.53600311279297z"></path></g><g opacity="0.2" transform="matrix(1,0,0,1,0,0)"><path fill="rgb(144,148,158)" fill-opacity="1" d=" M131.53199768066406,146.1479949951172 C131.79200744628906,149.59800720214844 135.95199584960938,152.8280029296875 135.95199584960938,152.8280029296875 C135.3730010986328,162.08900451660156 146.33200073242188,160.48800659179688 146.33200073242188,160.48800659179688 C150.25,166.08299255371094 160.08299255371094,165.41600036621094 164.07200622558594,160.84800720214844 C170.58299255371094,162.66600036621094 177.5,157.58299255371094 174.6219940185547,150.13800048828125 C174.6219940185547,150.13800048828125 179.95799255371094,147.57200622558594 177.19200134277344,143.2779998779297 C177.19200134277344,143.2779998779297 179.82200622558594,134.20799255371094 179.82200622558594,134.20799255371094 C209,189.625 114.25,188 131.53199768066406,146.1479949951172z"></path></g><g opacity="1" transform="matrix(1,0,0,1,0,0)"><path stroke-linecap="butt" stroke-linejoin="miter" fill-opacity="0" stroke-miterlimit="10" stroke="rgb(180,176,173)" stroke-opacity="1" stroke-width="8" d=" M150.18899536132812,126.62200164794922 C157.36500549316406,121.70899963378906 163.33099365234375,122.50900268554688 168.32200622558594,127.91200256347656 C168.32200622558594,127.91200256347656 175.31100463867188,126.76000213623047 179.01199340820312,132.71800231933594 C181.60899353027344,136.8990020751953 181.26100158691406,140.88900756835938 181.26100158691406,140.88900756835938 C187.625,144.375 188.375,155.48199462890625 181.93499755859375,159.3820037841797 C184.5,168 178.625,176.125 168.89599609375,174.86500549316406 C161.4739990234375,180.1060028076172 154.38400268554688,180.4250030517578 147.76300048828125,173.7899932861328 C147.76300048828125,173.7899932861328 139.69700622558594,172.7519989013672 134.94900512695312,167.69400024414062 C130.76300048828125,163.23500061035156 130.0030059814453,157.23800659179688 132.0260009765625,152.49899291992188 C132.0260009765625,152.49899291992188 128.9010009765625,141.4720001220703 137.33399963378906,135.79400634765625 C137.33399963378906,135.79400634765625 139.0780029296875,126.9540023803711 150.18899536132812,126.62200164794922z"></path></g></g><g style="display: block;" transform="matrix(1,0,0,1,255.99200439453125,255.9910125732422)" opacity="1"><g opacity="1" transform="matrix(1,0,0,1,0,0)"><path fill="rgb(255,205,0)" fill-opacity="1" d=" M1.3830000162124634,-86.43699645996094 C1.3830000162124634,-86.43699645996094 -168.6790008544922,-18.297000885009766 -127.11299896240234,103.08799743652344 C-110.14099884033203,152.6510009765625 -58.44200134277344,159.42599487304688 -54.19200134277344,162.72799682617188 C-36.78200149536133,176.2519989013672 -19.43000030517578,183.3300018310547 1.3830000162124634,183.3300018310547 C22.173999786376953,183.3300018310547 39.792999267578125,175.8260040283203 56.95800018310547,162.72799682617188 C61.23699951171875,159.46299743652344 112.90699768066406,152.6510009765625 129.87899780273438,103.08799743652344 C171.44500732421875,-18.297000885009766 1.3830000162124634,-86.43699645996094 1.3830000162124634,-86.43699645996094z"></path></g><g opacity="1" transform="matrix(1,0,0,1,0,0)"><path fill="rgb(255,169,0)" fill-opacity="1" d=" M1.3830000162124634,-86.43900299072266 C1.3830000162124634,-86.43900299072266 -168.677001953125,-18.298999786376953 -127.11699676513672,103.09100341796875 C-110.13700103759766,152.6510009765625 -58.446998596191406,159.43099975585938 -54.196998596191406,162.7310028076172 C-36.7869987487793,176.25100708007812 -19.427000045776367,183.33099365234375 1.3830000162124634,183.33099365234375 C22.17300033569336,183.33099365234375 39.792999267578125,175.83099365234375 56.9630012512207,162.7310028076172 C61.233001708984375,159.46099853515625 112.90299987792969,152.6510009765625 129.88299560546875,103.09100341796875 C171.4429931640625,-18.298999786376953 1.3830000162124634,-86.43900299072266 1.3830000162124634,-86.43900299072266z M51.72999954223633,145.9600067138672 C35.176998138427734,154.552001953125 27.434999465942383,166.7209930419922 0.8830000162124634,166.7209930419922 C-24.66900062561035,166.7209930419922 -31.726999282836914,153.4810028076172 -50.356998443603516,146.1510009765625 C-68.99700164794922,138.81100463867188 -103.74500274658203,128.1179962158203 -110.30500030517578,84.86799621582031 C-116.875,41.61800003051758 -96.0260009765625,8.51099967956543 -80.26699829101562,-3.8489999771118164 C-80.26699829101562,-3.8489999771118164 -60.33700180053711,-9.668999671936035 -54.5369987487793,-26.388999938964844 C-54.5369987487793,-26.388999938964844 -32.24700164794922,-24.64900016784668 -18.427000045776367,-43.45899963378906 C-18.427000045776367,-43.45899963378906 -4.52400016784668,-45.39699935913086 0.8830000162124634,-55.249000549316406 C0.8830000162124634,-55.249000549316406 8.532999992370605,-40.94900131225586 25.26300048828125,-42.45899963378906 C25.26300048828125,-42.45899963378906 38.77299880981445,-19.889999389648438 62.26300048828125,-22.8799991607666 C66.74600219726562,-13.430000305175781 73.35700225830078,-8.461999893188477 82.34300231933594,-8.49899959564209 C95.75700378417969,3.259999990463257 121.7040023803711,47.608001708984375 112.54199981689453,89.12699890136719 C103.02300262451172,132.26499938964844 66.87300109863281,138.10000610351562 51.72999954223633,145.9600067138672z"></path></g><g opacity="1" transform="matrix(1,0,0,1,0,0)"><path stroke-linecap="round" stroke-linejoin="round" fill-opacity="0" stroke="rgb(220,119,0)" stroke-opacity="1" stroke-width="8" d=" M1.3830000162124634,-86.43699645996094 C1.3830000162124634,-86.43699645996094 -168.6790008544922,-18.297000885009766 -127.11299896240234,103.08799743652344 C-110.14099884033203,152.6510009765625 -58.44200134277344,159.42599487304688 -54.19200134277344,162.72799682617188 C-36.78200149536133,176.2519989013672 -19.43000030517578,183.3300018310547 1.3830000162124634,183.3300018310547 C22.173999786376953,183.3300018310547 39.792999267578125,175.8260040283203 56.95800018310547,162.72799682617188 C61.23699951171875,159.46299743652344 112.90699768066406,152.6510009765625 129.87899780273438,103.08799743652344 C171.44500732421875,-18.297000885009766 1.3830000162124634,-86.43699645996094 1.3830000162124634,-86.43699645996094z"></path></g><g opacity="0.2" transform="matrix(1,0,0,1,0,0)"><path stroke-linecap="round" stroke-linejoin="round" fill-opacity="0" stroke="rgb(220,119,0)" stroke-opacity="1" stroke-width="8" d=" M-54.53900146484375,-38.45800018310547 C-54.53900146484375,-38.45800018310547 0,-33.375 56.41600036621094,-38.45800018310547"></path></g></g><g style="display: block;" transform="matrix(1,0,0,1,252.83200073242188,250.55801391601562)" opacity="1"><g opacity="1" transform="matrix(1.0800000429153442,0,0,1.0800000429153442,4.5612030029296875,-3.1565628051757812)"><g opacity="1" transform="matrix(1,0,0,1,0,0)"><path fill="rgb(255,246,207)" fill-opacity="1" d=" M-23.608999252319336,48.6879997253418 C-23.608999252319336,48.6879997253418 -28.525999069213867,16.075000762939453 -55.106998443603516,16.077999114990234 C-79.90799713134766,16.079999923706055 -90.81800079345703,39.68299865722656 -90.81800079345703,46.308998107910156 C-90.81800079345703,46.308998107910156 -80.83699798583984,63.584999084472656 -56.7599983215332,63.56399917602539 C-29.634000778198242,63.540000915527344 -23.608999252319336,48.6879997253418 -23.608999252319336,48.6879997253418z"></path></g><g opacity="1" transform="matrix(1,0,0,1,0,0)"><g opacity="1" transform="matrix(1,0,0,1,0,0)"><path fill="url(#__lottie_element_10101)" fill-opacity="1" d=" M-36.731998443603516,39.82099914550781 C-36.731998443603516,50.948001861572266 -45.79399871826172,59.96699905395508 -56.97200012207031,59.96699905395508 C-68.1500015258789,59.96699905395508 -77.21199798583984,50.948001861572266 -77.21199798583984,39.82099914550781 C-77.21199798583984,28.69499969482422 -68.1500015258789,19.673999786376953 -56.97200012207031,19.673999786376953 C-45.79399871826172,19.673999786376953 -36.731998443603516,28.69499969482422 -36.731998443603516,39.82099914550781z"></path></g><g opacity="1" transform="matrix(1,0,0,1,0,0)"><path fill="rgb(24,19,9)" fill-opacity="1" d=" M-44.18000030517578,39.82099914550781 C-44.18000030517578,46.85300064086914 -49.90700149536133,52.553001403808594 -56.97200012207031,52.553001403808594 C-64.03700256347656,52.553001403808594 -69.76399993896484,46.85300064086914 -69.76399993896484,39.82099914550781 C-69.76399993896484,32.78900146484375 -64.03700256347656,27.08799934387207 -56.97200012207031,27.08799934387207 C-49.90700149536133,27.08799934387207 -44.18000030517578,32.78900146484375 -44.18000030517578,39.82099914550781z"></path></g><g opacity="1" transform="matrix(1,0,0,1,0,0)"><path fill="rgb(243,243,243)" fill-opacity="1" d=" M-58.10599899291992,29.836000442504883 C-58.10599899291992,32.50600051879883 -60.279998779296875,34.67100143432617 -62.9630012512207,34.67100143432617 C-65.64600372314453,34.67100143432617 -67.82099914550781,32.50600051879883 -67.82099914550781,29.836000442504883 C-67.82099914550781,27.165000915527344 -65.64600372314453,25.000999450683594 -62.9630012512207,25.000999450683594 C-60.279998779296875,25.000999450683594 -58.10599899291992,27.165000915527344 -58.10599899291992,29.836000442504883z"></path></g><g opacity="1" transform="matrix(1,0,0,1,0,0)"><path stroke-linecap="round" stroke-linejoin="round" fill-opacity="0" stroke="rgb(235,147,0)" stroke-opacity="1" stroke-width="3.5" d=" M-41.994998931884766,45.512001037597656 C-43.499000549316406,49.9739990234375 -47.097999572753906,53.47999954223633 -51.62900161743164,54.87099838256836"></path></g></g><g opacity="1" transform="matrix(1,0,0,1,0,0)"><path fill="rgb(255,205,0)" fill-opacity="1" d=" M-23.608999252319336,48.6879997253418 C-23.608999252319336,48.6879997253418 -27.018999099731445,68.58300018310547 -48.50199890136719,72.41999816894531 C-69.98500061035156,76.25700378417969 -87.23100280761719,59.270999908447266 -90.81800079345703,46.308998107910156 C-90.81800079345703,46.308998107910156 -79.83300018310547,64.56700134277344 -56.82699966430664,63.909000396728516 C-26.905000686645508,63.05400085449219 -23.608999252319336,48.6879997253418 -23.608999252319336,48.6879997253418z"></path></g><g opacity="1" transform="matrix(1,0,0,1,0,0)"><path fill="rgb(255,205,0)" fill-opacity="1" d=" M-57.582000732421875,5.941999912261963 C-84.08200073242188,5.941999912261963 -99.33200073242188,27.941999435424805 -93.58200073242188,44.44200134277344 C-91.58200073242188,36.69200134277344 -85.08000183105469,12.126999855041504 -58.082000732421875,11.692000389099121 C-27.082000732421875,11.192000389099121 -21.582000732421875,43.94200134277344 -20.082000732421875,46.44200134277344 C-15.331999778747559,29.441999435424805 -31.082000732421875,5.941999912261963 -57.582000732421875,5.941999912261963z"></path></g><g opacity="1" transform="matrix(1,0,0,1,0,0)"><path fill="rgb(142,58,0)" fill-opacity="1" d=" M-23.871999740600586,44.097999572753906 C-23.871999740600586,44.097999572753906 -31.92799949645996,13.847999572753906 -57.96200180053711,14.121000289916992 C-83.99600219726562,14.394000053405762 -89.77200317382812,38.96099853515625 -90.81800079345703,46.308998107910156 C-90.81800079345703,46.308998107910156 -86.62999725341797,16.75200080871582 -56.96200180053711,16.41900062561035 C-32.391998291015625,16.143999099731445 -23.871999740600586,44.097999572753906 -23.871999740600586,44.097999572753906z"></path><path stroke-linecap="round" stroke-linejoin="round" fill-opacity="0" stroke="rgb(142,58,0)" stroke-opacity="1" stroke-width="2" d=" M-23.871999740600586,44.097999572753906 C-23.871999740600586,44.097999572753906 -31.92799949645996,13.847999572753906 -57.96200180053711,14.121000289916992 C-83.99600219726562,14.394000053405762 -89.77200317382812,38.96099853515625 -90.81800079345703,46.308998107910156 C-90.81800079345703,46.308998107910156 -86.62999725341797,16.75200080871582 -56.96200180053711,16.41900062561035 C-32.391998291015625,16.143999099731445 -23.871999740600586,44.097999572753906 -23.871999740600586,44.097999572753906z"></path></g></g><g opacity="1" transform="matrix(1.0800000429153442,0,0,1.0800000429153442,-5.3188018798828125,-3.1565628051757812)"><g opacity="1" transform="matrix(1,0,0,1,0,0)"><path fill="rgb(255,246,207)" fill-opacity="1" d=" M32.86399841308594,48.6879997253418 C32.86399841308594,48.6879997253418 37.78200149536133,16.075000762939453 64.36299896240234,16.077999114990234 C89.16400146484375,16.079999923706055 100.072998046875,39.68299865722656 100.072998046875,46.308998107910156 C100.072998046875,46.308998107910156 90.09300231933594,63.584999084472656 66.01599884033203,63.56399917602539 C38.88999938964844,63.540000915527344 32.86399841308594,48.6879997253418 32.86399841308594,48.6879997253418z"></path></g><g opacity="1" transform="matrix(1,0,0,1,0,0)"><g opacity="1" transform="matrix(1,0,0,1,0,0)"><path fill="url(#__lottie_element_10102)" fill-opacity="1" d=" M86.46700286865234,39.82099914550781 C86.46700286865234,50.948001861572266 77.40499877929688,59.96699905395508 66.22699737548828,59.96699905395508 C55.04899978637695,59.96699905395508 45.98699951171875,50.948001861572266 45.98699951171875,39.82099914550781 C45.98699951171875,28.69499969482422 55.04899978637695,19.673999786376953 66.22699737548828,19.673999786376953 C77.40499877929688,19.673999786376953 86.46700286865234,28.69499969482422 86.46700286865234,39.82099914550781z"></path></g><g opacity="1" transform="matrix(1,0,0,1,0,0)"><path fill="rgb(24,19,9)" fill-opacity="1" d=" M79.01899719238281,39.82099914550781 C79.01899719238281,46.85300064086914 73.29199981689453,52.553001403808594 66.22699737548828,52.553001403808594 C59.1619987487793,52.553001403808594 53.43600082397461,46.85300064086914 53.43600082397461,39.82099914550781 C53.43600082397461,32.78900146484375 59.1619987487793,27.08799934387207 66.22699737548828,27.08799934387207 C73.29199981689453,27.08799934387207 79.01899719238281,32.78900146484375 79.01899719238281,39.82099914550781z"></path></g><g opacity="1" transform="matrix(1,0,0,1,0,0)"><path fill="rgb(243,243,243)" fill-opacity="1" d=" M65.09400177001953,29.836000442504883 C65.09400177001953,32.50600051879883 62.91899871826172,34.67100143432617 60.236000061035156,34.67100143432617 C57.553001403808594,34.67100143432617 55.37900161743164,32.50600051879883 55.37900161743164,29.836000442504883 C55.37900161743164,27.165000915527344 57.553001403808594,25.000999450683594 60.236000061035156,25.000999450683594 C62.91899871826172,25.000999450683594 65.09400177001953,27.165000915527344 65.09400177001953,29.836000442504883z"></path></g><g opacity="1" transform="matrix(1,0,0,1,0,0)"><path stroke-linecap="round" stroke-linejoin="round" fill-opacity="0" stroke="rgb(235,147,0)" stroke-opacity="1" stroke-width="3.5" d=" M81.20500183105469,45.512001037597656 C79.70099639892578,49.9739990234375 76.10199737548828,53.47999954223633 71.57099914550781,54.87099838256836"></path></g></g><g opacity="1" transform="matrix(1,0,0,1,0,0)"><path fill="rgb(255,205,0)" fill-opacity="1" d=" M32.86399841308594,48.6879997253418 C32.86399841308594,48.6879997253418 36.27399826049805,68.58300018310547 57.75699996948242,72.41999816894531 C79.23999786376953,76.25700378417969 96.48600006103516,59.270999908447266 100.072998046875,46.308998107910156 C100.072998046875,46.308998107910156 92.09300231933594,62.970001220703125 65.91400146484375,63.9739990234375 C40.66699981689453,64.94200134277344 32.86399841308594,48.6879997253418 32.86399841308594,48.6879997253418z"></path></g><g opacity="1" transform="matrix(1,0,0,1,123.5,0)"><path fill="rgb(255,205,0)" fill-opacity="1" d=" M-57.582000732421875,5.941999912261963 C-84.08200073242188,5.941999912261963 -99.33200073242188,27.941999435424805 -93.58200073242188,44.44200134277344 C-91.58200073242188,36.69200134277344 -85.08000183105469,12.126999855041504 -58.082000732421875,11.692000389099121 C-27.082000732421875,11.192000389099121 -21.582000732421875,43.94200134277344 -20.082000732421875,46.44200134277344 C-15.331999778747559,29.441999435424805 -31.082000732421875,5.941999912261963 -57.582000732421875,5.941999912261963z"></path></g><g opacity="1" transform="matrix(1,0,0,1,0,0)"><path fill="rgb(142,58,0)" fill-opacity="1" d=" M33.12799835205078,44.097999572753906 C33.12799835205078,44.097999572753906 41.183998107910156,13.847999572753906 67.21800231933594,14.121000289916992 C93.25199890136719,14.394000053405762 99.0270004272461,38.96099853515625 100.072998046875,46.308998107910156 C100.072998046875,46.308998107910156 95.88600158691406,16.75200080871582 66.21800231933594,16.41900062561035 C41.64799880981445,16.143999099731445 33.12799835205078,44.097999572753906 33.12799835205078,44.097999572753906z"></path><path stroke-linecap="round" stroke-linejoin="round" fill-opacity="0" stroke="rgb(142,58,0)" stroke-opacity="1" stroke-width="2" d=" M33.12799835205078,44.097999572753906 C33.12799835205078,44.097999572753906 41.183998107910156,13.847999572753906 67.21800231933594,14.121000289916992 C93.25199890136719,14.394000053405762 99.0270004272461,38.96099853515625 100.072998046875,46.308998107910156 C100.072998046875,46.308998107910156 95.88600158691406,16.75200080871582 66.21800231933594,16.41900062561035 C41.64799880981445,16.143999099731445 33.12799835205078,44.097999572753906 33.12799835205078,44.097999572753906z"></path></g></g></g><g style="display: block;" transform="matrix(1,0,0,1,256.06500244140625,256.0980224609375)" opacity="1"><g opacity="1" transform="matrix(1,0,0,1,0,0)"><path fill="rgb(142,58,0)" fill-opacity="1" d=" M96.94100189208984,7.585999965667725 C97.7239990234375,8.411999702453613 98.47899627685547,6.576000213623047 96.2770004272461,3.2230000495910645 C92.10299682617188,-3.131999969482422 82.12000274658203,-10.843000411987305 73.1729965209961,-13.350000381469727 C55.422000885009766,-18.322999954223633 47.755001068115234,-10.869000434875488 48.90599822998047,-9.463000297546387 C49.43899917602539,-8.812000274658203 77.23500061035156,-13.192000389099121 96.94100189208984,7.585999965667725z"></path><path stroke-linecap="round" stroke-linejoin="round" fill-opacity="0" stroke="rgb(142,58,0)" stroke-opacity="1" stroke-width="2" d=" M96.94100189208984,7.585999965667725 C97.7239990234375,8.411999702453613 98.47899627685547,6.576000213623047 96.2770004272461,3.2230000495910645 C92.10299682617188,-3.131999969482422 82.12000274658203,-10.843000411987305 73.1729965209961,-13.350000381469727 C55.422000885009766,-18.322999954223633 47.755001068115234,-10.869000434875488 48.90599822998047,-9.463000297546387 C49.43899917602539,-8.812000274658203 77.23500061035156,-13.192000389099121 96.94100189208984,7.585999965667725z"></path></g><g opacity="1" transform="matrix(1,0,0,1,0,0)"><path fill="rgb(142,58,0)" fill-opacity="1" d=" M-94.28800201416016,7.585999965667725 C-95.07099914550781,8.411999702453613 -95.82499694824219,6.576000213623047 -93.62300109863281,3.2230000495910645 C-89.4489974975586,-3.131999969482422 -79.46600341796875,-10.843000411987305 -70.51899719238281,-13.350000381469727 C-52.768001556396484,-18.322999954223633 -45.10200119018555,-10.869000434875488 -46.25299835205078,-9.463000297546387 C-46.7859992980957,-8.812000274658203 -74.58200073242188,-13.192000389099121 -94.28800201416016,7.585999965667725z"></path><path stroke-linecap="round" stroke-linejoin="round" fill-opacity="0" stroke="rgb(142,58,0)" stroke-opacity="1" stroke-width="2" d=" M-94.28800201416016,7.585999965667725 C-95.07099914550781,8.411999702453613 -95.82499694824219,6.576000213623047 -93.62300109863281,3.2230000495910645 C-89.4489974975586,-3.131999969482422 -79.46600341796875,-10.843000411987305 -70.51899719238281,-13.350000381469727 C-52.768001556396484,-18.322999954223633 -45.10200119018555,-10.869000434875488 -46.25299835205078,-9.463000297546387 C-46.7859992980957,-8.812000274658203 -74.58200073242188,-13.192000389099121 -94.28800201416016,7.585999965667725z"></path></g></g><g style="display: block;" transform="matrix(1,0,0,1,255.99200439453125,255.9910125732422)" opacity="1"><g opacity="1" transform="matrix(1,0,0,1,0,0)"><path fill="rgb(255,170,0)" fill-opacity="1" d=" M1.6970000267028809,-86.31900024414062 C-77.7020034790039,-85.5 -156.6439971923828,-9.5 -153.17100524902344,65.87000274658203 C-151.13299560546875,110.08699798583984 -127.11299896240234,103.08799743652344 -127.11299896240234,103.08799743652344 C-122.75399780273438,100.49600219726562 -135.49600219726562,55.880001068115234 -111.55500030517578,8.51099967956543 C-88.89399719238281,-36.32400131225586 -8.133000373840332,-79.33399963378906 1.6469999551773071,-84.6240005493164 C8.607000350952148,-80.88200378417969 91.2030029296875,-37.229000091552734 114.32099914550781,8.51099967956543 C138.26199340820312,55.880001068115234 125.5199966430664,100.49600219726562 129.87899780273438,103.08799743652344 C129.87899780273438,103.08799743652344 154.0260009765625,109.822998046875 155.93699645996094,65.87000274658203 C157.843994140625,22.003000259399414 127.552001953125,-66.69000244140625 1.6970000267028809,-86.31900024414062z"></path></g><g opacity="0.3" transform="matrix(1,0,0,1,0,0)"><path fill="rgb(197,91,0)" fill-opacity="1" d=" M-127.11699676513672,103.09100341796875 C-162.53500366210938,103.49299621582031 -156.3679962158203,53.645999908447266 -148.44700622558594,43.14099884033203 C-148.44700622558594,43.14099884033203 -149.8159942626953,68.14700317382812 -140.48699951171875,69.31099700927734 C-128.68499755859375,70.78299713134766 -127.05699920654297,43.14099884033203 -127.05699920654297,43.14099884033203 C-127.05699920654297,43.14099884033203 -124.24700164794922,101.38099670410156 -127.11699676513672,103.09100341796875z"></path></g><g opacity="0.3" transform="matrix(1,0,0,1,0,0)"><path fill="rgb(197,91,0)" fill-opacity="1" d=" M129.88699340820312,103.09100341796875 C156.02099609375,101.625 161.58999633789062,67.28700256347656 151.2169952392578,43.14099884033203 C151.2169952392578,43.14099884033203 152.58599853515625,68.14700317382812 143.2570037841797,69.31099700927734 C131.4550018310547,70.78299713134766 129.82699584960938,43.14099884033203 129.82699584960938,43.14099884033203 C129.82699584960938,43.14099884033203 127.01699829101562,101.38099670410156 129.88699340820312,103.09100341796875z"></path></g><g opacity="1" transform="matrix(1,0,0,1,0,0)"><path stroke-linecap="round" stroke-linejoin="round" fill-opacity="0" stroke="rgb(197,91,0)" stroke-opacity="1" stroke-width="8" d=" M1.6649999618530273,-86.39099884033203 C1.7209999561309814,-86.4209976196289 1.4149999618530273,-86.41999816894531 1.4670000076293945,-86.39199829101562 C-124.76300048828125,-66.90299987792969 -155.08099365234375,21.951000213623047 -153.17100524902344,65.87000274658203 C-151.25999450683594,109.822998046875 -127.11299896240234,103.08799743652344 -127.11299896240234,103.08799743652344 C-122.75399780273438,100.49600219726562 -135.49600219726562,55.880001068115234 -111.55500030517578,8.51099967956543 C-88.03900146484375,-38.01599884033203 -2.8010001182556152,-83.87000274658203 1.5809999704360962,-86.21199798583984 C5.883999824523926,-83.90299987792969 90.7959976196289,-38.03499984741211 114.32099914550781,8.51099967956543 C138.26199340820312,55.880001068115234 125.5199966430664,100.49600219726562 129.87899780273438,103.08799743652344 C129.87899780273438,103.08799743652344 154.0260009765625,109.822998046875 155.93699645996094,65.87000274658203 C157.8470001220703,21.950000762939453 127.9010009765625,-66.90499877929688 1.6649999618530273,-86.39099884033203z"></path></g></g><g style="display: block;" transform="matrix(1,0,0,1,256.06500244140625,256.0989990234375)" opacity="1"><g opacity="0.4" transform="matrix(1,0,0,1,0,0)"><g opacity="1" transform="matrix(1,0,0,1,0,0)"><path stroke-linecap="round" stroke-linejoin="round" fill-opacity="0" stroke="rgb(220,119,0)" stroke-opacity="1" stroke-width="6" d=" M23.950000762939453,62.69900131225586 C23.950000762939453,62.69900131225586 2.571000099182129,53.553001403808594 -21.229000091552734,62.69900131225586"></path></g><g opacity="1" transform="matrix(1,0,0,1,0,0)"><path fill="rgb(220,119,0)" fill-opacity="1" d=" M-23.56599998474121,48.44599914550781 C-13.914999961853027,74.83399963378906 -74.14700317382812,92.41400146484375 -85.5770034790039,63.196998596191406 C-85.5770034790039,63.196998596191406 -95.35299682617188,69.9000015258789 -95.35299682617188,69.9000015258789 C-95.35299682617188,69.9000015258789 -87.61100006103516,83.85399627685547 -65.7979965209961,85.85399627685547 C-43.04100036621094,87.94100189208984 -27.195999145507812,77.76200103759766 -19.690000534057617,65.11100006103516 C-19.690000534057617,65.11100006103516 -23.56599998474121,48.44599914550781 -23.56599998474121,48.44599914550781z"></path></g><g opacity="1" transform="matrix(1,0,0,1,0,0)"><path stroke-linecap="round" stroke-linejoin="round" fill-opacity="0" stroke="rgb(220,119,0)" stroke-opacity="1" stroke-width="6" d=" M-120.5530014038086,53.071998596191406 C-120.5530014038086,53.071998596191406 -115.23400115966797,62.77000045776367 -105.552001953125,65.25199890136719 C-100.68900299072266,66.49800109863281 -88.49400329589844,67.53600311279297 -88.49400329589844,67.53600311279297"></path></g><g opacity="1" transform="matrix(1,0,0,1,0,0)"><path fill="rgb(220,119,0)" fill-opacity="1" d=" M26.33300018310547,48.44599914550781 C18.18899917602539,71.83300018310547 67.63200378417969,91.16699981689453 88.34400177001953,63.196998596191406 C88.34400177001953,63.196998596191406 98.12000274658203,69.9000015258789 98.12000274658203,69.9000015258789 C98.12000274658203,69.9000015258789 90.37799835205078,83.85399627685547 68.56500244140625,85.85399627685547 C45.80799865722656,87.94100189208984 29.96299934387207,77.76200103759766 22.457000732421875,65.11100006103516 C22.457000732421875,65.11100006103516 26.33300018310547,48.44599914550781 26.33300018310547,48.44599914550781z"></path></g><g opacity="1" transform="matrix(1,0,0,1,0,0)"><path stroke-linecap="round" stroke-linejoin="round" fill-opacity="0" stroke="rgb(220,119,0)" stroke-opacity="1" stroke-width="6" d=" M123.23899841308594,52.76900100708008 C123.23899841308594,52.76900100708008 116.91899871826172,62.698001861572266 108.31900024414062,65.25199890136719 C103.50700378417969,66.68099975585938 91.26100158691406,67.53600311279297 91.26100158691406,67.53600311279297"></path></g></g><g opacity="1" transform="matrix(1,0,0,1,0,0)"><g opacity="0.5" transform="matrix(1,0,0,1,0,0)"><path fill="rgb(220,119,0)" fill-opacity="1" d=" M-21.476999282836914,57.42100143432617 C-23.517000198364258,67.0510025024414 -36.31700134277344,77.09100341796875 -57.457000732421875,77.09100341796875 C-71.98699951171875,77.09100341796875 -82.47699737548828,71.13099670410156 -87.35700225830078,64.4209976196289 C-87.35700225830078,64.4209976196289 -85.5770034790039,63.20100021362305 -85.5770034790039,63.20100021362305 C-75.91000366210938,71.59400177001953 -55.814998626708984,70.78299713134766 -45.117000579833984,67.39099884033203 C-26.09000015258789,61.356998443603516 -27.639999389648438,48.45100021362305 -27.639999389648438,48.45100021362305 C-21.22800064086914,49.63399887084961 -21.476999282836914,57.42100143432617 -21.476999282836914,57.42100143432617z"></path></g><g opacity="0.5" transform="matrix(1,0,0,1,0,0)"><path fill="rgb(220,119,0)" fill-opacity="1" d=" M24.21299934387207,57.42100143432617 C26.253000259399414,67.0510025024414 39.053001403808594,77.09100341796875 60.19300079345703,77.09100341796875 C74.7229995727539,77.09100341796875 85.21299743652344,71.13099670410156 90.09300231933594,64.4209976196289 C90.09300231933594,64.4209976196289 88.31300354003906,63.20100021362305 88.31300354003906,63.20100021362305 C78.64600372314453,71.59400177001953 58.55099868774414,70.78299713134766 47.85300064086914,67.39099884033203 C28.826000213623047,61.356998443603516 30.38800048828125,47.94300079345703 30.38800048828125,47.94300079345703 C24.81599998474121,48.44599914550781 24.21299934387207,57.42100143432617 24.21299934387207,57.42100143432617z"></path></g><g opacity="0.4" transform="matrix(1,0,0,1,0,0)"><path fill="rgb(247,237,189)" fill-opacity="1" d=" M-58.39799880981445,39.849998474121094 C-80.68699645996094,40.696998596191406 -88.9209976196289,45.47700119018555 -90.33799743652344,54.68600082397461 C-91.75499725341797,63.89500045776367 -79.072998046875,77.08999633789062 -57.46099853515625,77.08999633789062 C-33.564998626708984,77.08999633789062 -20.312999725341797,64.26899719238281 -21.229000091552734,53.69900131225586 C-22.03499984741211,44.40399932861328 -37.6609992980957,39.0620002746582 -58.39799880981445,39.849998474121094z"></path></g><g opacity="1" transform="matrix(1,0,0,1,0,0)"><path stroke-linecap="round" stroke-linejoin="round" fill-opacity="0" stroke="rgb(227,215,169)" stroke-opacity="1" stroke-width="6" d=" M-58.39799880981445,39.849998474121094 C-80.68699645996094,40.696998596191406 -88.9209976196289,45.47700119018555 -90.33799743652344,54.68600082397461 C-91.75499725341797,63.89500045776367 -79.072998046875,77.08999633789062 -57.46099853515625,77.08999633789062 C-33.564998626708984,77.08999633789062 -20.312999725341797,64.26899719238281 -21.229000091552734,53.69900131225586 C-22.03499984741211,44.40399932861328 -37.6609992980957,39.0620002746582 -58.39799880981445,39.849998474121094z"></path></g><g opacity="1" transform="matrix(1,0,0,1,0,0)"><path stroke-linecap="round" stroke-linejoin="round" fill-opacity="0" stroke="rgb(203,181,112)" stroke-opacity="1" stroke-width="6" d=" M-90.33799743652344,54.68600082397461 C-91.75499725341797,63.89500045776367 -79.072998046875,77.08999633789062 -57.46099853515625,77.08999633789062 C-33.564998626708984,77.08999633789062 -20.312999725341797,64.26899719238281 -21.229000091552734,53.69900131225586"></path></g></g><g opacity="1" transform="matrix(1,0,0,1,0,0)"><path stroke-linecap="round" stroke-linejoin="round" fill-opacity="0" stroke="rgb(159,124,87)" stroke-opacity="1" stroke-width="6" d=" M-123.19100189208984,41.56999969482422 C-123.19100189208984,41.56999969482422 -112.19300079345703,51.25899887084961 -106.74099731445312,52.39799880981445 C-102.4729995727539,53.28900146484375 -91.44599914550781,53.645999908447266 -91.44599914550781,53.645999908447266"></path></g><g opacity="1" transform="matrix(1,0,0,1,0,0)"><g opacity="0.4" transform="matrix(1,0,0,1,0,0)"><path fill="rgb(247,237,189)" fill-opacity="1" d=" M61.119998931884766,39.849998474121094 C83.40899658203125,40.696998596191406 91.64299774169922,45.47700119018555 93.05999755859375,54.68600082397461 C94.47699737548828,63.89500045776367 81.79399871826172,77.08999633789062 60.18199920654297,77.08999633789062 C36.2859992980957,77.08999633789062 23.034000396728516,64.26899719238281 23.950000762939453,53.69900131225586 C24.756000518798828,44.40399932861328 40.382999420166016,39.0620002746582 61.119998931884766,39.849998474121094z"></path></g><g opacity="1" transform="matrix(1,0,0,1,0,0)"><path stroke-linecap="round" stroke-linejoin="round" fill-opacity="0" stroke="rgb(227,215,169)" stroke-opacity="1" stroke-width="6" d=" M61.119998931884766,39.849998474121094 C83.40899658203125,40.696998596191406 91.64299774169922,45.47700119018555 93.05999755859375,54.68600082397461 C94.47699737548828,63.89500045776367 81.79399871826172,77.08999633789062 60.18199920654297,77.08999633789062 C36.2859992980957,77.08999633789062 23.034000396728516,64.26899719238281 23.950000762939453,53.69900131225586 C24.756000518798828,44.40399932861328 40.382999420166016,39.0620002746582 61.119998931884766,39.849998474121094z"></path></g><g opacity="1" transform="matrix(1,0,0,1,0,0)"><path stroke-linecap="round" stroke-linejoin="round" fill-opacity="0" stroke="rgb(203,181,112)" stroke-opacity="1" stroke-width="6" d=" M93.05999755859375,54.68600082397461 C94.47699737548828,63.89500045776367 81.79399871826172,77.08999633789062 60.18199920654297,77.08999633789062 C36.2859992980957,77.08999633789062 23.034000396728516,64.26899719238281 23.950000762939453,53.69900131225586"></path></g></g><g opacity="1" transform="matrix(1,0,0,1,0,0)"><path stroke-linecap="round" stroke-linejoin="round" fill-opacity="0" stroke="rgb(159,124,87)" stroke-opacity="1" stroke-width="6" d=" M125.91300201416016,41.56999969482422 C125.91300201416016,41.56999969482422 114.91500091552734,51.25899887084961 109.46299743652344,52.39799880981445 C105.19499969482422,53.28900146484375 94.16799926757812,53.645999908447266 94.16799926757812,53.645999908447266"></path></g><g opacity="1" transform="matrix(1,0,0,1,0,0)"><path stroke-linecap="round" stroke-linejoin="round" fill-opacity="0" stroke="rgb(159,124,87)" stroke-opacity="1" stroke-width="6" d=" M23.950000762939453,53.69900131225586 C23.950000762939453,53.69900131225586 2.571000099182129,44.553001403808594 -21.229000091552734,53.69900131225586"></path></g></g><g style="display: block;" transform="matrix(1,0,0,1,256.13800048828125,256.0360107421875)" opacity="1"><g opacity="0.2" transform="matrix(1,0,0,1,0,0)"><path fill="rgb(220,119,0)" fill-opacity="1" d=" M19.18899917602539,82.18399810791016 C19.18899917602539,88.9010009765625 10.664999961853027,94.87300109863281 1.3830000162124634,94.87300109863281 C-7.89900016784668,94.87300109863281 -16.42300033569336,88.9010009765625 -16.42300033569336,82.18399810791016 C-16.42300033569336,75.46700286865234 -7.89900016784668,69.30799865722656 1.3830000162124634,69.30799865722656 C10.664999961853027,69.30799865722656 19.18899917602539,75.46700286865234 19.18899917602539,82.18399810791016z"></path></g><g opacity="1" transform="matrix(1,0,0,1,0,0)"><path fill="rgb(220,119,0)" fill-opacity="1" d=" M18.18899917602539,77.18399810791016 C18.18899917602539,83.9010009765625 10.664999961853027,88.87300109863281 1.3830000162124634,88.87300109863281 C-7.89900016784668,88.87300109863281 -15.42300033569336,83.9010009765625 -15.42300033569336,77.18399810791016 C-15.42300033569336,70.46700286865234 -7.89900016784668,65.30799865722656 1.3830000162124634,65.30799865722656 C10.664999961853027,65.30799865722656 18.18899917602539,70.46700286865234 18.18899917602539,77.18399810791016z"></path></g><g opacity="1" transform="matrix(1,0,0,1,0,0)"><path fill="rgb(255,205,0)" fill-opacity="1" d=" M16.540000915527344,74.0719985961914 C16.540000915527344,79.072998046875 11.376999855041504,83.85399627685547 1.3830000162124634,83.85399627685547 C-8.746999740600586,83.85399627685547 -13.77400016784668,79.072998046875 -13.77400016784668,74.0719985961914 C-13.77400016784668,69.07099914550781 -6.645999908447266,65.11100006103516 1.3830000162124634,65.11100006103516 C9.411999702453613,65.11100006103516 16.540000915527344,69.07099914550781 16.540000915527344,74.0719985961914z"></path></g><g opacity="1" transform="matrix(1,0,0,1,0,0)"><path fill="rgb(255,224,112)" fill-opacity="1" d=" M10.079000473022461,70.20500183105469 C10.079000473022461,72.83699798583984 6.185999870300293,75.31400299072266 1.3830000162124634,75.31400299072266 C-3.4200000762939453,75.31400299072266 -7.313000202178955,72.83699798583984 -7.313000202178955,70.20500183105469 C-7.313000202178955,67.572998046875 -3.4200000762939453,66.25199890136719 1.3830000162124634,66.25199890136719 C6.185999870300293,66.25199890136719 10.079000473022461,67.572998046875 10.079000473022461,70.20500183105469z"></path></g></g><g style="display: block;" transform="matrix(1.059999942779541,0,0,1.059999942779541,252.32484436035156,242.11727905273438)" opacity="1"><g opacity="0.2" transform="matrix(1,0,0,1,0,0)"><path fill="rgb(220,119,0)" fill-opacity="1" d=" M29.18400001525879,144.33599853515625 C29.18400001525879,148.4219970703125 18.28700065612793,156.2969970703125 4.8460001945495605,156.2969970703125 C-8.595000267028809,156.2969970703125 -19.490999221801758,148.4219970703125 -19.490999221801758,144.33599853515625 C-19.490999221801758,140.25 -8.829999923706055,146.41799926757812 4.611000061035156,146.41799926757812 C18.052000045776367,146.41799926757812 29.18400001525879,140.25 29.18400001525879,144.33599853515625z"></path></g><g opacity="0.3" transform="matrix(1,0,0,1,0,0)"><path stroke-linecap="round" stroke-linejoin="round" fill-opacity="0" stroke="rgb(220,119,0)" stroke-opacity="1" stroke-width="8" d=" M-27.770999908447266,108.36100006103516 C-27.770999908447266,108.36100006103516 -39.45800018310547,119.46399688720703 -46.92100143432617,143.52999877929688"></path></g><g opacity="0.3" transform="matrix(1,0,0,1,0,0)"><path stroke-linecap="round" stroke-linejoin="round" fill-opacity="0" stroke="rgb(220,119,0)" stroke-opacity="1" stroke-width="8" d=" M37.34299850463867,108.36100006103516 C37.34299850463867,108.36100006103516 50.165000915527344,120.64299774169922 57.20000076293945,142.82200622558594"></path></g><g opacity="1" transform="matrix(1,0,0,1,0,0)"><g opacity="1" transform="matrix(1,0,0,1,0,0)"><path fill="rgb(255,224,112)" fill-opacity="1" d=" M41.292999267578125,121.10399627685547 C40.45000076293945,115.21399688720703 35.13199996948242,117.1520004272461 4.8460001945495605,117.1520004272461 C-24.711000442504883,117.1520004272461 -30.24799919128418,114.84400177001953 -31.600000381469727,121.10399627685547 C-32.14099884033203,123.60800170898438 -20.093000411987305,142.2530059814453 4.840000152587891,142.2530059814453 C29.350000381469727,142.2530059814453 41.67100143432617,123.74600219726562 41.292999267578125,121.10399627685547z"></path></g><g opacity="1" transform="matrix(1,0,0,1,0,0)"><path fill="rgb(136,24,4)" fill-opacity="1" d=" M40.35900115966797,118.43000030517578 C38.95899963378906,115.84200286865234 35.13199996948242,116.26200103759766 4.8460001945495605,116.26200103759766 C-24.711000442504883,116.26200103759766 -29.097999572753906,115.93099975585938 -30.666000366210938,118.43000030517578 C-32.04199981689453,120.62300109863281 -20.32900047302246,137.74099731445312 4.604000091552734,137.74099731445312 C29.11400032043457,137.74099731445312 41.63999938964844,120.80000305175781 40.35900115966797,118.43000030517578z"></path></g><g opacity="1" transform="matrix(1,0,0,1,0,0)"><path fill="rgb(88,11,14)" fill-opacity="1" d=" M39.1609992980957,121.72599792480469 C36.60100173950195,120.44300079345703 29.48200035095215,121.72000122070312 4.8480000495910645,121.72000122070312 C-19.514999389648438,121.72000122070312 -26.773000717163086,120.49700164794922 -29.45400047302246,121.81600189208984 C-30.583999633789062,120.19400024414062 -30.988000869750977,118.93699645996094 -30.66900062561035,118.43000030517578 C-29.100000381469727,115.93499755859375 -24.708999633789062,116.26399993896484 4.8480000495910645,116.26399993896484 C35.13399887084961,116.26399993896484 38.95500183105469,115.84600067138672 40.35599899291992,118.43000030517578 C40.645999908447266,118.96499633789062 40.244998931884766,120.1760025024414 39.1609992980957,121.72599792480469z"></path></g></g></g><g style="display: block;" transform="matrix(1,0,0,1,255.99200439453125,255.9910125732422)" opacity="1"><g opacity="1" transform="matrix(1,0,0,1,0,0)"><g opacity="1" transform="matrix(1,0,0,1,0,0)"><path fill="url(#__lottie_element_10079)" fill-opacity="1" d=" M-157.49000549316406,-44.172000885009766 C-157.49000549316406,-44.172000885009766 -165.9429931640625,-81.23200225830078 -155.25399780273438,-104.60700225830078 C-144.56500244140625,-127.98200225830078 -113.47100067138672,-172.74099731445312 -41.077999114990234,-182.19000244140625 C29.009000778198242,-191.33799743652344 100.15399932861328,-170.77999877929688 130.88699340820312,-138.39599609375 C163.9250030517578,-103.58300018310547 169.78399658203125,-71.79900360107422 160.55299377441406,-32.75 C-2.5339999198913574,-172.5 -157.49000549316406,-44.172000885009766 -157.49000549316406,-44.172000885009766z"></path></g><g opacity="0.3" transform="matrix(1,0,0,1,0,0)"><path stroke-linecap="round" stroke-linejoin="round" fill-opacity="0" stroke="rgb(255,255,255)" stroke-opacity="1" stroke-width="8" d=" M-151.36099243164062,-41.10200119018555 C-151.36099243164062,-41.10200119018555 -162.7010040283203,-78.16100311279297 -152.15499877929688,-101.53600311279297 C-141.60899353027344,-124.91000366210938 -111.92900085449219,-166.5989990234375 -40.50299835205078,-176.04800415039062 C28.64900016784668,-185.1959991455078 101.83100128173828,-163.61500549316406 132.1540069580078,-131.2310028076172 C164.75100708007812,-96.41799926757812 164.5449981689453,-66.68099975585938 155.43699645996094,-27.631999969482422"></path></g><g opacity="1" transform="matrix(1,0,0,1,0,0)"><path stroke-linecap="round" stroke-linejoin="round" fill-opacity="0" stroke="rgb(166,0,0)" stroke-opacity="1" stroke-width="8" d=" M-157.49000549316406,-44.172000885009766 C-157.49000549316406,-44.172000885009766 -165.9429931640625,-81.23200225830078 -155.25399780273438,-104.60700225830078 C-144.56500244140625,-127.98200225830078 -113.47100067138672,-172.74099731445312 -41.077999114990234,-182.19000244140625 C29.009000778198242,-191.33799743652344 100.15399932861328,-170.77999877929688 130.88699340820312,-138.39599609375 C163.9250030517578,-103.58300018310547 169.78399658203125,-71.79900360107422 160.55299377441406,-32.75 C-7.313000202178955,-165.48699951171875 -157.49000549316406,-44.172000885009766 -157.49000549316406,-44.172000885009766z"></path></g></g><g opacity="1" transform="matrix(1,0,0,1,0,0)"><g opacity="1" transform="matrix(1,0,0,1,0,0)"><path fill="url(#__lottie_element_10080)" fill-opacity="1" d=" M172.13499450683594,-7.117000102996826 C178.3000030517578,-21.509000778198242 175.97799682617188,-33.73899841308594 161.947998046875,-42.98500061035156 C183.1479949951172,-50.834999084472656 156.9949951171875,-95.31900024414062 139.89100646972656,-89.62100219726562 C134.6020050048828,-109.92900085449219 124.16000366210938,-118.96399688720703 108.6500015258789,-116.91300201416016 C112.72599792480469,-128.78900146484375 104.74500274658203,-134.9080047607422 81.35099792480469,-133.66700744628906 C70.71499633789062,-161.3209991455078 43.78300094604492,-150.2519989013672 43.78300094604492,-150.2519989013672 C38.42499923706055,-163.81100463867188 29.07900047302246,-159.572998046875 16.333999633789062,-140.1649932861328 C5.685999870300293,-151.7740020751953 0.3479999899864197,-131.51499938964844 0.3479999899864197,-131.51499938964844 C-7.964000225067139,-153.24400329589844 -15.74899959564209,-167.30299377441406 -21.18400001525879,-147.1959991455078 C-39.74399948120117,-157.95199584960938 -55.24300003051758,-161.43499755859375 -60.683998107910156,-141.02099609375 C-60.683998107910156,-141.02099609375 -107.10900115966797,-144.9149932861328 -106.4280014038086,-123.51499938964844 C-106.4280014038086,-123.51499938964844 -140.00399780273438,-119.81400299072266 -135.46200561523438,-92.94400024414062 C-135.46200561523438,-92.94400024414062 -165.73800659179688,-80.83399963378906 -160.8179931640625,-49.04399871826172 C-176.06100463867188,-29.18400001525879 -180.72900390625,-13.765999794006348 -170.2519989013672,-4.7129998207092285 C-170.2519989013672,-4.7129998207092285 -192.76400756835938,28.87700080871582 -174.87399291992188,40.37200164794922 C-172.61199951171875,62.45600128173828 -164.6719970703125,69.02999877929688 -153.17100524902344,65.87000274658203 C-153.17100524902344,65.87000274658203 -153.3300018310547,49.66299819946289 -150.9969940185547,39.77399826049805 C-150.9969940185547,39.77399826049805 -139.93099975585938,35.209999084472656 -138.7429962158203,20.565000534057617 C-138.7429962158203,20.565000534057617 -127.80899810791016,24.024999618530273 -125.68499755859375,1.9579999446868896 C-125.68499755859375,1.9579999446868896 -109.43800354003906,2.0309998989105225 -100.96900177001953,-19.534000396728516 C-84.16000366210938,-13.5600004196167 -69.89700317382812,-22.325000762939453 -57.520999908447266,-42.013999938964844 C-44.499000549316406,-35.617000579833984 -33.2239990234375,-43.87900161743164 -22.83799934387207,-59.61800003051758 C-11.840999603271484,-55.861000061035156 -4.508999824523926,-61.58100128173828 0.3479999899864197,-73.697998046875 C16.540000915527344,-47.90999984741211 31.39299964904785,-57.47700119018555 31.39299964904785,-57.47700119018555 C50.189998626708984,-22.56800079345703 63.882999420166016,-37.236000061035156 63.882999420166016,-37.236000061035156 C90.7979965209961,-14.741000175476074 102.07599639892578,-30.38599967956543 102.07599639892578,-30.38599967956543 C107.9000015258789,-2.359999895095825 125.91300201416016,-4.401000022888184 125.91300201416016,-4.401000022888184 C124.89399719238281,14.418999671936035 139.53199768066406,16.676000595092773 139.53199768066406,16.676000595092773 C141.10800170898438,35.97999954223633 153.19200134277344,37.01900100708008 153.19200134277344,37.01900100708008 C155.12399291992188,44.770999908447266 156.02200317382812,59.78099822998047 156.02200317382812,59.78099822998047 C172.58200073242188,69.34100341796875 171.17300415039062,31.034000396728516 171.17300415039062,31.034000396728516 C191.30999755859375,30.18899917602539 184.31300354003906,13.086999893188477 172.13499450683594,-7.117000102996826z"></path></g><g opacity="0.2" transform="matrix(1,0,0,1,0,0)"><path stroke-linecap="round" stroke-linejoin="round" fill-opacity="0" stroke="rgb(205,205,203)" stroke-opacity="1" stroke-width="8" d=" M-135.46200561523438,-92.94400024414062 C-135.46200561523438,-92.94400024414062 -133.65899658203125,-70.23100280761719 -108.9260025024414,-63.67399978637695"></path></g><g opacity="0.2" transform="matrix(1,0,0,1,0,0)"><path stroke-linecap="round" stroke-linejoin="round" fill-opacity="0" stroke="rgb(205,205,203)" stroke-opacity="1" stroke-width="8" d=" M-160.8179931640625,-49.04399871826172 C-160.8179931640625,-49.04399871826172 -160.38999938964844,-34.332000732421875 -147.125,-30.006000518798828"></path></g><g opacity="0.2" transform="matrix(1,0,0,1,0,0)"><path stroke-linecap="round" stroke-linejoin="round" fill-opacity="0" stroke="rgb(205,205,203)" stroke-opacity="1" stroke-width="8" d=" M-106.4280014038086,-123.51499938964844 C-106.4280014038086,-123.51499938964844 -107.26599884033203,-108.75 -90.38200378417969,-103.20999908447266"></path></g><g opacity="0.2" transform="matrix(1,0,0,1,0,0)"><path stroke-linecap="round" stroke-linejoin="round" fill-opacity="0" stroke="rgb(205,205,203)" stroke-opacity="1" stroke-width="8" d=" M81.35099792480469,-133.66700744628906 C85.24099731445312,-125.01000213623047 83.14900207519531,-106.052001953125 67.22699737548828,-97.78299713134766"></path></g><g opacity="0.2" transform="matrix(1,0,0,1,0,0)"><path stroke-linecap="round" stroke-linejoin="round" fill-opacity="0" stroke="rgb(205,205,203)" stroke-opacity="1" stroke-width="8" d=" M139.89100646972656,-89.62100219726562 C140.89199829101562,-81.24099731445312 136.4239959716797,-71.94599914550781 128.14700317382812,-69.697998046875"></path></g><g opacity="0.2" transform="matrix(1,0,0,1,0,0)"><path stroke-linecap="round" stroke-linejoin="round" fill-opacity="0" stroke="rgb(205,205,203)" stroke-opacity="1" stroke-width="8" d=" M161.94700622558594,-42.98500061035156 C161.94700622558594,-42.98500061035156 155.73300170898438,-38.275001525878906 143.7050018310547,-39.40299987792969"></path></g><g opacity="0.2" transform="matrix(1,0,0,1,0,0)"><path fill="rgb(144,148,158)" fill-opacity="1" d=" M171.17300415039062,31.0310001373291 C171.17300415039062,31.0310001373291 172.58299255371094,69.34100341796875 156.0229949951172,59.78099822998047 C156.0229949951172,59.78099822998047 155.1230010986328,44.770999908447266 153.1929931640625,37.020999908447266 C153.1929931640625,37.020999908447266 141.11300659179688,35.98099899291992 139.5330047607422,16.680999755859375 C139.5330047607422,16.680999755859375 124.89299774169922,14.420999526977539 125.91300201416016,-4.39900016784668 C125.91300201416016,-4.39900016784668 107.90299987792969,-2.3589999675750732 102.072998046875,-30.388999938964844 C102.072998046875,-30.388999938964844 90.8030014038086,-14.73900032043457 63.882999420166016,-37.23899841308594 C63.882999420166016,-37.23899841308594 50.19300079345703,-22.569000244140625 31.39299964904785,-57.479000091552734 C31.39299964904785,-57.479000091552734 16.540000915527344,-46.152000427246094 0.34299999475479126,-73.6989974975586 C-4.252999782562256,-61.59199905395508 -11.649999618530273,-56.11800003051758 -22.836999893188477,-59.61899948120117 C-32.60200119018555,-43.0099983215332 -44.14699935913086,-37.04999923706055 -57.516998291015625,-42.00899887084961 C-68.74299621582031,-21.621000289916992 -83.50299835205078,-15.22599983215332 -100.96700286865234,-19.52899932861328 C-109.38700103759766,1.8910000324249268 -125.47699737548828,1.9609999656677246 -125.68699645996094,1.9609999656677246 C-127.80699920654297,24.020999908447266 -138.7469940185547,20.56100082397461 -138.7469940185547,20.56100082397461 C-139.927001953125,35.21099853515625 -150.9969940185547,39.770999908447266 -150.9969940185547,39.770999908447266 C-153.32699584960938,49.6609992980957 -153.16700744628906,65.87000274658203 -153.16700744628906,65.87000274658203 C-166.7239990234375,68.53199768066406 -173.58999633789062,59.375999450683594 -174.8769989013672,40.369998931884766 C-197.3679962158203,22.666000366210938 -164.8979949951172,-5.7870001792907715 -164.8979949951172,-5.7870001792907715 C-174.03399658203125,26.25 -153.7550048828125,19.573999404907227 -150.9969940185547,11.869999885559082 C-150.9969940185547,11.869999885559082 -138.07699584960938,14.51099967956543 -138.7469940185547,-2.3289999961853027 C-138.7469940185547,-2.3289999961853027 -129.5,0.29100000858306885 -127.68699645996094,-13.939000129699707 C-127.47699737548828,-13.939000129699707 -111.5479965209961,-11.333000183105469 -100.96700286865234,-39.42900085449219 C-83.83499908447266,-34.00600051879883 -69.81900024414062,-43.78099822998047 -57.516998291015625,-61.909000396728516 C-46.85100173950195,-58.643001556396484 -35.16299819946289,-65.822998046875 -22.836999893188477,-79.51899719238281 C-14.79699993133545,-73.14199829101562 -6.734000205993652,-79.56500244140625 1.343000054359436,-93.5989990234375 C14.531000137329102,-67.93900299072266 31.39299964904785,-77.37999725341797 31.39299964904785,-77.37999725341797 C45.75699996948242,-48.79399871826172 63.882999420166016,-57.138999938964844 63.882999420166016,-57.138999938964844 C85.42900085449219,-30.173999786376953 106.072998046875,-43.27899932861328 106.072998046875,-43.27899932861328 C110.04000091552734,-20.601999282836914 125.91300201416016,-27.298999786376953 125.91300201416016,-27.298999786376953 C127.12799835205078,-10.708000183105469 139.5330047607422,-12.218999862670898 139.5330047607422,-12.218999862670898 C140.74000549316406,4.809999942779541 156.23300170898438,4.750999927520752 156.23300170898438,4.750999927520752 C167.83299255371094,18.320999145507812 174.46499633789062,6.622000217437744 167.2729949951172,-6.988999843597412 C184.99000549316406,-4.797999858856201 192.0279998779297,34.54999923706055 171.17300415039062,31.0310001373291z"></path></g><g opacity="1" transform="matrix(1,0,0,1,0,0)"><path stroke-linecap="butt" stroke-linejoin="miter" fill-opacity="0" stroke-miterlimit="10" stroke="rgb(205,205,203)" stroke-opacity="1" stroke-width="8" d=" M172.13499450683594,-7.117000102996826 C179.4219970703125,-17.76300048828125 177.67300415039062,-29.51799964904785 161.947998046875,-42.98500061035156 C181.27000427246094,-51.154998779296875 157.28799438476562,-96.6780014038086 139.89100646972656,-89.62100219726562 C136.11300659179688,-106.8499984741211 127.33399963378906,-117.94999694824219 108.6500015258789,-116.91300201416016 C112.40299987792969,-130.6280059814453 101.63700103759766,-135.15899658203125 81.35099792480469,-133.66700744628906 C70.71499633789062,-161.3209991455078 43.78300094604492,-150.2519989013672 43.78300094604492,-150.2519989013672 C37.0620002746582,-163.93699645996094 27.599000930786133,-158.37899780273438 16.333999633789062,-140.1649932861328 C5.685999870300293,-151.7740020751953 0.3479999899864197,-134.51499938964844 0.3479999899864197,-134.51499938964844 C-8.274999618530273,-153.2779998779297 -16.406999588012695,-167.08799743652344 -21.18400001525879,-147.1959991455078 C-41.654998779296875,-160.10699462890625 -55.38100051879883,-159.19400024414062 -60.683998107910156,-141.02099609375 C-60.683998107910156,-141.02099609375 -107.10900115966797,-144.9149932861328 -106.4280014038086,-123.51499938964844 C-106.4280014038086,-123.51499938964844 -140.00399780273438,-119.81400299072266 -135.46200561523438,-92.94400024414062 C-135.46200561523438,-92.94400024414062 -165.73800659179688,-80.83399963378906 -160.8179931640625,-49.04399871826172 C-175.81900024414062,-36.869998931884766 -181.16000366210938,-11.25 -170.2519989013672,-4.7129998207092285"></path></g><g opacity="1" transform="matrix(1,0,0,1,0,0)"><path stroke-linecap="round" stroke-linejoin="miter" fill-opacity="0" stroke-miterlimit="10" stroke="rgb(180,176,173)" stroke-opacity="1" stroke-width="8" d=" M-176.05499267578125,-18.68400001525879 C-177.98899841308594,-6.001999855041504 -170.2519989013672,-4.7129998207092285 -170.2519989013672,-4.7129998207092285 C-170.2519989013672,-4.7129998207092285 -192.76400756835938,28.87700080871582 -174.87399291992188,40.37200164794922 C-174.5989990234375,59.82400131225586 -167.3679962158203,71.5 -153.17100524902344,65.87000274658203 C-153.17100524902344,65.87000274658203 -153.3300018310547,49.66299819946289 -150.9969940185547,39.77399826049805 C-150.9969940185547,39.77399826049805 -139.93099975585938,35.209999084472656 -138.7429962158203,20.565000534057617 C-138.7429962158203,20.565000534057617 -127.80899810791016,24.024999618530273 -125.68499755859375,1.9579999446868896 C-125.68499755859375,1.9579999446868896 -109.43800354003906,2.0309998989105225 -100.96900177001953,-19.534000396728516 C-84.11299896240234,-13.418000221252441 -69.83699798583984,-22.100000381469727 -57.520999908447266,-42.013999938964844 C-44.757999420166016,-37.05500030517578 -33.14099884033203,-42.42300033569336 -22.83799934387207,-59.61800003051758 C-11.371000289916992,-56.39099884033203 -3.9260001182556152,-61.6870002746582 0.3479999899864197,-73.697998046875 C17.97800064086914,-46.15299987792969 32.393001556396484,-57.47700119018555 32.393001556396484,-57.47700119018555 C49.729000091552734,-29.238000869750977 63.882999420166016,-37.236000061035156 63.882999420166016,-37.236000061035156 C88.42400360107422,-19.437999725341797 102.07599639892578,-30.38599967956543 102.07599639892578,-30.38599967956543 C109.19400024414062,-5.843999862670898 125.91300201416016,-4.401000022888184 125.91300201416016,-4.401000022888184 C127.12799835205078,13.170000076293945 139.53199768066406,16.676000595092773 139.53199768066406,16.676000595092773 C141.10800170898438,35.97999954223633 153.19200134277344,37.01900100708008 153.19200134277344,37.01900100708008 C155.12399291992188,44.770999908447266 156.02200317382812,59.78099822998047 156.02200317382812,59.78099822998047 C172.58200073242188,69.34100341796875 171.17300415039062,31.034000396728516 171.17300415039062,31.034000396728516 C192.08999633789062,29.240999221801758 183.66600036621094,11.88599967956543 172.13499450683594,-7.117000102996826 C172.13499450683594,-7.117000102996826 179.3820037841797,-14.220999717712402 174.8719940185547,-26.575000762939453"></path></g></g></g><g style="display: block;" transform="matrix(1,0,0,1,255.99200439453125,258.49102783203125)" opacity="1"><g opacity="1" transform="matrix(1,0,0,1,0,0)"><path stroke-linecap="round" stroke-linejoin="round" fill-opacity="0" stroke="rgb(255,255,255)" stroke-opacity="1" stroke-width="6" d=" M-61.34000015258789,-167.8470001220703 C-61.34000015258789,-167.8470001220703 -60.72200012207031,-167.97300720214844 -60.72200012207031,-167.97300720214844"></path></g><g opacity="1" transform="matrix(1,0,0,1,0,0)"><path stroke-linecap="round" stroke-linejoin="round" fill-opacity="0" stroke="rgb(255,255,255)" stroke-opacity="1" stroke-width="6" d=" M-76.96199798583984,-163.26100158691406 C-75.48100280761719,-163.8179931640625 -73.21900177001953,-164.6179962158203 -70.33699798583984,-165.48800659179688"></path></g></g></g></svg>