<svg xmlns="http://www.w3.org/2000/svg" viewBox="0 0 512 512" width="512" height="512" style="width: 100%; height: 100%; transform: translate3d(0,0,0);" preserveAspectRatio="xMidYMid meet"><defs><clipPath id="__lottie_element_10110"><rect width="512" height="512" x="0" y="0"></rect></clipPath><linearGradient id="__lottie_element_10124" spreadMethod="pad" gradientUnits="userSpaceOnUse" x1="86" y1="49" x2="151.67100524902344" y2="93.59100341796875"><stop offset="0%" stop-color="rgb(251,57,130)"></stop><stop offset="29%" stop-color="rgb(253,102,170)"></stop><stop offset="58%" stop-color="rgb(255,147,209)"></stop><stop offset="82%" stop-color="rgb(255,93,174)"></stop><stop offset="100%" stop-color="rgb(255,39,140)"></stop></linearGradient></defs><g clip-path="url(#__lottie_element_10110)"><g style="display: block;" transform="matrix(1,0,0,1,0,0)" opacity="1"><g opacity="0.1" transform="matrix(1,0,0,1,256,256)"><g opacity="1" transform="matrix(1,0,0,1,0,0)"><path fill="rgb(0,0,0)" fill-opacity="1" d=" M196.02499389648438,5.045000076293945 C196.02499389648438,113.30599975585938 108.26100158691406,201.06900024414062 0,201.06900024414062 C-108.26100158691406,201.06900024414062 -196.02499389648438,113.30599975585938 -196.02499389648438,5.045000076293945 C-196.02499389648438,-103.21600341796875 -108.26100158691406,-190.97999572753906 0,-190.97999572753906 C108.26100158691406,-190.97999572753906 196.02499389648438,-103.21600341796875 196.02499389648438,5.045000076293945z"></path></g></g><g opacity="1" transform="matrix(1,0,0,1,256,256)"><g opacity="1" transform="matrix(1,0,0,1,0,0)"><path fill="rgb(255,173,0)" fill-opacity="1" d=" M188.875,-8.194000244140625 C188.875,96.11900329589844 104.31300354003906,180.68099975585938 0,180.68099975585938 C-104.31300354003906,180.68099975585938 -188.875,96.11900329589844 -188.875,-8.194000244140625 C-188.875,-112.50700378417969 -104.31300354003906,-197.06900024414062 0,-197.06900024414062 C104.31300354003906,-197.06900024414062 188.875,-112.50700378417969 188.875,-8.194000244140625z"></path><path stroke-linecap="butt" stroke-linejoin="miter" fill-opacity="0" stroke-miterlimit="10" stroke="rgb(255,118,42)" stroke-opacity="1" stroke-width="8" d=" M188.875,-8.194000244140625 C188.875,96.11900329589844 104.31300354003906,180.68099975585938 0,180.68099975585938 C-104.31300354003906,180.68099975585938 -188.875,96.11900329589844 -188.875,-8.194000244140625 C-188.875,-112.50700378417969 -104.31300354003906,-197.06900024414062 0,-197.06900024414062 C104.31300354003906,-197.06900024414062 188.875,-112.50700378417969 188.875,-8.194000244140625z"></path></g><g opacity="1" transform="matrix(1,0,0,1,0,0)"><path fill="rgb(255,207,0)" fill-opacity="1" d=" M168.40699768066406,-9.241999626159668 C166.9499969482422,85.78600311279297 90.39600372314453,161.66600036621094 -2.5820000171661377,160.24099731445312 C-95.55999755859375,158.8159942626953 -169.7530059814453,80.6259994506836 -168.29600524902344,-14.402999877929688 C-166.83999633789062,-109.43199920654297 -90.28500366210938,-185.31199645996094 2.693000078201294,-183.88699340820312 C95.6709976196289,-182.46200561523438 169.86399841308594,-104.27100372314453 168.40699768066406,-9.241999626159668z"></path></g><g opacity="0.9" transform="matrix(1,0,0,1,0,0)"><path fill="rgb(255,222,102)" fill-opacity="1" d=" M149.26800537109375,-52.38399887084961 C149.26800537109375,20.259000778198242 82.43800354003906,-37.20500183105469 0,-37.20500183105469 C-82.43800354003906,-37.20500183105469 -149.26699829101562,20.259000778198242 -149.26699829101562,-52.38399887084961 C-149.26699829101562,-125.0270004272461 -82.43800354003906,-183.91600036621094 0,-183.91600036621094 C82.43800354003906,-183.91600036621094 149.26800537109375,-125.0270004272461 149.26800537109375,-52.38399887084961z"></path></g><g opacity="1" transform="matrix(1,0,0,1,0,0)"><g opacity="1" transform="matrix(1,0,0,1,0,0)"><path stroke-linecap="round" stroke-linejoin="round" fill-opacity="0" stroke="rgb(255,255,255)" stroke-opacity="1" stroke-width="6" d=" M36.37300109863281,-179.69700622558594 C37.9109992980957,-179.36199951171875 39.50600051879883,-178.99200439453125 41.150001525878906,-178.58599853515625"></path></g><g opacity="1" transform="matrix(1,0,0,1,0,0)"><path stroke-linecap="round" stroke-linejoin="round" fill-opacity="0" stroke="rgb(255,255,255)" stroke-opacity="1" stroke-width="6" d=" M15.017999649047852,-182.91600036621094 C15.017999649047852,-182.91600036621094 19.885000228881836,-182.656005859375 27.607999801635742,-181.3780059814453"></path></g></g></g></g><g style="display: block;" transform="matrix(1,0,0,1,256,256)" opacity="1"><g opacity="1" transform="matrix(1,0,0,1,0,0)"><g opacity="0.6" transform="matrix(1,0,0,1,0,0)"><path fill="rgb(255,173,0)" fill-opacity="1" d=" M-36.862998962402344,-59.52399826049805 C-44.53099822998047,-79.22899627685547 -59.78799819946289,-79.39299774169922 -62.426998138427734,-79.39299774169922 C-64.91100311279297,-79.39299774169922 -80.3239974975586,-79.22899627685547 -87.99199676513672,-59.52399826049805 C-97.41100311279297,-35.32099914550781 -86.0260009765625,-9.071999549865723 -82.40299987792969,-20.275999069213867 C-75.10600280761719,-42.84400177001953 -64.63899993896484,-42.597999572753906 -62.426998138427734,-42.597999572753906 C-60.09400177001953,-42.597999572753906 -49.749000549316406,-42.84400177001953 -42.45199966430664,-20.275999069213867 C-38.82899856567383,-9.071999549865723 -27.444000244140625,-35.32099914550781 -36.862998962402344,-59.52399826049805z"></path></g><g opacity="1" transform="matrix(1,0,0,1,0,0)"><path fill="rgb(255,225,156)" fill-opacity="1" d=" M-36.862998962402344,-49.03099822998047 C-44.53099822998047,-68.73600006103516 -80.3239974975586,-68.73600006103516 -87.99199676513672,-49.03099822998047 C-97.41100311279297,-24.827999114990234 -86.0260009765625,1.4229999780654907 -82.40299987792969,-9.781999588012695 C-75.10600280761719,-32.349998474121094 -64.63899993896484,-32.10499954223633 -62.426998138427734,-32.10499954223633 C-60.09400177001953,-32.10499954223633 -49.749000549316406,-32.349998474121094 -42.45199966430664,-9.781999588012695 C-38.82899856567383,1.4229999780654907 -27.444000244140625,-24.827999114990234 -36.862998962402344,-49.03099822998047z"></path></g><g opacity="1" transform="matrix(1,0,0,1,0,0)"><path fill="rgb(143,58,0)" fill-opacity="1" d=" M-37.768001556396484,-53.79999923706055 C-45.43600082397461,-73.50499725341797 -79.41899871826172,-73.50499725341797 -87.08699798583984,-53.79999923706055 C-96.50599670410156,-29.597000122070312 -87.83799743652344,-3.3480000495910645 -84.21499633789062,-14.552000045776367 C-76.91799926757812,-37.119998931884766 -64.63899993896484,-36.875 -62.426998138427734,-36.875 C-60.09400177001953,-36.875 -47.9370002746582,-37.119998931884766 -40.63999938964844,-14.552000045776367 C-37.016998291015625,-3.3480000495910645 -28.349000930786133,-29.597000122070312 -37.768001556396484,-53.79999923706055z"></path></g><g opacity="1" transform="matrix(1,0,0,1,0,0)"><path fill="rgb(107,32,0)" fill-opacity="1" d=" M-34.92599868774414,-18.06800079345703 C-34.165000915527344,-25.91900062561035 -34.85300064086914,-35.48699951171875 -38.729000091552734,-45.637001037597656 C-46.10100173950195,-64.95500183105469 -59.89400100708008,-65.10700225830078 -62.43000030517578,-65.10700225830078 C-64.81199645996094,-65.10700225830078 -78.75,-64.95500183105469 -86.12200164794922,-45.637001037597656 C-89.98899841308594,-35.48699951171875 -90.68599700927734,-25.929000854492188 -89.93399810791016,-18.077999114990234 C-91.96299743652344,-25.95800018310547 -92.37999725341797,-40.20899963378906 -87.09100341796875,-53.803001403808594 C-79.41999816894531,-73.50199890136719 -64.91100311279297,-73.67400360107422 -62.43000030517578,-73.67400360107422 C-59.78499984741211,-73.67400360107422 -45.439998626708984,-73.50199890136719 -37.76900100708008,-53.803001403808594 C-32.47100067138672,-40.20000076293945 -32.89699935913086,-25.947999954223633 -34.92599868774414,-18.06800079345703z"></path></g></g><g opacity="1" transform="matrix(1,0,0,1,0,0)"><g opacity="0.6" transform="matrix(1,0,0,1,0,0)"><path fill="rgb(255,173,0)" fill-opacity="1" d=" M85.38300323486328,-59.52399826049805 C77.71499633789062,-79.22899627685547 62.457000732421875,-79.39299774169922 59.81800079345703,-79.39299774169922 C57.33399963378906,-79.39299774169922 41.92100143432617,-79.22899627685547 34.25299835205078,-59.52399826049805 C24.833999633789062,-35.32099914550781 36.21900177001953,-9.071999549865723 39.84199905395508,-20.275999069213867 C47.138999938964844,-42.84400177001953 57.60599899291992,-42.597999572753906 59.81800079345703,-42.597999572753906 C62.1510009765625,-42.597999572753906 72.49700164794922,-42.84400177001953 79.79399871826172,-20.275999069213867 C83.41699981689453,-9.071999549865723 94.802001953125,-35.32099914550781 85.38300323486328,-59.52399826049805z"></path></g><g opacity="1" transform="matrix(1,0,0,1,0,0)"><path fill="rgb(255,225,156)" fill-opacity="1" d=" M85.38300323486328,-49.03099822998047 C77.71499633789062,-68.73600006103516 41.92100143432617,-68.73600006103516 34.25299835205078,-49.03099822998047 C24.833999633789062,-24.827999114990234 36.21900177001953,1.4229999780654907 39.84199905395508,-9.781999588012695 C47.138999938964844,-32.349998474121094 57.60599899291992,-32.10499954223633 59.81800079345703,-32.10499954223633 C62.1510009765625,-32.10499954223633 72.49700164794922,-32.349998474121094 79.79399871826172,-9.781999588012695 C83.41699981689453,1.4229999780654907 94.802001953125,-24.827999114990234 85.38300323486328,-49.03099822998047z"></path></g><g opacity="1" transform="matrix(1,0,0,1,0,0)"><path fill="rgb(143,58,0)" fill-opacity="1" d=" M84.47699737548828,-53.79999923706055 C76.80899810791016,-73.50499725341797 42.82699966430664,-73.50499725341797 35.159000396728516,-53.79999923706055 C25.739999771118164,-29.597000122070312 34.40800094604492,-3.3480000495910645 38.03099822998047,-14.552000045776367 C45.327999114990234,-37.119998931884766 57.60599899291992,-36.875 59.81800079345703,-36.875 C62.1510009765625,-36.875 74.30799865722656,-37.119998931884766 81.6050033569336,-14.552000045776367 C85.22799682617188,-3.3480000495910645 93.89600372314453,-29.597000122070312 84.47699737548828,-53.79999923706055z"></path></g><g opacity="1" transform="matrix(1,0,0,1,0,0)"><path fill="rgb(107,32,0)" fill-opacity="1" d=" M87.31999969482422,-18.06800079345703 C88.08100128173828,-25.91900062561035 87.39199829101562,-35.48699951171875 83.51599884033203,-45.637001037597656 C76.14399719238281,-64.95500183105469 62.35100173950195,-65.10700225830078 59.814998626708984,-65.10700225830078 C57.43299865722656,-65.10700225830078 43.49599838256836,-64.95500183105469 36.124000549316406,-45.637001037597656 C32.25699996948242,-35.48699951171875 31.55900001525879,-25.929000854492188 32.31100082397461,-18.077999114990234 C30.281999588012695,-25.95800018310547 29.865999221801758,-40.20899963378906 35.154998779296875,-53.803001403808594 C42.82600021362305,-73.50199890136719 57.33399963378906,-73.67400360107422 59.814998626708984,-73.67400360107422 C62.459999084472656,-73.67400360107422 76.80500030517578,-73.50199890136719 84.47599792480469,-53.803001403808594 C89.77400207519531,-40.20000076293945 89.3489990234375,-25.947999954223633 87.31999969482422,-18.06800079345703z"></path></g></g></g><g style="display: block;" transform="matrix(1,0,0,1,262.9267578125,254.81759643554688)" opacity="0.7000000000000001"><g opacity="1" transform="matrix(1,0,0,1,0,0)"><path fill="rgb(255,173,0)" fill-opacity="1" d=" M140.53599548339844,87.83999633789062 C152.822998046875,99.18399810791016 112.072998046875,137.1840057373047 101.50800323486328,137.43299865722656 C96.072998046875,111.43399810791016 70.93599700927734,95.2699966430664 70.93599700927734,95.2699966430664 C70.93599700927734,95.2699966430664 97.75599670410156,63.619998931884766 97.75599670410156,63.619998931884766 C117.32599639892578,68.91999816894531 121.59500122070312,72.66000366210938 140.53599548339844,87.83999633789062z"></path></g></g><g style="display: block;" transform="matrix(1,0,0,1,256,256)" opacity="1"><g opacity="1" transform="matrix(1,0,0,1,0,0)"><path fill="rgb(255,225,156)" fill-opacity="1" d=" M123.26100158691406,16.00200080871582 C112.24400329589844,11.623000144958496 111.93699645996094,35.152000427246094 95.75399780273438,62.6150016784668 C80.88999938964844,87.83999633789062 47.69499969482422,115.97000122070312 1.0579999685287476,115.97000122070312 C-45.577999114990234,115.97000122070312 -78.77400207519531,87.83999633789062 -93.63800048828125,62.6150016784668 C-109.81999969482422,35.152000427246094 -110.1050033569336,11.682000160217285 -121.1449966430664,16.00200080871582 C-144.58700561523438,25.176000595092773 -102.49700164794922,123.13700103759766 1.0579999685287476,123.13700103759766 C106.4260025024414,123.13700103759766 146.33900451660156,25.176000595092773 123.26100158691406,16.00200080871582z"></path></g><g opacity="1" transform="matrix(1,0,0,1,0,0)"><path fill="rgb(143,58,0)" fill-opacity="1" d=" M123.26100158691406,16.00200080871582 C112.4729995727539,11.085000038146973 111.93699645996094,29.152000427246094 95.75399780273438,56.6150016784668 C80.88999938964844,81.83999633789062 47.69499969482422,109.97000122070312 1.0579999685287476,109.97000122070312 C-45.577999114990234,109.97000122070312 -78.77400207519531,81.83999633789062 -93.63800048828125,56.6150016784668 C-109.81999969482422,29.152000427246094 -110.43199920654297,10.92300033569336 -121.1449966430664,16.00200080871582 C-137.4600067138672,23.736000061035156 -98.96399688720703,117.13700103759766 1.0579999685287476,117.13700103759766 C101.08100128173828,117.13700103759766 140.22900390625,23.736000061035156 123.26100158691406,16.00200080871582z"></path></g></g><g style="display: none;"><g><path></path></g><g><path></path></g></g><g style="display: block;" transform="matrix(0.6427876353263855,-0.7660444378852844,0.7660444378852844,0.6427876353263855,258.3675537109375,366.08551025390625)" opacity="1"><g opacity="1" transform="matrix(0.6427876353263855,0.7660444378852844,-0.7660444378852844,0.6427876353263855,86.37077331542969,-61.13071060180664)"><g opacity="1" transform="matrix(1,0,0,1,0,0)"><path fill="url(#__lottie_element_10124)" fill-opacity="1" d=" M105.94100189208984,17.091999053955078 C89.69400024414062,26.62299919128418 64.69300079345703,69.62300109863281 65.63600158691406,78.19599914550781 C68.19300079345703,81.37300109863281 97.27300262451172,103.19000244140625 97.27300262451172,103.19000244140625 C105.29399871826172,109.4749984741211 128.0570068359375,116.79199981689453 145.6439971923828,94.32499694824219 C162.66200256347656,72.58699798583984 151.72300720214844,52.34700012207031 142.91200256347656,45.45399856567383 C142.91200256347656,45.45399856567383 109.19400024414062,18.37299919128418 105.94100189208984,17.091999053955078z"></path><path stroke-linecap="round" stroke-linejoin="round" fill-opacity="0" stroke="rgb(213,0,87)" stroke-opacity="1" stroke-width="8" d=" M105.94100189208984,17.091999053955078 C89.69400024414062,26.62299919128418 64.69300079345703,69.62300109863281 65.63600158691406,78.19599914550781 C68.19300079345703,81.37300109863281 97.27300262451172,103.19000244140625 97.27300262451172,103.19000244140625 C105.29399871826172,109.4749984741211 128.0570068359375,116.79199981689453 145.6439971923828,94.32499694824219 C162.66200256347656,72.58699798583984 151.72300720214844,52.34700012207031 142.91200256347656,45.45399856567383 C142.91200256347656,45.45399856567383 109.19400024414062,18.37299919128418 105.94100189208984,17.091999053955078z"></path></g><g opacity="0.7000000000000001" transform="matrix(1,0,0,1,0,0)"><path stroke-linecap="round" stroke-linejoin="round" fill-opacity="0" stroke="rgb(171,0,59)" stroke-opacity="1" stroke-width="8" d=" M115.05699920654297,70.03099822998047 C115.05699920654297,70.03099822998047 99.76599884033203,58.33100128173828 99.76599884033203,58.33100128173828 C99.76599884033203,58.33100128173828 86.3239974975586,48.45800018310547 86.3239974975586,48.45800018310547"></path></g><g opacity="0.3" transform="matrix(1,0,0,1,0,0)"><path fill="rgb(183,0,64)" fill-opacity="1" d=" M106.88099670410156,14.545000076293945 C100.61100006103516,16.420000076293945 99.56400299072266,21.483999252319336 83.38099670410156,48.946998596191406 C77.43399810791016,59.03900146484375 74.38300323486328,66.63500213623047 62.88100051879883,75.66999816894531 C62.88100051879883,75.66999816894531 71.49800109863281,83.44300079345703 71.49800109863281,83.44300079345703 C112.58899688720703,55.22800064086914 115.50599670410156,18.93899917602539 106.88099670410156,14.545000076293945z"></path></g></g></g><g style="display: block;" transform="matrix(1,0,0,1,256,256)" opacity="1"><g opacity="1" transform="matrix(1,0,0,1,0,0)"><path fill="rgb(255,207,0)" fill-opacity="1" d=" M69.50599670410156,90.0270004272461 C98.35399627685547,67.72699737548828 100.32499694824219,45.777000427246094 119.02899932861328,19.725000381469727 C94.50599670410156,-7.117000102996826 69.37999725341797,0.7770000100135803 51.880001068115234,23.277000427246094 C34.380001068115234,45.777000427246094 46.25600051879883,83.0270004272461 69.50599670410156,90.0270004272461z"></path></g><g opacity="0.6" transform="matrix(1,0,0,1,0,0)"><path fill="rgb(255,173,0)" fill-opacity="1" d=" M123.26100158691406,16.00200080871582 C108.75499725341797,10.152000427246094 109.93699645996094,25.152000427246094 93.75399780273438,52.6150016784668 C78.88999938964844,77.83999633789062 47.69499969482422,103.97000122070312 1.0579999685287476,103.97000122070312 C-45.577999114990234,103.97000122070312 -76.77400207519531,77.83999633789062 -91.63800048828125,52.6150016784668 C-107.81999969482422,25.152000427246094 -106.41000366210938,9.527000427246094 -121.1449966430664,16.00200080871582 C-98.91000366210938,34.527000427246094 -96.24400329589844,105.86000061035156 2.25600004196167,112.36000061035156 C103.4229965209961,102.86000061035156 101.25499725341797,30.194000244140625 123.26100158691406,16.00200080871582z"></path></g><g opacity="1" transform="matrix(1,0,0,1,0,0)"><path fill="rgb(107,32,0)" fill-opacity="1" d=" M126.55599975585938,20.309999465942383 C126.46600341796875,20.25 126.36599731445312,20.200000762939453 126.26599884033203,20.15999984741211 C120.28700256347656,17.65399932861328 116.93599700927734,32.310001373291016 100.75599670410156,59.779998779296875 C85.88600158691406,85 47.69599914550781,114.12999725341797 1.055999994277954,114.12999725341797 C-45.57400131225586,114.12999725341797 -83.77400207519531,85 -98.63400268554688,59.779998779296875 C-114.8239974975586,32.310001373291016 -116.03199768066406,17.714000701904297 -124.14399719238281,20.15999984741211 C-124.18699645996094,20.17300033569336 -124.2239990234375,20.200000762939453 -124.26399993896484,20.219999313354492 C-123.7040023803711,18.170000076293945 -122.66400146484375,16.719999313354492 -121.14399719238281,16 C-110.43399810791016,10.920000076293945 -109.8239974975586,29.149999618530273 -93.63400268554688,56.619998931884766 C-78.77400207519531,81.83999633789062 -45.57400131225586,109.97000122070312 1.055999994277954,109.97000122070312 C47.69599914550781,109.97000122070312 80.88600158691406,81.83999633789062 95.75599670410156,56.619998931884766 C111.93599700927734,29.149999618530273 112.47599792480469,11.079999923706055 123.26599884033203,16 C124.86599731445312,16.729999542236328 125.95600128173828,18.209999084472656 126.55599975585938,20.309999465942383z"></path></g></g></g></svg>