<svg xmlns="http://www.w3.org/2000/svg" viewBox="0 0 512 512" width="512" height="512" style="width: 100%; height: 100%; transform: translate3d(0,0,0);" preserveAspectRatio="xMidYMid meet"><defs><clipPath id="__lottie_element_10154"><rect width="512" height="512" x="0" y="0"></rect></clipPath></defs><g clip-path="url(#__lottie_element_10154)"><g style="display: none;"><path></path></g><g style="display: none;"><path></path></g><g style="display: none;"><path></path></g><g style="display: none;"><path></path></g><g style="display: none;"><path></path></g><g style="display: none;"><path></path></g><g style="display: none;"><g><path></path></g></g><g style="display: none;"><g><path></path></g></g><g style="display: none;"><g><path></path></g></g><g style="display: none;"><g><path></path></g></g><g style="display: none;"><g><path></path></g></g><g style="display: none;"><g><path></path></g></g><g style="display: none;"><g><path></path></g></g><g style="display: none;"><g><path stroke-linecap="round" stroke-linejoin="round" fill-opacity="0"></path></g></g><g style="display: none;"><g><path stroke-linecap="round" stroke-linejoin="round" fill-opacity="0"></path></g></g><g style="display: none;"><g><path></path></g></g><g style="display: none;"><g><path></path></g></g><g style="display: none;"><g><path></path></g></g><g style="display: none;"><g><path></path></g></g><g style="display: none;"><g><path></path></g></g><g style="display: none;"><g><path></path></g></g><g style="display: none;"><g><path></path></g></g><g style="display: block;" transform="matrix(1,0,0,1,0,0)" opacity="1"><g opacity="1" transform="matrix(1,0,0,1,125.79499816894531,233.61300659179688)"><path fill="rgb(251,47,47)" fill-opacity="1" d=" M61.20100021362305,-143.45599365234375 C61.20100021362305,-135.97300720214844 21.006000518798828,-108.14199829101562 13.656999588012695,-101.91899871826172 C12.178999900817871,-100.66799926757812 6.947999954223633,-92.677001953125 1.3359999656677246,-91.0739974975586 C-4.2769999504089355,-89.47000122070312 -12.027000427246094,-85.99600219726562 -18.44099998474121,-80.91799926757812 C-24.854999542236328,-75.83999633789062 -31.804000854492188,-69.15899658203125 -37.14899826049805,-70.22799682617188 C-42.49399948120117,-71.2969970703125 -51.31399917602539,-76.90899658203125 -50.24399948120117,-83.59100341796875 C-49.17499923706055,-90.27200317382812 -42.76100158691406,-92.677001953125 -35.27899932861328,-98.29000091552734 C-27.795000076293945,-103.9020004272461 -7.447000026702881,-118.82599639892578 2.13700008392334,-127.15299987792969 C26.402999877929688,-148.23699951171875 23.090999603271484,-148.4980010986328 30.875,-152.85800170898438 C32.67599868774414,-153.8679962158203 37.40800094604492,-155.0970001220703 40.69300079345703,-156.28900146484375 C45.39899826049805,-157.9969940185547 49.042999267578125,-160.1439971923828 51.84600067138672,-158.68899536132812 C54.93000030517578,-157.08900451660156 61.20100021362305,-150.93899536132812 61.20100021362305,-143.45599365234375z"></path></g></g><g style="display: block;" transform="matrix(1,0,0,1,0,0)" opacity="1"><g opacity="1" transform="matrix(1,0,0,1,125.79499816894531,233.61300659179688)"><path fill="rgb(251,47,47)" fill-opacity="1" d=" M-60.132999420166016,115.51399993896484 C-59.06399917602539,104.55699920654297 -55.05500030517578,97.33999633789062 -55.05500030517578,91.99500274658203 C-55.05500030517578,86.6500015258789 -55.5890007019043,75.4260025024414 -50.77899932861328,64.20099639892578 C-45.96799850463867,52.97700119018555 -40.2869987487793,38.277000427246094 -33.071998596191406,20.63800048828125 C-25.854999542236328,2.999000072479248 -22.746000289916992,2.428999900817871 -18.638999938964844,-13.03600025177002 C-15.48799991607666,-24.899999618530273 -7.216000080108643,-48.3129997253418 -1.3370000123977661,-59.80500030517578 C4.543000221252441,-71.2969970703125 6.145999908447266,-82.78900146484375 10.42300033569336,-89.47000122070312 C14.697999954223633,-96.1510009765625 23.090999603271484,-148.4980010986328 30.875,-152.85800170898438 C32.67599868774414,-153.8679962158203 37.40800094604492,-155.0970001220703 40.69300079345703,-156.28900146484375 C45.39899826049805,-157.9969940185547 49.042999267578125,-160.1439971923828 51.84600067138672,-158.68899536132812 C54.93000030517578,-157.08900451660156 61.20100021362305,-150.93899536132812 61.20100021362305,-143.45599365234375 C61.20100021362305,-135.97300720214844 52.303001403808594,-114.18599700927734 45.59000015258789,-98.07499694824219 C42.91699981689453,-91.66100311279297 40.96900177001953,-83.91200256347656 37.68199920654297,-78.77999877929688 C31.332000732421875,-68.86799621582031 29.854999542236328,-66.2300033569336 27.190000534057617,-54.39099884033203 C26.235000610351562,-50.14699935913086 26.31399917602539,-48.03799819946289 20.844999313354492,-39.49399948120117 C16.729999542236328,-33.064998626708984 13.404999732971191,-26.3439998626709 9.621000289916992,-10.36299991607666 C8.425000190734863,-5.314000129699707 9.71399974822998,-4.589000225067139 4.008999824523926,5.671999931335449 C-1.9869999885559082,16.454999923706055 -0.6669999957084656,19.888999938964844 -7.61299991607666,30.525999069213867 C-15.36299991607666,42.39699935913086 -15.631999969482422,55.518001556396484 -22.250999450683594,65.00299835205078 C-31.113000869750977,77.69999694824219 -31.00200080871582,77.56300354003906 -30.735000610351562,83.44300079345703 C-30.466999053955078,89.3219985961914 -31.014999389648438,97.91699981689453 -37.14899826049805,108.56500244140625 C-42.069000244140625,117.1050033569336 -45.70100021362305,123.79900360107422 -47.8390007019043,137.16099548339844 C-49.97700119018555,150.5229949951172 -52.91699981689453,160.1439971923828 -55.5890007019043,156.67100524902344 C-58.262001037597656,153.1959991455078 -61.20100021362305,126.47100067138672 -60.132999420166016,115.51399993896484z"></path></g></g><g style="display: block;" transform="matrix(1,0,0,1,0,0)" opacity="1"><g opacity="1" transform="matrix(1,0,0,1,242.125,177.36099243164062)"><path fill="rgb(251,47,47)" fill-opacity="1" d=" M30.229999542236328,-119.88400268554688 C21.639999389648438,-120.41999816894531 12.949000358581543,-114.99800109863281 0.8949999809265137,-108.26599884033203 C-8.680999755859375,-102.91799926757812 -14.0649995803833,-99.7490005493164 -24.53499984741211,-83.64199829101562 C-35.005001068115234,-67.53399658203125 -36.15299987792969,-62.090999603271484 -42.32699966430664,-49.4739990234375 C-48.500999450683594,-36.85599899291992 -56.481998443603516,-20.479999542236328 -60.507999420166016,-5.715000152587891 C-64.53500366210938,9.050000190734863 -68.0250015258789,9.050000190734863 -69.63600158691406,41.26499938964844 C-69.94300079345703,47.395999908447266 -72.2300033569336,52.67100143432617 -72.46199798583984,57.266998291015625 C-73.4520034790039,76.81800079345703 -69.4520034790039,84.06300354003906 -65.75599670410156,92.54000091552734 C-61.19300079345703,103.01000213623047 -46.513999938964844,116.83300018310547 -24.80299949645996,118.8499984741211 C-7.88700008392334,120.41999816894531 10.173999786376953,116.96900177001953 25.66699981689453,101.32499694824219 C49.09400177001953,77.6709976196289 43.86399841308594,72.85600280761719 59.2239990234375,42.606998443603516 C68.91200256347656,23.527999877929688 67.5459976196289,9.050000190734863 70.4990005493164,-5.984000205993652 C73.4520034790039,-21.017000198364258 71.30400085449219,-37.393001556396484 70.4990005493164,-54.84299850463867 C69.69400024414062,-72.29299926757812 71.84100341796875,-101.55500030517578 66.74099731445312,-105.04399871826172 C61.63999938964844,-108.53500366210938 66.625,-79.11100006103516 52.50400161743164,-59.88100051879883 C44.816001892089844,-49.4119987487793 50.09600067138672,-31.48699951171875 50.3650016784668,-21.017000198364258 C50.632999420166016,-10.54699993133545 45.263999938964844,-6.789000034332275 42.847999572753906,6.0970001220703125 C40.43199920654297,18.982999801635742 39.62699890136719,13.345000267028809 37.21099853515625,22.472999572753906 C34.79499816894531,31.60099983215332 25.398000717163086,39.922000885009766 24.323999404907227,46.09700012207031 C23.250999450683594,52.27199935913086 25.398000717163086,59.52000045776367 18.687000274658203,65.96299743652344 C11.975000381469727,72.40599822998047 12.244000434875488,73.05899810791016 10.633000373840332,78.63899993896484 C9.022000312805176,84.21800231933594 0.7900000214576721,85.4020004272461 -6.994999885559082,89.42900085449219 C-14.781000137329102,93.45600128173828 -17.22599983215332,88.31800079345703 -26.621999740600586,89.39299774169922 C-36.01900100708008,90.46600341796875 -42.608001708984375,79.38800048828125 -42.78900146484375,70.7959976196289 C-42.96699905395508,62.44900131225586 -44.957000732421875,57.992000579833984 -41.98500061035156,38.8489990234375 C-38.56999969482422,16.856000900268555 -35.417999267578125,22.201000213623047 -32.5880012512207,1.2649999856948853 C-30.922000885009766,-11.059000015258789 -25.948999404907227,-14.638999938964844 -20.239999771118164,-32.90299987792969 C-16.69300079345703,-44.25299835205078 -4.59499979019165,-69.48699951171875 5.068999767303467,-79.68900299072266 C14.734000205993652,-89.88999938964844 20.56599998474121,-95.37999725341797 28.08300018310547,-95.37999725341797 C35.5989990234375,-95.37999725341797 44.66899871826172,-101.0780029296875 46.069000244140625,-105.8499984741211 C47.54100036621094,-110.85900115966797 38.82099914550781,-119.34700012207031 30.229999542236328,-119.88400268554688z"></path></g></g><g style="display: block;" transform="matrix(1,0,0,1,143.40199279785156,-9.55999755859375)" opacity="1"><g opacity="1" transform="matrix(1,0,0,1,242.125,177.36099243164062)"><path fill="rgb(251,47,47)" fill-opacity="1" d=" M30.229999542236328,-119.88400268554688 C21.639999389648438,-120.41999816894531 12.949000358581543,-114.99800109863281 0.8949999809265137,-108.26599884033203 C-8.680999755859375,-102.91799926757812 -14.0649995803833,-99.7490005493164 -24.53499984741211,-83.64199829101562 C-35.005001068115234,-67.53399658203125 -36.15299987792969,-62.090999603271484 -42.32699966430664,-49.4739990234375 C-48.500999450683594,-36.85599899291992 -56.481998443603516,-20.479999542236328 -60.507999420166016,-5.715000152587891 C-64.53500366210938,9.050000190734863 -68.0250015258789,9.050000190734863 -69.63600158691406,41.26499938964844 C-69.94300079345703,47.395999908447266 -72.2300033569336,52.67100143432617 -72.46199798583984,57.266998291015625 C-73.4520034790039,76.81800079345703 -69.4520034790039,84.06300354003906 -65.75599670410156,92.54000091552734 C-61.19300079345703,103.01000213623047 -46.513999938964844,116.83300018310547 -24.80299949645996,118.8499984741211 C-7.88700008392334,120.41999816894531 10.173999786376953,116.96900177001953 25.66699981689453,101.32499694824219 C49.09400177001953,77.6709976196289 43.86399841308594,72.85600280761719 59.2239990234375,42.606998443603516 C68.91200256347656,23.527999877929688 67.5459976196289,9.050000190734863 70.4990005493164,-5.984000205993652 C73.4520034790039,-21.017000198364258 71.30400085449219,-37.393001556396484 70.4990005493164,-54.84299850463867 C69.69400024414062,-72.29299926757812 71.84100341796875,-101.55500030517578 66.74099731445312,-105.04399871826172 C61.63999938964844,-108.53500366210938 66.625,-79.11100006103516 52.50400161743164,-59.88100051879883 C44.816001892089844,-49.4119987487793 50.09600067138672,-31.48699951171875 50.3650016784668,-21.017000198364258 C50.632999420166016,-10.54699993133545 45.263999938964844,-6.789000034332275 42.847999572753906,6.0970001220703125 C40.43199920654297,18.982999801635742 39.62699890136719,13.345000267028809 37.21099853515625,22.472999572753906 C34.79499816894531,31.60099983215332 25.398000717163086,39.922000885009766 24.323999404907227,46.09700012207031 C23.250999450683594,52.27199935913086 25.398000717163086,59.52000045776367 18.687000274658203,65.96299743652344 C11.975000381469727,72.40599822998047 12.244000434875488,73.05899810791016 10.633000373840332,78.63899993896484 C9.022000312805176,84.21800231933594 0.7900000214576721,85.4020004272461 -6.994999885559082,89.42900085449219 C-14.781000137329102,93.45600128173828 -17.22599983215332,88.31800079345703 -26.621999740600586,89.39299774169922 C-36.01900100708008,90.46600341796875 -42.608001708984375,79.38800048828125 -42.78900146484375,70.7959976196289 C-42.96699905395508,62.44900131225586 -44.957000732421875,57.992000579833984 -41.98500061035156,38.8489990234375 C-38.56999969482422,16.856000900268555 -35.417999267578125,22.201000213623047 -32.5880012512207,1.2649999856948853 C-30.922000885009766,-11.059000015258789 -25.948999404907227,-14.638999938964844 -20.239999771118164,-32.90299987792969 C-16.69300079345703,-44.25299835205078 -4.59499979019165,-69.48699951171875 5.068999767303467,-79.68900299072266 C14.734000205993652,-89.88999938964844 20.56599998474121,-95.37999725341797 28.08300018310547,-95.37999725341797 C35.5989990234375,-95.37999725341797 44.66899871826172,-101.0780029296875 46.069000244140625,-105.8499984741211 C47.54100036621094,-110.85900115966797 38.82099914550781,-119.34700012207031 30.229999542236328,-119.88400268554688z"></path></g></g><g style="display: block;" transform="matrix(1,0,0,1,0,0)" opacity="1"><g opacity="1" transform="matrix(1,0,0,1,271.59100341796875,354.572998046875)"><path fill="rgb(251,47,47)" fill-opacity="1" d=" M105.90599822998047,-23.676000595092773 C96.93599700927734,-28.309999465942383 94.21900177001953,-27.740999221801758 88.12000274658203,-24.94700050354004 C82.02200317382812,-22.152000427246094 79.22699737548828,-22.4060001373291 74.39900207519531,-25.200000762939453 C69.5719985961914,-27.9950008392334 55.85100173950195,-28.979999542236328 45.18000030517578,-27.85300064086914 C34.50899887084961,-26.725000381469727 32.27399826049805,-30.45800018310547 28.665000915527344,-25.729999542236328 C25.05699920654297,-21.000999450683594 11.866999626159668,-25.481000900268555 7.014999866485596,-25.481000900268555 C2.1610000133514404,-25.481000900268555 -0.2029999941587448,-21.374000549316406 -8.539999961853027,-21.74799919128418 C-16.87700080871582,-22.121000289916992 -25.523000717163086,-22.239999771118164 -34.275001525878906,-18.243000030517578 C-43.02799987792969,-14.246000289916992 -58.62099838256836,-14.447999954223633 -68.51599884033203,-9.628000259399414 C-78.41000366210938,-4.808000087738037 -94.39399719238281,-4.315000057220459 -105.3030014038086,1.2660000324249268 C-116.21199798583984,6.8480000495910645 -125.60099792480469,6.072000026702881 -124.83899688720703,12.414999961853027 C-124.0780029296875,18.757999420166016 -120.27300262451172,17.264999389648438 -119.76599884033203,23.86199951171875 C-119.25800323486328,30.45800018310547 -107.49500274658203,24.267000198364258 -97.4540023803711,24.86199951171875 C-88.57499694824219,25.386999130249023 -70.60800170898438,17.82699966430664 -61.91899871826172,15.48900032043457 C-45.06800079345703,10.956000328063965 -43.801998138427734,9.260000228881836 -17.520999908447266,6.86299991607666 C-2.056999921798706,5.453000068664551 15.461999893188477,5.341000080108643 25.610000610351562,1.281999945640564 C35.75899887084961,-2.7780001163482666 59.099998474121094,-1.159000039100647 68.73999786376953,-0.699999988079071 C78.38200378417969,-0.23999999463558197 86.75399780273438,-0.7480000257492065 91.31999969482422,-4.553999900817871 C95.88800048828125,-8.359999656677246 125.5999984741211,-2.822999954223633 124.4540023803711,-8.177000045776367 C123.49600219726562,-12.656000137329102 116.48699951171875,-18.209999084472656 105.90599822998047,-23.676000595092773z"></path></g></g><g style="display: block;" transform="matrix(1,0,0,1,0,0)" opacity="1"><g opacity="1" transform="matrix(1,0,0,1,245.8470001220703,435.54998779296875)"><path fill="rgb(251,47,47)" fill-opacity="1" d=" M151.3070068359375,-30.871999740600586 C142.28900146484375,-31.79599952697754 146.9340057373047,-37.040000915527344 126.33300018310547,-37.040000915527344 C118.93199920654297,-37.040000915527344 125.87000274658203,-33.183998107910156 114.30699920654297,-31.10300064086914 C102.74500274658203,-29.02199935913086 110.83899688720703,-36.88399887084961 89.7959976196289,-36.88399887084961 C68.75199890136719,-36.88399887084961 66.6709976196289,-38.27199935913086 58.345001220703125,-34.10900115966797 C50.020999908447266,-29.94700050354004 49.73400115966797,-35.999000549316406 43.72100067138672,-35.07500076293945 C37.70899963378906,-34.14899826049805 44.70199966430664,-29.94700050354004 33.60200119018555,-30.17799949645996 C22.503000259399414,-30.409000396728516 11.864999771118164,-34.39799880981445 2.382999897003174,-28.125 C-7.0980000495910645,-21.85300064086914 -18.197999954223633,-29.02199935913086 -33.229000091552734,-25.55299949645996 C-48.2599983215332,-22.083999633789062 -51.95899963378906,-17.22800064086914 -65.37200164794922,-15.84000015258789 C-78.78500366210938,-14.45300006866455 -78.09100341796875,-14.222000122070312 -87.33999633789062,-9.597000122070312 C-96.58999633789062,-4.9720001220703125 -102.83399963378906,-8.440999984741211 -118.55899810791016,-3.3529999256134033 C-134.28500366210938,1.7350000143051147 -137.52200317382812,2.427999973297119 -145.61599731445312,7.052999973297119 C-153.70899963378906,11.678000450134277 -163.18899536132812,9.133999824523926 -169.66400146484375,15.84000015258789 C-176.13900756835938,22.54599952697754 -162.49600219726562,38.27199935913086 -155.5590057373047,36.189998626708984 C-148.62100219726562,34.10900115966797 -143.76400756835938,29.483999252319336 -130.81500244140625,29.02199935913086 C-117.86499786376953,28.55900001525879 -114.40499877929688,23.240999221801758 -99.13800048828125,19.30900001525879 C-83.87100219726562,15.378000259399414 -71.84700012207031,14.916000366210938 -55.65999984741211,9.597000122070312 C-39.47200012207031,4.2779998779296875 -23.054000854492188,6.822000026702881 -10.335000038146973,2.6600000858306885 C2.382999897003174,-1.503000020980835 27.579999923706055,-0.7390000224113464 40.308998107910156,-4.046000003814697 C56.94599914550781,-8.369999885559082 69.74700164794922,-8.539999961853027 86.3270034790039,-8.440999984741211 C101.20500183105469,-8.35099983215332 124.48200225830078,-8.670999526977539 127.72000122070312,-11.90999984741211 C130.95799255371094,-15.147000312805176 140.82899475097656,-15.147000312805176 150.22999572753906,-14.684000015258789 C159.6320037841797,-14.222000122070312 163.2169952392578,-16.30299949645996 167.03199768066406,-16.30299949645996 C170.8470001220703,-16.30299949645996 176.13900756835938,-15.232999801635742 174.27699279785156,-18.143999099731445 C172.70199584960938,-20.606000900268555 160.3260040283203,-29.94700050354004 151.3070068359375,-30.871999740600586z"></path></g></g><g style="display: block;" transform="matrix(1,0,0,1,0,0)" opacity="1"><g opacity="1" transform="matrix(1,0,0,1,130.36099243164062,116.125)"><path fill="rgb(168,0,28)" fill-opacity="1" d=" M55.334999084472656,-31.934999465942383 C53.8650016784668,-33.494998931884766 51.375999450683594,-35.6349983215332 50.28499984741211,-36.20500183105469 C47.47600173950195,-37.654998779296875 43.834999084472656,-35.505001068115234 39.125999450683594,-33.80500030517578 C35.84600067138672,-32.60499954223633 31.104999542236328,-31.375 29.30500030517578,-30.375 C21.52400016784668,-26.0049991607666 24.833999633789062,-25.7450008392334 0.5740000009536743,-4.664999961853027 C-9.015999794006348,3.6649999618530273 -29.365999221801758,18.584999084472656 -36.84600067138672,24.19499969482422 C-44.32500076293945,29.815000534057617 -50.744998931884766,32.21500015258789 -51.80500030517578,38.89500045776367 C-51.95399856567383,39.834999084472656 -50.915000915527344,41.755001068115234 -50.70399856567383,42.654998779296875 C-53.42499923706055,40.275001525878906 -55.33399963378906,37.21500015258789 -54.80500030517578,33.89500045776367 C-53.744998931884766,27.21500015258789 -47.32500076293945,24.815000534057617 -39.84600067138672,19.19499969482422 C-32.36600112915039,13.585000038146973 -12.015999794006348,-1.3350000381469727 -2.4260001182556152,-9.664999961853027 C21.833999633789062,-30.7450008392334 18.52400016784668,-31.0049991607666 26.30500030517578,-35.375 C28.104999542236328,-36.375 32.84600067138672,-37.60499954223633 36.125999450683594,-38.80500030517578 C40.834999084472656,-40.505001068115234 44.47600173950195,-42.654998779296875 47.28499984741211,-41.20500183105469 C49.49599838256836,-40.05500030517578 53.334999084472656,-36.57500076293945 55.334999084472656,-31.934999465942383z"></path></g></g><g style="display: block;" transform="matrix(1,0,0,1,0,0)" opacity="1"><g opacity="1" transform="matrix(1,0,0,1,104.02400207519531,260.8420104980469)"><path fill="rgb(168,0,28)" fill-opacity="1" d=" M-33.81800079345703,129.43899536132812 C-36.487998962402344,125.96800231933594 -39.428001403808594,99.23799896240234 -38.358001708984375,88.28800201416016 C-37.28799819946289,77.3280029296875 -33.28799819946289,70.10800170898438 -33.28799819946289,64.76899719238281 C-33.28799819946289,59.417999267578125 -33.81800079345703,48.198001861572266 -29.007999420166016,36.96799850463867 C-24.198999404907227,25.74799919128418 -18.51799964904785,11.04800033569336 -11.29800033569336,-6.5920000076293945 C-4.0879998207092285,-24.23200035095215 -0.9779999852180481,-24.802000045776367 3.131999969482422,-40.262001037597656 C6.2820000648498535,-52.13199996948242 14.550999641418457,-75.54199981689453 20.43199920654297,-87.03199768066406 C25.631999969482422,-97.2020034790039 27.492000579833984,-107.37200164794922 30.812000274658203,-114.21199798583984 C32.57699966430664,-118.91100311279297 37.696998596191406,-124.34500122070312 38.79600143432617,-130.35800170898438 C38.79600143432617,-130.35800170898438 39.428001403808594,-123.90799713134766 35.14799880981445,-117.22799682617188 C30.878000259399414,-110.5479965209961 29.1200008392334,-94.08599853515625 23.239999771118164,-82.59600067138672 C17.358999252319336,-71.10600280761719 10.281999588012695,-46.13199996948242 7.131999969482422,-34.262001037597656 C3.0220000743865967,-18.802000045776367 -0.08799999952316284,-20.23200035095215 -7.297999858856201,-2.5920000076293945 C-14.517999649047852,15.04800033569336 -20.198999404907227,29.74799919128418 -25.007999420166016,40.96799850463867 C-29.81800079345703,52.198001861572266 -29.288000106811523,65.41799926757812 -29.288000106811523,70.76899719238281 C-29.288000106811523,76.10800170898438 -33.28799819946289,83.3280029296875 -34.358001708984375,94.28800201416016 C-35.178001403808594,102.66799926757812 -33.64799880981445,120.26899719238281 -31.687999725341797,129.63900756835938 C-32.39799880981445,130.35800170898438 -33.11800003051758,130.3489990234375 -33.81800079345703,129.43899536132812z"></path></g></g><g style="display: block;" transform="matrix(1,0,0,1,0,0)" opacity="1"><g opacity="1" transform="matrix(1,0,0,1,228.42100524902344,167.25999450683594)"><path fill="rgb(168,0,28)" fill-opacity="1" d=" M-47.244998931884766,110.31999969482422 C-49.375,107.69999694824219 -50.994998931884766,105.08000183105469 -52.055999755859375,102.63999938964844 C-55.744998931884766,94.16000366210938 -59.744998931884766,86.91999816894531 -58.755001068115234,67.37000274658203 C-58.5260009765625,62.77000045776367 -56.23500061035156,57.5 -55.935001373291016,51.369998931884766 C-54.32500076293945,19.149999618530273 -50.834999084472656,19.149999618530273 -46.805999755859375,4.389999866485596 C-42.7760009765625,-10.380000114440918 -34.79499816894531,-26.760000228881836 -28.625,-39.369998931884766 C-22.44499969482422,-51.9900016784668 -21.305999755859375,-57.43000030517578 -10.835000038146973,-73.54000091552734 C-0.36500000953674316,-89.6500015258789 5.02400016784668,-92.81999969482422 14.595000267028809,-98.16000366210938 C26.65399932861328,-104.9000015258789 35.345001220703125,-110.31999969482422 43.935001373291016,-109.77999877929688 C51.165000915527344,-109.33000183105469 58.48500061035156,-103.25 59.744998931884766,-98.33999633789062 C56.67499923706055,-101.19999694824219 52.28499984741211,-103.51000213623047 47.935001373291016,-103.77999877929688 C39.345001220703125,-104.31999969482422 30.65399932861328,-98.9000015258789 18.594999313354492,-92.16000366210938 C9.02400016784668,-86.81999969482422 3.634999990463257,-83.6500015258789 -6.835000038146973,-67.54000091552734 C-17.305999755859375,-51.43000030517578 -18.44499969482422,-45.9900016784668 -24.625,-33.369998931884766 C-30.795000076293945,-20.760000228881836 -38.7760009765625,-4.380000114440918 -42.805999755859375,10.390000343322754 C-46.834999084472656,25.149999618530273 -50.32500076293945,25.149999618530273 -51.935001373291016,57.369998931884766 C-52.23500061035156,63.5 -54.5260009765625,68.7699966430664 -54.755001068115234,73.37000274658203 C-55.744998931884766,92.91999816894531 -51.744998931884766,100.16000366210938 -48.055999755859375,108.63999938964844 C-47.814998626708984,109.19000244140625 -47.54499816894531,109.75 -47.244998931884766,110.31999969482422z"></path></g></g><g style="display: block;" transform="matrix(1,0,0,1,0,0)" opacity="1"><g opacity="1" transform="matrix(1,0,0,1,258.33599853515625,172.8249969482422)"><path fill="rgb(168,0,28)" fill-opacity="1" d=" M52.970001220703125,-94.75499725341797 C48.970001220703125,-93.1449966430664 47.04999923706055,-73.80500030517578 44.060001373291016,-62.29499816894531 C39.540000915527344,-44.89500045776367 37.59000015258789,-50.755001068115234 36.540000915527344,-37.595001220703125 C35.5099983215332,-24.645000457763672 37.880001068115234,-20.954999923706055 38.1510009765625,-10.484999656677246 C38.41999816894531,-0.014999999664723873 33.04999923706055,3.744999885559082 30.639999389648438,16.635000228881836 C28.219999313354492,29.514999389648438 27.420000076293945,23.885000228881836 25,33.005001068115234 C22.579999923706055,42.1349983215332 13.190999984741211,50.45500183105469 12.109999656677246,56.6349983215332 C11.039999961853027,62.80500030517578 13.190999984741211,70.05500030517578 6.480000019073486,76.49500274658203 C-0.23999999463558197,82.94499969482422 0.029999999329447746,83.59500122070312 -1.5800000429153442,89.17500305175781 C-3.190000057220459,94.75499725341797 -11.420000076293945,95.93499755859375 -19.209999084472656,99.96499633789062 C-26.989999771118164,103.99500274658203 -29.440000534057617,98.8550033569336 -38.83000183105469,99.92500305175781 C-45.209999084472656,100.65599822998047 -50.29999923706055,95.78600311279297 -52.970001220703125,89.88500213623047 C-50.27000045776367,92.66500091552734 -46.79999923706055,94.38500213623047 -42.83000183105469,93.92500305175781 C-33.439998626708984,92.8550033569336 -30.989999771118164,97.99500274658203 -23.209999084472656,93.96499633789062 C-15.420000076293945,89.93499755859375 -7.190000057220459,88.75499725341797 -5.579999923706055,83.17500305175781 C-3.9700000286102295,77.59500122070312 -4.239999771118164,76.94499969482422 2.4800000190734863,70.49500274658203 C9.190999984741211,64.05500030517578 7.039999961853027,56.80500030517578 8.109999656677246,50.6349983215332 C9.190999984741211,44.45500183105469 18.579999923706055,36.1349983215332 21,27.0049991607666 C23.420000076293945,17.885000228881836 24.219999313354492,23.514999389648438 26.639999389648438,10.635000228881836 C29.049999237060547,-2.255000114440918 34.41999816894531,-6.014999866485596 34.1510009765625,-16.485000610351562 C33.880001068115234,-26.954999923706055 31.510000228881836,-30.645000457763672 32.540000915527344,-43.595001220703125 C33.59000015258789,-56.755001068115234 35.540000915527344,-50.89500045776367 40.060001373291016,-68.29499816894531 C43.409000396728516,-81.21499633789062 45.43000030517578,-103.99500274658203 50.529998779296875,-100.50499725341797 C51.66999816894531,-99.7249984741211 52.441001892089844,-97.67500305175781 52.970001220703125,-94.75499725341797z"></path></g></g><g style="display: block;" transform="matrix(1,0,0,1,0,0)" opacity="1"><g opacity="1" transform="matrix(1,0,0,1,239.89300537109375,81.59600067138672)"><path stroke-linecap="round" stroke-linejoin="round" fill-opacity="0" stroke="rgb(255,255,255)" stroke-opacity="1" stroke-width="6" d=" M0.5879999995231628,-0.5139999985694885 C0.1940000057220459,-0.17900000512599945 -0.1979999989271164,0.164000004529953 -0.5879999995231628,0.5139999985694885"></path></g></g><g style="display: block;" transform="matrix(1,0,0,1,0,0)" opacity="1"><g opacity="1" transform="matrix(1,0,0,1,255.24200439453125,71.61900329589844)"><path stroke-linecap="round" stroke-linejoin="round" fill-opacity="0" stroke="rgb(255,255,255)" stroke-opacity="1" stroke-width="6" d=" M5.583000183105469,-2.8469998836517334 C5.583000183105469,-2.8469998836517334 0.6320000290870667,-0.9620000123977661 -5.583000183105469,2.8469998836517334"></path></g></g><g style="display: block;" transform="matrix(1,0,0,1,143.5,-10)" opacity="1"><g opacity="1" transform="matrix(1,0,0,1,228.42100524902344,167.25999450683594)"><path fill="rgb(168,0,28)" fill-opacity="1" d=" M-47.244998931884766,110.31999969482422 C-49.375,107.69999694824219 -50.994998931884766,105.08000183105469 -52.055999755859375,102.63999938964844 C-55.744998931884766,94.16000366210938 -59.744998931884766,86.91999816894531 -58.755001068115234,67.37000274658203 C-58.5260009765625,62.77000045776367 -56.23500061035156,57.5 -55.935001373291016,51.369998931884766 C-54.32500076293945,19.149999618530273 -50.834999084472656,19.149999618530273 -46.805999755859375,4.389999866485596 C-42.7760009765625,-10.380000114440918 -34.79499816894531,-26.760000228881836 -28.625,-39.369998931884766 C-22.44499969482422,-51.9900016784668 -21.305999755859375,-57.43000030517578 -10.835000038146973,-73.54000091552734 C-0.36500000953674316,-89.6500015258789 5.02400016784668,-92.81999969482422 14.595000267028809,-98.16000366210938 C26.65399932861328,-104.9000015258789 35.345001220703125,-110.31999969482422 43.935001373291016,-109.77999877929688 C51.165000915527344,-109.33000183105469 58.48500061035156,-103.25 59.744998931884766,-98.33999633789062 C56.67499923706055,-101.19999694824219 52.28499984741211,-103.51000213623047 47.935001373291016,-103.77999877929688 C39.345001220703125,-104.31999969482422 30.65399932861328,-98.9000015258789 18.594999313354492,-92.16000366210938 C9.02400016784668,-86.81999969482422 3.634999990463257,-83.6500015258789 -6.835000038146973,-67.54000091552734 C-17.305999755859375,-51.43000030517578 -18.44499969482422,-45.9900016784668 -24.625,-33.369998931884766 C-30.795000076293945,-20.760000228881836 -38.7760009765625,-4.380000114440918 -42.805999755859375,10.390000343322754 C-46.834999084472656,25.149999618530273 -50.32500076293945,25.149999618530273 -51.935001373291016,57.369998931884766 C-52.23500061035156,63.5 -54.5260009765625,68.7699966430664 -54.755001068115234,73.37000274658203 C-55.744998931884766,92.91999816894531 -51.744998931884766,100.16000366210938 -48.055999755859375,108.63999938964844 C-47.814998626708984,109.19000244140625 -47.54499816894531,109.75 -47.244998931884766,110.31999969482422z"></path></g></g><g style="display: block;" transform="matrix(1,0,0,1,143.5,-10)" opacity="1"><g opacity="1" transform="matrix(1,0,0,1,258.33599853515625,172.8249969482422)"><path fill="rgb(168,0,28)" fill-opacity="1" d=" M52.970001220703125,-94.75499725341797 C48.970001220703125,-93.1449966430664 47.04999923706055,-73.80500030517578 44.060001373291016,-62.29499816894531 C39.540000915527344,-44.89500045776367 37.59000015258789,-50.755001068115234 36.540000915527344,-37.595001220703125 C35.5099983215332,-24.645000457763672 37.880001068115234,-20.954999923706055 38.1510009765625,-10.484999656677246 C38.41999816894531,-0.014999999664723873 33.04999923706055,3.744999885559082 30.639999389648438,16.635000228881836 C28.219999313354492,29.514999389648438 27.420000076293945,23.885000228881836 25,33.005001068115234 C22.579999923706055,42.1349983215332 13.190999984741211,50.45500183105469 12.109999656677246,56.6349983215332 C11.039999961853027,62.80500030517578 13.190999984741211,70.05500030517578 6.480000019073486,76.49500274658203 C-0.23999999463558197,82.94499969482422 0.029999999329447746,83.59500122070312 -1.5800000429153442,89.17500305175781 C-3.190000057220459,94.75499725341797 -11.420000076293945,95.93499755859375 -19.209999084472656,99.96499633789062 C-26.989999771118164,103.99500274658203 -29.440000534057617,98.8550033569336 -38.83000183105469,99.92500305175781 C-45.209999084472656,100.65599822998047 -50.29999923706055,95.78600311279297 -52.970001220703125,89.88500213623047 C-50.27000045776367,92.66500091552734 -46.79999923706055,94.38500213623047 -42.83000183105469,93.92500305175781 C-33.439998626708984,92.8550033569336 -30.989999771118164,97.99500274658203 -23.209999084472656,93.96499633789062 C-15.420000076293945,89.93499755859375 -7.190000057220459,88.75499725341797 -5.579999923706055,83.17500305175781 C-3.9700000286102295,77.59500122070312 -4.239999771118164,76.94499969482422 2.4800000190734863,70.49500274658203 C9.190999984741211,64.05500030517578 7.039999961853027,56.80500030517578 8.109999656677246,50.6349983215332 C9.190999984741211,44.45500183105469 18.579999923706055,36.1349983215332 21,27.0049991607666 C23.420000076293945,17.885000228881836 24.219999313354492,23.514999389648438 26.639999389648438,10.635000228881836 C29.049999237060547,-2.255000114440918 34.41999816894531,-6.014999866485596 34.1510009765625,-16.485000610351562 C33.880001068115234,-26.954999923706055 31.510000228881836,-30.645000457763672 32.540000915527344,-43.595001220703125 C33.59000015258789,-56.755001068115234 35.540000915527344,-50.89500045776367 40.060001373291016,-68.29499816894531 C43.409000396728516,-81.21499633789062 45.43000030517578,-103.99500274658203 50.529998779296875,-100.50499725341797 C51.66999816894531,-99.7249984741211 52.441001892089844,-97.67500305175781 52.970001220703125,-94.75499725341797z"></path></g></g><g style="display: block;" transform="matrix(1,0,0,1,0,0)" opacity="1"><g opacity="1" transform="matrix(1,0,0,1,271.02099609375,351.2699890136719)"><path fill="rgb(168,0,28)" fill-opacity="1" d=" M125.03399658203125,-4.769999980926514 C122.31099700927734,-9.479000091552734 116.76399993896484,-13.119999885559082 110.4729995727539,-16.3700008392334 C101.50499725341797,-21.010000228881836 98.78399658203125,-20.440000534057617 92.69400024414062,-17.639999389648438 C86.59400177001953,-14.850000381469727 83.79399871826172,-15.100000381469727 78.96499633789062,-17.899999618530273 C74.14399719238281,-20.690000534057617 60.42399978637695,-21.68000030517578 49.755001068115234,-20.549999237060547 C39.07400131225586,-19.420000076293945 36.84400177001953,-23.15999984741211 33.23400115966797,-18.43000030517578 C29.624000549316406,-13.699999809265137 16.43400001525879,-18.18000030517578 11.585000038146973,-18.18000030517578 C6.734000205993652,-18.18000030517578 4.363999843597412,-14.069999694824219 -3.9660000801086426,-14.449999809265137 C-12.305999755859375,-14.819999694824219 -20.95599937438965,-14.9399995803833 -29.70599937438965,-10.9399995803833 C-38.45600128173828,-6.940000057220459 -54.055999755859375,-7.150000095367432 -63.94599914550781,-2.3299999237060547 C-73.84600067138672,2.5 -89.82599639892578,2.990000009536743 -100.73600006103516,8.569999694824219 C-111.64600372314453,14.149999618530273 -122.34300231933594,13.670000076293945 -120.26599884033203,19.719999313354492 C-118.84600067138672,23.854999542236328 -119.19599914550781,27.15999984741211 -119.19599914550781,27.15999984741211 C-119.70600128173828,20.56999969482422 -123.50599670410156,22.059999465942383 -124.26599884033203,15.720000267028809 C-125.03500366210938,9.369999885559082 -115.64600372314453,10.149999618530273 -104.73600006103516,4.570000171661377 C-93.82599639892578,-1.0099999904632568 -77.84600067138672,-1.5 -67.94599914550781,-6.329999923706055 C-58.055999755859375,-11.149999618530273 -42.45600128173828,-10.9399995803833 -33.70600128173828,-14.9399995803833 C-24.95599937438965,-18.940000534057617 -16.305999755859375,-18.81999969482422 -7.966000080108643,-18.450000762939453 C0.36399999260902405,-18.06999969482422 2.7339999675750732,-22.18000030517578 7.585000038146973,-22.18000030517578 C12.434000015258789,-22.18000030517578 25.624000549316406,-17.700000762939453 29.233999252319336,-22.43000030517578 C32.84400177001953,-27.15999984741211 35.07400131225586,-23.420000076293945 45.755001068115234,-24.549999237060547 C56.42399978637695,-25.68000030517578 70.14399719238281,-24.690000534057617 74.96499633789062,-21.899999618530273 C79.79399871826172,-19.100000381469727 82.59400177001953,-18.850000381469727 88.69400024414062,-21.639999389648438 C94.78399658203125,-24.440000534057617 97.50499725341797,-25.010000228881836 106.4729995727539,-20.3700008392334 C117.05400085449219,-14.90999984741211 124.06400299072266,-9.350000381469727 125.02400207519531,-4.869999885559082 C125.03399658203125,-4.840000152587891 125.03399658203125,-4.800000190734863 125.03399658203125,-4.769999980926514z"></path></g></g><g style="display: block;" transform="matrix(1,0,0,1,0,0)" opacity="1"><g opacity="1" transform="matrix(1,0,0,1,246.03199768066406,429.44500732421875)"><path fill="rgb(168,0,28)" fill-opacity="1" d=" M173.54299926757812,-10.154999732971191 C173.54299926757812,-10.154999732971191 173.5330047607422,-10.154999732971191 173.5330047607422,-10.154999732971191 C174.83700561523438,-12.885000228881836 158.1739959716797,-21.145000457763672 152.12399291992188,-21.764999389648438 C143.10400390625,-22.69499969482422 149.75399780273438,-26.934999465942383 129.1439971923828,-26.934999465942383 C121.74400329589844,-26.934999465942383 128.6840057373047,-23.075000762939453 117.1240005493164,-20.9950008392334 C105.56400299072266,-18.915000915527344 113.65299987792969,-26.774999618530273 92.61299896240234,-26.774999618530273 C71.56400299072266,-26.774999618530273 69.48300170898438,-28.165000915527344 61.16299819946289,-24.0049991607666 C52.83300018310547,-19.844999313354492 52.542999267578125,-25.895000457763672 46.53300094604492,-24.96500015258789 C40.52299880981445,-24.045000076293945 47.513999938964844,-19.844999313354492 36.41299819946289,-20.075000762939453 C25.31399917602539,-20.30500030517578 14.684000015258789,-24.295000076293945 5.192999839782715,-18.024999618530273 C-4.2870001792907715,-11.744999885559082 -15.38700008392334,-18.915000915527344 -30.41699981689453,-15.444999694824219 C-45.44599914550781,-11.975000381469727 -49.145999908447266,-7.125 -62.55699920654297,-5.735000133514404 C-75.96700286865234,-4.34499979019165 -75.2760009765625,-4.114999771118164 -84.5260009765625,0.5049999952316284 C-93.7760009765625,5.135000228881836 -100.01699829101562,1.6649999618530273 -115.74600219726562,6.755000114440918 C-131.4669952392578,11.835000038146973 -134.70700073242188,12.53499984741211 -142.79600524902344,17.155000686645508 C-150.89599609375,21.78499984741211 -163.12600708007812,17.895000457763672 -169.11199951171875,27.132999420166016 C-170.36199951171875,29.062000274658203 -168.29600524902344,32.165000915527344 -168.29600524902344,32.165000915527344 C-171.1959991455078,29.524999618530273 -174.83700561523438,27.104999542236328 -169.8470001220703,21.94499969482422 C-163.37600708007812,15.234999656677246 -153.89599609375,17.78499984741211 -145.79600524902344,13.154999732971191 C-137.70700073242188,8.53499984741211 -134.4669952392578,7.835000038146973 -118.74600219726562,2.755000114440918 C-103.01699829101562,-2.3350000381469727 -96.7760009765625,1.1349999904632568 -87.5260009765625,-3.494999885559082 C-78.2760009765625,-8.114999771118164 -78.96700286865234,-8.345000267028809 -65.55699920654297,-9.734999656677246 C-52.145999908447266,-11.125 -48.44599914550781,-15.975000381469727 -33.41699981689453,-19.44499969482422 C-18.386999130249023,-22.915000915527344 -7.2870001792907715,-15.744999885559082 2.193000078201294,-22.024999618530273 C11.684000015258789,-28.295000076293945 22.31399917602539,-24.30500030517578 33.41299819946289,-24.075000762939453 C44.513999938964844,-23.844999313354492 37.52299880981445,-28.045000076293945 43.53300094604492,-28.96500015258789 C49.542999267578125,-29.895000457763672 49.83300018310547,-23.844999313354492 58.16299819946289,-28.0049991607666 C66.48300170898438,-32.165000915527344 68.56400299072266,-30.774999618530273 89.61299896240234,-30.774999618530273 C110.65299987792969,-30.774999618530273 102.56400299072266,-22.915000915527344 114.1240005493164,-24.9950008392334 C125.68399810791016,-27.075000762939453 118.74400329589844,-30.934999465942383 126.14399719238281,-30.934999465942383 C146.75399780273438,-30.934999465942383 142.10400390625,-25.69499969482422 151.12399291992188,-24.764999389648438 C160.1439971923828,-23.844999313354492 172.51400756835938,-14.505000114440918 174.093994140625,-12.03499984741211 C174.81399536132812,-10.914999961853027 174.46299743652344,-10.385000228881836 173.54299926757812,-10.154999732971191z"></path></g></g></g></svg>