<svg xmlns="http://www.w3.org/2000/svg" viewBox="0 0 512 512" width="512" height="512" style="width: 100%; height: 100%; transform: translate3d(0,0,0);" preserveAspectRatio="xMidYMid meet"><defs><clipPath id="__lottie_element_10270"><rect width="512" height="512" x="0" y="0"></rect></clipPath><linearGradient id="__lottie_element_10291" spreadMethod="pad" gradientUnits="userSpaceOnUse" x1="-1" y1="100" x2="-1" y2="199.7480010986328"><stop offset="0%" stop-color="rgb(251,57,130)"></stop><stop offset="25%" stop-color="rgb(253,102,170)"></stop><stop offset="52%" stop-color="rgb(255,147,209)"></stop><stop offset="80%" stop-color="rgb(250,73,162)"></stop><stop offset="100%" stop-color="rgb(245,0,116)"></stop></linearGradient></defs><g clip-path="url(#__lottie_element_10270)"><g style="display: block;" transform="matrix(0.9803900122642517,0,0,1.0204100608825684,256,255.9591827392578)" opacity="1"><g opacity="0.1" transform="matrix(1,0,0,1,0,0)"><path fill="rgb(0,0,0)" fill-opacity="1" d=" M196.02499389648438,5.045000076293945 C196.02499389648438,87.64900207519531 144.9320068359375,158.3179931640625 72.6240005493164,187.17599487304688 C50.16400146484375,196.13999938964844 25.658000946044922,201.06900024414062 0,201.06900024414062 C-31.48699951171875,201.06900024414062 -61.24100112915039,193.64500427246094 -87.60600280761719,180.45199584960938 C-151.88900756835938,148.28399658203125 -196.02499389648438,81.81900024414062 -196.02499389648438,5.045000076293945 C-196.02499389648438,-103.21600341796875 -108.26100158691406,-190.97999572753906 0,-190.97999572753906 C108.26100158691406,-190.97999572753906 196.02499389648438,-103.21600341796875 196.02499389648438,5.045000076293945z"></path></g></g><g style="display: block;" transform="matrix(1,0,0,1,256,256)" opacity="1"><g opacity="1" transform="matrix(1,0,0,1,0,0)"><path fill="rgb(255,173,0)" fill-opacity="1" d=" M188.875,-8.194000244140625 C188.875,96.11900329589844 104.31300354003906,180.68099975585938 0,180.68099975585938 C-104.31300354003906,180.68099975585938 -188.875,96.11900329589844 -188.875,-8.194000244140625 C-188.875,-112.50700378417969 -104.31300354003906,-197.06900024414062 0,-197.06900024414062 C104.31300354003906,-197.06900024414062 188.875,-112.50700378417969 188.875,-8.194000244140625z"></path><path stroke-linecap="butt" stroke-linejoin="miter" fill-opacity="0" stroke-miterlimit="10" stroke="rgb(255,118,42)" stroke-opacity="1" stroke-width="8" d=" M188.875,-8.194000244140625 C188.875,96.11900329589844 104.31300354003906,180.68099975585938 0,180.68099975585938 C-104.31300354003906,180.68099975585938 -188.875,96.11900329589844 -188.875,-8.194000244140625 C-188.875,-112.50700378417969 -104.31300354003906,-197.06900024414062 0,-197.06900024414062 C104.31300354003906,-197.06900024414062 188.875,-112.50700378417969 188.875,-8.194000244140625z"></path></g><g opacity="1" transform="matrix(1,0,0,1,0,0)"><path fill="rgb(255,207,0)" fill-opacity="1" d=" M168.40699768066406,-9.241999626159668 C166.9510040283203,85.78600311279297 90.39600372314453,161.66600036621094 -2.5820000171661377,160.24099731445312 C-95.55999755859375,158.8159942626953 -169.7530059814453,80.6259994506836 -168.29600524902344,-14.402999877929688 C-166.83999633789062,-109.43199920654297 -90.28500366210938,-185.31199645996094 2.693000078201294,-183.88699340820312 C95.6709976196289,-182.46200561523438 169.86399841308594,-104.27100372314453 168.40699768066406,-9.241999626159668z"></path></g><g opacity="0.9" transform="matrix(1,0,0,1,0,0)"><path fill="rgb(255,222,102)" fill-opacity="1" d=" M149.26800537109375,-52.38399887084961 C149.26800537109375,20.259000778198242 82.43800354003906,-37.20500183105469 0,-37.20500183105469 C-82.43800354003906,-37.20500183105469 -149.26699829101562,20.259000778198242 -149.26699829101562,-52.38399887084961 C-149.26699829101562,-125.0270004272461 -82.43800354003906,-183.91600036621094 0,-183.91600036621094 C82.43800354003906,-183.91600036621094 149.26800537109375,-125.0270004272461 149.26800537109375,-52.38399887084961z"></path></g><g opacity="1" transform="matrix(1,0,0,1,0,0)"><g opacity="1" transform="matrix(1,0,0,1,0,0)"><path stroke-linecap="round" stroke-linejoin="round" fill-opacity="0" stroke="rgb(255,255,255)" stroke-opacity="1" stroke-width="6" d=" M36.37300109863281,-179.69700622558594 C37.9109992980957,-179.36199951171875 39.50600051879883,-178.99200439453125 41.150001525878906,-178.58599853515625"></path></g><g opacity="1" transform="matrix(1,0,0,1,0,0)"><path stroke-linecap="round" stroke-linejoin="round" fill-opacity="0" stroke="rgb(255,255,255)" stroke-opacity="1" stroke-width="6" d=" M15.017999649047852,-182.91600036621094 C15.017999649047852,-182.91600036621094 19.885000228881836,-182.656005859375 27.607999801635742,-181.3780059814453"></path></g></g></g><g style="display: block;" transform="matrix(0.9803900122642517,0,0,1.0204100608825684,256,255.95916748046875)" opacity="0.7000000000000001"><g opacity="1" transform="matrix(1,0,0,1,0,0)"><path fill="rgb(255,173,0)" fill-opacity="1" d=" M60.356998443603516,99.81999969482422 C60.356998443603516,99.81999969482422 64.375,161.0489959716797 59.994998931884766,163.8000030517578 C24.735000610351562,175.7050018310547 -30.891000747680664,174.68499755859375 -60.577999114990234,162.9770050048828 C-64.86799621582031,159.20899963378906 -60.803001403808594,99.81999969482422 -60.803001403808594,99.81999969482422 C-60.803001403808594,87.41999816894531 60.356998443603516,87.41999816894531 60.356998443603516,99.81999969482422z"></path></g></g><g style="display: block;" transform="matrix(0.9803900122642517,0,0,1.0204100608825684,256,255.95916748046875)" opacity="1"><g opacity="1" transform="matrix(1,0,0,1,0,0)"><g opacity="1" transform="matrix(1,0,0,1,0,0)"><path fill="rgb(255,173,0)" fill-opacity="1" d=" M-116.83100128173828,55.020999908447266 C-116.90299987792969,50.05400085449219 -115.25299835205078,46.42499923706055 -110.42900085449219,46.784000396728516 C-98.2040023803711,47.69499969482422 -67.07599639892578,60.40800094604492 0.09700000286102295,61.45899963378906 C70.35399627685547,60.35900115966797 100.2020034790039,46.893001556396484 111.28099822998047,46.81800079345703 C114.9739990234375,46.792999267578125 117.09200286865234,49.77000045776367 117.0250015258789,55.020999908447266 C117.03099822998047,73.87999725341797 -116.06999969482422,83.33399963378906 -116.83100128173828,55.020999908447266z"></path></g></g><g opacity="1" transform="matrix(1,0,0,1,0,0)"><g opacity="1" transform="matrix(1,0,0,1,0,0)"><path fill="rgb(255,224,164)" fill-opacity="1" d=" M115.73600006103516,62.99800109863281 C110.06999969482422,99.14800262451172 63.729000091552734,143.32200622558594 0.09700000286102295,143.32200622558594 C-63.53499984741211,143.32200622558594 -107.89900207519531,105.12799835205078 -115.57599639892578,63.72999954223633 C-115.64800262451172,63.3390007019043 -118.3270034790039,52.957000732421875 -110.42900085449219,53.608001708984375 C-98.21199798583984,54.6150016784668 -67.07599639892578,68.33699798583984 0.09700000286102295,69.38800048828125 C70.35399627685547,68.28800201416016 100.24199676513672,54.58300018310547 111.28099822998047,53.641998291015625 C118.33999633789062,53.040000915527344 115.7969970703125,62.60599899291992 115.73600006103516,62.99800109863281z"></path></g></g><g opacity="1" transform="matrix(1,0,0,1,0,0)"><g opacity="1" transform="matrix(1,0,0,1,0,0)"><path fill="rgb(143,58,0)" fill-opacity="1" d=" M98.48999786376953,91.34600067138672 C77.88800048828125,114.74600219726562 43.21200180053711,135.78500366210938 0.10100000351667404,135.78500366210938 C-42.665000915527344,135.78500366210938 -77.12799835205078,118.29299926757812 -96.9530029296875,94.1989974975586 C-96.96499633789062,94.18800354003906 -96.97599792480469,94.177001953125 -96.98799896240234,94.15499877929688 C-115.68800354003906,72.8740005493164 -113.24800109863281,54.50299835205078 -113.16699981689453,54.42599868774414 C-107.7509994506836,49.70500183105469 -81.6709976196289,67.0199966430664 0.10100000351667404,68.3030014038086 C91.72799682617188,66.86599731445312 113.51100158691406,45.31399917602539 114.5459976196289,57.16699981689453 C114.80799865722656,58.457000732421875 112.73600006103516,75.16500091552734 98.48999786376953,91.34600067138672z"></path></g></g><g opacity="1" transform="matrix(1,0,0,1,0,0)"><path fill="rgb(107,32,0)" fill-opacity="1" d=" M98.48999786376953,91.34600067138672 C105.54900360107422,80.60199737548828 106.61199951171875,72.41500091552734 106.447998046875,69.96199798583984 C105.72699737548828,59.165000915527344 83.45999908447266,78.80699920654297 0.10100000351667404,80.11199951171875 C-83.26899719238281,78.80699920654297 -105.32499694824219,59.180999755859375 -106.25599670410156,69.96199798583984 C-106.38899993896484,71.72799682617188 -104.3270034790039,82.72799682617188 -96.98799896240234,94.15499877929688 C-110.92500305175781,79.24299621582031 -116.87000274658203,56.790000915527344 -113.16699981689453,54.42599868774414 C-107.7509994506836,49.70500183105469 -81.6709976196289,67.0199966430664 0.10100000351667404,68.3030014038086 C91.72799682617188,66.86599731445312 113.43900299072266,45.292999267578125 114.4739990234375,57.145999908447266 C114.48600006103516,57.27899932861328 113.83999633789062,73.87899780273438 98.48999786376953,91.34600067138672z"></path></g></g><g style="display: block;" transform="matrix(0.9803900122642517,0,0,1.0204100608825684,256,255.95916748046875)" opacity="1"><g opacity="1" transform="matrix(1,0,0,1,0,0)"><path fill="url(#__lottie_element_10291)" fill-opacity="1" d=" M-36.47999954223633,86.73899841308594 C-43.9640007019043,89.76699829101562 -49.25600051879883,96.9280014038086 -49.25600051879883,105.22599792480469 C-49.25600051879883,105.22599792480469 -49.25600051879883,153.58200073242188 -49.25600051879883,153.58200073242188 C-49.25600051879883,164.5970001220703 -39.749000549316406,196.31900024414062 -0.22300000488758087,196.31900024414062 C38.020999908447266,196.31900024414062 48.81100082397461,164.5970001220703 48.81100082397461,153.58200073242188 C48.81100082397461,153.58200073242188 48.81100082397461,105.22599792480469 48.81100082397461,105.22599792480469 C48.81100082397461,96.96499633789062 43.564998626708984,89.83000183105469 36.132999420166016,86.77899932861328"></path><path stroke-linecap="round" stroke-linejoin="round" fill-opacity="0" stroke="rgb(213,0,87)" stroke-opacity="1" stroke-width="8" d=" M-36.47999954223633,86.73899841308594 C-43.9640007019043,89.76699829101562 -49.25600051879883,96.9280014038086 -49.25600051879883,105.22599792480469 C-49.25600051879883,105.22599792480469 -49.25600051879883,153.58200073242188 -49.25600051879883,153.58200073242188 C-49.25600051879883,164.5970001220703 -39.749000549316406,196.31900024414062 -0.22300000488758087,196.31900024414062 C38.020999908447266,196.31900024414062 48.81100082397461,164.5970001220703 48.81100082397461,153.58200073242188 C48.81100082397461,153.58200073242188 48.81100082397461,105.22599792480469 48.81100082397461,105.22599792480469 C48.81100082397461,96.96499633789062 43.564998626708984,89.83000183105469 36.132999420166016,86.77899932861328"></path></g><g opacity="0.7000000000000001" transform="matrix(1,0,0,1,0,0)"><path stroke-linecap="round" stroke-linejoin="round" fill-opacity="0" stroke="rgb(171,0,59)" stroke-opacity="1" stroke-width="8" d=" M-0.06599999964237213,92.48500061035156 C-0.06599999964237213,92.48500061035156 -0.06599999964237213,136.18800354003906 -0.06599999964237213,136.18800354003906"></path></g><g opacity="0.5" transform="matrix(1,0,0,1,0,0)"><path fill="rgb(183,0,64)" fill-opacity="1" d=" M47.92900085449219,90.88200378417969 C38.75,107.625 -27.625,115.75 -48.297000885009766,90.88200378417969 C-43.85900115966797,84.56099700927734 -35.89500045776367,81.20600128173828 -28.371000289916992,81.20600128173828 C-28.371000289916992,81.20600128173828 -12.064000129699707,81.20600128173828 -12.064000129699707,81.20600128173828 C-7.795000076293945,81.20600128173828 -3.4839999675750732,82.98699951171875 -0.36000001430511475,86.02100372314453 C1.1729999780654907,84.26899719238281 6.090000152587891,81.20600128173828 11.517999649047852,81.20600128173828 C11.517999649047852,81.20600128173828 27.993000030517578,81.20600128173828 27.993000030517578,81.20600128173828 C35.48899841308594,81.20600128173828 43.19200134277344,84.59400177001953 47.92900085449219,90.88200378417969z"></path></g><g opacity="1" transform="matrix(1,0,0,1,0,0)"><path stroke-linecap="round" stroke-linejoin="round" fill-opacity="0" stroke="rgb(174,0,71)" stroke-opacity="1" stroke-width="8" d=" M-44.507999420166016,92.50599670410156 C-40.69900131225586,88.0510025024414 -34.944000244140625,85.1989974975586 -28.531999588012695,85.1989974975586 C-28.531999588012695,85.1989974975586 -12.133999824523926,85.1989974975586 -12.133999824523926,85.1989974975586 C-6.732999801635742,85.00900268554688 -2.00600004196167,90.14399719238281 -2.00600004196167,90.14399719238281 C-1.0920000076293945,91.18099975585938 0.5809999704360962,91.12899780273438 1.4249999523162842,90.03900146484375 C1.4249999523162842,90.03900146484375 1.4249999523162842,90.03900146484375 1.4249999523162842,90.03900146484375 C3.7829999923706055,86.99299621582031 7.489999771118164,85.1989974975586 11.427000045776367,85.1989974975586 C11.427000045776367,85.1989974975586 28.086999893188477,85.1989974975586 28.086999893188477,85.1989974975586 C34.49700164794922,85.1989974975586 40.250999450683594,88.04900360107422 44.060001373291016,92.50199890136719"></path></g></g><g style="display: block;" transform="matrix(0.9803900122642517,0,0,1.0204100608825684,256,255.9591827392578)" opacity="1"><g opacity="1" transform="matrix(1,0,0,1,0,0)"><g opacity="1" transform="matrix(1,0,0,1,0,0)"><path fill="rgb(255,237,182)" fill-opacity="1" d=" M23.14900016784668,-29.334999084472656 C23.14900016784668,-45.12099838256836 44.92300033569336,-49.25400161743164 66.89800262451172,-59.76499938964844 C91.15299987792969,-71.36699676513672 109.63899993896484,-84.79399871826172 108.98200225830078,-73.36699676513672 C108.56900024414062,-66.1760025024414 56.178001403808594,-39.15700149536133 56.28799819946289,-28.334999084472656 C56.388999938964844,-18.424999237060547 103.5530014038086,11.583999633789062 97.60099792480469,20.670000076293945 C97.28900146484375,21.145999908447266 96.78600311279297,21.43199920654297 95.80899810791016,21.391000747680664 C84.38300323486328,20.913000106811523 23.14900016784668,-14.031999588012695 23.14900016784668,-29.334999084472656z"></path></g><g opacity="1" transform="matrix(1,0,0,1,0,0)"><path fill="rgb(143,58,0)" fill-opacity="1" d=" M24.14900016784668,-33.334999084472656 C24.14900016784668,-43.28499984741211 44.92300033569336,-53.25400161743164 66.89800262451172,-63.76499938964844 C91.15299987792969,-75.36699676513672 107.94599914550781,-80.5009994506836 107.98200225830078,-76.36699676513672 C108.04399871826172,-69.16400146484375 56.178001403808594,-43.15700149536133 56.28799819946289,-32.334999084472656 C56.388999938964844,-22.424999237060547 99.8219985961914,10.583999633789062 97.60099792480469,16.670000076293945 C97.40599822998047,17.20400047302246 96.78600311279297,17.43199920654297 95.80899810791016,17.391000747680664 C84.38300323486328,16.913000106811523 24.14900016784668,-20.264999389648438 24.14900016784668,-33.334999084472656z"></path></g><g opacity="1" transform="matrix(1,0,0,1,0,0)"><path fill="rgb(116,24,0)" fill-opacity="1" d=" M107.97899627685547,-76.36299896240234 C107.98899841308594,-75.4530029296875 107.15899658203125,-74.23300170898438 105.6989974975586,-72.77300262451172 C100.31900024414062,-72.9729995727539 85.88999938964844,-67.85299682617188 66.9000015258789,-58.76300048828125 C44.91999816894531,-48.25299835205078 26.149999618530273,-38.28300094604492 26.149999618530273,-28.33300018310547 C26.149999618530273,-28.33300018310547 26.149999618530273,-28.283000946044922 26.149999618530273,-28.283000946044922 C24.860000610351562,-30.202999114990234 24.149999618530273,-31.913000106811523 24.149999618530273,-33.33300018310547 C24.149999618530273,-43.28300094604492 44.91999816894531,-53.25299835205078 66.9000015258789,-63.76300048828125 C91.1500015258789,-75.36299896240234 107.9489974975586,-80.50299835205078 107.97899627685547,-76.36299896240234z"></path></g><g opacity="1" transform="matrix(1,0,0,1,0,0)"><path fill="rgb(116,24,0)" fill-opacity="1" d=" M97.5989990234375,16.66699981689453 C97.40899658203125,17.19700050354004 96.78900146484375,17.427000045776367 95.80899810791016,17.386999130249023 C87.37899780273438,5.997000217437744 54.290000915527344,-20.85300064086914 54.28900146484375,-29.33300018310547 C54.28900146484375,-32.05400085449219 55.02000045776367,-33.643001556396484 57.900001525878906,-36.26300048828125 C56.86000061035156,-34.8129997253418 56.27899932861328,-33.483001708984375 56.28900146484375,-32.33300018310547 C56.388999938964844,-22.42300033569336 99.81900024414062,10.586999893188477 97.5989990234375,16.66699981689453z"></path></g></g><g opacity="1" transform="matrix(1,0,0,1,0,0)"><g opacity="1" transform="matrix(1,0,0,1,0,0)"><path fill="rgb(255,237,182)" fill-opacity="1" d=" M-23.14900016784668,-29.334999084472656 C-23.14900016784668,-45.12099838256836 -44.92300033569336,-49.25400161743164 -66.89800262451172,-59.76499938964844 C-91.15299987792969,-71.36699676513672 -109.63899993896484,-84.79399871826172 -108.98200225830078,-73.36699676513672 C-108.56900024414062,-66.1760025024414 -56.178001403808594,-39.15700149536133 -56.28799819946289,-28.334999084472656 C-56.388999938964844,-18.424999237060547 -103.5530014038086,11.583999633789062 -97.60099792480469,20.670000076293945 C-97.29000091552734,21.145999908447266 -96.78600311279297,21.43199920654297 -95.80899810791016,21.391000747680664 C-84.38300323486328,20.913000106811523 -23.14900016784668,-14.031999588012695 -23.14900016784668,-29.334999084472656z"></path></g><g opacity="1" transform="matrix(1,0,0,1,0,0)"><path fill="rgb(143,58,0)" fill-opacity="1" d=" M-24.14900016784668,-33.334999084472656 C-24.14900016784668,-43.28499984741211 -44.92300033569336,-53.25400161743164 -66.89800262451172,-63.76499938964844 C-91.15299987792969,-75.36699676513672 -107.94599914550781,-80.5009994506836 -107.98200225830078,-76.36699676513672 C-108.04399871826172,-69.16400146484375 -56.178001403808594,-43.15700149536133 -56.28799819946289,-32.334999084472656 C-56.388999938964844,-22.424999237060547 -99.8219985961914,10.583999633789062 -97.60099792480469,16.670000076293945 C-97.40599822998047,17.20400047302246 -96.78600311279297,17.43199920654297 -95.80899810791016,17.391000747680664 C-84.38300323486328,16.913000106811523 -24.14900016784668,-20.264999389648438 -24.14900016784668,-33.334999084472656z"></path></g><g opacity="1" transform="matrix(1,0,0,1,0,0)"><path fill="rgb(116,24,0)" fill-opacity="1" d=" M-107.97899627685547,-76.36299896240234 C-107.98899841308594,-75.4530029296875 -107.15899658203125,-74.23300170898438 -105.6989974975586,-72.77300262451172 C-100.31900024414062,-72.9729995727539 -85.88899993896484,-67.85299682617188 -66.89900207519531,-58.76300048828125 C-44.91899871826172,-48.25299835205078 -26.14900016784668,-38.28300094604492 -26.14900016784668,-28.33300018310547 C-26.14900016784668,-28.33300018310547 -26.14900016784668,-28.283000946044922 -26.14900016784668,-28.283000946044922 C-24.858999252319336,-30.202999114990234 -24.14900016784668,-31.913000106811523 -24.14900016784668,-33.33300018310547 C-24.14900016784668,-43.28300094604492 -44.91899871826172,-53.25299835205078 -66.89900207519531,-63.76300048828125 C-91.14900207519531,-75.36299896240234 -107.9489974975586,-80.50299835205078 -107.97899627685547,-76.36299896240234z"></path></g><g opacity="1" transform="matrix(1,0,0,1,0,0)"><path fill="rgb(116,24,0)" fill-opacity="1" d=" M-97.5989990234375,16.66699981689453 C-97.40899658203125,17.19700050354004 -96.78900146484375,17.427000045776367 -95.80899810791016,17.386999130249023 C-87.37899780273438,5.997000217437744 -54.290000915527344,-20.85300064086914 -54.28900146484375,-29.33300018310547 C-54.28900146484375,-32.05400085449219 -55.01900100708008,-33.643001556396484 -57.89899826049805,-36.26300048828125 C-56.85900115966797,-34.8129997253418 -56.27899932861328,-33.483001708984375 -56.28900146484375,-32.33300018310547 C-56.388999938964844,-22.42300033569336 -99.81900024414062,10.586999893188477 -97.5989990234375,16.66699981689453z"></path></g></g></g><g style="display: none;"><g><g><path></path></g><g><path></path></g><g><path></path></g><g><path></path></g><g><path></path></g><g><path></path></g><g><path></path></g><g><path></path></g></g></g></g></svg>