<svg xmlns="http://www.w3.org/2000/svg" viewBox="0 0 512 512" width="512" height="512" style="width: 100%; height: 100%; transform: translate3d(0,0,0);" preserveAspectRatio="xMidYMid meet"><defs><clipPath id="__lottie_element_10296"><rect width="512" height="512" x="0" y="0"></rect></clipPath></defs><g clip-path="url(#__lottie_element_10296)"><g style="display: block;" transform="matrix(1,0,0,1,256,255.99998474121094)" opacity="1"><g opacity="0.1" transform="matrix(1,0,0,1,0,0)"><path fill="rgb(0,0,0)" fill-opacity="1" d=" M195.92300415039062,10.781999588012695 C195.92300415039062,119.04299926757812 108.15899658203125,206.80599975585938 -0.10199999809265137,206.80599975585938 C-108.36299896240234,206.80599975585938 -196.12600708007812,119.04299926757812 -196.12600708007812,10.781999588012695 C-196.12600708007812,-97.47899627685547 -108.36299896240234,-185.2429962158203 -0.10199999809265137,-185.2429962158203 C108.15899658203125,-185.2429962158203 195.92300415039062,-97.47899627685547 195.92300415039062,10.781999588012695z"></path></g><g opacity="1" transform="matrix(1,0,0,1,0,0)"><path fill="rgb(255,173,0)" fill-opacity="1" d=" M188.7740020751953,-4.2179999351501465 C188.7740020751953,100.09500122070312 104.21099853515625,184.65699768066406 -0.10199999809265137,184.65699768066406 C-104.41500091552734,184.65699768066406 -188.9770050048828,100.09500122070312 -188.9770050048828,-4.2179999351501465 C-188.9770050048828,-108.53099822998047 -104.41500091552734,-193.093994140625 -0.10199999809265137,-193.093994140625 C104.21099853515625,-193.093994140625 188.7740020751953,-108.53099822998047 188.7740020751953,-4.2179999351501465z"></path><path stroke-linecap="butt" stroke-linejoin="miter" fill-opacity="0" stroke-miterlimit="10" stroke="rgb(255,118,42)" stroke-opacity="1" stroke-width="8" d=" M188.7740020751953,-4.2179999351501465 C188.7740020751953,100.09500122070312 104.21099853515625,184.65699768066406 -0.10199999809265137,184.65699768066406 C-104.41500091552734,184.65699768066406 -188.9770050048828,100.09500122070312 -188.9770050048828,-4.2179999351501465 C-188.9770050048828,-108.53099822998047 -104.41500091552734,-193.093994140625 -0.10199999809265137,-193.093994140625 C104.21099853515625,-193.093994140625 188.7740020751953,-108.53099822998047 188.7740020751953,-4.2179999351501465z"></path></g><g opacity="1" transform="matrix(1,0,0,1,0,0)"><path fill="rgb(255,207,0)" fill-opacity="1" d=" M168.30499267578125,-3.50600004196167 C166.8489990234375,91.52200317382812 90.29499816894531,167.4029998779297 -2.683000087738037,165.97799682617188 C-95.66100311279297,164.55299377441406 -169.85400390625,86.36199951171875 -168.39700317382812,-8.666999816894531 C-166.9409942626953,-103.69599914550781 -90.38700103759766,-179.5749969482422 2.5910000801086426,-178.14999389648438 C95.56900024414062,-176.72500610351562 169.76199340820312,-98.53500366210938 168.30499267578125,-3.50600004196167z"></path></g><g opacity="0.9" transform="matrix(1,0,0,1,0,0)"><path fill="rgb(255,222,102)" fill-opacity="1" d=" M149.16600036621094,-46.64699935913086 C149.16600036621094,25.996000289916992 82.33599853515625,-31.468000411987305 -0.10199999809265137,-31.468000411987305 C-82.54000091552734,-31.468000411987305 -149.36900329589844,25.996000289916992 -149.36900329589844,-46.64699935913086 C-149.36900329589844,-119.29000091552734 -82.54000091552734,-178.1790008544922 -0.10199999809265137,-178.1790008544922 C82.33599853515625,-178.1790008544922 149.16600036621094,-119.29000091552734 149.16600036621094,-46.64699935913086z"></path></g><g opacity="1" transform="matrix(1,0,0,1,0,0)"><g opacity="1" transform="matrix(1,0,0,1,0,0)"><path stroke-linecap="round" stroke-linejoin="round" fill-opacity="0" stroke="rgb(255,255,255)" stroke-opacity="1" stroke-width="6" d=" M36.270999908447266,-173.9600067138672 C37.808998107910156,-173.625 39.40399932861328,-173.2550048828125 41.04899978637695,-172.8489990234375"></path></g><g opacity="1" transform="matrix(1,0,0,1,0,0)"><path stroke-linecap="round" stroke-linejoin="round" fill-opacity="0" stroke="rgb(255,255,255)" stroke-opacity="1" stroke-width="6" d=" M14.916999816894531,-177.1790008544922 C14.916999816894531,-177.1790008544922 19.784000396728516,-176.91900634765625 27.506999969482422,-175.64100646972656"></path></g></g></g><g style="display: block;" transform="matrix(1,0,0,1,256,255.99998474121094)" opacity="1"><g opacity="1" transform="matrix(1,0,0,1,0,0)"><path fill="rgb(255,237,182)" fill-opacity="1" d=" M134.7220001220703,-55.01599884033203 C122.31600189208984,-63.2859992980957 102.88800048828125,-70.90499877929688 81.91699981689453,-64.12999725341797 C62.4640007019043,-57.845001220703125 70.36299896240234,-43.86899948120117 79.72200012207031,-47.61600112915039 C95.63600158691406,-53.98699951171875 118.52300262451172,-56.301998138427734 137.29400634765625,-41.41600036621094 C155.98399353027344,-26.594999313354492 155.7530059814453,-16.420000076293945 159.9219970703125,-15.029999732971191 C166.86500549316406,-12.715999603271484 154.00799560546875,-42.159000396728516 134.7220001220703,-55.01599884033203z"></path></g><g opacity="1" transform="matrix(1,0,0,1,0,0)"><path fill="rgb(143,58,0)" fill-opacity="1" d=" M134.7220001220703,-58.10200119018555 C122.31600189208984,-66.37200164794922 103.86499786376953,-71.7300033569336 83.03600311279297,-64.52999877929688 C62.207000732421875,-57.33000183105469 70.36299896240234,-46.95500183105469 79.72200012207031,-50.70199966430664 C95.63600158691406,-57.073001861572266 118.52300262451172,-59.38800048828125 137.29400634765625,-44.50199890136719 C155.98399353027344,-29.680999755859375 156.80799865722656,-17.70199966430664 160.9219970703125,-16.159000396728516 C165.03599548339844,-14.616000175476074 154.00799560546875,-45.244998931884766 134.7220001220703,-58.10200119018555z"></path></g><g opacity="1" transform="matrix(1,0,0,1,0,0)"><path fill="rgb(116,24,0)" fill-opacity="1" d=" M160.9250030517578,-16.163000106811523 C160.7949981689453,-16.21299934387207 160.6750030517578,-16.273000717163086 160.5449981689453,-16.33300018310547 C158.53500366210938,-24.60300064086914 148.61500549316406,-44.83300018310547 133.86500549316406,-54.67300033569336 C121.45500183105469,-62.94300079345703 103.00499725341797,-68.3030014038086 82.17500305175781,-61.10300064086914 C75.32499694824219,-58.733001708984375 71.6050033569336,-56.01300048828125 70.04499816894531,-53.573001861572266 C69.49500274658203,-56.59299850463867 72.68499755859375,-60.952999114990234 83.03500366210938,-64.53299713134766 C103.86499786376953,-71.73300170898438 122.31500244140625,-66.37300109863281 134.72500610351562,-58.10300064086914 C154.0050048828125,-45.24300003051758 165.03500366210938,-14.61299991607666 160.9250030517578,-16.163000106811523z"></path></g></g><g style="display: block;" transform="matrix(1,0,0,1,256,255.99998474121094)" opacity="1"><g opacity="1" transform="matrix(1,0,0,1,0,0)"><path fill="rgb(255,237,182)" fill-opacity="1" d=" M-134.9250030517578,-55.01599884033203 C-122.51899719238281,-63.2859992980957 -103.09100341796875,-70.90499877929688 -82.12000274658203,-64.12999725341797 C-62.66699981689453,-57.845001220703125 -70.56600189208984,-43.86899948120117 -79.92500305175781,-47.61600112915039 C-95.83899688720703,-53.98699951171875 -118.72599792480469,-56.301998138427734 -137.4969940185547,-41.41600036621094 C-156.18699645996094,-26.594999313354492 -155.95599365234375,-16.420000076293945 -160.125,-15.029999732971191 C-167.0679931640625,-12.715999603271484 -154.21099853515625,-42.159000396728516 -134.9250030517578,-55.01599884033203z"></path></g><g opacity="1" transform="matrix(1,0,0,1,0,0)"><path fill="rgb(143,58,0)" fill-opacity="1" d=" M-134.9250030517578,-58.10200119018555 C-122.51899719238281,-66.37200164794922 -104.06800079345703,-71.7300033569336 -83.23899841308594,-64.52999877929688 C-62.4109992980957,-57.33000183105469 -70.56600189208984,-46.95500183105469 -79.92500305175781,-50.70199966430664 C-95.83899688720703,-57.073001861572266 -118.72599792480469,-59.38800048828125 -137.4969940185547,-44.50199890136719 C-156.18699645996094,-29.680999755859375 -157.01100158691406,-17.70199966430664 -161.125,-16.159000396728516 C-165.23899841308594,-14.616000175476074 -154.21099853515625,-45.244998931884766 -134.9250030517578,-58.10200119018555z"></path></g><g opacity="1" transform="matrix(1,0,0,1,0,0)"><path fill="rgb(116,24,0)" fill-opacity="1" d=" M-161.1280059814453,-16.163000106811523 C-160.9980010986328,-16.21299934387207 -160.8780059814453,-16.273000717163086 -160.7480010986328,-16.33300018310547 C-158.73800659179688,-24.60300064086914 -148.8179931640625,-44.83300018310547 -134.0679931640625,-54.67300033569336 C-121.65799713134766,-62.94300079345703 -103.20800018310547,-68.3030014038086 -82.37799835205078,-61.10300064086914 C-75.52799987792969,-58.733001708984375 -71.80799865722656,-56.01300048828125 -70.24800109863281,-53.573001861572266 C-69.697998046875,-56.59299850463867 -72.88800048828125,-60.952999114990234 -83.23799896240234,-64.53299713134766 C-104.06800079345703,-71.73300170898438 -122.51799774169922,-66.37300109863281 -134.92799377441406,-58.10300064086914 C-154.20799255371094,-45.24300003051758 -165.23800659179688,-14.61299991607666 -161.1280059814453,-16.163000106811523z"></path></g></g><g style="display: block;" transform="matrix(1,0,0,1,256,255.99998474121094)" opacity="1"><g opacity="1" transform="matrix(1,0,0,1,0,0)"><path fill="rgb(255,237,182)" fill-opacity="1" d=" M-57.483001708984375,112.08899688720703 C-60.21099853515625,113.05999755859375 -62.4640007019043,114.15699768066406 -62.50899887084961,117.46600341796875 C-62.57699966430664,122.41799926757812 -51.358001708984375,124.4219970703125 -38.362998962402344,125.33399963378906 C-29.139999389648438,125.98100280761719 -18.145000457763672,126.41999816894531 -7.392000198364258,126.0270004272461 C19.374000549316406,125.0479965209961 54.68000030517578,124.35399627685547 69.73600006103516,107.18499755859375 C84.79199981689453,90.01599884033203 77.81999969482422,60.45899963378906 69.91300201416016,61.80400085449219 C64.5,126.1760025024414 -50.6150016784668,109.64600372314453 -57.483001708984375,112.08899688720703z"></path></g><g opacity="1" transform="matrix(1,0,0,1,0,0)"><path fill="rgb(143,58,0)" fill-opacity="1" d=" M53.41699981689453,92.10700225830078 C31.333999633789062,118 -60.79999923706055,110.25 -60.79999923706055,116.1240005493164 C-60.79999923706055,119.45500183105469 -51.63999938964844,120.71600341796875 -39.03499984741211,121.60099792480469 C-30.089000701904297,122.22899627685547 -19.422000885009766,122.65499877929688 -8.991999626159668,122.27300262451172 C16.972000122070312,121.322998046875 51.22200012207031,120.6510009765625 65.8270034790039,103.99600219726562 C80.43199920654297,87.34100341796875 75.02400207519531,61.29199981689453 69.91300201416016,61.80400085449219 C64.802001953125,62.316001892089844 67.93699645996094,79.125 53.41699981689453,92.10700225830078z"></path></g><g opacity="1" transform="matrix(1,0,0,1,0,0)"><path fill="rgb(116,24,0)" fill-opacity="1" d=" M73.62000274658203,66.20899963378906 C67.28099822998047,66.56199645996094 68.72899627685547,81.90699768066406 54.20899963378906,94.89700317382812 C44.71900177001953,103.37699890136719 27.819000244140625,110.85700225830078 -4.181000232696533,113.31700134277344 C-31.201000213623047,115.38700103759766 -48.090999603271484,114.10700225830078 -54.750999450683594,116.47699737548828 C-56.441001892089844,117.0770034790039 -57.32099914550781,117.96700286865234 -57.750999450683594,118.90699768066406 C-63.75,116.59400177001953 -60.13100051879883,113.0270004272461 -57.48099899291992,112.08699798583984 C-50.82099914550781,109.71700286865234 -33.930999755859375,110.99700164794922 -6.921000003814697,108.927001953125 C25.07900047302246,106.46700286865234 41.98899841308594,98.98699951171875 51.479000091552734,90.49700164794922 C65.9990005493164,77.51699829101562 64.79900360107422,62.31700134277344 69.90899658203125,61.80699920654297 C71.28900146484375,61.66699981689453 72.75,63.53099822998047 73.62000274658203,66.20899963378906z"></path></g></g><g style="display: block;" transform="matrix(1,0,0,1,256,255.99998474121094)" opacity="1"><g opacity="1" transform="matrix(1,0,0,1,0,0)"><g opacity="1" transform="matrix(1,0,0,1,0,0)"><path fill="rgb(255,237,182)" fill-opacity="1" d=" M-98.06400299072266,16.93000030517578 C-102.93099975585938,17.062000274658203 -108.83100128173828,16.514999389648438 -120.03099822998047,19.584999084472656 C-125.5510025024414,21.097999572753906 -128.3979949951172,20.851999282836914 -129.6739959716797,18.680999755859375 C-130.63800048828125,17.040000915527344 -131.16200256347656,11.725000381469727 -125.20700073242188,8.105999946594238 C-110.87300109863281,-0.6050000190734863 -76.71600341796875,-12.144000053405762 -58.89400100708008,-1.6430000066757202 C-56.17300033569336,-0.03999999910593033 -43.400001525878906,7.78000020980835 -51.07400131225586,12.270999908447266 C-58.25299835205078,16.472999572753906 -78.18699645996094,16.391000747680664 -98.06400299072266,16.93000030517578z"></path></g><g opacity="1" transform="matrix(1,0,0,1,0,0)"><g opacity="1" transform="matrix(1,0,0,1,0,0)"><path fill="rgb(255,237,182)" fill-opacity="1" d=" M-92.81999969482422,21.35300064086914 C-93.57499694824219,19.111000061035156 -94.94999694824219,16.51300048828125 -98.3239974975586,16.950000762939453 C-100.04499816894531,12.852999687194824 -77.92500305175781,-9.267999649047852 -60.6870002746582,-2.7690000534057617 C-42.40999984741211,4.122000217437744 -44.321998596191406,27.690000534057617 -56.01900100708008,35.154998779296875 C-66.27899932861328,41.70199966430664 -86.06900024414062,41.40999984741211 -92.81999969482422,21.35300064086914z"></path></g><g opacity="1" transform="matrix(1,0,0,1,0,0)"><path fill="rgb(143,58,0)" fill-opacity="1" d=" M-90.74299621582031,16.31999969482422 C-90.95800018310547,14.894000053405762 -92.427001953125,11.920000076293945 -96.0260009765625,12.104999542236328 C-104.44100189208984,12.536999702453613 -80.88500213623047,-8.413999557495117 -59.347999572753906,-2.6760001182556152 C-42.900001525878906,4.732999801635742 -45.79499816894531,22.81800079345703 -56.266998291015625,29.856000900268555 C-66.2699966430664,36.57899856567383 -84.3489990234375,35.38800048828125 -90.74299621582031,16.31999969482422z"></path></g></g><g opacity="1" transform="matrix(1,0,0,1,0,0)"><g opacity="1" transform="matrix(1,0,0,1,0,0)"><path fill="rgb(143,58,0)" fill-opacity="1" d=" M-94.64800262451172,12.199000358581543 C-99.36699676513672,12.041000366210938 -109.56999969482422,12.281000137329102 -119.80599975585938,15.36400032043457 C-125.12799835205078,16.966999053955078 -128.21400451660156,16.694000244140625 -128.8260040283203,14.531000137329102 C-129.33200073242188,12.739999771118164 -99.33799743652344,-8.791999816894531 -59.347999572753906,-2.6760001182556152 C-54.334999084472656,0.27799999713897705 -45.61800003051758,9.121999740600586 -50.051998138427734,8.76200008392334 C-64.06600189208984,7.623000144958496 -92.89299774169922,12.258000373840332 -94.64800262451172,12.199000358581543z"></path></g><g opacity="1" transform="matrix(1,0,0,1,0,0)"><path fill="rgb(116,24,0)" fill-opacity="1" d=" M-122.72599792480469,11.210000038146973 C-125.84100341796875,13.314000129699707 -127.62999725341797,13.894000053405762 -128.4040069580078,15.361000061035156 C-129.98199462890625,13.217000007629395 -128.39300537109375,9.847000122070312 -122.61699676513672,6.335999965667725 C-108.7020034790039,-2.121999979019165 -76.91899871826172,-12.383000373840332 -59.345001220703125,-2.678999900817871 C-48.65299987792969,3.2260000705718994 -48.20399856567383,7.914000034332275 -47.733001708984375,12.972999572753906 C-60.95100021362305,-13.352999687194824 -109.6760025024414,2.3959999084472656 -122.72599792480469,11.210000038146973z"></path></g></g></g></g><g style="display: block;" transform="matrix(1,0,0,1,256,255.99998474121094)" opacity="1"><g opacity="1" transform="matrix(1,0,0,1,0,0)"><g opacity="1" transform="matrix(1,0,0,1,0,0)"><path fill="rgb(255,237,182)" fill-opacity="1" d=" M76.10700225830078,16.93000030517578 C71.23999786376953,17.062000274658203 65.33999633789062,16.514999389648438 54.13999938964844,19.584999084472656 C48.619998931884766,21.097999572753906 45.77299880981445,20.851999282836914 44.49700164794922,18.680999755859375 C43.53300094604492,17.040000915527344 43.00899887084961,11.725000381469727 48.9640007019043,8.105999946594238 C63.29800033569336,-0.6050000190734863 97.45500183105469,-12.144000053405762 115.2770004272461,-1.6430000066757202 C117.99800109863281,-0.03999999910593033 130.77099609375,7.78000020980835 123.09700012207031,12.270999908447266 C115.91799926757812,16.472999572753906 95.98400115966797,16.391000747680664 76.10700225830078,16.93000030517578z"></path></g><g opacity="1" transform="matrix(1,0,0,1,0,0)"><g opacity="1" transform="matrix(1,0,0,1,0,0)"><path fill="rgb(255,237,182)" fill-opacity="1" d=" M81.35099792480469,21.35300064086914 C80.59600067138672,19.111000061035156 79.22200012207031,16.51300048828125 75.8479995727539,16.950000762939453 C74.12699890136719,12.852999687194824 96.24600219726562,-9.267999649047852 113.48400115966797,-2.7690000534057617 C131.76100158691406,4.122000217437744 129.8489990234375,27.690000534057617 118.1520004272461,35.154998779296875 C107.89199829101562,41.70199966430664 88.10199737548828,41.40999984741211 81.35099792480469,21.35300064086914z"></path></g><g opacity="1" transform="matrix(1,0,0,1,0,0)"><path fill="rgb(143,58,0)" fill-opacity="1" d=" M83.4280014038086,16.31999969482422 C83.21299743652344,14.894000053405762 81.74400329589844,11.920000076293945 78.1449966430664,12.104999542236328 C69.7300033569336,12.536999702453613 93.28700256347656,-8.413999557495117 114.8239974975586,-2.6760001182556152 C131.27200317382812,4.732999801635742 128.37600708007812,22.81800079345703 117.90399932861328,29.856000900268555 C107.9010009765625,36.57899856567383 89.8219985961914,35.38800048828125 83.4280014038086,16.31999969482422z"></path></g></g><g opacity="1" transform="matrix(1,0,0,1,0,0)"><g opacity="1" transform="matrix(1,0,0,1,0,0)"><path fill="rgb(143,58,0)" fill-opacity="1" d=" M79.52300262451172,12.199000358581543 C74.80400085449219,12.041000366210938 64.60199737548828,12.281000137329102 54.36600112915039,15.36400032043457 C49.04399871826172,16.966999053955078 45.957000732421875,16.694000244140625 45.345001220703125,14.531000137329102 C44.8390007019043,12.739999771118164 74.83399963378906,-8.791999816894531 114.8239974975586,-2.6760001182556152 C119.83699798583984,0.27799999713897705 128.55299377441406,9.121999740600586 124.11900329589844,8.76200008392334 C110.1050033569336,7.623000144958496 81.27799987792969,12.258000373840332 79.52300262451172,12.199000358581543z"></path></g><g opacity="1" transform="matrix(1,0,0,1,0,0)"><path fill="rgb(116,24,0)" fill-opacity="1" d=" M51.44499969482422,11.210000038146973 C48.33000183105469,13.314000129699707 46.54199981689453,13.894000053405762 45.768001556396484,15.361000061035156 C44.189998626708984,13.217000007629395 45.77799987792969,9.847000122070312 51.55400085449219,6.335999965667725 C65.46900177001953,-2.121999979019165 97.25199890136719,-12.383000373840332 114.82599639892578,-2.678999900817871 C125.51799774169922,3.2260000705718994 125.96700286865234,7.914000034332275 126.43800354003906,12.972999572753906 C113.22000122070312,-13.352999687194824 64.49500274658203,2.3959999084472656 51.44499969482422,11.210000038146973z"></path></g></g></g></g></g></svg>