<svg xmlns="http://www.w3.org/2000/svg" viewBox="0 0 512 512" width="512" height="512" style="width: 100%; height: 100%; transform: translate3d(0,0,0);" preserveAspectRatio="xMidYMid meet"><defs><clipPath id="__lottie_element_10317"><rect width="512" height="512" x="0" y="0"></rect></clipPath><clipPath id="__lottie_element_10319"><path d="M0,0 L127,0 L127,125 L0,125z"></path></clipPath><clipPath id="__lottie_element_10323"><path d="M0,0 L127,0 L127,125 L0,125z"></path></clipPath><radialGradient id="__lottie_element_10330" spreadMethod="pad" gradientUnits="userSpaceOnUse"><stop></stop><stop></stop><stop></stop></radialGradient><radialGradient id="__lottie_element_10331" spreadMethod="pad" gradientUnits="userSpaceOnUse"><stop></stop><stop></stop><stop></stop></radialGradient><radialGradient id="__lottie_element_10337" spreadMethod="pad" gradientUnits="userSpaceOnUse"><stop></stop><stop></stop><stop></stop></radialGradient><radialGradient id="__lottie_element_10338" spreadMethod="pad" gradientUnits="userSpaceOnUse"><stop></stop><stop></stop><stop></stop></radialGradient><clipPath id="__lottie_element_10340"><path d="M0,0 L127,0 L127,125 L0,125z"></path></clipPath><radialGradient id="__lottie_element_10347" spreadMethod="pad" gradientUnits="userSpaceOnUse"><stop></stop><stop></stop><stop></stop></radialGradient><radialGradient id="__lottie_element_10348" spreadMethod="pad" gradientUnits="userSpaceOnUse"><stop></stop><stop></stop><stop></stop></radialGradient><radialGradient id="__lottie_element_10354" spreadMethod="pad" gradientUnits="userSpaceOnUse"><stop></stop><stop></stop><stop></stop></radialGradient><radialGradient id="__lottie_element_10355" spreadMethod="pad" gradientUnits="userSpaceOnUse"><stop></stop><stop></stop><stop></stop></radialGradient><clipPath id="__lottie_element_10357"><path d="M0,0 L127,0 L127,125 L0,125z"></path></clipPath><radialGradient id="__lottie_element_10364" spreadMethod="pad" gradientUnits="userSpaceOnUse"><stop></stop><stop></stop><stop></stop></radialGradient><radialGradient id="__lottie_element_10365" spreadMethod="pad" gradientUnits="userSpaceOnUse"><stop></stop><stop></stop><stop></stop></radialGradient><radialGradient id="__lottie_element_10371" spreadMethod="pad" gradientUnits="userSpaceOnUse"><stop></stop><stop></stop><stop></stop></radialGradient><radialGradient id="__lottie_element_10372" spreadMethod="pad" gradientUnits="userSpaceOnUse"><stop></stop><stop></stop><stop></stop></radialGradient><clipPath id="__lottie_element_10374"><path d="M0,0 L127,0 L127,125 L0,125z"></path></clipPath><radialGradient id="__lottie_element_10381" spreadMethod="pad" gradientUnits="userSpaceOnUse"><stop></stop><stop></stop><stop></stop></radialGradient><radialGradient id="__lottie_element_10382" spreadMethod="pad" gradientUnits="userSpaceOnUse"><stop></stop><stop></stop><stop></stop></radialGradient><radialGradient id="__lottie_element_10388" spreadMethod="pad" gradientUnits="userSpaceOnUse"><stop></stop><stop></stop><stop></stop></radialGradient><radialGradient id="__lottie_element_10389" spreadMethod="pad" gradientUnits="userSpaceOnUse"><stop></stop><stop></stop><stop></stop></radialGradient><clipPath id="__lottie_element_10391"><path d="M0,0 L127,0 L127,125 L0,125z"></path></clipPath><clipPath id="__lottie_element_10395"><path d="M0,0 L127,0 L127,125 L0,125z"></path></clipPath><radialGradient id="__lottie_element_10402" spreadMethod="pad" gradientUnits="userSpaceOnUse"><stop></stop><stop></stop><stop></stop></radialGradient><radialGradient id="__lottie_element_10403" spreadMethod="pad" gradientUnits="userSpaceOnUse"><stop></stop><stop></stop><stop></stop></radialGradient><radialGradient id="__lottie_element_10409" spreadMethod="pad" gradientUnits="userSpaceOnUse"><stop></stop><stop></stop><stop></stop></radialGradient><radialGradient id="__lottie_element_10410" spreadMethod="pad" gradientUnits="userSpaceOnUse"><stop></stop><stop></stop><stop></stop></radialGradient><clipPath id="__lottie_element_10412"><path d="M0,0 L127,0 L127,125 L0,125z"></path></clipPath><radialGradient id="__lottie_element_10419" spreadMethod="pad" gradientUnits="userSpaceOnUse"><stop></stop><stop></stop><stop></stop></radialGradient><radialGradient id="__lottie_element_10420" spreadMethod="pad" gradientUnits="userSpaceOnUse"><stop></stop><stop></stop><stop></stop></radialGradient><radialGradient id="__lottie_element_10426" spreadMethod="pad" gradientUnits="userSpaceOnUse"><stop></stop><stop></stop><stop></stop></radialGradient><radialGradient id="__lottie_element_10427" spreadMethod="pad" gradientUnits="userSpaceOnUse"><stop></stop><stop></stop><stop></stop></radialGradient><clipPath id="__lottie_element_10429"><path d="M0,0 L127,0 L127,125 L0,125z"></path></clipPath><radialGradient id="__lottie_element_10436" spreadMethod="pad" gradientUnits="userSpaceOnUse"><stop></stop><stop></stop><stop></stop></radialGradient><radialGradient id="__lottie_element_10437" spreadMethod="pad" gradientUnits="userSpaceOnUse"><stop></stop><stop></stop><stop></stop></radialGradient><radialGradient id="__lottie_element_10443" spreadMethod="pad" gradientUnits="userSpaceOnUse"><stop></stop><stop></stop><stop></stop></radialGradient><radialGradient id="__lottie_element_10444" spreadMethod="pad" gradientUnits="userSpaceOnUse"><stop></stop><stop></stop><stop></stop></radialGradient><clipPath id="__lottie_element_10446"><path d="M0,0 L127,0 L127,125 L0,125z"></path></clipPath><radialGradient id="__lottie_element_10453" spreadMethod="pad" gradientUnits="userSpaceOnUse"><stop></stop><stop></stop><stop></stop></radialGradient><radialGradient id="__lottie_element_10454" spreadMethod="pad" gradientUnits="userSpaceOnUse"><stop></stop><stop></stop><stop></stop></radialGradient><radialGradient id="__lottie_element_10460" spreadMethod="pad" gradientUnits="userSpaceOnUse"><stop></stop><stop></stop><stop></stop></radialGradient><radialGradient id="__lottie_element_10461" spreadMethod="pad" gradientUnits="userSpaceOnUse"><stop></stop><stop></stop><stop></stop></radialGradient><clipPath id="__lottie_element_10463"><path d="M0,0 L127,0 L127,125 L0,125z"></path></clipPath><clipPath id="__lottie_element_10467"><path d="M0,0 L127,0 L127,125 L0,125z"></path></clipPath><radialGradient id="__lottie_element_10474" spreadMethod="pad" gradientUnits="userSpaceOnUse"><stop></stop><stop></stop><stop></stop></radialGradient><radialGradient id="__lottie_element_10475" spreadMethod="pad" gradientUnits="userSpaceOnUse"><stop></stop><stop></stop><stop></stop></radialGradient><radialGradient id="__lottie_element_10481" spreadMethod="pad" gradientUnits="userSpaceOnUse"><stop></stop><stop></stop><stop></stop></radialGradient><radialGradient id="__lottie_element_10482" spreadMethod="pad" gradientUnits="userSpaceOnUse"><stop></stop><stop></stop><stop></stop></radialGradient><clipPath id="__lottie_element_10484"><path d="M0,0 L127,0 L127,125 L0,125z"></path></clipPath><radialGradient id="__lottie_element_10491" spreadMethod="pad" gradientUnits="userSpaceOnUse"><stop></stop><stop></stop><stop></stop></radialGradient><radialGradient id="__lottie_element_10492" spreadMethod="pad" gradientUnits="userSpaceOnUse"><stop></stop><stop></stop><stop></stop></radialGradient><radialGradient id="__lottie_element_10498" spreadMethod="pad" gradientUnits="userSpaceOnUse"><stop></stop><stop></stop><stop></stop></radialGradient><radialGradient id="__lottie_element_10499" spreadMethod="pad" gradientUnits="userSpaceOnUse"><stop></stop><stop></stop><stop></stop></radialGradient><clipPath id="__lottie_element_10501"><path d="M0,0 L127,0 L127,125 L0,125z"></path></clipPath><radialGradient id="__lottie_element_10508" spreadMethod="pad" gradientUnits="userSpaceOnUse"><stop></stop><stop></stop><stop></stop></radialGradient><radialGradient id="__lottie_element_10509" spreadMethod="pad" gradientUnits="userSpaceOnUse"><stop></stop><stop></stop><stop></stop></radialGradient><radialGradient id="__lottie_element_10515" spreadMethod="pad" gradientUnits="userSpaceOnUse"><stop></stop><stop></stop><stop></stop></radialGradient><radialGradient id="__lottie_element_10516" spreadMethod="pad" gradientUnits="userSpaceOnUse"><stop></stop><stop></stop><stop></stop></radialGradient><clipPath id="__lottie_element_10518"><path d="M0,0 L127,0 L127,125 L0,125z"></path></clipPath><radialGradient id="__lottie_element_10525" spreadMethod="pad" gradientUnits="userSpaceOnUse" cx="164" cy="108" r="36.41906902881767" fx="164" fy="108"><stop offset="0%" stop-color="rgb(255,255,255)" stop-opacity="0.25"></stop><stop offset="46%" stop-color="rgb(236,142,140)" stop-opacity="0.375"></stop><stop offset="81%" stop-color="rgb(217,28,25)" stop-opacity="0.5"></stop></radialGradient><radialGradient id="__lottie_element_10526" spreadMethod="pad" gradientUnits="userSpaceOnUse" cx="106" cy="107" r="36.41906902881767" fx="106" fy="107"><stop offset="0%" stop-color="rgb(255,255,255)" stop-opacity="0.25"></stop><stop offset="46%" stop-color="rgb(236,142,140)" stop-opacity="0.375"></stop><stop offset="81%" stop-color="rgb(217,28,25)" stop-opacity="0.5"></stop></radialGradient><radialGradient id="__lottie_element_10532" spreadMethod="pad" gradientUnits="userSpaceOnUse"><stop></stop><stop></stop><stop></stop></radialGradient><radialGradient id="__lottie_element_10533" spreadMethod="pad" gradientUnits="userSpaceOnUse"><stop></stop><stop></stop><stop></stop></radialGradient><clipPath id="__lottie_element_10535"><path d="M0,0 L127,0 L127,125 L0,125z"></path></clipPath><clipPath id="__lottie_element_10539"><path d="M0,0 L127,0 L127,125 L0,125z"></path></clipPath><radialGradient id="__lottie_element_10546" spreadMethod="pad" gradientUnits="userSpaceOnUse"><stop></stop><stop></stop><stop></stop></radialGradient><radialGradient id="__lottie_element_10547" spreadMethod="pad" gradientUnits="userSpaceOnUse"><stop></stop><stop></stop><stop></stop></radialGradient><radialGradient id="__lottie_element_10553" spreadMethod="pad" gradientUnits="userSpaceOnUse"><stop></stop><stop></stop><stop></stop></radialGradient><radialGradient id="__lottie_element_10554" spreadMethod="pad" gradientUnits="userSpaceOnUse"><stop></stop><stop></stop><stop></stop></radialGradient><clipPath id="__lottie_element_10556"><path d="M0,0 L127,0 L127,125 L0,125z"></path></clipPath><radialGradient id="__lottie_element_10563" spreadMethod="pad" gradientUnits="userSpaceOnUse"><stop></stop><stop></stop><stop></stop></radialGradient><radialGradient id="__lottie_element_10564" spreadMethod="pad" gradientUnits="userSpaceOnUse"><stop></stop><stop></stop><stop></stop></radialGradient><radialGradient id="__lottie_element_10570" spreadMethod="pad" gradientUnits="userSpaceOnUse"><stop></stop><stop></stop><stop></stop></radialGradient><radialGradient id="__lottie_element_10571" spreadMethod="pad" gradientUnits="userSpaceOnUse"><stop></stop><stop></stop><stop></stop></radialGradient><clipPath id="__lottie_element_10573"><path d="M0,0 L127,0 L127,125 L0,125z"></path></clipPath><radialGradient id="__lottie_element_10580" spreadMethod="pad" gradientUnits="userSpaceOnUse"><stop></stop><stop></stop><stop></stop></radialGradient><radialGradient id="__lottie_element_10581" spreadMethod="pad" gradientUnits="userSpaceOnUse"><stop></stop><stop></stop><stop></stop></radialGradient><radialGradient id="__lottie_element_10587" spreadMethod="pad" gradientUnits="userSpaceOnUse"><stop></stop><stop></stop><stop></stop></radialGradient><radialGradient id="__lottie_element_10588" spreadMethod="pad" gradientUnits="userSpaceOnUse"><stop></stop><stop></stop><stop></stop></radialGradient><clipPath id="__lottie_element_10590"><path d="M0,0 L127,0 L127,125 L0,125z"></path></clipPath><radialGradient id="__lottie_element_10597" spreadMethod="pad" gradientUnits="userSpaceOnUse"><stop></stop><stop></stop><stop></stop></radialGradient><radialGradient id="__lottie_element_10598" spreadMethod="pad" gradientUnits="userSpaceOnUse"><stop></stop><stop></stop><stop></stop></radialGradient><radialGradient id="__lottie_element_10604" spreadMethod="pad" gradientUnits="userSpaceOnUse"><stop></stop><stop></stop><stop></stop></radialGradient><radialGradient id="__lottie_element_10605" spreadMethod="pad" gradientUnits="userSpaceOnUse"><stop></stop><stop></stop><stop></stop></radialGradient><clipPath id="__lottie_element_10607"><path d="M0,0 L127,0 L127,125 L0,125z"></path></clipPath><clipPath id="__lottie_element_10611"><path d="M0,0 L127,0 L127,125 L0,125z"></path></clipPath><radialGradient id="__lottie_element_10618" spreadMethod="pad" gradientUnits="userSpaceOnUse"><stop></stop><stop></stop><stop></stop></radialGradient><radialGradient id="__lottie_element_10619" spreadMethod="pad" gradientUnits="userSpaceOnUse"><stop></stop><stop></stop><stop></stop></radialGradient><radialGradient id="__lottie_element_10625" spreadMethod="pad" gradientUnits="userSpaceOnUse"><stop></stop><stop></stop><stop></stop></radialGradient><radialGradient id="__lottie_element_10626" spreadMethod="pad" gradientUnits="userSpaceOnUse"><stop></stop><stop></stop><stop></stop></radialGradient><clipPath id="__lottie_element_10628"><path d="M0,0 L127,0 L127,125 L0,125z"></path></clipPath><radialGradient id="__lottie_element_10635" spreadMethod="pad" gradientUnits="userSpaceOnUse"><stop></stop><stop></stop><stop></stop></radialGradient><radialGradient id="__lottie_element_10636" spreadMethod="pad" gradientUnits="userSpaceOnUse"><stop></stop><stop></stop><stop></stop></radialGradient><radialGradient id="__lottie_element_10642" spreadMethod="pad" gradientUnits="userSpaceOnUse"><stop></stop><stop></stop><stop></stop></radialGradient><radialGradient id="__lottie_element_10643" spreadMethod="pad" gradientUnits="userSpaceOnUse"><stop></stop><stop></stop><stop></stop></radialGradient><clipPath id="__lottie_element_10645"><path d="M0,0 L127,0 L127,125 L0,125z"></path></clipPath><radialGradient id="__lottie_element_10652" spreadMethod="pad" gradientUnits="userSpaceOnUse"><stop></stop><stop></stop><stop></stop></radialGradient><radialGradient id="__lottie_element_10653" spreadMethod="pad" gradientUnits="userSpaceOnUse"><stop></stop><stop></stop><stop></stop></radialGradient><radialGradient id="__lottie_element_10659" spreadMethod="pad" gradientUnits="userSpaceOnUse"><stop></stop><stop></stop><stop></stop></radialGradient><radialGradient id="__lottie_element_10660" spreadMethod="pad" gradientUnits="userSpaceOnUse"><stop></stop><stop></stop><stop></stop></radialGradient><clipPath id="__lottie_element_10662"><path d="M0,0 L127,0 L127,125 L0,125z"></path></clipPath><radialGradient id="__lottie_element_10669" spreadMethod="pad" gradientUnits="userSpaceOnUse" cx="164" cy="108" r="36.41906902881767" fx="164" fy="108"><stop offset="0%" stop-color="rgb(255,255,255)" stop-opacity="0.25"></stop><stop offset="46%" stop-color="rgb(236,142,140)" stop-opacity="0.375"></stop><stop offset="81%" stop-color="rgb(217,28,25)" stop-opacity="0.5"></stop></radialGradient><radialGradient id="__lottie_element_10670" spreadMethod="pad" gradientUnits="userSpaceOnUse" cx="106" cy="107" r="36.41906902881767" fx="106" fy="107"><stop offset="0%" stop-color="rgb(255,255,255)" stop-opacity="0.25"></stop><stop offset="46%" stop-color="rgb(236,142,140)" stop-opacity="0.375"></stop><stop offset="81%" stop-color="rgb(217,28,25)" stop-opacity="0.5"></stop></radialGradient><radialGradient id="__lottie_element_10676" spreadMethod="pad" gradientUnits="userSpaceOnUse"><stop></stop><stop></stop><stop></stop></radialGradient><radialGradient id="__lottie_element_10677" spreadMethod="pad" gradientUnits="userSpaceOnUse"><stop></stop><stop></stop><stop></stop></radialGradient><clipPath id="__lottie_element_10679"><path d="M0,0 L127,0 L127,125 L0,125z"></path></clipPath><clipPath id="__lottie_element_10683"><path d="M0,0 L127,0 L127,125 L0,125z"></path></clipPath><radialGradient id="__lottie_element_10690" spreadMethod="pad" gradientUnits="userSpaceOnUse"><stop></stop><stop></stop><stop></stop></radialGradient><radialGradient id="__lottie_element_10691" spreadMethod="pad" gradientUnits="userSpaceOnUse"><stop></stop><stop></stop><stop></stop></radialGradient><radialGradient id="__lottie_element_10697" spreadMethod="pad" gradientUnits="userSpaceOnUse"><stop></stop><stop></stop><stop></stop></radialGradient><radialGradient id="__lottie_element_10698" spreadMethod="pad" gradientUnits="userSpaceOnUse"><stop></stop><stop></stop><stop></stop></radialGradient><clipPath id="__lottie_element_10700"><path d="M0,0 L127,0 L127,125 L0,125z"></path></clipPath><radialGradient id="__lottie_element_10707" spreadMethod="pad" gradientUnits="userSpaceOnUse"><stop></stop><stop></stop><stop></stop></radialGradient><radialGradient id="__lottie_element_10708" spreadMethod="pad" gradientUnits="userSpaceOnUse"><stop></stop><stop></stop><stop></stop></radialGradient><radialGradient id="__lottie_element_10714" spreadMethod="pad" gradientUnits="userSpaceOnUse"><stop></stop><stop></stop><stop></stop></radialGradient><radialGradient id="__lottie_element_10715" spreadMethod="pad" gradientUnits="userSpaceOnUse"><stop></stop><stop></stop><stop></stop></radialGradient><clipPath id="__lottie_element_10717"><path d="M0,0 L127,0 L127,125 L0,125z"></path></clipPath><radialGradient id="__lottie_element_10724" spreadMethod="pad" gradientUnits="userSpaceOnUse"><stop></stop><stop></stop><stop></stop></radialGradient><radialGradient id="__lottie_element_10725" spreadMethod="pad" gradientUnits="userSpaceOnUse"><stop></stop><stop></stop><stop></stop></radialGradient><radialGradient id="__lottie_element_10731" spreadMethod="pad" gradientUnits="userSpaceOnUse"><stop></stop><stop></stop><stop></stop></radialGradient><radialGradient id="__lottie_element_10732" spreadMethod="pad" gradientUnits="userSpaceOnUse"><stop></stop><stop></stop><stop></stop></radialGradient><clipPath id="__lottie_element_10734"><path d="M0,0 L127,0 L127,125 L0,125z"></path></clipPath><radialGradient id="__lottie_element_10741" spreadMethod="pad" gradientUnits="userSpaceOnUse"><stop></stop><stop></stop><stop></stop></radialGradient><radialGradient id="__lottie_element_10742" spreadMethod="pad" gradientUnits="userSpaceOnUse"><stop></stop><stop></stop><stop></stop></radialGradient><radialGradient id="__lottie_element_10748" spreadMethod="pad" gradientUnits="userSpaceOnUse"><stop></stop><stop></stop><stop></stop></radialGradient><radialGradient id="__lottie_element_10749" spreadMethod="pad" gradientUnits="userSpaceOnUse"><stop></stop><stop></stop><stop></stop></radialGradient><clipPath id="__lottie_element_10751"><path d="M0,0 L127,0 L127,125 L0,125z"></path></clipPath><clipPath id="__lottie_element_10755"><path d="M0,0 L127,0 L127,125 L0,125z"></path></clipPath><radialGradient id="__lottie_element_10762" spreadMethod="pad" gradientUnits="userSpaceOnUse"><stop></stop><stop></stop><stop></stop></radialGradient><radialGradient id="__lottie_element_10763" spreadMethod="pad" gradientUnits="userSpaceOnUse"><stop></stop><stop></stop><stop></stop></radialGradient><radialGradient id="__lottie_element_10769" spreadMethod="pad" gradientUnits="userSpaceOnUse"><stop></stop><stop></stop><stop></stop></radialGradient><radialGradient id="__lottie_element_10770" spreadMethod="pad" gradientUnits="userSpaceOnUse"><stop></stop><stop></stop><stop></stop></radialGradient><clipPath id="__lottie_element_10772"><path d="M0,0 L127,0 L127,125 L0,125z"></path></clipPath><radialGradient id="__lottie_element_10779" spreadMethod="pad" gradientUnits="userSpaceOnUse"><stop></stop><stop></stop><stop></stop></radialGradient><radialGradient id="__lottie_element_10780" spreadMethod="pad" gradientUnits="userSpaceOnUse"><stop></stop><stop></stop><stop></stop></radialGradient><radialGradient id="__lottie_element_10786" spreadMethod="pad" gradientUnits="userSpaceOnUse"><stop></stop><stop></stop><stop></stop></radialGradient><radialGradient id="__lottie_element_10787" spreadMethod="pad" gradientUnits="userSpaceOnUse"><stop></stop><stop></stop><stop></stop></radialGradient><clipPath id="__lottie_element_10789"><path d="M0,0 L127,0 L127,125 L0,125z"></path></clipPath><radialGradient id="__lottie_element_10796" spreadMethod="pad" gradientUnits="userSpaceOnUse"><stop></stop><stop></stop><stop></stop></radialGradient><radialGradient id="__lottie_element_10797" spreadMethod="pad" gradientUnits="userSpaceOnUse"><stop></stop><stop></stop><stop></stop></radialGradient><radialGradient id="__lottie_element_10803" spreadMethod="pad" gradientUnits="userSpaceOnUse"><stop></stop><stop></stop><stop></stop></radialGradient><radialGradient id="__lottie_element_10804" spreadMethod="pad" gradientUnits="userSpaceOnUse"><stop></stop><stop></stop><stop></stop></radialGradient><clipPath id="__lottie_element_10806"><path d="M0,0 L127,0 L127,125 L0,125z"></path></clipPath><radialGradient id="__lottie_element_10813" spreadMethod="pad" gradientUnits="userSpaceOnUse" cx="164" cy="108" r="36.41906902881767" fx="164" fy="108"><stop offset="0%" stop-color="rgb(255,255,255)" stop-opacity="0.25"></stop><stop offset="46%" stop-color="rgb(236,142,140)" stop-opacity="0.375"></stop><stop offset="81%" stop-color="rgb(217,28,25)" stop-opacity="0.5"></stop></radialGradient><radialGradient id="__lottie_element_10814" spreadMethod="pad" gradientUnits="userSpaceOnUse" cx="106" cy="107" r="36.41906902881767" fx="106" fy="107"><stop offset="0%" stop-color="rgb(255,255,255)" stop-opacity="0.25"></stop><stop offset="46%" stop-color="rgb(236,142,140)" stop-opacity="0.375"></stop><stop offset="81%" stop-color="rgb(217,28,25)" stop-opacity="0.5"></stop></radialGradient><radialGradient id="__lottie_element_10820" spreadMethod="pad" gradientUnits="userSpaceOnUse"><stop></stop><stop></stop><stop></stop></radialGradient><radialGradient id="__lottie_element_10821" spreadMethod="pad" gradientUnits="userSpaceOnUse"><stop></stop><stop></stop><stop></stop></radialGradient></defs><g clip-path="url(#__lottie_element_10317)"><g style="display: block;" transform="matrix(1,0,0,1,256,256)" opacity="1"><g opacity="0.1" transform="matrix(1,0,0,1,0,0)"><path fill="rgb(0,0,0)" fill-opacity="1" d=" M196.6510009765625,6.381999969482422 C196.6510009765625,114.64299774169922 108.88700103759766,202.406005859375 0.6259999871253967,202.406005859375 C-107.63500213623047,202.406005859375 -195.3979949951172,114.64299774169922 -195.3979949951172,6.381999969482422 C-195.3979949951172,-101.87899780273438 -107.63500213623047,-189.64300537109375 0.6259999871253967,-189.64300537109375 C108.88700103759766,-189.64300537109375 196.6510009765625,-101.87899780273438 196.6510009765625,6.381999969482422z"></path></g><g opacity="1" transform="matrix(1,0,0,1,0,0)"><path fill="rgb(255,177,57)" fill-opacity="1" d=" M189.5019989013672,-8.618000030517578 C189.5019989013672,95.69499969482422 104.93900299072266,180.2570037841797 0.6259999871253967,180.2570037841797 C-103.68699645996094,180.2570037841797 -188.24899291992188,95.69499969482422 -188.24899291992188,-8.618000030517578 C-188.24899291992188,-112.93099975585938 -103.68699645996094,-197.49400329589844 0.6259999871253967,-197.49400329589844 C104.93900299072266,-197.49400329589844 189.5019989013672,-112.93099975585938 189.5019989013672,-8.618000030517578z"></path><path stroke-linecap="butt" stroke-linejoin="miter" fill-opacity="0" stroke-miterlimit="10" stroke="rgb(247,126,65)" stroke-opacity="1" stroke-width="8" d=" M189.5019989013672,-8.618000030517578 C189.5019989013672,95.69499969482422 104.93900299072266,180.2570037841797 0.6259999871253967,180.2570037841797 C-103.68699645996094,180.2570037841797 -188.24899291992188,95.69499969482422 -188.24899291992188,-8.618000030517578 C-188.24899291992188,-112.93099975585938 -103.68699645996094,-197.49400329589844 0.6259999871253967,-197.49400329589844 C104.93900299072266,-197.49400329589844 189.5019989013672,-112.93099975585938 189.5019989013672,-8.618000030517578z"></path></g><g opacity="1" transform="matrix(1,0,0,1,0,0)"><path fill="rgb(255,209,64)" fill-opacity="1" d=" M169.0330047607422,-7.906000137329102 C167.5760040283203,87.12200164794922 91.02200317382812,163.0030059814453 -1.9559999704360962,161.5780029296875 C-94.93399810791016,160.1529998779297 -169.12600708007812,81.96299743652344 -167.6699981689453,-13.065999984741211 C-166.21400451660156,-108.09500122070312 -89.65899658203125,-183.97500610351562 3.319000005722046,-182.5500030517578 C96.2969970703125,-181.125 170.49000549316406,-102.93499755859375 169.0330047607422,-7.906000137329102z"></path></g><g opacity="0.9" transform="matrix(1,0,0,1,0,0)"><path fill="rgb(255,222,115)" fill-opacity="1" d=" M149.8939971923828,-51.047000885009766 C149.8939971923828,21.59600067138672 83.06400299072266,-35.86800003051758 0.6259999871253967,-35.86800003051758 C-81.81199645996094,-35.86800003051758 -148.64100646972656,21.59600067138672 -148.64100646972656,-51.047000885009766 C-148.64100646972656,-123.69000244140625 -81.81199645996094,-182.57899475097656 0.6259999871253967,-182.57899475097656 C83.06400299072266,-182.57899475097656 149.8939971923828,-123.69000244140625 149.8939971923828,-51.047000885009766z"></path></g><g opacity="1" transform="matrix(1,0,0,1,0,0)"><g opacity="1" transform="matrix(1,0,0,1,0,0)"><path stroke-linecap="round" stroke-linejoin="round" fill-opacity="0" stroke="rgb(255,255,255)" stroke-opacity="1" stroke-width="6" d=" M36.999000549316406,-178.36000061035156 C38.5369987487793,-178.02499389648438 40.13199996948242,-177.65499877929688 41.777000427246094,-177.24899291992188"></path></g><g opacity="1" transform="matrix(1,0,0,1,0,0)"><path stroke-linecap="round" stroke-linejoin="round" fill-opacity="0" stroke="rgb(255,255,255)" stroke-opacity="1" stroke-width="6" d=" M15.645000457763672,-181.57899475097656 C15.645000457763672,-181.57899475097656 20.51099967956543,-181.31900024414062 28.233999252319336,-180.04100036621094"></path></g></g></g><g style="display: block;" transform="matrix(1,0,0,1,256,256)" opacity="1"><g opacity="1" transform="matrix(1,0,0,1,0,0)"><g opacity="1" transform="matrix(1,0,0,1,0,0)"><path fill="rgb(255,226,166)" fill-opacity="1" d=" M43.4379997253418,-85.33200073242188 C44.36800003051758,-86.8949966430664 47.840999603271484,-89.19300079345703 50.696998596191406,-90.59300231933594 C63.07400131225586,-96.65899658203125 90.06800079345703,-95.77300262451172 111.0770034790039,-84.2969970703125 C140.9949951171875,-67.9540023803711 135.38699340820312,-54.141998291015625 128.89199829101562,-57.334999084472656 C122.39700317382812,-60.52799987792969 99.48600006103516,-75.4800033569336 68.0260009765625,-74.56500244140625 C59.59600067138672,-74.31999969482422 53.6619987487793,-73.21700286865234 48.983001708984375,-73.49299621582031 C42.801998138427734,-73.85700225830078 40.88600158691406,-81.04399871826172 43.4379997253418,-85.33200073242188z"></path></g></g></g><g style="display: block;" transform="matrix(1,0,0,1,256,256)" opacity="0.6"><g opacity="1" transform="matrix(1,0,0,1,0,0)"><path fill="rgb(239,125,63)" fill-opacity="1" d=" M130.8300018310547,128.2169952392578 C115.80999755859375,142.4969940185547 93.52100372314453,156.5279998779297 74.44100189208984,165.28799438476562 C69.9280014038086,146.36500549316406 71.96399688720703,121.6510009765625 74.44100189208984,110.73400115966797 C80.8270034790039,82.58899688720703 112.41999816894531,108.87699890136719 130.8300018310547,128.2169952392578z"></path></g></g><g style="display: none;"><g><path></path></g></g><g style="display: block;" transform="matrix(1,0,0,1,256,256)" opacity="0.6"><g opacity="1" transform="matrix(1,0,0,1,0,0)"><path fill="rgb(239,125,63)" fill-opacity="1" d=" M173.1529998779297,-85.5979995727539 C173.1529998779297,-85.5979995727539 173.1529998779297,-85.5979995727539 173.1529998779297,-85.5979995727539 C167.02999877929688,-78.89199829101562 152.5070037841797,-66.33499908447266 148.08399963378906,-67.80000305175781 C137.22300720214844,-71.39600372314453 103.31700134277344,-109.23600006103516 94.38600158691406,-144.16900634765625 C91.99700164794922,-153.51400756835938 108.54100036621094,-154.34300231933594 114.4209976196289,-159.3730010986328 C138.64100646972656,-141.06300354003906 160.0330047607422,-113.31800079345703 173.1529998779297,-85.5979995727539z"></path></g></g><g style="display: none;"><g><path></path></g></g><g style="display: block;" transform="matrix(1,0,0,1,256,256)" opacity="0.6"><g opacity="1" transform="matrix(1,0,0,1,0,0)"><path fill="rgb(239,125,63)" fill-opacity="1" d=" M-108.48999786376953,145.5030059814453 C-122.73999786376953,135.38299560546875 -135.67999267578125,123.28700256347656 -146.61000061035156,109.68699645996094 C-125.02999877929688,74.56700134277344 -97,39.547000885009766 -91.55000305175781,83.50700378417969 C-90.58000183105469,91.34700012207031 -94.06700134277344,121.9729995727539 -108.48999786376953,145.5030059814453z"></path></g></g><g style="display: none;"><g><path></path></g></g><g style="display: none;"><g><path></path></g></g><g style="display: block;" transform="matrix(1,0,0,1,-67.75,420)" opacity="1"><g opacity="1" transform="matrix(1,0,0,1,0,0)"><g opacity="0.04" transform="matrix(1,0,0,1,0,0)"><path fill="rgb(226,6,19)" fill-opacity="1" d=" M255.88499450683594,-139.6230010986328 C255.88499450683594,-110.13099670410156 231.9770050048828,-86.2229995727539 202.48500061035156,-86.2229995727539 C172.9929962158203,-86.2229995727539 149.0850067138672,-110.13099670410156 149.0850067138672,-139.6230010986328 C149.0850067138672,-169.11500549316406 172.9929962158203,-193.0229949951172 202.48500061035156,-193.0229949951172 C231.9770050048828,-193.0229949951172 255.88499450683594,-169.11500549316406 255.88499450683594,-139.6230010986328z"></path></g><g opacity="0.04" transform="matrix(1,0,0,1,0,0)"><path fill="rgb(226,6,19)" fill-opacity="1" d=" M251.3719940185547,-139.6230010986328 C251.3719940185547,-112.6240005493164 229.48399353027344,-90.73600006103516 202.48500061035156,-90.73600006103516 C175.48500061035156,-90.73600006103516 153.59800720214844,-112.6240005493164 153.59800720214844,-139.6230010986328 C153.59800720214844,-166.6230010986328 175.48500061035156,-188.50999450683594 202.48500061035156,-188.50999450683594 C229.48399353027344,-188.50999450683594 251.3719940185547,-166.6230010986328 251.3719940185547,-139.6230010986328z"></path></g><g opacity="0.04" transform="matrix(1,0,0,1,0,0)"><path fill="rgb(226,6,19)" fill-opacity="1" d=" M246.91000366210938,-139.6230010986328 C246.91000366210938,-115.08699798583984 227.02099609375,-95.1969985961914 202.48500061035156,-95.1969985961914 C177.94900512695312,-95.1969985961914 158.0590057373047,-115.08699798583984 158.0590057373047,-139.6230010986328 C158.0590057373047,-164.15899658203125 177.94900512695312,-184.04800415039062 202.48500061035156,-184.04800415039062 C227.02099609375,-184.04800415039062 246.91000366210938,-164.15899658203125 246.91000366210938,-139.6230010986328z"></path></g><g opacity="0.04" transform="matrix(1,0,0,1,0,0)"><path fill="rgb(226,6,19)" fill-opacity="1" d=" M242.1580047607422,-139.6230010986328 C242.1580047607422,-117.71199798583984 224.39599609375,-99.9489974975586 202.48500061035156,-99.9489974975586 C180.57400512695312,-99.9489974975586 162.81100463867188,-117.71199798583984 162.81100463867188,-139.6230010986328 C162.81100463867188,-161.53399658203125 180.57400512695312,-179.29600524902344 202.48500061035156,-179.29600524902344 C224.39599609375,-179.29600524902344 242.1580047607422,-161.53399658203125 242.1580047607422,-139.6230010986328z"></path></g><g opacity="0.04" transform="matrix(1,0,0,1,0,0)"><path fill="rgb(226,6,19)" fill-opacity="1" d=" M237.53199768066406,-139.6230010986328 C237.53199768066406,-120.26699829101562 221.84100341796875,-104.57599639892578 202.48500061035156,-104.57599639892578 C183.12899780273438,-104.57599639892578 167.43800354003906,-120.26699829101562 167.43800354003906,-139.6230010986328 C167.43800354003906,-158.97900390625 183.12899780273438,-174.66900634765625 202.48500061035156,-174.66900634765625 C221.84100341796875,-174.66900634765625 237.53199768066406,-158.97900390625 237.53199768066406,-139.6230010986328z"></path></g><g opacity="0.04" transform="matrix(1,0,0,1,0,0)"><path fill="rgb(226,6,19)" fill-opacity="1" d=" M232.7790069580078,-139.6230010986328 C232.7790069580078,-122.89199829101562 219.21600341796875,-109.3280029296875 202.48500061035156,-109.3280029296875 C185.75399780273438,-109.3280029296875 172.19000244140625,-122.89199829101562 172.19000244140625,-139.6230010986328 C172.19000244140625,-156.35400390625 185.75399780273438,-169.91700744628906 202.48500061035156,-169.91700744628906 C219.21600341796875,-169.91700744628906 232.7790069580078,-156.35400390625 232.7790069580078,-139.6230010986328z"></path></g><g opacity="0.04" transform="matrix(1,0,0,1,0,0)"><path fill="rgb(226,6,19)" fill-opacity="1" d=" M227.81300354003906,-139.6230010986328 C227.81300354003906,-125.63500213623047 216.47300720214844,-114.29399871826172 202.48500061035156,-114.29399871826172 C188.4969940185547,-114.29399871826172 177.156005859375,-125.63500213623047 177.156005859375,-139.6230010986328 C177.156005859375,-153.61099243164062 188.4969940185547,-164.9510040283203 202.48500061035156,-164.9510040283203 C216.47300720214844,-164.9510040283203 227.81300354003906,-153.61099243164062 227.81300354003906,-139.6230010986328z"></path></g><g opacity="0.04" transform="matrix(1,0,0,1,0,0)"><path fill="rgb(226,6,19)" fill-opacity="1" d=" M222.26499938964844,-139.6230010986328 C222.26499938964844,-128.69900512695312 213.40899658203125,-119.84300231933594 202.48500061035156,-119.84300231933594 C191.56100463867188,-119.84300231933594 182.7050018310547,-128.69900512695312 182.7050018310547,-139.6230010986328 C182.7050018310547,-150.5469970703125 191.56100463867188,-159.4029998779297 202.48500061035156,-159.4029998779297 C213.40899658203125,-159.4029998779297 222.26499938964844,-150.5469970703125 222.26499938964844,-139.6230010986328z"></path></g><g opacity="0.04" transform="matrix(1,0,0,1,0,0)"><path fill="rgb(226,6,19)" fill-opacity="1" d=" M215.86700439453125,-139.6230010986328 C215.86700439453125,-132.23199462890625 209.87600708007812,-126.23999786376953 202.48500061035156,-126.23999786376953 C195.093994140625,-126.23999786376953 189.1020050048828,-132.23199462890625 189.1020050048828,-139.6230010986328 C189.1020050048828,-147.01400756835938 195.093994140625,-153.0050048828125 202.48500061035156,-153.0050048828125 C209.87600708007812,-153.0050048828125 215.86700439453125,-147.01400756835938 215.86700439453125,-139.6230010986328z"></path></g><g opacity="0.04" transform="matrix(1,0,0,1,0,0)"><path fill="rgb(226,6,19)" fill-opacity="1" d=" M209.93299865722656,-139.6230010986328 C209.93299865722656,-135.50900268554688 206.5989990234375,-132.1739959716797 202.48500061035156,-132.1739959716797 C198.37100219726562,-132.1739959716797 195.03599548339844,-135.50900268554688 195.03599548339844,-139.6230010986328 C195.03599548339844,-143.73699951171875 198.37100219726562,-147.0709991455078 202.48500061035156,-147.0709991455078 C206.5989990234375,-147.0709991455078 209.93299865722656,-143.73699951171875 209.93299865722656,-139.6230010986328z"></path></g></g><g opacity="1" transform="matrix(1,0,0,1,0,0)"><g opacity="0.04" transform="matrix(1,0,0,1,0,0)"><path fill="rgb(226,6,19)" fill-opacity="1" d=" M501.0840148925781,-139.6230010986328 C501.0840148925781,-110.13099670410156 477.1759948730469,-86.2229995727539 447.6839904785156,-86.2229995727539 C418.1919860839844,-86.2229995727539 394.28399658203125,-110.13099670410156 394.28399658203125,-139.6230010986328 C394.28399658203125,-169.11500549316406 418.1919860839844,-193.0229949951172 447.6839904785156,-193.0229949951172 C477.1759948730469,-193.0229949951172 501.0840148925781,-169.11500549316406 501.0840148925781,-139.6230010986328z"></path></g><g opacity="0.04" transform="matrix(1,0,0,1,0,0)"><path fill="rgb(226,6,19)" fill-opacity="1" d=" M496.5710144042969,-139.6230010986328 C496.5710144042969,-112.6240005493164 474.6839904785156,-90.73600006103516 447.6839904785156,-90.73600006103516 C420.6839904785156,-90.73600006103516 398.7969970703125,-112.6240005493164 398.7969970703125,-139.6230010986328 C398.7969970703125,-166.6230010986328 420.6839904785156,-188.50999450683594 447.6839904785156,-188.50999450683594 C474.6839904785156,-188.50999450683594 496.5710144042969,-166.6230010986328 496.5710144042969,-139.6230010986328z"></path></g><g opacity="0.04" transform="matrix(1,0,0,1,0,0)"><path fill="rgb(226,6,19)" fill-opacity="1" d=" M492.1099853515625,-139.6230010986328 C492.1099853515625,-115.08699798583984 472.2200012207031,-95.1969985961914 447.6839904785156,-95.1969985961914 C423.14801025390625,-95.1969985961914 403.25799560546875,-115.08699798583984 403.25799560546875,-139.6230010986328 C403.25799560546875,-164.15899658203125 423.14801025390625,-184.04800415039062 447.6839904785156,-184.04800415039062 C472.2200012207031,-184.04800415039062 492.1099853515625,-164.15899658203125 492.1099853515625,-139.6230010986328z"></path></g><g opacity="0.04" transform="matrix(1,0,0,1,0,0)"><path fill="rgb(226,6,19)" fill-opacity="1" d=" M487.3580017089844,-139.6230010986328 C487.3580017089844,-117.71199798583984 469.5950012207031,-99.9489974975586 447.6839904785156,-99.9489974975586 C425.77301025390625,-99.9489974975586 408.010986328125,-117.71199798583984 408.010986328125,-139.6230010986328 C408.010986328125,-161.53399658203125 425.77301025390625,-179.29600524902344 447.6839904785156,-179.29600524902344 C469.5950012207031,-179.29600524902344 487.3580017089844,-161.53399658203125 487.3580017089844,-139.6230010986328z"></path></g><g opacity="0.04" transform="matrix(1,0,0,1,0,0)"><path fill="rgb(226,6,19)" fill-opacity="1" d=" M482.7309875488281,-139.6230010986328 C482.7309875488281,-120.26699829101562 467.0400085449219,-104.57599639892578 447.6839904785156,-104.57599639892578 C428.3280029296875,-104.57599639892578 412.6369934082031,-120.26699829101562 412.6369934082031,-139.6230010986328 C412.6369934082031,-158.97900390625 428.3280029296875,-174.66900634765625 447.6839904785156,-174.66900634765625 C467.0400085449219,-174.66900634765625 482.7309875488281,-158.97900390625 482.7309875488281,-139.6230010986328z"></path></g><g opacity="0.04" transform="matrix(1,0,0,1,0,0)"><path fill="rgb(226,6,19)" fill-opacity="1" d=" M477.97900390625,-139.6230010986328 C477.97900390625,-122.89199829101562 464.4150085449219,-109.3280029296875 447.6839904785156,-109.3280029296875 C430.9530029296875,-109.3280029296875 417.3900146484375,-122.89199829101562 417.3900146484375,-139.6230010986328 C417.3900146484375,-156.35400390625 430.9530029296875,-169.91700744628906 447.6839904785156,-169.91700744628906 C464.4150085449219,-169.91700744628906 477.97900390625,-156.35400390625 477.97900390625,-139.6230010986328z"></path></g><g opacity="0.04" transform="matrix(1,0,0,1,0,0)"><path fill="rgb(226,6,19)" fill-opacity="1" d=" M473.01300048828125,-139.6230010986328 C473.01300048828125,-125.63500213623047 461.6719970703125,-114.29399871826172 447.6839904785156,-114.29399871826172 C433.6960144042969,-114.29399871826172 422.3559875488281,-125.63500213623047 422.3559875488281,-139.6230010986328 C422.3559875488281,-153.61099243164062 433.6960144042969,-164.9510040283203 447.6839904785156,-164.9510040283203 C461.6719970703125,-164.9510040283203 473.01300048828125,-153.61099243164062 473.01300048828125,-139.6230010986328z"></path></g><g opacity="0.04" transform="matrix(1,0,0,1,0,0)"><path fill="rgb(226,6,19)" fill-opacity="1" d=" M467.4639892578125,-139.6230010986328 C467.4639892578125,-128.69900512695312 458.6080017089844,-119.84300231933594 447.6839904785156,-119.84300231933594 C436.760009765625,-119.84300231933594 427.90399169921875,-128.69900512695312 427.90399169921875,-139.6230010986328 C427.90399169921875,-150.5469970703125 436.760009765625,-159.4029998779297 447.6839904785156,-159.4029998779297 C458.6080017089844,-159.4029998779297 467.4639892578125,-150.5469970703125 467.4639892578125,-139.6230010986328z"></path></g><g opacity="0.04" transform="matrix(1,0,0,1,0,0)"><path fill="rgb(226,6,19)" fill-opacity="1" d=" M461.0669860839844,-139.6230010986328 C461.0669860839844,-132.23199462890625 455.07501220703125,-126.23999786376953 447.6839904785156,-126.23999786376953 C440.2929992675781,-126.23999786376953 434.302001953125,-132.23199462890625 434.302001953125,-139.6230010986328 C434.302001953125,-147.01400756835938 440.2929992675781,-153.0050048828125 447.6839904785156,-153.0050048828125 C455.07501220703125,-153.0050048828125 461.0669860839844,-147.01400756835938 461.0669860839844,-139.6230010986328z"></path></g><g opacity="0.04" transform="matrix(1,0,0,1,0,0)"><path fill="rgb(226,6,19)" fill-opacity="1" d=" M455.13299560546875,-139.6230010986328 C455.13299560546875,-135.50900268554688 451.7980041503906,-132.1739959716797 447.6839904785156,-132.1739959716797 C443.57000732421875,-132.1739959716797 440.2359924316406,-135.50900268554688 440.2359924316406,-139.6230010986328 C440.2359924316406,-143.73699951171875 443.57000732421875,-147.0709991455078 447.6839904785156,-147.0709991455078 C451.7980041503906,-147.0709991455078 455.13299560546875,-143.73699951171875 455.13299560546875,-139.6230010986328z"></path></g></g></g><g style="display: block;" transform="matrix(1,0,0,1,256,256)" opacity="1"><g opacity="1" transform="matrix(1,0,0,1,0,0)"><path fill="rgb(235,174,69)" fill-opacity="1" d=" M45.35200119018555,93.58300018310547 C34.027000427246094,105.75700378417969 15.331000328063965,115.46800231933594 0.6209999918937683,115.46800231933594 C-14.112000465393066,115.46800231933594 -32.74399948120117,105.75700378417969 -44.069000244140625,93.58300018310547 C-54.35499954223633,82.5260009765625 -55.1510009765625,72.2969970703125 -51.80799865722656,71.01100158691406 C-47.61000061035156,69.39600372314453 -29.277000427246094,87.14600372314453 0.6209999918937683,87.46800231933594 C30.518999099731445,87.14600372314453 48.85200119018555,69.39600372314453 53.04999923706055,71.01100158691406 C56.393001556396484,72.2969970703125 55.63800048828125,82.5260009765625 45.35200119018555,93.58300018310547z"></path></g><g opacity="1" transform="matrix(1,0,0,1,0,0)"><path fill="rgb(246,224,167)" fill-opacity="1" d=" M42.27799987792969,103.66799926757812 C30.952999114990234,115.84200286865234 15.331000328063965,125.55400085449219 0.6209999918937683,125.55400085449219 C-14.112000465393066,125.55400085449219 -29.711000442504883,115.84200286865234 -41.0359992980957,103.66799926757812 C-51.321998596191406,92.61100006103516 -55.1510009765625,76.28399658203125 -51.80799865722656,74.99800109863281 C-47.61000061035156,73.38300323486328 -29.277000427246094,97.23200225830078 0.6209999918937683,97.55400085449219 C30.518999099731445,97.23200225830078 48.85200119018555,73.38300323486328 53.04999923706055,74.99800109863281 C56.393001556396484,76.28399658203125 52.56399917602539,92.61100006103516 42.27799987792969,103.66799926757812z"></path></g><g opacity="1" transform="matrix(1,0,0,1,0,0)"><path fill="rgb(118,65,30)" fill-opacity="1" d=" M42.27799987792969,97.66799926757812 C30.952999114990234,109.84200286865234 15.331000328063965,119.55400085449219 0.6209999918937683,119.55400085449219 C-14.112000465393066,119.55400085449219 -29.711000442504883,109.84200286865234 -41.0359992980957,97.66799926757812 C-51.321998596191406,86.61100006103516 -55.1510009765625,76.38300323486328 -51.80799865722656,75.09700012207031 C-47.61000061035156,73.48200225830078 -29.277000427246094,92.23200225830078 0.6209999918937683,92.55400085449219 C30.518999099731445,92.23200225830078 48.85200119018555,73.48200225830078 53.04999923706055,75.09700012207031 C56.393001556396484,76.38300323486328 52.56399917602539,86.61100006103516 42.27799987792969,97.66799926757812z"></path></g><g opacity="1" transform="matrix(1,0,0,1,0,0)"><path fill="rgb(93,37,9)" fill-opacity="1" d=" M53.369998931884766,81.26699829101562 C53.27000045776367,81.1969985961914 53.17100143432617,81.13700103759766 53.05099868774414,81.09700012207031 C48.85100173950195,79.48699951171875 30.520000457763672,98.23699951171875 0.6200000047683716,98.55699920654297 C-29.280000686645508,98.23699951171875 -47.60900115966797,79.48699951171875 -51.808998107910156,81.09700012207031 C-51.92900085449219,81.13700103759766 -52.029998779296875,81.1969985961914 -52.130001068115234,81.26699829101562 C-53.36000061035156,77.9469985961914 -53.27899932861328,75.66699981689453 -51.808998107910156,75.09700012207031 C-47.60900115966797,73.48699951171875 -29.280000686645508,92.23699951171875 0.6200000047683716,92.55699920654297 C30.520000457763672,92.23699951171875 48.85100173950195,73.48699951171875 53.05099868774414,75.09700012207031 C54.520999908447266,75.66699981689453 54.599998474121094,77.9469985961914 53.369998931884766,81.26699829101562z"></path></g></g><g style="display: block;" transform="matrix(1,0,0,1,255,247.5)" opacity="1"><g opacity="1" transform="matrix(1,0,0,1,0,0)"><path fill="rgb(255,226,166)" fill-opacity="1" d=" M96.96900177001953,-4.703000068664551 C86.84200286865234,-13.979000091552734 66.43499755859375,-21.829999923706055 45.71200180053711,-17.95599937438965 C20.195999145507812,-13.185999870300293 22.996999740600586,8.456000328063965 33.92100143432617,11.699999809265137 C46.04100036621094,15.298999786376953 56.95399856567383,3.4800000190734863 83.01699829101562,13.395000457763672 C102.48600006103516,20.802000045776367 107.39399719238281,4.8460001945495605 96.96900177001953,-4.703000068664551z"></path></g><g opacity="1" transform="matrix(1,0,0,1,0,0)"><path fill="rgb(134,63,20)" fill-opacity="1" d=" M95.71700286865234,-6.943999767303467 C85.5510025024414,-15.657999992370605 67.43199920654297,-22.00200080871582 46.733001708984375,-18.476999282836914 C21.24799919128418,-14.13700008392334 24.714000701904297,3.6570000648498535 33.95199966430664,6.260000228881836 C46.084999084472656,9.678000450134277 56.939998626708984,-1.315999984741211 83.04000091552734,8.069999694824219 C102.53700256347656,15.081000328063965 106.18299865722656,2.0269999504089355 95.71700286865234,-6.943999767303467z"></path></g><g opacity="1" transform="matrix(1,0,0,1,0,0)"><path fill="rgb(107,32,0)" fill-opacity="1" d=" M100.8219985961914,6.159999847412109 C99.97200012207031,3.8399999141693115 98.26200103759766,1.409999966621399 95.72200012207031,-0.7699999809265137 C85.552001953125,-9.489999771118164 67.43199920654297,-15.829999923706055 46.731998443603516,-12.3100004196167 C34.69200134277344,-10.260000228881836 29.11199951171875,-5.199999809265137 27.562000274658203,-0.1599999964237213 C25.54199981689453,-6.53000020980835 29.57200050354004,-15.5600004196167 46.731998443603516,-18.479999542236328 C67.43199920654297,-22 85.552001953125,-15.65999984741211 95.72200012207031,-6.940000057220459 C100.76200103759766,-2.619999885559082 102.53199768066406,2.6500000953674316 100.8219985961914,6.159999847412109z"></path></g></g><g style="display: block;" transform="matrix(-1,0,0,1,258.1940002441406,247.5)" opacity="1"><g opacity="1" transform="matrix(1,0,0,1,0,0)"><path fill="rgb(255,226,166)" fill-opacity="1" d=" M96.96900177001953,-4.703000068664551 C86.84200286865234,-13.979000091552734 66.43499755859375,-21.829999923706055 45.71200180053711,-17.95599937438965 C20.195999145507812,-13.185999870300293 22.996999740600586,8.456000328063965 33.92100143432617,11.699999809265137 C46.04100036621094,15.298999786376953 56.95399856567383,3.4800000190734863 83.01699829101562,13.395000457763672 C102.48600006103516,20.802000045776367 107.39399719238281,4.8460001945495605 96.96900177001953,-4.703000068664551z"></path></g><g opacity="1" transform="matrix(1,0,0,1,0,0)"><path fill="rgb(134,63,20)" fill-opacity="1" d=" M95.71700286865234,-6.943999767303467 C85.5510025024414,-15.657999992370605 67.43199920654297,-22.00200080871582 46.733001708984375,-18.476999282836914 C21.24799919128418,-14.13700008392334 24.714000701904297,3.6570000648498535 33.95199966430664,6.260000228881836 C46.084999084472656,9.678000450134277 56.939998626708984,-1.315999984741211 83.04000091552734,8.069999694824219 C102.53700256347656,15.081000328063965 106.18299865722656,2.0269999504089355 95.71700286865234,-6.943999767303467z"></path></g><g opacity="1" transform="matrix(1,0,0,1,0,0)"><path fill="rgb(107,32,0)" fill-opacity="1" d=" M100.8219985961914,6.159999847412109 C99.97200012207031,3.8399999141693115 98.26200103759766,1.409999966621399 95.72200012207031,-0.7699999809265137 C85.552001953125,-9.489999771118164 67.43199920654297,-15.829999923706055 46.731998443603516,-12.3100004196167 C34.69200134277344,-10.260000228881836 29.11199951171875,-5.199999809265137 27.562000274658203,-0.1599999964237213 C25.54199981689453,-6.53000020980835 29.57200050354004,-15.5600004196167 46.731998443603516,-18.479999542236328 C67.43199920654297,-22 85.552001953125,-15.65999984741211 95.72200012207031,-6.940000057220459 C100.76200103759766,-2.619999885559082 102.53199768066406,2.6500000953674316 100.8219985961914,6.159999847412109z"></path></g></g><g style="display: block;" transform="matrix(1,0,0,1,256,256)" opacity="1"><g opacity="1" transform="matrix(1,0,0,1,0,0)"><g opacity="1" transform="matrix(1,0,0,1,0,0)"><path fill="rgb(255,226,166)" fill-opacity="1" d=" M-42.18600082397461,-85.33200073242188 C-43.11600112915039,-86.8949966430664 -46.5890007019043,-89.19300079345703 -49.44499969482422,-90.59300231933594 C-61.821998596191406,-96.65899658203125 -88.81600189208984,-95.77300262451172 -109.82499694824219,-84.2969970703125 C-139.7429962158203,-67.9540023803711 -134.13400268554688,-54.141998291015625 -127.63899993896484,-57.334999084472656 C-121.14399719238281,-60.52799987792969 -98.23300170898438,-75.4800033569336 -66.77300262451172,-74.56500244140625 C-58.34299850463867,-74.31999969482422 -52.40999984741211,-73.21700286865234 -47.73099899291992,-73.49299621582031 C-41.54999923706055,-73.85700225830078 -39.63399887084961,-81.04399871826172 -42.18600082397461,-85.33200073242188z"></path></g><g opacity="1" transform="matrix(1,0,0,1,0,0)"><path fill="rgb(134,63,20)" fill-opacity="1" d=" M-42.604000091552734,-86.1050033569336 C-43.534000396728516,-87.66699981689453 -46.5890007019043,-90.19300079345703 -49.44499969482422,-91.59300231933594 C-61.821998596191406,-97.65899658203125 -85.4729995727539,-100.51000213623047 -106.48200225830078,-89.03399658203125 C-136.39999389648438,-72.69100189208984 -134.02999877929688,-58.887001037597656 -127.53500366210938,-62.08000183105469 C-121.04000091552734,-65.27300262451172 -98.12899780273438,-80.2249984741211 -66.66899871826172,-79.30999755859375 C-58.23899841308594,-79.06500244140625 -52.30500030517578,-77.96299743652344 -47.625999450683594,-78.23899841308594 C-41.44499969482422,-78.60299682617188 -40.051998138427734,-81.81700134277344 -42.604000091552734,-86.1050033569336z"></path></g></g><g opacity="1" transform="matrix(1,0,0,1,0,0)"><path fill="rgb(107,32,0)" fill-opacity="1" d=" M-42.55799865722656,-79.83599853515625 C-42.56800079345703,-79.86599731445312 -42.5880012512207,-79.90599822998047 -42.608001708984375,-79.93599700927734 C-43.53799819946289,-81.49600219726562 -46.5880012512207,-84.0260009765625 -49.448001861572266,-85.41600036621094 C-61.81800079345703,-91.48600006103516 -85.47799682617188,-94.33599853515625 -106.47799682617188,-82.86599731445312 C-121.447998046875,-74.68599700927734 -128.3280029296875,-67.13600158691406 -130.6580047607422,-62.04600143432617 C-133.71800231933594,-64.3759994506836 -130.54800415039062,-75.88600158691406 -106.47799682617188,-89.03600311279297 C-85.47799682617188,-100.50599670410156 -61.81800079345703,-97.65599822998047 -49.448001861572266,-91.59600067138672 C-46.5880012512207,-90.19599914550781 -43.53799819946289,-87.66600036621094 -42.608001708984375,-86.10600280761719 C-41.03799819946289,-83.47599792480469 -40.95800018310547,-81.24600219726562 -42.55799865722656,-79.83599853515625z"></path></g></g><g style="display: block;" transform="matrix(1,0,0,1,256,256)" opacity="1"><g opacity="1" transform="matrix(1,0,0,1,0,0)"><g opacity="1" transform="matrix(1,0,0,1,0,0)"><path fill="rgb(134,63,20)" fill-opacity="1" d=" M43.85599899291992,-86.1050033569336 C44.7859992980957,-87.66699981689453 47.840999603271484,-90.19300079345703 50.696998596191406,-91.59300231933594 C63.07400131225586,-97.65899658203125 86.7249984741211,-100.51000213623047 107.73400115966797,-89.03399658203125 C137.65199279785156,-72.69100189208984 135.28199768066406,-58.887001037597656 128.78700256347656,-62.08000183105469 C122.29199981689453,-65.27300262451172 99.38099670410156,-80.2249984741211 67.9209976196289,-79.30999755859375 C59.49100112915039,-79.06500244140625 53.55799865722656,-77.96299743652344 48.87900161743164,-78.23899841308594 C42.698001861572266,-78.60299682617188 41.30400085449219,-81.81700134277344 43.85599899291992,-86.1050033569336z"></path></g></g><g opacity="1" transform="matrix(1,0,0,1,0,0)"><path fill="rgb(107,32,0)" fill-opacity="1" d=" M43.810001373291016,-79.83599853515625 C43.81999969482422,-79.86599731445312 43.84000015258789,-79.90599822998047 43.86000061035156,-79.93599700927734 C44.790000915527344,-81.49600219726562 47.84000015258789,-84.0260009765625 50.70000076293945,-85.41600036621094 C63.06999969482422,-91.48600006103516 86.7300033569336,-94.33599853515625 107.7300033569336,-82.86599731445312 C122.69999694824219,-74.68599700927734 129.5800018310547,-67.13600158691406 131.91000366210938,-62.04600143432617 C134.97000122070312,-64.3759994506836 131.8000030517578,-75.88600158691406 107.7300033569336,-89.03600311279297 C86.7300033569336,-100.50599670410156 63.06999969482422,-97.65599822998047 50.70000076293945,-91.59600067138672 C47.84000015258789,-90.19599914550781 44.790000915527344,-87.66600036621094 43.86000061035156,-86.10600280761719 C42.290000915527344,-83.47599792480469 42.209999084472656,-81.24600219726562 43.810001373291016,-79.83599853515625z"></path></g></g><g style="display: none;"><g><path stroke-linecap="round" stroke-linejoin="miter" fill-opacity="0" stroke-miterlimit="4"></path></g><g><path stroke-linecap="round" stroke-linejoin="miter" fill-opacity="0" stroke-miterlimit="4"></path></g><g><path stroke-linecap="round" stroke-linejoin="miter" fill-opacity="0" stroke-miterlimit="4"></path></g><g><path stroke-linecap="round" stroke-linejoin="miter" fill-opacity="0" stroke-miterlimit="4"></path></g><g><path stroke-linecap="round" stroke-linejoin="miter" fill-opacity="0" stroke-miterlimit="4"></path></g><g><path stroke-linecap="round" stroke-linejoin="miter" fill-opacity="0" stroke-miterlimit="4"></path></g></g><g style="display: none;"><g><path stroke-linecap="round" stroke-linejoin="miter" fill-opacity="0" stroke-miterlimit="4"></path></g><g><path stroke-linecap="round" stroke-linejoin="miter" fill-opacity="0" stroke-miterlimit="4"></path></g><g><path stroke-linecap="round" stroke-linejoin="miter" fill-opacity="0" stroke-miterlimit="4"></path></g><g><path stroke-linecap="round" stroke-linejoin="miter" fill-opacity="0" stroke-miterlimit="4"></path></g><g><path stroke-linecap="round" stroke-linejoin="miter" fill-opacity="0" stroke-miterlimit="4"></path></g><g><path stroke-linecap="round" stroke-linejoin="miter" fill-opacity="0" stroke-miterlimit="4"></path></g></g><g style="display: none;"><g><path stroke-linecap="round" stroke-linejoin="miter" fill-opacity="0" stroke-miterlimit="4"></path></g><g><path stroke-linecap="round" stroke-linejoin="miter" fill-opacity="0" stroke-miterlimit="4"></path></g><g><path stroke-linecap="round" stroke-linejoin="miter" fill-opacity="0" stroke-miterlimit="4"></path></g><g><path stroke-linecap="round" stroke-linejoin="miter" fill-opacity="0" stroke-miterlimit="4"></path></g><g><path stroke-linecap="round" stroke-linejoin="miter" fill-opacity="0" stroke-miterlimit="4"></path></g><g><path stroke-linecap="round" stroke-linejoin="miter" fill-opacity="0" stroke-miterlimit="4"></path></g></g><g style="display: none;"><g><path stroke-linecap="round" stroke-linejoin="miter" fill-opacity="0" stroke-miterlimit="4"></path></g><g><path stroke-linecap="round" stroke-linejoin="miter" fill-opacity="0" stroke-miterlimit="4"></path></g><g><path stroke-linecap="round" stroke-linejoin="miter" fill-opacity="0" stroke-miterlimit="4"></path></g><g><path stroke-linecap="round" stroke-linejoin="miter" fill-opacity="0" stroke-miterlimit="4"></path></g><g><path stroke-linecap="round" stroke-linejoin="miter" fill-opacity="0" stroke-miterlimit="4"></path></g><g><path stroke-linecap="round" stroke-linejoin="miter" fill-opacity="0" stroke-miterlimit="4"></path></g></g><g style="display: none;"><g><path stroke-linecap="butt" stroke-linejoin="miter" fill-opacity="0" stroke-miterlimit="4"></path></g></g><g style="display: none;"><g><path stroke-linecap="butt" stroke-linejoin="miter" fill-opacity="0" stroke-miterlimit="4"></path></g></g><g style="display: none;"><g><path stroke-linecap="butt" stroke-linejoin="miter" fill-opacity="0" stroke-miterlimit="4"></path></g></g><g style="display: none;"><g><path stroke-linecap="butt" stroke-linejoin="miter" fill-opacity="0" stroke-miterlimit="4"></path></g></g><g clip-path="url(#__lottie_element_10751)" style="display: block;" transform="matrix(0.9960441589355469,0.08885952830314636,-0.08885952830314636,0.9960441589355469,331.304931640625,321.10467529296875)" opacity="1"><g clip-path="url(#__lottie_element_10806)" style="display: block;" transform="matrix(1,0,0,1,0,0)" opacity="1"><g style="display: block;" transform="matrix(0.9979559779167175,-0.06390528380870819,0.06390528380870819,0.9979559779167175,-78.7198486328125,-68.14627075195312)" opacity="1"><g opacity="1" transform="matrix(1,0,0,1,0,0)"><path fill="rgb(198,13,13)" fill-opacity="1" d=" M136.70199584960938,104.90399932861328 C136.26300048828125,105.66500091552734 135.2790069580078,105.69100189208984 134.843994140625,104.94300079345703 C131.468994140625,99.13700103759766 119.02899932861328,80.73200225830078 99.59700012207031,86.14399719238281 C76.00800323486328,92.71399688720703 72.30799865722656,122.35399627685547 82.35600280761719,142.53199768066406 C92.76699829101562,163.43899536132812 107.57099914550781,180.0260009765625 127.13500213623047,195.54800415039062 C128.28900146484375,196.46299743652344 129.82200622558594,196.57000732421875 131.09500122070312,195.8260040283203 C139.0279998779297,191.19200134277344 167.70899963378906,170.73399353027344 181.25999450683594,151.13699340820312 C197.0970001220703,128.23399353027344 191.97500610351562,100.81400299072266 177.28900146484375,93.08399963378906 C163.91600036621094,86.04499816894531 145.21200561523438,90.13099670410156 136.70199584960938,104.90399932861328z"></path></g><g opacity="1" transform="matrix(1,0,0,1,0,0)"><path fill="rgb(217,28,25)" fill-opacity="1" d=" M188.44400024414062,106.6780014038086 C190.1959991455078,117.302001953125 187.8679962158203,130.28700256347656 179.75799560546875,142.00900268554688 C177.1529998779297,145.77699279785156 173.58099365234375,149.69000244140625 169.54100036621094,153.53599548339844 C147.10299682617188,174.89300537109375 113.49800109863281,172.08200073242188 94.65699768066406,147.48800659179688 C91.27899932861328,143.07899475097656 88.19000244140625,138.4770050048828 85.68900299072266,133.81900024414062 C79.94499969482422,123.11900329589844 79.04900360107422,109.0999984741211 83.13300323486328,98.05599975585938 C83.14199829101562,98.05400085449219 83.13999938964844,98.04499816894531 83.13800048828125,98.03500366210938 C86.81500244140625,92.48100280761719 92.23899841308594,88.18800354003906 99.5999984741211,86.13899993896484 C119.02799987792969,80.73600006103516 131.4720001220703,99.13800048828125 134.84300231933594,104.94499969482422 C135.27699279785156,105.68800354003906 136.26400756835938,105.66100311279297 136.70199584960938,104.90699768066406 C145.21400451660156,90.12899780273438 163.91799926757812,86.04499816894531 177.29299926757812,93.08300018310547 C182.24200439453125,95.68099975585938 186.10699462890625,100.5270004272461 188.44400024414062,106.6780014038086z"></path></g><g opacity="1" transform="matrix(1,0,0,1,0,0)"><path fill="url(#__lottie_element_10813)" fill-opacity="1" d=" M166.531005859375,89.88700103759766 C181.9720001220703,90.81800079345703 189.79800415039062,103.32599639892578 190.8990020751953,118.66300201416016 C192,134 179,150 163,149 C147,148 137,133 138,117 C139,101 148.06199645996094,88.77400207519531 166.531005859375,89.88700103759766z"></path></g><g opacity="1" transform="matrix(1,0,0,1,0,0)"><path fill="rgb(217,28,25)" fill-opacity="1" d=" M116.98300170898438,155.6479949951172 C90.5,157 73.40799713134766,116.75800323486328 82.92500305175781,98.58300018310547 C94.75,76 125.25,86.25 133.10899353027344,103.61199951171875 C141.1529998779297,121.38300323486328 136.46499633789062,154.6529998779297 116.98300170898438,155.6479949951172z"></path></g><g opacity="1" transform="matrix(1,0,0,1,0,0)"><path fill="url(#__lottie_element_10814)" fill-opacity="1" d=" M108.53099822998047,88.88700103759766 C123.97200012207031,89.81800079345703 131.79800415039062,102.32599639892578 132.8990020751953,117.66300201416016 C134,133 121,149 105,148 C89,147 79,132 80,116 C81,100 90.06199645996094,87.77400207519531 108.53099822998047,88.88700103759766z"></path></g><g opacity="1" transform="matrix(1,0,0,1,0,0)"><path stroke-linecap="butt" stroke-linejoin="miter" fill-opacity="0" stroke-miterlimit="10" stroke="rgb(151,0,31)" stroke-opacity="1" stroke-width="8" d=" M136.70199584960938,104.90399932861328 C136.26300048828125,105.66500091552734 135.2790069580078,105.69100189208984 134.843994140625,104.94300079345703 C131.468994140625,99.13700103759766 119.02899932861328,80.73200225830078 99.59700012207031,86.14399719238281 C76.00800323486328,92.71399688720703 72.30799865722656,122.35399627685547 82.35600280761719,142.53199768066406 C92.76699829101562,163.43899536132812 107.57099914550781,180.0260009765625 127.13500213623047,195.54800415039062 C128.28900146484375,196.46299743652344 129.82200622558594,196.57000732421875 131.09500122070312,195.8260040283203 C139.0279998779297,191.19200134277344 167.70899963378906,170.73399353027344 181.25999450683594,151.13699340820312 C197.0970001220703,128.23399353027344 191.97500610351562,100.81400299072266 177.28900146484375,93.08399963378906 C163.91600036621094,86.04499816894531 145.21200561523438,90.13099670410156 136.70199584960938,104.90399932861328z"></path></g></g><g style="display: none;"><g><path></path></g><g><path></path></g><g><path fill="url(#__lottie_element_10820)"></path></g><g><path></path></g><g><path fill="url(#__lottie_element_10821)"></path></g><g><path stroke-linecap="butt" stroke-linejoin="miter" fill-opacity="0" stroke-miterlimit="10"></path></g></g><g style="display: block;" transform="matrix(0.9988650679588318,0.047629464417696,-0.047629464417696,0.9988650679588318,-63.1446418762207,-83.22466278076172)" opacity="1"><g opacity="1" transform="matrix(1,0,0,1,0,0)"><path stroke-linecap="round" stroke-linejoin="round" fill-opacity="0" stroke="rgb(255,255,255)" stroke-opacity="1" stroke-width="6" d=" M167.67999267578125,100.67900085449219 C167.67999267578125,100.67900085449219 168.85299682617188,100.88999938964844 170.48399353027344,101.76499938964844"></path></g></g></g><g clip-path="url(#__lottie_element_10789)" style="display: none;"><g style="display: none;"><g><path></path></g><g><path></path></g><g><path fill="url(#__lottie_element_10796)"></path></g><g><path></path></g><g><path fill="url(#__lottie_element_10797)"></path></g><g><path stroke-linecap="butt" stroke-linejoin="miter" fill-opacity="0" stroke-miterlimit="10"></path></g></g><g style="display: none;"><g><path></path></g><g><path></path></g><g><path fill="url(#__lottie_element_10803)"></path></g><g><path></path></g><g><path fill="url(#__lottie_element_10804)"></path></g><g><path stroke-linecap="butt" stroke-linejoin="miter" fill-opacity="0" stroke-miterlimit="10"></path></g></g><g style="display: none;"><g><path stroke-linecap="round" stroke-linejoin="round" fill-opacity="0"></path></g></g></g><g clip-path="url(#__lottie_element_10772)" style="display: none;"><g style="display: none;"><g><path></path></g><g><path></path></g><g><path fill="url(#__lottie_element_10779)"></path></g><g><path></path></g><g><path fill="url(#__lottie_element_10780)"></path></g><g><path stroke-linecap="butt" stroke-linejoin="miter" fill-opacity="0" stroke-miterlimit="10"></path></g></g><g style="display: none;"><g><path></path></g><g><path></path></g><g><path fill="url(#__lottie_element_10786)"></path></g><g><path></path></g><g><path fill="url(#__lottie_element_10787)"></path></g><g><path stroke-linecap="butt" stroke-linejoin="miter" fill-opacity="0" stroke-miterlimit="10"></path></g></g><g style="display: none;"><g><path stroke-linecap="round" stroke-linejoin="round" fill-opacity="0"></path></g></g></g><g clip-path="url(#__lottie_element_10755)" style="display: none;"><g style="display: none;"><g><path></path></g><g><path></path></g><g><path fill="url(#__lottie_element_10762)"></path></g><g><path></path></g><g><path fill="url(#__lottie_element_10763)"></path></g><g><path stroke-linecap="butt" stroke-linejoin="miter" fill-opacity="0" stroke-miterlimit="10"></path></g></g><g style="display: none;"><g><path></path></g><g><path></path></g><g><path fill="url(#__lottie_element_10769)"></path></g><g><path></path></g><g><path fill="url(#__lottie_element_10770)"></path></g><g><path stroke-linecap="butt" stroke-linejoin="miter" fill-opacity="0" stroke-miterlimit="10"></path></g></g><g style="display: none;"><g><path stroke-linecap="round" stroke-linejoin="round" fill-opacity="0"></path></g></g></g></g><g clip-path="url(#__lottie_element_10679)" style="display: none;"><g clip-path="url(#__lottie_element_10734)" style="display: none;"><g style="display: none;"><g><path></path></g><g><path></path></g><g><path fill="url(#__lottie_element_10741)"></path></g><g><path></path></g><g><path fill="url(#__lottie_element_10742)"></path></g><g><path stroke-linecap="butt" stroke-linejoin="miter" fill-opacity="0" stroke-miterlimit="10"></path></g></g><g style="display: none;"><g><path></path></g><g><path></path></g><g><path fill="url(#__lottie_element_10748)"></path></g><g><path></path></g><g><path fill="url(#__lottie_element_10749)"></path></g><g><path stroke-linecap="butt" stroke-linejoin="miter" fill-opacity="0" stroke-miterlimit="10"></path></g></g><g style="display: none;"><g><path stroke-linecap="round" stroke-linejoin="round" fill-opacity="0"></path></g></g></g><g clip-path="url(#__lottie_element_10717)" style="display: none;"><g style="display: none;"><g><path></path></g><g><path></path></g><g><path fill="url(#__lottie_element_10724)"></path></g><g><path></path></g><g><path fill="url(#__lottie_element_10725)"></path></g><g><path stroke-linecap="butt" stroke-linejoin="miter" fill-opacity="0" stroke-miterlimit="10"></path></g></g><g style="display: none;"><g><path></path></g><g><path></path></g><g><path fill="url(#__lottie_element_10731)"></path></g><g><path></path></g><g><path fill="url(#__lottie_element_10732)"></path></g><g><path stroke-linecap="butt" stroke-linejoin="miter" fill-opacity="0" stroke-miterlimit="10"></path></g></g><g style="display: none;"><g><path stroke-linecap="round" stroke-linejoin="round" fill-opacity="0"></path></g></g></g><g clip-path="url(#__lottie_element_10700)" style="display: none;"><g style="display: none;"><g><path></path></g><g><path></path></g><g><path fill="url(#__lottie_element_10707)"></path></g><g><path></path></g><g><path fill="url(#__lottie_element_10708)"></path></g><g><path stroke-linecap="butt" stroke-linejoin="miter" fill-opacity="0" stroke-miterlimit="10"></path></g></g><g style="display: none;"><g><path></path></g><g><path></path></g><g><path fill="url(#__lottie_element_10714)"></path></g><g><path></path></g><g><path fill="url(#__lottie_element_10715)"></path></g><g><path stroke-linecap="butt" stroke-linejoin="miter" fill-opacity="0" stroke-miterlimit="10"></path></g></g><g style="display: none;"><g><path stroke-linecap="round" stroke-linejoin="round" fill-opacity="0"></path></g></g></g><g clip-path="url(#__lottie_element_10683)" style="display: none;"><g style="display: none;"><g><path></path></g><g><path></path></g><g><path fill="url(#__lottie_element_10690)"></path></g><g><path></path></g><g><path fill="url(#__lottie_element_10691)"></path></g><g><path stroke-linecap="butt" stroke-linejoin="miter" fill-opacity="0" stroke-miterlimit="10"></path></g></g><g style="display: none;"><g><path></path></g><g><path></path></g><g><path fill="url(#__lottie_element_10697)"></path></g><g><path></path></g><g><path fill="url(#__lottie_element_10698)"></path></g><g><path stroke-linecap="butt" stroke-linejoin="miter" fill-opacity="0" stroke-miterlimit="10"></path></g></g><g style="display: none;"><g><path stroke-linecap="round" stroke-linejoin="round" fill-opacity="0"></path></g></g></g></g><g clip-path="url(#__lottie_element_10607)" style="display: block;" transform="matrix(0.9984533786773682,0.05559496581554413,-0.05559496581554413,0.9984533786773682,348.0729064941406,49.066383361816406)" opacity="1"><g clip-path="url(#__lottie_element_10662)" style="display: block;" transform="matrix(-1,0,0,1,127,0)" opacity="1"><g style="display: block;" transform="matrix(0.9979559779167175,-0.06390528380870819,0.06390528380870819,0.9979559779167175,-78.7198486328125,-68.14627075195312)" opacity="1"><g opacity="1" transform="matrix(1,0,0,1,0,0)"><path fill="rgb(198,13,13)" fill-opacity="1" d=" M136.70199584960938,104.90399932861328 C136.26300048828125,105.66500091552734 135.2790069580078,105.69100189208984 134.843994140625,104.94300079345703 C131.468994140625,99.13700103759766 119.02899932861328,80.73200225830078 99.59700012207031,86.14399719238281 C76.00800323486328,92.71399688720703 72.30799865722656,122.35399627685547 82.35600280761719,142.53199768066406 C92.76699829101562,163.43899536132812 107.57099914550781,180.0260009765625 127.13500213623047,195.54800415039062 C128.28900146484375,196.46299743652344 129.82200622558594,196.57000732421875 131.09500122070312,195.8260040283203 C139.0279998779297,191.19200134277344 167.70899963378906,170.73399353027344 181.25999450683594,151.13699340820312 C197.0970001220703,128.23399353027344 191.97500610351562,100.81400299072266 177.28900146484375,93.08399963378906 C163.91600036621094,86.04499816894531 145.21200561523438,90.13099670410156 136.70199584960938,104.90399932861328z"></path></g><g opacity="1" transform="matrix(1,0,0,1,0,0)"><path fill="rgb(217,28,25)" fill-opacity="1" d=" M188.44400024414062,106.6780014038086 C190.1959991455078,117.302001953125 187.8679962158203,130.28700256347656 179.75799560546875,142.00900268554688 C177.1529998779297,145.77699279785156 173.58099365234375,149.69000244140625 169.54100036621094,153.53599548339844 C147.10299682617188,174.89300537109375 113.49800109863281,172.08200073242188 94.65699768066406,147.48800659179688 C91.27899932861328,143.07899475097656 88.19000244140625,138.4770050048828 85.68900299072266,133.81900024414062 C79.94499969482422,123.11900329589844 79.04900360107422,109.0999984741211 83.13300323486328,98.05599975585938 C83.14199829101562,98.05400085449219 83.13999938964844,98.04499816894531 83.13800048828125,98.03500366210938 C86.81500244140625,92.48100280761719 92.23899841308594,88.18800354003906 99.5999984741211,86.13899993896484 C119.02799987792969,80.73600006103516 131.4720001220703,99.13800048828125 134.84300231933594,104.94499969482422 C135.27699279785156,105.68800354003906 136.26400756835938,105.66100311279297 136.70199584960938,104.90699768066406 C145.21400451660156,90.12899780273438 163.91799926757812,86.04499816894531 177.29299926757812,93.08300018310547 C182.24200439453125,95.68099975585938 186.10699462890625,100.5270004272461 188.44400024414062,106.6780014038086z"></path></g><g opacity="1" transform="matrix(1,0,0,1,0,0)"><path fill="url(#__lottie_element_10669)" fill-opacity="1" d=" M166.531005859375,89.88700103759766 C181.9720001220703,90.81800079345703 189.79800415039062,103.32599639892578 190.8990020751953,118.66300201416016 C192,134 179,150 163,149 C147,148 137,133 138,117 C139,101 148.06199645996094,88.77400207519531 166.531005859375,89.88700103759766z"></path></g><g opacity="1" transform="matrix(1,0,0,1,0,0)"><path fill="rgb(217,28,25)" fill-opacity="1" d=" M116.98300170898438,155.6479949951172 C90.5,157 73.40799713134766,116.75800323486328 82.92500305175781,98.58300018310547 C94.75,76 125.25,86.25 133.10899353027344,103.61199951171875 C141.1529998779297,121.38300323486328 136.46499633789062,154.6529998779297 116.98300170898438,155.6479949951172z"></path></g><g opacity="1" transform="matrix(1,0,0,1,0,0)"><path fill="url(#__lottie_element_10670)" fill-opacity="1" d=" M108.53099822998047,88.88700103759766 C123.97200012207031,89.81800079345703 131.79800415039062,102.32599639892578 132.8990020751953,117.66300201416016 C134,133 121,149 105,148 C89,147 79,132 80,116 C81,100 90.06199645996094,87.77400207519531 108.53099822998047,88.88700103759766z"></path></g><g opacity="1" transform="matrix(1,0,0,1,0,0)"><path stroke-linecap="butt" stroke-linejoin="miter" fill-opacity="0" stroke-miterlimit="10" stroke="rgb(151,0,31)" stroke-opacity="1" stroke-width="8" d=" M136.70199584960938,104.90399932861328 C136.26300048828125,105.66500091552734 135.2790069580078,105.69100189208984 134.843994140625,104.94300079345703 C131.468994140625,99.13700103759766 119.02899932861328,80.73200225830078 99.59700012207031,86.14399719238281 C76.00800323486328,92.71399688720703 72.30799865722656,122.35399627685547 82.35600280761719,142.53199768066406 C92.76699829101562,163.43899536132812 107.57099914550781,180.0260009765625 127.13500213623047,195.54800415039062 C128.28900146484375,196.46299743652344 129.82200622558594,196.57000732421875 131.09500122070312,195.8260040283203 C139.0279998779297,191.19200134277344 167.70899963378906,170.73399353027344 181.25999450683594,151.13699340820312 C197.0970001220703,128.23399353027344 191.97500610351562,100.81400299072266 177.28900146484375,93.08399963378906 C163.91600036621094,86.04499816894531 145.21200561523438,90.13099670410156 136.70199584960938,104.90399932861328z"></path></g></g><g style="display: none;"><g><path></path></g><g><path></path></g><g><path fill="url(#__lottie_element_10676)"></path></g><g><path></path></g><g><path fill="url(#__lottie_element_10677)"></path></g><g><path stroke-linecap="butt" stroke-linejoin="miter" fill-opacity="0" stroke-miterlimit="10"></path></g></g><g style="display: block;" transform="matrix(-0.9988650679588318,-0.047629464417696,-0.047629464417696,0.9988650679588318,204.63710021972656,-70.45587158203125)" opacity="1"><g opacity="1" transform="matrix(1,0,0,1,0,0)"><path stroke-linecap="round" stroke-linejoin="round" fill-opacity="0" stroke="rgb(255,255,255)" stroke-opacity="1" stroke-width="6" d=" M167.67999267578125,100.67900085449219 C167.67999267578125,100.67900085449219 168.85299682617188,100.88999938964844 170.48399353027344,101.76499938964844"></path></g></g></g><g clip-path="url(#__lottie_element_10645)" style="display: none;"><g style="display: none;"><g><path></path></g><g><path></path></g><g><path fill="url(#__lottie_element_10652)"></path></g><g><path></path></g><g><path fill="url(#__lottie_element_10653)"></path></g><g><path stroke-linecap="butt" stroke-linejoin="miter" fill-opacity="0" stroke-miterlimit="10"></path></g></g><g style="display: none;"><g><path></path></g><g><path></path></g><g><path fill="url(#__lottie_element_10659)"></path></g><g><path></path></g><g><path fill="url(#__lottie_element_10660)"></path></g><g><path stroke-linecap="butt" stroke-linejoin="miter" fill-opacity="0" stroke-miterlimit="10"></path></g></g><g style="display: none;"><g><path stroke-linecap="round" stroke-linejoin="round" fill-opacity="0"></path></g></g></g><g clip-path="url(#__lottie_element_10628)" style="display: none;"><g style="display: none;"><g><path></path></g><g><path></path></g><g><path fill="url(#__lottie_element_10635)"></path></g><g><path></path></g><g><path fill="url(#__lottie_element_10636)"></path></g><g><path stroke-linecap="butt" stroke-linejoin="miter" fill-opacity="0" stroke-miterlimit="10"></path></g></g><g style="display: none;"><g><path></path></g><g><path></path></g><g><path fill="url(#__lottie_element_10642)"></path></g><g><path></path></g><g><path fill="url(#__lottie_element_10643)"></path></g><g><path stroke-linecap="butt" stroke-linejoin="miter" fill-opacity="0" stroke-miterlimit="10"></path></g></g><g style="display: none;"><g><path stroke-linecap="round" stroke-linejoin="round" fill-opacity="0"></path></g></g></g><g clip-path="url(#__lottie_element_10611)" style="display: none;"><g style="display: none;"><g><path></path></g><g><path></path></g><g><path fill="url(#__lottie_element_10618)"></path></g><g><path></path></g><g><path fill="url(#__lottie_element_10619)"></path></g><g><path stroke-linecap="butt" stroke-linejoin="miter" fill-opacity="0" stroke-miterlimit="10"></path></g></g><g style="display: none;"><g><path></path></g><g><path></path></g><g><path fill="url(#__lottie_element_10625)"></path></g><g><path></path></g><g><path fill="url(#__lottie_element_10626)"></path></g><g><path stroke-linecap="butt" stroke-linejoin="miter" fill-opacity="0" stroke-miterlimit="10"></path></g></g><g style="display: none;"><g><path stroke-linecap="round" stroke-linejoin="round" fill-opacity="0"></path></g></g></g></g><g clip-path="url(#__lottie_element_10535)" style="display: none;"><g clip-path="url(#__lottie_element_10590)" style="display: none;"><g style="display: none;"><g><path></path></g><g><path></path></g><g><path fill="url(#__lottie_element_10597)"></path></g><g><path></path></g><g><path fill="url(#__lottie_element_10598)"></path></g><g><path stroke-linecap="butt" stroke-linejoin="miter" fill-opacity="0" stroke-miterlimit="10"></path></g></g><g style="display: none;"><g><path></path></g><g><path></path></g><g><path fill="url(#__lottie_element_10604)"></path></g><g><path></path></g><g><path fill="url(#__lottie_element_10605)"></path></g><g><path stroke-linecap="butt" stroke-linejoin="miter" fill-opacity="0" stroke-miterlimit="10"></path></g></g><g style="display: none;"><g><path stroke-linecap="round" stroke-linejoin="round" fill-opacity="0"></path></g></g></g><g clip-path="url(#__lottie_element_10573)" style="display: none;"><g style="display: none;"><g><path></path></g><g><path></path></g><g><path fill="url(#__lottie_element_10580)"></path></g><g><path></path></g><g><path fill="url(#__lottie_element_10581)"></path></g><g><path stroke-linecap="butt" stroke-linejoin="miter" fill-opacity="0" stroke-miterlimit="10"></path></g></g><g style="display: none;"><g><path></path></g><g><path></path></g><g><path fill="url(#__lottie_element_10587)"></path></g><g><path></path></g><g><path fill="url(#__lottie_element_10588)"></path></g><g><path stroke-linecap="butt" stroke-linejoin="miter" fill-opacity="0" stroke-miterlimit="10"></path></g></g><g style="display: none;"><g><path stroke-linecap="round" stroke-linejoin="round" fill-opacity="0"></path></g></g></g><g clip-path="url(#__lottie_element_10556)" style="display: none;"><g style="display: none;"><g><path></path></g><g><path></path></g><g><path fill="url(#__lottie_element_10563)"></path></g><g><path></path></g><g><path fill="url(#__lottie_element_10564)"></path></g><g><path stroke-linecap="butt" stroke-linejoin="miter" fill-opacity="0" stroke-miterlimit="10"></path></g></g><g style="display: none;"><g><path></path></g><g><path></path></g><g><path fill="url(#__lottie_element_10570)"></path></g><g><path></path></g><g><path fill="url(#__lottie_element_10571)"></path></g><g><path stroke-linecap="butt" stroke-linejoin="miter" fill-opacity="0" stroke-miterlimit="10"></path></g></g><g style="display: none;"><g><path stroke-linecap="round" stroke-linejoin="round" fill-opacity="0"></path></g></g></g><g clip-path="url(#__lottie_element_10539)" style="display: none;"><g style="display: none;"><g><path></path></g><g><path></path></g><g><path fill="url(#__lottie_element_10546)"></path></g><g><path></path></g><g><path fill="url(#__lottie_element_10547)"></path></g><g><path stroke-linecap="butt" stroke-linejoin="miter" fill-opacity="0" stroke-miterlimit="10"></path></g></g><g style="display: none;"><g><path></path></g><g><path></path></g><g><path fill="url(#__lottie_element_10553)"></path></g><g><path></path></g><g><path fill="url(#__lottie_element_10554)"></path></g><g><path stroke-linecap="butt" stroke-linejoin="miter" fill-opacity="0" stroke-miterlimit="10"></path></g></g><g style="display: none;"><g><path stroke-linecap="round" stroke-linejoin="round" fill-opacity="0"></path></g></g></g></g><g clip-path="url(#__lottie_element_10463)" style="display: block;" transform="matrix(0.9935164451599121,-0.11368875205516815,0.11368875205516815,0.9935164451599121,37.30615997314453,298.62445068359375)" opacity="1"><g clip-path="url(#__lottie_element_10518)" style="display: block;" transform="matrix(-1,0,0,1,127,0)" opacity="1"><g style="display: block;" transform="matrix(0.9979559779167175,-0.06390528380870819,0.06390528380870819,0.9979559779167175,-78.7198486328125,-68.14627075195312)" opacity="1"><g opacity="1" transform="matrix(1,0,0,1,0,0)"><path fill="rgb(198,13,13)" fill-opacity="1" d=" M136.70199584960938,104.90399932861328 C136.26300048828125,105.66500091552734 135.2790069580078,105.69100189208984 134.843994140625,104.94300079345703 C131.468994140625,99.13700103759766 119.02899932861328,80.73200225830078 99.59700012207031,86.14399719238281 C76.00800323486328,92.71399688720703 72.30799865722656,122.35399627685547 82.35600280761719,142.53199768066406 C92.76699829101562,163.43899536132812 107.57099914550781,180.0260009765625 127.13500213623047,195.54800415039062 C128.28900146484375,196.46299743652344 129.82200622558594,196.57000732421875 131.09500122070312,195.8260040283203 C139.0279998779297,191.19200134277344 167.70899963378906,170.73399353027344 181.25999450683594,151.13699340820312 C197.0970001220703,128.23399353027344 191.97500610351562,100.81400299072266 177.28900146484375,93.08399963378906 C163.91600036621094,86.04499816894531 145.21200561523438,90.13099670410156 136.70199584960938,104.90399932861328z"></path></g><g opacity="1" transform="matrix(1,0,0,1,0,0)"><path fill="rgb(217,28,25)" fill-opacity="1" d=" M188.44400024414062,106.6780014038086 C190.1959991455078,117.302001953125 187.8679962158203,130.28700256347656 179.75799560546875,142.00900268554688 C177.1529998779297,145.77699279785156 173.58099365234375,149.69000244140625 169.54100036621094,153.53599548339844 C147.10299682617188,174.89300537109375 113.49800109863281,172.08200073242188 94.65699768066406,147.48800659179688 C91.27899932861328,143.07899475097656 88.19000244140625,138.4770050048828 85.68900299072266,133.81900024414062 C79.94499969482422,123.11900329589844 79.04900360107422,109.0999984741211 83.13300323486328,98.05599975585938 C83.14199829101562,98.05400085449219 83.13999938964844,98.04499816894531 83.13800048828125,98.03500366210938 C86.81500244140625,92.48100280761719 92.23899841308594,88.18800354003906 99.5999984741211,86.13899993896484 C119.02799987792969,80.73600006103516 131.4720001220703,99.13800048828125 134.84300231933594,104.94499969482422 C135.27699279785156,105.68800354003906 136.26400756835938,105.66100311279297 136.70199584960938,104.90699768066406 C145.21400451660156,90.12899780273438 163.91799926757812,86.04499816894531 177.29299926757812,93.08300018310547 C182.24200439453125,95.68099975585938 186.10699462890625,100.5270004272461 188.44400024414062,106.6780014038086z"></path></g><g opacity="1" transform="matrix(1,0,0,1,0,0)"><path fill="url(#__lottie_element_10525)" fill-opacity="1" d=" M166.531005859375,89.88700103759766 C181.9720001220703,90.81800079345703 189.79800415039062,103.32599639892578 190.8990020751953,118.66300201416016 C192,134 179,150 163,149 C147,148 137,133 138,117 C139,101 148.06199645996094,88.77400207519531 166.531005859375,89.88700103759766z"></path></g><g opacity="1" transform="matrix(1,0,0,1,0,0)"><path fill="rgb(217,28,25)" fill-opacity="1" d=" M116.98300170898438,155.6479949951172 C90.5,157 73.40799713134766,116.75800323486328 82.92500305175781,98.58300018310547 C94.75,76 125.25,86.25 133.10899353027344,103.61199951171875 C141.1529998779297,121.38300323486328 136.46499633789062,154.6529998779297 116.98300170898438,155.6479949951172z"></path></g><g opacity="1" transform="matrix(1,0,0,1,0,0)"><path fill="url(#__lottie_element_10526)" fill-opacity="1" d=" M108.53099822998047,88.88700103759766 C123.97200012207031,89.81800079345703 131.79800415039062,102.32599639892578 132.8990020751953,117.66300201416016 C134,133 121,149 105,148 C89,147 79,132 80,116 C81,100 90.06199645996094,87.77400207519531 108.53099822998047,88.88700103759766z"></path></g><g opacity="1" transform="matrix(1,0,0,1,0,0)"><path stroke-linecap="butt" stroke-linejoin="miter" fill-opacity="0" stroke-miterlimit="10" stroke="rgb(151,0,31)" stroke-opacity="1" stroke-width="8" d=" M136.70199584960938,104.90399932861328 C136.26300048828125,105.66500091552734 135.2790069580078,105.69100189208984 134.843994140625,104.94300079345703 C131.468994140625,99.13700103759766 119.02899932861328,80.73200225830078 99.59700012207031,86.14399719238281 C76.00800323486328,92.71399688720703 72.30799865722656,122.35399627685547 82.35600280761719,142.53199768066406 C92.76699829101562,163.43899536132812 107.57099914550781,180.0260009765625 127.13500213623047,195.54800415039062 C128.28900146484375,196.46299743652344 129.82200622558594,196.57000732421875 131.09500122070312,195.8260040283203 C139.0279998779297,191.19200134277344 167.70899963378906,170.73399353027344 181.25999450683594,151.13699340820312 C197.0970001220703,128.23399353027344 191.97500610351562,100.81400299072266 177.28900146484375,93.08399963378906 C163.91600036621094,86.04499816894531 145.21200561523438,90.13099670410156 136.70199584960938,104.90399932861328z"></path></g></g><g style="display: none;"><g><path></path></g><g><path></path></g><g><path fill="url(#__lottie_element_10532)"></path></g><g><path></path></g><g><path fill="url(#__lottie_element_10533)"></path></g><g><path stroke-linecap="butt" stroke-linejoin="miter" fill-opacity="0" stroke-miterlimit="10"></path></g></g><g style="display: block;" transform="matrix(-0.9988650679588318,-0.047629464417696,-0.047629464417696,0.9988650679588318,204.63710021972656,-70.45587158203125)" opacity="1"><g opacity="1" transform="matrix(1,0,0,1,0,0)"><path stroke-linecap="round" stroke-linejoin="round" fill-opacity="0" stroke="rgb(255,255,255)" stroke-opacity="1" stroke-width="6" d=" M167.67999267578125,100.67900085449219 C167.67999267578125,100.67900085449219 168.85299682617188,100.88999938964844 170.48399353027344,101.76499938964844"></path></g></g></g><g clip-path="url(#__lottie_element_10501)" style="display: none;"><g style="display: none;"><g><path></path></g><g><path></path></g><g><path fill="url(#__lottie_element_10508)"></path></g><g><path></path></g><g><path fill="url(#__lottie_element_10509)"></path></g><g><path stroke-linecap="butt" stroke-linejoin="miter" fill-opacity="0" stroke-miterlimit="10"></path></g></g><g style="display: none;"><g><path></path></g><g><path></path></g><g><path fill="url(#__lottie_element_10515)"></path></g><g><path></path></g><g><path fill="url(#__lottie_element_10516)"></path></g><g><path stroke-linecap="butt" stroke-linejoin="miter" fill-opacity="0" stroke-miterlimit="10"></path></g></g><g style="display: none;"><g><path stroke-linecap="round" stroke-linejoin="round" fill-opacity="0"></path></g></g></g><g clip-path="url(#__lottie_element_10484)" style="display: none;"><g style="display: none;"><g><path></path></g><g><path></path></g><g><path fill="url(#__lottie_element_10491)"></path></g><g><path></path></g><g><path fill="url(#__lottie_element_10492)"></path></g><g><path stroke-linecap="butt" stroke-linejoin="miter" fill-opacity="0" stroke-miterlimit="10"></path></g></g><g style="display: none;"><g><path></path></g><g><path></path></g><g><path fill="url(#__lottie_element_10498)"></path></g><g><path></path></g><g><path fill="url(#__lottie_element_10499)"></path></g><g><path stroke-linecap="butt" stroke-linejoin="miter" fill-opacity="0" stroke-miterlimit="10"></path></g></g><g style="display: none;"><g><path stroke-linecap="round" stroke-linejoin="round" fill-opacity="0"></path></g></g></g><g clip-path="url(#__lottie_element_10467)" style="display: none;"><g style="display: none;"><g><path></path></g><g><path></path></g><g><path fill="url(#__lottie_element_10474)"></path></g><g><path></path></g><g><path fill="url(#__lottie_element_10475)"></path></g><g><path stroke-linecap="butt" stroke-linejoin="miter" fill-opacity="0" stroke-miterlimit="10"></path></g></g><g style="display: none;"><g><path></path></g><g><path></path></g><g><path fill="url(#__lottie_element_10481)"></path></g><g><path></path></g><g><path fill="url(#__lottie_element_10482)"></path></g><g><path stroke-linecap="butt" stroke-linejoin="miter" fill-opacity="0" stroke-miterlimit="10"></path></g></g><g style="display: none;"><g><path stroke-linecap="round" stroke-linejoin="round" fill-opacity="0"></path></g></g></g></g><g clip-path="url(#__lottie_element_10391)" style="display: none;"><g clip-path="url(#__lottie_element_10446)" style="display: none;"><g style="display: none;"><g><path></path></g><g><path></path></g><g><path fill="url(#__lottie_element_10453)"></path></g><g><path></path></g><g><path fill="url(#__lottie_element_10454)"></path></g><g><path stroke-linecap="butt" stroke-linejoin="miter" fill-opacity="0" stroke-miterlimit="10"></path></g></g><g style="display: none;"><g><path></path></g><g><path></path></g><g><path fill="url(#__lottie_element_10460)"></path></g><g><path></path></g><g><path fill="url(#__lottie_element_10461)"></path></g><g><path stroke-linecap="butt" stroke-linejoin="miter" fill-opacity="0" stroke-miterlimit="10"></path></g></g><g style="display: none;"><g><path stroke-linecap="round" stroke-linejoin="round" fill-opacity="0"></path></g></g></g><g clip-path="url(#__lottie_element_10429)" style="display: none;"><g style="display: none;"><g><path></path></g><g><path></path></g><g><path fill="url(#__lottie_element_10436)"></path></g><g><path></path></g><g><path fill="url(#__lottie_element_10437)"></path></g><g><path stroke-linecap="butt" stroke-linejoin="miter" fill-opacity="0" stroke-miterlimit="10"></path></g></g><g style="display: none;"><g><path></path></g><g><path></path></g><g><path fill="url(#__lottie_element_10443)"></path></g><g><path></path></g><g><path fill="url(#__lottie_element_10444)"></path></g><g><path stroke-linecap="butt" stroke-linejoin="miter" fill-opacity="0" stroke-miterlimit="10"></path></g></g><g style="display: none;"><g><path stroke-linecap="round" stroke-linejoin="round" fill-opacity="0"></path></g></g></g><g clip-path="url(#__lottie_element_10412)" style="display: none;"><g style="display: none;"><g><path></path></g><g><path></path></g><g><path fill="url(#__lottie_element_10419)"></path></g><g><path></path></g><g><path fill="url(#__lottie_element_10420)"></path></g><g><path stroke-linecap="butt" stroke-linejoin="miter" fill-opacity="0" stroke-miterlimit="10"></path></g></g><g style="display: none;"><g><path></path></g><g><path></path></g><g><path fill="url(#__lottie_element_10426)"></path></g><g><path></path></g><g><path fill="url(#__lottie_element_10427)"></path></g><g><path stroke-linecap="butt" stroke-linejoin="miter" fill-opacity="0" stroke-miterlimit="10"></path></g></g><g style="display: none;"><g><path stroke-linecap="round" stroke-linejoin="round" fill-opacity="0"></path></g></g></g><g clip-path="url(#__lottie_element_10395)" style="display: none;"><g style="display: none;"><g><path></path></g><g><path></path></g><g><path fill="url(#__lottie_element_10402)"></path></g><g><path></path></g><g><path fill="url(#__lottie_element_10403)"></path></g><g><path stroke-linecap="butt" stroke-linejoin="miter" fill-opacity="0" stroke-miterlimit="10"></path></g></g><g style="display: none;"><g><path></path></g><g><path></path></g><g><path fill="url(#__lottie_element_10409)"></path></g><g><path></path></g><g><path fill="url(#__lottie_element_10410)"></path></g><g><path stroke-linecap="butt" stroke-linejoin="miter" fill-opacity="0" stroke-miterlimit="10"></path></g></g><g style="display: none;"><g><path stroke-linecap="round" stroke-linejoin="round" fill-opacity="0"></path></g></g></g></g><g clip-path="url(#__lottie_element_10319)" style="display: none;"><g clip-path="url(#__lottie_element_10374)" style="display: none;"><g style="display: none;"><g><path></path></g><g><path></path></g><g><path fill="url(#__lottie_element_10381)"></path></g><g><path></path></g><g><path fill="url(#__lottie_element_10382)"></path></g><g><path stroke-linecap="butt" stroke-linejoin="miter" fill-opacity="0" stroke-miterlimit="10"></path></g></g><g style="display: none;"><g><path></path></g><g><path></path></g><g><path fill="url(#__lottie_element_10388)"></path></g><g><path></path></g><g><path fill="url(#__lottie_element_10389)"></path></g><g><path stroke-linecap="butt" stroke-linejoin="miter" fill-opacity="0" stroke-miterlimit="10"></path></g></g><g style="display: none;"><g><path stroke-linecap="round" stroke-linejoin="round" fill-opacity="0"></path></g></g></g><g clip-path="url(#__lottie_element_10357)" style="display: none;"><g style="display: none;"><g><path></path></g><g><path></path></g><g><path fill="url(#__lottie_element_10364)"></path></g><g><path></path></g><g><path fill="url(#__lottie_element_10365)"></path></g><g><path stroke-linecap="butt" stroke-linejoin="miter" fill-opacity="0" stroke-miterlimit="10"></path></g></g><g style="display: none;"><g><path></path></g><g><path></path></g><g><path fill="url(#__lottie_element_10371)"></path></g><g><path></path></g><g><path fill="url(#__lottie_element_10372)"></path></g><g><path stroke-linecap="butt" stroke-linejoin="miter" fill-opacity="0" stroke-miterlimit="10"></path></g></g><g style="display: none;"><g><path stroke-linecap="round" stroke-linejoin="round" fill-opacity="0"></path></g></g></g><g clip-path="url(#__lottie_element_10340)" style="display: none;"><g style="display: none;"><g><path></path></g><g><path></path></g><g><path fill="url(#__lottie_element_10347)"></path></g><g><path></path></g><g><path fill="url(#__lottie_element_10348)"></path></g><g><path stroke-linecap="butt" stroke-linejoin="miter" fill-opacity="0" stroke-miterlimit="10"></path></g></g><g style="display: none;"><g><path></path></g><g><path></path></g><g><path fill="url(#__lottie_element_10354)"></path></g><g><path></path></g><g><path fill="url(#__lottie_element_10355)"></path></g><g><path stroke-linecap="butt" stroke-linejoin="miter" fill-opacity="0" stroke-miterlimit="10"></path></g></g><g style="display: none;"><g><path stroke-linecap="round" stroke-linejoin="round" fill-opacity="0"></path></g></g></g><g clip-path="url(#__lottie_element_10323)" style="display: none;"><g style="display: none;"><g><path></path></g><g><path></path></g><g><path fill="url(#__lottie_element_10330)"></path></g><g><path></path></g><g><path fill="url(#__lottie_element_10331)"></path></g><g><path stroke-linecap="butt" stroke-linejoin="miter" fill-opacity="0" stroke-miterlimit="10"></path></g></g><g style="display: none;"><g><path></path></g><g><path></path></g><g><path fill="url(#__lottie_element_10337)"></path></g><g><path></path></g><g><path fill="url(#__lottie_element_10338)"></path></g><g><path stroke-linecap="butt" stroke-linejoin="miter" fill-opacity="0" stroke-miterlimit="10"></path></g></g><g style="display: none;"><g><path stroke-linecap="round" stroke-linejoin="round" fill-opacity="0"></path></g></g></g></g></g></svg>