<svg xmlns="http://www.w3.org/2000/svg" viewBox="0 0 512 512" width="512" height="512" style="width: 100%; height: 100%; transform: translate3d(0,0,0);" preserveAspectRatio="xMidYMid meet"><defs><clipPath id="__lottie_element_10945"><rect width="512" height="512" x="0" y="0"></rect></clipPath></defs><g clip-path="url(#__lottie_element_10945)"><g style="display: block;" transform="matrix(1,0,0,1,256,256)" opacity="1"><g opacity="0.1" transform="matrix(1,0,0,1,0,0)"><path fill="rgb(0,0,0)" fill-opacity="1" d=" M196.02499389648438,5.925000190734863 C196.02499389648438,114.18599700927734 108.26100158691406,201.9499969482422 0,201.9499969482422 C-108.26100158691406,201.9499969482422 -196.02499389648438,114.18599700927734 -196.02499389648438,5.925000190734863 C-196.02499389648438,-102.33599853515625 -108.26100158691406,-190.0989990234375 0,-190.0989990234375 C108.26100158691406,-190.0989990234375 196.02499389648438,-102.33599853515625 196.02499389648438,5.925000190734863z"></path></g><g opacity="1" transform="matrix(1,0,0,1,0,0)"><path fill="rgb(255,173,0)" fill-opacity="1" d=" M188.875,-9.074999809265137 C188.875,95.23799896240234 104.31300354003906,179.80099487304688 0,179.80099487304688 C-104.31300354003906,179.80099487304688 -188.875,95.23799896240234 -188.875,-9.074999809265137 C-188.875,-113.38800048828125 -104.31300354003906,-197.9499969482422 0,-197.9499969482422 C104.31300354003906,-197.9499969482422 188.875,-113.38800048828125 188.875,-9.074999809265137z"></path><path stroke-linecap="butt" stroke-linejoin="miter" fill-opacity="0" stroke-miterlimit="10" stroke="rgb(255,118,42)" stroke-opacity="1" stroke-width="8" d=" M188.875,-9.074999809265137 C188.875,95.23799896240234 104.31300354003906,179.80099487304688 0,179.80099487304688 C-104.31300354003906,179.80099487304688 -188.875,95.23799896240234 -188.875,-9.074999809265137 C-188.875,-113.38800048828125 -104.31300354003906,-197.9499969482422 0,-197.9499969482422 C104.31300354003906,-197.9499969482422 188.875,-113.38800048828125 188.875,-9.074999809265137z"></path></g><g opacity="1" transform="matrix(1,0,0,1,0,0)"><path fill="rgb(255,207,0)" fill-opacity="1" d=" M168.40699768066406,-8.362000465393066 C166.9499969482422,86.66600036621094 90.39600372314453,162.5469970703125 -2.5820000171661377,161.1219940185547 C-95.55999755859375,159.69700622558594 -169.7519989013672,81.50599670410156 -168.29600524902344,-13.52299976348877 C-166.83999633789062,-108.552001953125 -90.28500366210938,-184.4320068359375 2.693000078201294,-183.0070037841797 C95.6709976196289,-181.58200073242188 169.86399841308594,-103.39099884033203 168.40699768066406,-8.362000465393066z"></path></g><g opacity="0.9" transform="matrix(1,0,0,1,0,0)"><path fill="rgb(255,222,102)" fill-opacity="1" d=" M149.26699829101562,-51.50299835205078 C149.26699829101562,21.139999389648438 82.43800354003906,-36.32500076293945 0,-36.32500076293945 C-82.43800354003906,-36.32500076293945 -149.26699829101562,21.139999389648438 -149.26699829101562,-51.50299835205078 C-149.26699829101562,-124.14600372314453 -82.43800354003906,-183.03599548339844 0,-183.03599548339844 C82.43800354003906,-183.03599548339844 149.26699829101562,-124.14600372314453 149.26699829101562,-51.50299835205078z"></path></g><g opacity="1" transform="matrix(1,0,0,1,0,0)"><g opacity="1" transform="matrix(1,0,0,1,0,0)"><path stroke-linecap="round" stroke-linejoin="round" fill-opacity="0" stroke="rgb(255,255,255)" stroke-opacity="1" stroke-width="6" d=" M36.37300109863281,-178.8159942626953 C37.9109992980957,-178.4810028076172 39.505001068115234,-178.11199951171875 41.150001525878906,-177.70599365234375"></path></g><g opacity="1" transform="matrix(1,0,0,1,0,0)"><path stroke-linecap="round" stroke-linejoin="round" fill-opacity="0" stroke="rgb(255,255,255)" stroke-opacity="1" stroke-width="6" d=" M15.017999649047852,-182.03599548339844 C15.017999649047852,-182.03599548339844 19.885000228881836,-181.77499389648438 27.607999801635742,-180.4969940185547"></path></g></g></g><g style="display: block;" transform="matrix(1,0,0,1,256,256)" opacity="1"><g opacity="1" transform="matrix(1,0,0,1,0,0)"><path fill="rgb(255,173,0)" fill-opacity="1" d=" M47.12099838256836,87.1259994506836 C35.189998626708984,99.30000305175781 -35.15800094604492,99.30000305175781 -47.0890007019043,87.1259994506836 C-57.92599868774414,76.06900024414062 -58.763999938964844,65.84100341796875 -55.242000579833984,64.55500030517578 C-50.819000244140625,62.939998626708984 -31.5049991607666,80.69000244140625 -0.006000000052154064,81.01200103759766 C31.493000030517578,80.69000244140625 50.80799865722656,62.939998626708984 55.23099899291992,64.55500030517578 C58.75299835205078,65.84100341796875 57.95800018310547,76.06900024414062 47.12099838256836,87.1259994506836z"></path></g><g opacity="1" transform="matrix(1,0,0,1,0,0)"><path fill="rgb(255,225,156)" fill-opacity="1" d=" M43.88199996948242,97.21199798583984 C31.951000213623047,109.38600158691406 15.491000175476074,119.0979995727539 -0.006000000052154064,119.0979995727539 C-15.527999877929688,119.0979995727539 -31.961999893188477,109.38600158691406 -43.893001556396484,97.21199798583984 C-54.72999954223633,86.15499877929688 -58.763999938964844,69.927001953125 -55.242000579833984,68.64099884033203 C-50.819000244140625,67.0260009765625 -31.5049991607666,90.7760009765625 -0.006000000052154064,91.0979995727539 C31.493000030517578,90.7760009765625 50.80799865722656,67.0260009765625 55.23099899291992,68.64099884033203 C58.75299835205078,69.927001953125 54.71900177001953,86.15499877929688 43.88199996948242,97.21199798583984z"></path></g><g opacity="1" transform="matrix(1,0,0,1,0,0)"><path fill="rgb(143,58,0)" fill-opacity="1" d=" M43.88199996948242,91.21199798583984 C31.951000213623047,103.38600158691406 15.491000175476074,113.0979995727539 -0.006000000052154064,113.0979995727539 C-15.527999877929688,113.0979995727539 -31.961999893188477,103.38600158691406 -43.893001556396484,91.21199798583984 C-54.72999954223633,80.15499877929688 -58.763999938964844,69.927001953125 -55.242000579833984,68.64099884033203 C-50.819000244140625,67.0260009765625 -31.5049991607666,85.7760009765625 -0.006000000052154064,86.0979995727539 C31.493000030517578,85.7760009765625 50.80799865722656,67.0260009765625 55.23099899291992,68.64099884033203 C58.75299835205078,69.927001953125 54.71900177001953,80.15499877929688 43.88199996948242,91.21199798583984z"></path></g><g opacity="1" transform="matrix(1,0,0,1,0,0)"><path fill="rgb(107,32,0)" fill-opacity="1" d=" M55.60300064086914,74.71900177001953 C51.178001403808594,73.10900115966797 31.4950008392334,91.78099822998047 -0.006000000052154064,92.10099792480469 C-31.506999969482422,91.78099822998047 -51.16699981689453,73.16400146484375 -55.59199905395508,74.77400207519531 C-55.71900177001953,74.81400299072266 -57.78900146484375,69.48799896240234 -55.24300003051758,68.64099884033203 C-50.775001525878906,67.15499877929688 -31.506999969482422,85.78099822998047 -0.006000000052154064,86.10099792480469 C31.4950008392334,85.78099822998047 50.82699966430664,66.97699737548828 55.231998443603516,68.64099884033203 C57.68000030517578,69.56600189208984 55.72999954223633,74.75900268554688 55.60300064086914,74.71900177001953z"></path></g></g><g style="display: block;" transform="matrix(1,0,0,1,256,256)" opacity="1"><g opacity="1" transform="matrix(1,0,0,1,0,0)"><g opacity="1" transform="matrix(1,0,0,1,0,0)"><path fill="rgb(255,173,0)" fill-opacity="1" d=" M-38.720001220703125,-17.55900001525879 C-38.720001220703125,0.878000020980835 -49.23500061035156,15.822999954223633 -62.20600128173828,15.822999954223633 C-75.177001953125,15.822999954223633 -85.69200134277344,0.878000020980835 -85.69200134277344,-17.55900001525879 C-85.69200134277344,-35.99599838256836 -75.177001953125,-50.94200134277344 -62.20600128173828,-50.94200134277344 C-49.23500061035156,-50.94200134277344 -38.720001220703125,-35.99599838256836 -38.720001220703125,-17.55900001525879z"></path></g><g opacity="1" transform="matrix(1,0,0,1,0,0)"><path fill="rgb(255,237,182)" fill-opacity="1" d=" M-38.720001220703125,-5.559000015258789 C-38.720001220703125,12.878000259399414 -49.23500061035156,27.822999954223633 -62.20600128173828,27.822999954223633 C-75.177001953125,27.822999954223633 -85.69200134277344,12.878000259399414 -85.69200134277344,-5.559000015258789 C-85.69200134277344,-23.996000289916992 -75.177001953125,-38.94200134277344 -62.20600128173828,-38.94200134277344 C-49.23500061035156,-38.94200134277344 -38.720001220703125,-23.996000289916992 -38.720001220703125,-5.559000015258789z"></path></g><g opacity="1" transform="matrix(1,0,0,1,0,0)"><path fill="rgb(143,58,0)" fill-opacity="1" d=" M-40.1879997253418,-11.980999946594238 C-40.1879997253418,6.455999851226807 -50.04600143432617,21.400999069213867 -62.20600128173828,21.400999069213867 C-74.36599731445312,21.400999069213867 -84.2239990234375,6.455999851226807 -84.2239990234375,-11.980999946594238 C-84.2239990234375,-30.417999267578125 -74.36599731445312,-45.36399841308594 -62.20600128173828,-45.36399841308594 C-50.04600143432617,-45.36399841308594 -40.1879997253418,-30.417999267578125 -40.1879997253418,-11.980999946594238z"></path></g><g opacity="1" transform="matrix(1,0,0,1,0,0)"><path fill="rgb(116,24,0)" fill-opacity="1" d=" M-40.38100051879883,-7.6529998779296875 C-41.762001037597656,-24.06100082397461 -51.00899887084961,-36.722999572753906 -62.20399856567383,-36.722999572753906 C-73.39900207519531,-36.722999572753906 -82.64700317382812,-24.06100082397461 -84.02799987792969,-7.6529998779296875 C-86.25599670410156,-32.1150016784668 -74.36299896240234,-45.36000061035156 -62.20399856567383,-45.36000061035156 C-50.04499816894531,-45.36000061035156 -38.720001220703125,-30.864999771118164 -40.38100051879883,-7.6529998779296875z"></path></g></g></g><g style="display: block;" transform="matrix(1,0,0,1,256,256)" opacity="1"><g opacity="1" transform="matrix(1,0,0,1,0,0)"><path fill="rgb(255,173,0)" fill-opacity="1" d=" M102.16500091552734,6.803999900817871 C101.31500244140625,4.484000205993652 99.60600280761719,2.052999973297119 97.06500244140625,-0.12600000202655792 C86.8949966430664,-8.845999717712402 68.77400207519531,-15.1899995803833 48.07500076293945,-11.666000366210938 C36.03499984741211,-9.616000175476074 30.454999923706055,-4.556000232696533 28.905000686645508,0.48399999737739563 C26.885000228881836,-5.886000156402588 30.915000915527344,-14.918000221252441 48.07500076293945,-17.836000442504883 C68.7750015258789,-21.356000900268555 86.89399719238281,-15.013999938964844 97.06500244140625,-6.296000003814697 C102.1050033569336,-1.9759999513626099 103.875,3.2939999103546143 102.16500091552734,6.803999900817871z"></path></g><g opacity="1" transform="matrix(1,0,0,1,0,0)"><path fill="rgb(255,225,156)" fill-opacity="1" d=" M98.31199645996094,-6.559000015258789 C88.18499755859375,-15.835000038146973 67.77799987792969,-23.68600082397461 47.05500030517578,-19.812000274658203 C21.538999557495117,-15.041999816894531 24.34000015258789,6.599999904632568 35.263999938964844,9.843999862670898 C47.38399887084961,13.442999839782715 58.297000885009766,1.6239999532699585 84.36000061035156,11.538999557495117 C103.8290023803711,18.945999145507812 108.73699951171875,2.990000009536743 98.31199645996094,-6.559000015258789z"></path></g><g opacity="1" transform="matrix(1,0,0,1,0,0)"><path fill="rgb(143,58,0)" fill-opacity="1" d=" M97.05999755859375,-8.800000190734863 C86.89399719238281,-17.513999938964844 68.77400207519531,-23.857999801635742 48.07600021362305,-20.33300018310547 C22.590999603271484,-15.993000030517578 26.05699920654297,1.7999999523162842 35.29499816894531,4.4029998779296875 C47.428001403808594,7.821000099182129 58.28300094604492,-3.171999931335449 84.38300323486328,6.214000225067139 C103.87999725341797,13.225000381469727 107.5260009765625,0.17100000381469727 97.05999755859375,-8.800000190734863z"></path></g><g opacity="1" transform="matrix(1,0,0,1,0,0)"><path fill="rgb(107,32,0)" fill-opacity="1" d=" M102.16500091552734,4.303999900817871 C101.31500244140625,1.9839999675750732 99.6050033569336,-0.44600000977516174 97.06500244140625,-2.625999927520752 C86.8949966430664,-11.345999717712402 68.7750015258789,-17.68600082397461 48.07500076293945,-14.166000366210938 C36.03499984741211,-12.116000175476074 30.454999923706055,-7.056000232696533 28.905000686645508,-2.0160000324249268 C26.885000228881836,-8.38599967956543 30.915000915527344,-17.416000366210938 48.07500076293945,-20.336000442504883 C68.7750015258789,-23.856000900268555 86.8949966430664,-17.516000747680664 97.06500244140625,-8.795999526977539 C102.1050033569336,-4.47599983215332 103.875,0.7940000295639038 102.16500091552734,4.303999900817871z"></path></g></g><g style="display: block;" transform="matrix(1,0,0,1,256,256)" opacity="1"><g opacity="1" transform="matrix(1,0,0,1,0,0)"><g opacity="1" transform="matrix(1,0,0,1,0,0)"><path fill="rgb(255,237,182)" fill-opacity="1" d=" M44.8120002746582,-57.78900146484375 C45.742000579833984,-59.35200119018555 91.44200134277344,-68.22899627685547 112.45099639892578,-56.75299835205078 C142.36900329589844,-40.40999984741211 136.75999450683594,-26.597999572753906 130.26499938964844,-29.791000366210938 C123.7699966430664,-32.98400115966797 100.86000061035156,-47.93600082397461 69.4000015258789,-47.020999908447266 C60.970001220703125,-46.7760009765625 55.0359992980957,-45.67399978637695 50.356998443603516,-45.95000076293945 C44.17599868774414,-46.31399917602539 42.2599983215332,-53.500999450683594 44.8120002746582,-57.78900146484375z"></path></g><g opacity="1" transform="matrix(1,0,0,1,0,0)"><path fill="rgb(143,58,0)" fill-opacity="1" d=" M45.22999954223633,-58.56100082397461 C46.15999984741211,-60.12300109863281 88.0989990234375,-72.96600341796875 109.10800170898438,-61.4900016784668 C139.0260009765625,-45.14699935913086 136.656005859375,-31.343000411987305 130.16099548339844,-34.5359992980957 C123.66600036621094,-37.729000091552734 100.75499725341797,-52.68199920654297 69.29499816894531,-51.766998291015625 C60.8650016784668,-51.52199935913086 54.93199920654297,-50.41899871826172 50.25299835205078,-50.69499969482422 C44.071998596191406,-51.058998107910156 42.678001403808594,-54.27299880981445 45.22999954223633,-58.56100082397461z"></path></g></g><g opacity="1" transform="matrix(1,0,0,1,0,0)"><path fill="rgb(107,32,0)" fill-opacity="1" d=" M45.183998107910156,-52.292999267578125 C45.194000244140625,-52.323001861572266 45.2140007019043,-52.362998962402344 45.23400115966797,-52.393001556396484 C55.72700119018555,-64.23200225830078 88.10399627685547,-66.79299926757812 109.10399627685547,-55.323001861572266 C124.0739974975586,-47.143001556396484 130.95399475097656,-39.59299850463867 133.28399658203125,-34.50299835205078 C136.343994140625,-36.83300018310547 133.1739959716797,-48.34299850463867 109.10399627685547,-61.49300003051758 C88.10399627685547,-72.96299743652344 64.44400024414062,-70.11299896240234 52.07400131225586,-64.0530014038086 C49.2140007019043,-62.65299987792969 46.16400146484375,-60.12300109863281 45.23400115966797,-58.5629997253418 C43.66400146484375,-55.93299865722656 43.58399963378906,-53.702999114990234 45.183998107910156,-52.292999267578125z"></path></g></g><g style="display: block;" transform="matrix(1,0,0,1,256,256)" opacity="1"><g opacity="1" transform="matrix(1,0,0,1,0,0)"><g opacity="1" transform="matrix(1,0,0,1,0,0)"><path fill="rgb(255,237,182)" fill-opacity="1" d=" M-61.49700164794922,-107.97000122070312 C-62.9640007019043,-109.04399871826172 -108.49500274658203,-99.33300018310547 -123.33799743652344,-80.5510025024414 C-144.47500610351562,-53.80400085449219 -133.91000366210938,-43.2869987487793 -129.1820068359375,-48.766998291015625 C-124.4540023803711,-54.24700164794922 -109.22000122070312,-76.97200012207031 -79.91100311279297,-88.44000244140625 C-72.05699920654297,-91.51300048828125 -66.16600036621094,-92.82099914550781 -61.96799850463867,-94.90599822998047 C-56.422000885009766,-97.66000366210938 -57.470001220703125,-105.02300262451172 -61.49700164794922,-107.97000122070312z"></path></g><g opacity="1" transform="matrix(1,0,0,1,0,0)"><path fill="rgb(143,58,0)" fill-opacity="1" d=" M-62.183998107910156,-108.51799774169922 C-63.6510009765625,-109.59200286865234 -107.27200317382812,-105 -122.11499786376953,-86.21800231933594 C-143.2519989013672,-59.47100067138672 -135.6699981689453,-47.69499969482422 -130.94200134277344,-53.17499923706055 C-126.21399688720703,-58.654998779296875 -110.98100280761719,-81.37899780273438 -81.6719970703125,-92.8479995727539 C-73.81900024414062,-95.9209976196289 -67.9260025024414,-97.22899627685547 -63.72800064086914,-99.31400299072266 C-58.18199920654297,-102.06800079345703 -58.15700149536133,-105.56999969482422 -62.183998107910156,-108.51799774169922z"></path></g></g><g opacity="1" transform="matrix(1,0,0,1,0,0)"><path fill="rgb(107,32,0)" fill-opacity="1" d=" M-59.68899917602539,-102.76699829101562 C-59.709999084472656,-102.79100036621094 -59.74399948120117,-102.81999969482422 -59.77399826049805,-102.83999633789062 C-76.14800262451172,-108.66400146484375 -104.86100006103516,-99.31700134277344 -119.697998046875,-80.54399871826172 C-130.2740020751953,-67.15899658203125 -133.64999389648438,-57.518001556396484 -133.80299377441406,-51.922000885009766 C-137.531005859375,-52.86899948120117 -139.11700439453125,-64.7020034790039 -122.11199951171875,-86.22200012207031 C-107.2750015258789,-104.99500274658203 -84.38600158691406,-111.62899780273438 -70.63099670410156,-110.89299774169922 C-67.45099639892578,-110.7239990234375 -63.65399932861328,-109.58999633789062 -62.1879997253418,-108.51799774169922 C-59.7140007019043,-106.71199798583984 -58.768001556396484,-104.69100189208984 -59.68899917602539,-102.76699829101562z"></path></g></g></g></svg>