<svg xmlns="http://www.w3.org/2000/svg" viewBox="0 0 512 512" width="512" height="512" style="width: 100%; height: 100%; transform: translate3d(0,0,0);" preserveAspectRatio="xMidYMid meet"><defs><clipPath id="__lottie_element_1915"><rect width="512" height="512" x="0" y="0"></rect></clipPath></defs><g clip-path="url(#__lottie_element_1915)"><g style="display: block;" transform="matrix(1,0,0,1,228.38099670410156,250.29397583007812)" opacity="1"><g opacity="1" transform="matrix(1,0,0,1,104.71399688720703,112.33100128173828)"><path stroke-linecap="round" stroke-linejoin="round" fill-opacity="0" stroke="rgb(0,80,145)" stroke-opacity="1" stroke-width="8" d=" M89.08799743652344,-69.05999755859375 C89.08799743652344,-69.05999755859375 6.400000095367432,87.4520034790039 6.400000095367432,87.4520034790039 C3.683000087738037,92.59400177001953 -3.683000087738037,92.59400177001953 -6.400000095367432,87.4520034790039 C-6.400000095367432,87.4520034790039 -89.08899688720703,-69.05999755859375 -89.08899688720703,-69.05999755859375 C-94.73200225830078,-79.74299621582031 -86.98600006103516,-92.59400177001953 -74.9020004272461,-92.59400177001953 C-74.9020004272461,-92.59400177001953 74.9010009765625,-92.59400177001953 74.9010009765625,-92.59400177001953 C86.98500061035156,-92.59400177001953 94.73200225830078,-79.74299621582031 89.08799743652344,-69.05999755859375z M-9.109000205993652,-70.5479965209961 C-9.109000205993652,-70.5479965209961 -64.93599700927734,-70.5479965209961 -64.93599700927734,-70.5479965209961 C-64.93599700927734,-70.5479965209961 -9.109000205993652,35.125 -9.109000205993652,35.125 C-9.109000205993652,35.125 -9.109000205993652,-70.5479965209961 -9.109000205993652,-70.5479965209961z M9.107999801635742,-70.5479965209961 C9.107999801635742,-70.5479965209961 9.107999801635742,35.125 9.107999801635742,35.125 C9.107999801635742,35.125 64.93499755859375,-70.5479965209961 64.93499755859375,-70.5479965209961 C64.93499755859375,-70.5479965209961 9.107999801635742,-70.5479965209961 9.107999801635742,-70.5479965209961z"></path></g></g><g style="display: block;" transform="matrix(1,0,0,1,238.13099670410156,270.0439758300781)" opacity="1"><g opacity="1" transform="matrix(1,0,0,1,94.95999908447266,92.84400177001953)"><path fill="rgb(11,154,232)" fill-opacity="1" d=" M89.12200164794922,-69.05999755859375 C89.12200164794922,-69.05999755859375 6.4019999504089355,87.4520034790039 6.4019999504089355,87.4520034790039 C3.684000015258789,92.59400177001953 -3.684000015258789,92.59400177001953 -6.4019999504089355,87.4520034790039 C-6.4019999504089355,87.4520034790039 -89.12300109863281,-69.05999755859375 -89.12300109863281,-69.05999755859375 C-94.76799774169922,-79.74299621582031 -87.01799774169922,-92.59400177001953 -74.93000030517578,-92.59400177001953 C-74.93000030517578,-92.59400177001953 74.92900085449219,-92.59400177001953 74.92900085449219,-92.59400177001953 C87.01699829101562,-92.59400177001953 94.76799774169922,-79.74299621582031 89.12200164794922,-69.05999755859375z M-9.112000465393066,-70.5479965209961 C-9.112000465393066,-70.5479965209961 -64.96099853515625,-70.5479965209961 -64.96099853515625,-70.5479965209961 C-64.96099853515625,-70.5479965209961 -9.112000465393066,35.125 -9.112000465393066,35.125 C-9.112000465393066,35.125 -9.112000465393066,-70.5479965209961 -9.112000465393066,-70.5479965209961z M9.111000061035156,-70.5479965209961 C9.111000061035156,-70.5479965209961 9.111000061035156,35.125 9.111000061035156,35.125 C9.111000061035156,35.125 64.95999908447266,-70.5479965209961 64.95999908447266,-70.5479965209961 C64.95999908447266,-70.5479965209961 9.111000061035156,-70.5479965209961 9.111000061035156,-70.5479965209961z"></path></g></g><g style="display: block;" transform="matrix(1,0,0,1,240.53500366210938,275.87896728515625)" opacity="1"><g opacity="1" transform="matrix(1,0,0,1,92.55500030517578,89.92500305175781)"><path fill="rgb(67,197,255)" fill-opacity="1" d=" M-88.99299621582031,-71.9749984741211 C-88.99299621582031,-71.9749984741211 -6.400000095367432,84.53500366210938 -6.400000095367432,84.53500366210938 C-3.681999921798706,89.67500305175781 3.681999921798706,89.67500305175781 6.389999866485596,84.53500366210938 C6.389999866485596,84.53500366210938 88.99299621582031,-71.9749984741211 88.99299621582031,-71.9749984741211 C92.2300033569336,-78.1050033569336 91.06199645996094,-84.95500183105469 87.18499755859375,-89.67500305175781 C87.18499755859375,-89.67500305175781 2.8929998874664307,70.04499816894531 2.8929998874664307,70.04499816894531 C1.6640000343322754,72.375 -1.6640000343322754,72.375 -2.8929998874664307,70.04499816894531 C-2.8929998874664307,70.04499816894531 -87.19499969482422,-89.67500305175781 -87.19499969482422,-89.67500305175781 C-91.06199645996094,-84.95500183105469 -92.2300033569336,-78.1050033569336 -88.99299621582031,-71.9749984741211z"></path></g></g><g style="display: block;" transform="matrix(1,0,0,1,218.38099670410156,250.29397583007812)" opacity="1"><g opacity="1" transform="matrix(1,0,0,1,114.70999908447266,112.59400177001953)"><path stroke-linecap="round" stroke-linejoin="round" fill-opacity="0" stroke="rgb(0,80,145)" stroke-opacity="1" stroke-width="8" d=" M89.08799743652344,-69.05999755859375 C89.08799743652344,-69.05999755859375 6.400000095367432,87.4520034790039 6.400000095367432,87.4520034790039 C3.683000087738037,92.59400177001953 -3.683000087738037,92.59400177001953 -6.400000095367432,87.4520034790039 C-6.400000095367432,87.4520034790039 -89.08899688720703,-69.05999755859375 -89.08899688720703,-69.05999755859375 C-94.73200225830078,-79.74299621582031 -86.98600006103516,-92.59400177001953 -74.9020004272461,-92.59400177001953 C-74.9020004272461,-92.59400177001953 74.9010009765625,-92.59400177001953 74.9010009765625,-92.59400177001953 C86.98500061035156,-92.59400177001953 94.73200225830078,-79.74299621582031 89.08799743652344,-69.05999755859375z M-9.109000205993652,-70.5479965209961 C-9.109000205993652,-70.5479965209961 -64.93599700927734,-70.5479965209961 -64.93599700927734,-70.5479965209961 C-64.93599700927734,-70.5479965209961 -9.109000205993652,35.125 -9.109000205993652,35.125 C-9.109000205993652,35.125 -9.109000205993652,-70.5479965209961 -9.109000205993652,-70.5479965209961z M9.107999801635742,-70.5479965209961 C9.107999801635742,-70.5479965209961 9.107999801635742,35.125 9.107999801635742,35.125 C9.107999801635742,35.125 64.93499755859375,-70.5479965209961 64.93499755859375,-70.5479965209961 C64.93499755859375,-70.5479965209961 9.107999801635742,-70.5479965209961 9.107999801635742,-70.5479965209961z"></path></g></g><g style="display: block;" transform="matrix(1,0,0,1,59.01298522949219,58.0419921875)" opacity="1"><g opacity="1" transform="matrix(1,0,0,1,96.41500091552734,126.98999786376953)"><path stroke-linecap="round" stroke-linejoin="round" fill-opacity="0" stroke="rgb(60,123,0)" stroke-opacity="1" stroke-width="8" d=" M14.104999542236328,78.13999938964844 C14.104999542236328,78.13999938964844 14.104999542236328,106.98999786376953 14.104999542236328,106.98999786376953 C14.104999542236328,106.98999786376953 -14.015000343322754,106.98999786376953 -14.015000343322754,106.98999786376953 C-14.015000343322754,106.98999786376953 -14.015000343322754,77.80999755859375 -14.015000343322754,77.80999755859375 C-53.21500015258789,74.16999816894531 -73.38500213623047,56.790000915527344 -76.41600036621094,27.100000381469727 C-76.41600036621094,27.100000381469727 -39.3849983215332,27.100000381469727 -39.3849983215332,27.100000381469727 C-39.3849983215332,27.100000381469727 -35.724998474121094,45.41999816894531 -14.015000343322754,50.75 C-9.984999656677246,51.75 -5.324999809265137,52.29999923706055 0.04500000178813934,52.189998626708984 C5.414999961853027,52.08000183105469 10.074999809265137,51.68000030517578 14.104999542236328,51.060001373291016 C35.79499816894531,47.70000076293945 39.345001220703125,37.720001220703125 38.44499969482422,30.530000686645508 C37.3650016784668,21.889999389648438 27.924999237060547,17.489999771118164 14.104999542236328,14.550000190734863 C5.974999904632568,12.819999694824219 -3.6659998893737793,11.59000015258789 -14.015000343322754,10.300000190734863 C-41.44499969482422,6.869999885559082 -69.8949966430664,-2.5799999237060547 -69.8949966430664,-33.20000076293945 C-69.8949966430664,-60.16999816894531 -45.82500076293945,-74.51000213623047 -14.015000343322754,-77.7699966430664 C-14.015000343322754,-77.7699966430664 -14.015000343322754,-106.98999786376953 -14.015000343322754,-106.98999786376953 C-14.015000343322754,-106.98999786376953 14.104999542236328,-106.98999786376953 14.104999542236328,-106.98999786376953 C14.104999542236328,-106.98999786376953 14.104999542236328,-77.66999816894531 14.104999542236328,-77.66999816894531 C46.35499954223633,-73.62999725341797 70.32599639892578,-55.22999954223633 70.32599639892578,-32.400001525878906 C70.32599639892578,-32.400001525878906 33.30500030517578,-32.400001525878906 33.30500030517578,-32.400001525878906 C33.30500030517578,-32.400001525878906 30.30500030517578,-46.869998931884766 14.104999542236328,-52.91999816894531 C9.824999809265137,-54.52000045776367 4.635000228881836,-55.529998779296875 -1.6749999523162842,-55.529998779296875 C-6.445000171661377,-55.529998779296875 -10.53499984741211,-55.04999923706055 -14.015000343322754,-54.22999954223633 C-27.78499984741211,-51 -32.095001220703125,-42.560001373291016 -32.095001220703125,-38.16999816894531 C-32.095001220703125,-36.25 -33.76499938964844,-27.170000076293945 -14.015000343322754,-21.079999923706055 C-9.4350004196167,-19.68000030517578 -3.7049999237060547,-18.43000030517578 3.4749999046325684,-17.469999313354492 C7.125,-16.979999542236328 10.675000190734863,-16.469999313354492 14.104999542236328,-15.90999984741211 C50.415000915527344,-10.079999923706055 73.71499633789062,-0.17000000178813934 75.09500122070312,25.389999389648438 C76.41500091552734,50.060001373291016 62.98500061035156,74.80000305175781 14.104999542236328,78.13999938964844z"></path></g></g><g style="display: block;" transform="matrix(1,0,0,1,78.76298522949219,77.7919921875)" opacity="1"><g opacity="1" transform="matrix(1,0,0,1,76.66500091552734,107.23999786376953)"><path fill="rgb(132,197,45)" fill-opacity="1" d=" M14.104999542236328,78.13999938964844 C14.104999542236328,78.13999938964844 14.104999542236328,106.98999786376953 14.104999542236328,106.98999786376953 C14.104999542236328,106.98999786376953 -14.015000343322754,106.98999786376953 -14.015000343322754,106.98999786376953 C-14.015000343322754,106.98999786376953 -14.015000343322754,77.80999755859375 -14.015000343322754,77.80999755859375 C-53.21500015258789,74.16999816894531 -73.38500213623047,56.790000915527344 -76.41600036621094,27.100000381469727 C-76.41600036621094,27.100000381469727 -39.3849983215332,27.100000381469727 -39.3849983215332,27.100000381469727 C-39.3849983215332,27.100000381469727 -35.724998474121094,45.41999816894531 -14.015000343322754,50.75 C-9.984999656677246,51.75 -5.324999809265137,52.29999923706055 0.04500000178813934,52.189998626708984 C5.414999961853027,52.08000183105469 10.074999809265137,51.68000030517578 14.104999542236328,51.060001373291016 C35.79499816894531,47.70000076293945 39.345001220703125,37.720001220703125 38.44499969482422,30.530000686645508 C37.3650016784668,21.889999389648438 27.924999237060547,17.489999771118164 14.104999542236328,14.550000190734863 C5.974999904632568,12.819999694824219 -3.6659998893737793,11.59000015258789 -14.015000343322754,10.300000190734863 C-41.44499969482422,6.869999885559082 -69.8949966430664,-2.5799999237060547 -69.8949966430664,-33.20000076293945 C-69.8949966430664,-60.16999816894531 -45.82500076293945,-74.51000213623047 -14.015000343322754,-77.7699966430664 C-14.015000343322754,-77.7699966430664 -14.015000343322754,-106.98999786376953 -14.015000343322754,-106.98999786376953 C-14.015000343322754,-106.98999786376953 14.104999542236328,-106.98999786376953 14.104999542236328,-106.98999786376953 C14.104999542236328,-106.98999786376953 14.104999542236328,-77.66999816894531 14.104999542236328,-77.66999816894531 C46.35499954223633,-73.62999725341797 70.32599639892578,-55.22999954223633 70.32599639892578,-32.400001525878906 C70.32599639892578,-32.400001525878906 33.30500030517578,-32.400001525878906 33.30500030517578,-32.400001525878906 C33.30500030517578,-32.400001525878906 30.30500030517578,-46.869998931884766 14.104999542236328,-52.91999816894531 C9.824999809265137,-54.52000045776367 4.635000228881836,-55.529998779296875 -1.6749999523162842,-55.529998779296875 C-6.445000171661377,-55.529998779296875 -10.53499984741211,-55.04999923706055 -14.015000343322754,-54.22999954223633 C-27.78499984741211,-51 -32.095001220703125,-42.560001373291016 -32.095001220703125,-38.16999816894531 C-32.095001220703125,-36.25 -33.76499938964844,-27.170000076293945 -14.015000343322754,-21.079999923706055 C-9.4350004196167,-19.68000030517578 -3.7049999237060547,-18.43000030517578 3.4749999046325684,-17.469999313354492 C7.125,-16.979999542236328 10.675000190734863,-16.469999313354492 14.104999542236328,-15.90999984741211 C50.415000915527344,-10.079999923706055 73.71499633789062,-0.17000000178813934 75.09500122070312,25.389999389648438 C76.41500091552734,50.060001373291016 62.98500061035156,74.80000305175781 14.104999542236328,78.13999938964844z"></path></g></g><g style="display: block;" transform="matrix(1,0,0,1,83.61298370361328,120.86198425292969)" opacity="1"><g opacity="1" transform="matrix(1,0,0,1,56.84600067138672,68.02999877929688)"><path fill="rgb(155,223,44)" fill-opacity="1" d=" M52.084999084472656,22.479999542236328 C48.8650016784668,16.520000457763672 40.45500183105469,13.109999656677246 29.075000762939453,10.6899995803833 C20.94499969482422,8.960000038146973 11.305000305175781,7.730000019073486 0.9549999833106995,6.440000057220459 C-21.53499984741211,3.630000114440918 -44.70500183105469,-3.2300000190734863 -52.314998626708984,-22.479999542236328 C-41.70500183105469,-9.510000228881836 -21.69499969482422,-4.309999942779541 -2.174999952316284,-1.9500000476837158 C8.545000076293945,-0.6600000262260437 18.514999389648438,0.5699999928474426 26.934999465942383,2.299999952316284 C41.23500061035156,5.239999771118164 51.005001068115234,9.640000343322754 52.125,18.280000686645508 C52.29499816894531,19.600000381469727 52.314998626708984,21.020000457763672 52.084999084472656,22.479999542236328z"></path></g><g opacity="1" transform="matrix(1,0,0,1,103.2020034790039,129.8350067138672)"><path fill="rgb(155,223,44)" fill-opacity="1" d=" M-17.2810001373291,12.475000381469727 C-17.2810001373291,12.475000381469727 -17.2810001373291,41.32500076293945 -17.2810001373291,41.32500076293945 C-17.2810001373291,41.32500076293945 -45.402000427246094,41.32500076293945 -45.402000427246094,41.32500076293945 C-45.402000427246094,41.32500076293945 -45.402000427246094,32.935001373291016 -45.402000427246094,32.935001373291016 C-45.402000427246094,32.935001373291016 -19.422000885009766,32.935001373291016 -19.422000885009766,32.935001373291016 C-19.422000885009766,32.935001373291016 -21.187000274658203,11.82800006866455 -21.187000274658203,11.82800006866455 C-21.187000274658203,7.540999889373779 -17.986000061035156,3.9059998989105225 -13.727999687194824,3.4089999198913574 C26.118999481201172,-1.2369999885559082 42.04399871826172,-20.533000946044922 43.638999938964844,-41.32500076293945 C43.65700149536133,-41.32500076293945 43.625,-41.32500076293945 43.643001556396484,-41.32500076293945 C45.4010009765625,-16.31100082397461 32.29199981689453,9.088000297546387 -17.2810001373291,12.475000381469727z"></path></g><g opacity="1" transform="matrix(1,0,0,1,30.97599983215332,125.7300033569336)"><path fill="rgb(155,223,44)" fill-opacity="1" d=" M30.72599983215332,15.920000076293945 C30.72599983215332,15.920000076293945 30.72599983215332,15.920000076293945 30.72599983215332,15.920000076293945 C2.375999927520752,12.670000076293945 -22.535999298095703,1.8600000143051147 -30.72599983215332,-15.920000076293945 C-21.389999389648438,-3.803999900817871 -1.1690000295639038,5.466000080108643 23.030000686645508,7.473999977111816 C27.395000457763672,7.835999965667725 30.72599983215332,11.539999961853027 30.72599983215332,15.920000076293945z"></path></g></g><g style="display: block;" transform="matrix(1,0,0,1,59.01298522949219,58.0419921875)" opacity="1"><g opacity="1" transform="matrix(1,0,0,1,96.41500091552734,126.98999786376953)"><path stroke-linecap="round" stroke-linejoin="round" fill-opacity="0" stroke="rgb(60,123,0)" stroke-opacity="1" stroke-width="8" d=" M14.104999542236328,78.13999938964844 C14.104999542236328,78.13999938964844 14.104999542236328,106.98999786376953 14.104999542236328,106.98999786376953 C14.104999542236328,106.98999786376953 -14.015000343322754,106.98999786376953 -14.015000343322754,106.98999786376953 C-14.015000343322754,106.98999786376953 -14.015000343322754,77.80999755859375 -14.015000343322754,77.80999755859375 C-53.21500015258789,74.16999816894531 -73.38500213623047,56.790000915527344 -76.41600036621094,27.100000381469727 C-76.41600036621094,27.100000381469727 -39.3849983215332,27.100000381469727 -39.3849983215332,27.100000381469727 C-39.3849983215332,27.100000381469727 -35.724998474121094,45.41999816894531 -14.015000343322754,50.75 C-9.984999656677246,51.75 -5.324999809265137,52.29999923706055 0.04500000178813934,52.189998626708984 C5.414999961853027,52.08000183105469 10.074999809265137,51.68000030517578 14.104999542236328,51.060001373291016 C35.79499816894531,47.70000076293945 39.345001220703125,37.720001220703125 38.44499969482422,30.530000686645508 C37.3650016784668,21.889999389648438 27.924999237060547,17.489999771118164 14.104999542236328,14.550000190734863 C5.974999904632568,12.819999694824219 -3.6659998893737793,11.59000015258789 -14.015000343322754,10.300000190734863 C-41.44499969482422,6.869999885559082 -69.8949966430664,-2.5799999237060547 -69.8949966430664,-33.20000076293945 C-69.8949966430664,-60.16999816894531 -45.82500076293945,-74.51000213623047 -14.015000343322754,-77.7699966430664 C-14.015000343322754,-77.7699966430664 -14.015000343322754,-106.98999786376953 -14.015000343322754,-106.98999786376953 C-14.015000343322754,-106.98999786376953 14.104999542236328,-106.98999786376953 14.104999542236328,-106.98999786376953 C14.104999542236328,-106.98999786376953 14.104999542236328,-77.66999816894531 14.104999542236328,-77.66999816894531 C46.35499954223633,-73.62999725341797 70.32599639892578,-55.22999954223633 70.32599639892578,-32.400001525878906 C70.32599639892578,-32.400001525878906 33.30500030517578,-32.400001525878906 33.30500030517578,-32.400001525878906 C33.30500030517578,-32.400001525878906 30.30500030517578,-46.869998931884766 14.104999542236328,-52.91999816894531 C9.824999809265137,-54.52000045776367 4.635000228881836,-55.529998779296875 -1.6749999523162842,-55.529998779296875 C-6.445000171661377,-55.529998779296875 -10.53499984741211,-55.04999923706055 -14.015000343322754,-54.22999954223633 C-27.78499984741211,-51 -32.095001220703125,-42.560001373291016 -32.095001220703125,-38.16999816894531 C-32.095001220703125,-36.25 -33.76499938964844,-27.170000076293945 -14.015000343322754,-21.079999923706055 C-9.4350004196167,-19.68000030517578 -3.7049999237060547,-18.43000030517578 3.4749999046325684,-17.469999313354492 C7.125,-16.979999542236328 10.675000190734863,-16.469999313354492 14.104999542236328,-15.90999984741211 C50.415000915527344,-10.079999923706055 73.71499633789062,-0.17000000178813934 75.09500122070312,25.389999389648438 C76.41500091552734,50.060001373291016 62.98500061035156,74.80000305175781 14.104999542236328,78.13999938964844z"></path></g></g><g style="display: none;"><g><path stroke-linecap="round" stroke-linejoin="round" fill-opacity="0"></path></g></g><g style="display: none;"><g><path></path></g></g><g style="display: none;"><g><path></path></g></g><g style="display: none;"><g><path stroke-linecap="round" stroke-linejoin="round" fill-opacity="0"></path></g></g><g style="display: none;"><g><path stroke-linecap="round" stroke-linejoin="round" fill-opacity="0"></path></g></g><g style="display: none;"><g><path></path></g></g><g style="display: none;"><g><path></path></g><g><path></path></g><g><path></path></g><g><path></path></g><g><path></path></g></g><g style="display: none;"><g><path stroke-linecap="round" stroke-linejoin="round" fill-opacity="0"></path></g></g><g style="display: block;" transform="matrix(1,0,0,1,110.4389877319336,326.9389953613281)" opacity="1"><g opacity="1" transform="matrix(1,0,0,1,56.323001861572266,56.14099884033203)"><path fill="rgb(70,70,70)" fill-opacity="1" d=" M9.0649995803833,-11.118000030517578 C9.0649995803833,-11.118000030517578 51.86800003051758,-53.91999816894531 51.86800003051758,-53.91999816894531 C51.86800003051758,-53.91999816894531 -56.07400131225586,-55.89099884033203 -56.07400131225586,-55.89099884033203 C-56.07400131225586,-55.89099884033203 -54.10200119018555,52.04800033569336 -54.10200119018555,52.04800033569336 C-54.10200119018555,52.04800033569336 -10.937000274658203,8.881999969482422 -10.937000274658203,8.881999969482422 C-10.937000274658203,8.881999969482422 45.972999572753906,55.89099884033203 45.972999572753906,55.89099884033203 C45.972999572753906,55.89099884033203 56.07400131225586,45.790000915527344 56.07400131225586,45.790000915527344 C56.07400131225586,45.790000915527344 9.0649995803833,-11.118000030517578 9.0649995803833,-11.118000030517578z"></path></g></g><g style="display: block;" transform="matrix(1,0,0,1,112.18199157714844,328.2559814453125)" opacity="1"><g opacity="1" transform="matrix(1,0,0,1,101.7490005493164,101.80899810791016)"><path fill="rgb(133,133,133)" fill-opacity="1" d=" M8.90999984741211,-1.1950000524520874 C8.90999984741211,-1.1950000524520874 -1.2000000476837158,8.904999732971191 -1.2000000476837158,8.904999732971191 C-1.2000000476837158,8.904999732971191 -8.90999984741211,2.5350000858306885 -8.90999984741211,2.5350000858306885 C-8.90999984741211,2.5350000858306885 2.5399999618530273,-8.904999732971191 2.5399999618530273,-8.904999732971191 C2.5399999618530273,-8.904999732971191 8.90999984741211,-1.1950000524520874 8.90999984741211,-1.1950000524520874z"></path></g><g opacity="1" transform="matrix(1,0,0,1,27.437999725341797,82.2030029296875)"><path fill="rgb(133,133,133)" fill-opacity="1" d=" M-27.18899917602539,12.13700008392334 C-27.18899917602539,12.13700008392334 4.369999885559082,-20.09600067138672 4.369999885559082,-20.09600067138672 C8.446999549865723,-24.3439998626709 15.131999969482422,-24.67099952697754 19.604999542236328,-20.841999053955078 C19.604999542236328,-20.841999053955078 27.18899917602539,-13.96399974822998 27.18899917602539,-13.96399974822998 C27.18899917602539,-13.96399974822998 13.883000373840332,-17.30699920654297 13.883000373840332,-17.30699920654297 C13.883000373840332,-17.30699920654297 -26.959999084472656,24.67099952697754 -26.959999084472656,24.67099952697754 C-26.959999084472656,24.67099952697754 -27.18899917602539,12.13700008392334 -27.18899917602539,12.13700008392334z"></path></g><g opacity="1" transform="matrix(1,0,0,1,82.07499694824219,27.437999725341797)"><path fill="rgb(133,133,133)" fill-opacity="1" d=" M12.13700008392334,-27.18899917602539 C12.13700008392334,-27.18899917602539 -20.09600067138672,4.370999813079834 -20.09600067138672,4.370999813079834 C-24.3439998626709,8.447999954223633 -24.67099952697754,15.131999969482422 -20.841999053955078,19.604999542236328 C-20.841999053955078,19.604999542236328 -13.96399974822998,27.18899917602539 -13.96399974822998,27.18899917602539 C-13.96399974822998,27.18899917602539 -17.30699920654297,13.883999824523926 -17.30699920654297,13.883999824523926 C-17.30699920654297,13.883999824523926 24.67099952697754,-26.959999084472656 24.67099952697754,-26.959999084472656 C24.67099952697754,-26.959999084472656 12.13700008392334,-27.18899917602539 12.13700008392334,-27.18899917602539z"></path></g></g><g style="display: none;"><g><path></path></g><g><path stroke-linecap="round" stroke-linejoin="round" fill-opacity="0"></path></g><g><path stroke-linecap="round" stroke-linejoin="round" fill-opacity="0"></path></g></g><g style="display: block;" transform="matrix(1,0,0,1,90.73098754882812,307.22998046875)" opacity="1"><g opacity="1" transform="matrix(1,0,0,1,76.052001953125,75.87100219726562)"><path stroke-linecap="round" stroke-linejoin="round" fill-opacity="0" stroke="rgb(29,29,27)" stroke-opacity="1" stroke-width="8" d=" M9.043999671936035,-11.138999938964844 C9.043999671936035,-11.138999938964844 51.84600067138672,-53.941001892089844 51.84600067138672,-53.941001892089844 C51.84600067138672,-53.941001892089844 -51.07500076293945,-55.82099914550781 -51.07500076293945,-55.82099914550781 C-53.81700134277344,-55.87099838256836 -56.053001403808594,-53.63399887084961 -56.00299835205078,-50.891998291015625 C-56.00299835205078,-50.891998291015625 -54.124000549316406,52.02799987792969 -54.124000549316406,52.02799987792969 C-54.124000549316406,52.02799987792969 -10.958000183105469,8.862000465393066 -10.958000183105469,8.862000465393066 C-10.958000183105469,8.862000465393066 45.95100021362305,55.87099838256836 45.95100021362305,55.87099838256836 C45.95100021362305,55.87099838256836 56.051998138427734,45.77000045776367 56.051998138427734,45.77000045776367 C56.051998138427734,45.77000045776367 9.043999671936035,-11.138999938964844 9.043999671936035,-11.138999938964844z"></path></g></g><g style="display: block;" transform="matrix(1,0,0,1,289.61700439453125,87.68798828125)" opacity="1"><g opacity="1" transform="matrix(1,0,0,1,56.323001861572266,56.141998291015625)"><path fill="rgb(70,70,70)" fill-opacity="1" d=" M-9.064000129699707,11.118000030517578 C-9.064000129699707,11.118000030517578 -51.86800003051758,53.91999816894531 -51.86800003051758,53.91999816894531 C-51.86800003051758,53.91999816894531 56.07400131225586,55.89099884033203 56.07400131225586,55.89099884033203 C56.07400131225586,55.89099884033203 54.10200119018555,-52.04899978637695 54.10200119018555,-52.04899978637695 C54.10200119018555,-52.04899978637695 10.935999870300293,-8.881999969482422 10.935999870300293,-8.881999969482422 C10.935999870300293,-8.881999969482422 -45.972999572753906,-55.89099884033203 -45.972999572753906,-55.89099884033203 C-45.972999572753906,-55.89099884033203 -56.07400131225586,-45.79100036621094 -56.07400131225586,-45.79100036621094 C-56.07400131225586,-45.79100036621094 -9.064000129699707,11.118000030517578 -9.064000129699707,11.118000030517578z"></path></g></g><g style="display: block;" transform="matrix(1,0,0,1,293.82000732421875,184.86697387695312)" opacity="1"><g opacity="1" transform="matrix(1,0,0,1,54.220001220703125,8.902000427246094)"><path fill="rgb(133,133,133)" fill-opacity="1" d=" M53.970001220703125,5.947999954223633 C53.970001220703125,5.947999954223633 -53.970001220703125,4.133999824523926 -53.970001220703125,4.133999824523926 C-53.970001220703125,4.133999824523926 -43.02000045776367,-5.947999954223633 -43.02000045776367,-5.947999954223633 C-43.02000045776367,-5.947999954223633 53.75899887084961,-4.540999889373779 53.75899887084961,-4.540999889373779 C53.75899887084961,-4.540999889373779 53.970001220703125,5.947999954223633 53.970001220703125,5.947999954223633z"></path></g><g opacity="1" transform="matrix(1,0,0,1,0,0)"><path stroke-linecap="round" stroke-linejoin="round" fill-opacity="0" stroke="rgb(255,255,255)" stroke-opacity="1" stroke-width="6" d="M0 0"></path></g><g opacity="1" transform="matrix(1,0,0,1,0,0)"><path stroke-linecap="round" stroke-linejoin="round" fill-opacity="0" stroke="rgb(255,255,255)" stroke-opacity="1" stroke-width="6" d="M0 0"></path></g></g><g style="display: none;"><g><path></path></g><g><path></path></g><g><path></path></g></g><g style="display: block;" transform="matrix(1,0,0,1,269.86700439453125,67.93798828125)" opacity="1"><g opacity="1" transform="matrix(1,0,0,1,76.052001953125,75.87100219726562)"><path stroke-linecap="round" stroke-linejoin="round" fill-opacity="0" stroke="rgb(29,29,27)" stroke-opacity="1" stroke-width="8" d=" M-9.043000221252441,11.138999938964844 C-9.043000221252441,11.138999938964844 -51.84600067138672,53.941001892089844 -51.84600067138672,53.941001892089844 C-51.84600067138672,53.941001892089844 51.07400131225586,55.82099914550781 51.07400131225586,55.82099914550781 C53.816001892089844,55.87099838256836 56.053001403808594,53.6349983215332 56.00299835205078,50.891998291015625 C56.00299835205078,50.891998291015625 54.124000549316406,-52.02799987792969 54.124000549316406,-52.02799987792969 C54.124000549316406,-52.02799987792969 10.956999778747559,-8.862000465393066 10.956999778747559,-8.862000465393066 C10.956999778747559,-8.862000465393066 -45.95199966430664,-55.87099838256836 -45.95199966430664,-55.87099838256836 C-45.95199966430664,-55.87099838256836 -56.051998138427734,-45.77000045776367 -56.051998138427734,-45.77000045776367 C-56.051998138427734,-45.77000045776367 -9.043000221252441,11.138999938964844 -9.043000221252441,11.138999938964844z"></path></g></g><g style="display: block;" transform="matrix(1,0,0,1,293.82000732421875,184.86697387695312)" opacity="1"><g opacity="1" transform="matrix(1,0,0,1,0,0)"><path stroke-linecap="round" stroke-linejoin="round" fill-opacity="0" stroke="rgb(255,255,255)" stroke-opacity="1" stroke-width="5" d=" M54.11199951171875,3.2279999256134033 C60.590999603271484,3.2330000400543213 67.23699951171875,3.239000082015991 73.35800170898438,3.24399995803833"></path></g></g><g style="display: block;" transform="matrix(1,0,0,1,293.82000732421875,184.86697387695312)" opacity="1"><g opacity="1" transform="matrix(1,0,0,1,0,0)"><path stroke-linecap="round" stroke-linejoin="round" fill-opacity="0" stroke="rgb(255,255,255)" stroke-opacity="1" stroke-width="5" d=" M84.58499908447266,3.253000020980835 C85.7040023803711,3.253999948501587 86.7760009765625,3.255000114440918 87.79399871826172,3.25600004196167"></path></g></g><g style="display: block;" transform="matrix(-1,0,0,-1,218.8839874267578,342.04296875)" opacity="1"><g opacity="1" transform="matrix(1,0,0,1,0,0)"><path stroke-linecap="round" stroke-linejoin="round" fill-opacity="0" stroke="rgb(255,255,255)" stroke-opacity="1" stroke-width="5" d="M0 0"></path></g></g><g style="display: block;" transform="matrix(-1,0,0,-1,218.8839874267578,342.04296875)" opacity="1"><g opacity="1" transform="matrix(1,0,0,1,0,0)"><path stroke-linecap="round" stroke-linejoin="round" fill-opacity="0" stroke="rgb(255,255,255)" stroke-opacity="1" stroke-width="5" d="M0 0"></path></g></g><g style="display: none;"><g><path stroke-linecap="round" stroke-linejoin="round" fill-opacity="0"></path></g></g><g style="display: none;"><g><path></path></g></g><g style="display: none;"><g><path></path></g></g><g style="display: none;"><g><path stroke-linecap="round" stroke-linejoin="round" fill-opacity="0"></path></g></g><g style="display: none;"><g><path stroke-linecap="round" stroke-linejoin="round" fill-opacity="0"></path></g></g><g style="display: none;"><g><path></path></g></g><g style="display: none;"><g><path></path></g><g><path></path></g><g><path></path></g><g><path></path></g><g><path></path></g></g><g style="display: none;"><g><path stroke-linecap="round" stroke-linejoin="round" fill-opacity="0"></path></g></g><g style="display: none;"><g><path stroke-linecap="round" stroke-linejoin="round" fill-opacity="0"></path></g></g><g style="display: none;"><g><path></path></g></g><g style="display: none;"><g><path></path></g></g><g style="display: none;"><g><path stroke-linecap="round" stroke-linejoin="round" fill-opacity="0"></path></g></g><g style="display: none;"><g><path stroke-linecap="round" stroke-linejoin="round" fill-opacity="0"></path></g></g><g style="display: none;"><g><path></path></g></g><g style="display: none;"><g><path></path></g><g><path></path></g><g><path></path></g></g><g style="display: none;"><g><path stroke-linecap="round" stroke-linejoin="round" fill-opacity="0"></path></g></g><g style="display: none;"><g><path></path></g></g><g style="display: none;"><g><path></path></g><g><path></path></g><g><path></path></g></g><g style="display: none;"><g><path></path></g><g><path stroke-linecap="round" stroke-linejoin="round" fill-opacity="0"></path></g><g><path stroke-linecap="round" stroke-linejoin="round" fill-opacity="0"></path></g></g><g style="display: none;"><g><path stroke-linecap="round" stroke-linejoin="round" fill-opacity="0"></path></g></g><g style="display: none;"><g><path></path></g></g><g style="display: none;"><g><path></path></g><g><path stroke-linecap="round" stroke-linejoin="round" fill-opacity="0"></path></g><g><path stroke-linecap="round" stroke-linejoin="round" fill-opacity="0"></path></g></g><g style="display: none;"><g><path></path></g><g><path></path></g><g><path></path></g></g><g style="display: none;"><g><path stroke-linecap="round" stroke-linejoin="round" fill-opacity="0"></path></g></g><g style="display: none;"><g><path stroke-linecap="round" stroke-linejoin="round" fill-opacity="0"></path></g></g><g style="display: none;"><g><path stroke-linecap="round" stroke-linejoin="round" fill-opacity="0"></path></g></g><g style="display: none;"><g><path stroke-linecap="round" stroke-linejoin="round" fill-opacity="0"></path></g></g><g style="display: none;"><g><path stroke-linecap="round" stroke-linejoin="round" fill-opacity="0"></path></g></g></g></svg>