<svg xmlns="http://www.w3.org/2000/svg" viewBox="0 0 512 512" width="512" height="512" style="width: 100%; height: 100%; transform: translate3d(0,0,0);" preserveAspectRatio="xMidYMid meet"><defs><clipPath id="__lottie_element_10967"><rect width="512" height="512" x="0" y="0"></rect></clipPath></defs><g clip-path="url(#__lottie_element_10967)"><g style="display: block;" transform="matrix(1,0,0,1,256,255.99998474121094)" opacity="1"><g opacity="1" transform="matrix(1,0,0,1,0,0)"><path fill="rgb(237,177,53)" fill-opacity="1" d=" M-49.99599838256836,-156.2050018310547 C-71.85900115966797,-178.30099487304688 -139.125,-216.6909942626953 -152.57000732421875,-209.3719940185547 C-166.66700744628906,-201.697998046875 -167.18899536132812,-126.51499938964844 -155.96099853515625,-74.50700378417969 C-144.73300170898438,-22.499000549316406 0.9879999756813049,-104.67900085449219 -49.99599838256836,-156.2050018310547z"></path><path stroke-linecap="butt" stroke-linejoin="miter" fill-opacity="0" stroke-miterlimit="10" stroke="rgb(158,94,13)" stroke-opacity="1" stroke-width="8" d=" M-49.99599838256836,-156.2050018310547 C-71.85900115966797,-178.30099487304688 -139.125,-216.6909942626953 -152.57000732421875,-209.3719940185547 C-166.66700744628906,-201.697998046875 -167.18899536132812,-126.51499938964844 -155.96099853515625,-74.50700378417969 C-144.73300170898438,-22.499000549316406 0.9879999756813049,-104.67900085449219 -49.99599838256836,-156.2050018310547z"></path></g><g opacity="1" transform="matrix(1,0,0,1,0,0)"><path fill="rgb(173,101,14)" fill-opacity="1" d=" M-75.78700256347656,-155.4770050048828 C-89.6760025024414,-169.51400756835938 -132.40699768066406,-193.90199279785156 -140.947998046875,-189.2519989013672 C-149.9029998779297,-184.3769989013672 -150.23399353027344,-136.61700439453125 -143.1020050048828,-103.5780029296875 C-135.97000122070312,-70.54000091552734 -43.39899826049805,-122.74500274658203 -75.78700256347656,-155.4770050048828z"></path></g></g><g style="display: block;" transform="matrix(1,0,0,1,256,255.99998474121094)" opacity="1"><g opacity="1" transform="matrix(1,0,0,1,0,0)"><path fill="rgb(237,177,53)" fill-opacity="1" d=" M50.119998931884766,-156.2050018310547 C71.98300170898438,-178.30099487304688 139.25,-216.6909942626953 152.69500732421875,-209.3719940185547 C166.79200744628906,-201.697998046875 167.31300354003906,-126.51499938964844 156.0850067138672,-74.50700378417969 C144.85699462890625,-22.499000549316406 -0.8640000224113464,-104.67900085449219 50.119998931884766,-156.2050018310547z"></path><path stroke-linecap="butt" stroke-linejoin="miter" fill-opacity="0" stroke-miterlimit="10" stroke="rgb(158,94,13)" stroke-opacity="1" stroke-width="8" d=" M50.119998931884766,-156.2050018310547 C71.98300170898438,-178.30099487304688 139.25,-216.6909942626953 152.69500732421875,-209.3719940185547 C166.79200744628906,-201.697998046875 167.31300354003906,-126.51499938964844 156.0850067138672,-74.50700378417969 C144.85699462890625,-22.499000549316406 -0.8640000224113464,-104.67900085449219 50.119998931884766,-156.2050018310547z"></path></g><g opacity="1" transform="matrix(1,0,0,1,0,0)"><path fill="rgb(173,101,14)" fill-opacity="1" d=" M75.91100311279297,-155.4770050048828 C89.80000305175781,-169.51400756835938 132.531005859375,-193.90199279785156 141.07200622558594,-189.2519989013672 C150.02699279785156,-184.3769989013672 150.35899353027344,-136.61700439453125 143.2259979248047,-103.5780029296875 C136.093994140625,-70.54000091552734 43.52299880981445,-122.74500274658203 75.91100311279297,-155.4770050048828z"></path></g></g><g style="display: block;" transform="matrix(1,0,0,1,256,255.99998474121094)" opacity="1"><g opacity="0.1" transform="matrix(1,0,0,1,0,0)"><path fill="rgb(0,0,0)" fill-opacity="1" d=" M194.77000427246094,20.03499984741211 C190.26600646972656,-6.607999801635742 171.23899841308594,-80.4020004272461 124.86799621582031,-119.05999755859375 C96.03500366210938,-143.0970001220703 56.79499816894531,-156.64100646972656 0.8050000071525574,-156.64100646972656 C0.6309999823570251,-156.64100646972656 0.11400000005960464,-156.64100646972656 -0.05999999865889549,-156.64100646972656 C-56.04999923706055,-156.64100646972656 -95.29000091552734,-143.0970001220703 -124.12300109863281,-119.05999755859375 C-170.4949951171875,-80.4020004272461 -189.52099609375,-6.607999801635742 -194.02499389648438,20.03499984741211 C-197.822998046875,42.50600051879883 -198.1929931640625,69.11000061035156 -188.96200561523438,90.33999633789062 C-159.22999572753906,158.7220001220703 -44.79199981689453,218.218994140625 -0.05999999865889549,218.218994140625 C0.11400000005960464,218.218994140625 0.6309999823570251,218.218994140625 0.8050000071525574,218.218994140625 C44.67100143432617,218.218994140625 159.9739990234375,158.7220001220703 189.70599365234375,90.33999633789062 C198.93600463867188,69.11000061035156 198.56900024414062,42.50600051879883 194.77000427246094,20.03499984741211z"></path></g><g opacity="1" transform="matrix(1,0,0,1,0,0)"><path fill="rgb(250,192,62)" fill-opacity="1" d=" M184.66200256347656,6.593999862670898 C180.39199829101562,-18.663000106811523 162.35499572753906,-88.62100219726562 118.3949966430664,-125.26899719238281 C91.06099700927734,-148.05599975585938 53.861000061035156,-160.89599609375 0.7820000052452087,-160.89599609375 C0.6169999837875366,-160.89599609375 0.12700000405311584,-160.89599609375 -0.03799999877810478,-160.89599609375 C-53.117000579833984,-160.89599609375 -90.31600189208984,-148.05599975585938 -117.6500015258789,-125.26899719238281 C-161.61099243164062,-88.62100219726562 -179.6479949951172,-18.663000106811523 -183.91799926757812,6.593999862670898 C-187.5189971923828,27.89699935913086 -187.86900329589844,53.11800003051758 -179.1179962158203,73.24400329589844 C-150.9320068359375,138.07000732421875 -42.444000244140625,194.4739990234375 -0.03799999877810478,194.4739990234375 C0.12700000405311584,194.4739990234375 0.6169999837875366,194.4739990234375 0.7820000052452087,194.4739990234375 C42.367000579833984,194.4739990234375 151.67599487304688,138.07000732421875 179.86199951171875,73.24400329589844 C188.61300659179688,53.11800003051758 188.26300048828125,27.89699935913086 184.66200256347656,6.593999862670898z"></path><path stroke-linecap="butt" stroke-linejoin="miter" fill-opacity="0" stroke-miterlimit="10" stroke="rgb(194,124,33)" stroke-opacity="1" stroke-width="8" d=" M184.66200256347656,6.593999862670898 C180.39199829101562,-18.663000106811523 162.35499572753906,-88.62100219726562 118.3949966430664,-125.26899719238281 C91.06099700927734,-148.05599975585938 53.861000061035156,-160.89599609375 0.7820000052452087,-160.89599609375 C0.6169999837875366,-160.89599609375 0.12700000405311584,-160.89599609375 -0.03799999877810478,-160.89599609375 C-53.117000579833984,-160.89599609375 -90.31600189208984,-148.05599975585938 -117.6500015258789,-125.26899719238281 C-161.61099243164062,-88.62100219726562 -179.6479949951172,-18.663000106811523 -183.91799926757812,6.593999862670898 C-187.5189971923828,27.89699935913086 -187.86900329589844,53.11800003051758 -179.1179962158203,73.24400329589844 C-150.9320068359375,138.07000732421875 -42.444000244140625,194.4739990234375 -0.03799999877810478,194.4739990234375 C0.12700000405311584,194.4739990234375 0.6169999837875366,194.4739990234375 0.7820000052452087,194.4739990234375 C42.367000579833984,194.4739990234375 151.67599487304688,138.07000732421875 179.86199951171875,73.24400329589844 C188.61300659179688,53.11800003051758 188.26300048828125,27.89699935913086 184.66200256347656,6.593999862670898z"></path></g><g opacity="1" transform="matrix(1,0,0,1,0,0)"><path fill="rgb(252,225,70)" fill-opacity="1" d=" M167.26699829101562,7.557000160217285 C163.39999389648438,-15.315999984741211 147.0659942626953,-78.6709976196289 107.25499725341797,-111.86000061035156 C82.5009994506836,-132.49600219726562 48.8129997253418,-144.12399291992188 0.7440000176429749,-144.12399291992188 C0.5950000286102295,-144.12399291992188 0.1509999930858612,-144.12399291992188 0.0010000000474974513,-144.12399291992188 C-48.06800079345703,-144.12399291992188 -81.75599670410156,-132.49600219726562 -106.51000213623047,-111.86000061035156 C-146.3209991455078,-78.6709976196289 -162.656005859375,-15.315999984741211 -166.5229949951172,7.557000160217285 C-169.78399658203125,26.849000930786133 -170.1009979248047,49.6879997253418 -162.17599487304688,67.91500091552734 C-136.64999389648438,126.62200164794922 -38.402000427246094,177.7030029296875 0.0010000000474974513,177.7030029296875 C0.1509999930858612,177.7030029296875 0.5950000286102295,177.7030029296875 0.7440000176429749,177.7030029296875 C38.40399932861328,177.7030029296875 137.3939971923828,126.62200164794922 162.9199981689453,67.91500091552734 C170.843994140625,49.6879997253418 170.5279998779297,26.849000930786133 167.26699829101562,7.557000160217285z"></path></g><g opacity="0.9" transform="matrix(1,0,0,1,0,0)"><path fill="rgb(252,235,113)" fill-opacity="1" d=" M123.60900115966797,-11.321000099182129 C138.4600067138672,-26.172000885009766 133.3470001220703,-84.48500061035156 97.25900268554688,-114.56999969482422 C74.81999969482422,-133.2760009765625 44.28200149536133,-143.81700134277344 0.7089999914169312,-143.81700134277344 C0.5740000009536743,-143.81700134277344 0.17100000381469727,-143.81700134277344 0.035999998450279236,-143.81700134277344 C-43.53799819946289,-143.81700134277344 -74.07599639892578,-133.2760009765625 -96.51499938964844,-114.56999969482422 C-132.60400390625,-84.48500061035156 -138.92100524902344,-26.749000549316406 -123.49299621582031,-11.321000099182129 C-106.29000091552734,5.881999969482422 -73.71800231933594,-26.069000244140625 0.061000000685453415,-26.05699920654297 C74.0469970703125,-26.045000076293945 106.02799987792969,6.260000228881836 123.60900115966797,-11.321000099182129z"></path></g><g opacity="1" transform="matrix(1,0,0,1,0,0)"><g opacity="1" transform="matrix(1,0,0,1,0,0)"><path stroke-linecap="round" stroke-linejoin="round" fill-opacity="0" stroke="rgb(255,255,255)" stroke-opacity="1" stroke-width="6" d=" M46.667999267578125,-139.9810028076172 C48.183998107910156,-139.66200256347656 49.75600051879883,-139.30999755859375 51.37799835205078,-138.92100524902344"></path></g><g opacity="1" transform="matrix(1,0,0,1,0,0)"><path stroke-linecap="round" stroke-linejoin="round" fill-opacity="0" stroke="rgb(255,255,255)" stroke-opacity="1" stroke-width="6" d=" M25.634000778198242,-142.97500610351562 C25.634000778198242,-142.97500610351562 30.42300033569336,-142.76600646972656 38.03099822998047,-141.56900024414062"></path></g></g></g><g style="display: block;" transform="matrix(1,0,0,1,256,255.99998474121094)" opacity="1"><g opacity="1" transform="matrix(1,0,0,1,0,0)"><g opacity="1" transform="matrix(1,0,0,1,0,0)"><g opacity="1" transform="matrix(1,0,0,1,0,0)"><path fill="rgb(248,231,168)" fill-opacity="1" d=" M87.47699737548828,-72.17500305175781 C86.7490005493164,-71.44999694824219 85.62899780273438,-71.72200012207031 85.36699676513672,-72.69999694824219 C83.33599853515625,-80.28800201416016 74.93299865722656,-104.87100219726562 51.34199905395508,-104.71499633789062 C22.704999923706055,-104.5250015258789 6.340000152587891,-77.87999725341797 14.611000061035156,-46.349998474121094 C21.54199981689453,-19.92799949645996 31.589000701904297,3.693000078201294 48.91600036621094,27.204999923706055 C49.9379997253418,28.590999603271484 51.63399887084961,29.180999755859375 53.29899978637695,28.73200035095215 C63.67300033569336,25.93199920654297 101.89199829101562,11.114999771118164 123.60900115966797,-6.343999862670898 C156.24200439453125,-32.57899856567383 151.11599731445312,-59.862998962402344 136.9080047607422,-73.08599853515625 C123.97000122070312,-85.12699890136719 101.60700225830078,-86.24299621582031 87.47699737548828,-72.17500305175781z"></path></g></g></g></g><g style="display: block;" transform="matrix(1,0,0,1,256,255.99998474121094)" opacity="1"><g opacity="1" transform="matrix(1,0,0,1,0,0)"><g opacity="1" transform="matrix(1,0,0,1,0,0)"><g opacity="1" transform="matrix(1,0,0,1,0,0)"><path fill="rgb(248,231,168)" fill-opacity="1" d=" M-87.36199951171875,-71.72200012207031 C-86.63400268554688,-70.99700164794922 -85.51399993896484,-71.2699966430664 -85.25199890136719,-72.24700164794922 C-83.22100067138672,-79.83499908447266 -74.81700134277344,-104.41899871826172 -51.22600173950195,-104.26200103759766 C-22.589000701904297,-104.0719985961914 -6.223999977111816,-77.427001953125 -14.494999885559082,-45.89699935913086 C-21.426000595092773,-19.475000381469727 -31.472000122070312,4.145999908447266 -48.79999923706055,27.658000946044922 C-49.821998596191406,29.04400062561035 -51.51900100708008,29.634000778198242 -53.183998107910156,29.184999465942383 C-63.55799865722656,26.385000228881836 -101.7760009765625,11.567999839782715 -123.49299621582031,-5.890999794006348 C-156.12600708007812,-32.125999450683594 -151,-59.40999984741211 -136.79200744628906,-72.63300323486328 C-123.85399627685547,-84.67500305175781 -101.49199676513672,-85.79000091552734 -87.36199951171875,-71.72200012207031z"></path></g></g></g></g><g style="display: block;" transform="matrix(1,0,0,1,256,255.99998474121094)" opacity="1"><g opacity="1" transform="matrix(1,0,0,1,0,0)"><g opacity="1" transform="matrix(1,0,0,1,0,0)"><g opacity="1" transform="matrix(1,0,0,1,0,0)"><path fill="rgb(238,190,73)" fill-opacity="1" d=" M91.86000061035156,-89.93099975585938 C90.97100067138672,-89.33699798583984 89.93699645996094,-89.45999908447266 89.66500091552734,-90.47699737548828 C87.552001953125,-98.36799621582031 77.79499816894531,-117.62100219726562 53.25899887084961,-117.45800018310547 C23.475000381469727,-117.26000213623047 7.690000057220459,-86.64299774169922 13.057000160217285,-59.755001068115234 C18.618000030517578,-31.895000457763672 33.972999572753906,-8.878999710083008 51.99399948120117,15.574000358581543 C53.05699920654297,17.016000747680664 54.7760009765625,17.40399932861328 56.553001403808594,17.16200065612793 C71.89299774169922,15.074000358581543 109.10399627685547,1.065000057220459 132.42100524902344,-16.14699935913086 C161.0240020751953,-37.2599983215332 156.8800048828125,-71.64800262451172 142.2530059814453,-85.56099700927734 C129.1490020751953,-98.0250015258789 110.15699768066406,-102.15299987792969 91.86000061035156,-89.93099975585938z"></path></g></g></g></g><g style="display: block;" transform="matrix(1,0,0,1,256,255.99998474121094)" opacity="1"><g opacity="1" transform="matrix(1,0,0,1,0,0)"><g opacity="1" transform="matrix(1,0,0,1,0,0)"><g opacity="1" transform="matrix(1,0,0,1,0,0)"><path fill="rgb(238,190,73)" fill-opacity="1" d=" M-91.74400329589844,-89.47799682617188 C-90.8550033569336,-88.88400268554688 -89.8219985961914,-89.00700378417969 -89.55000305175781,-90.02400207519531 C-87.43699645996094,-97.91500091552734 -77.67900085449219,-117.16799926757812 -53.143001556396484,-117.00499725341797 C-23.358999252319336,-116.80699920654297 -7.574999809265137,-86.19000244140625 -12.942000389099121,-59.301998138427734 C-18.503000259399414,-31.441999435424805 -33.858001708984375,-8.425999641418457 -51.87900161743164,16.027000427246094 C-52.94200134277344,17.4689998626709 -54.6609992980957,17.85700035095215 -56.4379997253418,17.614999771118164 C-71.77799987792969,15.527000427246094 -108.98799896240234,1.5180000066757202 -132.30499267578125,-15.694000244140625 C-160.9080047607422,-36.80699920654297 -156.76400756835938,-71.1969985961914 -142.13699340820312,-85.10900115966797 C-129.0330047607422,-97.572998046875 -110.04100036621094,-101.69999694824219 -91.74400329589844,-89.47799682617188z"></path></g></g></g></g><g style="display: block;" transform="matrix(1,0,0,1,256,255.99998474121094)" opacity="1"><g opacity="1" transform="matrix(1,0,0,1,0,0)"><g opacity="1" transform="matrix(1,0,0,1,0,0)"><g opacity="1" transform="matrix(1,0,0,1,0,0)"><path fill="rgb(223,0,0)" fill-opacity="1" d=" M87.53399658203125,-74.96600341796875 C86.88200378417969,-74.31700134277344 85.87899780273438,-74.56099700927734 85.6449966430664,-75.43599700927734 C83.82599639892578,-82.2300033569336 76.30000305175781,-104.24500274658203 55.17499923706055,-104.1050033569336 C29.5310001373291,-103.93499755859375 17.663000106811523,-74.98999786376953 22.284000396728516,-51.84000015258789 C27.07200050354004,-27.85300064086914 37.48699951171875,-7.0269999504089355 53.00299835205078,14.027000427246094 C53.917999267578125,15.269000053405762 55.4370002746582,15.795999526977539 56.928001403808594,15.394000053405762 C66.21800231933594,12.88599967956543 100.81800079345703,0.07500000298023224 119.88899993896484,-16.016000747680664 C142.17799377441406,-34.82099914550781 144.52099609375,-63.939998626708984 131.79800415039062,-75.78099822998047 C120.21199798583984,-86.56400299072266 100.18800354003906,-87.56400299072266 87.53399658203125,-74.96600341796875z"></path></g><g opacity="1" transform="matrix(1,0,0,1,0,0)"><path fill="rgb(244,0,0)" fill-opacity="1" d=" M139.343994140625,-58.981998443603516 C138.2010040283203,-47.76300048828125 132.28700256347656,-35.277000427246094 120.875,-25.65399932861328 C117.20800018310547,-22.559999465942383 112.5260009765625,-19.583999633789062 107.38700103759766,-16.80500030517578 C78.8499984741211,-1.3730000257492065 45.65599822998047,-13.430999755859375 33.358001708984375,-43.457000732421875 C31.152999877929688,-48.84000015258789 29.29199981689453,-54.3390007019043 28.04199981689453,-59.733001708984375 C25.17099952697754,-72.12300109863281 28.111000061035156,-86.53900146484375 35.268001556396484,-96.58100128173828 C35.27799987792969,-96.58100128173828 35.27799987792969,-96.59100341796875 35.27899932861328,-96.60099792480469 C40.51900100708008,-101.20600128173828 47.178001403808594,-104.05699920654297 55.18000030517578,-104.10900115966797 C76.29900360107422,-104.24199676513672 83.83000183105469,-82.22899627685547 85.64399719238281,-75.43499755859375 C85.87799835205078,-74.56500244140625 86.88400268554688,-74.3219985961914 87.53299713134766,-74.96399688720703 C100.18900299072266,-87.56600189208984 120.21399688720703,-86.56300354003906 131.802001953125,-75.78099822998047 C136.0919952392578,-71.7979965209961 138.66799926757812,-65.83999633789062 139.343994140625,-58.981998443603516z"></path></g><g opacity="0.4" transform="matrix(1,0,0,1,0,0)"><g opacity="0.3" transform="matrix(1,0,0,1,0,0)"><path fill="rgb(233,168,168)" fill-opacity="1" d=" M84.46900177001953,-82.05699920654297 C84.46900177001953,-82.05699920654297 84.46800231933594,-82.0469970703125 84.46800231933594,-82.0469970703125 C84.28199768066406,-78.5979995727539 85.23600006103516,-80.03199768066406 84.12000274658203,-76.47899627685547 C78.30899810791016,-58.029998779296875 61.66600036621094,-46.71900177001953 46.939998626708984,-51.215999603271484 C37.33100128173828,-54.14799880981445 30.930999755859375,-63.077999114990234 29.2450008392334,-74.0479965209961 C28.93400001525879,-83.7229995727539 30.03700065612793,-88.74199676513672 35.16699981689453,-96.39700317382812 C35.176998138427734,-96.39700317382812 35.17599868774414,-96.40799713134766 35.176998138427734,-96.41799926757812 C37.582000732421875,-98.6760025024414 40.316001892089844,-100.54000091552734 43.380001068115234,-101.91799926757812 C46.80799865722656,-103.48200225830078 50.65299987792969,-104.42400360107422 54.888999938964844,-104.5999984741211 C66.03199768066406,-105.05500030517578 73.58699798583984,-99.25299835205078 78.5250015258789,-92.66500091552734 C81.23100280761719,-89.05999755859375 83.16300201416016,-85.22699737548828 84.46900177001953,-82.05699920654297z"></path></g><g opacity="0.4" transform="matrix(1,0,0,1,0,0)"><path fill="rgb(233,168,168)" fill-opacity="1" d=" M80.78500366210938,-78.85099792480469 C75.9219970703125,-63.40599822998047 61.992000579833984,-53.939998626708984 49.67499923706055,-57.70100021362305 C37.3489990234375,-61.46200180053711 31.30500030517578,-77.03099822998047 36.16699981689453,-92.46499633789062 C38.15999984741211,-98.79399871826172 40.084999084472656,-99.13099670410156 44.395999908447266,-102.9530029296875 C47.82400131225586,-104.51699829101562 51.66899871826172,-105.45999908447266 55.904998779296875,-105.63600158691406 C67.0479965209961,-106.09100341796875 74.60299682617188,-100.28900146484375 79.54100036621094,-93.70099639892578 C81.36100006103516,-87.78600311279297 82.97799682617188,-85.802001953125 80.78500366210938,-78.85099792480469z"></path></g><g opacity="0.4" transform="matrix(1,0,0,1,0,0)"><path fill="rgb(233,168,168)" fill-opacity="1" d=" M51.374000549316406,-63.93899917602539 C41.34400177001953,-67 36.42100143432617,-79.66799926757812 40.37799835205078,-92.23400115966797 C44.334999084472656,-104.80000305175781 54.08000183105469,-107.51799774169922 64.11000061035156,-104.45700073242188 C74.13999938964844,-101.39600372314453 80.65699768066406,-93.71600341796875 76.69999694824219,-81.1500015258789 C72.74299621582031,-68.58399963378906 61.40399932861328,-60.87799835205078 51.374000549316406,-63.93899917602539z"></path></g><g opacity="0.4" transform="matrix(1,0,0,1,0,0)"><path fill="rgb(233,168,168)" fill-opacity="1" d=" M54.316001892089844,-71.9229965209961 C46.891998291015625,-74.18900299072266 43.249000549316406,-83.56500244140625 46.178001403808594,-92.86599731445312 C49.106998443603516,-102.16699981689453 55.904998779296875,-102.88300323486328 63.32899856567383,-100.61699676513672 C70.75299835205078,-98.35099792480469 75.99099731445312,-93.96199798583984 73.06199645996094,-84.66100311279297 C70.13300323486328,-75.36000061035156 61.7400016784668,-69.65699768066406 54.316001892089844,-71.9229965209961z"></path></g><g opacity="0.4" transform="matrix(1,0,0,1,0,0)"><path fill="rgb(233,168,168)" fill-opacity="1" d=" M57.00699996948242,-82.74700164794922 C52.944000244140625,-83.98699951171875 50.95100021362305,-89.11699676513672 52.55400085449219,-94.20700073242188 C54.15700149536133,-99.2969970703125 57.15399932861328,-97.43099975585938 61.21699905395508,-96.19100189208984 C65.27999877929688,-94.95099639892578 68.86799621582031,-94.80699920654297 67.26499938964844,-89.71700286865234 C65.66200256347656,-84.62699890136719 61.069000244140625,-81.50700378417969 57.00699996948242,-82.74700164794922z"></path></g></g><g opacity="0.4" transform="matrix(1,0,0,1,0,0)"><g opacity="0.3" transform="matrix(1,0,0,1,0,0)"><path fill="rgb(233,168,168)" fill-opacity="1" d=" M139.93899536132812,-64.4749984741211 C139.79600524902344,-62.47600173950195 142.343994140625,-60.334999084472656 141.89199829101562,-58.27399826049805 C141.89100646972656,-58.25299835205078 141.88900756835938,-58.22200012207031 141.8769989013672,-58.191001892089844 C141.7169952392578,-57.60100173950195 141.54600524902344,-57 141.35699462890625,-56.40999984741211 C135.54600524902344,-37.96099853515625 118.90299987792969,-26.649999618530273 104.177001953125,-31.14699935913086 C89.44999694824219,-35.632999420166016 82.2249984741211,-54.237998962402344 88.03600311279297,-72.68699645996094 C88.66400146484375,-74.6760025024414 89.41100311279297,-76.58200073242188 90.2750015258789,-78.38400268554688 C90.3239974975586,-78.41500091552734 90.375,-78.45600128173828 90.41600036621094,-78.50800323486328 C93.61499786376953,-81.8949966430664 95.74299621582031,-79.38400268554688 99.71800231933594,-81.0199966430664 C111.01799774169922,-85.69100189208984 124.30999755859375,-83.53600311279297 133.13999938964844,-75.87999725341797 C133.97999572753906,-75.15499877929688 134.75799560546875,-74.35700225830078 135.46600341796875,-73.49700164794922 C135.46600341796875,-73.49700164794922 135.4759979248047,-73.49700164794922 135.47500610351562,-73.48699951171875 C138.53700256347656,-69.78900146484375 139.2270050048828,-69.99600219726562 139.93899536132812,-64.4749984741211z"></path></g><g opacity="0.4" transform="matrix(1,0,0,1,0,0)"><path fill="rgb(233,168,168)" fill-opacity="1" d=" M137.07000732421875,-58.77199935913086 C132.20799255371094,-43.3380012512207 118.2770004272461,-33.87099838256836 105.95999908447266,-37.63199996948242 C93.63300323486328,-41.393001556396484 87.58899688720703,-56.95100021362305 92.4520034790039,-72.39600372314453 C94.3030014038086,-78.27999877929688 95.88500213623047,-78.30599975585938 99.78199768066406,-82.05599975585938 C111.08200073242188,-86.72699737548828 124.375,-84.5719985961914 133.2050018310547,-76.91600036621094 C134.0449981689453,-76.19100189208984 134.82200622558594,-75.39299774169922 135.52999877929688,-74.53299713134766 C135.52999877929688,-74.53299713134766 135.5399932861328,-74.53299713134766 135.53900146484375,-74.52300262451172 C137.63400268554688,-68.43199920654297 139.37100219726562,-66.08499908447266 137.07000732421875,-58.77199935913086z"></path></g><g opacity="0.4" transform="matrix(1,0,0,1,0,0)"><path fill="rgb(233,168,168)" fill-opacity="1" d=" M107.65899658203125,-43.867000579833984 C97.62899780273438,-46.928001403808594 92.70600128173828,-59.59600067138672 96.66300201416016,-72.16200256347656 C100.62000274658203,-84.72799682617188 110.36599731445312,-87.44599914550781 120.39600372314453,-84.38500213623047 C130.42599487304688,-81.3239974975586 136.94200134277344,-73.64399719238281 132.98500061035156,-61.077999114990234 C129.0279998779297,-48.512001037597656 117.68900299072266,-40.805999755859375 107.65899658203125,-43.867000579833984z"></path></g><g opacity="0.4" transform="matrix(1,0,0,1,0,0)"><path fill="rgb(233,168,168)" fill-opacity="1" d=" M109.58499908447266,-50.816001892089844 C102.16100311279297,-53.082000732421875 98.51799774169922,-62.457000732421875 101.4469985961914,-71.75800323486328 C104.3759994506836,-81.05899810791016 111.17400360107422,-81.7750015258789 118.5979995727539,-79.50900268554688 C126.02200317382812,-77.24299621582031 131.25999450683594,-72.8550033569336 128.33099365234375,-63.55400085449219 C125.4020004272461,-54.25299835205078 117.00900268554688,-48.54999923706055 109.58499908447266,-50.816001892089844z"></path></g><g opacity="0.4" transform="matrix(1,0,0,1,0,0)"><path fill="rgb(233,168,168)" fill-opacity="1" d=" M112.84300231933594,-60.882999420166016 C108.77999877929688,-62.12300109863281 106.78600311279297,-67.25399780273438 108.38899993896484,-72.34400177001953 C109.99199676513672,-77.43399810791016 112.98999786376953,-75.56700134277344 117.0530014038086,-74.3270034790039 C121.11599731445312,-73.08699798583984 124.7040023803711,-72.94400024414062 123.10099792480469,-67.85399627685547 C121.49800109863281,-62.763999938964844 116.90599822998047,-59.643001556396484 112.84300231933594,-60.882999420166016z"></path></g></g><g opacity="1" transform="matrix(1,0,0,1,0,0)"><path stroke-linecap="butt" stroke-linejoin="miter" fill-opacity="0" stroke-miterlimit="10" stroke="rgb(171,0,18)" stroke-opacity="1" stroke-width="8" d=" M87.53399658203125,-74.96600341796875 C86.88200378417969,-74.31700134277344 85.87899780273438,-74.56099700927734 85.6449966430664,-75.43599700927734 C83.82599639892578,-82.2300033569336 76.30000305175781,-104.24500274658203 55.17499923706055,-104.1050033569336 C29.5310001373291,-103.93499755859375 17.663000106811523,-74.98999786376953 22.284000396728516,-51.84000015258789 C27.07200050354004,-27.85300064086914 37.48699951171875,-7.0269999504089355 53.00299835205078,14.027000427246094 C53.917999267578125,15.269000053405762 55.4370002746582,15.795999526977539 56.928001403808594,15.394000053405762 C66.21800231933594,12.88599967956543 100.81800079345703,0.07500000298023224 119.88899993896484,-16.016000747680664 C142.17799377441406,-34.82099914550781 144.52099609375,-63.939998626708984 131.79800415039062,-75.78099822998047 C120.21199798583984,-86.56400299072266 100.18800354003906,-87.56400299072266 87.53399658203125,-74.96600341796875z"></path></g><g opacity="1" transform="matrix(1,0,0,1,0,0)"><path stroke-linecap="round" stroke-linejoin="round" fill-opacity="0" stroke="rgb(255,255,255)" stroke-opacity="1" stroke-width="6" d=" M120.00299835205078,-70.73999786376953 C120.00299835205078,-70.73999786376953 121.12999725341797,-70.20500183105469 122.53900146484375,-68.87300109863281"></path></g></g></g></g><g style="display: block;" transform="matrix(1,0,0,1,256,255.99998474121094)" opacity="1"><g opacity="1" transform="matrix(1,0,0,1,0,0)"><g opacity="1" transform="matrix(1,0,0,1,0,0)"><g opacity="1" transform="matrix(1,0,0,1,0,0)"><path fill="rgb(223,0,0)" fill-opacity="1" d=" M-87.41000366210938,-74.96600341796875 C-86.75800323486328,-74.31700134277344 -85.75399780273438,-74.56099700927734 -85.5199966430664,-75.43599700927734 C-83.70099639892578,-82.2300033569336 -76.1760025024414,-104.24500274658203 -55.05099868774414,-104.1050033569336 C-29.406999588012695,-103.93499755859375 -17.538999557495117,-74.98999786376953 -22.15999984741211,-51.84000015258789 C-26.947999954223633,-27.85300064086914 -37.362998962402344,-7.0269999504089355 -52.87900161743164,14.027000427246094 C-53.79399871826172,15.269000053405762 -55.3129997253418,15.795999526977539 -56.80400085449219,15.394000053405762 C-66.09400177001953,12.88599967956543 -100.69300079345703,0.07500000298023224 -119.76499938964844,-16.016000747680664 C-142.0540008544922,-34.82099914550781 -144.39700317382812,-63.939998626708984 -131.6739959716797,-75.78099822998047 C-120.08799743652344,-86.56400299072266 -100.06400299072266,-87.56400299072266 -87.41000366210938,-74.96600341796875z"></path></g><g opacity="1" transform="matrix(1,0,0,1,0,0)"><path fill="rgb(244,0,0)" fill-opacity="1" d=" M-139.22000122070312,-58.981998443603516 C-138.07699584960938,-47.76300048828125 -132.16299438476562,-35.277000427246094 -120.7509994506836,-25.65399932861328 C-117.08399963378906,-22.559999465942383 -112.4010009765625,-19.583999633789062 -107.26200103759766,-16.80500030517578 C-78.7249984741211,-1.3730000257492065 -45.53099822998047,-13.430999755859375 -33.233001708984375,-43.457000732421875 C-31.027999877929688,-48.84000015258789 -29.167999267578125,-54.3390007019043 -27.917999267578125,-59.733001708984375 C-25.047000885009766,-72.12300109863281 -27.986000061035156,-86.53900146484375 -35.143001556396484,-96.58100128173828 C-35.15299987792969,-96.58100128173828 -35.15299987792969,-96.59100341796875 -35.15399932861328,-96.60099792480469 C-40.39400100708008,-101.20600128173828 -47.053001403808594,-104.05699920654297 -55.05500030517578,-104.10900115966797 C-76.17400360107422,-104.24199676513672 -83.70500183105469,-82.22899627685547 -85.51899719238281,-75.43499755859375 C-85.75299835205078,-74.56500244140625 -86.76000213623047,-74.3219985961914 -87.40899658203125,-74.96399688720703 C-100.06500244140625,-87.56600189208984 -120.08999633789062,-86.56300354003906 -131.67799377441406,-75.78099822998047 C-135.96800231933594,-71.7979965209961 -138.54400634765625,-65.83999633789062 -139.22000122070312,-58.981998443603516z"></path></g><g opacity="0.4" transform="matrix(1,0,0,1,0,0)"><g opacity="0.3" transform="matrix(1,0,0,1,0,0)"><path fill="rgb(233,168,168)" fill-opacity="1" d=" M-84.34400177001953,-82.05699920654297 C-84.34400177001953,-82.05699920654297 -84.34400177001953,-82.0469970703125 -84.34400177001953,-82.0469970703125 C-84.15799713134766,-78.5979995727539 -85.11199951171875,-80.03199768066406 -83.99600219726562,-76.47899627685547 C-78.18499755859375,-58.029998779296875 -61.54199981689453,-46.71900177001953 -46.816001892089844,-51.215999603271484 C-37.207000732421875,-54.14799880981445 -30.805999755859375,-63.077999114990234 -29.1200008392334,-74.0479965209961 C-28.80900001525879,-83.7229995727539 -29.91200065612793,-88.74199676513672 -35.04199981689453,-96.39700317382812 C-35.051998138427734,-96.39700317382812 -35.051998138427734,-96.40799713134766 -35.053001403808594,-96.41799926757812 C-37.45800018310547,-98.6760025024414 -40.191001892089844,-100.54000091552734 -43.255001068115234,-101.91799926757812 C-46.68299865722656,-103.48200225830078 -50.52899932861328,-104.42400360107422 -54.76499938964844,-104.5999984741211 C-65.90799713134766,-105.05500030517578 -73.46299743652344,-99.25299835205078 -78.4010009765625,-92.66500091552734 C-81.10700225830078,-89.05999755859375 -83.03800201416016,-85.22699737548828 -84.34400177001953,-82.05699920654297z"></path></g><g opacity="0.4" transform="matrix(1,0,0,1,0,0)"><path fill="rgb(233,168,168)" fill-opacity="1" d=" M-80.66100311279297,-78.85099792480469 C-75.7979965209961,-63.40599822998047 -61.86800003051758,-53.939998626708984 -49.55099868774414,-57.70100021362305 C-37.2239990234375,-61.46200180053711 -31.180999755859375,-77.03099822998047 -36.042999267578125,-92.46499633789062 C-38.0359992980957,-98.79399871826172 -39.959999084472656,-99.13099670410156 -44.270999908447266,-102.9530029296875 C-47.69900131225586,-104.51699829101562 -51.54499816894531,-105.45999908447266 -55.78099822998047,-105.63600158691406 C-66.92400360107422,-106.09100341796875 -74.47899627685547,-100.28900146484375 -79.41699981689453,-93.70099639892578 C-81.23699951171875,-87.78600311279297 -82.85399627685547,-85.802001953125 -80.66100311279297,-78.85099792480469z"></path></g><g opacity="0.4" transform="matrix(1,0,0,1,0,0)"><path fill="rgb(233,168,168)" fill-opacity="1" d=" M-51.249000549316406,-63.93899917602539 C-41.21900177001953,-67 -36.297000885009766,-79.66799926757812 -40.25400161743164,-92.23400115966797 C-44.21099853515625,-104.80000305175781 -53.95600128173828,-107.51799774169922 -63.986000061035156,-104.45700073242188 C-74.01599884033203,-101.39600372314453 -80.53299713134766,-93.71600341796875 -76.57599639892578,-81.1500015258789 C-72.61900329589844,-68.58399963378906 -61.27899932861328,-60.87799835205078 -51.249000549316406,-63.93899917602539z"></path></g><g opacity="0.4" transform="matrix(1,0,0,1,0,0)"><path fill="rgb(233,168,168)" fill-opacity="1" d=" M-54.19200134277344,-71.9229965209961 C-46.768001556396484,-74.18900299072266 -43.125,-83.56500244140625 -46.05400085449219,-92.86599731445312 C-48.983001708984375,-102.16699981689453 -55.78099822998047,-102.88300323486328 -63.20500183105469,-100.61699676513672 C-70.62899780273438,-98.35099792480469 -75.86599731445312,-93.96199798583984 -72.93699645996094,-84.66100311279297 C-70.00800323486328,-75.36000061035156 -61.61600112915039,-69.65699768066406 -54.19200134277344,-71.9229965209961z"></path></g><g opacity="0.4" transform="matrix(1,0,0,1,0,0)"><path fill="rgb(233,168,168)" fill-opacity="1" d=" M-56.882999420166016,-82.74700164794922 C-52.81999969482422,-83.98699951171875 -50.82600021362305,-89.11699676513672 -52.42900085449219,-94.20700073242188 C-54.03200149536133,-99.2969970703125 -57.029998779296875,-97.43099975585938 -61.09299850463867,-96.19100189208984 C-65.15599822998047,-94.95099639892578 -68.74400329589844,-94.80699920654297 -67.14099884033203,-89.71700286865234 C-65.53800201416016,-84.62699890136719 -60.94499969482422,-81.50700378417969 -56.882999420166016,-82.74700164794922z"></path></g></g><g opacity="0.4" transform="matrix(1,0,0,1,0,0)"><g opacity="0.3" transform="matrix(1,0,0,1,0,0)"><path fill="rgb(233,168,168)" fill-opacity="1" d=" M-139.81399536132812,-64.4749984741211 C-139.67100524902344,-62.47600173950195 -142.22000122070312,-60.334999084472656 -141.76800537109375,-58.27399826049805 C-141.76699829101562,-58.25299835205078 -141.76499938964844,-58.22200012207031 -141.7530059814453,-58.191001892089844 C-141.59300231933594,-57.60100173950195 -141.4219970703125,-57 -141.23300170898438,-56.40999984741211 C-135.4219970703125,-37.96099853515625 -118.77899932861328,-26.649999618530273 -104.0530014038086,-31.14699935913086 C-89.32599639892578,-35.632999420166016 -82.10099792480469,-54.237998962402344 -87.91200256347656,-72.68699645996094 C-88.54000091552734,-74.6760025024414 -89.28700256347656,-76.58200073242188 -90.1510009765625,-78.38400268554688 C-90.19999694824219,-78.41500091552734 -90.2509994506836,-78.45600128173828 -90.29199981689453,-78.50800323486328 C-93.49099731445312,-81.8949966430664 -95.61900329589844,-79.38400268554688 -99.59400177001953,-81.0199966430664 C-110.89399719238281,-85.69100189208984 -124.18599700927734,-83.53600311279297 -133.01600646972656,-75.87999725341797 C-133.8560028076172,-75.15499877929688 -134.63400268554688,-74.35700225830078 -135.3419952392578,-73.49700164794922 C-135.3419952392578,-73.49700164794922 -135.3509979248047,-73.49700164794922 -135.35000610351562,-73.48699951171875 C-138.41200256347656,-69.78900146484375 -139.1020050048828,-69.99600219726562 -139.81399536132812,-64.4749984741211z"></path></g><g opacity="0.4" transform="matrix(1,0,0,1,0,0)"><path fill="rgb(233,168,168)" fill-opacity="1" d=" M-136.94500732421875,-58.77199935913086 C-132.08299255371094,-43.3380012512207 -118.15299987792969,-33.87099838256836 -105.83599853515625,-37.63199996948242 C-93.50900268554688,-41.393001556396484 -87.46499633789062,-56.95100021362305 -92.3280029296875,-72.39600372314453 C-94.17900085449219,-78.27999877929688 -95.76100158691406,-78.30599975585938 -99.65799713134766,-82.05599975585938 C-110.95800018310547,-86.72699737548828 -124.25,-84.5719985961914 -133.0800018310547,-76.91600036621094 C-133.9199981689453,-76.19100189208984 -134.697998046875,-75.39299774169922 -135.406005859375,-74.53299713134766 C-135.406005859375,-74.53299713134766 -135.41600036621094,-74.53299713134766 -135.4149932861328,-74.52300262451172 C-137.50999450683594,-68.43199920654297 -139.24600219726562,-66.08499908447266 -136.94500732421875,-58.77199935913086z"></path></g><g opacity="0.4" transform="matrix(1,0,0,1,0,0)"><path fill="rgb(233,168,168)" fill-opacity="1" d=" M-107.53500366210938,-43.867000579833984 C-97.50499725341797,-46.928001403808594 -92.58200073242188,-59.59600067138672 -96.53900146484375,-72.16200256347656 C-100.49600219726562,-84.72799682617188 -110.24099731445312,-87.44599914550781 -120.27100372314453,-84.38500213623047 C-130.30099487304688,-81.3239974975586 -136.8179931640625,-73.64399719238281 -132.86099243164062,-61.077999114990234 C-128.9040069580078,-48.512001037597656 -117.56500244140625,-40.805999755859375 -107.53500366210938,-43.867000579833984z"></path></g><g opacity="0.4" transform="matrix(1,0,0,1,0,0)"><path fill="rgb(233,168,168)" fill-opacity="1" d=" M-109.46099853515625,-50.816001892089844 C-102.03700256347656,-53.082000732421875 -98.39399719238281,-62.457000732421875 -101.322998046875,-71.75800323486328 C-104.25199890136719,-81.05899810791016 -111.05000305175781,-81.7750015258789 -118.4739990234375,-79.50900268554688 C-125.89800262451172,-77.24299621582031 -131.13499450683594,-72.8550033569336 -128.20599365234375,-63.55400085449219 C-125.2770004272461,-54.25299835205078 -116.88500213623047,-48.54999923706055 -109.46099853515625,-50.816001892089844z"></path></g><g opacity="0.4" transform="matrix(1,0,0,1,0,0)"><path fill="rgb(233,168,168)" fill-opacity="1" d=" M-112.71800231933594,-60.882999420166016 C-108.65499877929688,-62.12300109863281 -106.66200256347656,-67.25399780273438 -108.26499938964844,-72.34400177001953 C-109.86799621582031,-77.43399810791016 -112.86499786376953,-75.56700134277344 -116.9280014038086,-74.3270034790039 C-120.99099731445312,-73.08699798583984 -124.5790023803711,-72.94400024414062 -122.97599792480469,-67.85399627685547 C-121.37300109863281,-62.763999938964844 -116.78099822998047,-59.643001556396484 -112.71800231933594,-60.882999420166016z"></path></g></g><g opacity="1" transform="matrix(1,0,0,1,0,0)"><path stroke-linecap="butt" stroke-linejoin="miter" fill-opacity="0" stroke-miterlimit="10" stroke="rgb(171,0,18)" stroke-opacity="1" stroke-width="8" d=" M-87.41000366210938,-74.96600341796875 C-86.75800323486328,-74.31700134277344 -85.75399780273438,-74.56099700927734 -85.5199966430664,-75.43599700927734 C-83.70099639892578,-82.2300033569336 -76.1760025024414,-104.24500274658203 -55.05099868774414,-104.1050033569336 C-29.406999588012695,-103.93499755859375 -17.538999557495117,-74.98999786376953 -22.15999984741211,-51.84000015258789 C-26.947999954223633,-27.85300064086914 -37.362998962402344,-7.0269999504089355 -52.87900161743164,14.027000427246094 C-53.79399871826172,15.269000053405762 -55.3129997253418,15.795999526977539 -56.80400085449219,15.394000053405762 C-66.09400177001953,12.88599967956543 -100.69300079345703,0.07500000298023224 -119.76499938964844,-16.016000747680664 C-142.0540008544922,-34.82099914550781 -144.39700317382812,-63.939998626708984 -131.6739959716797,-75.78099822998047 C-120.08799743652344,-86.56400299072266 -100.06400299072266,-87.56400299072266 -87.41000366210938,-74.96600341796875z"></path></g></g></g></g><g style="display: block;" transform="matrix(1,0,0,1,256,255.99998474121094)" opacity="1"><g opacity="1" transform="matrix(1,0,0,1,0,0)"><g opacity="1" transform="matrix(1,0,0,1,0,0)"><path fill="rgb(253,234,168)" fill-opacity="1" d=" M98.64700317382812,74.11799621582031 C96.52200317382812,72.22899627685547 93.05899810791016,74.96600341796875 85.36699676513672,78.00499725341797 C54.619998931884766,90.15399932861328 24.94700050354004,93.86100006103516 0.06199999898672104,93.86100006103516 C-24.822999954223633,93.86100006103516 -54.49599838256836,90.15399932861328 -85.24299621582031,78.00499725341797 C-92.93499755859375,74.96600341796875 -96.39700317382812,72.22899627685547 -98.52200317382812,74.11799621582031 C-103.19599914550781,78.27300262451172 -94.91699981689453,99.18499755859375 -86.31400299072266,111.62100219726562 C-73.8010025024414,129.7100067138672 -41.62300109863281,163.65899658203125 0.06199999898672104,163.65899658203125 C41.74700164794922,163.65899658203125 73.92500305175781,129.7100067138672 86.43800354003906,111.62100219726562 C95.04100036621094,99.18499755859375 103.32099914550781,78.27300262451172 98.64700317382812,74.11799621582031z"></path></g><g opacity="1" transform="matrix(1,0,0,1,0,0)"><path fill="rgb(249,177,58)" fill-opacity="1" d=" M100.46499633789062,66.00399780273438 C98.3010025024414,64.21800231933594 94.7750015258789,66.80500030517578 86.94100189208984,69.67900085449219 C55.625999450683594,81.16500091552734 25.4060001373291,84.66999816894531 0.06199999898672104,84.66999816894531 C-25.281999588012695,84.66999816894531 -55.500999450683594,81.16500091552734 -86.81600189208984,69.67900085449219 C-94.6500015258789,66.80500030517578 -98.1760025024414,64.21800231933594 -100.33999633789062,66.00399780273438 C-105.10099792480469,69.93199920654297 -96.53399658203125,91.23300170898438 -87.77200317382812,102.98999786376953 C-75.02799987792969,120.09200286865234 -42.391998291015625,150.65899658203125 0.06199999898672104,150.65899658203125 C42.51599884033203,150.65899658203125 75.12799835205078,120.12899780273438 87.87200164794922,103.0270004272461 C96.63400268554688,91.2699966430664 105.2249984741211,69.93199920654297 100.46499633789062,66.00399780273438z"></path></g><g opacity="1" transform="matrix(1,0,0,1,0,0)"><path fill="rgb(73,49,32)" fill-opacity="1" d=" M98.64700317382812,72.00399780273438 C96.52200317382812,70.21800231933594 93.05899810791016,72.80500030517578 85.36699676513672,75.67900085449219 C54.619998931884766,87.16500091552734 24.94700050354004,90.66999816894531 0.06199999898672104,90.66999816894531 C-24.822999954223633,90.66999816894531 -54.49599838256836,87.16500091552734 -85.24299621582031,75.67900085449219 C-92.93499755859375,72.80500030517578 -96.39700317382812,70.21800231933594 -98.52200317382812,72.00399780273438 C-103.19599914550781,75.93199920654297 -93.91699981689453,94.75800323486328 -85.31400299072266,106.51499938964844 C-72.8010025024414,123.61699676513672 -41.62300109863281,156.65899658203125 0.06199999898672104,156.65899658203125 C41.74700164794922,156.65899658203125 72.92500305175781,123.61699676513672 85.43800354003906,106.51499938964844 C94.04100036621094,94.75800323486328 103.32099914550781,75.93199920654297 98.64700317382812,72.00399780273438z"></path></g></g><g opacity="1" transform="matrix(1,0,0,1,0,0)"><path fill="rgb(23,22,19)" fill-opacity="1" d=" M99.02200317382812,80.79399871826172 C98.91200256347656,80.64399719238281 98.78199768066406,80.51399993896484 98.64199829101562,80.39399719238281 C96.52200317382812,78.61399841308594 93.06199645996094,81.2040023803711 85.37200164794922,84.0739974975586 C54.62200164794922,95.56400299072266 24.941999435424805,99.06400299072266 0.06199999898672104,99.06400299072266 C-24.81800079345703,99.06400299072266 -54.49800109863281,95.56400299072266 -85.24800109863281,84.0739974975586 C-92.93800354003906,81.2040023803711 -96.39800262451172,78.61399841308594 -98.51799774169922,80.39399719238281 C-98.65799713134766,80.51399993896484 -98.78800201416016,80.64399719238281 -98.89800262451172,80.79399871826172 C-100.0780029296875,76.64399719238281 -100.1780014038086,73.39399719238281 -98.51799774169922,72.00399780273438 C-96.39800262451172,70.21399688720703 -92.93800354003906,72.80400085449219 -85.24800109863281,75.67400360107422 C-54.49800109863281,87.16400146484375 -24.81800079345703,90.67400360107422 0.06199999898672104,90.67400360107422 C24.941999435424805,90.67400360107422 54.62200164794922,87.16400146484375 85.37200164794922,75.67400360107422 C93.06199645996094,72.80400085449219 96.52200317382812,70.21399688720703 98.64199829101562,72.00399780273438 C100.302001953125,73.39399719238281 100.2020034790039,76.64399719238281 99.02200317382812,80.79399871826172z"></path></g></g><g style="display: block;" transform="matrix(1,0,0,1,256,255.99998474121094)" opacity="1"><g opacity="1" transform="matrix(1,0,0,1,0,0)"><path fill="rgb(107,80,56)" fill-opacity="1" d=" M0.7440000176429749,-2.437999963760376 C-12.751999855041504,-2.437999963760376 -30.07200050354004,1.4509999752044678 -30.07200050354004,13.82800006866455 C-30.07200050354004,26.204999923706055 -12.164999961853027,47.48400115966797 0.7440000176429749,47.48400115966797 C13.652999877929688,47.48400115966797 31.559999465942383,26.204999923706055 31.559999465942383,13.82800006866455 C31.559999465942383,1.4509999752044678 14.239999771118164,-2.437999963760376 0.7440000176429749,-2.437999963760376z"></path></g><g opacity="1" transform="matrix(1,0,0,1,0,0)"><path fill="rgb(53,48,42)" fill-opacity="1" d=" M-6.26800012588501,45.7239990234375 C-6.26800012588501,45.7239990234375 -6.2779998779296875,45.7239990234375 -6.288000106811523,45.73400115966797 C-12.317999839782715,42.933998107910156 -18.54800033569336,37.14400100708008 -23.107999801635742,30.784000396728516 C-23.107999801635742,30.784000396728516 -23.107999801635742,30.77400016784668 -23.107999801635742,30.77400016784668 C-23.107999801635742,30.77400016784668 -16.46500015258789,24.57200050354004 -9.727999687194824,32.2140007019043 C-5.36899995803833,37.159000396728516 -6.26800012588501,45.7239990234375 -6.26800012588501,45.7239990234375z"></path></g><g opacity="1" transform="matrix(1,0,0,1,0,0)"><path fill="rgb(149,123,92)" fill-opacity="1" d=" M21.30500030517578,10.645000457763672 C21.30500030517578,16.05900001525879 12.100000381469727,20.448999404907227 0.7440000176429749,20.448999404907227 C-10.612000465393066,20.448999404907227 -19.816999435424805,16.05900001525879 -19.816999435424805,10.645000457763672 C-19.816999435424805,5.230999946594238 -10.612000465393066,0.8420000076293945 0.7440000176429749,0.8420000076293945 C12.100000381469727,0.8420000076293945 21.30500030517578,5.230999946594238 21.30500030517578,10.645000457763672z"></path></g><g opacity="1" transform="matrix(1,0,0,1,0,0)"><path fill="rgb(51,44,37)" fill-opacity="1" d=" M24.302000045776367,31.20400047302246 C19.562000274658203,37.66400146484375 13.152000427246094,43.4739990234375 7.021999835968018,46.06399917602539 C7.021999835968018,46.06399917602539 7.01200008392334,46.06399917602539 7.01200008392334,46.06399917602539 C7.01200008392334,46.06399917602539 6.0370001792907715,38.428001403808594 10.656999588012695,32.678001403808594 C16.42099952697754,25.503999710083008 24.302000045776367,31.20400047302246 24.302000045776367,31.20400047302246z"></path></g></g><g style="display: block;" transform="matrix(1,0,0,1,256,255.99998474121094)" opacity="1"><g opacity="1" transform="matrix(1,0,0,1,0,0)"><path fill="rgb(53,43,39)" fill-opacity="1" d=" M75.88800048828125,25.523000717163086 C101.30699920654297,9.670999526977539 154.8350067138672,-1.5809999704360962 199.64999389648438,20.448999404907227 C156.1479949951172,8.843999862670898 114.13800048828125,11.565999984741211 75.88800048828125,25.523000717163086z"></path></g><g opacity="1" transform="matrix(1,0,0,1,0,0)"><path fill="rgb(53,43,39)" fill-opacity="1" d=" M77.8740005493164,34.28900146484375 C111.58200073242188,18.216999053955078 174.77999877929688,13.857999801635742 221.1909942626953,45.73400115966797 C173.53500366210938,23.68600082397461 123.44400024414062,21.84600067138672 77.8740005493164,34.28900146484375z"></path></g><g opacity="1" transform="matrix(1,0,0,1,0,0)"><path fill="rgb(53,43,39)" fill-opacity="1" d=" M80.41400146484375,45.73400115966797 C117.08699798583984,29.091999053955078 182.89300537109375,28.7549991607666 225.0570068359375,71.41400146484375 C180.0019989013672,38.652000427246094 128.64300537109375,33.19300079345703 80.41400146484375,45.73400115966797z"></path></g></g><g style="display: block;" transform="matrix(1,0,0,1,256,255.99998474121094)" opacity="1"><g opacity="1" transform="matrix(1,0,0,1,0,0)"><path fill="rgb(53,43,39)" fill-opacity="1" d=" M-74.26000213623047,25.523000717163086 C-116.46600341796875,10.121999740600586 -157.63499450683594,9.675999641418457 -198.02200317382812,20.448999404907227 C-155.93800354003906,-0.2370000034570694 -102.76000213623047,7.749000072479248 -74.26000213623047,25.523000717163086z"></path></g><g opacity="1" transform="matrix(1,0,0,1,0,0)"><path fill="rgb(53,43,39)" fill-opacity="1" d=" M-76.24600219726562,34.28900146484375 C-124.60099792480469,21.084999084472656 -173.2729949951172,24.316999435424805 -219.56199645996094,45.73400115966797 C-173.0709991455078,13.800999641418457 -110.80699920654297,17.81100082397461 -76.24600219726562,34.28900146484375z"></path></g><g opacity="1" transform="matrix(1,0,0,1,0,0)"><path fill="rgb(53,43,39)" fill-opacity="1" d=" M-78.78600311279297,45.73400115966797 C-130.0989990234375,32.393001556396484 -179.77000427246094,39.66600036621094 -223.4290008544922,71.41400146484375 C-183.31500244140625,30.82699966430664 -119.7760009765625,27.131999969482422 -78.78600311279297,45.73400115966797z"></path></g></g></g></svg>