<svg xmlns="http://www.w3.org/2000/svg" viewBox="0 0 512 512" width="512" height="512" style="width: 100%; height: 100%; transform: translate3d(0,0,0);" preserveAspectRatio="xMidYMid meet"><defs><clipPath id="__lottie_element_11010"><rect width="512" height="512" x="0" y="0"></rect></clipPath><linearGradient id="__lottie_element_11016" spreadMethod="pad" gradientUnits="userSpaceOnUse"><stop></stop><stop></stop><stop></stop><stop></stop><stop></stop></linearGradient><linearGradient id="__lottie_element_11026" spreadMethod="pad" gradientUnits="userSpaceOnUse" x1="-3.4519999027252197" y1="-167.9949951171875" x2="-5.142000198364258" y2="171.56500244140625"><stop offset="0%" stop-color="rgb(232,215,242)"></stop><stop offset="13%" stop-color="rgb(198,146,226)"></stop><stop offset="29%" stop-color="rgb(165,76,211)"></stop><stop offset="41%" stop-color="rgb(165,76,211)"></stop><stop offset="84%" stop-color="rgb(165,76,211)"></stop></linearGradient><linearGradient id="__lottie_element_11035" spreadMethod="pad" gradientUnits="userSpaceOnUse"><stop></stop><stop></stop><stop></stop><stop></stop><stop></stop></linearGradient><linearGradient id="__lottie_element_11039" spreadMethod="pad" gradientUnits="userSpaceOnUse"><stop></stop><stop></stop><stop></stop><stop></stop><stop></stop></linearGradient><linearGradient id="__lottie_element_11046" spreadMethod="pad" gradientUnits="userSpaceOnUse"><stop></stop><stop></stop><stop></stop><stop></stop><stop></stop></linearGradient><linearGradient id="__lottie_element_11050" spreadMethod="pad" gradientUnits="userSpaceOnUse" x1="-7.795000076293945" y1="-414.5889892578125" x2="-5.142000198364258" y2="318.6449890136719"><stop offset="6%" stop-color="rgb(165,91,203)"></stop><stop offset="21%" stop-color="rgb(154,72,196)"></stop><stop offset="39%" stop-color="rgb(143,53,189)"></stop><stop offset="48%" stop-color="rgb(127,42,173)"></stop><stop offset="84%" stop-color="rgb(112,31,158)"></stop></linearGradient><linearGradient id="__lottie_element_11054" spreadMethod="pad" gradientUnits="userSpaceOnUse"><stop></stop><stop></stop><stop></stop><stop></stop><stop></stop></linearGradient><linearGradient id="__lottie_element_11058" spreadMethod="pad" gradientUnits="userSpaceOnUse"><stop></stop><stop></stop><stop></stop><stop></stop><stop></stop></linearGradient></defs><g clip-path="url(#__lottie_element_11010)"><g style="display: block;" transform="matrix(1.0830000638961792,0,0,1.0830000638961792,256.7503967285156,245.65011596679688)" opacity="1"><g opacity="1" transform="matrix(1,0,0,1,0,0)"><path fill="rgb(142,53,188)" fill-opacity="1" d=" M113.02100372314453,-192.62100219726562 C113.02100372314453,-192.62100219726562 -123.10299682617188,-192.62100219726562 -123.10299682617188,-192.62100219726562 C-170.71600341796875,-192.62100219726562 -209.31300354003906,-154.0229949951172 -209.31300354003906,-106.41000366210938 C-209.31300354003906,-106.41000366210938 -209.31300354003906,129.71400451660156 -209.31300354003906,129.71400451660156 C-209.31300354003906,177.32699584960938 -170.71600341796875,215.9239959716797 -123.10299682617188,215.9239959716797 C-123.10299682617188,215.9239959716797 113.02100372314453,215.9239959716797 113.02100372314453,215.9239959716797 C160.63400268554688,215.9239959716797 199.23199462890625,177.32699584960938 199.23199462890625,129.71400451660156 C199.23199462890625,129.71400451660156 199.23199462890625,-106.41000366210938 199.23199462890625,-106.41000366210938 C199.23199462890625,-154.0229949951172 160.63400268554688,-192.62100219726562 113.02100372314453,-192.62100219726562z"></path></g><g opacity="1" transform="matrix(1,0,0,1,0,0)"><path stroke-linecap="butt" stroke-linejoin="miter" fill-opacity="0" stroke-miterlimit="10" stroke="rgb(88,0,135)" stroke-opacity="1" stroke-width="8" d=" M113.02100372314453,215.9239959716797 C113.02100372314453,215.9239959716797 -123.10199737548828,215.9239959716797 -123.10199737548828,215.9239959716797 C-170.71499633789062,215.9239959716797 -209.31300354003906,177.32699584960938 -209.31300354003906,129.71400451660156 C-209.31300354003906,129.71400451660156 -209.31300354003906,-106.41000366210938 -209.31300354003906,-106.41000366210938 C-209.31300354003906,-154.0229949951172 -170.71499633789062,-192.62100219726562 -123.10199737548828,-192.62100219726562 C-123.10199737548828,-192.62100219726562 113.02100372314453,-192.62100219726562 113.02100372314453,-192.62100219726562 C160.63400268554688,-192.62100219726562 199.23199462890625,-154.0229949951172 199.23199462890625,-106.41000366210938 C199.23199462890625,-106.41000366210938 199.23199462890625,129.71400451660156 199.23199462890625,129.71400451660156 C199.23199462890625,177.32699584960938 160.63400268554688,215.9239959716797 113.02100372314453,215.9239959716797z"></path></g></g><g style="display: block;" transform="matrix(1.0830000638961792,0,0,1.0830000638961792,256.7503967285156,245.65011596679688)" opacity="1"><g opacity="1" transform="matrix(1,0,0,1,0,0)"><path fill="rgb(255,255,255)" fill-opacity="1" d=" M147.54800415039062,160.0050048828125 C147.54800415039062,160.0050048828125 -158.80499267578125,160.0050048828125 -158.80499267578125,160.0050048828125 C-158.80499267578125,160.0050048828125 -158.80499267578125,-139.28900146484375 -158.80499267578125,-139.28900146484375 C-158.80499267578125,-139.28900146484375 147.54800415039062,-139.28900146484375 147.54800415039062,-139.28900146484375 C147.54800415039062,-139.28900146484375 147.54800415039062,160.0050048828125 147.54800415039062,160.0050048828125z"></path></g></g><g style="display: none;"><g><path></path><path fill="url(#__lottie_element_11058)"></path></g></g><g style="display: none;"><g><path fill="url(#__lottie_element_11054)"></path></g><g><path stroke-linecap="round" stroke-linejoin="bevel" fill-opacity="0"></path></g></g><g style="display: block;" transform="matrix(-0.25,-0.4330126941204071,0.4330126941204071,-0.25,164.44305419921875,454.5302429199219)" opacity="1"><g opacity="1" transform="matrix(1,0,0,1,0,0)"><path fill="url(#__lottie_element_11050)" fill-opacity="1" d=" M270.22698974609375,44.97600173950195 C319.3800048828125,-24.51099967956543 307.0740051269531,-79.7699966430664 227.69900512695312,-111.4229965209961 C119.21800231933594,-154.6820068359375 60.29899978637695,-79.44000244140625 40.38399887084961,-43.56399917602539 C39.28300094604492,-41.58100128173828 36.895999908447266,-40.58300018310547 34.93000030517578,-40.5629997253418 C34.93000030517578,-40.5629997253418 30.42799949645996,213.82699584960938 30.42799949645996,213.82699584960938 C31.542999267578125,213.81500244140625 33.08700180053711,213.49400329589844 34.04800033569336,212.8520050048828 C185.15199279785156,111.98500061035156 238.32000732421875,90.08300018310547 270.22698974609375,44.97600173950195z"></path></g><g opacity="1" transform="matrix(1,0,0,1,0,0)"><path stroke-linecap="round" stroke-linejoin="round" fill-opacity="0" stroke="rgb(88,0,135)" stroke-opacity="1" stroke-width="18" d=" M30.761999130249023,194.93699645996094 C30.55299949645996,206.74200439453125 30.42799949645996,213.82699584960938 30.42799949645996,213.82699584960938 C31.542999267578125,213.81500244140625 33.08700180053711,213.49400329589844 34.04800033569336,212.8520050048828 C185.15199279785156,111.98500061035156 238.32000732421875,90.08300018310547 270.22698974609375,44.97600173950195 C270.22698974609375,44.97600173950195 270.22698974609375,44.97600173950195 270.22698974609375,44.97600173950195 C319.3800048828125,-24.51099967956543 307.0740051269531,-79.7699966430664 227.69900512695312,-111.4229965209961 C152.73300170898438,-141.31700134277344 101.43599700927734,-114.62100219726562 70.3219985961914,-83.43299865722656"></path></g></g><g style="display: none;"><g><path fill="url(#__lottie_element_11046)"></path></g><g><path></path></g></g><g style="display: block;" transform="matrix(1.0830000638961792,0,0,1.0830000638961792,256.7503967285156,245.65011596679688)" opacity="0.2"><g opacity="1" transform="matrix(1,0,0,1,0,0)"><path fill="rgb(1,1,1)" fill-opacity="1" d=" M132.2740020751953,-29.26300048828125 C131.06399536132812,-57.483001708984375 112.96399688720703,-79.14299774169922 89.10399627685547,-85.63300323486328 C37.14400100708008,-99.74299621582031 6.484000205993652,-65.18299865722656 -2.696000099182129,-48.643001556396484 C-3.7260000705718994,-46.792999267578125 -6.355999946594238,-46.792999267578125 -7.386000156402588,-48.643001556396484 C-16.56599998474121,-65.18299865722656 -47.22600173950195,-99.74299621582031 -99.18599700927734,-85.63300323486328 C-123.0459976196289,-79.14299774169922 -141.14599609375,-57.483001708984375 -142.3560028076172,-29.26300048828125 C-153.62899780273438,-97.87699890136719 -142.88400268554688,-125.31099700927734 -117.39399719238281,-132.2310028076172 C-65.43399810791016,-146.3509979248047 34.606998443603516,-149.64199829101562 107.5479965209961,-133.64199829101562 C133.3470001220703,-127.98300170898438 148.01800537109375,-95.99500274658203 132.2740020751953,-29.26300048828125z"></path></g></g><g style="display: block;" transform="matrix(1.0830000638961792,0,0,1.0830000638961792,256.7503967285156,245.65011596679688)" opacity="1"><g opacity="1" transform="matrix(1,0,0,1,0,0)"><path fill="url(#__lottie_element_11026)" fill-opacity="1" d=" M108.5459976196289,-171.82899475097656 C108.5459976196289,-171.82899475097656 -118.62699890136719,-171.82899475097656 -118.62699890136719,-171.82899475097656 C-157.22900390625,-171.82899475097656 -188.52099609375,-140.53599548339844 -188.52099609375,-101.93399810791016 C-188.52099609375,-101.93399810791016 -188.52099609375,125.23799896240234 -188.52099609375,125.23799896240234 C-188.52099609375,163.83999633789062 -157.22900390625,195.1320037841797 -118.62699890136719,195.1320037841797 C-118.62699890136719,195.1320037841797 108.5459976196289,195.1320037841797 108.5459976196289,195.1320037841797 C147.1479949951172,195.1320037841797 178.44000244140625,163.83999633789062 178.44000244140625,125.23799896240234 C178.44000244140625,125.23799896240234 178.44000244140625,-101.93399810791016 178.44000244140625,-101.93399810791016 C178.44000244140625,-140.53599548339844 147.1479949951172,-171.82899475097656 108.5459976196289,-171.82899475097656z M123.5790023803711,3.5230000019073486 C107.9489974975586,35.064998626708984 66.12100219726562,79.51599884033203 -3.5420000553131104,126.01899719238281 C-4.445000171661377,126.62200164794922 -5.636000156402588,126.62200164794922 -6.539000034332275,126.01899719238281 C-76.2020034790039,79.51599884033203 -118.02999877929688,35.064998626708984 -133.66000366210938,3.5230000019073486 C-155.64199829101562,-40.8390007019043 -133.302001953125,-83.1969985961914 -99.18099975585938,-92.46800231933594 C-47.22200012207031,-106.58599853515625 -16.566999435424805,-72.02300262451172 -7.385000228881836,-55.483001708984375 C-6.360000133514404,-53.63600158691406 -3.7209999561309814,-53.63600158691406 -2.696000099182129,-55.483001708984375 C6.486000061035156,-72.02300262451172 37.14099884033203,-106.58599853515625 89.0999984741211,-92.46800231933594 C123.22100067138672,-83.1969985961914 145.56100463867188,-40.8390007019043 123.5790023803711,3.5230000019073486z"></path></g></g><g style="display: none;"><g><path fill="url(#__lottie_element_11039)"></path></g></g><g style="display: none;"><g><path fill="url(#__lottie_element_11016)"></path></g><g><path stroke-linecap="round" stroke-linejoin="bevel" fill-opacity="0"></path></g></g><g style="display: none;"><g><path fill="url(#__lottie_element_11035)"></path></g><g><path stroke-linecap="round" stroke-linejoin="round" fill-opacity="0"></path></g></g><g style="display: none;"><g><path stroke-linecap="round" stroke-linejoin="round" fill-opacity="0"></path></g><g><path stroke-linecap="round" stroke-linejoin="round" fill-opacity="0"></path></g></g><g style="display: block;" transform="matrix(1.0830000638961792,0,0,1.0830000638961792,256.7503967285156,245.65011596679688)" opacity="1"><g opacity="1" transform="matrix(1,0,0,1,0,0)"><path stroke-linecap="round" stroke-linejoin="round" fill-opacity="0" stroke="rgb(255,255,255)" stroke-opacity="1" stroke-width="6" d=" M83.4540023803711,-167.8560028076172 C83.4540023803711,-167.8560028076172 81.4540023803711,-167.8560028076172 81.4540023803711,-167.8560028076172"></path></g><g opacity="1" transform="matrix(1,0,0,1,0,0)"><path stroke-linecap="round" stroke-linejoin="round" fill-opacity="0" stroke="rgb(255,255,255)" stroke-opacity="1" stroke-width="6" d=" M59.231998443603516,-167.8560028076172 C59.231998443603516,-167.8560028076172 70.21199798583984,-167.8560028076172 70.21199798583984,-167.8560028076172"></path></g></g><g style="display: none;"><g><path></path></g></g></g></svg>