<svg xmlns="http://www.w3.org/2000/svg" viewBox="0 0 512 512" width="512" height="512" style="width: 100%; height: 100%; transform: translate3d(0,0,0);" preserveAspectRatio="xMidYMid meet"><defs><clipPath id="__lottie_element_11063"><rect width="512" height="512" x="0" y="0"></rect></clipPath><clipPath id="__lottie_element_11065"><path d="M0,0 L200,0 L200,200 L0,200z"></path></clipPath><filter id="__lottie_element_11067"><feColorMatrix type="matrix" color-interpolation-filters="sRGB" values="1 0 0 0 0 0 1 0 0 0 0 0 1 0 0 0 0 0 1 0"></feColorMatrix></filter><clipPath id="__lottie_element_11075"><path d="M0,0 L200,0 L200,200 L0,200z"></path></clipPath><filter id="__lottie_element_11077"><feColorMatrix type="matrix" color-interpolation-filters="sRGB" values="1 0 0 0 0 0 1 0 0 0 0 0 1 0 0 0 0 0 1 0"></feColorMatrix></filter><clipPath id="__lottie_element_11085"><path d="M0,0 L200,0 L200,200 L0,200z"></path></clipPath><filter id="__lottie_element_11087"><feColorMatrix type="matrix" color-interpolation-filters="sRGB" values="1 0 0 0 0 0 1 0 0 0 0 0 1 0 0 0 0 0 1 0"></feColorMatrix></filter><clipPath id="__lottie_element_11095"><path d="M0,0 L200,0 L200,200 L0,200z"></path></clipPath><filter id="__lottie_element_11097"><feColorMatrix type="matrix" color-interpolation-filters="sRGB" values="1 0 0 0 0 0 1 0 0 0 0 0 1 0 0 0 0 0 1 0"></feColorMatrix></filter><clipPath id="__lottie_element_11105"><path d="M0,0 L200,0 L200,200 L0,200z"></path></clipPath><filter id="__lottie_element_11107"><feColorMatrix type="matrix" color-interpolation-filters="sRGB" values="1 0 0 0 0 0 1 0 0 0 0 0 1 0 0 0 0 0 1 0"></feColorMatrix></filter><clipPath id="__lottie_element_11115"><path d="M0,0 L200,0 L200,200 L0,200z"></path></clipPath><filter id="__lottie_element_11117"><feColorMatrix type="matrix" color-interpolation-filters="sRGB" values="1 0 0 0 0 0 1 0 0 0 0 0 1 0 0 0 0 0 1 0"></feColorMatrix></filter><linearGradient id="__lottie_element_11268" spreadMethod="pad" gradientUnits="userSpaceOnUse"><stop></stop><stop></stop><stop></stop><stop></stop><stop></stop><stop></stop><stop></stop><stop></stop><stop></stop></linearGradient><linearGradient id="__lottie_element_11272" spreadMethod="pad" gradientUnits="userSpaceOnUse"><stop></stop><stop></stop><stop></stop><stop></stop><stop></stop><stop></stop><stop></stop><stop></stop><stop></stop></linearGradient><linearGradient id="__lottie_element_11276" spreadMethod="pad" gradientUnits="userSpaceOnUse"><stop></stop><stop></stop><stop></stop><stop></stop><stop></stop><stop></stop><stop></stop><stop></stop><stop></stop></linearGradient><linearGradient id="__lottie_element_11280" spreadMethod="pad" gradientUnits="userSpaceOnUse"><stop></stop><stop></stop><stop></stop><stop></stop><stop></stop><stop></stop><stop></stop><stop></stop><stop></stop></linearGradient><linearGradient id="__lottie_element_11284" spreadMethod="pad" gradientUnits="userSpaceOnUse" x1="-200.76699829101562" y1="-0.824999988079071" x2="186.01600646972656" y2="-0.824999988079071"><stop offset="0%" stop-color="rgb(191,146,16)"></stop><stop offset="16%" stop-color="rgb(201,154,22)"></stop><stop offset="26%" stop-color="rgb(212,162,28)"></stop><stop offset="35%" stop-color="rgb(231,192,35)"></stop><stop offset="50%" stop-color="rgb(249,221,42)"></stop><stop offset="69%" stop-color="rgb(203,164,21)"></stop><stop offset="80%" stop-color="rgb(158,108,1)"></stop><stop offset="87%" stop-color="rgb(173,134,17)"></stop><stop offset="93%" stop-color="rgb(188,161,33)"></stop></linearGradient><linearGradient id="__lottie_element_11289" spreadMethod="pad" gradientUnits="userSpaceOnUse" x1="-187.81500244140625" y1="-0.32600000500679016" x2="187.72000122070312" y2="-0.32600000500679016"><stop offset="0%" stop-color="rgb(191,146,16)"></stop><stop offset="16%" stop-color="rgb(201,154,22)"></stop><stop offset="26%" stop-color="rgb(212,162,28)"></stop><stop offset="35%" stop-color="rgb(231,192,35)"></stop><stop offset="50%" stop-color="rgb(249,221,42)"></stop><stop offset="69%" stop-color="rgb(203,164,21)"></stop><stop offset="80%" stop-color="rgb(158,108,1)"></stop><stop offset="87%" stop-color="rgb(173,134,17)"></stop><stop offset="93%" stop-color="rgb(188,161,33)"></stop></linearGradient><radialGradient id="__lottie_element_11346" spreadMethod="pad" gradientUnits="userSpaceOnUse"><stop></stop><stop></stop><stop></stop></radialGradient><radialGradient id="__lottie_element_11350" spreadMethod="pad" gradientUnits="userSpaceOnUse"><stop></stop><stop></stop><stop></stop></radialGradient><radialGradient id="__lottie_element_11354" spreadMethod="pad" gradientUnits="userSpaceOnUse"><stop></stop><stop></stop><stop></stop></radialGradient><radialGradient id="__lottie_element_11358" spreadMethod="pad" gradientUnits="userSpaceOnUse"><stop></stop><stop></stop><stop></stop></radialGradient><radialGradient id="__lottie_element_11362" spreadMethod="pad" gradientUnits="userSpaceOnUse" cx="-4.054999828338623" cy="-205.8990020751953" r="354.01468984698994" fx="-4.054999828338623" fy="-205.8990020751953"><stop offset="14%" stop-color="rgb(207,158,29)"></stop><stop offset="78%" stop-color="rgb(161,107,18)"></stop><stop offset="97%" stop-color="rgb(116,56,6)"></stop></radialGradient><radialGradient id="__lottie_element_11366" spreadMethod="pad" gradientUnits="userSpaceOnUse" cx="-4.054999828338623" cy="-205.8990020751953" r="354.01468984698994" fx="-4.054999828338623" fy="-205.8990020751953"><stop offset="0%" stop-color="rgb(191,146,16)"></stop><stop offset="16%" stop-color="rgb(201,154,22)"></stop><stop offset="26%" stop-color="rgb(212,162,28)"></stop><stop offset="35%" stop-color="rgb(231,192,35)"></stop><stop offset="50%" stop-color="rgb(249,221,42)"></stop><stop offset="69%" stop-color="rgb(203,164,21)"></stop><stop offset="80%" stop-color="rgb(158,108,1)"></stop><stop offset="87%" stop-color="rgb(173,134,17)"></stop><stop offset="93%" stop-color="rgb(188,161,33)"></stop></radialGradient></defs><g clip-path="url(#__lottie_element_11063)"><g style="display: block;" transform="matrix(1,0,0,1,259.19500732421875,233.74099731445312)" opacity="1"><g opacity="1" transform="matrix(1,0,0,1,0,0)"><path fill="url(#__lottie_element_11366)" fill-opacity="1" d=" M178.9219970703125,-50.987998962402344 C178.9219970703125,-50.987998962402344 175.30499267578125,20.760000228881836 154.70199584960938,4.379000186920166 C128.99099731445312,-16.062999725341797 113.2760009765625,-89.40599822998047 113.2760009765625,-89.40599822998047 C113.2760009765625,-89.40599822998047 122.13600158691406,-96.90299987792969 122.46900177001953,-110.20600128173828 C122.92400360107422,-128.36900329589844 108.91699981689453,-135.75100708007812 96.7239990234375,-135.75100708007812 C83.61799621582031,-135.75100708007812 71.55899810791016,-124.77100372314453 71.55699920654297,-110.81800079345703 C71.55500030517578,-97.23999786376953 78.75700378417969,-92.47799682617188 78.75700378417969,-92.47799682617188 C78.75700378417969,-92.47799682617188 52.30500030517578,-12.741000175476074 -3.194999933242798,-8.401000022888184 C-55.10499954223633,-4.3420000076293945 -84.43399810791016,-92.81700134277344 -84.43399810791016,-92.81700134277344 C-84.43399810791016,-92.81700134277344 -79.69499969482422,-98.73999786376953 -79.25900268554688,-109.75700378417969 C-78.71399688720703,-123.5260009765625 -91.36599731445312,-136.25100708007812 -106.51899719238281,-136.25100708007812 C-118.77999877929688,-136.25100708007812 -132.21200561523438,-125.70999908447266 -131.2239990234375,-110.88700103759766 C-130.23599243164062,-96.06400299072266 -120.31400299072266,-90.85299682617188 -120.31400299072266,-90.85299682617188 C-128.2050018310547,-69.28500366210938 -142.19500732421875,-11.489999771118164 -162.4029998779297,4.2769999504089355 C-177.20599365234375,15.82699966430664 -187.46200561523438,-52.42300033569336 -187.46200561523438,-52.42300033569336 C-187.46200561523438,-52.42300033569336 -193.44500732421875,13.758000373840332 -157.85800170898438,68.44499969482422 C-132.80299377441406,106.9469985961914 -87.14299774169922,139.75100708007812 -4.284999847412109,139.75100708007812 C196.26300048828125,139.75100708007812 178.9219970703125,-50.987998962402344 178.9219970703125,-50.987998962402344z"></path></g></g><g style="display: block;" transform="matrix(1,0,0,1,259.19500732421875,233.74099731445312)" opacity="1"><g opacity="1" transform="matrix(1,0,0,1,0,0)"><path fill="url(#__lottie_element_11362)" fill-opacity="1" d=" M178.9219970703125,-50.987998962402344 C178.9219970703125,-50.987998962402344 175.30499267578125,20.760000228881836 154.70199584960938,4.379000186920166 C128.99099731445312,-16.062999725341797 113.2760009765625,-89.40599822998047 113.2760009765625,-89.40599822998047 C113.2760009765625,-89.40599822998047 122.13600158691406,-96.90299987792969 122.46900177001953,-110.20600128173828 C122.92400360107422,-128.36900329589844 108.91699981689453,-135.75100708007812 96.7239990234375,-135.75100708007812 C83.61799621582031,-135.75100708007812 71.55899810791016,-124.77100372314453 71.55699920654297,-110.81800079345703 C71.55500030517578,-97.23999786376953 78.75700378417969,-92.47799682617188 78.75700378417969,-92.47799682617188 C78.75700378417969,-92.47799682617188 52.30500030517578,-12.741000175476074 -3.194999933242798,-8.401000022888184 C-55.10499954223633,-4.3420000076293945 -84.43399810791016,-92.81700134277344 -84.43399810791016,-92.81700134277344 C-84.43399810791016,-92.81700134277344 -79.69499969482422,-98.73999786376953 -79.25900268554688,-109.75700378417969 C-78.71399688720703,-123.5260009765625 -91.36599731445312,-136.25100708007812 -106.51899719238281,-136.25100708007812 C-118.77999877929688,-136.25100708007812 -132.21200561523438,-125.70999908447266 -131.2239990234375,-110.88700103759766 C-130.23599243164062,-96.06400299072266 -120.31400299072266,-90.85299682617188 -120.31400299072266,-90.85299682617188 C-128.2050018310547,-69.28500366210938 -142.19500732421875,-11.489999771118164 -162.4029998779297,4.2769999504089355 C-177.20599365234375,15.82699966430664 -187.46200561523438,-52.42300033569336 -187.46200561523438,-52.42300033569336 C-187.46200561523438,-52.42300033569336 -193.44500732421875,13.758000373840332 -157.85800170898438,68.44499969482422 C-132.80299377441406,106.9469985961914 -87.14299774169922,139.75100708007812 -4.284999847412109,139.75100708007812 C196.26300048828125,139.75100708007812 178.9219970703125,-50.987998962402344 178.9219970703125,-50.987998962402344z"></path></g></g><g style="display: none;"><g><path fill="url(#__lottie_element_11358)"></path></g></g><g style="display: none;"><g><path fill="url(#__lottie_element_11354)"></path></g></g><g style="display: none;"><g><path fill="url(#__lottie_element_11350)"></path></g></g><g style="display: none;"><g><path fill="url(#__lottie_element_11346)"></path></g></g><g style="display: block;" transform="matrix(1,0,0,1,131.197998046875,274.7619934082031)" opacity="0.3"><g opacity="1" transform="matrix(1,0,0,1,0,0)"><path fill="rgb(150,86,2)" fill-opacity="1" d=" M-24.038999557495117,46.880001068115234 C-55.11899948120117,7.139999866485596 -46.21900177001953,-45.939998626708984 -46.21900177001953,-45.939998626708984 C-46.21900177001953,-45.939998626708984 -44.178001403808594,-28.58799934387207 -29.659000396728516,-40.4900016784668 C-24.447999954223633,-44.76100158691406 -15.697999954223633,-62.262001037597656 -10.878999710083008,-75.12999725341797 C-18.268999099731445,-56.34000015258789 16.006000518798828,35.63199996948242 58.51300048828125,31.756999969482422 C66.35099792480469,31.042999267578125 6.302000045776367,48.237998962402344 -24.038999557495117,46.880001068115234z"></path></g></g><g style="display: block;" transform="matrix(1,0,0,1,385.7330017089844,271.4119873046875)" opacity="0.3"><g opacity="1" transform="matrix(1,0,0,1,0,0)"><path fill="rgb(150,86,2)" fill-opacity="1" d=" M21.805999755859375,45.659000396728516 C-4.124000072479248,45.87900161743164 -60.09299850463867,27.458999633789062 -44.53200149536133,25.607999801635742 C5.7220001220703125,19.628000259399414 -2.2339999675750732,-81.66200256347656 -2.4049999713897705,-87.36100006103516 C1.434999942779541,-82.23100280761719 8.767000198364258,-53.6619987487793 21.416000366210938,-40.29100036621094 C40.683998107910156,-19.92300033569336 46.63600158691406,-37.1609992980957 46.63600158691406,-37.1609992980957 C46.63600158691406,-37.1609992980957 54.22600173950195,3.938999891281128 21.805999755859375,45.659000396728516z"></path></g></g><g style="display: block;" transform="matrix(1,0,0,1,259.19500732421875,233.74099731445312)" opacity="1"><g opacity="1" transform="matrix(1,0,0,1,0,0)"><path stroke-linecap="round" stroke-linejoin="round" fill-opacity="0" stroke="rgb(153,98,0)" stroke-opacity="1" stroke-width="8" d=" M178.9219970703125,-50.987998962402344 C178.9219970703125,-50.987998962402344 175.30499267578125,20.760000228881836 154.70199584960938,4.379000186920166 C128.99099731445312,-16.062999725341797 113.2760009765625,-89.40599822998047 113.2760009765625,-89.40599822998047 C113.2760009765625,-89.40599822998047 122.13600158691406,-96.90299987792969 122.46900177001953,-110.20600128173828 C122.92400360107422,-128.36900329589844 108.91699981689453,-135.75100708007812 96.7239990234375,-135.75100708007812 C83.61799621582031,-135.75100708007812 71.55899810791016,-124.77100372314453 71.55699920654297,-110.81800079345703 C71.55500030517578,-97.23999786376953 78.75700378417969,-92.47799682617188 78.75700378417969,-92.47799682617188 C78.75700378417969,-92.47799682617188 52.30500030517578,-12.741000175476074 -3.194999933242798,-8.401000022888184 C-55.10499954223633,-4.3420000076293945 -84.43399810791016,-92.81700134277344 -84.43399810791016,-92.81700134277344 C-84.43399810791016,-92.81700134277344 -79.69499969482422,-98.73999786376953 -79.25900268554688,-109.75700378417969 C-78.71399688720703,-123.5260009765625 -91.36599731445312,-136.25100708007812 -106.51899719238281,-136.25100708007812 C-118.77999877929688,-136.25100708007812 -132.21200561523438,-125.70999908447266 -131.2239990234375,-110.88700103759766 C-130.23599243164062,-96.06400299072266 -120.31400299072266,-90.85299682617188 -120.31400299072266,-90.85299682617188 C-128.2050018310547,-69.28500366210938 -142.19500732421875,-11.489999771118164 -162.4029998779297,4.2769999504089355 C-177.20599365234375,15.82699966430664 -187.46200561523438,-52.42300033569336 -187.46200561523438,-52.42300033569336 C-187.46200561523438,-52.42300033569336 -193.44500732421875,13.758000373840332 -157.85800170898438,68.44499969482422 C-132.80299377441406,106.9469985961914 -87.14299774169922,139.75100708007812 -4.284999847412109,139.75100708007812 C196.26300048828125,139.75100708007812 178.9219970703125,-50.987998962402344 178.9219970703125,-50.987998962402344z"></path></g></g><g style="display: none;"><g><path stroke-linecap="round" stroke-linejoin="round" fill-opacity="0"></path></g></g><g style="display: none;"><g><path stroke-linecap="round" stroke-linejoin="round" fill-opacity="0"></path></g></g><g style="display: none;"><g><path stroke-linecap="round" stroke-linejoin="round" fill-opacity="0"></path></g></g><g style="display: none;"><g><path stroke-linecap="round" stroke-linejoin="round" fill-opacity="0"></path></g></g><g style="display: block;" transform="matrix(1,0,0,1,259.19500732421875,233.74099731445312)" opacity="1"><g opacity="1" transform="matrix(1,0,0,1,0,0)"><path stroke-linecap="round" stroke-linejoin="round" fill-opacity="0" stroke="rgb(221,158,0)" stroke-opacity="1" stroke-width="9" d=" M123.20099639892578,-53.59299850463867 C116.78500366210938,-73.02799987792969 113.2760009765625,-89.40599822998047 113.2760009765625,-89.40599822998047 C113.2760009765625,-89.40599822998047 122.13600158691406,-96.90299987792969 122.46900177001953,-110.20600128173828 C122.92400360107422,-128.36900329589844 108.91699981689453,-135.75100708007812 96.7239990234375,-135.75100708007812 C83.61799621582031,-135.75100708007812 71.55899810791016,-124.77100372314453 71.55699920654297,-110.81800079345703 C71.55500030517578,-97.23999786376953 78.75700378417969,-92.47799682617188 78.75700378417969,-92.47799682617188 C78.75700378417969,-92.47799682617188 52.30500030517578,-12.741000175476074 -3.194999933242798,-8.401000022888184 C-55.10499954223633,-4.3420000076293945 -84.43399810791016,-92.81700134277344 -84.43399810791016,-92.81700134277344 C-84.43399810791016,-92.81700134277344 -79.69499969482422,-98.73999786376953 -79.25900268554688,-109.75700378417969 C-78.71399688720703,-123.5260009765625 -91.36599731445312,-136.25100708007812 -106.51899719238281,-136.25100708007812 C-118.77999877929688,-136.25100708007812 -132.21200561523438,-125.70999908447266 -131.2239990234375,-110.88700103759766 C-130.23599243164062,-96.06400299072266 -120.31400299072266,-90.85299682617188 -120.31400299072266,-90.85299682617188 C-123.86399841308594,-81.1500015258789 -128.6479949951172,-64.11499786376953 -134.67799377441406,-46.87300109863281"></path></g></g><g style="display: none;"><g><path stroke-linecap="round" stroke-linejoin="round" fill-opacity="0"></path></g></g><g style="display: none;"><g><path stroke-linecap="round" stroke-linejoin="round" fill-opacity="0"></path></g></g><g style="display: none;"><g><path stroke-linecap="round" stroke-linejoin="round" fill-opacity="0"></path></g></g><g style="display: none;"><g><path stroke-linecap="round" stroke-linejoin="round" fill-opacity="0"></path></g></g><g style="display: block;" transform="matrix(1,0,0,1,259.19500732421875,233.74099731445312)" opacity="0.5"><g opacity="1" transform="matrix(1,0,0,1,0,0)"><path stroke-linecap="round" stroke-linejoin="round" fill-opacity="0" stroke="rgb(153,98,0)" stroke-opacity="1" stroke-width="9" d=" M67.7699966430664,-67.60399627685547 C55.215999603271484,-43.808998107910156 31.777999877929688,-11.13599967956543 -3.194999933242798,-8.401000022888184 C-34.59700012207031,-5.946000099182129 -57.73500061035156,-37.35200119018555 -71.11699676513672,-62.55099868774414"></path></g></g><g style="display: none;"><g><path stroke-linecap="round" stroke-linejoin="round" fill-opacity="0"></path></g></g><g style="display: none;"><g><path stroke-linecap="round" stroke-linejoin="round" fill-opacity="0"></path></g></g><g style="display: none;"><g><path stroke-linecap="round" stroke-linejoin="round" fill-opacity="0"></path></g></g><g style="display: none;"><g><path stroke-linecap="round" stroke-linejoin="round" fill-opacity="0"></path></g></g><g style="display: block;" transform="matrix(1.0499999523162842,0,0,1.0499999523162842,255.9550018310547,394.1669921875)" opacity="1"><g opacity="1" transform="matrix(1,0,0,1,0,0)"><path fill="url(#__lottie_element_11289)" fill-opacity="1" d=" M-181.11399841308594,-41.61199951171875 C-181.11399841308594,-41.61199951171875 -187.76600646972656,-38.5629997253418 -187.76600646972656,-32.81399917602539 C-187.76600646972656,-25.14699935913086 -187.83700561523438,-13.133000373840332 -186.97900390625,-9.493000030517578 C-186.48699951171875,-7.4070000648498535 -144.43699645996094,41.61199951171875 0.04500000178813934,41.61199951171875 C146.67300415039062,41.61199951171875 185.11599731445312,-3.5369999408721924 185.78399658203125,-7.925000190734863 C186.5800018310547,-13.154999732971191 187.76699829101562,-23.656999588012695 187.76699829101562,-30.698999404907227 C187.76699829101562,-36.25400161743164 181.61399841308594,-39.62200164794922 181.61399841308594,-39.62200164794922 C181.61399841308594,-39.62200164794922 -181.11399841308594,-41.61199951171875 -181.11399841308594,-41.61199951171875z"></path></g></g><g style="display: block;" transform="matrix(1.0499999523162842,0,0,1.0499999523162842,255.9550018310547,394.1669921875)" opacity="1"><g opacity="1" transform="matrix(1,0,0,1,0,0)"><path stroke-linecap="round" stroke-linejoin="round" fill-opacity="0" stroke="rgb(153,98,0)" stroke-opacity="1" stroke-width="8" d=" M-181.11399841308594,-41.61199951171875 C-181.11399841308594,-41.61199951171875 -187.76600646972656,-38.5629997253418 -187.76600646972656,-32.81399917602539 C-187.76600646972656,-25.14699935913086 -187.83700561523438,-13.133000373840332 -186.97900390625,-9.493000030517578 C-186.48699951171875,-7.4070000648498535 -144.43699645996094,41.61199951171875 0.04500000178813934,41.61199951171875 C146.67300415039062,41.61199951171875 185.11599731445312,-3.5369999408721924 185.78399658203125,-7.925000190734863 C186.5800018310547,-13.154999732971191 187.76699829101562,-23.656999588012695 187.76699829101562,-30.698999404907227 C187.76699829101562,-36.25400161743164 181.61399841308594,-39.62200164794922 181.61399841308594,-39.62200164794922 C181.61399841308594,-39.62200164794922 -181.11399841308594,-41.61199951171875 -181.11399841308594,-41.61199951171875z"></path></g></g><g style="display: block;" transform="matrix(1,0,0,1,254.906005859375,267.6659851074219)" opacity="1"><g opacity="1" transform="matrix(1,0,0,1,0,0)"><path fill="url(#__lottie_element_11284)" fill-opacity="1" d=" M-187.6820068359375,-85.00299835205078 C-188.156005859375,-5.915999889373779 -187.06500244140625,43.08599853515625 -187.06500244140625,81.38899993896484 C-187.06500244140625,95.83399963378906 -126.5530014038086,128.51300048828125 2.0940001010894775,128.51300048828125 C131.4429931640625,128.51300048828125 188.41200256347656,97.33300018310547 188.41200256347656,78.37899780273438 C188.41200256347656,13.562999725341797 188.593994140625,-30.416000366210938 188.12600708007812,-86.67400360107422 C188.12600708007812,-86.67400360107422 211.093994140625,-91.91600036621094 211.6510009765625,-113.7490005493164 C212.3699951171875,-141.93699645996094 188.56100463867188,-143.4759979248047 180.64100646972656,-143.29200744628906 C176.00399780273438,-143.1840057373047 156.09500122070312,-139.91600036621094 153.76199340820312,-117.96099853515625 C151.375,-95.49299621582031 175.41000366210938,-88.00299835205078 175.41000366210938,-88.00299835205078 C175.41000366210938,-88.00299835205078 169.74899291992188,-34.10499954223633 148.61399841308594,-0.3709999918937683 C127.47899627685547,33.362998962402344 94.06999969482422,27.52400016784668 74.36199951171875,6.598999977111816 C47.7400016784668,-21.66699981689453 24.672000885009766,-71.47699737548828 24.672000885009766,-71.47699737548828 C29.2189998626709,-77.54100036621094 32.09400177001953,-83.79100036621094 32.2130012512207,-94.09300231933594 C32.4109992980957,-111.19400024414062 16.635000228881836,-123.91699981689453 1.3960000276565552,-123.91200256347656 C-12.298999786376953,-123.90799713134766 -29.417999267578125,-113.56600189208984 -29.47599983215332,-96.48400115966797 C-29.5310001373291,-80.29100036621094 -22.492000579833984,-72.43900299072266 -22.492000579833984,-72.43900299072266 C-22.492000579833984,-72.43900299072266 -26.55500030517578,-60.805999755859375 -50.16999816894531,-19.08300018310547 C-71.45099639892578,18.516000747680664 -93.40599822998047,29.833999633789062 -119.93699645996094,21.895000457763672 C-158.32200622558594,10.409000396728516 -168.447998046875,-87.81700134277344 -168.447998046875,-87.81700134277344 C-168.447998046875,-87.81700134277344 -151.656005859375,-98.16600036621094 -151.98800659179688,-116.13300323486328 C-152.343994140625,-135.41299438476562 -170.01100158691406,-144.0030059814453 -181.9320068359375,-143.9219970703125 C-201.156005859375,-143.79100036621094 -209.9550018310547,-124.79299926757812 -209.68600463867188,-112.63700103759766 C-209.281005859375,-94.29100036621094 -187.6820068359375,-85.00299835205078 -187.6820068359375,-85.00299835205078z"></path></g></g><g style="display: none;"><g><path fill="url(#__lottie_element_11280)"></path></g></g><g style="display: none;"><g><path fill="url(#__lottie_element_11276)"></path></g></g><g style="display: none;"><g><path fill="url(#__lottie_element_11272)"></path></g></g><g style="display: none;"><g><path fill="url(#__lottie_element_11268)"></path></g></g><g style="display: block;" transform="matrix(1,0,0,1,145.66099548339844,316.4100036621094)" opacity="0.1"><g opacity="1" transform="matrix(1,0,0,1,0,0)"><path fill="rgb(152,102,1)" fill-opacity="1" d=" M-59.60100173950195,-187.3560028076172 C-59.60100173950195,-187.3560028076172 -53.70199966430664,-26.930999755859375 -56.54499816894531,44.96699905395508 C-56.54499816894531,44.96699905395508 -27.18600082397461,73.09300231933594 42.11800003051758,78.1050033569336 C42.11800003051758,78.1050033569336 7.159999847412109,54.457000732421875 29.822999954223633,-31.30900001525879 C29.822999954223633,-31.30900001525879 -45.1619987487793,13.08899974822998 -58.888999938964844,-135.58900451660156 C-48.6619987487793,-143.25 -31.660999298095703,-166.25 -51.59000015258789,-184.06399536132812 C-55.6609992980957,-185.25 -53.6609992980957,-184.75 -51.7760009765625,-184.843994140625 C-51.6609992980957,-185.25 -59.60100173950195,-187.3560028076172 -59.60100173950195,-187.3560028076172z"></path></g></g><g style="display: block;" transform="matrix(1,0,0,1,363.4639892578125,317.4100036621094)" opacity="0.1"><g opacity="1" transform="matrix(1,0,0,1,0,0)"><path fill="rgb(152,102,1)" fill-opacity="1" d=" M54.68199920654297,-185.10499572753906 C54.68199920654297,-185.10499572753906 53.70199966430664,-25.930999755859375 56.54499816894531,45.96699905395508 C56.54499816894531,45.96699905395508 27.033000946044922,66.59300231933594 -42.270999908447266,71.6050033569336 C-42.270999908447266,71.6050033569336 -19.464000701904297,-2.9100000858306885 -56.625999450683594,-74.9260025024414 C-56.625999450683594,-74.9260025024414 -29.464000701904297,-20.40999984741211 8.529999732971191,-26.724000930786133 C25.584999084472656,-29.558000564575195 59.0359992980957,-60.4109992980957 66.98899841308594,-136.50900268554688 C41.400001525878906,-152.02200317382812 45.3489990234375,-169.35299682617188 50.198001861572266,-178.54600524902344 C52.35100173950195,-182.6280059814453 54.68199920654297,-185.10499572753906 54.68199920654297,-185.10499572753906z"></path></g></g><g style="display: block;" transform="matrix(1,0,0,1,256.3429870605469,166.7469940185547)" opacity="0.3"><g opacity="1" transform="matrix(1,0,0,1,0,0)"><path fill="rgb(255,255,255)" fill-opacity="1" d=" M33.645999908447266,12.625 C33.625999450683594,15.21500015258789 33.38600158691406,17.584999084472656 32.97600173950195,19.764999389648438 C29.676000595092773,4.494999885559082 14.685999870300293,-7.244999885559082 0.0860000029206276,-7.235000133514404 C-13.784000396728516,-7.235000133514404 -29.634000778198242,3.555000066757202 -32.98400115966797,19.844999313354492 C-33.57400131225586,16.815000534057617 -33.81399917602539,13.53499984741211 -33.52399826049805,10.024999618530273 C-32.02399826049805,-8.515000343322754 -14.824000358581543,-19.834999084472656 0.0860000029206276,-19.844999313354492 C16.676000595092773,-19.844999313354492 33.76599884033203,-5.994999885559082 33.645999908447266,12.625z"></path></g></g><g style="display: none;"><g><path></path></g></g><g style="display: none;"><g><path></path></g></g><g style="display: block;" transform="matrix(1,0,0,1,158.6840057373047,259.9840087890625)" opacity="0.3"><g opacity="1" transform="matrix(1,0,0,1,0,0)"><path fill="rgb(255,216,0)" fill-opacity="1" d=" M78.9749984741211,-63.152000427246094 C78.9749984741211,-63.152000427246094 73.91600036621094,-38.01100158691406 50.30500030517578,3.7079999446868896 C29.024999618530273,41.30799865722656 2.7909998893737793,64.1259994506836 -31.96500015258789,44.1879997253418 C-66.7249984741211,24.24799919128418 -73.4749984741211,-66.03199768066406 -73.4749984741211,-66.03199768066406 C-73.4749984741211,-66.03199768066406 -72.75499725341797,-67.2020034790039 -71.76499938964844,-69.26200103759766 C-67.57499694824219,-46.61199951171875 -56.654998779296875,12.614999771118164 -28.46500015258789,26.077999114990234 C2.815999984741211,41.01599884033203 25.815000534057617,24.516000747680664 48.80500030517578,-14.902000427246094 C63.33399963378906,-39.8129997253418 71.04499816894531,-56.96200180053711 75.18499755859375,-66.89199829101562 C77.34500122070312,-64.4520034790039 78.9749984741211,-63.152000427246094 78.9749984741211,-63.152000427246094z"></path></g></g><g style="display: block;" transform="matrix(1,0,0,1,353.4490051269531,258.1619873046875)" opacity="0.3"><g opacity="1" transform="matrix(1,0,0,1,0,0)"><path fill="rgb(255,216,0)" fill-opacity="1" d=" M76.87000274658203,-54.14099884033203 C76.87000274658203,-54.14099884033203 69.70999908447266,-0.9909999966621399 48.56999969482422,32.73899841308594 C27.440000534057617,66.46900177001953 -7.127999782562256,57.566001892089844 -27.43000030517578,37.20899963378906 C-61.95899963378906,2.5869998931884766 -75.62000274658203,-58.12099838256836 -75.62000274658203,-58.12099838256836 C-74.4489974975586,-59.41299819946289 -73.2300033569336,-60.441001892089844 -71.93000030517578,-61.79100036621094 C-64.43000030517578,-42.361000061035156 -45.150001525878906,-3.871000051498413 -24.93000030517578,17.599000930786133 C-5.21999979019165,38.52899932861328 28.190000534057617,44.86899948120117 49.31999969482422,11.128999710083008 C64.37999725341797,-12.901000022888184 68.62000274658203,-40.89099884033203 72.83000183105469,-57.590999603271484 C74.2699966430664,-55.80099868774414 76.87000274658203,-54.14099884033203 76.87000274658203,-54.14099884033203z"></path></g></g><g style="display: none;"><g><path></path></g></g><g style="display: none;"><g><path></path></g></g><g style="display: block;" transform="matrix(1,0,0,1,254.906005859375,267.6659851074219)" opacity="1"><g opacity="1" transform="matrix(1,0,0,1,0,0)"><path stroke-linecap="round" stroke-linejoin="round" fill-opacity="0" stroke="rgb(153,98,0)" stroke-opacity="1" stroke-width="8" d=" M-187.6820068359375,-85.00299835205078 C-188.156005859375,-5.915999889373779 -187.06500244140625,43.08599853515625 -187.06500244140625,81.38899993896484 C-187.06500244140625,95.83399963378906 -126.5530014038086,128.51300048828125 2.0940001010894775,128.51300048828125 C131.4429931640625,128.51300048828125 188.41200256347656,97.33300018310547 188.41200256347656,78.37899780273438 C188.41200256347656,13.562999725341797 188.593994140625,-30.416000366210938 188.12600708007812,-86.67400360107422 C188.12600708007812,-86.67400360107422 211.093994140625,-91.91600036621094 211.6510009765625,-113.7490005493164 C212.3699951171875,-141.93699645996094 188.56100463867188,-143.4759979248047 180.64100646972656,-143.29200744628906 C176.00399780273438,-143.1840057373047 156.09500122070312,-139.91600036621094 153.76199340820312,-117.96099853515625 C151.375,-95.49299621582031 175.41000366210938,-88.00299835205078 175.41000366210938,-88.00299835205078 C175.41000366210938,-88.00299835205078 169.74899291992188,-34.10499954223633 148.61399841308594,-0.3709999918937683 C127.47899627685547,33.362998962402344 94.06999969482422,27.52400016784668 74.36199951171875,6.598999977111816 C47.7400016784668,-21.66699981689453 24.672000885009766,-71.47699737548828 24.672000885009766,-71.47699737548828 C29.2189998626709,-77.54100036621094 32.09400177001953,-83.79100036621094 32.2130012512207,-94.09300231933594 C32.4109992980957,-111.19400024414062 16.635000228881836,-123.91699981689453 1.3960000276565552,-123.91200256347656 C-12.298999786376953,-123.90799713134766 -29.417999267578125,-113.56600189208984 -29.47599983215332,-96.48400115966797 C-29.5310001373291,-80.29100036621094 -22.492000579833984,-72.43900299072266 -22.492000579833984,-72.43900299072266 C-22.492000579833984,-72.43900299072266 -26.55500030517578,-60.805999755859375 -50.16999816894531,-19.08300018310547 C-71.45099639892578,18.516000747680664 -93.40599822998047,29.833999633789062 -119.93699645996094,21.895000457763672 C-158.32200622558594,10.409000396728516 -168.447998046875,-87.81700134277344 -168.447998046875,-87.81700134277344 C-168.447998046875,-87.81700134277344 -151.656005859375,-98.16600036621094 -151.98800659179688,-116.13300323486328 C-152.343994140625,-135.41299438476562 -170.01100158691406,-144.0030059814453 -181.9320068359375,-143.9219970703125 C-201.156005859375,-143.79100036621094 -209.9550018310547,-124.79299926757812 -209.68600463867188,-112.63700103759766 C-209.281005859375,-94.29100036621094 -187.6820068359375,-85.00299835205078 -187.6820068359375,-85.00299835205078z"></path></g></g><g style="display: none;"><g><path stroke-linecap="round" stroke-linejoin="round" fill-opacity="0"></path></g></g><g style="display: none;"><g><path stroke-linecap="round" stroke-linejoin="round" fill-opacity="0"></path></g></g><g style="display: none;"><g><path stroke-linecap="round" stroke-linejoin="round" fill-opacity="0"></path></g></g><g style="display: none;"><g><path stroke-linecap="round" stroke-linejoin="round" fill-opacity="0"></path></g></g><g style="display: block;" transform="matrix(1,0,0,1,254.906005859375,267.6659851074219)" opacity="0.75"><g opacity="1" transform="matrix(1,0,0,1,0,0)"><path stroke-linecap="round" stroke-linejoin="round" fill-opacity="0" stroke="rgb(221,158,0)" stroke-opacity="1" stroke-width="9" d=" M139.3509979248047,11.281000137329102 C118.6240005493164,31.490999221801758 91.38300323486328,24.67099952697754 74.36199951171875,6.598999977111816 C47.7400016784668,-21.66699981689453 24.672000885009766,-71.47699737548828 24.672000885009766,-71.47699737548828 C29.2189998626709,-77.54100036621094 32.09400177001953,-83.79100036621094 32.2130012512207,-94.09300231933594 C32.4109992980957,-111.19400024414062 16.635000228881836,-123.91699981689453 1.3960000276565552,-123.91200256347656 C-12.298999786376953,-123.90799713134766 -29.417999267578125,-113.56600189208984 -29.47599983215332,-96.48400115966797 C-29.5310001373291,-80.29100036621094 -22.492000579833984,-72.43900299072266 -22.492000579833984,-72.43900299072266 C-22.492000579833984,-72.43900299072266 -26.55500030517578,-60.805999755859375 -50.16999816894531,-19.08300018310547 C-71.45099639892578,18.516000747680664 -93.40599822998047,29.833999633789062 -119.93699645996094,21.895000457763672 C-124.86000061035156,20.422000885009766 -129.3179931640625,17.52199935913086 -133.3489990234375,13.586000442504883"></path></g></g><g style="display: none;"><g><path stroke-linecap="round" stroke-linejoin="round" fill-opacity="0"></path></g></g><g style="display: none;"><g><path stroke-linecap="round" stroke-linejoin="round" fill-opacity="0"></path></g></g><g style="display: none;"><g><path stroke-linecap="round" stroke-linejoin="round" fill-opacity="0"></path></g></g><g style="display: none;"><g><path stroke-linecap="round" stroke-linejoin="round" fill-opacity="0"></path></g></g><g style="display: block;" transform="matrix(1,0,0,1,254.906005859375,267.6659851074219)" opacity="0.75"><g opacity="1" transform="matrix(1,0,0,1,0,0)"><path stroke-linecap="round" stroke-linejoin="round" fill-opacity="0" stroke="rgb(242,206,41)" stroke-opacity="1" stroke-width="9" d=" M29.42799949645996,-79.48400115966797 C31.145000457763672,-83.49199676513672 32.14400100708008,-88.10900115966797 32.2130012512207,-94.09300231933594 C32.4109992980957,-111.19400024414062 16.635000228881836,-123.91699981689453 1.3960000276565552,-123.91200256347656 C-12.298999786376953,-123.90799713134766 -29.417999267578125,-113.56600189208984 -29.47599983215332,-96.48400115966797 C-29.496000289916992,-90.50900268554688 -28.551000595092773,-85.66899871826172 -27.349000930786133,-81.94100189208984"></path></g></g><g style="display: none;"><g><path stroke-linecap="round" stroke-linejoin="round" fill-opacity="0"></path></g></g><g style="display: none;"><g><path stroke-linecap="round" stroke-linejoin="round" fill-opacity="0"></path></g></g><g style="display: none;"><g><path stroke-linecap="round" stroke-linejoin="round" fill-opacity="0"></path></g></g><g style="display: none;"><g><path stroke-linecap="round" stroke-linejoin="round" fill-opacity="0"></path></g></g><g style="display: block;" transform="matrix(1,0,0,1,256.2040100097656,371.86700439453125)" opacity="0.5"><g opacity="1" transform="matrix(1,0,0,1,0,0)"><path stroke-linecap="round" stroke-linejoin="round" fill-opacity="0" stroke="rgb(153,98,0)" stroke-opacity="1" stroke-width="8" d=" M-186.86300659179688,-27.812000274658203 C-187.0800018310547,-15.85200023651123 -128.6009979248047,16.562000274658203 0.04600000008940697,16.562000274658203 C129.39500427246094,16.562000274658203 186.61399841308594,-16.2189998626709 186.61399841308594,-28.57200050354004"></path></g></g><g style="display: block;" transform="matrix(1,0,0,1,256.2040100097656,379.86700439453125)" opacity="1"><g opacity="1" transform="matrix(1,0,0,1,0,0)"><path stroke-linecap="round" stroke-linejoin="round" fill-opacity="0" stroke="rgb(221,158,0)" stroke-opacity="1" stroke-width="9" d=" M-186.86300659179688,-27.812000274658203 C-187.0800018310547,-15.85200023651123 -128.6009979248047,16.562000274658203 0.04600000008940697,16.562000274658203 C129.39500427246094,16.562000274658203 186.61399841308594,-16.2189998626709 186.61399841308594,-28.57200050354004"></path></g></g><g style="display: block;" transform="matrix(1,0,0,1,254.38099670410156,395.1789855957031)" opacity="1"><g opacity="1" transform="matrix(1,0,0,1,0,-0.25)"><path stroke-linecap="round" stroke-linejoin="round" fill-opacity="0" stroke="rgb(242,206,41)" stroke-opacity="1" stroke-width="9" d=" M-66.40799713134766,-2.25 C-46.624000549316406,0.5559999942779541 -24.009000778198242,2.25 1.61899995803833,2.25 C25.871999740600586,2.25 47.41400146484375,0.8339999914169312 66.40799713134766,-1.5490000247955322"></path></g></g><g style="display: block;" transform="matrix(1,0,0,1,0,4.5)" opacity="0.2"><g opacity="1" transform="matrix(1,0,0,1,254.906005859375,346.8789978027344)"><g opacity="1" transform="matrix(1,0,0,1,0,0)"><path fill="rgb(40,191,132)" fill-opacity="1" d=" M-169.906005859375,-28.378999710083008 C-169.906005859375,-9.876999855041504 -176.50999450683594,5.120999813079834 -184.656005859375,5.120999813079834 C-192.802001953125,5.120999813079834 -199.406005859375,-9.876999855041504 -199.406005859375,-28.378999710083008 C-199.406005859375,-28.378999710083008 -199.406005859375,-28.378999710083008 -199.406005859375,-28.378999710083008"></path></g></g></g><g style="display: block;" transform="matrix(1,0,0,1,0,-6.5)" opacity="1"><g opacity="1" transform="matrix(1,0,0,1,0,-8.5)"><g opacity="1" transform="matrix(1,0,0,1,254.906005859375,355.3789978027344)"><g opacity="1" transform="matrix(1,0,0,1,0,0)"><path fill="rgb(40,191,132)" fill-opacity="1" d=" M-169.906005859375,-28.378999710083008 C-169.906005859375,-9.876999855041504 -176.50999450683594,5.120999813079834 -184.656005859375,5.120999813079834 C-192.802001953125,5.120999813079834 -199.406005859375,-9.876999855041504 -199.406005859375,-28.378999710083008 C-199.406005859375,-46.88100051879883 -192.802001953125,-61.87900161743164 -184.656005859375,-61.87900161743164 C-176.50999450683594,-61.87900161743164 -169.906005859375,-46.88100051879883 -169.906005859375,-28.378999710083008z"></path></g></g><g opacity="0.3" transform="matrix(1,0,0,1,254.9040069580078,368.0610046386719)"><g opacity="1" transform="matrix(1,0,0,1,0,0)"><path fill="rgb(0,114,92)" fill-opacity="1" d=" M-169.906005859375,-41.058998107910156 C-169.906005859375,-22.562000274658203 -176.50900268554688,-7.563000202178955 -184.6529998779297,-7.563000202178955 C-192.80099487304688,-7.563000202178955 -199.4040069580078,-22.562000274658203 -199.4040069580078,-41.058998107910156 C-199.4040069580078,-43.89899826049805 -197.8990020751953,-46.64899826049805 -197.61199951171875,-49.279998779296875 C-198.41700744628906,-33.707000732421875 -191.55299377441406,-23.010000228881836 -184.6529998779297,-23.010000228881836 C-177.75799560546875,-23.010000228881836 -171.55099487304688,-33.50899887084961 -171.697998046875,-49.279998779296875 C-171.41000366210938,-46.64899826049805 -169.906005859375,-43.89899826049805 -169.906005859375,-41.058998107910156z"></path></g></g><g opacity="0.3" transform="matrix(1,0,0,1,254.906005859375,342.2239990234375)"><g opacity="1" transform="matrix(1,0,0,1,0,0)"><path fill="rgb(255,255,255)" fill-opacity="1" d=" M-174.60000610351562,-28.333999633789062 C-174.60000610351562,-19.301000595092773 -179.1020050048828,-11.977999687194824 -184.656005859375,-11.977999687194824 C-190.2100067138672,-11.977999687194824 -194.71200561523438,-19.301000595092773 -194.71200561523438,-28.333999633789062 C-194.71200561523438,-37.367000579833984 -190.2100067138672,-44.689998626708984 -184.656005859375,-44.689998626708984 C-179.1020050048828,-44.689998626708984 -174.60000610351562,-37.367000579833984 -174.60000610351562,-28.333999633789062z"></path></g></g><g opacity="0.6" transform="matrix(1,0,0,1,254.906005859375,335.4159851074219)"><g opacity="1" transform="matrix(1,0,0,1,0,0)"><path fill="rgb(255,255,255)" fill-opacity="1" d=" M-174.60000610351562,-21.524999618530273 C-174.60000610351562,-12.491999626159668 -176.1699981689453,-28.320999145507812 -184.656005859375,-28.320999145507812 C-192.93099975585938,-28.320999145507812 -194.71200561523438,-12.491999626159668 -194.71200561523438,-21.524999618530273 C-194.71200561523438,-30.558000564575195 -190.2100067138672,-37.88100051879883 -184.656005859375,-37.88100051879883 C-179.1020050048828,-37.88100051879883 -174.60000610351562,-30.558000564575195 -174.60000610351562,-21.524999618530273z"></path></g></g></g><g opacity="1" transform="matrix(1,0,0,1,254.906005859375,346.8789978027344)"><g opacity="1" transform="matrix(1,0,0,1,0,0)"><path stroke-linecap="round" stroke-linejoin="round" fill-opacity="0" stroke="rgb(0,124,91)" stroke-opacity="1" stroke-width="8" d=" M-169.906005859375,-28.378999710083008 C-169.906005859375,-9.876999855041504 -176.50999450683594,5.120999813079834 -184.656005859375,5.120999813079834 C-192.802001953125,5.120999813079834 -199.406005859375,-9.876999855041504 -199.406005859375,-28.378999710083008 C-199.406005859375,-46.88100051879883 -192.802001953125,-61.87900161743164 -184.656005859375,-61.87900161743164 C-176.50999450683594,-61.87900161743164 -169.906005859375,-46.88100051879883 -169.906005859375,-28.378999710083008z"></path></g></g><g opacity="1" transform="matrix(1,0,0,1,254.906005859375,346.8789978027344)"><g opacity="1" transform="matrix(1,0,0,1,0,0)"><path stroke-linecap="round" stroke-linejoin="round" fill-opacity="0" stroke="rgb(0,84,68)" stroke-opacity="1" stroke-width="8" d=" M-169.906005859375,-28.378999710083008 C-169.906005859375,-9.876999855041504 -176.50999450683594,5.120999813079834 -184.656005859375,5.120999813079834 C-192.802001953125,5.120999813079834 -199.406005859375,-9.876999855041504 -199.406005859375,-28.378999710083008 C-199.406005859375,-28.378999710083008 -199.406005859375,-28.378999710083008 -199.406005859375,-28.378999710083008"></path></g></g></g><g style="display: block;" transform="matrix(1,0,0,1,0,1.5)" opacity="0.2"><g opacity="1" transform="matrix(1,0,0,1,135.68499755859375,347.0509948730469)"><path fill="rgb(181,18,150)" fill-opacity="1" d=" M-2.118000030517578,-21.464000701904297 C-15.057000160217285,-20.424999237060547 -20.621000289916992,-7.5 -18.66200065612793,5.239999771118164 C-16.915000915527344,16.60300064086914 -7.348999977111816,27.55500030517578 4.796000003814697,26.43899917602539 C13.824999809265137,25.608999252319336 21.34000015258789,16.802000045776367 19.857999801635742,1.4900000095367432 C18.375999450683594,-13.821999549865723 8.006999969482422,-22.277000427246094 -2.118000030517578,-21.464000701904297z"></path></g></g><g style="display: block;" transform="matrix(1,0,0,1,0,-8.5)" opacity="1"><g opacity="1" transform="matrix(1,0,0,1,135.68499755859375,347.0509948730469)"><path fill="rgb(216,67,167)" fill-opacity="1" d=" M-2.118000030517578,-21.464000701904297 C-15.057000160217285,-20.424999237060547 -20.621000289916992,-7.5 -18.66200065612793,5.239999771118164 C-16.915000915527344,16.60300064086914 -7.348999977111816,27.55500030517578 4.796000003814697,26.43899917602539 C13.824999809265137,25.608999252319336 21.34000015258789,16.802000045776367 19.857999801635742,1.4900000095367432 C18.375999450683594,-13.821999549865723 8.006999969482422,-22.277000427246094 -2.118000030517578,-21.464000701904297z"></path></g><g opacity="1" transform="matrix(1,0,0,1,135.68099975585938,347.0539855957031)"><path fill="rgb(191,50,178)" fill-opacity="1" d=" M4.797999858856201,26.437999725341797 C-7.3420000076293945,27.558000564575195 -16.91200065612793,16.597999572753906 -18.66200065612793,5.23799991607666 C-19.131999969482422,2.187999963760376 -19.172000885009766,-0.8820000290870667 -18.77199935913086,-3.7820000648498535 C-18.75200080871582,-3.691999912261963 -18.742000579833984,-3.5920000076293945 -18.722000122070312,-3.502000093460083 C-17.281999588012695,4.1479997634887695 -12.697999954223633,12.654000282287598 -0.2329999953508377,11.416999816894531 C7.2210001945495605,10.677000045776367 14.357999801635742,4.288000106811523 13.137999534606934,-6.0320000648498535 C12.038000106811523,-15.222000122070312 5.107999801635742,-20.742000579833984 -2.322000026702881,-21.441999435424805 C-2.252000093460083,-21.45199966430664 -2.181999921798706,-21.45199966430664 -2.111999988555908,-21.461999893188477 C8.008000373840332,-22.281999588012695 18.378000259399414,-13.821999549865723 19.857999801635742,1.4880000352859497 C21.33799934387207,16.79800033569336 13.82800006866455,25.607999801635742 4.797999858856201,26.437999725341797z"></path></g><g opacity="0.1" transform="matrix(1,0,0,1,132.61099243164062,336.85400390625)"><path fill="rgb(255,255,255)" fill-opacity="1" d=" M-5.807000160217285,-5.098999977111816 C-13.097999572753906,-0.6050000190734863 -13.779999732971191,5.788000106811523 -10.140000343322754,9.718999862670898 C-6.894000053405762,13.225000381469727 0.8009999990463257,14.093999862670898 7.617000102996826,9.826000213623047 C12.684000015258789,6.6529998779296875 15.305000305175781,1.1109999418258667 11.435999870300293,-3.8919999599456787 C7.566999912261963,-8.895000457763672 -0.10199999809265137,-8.614999771118164 -5.807000160217285,-5.098999977111816z"></path></g><g opacity="0.5" transform="matrix(1,0,0,1,132.51699829101562,335.59698486328125)"><path fill="rgb(255,255,255)" fill-opacity="1" d=" M-5.7129998207092285,-3.8410000801086426 C-13.003999710083008,0.652999997138977 -11.774999618530273,8.843999862670898 -10.045000076293945,10.97700023651123 C-8.04800033569336,13.437999725341797 -10.598999977111816,5.585000038146973 -2.688999891281128,0.37599998712539673 C5.0329999923706055,-4.709000110626221 15.399999618530273,2.368000030517578 11.531000137329102,-2.634999990463257 C7.6620001792907715,-7.638000011444092 -0.00800000037997961,-7.35699987411499 -5.7129998207092285,-3.8410000801086426z"></path></g><g opacity="1" transform="matrix(1,0,0,1,135.68499755859375,347.0509948730469)"><path stroke-linecap="round" stroke-linejoin="round" fill-opacity="0" stroke="rgb(181,18,150)" stroke-opacity="1" stroke-width="8" d=" M-2.118000030517578,-21.464000701904297 C-15.057000160217285,-20.424999237060547 -20.621000289916992,-7.5 -18.66200065612793,5.239999771118164 C-16.915000915527344,16.60300064086914 -7.348999977111816,27.55500030517578 4.796000003814697,26.43899917602539 C13.824999809265137,25.608999252319336 21.34000015258789,16.802000045776367 19.857999801635742,1.4900000095367432 C18.375999450683594,-13.821999549865723 8.006999969482422,-22.277000427246094 -2.118000030517578,-21.464000701904297z"></path></g><g opacity="1" transform="matrix(1,0,0,1,138.2729949951172,358.55499267578125)"><path stroke-linecap="round" stroke-linejoin="round" fill-opacity="0" stroke="rgb(147,0,126)" stroke-opacity="1" stroke-width="8" d=" M-16.457000732421875,5.4629998207092285 C-12.166000366210938,11.494000434875488 -5.499000072479248,15.642999649047852 2.2070000171661377,14.9350004196167 C11.236000061035156,14.104999542236328 18.750999450683594,5.297999858856201 17.268999099731445,-10.013999938964844"></path></g></g><g style="display: block;" transform="matrix(1,0,0,1,254.906005859375,359.3789978027344)" opacity="0.2"><path fill="rgb(40,191,132)" fill-opacity="1" d=" M40.560001373291016,-2.878999948501587 C40.560001373291016,16.451000213623047 25.25200080871582,32.12099838256836 6.369999885559082,32.12099838256836 C-12.51200008392334,32.12099838256836 -27.81999969482422,16.451000213623047 -27.81999969482422,-2.878999948501587 C-27.81999969482422,-22.208999633789062 -12.512999534606934,-37.87900161743164 6.369999885559082,-37.87900161743164 C25.253000259399414,-37.87900161743164 40.560001373291016,-22.208999633789062 40.560001373291016,-2.878999948501587z"></path><g opacity="1" transform="matrix(1,0,0,1,0,0)"></g></g><g style="display: block;" transform="matrix(1,0,0,1,0,-8.5)" opacity="1"><g opacity="1" transform="matrix(1,0,0,1,254.906005859375,355.3789978027344)"><g opacity="1" transform="matrix(1,0,0,1,0,0)"><path fill="rgb(40,191,132)" fill-opacity="1" d=" M40.560001373291016,-2.878999948501587 C40.560001373291016,16.451000213623047 25.25200080871582,32.12099838256836 6.369999885559082,32.12099838256836 C-12.51200008392334,32.12099838256836 -27.81999969482422,16.451000213623047 -27.81999969482422,-2.878999948501587 C-27.81999969482422,-22.208999633789062 -12.512999534606934,-37.87900161743164 6.369999885559082,-37.87900161743164 C25.253000259399414,-37.87900161743164 40.560001373291016,-22.208999633789062 40.560001373291016,-2.878999948501587z"></path></g></g><g opacity="0.3" transform="matrix(1,0,0,1,254.9040069580078,368.0610046386719)"><g opacity="1" transform="matrix(1,0,0,1,0,0)"><path fill="rgb(0,114,92)" fill-opacity="1" d=" M40.55799865722656,-15.557999610900879 C40.55799865722656,3.7669999599456787 25.25200080871582,19.437000274658203 6.375,19.437000274658203 C-12.512999534606934,19.437000274658203 -27.819000244140625,3.7669999599456787 -27.819000244140625,-15.557999610900879 C-27.819000244140625,-18.525999069213867 -24.329999923706055,-21.39900016784668 -23.663999557495117,-24.148000717163086 C-25.5310001373291,-7.876999855041504 -9.618000030517578,3.2980000972747803 6.375,3.2980000972747803 C22.357999801635742,3.2980000972747803 36.74599838256836,-7.671000003814697 36.40399932861328,-24.148000717163086 C37.06999969482422,-21.39900016784668 40.55799865722656,-18.525999069213867 40.55799865722656,-15.557999610900879z"></path></g></g><g opacity="0.3" transform="matrix(1,0,0,1,254.906005859375,342.2239990234375)"><g opacity="1" transform="matrix(1,0,0,1,0,0)"><path fill="rgb(255,255,255)" fill-opacity="1" d=" M29.679000854492188,-3.4210000038146973 C29.679000854492188,6.017000198364258 19.243000030517578,13.666999816894531 6.369999885559082,13.666999816894531 C-6.502999782562256,13.666999816894531 -16.93899917602539,6.017000198364258 -16.93899917602539,-3.4210000038146973 C-16.93899917602539,-12.859000205993652 -6.502999782562256,-20.509000778198242 6.369999885559082,-20.509000778198242 C19.243000030517578,-20.509000778198242 29.679000854492188,-12.859000205993652 29.679000854492188,-3.4210000038146973z"></path></g></g><g opacity="0.6" transform="matrix(1,0,0,1,254.906005859375,335.4159851074219)"><g opacity="1" transform="matrix(1,0,0,1,0,0)"><path fill="rgb(255,255,255)" fill-opacity="1" d=" M29.679000854492188,3.388000011444092 C29.679000854492188,12.826000213623047 26.038999557495117,-3.7119998931884766 6.369999885559082,-3.7119998931884766 C-12.812000274658203,-3.7119998931884766 -16.93899917602539,12.826000213623047 -16.93899917602539,3.388000011444092 C-16.93899917602539,-6.050000190734863 -6.502999782562256,-13.699999809265137 6.369999885559082,-13.699999809265137 C19.243000030517578,-13.699999809265137 29.679000854492188,-6.050000190734863 29.679000854492188,3.388000011444092z"></path></g></g></g><g style="display: block;" transform="matrix(1,0,0,1,254.906005859375,346.8789978027344)" opacity="1"><g opacity="1" transform="matrix(1,0,0,1,0,0)"><path stroke-linecap="round" stroke-linejoin="round" fill-opacity="0" stroke="rgb(0,124,91)" stroke-opacity="1" stroke-width="8" d=" M40.560001373291016,-2.878999948501587 C40.560001373291016,16.451000213623047 25.25200080871582,32.12099838256836 6.369999885559082,32.12099838256836 C-12.51200008392334,32.12099838256836 -27.81999969482422,16.451000213623047 -27.81999969482422,-2.878999948501587 C-27.81999969482422,-22.208999633789062 -12.512999534606934,-37.87900161743164 6.369999885559082,-37.87900161743164 C25.253000259399414,-37.87900161743164 40.560001373291016,-22.208999633789062 40.560001373291016,-2.878999948501587z"></path></g></g><g style="display: block;" transform="matrix(1,0,0,1,254.906005859375,346.8789978027344)" opacity="1"><g opacity="1" transform="matrix(1,0,0,1,0,0)"><path stroke-linecap="round" stroke-linejoin="round" fill-opacity="0" stroke="rgb(0,84,68)" stroke-opacity="1" stroke-width="8" d=" M40.560001373291016,-2.878999948501587 C40.560001373291016,16.451000213623047 25.25200080871582,32.12099838256836 6.369999885559082,32.12099838256836 C-12.51200008392334,32.12099838256836 -27.81999969482422,16.451000213623047 -27.81999969482422,-2.878999948501587 C-27.81999969482422,-2.878999948501587 -27.81999969482422,-2.878999948501587 -27.81999969482422,-2.878999948501587"></path></g></g><g style="display: block;" transform="matrix(1,0,0,1,0,6)" opacity="0.2"><g opacity="1" transform="matrix(1,0,0,1,374.6109924316406,347.1310119628906)"><path fill="rgb(216,67,167)" fill-opacity="1" d=" M2.868000030517578,-21.714000701904297 C15.807000160217285,-20.674999237060547 21.371000289916992,-7.75 19.41200065612793,4.989999771118164 C17.665000915527344,16.35300064086914 8.098999977111816,27.30500030517578 -4.046000003814697,26.18899917602539 C-13.074999809265137,25.358999252319336 -20.59000015258789,16.552000045776367 -19.107999801635742,1.2400000095367432 C-17.625999450683594,-14.071999549865723 -7.256999969482422,-22.527000427246094 2.868000030517578,-21.714000701904297z"></path></g></g><g style="display: block;" transform="matrix(1,0,0,1,0,-4)" opacity="1"><g opacity="1" transform="matrix(1,0,0,1,374.6109924316406,347.1310119628906)"><path fill="rgb(216,67,167)" fill-opacity="1" d=" M2.868000030517578,-21.714000701904297 C15.807000160217285,-20.674999237060547 21.371000289916992,-7.75 19.41200065612793,4.989999771118164 C17.665000915527344,16.35300064086914 8.098999977111816,27.30500030517578 -4.046000003814697,26.18899917602539 C-13.074999809265137,25.358999252319336 -20.59000015258789,16.552000045776367 -19.107999801635742,1.2400000095367432 C-17.625999450683594,-14.071999549865723 -7.256999969482422,-22.527000427246094 2.868000030517578,-21.714000701904297z"></path></g><g opacity="1" transform="matrix(1,0,0,1,374.7460021972656,347.8529968261719)"><path fill="rgb(191,50,178)" fill-opacity="1" d=" M-5.620999813079834,25.163999557495117 C-17.179000854492188,21.284000396728516 -21.5049991607666,7.392000198364258 -18.516000747680664,-3.7070000171661377 C-17.714000701904297,-6.686999797821045 -16.510000228881836,-9.51200008392334 -14.972999572753906,-12.003000259399414 C-14.991000175476074,-11.913000106811523 -15.022000312805176,-11.815999984741211 -15.039999961853027,-11.72599983215332 C-16.812999725341797,-4.145999908447266 -18.95400047302246,8.493000030517578 -5.364999771118164,10.494999885559082 C1.8370000123977661,11.555999755859375 11.288000106811523,6.89300012588501 13.786999702453613,-3.194000005722046 C15.630999565124512,-10.63700008392334 11.723999977111816,-15.869000434875488 5.210000038146973,-19.51099967956543 C5.2779998779296875,-19.492000579833984 7.3420000076293945,-21.464000701904297 7.409999847412109,-21.44499969482422 C16.999000549316406,-18.10700035095215 23.06599998474121,-6.177999973297119 18.235000610351562,8.425000190734863 C13.402999877929688,23.027999877929688 2.9749999046325684,28.05299949645996 -5.620999813079834,25.163999557495117z"></path></g><g opacity="0.1" transform="matrix(1,0,0,1,373.8039855957031,337.2250061035156)"><path fill="rgb(255,255,255)" fill-opacity="1" d=" M-1.1820000410079956,-7.670000076293945 C7.070000171661377,-9.961000442504883 12.222000122070312,-6.11299991607666 12.630000114440918,-0.7710000276565552 C12.993000030517578,3.993000030517578 8.39799976348877,10.22599983215332 0.6340000033378601,12.321999549865723 C-5.138000011444092,13.880000114440918 -10.984000205993652,12.032999992370605 -12.022000312805176,5.794000148773193 C-13.0600004196167,-0.4449999928474426 -7.638999938964844,-5.877999782562256 -1.1820000410079956,-7.670000076293945z"></path></g><g opacity="0.5" transform="matrix(1,0,0,1,373.8110046386719,334.66400146484375)"><path fill="rgb(255,255,255)" fill-opacity="1" d=" M-1.187999963760376,-5.109000205993652 C7.064000129699707,-7.400000095367432 12.236000061035156,-0.9290000200271606 12.623000144958496,1.7899999618530273 C13.069999694824219,4.927000045776367 9.04699993133545,-2.2829999923706055 -0.1509999930858612,-0.024000000208616257 C-9.130000114440918,2.180999994277954 -10.989999771118164,14.593999862670898 -12.027999877929688,8.354999542236328 C-13.065999984741211,2.115999937057495 -7.644999980926514,-3.316999912261963 -1.187999963760376,-5.109000205993652z"></path></g><g opacity="1" transform="matrix(1,0,0,1,374.6109924316406,347.1310119628906)"><path stroke-linecap="round" stroke-linejoin="round" fill-opacity="0" stroke="rgb(181,18,150)" stroke-opacity="1" stroke-width="8" d=" M2.868000030517578,-21.714000701904297 C15.807000160217285,-20.674999237060547 21.371000289916992,-7.75 19.41200065612793,4.989999771118164 C17.665000915527344,16.35300064086914 8.098999977111816,27.30500030517578 -4.046000003814697,26.18899917602539 C-13.074999809265137,25.358999252319336 -20.59000015258789,16.552000045776367 -19.107999801635742,1.2400000095367432 C-17.625999450683594,-14.071999549865723 -7.256999969482422,-22.527000427246094 2.868000030517578,-21.714000701904297z"></path></g><g opacity="1" transform="matrix(1,0,0,1,375.41900634765625,360.510009765625)"><path stroke-linecap="round" stroke-linejoin="round" fill-opacity="0" stroke="rgb(147,0,126)" stroke-opacity="1" stroke-width="8" d=" M18.604000091552734,-8.388999938964844 C16.85700035095215,2.9739999771118164 7.290999889373779,13.925999641418457 -4.854000091552734,12.8100004196167 C-10.442000389099121,12.295999526977539 -15.449999809265137,8.727999687194824 -18.104000091552734,2.4519999027252197"></path></g></g><g style="display: block;" transform="matrix(1,0,0,1,0,4.5)" opacity="0.2"><g opacity="1" transform="matrix(1,0,0,1,254.906005859375,346.8789978027344)"><g opacity="1" transform="matrix(1,0,0,1,0,0)"><path fill="rgb(40,191,132)" fill-opacity="1" d=" M203.593994140625,-30.56100082397461 C203.593994140625,-11.883999824523926 196.6540069580078,3.25600004196167 188.093994140625,3.25600004196167 C179.53399658203125,3.25600004196167 172.593994140625,-11.883999824523926 172.593994140625,-30.56100082397461 C172.593994140625,-30.56100082397461 172.593994140625,-30.56100082397461 172.593994140625,-30.56100082397461"></path></g></g></g><g style="display: block;" transform="matrix(1,0,0,1,0,-6.5)" opacity="1"><g opacity="1" transform="matrix(1,0,0,1,0,-8.5)"><g opacity="1" transform="matrix(1,0,0,1,254.906005859375,355.3789978027344)"><g opacity="1" transform="matrix(1,0,0,1,0,0)"><path fill="rgb(40,191,132)" fill-opacity="1" d=" M203.593994140625,-30.56100082397461 C203.593994140625,-11.883999824523926 196.6540069580078,3.25600004196167 188.093994140625,3.25600004196167 C179.53399658203125,3.25600004196167 172.593994140625,-11.883999824523926 172.593994140625,-30.56100082397461 C172.593994140625,-49.237998962402344 179.53399658203125,-64.37899780273438 188.093994140625,-64.37899780273438 C196.6540069580078,-64.37899780273438 203.593994140625,-49.237998962402344 203.593994140625,-30.56100082397461z"></path></g></g><g opacity="0.3" transform="matrix(1,0,0,1,254.9040069580078,368.0610046386719)"><g opacity="1" transform="matrix(1,0,0,1,0,0)"><path fill="rgb(0,114,92)" fill-opacity="1" d=" M203.593994140625,-43.24100112915039 C203.593994140625,-24.569000244140625 196.65499877929688,-9.428999900817871 188.0970001220703,-9.428999900817871 C179.53399658203125,-9.428999900817871 172.5959930419922,-24.569000244140625 172.5959930419922,-43.24100112915039 C172.5959930419922,-46.108001708984375 174.177001953125,-48.8849983215332 174.47900390625,-51.54100036621094 C173.63299560546875,-35.81999969482422 180.8459930419922,-25.02199935913086 188.0970001220703,-25.02199935913086 C195.34300231933594,-25.02199935913086 201.86599731445312,-35.619998931884766 201.71099853515625,-51.54100036621094 C202.01300048828125,-48.8849983215332 203.593994140625,-46.108001708984375 203.593994140625,-43.24100112915039z"></path></g></g><g opacity="0.3" transform="matrix(1,0,0,1,254.906005859375,342.2239990234375)"><g opacity="1" transform="matrix(1,0,0,1,0,0)"><path fill="rgb(255,255,255)" fill-opacity="1" d=" M198.66099548339844,-30.641000747680664 C198.66099548339844,-21.52199935913086 193.92999267578125,-14.130000114440918 188.093994140625,-14.130000114440918 C182.25799560546875,-14.130000114440918 177.52699279785156,-21.52199935913086 177.52699279785156,-30.641000747680664 C177.52699279785156,-39.7599983215332 182.25799560546875,-47.1510009765625 188.093994140625,-47.1510009765625 C193.92999267578125,-47.1510009765625 198.66099548339844,-39.7599983215332 198.66099548339844,-30.641000747680664z"></path></g></g><g opacity="0.6" transform="matrix(1,0,0,1,254.906005859375,335.4159851074219)"><g opacity="1" transform="matrix(1,0,0,1,0,0)"><path fill="rgb(255,255,255)" fill-opacity="1" d=" M198.66099548339844,-23.832000732421875 C198.66099548339844,-14.713000297546387 197.01100158691406,-30.691999435424805 188.093994140625,-30.691999435424805 C179.3979949951172,-30.691999435424805 177.52699279785156,-14.713000297546387 177.52699279785156,-23.832000732421875 C177.52699279785156,-32.95100021362305 182.25799560546875,-40.34299850463867 188.093994140625,-40.34299850463867 C193.92999267578125,-40.34299850463867 198.66099548339844,-32.95100021362305 198.66099548339844,-23.832000732421875z"></path></g></g></g><g opacity="1" transform="matrix(1,0,0,1,254.906005859375,346.8789978027344)"><g opacity="1" transform="matrix(1,0,0,1,0,0)"><path stroke-linecap="round" stroke-linejoin="round" fill-opacity="0" stroke="rgb(0,124,91)" stroke-opacity="1" stroke-width="8" d=" M203.593994140625,-30.56100082397461 C203.593994140625,-11.883999824523926 196.6540069580078,3.25600004196167 188.093994140625,3.25600004196167 C179.53399658203125,3.25600004196167 172.593994140625,-11.883999824523926 172.593994140625,-30.56100082397461 C172.593994140625,-49.237998962402344 179.53399658203125,-64.37899780273438 188.093994140625,-64.37899780273438 C196.6540069580078,-64.37899780273438 203.593994140625,-49.237998962402344 203.593994140625,-30.56100082397461z"></path></g></g><g opacity="1" transform="matrix(1,0,0,1,254.906005859375,346.8789978027344)"><g opacity="1" transform="matrix(1,0,0,1,0,0)"><path stroke-linecap="round" stroke-linejoin="round" fill-opacity="0" stroke="rgb(0,84,68)" stroke-opacity="1" stroke-width="8" d=" M203.593994140625,-30.56100082397461 C203.593994140625,-11.883999824523926 196.6540069580078,3.25600004196167 188.093994140625,3.25600004196167 C179.53399658203125,3.25600004196167 172.593994140625,-11.883999824523926 172.593994140625,-30.56100082397461 C172.593994140625,-30.56100082397461 172.593994140625,-30.56100082397461 172.593994140625,-30.56100082397461"></path></g></g></g><g style="display: none;"><g><path></path></g></g><g style="display: none;"><g><path></path></g><g><path></path></g><g><path></path></g><g><path></path></g><g><path stroke-linecap="round" stroke-linejoin="round" fill-opacity="0"></path></g><g><path stroke-linecap="round" stroke-linejoin="round" fill-opacity="0"></path></g></g><g style="display: none;"><path></path><g><g></g></g></g><g style="display: none;"><g><g><g><path></path></g></g><g><g><path></path></g></g><g><g><path></path></g></g><g><g><path></path></g></g></g><g><g><path stroke-linecap="round" stroke-linejoin="round" fill-opacity="0"></path></g></g><g><g><path stroke-linecap="round" stroke-linejoin="round" fill-opacity="0"></path></g></g></g><g style="display: none;"><g><g><path></path></g></g></g><g style="display: none;"><g><g><g><path></path></g></g><g><g><path></path></g></g><g><g><path></path></g></g><g><g><path></path></g></g></g><g><g><path stroke-linecap="round" stroke-linejoin="round" fill-opacity="0"></path></g></g><g><g><path stroke-linecap="round" stroke-linejoin="round" fill-opacity="0"></path></g></g></g><g style="display: none;"><g><path></path></g></g><g style="display: none;"><g><path></path></g><g><path></path></g><g><path></path></g><g><path></path></g><g><path stroke-linecap="round" stroke-linejoin="round" fill-opacity="0"></path></g><g><path stroke-linecap="round" stroke-linejoin="round" fill-opacity="0"></path></g></g><g clip-path="url(#__lottie_element_11115)" filter="url(#__lottie_element_11117)" style="display: none;"><g style="display: none;"><path></path></g><g style="display: none;"><path stroke-linecap="butt" stroke-linejoin="miter" fill-opacity="0" stroke-miterlimit="4"></path></g></g><g clip-path="url(#__lottie_element_11105)" filter="url(#__lottie_element_11107)" style="display: none;"><g style="display: none;"><path></path></g><g style="display: none;"><path stroke-linecap="butt" stroke-linejoin="miter" fill-opacity="0" stroke-miterlimit="4"></path></g></g><g clip-path="url(#__lottie_element_11095)" filter="url(#__lottie_element_11097)" style="display: none;"><g style="display: none;"><path></path></g><g style="display: none;"><path stroke-linecap="butt" stroke-linejoin="miter" fill-opacity="0" stroke-miterlimit="4"></path></g></g><g clip-path="url(#__lottie_element_11085)" filter="url(#__lottie_element_11087)" style="display: none;"><g style="display: none;"><path></path></g><g style="display: none;"><path stroke-linecap="butt" stroke-linejoin="miter" fill-opacity="0" stroke-miterlimit="4"></path></g></g><g clip-path="url(#__lottie_element_11075)" filter="url(#__lottie_element_11077)" style="display: none;"><g style="display: none;"><path></path></g><g style="display: none;"><path stroke-linecap="butt" stroke-linejoin="miter" fill-opacity="0" stroke-miterlimit="4"></path></g></g><g clip-path="url(#__lottie_element_11065)" filter="url(#__lottie_element_11067)" style="display: none;"><g style="display: none;"><path></path></g><g style="display: none;"><path stroke-linecap="butt" stroke-linejoin="miter" fill-opacity="0" stroke-miterlimit="4"></path></g></g></g></svg>