<svg xmlns="http://www.w3.org/2000/svg" viewBox="0 0 512 512" width="512" height="512" style="width: 100%; height: 100%; transform: translate3d(0,0,0);" preserveAspectRatio="xMidYMid meet"><defs><clipPath id="__lottie_element_11368"><rect width="512" height="512" x="0" y="0"></rect></clipPath><clipPath id="__lottie_element_11370"><path d="M0,0 L512,0 L512,512 L0,512z"></path></clipPath><clipPath id="__lottie_element_11398"><path d="M0,0 L512,0 L512,512 L0,512z"></path></clipPath><clipPath id="__lottie_element_11426"><path d="M0,0 L512,0 L512,512 L0,512z"></path></clipPath></defs><g clip-path="url(#__lottie_element_11368)"><g style="display: block;" transform="matrix(0.8999999761581421,0,0,0.8999999761581421,25.599807739257812,25.599822998046875)" opacity="1"><g opacity="1" transform="matrix(1,0,0,1,255.9980010986328,340.6080017089844)"><path fill="rgb(253,6,17)" fill-opacity="1" d=" M156.10499572753906,-119.27999877929688 C156.10499572753906,-119.27999877929688 232.5449981689453,-69.37999725341797 178.093994140625,-2 C141.31500244140625,43.512001037597656 51.15299987792969,58.7400016784668 0.0010000000474974513,58.7400016784668 C-51.1510009765625,58.7400016784668 -141.31500244140625,43.512001037597656 -178.09500122070312,-2 C-232.54600524902344,-69.37999725341797 -156.10400390625,-119.27999877929688 -156.10400390625,-119.27999877929688 C-156.10400390625,-119.27999877929688 -225.3090057373047,-84.38400268554688 -225.3090057373047,-17.73699951171875 C-225.3090057373047,48.90999984741211 -137.3730010986328,119.27899932861328 0.0010000000474974513,119.27899932861328 C137.375,119.27899932861328 225.3090057373047,48.90999984741211 225.3090057373047,-17.73699951171875 C225.3090057373047,-84.38400268554688 156.10499572753906,-119.27999877929688 156.10499572753906,-119.27999877929688z"></path></g></g><g style="display: block;" transform="matrix(0.8999999761581421,0,0,0.8999999761581421,25.600006103515625,25.60009765625)" opacity="1"><g opacity="1" transform="matrix(1,0,0,1,256,370.0299987792969)"><path fill="rgb(164,0,0)" fill-opacity="1" d=" M225.30999755859375,-47.15999984741211 C225.30999755859375,19.489999771118164 137.3699951171875,89.86100006103516 0,89.86100006103516 C-137.3800048828125,89.86100006103516 -225.31100463867188,19.489999771118164 -225.31100463867188,-47.15999984741211 C-225.31100463867188,-63.26900100708008 -221.27000427246094,-77.51000213623047 -215.13999938964844,-89.86000061035156 C-218.36000061035156,-80.19000244140625 -220.31100463867188,-69.55000305175781 -220.31100463867188,-57.939998626708984 C-220.31100463867188,8.710000038146973 -137.3800048828125,79.06999969482422 0,79.06999969482422 C137.3699951171875,79.06999969482422 220.30999755859375,8.710000038146973 220.30999755859375,-57.939998626708984 C220.30999755859375,-69.55000305175781 218.36000061035156,-80.19000244140625 215.13999938964844,-89.86000061035156 C221.27000427246094,-77.51000213623047 225.30999755859375,-63.26900100708008 225.30999755859375,-47.15999984741211z"></path></g></g><g style="display: block;" transform="matrix(0.8999999761581421,0,0,0.8999999761581421,25.599609375,25.60003662109375)" opacity="1"><g opacity="1" transform="matrix(1,0,0,1,255.99600219726562,352.9599914550781)"><path fill="rgb(248,83,104)" fill-opacity="1" d=" M178.09500122070312,-4.159999847412109 C141.31500244140625,41.35100173950195 51.154998779296875,57.58000183105469 0.004999999888241291,57.58000183105469 C-51.14500045776367,57.58000183105469 -141.31500244140625,41.35100173950195 -178.09500122070312,-4.159999847412109 C-194.2259979248047,-24.108999252319336 -198.86500549316406,-41.540000915527344 -197.40499877929688,-57.58000183105469 C-196.18499755859375,-44.3489990234375 -190.58599853515625,-29.80900001525879 -178.09500122070312,-14.348999977111816 C-141.31500244140625,31.15999984741211 -51.14500045776367,46.39099884033203 0.004999999888241291,46.39099884033203 C51.154998779296875,46.39099884033203 141.31500244140625,31.15999984741211 178.09500122070312,-14.348999977111816 C190.58399963378906,-29.80900001525879 196.18499755859375,-44.3489990234375 197.40499877929688,-57.58000183105469 C198.86500549316406,-41.540000915527344 194.22500610351562,-24.108999252319336 178.09500122070312,-4.159999847412109z"></path></g></g><g style="display: block;" transform="matrix(0.8999999761581421,0,0,0.8999999761581421,25.599807739257812,25.599822998046875)" opacity="1"><g opacity="1" transform="matrix(1,0,0,1,255.9980010986328,340.6080017089844)"><path stroke-linecap="round" stroke-linejoin="round" fill-opacity="0" stroke="rgb(164,0,0)" stroke-opacity="1" stroke-width="8" d=" M156.10499572753906,-119.27999877929688 C156.10499572753906,-119.27999877929688 232.5449981689453,-69.37999725341797 178.093994140625,-2 C141.31500244140625,43.512001037597656 51.15299987792969,58.7400016784668 0.0010000000474974513,58.7400016784668 C-51.1510009765625,58.7400016784668 -141.31500244140625,43.512001037597656 -178.09500122070312,-2 C-232.54600524902344,-69.37999725341797 -156.10400390625,-119.27999877929688 -156.10400390625,-119.27999877929688 C-156.10400390625,-119.27999877929688 -225.3090057373047,-84.38400268554688 -225.3090057373047,-17.73699951171875 C-225.3090057373047,48.90999984741211 -137.3730010986328,119.27899932861328 0.0010000000474974513,119.27899932861328 C137.375,119.27899932861328 225.3090057373047,48.90999984741211 225.3090057373047,-17.73699951171875 C225.3090057373047,-84.38400268554688 156.10499572753906,-119.27999877929688 156.10499572753906,-119.27999877929688z"></path></g></g><g style="display: block;" transform="matrix(0.8999999761581421,0,0,0.8999999761581421,25.599807739257812,25.599822998046875)" opacity="1"><g opacity="1" transform="matrix(1,0,0,1,255.9980010986328,340.6080017089844)"><path stroke-linecap="round" stroke-linejoin="round" fill-opacity="0" stroke="rgb(134,0,1)" stroke-opacity="1" stroke-width="8" d=" M-156.10499572753906,-119.27999877929688 C-156.10499572753906,-119.27999877929688 -225.3090057373047,-84.38400268554688 -225.3090057373047,-17.73699951171875 C-225.3090057373047,48.90999984741211 -137.37399291992188,119.27899932861328 0,119.27899932861328 C137.37399291992188,119.27899932861328 225.3090057373047,48.90999984741211 225.3090057373047,-17.73699951171875 C225.3090057373047,-84.38400268554688 156.10499572753906,-119.27999877929688 156.10499572753906,-119.27999877929688"></path></g></g><g style="display: block;" transform="matrix(0.8999999761581421,0,0,0.8999999761581421,25.600204467773438,25.600433349609375)" opacity="1"><g opacity="1" transform="matrix(1,0,0,1,170.8520050048828,400.2439880371094)"><path stroke-linecap="round" stroke-linejoin="round" fill-opacity="0" stroke="rgb(254,254,254)" stroke-opacity="1" stroke-width="6" d=" M-0.5479999780654907,-0.11299999803304672 C0.06700000166893005,0.014999999664723873 -0.08299999684095383,-0.010999999940395355 0.5479999780654907,0.1120000034570694"></path></g></g><g style="display: block;" transform="matrix(0.8999999761581421,0,0,0.8999999761581421,25.599899291992188,25.599609375)" opacity="1"><g opacity="1" transform="matrix(1,0,0,1,153.2790069580078,395.2959899902344)"><path stroke-linecap="round" stroke-linejoin="round" fill-opacity="0" stroke="rgb(254,254,254)" stroke-opacity="1" stroke-width="6" d=" M-5.816999912261963,-2.0169999599456787 C-5.816999912261963,-2.0169999599456787 -1.3700000047683716,-0.0989999994635582 5.816999912261963,2.0169999599456787"></path></g></g><g clip-path="url(#__lottie_element_11426)" style="display: block;" transform="matrix(0.8999999761581421,0,0,0.8999999761581421,25.600006103515625,25.600006103515625)" opacity="1"><g style="display: block;" transform="matrix(1,0,0,1,0,0)" opacity="1"><g opacity="1" transform="matrix(1,0,0,1,242.74200439453125,185.71499633789062)"><path fill="rgb(248,83,104)" fill-opacity="1" d=" M25.759000778198242,-143.71499633789062 C-33.24100112915039,-113.71499633789062 -73.64900207519531,-50.45000076293945 -19.240999221801758,8.78499984741211 C12.583000183105469,43.43199920654297 16.17799949645996,76.19999694824219 11.347999572753906,101.125 C8.513999938964844,115.74800109863281 2.7799999713897705,127.6719970703125 -1.8569999933242798,135.6909942626953 C-4.714000225067139,140.6320037841797 -7.15500020980835,144.09100341796875 -8.241999626159668,145.78500366210938 C-6.53000020980835,144.79800415039062 -2.490999937057495,142.48800659179688 2.760999917984009,138.9739990234375 C10.692000389099121,133.66799926757812 21.388999938964844,125.61699676513672 31.02199935913086,115.2300033569336 C56.84199905395508,87.39099884033203 75.01300048828125,42.7760009765625 11.758000373840332,-10.71500015258789 C-62.742000579833984,-73.71499633789062 -5.241000175476074,-119.21499633789062 25.759000778198242,-143.71499633789062z"></path></g></g><g style="display: block;" transform="matrix(1,0,0,1,0,0)" opacity="1"><g opacity="1" transform="matrix(1,0,0,1,242.74200439453125,185.71499633789062)"><path fill="rgb(253,6,17)" fill-opacity="1" d=" M25.757999420166016,-143.71499633789062 C-33.242000579833984,-113.71499633789062 -73.64900207519531,-50.45000076293945 -19.240999221801758,8.78499984741211 C12.583000183105469,43.43199920654297 16.17799949645996,76.19999694824219 11.347999572753906,101.125 C8.513999938964844,115.74800109863281 2.7799999713897705,127.6719970703125 -1.8569999933242798,135.6909942626953 C-4.714000225067139,140.6320037841797 -7.15500020980835,144.09100341796875 -8.241999626159668,145.78500366210938 C-6.53000020980835,144.79800415039062 -2.490999937057495,142.48800659179688 2.760999917984009,138.9739990234375 C10.692000389099121,133.66799926757812 21.90999984741211,126.0770034790039 31.02199935913086,115.2300033569336 C66.25800323486328,73.28399658203125 59.207000732421875,38.869998931884766 -1.2410000562667847,-11.21500015258789 C-71.24099731445312,-69.21499633789062 -5.242000102996826,-119.21499633789062 25.757999420166016,-143.71499633789062z"></path></g></g><g style="display: block;" transform="matrix(1,0,0,1,256,256)" opacity="0.4"><g opacity="1" transform="matrix(1,0,0,1,0,0)"><path fill="rgb(168,29,33)" fill-opacity="1" d=" M41.25,-19.75 C31.75,25.5 10.75,39.5 -5.25,48.5 C-9.5,58.25 -14.25,64.5 -18.25,72.5 C-6,67.25 47.75,33.75 41.25,-19.75z"></path></g></g><g style="display: block;" transform="matrix(1,0,0,1,0,0)" opacity="1"><g opacity="1" transform="matrix(1,0,0,1,242.74200439453125,185.71499633789062)"><path stroke-linecap="round" stroke-linejoin="round" fill-opacity="0" stroke="rgb(164,0,0)" stroke-opacity="1" stroke-width="8" d=" M25.759000778198242,-143.71499633789062 C-33.24100112915039,-113.71499633789062 -73.64900207519531,-50.45000076293945 -19.240999221801758,8.78499984741211 C12.583000183105469,43.43199920654297 16.17799949645996,76.19999694824219 11.347999572753906,101.125 C8.513999938964844,115.74800109863281 2.7799999713897705,127.6719970703125 -1.8569999933242798,135.6909942626953 C-4.714000225067139,140.6320037841797 -7.15500020980835,144.09100341796875 -8.241999626159668,145.78500366210938 C-6.53000020980835,144.79800415039062 -2.490999937057495,142.48800659179688 2.760999917984009,138.9739990234375 C10.692000389099121,133.66799926757812 21.388999938964844,125.61699676513672 31.02199935913086,115.2300033569336 C56.84199905395508,87.39099884033203 75.01300048828125,42.7760009765625 11.758000373840332,-10.71500015258789 C-62.742000579833984,-73.71499633789062 -5.241000175476074,-119.21499633789062 25.759000778198242,-143.71499633789062z"></path></g></g><g style="display: none;"><g><path></path></g></g><g style="display: none;"><g><path></path></g></g><g style="display: none;"><g><path></path></g></g><g style="display: none;"><g><path stroke-linecap="round" stroke-linejoin="round" fill-opacity="0"></path></g></g></g><g clip-path="url(#__lottie_element_11398)" style="display: block;" transform="matrix(0.8999999761581421,0,0,0.8999999761581421,-58.31700134277344,25.600006103515625)" opacity="1"><g style="display: block;" transform="matrix(1,0,0,1,0,0)" opacity="1"><g opacity="1" transform="matrix(1,0,0,1,242.74200439453125,185.71499633789062)"><path fill="rgb(248,83,104)" fill-opacity="1" d=" M25.759000778198242,-143.71499633789062 C-33.24100112915039,-113.71499633789062 -73.64900207519531,-50.45000076293945 -19.240999221801758,8.78499984741211 C12.583000183105469,43.43199920654297 16.17799949645996,76.19999694824219 11.347999572753906,101.125 C8.513999938964844,115.74800109863281 2.7799999713897705,127.6719970703125 -1.8569999933242798,135.6909942626953 C-4.714000225067139,140.6320037841797 -7.15500020980835,144.09100341796875 -8.241999626159668,145.78500366210938 C-6.53000020980835,144.79800415039062 -2.490999937057495,142.48800659179688 2.760999917984009,138.9739990234375 C10.692000389099121,133.66799926757812 21.388999938964844,125.61699676513672 31.02199935913086,115.2300033569336 C56.84199905395508,87.39099884033203 75.01300048828125,42.7760009765625 11.758000373840332,-10.71500015258789 C-62.742000579833984,-73.71499633789062 -5.241000175476074,-119.21499633789062 25.759000778198242,-143.71499633789062z"></path></g></g><g style="display: block;" transform="matrix(1,0,0,1,0,0)" opacity="1"><g opacity="1" transform="matrix(1,0,0,1,242.74200439453125,185.71499633789062)"><path fill="rgb(253,6,17)" fill-opacity="1" d=" M25.757999420166016,-143.71499633789062 C-33.242000579833984,-113.71499633789062 -73.64900207519531,-50.45000076293945 -19.240999221801758,8.78499984741211 C12.583000183105469,43.43199920654297 16.17799949645996,76.19999694824219 11.347999572753906,101.125 C8.513999938964844,115.74800109863281 2.7799999713897705,127.6719970703125 -1.8569999933242798,135.6909942626953 C-4.714000225067139,140.6320037841797 -7.15500020980835,144.09100341796875 -8.241999626159668,145.78500366210938 C-6.53000020980835,144.79800415039062 -2.490999937057495,142.48800659179688 2.760999917984009,138.9739990234375 C10.692000389099121,133.66799926757812 21.90999984741211,126.0770034790039 31.02199935913086,115.2300033569336 C66.25800323486328,73.28399658203125 59.207000732421875,38.869998931884766 -1.2410000562667847,-11.21500015258789 C-71.24099731445312,-69.21499633789062 -5.242000102996826,-119.21499633789062 25.757999420166016,-143.71499633789062z"></path></g></g><g style="display: block;" transform="matrix(1,0,0,1,256,256)" opacity="0.4"><g opacity="1" transform="matrix(1,0,0,1,0,0)"><path fill="rgb(168,29,33)" fill-opacity="1" d=" M41.25,-19.75 C31.75,25.5 10.75,39.5 -5.25,48.5 C-9.5,58.25 -14.25,64.5 -18.25,72.5 C-6,67.25 47.75,33.75 41.25,-19.75z"></path></g></g><g style="display: block;" transform="matrix(1,0,0,1,0,0)" opacity="1"><g opacity="1" transform="matrix(1,0,0,1,242.74200439453125,185.71499633789062)"><path stroke-linecap="round" stroke-linejoin="round" fill-opacity="0" stroke="rgb(164,0,0)" stroke-opacity="1" stroke-width="8" d=" M25.759000778198242,-143.71499633789062 C-33.24100112915039,-113.71499633789062 -73.64900207519531,-50.45000076293945 -19.240999221801758,8.78499984741211 C12.583000183105469,43.43199920654297 16.17799949645996,76.19999694824219 11.347999572753906,101.125 C8.513999938964844,115.74800109863281 2.7799999713897705,127.6719970703125 -1.8569999933242798,135.6909942626953 C-4.714000225067139,140.6320037841797 -7.15500020980835,144.09100341796875 -8.241999626159668,145.78500366210938 C-6.53000020980835,144.79800415039062 -2.490999937057495,142.48800659179688 2.760999917984009,138.9739990234375 C10.692000389099121,133.66799926757812 21.388999938964844,125.61699676513672 31.02199935913086,115.2300033569336 C56.84199905395508,87.39099884033203 75.01300048828125,42.7760009765625 11.758000373840332,-10.71500015258789 C-62.742000579833984,-73.71499633789062 -5.241000175476074,-119.21499633789062 25.759000778198242,-143.71499633789062z"></path></g></g><g style="display: none;"><g><path></path></g></g><g style="display: none;"><g><path></path></g></g><g style="display: none;"><g><path></path></g></g><g style="display: none;"><g><path stroke-linecap="round" stroke-linejoin="round" fill-opacity="0"></path></g></g></g><g clip-path="url(#__lottie_element_11370)" style="display: block;" transform="matrix(0.8999999761581421,0,0,0.8999999761581421,114.8280029296875,25.600006103515625)" opacity="1"><g style="display: block;" transform="matrix(1,0,0,1,0,0)" opacity="1"><g opacity="1" transform="matrix(1,0,0,1,242.74200439453125,185.71499633789062)"><path fill="rgb(248,83,104)" fill-opacity="1" d=" M25.759000778198242,-143.71499633789062 C-33.24100112915039,-113.71499633789062 -73.64900207519531,-50.45000076293945 -19.240999221801758,8.78499984741211 C12.583000183105469,43.43199920654297 16.17799949645996,76.19999694824219 11.347999572753906,101.125 C8.513999938964844,115.74800109863281 2.7799999713897705,127.6719970703125 -1.8569999933242798,135.6909942626953 C-4.714000225067139,140.6320037841797 -7.15500020980835,144.09100341796875 -8.241999626159668,145.78500366210938 C-6.53000020980835,144.79800415039062 -2.490999937057495,142.48800659179688 2.760999917984009,138.9739990234375 C10.692000389099121,133.66799926757812 21.388999938964844,125.61699676513672 31.02199935913086,115.2300033569336 C56.84199905395508,87.39099884033203 75.01300048828125,42.7760009765625 11.758000373840332,-10.71500015258789 C-62.742000579833984,-73.71499633789062 -5.241000175476074,-119.21499633789062 25.759000778198242,-143.71499633789062z"></path></g></g><g style="display: block;" transform="matrix(1,0,0,1,0,0)" opacity="1"><g opacity="1" transform="matrix(1,0,0,1,242.74200439453125,185.71499633789062)"><path fill="rgb(253,6,17)" fill-opacity="1" d=" M25.757999420166016,-143.71499633789062 C-33.242000579833984,-113.71499633789062 -73.64900207519531,-50.45000076293945 -19.240999221801758,8.78499984741211 C12.583000183105469,43.43199920654297 16.17799949645996,76.19999694824219 11.347999572753906,101.125 C8.513999938964844,115.74800109863281 2.7799999713897705,127.6719970703125 -1.8569999933242798,135.6909942626953 C-4.714000225067139,140.6320037841797 -7.15500020980835,144.09100341796875 -8.241999626159668,145.78500366210938 C-6.53000020980835,144.79800415039062 -2.490999937057495,142.48800659179688 2.760999917984009,138.9739990234375 C10.692000389099121,133.66799926757812 21.90999984741211,126.0770034790039 31.02199935913086,115.2300033569336 C66.25800323486328,73.28399658203125 59.207000732421875,38.869998931884766 -1.2410000562667847,-11.21500015258789 C-71.24099731445312,-69.21499633789062 -5.242000102996826,-119.21499633789062 25.757999420166016,-143.71499633789062z"></path></g></g><g style="display: block;" transform="matrix(1,0,0,1,256,256)" opacity="0.4"><g opacity="1" transform="matrix(1,0,0,1,0,0)"><path fill="rgb(168,29,33)" fill-opacity="1" d=" M41.25,-19.75 C31.75,25.5 10.75,39.5 -5.25,48.5 C-9.5,58.25 -14.25,64.5 -18.25,72.5 C-6,67.25 47.75,33.75 41.25,-19.75z"></path></g></g><g style="display: block;" transform="matrix(1,0,0,1,0,0)" opacity="1"><g opacity="1" transform="matrix(1,0,0,1,242.74200439453125,185.71499633789062)"><path stroke-linecap="round" stroke-linejoin="round" fill-opacity="0" stroke="rgb(164,0,0)" stroke-opacity="1" stroke-width="8" d=" M25.759000778198242,-143.71499633789062 C-33.24100112915039,-113.71499633789062 -73.64900207519531,-50.45000076293945 -19.240999221801758,8.78499984741211 C12.583000183105469,43.43199920654297 16.17799949645996,76.19999694824219 11.347999572753906,101.125 C8.513999938964844,115.74800109863281 2.7799999713897705,127.6719970703125 -1.8569999933242798,135.6909942626953 C-4.714000225067139,140.6320037841797 -7.15500020980835,144.09100341796875 -8.241999626159668,145.78500366210938 C-6.53000020980835,144.79800415039062 -2.490999937057495,142.48800659179688 2.760999917984009,138.9739990234375 C10.692000389099121,133.66799926757812 21.388999938964844,125.61699676513672 31.02199935913086,115.2300033569336 C56.84199905395508,87.39099884033203 75.01300048828125,42.7760009765625 11.758000373840332,-10.71500015258789 C-62.742000579833984,-73.71499633789062 -5.241000175476074,-119.21499633789062 25.759000778198242,-143.71499633789062z"></path></g></g><g style="display: none;"><g><path></path></g></g><g style="display: none;"><g><path></path></g></g><g style="display: none;"><g><path></path></g></g><g style="display: none;"><g><path stroke-linecap="round" stroke-linejoin="round" fill-opacity="0"></path></g></g></g></g></svg>