<svg xmlns="http://www.w3.org/2000/svg" viewBox="0 0 512 512" width="512" height="512" style="width: 100%; height: 100%; transform: translate3d(0,0,0);" preserveAspectRatio="xMidYMid meet"><defs><clipPath id="__lottie_element_11475"><rect width="512" height="512" x="0" y="0"></rect></clipPath></defs><g clip-path="url(#__lottie_element_11475)"><g style="display: block;" transform="matrix(0.9200000166893005,0,0,0.9200000166893005,31.216964721679688,22.135955810546875)" opacity="1"><g opacity="1" transform="matrix(1,0,0,1,0,0)"><g opacity="0.1" transform="matrix(1,0,0,1,242.73699951171875,260.16900634765625)"><path fill="rgb(0,0,0)" fill-opacity="1" d=" M227.802001953125,0 C227.802001953125,125.81300354003906 125.81099700927734,227.80299377441406 0,227.80299377441406 C-125.81199645996094,227.80299377441406 -227.80299377441406,125.81300354003906 -227.80299377441406,0 C-227.80299377441406,-125.81199645996094 -125.81199645996094,-227.802001953125 0,-227.802001953125 C125.81099700927734,-227.802001953125 227.802001953125,-125.81199645996094 227.802001953125,0z"></path></g><g opacity="1" transform="matrix(1,0,0,1,242.73699951171875,242.73699951171875)"><path fill="rgb(255,176,57)" fill-opacity="1" d=" M219.49400329589844,0 C219.49400329589844,121.2239990234375 121.2229995727539,219.49400329589844 0,219.49400329589844 C-121.2239990234375,219.49400329589844 -219.4949951171875,121.2239990234375 -219.4949951171875,0 C-219.4949951171875,-121.2229995727539 -121.2239990234375,-219.49400329589844 0,-219.49400329589844 C121.2229995727539,-219.49400329589844 219.49400329589844,-121.2229995727539 219.49400329589844,0z"></path></g><g opacity="1" transform="matrix(1,0,0,1,242.80099487304688,240.5659942626953)"><path fill="rgb(255,209,64)" fill-opacity="1" d=" M195.64300537109375,2.997999906539917 C193.9510040283203,113.43299865722656 104.98600006103516,201.61300659179688 -3.065000057220459,199.95799255371094 C-111.11599731445312,198.302001953125 -197.33599853515625,107.43599700927734 -195.64300537109375,-2.997999906539917 C-193.9510040283203,-113.43199920654297 -104.98600006103516,-201.61399841308594 3.065000057220459,-199.95799255371094 C111.11599731445312,-198.302001953125 197.33599853515625,-107.43599700927734 195.64300537109375,2.997999906539917z"></path></g><g opacity="1" transform="matrix(1,0,0,1,242.73699951171875,242.73699951171875)"><path stroke-linecap="butt" stroke-linejoin="miter" fill-opacity="0" stroke-miterlimit="10" stroke="rgb(247,125,65)" stroke-opacity="1" stroke-width="9.297" d=" M219.4949951171875,0 C219.4949951171875,121.2239990234375 121.2239990234375,219.49400329589844 0.0010000000474974513,219.49400329589844 C-121.2229995727539,219.49400329589844 -219.49400329589844,121.2239990234375 -219.49400329589844,0 C-219.49400329589844,-121.2229995727539 -121.2229995727539,-219.49400329589844 0.0010000000474974513,-219.49400329589844 C121.2239990234375,-219.49400329589844 219.4949951171875,-121.2229995727539 219.4949951171875,0z"></path></g><g opacity="1" transform="matrix(1,0,0,1,242.73699951171875,138.35800170898438)"><path fill="rgb(255,223,121)" fill-opacity="1" d=" M173.46499633789062,55.071998596191406 C173.46499633789062,139.49200439453125 95.8030014038086,72.71199798583984 0.0010000000474974513,72.71199798583984 C-95.802001953125,72.71199798583984 -173.46499633789062,139.49200439453125 -173.46499633789062,55.071998596191406 C-173.46499633789062,-29.347999572753906 -95.802001953125,-97.78299713134766 0.0010000000474974513,-97.78299713134766 C95.8030014038086,-97.78299713134766 173.46499633789062,-29.347999572753906 173.46499633789062,55.071998596191406z"></path></g><g opacity="1" transform="matrix(1,0,0,1,287.7820129394531,46.12300109863281)"><path stroke-linecap="round" stroke-linejoin="round" fill-opacity="0" stroke="rgb(255,255,255)" stroke-opacity="1" stroke-width="6.973" d=" M-2.7760000228881836,-0.6460000276565552 C-0.9890000224113464,-0.25600001215934753 0.8650000095367432,0.17299999296665192 2.7760000228881836,0.6460000276565552"></path></g><g opacity="1" transform="matrix(1,0,0,1,267.5050048828125,42.63100051879883)"><path stroke-linecap="round" stroke-linejoin="round" fill-opacity="0" stroke="rgb(255,255,255)" stroke-opacity="1" stroke-width="6.973" d=" M-7.315000057220459,-0.8939999938011169 C-7.315000057220459,-0.8939999938011169 -1.659999966621399,-0.5910000205039978 7.315000057220459,0.8939999938011169"></path></g></g></g><g style="display: block;" transform="matrix(0.9200000166893005,0,0,0.9200000166893005,20.36280059814453,19.635393142700195)" opacity="1"><g opacity="0.04" transform="matrix(1,0,0,1,397.12701416015625,283.5060119628906)"><path fill="rgb(226,6,19)" fill-opacity="1" d=" M62.05699920654297,0 C62.05699920654297,34.27299880981445 34.27299880981445,62.05699920654297 0,62.05699920654297 C-34.27299880981445,62.05699920654297 -62.05699920654297,34.27299880981445 -62.05699920654297,0 C-62.05699920654297,-34.27299880981445 -34.27299880981445,-62.05699920654297 0,-62.05699920654297 C34.27299880981445,-62.05699920654297 62.05699920654297,-34.27299880981445 62.05699920654297,0z"></path></g><g opacity="0.04" transform="matrix(1,0,0,1,397.12701416015625,283.5060119628906)"><path fill="rgb(226,6,19)" fill-opacity="1" d=" M56.8120002746582,0 C56.8120002746582,31.375999450683594 31.375999450683594,56.8120002746582 0,56.8120002746582 C-31.375999450683594,56.8120002746582 -56.8120002746582,31.375999450683594 -56.8120002746582,0 C-56.8120002746582,-31.37700080871582 -31.375999450683594,-56.8120002746582 0,-56.8120002746582 C31.375999450683594,-56.8120002746582 56.8120002746582,-31.37700080871582 56.8120002746582,0z"></path></g><g opacity="0.04" transform="matrix(1,0,0,1,397.12701416015625,283.5060119628906)"><path fill="rgb(226,6,19)" fill-opacity="1" d=" M51.62799835205078,0 C51.62799835205078,28.51300048828125 28.51300048828125,51.62799835205078 0,51.62799835205078 C-28.51300048828125,51.62799835205078 -51.62799835205078,28.51300048828125 -51.62799835205078,0 C-51.62799835205078,-28.51300048828125 -28.51300048828125,-51.62799835205078 0,-51.62799835205078 C28.51300048828125,-51.62799835205078 51.62799835205078,-28.51300048828125 51.62799835205078,0z"></path></g><g opacity="0.04" transform="matrix(1,0,0,1,397.12701416015625,283.5069885253906)"><path fill="rgb(226,6,19)" fill-opacity="1" d=" M46.10499954223633,0 C46.10499954223633,25.46299934387207 25.46299934387207,46.10499954223633 0,46.10499954223633 C-25.46299934387207,46.10499954223633 -46.10499954223633,25.46299934387207 -46.10499954223633,0 C-46.10499954223633,-25.46299934387207 -25.46299934387207,-46.10499954223633 0,-46.10499954223633 C25.46299934387207,-46.10499954223633 46.10499954223633,-25.46299934387207 46.10499954223633,0z"></path></g><g opacity="0.04" transform="matrix(1,0,0,1,397.12701416015625,283.5060119628906)"><path fill="rgb(226,6,19)" fill-opacity="1" d=" M40.72800064086914,0 C40.72800064086914,22.493999481201172 22.493999481201172,40.72800064086914 0,40.72800064086914 C-22.493999481201172,40.72800064086914 -40.72800064086914,22.493999481201172 -40.72800064086914,0 C-40.72800064086914,-22.493999481201172 -22.493999481201172,-40.72800064086914 0,-40.72800064086914 C22.493999481201172,-40.72800064086914 40.72800064086914,-22.493999481201172 40.72800064086914,0z"></path></g><g opacity="0.04" transform="matrix(1,0,0,1,397.12701416015625,283.5069885253906)"><path fill="rgb(226,6,19)" fill-opacity="1" d=" M35.20600128173828,0 C35.20600128173828,19.444000244140625 19.444000244140625,35.20600128173828 0,35.20600128173828 C-19.444000244140625,35.20600128173828 -35.20600128173828,19.444000244140625 -35.20600128173828,0 C-35.20600128173828,-19.444000244140625 -19.444000244140625,-35.20600128173828 0,-35.20600128173828 C19.444000244140625,-35.20600128173828 35.20600128173828,-19.444000244140625 35.20600128173828,0z"></path></g><g opacity="0.04" transform="matrix(1,0,0,1,397.12701416015625,283.5060119628906)"><path fill="rgb(226,6,19)" fill-opacity="1" d=" M29.43400001525879,0 C29.43400001525879,16.256000518798828 16.256000518798828,29.43400001525879 0,29.43400001525879 C-16.256000518798828,29.43400001525879 -29.43400001525879,16.256000518798828 -29.43400001525879,0 C-29.43400001525879,-16.256000518798828 -16.256000518798828,-29.43400001525879 0,-29.43400001525879 C16.256000518798828,-29.43400001525879 29.43400001525879,-16.256000518798828 29.43400001525879,0z"></path></g><g opacity="0.04" transform="matrix(1,0,0,1,397.12701416015625,283.5060119628906)"><path fill="rgb(226,6,19)" fill-opacity="1" d=" M22.98699951171875,0 C22.98699951171875,12.694999694824219 12.694999694824219,22.98699951171875 0,22.98699951171875 C-12.694999694824219,22.98699951171875 -22.98699951171875,12.694999694824219 -22.98699951171875,0 C-22.98699951171875,-12.694999694824219 -12.694999694824219,-22.98699951171875 0,-22.98699951171875 C12.694999694824219,-22.98699951171875 22.98699951171875,-12.694999694824219 22.98699951171875,0z"></path></g><g opacity="0.04" transform="matrix(1,0,0,1,397.12701416015625,283.5060119628906)"><path fill="rgb(226,6,19)" fill-opacity="1" d=" M15.552000045776367,0 C15.552000045776367,8.58899974822998 8.58899974822998,15.552000045776367 0,15.552000045776367 C-8.58899974822998,15.552000045776367 -15.552000045776367,8.58899974822998 -15.552000045776367,0 C-15.552000045776367,-8.58899974822998 -8.58899974822998,-15.552000045776367 0,-15.552000045776367 C8.58899974822998,-15.552000045776367 15.552000045776367,-8.58899974822998 15.552000045776367,0z"></path></g><g opacity="0.04" transform="matrix(1,0,0,1,397.12701416015625,283.5060119628906)"><path fill="rgb(226,6,19)" fill-opacity="1" d=" M8.656000137329102,0 C8.656000137329102,4.78000020980835 4.78000020980835,8.656000137329102 0,8.656000137329102 C-4.78000020980835,8.656000137329102 -8.656000137329102,4.78000020980835 -8.656000137329102,0 C-8.656000137329102,-4.78000020980835 -4.78000020980835,-8.656000137329102 0,-8.656000137329102 C4.78000020980835,-8.656000137329102 8.656000137329102,-4.78000020980835 8.656000137329102,0z"></path></g></g><g style="display: block;" transform="matrix(0.9200000166893005,0,0,0.9200000166893005,20.36280059814453,19.635393142700195)" opacity="1"><g opacity="0.04" transform="matrix(1,0,0,1,112.1780014038086,283.5060119628906)"><path fill="rgb(226,6,19)" fill-opacity="1" d=" M62.05699920654297,0 C62.05699920654297,34.27299880981445 34.27299880981445,62.05699920654297 0,62.05699920654297 C-34.27299880981445,62.05699920654297 -62.05699920654297,34.27299880981445 -62.05699920654297,0 C-62.05699920654297,-34.27299880981445 -34.27299880981445,-62.05699920654297 0,-62.05699920654297 C34.27299880981445,-62.05699920654297 62.05699920654297,-34.27299880981445 62.05699920654297,0z"></path></g><g opacity="0.04" transform="matrix(1,0,0,1,112.1780014038086,283.5060119628906)"><path fill="rgb(226,6,19)" fill-opacity="1" d=" M56.8120002746582,0 C56.8120002746582,31.375999450683594 31.375999450683594,56.8120002746582 0,56.8120002746582 C-31.375999450683594,56.8120002746582 -56.8120002746582,31.375999450683594 -56.8120002746582,0 C-56.8120002746582,-31.37700080871582 -31.375999450683594,-56.8120002746582 0,-56.8120002746582 C31.375999450683594,-56.8120002746582 56.8120002746582,-31.37700080871582 56.8120002746582,0z"></path></g><g opacity="0.04" transform="matrix(1,0,0,1,112.1780014038086,283.5060119628906)"><path fill="rgb(226,6,19)" fill-opacity="1" d=" M51.62799835205078,0 C51.62799835205078,28.51300048828125 28.51300048828125,51.62799835205078 0,51.62799835205078 C-28.51300048828125,51.62799835205078 -51.62799835205078,28.51300048828125 -51.62799835205078,0 C-51.62799835205078,-28.51300048828125 -28.51300048828125,-51.62799835205078 0,-51.62799835205078 C28.51300048828125,-51.62799835205078 51.62799835205078,-28.51300048828125 51.62799835205078,0z"></path></g><g opacity="0.04" transform="matrix(1,0,0,1,112.1780014038086,283.5069885253906)"><path fill="rgb(226,6,19)" fill-opacity="1" d=" M46.10499954223633,0 C46.10499954223633,25.46299934387207 25.46299934387207,46.10499954223633 0,46.10499954223633 C-25.46299934387207,46.10499954223633 -46.10499954223633,25.46299934387207 -46.10499954223633,0 C-46.10499954223633,-25.46299934387207 -25.46299934387207,-46.10499954223633 0,-46.10499954223633 C25.46299934387207,-46.10499954223633 46.10499954223633,-25.46299934387207 46.10499954223633,0z"></path></g><g opacity="0.04" transform="matrix(1,0,0,1,112.1780014038086,283.5060119628906)"><path fill="rgb(226,6,19)" fill-opacity="1" d=" M40.72800064086914,0 C40.72800064086914,22.493999481201172 22.493999481201172,40.72800064086914 0,40.72800064086914 C-22.493999481201172,40.72800064086914 -40.72800064086914,22.493999481201172 -40.72800064086914,0 C-40.72800064086914,-22.493999481201172 -22.493999481201172,-40.72800064086914 0,-40.72800064086914 C22.493999481201172,-40.72800064086914 40.72800064086914,-22.493999481201172 40.72800064086914,0z"></path></g><g opacity="0.04" transform="matrix(1,0,0,1,112.1780014038086,283.5069885253906)"><path fill="rgb(226,6,19)" fill-opacity="1" d=" M35.20600128173828,0 C35.20600128173828,19.444000244140625 19.444000244140625,35.20600128173828 0,35.20600128173828 C-19.444000244140625,35.20600128173828 -35.20600128173828,19.444000244140625 -35.20600128173828,0 C-35.20600128173828,-19.444000244140625 -19.444000244140625,-35.20600128173828 0,-35.20600128173828 C19.444000244140625,-35.20600128173828 35.20600128173828,-19.444000244140625 35.20600128173828,0z"></path></g><g opacity="0.04" transform="matrix(1,0,0,1,112.1780014038086,283.5060119628906)"><path fill="rgb(226,6,19)" fill-opacity="1" d=" M29.43400001525879,0 C29.43400001525879,16.256000518798828 16.256000518798828,29.43400001525879 0,29.43400001525879 C-16.256000518798828,29.43400001525879 -29.43400001525879,16.256000518798828 -29.43400001525879,0 C-29.43400001525879,-16.256000518798828 -16.256000518798828,-29.43400001525879 0,-29.43400001525879 C16.256000518798828,-29.43400001525879 29.43400001525879,-16.256000518798828 29.43400001525879,0z"></path></g><g opacity="0.04" transform="matrix(1,0,0,1,112.1780014038086,283.5060119628906)"><path fill="rgb(226,6,19)" fill-opacity="1" d=" M22.98699951171875,0 C22.98699951171875,12.694999694824219 12.694999694824219,22.98699951171875 0,22.98699951171875 C-12.694999694824219,22.98699951171875 -22.98699951171875,12.694999694824219 -22.98699951171875,0 C-22.98699951171875,-12.694999694824219 -12.694999694824219,-22.98699951171875 0,-22.98699951171875 C12.694999694824219,-22.98699951171875 22.98699951171875,-12.694999694824219 22.98699951171875,0z"></path></g><g opacity="0.04" transform="matrix(1,0,0,1,112.1780014038086,283.5060119628906)"><path fill="rgb(226,6,19)" fill-opacity="1" d=" M15.552000045776367,0 C15.552000045776367,8.58899974822998 8.58899974822998,15.552000045776367 0,15.552000045776367 C-8.58899974822998,15.552000045776367 -15.552000045776367,8.58899974822998 -15.552000045776367,0 C-15.552000045776367,-8.58899974822998 -8.58899974822998,-15.552000045776367 0,-15.552000045776367 C8.58899974822998,-15.552000045776367 15.552000045776367,-8.58899974822998 15.552000045776367,0z"></path></g><g opacity="0.04" transform="matrix(1,0,0,1,112.1780014038086,283.5060119628906)"><path fill="rgb(226,6,19)" fill-opacity="1" d=" M8.656000137329102,0 C8.656000137329102,4.78000020980835 4.78000020980835,8.656000137329102 0,8.656000137329102 C-4.78000020980835,8.656000137329102 -8.656000137329102,4.78000020980835 -8.656000137329102,0 C-8.656000137329102,-4.78000020980835 -4.78000020980835,-8.656000137329102 0,-8.656000137329102 C4.78000020980835,-8.656000137329102 8.656000137329102,-4.78000020980835 8.656000137329102,0z"></path></g></g><g style="display: block;" transform="matrix(0.9200000166893005,0,0,0.9200000166893005,241.91812133789062,292.7410583496094)" opacity="1"><g opacity="1" transform="matrix(1,0,0,1,41.82099914550781,58.263999938964844)"><path fill="rgb(255,225,166)" fill-opacity="1" d=" M-26.92799949645996,-55.340999603271484 C-22.094999313354492,-57.018001556396484 14.491000175476074,-54.249000549316406 29.43199920654297,-39.30799865722656 C41.571998596191406,-27.167999267578125 17.39699935913086,-6.333000183105469 6.440000057220459,-0.6980000138282776 C4.820000171661377,0.1340000033378601 5.455999851226807,4.935999870300293 6.872000217437744,6.079999923706055 C14.923999786376953,12.579999923706055 30.52400016784668,20.882999420166016 31.80900001525879,30.95800018310547 C33.70100021362305,45.79999923706055 -9.795999526977539,57.018001556396484 -26.5310001373291,53.83100128173828 C-30.315000534057617,53.11000061035156 -29.71500015258789,47.027000427246094 -25.733999252319336,45.263999938964844 C-13.560999870300293,39.87699890136719 14.112000465393066,38.22100067138672 14.112000465393066,32.18600082397461 C14.112000465393066,21.357999801635742 -20.753000259399414,12.194000244140625 -20.753000259399414,-2.5480000972747803 C-20.753000259399414,-13.277000427246094 14.376999855041504,-14.564000129699707 13.878999710083008,-25.520999908447266 C13.407999992370605,-35.88199996948242 -41.57099914550781,-50.26100158691406 -26.92799949645996,-55.340999603271484z"></path></g><g opacity="1" transform="matrix(1,0,0,1,39.638999938964844,55.573001861572266)"><path fill="rgb(133,62,19)" fill-opacity="1" d=" M-23.486000061035156,52.13800048828125 C-27.27400016784668,51.41699981689453 -26.15999984741211,48.314998626708984 -22.173999786376953,46.54800033569336 C-10.006999969482422,41.15599822998047 16.641000747680664,33.40599822998047 16.420000076293945,27.374000549316406 C16.233999252319336,22.0049991607666 1.8009999990463257,15.508999824523926 -8.402999877929688,9.244999885559082 C-14.109000205993652,5.758999824523926 -18.489999771118164,2.3289999961853027 -18.32699966430664,-0.7850000262260437 C-18.0939998626709,-5.375999927520752 -11.621999740600586,-9.442999839782715 -4.3470001220703125,-13.46399974822998 C5.3460001945495605,-18.820999145507812 16.47800064086914,-24.072999954223633 16.187999725341797,-30.336999893188477 C15.722999572753906,-40.702999114990234 -38.198001861572266,-48.56999969482422 -23.55500030517578,-53.64799880981445 C-18.72100067138672,-55.321998596191406 15.699999809265137,-52.64899826049805 30.632999420166016,-37.70399856567383 C38.198001861572266,-30.149999618530273 31.44700050354004,-20.841999053955078 23.125999450683594,-13.46399974822998 C18.08300018310547,-8.977999687194824 12.468999862670898,-5.199999809265137 9.111000061035156,-2.944999933242798 C7.599999904632568,-1.934000015258789 7.77400016784668,0.12099999934434891 9.192000389099121,1.2599999904632568 C12.178999900817871,3.677999973297119 16.201000213623047,6.340000152587891 20.152000427246094,9.244999885559082 C26.84600067138672,14.17199993133545 33.31700134277344,19.80900001525879 34.11899948120117,26.142000198364258 C36.01300048828125,40.983001708984375 -6.751999855041504,55.321998596191406 -23.486000061035156,52.13800048828125z"></path></g><g opacity="1" transform="matrix(1,0,0,1,38.77299880981445,41.417999267578125)"><path fill="rgb(107,31,0)" fill-opacity="1" d=" M16.16699981689453,-12.911999702453613 C16.05699920654297,-12.718000411987305 15.937000274658203,-12.52400016784668 15.807000160217285,-12.331999778747559 C15.744000434875488,-12.23799991607666 15.678999900817871,-12.145000457763672 15.611000061035156,-12.052000045776367 C15.482000350952148,-11.873000144958496 15.342000007629395,-11.694000244140625 15.196999549865723,-11.515999794006348 C15.128000259399414,-11.432000160217285 15.062999725341797,-11.345999717712402 14.989999771118164,-11.26099967956543 C7.625,-2.690999984741211 -16.993000030517578,4.328999996185303 -17.459999084472656,13.369999885559082 C-17.506999969482422,14.206999778747559 -17.216999053955078,15.067000389099121 -16.659000396728516,15.949999809265137 C-11.440999984741211,6.513999938964844 17.506999969482422,-0.9470000267028809 17.054000854492188,-10.99899959564209 C17.054000854492188,-10.99899959564209 17.054000854492188,-15.949999809265137 17.054000854492188,-15.949999809265137 C17.054000854492188,-14.91100025177002 16.732999801635742,-13.901000022888184 16.16699981689453,-12.911999702453613z"></path></g><g opacity="1" transform="matrix(1,0,0,1,43.020999908447266,14.050000190734863)"><path fill="rgb(107,31,0)" fill-opacity="1" d=" M30.191999435424805,13.800999641418457 C29.738000869750977,12.151000022888184 28.797000885009766,10.53499984741211 27.25200080871582,8.98900032043457 C13.213000297546387,-5.048999786376953 -18.05900001525879,-8.258000373840332 -25.763999938964844,-7.199999809265137 C-29.761999130249023,-9.059000015258789 -31.052000045776367,-10.696999549865723 -26.937000274658203,-12.12600040435791 C-22.10300064086914,-13.800000190734863 12.317999839782715,-11.126999855041504 27.25200080871582,3.819000005722046 C30.365999221801758,6.933000087738037 31.052000045776367,10.348999977111816 30.191999435424805,13.800999641418457z"></path></g><g opacity="1" transform="matrix(1,0,0,1,60.80099868774414,69.89600372314453)"><path fill="rgb(107,31,0)" fill-opacity="1" d=" M12.958000183105469,11.817999839782715 C11.71500015258789,1.9989999532699585 -3.1489999294281006,-6.135000228881836 -11.342000007629395,-12.574000358581543 C-11.343999862670898,-12.571999549865723 -11.345000267028809,-12.571000099182129 -11.347999572753906,-12.569999694824219 C-11.557000160217285,-12.734000205993652 -11.770000457763672,-12.89900016784668 -11.968999862670898,-13.062999725341797 C-12.713000297546387,-13.656000137329102 -13.107999801635742,-14.501999855041504 -13.107999801635742,-15.315999984741211 C-13.107999801635742,-15.315999984741211 -13.107999801635742,-9.923999786376953 -13.107999801635742,-9.923999786376953 C-13.107999801635742,-9.923999786376953 -13.092000007629395,-9.932000160217285 -13.092000007629395,-9.932000160217285 C-13.031999588012695,-9.180000305175781 -12.64799976348877,-8.42300033569336 -11.968999862670898,-7.877999782562256 C-4.380000114440918,-1.7430000305175781 9.947999954223633,5.995999813079834 12.597999572753906,15.315999984741211 C12.980999946594238,14.154000282287598 13.109000205993652,12.991999626159668 12.958000183105469,11.817999839782715z"></path></g><g opacity="1" transform="matrix(1,0,0,1,34.321998596191406,95.39199829101562)"><path fill="rgb(107,31,0)" fill-opacity="1" d=" M20.51799964904785,-9.994999885559082 C15.199000358581543,-4.425000190734863 -6.289999961853027,2.0439999103546143 -16.856000900268555,6.730000019073486 C-20.841999053955078,8.496000289916992 -21.95800018310547,11.598999977111816 -18.170000076293945,12.319000244140625 C-18.04199981689453,12.342000007629395 -17.913999557495117,12.364999771118164 -17.785999298095703,12.376999855041504 C-17.4950008392334,12.21500015258789 -17.18199920654297,12.052000045776367 -16.856000900268555,11.911999702453613 C-4.689000129699707,6.520999908447266 21.95800018310547,-1.24399995803833 21.738000869750977,-7.275000095367432 C21.738000869750977,-7.275000095367432 21.738000869750977,-12.37600040435791 21.738000869750977,-12.37600040435791 C21.738000869750977,-11.605999946594238 21.29400062561035,-10.809000015258789 20.51799964904785,-9.994999885559082z"></path></g></g><g style="display: none;"><g><path></path></g><g><path></path></g><g><path></path></g><g><path></path></g></g><g style="display: block;" transform="matrix(0.9200000166893005,0,0,0.9200000166893005,-46.80180358886719,53.435272216796875)" opacity="1"><g opacity="1" transform="matrix(1,0,0,1,188.8800048828125,189.71099853515625)"><path fill="rgb(255,177,57)" fill-opacity="1" d=" M67.93399810791016,-0.9549999833106995 C52.861000061035156,-0.9549999833106995 21.684999465942383,11.211000442504883 24.881000518798828,22.283000946044922 C28.07699966430664,33.35499954223633 50.6870002746582,23.509000778198242 65.76000213623047,23.509000778198242 C80.83399963378906,23.509000778198242 105.85800170898438,28.60099983215332 107.18499755859375,17.663000106811523 C108.51200103759766,6.724999904632568 83.00800323486328,-0.9549999833106995 67.93399810791016,-0.9549999833106995z"></path></g><g opacity="1" transform="matrix(1,0,0,1,188.8800048828125,201.77099609375)"><path fill="rgb(255,226,166)" fill-opacity="1" d=" M67.66200256347656,-3.4000000953674316 C52.5890007019043,-3.4000000953674316 13.289999961853027,1.4869999885559082 18.766000747680664,17.934999465942383 C24.951000213623047,36.51300048828125 42.887001037597656,20.07200050354004 65.89600372314453,19.297000885009766 C89.75199890136719,18.493000030517578 110.41300201416016,31.756999969482422 113.97799682617188,10.1899995803833 C116.55000305175781,-5.369999885559082 82.73600006103516,-3.4000000953674316 67.66200256347656,-3.4000000953674316z"></path></g><g opacity="1" transform="matrix(1,0,0,1,188.87899780273438,195.73199462890625)"><path fill="rgb(134,63,20)" fill-opacity="1" d=" M62.770999908447266,-6.933000087738037 C48.63999938964844,-6.933000087738037 17.683000564575195,7.428999900817871 20.065000534057617,18.47800064086914 C23.660999298095703,35.0099983215332 44.652000427246094,18.98900032043457 65.55599975585938,18.82200050354004 C88.53900146484375,18.638999938964844 104.5719985961914,27.604999542236328 111.04900360107422,16.167999267578125 C120.38400268554688,-0.3160000145435333 76.90299987792969,-6.933000087738037 62.770999908447266,-6.933000087738037z"></path></g><g opacity="1" transform="matrix(1,0,0,1,188.88099670410156,182.07400512695312)"><path fill="rgb(107,32,0)" fill-opacity="1" d=" M63.58700180053711,3.4670000076293945 C48.869998931884766,4.920000076293945 28.482999801635742,11.642999649047852 20.066999435424805,28.198999404907227 C17.847000122070312,32.566001892089844 20.481000900268555,34.0620002746582 20.6299991607666,35.39099884033203 C23.04800033569336,22.104999542236328 50.354000091552734,11.625 63.314998626708984,10.50100040435791 C78.34700012207031,9.197999954223633 109.96600341796875,12.081000328063965 111.57099914550781,27.51099967956543 C113.87699890136719,25.63800048828125 113.00599670410156,20.545000076293945 111.99800109863281,18.009000778198242 C105.79299926757812,2.4040000438690186 78.48300170898438,1.996999979019165 63.58700180053711,3.4670000076293945z"></path></g></g><g style="display: block;" transform="matrix(0.9200000166893005,0,0,0.9200000166893005,86.59819793701172,53.435272216796875)" opacity="1"><g opacity="1" transform="matrix(-1,0,0,1,510.1239929199219,0)"><g opacity="1" transform="matrix(1,0,0,1,188.8800048828125,189.71099853515625)"><path fill="rgb(255,177,57)" fill-opacity="1" d=" M67.93399810791016,-0.9549999833106995 C52.861000061035156,-0.9549999833106995 21.684999465942383,11.211000442504883 24.881000518798828,22.283000946044922 C28.07699966430664,33.35499954223633 50.6870002746582,23.509000778198242 65.76000213623047,23.509000778198242 C80.83399963378906,23.509000778198242 105.85800170898438,28.60099983215332 107.18499755859375,17.663000106811523 C108.51200103759766,6.724999904632568 83.00800323486328,-0.9549999833106995 67.93399810791016,-0.9549999833106995z"></path></g><g opacity="1" transform="matrix(1,0,0,1,188.8800048828125,201.77099609375)"><path fill="rgb(255,226,166)" fill-opacity="1" d=" M67.66200256347656,-3.4000000953674316 C52.5890007019043,-3.4000000953674316 13.289999961853027,1.4869999885559082 18.766000747680664,17.934999465942383 C24.951000213623047,36.51300048828125 42.887001037597656,20.07200050354004 65.89600372314453,19.297000885009766 C89.75199890136719,18.493000030517578 110.41300201416016,31.756999969482422 113.97799682617188,10.1899995803833 C116.55000305175781,-5.369999885559082 82.73600006103516,-3.4000000953674316 67.66200256347656,-3.4000000953674316z"></path></g><g opacity="1" transform="matrix(1,0,0,1,188.87899780273438,195.73199462890625)"><path fill="rgb(134,63,20)" fill-opacity="1" d=" M62.770999908447266,-6.933000087738037 C48.63999938964844,-6.933000087738037 17.683000564575195,7.428999900817871 20.065000534057617,18.47800064086914 C23.660999298095703,35.0099983215332 44.652000427246094,18.98900032043457 65.55599975585938,18.82200050354004 C88.53800201416016,18.638999938964844 104.5719985961914,27.604999542236328 111.04900360107422,16.167999267578125 C120.38400268554688,-0.3160000145435333 76.90299987792969,-6.933000087738037 62.770999908447266,-6.933000087738037z"></path></g><g opacity="1" transform="matrix(1,0,0,1,188.88099670410156,182.07400512695312)"><path fill="rgb(107,32,0)" fill-opacity="1" d=" M63.58700180053711,3.4670000076293945 C48.869998931884766,4.920000076293945 28.482999801635742,11.642999649047852 20.066999435424805,28.198999404907227 C17.847000122070312,32.566001892089844 20.481000900268555,34.0620002746582 20.6299991607666,35.39099884033203 C23.04800033569336,22.104999542236328 50.354000091552734,11.625 63.314998626708984,10.50100040435791 C78.34700012207031,9.197999954223633 109.96600341796875,12.081000328063965 111.57099914550781,27.51099967956543 C113.87699890136719,25.63800048828125 113.00599670410156,20.545000076293945 111.99800109863281,18.009000778198242 C105.79299926757812,2.4040000438690186 78.48300170898438,1.996999979019165 63.58700180053711,3.4670000076293945z"></path></g></g></g><g style="display: block;" transform="matrix(0.9200000166893005,0,0,0.9200000166893005,297.089599609375,145.919189453125)" opacity="1"><g opacity="1" transform="matrix(1,0,0,1,58.41899871826172,29.430999755859375)"><path fill="rgb(255,237,188)" fill-opacity="1" d=" M-55.202999114990234,-11.543000221252441 C-54.12200164794922,-13.357999801635742 -50.08599853515625,-16.02899932861328 -46.766998291015625,-17.6560001373291 C-32.382999420166016,-24.704999923706055 -1.0140000581741333,-23.677000045776367 23.400999069213867,-10.34000015258789 C58.16899871826172,8.652000427246094 51.6510009765625,24.704999923706055 44.104000091552734,20.993000030517578 C36.55500030517578,17.281999588012695 9.930000305175781,-0.09300000220537186 -26.628999710083008,0.9710000157356262 C-36.42599868774414,1.2549999952316284 -43.32099914550781,2.5360000133514404 -48.75899887084961,2.2160000801086426 C-55.94200134277344,1.7920000553131104 -58.16899871826172,-6.559999942779541 -55.202999114990234,-11.543000221252441z"></path></g><g opacity="1" transform="matrix(1,0,0,1,56.71900177001953,24.43600082397461)"><path fill="rgb(133,62,19)" fill-opacity="1" d=" M-53.016998291015625,-7.445000171661377 C-51.93600082397461,-9.26099967956543 -48.387001037597656,-12.194999694824219 -45.06800079345703,-13.821999549865723 C-30.68400001525879,-20.871000289916992 -3.197999954223633,-24.184999465942383 21.215999603271484,-10.847999572753906 C55.98400115966797,8.144000053405762 53.22999954223633,24.18600082397461 45.680999755859375,20.475000381469727 C38.132999420166016,16.763999938964844 11.508000373840332,-0.6110000014305115 -25.052000045776367,0.4519999921321869 C-34.847999572753906,0.7369999885559082 -41.74300003051758,2.0179998874664307 -47.180999755859375,1.6970000267028809 C-54.36399841308594,1.2740000486373901 -55.983001708984375,-2.4619998931884766 -53.016998291015625,-7.445000171661377z"></path></g><g opacity="1" transform="matrix(1,0,0,1,55.6879997253418,22.601999282836914)"><path fill="rgb(107,31,0)" fill-opacity="1" d=" M-52.03900146484375,1.6729999780654907 C-52.027000427246094,1.6390000581741333 -52.005001068115234,1.5920000076293945 -51.981998443603516,1.5570000410079956 C-50.9010009765625,-0.25600001215934753 -47.35599899291992,-3.196000099182129 -44.03300094604492,-4.810999870300293 C-29.658000946044922,-11.864999771118164 -2.1619999408721924,-15.178000450134277 22.242000579833984,-1.8480000495910645 C39.638999938964844,7.6579999923706055 47.63399887084961,16.43199920654297 50.34199905395508,22.347999572753906 C53.89799880981445,19.639999389648438 50.2140007019043,6.263999938964844 22.242000579833984,-9.017999649047852 C-2.1619999408721924,-22.347999572753906 -29.658000946044922,-19.03499984741211 -44.03300094604492,-11.993000030517578 C-47.35599899291992,-10.366000175476074 -50.9010009765625,-7.426000118255615 -51.981998443603516,-5.61299991607666 C-53.805999755859375,-2.555999994277954 -53.89799880981445,0.03400000184774399 -52.03900146484375,1.6729999780654907z"></path></g></g><g style="display: block;" transform="matrix(0.9200000166893005,0,0,0.9200000166893005,104.70564270019531,145.919189453125)" opacity="1"><g opacity="1" transform="matrix(1,0,0,1,58.41899871826172,29.430999755859375)"><path fill="rgb(255,237,188)" fill-opacity="1" d=" M55.20399856567383,-11.543000221252441 C54.12300109863281,-13.357999801635742 50.08599853515625,-16.02899932861328 46.76599884033203,-17.6560001373291 C32.382999420166016,-24.704999923706055 1.0140000581741333,-23.677000045776367 -23.399999618530273,-10.34000015258789 C-58.16899871826172,8.652000427246094 -51.652000427246094,24.704999923706055 -44.104000091552734,20.993000030517578 C-36.55500030517578,17.281999588012695 -9.930000305175781,-0.09300000220537186 26.6299991607666,0.9710000157356262 C36.426998138427734,1.2549999952316284 43.321998596191406,2.5360000133514404 48.7599983215332,2.2160000801086426 C55.94300079345703,1.7920000553131104 58.16999816894531,-6.559999942779541 55.20399856567383,-11.543000221252441z"></path></g><g opacity="1" transform="matrix(1,0,0,1,60.11899948120117,24.43600082397461)"><path fill="rgb(133,62,19)" fill-opacity="1" d=" M53.018001556396484,-7.445000171661377 C51.9370002746582,-9.26099967956543 48.387001037597656,-12.194999694824219 45.06700134277344,-13.821999549865723 C30.68400001525879,-20.871000289916992 3.1989998817443848,-24.184999465942383 -21.215999603271484,-10.847999572753906 C-55.98400115966797,8.144000053405762 -53.22999954223633,24.18600082397461 -45.68199920654297,20.475000381469727 C-38.132999420166016,16.763999938964844 -11.508000373840332,-0.6110000014305115 25.051000595092773,0.4519999921321869 C34.847999572753906,0.7369999885559082 41.74300003051758,2.0179998874664307 47.180999755859375,1.6970000267028809 C54.36399841308594,1.2740000486373901 55.98400115966797,-2.4619998931884766 53.018001556396484,-7.445000171661377z"></path></g><g opacity="1" transform="matrix(1,0,0,1,61.1510009765625,22.601999282836914)"><path fill="rgb(107,31,0)" fill-opacity="1" d=" M52.040000915527344,1.6729999780654907 C52.02799987792969,1.6390000581741333 52.00400161743164,1.5920000076293945 51.98099899291992,1.5570000410079956 C50.900001525878906,-0.25600001215934753 47.356998443603516,-3.196000099182129 44.03300094604492,-4.810999870300293 C29.658000946044922,-11.864999771118164 2.1619999408721924,-15.178000450134277 -22.242000579833984,-1.8480000495910645 C-39.638999938964844,7.6579999923706055 -47.63399887084961,16.43199920654297 -50.34199905395508,22.347999572753906 C-53.89799880981445,19.639999389648438 -50.2140007019043,6.263999938964844 -22.242000579833984,-9.017999649047852 C2.1619999408721924,-22.347999572753906 29.658000946044922,-19.03499984741211 44.03300094604492,-11.993000030517578 C47.356998443603516,-10.366000175476074 50.900001525878906,-7.426000118255615 51.98099899291992,-5.61299991607666 C53.805999755859375,-2.555999994277954 53.89899826049805,0.03400000184774399 52.040000915527344,1.6729999780654907z"></path></g></g></g></svg>