<svg xmlns="http://www.w3.org/2000/svg" viewBox="0 0 512 512" width="512" height="512" style="width: 100%; height: 100%; transform: translate3d(0,0,0);" preserveAspectRatio="xMidYMid meet"><defs><clipPath id="__lottie_element_11505"><rect width="512" height="512" x="0" y="0"></rect></clipPath><clipPath id="__lottie_element_11507"><path d="M0,0 L512,0 L512,512 L0,512z"></path></clipPath><radialGradient id="__lottie_element_11521" spreadMethod="pad" gradientUnits="userSpaceOnUse" cx="-46.367000579833984" cy="-56.073001861572266" r="70.06400203704834" fx="-46.367000579833984" fy="-56.073001861572266"><stop offset="0%" stop-color="rgb(255,255,255)"></stop><stop offset="64%" stop-color="rgb(252,158,158)"></stop><stop offset="91%" stop-color="rgb(250,61,61)"></stop></radialGradient><radialGradient id="__lottie_element_11522" spreadMethod="pad" gradientUnits="userSpaceOnUse" cx="-46.367000579833984" cy="-56.073001861572266" r="70.06400203704834" fx="-46.367000579833984" fy="-56.073001861572266"><stop offset="0%" stop-color="rgb(255,255,255)"></stop><stop offset="64%" stop-color="rgb(252,158,158)"></stop><stop offset="91%" stop-color="rgb(250,61,61)"></stop></radialGradient><clipPath id="__lottie_element_11542"><path d="M0,0 L512,0 L512,512 L0,512z"></path></clipPath><radialGradient id="__lottie_element_11556" spreadMethod="pad" gradientUnits="userSpaceOnUse"><stop></stop><stop></stop><stop></stop></radialGradient><radialGradient id="__lottie_element_11557" spreadMethod="pad" gradientUnits="userSpaceOnUse"><stop></stop><stop></stop><stop></stop></radialGradient></defs><g clip-path="url(#__lottie_element_11505)"><g clip-path="url(#__lottie_element_11542)" style="display: none;"><g style="display: none;"><g><path></path></g><g><path></path></g><g><path></path></g><g><path stroke-linecap="round" stroke-linejoin="round" fill-opacity="0"></path></g></g><g style="display: none;"><g><path></path></g><g><path stroke-linecap="round" stroke-linejoin="round" fill-opacity="0"></path></g><g><path></path></g><g><path stroke-linecap="round" stroke-linejoin="round" fill-opacity="0"></path></g><g><path stroke-linecap="round" stroke-linejoin="round" fill-opacity="0"></path></g></g><g style="display: none;"><g><path></path><path stroke-linecap="round" stroke-linejoin="round" fill-opacity="0"></path></g><g><path></path></g><g><path></path><path stroke-linecap="butt" stroke-linejoin="miter" fill-opacity="0" stroke-miterlimit="4"></path></g><g><path></path><path stroke-linecap="butt" stroke-linejoin="miter" fill-opacity="0" stroke-miterlimit="4"></path></g><g><path></path><path stroke-linecap="butt" stroke-linejoin="miter" fill-opacity="0" stroke-miterlimit="4"></path></g><g><path></path><path stroke-linecap="butt" stroke-linejoin="miter" fill-opacity="0" stroke-miterlimit="4"></path></g><g><path></path><path stroke-linecap="butt" stroke-linejoin="miter" fill-opacity="0" stroke-miterlimit="4"></path></g><g><path></path><path stroke-linecap="butt" stroke-linejoin="miter" fill-opacity="0" stroke-miterlimit="4"></path></g></g><g style="display: none;"><g><path></path><path stroke-linecap="round" stroke-linejoin="round" fill-opacity="0"></path></g><g><path></path></g><g><path></path><path stroke-linecap="butt" stroke-linejoin="miter" fill-opacity="0" stroke-miterlimit="4"></path></g><g><path></path><path stroke-linecap="butt" stroke-linejoin="miter" fill-opacity="0" stroke-miterlimit="4"></path></g><g><path></path><path stroke-linecap="butt" stroke-linejoin="miter" fill-opacity="0" stroke-miterlimit="4"></path></g><g><path></path><path stroke-linecap="butt" stroke-linejoin="miter" fill-opacity="0" stroke-miterlimit="4"></path></g><g><path></path><path stroke-linecap="butt" stroke-linejoin="miter" fill-opacity="0" stroke-miterlimit="4"></path></g><g><path></path><path stroke-linecap="butt" stroke-linejoin="miter" fill-opacity="0" stroke-miterlimit="4"></path></g></g><g style="display: none;"><g><path></path></g><g><path stroke-linecap="round" stroke-linejoin="round" fill-opacity="0"></path></g><g><path stroke-linecap="round" stroke-linejoin="round" fill-opacity="0"></path></g><g><path></path></g><g><path></path></g><g><path></path></g><g><path stroke-linecap="round" stroke-linejoin="round" fill-opacity="0"></path></g></g><g style="display: none;"><g><path></path></g><g><path stroke-linecap="round" stroke-linejoin="round" fill-opacity="0"></path></g><g><path></path></g><g><path stroke-linecap="round" stroke-linejoin="round" fill-opacity="0"></path></g><g><path stroke-linecap="round" stroke-linejoin="round" fill-opacity="0"></path></g></g><g style="display: none;"><g><path></path></g><g><path stroke-linecap="round" stroke-linejoin="round" fill-opacity="0"></path></g><g><path></path></g><g><path stroke-linecap="round" stroke-linejoin="round" fill-opacity="0"></path></g><g><path stroke-linecap="round" stroke-linejoin="round" fill-opacity="0"></path></g></g><g style="display: none;"><g><path></path></g><g><path></path></g><g><path></path></g><g><g><path fill="url(#__lottie_element_11556)"></path></g></g><g><g><path fill="url(#__lottie_element_11557)"></path></g></g><g><path stroke-linecap="round" stroke-linejoin="round" fill-opacity="0"></path></g><g><path stroke-linecap="round" stroke-linejoin="round" fill-opacity="0"></path></g></g></g><g clip-path="url(#__lottie_element_11507)" style="display: block;" transform="matrix(1,0,0,1,0,0)" opacity="1"><g style="display: block;" transform="matrix(0.9849399924278259,0,0,0.9849399924278259,249.6942901611328,254.2959747314453)" opacity="1"><g opacity="1" transform="matrix(1,0,0,1,0,0)"><path fill="rgb(245,245,245)" fill-opacity="1" d=" M189.875,149.156005859375 C189.875,149.156005859375 -181.95399475097656,149.156005859375 -181.95399475097656,149.156005859375 C-187.77699279785156,149.156005859375 -192.4969940185547,144.43600463867188 -192.4969940185547,138.61300659179688 C-192.4969940185547,138.61300659179688 -192.4969940185547,-99.50199890136719 -192.4969940185547,-99.50199890136719 C-192.4969940185547,-105.32499694824219 -187.77699279785156,-110.04499816894531 -181.95399475097656,-110.04499816894531 C-181.95399475097656,-110.04499816894531 189.875,-110.04499816894531 189.875,-110.04499816894531 C195.697998046875,-110.04499816894531 200.41700744628906,-105.32499694824219 200.41700744628906,-99.50199890136719 C200.41700744628906,-99.50199890136719 200.41700744628906,138.61300659179688 200.41700744628906,138.61300659179688 C200.41700744628906,144.43600463867188 195.697998046875,149.156005859375 189.875,149.156005859375z"></path></g><g opacity="1" transform="matrix(1,0,0,1,0,0)"><path fill="rgb(229,229,229)" fill-opacity="1" d=" M177.18899536132812,149.156005859375 C177.18899536132812,149.156005859375 -169.26800537109375,149.156005859375 -169.26800537109375,149.156005859375 C-175.09100341796875,149.156005859375 -179.81100463867188,144.43600463867188 -179.81100463867188,138.61300659179688 C-179.81100463867188,138.61300659179688 -179.81100463867188,-99.50199890136719 -179.81100463867188,-99.50199890136719 C-179.81100463867188,-105.32499694824219 -175.09100341796875,-110.04499816894531 -169.26800537109375,-110.04499816894531 C-169.26800537109375,-110.04499816894531 177.18899536132812,-110.04499816894531 177.18899536132812,-110.04499816894531 C183.01199340820312,-110.04499816894531 187.73199462890625,-105.32499694824219 187.73199462890625,-99.50199890136719 C187.73199462890625,-99.50199890136719 187.73199462890625,138.61300659179688 187.73199462890625,138.61300659179688 C187.73199462890625,144.43600463867188 183.01199340820312,149.156005859375 177.18899536132812,149.156005859375z"></path></g><g opacity="0.4" transform="matrix(1,0,0,1,0,0)"><path fill="rgb(163,171,170)" fill-opacity="1" d=" M200.41299438476562,-99.50299835205078 C200.41299438476562,-105.3239974975586 195.69400024414062,-110.04299926757812 189.8730010986328,-110.04299926757812 C189.8730010986328,-110.04299926757812 -181.95700073242188,-110.04299926757812 -181.95700073242188,-110.04299926757812 C-187.7779998779297,-110.04299926757812 -192.4969940185547,-105.3239974975586 -192.4969940185547,-99.50299835205078 C-192.4969940185547,-99.50299835205078 -192.4969940185547,-94.50299835205078 -192.4969940185547,-94.50299835205078 C-192.4969940185547,-94.50299835205078 -192.4969940185547,133.61500549316406 -192.4969940185547,133.61500549316406 C-192.4969940185547,133.61500549316406 -192.4969940185547,138.61500549316406 -192.4969940185547,138.61500549316406 C-192.4969940185547,144.43600463867188 -187.7779998779297,149.15499877929688 -181.95700073242188,149.15499877929688 C-181.95700073242188,149.15499877929688 189.8730010986328,149.15499877929688 189.8730010986328,149.15499877929688 C195.69400024414062,149.15499877929688 200.41299438476562,144.43600463867188 200.41299438476562,138.61500549316406 C200.41299438476562,138.61500549316406 200.41299438476562,133.61500549316406 200.41299438476562,133.61500549316406 C200.41299438476562,133.61500549316406 200.41299438476562,-94.50299835205078 200.41299438476562,-94.50299835205078 C200.41299438476562,-94.50299835205078 200.41299438476562,-99.50299835205078 200.41299438476562,-99.50299835205078z"></path></g><g opacity="1" transform="matrix(1,0,0,1,0,0)"><path stroke-linecap="round" stroke-linejoin="round" fill-opacity="0" stroke="rgb(163,163,163)" stroke-opacity="1" stroke-width="8" d=" M189.875,149.156005859375 C189.875,149.156005859375 -181.95399475097656,149.156005859375 -181.95399475097656,149.156005859375 C-187.77699279785156,149.156005859375 -192.4969940185547,144.43600463867188 -192.4969940185547,138.61300659179688 C-192.4969940185547,138.61300659179688 -192.4969940185547,-99.50199890136719 -192.4969940185547,-99.50199890136719 C-192.4969940185547,-105.32499694824219 -187.77699279785156,-110.04499816894531 -181.95399475097656,-110.04499816894531 C-181.95399475097656,-110.04499816894531 189.875,-110.04499816894531 189.875,-110.04499816894531 C195.697998046875,-110.04499816894531 200.41700744628906,-105.32499694824219 200.41700744628906,-99.50199890136719 C200.41700744628906,-99.50199890136719 200.41700744628906,138.61300659179688 200.41700744628906,138.61300659179688 C200.41700744628906,139.54600524902344 200.29600524902344,140.4510040283203 200.0679931640625,141.31300354003906 C198.95599365234375,145.52000427246094 195.30999755859375,148.69700622558594 190.86099243164062,149.11000061035156 C190.53599548339844,149.13999938964844 190.20799255371094,149.156005859375 189.875,149.156005859375z"></path></g></g><g style="display: none;"><g><path></path></g><g><path stroke-linecap="round" stroke-linejoin="round" fill-opacity="0"></path></g><g><path></path></g><g><path stroke-linecap="round" stroke-linejoin="round" fill-opacity="0"></path></g><g><path stroke-linecap="round" stroke-linejoin="round" fill-opacity="0"></path></g></g><g style="display: none;"><g><path></path><path stroke-linecap="round" stroke-linejoin="round" fill-opacity="0"></path></g><g><path></path></g><g><path></path><path stroke-linecap="butt" stroke-linejoin="miter" fill-opacity="0" stroke-miterlimit="4"></path></g><g><path></path><path stroke-linecap="butt" stroke-linejoin="miter" fill-opacity="0" stroke-miterlimit="4"></path></g><g><path></path><path stroke-linecap="butt" stroke-linejoin="miter" fill-opacity="0" stroke-miterlimit="4"></path></g><g><path></path><path stroke-linecap="butt" stroke-linejoin="miter" fill-opacity="0" stroke-miterlimit="4"></path></g><g><path></path><path stroke-linecap="butt" stroke-linejoin="miter" fill-opacity="0" stroke-miterlimit="4"></path></g><g><path></path><path stroke-linecap="butt" stroke-linejoin="miter" fill-opacity="0" stroke-miterlimit="4"></path></g></g><g style="display: block;" transform="matrix(1.2499972581863403,0,0,1.2499972581863403,251.49989318847656,206.5002899169922)" opacity="1"><g opacity="1" transform="matrix(1,0,0,1,7,-65)"><path fill="rgb(252,252,252)" fill-opacity="1" d=" M140,35 C140,35 140,213 140,213 C140,213 -149,213 -149,213 C-149,213 -149,35 -149,35 C-149,35 140,35 140,35z"></path><path stroke-linecap="round" stroke-linejoin="round" fill-opacity="0" stroke="rgb(163,163,163)" stroke-opacity="1" stroke-width="8" d=" M140,35 C140,35 140,213 140,213 C140,213 -149,213 -149,213 C-149,213 -149,35 -149,35 C-149,35 140,35 140,35z"></path></g><g opacity="1" transform="matrix(1,0,0,1,7,-65)"><path fill="rgb(247,247,247)" fill-opacity="1" d=" M129.5,45.5 C129.5,45.5 129.5,204.46299743652344 129.5,204.46299743652344 C129.5,204.46299743652344 -138.5,204.46299743652344 -138.5,204.46299743652344 C-138.5,204.46299743652344 -138.5,45.5 -138.5,45.5 C-138.5,45.5 129.5,45.5 129.5,45.5z"></path></g><g opacity="1" transform="matrix(1,0,0,1,0,0)"><path fill="rgb(214,214,214)" fill-opacity="1" d=" M-108,18 C-108,18 113,18 113,18"></path><path stroke-linecap="butt" stroke-linejoin="miter" fill-opacity="0" stroke-miterlimit="4" stroke="rgb(163,163,163)" stroke-opacity="1" stroke-width="8" d=" M-108,18 C-108,18 113,18 113,18"></path></g><g opacity="1" transform="matrix(1,0,0,1,0,20)"><path fill="rgb(214,214,214)" fill-opacity="1" d=" M-108,18 C-108,18 113,18 113,18"></path><path stroke-linecap="butt" stroke-linejoin="miter" fill-opacity="0" stroke-miterlimit="4" stroke="rgb(163,163,163)" stroke-opacity="1" stroke-width="8" d=" M-108,18 C-108,18 113,18 113,18"></path></g><g opacity="1" transform="matrix(1,0,0,1,0,40)"><path fill="rgb(214,214,214)" fill-opacity="1" d=" M-108,18 C-108,18 113,18 113,18"></path><path stroke-linecap="butt" stroke-linejoin="miter" fill-opacity="0" stroke-miterlimit="4" stroke="rgb(163,163,163)" stroke-opacity="1" stroke-width="8" d=" M-108,18 C-108,18 113,18 113,18"></path></g><g opacity="1" transform="matrix(1,0,0,1,0,60)"><path fill="rgb(214,214,214)" fill-opacity="1" d=" M-108,18 C-108,18 113,18 113,18"></path><path stroke-linecap="butt" stroke-linejoin="miter" fill-opacity="0" stroke-miterlimit="4" stroke="rgb(163,163,163)" stroke-opacity="1" stroke-width="8" d=" M-108,18 C-108,18 113,18 113,18"></path></g><g opacity="1" transform="matrix(1,0,0,1,0,80)"><path fill="rgb(214,214,214)" fill-opacity="1" d=" M-108,18 C-108,18 113,18 113,18"></path><path stroke-linecap="butt" stroke-linejoin="miter" fill-opacity="0" stroke-miterlimit="4" stroke="rgb(163,163,163)" stroke-opacity="1" stroke-width="8" d=" M-108,18 C-108,18 113,18 113,18"></path></g><g opacity="1" transform="matrix(1,0,0,1,0,100)"><path fill="rgb(214,214,214)" fill-opacity="1" d=" M69.5,25.5 C69.5,25.5 113,25.5 113,25.5"></path><path stroke-linecap="butt" stroke-linejoin="miter" fill-opacity="0" stroke-miterlimit="4" stroke="rgb(163,163,163)" stroke-opacity="1" stroke-width="8" d=" M69.5,25.5 C69.5,25.5 113,25.5 113,25.5"></path></g></g><g style="display: block;" transform="matrix(0.9849399924278259,0,0,0.9849399924278259,249.6942901611328,254.2959747314453)" opacity="1"><g opacity="1" transform="matrix(1,0,0,1,0,0)"><path fill="rgb(229,229,229)" fill-opacity="1" d=" M177.18899536132812,149.156005859375 C177.18899536132812,149.156005859375 -169.26800537109375,149.156005859375 -169.26800537109375,149.156005859375 C-175.09100341796875,149.156005859375 -187.42599487304688,144.41600036621094 -187.42599487304688,138.59300231933594 C-187.42599487304688,138.59300231933594 -188.05999755859375,-99.677001953125 -188.05999755859375,-99.677001953125 C-188.05999755859375,-105.5 -58.96699905395508,26.385000228881836 -53.14400100708008,26.385000228881836 C-53.14400100708008,26.385000228881836 59.79600143432617,25.115999221801758 59.79600143432617,25.115999221801758 C65.61900329589844,25.115999221801758 194.71200561523438,-105.5 194.71200561523438,-99.677001953125 C194.71200561523438,-99.677001953125 195.3459930419922,138.59300231933594 195.3459930419922,138.59300231933594 C195.3459930419922,144.41600036621094 183.01199340820312,149.156005859375 177.18899536132812,149.156005859375z"></path></g><g opacity="1" transform="matrix(1,0,0,1,0,0)"><path stroke-linecap="round" stroke-linejoin="round" fill-opacity="0" stroke="rgb(163,163,163)" stroke-opacity="1" stroke-width="8" d=" M-61.14699935913086,20.163999557495117 C-61.14699935913086,20.163999557495117 -188.8509979248047,-107.85800170898438 -188.8509979248047,-107.85800170898438"></path></g><g opacity="1" transform="matrix(-1,0,0,1,7.513000011444092,0)"><path stroke-linecap="round" stroke-linejoin="round" fill-opacity="0" stroke="rgb(163,163,163)" stroke-opacity="1" stroke-width="8" d=" M-61.14699935913086,20.163999557495117 C-61.14699935913086,20.163999557495117 -188.8509979248047,-107.85800170898438 -188.8509979248047,-107.85800170898438"></path></g><g opacity="0.4" transform="matrix(1,0,0,1,0,0)"><path fill="rgb(163,171,170)" fill-opacity="1" d=" M200.41299438476562,-99.50299835205078 C200.41299438476562,-105.3239974975586 64.9749984741211,23.847999572753906 59.15399932861328,23.847999572753906 C59.15399932861328,23.847999572753906 -53.141998291015625,27.020999908447266 -53.141998291015625,27.020999908447266 C-58.9630012512207,27.020999908447266 -190.91000366210938,-112.62100219726562 -190.91000366210938,-106.80000305175781 C-190.91000366210938,-106.80000305175781 -192.4969940185547,-94.50299835205078 -192.4969940185547,-94.50299835205078 C-192.4969940185547,-94.50299835205078 -94.49299621582031,15.54699993133545 -94.49299621582031,15.54699993133545 C-92.23100280761719,17.740999221801758 -92.23100280761719,21.371999740600586 -94.49299621582031,23.56599998474121 C-94.49299621582031,23.56599998474121 -192.4969940185547,133.61500549316406 -192.4969940185547,133.61500549316406 C-192.4969940185547,133.61500549316406 -192.4969940185547,138.61500549316406 -192.4969940185547,138.61500549316406 C-192.4969940185547,144.43600463867188 -187.7779998779297,149.15499877929688 -181.95700073242188,149.15499877929688 C-181.95700073242188,149.15499877929688 189.8730010986328,149.15499877929688 189.8730010986328,149.15499877929688 C195.69400024414062,149.15499877929688 200.41299438476562,144.43600463867188 200.41299438476562,138.61500549316406 C200.41299438476562,138.61500549316406 200.41299438476562,133.61500549316406 200.41299438476562,133.61500549316406 C200.41299438476562,133.61500549316406 102.41500091552734,23.565000534057617 102.41500091552734,23.565000534057617 C100.15299987792969,21.371000289916992 100.15299987792969,17.740999221801758 102.41500091552734,15.54699993133545 C102.41500091552734,15.54699993133545 200.41299438476562,-94.50299835205078 200.41299438476562,-94.50299835205078 C200.41299438476562,-94.50299835205078 200.41299438476562,-99.50299835205078 200.41299438476562,-99.50299835205078z"></path></g><g opacity="1" transform="matrix(1,0,0,1,0,0)"><path fill="rgb(245,245,245)" fill-opacity="1" d=" M200.41299438476562,138.61500549316406 C200.41299438476562,138.61500549316406 95.09700012207031,40.617000579833984 42.96500015258789,-8.9399995803833 C11.668000221252441,-38.691001892089844 -1.975000023841858,-41.86399841308594 -40.08399963378906,-6.182000160217285 C-91.23799896240234,41.7130012512207 -192.4969940185547,138.61500549316406 -192.4969940185547,138.61500549316406 C-192.4969940185547,144.43499755859375 -187.77699279785156,149.15499877929688 -181.95700073242188,149.15499877929688 C-181.95700073242188,149.15499877929688 189.8730010986328,149.15499877929688 189.8730010986328,149.15499877929688 C193.54800415039062,149.15499877929688 196.78500366210938,147.2729949951172 198.67100524902344,144.42100524902344 C199.77200317382812,142.75599670410156 200.41299438476562,140.75999450683594 200.41299438476562,138.61500549316406z"></path></g><g opacity="1" transform="matrix(1,0,0,1,0,0)"><path fill="rgb(229,229,229)" fill-opacity="1" d=" M-181.95399475097656,149.15499877929688 C-181.95399475097656,149.15499877929688 -165.07400512695312,132.14700317382812 -165.07400512695312,132.14700317382812 C-165.07400512695312,132.14700317382812 -20.05699920654297,-8.411999702453613 -20.05699920654297,-8.411999702453613 C-4.760000228881836,-23.708999633789062 11.928999900817871,-23.40399932861328 27.31100082397461,-8.022000312805176 C27.31100082397461,-8.022000312805176 172.53900146484375,132.1439971923828 172.53900146484375,132.1439971923828 C172.53900146484375,132.1439971923828 189.73199462890625,149.15499877929688 189.73199462890625,149.15499877929688 C189.73199462890625,149.15499877929688 189.6479949951172,149.15499877929688 189.6479949951172,149.15499877929688 C189.6479949951172,149.15499877929688 -181.95399475097656,149.15499877929688 -181.95399475097656,149.15499877929688z"></path></g><g opacity="1" transform="matrix(1,0,0,1,0,0)"><path stroke-linecap="round" stroke-linejoin="round" fill-opacity="0" stroke="rgb(163,163,163)" stroke-opacity="1" stroke-width="8" d=" M200.41299438476562,138.61500549316406 C200.41299438476562,138.61500549316406 51.676998138427734,-0.35600000619888306 43.0359992980957,-8.996999740600586 C13.774999618530273,-38.257999420166016 -3.015000104904175,-43.53900146484375 -39.9109992980957,-6.64300012588501 C-48.297000885009766,0.968999981880188 -192.4969940185547,138.61500549316406 -192.4969940185547,138.61500549316406 C-192.4969940185547,144.43499755859375 -187.77699279785156,149.156005859375 -181.95700073242188,149.156005859375 C-181.95700073242188,149.156005859375 189.8730010986328,149.156005859375 189.8730010986328,149.156005859375 C194.79299926757812,149.156005859375 198.927001953125,145.78199768066406 200.08799743652344,141.22300720214844 C200.3000030517578,140.38900756835938 200.41299438476562,139.51499938964844 200.41299438476562,138.61500549316406z"></path></g></g><g style="display: none;"><g><path></path></g><g><path stroke-linecap="round" stroke-linejoin="round" fill-opacity="0"></path></g><g><path></path></g><g><path stroke-linecap="round" stroke-linejoin="round" fill-opacity="0"></path></g><g><path stroke-linecap="round" stroke-linejoin="round" fill-opacity="0"></path></g></g><g style="display: block;" transform="matrix(0.9849399924278259,0,0,0.9849399924278259,249.6942901611328,254.2959747314453)" opacity="1"><g opacity="1" transform="matrix(1,0,0,1,0,0)"><path fill="rgb(245,245,245)" fill-opacity="1" d=" M200.41299438476562,-99.50299835205078 C200.41299438476562,-99.50299835205078 13.598999977111816,81.69100189208984 13.598999977111816,81.69100189208984 C8.229999542236328,86.89800262451172 -0.30399999022483826,86.89800262451172 -5.672999858856201,81.69100189208984 C-5.672999858856201,81.69100189208984 -192.4969940185547,-99.50299835205078 -192.4969940185547,-99.50299835205078 C-192.4969940185547,-101.28299713134766 -192.05499267578125,-102.96099853515625 -191.27499389648438,-104.43199920654297 C-189.50599670410156,-107.76899719238281 -185.9969940185547,-110.04299926757812 -181.95700073242188,-110.04299926757812 C-181.95700073242188,-110.04299926757812 189.8730010986328,-110.04299926757812 189.8730010986328,-110.04299926757812 C194.35000610351562,-110.04299926757812 198.1750030517578,-107.2509994506836 199.7030029296875,-103.31300354003906 C200.16099548339844,-102.13099670410156 200.41299438476562,-100.84600067138672 200.41299438476562,-99.50299835205078z"></path></g><g opacity="1" transform="matrix(1,0,0,1,0,0)"><path stroke-linecap="round" stroke-linejoin="round" fill-opacity="0" stroke="rgb(163,163,163)" stroke-opacity="1" stroke-width="8" d=" M200.41299438476562,-99.50299835205078 C200.41299438476562,-99.50299835205078 13.598999977111816,81.69100189208984 13.598999977111816,81.69100189208984 C8.229999542236328,86.89800262451172 -0.30399999022483826,86.89800262451172 -5.672999858856201,81.69100189208984 C-5.672999858856201,81.69100189208984 -192.4969940185547,-99.50299835205078 -192.4969940185547,-99.50299835205078 C-192.4969940185547,-99.91500091552734 -192.47300720214844,-100.3219985961914 -192.427001953125,-100.72200012207031 C-191.822998046875,-105.96800231933594 -187.36500549316406,-110.04299926757812 -181.95700073242188,-110.04299926757812 C-181.95700073242188,-110.04299926757812 189.8730010986328,-110.04299926757812 189.8730010986328,-110.04299926757812 C194.7760009765625,-110.04299926757812 198.89700317382812,-106.69400024414062 200.0749969482422,-102.15899658203125 C200.2949981689453,-101.30999755859375 200.41299438476562,-100.41999816894531 200.41299438476562,-99.50299835205078z"></path></g><g opacity="1" transform="matrix(1,0,0,1,0,0)"><path fill="rgb(229,229,229)" fill-opacity="1" d=" M170.9250030517578,-96.91300201416016 C173.00599670410156,-96.91300201416016 174.0330047607422,-94.38400268554688 172.54100036621094,-92.93299865722656 C172.54100036621094,-92.93299865722656 12.012999534606934,63.207000732421875 12.012999534606934,63.207000732421875 C7.5229997634887695,67.55699920654297 0.40299999713897705,67.55699920654297 -4.086999893188477,63.207000732421875 C-4.086999893188477,63.207000732421875 -165.0709991455078,-92.93099975585938 -165.0709991455078,-92.93099975585938 C-166.5659942626953,-94.38099670410156 -165.53900146484375,-96.91300201416016 -163.45700073242188,-96.91300201416016 C-163.45700073242188,-96.91300201416016 170.9250030517578,-96.91300201416016 170.9250030517578,-96.91300201416016z"></path></g><g opacity="1" transform="matrix(1,0,0,1,0,0)"><path stroke-linecap="round" stroke-linejoin="round" fill-opacity="0" stroke="rgb(255,255,255)" stroke-opacity="1" stroke-width="6" d=" M-137.94700622558594,-97.13600158691406 C-137.94700622558594,-97.13600158691406 -144,-97.13600158691406 -144,-97.13600158691406"></path></g><g opacity="1" transform="matrix(1,0,0,1,0,0)"><path stroke-linecap="round" stroke-linejoin="round" fill-opacity="0" stroke="rgb(255,255,255)" stroke-opacity="1" stroke-width="6" d=" M-101.56500244140625,-97.13600158691406 C-101.56500244140625,-97.13600158691406 -122.78299713134766,-97.13600158691406 -122.78299713134766,-97.13600158691406"></path></g></g><g style="display: block;" transform="matrix(0.992327094078064,0,0,0.992327094078064,249.6667022705078,254.0498809814453)" opacity="1"><g opacity="0.6" transform="matrix(1,0,0,1,0,0)"><path fill="rgb(163,163,163)" fill-opacity="1" d=" M51.444000244140625,-44.638999938964844 C19.586999893188477,-44.638999938964844 7.5329999923706055,-19.777000427246094 4.535999774932861,-11.977999687194824 C4.265999794006348,-11.276000022888184 3.2739999294281006,-11.29800033569336 3.0329999923706055,-12.010000228881836 C0.3779999911785126,-19.843000411987305 -10.657999992370605,-44.638999938964844 -43.97700119018555,-44.638999938964844 C-85.71800231933594,-44.638999938964844 -99.80699920654297,-4.52400016784668 -95.47100067138672,17.59000015258789 C-91.2490005493164,39.11899948120117 -71.59500122070312,72.34600067138672 -2.0460000038146973,126.28900146484375 C1.3519999980926514,128.9250030517578 6.116000175476074,128.9250030517578 9.513999938964844,126.28900146484375 C79.06300354003906,72.34600067138672 98.71700286865234,39.11899948120117 102.93900299072266,17.59000015258789 C107.2750015258789,-4.52400016784668 93.18499755859375,-44.638999938964844 51.444000244140625,-44.638999938964844z"></path></g><g opacity="1" transform="matrix(1,0,0,1,0,0)"><path fill="rgb(229,33,31)" fill-opacity="1" d=" M49.000999450683594,-61.638999938964844 C18.785999298095703,-61.638999938964844 7.3470001220703125,-36.79499816894531 4.498000144958496,-28.98699951171875 C4.25,-28.30699920654297 3.2890000343322754,-28.325000762939453 3.066999912261963,-29.014999389648438 C0.5450000166893005,-36.85499954223633 -9.928000450134277,-61.638999938964844 -41.53300094604492,-61.638999938964844 C-81.13600158691406,-61.638999938964844 -94.50399780273438,-21.52400016784668 -90.38999938964844,0.5899999737739563 C-86.2760009765625,22.70400047302246 -66.71299743652344,57.15999984741211 3.7339999675750732,113.73200225830078 C74.18099975585938,57.15999984741211 93.74400329589844,22.70400047302246 97.85800170898438,0.5899999737739563 C101.97200012207031,-21.52400016784668 88.60399627685547,-61.638999938964844 49.000999450683594,-61.638999938964844z"></path></g><g opacity="1" transform="matrix(1,0,0,1,0,0)"><path fill="rgb(250,61,61)" fill-opacity="1" d=" M46.696998596191406,-61.638999938964844 C18.010000228881836,-61.638999938964844 7.15500020980835,-38.8380012512207 4.455999851226807,-31.68600082397461 C4.2210001945495605,-31.06399917602539 3.312999963760376,-31.082000732421875 3.1029999256134033,-31.711999893188477 C0.7139999866485596,-38.893001556396484 -9.222000122070312,-61.638999938964844 -39.229000091552734,-61.638999938964844 C-76.81700134277344,-61.638999938964844 -89.50499725341797,-24.85099983215332 -85.5999984741211,-4.570000171661377 C-84.70500183105469,0.07800000160932541 -83.04000091552734,5.320000171661377 -80.19999694824219,11.263999938964844 C-47.362998962402344,80.00299835205078 54.83100128173828,80.00299835205078 87.66799926757812,11.263999938964844 C90.50800323486328,5.320000171661377 92.1729965209961,0.07800000160932541 93.06800079345703,-4.570000171661377 C96.9729995727539,-24.85099983215332 84.28500366210938,-61.638999938964844 46.696998596191406,-61.638999938964844z"></path></g><g opacity="0.25" transform="matrix(1,0,0,1,0,0)"><g opacity="1" transform="matrix(1,0,0,1,0,0)"><path fill="url(#__lottie_element_11521)" fill-opacity="1" d=" M-0.1080000028014183,-40.96900177001953 C-0.1080000028014183,-40.96900177001953 -0.10300000011920929,-40.95500183105469 -0.10300000011920929,-40.95500183105469 C1.5399999618530273,-36.40299987792969 2.246000051498413,-38.698001861572266 2.4760000705718994,-33.58599853515625 C3.6419999599456787,-7.0329999923706055 -16.347999572753906,15.25100040435791 -42.185001373291016,16.18899917602539 C-59.042999267578125,16.804000854492188 -74.19000244140625,8.180000305175781 -83.02300262451172,-5.249000072479248 C-88.95099639892578,-17.632999420166016 -90.02400207519531,-24.636999130249023 -86.20500183105469,-36.90299987792969 C-86.19000244140625,-36.90700149536133 -86.19499969482422,-36.91999816894531 -86.19999694824219,-36.933998107910156 C-83.66100311279297,-40.96200180053711 -80.38200378417969,-44.63100051879883 -76.30599975585938,-47.82099914550781 C-71.75900268554688,-51.41899871826172 -66.20099639892578,-54.404998779296875 -59.595001220703125,-56.57699966430664 C-42.2130012512207,-62.28099822998047 -26.992000579833984,-58.237998962402344 -15.475000381469727,-51.974998474121094 C-9.166000366210938,-48.54999923706055 -3.9560000896453857,-44.472999572753906 -0.1080000028014183,-40.96900177001953z"></path></g></g><g opacity="1" transform="matrix(1,0,0,1,95,0)"><g opacity="0.25" transform="matrix(1,0,0,1,0,0)"><path fill="url(#__lottie_element_11522)" fill-opacity="1" d=" M-7.922999858856201,-40.96900177001953 C-7.922999858856201,-40.96900177001953 -7.919000148773193,-40.95500183105469 -7.919000148773193,-40.95500183105469 C-6.418000221252441,-36.40299987792969 -5.769999980926514,-38.69900131225586 -5.565000057220459,-33.58599853515625 C-4.5,-7.0329999923706055 -22.75200080871582,15.246999740600586 -46.34299850463867,16.18899917602539 C-61.73500061035156,16.804000854492188 -75.56600189208984,8.180000305175781 -83.63099670410156,-5.249000072479248 C-89.04399871826172,-17.632999420166016 -90.02400207519531,-24.636999130249023 -86.53700256347656,-36.90299987792969 C-86.52300262451172,-36.90700149536133 -86.52799987792969,-36.91999816894531 -86.53199768066406,-36.933998107910156 C-84.21399688720703,-40.96200180053711 -81.2030029296875,-44.611000061035156 -77.4990005493164,-47.82099914550781 C-73.34700012207031,-51.41899871826172 -68.27300262451172,-54.409000396728516 -62.2400016784668,-56.57699966430664 C-46.36899948120117,-62.28099822998047 -32.47600173950195,-58.22999954223633 -21.954999923706055,-51.974998474121094 C-16.194000244140625,-48.54999923706055 -11.437000274658203,-44.472999572753906 -7.922999858856201,-40.96900177001953z"></path></g></g><g opacity="1" transform="matrix(1,0,0,1,0,0)"><path stroke-linecap="round" stroke-linejoin="round" fill-opacity="0" stroke="rgb(255,255,255)" stroke-opacity="1" stroke-width="6" d=" M54.62900161743164,-41.55699920654297 C54.62900161743164,-41.55699920654297 56.57600021362305,-41.37200164794922 59.35599899291992,-40.231998443603516"></path></g><g opacity="1" transform="matrix(1,0,0,1,0,0)"><path stroke-linecap="round" stroke-linejoin="round" fill-opacity="0" stroke="rgb(176,0,33)" stroke-opacity="1" stroke-width="8" d=" M49.000999450683594,-61.638999938964844 C18.785999298095703,-61.638999938964844 7.3470001220703125,-36.79499816894531 4.498000144958496,-28.98699951171875 C4.25,-28.30699920654297 3.2890000343322754,-28.325000762939453 3.066999912261963,-29.014999389648438 C0.5450000166893005,-36.85499954223633 -9.928000450134277,-61.638999938964844 -41.53300094604492,-61.638999938964844 C-81.13600158691406,-61.638999938964844 -94.50399780273438,-21.52400016784668 -90.38999938964844,0.5899999737739563 C-86.2760009765625,22.70400047302246 -66.71299743652344,57.15999984741211 3.7339999675750732,113.73200225830078 C74.18099975585938,57.15999984741211 93.74400329589844,22.70400047302246 97.85800170898438,0.5899999737739563 C101.97200012207031,-21.52400016784668 88.60399627685547,-61.638999938964844 49.000999450683594,-61.638999938964844z"></path></g></g></g></g></svg>