<svg xmlns="http://www.w3.org/2000/svg" viewBox="0 0 512 512" width="512" height="512" style="width: 100%; height: 100%; transform: translate3d(0,0,0);" preserveAspectRatio="xMidYMid meet"><defs><clipPath id="__lottie_element_11577"><rect width="512" height="512" x="0" y="0"></rect></clipPath></defs><g clip-path="url(#__lottie_element_11577)"><g style="display: block;" transform="matrix(1,0,0,1,246.57000732421875,333.22601318359375)" opacity="1"><g opacity="1" transform="matrix(1,0,0,1,0,0)"><path fill="rgb(255,209,64)" fill-opacity="1" d=" M109.04100036621094,-105.84700012207031 C115.83100128173828,-73.56300354003906 130.125,-12.866000175476074 114.16999816894531,40.69499969482422 C98.21600341796875,94.25700378417969 80.0999984741211,127.86199951171875 13.314000129699707,128.1649932861328 C-53.301998138427734,128.4669952392578 -86.97100067138672,103.35700225830078 -104.06500244140625,61.777000427246094 C-115.43000030517578,34.13399887084961 -127.09300231933594,-44.7400016784668 -118.4280014038086,-91.1969985961914 C-57.56999969482422,-94.22599792480469 101.62999725341797,-141.0850067138672 109.04100036621094,-105.84700012207031z"></path></g></g><g style="display: block;" transform="matrix(1,0,0,1,271.65399169921875,358.29901123046875)" opacity="1"><g opacity="1" transform="matrix(1,0,0,1,0,0)"><path fill="rgb(255,177,57)" fill-opacity="1" d=" M26.434999465942383,-17.17099952697754 C26.434999465942383,-17.17099952697754 -1.628999948501587,-16.26099967956543 -21.729000091552734,23.288000106811523 C-27.488000869750977,34.61899948120117 -30.195999145507812,11.482000350952148 -16.437999725341797,-10.062000274658203 C-0.6710000038146973,-34.75199890136719 20.533000946044922,-26.198999404907227 26.434999465942383,-17.17099952697754z"></path></g></g><g style="display: block;" transform="matrix(1,0,0,1,307.8949890136719,276.6499938964844)" opacity="1"><g opacity="1" transform="matrix(1,0,0,1,0,0)"><path fill="rgb(255,177,57)" fill-opacity="1" d=" M-59.89099884033203,-30.469999313354492 C-59.89099884033203,-30.469999313354492 -44.25199890136719,-27.465999603271484 -28.038000106811523,-30.469999313354492 C-11.824000358581543,-33.4739990234375 11.795000076293945,-35.65399932861328 57.27000045776367,2.4749999046325684 C57.27000045776367,2.4749999046325684 59.89099884033203,31.95199966430664 59.89099884033203,31.95199966430664 C59.89099884033203,31.95199966430664 -54.09199905395508,2.4749999046325684 -54.09199905395508,2.4749999046325684 C-54.09199905395508,2.4749999046325684 -59.89099884033203,-30.469999313354492 -59.89099884033203,-30.469999313354492z"></path></g></g><g style="display: block;" transform="matrix(1,0,0,1,251.39700317382812,360.7340087890625)" opacity="1"><g opacity="1" transform="matrix(1,0,0,1,0,0)"><path fill="rgb(255,177,57)" fill-opacity="1" d=" M122.01599884033203,-6.965000152587891 C122.85299682617188,-0.984000027179718 122.76599884033203,4.554999828338623 122.76599884033203,4.554999828338623 C116.22599792480469,33.29499816894531 100.35299682617188,58.26599884033203 72.08599853515625,82.25499725341797 C72.06600189208984,82.2750015258789 72.0459976196289,82.28500366210938 72.0260009765625,82.30500030517578 C57.555999755859375,94.03500366210938 37.66600036621094,100.5250015258789 8.486000061035156,100.65499877929688 C-58.124000549316406,100.95500183105469 -91.79399871826172,75.84500122070312 -108.89399719238281,34.26499938964844 C-118.8239974975586,10.114999771118164 -128.98399353027344,-53.14500045776367 -125.60399627685547,-99.7249984741211 C-107.10399627685547,-101.4749984741211 -80.08399963378906,-103.41899871826172 -44.67399978637695,-94.82499694824219 C-13.397000312805176,-87.23400115966797 -16.2450008392334,-66.0250015258789 -16.2450008392334,-66.0250015258789 C-45.02199935913086,-38.98400115966797 -66.23400115966797,-61.73500061035156 -66.23400115966797,-61.73500061035156 C-85.66400146484375,-42.435001373291016 -111.11399841308594,-56.30500030517578 -111.11399841308594,-56.30500030517578 C-108.38200378417969,5.201000213623047 -88.36100006103516,64.54900360107422 -7.827000141143799,72.0530014038086 C58.85300064086914,78.26599884033203 104.10299682617188,42.01599884033203 122.01599884033203,-6.965000152587891z"></path></g></g><g style="display: block;" transform="matrix(1,0,0,1,246.57000732421875,333.22601318359375)" opacity="1"><g opacity="1" transform="matrix(1,0,0,1,0,0)"><path stroke-linecap="round" stroke-linejoin="round" fill-opacity="0" stroke="rgb(247,126,65)" stroke-opacity="1" stroke-width="8" d=" M114.23400115966797,-80.66999816894531 C117.56999969482422,-63.268001556396484 120.76799774169922,-42.51499938964844 121.34700012207031,-20.75 C121.88500213623047,-0.515999972820282 120.15799713134766,20.591999053955078 114.16999816894531,40.69499969482422 C104.64399719238281,72.6760025024414 98.18000030517578,125.52400207519531 13.314000129699707,128.1649932861328 C-53.270999908447266,130.23699951171875 -86.97100067138672,103.35700225830078 -104.06500244140625,61.777000427246094 C-115.43000030517578,34.13399887084961 -127.09300231933594,-44.7400016784668 -118.4280014038086,-91.1969985961914 C-113.84700012207031,-115.75800323486328 -76.11199951171875,-83.6259994506836 -13.779999732971191,-83.15499877929688"></path></g></g><g style="display: block;" transform="matrix(1,0,0,1,256,256)" opacity="1"><g opacity="1" transform="matrix(1,0,0,1,-9.75,77)"><path fill="rgb(255,177,57)" fill-opacity="1" d=" M-44.31999969482422,-43.97600173950195 C-46.19499969482422,-24.72599983215332 -33.84000015258789,-0.5709999799728394 -7.195000171661377,0.5239999890327454 C11.055000305175781,1.2740000486373901 44.93000030517578,5.02400016784668 57.18000030517578,-14.47599983215332 C58.44200134277344,-16.483999252319336 -42.09600067138672,-66.81400299072266 -44.31999969482422,-43.97600173950195z"></path></g></g><g style="display: block;" transform="matrix(1,0,0,1,0.001007080078125,0)" opacity="1"><g opacity="1" transform="matrix(1,0,0,1,344.13800048828125,153.23399353027344)"><path fill="rgb(255,209,64)" fill-opacity="1" d=" M16.54400062561035,98.69200134277344 C12.241999626159668,77.77799987792969 26.240999221801758,24.780000686645508 31.902999877929688,-5.840000152587891 C40.71799850463867,-53.507999420166016 54.439998626708984,-96.802001953125 23.871000289916992,-102.10099792480469 C-4.168000221252441,-106.96199798583984 -6.926000118255615,-77.87999725341797 -18.149999618530273,-29.20800018310547 C-32.584999084472656,33.388999938964844 -33.736000061035156,53.77299880981445 -42.72999954223633,53.77299880981445 C-42.72999954223633,53.77299880981445 -43.21200180053711,75.1500015258789 -21.086999893188477,92.89600372314453 C1.0379999876022339,110.64199829101562 16.54400062561035,98.69200134277344 16.54400062561035,98.69200134277344z"></path></g><g opacity="1" transform="matrix(1,0,0,1,353.2770080566406,110.48899841308594)"><path fill="rgb(255,223,121)" fill-opacity="1" d=" M32.64799880981445,-16.913000106811523 C32.64799880981445,-16.913000106811523 27.312999725341797,-26.166000366210938 27.312999725341797,-26.166000366210938 C27.312999725341797,-26.166000366210938 30.538000106811523,-47.92599868774414 11.489999771118164,-45.637001037597656 C-9.194000244140625,-43.1510009765625 -16.850000381469727,8.842000007629395 -33.58700180053711,59.880001068115234 C-33.59700012207031,59.90999984741211 -29.381999969482422,23.677000045776367 -29.392000198364258,23.707000732421875 C-28.722000122070312,20.767000198364258 -28.02199935913086,16.707000732421875 -27.29199981689453,13.536999702453613 C-16.062000274658203,-35.132999420166016 -13.302000045776367,-64.21299743652344 14.727999687194824,-59.35300064086914 C32.8380012512207,-56.2130012512207 35.40800094604492,-39.733001708984375 32.64799880981445,-16.913000106811523z"></path></g><g opacity="1" transform="matrix(1,0,0,1,369.34100341796875,149.32400512695312)"><path fill="rgb(255,177,57)" fill-opacity="1" d=" M6.701000213623047,-1.9270000457763672 C1.4609999656677246,26.433000564575195 -10.939000129699707,73.99299621582031 -9.319000244140625,97.46299743652344 C-10.14900016784668,97.29299926757812 -12.468000411987305,99.45700073242188 -12.862000465393066,98.40899658203125 C-19.67099952697754,80.30899810791016 -17.400999069213867,65.65699768066406 -16.06399917602539,58.47100067138672 C-7.656000137329102,13.289999961853027 -6.658999919891357,12.4399995803833 -2.0290000438690186,-10.51099967956543 C12.659000396728516,-83.3239974975586 9.805000305175781,-90.74199676513672 -5.379000186920166,-95.65699768066406 C-6.129000186920166,-95.9000015258789 -6.218999862670898,-98.6969985961914 -6.218999862670898,-98.6969985961914 C-4.678999900817871,-98.65699768066406 -3.049999952316284,-98.48699951171875 -1.3300000429153442,-98.18699645996094 C29.239999771118164,-92.88700103759766 15.51099967956543,-49.59700012207031 6.701000213623047,-1.9270000457763672z"></path></g></g><g style="display: block;" transform="matrix(1,0,0,1,363.95001220703125,64.52801513671875)" opacity="1"><g opacity="1" transform="matrix(1,0,0,1,0,0)"><path stroke-linecap="round" stroke-linejoin="round" fill-opacity="0" stroke="rgb(255,255,255)" stroke-opacity="1" stroke-width="6" d=" M-1.840999960899353,0.24500000476837158 C-1.840999960899353,0.24500000476837158 -0.4650000035762787,-0.3569999933242798 1.840999960899353,-0.22599999606609344"></path></g></g><g style="display: block;" transform="matrix(1,0,0,1,0.0000152587890625,0)" opacity="1"><g opacity="1" transform="matrix(1,0,0,1,258.3349914550781,136.72000122070312)"><path fill="rgb(255,209,64)" fill-opacity="1" d=" M-18.299999237060547,67.25700378417969 C-18.299999237060547,67.25700378417969 -25.003000259399414,35.76900100708008 -32.26100158691406,3.7179999351501465 C-42.07400131225586,-39.61600112915039 -56.38399887084961,-77.34100341796875 -26.836000442504883,-83.77200317382812 C1.8020000457763672,-90.00599670410156 7.959000110626221,-49.797000885009766 18.177000045776367,-9.892000198364258 C33.54800033569336,50.13199996948242 35.722999572753906,70.28700256347656 43.073001861572266,70.28700256347656 C43.073001861572266,70.28700256347656 54.54999923706055,92.28199768066406 16.96500015258789,91.6449966430664 C-20.6200008392334,91.00800323486328 -18.299999237060547,67.25700378417969 -18.299999237060547,67.25700378417969z"></path></g><g opacity="1" transform="matrix(1,0,0,1,246.90899658203125,103.48699951171875)"><path fill="rgb(255,223,121)" fill-opacity="1" d=" M32.619998931884766,50.99599838256836 C20.066999435424805,13.267999649047852 7.23199987411499,-42.40299987792969 -15.284000396728516,-35.85100173950195 C-29.381999969482422,-31.74799919128418 -24.398000717163086,-13.73799991607666 -24.447999954223633,-13.118000030517578 C-38.11000061035156,-25.31399917602539 -34.33399963378906,-46.42100143432617 -15.413999557495117,-50.54100036621094 C11.305999755859375,-56.35100173950195 25.30699920654297,-5.610000133514404 32.619998931884766,50.99599838256836z"></path></g><g opacity="1" transform="matrix(1,0,0,1,234.88600158691406,137.1580047607422)"><path fill="rgb(255,177,57)" fill-opacity="1" d=" M12.675999641418457,78.5199966430664 C3.9059998989105225,73.5 5.145999908447266,66.81999969482422 5.145999908447266,66.81999969482422 C5.145999908447266,66.81999969482422 -1.5549999475479126,35.33000183105469 -8.8149995803833,3.2799999713897705 C-17.174999237060547,-33.650001525878906 -28.804000854492188,-66.5 -13.763999938964844,-79.38999938964844 C-13.763999938964844,-79.38999938964844 -10.291999816894531,-78.11199951171875 -10.732000350952148,-77.30400085449219 C-17.143999099731445,-65.52899932861328 -9.907999992370605,-43.43199920654297 1.8910000324249268,1.3350000381469727 C8.36299991607666,27.591999053955078 16.81800079345703,60.85300064086914 21.0049991607666,76.302001953125 C21.573999404907227,78.4000015258789 14.890999794006348,80.6760025024414 12.675999641418457,78.5199966430664z"></path></g></g><g style="display: block;" transform="matrix(1,0,0,1,300.8079833984375,194.23500061035156)" opacity="1"><g opacity="1" transform="matrix(1,0,0,1,0,0)"><path fill="rgb(255,177,57)" fill-opacity="1" d=" M-17.05500030517578,-20.829999923706055 C-17.05500030517578,-20.829999923706055 -14.315999984741211,26.599000930786133 0.8519999980926514,26.599000930786133 C19.145999908447266,26.599000930786133 16.975000381469727,-26.599000930786133 16.975000381469727,-26.599000930786133 C16.975000381469727,-26.599000930786133 11.42300033569336,6.03000020980835 4.830999851226807,10.902000427246094 C-1.7610000371932983,15.77400016784668 -9.012999534606934,4.841000080108643 -17.05500030517578,-20.829999923706055z"></path></g></g><g style="display: block;" transform="matrix(1,0,0,1,0.001007080078125,0)" opacity="1"><g opacity="1" transform="matrix(1,0,0,1,343.8550109863281,156.1199951171875)"><path stroke-linecap="round" stroke-linejoin="round" fill-opacity="0" stroke="rgb(247,126,65)" stroke-opacity="1" stroke-width="8" d=" M18.60300064086914,105.46499633789062 C12.736000061035156,78.69400024414062 17.29199981689453,73.12999725341797 32.18600082397461,-8.72599983215332 C40.86399841308594,-56.41899871826172 53.415000915527344,-100.20099639892578 24.155000686645508,-104.98699951171875 C-3.928999900817871,-109.58100128173828 -6.642000198364258,-80.76599884033203 -17.865999221801758,-32.09400177001953 C-32.30099868774414,30.503000259399414 -33.452999114990234,50.887001037597656 -42.446998596191406,50.887001037597656"></path></g></g><g style="display: block;" transform="matrix(1,0,0,1,0.0000152587890625,0)" opacity="1"><g opacity="1" transform="matrix(1,0,0,1,257.62701416015625,129.656005859375)"><path stroke-linecap="round" stroke-linejoin="round" fill-opacity="0" stroke="rgb(247,126,65)" stroke-opacity="1" stroke-width="8" d=" M43.78099822998047,77.35099792480469 C36.430999755859375,77.35099792480469 34.25600051879883,57.19599914550781 18.885000228881836,-2.828000068664551 C8.666999816894531,-42.733001708984375 2.509999990463257,-82.94300079345703 -26.128000259399414,-76.70899963378906 C-55.67599868774414,-70.27799987792969 -41.36600112915039,-32.553001403808594 -31.55299949645996,10.781000137329102 C-24.295000076293945,42.832000732421875 -17.591999053955078,74.32099914550781 -17.591999053955078,74.32099914550781"></path></g></g><g style="display: block;" transform="matrix(1,0,0,1,260.2200012207031,226.55599975585938)" opacity="1"><g opacity="1" transform="matrix(1,0,0,1,0,0)"><path fill="rgb(255,177,57)" fill-opacity="1" d=" M-15.925999641418457,-22.97599983215332 C-15.925999641418457,-22.97599983215332 -10.579000473022461,-37.50600051879883 -9.677000045776367,-33.512001037597656 C-6.732999801635742,-20.4689998626709 -1.8849999904632568,-2.6689999103546143 1.8380000591278076,6.855000019073486 C4.289999961853027,13.128000259399414 8.625,19.774999618530273 23.533000946044922,18.96299934387207 C23.533000946044922,18.96299934387207 8.225000381469727,37.551998138427734 -13.243000030517578,33.67599868774414 C-34.71099853515625,29.799999237060547 -15.925999641418457,-22.97599983215332 -15.925999641418457,-22.97599983215332z"></path></g></g><g style="display: block;" transform="matrix(1,0,0,1,0,0)" opacity="1"><g opacity="1" transform="matrix(1,0,0,1,156.99600219726562,245.10800170898438)"><path fill="rgb(255,209,64)" fill-opacity="1" d=" M4.306000232696533,44.81399917602539 C-19.500999450683594,48.053001403808594 -28.87299919128418,22.152000427246094 -28.854000091552734,-3.0789999961853027 C-28.836000442504883,-27.02199935913086 -23.299999237060547,-43.69599914550781 -2.3299999237060547,-45.00600051879883 C20.624000549316406,-46.439998626708984 28.44700050354004,-29.20199966430664 28.836999893188477,-1.5410000085830688 C29.226999282836914,26.1200008392334 23.051000595092773,42.263999938964844 4.306000232696533,44.81399917602539z"></path></g><g opacity="1" transform="matrix(1,0,0,1,156.99600219726562,262.4469909667969)"><path fill="rgb(255,177,57)" fill-opacity="1" d=" M3.3589999675750732,27.013999938964844 C-22.16900062561035,27.798999786376953 -28.874000549316406,4.811999797821045 -28.854000091552734,-20.417999267578125 C-28.854000091552734,-22.368000030517578 -28.81399917602539,-24.26799964904785 -28.733999252319336,-26.118000030517578 C-28.06399917602539,-18.99799919128418 -22.94099998474121,8.109999656677246 1.246000051498413,8.947999954223633 C27.159000396728516,9.845999717712402 28.166000366210938,-27.74799919128418 28.166000366210938,-27.74799919128418 C28.166000366210938,-27.74799919128418 28.54599952697754,-26.097999572753906 28.54599952697754,-26.097999572753906 C28.54599952697754,-26.097999572753906 28.54599952697754,-26.06800079345703 28.54599952697754,-26.06800079345703 C28.70599937438965,-23.757999420166016 28.805999755859375,-21.357999801635742 28.836000442504883,-18.878000259399414 C29.22599983215332,8.781999588012695 22.26300048828125,26.433000564575195 3.3589999675750732,27.013999938964844z"></path></g><g opacity="1" transform="matrix(1,0,0,1,156.9969940185547,231.01199340820312)"><path fill="rgb(255,223,121)" fill-opacity="1" d=" M27.81599998474121,30.996000289916992 C30.016000747680664,12.965999603271484 21.393999099731445,-18.400999069213867 -1.8240000009536743,-17.134000778198242 C-25.40399932861328,-15.847999572753906 -28.56399917602539,18.63599967956543 -28.56399917602539,18.63599967956543 C-28.56399917602539,18.63599967956543 -28.573999404907227,18.625999450683594 -28.573999404907227,18.625999450683594 C-28.763999938964844,16.106000900268555 -28.854000091552734,13.555999755859375 -28.854000091552734,11.015999794006348 C-28.833999633789062,-12.923999786376953 -23.304000854492188,-29.604000091552734 -2.3340001106262207,-30.913999557495117 C20.625999450683594,-32.34400177001953 28.445999145507812,-15.104000091552734 28.836000442504883,12.555999755859375 C28.93600082397461,19.426000595092773 28.625999450683594,25.586000442504883 27.81599998474121,30.996000289916992z"></path></g><g opacity="1" transform="matrix(1,0,0,1,156.99600219726562,245.10800170898438)"><path stroke-linecap="butt" stroke-linejoin="miter" fill-opacity="0" stroke-miterlimit="10" stroke="rgb(247,126,65)" stroke-opacity="1" stroke-width="8" d=" M4.306000232696533,44.81399917602539 C-19.500999450683594,48.053001403808594 -28.87299919128418,22.152000427246094 -28.854000091552734,-3.0789999961853027 C-28.836000442504883,-27.02199935913086 -23.299999237060547,-43.69599914550781 -2.3299999237060547,-45.00600051879883 C20.624000549316406,-46.439998626708984 28.44700050354004,-29.20199966430664 28.836999893188477,-1.5410000085830688 C29.226999282836914,26.1200008392334 23.051000595092773,42.263999938964844 4.306000232696533,44.81399917602539z"></path></g><g opacity="1" transform="matrix(1,0,0,1,158.52200317382812,273.3909912109375)"><path stroke-linecap="round" stroke-linejoin="round" fill-opacity="0" stroke="rgb(247,126,65)" stroke-opacity="1" stroke-width="8" d=" M-5.368000030517578,-0.3569999933242798 C-5.368000030517578,-0.3569999933242798 -0.05900000035762787,1.2519999742507935 5.368000030517578,-0.3569999933242798"></path></g></g><g style="display: block;" transform="matrix(1,0,0,1,0,0)" opacity="1"><g opacity="1" transform="matrix(1,0,0,1,216.58399963378906,239.50599670410156)"><path fill="rgb(255,209,64)" fill-opacity="1" d=" M-5.380000114440918,-52.41600036621094 C-25.64900016784668,-50.17599868774414 -34.15399932861328,-31.034000396728516 -30.64699935913086,6.610000133514404 C-27.36199951171875,41.87099838256836 -13.515000343322754,52.69499969482422 3.490000009536743,52.65399932861328 C18.634000778198242,52.61800003051758 31.31599998474121,39.7400016784668 31.415000915527344,6.689000129699707 C31.5049991607666,-23.514999389648438 24.740999221801758,-55.744998931884766 -5.380000114440918,-52.41600036621094z"></path></g><g opacity="1" transform="matrix(1,0,0,1,216.38699340820312,261.58599853515625)"><path fill="rgb(255,177,57)" fill-opacity="1" d=" M27.667999267578125,-30.572999954223633 C35.21699905395508,13.666000366210938 18.834999084472656,30.542999267578125 3.684999942779541,30.572999954223633 C-11.944999694824219,30.613000869750977 -31.22100067138672,11.878999710083008 -29.454999923706055,-23.409000396728516 C-26.915000915527344,-18.999000549316406 -26.481000900268555,8.359999656677246 2.2690000534057617,6.625999927520752 C31.30299949645996,4.875 27.667999267578125,-30.572999954223633 27.667999267578125,-30.572999954223633z"></path></g><g opacity="1" transform="matrix(1,0,0,1,218.57200622558594,270.83599853515625)"><path stroke-linecap="round" stroke-linejoin="round" fill-opacity="0" stroke="rgb(247,126,65)" stroke-opacity="1" stroke-width="8" d=" M-5.364999771118164,-0.06800000369548798 C-5.364999771118164,-0.06800000369548798 0,1.3459999561309814 5.364999771118164,-0.45899999141693115"></path></g><g opacity="1" transform="matrix(1,0,0,1,216.5850067138672,221.11500549316406)"><path fill="rgb(255,223,121)" fill-opacity="1" d=" M31.417999267578125,25.083999633789062 C31.417999267578125,25.083999633789062 24.51799964904785,-19.055999755859375 -1.0720000267028809,-19.09600067138672 C-26.66200065612793,-19.13599967956543 -29.031999588012695,18.40399932861328 -29.461999893188477,34.23400115966797 C-29.461999893188477,34.23400115966797 -29.461999893188477,34.263999938964844 -29.461999893188477,34.263999938964844 C-29.941999435424805,31.384000778198242 -30.341999053955078,28.304000854492188 -30.652000427246094,25.003999710083008 C-34.152000427246094,-12.645999908447266 -25.652000427246094,-31.785999298095703 -5.381999969482422,-34.0260009765625 C24.738000869750977,-37.35599899291992 31.507999420166016,-5.125999927520752 31.417999267578125,25.083999633789062z"></path></g><g opacity="1" transform="matrix(1,0,0,1,216.58399963378906,239.50599670410156)"><path stroke-linecap="butt" stroke-linejoin="miter" fill-opacity="0" stroke-miterlimit="10" stroke="rgb(247,126,65)" stroke-opacity="1" stroke-width="8" d=" M-5.380000114440918,-52.41600036621094 C-25.64900016784668,-50.17599868774414 -34.15399932861328,-31.034000396728516 -30.64699935913086,6.610000133514404 C-27.36199951171875,41.87099838256836 -13.515000343322754,52.69499969482422 3.490000009536743,52.65399932861328 C18.634000778198242,52.61800003051758 31.31599998474121,39.7400016784668 31.415000915527344,6.689000129699707 C31.5049991607666,-23.514999389648438 24.740999221801758,-55.744998931884766 -5.380000114440918,-52.41600036621094z"></path></g></g><g style="display: block;" transform="matrix(1,0,0,1,0,0)" opacity="1"><g opacity="1" transform="matrix(1,0,0,1,289.2590026855469,353.34100341796875)"><path fill="rgb(255,209,64)" fill-opacity="1" d=" M5.664999961853027,-10.949999809265137 C0.7300000190734863,-21.718000411987305 -5.551000118255615,-29.792999267578125 -14.074999809265137,-32.0359992980957 C-22.599000930786133,-34.27899932861328 -43.8849983215332,-30.325000762939453 -62.97800064086914,-38.76599884033203 C-80.52799987792969,-46.525001525878906 -95.12100219726562,-73.05599975585938 -85.16699981689453,-85.8740005493164 C-77.51599884033203,-95.72599792480469 -53.555999755859375,-89.91200256347656 -33.367000579833984,-90.36100006103516 C-13.178000450134277,-90.80999755859375 -5.373000144958496,-93.42400360107422 6.632999897003174,-91.66799926757812 C18.638999938964844,-89.91200256347656 73.37200164794922,-69.78399658203125 85.07599639892578,-42.35499954223633 C95.03800201416016,-19.009000778198242 85.8479995727539,44.79199981689453 32.4370002746582,85.14199829101562 C32.4370002746582,85.14199829101562 5.664999961853027,-10.949999809265137 5.664999961853027,-10.949999809265137z"></path></g><g opacity="1" transform="matrix(1,0,0,1,344.1619873046875,394.2860107421875)"><path fill="rgb(255,177,57)" fill-opacity="1" d=" M-29.913000106811523,26.98900032043457 C-29.913000106811523,26.98900032043457 21.312999725341797,2.5999999046325684 29.913000106811523,-51.31800079345703 C29.913000106811523,-51.31800079345703 31.527999877929688,5.499000072479248 -22.711999893188477,44.94300079345703 C-22.711999893188477,44.94300079345703 -29.913000106811523,26.98900032043457 -29.913000106811523,26.98900032043457z"></path></g><g opacity="1" transform="matrix(1,0,0,1,289.2590026855469,332.40399169921875)"><path fill="rgb(255,223,121)" fill-opacity="1" d=" M67.6259994506836,71.33100128173828 C81.26599884033203,32.680999755859375 86.13300323486328,8.244999885559082 76.40299987792969,-12.121999740600586 C66.15399932861328,-33.57600021362305 23.236000061035156,-62.25899887084961 -11.814000129699707,-58.308998107910156 C-46.86399841308594,-54.3489990234375 -60.45399856567383,-62.67900085449219 -73.74400329589844,-57.308998107910156 C-86.89399719238281,-51.999000549316406 -72.14399719238281,-24.118999481201172 -71.8239974975586,-23.479000091552734 C-84.89399719238281,-34.479000091552734 -93.3740005493164,-54.36899948120117 -85.16400146484375,-64.93900299072266 C-77.51399993896484,-74.78900146484375 -53.55400085449219,-68.97899627685547 -33.36399841308594,-69.41899871826172 C-13.173999786376953,-69.86900329589844 -5.374000072479248,-72.48899841308594 6.636000156402588,-70.72899627685547 C18.63599967956543,-68.97899627685547 73.3759994506836,-48.8489990234375 85.07599639892578,-21.41900062561035 C92.08599853515625,-4.988999843597412 88.80599975585938,35.01100158691406 67.6259994506836,71.33100128173828z"></path></g><g opacity="1" transform="matrix(1,0,0,1,249.77699279785156,308.60198974609375)"><path fill="rgb(255,177,57)" fill-opacity="1" d=" M-48.80699920654297,-32.9739990234375 C-48.80699920654297,-32.9739990234375 -41.29499816894531,-2.6070001125335693 -8.555000305175781,-2.194000005722046 C15.883999824523926,-1.8860000371932983 52.090999603271484,-7.436999797821045 48.926998138427734,32.9739990234375 C48.926998138427734,32.9739990234375 36.082000732421875,13.54800033569336 25.406999588012695,12.70199966430664 C14.732000350952148,11.855999946594238 -9.387999534606934,12.98799991607666 -32.34199905395508,0.32199999690055847 C-52.79999923706055,-10.967000007629395 -48.80699920654297,-32.9739990234375 -48.80699920654297,-32.9739990234375z"></path></g><g opacity="1" transform="matrix(1,0,0,1,288.6400146484375,353.34100341796875)"><path stroke-linecap="round" stroke-linejoin="round" fill-opacity="0" stroke="rgb(247,126,65)" stroke-opacity="1" stroke-width="8" d=" M31.430999755859375,92.26699829101562 C84.84200286865234,51.91699981689453 95.65799713134766,-19.009000778198242 85.69599914550781,-42.35499954223633 C73.99199676513672,-69.78399658203125 19.257999420166016,-89.91200256347656 7.251999855041504,-91.66799926757812 C-4.754000186920166,-93.42400360107422 -12.559000015258789,-90.80999755859375 -32.74800109863281,-90.36100006103516 C-52.9370002746582,-89.91200256347656 -76.35199737548828,-95.2770004272461 -84.5479965209961,-85.8740005493164 C-94.70999908447266,-74.21499633789062 -87.6709976196289,-46.34400177001953 -62.35900115966797,-38.76599884033203 C-42.361000061035156,-32.77899932861328 -21.979999542236328,-34.27899932861328 -13.456000328063965,-32.0359992980957 C-4.932000160217285,-29.792999267578125 1.350000023841858,-21.718000411987305 6.284999847412109,-10.949999809265137"></path></g><g opacity="1" transform="matrix(1,0,0,1,289.2590026855469,332.40399169921875)"><path stroke-linecap="round" stroke-linejoin="round" fill-opacity="0" stroke="rgb(255,255,255)" stroke-opacity="1" stroke-width="6" d=" M20.358999252319336,-52.77000045776367 C15.569999694824219,-54.56100082397461 10.76200008392334,-56.00199890136719 6.053999900817871,-56.992000579833984"></path></g><g opacity="1" transform="matrix(1,0,0,1,289.2590026855469,332.40399169921875)"><path stroke-linecap="round" stroke-linejoin="round" fill-opacity="0" stroke="rgb(255,255,255)" stroke-opacity="1" stroke-width="6" d=" M-7.5229997634887695,-58.50199890136719 C-8.571999549865723,-58.5 -9.609000205993652,-58.46699905395508 -10.630999565124512,-58.4010009765625"></path></g></g></g></svg>