<svg xmlns="http://www.w3.org/2000/svg" viewBox="0 0 512 512" width="512" height="512" style="width: 100%; height: 100%; transform: translate3d(0,0,0);" preserveAspectRatio="xMidYMid meet"><defs><clipPath id="__lottie_element_12051"><rect width="512" height="512" x="0" y="0"></rect></clipPath><linearGradient id="__lottie_element_12070" spreadMethod="pad" gradientUnits="userSpaceOnUse" x1="60.41400146484375" y1="-39.797000885009766" x2="76.29499816894531" y2="-20.94499969482422"><stop offset="0%" stop-color="rgb(55,10,0)"></stop><stop offset="38%" stop-color="rgb(104,48,2)"></stop><stop offset="100%" stop-color="rgb(153,87,4)"></stop></linearGradient><linearGradient id="__lottie_element_12071" spreadMethod="pad" gradientUnits="userSpaceOnUse" x1="-63.74300003051758" y1="-40.01499938964844" x2="-49.167999267578125" y2="-19.201000213623047"><stop offset="0%" stop-color="rgb(55,10,0)"></stop><stop offset="38%" stop-color="rgb(104,48,2)"></stop><stop offset="100%" stop-color="rgb(153,87,4)"></stop></linearGradient></defs><g clip-path="url(#__lottie_element_12051)"><g style="display: block;" transform="matrix(1.149999976158142,0,0,1.149999976158142,255.34254455566406,325.10845947265625)" opacity="1"><g opacity="1" transform="matrix(1,0,0,1,0,0)"><path fill="rgb(244,172,0)" fill-opacity="1" d=" M1.3830000162124634,-153.48899841308594 C1.3830000162124634,-153.48899841308594 -168.6790008544922,-85.3499984741211 -127.11299896240234,36.03499984741211 C-110.14099884033203,85.5979995727539 -58.44200134277344,92.3740005493164 -54.19200134277344,95.6760025024414 C-36.78200149536133,109.19999694824219 -19.43000030517578,116.2770004272461 1.3830000162124634,116.2770004272461 C22.173999786376953,116.2770004272461 39.792999267578125,108.77400207519531 56.95800018310547,95.6760025024414 C61.23699951171875,92.41100311279297 112.90699768066406,85.5979995727539 129.87899780273438,36.03499984741211 C171.44500732421875,-85.3499984741211 1.3830000162124634,-153.48899841308594 1.3830000162124634,-153.48899841308594z"></path><path stroke-linecap="round" stroke-linejoin="round" fill-opacity="0" stroke="rgb(208,123,0)" stroke-opacity="1" stroke-width="8" d=" M1.3830000162124634,-153.48899841308594 C1.3830000162124634,-153.48899841308594 -168.6790008544922,-85.3499984741211 -127.11299896240234,36.03499984741211 C-110.14099884033203,85.5979995727539 -58.44200134277344,92.3740005493164 -54.19200134277344,95.6760025024414 C-36.78200149536133,109.19999694824219 -19.43000030517578,116.2770004272461 1.3830000162124634,116.2770004272461 C22.173999786376953,116.2770004272461 39.792999267578125,108.77400207519531 56.95800018310547,95.6760025024414 C61.23699951171875,92.41100311279297 112.90699768066406,85.5979995727539 129.87899780273438,36.03499984741211 C171.44500732421875,-85.3499984741211 1.3830000162124634,-153.48899841308594 1.3830000162124634,-153.48899841308594z"></path></g><g opacity="1" transform="matrix(1,0,0,1,0,0)"><g opacity="1" transform="matrix(1,0,0,1,0,0)"><path fill="rgb(255,207,0)" fill-opacity="1" d=" M82.34300231933594,-77.552001953125 C56.41600036621094,-97.10099792480469 24.5,-106.46299743652344 1.8830000162124634,-124.302001953125 C-27.110000610351562,-100.24600219726562 -54.53900146484375,-103.51000213623047 -80.26699829101562,-75.9020004272461 C-93.9209976196289,-61.25 -116.875,-25.43400001525879 -110.30500030517578,17.81599998474121 C-103.74500274658203,61.066001892089844 -68.99700164794922,71.75800323486328 -50.356998443603516,79.0979995727539 C-31.726999282836914,86.4280014038086 -24.66900062561035,99.66799926757812 0.8830000162124634,99.66799926757812 C27.434999465942383,99.66799926757812 35.176998138427734,87.5 51.72999954223633,78.90799713134766 C66.87300109863281,71.0479965209961 103.02300262451172,65.21199798583984 112.54199981689453,22.073999404907227 C121.7040023803711,-19.44499969482422 96.58599853515625,-66.81199645996094 82.34300231933594,-77.552001953125z"></path></g></g></g><g style="display: block;" transform="matrix(1.149999976158142,0,0,1.149999976158142,255.34254455566406,325.10845947265625)" opacity="1"><g opacity="1" transform="matrix(1,0,0,1,0,0)"><g opacity="1" transform="matrix(1,0,0,1,0,0)"><path fill="rgb(255,247,212)" fill-opacity="1" d=" M27.613000869750977,-23.266000747680664 C27.613000869750977,-23.266000747680664 33.137001037597656,-55.56999969482422 61.7140007019043,-55.56700134277344 C88.37799835205078,-55.56399917602539 99.87100219726562,-32.94599914550781 99.87100219726562,-25.82200050354004 C99.87100219726562,-25.82200050354004 89.14099884033203,-7.249000072479248 63.255001068115234,-7.271999835968018 C34.09199905395508,-7.297999858856201 27.613000869750977,-23.266000747680664 27.613000869750977,-23.266000747680664z"></path></g><g opacity="1" transform="matrix(1,0,0,1,0,0)"><g opacity="1" transform="matrix(1,0,0,1,0,0)"><path fill="url(#__lottie_element_12070)" fill-opacity="1" d=" M85.24299621582031,-32.79899978637695 C85.24299621582031,-20.836999893188477 75.5,-11.138999938964844 63.481998443603516,-11.138999938964844 C51.4640007019043,-11.138999938964844 41.72200012207031,-20.836999893188477 41.72200012207031,-32.79899978637695 C41.72200012207031,-44.76100158691406 51.4640007019043,-54.45800018310547 63.481998443603516,-54.45800018310547 C75.5,-54.45800018310547 85.24299621582031,-44.76100158691406 85.24299621582031,-32.79899978637695z"></path></g><g opacity="1" transform="matrix(1,0,0,1,0,0)"><path fill="rgb(23,19,10)" fill-opacity="1" d=" M77.23500061035156,-32.79899978637695 C77.23500061035156,-25.23900032043457 71.0770034790039,-19.108999252319336 63.481998443603516,-19.108999252319336 C55.887001037597656,-19.108999252319336 49.72999954223633,-25.23900032043457 49.72999954223633,-32.79899978637695 C49.72999954223633,-40.35900115966797 55.887001037597656,-46.487998962402344 63.481998443603516,-46.487998962402344 C71.0770034790039,-46.487998962402344 77.23500061035156,-40.35900115966797 77.23500061035156,-32.79899978637695z"></path></g><g opacity="1" transform="matrix(1,0,0,1,0,0)"><path fill="rgb(244,244,244)" fill-opacity="1" d=" M62.263999938964844,-43.534000396728516 C62.263999938964844,-40.66299819946289 59.92499923706055,-38.334999084472656 57.04100036621094,-38.334999084472656 C54.15700149536133,-38.334999084472656 51.819000244140625,-40.66299819946289 51.819000244140625,-43.534000396728516 C51.819000244140625,-46.404998779296875 54.15700149536133,-48.731998443603516 57.04100036621094,-48.731998443603516 C59.92499923706055,-48.731998443603516 62.263999938964844,-46.404998779296875 62.263999938964844,-43.534000396728516z"></path></g><g opacity="1" transform="matrix(1,0,0,1,0,0)"><path stroke-linecap="round" stroke-linejoin="round" fill-opacity="0" stroke="rgb(224,151,5)" stroke-opacity="1" stroke-width="3.5" d=" M79.58499908447266,-26.68000030517578 C77.96800231933594,-21.881999969482422 74.0979995727539,-18.11400032043457 69.22699737548828,-16.618000030517578"></path></g></g><g opacity="1" transform="matrix(1,0,0,1,0,0)"><g opacity="1" transform="matrix(1,0,0,1,0,0)"><path fill="rgb(255,207,0)" fill-opacity="1" d=" M101.19999694824219,-25.82200050354004 C101.19999694824219,-25.82200050354004 94.9010009765625,-57.50899887084961 64.71900177001953,-59.27000045776367 C33.70000076293945,-61.07899856567383 27.204999923706055,-23.95400047302246 27.204999923706055,-23.95400047302246 C27.204999923706055,-23.95400047302246 25.645000457763672,-69.0989990234375 64.05999755859375,-67.4540023803711 C99.08200073242188,-65.9540023803711 99.52300262451172,-37.54100036621094 101.19999694824219,-25.82200050354004z"></path></g><g opacity="1" transform="matrix(1,0,0,1,0,0)"><path fill="rgb(255,207,0)" fill-opacity="1" d=" M100.40699768066406,-25.386999130249023 C100.40699768066406,-25.386999130249023 91.25599670410156,-4.744999885559082 64.69100189208984,-4.995999813079834 C29.365999221801758,-5.328999996185303 27.514999389648438,-25.41699981689453 27.514999389648438,-25.41699981689453 C27.514999389648438,-25.41699981689453 29.881999969482422,1.2999999523162842 64.197998046875,1.4190000295639038 C94.86499786376953,1.524999976158142 98.7300033569336,-13.668000221252441 100.40699768066406,-25.386999130249023z"></path></g></g><g opacity="1" transform="matrix(1,0,0,1,0,0)"><path fill="rgb(133,63,0)" fill-opacity="1" d=" M27.895999908447266,-28.200000762939453 C27.895999908447266,-28.200000762939453 34.40700149536133,-60.72100067138672 62.39699935913086,-60.428001403808594 C90.38600158691406,-60.1349983215332 98.74600219726562,-33.72200012207031 99.87100219726562,-25.82200050354004 C99.87100219726562,-25.82200050354004 94.29299926757812,-57.599998474121094 62.39699935913086,-57.95800018310547 C35.98099899291992,-58.25400161743164 27.895999908447266,-28.200000762939453 27.895999908447266,-28.200000762939453z"></path><path stroke-linecap="round" stroke-linejoin="round" fill-opacity="0" stroke="rgb(133,63,0)" stroke-opacity="1" stroke-width="2" d=" M27.895999908447266,-28.200000762939453 C27.895999908447266,-28.200000762939453 34.40700149536133,-60.72100067138672 62.39699935913086,-60.428001403808594 C90.38600158691406,-60.1349983215332 98.74600219726562,-33.72200012207031 99.87100219726562,-25.82200050354004 C99.87100219726562,-25.82200050354004 94.29299926757812,-57.599998474121094 62.39699935913086,-57.95800018310547 C35.98099899291992,-58.25400161743164 27.895999908447266,-28.200000762939453 27.895999908447266,-28.200000762939453z"></path></g></g><g opacity="1" transform="matrix(1,0,0,1,0,0)"><g opacity="1" transform="matrix(1,0,0,1,0,0)"><path fill="rgb(255,247,212)" fill-opacity="1" d=" M-24.413999557495117,-23.266000747680664 C-24.413999557495117,-23.266000747680664 -29.951000213623047,-53.28099822998047 -58.52799987792969,-53.27799987792969 C-85.19200134277344,-53.275001525878906 -96.6719970703125,-32.94599914550781 -96.6719970703125,-25.82200050354004 C-96.6719970703125,-25.82200050354004 -85.94200134277344,-7.249000072479248 -60.055999755859375,-7.271999835968018 C-30.89299964904785,-7.297999858856201 -24.413999557495117,-23.266000747680664 -24.413999557495117,-23.266000747680664z"></path></g><g opacity="1" transform="matrix(1,0,0,1,0,0)"><g opacity="1" transform="matrix(1,0,0,1,0,0)"><path fill="url(#__lottie_element_12071)" fill-opacity="1" d=" M-38.52299880981445,-32.79899978637695 C-38.52299880981445,-20.836999893188477 -48.26599884033203,-11.138999938964844 -60.284000396728516,-11.138999938964844 C-72.302001953125,-11.138999938964844 -82.04399871826172,-20.836999893188477 -82.04399871826172,-32.79899978637695 C-82.04399871826172,-44.76100158691406 -72.302001953125,-54.45800018310547 -60.284000396728516,-54.45800018310547 C-48.26599884033203,-54.45800018310547 -38.52299880981445,-44.76100158691406 -38.52299880981445,-32.79899978637695z"></path></g><g opacity="1" transform="matrix(1,0,0,1,0,0)"><path fill="rgb(23,19,10)" fill-opacity="1" d=" M-46.53099822998047,-32.79899978637695 C-46.53099822998047,-25.23900032043457 -52.68899917602539,-19.108999252319336 -60.284000396728516,-19.108999252319336 C-67.87899780273438,-19.108999252319336 -74.03600311279297,-25.23900032043457 -74.03600311279297,-32.79899978637695 C-74.03600311279297,-40.35900115966797 -67.87899780273438,-46.487998962402344 -60.284000396728516,-46.487998962402344 C-52.68899917602539,-46.487998962402344 -46.53099822998047,-40.35900115966797 -46.53099822998047,-32.79899978637695z"></path></g><g opacity="1" transform="matrix(1,0,0,1,0,0)"><path fill="rgb(244,244,244)" fill-opacity="1" d=" M-61.50199890136719,-43.534000396728516 C-61.50199890136719,-40.66299819946289 -63.840999603271484,-38.334999084472656 -66.7249984741211,-38.334999084472656 C-69.60900115966797,-38.334999084472656 -71.9469985961914,-40.66299819946289 -71.9469985961914,-43.534000396728516 C-71.9469985961914,-46.404998779296875 -69.60900115966797,-48.731998443603516 -66.7249984741211,-48.731998443603516 C-63.840999603271484,-48.731998443603516 -61.50199890136719,-46.404998779296875 -61.50199890136719,-43.534000396728516z"></path></g><g opacity="1" transform="matrix(1,0,0,1,0,0)"><path stroke-linecap="round" stroke-linejoin="round" fill-opacity="0" stroke="rgb(224,151,5)" stroke-opacity="1" stroke-width="3.5" d=" M-44.180999755859375,-26.68000030517578 C-45.79800033569336,-21.881999969482422 -49.667999267578125,-18.11400032043457 -54.53900146484375,-16.618000030517578"></path></g></g><g opacity="1" transform="matrix(1,0,0,1,0,0)"><g opacity="1" transform="matrix(1,0,0,1,0,0)"><path fill="rgb(255,207,0)" fill-opacity="1" d=" M-97.19300079345703,-25.82200050354004 C-97.19300079345703,-25.82200050354004 -90.89399719238281,-57.50899887084961 -60.71200180053711,-59.27000045776367 C-29.69300079345703,-61.07899856567383 -23.197999954223633,-23.95400047302246 -23.197999954223633,-23.95400047302246 C-23.197999954223633,-23.95400047302246 -21.63800048828125,-69.0989990234375 -60.053001403808594,-67.4540023803711 C-95.07499694824219,-65.9540023803711 -95.51599884033203,-37.54100036621094 -97.19300079345703,-25.82200050354004z"></path></g><g opacity="1" transform="matrix(1,0,0,1,0,0)"><path fill="rgb(255,207,0)" fill-opacity="1" d=" M-96.4000015258789,-25.386999130249023 C-96.4000015258789,-25.386999130249023 -87.2490005493164,-4.744999885559082 -60.683998107910156,-4.995999813079834 C-25.358999252319336,-5.328999996185303 -23.507999420166016,-25.41699981689453 -23.507999420166016,-25.41699981689453 C-23.507999420166016,-25.41699981689453 -25.875,1.2999999523162842 -60.191001892089844,1.4190000295639038 C-90.85800170898438,1.524999976158142 -94.7229995727539,-13.668000221252441 -96.4000015258789,-25.386999130249023z"></path></g></g><g opacity="1" transform="matrix(1,0,0,1,0,0)"><path fill="rgb(133,63,0)" fill-opacity="1" d=" M-24.69700050354004,-28.200000762939453 C-24.69700050354004,-28.200000762939453 -31.208999633789062,-60.72100067138672 -59.198001861572266,-60.428001403808594 C-87.18800354003906,-60.1349983215332 -95.5469970703125,-33.72200012207031 -96.6719970703125,-25.82200050354004 C-96.6719970703125,-25.82200050354004 -91.09500122070312,-57.599998474121094 -59.198001861572266,-57.95800018310547 C-32.78200149536133,-58.25400161743164 -24.69700050354004,-28.200000762939453 -24.69700050354004,-28.200000762939453z"></path><path stroke-linecap="round" stroke-linejoin="round" fill-opacity="0" stroke="rgb(133,63,0)" stroke-opacity="1" stroke-width="2" d=" M-24.69700050354004,-28.200000762939453 C-24.69700050354004,-28.200000762939453 -31.208999633789062,-60.72100067138672 -59.198001861572266,-60.428001403808594 C-87.18800354003906,-60.1349983215332 -95.5469970703125,-33.72200012207031 -96.6719970703125,-25.82200050354004 C-96.6719970703125,-25.82200050354004 -91.09500122070312,-57.599998474121094 -59.198001861572266,-57.95800018310547 C-32.78200149536133,-58.25400161743164 -24.69700050354004,-28.200000762939453 -24.69700050354004,-28.200000762939453z"></path></g></g></g><g style="display: block;" transform="matrix(1.149999976158142,0,0,1.149999976158142,255.34254455566406,325.10845947265625)" opacity="1"><g opacity="0.2" transform="matrix(1,0,0,1,0,0)"><path fill="rgb(208,123,0)" fill-opacity="1" d=" M19.18899917602539,15.130999565124512 C19.371999740600586,21.84600067138672 10.664999961853027,27.820999145507812 1.3830000162124634,27.820999145507812 C-7.89900016784668,27.820999145507812 -16.81599998474121,21.836999893188477 -16.42300033569336,15.130999565124512 C-15.42300033569336,-1.940999984741211 18.724000930786133,-1.940999984741211 19.18899917602539,15.130999565124512z"></path></g><g opacity="1" transform="matrix(1,0,0,1,0,0)"><path fill="rgb(208,123,0)" fill-opacity="1" d=" M18.18899917602539,10.130999565124512 C18.38800048828125,16.844999313354492 10.664999961853027,21.820999145507812 1.3830000162124634,21.820999145507812 C-7.89900016784668,21.820999145507812 -15.42300033569336,16.847999572753906 -15.42300033569336,10.130999565124512 C-15.42300033569336,-5.828999996185303 17.724000930786133,-5.578999996185303 18.18899917602539,10.130999565124512z"></path></g><g opacity="1" transform="matrix(1,0,0,1,0,0)"><path fill="rgb(255,207,0)" fill-opacity="1" d=" M16.540000915527344,7.019999980926514 C16.540000915527344,12.020999908447266 11.376999855041504,16.802000045776367 1.3830000162124634,16.802000045776367 C-8.746999740600586,16.802000045776367 -13.77400016784668,12.020999908447266 -13.77400016784668,7.019999980926514 C-13.77400016784668,2.0190000534057617 -6.645999908447266,-1.940999984741211 1.3830000162124634,-1.940999984741211 C9.411999702453613,-1.940999984741211 16.540000915527344,2.0190000534057617 16.540000915527344,7.019999980926514z"></path></g><g opacity="1" transform="matrix(1,0,0,1,0,0)"><path fill="rgb(255,225,129)" fill-opacity="1" d=" M10.079000473022461,3.1530001163482666 C10.079000473022461,5.784999847412109 6.185999870300293,8.26099967956543 1.3830000162124634,8.26099967956543 C-3.4200000762939453,8.26099967956543 -7.313000202178955,5.784999847412109 -7.313000202178955,3.1530001163482666 C-7.313000202178955,0.5210000276565552 -3.4200000762939453,-0.800000011920929 1.3830000162124634,-0.800000011920929 C6.185999870300293,-0.800000011920929 10.079000473022461,0.5210000276565552 10.079000473022461,3.1530001163482666z"></path></g></g><g style="display: block;" transform="matrix(1.149999976158142,0,0,1.149999976158142,255.34254455566406,325.10845947265625)" opacity="1"><g opacity="0.3" transform="matrix(1,0,0,1,0,0)"><path stroke-linecap="round" stroke-linejoin="round" fill-opacity="0" stroke="rgb(208,123,0)" stroke-opacity="1" stroke-width="8" d=" M-32.46200180053711,32.4640007019043 C-32.46200180053711,32.4640007019043 -46.53099822998047,45.0880012512207 -53.77899932861328,71.13099670410156"></path></g><g opacity="0.3" transform="matrix(1,0,0,1,0,0)"><path stroke-linecap="round" stroke-linejoin="round" fill-opacity="0" stroke="rgb(208,123,0)" stroke-opacity="1" stroke-width="8" d=" M35.0989990234375,32.4640007019043 C35.0989990234375,32.4640007019043 49.167999267578125,45.0880012512207 56.41600036621094,71.13099670410156"></path></g><g opacity="0.2" transform="matrix(1,0,0,1,0,0)"><path fill="rgb(208,123,0)" fill-opacity="1" d=" M27.434999465942383,72.83999633789062 C27.434999465942383,77.4260025024414 15.770999908447266,85.14299774169922 1.3830000162124634,85.14299774169922 C-13.005000114440918,85.14299774169922 -24.66900062561035,77.4260025024414 -24.66900062561035,72.83999633789062 C-24.66900062561035,68.25399780273438 -13.005000114440918,73.91699981689453 1.3830000162124634,73.91699981689453 C15.770999908447266,73.91699981689453 27.434999465942383,68.25399780273438 27.434999465942383,72.83999633789062z"></path></g><g opacity="1" transform="matrix(1,0,0,1,0,0)"><path fill="rgb(255,225,129)" fill-opacity="1" d=" M40.39799880981445,47.888999938964844 C39.494998931884766,41.27799987792969 33.80400085449219,43.45399856567383 1.3830000162124634,43.45399856567383 C-30.256000518798828,43.45399856567383 -36.185001373291016,40.862998962402344 -37.63199996948242,47.888999938964844 C-38.21099853515625,50.69900131225586 -25.31399917602539,70.1050033569336 1.3760000467300415,70.1050033569336 C27.613000869750977,70.1050033569336 40.803001403808594,50.854000091552734 40.39799880981445,47.888999938964844z"></path></g><g opacity="1" transform="matrix(1,0,0,1,0,0)"><path fill="rgb(126,35,18)" fill-opacity="1" d=" M39.39799880981445,44.888999938964844 C37.900001525878906,41.98400115966797 33.80400085449219,42.45399856567383 1.3830000162124634,42.45399856567383 C-30.256000518798828,42.45399856567383 -34.952999114990234,42.084999084472656 -36.63199996948242,44.888999938964844 C-38.10499954223633,47.35100173950195 -25.31399917602539,65.1050033569336 1.3760000467300415,65.1050033569336 C27.613000869750977,65.1050033569336 40.77000045776367,47.54899978637695 39.39799880981445,44.888999938964844z"></path></g><g opacity="1" transform="matrix(1,0,0,1,0,0)"><path fill="rgb(81,19,18)" fill-opacity="1" d=" M38.1150016784668,48.5880012512207 C35.375,47.14799880981445 27.7549991607666,48.45800018310547 1.3849999904632568,48.45800018310547 C-24.69499969482422,48.45800018310547 -32.46500015258789,47.20800018310547 -35.334999084472656,48.6879997253418 C-36.54499816894531,46.86800003051758 -36.974998474121094,45.45800018310547 -36.6349983215332,44.88800048828125 C-34.95500183105469,42.0880012512207 -30.2549991607666,42.45800018310547 1.3849999904632568,42.45800018310547 C33.80500030517578,42.45800018310547 37.89500045776367,41.987998962402344 39.39500045776367,44.88800048828125 C39.70500183105469,45.487998962402344 39.275001525878906,46.847999572753906 38.1150016784668,48.5880012512207z"></path></g></g><g style="display: block;" transform="matrix(1.149999976158142,0,0,1.149999976158142,255.34254455566406,325.10845947265625)" opacity="1"><g opacity="0.2" transform="matrix(1,0,0,1,0,0)"><path stroke-linecap="round" stroke-linejoin="round" fill-opacity="0" stroke="rgb(208,123,0)" stroke-opacity="1" stroke-width="8" d=" M-44.15700149536133,-108.29900360107422 C-44.15700149536133,-108.29900360107422 0.17599999904632568,-104.16699981689453 46.03499984741211,-108.29900360107422"></path></g><g opacity="0.2" transform="matrix(1,0,0,1,0,0)"><path stroke-linecap="round" stroke-linejoin="round" fill-opacity="0" stroke="rgb(208,123,0)" stroke-opacity="1" stroke-width="8" d=" M-29.099000930786133,-92.72699737548828 C-29.099000930786133,-92.72699737548828 0.4309999942779541,-89.9749984741211 30.976999282836914,-92.72699737548828"></path></g></g><g style="display: block;" transform="matrix(1.149999976158142,0,0,1.149999976158142,255.34254455566406,325.10845947265625)" opacity="1"><g opacity="1" transform="matrix(1,0,0,1,0,0)"><path fill="rgb(133,63,0)" fill-opacity="1" d=" M96.94100189208984,-59.46699905395508 C97.7239990234375,-58.64099884033203 98.47899627685547,-60.47700119018555 96.2770004272461,-63.83000183105469 C92.10299682617188,-70.18499755859375 82.12000274658203,-77.89600372314453 73.1729965209961,-80.40299987792969 C55.422000885009766,-85.3759994506836 47.755001068115234,-77.9219970703125 48.90599822998047,-76.51599884033203 C49.43899917602539,-75.86499786376953 77.23500061035156,-80.24500274658203 96.94100189208984,-59.46699905395508z"></path><path stroke-linecap="round" stroke-linejoin="round" fill-opacity="0" stroke="rgb(133,63,0)" stroke-opacity="1" stroke-width="2" d=" M96.94100189208984,-59.46699905395508 C97.7239990234375,-58.64099884033203 98.47899627685547,-60.47700119018555 96.2770004272461,-63.83000183105469 C92.10299682617188,-70.18499755859375 82.12000274658203,-77.89600372314453 73.1729965209961,-80.40299987792969 C55.422000885009766,-85.3759994506836 47.755001068115234,-77.9219970703125 48.90599822998047,-76.51599884033203 C49.43899917602539,-75.86499786376953 77.23500061035156,-80.24500274658203 96.94100189208984,-59.46699905395508z"></path></g><g opacity="1" transform="matrix(1,0,0,1,0,0)"><path fill="rgb(133,63,0)" fill-opacity="1" d=" M-94.28800201416016,-59.46699905395508 C-95.07099914550781,-58.64099884033203 -95.82499694824219,-60.47700119018555 -93.62300109863281,-63.83000183105469 C-89.4489974975586,-70.18499755859375 -79.46600341796875,-77.89600372314453 -70.51899719238281,-80.40299987792969 C-52.768001556396484,-85.3759994506836 -45.10200119018555,-77.9219970703125 -46.25299835205078,-76.51599884033203 C-46.7859992980957,-75.86499786376953 -74.58200073242188,-80.24500274658203 -94.28800201416016,-59.46699905395508z"></path><path stroke-linecap="round" stroke-linejoin="round" fill-opacity="0" stroke="rgb(133,63,0)" stroke-opacity="1" stroke-width="2" d=" M-94.28800201416016,-59.46699905395508 C-95.07099914550781,-58.64099884033203 -95.82499694824219,-60.47700119018555 -93.62300109863281,-63.83000183105469 C-89.4489974975586,-70.18499755859375 -79.46600341796875,-77.89600372314453 -70.51899719238281,-80.40299987792969 C-52.768001556396484,-85.3759994506836 -45.10200119018555,-77.9219970703125 -46.25299835205078,-76.51599884033203 C-46.7859992980957,-75.86499786376953 -74.58200073242188,-80.24500274658203 -94.28800201416016,-59.46699905395508z"></path></g></g><g style="display: block;" transform="matrix(1.149999976158142,0,0,1.149999976158142,255.34254455566406,325.10845947265625)" opacity="1"><g opacity="1" transform="matrix(1,0,0,1,0,0)"><g opacity="1" transform="matrix(1,0,0,1,0,0)"><path fill="rgb(234,157,1)" fill-opacity="1" d=" M1.4550000429153442,-247.2469940185547 C-22.1299991607666,-247.2469940185547 -50.60300064086914,-236.052001953125 -57.54100036621094,-208.4429931640625 C-18.351999282836914,-203.52699279785156 -5.085000038146973,-197.4250030517578 0.9390000104904175,-160.51699829101562 C5.355000019073486,-177.375 13.836999893188477,-207.88600158691406 59.638999938964844,-208.4409942626953 C50.38800048828125,-237.19500732421875 25.610000610351562,-247.2469940185547 1.4550000429153442,-247.2469940185547z"></path><path stroke-linecap="round" stroke-linejoin="round" fill-opacity="0" stroke="rgb(185,96,0)" stroke-opacity="1" stroke-width="8" d=" M1.4550000429153442,-247.2469940185547 C-22.1299991607666,-247.2469940185547 -50.60300064086914,-236.052001953125 -57.54100036621094,-208.4429931640625 C-18.351999282836914,-203.52699279785156 -5.085000038146973,-197.4250030517578 0.9390000104904175,-160.51699829101562 C5.355000019073486,-177.375 13.836999893188477,-207.88600158691406 59.638999938964844,-208.4409942626953 C50.38800048828125,-237.19500732421875 25.610000610351562,-247.2469940185547 1.4550000429153442,-247.2469940185547z"></path></g><g opacity="1" transform="matrix(1,0,0,1,0,0)"><path fill="rgb(255,207,0)" fill-opacity="1" d=" M0.8069999814033508,-243.70399475097656 C-9.569000244140625,-243.70399475097656 -18.61199951171875,-241.41900634765625 -28.6299991607666,-236.64199829101562 C-48.630001068115234,-224.26699829101562 -34.040000915527344,-202.8820037841797 1.347000002861023,-202.8820037841797 C31.760000228881836,-202.8820037841797 52.68199920654297,-220.70399475097656 35.93199920654297,-234.32899475097656 C25.80699920654297,-240.82899475097656 12.137999534606934,-243.70399475097656 0.8069999814033508,-243.70399475097656z"></path></g></g><g opacity="1" transform="matrix(1,0,0,1,0,0)"><g opacity="1" transform="matrix(1,0,0,1,0,0)"><path fill="rgb(255,207,0)" fill-opacity="1" d=" M-36.94499969482422,-121.43299865722656 C-74.03500366210938,-106.46199798583984 -153.9429931640625,-63.58000183105469 -127.11299896240234,36.03499984741211 C-184.4429931640625,42.42599868774414 -199.11000061035156,-76.91200256347656 -162.5659942626953,-108.55699920654297 C-148.02099609375,-121.1520004272461 -145.94900512695312,-126.3010025024414 -127.91300201416016,-162.65499877929688 C-108.50499725341797,-201.7729949951172 -71.5790023803711,-213.66299438476562 -37.650001525878906,-206.4550018310547 C-3.7209999561309814,-199.2469940185547 28.239999771118164,-147.7429962158203 -36.94499969482422,-121.43299865722656z"></path></g><g opacity="1" transform="matrix(1,0,0,1,0,0)"><path fill="rgb(234,157,1)" fill-opacity="1" d=" M-36.94300079345703,-121.43199920654297 C-68.43000030517578,-109.9990005493164 -152.11000061035156,-63.24599838256836 -127.11299896240234,36.03799819946289 C-164.4429931640625,45.55799865722656 -209.4429931640625,-48.733001708984375 -162.56300354003906,-108.56199645996094 C-180.9029998779297,-68.81199645996094 -182.58399963378906,-34.97700119018555 -159.1820068359375,-30.798999786376953 C-141.85000610351562,-27.704999923706055 -119.90699768066406,-83.95700073242188 -95.072998046875,-105.51200103759766 C-43.12099838256836,-150.60400390625 10.079000473022461,-134.79800415039062 -7.313000202178955,-188.56199645996094 C-0.17299999296665192,-178.45199584960938 23.047000885009766,-143.21400451660156 -36.94300079345703,-121.43199920654297z"></path></g><g opacity="1" transform="matrix(1,0,0,1,0,0)"><path fill="rgb(255,225,129)" fill-opacity="1" d=" M-67.7030029296875,-203.4980010986328 C-45.17100143432617,-207.09500122070312 -3.0810000896453857,-197.73199462890625 -16.665000915527344,-169.5279998779297 C-28,-145.9949951171875 -122.75,-135.9429931640625 -118.03099822998047,-161.62100219726562 C-113.31300354003906,-187.2989959716797 -90.11499786376953,-199.9199981689453 -67.7030029296875,-203.4980010986328z"></path></g><g opacity="1" transform="matrix(1,0,0,1,0,0)"><path stroke-linecap="round" stroke-linejoin="round" fill-opacity="0" stroke="rgb(185,96,0)" stroke-opacity="1" stroke-width="8" d=" M1.3830000162124634,-153.48899841308594 C1.3830000162124634,-141.1060028076172 -5.934000015258789,-134.10400390625 -36.94499969482422,-121.43299865722656 C-67.95600128173828,-108.76200103759766 -96.6760025024414,-96.76300048828125 -118.75299835205078,-51.27299880981445 C-126.36599731445312,-35.58599853515625 -137.01300048828125,-1.1430000066757202 -127.11299896240234,36.03499984741211 C-126.06099700927734,39.98400115966797 -147.38699340820312,41.10300064086914 -164.5659942626953,15.779000282287598 C-181.7449951171875,-9.545000076293945 -197.0030059814453,-62.638999938964844 -162.5659942626953,-108.55699920654297 C-151.02200317382812,-123.94999694824219 -145.94900512695312,-126.3010025024414 -127.91300201416016,-162.65499877929688 C-113.99299621582031,-190.71299743652344 -91.05899810791016,-204.76300048828125 -66.68399810791016,-207.80499267578125 C-57.07600021362305,-209.00399780273438 -47.24300003051758,-208.4929962158203 -37.650001525878906,-206.4550018310547 C-3.7209999561309814,-199.2469940185547 1.3830000162124634,-175.6750030517578 1.3830000162124634,-153.48899841308594z"></path></g><g opacity="1" transform="matrix(1,0,0,1,0,0)"><path stroke-linecap="round" stroke-linejoin="round" fill-opacity="0" stroke="rgb(163,81,0)" stroke-opacity="1" stroke-width="8" d=" M1.340000033378601,-156.88299560546875 C1.3700000047683716,-155.75 1.3830000162124634,-154.61700439453125 1.3830000162124634,-153.48899841308594 C1.3830000162124634,-153.48899841308594 1.3830000162124634,-153.48899841308594 1.3830000162124634,-153.48899841308594 C1.3830000162124634,-141.1060028076172 -5.934000015258789,-134.10400390625 -36.94499969482422,-121.43299865722656 C-67.95600128173828,-108.76200103759766 -96.6760025024414,-96.76300048828125 -118.75299835205078,-51.27299880981445 C-126.36599731445312,-35.58599853515625 -137.01300048828125,-1.1430000066757202 -127.11299896240234,36.03499984741211 C-127.0260009765625,36.36199951171875 -127.09200286865234,36.66999816894531 -127.2969970703125,36.944000244140625"></path></g></g><g opacity="1" transform="matrix(1,0,0,1,0,0)"><g opacity="1" transform="matrix(1,0,0,1,0,0)"><path fill="rgb(255,207,0)" fill-opacity="1" d=" M40.57500076293945,-121.43299865722656 C77.66500091552734,-106.46199798583984 157.57200622558594,-63.58000183105469 130.74200439453125,36.03499984741211 C188.07200622558594,42.42599868774414 202.73899841308594,-76.91200256347656 166.19500732421875,-108.55699920654297 C151.64999389648438,-121.1520004272461 149.5780029296875,-126.3010025024414 131.54200744628906,-162.65499877929688 C112.13400268554688,-201.7729949951172 75.20899963378906,-213.66299438476562 41.279998779296875,-206.4550018310547 C29.187000274658203,-203.88600158691406 17.344999313354492,-195.6909942626953 10.060999870300293,-185.01400756835938 C-3.0910000801086426,-165.73500061035156 -1.378000020980835,-138.36599731445312 40.57500076293945,-121.43299865722656z"></path></g><g opacity="1" transform="matrix(1,0,0,1,0,0)"><path fill="rgb(234,157,1)" fill-opacity="1" d=" M40.571998596191406,-121.43199920654297 C72.05899810791016,-109.9990005493164 155.73899841308594,-63.24599838256836 130.74200439453125,36.03799819946289 C168.07200622558594,45.55799865722656 213.07200622558594,-48.733001708984375 166.19200134277344,-108.56199645996094 C184.53199768066406,-68.81199645996094 186.21299743652344,-34.97700119018555 162.81100463867188,-30.798999786376953 C145.47900390625,-27.704999923706055 123.53600311279297,-83.95700073242188 98.7020034790039,-105.51200103759766 C46.75,-150.60400390625 -6.449999809265137,-134.79800415039062 10.942000389099121,-188.56199645996094 C3.802000045776367,-178.45199584960938 -19.417999267578125,-143.21400451660156 40.571998596191406,-121.43199920654297z"></path></g><g opacity="1" transform="matrix(1,0,0,1,0,0)"><path fill="rgb(255,225,129)" fill-opacity="1" d=" M71.33300018310547,-203.4980010986328 C48.80099868774414,-207.09500122070312 6.710000038146973,-197.73199462890625 20.29400062561035,-169.5279998779297 C31.628999710083008,-145.9949951171875 126.37999725341797,-135.9429931640625 121.66100311279297,-161.62100219726562 C116.94300079345703,-187.2989959716797 93.74500274658203,-199.9199981689453 71.33300018310547,-203.4980010986328z"></path></g><g opacity="1" transform="matrix(1,0,0,1,0,0)"><path stroke-linecap="round" stroke-linejoin="round" fill-opacity="0" stroke="rgb(185,96,0)" stroke-opacity="1" stroke-width="8" d=" M2.246000051498413,-153.48899841308594 C2.246000051498413,-141.1060028076172 9.564000129699707,-134.10400390625 40.57500076293945,-121.43299865722656 C71.58599853515625,-108.76200103759766 100.30599975585938,-96.76300048828125 122.38300323486328,-51.27299880981445 C129.99600219726562,-35.58599853515625 140.64199829101562,-1.1430000066757202 130.74200439453125,36.03499984741211 C129.69000244140625,39.98400115966797 151.01600646972656,41.10300064086914 168.19500732421875,15.779000282287598 C185.37399291992188,-9.545000076293945 200.6320037841797,-62.638999938964844 166.19500732421875,-108.55699920654297 C154.6510009765625,-123.94999694824219 149.5780029296875,-126.3010025024414 131.54200744628906,-162.65499877929688 C117.73400115966797,-190.48500061035156 95.05999755859375,-204.53399658203125 70.90599822998047,-207.72900390625 C61.11000061035156,-209.02499389648438 51.06999969482422,-208.53500366210938 41.279998779296875,-206.4550018310547 C7.35099983215332,-199.2469940185547 2.246000051498413,-175.6750030517578 2.246000051498413,-153.48899841308594z"></path></g><g opacity="1" transform="matrix(1,0,0,1,0,0)"><path stroke-linecap="round" stroke-linejoin="round" fill-opacity="0" stroke="rgb(163,81,0)" stroke-opacity="1" stroke-width="8" d=" M2.2890000343322754,-156.88299560546875 C2.259000062942505,-155.75 2.246000051498413,-154.61700439453125 2.246000051498413,-153.48899841308594 C2.246000051498413,-153.48899841308594 2.246000051498413,-153.48899841308594 2.246000051498413,-153.48899841308594 C2.246000051498413,-141.1060028076172 9.564000129699707,-134.10400390625 40.57500076293945,-121.43299865722656 C71.58599853515625,-108.76200103759766 100.30599975585938,-96.76300048828125 122.38300323486328,-51.27299880981445 C129.99600219726562,-35.58599853515625 140.64199829101562,-1.1430000066757202 130.74200439453125,36.03499984741211 C130.65499877929688,36.36199951171875 130.7209930419922,36.66899871826172 130.92599487304688,36.944000244140625"></path></g></g></g><g style="display: block;" transform="matrix(1.149999976158142,0,0,1.149999976158142,255.34254455566406,325.10845947265625)" opacity="1"><g opacity="1" transform="matrix(1,0,0,1,0,0)"><path stroke-linecap="round" stroke-linejoin="round" fill-opacity="0" stroke="rgb(255,255,255)" stroke-opacity="1" stroke-width="6" d=" M73.67900085449219,-196.02999877929688 C75.4020004272461,-195.8179931640625 77.19200134277344,-195.5760040283203 79.04000091552734,-195.2989959716797"></path></g><g opacity="1" transform="matrix(1,0,0,1,0,0)"><path stroke-linecap="round" stroke-linejoin="round" fill-opacity="0" stroke="rgb(255,255,255)" stroke-opacity="1" stroke-width="6" d=" M49.880001068115234,-197.46400451660156 C49.880001068115234,-197.46400451660156 55.25899887084961,-197.63499450683594 63.87699890136719,-196.9969940185547"></path></g></g><g style="display: none;"><g><path></path><path stroke-linecap="round" stroke-linejoin="round" fill-opacity="0"></path></g></g><g style="display: none;"><g><path stroke-linecap="round" stroke-linejoin="round" fill-opacity="0"></path></g></g><g style="display: none;"><g><path></path></g><g><path></path></g><g><path></path></g><g><path stroke-linecap="round" stroke-linejoin="round" fill-opacity="0"></path></g><g><path stroke-linecap="round" stroke-linejoin="round" fill-opacity="0"></path></g><g><path stroke-linecap="round" stroke-linejoin="round" fill-opacity="0"></path></g></g><g style="display: none;"><g><path></path></g><g><path></path></g><g><path stroke-linecap="round" stroke-linejoin="round" fill-opacity="0"></path></g><g><g><path></path><path stroke-linecap="round" stroke-linejoin="round" fill-opacity="0"></path></g><g><g><path></path></g><g><path></path></g></g></g><g><g><path></path></g><g><path></path></g><g><path stroke-linecap="round" stroke-linejoin="round" fill-opacity="0"></path></g></g><g><g><path></path><path stroke-linecap="round" stroke-linejoin="round" fill-opacity="0"></path></g><g><path></path></g><g><path></path></g></g><g><path></path><path stroke-linecap="round" stroke-linejoin="round" fill-opacity="0"></path></g><g><path></path></g><g><path></path><path stroke-linecap="round" stroke-linejoin="round" fill-opacity="0"></path></g><g><path></path></g></g><g style="display: none;"><g><path stroke-linecap="round" stroke-linejoin="round" fill-opacity="0"></path></g></g><g style="display: block;" transform="matrix(1.149999976158142,0,0,1.149999976158142,-39.05744934082031,30.708465576171875)" opacity="1"><g opacity="1" transform="matrix(1,0,0,1,256.3039855957031,255.4340057373047)"><g opacity="1" transform="matrix(1,0,0,1,0,0)"><g opacity="1" transform="matrix(1,0,0,1,0,0)"><path fill="rgb(244,172,0)" fill-opacity="1" d=" M-23.197999954223633,-18.549999237060547 C-23.197999954223633,-18.549999237060547 -22.606000900268555,-12.100000381469727 -26.94300079345703,-4.828999996185303 C-32.948001861572266,5.23799991607666 -46.82099914550781,17.0939998626709 -70.60800170898438,17.530000686645508 C-77.28600311279297,17.652000427246094 -86.83799743652344,-6.691999912261963 -86.83799743652344,-6.691999912261963 C-79.1259994506836,5.828000068664551 -38.422000885009766,5.7870001792907715 -23.197999954223633,-18.549999237060547z"></path></g><g opacity="1" transform="matrix(1,0,0,1,0,0)"><path fill="rgb(244,172,0)" fill-opacity="1" d=" M26.22100067138672,-18.549999237060547 C26.22100067138672,-18.549999237060547 26.135000228881836,-12.5600004196167 30.054000854492188,-5.460000038146973 C35.75199890136719,4.86299991607666 49.18199920654297,17.530000686645508 76.93199920654297,17.530000686645508 C83.61100006103516,17.530000686645508 89.86100006103516,-6.691999912261963 89.86100006103516,-6.691999912261963 C82.1760025024414,5.784999847412109 41.64500045776367,6.616000175476074 26.22100067138672,-18.549999237060547z"></path></g></g><g opacity="1" transform="matrix(1,0,0,1,0,0)"><g opacity="1" transform="matrix(1,0,0,1,0,0)"><path stroke-linecap="round" stroke-linejoin="round" fill-opacity="0" stroke="rgb(244,172,0)" stroke-opacity="1" stroke-width="6" d=" M120.55500030517578,-19.71299934387207 C120.55500030517578,-19.71299934387207 106.59400177001953,-6.940000057220459 101.75800323486328,-4.900000095367432 C99.87100219726562,-4.104000091552734 94.99700164794922,-3.5840001106262207 94.99700164794922,-3.5840001106262207 C94.99700164794922,-3.5840001106262207 91.84500122070312,8.26099967956543 78.48400115966797,14.342000007629395 C78.48400115966797,14.342000007629395 42.30699920654297,2.7960000038146973 24.5,-11.192000389099121 C0.9010000228881836,-22.70400047302246 -20.349000930786133,-11.659000396728516 -22.56800079345703,-10.729999542236328 C-33.06800079345703,-1.74399995803833 -54.972999572753906,13.217000007629395 -73.11000061035156,13.503999710083008 C-88.90699768066406,13.753999710083008 -91.99400329589844,-3.2060000896453857 -91.99400329589844,-3.2060000896453857 C-91.99400329589844,-3.2060000896453857 -97.8280029296875,-4.140999794006348 -99.95600128173828,-4.900000095367432 C-104.23300170898438,-6.425000190734863 -118.75299835205078,-19.71299934387207 -118.75299835205078,-19.71299934387207"></path></g></g></g><g opacity="1" transform="matrix(1,0,0,1,256,256)"><g opacity="1" transform="matrix(1,0,0,1,0,0)"><path stroke-linecap="round" stroke-linejoin="round" fill-opacity="0" stroke="rgb(124,107,94)" stroke-opacity="1" stroke-width="6" d=" M-21.615999221801758,-13.555999755859375 C-21.615999221801758,-13.555999755859375 0.722000002861023,-27.033000946044922 24.798999786376953,-13.555999755859375"></path></g><g opacity="1" transform="matrix(1,0,0,1,0,0)"><path stroke-linecap="round" stroke-linejoin="round" fill-opacity="0" stroke="rgb(124,107,94)" stroke-opacity="1" stroke-width="6" d=" M-88.90699768066406,-12.831999778747559 C-88.90699768066406,-12.831999778747559 -99.43099975585938,-12.51200008392334 -101.24400329589844,-12.831999778747559 C-103.5530014038086,-13.239999771118164 -124.91899871826172,-29.075000762939453 -124.91899871826172,-29.075000762939453"></path></g><g opacity="1" transform="matrix(1,0,0,1,0,0)"><path stroke-linecap="round" stroke-linejoin="round" fill-opacity="0" stroke="rgb(124,107,94)" stroke-opacity="1" stroke-width="6" d=" M91.84500122070312,-12.831999778747559 C91.84500122070312,-12.831999778747559 102.36900329589844,-12.51200008392334 104.18199920654297,-12.831999778747559 C106.49099731445312,-13.239999771118164 128.08099365234375,-27.913000106811523 128.08099365234375,-27.913000106811523"></path></g><g opacity="1" transform="matrix(1,0,0,1,0,0)"><g opacity="1" transform="matrix(1,0,0,1,0,0)"><path stroke-linecap="round" stroke-linejoin="round" fill-opacity="0" stroke="rgb(165,147,131)" stroke-opacity="1" stroke-width="6" d=" M-88.14399719238281,-10.729999542236328 C-88.14399719238281,-27.76300048828125 -73.68499755859375,-41.465999603271484 -55.849998474121094,-41.465999603271484 C-38.01499938964844,-41.465999603271484 -22.56800079345703,-27.76300048828125 -22.56800079345703,-10.729999542236328"></path></g><g opacity="1" transform="matrix(1,0,0,1,0,0)"><path stroke-linecap="round" stroke-linejoin="round" fill-opacity="0" stroke="rgb(132,117,106)" stroke-opacity="1" stroke-width="6" d=" M-24.111000061035156,-19.707000732421875 C-23.111000061035156,-16.93000030517578 -22.56800079345703,-13.923999786376953 -22.56800079345703,-10.729999542236328 C-22.56800079345703,6.302999973297119 -38.01499938964844,21.163000106811523 -55.849998474121094,21.163000106811523 C-73.68499755859375,21.163000106811523 -88.14399719238281,6.302999973297119 -88.14399719238281,-10.729999542236328 C-88.14399719238281,-13.170999526977539 -87.84600067138672,-15.503999710083008 -87.28500366210938,-17.70800018310547"></path></g></g><g opacity="1" transform="matrix(1,0,0,1,0,0)"><g opacity="1" transform="matrix(1,0,0,1,0,0)"><path stroke-linecap="round" stroke-linejoin="round" fill-opacity="0" stroke="rgb(165,147,131)" stroke-opacity="1" stroke-width="6" d=" M91.05000305175781,-10.729999542236328 C91.05000305175781,-27.76300048828125 76.59100341796875,-41.465999603271484 58.75600051879883,-41.465999603271484 C40.92100143432617,-41.465999603271484 25.474000930786133,-27.76300048828125 25.474000930786133,-10.729999542236328"></path></g><g opacity="1" transform="matrix(1,0,0,1,0,0)"><path stroke-linecap="round" stroke-linejoin="round" fill-opacity="0" stroke="rgb(132,117,106)" stroke-opacity="1" stroke-width="6" d=" M27.017000198364258,-19.707000732421875 C26.017000198364258,-16.93000030517578 25.474000930786133,-13.923999786376953 25.474000930786133,-10.729999542236328 C25.474000930786133,6.302999973297119 40.92100143432617,21.163000106811523 58.75600051879883,21.163000106811523 C76.59100341796875,21.163000106811523 91.05000305175781,6.302999973297119 91.05000305175781,-10.729999542236328 C91.05000305175781,-13.170999526977539 90.75199890136719,-15.503999710083008 90.19100189208984,-17.70800018310547"></path></g></g></g></g><g style="display: none;"><g><path stroke-linecap="round" stroke-linejoin="round" fill-opacity="0"></path></g></g><g style="display: none;"><g><path stroke-linecap="round" stroke-linejoin="round" fill-opacity="0"></path></g></g><g style="display: none;"><g><path stroke-linecap="round" stroke-linejoin="round" fill-opacity="0"></path></g></g></g></svg>