<svg xmlns="http://www.w3.org/2000/svg" viewBox="0 0 512 512" width="512" height="512" style="width: 100%; height: 100%; transform: translate3d(0,0,0);" preserveAspectRatio="xMidYMid meet"><defs><clipPath id="__lottie_element_12108"><rect width="512" height="512" x="0" y="0"></rect></clipPath></defs><g clip-path="url(#__lottie_element_12108)"><g style="display: block;" transform="matrix(1,0,0,1,275.69000244140625,365.69000244140625)" opacity="1"><g opacity="1" transform="matrix(1,0,0,1,0,0)"><path fill="rgb(255,209,64)" fill-opacity="1" d=" M61.770999908447266,-54.20600128173828 C78.34400177001953,-58.16299819946289 87.27799987792969,-74.97799682617188 102.37300109863281,-82.93599700927734 C117.46800231933594,-90.8949966430664 153.4010009765625,-86.61499786376953 158.68499755859375,-66.67900085449219 C163.97000122070312,-46.744998931884766 147.5590057373047,-43.387001037597656 131.8300018310547,-37.95100021362305 C109.51200103759766,-29.28499984741211 96.15899658203125,-14.100000381469727 85.44000244140625,-0.41999998688697815 C72.96700286865234,16.479000091552734 67.88300323486328,23.613000869750977 49.99399948120117,48.70899963378906 C31.996999740600586,76.18399810791016 3.5889999866485596,91.35600280761719 -23.604000091552734,95.54100036621094 C-50.189998626708984,99.63300323486328 -91.1520004272461,96.83699798583984 -118.86799621582031,71.8550033569336 C-151.85899353027344,42.119998931884766 -156.82899475097656,-27.280000686645508 -159.6959991455078,-53.75699996948242"></path></g></g><g style="display: block;" transform="matrix(1,0,0,1,274.3219909667969,354.218017578125)" opacity="1"><g opacity="1" transform="matrix(1,0,0,1,0,0)"><path fill="rgb(255,209,64)" fill-opacity="1" d=" M39.840999603271484,-85.61499786376953 C38.520999908447266,-39.637001037597656 48.96900177001953,-38.59299850463867 65.54199981689453,-42.54999923706055 C30.92799949645996,-12.468000411987305 -157.3699951171875,-20.125999450683594 -159.42799377441406,-41.57899856567383 C-159.42799377441406,-41.57899856567383 -142.54200744628906,-66.06800079345703 -113.3219985961914,-67.21800231933594 C-113.3219985961914,-67.21800231933594 -91.697998046875,-97.04900360107422 -60.321998596191406,-91.21800231933594 C-60.321998596191406,-91.21800231933594 -33.90299987792969,-115.322998046875 -5.322000026702881,-100.21800231933594 C-5.322000026702881,-100.21800231933594 41.064998626708984,-128.25599670410156 39.840999603271484,-85.61499786376953"></path></g></g><g style="display: block;" transform="matrix(1,0,0,1,322.61700439453125,323.12799072265625)" opacity="1"><g opacity="1" transform="matrix(1,0,0,1,0,0)"><path fill="rgb(255,177,57)" fill-opacity="1" d=" M-11.196000099182129,-35.73400115966797 C-11.991999626159668,-32.566001892089844 -12.602999687194824,-25.690000534057617 -23.71500015258789,-21.77199935913086 C-34.83100128173828,-17.844999313354492 -58.92900085449219,-8.657999992370605 -74.29199981689453,11.043999671936035 C-86.06400299072266,26.138999938964844 -89.697998046875,40.82400131225586 -85.99299621582031,43.17599868774414 C-82.29000091552734,45.527000427246094 -70.83899688720703,15.42300033569336 -41.542999267578125,5.849999904632568 C-28.635000228881836,1.6319999694824219 -20.198999404907227,-1.0490000247955322 -13.583999633789062,-2.7850000858306885 C-4.453999996185303,-5.179999828338623 1.2100000381469727,-5.775000095367432 10.383000373840332,-6.127999782562256 C18.268999099731445,-6.431000232696533 24.222999572753906,-10.6899995803833 29.975000381469727,-16.142000198364258 C16.007999420166016,-11.253000259399414 3.507999897003174,-11.253000259399414 -3.0309998989105225,-16.645000457763672 C-7.473999977111816,-20.30900001525879 -10.428999900817871,-28.878000259399414 -11.196000099182129,-35.73400115966797z"></path></g></g><g style="display: block;" transform="matrix(1,0,0,1,271.56500244140625,321.458984375)" opacity="1"><g opacity="1" transform="matrix(1,0,0,1,0,0)"><path fill="rgb(255,177,57)" fill-opacity="1" d=" M88.73300170898438,42.8120002746582 C74.30400085449219,58.09600067138672 72.11299896240234,65.45999908447266 54.11600112915039,92.94300079345703 C36.125,120.41699981689453 7.716000080108643,135.58299255371094 -19.48200035095215,139.7760009765625 C-46.06800079345703,143.86900329589844 -87.02200317382812,141.06900024414062 -114.74400329589844,116.08799743652344 C-147.73300170898438,86.3479995727539 -153.51400756835938,11.928000450134277 -155.56500244140625,-9.527000427246094 C-155.56500244140625,-9.527000427246094 -155.5659942626953,-9.539999961853027 -155.5659942626953,-9.539999961853027 C-156.8679962158203,-25.40399932861328 -143.33399963378906,-27.20800018310547 -140.97500610351562,-4.519999980926514 C-139.58099365234375,8.88700008392334 -138.55099487304688,19.11400032043457 -138.35400390625,21.48200035095215 C-134.0989990234375,44.77199935913086 -128.36500549316406,64.55000305175781 -108.58200073242188,90.24099731445312 C-87.25800323486328,115.73100280761719 -61.83100128173828,111.66300201416016 -56.90399932861328,105.14299774169922 C-51.97100067138672,98.62999725341797 -56.47600173950195,87.60299682617188 -52.47100067138672,78.87200164794922 C-48.09400177001953,69.33300018310547 -46.040000915527344,71.69999694824219 -44.891998291015625,79.55999755859375 C-43.744998931884766,87.4209976196289 -25.457000732421875,118.06999969482422 2.9570000171661377,106.97100067138672 C38.880001068115234,92.93900299072266 67.8550033569336,44.645999908447266 86.23500061035156,24.218000411987305 C97.70700073242188,11.467000007629395 114.5790023803711,-3.9830000400543213 137.06199645996094,-8.137999534606934 C160.43499755859375,-12.458999633789062 158.0659942626953,-27.371000289916992 157.91099548339844,-27.878999710083008 C160.82000732421875,-25.18199920654297 162.95199584960938,-21.94499969482422 163.96600341796875,-18.128999710083008 C168.43499755859375,-3.4590001106262207 148.01100158691406,2.630000114440918 132.28700256347656,8.071999549865723 C116.55400085449219,13.505999565124512 103.16300201416016,27.527999877929688 88.73300170898438,42.8120002746582"></path></g></g><g style="display: block;" transform="matrix(1,0,0,1,134.21701049804688,244.3470001220703)" opacity="1"><g opacity="1" transform="matrix(1,0,0,1,0,0)"><path fill="rgb(255,209,64)" fill-opacity="1" d=" M26.35700035095215,43.7130012512207 C18.533000946044922,46.909000396728516 15.361000061035156,3.437999963760376 13.392000198364258,-25.9950008392334 C10.392999649047852,-51.02899932861328 6.73199987411499,-67.78800201416016 -8.79699993133545,-67.58200073242188 C-31.833999633789062,-67.2770004272461 -26.35099983215332,-27.836999893188477 -24.235000610351562,-1.628999948501587 C-21.825000762939453,22.81100082397461 -19.518999099731445,51.71500015258789 -18.222000122070312,67.58300018310547"></path></g></g><g style="display: block;" transform="matrix(1,0,0,1,129.0709991455078,204.7790069580078)" opacity="1"><g opacity="1" transform="matrix(1,0,0,1,0,0)"><path fill="rgb(255,223,121)" fill-opacity="1" d=" M-13.190999984741211,-0.8970000147819519 C-13.190999984741211,-0.8970000147819519 -7.921000003814697,-14.625 -0.41100001335144043,-10.25100040435791 C7.099999904632568,-5.876999855041504 12.649999618530273,17.375999450683594 15.928999900817871,26.72100067138672 C15.928999900817871,26.72100067138672 21.875999450683594,-19.334999084472656 -2.0309998989105225,-25.834999084472656 C-25.937999725341797,-32.33599853515625 -13.190999984741211,-0.8970000147819519 -13.190999984741211,-0.8970000147819519"></path></g></g><g style="display: block;" transform="matrix(1,0,0,1,271.56500244140625,321.458984375)" opacity="1"><g opacity="1" transform="matrix(1,0,0,1,0,0)"><path fill="rgb(255,177,57)" fill-opacity="1" d=" M-148.2989959716797,-143.69400024414062 C-161.56500244140625,-142.33399963378906 -167.86199951171875,-121.46199798583984 -162.21299743652344,-78.03099822998047 C-159.0570068359375,-53.68600082397461 -156.8679962158203,-25.40399932861328 -155.5659942626953,-9.539999961853027 C-155.5659942626953,-9.539999961853027 -155.56500244140625,-9.527000427246094 -155.56500244140625,-9.527000427246094 C-153.51400756835938,11.928000450134277 -139.9250030517578,5.480000019073486 -141.65699768066406,-11.053999900817871 C-143.9550018310547,-32.992000579833984 -146.93699645996094,-60.69300079345703 -148.90699768066406,-77.2239990234375 C-149.06100463867188,-78.51799774169922 -149.2220001220703,-79.86799621582031 -149.38499450683594,-81.26200103759766 C-151.25799560546875,-97.27100372314453 -153.44200134277344,-119.07499694824219 -149.5570068359375,-128.54800415039062 C-145.7899932861328,-137.7259979248047 -140.4949951171875,-139.84100341796875 -139.38600158691406,-139.968994140625 C-139.2519989013672,-139.98899841308594 -142.59500122070312,-144.2790069580078 -148.2989959716797,-143.69400024414062z"></path></g></g><g style="display: block;" transform="matrix(1,0,0,1,134.21701049804688,244.3470001220703)" opacity="1"><g opacity="1" transform="matrix(1,0,0,1,0,0)"><path stroke-linecap="round" stroke-linejoin="round" fill-opacity="0" stroke="rgb(247,126,65)" stroke-opacity="1" stroke-width="8" d=" M26.35700035095215,43.7130012512207 C18.533000946044922,46.909000396728516 15.361000061035156,3.437999963760376 13.392000198364258,-25.9950008392334 C10.392999649047852,-51.02899932861328 6.73199987411499,-67.78800201416016 -8.79699993133545,-67.58200073242188 C-31.833999633789062,-67.2770004272461 -26.35099983215332,-27.836999893188477 -24.235000610351562,-1.628999948501587 C-21.825000762939453,22.81100082397461 -19.518999099731445,51.71500015258789 -18.222000122070312,67.58300018310547"></path></g></g><g style="display: block;" transform="matrix(1,0,0,1,186.1719970703125,196.43099975585938)" opacity="1"><g opacity="1" transform="matrix(1,0,0,1,0,0)"><path fill="rgb(255,209,64)" fill-opacity="1" d=" M26.152999877929688,66.34400177001953 C16.808000564575195,67.927001953125 17.589000701904297,9.835000038146973 15.77400016784668,-24.670000076293945 C13.482000350952148,-68.22899627685547 15.043999671936035,-92.90699768066406 -5.679999828338623,-91.58000183105469 C-29.985000610351562,-90.0250015258789 -27.149999618530273,-56.59299850463867 -24.334999084472656,-5.993000030517578 C-21.481000900268555,45.29100036621094 -15.812999725341797,90.53500366210938 -25.597999572753906,91.63099670410156"></path></g></g><g style="display: block;" transform="matrix(1,0,0,1,183.64300537109375,137.0260009765625)" opacity="1"><g opacity="1" transform="matrix(1,0,0,1,0,0)"><path fill="rgb(255,223,121)" fill-opacity="1" d=" M-14.560999870300293,-9.694000244140625 C-14.560999870300293,-9.694000244140625 -9.817999839782715,-17.718000411987305 -1.1970000267028809,-7.570000171661377 C8.319000244140625,3.631999969482422 9.36400032043457,14.456999778747559 14.52400016784668,32.9739990234375 C14.52400016784668,32.9739990234375 15.871999740600586,-17.558000564575195 7.816999912261963,-27.266000747680664 C-5.494999885559082,-43.30799865722656 -15.383000373840332,-21.674999237060547 -14.560999870300293,-9.694000244140625"></path></g></g><g style="display: block;" transform="matrix(1,0,0,1,173.5,198.22999572753906)" opacity="1"><g opacity="1" transform="matrix(1,0,0,1,0,0)"><path fill="rgb(255,177,57)" fill-opacity="1" d=" M14.5,-88.2300033569336 C14.5,-88.2300033569336 0.5809999704360962,-95.35299682617188 -1.9889999628067017,-58.61199951171875 C-2.384999990463257,-52.952999114990234 -0.8569999933242798,-28.961999893188477 0.9559999704360962,-2.171999931335449 C1.0829999446868896,-0.289000004529953 1.2120000123977661,1.6089999675750732 1.3420000076293945,3.5139999389648438 C2.7909998893737793,24.798999786376953 4.34499979019165,47.13600158691406 5.210999965667725,63.00400161743164 C7.256999969482422,100.50199890136719 -14.480999946594238,93.66899871826172 -14.480999946594238,93.66899871826172 C-14.480999946594238,93.66899871826172 -4.5,88.7699966430664 -8.5,46.77000045776367 C-9.371000289916992,35.16999816894531 -10.46399974822998,20.90399932861328 -11.477999687194824,6.715000152587891 C-13.083999633789062,-15.763999938964844 -14.491000175476074,-38.04899978637695 -14.5,-49.22999954223633 C-14.515000343322754,-67.46900177001953 -13.265000343322754,-90.6520004272461 -0.00800000037997961,-93.54000091552734 C13.248000144958496,-96.4280014038086 14.5,-88.2300033569336 14.5,-88.2300033569336"></path></g></g><g style="display: block;" transform="matrix(1,0,0,1,186.1719970703125,196.43099975585938)" opacity="1"><g opacity="1" transform="matrix(1,0,0,1,0,0)"><path stroke-linecap="round" stroke-linejoin="round" fill-opacity="0" stroke="rgb(247,126,65)" stroke-opacity="1" stroke-width="8" d=" M26.152999877929688,66.34400177001953 C16.808000564575195,67.927001953125 17.589000701904297,9.835000038146973 15.77400016784668,-24.670000076293945 C13.482000350952148,-68.22899627685547 15.043999671936035,-92.90699768066406 -5.679999828338623,-91.58000183105469 C-29.985000610351562,-90.0250015258789 -27.149999618530273,-56.59299850463867 -24.334999084472656,-5.993000030517578 C-21.481000900268555,45.29100036621094 -15.812999725341797,90.53500366210938 -25.597999572753906,91.63099670410156"></path></g></g><g style="display: block;" transform="matrix(1,0,0,1,239.6479949951172,167.44200134277344)" opacity="1"><g opacity="1" transform="matrix(1,0,0,1,0,0)"><path fill="rgb(255,209,64)" fill-opacity="1" d=" M-27.322999954223633,95.33300018310547 C-16.663999557495117,94.02899932861328 -22.753999710083008,53.5099983215332 -21.621000289916992,-0.48899999260902405 C-20.62700080871582,-47.90700149536133 -21.312999725341797,-96.29100036621094 2.578000068664551,-95.31900024414062 C27.857999801635742,-94.29199981689453 21.82200050354004,-67.12899780273438 21.089000701904297,-17.648000717163086 C20.490999221801758,22.63800048828125 17.790000915527344,85.56500244140625 27.323999404907227,85.36799621582031"></path></g></g><g style="display: block;" transform="matrix(1,0,0,1,248.52700805664062,163.42800903320312)" opacity="1"><g opacity="1" transform="matrix(1,0,0,1,0,0)"><path fill="rgb(255,223,121)" fill-opacity="1" d=" M-19.04199981689453,-72.21099853515625 C-19.04199981689453,-72.21099853515625 -10.739999771118164,-79.31700134277344 -4.829999923706055,-69.14199829101562 C2.193000078201294,-57.04999923706055 -1.7259999513626099,-14.96399974822998 -1.61899995803833,8.510000228881836 C-1.5019999742507935,34.79399871826172 -5.999000072479248,98.14600372314453 19.04199981689453,93.19300079345703 C19.04199981689453,93.19300079345703 12.135000228881836,82.96099853515625 12.04800033569336,66.66300201416016 C11.970000267028809,52.198001861572266 12.255000114440918,31.236000061035156 12.444999694824219,9.579999923706055 C12.793999671936035,-30.22100067138672 12.822999954223633,-72.36599731445312 9.692999839782715,-80.83599853515625 C2.938999891281128,-99.10399627685547 -16.26799964904785,-98.66500091552734 -19.04199981689453,-72.21099853515625"></path></g></g><g style="display: block;" transform="matrix(1,0,0,1,231.927001953125,169.9219970703125)" opacity="1"><g opacity="1" transform="matrix(1,0,0,1,0,0)"><path fill="rgb(255,177,57)" fill-opacity="1" d=" M21.145999908447266,-90.09700012207031 C21.145999908447266,-90.09700012207031 5.2829999923706055,-98.62799835205078 1.5420000553131104,-69.47200012207031 C-1.0540000200271606,-49.24599838256836 -1.1970000267028809,-25.393999099731445 -0.878000020980835,5.067999839782715 C-0.8519999980926514,7.5269999504089355 -0.8240000009536743,10.029000282287598 -0.7929999828338623,12.576000213623047 C-0.7080000042915344,19.65399932861328 -0.6069999933242798,27.07699966430664 -0.5139999985694885,34.87900161743164 C0.02800000086426735,80.26200103759766 0.6819999814033508,100.7969970703125 -21.145000457763672,96.3030014038086 C-21.145000457763672,96.3030014038086 -10.335000038146973,94.24199676513672 -12.088000297546387,61.941001892089844 C-12.59000015258789,52.702999114990234 -12.892999649047852,35.94200134277344 -13.024999618530273,17.575000762939453 C-13.256999969482422,-14.842000007629395 -12.956000328063965,-52.263999938964844 -12.274999618530273,-62.17599868774414 C-11.208000183105469,-77.7040023803711 -5.443999767303467,-111.2760009765625 21.145999908447266,-90.09700012207031"></path></g></g><g style="display: block;" transform="matrix(1,0,0,1,239.6479949951172,167.44200134277344)" opacity="1"><g opacity="1" transform="matrix(1,0,0,1,0,0)"><path stroke-linecap="round" stroke-linejoin="round" fill-opacity="0" stroke="rgb(247,126,65)" stroke-opacity="1" stroke-width="8" d=" M-27.322999954223633,95.33300018310547 C-16.663999557495117,94.02899932861328 -22.753999710083008,53.5099983215332 -21.621000289916992,-0.48899999260902405 C-20.62700080871582,-47.90700149536133 -21.312999725341797,-96.29100036621094 2.578000068664551,-95.31900024414062 C27.857999801635742,-94.29199981689453 21.82200050354004,-67.12899780273438 21.089000701904297,-17.648000717163086 C20.490999221801758,22.63800048828125 17.790000915527344,85.56500244140625 27.323999404907227,85.36799621582031"></path></g></g><g style="display: block;" transform="matrix(1,0,0,1,295.1000061035156,184.30999755859375)" opacity="1"><g opacity="1" transform="matrix(1,0,0,1,0,0)"><path fill="rgb(255,209,64)" fill-opacity="1" d=" M19.062999725341797,84.29299926757812 C19.12700080871582,69.1240005493164 22.951000213623047,22.209999084472656 23.856000900268555,6.1020002365112305 C26.590999603271484,-42.5629997253418 36.59600067138672,-81.14700317382812 11.456999778747559,-84.28600311279297 C-11.46399974822998,-84.83599853515625 -10.782999992370605,-53.53200149536133 -14.41100025177002,-14.96399974822998 C-18.089000701904297,24.135000228881836 -17.179000854492188,69.80000305175781 -28.128000259399414,68.5"></path></g></g><g style="display: block;" transform="matrix(1,0,0,1,308.541015625,197.88499450683594)" opacity="1"><g opacity="1" transform="matrix(1,0,0,1,0,0)"><path fill="rgb(255,223,121)" fill-opacity="1" d=" M6.459000110626221,100.11499786376953 C-3.5409998893737793,92.11499786376953 -8.833999633789062,81.01599884033203 -6.441999912261963,42.18000030517578 C-5.724999904632568,30.534000396728516 -3.9649999141693115,12.960000038146973 -2.3499999046325684,-5.3460001945495605 C0.25,-34.82099914550781 2.4749999046325684,-66.19499969482422 -0.628000020980835,-77.78700256347656 C-5.5920000076293945,-96.33300018310547 -15.654999732971191,-89.88800048828125 -15.654999732971191,-89.88800048828125 C-15.501999855041504,-96.19999694824219 -7.539999961853027,-99.38500213623047 -1.3329999446868896,-97.89199829101562 C23.854000091552734,-91.83200073242188 12.050999641418457,-57.198001861572266 9.315999984741211,-8.524999618530273 C8.413999557495117,7.579999923706055 6.459000110626221,100.11499786376953 6.459000110626221,100.11499786376953"></path></g></g><g style="display: block;" transform="matrix(1,0,0,1,290.50299072265625,178.7570037841797)" opacity="1"><g opacity="1" transform="matrix(1,0,0,1,0,0)"><path fill="rgb(255,177,57)" fill-opacity="1" d=" M25.503000259399414,-69.06099700927734 C25.503000259399414,-69.06099700927734 11.458000183105469,-76.26300048828125 6.314000129699707,-52.380001068115234 C3.6489999294281006,-40.012001037597656 2.2769999504089355,-24.75200080871582 1.2669999599456787,-9.081999778747559 C1.2100000381469727,-8.190999984741211 1.152999997138977,-7.297999858856201 1.0980000495910645,-6.4039998054504395 C0.061000000685453415,10.345000267028809 -0.6259999871253967,27.400999069213867 -2.0929999351501465,41.75400161743164 C-5.144999980926514,71.59400177001953 -7.691999912261963,81.27400207519531 -25.503000259399414,77.24299621582031 C-25.503000259399414,77.24299621582031 -16.7450008392334,78.83699798583984 -14.722000122070312,56.85900115966797 C-13.883000373840332,47.75299835205078 -12.07800006866455,18.424999237060547 -10.220000267028809,-7.420000076293945 C-8.89799976348877,-25.808000564575195 -7.548999786376953,-42.43199920654297 -6.502999782562256,-48.75699996948242 C-3.984999895095825,-63.972999572753906 -1.2000000476837158,-81.77899932861328 16.000999450683594,-77.4520034790039 C22.94099998474121,-75.70500183105469 25.503000259399414,-69.06099700927734 25.503000259399414,-69.06099700927734"></path></g></g><g style="display: block;" transform="matrix(1,0,0,1,295.1000061035156,184.30999755859375)" opacity="1"><g opacity="1" transform="matrix(1,0,0,1,0,0)"><path stroke-linecap="round" stroke-linejoin="round" fill-opacity="0" stroke="rgb(247,126,65)" stroke-opacity="1" stroke-width="8" d=" M19.062999725341797,84.29299926757812 C19.12700080871582,69.1240005493164 22.951000213623047,22.209999084472656 23.856000900268555,6.1020002365112305 C26.590999603271484,-42.5629997253418 36.59600067138672,-81.14700317382812 11.456999778747559,-84.28600311279297 C-11.46399974822998,-84.83599853515625 -10.782999992370605,-53.53200149536133 -14.41100025177002,-14.96399974822998 C-18.089000701904297,24.135000228881836 -17.179000854492188,69.80000305175781 -28.128000259399414,68.5"></path></g></g><g style="display: block;" transform="matrix(1,0,0,1,294.83001708984375,357.9230041503906)" opacity="1"><g opacity="1" transform="matrix(1,0,0,1,0,0)"><path fill="rgb(255,223,121)" fill-opacity="1" d=" M6.215000152587891,-33.88600158691406 C-27.6560001373291,-30.106000900268555 -46.6879997253418,-8.937000274658203 -50.4640007019043,9.45300006866455 C-54.875,30.94099998474121 -35.73500061035156,41.57699966430664 -20.020000457763672,29.72800064086914 C-3.635999917984009,17.374000549316406 9.97700023651123,2.9779999256134033 24.89299964904785,-4.291999816894531 C37.94499969482422,-10.652999877929688 51.79499816894531,-15.79800033569336 51.03900146484375,-24.114999771118164 C50.34199905395508,-31.781999588012695 31.742000579833984,-36.73400115966797 6.215000152587891,-33.88600158691406z"></path></g></g><g style="display: block;" transform="matrix(1,0,0,1,397.156982421875,296.7929992675781)" opacity="1"><g opacity="1" transform="matrix(1,0,0,1,1.8389999866485596,0.6830000281333923)"><path fill="rgb(255,223,121)" fill-opacity="1" d=" M23.18400001525879,-6.354000091552734 C14.791999816894531,-11.015000343322754 -3.3320000171661377,-14.845999717712402 -14.413000106811523,-8.42199993133545 C-23.91200065612793,-2.9159998893737793 -31.573999404907227,3.01200008392334 -25.500999450683594,10.064000129699707 C-20.395000457763672,15.993000030517578 -11.822999954223633,5.071000099182129 9.989999771118164,4.328000068664551 C31.801000595092773,3.5850000381469727 29.767000198364258,-1.406000018119812 23.18400001525879,-6.354000091552734"></path></g></g><g style="display: block;" transform="matrix(1,0,0,1,222.35899353027344,295.39599609375)" opacity="1"><g opacity="1" transform="matrix(1,0,0,1,0,0)"><path fill="rgb(255,223,121)" fill-opacity="1" d=" M8.736000061035156,-21.158000946044922 C-23.82200050354004,-15.0649995803833 -61.73699951171875,6.085000038146973 -58.80500030517578,18.190000534057617 C-55.87200164794922,30.295000076293945 -35.361000061035156,15.291000366210938 -14.357999801635742,8.496000289916992 C6.886000156402588,1.6230000257492065 21.433000564575195,0.9520000219345093 32.987998962402344,0.37700000405311584 C46.19499969482422,-0.28200000524520874 56.95399856567383,0.02800000086426735 58.82899856567383,-7.309000015258789 C60.70399856567383,-14.645999908447266 41.29100036621094,-27.25 8.736000061035156,-21.158000946044922z"></path></g></g><g style="display: block;" transform="matrix(1,0,0,1,177.0760040283203,375.9169921875)" opacity="1"><g opacity="1" transform="matrix(1,0,0,1,0,0)"><path fill="rgb(255,223,121)" fill-opacity="1" d=" M-11.293000221252441,-31.573999404907227 C-15.024999618530273,-40.67100143432617 -25.65999984741211,-42.92100143432617 -29.1560001373291,-29.18400001525879 C-32.652000427246094,-15.446999549865723 -24.121999740600586,8.008000373840332 -15.461999893188477,17.983999252319336 C-1.1089999675750732,34.52199935913086 20.645999908447266,45.608001708984375 28.649999618530273,34.402000427246094 C34.42300033569336,26.31999969482422 19.423999786376953,21.583999633789062 4.732999801635742,0.02500000037252903 C-1.6619999408721924,-9.359000205993652 -7.560999870300293,-22.476999282836914 -11.293000221252441,-31.573999404907227z"></path></g></g><g style="display: block;" transform="matrix(1,0,0,1,275.69000244140625,365.69000244140625)" opacity="1"><g opacity="1" transform="matrix(1,0,0,1,0,0)"><path stroke-linecap="round" stroke-linejoin="round" fill-opacity="0" stroke="rgb(247,126,65)" stroke-opacity="1" stroke-width="8" d=" M38.472999572753906,-97.08699798583984 C37.07699966430664,-72.10800170898438 38.292999267578125,-63.2599983215332 44.025001525878906,-59.19499969482422 C48.26599884033203,-55.624000549316406 55.22700119018555,-52.643001556396484 61.770999908447266,-54.20600128173828"></path></g></g><g style="display: block;" transform="matrix(1,0,0,1,275.69000244140625,365.69000244140625)" opacity="1"><g opacity="1" transform="matrix(1,0,0,1,0,0)"><path stroke-linecap="round" stroke-linejoin="round" fill-opacity="0" stroke="rgb(247,126,65)" stroke-opacity="1" stroke-width="8" d=" M61.770999908447266,-54.20600128173828 C78.34400177001953,-58.16299819946289 87.27799987792969,-74.97799682617188 102.37300109863281,-82.93599700927734 C117.46800231933594,-90.8949966430664 153.4010009765625,-86.61499786376953 158.68499755859375,-66.67900085449219 C163.97000122070312,-46.744998931884766 147.5590057373047,-43.387001037597656 131.8300018310547,-37.95100021362305 C109.51200103759766,-29.28499984741211 96.15899658203125,-14.100000381469727 85.44000244140625,-0.41999998688697815 C72.96700286865234,16.479000091552734 67.88300323486328,23.613000869750977 49.99399948120117,48.70899963378906 C31.996999740600586,76.18399810791016 3.5889999866485596,91.35600280761719 -23.604000091552734,95.54100036621094 C-50.189998626708984,99.63300323486328 -91.1520004272461,96.83699798583984 -118.86799621582031,71.8550033569336 C-151.85899353027344,42.119998931884766 -156.82899475097656,-27.280000686645508 -159.6959991455078,-53.75699996948242"></path></g></g><g style="display: block;" transform="matrix(1,0,0,1,272.6969909667969,344.5559997558594)" opacity="1"><g opacity="1" transform="matrix(1,0,0,1,0,0)"><path stroke-linecap="round" stroke-linejoin="round" fill-opacity="0" stroke="rgb(255,255,255)" stroke-opacity="1" stroke-width="6" d=" M-9.98799991607666,7.50600004196167 C-8.368000030517578,4.834000110626221 2.0920000076293945,-4.251999855041504 9.98799991607666,-7.50600004196167"></path></g></g><g style="display: block;" transform="matrix(1,0,0,1,294.3079833984375,331.50201416015625)" opacity="1"><g opacity="1" transform="matrix(1,0,0,1,0,0)"><path stroke-linecap="round" stroke-linejoin="round" fill-opacity="0" stroke="rgb(255,255,255)" stroke-opacity="1" stroke-width="6" d=" M1.1119999885559082,-0.4129999876022339 C1.1119999885559082,-0.4129999876022339 -1.1119999885559082,0.4129999876022339 -1.1119999885559082,0.4129999876022339"></path></g></g><g style="display: block;" transform="matrix(1,0,0,1,245.77200317382812,95.27801513671875)" opacity="1"><g opacity="1" transform="matrix(1,0,0,1,0,0)"><path stroke-linecap="round" stroke-linejoin="round" fill-opacity="0" stroke="rgb(255,255,255)" stroke-opacity="1" stroke-width="6" d=" M-1.315999984741211,-2.7049999237060547 C0.4860000014305115,-1.3300000429153442 1.1360000371932983,1.5299999713897705 1.315999984741211,2.7049999237060547"></path></g></g></g></svg>