<svg xmlns="http://www.w3.org/2000/svg" viewBox="0 0 512 512" width="512" height="512" style="width: 100%; height: 100%; transform: translate3d(0,0,0);" preserveAspectRatio="xMidYMid meet"><defs><clipPath id="__lottie_element_2089"><rect width="512" height="512" x="0" y="0"></rect></clipPath><radialGradient id="__lottie_element_2094" spreadMethod="pad" gradientUnits="userSpaceOnUse"><stop></stop><stop></stop><stop></stop></radialGradient><radialGradient id="__lottie_element_2095" spreadMethod="pad" gradientUnits="userSpaceOnUse"><stop></stop><stop></stop><stop></stop><stop></stop><stop></stop></radialGradient><radialGradient id="__lottie_element_2096" spreadMethod="pad" gradientUnits="userSpaceOnUse"><stop></stop><stop></stop><stop></stop><stop></stop><stop></stop></radialGradient><radialGradient id="__lottie_element_2101" spreadMethod="pad" gradientUnits="userSpaceOnUse"><stop></stop><stop></stop><stop></stop></radialGradient><radialGradient id="__lottie_element_2102" spreadMethod="pad" gradientUnits="userSpaceOnUse"><stop></stop><stop></stop><stop></stop><stop></stop><stop></stop></radialGradient><radialGradient id="__lottie_element_2103" spreadMethod="pad" gradientUnits="userSpaceOnUse"><stop></stop><stop></stop><stop></stop><stop></stop><stop></stop></radialGradient><radialGradient id="__lottie_element_2108" spreadMethod="pad" gradientUnits="userSpaceOnUse" cx="54" cy="-7" r="134.04372346419854" fx="54" fy="-7"><stop offset="0%" stop-color="rgb(255,158,0)"></stop><stop offset="84%" stop-color="rgb(255,142,0)"></stop><stop offset="100%" stop-color="rgb(255,125,0)"></stop></radialGradient><radialGradient id="__lottie_element_2109" spreadMethod="pad" gradientUnits="userSpaceOnUse" cx="48" cy="-12" r="137.11791602168515" fx="48" fy="-12"><stop offset="19%" stop-color="rgb(254,247,128)"></stop><stop offset="48%" stop-color="rgb(254,226,128)"></stop><stop offset="73%" stop-color="rgb(255,205,128)"></stop><stop offset="75%" stop-color="rgb(255,203,128)"></stop><stop offset="78%" stop-color="rgb(255,202,128)"></stop></radialGradient><radialGradient id="__lottie_element_2110" spreadMethod="pad" gradientUnits="userSpaceOnUse" cx="49.5" cy="-12.5" r="136.11792271901905" fx="49.5" fy="-12.5"><stop offset="19%" stop-color="rgb(253,238,0)"></stop><stop offset="48%" stop-color="rgb(254,197,0)"></stop><stop offset="73%" stop-color="rgb(255,155,0)"></stop><stop offset="76%" stop-color="rgb(255,152,0)"></stop><stop offset="78%" stop-color="rgb(255,149,0)"></stop></radialGradient><radialGradient id="__lottie_element_2115" spreadMethod="pad" gradientUnits="userSpaceOnUse"><stop></stop><stop></stop><stop></stop></radialGradient><radialGradient id="__lottie_element_2116" spreadMethod="pad" gradientUnits="userSpaceOnUse"><stop></stop><stop></stop><stop></stop><stop></stop><stop></stop></radialGradient><radialGradient id="__lottie_element_2117" spreadMethod="pad" gradientUnits="userSpaceOnUse"><stop></stop><stop></stop><stop></stop><stop></stop><stop></stop></radialGradient><radialGradient id="__lottie_element_2122" spreadMethod="pad" gradientUnits="userSpaceOnUse"><stop></stop><stop></stop><stop></stop></radialGradient><radialGradient id="__lottie_element_2123" spreadMethod="pad" gradientUnits="userSpaceOnUse"><stop></stop><stop></stop><stop></stop><stop></stop><stop></stop></radialGradient><radialGradient id="__lottie_element_2124" spreadMethod="pad" gradientUnits="userSpaceOnUse"><stop></stop><stop></stop><stop></stop><stop></stop><stop></stop></radialGradient><radialGradient id="__lottie_element_2129" spreadMethod="pad" gradientUnits="userSpaceOnUse"><stop></stop><stop></stop><stop></stop></radialGradient><radialGradient id="__lottie_element_2130" spreadMethod="pad" gradientUnits="userSpaceOnUse"><stop></stop><stop></stop><stop></stop><stop></stop><stop></stop></radialGradient><radialGradient id="__lottie_element_2131" spreadMethod="pad" gradientUnits="userSpaceOnUse"><stop></stop><stop></stop><stop></stop><stop></stop><stop></stop></radialGradient><radialGradient id="__lottie_element_2136" spreadMethod="pad" gradientUnits="userSpaceOnUse" cx="0" cy="0" r="63.16999816894531" fx="0" fy="0"><stop offset="0%" stop-color="rgb(255,158,0)"></stop><stop offset="84%" stop-color="rgb(255,142,0)"></stop><stop offset="100%" stop-color="rgb(255,125,0)"></stop></radialGradient><radialGradient id="__lottie_element_2137" spreadMethod="pad" gradientUnits="userSpaceOnUse" cx="-1" cy="-1" r="33.13209512549311" fx="-1" fy="-1"><stop offset="19%" stop-color="rgb(254,247,128)"></stop><stop offset="48%" stop-color="rgb(254,226,128)"></stop><stop offset="73%" stop-color="rgb(255,205,128)"></stop><stop offset="75%" stop-color="rgb(255,203,128)"></stop><stop offset="78%" stop-color="rgb(255,202,128)"></stop></radialGradient><radialGradient id="__lottie_element_2138" spreadMethod="pad" gradientUnits="userSpaceOnUse" cx="0.5" cy="0.5" r="31.620953901886363" fx="0.5" fy="0.5"><stop offset="19%" stop-color="rgb(253,238,0)"></stop><stop offset="48%" stop-color="rgb(254,197,0)"></stop><stop offset="73%" stop-color="rgb(255,155,0)"></stop><stop offset="76%" stop-color="rgb(255,152,0)"></stop><stop offset="78%" stop-color="rgb(255,149,0)"></stop></radialGradient><radialGradient id="__lottie_element_2143" spreadMethod="pad" gradientUnits="userSpaceOnUse"><stop></stop><stop></stop><stop></stop></radialGradient><radialGradient id="__lottie_element_2144" spreadMethod="pad" gradientUnits="userSpaceOnUse"><stop></stop><stop></stop><stop></stop><stop></stop><stop></stop></radialGradient><radialGradient id="__lottie_element_2145" spreadMethod="pad" gradientUnits="userSpaceOnUse"><stop></stop><stop></stop><stop></stop><stop></stop><stop></stop></radialGradient><radialGradient id="__lottie_element_2150" spreadMethod="pad" gradientUnits="userSpaceOnUse"><stop></stop><stop></stop><stop></stop></radialGradient><radialGradient id="__lottie_element_2151" spreadMethod="pad" gradientUnits="userSpaceOnUse"><stop></stop><stop></stop><stop></stop><stop></stop><stop></stop></radialGradient><radialGradient id="__lottie_element_2152" spreadMethod="pad" gradientUnits="userSpaceOnUse"><stop></stop><stop></stop><stop></stop><stop></stop><stop></stop></radialGradient><radialGradient id="__lottie_element_2157" spreadMethod="pad" gradientUnits="userSpaceOnUse" cx="0" cy="0" r="63.16999816894531" fx="0" fy="0"><stop offset="0%" stop-color="rgb(255,158,0)"></stop><stop offset="84%" stop-color="rgb(255,142,0)"></stop><stop offset="100%" stop-color="rgb(255,125,0)"></stop></radialGradient><radialGradient id="__lottie_element_2158" spreadMethod="pad" gradientUnits="userSpaceOnUse" cx="-1" cy="-1" r="33.13209512549311" fx="-1" fy="-1"><stop offset="19%" stop-color="rgb(254,247,128)"></stop><stop offset="48%" stop-color="rgb(254,226,128)"></stop><stop offset="73%" stop-color="rgb(255,205,128)"></stop><stop offset="75%" stop-color="rgb(255,203,128)"></stop><stop offset="78%" stop-color="rgb(255,202,128)"></stop></radialGradient><radialGradient id="__lottie_element_2159" spreadMethod="pad" gradientUnits="userSpaceOnUse" cx="0.5" cy="0.5" r="41.12004057247595" fx="0.5" fy="0.5"><stop offset="19%" stop-color="rgb(253,238,0)"></stop><stop offset="48%" stop-color="rgb(254,197,0)"></stop><stop offset="73%" stop-color="rgb(255,155,0)"></stop><stop offset="76%" stop-color="rgb(255,152,0)"></stop><stop offset="78%" stop-color="rgb(255,149,0)"></stop></radialGradient><radialGradient id="__lottie_element_2164" spreadMethod="pad" gradientUnits="userSpaceOnUse"><stop></stop><stop></stop><stop></stop></radialGradient><radialGradient id="__lottie_element_2165" spreadMethod="pad" gradientUnits="userSpaceOnUse"><stop></stop><stop></stop><stop></stop><stop></stop><stop></stop></radialGradient><radialGradient id="__lottie_element_2166" spreadMethod="pad" gradientUnits="userSpaceOnUse"><stop></stop><stop></stop><stop></stop><stop></stop><stop></stop></radialGradient></defs><g clip-path="url(#__lottie_element_2089)"><g style="display: none;"><g><path fill="url(#__lottie_element_2164)"></path></g><g><path fill="url(#__lottie_element_2165)"></path></g><g><path fill="url(#__lottie_element_2166)"></path></g><g><path stroke-linecap="round" stroke-linejoin="round" fill-opacity="0"></path></g></g><g style="display: block;" transform="matrix(1,0,0,1,130,132.2010040283203)" opacity="1"><g opacity="1" transform="matrix(1,0,0,1,0,0)"><path fill="url(#__lottie_element_2157)" fill-opacity="1" d=" M0,-92.88500213623047 C-3.259000062942505,-51.48099899291992 -4.888000011444092,-30.87700080871582 -12.39900016784668,-19.315000534057617 C-19.90999984741211,-7.752999782562256 -33.30400085449219,-5.234000205993652 -60.09199905395508,0 C-33.30500030517578,5.038000106811523 -19.910999298095703,7.557000160217285 -12.399999618530273,19.167999267578125 C-4.888999938964844,30.77899932861328 -3.259000062942505,51.48099899291992 0,92.88500213623047 C3.259000062942505,51.48099899291992 4.915999889373779,30.77899932861328 12.440999984741211,19.167999267578125 C19.965999603271484,7.557000160217285 33.35900115966797,5.038000106811523 60.09199905395508,0 C33.30500030517578,-5.038000106811523 19.910999298095703,-7.557000160217285 12.399999618530273,-19.167999267578125 C4.888999938964844,-30.77899932861328 3.259000062942505,-51.48099899291992 0,-92.88500213623047z"></path></g><g opacity="1" transform="matrix(1,0,0,1,0,0)"><path fill="url(#__lottie_element_2158)" fill-opacity="1" d=" M-0.014000000432133675,-27.865999221801758 C-1.4780000448226929,-22.88599967956543 -3.2699999809265137,-18.738000869750977 -5.553999900817871,-15.168999671936035 C-10.307000160217285,-7.742000102996826 -16.641000747680664,-3.3389999866485596 -25.424999237060547,-0.08299999684095383 C-16.724000930786133,3.125999927520752 -10.425000190734863,7.493000030517578 -5.684000015258789,14.821999549865723 C-3.325000047683716,18.468000411987305 -1.4859999418258667,22.72100067138672 0.010999999940395355,27.856000900268555 C1.5110000371932983,22.73200035095215 3.3550000190734863,18.47800064086914 5.71999979019165,14.82699966430664 C10.423999786376953,7.563000202178955 16.64900016784668,3.2100000381469727 25.224000930786133,0.00800000037997961 C16.62700080871582,-3.194000005722046 10.388999938964844,-7.548999786376953 5.684000015258789,-14.821000099182129 C3.3239998817443848,-18.4689998626709 1.4830000400543213,-22.726999282836914 -0.014000000432133675,-27.865999221801758z"></path></g><g opacity="1" transform="matrix(1,0,0,1,0,0)"><path fill="url(#__lottie_element_2159)" fill-opacity="1" d=" M-0.014000000432133675,-27.865999221801758 C-2.296999931335449,-20.100000381469727 -4.335000038146973,-14.017000198364258 -6.864999771118164,-9.444000244140625 C-9.395000457763672,-4.870999813079834 -12.416999816894531,-1.809000015258789 -16.66699981689453,-0.08299999684095383 C-11.79699993133545,3.299999952316284 -8.758000373840332,6.4079999923706055 -6.370999813079834,10.609000205993652 C-3.9839999675750732,14.8100004196167 -2.249000072479248,20.10300064086914 0.010999999940395355,27.856000900268555 C2.2790000438690186,20.108999252319336 5.388000011444092,14.34000015258789 9.527000427246094,9.91100025177002 C13.666000366210938,5.48199987411499 18.834999084472656,2.3929998874664307 25.224000930786133,0.00800000037997961 C18.805999755859375,-2.381999969482422 13.625,-5.473999977111816 9.484999656677246,-9.906999588012695 C5.34499979019165,-14.34000015258789 2.24399995803833,-20.113000869750977 -0.014000000432133675,-27.865999221801758z"></path></g><g opacity="1" transform="matrix(1,0,0,1,0,0)"><path stroke-linecap="round" stroke-linejoin="round" fill-opacity="0" stroke="rgb(255,255,255)" stroke-opacity="1" stroke-width="6" d=" M-7.321000099182129,-8.645000457763672 C-7.166999816894531,-8.906000137329102 -7.014999866485596,-9.17199993133545 -6.864999771118164,-9.444000244140625 C-6.552000045776367,-10.008999824523926 -6.247000217437744,-10.597999572753906 -5.947999954223633,-11.208999633789062"></path></g></g><g style="display: none;"><g><path fill="url(#__lottie_element_2150)"></path></g><g><path fill="url(#__lottie_element_2151)"></path></g><g><path fill="url(#__lottie_element_2152)"></path></g><g><path stroke-linecap="round" stroke-linejoin="round" fill-opacity="0"></path></g></g><g style="display: none;"><g><path fill="url(#__lottie_element_2143)"></path></g><g><path fill="url(#__lottie_element_2144)"></path></g><g><path fill="url(#__lottie_element_2145)"></path></g><g><path stroke-linecap="round" stroke-linejoin="round" fill-opacity="0"></path></g></g><g style="display: block;" transform="matrix(1,0,0,1,186,354.2149963378906)" opacity="1"><g opacity="1" transform="matrix(1,0,0,1,0,0)"><path fill="url(#__lottie_element_2136)" fill-opacity="1" d=" M0,-73.8550033569336 C-3.253999948501587,-40.93299865722656 -4.88100004196167,-24.551000595092773 -12.380000114440918,-15.357999801635742 C-19.878999710083008,-6.164999961853027 -33.250999450683594,-4.1620001792907715 -59.99700164794922,0 C-33.25199890136719,4.005000114440918 -19.881000518798828,6.007999897003174 -12.380999565124512,15.239999771118164 C-4.88100004196167,24.472000122070312 -3.253999948501587,40.93299865722656 0,73.8550033569336 C3.253999948501587,40.93299865722656 4.9079999923706055,24.472000122070312 12.420999526977539,15.239999771118164 C19.93400001525879,6.007999897003174 33.305999755859375,4.005000114440918 59.99700164794922,0 C33.25199890136719,-4.005000114440918 19.881000518798828,-6.007999897003174 12.380999565124512,-15.239999771118164 C4.88100004196167,-24.472000122070312 3.253999948501587,-40.93299865722656 0,-73.8550033569336z"></path></g><g opacity="1" transform="matrix(1,0,0,1,0,0)"><path fill="url(#__lottie_element_2137)" fill-opacity="1" d=" M-0.013000000268220901,-21.584999084472656 C-2.0369999408721924,-15.956999778747559 -4.710999965667725,-11.569999694824219 -8.156999588012695,-8.093999862670898 C-11.602999687194824,-4.617000102996826 -15.819999694824219,-2.0510001182556152 -20.92799949645996,-0.06800000369548798 C-15.762999534606934,1.934999942779541 -11.531999588012695,4.534999847412109 -8.09000015258789,8.039999961853027 C-4.6479997634887695,11.545000076293945 -1.996000051498413,15.954000473022461 0.009999999776482582,21.57699966430664 C2.0429999828338623,15.904999732971191 4.7270002365112305,11.496000289916992 8.156999588012695,8.013999938964844 C11.586999893188477,4.5320000648498535 15.76200008392334,1.9759999513626099 20.774999618530273,0.00800000037997961 C15.663999557495117,-1.9919999837875366 11.467000007629395,-4.585999965667725 8.04800033569336,-8.081999778747559 C4.629000186920166,-11.57800006866455 1.9869999885559082,-15.97700023651123 -0.013000000268220901,-21.584999084472656z"></path></g><g opacity="1" transform="matrix(1,0,0,1,0,0)"><path fill="url(#__lottie_element_2138)" fill-opacity="1" d=" M0.014999999664723873,21.57699966430664 C2.2279999256134033,16.847999572753906 4.848999977111816,12.199999809265137 8.201000213623047,8.36299991607666 C11.553000450134277,4.526000022888184 15.63599967956543,1.5 20.774999618530273,0.014000000432133675 C16.52199935913086,-1.159000039100647 12.069000244140625,-2.9230000972747803 8.305000305175781,-5.0269999504089355 C4.540999889373779,-7.13100004196167 1.465999960899353,-9.574999809265137 -0.03099999949336052,-12.109000205993652 C-1.531999945640564,-9.595000267028809 -3.250999927520752,-7.355000019073486 -5.2179999351501465,-5.357999801635742 C-7.184999942779541,-3.3610000610351562 -9.39900016784668,-1.6080000400543213 -11.890999794006348,-0.06800000369548798 C-9.38700008392334,1.4819999933242798 -7.060999870300293,4.801000118255615 -5.035999774932861,8.779000282287598 C-3.010999917984009,12.756999969482422 -1.2860000133514404,17.39299964904785 0.014999999664723873,21.57699966430664z"></path></g></g><g style="display: none;"><g><path fill="url(#__lottie_element_2129)"></path></g><g><path fill="url(#__lottie_element_2130)"></path></g><g><path fill="url(#__lottie_element_2131)"></path></g></g><g style="display: none;"><g><path fill="url(#__lottie_element_2122)"></path></g><g><path fill="url(#__lottie_element_2123)"></path></g><g><path fill="url(#__lottie_element_2124)"></path></g></g><g style="display: none;"><g><path fill="url(#__lottie_element_2115)"></path></g><g><path fill="url(#__lottie_element_2116)"></path></g><g><path fill="url(#__lottie_element_2117)"></path></g></g><g style="display: block;" transform="matrix(1,0,0,1,256,254.00099182128906)" opacity="1"><g opacity="1" transform="matrix(1,0,0,1,0,0)"><path fill="url(#__lottie_element_2108)" fill-opacity="1" d=" M49,-196.43699645996094 C41.62200164794922,-114.36599731445312 37.933998107910156,-73.5250015258789 20.93000030517578,-50.608001708984375 C3.9260001182556152,-27.69099998474121 -26.393999099731445,-22.697999954223633 -87.03800201416016,-12.322999954223633 C-26.39699935913086,-2.3369998931884766 3.9230000972747803,2.6549999713897705 20.92799949645996,25.66900062561035 C37.93299865722656,48.68299865722656 41.62200164794922,89.71900177001953 49,171.7899932861328 C56.37799835205078,89.71900177001953 60.12799835205078,48.68299865722656 77.16300201416016,25.66900062561035 C94.197998046875,2.6549999713897705 124.51899719238281,-2.3369998931884766 185.03799438476562,-12.322999954223633 C124.39700317382812,-22.30900001525879 94.0770034790039,-27.302000045776367 77.0719985961914,-50.316001892089844 C60.06700134277344,-73.33000183105469 56.37799835205078,-114.36599731445312 49,-196.43699645996094z"></path></g><g opacity="1" transform="matrix(1,0,0,1,0,0)"><path fill="url(#__lottie_element_2109)" fill-opacity="1" d=" M49.00400161743164,92.40399932861328 C44.47800064086914,58.16699981689453 38.709999084472656,36.27399826049805 27.36199951171875,20.915000915527344 C13.5600004196167,2.2360000610351562 -6.896999835968018,-5.579999923706055 -41.255001068115234,-12.442999839782715 C-6.859000205993652,-19.457000732421875 13.54800033569336,-27.233999252319336 27.354999542236328,-45.840999603271484 C38.70500183105469,-61.137001037597656 44.474998474121094,-82.94999694824219 48.99599838256836,-117.052001953125 C53.52199935913086,-82.81500244140625 59.290000915527344,-60.91999816894531 70.63800048828125,-45.5620002746582 C84.36499786376953,-26.985000610351562 104.67400360107422,-19.152000427246094 138.69500732421875,-12.3149995803833 C104.73799896240234,-5.4770002365112305 84.46800231933594,2.3519999980926514 70.73300170898438,20.909000396728516 C59.32600021362305,36.319000244140625 53.5359992980957,58.21099853515625 49.00400161743164,92.40399932861328z"></path></g><g opacity="1" transform="matrix(1,0,0,1,0,0)"><path fill="url(#__lottie_element_2110)" fill-opacity="1" d=" M49.064998626708984,92.40399932861328 C43.03300094604492,52.86800003051758 36.6609992980957,29.375 27.73900032043457,14.407999992370605 C18.816999435424805,-0.5590000152587891 7.3420000076293945,-6.999000072479248 -8.894000053405762,-12.430000305175781 C6.563000202178955,-17.542999267578125 18.48699951171875,-24.084999084472656 27.81399917602539,-33.854000091552734 C37.14099884033203,-43.62300109863281 43.87300109863281,-56.61899948120117 48.94900131225586,-74.63800048828125 C53.637001037597656,-57.76100158691406 64.08799743652344,-44.85200119018555 79.48400115966797,-34.832000732421875 C94.87999725341797,-24.812000274658203 115.2229995727539,-17.680999755859375 139.69500732421875,-12.362000465393066 C103.8479995727539,-5.806000232696533 83.17400360107422,5.867000102996826 70.47000122070312,23.160999298095703 C57.76599884033203,40.45500183105469 53.03300094604492,63.36800003051758 49.064998626708984,92.40399932861328z"></path></g><g opacity="1" transform="matrix(1,0,0,1,0,0)"><path stroke-linecap="round" stroke-linejoin="round" fill-opacity="0" stroke-dasharray=" 2 10 10 50" stroke-dashoffset="0" stroke="rgb(255,255,255)" stroke-opacity="1" stroke-width="6" d=" M18.148000717163086,-25.490999221801758 C21.649999618530273,-27.993000030517578 24.86199951171875,-30.761999130249023 27.81399917602539,-33.854000091552734 C36.99700164794922,-43.47200012207031 43.66400146484375,-56.21799850463867 48.71200180053711,-73.80500030517578"></path></g></g><g style="display: none;"><g><path fill="url(#__lottie_element_2101)"></path></g><g><path fill="url(#__lottie_element_2102)"></path></g><g><path fill="url(#__lottie_element_2103)"></path></g><g><path stroke-linecap="round" stroke-linejoin="round" fill-opacity="0"></path></g></g><g style="display: none;"><g><path fill="url(#__lottie_element_2094)"></path></g><g><path fill="url(#__lottie_element_2095)"></path></g><g><path fill="url(#__lottie_element_2096)"></path></g><g><path stroke-linecap="round" stroke-linejoin="round" fill-opacity="0"></path></g></g></g></svg>