<svg xmlns="http://www.w3.org/2000/svg" viewBox="0 0 512 512" width="512" height="512" style="width: 100%; height: 100%; transform: translate3d(0,0,0);" preserveAspectRatio="xMidYMid meet"><defs><clipPath id="__lottie_element_12199"><rect width="512" height="512" x="0" y="0"></rect></clipPath></defs><g clip-path="url(#__lottie_element_12199)"><g style="display: block;" transform="matrix(1,0,0,1,13.26300048828125,2.7169952392578125)" opacity="1"><g opacity="1" transform="matrix(1,0,0,1,0,0)"><g opacity="0.1" transform="matrix(1,0,0,1,242.73599243164062,260.16900634765625)"><path fill="rgb(0,0,0)" fill-opacity="1" d=" M227.80299377441406,0 C227.80299377441406,125.81199645996094 125.81199645996094,227.802001953125 0,227.802001953125 C-125.81099700927734,227.802001953125 -227.802001953125,125.81199645996094 -227.802001953125,0 C-227.802001953125,-125.81199645996094 -125.81099700927734,-227.802001953125 0,-227.802001953125 C125.81199645996094,-227.802001953125 227.80299377441406,-125.81199645996094 227.80299377441406,0z"></path></g><g opacity="1" transform="matrix(1,0,0,1,242.73699951171875,242.73699951171875)"><path fill="rgb(255,176,57)" fill-opacity="1" d=" M219.4929962158203,-0.0010000000474974513 C219.4929962158203,121.2229995727539 121.22200012207031,219.49400329589844 -0.0010000000474974513,219.49400329589844 C-121.2229995727539,219.49400329589844 -219.4929962158203,121.2229995727539 -219.4929962158203,-0.0010000000474974513 C-219.4929962158203,-121.2229995727539 -121.2229995727539,-219.49400329589844 -0.0010000000474974513,-219.49400329589844 C121.22200012207031,-219.49400329589844 219.4929962158203,-121.2229995727539 219.4929962158203,-0.0010000000474974513z"></path></g><g opacity="1" transform="matrix(1,0,0,1,242.80099487304688,240.56700134277344)"><path fill="rgb(255,209,64)" fill-opacity="1" d=" M195.64300537109375,2.996999979019165 C193.9510040283203,113.43099975585938 104.98699951171875,201.61300659179688 -3.063999891281128,199.95700073242188 C-111.11399841308594,198.3000030517578 -197.33599853515625,107.43499755859375 -195.64300537109375,-3 C-193.9510040283203,-113.43199920654297 -104.98600006103516,-201.61300659179688 3.065999984741211,-199.95700073242188 C111.11499786376953,-198.30099487304688 197.33599853515625,-107.43599700927734 195.64300537109375,2.996999979019165z"></path><path fill="rgb(255,209,64)" fill-opacity="1" d=" M195.64300537109375,2.996999979019165 C193.9510040283203,113.43099975585938 104.98699951171875,201.61300659179688 -3.063999891281128,199.95700073242188 C-111.11399841308594,198.3000030517578 -197.33599853515625,107.43499755859375 -195.64300537109375,-3 C-193.9510040283203,-113.43199920654297 -104.98600006103516,-201.61300659179688 3.065999984741211,-199.95700073242188 C111.11499786376953,-198.30099487304688 197.33599853515625,-107.43599700927734 195.64300537109375,2.996999979019165z"></path></g><g opacity="1" transform="matrix(1,0,0,1,237.2830047607422,58.54999923706055)"><path fill="rgb(255,210,117)" fill-opacity="1" d=" M-106.30899810791016,17.975000381469727 C-76.12200164794922,-4.456999778747559 -37.125999450683594,-17.975000381469727 5.453999996185303,-17.975000381469727 C43.06999969482422,-17.975000381469727 77.88899993896484,-7.425000190734863 106.30899810791016,10.50100040435791 C77.7249984741211,-7.067999839782715 44.347999572753906,-17.39299964904785 8.585000038146973,-17.940000534057617 C7.581999778747559,-17.957000732421875 6.590000152587891,-17.964000701904297 5.590000152587891,-17.964000701904297 C-35.94300079345703,-17.964000701904297 -74.5530014038086,-4.690000057220459 -106.30899810791016,17.975000381469727z"></path></g><g opacity="1" transform="matrix(1,0,0,1,242.0760040283203,138.36300659179688)"><path fill="rgb(255,223,121)" fill-opacity="1" d=" M173.46600341796875,55.071998596191406 C173.46600341796875,139.49200439453125 95.8030014038086,72.71099853515625 0,72.71099853515625 C-95.8030014038086,72.71099853515625 -173.46600341796875,139.49200439453125 -173.46600341796875,55.071998596191406 C-173.46600341796875,-29.347000122070312 -95.8030014038086,-97.78299713134766 0,-97.78299713134766 C95.8030014038086,-97.78299713134766 173.46600341796875,-29.347000122070312 173.46600341796875,55.071998596191406z"></path></g><g opacity="1" transform="matrix(1,0,0,1,242.73599243164062,242.73699951171875)"><path stroke-linecap="butt" stroke-linejoin="miter" fill-opacity="0" stroke-miterlimit="10" stroke="rgb(247,125,65)" stroke-opacity="1" stroke-width="9.297" d=" M219.49400329589844,0 C219.49400329589844,121.2229995727539 121.2229995727539,219.4949951171875 0,219.4949951171875 C-121.2239990234375,219.4949951171875 -219.49400329589844,121.2229995727539 -219.49400329589844,0 C-219.49400329589844,-121.2239990234375 -121.2239990234375,-219.4949951171875 0,-219.4949951171875 C121.2229995727539,-219.4949951171875 219.49400329589844,-121.2239990234375 219.49400329589844,0z"></path></g><g opacity="1" transform="matrix(1,0,0,1,287.91900634765625,46.1349983215332)"><path stroke-linecap="round" stroke-linejoin="round" fill-opacity="0" stroke="rgb(255,255,255)" stroke-opacity="1" stroke-width="6.973" d=" M-2.7760000228881836,-0.6460000276565552 C-0.9890000224113464,-0.25600001215934753 0.8650000095367432,0.17299999296665192 2.7760000228881836,0.6460000276565552"></path></g><g opacity="1" transform="matrix(1,0,0,1,267.6419982910156,42.641998291015625)"><path stroke-linecap="round" stroke-linejoin="round" fill-opacity="0" stroke="rgb(255,255,255)" stroke-opacity="1" stroke-width="6.973" d=" M-7.315000057220459,-0.8939999938011169 C-7.315000057220459,-0.8939999938011169 -1.659999966621399,-0.5910000205039978 7.315000057220459,0.8939999938011169"></path></g></g></g><g style="display: block;" transform="matrix(1,0,0,1,149.71800231933594,289.5159912109375)" opacity="1"><g opacity="1" transform="matrix(1,0,0,1,108.85399627685547,38.72200012207031)"><path fill="rgb(255,225,166)" fill-opacity="1" d=" M10.835000038146973,-23.95400047302246 C72.39600372314453,-25.843000411987305 103.25299835205078,-5.8480000495910645 103.25299835205078,-5.8480000495910645 C95.99500274658203,1.809999942779541 70.81199645996094,-9.843999862670898 10.312000274658203,-7.064000129699707 C-67.97200012207031,-3.4690001010894775 -85.12699890136719,25.843000411987305 -103.25299835205078,21.73200035095215 C-103.25299835205078,21.73200035095215 -58.119998931884766,-21.84000015258789 10.835000038146973,-23.95400047302246z"></path></g><g opacity="1" transform="matrix(1,0,0,1,107.77100372314453,32.40399932861328)"><path fill="rgb(255,176,57)" fill-opacity="1" d=" M11.779999732971191,-29.94700050354004 C76.51000213623047,-32.15399932861328 107.52100372314453,-3.3959999084472656 104.33599853515625,0.47099998593330383 C101.98400115966797,3.3259999752044678 87.20899963378906,-13.413000106811523 11.350000381469727,-12.107999801635742 C-71.54199981689453,-10.682000160217285 -98.37699890136719,32.15399932861328 -102.66400146484375,27.770000457763672 C-107.52100372314453,22.805999755859375 -57.165000915527344,-27.59600067138672 11.779999732971191,-29.94700050354004z"></path></g><g opacity="1" transform="matrix(1,0,0,1,107.7969970703125,34.124000549316406)"><path fill="rgb(133,62,19)" fill-opacity="1" d=" M11.892000198364258,-24.45800018310547 C73.4530029296875,-26.347000122070312 100.34500122070312,-5.735000133514404 98.94000244140625,-2.746999979019165 C97.53399658203125,0.23999999463558197 71.8479995727539,-11.456999778747559 11.324999809265137,-9.25100040435791 C-61.01499938964844,-6.613999843597412 -95.0719985961914,26.347000122070312 -97.70899963378906,23.534000396728516 C-100.34500122070312,20.722999572753906 -57.0629997253418,-22.343000411987305 11.892000198364258,-24.45800018310547z"></path></g><g opacity="1" transform="matrix(1,0,0,1,107.7979965209961,33.034000396728516)"><path fill="rgb(107,31,0)" fill-opacity="1" d=" M-91.10399627685547,21.85700035095215 C-76.60600280761719,8.513999938964844 -39.48699951171875,-15.968000411987305 11.890999794006348,-17.54400062561035 C55.72800064086914,-18.888999938964844 81.97200012207031,-8.633000373840332 92.94999694824219,-1.7630000114440918 C96.63600158691406,-1.090000033378601 98.58100128173828,-0.8960000276565552 98.94000244140625,-1.6579999923706055 C100.34600067138672,-4.644999980926514 73.4520034790039,-25.2549991607666 11.890999794006348,-23.367000579833984 C-57.06399917602539,-21.250999450683594 -100.34600067138672,21.812000274658203 -97.70899963378906,24.625 C-97.11799621582031,25.2549991607666 -94.93299865722656,24.07900047302246 -91.10399627685547,21.85700035095215z"></path></g></g><g style="display: block;" transform="matrix(1,0,0,1,0,0)" opacity="1"><g opacity="1" transform="matrix(1,0,0,1,297.5749816894531,158.0709991455078)"><g opacity="1" transform="matrix(1,0,0,1,27.54400062561035,31.639999389648438)"><path fill="rgb(255,176,57)" fill-opacity="1" d=" M27.29400062561035,0 C27.29400062561035,17.336999893188477 15.071999549865723,31.389999389648438 -0.0020000000949949026,31.389999389648438 C-15.074000358581543,31.389999389648438 -27.29400062561035,17.336999893188477 -27.29400062561035,0 C-27.29400062561035,-17.334999084472656 -15.074000358581543,-31.389999389648438 -0.0020000000949949026,-31.389999389648438 C15.071999549865723,-31.389999389648438 27.29400062561035,-17.334999084472656 27.29400062561035,0z"></path></g><g opacity="1" transform="matrix(1,0,0,1,27.54400062561035,43.70000076293945)"><path fill="rgb(255,225,166)" fill-opacity="1" d=" M27.29400062561035,0 C27.29400062561035,17.336000442504883 15.071999549865723,31.389999389648438 -0.0020000000949949026,31.389999389648438 C-15.074000358581543,31.389999389648438 -27.29400062561035,17.336000442504883 -27.29400062561035,0 C-27.29400062561035,-17.336000442504883 -15.074000358581543,-31.389999389648438 -0.0020000000949949026,-31.389999389648438 C15.071999549865723,-31.389999389648438 27.29400062561035,-17.336000442504883 27.29400062561035,0z"></path></g><g opacity="1" transform="matrix(1,0,0,1,27.542999267578125,37.6609992980957)"><path fill="rgb(133,62,19)" fill-opacity="1" d=" M25.586999893188477,0 C25.586999893188477,17.336000442504883 14.131999969482422,31.388999938964844 -0.0010000000474974513,31.388999938964844 C-14.131999969482422,31.388999938964844 -25.586999893188477,17.336000442504883 -25.586999893188477,0 C-25.586999893188477,-17.336000442504883 -14.131999969482422,-31.388999938964844 -0.0010000000474974513,-31.388999938964844 C14.131999969482422,-31.388999938964844 25.586999893188477,-17.336000442504883 25.586999893188477,0z"></path></g><g opacity="1" transform="matrix(1,0,0,1,27.545000076293945,24.003000259399414)"><path fill="rgb(107,31,0)" fill-opacity="1" d=" M25.584999084472656,13.66100025177002 C25.584999084472656,15.038999557495117 25.511999130249023,16.399999618530273 25.361000061035156,17.729000091552734 C23.756999969482422,2.2990000247955322 13.01099967956543,-9.607000350952148 0,-9.607000350952148 C-13.010000228881836,-9.607000350952148 -23.756999969482422,2.2990000247955322 -25.36199951171875,17.729000091552734 C-25.51099967956543,16.399999618530273 -25.584999084472656,15.038999557495117 -25.584999084472656,13.66100025177002 C-25.584999084472656,-3.678999900817871 -14.130000114440918,-17.729000091552734 0,-17.729000091552734 C14.130000114440918,-17.729000091552734 25.584999084472656,-3.678999900817871 25.584999084472656,13.66100025177002z"></path></g></g><g opacity="1" transform="matrix(1,0,0,1,161.33700561523438,158.0709991455078)"><g opacity="1" transform="matrix(1,0,0,1,27.542999267578125,31.639999389648438)"><path fill="rgb(255,176,57)" fill-opacity="1" d=" M27.292999267578125,0 C27.292999267578125,17.336999893188477 15.071999549865723,31.389999389648438 -0.0010000000474974513,31.389999389648438 C-15.072999954223633,31.389999389648438 -27.292999267578125,17.336999893188477 -27.292999267578125,0 C-27.292999267578125,-17.334999084472656 -15.072999954223633,-31.389999389648438 -0.0010000000474974513,-31.389999389648438 C15.071999549865723,-31.389999389648438 27.292999267578125,-17.334999084472656 27.292999267578125,0z"></path></g><g opacity="1" transform="matrix(1,0,0,1,27.542999267578125,43.70000076293945)"><path fill="rgb(255,225,166)" fill-opacity="1" d=" M27.292999267578125,0 C27.292999267578125,17.336000442504883 15.071999549865723,31.389999389648438 -0.0010000000474974513,31.389999389648438 C-15.072999954223633,31.389999389648438 -27.292999267578125,17.336000442504883 -27.292999267578125,0 C-27.292999267578125,-17.336000442504883 -15.072999954223633,-31.389999389648438 -0.0010000000474974513,-31.389999389648438 C15.071999549865723,-31.389999389648438 27.292999267578125,-17.336000442504883 27.292999267578125,0z"></path></g><g opacity="1" transform="matrix(1,0,0,1,27.54199981689453,37.6609992980957)"><path fill="rgb(133,62,19)" fill-opacity="1" d=" M25.586999893188477,0 C25.586999893188477,17.336000442504883 14.131999969482422,31.388999938964844 -0.0010000000474974513,31.388999938964844 C-14.131999969482422,31.388999938964844 -25.586999893188477,17.336000442504883 -25.586999893188477,0 C-25.586999893188477,-17.336000442504883 -14.131999969482422,-31.388999938964844 -0.0010000000474974513,-31.388999938964844 C14.131999969482422,-31.388999938964844 25.586999893188477,-17.336000442504883 25.586999893188477,0z"></path></g><g opacity="1" transform="matrix(1,0,0,1,27.54400062561035,24.003000259399414)"><path fill="rgb(107,31,0)" fill-opacity="1" d=" M25.584999084472656,13.66100025177002 C25.584999084472656,15.038999557495117 25.511999130249023,16.399999618530273 25.36199951171875,17.729000091552734 C23.757999420166016,2.2990000247955322 13.01200008392334,-9.607000350952148 0,-9.607000350952148 C-13.010000228881836,-9.607000350952148 -23.756999969482422,2.2990000247955322 -25.361000061035156,17.729000091552734 C-25.510000228881836,16.399999618530273 -25.584999084472656,15.038999557495117 -25.584999084472656,13.66100025177002 C-25.584999084472656,-3.678999900817871 -14.130000114440918,-17.729000091552734 0,-17.729000091552734 C14.130999565124512,-17.729000091552734 25.584999084472656,-3.678999900817871 25.584999084472656,13.66100025177002z"></path></g></g></g></g></svg>