<svg xmlns="http://www.w3.org/2000/svg" viewBox="0 0 512 512" width="512" height="512" style="width: 100%; height: 100%; transform: translate3d(0,0,0);" preserveAspectRatio="xMidYMid meet"><defs><clipPath id="__lottie_element_12211"><rect width="512" height="512" x="0" y="0"></rect></clipPath><linearGradient id="__lottie_element_12216" spreadMethod="pad" gradientUnits="userSpaceOnUse" x1="-3.0439999103546143" y1="-165.02499389648438" x2="4.6519999504089355" y2="149.07899475097656"><stop offset="0%" stop-color="rgb(200,215,225)"></stop><stop offset="36%" stop-color="rgb(154,163,171)"></stop><stop offset="88%" stop-color="rgb(107,111,116)"></stop></linearGradient><linearGradient id="__lottie_element_12235" spreadMethod="pad" gradientUnits="userSpaceOnUse" x1="-21.659000396728516" y1="14.972999572753906" x2="38.26100158691406" y2="-58.60499954223633"><stop offset="0%" stop-color="rgb(29,29,27)"></stop><stop offset="50%" stop-color="rgb(94,60,65)"></stop><stop offset="100%" stop-color="rgb(159,91,102)"></stop></linearGradient><linearGradient id="__lottie_element_12240" spreadMethod="pad" gradientUnits="userSpaceOnUse" x1="0.7200000286102295" y1="-129.05799865722656" x2="0.7200000286102295" y2="141.0469970703125"><stop offset="0%" stop-color="rgb(252,252,252)"></stop><stop offset="50%" stop-color="rgb(230,231,230)"></stop><stop offset="100%" stop-color="rgb(208,209,208)"></stop></linearGradient><linearGradient id="__lottie_element_12253" spreadMethod="pad" gradientUnits="userSpaceOnUse" x1="0.7200000286102295" y1="123.94200134277344" x2="0.7200000286102295" y2="-129.1179962158203"><stop offset="0%" stop-color="rgb(252,252,252)"></stop><stop offset="50%" stop-color="rgb(230,231,230)"></stop><stop offset="100%" stop-color="rgb(208,209,208)"></stop></linearGradient><linearGradient id="__lottie_element_12261" spreadMethod="pad" gradientUnits="userSpaceOnUse" x1="-3.0309998989105225" y1="-213.968994140625" x2="2.7869999408721924" y2="181.11500549316406"><stop offset="0%" stop-color="rgb(190,205,214)"></stop><stop offset="41%" stop-color="rgb(151,160,167)"></stop><stop offset="91%" stop-color="rgb(111,115,120)"></stop></linearGradient><linearGradient id="__lottie_element_12265" spreadMethod="pad" gradientUnits="userSpaceOnUse" x1="-2.815999984741211" y1="-191.96099853515625" x2="5.142000198364258" y2="169.7949981689453"><stop offset="0%" stop-color="rgb(143,159,179)"></stop><stop offset="41%" stop-color="rgb(109,119,131)"></stop><stop offset="81%" stop-color="rgb(76,78,82)"></stop></linearGradient><linearGradient id="__lottie_element_12273" spreadMethod="pad" gradientUnits="userSpaceOnUse" x1="-3.0439999103546143" y1="-209.25" x2="24.51099967956543" y2="178.54600524902344"><stop offset="0%" stop-color="rgb(159,178,196)"></stop><stop offset="38%" stop-color="rgb(117,126,137)"></stop><stop offset="76%" stop-color="rgb(74,74,78)"></stop></linearGradient><linearGradient id="__lottie_element_12278" spreadMethod="pad" gradientUnits="userSpaceOnUse" x1="14.211999893188477" y1="-22.10300064086914" x2="-12.178999900817871" y2="-7.754000186920166"><stop offset="0%" stop-color="rgb(110,117,131)"></stop><stop offset="60%" stop-color="rgb(104,111,120)"></stop><stop offset="100%" stop-color="rgb(97,105,110)"></stop></linearGradient><linearGradient id="__lottie_element_12297" spreadMethod="pad" gradientUnits="userSpaceOnUse"><stop></stop><stop></stop><stop></stop></linearGradient><linearGradient id="__lottie_element_12301" spreadMethod="pad" gradientUnits="userSpaceOnUse"><stop></stop><stop></stop><stop></stop></linearGradient><linearGradient id="__lottie_element_12305" spreadMethod="pad" gradientUnits="userSpaceOnUse" x1="-3.0439999103546143" y1="-165.02499389648438" x2="4.6519999504089355" y2="149.07899475097656"><stop offset="0%" stop-color="rgb(91,97,102)"></stop><stop offset="36%" stop-color="rgb(63,70,77)"></stop><stop offset="88%" stop-color="rgb(35,42,51)"></stop></linearGradient><linearGradient id="__lottie_element_12309" spreadMethod="pad" gradientUnits="userSpaceOnUse" x1="-3.0439999103546143" y1="-165.02499389648438" x2="4.6519999504089355" y2="149.07899475097656"><stop offset="0%" stop-color="rgb(102,110,115)"></stop><stop offset="37%" stop-color="rgb(75,84,93)"></stop><stop offset="88%" stop-color="rgb(49,59,71)"></stop></linearGradient></defs><g clip-path="url(#__lottie_element_12211)"><g style="display: block;" transform="matrix(1,0,0,1,252.31300354003906,262.18499755859375)" opacity="1"><g opacity="1" transform="matrix(1,0,0,1,0.3140000104904175,0.5049999952316284)"><path fill="url(#__lottie_element_12309)" fill-opacity="1" d=" M206.4429931640625,-4.706999778747559 C209.04299926757812,109.30799865722656 118.72200012207031,203.84300231933594 4.706999778747559,206.4429931640625 C-109.30799865722656,209.04299926757812 -203.84300231933594,118.72200012207031 -206.4429931640625,4.706999778747559 C-209.04299926757812,-109.30799865722656 -118.72200012207031,-203.84300231933594 -4.706999778747559,-206.4429931640625 C109.30799865722656,-209.04299926757812 203.84300231933594,-118.72200012207031 206.4429931640625,-4.706999778747559z"></path></g></g><g style="display: block;" transform="matrix(1,0,0,1,252.31300354003906,262.18499755859375)" opacity="1"><g opacity="1" transform="matrix(1,0,0,1,0.3140000104904175,0.5049999952316284)"><path fill="url(#__lottie_element_12305)" fill-opacity="1" d=" M206.4429931640625,-4.706999778747559 C209.04299926757812,109.30799865722656 118.72200012207031,203.84300231933594 4.706999778747559,206.4429931640625 C-109.30799865722656,209.04299926757812 -203.84300231933594,118.72200012207031 -206.4429931640625,4.706999778747559 C-209.04299926757812,-109.30799865722656 -118.72200012207031,-203.84300231933594 -4.706999778747559,-206.4429931640625 C109.30799865722656,-209.04299926757812 203.84300231933594,-118.72200012207031 206.4429931640625,-4.706999778747559z"></path></g></g><g style="display: none;"><g><path fill="url(#__lottie_element_12301)"></path></g></g><g style="display: none;"><g><path fill="url(#__lottie_element_12297)"></path></g></g><g style="display: block;" transform="matrix(1,0,0,1,429.8290100097656,84.6719970703125)" opacity="1"><path stroke-linecap="butt" stroke-linejoin="miter" fill-opacity="0" stroke-miterlimit="4" stroke="rgb(103,110,124)" stroke-opacity="1" stroke-width="14" d=" M-14.614999771118164,-28.04400062561035 C0.8679999709129333,-36.117000579833984 19.96299934387207,-30.108999252319336 28.04199981689453,-14.614999771118164 C36.1150016784668,0.8690000176429749 30.107999801635742,19.96299934387207 14.62399959564209,28.035999298095703 C-0.8709999918937683,36.1150016784668 -19.96500015258789,30.107999801635742 -28.038000106811523,14.62399959564209 C-36.117000579833984,-0.8700000047683716 -30.110000610351562,-19.96500015258789 -14.614999771118164,-28.04400062561035z"></path><g opacity="1" transform="matrix(1,0,0,1,0,0)"></g></g><g style="display: block;" transform="matrix(1,0,0,1,429.8290100097656,84.6719970703125)" opacity="1"><path stroke-linecap="butt" stroke-linejoin="miter" fill-opacity="0" stroke-miterlimit="4" stroke="rgb(132,139,153)" stroke-opacity="1" stroke-width="8" d=" M-12.880999565124512,-24.71500015258789 C0.7649999856948853,-31.829999923706055 17.593000411987305,-26.53499984741211 24.71299934387207,-12.880000114440918 C31.827999114990234,0.765999972820282 26.534000396728516,17.593000411987305 12.887999534606934,24.70800018310547 C-0.7670000195503235,31.827999114990234 -17.594999313354492,26.534000396728516 -24.709999084472656,12.887999534606934 C-31.829999923706055,-0.7670000195503235 -26.53700065612793,-17.594999313354492 -12.880999565124512,-24.71500015258789z"></path><g opacity="1" transform="matrix(1,0,0,1,0,0)"></g></g><g style="display: block;" transform="matrix(1,0,0,1,411.6419982910156,58.64399719238281)" opacity="0.4"><g opacity="1" transform="matrix(1,0,0,1,0,0)"><path stroke-linecap="round" stroke-linejoin="round" fill-opacity="0" stroke="rgb(255,255,255)" stroke-opacity="1" stroke-width="6" d=" M11.84000015258789,-8.069999694824219 C11.84000015258789,-8.069999694824219 -3.1410000324249268,-6.25600004196167 -11.84000015258789,8.069999694824219"></path></g></g><g style="display: block;" transform="matrix(1,0,0,1,446.19598388671875,106.01899719238281)" opacity="0.4"><g opacity="1" transform="matrix(1,0,0,1,0,0)"><path stroke-linecap="round" stroke-linejoin="round" fill-opacity="0" stroke="rgb(255,255,255)" stroke-opacity="1" stroke-width="6" d=" M-4.86299991607666,3.7300000190734863 C-4.86299991607666,3.7300000190734863 1.2910000085830688,1.8049999475479126 4.86299991607666,-3.7300000190734863"></path></g></g><g style="display: block;" transform="matrix(1,0,0,1,402.88201904296875,111.61000061035156)" opacity="1"><g opacity="1" transform="matrix(1,0,0,1,0,0)"><path fill="url(#__lottie_element_12278)" fill-opacity="1" d=" M7.480999946594238,12.748000144958496 C0.06400000303983688,20.165000915527344 -5.059999942779541,14.670000076293945 -9.864999771118164,9.864999771118164 C-14.670000076293945,5.059999942779541 -20.165000915527344,-0.06400000303983688 -12.748000144958496,-7.480999946594238 C-5.330999851226807,-14.89799976348877 9.527000427246094,-19.13800048828125 14.331999778747559,-14.333000183105469 C19.136999130249023,-9.527999877929688 14.89799976348877,5.330999851226807 7.480999946594238,12.748000144958496z"></path></g></g><g style="display: block;" transform="matrix(1,0,0,1,405.56402587890625,103.218994140625)" opacity="0.3"><g opacity="1" transform="matrix(1,0,0,1,0,0)"><path stroke-linecap="round" stroke-linejoin="round" fill-opacity="0" stroke="rgb(255,255,255)" stroke-opacity="1" stroke-width="6" d=" M2.937999963760376,-2.2820000648498535 C2.937999963760376,-2.2820000648498535 -0.328000009059906,-0.328000009059906 -2.937999963760376,2.2820000648498535"></path></g></g><g style="display: block;" transform="matrix(1,0,0,1,252.31300354003906,262.18499755859375)" opacity="1"><g opacity="1" transform="matrix(1,0,0,1,0,0)"><path fill="url(#__lottie_element_12273)" fill-opacity="1" d=" M210.78199768066406,-4.806000232696533 C213.43600463867188,111.60600280761719 121.21800231933594,208.1280059814453 4.806000232696533,210.78199768066406 C-111.60600280761719,213.43600463867188 -208.1280059814453,121.21800231933594 -210.78199768066406,4.806000232696533 C-213.43600463867188,-111.60600280761719 -121.21800231933594,-208.1280059814453 -4.806000232696533,-210.78199768066406 C111.60600280761719,-213.43600463867188 208.1280059814453,-121.21800231933594 210.78199768066406,-4.806000232696533z"></path></g></g><g style="display: block;" transform="matrix(1,0,0,1,252.31300354003906,262.18499755859375)" opacity="1"><g opacity="1" transform="matrix(1,0,0,1,0,0)"><path fill="url(#__lottie_element_12216)" fill-opacity="1" d=" M202.26600646972656,-4.611999988555908 C204.81300354003906,107.09600067138672 116.31999969482422,199.718994140625 4.611999988555908,202.26600646972656 C-107.09600067138672,204.81300354003906 -199.718994140625,116.31999969482422 -202.26600646972656,4.611999988555908 C-204.81300354003906,-107.09600067138672 -116.31999969482422,-199.718994140625 -4.611999988555908,-202.26600646972656 C107.09600067138672,-204.81300354003906 199.718994140625,-116.31999969482422 202.26600646972656,-4.611999988555908z"></path></g></g><g style="display: block;" transform="matrix(1,0,0,1,196.29299926757812,82.55799865722656)" opacity="0.5"><g opacity="1" transform="matrix(1,0,0,1,0,0)"><path stroke-linecap="round" stroke-linejoin="round" fill-opacity="0" stroke="rgb(255,255,255)" stroke-opacity="1" stroke-width="6" d=" M-64.27400207519531,20.21299934387207 C-29.108999252319336,-6.091000080108643 21.3700008392334,-22.93199920654297 64.27400207519531,-19.850000381469727"></path></g></g><g style="display: block;" transform="matrix(1,0,0,1,252.31300354003906,262.18499755859375)" opacity="1"><g opacity="1" transform="matrix(1,0,0,1,0,0)"><path fill="url(#__lottie_element_12265)" fill-opacity="1" d=" M196.21400451660156,-4.473999977111816 C198.68499755859375,103.89199829101562 112.83999633789062,193.7429962158203 4.473999977111816,196.21400451660156 C-103.89199829101562,198.68499755859375 -193.7429962158203,112.83999633789062 -196.21400451660156,4.473999977111816 C-198.68499755859375,-103.89199829101562 -112.83999633789062,-193.7429962158203 -4.473999977111816,-196.21400451660156 C103.89199829101562,-198.68499755859375 193.7429962158203,-112.83999633789062 196.21400451660156,-4.473999977111816z"></path></g></g><g style="display: block;" transform="matrix(1,0,0,1,252.31300354003906,262.18499755859375)" opacity="1"><g opacity="1" transform="matrix(1,0,0,1,0,0)"><path fill="url(#__lottie_element_12261)" fill-opacity="1" d=" M188.44000244140625,-4.473999977111816 C190.81300354003906,99.4280014038086 108.37000274658203,185.57699584960938 4.296999931335449,187.9459991455078 C-99.7760009765625,190.31500244140625 -186.06700134277344,108.00700378417969 -188.44000244140625,4.105000019073486 C-190.81300354003906,-99.7969970703125 -108.37000274658203,-185.94700622558594 -4.296999931335449,-188.3159942626953 C99.7760009765625,-190.68499755859375 186.06700134277344,-108.3759994506836 188.44000244140625,-4.473999977111816z"></path></g></g><g style="display: block;" transform="matrix(1,0,0,1,200.86500549316406,92.05999755859375)" opacity="0.6"><g opacity="1" transform="matrix(1,0,0,1,0,0)"><path stroke-linecap="round" stroke-linejoin="round" fill-opacity="0" stroke="rgb(255,255,255)" stroke-opacity="1" stroke-width="11" d=" M-39.93199920654297,12.020999908447266 C-39.93199920654297,12.020999908447266 -4.013999938964844,-10.151000022888184 39.93199920654297,-12.020999908447266"></path></g></g><g style="display: block;" transform="matrix(1,0,0,1,252.31300354003906,262.18499755859375)" opacity="1"><g opacity="1" transform="matrix(1,0,0,1,0,0)"><path fill="url(#__lottie_element_12253)" fill-opacity="1" d=" M172.17999267578125,0 C172.17999267578125,95.09300231933594 95.09300231933594,172.17999267578125 0,172.17999267578125 C-95.09300231933594,172.17999267578125 -172.17999267578125,95.09300231933594 -172.17999267578125,0 C-172.17999267578125,-95.09300231933594 -95.09300231933594,-172.17999267578125 0,-172.17999267578125 C95.09300231933594,-172.17999267578125 172.17999267578125,-95.09300231933594 172.17999267578125,0z"></path></g></g><g style="display: block;" transform="matrix(1,0,0,1,252.31300354003906,262.18499755859375)" opacity="1"><g opacity="1" transform="matrix(1,0,0,1,0,0)"><path stroke-linecap="butt" stroke-linejoin="miter" fill-opacity="0" stroke-miterlimit="10" stroke="rgb(155,156,158)" stroke-opacity="1" stroke-width="8" d=" M172.17999267578125,0 C172.17999267578125,95.09300231933594 95.09300231933594,172.17999267578125 0,172.17999267578125 C-95.09300231933594,172.17999267578125 -172.17999267578125,95.09300231933594 -172.17999267578125,0 C-172.17999267578125,-95.09300231933594 -95.09300231933594,-172.17999267578125 0,-172.17999267578125 C95.09300231933594,-172.17999267578125 172.17999267578125,-95.09300231933594 172.17999267578125,0z"></path></g></g><g style="display: block;" transform="matrix(1,0,0,1,252.31300354003906,262.18499755859375)" opacity="1"><g opacity="1" transform="matrix(1,0,0,1,0,0)"><path fill="url(#__lottie_element_12240)" fill-opacity="1" d=" M158.10400390625,0 C158.10400390625,87.31900024414062 87.31900024414062,158.10400390625 0,158.10400390625 C-87.31900024414062,158.10400390625 -158.10400390625,87.31900024414062 -158.10400390625,0 C-158.10400390625,-87.31900024414062 -87.31900024414062,-158.10400390625 0,-158.10400390625 C87.31900024414062,-158.10400390625 158.10400390625,-87.31900024414062 158.10400390625,0z"></path></g></g><g style="display: block;" transform="matrix(1,0,0,1,0.0000152587890625,8)" opacity="1"><g opacity="1" transform="matrix(1,0,0,1,201.79600524902344,76.39700317382812)"><path stroke-linecap="round" stroke-linejoin="round" fill-opacity="0" stroke="rgb(255,255,255)" stroke-opacity="1" stroke-width="6" d=" M-2.2660000324249268,0.6119999885559082 C-0.8180000185966492,0.20000000298023224 0.6959999799728394,-0.210999995470047 2.2660000324249268,-0.6119999885559082"></path></g><g opacity="1" transform="matrix(1,0,0,1,185.72300720214844,81.7509994506836)"><path stroke-linecap="round" stroke-linejoin="round" fill-opacity="0" stroke="rgb(255,255,255)" stroke-opacity="1" stroke-width="6" d=" M-5.656000137329102,2.197000026702881 C-5.656000137329102,2.197000026702881 -1.434999942779541,0.21699999272823334 5.656000137329102,-2.197000026702881"></path></g></g><g style="display: block;" transform="matrix(1,0,0,1,-0.0009918212890625,8)" opacity="1"><g opacity="1" transform="matrix(1,0,0,1,167.156005859375,366.864990234375)"><path fill="rgb(96,102,109)" fill-opacity="1" d=" M11.5,-12.850000381469727 C10.763999938964844,-13.392999649047852 10.03600025177002,-13.944999694824219 9.312999725341797,-14.505000114440918 C9.312999725341797,-14.505000114440918 8.710000038146973,-14.970999717712402 8.710000038146973,-14.970999717712402 C8.710000038146973,-14.970999717712402 -12.11299991607666,11.963000297546387 -12.11299991607666,11.963000297546387 C-12.11299991607666,11.963000297546387 -11.510000228881836,12.430000305175781 -11.510000228881836,12.430000305175781 C-10.597000122070312,13.135000228881836 -9.677000045776367,13.831000328063965 -8.74899959564209,14.519000053405762 C-8.74899959564209,14.519000053405762 -8.135000228881836,14.970999717712402 -8.135000228881836,14.970999717712402 C-8.135000228881836,14.970999717712402 12.11299991607666,-12.39799976348877 12.11299991607666,-12.39799976348877 C12.11299991607666,-12.39799976348877 11.5,-12.850000381469727 11.5,-12.850000381469727z"></path></g><g opacity="1" transform="matrix(1,0,0,1,240.98599243164062,113.54399871826172)"><path fill="rgb(96,102,109)" fill-opacity="1" d=" M1.3200000524520874,-17.14900016784668 C1.3200000524520874,-17.14900016784668 0.5600000023841858,-17.097999572753906 0.5600000023841858,-17.097999572753906 C-0.5889999866485596,-17.020000457763672 -1.7350000143051147,-16.930999755859375 -2.878000020980835,-16.827999114990234 C-2.878000020980835,-16.827999114990234 -3.638000011444092,-16.76099967956543 -3.638000011444092,-16.76099967956543 C-3.638000011444092,-16.76099967956543 -0.6899999976158142,16.392000198364258 -0.6899999976158142,16.392000198364258 C-0.6899999976158142,16.392000198364258 -0.6200000047683716,17.14900016784668 -0.6200000047683716,17.14900016784668 C-0.6200000047683716,17.14900016784668 0.13699999451637268,17.08300018310547 0.13699999451637268,17.08300018310547 C1.0470000505447388,17.003000259399414 1.9630000591278076,16.93000030517578 2.878000020980835,16.867000579833984 C2.878000020980835,16.867000579833984 3.638000011444092,16.81599998474121 3.638000011444092,16.81599998474121 C3.638000011444092,16.81599998474121 1.3200000524520874,-17.14900016784668 1.3200000524520874,-17.14900016784668z"></path></g><g opacity="1" transform="matrix(1,0,0,1,113.98300170898438,282.29901123046875)"><path fill="rgb(96,102,109)" fill-opacity="1" d=" M16.985000610351562,-2.191999912261963 C16.985000610351562,-2.191999912261963 16.985000610351562,-2.193000078201294 16.985000610351562,-2.193000078201294 C16.79400062561035,-3.0840001106262207 16.615999221801758,-3.9790000915527344 16.44300079345703,-4.876999855041504 C16.44300079345703,-4.876999855041504 16.301000595092773,-5.625 16.301000595092773,-5.625 C16.301000595092773,-5.625 -17.142000198364258,0.7379999756813049 -17.142000198364258,0.7379999756813049 C-17.142000198364258,0.7379999756813049 -16.999000549316406,1.4859999418258667 -16.999000549316406,1.4859999418258667 C-16.78499984741211,2.621000051498413 -16.555999755859375,3.753000020980835 -16.31800079345703,4.88100004196167 C-16.31800079345703,4.88100004196167 -16.15999984741211,5.625 -16.15999984741211,5.625 C-16.15999984741211,5.625 17.142000198364258,-1.4470000267028809 17.142000198364258,-1.4470000267028809 C17.142000198364258,-1.4470000267028809 16.985000610351562,-2.191999912261963 16.985000610351562,-2.191999912261963z"></path></g><g opacity="1" transform="matrix(1,0,0,1,111.38999938964844,248.12600708007812)"><path fill="rgb(96,102,109)" fill-opacity="1" d=" M16.898000717163086,3.1040000915527344 C16.898000717163086,3.1040000915527344 16.93899917602539,2.0510001182556152 16.93899917602539,2.0510001182556152 C16.966999053955078,1.1820000410079956 17.003000259399414,0.31200000643730164 17.047000885009766,-0.5529999732971191 C17.047000885009766,-0.5529999732971191 17.089000701904297,-1.3140000104904175 17.089000701904297,-1.3140000104904175 C17.089000701904297,-1.3140000104904175 -16.145999908447266,-3.061000108718872 -16.145999908447266,-3.061000108718872 C-16.145999908447266,-3.061000108718872 -16.906999588012695,-3.1040000915527344 -16.906999588012695,-3.1040000915527344 C-16.906999588012695,-3.1040000915527344 -16.94700050354004,-2.3420000076293945 -16.94700050354004,-2.3420000076293945 C-17,-1.3769999742507935 -17.041000366210938,-0.4129999876022339 -17.075000762939453,0.5590000152587891 C-17.075000762939453,0.5590000152587891 -17.089000701904297,0.9739999771118164 -17.089000701904297,0.9739999771118164 C-17.089000701904297,0.9739999771118164 -17.086999893188477,1.718000054359436 -17.086999893188477,1.718000054359436 C-17.086999893188477,1.718000054359436 16.516000747680664,3.0889999866485596 16.516000747680664,3.0889999866485596 C16.516000747680664,3.0889999866485596 16.898000717163086,3.1040000915527344 16.898000717163086,3.1040000915527344z"></path></g><g opacity="1" transform="matrix(1,0,0,1,124.63500213623047,314.56298828125)"><path fill="rgb(96,102,109)" fill-opacity="1" d=" M16.041000366210938,-6.2230000495910645 C15.64900016784668,-7.0320000648498535 15.262999534606934,-7.8460001945495605 14.88700008392334,-8.664999961853027 C14.88700008392334,-8.664999961853027 14.569000244140625,-9.357999801635742 14.569000244140625,-9.357999801635742 C14.569000244140625,-9.357999801635742 -16.375,4.835999965667725 -16.375,4.835999965667725 C-16.375,4.835999965667725 -16.05699920654297,5.5279998779296875 -16.05699920654297,5.5279998779296875 C-15.574000358581543,6.583000183105469 -15.07699966430664,7.631999969482422 -14.569000244140625,8.67300033569336 C-14.569000244140625,8.67300033569336 -14.236000061035156,9.357999801635742 -14.236000061035156,9.357999801635742 C-14.236000061035156,9.357999801635742 16.375,-5.538000106811523 16.375,-5.538000106811523 C16.375,-5.538000106811523 16.041000366210938,-6.2230000495910645 16.041000366210938,-6.2230000495910645z"></path></g><g opacity="1" transform="matrix(1,0,0,1,176.96299743652344,134.7239990234375)"><path fill="rgb(96,102,109)" fill-opacity="1" d=" M-6.811999797821045,-15.62600040435791 C-6.811999797821045,-15.62600040435791 -7.461999893188477,-15.22700023651123 -7.461999893188477,-15.22700023651123 C-7.461999893188477,-15.22700023651123 -7.4629998207092285,-15.22700023651123 -7.4629998207092285,-15.22700023651123 C-8.449000358581543,-14.619000434875488 -9.425999641418457,-14.001999855041504 -10.397000312805176,-13.37399959564209 C-10.397000312805176,-13.37399959564209 -11.036999702453613,-12.960000038146973 -11.036999702453613,-12.960000038146973 C-11.036999702453613,-12.960000038146973 7.452000141143799,15.62600040435791 7.452000141143799,15.62600040435791 C7.452000141143799,15.62600040435791 8.090999603271484,15.213000297546387 8.090999603271484,15.213000297546387 C8.85200023651123,14.720999717712402 9.618000030517578,14.236000061035156 10.387999534606934,13.76200008392334 C10.387999534606934,13.76200008392334 11.036999702453613,13.36299991607666 11.036999702453613,13.36299991607666 C11.036999702453613,13.36299991607666 -6.811999797821045,-15.62600040435791 -6.811999797821045,-15.62600040435791z"></path></g><g opacity="1" transform="matrix(1,0,0,1,229.16700744628906,393.4049987792969)"><path fill="rgb(96,102,109)" fill-opacity="1" d=" M1.5839999914169312,-17.038999557495117 C1.5839999914169312,-17.038999557495117 0.8339999914169312,-17.170000076293945 0.8339999914169312,-17.170000076293945 C0.8339999914169312,-17.170000076293945 -5.0279998779296875,16.36400032043457 -5.0279998779296875,16.36400032043457 C-5.0279998779296875,16.36400032043457 -4.2769999504089355,16.4950008392334 -4.2769999504089355,16.4950008392334 C-3.1389999389648438,16.695999145507812 -1.9980000257492065,16.881000518798828 -0.8500000238418579,17.05699920654297 C-0.8500000238418579,17.05699920654297 -0.09600000083446503,17.170000076293945 -0.09600000083446503,17.170000076293945 C-0.09600000083446503,17.170000076293945 4.914000034332275,-15.732000350952148 4.914000034332275,-15.732000350952148 C4.914000034332275,-15.732000350952148 5.0279998779296875,-16.485000610351562 5.0279998779296875,-16.485000610351562 C5.0279998779296875,-16.485000610351562 4.275000095367432,-16.600000381469727 4.275000095367432,-16.600000381469727 C3.374000072479248,-16.736000061035156 2.4769999980926514,-16.884000778198242 1.5839999914169312,-17.038999557495117z"></path></g><g opacity="1" transform="matrix(1,0,0,1,196.5330047607422,383.92498779296875)"><path fill="rgb(96,102,109)" fill-opacity="1" d=" M5.616000175476074,-16.246000289916992 C5.616000175476074,-16.246000289916992 4.918000221252441,-16.555999755859375 4.918000221252441,-16.555999755859375 C4.918000221252441,-16.555999755859375 -8.840999603271484,14.585000038146973 -8.840999603271484,14.585000038146973 C-8.840999603271484,14.585000038146973 -8.144000053405762,14.892000198364258 -8.144000053405762,14.892000198364258 C-7.085999965667725,15.359000205993652 -6.0229997634887695,15.815999984741211 -4.953999996185303,16.261999130249023 C-4.953999996185303,16.261999130249023 -4.249000072479248,16.555999755859375 -4.249000072479248,16.555999755859375 C-4.249000072479248,16.555999755859375 8.840999603271484,-14.871000289916992 8.840999603271484,-14.871000289916992 C8.840999603271484,-14.871000289916992 8.137999534606934,-15.161999702453613 8.137999534606934,-15.161999702453613 C7.291999816894531,-15.513999938964844 6.453000068664551,-15.87600040435791 5.616000175476074,-16.246000289916992z"></path></g><g opacity="1" transform="matrix(1,0,0,1,142.7270050048828,343.27899169921875)"><path fill="rgb(96,102,109)" fill-opacity="1" d=" M14.663000106811523,-9.227999687194824 C14.663000106811523,-9.227999687194824 14.17300033569336,-9.812999725341797 14.17300033569336,-9.812999725341797 C13.59000015258789,-10.515000343322754 13.017000198364258,-11.222999572753906 12.447999954223633,-11.937000274658203 C12.447999954223633,-11.937000274658203 11.972999572753906,-12.534000396728516 11.972999572753906,-12.534000396728516 C11.972999572753906,-12.534000396728516 -14.663000106811523,8.670000076293945 -14.663000106811523,8.670000076293945 C-14.663000106811523,8.670000076293945 -14.187000274658203,9.265000343322754 -14.187000274658203,9.265000343322754 C-13.468999862670898,10.166999816894531 -12.741999626159668,11.060999870300293 -12.005999565124512,11.946999549865723 C-12.005999565124512,11.946999549865723 -11.519000053405762,12.534000396728516 -11.519000053405762,12.534000396728516 C-11.519000053405762,12.534000396728516 14.074000358581543,-8.739999771118164 14.074000358581543,-8.739999771118164 C14.074000358581543,-8.739999771118164 14.663000106811523,-9.227999687194824 14.663000106811523,-9.227999687194824z"></path></g><g opacity="1" transform="matrix(1,0,0,1,379.92999267578125,193.6719970703125)"><path fill="rgb(96,102,109)" fill-opacity="1" d=" M-16.03499984741211,6.245999813079834 C-15.640999794006348,7.053999900817871 -15.256999969482422,7.864999771118164 -14.880999565124512,8.682000160217285 C-14.880999565124512,8.682000160217285 -14.562999725341797,9.37399959564209 -14.562999725341797,9.37399959564209 C-14.562999725341797,9.37399959564209 16.368999481201172,-4.8470001220703125 16.368999481201172,-4.8470001220703125 C16.368999481201172,-4.8470001220703125 16.051000595092773,-5.538000106811523 16.051000595092773,-5.538000106811523 C15.565999984741211,-6.59499979019165 15.065999984741211,-7.645999908447266 14.557000160217285,-8.689000129699707 C14.557000160217285,-8.689000129699707 14.223999977111816,-9.37399959564209 14.223999977111816,-9.37399959564209 C14.223999977111816,-9.37399959564209 -16.368999481201172,5.561999797821045 -16.368999481201172,5.561999797821045 C-16.368999481201172,5.561999797821045 -16.03499984741211,6.245999813079834 -16.03499984741211,6.245999813079834z"></path></g><g opacity="1" transform="matrix(1,0,0,1,307.9620056152344,124.38600158691406)"><path fill="rgb(96,102,109)" fill-opacity="1" d=" M-5.6020002365112305,16.250999450683594 C-5.6020002365112305,16.250999450683594 -4.90500020980835,16.55900001525879 -4.90500020980835,16.55900001525879 C-4.90500020980835,16.55900001525879 8.673999786376953,-14.244000434875488 8.673999786376953,-14.244000434875488 C8.673999786376953,-14.244000434875488 8.829000473022461,-14.593000411987305 8.829000473022461,-14.593000411987305 C8.829000473022461,-14.593000411987305 8.130999565124512,-14.89900016784668 8.130999565124512,-14.89900016784668 C7.071000099182129,-15.366000175476074 6.008999824523926,-15.821999549865723 4.938000202178955,-16.267000198364258 C4.938000202178955,-16.267000198364258 4.235000133514404,-16.55900001525879 4.235000133514404,-16.55900001525879 C4.235000133514404,-16.55900001525879 -8.829000473022461,14.878999710083008 -8.829000473022461,14.878999710083008 C-8.829000473022461,14.878999710083008 -8.12399959564209,15.17300033569336 -8.12399959564209,15.17300033569336 C-7.28000020980835,15.52400016784668 -6.439000129699707,15.881999969482422 -5.6020002365112305,16.250999450683594z"></path></g><g opacity="1" transform="matrix(1,0,0,1,361.81500244140625,164.97000122070312)"><path fill="rgb(96,102,109)" fill-opacity="1" d=" M-14.166999816894531,9.842000007629395 C-13.588000297546387,10.538000106811523 -13.017000198364258,11.23900032043457 -12.45199966430664,11.944999694824219 C-12.45199966430664,11.944999694824219 -11.977999687194824,12.541000366210938 -11.977999687194824,12.541000366210938 C-11.977999687194824,12.541000366210938 14.357000350952148,-8.425000190734863 14.357000350952148,-8.425000190734863 C14.357000350952148,-8.425000190734863 14.654999732971191,-8.66100025177002 14.654999732971191,-8.66100025177002 C14.654999732971191,-8.66100025177002 14.182000160217285,-9.256999969482422 14.182000160217285,-9.256999969482422 C13.461000442504883,-10.163999557495117 12.72700023651123,-11.065999984741211 11.984000205993652,-11.956000328063965 C11.984000205993652,-11.956000328063965 11.494999885559082,-12.541000366210938 11.494999885559082,-12.541000366210938 C11.494999885559082,-12.541000366210938 -14.654999732971191,9.255999565124512 -14.654999732971191,9.255999565124512 C-14.654999732971191,9.255999565124512 -14.166999816894531,9.842000007629395 -14.166999816894531,9.842000007629395z"></path></g><g opacity="1" transform="matrix(1,0,0,1,390.61199951171875,225.92599487304688)"><path fill="rgb(96,102,109)" fill-opacity="1" d=" M-17.141000747680664,1.4709999561309814 C-17.141000747680664,1.4709999561309814 -16.981000900268555,2.2139999866485596 -16.981000900268555,2.2139999866485596 C-16.790000915527344,3.1050000190734863 -16.61199951171875,3.997999906539917 -16.43899917602539,4.894000053405762 C-16.43899917602539,4.894000053405762 -16.29599952697754,5.642000198364258 -16.29599952697754,5.642000198364258 C-16.29599952697754,5.642000198364258 17.141000747680664,-0.7509999871253967 17.141000747680664,-0.7509999871253967 C17.141000747680664,-0.7509999871253967 16.99799919128418,-1.5 16.99799919128418,-1.5 C16.781999588012695,-2.638000011444092 16.552000045776367,-3.7690000534057617 16.312000274658203,-4.896999835968018 C16.312000274658203,-4.896999835968018 16.152999877929688,-5.642000198364258 16.152999877929688,-5.642000198364258 C16.152999877929688,-5.642000198364258 -16.395999908447266,1.309999942779541 -16.395999908447266,1.309999942779541 C-16.395999908447266,1.309999942779541 -17.141000747680664,1.4709999561309814 -17.141000747680664,1.4709999561309814z"></path></g><g opacity="1" transform="matrix(1,0,0,1,207.656005859375,120.2239990234375)"><path fill="rgb(96,102,109)" fill-opacity="1" d=" M4.260000228881836,16.634000778198242 C5.114999771118164,16.339000701904297 5.9720001220703125,16.055999755859375 6.833000183105469,15.779999732971191 C6.833000183105469,15.779999732971191 7.559000015258789,15.54699993133545 7.559000015258789,15.54699993133545 C7.559000015258789,15.54699993133545 -2.803999900817871,-16.881999969482422 -2.803999900817871,-16.881999969482422 C-2.803999900817871,-16.881999969482422 -3.5299999713897705,-16.649999618530273 -3.5299999713897705,-16.649999618530273 C-4.638999938964844,-16.29599952697754 -5.739999771118164,-15.928000450134277 -6.839000225067139,-15.550000190734863 C-6.839000225067139,-15.550000190734863 -7.559000015258789,-15.302000045776367 -7.559000015258789,-15.302000045776367 C-7.559000015258789,-15.302000045776367 3.5399999618530273,16.881999969482422 3.5399999618530273,16.881999969482422 C3.5399999618530273,16.881999969482422 4.260000228881836,16.634000778198242 4.260000228881836,16.634000778198242z"></path></g><g opacity="1" transform="matrix(1,0,0,1,116.81700134277344,214.5)"><path fill="rgb(96,102,109)" fill-opacity="1" d=" M16.007999420166016,6.236000061035156 C16.25200080871582,5.360000133514404 16.506000518798828,4.486000061035156 16.770000457763672,3.617000102996826 C16.770000457763672,3.617000102996826 16.989999771118164,2.888000011444092 16.989999771118164,2.888000011444092 C16.989999771118164,2.888000011444092 -15.595000267028809,-6.96999979019165 -15.595000267028809,-6.96999979019165 C-15.595000267028809,-6.96999979019165 -15.817000389099121,-6.239999771118164 -15.817000389099121,-6.239999771118164 C-16.149999618530273,-5.135000228881836 -16.474000930786133,-4.025000095367432 -16.785999298095703,-2.9079999923706055 C-16.785999298095703,-2.9079999923706055 -16.989999771118164,-2.1740000247955322 -16.989999771118164,-2.1740000247955322 C-16.989999771118164,-2.1740000247955322 15.803000450134277,6.96999979019165 15.803000450134277,6.96999979019165 C15.803000450134277,6.96999979019165 16.007999420166016,6.236000061035156 16.007999420166016,6.236000061035156z"></path></g><g opacity="1" transform="matrix(1,0,0,1,130.1649932861328,183.25100708007812)"><path fill="rgb(96,102,109)" fill-opacity="1" d=" M14.123000144958496,9.892000198364258 C14.571000099182129,9.104000091552734 15.024999618530273,8.321000099182129 15.48900032043457,7.543000221252441 C15.48900032043457,7.543000221252441 15.878000259399414,6.888999938964844 15.878000259399414,6.888999938964844 C15.878000259399414,6.888999938964844 -13.357000350952148,-10.553999900817871 -13.357000350952148,-10.553999900817871 C-13.357000350952148,-10.553999900817871 -13.748000144958496,-9.901000022888184 -13.748000144958496,-9.901000022888184 C-14.343000411987305,-8.901000022888184 -14.930000305175781,-7.89300012588501 -15.503000259399414,-6.879000186920166 C-15.503000259399414,-6.879000186920166 -15.878000259399414,-6.216000080108643 -15.878000259399414,-6.216000080108643 C-15.878000259399414,-6.216000080108643 13.748000144958496,10.553999900817871 13.748000144958496,10.553999900817871 C13.748000144958496,10.553999900817871 14.123000144958496,9.892000198364258 14.123000144958496,9.892000198364258z"></path></g><g opacity="1" transform="matrix(1,0,0,1,150.63699340820312,156.1580047607422)"><path fill="rgb(96,102,109)" fill-opacity="1" d=" M11.416999816894531,12.927000045776367 C12.043999671936035,12.262999534606934 12.678999900817871,11.604999542236328 13.321999549865723,10.95300006866455 C13.321999549865723,10.95300006866455 13.855999946594238,10.41100025177002 13.855999946594238,10.41100025177002 C13.855999946594238,10.41100025177002 -10.395000457763672,-13.480999946594238 -10.395000457763672,-13.480999946594238 C-10.395000457763672,-13.480999946594238 -10.930000305175781,-12.939000129699707 -10.930000305175781,-12.939000129699707 C-11.73900032043457,-12.116999626159668 -12.539999961853027,-11.288999557495117 -13.331999778747559,-10.449000358581543 C-13.331999778747559,-10.449000358581543 -13.855999946594238,-9.894000053405762 -13.855999946594238,-9.894000053405762 C-13.855999946594238,-9.894000053405762 10.892999649047852,13.480999946594238 10.892999649047852,13.480999946594238 C10.892999649047852,13.480999946594238 11.416999816894531,12.927000045776367 11.416999816894531,12.927000045776367z"></path></g><g opacity="1" transform="matrix(1,0,0,1,337.3580017089844,141.4149932861328)"><path fill="rgb(96,102,109)" fill-opacity="1" d=" M-11.486000061035156,12.866999626159668 C-10.751999855041504,13.407999992370605 -10.026000022888184,13.958000183105469 -9.305999755859375,14.513999938964844 C-9.305999755859375,14.513999938964844 -8.70300006866455,14.979999542236328 -8.70300006866455,14.979999542236328 C-8.70300006866455,14.979999542236328 12.100000381469727,-11.970000267028809 12.100000381469727,-11.970000267028809 C12.100000381469727,-11.970000267028809 11.496000289916992,-12.437000274658203 11.496000289916992,-12.437000274658203 C10.579999923706055,-13.144000053405762 9.656000137329102,-13.84000015258789 8.725000381469727,-14.527999877929688 C8.725000381469727,-14.527999877929688 8.112000465393066,-14.979999542236328 8.112000465393066,-14.979999542236328 C8.112000465393066,-14.979999542236328 -12.100000381469727,12.414999961853027 -12.100000381469727,12.414999961853027 C-12.100000381469727,12.414999961853027 -11.486000061035156,12.866999626159668 -11.486000061035156,12.866999626159668z"></path></g><g opacity="1" transform="matrix(1,0,0,1,327.5400085449219,373.7229919433594)"><path fill="rgb(96,102,109)" fill-opacity="1" d=" M-8.071999549865723,-15.222999572753906 C-8.833000183105469,-14.732000350952148 -9.597999572753906,-14.24899959564209 -10.371000289916992,-13.77400016784668 C-10.371000289916992,-13.77400016784668 -11.020000457763672,-13.375 -11.020000457763672,-13.375 C-11.020000457763672,-13.375 6.794000148773193,15.63599967956543 6.794000148773193,15.63599967956543 C6.794000148773193,15.63599967956543 7.442999839782715,15.237000465393066 7.442999839782715,15.237000465393066 C8.428000450134277,14.633000373840332 9.407999992370605,14.015000343322754 10.378999710083008,13.388999938964844 C10.378999710083008,13.388999938964844 11.020000457763672,12.97599983215332 11.020000457763672,12.97599983215332 C11.020000457763672,12.97599983215332 -7.431000232696533,-15.63599967956543 -7.431000232696533,-15.63599967956543 C-7.431000232696533,-15.63599967956543 -8.071999549865723,-15.222999572753906 -8.071999549865723,-15.222999572753906z"></path></g><g opacity="1" transform="matrix(1,0,0,1,353.8970031738281,352.322998046875)"><path fill="rgb(96,102,109)" fill-opacity="1" d=" M-11.416999816894531,-12.942000389099121 C-12.038000106811523,-12.284000396728516 -12.668999671936035,-11.631999969482422 -13.305999755859375,-10.98799991607666 C-13.305999755859375,-10.98799991607666 -13.842000007629395,-10.446000099182129 -13.842000007629395,-10.446000099182129 C-13.842000007629395,-10.446000099182129 10.361000061035156,13.494999885559082 10.361000061035156,13.494999885559082 C10.361000061035156,13.494999885559082 10.897000312805176,12.954000473022461 10.897000312805176,12.954000473022461 C11.713000297546387,12.128999710083008 12.520000457763672,11.295000076293945 13.317999839782715,10.45199966430664 C13.317999839782715,10.45199966430664 13.842000007629395,9.89799976348877 13.842000007629395,9.89799976348877 C13.842000007629395,9.89799976348877 -10.892999649047852,-13.494999885559082 -10.892999649047852,-13.494999885559082 C-10.892999649047852,-13.494999885559082 -11.416999816894531,-12.942000389099121 -11.416999816894531,-12.942000389099121z"></path></g><g opacity="1" transform="matrix(1,0,0,1,296.8370056152344,388.1940002441406)"><path fill="rgb(96,102,109)" fill-opacity="1" d=" M-4.248000144958496,-16.63800048828125 C-5.099999904632568,-16.344999313354492 -5.955999851226807,-16.062000274658203 -6.815000057220459,-15.788999557495117 C-6.815000057220459,-15.788999557495117 -7.541999816894531,-15.557999610900879 -7.541999816894531,-15.557999610900879 C-7.541999816894531,-15.557999610900879 2.7809998989105225,16.88599967956543 2.7809998989105225,16.88599967956543 C2.7809998989105225,16.88599967956543 3.507999897003174,16.65399932861328 3.507999897003174,16.65399932861328 C4.617000102996826,16.299999237060547 5.7210001945495605,15.934000015258789 6.821000099182129,15.555999755859375 C6.821000099182129,15.555999755859375 7.541999816894531,15.307999610900879 7.541999816894531,15.307999610900879 C7.541999816894531,15.307999610900879 -3.5280001163482666,-16.88599967956543 -3.5280001163482666,-16.88599967956543 C-3.5280001163482666,-16.88599967956543 -4.248000144958496,-16.63800048828125 -4.248000144958496,-16.63800048828125z"></path></g><g opacity="1" transform="matrix(1,0,0,1,374.3840026855469,325.2330017089844)"><path fill="rgb(96,102,109)" fill-opacity="1" d=" M-14.107000350952148,-9.89900016784668 C-14.557999610900879,-9.105999946594238 -15.015000343322754,-8.317999839782715 -15.484000205993652,-7.534999847412109 C-15.484000205993652,-7.534999847412109 -15.875,-6.880000114440918 -15.875,-6.880000114440918 C-15.875,-6.880000114440918 13.034000396728516,10.369000434875488 13.034000396728516,10.369000434875488 C13.034000396728516,10.369000434875488 13.362000465393066,10.564000129699707 13.362000465393066,10.564000129699707 C13.362000465393066,10.564000129699707 13.753000259399414,9.909000396728516 13.753000259399414,9.909000396728516 C14.345000267028809,8.916000366210938 14.927000045776367,7.915999889373779 15.498000144958496,6.910999774932861 C15.498000144958496,6.910999774932861 15.875,6.248000144958496 15.875,6.248000144958496 C15.875,6.248000144958496 -13.732000350952148,-10.564000129699707 -13.732000350952148,-10.564000129699707 C-13.732000350952148,-10.564000129699707 -14.107000350952148,-9.89900016784668 -14.107000350952148,-9.89900016784668z"></path></g><g opacity="1" transform="matrix(1,0,0,1,275.3179931640625,114.94300079345703)"><path fill="rgb(96,102,109)" fill-opacity="1" d=" M4.261000156402588,-16.5 C3.122999906539917,-16.698999404907227 1.9800000190734863,-16.882999420166016 0.8330000042915344,-17.058000564575195 C0.8330000042915344,-17.058000564575195 0.08100000023841858,-17.17099952697754 0.08100000023841858,-17.17099952697754 C0.08100000023841858,-17.17099952697754 -5.01200008392334,16.489999771118164 -5.01200008392334,16.489999771118164 C-5.01200008392334,16.489999771118164 -4.257999897003174,16.604999542236328 -4.257999897003174,16.604999542236328 C-3.3589999675750732,16.739999771118164 -2.4630000591278076,16.885000228881836 -1.5700000524520874,17.040000915527344 C-1.5700000524520874,17.040000915527344 -0.8169999718666077,17.17099952697754 -0.8169999718666077,17.17099952697754 C-0.8169999718666077,17.17099952697754 5.01200008392334,-16.371000289916992 5.01200008392334,-16.371000289916992 C5.01200008392334,-16.371000289916992 4.261000156402588,-16.5 4.261000156402588,-16.5z"></path></g><g opacity="1" transform="matrix(1,0,0,1,393.2489929199219,260.33099365234375)"><path fill="rgb(96,102,109)" fill-opacity="1" d=" M-16.91900062561035,-3.1679999828338623 C-16.91900062561035,-3.1679999828338623 -16.951000213623047,-2.1480000019073486 -16.951000213623047,-2.1480000019073486 C-16.98200035095215,-1.2280000448226929 -17.020999908447266,-0.31200000643730164 -17.06800079345703,0.6000000238418579 C-17.06800079345703,0.6000000238418579 -17.108999252319336,1.3609999418258667 -17.108999252319336,1.3609999418258667 C-17.108999252319336,1.3609999418258667 16.125999450683594,3.125999927520752 16.125999450683594,3.125999927520752 C16.125999450683594,3.125999927520752 16.886999130249023,3.1679999828338623 16.886999130249023,3.1679999828338623 C16.886999130249023,3.1679999828338623 16.927000045776367,2.4059998989105225 16.927000045776367,2.4059998989105225 C16.98900032043457,1.2619999647140503 17.038999557495117,0.11400000005960464 17.07699966430664,-1.059999942779541 C17.07699966430664,-1.059999942779541 17.108999252319336,-2.115000009536743 17.108999252319336,-2.115000009536743 C17.108999252319336,-2.115000009536743 -16.91900062561035,-3.1679999828338623 -16.91900062561035,-3.1679999828338623z"></path></g><g opacity="1" transform="matrix(1,0,0,1,387.7699890136719,294.010009765625)"><path fill="rgb(96,102,109)" fill-opacity="1" d=" M-16.003000259399414,-6.251999855041504 C-16.246999740600586,-5.376999855041504 -16.50200080871582,-4.50600004196167 -16.764999389648438,-3.640000104904175 C-16.764999389648438,-3.640000104904175 -16.98699951171875,-2.9100000858306885 -16.98699951171875,-2.9100000858306885 C-16.98699951171875,-2.9100000858306885 15.586999893188477,6.986999988555908 15.586999893188477,6.986999988555908 C15.586999893188477,6.986999988555908 15.807000160217285,6.257999897003174 15.807000160217285,6.257999897003174 C16.143999099731445,5.151000022888184 16.468000411987305,4.039000034332275 16.781999588012695,2.9230000972747803 C16.781999588012695,2.9230000972747803 16.98699951171875,2.188999891281128 16.98699951171875,2.188999891281128 C16.98699951171875,2.188999891281128 -15.798999786376953,-6.986999988555908 -15.798999786376953,-6.986999988555908 C-15.798999786376953,-6.986999988555908 -16.003000259399414,-6.251999855041504 -16.003000259399414,-6.251999855041504z"></path></g><g opacity="1" transform="matrix(1,0,0,1,263.50201416015625,394.8380126953125)"><path fill="rgb(96,102,109)" fill-opacity="1" d=" M-0.12800000607967377,-17.083999633789062 C-1.034000039100647,-17.003999710083008 -1.9420000314712524,-16.933000564575195 -2.8519999980926514,-16.871999740600586 C-2.8519999980926514,-16.871999740600586 -3.614000082015991,-16.822999954223633 -3.614000082015991,-16.822999954223633 C-3.614000082015991,-16.822999954223633 -1.3589999675750732,17.148000717163086 -1.3589999675750732,17.148000717163086 C-1.3589999675750732,17.148000717163086 -0.5989999771118164,17.097000122070312 -0.5989999771118164,17.097000122070312 C0.5550000071525574,17.020000457763672 1.7079999446868896,16.93199920654297 2.8559999465942383,16.83099937438965 C2.8559999465942383,16.83099937438965 3.614000082015991,16.76300048828125 3.614000082015991,16.76300048828125 C3.614000082015991,16.76300048828125 0.6330000162124634,-17.148000717163086 0.6330000162124634,-17.148000717163086 C0.6330000162124634,-17.148000717163086 -0.12800000607967377,-17.083999633789062 -0.12800000607967377,-17.083999633789062z"></path></g><g opacity="1" transform="matrix(1,0,0,1,148.66000366210938,362.739013671875)"><path fill="rgb(96,102,109)" fill-opacity="1" d=" M6.776000022888184,-4.809000015258789 C6.01800012588501,-5.526000022888184 5.258999824523926,-6.24399995803833 4.521999835968018,-6.9730000495910645 C4.521999835968018,-6.9730000495910645 3.9760000705718994,-7.513000011444092 3.9760000705718994,-7.513000011444092 C3.9760000705718994,-7.513000011444092 -7.326000213623047,4.060999870300293 -7.326000213623047,4.060999870300293 C-7.326000213623047,4.060999870300293 -6.78000020980835,4.5929999351501465 -6.78000020980835,4.5929999351501465 C-5.952000141143799,5.400000095367432 -5.117000102996826,6.195000171661377 -4.269000053405762,6.991000175476074 C-4.269000053405762,6.991000175476074 -3.7119998931884766,7.513000011444092 -3.7119998931884766,7.513000011444092 C-3.7119998931884766,7.513000011444092 7.326000213623047,-4.2870001792907715 7.326000213623047,-4.2870001792907715 C7.326000213623047,-4.2870001792907715 6.776000022888184,-4.809000015258789 6.776000022888184,-4.809000015258789z"></path></g><g opacity="1" transform="matrix(1,0,0,1,355.86700439453125,145.53500366210938)"><path fill="rgb(96,102,109)" fill-opacity="1" d=" M-6.769000053405762,4.835000038146973 C-6.001999855041504,5.539999961853027 -5.255000114440918,6.256999969482422 -4.508999824523926,6.982999801635742 C-4.508999824523926,6.982999801635742 -3.9630000591278076,7.514999866485596 -3.9630000591278076,7.514999866485596 C-3.9630000591278076,7.514999866485596 7.335000038146973,-4.054999828338623 7.335000038146973,-4.054999828338623 C7.335000038146973,-4.054999828338623 6.789000034332275,-4.586999893188477 6.789000034332275,-4.586999893188477 C5.951000213623047,-5.4039998054504395 5.113999843597412,-6.199999809265137 4.255000114440918,-6.997000217437744 C4.255000114440918,-6.997000217437744 3.697999954223633,-7.514999866485596 3.697999954223633,-7.514999866485596 C3.697999954223633,-7.514999866485596 -7.335000038146973,4.315000057220459 -7.335000038146973,4.315000057220459 C-7.335000038146973,4.315000057220459 -6.769000053405762,4.835000038146973 -6.769000053405762,4.835000038146973z"></path></g><g opacity="1" transform="matrix(1,0,0,1,390.5249938964844,312.71099853515625)"><path fill="rgb(96,102,109)" fill-opacity="1" d=" M-6.848999977111816,-4.64900016784668 C-7.24399995803833,-3.690000057220459 -7.6479997634887695,-2.7279999256134033 -8.062999725341797,-1.777999997138977 C-8.062999725341797,-1.777999997138977 -8.369000434875488,-1.0779999494552612 -8.369000434875488,-1.0779999494552612 C-8.369000434875488,-1.0779999494552612 6.445000171661377,5.353000164031982 6.445000171661377,5.353000164031982 C6.445000171661377,5.353000164031982 6.749000072479248,4.65500020980835 6.749000072479248,4.65500020980835 C7.209000110626221,3.6010000705718994 7.658999919891357,2.5369999408721924 8.09000015258789,1.4620000123977661 C8.09000015258789,1.4620000123977661 8.369000434875488,0.7599999904632568 8.369000434875488,0.7599999904632568 C8.369000434875488,0.7599999904632568 -6.559000015258789,-5.353000164031982 -6.559000015258789,-5.353000164031982 C-6.559000015258789,-5.353000164031982 -6.848999977111816,-4.64900016784668 -6.848999977111816,-4.64900016784668z"></path></g><g opacity="1" transform="matrix(1,0,0,1,156.96800231933594,138.2729949951172)"><path fill="rgb(96,102,109)" fill-opacity="1" d=" M3.999000072479248,7.27400016784668 C4.750999927520752,6.627999782562256 5.5229997634887695,6.001999855041504 6.295000076293945,5.375 C6.295000076293945,5.375 6.989999771118164,4.808000087738037 6.989999771118164,4.808000087738037 C6.989999771118164,4.808000087738037 -3.115999937057495,-7.7769999504089355 -3.115999937057495,-7.7769999504089355 C-3.115999937057495,-7.7769999504089355 -3.7109999656677246,-7.302000045776367 -3.7109999656677246,-7.302000045776367 C-4.622000217437744,-6.577000141143799 -5.521999835968018,-5.839000225067139 -6.410999774932861,-5.081999778747559 C-6.410999774932861,-5.081999778747559 -6.989999771118164,-4.591000080108643 -6.989999771118164,-4.591000080108643 C-6.989999771118164,-4.591000080108643 3.4159998893737793,7.7769999504089355 3.4159998893737793,7.7769999504089355 C3.4159998893737793,7.7769999504089355 3.999000072479248,7.27400016784668 3.999000072479248,7.27400016784668z"></path></g><g opacity="1" transform="matrix(1,0,0,1,187.42999267578125,118.84600067138672)"><path fill="rgb(96,102,109)" fill-opacity="1" d=" M2.171999931335449,7.974999904632568 C2.171999931335449,7.974999904632568 2.1730000972747803,7.974999904632568 2.1730000972747803,7.974999904632568 C3.1010000705718994,7.511000156402588 4.03000020980835,7.066999912261963 4.9670000076293945,6.632999897003174 C4.9670000076293945,6.632999897003174 5.660999774932861,6.313000202178955 5.660999774932861,6.313000202178955 C5.660999774932861,6.313000202178955 -1.1749999523162842,-8.315999984741211 -1.1749999523162842,-8.315999984741211 C-1.1749999523162842,-8.315999984741211 -2.0320000648498535,-7.9120001792907715 -2.0320000648498535,-7.9120001792907715 C-3.0179998874664307,-7.447999954223633 -4.004000186920166,-6.98199987411499 -4.979000091552734,-6.499000072479248 C-4.979000091552734,-6.499000072479248 -5.660999774932861,-6.1620001792907715 -5.660999774932861,-6.1620001792907715 C-5.660999774932861,-6.1620001792907715 1.4869999885559082,8.315999984741211 1.4869999885559082,8.315999984741211 C1.4869999885559082,8.315999984741211 2.171999931335449,7.974999904632568 2.171999931335449,7.974999904632568z"></path></g><g opacity="1" transform="matrix(1,0,0,1,210.9409942626953,398.4419860839844)"><path fill="rgb(96,102,109)" fill-opacity="1" d=" M0.7900000214576721,-8.201000213623047 C0.7900000214576721,-8.201000213623047 0.06199999898672104,-8.414999961853027 0.06199999898672104,-8.414999961853027 C0.06199999898672104,-8.414999961853027 -4.5289998054504395,7.047999858856201 -4.5289998054504395,7.047999858856201 C-4.5289998054504395,7.047999858856201 -3.796999931335449,7.264999866485596 -3.796999931335449,7.264999866485596 C-2.693000078201294,7.5920000076293945 -1.5800000429153442,7.9079999923706055 -0.4569999873638153,8.213000297546387 C-0.4569999873638153,8.213000297546387 0.2770000100135803,8.414999961853027 0.2770000100135803,8.414999961853027 C0.2770000100135803,8.414999961853027 4.5289998054504395,-7.135000228881836 4.5289998054504395,-7.135000228881836 C4.5289998054504395,-7.135000228881836 3.799999952316284,-7.341000080108643 3.799999952316284,-7.341000080108643 C2.7980000972747803,-7.623000144958496 1.7940000295639038,-7.9070000648498535 0.7900000214576721,-8.201000213623047z"></path></g><g opacity="1" transform="matrix(1,0,0,1,372.52301025390625,344.0719909667969)"><path fill="rgb(96,102,109)" fill-opacity="1" d=" M-5.589000225067139,-6.1579999923706055 C-6.193999767303467,-5.320000171661377 -6.821000099182129,-4.493000030517578 -7.456999778747559,-3.6649999618530273 C-7.456999778747559,-3.6649999618530273 -7.921999931335449,-3.059999942779541 -7.921999931335449,-3.059999942779541 C-7.921999931335449,-3.059999942779541 4.914000034332275,6.7789998054504395 4.914000034332275,6.7789998054504395 C4.914000034332275,6.7789998054504395 5.379000186920166,6.176000118255615 5.379000186920166,6.176000118255615 C6.085000038146973,5.25600004196167 6.789999961853027,4.326000213623047 7.4730000495910645,3.385999917984009 C7.4730000495910645,3.385999917984009 7.921999931335449,2.7709999084472656 7.921999931335449,2.7709999084472656 C7.921999931335449,2.7709999084472656 -5.140999794006348,-6.7789998054504395 -5.140999794006348,-6.7789998054504395 C-5.140999794006348,-6.7789998054504395 -5.589000225067139,-6.1579999923706055 -5.589000225067139,-6.1579999923706055z"></path></g><g opacity="1" transform="matrix(1,0,0,1,221.65899658203125,107.2750015258789)"><path fill="rgb(96,102,109)" fill-opacity="1" d=" M3.996000051498413,7.461999893188477 C3.996000051498413,7.461999893188477 0.8640000224113464,-8.394000053405762 0.8640000224113464,-8.394000053405762 C0.8640000224113464,-8.394000053405762 0.11599999666213989,-8.244999885559082 0.11599999666213989,-8.244999885559082 C-1.00600004196167,-8.020000457763672 -2.128999948501587,-7.784999847412109 -3.250999927520752,-7.539999961853027 C-3.250999927520752,-7.539999961853027 -3.996000051498413,-7.377999782562256 -3.996000051498413,-7.377999782562256 C-3.996000051498413,-7.377999782562256 -0.5419999957084656,8.394000053405762 -0.5419999957084656,8.394000053405762 C-0.5419999957084656,8.394000053405762 0.1979999989271164,8.23900032043457 0.1979999989271164,8.23900032043457 C1.2109999656677246,8.026000022888184 2.2249999046325684,7.813000202178955 3.249000072479248,7.611000061035156 C3.249000072479248,7.611000061035156 3.996000051498413,7.461999893188477 3.996000051498413,7.461999893188477z"></path></g><g opacity="1" transform="matrix(1,0,0,1,246.6320037841797,404.0889892578125)"><path fill="rgb(96,102,109)" fill-opacity="1" d=" M-1.1649999618530273,-8.126999855041504 C-1.1649999618530273,-8.126999855041504 -1.9270000457763672,-8.163000106811523 -1.9270000457763672,-8.163000106811523 C-1.9270000457763672,-8.163000106811523 -2.7109999656677246,7.968999862670898 -2.7109999656677246,7.968999862670898 C-2.7109999656677246,7.968999862670898 -1.9539999961853027,8.008999824523926 -1.9539999961853027,8.008999824523926 C-0.800000011920929,8.071000099182129 0.34599998593330383,8.112000465393066 1.5010000467300415,8.142999649047852 C1.5010000467300415,8.142999649047852 2.260999917984009,8.163000106811523 2.260999917984009,8.163000106811523 C2.260999917984009,8.163000106811523 2.7109999656677246,-7.999000072479248 2.7109999656677246,-7.999000072479248 C2.7109999656677246,-7.999000072479248 1.9429999589920044,-8.015000343322754 1.9429999589920044,-8.015000343322754 C0.902999997138977,-8.03600025177002 -0.12600000202655792,-8.076000213623047 -1.1649999618530273,-8.126999855041504z"></path></g><g opacity="1" transform="matrix(1,0,0,1,394.45599365234375,205.9969940185547)"><path fill="rgb(96,102,109)" fill-opacity="1" d=" M-8.161999702453613,1.1979999542236328 C-7.818999767303467,2.1659998893737793 -7.486999988555908,3.1540000438690186 -7.172999858856201,4.142000198364258 C-7.172999858856201,4.142000198364258 -6.940999984741211,4.874000072479248 -6.940999984741211,4.874000072479248 C-6.940999984741211,4.874000072479248 8.416000366210938,-0.1420000046491623 8.416000366210938,-0.1420000046491623 C8.416000366210938,-0.1420000046491623 8.180000305175781,-0.8669999837875366 8.180000305175781,-0.8669999837875366 C7.822000026702881,-1.9709999561309814 7.453000068664551,-3.063999891281128 7.065999984741211,-4.1579999923706055 C7.065999984741211,-4.1579999923706055 6.811999797821045,-4.874000072479248 6.811999797821045,-4.874000072479248 C6.811999797821045,-4.874000072479248 -8.416000366210938,0.4779999852180481 -8.416000366210938,0.4779999852180481 C-8.416000366210938,0.4779999852180481 -8.161999702453613,1.1979999542236328 -8.161999702453613,1.1979999542236328z"></path></g><g opacity="1" transform="matrix(1,0,0,1,401.79901123046875,241.38900756835938)"><path fill="rgb(96,102,109)" fill-opacity="1" d=" M-8.187000274658203,-0.7870000004768372 C-8.088000297546387,0.24300000071525574 -7.997000217437744,1.281999945640564 -7.925000190734863,2.321000099182129 C-7.925000190734863,2.321000099182129 -7.873000144958496,3.0850000381469727 -7.873000144958496,3.0850000381469727 C-7.873000144958496,3.0850000381469727 8.26200008392334,1.906999945640564 8.26200008392334,1.906999945640564 C8.26200008392334,1.906999945640564 8.208999633789062,1.1490000486373901 8.208999633789062,1.1490000486373901 C8.128000259399414,-0.004999999888241291 8.024999618530273,-1.1729999780654907 7.9120001792907715,-2.3269999027252197 C7.9120001792907715,-2.3269999027252197 7.839000225067139,-3.0850000381469727 7.839000225067139,-3.0850000381469727 C7.839000225067139,-3.0850000381469727 -8.26200008392334,-1.5479999780654907 -8.26200008392334,-1.5479999780654907 C-8.26200008392334,-1.5479999780654907 -8.187000274658203,-0.7870000004768372 -8.187000274658203,-0.7870000004768372z"></path></g><g opacity="1" transform="matrix(1,0,0,1,378.8219909667969,173.42999267578125)"><path fill="rgb(96,102,109)" fill-opacity="1" d=" M-7.682000160217285,3.0940001010894775 C-7.682000160217285,3.0940001010894775 -7.682000160217285,3.0950000286102295 -7.682000160217285,3.0950000286102295 C-7.116000175476074,3.9619998931884766 -6.550000190734863,4.830999851226807 -6.00600004196167,5.7179999351501465 C-6.00600004196167,5.7179999351501465 -5.604000091552734,6.374000072479248 -5.604000091552734,6.374000072479248 C-5.604000091552734,6.374000072479248 8.095999717712402,-2.184000015258789 8.095999717712402,-2.184000015258789 C8.095999717712402,-2.184000015258789 7.364999771118164,-3.3410000801086426 7.364999771118164,-3.3410000801086426 C6.859000205993652,-4.14300012588501 6.35099983215332,-4.948999881744385 5.828999996185303,-5.739999771118164 C5.828999996185303,-5.739999771118164 5.410999774932861,-6.374000072479248 5.410999774932861,-6.374000072479248 C5.410999774932861,-6.374000072479248 -8.095999717712402,2.4560000896453857 -8.095999717712402,2.4560000896453857 C-8.095999717712402,2.4560000896453857 -7.682000160217285,3.0940001010894775 -7.682000160217285,3.0940001010894775z"></path></g><g opacity="1" transform="matrix(1,0,0,1,400.47698974609375,277.8399963378906)"><path fill="rgb(96,102,109)" fill-opacity="1" d=" M-7.703999996185303,-3.0230000019073486 C-7.703999996185303,-3.0230000019073486 -7.703999996185303,-3.0220000743865967 -7.703999996185303,-3.0220000743865967 C-7.864999771118164,-1.9110000133514404 -8.04800033569336,-0.8019999861717224 -8.23900032043457,0.2980000078678131 C-8.23900032043457,0.2980000078678131 -8.371999740600586,1.0509999990463257 -8.371999740600586,1.0509999990463257 C-8.371999740600586,1.0509999990463257 7.534999847412109,3.7809998989105225 7.534999847412109,3.7809998989105225 C7.534999847412109,3.7809998989105225 7.660999774932861,3.0290000438690186 7.660999774932861,3.0290000438690186 C7.855999946594238,1.8949999809265137 8.038999557495117,0.7509999871253967 8.222000122070312,-0.4779999852180481 C8.222000122070312,-0.4779999852180481 8.371999740600586,-1.3650000095367432 8.371999740600586,-1.3650000095367432 C8.371999740600586,-1.3650000095367432 -7.5929999351501465,-3.7809998989105225 -7.5929999351501465,-3.7809998989105225 C-7.5929999351501465,-3.7809998989105225 -7.703999996185303,-3.0230000019073486 -7.703999996185303,-3.0230000019073486z"></path></g><g opacity="1" transform="matrix(1,0,0,1,326.89801025390625,123.91699981689453)"><path fill="rgb(96,102,109)" fill-opacity="1" d=" M-2.739000082015991,7.828999996185303 C-2.739000082015991,7.828999996185303 -2.0820000171661377,8.21399974822998 -2.0820000171661377,8.21399974822998 C-2.0820000171661377,8.21399974822998 6.111000061035156,-5.734000205993652 6.111000061035156,-5.734000205993652 C6.111000061035156,-5.734000205993652 5.447999954223633,-6.11899995803833 5.447999954223633,-6.11899995803833 C4.447999954223633,-6.699999809265137 3.437000036239624,-7.281000137329102 2.427000045776367,-7.84499979019165 C2.427000045776367,-7.84499979019165 1.7630000114440918,-8.21399974822998 1.7630000114440918,-8.21399974822998 C1.7630000114440918,-8.21399974822998 -6.111000061035156,5.895999908447266 -6.111000061035156,5.895999908447266 C-6.111000061035156,5.895999908447266 -5.452000141143799,6.269000053405762 -5.452000141143799,6.269000053405762 C-4.540999889373779,6.785999774932861 -3.6389999389648438,7.302000045776367 -2.739000082015991,7.828999996185303z"></path></g><g opacity="1" transform="matrix(1,0,0,1,257.8559875488281,104.2699966430664)"><path fill="rgb(96,102,109)" fill-opacity="1" d=" M1.9529999494552612,-8.005999565124512 C0.7990000247955322,-8.069000244140625 -0.35899999737739563,-8.109999656677246 -1.5119999647140503,-8.140000343322754 C-1.5119999647140503,-8.140000343322754 -2.2720000743865967,-8.15999984741211 -2.2720000743865967,-8.15999984741211 C-2.2720000743865967,-8.15999984741211 -2.7109999656677246,8.015000343322754 -2.7109999656677246,8.015000343322754 C-2.7109999656677246,8.015000343322754 -1.9429999589920044,8.029000282287598 -1.9429999589920044,8.029000282287598 C-0.9190000295639038,8.048999786376953 0.08799999952316284,8.086999893188477 1.1820000410079956,8.130000114440918 C1.1820000410079956,8.130000114440918 1.9359999895095825,8.15999984741211 1.9359999895095825,8.15999984741211 C1.9359999895095825,8.15999984741211 2.7109999656677246,-7.966000080108643 2.7109999656677246,-7.966000080108643 C2.7109999656677246,-7.966000080108643 1.9529999494552612,-8.005999565124512 1.9529999494552612,-8.005999565124512z"></path></g><g opacity="1" transform="matrix(1,0,0,1,110.13400268554688,302.2439880371094)"><path fill="rgb(96,102,109)" fill-opacity="1" d=" M8.16100025177002,-1.2000000476837158 C7.816999912261963,-2.1670000553131104 7.485000133514404,-3.1449999809265137 7.171999931335449,-4.132999897003174 C7.171999931335449,-4.132999897003174 6.940000057220459,-4.864999771118164 6.940000057220459,-4.864999771118164 C6.940000057220459,-4.864999771118164 -8.416999816894531,0.14100000262260437 -8.416999816894531,0.14100000262260437 C-8.416999816894531,0.14100000262260437 -8.180999755859375,0.8659999966621399 -8.180999755859375,0.8659999966621399 C-7.823999881744385,1.9579999446868896 -7.456999778747559,3.049999952316284 -7.078999996185303,4.140999794006348 C-7.078999996185303,4.140999794006348 -6.828999996185303,4.864999771118164 -6.828999996185303,4.864999771118164 C-6.828999996185303,4.864999771118164 8.416999816894531,-0.4790000021457672 8.416999816894531,-0.4790000021457672 C8.416999816894531,-0.4790000021457672 8.16100025177002,-1.2000000476837158 8.16100025177002,-1.2000000476837158z"></path></g><g opacity="1" transform="matrix(1,0,0,1,177.61199951171875,384.3840026855469)"><path fill="rgb(96,102,109)" fill-opacity="1" d=" M2.749000072479248,-7.827000141143799 C2.749000072479248,-7.827000141143799 2.0920000076293945,-8.218000411987305 2.0920000076293945,-8.218000411987305 C2.0920000076293945,-8.218000411987305 -6.110000133514404,5.7179999351501465 -6.110000133514404,5.7179999351501465 C-6.110000133514404,5.7179999351501465 -5.456999778747559,6.105000019073486 -5.456999778747559,6.105000019073486 C-4.455999851226807,6.698999881744385 -3.4549999237060547,7.269999980926514 -2.444999933242798,7.841000080108643 C-2.444999933242798,7.841000080108643 -1.777999997138977,8.218000411987305 -1.777999997138977,8.218000411987305 C-1.777999997138977,8.218000411987305 6.110000133514404,-5.8979997634887695 6.110000133514404,-5.8979997634887695 C6.110000133514404,-5.8979997634887695 5.447000026702881,-6.271999835968018 5.447000026702881,-6.271999835968018 C4.548999786376953,-6.776000022888184 3.6489999294281006,-7.291999816894531 2.749000072479248,-7.827000141143799z"></path></g><g opacity="1" transform="matrix(1,0,0,1,102.81999969482422,266.8399963378906)"><path fill="rgb(96,102,109)" fill-opacity="1" d=" M8.187000274658203,0.7879999876022339 C8.086999893188477,-0.24199999868869781 7.994999885559082,-1.2699999809265137 7.925000190734863,-2.309000015258789 C7.925000190734863,-2.309000015258789 7.874000072479248,-3.0739998817443848 7.874000072479248,-3.0739998817443848 C7.874000072479248,-3.0739998817443848 -8.262999534606934,-1.9049999713897705 -8.262999534606934,-1.9049999713897705 C-8.262999534606934,-1.9049999713897705 -8.208999633789062,-1.1469999551773071 -8.208999633789062,-1.1469999551773071 C-8.128000259399414,0.008999999612569809 -8.03600025177002,1.1629999876022339 -7.922999858856201,2.316999912261963 C-7.922999858856201,2.316999912261963 -7.848999977111816,3.0739998817443848 -7.848999977111816,3.0739998817443848 C-7.848999977111816,3.0739998817443848 8.262999534606934,1.5490000247955322 8.262999534606934,1.5490000247955322 C8.262999534606934,1.5490000247955322 8.187000274658203,0.7879999876022339 8.187000274658203,0.7879999876022339z"></path></g><g opacity="1" transform="matrix(1,0,0,1,282.8330078125,401.1189880371094)"><path fill="rgb(96,102,109)" fill-opacity="1" d=" M-0.20000000298023224,-8.23799991607666 C-1.2120000123977661,-8.017000198364258 -2.2230000495910645,-7.814000129699707 -3.24399995803833,-7.61299991607666 C-3.24399995803833,-7.61299991607666 -3.990000009536743,-7.464000225067139 -3.990000009536743,-7.464000225067139 C-3.990000009536743,-7.464000225067139 -0.8820000290870667,8.402999877929688 -0.8820000290870667,8.402999877929688 C-0.8820000290870667,8.402999877929688 -0.13099999725818634,8.253999710083008 -0.13099999725818634,8.253999710083008 C1.0010000467300415,8.027999877929688 2.124000072479248,7.794000148773193 3.246000051498413,7.547999858856201 C3.246000051498413,7.547999858856201 3.990000009536743,7.386000156402588 3.990000009536743,7.386000156402588 C3.990000009536743,7.386000156402588 0.5440000295639038,-8.402999877929688 0.5440000295639038,-8.402999877929688 C0.5440000295639038,-8.402999877929688 -0.20000000298023224,-8.23799991607666 -0.20000000298023224,-8.23799991607666z"></path></g><g opacity="1" transform="matrix(1,0,0,1,125.73300170898438,334.8240051269531)"><path fill="rgb(96,102,109)" fill-opacity="1" d=" M7.684999942779541,-3.0869998931884766 C7.684999942779541,-3.0869998931884766 7.684999942779541,-3.0880000591278076 7.684999942779541,-3.0880000591278076 C7.11899995803833,-3.9560000896453857 6.552999973297119,-4.824999809265137 6.007999897003174,-5.711999893188477 C6.007999897003174,-5.711999893188477 5.60699987411499,-6.364999771118164 5.60699987411499,-6.364999771118164 C5.60699987411499,-6.364999771118164 -8.100000381469727,2.1649999618530273 -8.100000381469727,2.1649999618530273 C-8.100000381469727,2.1649999618530273 -7.697000026702881,2.812999963760376 -7.697000026702881,2.812999963760376 C-7.084000110626221,3.796999931335449 -6.4670000076293945,4.7769999504089355 -5.822999954223633,5.739999771118164 C-5.822999954223633,5.739999771118164 -5.4039998054504395,6.364999771118164 -5.4039998054504395,6.364999771118164 C-5.4039998054504395,6.364999771118164 8.100000381469727,-2.4489998817443848 8.100000381469727,-2.4489998817443848 C8.100000381469727,-2.4489998817443848 7.684999942779541,-3.0869998931884766 7.684999942779541,-3.0869998931884766z"></path></g><g opacity="1" transform="matrix(1,0,0,1,293.5610046386719,109.89900207519531)"><path fill="rgb(96,102,109)" fill-opacity="1" d=" M-0.7929999828338623,8.199000358581543 C-0.7929999828338623,8.199000358581543 -0.05900000035762787,8.423999786376953 -0.05900000035762787,8.423999786376953 C-0.05900000035762787,8.423999786376953 4.533999919891357,-7.059999942779541 4.533999919891357,-7.059999942779541 C4.533999919891357,-7.059999942779541 3.799999952316284,-7.2769999504089355 3.799999952316284,-7.2769999504089355 C2.687000036239624,-7.60099983215332 1.5640000104904175,-7.918000221252441 0.44200000166893005,-8.223999977111816 C0.44200000166893005,-8.223999977111816 -0.29499998688697815,-8.423999786376953 -0.29499998688697815,-8.423999786376953 C-0.29499998688697815,-8.423999786376953 -4.533999919891357,7.140999794006348 -4.533999919891357,7.140999794006348 C-4.533999919891357,7.140999794006348 -3.799999952316284,7.341000080108643 -3.799999952316284,7.341000080108643 C-2.802000045776367,7.613999843597412 -1.7910000085830688,7.894999980926514 -0.7929999828338623,8.199000358581543z"></path></g><g opacity="1" transform="matrix(1,0,0,1,132.0189971923828,164.40499877929688)"><path fill="rgb(96,102,109)" fill-opacity="1" d=" M5.59499979019165,6.164000034332275 C6.199999809265137,5.326000213623047 6.826000213623047,4.489999771118164 7.460999965667725,3.6619999408721924 C7.460999965667725,3.6619999408721924 7.927999973297119,3.056999921798706 7.927999973297119,3.056999921798706 C7.927999973297119,3.056999921798706 -4.922999858856201,-6.784999847412109 -4.922999858856201,-6.784999847412109 C-4.922999858856201,-6.784999847412109 -5.386000156402588,-6.176000118255615 -5.386000156402588,-6.176000118255615 C-6.090000152587891,-5.247000217437744 -6.783999919891357,-4.317999839782715 -7.4770002365112305,-3.369999885559082 C-7.4770002365112305,-3.369999885559082 -7.927999973297119,-2.753999948501587 -7.927999973297119,-2.753999948501587 C-7.927999973297119,-2.753999948501587 5.146999835968018,6.784999847412109 5.146999835968018,6.784999847412109 C5.146999835968018,6.784999847412109 5.59499979019165,6.164000034332275 5.59499979019165,6.164000034332275z"></path></g><g opacity="1" transform="matrix(1,0,0,1,347.5509948730469,370.1809997558594)"><path fill="rgb(96,102,109)" fill-opacity="1" d=" M-3.990000009536743,-7.276000022888184 C-4.7779998779296875,-6.599999904632568 -5.585999965667725,-5.943999767303467 -6.39300012588501,-5.289000034332275 C-6.39300012588501,-5.289000034332275 -6.984000205993652,-4.810999870300293 -6.984000205993652,-4.810999870300293 C-6.984000205993652,-4.810999870300293 3.125,7.7779998779296875 3.125,7.7779998779296875 C3.125,7.7779998779296875 3.7209999561309814,7.298999786376953 3.7209999561309814,7.298999786376953 C4.550000190734863,6.63100004196167 5.368000030517578,5.954999923706055 6.188000202178955,5.2769999504089355 C6.188000202178955,5.2769999504089355 6.984000205993652,4.620999813079834 6.984000205993652,4.620999813079834 C6.984000205993652,4.620999813079834 -3.4049999713897705,-7.7779998779296875 -3.4049999713897705,-7.7779998779296875 C-3.4049999713897705,-7.7779998779296875 -3.990000009536743,-7.276000022888184 -3.990000009536743,-7.276000022888184z"></path></g><g opacity="1" transform="matrix(1,0,0,1,104.14099884033203,230.53700256347656)"><path fill="rgb(96,102,109)" fill-opacity="1" d=" M7.735000133514404,2.9070000648498535 C7.886000156402588,1.878000020980835 8.048999786376953,0.847000002861023 8.229999542236328,-0.1809999942779541 C8.229999542236328,-0.1809999942779541 8.36299991607666,-0.9369999766349792 8.36299991607666,-0.9369999766349792 C8.36299991607666,-0.9369999766349792 -7.558000087738037,-3.6549999713897705 -7.558000087738037,-3.6549999713897705 C-7.558000087738037,-3.6549999713897705 -7.683000087738037,-2.8970000743865967 -7.683000087738037,-2.8970000743865967 C-7.84499979019165,-1.9149999618530273 -7.997000217437744,-0.9340000152587891 -8.151000022888184,0.05000000074505806 C-8.151000022888184,0.05000000074505806 -8.36299991607666,1.4199999570846558 -8.36299991607666,1.4199999570846558 C-8.36299991607666,1.4199999570846558 7.624000072479248,3.6549999713897705 7.624000072479248,3.6549999713897705 C7.624000072479248,3.6549999713897705 7.735000133514404,2.9070000648498535 7.735000133514404,2.9070000648498535z"></path></g><g opacity="1" transform="matrix(1,0,0,1,114.04399871826172,195.78199768066406)"><path fill="rgb(96,102,109)" fill-opacity="1" d=" M6.857999801635742,4.64900016784668 C7.252999782562256,3.690000057220459 7.6570000648498535,2.7290000915527344 8.071999549865723,1.7790000438690186 C8.071999549865723,1.7790000438690186 8.378000259399414,1.0789999961853027 8.378000259399414,1.0789999961853027 C8.378000259399414,1.0789999961853027 -6.436999797821045,-5.3520002365112305 -6.436999797821045,-5.3520002365112305 C-6.436999797821045,-5.3520002365112305 -6.741000175476074,-4.6539998054504395 -6.741000175476074,-4.6539998054504395 C-7.198999881744385,-3.6019999980926514 -7.6479997634887695,-2.5299999713897705 -8.086999893188477,-1.4570000171661377 C-8.086999893188477,-1.4570000171661377 -8.378000259399414,-0.7509999871253967 -8.378000259399414,-0.7509999871253967 C-8.378000259399414,-0.7509999871253967 6.567999839782715,5.3520002365112305 6.567999839782715,5.3520002365112305 C6.567999839782715,5.3520002365112305 6.857999801635742,4.64900016784668 6.857999801635742,4.64900016784668z"></path></g><g opacity="1" transform="matrix(1,0,0,1,317.072998046875,389.5799865722656)"><path fill="rgb(96,102,109)" fill-opacity="1" d=" M-2.1589999198913574,-7.9770002365112305 C-3.0859999656677246,-7.513999938964844 -4.01200008392334,-7.071000099182129 -4.960000038146973,-6.63700008392334 C-4.960000038146973,-6.63700008392334 -5.6570000648498535,-6.316999912261963 -5.6570000648498535,-6.316999912261963 C-5.6570000648498535,-6.316999912261963 1.156999945640564,8.319999694824219 1.156999945640564,8.319999694824219 C1.156999945640564,8.319999694824219 1.8480000495910645,7.998000144958496 1.8480000495910645,7.998000144958496 C2.9010000228881836,7.507999897003174 3.944000005722046,7.00600004196167 4.973999977111816,6.495999813079834 C4.973999977111816,6.495999813079834 5.6570000648498535,6.1579999923706055 5.6570000648498535,6.1579999923706055 C5.6570000648498535,6.1579999923706055 -1.472000002861023,-8.319999694824219 -1.472000002861023,-8.319999694824219 C-1.472000002861023,-8.319999694824219 -2.1589999198913574,-7.9770002365112305 -2.1589999198913574,-7.9770002365112305z"></path></g></g><g style="display: block;" transform="matrix(1,0,0,1,297.2550048828125,219.8389892578125)" opacity="0.6"><g opacity="1" transform="matrix(1,0,0,1,0,0)"><path fill="url(#__lottie_element_12235)" fill-opacity="1" d=" M-26.163999557495117,60.66299819946289 C-26.163999557495117,60.66299819946289 -64.59300231933594,23.398000717163086 -64.59300231933594,23.398000717163086 C-64.59300231933594,23.398000717163086 64.59300231933594,-60.66299819946289 64.59300231933594,-60.66299819946289 C64.59300231933594,-60.66299819946289 -26.163999557495117,60.66299819946289 -26.163999557495117,60.66299819946289z"></path></g></g><g style="display: block;" transform="matrix(1,0,0,1,212.04800415039062,310.39398193359375)" opacity="0.6"><g opacity="1" transform="matrix(1,0,0,1,0,0)"><path fill="rgb(29,29,27)" fill-opacity="1" d=" M20.61400032043457,-67.15699768066406 C20.61400032043457,-67.15699768066406 59.042999267578125,-29.892000198364258 59.042999267578125,-29.892000198364258 C59.042999267578125,-29.892000198364258 -59.042999267578125,67.15699768066406 -59.042999267578125,67.15699768066406 C-59.042999267578125,67.15699768066406 20.61400032043457,-67.15699768066406 20.61400032043457,-67.15699768066406z"></path></g></g><g style="display: block;" transform="matrix(1,0,0,1,294.46099853515625,217.36700439453125)" opacity="1"><g opacity="1" transform="matrix(1,0,0,1,0,0)"><path fill="rgb(255,67,70)" fill-opacity="1" d=" M-23.3700008392334,63.1349983215332 C-23.3700008392334,63.1349983215332 -42.8380012512207,44.25699996948242 -42.8380012512207,44.25699996948242 C-42.8380012512207,44.25699996948242 -61.79899978637695,25.871000289916992 -61.79899978637695,25.871000289916992 C-61.79899978637695,25.871000289916992 61.79899978637695,-63.1349983215332 61.79899978637695,-63.1349983215332 C61.79899978637695,-63.1349983215332 -23.3700008392334,63.1349983215332 -23.3700008392334,63.1349983215332z"></path></g></g><g style="display: block;" transform="matrix(1,0,0,1,304.07000732421875,217.36700439453125)" opacity="1"><g opacity="1" transform="matrix(1,0,0,1,0,0)"><path fill="rgb(196,2,12)" fill-opacity="1" d=" M-32.979000091552734,63.1349983215332 C-32.979000091552734,63.1349983215332 -52.189998626708984,44.50600051879883 -52.189998626708984,44.50600051879883 C-52.189998626708984,44.50600051879883 52.189998626708984,-63.1349983215332 52.189998626708984,-63.1349983215332 C52.189998626708984,-63.1349983215332 -32.979000091552734,63.1349983215332 -32.979000091552734,63.1349983215332z"></path></g></g><g style="display: block;" transform="matrix(1,0,0,1,209.29200744628906,306.37298583984375)" opacity="1"><g opacity="1" transform="matrix(1,0,0,1,0,0)"><path fill="rgb(175,175,175)" fill-opacity="1" d=" M23.3700008392334,-63.1349983215332 C23.3700008392334,-63.1349983215332 42.073001861572266,-44.999000549316406 42.073001861572266,-44.999000549316406 C42.073001861572266,-44.999000549316406 61.79899978637695,-25.871000289916992 61.79899978637695,-25.871000289916992 C61.79899978637695,-25.871000289916992 -61.79899978637695,63.1349983215332 -61.79899978637695,63.1349983215332 C-61.79899978637695,63.1349983215332 23.3700008392334,-63.1349983215332 23.3700008392334,-63.1349983215332z"></path></g></g><g style="display: block;" transform="matrix(1,0,0,1,199.68299865722656,306.37298583984375)" opacity="1"><g opacity="1" transform="matrix(1,0,0,1,0,0)"><path fill="rgb(255,255,255)" fill-opacity="1" d=" M32.979000091552734,-63.1349983215332 C32.979000091552734,-63.1349983215332 52.189998626708984,-44.50600051879883 52.189998626708984,-44.50600051879883 C52.189998626708984,-44.50600051879883 -52.189998626708984,63.1349983215332 -52.189998626708984,63.1349983215332 C-52.189998626708984,63.1349983215332 32.979000091552734,-63.1349983215332 32.979000091552734,-63.1349983215332z"></path></g></g></g></svg>