<svg xmlns="http://www.w3.org/2000/svg" viewBox="0 0 512 512" width="512" height="512" style="width: 100%; height: 100%; transform: translate3d(0,0,0);" preserveAspectRatio="xMidYMid meet"><defs><clipPath id="__lottie_element_12311"><rect width="512" height="512" x="0" y="0"></rect></clipPath></defs><g clip-path="url(#__lottie_element_12311)"><g style="display: block;" transform="matrix(0.882947564125061,0.4694715738296509,-0.4694715738296509,0.882947564125061,240.6274871826172,371.82177734375)" opacity="1"><g opacity="1" transform="matrix(1,0,0,1,0,0)"><path fill="rgb(255,209,64)" fill-opacity="1" d=" M-57.22999954223633,-66.21399688720703 C-71.1449966430664,-71.33200073242188 -78.58699798583984,-53.97999954223633 -90.19300079345703,-42.874000549316406 C-101.69100189208984,-31.871000289916992 -77.79399871826172,7.8480000495910645 -62.2239990234375,-6.775000095367432 C-46.65399932861328,-21.398000717163086 -36.94200134277344,-58.750999450683594 -57.22999954223633,-66.21399688720703z"></path></g><g opacity="1" transform="matrix(1,0,0,1,0,0)"><path fill="rgb(255,223,121)" fill-opacity="1" d=" M-66.01200103759766,-65.24500274658203 C-72.8270034790039,-63.18000030517578 -89.76200103759766,-40.46200180053711 -91.20800018310547,-39.42900085449219 C-92.65399932861328,-38.395999908447266 -96.29399871826172,-25.999000549316406 -89.14299774169922,-29.516000747680664 C-76.54499816894531,-35.71200180053711 -60.02299880981445,-64.41899871826172 -51.96900177001953,-59.04899978637695 C-54.446998596191406,-67.51599884033203 -59.196998596191406,-67.30999755859375 -66.01200103759766,-65.24500274658203z"></path></g><g opacity="1" transform="matrix(1,0,0,1,0,0)"><path stroke-linecap="butt" stroke-linejoin="miter" fill-opacity="0" stroke-miterlimit="4" stroke="rgb(247,126,65)" stroke-opacity="1" stroke-width="8" d=" M-57.22999954223633,-66.21399688720703 C-71.1449966430664,-71.33200073242188 -78.58699798583984,-53.97999954223633 -90.19300079345703,-42.874000549316406 C-101.69100189208984,-31.871000289916992 -77.79399871826172,7.8480000495910645 -62.2239990234375,-6.775000095367432 C-46.65399932861328,-21.398000717163086 -36.94200134277344,-58.750999450683594 -57.22999954223633,-66.21399688720703z"></path></g></g><g style="display: block;" transform="matrix(1,0,0,1,246.64700317382812,345.3789978027344)" opacity="1"><g opacity="1" transform="matrix(1,0,0,1,0,0)"><path fill="rgb(255,209,64)" fill-opacity="1" d=" M15.657999992370605,-129.46299743652344 C15.657999992370605,-129.46299743652344 30.257999420166016,-137.95599365234375 45.76599884033203,-133.5260009765625 C59.3489990234375,-129.64599609375 66.29399871826172,-116.12999725341797 66.29399871826172,-116.12999725341797 C66.29399871826172,-116.12999725341797 84.93599700927734,-122.21600341796875 97.91200256347656,-108.55599975585938 C109.76899719238281,-96.0739974975586 117.94000244140625,-70.76699829101562 113.16899871826172,-30.05699920654297 C108.39800262451172,10.652999877929688 93.04100036621094,41.005001068115234 93.04100036621094,41.005001068115234 C93.04100036621094,41.005001068115234 100.73300170898438,73.84600067138672 104.11900329589844,93.58000183105469 C104.61599731445312,96.4749984741211 104.11399841308594,99.45700073242188 102.65499877929688,102.00700378417969 C97.16699981689453,111.60099792480469 78.822998046875,132.48500061035156 23.68600082397461,134.92599487304688 C-21.367000579833984,136.92100524902344 -46.34000015258789,121.72000122070312 -54.409000396728516,113.58300018310547 C-57.07500076293945,110.8949966430664 -58.349998474121094,107.13200378417969 -57.95899963378906,103.36599731445312 C-56.70000076293945,91.2300033569336 -52.62099838256836,57.60300064086914 -51.979000091552734,51.827999114990234 C-51.979000091552734,51.827999114990234 -83.62699890136719,38.34400177001953 -97.62100219726562,20.69099998474121 C-110.9260025024414,3.9070000648498535 -116.43599700927734,-33.01599884033203 -113.98699951171875,-46.891998291015625 C-111.53800201416016,-60.768001556396484 -97.02999877929688,-69.93099975585938 -84.78600311279297,-71.56400299072266 C-84.78600311279297,-71.56400299072266 -87.2969970703125,-113.79299926757812 -75.3550033569336,-125.36299896240234 C-63.41400146484375,-136.93299865722656 -44.99800109863281,-136.93299865722656 -34.803001403808594,-128.48800659179688 C-34.803001403808594,-128.48800659179688 -16.05500030517578,-142.7030029296875 15.657999992370605,-129.46299743652344z"></path></g></g><g style="display: block;" transform="matrix(1,0,0,1,163.4580078125,295.7869873046875)" opacity="1"><g opacity="1" transform="matrix(1,0,0,1,0,0)"><path fill="rgb(255,177,57)" fill-opacity="1" d=" M2.562999963760376,-10.00100040435791 C4.360000133514404,6.978000164031982 9.111000061035156,9.097000122070312 7.961999893188477,16.551000595092773 C6.2220001220703125,27.839000701904297 -7.664000034332275,21.701000213623047 -8.11400032043457,4.9679999351501465 C-8.277000427246094,-1.1030000448226929 -7.633999824523926,-10.588000297546387 -6.499000072479248,-20.86199951171875 C-6.499000072479248,-20.86199951171875 0.6470000147819519,-28.10300064086914 2.562999963760376,-10.00100040435791z"></path></g></g><g style="display: none;"><g><path></path></g></g><g style="display: block;" transform="matrix(1,0,0,1,309.8840026855469,288.791015625)" opacity="1"><g opacity="1" transform="matrix(1,0,0,1,0,0)"><path fill="rgb(255,223,121)" fill-opacity="1" d=" M-51.37300109863281,-72.875 C-51.37300109863281,-72.875 -52.5,-64.27100372314453 -35.60900115966797,-65.87799835205078 C-11.29800033569336,-68.19200134277344 -7.738999843597412,-51.23899841308594 -1.7660000324249268,-48.810001373291016 C5.578000068664551,-45.823001861572266 10.199999809265137,-52.93299865722656 23.631000518798828,-44.56399917602539 C29.121999740600586,-41.143001556396484 35.198001861572266,-31.184999465942383 38.99300003051758,-14.458000183105469 C43.742000579833984,6.4710001945495605 44.92100143432617,37.99599838256836 36.91899871826172,80.56800079345703 C36.91899871826172,80.56800079345703 52.58300018310547,45.22999954223633 51.316001892089844,3.9719998836517334 C50.04899978637695,-37.2859992980957 38.83300018310547,-64.2229995727539 3.056999921798706,-59.54100036621094 C3.056999921798706,-59.54100036621094 -17.94099998474121,-96.02799987792969 -51.37300109863281,-72.875z"></path></g></g><g style="display: block;" transform="matrix(1,0,0,1,246.6269989013672,371.8269958496094)" opacity="1"><g opacity="1" transform="matrix(1,0,0,1,0,0)"><path fill="rgb(255,177,57)" fill-opacity="1" d=" M113.18800354003906,-56.50699996948242 C108.8489990234375,-15.74899959564209 93.05799865722656,14.553000450134277 93.05799865722656,14.553000450134277 C93.05799865722656,14.553000450134277 100.74800109863281,47.40299987792969 104.13800048828125,67.13300323486328 C104.63800048828125,70.02300262451172 104.13800048828125,73.01300048828125 102.6780014038086,75.56300354003906 C97.18800354003906,85.15299987792969 78.83799743652344,106.03299713134766 23.70800018310547,108.48300170898438 C-21.351999282836914,110.4729995727539 -46.321998596191406,95.27300262451172 -54.391998291015625,87.13300323486328 C-57.051998138427734,84.44300079345703 -58.332000732421875,80.68299865722656 -57.94200134277344,76.9229965209961 C-56.68199920654297,64.78299713134766 -52.60200119018555,31.152999877929688 -51.96200180053711,25.382999420166016 C-51.96200180053711,25.382999420166016 -83.61199951171875,11.892999649047852 -97.60199737548828,-5.756999969482422 C-110.9020004272461,-22.53700065612793 -116.41200256347656,-59.46699905395508 -113.97200012207031,-73.33699798583984 C-111.52200317382812,-87.21700286865234 -97.01200103759766,-96.37699890136719 -84.76200103759766,-98.00700378417969 C-84.76200103759766,-98.00700378417969 -84.98200225830078,-101.74700164794922 -84.98200225830078,-107.31700134277344 C-84.98200225830078,-107.31700134277344 -82.802001953125,-107.51699829101562 -82.802001953125,-107.51699829101562 C-82.802001953125,-107.51699829101562 -81.5989990234375,-66.57599639892578 -81.5989990234375,-66.57599639892578 C-88.29100036621094,-68.38700103759766 -94.96399688720703,-64.98600006103516 -94.96399688720703,-55.349998474121094 C-94.96399688720703,-33.89500045776367 -85.2979965209961,-14.53600025177002 -66.90399932861328,-4.956999778747559 C-57.30400085449219,0.041999999433755875 -48.63100051879883,4.614999771118164 -40.106998443603516,8.557000160217285 C-30.042999267578125,13.211000442504883 -20.187000274658203,16.983999252319336 -9.26099967956543,19.53499984741211 C36.520999908447266,30.22599983215332 62.4109992980957,10.180000305175781 71.03500366210938,2.00600004196167 C96.5250015258789,-22.155000686645508 109.90899658203125,-59.07699966430664 107.74700164794922,-108.66100311279297 C107.5270004272461,-105.49099731445312 118.21399688720703,-103.7239990234375 113.18800354003906,-56.50699996948242z"></path></g></g><g style="display: block;" transform="matrix(1,0,0,1,276.7720031738281,438.6709899902344)" opacity="1"><g opacity="1" transform="matrix(1,0,0,1,0,0)"><path fill="rgb(255,209,64)" fill-opacity="1" d=" M47.31700134277344,6.948999881744385 C49.6619987487793,3.385999917984009 51.32899856567383,-1.5709999799728394 49.191001892089844,-12.79699993133545 C47.07899856567383,-23.886999130249023 42.62200164794922,-29.323999404907227 30.797000885009766,-28.364999771118164 C18.972000122070312,-27.4060001373291 12.538999557495117,-20.14699935913086 -21.97800064086914,-20.224000930786133 C-48.172000885009766,-20.281999588012695 -51.5989990234375,9.067999839782715 -49.763999938964844,15.77400016784668 C-46.93000030517578,26.131999969482422 -21.57200050354004,31.851999282836914 8.083999633789062,26.325000762939453 C30.19099998474121,22.204999923706055 44.2140007019043,11.663000106811523 47.31700134277344,6.948999881744385z"></path></g></g><g style="display: block;" transform="matrix(1,0,0,1,246.64700317382812,345.52899169921875)" opacity="1"><g opacity="1" transform="matrix(1,0,0,1,0,0)"><path stroke-linecap="round" stroke-linejoin="round" fill-opacity="0" stroke="rgb(247,126,65)" stroke-opacity="1" stroke-width="8" d=" M15.657999992370605,-129.61300659179688 C15.657999992370605,-129.61300659179688 30.257999420166016,-138.1060028076172 45.76599884033203,-133.67599487304688 C57.39899826049805,-130.35299682617188 64.16300201416016,-119.96099853515625 65.86499786376953,-117.0459976196289 C66.1500015258789,-116.55699920654297 66.29399871826172,-116.27899932861328 66.29399871826172,-116.27899932861328 C66.29399871826172,-116.27899932861328 66.7020034790039,-116.41300201416016 67.44000244140625,-116.59600067138672 C71.68800354003906,-117.64900207519531 86.85600280761719,-120.34400177001953 97.91200256347656,-108.70600128173828 C103.98699951171875,-102.30999755859375 109.09500122070312,-92.5469970703125 111.98999786376953,-79.06999969482422 C114.74500274658203,-66.24500274658203 115.49500274658203,-50.055999755859375 113.16899871826172,-30.20599937438965 C108.39800262451172,10.503999710083008 93.04100036621094,40.85499954223633 93.04100036621094,40.85499954223633 C93.04100036621094,40.85499954223633 100.73300170898438,73.6969985961914 104.11900329589844,93.43000030517578 C104.61599731445312,96.32499694824219 104.11399841308594,99.30699920654297 102.65499877929688,101.85700225830078 C97.16699981689453,111.45099639892578 78.822998046875,132.33599853515625 23.68600082397461,134.77699279785156 C-21.367000579833984,136.77200317382812 -46.34000015258789,121.57099914550781 -54.409000396728516,113.43399810791016 C-57.07500076293945,110.74600219726562 -58.349998474121094,106.98300170898438 -57.95899963378906,103.21700286865234 C-56.70000076293945,91.08100128173828 -52.62099838256836,57.452999114990234 -51.979000091552734,51.678001403808594 C-51.979000091552734,51.678001403808594 -83.62699890136719,38.194000244140625 -97.62100219726562,20.541000366210938 C-110.9260025024414,3.756999969482422 -116.43599700927734,-33.16600036621094 -113.98699951171875,-47.04199981689453 C-111.53800201416016,-60.917999267578125 -97.02999877929688,-70.08100128173828 -84.78600311279297,-71.71399688720703"></path></g></g><g style="display: block;" transform="matrix(0.9282500147819519,0,0,0.9282500147819519,258.9049987792969,263.24298095703125)" opacity="1"><g opacity="1" transform="matrix(1,0,0,1,0,0)"><path fill="rgb(255,209,64)" fill-opacity="1" d=" M-91.25,-25 C-98.75,-19.75 -98.89700317382812,-2.5230000019073486 -98.75,9.5 C-98.5,30 -69.63700103759766,24.999000549316406 -69.5,12.25 C-69,-34.25 -82.45500183105469,-31.1560001373291 -91.25,-25z"></path></g></g><g style="display: block;" transform="matrix(1,0,0,1,335.82501220703125,391.51300048828125)" opacity="1"><g opacity="1" transform="matrix(1,0,0,1,0,0)"><path stroke-linecap="round" stroke-linejoin="round" fill-opacity="0" stroke="rgb(247,126,65)" stroke-opacity="1" stroke-width="8" d=" M3.86299991607666,-5.129000186920166 C3.86299991607666,-5.129000186920166 1.0149999856948853,0 -3.86299991607666,5.129000186920166"></path></g></g><g style="display: block;" transform="matrix(1,0,0,1,199.64300537109375,399.07501220703125)" opacity="1"><g opacity="1" transform="matrix(1,0,0,1,0,0)"><path stroke-linecap="round" stroke-linejoin="round" fill-opacity="0" stroke="rgb(247,126,65)" stroke-opacity="1" stroke-width="8" d=" M-4.974999904632568,-1.8680000305175781 C-4.974999904632568,-1.8680000305175781 0.06499999761581421,0.4650000035762787 4.974999904632568,1.8680000305175781"></path></g></g><g style="display: block;" transform="matrix(1,0,0,1,190.09100341796875,240.74600219726562)" opacity="1"><g opacity="1" transform="matrix(1,0,0,1,0,0)"><path fill="rgb(255,223,121)" fill-opacity="1" d=" M25.062999725341797,-22.295000076293945 C21.194000244140625,-13.454999923706055 9.199000358581543,-19.775999069213867 -2.4210000038146973,-15.819999694824219 C-12.14799976348877,-12.508000373840332 -18.441999435424805,-3.9749999046325684 -21.201000213623047,10.95199966430664 C-22.1299991607666,15.979999542236328 -22.659000396728516,21.733999252319336 -22.781999588012695,28.257999420166016 C-22.781999588012695,28.257999420166016 -30.690000534057617,-8.878999710083008 -17.058000564575195,-22.295000076293945 C-3.4260001182556152,-35.71099853515625 25.062999725341797,-22.295000076293945 25.062999725341797,-22.295000076293945z"></path></g></g><g style="display: block;" transform="matrix(1,0,0,1,0,0)" opacity="1"><g opacity="1" transform="matrix(1,0,0,1,236.81900024414062,140.9250030517578)"><path fill="rgb(255,209,64)" fill-opacity="1" d=" M25.510000228881836,74.99099731445312 C25.510000228881836,74.99099731445312 23.26799964904785,-33.57600021362305 22.679000854492188,-53.887001037597656 C22.166000366210938,-71.60700225830078 18.91200065612793,-92.73500061035156 -0.7480000257492065,-92.76599884033203 C-18.860000610351562,-92.79499816894531 -23.69499969482422,-79.8759994506836 -24.95199966430664,-57.36600112915039 C-26.208999633789062,-34.85599899291992 -24.95199966430664,74.8270034790039 -24.95199966430664,74.8270034790039 C-24.95199966430664,74.8270034790039 -20.41900062561035,92.89800262451172 0,92.76499938964844 C20.222000122070312,92.63300323486328 25.510000228881836,74.99099731445312 25.510000228881836,74.99099731445312z"></path></g><g opacity="1" transform="matrix(1,0,0,1,236.25399780273438,132.2100067138672)"><path fill="rgb(255,223,121)" fill-opacity="1" d=" M-24.843000411987305,-29.040000915527344 C-24.843000411987305,-29.040000915527344 -20.500999450683594,-73.08399963378906 -0.1289999932050705,-68.8030014038086 C13.284000396728516,-65.98500061035156 12.600000381469727,-33.63800048828125 14.168000221252441,1.6699999570846558 C15.911999702453613,40.95600128173828 19.770000457763672,84.78099822998047 22.2810001373291,83.70600128173828 C22.2810001373291,83.70600128173828 25.510000228881836,56.112998962402344 24.92099952697754,28.788999557495117 C24.33099937438965,1.465000033378601 25.10099983215332,-58.584999084472656 18.711000442504883,-71.24500274658203 C12.321000099182129,-83.90499877929688 -6.797999858856201,-90.41500091552734 -19.26099967956543,-73.63800048828125 C-26.430999755859375,-63.98500061035156 -24.843000411987305,-29.040000915527344 -24.843000411987305,-29.040000915527344z"></path></g><g opacity="1" transform="matrix(1,0,0,1,223.36099243164062,135.4550018310547)"><path fill="rgb(255,177,57)" fill-opacity="1" d=" M11.876999855041504,-83.29499816894531 C11.876999855041504,-83.29499816894531 0,-85.20800018310547 -0.8550000190734863,-45.91999816894531 C-2.572999954223633,33.01499938964844 0.4169999957084656,88.20500183105469 -11.493000030517578,83.46800231933594 C-11.493000030517578,83.46800231933594 -12.355999946594238,-29.45199966430664 -11.493000030517578,-51.89699935913086 C-10.630000114440918,-74.34200286865234 -5.336999893188477,-86.29499816894531 11.876999855041504,-83.29499816894531z"></path></g><g opacity="1" transform="matrix(1,0,0,1,236.81900024414062,132.03799438476562)"><path stroke-linecap="round" stroke-linejoin="round" fill-opacity="0" stroke="rgb(247,126,65)" stroke-opacity="1" stroke-width="8" d=" M-24.95199966430664,83.71399688720703 C-24.95199966430664,83.71399688720703 -26.208999633789062,-25.9689998626709 -24.95199966430664,-48.479000091552734 C-23.69499969482422,-70.98899841308594 -18.860000610351562,-83.90699768066406 -0.7480000257492065,-83.87799835205078 C18.91200065612793,-83.84700012207031 22.166000366210938,-62.720001220703125 22.679000854492188,-45 C23.26799964904785,-24.68899917602539 25.510000228881836,83.87899780273438 25.510000228881836,83.87899780273438"></path></g></g><g style="display: block;" transform="matrix(1,0,0,1,347.2030029296875,272.4840087890625)" opacity="1"><g opacity="1" transform="matrix(1,0,0,1,0,0)"><path stroke-linecap="round" stroke-linejoin="round" fill-opacity="0" stroke="rgb(255,255,255)" stroke-opacity="1" stroke-width="6" d=" M-0.3880000114440918,-1.625 C-0.11999999731779099,-0.5809999704360962 0.13899999856948853,0.5019999742507935 0.3880000114440918,1.625"></path></g></g><g style="display: block;" transform="matrix(1,0,0,1,335.05499267578125,249.96099853515625)" opacity="1"><g opacity="1" transform="matrix(1,0,0,1,0,0)"><path stroke-linecap="round" stroke-linejoin="round" fill-opacity="0" stroke="rgb(255,255,255)" stroke-opacity="1" stroke-width="6" d=" M-6.741000175476074,-6.993000030517578 C-6.741000175476074,-6.993000030517578 0.45500001311302185,-5.579999923706055 6.741000175476074,6.993000030517578"></path></g></g><g style="display: block;" transform="matrix(1,0,0,1,242.89100646972656,68.06399536132812)" opacity="1"><g opacity="1" transform="matrix(1,0,0,1,0,0)"><path stroke-linecap="round" stroke-linejoin="round" fill-opacity="0" stroke="rgb(255,255,255)" stroke-opacity="1" stroke-width="6" d=" M-1.503999948501587,-2.434999942779541 C-1.503999948501587,-2.434999942779541 0.4359999895095825,-0.9629999995231628 1.503999948501587,2.434999942779541"></path></g></g><g style="display: block;" transform="matrix(1,0,0,1,187.6699981689453,260.75)" opacity="1"><g opacity="1" transform="matrix(1,0,0,1,0,0)"><path stroke-linecap="round" stroke-linejoin="round" fill-opacity="0" stroke="rgb(247,126,65)" stroke-opacity="1" stroke-width="8" d=" M-20.025999069213867,49.73400115966797 C-20.025999069213867,49.73400115966797 -23.740999221801758,17.643999099731445 -23.844999313354492,3.555000066757202 C-23.975000381469727,-14.020000457763672 -27.357999801635742,-37.03499984741211 -9.119000434875488,-46.1870002746582 C-0.9810000061988831,-50.27000045776367 6.914000034332275,-50.22100067138672 12.970999717712402,-49.0369987487793 C19.708999633789062,-47.720001220703125 24.173999786376953,-44.99800109863281 24.173999786376953,-44.99800109863281"></path></g></g></g></svg>