<svg xmlns="http://www.w3.org/2000/svg" viewBox="0 0 512 512" width="512" height="512" style="width: 100%; height: 100%; transform: translate3d(0,0,0);" preserveAspectRatio="xMidYMid meet"><defs><clipPath id="__lottie_element_12369"><rect width="512" height="512" x="0" y="0"></rect></clipPath></defs><g clip-path="url(#__lottie_element_12369)"><g style="display: block;" transform="matrix(1,0,0,1,257.0419921875,364.72601318359375)" opacity="1"><g opacity="1" transform="matrix(1,0,0,1,0,0)"><path fill="rgb(255,209,64)" fill-opacity="1" d=" M108.56900024414062,-105.84700012207031 C116.46199798583984,-68.31600189208984 131.21499633789062,-18.11400032043457 113.6969985961914,40.69499969482422 C97.74299621582031,94.25700378417969 79.62799835205078,127.86199951171875 12.842000007629395,128.1649932861328 C-53.77399826049805,128.4669952392578 -87.44400024414062,103.35700225830078 -104.53800201416016,61.777000427246094 C-115.90299987792969,34.13399887084961 -116.54299926757812,-22.97599983215332 -115.9010009765625,-64.6969985961914 C-71.54299926757812,-99.22599792480469 41.95800018310547,-101.22599792480469 108.56900024414062,-105.84700012207031z"></path></g></g><g style="display: block;" transform="matrix(1,0,0,1,158.6230010986328,225.1719970703125)" opacity="1"><g opacity="1" transform="matrix(1,0,0,1,0,0)"><path fill="rgb(255,209,64)" fill-opacity="1" d=" M-16.610000610351562,73.9010009765625 C-17.624000549316406,49.077999114990234 -26.990999221801758,2.132999897003174 -32.167999267578125,-21.302000045776367 C-37.345001220703125,-44.73699951171875 -42.275001525878906,-72.21900177001953 -17.78499984741211,-77.62899780273438 C7.603000164031982,-83.23799896240234 10.553999900817871,-54.45199966430664 17.41900062561035,-27.30699920654297 C25.513999938964844,4.701000213623047 39.400001525878906,64.98300170898438 39.400001525878906,64.98300170898438 C39.400001525878906,64.98300170898438 25.375999450683594,64.0780029296875 8.684000015258789,66.95500183105469 C-6.603000164031982,69.58999633789062 -16.549999237060547,74.34300231933594 -16.549999237060547,74.34300231933594"></path></g><g opacity="1" transform="matrix(1,0,0,1,0,0)"><path fill="rgb(255,223,121)" fill-opacity="0" d=" M-16.610000610351562,73.9010009765625 C-17.624000549316406,49.077999114990234 -26.990999221801758,2.132999897003174 -32.167999267578125,-21.302000045776367 C-37.345001220703125,-44.73699951171875 -42.275001525878906,-72.21900177001953 -17.78499984741211,-77.62899780273438 C7.603000164031982,-83.23799896240234 10.553999900817871,-54.45199966430664 17.41900062561035,-27.30699920654297 C25.513999938964844,4.701000213623047 39.400001525878906,64.98300170898438 39.400001525878906,64.98300170898438 C39.400001525878906,64.98300170898438 25.375999450683594,64.0780029296875 8.684000015258789,66.95500183105469 C-6.603000164031982,69.58999633789062 -16.549999237060547,74.34300231933594 -16.549999237060547,74.34300231933594"></path></g><g opacity="1" transform="matrix(1,0,0,1,0,0)"><path fill="rgb(255,223,121)" fill-opacity="0.04" d=" M-9.720000267028809,51.625 C-10.605999946594238,42.025001525878906 -8.687999725341797,31.98699951171875 4.440999984741211,31.08099937438965 C18.947999954223633,30.079999923706055 21.979000091552734,43.01300048828125 21.5310001373291,58.67300033569336 C21.01099967956543,76.83499908447266 15.406000137329102,86.0260009765625 7.426000118255615,89.45099639892578 C-8.036999702453613,96.08699798583984 -8.270999908447266,73.72100067138672 -8.491000175476074,57.82699966430664"></path></g></g><g style="display: block;" transform="matrix(1,0,0,1,154.04299926757812,197.81500244140625)" opacity="1"><g opacity="1" transform="matrix(1,0,0,1,0,0)"><path fill="rgb(255,223,121)" fill-opacity="1" d=" M-30.10700035095215,-12.22599983215332 C-30.10700035095215,-12.22599983215332 -33.33700180053711,-29.268999099731445 -12.746000289916992,-35.74700164794922 C11.734000205993652,-43.44900131225586 14.576000213623047,19.062999725341797 32.393001556396484,50.34400177001953 C32.393001556396484,50.34400177001953 22.274999618530273,2.11899995803833 19.336999893188477,-13.069999694824219 C16.398000717163086,-28.257999420166016 8.904999732971191,-54.48500061035156 -15.194999694824219,-49.78799819946289 C-33.84400177001953,-46.15299987792969 -34.59199905395508,-26.575000762939453 -30.10700035095215,-12.22599983215332"></path></g></g><g style="display: block;" transform="matrix(1,0,0,1,10,31.5)" opacity="1"><g opacity="1" transform="matrix(1,0,0,1,332.9469909667969,156.65199279785156)"><path fill="rgb(255,209,64)" fill-opacity="1" d=" M32.803001403808594,129.59800720214844 C29.714000701904297,104.88500213623047 26.77400016784668,23.364999771118164 25.594999313354492,-23.535999298095703 C25.246999740600586,-37.36600112915039 25.05299949645996,-48.1870002746582 25.05299949645996,-53.652000427246094 C25.05299949645996,-77.6520004272461 24.132999420166016,-103.6520004272461 -0.9470000267028809,-103.6520004272461 C-26.94700050354004,-103.6520004272461 -26.099000930786133,-76.63899993896484 -26.94700050354004,-48.652000427246094 C-27.235000610351562,-39.1609992980957 -27.481000900268555,-22.909000396728516 -27.68600082397461,-4.570000171661377 C-28.194000244140625,40.86000061035156 -28.44700050354004,99.0979995727539 -28.44700050354004,99.0979995727539 C-28.44700050354004,99.0979995727539 -16.69700050354004,101.0979995727539 -2.197000026702881,105.5979995727539 C23.09000015258789,113.44599914550781 32.803001403808594,129.59800720214844 32.803001403808594,129.59800720214844z"></path><path fill="rgb(255,223,121)" fill-opacity="0" d=" M32.803001403808594,129.59800720214844 C29.714000701904297,104.88500213623047 26.77400016784668,23.364999771118164 25.594999313354492,-23.535999298095703 C25.246999740600586,-37.36600112915039 25.05299949645996,-48.1870002746582 25.05299949645996,-53.652000427246094 C25.05299949645996,-77.6520004272461 24.132999420166016,-103.6520004272461 -0.9470000267028809,-103.6520004272461 C-26.94700050354004,-103.6520004272461 -26.099000930786133,-76.63899993896484 -26.94700050354004,-48.652000427246094 C-27.235000610351562,-39.1609992980957 -27.481000900268555,-22.909000396728516 -27.68600082397461,-4.570000171661377 C-28.194000244140625,40.86000061035156 -28.44700050354004,99.0979995727539 -28.44700050354004,99.0979995727539 C-28.44700050354004,99.0979995727539 -16.69700050354004,101.0979995727539 -2.197000026702881,105.5979995727539 C23.09000015258789,113.44599914550781 32.803001403808594,129.59800720214844 32.803001403808594,129.59800720214844z"></path></g><g opacity="0.04" transform="matrix(1,0,0,1,0,0)"><path fill="rgb(255,223,121)" fill-opacity="1" d=" M308.83099365234375,200.45700073242188 C306.8800048828125,215.3509979248047 307.9330139160156,241.90499877929688 308.92999267578125,254.26400756835938 C309.927001953125,266.62298583984375 357.9440002441406,293.3290100097656 358.625,289.91400146484375 C359.3059997558594,286.4989929199219 352.7510070800781,225.45799255371094 345.17498779296875,200.4709930419922 C339.0920104980469,180.41000366210938 311.3810119628906,180.9949951171875 308.83099365234375,200.45700073242188z"></path></g><g opacity="1" transform="matrix(1,0,0,1,330.2980041503906,125.5)"><path fill="rgb(255,223,121)" fill-opacity="1" d=" M24.70199966430664,-39.5 C24.70199966430664,-39.5 21.267000198364258,-59.47999954223633 -0.2980000078678131,-58.5 C-22.29800033569336,-57.5 -14.29800033569336,30.5 -23.29800033569336,72.5 C-23.29800033569336,72.5 -26.29800033569336,14.5 -23.937000274658203,-29.847000122070312 C-22.357999801635742,-59.50299835205078 -16.29800033569336,-72.5 2.7019999027252197,-72.5 C21.70199966430664,-72.5 25.70199966430664,-54.5 24.70199966430664,-39.5z"></path></g><g opacity="1" transform="matrix(1,0,0,1,342.9219970703125,146.1750030517578)"><path fill="rgb(255,177,57)" fill-opacity="1" d=" M-15.92199993133545,-89.17500305175781 C-5.921999931335449,-88.17500305175781 4.078000068664551,-84.17500305175781 5.078000068664551,-53.17499923706055 C5.4039998054504395,-43.058998107910156 6.3379998207092285,-8.618000030517578 7.0289998054504395,8.8100004196167 C7.1620001792907715,12.154000282287598 7.302999973297119,15.571000099182129 7.455999851226807,19.038000106811523 C7.622000217437744,22.80500030517578 7.818999767303467,26.631000518798828 7.992000102996826,30.486000061035156 C8.57800006866455,43.57500076293945 10.041999816894531,54.96699905395508 12.184000015258789,72.9020004272461 C13.067999839782715,80.29900360107422 20.267000198364258,129.70700073242188 21.878000259399414,138.9010009765625 C22,139.5989990234375 22.106000900268555,140.1649932861328 22.19300079345703,140.5780029296875 C22.19300079345703,140.5780029296875 15.993000030517578,31.827999114990234 15.53600025177002,2.3269999027252197 C15.079000473022461,-27.173999786376953 19.781999588012695,-72.09500122070312 5.429999828338623,-86.63500213623047 C-8.92199993133545,-101.17500305175781 -15.92199993133545,-89.17500305175781 -15.92199993133545,-89.17500305175781z"></path></g><g opacity="1" transform="matrix(1,0,0,1,333,153)"><path stroke-linecap="round" stroke-linejoin="round" fill-opacity="0" stroke="rgb(247,126,65)" stroke-opacity="1" stroke-width="8" d=" M30,100 C27.225000381469727,77.7979965209961 25.893999099731445,25.75200080871582 25.339000701904297,-12.053999900817871 C25.0939998626709,-28.73900032043457 25,-42.6510009765625 25,-50 C25,-74 24.079999923706055,-100 -1,-100 C-27,-100 -26.152000427246094,-72.98699951171875 -27,-45 C-27.299999237060547,-35.09000015258789 -27.69099998474121,-21.753000259399414 -28.09000015258789,-7.940999984741211 C-29.020999908447266,24.239999771118164 -30,59 -30,59"></path></g></g><g style="display: block;" transform="matrix(1,0,0,1,317.8949890136719,308.8909912109375)" opacity="1"><g opacity="1" transform="matrix(1,0,0,1,0,0)"><path fill="rgb(255,177,57)" fill-opacity="1" d=" M-59.880001068115234,-20.711000442504883 C-59.880001068115234,-20.711000442504883 -44.49100112915039,-19.957000732421875 -28.277000427246094,-22.961000442504883 C-12.062999725341797,-25.96500015258789 21.104999542236328,-29.142000198364258 56.12699890136719,1.812000036239624 C56.12699890136719,1.812000036239624 59.89099884033203,31.211000442504883 59.89099884033203,31.211000442504883 C59.89099884033203,31.211000442504883 -54.09199905395508,1.7339999675750732 -54.09199905395508,1.7339999675750732 C-54.09199905395508,1.7339999675750732 -59.880001068115234,-20.711000442504883 -59.880001068115234,-20.711000442504883z"></path></g></g><g style="display: block;" transform="matrix(1,0,0,1,281.65399169921875,389.79901123046875)" opacity="1"><g opacity="1" transform="matrix(1,0,0,1,0,0)"><path fill="rgb(255,177,57)" fill-opacity="1" d=" M26.434999465942383,-17.17099952697754 C26.434999465942383,-17.17099952697754 -1.628999948501587,-16.26099967956543 -21.729000091552734,23.288000106811523 C-27.488000869750977,34.61899948120117 -30.195999145507812,11.482000350952148 -16.437999725341797,-10.062000274658203 C-0.6710000038146973,-34.75199890136719 20.533000946044922,-26.198999404907227 26.434999465942383,-17.17099952697754z"></path></g></g><g style="display: block;" transform="matrix(1,0,0,1,266,256)" opacity="1"><g opacity="1" transform="matrix(1,0,0,1,0,0)"><path fill="rgb(255,177,57)" fill-opacity="1" d=" M-51.75,58.25 C-59.733001708984375,85.08100128173828 -42.45199966430664,106.6969985961914 -16.5,109.25 C-1.25,110.75 25,110.75 37.75,110 C50.5,109.25 66.08899688720703,86.5979995727539 49,71.75 C33.75,58.5 -42.75,28 -51.75,58.25z"></path></g></g><g style="display: block;" transform="matrix(1,0,0,1,261.3970031738281,392.2340087890625)" opacity="1"><g opacity="1" transform="matrix(1,0,0,1,0,0)"><path fill="rgb(255,177,57)" fill-opacity="1" d=" M126.26599884033203,-3.7149999141693115 C126.26599884033203,-3.7149999141693115 126.26599884033203,-3.694999933242798 126.26599884033203,-3.694999933242798 C119.72599792480469,25.045000076293945 103.09600067138672,58.80500030517578 72.08599853515625,82.25499725341797 C72.06600189208984,82.2750015258789 72.0459976196289,82.28500366210938 72.0260009765625,82.30500030517578 C57.555999755859375,94.03500366210938 37.66600036621094,100.5250015258789 8.486000061035156,100.65499877929688 C-58.124000549316406,100.95500183105469 -91.79399871826172,75.84500122070312 -108.89399719238281,34.26499938964844 C-118.8239974975586,10.114999771118164 -122.48400115966797,-47.64500045776367 -119.10399627685547,-94.2249984741211 C-118.38500213623047,-105.78600311279297 -120.12799835205078,-120.45999908447266 -122.8270034790039,-135.97799682617188 C-127.35399627685547,-162.00900268554688 -134.56900024414062,-190.41700744628906 -137.35299682617188,-210.49000549316406 C-139.15499877929688,-223.48699951171875 -139.14599609375,-240.73399353027344 -118.93499755859375,-242.77099609375 C-128.89599609375,-236.73399353027344 -131.64700317382812,-222.73399353027344 -129.23399353027344,-208.73500061035156 C-128.6009979248047,-205.06100463867188 -123.94999694824219,-180.40199279785156 -121.25700378417969,-166.5959930419922 C-120.71099853515625,-163.7949981689453 -120.14399719238281,-160.8730010986328 -119.56700134277344,-157.86500549316406 C-119.30000305175781,-156.4720001220703 -119.03099822998047,-155.06100463867188 -118.76000213623047,-153.63499450683594 C-117.00700378417969,-144.40499877929688 -116.06300354003906,-139.572998046875 -114.98100280761719,-133.59100341796875 C-113.21299743652344,-123.81400299072266 -111.25,-108.84400177001953 -110.65699768066406,-99.20600128173828 C-110.53399658203125,-97.21499633789062 -110.41600036621094,-95.09700012207031 -110.3010025024414,-92.87100219726562 C-109.4520034790039,-76.38600158691406 -108.80400085449219,-54.00600051879883 -108.11399841308594,-33.80500030517578 C-106.3030014038086,19.250999450683594 -88.49800109863281,66.1969985961914 -7.827000141143799,72.0530014038086 C14.508000373840332,73.67400360107422 49.86399841308594,68.56999969482422 66.38600158691406,59.1609992980957 C84.74400329589844,48.70600128173828 102.50299835205078,32.40399932861328 110.25499725341797,20.718000411987305 C118.48899841308594,8.303999900817871 126.26599884033203,-3.7149999141693115 126.26599884033203,-3.7149999141693115z"></path></g></g><g style="display: block;" transform="matrix(1,0,0,1,9,20.5)" opacity="1"><g opacity="1" transform="matrix(1,0,0,1,235.25599670410156,284.0169982910156)"><g opacity="1" transform="matrix(1,0,0,1,0,0)"><path fill="rgb(255,177,57)" fill-opacity="1" d=" M-60.03300094604492,-64.85700225830078 C-52.75600051879883,-22.767000198364258 -37.67399978637695,-7.743000030517578 -33.85300064086914,-6.058000087738037 C-8.255999565124512,5.232999801635742 -4.00600004196167,39.733001708984375 -30.05299949645996,34.85300064086914 C-40.90299987792969,32.81999969482422 -48.22999954223633,25.610000610351562 -52.20199966430664,13.564000129699707 C-58.249000549316406,-4.776000022888184 -59.191001892089844,-35.68600082397461 -62.1150016784668,-69.31700134277344"></path></g></g></g><g style="display: block;" transform="matrix(1,0,0,1,160.23199462890625,223.8170166015625)" opacity="1"><g opacity="1" transform="matrix(1,0,0,1,0,0)"><path stroke-linecap="round" stroke-linejoin="round" fill-opacity="0" stroke="rgb(247,126,65)" stroke-opacity="1" stroke-width="8" d=" M-19.00200080871582,76.78199768066406 C-19.176000595092773,59.99300003051758 -21.94099998474121,40.65800094604492 -25.336000442504883,21.72599983215332 C-28.792999267578125,2.447999954223633 -32.902000427246094,-16.41200065612793 -35.59299850463867,-31.73900032043457 C-37.85100173950195,-44.60300064086914 -43.025001525878906,-70.25499725341797 -21.93400001525879,-75.83699798583984 C-3.4070000648498535,-80.73999786376953 7.861999988555908,-66.25599670410156 13.329000473022461,-39.53799819946289 C16.589000701904297,-23.604000091552734 20.211000442504883,-7.1479997634887695 24.235000610351562,10.40999984741211 C28.33799934387207,28.312999725341797 32.858001708984375,47.36399841308594 37.83599853515625,68.1760025024414"></path></g></g><g style="display: block;" transform="matrix(1,0,0,1,256.62200927734375,366.64599609375)" opacity="1"><g opacity="1" transform="matrix(1,0,0,1,0,0)"><path stroke-linecap="round" stroke-linejoin="round" fill-opacity="0" stroke="rgb(247,126,65)" stroke-opacity="1" stroke-width="8" d=" M116.37799835205078,-82.14600372314453 C120.37799835205078,-44.145999908447266 126.5459976196289,-2.9519999027252197 114.11699676513672,38.775001525878906 C98.16300201416016,92.33699798583984 80.0479965209961,125.94200134277344 13.26200008392334,126.24500274658203 C-53.354000091552734,126.5469970703125 -87.02400207519531,101.43699645996094 -104.11799621582031,59.856998443603516 C-115.48300170898438,32.2140007019043 -117.37200164794922,-20.645999908447266 -115.4800033569336,-65.24199676513672"></path></g></g><g style="display: block;" transform="matrix(1,0,0,1,10.063995361328125,31.9310302734375)" opacity="1"><g opacity="1" transform="matrix(1,0,0,1,216.58399963378906,240.0030059814453)"><path fill="rgb(255,209,64)" fill-opacity="1" d=" M-5.380000114440918,-51.91299819946289 C-25.64900016784668,-49.67300033569336 -34.15399932861328,-31.5310001373291 -30.64699935913086,6.11299991607666 C-27.36199951171875,41.374000549316406 -13.515000343322754,52.19900131225586 3.490000009536743,52.15800094604492 C18.634000778198242,52.12200164794922 31.31599998474121,39.24399948120117 31.415000915527344,6.192999839782715 C31.5049991607666,-24.01099967956543 24.740999221801758,-55.242000579833984 -5.380000114440918,-51.91299819946289z"></path><path fill="rgb(255,223,121)" fill-opacity="0" d=" M-5.380000114440918,-51.91299819946289 C-25.64900016784668,-49.67300033569336 -34.15399932861328,-31.5310001373291 -30.64699935913086,6.11299991607666 C-27.36199951171875,41.374000549316406 -13.515000343322754,52.19900131225586 3.490000009536743,52.15800094604492 C18.634000778198242,52.12200164794922 31.31599998474121,39.24399948120117 31.415000915527344,6.192999839782715 C31.5049991607666,-24.01099967956543 24.740999221801758,-55.242000579833984 -5.380000114440918,-51.91299819946289z"></path></g><g opacity="1" transform="matrix(1,0,0,1,216.38699340820312,261.58599853515625)"><path fill="rgb(255,177,57)" fill-opacity="1" d=" M27.667999267578125,-30.572999954223633 C35.21699905395508,13.666000366210938 18.834999084472656,30.542999267578125 3.684999942779541,30.572999954223633 C-11.944999694824219,30.613000869750977 -31.22100067138672,11.878999710083008 -29.454999923706055,-23.409000396728516 C-26.915000915527344,-18.999000549316406 -24.1299991607666,10.206999778747559 4.578999996185303,7.885000228881836 C31.92300033569336,5.673999786376953 27.667999267578125,-30.572999954223633 27.667999267578125,-30.572999954223633z"></path></g><g opacity="1" transform="matrix(1,0,0,1,216.5850067138672,221.61099243164062)"><path fill="rgb(255,223,121)" fill-opacity="1" d=" M31.417999267578125,24.586999893188477 C31.417999267578125,24.586999893188477 24.51799964904785,-19.55299949645996 -1.0720000267028809,-19.593000411987305 C-26.66200065612793,-19.632999420166016 -29.031999588012695,17.906999588012695 -29.461999893188477,33.73699951171875 C-29.461999893188477,33.73699951171875 -29.461999893188477,33.766998291015625 -29.461999893188477,33.766998291015625 C-29.941999435424805,30.886999130249023 -30.341999053955078,27.80699920654297 -30.652000427246094,24.506999969482422 C-34.152000427246094,-13.142999649047852 -25.652000427246094,-31.283000946044922 -5.381999969482422,-33.52299880981445 C24.738000869750977,-36.85300064086914 31.507999420166016,-5.623000144958496 31.417999267578125,24.586999893188477z"></path></g><g opacity="1" transform="matrix(1,0,0,1,216.08399963378906,240.0030059814453)"><path stroke-linecap="butt" stroke-linejoin="miter" fill-opacity="0" stroke-miterlimit="10" stroke="rgb(247,126,65)" stroke-opacity="1" stroke-width="8" d=" M-4.880000114440918,-51.91299819946289 C-12.32699966430664,-51.09000015258789 -18.18600082397461,-48.119998931884766 -22.44499969482422,-42.82500076293945 C-29.777999877929688,-33.70899963378906 -32.36600112915039,-17.700000762939453 -30.14699935913086,6.11299991607666 C-26.86199951171875,41.374000549316406 -13.015000343322754,52.19900131225586 3.990000009536743,52.15800094604492 C19.134000778198242,52.12200164794922 30.81599998474121,39.24399948120117 30.915000915527344,6.192999839782715 C30.969999313354492,-12.07699966430664 28.881999969482422,-30.724000930786133 20.55699920654297,-41.86899948120117 C15.119000434875488,-49.14899826049805 7.020999908447266,-53.22800064086914 -4.880000114440918,-51.91299819946289z"></path></g><g opacity="1" transform="matrix(1,0,0,1,218.57200622558594,270.83599853515625)"><path stroke-linecap="round" stroke-linejoin="round" fill-opacity="0" stroke="rgb(247,126,65)" stroke-opacity="1" stroke-width="8" d=" M-5.364999771118164,-0.06800000369548798 C-5.364999771118164,-0.06800000369548798 0,1.3459999561309814 5.364999771118164,-0.45899999141693115"></path></g></g><g style="display: block;" transform="matrix(1,0,0,1,10,31.5)" opacity="1"><g opacity="1" transform="matrix(1,0,0,1,276.00299072265625,235.11900329589844)"><path fill="rgb(255,209,64)" fill-opacity="1" d=" M28.996999740600586,-23.118999481201172 C27.302000045776367,-40.06399917602539 18.993000030517578,-56.2140007019043 -4.002999782562256,-55.11899948120117 C-25.003000259399414,-54.11899948120117 -32.17300033569336,-37.724998474121094 -30.58799934387207,-17.422000885009766 C-29.003000259399414,2.88100004196167 -38.887001037597656,52.275001525878906 -0.4449999928474426,55.077999114990234 C37.99700164794922,57.88100051879883 30.996999740600586,-3.11899995803833 28.996999740600586,-23.118999481201172z"></path><path fill="rgb(255,223,121)" fill-opacity="0" d=" M28.996999740600586,-23.118999481201172 C27.302000045776367,-40.06399917602539 18.993000030517578,-56.2140007019043 -4.002999782562256,-55.11899948120117 C-25.003000259399414,-54.11899948120117 -32.17300033569336,-37.724998474121094 -30.58799934387207,-17.422000885009766 C-29.003000259399414,2.88100004196167 -38.887001037597656,52.275001525878906 -0.4449999928474426,55.077999114990234 C37.99700164794922,57.88100051879883 30.996999740600586,-3.11899995803833 28.996999740600586,-23.118999481201172z"></path></g><g opacity="1" transform="matrix(1,0,0,1,276.7539978027344,258.7919921875)"><path fill="rgb(255,177,57)" fill-opacity="1" d=" M-26.799999237060547,-31.20800018310547 C-26.753999710083008,-22.79199981689453 -24.753999710083008,-0.7919999957084656 -0.7540000081062317,-0.7919999957084656 C26.263999938964844,-0.7919999957084656 27.775999069213867,-21.624000549316406 27.51099967956543,-31.20800018310547 C27.51099967956543,-31.20800018310547 38.24599838256836,31.20800018310547 -0.7540000081062317,31.20800018310547 C-39.75400161743164,31.20800018310547 -26.799999237060547,-31.20800018310547 -26.799999237060547,-31.20800018310547z"></path></g><g opacity="1" transform="matrix(1,0,0,1,276,205.47500610351562)"><path fill="rgb(255,223,121)" fill-opacity="1" d=" M-28.618999481201172,25.538000106811523 C-28.618999481201172,25.538000106811523 -27.013999938964844,-10.640000343322754 -5,-12.475000381469727 C19,-14.475000381469727 26.520999908447266,12.550000190734863 28.76099967956543,25.538000106811523 C28.76099967956543,25.538000106811523 40,-24.475000381469727 -4,-25.475000381469727 C-4,-25.475000381469727 -37.237998962402344,-29.450000762939453 -28.618999481201172,25.538000106811523z"></path></g><g opacity="1" transform="matrix(1,0,0,1,276.00299072265625,235.11900329589844)"><path stroke-linecap="butt" stroke-linejoin="miter" fill-opacity="0" stroke-miterlimit="10" stroke="rgb(247,126,65)" stroke-opacity="1" stroke-width="8" d=" M28.996999740600586,-23.118999481201172 C27.302000045776367,-40.06399917602539 18.993000030517578,-56.2140007019043 -4.002999782562256,-55.11899948120117 C-15.567999839782715,-54.56800079345703 -22.937999725341797,-49.3489990234375 -26.961999893188477,-41.37900161743164 C-30.2450008392334,-34.87699890136719 -31.299999237060547,-26.54400062561035 -30.58799934387207,-17.422000885009766 C-29.003000259399414,2.88100004196167 -38.887001037597656,52.275001525878906 -0.4449999928474426,55.077999114990234 C37.99700164794922,57.88100051879883 30.996999740600586,-3.11899995803833 28.996999740600586,-23.118999481201172z"></path></g></g><g style="display: block;" transform="matrix(1,0,0,1,10,31.5)" opacity="1"><g opacity="1" transform="matrix(1,0,0,1,289.2590026855469,353.34100341796875)"><path fill="rgb(255,209,64)" fill-opacity="1" d=" M5.664999961853027,-10.949999809265137 C0.7300000190734863,-21.718000411987305 -5.551000118255615,-29.792999267578125 -14.074999809265137,-32.0359992980957 C-22.599000930786133,-34.27899932861328 -43.8849983215332,-30.325000762939453 -62.97800064086914,-38.76599884033203 C-80.52799987792969,-46.525001525878906 -95.12100219726562,-73.05599975585938 -85.16699981689453,-85.8740005493164 C-77.51599884033203,-95.72599792480469 -53.555999755859375,-89.91200256347656 -33.367000579833984,-90.36100006103516 C-13.178000450134277,-90.80999755859375 -5.373000144958496,-93.42400360107422 6.632999897003174,-91.66799926757812 C18.638999938964844,-89.91200256347656 73.37200164794922,-69.78399658203125 85.07599639892578,-42.35499954223633 C95.03800201416016,-19.009000778198242 84.2229995727539,51.91699981689453 30.812000274658203,92.26699829101562 C30.812000274658203,92.26699829101562 5.664999961853027,-10.949999809265137 5.664999961853027,-10.949999809265137z"></path></g><g opacity="1" transform="matrix(1,0,0,1,344.2550048828125,394.2860107421875)"><path fill="rgb(255,177,57)" fill-opacity="1" d=" M-32.77899932861328,28.67799949645996 C-32.77899932861328,28.67799949645996 21.219999313354492,2.5999999046325684 29.81999969482422,-51.31800079345703 C29.81999969482422,-51.31800079345703 30.059999465942383,11.87399959564209 -24.18000030517578,51.31800079345703 C-24.18000030517578,51.31800079345703 -32.77899932861328,28.67799949645996 -32.77899932861328,28.67799949645996z"></path></g><g opacity="1" transform="matrix(1,0,0,1,289.2590026855469,332.40399169921875)"><path fill="rgb(255,223,121)" fill-opacity="1" d=" M67.6259994506836,71.33100128173828 C81.26599884033203,32.680999755859375 86.13300323486328,8.244999885559082 76.40299987792969,-12.121999740600586 C66.15399932861328,-33.57600021362305 23.236000061035156,-62.25899887084961 -11.814000129699707,-58.308998107910156 C-46.86399841308594,-54.3489990234375 -60.45399856567383,-62.67900085449219 -73.74400329589844,-57.308998107910156 C-86.89399719238281,-51.999000549316406 -72.14399719238281,-24.118999481201172 -71.8239974975586,-23.479000091552734 C-84.89399719238281,-34.479000091552734 -93.3740005493164,-54.36899948120117 -85.16400146484375,-64.93900299072266 C-77.51399993896484,-74.78900146484375 -53.55400085449219,-68.97899627685547 -33.36399841308594,-69.41899871826172 C-13.173999786376953,-69.86900329589844 -5.374000072479248,-72.48899841308594 6.636000156402588,-70.72899627685547 C18.63599967956543,-68.97899627685547 73.3759994506836,-48.8489990234375 85.07599639892578,-21.41900062561035 C92.08599853515625,-4.988999843597412 88.80599975585938,35.01100158691406 67.6259994506836,71.33100128173828z"></path></g><g opacity="1" transform="matrix(1,0,0,1,249.77699279785156,308.60198974609375)"><path fill="rgb(255,177,57)" fill-opacity="1" d=" M-48.80699920654297,-32.9739990234375 C-48.80699920654297,-32.9739990234375 -41.29499816894531,-2.6070001125335693 -8.555000305175781,-2.194000005722046 C5.021999835968018,-2.0230000019073486 22.231000900268555,-3.6600000858306885 34.30400085449219,1.7799999713897705 C43.96200180053711,6.131999969482422 50.33300018310547,15.013999938964844 48.926998138427734,32.9739990234375 C48.926998138427734,32.9739990234375 36.082000732421875,13.54800033569336 25.406999588012695,12.70199966430664 C14.732000350952148,11.855999946594238 -9.387999534606934,12.98799991607666 -32.34199905395508,0.32199999690055847 C-52.79999923706055,-10.967000007629395 -48.80699920654297,-32.9739990234375 -48.80699920654297,-32.9739990234375z"></path></g><g opacity="1" transform="matrix(1,0,0,1,289.2590026855469,332.40399169921875)"><path stroke-linecap="round" stroke-linejoin="miter" fill-opacity="0" stroke-miterlimit="4" stroke="rgb(255,255,255)" stroke-opacity="1" stroke-width="6" d=" M21.68000030517578,-53.81800079345703 C16.507999420166016,-55.59600067138672 11.241999626159668,-56.95500183105469 6,-57.77799987792969"></path></g><g opacity="1" transform="matrix(1,0,0,1,289.2590026855469,332.40399169921875)"><path stroke-linecap="round" stroke-linejoin="miter" fill-opacity="0" stroke-miterlimit="4" stroke="rgb(255,255,255)" stroke-opacity="1" stroke-width="6" d=" M-7.031000137329102,-58.64799880981445 C-8.491999626159668,-58.60300064086914 -9.942000389099121,-58.50699996948242 -11.380000114440918,-58.35599899291992"></path></g><g opacity="1" transform="matrix(1,0,0,1,288.6400146484375,353.34100341796875)"><path stroke-linecap="round" stroke-linejoin="round" fill-opacity="0" stroke="rgb(247,126,65)" stroke-opacity="1" stroke-width="8" d=" M31.430999755859375,92.26699829101562 C84.84200286865234,51.91699981689453 95.65799713134766,-19.009000778198242 85.69599914550781,-42.35499954223633 C73.99199676513672,-69.78399658203125 19.257999420166016,-89.91200256347656 7.251999855041504,-91.66799926757812 C-4.754000186920166,-93.42400360107422 -12.559000015258789,-90.80999755859375 -32.74800109863281,-90.36100006103516 C-52.9370002746582,-89.91200256347656 -76.35199737548828,-95.2770004272461 -84.5479965209961,-85.8740005493164 C-94.70999908447266,-74.21499633789062 -87.6709976196289,-46.34400177001953 -62.35900115966797,-38.76599884033203 C-42.361000061035156,-32.77899932861328 -21.979999542236328,-34.27899932861328 -13.456000328063965,-32.0359992980957 C-4.932000160217285,-29.792999267578125 1.350000023841858,-21.718000411987305 6.284999847412109,-10.949999809265137"></path></g></g><g style="display: block;" transform="matrix(1,0,0,1,338.25299072265625,99.1650390625)" opacity="1"><g opacity="1" transform="matrix(1,0,0,1,0,0)"><path stroke-linecap="round" stroke-linejoin="round" fill-opacity="0" stroke="rgb(255,255,255)" stroke-opacity="1" stroke-width="6" d=" M-1.8489999771118164,0.5899999737739563 C-1.8489999771118164,0.5899999737739563 -0.4749999940395355,-0.3050000071525574 1.8489999771118164,-0.5899999737739563"></path></g></g><g style="display: block;" transform="matrix(1,0,0,1,143.75299072265625,163.16497802734375)" opacity="1"><g opacity="1" transform="matrix(1,0,0,1,0,0)"><path stroke-linecap="round" stroke-linejoin="round" fill-opacity="0" stroke="rgb(255,255,255)" stroke-opacity="1" stroke-width="6" d=" M-0.3779999911785126,-0.8159999847412109 C-0.3779999911785126,-0.8159999847412109 1.2029999494552612,-1.2480000257492065 3.503000020980835,-0.8090000152587891"></path></g></g></g></svg>