<svg xmlns="http://www.w3.org/2000/svg" viewBox="0 0 512 512" width="512" height="512" style="width: 100%; height: 100%; transform: translate3d(0,0,0);" preserveAspectRatio="xMidYMid meet"><defs><clipPath id="__lottie_element_12423"><rect width="512" height="512" x="0" y="0"></rect></clipPath></defs><g clip-path="url(#__lottie_element_12423)"><g style="display: block;" transform="matrix(0.8999999761581421,0,0,0.8999999761581421,37.53580093383789,32.2694091796875)" opacity="1"><g opacity="1" transform="matrix(1,0,0,1,0,0)"><g opacity="0.1" transform="matrix(1,0,0,1,242.73699951171875,260.16900634765625)"><path fill="rgb(0,0,0)" fill-opacity="1" d=" M227.80299377441406,0 C227.80299377441406,125.81199645996094 125.81199645996094,227.802001953125 0.0010000000474974513,227.802001953125 C-125.81099700927734,227.802001953125 -227.802001953125,125.81199645996094 -227.802001953125,0 C-227.802001953125,-125.81199645996094 -125.81099700927734,-227.80299377441406 0.0010000000474974513,-227.80299377441406 C125.81199645996094,-227.80299377441406 227.80299377441406,-125.81199645996094 227.80299377441406,0z"></path></g><g opacity="1" transform="matrix(1,0,0,1,242.73699951171875,242.73699951171875)"><path fill="rgb(255,176,57)" fill-opacity="1" d=" M219.49400329589844,-0.0010000000474974513 C219.49400329589844,121.2229995727539 121.2239990234375,219.49400329589844 0,219.49400329589844 C-121.22200012207031,219.49400329589844 -219.49400329589844,121.2229995727539 -219.49400329589844,-0.0010000000474974513 C-219.49400329589844,-121.2229995727539 -121.22200012207031,-219.49400329589844 0,-219.49400329589844 C121.2239990234375,-219.49400329589844 219.49400329589844,-121.2229995727539 219.49400329589844,-0.0010000000474974513z"></path></g><g opacity="1" transform="matrix(1,0,0,1,242.80099487304688,240.56700134277344)"><path fill="rgb(255,209,64)" fill-opacity="1" d=" M195.64300537109375,2.997999906539917 C193.9510040283203,113.43199920654297 104.98699951171875,201.61300659179688 -3.063999891281128,199.95799255371094 C-111.11399841308594,198.30099487304688 -197.33599853515625,107.43499755859375 -195.6439971923828,-3 C-193.9499969482422,-113.43299865722656 -104.98500061035156,-201.61300659179688 3.065999984741211,-199.95799255371094 C111.11599731445312,-198.30099487304688 197.33599853515625,-107.43499755859375 195.64300537109375,2.997999906539917z"></path></g><g opacity="1" transform="matrix(1,0,0,1,242.73699951171875,242.73699951171875)"><path stroke-linecap="butt" stroke-linejoin="miter" fill-opacity="0" stroke-miterlimit="10" stroke="rgb(247,125,65)" stroke-opacity="1" stroke-width="9.297" d=" M219.49400329589844,-0.0010000000474974513 C219.49400329589844,121.2229995727539 121.2229995727539,219.49400329589844 0,219.49400329589844 C-121.2239990234375,219.49400329589844 -219.4949951171875,121.2229995727539 -219.4949951171875,-0.0010000000474974513 C-219.4949951171875,-121.2239990234375 -121.2239990234375,-219.49400329589844 0,-219.49400329589844 C121.2229995727539,-219.49400329589844 219.49400329589844,-121.2239990234375 219.49400329589844,-0.0010000000474974513z"></path></g><g opacity="1" transform="matrix(1,0,0,1,237.28399658203125,58.54999923706055)"><path fill="rgb(255,210,117)" fill-opacity="1" d=" M-106.30899810791016,17.975000381469727 C-76.12200164794922,-4.456999778747559 -37.12699890136719,-17.975000381469727 5.453000068664551,-17.975000381469727 C43.069000244140625,-17.975000381469727 77.88899993896484,-7.425000190734863 106.30999755859375,10.50100040435791 C77.7249984741211,-7.067999839782715 44.34700012207031,-17.39299964904785 8.583000183105469,-17.94099998474121 C7.580999851226807,-17.957000732421875 6.589000225067139,-17.964000701904297 5.590000152587891,-17.964000701904297 C-35.944000244140625,-17.964000701904297 -74.5530014038086,-4.690000057220459 -106.30899810791016,17.975000381469727z"></path></g><g opacity="1" transform="matrix(1,0,0,1,242.73699951171875,138.35699462890625)"><path fill="rgb(255,223,121)" fill-opacity="1" d=" M173.46600341796875,55.071998596191406 C173.46600341796875,139.49200439453125 95.8030014038086,72.71199798583984 0.0010000000474974513,72.71199798583984 C-95.802001953125,72.71199798583984 -173.46499633789062,139.49200439453125 -173.46499633789062,55.071998596191406 C-173.46499633789062,-29.347000122070312 -95.802001953125,-97.78199768066406 0.0010000000474974513,-97.78199768066406 C95.8030014038086,-97.78199768066406 173.46600341796875,-29.347000122070312 173.46600341796875,55.071998596191406z"></path></g><g opacity="1" transform="matrix(1,0,0,1,287.7820129394531,46.124000549316406)"><path stroke-linecap="round" stroke-linejoin="round" fill-opacity="0" stroke="rgb(255,255,255)" stroke-opacity="1" stroke-width="6.973" d=" M-2.7760000228881836,-0.6460000276565552 C-0.9890000224113464,-0.25699999928474426 0.8650000095367432,0.17299999296665192 2.7760000228881836,0.6460000276565552"></path></g><g opacity="1" transform="matrix(1,0,0,1,267.5050048828125,42.63100051879883)"><path stroke-linecap="round" stroke-linejoin="round" fill-opacity="0" stroke="rgb(255,255,255)" stroke-opacity="1" stroke-width="6.973" d=" M-7.315000057220459,-0.8939999938011169 C-7.315000057220459,-0.8939999938011169 -1.659999966621399,-0.5910000205039978 7.315000057220459,0.8939999938011169"></path></g></g></g><g style="display: block;" transform="matrix(0.8999999761581421,0,0,0.8999999761581421,197.439697265625,334.5389099121094)" opacity="1"><g opacity="1" transform="matrix(1,0,0,1,65.06300354003906,38.74100112915039)"><path fill="rgb(255,225,166)" fill-opacity="1" d=" M51.983001708984375,-1.3370000123977661 C38.821998596191406,-15.484999656677246 17.094999313354492,-26.770000457763672 0.0010000000474974513,-26.770000457763672 C-17.121000289916992,-26.770000457763672 -38.775001525878906,-15.484999656677246 -51.935001373291016,-1.3370000123977661 C-63.888999938964844,11.512999534606934 -64.81300354003906,23.39900016784668 -60.928001403808594,24.89299964904785 C-56.04899978637695,26.770000457763672 -34.744998931884766,7.442999839782715 0.0010000000474974513,7.070000171661377 C34.74599838256836,7.442999839782715 56.04800033569336,26.770000457763672 60.926998138427734,24.89299964904785 C64.81199645996094,23.39900016784668 63.93600082397461,11.512999534606934 51.983001708984375,-1.3370000123977661z"></path></g><g opacity="1" transform="matrix(1,0,0,1,65.06199645996094,30.56399917602539)"><path fill="rgb(255,176,57)" fill-opacity="1" d=" M48.4109992980957,-4.880000114440918 C35.25,-19.027999877929688 17.094999313354492,-30.31399917602539 0.0010000000474974513,-30.31399917602539 C-17.121000289916992,-30.31399917602539 -35.25,-19.027999877929688 -48.40999984741211,-4.880000114440918 C-60.362998962402344,7.96999979019165 -64.81199645996094,26.94300079345703 -60.926998138427734,28.437000274658203 C-56.04800033569336,30.31399917602539 -34.74399948120117,2.5989999771118164 0.0010000000474974513,2.2249999046325684 C34.74599838256836,2.5989999771118164 56.04899978637695,30.31399917602539 60.928001403808594,28.437000274658203 C64.81199645996094,26.94300079345703 60.36399841308594,7.96999979019165 48.4109992980957,-4.880000114440918z"></path></g><g opacity="1" transform="matrix(1,0,0,1,65.06199645996094,33.99300003051758)"><path fill="rgb(133,62,19)" fill-opacity="1" d=" M48.4109992980957,-1.3370000123977661 C35.25,-15.484999656677246 17.094999313354492,-26.770000457763672 0.0010000000474974513,-26.770000457763672 C-17.121000289916992,-26.770000457763672 -35.25,-15.484999656677246 -48.40999984741211,-1.3370000123977661 C-60.362998962402344,11.512999534606934 -64.81199645996094,23.39900016784668 -60.926998138427734,24.89299964904785 C-56.04800033569336,26.770000457763672 -34.74399948120117,5.980999946594238 0.0010000000474974513,5.60699987411499 C34.74599838256836,5.980999946594238 56.04899978637695,26.770000457763672 60.928001403808594,24.89299964904785 C64.81199645996094,23.39900016784668 60.36399841308594,11.512999534606934 48.4109992980957,-1.3370000123977661z"></path></g><g opacity="1" transform="matrix(1,0,0,1,65.06500244140625,32.93000030517578)"><path fill="rgb(107,31,0)" fill-opacity="1" d=" M61.37200164794922,25.70599937438965 C59.582000732421875,20.7549991607666 55.21200180053711,13.760000228881836 48.402000427246094,6.449999809265137 C35.24700164794922,-7.692999839782715 17.09600067138672,-17.82699966430664 0.0010000000474974513,-17.82699966430664 C-17.128999710083008,-17.82699966430664 -35.24599838256836,-7.692999839782715 -48.41299819946289,6.449999809265137 C-55.21099853515625,13.760000228881836 -59.58100128173828,20.7549991607666 -61.369998931884766,25.70599937438965 C-64.427001953125,23.46299934387207 -59.87099838256836,12.038999557495117 -48.41299819946289,-0.27900001406669617 C-35.24599838256836,-14.42199993133545 -17.128999710083008,-25.70599937438965 0.0010000000474974513,-25.70599937438965 C17.09600067138672,-25.70599937438965 35.24700164794922,-14.42199993133545 48.402000427246094,-0.27900001406669617 C59.86000061035156,12.038999557495117 64.4280014038086,23.46299934387207 61.37200164794922,25.70599937438965z"></path></g></g><g style="display: block;" transform="matrix(0.8999999761581421,0,0,0.8999999761581421,4.000006675720215,97.09911346435547)" opacity="1"><g opacity="1" transform="matrix(1,0,0,1,188.8800048828125,201.77099609375)"><path fill="rgb(255,226,166)" fill-opacity="1" d=" M-7.250999927520752,-9.640000343322754 C-44.630001068115234,4.229000091552734 -63.972999572753906,-7.4720001220703125 -59.167999267578125,13.375 C-55.255001068115234,30.354000091552734 -21.621000289916992,27.302000045776367 7.249000072479248,16.639999389648438 C33.744998931884766,6.855000019073486 56.244998931884766,-8.770999908447266 50.792999267578125,-24 C45.47800064086914,-38.847999572753906 19.135000228881836,-19.43000030517578 -7.250999927520752,-9.640000343322754z"></path></g><g opacity="1" transform="matrix(1,0,0,1,188.8800048828125,189.71099853515625)"><path fill="rgb(255,177,57)" fill-opacity="1" d=" M-9.25100040435791,-4.639999866485596 C-44.630001068115234,9.288999557495117 -60.130001068115234,3.6640000343322754 -60.167999267578125,19.125 C-60.20899963378906,35.80799865722656 -17.2549991607666,31.663999557495117 4.624000072479248,22.764999389648438 C21.70599937438965,15.817000389099121 58.599998474121094,-4.544000148773193 48.667999267578125,-17.25 C32.869998931884766,-37.46099853515625 22.32699966430664,-17.07200050354004 -9.25100040435791,-4.639999866485596z"></path></g><g opacity="1" transform="matrix(1,0,0,1,188.87899780273438,195.73199462890625)"><path fill="rgb(134,63,20)" fill-opacity="1" d=" M-6.625999927520752,-2.390000104904175 C-27.319000244140625,5.8480000495910645 -57.553001403808594,3.9149999618530273 -55.71200180053711,17.5 C-53.880001068115234,31.01799964904785 -13.130000114440918,25.64299964904785 5.499000072479248,17.20199966430664 C19.916000366210938,10.668999671936035 54.316001892089844,-4.811999797821045 43.96200180053711,-17.5 C32.24599838256836,-31.85700035095215 9.619999885559082,-8.857000350952148 -6.625999927520752,-2.390000104904175z"></path></g><g opacity="1" transform="matrix(1,0,0,1,188.88099670410156,182.07400512695312)"><path fill="rgb(107,32,0)" fill-opacity="1" d=" M-8,8.458999633789062 C-30.569000244140625,17.299999237060547 -45.63100051879883,16.301000595092773 -52.709999084472656,22.724000930786133 C-60.13800048828125,29.46500015258789 -52.38600158691406,35.39899826049805 -52.23699951171875,36.72800064086914 C-53.13100051879883,23.674999237060547 -29.944000244140625,24.674999237060547 -6.938000202178955,16.267000198364258 C20.261999130249023,6.326000213623047 33.11899948120117,-14.949999809265137 43.86199951171875,6.853000164031982 C44.99399948120117,4.86299991607666 48.375999450683594,-0.6069999933242798 40.209999084472656,-7.776000022888184 C29.618999481201172,-17.073999404907227 10.420999526977539,1.2430000305175781 -8,8.458999633789062z"></path></g></g><g style="display: block;" transform="matrix(-0.8999999761581421,0,0,0.8999999761581421,507.7840270996094,97.09911346435547)" opacity="1"><g opacity="1" transform="matrix(1,0,0,1,188.8800048828125,201.77099609375)"><path fill="rgb(255,226,166)" fill-opacity="1" d=" M-7.250999927520752,-9.640000343322754 C-44.630001068115234,4.229000091552734 -63.972999572753906,-7.4720001220703125 -59.167999267578125,13.375 C-55.255001068115234,30.354000091552734 -21.621000289916992,27.302000045776367 7.249000072479248,16.639999389648438 C33.744998931884766,6.855000019073486 56.244998931884766,-8.770999908447266 50.792999267578125,-24 C45.47800064086914,-38.847999572753906 19.135000228881836,-19.43000030517578 -7.250999927520752,-9.640000343322754z"></path></g><g opacity="1" transform="matrix(1,0,0,1,188.8800048828125,189.71099853515625)"><path fill="rgb(255,177,57)" fill-opacity="1" d=" M-9.25100040435791,-4.639999866485596 C-44.630001068115234,9.288999557495117 -60.130001068115234,3.6640000343322754 -60.167999267578125,19.125 C-60.20899963378906,35.80799865722656 -17.2549991607666,31.663999557495117 4.624000072479248,22.764999389648438 C21.70599937438965,15.817000389099121 58.599998474121094,-4.544000148773193 48.667999267578125,-17.25 C32.869998931884766,-37.46099853515625 22.32699966430664,-17.07200050354004 -9.25100040435791,-4.639999866485596z"></path></g><g opacity="1" transform="matrix(1,0,0,1,188.87899780273438,195.73199462890625)"><path fill="rgb(134,63,20)" fill-opacity="1" d=" M-6.625999927520752,-2.390000104904175 C-27.319000244140625,5.8480000495910645 -57.553001403808594,3.9149999618530273 -55.71200180053711,17.5 C-53.880001068115234,31.01799964904785 -13.130000114440918,25.64299964904785 5.499000072479248,17.20199966430664 C19.916000366210938,10.668999671936035 54.316001892089844,-4.811999797821045 43.96200180053711,-17.5 C32.24599838256836,-31.85700035095215 9.619999885559082,-8.857000350952148 -6.625999927520752,-2.390000104904175z"></path></g><g opacity="1" transform="matrix(1,0,0,1,188.88099670410156,182.07400512695312)"><path fill="rgb(107,32,0)" fill-opacity="1" d=" M-8,8.458999633789062 C-30.569000244140625,17.299999237060547 -45.63100051879883,16.301000595092773 -52.709999084472656,22.724000930786133 C-60.13800048828125,29.46500015258789 -52.38600158691406,35.39899826049805 -52.23699951171875,36.72800064086914 C-53.13100051879883,23.674999237060547 -29.944000244140625,24.674999237060547 -6.938000202178955,16.267000198364258 C20.261999130249023,6.326000213623047 33.11899948120117,-14.949999809265137 43.86199951171875,6.853000164031982 C44.99399948120117,4.86299991607666 48.375999450683594,-0.6069999933242798 40.209999084472656,-7.776000022888184 C29.618999481201172,-17.073999404907227 10.420999526977539,1.2430000305175781 -8,8.458999633789062z"></path></g></g></g></svg>