<svg xmlns="http://www.w3.org/2000/svg" viewBox="0 0 512 512" width="512" height="512" style="width: 100%; height: 100%; transform: translate3d(0,0,0);" preserveAspectRatio="xMidYMid meet"><defs><clipPath id="__lottie_element_12439"><rect width="512" height="512" x="0" y="0"></rect></clipPath><clipPath id="__lottie_element_12441"><path d="M0,0 L512,0 L512,512 L0,512z"></path></clipPath><clipPath id="__lottie_element_12625"><path d="M0,0 L512,0 L512,512 L0,512z"></path></clipPath></defs><g clip-path="url(#__lottie_element_12439)"><g clip-path="url(#__lottie_element_12625)" style="display: none;"><g style="display: none;"><g><path></path></g></g><g style="display: none;"><g><path></path></g></g><g style="display: none;"><g><path></path></g></g><g style="display: none;"><g><path></path></g></g><g style="display: none;"><g><path></path></g></g><g style="display: none;"><g><path></path></g></g><g style="display: none;"><g><path></path></g></g><g style="display: none;"><g><path></path></g></g><g style="display: none;"><g><path></path></g></g><g style="display: none;"><g><path></path></g></g><g style="display: none;"><g><path></path></g></g><g style="display: none;"><g><path></path></g></g><g style="display: none;"><g><path></path></g></g><g style="display: none;"><g><path></path></g></g><g style="display: none;"><g><path></path></g></g><g style="display: none;"><g><path></path></g></g><g style="display: none;"><g><path></path></g></g><g style="display: none;"><g><path></path></g></g><g style="display: none;"><g><path></path></g></g><g style="display: none;"><g><path></path></g></g><g style="display: none;"><g><path></path></g></g><g style="display: none;"><g><path stroke-linecap="round" stroke-linejoin="round" fill-opacity="0"></path></g></g><g style="display: none;"><g><path stroke-linecap="round" stroke-linejoin="round" fill-opacity="0"></path></g></g><g style="display: none;"><g><path stroke-linecap="round" stroke-linejoin="round" fill-opacity="0"></path></g></g><g style="display: none;"><g><path stroke-linecap="round" stroke-linejoin="round" fill-opacity="0"></path></g></g><g style="display: none;"><g><path></path></g></g><g style="display: none;"><g><path></path></g></g><g style="display: none;"><g><path></path></g></g><g style="display: none;"><g><path></path></g></g><g style="display: none;"><g><path></path></g></g><g style="display: none;"><g><path></path></g></g><g style="display: none;"><g><path></path></g></g><g style="display: none;"><g><path></path></g></g><g style="display: none;"><g><path></path></g></g><g style="display: none;"><g><path></path></g></g><g style="display: none;"><g><path></path></g></g><g style="display: none;"><g><path stroke-linecap="round" stroke-linejoin="round" fill-opacity="0"></path></g></g><g style="display: none;"><g><path stroke-linecap="round" stroke-linejoin="round" fill-opacity="0"></path></g></g><g style="display: none;"><g><path></path></g></g><g style="display: none;"><g><path></path></g></g><g style="display: none;"><g><path></path></g></g><g style="display: none;"><g><path></path></g></g><g style="display: none;"><g><path></path></g></g><g style="display: none;"><g><path></path></g></g><g style="display: none;"><g><path></path></g></g><g style="display: none;"><g><path></path></g></g><g style="display: none;"><g><path></path></g></g><g style="display: none;"><g><path stroke-linecap="round" stroke-linejoin="round" fill-opacity="0"></path></g></g><g style="display: none;"><g><path stroke-linecap="round" stroke-linejoin="round" fill-opacity="0"></path></g></g><g style="display: none;"><g><path stroke-linecap="round" stroke-linejoin="round" fill-opacity="0"></path></g></g><g style="display: none;"><g><path stroke-linecap="round" stroke-linejoin="round" fill-opacity="0"></path></g></g><g style="display: none;"><g><path stroke-linecap="round" stroke-linejoin="round" fill-opacity="0"></path></g></g><g style="display: none;"><g><path stroke-linecap="round" stroke-linejoin="round" fill-opacity="0"></path></g></g><g style="display: none;"><g><path stroke-linecap="round" stroke-linejoin="round" fill-opacity="0"></path></g></g><g style="display: none;"><g><path stroke-linecap="round" stroke-linejoin="round" fill-opacity="0"></path></g></g><g style="display: none;"><g><path stroke-linecap="round" stroke-linejoin="round" fill-opacity="0"></path></g></g><g style="display: none;"><g><path stroke-linecap="round" stroke-linejoin="round" fill-opacity="0"></path></g></g><g style="display: none;"><g><path stroke-linecap="round" stroke-linejoin="round" fill-opacity="0"></path></g></g><g style="display: none;"><g><path stroke-linecap="round" stroke-linejoin="round" fill-opacity="0"></path></g></g></g><g clip-path="url(#__lottie_element_12441)" style="display: block;" transform="matrix(1,0,0,1,0,0)" opacity="1"><g style="display: block;" transform="matrix(1,0,0,1,125.64200592041016,261.21697998046875)" opacity="1"><g opacity="1" transform="matrix(1,0,0,1,0,0)"><path fill="rgb(211,0,26)" fill-opacity="1" d=" M69.5199966430664,-189.07699584960938 C48.39699935913086,-204.3820037841797 25.660999298095703,-212.41799926757812 1.944000005722046,-212.96600341796875 C0.9179999828338623,-212.99000549316406 -0.10899999737739563,-213.0019989013672 -1.1180000305175781,-213.0019989013672 C-1.121000051498413,-213.0019989013672 -1.121999979019165,-213.0019989013672 -1.1239999532699585,-213.0019989013672 C-42.111000061035156,-213.0019989013672 -67.947998046875,-194.0050048828125 -82.40499877929688,-178.0679931640625 C-99.45999908447266,-159.26699829101562 -110.14900207519531,-134.56900024414062 -111.73200225830078,-110.30599975585938 C-113.38200378417969,-85.01799774169922 -110.03700256347656,-61.9010009765625 -101.2040023803711,-37.555999755859375 C-90.58200073242188,-8.28499984741211 -71.78600311279297,23.1560001373291 -43.7400016784668,58.564998626708984 C2.306999921798706,116.7030029296875 68.33000183105469,181.33900451660156 94.5790023803711,206.43099975585938 C98.65899658203125,210.33099365234375 103.9489974975586,212.61599731445312 109.61799621582031,213.0019989013672 C109.61799621582031,213.0019989013672 55.67599868774414,92.62000274658203 55.67599868774414,92.62000274658203 C55.67599868774414,92.62000274658203 107.95099639892578,9.567999839782715 107.95099639892578,9.567999839782715 C107.95099639892578,9.567999839782715 65.77899932861328,-64.98500061035156 65.77899932861328,-64.98500061035156 C73.50700378417969,-77.86499786376953 92.33399963378906,-111.72100067138672 112.13899993896484,-144.3470001220703 C100.74400329589844,-160.25799560546875 88.6259994506836,-175.23399353027344 69.5199966430664,-189.07699584960938z"></path></g></g><g style="display: block;" transform="matrix(1,0,0,1,125.54200744628906,246.78900146484375)" opacity="1"><g opacity="1" transform="matrix(1,0,0,1,0,0)"><path fill="rgb(221,18,33)" fill-opacity="1" d=" M69.62000274658203,-174.6479949951172 C19.76300048828125,-210.77200317382812 -44.676998138427734,-205.1199951171875 -82.30500030517578,-163.63999938964844 C-117.75800323486328,-124.55699920654297 -118.55899810791016,-71.23500061035156 -101.10399627685547,-23.128000259399414 C-90.48200225830078,6.14300012588501 -71.68599700927734,37.584999084472656 -43.63999938964844,72.99400329589844 C-27.336999893188477,93.5780029296875 -8.529999732971191,114.9739990234375 10.128999710083008,135.1439971923828 C27.777000427246094,150.2689971923828 44.82600021362305,164.67300415039062 57.516998291015625,177.4980010986328 C68.55899810791016,188.656005859375 82.3219985961914,195.6750030517578 96.79000091552734,198.5800018310547 C96.79000091552734,198.5800018310547 55.777000427246094,107.0479965209961 55.777000427246094,107.0479965209961 C55.777000427246094,107.0479965209961 108.0510025024414,23.996000289916992 108.0510025024414,23.996000289916992 C108.0510025024414,23.996000289916992 65.87899780273438,-50.55699920654297 65.87899780273438,-50.55699920654297 C73.60700225830078,-63.4370002746582 92.43399810791016,-97.29199981689453 112.23899841308594,-129.91799926757812 C100.84400177001953,-145.82899475097656 88.72599792480469,-160.80499267578125 69.62000274658203,-174.6479949951172z"></path></g></g><g style="display: block;" transform="matrix(1,0,0,1,126.3340072631836,233.03599548339844)" opacity="1"><g opacity="1" transform="matrix(1,0,0,1,0,0)"><path fill="rgb(254,21,18)" fill-opacity="1" d=" M-3.171999931335449,-156.01100158691406 C-66.93299865722656,-157.35499572753906 -94.36399841308594,-106.38500213623047 -96.89399719238281,-71 C-99.42400360107422,-35.6150016784668 -89.80899810791016,9.17199993133545 -36.16899871826172,70.98400115966797 C-20.340999603271484,89.2229995727539 -1.9429999589920044,108.8479995727539 16.1299991607666,127.4530029296875 C28.99799919128418,140.69900512695312 44.34199905395508,150.2259979248047 60.77299880981445,156.03700256347656 C60.77299880981445,156.03700256347656 44.98500061035156,120.8010025024414 44.98500061035156,120.8010025024414 C44.98500061035156,120.8010025024414 97.25900268554688,37.74800109863281 97.25900268554688,37.74800109863281 C97.25900268554688,37.74800109863281 55.0880012512207,-36.80400085449219 55.0880012512207,-36.80400085449219 C61.22200012207031,-47.027000427246094 74.3499984741211,-70.46800231933594 89.40699768066406,-96.01599884033203 C73.3010025024414,-118.67400360107422 40.672000885009766,-155.08700561523438 -3.171999931335449,-156.01100158691406z"></path></g></g><g style="display: block;" transform="matrix(1,0,0,1,125.74600219726562,182.5540008544922)" opacity="1"><g opacity="1" transform="matrix(1,0,0,1,0,0)"><path fill="rgb(254,44,41)" fill-opacity="1" d=" M19.909000396728516,-58.525001525878906 C19.909000396728516,-58.525001525878906 19.90399932861328,-58.525001525878906 19.90399932861328,-58.525001525878906 C-2.638000011444092,-58.525001525878906 -26.236000061035156,-53.38999938964844 -46.301998138427734,-39.45500183105469 C-46.35100173950195,-39.42100143432617 -46.400001525878906,-39.387001037597656 -46.44900131225586,-39.35300064086914 C-46.474998474121094,-39.334999084472656 -46.49800109863281,-39.319000244140625 -46.52399826049805,-39.30099868774414 C-46.558998107910156,-39.277000427246094 -46.59000015258789,-39.25400161743164 -46.625,-39.22999954223633 C-46.6510009765625,-39.21200180053711 -46.68000030517578,-39.191001892089844 -46.70600128173828,-39.17300033569336 C-79.91000366210938,-15.869999885559082 -88.09500122070312,13.842000007629395 -88.38200378417969,36.76300048828125 C-85.94999694824219,43.71200180053711 -82.9000015258789,50.95600128173828 -79.11799621582031,58.525001525878906 C-79.9260025024414,56.904998779296875 -80.6989974975586,55.29999923706055 -81.43900299072266,53.709999084472656 C-84.71499633789062,31.149999618530273 -82.71600341796875,-7.2220001220703125 -42.12099838256836,-35.7140007019043 C-22.59000015258789,-49.42300033569336 0.44200000166893005,-54.4640007019043 22.43199920654297,-54.46500015258789 C47.49300003051758,-54.465999603271484 71.2020034790039,-47.91899871826172 86.85700225830078,-40.194000244140625 C87.36199951171875,-41.055999755859375 87.87200164794922,-41.92399978637695 88.38200378417969,-42.792999267578125 C72.28800201416016,-51.19200134277344 46.85300064086914,-58.52399826049805 19.913000106811523,-58.525001525878906 C19.913000106811523,-58.525001525878906 19.909000396728516,-58.525001525878906 19.909000396728516,-58.525001525878906"></path></g></g><g style="display: block;" transform="matrix(1,0,0,1,124.29901123046875,169.83799743652344)" opacity="1"><g opacity="1" transform="matrix(1,0,0,1,0,0)"><path fill="rgb(254,55,52)" fill-opacity="1" d=" M19.089000701904297,-49.479000091552734 C19.086000442504883,-49.479000091552734 19.086999893188477,-49.479000091552734 19.083999633789062,-49.479000091552734 C-4.124000072479248,-49.47600173950195 -28.429000854492188,-44.180999755859375 -49.077999114990234,-29.799999237060547 C-49.0890007019043,-29.79199981689453 -49.104000091552734,-29.783000946044922 -49.1150016784668,-29.774999618530273 C-49.20899963378906,-29.708999633789062 -49.303001403808594,-29.64299964904785 -49.39699935913086,-29.57699966430664 C-77.3949966430664,-9.9350004196167 -88.09500122070312,14.142999649047852 -91.18699645996094,35.17499923706055 C-90.06099700927734,39.801998138427734 -88.65899658203125,44.566001892089844 -86.93499755859375,49.479000091552734 C-86.64800262451172,26.558000564575195 -78.46399688720703,-3.1540000438690186 -45.2599983215332,-26.457000732421875 C-45.23400115966797,-26.475000381469727 -45.20399856567383,-26.496999740600586 -45.178001403808594,-26.514999389648438 C-45.143001556396484,-26.538999557495117 -45.11199951171875,-26.56100082397461 -45.07699966430664,-26.584999084472656 C-45.05099868774414,-26.60300064086914 -45.02799987792969,-26.618999481201172 -45.00199890136719,-26.636999130249023 C-44.952999114990234,-26.67099952697754 -44.90399932861328,-26.704999923706055 -44.85499954223633,-26.73900032043457 C-24.785999298095703,-40.67599868774414 -1.194000005722046,-45.81100082397461 21.35099983215332,-45.810001373291016 C21.35099983215332,-45.810001373291016 21.354999542236328,-45.810001373291016 21.354999542236328,-45.810001373291016 C21.354999542236328,-45.810001373291016 21.354999542236328,-45.810001373291016 21.354999542236328,-45.810001373291016 C21.354999542236328,-45.810001373291016 21.360000610351562,-45.810001373291016 21.360000610351562,-45.810001373291016 C48.29999923706055,-45.808998107910156 73.73400115966797,-38.47600173950195 89.8280029296875,-30.07699966430664 C90.27899932861328,-30.8439998626709 90.73300170898438,-31.615999221801758 91.18699645996094,-32.387001037597656 C74.76899719238281,-41.400001525878906 47.76599884033203,-49.479000091552734 19.0939998626709,-49.479000091552734 C19.0939998626709,-49.479000091552734 19.089000701904297,-49.479000091552734 19.089000701904297,-49.479000091552734"></path></g></g><g style="display: block;" transform="matrix(1,0,0,1,122.76300048828125,160.10198974609375)" opacity="1"><g opacity="1" transform="matrix(1,0,0,1,0,0)"><path fill="rgb(254,65,62)" fill-opacity="1" d=" M17.415000915527344,-44.90999984741211 C17.41200065612793,-44.90999984741211 17.413000106811523,-44.90999984741211 17.40999984741211,-44.90999984741211 C-6.660999774932861,-44.90800094604492 -31.871999740600586,-39.41899871826172 -53.29600143432617,-24.527000427246094 C-53.319000244140625,-24.51099967956543 -53.3390007019043,-24.49799919128418 -53.36199951171875,-24.48200035095215 C-53.387001037597656,-24.464000701904297 -53.4109992980957,-24.447999954223633 -53.43600082397461,-24.43000030517578 C-53.52299880981445,-24.368999481201172 -53.612998962402344,-24.305999755859375 -53.70000076293945,-24.2450008392334 C-53.70000076293945,-24.2450008392334 -53.70000076293945,-24.2450008392334 -53.70000076293945,-24.2450008392334 C-75.4229965209961,-9.006999969482422 -87.11100006103516,8.809000015258789 -92.9729995727539,25.94700050354004 C-92.35199737548828,32.00600051879883 -91.27200317382812,38.31999969482422 -89.6510009765625,44.90999984741211 C-86.55899810791016,23.878000259399414 -75.86000061035156,-0.19900000095367432 -47.86199951171875,-19.840999603271484 C-47.768001556396484,-19.906999588012695 -47.67300033569336,-19.972999572753906 -47.57899856567383,-20.038999557495117 C-47.56800079345703,-20.047000885009766 -47.553001403808594,-20.05699920654297 -47.54199981689453,-20.065000534057617 C-26.889999389648438,-34.448001861572266 -2.5910000801086426,-39.742000579833984 20.6200008392334,-39.74300003051758 C20.62299919128418,-39.74300003051758 20.621999740600586,-39.74300003051758 20.625,-39.74300003051758 C20.625,-39.74300003051758 20.625,-39.74300003051758 20.625,-39.74300003051758 C20.625,-39.74300003051758 20.6299991607666,-39.74300003051758 20.6299991607666,-39.74300003051758 C49.301998138427734,-39.74300003051758 76.30500030517578,-31.663999557495117 92.7229995727539,-22.650999069213867 C92.80699920654297,-22.79400062561035 92.88800048828125,-22.933000564575195 92.9729995727539,-23.076000213623047 C91.60199737548828,-25 90.11900329589844,-27.027000427246094 88.50800323486328,-29.125999450683594 C88.50800323486328,-29.125999450683594 88.50800323486328,-29.125999450683594 88.50800323486328,-29.125999450683594 C88.4800033569336,-29.139999389648438 88.45500183105469,-29.152000427246094 88.427001953125,-29.166000366210938 C88.32599639892578,-29.215999603271484 88.2249984741211,-29.266000747680664 88.1240005493164,-29.31599998474121 C70.87799835205078,-37.77000045776367 44.882999420166016,-44.90999984741211 17.420000076293945,-44.90999984741211 C17.420000076293945,-44.90999984741211 17.415000915527344,-44.90999984741211 17.415000915527344,-44.90999984741211"></path></g></g><g style="display: block;" transform="matrix(1,0,0,1,120.1760025024414,148.04598999023438)" opacity="1"><g opacity="1" transform="matrix(1,0,0,1,0,0)"><path fill="rgb(254,75,72)" fill-opacity="1" d=" M16.81100082397461,-38.00400161743164 C16.808000564575195,-38.00400161743164 16.808000564575195,-38.00400161743164 16.80500030517578,-38.00400161743164 C-8.26200008392334,-38.000999450683594 -34.52399826049805,-32.26100158691406 -56.80400085449219,-16.66900062561035 C-56.84600067138672,-16.639999389648438 -56.88600158691406,-16.611000061035156 -56.928001403808594,-16.582000732421875 C-56.928001403808594,-16.582000732421875 -56.928001403808594,-16.582000732421875 -56.928001403808594,-16.582000732421875 C-73.15699768066406,-5.196000099182129 -83.98400115966797,7.579999923706055 -91.04100036621094,20.472999572753906 C-91.2020034790039,26.076000213623047 -91.01799774169922,31.913000106811523 -90.38600158691406,38.00400161743164 C-84.52400207519531,20.865999221801758 -72.83599853515625,3.0490000247955322 -51.112998962402344,-12.189000129699707 C-51.112998962402344,-12.189000129699707 -51.112998962402344,-12.189000129699707 -51.112998962402344,-12.189000129699707 C-51.0260009765625,-12.25 -50.935001373291016,-12.312999725341797 -50.847999572753906,-12.37399959564209 C-50.823001861572266,-12.392000198364258 -50.79899978637695,-12.406999588012695 -50.77399826049805,-12.425000190734863 C-50.750999450683594,-12.440999984741211 -50.731998443603516,-12.454999923706055 -50.70899963378906,-12.470999717712402 C-29.281999588012695,-27.364999771118164 -4.076000213623047,-32.85300064086914 19.99799919128418,-32.854000091552734 C20.000999450683594,-32.854000091552734 20,-32.854000091552734 20.003000259399414,-32.854000091552734 C20.003000259399414,-32.854000091552734 20.003000259399414,-32.854000091552734 20.003000259399414,-32.854000091552734 C20.003000259399414,-32.854000091552734 20.006999969482422,-32.854000091552734 20.006999969482422,-32.854000091552734 C47.470001220703125,-32.854000091552734 73.46600341796875,-25.71299934387207 90.71199798583984,-17.259000778198242 C90.81300354003906,-17.208999633789062 90.91400146484375,-17.15999984741211 91.01499938964844,-17.110000610351562 C91.04299926757812,-17.09600067138672 91.06800079345703,-17.083999633789062 91.09600067138672,-17.06999969482422 C91.09600067138672,-17.06999969482422 91.09600067138672,-17.06999969482422 91.09600067138672,-17.06999969482422 C89.3949966430664,-19.29800033569336 87.55599975585938,-21.60099983215332 85.5790023803711,-23.945999145507812 C85.5790023803711,-23.945999145507812 85.5790023803711,-23.945999145507812 85.5790023803711,-23.945999145507812 C85.54900360107422,-23.958999633789062 85.51899719238281,-23.972999572753906 85.48899841308594,-23.986000061035156 C85.4000015258789,-24.024999618530273 85.31199645996094,-24.06399917602539 85.22200012207031,-24.10300064086914 C85.19599914550781,-24.11400032043457 85.1719970703125,-24.125 85.14600372314453,-24.13599967956543 C85.12699890136719,-24.143999099731445 85.10399627685547,-24.155000686645508 85.08499908447266,-24.163000106811523 C67.38500213623047,-31.871999740600586 42.72999954223633,-38.00199890136719 16.815000534057617,-38.00400161743164 C16.812000274658203,-38.00400161743164 16.81399917602539,-38.00400161743164 16.81100082397461,-38.00400161743164"></path></g></g><g style="display: block;" transform="matrix(1,0,0,1,117.44500732421875,136.57199096679688)" opacity="1"><g opacity="1" transform="matrix(1,0,0,1,0,0)"><path fill="rgb(254,84,81)" fill-opacity="1" d=" M16.179000854492188,-31.947999954223633 C16.176000595092773,-31.947999954223633 16.176000595092773,-31.947999954223633 16.17300033569336,-31.947999954223633 C-9.680999755859375,-31.945999145507812 -36.75199890136719,-26.06100082397461 -59.7869987487793,-10.097000122070312 C-59.9379997253418,-9.991999626159668 -60.0880012512207,-9.888999938964844 -60.23899841308594,-9.782999992370605 C-60.26599884033203,-9.763999938964844 -60.29600143432617,-9.741999626159668 -60.323001861572266,-9.722999572753906 C-71.28800201416016,-2.0299999713897705 -79.8740005493164,6.2789998054504395 -86.56300354003906,14.831999778747559 C-87.2760009765625,18.48200035095215 -87.75900268554688,22.047000885009766 -88,25.464000701904297 C-88.14900207519531,27.586000442504883 -88.26399993896484,29.75200080871582 -88.30999755859375,31.947999954223633 C-81.25299835205078,19.05500030517578 -70.4260025024414,6.2779998779296875 -54.196998596191406,-5.107999801635742 C-54.196998596191406,-5.107999801635742 -54.196998596191406,-5.107999801635742 -54.196998596191406,-5.107999801635742 C-54.154998779296875,-5.13700008392334 -54.1150016784668,-5.165999889373779 -54.073001861572266,-5.195000171661377 C-31.790000915527344,-20.788999557495117 -5.533999919891357,-26.527999877929688 19.535999298095703,-26.52899932861328 C19.538999557495117,-26.52899932861328 19.538000106811523,-26.52899932861328 19.541000366210938,-26.52899932861328 C19.541000366210938,-26.52899932861328 19.541000366210938,-26.52899932861328 19.541000366210938,-26.52899932861328 C19.54400062561035,-26.52899932861328 19.542999267578125,-26.52899932861328 19.54599952697754,-26.52899932861328 C45.46099853515625,-26.527000427246094 70.11599731445312,-20.39699935913086 87.81600189208984,-12.687999725341797 C87.83499908447266,-12.680000305175781 87.85800170898438,-12.670000076293945 87.87699890136719,-12.661999702453613 C87.90299987792969,-12.651000022888184 87.927001953125,-12.638999938964844 87.9530029296875,-12.628000259399414 C88.04299926757812,-12.58899974822998 88.13099670410156,-12.550000190734863 88.22000122070312,-12.51099967956543 C88.25,-12.498000144958496 88.27999877929688,-12.484999656677246 88.30999755859375,-12.472000122070312 C88.30999755859375,-12.472000122070312 88.30999755859375,-12.472000122070312 88.30999755859375,-12.472000122070312 C86.33300018310547,-14.838000297546387 84.22899627685547,-17.246999740600586 81.98799896240234,-19.6560001373291 C81.98799896240234,-19.6560001373291 81.98799896240234,-19.6560001373291 81.98799896240234,-19.6560001373291 C64.1259994506836,-26.656999588012695 40.69900131225586,-31.94700050354004 16.183000564575195,-31.947999954223633 C16.183000564575195,-31.947999954223633 16.179000854492188,-31.947999954223633 16.179000854492188,-31.947999954223633"></path></g></g><g style="display: block;" transform="matrix(1,0,0,1,115.15800476074219,125.57200622558594)" opacity="1"><g opacity="1" transform="matrix(1,0,0,1,0,0)"><path fill="rgb(254,93,90)" fill-opacity="1" d=" M15.427000045776367,-25.83099937438965 C15.423999786376953,-25.83099937438965 15.425000190734863,-25.83099937438965 15.42199993133545,-25.83099937438965 C-11.416999816894531,-25.82900047302246 -39.527000427246094,-19.687000274658203 -63.388999938964844,-2.999000072479248 C-63.44300079345703,-2.9609999656677246 -63.499000549316406,-2.921999931335449 -63.553001403808594,-2.884000062942505 C-63.553001403808594,-2.884000062942505 -63.553001403808594,-2.884000062942505 -63.553001403808594,-2.884000062942505 C-69.7249984741211,1.4450000524520874 -75.16100311279297,5.954999923706055 -79.9540023803711,10.602999687194824 C-81.86199951171875,15.727999687194824 -83.29900360107422,20.864999771118164 -84.2760009765625,25.83099937438965 C-77.58699798583984,17.277999877929688 -69.0009994506836,8.968999862670898 -58.0359992980957,1.2760000228881836 C-58.00899887084961,1.2569999694824219 -57.97800064086914,1.2350000143051147 -57.95100021362305,1.215999960899353 C-57.79999923706055,1.1100000143051147 -57.6510009765625,1.0069999694824219 -57.5,0.9020000100135803 C-34.4630012512207,-15.064000129699707 -7.395999908447266,-20.948999404907227 18.459999084472656,-20.948999404907227 C18.46299934387207,-20.948999404907227 18.46299934387207,-20.948999404907227 18.465999603271484,-20.948999404907227 C18.465999603271484,-20.948999404907227 18.465999603271484,-20.948999404907227 18.465999603271484,-20.948999404907227 C18.465999603271484,-20.948999404907227 18.469999313354492,-20.948999404907227 18.469999313354492,-20.948999404907227 C42.986000061035156,-20.947999954223633 66.41400146484375,-15.657999992370605 84.2760009765625,-8.656999588012695 C84.2760009765625,-8.656999588012695 84.2760009765625,-8.656999588012695 84.2760009765625,-8.656999588012695 C82.26399993896484,-10.821999549865723 80.16100311279297,-12.996999740600586 77.9540023803711,-15.151000022888184 C77.86000061035156,-15.184000015258789 77.76799774169922,-15.215999603271484 77.67400360107422,-15.24899959564209 C77.64299774169922,-15.260000228881836 77.61000061035156,-15.272000312805176 77.5790023803711,-15.282999992370605 C77.55999755859375,-15.289999961853027 77.5469970703125,-15.293000221252441 77.52799987792969,-15.300000190734863 C59.96500015258789,-21.42799949645996 38.150001525878906,-25.829999923706055 15.430999755859375,-25.83099937438965 C15.430999755859375,-25.83099937438965 15.427000045776367,-25.83099937438965 15.427000045776367,-25.83099937438965"></path></g></g><g style="display: block;" transform="matrix(1,0,0,1,114.15800476074219,115.13798522949219)" opacity="1"><g opacity="1" transform="matrix(1,0,0,1,0,0)"><path fill="rgb(254,101,98)" fill-opacity="1" d=" M12.907999992370605,-21.038000106811523 C12.904999732971191,-21.038000106811523 12.904999732971191,-21.038000106811523 12.902000427246094,-21.038000106811523 C-14.800000190734863,-21.035999298095703 -43.8120002746582,-14.720000267028809 -68.4729995727539,2.4230000972747803 C-68.53900146484375,2.4690001010894775 -68.6050033569336,2.515000104904175 -68.6709976196289,2.561000108718872 C-68.72899627685547,2.6019999980926514 -68.78800201416016,2.6429998874664307 -68.84600067138672,2.684000015258789 C-68.875,2.7039999961853027 -68.90299987792969,2.7239999771118164 -68.93199920654297,2.74399995803833 C-68.93199920654297,2.74399995803833 -68.93199920654297,2.74399995803833 -68.93199920654297,2.74399995803833 C-69.52999877929688,3.1689999103546143 -70.12699890136719,3.5929999351501465 -70.71299743652344,4.017000198364258 C-74.08100128173828,9.545999526977539 -76.81600189208984,15.29699993133545 -78.9540023803711,21.038000106811523 C-74.16100311279297,16.389999389648438 -68.7249984741211,11.880000114440918 -62.553001403808594,7.551000118255615 C-62.553001403808594,7.551000118255615 -62.553001403808594,7.551000118255615 -62.553001403808594,7.551000118255615 C-62.499000549316406,7.513000011444092 -62.444000244140625,7.473999977111816 -62.38999938964844,7.435999870300293 C-38.525001525878906,-9.253999710083008 -10.418999671936035,-15.395000457763672 16.422000885009766,-15.395999908447266 C16.424999237060547,-15.395999908447266 16.423999786376953,-15.395999908447266 16.427000045776367,-15.395999908447266 C16.427000045776367,-15.395999908447266 16.427000045776367,-15.395999908447266 16.427000045776367,-15.395999908447266 C16.427000045776367,-15.395999908447266 16.430999755859375,-15.395999908447266 16.430999755859375,-15.395999908447266 C39.150001525878906,-15.395000457763672 60.96500015258789,-10.994000434875488 78.52799987792969,-4.866000175476074 C78.5469970703125,-4.859000205993652 78.55999755859375,-4.855000019073486 78.5790023803711,-4.8480000495910645 C78.61000061035156,-4.836999893188477 78.64299774169922,-4.824999809265137 78.67400360107422,-4.814000129699707 C78.76799774169922,-4.781000137329102 78.86000061035156,-4.749000072479248 78.9540023803711,-4.716000080108643 C76.30999755859375,-7.295000076293945 73.51799774169922,-9.85200023651123 70.58699798583984,-12.314000129699707 C70.53900146484375,-12.329000473022461 70.48600006103516,-12.345000267028809 70.43800354003906,-12.359999656677246 C53.551998138427734,-17.518999099731445 33.597999572753906,-21.038000106811523 12.911999702453613,-21.038000106811523 C12.911999702453613,-21.038000106811523 12.907999992370605,-21.038000106811523 12.907999992370605,-21.038000106811523"></path></g></g><g style="display: block;" transform="matrix(1,0,0,1,114.09400939941406,104.43099975585938)" opacity="1"><g opacity="1" transform="matrix(1,0,0,1,0,0)"><path fill="rgb(254,109,106)" fill-opacity="1" d=" M10.232000350952148,-14.722999572753906 C10.229000091552734,-14.722999572753906 10.229000091552734,-14.722999572753906 10.22599983215332,-14.722999572753906 C-13.699999809265137,-14.722000122070312 -38.573001861572266,-10.135000228881836 -60.93899917602539,1.7940000295639038 C-61.005001068115234,1.8289999961853027 -61.071998596191406,1.8650000095367432 -61.13800048828125,1.899999976158142 C-61.2140007019043,1.940999984741211 -61.2869987487793,1.9800000190734863 -61.362998962402344,2.0209999084472656 C-64.87999725341797,6.043000221252441 -67.96099853515625,10.319000244140625 -70.6500015258789,14.722999572753906 C-70.06400299072266,14.298999786376953 -69.46700286865234,13.875 -68.86900329589844,13.449999809265137 C-68.86900329589844,13.449999809265137 -68.86900329589844,13.449999809265137 -68.86900329589844,13.449999809265137 C-68.83999633789062,13.430000305175781 -68.81199645996094,13.40999984741211 -68.78299713134766,13.390000343322754 C-68.7249984741211,13.348999977111816 -68.66500091552734,13.307999610900879 -68.60700225830078,13.267000198364258 C-68.54100036621094,13.220999717712402 -68.47599792480469,13.175999641418457 -68.41000366210938,13.130000114440918 C-43.74599838256836,-4.014999866485596 -14.739999771118164,-10.331000328063965 12.96500015258789,-10.331999778747559 C12.968000411987305,-10.331999778747559 12.968000411987305,-10.331999778747559 12.970999717712402,-10.331999778747559 C12.970999717712402,-10.331999778747559 12.970999717712402,-10.331999778747559 12.970999717712402,-10.331999778747559 C12.970999717712402,-10.331999778747559 12.975000381469727,-10.331999778747559 12.975000381469727,-10.331999778747559 C33.6609992980957,-10.331999778747559 53.6150016784668,-6.811999797821045 70.5009994506836,-1.652999997138977 C70.54900360107422,-1.6380000114440918 70.60199737548828,-1.6230000257492065 70.6500015258789,-1.6080000400543213 C68.19000244140625,-3.687999963760376 65.62699890136719,-5.703999996185303 62.97200012207031,-7.635000228881836 C62.83700180053711,-7.671000003814697 62.70100021362305,-7.708000183105469 62.564998626708984,-7.74399995803833 C62.5359992980957,-7.751999855041504 62.50699996948242,-7.758999824523926 62.47800064086914,-7.767000198364258 C62.40700149536133,-7.785999774932861 62.33300018310547,-7.806000232696533 62.262001037597656,-7.824999809265137 C46.52899932861328,-12.003000259399414 28.659000396728516,-14.722000122070312 10.236000061035156,-14.722999572753906 C10.232999801635742,-14.722999572753906 10.234999656677246,-14.722999572753906 10.232000350952148,-14.722999572753906"></path></g></g><g style="display: block;" transform="matrix(1,0,0,1,114.89900207519531,96.23300170898438)" opacity="1"><g opacity="1" transform="matrix(1,0,0,1,0,0)"><path fill="rgb(254,116,114)" fill-opacity="1" d=" M7.11299991607666,-10.220000267028809 C7.111000061035156,-10.220000267028809 7.109000205993652,-10.220000267028809 7.10699987411499,-10.220000267028809 C-12.621999740600586,-10.218999862670898 -32.97999954223633,-7.166999816894531 -52.111000061035156,0.41499999165534973 C-55.78900146484375,3.450000047683716 -59.13399887084961,6.738999843597412 -62.167999267578125,10.220000267028809 C-62.09199905395508,10.178999900817871 -62.018001556396484,10.140000343322754 -61.94200134277344,10.098999977111816 C-61.875999450683594,10.064000129699707 -61.810001373291016,10.027999877929688 -61.74399948120117,9.993000030517578 C-39.375,-1.937000036239624 -14.505999565124512,-6.525000095367432 9.42199993133545,-6.525000095367432 C9.425000190734863,-6.525000095367432 9.425000190734863,-6.525000095367432 9.428000450134277,-6.525000095367432 C9.428000450134277,-6.525000095367432 9.428000450134277,-6.525000095367432 9.428000450134277,-6.525000095367432 C9.430999755859375,-6.525000095367432 9.428999900817871,-6.525000095367432 9.432000160217285,-6.525000095367432 C27.854999542236328,-6.52400016784668 45.724998474121094,-3.803999900817871 61.45800018310547,0.37400001287460327 C61.52899932861328,0.3930000066757202 61.60300064086914,0.41200000047683716 61.67399978637695,0.4309999942779541 C61.702999114990234,0.4390000104904175 61.73099899291992,0.44600000977516174 61.7599983215332,0.45399999618530273 C61.895999908447266,0.49000000953674316 62.03300094604492,0.527999997138977 62.167999267578125,0.5640000104904175 C59.696998596191406,-1.2400000095367432 57.13399887084961,-2.9809999465942383 54.50199890136719,-4.614999771118164 C54.2869987487793,-4.665999889373779 54.071998596191406,-4.716000080108643 53.856998443603516,-4.765999794006348 C39.41299819946289,-8.121000289916992 23.47599983215332,-10.218999862670898 7.117000102996826,-10.220000267028809 C7.114999771118164,-10.220000267028809 7.114999771118164,-10.220000267028809 7.11299991607666,-10.220000267028809"></path></g></g><g style="display: block;" transform="matrix(1,0,0,1,116.09400939941406,89.61399841308594)" opacity="1"><g opacity="1" transform="matrix(1,0,0,1,0,0)"><path fill="rgb(254,123,121)" fill-opacity="1" d=" M3.7829999923706055,-7.0329999923706055 C3.7809998989105225,-7.0329999923706055 3.7799999713897705,-7.0329999923706055 3.7780001163482666,-7.0329999923706055 C-10.949000358581543,-7.0329999923706055 -26.016000747680664,-5.366000175476074 -40.68199920654297,-1.437999963760376 C-40.71900177001953,-1.4279999732971191 -40.75899887084961,-1.4179999828338623 -40.79600143432617,-1.4079999923706055 C-40.81399917602539,-1.402999997138977 -40.83000183105469,-1.3990000486373901 -40.847999572753906,-1.3940000534057617 C-40.95500183105469,-1.3650000095367432 -41.0629997253418,-1.3359999656677246 -41.16999816894531,-1.3070000410079956 C-41.16999816894531,-1.3070000410079956 -41.16999816894531,-1.3070000410079956 -41.16999816894531,-1.3070000410079956 C-45.560001373291016,1.1649999618530273 -49.59400177001953,3.9660000801086426 -53.305999755859375,7.0329999923706055 C-34.172000885009766,-0.550000011920929 -13.819000244140625,-3.6019999980926514 5.9120001792907715,-3.6019999980926514 C5.914000034332275,-3.6019999980926514 5.915999889373779,-3.6019999980926514 5.918000221252441,-3.6019999980926514 C5.918000221252441,-3.6019999980926514 5.918000221252441,-3.6019999980926514 5.918000221252441,-3.6019999980926514 C5.920000076293945,-3.6019999980926514 5.920000076293945,-3.6019999980926514 5.921999931335449,-3.6019999980926514 C22.2810001373291,-3.6010000705718994 38.21799850463867,-1.5019999742507935 52.6619987487793,1.8530000448226929 C52.87699890136719,1.902999997138977 53.090999603271484,1.9529999494552612 53.305999755859375,2.003999948501587 C50.42100143432617,0.20999999344348907 47.457000732421875,-1.465999960899353 44.38800048828125,-2.99399995803833 C44.32400131225586,-3.006999969482422 44.257999420166016,-3.0190000534057617 44.194000244140625,-3.0320000648498535 C31.45800018310547,-5.5289998054504395 17.77400016784668,-7.0320000648498535 3.7869999408721924,-7.0329999923706055 C3.7850000858306885,-7.0329999923706055 3.7850000858306885,-7.0329999923706055 3.7829999923706055,-7.0329999923706055"></path></g></g><g style="display: block;" transform="matrix(1,0,0,1,117.7030029296875,83.97200012207031)" opacity="1"><g opacity="1" transform="matrix(1,0,0,1,0,0)"><path fill="rgb(254,130,128)" fill-opacity="1" d=" M0.335999995470047,-4.335999965667725 C0.33500000834465027,-4.335999965667725 0.3319999873638153,-4.335999965667725 0.3310000002384186,-4.335999965667725 C-8.824000358581543,-4.335999965667725 -18.107999801635742,-3.7019999027252197 -27.35099983215332,-2.2960000038146973 C-27.37700080871582,-2.2920000553131104 -27.405000686645508,-2.2880001068115234 -27.430999755859375,-2.2839999198913574 C-27.513999938964844,-2.2709999084472656 -27.597000122070312,-2.257999897003174 -27.68000030517578,-2.244999885559082 C-27.79800033569336,-2.2269999980926514 -27.915000915527344,-2.2090001106262207 -28.033000946044922,-2.190999984741211 C-28.033000946044922,-2.190999984741211 -28.033000946044922,-2.190999984741211 -28.033000946044922,-2.190999984741211 C-33.332000732421875,-0.4189999997615814 -38.23899841308594,1.777999997138977 -42.77899932861328,4.335999965667725 C-42.77899932861328,4.335999965667725 -42.77899932861328,4.335999965667725 -42.77899932861328,4.335999965667725 C-42.672000885009766,4.307000160217285 -42.56399917602539,4.2779998779296875 -42.457000732421875,4.249000072479248 C-42.43899917602539,4.24399995803833 -42.42300033569336,4.239999771118164 -42.404998779296875,4.235000133514404 C-42.36800003051758,4.224999904632568 -42.32899856567383,4.214000225067139 -42.29199981689453,4.203999996185303 C-27.624000549316406,0.2750000059604645 -12.560999870300293,-1.3910000324249268 2.1679999828338623,-1.3910000324249268 C2.1700000762939453,-1.3910000324249268 2.171999931335449,-1.3910000324249268 2.1740000247955322,-1.3910000324249268 C2.1740000247955322,-1.3910000324249268 2.1740000247955322,-1.3910000324249268 2.1740000247955322,-1.3910000324249268 C2.1760001182556152,-1.3910000324249268 2.1760001182556152,-1.3910000324249268 2.177999973297119,-1.3910000324249268 C16.165000915527344,-1.3899999856948853 29.849000930786133,0.11299999803304672 42.584999084472656,2.609999895095825 C42.64899826049805,2.622999906539917 42.71500015258789,2.634999990463257 42.77899932861328,2.6480000019073486 C39.38800048828125,0.949999988079071 35.89400100708008,-0.5569999814033508 32.28499984741211,-1.8619999885559082 C32.28499984741211,-1.8619999885559082 32.28499984741211,-1.8619999885559082 32.28499984741211,-1.8619999885559082 C22.018999099731445,-3.431999921798706 11.272000312805176,-4.335999965667725 0.3409999907016754,-4.335999965667725 C0.3400000035762787,-4.335999965667725 0.3370000123977661,-4.335999965667725 0.335999995470047,-4.335999965667725"></path></g></g><g style="display: block;" transform="matrix(1,0,0,1,119.83000183105469,79.55499267578125)" opacity="1"><g opacity="1" transform="matrix(1,0,0,1,0,0)"><path fill="rgb(254,136,134)" fill-opacity="1" d=" M0.8679999709129333,-2.555000066757202 C-10.670000076293945,-2.555000066757202 -20.992000579833984,-0.8159999847412109 -30.159000396728516,2.2260000705718994 C-30.159000396728516,2.2260000705718994 -30.159000396728516,2.2260000705718994 -30.159000396728516,2.2260000705718994 C-30.041000366210938,2.2079999446868896 -29.923999786376953,2.188999891281128 -29.805999755859375,2.1710000038146973 C-29.722999572753906,2.1579999923706055 -29.639999389648438,2.1459999084472656 -29.55699920654297,2.132999897003174 C-29.5310001373291,2.128999948501587 -29.503000259399414,2.124000072479248 -29.476999282836914,2.119999885559082 C-20.232999801635742,0.7139999866485596 -10.95199966430664,0.07999999821186066 -1.7949999570846558,0.07999999821186066 C-1.7940000295639038,0.07999999821186066 -1.7910000085830688,0.07999999821186066 -1.7899999618530273,0.07999999821186066 C-1.7899999618530273,0.07999999821186066 -1.7899999618530273,0.07999999821186066 -1.7899999618530273,0.07999999821186066 C-1.7890000343322754,0.07999999821186066 -1.7860000133514404,0.07999999821186066 -1.784999966621399,0.07999999821186066 C9.145999908447266,0.07999999821186066 19.89299964904785,0.9850000143051147 30.159000396728516,2.555000066757202 C30.159000396728516,2.555000066757202 30.159000396728516,2.555000066757202 30.159000396728516,2.555000066757202 C21.780000686645508,-0.4690000116825104 12.82699966430664,-2.3259999752044678 3.3329999446868896,-2.5280001163482666 C2.505000114440918,-2.5460000038146973 1.684000015258789,-2.555000066757202 0.8679999709129333,-2.555000066757202"></path></g></g><g style="display: block;" transform="matrix(1,0,0,1,127.92100524902344,191.54100036621094)" opacity="1"><g opacity="1" transform="matrix(1,0,0,1,0,0)"><path fill="rgb(254,33,30)" fill-opacity="1" d=" M20.256999969482422,-63.45199966430664 C-1.7330000400543213,-63.45100021362305 -24.764999389648438,-58.40999984741211 -44.29600143432617,-44.70100021362305 C-84.89099884033203,-16.208999633789062 -86.89099884033203,22.16200065612793 -83.61499786376953,44.72200012207031 C-82.875,46.3120002746582 -82.10099792480469,47.917999267578125 -81.29299926757812,49.53799819946289 C-79.03900146484375,54.05799865722656 -76.51599884033203,58.69499969482422 -73.70700073242188,63.45199966430664 C-74.11499786376953,62.51100158691406 -79.25299835205078,49.198001861572266 -79.25800323486328,31.108999252319336 C-79.26399993896484,9.406000137329102 -71.87899780273438,-19.172000885009766 -40.066001892089844,-41.50699996948242 C-21.108999252319336,-54.814998626708984 1.2389999628067017,-59.707000732421875 22.584999084472656,-59.70600128173828 C45.9370002746582,-59.70500183105469 68.08399963378906,-53.8489990234375 83.25800323486328,-46.74800109863281 C83.7300033569336,-47.55500030517578 84.20500183105469,-48.367000579833984 84.68199920654297,-49.180999755859375 C69.0270004272461,-56.90599822998047 45.31800079345703,-63.452999114990234 20.256999969482422,-63.45199966430664"></path></g></g><g style="display: block;" transform="matrix(1,0,0,1,198.46800231933594,368.4159851074219)" opacity="1"><g opacity="1" transform="matrix(1,0,0,1,0,0)"><path fill="rgb(221,18,33)" fill-opacity="1" d=" M-38.76900100708008,-18.520000457763672 C-38.76900100708008,-18.520000457763672 23.82900047302246,97.46700286865234 23.82900047302246,97.46700286865234 C23.82900047302246,97.46700286865234 28.547000885009766,101.61799621582031 28.547000885009766,101.61799621582031 C28.547000885009766,101.61799621582031 32.35100173950195,94.96099853515625 32.35100173950195,94.96099853515625 C32.35100173950195,94.96099853515625 -18.27199935913086,-19.222000122070312 -18.27199935913086,-19.222000122070312 C-18.27199935913086,-19.222000122070312 34.51900100708008,-98.61799621582031 34.51900100708008,-98.61799621582031 C34.51900100708008,-98.61799621582031 6.730000019073486,-101.61799621582031 6.730000019073486,-101.61799621582031 C6.730000019073486,-101.61799621582031 -38.76900100708008,-18.520000457763672 -38.76900100708008,-18.520000457763672z"></path></g></g><g style="display: block;" transform="matrix(1,0,0,1,198.46800231933594,368.4159851074219)" opacity="0.6"><g opacity="1" transform="matrix(1,0,0,1,0,0)"><path fill="rgb(155,0,22)" fill-opacity="1" d=" M-38.76900100708008,-18.520000457763672 C-38.76900100708008,-18.520000457763672 23.82900047302246,97.46700286865234 23.82900047302246,97.46700286865234 C23.82900047302246,97.46700286865234 28.547000885009766,101.61799621582031 28.547000885009766,101.61799621582031 C28.547000885009766,101.61799621582031 32.35100173950195,94.96099853515625 32.35100173950195,94.96099853515625 C32.35100173950195,94.96099853515625 -18.27199935913086,-19.222000122070312 -18.27199935913086,-19.222000122070312 C-18.27199935913086,-19.222000122070312 34.51900100708008,-98.61799621582031 34.51900100708008,-98.61799621582031 C34.51900100708008,-98.61799621582031 6.730000019073486,-101.61799621582031 6.730000019073486,-101.61799621582031 C6.730000019073486,-101.61799621582031 -38.76900100708008,-18.520000457763672 -38.76900100708008,-18.520000457763672z"></path></g></g><g style="display: block;" transform="matrix(1,0,0,1,200.12400817871094,229.3719940185547)" opacity="1"><g opacity="1" transform="matrix(1,0,0,1,0,0)"><path fill="rgb(221,18,33)" fill-opacity="1" d=" M5.324999809265137,37.16699981689453 C5.324999809265137,37.16699981689453 -36.46500015258789,-37.16699981689453 -36.46500015258789,-37.16699981689453 C-36.46500015258789,-37.16699981689453 -8.956999778747559,-33.16699981689453 -8.956999778747559,-33.16699981689453 C-8.956999778747559,-33.16699981689453 32.71500015258789,41.13600158691406 32.71500015258789,41.13600158691406 C32.71500015258789,41.13600158691406 5.324999809265137,37.16699981689453 5.324999809265137,37.16699981689453z"></path></g></g><g style="display: block;" transform="matrix(1,0,0,1,202.21800231933594,152.2969970703125)" opacity="1"><g opacity="1" transform="matrix(1,0,0,1,0,0)"><path fill="rgb(221,18,33)" fill-opacity="1" d=" M0.4059999883174896,-31.158000946044922 C0.4059999883174896,-31.158000946044922 -34.433998107910156,41.90800094604492 -34.433998107910156,41.90800094604492 C-34.433998107910156,41.90800094604492 -11.050999641418457,44.65800094604492 -11.050999641418457,44.65800094604492 C-11.050999641418457,44.65800094604492 34.058998107910156,-36.45399856567383 34.058998107910156,-36.45399856567383 C34.058998107910156,-36.45399856567383 0.4059999883174896,-31.158000946044922 0.4059999883174896,-31.158000946044922z"></path></g></g><g style="display: block;" transform="matrix(1,0,0,1,202.21800231933594,152.2969970703125)" opacity="0.6"><g opacity="1" transform="matrix(1,0,0,1,0,0)"><path fill="rgb(155,0,22)" fill-opacity="1" d=" M0.4059999883174896,-31.158000946044922 C0.4059999883174896,-31.158000946044922 -34.433998107910156,41.90800094604492 -34.433998107910156,41.90800094604492 C-34.433998107910156,41.90800094604492 -11.050999641418457,44.65800094604492 -11.050999641418457,44.65800094604492 C-11.050999641418457,44.65800094604492 34.058998107910156,-36.45399856567383 34.058998107910156,-36.45399856567383 C34.058998107910156,-36.45399856567383 0.4059999883174896,-31.158000946044922 0.4059999883174896,-31.158000946044922z"></path></g></g><g style="display: block;" transform="matrix(1,0,0,1,197.89700317382812,277.04901123046875)" opacity="1"><g opacity="1" transform="matrix(1,0,0,1,0,0)"><path stroke-linecap="round" stroke-linejoin="round" fill-opacity="0" stroke="rgb(254,75,72)" stroke-opacity="1" stroke-width="8" d=" M-38.630001068115234,72.6520004272461 C-38.630001068115234,72.6520004272461 7.630000114440918,-10.482999801635742 7.630000114440918,-10.482999801635742 C7.630000114440918,-10.482999801635742 -33.72600173950195,-82.81700134277344 -33.72600173950195,-82.81700134277344 C-33.72600173950195,-82.81700134277344 0.15199999511241913,-155.4040069580078 0.15199999511241913,-155.4040069580078"></path></g></g><g style="display: block;" transform="matrix(1,0,0,1,202.8489990234375,233.14898681640625)" opacity="1"><g opacity="1" transform="matrix(1,0,0,1,0,0)"><path stroke-linecap="round" stroke-linejoin="round" fill-opacity="0" stroke="rgb(254,116,114)" stroke-opacity="1" stroke-width="8" d=" M2.177999973297119,33.66699981689453 C2.177999973297119,33.66699981689453 -38.428001403808594,-38.66699981689453 -38.428001403808594,-38.66699981689453"></path></g></g><g style="display: block;" transform="matrix(1,0,0,1,197.89700317382812,277.04901123046875)" opacity="1"><g opacity="1" transform="matrix(1,0,0,1,0,0)"><path stroke-linecap="round" stroke-linejoin="round" fill-opacity="0" stroke="rgb(221,18,33)" stroke-opacity="1" stroke-width="8" d=" M1.0290000438690186,155.0019989013672 C1.0290000438690186,155.0019989013672 -38.380001068115234,72.4020004272461 -38.380001068115234,72.4020004272461"></path></g></g><g style="display: block;" transform="matrix(1,0,0,1,125.54200744628906,261.2139892578125)" opacity="1"><g opacity="1" transform="matrix(1,0,0,1,0,0)"><path stroke-linecap="round" stroke-linejoin="round" fill-opacity="0" stroke="rgb(155,0,22)" stroke-opacity="1" stroke-width="8" d=" M69.62000274658203,-189.07400512695312 C19.76300048828125,-225.197998046875 -44.676998138427734,-219.5449981689453 -82.30500030517578,-178.06500244140625 C-117.75800323486328,-138.98199462890625 -118.55899810791016,-85.66000366210938 -101.10399627685547,-37.553001403808594 C-90.48200225830078,-8.281999588012695 -71.68599700927734,23.159000396728516 -43.63999938964844,58.56800079345703 C2.4070000648498535,116.70600128173828 68.43000030517578,181.34300231933594 94.67900085449219,206.43499755859375 C98.75900268554688,210.3350067138672 104.04900360107422,212.61900329589844 109.71800231933594,213.0050048828125 C109.71800231933594,213.0050048828125 55.777000427246094,92.62300109863281 55.777000427246094,92.62300109863281 C55.777000427246094,92.62300109863281 108.0510025024414,9.571000099182129 108.0510025024414,9.571000099182129 C108.0510025024414,9.571000099182129 65.87899780273438,-64.98200225830078 65.87899780273438,-64.98200225830078 C73.60700225830078,-77.86199951171875 92.43399810791016,-111.71800231933594 112.23899841308594,-144.343994140625 C100.84400177001953,-160.2550048828125 88.72599792480469,-175.2310028076172 69.62000274658203,-189.07400512695312z"></path></g></g><g style="display: block;" transform="matrix(1,0,0,1,361.89483642578125,260.74700927734375)" opacity="1"><g opacity="1" transform="matrix(1,0,0,1,0,0)"><path fill="rgb(211,0,26)" fill-opacity="1" d=" M71.15399932861328,58.53499984741211 C99.1989974975586,23.12700080871582 117.99500274658203,-8.314000129699707 128.61700439453125,-37.58599853515625 C137.4510040283203,-61.93000030517578 140.79600524902344,-85.0469970703125 139.14599609375,-110.33599853515625 C137.56199645996094,-134.5970001220703 126.87200164794922,-159.29400634765625 109.81500244140625,-178.0959930419922 C95.35600280761719,-194.03399658203125 69.51699829101562,-213.03199768066406 28.533000946044922,-213.03199768066406 C27.516000747680664,-213.03199768066406 26.499000549316406,-213.02099609375 25.4689998626709,-212.9969940185547 C1.7519999742507935,-212.44900512695312 -20.983999252319336,-204.41099548339844 -42.10599899291992,-189.10699462890625 C-56.236000061035156,-178.86900329589844 -67.2770004272461,-167.07699584960938 -75.10399627685547,-157.30299377441406 C-76.9219970703125,-154.38099670410156 -78.75800323486328,-151.47500610351562 -80.55699920654297,-148.53399658203125 C-101.27200317382812,-114.6709976196289 -121.39299774169922,-78.44300079345703 -129.4499969482422,-65.01499938964844 C-129.4499969482422,-65.01499938964844 -87.27899932861328,9.536999702453613 -87.27899932861328,9.536999702453613 C-87.27899932861328,9.536999702453613 -139.55299377441406,92.58999633789062 -139.55299377441406,92.58999633789062 C-139.55299377441406,92.58999633789062 -85.61100006103516,212.9720001220703 -85.61100006103516,212.9720001220703 C-78.43000030517578,213.46200561523438 -71.91400146484375,210.94000244140625 -67.16600036621094,206.4010009765625 C-40.92100143432617,181.31399536132812 25.09600067138672,116.68499755859375 71.15399932861328,58.53499984741211z"></path></g></g><g style="display: block;" transform="matrix(1,0,0,1,360.6368408203125,246.05099487304688)" opacity="1"><g opacity="1" transform="matrix(1,0,0,1,0,0)"><path fill="rgb(221,18,33)" fill-opacity="1" d=" M137.7259979248047,-96.04199981689453 C135.6649932861328,-127.23999786376953 116.14600372314453,-168.5919952392578 78.0790023803711,-188.01499938964844 C30.548999786376953,-210.54600524902344 -33.88199996948242,-197.4010009765625 -77.35600280761719,-136.91799926757812 C-88.73300170898438,-119.36799621582031 -122.30999755859375,-60.12300109863281 -128.19200134277344,-50.319000244140625 C-128.19200134277344,-50.319000244140625 -86.0199966430664,24.233999252319336 -86.0199966430664,24.233999252319336 C-86.0199966430664,24.233999252319336 -138.2949981689453,107.28600311279297 -138.2949981689453,107.28600311279297 C-138.2949981689453,107.28600311279297 -98.24500274658203,196.6649932861328 -98.24500274658203,196.6649932861328 C-72.35800170898438,201.89100646972656 -43.98400115966797,194.9290008544922 -24.757999420166016,175.73599243164062 C29.11400032043457,121.95500183105469 77.34200286865234,74.54199981689453 109.06800079345703,20.48900032043457 C137.05499267578125,-27.73200035095215 139.8780059814453,-63.46099853515625 137.7259979248047,-96.04199981689453z"></path></g></g><g style="display: block;" transform="matrix(1,0,0,1,363.3968505859375,238.9359893798828)" opacity="1"><g opacity="1" transform="matrix(1,0,0,1,0,0)"><path fill="rgb(254,21,18)" fill-opacity="1" d=" M120.11299896240234,-74.4000015258789 C117.58300018310547,-109.78500366210938 90.1520004272461,-160.7550048828125 26.391000747680664,-159.41099548339844 C-19.231000900268555,-158.4499969482422 -52.70600128173828,-119.06600189208984 -68.06099700927734,-96.73400115966797 C-68.06099700927734,-96.73400115966797 -68.04199981689453,-96.6050033569336 -68.04199981689453,-96.6050033569336 C-76.6259994506836,-83.02300262451172 -94.80000305175781,-49.948001861572266 -101.3030014038086,-39.65800094604492 C-102.4020004272461,-37.91999816894531 -102.4530029296875,-35.72100067138672 -101.44100189208984,-33.930999755859375 C-101.44100189208984,-33.930999755859375 -66.91899871826172,28.69499969482422 -66.91899871826172,28.69499969482422 C-65.61900329589844,30.993000030517578 -65.68599700927734,33.819000244140625 -67.09200286865234,36.05400085449219 C-67.09200286865234,36.05400085449219 -118.60299682617188,117.85600280761719 -118.60299682617188,117.85600280761719 C-118.60299682617188,117.85600280761719 -101.85099792480469,156.9250030517578 -101.85099792480469,156.9250030517578 C-63.571998596191406,164.8820037841797 -21.93899917602539,153.93600463867188 7.090000152587891,124.0530014038086 C25.163000106811523,105.447998046875 43.560001373291016,85.822998046875 59.38800048828125,67.58399963378906 C113.02799987792969,5.771999835968018 122.64299774169922,-39.01499938964844 120.11299896240234,-74.4000015258789z"></path></g></g><g style="display: block;" transform="matrix(1,0,0,1,395.475830078125,139.07199096679688)" opacity="1"><g opacity="1" transform="matrix(1,0,0,1,0,0)"><path fill="rgb(254,84,81)" fill-opacity="1" d=" M-88.30999755859375,-12.472000122070312 C-53.54199981689453,-27.784000396728516 8.64900016784668,-37.08000183105469 54.196998596191406,-5.107999801635742 C70.4260025024414,6.2779998779296875 81.25299835205078,19.05500030517578 88.30999755859375,31.947999954223633 C88.26399993896484,29.75200080871582 88.14800262451172,27.586000442504883 87.9990005493164,25.464000701904297 C87.75800323486328,22.047000885009766 87.2760009765625,18.48200035095215 86.56300354003906,14.831999778747559 C79.8740005493164,6.2789998054504395 71.28800201416016,-2.0309998989105225 60.323001861572266,-9.723999977111816 C15.383999824523926,-41.26100158691406 -45.13999938964844,-34.097999572753906 -81.98799896240234,-19.6560001373291 C-84.22899627685547,-17.246999740600586 -86.33300018310547,-14.838000297546387 -88.30999755859375,-12.472000122070312z"></path></g></g><g style="display: block;" transform="matrix(1,0,0,1,397.7628173828125,128.072998046875)" opacity="1"><g opacity="1" transform="matrix(1,0,0,1,0,0)"><path fill="rgb(254,93,90)" fill-opacity="1" d=" M-84.2760009765625,-8.656999588012695 C-47.428001403808594,-23.099000930786133 13.097000122070312,-30.26099967956543 58.0359992980957,1.2760000228881836 C69.0009994506836,8.968999862670898 77.58699798583984,17.277999877929688 84.2760009765625,25.83099937438965 C83.29900360107422,20.864999771118164 81.86199951171875,15.727999687194824 79.9540023803711,10.602999687194824 C75.16100311279297,5.954999923706055 69.7249984741211,1.4459999799728394 63.553001403808594,-2.884000062942505 C19.30299949645996,-33.944000244140625 -39.599998474121094,-28.64900016784668 -77.9540023803711,-15.151000022888184 C-80.16100311279297,-12.996999740600586 -82.26499938964844,-10.821999549865723 -84.2760009765625,-8.656999588012695z"></path></g></g><g style="display: block;" transform="matrix(1,0,0,1,398.7628173828125,117.63800048828125)" opacity="1"><g opacity="1" transform="matrix(1,0,0,1,0,0)"><path fill="rgb(254,101,98)" fill-opacity="1" d=" M-78.9540023803711,-4.716000080108643 C-40.599998474121094,-18.214000701904297 18.30299949645996,-23.509000778198242 62.553001403808594,7.551000118255615 C68.7249984741211,11.880999565124512 74.16100311279297,16.389999389648438 78.9540023803711,21.038000106811523 C76.81600189208984,15.29699993133545 74.08100128173828,9.545999526977539 70.71299743652344,4.017000198364258 C70.12699890136719,3.5929999351501465 69.52999877929688,3.1679999828338623 68.93199920654297,2.74399995803833 C25.739999771118164,-27.583999633789062 -30.934999465942383,-24.464000701904297 -70.58699798583984,-12.314000129699707 C-73.51799774169922,-9.85200023651123 -76.30999755859375,-7.295000076293945 -78.9540023803711,-4.716000080108643z"></path></g></g><g style="display: block;" transform="matrix(1,0,0,1,398.8258056640625,106.93199157714844)" opacity="1"><g opacity="1" transform="matrix(1,0,0,1,0,0)"><path fill="rgb(254,109,106)" fill-opacity="1" d=" M-70.6500015258789,-1.6080000400543213 C-30.99799919128418,-13.758000373840332 25.677000045776367,-16.878000259399414 68.86900329589844,13.449999809265137 C69.46700286865234,13.87399959564209 70.06400299072266,14.298999786376953 70.6500015258789,14.722999572753906 C67.96099853515625,10.319000244140625 64.87999725341797,6.043000221252441 61.362998962402344,2.0209999084472656 C21.42300033569336,-19.47800064086914 -26.584999084472656,-17.440000534057617 -62.972999572753906,-7.635000228881836 C-65.62799835205078,-5.703999996185303 -68.19000244140625,-3.687999963760376 -70.6500015258789,-1.6080000400543213z"></path></g></g><g style="display: block;" transform="matrix(1,0,0,1,398.0218505859375,98.73298645019531)" opacity="1"><g opacity="1" transform="matrix(1,0,0,1,0,0)"><path fill="rgb(254,116,114)" fill-opacity="1" d=" M-62.167999267578125,0.5640000104904175 C-25.780000686645508,-9.241000175476074 22.22800064086914,-11.279000282287598 62.167999267578125,10.220000267028809 C59.13399887084961,6.738999843597412 55.78900146484375,3.450000047683716 52.111000061035156,0.41499999165534973 C16.871999740600586,-13.550000190734863 -22.516000747680664,-12.14900016784668 -54.50199890136719,-4.614999771118164 C-57.13399887084961,-2.9809999465942383 -59.696998596191406,-1.2400000095367432 -62.167999267578125,0.5640000104904175z"></path></g></g><g style="display: block;" transform="matrix(1,0,0,1,396.82684326171875,92.114990234375)" opacity="1"><g opacity="1" transform="matrix(1,0,0,1,0,0)"><path fill="rgb(254,123,121)" fill-opacity="1" d=" M-53.305999755859375,2.003999948501587 C-21.31999969482422,-5.53000020980835 18.066999435424805,-6.932000160217285 53.305999755859375,7.0329999923706055 C49.59400177001953,3.9660000801086426 45.558998107910156,1.1649999618530273 41.16899871826172,-1.3070000410079956 C12.354999542236328,-9.128000259399414 -18.045000076293945,-8.182999610900879 -44.38800048828125,-2.99399995803833 C-47.457000732421875,-1.465999960899353 -50.42100143432617,0.210999995470047 -53.305999755859375,2.003999948501587z"></path></g></g><g style="display: block;" transform="matrix(1,0,0,1,395.2168273925781,86.47200012207031)" opacity="1"><g opacity="1" transform="matrix(1,0,0,1,0,0)"><path fill="rgb(254,130,128)" fill-opacity="1" d=" M-42.77899932861328,2.6480000019073486 C-16.43600082397461,-2.5409998893737793 13.96500015258789,-3.484999895095825 42.77899932861328,4.335999965667725 C38.23899841308594,1.777999997138977 33.33100128173828,-0.4189999997615814 28.031999588012695,-2.190999984741211 C7.5279998779296875,-5.395999908447266 -13.206000328063965,-4.78000020980835 -32.28499984741211,-1.8619999885559082 C-35.89400100708008,-0.5569999814033508 -39.38800048828125,0.949999988079071 -42.77899932861328,2.6480000019073486z"></path></g></g><g style="display: block;" transform="matrix(1,0,0,1,393.0908203125,82.05598449707031)" opacity="1"><g opacity="1" transform="matrix(1,0,0,1,0,0)"><path fill="rgb(254,136,134)" fill-opacity="1" d=" M-30.159000396728516,2.555000066757202 C-11.079999923706055,-0.3630000054836273 9.654999732971191,-0.9789999723434448 30.159000396728516,2.2260000705718994 C20.3439998626709,-1.031999945640564 9.206000328063965,-2.7929999828338623 -3.3329999446868896,-2.5280001163482666 C-12.82699966430664,-2.3259999752044678 -21.780000686645508,-0.4690000116825104 -30.159000396728516,2.555000066757202z"></path></g></g><g style="display: block;" transform="matrix(1,0,0,1,434.3148193359375,96.71098327636719)" opacity="1"><g opacity="1" transform="matrix(1,0,0,1,0,0)"><path stroke-linecap="round" stroke-linejoin="round" fill-opacity="0" stroke="rgb(255,255,255)" stroke-opacity="1" stroke-width="6.907" d=" M-1.8630000352859497,-1.2009999752044678 C-0.6129999756813049,-0.46399998664855957 0.6340000033378601,0.33500000834465027 1.8630000352859497,1.2009999752044678"></path></g></g><g style="display: block;" transform="matrix(1,0,0,1,416.4398193359375,89.08799743652344)" opacity="1"><g opacity="1" transform="matrix(1,0,0,1,0,0)"><path stroke-linecap="round" stroke-linejoin="round" fill-opacity="0" stroke="rgb(255,255,255)" stroke-opacity="1" stroke-width="6.907" d=" M-6.11899995803833,-1.7089999914169312 C-6.11899995803833,-1.7089999914169312 -1.406000018119812,-1.3170000314712524 6.11899995803833,1.7089999914169312"></path></g></g><g style="display: block;" transform="matrix(1,0,0,1,386.43585205078125,172.33799743652344)" opacity="1"><g opacity="1" transform="matrix(1,0,0,1,0,0)"><path fill="rgb(254,55,52)" fill-opacity="1" d=" M-93.37300109863281,-26.797000885009766 C-66.63899993896484,-43.691001892089844 0.28700000047683716,-59.564998626708984 47.44499969482422,-26.457000732421875 C80.6500015258789,-3.1540000438690186 88.83300018310547,26.558000564575195 89.12000274658203,49.479000091552734 C90.84400177001953,44.566001892089844 92.24700164794922,39.801998138427734 93.37300109863281,35.17499923706055 C90.28099822998047,14.142999649047852 79.58100128173828,-9.9350004196167 51.58300018310547,-29.57699966430664 C4.920000076293945,-62.345001220703125 -60.558998107910156,-48.45500183105469 -89.91300201416016,-31.8799991607666 C-91.177001953125,-30.086999893188477 -92.3270034790039,-28.378000259399414 -93.37300109863281,-26.797000885009766z"></path></g></g><g style="display: block;" transform="matrix(1,0,0,1,389.82684326171875,162.60299682617188)" opacity="1"><g opacity="1" transform="matrix(1,0,0,1,0,0)"><path fill="rgb(254,65,62)" fill-opacity="1" d=" M-93.30400085449219,-22.143999099731445 C-63.95000076293945,-38.71900177001953 1.5290000438690186,-52.60900115966797 48.19200134277344,-19.840999603271484 C76.19000244140625,-0.19900000095367432 86.88999938964844,23.878000259399414 89.98200225830078,44.90999984741211 C91.60299682617188,38.31999969482422 92.68299865722656,32.00600051879883 93.30400085449219,25.94700050354004 C87.44200134277344,8.809000015258789 75.75399780273438,-9.006999969482422 54.03099822998047,-24.2450008392334 C7.941999912261963,-56.61000061035156 -55.834999084472656,-45.138999938964844 -88.1780014038086,-29.125999450683594 C-90.0510025024414,-26.684999465942383 -91.75199890136719,-24.340999603271484 -93.30400085449219,-22.143999099731445z"></path></g></g><g style="display: block;" transform="matrix(1,0,0,1,392.74481201171875,150.5469970703125)" opacity="1"><g opacity="1" transform="matrix(1,0,0,1,0,0)"><path fill="rgb(254,75,72)" fill-opacity="1" d=" M-91.09600067138672,-17.06999969482422 C-58.75299835205078,-33.08300018310547 5.02400016784668,-44.55400085449219 51.112998962402344,-12.189000129699707 C72.83599853515625,3.0490000247955322 84.52400207519531,20.864999771118164 90.38600158691406,38.00299835205078 C91.01799774169922,31.91200065612793 91.2020034790039,26.076000213623047 91.04100036621094,20.472999572753906 C83.98400115966797,7.579999923706055 73.15699768066406,-5.196000099182129 56.928001403808594,-16.582000732421875 C11.380000114440918,-48.55400085449219 -50.81100082397461,-39.25899887084961 -85.5790023803711,-23.94700050354004 C-87.55599975585938,-21.601999282836914 -89.3949966430664,-19.29800033569336 -91.09600067138672,-17.06999969482422z"></path></g></g><g style="display: block;" transform="matrix(1,0,0,1,382.4498291015625,184.48899841308594)" opacity="1"><g opacity="1" transform="matrix(1,0,0,1,0,0)"><path fill="rgb(254,44,41)" fill-opacity="1" d=" M46.845001220703125,-35.14899826049805 C87.44000244140625,-6.6570000648498535 89.44000244140625,31.71500015258789 86.16400146484375,54.275001525878906 C85.59700012207031,55.49300003051758 84.99700164794922,56.724998474121094 84.39099884033203,57.959999084472656 C87.91400146484375,50.801998138427734 90.7959976196289,43.928001403808594 93.10600280761719,37.327999114990234 C92.81900024414062,14.406999588012695 84.63600158691406,-15.305000305175781 51.430999755859375,-38.608001708984375 C4.2729997634887695,-71.71600341796875 -62.652000427246094,-55.840999603271484 -89.38600158691406,-38.946998596191406 C-90.8479995727539,-36.72999954223633 -92.08699798583984,-34.755001068115234 -93.10600280761719,-33.08000183105469 C-70.06999969482422,-50.236000061035156 -1.0839999914169312,-68.79100036621094 46.845001220703125,-35.14899826049805z"></path></g></g><g style="display: block;" transform="matrix(1,0,0,1,377.8258361816406,194.04098510742188)" opacity="1"><g opacity="1" transform="matrix(1,0,0,1,0,0)"><path fill="rgb(254,33,30)" fill-opacity="1" d=" M-91.8550033569336,-36.784000396728516 C-73.64900207519531,-54.016998291015625 -1.8259999752044678,-75.9520034790039 47.23899841308594,-41.50699996948242 C105.56800079345703,-0.5569999814033508 81.7760009765625,61.382999420166016 80.87999725341797,63.45199966430664 C84.69599914550781,56.9900016784668 87.98300170898438,50.749000549316406 90.78700256347656,44.72200012207031 C94.06300354003906,22.16200065612793 92.06300354003906,-16.208999633789062 51.46799850463867,-44.70100021362305 C3.5290000438690186,-78.3499984741211 -65.47799682617188,-59.779998779296875 -88.4990005493164,-42.62099838256836 C-90.61399841308594,-39.14099884033203 -91.75199890136719,-36.974998474121094 -91.8550033569336,-36.784000396728516z"></path></g></g><g style="display: block;" transform="matrix(1,0,0,1,253.6508331298828,411.0789794921875)" opacity="1"><g opacity="1" transform="matrix(1,0,0,1,0,0)"><path fill="rgb(221,18,33)" fill-opacity="1" d=" M23.18199920654297,62.249000549316406 C23.18199920654297,62.249000549316406 28.249000549316406,59.784000396728516 28.249000549316406,59.784000396728516 C28.249000549316406,59.784000396728516 -8.265999794006348,-61.01300048828125 -8.265999794006348,-61.01300048828125 C-8.265999794006348,-61.01300048828125 -31.249000549316406,-57.249000549316406 -31.249000549316406,-57.249000549316406 C-31.249000549316406,-57.249000549316406 23.18199920654297,62.249000549316406 23.18199920654297,62.249000549316406z"></path></g></g><g style="display: block;" transform="matrix(1,0,0,1,253.6508331298828,411.0789794921875)" opacity="0.66"><g opacity="1" transform="matrix(1,0,0,1,0,0)"><path fill="rgb(155,0,22)" fill-opacity="1" d=" M23.18199920654297,62.249000549316406 C23.18199920654297,62.249000549316406 28.249000549316406,59.784000396728516 28.249000549316406,59.784000396728516 C28.249000549316406,59.784000396728516 -6.35099983215332,-54.66699981689453 -6.35099983215332,-54.66699981689453 C-6.35099983215332,-54.66699981689453 -31.249000549316406,-57.249000549316406 -31.249000549316406,-57.249000549316406 C-31.249000549316406,-57.249000549316406 23.18199920654297,62.249000549316406 23.18199920654297,62.249000549316406z"></path></g></g><g style="display: block;" transform="matrix(1,0,0,1,262.7578430175781,229.718994140625)" opacity="1"><g opacity="1" transform="matrix(1,0,0,1,0,0)"><path fill="rgb(221,18,33)" fill-opacity="1" d=" M-31.538000106811523,-33.763999938964844 C-31.538000106811523,-33.763999938964844 -1.996999979019165,-28.763999938964844 -1.996999979019165,-28.763999938964844 C-1.996999979019165,-28.763999938964844 35.78799819946289,38.013999938964844 35.78799819946289,38.013999938964844 C35.78799819946289,38.013999938964844 11.402999877929688,39.78900146484375 11.402999877929688,39.78900146484375 C11.402999877929688,39.78900146484375 -31.538000106811523,-33.763999938964844 -31.538000106811523,-33.763999938964844z"></path></g></g><g style="display: block;" transform="matrix(1,0,0,1,262.7578430175781,229.718994140625)" opacity="0.66"><g opacity="1" transform="matrix(1,0,0,1,0,0)"><path fill="rgb(155,0,22)" fill-opacity="1" d=" M-31.538000106811523,-33.763999938964844 C-31.538000106811523,-33.763999938964844 -1.996999979019165,-28.763999938964844 -1.996999979019165,-28.763999938964844 C-1.996999979019165,-28.763999938964844 38.28799819946289,43.013999938964844 38.28799819946289,43.013999938964844 C38.28799819946289,43.013999938964844 11.402999877929688,39.78900146484375 11.402999877929688,39.78900146484375 C11.402999877929688,39.78900146484375 -31.538000106811523,-33.763999938964844 -31.538000106811523,-33.763999938964844z"></path></g></g><g style="display: block;" transform="matrix(1,0,0,1,279.6148376464844,196.11099243164062)" opacity="1"><g opacity="1" transform="matrix(1,0,0,1,0,0)"><path stroke-linecap="round" stroke-linejoin="round" fill-opacity="0" stroke="rgb(254,74,71)" stroke-opacity="1" stroke-width="8" d=" M20.805999755859375,75.5479965209961 C20.805999755859375,75.5479965209961 -16.354000091552734,4.968999862670898 -16.354000091552734,4.968999862670898 C-16.354000091552734,4.968999862670898 10.829999923706055,-47.361000061035156 30.104000091552734,-66.4229965209961"></path></g></g><g style="display: block;" transform="matrix(1,0,0,1,259.71783447265625,388.6470031738281)" opacity="1"><g opacity="1" transform="matrix(1,0,0,1,0,0)"><path stroke-linecap="round" stroke-linejoin="round" fill-opacity="0" stroke="rgb(221,18,33)" stroke-opacity="1" stroke-width="8" d=" M17.138999938964844,52.750999450683594 C17.138999938964844,52.750999450683594 -11.836000442504883,-32.65399932861328 -11.836000442504883,-32.65399932861328"></path></g></g><g style="display: block;" transform="matrix(1,0,0,1,271.9378356933594,308.4649963378906)" opacity="1"><g opacity="1" transform="matrix(1,0,0,1,0,0)"><path stroke-linecap="round" stroke-linejoin="round" fill-opacity="0" stroke="rgb(254,108,106)" stroke-opacity="1" stroke-width="8" d=" M-24.69300079345703,47.624000549316406 C-24.69300079345703,47.624000549316406 28.523000717163086,-36.7869987487793 28.523000717163086,-36.7869987487793"></path></g></g><g style="display: block;" transform="matrix(1,0,0,1,361.995849609375,260.80499267578125)" opacity="1"><g opacity="1" transform="matrix(1,0,0,1,0,0)"><path stroke-linecap="round" stroke-linejoin="round" fill-opacity="0" stroke="rgb(155,0,22)" stroke-opacity="1" stroke-width="8" d=" M71.0530014038086,58.47700119018555 C99.0979995727539,23.069000244140625 117.89299774169922,-8.373000144958496 128.51499938964844,-37.64500045776367 C146.16799926757812,-86.29199981689453 144.88900756835938,-139.3800048828125 109.71399688720703,-178.1540069580078 C56.72999954223633,-236.55599975585938 -38.16899871826172,-218.0489959716797 -80.65799713134766,-148.59300231933594 C-101.37300109863281,-114.7300033569336 -121.49400329589844,-78.50199890136719 -129.55099487304688,-65.0739974975586 C-129.55099487304688,-65.0739974975586 -87.37999725341797,9.479000091552734 -87.37999725341797,9.479000091552734 C-87.37999725341797,9.479000091552734 -139.6540069580078,92.53199768066406 -139.6540069580078,92.53199768066406 C-139.6540069580078,92.53199768066406 -85.71299743652344,212.91400146484375 -85.71299743652344,212.91400146484375 C-85.14700317382812,212.9530029296875 -84.58200073242188,212.99400329589844 -84.00900268554688,212.99400329589844 C-77.6989974975586,212.99400329589844 -71.75399780273438,210.6320037841797 -67.26799774169922,206.34300231933594 C-41.02299880981445,181.25599670410156 24.9950008392334,116.62699890136719 71.0530014038086,58.47700119018555z"></path></g></g><g style="display: block;" transform="matrix(0.2954423427581787,0.05209445580840111,-0.05209445580840111,0.2954423427581787,244.0062713623047,266.8103942871094)" opacity="1"><g opacity="1" transform="matrix(1,0,0,1,0,0)"><path stroke-linecap="round" stroke-linejoin="round" fill-opacity="0" stroke="rgb(255,255,255)" stroke-opacity="1" stroke-width="13.333" d="M0 0"></path></g></g><g style="display: block;" transform="matrix(0.17207293212413788,0.24574562907218933,-0.24574562907218933,0.17207293212413788,232.1280975341797,266.8660583496094)" opacity="1"><g opacity="1" transform="matrix(1,0,0,1,0,0)"><path stroke-linecap="round" stroke-linejoin="round" fill-opacity="0" stroke="rgb(255,255,255)" stroke-opacity="1" stroke-width="13.333" d="M0 0"></path></g></g><g style="display: block;" transform="matrix(-0.05209445580840111,0.2954423427581787,-0.2954423427581787,-0.05209445580840111,223.68960571289062,258.50628662109375)" opacity="1"><g opacity="1" transform="matrix(1,0,0,1,0,0)"><path stroke-linecap="round" stroke-linejoin="round" fill-opacity="0" stroke="rgb(255,255,255)" stroke-opacity="1" stroke-width="13.333" d="M0 0"></path></g></g><g style="display: block;" transform="matrix(-0.24574562907218933,0.17207293212413788,-0.17207293212413788,-0.24574562907218933,223.63394165039062,246.62811279296875)" opacity="1"><g opacity="1" transform="matrix(1,0,0,1,0,0)"><path stroke-linecap="round" stroke-linejoin="round" fill-opacity="0" stroke="rgb(255,255,255)" stroke-opacity="1" stroke-width="13.333" d="M0 0"></path></g></g><g style="display: block;" transform="matrix(-0.2954423427581787,-0.05209445580840111,0.05209445580840111,-0.2954423427581787,231.99371337890625,238.1896209716797)" opacity="1"><g opacity="1" transform="matrix(1,0,0,1,0,0)"><path stroke-linecap="round" stroke-linejoin="round" fill-opacity="0" stroke="rgb(255,255,255)" stroke-opacity="1" stroke-width="13.333" d="M0 0"></path></g></g><g style="display: block;" transform="matrix(-0.17207293212413788,-0.24574562907218933,0.24574562907218933,-0.17207293212413788,243.87188720703125,238.1339569091797)" opacity="1"><g opacity="1" transform="matrix(1,0,0,1,0,0)"><path stroke-linecap="round" stroke-linejoin="round" fill-opacity="0" stroke="rgb(255,255,255)" stroke-opacity="1" stroke-width="13.333" d="M0 0"></path></g></g><g style="display: block;" transform="matrix(0.05209445580840111,-0.2954423427581787,0.2954423427581787,0.05209445580840111,252.3103790283203,246.4937286376953)" opacity="1"><g opacity="1" transform="matrix(1,0,0,1,0,0)"><path stroke-linecap="round" stroke-linejoin="round" fill-opacity="0" stroke="rgb(255,255,255)" stroke-opacity="1" stroke-width="13.333" d="M0 0"></path></g></g><g style="display: block;" transform="matrix(0.24574562907218933,-0.17207293212413788,0.17207293212413788,0.24574562907218933,252.3660430908203,258.37188720703125)" opacity="1"><g opacity="1" transform="matrix(1,0,0,1,0,0)"><path stroke-linecap="round" stroke-linejoin="round" fill-opacity="0" stroke="rgb(255,255,255)" stroke-opacity="1" stroke-width="13.333" d="M0 0"></path></g></g></g></g></svg>