<svg xmlns="http://www.w3.org/2000/svg" viewBox="0 0 512 512" width="512" height="512" style="width: 100%; height: 100%; transform: translate3d(0,0,0);" preserveAspectRatio="xMidYMid meet"><defs><clipPath id="__lottie_element_12809"><rect width="512" height="512" x="0" y="0"></rect></clipPath><linearGradient id="__lottie_element_12824" spreadMethod="pad" gradientUnits="userSpaceOnUse"><stop></stop><stop></stop><stop></stop></linearGradient><linearGradient id="__lottie_element_12840" spreadMethod="pad" gradientUnits="userSpaceOnUse" x1="-0.699999988079071" y1="-15.145000457763672" x2="-0.699999988079071" y2="28.215999603271484"><stop offset="0%" stop-color="rgb(117,197,233)"></stop><stop offset="45%" stop-color="rgb(93,173,218)"></stop><stop offset="89%" stop-color="rgb(68,150,203)"></stop></linearGradient><linearGradient id="__lottie_element_12910" spreadMethod="pad" gradientUnits="userSpaceOnUse"><stop></stop><stop></stop><stop></stop></linearGradient><linearGradient id="__lottie_element_12917" spreadMethod="pad" gradientUnits="userSpaceOnUse"><stop></stop><stop></stop><stop></stop></linearGradient><linearGradient id="__lottie_element_12927" spreadMethod="pad" gradientUnits="userSpaceOnUse"><stop></stop><stop></stop><stop></stop></linearGradient><linearGradient id="__lottie_element_12937" spreadMethod="pad" gradientUnits="userSpaceOnUse"><stop></stop><stop></stop><stop></stop></linearGradient><linearGradient id="__lottie_element_12956" spreadMethod="pad" gradientUnits="userSpaceOnUse"><stop></stop><stop></stop><stop></stop></linearGradient><linearGradient id="__lottie_element_12978" spreadMethod="pad" gradientUnits="userSpaceOnUse" x1="-0.5550000071525574" y1="-15.371000289916992" x2="-0.5550000071525574" y2="42.441001892089844"><stop offset="0%" stop-color="rgb(117,197,233)"></stop><stop offset="45%" stop-color="rgb(93,173,218)"></stop><stop offset="89%" stop-color="rgb(68,150,203)"></stop></linearGradient><radialGradient id="__lottie_element_13079" spreadMethod="pad" gradientUnits="userSpaceOnUse"><stop></stop><stop></stop><stop></stop><stop></stop><stop></stop></radialGradient><radialGradient id="__lottie_element_13114" spreadMethod="pad" gradientUnits="userSpaceOnUse"><stop></stop><stop></stop><stop></stop><stop></stop><stop></stop></radialGradient><radialGradient id="__lottie_element_13179" spreadMethod="pad" gradientUnits="userSpaceOnUse"><stop></stop><stop></stop><stop></stop><stop></stop><stop></stop></radialGradient><radialGradient id="__lottie_element_13196" spreadMethod="pad" gradientUnits="userSpaceOnUse" cx="-18.716999053955078" cy="-15.081000328063965" r="59.42282780501544" fx="-18.716999053955078" fy="-15.081000328063965"><stop offset="0%" stop-color="rgb(114,213,44)"></stop><stop offset="5%" stop-color="rgb(112,210,44)"></stop><stop offset="11%" stop-color="rgb(111,207,43)"></stop><stop offset="55%" stop-color="rgb(74,141,27)"></stop><stop offset="100%" stop-color="rgb(38,75,11)"></stop></radialGradient><radialGradient id="__lottie_element_13225" spreadMethod="pad" gradientUnits="userSpaceOnUse" cx="11.234000205993652" cy="-17.07200050354004" r="66.255631967797" fx="11.234000205993652" fy="-17.07200050354004"><stop offset="0%" stop-color="rgb(114,213,44)"></stop><stop offset="5%" stop-color="rgb(112,210,44)"></stop><stop offset="11%" stop-color="rgb(111,207,43)"></stop><stop offset="55%" stop-color="rgb(74,141,27)"></stop><stop offset="100%" stop-color="rgb(38,75,11)"></stop></radialGradient></defs><g clip-path="url(#__lottie_element_12809)"><g style="display: none;"><g><path></path></g></g><g style="display: none;"><g><path></path></g></g><g style="display: none;"><g><path stroke-linecap="round" stroke-linejoin="round" fill-opacity="0"></path></g></g><g style="display: block;" transform="matrix(1,0,0,1,423.6210021972656,427.44403076171875)" opacity="1"><g opacity="1" transform="matrix(1,0,0,1,0,0)"><path fill="url(#__lottie_element_13225)" fill-opacity="1" d=" M-9.437000274658203,35.650001525878906 C5.2729997634887695,35.650001525878906 13.015000343322754,35.650001525878906 21.788999557495117,35.650001525878906 C30.562999725341797,35.650001525878906 39.85300064086914,26.951000213623047 38.5629997253418,18.951000213623047 C38.5629997253418,18.951000213623047 47.30500030517578,12.180000305175781 45.75699996948242,1.6299999952316284 C44.20899963378906,-8.920000076293945 35.78900146484375,-11.984000205993652 35.78900146484375,-11.984000205993652 C35.78900146484375,-11.984000205993652 32.67499923706055,-31.297000885009766 9.918000221252441,-35.242000579833984 C-9.437000274658203,-38.59700012207031 -24.14699935913086,-20.274999618530273 -24.14699935913086,-20.274999618530273 C-24.14699935913086,-20.274999618530273 -51.84000015258789,-5.565000057220459 -44.79199981689453,18.951000213623047 C-39.80699920654297,36.28900146484375 -9.437000274658203,35.650001525878906 -9.437000274658203,35.650001525878906z"></path></g></g><g style="display: block;" transform="matrix(1,0,0,1,433.7040100097656,420.3500061035156)" opacity="0.35000000000000003"><g opacity="1" transform="matrix(1,0,0,1,0,0)"><path stroke-linecap="round" stroke-linejoin="round" fill-opacity="0" stroke="rgb(224,255,112)" stroke-opacity="1" stroke-width="8" d=" M-32.242000579833984,-15.375 C-32.242000579833984,-15.375 -18.523000717163086,-27.190000534057617 -1.1660000085830688,-22.954999923706055 C18.96299934387207,-18.04400062561035 20.704999923706055,-2.256999969482422 20.704999923706055,-2.256999969482422 C20.704999923706055,-2.256999969482422 37.25400161743164,2.302999973297119 30.711000442504883,23.871999740600586"></path></g></g><g style="display: block;" transform="matrix(1,0,0,1,436.1369934082031,441.18701171875)" opacity="0.25"><g opacity="1" transform="matrix(1,0,0,1,0,0)"><path stroke-linecap="round" stroke-linejoin="round" fill-opacity="0" stroke="rgb(30,59,0)" stroke-opacity="1" stroke-width="8" d=" M29.437000274658203,1.6160000562667847 C29.437000274658203,1.6160000562667847 20.88599967956543,5.208000183105469 19.70599937438965,-7.933000087738037 C19.70599937438965,-7.933000087738037 12.626999855041504,1.0779999494552612 3.36899995803833,-6.696000099182129 C3.36899995803833,-6.696000099182129 3.0789999961853027,5.206999778747559 -8.534000396728516,7.53000020980835 C-24.513999938964844,10.72599983215332 -29.437000274658203,-6.146999835968018 -29.437000274658203,-6.146999835968018"></path></g></g><g style="display: block;" transform="matrix(1,0,0,1,423.6210021972656,427.44403076171875)" opacity="1"><g opacity="1" transform="matrix(1,0,0,1,0,0)"><path stroke-linecap="round" stroke-linejoin="round" fill-opacity="0" stroke="rgb(30,59,0)" stroke-opacity="1" stroke-width="8" d=" M-9.437000274658203,35.650001525878906 C5.2729997634887695,35.650001525878906 13.015000343322754,35.650001525878906 21.788999557495117,35.650001525878906 C30.562999725341797,35.650001525878906 39.85300064086914,26.951000213623047 38.5629997253418,18.951000213623047 C38.5629997253418,18.951000213623047 47.30500030517578,12.180000305175781 45.75699996948242,1.6299999952316284 C44.20899963378906,-8.920000076293945 35.78900146484375,-11.984000205993652 35.78900146484375,-11.984000205993652 C35.78900146484375,-11.984000205993652 32.67499923706055,-31.297000885009766 9.918000221252441,-35.242000579833984 C-9.437000274658203,-38.59700012207031 -24.14699935913086,-20.274999618530273 -24.14699935913086,-20.274999618530273 C-24.14699935913086,-20.274999618530273 -51.84000015258789,-5.565000057220459 -44.79199981689453,18.951000213623047 C-39.80699920654297,36.28900146484375 -9.437000274658203,35.650001525878906 -9.437000274658203,35.650001525878906z"></path></g></g><g style="display: block;" transform="matrix(1,0,0,1,423.6210021972656,419.093017578125)" opacity="1"><g opacity="1" transform="matrix(1,0,0,1,0,0)"><path stroke-linecap="round" stroke-linejoin="round" fill-opacity="0" stroke="rgb(59,126,6)" stroke-opacity="1" stroke-width="8" d=" M41.95399856567383,23.711000442504883 C44.21799850463867,20.702999114990234 46.63199996948242,15.946000099182129 45.75699996948242,9.980999946594238 C44.20899963378906,-0.5690000057220459 35.78900146484375,-3.634000062942505 35.78900146484375,-3.634000062942505 C35.78900146484375,-3.634000062942505 32.67499923706055,-22.94700050354004 9.918000221252441,-26.892000198364258 C-9.437000274658203,-30.246999740600586 -24.14699935913086,-11.923999786376953 -24.14699935913086,-11.923999786376953 C-24.14699935913086,-11.923999786376953 -51.84000015258789,2.7860000133514404 -44.79199981689453,27.302000045776367"></path></g></g><g style="display: none;"><g><path></path></g></g><g style="display: none;"><g><g><path stroke-linecap="round" stroke-linejoin="round" fill-opacity="0"></path></g></g><g><g><path stroke-linecap="round" stroke-linejoin="round" fill-opacity="0"></path></g></g><g><g><path stroke-linecap="round" stroke-linejoin="round" fill-opacity="0"></path></g></g><g><g><path stroke-linecap="round" stroke-linejoin="round" fill-opacity="0"></path></g></g><g><g><path stroke-linecap="round" stroke-linejoin="round" fill-opacity="0"></path></g></g><g><g><path stroke-linecap="round" stroke-linejoin="round" fill-opacity="0"></path></g></g><g><g><path stroke-linecap="round" stroke-linejoin="round" fill-opacity="0"></path></g></g><g><g><path stroke-linecap="round" stroke-linejoin="round" fill-opacity="0"></path></g></g><g><g><path stroke-linecap="round" stroke-linejoin="round" fill-opacity="0"></path></g></g><g><g><path stroke-linecap="round" stroke-linejoin="round" fill-opacity="0"></path></g></g><g><g><path stroke-linecap="round" stroke-linejoin="round" fill-opacity="0"></path></g></g><g><g><path stroke-linecap="round" stroke-linejoin="round" fill-opacity="0"></path></g></g><g><g><path stroke-linecap="round" stroke-linejoin="round" fill-opacity="0"></path></g></g><g><g><path stroke-linecap="round" stroke-linejoin="round" fill-opacity="0"></path></g></g><g><g><path stroke-linecap="round" stroke-linejoin="round" fill-opacity="0"></path></g></g></g><g style="display: none;"><g><path stroke-linecap="round" stroke-linejoin="round" fill-opacity="0"></path></g></g><g style="display: none;"><g><path></path></g></g><g style="display: block;" transform="matrix(1,0,0,1,80.71699523925781,431.78900146484375)" opacity="1"><g opacity="1" transform="matrix(1,0,0,1,0,0)"><path fill="url(#__lottie_element_13196)" fill-opacity="1" d=" M14.612000465393066,32.731998443603516 C14.612000465393066,32.731998443603516 -6.678999900817871,32.731998443603516 -15.968999862670898,32.731998443603516 C-25.259000778198242,32.731998443603516 -31.711000442504883,28.823999404907227 -32.74300003051758,21.26799964904785 C-32.74300003051758,21.26799964904785 -50.03300094604492,14.22700023651123 -38.93600082397461,-3.062999963760376 C-38.93600082397461,-3.062999963760376 -40.01499938964844,-21.26099967956543 -26.548999786376953,-28.868999481201172 C-13.645999908447266,-36.159000396728516 -4.613999843597412,-28.868999481201172 -4.613999843597412,-28.868999481201172 C-4.613999843597412,-28.868999481201172 10.354000091552734,-37.38600158691406 22.999000549316406,-29.128000259399414 C35.64400100708008,-20.8700008392334 32.547000885009766,-7.708000183105469 32.547000885009766,-7.708000183105469 C32.547000885009766,-7.708000183105469 45.45100021362305,0.03400000184774399 42.09600067138672,16.29199981689453 C38.74100112915039,32.54999923706055 14.612000465393066,32.731998443603516 14.612000465393066,32.731998443603516z"></path></g></g><g style="display: block;" transform="matrix(1,0,0,1,73.65499877929688,440.4840087890625)" opacity="0.25"><g opacity="1" transform="matrix(1,0,0,1,0,0)"><path stroke-linecap="round" stroke-linejoin="round" fill-opacity="0" stroke="rgb(30,59,0)" stroke-opacity="1" stroke-width="8" d=" M-33.93199920654297,5.370999813079834 C-24.391000747680664,8.88700008392334 -16.132999420166016,-2.565000057220459 -16.132999420166016,-2.565000057220459 C-16.132999420166016,-2.565000057220459 -14.255000114440918,8.869999885559082 -2.744999885559082,7.5960001945495605 C8.90999984741211,6.306000232696533 12.96399974822998,-7.695000171661377 12.96399974822998,-7.695000171661377 C12.96399974822998,-7.695000171661377 13.286999702453613,7.015999794006348 33.93199920654297,5.370999813079834"></path></g></g><g style="display: block;" transform="matrix(1,0,0,1,77.5219955444336,416.947998046875)" opacity="0.35000000000000003"><g opacity="1" transform="matrix(1,0,0,1,0,0)"><path stroke-linecap="round" stroke-linejoin="round" fill-opacity="0" stroke="rgb(224,255,112)" stroke-opacity="1" stroke-width="8" d=" M35.742000579833984,7.132999897003174 C35.742000579833984,7.132999897003174 30.663999557495117,-9.081000328063965 15.16100025177002,-11.545000076293945 C7.041999816894531,-12.835000038146973 -1.3550000190734863,-8.35099983215332 -1.3550000190734863,-8.35099983215332 C-10.645000457763672,-14.545000076293945 -28.257999420166016,-13.51200008392334 -35.742000579833984,11.777999877929688"></path></g></g><g style="display: block;" transform="matrix(1,0,0,1,80.71699523925781,431.78900146484375)" opacity="1"><g opacity="1" transform="matrix(1,0,0,1,0,0)"><path stroke-linecap="round" stroke-linejoin="round" fill-opacity="0" stroke="rgb(30,59,0)" stroke-opacity="1" stroke-width="8" d=" M14.612000465393066,32.731998443603516 C14.612000465393066,32.731998443603516 -6.678999900817871,32.731998443603516 -15.968999862670898,32.731998443603516 C-25.259000778198242,32.731998443603516 -31.711000442504883,28.823999404907227 -32.74300003051758,21.26799964904785 C-32.74300003051758,21.26799964904785 -50.03300094604492,14.22700023651123 -38.93600082397461,-3.062999963760376 C-38.93600082397461,-3.062999963760376 -40.01499938964844,-21.26099967956543 -26.548999786376953,-28.868999481201172 C-13.645999908447266,-36.159000396728516 -4.613999843597412,-28.868999481201172 -4.613999843597412,-28.868999481201172 C-4.613999843597412,-28.868999481201172 10.354000091552734,-37.38600158691406 22.999000549316406,-29.128000259399414 C35.64400100708008,-20.8700008392334 32.547000885009766,-7.708000183105469 32.547000885009766,-7.708000183105469 C32.547000885009766,-7.708000183105469 45.45100021362305,0.03400000184774399 42.09600067138672,16.29199981689453 C38.74100112915039,32.54999923706055 14.612000465393066,32.731998443603516 14.612000465393066,32.731998443603516z"></path></g></g><g style="display: block;" transform="matrix(1,0,0,1,80.71699523925781,423.5690002441406)" opacity="1"><g opacity="1" transform="matrix(1,0,0,1,0,0)"><path stroke-linecap="round" stroke-linejoin="round" fill-opacity="0" stroke="rgb(59,126,6)" stroke-opacity="1" stroke-width="8" d=" M-40.994998931884766,22.28700065612793 C-43.207000732421875,18.375 -43.8129997253418,12.755999565124512 -38.93600082397461,5.1570000648498535 C-38.93600082397461,5.1570000648498535 -40.01499938964844,-13.041000366210938 -26.548999786376953,-20.64900016784668 C-13.645999908447266,-27.93899917602539 -4.613999843597412,-20.64900016784668 -4.613999843597412,-20.64900016784668 C-4.613999843597412,-20.64900016784668 10.354000091552734,-29.165000915527344 22.999000549316406,-20.906999588012695 C35.64400100708008,-12.64900016784668 32.54800033569336,0.5120000243186951 32.54800033569336,0.5120000243186951 C32.54800033569336,0.5120000243186951 45.45100021362305,8.253999710083008 42.09600067138672,24.511999130249023"></path></g></g><g style="display: none;"><g><path fill="url(#__lottie_element_13179)"></path></g></g><g style="display: none;"><g><path stroke-linecap="round" stroke-linejoin="round" fill-opacity="0"></path></g></g><g style="display: none;"><g><path stroke-linecap="round" stroke-linejoin="round" fill-opacity="0"></path></g></g><g style="display: none;"><g><path stroke-linecap="round" stroke-linejoin="round" fill-opacity="0"></path></g></g><g style="display: none;"><g><path stroke-linecap="round" stroke-linejoin="round" fill-opacity="0"></path></g></g><g style="display: none;"><g><path></path></g></g><g style="display: none;"><g><g><path stroke-linecap="round" stroke-linejoin="round" fill-opacity="0"></path></g></g><g><g><path stroke-linecap="round" stroke-linejoin="round" fill-opacity="0"></path></g></g><g><g><path stroke-linecap="round" stroke-linejoin="round" fill-opacity="0"></path></g></g><g><g><path stroke-linecap="round" stroke-linejoin="round" fill-opacity="0"></path></g></g><g><g><path stroke-linecap="round" stroke-linejoin="round" fill-opacity="0"></path></g></g><g><g><path stroke-linecap="round" stroke-linejoin="round" fill-opacity="0"></path></g></g><g><g><path stroke-linecap="round" stroke-linejoin="round" fill-opacity="0"></path></g></g><g><g><path stroke-linecap="round" stroke-linejoin="round" fill-opacity="0"></path></g></g><g><g><path stroke-linecap="round" stroke-linejoin="round" fill-opacity="0"></path></g></g></g><g style="display: none;"><g><path stroke-linecap="round" stroke-linejoin="round" fill-opacity="0"></path></g></g><g style="display: none;"><g><path></path></g></g><g style="display: block;" transform="matrix(0.8999999761581421,0,0,0.8999999761581421,257.19610595703125,285.1684875488281)" opacity="1"><g opacity="1" transform="matrix(1,0,0,1,0,0)"><path fill="rgb(252,224,183)" fill-opacity="1" d=" M-162,-64.7040023803711 C-162,-64.7040023803711 -162,198.15699768066406 -162,198.15699768066406 C-162,198.15699768066406 162,198.15699768066406 162,198.15699768066406 C162,198.15699768066406 162,-64.7040023803711 162,-64.7040023803711 C162,-64.7040023803711 0,-198.15699768066406 0,-198.15699768066406 C0,-198.15699768066406 -162,-64.7040023803711 -162,-64.7040023803711z"></path></g></g><g style="display: none;"><g><path></path></g></g><g style="display: none;"><g><g><path stroke-linecap="round" stroke-linejoin="round" fill-opacity="0"></path></g></g><g><g><path stroke-linecap="round" stroke-linejoin="round" fill-opacity="0"></path></g></g><g><g><path stroke-linecap="round" stroke-linejoin="round" fill-opacity="0"></path></g></g><g><g><path stroke-linecap="round" stroke-linejoin="round" fill-opacity="0"></path></g></g><g><g><path stroke-linecap="round" stroke-linejoin="round" fill-opacity="0"></path></g></g><g><g><path stroke-linecap="round" stroke-linejoin="round" fill-opacity="0"></path></g></g><g><g><path stroke-linecap="round" stroke-linejoin="round" fill-opacity="0"></path></g></g><g><g><path stroke-linecap="round" stroke-linejoin="round" fill-opacity="0"></path></g></g><g><g><path stroke-linecap="round" stroke-linejoin="round" fill-opacity="0"></path></g></g><g><g><path stroke-linecap="round" stroke-linejoin="round" fill-opacity="0"></path></g></g><g><g><path stroke-linecap="round" stroke-linejoin="round" fill-opacity="0"></path></g></g><g><g><path stroke-linecap="round" stroke-linejoin="round" fill-opacity="0"></path></g></g><g><g><path stroke-linecap="round" stroke-linejoin="round" fill-opacity="0"></path></g></g><g><g><path stroke-linecap="round" stroke-linejoin="round" fill-opacity="0"></path></g></g><g><g><path stroke-linecap="round" stroke-linejoin="round" fill-opacity="0"></path></g></g></g><g style="display: none;"><g><path></path></g></g><g style="display: none;"><g><g><path stroke-linecap="round" stroke-linejoin="round" fill-opacity="0"></path></g></g><g><g><path stroke-linecap="round" stroke-linejoin="round" fill-opacity="0"></path></g></g><g><g><path stroke-linecap="round" stroke-linejoin="round" fill-opacity="0"></path></g></g><g><g><path stroke-linecap="round" stroke-linejoin="round" fill-opacity="0"></path></g></g><g><g><path stroke-linecap="round" stroke-linejoin="round" fill-opacity="0"></path></g></g><g><g><path stroke-linecap="round" stroke-linejoin="round" fill-opacity="0"></path></g></g><g><g><path stroke-linecap="round" stroke-linejoin="round" fill-opacity="0"></path></g></g><g><g><path stroke-linecap="round" stroke-linejoin="round" fill-opacity="0"></path></g></g><g><g><path stroke-linecap="round" stroke-linejoin="round" fill-opacity="0"></path></g></g><g><g><path stroke-linecap="round" stroke-linejoin="round" fill-opacity="0"></path></g></g><g><g><path stroke-linecap="round" stroke-linejoin="round" fill-opacity="0"></path></g></g><g><g><path stroke-linecap="round" stroke-linejoin="round" fill-opacity="0"></path></g></g><g><g><path stroke-linecap="round" stroke-linejoin="round" fill-opacity="0"></path></g></g><g><g><path stroke-linecap="round" stroke-linejoin="round" fill-opacity="0"></path></g></g><g><g><path stroke-linecap="round" stroke-linejoin="round" fill-opacity="0"></path></g></g></g><g style="display: block;" transform="matrix(0.999998927116394,0,0,0.999998927116394,0.00037766562309116125,0.0003158781328238547)" opacity="1"><g opacity="0.2" transform="matrix(0.8999999761581421,0,0,0.8999999761581421,258.09600830078125,448.1499938964844)"><g opacity="1" transform="matrix(1,0,0,1,0,0)"><path stroke-linecap="round" stroke-linejoin="round" fill-opacity="0" stroke="rgb(174,133,100)" stroke-opacity="1" stroke-width="3" d=" M162,0 C162,0 -162,0 -162,0"></path></g></g><g opacity="0.2" transform="matrix(0.8999999761581421,0,0,0.8999999761581421,256.1159973144531,426.85101318359375)"><g opacity="1" transform="matrix(1,0,0,1,0,0)"><path stroke-linecap="round" stroke-linejoin="round" fill-opacity="0" stroke="rgb(174,133,100)" stroke-opacity="1" stroke-width="3" d=" M162,0 C162,0 -162,0 -162,0"></path></g></g><g opacity="0.2" transform="matrix(0.8999999761581421,0,0,0.8999999761581421,258.09600830078125,404.6629943847656)"><g opacity="1" transform="matrix(1,0,0,1,0,0)"><path stroke-linecap="round" stroke-linejoin="round" fill-opacity="0" stroke="rgb(174,133,100)" stroke-opacity="1" stroke-width="3" d=" M-162,0 C-162,0 162,0 162,0"></path></g></g><g opacity="0.2" transform="matrix(0.8999999761581421,0,0,0.8999999761581421,258.09600830078125,382.88800048828125)"><g opacity="1" transform="matrix(1,0,0,1,0,0)"><path stroke-linecap="round" stroke-linejoin="round" fill-opacity="0" stroke="rgb(174,133,100)" stroke-opacity="1" stroke-width="3" d=" M162,0 C162,0 -162,0 -162,0"></path></g></g><g opacity="0.2" transform="matrix(0.8999999761581421,0,0,0.8999999761581421,258.09600830078125,360.5199890136719)"><g opacity="1" transform="matrix(1,0,0,1,0,0)"><path stroke-linecap="round" stroke-linejoin="round" fill-opacity="0" stroke="rgb(174,133,100)" stroke-opacity="1" stroke-width="3" d=" M162,0 C162,0 -162,0 -162,0"></path></g></g><g opacity="0.2" transform="matrix(0.8999999761581421,0,0,0.8999999761581421,258.09600830078125,335.9169921875)"><g opacity="1" transform="matrix(1,0,0,1,0,0)"><path stroke-linecap="round" stroke-linejoin="round" fill-opacity="0" stroke="rgb(174,133,100)" stroke-opacity="1" stroke-width="3" d=" M162,0 C162,0 -162,0 -162,0"></path></g></g><g opacity="0.2" transform="matrix(0.8999999761581421,0,0,0.8999999761581421,258.09600830078125,313.53399658203125)"><g opacity="1" transform="matrix(1,0,0,1,0,0)"><path stroke-linecap="round" stroke-linejoin="round" fill-opacity="0" stroke="rgb(174,133,100)" stroke-opacity="1" stroke-width="3" d=" M162,0 C162,0 -162,0 -162,0"></path></g></g><g opacity="0.2" transform="matrix(0.8999999761581421,0,0,0.8999999761581421,258.09600830078125,290.7449951171875)"><g opacity="1" transform="matrix(1,0,0,1,0,0)"><path stroke-linecap="round" stroke-linejoin="round" fill-opacity="0" stroke="rgb(174,133,100)" stroke-opacity="1" stroke-width="3" d=" M162,0 C162,0 -162,0 -162,0"></path></g></g><g opacity="0.2" transform="matrix(0.8999999761581421,0,0,0.8999999761581421,258.09600830078125,267.95599365234375)"><g opacity="1" transform="matrix(1,0,0,1,0,0)"><path stroke-linecap="round" stroke-linejoin="round" fill-opacity="0" stroke="rgb(174,133,100)" stroke-opacity="1" stroke-width="3" d=" M162,0 C162,0 -162,0 -162,0"></path></g></g><g opacity="0.2" transform="matrix(0.8999999761581421,0,0,0.8999999761581421,258.09600830078125,243.46600341796875)"><g opacity="1" transform="matrix(1,0,0,1,0,0)"><path stroke-linecap="round" stroke-linejoin="round" fill-opacity="0" stroke="rgb(174,133,100)" stroke-opacity="1" stroke-width="3" d=" M162,0 C162,0 -162,0 -162,0"></path></g></g><g opacity="0.2" transform="matrix(0.8999999761581421,0,0,0.8999999761581421,258.09600830078125,221.98699951171875)"><g opacity="1" transform="matrix(1,0,0,1,0,0)"><path stroke-linecap="round" stroke-linejoin="round" fill-opacity="0" stroke="rgb(174,133,100)" stroke-opacity="1" stroke-width="3" d=" M162,0 C162,0 -162,0 -162,0"></path></g></g><g opacity="0.2" transform="matrix(0.8999999761581421,0,0,0.8999999761581421,258.09600830078125,200.00799560546875)"><g opacity="1" transform="matrix(1,0,0,1,0,0)"><path stroke-linecap="round" stroke-linejoin="round" fill-opacity="0" stroke="rgb(174,133,100)" stroke-opacity="1" stroke-width="3" d=" M138.03199768066406,0 C138.03199768066406,0 -138.03199768066406,0 -138.03199768066406,0"></path></g></g><g opacity="0.2" transform="matrix(0.8999999761581421,0,0,0.8999999761581421,258.09600830078125,178.0290069580078)"><g opacity="1" transform="matrix(1,0,0,1,0,0)"><path stroke-linecap="round" stroke-linejoin="round" fill-opacity="0" stroke="rgb(174,133,100)" stroke-opacity="1" stroke-width="3" d=" M111.4520034790039,0 C111.4520034790039,0 -111.4520034790039,0 -111.4520034790039,0"></path></g></g><g opacity="0.2" transform="matrix(0.8999999761581421,0,0,0.8999999761581421,258.09600830078125,154.3719940185547)"><g opacity="1" transform="matrix(1,0,0,1,0,0)"><path stroke-linecap="round" stroke-linejoin="round" fill-opacity="0" stroke="rgb(174,133,100)" stroke-opacity="1" stroke-width="3" d=" M88.22599792480469,0 C88.22599792480469,0 -88.22599792480469,0 -88.22599792480469,0"></path></g></g><g opacity="0.2" transform="matrix(0.8999999761581421,0,0,0.8999999761581421,258.09600830078125,130.07899475097656)"><g opacity="1" transform="matrix(1,0,0,1,0,0)"><path stroke-linecap="round" stroke-linejoin="round" fill-opacity="0" stroke="rgb(174,133,100)" stroke-opacity="1" stroke-width="3" d=" M57.77399826049805,0 C57.77399826049805,0 -57.77399826049805,0 -57.77399826049805,0"></path></g></g></g><g style="display: block;" transform="matrix(0.8999999761581421,0,0,0.8999999761581421,266.19610595703125,285.1684875488281)" opacity="0.5"><g opacity="1" transform="matrix(1,0,0,1,0,0)"><path stroke-linecap="round" stroke-linejoin="round" fill-opacity="0" stroke="rgb(255,255,255)" stroke-opacity="1" stroke-width="12" d=" M-162,-64.7040023803711 C-162,-64.7040023803711 -162,198.15699768066406 -162,198.15699768066406 C-162,198.15699768066406 -162,-64.7040023803711 -162,-64.7040023803711z"></path></g></g><g style="display: block;" transform="matrix(0.8999999761581421,0,0,0.8999999761581421,252.19569396972656,285.1684875488281)" opacity="0.5"><g opacity="1" transform="matrix(1,0,0,1,0,0)"><path stroke-linecap="round" stroke-linejoin="round" fill-opacity="0" stroke="rgb(255,255,255)" stroke-opacity="1" stroke-width="12" d=" M162,198.15699768066406 C162,198.15699768066406 162,-64.7040023803711 162,-64.7040023803711 C162,-64.7040023803711 162,198.15699768066406 162,198.15699768066406z"></path></g></g><g style="display: block;" transform="matrix(0.8999999761581421,0,0,0.8999999761581421,257.19610595703125,285.1684875488281)" opacity="1"><g opacity="1" transform="matrix(1,0,0,1,0,0)"><path stroke-linecap="round" stroke-linejoin="round" fill-opacity="0" stroke="rgb(199,150,113)" stroke-opacity="1" stroke-width="8" d=" M-162,-64.7040023803711 C-162,-64.7040023803711 -162,198.15699768066406 -162,198.15699768066406 C-162,198.15699768066406 162,198.15699768066406 162,198.15699768066406 C162,198.15699768066406 162,-64.7040023803711 162,-64.7040023803711 C162,-64.7040023803711 0,-198.15699768066406 0,-198.15699768066406 C0,-198.15699768066406 -162,-64.7040023803711 -162,-64.7040023803711z"></path></g></g><g style="display: none;"><g><path stroke-linecap="round" stroke-linejoin="round" fill-opacity="0"></path></g></g><g style="display: none;"><g><path stroke-linecap="round" stroke-linejoin="round" fill-opacity="0"></path></g></g><g style="display: none;"><g><path></path></g></g><g style="display: none;"><g><path fill="url(#__lottie_element_13114)"></path></g></g><g style="display: none;"><g><path stroke-linecap="round" stroke-linejoin="round" fill-opacity="0"></path></g></g><g style="display: none;"><g><path stroke-linecap="round" stroke-linejoin="round" fill-opacity="0"></path></g></g><g style="display: none;"><g><path stroke-linecap="round" stroke-linejoin="round" fill-opacity="0"></path></g></g><g style="display: none;"><g><path stroke-linecap="round" stroke-linejoin="round" fill-opacity="0"></path></g></g><g style="display: none;"><g><path></path></g></g><g style="display: none;"><g><g><path stroke-linecap="round" stroke-linejoin="round" fill-opacity="0"></path></g></g><g><g><path stroke-linecap="round" stroke-linejoin="round" fill-opacity="0"></path></g></g><g><g><path stroke-linecap="round" stroke-linejoin="round" fill-opacity="0"></path></g></g><g><g><path stroke-linecap="round" stroke-linejoin="round" fill-opacity="0"></path></g></g><g><g><path stroke-linecap="round" stroke-linejoin="round" fill-opacity="0"></path></g></g><g><g><path stroke-linecap="round" stroke-linejoin="round" fill-opacity="0"></path></g></g><g><g><path stroke-linecap="round" stroke-linejoin="round" fill-opacity="0"></path></g></g><g><g><path stroke-linecap="round" stroke-linejoin="round" fill-opacity="0"></path></g></g><g><g><path stroke-linecap="round" stroke-linejoin="round" fill-opacity="0"></path></g></g><g><g><path stroke-linecap="round" stroke-linejoin="round" fill-opacity="0"></path></g></g><g><g><path stroke-linecap="round" stroke-linejoin="round" fill-opacity="0"></path></g></g><g><g><path stroke-linecap="round" stroke-linejoin="round" fill-opacity="0"></path></g></g><g><g><path stroke-linecap="round" stroke-linejoin="round" fill-opacity="0"></path></g></g><g><g><path stroke-linecap="round" stroke-linejoin="round" fill-opacity="0"></path></g></g><g><g><path stroke-linecap="round" stroke-linejoin="round" fill-opacity="0"></path></g></g></g><g style="display: none;"><g><path stroke-linecap="round" stroke-linejoin="round" fill-opacity="0"></path></g></g><g style="display: none;"><g><path stroke-linecap="round" stroke-linejoin="round" fill-opacity="0"></path></g></g><g style="display: none;"><g><path stroke-linecap="round" stroke-linejoin="round" fill-opacity="0"></path></g></g><g style="display: none;"><g><path></path></g></g><g style="display: none;"><g><path fill="url(#__lottie_element_13079)"></path></g></g><g style="display: none;"><g><path stroke-linecap="round" stroke-linejoin="round" fill-opacity="0"></path></g></g><g style="display: none;"><g><path stroke-linecap="round" stroke-linejoin="round" fill-opacity="0"></path></g></g><g style="display: none;"><g><path stroke-linecap="round" stroke-linejoin="round" fill-opacity="0"></path></g></g><g style="display: none;"><g><path stroke-linecap="round" stroke-linejoin="round" fill-opacity="0"></path></g></g><g style="display: none;"><g><path></path></g></g><g style="display: none;"><g><path></path><path stroke-linecap="round" stroke-linejoin="round" fill-opacity="0"></path></g></g><g style="display: none;"><g><path></path></g></g><g style="display: none;"><g><path></path><path stroke-linecap="round" stroke-linejoin="round" fill-opacity="0"></path></g></g><g style="display: none;"><g><path></path></g></g><g style="display: none;"><g><path></path><path stroke-linecap="round" stroke-linejoin="round" fill-opacity="0"></path></g></g><g style="display: none;"><g><path></path></g></g><g style="display: none;"><g><path></path><path stroke-linecap="round" stroke-linejoin="round" fill-opacity="0"></path></g></g><g style="display: none;"><g><path></path><path stroke-linecap="round" stroke-linejoin="round" fill-opacity="0"></path></g></g><g style="display: none;"><g><path stroke-linecap="round" stroke-linejoin="round" fill-opacity="0"></path></g></g><g style="display: block;" transform="matrix(0.8999999761581421,0,0,0.8999999761581421,155.73190307617188,116.8883056640625)" opacity="1"><g opacity="1" transform="matrix(1,0,0,1,0,0)"><path fill="rgb(202,55,39)" fill-opacity="1" d=" M41.0890007019043,24.493999481201172 C41.0890007019043,24.493999481201172 -38.194000244140625,59.35499954223633 -38.194000244140625,59.35499954223633 C-38.194000244140625,59.35499954223633 -38.88800048828125,-60.691001892089844 -38.88800048828125,-60.691001892089844 C-38.88800048828125,-60.691001892089844 40.34600067138672,-59.99700164794922 40.34600067138672,-59.99700164794922 C40.34600067138672,-59.99700164794922 41.0890007019043,24.493999481201172 41.0890007019043,24.493999481201172z"></path></g></g><g style="display: block;" transform="matrix(0.999998927116394,0,0,0.999998927116394,-0.00003432167795835994,0.00023348066315520555)" opacity="1"><g opacity="1" transform="matrix(0.8999999761581421,0,0,0.8999999761581421,155.73300170898438,71.20600128173828)"><g opacity="1" transform="matrix(1,0,0,1,0,0)"><path stroke-linecap="round" stroke-linejoin="round" fill-opacity="0" stroke="rgb(181,41,33)" stroke-opacity="1" stroke-width="3" d=" M-38.19499969482422,0 C-38.19499969482422,0 38.19499969482422,0 38.19499969482422,0"></path></g></g><g opacity="1" transform="matrix(0.8999999761581421,0,0,0.8999999761581421,155.73300170898438,81.66400146484375)"><g opacity="1" transform="matrix(1,0,0,1,0,0)"><path stroke-linecap="round" stroke-linejoin="round" fill-opacity="0" stroke="rgb(181,41,33)" stroke-opacity="1" stroke-width="3" d=" M-38.19499969482422,0 C-38.19499969482422,0 38.19499969482422,0 38.19499969482422,0"></path></g></g><g opacity="1" transform="matrix(0.8999999761581421,0,0,0.8999999761581421,155.73300170898438,91.62100219726562)"><g opacity="1" transform="matrix(1,0,0,1,0,0)"><path stroke-linecap="round" stroke-linejoin="round" fill-opacity="0" stroke="rgb(181,41,33)" stroke-opacity="1" stroke-width="3" d=" M-38.19499969482422,0 C-38.19499969482422,0 38.19499969482422,0 38.19499969482422,0"></path></g></g><g opacity="1" transform="matrix(0.8999999761581421,0,0,0.8999999761581421,155.73300170898438,102.03700256347656)"><g opacity="1" transform="matrix(1,0,0,1,0,0)"><path stroke-linecap="round" stroke-linejoin="round" fill-opacity="0" stroke="rgb(181,41,33)" stroke-opacity="1" stroke-width="3" d=" M-38.19499969482422,0 C-38.19499969482422,0 38.19499969482422,0 38.19499969482422,0"></path></g></g><g opacity="1" transform="matrix(0.8999999761581421,0,0,0.8999999761581421,155.73300170898438,112.99500274658203)"><g opacity="1" transform="matrix(1,0,0,1,0,0)"><path stroke-linecap="round" stroke-linejoin="round" fill-opacity="0" stroke="rgb(181,41,33)" stroke-opacity="1" stroke-width="3" d=" M-38.19499969482422,0 C-38.19499969482422,0 38.19499969482422,0 38.19499969482422,0"></path></g></g><g opacity="1" transform="matrix(0.8999999761581421,0,0,0.8999999761581421,155.73300170898438,122.7020034790039)"><g opacity="1" transform="matrix(1,0,0,1,0,0)"><path stroke-linecap="round" stroke-linejoin="round" fill-opacity="0" stroke="rgb(181,41,33)" stroke-opacity="1" stroke-width="3" d=" M-38.19499969482422,0 C-38.19499969482422,0 38.19499969482422,0 38.19499969482422,0"></path></g></g><g opacity="1" transform="matrix(0.8999999761581421,0,0,0.8999999761581421,155.73300170898438,133.6179962158203)"><g opacity="1" transform="matrix(1,0,0,1,0,0)"><path stroke-linecap="round" stroke-linejoin="round" fill-opacity="0" stroke="rgb(181,41,33)" stroke-opacity="1" stroke-width="3" d=" M-38.19499969482422,0 C-38.19499969482422,0 38.19499969482422,0 38.19499969482422,0"></path></g></g><g opacity="1" transform="matrix(0.8999999761581421,0,0,0.8999999761581421,155.73300170898438,142.8260040283203)"><g opacity="1" transform="matrix(1,0,0,1,0,0)"><path stroke-linecap="round" stroke-linejoin="round" fill-opacity="0" stroke="rgb(181,41,33)" stroke-opacity="1" stroke-width="3" d=" M-38.19499969482422,0 C-38.19499969482422,0 38.19499969482422,0 38.19499969482422,0"></path></g></g><g opacity="1" transform="matrix(0.8999999761581421,0,0,0.8999999761581421,155.73300170898438,153.8260040283203)"><g opacity="1" transform="matrix(1,0,0,1,0,0)"><path stroke-linecap="round" stroke-linejoin="round" fill-opacity="0" stroke="rgb(181,41,33)" stroke-opacity="1" stroke-width="3" d=" M-38.19499969482422,0 C-38.19499969482422,0 38.19499969482422,0 38.19499969482422,0"></path></g></g><g opacity="1" transform="matrix(0.8999999761581421,0,0,0.8999999761581421,155.73300170898438,153.8260040283203)"><g opacity="1" transform="matrix(1,0,0,1,0,0)"><path stroke-linecap="round" stroke-linejoin="round" fill-opacity="0" stroke="rgb(181,41,33)" stroke-opacity="1" stroke-width="3" d=" M-38.5369987487793,12.92300033569336 C-38.5369987487793,12.92300033569336 -29.128000259399414,13.019000053405762 -29.128000259399414,13.019000053405762"></path></g></g><g opacity="1" transform="matrix(0.8999999761581421,0,0,0.8999999761581421,155.73300170898438,153.8260040283203)"><g opacity="1" transform="matrix(1,0,0,1,0,0)"><path stroke-linecap="round" stroke-linejoin="round" fill-opacity="0" stroke="rgb(181,41,33)" stroke-opacity="1" stroke-width="3" d=" M-38.5369987487793,20.701000213623047 C-38.5369987487793,20.701000213623047 -35.23899841308594,20.518999099731445 -35.23899841308594,20.518999099731445"></path></g></g><g opacity="1" transform="matrix(0.8999999761581421,0,0,0.8999999761581421,155.73300170898438,153.8260040283203)"><g opacity="1" transform="matrix(1,0,0,1,0,0)"><path stroke-linecap="round" stroke-linejoin="round" fill-opacity="0" stroke="rgb(181,41,33)" stroke-opacity="1" stroke-width="3" d=" M-39.369998931884766,32.36800003051758 C-39.369998931884766,32.36800003051758 -38.016998291015625,31.908000946044922 -38.016998291015625,31.908000946044922"></path></g></g></g><g style="display: block;" transform="matrix(0.8999999761581421,0,0,0.8999999761581421,155.73190307617188,116.8883056640625)" opacity="0.2"><g opacity="1" transform="matrix(1,0,0,1,0,0)"><path fill="rgb(54,11,15)" fill-opacity="1" d=" M41.0890007019043,24.493999481201172 C41.0890007019043,24.493999481201172 -38.194000244140625,59.35499954223633 -38.194000244140625,59.35499954223633 C-38.194000244140625,59.35499954223633 -38.40599822998047,22.6200008392334 -38.40599822998047,22.6200008392334 C-38.40599822998047,22.6200008392334 40.428001403808594,-50.70800018310547 40.428001403808594,-50.70800018310547 C40.428001403808594,-50.70800018310547 41.0890007019043,24.493999481201172 41.0890007019043,24.493999481201172z"></path></g></g><g style="display: block;" transform="matrix(0.8999999761581421,0,0,0.8999999761581421,155.73190307617188,116.8883056640625)" opacity="1"><g opacity="1" transform="matrix(1,0,0,1,0,0)"><path stroke-linecap="round" stroke-linejoin="round" fill-opacity="0" stroke="rgb(141,0,3)" stroke-opacity="1" stroke-width="8" d=" M41.0890007019043,24.493999481201172 C41.0890007019043,24.493999481201172 -38.194000244140625,59.35499954223633 -38.194000244140625,59.35499954223633 C-38.194000244140625,59.35499954223633 -38.88800048828125,-60.691001892089844 -38.88800048828125,-60.691001892089844 C-38.88800048828125,-60.691001892089844 40.34600067138672,-59.99700164794922 40.34600067138672,-59.99700164794922 C40.34600067138672,-59.99700164794922 41.0890007019043,24.493999481201172 41.0890007019043,24.493999481201172z"></path></g></g><g style="display: block;" transform="matrix(0.8999999761581421,0,0,0.8999999761581421,257.19610595703125,182.75390625)" opacity="0.3"><g opacity="1" transform="matrix(1,0,0,1,0,0)"><path fill="rgb(54,11,15)" fill-opacity="1" d=" M0,-87.41100311279297 C0,-87.41100311279297 -163.3730010986328,49.23899841308594 -163.3730010986328,49.23899841308594 C-163.3730010986328,49.23899841308594 -163.01300048828125,79.63300323486328 -163.01300048828125,79.63300323486328 C-163.01300048828125,79.63300323486328 17.777999877929688,-70.4739990234375 17.777999877929688,-70.4739990234375 C17.777999877929688,-70.4739990234375 0,-87.41100311279297 0,-87.41100311279297z"></path></g></g><g style="display: block;" transform="matrix(0.8999999761581421,0,0,0.8999999761581421,257.19610595703125,157.25421142578125)" opacity="1"><g opacity="1" transform="matrix(1,0,0,1,0,0)"><path fill="rgb(221,50,47)" fill-opacity="1" d=" M0,-87.41100311279297 C0,-87.41100311279297 -189.48399353027344,68.68399810791016 -189.48399353027344,68.68399810791016 C-189.48399353027344,68.68399810791016 -174.12399291992188,87.41100311279297 -174.12399291992188,87.41100311279297 C-174.12399291992188,87.41100311279297 0,-56.029998779296875 0,-56.029998779296875 C0,-56.029998779296875 174.1230010986328,87.41100311279297 174.1230010986328,87.41100311279297 C174.1230010986328,87.41100311279297 189.48399353027344,68.68399810791016 189.48399353027344,68.68399810791016 C189.48399353027344,68.68399810791016 0,-87.41100311279297 0,-87.41100311279297z"></path><path stroke-linecap="round" stroke-linejoin="round" fill-opacity="0" stroke="rgb(162,0,16)" stroke-opacity="1" stroke-width="8" d=" M0,-87.41100311279297 C0,-87.41100311279297 -189.48399353027344,68.68399810791016 -189.48399353027344,68.68399810791016 C-189.48399353027344,68.68399810791016 -174.12399291992188,87.41100311279297 -174.12399291992188,87.41100311279297 C-174.12399291992188,87.41100311279297 0,-56.029998779296875 0,-56.029998779296875 C0,-56.029998779296875 174.1230010986328,87.41100311279297 174.1230010986328,87.41100311279297 C174.1230010986328,87.41100311279297 189.48399353027344,68.68399810791016 189.48399353027344,68.68399810791016 C189.48399353027344,68.68399810791016 0,-87.41100311279297 0,-87.41100311279297z"></path></g></g><g style="display: block;" transform="matrix(0.8999999761581421,0,0,0.8999999761581421,257.19610595703125,141.97940063476562)" opacity="1"><g opacity="1" transform="matrix(1,0,0,1,0,0)"><path fill="rgb(43,43,42)" fill-opacity="1" d=" M200.22000122070312,72.80999755859375 C200.22000122070312,72.80999755859375 189.47999572753906,85.66000366210938 189.47999572753906,85.66000366210938 C189.47999572753906,85.66000366210938 0,-70.44000244140625 0,-70.44000244140625 C0,-70.44000244140625 -189.47999572753906,85.66000366210938 -189.47999572753906,85.66000366210938 C-189.47999572753906,85.66000366210938 -200.22000122070312,72.80999755859375 -200.22000122070312,72.80999755859375 C-200.22000122070312,72.80999755859375 -159.02999877929688,47.470001220703125 -159.02999877929688,47.470001220703125 C-159.02999877929688,47.470001220703125 -160,38.310001373291016 -160,38.310001373291016 C-160,38.310001373291016 -119.80999755859375,16.010000228881836 -119.80999755859375,16.010000228881836 C-119.80999755859375,16.010000228881836 -120.9000015258789,6.179999828338623 -120.9000015258789,6.179999828338623 C-120.9000015258789,6.179999828338623 -80.58000183105469,-16.530000686645508 -80.58000183105469,-16.530000686645508 C-80.58000183105469,-16.530000686645508 -81.68000030517578,-27.3700008392334 -81.68000030517578,-27.3700008392334 C-81.68000030517578,-27.3700008392334 -41.349998474121094,-50.08000183105469 -41.349998474121094,-50.08000183105469 C-41.349998474121094,-50.08000183105469 -42.349998474121094,-58.95000076293945 -42.349998474121094,-58.95000076293945 C-42.349998474121094,-58.95000076293945 0,-85.66000366210938 0,-85.66000366210938 C0,-85.66000366210938 42.349998474121094,-58.95000076293945 42.349998474121094,-58.95000076293945 C42.349998474121094,-58.95000076293945 41.349998474121094,-50.08000183105469 41.349998474121094,-50.08000183105469 C41.349998474121094,-50.08000183105469 81.68000030517578,-27.3700008392334 81.68000030517578,-27.3700008392334 C81.68000030517578,-27.3700008392334 80.58000183105469,-16.530000686645508 80.58000183105469,-16.530000686645508 C80.58000183105469,-16.530000686645508 120.9000015258789,6.179999828338623 120.9000015258789,6.179999828338623 C120.9000015258789,6.179999828338623 119.80999755859375,16.010000228881836 119.80999755859375,16.010000228881836 C119.80999755859375,16.010000228881836 160,38.310001373291016 160,38.310001373291016 C160,38.310001373291016 159.02999877929688,47.470001220703125 159.02999877929688,47.470001220703125 C159.02999877929688,47.470001220703125 200.22000122070312,72.80999755859375 200.22000122070312,72.80999755859375z"></path><path stroke-linecap="round" stroke-linejoin="round" fill-opacity="0" stroke="rgb(0,0,0)" stroke-opacity="1" stroke-width="8" d=" M200.22000122070312,72.80999755859375 C200.22000122070312,72.80999755859375 189.47999572753906,85.66000366210938 189.47999572753906,85.66000366210938 C189.47999572753906,85.66000366210938 0,-70.44000244140625 0,-70.44000244140625 C0,-70.44000244140625 -189.47999572753906,85.66000366210938 -189.47999572753906,85.66000366210938 C-189.47999572753906,85.66000366210938 -200.22000122070312,72.80999755859375 -200.22000122070312,72.80999755859375 C-200.22000122070312,72.80999755859375 -159.02999877929688,47.470001220703125 -159.02999877929688,47.470001220703125 C-159.02999877929688,47.470001220703125 -160,38.310001373291016 -160,38.310001373291016 C-160,38.310001373291016 -119.80999755859375,16.010000228881836 -119.80999755859375,16.010000228881836 C-119.80999755859375,16.010000228881836 -120.9000015258789,6.179999828338623 -120.9000015258789,6.179999828338623 C-120.9000015258789,6.179999828338623 -80.58000183105469,-16.530000686645508 -80.58000183105469,-16.530000686645508 C-80.58000183105469,-16.530000686645508 -81.68000030517578,-27.3700008392334 -81.68000030517578,-27.3700008392334 C-81.68000030517578,-27.3700008392334 -41.349998474121094,-50.08000183105469 -41.349998474121094,-50.08000183105469 C-41.349998474121094,-50.08000183105469 -42.349998474121094,-58.95000076293945 -42.349998474121094,-58.95000076293945 C-42.349998474121094,-58.95000076293945 0,-85.66000366210938 0,-85.66000366210938 C0,-85.66000366210938 42.349998474121094,-58.95000076293945 42.349998474121094,-58.95000076293945 C42.349998474121094,-58.95000076293945 41.349998474121094,-50.08000183105469 41.349998474121094,-50.08000183105469 C41.349998474121094,-50.08000183105469 81.68000030517578,-27.3700008392334 81.68000030517578,-27.3700008392334 C81.68000030517578,-27.3700008392334 80.58000183105469,-16.530000686645508 80.58000183105469,-16.530000686645508 C80.58000183105469,-16.530000686645508 120.9000015258789,6.179999828338623 120.9000015258789,6.179999828338623 C120.9000015258789,6.179999828338623 119.80999755859375,16.010000228881836 119.80999755859375,16.010000228881836 C119.80999755859375,16.010000228881836 160,38.310001373291016 160,38.310001373291016 C160,38.310001373291016 159.02999877929688,47.470001220703125 159.02999877929688,47.470001220703125 C159.02999877929688,47.470001220703125 200.22000122070312,72.80999755859375 200.22000122070312,72.80999755859375z"></path></g></g><g style="display: none;"><g><path></path><path stroke-linecap="round" stroke-linejoin="round" fill-opacity="0"></path></g></g><g style="display: none;"><g><path stroke-linecap="round" stroke-linejoin="round" fill-opacity="0"></path></g></g><g style="display: none;"><g><path></path></g></g><g style="display: none;"><g><path stroke-linecap="round" stroke-linejoin="round" fill-opacity="0"></path></g></g><g style="display: none;"><g><path></path><path stroke-linecap="round" stroke-linejoin="round" fill-opacity="0"></path></g></g><g style="display: none;"><g><path></path><path stroke-linecap="round" stroke-linejoin="round" fill-opacity="0"></path></g></g><g style="display: none;"><g><path></path></g></g><g style="display: none;"><g><path stroke-linecap="round" stroke-linejoin="round" fill-opacity="0"></path></g></g><g style="display: block;" transform="matrix(0.8999999761581421,0,0,0.8999999761581421,331.099609375,322.3330993652344)" opacity="0.2"><g opacity="1" transform="matrix(1,0,0,1,0,0)"><path fill="rgb(54,11,15)" fill-opacity="1" d=" M54.472999572753906,56.13999938964844 C54.472999572753906,56.13999938964844 -58.08399963378906,56.13999938964844 -58.08399963378906,56.13999938964844 C-58.08399963378906,56.13999938964844 -57.805999755859375,-57.805999755859375 -57.805999755859375,-57.805999755859375 C-57.805999755859375,-57.805999755859375 54.472999572753906,-56.972999572753906 54.472999572753906,-56.972999572753906 C54.472999572753906,-56.972999572753906 54.472999572753906,56.13999938964844 54.472999572753906,56.13999938964844z"></path><path stroke-linecap="round" stroke-linejoin="round" fill-opacity="0" stroke="rgb(54,11,15)" stroke-opacity="1" stroke-width="8" d=" M54.472999572753906,56.13999938964844 C54.472999572753906,56.13999938964844 -58.08399963378906,56.13999938964844 -58.08399963378906,56.13999938964844 C-58.08399963378906,56.13999938964844 -57.805999755859375,-57.805999755859375 -57.805999755859375,-57.805999755859375 C-57.805999755859375,-57.805999755859375 54.472999572753906,-56.972999572753906 54.472999572753906,-56.972999572753906 C54.472999572753906,-56.972999572753906 54.472999572753906,56.13999938964844 54.472999572753906,56.13999938964844z"></path></g></g><g style="display: block;" transform="matrix(0.8999999761581421,0,0,0.8999999761581421,323.0994873046875,314.3338928222656)" opacity="1"><g opacity="1" transform="matrix(1,0,0,1,0,0)"><path fill="rgb(174,133,100)" fill-opacity="1" d=" M54.472999572753906,56.13999938964844 C54.472999572753906,56.13999938964844 -58.08399963378906,56.13999938964844 -58.08399963378906,56.13999938964844 C-58.08399963378906,56.13999938964844 -57.805999755859375,-57.805999755859375 -57.805999755859375,-57.805999755859375 C-57.805999755859375,-57.805999755859375 54.472999572753906,-56.972999572753906 54.472999572753906,-56.972999572753906 C54.472999572753906,-56.972999572753906 54.472999572753906,56.13999938964844 54.472999572753906,56.13999938964844z"></path><path stroke-linecap="round" stroke-linejoin="round" fill-opacity="0" stroke="rgb(141,92,69)" stroke-opacity="1" stroke-width="8" d=" M54.472999572753906,56.13999938964844 C54.472999572753906,56.13999938964844 -58.08399963378906,56.13999938964844 -58.08399963378906,56.13999938964844 C-58.08399963378906,56.13999938964844 -57.805999755859375,-57.805999755859375 -57.805999755859375,-57.805999755859375 C-57.805999755859375,-57.805999755859375 54.472999572753906,-56.972999572753906 54.472999572753906,-56.972999572753906 C54.472999572753906,-56.972999572753906 54.472999572753906,56.13999938964844 54.472999572753906,56.13999938964844z"></path></g></g><g style="display: block;" transform="matrix(0.8999999761581421,0,0,0.8999999761581421,323.0994873046875,314.3338928222656)" opacity="1"><g opacity="1" transform="matrix(1,0,0,1,0,0)"><path stroke-linecap="round" stroke-linejoin="round" fill-opacity="0" stroke="rgb(108,66,54)" stroke-opacity="1" stroke-width="8" d=" M54.472999572753906,-56.972999572753906 C54.472999572753906,-56.972999572753906 54.472999572753906,56.13999938964844 54.472999572753906,56.13999938964844 C54.472999572753906,56.13999938964844 54.472999572753906,56.13999938964844 54.472999572753906,56.13999938964844 C54.472999572753906,56.13999938964844 -58.08399963378906,56.13999938964844 -58.08399963378906,56.13999938964844 C-58.08399963378906,56.13999938964844 -58.08399963378906,56.13999938964844 -58.08399963378906,56.13999938964844"></path></g></g><g style="display: block;" transform="matrix(0.8999999761581421,0,0,0.8999999761581421,323.0994873046875,314.3338928222656)" opacity="1"><g opacity="1" transform="matrix(1,0,0,1,0,0)"><path fill="url(#__lottie_element_12978)" fill-opacity="1" d=" M38.965999603271484,39.52199935913086 C38.965999603271484,39.52199935913086 -42.57699966430664,39.52199935913086 -42.57699966430664,39.52199935913086 C-42.57699966430664,39.52199935913086 -42.85499954223633,-41.465999603271484 -42.85499954223633,-41.465999603271484 C-42.85499954223633,-41.465999603271484 38.6879997253418,-41.465999603271484 38.6879997253418,-41.465999603271484 C38.6879997253418,-41.465999603271484 38.965999603271484,39.52199935913086 38.965999603271484,39.52199935913086z"></path><path stroke-linecap="round" stroke-linejoin="round" fill-opacity="0" stroke="rgb(121,189,232)" stroke-opacity="1" stroke-width="8" d=" M38.965999603271484,39.52199935913086 C38.965999603271484,39.52199935913086 -42.57699966430664,39.52199935913086 -42.57699966430664,39.52199935913086 C-42.57699966430664,39.52199935913086 -42.85499954223633,-41.465999603271484 -42.85499954223633,-41.465999603271484 C-42.85499954223633,-41.465999603271484 38.6879997253418,-41.465999603271484 38.6879997253418,-41.465999603271484 C38.6879997253418,-41.465999603271484 38.965999603271484,39.52199935913086 38.965999603271484,39.52199935913086z"></path></g></g><g style="display: block;" transform="matrix(0.8999999761581421,0,0,0.8999999761581421,323.0994873046875,314.3338928222656)" opacity="1"><g opacity="1" transform="matrix(1,0,0,1,0,0)"><path stroke-linecap="round" stroke-linejoin="round" fill-opacity="0" stroke="rgb(56,93,122)" stroke-opacity="1" stroke-width="8" d=" M-42.29999923706055,39.52199935913086 C-42.483001708984375,39.52199935913086 -42.57699966430664,39.52199935913086 -42.57699966430664,39.52199935913086 C-42.57699966430664,39.52199935913086 -42.85499954223633,-41.465999603271484 -42.85499954223633,-41.465999603271484 C-42.85499954223633,-41.465999603271484 33.23500061035156,-41.465999603271484 38.4109992980957,-41.465999603271484"></path></g></g><g style="display: block;" transform="matrix(0.8999999761581421,0,0,0.8999999761581421,323.0994873046875,314.3338928222656)" opacity="1"><g opacity="1" transform="matrix(1,0,0,1,0,0)"><path stroke-linecap="round" stroke-linejoin="round" fill-opacity="0" stroke="rgb(255,255,255)" stroke-opacity="1" stroke-width="6" d=" M5.671999931335449,-57.334999084472656 C7.186999797821045,-57.32400131225586 8.694999694824219,-57.3129997253418 10.190999984741211,-57.301998138427734"></path></g></g><g style="display: block;" transform="matrix(0.8999999761581421,0,0,0.8999999761581421,323.0994873046875,314.3338928222656)" opacity="1"><g opacity="1" transform="matrix(1,0,0,1,0,0)"><path stroke-linecap="round" stroke-linejoin="round" fill-opacity="0" stroke="rgb(255,255,255)" stroke-opacity="1" stroke-width="6" d=" M-19.45400047302246,-57.520999908447266 C-15.055000305175781,-57.48899841308594 -10.494999885559082,-57.45500183105469 -5.895999908447266,-57.42100143432617"></path></g></g><g style="display: none;"><g><path></path><path stroke-linecap="round" stroke-linejoin="round" fill-opacity="0"></path></g></g><g style="display: none;"><g><path></path><path stroke-linecap="round" stroke-linejoin="round" fill-opacity="0"></path></g></g><g style="display: none;"><g><path stroke-linecap="round" stroke-linejoin="round" fill-opacity="0"></path></g></g><g style="display: none;"><g><path fill="url(#__lottie_element_12956)"></path><path stroke-linecap="round" stroke-linejoin="round" fill-opacity="0"></path></g></g><g style="display: none;"><g><path stroke-linecap="round" stroke-linejoin="round" fill-opacity="0"></path></g></g><g style="display: none;"><g><path stroke-linecap="round" stroke-linejoin="round" fill-opacity="0"></path></g></g><g style="display: none;"><g><path stroke-linecap="round" stroke-linejoin="round" fill-opacity="0"></path></g></g><g style="display: none;"><g><path></path><path stroke-linecap="round" stroke-linejoin="round" fill-opacity="0"></path></g></g><g style="display: none;"><g><path></path><path stroke-linecap="round" stroke-linejoin="round" fill-opacity="0"></path></g></g><g style="display: none;"><g><path fill="url(#__lottie_element_12937)"></path><path stroke-linecap="round" stroke-linejoin="round" fill-opacity="0"></path></g></g><g style="display: none;"><g><path></path><path stroke-linecap="round" stroke-linejoin="round" fill-opacity="0"></path></g></g><g style="display: none;"><g><path></path><path stroke-linecap="round" stroke-linejoin="round" fill-opacity="0"></path></g></g><g style="display: none;"><g><path fill="url(#__lottie_element_12927)"></path><path stroke-linecap="round" stroke-linejoin="round" fill-opacity="0"></path></g></g><g style="display: none;"><g><path></path><path stroke-linecap="round" stroke-linejoin="round" fill-opacity="0"></path></g></g><g style="display: none;"><g><path></path><path stroke-linecap="round" stroke-linejoin="round" fill-opacity="0"></path></g></g><g style="display: none;"><g><path fill="url(#__lottie_element_12917)"></path><path stroke-linecap="round" stroke-linejoin="round" fill-opacity="0"></path></g></g><g style="display: none;"><g><path></path><path stroke-linecap="round" stroke-linejoin="round" fill-opacity="0"></path></g></g><g style="display: none;"><g><path fill="url(#__lottie_element_12910)"></path><path stroke-linecap="round" stroke-linejoin="round" fill-opacity="0"></path></g></g><g style="display: none;"><g><path stroke-linecap="round" stroke-linejoin="round" fill-opacity="0"></path></g></g><g style="display: none;"><g><path stroke-linecap="round" stroke-linejoin="round" fill-opacity="0"></path></g></g><g style="display: none;"><g><path stroke-linecap="round" stroke-linejoin="round" fill-opacity="0"></path></g></g><g style="display: none;"><g><path stroke-linecap="round" stroke-linejoin="round" fill-opacity="0"></path></g></g><g style="display: none;"><g><path stroke-linecap="round" stroke-linejoin="round" fill-opacity="0"></path></g></g><g style="display: none;"><g><path stroke-linecap="round" stroke-linejoin="round" fill-opacity="0"></path></g></g><g style="display: block;" transform="matrix(0.8999999761581421,0,0,0.8999999761581421,201.42489624023438,358.78851318359375)" opacity="0.2"><g opacity="1" transform="matrix(1,0,0,1,0,0)"><path fill="rgb(54,11,15)" fill-opacity="1" d=" M58.16400146484375,90.20099639892578 C58.16400146484375,90.20099639892578 -58.41600036621094,90.20099639892578 -58.41600036621094,90.20099639892578 C-58.41600036621094,90.20099639892578 -58.290000915527344,-99.6449966430664 -58.290000915527344,-99.6449966430664 C-58.290000915527344,-99.6449966430664 58.290000915527344,-99.6449966430664 58.290000915527344,-99.6449966430664 C58.290000915527344,-99.6449966430664 58.16400146484375,90.20099639892578 58.16400146484375,90.20099639892578z"></path><path stroke-linecap="round" stroke-linejoin="round" fill-opacity="0" stroke="rgb(54,11,15)" stroke-opacity="1" stroke-width="8" d=" M58.16400146484375,90.20099639892578 C58.16400146484375,90.20099639892578 -58.41600036621094,90.20099639892578 -58.41600036621094,90.20099639892578 C-58.41600036621094,90.20099639892578 -58.290000915527344,-99.6449966430664 -58.290000915527344,-99.6449966430664 C-58.290000915527344,-99.6449966430664 58.290000915527344,-99.6449966430664 58.290000915527344,-99.6449966430664 C58.290000915527344,-99.6449966430664 58.16400146484375,90.20099639892578 58.16400146484375,90.20099639892578z"></path></g></g><g style="display: block;" transform="matrix(0.8999999761581421,0,0,0.8999999761581421,192.42489624023438,351.7882995605469)" opacity="1"><g opacity="1" transform="matrix(1,0,0,1,0,0)"><path fill="rgb(174,133,100)" fill-opacity="1" d=" M58.16400146484375,90.20099639892578 C58.16400146484375,90.20099639892578 -58.41600036621094,90.20099639892578 -58.41600036621094,90.20099639892578 C-58.41600036621094,90.20099639892578 -58.290000915527344,-99.6449966430664 -58.290000915527344,-99.6449966430664 C-58.290000915527344,-99.6449966430664 58.290000915527344,-99.6449966430664 58.290000915527344,-99.6449966430664 C58.290000915527344,-99.6449966430664 58.16400146484375,90.20099639892578 58.16400146484375,90.20099639892578z"></path><path stroke-linecap="round" stroke-linejoin="round" fill-opacity="0" stroke="rgb(141,92,69)" stroke-opacity="1" stroke-width="8" d=" M58.16400146484375,90.20099639892578 C58.16400146484375,90.20099639892578 -58.41600036621094,90.20099639892578 -58.41600036621094,90.20099639892578 C-58.41600036621094,90.20099639892578 -58.290000915527344,-99.6449966430664 -58.290000915527344,-99.6449966430664 C-58.290000915527344,-99.6449966430664 58.290000915527344,-99.6449966430664 58.290000915527344,-99.6449966430664 C58.290000915527344,-99.6449966430664 58.16400146484375,90.20099639892578 58.16400146484375,90.20099639892578z"></path></g></g><g style="display: none;"><g><path stroke-linecap="round" stroke-linejoin="round" fill-opacity="0"></path></g></g><g style="display: none;"><g><path stroke-linecap="round" stroke-linejoin="round" fill-opacity="0"></path></g></g><g style="display: none;"><g><path></path><path stroke-linecap="round" stroke-linejoin="round" fill-opacity="0"></path></g></g><g style="display: none;"><g><path></path><path stroke-linecap="round" stroke-linejoin="round" fill-opacity="0"></path></g></g><g style="display: none;"><g><path></path><path stroke-linecap="round" stroke-linejoin="round" fill-opacity="0"></path></g></g><g style="display: none;"><g><path></path><path stroke-linecap="round" stroke-linejoin="round" fill-opacity="0"></path></g></g><g style="display: block;" transform="matrix(0.8999999761581421,0,0,0.8999999761581421,192.72999572753906,449.0503845214844)" opacity="1"><g opacity="1" transform="matrix(1,0,0,1,0,0)"><path fill="rgb(142,135,127)" fill-opacity="1" d=" M66.69499969482422,5.979000091552734 C66.69499969482422,5.979000091552734 -66.82099914550781,5.979000091552734 -66.82099914550781,5.979000091552734 C-66.82099914550781,5.979000091552734 -66.96700286865234,-13.756999969482422 -66.96700286865234,-13.756999969482422 C-66.96700286865234,-13.756999969482422 66.55000305175781,-13.756999969482422 66.55000305175781,-13.756999969482422 C66.55000305175781,-13.756999969482422 66.69499969482422,5.979000091552734 66.69499969482422,5.979000091552734z"></path><path stroke-linecap="round" stroke-linejoin="round" fill-opacity="0" stroke="rgb(74,68,61)" stroke-opacity="1" stroke-width="8" d=" M66.69499969482422,5.979000091552734 C66.69499969482422,5.979000091552734 -66.82099914550781,5.979000091552734 -66.82099914550781,5.979000091552734 C-66.82099914550781,5.979000091552734 -66.96700286865234,-13.756999969482422 -66.96700286865234,-13.756999969482422 C-66.96700286865234,-13.756999969482422 66.55000305175781,-13.756999969482422 66.55000305175781,-13.756999969482422 C66.55000305175781,-13.756999969482422 66.69499969482422,5.979000091552734 66.69499969482422,5.979000091552734z"></path></g></g><g style="display: none;"><g><path></path><path stroke-linecap="round" stroke-linejoin="round" fill-opacity="0"></path></g></g><g style="display: none;"><g><path></path><path stroke-linecap="round" stroke-linejoin="round" fill-opacity="0"></path></g></g><g style="display: block;" transform="matrix(0.8999999761581421,0,0,0.8999999761581421,192.72999572753906,463.8131103515625)" opacity="1"><g opacity="1" transform="matrix(1,0,0,1,0,0)"><path fill="rgb(142,135,127)" fill-opacity="1" d=" M76.72599792480469,8.20199966430664 C76.72599792480469,8.20199966430664 -76.72599792480469,8.20199966430664 -76.72599792480469,8.20199966430664 C-76.72599792480469,8.20199966430664 -76.52899932861328,-10.423999786376953 -76.52899932861328,-10.423999786376953 C-76.52899932861328,-10.423999786376953 76.9219970703125,-10.423999786376953 76.9219970703125,-10.423999786376953 C76.9219970703125,-10.423999786376953 76.72599792480469,8.20199966430664 76.72599792480469,8.20199966430664z"></path><path stroke-linecap="round" stroke-linejoin="round" fill-opacity="0" stroke="rgb(74,68,61)" stroke-opacity="1" stroke-width="8" d=" M76.72599792480469,8.20199966430664 C76.72599792480469,8.20199966430664 -76.72599792480469,8.20199966430664 -76.72599792480469,8.20199966430664 C-76.72599792480469,8.20199966430664 -76.52899932861328,-10.423999786376953 -76.52899932861328,-10.423999786376953 C-76.52899932861328,-10.423999786376953 76.9219970703125,-10.423999786376953 76.9219970703125,-10.423999786376953 C76.9219970703125,-10.423999786376953 76.72599792480469,8.20199966430664 76.72599792480469,8.20199966430664z"></path></g></g><g style="display: none;"><g><path></path><path stroke-linecap="round" stroke-linejoin="round" fill-opacity="0"></path></g></g><g style="display: none;"><g><path></path><path stroke-linecap="round" stroke-linejoin="round" fill-opacity="0"></path></g></g><g style="display: none;"><g><path></path><path stroke-linecap="round" stroke-linejoin="round" fill-opacity="0"></path></g></g><g style="display: none;"><g><path></path><path stroke-linecap="round" stroke-linejoin="round" fill-opacity="0"></path></g></g><g style="display: block;" transform="matrix(0.8999999761581421,0,0,0.8999999761581421,192.42491149902344,358.2629089355469)" opacity="1"><g opacity="1" transform="matrix(1,0,0,1,0,0)"><path fill="rgb(128,55,30)" fill-opacity="1" d=" M43.512001037597656,81.89600372314453 C43.512001037597656,81.89600372314453 -43.97200012207031,81.89600372314453 -43.97200012207031,81.89600372314453 C-43.97200012207031,81.89600372314453 -43.742000579833984,-92.4520034790039 -43.742000579833984,-92.4520034790039 C-43.742000579833984,-92.4520034790039 43.742000579833984,-92.4520034790039 43.742000579833984,-92.4520034790039 C43.742000579833984,-92.4520034790039 43.512001037597656,81.89600372314453 43.512001037597656,81.89600372314453z"></path><path stroke-linecap="round" stroke-linejoin="round" fill-opacity="0" stroke="rgb(99,37,21)" stroke-opacity="1" stroke-width="8" d=" M43.512001037597656,81.89600372314453 C43.512001037597656,81.89600372314453 -43.97200012207031,81.89600372314453 -43.97200012207031,81.89600372314453 C-43.97200012207031,81.89600372314453 -43.742000579833984,-92.4520034790039 -43.742000579833984,-92.4520034790039 C-43.742000579833984,-92.4520034790039 43.742000579833984,-92.4520034790039 43.742000579833984,-92.4520034790039 C43.742000579833984,-92.4520034790039 43.512001037597656,81.89600372314453 43.512001037597656,81.89600372314453z"></path></g></g><g style="display: block;" transform="matrix(0.8999999761581421,0,0,0.8999999761581421,192.73001098632812,314.8307189941406)" opacity="1"><g opacity="1" transform="matrix(1,0,0,1,0,0)"><path fill="url(#__lottie_element_12840)" fill-opacity="1" d=" M28.468000411987305,28.468000411987305 C28.468000411987305,28.468000411987305 -28.468000411987305,28.468000411987305 -28.468000411987305,28.468000411987305 C-28.468000411987305,28.468000411987305 -28.468000411987305,-28.468000411987305 -28.468000411987305,-28.468000411987305 C-28.468000411987305,-28.468000411987305 28.468000411987305,-28.468000411987305 28.468000411987305,-28.468000411987305 C28.468000411987305,-28.468000411987305 28.468000411987305,28.468000411987305 28.468000411987305,28.468000411987305z"></path><path stroke-linecap="round" stroke-linejoin="round" fill-opacity="0" stroke="rgb(121,189,232)" stroke-opacity="1" stroke-width="8" d=" M28.468000411987305,28.468000411987305 C28.468000411987305,28.468000411987305 -28.468000411987305,28.468000411987305 -28.468000411987305,28.468000411987305 C-28.468000411987305,28.468000411987305 -28.468000411987305,-28.468000411987305 -28.468000411987305,-28.468000411987305 C-28.468000411987305,-28.468000411987305 28.468000411987305,-28.468000411987305 28.468000411987305,-28.468000411987305 C28.468000411987305,-28.468000411987305 28.468000411987305,28.468000411987305 28.468000411987305,28.468000411987305z"></path></g></g><g style="display: block;" transform="matrix(0.8999999761581421,0,0,0.8999999761581421,192.73001098632812,314.8307189941406)" opacity="1"><g opacity="1" transform="matrix(1,0,0,1,0,0)"><path stroke-linecap="round" stroke-linejoin="round" fill-opacity="0" stroke="rgb(56,93,122)" stroke-opacity="1" stroke-width="8" d=" M-28.468000411987305,28.468000411987305 C-28.468000411987305,28.468000411987305 -28.468000411987305,28.468000411987305 -28.468000411987305,28.468000411987305 C-28.468000411987305,28.468000411987305 -28.468000411987305,-28.468000411987305 -28.468000411987305,-28.468000411987305 C-28.468000411987305,-28.468000411987305 28.468000411987305,-28.468000411987305 28.468000411987305,-28.468000411987305 C28.468000411987305,-28.468000411987305 28.468000411987305,-28.468000411987305 28.468000411987305,-28.468000411987305"></path></g></g><g style="display: block;" transform="matrix(0.8999999761581421,0,0,0.8999999761581421,25.600004196166992,40.20112991333008)" opacity="1"><g opacity="1" transform="matrix(1,0,0,1,213.91000366210938,385.75799560546875)"><path fill="rgb(72,22,13)" fill-opacity="1" d=" M6.38700008392334,0 C6.38700008392334,3.5269999504089355 3.5269999504089355,6.38700008392334 0,6.38700008392334 C-3.5269999504089355,6.38700008392334 -6.38700008392334,3.5269999504089355 -6.38700008392334,0 C-6.38700008392334,-3.5269999504089355 -3.5269999504089355,-6.38700008392334 0,-6.38700008392334 C3.5269999504089355,-6.38700008392334 6.38700008392334,-3.5269999504089355 6.38700008392334,0z"></path><path stroke-linecap="round" stroke-linejoin="round" fill-opacity="0" stroke="rgb(72,22,13)" stroke-opacity="1" stroke-width="8" d=" M6.38700008392334,0 C6.38700008392334,3.5269999504089355 3.5269999504089355,6.38700008392334 0,6.38700008392334 C-3.5269999504089355,6.38700008392334 -6.38700008392334,3.5269999504089355 -6.38700008392334,0 C-6.38700008392334,-3.5269999504089355 -3.5269999504089355,-6.38700008392334 0,-6.38700008392334 C3.5269999504089355,-6.38700008392334 6.38700008392334,-3.5269999504089355 6.38700008392334,0z"></path></g><g opacity="1" transform="matrix(1,0,0,1,211.91000366210938,379.63800048828125)"><path fill="rgb(250,190,0)" fill-opacity="1" d=" M6.303999900817871,-1.0219999551773071 C6.868000030517578,2.4600000381469727 4.504000186920166,5.739999771118164 1.0219999551773071,6.303999900817871 C-2.4600000381469727,6.868000030517578 -5.739999771118164,4.504000186920166 -6.303999900817871,1.0219999551773071 C-6.868000030517578,-2.4600000381469727 -4.504000186920166,-5.739999771118164 -1.0219999551773071,-6.303999900817871 C2.4600000381469727,-6.868000030517578 5.739999771118164,-4.504000186920166 6.303999900817871,-1.0219999551773071z"></path><path stroke-linecap="round" stroke-linejoin="round" fill-opacity="0" stroke="rgb(236,159,14)" stroke-opacity="1" stroke-width="8" d=" M6.303999900817871,-1.0219999551773071 C6.868000030517578,2.4600000381469727 4.504000186920166,5.739999771118164 1.0219999551773071,6.303999900817871 C-2.4600000381469727,6.868000030517578 -5.739999771118164,4.504000186920166 -6.303999900817871,1.0219999551773071 C-6.868000030517578,-2.4600000381469727 -4.504000186920166,-5.739999771118164 -1.0219999551773071,-6.303999900817871 C2.4600000381469727,-6.868000030517578 5.739999771118164,-4.504000186920166 6.303999900817871,-1.0219999551773071z"></path></g><g opacity="1" transform="matrix(1,0,0,1,208.88800048828125,374.09698486328125)"><path stroke-linecap="round" stroke-linejoin="round" fill-opacity="0" stroke="rgb(255,215,85)" stroke-opacity="1" stroke-width="8" d=" M-0.8640000224113464,0.4699999988079071 C-0.3529999852180481,0.07900000363588333 0.22599999606609344,-0.2409999966621399 0.8640000224113464,-0.4699999988079071"></path></g><g opacity="1" transform="matrix(1,0,0,1,213.28399658203125,382.3210144042969)"><path stroke-linecap="round" stroke-linejoin="round" fill-opacity="0" stroke="rgb(209,115,0)" stroke-opacity="1" stroke-width="8" d=" M4.929999828338623,-3.7049999237060547 C5.49399995803833,-0.22300000488758087 3.130000114440918,3.058000087738037 -0.35199999809265137,3.621999979019165 C-2.0510001182556152,3.8970000743865967 -3.7019999027252197,3.4749999046325684 -5.013000011444092,2.565999984741211"></path></g></g><g style="display: none;"><g><path></path><path stroke-linecap="round" stroke-linejoin="round" fill-opacity="0"></path></g></g><g style="display: none;"><g><path></path><path stroke-linecap="round" stroke-linejoin="round" fill-opacity="0"></path></g></g><g style="display: none;"><g><path fill="url(#__lottie_element_12824)"></path><path stroke-linecap="round" stroke-linejoin="round" fill-opacity="0"></path></g></g><g style="display: none;"><g><path stroke-linecap="round" stroke-linejoin="round" fill-opacity="0"></path></g></g><g style="display: none;"><g><path></path><path stroke-linecap="round" stroke-linejoin="round" fill-opacity="0"></path></g><g><path></path><path stroke-linecap="round" stroke-linejoin="round" fill-opacity="0"></path></g><g><path stroke-linecap="round" stroke-linejoin="round" fill-opacity="0"></path></g><g><path stroke-linecap="round" stroke-linejoin="round" fill-opacity="0"></path></g></g></g></svg>