<svg xmlns="http://www.w3.org/2000/svg" viewBox="0 0 512 512" width="512" height="512" style="width: 100%; height: 100%; transform: translate3d(0,0,0);" preserveAspectRatio="xMidYMid meet"><defs><clipPath id="__lottie_element_13261"><rect width="512" height="512" x="0" y="0"></rect></clipPath><clipPath id="__lottie_element_13263"><path d="M0,0 L512,0 L512,512 L0,512z"></path></clipPath><linearGradient id="__lottie_element_13284" spreadMethod="pad" gradientUnits="userSpaceOnUse" x1="-6.966000080108643" y1="-13.302000045776367" x2="-15.295000076293945" y2="18.051000595092773"><stop offset="0%" stop-color="rgb(255,252,0)"></stop><stop offset="50%" stop-color="rgb(253,237,29)"></stop><stop offset="100%" stop-color="rgb(252,223,57)"></stop></linearGradient><linearGradient id="__lottie_element_13287" spreadMethod="pad" gradientUnits="userSpaceOnUse" x1="-5.710000038146973" y1="2.4089999198913574" x2="-8.928999900817871" y2="37.76300048828125"><stop offset="0%" stop-color="rgb(153,86,5)" stop-opacity="0"></stop><stop offset="50%" stop-color="rgb(153,86,5)" stop-opacity="0.5"></stop><stop offset="100%" stop-color="rgb(153,86,5)" stop-opacity="1"></stop></linearGradient><linearGradient id="__lottie_element_13292" spreadMethod="pad" gradientUnits="userSpaceOnUse" x1="-8.269000053405762" y1="-32.08399963378906" x2="-14.519000053405762" y2="87.66200256347656"><stop offset="0%" stop-color="rgb(255,252,0)"></stop><stop offset="50%" stop-color="rgb(253,237,29)"></stop><stop offset="100%" stop-color="rgb(252,223,57)"></stop></linearGradient><linearGradient id="__lottie_element_13298" spreadMethod="pad" gradientUnits="userSpaceOnUse" x1="-20.88599967956543" y1="36.19300079345703" x2="-50.698001861572266" y2="34.75600051879883"><stop offset="0%" stop-color="rgb(153,86,5)" stop-opacity="0"></stop><stop offset="50%" stop-color="rgb(153,86,5)" stop-opacity="0.5"></stop><stop offset="100%" stop-color="rgb(153,86,5)" stop-opacity="1"></stop></linearGradient><linearGradient id="__lottie_element_13302" spreadMethod="pad" gradientUnits="userSpaceOnUse" x1="13.970000267028809" y1="-2.6760001182556152" x2="-4.934999942779541" y2="-0.09799999743700027"><stop offset="0%" stop-color="rgb(153,86,5)" stop-opacity="0"></stop><stop offset="50%" stop-color="rgb(153,86,5)" stop-opacity="0.5"></stop><stop offset="100%" stop-color="rgb(153,86,5)" stop-opacity="1"></stop></linearGradient><linearGradient id="__lottie_element_13306" spreadMethod="pad" gradientUnits="userSpaceOnUse" x1="34.72100067138672" y1="-0.6330000162124634" x2="81.37799835205078" y2="-0.6330000162124634"><stop offset="0%" stop-color="rgb(255,252,0)"></stop><stop offset="50%" stop-color="rgb(253,237,29)"></stop><stop offset="100%" stop-color="rgb(252,223,57)"></stop></linearGradient><linearGradient id="__lottie_element_13314" spreadMethod="pad" gradientUnits="userSpaceOnUse" x1="54.90700149536133" y1="-111.06500244140625" x2="32.6349983215332" y2="-3.2230000495910645"><stop offset="0%" stop-color="rgb(255,252,0)"></stop><stop offset="50%" stop-color="rgb(253,237,29)"></stop><stop offset="100%" stop-color="rgb(252,223,57)"></stop></linearGradient><linearGradient id="__lottie_element_13321" spreadMethod="pad" gradientUnits="userSpaceOnUse" x1="41.737998962402344" y1="-123.23400115966797" x2="19.485000610351562" y2="-15.484999656677246"><stop offset="0%" stop-color="rgb(255,252,0)"></stop><stop offset="50%" stop-color="rgb(253,237,29)"></stop><stop offset="100%" stop-color="rgb(252,223,57)"></stop></linearGradient><clipPath id="__lottie_element_13325"><path d="M0,0 L712,0 L712,512 L0,512z"></path></clipPath><linearGradient id="__lottie_element_13333" spreadMethod="pad" gradientUnits="userSpaceOnUse"><stop></stop><stop></stop><stop></stop></linearGradient><linearGradient id="__lottie_element_13336" spreadMethod="pad" gradientUnits="userSpaceOnUse"><stop></stop><stop></stop><stop></stop></linearGradient><linearGradient id="__lottie_element_13341" spreadMethod="pad" gradientUnits="userSpaceOnUse"><stop></stop><stop></stop><stop></stop></linearGradient><linearGradient id="__lottie_element_13347" spreadMethod="pad" gradientUnits="userSpaceOnUse"><stop></stop><stop></stop><stop></stop></linearGradient><linearGradient id="__lottie_element_13351" spreadMethod="pad" gradientUnits="userSpaceOnUse"><stop></stop><stop></stop><stop></stop></linearGradient><linearGradient id="__lottie_element_13355" spreadMethod="pad" gradientUnits="userSpaceOnUse"><stop></stop><stop></stop><stop></stop></linearGradient><linearGradient id="__lottie_element_13363" spreadMethod="pad" gradientUnits="userSpaceOnUse"><stop></stop><stop></stop><stop></stop></linearGradient><linearGradient id="__lottie_element_13370" spreadMethod="pad" gradientUnits="userSpaceOnUse"><stop></stop><stop></stop><stop></stop></linearGradient><linearGradient id="__lottie_element_13377" spreadMethod="pad" gradientUnits="userSpaceOnUse" x1="103.01300048828125" y1="-0.47099998593330383" x2="-33.29999923706055" y2="-0.47099998593330383"><stop offset="0%" stop-color="rgb(255,252,0)"></stop><stop offset="50%" stop-color="rgb(253,237,29)"></stop><stop offset="100%" stop-color="rgb(252,223,57)"></stop></linearGradient><linearGradient id="__lottie_element_13383" spreadMethod="pad" gradientUnits="userSpaceOnUse" x1="-12.074999809265137" y1="-6.5370001792907715" x2="17.965999603271484" y2="10.428999900817871"><stop offset="0%" stop-color="rgb(153,86,5)" stop-opacity="0"></stop><stop offset="50%" stop-color="rgb(153,86,5)" stop-opacity="0.5"></stop><stop offset="100%" stop-color="rgb(153,86,5)" stop-opacity="1"></stop></linearGradient></defs><g clip-path="url(#__lottie_element_13261)"><g clip-path="url(#__lottie_element_13263)" style="display: block;" transform="matrix(1,0,0,1,0,0)" opacity="1"><g style="display: none;"><g><path></path><path stroke-linecap="round" stroke-linejoin="round" fill-opacity="0"></path></g></g><g style="display: none;"><g><path></path><path stroke-linecap="round" stroke-linejoin="round" fill-opacity="0"></path></g></g><g style="display: none;"><g><path></path><path stroke-linecap="round" stroke-linejoin="round" fill-opacity="0"></path></g></g><g style="display: none;"><g><path></path><path stroke-linecap="butt" stroke-linejoin="miter" fill-opacity="0" stroke-miterlimit="4"></path></g></g><g style="display: block;" transform="matrix(1,0,0,1,-3,0)" opacity="1"><g opacity="1" transform="matrix(1,0,0,1,264.7080078125,256.3269958496094)"><path fill="rgb(254,37,157)" fill-opacity="1" d=" M0,236.01499938964844 C-6.586999893188477,236.01499938964844 -12.800999641418457,233.46600341796875 -17.496000289916992,228.83900451660156 C-45.755001068115234,200.98399353027344 -116.83399963378906,129.22999572753906 -166.3990020751953,64.7020034790039 C-196.5659942626953,25.427000045776367 -216.7830047607422,-9.440999984741211 -228.20199584960938,-41.893001556396484 C-237.69500732421875,-68.86900329589844 -241.2899932861328,-94.48400115966797 -239.51699829101562,-122.50800323486328 C-237.82000732421875,-149.3489990234375 -226.35400390625,-176.66900634765625 -208.06199645996094,-197.46200561523438 C-192.58999633789062,-215.0500030517578 -164.94200134277344,-236.01499938964844 -121.09400177001953,-236.01499938964844 C-121.09100341796875,-236.01499938964844 -121.09100341796875,-236.01499938964844 -121.08799743652344,-236.01499938964844 C-120.00599670410156,-236.01499938964844 -118.90799713134766,-236.00100708007812 -117.80999755859375,-235.9759979248047 C-92.43699645996094,-235.3719940185547 -68.10099792480469,-226.49600219726562 -45.481998443603516,-209.5970001220703 C-26.295000076293945,-195.26300048828125 -12.38599967956543,-178.14999389648438 -4.09499979019165,-166.3179931640625 C-4.09499979019165,-166.3179931640625 0,-160.4739990234375 0,-160.4739990234375 C0,-160.4739990234375 4.09499979019165,-166.3179931640625 4.09499979019165,-166.3179931640625 C12.38599967956543,-178.14999389648438 26.29400062561035,-195.26300048828125 45.48099899291992,-209.5970001220703 C68.10099792480469,-226.49600219726562 92.43599700927734,-235.37100219726562 117.80899810791016,-235.97500610351562 C118.91200256347656,-236.00100708007812 120.0009994506836,-236.01499938964844 121.08799743652344,-236.01499938964844 C164.93499755859375,-236.01499938964844 192.58399963378906,-215.04800415039062 208.0590057373047,-197.45899963378906 C226.3520050048828,-176.66700744628906 237.8179931640625,-149.3489990234375 239.51699829101562,-122.50800323486328 C241.2899932861328,-94.48600006103516 237.69400024414062,-68.87000274658203 228.2010040283203,-41.89400100708008 C216.77999877929688,-9.437999725341797 196.56399536132812,25.430999755859375 166.3990020751953,64.7020034790039 C116.822998046875,129.2429962158203 45.750999450683594,200.98699951171875 17.4950008392334,228.83900451660156 C12.800000190734863,233.46600341796875 6.586999893188477,236.01499938964844 0,236.01499938964844z"></path><path stroke-linecap="butt" stroke-linejoin="miter" fill-opacity="0" stroke-miterlimit="10" stroke="rgb(196,0,108)" stroke-opacity="1" stroke-width="8" d=" M0,236.01499938964844 C-6.586999893188477,236.01499938964844 -12.800999641418457,233.46600341796875 -17.496000289916992,228.83900451660156 C-45.755001068115234,200.98399353027344 -116.83399963378906,129.22999572753906 -166.3990020751953,64.7020034790039 C-196.5659942626953,25.427000045776367 -216.7830047607422,-9.440999984741211 -228.20199584960938,-41.893001556396484 C-237.69500732421875,-68.86900329589844 -241.2899932861328,-94.48400115966797 -239.51699829101562,-122.50800323486328 C-237.82000732421875,-149.3489990234375 -226.35400390625,-176.66900634765625 -208.06199645996094,-197.46200561523438 C-192.58999633789062,-215.0500030517578 -164.94200134277344,-236.01499938964844 -121.09400177001953,-236.01499938964844 C-121.09100341796875,-236.01499938964844 -121.09100341796875,-236.01499938964844 -121.08799743652344,-236.01499938964844 C-120.00599670410156,-236.01499938964844 -118.90799713134766,-236.00100708007812 -117.80999755859375,-235.9759979248047 C-92.43699645996094,-235.3719940185547 -68.10099792480469,-226.49600219726562 -45.481998443603516,-209.5970001220703 C-26.295000076293945,-195.26300048828125 -12.38599967956543,-178.14999389648438 -4.09499979019165,-166.3179931640625 C-4.09499979019165,-166.3179931640625 0,-160.4739990234375 0,-160.4739990234375 C0,-160.4739990234375 4.09499979019165,-166.3179931640625 4.09499979019165,-166.3179931640625 C12.38599967956543,-178.14999389648438 26.29400062561035,-195.26300048828125 45.48099899291992,-209.5970001220703 C68.10099792480469,-226.49600219726562 92.43599700927734,-235.37100219726562 117.80899810791016,-235.97500610351562 C118.91200256347656,-236.00100708007812 120.0009994506836,-236.01499938964844 121.08799743652344,-236.01499938964844 C164.93499755859375,-236.01499938964844 192.58399963378906,-215.04800415039062 208.0590057373047,-197.45899963378906 C226.3520050048828,-176.66700744628906 237.8179931640625,-149.3489990234375 239.51699829101562,-122.50800323486328 C241.2899932861328,-94.48600006103516 237.69400024414062,-68.87000274658203 228.2010040283203,-41.89400100708008 C216.77999877929688,-9.437999725341797 196.56399536132812,25.430999755859375 166.3990020751953,64.7020034790039 C116.822998046875,129.2429962158203 45.750999450683594,200.98699951171875 17.4950008392334,228.83900451660156 C12.800000190734863,233.46600341796875 6.586999893188477,236.01499938964844 0,236.01499938964844z"></path></g><g opacity="1" transform="matrix(1,0,0,1,264.7080078125,256.3280029296875)"><path fill="rgb(245,0,129)" fill-opacity="1" d=" M234.45599365234375,-122.18800354003906 C231.4530029296875,-169.63999938964844 193.61199951171875,-232.70799255371094 117.92900085449219,-230.906005859375 C53.09600067138672,-229.36199951171875 12.800000190734863,-171.3979949951172 2.5789999961853027,-154.81100463867188 C1.3940000534057617,-152.88900756835938 -1.3940000534057617,-152.88900756835938 -2.578000068664551,-154.81100463867188 C-12.798999786376953,-171.3979949951172 -53.09600067138672,-229.36199951171875 -117.92900085449219,-230.906005859375 C-193.61199951171875,-232.70799255371094 -231.4530029296875,-169.63999938964844 -234.45599365234375,-122.18800354003906 C-237.45899963378906,-74.73600006103516 -226.0469970703125,-21.277000427246094 -162.3769989013672,61.612998962402344 C-113.29499816894531,125.51200103759766 -43.39099884033203,196.1929931640625 -13.935999870300293,225.2270050048828 C-6.203000068664551,232.8489990234375 6.203000068664551,232.8489990234375 13.935999870300293,225.2270050048828 C43.39099884033203,196.1929931640625 113.2959976196289,125.51200103759766 162.3780059814453,61.612998962402344 C226.0469970703125,-21.277000427246094 237.45899963378906,-74.73600006103516 234.45599365234375,-122.18800354003906z"></path></g><g opacity="1" transform="matrix(1,0,0,1,264.7080078125,243.2239990234375)"><path fill="rgb(254,37,157)" fill-opacity="1" d=" M234.45599365234375,-109.08399963378906 C231.4530029296875,-156.53599548339844 193.61199951171875,-219.60400390625 117.92900085449219,-217.802001953125 C42.24700164794922,-216 0,-137.31399536132812 0,-137.31399536132812 C0,-137.31399536132812 -42.24700164794922,-216 -117.92900085449219,-217.802001953125 C-193.61199951171875,-219.60400390625 -231.4530029296875,-156.53599548339844 -234.45599365234375,-109.08399963378906 C-237.45899963378906,-61.63199996948242 -226.0469970703125,-8.17300033569336 -162.3769989013672,74.71700286865234 C-131.0659942626953,115.4800033569336 -91.28299713134766,159.0030059814453 -58.930999755859375,192.71299743652344 C-26.77899932861328,226.21600341796875 26.77899932861328,226.21600341796875 58.930999755859375,192.71299743652344 C91.28299713134766,159.0030059814453 131.06700134277344,115.4800033569336 162.3780059814453,74.71700286865234 C226.0469970703125,-8.17300033569336 237.45899963378906,-61.63199996948242 234.45599365234375,-109.08399963378906z"></path></g></g><g style="display: block;" transform="matrix(1,0,0,1,-3,0)" opacity="1"><g opacity="1" transform="matrix(1,0,0,1,264.7080078125,228.7729949951172)"><path fill="rgb(254,61,176)" fill-opacity="1" d=" M212.71499633789062,-82.6259994506836 C209.99000549316406,-121.91999816894531 180.447998046875,-178.51800537109375 111.78399658203125,-177.0260009765625 C43.119998931884766,-175.53399658203125 0,-90.697998046875 0,-90.697998046875 C0,-90.697998046875 -43.119998931884766,-175.53399658203125 -111.78399658203125,-177.0260009765625 C-180.44900512695312,-178.51800537109375 -209.99000549316406,-121.91999816894531 -212.71499633789062,-82.6259994506836 C-215.44000244140625,-43.332000732421875 -205.0850067138672,6.401000022888184 -147.32000732421875,75.04100036621094 C-130.27499389648438,95.29499816894531 -110.46199798583984,117.08699798583984 -90.9990005493164,137.7469940185547 C-41.62200164794922,190.1580047607422 41.62200164794922,190.1580047607422 90.9990005493164,137.7469940185547 C110.46199798583984,117.08699798583984 130.27499389648438,95.29499816894531 147.32000732421875,75.04100036621094 C205.08599853515625,6.401000022888184 215.44000244140625,-43.332000732421875 212.71499633789062,-82.6259994506836z"></path></g><g opacity="1" transform="matrix(1,0,0,1,264.6919860839844,176.65699768066406)"><path fill="rgb(254,87,186)" fill-opacity="1" d=" M0,-38.59299850463867 C-19.606000900268555,-57.72999954223633 -96.9520034790039,-82.08599853515625 -149.79100036621094,-43.83700180053711 C-212.6060028076172,1.6360000371932983 -186.98500061035156,70.41699981689453 -186.02000427246094,72.71499633789062 C-194.1020050048828,58.58599853515625 -199.98199462890625,45.42499923706055 -204.1649932861328,33.0989990234375 C-203.8560028076172,7.645999908447266 -195.04299926757812,-25.347999572753906 -159.28500366210938,-51.224998474121094 C-108.5009994506836,-87.98999786376953 -36.426998138427734,-70.36199951171875 -7.63700008392334,-51.60200119018555 C-2.7850000858306885,-44.01300048828125 -0.16099999845027924,-38.9109992980957 0,-38.59299850463867z M0,-38.59299850463867 C19.606000900268555,-57.72999954223633 96.9520034790039,-82.08599853515625 149.79100036621094,-43.83700180053711 C212.6060028076172,1.6360000371932983 186.98500061035156,70.41699981689453 186.02000427246094,72.71499633789062 C194.1020050048828,58.58599853515625 199.98199462890625,45.42499923706055 204.1649932861328,33.0989990234375 C203.8560028076172,7.645999908447266 195.04299926757812,-25.347999572753906 159.28500366210938,-51.224998474121094 C108.5009994506836,-87.98999786376953 36.426998138427734,-70.36199951171875 7.63700008392334,-51.60200119018555 C2.7850000858306885,-44.01300048828125 0.16099999845027924,-38.9109992980957 0,-38.59299850463867z"></path></g><g opacity="1" transform="matrix(1,0,0,1,264.6919860839844,154.81100463867188)"><path fill="rgb(254,100,191)" fill-opacity="1" d=" M-7.63700008392334,-29.756000518798828 C-36.426998138427734,-48.51599884033203 -108.5009994506836,-66.14399719238281 -159.28500366210938,-29.378999710083008 C-195.04299926757812,-3.502000093460083 -203.8560028076172,29.490999221801758 -204.1649932861328,54.944000244140625 C-206.02200317382812,49.487998962402344 -207.53199768066406,44.198001861572266 -208.7449951171875,39.060001373291016 C-205.41600036621094,15.704999923706055 -193.89199829101562,-11.032999992370605 -163.74099731445312,-32.84400177001953 C-113.48899841308594,-69.23200225830078 -42.9739990234375,-53.80699920654297 -11.362000465393066,-35.4010009765625 C-10,-33.40999984741211 -8.762999534606934,-31.511999130249023 -7.63700008392334,-29.756000518798828z M7.63700008392334,-29.756000518798828 C36.426998138427734,-48.51599884033203 108.5009994506836,-66.14399719238281 159.28500366210938,-29.378999710083008 C195.04299926757812,-3.502000093460083 203.8560028076172,29.490999221801758 204.1649932861328,54.944000244140625 C206.02200317382812,49.487998962402344 207.53199768066406,44.198001861572266 208.7449951171875,39.060001373291016 C205.41600036621094,15.704999923706055 193.89199829101562,-11.032999992370605 163.74099731445312,-32.84400177001953 C113.48899841308594,-69.23200225830078 42.9739990234375,-53.80699920654297 11.362000465393066,-35.4010009765625 C10,-33.40999984741211 8.762999534606934,-31.511999130249023 7.63700008392334,-29.756000518798828z"></path></g><g opacity="1" transform="matrix(1,0,0,1,264.6919860839844,144)"><path fill="rgb(254,113,196)" fill-opacity="1" d=" M-11.362000465393066,-24.59000015258789 C-42.9739990234375,-42.99599838256836 -113.48899841308594,-58.42100143432617 -163.74099731445312,-22.033000946044922 C-193.89199829101562,-0.22200000286102295 -205.41600036621094,26.516000747680664 -208.7449951171875,49.87099838256836 C-210.49000549316406,42.553001403808594 -211.6540069580078,35.54100036621094 -212.32200622558594,28.812999725341797 C-206.00900268554688,9.782999992370605 -193.42100524902344,-10.001999855041504 -170.0279998779297,-26.92300033569336 C-120.3949966430664,-62.862998962402344 -51.7130012512207,-50.125 -16.882999420166016,-32.34400177001953 C-14.866000175476074,-29.634000778198242 -13.032999992370605,-27.02899932861328 -11.362000465393066,-24.59000015258789z M11.362000465393066,-24.59000015258789 C42.9739990234375,-42.99599838256836 113.48899841308594,-58.42100143432617 163.74099731445312,-22.033000946044922 C193.89199829101562,-0.22200000286102295 205.41600036621094,26.516000747680664 208.7449951171875,49.87099838256836 C210.49000549316406,42.553001403808594 211.6540069580078,35.54100036621094 212.32200622558594,28.812999725341797 C206.00900268554688,9.782999992370605 193.42100524902344,-10.001999855041504 170.0279998779297,-26.92300033569336 C120.3949966430664,-62.862998962402344 51.7130012512207,-50.125 16.882999420166016,-32.34400177001953 C14.866000175476074,-29.634000778198242 13.032999992370605,-27.02899932861328 11.362000465393066,-24.59000015258789z"></path></g><g opacity="1" transform="matrix(1,0,0,1,264.6919860839844,130.61300659179688)"><path fill="rgb(254,126,201)" fill-opacity="1" d=" M-16.882999420166016,-18.95599937438965 C-51.7130012512207,-36.73699951171875 -120.3949966430664,-49.474998474121094 -170.0279998779297,-13.53499984741211 C-193.42100524902344,3.385999917984009 -206.00900268554688,23.17099952697754 -212.32200622558594,42.20100021362305 C-213.0030059814453,35.4370002746582 -213.1999969482422,28.957000732421875 -213.02699279785156,22.735000610351562 C-205.427001953125,8.418000221252441 -193.76800537109375,-5.769999980926514 -176.29100036621094,-18.413999557495117 C-127.23899841308594,-53.917999267578125 -60.26599884033203,-43.595001220703125 -22.823999404907227,-26.590999603271484 C-20.69499969482422,-23.98699951171875 -18.71500015258789,-21.430999755859375 -16.882999420166016,-18.95599937438965z M16.882999420166016,-18.95599937438965 C51.7130012512207,-36.73699951171875 120.3949966430664,-49.474998474121094 170.0279998779297,-13.53499984741211 C193.42100524902344,3.385999917984009 206.00900268554688,23.17099952697754 212.32200622558594,42.20100021362305 C213.0030059814453,35.4370002746582 213.1999969482422,28.957000732421875 213.02699279785156,22.735000610351562 C205.427001953125,8.418000221252441 193.76800537109375,-5.769999980926514 176.29100036621094,-18.413999557495117 C127.23899841308594,-53.917999267578125 60.26599884033203,-43.595001220703125 22.823999404907227,-26.590999603271484 C20.69499969482422,-23.98699951171875 18.71500015258789,-21.430999755859375 16.882999420166016,-18.95599937438965z"></path></g><g opacity="1" transform="matrix(1,0,0,1,264.6919860839844,117.87100219726562)"><path fill="rgb(254,139,206)" fill-opacity="1" d=" M-22.823999404907227,-13.848999977111816 C-60.26599884033203,-30.85300064086914 -127.23899841308594,-41.17599868774414 -176.29100036621094,-5.671999931335449 C-193.76800537109375,6.9720001220703125 -205.427001953125,21.15999984741211 -213.02699279785156,35.47700119018555 C-212.97799682617188,33.03799819946289 -212.85400390625,30.634000778198242 -212.6929931640625,28.277000427246094 C-212.43299865722656,24.482999801635742 -211.91299438476562,20.523000717163086 -211.14599609375,16.469999313354492 C-203.94200134277344,6.9720001220703125 -194.6959991455078,-2.255000114440918 -182.88800048828125,-10.79800033569336 C-134.49200439453125,-45.819000244140625 -69.31300354003906,-37.86399841308594 -29.631000518798828,-21.82699966430664 C-27.218000411987305,-19.152000427246094 -24.952999114990234,-16.476999282836914 -22.823999404907227,-13.848999977111816z M22.823999404907227,-13.848999977111816 C60.26599884033203,-30.85300064086914 127.23899841308594,-41.17599868774414 176.29100036621094,-5.671999931335449 C193.76800537109375,6.9720001220703125 205.427001953125,21.15999984741211 213.02699279785156,35.47700119018555 C212.97799682617188,33.03799819946289 212.85400390625,30.634000778198242 212.6929931640625,28.277000427246094 C212.43299865722656,24.482999801635742 211.91299438476562,20.523000717163086 211.14599609375,16.469999313354492 C203.94200134277344,6.9720001220703125 194.6959991455078,-2.255000114440918 182.88800048828125,-10.79800033569336 C134.49200439453125,-45.819000244140625 69.31300354003906,-37.86399841308594 29.631000518798828,-21.82699966430664 C27.218000411987305,-19.152000427246094 24.952999114990234,-16.476999282836914 22.823999404907227,-13.848999977111816z"></path></g><g opacity="1" transform="matrix(1,0,0,1,264.6919860839844,105.65699768066406)"><path fill="rgb(255,151,212)" fill-opacity="1" d=" M-29.631000518798828,-9.61299991607666 C-69.31300354003906,-25.649999618530273 -134.49200439453125,-33.60499954223633 -182.88800048828125,1.4160000085830688 C-194.6959991455078,9.958999633789062 -203.94200134277344,19.18600082397461 -211.14599609375,28.68400001525879 C-210.093994140625,23.16900062561035 -208.5469970703125,17.46500015258789 -206.49200439453125,11.77400016784668 C-201.33099365234375,6.61299991607666 -195.47500610351562,1.6050000190734863 -188.82899475097656,-3.203000068664551 C-141.17599487304688,-37.69300079345703 -77.74299621582031,-31.81399917602539 -36.43899917602539,-16.825000762939453 C-34.0629997253418,-14.432999610900879 -31.797000885009766,-12.017000198364258 -29.631000518798828,-9.61299991607666z M29.631000518798828,-9.61299991607666 C69.31300354003906,-25.649999618530273 134.49200439453125,-33.60499954223633 182.88800048828125,1.4160000085830688 C194.6959991455078,9.958999633789062 203.94200134277344,19.18600082397461 211.14599609375,28.68400001525879 C210.093994140625,23.16900062561035 208.5469970703125,17.46500015258789 206.49200439453125,11.77400016784668 C201.33099365234375,6.61299991607666 195.47500610351562,1.6050000190734863 188.82899475097656,-3.203000068664551 C141.17599487304688,-37.69300079345703 77.74299621582031,-31.81399917602539 36.43899917602539,-16.825000762939453 C34.0629997253418,-14.432999610900879 31.797000885009766,-12.017000198364258 29.631000518798828,-9.61299991607666z"></path></g><g opacity="1" transform="matrix(1,0,0,1,264.6919860839844,94.06900024414062)"><path fill="rgb(255,164,217)" fill-opacity="1" d=" M-36.43899917602539,-5.236999988555908 C-77.74299621582031,-20.22599983215332 -141.17599487304688,-26.104999542236328 -188.82899475097656,8.385000228881836 C-195.47500610351562,13.192999839782715 -201.33099365234375,18.201000213623047 -206.49200439453125,23.36199951171875 C-204.19000244140625,16.98699951171875 -201.24400329589844,10.600000381469727 -197.61700439453125,4.460999965667725 C-196.98599243164062,3.990000009536743 -196.34300231933594,3.5179998874664307 -195.69900512695312,3.046999931335449 C-149.18499755859375,-30.6299991607666 -88.1520004272461,-27.166000366210938 -45.45000076293945,-13.673999786376953 C-42.29399871826172,-10.9399995803833 -39.2859992980957,-8.100000381469727 -36.43899917602539,-5.236999988555908z M36.43899917602539,-5.236999988555908 C77.74299621582031,-20.22599983215332 141.17599487304688,-26.104999542236328 188.82899475097656,8.385000228881836 C195.47500610351562,13.192999839782715 201.33099365234375,18.201000213623047 206.49200439453125,23.36199951171875 C204.19000244140625,16.98699951171875 201.24400329589844,10.600000381469727 197.61700439453125,4.460999965667725 C196.98599243164062,3.990000009536743 196.34300231933594,3.5179998874664307 195.69900512695312,3.046999931335449 C149.18499755859375,-30.6299991607666 88.1520004272461,-27.166000366210938 45.45000076293945,-13.673999786376953 C42.29399871826172,-10.9399995803833 39.2859992980957,-8.100000381469727 36.43899917602539,-5.236999988555908z"></path></g><g opacity="1" transform="matrix(1,0,0,1,264.6919860839844,82.18000030517578)"><path fill="rgb(255,177,222)" fill-opacity="1" d=" M-45.45000076293945,-1.784999966621399 C-88.1520004272461,-15.277000427246094 -149.18499755859375,-18.740999221801758 -195.69900512695312,14.935999870300293 C-196.34300231933594,15.406999588012695 -196.98599243164062,15.878999710083008 -197.61700439453125,16.350000381469727 C-194.7209930419922,11.460000038146973 -191.4029998779297,6.710999965667725 -187.61599731445312,2.244999885559082 C-144.60499572753906,-21.628999710083008 -92.90499877929688,-19.365999221801758 -53.71799850463867,-8.477999687194824 C-50.85900115966797,-6.333000183105469 -48.0989990234375,-4.09499979019165 -45.45000076293945,-1.784999966621399z M45.45000076293945,-1.784999966621399 C88.1520004272461,-15.277000427246094 149.18499755859375,-18.740999221801758 195.69900512695312,14.935999870300293 C196.34300231933594,15.406999588012695 196.98599243164062,15.878999710083008 197.61700439453125,16.350000381469727 C194.7209930419922,11.460000038146973 191.4029998779297,6.710999965667725 187.61599731445312,2.244999885559082 C144.60499572753906,-21.628999710083008 92.90499877929688,-19.365999221801758 53.71799850463867,-8.477999687194824 C50.85900115966797,-6.333000183105469 48.0989990234375,-4.09499979019165 45.45000076293945,-1.784999966621399z"></path></g><g opacity="1" transform="matrix(1,0,0,1,264.6919860839844,73.07599639892578)"><path fill="rgb(255,190,227)" fill-opacity="1" d=" M-53.71799850463867,0.6259999871253967 C-92.90499877929688,-10.26200008392334 -144.60499572753906,-12.524999618530273 -187.61599731445312,11.348999977111816 C-184.34800720214844,7.484000205993652 -180.7469940185547,3.8310000896453857 -176.78599548339844,0.460999995470047 C-138.83700561523438,-15.045999526977539 -96.41999816894531,-13.489999771118164 -61.9739990234375,-5.124000072479248 C-59.13999938964844,-3.309000015258789 -56.37900161743164,-1.3769999742507935 -53.71799850463867,0.6259999871253967z M53.71799850463867,0.6259999871253967 C92.90499877929688,-10.26200008392334 144.60499572753906,-12.524999618530273 187.61599731445312,11.348999977111816 C184.34800720214844,7.484000205993652 180.7469940185547,3.8310000896453857 176.78599548339844,0.460999995470047 C138.83700561523438,-15.045999526977539 96.41999816894531,-13.489999771118164 61.9739990234375,-5.124000072479248 C59.13999938964844,-3.309000015258789 56.37900161743164,-1.3769999742507935 53.71799850463867,0.6259999871253967z"></path></g><g opacity="1" transform="matrix(1,0,0,1,264.6919860839844,65.72699737548828)"><path fill="rgb(255,203,232)" fill-opacity="1" d=" M-61.9739990234375,2.2249999046325684 C-96.41999816894531,-6.140999794006348 -138.83700561523438,-7.697000026702881 -176.78599548339844,7.809999942779541 C-172.78799438476562,4.40500020980835 -168.44400024414062,1.2929999828338623 -163.71600341796875,-1.4520000219345093 C-132.68600463867188,-10.13700008392334 -99.9469985961914,-9.086999893188477 -71.5780029296875,-3.325000047683716 C-68.27300262451172,-1.628000020980835 -65.08100128173828,0.2329999953508377 -61.9739990234375,2.2249999046325684z M61.9739990234375,2.2249999046325684 C96.41999816894531,-6.140999794006348 138.83700561523438,-7.697000026702881 176.78599548339844,7.809999942779541 C172.78799438476562,4.40500020980835 168.44400024414062,1.2929999828338623 163.71600341796875,-1.4520000219345093 C132.68600463867188,-10.13700008392334 99.9469985961914,-9.086999893188477 71.5780029296875,-3.325000047683716 C68.27300262451172,-1.628000020980835 65.08100128173828,0.2329999953508377 61.9739990234375,2.2249999046325684z"></path></g><g opacity="1" transform="matrix(1,0,0,1,264.6919860839844,59.46099853515625)"><path fill="rgb(255,216,237)" fill-opacity="1" d=" M-71.5780029296875,2.940999984741211 C-99.9469985961914,-2.821000099182129 -132.68600463867188,-3.869999885559082 -163.71600341796875,4.815000057220459 C-158.82699584960938,1.975000023841858 -153.54100036621094,-0.46399998664855957 -147.8350067138672,-2.431999921798706 C-125.75399780273438,-5.991000175476074 -103.4260025024414,-5.308000087738037 -82.87899780273438,-2.066999912261963 C-78.99299621582031,-0.6179999709129333 -75.22899627685547,1.055999994277954 -71.5780029296875,2.940999984741211z M71.5780029296875,2.940999984741211 C99.9469985961914,-2.821000099182129 132.68600463867188,-3.869999885559082 163.71600341796875,4.815000057220459 C158.82699584960938,1.975000023841858 153.54100036621094,-0.46399998664855957 147.8350067138672,-2.431999921798706 C125.75399780273438,-5.991000175476074 103.4260025024414,-5.308000087738037 82.87899780273438,-2.066999912261963 C78.99299621582031,-0.6179999709129333 75.22899627685547,1.055999994277954 71.5780029296875,2.940999984741211z"></path></g><g opacity="1" transform="matrix(1,0,0,1,264.6919860839844,54.55699920654297)"><path fill="rgb(255,229,242)" fill-opacity="1" d=" M-82.87899780273438,2.8369998931884766 C-103.4260025024414,-0.40400001406669617 -125.75399780273438,-1.0880000591278076 -147.8350067138672,2.4709999561309814 C-137.26499938964844,-1.1460000276565552 -125.27200317382812,-3.1029999256134033 -111.76799774169922,-2.808000087738037 C-101.54399871826172,-2.5840001106262207 -91.9020004272461,-0.5210000276565552 -82.87899780273438,2.8369998931884766z M82.87899780273438,2.8369998931884766 C103.4260025024414,-0.40400001406669617 125.75399780273438,-1.0880000591278076 147.8350067138672,2.4709999561309814 C137.26499938964844,-1.1460000276565552 125.27200317382812,-3.1029999256134033 111.76799774169922,-2.808000087738037 C101.54399871826172,-2.5840001106262207 91.9020004272461,-0.5210000276565552 82.87899780273438,2.8369998931884766z"></path></g><g opacity="1" transform="matrix(1,0,0,1,264.6919860839844,178.91099548339844)"><path fill="rgb(254,74,181)" fill-opacity="1" d=" M0,-40.84700012207031 C-19.606000900268555,-59.98400115966797 -96.9520034790039,-84.33999633789062 -149.79100036621094,-46.090999603271484 C-212.6060028076172,-0.6179999709129333 -186.98500061035156,68.16200256347656 -186.02000427246094,70.45999908447266 C-190.12899780273438,63.284000396728516 -193.66900634765625,56.35499954223633 -196.68899536132812,49.6619987487793 C-200.2169952392578,24.610000610351562 -198.06300354003906,-17.999000549316406 -154.3459930419922,-49.63800048828125 C-102.72000122070312,-87.00399780273438 -28.4060001373291,-66.38200378417969 -3.614000082015991,-47.327999114990234 C-1.3370000123977661,-43.4630012512207 -0.11100000143051147,-41.058998107910156 0,-40.84700012207031z M0,-40.84700012207031 C19.606000900268555,-59.98400115966797 96.9520034790039,-84.33999633789062 149.79100036621094,-46.090999603271484 C212.6060028076172,-0.6179999709129333 186.98500061035156,68.16200256347656 186.02000427246094,70.45999908447266 C190.12899780273438,63.284000396728516 193.66900634765625,56.35499954223633 196.68899536132812,49.6619987487793 C200.2169952392578,24.610000610351562 198.06300354003906,-17.999000549316406 154.3459930419922,-49.63800048828125 C102.72000122070312,-87.00399780273438 28.4060001373291,-66.38200378417969 3.614000082015991,-47.327999114990234 C1.3370000123977661,-43.4630012512207 0.11100000143051147,-41.058998107910156 0,-40.84700012207031z"></path></g></g><g style="display: block;" transform="matrix(1.0601170063018799,-0.38441768288612366,0.3277108073234558,0.9854585528373718,237.48291015625,369.461669921875)" opacity="1"><g opacity="1" transform="matrix(1,0,0,1,0,0)"><path fill="rgb(196,0,108)" fill-opacity="1" d=" M-35.62699890136719,-91.58999633789062 C4.349999904632568,-92.98600006103516 57.534000396728516,-16.069000244140625 81.00199890136719,38.15999984741211 C84.39800262451172,46.00699996948242 82.61399841308594,48.39699935913086 74.11699676513672,47.45100021362305 C57.7239990234375,45.625999450683594 31.711000442504883,41.61800003051758 22.18199920654297,45.41899871826172 C12.289999961853027,49.3650016784668 -1.8040000200271606,66.3489990234375 -21.466999053955078,86.44400024414062 C-29.974000930786133,95.13700103759766 -34.55400085449219,92.58899688720703 -31.54599952697754,80.80400085449219 C-16.488000869750977,21.809999465942383 -22.243999481201172,-12.781999588012695 -33.948001861572266,-37.24300003051758 C-35.361000061035156,-40.19599914550781 -39.680999755859375,-39.83599853515625 -40.542999267578125,-36.678001403808594 C-45.71900177001953,-17.714000701904297 -51.55099868774414,29.55900001525879 -50.452999114990234,42.71900177001953 C-59.194000244140625,25.850000381469727 -75.697998046875,-8.3100004196167 -82.62100219726562,-27.81800079345703 C-73.33399963378906,-63.68899917602539 -57.444000244140625,-90.8280029296875 -35.62699890136719,-91.58999633789062z"></path></g></g><g style="display: block;" transform="matrix(1.0601170063018799,-0.38441768288612366,0.3277108073234558,0.9854585528373718,285.0616455078125,293.0683898925781)" opacity="1"><g opacity="1" transform="matrix(1,0,0,1,0,0)"><path fill="rgb(196,0,108)" fill-opacity="1" d=" M-30.533000946044922,23.368999481201172 C0.5960000157356262,45.31700134277344 38.566001892089844,75.06700134277344 49.21699905395508,48.944000244140625 C61.604000091552734,22.315000534057617 66.39600372314453,-4.35699987411499 68.14199829101562,-31.343000411987305 C69.88800048828125,-58.32899856567383 20.67300033569336,-62.32899856567383 -21.732999801635742,-57.24599838256836 C-60.7239990234375,-52.571998596191406 -67.90499877929688,-36.12099838256836 -68.177001953125,-26.611000061035156 C-68.56999969482422,-12.859000205993652 -57.30099868774414,4.495999813079834 -30.533000946044922,23.368999481201172z"></path></g></g><g style="display: block;" transform="matrix(0.934201717376709,-0.03051730804145336,0.031995341181755066,0.9794475436210632,268.5299987792969,309.010009765625)" opacity="1"><g opacity="1" transform="matrix(1,0,0,1,0,0)"><path fill="rgb(196,0,108)" fill-opacity="1" d=" M166.5850067138672,21.69700050354004 C122.65499877929688,21.69700050354004 -115,13.038000106811523 -157.5709991455078,18.479000091552734 C-164.0570068359375,10.979999542236328 -180.3489990234375,-11.684000015258789 -184.8979949951172,-18.479000091552734 C-163.0469970703125,-18.479000091552734 168.947998046875,-18.638999938964844 196.14300537109375,-18.638999938964844 C196.14300537109375,-18.638999938964844 166.5850067138672,21.69700050354004 166.5850067138672,21.69700050354004z"></path></g></g><g style="display: none;"><g><path></path><path stroke-linecap="round" stroke-linejoin="round" fill-opacity="0"></path></g></g><g style="display: none;"><g><path stroke-linecap="round" stroke-linejoin="round" fill-opacity="0"></path></g></g><g style="display: block;" transform="matrix(1,0,0,1,260.01300048828125,267.4700012207031)" opacity="1"><g opacity="1" transform="matrix(1,0,0,1,0,0)"><path fill="url(#__lottie_element_13377)" fill-opacity="1" d=" M-226.38600158691406,-45.92300033569336 C-215.2270050048828,-15.619999885559082 -191.88999938964844,20.229999542236328 -172.16400146484375,45.92300033569336 C-122.60800170898438,45.92300033569336 126.37999725341797,45.92300033569336 175.41400146484375,45.92300033569336 C195.13999938964844,20.229999542236328 217.7270050048828,-15.619999885559082 228.88600158691406,-45.92300033569336 C184.83900451660156,-45.92300033569336 -183.97000122070312,-45.92300033569336 -226.38600158691406,-45.92300033569336z"></path><path stroke-linecap="round" stroke-linejoin="round" fill-opacity="0" stroke="rgb(196,132,39)" stroke-opacity="1" stroke-width="8" d=" M-226.38600158691406,-45.92300033569336 C-215.2270050048828,-15.619999885559082 -191.88999938964844,20.229999542236328 -172.16400146484375,45.92300033569336 C-122.60800170898438,45.92300033569336 126.37999725341797,45.92300033569336 175.41400146484375,45.92300033569336 C195.13999938964844,20.229999542236328 217.7270050048828,-15.619999885559082 228.88600158691406,-45.92300033569336 C184.83900451660156,-45.92300033569336 -183.97000122070312,-45.92300033569336 -226.38600158691406,-45.92300033569336z"></path></g></g><g style="display: none;"><g><path stroke-linecap="round" stroke-linejoin="round" fill-opacity="0"></path></g></g><g style="display: block;" transform="matrix(1,0,0,1,445.07501220703125,267.5360107421875)" opacity="0.66"><g opacity="1" transform="matrix(1,0,0,1,0,0)"><path fill="url(#__lottie_element_13383)" fill-opacity="1" d=" M6.11299991607666,-50.40299987792969 C-5.046000003814697,-17.42099952697754 -26.514999389648438,21.3439998626709 -46.24100112915039,49.308998107910156 C-46.24100112915039,49.308998107910156 -12.111000061035156,50.400001525878906 -12.111000061035156,50.400001525878906 C-10.050000190734863,50.465999603271484 -8.097000122070312,49.50299835205078 -6.892000198364258,47.83000183105469 C11.27400016784668,22.594999313354492 34.50699996948242,-13.73900032043457 46.01499938964844,-44.67499923706055 C46.87200164794922,-46.97800064086914 45.1879997253418,-49.435001373291016 42.73099899291992,-49.49599838256836 C42.73099899291992,-49.49599838256836 6.11299991607666,-50.40299987792969 6.11299991607666,-50.40299987792969z"></path></g></g><g style="display: none;"><g><path stroke-linecap="round" stroke-linejoin="round" fill-opacity="0"></path></g></g><g clip-path="url(#__lottie_element_13325)" style="display: none;"><g style="display: none;"><g><path stroke-linecap="round" stroke-linejoin="round" fill-opacity="0"></path><path fill="url(#__lottie_element_13363)"></path></g></g><g style="display: none;"><g><path stroke-linecap="round" stroke-linejoin="round" fill-opacity="0"></path><path fill="url(#__lottie_element_13370)"></path></g></g><g style="display: none;"><g><path></path></g><g><path></path></g><g><path></path></g><g><path></path></g><g><path></path></g><g><path stroke-linecap="round" stroke-linejoin="round" fill-opacity="0"></path></g><g><path stroke-linecap="round" stroke-linejoin="round" fill-opacity="0"></path></g></g><g style="display: none;"><g><path></path></g><g><path></path></g><g><path></path></g><g><path></path></g><g><path></path></g><g><path stroke-linecap="round" stroke-linejoin="round" fill-opacity="0"></path></g><g><path stroke-linecap="round" stroke-linejoin="round" fill-opacity="0"></path></g></g><g style="display: none;"><g><path stroke-linecap="round" stroke-linejoin="round" fill-opacity="0"></path></g></g><g style="display: none;"><g><path fill="url(#__lottie_element_13355)"></path><path stroke-linecap="round" stroke-linejoin="round" fill-opacity="0"></path></g><g><path></path></g></g><g style="display: none;"><g><path fill="url(#__lottie_element_13351)"></path></g></g><g style="display: none;"><g><path fill="url(#__lottie_element_13341)"></path><path stroke-linecap="round" stroke-linejoin="round" fill-opacity="0"></path></g></g><g style="display: none;"><g><path stroke-linecap="round" stroke-linejoin="round" fill-opacity="0"></path></g><g><path stroke-linecap="round" stroke-linejoin="round" fill-opacity="0"></path></g><g><path></path></g><g><path></path></g><g><path fill="url(#__lottie_element_13347)"></path></g><g><path stroke-linecap="round" stroke-linejoin="round" fill-opacity="0"></path></g><g><path></path></g><g><path></path></g></g><g style="display: none;"><g><path></path><path stroke-linecap="round" stroke-linejoin="round" fill-opacity="0"></path></g><g><path></path><path stroke-linecap="round" stroke-linejoin="round" fill-opacity="0"></path></g><g><path stroke-linecap="round" stroke-linejoin="round" fill-opacity="0"></path></g><g><path stroke-linecap="round" stroke-linejoin="round" fill-opacity="0"></path></g></g><g style="display: none;"><g><path fill="url(#__lottie_element_13333)"></path><path stroke-linecap="round" stroke-linejoin="round" fill-opacity="0"></path></g></g><g style="display: none;"><g><g><path></path></g><g><path stroke-linecap="round" stroke-linejoin="round" fill-opacity="0"></path></g></g><g><path fill="url(#__lottie_element_13336)"></path></g></g></g><g style="display: block;" transform="matrix(0.9578225016593933,-0.2873605191707611,0.2873605191707611,0.9578225016593933,132.0711212158203,386.3909606933594)" opacity="1"><g opacity="1" transform="matrix(1,0,0,1,0,0)"><path stroke-linecap="round" stroke-linejoin="round" fill-opacity="0" stroke="rgb(196,132,39)" stroke-opacity="1" stroke-width="16" d=" M49.68299865722656,63.082000732421875 C44.80099868774414,58.8129997253418 39.57899856567383,53.92100143432617 34.465999603271484,49.130001068115234 C21.844999313354492,37.30699920654297 10.946000099182129,27.097000122070312 4.267000198364258,24.976999282836914 C-5.2220001220703125,21.96500015258789 -29.64299964904785,24.913000106811523 -49.68299865722656,29.864999771118164 C-33.82600021362305,8.097999572753906 -10.54800033569336,-30.996000289916992 -2.571000099182129,-63.082000732421875 C-2.571000099182129,-63.082000732421875 41.4900016784668,-62.409000396728516 41.4900016784668,-62.409000396728516 C35.439998626708984,-23.243999481201172 42.68199920654297,23.398000717163086 49.68299865722656,63.082000732421875z"></path><path fill="url(#__lottie_element_13314)" fill-opacity="1" d=" M49.68299865722656,63.082000732421875 C44.80099868774414,58.8129997253418 39.57899856567383,53.92100143432617 34.465999603271484,49.130001068115234 C21.844999313354492,37.30699920654297 10.946000099182129,27.097000122070312 4.267000198364258,24.976999282836914 C-5.2220001220703125,21.96500015258789 -29.64299964904785,24.913000106811523 -49.68299865722656,29.864999771118164 C-33.82600021362305,8.097999572753906 -10.54800033569336,-30.996000289916992 -2.571000099182129,-63.082000732421875 C-2.571000099182129,-63.082000732421875 41.4900016784668,-62.409000396728516 41.4900016784668,-62.409000396728516 C35.439998626708984,-23.243999481201172 42.68199920654297,23.398000717163086 49.68299865722656,63.082000732421875z"></path></g></g><g style="display: block;" transform="matrix(0.9578225016593933,-0.2873605191707611,0.2873605191707611,0.9578225016593933,251.14556884765625,344.001220703125)" opacity="1"><g opacity="1" transform="matrix(0.9999992251396179,-0.0012566366931423545,0.0012566366931423545,0.9999992251396179,0,0)"><path stroke-linecap="round" stroke-linejoin="round" fill-opacity="0" stroke="rgb(196,132,39)" stroke-opacity="1" stroke-width="16" d=" M-46.76300048828125,69.875 C-34.36600112915039,14.331000328063965 -49.141998291015625,-33.91999816894531 -56.54100036621094,-56.75 C-56.54100036621094,-56.75 -41.069000244140625,-69.875 -41.069000244140625,-69.875 C-12.361000061035156,-53.64699935913086 33.946998596191406,-5.538000106811523 56.54100036621094,37.64400100708008 C52.5620002746582,37.178001403808594 47.67300033569336,36.44900131225586 42.61600112915039,35.694000244140625 C22.667999267578125,32.715999603271484 7.959000110626221,30.783000946044922 0.34700000286102295,33.03900146484375 C-6.5879998207092285,35.09299850463867 -13.793999671936035,41.55699920654297 -23.768999099731445,50.500999450683594 C-30.18000030517578,56.250999450683594 -37.7859992980957,63.071998596191406 -46.76300048828125,69.875z"></path><path fill="url(#__lottie_element_13321)" fill-opacity="1" d=" M-46.76300048828125,69.875 C-34.36600112915039,14.331000328063965 -49.141998291015625,-33.91999816894531 -56.54100036621094,-56.75 C-56.54100036621094,-56.75 -41.069000244140625,-69.875 -41.069000244140625,-69.875 C-12.361000061035156,-53.64699935913086 33.946998596191406,-5.538000106811523 56.54100036621094,37.64400100708008 C52.5620002746582,37.178001403808594 47.67300033569336,36.44900131225586 42.61600112915039,35.694000244140625 C22.667999267578125,32.715999603271484 7.959000110626221,30.783000946044922 0.34700000286102295,33.03900146484375 C-6.5879998207092285,35.09299850463867 -13.793999671936035,41.55699920654297 -23.768999099731445,50.500999450683594 C-30.18000030517578,56.250999450683594 -37.7859992980957,63.071998596191406 -46.76300048828125,69.875z"></path></g></g><g style="display: block;" transform="matrix(0.9578225016593933,-0.2873605191707611,0.2873605191707611,0.9578225016593933,-77.03227233886719,59.20872497558594)" opacity="1"><g opacity="0.8" transform="matrix(1,0,0,1,179.1699981689453,349.1090087890625)"><path fill="rgb(153,86,5)" fill-opacity="1" d=" M81.71600341796875,-0.052000001072883606 C45.33399963378906,-44.518001556396484 15.157999992370605,-59.875 10.121000289916992,-60.715999603271484 C6.427000045776367,-57.86199951171875 -7.927000045776367,-42.66400146484375 -11.53600025177002,-41.68000030517578 C-9.234999656677246,-33.67300033569336 -1.312999963760376,-0.4350000023841858 0.5870000123977661,10.232999801635742 C3.119999885559082,3.802000045776367 13.842000007629395,-8.666999816894531 18.94099998474121,-8.944000244140625 C33.92900085449219,-9.756999969482422 70.15799713134766,8.067000389099121 105.1969985961914,32.39899826049805 C97.06800079345703,20.81100082397461 91.21399688720703,10.472000122070312 81.71600341796875,-0.052000001072883606z"></path></g><g opacity="0.15" transform="matrix(1,0,0,1,203.3300018310547,373.3550109863281)"><path fill="rgb(206,117,0)" fill-opacity="1" d=" M-24.003999710083008,-48.060001373291016 C-6.019999980926514,-37.34199905395508 2.756999969482422,21.704999923706055 -1.6330000162124634,54.05799865722656 C7.611000061035156,48.03200149536133 10.970000267028809,43.33100128173828 22.36199951171875,32.349998474121094 C32.31100082397461,22.760000228881836 -6.368000030517578,-20.832000732421875 -2.447000026702881,-47.9630012512207 C-1.8559999465942383,-52.05099868774414 -6.013999938964844,-55.20000076293945 -9.847000122070312,-53.65999984741211 C-18.26300048828125,-50.277000427246094 -24.003999710083008,-48.060001373291016 -24.003999710083008,-48.060001373291016z"></path></g><g opacity="0.15" transform="matrix(1,0,0,1,130.08599853515625,373.3529968261719)"><path fill="rgb(206,117,0)" fill-opacity="1" d="M0 0"></path></g><g opacity="0.33" transform="matrix(1,0,0,1,254.50900268554688,380.0050048828125)"><path fill="rgb(255,255,255)" fill-opacity="1" d=" M-5.466000080108643,18.856000900268555 C-28.990999221801758,-9.380999565124512 -22.520000457763672,-20.636999130249023 -17.72800064086914,-22.31100082397461 C-12.935999870300293,-23.985000610351562 11.302000045776367,3.438999891281128 22.33099937438965,22.384000778198242 C10.121000289916992,18.509000778198242 -5.466000080108643,18.856000900268555 -5.466000080108643,18.856000900268555z"></path></g><g opacity="0.33" transform="matrix(1,0,0,1,92.03299713134766,373.81500244140625)"><path fill="rgb(255,255,255)" fill-opacity="1" d="M0 0"></path></g><g opacity="1" transform="matrix(1,0,0,1,146.43699645996094,386.2040100097656)"><path stroke-linecap="round" stroke-linejoin="round" fill-opacity="0" stroke="rgb(255,252,0)" stroke-opacity="1" stroke-width="6" d="M0 0"></path></g><g opacity="1" transform="matrix(1,0,0,1,192.68600463867188,394.70001220703125)"><path stroke-linecap="round" stroke-linejoin="round" fill-opacity="0" stroke="rgb(255,252,0)" stroke-opacity="1" stroke-width="6" d=" M-1.027999997138977,-31.954999923706055 C1.1970000267028809,-12.470999717712402 2.2139999866485596,16.518999099731445 -1.0379999876022339,31.954999923706055"></path></g></g><g style="display: block;" transform="matrix(0.9578225016593933,-0.2873605191707611,0.2873605191707611,0.9578225016593933,-77.03271484375,59.20838928222656)" opacity="1"><g opacity="0.8" transform="matrix(1,0,0,1,179.1699981689453,349.1090087890625)"><path fill="rgb(153,86,5)" fill-opacity="1" d=" M-25.812999725341797,1.812000036239624 C-25.917999267578125,-8.083999633789062 -24.79800033569336,-34.64699935913086 -23.695999145507812,-43.9900016784668 C-28.60300064086914,-45.14899826049805 -40.805999755859375,-46.277000427246094 -40.805999755859375,-46.277000427246094 C-62.81700134277344,-47.290000915527344 -73.30699920654297,-48.797000885009766 -81.42400360107422,-44.04499816894531 C-84.7239990234375,-36.2760009765625 -101.19999694824219,4.214000225067139 -105.1969985961914,11.753999710083008 C-83.74299621582031,-5.8429999351501465 -37.95500183105469,-16.62299919128418 -25.812999725341797,1.812000036239624z"></path></g><g opacity="0.15" transform="matrix(1,0,0,1,203.3300018310547,373.3550109863281)"><path fill="rgb(206,117,0)" fill-opacity="1" d="M0 0"></path></g><g opacity="0.15" transform="matrix(1,0,0,1,130.08599853515625,373.3529968261719)"><path fill="rgb(206,117,0)" fill-opacity="1" d=" M16.750999450683594,-55.395999908447266 C-3.125,-34.23899841308594 -16.358999252319336,13.343000411987305 -17.54199981689453,26.986000061035156 C-14.140999794006348,32.952999114990234 -3.2920000553131104,41.90299987792969 13.821999549865723,56.4900016784668 C3.0899999141693115,21.393999099731445 4.204999923706055,-40.11000061035156 17.54199981689453,-54.1870002746582 C13.770999908447266,-58.53099822998047 16.750999450683594,-55.395999908447266 16.750999450683594,-55.395999908447266z"></path></g><g opacity="0.33" transform="matrix(1,0,0,1,254.50900268554688,380.0050048828125)"><path fill="rgb(255,255,255)" fill-opacity="1" d="M0 0"></path></g><g opacity="0.33" transform="matrix(1,0,0,1,92.03299713134766,373.81500244140625)"><path fill="rgb(255,255,255)" fill-opacity="1" d=" M-21.35700035095215,26.26799964904785 C-12.59000015258789,5.359000205993652 13.57800006866455,-26.94700050354004 19.75,-26.256999969482422 C25.922000885009766,-25.566999435424805 12.722000122070312,-2.8289999961853027 6.955999851226807,23.035999298095703 C-5.317999839782715,23.21299934387207 -21.35700035095215,26.26799964904785 -21.35700035095215,26.26799964904785z"></path></g><g opacity="1" transform="matrix(1,0,0,1,146.43699645996094,386.2040100097656)"><path stroke-linecap="round" stroke-linejoin="round" fill-opacity="0" stroke="rgb(255,252,0)" stroke-opacity="1" stroke-width="6" d=" M-3.931999921798706,-38.72700119018555 C-4.40500020980835,-16.509000778198242 0.7319999933242798,22.042999267578125 3.9630000591278076,38.72700119018555"></path></g><g opacity="1" transform="matrix(1,0,0,1,192.68600463867188,394.70001220703125)"></g></g><g style="display: block;" transform="matrix(1,0,0,1,259.0379943847656,228.42999267578125)" opacity="1"><g opacity="1" transform="matrix(1,0,0,1,0,0)"><path stroke-linecap="round" stroke-linejoin="round" fill-opacity="0" stroke="rgb(255,252,146)" stroke-opacity="1" stroke-width="6" d=" M-186.03799438476562,0.296999990940094 C-186.03799438476562,0.296999990940094 186.03799438476562,-0.296999990940094 186.03799438476562,-0.296999990940094"></path></g></g><g style="display: block;" transform="matrix(0.934201717376709,-0.03051730804145336,0.031995341181755066,0.9794475436210632,10.5506591796875,8.790573120117188)" opacity="1"><g opacity="0.66" transform="matrix(1,0,0,1,140.2790069580078,225.63299560546875)"><path fill="url(#__lottie_element_13306)" fill-opacity="1" d=" M-83.09400177001953,0 C-83.09400177001953,0 83.09400177001953,0 83.09400177001953,0"></path><path stroke-linecap="round" stroke-linejoin="round" fill-opacity="0" stroke="rgb(255,252,0)" stroke-opacity="1" stroke-width="8" d=" M-83.09400177001953,0 C-83.09400177001953,0 83.09400177001953,0 83.09400177001953,0"></path></g><g opacity="0.44" transform="matrix(1,0,0,1,132.3699951171875,259.8890075683594)"><path fill="rgb(153,86,5)" fill-opacity="1" d=" M89.38700103759766,-33.8849983215332 C73.58399963378906,-34.28300094604492 -89.38700103759766,-34.68000030517578 -89.38700103759766,-34.68000030517578 C-37.07400131225586,77.86699676513672 66.18699645996094,35.10599899291992 89.38700103759766,-33.8849983215332z"></path></g></g><g style="display: block;" transform="matrix(0.934201717376709,-0.030517298728227615,0.031995344907045364,0.9794475436210632,319.02166748046875,266.66925048828125)" opacity="1"><g opacity="1" transform="matrix(1,0,0,1,0,0)"><path fill="url(#__lottie_element_13302)" fill-opacity="1" d=" M15.888999938964844,49.67399978637695 C17.481000900268555,22.343000411987305 15.093999862670898,-27.114999771118164 5.145999908447266,-49.67399978637695 C-7.985000133514404,-50.108001708984375 -16.341999053955078,-50.54199981689453 -16.341999053955078,-50.54199981689453 C-11.168999671936035,-24.945999145507812 0.3709999918937683,31.886999130249023 -4.802000045776367,50.54199981689453 C3.9519999027252197,50.54199981689453 15.888999938964844,49.67399978637695 15.888999938964844,49.67399978637695z"></path></g></g><g style="display: block;" transform="matrix(0.9578225016593933,-0.2873605191707611,0.2873605191707611,0.9578225016593933,163.58700561523438,271.0790100097656)" opacity="1"><g opacity="1" transform="matrix(1,0,0,1,0,0)"><path fill="url(#__lottie_element_13292)" fill-opacity="1" d=" M4.953999996185303,-37.527000427246094 C40.13999938964844,-36.88100051879883 58.270999908447266,-59.34400177001953 73.32499694824219,-75.13099670410156 C88.37899780273438,-90.91799926757812 125.80599975585938,-104.86599731445312 133.81399536132812,-89.41100311279297 C141.82200622558594,-73.95600128173828 157.8249969482422,-33.9640007019043 152.7449951171875,13.6850004196167 C147.6649932861328,61.33399963378906 139.94500732421875,102.0260009765625 120.5510025024414,96.8270034790039 C101.15699768066406,91.62799835205078 51.37799835205078,45.25 6.019000053405762,38.98400115966797 C-51.98699951171875,30.97100067138672 -122.08599853515625,100.54399871826172 -140.00399780273438,87.68299865722656 C-157.9219970703125,74.8219985961914 -156.31100463867188,-0.22100000083446503 -146.43299865722656,-38.22800064086914 C-133.45700073242188,-88.15299987792969 -129.83999633789062,-97.5260009765625 -110.9530029296875,-97.27200317382812 C-74.76000213623047,-96.78500366210938 -51.55099868774414,-38.56399917602539 4.953999996185303,-37.527000427246094z"></path><path stroke-linecap="round" stroke-linejoin="round" fill-opacity="0" stroke="rgb(196,132,39)" stroke-opacity="1" stroke-width="8" d=" M4.953999996185303,-37.527000427246094 C40.13999938964844,-36.88100051879883 58.270999908447266,-59.34400177001953 73.32499694824219,-75.13099670410156 C88.37899780273438,-90.91799926757812 125.80599975585938,-104.86599731445312 133.81399536132812,-89.41100311279297 C141.82200622558594,-73.95600128173828 157.8249969482422,-33.9640007019043 152.7449951171875,13.6850004196167 C147.6649932861328,61.33399963378906 139.94500732421875,102.0260009765625 120.5510025024414,96.8270034790039 C101.15699768066406,91.62799835205078 51.37799835205078,45.25 6.019000053405762,38.98400115966797 C-51.98699951171875,30.97100067138672 -122.08599853515625,100.54399871826172 -140.00399780273438,87.68299865722656 C-157.9219970703125,74.8219985961914 -156.31100463867188,-0.22100000083446503 -146.43299865722656,-38.22800064086914 C-133.45700073242188,-88.15299987792969 -129.83999633789062,-97.5260009765625 -110.9530029296875,-97.27200317382812 C-74.76000213623047,-96.78500366210938 -51.55099868774414,-38.56399917602539 4.953999996185303,-37.527000427246094z"></path></g></g><g style="display: block;" transform="matrix(0.9578225016593933,-0.2873605191707611,0.2873605191707611,0.9578225016593933,-77.03199768066406,59.208251953125)" opacity="1"><g opacity="0.2" transform="matrix(1,0,0,1,231.91299438476562,335.5989990234375)"><path stroke-linecap="round" stroke-linejoin="round" fill-opacity="0" stroke="rgb(255,251,0)" stroke-opacity="1" stroke-width="8" d=" M28.761999130249023,16.579999923706055 C12.298999786376953,5.698999881744385 -7.9670000076293945,-7.901000022888184 -28.761999130249023,-16.579999923706055"></path></g><g opacity="0.2" transform="matrix(1,0,0,1,105.29000091552734,330.06500244140625)"><path stroke-linecap="round" stroke-linejoin="round" fill-opacity="0" stroke="rgb(255,251,0)" stroke-opacity="1" stroke-width="8" d=" M32.04100036621094,-15.118000030517578 C27.774999618530273,-13.791999816894531 23.503999710083008,-12.36299991607666 19.298999786376953,-10.666000366210938 C0.8700000047683716,-3.2279999256134033 -12.791000366210938,5.235000133514404 -32.04100036621094,15.118000030517578"></path></g><g opacity="0.33" transform="matrix(1,0,0,1,238.33399963378906,256.9280090332031)"><path fill="rgb(252,203,29)" fill-opacity="1" d=" M30.525999069213867,40.891998291015625 C36.45600128173828,22.208999633789062 44.2599983215332,1.1770000457763672 29.71500015258789,-37.28099822998047 C15.170000076293945,-75.73899841308594 -8.104999542236328,-12.935999870300293 -29.084999084472656,-9.038000106811523 C-47.51900100708008,-5.61299991607666 -34.87300109863281,21.496999740600586 -14.050000190734863,13.604000091552734 C4.1570000648498535,6.703000068664551 6.869999885559082,0.13199999928474426 10.90999984741211,32.96500015258789 C12.980999946594238,49.79600143432617 25.570999145507812,56.50299835205078 30.525999069213867,40.891998291015625z"></path></g><g opacity="0.33" transform="matrix(1,0,0,1,110.00800323486328,250.0260009765625)"><path fill="rgb(252,203,29)" fill-opacity="1" d=" M31.500999450683594,-11.864999771118164 C-2.5829999446868896,-30.10099983215332 -21.023000717163086,-56.17599868774414 -28.413000106811523,-36.8489990234375 C-35.803001403808594,-17.52199935913086 -43.70800018310547,38.59600067138672 -33.22700119018555,43.17900085449219 C-22.746000289916992,47.762001037597656 -21.447999954223633,18.292999267578125 -11.906000137329102,20.10700035095215 C-3.680000066757202,21.67099952697754 -0.06499999761581421,32.70600128173828 25.354000091552734,39.66899871826172 C50.28099822998047,46.49700164794922 31.500999450683594,-11.864999771118164 31.500999450683594,-11.864999771118164z"></path></g><g opacity="0.66" transform="matrix(1,0,0,1,41.95800018310547,267.1839904785156)"><path fill="url(#__lottie_element_13298)" fill-opacity="1" d=" M-1.8480000495910645,-75.65599822998047 C-8.008999824523926,-61.4630012512207 -15.720999717712402,-35.26100158691406 -19.083999633789062,-12.315999984741211 C-24.725000381469727,26.173999786376953 -24.80299949645996,71.89199829101562 -10.892999649047852,88.7229995727539 C-13.425999641418457,77.88400268554688 -4.619999885559082,68.30000305175781 1.375,66.20500183105469 C-16.041000366210938,-15.72599983215332 10.279000282287598,-80.32099914550781 22.645999908447266,-87.71299743652344 C3.240000009536743,-92.43900299072266 -0.2939999997615814,-79.23600006103516 -1.8480000495910645,-75.65599822998047z"></path></g><g opacity="0.67" transform="matrix(1,0,0,1,300.21600341796875,262.4809875488281)"><path stroke-linecap="round" stroke-linejoin="round" fill-opacity="0" stroke="rgb(255,255,255)" stroke-opacity="1" stroke-width="10.582" d=" M-7.808000087738037,-72.33599853515625 C0.8600000143051147,-59.641998291015625 17.683000564575195,5.348999977111816 0.10700000077486038,72.33599853515625"></path></g><g opacity="0.33" transform="matrix(1,0,0,1,90.79199981689453,256.50799560546875)"><path fill="rgb(252,203,29)" fill-opacity="1" d=" M-8.199000358581543,-15.526000022888184 C-14.295000076293945,3.492000102996826 -13.550000190734863,25.9060001373291 -10.689000129699707,28.038000106811523 C-4.492000102996826,32.65700149536133 3.2690000534057617,6.172999858856201 10.239999771118164,-8.368000030517578 C20.163000106811523,-29.06999969482422 -1.0800000429153442,-37.73500061035156 -8.199000358581543,-15.526000022888184z"></path></g><g opacity="0.33" transform="matrix(1,0,0,1,258.14599609375,266.4649963378906)"><path fill="rgb(252,203,29)" fill-opacity="1" d=" M10.859999656677246,10.633000373840332 C7.326000213623047,-9.02299976348877 -3.8440001010894775,-28.4689998626709 -7.369999885559082,-29.01099967956543 C-15.008999824523926,-30.184999465942383 -9.444999694824219,-3.1549999713897705 -8.782999992370605,12.956999778747559 C-7.840000152587891,35.89500045776367 14.987000465393066,33.58700180053711 10.859999656677246,10.633000373840332z"></path></g></g><g style="display: block;" transform="matrix(0.9578225016593933,-0.2873605191707611,0.2873605191707611,0.9578225016593933,-77.03230285644531,59.20726013183594)" opacity="1"><g opacity="1" transform="matrix(1,0,0,1,243.9499969482422,334.94500732421875)"><path fill="rgb(252,223,57)" fill-opacity="1" d=" M-50.8489990234375,-27.374000549316406 C-32.39699935913086,-24.246000289916992 54.513999938964844,19.54199981689453 52.74300003051758,25.121000289916992 C48.50899887084961,38.46200180053711 5.943999767303467,-11.225000381469727 -52.76900100708008,-25.083999633789062 C-52.76900100708008,-25.083999633789062 -50.8489990234375,-27.374000549316406 -50.8489990234375,-27.374000549316406z"></path><path stroke-linecap="round" stroke-linejoin="round" fill-opacity="0" stroke="rgb(153,86,5)" stroke-opacity="1" stroke-width="8" d=" M-50.8489990234375,-27.374000549316406 C-32.39699935913086,-24.246000289916992 54.513999938964844,19.54199981689453 52.74300003051758,25.121000289916992 C48.50899887084961,38.46200180053711 5.943999767303467,-11.225000381469727 -52.76900100708008,-25.083999633789062 C-52.76900100708008,-25.083999633789062 -50.8489990234375,-27.374000549316406 -50.8489990234375,-27.374000549316406z"></path></g><g opacity="1" transform="matrix(1,0,0,1,89.65699768066406,330.5119934082031)"><path fill="rgb(252,223,57)" fill-opacity="1" d=" M52.24399948120117,-24.183000564575195 C25.700000762939453,-17.93899917602539 -58.132999420166016,16.177000045776367 -54.94499969482422,23.32900047302246 C-51.75699996948242,30.481000900268555 0.42500001192092896,-9.244999885559082 55.03300094604492,-23.29800033569336 C55.03300094604492,-23.29800033569336 52.24399948120117,-24.183000564575195 52.24399948120117,-24.183000564575195z"></path><path stroke-linecap="round" stroke-linejoin="round" fill-opacity="0" stroke="rgb(153,86,5)" stroke-opacity="1" stroke-width="8" d=" M52.24399948120117,-24.183000564575195 C25.700000762939453,-17.93899917602539 -58.132999420166016,16.177000045776367 -54.94499969482422,23.32900047302246 C-51.75699996948242,30.481000900268555 0.42500001192092896,-9.244999885559082 55.03300094604492,-23.29800033569336 C55.03300094604492,-23.29800033569336 52.24399948120117,-24.183000564575195 52.24399948120117,-24.183000564575195z"></path></g><g opacity="1" transform="matrix(1,0,0,1,77.5009994506836,325.0840148925781)"><path stroke-linecap="round" stroke-linejoin="round" fill-opacity="0" stroke="rgb(255,252,0)" stroke-opacity="1" stroke-width="6" d=" M-47.84700012207031,21.97100067138672 C-45.016998291015625,14.668999671936035 -6.815999984741211,-3.9570000171661377 47.84700012207031,-21.97100067138672"></path></g><g opacity="1" transform="matrix(1,0,0,1,258.1510009765625,329.86700439453125)"><path stroke-linecap="round" stroke-linejoin="round" fill-opacity="0" stroke="rgb(255,252,0)" stroke-opacity="1" stroke-width="6" d=" M-42.803001403808594,-23.086999893188477 C-17.128000259399414,-14.460000038146973 37.50600051879883,15.348999977111816 42.803001403808594,23.086999893188477"></path></g></g><g style="display: block;" transform="matrix(0.9578225016593933,-0.2873605191707611,0.2873605191707611,0.9578225016593933,165.39100646972656,271.90899658203125)" opacity="1"><g opacity="1" transform="matrix(1,0,0,1,0,0)"><path fill="url(#__lottie_element_13284)" fill-opacity="1" d=" M-38.742000579833984,-2.9100000858306885 C-38.77899932861328,23.378999710083008 -36.000999450683594,46.34400177001953 -13.755999565124512,48.65299987792969 C8.038999557495117,50.915000915527344 8.592000007629395,50.564998626708984 18.23699951171875,47.03099822998047 C27.792999267578125,43.52899932861328 39.72999954223633,28.398000717163086 38.676998138427734,1.2710000276565552 C37.6150016784668,-26.0939998626709 36.06399917602539,-48.071998596191406 17.14900016784668,-49.314998626708984 C-2.109999895095825,-50.58100128173828 -5.432000160217285,-50.50199890136719 -18.636999130249023,-47.308998107910156 C-32.00899887084961,-44.07600021362305 -38.70399856567383,-30.055999755859375 -38.742000579833984,-2.9100000858306885z"></path><path stroke-linecap="round" stroke-linejoin="round" fill-opacity="0" stroke="rgb(196,132,39)" stroke-opacity="1" stroke-width="8" d=" M-38.742000579833984,-2.9100000858306885 C-38.77899932861328,23.378999710083008 -36.000999450683594,46.34400177001953 -13.755999565124512,48.65299987792969 C8.038999557495117,50.915000915527344 8.592000007629395,50.564998626708984 18.23699951171875,47.03099822998047 C27.792999267578125,43.52899932861328 39.72999954223633,28.398000717163086 38.676998138427734,1.2710000276565552 C37.6150016784668,-26.0939998626709 36.06399917602539,-48.071998596191406 17.14900016784668,-49.314998626708984 C-2.109999895095825,-50.58100128173828 -5.432000160217285,-50.50199890136719 -18.636999130249023,-47.308998107910156 C-32.00899887084961,-44.07600021362305 -38.70399856567383,-30.055999755859375 -38.742000579833984,-2.9100000858306885z"></path></g></g><g style="display: block;" transform="matrix(0.9578225016593933,-0.2873605191707611,0.2873605191707611,0.9578225016593933,-77.03178405761719,59.20751953125)" opacity="1"><g opacity="1" transform="matrix(1,0,0,1,0,0)"><g opacity="1" transform="matrix(1,0,0,1,171.322998046875,256.04901123046875)"><path fill="rgb(255,252,0)" fill-opacity="1" d=" M-28.965999603271484,-1.8250000476837158 C-28.834999084472656,10.01200008392334 -26.642000198364258,20.386999130249023 -10.118000030517578,21.764999389648438 C6.156000137329102,23.121999740600586 6.566999912261963,22.972999572753906 13.772000312805176,21.52199935913086 C20.92799949645996,20.08099937438965 29.833999633789062,13.390999794006348 28.900999069213867,1.0499999523162842 C27.958999633789062,-11.406000137329102 26.674999237060547,-21.42300033569336 12.435999870300293,-22.180999755859375 C-1.996000051498413,-22.950000762939453 -4.4770002365112305,-22.947999954223633 -14.303999900817871,-21.63599967956543 C-24.222000122070312,-20.312000274658203 -29.10099983215332,-14.057999610900879 -28.965999603271484,-1.8250000476837158z"></path></g><g opacity="1" transform="matrix(1,0,0,1,171.82200622558594,239.02000427246094)"><path stroke-linecap="round" stroke-linejoin="round" fill-opacity="0" stroke="rgb(253,253,157)" stroke-opacity="1" stroke-width="9.884" d=" M-17.716999053955078,0.47200000286102295 C-7.875,-0.9750000238418579 12.222000122070312,-0.5699999928474426 17.716999053955078,0.4339999854564667"></path></g></g><g opacity="0.66" transform="matrix(1,0,0,1,170.92599487304688,295.10198974609375)"><path fill="url(#__lottie_element_13287)" fill-opacity="1" d=" M-42.42900085449219,-33.03499984741211 C-38.678001403808594,-13.835000038146973 -26.145000457763672,0.7059999704360962 -0.4779999852180481,2.0929999351501465 C24.586999893188477,3.447999954223633 39.9119987487793,-15.642999649047852 42.41999816894531,-25.395000457763672 C43.435001373291016,0.9179999828338623 38.334999084472656,13.779000282287598 28.900999069213867,22.8439998626709 C21.930999755859375,29.541000366210938 12.541999816894531,33.529998779296875 -3.0169999599456787,32.986000061035156 C-43.36000061035156,31.575000762939453 -42.965999603271484,5.5370001792907715 -42.42900085449219,-33.03499984741211z"></path></g></g><g style="display: none;"><g><path stroke-linecap="round" stroke-linejoin="round" fill-opacity="0"></path></g></g><g style="display: none;"><g><path stroke-linecap="round" stroke-linejoin="round" fill-opacity="0"></path></g></g><g style="display: none;"><g><path stroke-linecap="round" stroke-linejoin="round" fill-opacity="0"></path></g></g><g style="display: none;"><g><path stroke-linecap="round" stroke-linejoin="round" fill-opacity="0"></path></g></g></g></g></svg>