<svg xmlns="http://www.w3.org/2000/svg" viewBox="0 0 512 512" width="512" height="512" style="width: 100%; height: 100%; transform: translate3d(0,0,0);" preserveAspectRatio="xMidYMid meet"><defs><clipPath id="__lottie_element_13422"><rect width="512" height="512" x="0" y="0"></rect></clipPath><linearGradient id="__lottie_element_13429" spreadMethod="pad" gradientUnits="userSpaceOnUse" x1="-29.43000030517578" y1="41.457000732421875" x2="16.759000778198242" y2="-42.709999084472656"><stop offset="0%" stop-color="rgb(70,146,175)"></stop><stop offset="57%" stop-color="rgb(133,188,209)"></stop><stop offset="100%" stop-color="rgb(196,231,243)"></stop></linearGradient><linearGradient id="__lottie_element_13430" spreadMethod="pad" gradientUnits="userSpaceOnUse" x1="-0.7990000247955322" y1="-7.793000221252441" x2="-0.7990000247955322" y2="-102.6449966430664"><stop offset="0%" stop-color="rgb(254,15,10)"></stop><stop offset="47%" stop-color="rgb(254,76,67)"></stop><stop offset="100%" stop-color="rgb(255,137,123)"></stop></linearGradient><linearGradient id="__lottie_element_13431" spreadMethod="pad" gradientUnits="userSpaceOnUse" x1="-0.7990000247955322" y1="17.179000854492188" x2="-0.7990000247955322" y2="-38.608001708984375"><stop offset="0%" stop-color="rgb(214,8,0)"></stop><stop offset="42%" stop-color="rgb(234,45,29)"></stop><stop offset="96%" stop-color="rgb(253,82,57)"></stop><stop offset="98%" stop-color="rgb(253,83,57)"></stop><stop offset="100%" stop-color="rgb(254,83,58)"></stop></linearGradient><linearGradient id="__lottie_element_13432" spreadMethod="pad" gradientUnits="userSpaceOnUse" x1="-0.843999981880188" y1="19.89699935913086" x2="-0.843999981880188" y2="-25.547000885009766"><stop offset="0%" stop-color="rgb(176,6,0)"></stop><stop offset="43%" stop-color="rgb(210,5,1)"></stop><stop offset="100%" stop-color="rgb(245,4,2)"></stop></linearGradient><linearGradient id="__lottie_element_13433" spreadMethod="pad" gradientUnits="userSpaceOnUse" x1="-23.363000869750977" y1="0.8769999742507935" x2="21.510000228881836" y2="0.8769999742507935"><stop offset="0%" stop-color="rgb(196,231,243)"></stop><stop offset="43%" stop-color="rgb(133,188,209)"></stop><stop offset="100%" stop-color="rgb(70,146,175)"></stop></linearGradient><linearGradient id="__lottie_element_13434" spreadMethod="pad" gradientUnits="userSpaceOnUse" x1="1.524999976158142" y1="10.270999908447266" x2="-3.5920000076293945" y2="-8.067000389099121"><stop offset="0%" stop-color="rgb(176,6,0)"></stop><stop offset="54%" stop-color="rgb(210,5,1)"></stop><stop offset="100%" stop-color="rgb(245,4,2)"></stop></linearGradient><linearGradient id="__lottie_element_13437" spreadMethod="pad" gradientUnits="userSpaceOnUse" x1="-0.289000004529953" y1="41.78300094604492" x2="-0.289000004529953" y2="-39.91899871826172"><stop offset="0%" stop-color="rgb(176,6,0)"></stop><stop offset="43%" stop-color="rgb(215,29,11)"></stop><stop offset="100%" stop-color="rgb(254,51,23)"></stop></linearGradient><linearGradient id="__lottie_element_13438" spreadMethod="pad" gradientUnits="userSpaceOnUse" x1="-0.289000004529953" y1="40.803001403808594" x2="-0.289000004529953" y2="-37.43899917602539"><stop offset="0%" stop-color="rgb(176,6,0)"></stop><stop offset="43%" stop-color="rgb(215,29,11)"></stop><stop offset="100%" stop-color="rgb(254,51,23)"></stop></linearGradient><linearGradient id="__lottie_element_13442" spreadMethod="pad" gradientUnits="userSpaceOnUse" x1="4989.44921875" y1="-10.829999923706055" x2="4989.44921875" y2="-99.375"><stop offset="0%" stop-color="rgb(48,48,51)"></stop><stop offset="52%" stop-color="rgb(31,31,32)"></stop><stop offset="85%" stop-color="rgb(14,14,14)"></stop></linearGradient><linearGradient id="__lottie_element_13443" spreadMethod="pad" gradientUnits="userSpaceOnUse" x1="4989.44921875" y1="31.170000076293945" x2="4989.44921875" y2="90.26100158691406"><stop offset="0%" stop-color="rgb(165,167,169)"></stop><stop offset="50%" stop-color="rgb(118,120,122)"></stop><stop offset="100%" stop-color="rgb(70,72,75)"></stop></linearGradient><linearGradient id="__lottie_element_13444" spreadMethod="pad" gradientUnits="userSpaceOnUse" x1="1.6710000038146973" y1="-15.829999923706055" x2="1.6710000038146973" y2="21.524999618530273"><stop offset="0%" stop-color="rgb(204,204,204)"></stop><stop offset="50%" stop-color="rgb(137,138,139)"></stop><stop offset="100%" stop-color="rgb(70,72,75)"></stop></linearGradient><linearGradient id="__lottie_element_13448" spreadMethod="pad" gradientUnits="userSpaceOnUse" x1="-0.14900000393390656" y1="-10.829999923706055" x2="-0.14900000393390656" y2="77.71399688720703"><stop offset="0%" stop-color="rgb(48,48,51)"></stop><stop offset="52%" stop-color="rgb(31,31,32)"></stop><stop offset="85%" stop-color="rgb(14,14,14)"></stop></linearGradient><linearGradient id="__lottie_element_13449" spreadMethod="pad" gradientUnits="userSpaceOnUse" x1="-0.14900000393390656" y1="31.170000076293945" x2="-0.14900000393390656" y2="-27.92099952697754"><stop offset="0%" stop-color="rgb(165,167,169)"></stop><stop offset="50%" stop-color="rgb(118,120,122)"></stop><stop offset="100%" stop-color="rgb(70,72,75)"></stop></linearGradient><linearGradient id="__lottie_element_13450" spreadMethod="pad" gradientUnits="userSpaceOnUse" x1="-0.14900000393390656" y1="-11.829999923706055" x2="-0.14900000393390656" y2="18.315000534057617"><stop offset="0%" stop-color="rgb(204,204,204)"></stop><stop offset="50%" stop-color="rgb(137,138,139)"></stop><stop offset="100%" stop-color="rgb(70,72,75)"></stop></linearGradient><linearGradient id="__lottie_element_13454" spreadMethod="pad" gradientUnits="userSpaceOnUse" x1="-0.5730000138282776" y1="10.104999542236328" x2="-0.5730000138282776" y2="-9.185999870300293"><stop offset="0%" stop-color="rgb(176,6,0)"></stop><stop offset="28%" stop-color="rgb(210,5,1)"></stop><stop offset="64%" stop-color="rgb(245,4,2)"></stop><stop offset="77%" stop-color="rgb(250,96,87)"></stop><stop offset="98%" stop-color="rgb(255,188,172)"></stop></linearGradient><linearGradient id="__lottie_element_13455" spreadMethod="pad" gradientUnits="userSpaceOnUse" x1="-0.21899999678134918" y1="-8.145000457763672" x2="1.281000018119812" y2="12.395999908447266"><stop offset="0%" stop-color="rgb(128,206,217)"></stop><stop offset="43%" stop-color="rgb(99,176,196)"></stop><stop offset="100%" stop-color="rgb(70,146,175)"></stop></linearGradient><linearGradient id="__lottie_element_13459" spreadMethod="pad" gradientUnits="userSpaceOnUse" x1="-0.37599998712539673" y1="-26.542999267578125" x2="-0.37599998712539673" y2="40.013999938964844"><stop offset="0%" stop-color="rgb(196,231,243)"></stop><stop offset="43%" stop-color="rgb(133,188,209)"></stop><stop offset="100%" stop-color="rgb(70,146,175)"></stop></linearGradient><linearGradient id="__lottie_element_13463" spreadMethod="pad" gradientUnits="userSpaceOnUse" x1="-0.7839999794960022" y1="11.20300006866455" x2="-0.7839999794960022" y2="-110.86900329589844"><stop offset="0%" stop-color="rgb(201,8,0)"></stop><stop offset="42%" stop-color="rgb(219,32,18)"></stop><stop offset="90%" stop-color="rgb(237,55,36)"></stop></linearGradient><linearGradient id="__lottie_element_13464" spreadMethod="pad" gradientUnits="userSpaceOnUse" x1="-0.16500000655651093" y1="51.457000732421875" x2="-0.16500000655651093" y2="-64.697998046875"><stop offset="0%" stop-color="rgb(198,6,0)"></stop><stop offset="47%" stop-color="rgb(218,31,18)"></stop><stop offset="100%" stop-color="rgb(237,55,36)"></stop></linearGradient><linearGradient id="__lottie_element_13465" spreadMethod="pad" gradientUnits="userSpaceOnUse" x1="-0.3790000081062317" y1="25.89699935913086" x2="-0.3790000081062317" y2="-21.7189998626709"><stop offset="0%" stop-color="rgb(142,0,24)"></stop><stop offset="12%" stop-color="rgb(152,1,21)"></stop><stop offset="23%" stop-color="rgb(162,1,18)"></stop><stop offset="60%" stop-color="rgb(192,3,9)"></stop><stop offset="100%" stop-color="rgb(222,5,1)"></stop></linearGradient><linearGradient id="__lottie_element_13466" spreadMethod="pad" gradientUnits="userSpaceOnUse" x1="787.6909790039062" y1="300.5050048828125" x2="792.8359985351562" y2="318.9410095214844"><stop offset="0%" stop-color="rgb(176,6,0)"></stop><stop offset="54%" stop-color="rgb(210,5,1)"></stop><stop offset="100%" stop-color="rgb(245,4,2)"></stop></linearGradient><linearGradient id="__lottie_element_13467" spreadMethod="pad" gradientUnits="userSpaceOnUse" x1="-1.7269999980926514" y1="0.3310000002384186" x2="1.5549999475479126" y2="0.3310000002384186"><stop offset="0%" stop-color="rgb(176,6,0)"></stop><stop offset="54%" stop-color="rgb(210,5,1)"></stop><stop offset="100%" stop-color="rgb(245,4,2)"></stop></linearGradient><linearGradient id="__lottie_element_13468" spreadMethod="pad" gradientUnits="userSpaceOnUse" x1="-0.7490000128746033" y1="-74.12200164794922" x2="-0.7490000128746033" y2="33.513999938964844"><stop offset="0%" stop-color="rgb(196,231,243)"></stop><stop offset="43%" stop-color="rgb(133,188,209)"></stop><stop offset="100%" stop-color="rgb(70,146,175)"></stop></linearGradient><radialGradient id="__lottie_element_13484" spreadMethod="pad" gradientUnits="userSpaceOnUse" cx="0.2070000022649765" cy="0.15000000596046448" r="11.587590159619184" fx="0.2070000022649765" fy="0.15000000596046448"><stop offset="0%" stop-color="rgb(40,88,30)"></stop><stop offset="44%" stop-color="rgb(26,71,21)"></stop><stop offset="100%" stop-color="rgb(12,54,13)"></stop></radialGradient><radialGradient id="__lottie_element_13485" spreadMethod="pad" gradientUnits="userSpaceOnUse" cx="0.3319999873638153" cy="0.15000000596046448" r="11.585621306249319" fx="0.3319999873638153" fy="0.15000000596046448"><stop offset="0%" stop-color="rgb(127,251,104)"></stop><stop offset="56%" stop-color="rgb(79,207,70)"></stop><stop offset="100%" stop-color="rgb(30,163,35)"></stop></radialGradient><radialGradient id="__lottie_element_13486" spreadMethod="pad" gradientUnits="userSpaceOnUse" cx="0.0820000022649765" cy="-0.01600000075995922" r="11.150691402171018" fx="0.0820000022649765" fy="-0.01600000075995922"><stop offset="0%" stop-color="rgb(93,93,48)"></stop><stop offset="44%" stop-color="rgb(91,75,29)"></stop><stop offset="100%" stop-color="rgb(89,58,9)"></stop></radialGradient><radialGradient id="__lottie_element_13487" spreadMethod="pad" gradientUnits="userSpaceOnUse" cx="0.0820000022649765" cy="0.10899999737739563" r="11.415397213620292" fx="0.0820000022649765" fy="0.10899999737739563"><stop offset="0%" stop-color="rgb(255,255,141)"></stop><stop offset="56%" stop-color="rgb(255,210,75)"></stop><stop offset="100%" stop-color="rgb(255,164,10)"></stop></radialGradient><radialGradient id="__lottie_element_13488" spreadMethod="pad" gradientUnits="userSpaceOnUse" cx="0.39399999380111694" cy="0.07100000232458115" r="11.905876229090971" fx="0.39399999380111694" fy="0.07100000232458115"><stop offset="0%" stop-color="rgb(93,50,48)"></stop><stop offset="56%" stop-color="rgb(85,32,31)"></stop><stop offset="100%" stop-color="rgb(77,13,13)"></stop></radialGradient><radialGradient id="__lottie_element_13489" spreadMethod="pad" gradientUnits="userSpaceOnUse" cx="0.39399999380111694" cy="0.32100000977516174" r="10.813325768941603" fx="0.39399999380111694" fy="0.32100000977516174"><stop offset="0%" stop-color="rgb(255,147,141)"></stop><stop offset="56%" stop-color="rgb(236,95,92)"></stop><stop offset="100%" stop-color="rgb(218,43,43)"></stop></radialGradient></defs><g clip-path="url(#__lottie_element_13422)"><g style="display: block;" transform="matrix(1.0657999515533447,0,0,0.9154000282287598,347.8686828613281,345.4822998046875)" opacity="0.18"><g opacity="1" transform="matrix(1,0,0,1,0,0)"><path stroke-linecap="round" stroke-linejoin="round" fill-opacity="0" stroke="rgb(0,0,0)" stroke-opacity="1" stroke-width="20" d=" M-267.7040100097656,143.55799865722656 C-267.7040100097656,143.55799865722656 95.10700225830078,143.3000030517578 95.10700225830078,143.3000030517578"></path></g></g><g style="display: block;" transform="matrix(1,0,0,1,-141,0)" opacity="1"><g opacity="1" transform="matrix(1,0,0,1,91.84200286865234,330.92498779296875)"><path fill="rgb(45,40,40)" fill-opacity="1" d=" M7.269000053405762,145.66900634765625 C7.269000053405762,145.66900634765625 -7.269000053405762,145.66900634765625 -7.269000053405762,145.66900634765625 C-7.269000053405762,145.66900634765625 -7.269000053405762,-145.66900634765625 -7.269000053405762,-145.66900634765625 C-7.269000053405762,-145.66900634765625 7.269000053405762,-145.66900634765625 7.269000053405762,-145.66900634765625 C7.269000053405762,-145.66900634765625 7.269000053405762,145.66900634765625 7.269000053405762,145.66900634765625z"></path></g><g opacity="1" transform="matrix(1,0,0,1,91.84200286865234,196.47799682617188)"><path fill="rgb(0,0,0)" fill-opacity="1" d=" M7.269000053405762,7.861000061035156 C7.269000053405762,7.861000061035156 -7.269000053405762,-0.3889999985694885 -7.269000053405762,-0.3889999985694885 C-7.269000053405762,-0.3889999985694885 -7.269000053405762,-7.861000061035156 -7.269000053405762,-7.861000061035156 C-7.269000053405762,-7.861000061035156 7.269000053405762,-7.861000061035156 7.269000053405762,-7.861000061035156 C7.269000053405762,-7.861000061035156 7.269000053405762,7.861000061035156 7.269000053405762,7.861000061035156z"></path></g><g opacity="1" transform="matrix(1,0,0,1,81.0260009765625,119.9800033569336)"><path fill="rgb(45,40,40)" fill-opacity="1" d=" M11.944999694824219,68.63600158691406 C11.944999694824219,68.63600158691406 -1.9520000219345093,68.63600158691406 -1.9520000219345093,68.63600158691406 C-9.097000122070312,68.63600158691406 -14.888999938964844,62.84400177001953 -14.888999938964844,55.69900131225586 C-14.888999938964844,55.69900131225586 -14.888999938964844,-55.69900131225586 -14.888999938964844,-55.69900131225586 C-14.888999938964844,-62.84400177001953 -9.097000122070312,-68.63600158691406 -1.9520000219345093,-68.63600158691406 C-1.9520000219345093,-68.63600158691406 14.888999938964844,-68.63600158691406 14.888999938964844,-68.63600158691406 C14.888999938964844,-68.63600158691406 14.888999938964844,65.69200134277344 14.888999938964844,65.69200134277344 C14.888999938964844,67.31800079345703 13.571000099182129,68.63600158691406 11.944999694824219,68.63600158691406z"></path></g><g opacity="1" transform="matrix(0.5,0,0,1,50.13349914550781,0)"><g opacity="1" transform="matrix(1,0,0,1,103.6500015258789,119.9800033569336)"><path fill="rgb(77,77,79)" fill-opacity="1" d=" M10.310999870300293,68.63600158691406 C10.310999870300293,68.63600158691406 -10.310999870300293,68.63600158691406 -10.310999870300293,68.63600158691406 C-14.41100025177002,68.63600158691406 -17.735000610351562,65.31300354003906 -17.735000610351562,61.2130012512207 C-17.735000610351562,61.2130012512207 -17.735000610351562,-61.2130012512207 -17.735000610351562,-61.2130012512207 C-17.735000610351562,-65.31300354003906 -14.41100025177002,-68.63600158691406 -10.310999870300293,-68.63600158691406 C-10.310999870300293,-68.63600158691406 10.310999870300293,-68.63600158691406 10.310999870300293,-68.63600158691406 C14.41100025177002,-68.63600158691406 17.735000610351562,-65.31300354003906 17.735000610351562,-61.2130012512207 C17.735000610351562,-61.2130012512207 17.735000610351562,61.2130012512207 17.735000610351562,61.2130012512207 C17.735000610351562,65.31300354003906 14.41100025177002,68.63600158691406 10.310999870300293,68.63600158691406z"></path><path stroke-linecap="round" stroke-linejoin="round" fill-opacity="0" stroke="rgb(177,177,177)" stroke-opacity="1" stroke-width="4" d=" M10.310999870300293,68.63600158691406 C10.310999870300293,68.63600158691406 -10.310999870300293,68.63600158691406 -10.310999870300293,68.63600158691406 C-14.41100025177002,68.63600158691406 -17.735000610351562,65.31300354003906 -17.735000610351562,61.2130012512207 C-17.735000610351562,61.2130012512207 -17.735000610351562,-61.2130012512207 -17.735000610351562,-61.2130012512207 C-17.735000610351562,-65.31300354003906 -14.41100025177002,-68.63600158691406 -10.310999870300293,-68.63600158691406 C-10.310999870300293,-68.63600158691406 10.310999870300293,-68.63600158691406 10.310999870300293,-68.63600158691406 C14.41100025177002,-68.63600158691406 17.735000610351562,-65.31300354003906 17.735000610351562,-61.2130012512207 C17.735000610351562,-61.2130012512207 17.735000610351562,61.2130012512207 17.735000610351562,61.2130012512207 C17.735000610351562,65.31300354003906 14.41100025177002,68.63600158691406 10.310999870300293,68.63600158691406z"></path></g><g opacity="1" transform="matrix(1,0,0,1,115.30400085449219,152.36900329589844)"><path fill="rgb(22,22,23)" fill-opacity="1" d=" M-1.934999942779541,-8.472999572753906 C-1.934999942779541,-8.472999572753906 1.8300000429153442,-8.472999572753906 1.8300000429153442,-8.472999572753906 C2.3959999084472656,-8.472999572753906 2.9509999752044678,-8.428999900817871 3.5,-8.33899974822998 C5.989999771118164,-7.933000087738037 13.104999542236328,-6.520999908447266 17.69099998474121,-3.0850000381469727 C20.003999710083008,-1.3519999980926514 21.4689998626709,0.906000018119812 22.392000198364258,2.9649999141693115 C23.6299991607666,5.728000164031982 20.336999893188477,8.472999572753906 15.85200023651123,8.472999572753906 C15.85200023651123,8.472999572753906 -1.934999942779541,8.472999572753906 -1.934999942779541,8.472999572753906 C-5.681000232696533,8.472999572753906 -8.718000411987305,6.5269999504089355 -8.718000411987305,4.125999927520752 C-8.718000411987305,4.125999927520752 -8.718000411987305,-4.125999927520752 -8.718000411987305,-4.125999927520752 C-8.718000411987305,-6.5269999504089355 -5.681000232696533,-8.472999572753906 -1.934999942779541,-8.472999572753906z"></path></g><g opacity="1" transform="matrix(1,0,0,1,0,0)"><g opacity="1" transform="matrix(1,0,0,1,106.36699676513672,160.3260040283203)"><path fill="rgb(45,40,40)" fill-opacity="1" d=" M13.197999954223633,0 C13.197999954223633,9.074999809265137 7.289000034332275,16.43199920654297 0,16.43199920654297 C-7.289000034332275,16.43199920654297 -13.197999954223633,9.074999809265137 -13.197999954223633,0 C-13.197999954223633,-9.074999809265137 -7.289000034332275,-16.43199920654297 0,-16.43199920654297 C7.289000034332275,-16.43199920654297 13.197999954223633,-9.074999809265137 13.197999954223633,0z"></path></g></g><g opacity="1" transform="matrix(1,0,0,1,108.82499694824219,161.46200561523438)"><path fill="url(#__lottie_element_13484)" fill-opacity="1" d=" M11.77299976348877,0 C11.77299976348877,9.074999809265137 6.501999855041504,16.43199920654297 0,16.43199920654297 C-6.501999855041504,16.43199920654297 -11.77299976348877,9.074999809265137 -11.77299976348877,0 C-11.77299976348877,-9.074999809265137 -6.501999855041504,-16.43199920654297 0,-16.43199920654297 C6.501999855041504,-16.43199920654297 11.77299976348877,-9.074999809265137 11.77299976348877,0z"></path></g><g opacity="0" transform="matrix(1,0,0,1,108.82499694824219,161.46200561523438)"><path fill="url(#__lottie_element_13485)" fill-opacity="1" d=" M11.77299976348877,0 C11.77299976348877,9.074999809265137 6.501999855041504,16.43199920654297 0,16.43199920654297 C-6.501999855041504,16.43199920654297 -11.77299976348877,9.074999809265137 -11.77299976348877,0 C-11.77299976348877,-9.074999809265137 -4.449999809265137,-14.39900016784668 0,-16.43199920654297 C6.501999855041504,-16.43199920654297 11.77299976348877,-9.074999809265137 11.77299976348877,0z"></path></g><g opacity="1" transform="matrix(1,0,0,1,109.08300018310547,152.36900329589844)"><path fill="rgb(45,40,40)" fill-opacity="1" d=" M27.117000579833984,-0.9929999709129333 C28.142000198364258,0.5139999985694885 28.600000381469727,2.2230000495910645 28.600000381469727,3.934999942779541 C28.600000381469727,3.934999942779541 28.600000381469727,3.934999942779541 28.600000381469727,3.934999942779541 C26.400999069213867,-1.8350000381469727 21.05699920654297,-5.90500020980835 14.8149995803833,-5.90500020980835 C8.194000244140625,-5.90500020980835 2.568000078201294,-1.3359999656677246 0.6499999761581421,4.985000133514404 C0.03099999949336052,7.025000095367432 -2.25600004196167,8.475000381469727 -4.909999847412109,8.475000381469727 C-4.909999847412109,8.475000381469727 -4.909999847412109,8.395000457763672 -4.909999847412109,8.395000457763672 C-4.909999847412109,8.395000457763672 -4.9730000495910645,8.475000381469727 -4.9730000495910645,8.475000381469727 C-4.9730000495910645,8.475000381469727 -14.942999839782715,8.475000381469727 -14.942999839782715,8.475000381469727 C-14.942999839782715,8.475000381469727 -13.16100025177002,0.5249999761581421 -13.16100025177002,0.5249999761581421 C-13.16100025177002,0.5249999761581421 -3.625999927520752,-8.277000427246094 -3.625999927520752,-8.277000427246094 C-3.625999927520752,-8.277000427246094 12.35099983215332,-8.475000381469727 12.35099983215332,-8.475000381469727 C18.593000411987305,-8.475000381469727 24.062000274658203,-5.485000133514404 27.117000579833984,-0.9929999709129333z"></path></g><g opacity="1" transform="matrix(1,0,0,1,115.30400085449219,112.28500366210938)"><path fill="rgb(22,22,23)" fill-opacity="1" d=" M-2.0139999389648438,-8.472999572753906 C-2.0139999389648438,-8.472999572753906 1.7070000171661377,-8.472999572753906 1.7070000171661377,-8.472999572753906 C2.2669999599456787,-8.472999572753906 2.815999984741211,-8.428999900817871 3.3580000400543213,-8.33899974822998 C5.818999767303467,-7.933000087738037 12.85200023651123,-6.520999908447266 17.385000228881836,-3.0850000381469727 C19.67099952697754,-1.3519999980926514 21.118999481201172,0.906000018119812 22.0310001373291,2.9649999141693115 C23.2549991607666,5.728000164031982 20,8.472999572753906 15.567000389099121,8.472999572753906 C15.567000389099121,8.472999572753906 -2.0139999389648438,8.472999572753906 -2.0139999389648438,8.472999572753906 C-5.7170000076293945,8.472999572753906 -8.718000411987305,6.5269999504089355 -8.718000411987305,4.125999927520752 C-8.718000411987305,4.125999927520752 -8.718000411987305,-4.125999927520752 -8.718000411987305,-4.125999927520752 C-8.718000411987305,-6.5269999504089355 -5.7170000076293945,-8.472999572753906 -2.0139999389648438,-8.472999572753906z"></path></g><g opacity="1" transform="matrix(1,0,0,1,0,0)"><g opacity="1" transform="matrix(1,0,0,1,106.36699676513672,120.24299621582031)"><path fill="rgb(45,40,40)" fill-opacity="1" d=" M13.197999954223633,0 C13.197999954223633,9.074999809265137 7.289000034332275,16.43199920654297 0,16.43199920654297 C-7.289000034332275,16.43199920654297 -13.197999954223633,9.074999809265137 -13.197999954223633,0 C-13.197999954223633,-9.074999809265137 -7.289000034332275,-16.43199920654297 0,-16.43199920654297 C7.289000034332275,-16.43199920654297 13.197999954223633,-9.074999809265137 13.197999954223633,0z"></path></g></g><g opacity="1" transform="matrix(1,0,0,1,108.82499694824219,121.37799835205078)"><path fill="url(#__lottie_element_13486)" fill-opacity="1" d=" M11.77299976348877,0 C11.77299976348877,9.074999809265137 6.501999855041504,16.43199920654297 0,16.43199920654297 C-6.501999855041504,16.43199920654297 -11.77299976348877,9.074999809265137 -11.77299976348877,0 C-11.77299976348877,-9.074999809265137 -6.501999855041504,-16.43199920654297 0,-16.43199920654297 C6.501999855041504,-16.43199920654297 11.77299976348877,-9.074999809265137 11.77299976348877,0z"></path></g><g opacity="1" transform="matrix(1,0,0,1,108.82499694824219,121.37799835205078)"><path fill="url(#__lottie_element_13487)" fill-opacity="1" d=" M11.77299976348877,0 C11.77299976348877,9.074999809265137 6.501999855041504,16.43199920654297 0,16.43199920654297 C-6.501999855041504,16.43199920654297 -11.77299976348877,9.074999809265137 -11.77299976348877,0 C-11.77299976348877,-9.074999809265137 -4.949999809265137,-14.065999984741211 0,-16.43199920654297 C6.501999855041504,-16.43199920654297 11.77299976348877,-9.074999809265137 11.77299976348877,0z"></path></g><g opacity="1" transform="matrix(1,0,0,1,109.08300018310547,112.28500366210938)"><path fill="rgb(45,40,40)" fill-opacity="1" d=" M27.117000579833984,-0.9929999709129333 C28.142000198364258,0.5139999985694885 28.600000381469727,2.2230000495910645 28.600000381469727,3.934999942779541 C28.600000381469727,3.934999942779541 28.600000381469727,3.934999942779541 28.600000381469727,3.934999942779541 C26.400999069213867,-1.8350000381469727 21.05699920654297,-5.90500020980835 14.8149995803833,-5.90500020980835 C8.194000244140625,-5.90500020980835 2.568000078201294,-1.3359999656677246 0.6499999761581421,4.985000133514404 C0.03099999949336052,7.025000095367432 -2.25600004196167,8.475000381469727 -4.909999847412109,8.475000381469727 C-4.909999847412109,8.475000381469727 -4.909999847412109,8.395000457763672 -4.909999847412109,8.395000457763672 C-4.909999847412109,8.395000457763672 -4.9730000495910645,8.475000381469727 -4.9730000495910645,8.475000381469727 C-4.9730000495910645,8.475000381469727 -14.942999839782715,8.475000381469727 -14.942999839782715,8.475000381469727 C-14.942999839782715,8.475000381469727 -13.16100025177002,0.5249999761581421 -13.16100025177002,0.5249999761581421 C-13.16100025177002,0.5249999761581421 -4.000999927520752,-8.027000427246094 -4.000999927520752,-8.027000427246094 C-4.000999927520752,-8.027000427246094 12.35099983215332,-8.475000381469727 12.35099983215332,-8.475000381469727 C18.593000411987305,-8.475000381469727 24.062000274658203,-5.485000133514404 27.117000579833984,-0.9929999709129333z"></path></g><g opacity="1" transform="matrix(1,0,0,1,115.30400085449219,72.20099639892578)"><path fill="rgb(22,22,23)" fill-opacity="1" d=" M-2.0399999618530273,-8.472999572753906 C-2.0399999618530273,-8.472999572753906 1.6670000553131104,-8.472999572753906 1.6670000553131104,-8.472999572753906 C2.2249999046325684,-8.472999572753906 2.7709999084472656,-8.428999900817871 3.311000108718872,-8.33899974822998 C5.763000011444092,-7.933000087738037 12.767999649047852,-6.520999908447266 17.283000946044922,-3.0850000381469727 C19.559999465942383,-1.3519999980926514 21.00200080871582,0.906000018119812 21.910999298095703,2.9649999141693115 C23.1299991607666,5.728000164031982 19.88800048828125,8.472999572753906 15.472000122070312,8.472999572753906 C15.472000122070312,8.472999572753906 -2.0399999618530273,8.472999572753906 -2.0399999618530273,8.472999572753906 C-5.728000164031982,8.472999572753906 -8.718000411987305,6.5269999504089355 -8.718000411987305,4.125999927520752 C-8.718000411987305,4.125999927520752 -8.718000411987305,-4.125999927520752 -8.718000411987305,-4.125999927520752 C-8.718000411987305,-6.5269999504089355 -5.728000164031982,-8.472999572753906 -2.0399999618530273,-8.472999572753906z"></path></g><g opacity="1" transform="matrix(1,0,0,1,0,0)"><g opacity="1" transform="matrix(1,0,0,1,106.36699676513672,80.15899658203125)"><path fill="rgb(45,40,40)" fill-opacity="1" d=" M13.197999954223633,0 C13.197999954223633,9.074999809265137 7.289000034332275,16.43199920654297 0,16.43199920654297 C-7.289000034332275,16.43199920654297 -13.197999954223633,9.074999809265137 -13.197999954223633,0 C-13.197999954223633,-9.074999809265137 -7.289000034332275,-16.43199920654297 0,-16.43199920654297 C7.289000034332275,-16.43199920654297 13.197999954223633,-9.074999809265137 13.197999954223633,0z"></path></g></g><g opacity="1" transform="matrix(1,0,0,1,108.82499694824219,81.29399871826172)"><path fill="url(#__lottie_element_13488)" fill-opacity="1" d=" M11.77299976348877,0 C11.77299976348877,9.074999809265137 6.501999855041504,16.43199920654297 0,16.43199920654297 C-6.501999855041504,16.43199920654297 -11.77299976348877,9.074999809265137 -11.77299976348877,0 C-11.77299976348877,-9.074999809265137 -6.501999855041504,-16.43199920654297 0,-16.43199920654297 C6.501999855041504,-16.43199920654297 11.77299976348877,-9.074999809265137 11.77299976348877,0z"></path></g><g opacity="0" transform="matrix(1,0,0,1,108.82499694824219,81.29399871826172)"><path fill="url(#__lottie_element_13489)" fill-opacity="1" d=" M11.77299976348877,0 C11.77299976348877,9.074999809265137 6.501999855041504,16.43199920654297 0,16.43199920654297 C-6.501999855041504,16.43199920654297 -11.77299976348877,9.074999809265137 -11.77299976348877,0 C-11.77299976348877,-9.074999809265137 -4.824999809265137,-14.607000350952148 0,-16.43199920654297 C6.501999855041504,-16.43199920654297 11.77299976348877,-9.074999809265137 11.77299976348877,0z"></path></g><g opacity="1" transform="matrix(1,0,0,1,109.08300018310547,72.20099639892578)"><path fill="rgb(45,40,40)" fill-opacity="1" d=" M27.117000579833984,-0.9929999709129333 C28.142000198364258,0.5139999985694885 28.600000381469727,2.2230000495910645 28.600000381469727,3.934999942779541 C28.600000381469727,3.934999942779541 28.600000381469727,3.934999942779541 28.600000381469727,3.934999942779541 C26.400999069213867,-1.8350000381469727 21.05699920654297,-5.90500020980835 14.8149995803833,-5.90500020980835 C8.194000244140625,-5.90500020980835 2.568000078201294,-1.3359999656677246 0.6499999761581421,4.985000133514404 C0.03099999949336052,7.025000095367432 -2.25600004196167,8.475000381469727 -4.909999847412109,8.475000381469727 C-4.909999847412109,8.475000381469727 -4.909999847412109,8.395000457763672 -4.909999847412109,8.395000457763672 C-4.909999847412109,8.395000457763672 -4.9730000495910645,8.475000381469727 -4.9730000495910645,8.475000381469727 C-4.9730000495910645,8.475000381469727 -14.942999839782715,8.475000381469727 -14.942999839782715,8.475000381469727 C-14.942999839782715,8.475000381469727 -13.16100025177002,0.5249999761581421 -13.16100025177002,0.5249999761581421 C-13.16100025177002,0.5249999761581421 -3.500999927520752,-8.277000427246094 -3.500999927520752,-8.277000427246094 C-3.500999927520752,-8.277000427246094 12.35099983215332,-8.475000381469727 12.35099983215332,-8.475000381469727 C18.593000411987305,-8.475000381469727 24.062000274658203,-5.485000133514404 27.117000579833984,-0.9929999709129333z"></path></g><g opacity="1" transform="matrix(1,0,0,1,91.84200286865234,449.7439880371094)"><path fill="rgb(45,40,40)" fill-opacity="1" d=" M15.333000183105469,26.849000930786133 C15.333000183105469,26.849000930786133 -15.333000183105469,26.849000930786133 -15.333000183105469,26.849000930786133 C-15.333000183105469,26.849000930786133 -15.333000183105469,-8.182000160217285 -15.333000183105469,-8.182000160217285 C-15.333000183105469,-16.649999618530273 -8.468000411987305,-26.849000930786133 0,-26.849000930786133 C0,-26.849000930786133 0,-26.849000930786133 0,-26.849000930786133 C8.468000411987305,-26.849000930786133 15.333000183105469,-16.649999618530273 15.333000183105469,-8.182000160217285 C15.333000183105469,-8.182000160217285 15.333000183105469,26.849000930786133 15.333000183105469,26.849000930786133z"></path></g></g></g><g style="display: block;" transform="matrix(1,0,0,1,-9,0)" opacity="1"><g opacity="1" transform="matrix(1,0,0,1,402.0050048828125,420.3919982910156)"><path fill="rgb(22,22,23)" fill-opacity="1" d=" M0.38600000739097595,-52.37799835205078 C-2.302000045776367,-52.37799835205078 -12.642000198364258,-52.37799835205078 -15.329999923706055,-52.37799835205078 C-38.310001373291016,-52.37799835205078 -56.93899917602539,-28.92799949645996 -56.93899917602539,0 C-56.93899917602539,28.92799949645996 -32.310001373291016,52.38199996948242 -9.329999923706055,52.38199996948242 C-6.642000198364258,52.38199996948242 -11.552000045776367,52.38199996948242 -8.86400032043457,52.38199996948242 C14.116000175476074,52.38199996948242 41.994998931884766,28.92799949645996 41.994998931884766,0 C41.994998931884766,-28.92799949645996 23.365999221801758,-52.37799835205078 0.38600000739097595,-52.37799835205078z"></path><path stroke-linecap="round" stroke-linejoin="round" fill-opacity="0" stroke="rgb(0,0,0)" stroke-opacity="1" stroke-width="7.65" d=" M0.38600000739097595,-52.37799835205078 C-2.302000045776367,-52.37799835205078 -12.642000198364258,-52.37799835205078 -15.329999923706055,-52.37799835205078 C-38.310001373291016,-52.37799835205078 -56.93899917602539,-28.92799949645996 -56.93899917602539,0 C-56.93899917602539,28.92799949645996 -32.310001373291016,52.38199996948242 -9.329999923706055,52.38199996948242 C-6.642000198364258,52.38199996948242 -11.552000045776367,52.38199996948242 -8.86400032043457,52.38199996948242 C14.116000175476074,52.38199996948242 41.994998931884766,28.92799949645996 41.994998931884766,0 C41.994998931884766,-28.92799949645996 23.365999221801758,-52.37799835205078 0.38600000739097595,-52.37799835205078z"></path></g><g opacity="1" transform="matrix(1,0,0,1,392.9599914550781,420.3919982910156)"><path fill="rgb(22,22,23)" fill-opacity="1" d=" M47.89400100708008,0 C47.89400100708008,28.92799949645996 26.451000213623047,52.37799835205078 0,52.37799835205078 C-26.451000213623047,52.37799835205078 -47.89400100708008,28.92799949645996 -47.89400100708008,0 C-47.89400100708008,-28.92799949645996 -26.451000213623047,-52.37799835205078 0,-52.37799835205078 C26.451000213623047,-52.37799835205078 47.89400100708008,-28.92799949645996 47.89400100708008,0z"></path><path stroke-linecap="round" stroke-linejoin="round" fill-opacity="0" stroke="rgb(0,0,0)" stroke-opacity="1" stroke-width="7.65" d=" M47.89400100708008,0 C47.89400100708008,28.92799949645996 26.451000213623047,52.37799835205078 0,52.37799835205078 C-26.451000213623047,52.37799835205078 -47.89400100708008,28.92799949645996 -47.89400100708008,0 C-47.89400100708008,-28.92799949645996 -26.451000213623047,-52.37799835205078 0,-52.37799835205078 C26.451000213623047,-52.37799835205078 47.89400100708008,-28.92799949645996 47.89400100708008,0z"></path></g></g><g style="display: block;" transform="matrix(1,0,0,1,-30,0)" opacity="1"><g opacity="1" transform="matrix(1,0,0,1,175.51100158691406,420.3919982910156)"><path fill="rgb(22,22,23)" fill-opacity="1" d=" M-0.4869999885559082,-52.37799835205078 C-3.134000062942505,-52.37799835205078 -13.317000389099121,-52.37799835205078 -15.96399974822998,-52.37799835205078 C-38.59400177001953,-52.37799835205078 -56.93899917602539,-28.92799949645996 -56.93899917602539,0 C-56.93899917602539,28.92799949645996 -32.09400177001953,52.38199996948242 -9.46399974822998,52.38199996948242 C-6.816999912261963,52.38199996948242 -10.633999824523926,52.38199996948242 -7.986999988555908,52.38199996948242 C14.642999649047852,52.38199996948242 40.48899841308594,28.92799949645996 40.48899841308594,0 C40.48899841308594,-28.92799949645996 22.14299964904785,-52.37799835205078 -0.4869999885559082,-52.37799835205078z"></path><path stroke-linecap="round" stroke-linejoin="round" fill-opacity="0" stroke="rgb(0,0,0)" stroke-opacity="1" stroke-width="7.65" d=" M-0.4869999885559082,-52.37799835205078 C-3.134000062942505,-52.37799835205078 -13.317000389099121,-52.37799835205078 -15.96399974822998,-52.37799835205078 C-38.59400177001953,-52.37799835205078 -56.93899917602539,-28.92799949645996 -56.93899917602539,0 C-56.93899917602539,28.92799949645996 -32.09400177001953,52.38199996948242 -9.46399974822998,52.38199996948242 C-6.816999912261963,52.38199996948242 -10.633999824523926,52.38199996948242 -7.986999988555908,52.38199996948242 C14.642999649047852,52.38199996948242 40.48899841308594,28.92799949645996 40.48899841308594,0 C40.48899841308594,-28.92799949645996 22.14299964904785,-52.37799835205078 -0.4869999885559082,-52.37799835205078z"></path></g><g opacity="1" transform="matrix(1,0,0,1,166.46600341796875,420.3919982910156)"><path fill="rgb(22,22,23)" fill-opacity="1" d=" M47.89400100708008,0 C47.89400100708008,28.92799949645996 26.451000213623047,52.37799835205078 0,52.37799835205078 C-26.451000213623047,52.37799835205078 -47.89400100708008,28.92799949645996 -47.89400100708008,0 C-47.89400100708008,-28.92799949645996 -26.451000213623047,-52.37799835205078 0,-52.37799835205078 C26.451000213623047,-52.37799835205078 47.89400100708008,-28.92799949645996 47.89400100708008,0z"></path><path stroke-linecap="round" stroke-linejoin="round" fill-opacity="0" stroke="rgb(0,0,0)" stroke-opacity="1" stroke-width="7.65" d=" M47.89400100708008,0 C47.89400100708008,28.92799949645996 26.451000213623047,52.37799835205078 0,52.37799835205078 C-26.451000213623047,52.37799835205078 -47.89400100708008,28.92799949645996 -47.89400100708008,0 C-47.89400100708008,-28.92799949645996 -26.451000213623047,-52.37799835205078 0,-52.37799835205078 C26.451000213623047,-52.37799835205078 47.89400100708008,-28.92799949645996 47.89400100708008,0z"></path></g></g><g style="display: block;" transform="matrix(1.111109972000122,0,0,1,-46.85577392578125,0)" opacity="1"><g opacity="1" transform="matrix(1,0,0,1,402.0050048828125,420.3919982910156)"><path fill="rgb(22,22,23)" fill-opacity="1" d=" M-4.556000232696533,-52.37799835205078 C-7.01200008392334,-52.37799835205078 -16.461000442504883,-52.37799835205078 -18.91699981689453,-52.37799835205078 C-39.91600036621094,-52.37799835205078 -56.93899917602539,-28.92799949645996 -56.93899917602539,0 C-56.93899917602539,28.92799949645996 -32.941001892089844,52.25699996948242 -11.942000389099121,52.25699996948242 C-9.486000061035156,52.25699996948242 -12.862000465393066,52.25699996948242 -10.406000137329102,52.25699996948242 C10.593000411987305,52.25699996948242 33.465999603271484,28.92799949645996 33.465999603271484,0 C33.465999603271484,-28.92799949645996 16.44300079345703,-52.37799835205078 -4.556000232696533,-52.37799835205078z"></path><path stroke-linecap="round" stroke-linejoin="round" fill-opacity="0" stroke="rgb(0,0,0)" stroke-opacity="1" stroke-width="7.65" d=" M-4.556000232696533,-52.37799835205078 C-7.01200008392334,-52.37799835205078 -16.461000442504883,-52.37799835205078 -18.91699981689453,-52.37799835205078 C-39.91600036621094,-52.37799835205078 -56.93899917602539,-28.92799949645996 -56.93899917602539,0 C-56.93899917602539,28.92799949645996 -32.941001892089844,52.25699996948242 -11.942000389099121,52.25699996948242 C-9.486000061035156,52.25699996948242 -12.862000465393066,52.25699996948242 -10.406000137329102,52.25699996948242 C10.593000411987305,52.25699996948242 33.465999603271484,28.92799949645996 33.465999603271484,0 C33.465999603271484,-28.92799949645996 16.44300079345703,-52.37799835205078 -4.556000232696533,-52.37799835205078z"></path></g></g><g style="display: block;" transform="matrix(1.111109972000122,0,0,1,-43.44500732421875,0)" opacity="1"><g opacity="1" transform="matrix(1,0,0,1,175.51100158691406,420.3919982910156)"><path fill="rgb(22,22,23)" fill-opacity="1" d=" M-4.426000118255615,-52.37799835205078 C-6.888000011444092,-52.37799835205078 -16.361000061035156,-52.37799835205078 -18.822999954223633,-52.37799835205078 C-39.874000549316406,-52.37799835205078 -56.93899917602539,-28.92799949645996 -56.93899917602539,0 C-56.93899917602539,28.92799949645996 -34.02399826049805,52.25699996948242 -12.972999572753906,52.25699996948242 C-10.51099967956543,52.25699996948242 -13.86299991607666,52.25699996948242 -11.401000022888184,52.25699996948242 C9.649999618530273,52.25699996948242 33.689998626708984,28.92799949645996 33.689998626708984,0 C33.689998626708984,-28.92799949645996 16.625,-52.37799835205078 -4.426000118255615,-52.37799835205078z"></path><path stroke-linecap="round" stroke-linejoin="round" fill-opacity="0" stroke="rgb(0,0,0)" stroke-opacity="1" stroke-width="7.65" d=" M-4.426000118255615,-52.37799835205078 C-6.888000011444092,-52.37799835205078 -16.361000061035156,-52.37799835205078 -18.822999954223633,-52.37799835205078 C-39.874000549316406,-52.37799835205078 -56.93899917602539,-28.92799949645996 -56.93899917602539,0 C-56.93899917602539,28.92799949645996 -34.02399826049805,52.25699996948242 -12.972999572753906,52.25699996948242 C-10.51099967956543,52.25699996948242 -13.86299991607666,52.25699996948242 -11.401000022888184,52.25699996948242 C9.649999618530273,52.25699996948242 33.689998626708984,28.92799949645996 33.689998626708984,0 C33.689998626708984,-28.92799949645996 16.625,-52.37799835205078 -4.426000118255615,-52.37799835205078z"></path></g></g><g style="display: block;" transform="matrix(1,0,0,1,-27,0)" opacity="1"><g opacity="1" transform="matrix(1,0,0,1,299.343994140625,273.3590087890625)"><path fill="url(#__lottie_element_13463)" fill-opacity="1" d=" M-178.30499267578125,107.24600219726562 C-178.30499267578125,107.24600219726562 173.73300170898438,107.24600219726562 173.73300170898438,107.24600219726562 C173.73300170898438,107.24600219726562 178.30499267578125,82.24600219726562 178.30499267578125,52.24599838256836 C178.30499267578125,24.246000289916992 162.76100158691406,2.246000051498413 162.76100158691406,2.246000051498413 C162.76100158691406,2.246000051498413 152.447998046875,-31.613000869750977 140.18099975585938,-58.25699996948242 C132.58599853515625,-74.75399780273438 124.35700225830078,-83.75499725341797 116.05599975585938,-90.50199890136719 C103.43299865722656,-100.76300048828125 87.7959976196289,-104.11499786376953 72.13999938964844,-105.75399780273438 C63.31399917602539,-106.6780014038086 53.29800033569336,-107.1760025024414 42.792999267578125,-107.24600219726562 C42.792999267578125,-107.24600219726562 37.22700119018555,-107.24099731445312 37.22700119018555,-107.24099731445312 C37.22700119018555,-107.24099731445312 -178.30499267578125,107.24600219726562 -178.30499267578125,107.24600219726562z"></path></g><g opacity="0.3" transform="matrix(1,0,0,1,358.6629943847656,173.60499572753906)"><path stroke-linecap="round" stroke-linejoin="round" fill-opacity="0" stroke="rgb(255,255,255)" stroke-opacity="1" stroke-width="8" d=" M40.875999450683594,0 C40.875999450683594,0 -40.875999450683594,0 -40.875999450683594,0"></path></g><g opacity="1" transform="matrix(1,0,0,1,291.72601318359375,328.1050109863281)"><path fill="url(#__lottie_element_13464)" fill-opacity="1" d=" M-100.52400207519531,-40.5099983215332 C-100.53399658203125,-40.5 -138.01800537109375,-25.829999923706055 -149.36399841308594,-20.5 C-168.51300048828125,-11.5 -178.08799743652344,4.5 -182.875,19.5 C-186.7050018310547,31.5 -186.7050018310547,52.5 -186.7050018310547,52.5 C-186.7050018310547,52.5 181.91799926757812,52.5 181.91799926757812,52.5 C181.91799926757812,52.5 186.7050018310547,27.5 186.7050018310547,-2.5 C186.7050018310547,-13.680000305175781 184.11000061035156,-23.90999984741211 180.98899841308594,-32.150001525878906 C180.98899841308594,-32.150001525878906 177.4720001220703,-41.04499816894531 176.06100463867188,-43.1510009765625 C176.06100463867188,-43.1510009765625 170.37899780273438,-52.5 170.37899780273438,-52.5 C170.37899780273438,-52.5 58.70600128173828,-52.5 58.70600128173828,-52.5"></path></g><g opacity="0.3" transform="matrix(1,0,0,1,426.4179992675781,287.6050109863281)"><path stroke-linecap="round" stroke-linejoin="round" fill-opacity="0" stroke="rgb(255,255,255)" stroke-opacity="1" stroke-width="16" d=" M-38.54499816894531,0 C-38.54499816894531,0 38.54499816894531,0 38.54499816894531,0"></path></g><g opacity="1" transform="matrix(1,0,0,1,287.9389953613281,407.6650085449219)"><path fill="url(#__lottie_element_13465)" fill-opacity="1" d=" M-182.5709991455078,-26.940000534057617 C-188.5749969482422,-26.940000534057617 -193.4499969482422,-21.899999618530273 -193.4499969482422,-15.680000305175781 C-193.4499969482422,-15.680000305175781 -193.4499969482422,8.3100004196167 -193.4499969482422,8.3100004196167 C-193.4499969482422,17.829999923706055 -186.54800415039062,25.68000030517578 -177.6479949951172,26.799999237060547 C-176.9340057373047,26.889999389648438 -176.19900512695312,26.940000534057617 -175.45599365234375,26.940000534057617 C-175.45599365234375,26.940000534057617 -58.92900085449219,26.940000534057617 -58.92900085449219,26.940000534057617 C-58.92900085449219,26.940000534057617 -26.445999145507812,26.940000534057617 -26.445999145507812,26.940000534057617 C-26.445999145507812,26.940000534057617 30.30699920654297,26.940000534057617 30.30699920654297,26.940000534057617 C30.30699920654297,26.940000534057617 61.757999420166016,26.940000534057617 61.757999420166016,26.940000534057617 C61.757999420166016,26.940000534057617 175.45599365234375,26.940000534057617 175.45599365234375,26.940000534057617 C177.19400024414062,26.940000534057617 178.88299560546875,26.68000030517578 180.4759979248047,26.200000762939453 C187.9669952392578,23.950000762939453 193.4499969482422,16.790000915527344 193.4499969482422,8.3100004196167 C193.4499969482422,8.3100004196167 193.4499969482422,-15.680000305175781 193.4499969482422,-15.680000305175781 C193.4499969482422,-21.899999618530273 188.5749969482422,-26.940000534057617 182.5709991455078,-26.940000534057617"></path></g><g opacity="1" transform="matrix(1,0,0,1,299.343994140625,273.3590087890625)"><path stroke-linecap="round" stroke-linejoin="round" fill-opacity="0" stroke="rgb(119,0,31)" stroke-opacity="1" stroke-width="8" d=" M-178.30499267578125,107.24600219726562 C-178.30499267578125,107.24600219726562 173.73300170898438,107.24600219726562 173.73300170898438,107.24600219726562 C173.73300170898438,107.24600219726562 178.30499267578125,82.24600219726562 178.30499267578125,52.24599838256836 C178.30499267578125,24.246000289916992 162.76100158691406,2.246000051498413 162.76100158691406,2.246000051498413 C162.76100158691406,2.246000051498413 152.447998046875,-31.613000869750977 140.18099975585938,-58.25699996948242 C132.58599853515625,-74.75399780273438 124.35700225830078,-83.75499725341797 116.05599975585938,-90.50199890136719 C103.43299865722656,-100.76300048828125 87.7959976196289,-104.11499786376953 72.13999938964844,-105.75399780273438 C63.31399917602539,-106.6780014038086 53.29800033569336,-107.1760025024414 42.792999267578125,-107.24600219726562 C42.792999267578125,-107.24600219726562 37.22700119018555,-107.24099731445312 37.22700119018555,-107.24099731445312 C37.22700119018555,-107.24099731445312 -178.30499267578125,107.24600219726562 -178.30499267578125,107.24600219726562z"></path></g><g opacity="0.8" transform="matrix(1,0,0,1,429.7430114746094,380.6050109863281)"><path fill="rgb(238,0,0)" fill-opacity="1" d=" M-40.766998291015625,0 C-40.766998291015625,0 40.766998291015625,0 40.766998291015625,0"></path><path stroke-linecap="round" stroke-linejoin="round" fill-opacity="0" stroke="rgb(255,176,176)" stroke-opacity="1" stroke-width="8" d=" M-40.766998291015625,0 C-40.766998291015625,0 40.766998291015625,0 40.766998291015625,0"></path></g><g opacity="1" transform="matrix(1,0,0,1,295.7279968261719,407.6650085449219)"><path stroke-linecap="round" stroke-linejoin="round" fill-opacity="0" stroke="rgb(84,0,20)" stroke-opacity="1" stroke-width="8" d=" M-175.22000122070312,-26.940000534057617 C-180.98300170898438,-26.940000534057617 -185.66200256347656,-21.899999618530273 -185.66200256347656,-15.680000305175781 C-185.66200256347656,-15.680000305175781 -185.66200256347656,8.3100004196167 -185.66200256347656,8.3100004196167 C-185.66200256347656,17.829999923706055 -179.03700256347656,25.68000030517578 -170.4949951171875,26.799999237060547 C-169.8090057373047,26.889999389648438 -169.10499572753906,26.940000534057617 -168.39199829101562,26.940000534057617 C-168.39199829101562,26.940000534057617 -56.55699920654297,26.940000534057617 -56.55699920654297,26.940000534057617 C-56.55699920654297,26.940000534057617 -25.381000518798828,26.940000534057617 -25.381000518798828,26.940000534057617 C-25.381000518798828,26.940000534057617 29.086999893188477,26.940000534057617 29.086999893188477,26.940000534057617 C29.086999893188477,26.940000534057617 59.270999908447266,26.940000534057617 59.270999908447266,26.940000534057617 C59.270999908447266,26.940000534057617 168.39199829101562,26.940000534057617 168.39199829101562,26.940000534057617 C170.05999755859375,26.940000534057617 171.68099975585938,26.68000030517578 173.2100067138672,26.200000762939453 C180.3990020751953,23.950000762939453 185.66200256347656,16.790000915527344 185.66200256347656,8.3100004196167 C185.66200256347656,8.3100004196167 185.66200256347656,-15.680000305175781 185.66200256347656,-15.680000305175781 C185.66200256347656,-21.899999618530273 180.98300170898438,-26.940000534057617 175.22000122070312,-26.940000534057617"></path></g><g opacity="1" transform="matrix(1,0,0,1,0,0)"><g opacity="1" transform="matrix(1,0,0,1,474.25201416015625,309.0159912109375)"><path fill="url(#__lottie_element_13466)" fill-opacity="1" d=" M1.5080000162124634,0.11599999666213989 C-1.1990000009536743,-11.59000015258789 -3.0460000038146973,-20.214000701904297 -1.9390000104904175,-16.69700050354004 C-1.156000018119812,-14.210000038146973 2.1579999923706055,-0.9940000176429749 4.783999919891357,10.677000045776367 C6.531000137329102,18.44499969482422 6.682000160217285,22.48900032043457 1.5080000162124634,0.11599999666213989z"></path><path stroke-linecap="round" stroke-linejoin="round" fill-opacity="0" stroke="rgb(109,108,108)" stroke-opacity="1" stroke-width="8" d=" M1.5080000162124634,0.11599999666213989 C-1.1990000009536743,-11.59000015258789 -3.0460000038146973,-20.214000701904297 -1.9390000104904175,-16.69700050354004 C-1.156000018119812,-14.210000038146973 2.1579999923706055,-0.9940000176429749 4.783999919891357,10.677000045776367 C6.531000137329102,18.44499969482422 6.682000160217285,22.48900032043457 1.5080000162124634,0.11599999666213989z"></path></g><g opacity="1" transform="matrix(1,0,0,1,468.0559997558594,305.29400634765625)"><path stroke-linecap="round" stroke-linejoin="round" fill-opacity="0" stroke="rgb(214,214,214)" stroke-opacity="1" stroke-width="8" d=" M9.892999649047852,13.045000076293945 C9.303999900817871,10.66100025177002 8.581000328063965,7.627999782562256 7.703999996185303,3.8380000591278076 C5.705999851226807,-4.802000045776367 4.176000118255615,-11.76200008392334 3.9570000171661377,-13.402000427246094"></path></g></g><g opacity="1" transform="matrix(1,0,0,1,438.9670104980469,410.56298828125)"><path fill="rgb(125,0,25)" fill-opacity="1" d=" M46.69599914550781,8.081000328063965 C46.69599914550781,8.081000328063965 46.30400085449219,8.081000328063965 46.30400085449219,8.081000328063965 C46.25600051879883,8.081000328063965 46.21699905395508,4.784999847412109 46.21699905395508,0.718999981880188 C46.21699905395508,0.718999981880188 46.21699905395508,-0.597000002861023 46.21699905395508,-0.597000002861023 C46.21699905395508,-4.663000106811523 46.25600051879883,-7.959000110626221 46.30400085449219,-7.959000110626221 C46.30400085449219,-7.959000110626221 46.69599914550781,-7.959000110626221 46.69599914550781,-7.959000110626221 C46.74399948120117,-7.959000110626221 46.78300094604492,-4.663000106811523 46.78300094604492,-0.597000002861023 C46.78300094604492,-0.597000002861023 46.78300094604492,0.718999981880188 46.78300094604492,0.718999981880188 C46.78300094604492,4.784999847412109 46.74399948120117,8.081000328063965 46.69599914550781,8.081000328063965z"></path></g><g opacity="1" transform="matrix(1,0,0,1,437.6080017089844,315.38299560546875)"><path fill="rgb(125,0,25)" fill-opacity="1" d=" M34.80699920654297,6.691999912261963 C34.80699920654297,6.691999912261963 34.69300079345703,6.691999912261963 34.69300079345703,6.691999912261963 C34.645999908447266,6.691999912261963 34.608001708984375,3.693000078201294 34.608001708984375,-0.00800000037997961 C34.608001708984375,-0.00800000037997961 34.608001708984375,-0.00800000037997961 34.608001708984375,-0.00800000037997961 C34.608001708984375,-3.7090001106262207 34.645999908447266,-6.709000110626221 34.69300079345703,-6.709000110626221 C34.69300079345703,-6.709000110626221 34.80699920654297,-6.709000110626221 34.80699920654297,-6.709000110626221 C34.854000091552734,-6.709000110626221 34.891998291015625,-3.7090001106262207 34.891998291015625,-0.00800000037997961 C34.891998291015625,-0.00800000037997961 34.891998291015625,-0.00800000037997961 34.891998291015625,-0.00800000037997961 C34.891998291015625,3.693000078201294 34.854000091552734,6.691999912261963 34.80699920654297,6.691999912261963z"></path></g><g opacity="1" transform="matrix(1,0,0,1,0,0)"><g opacity="1" transform="matrix(1,0,0,1,371.22198486328125,177.4739990234375)"><path fill="rgb(130,130,130)" fill-opacity="1" d=" M43.57699966430664,5.260000228881836 C43.57699966430664,5.260000228881836 46.13800048828125,-0.02800000086426735 40.92399978637695,-3.993000030517578 C35.38800048828125,-8.20300006866455 30.79400062561035,-2.563999891281128 30.79400062561035,-2.563999891281128 C30.79400062561035,-2.563999891281128 31.6299991607666,6.006999969482422 43.57699966430664,5.260000228881836"></path><path stroke-linecap="round" stroke-linejoin="round" fill-opacity="0" stroke="rgb(130,130,130)" stroke-opacity="1" stroke-width="8" d=" M43.57699966430664,5.260000228881836 C43.57699966430664,5.260000228881836 46.13800048828125,-0.02800000086426735 40.92399978637695,-3.993000030517578 C35.38800048828125,-8.20300006866455 30.79400062561035,-2.563999891281128 30.79400062561035,-2.563999891281128 C30.79400062561035,-2.563999891281128 31.6299991607666,6.006999969482422 43.57699966430664,5.260000228881836"></path></g><g opacity="1" transform="matrix(1,0,0,1,376.2869873046875,178.2310028076172)"><path fill="url(#__lottie_element_13467)" fill-opacity="1" d=" M35.85900115966797,-4.75 C41.073001861572266,-0.7850000262260437 38.51100158691406,4.502999782562256 38.51100158691406,4.502999782562256"></path><path stroke-linecap="round" stroke-linejoin="round" fill-opacity="0" stroke="rgb(91,91,91)" stroke-opacity="1" stroke-width="8" d=" M35.85900115966797,-4.75 C41.073001861572266,-0.7850000262260437 38.51100158691406,4.502999782562256 38.51100158691406,4.502999782562256"></path></g><g opacity="1" transform="matrix(1,0,0,1,380.5799865722656,165.60400390625)"><path stroke-linecap="round" stroke-linejoin="round" fill-opacity="0" stroke="rgb(16,13,14)" stroke-opacity="1" stroke-width="8" d=" M35.09700012207031,3.9700000286102295 C35.09700012207031,3.9700000286102295 44.02799987792969,-7.78000020980835 44.02799987792969,-7.78000020980835"></path></g></g><g opacity="1" transform="matrix(1,0,0,1,401.30999755859375,233.6840057373047)"><path fill="url(#__lottie_element_13468)" fill-opacity="1" d=" M60.79399871826172,41.917999267578125 C60.7869987487793,41.840999603271484 59.632999420166016,28.520000457763672 47.90700149536133,-0.07900000363588333 C37.137001037597656,-26.347000122070312 23.304000854492188,-42.07899856567383 23.304000854492188,-42.07899856567383 C23.304000854492188,-42.07899856567383 -60.79499816894531,-42.07899856567383 -60.79499816894531,-42.07899856567383 C-60.79499816894531,-42.07899856567383 -23.305999755859375,41.92100143432617 -23.305999755859375,41.92100143432617 C-23.305999755859375,41.92100143432617 55.95399856567383,41.92100143432617 55.95399856567383,41.92100143432617 C58.48899841308594,42.275001525878906 60.79399871826172,41.92100143432617 60.79399871826172,41.92100143432617 C60.79399871826172,41.92100143432617 60.79499816894531,41.92100143432617 60.79499816894531,41.92100143432617 C60.79499816894531,41.92100143432617 60.79399871826172,41.917999267578125 60.79399871826172,41.917999267578125z"></path><path stroke-linecap="round" stroke-linejoin="round" fill-opacity="0" stroke="rgb(21,70,81)" stroke-opacity="1" stroke-width="8" d=" M60.79399871826172,41.917999267578125 C60.7869987487793,41.840999603271484 59.632999420166016,28.520000457763672 47.90700149536133,-0.07900000363588333 C37.137001037597656,-26.347000122070312 23.304000854492188,-42.07899856567383 23.304000854492188,-42.07899856567383 C23.304000854492188,-42.07899856567383 -60.79499816894531,-42.07899856567383 -60.79499816894531,-42.07899856567383 C-60.79499816894531,-42.07899856567383 -23.305999755859375,41.92100143432617 -23.305999755859375,41.92100143432617 C-23.305999755859375,41.92100143432617 55.95399856567383,41.92100143432617 55.95399856567383,41.92100143432617 C58.48899841308594,42.275001525878906 60.79399871826172,41.92100143432617 60.79399871826172,41.92100143432617 C60.79399871826172,41.92100143432617 60.79499816894531,41.92100143432617 60.79499816894531,41.92100143432617 C60.79499816894531,41.92100143432617 60.79399871826172,41.917999267578125 60.79399871826172,41.917999267578125z"></path></g><g opacity="1" transform="matrix(1,0,0,1,0,0)"><g opacity="1" transform="matrix(1,0,0,1,433.7869873046875,265.4490051269531)"><path fill="rgb(0,0,0)" fill-opacity="1" d=" M27.256000518798828,0.3779999911785126 C27.256000518798828,1.5959999561309814 27.2549991607666,2.5739998817443848 27.253000259399414,2.5369999408721924 C27.253000259399414,2.5369999408721924 27.21500015258789,1.7489999532699585 27.21500015258789,1.7489999532699585 C27.214000701904297,1.7100000381469727 27.21299934387207,0.9610000252723694 27.21299934387207,0.023000000044703484 C27.21299934387207,0.023000000044703484 27.21299934387207,-0.13600000739097595 27.21299934387207,-0.13600000739097595 C27.21299934387207,-1.0740000009536743 27.214000701904297,-1.8240000009536743 27.21500015258789,-1.8630000352859497 C27.21500015258789,-1.8630000352859497 27.253000259399414,-2.496000051498413 27.253000259399414,-2.496000051498413 C27.2549991607666,-2.5329999923706055 27.256000518798828,-1.555999994277954 27.256000518798828,-0.33799999952316284 C27.256000518798828,-0.33799999952316284 27.256000518798828,0.3779999911785126 27.256000518798828,0.3779999911785126z"></path></g><g opacity="1" transform="matrix(1,0,0,1,421.4280090332031,265.4079895019531)"><path fill="rgb(0,0,0)" fill-opacity="1" d=" M39.606998443603516,0.019999999552965164 C39.606998443603516,-1.8040000200271606 39.608001708984375,-3.2820000648498535 39.611000061035156,-3.2820000648498535 C39.61399841308594,-3.2820000648498535 39.61600112915039,-1.8040000200271606 39.61600112915039,0.019999999552965164 C39.61600112915039,1.843999981880188 39.61399841308594,3.322000026702881 39.611000061035156,3.322000026702881 C39.608001708984375,3.322000026702881 39.606998443603516,1.843999981880188 39.606998443603516,0.019999999552965164z"></path></g></g></g><g style="display: block;" transform="matrix(1,0,0,1,32,0)" opacity="1"><g opacity="1" transform="matrix(1,0,0,1,154.99099731445312,241.10499572753906)"><path fill="url(#__lottie_element_13429)" fill-opacity="1" d=" M-38.63100051879883,59.5 C-38.63100051879883,59.5 -44.63100051879883,50.5 -32.63100051879883,23.5 C-27.10700035095215,11.071000099182129 -1.6319999694824219,-41.5 40.13100051879883,-59.5 C40.13100051879883,-59.5 -38.63100051879883,59.5 -38.63100051879883,59.5z"></path></g><g opacity="1" transform="matrix(1,0,0,1,33.672000885009766,361.6050109863281)"><path stroke-linecap="round" stroke-linejoin="round" fill-opacity="0" stroke="rgb(168,168,168)" stroke-opacity="1" stroke-width="8" d=" M6.686999797821045,-22 C6.686999797821045,-22 -9.312999725341797,-10 -6.313000202178955,22"></path></g><g opacity="1" transform="matrix(1,0,0,1,228.35899353027344,273.3550109863281)"><path fill="url(#__lottie_element_13430)" fill-opacity="1" d=" M5.698999881744385,-105.75 C31,-107.75 58,-107.75 78.8949966430664,-105.75 C96.01699829101562,-104.11100006103516 113.11699676513672,-100.75800323486328 126.9219970703125,-90.49700164794922 C136,-83.75 145.00100708007812,-74.75 153.3070068359375,-58.25299835205078 C166.72300720214844,-31.608999252319336 178,2.25 178,2.25 C178,2.25 195,24.25 195,52.25 C195,82.25 190,107.25 190,107.25 C190,107.25 -195,107.25 -195,107.25 C-195,107.25 -195,86.25 -191,74.25 C-186,59.25 -176,43.25 -156,34.25 C-144.14500427246094,28.915000915527344 -105,14.25 -105,14.25 C-105,14.25 -67.83899688720703,-67.43199920654297 -23.416000366210938,-96.69300079345703 C-15.375,-101.98999786376953 -3.9000000953674316,-104.99099731445312 5.698999881744385,-105.75z"></path><path stroke-linecap="round" stroke-linejoin="round" fill-opacity="0" stroke="rgb(142,0,24)" stroke-opacity="1" stroke-width="8" d=" M5.698999881744385,-105.75 C31,-107.75 58,-107.75 78.8949966430664,-105.75 C96.01699829101562,-104.11100006103516 113.11699676513672,-100.75800323486328 126.9219970703125,-90.49700164794922 C136,-83.75 145.00100708007812,-74.75 153.3070068359375,-58.25299835205078 C166.72300720214844,-31.608999252319336 178,2.25 178,2.25 C178,2.25 195,24.25 195,52.25 C195,82.25 190,107.25 190,107.25 C190,107.25 -195,107.25 -195,107.25 C-195,107.25 -195,86.25 -191,74.25 C-186,59.25 -176,43.25 -156,34.25 C-144.14500427246094,28.915000915527344 -105,14.25 -105,14.25 C-105,14.25 -67.83899688720703,-67.43199920654297 -23.416000366210938,-96.69300079345703 C-15.375,-101.98999786376953 -3.9000000953674316,-104.99099731445312 5.698999881744385,-105.75z"></path></g><g opacity="1" transform="matrix(1,0,0,1,228.35899353027344,332.38299560546875)"><path fill="url(#__lottie_element_13431)" fill-opacity="1" d=" M195,-6.7779998779296875 C195,23.222000122070312 190,48.22200012207031 190,48.22200012207031 C190,48.22200012207031 -195,48.22200012207031 -195,48.22200012207031 C-195,48.22200012207031 -195,27.222000122070312 -191,15.222000122070312 C-186,0.22200000286102295 -176,-11.777999877929688 -156,-20.777999877929688 C-144.14999389648438,-26.107999801635742 -105,-40.77799987792969 -105,-40.77799987792969 C-105,-40.77799987792969 -105,-40.77799987792969 -104.98999786376953,-40.78799819946289 C-104.37000274658203,-40.99800109863281 -84.0999984741211,-47.77799987792969 -13.609999656677246,-47.77799987792969 C22.361000061035156,-47.77799987792969 69,-48.77799987792969 97,-47.77799987792969 C130.42599487304688,-46.58399963378906 175.51100158691406,-42.874000549316406 189.02999877929688,-32.428001403808594 C192.2899932861328,-24.187999725341797 195,-17.95800018310547 195,-6.7779998779296875z"></path></g><g opacity="0.5" transform="matrix(1,0,0,1,241.85899353027344,308.0450134277344)"><path stroke-linecap="round" stroke-linejoin="round" fill-opacity="0" stroke="rgb(255,255,255)" stroke-opacity="1" stroke-width="16" d=" M-175.5,15.5600004196167 C-175.5,15.5600004196167 -145.5,-0.4399999976158142 -117.05699920654297,-8.4399995803833 C-93.30400085449219,-15.121000289916992 -43.5,-15.4399995803833 13.5,-15.4399995803833 C70.5,-15.4399995803833 161.5,-18.440000534057617 175.5,5.559999942779541"></path></g><g opacity="1" transform="matrix(1,0,0,1,228.35899353027344,331.1210021972656)"><path stroke-linecap="round" stroke-linejoin="round" fill-opacity="0" stroke="rgb(142,0,24)" stroke-opacity="1" stroke-width="8" d=" M-102.14800262451172,-49.48400115966797 C-102.14800262451172,-49.48400115966797 -104.98999786376953,-43.5260009765625 -104.98999786376953,-43.5260009765625 C-105,-43.51599884033203 -144.14999389648438,-28.84600067138672 -156,-23.516000747680664 C-176,-14.515999794006348 -186,1.4839999675750732 -191,16.483999252319336 C-195,28.483999252319336 -195,49.48400115966797 -195,49.48400115966797 C-195,49.48400115966797 190,49.48400115966797 190,49.48400115966797 C190,49.48400115966797 195,24.483999252319336 195,-5.515999794006348 C195,-16.695999145507812 192.2899932861328,-26.926000595092773 189.02999877929688,-35.16600036621094"></path></g><g opacity="1" transform="matrix(1,0,0,1,224.4040069580078,407.6650085449219)"><path fill="url(#__lottie_element_13432)" fill-opacity="1" d=" M191.62899780273438,-26.940000534057617 C191.62899780273438,-26.940000534057617 31.805999755859375,-26.940000534057617 31.805999755859375,-26.940000534057617 C31.805999755859375,-26.940000534057617 -27.753000259399414,-26.940000534057617 -27.753000259399414,-26.940000534057617 C-27.753000259399414,-26.940000534057617 -191.62899780273438,-26.940000534057617 -191.62899780273438,-26.940000534057617 C-197.93099975585938,-26.940000534057617 -203.04100036621094,-21.89699935913086 -203.04100036621094,-15.677000045776367 C-203.04100036621094,-15.677000045776367 -203.04100036621094,8.307000160217285 -203.04100036621094,8.307000160217285 C-203.04100036621094,18.597000122070312 -194.58900451660156,26.940000534057617 -184.16200256347656,26.940000534057617 C-184.16200256347656,26.940000534057617 -27.753000259399414,26.940000534057617 -27.753000259399414,26.940000534057617 C-27.753000259399414,26.940000534057617 31.805999755859375,26.940000534057617 31.805999755859375,26.940000534057617 C31.805999755859375,26.940000534057617 184.16200256347656,26.940000534057617 184.16200256347656,26.940000534057617 C194.58900451660156,26.940000534057617 203.04100036621094,18.597000122070312 203.04100036621094,8.307000160217285 C203.04100036621094,8.307000160217285 203.04100036621094,-15.677000045776367 203.04100036621094,-15.677000045776367 C203.04100036621094,-21.89699935913086 197.93099975585938,-26.940000534057617 191.62899780273438,-26.940000534057617z"></path></g><g opacity="1" transform="matrix(1,0,0,1,224.4040069580078,407.6650085449219)"><path stroke-linecap="round" stroke-linejoin="round" fill-opacity="0" stroke="rgb(104,0,27)" stroke-opacity="1" stroke-width="8" d=" M-191.62600708007812,-26.940000534057617 C-197.92799377441406,-26.940000534057617 -203.0449981689453,-21.899999618530273 -203.0449981689453,-15.680000305175781 C-203.0449981689453,-15.680000305175781 -203.0449981689453,8.3100004196167 -203.0449981689453,8.3100004196167 C-203.0449981689453,17.829999923706055 -195.80099487304688,25.68000030517578 -186.45899963378906,26.799999237060547 C-185.70899963378906,26.889999389648438 -184.93899536132812,26.940000534057617 -184.15899658203125,26.940000534057617 C-184.15899658203125,26.940000534057617 -61.85200119018555,26.940000534057617 -61.85200119018555,26.940000534057617 C-61.85200119018555,26.940000534057617 -27.756999969482422,26.940000534057617 -27.756999969482422,26.940000534057617 C-27.756999969482422,26.940000534057617 31.809999465942383,26.940000534057617 31.809999465942383,26.940000534057617 C31.809999465942383,26.940000534057617 64.82099914550781,26.940000534057617 64.82099914550781,26.940000534057617 C64.82099914550781,26.940000534057617 184.1580047607422,26.940000534057617 184.1580047607422,26.940000534057617 C185.98199462890625,26.940000534057617 187.7550048828125,26.68000030517578 189.427001953125,26.200000762939453 C197.2899932861328,23.950000762939453 203.0449981689453,16.790000915527344 203.0449981689453,8.3100004196167 C203.0449981689453,8.3100004196167 203.0449981689453,-15.680000305175781 203.0449981689453,-15.680000305175781 C203.0449981689453,-21.899999618530273 197.92799377441406,-26.940000534057617 191.62600708007812,-26.940000534057617"></path></g><g opacity="1" transform="matrix(1,0,0,1,226.4040069580078,380.72601318359375)"><path fill="rgb(238,0,0)" fill-opacity="1" d=" M187.1280059814453,0 C187.1280059814453,0 29.391000747680664,0 29.391000747680664,0 C29.391000747680664,0 -29.391000747680664,0 -29.391000747680664,0 C-29.391000747680664,0 -187.1280059814453,0 -187.1280059814453,0"></path><path stroke-linecap="round" stroke-linejoin="round" fill-opacity="0" stroke="rgb(255,176,176)" stroke-opacity="1" stroke-width="8" d=" M187.1280059814453,0 C187.1280059814453,0 29.391000747680664,0 29.391000747680664,0 C29.391000747680664,0 -29.391000747680664,0 -29.391000747680664,0 C-29.391000747680664,0 -187.1280059814453,0 -187.1280059814453,0"></path></g><g opacity="1" transform="matrix(1,0,0,1,58.387001037597656,331.5889892578125)"><path fill="rgb(255,255,255)" fill-opacity="1" d=" M15.008999824523926,-15.795999526977539 C10.399999618530273,-21.31100082397461 -1.3209999799728394,-14.322999954223633 -9.258000373840332,-4.1519999504089355 C-16.058000564575195,4.561999797821045 -18.1200008392334,13.300000190734863 -14.746000289916992,16.516000747680664 C-10.347000122070312,20.709999084472656 -2.2839999198913574,13.517000198364258 7.019999980926514,3.6480000019073486 C14.003999710083008,-3.759000062942505 18.788000106811523,-11.27400016784668 15.008999824523926,-15.795999526977539z"></path><path stroke-linecap="round" stroke-linejoin="round" fill-opacity="0" stroke="rgb(214,214,214)" stroke-opacity="1" stroke-width="8" d=" M15.008999824523926,-15.795999526977539 C10.399999618530273,-21.31100082397461 -1.3209999799728394,-14.322999954223633 -9.258000373840332,-4.1519999504089355 C-16.058000564575195,4.561999797821045 -18.1200008392334,13.300000190734863 -14.746000289916992,16.516000747680664 C-10.347000122070312,20.709999084472656 -2.2839999198913574,13.517000198364258 7.019999980926514,3.6480000019073486 C14.003999710083008,-3.759000062942505 18.788000106811523,-11.27400016784668 15.008999824523926,-15.795999526977539z"></path></g><g opacity="1" transform="matrix(1,0,0,1,51.630001068115234,344.46600341796875)"><path stroke-linecap="round" stroke-linejoin="round" fill-opacity="0" stroke="rgb(168,168,168)" stroke-opacity="1" stroke-width="8" d=" M-9.493000030517578,-1.840000033378601 C-9.711000442504883,0.5450000166893005 -9.229999542236328,2.4570000171661377 -7.988999843597412,3.640000104904175 C-4.2729997634887695,7.183000087738037 2.058000087738037,2.5989999771118164 9.543000221252441,-4.859000205993652"></path></g><g opacity="1" transform="matrix(1,0,0,1,383.9230041503906,233.68499755859375)"><path fill="url(#__lottie_element_13433)" fill-opacity="1" d=" M22.43600082397461,41.91999816894531 C22.43600082397461,41.91999816894531 20.43600082397461,27.920000076293945 9.435999870300293,2.9200000762939453 C-0.6650000214576721,-20.035999298095703 -18.56399917602539,-42.08000183105469 -18.56399917602539,-42.08000183105469 C-20.43899917602539,-41.70500183105469 -23.26799964904785,-36.7130012512207 -22.20400047302246,-34.00299835205078 C-15.564000129699707,-17.079999923706055 -6.564000129699707,-3.0799999237060547 10.435999870300293,37.91999816894531 C12.668999671936035,43.305999755859375 22.43600082397461,41.91999816894531 22.43600082397461,41.91999816894531z"></path><path stroke-linecap="round" stroke-linejoin="round" fill-opacity="0" stroke="rgb(21,70,81)" stroke-opacity="1" stroke-width="8" d=" M22.43600082397461,41.91999816894531 C22.43600082397461,41.91999816894531 20.43600082397461,27.920000076293945 9.435999870300293,2.9200000762939453 C-0.6650000214576721,-20.035999298095703 -18.56399917602539,-42.08000183105469 -18.56399917602539,-42.08000183105469 C-20.43899917602539,-41.70500183105469 -23.26799964904785,-36.7130012512207 -22.20400047302246,-34.00299835205078 C-15.564000129699707,-17.079999923706055 -6.564000129699707,-3.0799999237060547 10.435999870300293,37.91999816894531 C12.668999671936035,43.305999755859375 22.43600082397461,41.91999816894531 22.43600082397461,41.91999816894531z"></path></g><g opacity="0.5" transform="matrix(1,0,0,1,273.8590087890625,182.60499572753906)"><path stroke-linecap="round" stroke-linejoin="round" fill-opacity="0" stroke="rgb(255,255,255)" stroke-opacity="1" stroke-width="8" d=" M75.5,6 C64.5,-3 42.5099983215332,-9 -5.5,-9 C-47.5,-9 -59.5,-5 -75.5,9"></path></g><g opacity="1" transform="matrix(1,0,0,1,418.0350036621094,309.2909851074219)"><path fill="url(#__lottie_element_13434)" fill-opacity="1" d=" M10.121999740600586,0.09200000017881393 C7.75,-11.869999885559082 -0.9079999923706055,-20.740999221801758 -7.034999847412109,-17.065000534057617 C-11.368000030517578,-14.46500015258789 -13.083999633789062,-0.8410000205039978 -7.034999847412109,11.121000289916992 C-3.009000062942505,19.08300018310547 15.001999855041504,24.69700050354004 10.121999740600586,0.09200000017881393z"></path><path stroke-linecap="round" stroke-linejoin="round" fill-opacity="0" stroke="rgb(109,108,108)" stroke-opacity="1" stroke-width="8" d=" M10.121999740600586,0.09200000017881393 C7.75,-11.869999885559082 -0.9079999923706055,-20.740999221801758 -7.034999847412109,-17.065000534057617 C-11.368000030517578,-14.46500015258789 -13.083999633789062,-0.8410000205039978 -7.034999847412109,11.121000289916992 C-3.009000062942505,19.08300018310547 15.001999855041504,24.69700050354004 10.121999740600586,0.09200000017881393z"></path></g><g opacity="1" transform="matrix(1,0,0,1,409.0409851074219,306.3190002441406)"><path stroke-linecap="round" stroke-linejoin="round" fill-opacity="0" stroke="rgb(214,214,214)" stroke-opacity="1" stroke-width="8" d=" M1.9600000381469727,-14.093000411987305 C-2.372999906539917,-11.493000030517578 -4.089000225067139,2.13100004196167 1.9600000381469727,14.093000411987305"></path></g><g opacity="1" transform="matrix(1,0,0,1,376.20599365234375,292.5429992675781)"><path stroke-linecap="round" stroke-linejoin="round" fill-opacity="0" stroke="rgb(255,255,255)" stroke-opacity="1" stroke-width="8" d=" M-1.0069999694824219,-0.16200000047683716 C-0.32600000500679016,-0.057999998331069946 0.34599998593330383,0.050999999046325684 1.0069999694824219,0.16200000047683716"></path></g><g opacity="1" transform="matrix(1,0,0,1,354.125,290.1130065917969)"><path stroke-linecap="round" stroke-linejoin="round" fill-opacity="0" stroke="rgb(255,255,255)" stroke-opacity="1" stroke-width="8" d=" M-7.361999988555908,-0.6389999985694885 C-7.361999988555908,-0.6389999985694885 -0.8740000128746033,-0.10199999809265137 7.361999988555908,0.6389999985694885"></path></g><g opacity="1" transform="matrix(1,0,0,1,0,0)"><path fill="rgb(142,1,25)" fill-opacity="1" d=" M115.5,346 C115.5,346 82.5,347.5 82.5,347.5 C82.5,347.5 54.75,374.75 54.75,374.75 C54.75,374.75 43,438.625 43,438.625 C43,438.625 162.75,439 162.75,439 C162.75,439 165.5,406 165.5,406 C165.5,406 145,364.5 145,364.5 C145,364.5 115.5,346 115.5,346z"></path></g><g opacity="1" transform="matrix(1,0,0,1,246.5,0)"><path fill="rgb(142,1,25)" fill-opacity="1" d=" M115.5,346 C115.5,346 82.5,347.5 82.5,347.5 C82.5,347.5 56.25,374.75 56.25,374.75 C56.25,374.75 43,438.625 43,438.625 C43,438.625 162.75,439 162.75,439 C162.75,439 167.25,406 167.25,406 C167.25,406 145,364.5 145,364.5 C145,364.5 115.5,346 115.5,346z"></path></g></g><g style="display: block;" transform="matrix(1,0,0,1,32,0)" opacity="1"><g opacity="1" transform="matrix(1,0,0,1,244.93600463867188,232.10499572753906)"><path fill="url(#__lottie_element_13459)" fill-opacity="1" d=" M16.42300033569336,-48.5 C-12.57699966430664,-48.5 -28.420000076293945,-47.5369987487793 -48.57699966430664,-24.5 C-62.57699966430664,-8.5 -83.5770034790039,21.5 -88.61399841308594,37.020999908447266 C-90.43299865722656,42.625999450683594 -86.64299774169922,48.5 -80.75,48.5 C-80.75,48.5 81.27799987792969,48.5 81.27799987792969,48.5 C86.08799743652344,48.5 89.75,44.19200134277344 88.96600341796875,39.44599914550781 C87.36499786376953,29.760000228881836 84.59500122070312,13.72700023651123 81.4229965209961,-1.5 C77.66200256347656,-19.551000595092773 73.4229965209961,-46.5 47.42300033569336,-47.5 C21.42300033569336,-48.5 22.92799949645996,-48.5 16.42300033569336,-48.5z"></path></g><g opacity="0.5" transform="matrix(1,0,0,1,195,268)"><path fill="rgb(255,255,255)" fill-opacity="1" d=" M13.187000274658203,-75.33399963378906 C13.187000274658203,-75.33399963378906 -39.88999938964844,4.790999889373779 -39.88999938964844,4.790999889373779 C-39.88999938964844,4.790999889373779 -39.31800079345703,3.36899995803833 -39.31800079345703,3.36899995803833 C-39.31800079345703,3.36899995803833 -40.00299835205078,7.439000129699707 -40.00299835205078,7.439000129699707 C-40.00299835205078,7.439000129699707 -39.03499984741211,1.8910000324249268 -39.03499984741211,1.8910000324249268 C-39.03499984741211,1.8910000324249268 -18.091999053955078,-35.91400146484375 -18.091999053955078,-35.91400146484375 C-18.091999053955078,-35.91400146484375 9.652000427246094,-71.29399871826172 9.652000427246094,-71.29399871826172 C9.652000427246094,-71.29399871826172 13.187000274658203,-75.33399963378906 13.187000274658203,-75.33399963378906z"></path></g><g opacity="1" transform="matrix(1,0,0,1,244.93600463867188,232.10499572753906)"><path stroke-linecap="round" stroke-linejoin="round" fill-opacity="0" stroke="rgb(21,70,81)" stroke-opacity="1" stroke-width="8" d=" M16.42300033569336,-48.5 C-12.57699966430664,-48.5 -28.420000076293945,-47.5369987487793 -48.57699966430664,-24.5 C-62.57699966430664,-8.5 -83.5770034790039,21.5 -88.61399841308594,37.020999908447266 C-90.43299865722656,42.625999450683594 -86.64299774169922,48.5 -80.75,48.5 C-80.75,48.5 81.27799987792969,48.5 81.27799987792969,48.5 C86.08799743652344,48.5 89.75,44.19200134277344 88.96600341796875,39.44599914550781 C87.36499786376953,29.760000228881836 84.59500122070312,13.72700023651123 81.4229965209961,-1.5 C77.66200256347656,-19.551000595092773 73.4229965209961,-46.5 47.42300033569336,-47.5 C21.42300033569336,-48.5 22.92799949645996,-48.5 16.42300033569336,-48.5z"></path></g></g><g style="display: block;" transform="matrix(1,0,0,1,208.13299560546875,285.4570007324219)" opacity="1"><g opacity="1" transform="matrix(1,0,0,1,0,0)"><path fill="url(#__lottie_element_13454)" fill-opacity="1" d=" M16.790000915527344,-14.14799976348877 C16.790000915527344,-14.14799976348877 16.790000915527344,14.14799976348877 16.790000915527344,14.14799976348877 C16.790000915527344,14.14799976348877 -2.6419999599456787,14.14799976348877 -2.6419999599456787,14.14799976348877 C-10.456000328063965,14.14799976348877 -16.790000915527344,7.814000129699707 -16.790000915527344,0 C-16.790000915527344,0 -16.790000915527344,0 -16.790000915527344,0 C-16.790000915527344,-7.814000129699707 -10.456000328063965,-14.14799976348877 -2.6419999599456787,-14.14799976348877 C-2.6419999599456787,-14.14799976348877 16.790000915527344,-14.14799976348877 16.790000915527344,-14.14799976348877z"></path><path stroke-linecap="round" stroke-linejoin="round" fill-opacity="0" stroke="rgb(142,0,24)" stroke-opacity="1" stroke-width="8" d=" M16.790000915527344,-14.14799976348877 C16.790000915527344,-14.14799976348877 16.790000915527344,14.14799976348877 16.790000915527344,14.14799976348877 C16.790000915527344,14.14799976348877 -2.6419999599456787,14.14799976348877 -2.6419999599456787,14.14799976348877 C-10.456000328063965,14.14799976348877 -16.790000915527344,7.814000129699707 -16.790000915527344,0 C-16.790000915527344,0 -16.790000915527344,0 -16.790000915527344,0 C-16.790000915527344,-7.814000129699707 -10.456000328063965,-14.14799976348877 -2.6419999599456787,-14.14799976348877 C-2.6419999599456787,-14.14799976348877 16.790000915527344,-14.14799976348877 16.790000915527344,-14.14799976348877z"></path></g><g opacity="1" transform="matrix(1,0,0,1,19.090999603271484,-0.0430000014603138)"><path fill="url(#__lottie_element_13455)" fill-opacity="1" d=" M-2.625,14.128000259399414 C-2.7079999446868896,14.128000259399414 -2.7760000228881836,9.52400016784668 -2.7760000228881836,3.8450000286102295 C-2.7760000228881836,3.8450000286102295 -2.7760000228881836,-3.884999990463257 -2.7760000228881836,-3.884999990463257 C-2.7760000228881836,-9.564000129699707 -2.7079999446868896,-14.168000221252441 -2.625,-14.168000221252441 C-2.5420000553131104,-14.168000221252441 -2.4739999771118164,-9.564000129699707 -2.4739999771118164,-3.884999990463257 C-2.4739999771118164,-3.884999990463257 -2.4739999771118164,3.8450000286102295 -2.4739999771118164,3.8450000286102295 C-2.4739999771118164,9.52400016784668 -2.5420000553131104,14.128000259399414 -2.625,14.128000259399414z"></path><path stroke-linecap="round" stroke-linejoin="round" fill-opacity="0" stroke="rgb(142,0,24)" stroke-opacity="1" stroke-width="8" d=" M-2.625,14.128000259399414 C-2.7079999446868896,14.128000259399414 -2.7760000228881836,9.52400016784668 -2.7760000228881836,3.8450000286102295 C-2.7760000228881836,3.8450000286102295 -2.7760000228881836,-3.884999990463257 -2.7760000228881836,-3.884999990463257 C-2.7760000228881836,-9.564000129699707 -2.7079999446868896,-14.168000221252441 -2.625,-14.168000221252441 C-2.5420000553131104,-14.168000221252441 -2.4739999771118164,-9.564000129699707 -2.4739999771118164,-3.884999990463257 C-2.4739999771118164,-3.884999990463257 -2.4739999771118164,3.8450000286102295 -2.4739999771118164,3.8450000286102295 C-2.4739999771118164,9.52400016784668 -2.5420000553131104,14.128000259399414 -2.625,14.128000259399414z"></path></g></g><g style="display: block;" transform="matrix(1,0,0,1,36.99998474121094,0)" opacity="1"><g opacity="1" transform="matrix(1,0,0,1,0,0)"><g opacity="1" transform="matrix(1,0,0,1,349.7090148925781,420.3919982910156)"><path fill="url(#__lottie_element_13448)" fill-opacity="1" d=" M52.37799835205078,0 C52.37799835205078,28.92799949645996 28.92799949645996,52.37799835205078 0,52.37799835205078 C-28.92799949645996,52.37799835205078 -52.37799835205078,28.92799949645996 -52.37799835205078,0 C-52.37799835205078,-28.92799949645996 -28.92799949645996,-52.37799835205078 0,-52.37799835205078 C28.92799949645996,-52.37799835205078 52.37799835205078,-28.92799949645996 52.37799835205078,0z"></path><path stroke-linecap="round" stroke-linejoin="round" fill-opacity="0" stroke="rgb(0,0,0)" stroke-opacity="1" stroke-width="8" d=" M52.37799835205078,0 C52.37799835205078,28.92799949645996 28.92799949645996,52.37799835205078 0,52.37799835205078 C-28.92799949645996,52.37799835205078 -52.37799835205078,28.92799949645996 -52.37799835205078,0 C-52.37799835205078,-28.92799949645996 -28.92799949645996,-52.37799835205078 0,-52.37799835205078 C28.92799949645996,-52.37799835205078 52.37799835205078,-28.92799949645996 52.37799835205078,0z"></path></g><g opacity="1" transform="matrix(1,0,0,1,352.3450012207031,391.77899169921875)"><path stroke-linecap="round" stroke-linejoin="round" fill-opacity="0" stroke="rgb(77,77,79)" stroke-opacity="1" stroke-width="8" d=" M-39.729000091552734,4.557000160217285 C-31.690000534057617,-7.3420000076293945 -18.076000213623047,-15.164999961853027 -2.634999990463257,-15.164999961853027 C17.031999588012695,-15.164999961853027 33.73400115966797,-2.4739999771118164 39.729000091552734,15.164999961853027"></path></g><g opacity="1" transform="matrix(1,0,0,1,349.7090148925781,420.3919982910156)"><path fill="url(#__lottie_element_13449)" fill-opacity="1" d=" M35.16600036621094,0 C35.16600036621094,19.42099952697754 19.422000885009766,35.16600036621094 0,35.16600036621094 C-19.422000885009766,35.16600036621094 -35.16600036621094,19.42099952697754 -35.16600036621094,0 C-35.16600036621094,-19.42099952697754 -19.422000885009766,-35.16600036621094 0,-35.16600036621094 C19.422000885009766,-35.16600036621094 35.16600036621094,-19.42099952697754 35.16600036621094,0z"></path><path stroke-linecap="round" stroke-linejoin="round" fill-opacity="0" stroke="rgb(0,0,0)" stroke-opacity="1" stroke-width="8" d=" M35.16600036621094,0 C35.16600036621094,19.42099952697754 19.422000885009766,35.16600036621094 0,35.16600036621094 C-19.422000885009766,35.16600036621094 -35.16600036621094,19.42099952697754 -35.16600036621094,0 C-35.16600036621094,-19.42099952697754 -19.422000885009766,-35.16600036621094 0,-35.16600036621094 C19.422000885009766,-35.16600036621094 35.16600036621094,-19.42099952697754 35.16600036621094,0z"></path></g><g opacity="1" transform="matrix(1,0,0,1,349.7090148925781,420.3919982910156)"><path fill="url(#__lottie_element_13450)" fill-opacity="1" d=" M21.792999267578125,0 C21.792999267578125,12.03600025177002 12.03600025177002,21.792999267578125 0,21.792999267578125 C-12.03600025177002,21.792999267578125 -21.792999267578125,12.03600025177002 -21.792999267578125,0 C-21.792999267578125,-12.03600025177002 -12.03600025177002,-21.792999267578125 0,-21.792999267578125 C12.03600025177002,-21.792999267578125 21.792999267578125,-12.03600025177002 21.792999267578125,0z"></path><path stroke-linecap="butt" stroke-linejoin="miter" fill-opacity="0" stroke-miterlimit="10" stroke="rgb(52,55,56)" stroke-opacity="1" stroke-width="6" d=" M21.792999267578125,0 C21.792999267578125,12.03600025177002 12.03600025177002,21.792999267578125 0,21.792999267578125 C-12.03600025177002,21.792999267578125 -21.792999267578125,12.03600025177002 -21.792999267578125,0 C-21.792999267578125,-12.03600025177002 -12.03600025177002,-21.792999267578125 0,-21.792999267578125 C12.03600025177002,-21.792999267578125 21.792999267578125,-12.03600025177002 21.792999267578125,0z"></path></g></g></g><g style="display: block;" transform="matrix(1,0,0,1,37,0)" opacity="1"><g opacity="1" transform="matrix(1,0,0,1,0,0)"><g opacity="1" transform="matrix(1,0,0,1,102.00900268554688,420.3919982910156)"><path fill="url(#__lottie_element_13442)" fill-opacity="1" d=" M-52.37799835205078,0 C-52.37799835205078,28.92799949645996 -28.92799949645996,52.37799835205078 0,52.37799835205078 C28.92799949645996,52.37799835205078 52.37799835205078,28.92799949645996 52.37799835205078,0 C52.37799835205078,-28.92799949645996 28.92799949645996,-52.37799835205078 0,-52.37799835205078 C-28.92799949645996,-52.37799835205078 -52.37799835205078,-28.92799949645996 -52.37799835205078,0z"></path><path stroke-linecap="round" stroke-linejoin="round" fill-opacity="0" stroke="rgb(0,0,0)" stroke-opacity="1" stroke-width="8" d=" M-52.37799835205078,0 C-52.37799835205078,28.92799949645996 -28.92799949645996,52.37799835205078 0,52.37799835205078 C28.92799949645996,52.37799835205078 52.37799835205078,28.92799949645996 52.37799835205078,0 C52.37799835205078,-28.92799949645996 28.92799949645996,-52.37799835205078 0,-52.37799835205078 C-28.92799949645996,-52.37799835205078 -52.37799835205078,-28.92799949645996 -52.37799835205078,0z"></path></g><g opacity="1" transform="matrix(1,0,0,1,99.3740005493164,391.77899169921875)"><path stroke-linecap="round" stroke-linejoin="round" fill-opacity="0" stroke="rgb(77,77,79)" stroke-opacity="1" stroke-width="8" d=" M39.729000091552734,4.557000160217285 C31.690000534057617,-7.3420000076293945 18.076000213623047,-15.164999961853027 2.634999990463257,-15.164999961853027 C-17.031999588012695,-15.164999961853027 -33.73400115966797,-2.4739999771118164 -39.729000091552734,15.164999961853027"></path></g><g opacity="1" transform="matrix(1,0,0,1,102.00900268554688,420.3919982910156)"><path fill="url(#__lottie_element_13443)" fill-opacity="1" d=" M-35.16600036621094,0 C-35.16600036621094,19.42099952697754 -19.42099952697754,35.16600036621094 0,35.16600036621094 C19.422000885009766,35.16600036621094 35.16600036621094,19.42099952697754 35.16600036621094,0 C35.16600036621094,-19.42099952697754 19.422000885009766,-35.16600036621094 0,-35.16600036621094 C-19.42099952697754,-35.16600036621094 -35.16600036621094,-19.42099952697754 -35.16600036621094,0z"></path><path stroke-linecap="round" stroke-linejoin="round" fill-opacity="0" stroke="rgb(0,0,0)" stroke-opacity="1" stroke-width="8" d=" M-35.16600036621094,0 C-35.16600036621094,19.42099952697754 -19.42099952697754,35.16600036621094 0,35.16600036621094 C19.422000885009766,35.16600036621094 35.16600036621094,19.42099952697754 35.16600036621094,0 C35.16600036621094,-19.42099952697754 19.422000885009766,-35.16600036621094 0,-35.16600036621094 C-19.42099952697754,-35.16600036621094 -35.16600036621094,-19.42099952697754 -35.16600036621094,0z"></path></g><g opacity="1" transform="matrix(1,0,0,1,102.00900268554688,420.3919982910156)"><path fill="url(#__lottie_element_13444)" fill-opacity="1" d=" M-21.792999267578125,0 C-21.792999267578125,12.03600025177002 -12.03600025177002,21.792999267578125 0,21.792999267578125 C12.03600025177002,21.792999267578125 21.792999267578125,12.03600025177002 21.792999267578125,0 C21.792999267578125,-12.03600025177002 12.03600025177002,-21.792999267578125 0,-21.792999267578125 C-12.03600025177002,-21.792999267578125 -21.792999267578125,-12.03600025177002 -21.792999267578125,0z"></path><path stroke-linecap="butt" stroke-linejoin="miter" fill-opacity="0" stroke-miterlimit="10" stroke="rgb(52,55,56)" stroke-opacity="1" stroke-width="6" d=" M-21.792999267578125,0 C-21.792999267578125,12.03600025177002 -12.03600025177002,21.792999267578125 0,21.792999267578125 C12.03600025177002,21.792999267578125 21.792999267578125,12.03600025177002 21.792999267578125,0 C21.792999267578125,-12.03600025177002 12.03600025177002,-21.792999267578125 0,-21.792999267578125 C-12.03600025177002,-21.792999267578125 -21.792999267578125,-12.03600025177002 -21.792999267578125,0z"></path></g></g></g><g style="display: block;" transform="matrix(1,0,0,1,37,0)" opacity="1"><g opacity="1" transform="matrix(1,0,0,1,349.8489990234375,391.77899169921875)"><path fill="url(#__lottie_element_13437)" fill-opacity="1" d=" M53.43000030517578,46.29999923706055 C55.2400016784668,40.790000915527344 56.220001220703125,34.90999984741211 56.220001220703125,28.799999237060547 C56.220001220703125,-2.2899999618530273 30.93000030517578,-27.579999923706055 -0.1599999964237213,-27.579999923706055 C-31.25,-27.579999923706055 -56.540000915527344,-2.2899999618530273 -56.540000915527344,28.799999237060547 C-56.540000915527344,35.13999938964844 -55.4900016784668,41.2400016784668 -53.540000915527344,46.939998626708984 C-53.540000915527344,46.939998626708984 -61.4900016784668,46.9900016784668 -61.4900016784668,46.9900016784668 C-61.47999954223633,39.70000076293945 -61.470001220703125,29.049999237060547 -61.470001220703125,28.59000015258789 C-61.470001220703125,15.920000076293945 -59.060001373291016,1.5 -54.79999923706055,-8.869999885559082 C-54.619998931884766,-9.300000190734863 -54.439998626708984,-9.729999542236328 -54.2599983215332,-10.149999618530273 C-43.83000183105469,-33.86000061035156 -23.209999084472656,-46.9900016784668 0,-46.9900016784668 C23.209999084472656,-46.9900016784668 43.83000183105469,-33.86000061035156 54.27000045776367,-10.149999618530273 C54.45000076293945,-9.729999542236328 54.63999938964844,-9.300000190734863 54.81999969482422,-8.869999885559082 C59.06999969482422,1.5 61.47999954223633,15.920000076293945 61.47999954223633,28.59000015258789 C61.47999954223633,28.850000381469727 61.47999954223633,39.2400016784668 61.4900016784668,46.25 C61.4900016784668,46.25 53.43000030517578,46.29999923706055 53.43000030517578,46.29999923706055z"></path></g><g opacity="1" transform="matrix(1,0,0,1,349.8500061035156,389.7879943847656)"><path stroke-linecap="round" stroke-linejoin="round" fill-opacity="0" stroke="rgb(142,0,24)" stroke-opacity="1" stroke-width="8" d=" M61.4900016784668,44.2599983215332 C61.47999954223633,37.25 61.47999954223633,30.84000015258789 61.47999954223633,30.579999923706055 C61.47999954223633,17.90999984741211 59.06999969482422,3.490000009536743 54.81999969482422,-6.880000114440918 C54.63999938964844,-7.309999942779541 54.45000076293945,-7.739999771118164 54.27000045776367,-8.15999984741211 C43.83000183105469,-31.8700008392334 23.209999084472656,-45 0,-45 C-23.209999084472656,-45 -43.83000183105469,-31.8700008392334 -54.2599983215332,-8.15999984741211 C-54.439998626708984,-7.739999771118164 -54.619998931884766,-7.309999942779541 -54.79999923706055,-6.880000114440918 C-59.060001373291016,3.490000009536743 -61.470001220703125,17.90999984741211 -61.470001220703125,30.579999923706055 C-61.470001220703125,31.040000915527344 -61.47999954223633,37.709999084472656 -61.4900016784668,45"></path></g><g opacity="1" transform="matrix(1,0,0,1,101.8489990234375,393.7590026855469)"><path fill="url(#__lottie_element_13438)" fill-opacity="1" d=" M53.5099983215332,44.9900016784668 C55.459999084472656,39.290000915527344 56.52000045776367,33.16999816894531 56.52000045776367,26.81999969482422 C56.52000045776367,-4.269999980926514 31.229999542236328,-29.559999465942383 0.14000000059604645,-29.559999465942383 C-30.950000762939453,-29.559999465942383 -56.2400016784668,-4.269999980926514 -56.2400016784668,26.81999969482422 C-56.2400016784668,33.130001068115234 -55.20000076293945,39.20000076293945 -53.27000045776367,44.869998931884766 C-53.27000045776367,44.869998931884766 -61.4900016784668,44.86000061035156 -61.4900016784668,44.86000061035156 C-61.47999954223633,37.619998931884766 -61.47999954223633,30.850000381469727 -61.47999954223633,30.579999923706055 C-61.47999954223633,17.90999984741211 -59.06999969482422,3.490000009536743 -54.81999969482422,-6.880000114440918 C-54.63999938964844,-7.309999942779541 -54.45000076293945,-7.739999771118164 -54.27000045776367,-8.15999984741211 C-43.83000183105469,-31.8700008392334 -23.209999084472656,-45 0,-45 C23.209999084472656,-45 43.83000183105469,-31.8700008392334 54.2599983215332,-8.15999984741211 C54.439998626708984,-7.739999771118164 54.619998931884766,-7.309999942779541 54.79999923706055,-6.880000114440918 C59.060001373291016,3.490000009536743 61.470001220703125,17.90999984741211 61.470001220703125,30.579999923706055 C61.470001220703125,31.040000915527344 61.47999954223633,37.709999084472656 61.4900016784668,45 C61.4900016784668,45 53.5099983215332,44.9900016784668 53.5099983215332,44.9900016784668z"></path></g><g opacity="1" transform="matrix(1,0,0,1,101.8499984741211,389.7879943847656)"><path stroke-linecap="round" stroke-linejoin="round" fill-opacity="0" stroke="rgb(142,0,24)" stroke-opacity="1" stroke-width="8" d=" M-61.4900016784668,44.86000061035156 C-61.47999954223633,37.619998931884766 -61.47999954223633,30.850000381469727 -61.47999954223633,30.579999923706055 C-61.47999954223633,17.90999984741211 -59.06999969482422,3.490000009536743 -54.81999969482422,-6.880000114440918 C-54.63999938964844,-7.309999942779541 -54.45000076293945,-7.739999771118164 -54.27000045776367,-8.15999984741211 C-43.83000183105469,-31.8700008392334 -23.209999084472656,-45 0,-45 C23.209999084472656,-45 43.83000183105469,-31.8700008392334 54.2599983215332,-8.15999984741211 C54.439998626708984,-7.739999771118164 54.619998931884766,-7.309999942779541 54.79999923706055,-6.880000114440918 C59.060001373291016,3.490000009536743 61.470001220703125,17.90999984741211 61.470001220703125,30.579999923706055 C61.470001220703125,31.040000915527344 61.47999954223633,37.709999084472656 61.4900016784668,45"></path></g><g opacity="0.5" transform="matrix(1,0,0,1,353.3590087890625,359.45599365234375)"><path stroke-linecap="round" stroke-linejoin="round" fill-opacity="0" stroke="rgb(255,255,255)" stroke-opacity="1" stroke-width="8" d=" M-31,1.1490000486373901 C-22,-5.85099983215332 8,-15.85099983215332 31,7.14900016784668"></path></g><g opacity="1" transform="matrix(1,0,0,1,364.3479919433594,354.6709899902344)"><path stroke-linecap="round" stroke-linejoin="round" fill-opacity="0" stroke="rgb(255,255,255)" stroke-opacity="1" stroke-width="8" d=" M-4.99399995803833,-1.5379999876022339 C-1.6890000104904175,-0.9179999828338623 1.6629999876022339,0.07800000160932541 4.99399995803833,1.5379999876022339"></path></g><g opacity="0.5" transform="matrix(1,0,0,1,107.85900115966797,359.2019958496094)"><path stroke-linecap="round" stroke-linejoin="round" fill-opacity="0" stroke="rgb(255,255,255)" stroke-opacity="1" stroke-width="8" d=" M-27.5,-1.597000002861023 C-27.5,-1.597000002861023 1.5,-16.597000122070312 27.5,6.4029998779296875"></path></g><g opacity="1" transform="matrix(1,0,0,1,109.94300079345703,354.072998046875)"><path stroke-linecap="round" stroke-linejoin="round" fill-opacity="0" stroke="rgb(255,255,255)" stroke-opacity="1" stroke-width="8" d=" M-8.072999954223633,-1.2710000276565552 C-3.121000051498413,-1.3250000476837158 2.375999927520752,-0.6679999828338623 8.072999954223633,1.274999976158142"></path></g></g></g></svg>