<svg xmlns="http://www.w3.org/2000/svg" viewBox="0 0 592 512" width="592" height="512" style="width: 100%; height: 100%; transform: translate3d(0,0,0);" preserveAspectRatio="xMidYMid meet"><defs><clipPath id="__lottie_element_2168"><rect width="592" height="512" x="0" y="0"></rect></clipPath><clipPath id="__lottie_element_2171"><path d="M0,0 L512,0 L512,512 L0,512z"></path></clipPath><clipPath id="__lottie_element_2180"><path d="M0,0 L512,0 L512,512 L0,512z"></path></clipPath><clipPath id="__lottie_element_2189"><path d="M0,0 L512,0 L512,512 L0,512z"></path></clipPath><clipPath id="__lottie_element_2198"><path d="M0,0 L512,0 L512,512 L0,512z"></path></clipPath><clipPath id="__lottie_element_2207"><path d="M0,0 L512,0 L512,512 L0,512z"></path></clipPath><clipPath id="__lottie_element_2216"><path d="M0,0 L512,0 L512,512 L0,512z"></path></clipPath><clipPath id="__lottie_element_2225"><path d="M0,0 L512,0 L512,512 L0,512z"></path></clipPath><clipPath id="__lottie_element_2234"><path d="M0,0 L512,0 L512,512 L0,512z"></path></clipPath><clipPath id="__lottie_element_2243"><path d="M0,0 L512,0 L512,512 L0,512z"></path></clipPath><clipPath id="__lottie_element_2252"><path d="M0,0 L512,0 L512,512 L0,512z"></path></clipPath><clipPath id="__lottie_element_2297"><path d="M0,0 L512,0 L512,512 L0,512z"></path></clipPath><clipPath id="__lottie_element_2306"><path d="M0,0 L512,0 L512,512 L0,512z"></path></clipPath><clipPath id="__lottie_element_2315"><path d="M0,0 L512,0 L512,512 L0,512z"></path></clipPath><clipPath id="__lottie_element_2324"><path d="M0,0 L512,0 L512,512 L0,512z"></path></clipPath><clipPath id="__lottie_element_2333"><path d="M0,0 L512,0 L512,512 L0,512z"></path></clipPath><clipPath id="__lottie_element_2342"><path d="M0,0 L512,0 L512,512 L0,512z"></path></clipPath><clipPath id="__lottie_element_2351"><path d="M0,0 L512,0 L512,512 L0,512z"></path></clipPath><clipPath id="__lottie_element_2360"><path d="M0,0 L512,0 L512,512 L0,512z"></path></clipPath><clipPath id="__lottie_element_2369"><path d="M0,0 L512,0 L512,512 L0,512z"></path></clipPath><clipPath id="__lottie_element_2378"><path d="M0,0 L512,0 L512,512 L0,512z"></path></clipPath><clipPath id="__lottie_element_2387"><path d="M0,0 L512,0 L512,512 L0,512z"></path></clipPath><clipPath id="__lottie_element_2396"><path d="M0,0 L512,0 L512,512 L0,512z"></path></clipPath><clipPath id="__lottie_element_2405"><path d="M0,0 L512,0 L512,512 L0,512z"></path></clipPath><clipPath id="__lottie_element_2414"><path d="M0,0 L512,0 L512,512 L0,512z"></path></clipPath><clipPath id="__lottie_element_2423"><path d="M0,0 L512,0 L512,512 L0,512z"></path></clipPath><clipPath id="__lottie_element_2432"><path d="M0,0 L512,0 L512,512 L0,512z"></path></clipPath><clipPath id="__lottie_element_2441"><path d="M0,0 L512,0 L512,512 L0,512z"></path></clipPath><clipPath id="__lottie_element_2450"><path d="M0,0 L512,0 L512,512 L0,512z"></path></clipPath><clipPath id="__lottie_element_2459"><path d="M0,0 L512,0 L512,512 L0,512z"></path></clipPath><clipPath id="__lottie_element_2468"><path d="M0,0 L512,0 L512,512 L0,512z"></path></clipPath><clipPath id="__lottie_element_2477"><path d="M0,0 L512,0 L512,512 L0,512z"></path></clipPath><clipPath id="__lottie_element_2486"><path d="M0,0 L512,0 L512,512 L0,512z"></path></clipPath><clipPath id="__lottie_element_2495"><path d="M0,0 L512,0 L512,512 L0,512z"></path></clipPath><clipPath id="__lottie_element_2504"><path d="M0,0 L512,0 L512,512 L0,512z"></path></clipPath></defs><g clip-path="url(#__lottie_element_2168)"><g clip-path="url(#__lottie_element_2504)" style="display: none;"><g style="display: none;"><g><path></path></g><g><path></path></g></g></g><g clip-path="url(#__lottie_element_2495)" style="display: none;"><g style="display: none;"><g><path></path></g><g><path></path></g></g></g><g clip-path="url(#__lottie_element_2486)" style="display: none;"><g style="display: none;"><g><path></path></g><g><path></path></g></g></g><g clip-path="url(#__lottie_element_2477)" style="display: none;"><g style="display: none;"><g><path></path></g><g><path></path></g></g></g><g clip-path="url(#__lottie_element_2468)" style="display: none;"><g style="display: none;"><g><path></path></g><g><path></path></g></g></g><g clip-path="url(#__lottie_element_2459)" style="display: none;"><g style="display: none;"><g><path></path></g><g><path></path></g></g></g><g clip-path="url(#__lottie_element_2450)" style="display: none;"><g style="display: none;"><g><path></path></g><g><path></path></g></g></g><g clip-path="url(#__lottie_element_2441)" style="display: none;"><g style="display: none;"><g><path></path></g><g><path></path></g></g></g><g clip-path="url(#__lottie_element_2432)" style="display: none;"><g style="display: none;"><g><path></path></g><g><path></path></g></g></g><g clip-path="url(#__lottie_element_2423)" style="display: none;"><g style="display: none;"><g><path></path></g><g><path></path></g></g></g><g clip-path="url(#__lottie_element_2414)" style="display: none;"><g style="display: none;"><g><path></path></g><g><path></path></g></g></g><g clip-path="url(#__lottie_element_2405)" style="display: none;"><g style="display: none;"><g><path></path></g><g><path></path></g></g></g><g clip-path="url(#__lottie_element_2396)" style="display: none;"><g style="display: none;"><g><path></path></g><g><path></path></g></g></g><g clip-path="url(#__lottie_element_2387)" style="display: none;"><g style="display: none;"><g><path></path></g><g><path></path></g></g></g><g clip-path="url(#__lottie_element_2378)" style="display: none;"><g style="display: none;"><g><path></path></g><g><path></path></g></g></g><g clip-path="url(#__lottie_element_2369)" style="display: none;"><g style="display: none;"><g><path></path></g><g><path></path></g></g></g><g clip-path="url(#__lottie_element_2360)" style="display: none;"><g style="display: none;"><g><path></path></g><g><path></path></g></g></g><g clip-path="url(#__lottie_element_2351)" style="display: none;"><g style="display: none;"><g><path></path></g><g><path></path></g></g></g><g clip-path="url(#__lottie_element_2342)" style="display: none;"><g style="display: none;"><g><path></path></g><g><path></path></g></g></g><g clip-path="url(#__lottie_element_2333)" style="display: none;"><g style="display: none;"><g><path></path></g><g><path></path></g></g></g><g clip-path="url(#__lottie_element_2324)" style="display: none;"><g style="display: none;"><g><path></path></g><g><path></path></g></g></g><g clip-path="url(#__lottie_element_2315)" style="display: none;"><g style="display: none;"><g><path></path></g><g><path></path></g></g></g><g clip-path="url(#__lottie_element_2306)" style="display: none;"><g style="display: none;"><g><path></path></g><g><path></path></g></g></g><g clip-path="url(#__lottie_element_2297)" style="display: none;"><g style="display: none;"><g><path></path></g><g><path></path></g></g></g><g style="display: block;" transform="matrix(1,0,0,1,236,268)" opacity="1"><g opacity="1" transform="matrix(1,0,0,1,0,0)"><path fill="rgb(39,92,212)" fill-opacity="1" d=" M-69.97200012207031,-156.41299438476562 C-69.97200012207031,-156.41299438476562 -174.8820037841797,-57.17300033569336 -174.8820037841797,-57.17300033569336 C-174.8820037841797,-57.17300033569336 -197.302001953125,-139.322998046875 -197.302001953125,-139.322998046875 C-197.302001953125,-139.33299255371094 -197.302001953125,-139.33299255371094 -197.302001953125,-139.33299255371094 C-197.302001953125,-139.33299255371094 -202.52200317382812,-158.47300720214844 -202.52200317382812,-158.47300720214844 C-202.52200317382812,-158.47300720214844 -208.11199951171875,-178.9530029296875 -208.11199951171875,-178.9530029296875 C-208.11199951171875,-178.9530029296875 -208.14199829101562,-179.06300354003906 -208.14199829101562,-179.06300354003906 C-208.14199829101562,-179.06300354003906 -212.49200439453125,-195.01300048828125 -212.49200439453125,-195.01300048828125 C-212.65199279785156,-195.60299682617188 -212.70199584960938,-196.17300415039062 -212.65199279785156,-196.73300170898438 C-212.65199279785156,-196.73300170898438 -212.65199279785156,-196.7429962158203 -212.65199279785156,-196.7429962158203 C-212.45199584960938,-199.33299255371094 -210.2220001220703,-201.39300537109375 -207.6020050048828,-201.35299682617188 C-207.6020050048828,-201.35299682617188 -207.49200439453125,-201.35299682617188 -207.49200439453125,-201.35299682617188 C-207.03199768066406,-201.34300231933594 -206.56199645996094,-201.26300048828125 -206.08200073242188,-201.10299682617188 C-206.08200073242188,-201.10299682617188 -190.28199768066406,-195.91299438476562 -190.28199768066406,-195.91299438476562 C-190.28199768066406,-195.91299438476562 -168.74200439453125,-188.84300231933594 -168.74200439453125,-188.84300231933594 C-168.74200439453125,-188.84300231933594 -151.3419952392578,-183.1230010986328 -151.3419952392578,-183.1230010986328 C-151.3419952392578,-183.1230010986328 -151.33200073242188,-183.1230010986328 -151.33200073242188,-183.1230010986328 C-151.33200073242188,-183.1230010986328 -76.27200317382812,-158.48300170898438 -76.27200317382812,-158.48300170898438 C-76.27200317382812,-158.48300170898438 -69.97200012207031,-156.41299438476562 -69.97200012207031,-156.41299438476562z"></path></g><g opacity="1" transform="matrix(1,0,0,1,0,0)"><path fill="rgb(94,106,252)" fill-opacity="1" d=" M-207.6020050048828,-201.35299682617188 C-207.6020050048828,-201.35299682617188 -207.49200439453125,-201.35299682617188 -207.49200439453125,-201.35299682617188 C-208.0919952392578,-200.85299682617188 -208.69200134277344,-200.34300231933594 -209.29200744628906,-199.822998046875 C-209.29200744628906,-199.822998046875 -207.6020050048828,-201.35299682617188 -207.6020050048828,-201.35299682617188z"></path></g><g opacity="1" transform="matrix(1,0,0,1,0,0)"><path fill="rgb(94,106,252)" fill-opacity="1" d=" M-168.74200439453125,-188.84300231933594 C-173.46200561523438,-186.1929931640625 -178.57200622558594,-182.88299560546875 -183.65199279785156,-178.80299377441406 C-183.65199279785156,-178.80299377441406 -197.32200622558594,-190.01300048828125 -197.32200622558594,-190.01300048828125 C-194.9720001220703,-192.13299560546875 -192.61199951171875,-194.09300231933594 -190.28199768066406,-195.91299438476562 C-190.28199768066406,-195.91299438476562 -168.74200439453125,-188.84300231933594 -168.74200439453125,-188.84300231933594z"></path></g><g opacity="1" transform="matrix(1,0,0,1,0,0)"><path fill="rgb(94,106,252)" fill-opacity="1" d=" M-120.53199768066406,-173.01300048828125 C-121.01200103759766,-172.88299560546875 -137.8520050048828,-168.4029998779297 -154.96200561523438,-155.2830047607422 C-154.96200561523438,-155.2830047607422 -171.73199462890625,-169.0330047607422 -171.73199462890625,-169.0330047607422 C-164.61199951171875,-175.05299377441406 -157.56199645996094,-179.66299438476562 -151.3419952392578,-183.1230010986328 C-151.3419952392578,-183.1230010986328 -151.33200073242188,-183.1230010986328 -151.33200073242188,-183.1230010986328 C-151.33200073242188,-183.1230010986328 -120.53199768066406,-173.01300048828125 -120.53199768066406,-173.01300048828125z"></path></g><g opacity="1" transform="matrix(1,0,0,1,0,0)"><path fill="rgb(94,106,252)" fill-opacity="1" d=" M-76.27200317382812,-158.48300170898438 C-76.27200317382812,-158.48300170898438 -79.48200225830078,-148.5330047607422 -79.48200225830078,-148.5330047607422 C-79.48200225830078,-148.5330047607422 -116.00199890136719,-123.33300018310547 -116.00199890136719,-123.33300018310547 C-116.00199890136719,-123.33300018310547 -143.1219940185547,-145.572998046875 -143.1219940185547,-145.572998046875 C-122.88200378417969,-162.01300048828125 -103.74199676513672,-167.1929931640625 -103.23200225830078,-167.33299255371094 C-103.22200012207031,-167.33299255371094 -103.22200012207031,-167.33299255371094 -103.22200012207031,-167.33299255371094 C-103.22200012207031,-167.33299255371094 -76.27200317382812,-158.48300170898438 -76.27200317382812,-158.48300170898438z"></path></g><g opacity="1" transform="matrix(1,0,0,1,0,0)"><path fill="rgb(23,70,172)" fill-opacity="1" d=" M-155.77200317382812,-75.25299835205078 C-155.77200317382812,-75.25299835205078 -174.8820037841797,-57.17300033569336 -174.8820037841797,-57.17300033569336 C-174.8820037841797,-57.17300033569336 -197.302001953125,-139.322998046875 -197.302001953125,-139.322998046875 C-197.302001953125,-139.33299255371094 -197.302001953125,-139.33299255371094 -197.302001953125,-139.33299255371094 C-197.302001953125,-139.33299255371094 -202.52200317382812,-158.47300720214844 -202.52200317382812,-158.47300720214844 C-202.52200317382812,-158.47300720214844 -208.11199951171875,-178.9530029296875 -208.11199951171875,-178.9530029296875 C-208.11199951171875,-178.9530029296875 -208.14199829101562,-179.06300354003906 -208.14199829101562,-179.06300354003906 C-208.14199829101562,-179.06300354003906 -212.49200439453125,-195.01300048828125 -212.49200439453125,-195.01300048828125 C-212.65199279785156,-195.60299682617188 -212.70199584960938,-196.17300415039062 -212.65199279785156,-196.73300170898438 C-212.65199279785156,-196.73300170898438 -212.65199279785156,-196.7429962158203 -212.65199279785156,-196.7429962158203 C-212.6320037841797,-196.98300170898438 -212.6020050048828,-197.22300720214844 -212.54200744628906,-197.4530029296875 C-212.54200744628906,-197.4530029296875 -211.14199829101562,-198.16299438476562 -211.14199829101562,-198.16299438476562 C-211.14199829101562,-198.16299438476562 -158.94200134277344,-87.62300109863281 -158.94200134277344,-87.62300109863281 C-158.94200134277344,-87.62300109863281 -155.77200317382812,-75.25299835205078 -155.77200317382812,-75.25299835205078z"></path></g><g opacity="1" transform="matrix(1,0,0,1,0,0)"><path fill="rgb(252,147,222)" fill-opacity="1" d=" M-103.23200225830078,-167.33299255371094 C-103.74199676513672,-167.1929931640625 -122.88200378417969,-162.01300048828125 -143.1219940185547,-145.572998046875 C-143.1219940185547,-145.572998046875 -154.96200561523438,-155.2830047607422 -154.96200561523438,-155.2830047607422 C-137.8520050048828,-168.4029998779297 -121.01200103759766,-172.88299560546875 -120.53199768066406,-173.01300048828125 C-120.52200317382812,-173.01300048828125 -120.52200317382812,-173.01300048828125 -120.52200317382812,-173.01300048828125 C-120.52200317382812,-173.01300048828125 -103.23200225830078,-167.33299255371094 -103.23200225830078,-167.33299255371094z"></path></g><g opacity="1" transform="matrix(1,0,0,1,0,0)"><path fill="rgb(255,83,203)" fill-opacity="1" d=" M-143.1219940185547,-145.572998046875 C-158.1719970703125,-133.33299255371094 -173.8419952392578,-114.87300109863281 -182.9320068359375,-87.62300109863281 C-182.9320068359375,-87.62300109863281 -188.14199829101562,-105.76300048828125 -188.14199829101562,-105.76300048828125 C-182.2519989013672,-129.10299682617188 -168.52200317382812,-144.9029998779297 -154.96200561523438,-155.2830047607422 C-154.96200561523438,-155.2830047607422 -143.1219940185547,-145.572998046875 -143.1219940185547,-145.572998046875z"></path></g><g opacity="1" transform="matrix(1,0,0,1,0,0)"><path fill="rgb(252,147,222)" fill-opacity="1" d=" M-151.3419952392578,-183.1230010986328 C-157.56199645996094,-179.66299438476562 -164.61199951171875,-175.05299377441406 -171.73199462890625,-169.0330047607422 C-171.73199462890625,-169.0330047607422 -183.65199279785156,-178.80299377441406 -183.65199279785156,-178.80299377441406 C-178.57200622558594,-182.88299560546875 -173.46200561523438,-186.1929931640625 -168.74200439453125,-188.84300231933594 C-168.74200439453125,-188.84300231933594 -151.3419952392578,-183.1230010986328 -151.3419952392578,-183.1230010986328z"></path></g><g opacity="1" transform="matrix(1,0,0,1,0,0)"><path fill="rgb(255,83,203)" fill-opacity="1" d=" M-171.73199462890625,-169.0330047607422 C-180.6320037841797,-161.5229949951172 -189.65199279785156,-151.79299926757812 -197.302001953125,-139.33299255371094 C-197.302001953125,-139.33299255371094 -202.52200317382812,-158.47300720214844 -202.52200317382812,-158.47300720214844 C-196.91200256347656,-166.7530059814453 -190.31199645996094,-173.4429931640625 -183.65199279785156,-178.80299377441406 C-183.65199279785156,-178.80299377441406 -171.73199462890625,-169.0330047607422 -171.73199462890625,-169.0330047607422z"></path></g><g opacity="1" transform="matrix(1,0,0,1,0,0)"><path fill="rgb(252,147,222)" fill-opacity="1" d=" M-190.28199768066406,-195.91299438476562 C-192.61199951171875,-194.09300231933594 -194.9720001220703,-192.13299560546875 -197.32200622558594,-190.01300048828125 C-197.32200622558594,-190.01300048828125 -209.29200744628906,-199.822998046875 -209.29200744628906,-199.822998046875 C-208.69200134277344,-200.34300231933594 -208.0919952392578,-200.85299682617188 -207.49200439453125,-201.35299682617188 C-207.03199768066406,-201.34300231933594 -206.56199645996094,-201.26300048828125 -206.08200073242188,-201.10299682617188 C-206.08200073242188,-201.10299682617188 -190.28199768066406,-195.91299438476562 -190.28199768066406,-195.91299438476562z"></path></g><g opacity="1" transform="matrix(1,0,0,1,0,0)"><path fill="rgb(255,83,203)" fill-opacity="1" d=" M-197.32200622558594,-190.01300048828125 C-200.96200561523438,-186.71299743652344 -204.5919952392578,-183.04299926757812 -208.11199951171875,-178.9530029296875 C-208.11199951171875,-178.9530029296875 -208.14199829101562,-179.06300354003906 -208.14199829101562,-179.06300354003906 C-208.14199829101562,-179.06300354003906 -212.65199279785156,-196.73300170898438 -212.65199279785156,-196.73300170898438 C-212.65199279785156,-196.73300170898438 -212.65199279785156,-196.7429962158203 -212.65199279785156,-196.7429962158203 C-211.54200744628906,-197.81300354003906 -210.4219970703125,-198.84300231933594 -209.29200744628906,-199.822998046875 C-209.29200744628906,-199.822998046875 -197.32200622558594,-190.01300048828125 -197.32200622558594,-190.01300048828125z"></path></g><g opacity="1" transform="matrix(1,0,0,1,0,0)"><path fill="rgb(219,22,173)" fill-opacity="1" d=" M-204.14199829101562,-183.34300231933594 C-205.48199462890625,-181.93299865722656 -206.802001953125,-180.47300720214844 -208.11199951171875,-178.9530029296875 C-208.11199951171875,-178.9530029296875 -208.14199829101562,-179.06300354003906 -208.14199829101562,-179.06300354003906 C-208.14199829101562,-179.06300354003906 -212.65199279785156,-196.73300170898438 -212.65199279785156,-196.73300170898438 C-212.65199279785156,-196.73300170898438 -212.65199279785156,-196.7429962158203 -212.65199279785156,-196.7429962158203 C-212.15199279785156,-197.22300720214844 -211.65199279785156,-197.7030029296875 -211.14199829101562,-198.16299438476562 C-211.14199829101562,-198.16299438476562 -204.14199829101562,-183.34300231933594 -204.14199829101562,-183.34300231933594z"></path></g><g opacity="1" transform="matrix(1,0,0,1,0,0)"><path fill="rgb(219,22,173)" fill-opacity="1" d=" M-188.98199462890625,-151.23300170898438 C-191.8820037841797,-147.572998046875 -194.6719970703125,-143.61300659179688 -197.302001953125,-139.33299255371094 C-197.302001953125,-139.33299255371094 -202.52200317382812,-158.47300720214844 -202.52200317382812,-158.47300720214844 C-200.54200744628906,-161.39300537109375 -198.44200134277344,-164.11300659179688 -196.26199340820312,-166.64300537109375 C-196.26199340820312,-166.64300537109375 -188.98199462890625,-151.23300170898438 -188.98199462890625,-151.23300170898438z"></path></g><g opacity="1" transform="matrix(1,0,0,1,0,0)"><path fill="rgb(219,22,173)" fill-opacity="1" d=" M-171.1020050048828,-113.38300323486328 C-175.6719970703125,-105.822998046875 -179.71200561523438,-97.27300262451172 -182.9320068359375,-87.62300109863281 C-182.9320068359375,-87.62300109863281 -188.14199829101562,-105.76300048828125 -188.14199829101562,-105.76300048828125 C-185.91200256347656,-114.58300018310547 -182.57200622558594,-122.33300018310547 -178.53199768066406,-129.11300659179688 C-178.53199768066406,-129.11300659179688 -171.1020050048828,-113.38300323486328 -171.1020050048828,-113.38300323486328z"></path></g><g opacity="1" transform="matrix(1,0,0,1,0,0)"><g opacity="1" transform="matrix(1,0,0,1,0,0)"><path fill="rgb(74,76,243)" fill-opacity="1" d=" M-190.28199768066406,-195.91299438476562 C-190.28199768066406,-195.91299438476562 -168.74200439453125,-188.84300231933594 -168.74200439453125,-188.84300231933594 C-170.552001953125,-187.822998046875 -172.4320068359375,-186.7030029296875 -174.33200073242188,-185.4929962158203 C-174.33200073242188,-185.4929962158203 -206.08200073242188,-201.10299682617188 -206.08200073242188,-201.10299682617188 C-206.08200073242188,-201.10299682617188 -190.28199768066406,-195.91299438476562 -190.28199768066406,-195.91299438476562z"></path></g><g opacity="1" transform="matrix(1,0,0,1,0,0)"><path fill="rgb(74,76,243)" fill-opacity="1" d=" M-120.53199768066406,-173.01300048828125 C-120.83200073242188,-172.93299865722656 -127.34200286865234,-171.1929931640625 -136.31199645996094,-166.79299926757812 C-136.31199645996094,-166.79299926757812 -159.48199462890625,-178.1929931640625 -159.48199462890625,-178.1929931640625 C-156.66200256347656,-180.04299926757812 -153.9320068359375,-181.68299865722656 -151.3419952392578,-183.1230010986328 C-151.3419952392578,-183.1230010986328 -151.33200073242188,-183.1230010986328 -151.33200073242188,-183.1230010986328 C-151.33200073242188,-183.1230010986328 -120.53199768066406,-173.01300048828125 -120.53199768066406,-173.01300048828125z"></path></g><g opacity="1" transform="matrix(1,0,0,1,0,0)"><path fill="rgb(74,76,243)" fill-opacity="1" d=" M-69.97200012207031,-156.41299438476562 C-69.97200012207031,-156.41299438476562 -85.44200134277344,-141.7830047607422 -85.44200134277344,-141.7830047607422 C-85.44200134277344,-141.7830047607422 -121.75199890136719,-159.63299560546875 -121.75199890136719,-159.63299560546875 C-111.1520004272461,-165.18299865722656 -103.552001953125,-167.2429962158203 -103.23200225830078,-167.33299255371094 C-103.22200012207031,-167.33299255371094 -103.22200012207031,-167.33299255371094 -103.22200012207031,-167.33299255371094 C-103.22200012207031,-167.33299255371094 -69.97200012207031,-156.41299438476562 -69.97200012207031,-156.41299438476562z"></path></g></g><g opacity="1" transform="matrix(1,0,0,1,0,0)"><path fill="rgb(255,83,203)" fill-opacity="1" d=" M-103.23200225830078,-167.33299255371094 C-103.552001953125,-167.2429962158203 -111.1520004272461,-165.18299865722656 -121.75199890136719,-159.63299560546875 C-121.75199890136719,-159.63299560546875 -136.31199645996094,-166.79299926757812 -136.31199645996094,-166.79299926757812 C-127.34200286865234,-171.1929931640625 -120.83200073242188,-172.93299865722656 -120.53199768066406,-173.01300048828125 C-120.52200317382812,-173.01300048828125 -120.52200317382812,-173.01300048828125 -120.52200317382812,-173.01300048828125 C-120.52200317382812,-173.01300048828125 -103.23200225830078,-167.33299255371094 -103.23200225830078,-167.33299255371094z"></path></g><g opacity="1" transform="matrix(1,0,0,1,0,0)"><path fill="rgb(255,83,203)" fill-opacity="1" d=" M-151.3419952392578,-183.1230010986328 C-153.9320068359375,-181.68299865722656 -156.66200256347656,-180.04299926757812 -159.48199462890625,-178.1929931640625 C-159.48199462890625,-178.1929931640625 -174.33200073242188,-185.4929962158203 -174.33200073242188,-185.4929962158203 C-172.4320068359375,-186.7030029296875 -170.552001953125,-187.822998046875 -168.74200439453125,-188.84300231933594 C-168.74200439453125,-188.84300231933594 -151.3419952392578,-183.1230010986328 -151.3419952392578,-183.1230010986328z"></path></g><g opacity="1" transform="matrix(1,0,0,1,0,0)"><path stroke-linecap="butt" stroke-linejoin="miter" fill-opacity="0" stroke-miterlimit="10" stroke="rgb(15,65,160)" stroke-opacity="1" stroke-width="6" d=" M-174.88699340820312,-57.178001403808594 C-174.88699340820312,-57.178001403808594 -212.48800659179688,-195.01400756835938 -212.48800659179688,-195.01400756835938 C-213.54100036621094,-198.8730010986328 -209.87899780273438,-202.35299682617188 -206.07899475097656,-201.10499572753906 C-206.07899475097656,-201.10499572753906 -69.97200012207031,-156.41600036621094 -69.97200012207031,-156.41600036621094 C-69.97200012207031,-156.41600036621094 -174.88699340820312,-57.178001403808594 -174.88699340820312,-57.178001403808594z"></path></g><g opacity="1" transform="matrix(1,0,0,1,0,0)"><path stroke-linecap="round" stroke-linejoin="round" fill-opacity="0" stroke="rgb(255,255,255)" stroke-opacity="1" stroke-width="6" d=" M-138.32400512695312,-167.7830047607422 C-138.32400512695312,-167.7830047607422 -126.92400360107422,-162.1739959716797 -126.92400360107422,-162.1739959716797"></path></g><g opacity="1" transform="matrix(1,0,0,1,0,0)"><path stroke-linecap="round" stroke-linejoin="round" fill-opacity="0" stroke="rgb(255,255,255)" stroke-opacity="1" stroke-width="6" d=" M-152.36900329589844,-174.6929931640625 C-152.36900329589844,-174.6929931640625 -147.8679962158203,-172.47900390625 -147.8679962158203,-172.47900390625"></path></g></g><g style="display: block;" transform="matrix(1,0,0,1,236,268)" opacity="1"><g opacity="0.1" transform="matrix(1,0,0,1,0,0)"><path fill="rgb(0,0,0)" fill-opacity="1" d=" M192.92300415039062,25.781999588012695 C192.92300415039062,134.04299926757812 105.16000366210938,221.80599975585938 -3.1010000705718994,221.80599975585938 C-111.36199951171875,221.80599975585938 -199.12600708007812,134.04299926757812 -199.12600708007812,25.781999588012695 C-199.12600708007812,-82.47899627685547 -111.36199951171875,-170.2429962158203 -3.1010000705718994,-170.2429962158203 C105.16000366210938,-170.2429962158203 192.92300415039062,-82.47899627685547 192.92300415039062,25.781999588012695z"></path></g><g opacity="1" transform="matrix(1,0,0,1,0,0)"><path fill="rgb(255,177,57)" fill-opacity="1" d=" M185.7740020751953,10.781999588012695 C185.7740020751953,115.09500122070312 101.21199798583984,199.65699768066406 -3.1010000705718994,199.65699768066406 C-107.41400146484375,199.65699768066406 -191.9770050048828,115.09500122070312 -191.9770050048828,10.781999588012695 C-191.9770050048828,-93.53099822998047 -107.41400146484375,-178.093994140625 -3.1010000705718994,-178.093994140625 C101.21199798583984,-178.093994140625 185.7740020751953,-93.53099822998047 185.7740020751953,10.781999588012695z"></path><path stroke-linecap="butt" stroke-linejoin="miter" fill-opacity="0" stroke-miterlimit="10" stroke="rgb(247,126,65)" stroke-opacity="1" stroke-width="8" d=" M185.7740020751953,10.781999588012695 C185.7740020751953,115.09500122070312 101.21199798583984,199.65699768066406 -3.1010000705718994,199.65699768066406 C-107.41400146484375,199.65699768066406 -191.9770050048828,115.09500122070312 -191.9770050048828,10.781999588012695 C-191.9770050048828,-93.53099822998047 -107.41400146484375,-178.093994140625 -3.1010000705718994,-178.093994140625 C101.21199798583984,-178.093994140625 185.7740020751953,-93.53099822998047 185.7740020751953,10.781999588012695z"></path></g><g opacity="1" transform="matrix(1,0,0,1,0,0)"><path fill="rgb(255,209,64)" fill-opacity="1" d=" M165.30599975585938,11.494000434875488 C163.8489990234375,106.52300262451172 87.29499816894531,182.4029998779297 -5.683000087738037,180.97799682617188 C-98.66100311279297,179.55299377441406 -172.85400390625,101.36199951171875 -171.39700317382812,6.334000110626221 C-169.94000244140625,-88.69499969482422 -93.38700103759766,-164.5749969482422 -0.4090000092983246,-163.14999389648438 C92.56900024414062,-161.72500610351562 166.76300048828125,-83.53500366210938 165.30599975585938,11.494000434875488z"></path></g><g opacity="0.9" transform="matrix(1,0,0,1,0,0)"><path fill="rgb(255,223,121)" fill-opacity="1" d=" M146.16600036621094,-31.64699935913086 C146.16600036621094,40.99599838256836 79.33699798583984,-16.468000411987305 -3.1010000705718994,-16.468000411987305 C-85.53900146484375,-16.468000411987305 -152.36900329589844,40.99599838256836 -152.36900329589844,-31.64699935913086 C-152.36900329589844,-104.29000091552734 -85.53900146484375,-163.1790008544922 -3.1010000705718994,-163.1790008544922 C79.33699798583984,-163.1790008544922 146.16600036621094,-104.29000091552734 146.16600036621094,-31.64699935913086z"></path></g><g opacity="1" transform="matrix(1,0,0,1,0,0)"><g opacity="1" transform="matrix(1,0,0,1,0,0)"><path stroke-linecap="round" stroke-linejoin="round" fill-opacity="0" stroke="rgb(255,255,255)" stroke-opacity="1" stroke-width="6" d=" M33.270999908447266,-158.9600067138672 C34.808998107910156,-158.625 36.404998779296875,-158.2550048828125 38.04899978637695,-157.8489990234375"></path></g><g opacity="1" transform="matrix(1,0,0,1,0,0)"><path stroke-linecap="round" stroke-linejoin="round" fill-opacity="0" stroke="rgb(255,255,255)" stroke-opacity="1" stroke-width="6" d=" M11.916999816894531,-162.1790008544922 C11.916999816894531,-162.1790008544922 16.784000396728516,-161.91900634765625 24.506999969482422,-160.64100646972656"></path></g></g></g><g style="display: none;"><g><path></path></g><g><path></path></g><g><path></path></g><g><path></path></g><g><path></path></g><g><path></path></g><g><path></path></g><g><path></path></g><g><path></path></g><g><path></path></g></g><g style="display: none;"><g><path></path></g><g><path></path></g><g><path></path></g><g><path></path></g><g><path></path></g><g><path></path></g><g><path></path></g><g><path></path></g><g><path></path></g><g><path></path></g></g><g style="display: block;" transform="matrix(1,0,0,1,236,268.5)" opacity="1"><g opacity="1" transform="matrix(1,0,0,1,0,0)"><path fill="rgb(255,226,166)" fill-opacity="1" d=" M91.96900177001953,6.296999931335449 C81.84200286865234,-2.9790000915527344 61.435001373291016,-10.829999923706055 40.71200180053711,-6.955999851226807 C15.196000099182129,-2.186000108718872 17.996999740600586,19.45599937438965 28.92099952697754,22.700000762939453 C41.04100036621094,26.298999786376953 51.95399856567383,14.479999542236328 78.01699829101562,24.395000457763672 C97.48600006103516,31.802000045776367 102.39399719238281,15.845999717712402 91.96900177001953,6.296999931335449z"></path></g><g opacity="1" transform="matrix(1,0,0,1,0,0)"><path fill="rgb(134,63,20)" fill-opacity="1" d=" M90.71700286865234,4.056000232696533 C80.5510025024414,-4.6579999923706055 62.43199920654297,-11.001999855041504 41.733001708984375,-7.4770002365112305 C16.24799919128418,-3.13700008392334 19.714000701904297,14.656999588012695 28.95199966430664,17.260000228881836 C41.084999084472656,20.67799949645996 51.939998626708984,9.684000015258789 78.04000091552734,19.06999969482422 C97.53700256347656,26.08099937438965 101.18299865722656,13.027000427246094 90.71700286865234,4.056000232696533z"></path></g><g opacity="1" transform="matrix(1,0,0,1,0,0)"><path fill="rgb(107,32,0)" fill-opacity="1" d=" M95.8219985961914,17.15999984741211 C94.97200012207031,14.84000015258789 93.26200103759766,12.40999984741211 90.72200012207031,10.229999542236328 C80.552001953125,1.5099999904632568 62.43199920654297,-4.829999923706055 41.731998443603516,-1.309999942779541 C29.691999435424805,0.7400000095367432 24.11199951171875,5.800000190734863 22.562000274658203,10.84000015258789 C20.54199981689453,4.46999979019165 24.57200050354004,-4.559999942779541 41.731998443603516,-7.480000019073486 C62.43199920654297,-11 80.552001953125,-4.659999847412109 90.72200012207031,4.059999942779541 C95.76200103759766,8.380000114440918 97.53199768066406,13.649999618530273 95.8219985961914,17.15999984741211z"></path></g></g><g style="display: block;" transform="matrix(1,0,0,1,235.91500854492188,268.53399658203125)" opacity="1"><g opacity="1" transform="matrix(1,0,0,1,0,0)"><path fill="rgb(255,226,166)" fill-opacity="1" d=" M-98.1719970703125,6.296999931335449 C-88.04499816894531,-2.9790000915527344 -67.63700103759766,-10.829999923706055 -46.91400146484375,-6.955999851226807 C-21.398000717163086,-2.186000108718872 -24.200000762939453,19.45599937438965 -35.124000549316406,22.700000762939453 C-47.24399948120117,26.298999786376953 -58.15700149536133,14.479999542236328 -84.22000122070312,24.395000457763672 C-103.68900299072266,31.802000045776367 -108.59700012207031,15.845999717712402 -98.1719970703125,6.296999931335449z"></path></g><g opacity="1" transform="matrix(1,0,0,1,0,0)"><path fill="rgb(134,63,20)" fill-opacity="1" d=" M-96.91999816894531,4.056000232696533 C-86.75399780273438,-4.6579999923706055 -68.63500213623047,-11.001999855041504 -47.93600082397461,-7.4770002365112305 C-22.451000213623047,-3.13700008392334 -25.91699981689453,14.656999588012695 -35.154998779296875,17.260000228881836 C-47.28799819946289,20.67799949645996 -58.143001556396484,9.684000015258789 -84.24299621582031,19.06999969482422 C-103.73999786376953,26.08099937438965 -107.38600158691406,13.027000427246094 -96.91999816894531,4.056000232696533z"></path></g><g opacity="1" transform="matrix(1,0,0,1,0,0)"><path fill="rgb(107,32,0)" fill-opacity="1" d=" M-102.02400207519531,17.15999984741211 C-101.17400360107422,14.84000015258789 -99.46399688720703,12.40999984741211 -96.92400360107422,10.229999542236328 C-86.75399780273438,1.5099999904632568 -68.63400268554688,-4.829999923706055 -47.933998107910156,-1.309999942779541 C-35.89400100708008,0.7400000095367432 -30.31399917602539,5.800000190734863 -28.763999938964844,10.84000015258789 C-26.743999481201172,4.46999979019165 -30.77400016784668,-4.559999942779541 -47.933998107910156,-7.480000019073486 C-68.63400268554688,-11 -86.75399780273438,-4.659999847412109 -96.92400360107422,4.059999942779541 C-101.96399688720703,8.380000114440918 -103.73400115966797,13.649999618530273 -102.02400207519531,17.15999984741211z"></path></g></g><g style="display: block;" transform="matrix(1,0,0,1,236,268)" opacity="1"><g opacity="1" transform="matrix(1,0,0,1,0,0)"><path fill="rgb(255,226,166)" fill-opacity="1" d=" M-2.0869998931884766,57.527000427246094 C2.071000099182129,56.08399963378906 33.55500030517578,58.465999603271484 46.4119987487793,71.322998046875 C56.858001708984375,81.76899719238281 36.05699920654297,99.6989974975586 26.628000259399414,104.5469970703125 C25.233999252319336,105.26399993896484 25.7810001373291,109.39600372314453 27,110.37999725341797 C33.928001403808594,115.9729995727539 47.35200119018555,123.11799621582031 48.457000732421875,131.78700256347656 C50.08599853515625,144.55799865722656 12.656000137329102,154.21299743652344 -1.74399995803833,151.47000122070312 C-5.000999927520752,150.85000610351562 -4.484000205993652,145.61500549316406 -1.0579999685287476,144.09800720214844 C9.416000366210938,139.46099853515625 33.22800064086914,138.03700256347656 33.22800064086914,132.843994140625 C33.22800064086914,123.5270004272461 3.2279999256134033,115.64099884033203 3.2279999256134033,102.95500183105469 C3.2279999256134033,93.7229995727539 33.457000732421875,92.61599731445312 33.02799987792969,83.18699645996094 C32.62300109863281,74.27200317382812 -14.687000274658203,61.89799880981445 -2.0869998931884766,57.527000427246094z"></path></g><g opacity="1" transform="matrix(1,0,0,1,0,0)"><path fill="rgb(134,63,20)" fill-opacity="1" d=" M-1.0019999742507935,147.69700622558594 C-4.26200008392334,147.07699584960938 -3.302000045776367,144.40699768066406 0.12800000607967377,142.88699340820312 C10.597999572753906,138.2469940185547 33.52799987792969,131.57699584960938 33.3380012512207,126.38700103759766 C33.178001403808594,121.76699829101562 20.757999420166016,116.177001953125 11.977999687194824,110.78700256347656 C7.067999839782715,107.78700256347656 3.2980000972747803,104.83699798583984 3.437999963760376,102.15699768066406 C3.638000011444092,98.20700073242188 9.208000183105469,94.70700073242188 15.468000411987305,91.24700164794922 C23.808000564575195,86.63700103759766 33.38800048828125,82.11699676513672 33.13800048828125,76.72699737548828 C32.737998962402344,67.80699920654297 -13.661999702453613,61.0369987487793 -1.062000036239624,56.66699981689453 C3.0980000495910645,55.22700119018555 32.71799850463867,57.527000427246094 45.56800079345703,70.38700103759766 C52.077999114990234,76.88700103759766 46.268001556396484,84.89700317382812 39.108001708984375,91.24700164794922 C34.768001556396484,95.10700225830078 29.937999725341797,98.35700225830078 27.04800033569336,100.2969970703125 C25.74799919128418,101.16699981689453 25.898000717163086,102.93699645996094 27.118000030517578,103.91699981689453 C29.687999725341797,105.99700164794922 33.14799880981445,108.28700256347656 36.54800033569336,110.78700256347656 C42.30799865722656,115.0270004272461 47.87799835205078,119.87699890136719 48.56800079345703,125.3270034790039 C50.198001861572266,138.0970001220703 13.39799976348877,150.43699645996094 -1.0019999742507935,147.69700622558594z"></path></g><g opacity="1" transform="matrix(1,0,0,1,0,0)"><path fill="rgb(107,32,0)" fill-opacity="1" d=" M32.374000549316406,79.54100036621094 C32.27899932861328,79.70800018310547 32.176998138427734,79.8740005493164 32.064998626708984,80.04000091552734 C32.01100158691406,80.12100219726562 31.95400047302246,80.20099639892578 31.895999908447266,80.28099822998047 C31.784000396728516,80.43499755859375 31.665000915527344,80.58899688720703 31.540000915527344,80.74199676513672 C31.479999542236328,80.81500244140625 31.423999786376953,80.88899993896484 31.361000061035156,80.96199798583984 C25.023000717163086,88.33599853515625 3.8399999141693115,94.37699890136719 3.437999963760376,102.15699768066406 C3.3980000019073486,102.87699890136719 3.6480000019073486,103.61699676513672 4.127999782562256,104.37699890136719 C8.618000030517578,96.25700378417969 33.52799987792969,89.83699798583984 33.13800048828125,81.18699645996094 C33.13800048828125,81.18699645996094 33.13800048828125,76.927001953125 33.13800048828125,76.927001953125 C33.13800048828125,77.82099914550781 32.861000061035156,78.68900299072266 32.374000549316406,79.54100036621094z"></path></g><g opacity="1" transform="matrix(1,0,0,1,0,0)"><path fill="rgb(107,32,0)" fill-opacity="1" d=" M48.097999572753906,78.97699737548828 C47.70800018310547,77.55699920654297 46.89799880981445,76.16699981689453 45.56800079345703,74.83699798583984 C33.487998962402344,62.75699996948242 6.578000068664551,59.99700164794922 -0.052000001072883606,60.90700149536133 C-3.492000102996826,59.30699920654297 -4.6020002365112305,57.89699935913086 -1.062000036239624,56.66699981689453 C3.0980000495910645,55.22700119018555 32.71799850463867,57.527000427246094 45.56800079345703,70.38700103759766 C48.24800109863281,73.06700134277344 48.8380012512207,76.00700378417969 48.097999572753906,78.97699737548828z"></path></g><g opacity="1" transform="matrix(1,0,0,1,0,0)"><path fill="rgb(107,32,0)" fill-opacity="1" d=" M48.56800079345703,125.3270034790039 C47.49800109863281,116.87699890136719 34.70800018310547,109.87699890136719 27.658000946044922,104.33699798583984 C27.6560001373291,104.33799743652344 27.655000686645508,104.33899688720703 27.652999877929688,104.33999633789062 C27.472999572753906,104.1989974975586 27.288999557495117,104.05799865722656 27.118000030517578,103.91699981689453 C26.47800064086914,103.40699768066406 26.13800048828125,102.677001953125 26.13800048828125,101.97699737548828 C26.13800048828125,101.97699737548828 26.13800048828125,106.61699676513672 26.13800048828125,106.61699676513672 C26.13800048828125,106.61699676513672 26.150999069213867,106.61100006103516 26.150999069213867,106.61100006103516 C26.202999114990234,107.25800323486328 26.534000396728516,107.90799713134766 27.118000030517578,108.37699890136719 C33.64799880981445,113.65699768066406 45.97800064086914,120.31700134277344 48.257999420166016,128.33700561523438 C48.5880012512207,127.33699798583984 48.698001861572266,126.33699798583984 48.56800079345703,125.3270034790039z"></path></g><g opacity="1" transform="matrix(1,0,0,1,0,0)"><path fill="rgb(107,32,0)" fill-opacity="1" d=" M32.28799819946289,128.49600219726562 C27.711000442504883,133.28900146484375 9.220000267028809,138.85499572753906 0.12800000607967377,142.88699340820312 C-3.302000045776367,144.40699768066406 -4.26200008392334,147.07699584960938 -1.0019999742507935,147.69700622558594 C-0.8920000195503235,147.7169952392578 -0.7820000052452087,147.73699951171875 -0.671999990940094,147.7469940185547 C-0.421999990940094,147.60699462890625 -0.15199999511241913,147.4669952392578 0.12800000607967377,147.3470001220703 C10.597999572753906,142.70700073242188 33.52799987792969,136.02699279785156 33.3380012512207,130.83700561523438 C33.3380012512207,130.83700561523438 33.3380012512207,126.4469985961914 33.3380012512207,126.4469985961914 C33.3380012512207,127.10900115966797 32.95600128173828,127.79499816894531 32.28799819946289,128.49600219726562z"></path></g></g><g style="display: block;" transform="matrix(1,0,0,1,236,268)" opacity="1"><g opacity="1" transform="matrix(1,0,0,1,0,0)"><g opacity="1" transform="matrix(1,0,0,1,0,0)"><g opacity="1" transform="matrix(1,0,0,1,0,0)"><path stroke-linecap="round" stroke-linejoin="round" fill-opacity="0" stroke="rgb(98,141,249)" stroke-opacity="1" stroke-width="17" d=" M166.92300415039062,101.21399688720703 C166.92300415039062,101.21399688720703 176.73800659179688,101.1050033569336 176.73800659179688,101.1050033569336 C195.406005859375,98.16400146484375 207.81300354003906,79.33899688720703 198.63900756835938,62.606998443603516 C185.00900268554688,37.75 156.89500427246094,49.922000885009766 156.89500427246094,64.66500091552734 C156.89500427246094,86.77899932861328 189.8090057373047,83.3499984741211 179.17999267578125,66.55000305175781"></path></g></g><g opacity="1" transform="matrix(1,0,0,1,0,0)"><g opacity="1" transform="matrix(1,0,0,1,0,0)"><g opacity="1" transform="matrix(1,0,0,1,0,0)"><path fill="rgb(221,31,167)" fill-opacity="1" d=" M199.7270050048828,98.72100067138672 C199.7270050048828,98.72100067138672 207.30499267578125,91.66400146484375 209.3300018310547,81.73200225830078 C209.3300018310547,81.73200225830078 193.83799743652344,83.37200164794922 199.7270050048828,98.72100067138672z"></path></g><g opacity="1" transform="matrix(1,0,0,1,0,0)"><path fill="rgb(221,31,167)" fill-opacity="1" d=" M187.96600341796875,80.12300109863281 C187.96600341796875,80.12300109863281 192.59500122070312,72.63600158691406 187.23800659179688,63.422000885009766 C187.23800659179688,63.422000885009766 175.6999969482422,71.87999725341797 187.96600341796875,80.12300109863281z"></path></g><g opacity="1" transform="matrix(1,0,0,1,0,0)"><path fill="rgb(221,31,167)" fill-opacity="1" d=" M152.3090057373047,78.59300231933594 C152.3090057373047,78.59300231933594 155.43699645996094,85.87899780273438 166.0229949951172,88.1500015258789 C166.0229949951172,88.1500015258789 166.19500732421875,73.53600311279297 152.3090057373047,78.59300231933594z"></path></g><g opacity="1" transform="matrix(1,0,0,1,0,0)"><path fill="rgb(221,31,167)" fill-opacity="1" d=" M164.98899841308594,42.292999267578125 C164.98899841308594,42.292999267578125 156.48800659179688,45.4119987487793 152.03799438476562,52.821998596191406 C152.03799438476562,52.821998596191406 165.6820068359375,57.05500030517578 164.98899841308594,42.292999267578125z"></path></g><g opacity="1" transform="matrix(1,0,0,1,0,0)"><path fill="rgb(221,31,167)" fill-opacity="1" d=" M205.38600158691406,57.22200012207031 C205.38600158691406,57.22200012207031 201.4759979248047,49.70800018310547 194.02999877929688,44.92900085449219 C194.02999877929688,44.92900085449219 190.68600463867188,58.737998962402344 205.38600158691406,57.22200012207031z"></path></g></g><g opacity="0.4" transform="matrix(1,0,0,1,0,0)"><path stroke-linecap="round" stroke-linejoin="round" fill-opacity="0" stroke="rgb(0,57,183)" stroke-opacity="1" stroke-width="6.2" d=" M168.7689971923828,106.7020034790039 C168.7689971923828,106.7020034790039 176.75900268554688,106.44999694824219 176.75900268554688,106.44999694824219 C198.67999267578125,103.70700073242188 206.69500732421875,85.4520034790039 198.63900756835938,68.15399932861328 C187.7519989013672,44.77899932861328 161.21499633789062,53.63800048828125 162.40199279785156,65.8219985961914 C163.54299926757812,77.53399658203125 179.31199645996094,77.22799682617188 173.72999572753906,67.49299621582031"></path></g></g><g opacity="1" transform="matrix(1,0,0,1,0,0)"><g opacity="1" transform="matrix(1,0,0,1,0,0)"><g opacity="1" transform="matrix(1,0,0,1,0,0)"><path fill="rgb(98,141,249)" fill-opacity="1" d=" M180.2100067138672,101.21499633789062 C180.2100067138672,105.20500183105469 177.4600067138672,108.56500244140625 173.72999572753906,109.46499633789062 C173.1300048828125,109.625 172.50100708007812,109.70500183105469 171.8509979248047,109.71499633789062 C165.6909942626953,109.81500244140625 158.83999633789062,109.875 151.72999572753906,109.8949966430664 C149.19000244140625,109.90499877929688 146.6199951171875,109.90499877929688 144.0399932861328,109.90499877929688 C138.74000549316406,109.90499877929688 133.39999389648438,109.88500213623047 128.19000244140625,109.86499786376953 C120.33000183105469,109.82499694824219 112.77999877929688,109.75499725341797 106.18000030517578,109.69499969482422 C93.30000305175781,109.57499694824219 84.02999877929688,109.42500305175781 83,109.40499877929688 C78.30000305175781,109.33499908447266 74.55999755859375,105.4749984741211 74.62999725341797,100.7750015258789 C74.69999694824219,96.125 78.48999786376953,92.41500091552734 83.12999725341797,92.41500091552734 C83.12999725341797,92.41500091552734 83.26000213623047,92.41500091552734 83.26000213623047,92.41500091552734 C83.30000305175781,92.41500091552734 83.62000274658203,92.42500305175781 84.16999816894531,92.42500305175781 C86.86000061035156,92.46499633789062 95.18000030517578,92.58499908447266 106.16999816894531,92.69499969482422 C112.83000183105469,92.76499938964844 120.47000122070312,92.82499694824219 128.42999267578125,92.86499786376953 C135.6699981689453,92.8949966430664 143.1699981689453,92.91500091552734 150.4199981689453,92.8949966430664 C157.9199981689453,92.875 165.16000366210938,92.82499694824219 171.57000732421875,92.71499633789062 C176.32000732421875,92.63500213623047 180.2100067138672,96.46499633789062 180.2100067138672,101.21499633789062z"></path></g></g><g opacity="1" transform="matrix(1,0,0,1,0,0)"><g opacity="1" transform="matrix(1,0,0,1,0,0)"><path fill="rgb(221,31,167)" fill-opacity="1" d=" M170.33099365234375,102.82499694824219 C170.33099365234375,102.82499694824219 170.32000732421875,102.82499694824219 170.32000732421875,102.82499694824219 C168.33999633789062,101.15499877929688 165.6699981689453,100.13500213623047 162.72999572753906,100.13500213623047 C159.75999450683594,100.13500213623047 157.08099365234375,101.17500305175781 155.1009979248047,102.8550033569336 C153.031005859375,104.63500213623047 151.74000549316406,107.125 151.72999572753906,109.8949966430664 C158.83999633789062,109.875 165.6909942626953,109.81500244140625 171.8509979248047,109.71499633789062 C172.50100708007812,109.70500183105469 173.1300048828125,109.625 173.72999572753906,109.46499633789062 C173.60000610351562,106.8550033569336 172.3209991455078,104.51499938964844 170.33099365234375,102.82499694824219z"></path></g><g opacity="1" transform="matrix(1,0,0,1,0,0)"><path fill="rgb(221,31,167)" fill-opacity="1" d=" M124.73999786376953,102.81500244140625 C122.7699966430664,101.15499877929688 120.11000061035156,100.13500213623047 117.18000030517578,100.13500213623047 C114.31999969482422,100.13500213623047 111.70999908447266,101.1050033569336 109.76000213623047,102.69499969482422 C107.61000061035156,104.43499755859375 106.25,106.92500305175781 106.18000030517578,109.69499969482422 C112.77999877929688,109.75499725341797 120.33000183105469,109.82499694824219 128.19000244140625,109.86499786376953 C128.17999267578125,107.08499908447266 126.86000061035156,104.57499694824219 124.73999786376953,102.81500244140625z"></path></g><g opacity="1" transform="matrix(1,0,0,1,0,0)"><path fill="rgb(221,31,167)" fill-opacity="1" d=" M106.16999816894531,92.69499969482422 C106.01000213623047,97.96499633789062 101.13999938964844,102.18499755859375 95.16999816894531,102.18499755859375 C89.08999633789062,102.18499755859375 84.18000030517578,97.82499694824219 84.16999816894531,92.42500305175781 C86.86000061035156,92.46499633789062 95.18000030517578,92.58499908447266 106.16999816894531,92.69499969482422z"></path></g><g opacity="1" transform="matrix(1,0,0,1,0,0)"><path fill="rgb(221,31,167)" fill-opacity="1" d=" M150.9199981689453,92.89299774169922 C150.75999450683594,98.16300201416016 145.88999938964844,102.56999969482422 139.9199981689453,102.56999969482422 C133.83999633789062,102.56999969482422 128.92999267578125,98.20999908447266 128.9199981689453,92.80999755859375 C131.61000061035156,92.8499984741211 139.92999267578125,92.78299713134766 150.9199981689453,92.89299774169922z"></path></g><g opacity="1" transform="matrix(1,0,0,1,0,0)"><path fill="rgb(221,31,167)" fill-opacity="1" d=" M192.72300720214844,78.0790023803711 C192.72300720214844,78.0790023803711 194.822998046875,72.4219970703125 190.322998046875,65.22200012207031 C190.322998046875,65.22200012207031 195.17300415039062,63.77000045776367 197.00900268554688,68.77899932861328 C198.39100646972656,72.55000305175781 195.67999267578125,77.73600006103516 192.72300720214844,78.0790023803711z"></path></g><g opacity="1" transform="matrix(1,0,0,1,0,0)"><path fill="rgb(221,31,167)" fill-opacity="1" d=" M177.281005859375,92.32099914550781 C177.281005859375,92.32099914550781 182.03199768066406,96.0790023803711 186.97999572753906,94.06500244140625 C192,92.02100372314453 192.20899963378906,84.25 190.48300170898438,83.22100067138672 C190.48300170898438,83.22100067138672 186.39199829101562,90.1969985961914 177.281005859375,92.32099914550781z"></path></g></g></g><g opacity="0" transform="matrix(1,0,0,1,0,0)"><g opacity="1" transform="matrix(1,0,0,1,0,0)"><g opacity="1" transform="matrix(1,0,0,1,0,0)"><path fill="rgb(221,31,167)" fill-opacity="1" d=" M199.7270050048828,98.72100067138672 C199.7270050048828,98.72100067138672 207.30499267578125,91.66400146484375 209.3300018310547,81.73200225830078 C209.3300018310547,81.73200225830078 193.83799743652344,83.37200164794922 199.7270050048828,98.72100067138672z"></path></g><g opacity="1" transform="matrix(1,0,0,1,0,0)"><path fill="rgb(221,31,167)" fill-opacity="1" d=" M187.96600341796875,80.12300109863281 C187.96600341796875,80.12300109863281 192.59500122070312,72.63600158691406 187.23800659179688,63.422000885009766 C187.23800659179688,63.422000885009766 175.6999969482422,71.87999725341797 187.96600341796875,80.12300109863281z"></path></g><g opacity="1" transform="matrix(1,0,0,1,0,0)"><path fill="rgb(221,31,167)" fill-opacity="1" d=" M152.3090057373047,78.59300231933594 C152.3090057373047,78.59300231933594 155.43699645996094,85.87899780273438 166.0229949951172,88.1500015258789 C166.0229949951172,88.1500015258789 166.19500732421875,73.53600311279297 152.3090057373047,78.59300231933594z"></path></g><g opacity="1" transform="matrix(1,0,0,1,0,0)"><path fill="rgb(221,31,167)" fill-opacity="1" d=" M164.98899841308594,42.292999267578125 C164.98899841308594,42.292999267578125 156.48800659179688,45.4119987487793 152.03799438476562,52.821998596191406 C152.03799438476562,52.821998596191406 165.6820068359375,57.05500030517578 164.98899841308594,42.292999267578125z"></path></g><g opacity="1" transform="matrix(1,0,0,1,0,0)"><path fill="rgb(221,31,167)" fill-opacity="1" d=" M205.38600158691406,57.22200012207031 C205.38600158691406,57.22200012207031 201.4759979248047,49.70800018310547 194.02999877929688,44.92900085449219 C194.02999877929688,44.92900085449219 190.68600463867188,58.737998962402344 205.38600158691406,57.22200012207031z"></path></g></g></g><g opacity="1" transform="matrix(1,0,0,1,0,0)"><g opacity="0.4" transform="matrix(1,0,0,1,0,0)"><path fill="rgb(0,57,183)" fill-opacity="1" d=" M170.33099365234375,102.82499694824219 C170.33099365234375,102.82499694824219 170.32000732421875,102.82499694824219 170.32000732421875,102.82499694824219 C164.35000610351562,102.83499908447266 158.81100463867188,102.84500122070312 155.1009979248047,102.8550033569336 C153.68099975585938,102.86499786376953 152.52999877929688,102.86499786376953 151.72999572753906,102.86499786376953 C149.19000244140625,102.875 146.6199951171875,102.875 144.0399932861328,102.875 C138.74000549316406,102.875 133.39999389648438,102.8550033569336 128.19000244140625,102.83499908447266 C127.02999877929688,102.82499694824219 125.87999725341797,102.82499694824219 124.73999786376953,102.81500244140625 C119.48999786376953,102.78500366210938 114.43000030517578,102.73500061035156 109.76000213623047,102.69499969482422 C108.54000091552734,102.68499755859375 107.33999633789062,102.67500305175781 106.18000030517578,102.66500091552734 C93.30000305175781,102.54499816894531 84.02999877929688,102.3949966430664 83,102.375 C79.5999984741211,102.32499694824219 76.69999694824219,100.28500366210938 75.38999938964844,97.38500213623047 C74.91999816894531,98.41500091552734 74.6500015258789,99.56500244140625 74.62999725341797,100.7750015258789 C74.55999755859375,105.4749984741211 78.30000305175781,109.33499908447266 83,109.40499877929688 C84.02999877929688,109.42500305175781 93.30000305175781,109.57499694824219 106.18000030517578,109.69499969482422 C112.77999877929688,109.75499725341797 120.33000183105469,109.82499694824219 128.19000244140625,109.86499786376953 C133.39999389648438,109.88500213623047 138.74000549316406,109.90499877929688 144.0399932861328,109.90499877929688 C146.6199951171875,109.90499877929688 149.19000244140625,109.90499877929688 151.72999572753906,109.8949966430664 C158.83999633789062,109.875 165.6909942626953,109.81500244140625 171.8509979248047,109.71499633789062 C172.50100708007812,109.70500183105469 173.1300048828125,109.625 173.72999572753906,109.46499633789062 C176.9499969482422,108.68499755859375 179.4499969482422,106.07499694824219 180.0500030517578,102.79499816894531 C176.8300018310547,102.80500030517578 173.531005859375,102.80500030517578 170.33099365234375,102.82499694824219z"></path></g></g></g><g opacity="1" transform="matrix(1,0,0,1,0,0)"><g opacity="0.35000000000000003" transform="matrix(1,0,0,1,0,0)"><g opacity="1" transform="matrix(1,0,0,1,0,0)"><path stroke-linecap="round" stroke-linejoin="round" fill-opacity="0" stroke="rgb(255,255,255)" stroke-opacity="1" stroke-width="6" d=" M94.68499755859375,96.39800262451172 C94.68499755859375,96.39800262451172 119.52300262451172,96.39800262451172 119.52300262451172,96.39800262451172"></path></g></g><g opacity="1" transform="matrix(1,0,0,1,0,0)"><g opacity="0.35000000000000003" transform="matrix(1,0,0,1,0,0)"><path stroke-linecap="round" stroke-linejoin="round" fill-opacity="0" stroke="rgb(255,255,255)" stroke-opacity="1" stroke-width="6" d=" M193.17599487304688,49.60499954223633 C194.4080047607422,50.51499938964844 195.51400756835938,51.50600051879883 196.5030059814453,52.54199981689453"></path></g><g opacity="0.35000000000000003" transform="matrix(1,0,0,1,0,0)"><path stroke-linecap="round" stroke-linejoin="round" fill-opacity="0" stroke="rgb(255,255,255)" stroke-opacity="1" stroke-width="6" d=" M161.06199645996094,51.18600082397461 C161.06199645996094,51.18600082397461 167.86599731445312,43.09400177001953 180.8520050048828,44.76499938964844 C182.4429931640625,44.970001220703125 183.93499755859375,45.290000915527344 185.33200073242188,45.70600128173828"></path></g></g></g></g><g style="display: block;" transform="matrix(1,0,0,1,236,268)" opacity="1"><g opacity="1" transform="matrix(1,0,0,1,0,0)"><path fill="rgb(42,35,114)" fill-opacity="1" d=" M86.80799865722656,92.65699768066406 C86.80799865722656,92.65699768066406 86.80799865722656,109.37699890136719 86.80799865722656,109.37699890136719 C86.80799865722656,109.86699676513672 86.74800109863281,110.33699798583984 86.61799621582031,110.78700256347656 C86.61799621582031,110.78700256347656 11.977999687194824,110.78700256347656 11.977999687194824,110.78700256347656 C7.067999839782715,107.78700256347656 3.2980000972747803,104.83699798583984 3.437999963760376,102.15699768066406 C3.638000011444092,98.20700073242188 9.208000183105469,94.70700073242188 15.468000411987305,91.24700164794922 C15.468000411987305,91.24700164794922 86.61799621582031,91.24700164794922 86.61799621582031,91.24700164794922 C86.62799835205078,91.25700378417969 86.62799835205078,91.2770004272461 86.62799835205078,91.2969970703125 C86.65799713134766,91.39700317382812 86.6780014038086,91.49700164794922 86.697998046875,91.60700225830078 C86.73799896240234,91.75700378417969 86.75800323486328,91.91699981689453 86.77799987792969,92.0770034790039 C86.7979965209961,92.26699829101562 86.80799865722656,92.46700286865234 86.80799865722656,92.65699768066406z"></path></g><g opacity="1" transform="matrix(1,0,0,1,0,0)"><path fill="rgb(58,49,163)" fill-opacity="1" d=" M86.80799865722656,92.65699768066406 C86.80799865722656,92.65699768066406 86.80799865722656,107.61699676513672 86.80799865722656,107.61699676513672 C86.80799865722656,107.61699676513672 24.84600067138672,107.61699676513672 24.84600067138672,107.61699676513672 C22.176000595092773,107.61699676513672 19.756000518798828,106.5270004272461 17.996000289916992,104.7770004272461 C16.246000289916992,103.0270004272461 15.166000366210938,100.60700225830078 15.166000366210938,97.93699645996094 C15.166000366210938,94.23699951171875 18.1560001373291,91.24700164794922 21.84600067138672,91.24700164794922 C21.84600067138672,91.24700164794922 86.62799835205078,91.24700164794922 86.62799835205078,91.24700164794922 C86.63800048828125,91.25700378417969 86.63800048828125,91.2770004272461 86.63800048828125,91.2969970703125 C86.66799926757812,91.39700317382812 86.68800354003906,91.49700164794922 86.70800018310547,91.60700225830078 C86.73799896240234,91.75700378417969 86.75800323486328,91.91699981689453 86.77799987792969,92.0770034790039 C86.7979965209961,92.26699829101562 86.80799865722656,92.46700286865234 86.80799865722656,92.65699768066406z"></path></g><g opacity="1" transform="matrix(1,0,0,1,0,0)"><path fill="rgb(80,70,211)" fill-opacity="1" d=" M86.77799987792969,92.0770034790039 C86.7979965209961,92.26699829101562 86.80799865722656,92.46700286865234 86.80799865722656,92.65699768066406 C86.80799865722656,92.65699768066406 86.80799865722656,104.51699829101562 86.80799865722656,104.51699829101562 C86.80799865722656,104.51699829101562 31.47800064086914,104.51699829101562 31.47800064086914,104.51699829101562 C29.38800048828125,104.51699829101562 27.507999420166016,103.66699981689453 26.13800048828125,102.30699920654297 C24.76799964904785,100.93699645996094 23.92799949645996,99.0469970703125 23.92799949645996,96.96700286865234 C23.92799949645996,93.80699920654297 26.49799919128418,91.24700164794922 29.658000946044922,91.24700164794922 C29.658000946044922,91.24700164794922 86.62799835205078,91.24700164794922 86.62799835205078,91.24700164794922 C86.63800048828125,91.25700378417969 86.63800048828125,91.2770004272461 86.63800048828125,91.2969970703125 C86.66799926757812,91.39700317382812 86.68800354003906,91.49700164794922 86.70800018310547,91.60700225830078 C86.73799896240234,91.75700378417969 86.75800323486328,91.91699981689453 86.77799987792969,92.0770034790039z"></path></g><g opacity="1" transform="matrix(1,0,0,1,0,0)"><path fill="rgb(102,92,242)" fill-opacity="1" d=" M86.80799865722656,92.65699768066406 C86.80799865722656,92.65699768066406 86.80799865722656,99.98699951171875 86.80799865722656,99.98699951171875 C86.80799865722656,99.98699951171875 39.4379997253418,99.98699951171875 39.4379997253418,99.98699951171875 C37.80799865722656,99.98699951171875 36.347999572753906,99.3270034790039 35.28799819946289,98.26699829101562 C34.22800064086914,97.20700073242188 33.56800079345703,95.73699951171875 33.56800079345703,94.11699676513672 C33.56800079345703,92.53700256347656 34.847999572753906,91.24700164794922 36.4379997253418,91.24700164794922 C36.4379997253418,91.24700164794922 86.62799835205078,91.24700164794922 86.62799835205078,91.24700164794922 C86.63800048828125,91.25700378417969 86.63800048828125,91.2770004272461 86.63800048828125,91.2969970703125 C86.66799926757812,91.39700317382812 86.68800354003906,91.49700164794922 86.70800018310547,91.60700225830078 C86.73799896240234,91.75700378417969 86.75800323486328,91.91699981689453 86.77799987792969,92.0770034790039 C86.7979965209961,92.26699829101562 86.80799865722656,92.46700286865234 86.80799865722656,92.65699768066406z"></path></g><g opacity="1" transform="matrix(1,0,0,1,0,0)"><path fill="rgb(58,49,163)" fill-opacity="1" d=" M86.80799865722656,92.65699768066406 C86.80799865722656,92.65699768066406 86.80799865722656,109.37699890136719 86.80799865722656,109.37699890136719 C86.80799865722656,109.86699676513672 86.74800109863281,110.33699798583984 86.62799835205078,110.78700256347656 C85.99800109863281,113.2969970703125 83.70800018310547,115.15699768066406 81.01799774169922,115.15699768066406 C81.01799774169922,115.15699768066406 77.6780014038086,115.15699768066406 77.6780014038086,115.15699768066406 C74.98799896240234,115.15699768066406 72.697998046875,113.2969970703125 72.06800079345703,110.78700256347656 C71.947998046875,110.33699798583984 71.88800048828125,109.86699676513672 71.88800048828125,109.37699890136719 C71.88800048828125,109.37699890136719 71.88800048828125,92.65699768066406 71.88800048828125,92.65699768066406 C71.88800048828125,92.16699981689453 71.947998046875,91.6969985961914 72.06800079345703,91.24700164794922 C72.697998046875,88.73699951171875 74.98799896240234,86.87699890136719 77.6780014038086,86.87699890136719 C77.6780014038086,86.87699890136719 81.01799774169922,86.87699890136719 81.01799774169922,86.87699890136719 C81.0780029296875,86.87699890136719 81.14800262451172,86.87699890136719 81.20800018310547,86.88700103759766 C81.3479995727539,86.89700317382812 81.49800109863281,86.90699768066406 81.63800048828125,86.91699981689453 C81.72799682617188,86.927001953125 81.8280029296875,86.93699645996094 81.91799926757812,86.95700073242188 C82.08799743652344,86.98699951171875 82.25800323486328,87.01699829101562 82.4280014038086,87.05699920654297 C82.75800323486328,87.13700103759766 83.08799743652344,87.25700378417969 83.39800262451172,87.38700103759766 C83.55799865722656,87.46700286865234 83.71800231933594,87.5469970703125 83.86799621582031,87.63700103759766 C84.38800048828125,87.927001953125 84.85800170898438,88.2969970703125 85.24800109863281,88.73699951171875 C85.3479995727539,88.8270034790039 85.4280014038086,88.91699981689453 85.49800109863281,89.01699829101562 C85.52799987792969,89.03700256347656 85.5479965209961,89.05699920654297 85.55799865722656,89.08699798583984 C85.65799713134766,89.21700286865234 85.75800323486328,89.34700012207031 85.8479995727539,89.48699951171875 C85.947998046875,89.62699890136719 86.03800201416016,89.7770004272461 86.11799621582031,89.93699645996094 C86.1780014038086,90.0469970703125 86.23799896240234,90.15699768066406 86.27799987792969,90.2770004272461 C86.33799743652344,90.37699890136719 86.37799835205078,90.47699737548828 86.40799713134766,90.5770034790039 C86.47799682617188,90.71700286865234 86.51799774169922,90.85700225830078 86.55799865722656,90.99700164794922 C86.58799743652344,91.0770034790039 86.60800170898438,91.15699768066406 86.62799835205078,91.24700164794922 C86.63800048828125,91.25700378417969 86.63800048828125,91.2770004272461 86.63800048828125,91.2969970703125 C86.66799926757812,91.39700317382812 86.68800354003906,91.49700164794922 86.70800018310547,91.60700225830078 C86.73799896240234,91.75700378417969 86.75800323486328,91.91699981689453 86.77799987792969,92.0770034790039 C86.7979965209961,92.26699829101562 86.80799865722656,92.46700286865234 86.80799865722656,92.65699768066406z"></path></g><g opacity="1" transform="matrix(1,0,0,1,0,0)"><path fill="rgb(80,70,211)" fill-opacity="1" d=" M86.80799865722656,93.49700164794922 C86.80799865722656,93.49700164794922 86.80799865722656,106.677001953125 86.80799865722656,106.677001953125 C86.5479965209961,107.0270004272461 86.24800109863281,107.33699798583984 85.91799926757812,107.61699676513672 C84.68800354003906,108.70700073242188 83.02799987792969,109.37699890136719 81.21800231933594,109.40699768066406 C81.21800231933594,109.40699768066406 81.0979995727539,109.40699768066406 81.0979995727539,109.40699768066406 C79.28800201416016,109.37699890136719 77.62799835205078,108.6969985961914 76.40799713134766,107.61699676513672 C75.45800018310547,106.78700256347656 74.76799774169922,105.71700286865234 74.45800018310547,104.51699829101562 C74.3280029296875,104.0469970703125 74.25800323486328,103.5469970703125 74.25800323486328,103.0469970703125 C74.25800323486328,103.0469970703125 74.25800323486328,93.18699645996094 74.25800323486328,93.18699645996094 C74.25800323486328,92.50700378417969 74.37799835205078,91.85700225830078 74.5979995727539,91.24700164794922 C75.40799713134766,88.93699645996094 77.63800048828125,87.1969985961914 80.3479995727539,86.88700103759766 C80.55799865722656,86.89700317382812 80.76799774169922,86.90699768066406 80.96800231933594,86.927001953125 C83.66799926757812,87.21700286865234 85.65799713134766,88.93699645996094 86.4280014038086,91.24700164794922 C86.6780014038086,91.9469985961914 86.80799865722656,92.70700073242188 86.80799865722656,93.49700164794922z"></path></g><g opacity="1" transform="matrix(1,0,0,1,0,0)"><path fill="rgb(102,92,242)" fill-opacity="1" d=" M86.80799865722656,92.65699768066406 C86.80799865722656,92.65699768066406 86.80799865722656,99.98699951171875 86.80799865722656,99.98699951171875 C86.80799865722656,99.98699951171875 86.7979965209961,99.98699951171875 86.7979965209961,99.98699951171875 C85.78800201416016,101.41699981689453 84.12799835205078,102.35700225830078 82.25800323486328,102.35700225830078 C82.25800323486328,102.35700225830078 81.90799713134766,102.35700225830078 81.90799713134766,102.35700225830078 C80.03800201416016,102.35700225830078 78.37799835205078,101.41699981689453 77.36799621582031,99.98699951171875 C76.73799896240234,99.0770034790039 76.35800170898438,97.98699951171875 76.35800170898438,96.80699920654297 C76.35800170898438,96.80699920654297 76.35800170898438,92.38700103759766 76.35800170898438,92.38700103759766 C76.35800170898438,91.99700164794922 76.39800262451172,91.61699676513672 76.47799682617188,91.24700164794922 C76.93800354003906,89.03700256347656 78.72799682617188,87.30699920654297 80.96800231933594,86.927001953125 C81.0479965209961,86.90699768066406 81.12799835205078,86.89700317382812 81.20800018310547,86.88700103759766 C81.3479995727539,86.89700317382812 81.49800109863281,86.90699768066406 81.63800048828125,86.91699981689453 C81.72799682617188,86.927001953125 81.8280029296875,86.93699645996094 81.91799926757812,86.95700073242188 C82.08799743652344,86.98699951171875 82.25800323486328,87.01699829101562 82.4280014038086,87.05699920654297 C82.75800323486328,87.13700103759766 83.08799743652344,87.25700378417969 83.39800262451172,87.38700103759766 C83.55799865722656,87.46700286865234 83.71800231933594,87.5469970703125 83.86799621582031,87.63700103759766 C84.38800048828125,87.927001953125 84.85800170898438,88.2969970703125 85.24800109863281,88.73699951171875 C85.3479995727539,88.8270034790039 85.4280014038086,88.91699981689453 85.49800109863281,89.01699829101562 C85.52799987792969,89.03700256347656 85.5479965209961,89.05699920654297 85.55799865722656,89.08699798583984 C85.65799713134766,89.21700286865234 85.75800323486328,89.34700012207031 85.8479995727539,89.48699951171875 C85.947998046875,89.62699890136719 86.03800201416016,89.7770004272461 86.11799621582031,89.93699645996094 C86.1780014038086,90.0469970703125 86.23799896240234,90.15699768066406 86.27799987792969,90.2770004272461 C86.33799743652344,90.37699890136719 86.37799835205078,90.47699737548828 86.40799713134766,90.5770034790039 C86.47799682617188,90.71700286865234 86.51799774169922,90.85700225830078 86.55799865722656,90.99700164794922 C86.58799743652344,91.0770034790039 86.60800170898438,91.15699768066406 86.62799835205078,91.24700164794922 C86.63800048828125,91.25700378417969 86.63800048828125,91.2770004272461 86.63800048828125,91.2969970703125 C86.66799926757812,91.39700317382812 86.68800354003906,91.49700164794922 86.70800018310547,91.60700225830078 C86.73799896240234,91.75700378417969 86.75800323486328,91.91699981689453 86.77799987792969,92.0770034790039 C86.7979965209961,92.26699829101562 86.80799865722656,92.46700286865234 86.80799865722656,92.65699768066406z"></path></g></g><g style="display: block;" transform="matrix(1,0,0,1,236,268)" opacity="1"><g opacity="1" transform="matrix(1,0,0,1,0,0)"><g opacity="1" transform="matrix(1,0,0,1,0,0)"><path fill="rgb(255,238,189)" fill-opacity="1" d=" M39.46900177001953,-66.9219970703125 C40.39899826049805,-68.48400115966797 43.87200164794922,-70.78299713134766 46.72800064086914,-72.18299865722656 C59.10499954223633,-78.2490005493164 86.0989990234375,-77.36299896240234 107.10800170898438,-65.88700103759766 C137.0260009765625,-49.54399871826172 131.41700744628906,-35.731998443603516 124.9219970703125,-38.92499923706055 C118.427001953125,-42.11800003051758 95.51599884033203,-57.06999969482422 64.05599975585938,-56.154998779296875 C55.625999450683594,-55.90999984741211 49.69300079345703,-54.80699920654297 45.013999938964844,-55.08300018310547 C38.83300018310547,-55.446998596191406 36.91699981689453,-62.63399887084961 39.46900177001953,-66.9219970703125z"></path></g><g opacity="1" transform="matrix(1,0,0,1,0,0)"><path fill="rgb(134,63,20)" fill-opacity="1" d=" M39.887001037597656,-67.69499969482422 C40.81700134277344,-69.25700378417969 43.87200164794922,-71.78299713134766 46.72800064086914,-73.18299865722656 C59.10499954223633,-79.2490005493164 82.75599670410156,-82.0999984741211 103.76499938964844,-70.6240005493164 C133.68299865722656,-54.28099822998047 131.31300354003906,-40.47700119018555 124.81800079345703,-43.66999816894531 C118.322998046875,-46.862998962402344 95.41200256347656,-61.814998626708984 63.95199966430664,-60.900001525878906 C55.52199935913086,-60.654998779296875 49.5880012512207,-59.553001403808594 44.909000396728516,-59.82899856567383 C38.72800064086914,-60.19300079345703 37.334999084472656,-63.40700149536133 39.887001037597656,-67.69499969482422z"></path></g></g><g opacity="1" transform="matrix(1,0,0,1,0,0)"><path fill="rgb(107,32,0)" fill-opacity="1" d=" M39.840999603271484,-61.42599868774414 C39.85100173950195,-61.45600128173828 39.87099838256836,-61.49599838256836 39.89099884033203,-61.5260009765625 C40.82099914550781,-63.08599853515625 43.87099838256836,-65.61599731445312 46.73099899291992,-67.00599670410156 C59.10100173950195,-73.07599639892578 82.76100158691406,-75.9260025024414 103.76100158691406,-64.45600128173828 C118.73100280761719,-56.2760009765625 125.61100006103516,-48.72600173950195 127.94100189208984,-43.63600158691406 C131.00100708007812,-45.965999603271484 127.83100128173828,-57.47600173950195 103.76100158691406,-70.6259994506836 C82.76100158691406,-82.09600067138672 59.10100173950195,-79.24600219726562 46.73099899291992,-73.18599700927734 C43.87099838256836,-71.78600311279297 40.82099914550781,-69.25599670410156 39.89099884033203,-67.69599914550781 C38.32099914550781,-65.06600189208984 38.24100112915039,-62.83599853515625 39.840999603271484,-61.42599868774414z"></path></g></g><g style="display: block;" transform="matrix(1,0,0,1,236,268)" opacity="1"><g opacity="1" transform="matrix(1,0,0,1,0,0)"><g opacity="1" transform="matrix(1,0,0,1,0,0)"><path fill="rgb(255,238,189)" fill-opacity="1" d=" M-45.46900177001953,-66.9219970703125 C-46.39899826049805,-68.48400115966797 -49.87200164794922,-70.78299713134766 -52.72800064086914,-72.18299865722656 C-65.1050033569336,-78.2490005493164 -92.0989990234375,-77.36299896240234 -113.10800170898438,-65.88700103759766 C-143.0260009765625,-49.54399871826172 -137.41700744628906,-35.731998443603516 -130.9219970703125,-38.92499923706055 C-124.427001953125,-42.11800003051758 -101.51599884033203,-57.06999969482422 -70.05599975585938,-56.154998779296875 C-61.625999450683594,-55.90999984741211 -55.69300079345703,-54.80699920654297 -51.013999938964844,-55.08300018310547 C-44.83300018310547,-55.446998596191406 -42.91699981689453,-62.63399887084961 -45.46900177001953,-66.9219970703125z"></path></g><g opacity="1" transform="matrix(1,0,0,1,0,0)"><path fill="rgb(134,63,20)" fill-opacity="1" d=" M-45.887001037597656,-67.69499969482422 C-46.81700134277344,-69.25700378417969 -49.87200164794922,-71.78299713134766 -52.72800064086914,-73.18299865722656 C-65.1050033569336,-79.2490005493164 -88.75599670410156,-82.0999984741211 -109.76499938964844,-70.6240005493164 C-139.68299865722656,-54.28099822998047 -137.31300354003906,-40.47700119018555 -130.8179931640625,-43.66999816894531 C-124.322998046875,-46.862998962402344 -101.41200256347656,-61.814998626708984 -69.9520034790039,-60.900001525878906 C-61.52199935913086,-60.654998779296875 -55.5880012512207,-59.553001403808594 -50.909000396728516,-59.82899856567383 C-44.72800064086914,-60.19300079345703 -43.334999084472656,-63.40700149536133 -45.887001037597656,-67.69499969482422z"></path></g></g><g opacity="1" transform="matrix(1,0,0,1,0,0)"><path fill="rgb(107,32,0)" fill-opacity="1" d=" M-45.840999603271484,-61.42599868774414 C-45.85100173950195,-61.45600128173828 -45.87099838256836,-61.49599838256836 -45.89099884033203,-61.5260009765625 C-46.82099914550781,-63.08599853515625 -49.87099838256836,-65.61599731445312 -52.73099899291992,-67.00599670410156 C-65.10099792480469,-73.07599639892578 -88.76100158691406,-75.9260025024414 -109.76100158691406,-64.45600128173828 C-124.73100280761719,-56.2760009765625 -131.61099243164062,-48.72600173950195 -133.9409942626953,-43.63600158691406 C-137.00100708007812,-45.965999603271484 -133.83099365234375,-57.47600173950195 -109.76100158691406,-70.6259994506836 C-88.76100158691406,-82.09600067138672 -65.10099792480469,-79.24600219726562 -52.73099899291992,-73.18599700927734 C-49.87099838256836,-71.78600311279297 -46.82099914550781,-69.25599670410156 -45.89099884033203,-67.69599914550781 C-44.32099914550781,-65.06600189208984 -44.24100112915039,-62.83599853515625 -45.840999603271484,-61.42599868774414z"></path></g></g><g clip-path="url(#__lottie_element_2252)" style="display: none;"><g style="display: none;"><g><path></path></g><g><path></path></g></g></g><g clip-path="url(#__lottie_element_2243)" style="display: none;"><g style="display: none;"><g><path></path></g><g><path></path></g></g></g><g clip-path="url(#__lottie_element_2234)" style="display: none;"><g style="display: none;"><g><path></path></g><g><path></path></g></g></g><g clip-path="url(#__lottie_element_2225)" style="display: none;"><g style="display: none;"><g><path></path></g><g><path></path></g></g></g><g clip-path="url(#__lottie_element_2216)" style="display: none;"><g style="display: none;"><g><path></path></g><g><path></path></g></g></g><g clip-path="url(#__lottie_element_2207)" style="display: none;"><g style="display: none;"><g><path></path></g><g><path></path></g></g></g><g clip-path="url(#__lottie_element_2198)" style="display: none;"><g style="display: none;"><g><path></path></g><g><path></path></g></g></g><g clip-path="url(#__lottie_element_2189)" style="display: none;"><g style="display: none;"><g><path></path></g><g><path></path></g></g></g><g clip-path="url(#__lottie_element_2180)" style="display: none;"><g style="display: none;"><g><path></path></g><g><path></path></g></g></g><g clip-path="url(#__lottie_element_2171)" style="display: none;"><g style="display: none;"><g><path></path></g><g><path></path></g></g></g></g></svg>