<svg xmlns="http://www.w3.org/2000/svg" viewBox="0 0 512 512" width="512" height="512" style="width: 100%; height: 100%; transform: translate3d(0,0,0);" preserveAspectRatio="xMidYMid meet"><defs><clipPath id="__lottie_element_13494"><rect width="512" height="512" x="0" y="0"></rect></clipPath><linearGradient id="__lottie_element_13501" spreadMethod="pad" gradientUnits="userSpaceOnUse" x1="-2" y1="-183" x2="-2" y2="125.49500274658203"><stop offset="0%" stop-color="rgb(22,94,248)" stop-opacity="1"></stop><stop offset="48%" stop-color="rgb(134,143,159)" stop-opacity="0.5189999938011169"></stop><stop offset="60%" stop-color="rgb(246,192,69)" stop-opacity="0.03700000047683716"></stop></linearGradient><linearGradient id="__lottie_element_13502" spreadMethod="pad" gradientUnits="userSpaceOnUse" x1="-2" y1="-177" x2="-2" y2="139.69200134277344"><stop offset="0%" stop-color="rgb(41,49,169)" stop-opacity="1"></stop><stop offset="50%" stop-color="rgb(148,83,106)" stop-opacity="0.5"></stop><stop offset="74%" stop-color="rgb(255,118,42)" stop-opacity="0"></stop></linearGradient></defs><g clip-path="url(#__lottie_element_13494)"><g style="display: block;" transform="matrix(1.0499999523162842,0,0,1.0499999523162842,256,248)" opacity="1"><g opacity="1" transform="matrix(1,0,0,1,0,0)"><path fill="rgb(255,173,0)" fill-opacity="1" d=" M-1.1150000095367432,-196.8419952392578 C-105.42500305175781,-196.8419952392578 -189.97500610351562,-112.28199768066406 -189.97500610351562,-7.9720001220703125 C-189.97500610351562,55.71799850463867 -148.61399841308594,89.25800323486328 -120.26399993896484,115.48799896240234 C-69.25399780273438,162.67799377441406 -39.95500183105469,184.9080047607422 -1.1150000095367432,184.9080047607422 C37.724998474121094,184.9080047607422 67.0250015258789,162.67799377441406 118.03500366210938,115.48799896240234 C146.38499450683594,89.25800323486328 187.7449951171875,55.71799850463867 187.7449951171875,-7.9720001220703125 C187.7449951171875,-112.28199768066406 103.19499969482422,-196.8419952392578 -1.1150000095367432,-196.8419952392578z"></path><path stroke-linecap="butt" stroke-linejoin="miter" fill-opacity="0" stroke-miterlimit="10" stroke="rgb(255,118,42)" stroke-opacity="1" stroke-width="8" d=" M-1.1150000095367432,-196.8419952392578 C-105.42500305175781,-196.8419952392578 -189.97500610351562,-112.28199768066406 -189.97500610351562,-7.9720001220703125 C-189.97500610351562,55.71799850463867 -148.61399841308594,89.25800323486328 -120.26399993896484,115.48799896240234 C-69.25399780273438,162.67799377441406 -39.95500183105469,184.9080047607422 -1.1150000095367432,184.9080047607422 C37.724998474121094,184.9080047607422 67.0250015258789,162.67799377441406 118.03500366210938,115.48799896240234 C146.38499450683594,89.25800323486328 187.7449951171875,55.71799850463867 187.7449951171875,-7.9720001220703125 C187.7449951171875,-112.28199768066406 103.19499969482422,-196.8419952392578 -1.1150000095367432,-196.8419952392578z"></path></g><g opacity="1" transform="matrix(1,0,0,1,0,0)"><path fill="rgb(255,207,0)" fill-opacity="1" d=" M-1.1150000095367432,-181.9290008544922 C-95.7020034790039,-181.9290008544922 -172.3699951171875,-105.2509994506836 -172.3699951171875,-10.663999557495117 C-172.3699951171875,47.0890007019043 -134.86599731445312,77.50299835205078 -109.15799713134766,101.28800201416016 C-62.90299987792969,144.07899475097656 -36.33399963378906,164.23699951171875 -1.1150000095367432,164.23699951171875 C34.104000091552734,164.23699951171875 60.67399978637695,144.07899475097656 106.92900085449219,101.28800201416016 C132.63600158691406,77.50299835205078 170.14100646972656,47.0890007019043 170.14100646972656,-10.663999557495117 C170.14100646972656,-105.2509994506836 93.47200012207031,-181.9290008544922 -1.1150000095367432,-181.9290008544922z"></path></g><g opacity="1" transform="matrix(1,0,0,1,0,0)"><path fill="url(#__lottie_element_13501)" fill-opacity="1" d=" M-1.1150000095367432,-200.8419952392578 C-107.45800018310547,-200.8419952392578 -193.97500610351562,-114.32099914550781 -193.97500610351562,-7.9720001220703125 C-193.97500610351562,53.44900131225586 -156.125,88.08000183105469 -128.48899841308594,113.36599731445312 C-126.61000061035156,115.08499908447266 -124.76899719238281,116.76899719238281 -122.98100280761719,118.42400360107422 C-69.25199890136719,168.12899780273438 -40.44499969482422,188.9080047607422 -1.1150000095367432,188.9080047607422 C38.215999603271484,188.9080047607422 67.02300262451172,168.12899780273438 120.75199890136719,118.42400360107422 C122.54100036621094,116.76799774169922 124.38300323486328,115.08399963378906 126.26200103759766,113.36399841308594 C153.8979949951172,88.0780029296875 191.7449951171875,53.448001861572266 191.7449951171875,-7.9720001220703125 C191.7449951171875,-114.32099914550781 105.22899627685547,-200.8419952392578 -1.1150000095367432,-200.8419952392578z"></path></g><g opacity="1" transform="matrix(1,0,0,1,0,0)"><g opacity="1" transform="matrix(1,0,0,1,0,0)"><path fill="url(#__lottie_element_13502)" fill-opacity="1" d=" M-1.1150000095367432,188.9080047607422 C-40.44499969482422,188.9080047607422 -69.25199890136719,168.12899780273438 -122.98100280761719,118.42400360107422 C-124.76899719238281,116.76899719238281 -126.61000061035156,115.08499908447266 -128.48899841308594,113.36599731445312 C-156.125,88.08000183105469 -193.97500610351562,53.44900131225586 -193.97500610351562,-7.9720001220703125 C-193.97500610351562,-114.32099914550781 -107.45800018310547,-200.8419952392578 -1.1150000095367432,-200.8419952392578 C105.22899627685547,-200.8419952392578 191.7449951171875,-114.32099914550781 191.7449951171875,-7.9720001220703125 C191.7449951171875,53.448001861572266 153.8979949951172,88.0780029296875 126.26200103759766,113.36399841308594 C124.38300323486328,115.08399963378906 122.54100036621094,116.76799774169922 120.75199890136719,118.42400360107422 C67.02300262451172,168.12899780273438 38.215999603271484,188.9080047607422 -1.1150000095367432,188.9080047607422z M-1.1150000095367432,-192.8419952392578 C-103.0469970703125,-192.8419952392578 -185.97500610351562,-109.91000366210938 -185.97500610351562,-7.9720001220703125 C-185.97500610351562,49.92499923706055 -151.10699462890625,81.8280029296875 -123.08899688720703,107.46299743652344 C-121.1989974975586,109.19200134277344 -119.3479995727539,110.88700103759766 -117.5479965209961,112.5510025024414 C-65.44300079345703,160.75599670410156 -37.74800109863281,180.9080047607422 -1.1150000095367432,180.9080047607422 C35.51900100708008,180.9080047607422 63.21200180053711,160.75599670410156 115.31800079345703,112.5510025024414 C117.11799621582031,110.88600158691406 118.97000122070312,109.19100189208984 120.86100006103516,107.46099853515625 C148.8780059814453,81.82599639892578 183.7449951171875,49.92300033569336 183.7449951171875,-7.9720001220703125 C183.7449951171875,-109.91000366210938 100.81800079345703,-192.8419952392578 -1.1150000095367432,-192.8419952392578z"></path></g></g><g opacity="0.3" transform="matrix(1,0,0,1,0,0)"><path fill="rgb(255,255,255)" fill-opacity="1" d=" M148.16600036621094,-50.39699935913086 C148.16600036621094,22.246000289916992 81.33599853515625,-35.21799850463867 -1.1019999980926514,-35.21799850463867 C-83.54000091552734,-35.21799850463867 -150.36900329589844,22.246000289916992 -150.36900329589844,-50.39699935913086 C-150.36900329589844,-123.04000091552734 -83.54000091552734,-181.9290008544922 -1.1019999980926514,-181.9290008544922 C81.33599853515625,-181.9290008544922 148.16600036621094,-123.04000091552734 148.16600036621094,-50.39699935913086z"></path></g><g opacity="1" transform="matrix(1,0,0,1,0,0)"><g opacity="1" transform="matrix(1,0,0,1,0,0)"><path stroke-linecap="round" stroke-linejoin="round" fill-opacity="0" stroke="rgb(255,255,255)" stroke-opacity="1" stroke-width="6" d=" M35.270999908447266,-177.7100067138672 C36.808998107910156,-177.375 38.404998779296875,-177.0050048828125 40.04899978637695,-176.5989990234375"></path></g><g opacity="1" transform="matrix(1,0,0,1,0,0)"><path stroke-linecap="round" stroke-linejoin="round" fill-opacity="0" stroke="rgb(255,255,255)" stroke-opacity="1" stroke-width="6" d=" M13.916999816894531,-180.9290008544922 C13.916999816894531,-180.9290008544922 18.784000396728516,-180.66900634765625 26.506999969482422,-179.39100646972656"></path></g></g><g opacity="1" transform="matrix(1,0,0,1,0,0)"><path fill="rgb(255,173,0)" fill-opacity="1" d=" M91.25299835205078,67.54199981689453 C91.25299835205078,67.54199981689453 59.20800018310547,97.55999755859375 45.69200134277344,166.61900329589844 C45.69200134277344,166.61900329589844 83.56099700927734,142.23500061035156 83.56099700927734,142.23500061035156 C83.56099700927734,142.23500061035156 91.25299835205078,67.54199981689453 91.25299835205078,67.54199981689453z"></path></g><g opacity="1" transform="matrix(1,0,0,1,0,0)"><path fill="rgb(255,173,0)" fill-opacity="1" d=" M-93.26899719238281,67.54199981689453 C-93.26899719238281,67.54199981689453 -61.2239990234375,97.55999755859375 -47.70800018310547,166.61900329589844 C-47.70800018310547,166.61900329589844 -85.5770034790039,142.23500061035156 -85.5770034790039,142.23500061035156 C-85.5770034790039,142.23500061035156 -93.26899719238281,67.54199981689453 -93.26899719238281,67.54199981689453z"></path></g></g><g style="display: block;" transform="matrix(1.0499999523162842,0,0,1.0499999523162842,256,248)" opacity="1"><g opacity="1" transform="matrix(1,0,0,1,0,0)"><path fill="rgb(255,173,0)" fill-opacity="1" d=" M1.690999984741211,139.70599365234375 C1.690999984741211,139.70599365234375 -4.078999996185303,139.70599365234375 -4.078999996185303,139.70599365234375 C-25.965999603271484,139.70599365234375 -43.70800018310547,121.96399688720703 -43.70800018310547,100.0770034790039 C-43.70800018310547,100.0770034790039 -43.70800018310547,47.007999420166016 -43.70800018310547,47.007999420166016 C-43.70800018310547,25.121000289916992 -25.965999603271484,7.377999782562256 -4.078999996185303,7.377999782562256 C-4.078999996185303,7.377999782562256 1.690999984741211,7.377999782562256 1.690999984741211,7.377999782562256 C23.577999114990234,7.377999782562256 41.32099914550781,25.121000289916992 41.32099914550781,47.007999420166016 C41.32099914550781,47.007999420166016 41.32099914550781,100.0770034790039 41.32099914550781,100.0770034790039 C41.32099914550781,121.96399688720703 23.577999114990234,139.70599365234375 1.690999984741211,139.70599365234375z"></path></g><g opacity="1" transform="matrix(1,0,0,1,0,0)"><path fill="rgb(255,225,156)" fill-opacity="1" d=" M1.690999984741211,153.70599365234375 C1.690999984741211,153.70599365234375 -4.078999996185303,153.70599365234375 -4.078999996185303,153.70599365234375 C-25.965999603271484,153.70599365234375 -43.70800018310547,135.96400451660156 -43.70800018310547,114.0770034790039 C-43.70800018310547,114.0770034790039 -43.70800018310547,61.007999420166016 -43.70800018310547,61.007999420166016 C-43.70800018310547,39.12099838256836 -25.965999603271484,21.378000259399414 -4.078999996185303,21.378000259399414 C-4.078999996185303,21.378000259399414 1.690999984741211,21.378000259399414 1.690999984741211,21.378000259399414 C23.577999114990234,21.378000259399414 41.32099914550781,39.12099838256836 41.32099914550781,61.007999420166016 C41.32099914550781,61.007999420166016 41.32099914550781,114.0770034790039 41.32099914550781,114.0770034790039 C41.32099914550781,135.96400451660156 23.577999114990234,153.70599365234375 1.690999984741211,153.70599365234375z"></path></g><g opacity="1" transform="matrix(1,0,0,1,0,0)"><path fill="rgb(143,58,0)" fill-opacity="1" d=" M1.690999984741211,145.70599365234375 C1.690999984741211,145.70599365234375 -4.078999996185303,145.70599365234375 -4.078999996185303,145.70599365234375 C-25.965999603271484,145.70599365234375 -43.70800018310547,127.96399688720703 -43.70800018310547,106.0770034790039 C-43.70800018310547,106.0770034790039 -43.70800018310547,53.007999420166016 -43.70800018310547,53.007999420166016 C-43.70800018310547,31.121000289916992 -25.965999603271484,13.378000259399414 -4.078999996185303,13.378000259399414 C-4.078999996185303,13.378000259399414 1.690999984741211,13.378000259399414 1.690999984741211,13.378000259399414 C23.577999114990234,13.378000259399414 41.32099914550781,31.121000289916992 41.32099914550781,53.007999420166016 C41.32099914550781,53.007999420166016 41.32099914550781,106.0770034790039 41.32099914550781,106.0770034790039 C41.32099914550781,127.96399688720703 23.577999114990234,145.70599365234375 1.690999984741211,145.70599365234375z"></path></g><g opacity="1" transform="matrix(1,0,0,1,0,0)"><path fill="rgb(107,32,0)" fill-opacity="1" d=" M41.32500076293945,53.007999420166016 C41.32500076293945,53.007999420166016 41.32500076293945,63.667999267578125 41.32500076293945,63.667999267578125 C41.32500076293945,41.78799819946289 23.575000762939453,24.038000106811523 1.6950000524520874,24.038000106811523 C1.6950000524520874,24.038000106811523 -4.074999809265137,24.038000106811523 -4.074999809265137,24.038000106811523 C-25.96500015258789,24.038000106811523 -43.70399856567383,41.78799819946289 -43.70399856567383,63.667999267578125 C-43.70399856567383,63.667999267578125 -43.70399856567383,53.007999420166016 -43.70399856567383,53.007999420166016 C-43.70399856567383,31.118000030517578 -25.96500015258789,13.378000259399414 -4.074999809265137,13.378000259399414 C-4.074999809265137,13.378000259399414 1.6950000524520874,13.378000259399414 1.6950000524520874,13.378000259399414 C23.575000762939453,13.378000259399414 41.32500076293945,31.118000030517578 41.32500076293945,53.007999420166016z"></path></g></g><g style="display: block;" transform="matrix(1.0499999523162842,0,0,1.0499999523162842,256,248)" opacity="1"><g opacity="1" transform="matrix(1,0,0,1,0,0)"><path fill="rgb(209,209,209)" fill-opacity="1" d=" M-131.531005859375,-55.00400161743164 C-146.78500366210938,-23.634000778198242 -138.93299865722656,11.626999855041504 -113.99400329589844,23.753000259399414 C-89.05500030517578,35.87900161743164 -56.4739990234375,20.280000686645508 -41.220001220703125,-11.09000015258789 C-25.965999603271484,-42.459999084472656 -33.81700134277344,-77.72100067138672 -58.75600051879883,-89.84700012207031 C-83.69499969482422,-101.9729995727539 -116.2770004272461,-86.3740005493164 -131.531005859375,-55.00400161743164z"></path><path stroke-linecap="butt" stroke-linejoin="miter" fill-opacity="0" stroke-miterlimit="10" stroke="rgb(112,110,107)" stroke-opacity="1" stroke-width="8" d=" M-131.531005859375,-55.00400161743164 C-146.78500366210938,-23.634000778198242 -138.93299865722656,11.626999855041504 -113.99400329589844,23.753000259399414 C-89.05500030517578,35.87900161743164 -56.4739990234375,20.280000686645508 -41.220001220703125,-11.09000015258789 C-25.965999603271484,-42.459999084472656 -33.81700134277344,-77.72100067138672 -58.75600051879883,-89.84700012207031 C-83.69499969482422,-101.9729995727539 -116.2770004272461,-86.3740005493164 -131.531005859375,-55.00400161743164z"></path></g><g opacity="1" transform="matrix(1,0,0,1,0,0)"><path fill="rgb(255,255,255)" fill-opacity="1" d=" M-123.5250015258789,-47.15399932861328 C-135.58299255371094,-22.354999542236328 -129.2469940185547,5.583000183105469 -109.37200164794922,15.246999740600586 C-89.49700164794922,24.910999298095703 -63.61000061035156,12.642999649047852 -51.55099868774414,-12.156000137329102 C-39.49300003051758,-36.95500183105469 -45.83000183105469,-64.89299774169922 -65.70500183105469,-74.55699920654297 C-85.58000183105469,-84.22100067138672 -111.46700286865234,-71.9530029296875 -123.5250015258789,-47.15399932861328z"></path></g></g><g style="display: block;" transform="matrix(-1.0499999523162842,0,0,1.0499999523162842,253.1125030517578,248)" opacity="1"><g opacity="1" transform="matrix(1,0,0,1,0,0)"><path fill="rgb(209,209,209)" fill-opacity="1" d=" M-131.531005859375,-55.00400161743164 C-146.78500366210938,-23.634000778198242 -138.93299865722656,11.626999855041504 -113.99400329589844,23.753000259399414 C-89.05500030517578,35.87900161743164 -56.4739990234375,20.280000686645508 -41.220001220703125,-11.09000015258789 C-25.965999603271484,-42.459999084472656 -33.81700134277344,-77.72100067138672 -58.75600051879883,-89.84700012207031 C-83.69499969482422,-101.9729995727539 -116.2770004272461,-86.3740005493164 -131.531005859375,-55.00400161743164z"></path><path stroke-linecap="butt" stroke-linejoin="miter" fill-opacity="0" stroke-miterlimit="10" stroke="rgb(112,110,107)" stroke-opacity="1" stroke-width="8" d=" M-131.531005859375,-55.00400161743164 C-146.78500366210938,-23.634000778198242 -138.93299865722656,11.626999855041504 -113.99400329589844,23.753000259399414 C-89.05500030517578,35.87900161743164 -56.4739990234375,20.280000686645508 -41.220001220703125,-11.09000015258789 C-25.965999603271484,-42.459999084472656 -33.81700134277344,-77.72100067138672 -58.75600051879883,-89.84700012207031 C-83.69499969482422,-101.9729995727539 -116.2770004272461,-86.3740005493164 -131.531005859375,-55.00400161743164z"></path></g><g opacity="1" transform="matrix(1,0,0,1,0,0)"><path fill="rgb(255,255,255)" fill-opacity="1" d=" M-123.5250015258789,-47.15399932861328 C-135.58299255371094,-22.354999542236328 -129.2469940185547,5.583000183105469 -109.37200164794922,15.246999740600586 C-89.49700164794922,24.910999298095703 -63.61000061035156,12.642999649047852 -51.55099868774414,-12.156000137329102 C-39.49300003051758,-36.95500183105469 -45.83000183105469,-64.89299774169922 -65.70500183105469,-74.55699920654297 C-85.58000183105469,-84.22100067138672 -111.46700286865234,-71.9530029296875 -123.5250015258789,-47.15399932861328z"></path></g></g><g style="display: block;" transform="matrix(1.0499999523162842,0,0,1.0499999523162842,256,248)" opacity="1"><g opacity="1" transform="matrix(1,0,0,1,0,0)"><path fill="rgb(255,173,0)" fill-opacity="1" d=" M78.33300018310547,104.44000244140625 C87.38099670410156,77.55000305175781 102.28600311279297,46.518001556396484 130.34100341796875,38.52299880981445 C158.39599609375,30.527999877929688 173.3090057373047,49.547000885009766 164.52099609375,72.48200225830078 C154.94900512695312,97.46199798583984 149.625,107.48300170898438 155.22799682617188,139.70599365234375 C158.73399353027344,159.8679962158203 171.41099548339844,188.50599670410156 130.79299926757812,198.9499969482422 C99.10399627685547,207.09800720214844 71.44300079345703,194.01100158691406 67.89700317382812,176.13499450683594 C65.05599975585938,161.80999755859375 71.69400024414062,124.16999816894531 78.33300018310547,104.44000244140625z"></path><path stroke-linecap="butt" stroke-linejoin="miter" fill-opacity="0" stroke-miterlimit="10" stroke="rgb(255,118,42)" stroke-opacity="1" stroke-width="8" d=" M78.33300018310547,104.44000244140625 C87.38099670410156,77.55000305175781 102.28600311279297,46.518001556396484 130.34100341796875,38.52299880981445 C158.39599609375,30.527999877929688 173.3090057373047,49.547000885009766 164.52099609375,72.48200225830078 C154.94900512695312,97.46199798583984 149.625,107.48300170898438 155.22799682617188,139.70599365234375 C158.73399353027344,159.8679962158203 171.41099548339844,188.50599670410156 130.79299926757812,198.9499969482422 C99.10399627685547,207.09800720214844 71.44300079345703,194.01100158691406 67.89700317382812,176.13499450683594 C65.05599975585938,161.80999755859375 71.69400024414062,124.16999816894531 78.33300018310547,104.44000244140625z"></path></g><g opacity="1" transform="matrix(1,0,0,1,0,0)"><path fill="rgb(255,207,0)" fill-opacity="1" d=" M90.39399719238281,107.11599731445312 C97.79499816894531,85.12000274658203 111.03600311279297,67.54199981689453 127.99500274658203,63.402000427246094 C145.49000549316406,59.13100051879883 151.55099487304688,70.01799774169922 144.89599609375,88.9739990234375 C140.67999267578125,100.98300170898438 139.58299255371094,108.61100006103516 142.29400634765625,135.96400451660156 C143.94500732421875,152.6230010986328 156.54200744628906,176.89700317382812 125.30599975585938,184.60699462890625 C99.56900024414062,190.9600067138672 83.75700378417969,181.20399475097656 80.85700225830078,166.58099365234375 C78.53299713134766,154.86300659179688 84.96399688720703,123.25499725341797 90.39399719238281,107.11599731445312z"></path></g></g><g style="display: block;" transform="matrix(1.0499999523162842,0,0,1.0499999523162842,256,248)" opacity="1"><g opacity="1" transform="matrix(1,0,0,1,0,0)"><path fill="rgb(255,173,0)" fill-opacity="1" d=" M-80.4209976196289,104.44000244140625 C-89.46900177001953,77.55000305175781 -104.37300109863281,46.518001556396484 -132.42799377441406,38.52299880981445 C-160.48300170898438,30.527999877929688 -175.39700317382812,49.547000885009766 -166.60899353027344,72.48200225830078 C-157.03700256347656,97.46199798583984 -151.71200561523438,107.48300170898438 -157.31500244140625,139.70599365234375 C-160.8209991455078,159.8679962158203 -173.4980010986328,188.50599670410156 -132.8800048828125,198.9499969482422 C-101.19100189208984,207.09800720214844 -73.52999877929688,194.01100158691406 -69.98400115966797,176.13499450683594 C-67.14299774169922,161.80999755859375 -73.78199768066406,124.16999816894531 -80.4209976196289,104.44000244140625z"></path><path stroke-linecap="butt" stroke-linejoin="miter" fill-opacity="0" stroke-miterlimit="10" stroke="rgb(255,118,42)" stroke-opacity="1" stroke-width="8" d=" M-80.4209976196289,104.44000244140625 C-89.46900177001953,77.55000305175781 -104.37300109863281,46.518001556396484 -132.42799377441406,38.52299880981445 C-160.48300170898438,30.527999877929688 -175.39700317382812,49.547000885009766 -166.60899353027344,72.48200225830078 C-157.03700256347656,97.46199798583984 -151.71200561523438,107.48300170898438 -157.31500244140625,139.70599365234375 C-160.8209991455078,159.8679962158203 -173.4980010986328,188.50599670410156 -132.8800048828125,198.9499969482422 C-101.19100189208984,207.09800720214844 -73.52999877929688,194.01100158691406 -69.98400115966797,176.13499450683594 C-67.14299774169922,161.80999755859375 -73.78199768066406,124.16999816894531 -80.4209976196289,104.44000244140625z"></path></g><g opacity="1" transform="matrix(1,0,0,1,0,0)"><path fill="rgb(255,207,0)" fill-opacity="1" d=" M-92.48200225830078,107.11599731445312 C-99.88300323486328,85.12000274658203 -113.12300109863281,67.54199981689453 -130.08200073242188,63.402000427246094 C-147.57699584960938,59.13100051879883 -153.63800048828125,70.01799774169922 -146.98300170898438,88.9739990234375 C-142.76699829101562,100.98300170898438 -141.6699981689453,108.61100006103516 -144.38099670410156,135.96400451660156 C-146.03199768066406,152.6230010986328 -158.62899780273438,176.89700317382812 -127.39299774169922,184.60699462890625 C-101.65599822998047,190.9600067138672 -85.84400177001953,181.20399475097656 -82.94400024414062,166.58099365234375 C-80.62000274658203,154.86300659179688 -87.052001953125,123.25499725341797 -92.48200225830078,107.11599731445312z"></path></g></g></g></svg>