<svg xmlns="http://www.w3.org/2000/svg" viewBox="0 0 512 512" width="512" height="512" style="width: 100%; height: 100%; transform: translate3d(0,0,0);" preserveAspectRatio="xMidYMid meet"><defs><clipPath id="__lottie_element_13519"><rect width="512" height="512" x="0" y="0"></rect></clipPath><linearGradient id="__lottie_element_13525" spreadMethod="pad" gradientUnits="userSpaceOnUse" x1="-73.60800170898438" y1="117.23300170898438" x2="48.1510009765625" y2="119.05799865722656"><stop offset="0%" stop-color="rgb(53,86,0)"></stop><stop offset="11%" stop-color="rgb(40,72,0)"></stop><stop offset="28%" stop-color="rgb(26,58,0)"></stop><stop offset="55%" stop-color="rgb(75,113,4)"></stop><stop offset="72%" stop-color="rgb(124,168,7)"></stop><stop offset="94%" stop-color="rgb(106,147,4)"></stop><stop offset="100%" stop-color="rgb(87,126,0)"></stop></linearGradient><linearGradient id="__lottie_element_13526" spreadMethod="pad" gradientUnits="userSpaceOnUse" x1="-76.48500061035156" y1="180.5229949951172" x2="54.8390007019043" y2="181.68899536132812"><stop offset="21%" stop-color="rgb(121,100,63)"></stop><stop offset="41%" stop-color="rgb(148,120,72)"></stop><stop offset="50%" stop-color="rgb(175,139,81)"></stop><stop offset="75%" stop-color="rgb(201,171,116)"></stop><stop offset="79%" stop-color="rgb(228,203,150)"></stop><stop offset="89%" stop-color="rgb(236,211,157)"></stop><stop offset="100%" stop-color="rgb(244,220,164)"></stop></linearGradient><linearGradient id="__lottie_element_13527" spreadMethod="pad" gradientUnits="userSpaceOnUse" x1="-44.02000045776367" y1="-12.083999633789062" x2="19.990999221801758" y2="-11.427000045776367"><stop offset="13%" stop-color="rgb(121,100,63)"></stop><stop offset="23%" stop-color="rgb(148,120,72)"></stop><stop offset="32%" stop-color="rgb(175,139,81)"></stop><stop offset="42%" stop-color="rgb(199,169,113)"></stop><stop offset="56%" stop-color="rgb(223,198,146)"></stop><stop offset="76%" stop-color="rgb(231,206,154)"></stop><stop offset="90%" stop-color="rgb(238,214,161)"></stop></linearGradient><linearGradient id="__lottie_element_13528" spreadMethod="pad" gradientUnits="userSpaceOnUse" x1="-39.654998779296875" y1="-67.71299743652344" x2="16.996000289916992" y2="-67.19200134277344"><stop offset="0%" stop-color="rgb(53,107,0)"></stop><stop offset="12%" stop-color="rgb(49,102,0)"></stop><stop offset="31%" stop-color="rgb(46,97,0)"></stop><stop offset="52%" stop-color="rgb(85,133,4)"></stop><stop offset="72%" stop-color="rgb(124,168,7)"></stop><stop offset="94%" stop-color="rgb(106,147,4)"></stop><stop offset="100%" stop-color="rgb(87,126,0)"></stop></linearGradient></defs><g clip-path="url(#__lottie_element_13519)"><g style="display: block;" transform="matrix(0.7071067690849304,-0.7071067690849304,0.7071067690849304,0.7071067690849304,252.62863159179688,250.40399169921875)" opacity="1"><g opacity="1" transform="matrix(1,0,0,1,0,0)"><g opacity="1" transform="matrix(1,0,0,1,0,0)"><g opacity="1" transform="matrix(1,0,0,1,0,0)"><path fill="rgb(247,240,226)" fill-opacity="1" d=" M93.75800323486328,-182.42100524902344 C94.4209976196289,-186.64100646972656 80.40299987792969,-191.21800231933594 76.33399963378906,-187.58299255371094 C72.26499938964844,-183.947998046875 91.66100311279297,-169.0850067138672 93.75800323486328,-182.42100524902344z"></path><path stroke-linecap="round" stroke-linejoin="round" fill-opacity="0" stroke="rgb(205,194,179)" stroke-opacity="1" stroke-width="5" d=" M93.75800323486328,-182.42100524902344 C94.4209976196289,-186.64100646972656 80.40299987792969,-191.21800231933594 76.33399963378906,-187.58299255371094 C72.26499938964844,-183.947998046875 91.66100311279297,-169.0850067138672 93.75800323486328,-182.42100524902344z"></path></g></g><g opacity="0.4" transform="matrix(1,0,0,1,0,0)"><path stroke-linecap="round" stroke-linejoin="round" fill-opacity="0" stroke="rgb(143,149,132)" stroke-opacity="1" stroke-width="5" d=" M76.33399963378906,-187.58299255371094 C73.94300079345703,-185.44700622558594 79.65299987792969,-179.43600463867188 85.19499969482422,-177.5449981689453"></path></g></g></g><g style="display: none;"><g><path></path><path stroke-linecap="round" stroke-linejoin="round" fill-opacity="0"></path></g></g><g style="display: none;"><g><path></path><path stroke-linecap="round" stroke-linejoin="round" fill-opacity="0"></path></g></g><g style="display: none;"><g><path></path><path stroke-linecap="round" stroke-linejoin="round" fill-opacity="0"></path></g></g><g style="display: none;"><g><path></path><path stroke-linecap="round" stroke-linejoin="round" fill-opacity="0"></path></g></g><g style="display: block;" transform="matrix(0.7071067690849304,-0.7071067690849304,0.7071067690849304,0.7071067690849304,252.62863159179688,250.40399169921875)" opacity="1"><g opacity="1" transform="matrix(1,0,0,1,0,0)"><path fill="rgb(229,221,206)" fill-opacity="1" d=" M64.3479995727539,-169.66799926757812 C69.5790023803711,-176.822998046875 63.0890007019043,-180.9810028076172 54.422000885009766,-178.18499755859375 C45.755001068115234,-175.38900756835938 33.005001068115234,-164.74600219726562 25.413999557495117,-149.32400512695312 C17.822999954223633,-133.90199279785156 15.774999618530273,-103.0260009765625 18.625,-116.71700286865234 C25.413999557495117,-149.32400512695312 58.191001892089844,-161.2469940185547 64.3479995727539,-169.66799926757812z"></path><path stroke-linecap="round" stroke-linejoin="round" fill-opacity="0" stroke="rgb(197,185,175)" stroke-opacity="1" stroke-width="5" d=" M64.3479995727539,-169.66799926757812 C69.5790023803711,-176.822998046875 63.0890007019043,-180.9810028076172 54.422000885009766,-178.18499755859375 C45.755001068115234,-175.38900756835938 33.005001068115234,-164.74600219726562 25.413999557495117,-149.32400512695312 C17.822999954223633,-133.90199279785156 15.774999618530273,-103.0260009765625 18.625,-116.71700286865234 C25.413999557495117,-149.32400512695312 58.191001892089844,-161.2469940185547 64.3479995727539,-169.66799926757812z"></path></g><g opacity="0.6" transform="matrix(1,0,0,1,0,0)"><path stroke-linecap="round" stroke-linejoin="round" fill-opacity="0" stroke="rgb(137,160,147)" stroke-opacity="1" stroke-width="5" d=" M64.59700012207031,-177.6580047607422 C62.54499816894531,-179.24200439453125 58.75600051879883,-179.58299255371094 54.422000885009766,-178.18499755859375 C45.755001068115234,-175.38900756835938 33.005001068115234,-164.74600219726562 25.413999557495117,-149.32400512695312 C21.618000030517578,-141.61300659179688 19.208999633789062,-130.03799438476562 18.104000091552734,-122.10299682617188"></path></g></g><g style="display: block;" transform="matrix(0.7071067690849304,-0.7071067690849304,0.7071067690849304,0.7071067690849304,252.62863159179688,250.40399169921875)" opacity="1"><g opacity="1" transform="matrix(1,0,0,1,0,0)"><path fill="rgb(162,183,166)" fill-opacity="1" d=" M12.751999855041504,-113.95700073242188 C12.751999855041504,-113.95700073242188 -5.0879998207092285,-130.95700073242188 3.0460000038146973,-163.07200622558594 C11.40999984741211,-196.093994140625 -33.09299850463867,-186.8979949951172 -25.43400001525879,-163.07200622558594 C-21.384000778198242,-150.47300720214844 -21.68000030517578,-123.78900146484375 -32.060001373291016,-111.4990005493164 C-45.39099884033203,-95.71499633789062 21.121999740600586,-88.53199768066406 12.751999855041504,-113.95700073242188z"></path><path stroke-linecap="round" stroke-linejoin="round" fill-opacity="0" stroke="rgb(137,160,147)" stroke-opacity="1" stroke-width="5" d=" M12.751999855041504,-113.95700073242188 C12.751999855041504,-113.95700073242188 -5.0879998207092285,-130.95700073242188 3.0460000038146973,-163.07200622558594 C11.40999984741211,-196.093994140625 -33.09299850463867,-186.8979949951172 -25.43400001525879,-163.07200622558594 C-21.384000778198242,-150.47300720214844 -21.68000030517578,-123.78900146484375 -32.060001373291016,-111.4990005493164 C-45.39099884033203,-95.71499633789062 21.121999740600586,-88.53199768066406 12.751999855041504,-113.95700073242188z"></path></g></g><g style="display: block;" transform="matrix(0.7071067690849304,-0.7071067690849304,0.7071067690849304,0.7071067690849304,252.62863159179688,250.40399169921875)" opacity="1"><g opacity="1" transform="matrix(1,0,0,1,0,0)"><path fill="rgb(162,183,166)" fill-opacity="1" d=" M-50.388999938964844,-146.00999450683594 C-54.6150016784668,-153.63900756835938 -68.10600280761719,-167.5489959716797 -80.0719985961914,-159.85699462890625 C-85.74099731445312,-156.21299743652344 -81.29900360107422,-145.76300048828125 -70.25800323486328,-147.31700134277344 C-54.73099899291992,-149.5019989013672 -52.137001037597656,-142.29800415039062 -43.92300033569336,-131.38600158691406 C-43.92300033569336,-131.38600158691406 -50.388999938964844,-146.00999450683594 -50.388999938964844,-146.00999450683594z"></path><path stroke-linecap="round" stroke-linejoin="round" fill-opacity="0" stroke="rgb(143,149,132)" stroke-opacity="1" stroke-width="5" d=" M-50.388999938964844,-146.00999450683594 C-54.6150016784668,-153.63900756835938 -68.10600280761719,-167.5489959716797 -80.0719985961914,-159.85699462890625 C-85.74099731445312,-156.21299743652344 -81.29900360107422,-145.76300048828125 -70.25800323486328,-147.31700134277344 C-54.73099899291992,-149.5019989013672 -52.137001037597656,-142.29800415039062 -43.92300033569336,-131.38600158691406 C-43.92300033569336,-131.38600158691406 -50.388999938964844,-146.00999450683594 -50.388999938964844,-146.00999450683594z"></path></g></g><g style="display: none;"><g><g><path></path></g><g><path></path></g><g><path stroke-linecap="round" stroke-linejoin="round" fill-opacity="0"></path></g><g><g><path></path></g><g><path></path></g><g><path></path></g><g><path></path></g></g></g><g><g><path></path></g><g><path></path></g><g><g><path></path></g><g><path></path></g><g><path></path></g><g><path></path></g><g><path></path></g><g><path></path></g><g><path></path></g><g><path></path></g></g><g><path></path></g><g><path stroke-linecap="round" stroke-linejoin="round" fill-opacity="0"></path></g><g><path stroke-linecap="round" stroke-linejoin="round" fill-opacity="0"></path></g></g></g><g style="display: block;" transform="matrix(0.7071067690849304,-0.7071067690849304,0.7071067690849304,0.7071067690849304,252.62960815429688,250.4044189453125)" opacity="1"><g opacity="1" transform="matrix(1,0,0,1,0,0)"><g opacity="1" transform="matrix(1,0,0,1,0,0)"><path fill="rgb(222,159,87)" fill-opacity="1" d=" M7.828999996185303,-144.91900634765625 C1.0149999856948853,-143.48199462890625 -30.64699935913086,-140.65699768066406 -32.060001373291016,-151.84300231933594 C-33.472999572753906,-163.0290069580078 -36.50600051879883,-185.83399963378906 -32.060001373291016,-190.08900451660156 C-27.61400032043457,-194.343994140625 9.291000366210938,-193.44000244140625 12.751999855041504,-190.08799743652344 C16.21299934387207,-186.73599243164062 14.642999649047852,-146.3560028076172 7.828999996185303,-144.91900634765625z"></path></g><g opacity="0.3" transform="matrix(1,0,0,1,0,0)"><path fill="rgb(97,61,33)" fill-opacity="1" d=" M10.310999870300293,-172.21200561523438 C-9.574000358581543,-184.8090057373047 -12.914999961853027,-146.3979949951172 1.8109999895095825,-148.77200317382812 C3.99399995803833,-149.12399291992188 -28.246999740600586,-146.30099487304688 -28.246999740600586,-146.30099487304688 C-39.191001892089844,-148.40699768066406 -32.058998107910156,-190.0919952392578 -32.058998107910156,-190.0919952392578 C-31.368999481201172,-202.28199768066406 6.298999786376953,-193.55499267578125 6.298999786376953,-193.55499267578125 C17.795000076293945,-193.49000549316406 10.310999870300293,-172.21200561523438 10.310999870300293,-172.21200561523438z"></path></g><g opacity="1" transform="matrix(1,0,0,1,0,0)"><path stroke-linecap="round" stroke-linejoin="round" fill-opacity="0" stroke="rgb(111,60,18)" stroke-opacity="1" stroke-width="8" d=" M7.828999996185303,-144.91900634765625 C7.828999996185303,-144.91900634765625 -27.136999130249023,-144.91900634765625 -27.136999130249023,-144.91900634765625 C-30.961000442504883,-144.91900634765625 -34.060001373291016,-148.0189971923828 -34.060001373291016,-151.84300231933594 C-34.060001373291016,-151.84300231933594 -32.060001373291016,-190.08900451660156 -32.060001373291016,-190.08900451660156 C-32.060001373291016,-193.91200256347656 12.751999855041504,-193.91200256347656 12.751999855041504,-190.08799743652344 C12.751999855041504,-190.08799743652344 14.751999855041504,-151.8419952392578 14.751999855041504,-151.8419952392578 C14.751999855041504,-148.0189971923828 11.652999877929688,-144.91900634765625 7.828999996185303,-144.91900634765625z"></path></g><g opacity="0.6" transform="matrix(1,0,0,1,0,0)"><g opacity="1" transform="matrix(1,0,0,1,0,0)"><path fill="rgb(111,60,18)" fill-opacity="1" d=" M-11.607999801635742,-179.2530059814453 C-16.333999633789062,-181.2779998779297 -14.710000038146973,-176.6269989013672 -11.4350004196167,-174.94700622558594 C-8.15999984741211,-173.26699829101562 -4.923999786376953,-176.38999938964844 -11.607999801635742,-179.2530059814453z"></path></g><g opacity="1" transform="matrix(1,0,0,1,0,0)"><path fill="rgb(111,60,18)" fill-opacity="1" d=" M1.0770000219345093,-155.63999938964844 C-0.765999972820282,-157.31399536132812 -5.083000183105469,-158.92100524902344 -5.473999977111816,-155.63999938964844 C-5.864999771118164,-152.35899353027344 4.889999866485596,-152.177001953125 1.0770000219345093,-155.63999938964844z"></path></g><g opacity="1" transform="matrix(1,0,0,1,0,0)"><path fill="rgb(111,60,18)" fill-opacity="1" d=" M1.0269999504089355,-172.18099975585938 C-0.40299999713897705,-172.06500244140625 -1.2680000066757202,-168.06199645996094 2.0320000648498535,-168.11300659179688 C5.331999778747559,-168.16299438476562 6.335999965667725,-172.61099243164062 1.0269999504089355,-172.18099975585938z"></path></g><g opacity="1" transform="matrix(1,0,0,1,0,0)"><path fill="rgb(111,60,18)" fill-opacity="1" d=" M-23.006999969482422,-162.64199829101562 C-25.466999053955078,-164.19500732421875 -25.951000213623047,-159.35299682617188 -24.20599937438965,-157.69000244140625 C-22.461000442504883,-156.02699279785156 -17.08099937438965,-158.9029998779297 -23.006999969482422,-162.64199829101562z"></path></g></g></g><g opacity="1" transform="matrix(1,0,0,1,0,0)"><g opacity="1" transform="matrix(1,0,0,1,0,0)"><path fill="rgb(222,159,87)" fill-opacity="1" d=" M23.30699920654297,-217.51199340820312 C14.656000137329102,-227.6529998779297 -30.452999114990234,-234.6909942626953 -42.61600112915039,-217.51199340820312 C-44.7599983215332,-214.48399353027344 -48.672000885009766,-193.31300354003906 -37.29399871826172,-188.51499938964844 C-31.347999572753906,-186.00799560546875 12.085000038146973,-186.09100341796875 17.98699951171875,-188.51100158691406 C27.833999633789062,-192.54800415039062 25.71500015258789,-214.68899536132812 23.30699920654297,-217.51199340820312z"></path></g><g opacity="0.5" transform="matrix(1,0,0,1,0,0)"><path fill="rgb(255,244,198)" fill-opacity="1" d=" M21.340999603271484,-188.66200256347656 C14,-186.1269989013672 3.061000108718872,-190.4320068359375 5.091000080108643,-190.8520050048828 C17.76099967956543,-193.46200561523438 15.319999694824219,-211.55499267578125 9.093999862670898,-216.09300231933594 C2.0880000591278076,-221.19900512695312 -30.83300018310547,-222.2779998779297 -39.61899948120117,-216.51199340820312 C-39.61899948120117,-216.51199340820312 -42.20899963378906,-227.1719970703125 -9.659000396728516,-227.1719970703125 C16.410999298095703,-227.1719970703125 21.231000900268555,-222.65199279785156 23.31100082397461,-217.51199340820312 C24.69099998474121,-214.07200622558594 24.51099967956543,-189.75599670410156 21.340999603271484,-188.66200256347656z"></path></g><g opacity="0.6" transform="matrix(1,0,0,1,0,0)"><g opacity="1" transform="matrix(1,0,0,1,0,0)"><path fill="rgb(111,60,18)" fill-opacity="1" d=" M-14.114999771118164,-212.63600158691406 C-17.2810001373291,-212.79400634765625 -19.246999740600586,-217.36199951171875 -20.43199920654297,-212.6230010986328 C-21.617000579833984,-207.88400268554688 -14.845999717712402,-206.19000244140625 -10.925999641418457,-207.92599487304688 C-7.00600004196167,-209.66200256347656 -10.154999732971191,-212.43899536132812 -14.114999771118164,-212.63600158691406z"></path></g><g opacity="1" transform="matrix(1,0,0,1,0,0)"><path fill="rgb(111,60,18)" fill-opacity="1" d=" M4.3420000076293945,-209.2209930419922 C0.43299999833106995,-209.7790069580078 2.565000057220459,-206.6540069580078 5.328999996185303,-206.06199645996094 C8.093000411987305,-205.47000122070312 9.871000289916992,-208.43099975585938 4.3420000076293945,-209.2209930419922z"></path></g><g opacity="1" transform="matrix(1,0,0,1,0,0)"><path fill="rgb(111,60,18)" fill-opacity="1" d=" M-32.060001373291016,-214.69200134277344 C-34.75899887084961,-215.21800231933594 -35.92900085449219,-210.4199981689453 -34.06100082397461,-210.0540008544922 C-32.19300079345703,-209.68800354003906 -29.361000061035156,-214.16600036621094 -32.060001373291016,-214.69200134277344z"></path></g><g opacity="1" transform="matrix(1,0,0,1,0,0)"><path fill="rgb(111,60,18)" fill-opacity="1" d=" M-14.473999977111816,-198.70700073242188 C-17.2450008392334,-198.29600524902344 -14.352999687194824,-190.48699951171875 -11.274999618530273,-192.05099487304688 C-8.196999549865723,-193.61500549316406 -8.633999824523926,-199.572998046875 -14.473999977111816,-198.70700073242188z"></path></g><g opacity="1" transform="matrix(1,0,0,1,0,0)"><path fill="rgb(111,60,18)" fill-opacity="1" d=" M-31.860000610351562,-199.7100067138672 C-33.702999114990234,-200.90699768066406 -38.02000045776367,-202.05599975585938 -38.4109992980957,-199.7100067138672 C-38.801998138427734,-197.36399841308594 -28.047000885009766,-197.23300170898438 -31.860000610351562,-199.7100067138672z"></path></g><g opacity="1" transform="matrix(1,0,0,1,0,0)"><path fill="rgb(111,60,18)" fill-opacity="1" d=" M-2.4839999675750732,-221.00599670410156 C-6.6620001792907715,-222.22900390625 -8.87399959564209,-217.82000732421875 -6.580999851226807,-216.1199951171875 C-4.288000106811523,-214.4199981689453 1.8700000047683716,-219.7310028076172 -2.4839999675750732,-221.00599670410156z"></path></g><g opacity="1" transform="matrix(1,0,0,1,0,0)"><path fill="rgb(111,60,18)" fill-opacity="1" d=" M13.362000465393066,-199.71299743652344 C11.269000053405762,-200.2270050048828 9.053000450134277,-197.3159942626953 13.829999923706055,-195.9530029296875 C18.60700035095215,-194.58999633789062 21.131000518798828,-197.80599975585938 13.362000465393066,-199.71299743652344z"></path></g><g opacity="1" transform="matrix(1,0,0,1,0,0)"><path fill="rgb(111,60,18)" fill-opacity="1" d=" M17.750999450683594,-219.2429962158203 C15.289999961853027,-220.7949981689453 14.807000160217285,-215.95399475097656 16.552000045776367,-214.29100036621094 C18.297000885009766,-212.6280059814453 23.677000045776367,-215.50399780273438 17.750999450683594,-219.2429962158203z"></path></g></g><g opacity="0.4" transform="matrix(1,0,0,1,0,0)"><path fill="rgb(97,61,33)" fill-opacity="1" d=" M-16.099000930786133,-191.2220001220703 C-15.503999710083008,-191.13999938964844 -32.70899963378906,-188.31199645996094 -37.29899978637695,-188.51199340820312 C-40.64899826049805,-188.66200256347656 -50.25899887084961,-200.38800048828125 -42.61899948120117,-217.51199340820312 C-40.36000061035156,-222.5760040283203 -28.444000244140625,-230.21499633789062 -8.659000396728516,-223.1719970703125 C-24.39299964904785,-226.00999450683594 -31.55900001525879,-193.34500122070312 -16.099000930786133,-191.2220001220703z"></path></g><g opacity="1" transform="matrix(1,0,0,1,0,0)"><path stroke-linecap="round" stroke-linejoin="round" fill-opacity="0" stroke="rgb(142,88,31)" stroke-opacity="1" stroke-width="8" d=" M23.30699920654297,-217.51199340820312 C21.235000610351562,-222.65699768066406 16.408000946044922,-227.16700744628906 -9.654000282287598,-227.16700744628906 C-35.715999603271484,-227.16700744628906 -40.54399871826172,-222.65699768066406 -42.61600112915039,-217.51199340820312 C-44.00199890136719,-214.0709991455078 -44.5,-202.4219970703125 -43.71900177001953,-194.58700561523438 C-43.38600158691406,-191.24600219726562 -40.64899826049805,-188.66200256347656 -37.29399871826172,-188.51499938964844 C-30.847000122070312,-188.23300170898438 8.029000282287598,-187.39500427246094 17.98699951171875,-188.51100158691406 C21.322999954223633,-188.88499450683594 24.07699966430664,-191.24200439453125 24.40999984741211,-194.58200073242188 C25.191999435424805,-202.41700744628906 24.69300079345703,-214.07000732421875 23.30699920654297,-217.51199340820312z"></path></g><g opacity="1" transform="matrix(1,0,0,1,0,0)"><path stroke-linecap="round" stroke-linejoin="round" fill-opacity="0" stroke="rgb(111,60,18)" stroke-opacity="1" stroke-width="8" d=" M-9.654000282287598,-227.16700744628906 C-35.715999603271484,-227.16700744628906 -40.54399871826172,-222.65699768066406 -42.61600112915039,-217.51199340820312 C-44.00199890136719,-214.0709991455078 -44.5,-202.4219970703125 -43.71900177001953,-194.58700561523438 C-43.38600158691406,-191.24600219726562 -40.64899826049805,-188.66200256347656 -37.29399871826172,-188.51499938964844 C-30.847000122070312,-188.23300170898438 3.2739999294281006,-187.5050048828125 17.98699951171875,-188.51100158691406"></path></g></g></g><g style="display: block;" transform="matrix(0.7071067690849304,-0.7071067690849304,0.7071067690849304,0.7071067690849304,252.62863159179688,250.40399169921875)" opacity="1"><g opacity="1" transform="matrix(1,0,0,1,0,0)"><path fill="rgb(247,240,226)" fill-opacity="1" d=" M-12.60099983215332,-71.87899780273438 C-39.92100143432617,-72.4260025024414 -43.814998626708984,-96.85700225830078 -39.98500061035156,-113.2699966430664 C-36.154998779296875,-129.68299865722656 -56.39799880981445,-141.72000122070312 -54.75699996948242,-159.7740020751953 C-53.94900131225586,-168.66200256347656 -49.87699890136719,-173.3249969482422 -45.084999084472656,-172.72300720214844 C-33.047000885009766,-171.21200561523438 -43.68199920654297,-137.58700561523438 -27.402000427246094,-126.4010009765625 C-16.506999969482422,-118.91500091552734 -17.795000076293945,-138.0780029296875 -20.26300048828125,-148.3520050048828 C-24.030000686645508,-164.03399658203125 -43.55699920654297,-178.968994140625 -33.72700119018555,-188.2239990234375 C-29.332000732421875,-192.36199951171875 -23.364999771118164,-186.31900024414062 -21.07900047302246,-184.1009979248047 C-11.055000305175781,-174.375 -14.067000389099121,-118.84700012207031 1.6890000104904175,-116.5530014038086 C9.970999717712402,-115.34700012207031 14.545000076293945,-131.56100463867188 15.32800006866455,-148.51199340820312 C16.202999114990234,-167.43600463867188 24.704999923706055,-175.66200256347656 29.496999740600586,-173.45199584960938 C43.02299880981445,-167.21499633789062 15.82699966430664,-152.4080047607422 19.55500030517578,-109.44100189208984 C20.020000457763672,-104.0790023803711 17.579999923706055,-71.2750015258789 -12.60099983215332,-71.87899780273438z"></path></g><g opacity="0.5" transform="matrix(1,0,0,1,0,0)"><path fill="rgb(162,183,166)" fill-opacity="1" d=" M-33.83700180053711,-80.04100036621094 C-40.01900100708008,-86.24800109863281 -43.814998626708984,-96.86299896240234 -39.981998443603516,-113.26799774169922 C-36.15700149536133,-129.67999267578125 -56.400001525878906,-141.7220001220703 -54.75299835205078,-159.77499389648438 C-53.95399856567383,-168.66299438476562 -47.88800048828125,-175.73399353027344 -44.047000885009766,-171.93800354003906 C-53.270999908447266,-167.33399963378906 -45.70500183105469,-135.41600036621094 -27.402000427246094,-126.39900207519531 C-15.541000366210938,-120.55599975585938 -17.792999267578125,-138.07400512695312 -20.26099967956543,-148.34800720214844 C-23.94499969482422,-163.67100524902344 -41.2400016784668,-176.8520050048828 -32.959999084472656,-186.14999389648438 C-32.959999084472656,-186.14999389648438 -32.952999114990234,-186.14199829101562 -32.952999114990234,-186.14199829101562 C-32.952999114990234,-186.14199829101562 -29.847000122070312,-187.66099548339844 -23.860000610351562,-177.94000244140625 C-16.716999053955078,-166.34100341796875 -11.786999702453613,-141.3419952392578 -16.704999923706055,-117.8479995727539 C-22.490999221801758,-90.20500183105469 4.798999786376953,-77.99099731445312 17.718000411987305,-97.2030029296875 C6.642000198364258,-60.68600082397461 -25.888999938964844,-72.06099700927734 -33.83700180053711,-80.04100036621094z"></path></g><g opacity="1" transform="matrix(1,0,0,1,0,0)"><path stroke-linecap="round" stroke-linejoin="round" fill-opacity="0" stroke="rgb(197,185,175)" stroke-opacity="1" stroke-width="5" d=" M-12.60099983215332,-71.87899780273438 C-25.770000457763672,-71.64399719238281 -30.315000534057617,-75.58200073242188 -33.83300018310547,-80.04299926757812 C-39.25600051879883,-86.9209976196289 -43.814998626708984,-96.85700225830078 -39.98500061035156,-113.2699966430664 C-36.154998779296875,-129.68299865722656 -56.39799880981445,-141.72000122070312 -54.75699996948242,-159.7740020751953 C-53.94900131225586,-168.66200256347656 -49.882999420166016,-173.27499389648438 -45.084999084472656,-172.72300720214844 C-35.65999984741211,-171.63800048828125 -39.39099884033203,-153.0959930419922 -36.439998626708984,-141.23300170898438 C-35.02000045776367,-135.5240020751953 -31.628000259399414,-129.1820068359375 -27.402000427246094,-126.4010009765625 C-16.360000610351562,-119.13400268554688 -17.795000076293945,-138.0780029296875 -20.26300048828125,-148.3520050048828 C-24.030000686645508,-164.03399658203125 -43.92399978637695,-179.37600708007812 -33.72700119018555,-188.2239990234375 C-23.503000259399414,-197.09500122070312 -14.690999984741211,-172.56500244140625 -13.307999610900879,-161.25599670410156 C-12.095000267028809,-151.33599853515625 -10.241999626159668,-116.0719985961914 1.6890000104904175,-116.5530014038086 C10.050999641418457,-116.88999938964844 14.545000076293945,-131.56100463867188 15.32800006866455,-148.51199340820312 C16.202999114990234,-167.43600463867188 24.30500030517578,-174.39599609375 29.496999740600586,-173.45199584960938 C35.25299835205078,-172.40499877929688 33.26300048828125,-165.96400451660156 27.375999450683594,-154.23599243164062 C19.322999954223633,-138.19200134277344 20.607999801635742,-126.84300231933594 19.55500030517578,-109.44100189208984 C19.229999542236328,-104.06900024414062 17.58099937438965,-72.41799926757812 -12.60099983215332,-71.87899780273438z"></path></g><g opacity="1" transform="matrix(1,0,0,1,0,0)"><g opacity="0.6" transform="matrix(1,0,0,1,0,0)"><path stroke-linecap="round" stroke-linejoin="round" fill-opacity="0" stroke="rgb(137,160,147)" stroke-opacity="1" stroke-width="5" d=" M-27.402000427246094,-126.4010009765625 C-16.360000610351562,-119.13400268554688 -17.795000076293945,-138.0780029296875 -20.26300048828125,-148.3520050048828 C-24.030000686645508,-164.03399658203125 -43.55699920654297,-178.968994140625 -33.72700119018555,-188.2239990234375"></path></g><g opacity="0.6" transform="matrix(1,0,0,1,0,0)"><path stroke-linecap="round" stroke-linejoin="round" fill-opacity="0" stroke="rgb(137,160,147)" stroke-opacity="1" stroke-width="5" d=" M-7.335000038146973,-126.89099884033203 C-4.915999889373779,-120.11699676513672 -1.805999994277954,-115.85399627685547 1.6890000104904175,-116.5530014038086 C9.895999908447266,-118.19400024414062 14.545000076293945,-131.56100463867188 15.32800006866455,-148.51199340820312 C16.202999114990234,-167.43600463867188 24.30500030517578,-174.39599609375 29.496999740600586,-173.45199584960938"></path></g><g opacity="1" transform="matrix(1,0,0,1,0,0)"><path stroke-linecap="round" stroke-linejoin="round" fill-opacity="0" stroke="rgb(143,149,132)" stroke-opacity="1" stroke-width="5" d=" M-12.60099983215332,-71.87899780273438 C-35.060001373291016,-69.03900146484375 -45.71099853515625,-93.1240005493164 -39.98500061035156,-113.2699966430664 C-35.37699890136719,-129.48199462890625 -56.39799880981445,-141.72000122070312 -54.75699996948242,-159.7740020751953 C-54.06800079345703,-167.3520050048828 -51.15399932861328,-171.95399475097656 -46.191001892089844,-172.68099975585938"></path></g></g><g opacity="1" transform="matrix(1,0,0,1,0,0)"><g opacity="0.3" transform="matrix(1,0,0,1,0,0)"><path fill="rgb(203,187,170)" fill-opacity="1" d=" M-2.4760000705718994,-107.20800018310547 C-6.703999996185303,-112.25199890136719 -12.347000122070312,-108.21299743652344 -8.847000122070312,-99.5260009765625 C-5.3480000495910645,-90.83899688720703 7.796000003814697,-94.9530029296875 -2.4760000705718994,-107.20800018310547z"></path></g><g opacity="0.3" transform="matrix(1,0,0,1,0,0)"><path fill="rgb(203,187,170)" fill-opacity="1" d=" M7.0980000495910645,-108.18499755859375 C4.396999835968018,-108.4260025024414 2.884000062942505,-104.27999877929688 6.322999954223633,-102.3270034790039 C9.76200008392334,-100.3740005493164 12.571000099182129,-107.6969985961914 7.0980000495910645,-108.18499755859375z"></path></g></g></g><g style="display: block;" transform="matrix(0.7071067690849304,-0.7071067690849304,0.7071067690849304,0.7071067690849304,252.62863159179688,250.40399169921875)" opacity="1"><g opacity="1" transform="matrix(1,0,0,1,0,0)"><path fill="rgb(224,216,204)" fill-opacity="1" d=" M-82.59200286865234,-186.7259979248047 C-76.3280029296875,-188.61300659179688 -91.76300048828125,-202.57899475097656 -97.98400115966797,-196.35800170898438 C-102.85900115966797,-191.48300170898438 -92.62999725341797,-183.70199584960938 -82.59200286865234,-186.7259979248047z"></path><path stroke-linecap="round" stroke-linejoin="round" fill-opacity="0" stroke="rgb(193,187,178)" stroke-opacity="1" stroke-width="5" d=" M-82.59200286865234,-186.7259979248047 C-76.3280029296875,-188.61300659179688 -91.76300048828125,-202.57899475097656 -97.98400115966797,-196.35800170898438 C-102.85900115966797,-191.48300170898438 -92.62999725341797,-183.70199584960938 -82.59200286865234,-186.7259979248047z"></path></g></g><g style="display: block;" transform="matrix(0.7071067690849304,-0.7071067690849304,0.7071067690849304,0.7071067690849304,252.62863159179688,250.40399169921875)" opacity="1"><g opacity="1" transform="matrix(1,0,0,1,0,0)"><g opacity="1" transform="matrix(1,0,0,1,0,0)"><path fill="rgb(224,216,204)" fill-opacity="1" d=" M-78.80000305175781,-95.53500366210938 C-76.83000183105469,-98.7760009765625 -98.0999984741211,-99.15399932861328 -100.51200103759766,-90.30899810791016 C-102.92400360107422,-81.46299743652344 -91.26399993896484,-75.02899932861328 -78.80000305175781,-95.53500366210938z"></path><path stroke-linecap="round" stroke-linejoin="round" fill-opacity="0" stroke="rgb(193,187,178)" stroke-opacity="1" stroke-width="5" d=" M-78.80000305175781,-95.53500366210938 C-76.83000183105469,-98.7760009765625 -98.0999984741211,-99.15399932861328 -100.51200103759766,-90.30899810791016 C-102.92400360107422,-81.46299743652344 -91.26399993896484,-75.02899932861328 -78.80000305175781,-95.53500366210938z"></path></g><g opacity="0.4" transform="matrix(1,0,0,1,0,0)"><path stroke-linecap="round" stroke-linejoin="round" fill-opacity="0" stroke="rgb(143,149,132)" stroke-opacity="1" stroke-width="5" d=" M-94.7979965209961,-95.78399658203125 C-97.58899688720703,-94.61399841308594 -99.8219985961914,-92.83899688720703 -100.51200103759766,-90.30899810791016 C-102.16999816894531,-84.22799682617188 -97.1780014038086,-79.28700256347656 -89.84600067138672,-83.45500183105469"></path></g></g></g><g style="display: block;" transform="matrix(0.7071067690849304,-0.7071067690849304,0.7071067690849304,0.7071067690849304,252.62863159179688,250.40399169921875)" opacity="1"><g opacity="1" transform="matrix(1,0,0,1,0,0)"><path fill="rgb(74,129,0)" fill-opacity="1" d=" M54.42399978637695,72.10700225830078 C42.683998107910156,41.5260009765625 -67.86299896240234,41.63100051879883 -79.60299682617188,72.21199798583984 C-91.34300231933594,102.79299926757812 -90.13600158691406,128.25999450683594 -89.2229995727539,151.21200561523438 C-88.19200134277344,177.13099670410156 -87.38300323486328,209.42599487304688 -79.9540023803711,220.0189971923828 C-72.04299926757812,231.3000030517578 46.8650016784668,231.19500732421875 54.7760009765625,219.91400146484375 C62.20399856567383,209.3209991455078 63.013999938964844,177.0260009765625 64.04499816894531,151.10699462890625 C64.95800018310547,128.15499877929688 66.16400146484375,102.68800354003906 54.42399978637695,72.10700225830078z"></path></g><g opacity="1" transform="matrix(1,0,0,1,0,0)"><path fill="url(#__lottie_element_13525)" fill-opacity="1" d=" M-45.66899871826172,-4.711999893188477 C-49.00899887084961,14.227999687194824 -65.91999816894531,42.44499969482422 -79.5989990234375,72.20800018310547 C-99.73400115966797,116.01899719238281 -87.37899780273438,209.42799377441406 -79.95899963378906,220.01800537109375 C-72.03900146484375,231.29800415039062 -51.25899887084961,239.76800537109375 -12.598999977111816,239.76800537109375 C26.051000595092773,239.76800537109375 46.861000061035156,231.197998046875 54.78099822998047,219.91799926757812 C62.20100021362305,209.3179931640625 75.42500305175781,120.46600341796875 54.42100143432617,72.10800170898438 C41.37099838256836,42.06399917602539 23.83099937438965,14.118000030517578 20.490999221801758,-4.822000026702881 C20.490999221801758,-4.822000026702881 -45.66899871826172,-4.711999893188477 -45.66899871826172,-4.711999893188477z"></path></g><g opacity="1" transform="matrix(1,0,0,1,0,0)"><path fill="rgb(32,51,31)" fill-opacity="1" d=" M61.63100051879883,192.96800231933594 C60.361000061035156,204.85800170898438 58.805999755859375,215.23500061035156 54.78099822998047,219.91799926757812 C26.45800018310547,252.8719940185547 -63.345001220703125,241.20399475097656 -79.95899963378906,220.01800537109375 C-83.22000122070312,215.85899353027344 -83.36100006103516,201.19000244140625 -84.6510009765625,191.52000427246094 C-79.9209976196289,202.3699951171875 55.35100173950195,204.76800537109375 61.63100051879883,192.96800231933594z"></path></g><g opacity="0.5" transform="matrix(1,0,0,1,0,0)"><path fill="rgb(86,101,112)" fill-opacity="1" d=" M24.621000289916992,210.8179931640625 C26.405000686645508,219.88400268554688 26.073999404907227,232.8300018310547 16.97100067138672,235.9980010986328 C-8.25,242.55999755859375 -42.21900177001953,235.3280029296875 -42.21900177001953,235.3280029296875 C-42.21900177001953,235.3280029296875 -37.428001403808594,230.59800720214844 -39.16899871826172,214.1580047607422 C-31.569000244140625,214.85800170898438 14.961000442504883,212.85800170898438 24.621000289916992,210.8179931640625z"></path></g><g opacity="0.3" transform="matrix(1,0,0,1,0,0)"><path fill="rgb(255,255,255)" fill-opacity="1" d=" M-39.138999938964844,15.57800006866455 C-58.02899932861328,47.597999572753906 -77.00900268554688,85.18800354003906 -78.62899780273438,117.24800109863281 C-79.93900299072266,143.10800170898438 -78.00900268554688,222.54800415039062 -68.62899780273438,227.73800659179688 C-65.6989974975586,229.35800170898438 -75.81900024414062,225.91799926757812 -79.95899963378906,220.01800537109375 C-87.37899780273438,209.42799377441406 -96.16600036621094,112.9229965209961 -79.5989990234375,72.20800018310547 C-67.25299835205078,41.867000579833984 -49.00899887084961,14.227999687194824 -45.66899871826172,-4.711999893188477 C-42.37900161743164,-23.341999053955078 -34.04899978637695,6.947999954223633 -39.138999938964844,15.57800006866455z"></path></g><g opacity="0.4" transform="matrix(1,0,0,1,0,0)"><path fill="rgb(0,70,0)" fill-opacity="1" d=" M13.961999893188477,15.57800006866455 C32.85200119018555,47.597999572753906 51.832000732421875,85.18800354003906 53.45199966430664,117.24800109863281 C54.762001037597656,143.10800170898438 52.832000732421875,222.54800415039062 43.45199966430664,227.73800659179688 C69.2969970703125,218.98899841308594 61.31800079345703,177.0050048828125 64.04199981689453,151.20799255371094 C71.66899871826172,78.96800231933594 23.832000732421875,14.227999687194824 20.492000579833984,-4.711999893188477 C17.20199966430664,-23.341999053955078 8.871999740600586,6.947999954223633 13.961999893188477,15.57800006866455z"></path></g><g opacity="1" transform="matrix(1,0,0,1,0,0)"><path stroke-linecap="round" stroke-linejoin="round" fill-opacity="0" stroke="rgb(0,70,0)" stroke-opacity="1" stroke-width="8" d=" M-45.66600036621094,-4.715000152587891 C-49.00600051879883,14.227999687194824 -67.86299896240234,41.63100051879883 -79.60299682617188,72.21199798583984 C-91.34300231933594,102.79299926757812 -90.13600158691406,128.25999450683594 -89.2229995727539,151.21200561523438 C-88.19200134277344,177.13099670410156 -87.38300323486328,209.42599487304688 -79.9540023803711,220.0189971923828 C-72.04299926757812,231.3000030517578 -51.255001068115234,239.7689971923828 -12.60099983215332,239.7689971923828 C26.05299949645996,239.7689971923828 46.8650016784668,231.19500732421875 54.7760009765625,219.91400146484375 C62.20399856567383,209.3209991455078 63.013999938964844,177.0260009765625 64.04499816894531,151.10699462890625 C64.95800018310547,128.15499877929688 66.16400146484375,102.68800354003906 54.42399978637695,72.10700225830078 C42.683998107910156,41.5260009765625 23.827999114990234,14.123000144958496 20.488000869750977,-4.820000171661377"></path></g><g opacity="1" transform="matrix(1,0,0,1,0,0)"><path stroke-linecap="round" stroke-linejoin="round" fill-opacity="0" stroke="rgb(0,49,0)" stroke-opacity="1" stroke-width="8" d=" M-43.55699920654297,-52.44499969482422 C-43.518001556396484,-51.49599838256836 -42.38199996948242,-23.336999893188477 -45.66600036621094,-4.715000152587891 C-49.00600051879883,14.227999687194824 -67.86299896240234,41.63100051879883 -79.60299682617188,72.21199798583984 C-91.34300231933594,102.79299926757812 -90.13600158691406,128.25999450683594 -89.2229995727539,151.21200561523438 C-88.19200134277344,177.13099670410156 -87.38300323486328,209.42599487304688 -79.9540023803711,220.0189971923828 C-72.04299926757812,231.3000030517578 -51.255001068115234,239.7689971923828 -12.60099983215332,239.7689971923828 C26.05299949645996,239.7689971923828 46.8650016784668,231.19500732421875 54.7760009765625,219.91400146484375"></path></g><g opacity="1" transform="matrix(1,0,0,1,0,0)"><path stroke-linecap="round" stroke-linejoin="round" fill-opacity="0" stroke="rgb(18,29,5)" stroke-opacity="1" stroke-width="8" d=" M-86.6510009765625,194.52000427246094 C-85.36900329589844,205.77200317382812 -83.3550033569336,215.1699981689453 -79.9540023803711,220.0189971923828 C-72.04299926757812,231.3000030517578 -51.255001068115234,239.7689971923828 -12.60099983215332,239.7689971923828 C26.05299949645996,239.7689971923828 46.8650016784668,231.19500732421875 54.7760009765625,219.91400146484375 C57.72800064086914,215.7050018310547 59.63399887084961,208.07000732421875 60.92499923706055,198.7689971923828"></path></g><g opacity="0.4" transform="matrix(1,0,0,1,0,0)"><path fill="rgb(0,49,0)" fill-opacity="1" d=" M57.81399917602539,135.6909942626953 C57.74300003051758,140.8719940185547 56.19499969482422,193.99099731445312 53.862998962402344,207.19500732421875 C28.57900047302246,229.18299865722656 -41.777000427246094,230.9510040283203 -75.58599853515625,207.19500732421875 C-77.9000015258789,194 -79.4489974975586,140.8990020751953 -79.5199966430664,135.6820068359375 C-48.10100173950195,142.25100708007812 11.432000160217285,144.86099243164062 57.81399917602539,135.6909942626953z"></path></g><g opacity="1" transform="matrix(1,0,0,1,0,0)"><path fill="url(#__lottie_element_13526)" fill-opacity="1" d=" M57.81399917602539,137.6909942626953 C57.74300003051758,142.8719940185547 56.19499969482422,193.99099731445312 53.862998962402344,207.19500732421875 C53.862998962402344,207.19500732421875 34.39099884033203,220.7740020751953 -10.862000465393066,220.7740020751953 C-55.51900100708008,220.7740020751953 -75.58599853515625,207.19500732421875 -75.58599853515625,207.19500732421875 C-77.9000015258789,194 -79.4489974975586,142.8990020751953 -79.5199966430664,137.6820068359375 C-79.5199966430664,137.6820068359375 -54.755001068115234,147.44000244140625 -10.32800006866455,147.1020050048828 C36.28799819946289,146.7469940185547 57.18199920654297,138.0780029296875 57.81399917602539,137.6909942626953z"></path></g><g opacity="1" transform="matrix(1,0,0,1,0,0)"><g opacity="0.2" transform="matrix(1,0,0,1,0,0)"><path fill="rgb(255,255,255)" fill-opacity="1" d=" M35.5989990234375,63.066001892089844 C29.0049991607666,45.689998626708984 14.50100040435791,28.659000396728516 12.498000144958496,42.50400161743164 C10.494999885559082,56.3489990234375 24.84600067138672,96.91300201416016 36.6510009765625,96.47899627685547 C48.45600128173828,96.04499816894531 40.930999755859375,77.11599731445312 35.5989990234375,63.066001892089844z"></path></g><g opacity="1" transform="matrix(1,0,0,1,0,0)"><path stroke-linecap="round" stroke-linejoin="round" fill-opacity="0" stroke="rgb(255,255,255)" stroke-opacity="1" stroke-width="6" d=" M27.614999771118164,62.90399932861328 C28.63599967956543,65.80500030517578 29.740999221801758,69.26200103759766 30.864999771118164,73.30999755859375"></path></g><g opacity="1" transform="matrix(1,0,0,1,0,0)"><path stroke-linecap="round" stroke-linejoin="round" fill-opacity="0" stroke="rgb(255,255,255)" stroke-opacity="1" stroke-width="6" d=" M22.45800018310547,50.84299850463867 C22.45800018310547,50.84299850463867 22.753000259399414,51.33700180053711 23.267000198364258,52.362998962402344"></path></g></g><g opacity="1" transform="matrix(1,0,0,1,0,0)"><g opacity="0.4" transform="matrix(1,0,0,1,0,0)"><path fill="rgb(0,49,0)" fill-opacity="1" d=" M-14.61400032043457,51.04100036621094 C-22.993000030517578,46.50699996948242 -47.779998779296875,29.69499969482422 -54.551998138427734,21.41699981689453 C-54.551998138427734,21.41699981689453 30.86400032043457,22.170000076293945 30.86400032043457,22.170000076293945 C30.86400032043457,22.170000076293945 2.447000026702881,43.54199981689453 -9.151000022888184,50.858001708984375 C-10.807000160217285,51.90299987792969 -12.892000198364258,51.972999572753906 -14.61400032043457,51.04100036621094z"></path></g><g opacity="1" transform="matrix(1,0,0,1,0,0)"><path fill="url(#__lottie_element_13527)" fill-opacity="1" d=" M-14.61400032043457,46.04100036621094 C-22.993000030517578,41.50699996948242 -47.779998779296875,27.69499969482422 -54.551998138427734,19.41699981689453 C-54.551998138427734,19.41699981689453 -43.70800018310547,-7.816999912261963 -43.55699920654297,-27.45800018310547 C-43.40599822998047,-47.0989990234375 -47.91899871826172,-52.44599914550781 -32.99100112915039,-52.44499969482422 C-18.062999725341797,-52.444000244140625 18.33799934387207,-55.25299835205078 18.249000549316406,-48.2239990234375 C18.15999984741211,-41.19499969482422 17.35099983215332,-15.71500015258789 20.488000869750977,-4.820000171661377 C23.625,6.074999809265137 30.86400032043457,20.170000076293945 30.86400032043457,20.170000076293945 C30.86400032043457,20.170000076293945 2.447000026702881,38.54199981689453 -9.151000022888184,45.858001708984375 C-10.807000160217285,46.90299987792969 -12.892000198364258,46.972999572753906 -14.61400032043457,46.04100036621094z"></path></g><g opacity="0.05" transform="matrix(1,0,0,1,0,0)"><path fill="rgb(255,255,255)" fill-opacity="1" d=" M-45.768001556396484,27.062999725341797 C-45.768001556396484,27.062999725341797 -45.775001525878906,27.06999969482422 -45.775001525878906,27.06999969482422 C-49.564998626708984,24.312000274658203 -52.72600173950195,21.660999298095703 -54.55699920654297,19.41900062561035 C-54.55699920654297,19.41900062561035 -43.709999084472656,-7.818999767303467 -43.55400085449219,-27.461999893188477 C-43.41299819946289,-46.3129997253418 -47.5629997253418,-51.992000579833984 -34.694000244140625,-52.41600036621094 C-24.68400001525879,-5.934000015258789 -45.768001556396484,27.062999725341797 -45.768001556396484,27.062999725341797z"></path></g><g opacity="0.1" transform="matrix(1,0,0,1,0,0)"><path fill="rgb(164,128,80)" fill-opacity="1" d=" M30.861000061035156,20.167999267578125 C30.861000061035156,20.167999267578125 26.490999221801758,22.996999740600586 20.474000930786133,26.864999771118164 C20.204999923706055,26.28499984741211 10.234999656677246,4.421000003814697 8.78600025177002,-16.077999114990234 C8.015000343322754,-26.959999084472656 7.775000095367432,-41.9370002746582 8.397000312805176,-53.06700134277344 C13.89799976348877,-52.41600036621094 18.593000411987305,-50.430999755859375 18.246999740600586,-48.222999572753906 C12.375,-10.70199966430664 30.861000061035156,20.167999267578125 30.861000061035156,20.167999267578125z"></path></g><g opacity="0.3" transform="matrix(1,0,0,1,0,0)"><path fill="rgb(89,68,47)" fill-opacity="1" d=" M-43.979000091552734,-55.32099914550781 C-44.82500076293945,-54.37099838256836 -44.82500076293945,-44.03799819946289 -41.874000549316406,-42.82099914550781 C-26.224000930786133,-36.367000579833984 9.817000389099121,-38.95199966430664 16.658000946044922,-42.82099914550781 C19.437000274658203,-44.393001556396484 19.608999252319336,-54.37099838256836 18.76300048828125,-55.32099914550781 C18.031999588012695,-56.1609992980957 -43.24800109863281,-56.1609992980957 -43.979000091552734,-55.32099914550781z"></path></g><g opacity="1" transform="matrix(1,0,0,1,0,0)"><g opacity="1" transform="matrix(1,0,0,1,0,0)"><path stroke-linecap="butt" stroke-linejoin="miter" fill-opacity="0" stroke-miterlimit="10" stroke="rgb(164,128,80)" stroke-opacity="1" stroke-width="8" d=" M18.374000549316406,-52.44300079345703 C18.288000106811523,-50.292999267578125 17.2810001373291,-23.006999969482422 20.488000869750977,-4.820000171661377 C21.711999893188477,2.121999979019165 25.020999908447266,10.20199966430664 29.298999786376953,19.156999588012695"></path></g><g opacity="1" transform="matrix(1,0,0,1,0,0)"><path stroke-linecap="butt" stroke-linejoin="miter" fill-opacity="0" stroke-miterlimit="10" stroke="rgb(89,68,47)" stroke-opacity="1" stroke-width="8" d=" M-54.551998138427734,19.41699981689453 C-50.237998962402344,10.39900016784668 -46.89699935913086,2.2679998874664307 -45.66600036621094,-4.715000152587891 C-42.38199996948242,-23.336999893188477 -43.518001556396484,-51.49599838256836 -43.55699920654297,-52.44499969482422"></path></g></g><g opacity="1" transform="matrix(1,0,0,1,0,0)"><path fill="url(#__lottie_element_13528)" fill-opacity="1" d=" M16.993000030517578,-85.66200256347656 C16.993000030517578,-85.66200256347656 -42.20899963378906,-85.66200256347656 -42.20899963378906,-85.66200256347656 C-49.733001708984375,-85.77400207519531 -55.68000030517578,-56.66699981689453 -43.558998107910156,-52.44200134277344 C-39.112998962402344,-50.891998291015625 13.824999809265137,-51.117000579833984 18.343000411987305,-52.44200134277344 C31.937999725341797,-56.42900085449219 26.2810001373291,-84.47699737548828 16.993000030517578,-85.66200256347656z"></path></g><g opacity="0.7000000000000001" transform="matrix(1,0,0,1,0,0)"><path fill="rgb(0,70,0)" fill-opacity="1" d=" M-8.559000015258789,-50.6619987487793 C-9.83899974822998,-50.652000427246094 -38.96900177001953,-51.39400100708008 -43.558998107910156,-52.44200134277344 C-50.439998626708984,-54.01300048828125 -54.86000061035156,-86.36299896240234 -42.20899963378906,-85.66200256347656 C-42.20899963378906,-85.66200256347656 -12.14900016784668,-84.9520034790039 -12.14900016784668,-84.9520034790039 C-12.14900016784668,-84.9520034790039 -23.788999557495117,-82.04199981689453 -23.038999557495117,-77.46199798583984 C-22.191999435424805,-72.29299926757812 -13.668999671936035,-69.33200073242188 10.35099983215332,-70.04199981689453 C10.35099983215332,-70.04199981689453 -21.208999633789062,-63.21200180053711 -21.208999633789062,-63.21200180053711 C-21.208999633789062,-63.21200180053711 -28.749000549316406,-58.49399948120117 -14.168999671936035,-54.13199996948242 C-10.878000259399414,-53.14799880981445 -9.08899974822998,-52.50199890136719 -8.559000015258789,-50.6619987487793z"></path></g><g opacity="1" transform="matrix(1,0,0,1,0,0)"><path stroke-linecap="round" stroke-linejoin="round" fill-opacity="0" stroke="rgb(0,49,0)" stroke-opacity="1" stroke-width="8" d=" M24.96299934387207,-78.97200012207031 C24.2549991607666,-82.28600311279297 21.163000106811523,-85.66200256347656 16.993000030517578,-85.66200256347656 C16.993000030517578,-85.66200256347656 7.2829999923706055,-84.9520034790039 -12.586999893188477,-84.9520034790039 C-12.586999893188477,-84.9520034790039 -12.628999710083008,-84.9520034790039 -12.628999710083008,-84.9520034790039 C-32.499000549316406,-84.9520034790039 -42.20899963378906,-85.66200256347656 -42.20899963378906,-85.66200256347656 C-46.37900161743164,-85.66200256347656 -49.33700180053711,-82.25499725341797 -50.17900085449219,-78.97200012207031 C-51.44200134277344,-74.0469970703125 -48.78900146484375,-69.73200225830078 -48.21900177001953,-69.03199768066406 C-47.46900177001953,-68.12200164794922 -47.388999938964844,-66.78199768066406 -48.21900177001953,-65.94200134277344 C-49.17900085449219,-64.99199676513672 -50.249000549316406,-62.262001037597656 -49.76900100708008,-59.321998596191406 C-49.27899932861328,-56.332000732421875 -46.89799880981445,-53.7599983215332 -43.558998107910156,-52.44200134277344 C-35.29800033569336,-49.18299865722656 7.176000118255615,-48.87300109863281 18.343000411987305,-52.44200134277344 C21.761999130249023,-53.53499984741211 24.062999725341797,-56.332000732421875 24.55299949645996,-59.321998596191406 C25.033000946044922,-62.262001037597656 23.96299934387207,-64.99199676513672 23.003000259399414,-65.94200134277344 C22.17300033569336,-66.78199768066406 22.253000259399414,-68.12200164794922 23.003000259399414,-69.03199768066406 C23.572999954223633,-69.73200225830078 25.927000045776367,-74.45999908447266 24.96299934387207,-78.97200012207031z"></path></g><g opacity="1" transform="matrix(1,0,0,1,0,0)"><path stroke-linecap="round" stroke-linejoin="round" fill-opacity="0" stroke="rgb(0,49,0)" stroke-opacity="1" stroke-width="8" d=" M19.381000518798828,-67.36499786376953 C19.381000518798828,-67.36499786376953 -8.979000091552734,-64.20099639892578 -45.77799987792969,-67.36499786376953"></path></g><g opacity="1" transform="matrix(1,0,0,1,0,0)"><path fill="rgb(89,68,47)" fill-opacity="1" d=" M-51.58000183105469,22.445999145507812 C-51.58000183105469,22.445999145507812 -58.1349983215332,17.68000030517578 -58.1349983215332,17.68000030517578 C-58.1349983215332,17.68000030517578 -50.5989990234375,20.413999557495117 -50.5989990234375,20.413999557495117 C-50.5989990234375,20.413999557495117 -51.58000183105469,22.445999145507812 -51.58000183105469,22.445999145507812z"></path></g><g opacity="1" transform="matrix(1,0,0,1,0,0)"><path fill="rgb(164,128,80)" fill-opacity="1" d=" M26.659000396728516,22.886999130249023 C26.659000396728516,22.886999130249023 25.68199920654297,20.864999771118164 25.68199920654297,20.864999771118164 C25.68199920654297,20.864999771118164 32.90599822998047,17.41900062561035 32.90599822998047,17.41900062561035 C32.90599822998047,17.41900062561035 26.659000396728516,22.886999130249023 26.659000396728516,22.886999130249023z"></path></g><g opacity="1" transform="matrix(1,0,0,1,-0.49000000953674316,0.10100555419921875)"><g opacity="1" transform="matrix(1,0,0,1,0,0)"><path stroke-linecap="round" stroke-linejoin="round" fill-opacity="0" stroke="rgb(255,255,255)" stroke-opacity="1" stroke-width="6" d=" M-3.2279999256134033,-77.03800201416016 C-3.2279999256134033,-77.03800201416016 0.45100000500679016,-76.84300231933594 5.375,-77.29299926757812"></path></g><g opacity="1" transform="matrix(1,0,0,1,0,0)"><path stroke-linecap="round" stroke-linejoin="round" fill-opacity="0" stroke="rgb(255,255,255)" stroke-opacity="1" stroke-width="6" d=" M4.691999912261963,-59.55500030517578 C4.691999912261963,-59.55500030517578 5.546000003814697,-59.5890007019043 5.546000003814697,-59.5890007019043"></path></g></g><g opacity="1" transform="matrix(1,0,0,1,0,0)"><path stroke-linecap="round" stroke-linejoin="round" fill-opacity="0" stroke="rgb(47,101,0)" stroke-opacity="1" stroke-width="8" d=" M24.55299949645996,-59.321998596191406 C25.033000946044922,-62.262001037597656 23.96299934387207,-64.99199676513672 23.003000259399414,-65.94200134277344 C22.17300033569336,-66.78199768066406 22.253000259399414,-68.12200164794922 23.003000259399414,-69.03199768066406 C23.572999954223633,-69.73200225830078 26.142000198364258,-74.12699890136719 24.96299934387207,-78.97200012207031 C24.160999298095703,-82.26499938964844 21.163000106811523,-85.66200256347656 16.993000030517578,-85.66200256347656 C16.993000030517578,-85.66200256347656 7.2829999923706055,-84.9520034790039 -12.586999893188477,-84.9520034790039 C-12.586999893188477,-84.9520034790039 -12.628999710083008,-84.9520034790039 -12.628999710083008,-84.9520034790039 C-32.499000549316406,-84.9520034790039 -42.20899963378906,-85.66200256347656 -42.20899963378906,-85.66200256347656"></path></g></g></g><g style="display: none;"><g><path></path></g><g><path></path></g><g><path stroke-linecap="round" stroke-linejoin="round" fill-opacity="0"></path></g><g><g><path stroke-linecap="round" stroke-linejoin="round" fill-opacity="0"></path></g><g><path stroke-linecap="round" stroke-linejoin="round" fill-opacity="0"></path></g><g><path stroke-linecap="round" stroke-linejoin="round" fill-opacity="0"></path></g></g><g><g><path></path></g><g><path></path></g></g></g><g style="display: none;"><g><path stroke-linecap="round" stroke-linejoin="round" fill-opacity="0"></path></g></g></g></svg>