<svg xmlns="http://www.w3.org/2000/svg" viewBox="0 0 512 512" width="512" height="512" style="width: 100%; height: 100%; transform: translate3d(0,0,0);" preserveAspectRatio="xMidYMid meet"><defs><clipPath id="__lottie_element_13574"><rect width="512" height="512" x="0" y="0"></rect></clipPath></defs><g clip-path="url(#__lottie_element_13574)"><g style="display: block;" transform="matrix(1,0,0,1,256,256)" opacity="0.1"><g opacity="1" transform="matrix(1,0,0,1,0,0)"><path fill="rgb(0,0,0)" fill-opacity="1" d=" M195.70399475097656,10.781999588012695 C195.70399475097656,119.04299926757812 107.94100189208984,206.80599975585938 -0.3199999928474426,206.80599975585938 C-108.58100128173828,206.80599975585938 -196.34500122070312,119.04299926757812 -196.34500122070312,10.781999588012695 C-196.34500122070312,-97.47899627685547 -108.58100128173828,-185.2429962158203 -0.3199999928474426,-185.2429962158203 C107.94100189208984,-185.2429962158203 195.70399475097656,-97.47899627685547 195.70399475097656,10.781999588012695z"></path></g></g><g style="display: block;" transform="matrix(1,0,0,1,256,256)" opacity="1"><g opacity="1" transform="matrix(1,0,0,1,0,0)"><path fill="rgb(255,173,0)" fill-opacity="1" d=" M188.7740020751953,-4.2179999351501465 C188.7740020751953,100.09500122070312 104.21199798583984,184.65699768066406 -0.10100000351667404,184.65699768066406 C-104.41400146484375,184.65699768066406 -188.9770050048828,100.09500122070312 -188.9770050048828,-4.2179999351501465 C-188.9770050048828,-108.53099822998047 -104.41400146484375,-193.093994140625 -0.10100000351667404,-193.093994140625 C104.21199798583984,-193.093994140625 188.7740020751953,-108.53099822998047 188.7740020751953,-4.2179999351501465z"></path><path stroke-linecap="butt" stroke-linejoin="miter" fill-opacity="0" stroke-miterlimit="10" stroke="rgb(255,118,42)" stroke-opacity="1" stroke-width="8" d=" M188.7740020751953,-4.2179999351501465 C188.7740020751953,100.09500122070312 104.21199798583984,184.65699768066406 -0.10100000351667404,184.65699768066406 C-104.41400146484375,184.65699768066406 -188.9770050048828,100.09500122070312 -188.9770050048828,-4.2179999351501465 C-188.9770050048828,-108.53099822998047 -104.41400146484375,-193.093994140625 -0.10100000351667404,-193.093994140625 C104.21199798583984,-193.093994140625 188.7740020751953,-108.53099822998047 188.7740020751953,-4.2179999351501465z"></path></g><g opacity="1" transform="matrix(1,0,0,1,0,0)"><path fill="rgb(255,207,0)" fill-opacity="1" d=" M168.30599975585938,-3.50600004196167 C166.8489990234375,91.52300262451172 90.29499816894531,167.4029998779297 -2.683000087738037,165.97799682617188 C-95.66100311279297,164.55299377441406 -169.85299682617188,86.36299896240234 -168.39700317382812,-8.666000366210938 C-166.94000244140625,-103.69499969482422 -90.38700103759766,-179.5749969482422 2.5910000801086426,-178.14999389648438 C95.56900024414062,-176.72500610351562 169.76199340820312,-98.53500366210938 168.30599975585938,-3.50600004196167z"></path></g><g opacity="0.9" transform="matrix(1,0,0,1,0,0)"><path fill="rgb(255,222,102)" fill-opacity="1" d=" M149.16600036621094,-46.64699935913086 C149.16600036621094,25.996000289916992 82.33699798583984,-31.468000411987305 -0.10100000351667404,-31.468000411987305 C-82.53900146484375,-31.468000411987305 -149.36900329589844,25.996000289916992 -149.36900329589844,-46.64699935913086 C-149.36900329589844,-119.29000091552734 -82.53900146484375,-178.1790008544922 -0.10100000351667404,-178.1790008544922 C82.33699798583984,-178.1790008544922 149.16600036621094,-119.29000091552734 149.16600036621094,-46.64699935913086z"></path></g><g opacity="1" transform="matrix(1,0,0,1,0,0)"><g opacity="1" transform="matrix(1,0,0,1,0,0)"><path stroke-linecap="round" stroke-linejoin="round" fill-opacity="0" stroke="rgb(255,255,255)" stroke-opacity="1" stroke-width="6" d=" M36.270999908447266,-173.9600067138672 C37.808998107910156,-173.625 39.40399932861328,-173.2550048828125 41.04899978637695,-172.8489990234375"></path></g><g opacity="1" transform="matrix(1,0,0,1,0,0)"><path stroke-linecap="round" stroke-linejoin="round" fill-opacity="0" stroke="rgb(255,255,255)" stroke-opacity="1" stroke-width="6" d=" M14.916999816894531,-177.1790008544922 C14.916999816894531,-177.1790008544922 19.784000396728516,-176.91900634765625 27.506999969482422,-175.64100646972656"></path></g></g></g><g style="display: block;" transform="matrix(1,0,0,1,256,256)" opacity="1"><g opacity="1" transform="matrix(1,0,0,1,0,0)"><g opacity="1" transform="matrix(1,0,0,1,0,0)"><path fill="rgb(255,173,0)" fill-opacity="1" d=" M-29.674999237060547,-52.827999114990234 C-38.141998291015625,-73.48400115966797 -54.9900016784668,-73.65599822998047 -57.90399932861328,-73.65599822998047 C-60.64699935913086,-73.65599822998047 -77.66500091552734,-73.48400115966797 -86.13200378417969,-52.827999114990234 C-96.53199768066406,-27.45599937438965 -83.96099853515625,0.05999999865889549 -79.96099853515625,-11.6850004196167 C-71.90399932861328,-35.34199905395508 -60.34700012207031,-35.084999084472656 -57.90399932861328,-35.084999084472656 C-55.327999114990234,-35.084999084472656 -43.90399932861328,-35.34199905395508 -35.84700012207031,-11.6850004196167 C-31.847000122070312,0.05999999865889549 -19.274999618530273,-27.45599937438965 -29.674999237060547,-52.827999114990234z"></path></g><g opacity="1" transform="matrix(1,0,0,1,0,0)"><path fill="rgb(255,225,156)" fill-opacity="1" d=" M-29.674999237060547,-41.827999114990234 C-38.141998291015625,-62.48400115966797 -77.66500091552734,-62.48400115966797 -86.13200378417969,-41.827999114990234 C-96.53199768066406,-16.45599937438965 -83.96099853515625,11.0600004196167 -79.96099853515625,-0.6850000023841858 C-71.90399932861328,-24.341999053955078 -60.34700012207031,-24.084999084472656 -57.90399932861328,-24.084999084472656 C-55.327999114990234,-24.084999084472656 -43.90399932861328,-24.341999053955078 -35.84700012207031,-0.6850000023841858 C-31.847000122070312,11.0600004196167 -19.274999618530273,-16.45599937438965 -29.674999237060547,-41.827999114990234z"></path></g><g opacity="1" transform="matrix(1,0,0,1,0,0)"><path fill="rgb(143,58,0)" fill-opacity="1" d=" M-30.674999237060547,-46.827999114990234 C-39.141998291015625,-67.48400115966797 -54.9900016784668,-67.65599822998047 -57.90399932861328,-67.65599822998047 C-60.64699935913086,-67.65599822998047 -76.66500091552734,-67.48400115966797 -85.13200378417969,-46.827999114990234 C-95.53199768066406,-21.45599937438965 -85.96099853515625,6.059999942779541 -81.96099853515625,-5.684999942779541 C-73.90399932861328,-29.341999053955078 -60.34700012207031,-29.084999084472656 -57.90399932861328,-29.084999084472656 C-55.327999114990234,-29.084999084472656 -41.90399932861328,-29.341999053955078 -33.84700012207031,-5.684999942779541 C-29.847000122070312,6.059999942779541 -20.274999618530273,-21.45599937438965 -30.674999237060547,-46.827999114990234z"></path></g><g opacity="1" transform="matrix(1,0,0,1,0,0)"><path fill="rgb(107,32,0)" fill-opacity="1" d=" M-27.53700065612793,-9.371000289916992 C-26.69700050354004,-17.60099983215332 -27.457000732421875,-27.631000518798828 -31.73699951171875,-38.270999908447266 C-39.87699890136719,-58.520999908447266 -55.106998443603516,-58.680999755859375 -57.90700149536133,-58.680999755859375 C-60.5369987487793,-58.680999755859375 -75.927001953125,-58.520999908447266 -84.06700134277344,-38.270999908447266 C-88.33699798583984,-27.631000518798828 -89.10700225830078,-17.611000061035156 -88.2770004272461,-9.380999565124512 C-90.51699829101562,-17.641000747680664 -90.97699737548828,-32.58100128173828 -85.13700103759766,-46.83100128173828 C-76.66699981689453,-67.48100280761719 -60.64699935913086,-67.66100311279297 -57.90700149536133,-67.66100311279297 C-54.98699951171875,-67.66100311279297 -39.14699935913086,-67.48100280761719 -30.677000045776367,-46.83100128173828 C-24.82699966430664,-32.57099914550781 -25.297000885009766,-17.631000518798828 -27.53700065612793,-9.371000289916992z"></path></g></g><g opacity="1" transform="matrix(1,0,0,1,0,0)"><g opacity="1" transform="matrix(1,0,0,1,0,0)"><path fill="rgb(255,173,0)" fill-opacity="1" d=" M86.88899993896484,-52.827999114990234 C78.4219970703125,-73.48400115966797 61.57500076293945,-73.65599822998047 58.6609992980957,-73.65599822998047 C55.917999267578125,-73.65599822998047 38.89899826049805,-73.48400115966797 30.43199920654297,-52.827999114990234 C20.031999588012695,-27.45599937438965 32.60300064086914,0.05999999865889549 36.60300064086914,-11.6850004196167 C44.65999984741211,-35.34199905395508 56.21799850463867,-35.084999084472656 58.6609992980957,-35.084999084472656 C61.23699951171875,-35.084999084472656 72.66100311279297,-35.34199905395508 80.71800231933594,-11.6850004196167 C84.71800231933594,0.05999999865889549 97.28900146484375,-27.45599937438965 86.88899993896484,-52.827999114990234z"></path></g><g opacity="1" transform="matrix(1,0,0,1,0,0)"><path fill="rgb(255,225,156)" fill-opacity="1" d=" M86.88899993896484,-41.827999114990234 C78.4219970703125,-62.48400115966797 38.89899826049805,-62.48400115966797 30.43199920654297,-41.827999114990234 C20.031999588012695,-16.45599937438965 32.60300064086914,11.0600004196167 36.60300064086914,-0.6850000023841858 C44.65999984741211,-24.341999053955078 56.21799850463867,-24.084999084472656 58.6609992980957,-24.084999084472656 C61.23699951171875,-24.084999084472656 72.66100311279297,-24.341999053955078 80.71800231933594,-0.6850000023841858 C84.71800231933594,11.0600004196167 97.28900146484375,-16.45599937438965 86.88899993896484,-41.827999114990234z"></path></g><g opacity="1" transform="matrix(1,0,0,1,0,0)"><path fill="rgb(143,58,0)" fill-opacity="1" d=" M85.88899993896484,-46.827999114990234 C77.4219970703125,-67.48400115966797 61.57500076293945,-67.65599822998047 58.6609992980957,-67.65599822998047 C55.917999267578125,-67.65599822998047 39.89899826049805,-67.48400115966797 31.43199920654297,-46.827999114990234 C21.031999588012695,-21.45599937438965 30.60300064086914,6.059999942779541 34.60300064086914,-5.684999942779541 C42.65999984741211,-29.341999053955078 56.21799850463867,-29.084999084472656 58.6609992980957,-29.084999084472656 C61.23699951171875,-29.084999084472656 74.66100311279297,-29.341999053955078 82.71800231933594,-5.684999942779541 C86.71800231933594,6.059999942779541 96.28900146484375,-21.45599937438965 85.88899993896484,-46.827999114990234z"></path></g><g opacity="1" transform="matrix(1,0,0,1,0,0)"><path fill="rgb(107,32,0)" fill-opacity="1" d=" M89.02799987792969,-9.371000289916992 C89.86799621582031,-17.60099983215332 89.10800170898438,-27.631000518798828 84.8280029296875,-38.270999908447266 C76.68800354003906,-58.520999908447266 61.45800018310547,-58.680999755859375 58.65800094604492,-58.680999755859375 C56.02799987792969,-58.680999755859375 40.63800048828125,-58.520999908447266 32.49800109863281,-38.270999908447266 C28.22800064086914,-27.631000518798828 27.45800018310547,-17.611000061035156 28.288000106811523,-9.380999565124512 C26.04800033569336,-17.641000747680664 25.58799934387207,-32.58100128173828 31.42799949645996,-46.83100128173828 C39.89799880981445,-67.48100280761719 55.917999267578125,-67.66100311279297 58.65800094604492,-67.66100311279297 C61.577999114990234,-67.66100311279297 77.41799926757812,-67.48100280761719 85.88800048828125,-46.83100128173828 C91.73799896240234,-32.57099914550781 91.26799774169922,-17.631000518798828 89.02799987792969,-9.371000289916992z"></path></g></g></g><g style="display: block;" transform="matrix(1,0,0,1,256,256)" opacity="1"><g opacity="1" transform="matrix(1,0,0,1,0,0)"><path fill="rgb(255,225,156)" fill-opacity="1" d=" M0.9129999876022339,49.527000427246094 C5.071000099182129,48.08399963378906 36.55500030517578,50.465999603271484 49.4119987487793,63.323001861572266 C59.85900115966797,73.7699966430664 39.05699920654297,91.6989974975586 29.628000259399414,96.5469970703125 C28.235000610351562,97.26399993896484 28.7810001373291,101.39600372314453 30,102.37999725341797 C36.928001403808594,107.9729995727539 50.35200119018555,115.11799621582031 51.457000732421875,123.78700256347656 C53.08599853515625,136.55799865722656 15.656000137329102,146.21299743652344 1.25600004196167,143.47000122070312 C-2.000999927520752,142.85000610351562 -1.4839999675750732,137.61500549316406 1.9420000314712524,136.09800720214844 C12.416000366210938,131.46099853515625 36.22800064086914,130.03700256347656 36.22800064086914,124.84400177001953 C36.22800064086914,115.5270004272461 6.228000164031982,107.64199829101562 6.228000164031982,94.95600128173828 C6.228000164031982,85.7239990234375 36.45600128173828,84.61599731445312 36.02799987792969,75.18699645996094 C35.62300109863281,66.27200317382812 -11.687000274658203,53.89799880981445 0.9129999876022339,49.527000427246094z"></path></g><g opacity="1" transform="matrix(1,0,0,1,0,0)"><path fill="rgb(143,58,0)" fill-opacity="1" d=" M1.9980000257492065,139.69700622558594 C-1.2619999647140503,139.07699584960938 -0.3019999861717224,136.40699768066406 3.128000020980835,134.88699340820312 C13.597999572753906,130.2469940185547 36.52799987792969,123.5770034790039 36.3380012512207,118.38700103759766 C36.178001403808594,113.76699829101562 23.757999420166016,108.177001953125 14.977999687194824,102.78700256347656 C10.067999839782715,99.78700256347656 6.297999858856201,96.83699798583984 6.438000202178955,94.15699768066406 C6.638000011444092,90.20700073242188 12.208000183105469,86.70700073242188 18.468000411987305,83.24700164794922 C26.808000564575195,78.63700103759766 36.38800048828125,74.11699676513672 36.13800048828125,68.72699737548828 C35.737998962402344,59.80699920654297 -10.661999702453613,53.0369987487793 1.937999963760376,48.66699981689453 C6.0980000495910645,47.22700119018555 35.71799850463867,49.527000427246094 48.56800079345703,62.387001037597656 C55.077999114990234,68.88700103759766 49.268001556396484,76.89700317382812 42.108001708984375,83.24700164794922 C37.768001556396484,87.10700225830078 32.9379997253418,90.35700225830078 30.04800033569336,92.2969970703125 C28.74799919128418,93.16699981689453 28.898000717163086,94.93699645996094 30.118000030517578,95.91699981689453 C32.6879997253418,97.99700164794922 36.14799880981445,100.28700256347656 39.54800033569336,102.78700256347656 C45.30799865722656,107.0270004272461 50.87799835205078,111.87699890136719 51.56800079345703,117.3270034790039 C53.198001861572266,130.0970001220703 16.398000717163086,142.43699645996094 1.9980000257492065,139.69700622558594z"></path></g><g opacity="1" transform="matrix(1,0,0,1,0,0)"><path fill="rgb(107,32,0)" fill-opacity="1" d=" M34.361000061035156,72.96199798583984 C28.173999786376953,80.46299743652344 6.840000152587891,86.37699890136719 6.438000202178955,94.15699768066406 C6.3979997634887695,94.87699890136719 6.6479997634887695,95.61699676513672 7.127999782562256,96.37699890136719 C11.618000030517578,88.25700378417969 36.52799987792969,81.83699798583984 36.13800048828125,73.18699645996094 C36.13800048828125,73.18699645996094 36.13800048828125,68.927001953125 36.13800048828125,68.927001953125 C36.13800048828125,69.82099914550781 35.446998596191406,71.6449966430664 34.361000061035156,72.96199798583984z"></path></g><g opacity="1" transform="matrix(1,0,0,1,0,0)"><path fill="rgb(107,32,0)" fill-opacity="1" d=" M51.097999572753906,70.97699737548828 C50.70800018310547,69.55699920654297 49.89799880981445,68.16699981689453 48.56800079345703,66.83699798583984 C36.487998962402344,54.75699996948242 9.57800006866455,51.99700164794922 2.947999954223633,52.90700149536133 C-0.492000013589859,51.30699920654297 -1.6019999980926514,49.89699935913086 1.937999963760376,48.66699981689453 C6.0980000495910645,47.22700119018555 35.71799850463867,49.527000427246094 48.56800079345703,62.387001037597656 C51.24800109863281,65.06700134277344 51.8380012512207,68.00700378417969 51.097999572753906,70.97699737548828z"></path></g><g opacity="1" transform="matrix(1,0,0,1,0,0)"><path fill="rgb(107,32,0)" fill-opacity="1" d=" M51.56800079345703,117.3270034790039 C50.49800109863281,108.87699890136719 37.70800018310547,101.87699890136719 30.658000946044922,96.33699798583984 C30.6560001373291,96.33799743652344 30.655000686645508,96.33899688720703 30.652999877929688,96.33999633789062 C30.472999572753906,96.1989974975586 29.13800048828125,94.677001953125 29.13800048828125,93.97699737548828 C29.13800048828125,93.97699737548828 27.34000015258789,97.91899871826172 30.118000030517578,100.37699890136719 C36.40599822998047,105.94200134277344 48.97800064086914,112.31700134277344 51.257999420166016,120.33699798583984 C51.5880012512207,119.33699798583984 51.698001861572266,118.33699798583984 51.56800079345703,117.3270034790039z"></path></g><g opacity="1" transform="matrix(1,0,0,1,0,0)"><path fill="rgb(107,32,0)" fill-opacity="1" d=" M35.28799819946289,120.49600219726562 C30.711000442504883,125.29000091552734 12.220000267028809,130.85499572753906 3.128000020980835,134.88699340820312 C-0.3019999861717224,136.40699768066406 -1.2619999647140503,139.07699584960938 1.9980000257492065,139.69700622558594 C2.1080000400543213,139.7169952392578 2.8480000495910645,139.4669952392578 3.128000020980835,139.3470001220703 C13.597999572753906,134.70700073242188 36.52799987792969,128.02699279785156 36.3380012512207,122.83699798583984 C36.3380012512207,122.83699798583984 36.3380012512207,118.4469985961914 36.3380012512207,118.4469985961914 C36.3380012512207,119.10900115966797 35.95600128173828,119.79499816894531 35.28799819946289,120.49600219726562z"></path></g></g><g style="display: none;"><g><path></path></g><g><path></path></g><g><path></path></g><g><path></path></g></g><g style="display: none;"><g><path></path></g><g><path></path><path stroke-linecap="round" stroke-linejoin="round" fill-opacity="0"></path></g><g><path></path><path stroke-linecap="round" stroke-linejoin="round" fill-opacity="0"></path></g><g><path></path></g><g><g><path stroke-linecap="round" stroke-linejoin="round" fill-opacity="0"></path></g><g><path stroke-linecap="round" stroke-linejoin="round" fill-opacity="0"></path></g><g><path stroke-linecap="round" stroke-linejoin="round" fill-opacity="0"></path></g><g><path stroke-linecap="round" stroke-linejoin="round" fill-opacity="0"></path></g><g><path stroke-linecap="round" stroke-linejoin="round" fill-opacity="0"></path></g><g><path stroke-linecap="round" stroke-linejoin="round" fill-opacity="0"></path></g><g><path stroke-linecap="round" stroke-linejoin="round" fill-opacity="0"></path></g></g><g><g><path></path></g><g><path></path></g></g><g><path></path></g><g><g><path></path></g><g><path></path></g></g></g><g style="display: none;"><g><path></path></g><g><path></path></g></g></g></svg>