<svg xmlns="http://www.w3.org/2000/svg" viewBox="0 0 512 512" width="512" height="512" style="width: 100%; height: 100%; transform: translate3d(0,0,0);" preserveAspectRatio="xMidYMid meet"><defs><clipPath id="__lottie_element_13598"><rect width="512" height="512" x="0" y="0"></rect></clipPath></defs><g clip-path="url(#__lottie_element_13598)"><g style="display: block;" transform="matrix(1.149999976158142,0,0,1.149999976158142,-38.53485107421875,-38.3673095703125)" opacity="1"><g opacity="0.1" transform="matrix(0.9700000286102295,0,0,0.9700000286102295,256.4150085449219,279.29998779296875)"><path fill="rgb(0,0,0)" fill-opacity="1" d=" M192.96499633789062,0 C192.96499633789062,106.57099914550781 106.57099914550781,192.96499633789062 0,192.96499633789062 C-106.5719985961914,192.96499633789062 -192.96499633789062,106.57099914550781 -192.96499633789062,0 C-192.96499633789062,-106.5719985961914 -106.5719985961914,-192.96499633789062 0,-192.96499633789062 C106.57099914550781,-192.96499633789062 192.96499633789062,-106.5719985961914 192.96499633789062,0z"></path></g><g opacity="1" transform="matrix(1,0,0,1,256.89898681640625,255.78199768066406)"><path fill="rgb(255,177,57)" fill-opacity="1" d=" M188.875,0 C188.875,104.31300354003906 104.31300354003906,188.875 0,188.875 C-104.31300354003906,188.875 -188.875,104.31300354003906 -188.875,0 C-188.875,-104.31300354003906 -104.31300354003906,-188.875 0,-188.875 C104.31300354003906,-188.875 188.875,-104.31300354003906 188.875,0z"></path></g><g opacity="1" transform="matrix(1,0,0,1,256.9540100097656,253.91400146484375)"><path fill="rgb(254,205,0)" fill-opacity="1" d=" M168.3509979248047,2.5799999237060547 C166.8939971923828,97.60900115966797 90.34100341796875,173.48899841308594 -2.63700008392334,172.06399536132812 C-95.61499786376953,170.63900756835938 -169.8070068359375,92.4489974975586 -168.3509979248047,-2.5799999237060547 C-166.8939971923828,-97.60900115966797 -90.34100341796875,-173.48899841308594 2.63700008392334,-172.06399536132812 C95.61499786376953,-170.63900756835938 169.8070068359375,-92.4489974975586 168.3509979248047,2.5799999237060547z"></path></g><g opacity="1" transform="matrix(1,0,0,1,0,0)"><g opacity="0.9" transform="matrix(1,0,0,1,256.89898681640625,165.96299743652344)"><path fill="rgb(253,220,74)" fill-opacity="1" d=" M149.26699829101562,47.38999938964844 C149.26699829101562,120.03299713134766 82.43800354003906,62.569000244140625 0,62.569000244140625 C-82.43800354003906,62.569000244140625 -149.26699829101562,120.03299713134766 -149.26699829101562,47.38999938964844 C-149.26699829101562,-25.253000259399414 -82.43800354003906,-84.14199829101562 0,-84.14199829101562 C82.43800354003906,-84.14199829101562 149.26699829101562,-25.253000259399414 149.26699829101562,47.38999938964844z"></path></g><g opacity="1" transform="matrix(1,0,0,1,0,0)"><g opacity="1" transform="matrix(1,0,0,1,295.6600036621094,86.59500122070312)"><path stroke-linecap="round" stroke-linejoin="round" fill-opacity="0" stroke="rgb(255,255,255)" stroke-opacity="1" stroke-width="5" d=" M-2.3889999389648438,-0.5550000071525574 C-0.8510000109672546,-0.2199999988079071 0.7440000176429749,0.14900000393390656 2.3889999389648438,0.5550000071525574"></path></g><g opacity="1" transform="matrix(1,0,0,1,278.2120056152344,83.58999633789062)"><path stroke-linecap="round" stroke-linejoin="round" fill-opacity="0" stroke="rgb(255,255,255)" stroke-opacity="1" stroke-width="5" d=" M-6.295000076293945,-0.7689999938011169 C-6.295000076293945,-0.7689999938011169 -1.4279999732971191,-0.5090000033378601 6.295000076293945,0.7689999938011169"></path></g></g></g><g opacity="1" transform="matrix(1,0,0,1,256.89898681640625,255.78199768066406)"><path stroke-linecap="butt" stroke-linejoin="miter" fill-opacity="0" stroke-miterlimit="10" stroke="rgb(248,127,66)" stroke-opacity="1" stroke-width="7" d=" M188.875,0 C188.875,104.31300354003906 104.31300354003906,188.875 0,188.875 C-104.31300354003906,188.875 -188.875,104.31300354003906 -188.875,0 C-188.875,-104.31300354003906 -104.31300354003906,-188.875 0,-188.875 C104.31300354003906,-188.875 188.875,-104.31300354003906 188.875,0z"></path></g></g><g style="display: block;" transform="matrix(1.1500062942504883,0,0,1.1500062942504883,-38.53662109375,-38.3687744140625)" opacity="1"><g opacity="1" transform="matrix(1,0,0,1,256.697998046875,328.6910095214844)"><path fill="rgb(255,226,166)" fill-opacity="1" d=" M-114.04299926757812,45.8120002746582 C-114.04299926757812,-8.37399959564209 -61.487998962402344,-53.01100158691406 0.014000000432133675,-53.01100158691406 C62.02899932861328,-52.992000579833984 115.05699920654297,-7.599999904632568 114.02799987792969,47.31100082397461 C113.00599670410156,63.70399856567383 90.55500030517578,39.266998291015625 0.014000000432133675,37.28300094604492 C-91.60199737548828,38.803001403808594 -113.64700317382812,65.46900177001953 -114.04299926757812,45.8120002746582z"></path></g><g opacity="1" transform="matrix(1,0,0,1,256.697998046875,316.1050109863281)"><path fill="rgb(255,177,57)" fill-opacity="1" d=" M-113.04299926757812,46.39799880981445 C-113.04299926757812,-7.788000106811523 -61.487998962402344,-53.42499923706055 0.014000000432133675,-53.42499923706055 C62.02899932861328,-53.40599822998047 114.05699920654297,-7.013999938964844 113.02799987792969,47.89699935913086 C112.00599670410156,64.29000091552734 90.55500030517578,38.85300064086914 0.014000000432133675,36.86899948120117 C-91.60199737548828,38.388999938964844 -112.64700317382812,66.05500030517578 -113.04299926757812,46.39799880981445z"></path></g><g opacity="1" transform="matrix(1,0,0,1,256.697998046875,322.1050109863281)"><path fill="rgb(141,56,0)" fill-opacity="1" d=" M-113.04299926757812,46.39799880981445 C-113.04299926757812,-7.788000106811523 -61.487998962402344,-53.42499923706055 0.014000000432133675,-53.42499923706055 C62.02899932861328,-53.40599822998047 114.05699920654297,-7.013999938964844 113.02799987792969,47.89699935913086 C112.00599670410156,64.29000091552734 90.55500030517578,38.85300064086914 0.014000000432133675,36.86899948120117 C-91.60199737548828,38.388999938964844 -112.64700317382812,66.05500030517578 -113.04299926757812,46.39799880981445z"></path></g><g opacity="1" transform="matrix(1,0,0,1,256.70001220703125,320.385009765625)"><path fill="rgb(99,37,12)" fill-opacity="1" d=" M113.0270004272461,49.6150016784668 C112.97699737548828,50.404998779296875 112.87699890136719,51.10499954223633 112.72699737548828,51.70500183105469 C108.34700012207031,0.7749999761581421 58.64699935913086,-40.685001373291016 0.007000000216066837,-40.70500183105469 C-58.553001403808594,-40.70500183105469 -108.08300018310547,0.6650000214576721 -112.68299865722656,51.39500045776367 C-112.90299987792969,50.494998931884766 -113.01300048828125,49.404998779296875 -113.04299926757812,48.1150016784668 C-113.04299926757812,-6.065000057220459 -61.49300003051758,-51.70500183105469 0.007000000216066837,-51.70500183105469 C62.027000427246094,-51.685001373291016 114.05699920654297,-5.295000076293945 113.0270004272461,49.6150016784668z"></path></g><g opacity="1" transform="matrix(1,0,0,1,257,294.91900634765625)"><path fill="rgb(244,244,244)" fill-opacity="1" d=" M69.90399932861328,10.619999885559082 C50.91699981689453,-9.152000427246094 22.913000106811523,-16.18600082397461 0,-16.18600082397461 C-22.913000106811523,-16.18600082397461 -50.91699981689453,-9.152000427246094 -69.90399932861328,10.619999885559082 C-74.53900146484375,15.446000099182129 -73.375,17.534000396728516 -66.98200225830078,15.274999618530273 C-56.32699966430664,11.508999824523926 -32.183998107910156,2.187000036239624 0,2.187000036239624 C32.183998107910156,2.187000036239624 56.32699966430664,11.508999824523926 66.98200225830078,15.274999618530273 C73.375,17.534000396728516 74.53800201416016,15.446000099182129 69.90399932861328,10.619999885559082z"></path></g><g opacity="1" transform="matrix(1,0,0,1,198.78900146484375,299.33599853515625)"><path fill="rgb(201,214,215)" fill-opacity="1" d=" M8.73900032043457,5.02400016784668 C8.73900032043457,5.02400016784668 8.729000091552734,5.033999919891357 8.729000091552734,5.033999919891357 C1.1690000295639038,7.234000205993652 -4.761000156402588,9.434000015258789 -8.770999908447266,10.854000091552734 C-15.16100025177002,13.11400032043457 -16.33099937438965,11.034000396728516 -11.690999984741211,6.203999996185303 C-4.10099983215332,-1.6959999799728394 4.928999900817871,-7.565999984741211 14.508999824523926,-11.765999794006348 C2.239000082015991,-4.886000156402588 3.1389999389648438,5.133999824523926 8.73900032043457,5.02400016784668z"></path></g><g opacity="1" transform="matrix(1,0,0,1,315.2640075683594,299.33599853515625)"><path fill="rgb(201,214,215)" fill-opacity="1" d=" M-8.73900032043457,5.02400016784668 C-8.73900032043457,5.02400016784668 -8.729000091552734,5.033999919891357 -8.729000091552734,5.033999919891357 C-1.1690000295639038,7.234000205993652 4.761000156402588,9.434000015258789 8.770999908447266,10.854000091552734 C15.16100025177002,13.11400032043457 16.33099937438965,11.034000396728516 11.690999984741211,6.203999996185303 C4.10099983215332,-1.6959999799728394 -4.928999900817871,-7.565999984741211 -14.508999824523926,-11.765999794006348 C-2.239000082015991,-4.886000156402588 -3.1389999389648438,5.133999824523926 -8.73900032043457,5.02400016784668z"></path></g></g><g style="display: block;" transform="matrix(1.1500062942504883,0,0,1.1500062942504883,-38.536865234375,-38.3675537109375)" opacity="1"><g opacity="1" transform="matrix(1,0,0,1,0,0)"><g opacity="1" transform="matrix(1,0,0,1,188.12100219726562,207.17999267578125)"><path fill="rgb(255,226,166)" fill-opacity="1" d=" M-41.87099838256836,4.40500020980835 C-24.10700035095215,7.126999855041504 -5.375999927520752,7.448999881744385 4.210999965667725,3.7230000495910645 C13.79800033569336,-0.003000000026077032 25.663000106811523,-10.605999946594238 38.347999572753906,-26.631999969482422 C44.78099822998047,-34.7599983215332 49.82899856567383,-25.131999969482422 48.07600021362305,-16.86400032043457 C46.323001861572266,-8.595999717712402 39.70500183105469,15.310999870300293 12.781000137329102,25.77400016784668 C-14.142999649047852,36.23699951171875 -35.167999267578125,23.072999954223633 -42.04399871826172,18.158000946044922 C-48.91999816894531,13.243000030517578 -52.117000579833984,2.8350000381469727 -41.87099838256836,4.40500020980835z"></path></g><g opacity="1" transform="matrix(1,0,0,1,187.30099487304688,204.66600036621094)"><path fill="rgb(141,56,0)" fill-opacity="1" d=" M-38.70100021362305,6.495999813079834 C-20.937000274658203,9.218000411987305 -6.366000175476074,5.302000045776367 3.2209999561309814,1.5759999752044678 C12.807999610900879,-2.1500000953674316 24.77899932861328,-7.077000141143799 37.4640007019043,-23.10300064086914 C43.89699935913086,-31.231000900268555 48.8390007019043,-27.27899932861328 47.08599853515625,-19.01099967956543 C45.33300018310547,-10.743000030517578 38.7140007019043,13.163999557495117 11.789999961853027,23.62700080871582 C-15.133999824523926,34.09000015258789 -36.15800094604492,20.926000595092773 -43.034000396728516,16.011999130249023 C-49.90999984741211,11.097000122070312 -48.946998596191406,4.926000118255615 -38.70100021362305,6.495999813079834z"></path></g><g opacity="1" transform="matrix(1,0,0,1,187.29800415039062,198.23899841308594)"><path fill="rgb(99,37,12)" fill-opacity="1" d=" M-44.63600158691406,21.132999420166016 C-43.72800064086914,19.43899917602539 -40.97800064086914,18.509000778198242 -36.24399948120117,19.233999252319336 C-18.48200035095215,21.954999923706055 -3.9100000858306885,18.041000366210938 5.681000232696533,14.314000129699707 C15.262999534606934,10.59000015258789 27.229000091552734,5.660999774932861 39.91699981689453,-10.36299991607666 C42.904998779296875,-14.130999565124512 45.56100082397461,-15.303000450134277 47.39099884033203,-14.652000427246094 C47.957000732421875,-21.448999404907227 43.32600021362305,-24.090999603271484 37.46500015258789,-16.673999786376953 C24.777000427246094,-0.6499999761581421 12.8100004196167,4.28000020980835 3.2279999256134033,8.003999710083008 C-6.36299991607666,11.730999946594238 -20.93400001525879,15.645000457763672 -38.69599914550781,12.923999786376953 C-48.053001403808594,11.484999656677246 -49.672000885009766,16.51300048828125 -44.63600158691406,21.132999420166016z"></path></g></g><g opacity="1" transform="matrix(-1,0,0,1,515.2420043945312,0)"><g opacity="1" transform="matrix(1,0,0,1,188.12100219726562,207.17999267578125)"><path fill="rgb(255,226,166)" fill-opacity="1" d=" M-41.87099838256836,4.40500020980835 C-24.10700035095215,7.126999855041504 -5.375999927520752,7.448999881744385 4.210999965667725,3.7230000495910645 C13.79800033569336,-0.003000000026077032 25.663000106811523,-10.605999946594238 38.347999572753906,-26.631999969482422 C44.78099822998047,-34.7599983215332 49.82899856567383,-25.131999969482422 48.07600021362305,-16.86400032043457 C46.323001861572266,-8.595999717712402 39.70500183105469,15.310999870300293 12.781000137329102,25.77400016784668 C-14.142999649047852,36.23699951171875 -35.167999267578125,23.072999954223633 -42.04399871826172,18.158000946044922 C-48.91999816894531,13.243000030517578 -52.117000579833984,2.8350000381469727 -41.87099838256836,4.40500020980835z"></path></g><g opacity="1" transform="matrix(1,0,0,1,187.30099487304688,204.66600036621094)"><path fill="rgb(141,56,0)" fill-opacity="1" d=" M-38.70100021362305,6.495999813079834 C-20.937000274658203,9.218000411987305 -6.366000175476074,5.302000045776367 3.2209999561309814,1.5759999752044678 C12.807999610900879,-2.1500000953674316 24.77899932861328,-7.077000141143799 37.4640007019043,-23.10300064086914 C43.89699935913086,-31.231000900268555 48.8390007019043,-27.27899932861328 47.08599853515625,-19.01099967956543 C45.33300018310547,-10.743000030517578 38.7140007019043,13.163999557495117 11.789999961853027,23.62700080871582 C-15.133999824523926,34.09000015258789 -36.15800094604492,20.926000595092773 -43.034000396728516,16.011999130249023 C-49.90999984741211,11.097000122070312 -48.946998596191406,4.926000118255615 -38.70100021362305,6.495999813079834z"></path></g><g opacity="1" transform="matrix(1,0,0,1,187.29800415039062,198.23899841308594)"><path fill="rgb(99,37,12)" fill-opacity="1" d=" M-44.63600158691406,21.132999420166016 C-43.72800064086914,19.43899917602539 -40.97800064086914,18.509000778198242 -36.24399948120117,19.233999252319336 C-18.48200035095215,21.954999923706055 -3.9100000858306885,18.041000366210938 5.681000232696533,14.314000129699707 C15.262999534606934,10.59000015258789 27.229000091552734,5.660999774932861 39.91699981689453,-10.36299991607666 C42.904998779296875,-14.130999565124512 45.56100082397461,-15.303000450134277 47.39099884033203,-14.652000427246094 C47.957000732421875,-21.448999404907227 43.32600021362305,-24.090999603271484 37.46500015258789,-16.673999786376953 C24.777000427246094,-0.6499999761581421 12.8100004196167,4.28000020980835 3.2279999256134033,8.003999710083008 C-6.36299991607666,11.730999946594238 -20.93400001525879,15.645000457763672 -38.69599914550781,12.923999786376953 C-48.053001403808594,11.484999656677246 -49.672000885009766,16.51300048828125 -44.63600158691406,21.132999420166016z"></path></g></g></g><g style="display: block;" transform="matrix(-1.1500062942504883,0,0,1.1500062942504883,552.3106689453125,-38.36865234375)" opacity="1"><g opacity="1" transform="matrix(1,0,0,1,195.88900756835938,140.67999267578125)"><path fill="rgb(255,226,166)" fill-opacity="1" d=" M-28.503999710083008,36.01599884033203 C-26.913999557495117,36.527000427246094 -22.94300079345703,36.39899826049805 -19.885000228881836,35.895999908447266 C-6.636000156402588,33.71699905395508 16.038999557495117,21.729000091552734 27.677000045776367,3.2239999771118164 C44.25,-23.128000259399414 31.756999969482422,-32.81700134277344 27.98200035095215,-27.336999893188477 C24.207000732421875,-21.85700035095215 13.4350004196167,2.3440001010894775 -13.012999534606934,17.7450008392334 C-20.100000381469727,21.871999740600586 -27.325000762939453,22.57900047302246 -31.054000854492188,25.149999618530273 C-35.979000091552734,28.54599952697754 -34.34199905395508,34.13999938964844 -28.503999710083008,36.01599884033203z"></path></g><g opacity="1" transform="matrix(1,0,0,1,195.3209991455078,142.61000061035156)"><path fill="rgb(141,56,0)" fill-opacity="1" d=" M-30.950000762939453,30.9689998626709 C-29.3700008392334,31.56999969482422 -25.507999420166016,31.735000610351562 -22.38599967956543,31.222000122070312 C-8.857999801635742,28.996999740600586 12.543999671936035,18.67799949645996 24.426000595092773,-0.2160000056028366 C41.347999572753906,-27.121999740600586 32.32400131225586,-35.474998474121094 28.469999313354492,-29.8799991607666 C24.615999221801758,-24.28499984741211 12.897000312805176,-1.9889999628067017 -14.107000350952148,13.736000061035156 C-21.343000411987305,17.950000762939453 -26.909000396728516,20.270000457763672 -30.715999603271484,22.895000457763672 C-35.744998931884766,26.36199951171875 -35.28499984741211,29.319000244140625 -30.950000762939453,30.9689998626709z"></path></g><g opacity="1" transform="matrix(1,0,0,1,194.91799926757812,138.22300720214844)"><path fill="rgb(99,37,12)" fill-opacity="1" d=" M-31.371999740600586,35.07600021362305 C-30.820999145507812,34.15700149536133 -29.802000045776367,33.159000396728516 -28.290000915527344,32.1150016784668 C-24.479000091552734,29.48699951171875 -18.91200065612793,27.16200065612793 -11.680000305175781,22.950000762939453 C15.329999923706055,7.229000091552734 27.04800033569336,-15.074000358581543 30.895000457763672,-20.665000915527344 C32.14400100708008,-22.472000122070312 33.92599868774414,-22.826000213623047 35.20600128173828,-21.56800079345703 C34.9010009765625,-27.174999237060547 31.393999099731445,-28.142000198364258 29.341999053955078,-25.16699981689453 C25.4950008392334,-19.576000213623047 13.777000427246094,2.7269999980926514 -13.232999801635742,18.447999954223633 C-20.46500015258789,22.65999984741211 -26.0310001373291,24.985000610351562 -29.844999313354492,27.604999542236328 C-34.305999755859375,30.68199920654297 -34.441001892089844,33.35499954223633 -31.371999740600586,35.07600021362305z"></path></g></g><g style="display: block;" transform="matrix(1.1500062942504883,0,0,1.1500062942504883,-38.537261962890625,-38.36865234375)" opacity="1"><g opacity="1" transform="matrix(1,0,0,1,196.9759979248047,145.0279998779297)"><path fill="rgb(255,226,166)" fill-opacity="1" d=" M-29.590999603271484,31.667999267578125 C-28.000999450683594,32.17900085449219 -24.030000686645508,32.05099868774414 -20.972000122070312,31.54800033569336 C-7.7230000495910645,29.368999481201172 14.95199966430664,17.381000518798828 26.59000015258789,-1.1239999532699585 C43.16299819946289,-27.47599983215332 30.670000076293945,-37.165000915527344 26.895000457763672,-31.684999465942383 C23.1200008392334,-26.204999923706055 12.347999572753906,-2.003999948501587 -14.100000381469727,13.397000312805176 C-21.187000274658203,17.52400016784668 -28.41200065612793,18.231000900268555 -32.14099884033203,20.802000045776367 C-37.066001892089844,24.197999954223633 -35.42900085449219,29.79199981689453 -29.590999603271484,31.667999267578125z"></path></g><g opacity="1" transform="matrix(1,0,0,1,195.3209991455078,142.61000061035156)"><path fill="rgb(141,56,0)" fill-opacity="1" d=" M-30.950000762939453,30.9689998626709 C-29.3700008392334,31.56999969482422 -25.507999420166016,31.735000610351562 -22.38599967956543,31.222000122070312 C-8.857999801635742,28.996999740600586 12.543999671936035,18.67799949645996 24.426000595092773,-0.2160000056028366 C41.347999572753906,-27.121999740600586 32.32400131225586,-35.474998474121094 28.469999313354492,-29.8799991607666 C24.615999221801758,-24.28499984741211 12.897000312805176,-1.9889999628067017 -14.107000350952148,13.736000061035156 C-21.343000411987305,17.950000762939453 -26.909000396728516,20.270000457763672 -30.715999603271484,22.895000457763672 C-35.744998931884766,26.36199951171875 -35.28499984741211,29.319000244140625 -30.950000762939453,30.9689998626709z"></path></g><g opacity="1" transform="matrix(1,0,0,1,195.78700256347656,142.35299682617188)"><path fill="rgb(99,37,12)" fill-opacity="1" d=" M-32.242000579833984,30.945999145507812 C-31.69099998474121,30.027000427246094 -30.67099952697754,29.027999877929688 -29.159000396728516,27.983999252319336 C-25.347999572753906,25.356000900268555 -19.781999588012695,23.0310001373291 -12.550000190734863,18.819000244140625 C14.460000038146973,3.0980000495910645 26.17799949645996,-19.204999923706055 30.024999618530273,-24.79599952697754 C31.27400016784668,-26.60300064086914 33.05699920654297,-26.95599937438965 34.33700180053711,-25.697999954223633 C34.03200149536133,-31.30500030517578 30.524999618530273,-32.27299880981445 28.472999572753906,-29.29800033569336 C24.625999450683594,-23.707000732421875 12.906999588012695,-1.4040000438690186 -14.102999687194824,14.317000389099121 C-21.334999084472656,18.52899932861328 -26.900999069213867,20.854000091552734 -30.71500015258789,23.474000930786133 C-35.17599868774414,26.551000595092773 -35.31100082397461,29.225000381469727 -32.242000579833984,30.945999145507812z"></path></g></g></g></svg>