<svg xmlns="http://www.w3.org/2000/svg" viewBox="0 0 512 512" width="512" height="512" style="width: 100%; height: 100%; transform: translate3d(0,0,0);" preserveAspectRatio="xMidYMid meet"><defs><clipPath id="__lottie_element_13618"><rect width="512" height="512" x="0" y="0"></rect></clipPath></defs><g clip-path="url(#__lottie_element_13618)"><g style="display: block;" transform="matrix(1,0,0,1,256,256)" opacity="0.1"><g opacity="1" transform="matrix(1,0,0,1,0,0)"><path fill="rgb(0,0,0)" fill-opacity="1" d=" M195.70399475097656,10.781999588012695 C195.70399475097656,119.04299926757812 107.94100189208984,206.80599975585938 -0.3199999928474426,206.80599975585938 C-108.58100128173828,206.80599975585938 -196.34500122070312,119.04299926757812 -196.34500122070312,10.781999588012695 C-196.34500122070312,-97.47899627685547 -108.58100128173828,-185.2429962158203 -0.3199999928474426,-185.2429962158203 C107.94100189208984,-185.2429962158203 195.70399475097656,-97.47899627685547 195.70399475097656,10.781999588012695z"></path></g></g><g style="display: block;" transform="matrix(1,0,0,1,256,256)" opacity="1"><g opacity="1" transform="matrix(1,0,0,1,0,0)"><path fill="rgb(255,173,0)" fill-opacity="1" d=" M188.7740020751953,-4.2179999351501465 C188.7740020751953,100.09500122070312 104.21199798583984,184.65699768066406 -0.10100000351667404,184.65699768066406 C-104.41400146484375,184.65699768066406 -188.9770050048828,100.09500122070312 -188.9770050048828,-4.2179999351501465 C-188.9770050048828,-108.53099822998047 -104.41400146484375,-193.093994140625 -0.10100000351667404,-193.093994140625 C104.21199798583984,-193.093994140625 188.7740020751953,-108.53099822998047 188.7740020751953,-4.2179999351501465z"></path><path stroke-linecap="butt" stroke-linejoin="miter" fill-opacity="0" stroke-miterlimit="10" stroke="rgb(255,118,42)" stroke-opacity="1" stroke-width="8" d=" M188.7740020751953,-4.2179999351501465 C188.7740020751953,100.09500122070312 104.21199798583984,184.65699768066406 -0.10100000351667404,184.65699768066406 C-104.41400146484375,184.65699768066406 -188.9770050048828,100.09500122070312 -188.9770050048828,-4.2179999351501465 C-188.9770050048828,-108.53099822998047 -104.41400146484375,-193.093994140625 -0.10100000351667404,-193.093994140625 C104.21199798583984,-193.093994140625 188.7740020751953,-108.53099822998047 188.7740020751953,-4.2179999351501465z"></path></g><g opacity="1" transform="matrix(1,0,0,1,0,0)"><path fill="rgb(255,207,0)" fill-opacity="1" d=" M168.30599975585938,-3.50600004196167 C166.8489990234375,91.52300262451172 90.29499816894531,167.4029998779297 -2.683000087738037,165.97799682617188 C-95.66100311279297,164.55299377441406 -169.85299682617188,86.36299896240234 -168.39700317382812,-8.666000366210938 C-166.94000244140625,-103.69499969482422 -90.38600158691406,-179.5749969482422 2.5920000076293945,-178.14999389648438 C95.56999969482422,-176.72500610351562 169.76300048828125,-98.53500366210938 168.30599975585938,-3.50600004196167z"></path></g><g opacity="0.9" transform="matrix(1,0,0,1,0,0)"><path fill="rgb(255,222,102)" fill-opacity="1" d=" M149.16600036621094,-46.64699935913086 C149.16600036621094,25.996000289916992 82.33699798583984,-31.468000411987305 -0.10100000351667404,-31.468000411987305 C-82.53900146484375,-31.468000411987305 -149.36900329589844,25.996000289916992 -149.36900329589844,-46.64699935913086 C-149.36900329589844,-119.29000091552734 -82.53900146484375,-178.1790008544922 -0.10100000351667404,-178.1790008544922 C82.33699798583984,-178.1790008544922 149.16600036621094,-119.29000091552734 149.16600036621094,-46.64699935913086z"></path></g><g opacity="1" transform="matrix(1,0,0,1,0,0)"><g opacity="1" transform="matrix(1,0,0,1,0,0)"><path stroke-linecap="round" stroke-linejoin="round" fill-opacity="0" stroke="rgb(255,255,255)" stroke-opacity="1" stroke-width="6" d=" M36.270999908447266,-173.9600067138672 C37.808998107910156,-173.625 39.40399932861328,-173.2550048828125 41.04899978637695,-172.8489990234375"></path></g><g opacity="1" transform="matrix(1,0,0,1,0,0)"><path stroke-linecap="round" stroke-linejoin="round" fill-opacity="0" stroke="rgb(255,255,255)" stroke-opacity="1" stroke-width="6" d=" M14.916999816894531,-177.1790008544922 C14.916999816894531,-177.1790008544922 19.784000396728516,-176.91900634765625 27.506999969482422,-175.64100646972656"></path></g></g></g><g style="display: none;"><g><path></path></g><g><path></path></g><g><path></path></g><g><path></path></g></g><g style="display: block;" transform="matrix(1,0,0,1,256,256.0010070800781)" opacity="1"><g opacity="1" transform="matrix(1,0,0,1,0,0)"><path fill="rgb(255,225,156)" fill-opacity="1" d=" M0.9129999876022339,46.527000427246094 C5.071000099182129,45.08399963378906 36.55500030517578,47.465999603271484 49.4119987487793,60.323001861572266 C59.85900115966797,70.7699966430664 39.05699920654297,88.6989974975586 29.628000259399414,93.5469970703125 C28.235000610351562,94.26399993896484 28.7810001373291,98.39600372314453 30,99.37999725341797 C36.928001403808594,104.9729995727539 50.35200119018555,112.11799621582031 51.457000732421875,120.78700256347656 C53.08599853515625,133.55799865722656 15.656000137329102,143.21299743652344 1.25600004196167,140.47000122070312 C-2.000999927520752,139.85000610351562 -1.4839999675750732,134.61500549316406 1.9420000314712524,133.09800720214844 C12.416000366210938,128.46099853515625 36.22800064086914,127.03700256347656 36.22800064086914,121.84400177001953 C36.22800064086914,112.5270004272461 6.228000164031982,104.64199829101562 6.228000164031982,91.95600128173828 C6.228000164031982,82.7239990234375 36.45600128173828,81.61599731445312 36.02799987792969,72.18699645996094 C35.62300109863281,63.27199935913086 -11.687000274658203,50.89799880981445 0.9129999876022339,46.527000427246094z"></path></g><g opacity="1" transform="matrix(1,0,0,1,0,0)"><path fill="rgb(143,58,0)" fill-opacity="1" d=" M1.9980000257492065,136.69700622558594 C-1.2619999647140503,136.07699584960938 -0.3019999861717224,133.40699768066406 3.128000020980835,131.88699340820312 C13.597999572753906,127.24700164794922 36.52799987792969,120.5770034790039 36.3380012512207,115.38700103759766 C36.178001403808594,110.76699829101562 23.757999420166016,105.177001953125 14.977999687194824,99.78700256347656 C10.067999839782715,96.78700256347656 6.297999858856201,93.83699798583984 6.438000202178955,91.15699768066406 C6.638000011444092,87.20700073242188 12.208000183105469,83.70700073242188 18.468000411987305,80.24700164794922 C26.808000564575195,75.63700103759766 36.38800048828125,71.11699676513672 36.13800048828125,65.72699737548828 C35.737998962402344,56.80699920654297 -10.661999702453613,50.0369987487793 1.937999963760376,45.66699981689453 C6.0980000495910645,44.22700119018555 35.71799850463867,46.527000427246094 48.56800079345703,59.387001037597656 C55.077999114990234,65.88700103759766 49.268001556396484,73.89700317382812 42.108001708984375,80.24700164794922 C37.768001556396484,84.10700225830078 32.9379997253418,87.35700225830078 30.04800033569336,89.2969970703125 C28.74799919128418,90.16699981689453 28.898000717163086,91.93699645996094 30.118000030517578,92.91699981689453 C32.6879997253418,94.99700164794922 36.14799880981445,97.28700256347656 39.54800033569336,99.78700256347656 C45.30799865722656,104.0270004272461 50.87799835205078,108.87699890136719 51.56800079345703,114.3270034790039 C53.198001861572266,127.09700012207031 16.398000717163086,139.43699645996094 1.9980000257492065,136.69700622558594z"></path></g><g opacity="1" transform="matrix(1,0,0,1,0,0)"><path fill="rgb(107,32,0)" fill-opacity="1" d=" M34.361000061035156,69.96199798583984 C28.173999786376953,77.46299743652344 6.840000152587891,83.37699890136719 6.438000202178955,91.15699768066406 C6.3979997634887695,91.87699890136719 6.6479997634887695,92.61699676513672 7.127999782562256,93.37699890136719 C11.618000030517578,85.25700378417969 36.52799987792969,78.83699798583984 36.13800048828125,70.18699645996094 C36.13800048828125,70.18699645996094 36.13800048828125,65.927001953125 36.13800048828125,65.927001953125 C36.13800048828125,66.82099914550781 35.446998596191406,68.6449966430664 34.361000061035156,69.96199798583984z"></path></g><g opacity="1" transform="matrix(1,0,0,1,0,0)"><path fill="rgb(107,32,0)" fill-opacity="1" d=" M51.097999572753906,67.97699737548828 C50.70800018310547,66.55699920654297 49.89799880981445,65.16699981689453 48.56800079345703,63.83700180053711 C36.487998962402344,51.75699996948242 9.57800006866455,48.99700164794922 2.947999954223633,49.90700149536133 C-0.492000013589859,48.30699920654297 -1.6019999980926514,46.89699935913086 1.937999963760376,45.66699981689453 C6.0980000495910645,44.22700119018555 35.71799850463867,46.527000427246094 48.56800079345703,59.387001037597656 C51.24800109863281,62.06700134277344 51.8380012512207,65.00700378417969 51.097999572753906,67.97699737548828z"></path></g><g opacity="1" transform="matrix(1,0,0,1,0,0)"><path fill="rgb(107,32,0)" fill-opacity="1" d=" M51.56800079345703,114.3270034790039 C50.49800109863281,105.87699890136719 37.70800018310547,98.87699890136719 30.658000946044922,93.33699798583984 C30.6560001373291,93.33799743652344 30.655000686645508,93.33899688720703 30.652999877929688,93.33999633789062 C30.472999572753906,93.1989974975586 29.13800048828125,91.677001953125 29.13800048828125,90.97699737548828 C29.13800048828125,90.97699737548828 27.34000015258789,94.91899871826172 30.118000030517578,97.37699890136719 C36.40599822998047,102.94200134277344 48.97800064086914,109.31700134277344 51.257999420166016,117.33699798583984 C51.5880012512207,116.33699798583984 51.698001861572266,115.33699798583984 51.56800079345703,114.3270034790039z"></path></g><g opacity="1" transform="matrix(1,0,0,1,0,0)"><path fill="rgb(107,32,0)" fill-opacity="1" d=" M35.28799819946289,117.49600219726562 C30.711000442504883,122.29000091552734 12.220000267028809,127.8550033569336 3.128000020980835,131.88699340820312 C-0.3019999861717224,133.40699768066406 -1.2619999647140503,136.07699584960938 1.9980000257492065,136.69700622558594 C2.1080000400543213,136.7169952392578 2.8480000495910645,136.4669952392578 3.128000020980835,136.3470001220703 C13.597999572753906,131.70700073242188 36.52799987792969,125.0270004272461 36.3380012512207,119.83699798583984 C36.3380012512207,119.83699798583984 36.3380012512207,115.4469985961914 36.3380012512207,115.4469985961914 C36.3380012512207,116.10900115966797 35.95600128173828,116.79499816894531 35.28799819946289,117.49600219726562z"></path></g></g><g style="display: block;" transform="matrix(1,0,0,1,256,256)" opacity="1"><g opacity="1" transform="matrix(1,0,0,1,0,0)"><g opacity="1" transform="matrix(1,0,0,1,0,0)"><path fill="rgb(255,225,156)" fill-opacity="1" d=" M-33.935001373291016,-40.137001037597656 C-33.935001373291016,-23.059999465942383 -44.112998962402344,-9.215999603271484 -56.66699981689453,-9.215999603271484 C-69.22200012207031,-9.215999603271484 -79.39900207519531,-23.059999465942383 -79.39900207519531,-40.137001037597656 C-79.39900207519531,-57.2140007019043 -33.935001373291016,-57.2140007019043 -33.935001373291016,-40.137001037597656z"></path></g><g opacity="1" transform="matrix(1,0,0,1,0,0)"><path fill="rgb(255,173,0)" fill-opacity="1" d=" M-33.935001373291016,-43.31999969482422 C-33.935001373291016,-28.000999450683594 -44.112998962402344,-15.581999778747559 -56.66699981689453,-15.581999778747559 C-69.22200012207031,-15.581999778747559 -79.39900207519531,-28.000999450683594 -79.39900207519531,-43.31999969482422 C-79.39900207519531,-58.638999938964844 -69.22200012207031,-71.05699920654297 -56.66699981689453,-71.05699920654297 C-44.112998962402344,-71.05699920654297 -33.935001373291016,-58.638999938964844 -33.935001373291016,-43.31999969482422z"></path></g><g opacity="1" transform="matrix(1,0,0,1,0,0)"><path fill="rgb(143,58,0)" fill-opacity="1" d=" M-35.76499938964844,-40.27299880981445 C-35.76499938964844,-25.836999893188477 -45.12300109863281,-14.133999824523926 -56.66699981689453,-14.133999824523926 C-68.21099853515625,-14.133999824523926 -77.56800079345703,-25.836999893188477 -77.56800079345703,-40.27299880981445 C-77.56800079345703,-54.70899963378906 -68.21099853515625,-66.41300201416016 -56.66699981689453,-66.41300201416016 C-45.12300109863281,-66.41300201416016 -35.76499938964844,-54.70899963378906 -35.76499938964844,-40.27299880981445z"></path></g><g opacity="1" transform="matrix(1,0,0,1,0,0)"><path fill="rgb(107,32,0)" fill-opacity="1" d=" M-35.76300048828125,-40.26900100708008 C-35.76300048828125,-39.12099838256836 -35.81999969482422,-37.992000579833984 -35.944000244140625,-36.882999420166016 C-37.263999938964844,-49.72600173950195 -46.042999267578125,-59.652000427246094 -56.66699981689453,-59.652000427246094 C-67.29100036621094,-59.652000427246094 -76.06900024414062,-49.72600173950195 -77.38899993896484,-36.882999420166016 C-77.51300048828125,-37.992000579833984 -77.57099914550781,-39.12099838256836 -77.57099914550781,-40.26900100708008 C-77.57099914550781,-54.70899963378906 -68.20899963378906,-66.41300201416016 -56.66699981689453,-66.41300201416016 C-45.125,-66.41300201416016 -35.76300048828125,-54.70899963378906 -35.76300048828125,-40.26900100708008z"></path></g></g><g opacity="1" transform="matrix(1,0,0,1,0,0)"><g opacity="1" transform="matrix(1,0,0,1,0,0)"><path fill="rgb(255,225,156)" fill-opacity="1" d=" M76.95800018310547,-40.137001037597656 C76.95800018310547,-23.059999465942383 66.78099822998047,-9.215999603271484 54.22700119018555,-9.215999603271484 C41.672000885009766,-9.215999603271484 31.493999481201172,-23.059999465942383 31.493999481201172,-40.137001037597656 C31.493999481201172,-57.2140007019043 76.95800018310547,-57.2140007019043 76.95800018310547,-40.137001037597656z"></path></g><g opacity="1" transform="matrix(1,0,0,1,0,0)"><path fill="rgb(255,173,0)" fill-opacity="1" d=" M76.95800018310547,-43.31999969482422 C76.95800018310547,-28.000999450683594 66.78099822998047,-15.581999778747559 54.22700119018555,-15.581999778747559 C41.672000885009766,-15.581999778747559 31.493999481201172,-28.000999450683594 31.493999481201172,-43.31999969482422 C31.493999481201172,-58.638999938964844 41.672000885009766,-71.05699920654297 54.22700119018555,-71.05699920654297 C66.78099822998047,-71.05699920654297 76.95800018310547,-58.638999938964844 76.95800018310547,-43.31999969482422z"></path></g><g opacity="1" transform="matrix(1,0,0,1,0,0)"><path fill="rgb(143,58,0)" fill-opacity="1" d=" M75.12799835205078,-40.27299880981445 C75.12799835205078,-25.836999893188477 65.77100372314453,-14.133999824523926 54.22700119018555,-14.133999824523926 C42.68299865722656,-14.133999824523926 33.32500076293945,-25.836999893188477 33.32500076293945,-40.27299880981445 C33.32500076293945,-54.70899963378906 42.68299865722656,-66.41300201416016 54.22700119018555,-66.41300201416016 C65.77100372314453,-66.41300201416016 75.12799835205078,-54.70899963378906 75.12799835205078,-40.27299880981445z"></path></g><g opacity="1" transform="matrix(1,0,0,1,0,0)"><path fill="rgb(107,32,0)" fill-opacity="1" d=" M75.12999725341797,-40.26900100708008 C75.12999725341797,-39.12099838256836 75.072998046875,-37.992000579833984 74.9489974975586,-36.882999420166016 C73.62899780273438,-49.72600173950195 64.85099792480469,-59.652000427246094 54.22700119018555,-59.652000427246094 C43.60300064086914,-59.652000427246094 34.82400131225586,-49.72600173950195 33.50400161743164,-36.882999420166016 C33.380001068115234,-37.992000579833984 33.321998596191406,-39.12099838256836 33.321998596191406,-40.26900100708008 C33.321998596191406,-54.70899963378906 42.685001373291016,-66.41300201416016 54.22700119018555,-66.41300201416016 C65.76899719238281,-66.41300201416016 75.12999725341797,-54.70899963378906 75.12999725341797,-40.26900100708008z"></path></g></g></g></g></svg>