<svg xmlns="http://www.w3.org/2000/svg" viewBox="0 0 512 512" width="512" height="512" style="width: 100%; height: 100%; transform: translate3d(0,0,0);" preserveAspectRatio="xMidYMid meet"><defs><clipPath id="__lottie_element_13636"><rect width="512" height="512" x="0" y="0"></rect></clipPath><linearGradient id="__lottie_element_13641" spreadMethod="pad" gradientUnits="userSpaceOnUse" x1="0.9070000052452087" y1="-235.54600524902344" x2="0.35100001096725464" y2="87.15699768066406"><stop offset="0%" stop-color="rgb(251,191,84)"></stop><stop offset="35%" stop-color="rgb(251,210,87)"></stop><stop offset="58%" stop-color="rgb(252,229,91)"></stop><stop offset="78%" stop-color="rgb(248,202,57)"></stop><stop offset="100%" stop-color="rgb(244,175,23)"></stop></linearGradient><linearGradient id="__lottie_element_13644" spreadMethod="pad" gradientUnits="userSpaceOnUse" x1="0.23399999737739563" y1="51.810001373291016" x2="0.23399999737739563" y2="151.3070068359375"><stop offset="0%" stop-color="rgb(255,229,89)"></stop><stop offset="61%" stop-color="rgb(253,208,57)"></stop><stop offset="100%" stop-color="rgb(251,186,26)"></stop></linearGradient><radialGradient id="__lottie_element_13645" spreadMethod="pad" gradientUnits="userSpaceOnUse" cx="0.26499998569488525" cy="-288.81500244140625" r="330.152145123976" fx="0.26499998569488525" fy="-288.81500244140625"><stop offset="50%" stop-color="rgb(255,255,255)"></stop><stop offset="84%" stop-color="rgb(255,248,207)"></stop><stop offset="100%" stop-color="rgb(255,240,158)"></stop></radialGradient><mask id="__lottie_element_13647"><path fill="url(#__lottie_element_13646)" d=" M177.3300018310547,-68.34100341796875 C187.19700622558594,-67.64900207519531 191.20899963378906,-55.301998138427734 183.63299560546875,-48.94300079345703 C176.0570068359375,-42.58399963378906 98.83300018310547,22.236000061035156 95.61299896240234,24.93899917602539 C92.39299774169922,27.642000198364258 90.99600219726562,31.944000244140625 92.01200103759766,36.02399826049805 C93.02799987792969,40.104000091552734 117.40399932861328,137.93499755859375 119.79499816894531,147.5330047607422 C122.18599700927734,157.13099670410156 111.68199920654297,164.76199340820312 103.29299926757812,159.52200317382812 C94.90399932861328,154.28199768066406 9.394000053405762,100.86699676513672 5.828000068664551,98.63999938964844 C2.26200008392334,96.41300201416016 -2.26200008392334,96.41300201416016 -5.828000068664551,98.63999938964844 C-9.394000053405762,100.86699676513672 -94.90399932861328,154.28199768066406 -103.29299926757812,159.52200317382812 C-111.68199920654297,164.76199340820312 -122.18599700927734,157.13099670410156 -119.79499816894531,147.5330047607422 C-117.40399932861328,137.93499755859375 -93.02799987792969,40.104000091552734 -92.01200103759766,36.02399826049805 C-90.99600219726562,31.944000244140625 -92.39299774169922,27.642000198364258 -95.61299896240234,24.93899917602539 C-98.83300018310547,22.236000061035156 -176.0570068359375,-42.58399963378906 -183.63299560546875,-48.94300079345703 C-191.20899963378906,-55.301998138427734 -187.19700622558594,-67.64900207519531 -177.3300018310547,-68.34100341796875 C-167.46299743652344,-69.03299713134766 -66.88800048828125,-76.08200073242188 -62.694000244140625,-76.3759994506836 C-58.5,-76.66999816894531 -54.840999603271484,-79.3290023803711 -53.26499938964844,-83.22699737548828 C-51.68899917602539,-87.125 -13.904999732971191,-180.60000610351562 -10.197999954223633,-189.77000427246094 C-6.491000175476074,-198.94000244140625 6.491000175476074,-198.94000244140625 10.197999954223633,-189.77000427246094 C13.904999732971191,-180.60000610351562 51.68899917602539,-87.125 53.26499938964844,-83.22699737548828 C54.840999603271484,-79.3290023803711 58.5,-76.66999816894531 62.694000244140625,-76.3759994506836 C66.88800048828125,-76.08200073242188 167.46299743652344,-69.03299713134766 177.3300018310547,-68.34100341796875z"></path></mask><radialGradient id="__lottie_element_13646" spreadMethod="pad" gradientUnits="userSpaceOnUse" cx="0.26499998569488525" cy="-288.81500244140625" r="330.152145123976" fx="0.26499998569488525" fy="-288.81500244140625"><stop stop-color="rgb(255,255,255)" offset="0%" stop-opacity="1"></stop><stop stop-color="rgb(255,255,255)" offset="61%" stop-opacity="1"></stop><stop stop-color="rgb(255,255,255)" offset="100%" stop-opacity="1"></stop><stop stop-color="rgb(255,255,255)" offset="100%" stop-opacity="0.5"></stop><stop stop-color="rgb(255,255,255)" offset="100%" stop-opacity="0"></stop></radialGradient><linearGradient id="__lottie_element_13652" spreadMethod="pad" gradientUnits="userSpaceOnUse" x1="0.9070000052452087" y1="-1955.5460205078125" x2="0.35100001096725464" y2="42.15700149536133"><stop offset="0%" stop-color="rgb(251,191,84)"></stop><stop offset="35%" stop-color="rgb(251,210,87)"></stop><stop offset="58%" stop-color="rgb(252,229,91)"></stop><stop offset="78%" stop-color="rgb(248,202,57)"></stop><stop offset="100%" stop-color="rgb(244,175,23)"></stop></linearGradient><linearGradient id="__lottie_element_13655" spreadMethod="pad" gradientUnits="userSpaceOnUse" x1="-0.9959999918937683" y1="-136.45899963378906" x2="-3.4570000171661377" y2="79.93699645996094"><stop offset="0%" stop-color="rgb(255,229,89)"></stop><stop offset="61%" stop-color="rgb(253,208,57)"></stop><stop offset="100%" stop-color="rgb(251,186,26)"></stop></linearGradient><radialGradient id="__lottie_element_13656" spreadMethod="pad" gradientUnits="userSpaceOnUse" cx="-3.427000045776367" cy="-486.9280090332031" r="339.99726320419416" fx="-3.427000045776367" fy="-486.9280090332031"><stop offset="50%" stop-color="rgb(255,255,255)"></stop><stop offset="84%" stop-color="rgb(255,248,207)"></stop><stop offset="100%" stop-color="rgb(255,240,158)"></stop></radialGradient><mask id="__lottie_element_13658"><path fill="url(#__lottie_element_13657)" d=" M196.48199462890625,-37.99800109863281 C204.46800231933594,-34.66600036621094 205.61000061035156,-23.836999893188477 198.5399932861328,-18.847000122070312 C172.2779998779297,-0.3089999854564667 140.30599975585938,18.236000061035156 109.7229995727539,34.56399917602539 C105.6240005493164,36.75299835205078 101.53800201416016,38.82899856567383 97.46199798583984,40.79199981689453 C87.29299926757812,45.68899917602539 77.19000244140625,49.875999450683594 67.11299896240234,53.32699966430664 C58.39699935913086,56.3120002746582 49.70100021362305,58.744998931884766 41,60.60900115966797 C29.538000106811523,63.06399917602539 18.069000244140625,64.53099822998047 6.5329999923706055,64.96700286865234 C2.5239999294281006,65.11900329589844 -1.4919999837875366,65.14600372314453 -5.519000053405762,65.0469970703125 C-16.288999557495117,64.78199768066406 -27.132999420166016,63.6150016784668 -38.09600067138672,61.512001037597656 C-47.176998138427734,59.77000045776367 -56.34000015258789,57.38600158691406 -65.61199951171875,54.340999603271484 C-77.10299682617188,50.56700134277344 -88.76100158691406,45.777000427246094 -100.63400268554688,39.93600082397461 C-104.1760025024414,38.19300079345703 -107.73799896240234,36.356998443603516 -111.31999969482422,34.42599868774414 C-141.5070037841797,18.15399932861328 -172.94700622558594,-0.34599998593330383 -198.63999938964844,-18.93600082397461 C-205.57000732421875,-23.950000762939453 -204.44200134277344,-34.61000061035156 -196.57899475097656,-37.97800064086914 C-146.94700622558594,-59.23699951171875 -96.71099853515625,-68.49700164794922 -48.72999954223633,-80.62200164794922 C-37.19499969482422,-83.53700256347656 -53.04899978637695,-59.145999908447266 -42.143001556396484,-60.38600158691406 C-28.618999481201172,-61.92399978637695 -19.690000534057617,-114.55699920654297 -8.559000015258789,-125.36799621582031 C-4.258999824523926,-129.54400634765625 2.5510001182556152,-129.54400634765625 6.85099983215332,-125.36799621582031 C18.00200080871582,-114.53800201416016 24.391000747680664,-60.36600112915039 38.66299819946289,-60.9119987487793 C43.89899826049805,-61.11199951171875 35.97600173950195,-82.927001953125 47.06800079345703,-80.53700256347656 C95.65499877929688,-70.06800079345703 146.01100158691406,-59.05699920654297 196.48199462890625,-37.99800109863281z"></path></mask><radialGradient id="__lottie_element_13657" spreadMethod="pad" gradientUnits="userSpaceOnUse" cx="-3.427000045776367" cy="-486.9280090332031" r="339.99726320419416" fx="-3.427000045776367" fy="-486.9280090332031"><stop stop-color="rgb(255,255,255)" offset="0%" stop-opacity="1"></stop><stop stop-color="rgb(255,255,255)" offset="61%" stop-opacity="1"></stop><stop stop-color="rgb(255,255,255)" offset="100%" stop-opacity="1"></stop><stop stop-color="rgb(255,255,255)" offset="100%" stop-opacity="0.5"></stop><stop stop-color="rgb(255,255,255)" offset="100%" stop-opacity="0"></stop></radialGradient><linearGradient id="__lottie_element_13663" spreadMethod="pad" gradientUnits="userSpaceOnUse"><stop></stop><stop></stop><stop></stop><stop></stop><stop></stop></linearGradient><linearGradient id="__lottie_element_13666" spreadMethod="pad" gradientUnits="userSpaceOnUse"><stop></stop><stop></stop><stop></stop></linearGradient><radialGradient id="__lottie_element_13667" spreadMethod="pad" gradientUnits="userSpaceOnUse"><stop></stop><stop></stop><stop></stop></radialGradient><mask id="__lottie_element_13669"><path fill="url(#__lottie_element_13668)"></path></mask><radialGradient id="__lottie_element_13668" spreadMethod="pad" gradientUnits="userSpaceOnUse"><stop stop-color="rgb(255,255,255)"></stop><stop stop-color="rgb(255,255,255)"></stop><stop stop-color="rgb(255,255,255)"></stop><stop stop-color="rgb(255,255,255)"></stop><stop stop-color="rgb(255,255,255)"></stop></radialGradient><linearGradient id="__lottie_element_13674" spreadMethod="pad" gradientUnits="userSpaceOnUse"><stop></stop><stop></stop><stop></stop><stop></stop><stop></stop></linearGradient><linearGradient id="__lottie_element_13677" spreadMethod="pad" gradientUnits="userSpaceOnUse"><stop></stop><stop></stop><stop></stop></linearGradient><radialGradient id="__lottie_element_13678" spreadMethod="pad" gradientUnits="userSpaceOnUse"><stop></stop><stop></stop><stop></stop></radialGradient><mask id="__lottie_element_13680"><path fill="url(#__lottie_element_13679)"></path></mask><radialGradient id="__lottie_element_13679" spreadMethod="pad" gradientUnits="userSpaceOnUse"><stop stop-color="rgb(255,255,255)"></stop><stop stop-color="rgb(255,255,255)"></stop><stop stop-color="rgb(255,255,255)"></stop><stop stop-color="rgb(255,255,255)"></stop><stop stop-color="rgb(255,255,255)"></stop></radialGradient><linearGradient id="__lottie_element_13685" spreadMethod="pad" gradientUnits="userSpaceOnUse"><stop></stop><stop></stop><stop></stop><stop></stop><stop></stop></linearGradient><linearGradient id="__lottie_element_13688" spreadMethod="pad" gradientUnits="userSpaceOnUse"><stop></stop><stop></stop><stop></stop></linearGradient><radialGradient id="__lottie_element_13689" spreadMethod="pad" gradientUnits="userSpaceOnUse"><stop></stop><stop></stop><stop></stop></radialGradient><mask id="__lottie_element_13691"><path fill="url(#__lottie_element_13690)"></path></mask><radialGradient id="__lottie_element_13690" spreadMethod="pad" gradientUnits="userSpaceOnUse"><stop stop-color="rgb(255,255,255)"></stop><stop stop-color="rgb(255,255,255)"></stop><stop stop-color="rgb(255,255,255)"></stop><stop stop-color="rgb(255,255,255)"></stop><stop stop-color="rgb(255,255,255)"></stop></radialGradient><linearGradient id="__lottie_element_13695" spreadMethod="pad" gradientUnits="userSpaceOnUse" x1="0" y1="132" x2="0" y2="204.927001953125"><stop offset="23%" stop-color="rgb(246,198,0)"></stop><stop offset="46%" stop-color="rgb(249,215,31)"></stop><stop offset="67%" stop-color="rgb(251,232,62)"></stop></linearGradient><linearGradient id="__lottie_element_13699" spreadMethod="pad" gradientUnits="userSpaceOnUse" x1="0" y1="132" x2="0" y2="204.927001953125"><stop offset="23%" stop-color="rgb(246,198,0)"></stop><stop offset="46%" stop-color="rgb(249,215,31)"></stop><stop offset="67%" stop-color="rgb(251,232,62)"></stop></linearGradient><linearGradient id="__lottie_element_13703" spreadMethod="pad" gradientUnits="userSpaceOnUse" x1="0" y1="132" x2="0" y2="204.927001953125"><stop offset="44%" stop-color="rgb(255,229,51)"></stop><stop offset="70%" stop-color="rgb(249,189,26)"></stop><stop offset="100%" stop-color="rgb(242,149,0)"></stop></linearGradient><linearGradient id="__lottie_element_13707" spreadMethod="pad" gradientUnits="userSpaceOnUse" x1="-71.68399810791016" y1="134.28799438476562" x2="30.274999618530273" y2="229.86599731445312"><stop offset="38%" stop-color="rgb(252,225,0)"></stop><stop offset="40%" stop-color="rgb(253,240,128)"></stop><stop offset="41%" stop-color="rgb(255,255,255)"></stop><stop offset="51%" stop-color="rgb(255,248,211)"></stop><stop offset="61%" stop-color="rgb(255,241,167)"></stop><stop offset="63%" stop-color="rgb(253,233,83)"></stop><stop offset="65%" stop-color="rgb(252,225,0)"></stop></linearGradient><linearGradient id="__lottie_element_13711" spreadMethod="pad" gradientUnits="userSpaceOnUse" x1="32.88800048828125" y1="84.26899719238281" x2="-49.417999267578125" y2="222.2550048828125"><stop offset="38%" stop-color="rgb(252,225,0)"></stop><stop offset="40%" stop-color="rgb(253,240,128)"></stop><stop offset="41%" stop-color="rgb(255,255,255)"></stop><stop offset="51%" stop-color="rgb(255,248,211)"></stop><stop offset="61%" stop-color="rgb(255,241,167)"></stop><stop offset="63%" stop-color="rgb(253,233,83)"></stop><stop offset="65%" stop-color="rgb(252,225,0)"></stop></linearGradient><linearGradient id="__lottie_element_13715" spreadMethod="pad" gradientUnits="userSpaceOnUse" x1="-13.112000465393066" y1="261.2690124511719" x2="-46.417999267578125" y2="83.25499725341797"><stop offset="38%" stop-color="rgb(252,225,0)"></stop><stop offset="40%" stop-color="rgb(253,240,128)"></stop><stop offset="41%" stop-color="rgb(255,255,255)"></stop><stop offset="51%" stop-color="rgb(255,248,211)"></stop><stop offset="61%" stop-color="rgb(255,241,167)"></stop><stop offset="63%" stop-color="rgb(253,233,83)"></stop><stop offset="65%" stop-color="rgb(252,225,0)"></stop></linearGradient><linearGradient id="__lottie_element_13719" spreadMethod="pad" gradientUnits="userSpaceOnUse"><stop></stop><stop></stop><stop></stop><stop></stop><stop></stop><stop></stop><stop></stop></linearGradient><linearGradient id="__lottie_element_13723" spreadMethod="pad" gradientUnits="userSpaceOnUse"><stop></stop><stop></stop><stop></stop><stop></stop><stop></stop><stop></stop><stop></stop></linearGradient><linearGradient id="__lottie_element_13727" spreadMethod="pad" gradientUnits="userSpaceOnUse"><stop></stop><stop></stop><stop></stop><stop></stop><stop></stop><stop></stop><stop></stop></linearGradient><linearGradient id="__lottie_element_13731" spreadMethod="pad" gradientUnits="userSpaceOnUse"><stop></stop><stop></stop><stop></stop><stop></stop><stop></stop><stop></stop><stop></stop></linearGradient><linearGradient id="__lottie_element_13735" spreadMethod="pad" gradientUnits="userSpaceOnUse"><stop></stop><stop></stop><stop></stop><stop></stop><stop></stop><stop></stop><stop></stop></linearGradient><linearGradient id="__lottie_element_13739" spreadMethod="pad" gradientUnits="userSpaceOnUse"><stop></stop><stop></stop><stop></stop><stop></stop><stop></stop><stop></stop><stop></stop></linearGradient><linearGradient id="__lottie_element_13743" spreadMethod="pad" gradientUnits="userSpaceOnUse"><stop></stop><stop></stop><stop></stop></linearGradient><linearGradient id="__lottie_element_13744" spreadMethod="pad" gradientUnits="userSpaceOnUse"><stop></stop><stop></stop><stop></stop><stop></stop><stop></stop><stop></stop><stop></stop></linearGradient><linearGradient id="__lottie_element_13748" spreadMethod="pad" gradientUnits="userSpaceOnUse"><stop></stop><stop></stop><stop></stop></linearGradient><linearGradient id="__lottie_element_13749" spreadMethod="pad" gradientUnits="userSpaceOnUse"><stop></stop><stop></stop><stop></stop><stop></stop><stop></stop><stop></stop><stop></stop></linearGradient><linearGradient id="__lottie_element_13753" spreadMethod="pad" gradientUnits="userSpaceOnUse"><stop></stop><stop></stop><stop></stop></linearGradient><linearGradient id="__lottie_element_13754" spreadMethod="pad" gradientUnits="userSpaceOnUse"><stop></stop><stop></stop><stop></stop><stop></stop><stop></stop><stop></stop><stop></stop></linearGradient></defs><g clip-path="url(#__lottie_element_13636)"><g style="display: none;"><g><path fill="url(#__lottie_element_13753)"></path><path fill="url(#__lottie_element_13754)"></path><path stroke-linecap="butt" stroke-linejoin="miter" fill-opacity="0" stroke-miterlimit="4"></path></g></g><g style="display: none;"><g><path fill="url(#__lottie_element_13748)"></path><path fill="url(#__lottie_element_13749)"></path><path stroke-linecap="butt" stroke-linejoin="miter" fill-opacity="0" stroke-miterlimit="4"></path></g></g><g style="display: none;"><g><path fill="url(#__lottie_element_13743)"></path><path fill="url(#__lottie_element_13744)"></path><path stroke-linecap="butt" stroke-linejoin="miter" fill-opacity="0" stroke-miterlimit="4"></path></g></g><g style="display: none;"><g><path fill="url(#__lottie_element_13739)"></path><path stroke-linecap="butt" stroke-linejoin="miter" fill-opacity="0" stroke-miterlimit="4"></path></g></g><g style="display: none;"><g><path fill="url(#__lottie_element_13735)"></path><path stroke-linecap="butt" stroke-linejoin="miter" fill-opacity="0" stroke-miterlimit="4"></path></g></g><g style="display: none;"><g><path fill="url(#__lottie_element_13731)"></path><path stroke-linecap="butt" stroke-linejoin="miter" fill-opacity="0" stroke-miterlimit="4"></path></g></g><g style="display: none;"><g></g><g><path fill="url(#__lottie_element_13727)"></path><path stroke-linecap="butt" stroke-linejoin="miter" fill-opacity="0" stroke-miterlimit="4"></path></g></g><g style="display: none;"><g></g><g><path fill="url(#__lottie_element_13723)"></path><path stroke-linecap="butt" stroke-linejoin="miter" fill-opacity="0" stroke-miterlimit="4"></path></g></g><g style="display: none;"><g><path fill="url(#__lottie_element_13719)"></path><path stroke-linecap="butt" stroke-linejoin="miter" fill-opacity="0" stroke-miterlimit="4"></path></g></g><g style="display: block;" transform="matrix(1,0,0,1,256,256)" opacity="1"><g opacity="1" transform="matrix(1,0,0,1,0,0)"><path fill="url(#__lottie_element_13715)" fill-opacity="1" d=" M-3.8652162551879883,31.410808563232422 C-3.188086748123169,31.410808563232422 3.1469483375549316,31.410808563232422 3.824077844619751,31.410808563232422 C4.664490699768066,31.410808563232422 5.2604827880859375,30.59169578552246 5.002830982208252,29.794023513793945 C4.770483016967773,29.15767478942871 1.3462622165679932,16.003828048706055 1.0228712558746338,15.117110252380371 C0.6828007102012634,14.124119758605957 -0.7239391207695007,14.124119758605957 -1.064009666442871,15.117110252380371 C-1.3874006271362305,16.003828048706055 -4.812569618225098,29.15767478942871 -5.044918060302734,29.794023513793945 C-5.302569389343262,30.59169578552246 -4.705628871917725,31.410808563232422 -3.8652162551879883,31.410808563232422z"></path><path stroke-linecap="butt" stroke-linejoin="miter" fill-opacity="0" stroke-miterlimit="4" stroke="rgb(240,160,3)" stroke-opacity="1" stroke-width="3.6444444444444444" d=" M-3.8652162551879883,31.410808563232422 C-3.188086748123169,31.410808563232422 3.1469483375549316,31.410808563232422 3.824077844619751,31.410808563232422 C4.664490699768066,31.410808563232422 5.2604827880859375,30.59169578552246 5.002830982208252,29.794023513793945 C4.770483016967773,29.15767478942871 1.3462622165679932,16.003828048706055 1.0228712558746338,15.117110252380371 C0.6828007102012634,14.124119758605957 -0.7239391207695007,14.124119758605957 -1.064009666442871,15.117110252380371 C-1.3874006271362305,16.003828048706055 -4.812569618225098,29.15767478942871 -5.044918060302734,29.794023513793945 C-5.302569389343262,30.59169578552246 -4.705628871917725,31.410808563232422 -3.8652162551879883,31.410808563232422z"></path></g></g><g style="display: block;" transform="matrix(-0.80901700258255,0.5877852439880371,-0.5877852439880371,-0.80901700258255,256,256)" opacity="1"><g opacity="1" transform="matrix(1,0,0,1,0,0)"><path fill="url(#__lottie_element_13711)" fill-opacity="1" d=" M-3.8652162551879883,31.410808563232422 C-3.188086748123169,31.410808563232422 3.1469483375549316,31.410808563232422 3.824077844619751,31.410808563232422 C4.664490699768066,31.410808563232422 5.2604827880859375,30.59169578552246 5.002830982208252,29.794023513793945 C4.770483016967773,29.15767478942871 1.3462622165679932,16.003828048706055 1.0228712558746338,15.117110252380371 C0.6828007102012634,14.124119758605957 -0.7239391207695007,14.124119758605957 -1.064009666442871,15.117110252380371 C-1.3874006271362305,16.003828048706055 -4.812569618225098,29.15767478942871 -5.044918060302734,29.794023513793945 C-5.302569389343262,30.59169578552246 -4.705628871917725,31.410808563232422 -3.8652162551879883,31.410808563232422z"></path><path stroke-linecap="butt" stroke-linejoin="miter" fill-opacity="0" stroke-miterlimit="4" stroke="rgb(240,160,3)" stroke-opacity="1" stroke-width="3.6444444444444444" d=" M-3.8652162551879883,31.410808563232422 C-3.188086748123169,31.410808563232422 3.1469483375549316,31.410808563232422 3.824077844619751,31.410808563232422 C4.664490699768066,31.410808563232422 5.2604827880859375,30.59169578552246 5.002830982208252,29.794023513793945 C4.770483016967773,29.15767478942871 1.3462622165679932,16.003828048706055 1.0228712558746338,15.117110252380371 C0.6828007102012634,14.124119758605957 -0.7239391207695007,14.124119758605957 -1.064009666442871,15.117110252380371 C-1.3874006271362305,16.003828048706055 -4.812569618225098,29.15767478942871 -5.044918060302734,29.794023513793945 C-5.302569389343262,30.59169578552246 -4.705628871917725,31.410808563232422 -3.8652162551879883,31.410808563232422z"></path></g></g><g style="display: block;" transform="matrix(-0.80901700258255,-0.5877852439880371,0.5877852439880371,-0.80901700258255,256,256)" opacity="1"><g opacity="1" transform="matrix(1,0,0,1,0,0)"><path fill="url(#__lottie_element_13707)" fill-opacity="1" d=" M-3.8652162551879883,31.410808563232422 C-3.188086748123169,31.410808563232422 3.1469483375549316,31.410808563232422 3.824077844619751,31.410808563232422 C4.664490699768066,31.410808563232422 5.2604827880859375,30.59169578552246 5.002830982208252,29.794023513793945 C4.770483016967773,29.15767478942871 1.3462622165679932,16.003828048706055 1.0228712558746338,15.117110252380371 C0.6828007102012634,14.124119758605957 -0.7239391207695007,14.124119758605957 -1.064009666442871,15.117110252380371 C-1.3874006271362305,16.003828048706055 -4.812569618225098,29.15767478942871 -5.044918060302734,29.794023513793945 C-5.302569389343262,30.59169578552246 -4.705628871917725,31.410808563232422 -3.8652162551879883,31.410808563232422z"></path><path stroke-linecap="butt" stroke-linejoin="miter" fill-opacity="0" stroke-miterlimit="4" stroke="rgb(240,160,3)" stroke-opacity="1" stroke-width="3.6444444444444444" d=" M-3.8652162551879883,31.410808563232422 C-3.188086748123169,31.410808563232422 3.1469483375549316,31.410808563232422 3.824077844619751,31.410808563232422 C4.664490699768066,31.410808563232422 5.2604827880859375,30.59169578552246 5.002830982208252,29.794023513793945 C4.770483016967773,29.15767478942871 1.3462622165679932,16.003828048706055 1.0228712558746338,15.117110252380371 C0.6828007102012634,14.124119758605957 -0.7239391207695007,14.124119758605957 -1.064009666442871,15.117110252380371 C-1.3874006271362305,16.003828048706055 -4.812569618225098,29.15767478942871 -5.044918060302734,29.794023513793945 C-5.302569389343262,30.59169578552246 -4.705628871917725,31.410808563232422 -3.8652162551879883,31.410808563232422z"></path></g></g><g style="display: block;" transform="matrix(1,0,0,1,256,256)" opacity="1"><g opacity="1" transform="matrix(1,0,0,1,0,0)"><path fill="url(#__lottie_element_13703)" fill-opacity="1" d=" M-24.711000442504883,209.2010040283203 C-19.09600067138672,209.2010040283203 19.09600067138672,209.2010040283203 24.711000442504883,209.2010040283203 C30.326000213623047,209.2010040283203 34.231998443603516,203.6199951171875 32.308998107910156,198.34500122070312 C30.38599967956543,193.07000732421875 10.553000450134277,138.65499877929688 7.875,131.30599975585938 C5.197000026702881,123.95700073242188 -5.197000026702881,123.95700073242188 -7.875,131.30599975585938 C-10.553000450134277,138.65499877929688 -30.38599967956543,193.07000732421875 -32.308998107910156,198.34500122070312 C-34.231998443603516,203.6199951171875 -30.326000213623047,209.2010040283203 -24.711000442504883,209.2010040283203z"></path><path stroke-linecap="butt" stroke-linejoin="miter" fill-opacity="0" stroke-miterlimit="4" stroke="rgb(219,147,3)" stroke-opacity="1" stroke-width="8" d=" M-24.711000442504883,209.2010040283203 C-19.09600067138672,209.2010040283203 19.09600067138672,209.2010040283203 24.711000442504883,209.2010040283203 C30.326000213623047,209.2010040283203 34.231998443603516,203.6199951171875 32.308998107910156,198.34500122070312 C30.38599967956543,193.07000732421875 10.553000450134277,138.65499877929688 7.875,131.30599975585938 C5.197000026702881,123.95700073242188 -5.197000026702881,123.95700073242188 -7.875,131.30599975585938 C-10.553000450134277,138.65499877929688 -30.38599967956543,193.07000732421875 -32.308998107910156,198.34500122070312 C-34.231998443603516,203.6199951171875 -30.326000213623047,209.2010040283203 -24.711000442504883,209.2010040283203z"></path></g></g><g style="display: block;" transform="matrix(-0.80901700258255,0.5877852439880371,-0.5877852439880371,-0.80901700258255,256,256)" opacity="1"><g opacity="1" transform="matrix(1,0,0,1,0,0)"><path fill="url(#__lottie_element_13699)" fill-opacity="1" d=" M-24.711000442504883,209.2010040283203 C-19.09600067138672,209.2010040283203 19.09600067138672,209.2010040283203 24.711000442504883,209.2010040283203 C30.326000213623047,209.2010040283203 34.231998443603516,203.6199951171875 32.308998107910156,198.34500122070312 C30.38599967956543,193.07000732421875 10.553000450134277,138.65499877929688 7.875,131.30599975585938 C5.197000026702881,123.95700073242188 -5.197000026702881,123.95700073242188 -7.875,131.30599975585938 C-10.553000450134277,138.65499877929688 -30.38599967956543,193.07000732421875 -32.308998107910156,198.34500122070312 C-34.231998443603516,203.6199951171875 -30.326000213623047,209.2010040283203 -24.711000442504883,209.2010040283203z"></path><path stroke-linecap="butt" stroke-linejoin="miter" fill-opacity="0" stroke-miterlimit="4" stroke="rgb(240,160,3)" stroke-opacity="1" stroke-width="8" d=" M-24.711000442504883,209.2010040283203 C-19.09600067138672,209.2010040283203 19.09600067138672,209.2010040283203 24.711000442504883,209.2010040283203 C30.326000213623047,209.2010040283203 34.231998443603516,203.6199951171875 32.308998107910156,198.34500122070312 C30.38599967956543,193.07000732421875 10.553000450134277,138.65499877929688 7.875,131.30599975585938 C5.197000026702881,123.95700073242188 -5.197000026702881,123.95700073242188 -7.875,131.30599975585938 C-10.553000450134277,138.65499877929688 -30.38599967956543,193.07000732421875 -32.308998107910156,198.34500122070312 C-34.231998443603516,203.6199951171875 -30.326000213623047,209.2010040283203 -24.711000442504883,209.2010040283203z"></path></g></g><g style="display: block;" transform="matrix(-0.80901700258255,-0.5877852439880371,0.5877852439880371,-0.80901700258255,256,256)" opacity="1"><g opacity="1" transform="matrix(1,0,0,1,0,0)"><path fill="url(#__lottie_element_13695)" fill-opacity="1" d=" M-24.711000442504883,209.2010040283203 C-19.09600067138672,209.2010040283203 19.09600067138672,209.2010040283203 24.711000442504883,209.2010040283203 C30.326000213623047,209.2010040283203 34.231998443603516,203.6199951171875 32.308998107910156,198.34500122070312 C30.38599967956543,193.07000732421875 10.553000450134277,138.65499877929688 7.875,131.30599975585938 C5.197000026702881,123.95700073242188 -5.197000026702881,123.95700073242188 -7.875,131.30599975585938 C-10.553000450134277,138.65499877929688 -30.38599967956543,193.07000732421875 -32.308998107910156,198.34500122070312 C-34.231998443603516,203.6199951171875 -30.326000213623047,209.2010040283203 -24.711000442504883,209.2010040283203z"></path><path stroke-linecap="butt" stroke-linejoin="miter" fill-opacity="0" stroke-miterlimit="4" stroke="rgb(240,160,3)" stroke-opacity="1" stroke-width="8" d=" M-24.711000442504883,209.2010040283203 C-19.09600067138672,209.2010040283203 19.09600067138672,209.2010040283203 24.711000442504883,209.2010040283203 C30.326000213623047,209.2010040283203 34.231998443603516,203.6199951171875 32.308998107910156,198.34500122070312 C30.38599967956543,193.07000732421875 10.553000450134277,138.65499877929688 7.875,131.30599975585938 C5.197000026702881,123.95700073242188 -5.197000026702881,123.95700073242188 -7.875,131.30599975585938 C-10.553000450134277,138.65499877929688 -30.38599967956543,193.07000732421875 -32.308998107910156,198.34500122070312 C-34.231998443603516,203.6199951171875 -30.326000213623047,209.2010040283203 -24.711000442504883,209.2010040283203z"></path></g></g><g style="display: none;"><g><path stroke-linecap="round" stroke-linejoin="round" fill-opacity="0"></path></g><g><path stroke-linecap="round" stroke-linejoin="round" fill-opacity="0"></path></g><g><path fill="url(#__lottie_element_13685)"></path></g></g><g style="display: none;"><g><path fill="url(#__lottie_element_13688)"></path><path fill="url(#__lottie_element_13689)" mask="url(#__lottie_element_13691)"></path></g><g><path stroke-linecap="round" stroke-linejoin="round" fill-opacity="0"></path></g></g><g style="display: none;"><g><path stroke-linecap="round" stroke-linejoin="round" fill-opacity="0"></path></g><g><path stroke-linecap="round" stroke-linejoin="round" fill-opacity="0"></path></g><g><path fill="url(#__lottie_element_13674)"></path></g></g><g style="display: none;"><g><path fill="url(#__lottie_element_13677)"></path><path fill="url(#__lottie_element_13678)" mask="url(#__lottie_element_13680)"></path></g><g><path stroke-linecap="round" stroke-linejoin="round" fill-opacity="0"></path></g></g><g style="display: none;"><g><path stroke-linecap="round" stroke-linejoin="round" fill-opacity="0"></path></g><g><path stroke-linecap="round" stroke-linejoin="round" fill-opacity="0"></path></g><g><path fill="url(#__lottie_element_13663)"></path></g></g><g style="display: none;"><g><path fill="url(#__lottie_element_13666)"></path><path fill="url(#__lottie_element_13667)" mask="url(#__lottie_element_13669)"></path></g><g><path stroke-linecap="round" stroke-linejoin="round" fill-opacity="0"></path></g></g><g style="display: block;" transform="matrix(0.10000000149011612,0,0,0.10000000149011612,256,256)" opacity="1"><g opacity="1" transform="matrix(1,0,0,1,0,0)"><path stroke-linecap="round" stroke-linejoin="round" fill-opacity="0" stroke="rgb(219,147,3)" stroke-opacity="1" stroke-width="80" d=" M196.48199462890625,-37.99800109863281 C204.46800231933594,-34.66600036621094 205.61000061035156,-23.836999893188477 198.5399932861328,-18.847000122070312 C172.2779998779297,-0.3089999854564667 140.30599975585938,18.236000061035156 109.7229995727539,34.56399917602539 C104.91200256347656,37.132999420166016 102.71900177001953,42.82699966430664 104.54000091552734,47.96799850463867 C109.302001953125,61.41600036621094 112.90299987792969,73.24800109863281 115.10199737548828,82.43599700927734 C116.69100189208984,89.0739974975586 111.88500213623047,95.56999969482422 105.06999969482422,95.947998046875 C58.540000915527344,98.52799987792969 11.192000389099121,90.53500366210938 1.1069999933242798,88.69999694824219 C-0.19499999284744263,88.46299743652344 -1.5140000581741333,88.46299743652344 -2.815999984741211,88.69999694824219 C-12.901000022888184,90.53500366210938 -60.24800109863281,98.52799987792969 -106.77799987792969,95.947998046875 C-113.59400177001953,95.56999969482422 -118.39900207519531,89.072998046875 -116.80999755859375,82.43399810791016 C-114.60199737548828,73.20899963378906 -110.98100280761719,61.31700134277344 -106.19000244140625,47.801998138427734 C-104.375,42.680999755859375 -106.53700256347656,37.00400161743164 -111.31999969482422,34.42599868774414 C-141.5070037841797,18.15399932861328 -172.94700622558594,-0.34599998593330383 -198.63999938964844,-18.93600082397461 C-205.57000732421875,-23.950000762939453 -204.44200134277344,-34.61000061035156 -196.57899475097656,-37.97800064086914 C-146.94700622558594,-59.23699951171875 -97.83399963378906,-74.45899963378906 -48.72999954223633,-80.62200164794922 C-45.5620002746582,-81.0199966430664 -42.70399856567383,-82.73500061035156 -40.92399978637695,-85.38600158691406 C-30.58099937438965,-100.78700256347656 -19.690000534057617,-114.55699920654297 -8.559000015258789,-125.36799621582031 C-4.258999824523926,-129.54400634765625 2.5510001182556152,-129.54400634765625 6.85099983215332,-125.36799621582031 C18.00200080871582,-114.53800201416016 28.91200065612793,-100.73699951171875 39.27199935913086,-85.302001953125 C41.04899978637695,-82.65399932861328 43.90399932861328,-80.93699645996094 47.06800079345703,-80.53700256347656 C96.37799835205078,-74.29900360107422 146.01100158691406,-59.05699920654297 196.48199462890625,-37.99800109863281z"></path></g><g opacity="1" transform="matrix(1,0,0,1,0,0)"><path stroke-linecap="round" stroke-linejoin="round" fill-opacity="0" stroke="rgb(242,162,3)" stroke-opacity="0" stroke-width="80" d=" M201.0919952392578,-34.40399932861328 C199.97799682617188,-35.91999816894531 198.43499755859375,-37.18299865722656 196.48199462890625,-37.99800109863281 C196.48199462890625,-37.99800109863281 196.48199462890625,-37.99800109863281 196.48199462890625,-37.99800109863281 C146.01100158691406,-59.05699920654297 96.37799835205078,-74.29900360107422 47.06800079345703,-80.53700256347656 C43.90399932861328,-80.93699645996094 41.04899978637695,-82.65399932861328 39.27199935913086,-85.302001953125 C28.91200065612793,-100.73699951171875 18.00200080871582,-114.53800201416016 6.85099983215332,-125.36799621582031 C2.5510001182556152,-129.54400634765625 -4.258999824523926,-129.54400634765625 -8.559000015258789,-125.36799621582031 C-19.690000534057617,-114.55699920654297 -30.58099937438965,-100.78700256347656 -40.92399978637695,-85.38600158691406 C-42.70399856567383,-82.73500061035156 -45.5620002746582,-81.0199966430664 -48.72999954223633,-80.62200164794922 C-92.7750015258789,-75.09400177001953 -136.8260040283203,-62.27799987792969 -181.2530059814453,-44.354000091552734"></path></g><g opacity="1" transform="matrix(1,0,0,1,0,0)"><path fill="url(#__lottie_element_13652)" fill-opacity="1" d=" M196.48199462890625,-37.99800109863281 C204.46800231933594,-34.66600036621094 205.61000061035156,-23.836999893188477 198.5399932861328,-18.847000122070312 C172.2779998779297,-0.3089999854564667 140.30599975585938,18.236000061035156 109.7229995727539,34.56399917602539 C104.91200256347656,37.132999420166016 102.71900177001953,42.82699966430664 104.54000091552734,47.96799850463867 C109.302001953125,61.41600036621094 112.90299987792969,73.24800109863281 115.10199737548828,82.43599700927734 C116.69100189208984,89.0739974975586 111.88500213623047,95.56999969482422 105.06999969482422,95.947998046875 C58.540000915527344,98.52799987792969 11.192000389099121,90.53500366210938 1.1069999933242798,88.69999694824219 C-0.19499999284744263,88.46299743652344 -1.5140000581741333,88.46299743652344 -2.815999984741211,88.69999694824219 C-12.901000022888184,90.53500366210938 -60.24800109863281,98.52799987792969 -106.77799987792969,95.947998046875 C-113.59400177001953,95.56999969482422 -118.39900207519531,89.072998046875 -116.80999755859375,82.43399810791016 C-114.60199737548828,73.20899963378906 -110.98100280761719,61.31700134277344 -106.19000244140625,47.801998138427734 C-104.375,42.680999755859375 -106.53700256347656,37.00400161743164 -111.31999969482422,34.42599868774414 C-141.5070037841797,18.15399932861328 -172.94700622558594,-0.34599998593330383 -198.63999938964844,-18.93600082397461 C-205.57000732421875,-23.950000762939453 -204.44200134277344,-34.61000061035156 -196.57899475097656,-37.97800064086914 C-146.94700622558594,-59.23699951171875 -97.83399963378906,-74.45899963378906 -48.72999954223633,-80.62200164794922 C-45.5620002746582,-81.0199966430664 -42.70399856567383,-82.73500061035156 -40.92399978637695,-85.38600158691406 C-30.58099937438965,-100.78700256347656 -19.690000534057617,-114.55699920654297 -8.559000015258789,-125.36799621582031 C-4.258999824523926,-129.54400634765625 2.5510001182556152,-129.54400634765625 6.85099983215332,-125.36799621582031 C18.00200080871582,-114.53800201416016 28.91200065612793,-100.73699951171875 39.27199935913086,-85.302001953125 C41.04899978637695,-82.65399932861328 43.90399932861328,-80.93699645996094 47.06800079345703,-80.53700256347656 C96.37799835205078,-74.29900360107422 146.01100158691406,-59.05699920654297 196.48199462890625,-37.99800109863281z"></path></g></g><g style="display: block;" transform="matrix(0.0820000022649765,0,0,0.0820000022649765,256,255.6999969482422)" opacity="1"><g opacity="1" transform="matrix(1,0,0,1,0,0)"><path fill="url(#__lottie_element_13655)" fill-opacity="1" d=" M196.48199462890625,-37.99800109863281 C204.46800231933594,-34.66600036621094 205.61000061035156,-23.836999893188477 198.5399932861328,-18.847000122070312 C172.2779998779297,-0.3089999854564667 140.30599975585938,18.236000061035156 109.7229995727539,34.56399917602539 C105.6240005493164,36.75299835205078 101.53800201416016,38.82899856567383 97.46199798583984,40.79199981689453 C87.29299926757812,45.68899917602539 77.19000244140625,49.875999450683594 67.11299896240234,53.32699966430664 C58.39699935913086,56.3120002746582 49.70100021362305,58.744998931884766 41,60.60900115966797 C29.538000106811523,63.06399917602539 18.069000244140625,64.53099822998047 6.5329999923706055,64.96700286865234 C2.5239999294281006,65.11900329589844 -1.4919999837875366,65.14600372314453 -5.519000053405762,65.0469970703125 C-16.288999557495117,64.78199768066406 -27.132999420166016,63.6150016784668 -38.09600067138672,61.512001037597656 C-47.176998138427734,59.77000045776367 -56.34000015258789,57.38600158691406 -65.61199951171875,54.340999603271484 C-77.10299682617188,50.56700134277344 -88.76100158691406,45.777000427246094 -100.63400268554688,39.93600082397461 C-104.1760025024414,38.19300079345703 -107.73799896240234,36.356998443603516 -111.31999969482422,34.42599868774414 C-141.5070037841797,18.15399932861328 -172.94700622558594,-0.34599998593330383 -198.63999938964844,-18.93600082397461 C-205.57000732421875,-23.950000762939453 -204.44200134277344,-34.61000061035156 -196.57899475097656,-37.97800064086914 C-146.94700622558594,-59.23699951171875 -96.71099853515625,-68.49700164794922 -48.72999954223633,-80.62200164794922 C-37.19499969482422,-83.53700256347656 -53.04899978637695,-59.145999908447266 -42.143001556396484,-60.38600158691406 C-28.618999481201172,-61.92399978637695 -19.690000534057617,-114.55699920654297 -8.559000015258789,-125.36799621582031 C-4.258999824523926,-129.54400634765625 2.5510001182556152,-129.54400634765625 6.85099983215332,-125.36799621582031 C18.00200080871582,-114.53800201416016 24.391000747680664,-60.36600112915039 38.66299819946289,-60.9119987487793 C43.89899826049805,-61.11199951171875 35.97600173950195,-82.927001953125 47.06800079345703,-80.53700256347656 C95.65499877929688,-70.06800079345703 146.01100158691406,-59.05699920654297 196.48199462890625,-37.99800109863281z"></path><path fill="url(#__lottie_element_13656)" mask="url(#__lottie_element_13658)" fill-opacity="1" d="M0 0 M196.48199462890625,-37.99800109863281 C204.46800231933594,-34.66600036621094 205.61000061035156,-23.836999893188477 198.5399932861328,-18.847000122070312 C172.2779998779297,-0.3089999854564667 140.30599975585938,18.236000061035156 109.7229995727539,34.56399917602539 C105.6240005493164,36.75299835205078 101.53800201416016,38.82899856567383 97.46199798583984,40.79199981689453 C87.29299926757812,45.68899917602539 77.19000244140625,49.875999450683594 67.11299896240234,53.32699966430664 C58.39699935913086,56.3120002746582 49.70100021362305,58.744998931884766 41,60.60900115966797 C29.538000106811523,63.06399917602539 18.069000244140625,64.53099822998047 6.5329999923706055,64.96700286865234 C2.5239999294281006,65.11900329589844 -1.4919999837875366,65.14600372314453 -5.519000053405762,65.0469970703125 C-16.288999557495117,64.78199768066406 -27.132999420166016,63.6150016784668 -38.09600067138672,61.512001037597656 C-47.176998138427734,59.77000045776367 -56.34000015258789,57.38600158691406 -65.61199951171875,54.340999603271484 C-77.10299682617188,50.56700134277344 -88.76100158691406,45.777000427246094 -100.63400268554688,39.93600082397461 C-104.1760025024414,38.19300079345703 -107.73799896240234,36.356998443603516 -111.31999969482422,34.42599868774414 C-141.5070037841797,18.15399932861328 -172.94700622558594,-0.34599998593330383 -198.63999938964844,-18.93600082397461 C-205.57000732421875,-23.950000762939453 -204.44200134277344,-34.61000061035156 -196.57899475097656,-37.97800064086914 C-146.94700622558594,-59.23699951171875 -96.71099853515625,-68.49700164794922 -48.72999954223633,-80.62200164794922 C-37.19499969482422,-83.53700256347656 -53.04899978637695,-59.145999908447266 -42.143001556396484,-60.38600158691406 C-28.618999481201172,-61.92399978637695 -19.690000534057617,-114.55699920654297 -8.559000015258789,-125.36799621582031 C-4.258999824523926,-129.54400634765625 2.5510001182556152,-129.54400634765625 6.85099983215332,-125.36799621582031 C18.00200080871582,-114.53800201416016 24.391000747680664,-60.36600112915039 38.66299819946289,-60.9119987487793 C43.89899826049805,-61.11199951171875 35.97600173950195,-82.927001953125 47.06800079345703,-80.53700256347656 C95.65499877929688,-70.06800079345703 146.01100158691406,-59.05699920654297 196.48199462890625,-37.99800109863281z"></path></g><g opacity="1" transform="matrix(1,0,0,1,0,-2)"><path stroke-linecap="round" stroke-linejoin="round" fill-opacity="0" stroke-dasharray=" 3 12 13 50" stroke-dashoffset="0" stroke="rgb(255,255,255)" stroke-opacity="1" stroke-width="0" d=" M178.22999572753906,-43.19499969482422 C171.2220001220703,-45.80500030517578 164.218994140625,-48.242000579833984 157.2270050048828,-50.534000396728516"></path></g></g><g style="display: block;" transform="matrix(1,0,0,1,256,256)" opacity="1"><g opacity="1" transform="matrix(1,0,0,1,0,0)"><path stroke-linecap="round" stroke-linejoin="round" fill-opacity="0" stroke="rgb(219,147,3)" stroke-opacity="1" stroke-width="16" d=" M177.3300018310547,-68.34100341796875 C187.19700622558594,-67.64900207519531 191.20899963378906,-55.301998138427734 183.63299560546875,-48.94300079345703 C176.0570068359375,-42.58399963378906 98.83300018310547,22.236000061035156 95.61299896240234,24.93899917602539 C92.39299774169922,27.642000198364258 90.99600219726562,31.944000244140625 92.01200103759766,36.02399826049805 C93.02799987792969,40.104000091552734 117.40399932861328,137.93499755859375 119.79499816894531,147.5330047607422 C122.18599700927734,157.13099670410156 111.68199920654297,164.76199340820312 103.29299926757812,159.52200317382812 C94.90399932861328,154.28199768066406 9.394000053405762,100.86699676513672 5.828000068664551,98.63999938964844 C2.26200008392334,96.41300201416016 -2.26200008392334,96.41300201416016 -5.828000068664551,98.63999938964844 C-9.394000053405762,100.86699676513672 -94.90399932861328,154.28199768066406 -103.29299926757812,159.52200317382812 C-111.68199920654297,164.76199340820312 -122.18599700927734,157.13099670410156 -119.79499816894531,147.5330047607422 C-117.40399932861328,137.93499755859375 -93.02799987792969,40.104000091552734 -92.01200103759766,36.02399826049805 C-90.99600219726562,31.944000244140625 -92.39299774169922,27.642000198364258 -95.61299896240234,24.93899917602539 C-98.83300018310547,22.236000061035156 -176.0570068359375,-42.58399963378906 -183.63299560546875,-48.94300079345703 C-191.20899963378906,-55.301998138427734 -187.19700622558594,-67.64900207519531 -177.3300018310547,-68.34100341796875 C-167.46299743652344,-69.03299713134766 -66.88800048828125,-76.08200073242188 -62.694000244140625,-76.3759994506836 C-58.5,-76.66999816894531 -54.840999603271484,-79.3290023803711 -53.26499938964844,-83.22699737548828 C-51.68899917602539,-87.125 -13.904999732971191,-180.60000610351562 -10.197999954223633,-189.77000427246094 C-6.491000175476074,-198.94000244140625 6.491000175476074,-198.94000244140625 10.197999954223633,-189.77000427246094 C13.904999732971191,-180.60000610351562 51.68899917602539,-87.125 53.26499938964844,-83.22699737548828 C54.840999603271484,-79.3290023803711 58.5,-76.66999816894531 62.694000244140625,-76.3759994506836 C66.88800048828125,-76.08200073242188 167.46299743652344,-69.03299713134766 177.3300018310547,-68.34100341796875z"></path></g><g opacity="1" transform="matrix(1,0,0,1,0,0)"><path stroke-linecap="round" stroke-linejoin="round" fill-opacity="0" stroke="rgb(242,162,3)" stroke-opacity="1" stroke-width="16" d=" M184.09100341796875,-65.4280014038086 C182.375,-67.05000305175781 180.0800018310547,-68.14800262451172 177.3300018310547,-68.34100341796875 C177.3300018310547,-68.34100341796875 177.3300018310547,-68.34100341796875 177.3300018310547,-68.34100341796875 C167.46299743652344,-69.03299713134766 66.88800048828125,-76.08200073242188 62.694000244140625,-76.3759994506836 C58.5,-76.66999816894531 54.840999603271484,-79.3290023803711 53.26499938964844,-83.22699737548828 C51.68899917602539,-87.125 13.904999732971191,-180.60000610351562 10.197999954223633,-189.77000427246094 C6.491000175476074,-198.94000244140625 -6.491000175476074,-198.94000244140625 -10.197999954223633,-189.77000427246094 C-13.904999732971191,-180.60000610351562 -51.68899917602539,-87.125 -53.26499938964844,-83.22699737548828 C-54.840999603271484,-79.3290023803711 -58.5,-76.66999816894531 -62.694000244140625,-76.3759994506836 C-66.88800048828125,-76.08200073242188 -167.46299743652344,-69.03299713134766 -177.3300018310547,-68.34100341796875 C-179.2030029296875,-68.20999908447266 -180.86399841308594,-67.65899658203125 -182.2760009765625,-66.80799865722656"></path></g><g opacity="1" transform="matrix(1,0,0,1,0,0)"><path fill="url(#__lottie_element_13641)" fill-opacity="1" d=" M177.3300018310547,-68.34100341796875 C187.19700622558594,-67.64900207519531 191.20899963378906,-55.301998138427734 183.63299560546875,-48.94300079345703 C176.0570068359375,-42.58399963378906 98.83300018310547,22.236000061035156 95.61299896240234,24.93899917602539 C92.39299774169922,27.642000198364258 90.99600219726562,31.944000244140625 92.01200103759766,36.02399826049805 C93.02799987792969,40.104000091552734 117.40399932861328,137.93499755859375 119.79499816894531,147.5330047607422 C122.18599700927734,157.13099670410156 111.68199920654297,164.76199340820312 103.29299926757812,159.52200317382812 C94.90399932861328,154.28199768066406 9.394000053405762,100.86699676513672 5.828000068664551,98.63999938964844 C2.26200008392334,96.41300201416016 -2.26200008392334,96.41300201416016 -5.828000068664551,98.63999938964844 C-9.394000053405762,100.86699676513672 -94.90399932861328,154.28199768066406 -103.29299926757812,159.52200317382812 C-111.68199920654297,164.76199340820312 -122.18599700927734,157.13099670410156 -119.79499816894531,147.5330047607422 C-117.40399932861328,137.93499755859375 -93.02799987792969,40.104000091552734 -92.01200103759766,36.02399826049805 C-90.99600219726562,31.944000244140625 -92.39299774169922,27.642000198364258 -95.61299896240234,24.93899917602539 C-98.83300018310547,22.236000061035156 -176.0570068359375,-42.58399963378906 -183.63299560546875,-48.94300079345703 C-191.20899963378906,-55.301998138427734 -187.19700622558594,-67.64900207519531 -177.3300018310547,-68.34100341796875 C-167.46299743652344,-69.03299713134766 -66.88800048828125,-76.08200073242188 -62.694000244140625,-76.3759994506836 C-58.5,-76.66999816894531 -54.840999603271484,-79.3290023803711 -53.26499938964844,-83.22699737548828 C-51.68899917602539,-87.125 -13.904999732971191,-180.60000610351562 -10.197999954223633,-189.77000427246094 C-6.491000175476074,-198.94000244140625 6.491000175476074,-198.94000244140625 10.197999954223633,-189.77000427246094 C13.904999732971191,-180.60000610351562 51.68899917602539,-87.125 53.26499938964844,-83.22699737548828 C54.840999603271484,-79.3290023803711 58.5,-76.66999816894531 62.694000244140625,-76.3759994506836 C66.88800048828125,-76.08200073242188 167.46299743652344,-69.03299713134766 177.3300018310547,-68.34100341796875z"></path></g></g><g style="display: block;" transform="matrix(0.8199999928474426,0,0,0.8199999928474426,256,253)" opacity="1"><g opacity="1" transform="matrix(1,0,0,1,0,0)"><path fill="url(#__lottie_element_13644)" fill-opacity="1" d=" M177.3300018310547,-68.34100341796875 C187.19700622558594,-67.64900207519531 191.20899963378906,-55.301998138427734 183.63299560546875,-48.94300079345703 C176.0570068359375,-42.58399963378906 98.83300018310547,22.236000061035156 95.61299896240234,24.93899917602539 C92.39299774169922,27.642000198364258 90.99600219726562,31.944000244140625 92.01200103759766,36.02399826049805 C93.02799987792969,40.104000091552734 117.40399932861328,137.93499755859375 119.79499816894531,147.5330047607422 C122.18599700927734,157.13099670410156 111.68199920654297,164.76199340820312 103.29299926757812,159.52200317382812 C94.90399932861328,154.28199768066406 9.394000053405762,100.86699676513672 5.828000068664551,98.63999938964844 C2.26200008392334,96.41300201416016 -2.26200008392334,96.41300201416016 -5.828000068664551,98.63999938964844 C-9.394000053405762,100.86699676513672 -94.90399932861328,154.28199768066406 -103.29299926757812,159.52200317382812 C-111.68199920654297,164.76199340820312 -122.18599700927734,157.13099670410156 -119.79499816894531,147.5330047607422 C-117.40399932861328,137.93499755859375 -93.02799987792969,40.104000091552734 -92.01200103759766,36.02399826049805 C-90.99600219726562,31.944000244140625 -92.39299774169922,27.642000198364258 -95.61299896240234,24.93899917602539 C-98.83300018310547,22.236000061035156 -176.0570068359375,-42.58399963378906 -183.63299560546875,-48.94300079345703 C-191.20899963378906,-55.301998138427734 -187.19700622558594,-67.64900207519531 -177.3300018310547,-68.34100341796875 C-167.46299743652344,-69.03299713134766 -66.88800048828125,-76.08200073242188 -62.694000244140625,-76.3759994506836 C-58.5,-76.66999816894531 -54.840999603271484,-79.3290023803711 -53.26499938964844,-83.22699737548828 C-51.68899917602539,-87.125 -13.904999732971191,-180.60000610351562 -10.197999954223633,-189.77000427246094 C-6.491000175476074,-198.94000244140625 6.491000175476074,-198.94000244140625 10.197999954223633,-189.77000427246094 C13.904999732971191,-180.60000610351562 51.68899917602539,-87.125 53.26499938964844,-83.22699737548828 C54.840999603271484,-79.3290023803711 58.5,-76.66999816894531 62.694000244140625,-76.3759994506836 C66.88800048828125,-76.08200073242188 167.46299743652344,-69.03299713134766 177.3300018310547,-68.34100341796875z"></path><path fill="url(#__lottie_element_13645)" mask="url(#__lottie_element_13647)" fill-opacity="1" d="M0 0 M177.3300018310547,-68.34100341796875 C187.19700622558594,-67.64900207519531 191.20899963378906,-55.301998138427734 183.63299560546875,-48.94300079345703 C176.0570068359375,-42.58399963378906 98.83300018310547,22.236000061035156 95.61299896240234,24.93899917602539 C92.39299774169922,27.642000198364258 90.99600219726562,31.944000244140625 92.01200103759766,36.02399826049805 C93.02799987792969,40.104000091552734 117.40399932861328,137.93499755859375 119.79499816894531,147.5330047607422 C122.18599700927734,157.13099670410156 111.68199920654297,164.76199340820312 103.29299926757812,159.52200317382812 C94.90399932861328,154.28199768066406 9.394000053405762,100.86699676513672 5.828000068664551,98.63999938964844 C2.26200008392334,96.41300201416016 -2.26200008392334,96.41300201416016 -5.828000068664551,98.63999938964844 C-9.394000053405762,100.86699676513672 -94.90399932861328,154.28199768066406 -103.29299926757812,159.52200317382812 C-111.68199920654297,164.76199340820312 -122.18599700927734,157.13099670410156 -119.79499816894531,147.5330047607422 C-117.40399932861328,137.93499755859375 -93.02799987792969,40.104000091552734 -92.01200103759766,36.02399826049805 C-90.99600219726562,31.944000244140625 -92.39299774169922,27.642000198364258 -95.61299896240234,24.93899917602539 C-98.83300018310547,22.236000061035156 -176.0570068359375,-42.58399963378906 -183.63299560546875,-48.94300079345703 C-191.20899963378906,-55.301998138427734 -187.19700622558594,-67.64900207519531 -177.3300018310547,-68.34100341796875 C-167.46299743652344,-69.03299713134766 -66.88800048828125,-76.08200073242188 -62.694000244140625,-76.3759994506836 C-58.5,-76.66999816894531 -54.840999603271484,-79.3290023803711 -53.26499938964844,-83.22699737548828 C-51.68899917602539,-87.125 -13.904999732971191,-180.60000610351562 -10.197999954223633,-189.77000427246094 C-6.491000175476074,-198.94000244140625 6.491000175476074,-198.94000244140625 10.197999954223633,-189.77000427246094 C13.904999732971191,-180.60000610351562 51.68899917602539,-87.125 53.26499938964844,-83.22699737548828 C54.840999603271484,-79.3290023803711 58.5,-76.66999816894531 62.694000244140625,-76.3759994506836 C66.88800048828125,-76.08200073242188 167.46299743652344,-69.03299713134766 177.3300018310547,-68.34100341796875z"></path></g><g opacity="1" transform="matrix(1,0,0,1,0,-2)"><path stroke-linecap="round" stroke-linejoin="round" fill-opacity="0" stroke-dasharray=" 3 12 13 50" stroke-dashoffset="0" stroke="rgb(255,255,255)" stroke-opacity="1" stroke-width="7.317" d=" M151.3719940185547,-70.16100311279297 C142.5070037841797,-70.78199768066406 132.2550048828125,-71.5009994506836 121.93399810791016,-72.2239990234375"></path></g></g></g></svg>