<svg xmlns="http://www.w3.org/2000/svg" viewBox="0 0 512 512" width="512" height="512" style="width: 100%; height: 100%; transform: translate3d(0,0,0);" preserveAspectRatio="xMidYMid meet"><defs><clipPath id="__lottie_element_13756"><rect width="512" height="512" x="0" y="0"></rect></clipPath><linearGradient id="__lottie_element_13762" spreadMethod="pad" gradientUnits="userSpaceOnUse" x1="-37.077999114990234" y1="-91.60199737548828" x2="18.922000885009766" y2="45.76900100708008"><stop offset="0%" stop-color="rgb(251,191,84)"></stop><stop offset="35%" stop-color="rgb(251,210,87)"></stop><stop offset="58%" stop-color="rgb(252,229,91)"></stop><stop offset="78%" stop-color="rgb(248,202,57)"></stop><stop offset="100%" stop-color="rgb(244,175,23)"></stop></linearGradient><linearGradient id="__lottie_element_13765" spreadMethod="pad" gradientUnits="userSpaceOnUse"><stop></stop><stop></stop><stop></stop><stop></stop><stop></stop></linearGradient><radialGradient id="__lottie_element_13769" spreadMethod="pad" gradientUnits="userSpaceOnUse" cx="-38.75" cy="-98.43800354003906" r="129.7362161016385" fx="-38.75" fy="-98.43800354003906"><stop offset="44%" stop-color="rgb(255,255,255)"></stop><stop offset="89%" stop-color="rgb(255,248,207)"></stop><stop offset="100%" stop-color="rgb(255,240,158)"></stop></radialGradient><mask id="__lottie_element_13771"><path fill="url(#__lottie_element_13770)" d=" M-96.28600311279297,12.859999656677246 C-102.11799621582031,10.82800006866455 -102.65299987792969,2.7880001068115234 -97.14099884033203,0.0020000000949949026 C-97.14099884033203,0.0020000000949949026 -46.95000076293945,-25.368999481201172 -46.95000076293945,-25.368999481201172 C-44.672000885009766,-26.520000457763672 -43.20100021362305,-28.81999969482422 -43.11199951171875,-31.371000289916992 C-43.11199951171875,-31.371000289916992 -42.845001220703125,-39 -42.845001220703125,-39 C-42.845001220703125,-39 1.4989999532699585,-40.97999954223633 1.4989999532699585,-40.97999954223633 C3.2709999084472656,-41.058998107910156 4.946000099182129,-41.80799865722656 6.186999797821045,-43.07500076293945 C6.186999797821045,-43.07500076293945 12.53499984741211,-49.555999755859375 12.53499984741211,-49.555999755859375 C12.53499984741211,-49.555999755859375 5.656000137329102,-1.940999984741211 5.656000137329102,-1.940999984741211 C5.515999794006348,-0.9700000286102295 5.580999851226807,0.01899999938905239 5.8480000495910645,0.9629999995231628 C5.8480000495910645,0.9629999995231628 18.98699951171875,47.45899963378906 18.98699951171875,47.45899963378906 C18.98699951171875,47.45899963378906 11.276000022888184,41.560001373291016 11.276000022888184,41.560001373291016 C9.680999755859375,40.34000015258789 7.639999866485596,39.86399841308594 5.670000076293945,40.25199890136719 C5.670000076293945,40.25199890136719 -36.8129997253418,48.61800003051758 -36.8129997253418,48.61800003051758 C-36.8129997253418,48.61800003051758 -38.62699890136719,36.88100051879883 -38.62699890136719,36.88100051879883 C-39.02199935913086,34.323001861572266 -40.797000885009766,32.191001892089844 -43.242000579833984,31.339000701904297 C-43.242000579833984,31.339000701904297 -96.28600311279297,12.859999656677246 -96.28600311279297,12.859999656677246z M-30.016000747680664,92.38700103759766 C-30.016000747680664,92.38700103759766 -39.26900100708008,32.722999572753906 -39.26900100708008,32.722999572753906 C-39.26900100708008,32.722999572753906 -43.25699996948242,-27.235000610351562 -43.25699996948242,-27.235000610351562 C-43.25699996948242,-27.235000610351562 -41.98500061035156,-87.5989990234375 -41.98500061035156,-87.5989990234375 C-41.85499954223633,-93.77400207519531 -34.374000549316406,-96.76699829101562 -30.020999908447266,-92.38600158691406 C-30.020999908447266,-92.38600158691406 12.53499984741211,-49.555999755859375 12.53499984741211,-49.555999755859375 C12.53499984741211,-49.555999755859375 18.98699951171875,47.45899963378906 18.98699951171875,47.45899963378906 C18.98699951171875,47.45899963378906 -17.523000717163086,95.5469970703125 -17.523000717163086,95.5469970703125 C-21.257999420166016,100.46600341796875 -29.069000244140625,98.48999786376953 -30.016000747680664,92.38700103759766z"></path></mask><radialGradient id="__lottie_element_13770" spreadMethod="pad" gradientUnits="userSpaceOnUse" cx="-38.75" cy="-98.43800354003906" r="129.7362161016385" fx="-38.75" fy="-98.43800354003906"><stop stop-color="rgb(255,255,255)" offset="0%" stop-opacity="1"></stop><stop stop-color="rgb(255,255,255)" offset="70%" stop-opacity="1"></stop><stop stop-color="rgb(255,255,255)" offset="100%" stop-opacity="1"></stop><stop stop-color="rgb(255,255,255)" offset="100%" stop-opacity="0.5"></stop><stop stop-color="rgb(255,255,255)" offset="100%" stop-opacity="0"></stop></radialGradient><linearGradient id="__lottie_element_13775" spreadMethod="pad" gradientUnits="userSpaceOnUse" x1="7.321000099182129" y1="19.694000244140625" x2="27.31599998474121" y2="70.8489990234375"><stop offset="0%" stop-color="rgb(255,229,89)"></stop><stop offset="61%" stop-color="rgb(253,208,57)"></stop><stop offset="100%" stop-color="rgb(251,186,26)"></stop></linearGradient><radialGradient id="__lottie_element_13776" spreadMethod="pad" gradientUnits="userSpaceOnUse" cx="-38.75" cy="-98.43800354003906" r="129.7362161016385" fx="-38.75" fy="-98.43800354003906"><stop offset="44%" stop-color="rgb(255,255,255)"></stop><stop offset="89%" stop-color="rgb(255,248,207)"></stop><stop offset="100%" stop-color="rgb(255,240,158)"></stop></radialGradient><mask id="__lottie_element_13778"><path fill="url(#__lottie_element_13777)" d=" M-1.5069999694824219,-63.6349983215332 C-1.5069999694824219,-63.6349983215332 9.572999954223633,-52.5260009765625 9.572999954223633,-52.5260009765625 C11.397000312805176,-50.696998596191406 14.079000473022461,-50.02199935913086 16.552000045776367,-50.768001556396484 C16.552000045776367,-50.768001556396484 70.46199798583984,-67.03700256347656 70.46199798583984,-67.03700256347656 C76.35700225830078,-68.81600189208984 81.51100158691406,-62.66600036621094 78.72899627685547,-57.17300033569336 C78.72899627685547,-57.17300033569336 51.00400161743164,-2.421999931335449 51.00400161743164,-2.421999931335449 C51.00400161743164,-2.421999931335449 -0.8429999947547913,8.553999900817871 -0.8429999947547913,8.553999900817871 C-0.8429999947547913,8.553999900817871 -1.5069999694824219,-63.6349983215332 -1.5069999694824219,-63.6349983215332z M12.543000221252441,-49.584999084472656 C12.543000221252441,-49.584999084472656 58.189998626708984,-16.68600082397461 58.189998626708984,-16.68600082397461 C58.189998626708984,-16.68600082397461 52.88999938964844,-6.14300012588501 52.88999938964844,-6.14300012588501 C51.729000091552734,-3.8340001106262207 51.935001373291016,-1.0720000267028809 53.42599868774414,1.0390000343322754 C53.42599868774414,1.0390000343322754 85.2509994506836,46.11600112915039 85.2509994506836,46.11600112915039 C88.8280029296875,51.18299865722656 84.53600311279297,58.05500030517578 78.41400146484375,57.06399917602539 C78.41400146484375,57.06399917602539 23.214000701904297,48.125999450683594 23.214000701904297,48.125999450683594 C20.76799964904785,47.72999954223633 18.29599952697754,48.65599822998047 16.711999893188477,50.56100082397461 C16.711999893188477,50.56100082397461 12.199999809265137,55.98899841308594 12.199999809265137,55.98899841308594 C12.199999809265137,55.98899841308594 -43.01300048828125,-27.041000366210938 -43.01300048828125,-27.041000366210938 C-43.01300048828125,-27.041000366210938 12.543000221252441,-49.584999084472656 12.543000221252441,-49.584999084472656z M-96.28600311279297,12.859999656677246 C-102.11799621582031,10.82800006866455 -102.65299987792969,2.7880001068115234 -97.14099884033203,0.0020000000949949026 C-97.14099884033203,0.0020000000949949026 -46.95000076293945,-25.368999481201172 -46.95000076293945,-25.368999481201172 C-44.672000885009766,-26.520000457763672 -43.20100021362305,-28.81999969482422 -43.11199951171875,-31.371000289916992 C-43.11199951171875,-31.371000289916992 -42.845001220703125,-39 -42.845001220703125,-39 C-42.845001220703125,-39 1.4989999532699585,-40.97999954223633 1.4989999532699585,-40.97999954223633 C3.2709999084472656,-41.058998107910156 4.946000099182129,-41.80799865722656 6.186999797821045,-43.07500076293945 C6.186999797821045,-43.07500076293945 12.53499984741211,-49.555999755859375 12.53499984741211,-49.555999755859375 C12.53499984741211,-49.555999755859375 5.656000137329102,-1.940999984741211 5.656000137329102,-1.940999984741211 C5.515999794006348,-0.9700000286102295 5.580999851226807,0.01899999938905239 5.8480000495910645,0.9629999995231628 C5.8480000495910645,0.9629999995231628 18.98699951171875,47.45899963378906 18.98699951171875,47.45899963378906 C18.98699951171875,47.45899963378906 11.276000022888184,41.560001373291016 11.276000022888184,41.560001373291016 C9.680999755859375,40.34000015258789 7.639999866485596,39.86399841308594 5.670000076293945,40.25199890136719 C5.670000076293945,40.25199890136719 -36.8129997253418,48.61800003051758 -36.8129997253418,48.61800003051758 C-36.8129997253418,48.61800003051758 -38.62699890136719,36.88100051879883 -38.62699890136719,36.88100051879883 C-39.02199935913086,34.323001861572266 -40.797000885009766,32.191001892089844 -43.242000579833984,31.339000701904297 C-43.242000579833984,31.339000701904297 -96.28600311279297,12.859999656677246 -96.28600311279297,12.859999656677246z M-30.016000747680664,92.38700103759766 C-30.016000747680664,92.38700103759766 -39.26900100708008,32.722999572753906 -39.26900100708008,32.722999572753906 C-39.26900100708008,32.722999572753906 -43.25699996948242,-27.235000610351562 -43.25699996948242,-27.235000610351562 C-43.25699996948242,-27.235000610351562 -41.98500061035156,-87.5989990234375 -41.98500061035156,-87.5989990234375 C-41.85499954223633,-93.77400207519531 -34.374000549316406,-96.76699829101562 -30.020999908447266,-92.38600158691406 C-30.020999908447266,-92.38600158691406 12.53499984741211,-49.555999755859375 12.53499984741211,-49.555999755859375 C12.53499984741211,-49.555999755859375 18.98699951171875,47.45899963378906 18.98699951171875,47.45899963378906 C18.98699951171875,47.45899963378906 -17.523000717163086,95.5469970703125 -17.523000717163086,95.5469970703125 C-21.257999420166016,100.46600341796875 -29.069000244140625,98.48999786376953 -30.016000747680664,92.38700103759766z"></path></mask><radialGradient id="__lottie_element_13777" spreadMethod="pad" gradientUnits="userSpaceOnUse" cx="-38.75" cy="-98.43800354003906" r="129.7362161016385" fx="-38.75" fy="-98.43800354003906"><stop stop-color="rgb(255,255,255)" offset="0%" stop-opacity="1"></stop><stop stop-color="rgb(255,255,255)" offset="70%" stop-opacity="1"></stop><stop stop-color="rgb(255,255,255)" offset="100%" stop-opacity="1"></stop><stop stop-color="rgb(255,255,255)" offset="100%" stop-opacity="0.5"></stop><stop stop-color="rgb(255,255,255)" offset="100%" stop-opacity="0"></stop></radialGradient><linearGradient id="__lottie_element_13782" spreadMethod="pad" gradientUnits="userSpaceOnUse" x1="7.321000099182129" y1="19.694000244140625" x2="27.31599998474121" y2="70.8489990234375"><stop offset="0%" stop-color="rgb(255,229,89)"></stop><stop offset="61%" stop-color="rgb(253,208,57)"></stop><stop offset="100%" stop-color="rgb(251,186,26)"></stop></linearGradient><linearGradient id="__lottie_element_13816" spreadMethod="pad" gradientUnits="userSpaceOnUse"><stop></stop><stop></stop><stop></stop></linearGradient><linearGradient id="__lottie_element_13820" spreadMethod="pad" gradientUnits="userSpaceOnUse"><stop></stop><stop></stop><stop></stop></linearGradient><linearGradient id="__lottie_element_13824" spreadMethod="pad" gradientUnits="userSpaceOnUse"><stop></stop><stop></stop><stop></stop></linearGradient><linearGradient id="__lottie_element_13831" spreadMethod="pad" gradientUnits="userSpaceOnUse" x1="0.5" y1="36.5" x2="19.166000366210938" y2="85.94599914550781"><stop offset="0%" stop-color="rgb(255,220,0)"></stop><stop offset="39%" stop-color="rgb(255,195,0)"></stop><stop offset="100%" stop-color="rgb(255,169,0)"></stop></linearGradient><linearGradient id="__lottie_element_13835" spreadMethod="pad" gradientUnits="userSpaceOnUse" x1="44.7130012512207" y1="86.74500274658203" x2="122.02899932861328" y2="164.06199645996094"><stop offset="19%" stop-color="rgb(255,255,255)" stop-opacity="1"></stop><stop offset="73%" stop-color="rgb(255,255,255)" stop-opacity="0.699999988079071"></stop><stop offset="100%" stop-color="rgb(255,255,255)" stop-opacity="0.4000000059604645"></stop></linearGradient><linearGradient id="__lottie_element_13839" spreadMethod="pad" gradientUnits="userSpaceOnUse" x1="102.9219970703125" y1="-31.101999282836914" x2="194.08599853515625" y2="126.78500366210938"><stop offset="0%" stop-color="rgb(255,255,255)" stop-opacity="0.4000000059604645"></stop><stop offset="27%" stop-color="rgb(255,255,255)" stop-opacity="0.699999988079071"></stop><stop offset="81%" stop-color="rgb(255,255,255)" stop-opacity="1"></stop></linearGradient><linearGradient id="__lottie_element_13843" spreadMethod="pad" gradientUnits="userSpaceOnUse"><stop></stop><stop></stop><stop></stop></linearGradient><linearGradient id="__lottie_element_13847" spreadMethod="pad" gradientUnits="userSpaceOnUse"><stop></stop><stop></stop><stop></stop></linearGradient><linearGradient id="__lottie_element_13851" spreadMethod="pad" gradientUnits="userSpaceOnUse"><stop></stop><stop></stop><stop></stop></linearGradient><linearGradient id="__lottie_element_13855" spreadMethod="pad" gradientUnits="userSpaceOnUse" x1="214.81300354003906" y1="28.89299964904785" x2="-213.68600463867188" y2="-33.696998596191406"><stop offset="0%" stop-color="rgb(255,228,46)"></stop><stop offset="61%" stop-color="rgb(255,206,23)"></stop><stop offset="100%" stop-color="rgb(255,183,0)"></stop></linearGradient></defs><g clip-path="url(#__lottie_element_13756)"><g style="display: block;" transform="matrix(0.7000356912612915,0.7000356912612915,-0.7000356912612915,0.7000356912612915,209.41542053222656,334.4831237792969)" opacity="1"><path stroke-linecap="round" stroke-linejoin="round" fill-opacity="0" stroke="rgb(219,147,3)" stroke-opacity="1" stroke-width="16" d=" M-96.28600311279297,12.859999656677246 C-96.28600311279297,12.859999656677246 -43.242000579833984,31.339000701904297 -43.242000579833984,31.339000701904297 C-40.797000885009766,32.191001892089844 -39.02199935913086,34.323001861572266 -38.62699890136719,36.88100051879883 C-38.62699890136719,36.88100051879883 -36.8129997253418,48.61800003051758 -36.8129997253418,48.61800003051758 C-36.8129997253418,48.61800003051758 5.670000076293945,40.25199890136719 5.670000076293945,40.25199890136719 C7.639999866485596,39.86399841308594 9.680999755859375,40.34000015258789 11.276000022888184,41.560001373291016 C11.276000022888184,41.560001373291016 18.98699951171875,47.45899963378906 18.98699951171875,47.45899963378906 C18.98699951171875,47.45899963378906 5.8480000495910645,0.9629999995231628 5.8480000495910645,0.9629999995231628 C5.580999851226807,0.01899999938905239 5.515999794006348,-0.9700000286102295 5.656000137329102,-1.940999984741211 C5.656000137329102,-1.940999984741211 12.53499984741211,-49.555999755859375 12.53499984741211,-49.555999755859375 C12.53499984741211,-49.555999755859375 6.186999797821045,-43.07500076293945 6.186999797821045,-43.07500076293945 C4.946000099182129,-41.80799865722656 3.2709999084472656,-41.058998107910156 1.4989999532699585,-40.97999954223633 C1.4989999532699585,-40.97999954223633 -43.11199951171875,-31.371000289916992 -43.11199951171875,-31.371000289916992 C-43.20100021362305,-28.81999969482422 -44.672000885009766,-26.520000457763672 -46.95000076293945,-25.368999481201172 C-46.95000076293945,-25.368999481201172 -97.14099884033203,0.0020000000949949026 -97.14099884033203,0.0020000000949949026 C-102.65299987792969,2.7880001068115234 -102.11799621582031,10.82800006866455 -96.28600311279297,12.859999656677246z M-30.016000747680664,92.38700103759766 C-30.016000747680664,92.38700103759766 -39.26900100708008,32.722999572753906 -39.26900100708008,32.722999572753906 C-39.26900100708008,32.722999572753906 -43.25699996948242,-27.235000610351562 -43.25699996948242,-27.235000610351562 C-43.25699996948242,-27.235000610351562 -41.98500061035156,-87.5989990234375 -41.98500061035156,-87.5989990234375 C-41.85499954223633,-93.77400207519531 -34.374000549316406,-96.76699829101562 -30.020999908447266,-92.38600158691406 C-30.020999908447266,-92.38600158691406 12.53499984741211,-49.555999755859375 12.53499984741211,-49.555999755859375 C12.53499984741211,-49.555999755859375 18.98699951171875,47.45899963378906 18.98699951171875,47.45899963378906 C18.98699951171875,47.45899963378906 -17.523000717163086,95.5469970703125 -17.523000717163086,95.5469970703125 C-21.257999420166016,100.46600341796875 -29.069000244140625,98.48999786376953 -30.016000747680664,92.38700103759766z M12.543000221252441,-49.584999084472656 C12.543000221252441,-49.584999084472656 -43.01300048828125,-27.041000366210938 -43.01300048828125,-27.041000366210938 C-43.01300048828125,-27.041000366210938 12.199999809265137,55.98899841308594 12.199999809265137,55.98899841308594 C12.199999809265137,55.98899841308594 16.711999893188477,50.56100082397461 16.711999893188477,50.56100082397461 C18.29599952697754,48.65599822998047 20.76799964904785,47.72999954223633 23.214000701904297,48.125999450683594 C23.214000701904297,48.125999450683594 78.41400146484375,57.06399917602539 78.41400146484375,57.06399917602539 C84.53600311279297,58.05500030517578 88.8280029296875,51.18299865722656 85.2509994506836,46.11600112915039 C85.2509994506836,46.11600112915039 53.42599868774414,1.0390000343322754 53.42599868774414,1.0390000343322754 C51.935001373291016,-1.0720000267028809 51.729000091552734,-3.8340001106262207 52.88999938964844,-6.14300012588501 C52.88999938964844,-6.14300012588501 58.189998626708984,-16.68600082397461 58.189998626708984,-16.68600082397461 C58.189998626708984,-16.68600082397461 12.543000221252441,-49.584999084472656 12.543000221252441,-49.584999084472656z M-1.5069999694824219,-63.6349983215332 C-1.5069999694824219,-63.6349983215332 9.572999954223633,-52.5260009765625 9.572999954223633,-52.5260009765625 C11.397000312805176,-50.696998596191406 14.079000473022461,-50.02199935913086 16.552000045776367,-50.768001556396484 C16.552000045776367,-50.768001556396484 70.46199798583984,-67.03700256347656 70.46199798583984,-67.03700256347656 C76.35700225830078,-68.81600189208984 81.51100158691406,-62.66600036621094 78.72899627685547,-57.17300033569336 C78.72899627685547,-57.17300033569336 51.00400161743164,-2.421999931335449 51.00400161743164,-2.421999931335449 C51.00400161743164,-2.421999931335449 -0.8429999947547913,8.553999900817871 -0.8429999947547913,8.553999900817871 C-0.8429999947547913,8.553999900817871 -1.5069999694824219,-63.6349983215332 -1.5069999694824219,-63.6349983215332z"></path><g opacity="1" transform="matrix(1,0,0,1,0,0)"></g><g opacity="1" transform="matrix(1,0,0,1,0,0)"></g><g opacity="1" transform="matrix(1,0,0,1,0,0)"></g><g opacity="1" transform="matrix(1,0,0,1,0,0)"></g></g><g style="display: block;" transform="matrix(0.7000356912612915,0.7000356912612915,-0.7000356912612915,0.7000356912612915,266,244)" opacity="1"><path fill="url(#__lottie_element_13855)" fill-opacity="1" d=" M282.0400085449219,3.515000104904175 C270.0400085449219,-25.985000610351562 231.52499389648438,-33.51499938964844 228.52499389648438,0.48500001430511475 C220.54200744628906,55.641998291015625 93,71 1,65 C1,67 -2.5,115.5 2,134 C210,135 283.88299560546875,68.0199966430664 282.0400085449219,3.515000104904175z M1.5,-114 C-7,-112 -1.5,-95.5 1,-92 C100,-98 232.02499389648438,-51.01499938964844 228.52499389648438,0.9850000143051147 C233.52499389648438,6.985000133514404 263.5400085449219,21.514999389648438 281.5400085449219,2.015000104904175 C255.5399932861328,-106.48500061035156 49,-112 1.5,-114z M0.5,-114 C-223.4739990234375,-100.46800231933594 -256.0610046386719,-31.312999725341797 -253.29100036621094,1.0859999656677246 C-253.11599731445312,3.138000011444092 -245.73899841308594,28.05900001525879 -242.89199829101562,27.48200035095215 C-240.40499877929688,26.97800064086914 -242.50900268554688,0.972000002861023 -241.03500366210938,2.236999988555908 C-229.29299926757812,-65.65699768066406 -107.5,-88.5 1,-92.5 C1,-92.5 10,-106.5 0.5,-114z M155.64700317382812,90.53399658203125 C155.64700317382812,90.53399658203125 155.63499450683594,90.51499938964844 155.63499450683594,90.51499938964844 C155.63499450683594,90.51499938964844 161.11099243164062,90.8239974975586 161.11099243164062,90.8239974975586 C161.11099243164062,90.8239974975586 160.85499572753906,80.39600372314453 160.85499572753906,80.39600372314453 C160.85499572753906,80.39600372314453 155.64100646972656,79.96900177001953 155.64100646972656,79.96900177001953 C155.64100646972656,79.96900177001953 155.55599975585938,79.88400268554688 155.55599975585938,79.88400268554688 C155.55599975585938,79.88400268554688 155.64700317382812,90.53399658203125 155.64700317382812,90.53399658203125z"></path><g opacity="1" transform="matrix(1,0,0,1,0,0)"></g></g><g style="display: none;"><path fill="url(#__lottie_element_13851)"></path><g></g></g><g style="display: none;"><path fill="url(#__lottie_element_13847)"></path><g></g></g><g style="display: none;"><path fill="url(#__lottie_element_13843)"></path><g></g></g><g style="display: block;" transform="matrix(0.999998927116394,0,0,0.999998927116394,266.9998779296875,254.99998474121094)" opacity="1"><g opacity="1" transform="matrix(1,0,0,1,0,0)"><path fill="url(#__lottie_element_13839)" fill-opacity="1" d=" M205.17100524902344,107.14299774169922 C137.04299926757812,-58.78099822998047 -0.7300000190734863,-149.70199584960938 -2.859999895095825,-151.3419952392578 C26.010000228881836,-133.28199768066406 51.972999572753906,-116.08100128173828 82.15299987792969,-87.08100128173828 C136.09300231933594,-35.250999450683594 179.30299377441406,10.583000183105469 205.17100524902344,107.14299774169922z"></path></g></g><g style="display: block;" transform="matrix(0.7071060538291931,0.7071060538291931,-0.7071060538291931,0.7071060538291931,377.015869140625,230.5654754638672)" opacity="1"><g opacity="1" transform="matrix(1,0,0,1,0,0)"><path fill="url(#__lottie_element_13835)" fill-opacity="1" d=" M-9.63700008392334,175.9250030517578 C-6.695000171661377,161.91000366210938 -0.3240000009536743,149.79800415039062 -0.3240000009536743,149.79800415039062 C212.81399536132812,154.927001953125 176.1300048828125,48.900001525878906 96.9739990234375,24.145000457763672 C273.31201171875,86.39600372314453 108.66600036621094,202.18600463867188 -9.63700008392334,175.9250030517578z"></path></g></g><g style="display: block;" transform="matrix(0.7000356912612915,0.7000356912612915,-0.7000356912612915,0.7000356912612915,375.6017761230469,371.2790832519531)" opacity="1"><g opacity="1" transform="matrix(1,0,0,1,0,0)"><path fill="url(#__lottie_element_13831)" fill-opacity="1" d=" M-53.90399932861328,-115.73799896240234 C121.71700286865234,-89.39399719238281 185.35299682617188,82.3239974975586 -169.40699768066406,78.18199920654297 C-171.71800231933594,95.45500183105469 -166.66600036621094,117.1719970703125 -167.82899475097656,122.3030014038086 C215.65699768066406,120.70700073242188 158.08099365234375,-98.48400115966797 -53.90399932861328,-115.73799896240234z M-169.40699768066406,78.18199920654297 C-156.08099365234375,81.53900146484375 -147.91600036621094,90.26399993896484 -148.08999633789062,99.7300033569336 C-148.23500061035156,107.63700103759766 -154.197998046875,116.05999755859375 -167.82899475097656,122.3030014038086 C-166.66600036621094,117.1719970703125 -171.71800231933594,95.45500183105469 -169.40699768066406,78.18199920654297z M-169.40699768066406,78.18199920654297 C-156.08099365234375,81.53900146484375 -147.91600036621094,90.26399993896484 -148.08999633789062,99.7300033569336 C-148.23500061035156,107.63700103759766 -154.197998046875,116.05999755859375 -167.82899475097656,122.3030014038086 C-166.66600036621094,117.1719970703125 -171.71800231933594,95.45500183105469 -169.40699768066406,78.18199920654297z"></path></g></g><g style="display: block;" transform="matrix(0.999998927116394,0,0,0.999998927116394,266.99969482421875,249.9994354248047)" opacity="1"><g opacity="1" transform="matrix(1,0,0,1,0,0)"><g opacity="1" transform="matrix(1,0,0,1,0,0)"><path stroke-linecap="round" stroke-linejoin="round" fill-opacity="0" stroke="rgb(255,255,255)" stroke-opacity="1" stroke-width="6" d=" M156.2779998779297,176.48399353027344 C156.2779998779297,176.48399353027344 156.2779998779297,176.48399353027344 156.2779998779297,176.48399353027344"></path></g><g opacity="1" transform="matrix(1,0,0,1,0,0)"><path stroke-linecap="round" stroke-linejoin="round" fill-opacity="0" stroke="rgb(255,255,255)" stroke-opacity="1" stroke-width="6" d=" M143.1929931640625,179.4709930419922 C143.1929931640625,179.4709930419922 145.51100158691406,179.36300659179688 148.94400024414062,178.63999938964844"></path></g></g><g opacity="1" transform="matrix(1,0,0,1,0,0)"><path fill="rgb(255,255,255)" fill-opacity="1" d=" M153.2779998779297,176.48399353027344 C153.2779998779297,174.82699584960938 154.62100219726562,173.48399353027344 156.2779998779297,173.48399353027344 C157.93499755859375,173.48399353027344 159.2779998779297,174.82699584960938 159.2779998779297,176.48399353027344 C159.2779998779297,178.14100646972656 157.93499755859375,179.48399353027344 156.2779998779297,179.48399353027344 C154.62100219726562,179.48399353027344 153.2779998779297,178.14100646972656 153.2779998779297,176.48399353027344z"></path></g></g><g style="display: none;"><g><path fill="url(#__lottie_element_13824)"></path></g></g><g style="display: none;"><g><path fill="url(#__lottie_element_13820)"></path><g></g></g></g><g style="display: none;"><g><path fill="url(#__lottie_element_13816)"></path><g></g></g></g><g style="display: block;" transform="matrix(0.7071060538291931,0.7071060538291931,-0.7071060538291931,0.7071060538291931,367.2936706542969,301.4517822265625)" opacity="0.35000000000000003"><g opacity="1" transform="matrix(1,0,0,1,0,0)"><path fill="rgb(219,147,3)" fill-opacity="1" d=" M1.593999981880188,90.66999816894531 C-10.54699993133545,91.21399688720703 -21.39299964904785,90.81900024414062 -29.70199966430664,89.5530014038086 C-29.70199966430664,89.5530014038086 -65.48899841308594,157.52699279785156 -6.629000186920166,157.78199768066406 C-1.0429999828338623,157.80999755859375 23.775999069213867,154.54100036621094 30.593000411987305,153.76300048828125 C5.458000183105469,150.98199462890625 -23.034000396728516,122.14900207519531 1.593999981880188,90.66999816894531z"></path></g></g><g style="display: none;"><path stroke-linecap="round" stroke-linejoin="round" fill-opacity="0"></path><g></g><g></g></g><g style="display: block;" transform="matrix(0.7000356912612915,0.7000356912612915,-0.7000356912612915,0.7000356912612915,266,244)" opacity="1"><g opacity="1" transform="matrix(1,0,0,1,0,0)"><path stroke-linecap="round" stroke-linejoin="round" fill-opacity="0" stroke="rgb(242,162,3)" stroke-opacity="1" stroke-width="8" d=" M70.4020004272461,65.93699645996094 C150.8179931640625,61.15399932861328 224.4530029296875,38.94599914550781 228.02999877929688,0"></path></g><g opacity="1" transform="matrix(-1,0,0,-1,0,0)"><path stroke-linecap="round" stroke-linejoin="round" fill-opacity="0" stroke="rgb(242,162,3)" stroke-opacity="1" stroke-width="8" d=" M255.1179962158203,0 C252.53599548339844,-37.89699935913086 198.1009979248047,-69.45700073242188 153.4080047607422,-81.48799896240234"></path></g><g opacity="1" transform="matrix(-1,0,0,-1,0,0)"><path stroke-linecap="round" stroke-linejoin="round" fill-opacity="0" stroke="rgb(242,162,3)" stroke-opacity="1" stroke-width="8" d=" M255.1179962158203,0 C260.2760009765625,75.73699951171875 99.08399963378906,112.96399688720703 0,114.93900299072266"></path></g><g opacity="1" transform="matrix(1,0,0,1,0,0)"><path stroke-linecap="round" stroke-linejoin="round" fill-opacity="0" stroke="rgb(219,147,3)" stroke-opacity="1" stroke-width="8" d="M0 0"></path></g><g opacity="1" transform="matrix(1,0,0,1,0,0)"><path stroke-linecap="round" stroke-linejoin="round" fill-opacity="0" stroke="rgb(242,162,3)" stroke-opacity="1" stroke-width="8" d="M0 0"></path></g><g opacity="1" transform="matrix(1,0,0,1,0,0)"><path stroke-linecap="round" stroke-linejoin="round" fill-opacity="0" stroke="rgb(242,162,3)" stroke-opacity="1" stroke-width="8" d=" M228.02999877929688,0 C230.35299682617188,-25.290000915527344 202.3800048828125,-49.10499954223633 159.3090057373047,-66.36299896240234 C116.23799896240234,-83.62100219726562 58.069000244140625,-94.32099914550781 0,-93.38200378417969"></path></g><g opacity="1" transform="matrix(1,0,0,1,0,0)"><path stroke-linecap="round" stroke-linejoin="round" fill-opacity="0" stroke="rgb(219,147,3)" stroke-opacity="1" stroke-width="8" d=" M140.531005859375,-73.16000366210938 C100.08300018310547,-86.36799621582031 50.005001068115234,-94.19100189208984 0,-93.38200378417969"></path></g><g opacity="1" transform="matrix(1,0,0,1,0,0)"><path stroke-linecap="round" stroke-linejoin="round" fill-opacity="0" stroke="rgb(242,162,3)" stroke-opacity="1" stroke-width="8" d=" M280.22900390625,0 C275.8179931640625,-34.79199981689453 241.68299865722656,-64.24299621582031 190.69000244140625,-84.63800048828125 C139.69700622558594,-105.03299713134766 71.84500122070312,-116.37100219726562 0,-114.93900299072266"></path></g><g opacity="1" transform="matrix(1,0,0,1,0,0)"><path stroke-linecap="round" stroke-linejoin="round" fill-opacity="0" stroke="rgb(219,147,3)" stroke-opacity="1" stroke-width="8" d=" M280.22900390625,0 C293.02099609375,100.90499877929688 116.36000061035156,139.6529998779297 0,135.01699829101562"></path></g><g opacity="1" transform="matrix(1,0,0,1,0,0)"><path stroke-linecap="round" stroke-linejoin="round" fill-opacity="0" stroke="rgb(219,147,3)" stroke-opacity="1" stroke-width="8" d=" M280.22900390625,0 C276.34100341796875,-30.667999267578125 249.35800170898438,-57.18600082397461 208.0919952392578,-77.01000213623047"></path></g><g opacity="1" transform="matrix(-1,0,0,-1,0,0)"><path stroke-linecap="round" stroke-linejoin="round" fill-opacity="0" stroke="rgb(219,147,3)" stroke-opacity="1" stroke-width="8" d=" M242.41900634765625,0 C249.25999450683594,-46.46099853515625 171.45199584960938,-75.1719970703125 152.29200744628906,-81.50700378417969"></path></g><g opacity="1" transform="matrix(-1,0,0,-1,0,0)"><path stroke-linecap="round" stroke-linejoin="round" fill-opacity="0" stroke="rgb(219,147,3)" stroke-opacity="1" stroke-width="8" d=" M0,93.38200378417969 C107.96099853515625,91.63700103759766 233.1540069580078,62.926998138427734 242.41900634765625,0"></path></g><g opacity="1" transform="matrix(1,0,0,1,0,0)"><path stroke-linecap="round" stroke-linejoin="round" fill-opacity="0" stroke="rgb(219,147,3)" stroke-opacity="1" stroke-width="8" d="M0 0"></path></g><g opacity="1" transform="matrix(1,0,0,1,0,0)"><path stroke-linecap="round" stroke-linejoin="round" fill-opacity="0" stroke="rgb(219,147,3)" stroke-opacity="1" stroke-width="8" d="M0 0"></path></g><g opacity="1" transform="matrix(1,0,0,1,0,0)"><path stroke-linecap="round" stroke-linejoin="round" fill-opacity="0" stroke="rgb(219,147,3)" stroke-opacity="1" stroke-width="8" d="M0 0"></path></g></g><g style="display: none;"><path stroke-linecap="round" stroke-linejoin="round" fill-opacity="0"></path><g></g><g></g><g></g></g><g style="display: none;"><g><path stroke-linecap="round" stroke-linejoin="round" fill-opacity="0"></path></g><g><path stroke-linecap="round" stroke-linejoin="round" fill-opacity="0"></path></g><g><path stroke-linecap="round" stroke-linejoin="round" fill-opacity="0"></path></g><g><path stroke-linecap="round" stroke-linejoin="round" fill-opacity="0"></path></g><g><path stroke-linecap="round" stroke-linejoin="round" fill-opacity="0"></path></g><g><path stroke-linecap="round" stroke-linejoin="round" fill-opacity="0"></path></g><g><path stroke-linecap="round" stroke-linejoin="round" fill-opacity="0"></path></g><g><path stroke-linecap="round" stroke-linejoin="round" fill-opacity="0"></path></g><g><path stroke-linecap="round" stroke-linejoin="round" fill-opacity="0"></path></g><g><path stroke-linecap="round" stroke-linejoin="round" fill-opacity="0"></path></g><g><path stroke-linecap="round" stroke-linejoin="round" fill-opacity="0"></path></g><g><path stroke-linecap="round" stroke-linejoin="round" fill-opacity="0"></path></g><g><path stroke-linecap="round" stroke-linejoin="round" fill-opacity="0"></path></g><g><path stroke-linecap="round" stroke-linejoin="round" fill-opacity="0"></path></g></g><g style="display: none;"><path stroke-linecap="round" stroke-linejoin="round" fill-opacity="0"></path><g></g><g></g><g></g></g><g style="display: none;"><path stroke-linecap="round" stroke-linejoin="round" fill-opacity="0"></path><g></g><g></g></g><g style="display: none;"><g><path stroke-linecap="round" stroke-linejoin="round" fill-opacity="0"></path></g><g><path stroke-linecap="round" stroke-linejoin="round" fill-opacity="0"></path></g><g><path stroke-linecap="round" stroke-linejoin="round" fill-opacity="0"></path></g><g><path stroke-linecap="round" stroke-linejoin="round" fill-opacity="0"></path></g><g><path stroke-linecap="round" stroke-linejoin="round" fill-opacity="0"></path></g><g><path stroke-linecap="round" stroke-linejoin="round" fill-opacity="0"></path></g><g><path stroke-linecap="round" stroke-linejoin="round" fill-opacity="0"></path></g><g><path stroke-linecap="round" stroke-linejoin="round" fill-opacity="0"></path></g><g><path stroke-linecap="round" stroke-linejoin="round" fill-opacity="0"></path></g><g><path stroke-linecap="round" stroke-linejoin="round" fill-opacity="0"></path></g><g><path stroke-linecap="round" stroke-linejoin="round" fill-opacity="0"></path></g><g><path stroke-linecap="round" stroke-linejoin="round" fill-opacity="0"></path></g></g><g style="display: none;"><path stroke-linecap="round" stroke-linejoin="round" fill-opacity="0"></path><g></g><g></g><g></g><g></g><g></g><g></g><g></g><g></g><g></g><g></g><g></g><g></g></g><g style="display: block;" transform="matrix(0.7000356912612915,0.7000356912612915,-0.7000356912612915,0.7000356912612915,209.41542053222656,334.4831237792969)" opacity="1"><g opacity="1" transform="matrix(1,0,0,1,0,0)"><path stroke-linecap="round" stroke-linejoin="round" fill-opacity="0" stroke="rgb(219,147,3)" stroke-opacity="1" stroke-width="16" d=" M-30.016000747680664,92.38700103759766 C-30.016000747680664,92.38700103759766 -39.26900100708008,32.722999572753906 -39.26900100708008,32.722999572753906 C-39.26900100708008,32.722999572753906 -43.25699996948242,-27.235000610351562 -43.25699996948242,-27.235000610351562 C-43.25699996948242,-27.235000610351562 -41.98500061035156,-87.5989990234375 -41.98500061035156,-87.5989990234375 C-41.85499954223633,-93.77400207519531 -34.374000549316406,-96.76699829101562 -30.020999908447266,-92.38600158691406 C-30.020999908447266,-92.38600158691406 12.53499984741211,-49.555999755859375 12.53499984741211,-49.555999755859375 C12.53499984741211,-49.555999755859375 18.98699951171875,47.45899963378906 18.98699951171875,47.45899963378906 C18.98699951171875,47.45899963378906 -17.523000717163086,95.5469970703125 -17.523000717163086,95.5469970703125 C-21.257999420166016,100.46600341796875 -29.069000244140625,98.48999786376953 -30.016000747680664,92.38700103759766z"></path></g><g opacity="1" transform="matrix(1,0,0,1,0,0)"><path stroke-linecap="round" stroke-linejoin="round" fill-opacity="0" stroke="rgb(219,147,3)" stroke-opacity="1" stroke-width="16" d=" M12.543000221252441,-49.584999084472656 C12.543000221252441,-49.584999084472656 -43.01300048828125,-27.041000366210938 -43.01300048828125,-27.041000366210938 C-43.01300048828125,-27.041000366210938 12.199999809265137,55.98899841308594 12.199999809265137,55.98899841308594 C12.199999809265137,55.98899841308594 16.711999893188477,50.56100082397461 16.711999893188477,50.56100082397461 C18.29599952697754,48.65599822998047 20.76799964904785,47.72999954223633 23.214000701904297,48.125999450683594 C23.214000701904297,48.125999450683594 78.41400146484375,57.06399917602539 78.41400146484375,57.06399917602539 C84.53600311279297,58.05500030517578 88.8280029296875,51.18299865722656 85.2509994506836,46.11600112915039 C85.2509994506836,46.11600112915039 53.42599868774414,1.0390000343322754 53.42599868774414,1.0390000343322754 C51.935001373291016,-1.0720000267028809 51.729000091552734,-3.8340001106262207 52.88999938964844,-6.14300012588501 C52.88999938964844,-6.14300012588501 58.189998626708984,-16.68600082397461 58.189998626708984,-16.68600082397461 C58.189998626708984,-16.68600082397461 12.543000221252441,-49.584999084472656 12.543000221252441,-49.584999084472656z"></path></g><g opacity="1" transform="matrix(1,0,0,1,0,0)"><path stroke-linecap="round" stroke-linejoin="round" fill-opacity="0" stroke="rgb(219,147,3)" stroke-opacity="1" stroke-width="16" d=" M-1.5069999694824219,-63.6349983215332 C-1.5069999694824219,-63.6349983215332 9.572999954223633,-52.5260009765625 9.572999954223633,-52.5260009765625 C11.397000312805176,-50.696998596191406 14.079000473022461,-50.02199935913086 16.552000045776367,-50.768001556396484 C16.552000045776367,-50.768001556396484 70.46199798583984,-67.03700256347656 70.46199798583984,-67.03700256347656 C76.35700225830078,-68.81600189208984 81.51100158691406,-62.66600036621094 78.72899627685547,-57.17300033569336 C78.72899627685547,-57.17300033569336 51.00400161743164,-2.421999931335449 51.00400161743164,-2.421999931335449 C51.00400161743164,-2.421999931335449 -0.8429999947547913,8.553999900817871 -0.8429999947547913,8.553999900817871 C-0.8429999947547913,8.553999900817871 -1.5069999694824219,-63.6349983215332 -1.5069999694824219,-63.6349983215332z"></path></g><g opacity="1" transform="matrix(1,0,0,1,0,0)"><path stroke-linecap="round" stroke-linejoin="round" fill-opacity="0" stroke="rgb(242,162,3)" stroke-opacity="1" stroke-width="16" d=" M1.4989999532699585,-40.97999954223633 C1.4989999532699585,-40.97999954223633 -43.11199951171875,-31.371000289916992 -43.11199951171875,-31.371000289916992 C-43.20100021362305,-28.81999969482422 -44.672000885009766,-26.520000457763672 -46.95000076293945,-25.368999481201172 C-46.95000076293945,-25.368999481201172 -97.14099884033203,0.0020000000949949026 -97.14099884033203,0.0020000000949949026 C-102.65299987792969,2.7880001068115234 3.2709999084472656,-41.058998107910156 1.4989999532699585,-40.97999954223633z M9.572999954223633,-52.5260009765625 C11.397000312805176,-50.696998596191406 14.079000473022461,-50.02199935913086 16.552000045776367,-50.768001556396484 C16.552000045776367,-50.768001556396484 70.46199798583984,-67.03700256347656 70.46199798583984,-67.03700256347656 M-43.25699996948242,-27.235000610351562 C-43.25699996948242,-27.235000610351562 -41.98500061035156,-87.5989990234375 -41.98500061035156,-87.5989990234375 C-41.85499954223633,-93.77400207519531 -34.374000549316406,-96.76699829101562 -30.020999908447266,-92.38600158691406 C-30.020999908447266,-92.38600158691406 12.53499984741211,-49.555999755859375 12.53499984741211,-49.555999755859375 C12.53499984741211,-49.555999755859375 -43.25699996948242,-27.235000610351562 -43.25699996948242,-27.235000610351562z"></path></g></g><g style="display: block;" transform="matrix(0.7000356912612915,0.7000356912612915,-0.7000356912612915,0.7000356912612915,209.41542053222656,334.4831237792969)" opacity="1"><g opacity="1" transform="matrix(1,0,0,1,0,0)"><path fill="url(#__lottie_element_13762)" fill-opacity="1" d=" M-1.5069999694824219,-63.6349983215332 C-1.5069999694824219,-63.6349983215332 9.572999954223633,-52.5260009765625 9.572999954223633,-52.5260009765625 C11.397000312805176,-50.696998596191406 14.079000473022461,-50.02199935913086 16.552000045776367,-50.768001556396484 C16.552000045776367,-50.768001556396484 70.46199798583984,-67.03700256347656 70.46199798583984,-67.03700256347656 C76.35700225830078,-68.81600189208984 81.51100158691406,-62.66600036621094 78.72899627685547,-57.17300033569336 C78.72899627685547,-57.17300033569336 51.00400161743164,-2.421999931335449 51.00400161743164,-2.421999931335449 C51.00400161743164,-2.421999931335449 -0.8429999947547913,8.553999900817871 -0.8429999947547913,8.553999900817871 C-0.8429999947547913,8.553999900817871 -1.5069999694824219,-63.6349983215332 -1.5069999694824219,-63.6349983215332z M-96.28600311279297,12.859999656677246 C-102.11799621582031,10.82800006866455 -102.65299987792969,2.7880001068115234 -97.14099884033203,0.0020000000949949026 C-97.14099884033203,0.0020000000949949026 -46.95000076293945,-25.368999481201172 -46.95000076293945,-25.368999481201172 C-44.672000885009766,-26.520000457763672 -43.20100021362305,-28.81999969482422 -43.11199951171875,-31.371000289916992 C-43.11199951171875,-31.371000289916992 -42.845001220703125,-39 -42.845001220703125,-39 C-42.845001220703125,-39 1.4989999532699585,-40.97999954223633 1.4989999532699585,-40.97999954223633 C3.2709999084472656,-41.058998107910156 4.946000099182129,-41.80799865722656 6.186999797821045,-43.07500076293945 C6.186999797821045,-43.07500076293945 12.53499984741211,-49.555999755859375 12.53499984741211,-49.555999755859375 C12.53499984741211,-49.555999755859375 5.656000137329102,-1.940999984741211 5.656000137329102,-1.940999984741211 C5.515999794006348,-0.9700000286102295 5.580999851226807,0.01899999938905239 5.8480000495910645,0.9629999995231628 C5.8480000495910645,0.9629999995231628 18.98699951171875,47.45899963378906 18.98699951171875,47.45899963378906 C18.98699951171875,47.45899963378906 11.276000022888184,41.560001373291016 11.276000022888184,41.560001373291016 C9.680999755859375,40.34000015258789 7.639999866485596,39.86399841308594 5.670000076293945,40.25199890136719 C5.670000076293945,40.25199890136719 -36.8129997253418,48.61800003051758 -36.8129997253418,48.61800003051758 C-36.8129997253418,48.61800003051758 -38.62699890136719,36.88100051879883 -38.62699890136719,36.88100051879883 C-39.02199935913086,34.323001861572266 -40.797000885009766,32.191001892089844 -43.242000579833984,31.339000701904297 C-43.242000579833984,31.339000701904297 -96.28600311279297,12.859999656677246 -96.28600311279297,12.859999656677246z M12.543000221252441,-49.584999084472656 C12.543000221252441,-49.584999084472656 58.189998626708984,-16.68600082397461 58.189998626708984,-16.68600082397461 C58.189998626708984,-16.68600082397461 52.88999938964844,-6.14300012588501 52.88999938964844,-6.14300012588501 C51.729000091552734,-3.8340001106262207 51.935001373291016,-1.0720000267028809 53.42599868774414,1.0390000343322754 C53.42599868774414,1.0390000343322754 85.2509994506836,46.11600112915039 85.2509994506836,46.11600112915039 C88.8280029296875,51.18299865722656 84.53600311279297,58.05500030517578 78.41400146484375,57.06399917602539 C78.41400146484375,57.06399917602539 23.214000701904297,48.125999450683594 23.214000701904297,48.125999450683594 C20.76799964904785,47.72999954223633 18.29599952697754,48.65599822998047 16.711999893188477,50.56100082397461 C16.711999893188477,50.56100082397461 12.199999809265137,55.98899841308594 12.199999809265137,55.98899841308594 C12.199999809265137,55.98899841308594 -43.01300048828125,-27.041000366210938 -43.01300048828125,-27.041000366210938 C-43.01300048828125,-27.041000366210938 12.543000221252441,-49.584999084472656 12.543000221252441,-49.584999084472656z M-30.016000747680664,92.38700103759766 C-30.016000747680664,92.38700103759766 -39.26900100708008,32.722999572753906 -39.26900100708008,32.722999572753906 C-39.26900100708008,32.722999572753906 -43.25699996948242,-27.235000610351562 -43.25699996948242,-27.235000610351562 C-43.25699996948242,-27.235000610351562 -41.98500061035156,-87.5989990234375 -41.98500061035156,-87.5989990234375 C-41.85499954223633,-93.77400207519531 -34.374000549316406,-96.76699829101562 -30.020999908447266,-92.38600158691406 C-30.020999908447266,-92.38600158691406 12.53499984741211,-49.555999755859375 12.53499984741211,-49.555999755859375 C12.53499984741211,-49.555999755859375 18.98699951171875,47.45899963378906 18.98699951171875,47.45899963378906 C18.98699951171875,47.45899963378906 -17.523000717163086,95.5469970703125 -17.523000717163086,95.5469970703125 C-21.257999420166016,100.46600341796875 -29.069000244140625,98.48999786376953 -30.016000747680664,92.38700103759766z"></path></g></g><g style="display: block;" transform="matrix(0.5600285530090332,0.5600285530090332,-0.5600285530090332,0.5600285530090332,209.41542053222656,333.0830383300781)" opacity="1"><path fill="url(#__lottie_element_13782)" fill-opacity="1" d=" M-96.28600311279297,12.859999656677246 C-102.11799621582031,10.82800006866455 -102.65299987792969,2.7880001068115234 -97.14099884033203,0.0020000000949949026 C-97.14099884033203,0.0020000000949949026 -46.95000076293945,-25.368999481201172 -46.95000076293945,-25.368999481201172 C-44.672000885009766,-26.520000457763672 -43.20100021362305,-28.81999969482422 -43.11199951171875,-31.371000289916992 C-43.11199951171875,-31.371000289916992 -42.845001220703125,-39 -42.845001220703125,-39 C-42.845001220703125,-39 1.4989999532699585,-40.97999954223633 1.4989999532699585,-40.97999954223633 C3.2709999084472656,-41.058998107910156 4.946000099182129,-41.80799865722656 6.186999797821045,-43.07500076293945 C6.186999797821045,-43.07500076293945 12.53499984741211,-49.555999755859375 12.53499984741211,-49.555999755859375 C12.53499984741211,-49.555999755859375 5.656000137329102,-1.940999984741211 5.656000137329102,-1.940999984741211 C5.515999794006348,-0.9700000286102295 5.580999851226807,0.01899999938905239 5.8480000495910645,0.9629999995231628 C5.8480000495910645,0.9629999995231628 18.98699951171875,47.45899963378906 18.98699951171875,47.45899963378906 C18.98699951171875,47.45899963378906 11.276000022888184,41.560001373291016 11.276000022888184,41.560001373291016 C9.680999755859375,40.34000015258789 7.639999866485596,39.86399841308594 5.670000076293945,40.25199890136719 C5.670000076293945,40.25199890136719 -36.8129997253418,48.61800003051758 -36.8129997253418,48.61800003051758 C-36.8129997253418,48.61800003051758 -38.62699890136719,36.88100051879883 -38.62699890136719,36.88100051879883 C-39.02199935913086,34.323001861572266 -40.797000885009766,32.191001892089844 -43.242000579833984,31.339000701904297 C-43.242000579833984,31.339000701904297 -96.28600311279297,12.859999656677246 -96.28600311279297,12.859999656677246z M-30.016000747680664,92.38700103759766 C-30.016000747680664,92.38700103759766 -39.26900100708008,32.722999572753906 -39.26900100708008,32.722999572753906 C-39.26900100708008,32.722999572753906 -43.25699996948242,-27.235000610351562 -43.25699996948242,-27.235000610351562 C-43.25699996948242,-27.235000610351562 -41.98500061035156,-87.5989990234375 -41.98500061035156,-87.5989990234375 C-41.85499954223633,-93.77400207519531 -34.374000549316406,-96.76699829101562 -30.020999908447266,-92.38600158691406 C-30.020999908447266,-92.38600158691406 12.53499984741211,-49.555999755859375 12.53499984741211,-49.555999755859375 C12.53499984741211,-49.555999755859375 18.98699951171875,47.45899963378906 18.98699951171875,47.45899963378906 C18.98699951171875,47.45899963378906 -17.523000717163086,95.5469970703125 -17.523000717163086,95.5469970703125 C-21.257999420166016,100.46600341796875 -29.069000244140625,98.48999786376953 -30.016000747680664,92.38700103759766z"></path><g opacity="1" transform="matrix(1,0,0,1,0,0)"></g></g><g style="display: block;" transform="matrix(0.5600285530090332,0.5600285530090332,-0.5600285530090332,0.5600285530090332,209.41542053222656,333.0830383300781)" opacity="1"><path fill="url(#__lottie_element_13775)" fill-opacity="1" d=" M-1.5069999694824219,-63.6349983215332 C-1.5069999694824219,-63.6349983215332 9.572999954223633,-52.5260009765625 9.572999954223633,-52.5260009765625 C11.397000312805176,-50.696998596191406 14.079000473022461,-50.02199935913086 16.552000045776367,-50.768001556396484 C16.552000045776367,-50.768001556396484 70.46199798583984,-67.03700256347656 70.46199798583984,-67.03700256347656 C76.35700225830078,-68.81600189208984 81.51100158691406,-62.66600036621094 78.72899627685547,-57.17300033569336 C78.72899627685547,-57.17300033569336 51.00400161743164,-2.421999931335449 51.00400161743164,-2.421999931335449 C51.00400161743164,-2.421999931335449 -0.8429999947547913,8.553999900817871 -0.8429999947547913,8.553999900817871 C-0.8429999947547913,8.553999900817871 -1.5069999694824219,-63.6349983215332 -1.5069999694824219,-63.6349983215332z M12.543000221252441,-49.584999084472656 C12.543000221252441,-49.584999084472656 58.189998626708984,-16.68600082397461 58.189998626708984,-16.68600082397461 C58.189998626708984,-16.68600082397461 52.88999938964844,-6.14300012588501 52.88999938964844,-6.14300012588501 C51.729000091552734,-3.8340001106262207 51.935001373291016,-1.0720000267028809 53.42599868774414,1.0390000343322754 C53.42599868774414,1.0390000343322754 85.2509994506836,46.11600112915039 85.2509994506836,46.11600112915039 C88.8280029296875,51.18299865722656 84.53600311279297,58.05500030517578 78.41400146484375,57.06399917602539 C78.41400146484375,57.06399917602539 23.214000701904297,48.125999450683594 23.214000701904297,48.125999450683594 C20.76799964904785,47.72999954223633 18.29599952697754,48.65599822998047 16.711999893188477,50.56100082397461 C16.711999893188477,50.56100082397461 12.199999809265137,55.98899841308594 12.199999809265137,55.98899841308594 C12.199999809265137,55.98899841308594 -43.01300048828125,-27.041000366210938 -43.01300048828125,-27.041000366210938 C-43.01300048828125,-27.041000366210938 12.543000221252441,-49.584999084472656 12.543000221252441,-49.584999084472656z M-96.28600311279297,12.859999656677246 C-102.11799621582031,10.82800006866455 -102.65299987792969,2.7880001068115234 -97.14099884033203,0.0020000000949949026 C-97.14099884033203,0.0020000000949949026 -46.95000076293945,-25.368999481201172 -46.95000076293945,-25.368999481201172 C-44.672000885009766,-26.520000457763672 -43.20100021362305,-28.81999969482422 -43.11199951171875,-31.371000289916992 C-43.11199951171875,-31.371000289916992 -42.845001220703125,-39 -42.845001220703125,-39 C-42.845001220703125,-39 1.4989999532699585,-40.97999954223633 1.4989999532699585,-40.97999954223633 C3.2709999084472656,-41.058998107910156 4.946000099182129,-41.80799865722656 6.186999797821045,-43.07500076293945 C6.186999797821045,-43.07500076293945 12.53499984741211,-49.555999755859375 12.53499984741211,-49.555999755859375 C12.53499984741211,-49.555999755859375 5.656000137329102,-1.940999984741211 5.656000137329102,-1.940999984741211 C5.515999794006348,-0.9700000286102295 5.580999851226807,0.01899999938905239 5.8480000495910645,0.9629999995231628 C5.8480000495910645,0.9629999995231628 18.98699951171875,47.45899963378906 18.98699951171875,47.45899963378906 C18.98699951171875,47.45899963378906 11.276000022888184,41.560001373291016 11.276000022888184,41.560001373291016 C9.680999755859375,40.34000015258789 7.639999866485596,39.86399841308594 5.670000076293945,40.25199890136719 C5.670000076293945,40.25199890136719 -36.8129997253418,48.61800003051758 -36.8129997253418,48.61800003051758 C-36.8129997253418,48.61800003051758 -38.62699890136719,36.88100051879883 -38.62699890136719,36.88100051879883 C-39.02199935913086,34.323001861572266 -40.797000885009766,32.191001892089844 -43.242000579833984,31.339000701904297 C-43.242000579833984,31.339000701904297 -96.28600311279297,12.859999656677246 -96.28600311279297,12.859999656677246z M-30.016000747680664,92.38700103759766 C-30.016000747680664,92.38700103759766 -39.26900100708008,32.722999572753906 -39.26900100708008,32.722999572753906 C-39.26900100708008,32.722999572753906 -43.25699996948242,-27.235000610351562 -43.25699996948242,-27.235000610351562 C-43.25699996948242,-27.235000610351562 -41.98500061035156,-87.5989990234375 -41.98500061035156,-87.5989990234375 C-41.85499954223633,-93.77400207519531 -34.374000549316406,-96.76699829101562 -30.020999908447266,-92.38600158691406 C-30.020999908447266,-92.38600158691406 12.53499984741211,-49.555999755859375 12.53499984741211,-49.555999755859375 C12.53499984741211,-49.555999755859375 18.98699951171875,47.45899963378906 18.98699951171875,47.45899963378906 C18.98699951171875,47.45899963378906 -17.523000717163086,95.5469970703125 -17.523000717163086,95.5469970703125 C-21.257999420166016,100.46600341796875 -29.069000244140625,98.48999786376953 -30.016000747680664,92.38700103759766z"></path><path fill="url(#__lottie_element_13776)" mask="url(#__lottie_element_13778)" fill-opacity="1" d="M0 0 M-1.5069999694824219,-63.6349983215332 C-1.5069999694824219,-63.6349983215332 9.572999954223633,-52.5260009765625 9.572999954223633,-52.5260009765625 C11.397000312805176,-50.696998596191406 14.079000473022461,-50.02199935913086 16.552000045776367,-50.768001556396484 C16.552000045776367,-50.768001556396484 70.46199798583984,-67.03700256347656 70.46199798583984,-67.03700256347656 C76.35700225830078,-68.81600189208984 81.51100158691406,-62.66600036621094 78.72899627685547,-57.17300033569336 C78.72899627685547,-57.17300033569336 51.00400161743164,-2.421999931335449 51.00400161743164,-2.421999931335449 C51.00400161743164,-2.421999931335449 -0.8429999947547913,8.553999900817871 -0.8429999947547913,8.553999900817871 C-0.8429999947547913,8.553999900817871 -1.5069999694824219,-63.6349983215332 -1.5069999694824219,-63.6349983215332z M12.543000221252441,-49.584999084472656 C12.543000221252441,-49.584999084472656 58.189998626708984,-16.68600082397461 58.189998626708984,-16.68600082397461 C58.189998626708984,-16.68600082397461 52.88999938964844,-6.14300012588501 52.88999938964844,-6.14300012588501 C51.729000091552734,-3.8340001106262207 51.935001373291016,-1.0720000267028809 53.42599868774414,1.0390000343322754 C53.42599868774414,1.0390000343322754 85.2509994506836,46.11600112915039 85.2509994506836,46.11600112915039 C88.8280029296875,51.18299865722656 84.53600311279297,58.05500030517578 78.41400146484375,57.06399917602539 C78.41400146484375,57.06399917602539 23.214000701904297,48.125999450683594 23.214000701904297,48.125999450683594 C20.76799964904785,47.72999954223633 18.29599952697754,48.65599822998047 16.711999893188477,50.56100082397461 C16.711999893188477,50.56100082397461 12.199999809265137,55.98899841308594 12.199999809265137,55.98899841308594 C12.199999809265137,55.98899841308594 -43.01300048828125,-27.041000366210938 -43.01300048828125,-27.041000366210938 C-43.01300048828125,-27.041000366210938 12.543000221252441,-49.584999084472656 12.543000221252441,-49.584999084472656z M-96.28600311279297,12.859999656677246 C-102.11799621582031,10.82800006866455 -102.65299987792969,2.7880001068115234 -97.14099884033203,0.0020000000949949026 C-97.14099884033203,0.0020000000949949026 -46.95000076293945,-25.368999481201172 -46.95000076293945,-25.368999481201172 C-44.672000885009766,-26.520000457763672 -43.20100021362305,-28.81999969482422 -43.11199951171875,-31.371000289916992 C-43.11199951171875,-31.371000289916992 -42.845001220703125,-39 -42.845001220703125,-39 C-42.845001220703125,-39 1.4989999532699585,-40.97999954223633 1.4989999532699585,-40.97999954223633 C3.2709999084472656,-41.058998107910156 4.946000099182129,-41.80799865722656 6.186999797821045,-43.07500076293945 C6.186999797821045,-43.07500076293945 12.53499984741211,-49.555999755859375 12.53499984741211,-49.555999755859375 C12.53499984741211,-49.555999755859375 5.656000137329102,-1.940999984741211 5.656000137329102,-1.940999984741211 C5.515999794006348,-0.9700000286102295 5.580999851226807,0.01899999938905239 5.8480000495910645,0.9629999995231628 C5.8480000495910645,0.9629999995231628 18.98699951171875,47.45899963378906 18.98699951171875,47.45899963378906 C18.98699951171875,47.45899963378906 11.276000022888184,41.560001373291016 11.276000022888184,41.560001373291016 C9.680999755859375,40.34000015258789 7.639999866485596,39.86399841308594 5.670000076293945,40.25199890136719 C5.670000076293945,40.25199890136719 -36.8129997253418,48.61800003051758 -36.8129997253418,48.61800003051758 C-36.8129997253418,48.61800003051758 -38.62699890136719,36.88100051879883 -38.62699890136719,36.88100051879883 C-39.02199935913086,34.323001861572266 -40.797000885009766,32.191001892089844 -43.242000579833984,31.339000701904297 C-43.242000579833984,31.339000701904297 -96.28600311279297,12.859999656677246 -96.28600311279297,12.859999656677246z M-30.016000747680664,92.38700103759766 C-30.016000747680664,92.38700103759766 -39.26900100708008,32.722999572753906 -39.26900100708008,32.722999572753906 C-39.26900100708008,32.722999572753906 -43.25699996948242,-27.235000610351562 -43.25699996948242,-27.235000610351562 C-43.25699996948242,-27.235000610351562 -41.98500061035156,-87.5989990234375 -41.98500061035156,-87.5989990234375 C-41.85499954223633,-93.77400207519531 -34.374000549316406,-96.76699829101562 -30.020999908447266,-92.38600158691406 C-30.020999908447266,-92.38600158691406 12.53499984741211,-49.555999755859375 12.53499984741211,-49.555999755859375 C12.53499984741211,-49.555999755859375 18.98699951171875,47.45899963378906 18.98699951171875,47.45899963378906 C18.98699951171875,47.45899963378906 -17.523000717163086,95.5469970703125 -17.523000717163086,95.5469970703125 C-21.257999420166016,100.46600341796875 -29.069000244140625,98.48999786376953 -30.016000747680664,92.38700103759766z"></path><g opacity="1" transform="matrix(1,0,0,1,0,0)"></g></g><g style="display: block;" transform="matrix(0.5600285530090332,0.5600285530090332,-0.5600285530090332,0.5600285530090332,209.41542053222656,333.0830383300781)" opacity="1"><path fill="url(#__lottie_element_13769)" mask="url(#__lottie_element_13771)" fill-opacity="1" d="M0 0 M-96.28600311279297,12.859999656677246 C-102.11799621582031,10.82800006866455 -102.65299987792969,2.7880001068115234 -97.14099884033203,0.0020000000949949026 C-97.14099884033203,0.0020000000949949026 -46.95000076293945,-25.368999481201172 -46.95000076293945,-25.368999481201172 C-44.672000885009766,-26.520000457763672 -43.20100021362305,-28.81999969482422 -43.11199951171875,-31.371000289916992 C-43.11199951171875,-31.371000289916992 -42.845001220703125,-39 -42.845001220703125,-39 C-42.845001220703125,-39 1.4989999532699585,-40.97999954223633 1.4989999532699585,-40.97999954223633 C3.2709999084472656,-41.058998107910156 4.946000099182129,-41.80799865722656 6.186999797821045,-43.07500076293945 C6.186999797821045,-43.07500076293945 12.53499984741211,-49.555999755859375 12.53499984741211,-49.555999755859375 C12.53499984741211,-49.555999755859375 5.656000137329102,-1.940999984741211 5.656000137329102,-1.940999984741211 C5.515999794006348,-0.9700000286102295 5.580999851226807,0.01899999938905239 5.8480000495910645,0.9629999995231628 C5.8480000495910645,0.9629999995231628 18.98699951171875,47.45899963378906 18.98699951171875,47.45899963378906 C18.98699951171875,47.45899963378906 11.276000022888184,41.560001373291016 11.276000022888184,41.560001373291016 C9.680999755859375,40.34000015258789 7.639999866485596,39.86399841308594 5.670000076293945,40.25199890136719 C5.670000076293945,40.25199890136719 -36.8129997253418,48.61800003051758 -36.8129997253418,48.61800003051758 C-36.8129997253418,48.61800003051758 -38.62699890136719,36.88100051879883 -38.62699890136719,36.88100051879883 C-39.02199935913086,34.323001861572266 -40.797000885009766,32.191001892089844 -43.242000579833984,31.339000701904297 C-43.242000579833984,31.339000701904297 -96.28600311279297,12.859999656677246 -96.28600311279297,12.859999656677246z M-30.016000747680664,92.38700103759766 C-30.016000747680664,92.38700103759766 -39.26900100708008,32.722999572753906 -39.26900100708008,32.722999572753906 C-39.26900100708008,32.722999572753906 -43.25699996948242,-27.235000610351562 -43.25699996948242,-27.235000610351562 C-43.25699996948242,-27.235000610351562 -41.98500061035156,-87.5989990234375 -41.98500061035156,-87.5989990234375 C-41.85499954223633,-93.77400207519531 -34.374000549316406,-96.76699829101562 -30.020999908447266,-92.38600158691406 C-30.020999908447266,-92.38600158691406 12.53499984741211,-49.555999755859375 12.53499984741211,-49.555999755859375 C12.53499984741211,-49.555999755859375 18.98699951171875,47.45899963378906 18.98699951171875,47.45899963378906 C18.98699951171875,47.45899963378906 -17.523000717163086,95.5469970703125 -17.523000717163086,95.5469970703125 C-21.257999420166016,100.46600341796875 -29.069000244140625,98.48999786376953 -30.016000747680664,92.38700103759766z"></path><g opacity="1" transform="matrix(1,0,0,1,0,0)"></g></g><g style="display: none;"><g><path fill="url(#__lottie_element_13765)"></path></g></g></g></svg>