<svg xmlns="http://www.w3.org/2000/svg" viewBox="0 0 512 512" width="512" height="512" style="width: 100%; height: 100%; transform: translate3d(0,0,0);" preserveAspectRatio="xMidYMid meet"><defs><clipPath id="__lottie_element_13860"><rect width="512" height="512" x="0" y="0"></rect></clipPath><radialGradient id="__lottie_element_13865" spreadMethod="pad" gradientUnits="userSpaceOnUse" cx="544" cy="-30.719999313354492" r="32.10407195237666" fx="544" fy="-30.719999313354492"><stop offset="0%" stop-color="rgb(153,2,33)"></stop><stop offset="58%" stop-color="rgb(113,4,26)"></stop><stop offset="100%" stop-color="rgb(74,5,19)"></stop></radialGradient><linearGradient id="__lottie_element_13883" spreadMethod="pad" gradientUnits="userSpaceOnUse" x1="552" y1="-26" x2="686.2769775390625" y2="-142.52099609375"><stop offset="0%" stop-color="rgb(107,8,22)"></stop><stop offset="14%" stop-color="rgb(168,23,42)"></stop><stop offset="30%" stop-color="rgb(229,39,61)"></stop><stop offset="46%" stop-color="rgb(242,75,108)"></stop><stop offset="69%" stop-color="rgb(255,112,154)"></stop><stop offset="90%" stop-color="rgb(236,70,110)"></stop><stop offset="100%" stop-color="rgb(218,29,66)"></stop></linearGradient><linearGradient id="__lottie_element_13887" spreadMethod="pad" gradientUnits="userSpaceOnUse" x1="554" y1="-15" x2="476.2090148925781" y2="-179.36500549316406"><stop offset="0%" stop-color="rgb(107,8,22)"></stop><stop offset="14%" stop-color="rgb(168,23,42)"></stop><stop offset="30%" stop-color="rgb(229,39,61)"></stop><stop offset="46%" stop-color="rgb(242,75,108)"></stop><stop offset="69%" stop-color="rgb(255,112,154)"></stop><stop offset="90%" stop-color="rgb(236,70,110)"></stop><stop offset="100%" stop-color="rgb(218,29,66)"></stop></linearGradient><linearGradient id="__lottie_element_13891" spreadMethod="pad" gradientUnits="userSpaceOnUse" x1="557" y1="-21" x2="350.57501220703125" y2="-2.2339999675750732"><stop offset="0%" stop-color="rgb(107,8,22)"></stop><stop offset="14%" stop-color="rgb(168,23,42)"></stop><stop offset="30%" stop-color="rgb(229,39,61)"></stop><stop offset="46%" stop-color="rgb(242,75,108)"></stop><stop offset="69%" stop-color="rgb(255,112,154)"></stop><stop offset="90%" stop-color="rgb(236,70,110)"></stop><stop offset="100%" stop-color="rgb(218,29,66)"></stop></linearGradient><linearGradient id="__lottie_element_13895" spreadMethod="pad" gradientUnits="userSpaceOnUse" x1="522" y1="-13" x2="531.7059936523438" y2="168.63499450683594"><stop offset="0%" stop-color="rgb(107,8,22)"></stop><stop offset="14%" stop-color="rgb(168,23,42)"></stop><stop offset="30%" stop-color="rgb(229,39,61)"></stop><stop offset="46%" stop-color="rgb(242,75,108)"></stop><stop offset="69%" stop-color="rgb(255,112,154)"></stop><stop offset="90%" stop-color="rgb(236,70,110)"></stop><stop offset="100%" stop-color="rgb(218,29,66)"></stop></linearGradient><linearGradient id="__lottie_element_13899" spreadMethod="pad" gradientUnits="userSpaceOnUse" x1="595" y1="-35" x2="708.2780151367188" y2="93.0999984741211"><stop offset="0%" stop-color="rgb(107,8,22)"></stop><stop offset="14%" stop-color="rgb(168,23,42)"></stop><stop offset="30%" stop-color="rgb(229,39,61)"></stop><stop offset="46%" stop-color="rgb(242,75,108)"></stop><stop offset="69%" stop-color="rgb(255,112,154)"></stop><stop offset="90%" stop-color="rgb(236,70,110)"></stop><stop offset="100%" stop-color="rgb(218,29,66)"></stop></linearGradient><linearGradient id="__lottie_element_13906" spreadMethod="pad" gradientUnits="userSpaceOnUse"><stop></stop><stop></stop><stop></stop><stop></stop><stop></stop></linearGradient><linearGradient id="__lottie_element_13910" spreadMethod="pad" gradientUnits="userSpaceOnUse"><stop></stop><stop></stop><stop></stop><stop></stop><stop></stop></linearGradient><linearGradient id="__lottie_element_13914" spreadMethod="pad" gradientUnits="userSpaceOnUse"><stop></stop><stop></stop><stop></stop><stop></stop><stop></stop></linearGradient><radialGradient id="__lottie_element_13918" spreadMethod="pad" gradientUnits="userSpaceOnUse"><stop></stop><stop></stop><stop></stop></radialGradient><linearGradient id="__lottie_element_13922" spreadMethod="pad" gradientUnits="userSpaceOnUse" x1="431" y1="103" x2="410.1199951171875" y2="179.8070068359375"><stop offset="29%" stop-color="rgb(157,192,101)"></stop><stop offset="73%" stop-color="rgb(118,165,50)"></stop><stop offset="100%" stop-color="rgb(78,139,0)"></stop></linearGradient><linearGradient id="__lottie_element_13926" spreadMethod="pad" gradientUnits="userSpaceOnUse" x1="664" y1="133" x2="660.77099609375" y2="185.20899963378906"><stop offset="17%" stop-color="rgb(157,192,101)"></stop><stop offset="69%" stop-color="rgb(118,165,50)"></stop><stop offset="100%" stop-color="rgb(78,139,0)"></stop></linearGradient></defs><g clip-path="url(#__lottie_element_13860)"><g style="display: block;" transform="matrix(1,0,0,1,-296,212)" opacity="1"><g opacity="1" transform="matrix(1,0,0,1,0,0)"><path fill="url(#__lottie_element_13926)" fill-opacity="1" d=" M629.052001953125,78.81700134277344 C601.0800170898438,83.34300231933594 594.0349731445312,136.71499633789062 630.8079833984375,169.16099548339844 C649.833984375,185.947998046875 672.2130126953125,186.76499938964844 683.8699951171875,194.47500610351562 C686.114013671875,195.95899963378906 686.3040161132812,190.07200622558594 686.3040161132812,190.07200622558594 C686.3040161132812,190.07200622558594 693.3809814453125,194.00999450683594 699.7219848632812,199.7169952392578 C701.8189697265625,201.60400390625 701.8189697265625,193.63600158691406 701.8189697265625,193.63600158691406 C701.8189697265625,193.63600158691406 709.7860107421875,198.8780059814453 713.77001953125,204.1199951171875 C713.77001953125,204.1199951171875 721.1060180664062,191.18099975585938 718.7579956054688,172.01400756835938 C718.7579956054688,172.01400756835938 720.6309814453125,173.73300170898438 722.27197265625,173.11700439453125 C723.9130249023438,172.5019989013672 722.8870239257812,161.4219970703125 719.1939697265625,155.26600646972656 C719.1939697265625,155.26600646972656 722.7210083007812,155.4709930419922 724.0960083007812,154.0959930419922 C725.4710083007812,152.7209930419922 706.666015625,66.25800323486328 629.052001953125,78.81700134277344z"></path></g><g opacity="0.15" transform="matrix(1,0,0,1,0,0)"><path stroke-linecap="round" stroke-linejoin="round" fill-opacity="0" stroke="rgb(57,94,5)" stroke-opacity="1" stroke-width="3" d=" M701.8189697265625,193.63600158691406 C701.8189697265625,193.63600158691406 703.9030151367188,183.427001953125 703.9030151367188,173.74400329589844 C703.9030151367188,173.74400329589844 711.4310302734375,178.38900756835938 718.5989990234375,188.2480010986328"></path></g><g opacity="0.15" transform="matrix(1,0,0,1,0,0)"><path stroke-linecap="round" stroke-linejoin="round" fill-opacity="0" stroke="rgb(57,94,5)" stroke-opacity="1" stroke-width="3" d=" M695.22998046875,196.01699829101562 C695.22998046875,196.01699829101562 698.7169799804688,167.5229949951172 695.22998046875,157.5019989013672 C695.22998046875,157.5019989013672 705.5009765625,160.28900146484375 718.7579956054688,172.01400756835938"></path></g><g opacity="0.15" transform="matrix(1,0,0,1,0,0)"><path stroke-linecap="round" stroke-linejoin="round" fill-opacity="0" stroke="rgb(57,94,5)" stroke-opacity="1" stroke-width="3" d=" M719.1939697265625,155.26600646972656 C719.1939697265625,155.26600646972656 705.1530151367188,142.82200622558594 683.6010131835938,139.07400512695312 C683.6010131835938,139.07400512695312 688.6950073242188,164.23300170898438 686.3040161132812,190.07200622558594"></path></g><g opacity="0.15" transform="matrix(1,0,0,1,0,0)"><path stroke-linecap="round" stroke-linejoin="round" fill-opacity="0" stroke="rgb(57,94,5)" stroke-opacity="1" stroke-width="3" d=" M673.2030029296875,189.58099365234375 C673.2030029296875,189.58099365234375 671.5040283203125,139.07400512695312 660.2169799804688,113.14900207519531 C660.2169799804688,113.14900207519531 699.1630249023438,120.97000122070312 722.9290161132812,147.2010040283203"></path></g><g opacity="0.15" transform="matrix(1,0,0,1,0,0)"><path stroke-linecap="round" stroke-linejoin="round" fill-opacity="0" stroke="rgb(57,94,5)" stroke-opacity="1" stroke-width="3" d=" M658.802001953125,184.76499938964844 C658.802001953125,184.76499938964844 653.927001953125,126.89199829101562 642.9949951171875,100.96700286865234 C642.9949951171875,100.96700286865234 680.5330200195312,100.61100006103516 713.77001953125,123.74700164794922"></path></g><g opacity="0.15" transform="matrix(1,0,0,1,0,0)"><path stroke-linecap="round" stroke-linejoin="round" fill-opacity="0" stroke="rgb(57,94,5)" stroke-opacity="1" stroke-width="3" d=" M639.6749877929688,175.79299926757812 C639.6749877929688,175.79299926757812 637.6669921875,132.48800659179688 628.5360107421875,95.0510025024414 C628.5360107421875,95.0510025024414 653.114990234375,81.70999908447266 695.22998046875,98.30500030517578"></path></g><g opacity="0.15" transform="matrix(1,0,0,1,0,0)"><path stroke-linecap="round" stroke-linejoin="round" fill-opacity="0" stroke="rgb(57,94,5)" stroke-opacity="1" stroke-width="3" d=" M622.1749877929688,159.04299926757812 C622.1749877929688,159.04299926757812 621.25,118.5 616.5360107421875,87.0510025024414"></path></g><g opacity="0.5" transform="matrix(1,0,0,1,0,0)"><path fill="rgb(57,94,5)" fill-opacity="1" d=" M724.0980224609375,154.09500122070312 C724.0980224609375,154.09500122070312 715.1209716796875,131.55499267578125 701.3980102539062,133.34500122070312 C682.8590087890625,135.76300048828125 703.6669921875,171.16700744628906 703.6669921875,171.16700744628906 C703.6669921875,171.16700744628906 687.676025390625,146.72500610351562 664.8880004882812,143.2050018310547 C636.791015625,138.86500549316406 618.2689819335938,145.02999877929688 630.8079833984375,169.1649932861328 C594.0380249023438,136.71499633789062 601.0780029296875,83.34500122070312 629.0479736328125,78.81500244140625 C705.3790283203125,66.45999908447266 724.0980224609375,154.09500122070312 724.0980224609375,154.09500122070312z"></path></g><g opacity="1" transform="matrix(1,0,0,1,0,0)"><path fill="rgb(74,115,25)" fill-opacity="1" d=" M713.77001953125,204.1199951171875 C713.77001953125,204.1199951171875 715.8889770507812,152 628.5,81.16699981689453 C628.5,81.16699981689453 617.8330078125,87.5 617.8330078125,87.5 C617.8330078125,87.5 695.8889770507812,133 713.77001953125,204.1199951171875z"></path></g><g opacity="1" transform="matrix(1,0,0,1,0,0)"><path stroke-linecap="round" stroke-linejoin="round" fill-opacity="0" stroke="rgb(59,104,0)" stroke-opacity="1" stroke-width="8" d=" M629.052001953125,78.81700134277344 C601.0800170898438,83.34300231933594 594.0349731445312,136.71499633789062 630.8079833984375,169.16099548339844 C649.833984375,185.947998046875 672.2130126953125,186.76499938964844 683.8699951171875,194.47500610351562 C686.114013671875,195.95899963378906 686.3040161132812,190.07200622558594 686.3040161132812,190.07200622558594 C686.3040161132812,190.07200622558594 693.3809814453125,194.00999450683594 699.7219848632812,199.7169952392578 C701.8189697265625,201.60400390625 701.8189697265625,193.63600158691406 701.8189697265625,193.63600158691406 C701.8189697265625,193.63600158691406 709.7860107421875,198.8780059814453 713.77001953125,204.1199951171875 C713.77001953125,204.1199951171875 721.1060180664062,191.18099975585938 718.7579956054688,172.01400756835938 C718.7579956054688,172.01400756835938 720.6309814453125,173.73300170898438 722.27197265625,173.11700439453125 C723.9130249023438,172.5019989013672 722.8870239257812,161.4219970703125 719.1939697265625,155.26600646972656 C719.1939697265625,155.26600646972656 722.7210083007812,155.4709930419922 724.0960083007812,154.0959930419922 C725.4710083007812,152.7209930419922 706.666015625,66.25800323486328 629.052001953125,78.81700134277344z"></path></g><g opacity="1" transform="matrix(1,0,0,1,0,0)"><path stroke-linecap="round" stroke-linejoin="round" fill-opacity="0" stroke="rgb(51,84,0)" stroke-opacity="1" stroke-width="8" d=" M629.052001953125,78.81700134277344 C601.0800170898438,83.34300231933594 594.0349731445312,136.71499633789062 630.8079833984375,169.16099548339844 C649.833984375,185.947998046875 672.2130126953125,186.76499938964844 683.8699951171875,194.47500610351562 C686.114013671875,195.95899963378906 686.3040161132812,190.07200622558594 686.3040161132812,190.07200622558594 C686.3040161132812,190.07200622558594 693.3809814453125,194.00999450683594 699.7219848632812,199.7169952392578 C701.8189697265625,201.60400390625 701.8189697265625,193.63600158691406 701.8189697265625,193.63600158691406 C701.8189697265625,193.63600158691406 709.7230224609375,198.83599853515625 713.7219848632812,204.0570068359375"></path></g></g><g style="display: block;" transform="matrix(1,0,0,1,-296,211.99998474121094)" opacity="1"><g opacity="1" transform="matrix(1,0,0,1,0,0)"><path fill="url(#__lottie_element_13922)" fill-opacity="1" d=" M358.6000061035156,143.322998046875 C348.2640075683594,166.58900451660156 355.7699890136719,163.66799926757812 355.7699890136719,163.66799926757812 C353.0450134277344,179.6790008544922 355.218994140625,190.41900634765625 355.218994140625,190.41900634765625 C365.4670104980469,183.968994140625 370.6510009765625,182.68299865722656 370.6510009765625,182.68299865722656 C368.89599609375,194.08700561523438 387.89599609375,181.54200744628906 387.89599609375,181.54200744628906 C383.510009765625,190.7530059814453 400.28900146484375,182.58999633789062 409.4169921875,180.22900390625 C498.8429870605469,157.1020050048828 533.0430297851562,60.27799987792969 461.41900634765625,60.486000061035156 C439.0580139160156,60.55099868774414 378.468994140625,57.66699981689453 357.0169982910156,133.3419952392578 C354.7919921875,141.18899536132812 358.6000061035156,143.322998046875 358.6000061035156,143.322998046875z"></path></g><g opacity="0.5" transform="matrix(1,0,0,1,0,0)"><path fill="rgb(57,94,5)" fill-opacity="1" d=" M391.239013671875,182.68299865722656 C415,172.83399963378906 442.1669921875,138.5 417,131.66700744628906 C403.5459899902344,128.01400756835938 386.49700927734375,141.30799865722656 373.8659973144531,161.5970001220703 C386.8009948730469,140.82000732421875 413.84698486328125,109.85800170898438 423.5769958496094,97.95800018310547 C434.5169982910156,84.5979995727539 376.52899169921875,72.1500015258789 358.5979919433594,143.3249969482422 C357,113.66600036621094 381.39801025390625,60.4119987487793 460,59.33300018310547 C532.8330078125,58.33300018310547 502.8330078125,168.83399963378906 391.239013671875,182.68299865722656z"></path></g><g opacity="0.2" transform="matrix(1,0,0,1,0,0)"><path stroke-linecap="round" stroke-linejoin="round" fill-opacity="0" stroke="rgb(57,94,5)" stroke-opacity="1" stroke-width="3" d=" M453.28399658203125,161.48699951171875 C453.28399658203125,161.48699951171875 471.4010009765625,111.3550033569336 494.843994140625,76.84400177001953"></path></g><g opacity="0.2" transform="matrix(1,0,0,1,0,0)"><path stroke-linecap="round" stroke-linejoin="round" fill-opacity="0" stroke="rgb(57,94,5)" stroke-opacity="1" stroke-width="3" d=" M431.35198974609375,172.67599487304688 C431.35198974609375,172.67599487304688 447.56500244140625,108.08799743652344 478.4110107421875,74.72899627685547 C478.4110107421875,74.72899627685547 433.5,62.492000579833984 397.05999755859375,74.72899627685547"></path></g><g opacity="0.15" transform="matrix(1,0,0,1,0,0)"><path stroke-linecap="round" stroke-linejoin="round" fill-opacity="0" stroke="rgb(57,94,5)" stroke-opacity="1" stroke-width="3" d=" M413.1910095214844,179.197998046875 C413.1910095214844,179.197998046875 425.71600341796875,123.08699798583984 452.156005859375,86.47799682617188 C452.156005859375,86.47799682617188 407.9360046386719,75.44400024414062 371.67498779296875,100.0790023803711"></path></g><g opacity="0.15" transform="matrix(1,0,0,1,0,0)"><path stroke-linecap="round" stroke-linejoin="round" fill-opacity="0" stroke="rgb(57,94,5)" stroke-opacity="1" stroke-width="3" d=" M398.49798583984375,183.76699829101562 C398.49798583984375,183.76699829101562 409.2409973144531,140.08099365234375 427.6679992675781,103.37200164794922 C427.6679992675781,103.37200164794922 390.843994140625,101.98500061035156 358.8269958496094,127.427001953125"></path></g><g opacity="0.15" transform="matrix(1,0,0,1,0,0)"><path stroke-linecap="round" stroke-linejoin="round" fill-opacity="0" stroke="rgb(57,94,5)" stroke-opacity="1" stroke-width="3" d=" M356.7449951171875,140.68099975585938 C356.7449951171875,140.68099975585938 375.6619873046875,128.41099548339844 406.6289978027344,120.98300170898438 C406.6289978027344,120.98300170898438 394.11700439453125,142.4949951171875 383.27301025390625,184.2469940185547"></path></g><g opacity="0.15" transform="matrix(1,0,0,1,0,0)"><path stroke-linecap="round" stroke-linejoin="round" fill-opacity="0" stroke="rgb(57,94,5)" stroke-opacity="1" stroke-width="3" d=" M370.6510009765625,182.68299865722656 C370.6510009765625,182.68299865722656 378.406005859375,161.8800048828125 384.7929992675781,145.41900634765625 C384.7929992675781,145.41900634765625 367.2959899902344,150.55599975585938 355.7699890136719,163.66799926757812"></path></g><g opacity="1" transform="matrix(1,0,0,1,0,0)"><path fill="rgb(74,115,25)" fill-opacity="1" d=" M492.5090026855469,71.06900024414062 C399.5270080566406,90.52799987792969 355.218994140625,190.41900634765625 355.218994140625,190.41900634765625 C355.218994140625,190.41900634765625 401.9410095214844,98.19200134277344 497.9679870605469,74.81600189208984 C497.9679870605469,74.81600189208984 492.5090026855469,71.06900024414062 492.5090026855469,71.06900024414062z"></path></g><g opacity="1" transform="matrix(1,0,0,1,0,0)"><path stroke-linecap="round" stroke-linejoin="round" fill-opacity="0" stroke="rgb(59,104,0)" stroke-opacity="1" stroke-width="8" d=" M358.6000061035156,143.322998046875 C348.2640075683594,166.58900451660156 355.7699890136719,163.66799926757812 355.7699890136719,163.66799926757812 C353.0450134277344,179.6790008544922 355.218994140625,190.41900634765625 355.218994140625,190.41900634765625 C365.4670104980469,183.968994140625 370.6510009765625,182.68299865722656 370.6510009765625,182.68299865722656 C368.89599609375,194.08700561523438 387.89599609375,181.54200744628906 387.89599609375,181.54200744628906 C383.510009765625,190.7530059814453 400.28900146484375,182.58999633789062 409.4169921875,180.22900390625 C498.8429870605469,157.1020050048828 533.0430297851562,60.27799987792969 461.41900634765625,60.486000061035156 C439.0580139160156,60.55099868774414 378.468994140625,57.66699981689453 357.0169982910156,133.3419952392578 C354.7919921875,141.18899536132812 358.6000061035156,143.322998046875 358.6000061035156,143.322998046875z"></path></g><g opacity="1" transform="matrix(1,0,0,1,0,0)"><path stroke-linecap="round" stroke-linejoin="round" fill-opacity="0" stroke="rgb(51,84,0)" stroke-opacity="1" stroke-width="8" d=" M355.4939880371094,190.2469940185547 C365.55999755859375,183.9459991455078 370.6510009765625,182.68299865722656 370.6510009765625,182.68299865722656 C368.89599609375,194.08700561523438 387.89599609375,181.54200744628906 387.89599609375,181.54200744628906 C383.510009765625,190.7530059814453 400.28900146484375,182.58999633789062 409.4169921875,180.22900390625 C498.5690002441406,157.17300415039062 532.8330078125,60.869998931884766 462.0740051269531,60.48699951171875"></path></g></g><g style="display: none;"><g><path stroke-linecap="butt" stroke-linejoin="miter" fill-opacity="0" stroke-miterlimit="4"></path><path fill="url(#__lottie_element_13918)"></path></g><g><path></path></g></g><g style="display: none;"><g><path stroke-linecap="butt" stroke-linejoin="miter" fill-opacity="0" stroke-miterlimit="4"></path><path fill="url(#__lottie_element_13914)"></path></g><g><path stroke-linecap="round" stroke-linejoin="round" fill-opacity="0"></path></g><g><path stroke-linecap="round" stroke-linejoin="round" fill-opacity="0"></path></g><g><path stroke-linecap="round" stroke-linejoin="round" fill-opacity="0"></path></g><g><path stroke-linecap="round" stroke-linejoin="round" fill-opacity="0"></path></g></g><g style="display: none;"><g><path fill="url(#__lottie_element_13910)"></path></g><g><path stroke-linecap="round" stroke-linejoin="round" fill-opacity="0"></path></g><g><path stroke-linecap="round" stroke-linejoin="round" fill-opacity="0"></path></g><g><path stroke-linecap="round" stroke-linejoin="round" fill-opacity="0"></path></g><g><path stroke-linecap="round" stroke-linejoin="round" fill-opacity="0"></path></g></g><g style="display: none;"><g><path fill="url(#__lottie_element_13906)"></path></g><g><path stroke-linecap="round" stroke-linejoin="round" fill-opacity="0"></path></g><g><path stroke-linecap="round" stroke-linejoin="round" fill-opacity="0"></path></g><g><path stroke-linecap="round" stroke-linejoin="round" fill-opacity="0"></path></g><g><path stroke-linecap="round" stroke-linejoin="round" fill-opacity="0"></path></g><g><path stroke-linecap="round" stroke-linejoin="round" fill-opacity="0"></path></g><g><path stroke-linecap="round" stroke-linejoin="round" fill-opacity="0"></path></g><g><path stroke-linecap="round" stroke-linejoin="round" fill-opacity="0"></path></g></g><g style="display: block;" transform="matrix(0.5,0,0,0.5,247.5,190)" opacity="1"><g opacity="0" transform="matrix(1,0,0,1,0,0)"><path fill="rgb(97,0,20)" fill-opacity="1" d=" M160.98599243164062,58.986000061035156 C90.00900268554688,97.67900085449219 -66.14299774169922,85.34500122070312 -117.81099700927734,86.25599670410156 C-101.10800170898438,84.35099792480469 -89.68900299072266,115.90499877929688 -83.81099700927734,137.45899963378906 C-77.5,153.5 -70.5,189.5 -48.404998779296875,187.18899536132812 C-46.5,178.5 -42.077999114990234,168.0449981689453 -29.972000122070312,189.16799926757812 C17.5,272 118,141 124.2699966430664,171.01300048828125 C126.5,165.5 140,165.5 145.22999572753906,132.593994140625 C152.5,99.5 150,75 160.98599243164062,58.986000061035156z"></path></g><g opacity="0" transform="matrix(1,0,0,1,0,0)"><path fill="rgb(70,0,14)" fill-opacity="1" d=" M-62.073001861572266,186.79600524902344 C-54.8380012512207,218.2010040283203 -37.32699966430664,224.95700073242188 -26.82699966430664,224.45700073242188 C-0.8270000219345093,249.95700073242188 70.57499694824219,248.54299926757812 104.89299774169922,216.25399780273438 C124.95700073242188,212.41299438476562 141,183.5 141.13699340820312,160.22000122070312 C137,171 126,178 121.97699737548828,181.6699981689453 C116.5469970703125,186.62399291992188 109.19400024414062,184.59300231933594 103.86000061035156,191.27499389648438 C94.5,203 15.5,229 -20.009000778198242,210.58200073242188 C-28.867000579833984,205.98699951171875 -39.0620002746582,205.33299255371094 -41.402000427246094,202.86000061035156 C-46,198 -52.5,194 -62.073001861572266,186.79600524902344z"></path></g></g><g style="display: block;" transform="matrix(1,0,0,1,-295.9999694824219,212)" opacity="1"><g opacity="1" transform="matrix(1,0,0,1,0,0)"><path fill="url(#__lottie_element_13899)" fill-opacity="1" d=" M566.6719970703125,11.944999694824219 C570.4829711914062,-18.43600082397461 597.06298828125,-35.79999923706055 629.7319946289062,-40.119998931884766 C665.5640258789062,-44.858001708984375 721.5570068359375,-35.28099822998047 734.2369995117188,6.985000133514404 C736.1259765625,13.281000137329102 759.0269775390625,33.27799987792969 752.6420288085938,74.72899627685547 C749.989013671875,91.9540023803711 733.72900390625,115.37000274658203 708.4520263671875,118.53199768066406 C704.2109985351562,119.06199645996094 667.739013671875,151.44200134277344 622.0850219726562,118.7509994506836"></path></g><g opacity="1" transform="matrix(1,0,0,1,0,0)"><path fill="rgb(255,39,86)" fill-opacity="1" d=" M752.6380004882812,74.7249984741211 C750.1279907226562,91.9749984741211 737.1890258789062,113.14800262451172 708.447998046875,118.53500366210938 C705.0999755859375,119.16200256347656 681.5,139.5 648.5250244140625,131.39999389648438 C682,125 698.468017578125,111.01499938964844 701.3980102539062,109.6449966430664 C704.3280029296875,108.28500366210938 722.7589721679688,107.05699920654297 732.9219970703125,89.7490005493164 C753.7630004882812,54.25400161743164 726.9580078125,21.735000610351562 723.1680297851562,11.725000381469727 C719.3779907226562,1.715000033378601 713.1480102539062,-19.799999237060547 664.8880004882812,-30.9950008392334 C639,-37 621.5,-34.5 598.3480224609375,-28.864999771118164 C606.5,-34.5 698,-67 734.2379760742188,6.985000133514404 C737.1270141601562,12.883000373840332 759.4080200195312,28.405000686645508 752.6380004882812,74.7249984741211z"></path></g><g opacity="0.1" transform="matrix(1,0,0,1,0,0)"><path stroke-linecap="round" stroke-linejoin="round" fill-opacity="0" stroke="rgb(127,4,30)" stroke-opacity="1" stroke-width="8" d=" M656.4500122070312,132.88600158691406 C656.4500122070312,132.88600158691406 626.2860107421875,89.75 593.0759887695312,62.48400115966797"></path></g><g opacity="0.1" transform="matrix(1,0,0,1,0,0)"><path stroke-linecap="round" stroke-linejoin="round" fill-opacity="0" stroke="rgb(127,4,30)" stroke-opacity="1" stroke-width="8" d=" M708.4520263671875,118.53199768066406 C708.4520263671875,118.53199768066406 649.4240112304688,71.1780014038086 577.3049926757812,32.345001220703125"></path></g><g opacity="0.1" transform="matrix(1,0,0,1,0,0)"><path stroke-linecap="round" stroke-linejoin="round" fill-opacity="0" stroke="rgb(127,4,30)" stroke-opacity="1" stroke-width="8" d=" M750.0869750976562,84.01399993896484 C750.0869750976562,84.01399993896484 702.02099609375,41.81399917602539 569.9619750976562,17.253000259399414"></path></g><g opacity="0.1" transform="matrix(1,0,0,1,0,0)"><path stroke-linecap="round" stroke-linejoin="round" fill-opacity="0" stroke="rgb(127,4,30)" stroke-opacity="1" stroke-width="8" d=" M750.5349731445312,38.064998626708984 C750.5349731445312,38.064998626708984 691.56201171875,-8.532999992370605 569.0380249023438,6.4670000076293945"></path></g><g opacity="0.1" transform="matrix(1,0,0,1,0,0)"><path stroke-linecap="round" stroke-linejoin="round" fill-opacity="0" stroke="rgb(127,4,30)" stroke-opacity="1" stroke-width="8" d=" M728.8179931640625,-5.36899995803833 C728.8179931640625,-5.36899995803833 647.2509765625,-43.78300094604492 570.2540283203125,-1.9589999914169312"></path></g><g opacity="0.6" transform="matrix(1,0,0,1,0,0)"><path fill="rgb(74,5,19)" fill-opacity="1" d=" M656.4500122070312,132.88600158691406 C656.4500122070312,132.88600158691406 642.1290283203125,133.51499938964844 622.0880126953125,118.75499725341797 C622.0880126953125,118.75499725341797 566.2930297851562,11.569999694824219 566.2930297851562,11.569999694824219 C571,-28.75 618.6179809570312,-38.084999084472656 618.6079711914062,-38.07500076293945 C584.0579833984375,-20.94499969482422 575.4429931640625,-10.92199993133545 594.3660278320312,2.6470000743865967 C609.5,13.5 615.6430053710938,36.33000183105469 623.8880004882812,71.29000091552734 C631.4039916992188,103.15799713134766 642.9959716796875,100.96700286865234 656.4500122070312,132.88600158691406z"></path></g></g><g style="display: block;" transform="matrix(1,0,0,1,-296.0000305175781,212)" opacity="1"><g opacity="1" transform="matrix(1,0,0,1,0,0)"><path fill="url(#__lottie_element_13895)" fill-opacity="1" d=" M539.1939697265625,11.987000465393066 C539.1939697265625,11.987000465393066 579.5809936523438,3.4639999866485596 594.6110229492188,30.739999771118164 C609.6409912109375,58.01599884033203 631.4180297851562,92.96499633789062 619.5469970703125,129.26699829101562 C611.2849731445312,154.531005859375 588.614990234375,168.25399780273438 583.4609985351562,172.531005859375 C561.4429931640625,190.8000030517578 536.7919921875,196.01699829101562 517.9119873046875,196.01699829101562 C480.0669860839844,196.01699829101562 447.4779968261719,173.33599853515625 437.3269958496094,142.2790069580078 C426.1409912109375,108.05599975585938 459.9360046386719,29.660999298095703 539.1939697265625,11.987000465393066z"></path></g><g opacity="1" transform="matrix(1,0,0,1,0,0)"><path fill="rgb(255,39,86)" fill-opacity="1" d=" M619.5479736328125,129.26499938964844 C611.2880249023438,154.53500366210938 588.6179809570312,168.2550048828125 583.4580078125,172.53500366210938 C561.447998046875,190.7949981689453 536.72900390625,197.5070037841797 517.9080200195312,196.01499938964844 C442,190 435.7179870605469,135.97500610351562 435.4280090332031,132.38499450683594 C443.697998046875,158.43499755859375 467.7359924316406,179.20399475097656 497.9679870605469,183.68299865722656 C547.8400268554688,191.07200622558594 590.7869873046875,154.5590057373047 602.6079711914062,132.60499572753906 C619.5260009765625,101.18499755859375 606.8270263671875,69.15699768066406 598.375,43.558998107910156 C611.5,58 631.4180297851562,92.96499633789062 619.5479736328125,129.26499938964844z"></path></g><g opacity="0.1" transform="matrix(1,0,0,1,0,0)"><path stroke-linecap="round" stroke-linejoin="round" fill-opacity="0" stroke="rgb(127,4,30)" stroke-opacity="1" stroke-width="8" d=" M616.5659790039062,136.69900512695312 C616.5659790039062,136.69900512695312 597.531982421875,58.98400115966797 561.4840087890625,12.444999694824219"></path></g><g opacity="0.1" transform="matrix(1,0,0,1,0,0)"><path stroke-linecap="round" stroke-linejoin="round" fill-opacity="0" stroke="rgb(127,4,30)" stroke-opacity="1" stroke-width="8" d=" M583.4609985351562,172.531005859375 C583.4609985351562,172.531005859375 566.6719970703125,93.78199768066406 552.8759765625,10.467000007629395"></path></g><g opacity="0.1" transform="matrix(1,0,0,1,0,0)"><path stroke-linecap="round" stroke-linejoin="round" fill-opacity="0" stroke="rgb(127,4,30)" stroke-opacity="1" stroke-width="8" d=" M541.2969970703125,193.36599731445312 C541.2969970703125,193.36599731445312 531.0980224609375,74.72899627685547 544.6160278320312,11.005000114440918"></path></g><g opacity="0.1" transform="matrix(1,0,0,1,0,0)"><path stroke-linecap="round" stroke-linejoin="round" fill-opacity="0" stroke="rgb(127,4,30)" stroke-opacity="1" stroke-width="8" d=" M493.760009765625,192.8419952392578 C493.760009765625,192.8419952392578 501.0929870605469,75.4000015258789 530.5980224609375,14.22599983215332"></path></g><g opacity="0.1" transform="matrix(1,0,0,1,0,0)"><path stroke-linecap="round" stroke-linejoin="round" fill-opacity="0" stroke="rgb(127,4,30)" stroke-opacity="1" stroke-width="8" d=" M451.156005859375,165.68899536132812 C451.156005859375,165.68899536132812 468.5,78 519.0609741210938,18.106000900268555"></path></g><g opacity="0.5" transform="matrix(1,0,0,1,0,0)"><path fill="rgb(127,4,30)" fill-opacity="1" d=" M566.1680297851562,30.184999465942383 C551.5599975585938,38.41699981689453 545.6920166015625,44.62900161743164 523.2880249023438,51.57500076293945 C462.25,70.5 440.5,138.25 447.5589904785156,162.697998046875 C411.75,121 459.93798828125,29.665000915527344 539.197998046875,11.984999656677246 C539.197998046875,11.984999656677246 585,4.5 594.8579711914062,32.73500061035156 C589.25,28.25 580.25,22.25 566.1680297851562,30.184999465942383z"></path></g><g opacity="0.5" transform="matrix(1,0,0,1,0,0)"><path fill="rgb(74,5,19)" fill-opacity="1" d=" M593.0159912109375,30.954999923706055 C565,8.25 543,73.25 478.89801025390625,42.6349983215332 C491.25,30.5 525.010009765625,14.416000366210938 538.947998046875,12.484999656677246 C585.75,6 593.7780151367188,31.572999954223633 593.0159912109375,30.954999923706055z"></path></g><g opacity="1" transform="matrix(1,0,0,1,0,0)"><path stroke-linecap="round" stroke-linejoin="round" fill-opacity="0" stroke="rgb(112,0,27)" stroke-opacity="1" stroke-width="8" d=" M539.1939697265625,11.987000465393066 C539.1939697265625,11.987000465393066 579.5809936523438,3.4639999866485596 594.6110229492188,30.739999771118164 C609.6409912109375,58.01599884033203 631.4180297851562,92.96499633789062 619.5469970703125,129.26699829101562 C611.2849731445312,154.531005859375 588.614990234375,168.25399780273438 583.4609985351562,172.531005859375 C561.4429931640625,190.8000030517578 536.7919921875,196.01699829101562 517.9119873046875,196.01699829101562 C480.0669860839844,196.01699829101562 447.4779968261719,173.33599853515625 437.3269958496094,142.2790069580078 C426.1409912109375,108.05599975585938 459.9360046386719,29.660999298095703 539.1939697265625,11.987000465393066z"></path></g><g opacity="1" transform="matrix(1,0,0,1,0,0)"><path stroke-linecap="round" stroke-linejoin="round" fill-opacity="0" stroke="rgb(74,5,19)" stroke-opacity="1" stroke-width="8" d=" M539.1939697265625,11.987000465393066 C539.1939697265625,11.987000465393066 579.5809936523438,3.4639999866485596 594.6110229492188,30.739999771118164 C594.833984375,31.145000457763672 595.0590209960938,31.55299949645996 595.2860107421875,31.961000442504883"></path></g><g opacity="1" transform="matrix(1,0,0,1,0,0)"><path stroke-linecap="round" stroke-linejoin="round" fill-opacity="0" stroke="rgb(185,0,35)" stroke-opacity="1" stroke-width="8" d=" M619.2249755859375,130.2239990234375 C610.7119750976562,154.8780059814453 588.5499877929688,168.30799865722656 583.4609985351562,172.531005859375 C561.4429931640625,190.8000030517578 536.7919921875,196.01699829101562 517.9119873046875,196.01699829101562 C482.864990234375,196.01699829101562 452.32598876953125,176.5659942626953 439.94000244140625,149.0260009765625"></path></g></g><g style="display: block;" transform="matrix(1,0,0,1,-296,212)" opacity="1"><g opacity="1" transform="matrix(1,0,0,1,0,0)"><path fill="url(#__lottie_element_13891)" fill-opacity="1" d=" M544.8930053710938,-12.576000213623047 C544.1859741210938,7.561999797821045 524.3469848632812,38.790000915527344 508.08099365234375,49.0629997253418 C491.81500244140625,59.33599853515625 446.58599853515625,79.0260009765625 415.7669982910156,73.88899993896484 C384.947998046875,68.75199890136719 374.27099609375,43.32600021362305 361.6889953613281,31.07699966430664 C340.7860107421875,10.72700023651123 337.718994140625,-13.654000282287598 356.552001953125,-43.39500045776367 C373.447998046875,-70.0780029296875 383.947998046875,-93.49500274658203 435.9840087890625,-93.04900360107422 C495.3919982910156,-92.53900146484375 546.60498046875,-61.37300109863281 544.8930053710938,-12.576000213623047z"></path></g><g opacity="0.5" transform="matrix(1,0,0,1,0,0)"><path fill="rgb(127,4,30)" fill-opacity="1" d=" M544.8980102539062,-12.574999809265137 C544.3280029296875,3.734999895095825 531.2080078125,27.295000076293945 517.5980224609375,41.1349983215332 C517.6680297851562,40.6150016784668 522.8389892578125,23.138999938964844 513.427978515625,11.005000114440918 C501.3340148925781,-4.589000225067139 490.87701416015625,0.03099999949336052 459.3999938964844,-43.39500045776367 C433.20599365234375,-79.53299713134766 402.5,-83 387.1679992675781,-81.42500305175781 C399.5,-89 412.9679870605469,-93.24500274658203 435.9880065917969,-93.04499816894531 C495.38800048828125,-92.53500366210938 546.6079711914062,-61.375 544.8980102539062,-12.574999809265137z"></path></g><g opacity="0.5" transform="matrix(1,0,0,1,0,0)"><path fill="rgb(74,5,19)" fill-opacity="1" d=" M544.8980102539062,-12.574999809265137 C544.3779907226562,2.265000104904175 528.75,30.75 517.864013671875,41.58000183105469 C518.8889770507812,34.165000915527344 522.6010131835938,16.558000564575195 508.83099365234375,5.668000221252441 C495.0610046386719,-5.2220001220703125 468.25,-76 467.1759948730469,-89.91300201416016 C531.6740112304688,-75.9800033569336 545.5079956054688,-29.895000457763672 544.8980102539062,-12.574999809265137z"></path></g><g opacity="1" transform="matrix(1,0,0,1,0,0)"><path fill="rgb(255,39,86)" fill-opacity="1" d=" M516.5780029296875,42.814998626708984 C497.5,56.75 446.5880126953125,79.0250015258789 415.76800537109375,73.88500213623047 C384.947998046875,68.75499725341797 374.26800537109375,43.32500076293945 361.68798828125,31.075000762939453 C340.7879943847656,10.725000381469727 337.7179870605469,-13.654999732971191 356.5480041503906,-43.39500045776367 C339.72698974609375,-1.2100000381469727 367.24798583984375,23.96500015258789 371.6780090332031,26.795000076293945 C376.1080017089844,29.625 390.02301025390625,50.0099983215332 408.7879943847656,57.1150016784668 C439.4549865722656,68.72699737548828 503.25,49.25 516.5780029296875,42.814998626708984z"></path></g><g opacity="0.1" transform="matrix(1,0,0,1,0,0)"><path stroke-linecap="round" stroke-linejoin="round" fill-opacity="0" stroke="rgb(127,4,30)" stroke-opacity="1" stroke-width="8" d=" M407.4989929199219,71.9000015258789 C407.4989929199219,71.9000015258789 473.6650085449219,32.65299987792969 540.0980224609375,9.22599983215332"></path></g><g opacity="0.1" transform="matrix(1,0,0,1,0,0)"><path stroke-linecap="round" stroke-linejoin="round" fill-opacity="0" stroke="rgb(127,4,30)" stroke-opacity="1" stroke-width="8" d=" M373.7820129394531,46.143001556396484 C373.7820129394531,46.143001556396484 474.2340087890625,-1.7070000171661377 541.614990234375,2.9260001182556152"></path></g><g opacity="0.1" transform="matrix(1,0,0,1,0,0)"><path stroke-linecap="round" stroke-linejoin="round" fill-opacity="0" stroke="rgb(127,4,30)" stroke-opacity="1" stroke-width="8" d=" M348.59100341796875,12.967000007629395 C348.59100341796875,12.967000007629395 440.97198486328125,-26.78700065612793 543.5980224609375,-6.025000095367432"></path></g><g opacity="0.1" transform="matrix(1,0,0,1,0,0)"><path stroke-linecap="round" stroke-linejoin="round" fill-opacity="0" stroke="rgb(127,4,30)" stroke-opacity="1" stroke-width="8" d=" M348.2300109863281,-23.288000106811523 C348.2300109863281,-23.288000106811523 457.5,-48.5 544.9039916992188,-22.097000122070312"></path></g><g opacity="0.1" transform="matrix(1,0,0,1,0,0)"><path stroke-linecap="round" stroke-linejoin="round" fill-opacity="0" stroke="rgb(127,4,30)" stroke-opacity="1" stroke-width="8" d=" M365.56500244140625,-54.981998443603516 C365.56500244140625,-54.981998443603516 470,-62.5 541.4990234375,-34.983001708984375"></path></g><g opacity="0.1" transform="matrix(1,0,0,1,0,0)"><path stroke-linecap="round" stroke-linejoin="round" fill-opacity="0" stroke="rgb(127,4,30)" stroke-opacity="1" stroke-width="8" d=" M387.1669921875,-81.41500091552734 C387.1669921875,-81.41500091552734 489.5,-79 535.719970703125,-47.9630012512207"></path></g><g opacity="1" transform="matrix(1,0,0,1,0,0)"><path stroke-linecap="round" stroke-linejoin="round" fill-opacity="0" stroke="rgb(112,0,27)" stroke-opacity="1" stroke-width="8" d=" M544.8930053710938,-12.576000213623047 C544.1859741210938,7.561999797821045 524.3469848632812,38.790000915527344 508.08099365234375,49.0629997253418 C491.81500244140625,59.33599853515625 446.58599853515625,79.0260009765625 415.7669982910156,73.88899993896484 C384.947998046875,68.75199890136719 374.27099609375,43.32600021362305 361.6889953613281,31.07699966430664 C340.7860107421875,10.72700023651123 337.718994140625,-13.654000282287598 356.552001953125,-43.39500045776367 C373.447998046875,-70.0780029296875 383.947998046875,-93.49500274658203 435.9840087890625,-93.04900360107422 C495.3919982910156,-92.53900146484375 546.60498046875,-61.37300109863281 544.8930053710938,-12.576000213623047z"></path></g><g opacity="1" transform="matrix(1,0,0,1,0,0)"><path stroke-linecap="round" stroke-linejoin="round" fill-opacity="0" stroke="rgb(74,5,19)" stroke-opacity="1" stroke-width="8" d=" M544.8930053710938,-12.576000213623047 C544.1859741210938,7.561999797821045 524.3469848632812,38.790000915527344 508.08099365234375,49.0629997253418 C507.8009948730469,49.2400016784668 507.51300048828125,49.41899871826172 507.2170104980469,49.60100173950195"></path></g><g opacity="1" transform="matrix(1,0,0,1,0,0)"><path stroke-linecap="round" stroke-linejoin="round" fill-opacity="0" stroke="rgb(185,0,35)" stroke-opacity="1" stroke-width="8" d=" M393.0840148925781,64.83599853515625 C378.4469909667969,54.827999114990234 370.53900146484375,39.69300079345703 361.6889953613281,31.07699966430664 C340.7860107421875,10.72700023651123 337.718994140625,-13.654000282287598 356.552001953125,-43.39500045776367 C366.6310119628906,-59.3120002746582 374.4339904785156,-74.06700134277344 390.135009765625,-83.28800201416016"></path></g></g><g style="display: block;" transform="matrix(1,0,0,1,-295.9999694824219,212)" opacity="1"><g opacity="1" transform="matrix(1,0,0,1,0,0)"><path fill="url(#__lottie_element_13887)" fill-opacity="1" d=" M555.1790161132812,-14.38700008392334 C535.3889770507812,-3.562999963760376 508.3590087890625,-3.0250000953674316 480.6919860839844,-41.48899841308594 C454.9110107421875,-77.33100128173828 427.04998779296875,-81.3499984741211 419.71099853515625,-116.48899841308594 C414.31298828125,-142.33200073242188 426.5899963378906,-171.94400024414062 459.3999938964844,-180.44700622558594 C467.1289978027344,-182.4499969482422 470.66400146484375,-194.89700317382812 495.7179870605469,-194.0989990234375 C505.89801025390625,-193.77499389648438 521.0780029296875,-207.2899932861328 544.6160278320312,-193.86199951171875 C577.739990234375,-174.96499633789062 593.8040161132812,-126.927001953125 585.6420288085938,-63.948001861572266 C583.7520141601562,-49.361000061035156 572.6920166015625,-23.965999603271484 555.1790161132812,-14.38700008392334z"></path></g><g opacity="1" transform="matrix(1,0,0,1,0,0)"><path fill="rgb(255,39,86)" fill-opacity="1" d=" M572.9180297851562,-163.63499450683594 C567.75,-173.25 537,-198.75 505.593994140625,-183.83799743652344 C505.593994140625,-183.83799743652344 483.07501220703125,-190.48500061035156 466.1080017089844,-172.9149932861328 C461.42401123046875,-168.06500244140625 428.87799072265625,-175.2830047607422 418.7980041503906,-122.38500213623047 C416.2879943847656,-146.6750030517578 429.0580139160156,-172.5850067138672 459.39801025390625,-180.44500732421875 C467.12799072265625,-182.4550018310547 470.6679992675781,-194.89500427246094 495.7179870605469,-194.09500122070312 C505.89801025390625,-193.77499389648438 539.75,-219.5 572.9180297851562,-163.63499450683594z"></path></g><g opacity="0.5" transform="matrix(1,0,0,1,0,0)"><path fill="rgb(127,4,30)" fill-opacity="1" d=" M585.6380004882812,-63.94499969482422 C583.7479858398438,-49.3650016784668 572.68798828125,-23.96500015258789 555.177978515625,-14.385000228881836 C537.8280029296875,-4.894999980926514 514.9080200195312,-3.315000057220459 490.87799072265625,-28.9950008392334 C506.9679870605469,-20.575000762939453 525.2310180664062,-20.332000732421875 528.1380004882812,-67.81500244140625 C533.0989990234375,-148.82899475097656 595.1229858398438,-154.12899780273438 544.6179809570312,-193.86500549316406 C577.7379760742188,-174.96499633789062 593.8079833984375,-126.92500305175781 585.6380004882812,-63.94499969482422z"></path></g><g opacity="0.1" transform="matrix(1,0,0,1,0,0)"><path stroke-linecap="round" stroke-linejoin="round" fill-opacity="0" stroke="rgb(127,4,30)" stroke-opacity="1" stroke-width="8" d=" M544.6160278320312,-193.86199951171875 C544.6160278320312,-193.86199951171875 572,-134 563.3400268554688,-20.201000213623047"></path></g><g opacity="0.1" transform="matrix(1,0,0,1,0,0)"><path stroke-linecap="round" stroke-linejoin="round" fill-opacity="0" stroke="rgb(127,4,30)" stroke-opacity="1" stroke-width="8" d=" M495.7179870605469,-194.0989990234375 C495.7179870605469,-194.0989990234375 542,-137.5 548.3930053710938,-12.076000213623047"></path></g><g opacity="0.1" transform="matrix(1,0,0,1,0,0)"><path stroke-linecap="round" stroke-linejoin="round" fill-opacity="0" stroke="rgb(127,4,30)" stroke-opacity="1" stroke-width="8" d=" M447.90301513671875,-174.72999572753906 C447.90301513671875,-174.72999572753906 514.5,-117.5 540.0009765625,-9.628000259399414"></path></g><g opacity="0.1" transform="matrix(1,0,0,1,0,0)"><path stroke-linecap="round" stroke-linejoin="round" fill-opacity="0" stroke="rgb(127,4,30)" stroke-opacity="1" stroke-width="8" d=" M420.1929931640625,-135.0709991455078 C420.1929931640625,-135.0709991455078 488.5,-107.5 524.7839965820312,-8.442000389099121"></path></g><g opacity="1" transform="matrix(1,0,0,1,0,0)"><path stroke-linecap="round" stroke-linejoin="round" fill-opacity="0" stroke="rgb(112,0,27)" stroke-opacity="1" stroke-width="8" d=" M555.1790161132812,-14.38700008392334 C535.3889770507812,-3.562999963760376 508.3590087890625,-3.0250000953674316 480.6919860839844,-41.48899841308594 C454.9110107421875,-77.33100128173828 427.04998779296875,-81.3499984741211 419.71099853515625,-116.48899841308594 C414.31298828125,-142.33200073242188 426.5899963378906,-171.94400024414062 459.3999938964844,-180.44700622558594 C467.1289978027344,-182.4499969482422 470.66400146484375,-194.89700317382812 495.7179870605469,-194.0989990234375 C505.89801025390625,-193.77499389648438 521.0780029296875,-207.2899932861328 544.6160278320312,-193.86199951171875 C577.739990234375,-174.96499633789062 593.8040161132812,-126.927001953125 585.6420288085938,-63.948001861572266 C583.7520141601562,-49.361000061035156 572.6920166015625,-23.965999603271484 555.1790161132812,-14.38700008392334z"></path></g><g opacity="1" transform="matrix(1,0,0,1,0,0)"><path stroke-linecap="round" stroke-linejoin="round" fill-opacity="0" stroke="rgb(74,5,19)" stroke-opacity="1" stroke-width="8" d=" M555.1790161132812,-14.38700008392334 C535.4539794921875,-3.5980000495910645 508.5360107421875,-3.0290000438690186 480.9639892578125,-41.11199951171875"></path></g><g opacity="1" transform="matrix(1,0,0,1,0,0)"><path stroke-linecap="round" stroke-linejoin="round" fill-opacity="0" stroke="rgb(185,0,35)" stroke-opacity="1" stroke-width="8" d=" M419.71099853515625,-116.48899841308594 C414.31298828125,-142.33200073242188 426.5899963378906,-171.94400024414062 459.3999938964844,-180.44700622558594 C467.1289978027344,-182.4499969482422 470.66400146484375,-194.89700317382812 495.7179870605469,-194.0989990234375 C505.89801025390625,-193.77499389648438 521.0780029296875,-207.2899932861328 544.6160278320312,-193.86199951171875 C552.85400390625,-189.16299438476562 560.0360107421875,-182.66099548339844 566.052978515625,-174.5749969482422"></path></g></g><g style="display: block;" transform="matrix(1,0,0,1,-296,212)" opacity="1"><g opacity="1" transform="matrix(1,0,0,1,0,0)"><path fill="url(#__lottie_element_13883)" fill-opacity="1" d=" M662.5579833984375,-40.395999908447266 C679.1929931640625,-39.013999938964844 688.197021484375,-46.57400131225586 696.0609741210938,-50.44499969482422 C739.6610107421875,-71.90799713134766 715.5189819335938,-113.5770034790039 715.5189819335938,-113.5770034790039 C704.10400390625,-160.28900146484375 674.7030029296875,-157.66000366210938 670.2369995117188,-164.86599731445312 C660.3820190429688,-180.7689971923828 649.1090087890625,-181.83799743652344 637.4110107421875,-181.83799743652344 C623.2559814453125,-181.83799743652344 596.1400146484375,-171.20599365234375 571.2540283203125,-139.2310028076172 C542.7470092773438,-102.60299682617188 538.708984375,-53.23099899291992 548.22900390625,-32.327999114990234 C554.1630249023438,-19.29800033569336 563.4359741210938,-13.831000328063965 576.1320190429688,-13.45300006866455 C576.1320190429688,-13.45300006866455 601.0499877929688,-45.505001068115234 662.5579833984375,-40.395999908447266z"></path></g><g opacity="1" transform="matrix(1,0,0,1,0,0)"><path fill="rgb(255,39,86)" fill-opacity="1" d=" M700.8579711914062,-51.8650016784668 C701.3579711914062,-52.564998626708984 724.1119995117188,-83.08799743652344 704.2379760742188,-110.53500366210938 C704.2379760742188,-110.53500366210938 699.4760131835938,-146.27099609375 664.8880004882812,-154.125 C642.5,-186.5 598.5,-164.25 558.9879760742188,-118.8949966430664 C578.75,-165.25 623.2579956054688,-181.8350067138672 637.4080200195312,-181.8350067138672 C649.1079711914062,-181.8350067138672 660.3779907226562,-180.76499938964844 670.2379760742188,-164.86500549316406 C674.7080078125,-157.6649932861328 704.1079711914062,-160.28500366210938 715.5180053710938,-113.57499694824219 C715.5180053710938,-113.57499694824219 738.5,-74 700.8579711914062,-51.8650016784668z"></path></g><g opacity="0.5" transform="matrix(1,0,0,1,0,0)"><path fill="rgb(127,4,30)" fill-opacity="1" d=" M662.5579833984375,-40.39500045776367 C600.5,-44 585.5,-20 576.1279907226562,-13.454999923706055 C544,-15.5 543.22802734375,-50.404998779296875 543.677978515625,-62.904998779296875 C546.2080078125,-31.565000534057617 580.6820068359375,-42.14699935913086 593.3259887695312,-46.39500045776367 C619.4099731445312,-55.159000396728516 635.8170166015625,-63.029998779296875 684.14697265625,-59.981998443603516 C723.5,-57.5 722,-95.5 717.8980102539062,-108.53500366210938 C717.8980102539062,-108.53500366210938 745.5,-49.5 662.5579833984375,-40.39500045776367z"></path></g><g opacity="0.5" transform="matrix(1,0,0,1,0,0)"><path fill="rgb(74,5,19)" fill-opacity="1" d=" M576.1279907226562,-13.454999923706055 C563.947998046875,-13.8149995803833 554.9180297851562,-20.864999771118164 548.968017578125,-32.78499984741211 C579.7479858398438,-49.48400115966797 603.9400024414062,-38.56800079345703 610.2880249023438,-35.73500061035156 C596.8250122070312,-33.07400131225586 576.1279907226562,-13.454999923706055 576.1279907226562,-13.454999923706055z"></path></g><g opacity="0.1" transform="matrix(1,0,0,1,0,0)"><path stroke-linecap="round" stroke-linejoin="round" fill-opacity="0" stroke="rgb(127,4,30)" stroke-opacity="1" stroke-width="8" d=" M721.2429809570312,-79.25199890136719 C721.2429809570312,-79.25199890136719 635.5250244140625,-67.89600372314453 564.7880249023438,-15.541999816894531"></path></g><g opacity="0.1" transform="matrix(1,0,0,1,0,0)"><path stroke-linecap="round" stroke-linejoin="round" fill-opacity="0" stroke="rgb(127,4,30)" stroke-opacity="1" stroke-width="8" d=" M715.5189819335938,-113.5770034790039 C715.5189819335938,-113.5770034790039 646.718994140625,-106.64600372314453 559.8359985351562,-26.5"></path></g><g opacity="0.1" transform="matrix(1,0,0,1,0,0)"><path stroke-linecap="round" stroke-linejoin="round" fill-opacity="0" stroke="rgb(127,4,30)" stroke-opacity="1" stroke-width="8" d=" M702.9509887695312,-142.093994140625 C702.9509887695312,-142.093994140625 622.9550170898438,-135.0709991455078 556.3400268554688,-23.201000213623047"></path></g><g opacity="0.1" transform="matrix(1,0,0,1,0,0)"><path stroke-linecap="round" stroke-linejoin="round" fill-opacity="0" stroke="rgb(127,4,30)" stroke-opacity="1" stroke-width="8" d=" M670.2369995117188,-164.86599731445312 C670.2369995117188,-164.86599731445312 598.7869873046875,-161.31300354003906 550.3400268554688,-31.201000213623047"></path></g><g opacity="0.1" transform="matrix(1,0,0,1,0,0)"><path stroke-linecap="round" stroke-linejoin="round" fill-opacity="0" stroke="rgb(127,4,30)" stroke-opacity="1" stroke-width="8" d=" M612.9219970703125,-175.2830047607422 C612.9219970703125,-175.2830047607422 568.1680297851562,-146.73199462890625 550.3400268554688,-43.45199966430664"></path></g><g opacity="1" transform="matrix(1,0,0,1,0,0)"><path stroke-linecap="round" stroke-linejoin="round" fill-opacity="0" stroke="rgb(112,0,27)" stroke-opacity="1" stroke-width="8" d=" M576.1320190429688,-13.45300006866455 C563.4359741210938,-13.831000328063965 554.1630249023438,-19.29800033569336 548.22900390625,-32.327999114990234 C538.708984375,-53.23099899291992 542.7470092773438,-102.60299682617188 571.2540283203125,-139.2310028076172 C596.1400146484375,-171.20599365234375 623.2559814453125,-181.83799743652344 637.4110107421875,-181.83799743652344 C649.1090087890625,-181.83799743652344 660.3820190429688,-180.7689971923828 670.2369995117188,-164.86599731445312 C674.7030029296875,-157.66000366210938 704.10400390625,-160.28900146484375 715.5189819335938,-113.5770034790039 C715.5189819335938,-113.5770034790039 739.6610107421875,-71.90799713134766 696.0609741210938,-50.44499969482422 C688.197021484375,-46.57400131225586 679.0159912109375,-43.178001403808594 662.5579833984375,-40.395999908447266"></path></g><g opacity="1" transform="matrix(1,0,0,1,0,0)"><path stroke-linecap="round" stroke-linejoin="round" fill-opacity="0" stroke="rgb(185,0,35)" stroke-opacity="1" stroke-width="8" d=" M587.4080200195312,-156.9499969482422 C607.1649780273438,-175.2740020751953 626.2890014648438,-181.83799743652344 637.4110107421875,-181.83799743652344 C649.1090087890625,-181.83799743652344 660.3820190429688,-180.7689971923828 670.2369995117188,-164.86599731445312 C674.7030029296875,-157.66000366210938 704.10400390625,-160.28900146484375 715.5189819335938,-113.5770034790039 C715.5189819335938,-113.5770034790039 731,-86.85700225830078 714.780029296875,-65.19000244140625"></path></g><g opacity="1" transform="matrix(1,0,0,1,0,0)"><path stroke-linecap="round" stroke-linejoin="round" fill-opacity="0" stroke="rgb(255,255,255)" stroke-opacity="1" stroke-width="6" d=" M622.1010131835938,-165.5570068359375 C622.9290161132812,-165.81300354003906 623.7789916992188,-166.0590057373047 624.6510009765625,-166.29299926757812"></path></g><g opacity="1" transform="matrix(1,0,0,1,0,0)"><path stroke-linecap="round" stroke-linejoin="round" fill-opacity="0" stroke="rgb(255,255,255)" stroke-opacity="1" stroke-width="6" d=" M602.2890014648438,-155.71800231933594 C602.2890014648438,-155.71800231933594 605.4400024414062,-158.29200744628906 611.1309814453125,-161.1510009765625"></path></g></g><g style="display: block;" transform="matrix(1,0,0,1,-295.9999694824219,212)" opacity="1"><g opacity="1" transform="matrix(1,0,0,1,0,0)"><path stroke-linecap="round" stroke-linejoin="round" fill-opacity="0" stroke="rgb(112,0,27)" stroke-opacity="1" stroke-width="8" d=" M566.6719970703125,11.944999694824219 C570.4829711914062,-18.43600082397461 597.06298828125,-35.79999923706055 629.7319946289062,-40.119998931884766 C665.5640258789062,-44.858001708984375 721.5570068359375,-35.28099822998047 734.2369995117188,6.985000133514404 C736.1259765625,13.281000137329102 759.0269775390625,33.27799987792969 752.6420288085938,74.72899627685547 C749.989013671875,91.9540023803711 733.72900390625,115.37000274658203 708.4520263671875,118.53199768066406 C704.2109985351562,119.06199645996094 667.739013671875,151.44200134277344 622.0850219726562,118.7509994506836"></path></g><g opacity="1" transform="matrix(1,0,0,1,0,0)"><path stroke-linecap="round" stroke-linejoin="round" fill-opacity="0" stroke="rgb(74,5,19)" stroke-opacity="1" stroke-width="8" d=" M566.6719970703125,11.944999694824219 C569.4290161132812,-10.034000396728516 584.10302734375,-25.200000762939453 604.3779907226562,-33.54399871826172"></path></g><g opacity="1" transform="matrix(1,0,0,1,0,0)"><path stroke-linecap="round" stroke-linejoin="round" fill-opacity="0" stroke="rgb(185,0,35)" stroke-opacity="1" stroke-width="8" d=" M691.3519897460938,-33.94900131225586 C711.1190185546875,-26.812000274658203 727.968994140625,-13.906999588012695 734.2369995117188,6.985000133514404 C736.1259765625,13.281000137329102 759.0269775390625,33.27799987792969 752.6420288085938,74.72899627685547 C749.989013671875,91.9540023803711 733.72900390625,115.37000274658203 708.4520263671875,118.53199768066406 C706.3319702148438,118.7969970703125 696.1539916992188,127.02400207519531 680.801025390625,131.0989990234375"></path></g></g><g style="display: block;" transform="matrix(1,0,0,1,-296.0000305175781,212)" opacity="1"><g opacity="1" transform="matrix(1,0,0,1,0,0)"><path stroke-linecap="round" stroke-linejoin="round" fill-opacity="0" stroke="rgb(175,0,42)" stroke-opacity="1" stroke-width="8" d=" M522.1339721679688,-83.08699798583984 C522.1339721679688,-83.08699798583984 520.7020263671875,-96.9540023803711 522.1339721679688,-119.89099884033203"></path></g><g opacity="1" transform="matrix(1,0,0,1,0,0)"><path stroke-linecap="round" stroke-linejoin="round" fill-opacity="0" stroke="rgb(112,0,27)" stroke-opacity="1" stroke-width="8" d=" M521.8179931640625,-114.00599670410156 C521.9030151367188,-115.89399719238281 522.0070190429688,-117.85700225830078 522.1339721679688,-119.89099884033203"></path></g><g opacity="1" transform="matrix(1,0,0,1,0,0)"><path fill="rgb(246,67,67)" fill-opacity="1" d=" M544.5999755859375,-154.1280059814453 C539.2050170898438,-164.343994140625 523.5590209960938,-166.26499938964844 512.6829833984375,-157.08700561523438 C502.7430114746094,-148.69900512695312 498.8900146484375,-133.30499267578125 509.0400085449219,-125.21600341796875 C517.3679809570312,-118.5790023803711 529.135986328125,-121.26599884033203 535.3140258789062,-125.32599639892578 C544.7589721679688,-131.5330047607422 549.6339721679688,-144.59500122070312 544.5999755859375,-154.1280059814453z"></path><path stroke-linecap="round" stroke-linejoin="round" fill-opacity="0" stroke="rgb(185,0,35)" stroke-opacity="1" stroke-width="8" d=" M544.5999755859375,-154.1280059814453 C539.2050170898438,-164.343994140625 523.5590209960938,-166.26499938964844 512.6829833984375,-157.08700561523438 C502.7430114746094,-148.69900512695312 498.8900146484375,-133.30499267578125 509.0400085449219,-125.21600341796875 C517.3679809570312,-118.5790023803711 529.135986328125,-121.26599884033203 535.3140258789062,-125.32599639892578 C544.7589721679688,-131.5330047607422 549.6339721679688,-144.59500122070312 544.5999755859375,-154.1280059814453z"></path></g><g opacity="1" transform="matrix(1,0,0,1,0,0)"><path stroke-linecap="round" stroke-linejoin="round" fill-opacity="0" stroke="rgb(145,3,27)" stroke-opacity="1" stroke-width="8" d=" M503.593994140625,-133.5679931640625 C504.3970031738281,-130.41200256347656 506.1510009765625,-127.51799774169922 509.0400085449219,-125.21600341796875 C517.3679809570312,-118.5790023803711 529.135986328125,-121.26599884033203 535.3140258789062,-125.32599639892578 C544.7589721679688,-131.5330047607422 549.6339721679688,-144.59500122070312 544.5999755859375,-154.1280059814453"></path></g><g opacity="1" transform="matrix(1,0,0,1,0,0)"><path fill="rgb(255,169,175)" fill-opacity="1" d=" M529.4219970703125,-152.05799865722656 C526.4710083007812,-155.44500732421875 519.6090087890625,-154.6820068359375 515.3070068359375,-149.7239990234375 C511.5889892578125,-145.43899536132812 511.0350036621094,-138.7989959716797 514.7869873046875,-136.4409942626953 C519.0679931640625,-133.75100708007812 524.3610229492188,-136.0850067138672 527.0989990234375,-139.16700744628906 C529.8510131835938,-142.26499938964844 532.4149780273438,-148.62399291992188 529.4219970703125,-152.05799865722656z"></path></g></g><g style="display: block;" transform="matrix(1,0,0,1,-296.0000305175781,212)" opacity="1"><g opacity="1" transform="matrix(1,0,0,1,0,0)"><path stroke-linecap="round" stroke-linejoin="round" fill-opacity="0" stroke="rgb(175,0,42)" stroke-opacity="1" stroke-width="8" d=" M475.6969909667969,-113.7959976196289 C475.6969909667969,-113.7959976196289 494.0090026855469,-100.81500244140625 509.3210144042969,-82.6259994506836"></path></g><g opacity="1" transform="matrix(1,0,0,1,0,0)"><path stroke-linecap="round" stroke-linejoin="round" fill-opacity="0" stroke="rgb(112,0,27)" stroke-opacity="1" stroke-width="8" d=" M475.6969909667969,-113.7959976196289 C475.6969909667969,-113.7959976196289 477.65301513671875,-112.40899658203125 480.8210144042969,-109.90799713134766"></path></g><g opacity="1" transform="matrix(1,0,0,1,0,0)"><path fill="rgb(246,67,67)" fill-opacity="1" d=" M479.52099609375,-146.73199462890625 C471.1889953613281,-155.4969940185547 453.8450012207031,-154.14599609375 444.49798583984375,-141.5590057373047 C436.4200134277344,-130.68099975585938 436.8659973144531,-115.16100311279297 449.0450134277344,-108.85399627685547 C460.31298828125,-103.01899719238281 471.9939880371094,-109.92400360107422 476.8179931640625,-115.94999694824219 C482.82598876953125,-123.45600128173828 488.42999267578125,-137.36099243164062 479.52099609375,-146.73199462890625z"></path><path stroke-linecap="round" stroke-linejoin="round" fill-opacity="0" stroke="rgb(185,0,35)" stroke-opacity="1" stroke-width="8" d=" M479.52099609375,-146.73199462890625 C471.1889953613281,-155.4969940185547 453.8450012207031,-154.14599609375 444.49798583984375,-141.5590057373047 C436.4200134277344,-130.68099975585938 436.8659973144531,-115.16100311279297 449.0450134277344,-108.85399627685547 C460.31298828125,-103.01899719238281 471.9939880371094,-109.92400360107422 476.8179931640625,-115.94999694824219 C482.82598876953125,-123.45600128173828 488.42999267578125,-137.36099243164062 479.52099609375,-146.73199462890625z"></path></g><g opacity="1" transform="matrix(1,0,0,1,0,0)"><path stroke-linecap="round" stroke-linejoin="round" fill-opacity="0" stroke="rgb(145,3,27)" stroke-opacity="1" stroke-width="8" d=" M449.5920104980469,-108.58100128173828 C460.6889953613281,-103.24199676513672 472.0719909667969,-110.02100372314453 476.8179931640625,-115.94999694824219 C481.38299560546875,-121.65299987792969 485.7149963378906,-131.05099487304688 483.6239929199219,-139.3470001220703"></path></g><g opacity="1" transform="matrix(1,0,0,1,0,0)"><path fill="rgb(255,169,175)" fill-opacity="1" d=" M466.37200927734375,-142.18099975585938 C463.364990234375,-145.81500244140625 455.9389953613281,-144.3979949951172 451.697998046875,-138.96499633789062 C448.0329895019531,-134.27000427246094 447.7149963378906,-127.08899688720703 451.8760070800781,-125.00800323486328 C456.08099365234375,-122.90499877929688 461.6470031738281,-126.20600128173828 463.83599853515625,-128.8070068359375 C466.56201171875,-132.0469970703125 470.0169982910156,-137.77499389648438 466.37200927734375,-142.18099975585938z"></path></g></g><g style="display: block;" transform="matrix(1,0,0,1,-296.0000305175781,212)" opacity="1"><g opacity="1" transform="matrix(1,0,0,1,0,0)"><path stroke-linecap="round" stroke-linejoin="round" fill-opacity="0" stroke="rgb(175,0,42)" stroke-opacity="1" stroke-width="8" d=" M471,-74.96299743652344 C471,-74.96299743652344 489.510986328125,-75.99500274658203 508.0220031738281,-74.96299743652344"></path></g><g opacity="1" transform="matrix(1,0,0,1,0,0)"><path stroke-linecap="round" stroke-linejoin="round" fill-opacity="0" stroke="rgb(112,0,27)" stroke-opacity="1" stroke-width="8" d=" M471,-74.96299743652344 C471,-74.96299743652344 472.3550109863281,-75.03900146484375 474.70001220703125,-75.12799835205078"></path></g><g opacity="1" transform="matrix(1,0,0,1,0,0)"><path fill="rgb(246,67,67)" fill-opacity="1" d=" M466.33099365234375,-85.1969985961914 C461.7489929199219,-94.9020004272461 447.8240051269531,-96.38999938964844 437.90399169921875,-87.31099700927734 C428.8380126953125,-79.01300048828125 425.0459899902344,-64.11499786376953 433.9219970703125,-56.566001892089844 C441.2049865722656,-50.37200164794922 451.77301025390625,-53.22600173950195 457.3810119628906,-57.27299880981445 C465.95599365234375,-63.46099853515625 470.60699462890625,-76.13999938964844 466.33099365234375,-85.1969985961914z"></path><path stroke-linecap="round" stroke-linejoin="round" fill-opacity="0" stroke="rgb(185,0,35)" stroke-opacity="1" stroke-width="8" d=" M466.33099365234375,-85.1969985961914 C461.7489929199219,-94.9020004272461 447.8240051269531,-96.38999938964844 437.90399169921875,-87.31099700927734 C428.8380126953125,-79.01300048828125 425.0459899902344,-64.11499786376953 433.9219970703125,-56.566001892089844 C441.2049865722656,-50.37200164794922 451.77301025390625,-53.22600173950195 457.3810119628906,-57.27299880981445 C465.95599365234375,-63.46099853515625 470.60699462890625,-76.13999938964844 466.33099365234375,-85.1969985961914z"></path></g><g opacity="1" transform="matrix(1,0,0,1,0,0)"><path stroke-linecap="round" stroke-linejoin="round" fill-opacity="0" stroke="rgb(145,3,27)" stroke-opacity="1" stroke-width="8" d=" M434.4110107421875,-56.16699981689453 C441.6709899902344,-50.499000549316406 451.8970031738281,-53.316001892089844 457.3810119628906,-57.27299880981445 C465.95599365234375,-63.46099853515625 470.60699462890625,-76.13999938964844 466.33099365234375,-85.1969985961914"></path></g><g opacity="1" transform="matrix(1,0,0,1,0,0)"><path fill="rgb(255,169,175)" fill-opacity="1" d=" M454.5429992675781,-83.33599853515625 C451.5360107421875,-86.97000122070312 444.1099853515625,-85.55400085449219 439.8689880371094,-80.12100219726562 C436.2040100097656,-75.4260025024414 435.885986328125,-68.24400329589844 440.0469970703125,-66.16300201416016 C444.25201416015625,-64.05999755859375 449.8169860839844,-67.36199951171875 452.0060119628906,-69.96299743652344 C454.73199462890625,-73.2030029296875 458.18798828125,-78.93000030517578 454.5429992675781,-83.33599853515625z"></path></g></g><g style="display: block;" transform="matrix(1,0,0,1,-296.0000305175781,212)" opacity="1"><g opacity="1" transform="matrix(1,0,0,1,0,0)"><path fill="url(#__lottie_element_13865)" fill-opacity="1" d=" M572.7739868164062,-18.211000442504883 C577.4349975585938,-4.751999855041504 575.5770263671875,5.513999938964844 564.7949829101562,14.510000228881836 C554.0130004882812,23.506000518798828 539.0499877929688,22.100000381469727 533.0980224609375,10.72599983215332 C526.4249877929688,-2.0260000228881836 530.3670043945312,-31.42300033569336 527.0759887695312,-44.14699935913086 C523.1589965820312,-59.29399871826172 502.73199462890625,-71.84400177001953 509.3210144042969,-82.6259994506836 C515.9099731445312,-93.40799713134766 539.405029296875,-71.33899688720703 550.75,-55.94300079345703 C562.094970703125,-40.547000885009766 567.5,-33.441001892089844 572.7739868164062,-18.211000442504883z"></path><path stroke-linecap="round" stroke-linejoin="round" fill-opacity="0" stroke="rgb(74,5,19)" stroke-opacity="1" stroke-width="8" d=" M572.7739868164062,-18.211000442504883 C577.4349975585938,-4.751999855041504 575.5770263671875,5.513999938964844 564.7949829101562,14.510000228881836 C554.0130004882812,23.506000518798828 539.0499877929688,22.100000381469727 533.0980224609375,10.72599983215332 C526.4249877929688,-2.0260000228881836 530.3670043945312,-31.42300033569336 527.0759887695312,-44.14699935913086 C523.1589965820312,-59.29399871826172 502.73199462890625,-71.84400177001953 509.3210144042969,-82.6259994506836 C515.9099731445312,-93.40799713134766 539.405029296875,-71.33899688720703 550.75,-55.94300079345703 C562.094970703125,-40.547000885009766 567.5,-33.441001892089844 572.7739868164062,-18.211000442504883z"></path></g></g><g style="display: block;" transform="matrix(1,0,0,1,-296.0000305175781,212)" opacity="1"><g class="2" opacity="1" transform="matrix(1,0,0,1,0,0)"><path fill="rgb(225,149,0)" fill-opacity="1" d=" M517.9990234375,-98.02100372314453 C524.1669921875,-88.04199981689453 506.2919921875,-78.125 500.64300537109375,-87.00800323486328 C494.74798583984375,-96.27799987792969 511.85101318359375,-107.96800231933594 517.9990234375,-98.02100372314453z"></path></g><g class="1" opacity="1" transform="matrix(1,0,0,1,0,0)"><path fill="rgb(255,238,18)" fill-opacity="1" d=" M513.7130126953125,-98.2229995727539 C516.9439697265625,-92.80500030517578 505.72198486328125,-85.16699981689453 501.7359924316406,-90.6240005493164 C498.1650085449219,-95.51300048828125 510.2749938964844,-103.98799896240234 513.7130126953125,-98.2229995727539z"></path></g><g class="2" opacity="1" transform="matrix(1,0,0,1,0,0)"><path fill="rgb(225,149,0)" fill-opacity="1" d=" M540.81298828125,-97.51200103759766 C544.958984375,-89.08300018310547 529.2080078125,-80.625 524.2310180664062,-89.73999786376953 C519.7650146484375,-97.91799926757812 536.1710205078125,-106.94999694824219 540.81298828125,-97.51200103759766z"></path></g><g class="1" opacity="1" transform="matrix(1,0,0,1,0,0)"><path fill="rgb(255,238,18)" fill-opacity="1" d=" M536.6119995117188,-98.73799896240234 C538.8889770507812,-94.38899993896484 528.1939697265625,-88.83300018310547 525.6179809570312,-93.58499908447266 C523.4190063476562,-97.63999938964844 533.958984375,-103.80500030517578 536.6119995117188,-98.73799896240234z"></path></g><g class="2" opacity="1" transform="matrix(1,0,0,1,0,0)"><path fill="rgb(225,149,0)" fill-opacity="1" d=" M507.4580078125,-71.93399810791016 C511.8330078125,-62.83300018310547 495.2919921875,-54.41699981689453 490.2279968261719,-63.858001708984375 C485.4519958496094,-72.76399993896484 502.77301025390625,-81.67900085449219 507.4580078125,-71.93399810791016z"></path></g><g class="1" opacity="1" transform="matrix(1,0,0,1,0,0)"><path fill="rgb(255,238,18)" fill-opacity="1" d=" M502.0249938964844,-73.9229965209961 C504.75,-69.52799987792969 494.6390075683594,-63.388999938964844 491.7829895019531,-67.42400360107422 C488.78399658203125,-71.66100311279297 499.4830017089844,-78.02400207519531 502.0249938964844,-73.9229965209961z"></path></g><g class="2" opacity="1" transform="matrix(1,0,0,1,0,0)"><path fill="rgb(225,149,0)" fill-opacity="1" d=" M533.7249755859375,-71.53099822998047 C535.5830078125,-59.375 513.625,-55.75 511.31201171875,-68.20899963378906 C509.0769958496094,-80.24700164794922 531.8319702148438,-83.91600036621094 533.7249755859375,-71.53099822998047z"></path></g><g class="1" opacity="1" transform="matrix(1,0,0,1,0,0)"><path fill="rgb(255,238,18)" fill-opacity="1" d=" M527.1680297851562,-75.86399841308594 C529.8889770507812,-70 516.1389770507812,-62.944000244140625 512.739013671875,-69.10099792480469 C509.5580139160156,-74.86199951171875 524.3499755859375,-81.93800354003906 527.1680297851562,-75.86399841308594z"></path></g><g class="2" opacity="1" transform="matrix(1,0,0,1,0,0)"><path fill="rgb(225,149,0)" fill-opacity="1" d=" M553.7239990234375,-83.13099670410156 C557.958984375,-75.33300018310547 542.4169921875,-65.83300018310547 537.1699829101562,-75.37200164794922 C532.7169799804688,-83.46800231933594 548.6409912109375,-92.48999786376953 553.7239990234375,-83.13099670410156z"></path></g><g class="1" opacity="1" transform="matrix(1,0,0,1,0,0)"><path fill="rgb(255,238,18)" fill-opacity="1" d=" M547.9630126953125,-84.47100067138672 C550.6110229492188,-80.27799987792969 541.333984375,-74.11100006103516 538.3309936523438,-78.35900115966797 C535.4310302734375,-82.46199798583984 545.2459716796875,-88.77400207519531 547.9630126953125,-84.47100067138672z"></path></g><g class="2" opacity="1" transform="matrix(1,0,0,1,0,0)"><path fill="rgb(225,149,0)" fill-opacity="1" d=" M532.9860229492188,-48.06999969482422 C534.6669921875,-37.95800018310547 515.875,-35.66699981689453 514.1840209960938,-45.284000396728516 C512.4520263671875,-55.13800048828125 531.3880004882812,-57.68299865722656 532.9860229492188,-48.06999969482422z"></path></g><g class="1" opacity="1" transform="matrix(1,0,0,1,0,0)"><path fill="rgb(242,182,34)" fill-opacity="1" d=" M526.3300170898438,-51.17300033569336 C528.25,-47.75 519.75,-43.5 517.52001953125,-47.79399871826172 C515.9320068359375,-50.85200119018555 524.27001953125,-54.845001220703125 526.3300170898438,-51.17300033569336z"></path></g><g class="2" opacity="1" transform="matrix(1,0,0,1,0,0)"><path fill="rgb(225,149,0)" fill-opacity="1" d=" M553.1099853515625,-61.87200164794922 C557.875,-51.79199981689453 538.6669921875,-42 533.6259765625,-52.73899841308594 C528.8369750976562,-62.941001892089844 547.958984375,-72.76899719238281 553.1099853515625,-61.87200164794922z"></path></g><g class="1" opacity="1" transform="matrix(1,0,0,1,0,0)"><path fill="rgb(255,238,18)" fill-opacity="1" d=" M546.7379760742188,-63.124000549316406 C549.3330078125,-58.305999755859375 538.7769775390625,-52.555999755859375 535.8560180664062,-56.840999603271484 C533.0809936523438,-60.9119987487793 544.2379760742188,-67.76499938964844 546.7379760742188,-63.124000549316406z"></path></g><g class="2" opacity="1" transform="matrix(1,0,0,1,0,0)"><path fill="rgb(225,149,0)" fill-opacity="1" d=" M573.2570190429688,-55.24399948120117 C577.75,-46.125 560.7919921875,-38.41600036621094 556.3179931640625,-47.30400085449219 C552.1619873046875,-55.56100082397461 568.489013671875,-64.9229965209961 573.2570190429688,-55.24399948120117z"></path></g><g class="1" opacity="1" transform="matrix(1,0,0,1,0,0)"><path fill="rgb(252,211,43)" fill-opacity="1" d=" M568.2440185546875,-55.599998474121094 C569.6389770507812,-51.91699981689453 560.8889770507812,-48.41600036621094 558.989990234375,-52.04999923706055 C557.1950073242188,-55.48500061035156 566.7680053710938,-59.499000549316406 568.2440185546875,-55.599998474121094z"></path></g><g class="2" opacity="1" transform="matrix(1,0,0,1,0,0)"><path fill="rgb(225,149,0)" fill-opacity="1" d=" M536.2559814453125,-28.017000198364258 C537.9580078125,-17.125 518.1710205078125,-12.956999778747559 515.7769775390625,-24.98200035095215 C513.5419921875,-36.20800018310547 534.489990234375,-39.31700134277344 536.2559814453125,-28.017000198364258z"></path></g><g class="1" opacity="1" transform="matrix(1,0,0,1,0,0)"><path fill="rgb(242,182,34)" fill-opacity="1" d=" M530.3359985351562,-31.240999221801758 C531.5,-27.5 521.25,-23 519.3170166015625,-28.26799964904785 C518.114990234375,-31.545000076293945 528.6900024414062,-36.53099822998047 530.3359985351562,-31.240999221801758z"></path></g><g class="2" opacity="1" transform="matrix(1,0,0,1,0,0)"><path fill="rgb(225,149,0)" fill-opacity="1" d=" M560.6420288085938,-36.573001861572266 C566.8330078125,-26.16699981689453 548.5419921875,-15.208999633789062 542.4099731445312,-25.003999710083008 C535.989990234375,-35.2599983215332 554.698974609375,-46.56100082397461 560.6420288085938,-36.573001861572266z"></path></g><g class="1" opacity="1" transform="matrix(1,0,0,1,0,0)"><path fill="rgb(252,211,43)" fill-opacity="1" d=" M555.85400390625,-36.400001525878906 C557.583984375,-32.375 547.375,-28.5 545.5759887695312,-32.45800018310547 C543.7969970703125,-36.37300109863281 554.0709838867188,-40.54999923706055 555.85400390625,-36.400001525878906z"></path></g></g></g></svg>