<svg xmlns="http://www.w3.org/2000/svg" viewBox="0 0 512 512" width="512" height="512" style="width: 100%; height: 100%; transform: translate3d(0,0,0);" preserveAspectRatio="xMidYMid meet"><defs><clipPath id="__lottie_element_13928"><rect width="512" height="512" x="0" y="0"></rect></clipPath><linearGradient id="__lottie_element_13951" spreadMethod="pad" gradientUnits="userSpaceOnUse" x1="-959.0020141601562" y1="0.5519999861717224" x2="-953.64599609375" y2="6.361999988555908"><stop offset="0%" stop-color="rgb(50,13,3)"></stop><stop offset="38%" stop-color="rgb(96,52,17)"></stop><stop offset="100%" stop-color="rgb(141,90,31)"></stop></linearGradient><linearGradient id="__lottie_element_13964" spreadMethod="pad" gradientUnits="userSpaceOnUse"><stop></stop><stop></stop><stop></stop></linearGradient><linearGradient id="__lottie_element_13968" spreadMethod="pad" gradientUnits="userSpaceOnUse"><stop></stop><stop></stop><stop></stop></linearGradient></defs><g clip-path="url(#__lottie_element_13928)"><g style="display: block;" transform="matrix(0.9800000190734863,0,0,0.9800000190734863,247.9603271484375,264.56982421875)" opacity="1"><g opacity="1" transform="matrix(1,0,0,1,0,0)"><path fill="rgb(56,0,5)" fill-opacity="1" d=" M113.56199645996094,-4.7170000076293945 C150.04100036621094,-11.805999755859375 156.9770050048828,-48.0890007019043 159.93699645996094,-49.17399978637695 C162.89700317382812,-50.25899887084961 193.0019989013672,-41.31800079345703 197.31300354003906,-27.232999801635742 C203.3070068359375,-7.651000022888184 218.88900756835938,0.6830000281333923 220.98699951171875,13.829999923706055 C189.83700561523438,50.183998107910156 222.48899841308594,50.94900131225586 183.86700439453125,78.86399841308594 C172.25900268554688,87.25399780273438 181.82699584960938,113.8280029296875 174.83399963378906,118.7229995727539 C167.84100341796875,123.61799621582031 157.3520050048828,112.42900085449219 141.26800537109375,137.9530029296875 C125.18399810791016,163.4770050048828 115.3949966430664,168.7220001220703 90.56999969482422,166.27499389648438 C65.74500274658203,163.8280029296875 62.79999923706055,194.83200073242188 48.40599822998047,191.28799438476562 C-3.5309998989105225,178.5 8.71399974822998,199.92799377441406 -16.69099998474121,187.2530059814453 C-26.698999404907227,182.25999450683594 -30.8439998626709,164.2740020751953 -59.077999114990234,169.77099609375 C-93.21399688720703,176.41700744628906 -87.56700134277344,140.43600463867188 -118.7760009765625,133.60000610351562 C-149.98500061035156,126.76499938964844 45.23500061035156,8.562000274658203 113.56199645996094,-4.7170000076293945z"></path><path stroke-linecap="round" stroke-linejoin="round" fill-opacity="0" stroke="rgb(36,0,5)" stroke-opacity="1" stroke-width="6" d=" M113.56199645996094,-4.7170000076293945 C150.04100036621094,-11.805999755859375 156.9770050048828,-48.0890007019043 159.93699645996094,-49.17399978637695 C162.89700317382812,-50.25899887084961 193.0019989013672,-41.31800079345703 197.31300354003906,-27.232999801635742 C203.3070068359375,-7.651000022888184 218.88900756835938,0.6830000281333923 220.98699951171875,13.829999923706055 C189.83700561523438,50.183998107910156 222.48899841308594,50.94900131225586 183.86700439453125,78.86399841308594 C172.25900268554688,87.25399780273438 181.82699584960938,113.8280029296875 174.83399963378906,118.7229995727539 C167.84100341796875,123.61799621582031 157.3520050048828,112.42900085449219 141.26800537109375,137.9530029296875 C125.18399810791016,163.4770050048828 115.3949966430664,168.7220001220703 90.56999969482422,166.27499389648438 C65.74500274658203,163.8280029296875 62.79999923706055,194.83200073242188 48.40599822998047,191.28799438476562 C-3.5309998989105225,178.5 8.71399974822998,199.92799377441406 -16.69099998474121,187.2530059814453 C-26.698999404907227,182.25999450683594 -30.8439998626709,164.2740020751953 -59.077999114990234,169.77099609375 C-93.21399688720703,176.41700744628906 -87.56700134277344,140.43600463867188 -118.7760009765625,133.60000610351562 C-149.98500061035156,126.76499938964844 45.23500061035156,8.562000274658203 113.56199645996094,-4.7170000076293945z"></path></g><g opacity="1" transform="matrix(1,0,0,1,0,0)"><g opacity="1" transform="matrix(1,0,0,1,0,0)"><g opacity="0.5" transform="matrix(1,0,0,1,0,0)"><path stroke-linecap="round" stroke-linejoin="round" fill-opacity="0" stroke="rgb(101,1,10)" stroke-opacity="1" stroke-width="6" d=" M33.189998626708984,147.80499267578125 C33.189998626708984,147.80499267578125 17.920000076293945,121.3550033569336 17.266000747680664,88.41699981689453"></path></g><g opacity="0.5" transform="matrix(1,0,0,1,0,0)"><path stroke-linecap="round" stroke-linejoin="round" fill-opacity="0" stroke="rgb(101,1,10)" stroke-opacity="1" stroke-width="6" d=" M-62.99399948120117,144.31900024414062 C-62.99399948120117,144.31900024414062 -39.125999450683594,130.8800048828125 -38.558998107910156,104.22699737548828"></path></g><g opacity="0.5" transform="matrix(1,0,0,1,0,0)"><path stroke-linecap="round" stroke-linejoin="round" fill-opacity="0" stroke="rgb(101,1,10)" stroke-opacity="1" stroke-width="6" d=" M169.71200561523438,43.43199920654297 C126.63899993896484,60.13999938964844 80.56099700927734,46.45899963378906 80.56099700927734,46.45899963378906"></path></g><g opacity="0.5" transform="matrix(1,0,0,1,0,0)"><path stroke-linecap="round" stroke-linejoin="round" fill-opacity="0" stroke="rgb(101,1,10)" stroke-opacity="1" stroke-width="6" d=" M183.38900756835938,66.5989990234375 C119.68299865722656,82.83699798583984 72.2239990234375,54.50199890136719 72.2239990234375,54.50199890136719"></path></g></g><g opacity="1" transform="matrix(1,0,0,1,0,0)"><path fill="rgb(101,1,10)" fill-opacity="1" d=" M175.5780029296875,93.01599884033203 C151.8260040283203,101.71499633789062 103.25700378417969,91.0979995727539 103.25700378417969,91.0979995727539 C109.94200134277344,95.9729995727539 159.61300659179688,125.5530014038086 173.55599975585938,115.5989990234375 C173.55599975585938,115.5989990234375 175.64300537109375,110.5989990234375 175.5780029296875,93.01599884033203z"></path></g><g opacity="1" transform="matrix(1,0,0,1,0,0)"><path fill="rgb(101,1,10)" fill-opacity="1" d=" M210.63900756835938,1.4320000410079956 C183.20399475097656,50.4379997253418 133.76300048828125,53.55699920654297 133.76300048828125,53.55699920654297 C186.80599975585938,50.70899963378906 216.38999938964844,13.932000160217285 216.38900756835938,11.557000160217285 C216.38800048828125,6.663000106811523 210.63900756835938,1.4320000410079956 210.63900756835938,1.4320000410079956z"></path></g><g opacity="1" transform="matrix(1,0,0,1,0,0)"><path fill="rgb(140,0,14)" fill-opacity="1" d=" M195.47300720214844,-20.011999130249023 C195.47300720214844,-20.011999130249023 166.11199951171875,32.32600021362305 96.63899993896484,34.93199920654297 C145.70399475097656,10.38700008392334 161.38900756835938,-46.06800079345703 161.38900756835938,-46.06800079345703 C161.38900756835938,-46.06800079345703 192.38999938964844,-41.06800079345703 195.47300720214844,-20.011999130249023z"></path></g></g></g><g style="display: block;" transform="matrix(0.9800000190734863,0,0,0.9800000190734863,247.9603271484375,264.56982421875)" opacity="1"><g opacity="1" transform="matrix(1,0,0,1,0,0)"><path fill="rgb(255,209,64)" fill-opacity="1" d=" M-49.91299819946289,-151.80499267578125 C-89.5270004272461,-133.1510009765625 -112.0790023803711,-149.66000366210938 -116.71700286865234,-172.6300048828125 C-116.71700286865234,-172.6300048828125 -126.15699768066406,-162.8769989013672 -121.83799743652344,-141.45700073242188 C-121.83799743652344,-141.45700073242188 -127.39199829101562,-143.177001953125 -130.4770050048828,-148.4219970703125 C-130.4770050048828,-148.4219970703125 -133.19200134277344,-126.09200286865234 -119.83499908447266,-112.53399658203125 C-119.83499908447266,-112.53399658203125 -129.04600524902344,-111.52100372314453 -135.03399658203125,-116.99299621582031 C-135.03399658203125,-116.99299621582031 -130.88900756835938,-80.55799865722656 -97.72699737548828,-66.73799896240234 C-64.56500244140625,-52.917999267578125 16.75,-79 15.052000045776367,-137.0679931640625"></path><path stroke-linecap="round" stroke-linejoin="round" fill-opacity="0" stroke="rgb(185,96,0)" stroke-opacity="1" stroke-width="6" d=" M-49.91299819946289,-151.80499267578125 C-89.5270004272461,-133.1510009765625 -112.0790023803711,-149.66000366210938 -116.71700286865234,-172.6300048828125 C-116.71700286865234,-172.6300048828125 -126.15699768066406,-162.8769989013672 -121.83799743652344,-141.45700073242188 C-121.83799743652344,-141.45700073242188 -127.39199829101562,-143.177001953125 -130.4770050048828,-148.4219970703125 C-130.4770050048828,-148.4219970703125 -133.19200134277344,-126.09200286865234 -119.83499908447266,-112.53399658203125 C-119.83499908447266,-112.53399658203125 -129.04600524902344,-111.52100372314453 -135.03399658203125,-116.99299621582031 C-135.03399658203125,-116.99299621582031 -130.88900756835938,-80.55799865722656 -97.72699737548828,-66.73799896240234 C-64.56500244140625,-52.917999267578125 16.75,-79 15.052000045776367,-137.0679931640625"></path></g><g opacity="0.5" transform="matrix(1,0,0,1,0,0)"><path fill="rgb(214,90,5)" fill-opacity="1" d=" M14.371999740600586,-135.8179931640625 C8.75,-75.5 -67.61699676513672,-55.1510009765625 -99.11100006103516,-70.31800079345703 C-131.48500061035156,-85.90799713134766 -130.86099243164062,-111.06800079345703 -130.86099243164062,-111.06800079345703 C-125.44400024414062,-108.6510009765625 -116.73600006103516,-111.69300079345703 -116.73600006103516,-111.69300079345703 C-129.9029998779297,-122.5260009765625 -127.61100006103516,-142.0679931640625 -127.61100006103516,-142.0679931640625 C-125.44400024414062,-139.1510009765625 -119.94400024414062,-139.9010009765625 -119.94400024414062,-139.9010009765625 C-121.0270004272461,-155.98399353027344 -118.7770004272461,-163.4010009765625 -117.66300201416016,-165.4929962158203 C-120.87799835205078,-142.16400146484375 -90.7760009765625,-95.4800033569336 -28.302000045776367,-139.50900268554688 C-15.265999794006348,-139.1020050048828 14.371999740600586,-135.8179931640625 14.371999740600586,-135.8179931640625z"></path></g></g><g style="display: block;" transform="matrix(0.9800000190734863,0,0,0.9800000190734863,247.96005249023438,260.649658203125)" opacity="1"><g opacity="1" transform="matrix(1,0,0,1,0,0)"><path fill="rgb(255,209,64)" fill-opacity="1" d=" M90.24099731445312,80.73799896240234 C93.10399627685547,91.62699890136719 91.26399993896484,154.0399932861328 101.50199890136719,197.06100463867188 C101.50199890136719,197.06100463867188 73.89399719238281,201.43800354003906 73.89399719238281,201.43800354003906 C74.27100372314453,184.10400390625 67.43499755859375,168.91700744628906 60.534000396728516,144.26600646972656 C53.632999420166016,119.61499786376953 61.30099868774414,96.16400146484375 61.30099868774414,96.16400146484375"></path><path stroke-linecap="round" stroke-linejoin="round" fill-opacity="0" stroke="rgb(196,118,32)" stroke-opacity="1" stroke-width="6" d=" M90.24099731445312,80.73799896240234 C93.10399627685547,91.62699890136719 91.26399993896484,154.0399932861328 101.50199890136719,197.06100463867188 C101.50199890136719,197.06100463867188 73.89399719238281,201.43800354003906 73.89399719238281,201.43800354003906 C74.27100372314453,184.10400390625 67.43499755859375,168.91700744628906 60.534000396728516,144.26600646972656 C53.632999420166016,119.61499786376953 61.30099868774414,96.16400146484375 61.30099868774414,96.16400146484375"></path></g><g opacity="1" transform="matrix(1,0,0,1,0,0)"><path fill="rgb(229,169,48)" fill-opacity="1" d=" M88.3740005493164,96.26000213623047 C80.78500366210938,88.822998046875 63.86600112915039,107.47899627685547 71.3219985961914,152.67799377441406 C75.82499694824219,179.97500610351562 76.57099914550781,187.6020050048828 76.2699966430664,191.7989959716797 C72.23500061035156,163.11300659179688 51.82600021362305,131.22500610351562 64.05599975585938,95.5989990234375 C66.28199768066406,89.11499786376953 92.38800048828125,58.26499938964844 88.3740005493164,96.26000213623047z"></path></g></g><g style="display: block;" transform="matrix(0.9800000190734863,0,0,0.9800000190734863,247.96005249023438,260.649658203125)" opacity="1"><g opacity="1" transform="matrix(1,0,0,1,0,0)"><path fill="rgb(229,169,48)" fill-opacity="1" d=" M61.30099868774414,96.16400146484375 C33.62099838256836,87.3550033569336 -4.0370001792907715,69.46399688720703 -4.0370001792907715,69.46399688720703 C-4.0370001792907715,69.46399688720703 7.730999946594238,31.305999755859375 7.730999946594238,31.305999755859375 C7.730999946594238,31.305999755859375 84.78500366210938,58.375 90.24099731445312,80.73799896240234"></path><path stroke-linecap="round" stroke-linejoin="round" fill-opacity="0" stroke="rgb(183,100,19)" stroke-opacity="1" stroke-width="6" d=" M61.30099868774414,96.16400146484375 C33.62099838256836,87.3550033569336 -4.0370001792907715,69.46399688720703 -4.0370001792907715,69.46399688720703 C-4.0370001792907715,69.46399688720703 7.730999946594238,31.305999755859375 7.730999946594238,31.305999755859375 C7.730999946594238,31.305999755859375 84.78500366210938,58.375 90.24099731445312,80.73799896240234"></path></g></g><g style="display: block;" transform="matrix(0.9800000190734863,0,0,0.9800000190734863,247.95982360839844,260.64996337890625)" opacity="1"><g opacity="1" transform="matrix(1,0,0,1,0,0)"><g opacity="1" transform="matrix(1,0,0,1,0,0)"><path fill="rgb(255,209,64)" fill-opacity="1" d=" M100.94999694824219,192.9499969482422 C103.93199920654297,200.60499572753906 116.38200378417969,234.5290069580078 127.7490005493164,235.1959991455078 C136.22500610351562,235.6929931640625 143.44000244140625,237.75900268554688 146.47300720214844,246.4320068359375 C148.74200439453125,252.9199981689453 114.4020004272461,252.45399475097656 112.91999816894531,250.50100708007812 C103.177001953125,237.66000366210938 72.49500274658203,210.78199768066406 73.62100219726562,197.6580047607422"></path><path stroke-linecap="round" stroke-linejoin="round" fill-opacity="0" stroke="rgb(196,118,32)" stroke-opacity="1" stroke-width="6" d=" M100.94999694824219,192.9499969482422 C103.93199920654297,200.60499572753906 116.38200378417969,234.5290069580078 127.7490005493164,235.1959991455078 C136.22500610351562,235.6929931640625 143.44000244140625,237.75900268554688 146.47300720214844,246.4320068359375 C148.74200439453125,252.9199981689453 114.4020004272461,252.45399475097656 112.91999816894531,250.50100708007812 C103.177001953125,237.66000366210938 72.49500274658203,210.78199768066406 73.62100219726562,197.6580047607422"></path></g></g><g opacity="1" transform="matrix(1,0,0,1,0,0)"><path fill="rgb(183,0,35)" fill-opacity="1" d=" M73.51100158691406,198.75900268554688 C59.66699981689453,213.52200317382812 77.7760009765625,233.61599731445312 80.82599639892578,250.55099487304688 C85.697998046875,239.6179962158203 90.60199737548828,207.6510009765625 73.51100158691406,198.75900268554688z"></path></g><g opacity="1" transform="matrix(1,0,0,1,0,0)"><path stroke-linecap="round" stroke-linejoin="round" fill-opacity="0" stroke="rgb(129,0,13)" stroke-opacity="1" stroke-width="6" d=" M109.01799774169922,204.13499450683594 C109.01799774169922,204.13499450683594 106.91400146484375,213.65699768066406 86.7750015258789,215.0959930419922"></path></g><g opacity="1" transform="matrix(1,0,0,1,0,0)"><path stroke-linecap="round" stroke-linejoin="round" fill-opacity="0" stroke="rgb(129,0,13)" stroke-opacity="1" stroke-width="6" d=" M122.27899932861328,232.38400268554688 C122.27899932861328,232.38400268554688 124.15899658203125,239.67300415039062 119.8479995727539,251.16799926757812"></path></g><g opacity="1" transform="matrix(1,0,0,1,0,0)"><path stroke-linecap="round" stroke-linejoin="round" fill-opacity="0" stroke="rgb(129,0,13)" stroke-opacity="1" stroke-width="6" d=" M130.0500030517578,234.14700317382812 C130.0500030517578,234.14700317382812 133.0679931640625,242.69000244140625 130.0500030517578,251.16799926757812"></path></g><g opacity="1" transform="matrix(1,0,0,1,0,0)"><path stroke-linecap="round" stroke-linejoin="round" fill-opacity="0" stroke="rgb(129,0,13)" stroke-opacity="1" stroke-width="6" d=" M137.39500427246094,235.43800354003906 C137.39500427246094,235.43800354003906 141.26600646972656,240.60000610351562 139.62100219726562,251.16799926757812"></path></g><g opacity="1" transform="matrix(1,0,0,1,0,0)"><path stroke-linecap="round" stroke-linejoin="round" fill-opacity="0" stroke="rgb(129,0,13)" stroke-opacity="1" stroke-width="6" d=" M148.2449951171875,251.16799926757812 C148.2449951171875,251.16799926757812 115.8030014038086,251.7429962158203 115.8030014038086,251.7429962158203 C109.822998046875,251.72999572753906 98.29399871826172,228.78599548339844 90.24099731445312,228.28900146484375 C81.4229965209961,227.7449951171875 82.31900024414062,252.8990020751953 82.31900024414062,252.8990020751953 C82.31900024414062,252.8990020751953 79.04000091552734,252.8990020751953 79.04000091552734,252.8990020751953 C79.04000091552734,252.8990020751953 79.0530014038086,235.9550018310547 75.03199768066406,229.92999267578125 C72.38500213623047,225.96400451660156 60.09199905395508,214.27499389648438 73.51100158691406,198.75900268554688 C73.51100158691406,198.75900268554688 88.77300262451172,207.06700134277344 87.5510025024414,228.13600158691406"></path></g></g><g style="display: block;" transform="matrix(0.9800000190734863,0,0,0.9800000190734863,247.96026611328125,264.5697937011719)" opacity="1"><g opacity="1" transform="matrix(1,0,0,1,0,0)"><path fill="rgb(229,169,48)" fill-opacity="1" d=" M15.295999526977539,136.84300231933594 C7.693999767303467,146.35699462890625 -46.643001556396484,171.35800170898438 -66.36100006103516,196.01600646972656 C-73.68399810791016,197.1230010986328 -97.2020034790039,192.01400756835938 -97.2020034790039,192.01400756835938 C-70.62200164794922,178.2449951171875 -59.39799880981445,129.01100158691406 -10.83899974822998,123.77100372314453"></path><path stroke-linecap="round" stroke-linejoin="round" fill-opacity="0" stroke="rgb(183,100,19)" stroke-opacity="1" stroke-width="6" d=" M15.295999526977539,136.84300231933594 C7.693999767303467,146.35699462890625 -46.643001556396484,171.35800170898438 -66.36100006103516,196.01600646972656 C-73.68399810791016,197.1230010986328 -97.2020034790039,192.01400756835938 -97.2020034790039,192.01400756835938 C-70.62200164794922,178.2449951171875 -59.39799880981445,129.01100158691406 -10.83899974822998,123.77100372314453"></path></g></g><g style="display: block;" transform="matrix(0.9800000190734863,0,0,0.9800000190734863,247.96026611328125,264.5697937011719)" opacity="1"><g opacity="1" transform="matrix(1,0,0,1,0,0)"><path fill="rgb(229,169,48)" fill-opacity="1" d=" M-94.11100006103516,188.94200134277344 C-93.0719985961914,206.68899536132812 -68.1989974975586,226.8419952392578 -57.51499938964844,239.05999755859375 C-52.944000244140625,239.28900146484375 -28.756999969482422,239.4320068359375 -30.027000427246094,234.1820068359375 C-30.70599937438965,225.5290069580078 -39.40800094604492,223.91200256347656 -46.92599868774414,223.4080047607422 C-56.59199905395508,222.76100158691406 -62.7239990234375,198.24200439453125 -63.986000061035156,192.5570068359375"></path><path stroke-linecap="round" stroke-linejoin="round" fill-opacity="0" stroke="rgb(183,100,19)" stroke-opacity="1" stroke-width="6" d=" M-94.11100006103516,188.94200134277344 C-93.0719985961914,206.68899536132812 -68.1989974975586,226.8419952392578 -57.51499938964844,239.05999755859375 C-52.944000244140625,239.28900146484375 -28.756999969482422,239.4320068359375 -30.027000427246094,234.1820068359375 C-30.70599937438965,225.5290069580078 -39.40800094604492,223.91200256347656 -46.92599868774414,223.4080047607422 C-56.59199905395508,222.76100158691406 -62.7239990234375,198.24200439453125 -63.986000061035156,192.5570068359375"></path></g><g opacity="1" transform="matrix(1,0,0,1,0,0)"><path fill="rgb(183,0,35)" fill-opacity="1" d=" M-95.00399780273438,188.94200134277344 C-111.31099700927734,206.4340057373047 -89.75599670410156,215.49000549316406 -88.48600006103516,240.1540069580078 C-88.4800033569336,218.8070068359375 -71.51499938964844,203.88299560546875 -95.00399780273438,188.94200134277344z"></path></g><g opacity="1" transform="matrix(1,0,0,1,0,0)"><path stroke-linecap="round" stroke-linejoin="round" fill-opacity="0" stroke="rgb(129,0,13)" stroke-opacity="1" stroke-width="6" d=" M-60.91400146484375,199.21099853515625 C-60.91400146484375,199.21099853515625 -68.02200317382812,204.13499450683594 -84.8270034790039,201.80299377441406"></path></g><g opacity="1" transform="matrix(1,0,0,1,0,0)"><path stroke-linecap="round" stroke-linejoin="round" fill-opacity="0" stroke="rgb(129,0,13)" stroke-opacity="1" stroke-width="6" d=" M-51.775001525878906,220.7480010986328 C-51.775001525878906,220.7480010986328 -50.10900115966797,227.64199829101562 -53.93000030517578,238.51600646972656"></path></g><g opacity="1" transform="matrix(1,0,0,1,0,0)"><path stroke-linecap="round" stroke-linejoin="round" fill-opacity="0" stroke="rgb(129,0,13)" stroke-opacity="1" stroke-width="6" d=" M-44.35900115966797,222.64500427246094 C-44.35900115966797,222.64500427246094 -42.21099853515625,230.4969940185547 -44.88600158691406,238.51600646972656"></path></g><g opacity="1" transform="matrix(1,0,0,1,0,0)"><path stroke-linecap="round" stroke-linejoin="round" fill-opacity="0" stroke="rgb(129,0,13)" stroke-opacity="1" stroke-width="6" d=" M-37.09400177001953,224.3939971923828 C-37.09400177001953,224.3939971923828 -33.79499816894531,231.08399963378906 -36.402000427246094,238.51600646972656"></path></g><g opacity="1" transform="matrix(1,0,0,1,0,0)"><path stroke-linecap="round" stroke-linejoin="round" fill-opacity="0" stroke="rgb(129,0,13)" stroke-opacity="1" stroke-width="6" d=" M-28.756999969482422,238.51600646972656 C-28.756999969482422,238.51600646972656 -57.51499938964844,239.05999755859375 -57.51499938964844,239.05999755859375 C-62.816001892089844,239.04800415039062 -73.06400299072266,217.7469940185547 -80.17400360107422,216.87399291992188 C-89.37200164794922,215.7449951171875 -87.19599914550781,240.1540069580078 -87.19599914550781,240.1540069580078 C-87.19599914550781,240.1540069580078 -90.10299682617188,240.1540069580078 -90.10299682617188,240.1540069580078 C-90.10299682617188,240.1540069580078 -90.09100341796875,224.1269989013672 -93.65599822998047,218.427001953125 C-96.00199890136719,214.6750030517578 -106.89900207519531,203.61900329589844 -95.00399780273438,188.94200134277344 C-95.00399780273438,188.94200134277344 -81.47599792480469,196.8000030517578 -82.55899810791016,216.72999572753906"></path></g></g><g style="display: block;" transform="matrix(0.9800000190734863,0,0,0.9800000190734863,247.96026611328125,264.5697937011719)" opacity="1"><g opacity="1" transform="matrix(1,0,0,1,0,0)"><path fill="rgb(229,169,48)" fill-opacity="1" d=" M15.295999526977539,136.84300231933594 C22.70599937438965,129.31700134277344 25.003000259399414,75.2020034790039 24.74799919128418,60.14099884033203 C24.74799919128418,60.14099884033203 -12.520000457763672,60.14099884033203 -12.520000457763672,60.14099884033203 C-20.361000061035156,103.51699829101562 -9.361000061035156,127.55699920654297 -9.361000061035156,127.55699920654297"></path><path stroke-linecap="round" stroke-linejoin="round" fill-opacity="0" stroke="rgb(183,100,19)" stroke-opacity="1" stroke-width="6" d=" M15.295999526977539,136.84300231933594 C22.70599937438965,129.31700134277344 25.003000259399414,75.2020034790039 24.74799919128418,60.14099884033203 C24.74799919128418,60.14099884033203 -12.520000457763672,60.14099884033203 -12.520000457763672,60.14099884033203 C-20.361000061035156,103.51699829101562 -9.361000061035156,127.55699920654297 -9.361000061035156,127.55699920654297"></path></g></g><g style="display: block;" transform="matrix(0.9800000190734863,0,0,0.9800000190734863,247.9603271484375,264.56982421875)" opacity="1"><g opacity="1" transform="matrix(1,0,0,1,0,0)"><path fill="rgb(255,209,64)" fill-opacity="1" d=" M63.22999954223633,-68.04100036621094 C55.54100036621094,-66.68199920654297 11.607999801635742,-85.4739990234375 11.607999801635742,-85.4739990234375 C11.607999801635742,-85.4739990234375 1.5210000276565552,-116.09100341796875 1.5210000276565552,-116.09100341796875 C14.326000213623047,-115.37799835205078 54.435001373291016,-92.84400177001953 54.435001373291016,-92.84400177001953"></path><path stroke-linecap="round" stroke-linejoin="round" fill-opacity="0" stroke="rgb(183,100,19)" stroke-opacity="1" stroke-width="6" d=" M63.22999954223633,-68.04100036621094 C55.54100036621094,-66.68199920654297 11.607999801635742,-85.4739990234375 11.607999801635742,-85.4739990234375 C11.607999801635742,-85.4739990234375 1.5210000276565552,-116.09100341796875 1.5210000276565552,-116.09100341796875 C14.326000213623047,-115.37799835205078 54.435001373291016,-92.84400177001953 54.435001373291016,-92.84400177001953"></path></g><g opacity="0.4" transform="matrix(1,0,0,1,0,0)"><path fill="rgb(196,118,32)" fill-opacity="1" d=" M10.20199966430664,-90.06800079345703 C7.158999919891357,-93.51300048828125 0,-117.04499816894531 8.819999694824219,-112.5530014038086 C20.277999877929688,-106.71700286865234 31.888999938964844,-100.69300079345703 33.446998596191406,-99.73999786376953 C30.6560001373291,-95.8030014038086 30.07900047302246,-86.10700225830078 38.402000427246094,-77.92400360107422 C34.72800064086914,-78.98500061035156 12.51200008392334,-87.46700286865234 10.20199966430664,-90.06800079345703z"></path></g></g><g style="display: block;" transform="matrix(0.9800000190734863,0,0,0.9800000190734863,247.9603271484375,264.56982421875)" opacity="1"><g opacity="1" transform="matrix(1,0,0,1,0,0)"><path fill="rgb(255,209,64)" fill-opacity="1" d=" M63.22999954223633,-68.04100036621094 C72.67500305175781,-69.14900207519531 93.28099822998047,-132.63600158691406 90.82599639892578,-150.80099487304688 C90.82599639892578,-150.80099487304688 76.96199798583984,-147.02200317382812 76.96199798583984,-147.02200317382812 C76.96199798583984,-147.02200317382812 68.63200378417969,-116.99299621582031 54.435001373291016,-92.84400177001953"></path><path stroke-linecap="round" stroke-linejoin="round" fill-opacity="0" stroke="rgb(196,118,32)" stroke-opacity="1" stroke-width="6" d=" M63.22999954223633,-68.04100036621094 C72.67500305175781,-69.14900207519531 93.28099822998047,-132.63600158691406 90.82599639892578,-150.80099487304688 C90.82599639892578,-150.80099487304688 76.96199798583984,-147.02200317382812 76.96199798583984,-147.02200317382812 C76.96199798583984,-147.02200317382812 68.63200378417969,-116.99299621582031 54.435001373291016,-92.84400177001953"></path></g></g><g style="display: block;" transform="matrix(0.9800000190734863,0,0,0.9800000190734863,247.9603271484375,264.56982421875)" opacity="1"><g opacity="1" transform="matrix(1,0,0,1,0,0)"><path fill="rgb(255,209,64)" fill-opacity="1" d=" M91.02400207519531,-146.9010009765625 C92.2229995727539,-159.11399841308594 82.01599884033203,-165.2259979248047 81.80000305175781,-166.26600646972656 C81.58399963378906,-167.30599975585938 82.5770034790039,-172.29600524902344 86.06900024414062,-178.91700744628906 C90.27100372314453,-186.88499450683594 86.56600189208984,-188.83299255371094 82.43599700927734,-182.78199768066406 C82.43599700927734,-182.78199768066406 86.02100372314453,-193.2050018310547 82.53700256347656,-194.33599853515625 C77.2020034790039,-196.06700134277344 73.31199645996094,-180.51400756835938 73.31199645996094,-180.51400756835938 C74.7509994506836,-187.06300354003906 75.73500061035156,-191.44900512695312 75.73500061035156,-194.10699462890625 C75.73500061035156,-197.60899353027344 69.96800231933594,-199.7729949951172 67.89800262451172,-194.21099853515625 C57.375,-165.92999267578125 63.933998107910156,-164.53199768066406 63.933998107910156,-164.53199768066406 C63.933998107910156,-164.53199768066406 58.58700180053711,-155.93800354003906 76.37200164794922,-142.73399353027344"></path><path stroke-linecap="round" stroke-linejoin="round" fill-opacity="0" stroke="rgb(196,118,32)" stroke-opacity="1" stroke-width="6" d=" M91.02400207519531,-146.9010009765625 C92.2229995727539,-159.11399841308594 82.01599884033203,-165.2259979248047 81.80000305175781,-166.26600646972656 C81.58399963378906,-167.30599975585938 82.5770034790039,-172.29600524902344 86.06900024414062,-178.91700744628906 C90.27100372314453,-186.88499450683594 86.56600189208984,-188.83299255371094 82.43599700927734,-182.78199768066406 C82.43599700927734,-182.78199768066406 86.02100372314453,-193.2050018310547 82.53700256347656,-194.33599853515625 C77.2020034790039,-196.06700134277344 73.31199645996094,-180.51400756835938 73.31199645996094,-180.51400756835938 C74.7509994506836,-187.06300354003906 75.73500061035156,-191.44900512695312 75.73500061035156,-194.10699462890625 C75.73500061035156,-197.60899353027344 69.96800231933594,-199.7729949951172 67.89800262451172,-194.21099853515625 C57.375,-165.92999267578125 63.933998107910156,-164.53199768066406 63.933998107910156,-164.53199768066406 C63.933998107910156,-164.53199768066406 58.58700180053711,-155.93800354003906 76.37200164794922,-142.73399353027344"></path></g><g opacity="1" transform="matrix(1,0,0,1,0,0)"><path fill="rgb(255,209,64)" fill-opacity="1" d=" M74.26000213623047,-164.2760009765625 C74.26000213623047,-164.2760009765625 80.83200073242188,-176.73199462890625 75.23799896240234,-178.76199340820312 C70.33200073242188,-180.54299926757812 63.75699996948242,-166.50799560546875 63.058998107910156,-160.86199951171875"></path><path stroke-linecap="round" stroke-linejoin="round" fill-opacity="0" stroke="rgb(196,118,32)" stroke-opacity="1" stroke-width="6" d=" M74.26000213623047,-164.2760009765625 C74.26000213623047,-164.2760009765625 80.83200073242188,-176.73199462890625 75.23799896240234,-178.76199340820312 C70.33200073242188,-180.54299926757812 63.75699996948242,-166.50799560546875 63.058998107910156,-160.86199951171875"></path></g></g><g style="display: block;" transform="matrix(0.9800000190734863,0,0,0.9800000190734863,247.9603271484375,264.56982421875)" opacity="1"><g opacity="1" transform="matrix(1,0,0,1,0,0)"><path fill="rgb(255,209,64)" fill-opacity="1" d=" M-5.624000072479248,-132.8730010986328 C-5.624000072479248,-132.8730010986328 -7.9629998207092285,-121.37100219726562 -1.2009999752044678,-112.53399658203125 C51.57099914550781,-12.82699966430664 -60.779998779296875,-94.47000122070312 -42.60499954223633,-112.28099822998047 C-29.90999984741211,-124.72200012207031 -26.922000885009766,-151.80499267578125 -26.922000885009766,-151.80499267578125 C-26.922000885009766,-151.80499267578125 -5.624000072479248,-132.8730010986328 -5.624000072479248,-132.8730010986328z"></path><path stroke-linecap="round" stroke-linejoin="round" fill-opacity="0" stroke="rgb(183,100,19)" stroke-opacity="1" stroke-width="6" d=" M-5.624000072479248,-132.8730010986328 C-5.624000072479248,-132.8730010986328 -7.9629998207092285,-121.37100219726562 -1.2009999752044678,-112.53399658203125 C51.57099914550781,-12.82699966430664 -60.779998779296875,-94.47000122070312 -42.60499954223633,-112.28099822998047 C-29.90999984741211,-124.72200012207031 -26.922000885009766,-151.80499267578125 -26.922000885009766,-151.80499267578125 C-26.922000885009766,-151.80499267578125 -5.624000072479248,-132.8730010986328 -5.624000072479248,-132.8730010986328z"></path></g><g opacity="1" transform="matrix(1,0,0,1,0,0)"><path fill="rgb(229,169,48)" fill-opacity="1" d=" M-8.496999740600586,-120.48899841308594 C-18.65399932861328,-129.41200256347656 -27.4689998626709,-125.55799865722656 -32.321998596191406,-121.86399841308594 C-30.04800033569336,-127.91500091552734 -27.29599952697754,-133.02999877929688 -27.547000885009766,-137.48800659179688 C-27.993999481201172,-145.4459991455078 -19.240999221801758,-140.4320068359375 -9.151000022888184,-131.75799560546875 C-7.710000038146973,-130.5189971923828 -9.861000061035156,-127.05799865722656 -8.496999740600586,-120.48899841308594z"></path></g></g><g style="display: block;" transform="matrix(0.9800000190734863,0,0,0.9800000190734863,247.9603271484375,264.56982421875)" opacity="1"><g opacity="1" transform="matrix(1,0,0,1,0,0)"><path fill="rgb(216,0,47)" fill-opacity="1" d=" M-42.150001525878906,-14.817000389099121 C-41.361000061035156,-42.983001708984375 -33.486000061035156,-92.03099822998047 -43.361000061035156,-112.53399658203125 C-33.611000061035156,-114.19300079345703 -12.638999938964844,-75.60299682617188 -0.27399998903274536,-77.33399963378906 C12.090999603271484,-79.06500244140625 -2.4600000381469727,-115.69999694824219 1.2760000228881836,-117.40699768066406 C12.031000137329102,-89.86699676513672 49.529998779296875,-62.31700134277344 19.003000259399414,-48.939998626708984 C19.003000259399414,-48.939998626708984 18.465999603271484,-26.64699935913086 20.80299949645996,-10.984000205993652 C13.050999641418457,-7.468999862670898 -9.142999649047852,1.7139999866485596 -42.150001525878906,-14.817000389099121z"></path></g><g opacity="1" transform="matrix(1,0,0,1,0,0)"><path fill="rgb(173,0,37)" fill-opacity="1" d=" M21.166000366210938,-9.923999786376953 C21.166000366210938,-9.923999786376953 -9.109999656677246,-2.4539999961853027 -14.899999618530273,-8.982000350952148 C-18.624000549316406,-15.807999610900879 -29.354000091552734,-35.143001556396484 3.3440001010894775,-43.90599822998047 C-5.401000022888184,-42.797000885009766 -30.364999771118164,-45.13600158691406 -26.725000381469727,-70.86100006103516 C-22.683000564575195,-99.42400360107422 -42.604000091552734,-112.28099822998047 -42.604000091552734,-112.28099822998047 C-23.111000061035156,-68.04199981689453 -48.36899948120117,-52.0890007019043 -48.36899948120117,-52.0890007019043 C-48.36899948120117,-52.0890007019043 -45.11199951171875,-28.0049991607666 -41.07699966430664,-16.979000091552734 C-40.70899963378906,-15.972999572753906 -21.361000061035156,32.31800079345703 32.624000549316406,17.079999923706055 C32.624000549316406,17.079999923706055 23.33300018310547,-6.658999919891357 21.166000366210938,-9.923999786376953z"></path></g><g opacity="1" transform="matrix(1,0,0,1,0,0)"><path stroke-linecap="round" stroke-linejoin="round" fill-opacity="0" stroke="rgb(142,0,34)" stroke-opacity="1" stroke-width="6" d=" M-44.36199951171875,-44.882999420166016 C-44.36199951171875,-44.882999420166016 -6.633999824523926,-38.89799880981445 19.257999420166016,-48.17399978637695"></path></g><g opacity="0.7000000000000001" transform="matrix(1,0,0,1,0,0)"><path fill="rgb(255,125,159)" fill-opacity="1" d=" M19.2549991607666,-48.17599868774414 C19.2549991607666,-48.17599868774414 18.219999313354492,-29.57200050354004 20.549999237060547,-11.20199966430664 C20.549999237060547,-11.20199966430664 12.645999908447266,-8.810999870300293 12.645999908447266,-8.810999870300293 C10.939000129699707,-21.64699935913086 11.277999877929688,-40.02299880981445 11.727999687194824,-45.53099822998047 C12.472999572753906,-54.6510009765625 32.375,-58.81800079345703 19.510000228881836,-75.13400268554688 C4.854000091552734,-93.72200012207031 0.12700000405311584,-115.37300109863281 -0.4959999918937683,-116.37699890136719 C-0.4959999918937683,-116.37699890136719 7.739999771118164,-101.28099822998047 15.217000007629395,-92.84600067138672 C47.595001220703125,-56.31700134277344 19.2549991607666,-48.17599868774414 19.2549991607666,-48.17599868774414z"></path></g><g opacity="1" transform="matrix(1,0,0,1,0,0)"><path stroke-linecap="round" stroke-linejoin="round" fill-opacity="0" stroke="rgb(114,0,17)" stroke-opacity="1" stroke-width="6" d=" M-18.43199920654297,-7.057000160217285 C-10.0649995803833,-3.0739998817443848 -0.6629999876022339,15.08899974822998 15.295999526977539,19.041000366210938"></path></g><g opacity="1" transform="matrix(1,0,0,1,0,0)"><path stroke-linecap="round" stroke-linejoin="round" fill-opacity="0" stroke="rgb(142,0,34)" stroke-opacity="1" stroke-width="6" d=" M20.547000885009766,-11.204999923706055 C-17.81599998474121,-0.07100000232458115 -42.150001525878906,-14.817000389099121 -42.150001525878906,-14.817000389099121"></path></g><g opacity="1" transform="matrix(1,0,0,1,0,0)"><path stroke-linecap="round" stroke-linejoin="round" fill-opacity="0" stroke="rgb(114,0,17)" stroke-opacity="1" stroke-width="6" d=" M-42.150001525878906,-14.817000389099121 C-48.17399978637695,-42.92900085449219 -48.68299865722656,-81.4489974975586 -52.29800033569336,-111.21700286865234 C-52.29800033569336,-111.21700286865234 -42.60100173950195,-112.9800033569336 -38.301998138427734,-111.75199890136719 C-34.00299835205078,-110.52400207519531 -12.638999938964844,-75.60299682617188 -0.27399998903274536,-77.33399963378906 C12.090999603271484,-79.06500244140625 -0.6269999742507935,-112.56700134277344 -2.930000066757202,-116.2770004272461 C-2.930000066757202,-116.2770004272461 -0.8019999861717224,-116.59700012207031 1.5210000276565552,-116.09100341796875 C1.5210000276565552,-116.09100341796875 8.460000038146973,-102.54299926757812 14.220999717712402,-92.84400177001953 C18.257999420166016,-86.0469970703125 32.625,-76.85600280761719 30.795000076293945,-62.59400177001953 C29.466999053955078,-52.2400016784668 19.257999420166016,-48.17399978637695 19.257999420166016,-48.17399978637695 C19.257999420166016,-48.17399978637695 18.218000411987305,-29.56999969482422 20.547000885009766,-11.204999923706055 C20.547000885009766,-11.204999923706055 25.038999557495117,-3.4820001125335693 32.624000549316406,17.079999923706055"></path></g></g><g style="display: block;" transform="matrix(0.9800000190734863,0,0,0.9800000190734863,247.9603271484375,264.56982421875)" opacity="1"><g opacity="1" transform="matrix(1,0,0,1,0,0)"><path fill="rgb(255,209,64)" fill-opacity="1" d=" M-8.678000450134277,-127.86900329589844 C-3.190999984741211,-126.2229995727539 5.730000019073486,-127.3489990234375 10.923999786376953,-128.89100646972656 C15.739999771118164,-130.3209991455078 17.67099952697754,-132.5240020751953 17.327999114990234,-136.38999938964844 C16.68199920654297,-143.6649932861328 20.045000076293945,-148.56900024414062 20.045000076293945,-148.56900024414062 C24.639999389648438,-149.2989959716797 29.5049991607666,-155.17300415039062 20.000999450683594,-159.72799682617188 C20.43400001525879,-179.81700134277344 15.581999778747559,-187.81900024414062 15.581999778747559,-187.81900024414062 C15.581999778747559,-187.81900024414062 -50.97999954223633,-195.47999572753906 -39.625,-143.8679962158203"></path><path stroke-linecap="round" stroke-linejoin="round" fill-opacity="0" stroke="rgb(196,118,32)" stroke-opacity="1" stroke-width="6" d=" M-8.678000450134277,-127.86900329589844 C-3.190999984741211,-126.2229995727539 5.730000019073486,-127.3489990234375 10.923999786376953,-128.89100646972656 C15.739999771118164,-130.3209991455078 17.67099952697754,-132.5240020751953 17.327999114990234,-136.38999938964844 C16.68199920654297,-143.6649932861328 20.045000076293945,-148.56900024414062 20.045000076293945,-148.56900024414062 C24.639999389648438,-149.2989959716797 29.5049991607666,-155.17300415039062 20.000999450683594,-159.72799682617188 C20.43400001525879,-179.81700134277344 15.581999778747559,-187.81900024414062 15.581999778747559,-187.81900024414062 C15.581999778747559,-187.81900024414062 -50.97999954223633,-195.47999572753906 -39.625,-143.8679962158203"></path></g><g opacity="1" transform="matrix(1,0,0,1,0,0)"><path fill="rgb(229,169,48)" fill-opacity="1" d=" M-39.944000244140625,-157.5679931640625 C-39.944000244140625,-157.5679931640625 -8.53600025177002,-155.9199981689453 -8.53600025177002,-155.9199981689453 C-14.241000175476074,-146.197998046875 2.6389999389648438,-125.6510009765625 14.232999801635742,-134.6300048828125 C-9.270999908447266,-117.03600311279297 -43.32699966430664,-142.54600524902344 -39.944000244140625,-157.5679931640625z"></path></g></g><g style="display: none;"><g><path></path></g></g><g style="display: block;" transform="matrix(0.9800000190734863,0,0,0.9800000190734863,247.9603271484375,264.56982421875)" opacity="1"><g opacity="1" transform="matrix(1,0,0,1,0,0)"><path fill="rgb(183,0,35)" fill-opacity="1" d=" M-42.150001525878906,-14.817000389099121 C-42.150001525878906,-14.817000389099121 -57.61199951171875,-1.0920000076293945 -56.888999938964844,21.663000106811523 C-81.33699798583984,79.01000213623047 -165.52000427246094,64.21399688720703 -186.69700622558594,44.34199905395508 C-195.36000061035156,66.68199920654297 -257.3599853515625,102.79499816894531 -200.02200317382812,124.93599700927734 C-200.02200317382812,124.93599700927734 -183.6009979248047,99.65399932861328 -163.27699279785156,130.76699829101562 C-150.28500366210938,150.656005859375 -122.2959976196289,135.73599243164062 -122.2959976196289,135.73599243164062 C-103.60800170898438,122.26200103759766 -87.78199768066406,146.5970001220703 -74.0260009765625,135.05599975585938 C-64.64099884033203,127.18199920654297 -65.48400115966797,93.23200225830078 -42.39899826049805,98.66799926757812 C-22.163999557495117,103.43299865722656 -7.372000217437744,116.01200103759766 4.190999984741211,102.06900024414062 C15.753999710083008,88.1259994506836 18.475000381469727,70.10199737548828 50.10200119018555,62.959999084472656 C55.608001708984375,61.71699905395508 83.60600280761719,57.055999755859375 85.91500091552734,15.661999702453613 C86.13800048828125,11.663999557495117 87.54000091552734,5.796000003814697 91.86199951171875,0.9179999828338623 C83.36799621582031,2.058000087738037 61.70000076293945,12.74899959564209 37.07600021362305,16.889999389648438 C11.45300006866455,21.200000762939453 -17.3700008392334,18.417999267578125 -37.875999450683594,-9.593000411987305"></path><path stroke-linecap="round" stroke-linejoin="round" fill-opacity="0" stroke="rgb(114,0,17)" stroke-opacity="1" stroke-width="6" d=" M-42.150001525878906,-14.817000389099121 C-42.150001525878906,-14.817000389099121 -57.61199951171875,-1.0920000076293945 -56.888999938964844,21.663000106811523 C-81.33699798583984,79.01000213623047 -165.52000427246094,64.21399688720703 -186.69700622558594,44.34199905395508 C-195.36000061035156,66.68199920654297 -257.3599853515625,102.79499816894531 -200.02200317382812,124.93599700927734 C-200.02200317382812,124.93599700927734 -183.6009979248047,99.65399932861328 -163.27699279785156,130.76699829101562 C-150.28500366210938,150.656005859375 -122.2959976196289,135.73599243164062 -122.2959976196289,135.73599243164062 C-103.60800170898438,122.26200103759766 -87.78199768066406,146.5970001220703 -74.0260009765625,135.05599975585938 C-64.64099884033203,127.18199920654297 -65.48400115966797,93.23200225830078 -42.39899826049805,98.66799926757812 C-22.163999557495117,103.43299865722656 -7.372000217437744,116.01200103759766 4.190999984741211,102.06900024414062 C15.753999710083008,88.1259994506836 18.475000381469727,70.10199737548828 50.10200119018555,62.959999084472656 C55.608001708984375,61.71699905395508 83.60600280761719,57.055999755859375 85.91500091552734,15.661999702453613 C86.13800048828125,11.663999557495117 87.54000091552734,5.796000003814697 91.86199951171875,0.9179999828338623 C83.36799621582031,2.058000087738037 61.70000076293945,12.74899959564209 37.07600021362305,16.889999389648438 C11.45300006866455,21.200000762939453 -17.3700008392334,18.417999267578125 -37.875999450683594,-9.593000411987305"></path></g><g opacity="1" transform="matrix(1,0,0,1,0,0)"><path fill="rgb(255,18,69)" fill-opacity="1" d=" M-120.65899658203125,65.7509994506836 C-137.71400451660156,68.2959976196289 -153.27499389648438,81.30599975585938 -200.93099975585938,68.5719985961914 C-205.44400024414062,74.41799926757812 -229.55099487304688,95.71900177001953 -214.03599548339844,107.8219985961914 C-181.5919952392578,83.09200286865234 -154.80599975585938,97.12300109863281 -120.65899658203125,65.7509994506836z"></path></g><g opacity="1" transform="matrix(1,0,0,1,0,0)"><path fill="rgb(255,18,69)" fill-opacity="1" d=" M-162.8350067138672,126.79199981689453 C-144.0919952392578,105.41400146484375 -120.87799835205078,95.33699798583984 -122.16000366210938,92.11299896240234 C-136.05599975585938,93.5510025024414 -171.82400512695312,105.08899688720703 -181.2830047607422,112.28500366210938 C-181.2830047607422,112.28500366210938 -171.51600646972656,114.7249984741211 -162.8350067138672,126.79199981689453z"></path></g><g opacity="1" transform="matrix(1,0,0,1,0,0)"><path fill="rgb(255,18,69)" fill-opacity="1" d=" M-92.15699768066406,133.32400512695312 C-107.10199737548828,107.70999908447266 -66.7959976196289,83.85700225830078 -72.5530014038086,51.05500030517578 C-85.67400360107422,86.15299987792969 -121.13300323486328,95.59200286865234 -122.9209976196289,131.52099609375 C-119.8010025024414,130.21099853515625 -109.65299987792969,124.67400360107422 -92.15699768066406,133.32400512695312z"></path></g><g opacity="1" transform="matrix(1,0,0,1,0,0)"><path fill="rgb(255,18,69)" fill-opacity="1" d=" M-22.801000595092773,101.33200073242188 C-41.28499984741211,77.4800033569336 -29.29599952697754,43.55099868774414 -52.375,20.965999603271484 C-47.40800094604492,56.305999755859375 -54.55099868774414,61.91899871826172 -64.36199951171875,105.99199676513672 C-54.29600143432617,85.13300323486328 -33.25,97.25 -22.801000595092773,101.33200073242188z"></path></g><g opacity="1" transform="matrix(1,0,0,1,0,0)"><path stroke-linecap="round" stroke-linejoin="round" fill-opacity="0" stroke="rgb(142,0,34)" stroke-opacity="1" stroke-width="6" d=" M-48.505001068115234,1.7649999856948853 C-44.60200119018555,49.67399978637695 -11.192999839782715,73.0719985961914 -11.192999839782715,73.0719985961914"></path></g><g opacity="1" transform="matrix(1,0,0,1,0,0)"><path fill="rgb(255,18,69)" fill-opacity="1" d=" M33.58300018310547,65.05699920654297 C18.917999267578125,61.66299819946289 11.010000228881836,58.60200119018555 1.9520000219345093,53.61199951171875 C-8.387999534606934,47.91600036621094 -27,38.70399856567383 -45.902000427246094,9.012999534606934 C-45.23699951171875,11.498000144958496 -44.40599822998047,14.409000396728516 -43.3650016784668,17.618999481201172 C-39.702999114990234,28.90999984741211 -33.43600082397461,43.89799880981445 -22.621000289916992,57.053001403808594 C-13.982999801635742,67.56099700927734 -2.443000078201294,76.9000015258789 12.98900032043457,82.2509994506836 C16.87700080871582,77.4800033569336 23.636999130249023,69.31600189208984 33.58300018310547,65.05699920654297z"></path></g><g opacity="1" transform="matrix(1,0,0,1,0,0)"><path fill="rgb(255,18,69)" fill-opacity="1" d=" M80.37100219726562,6.710000038146973 C68.99400329589844,11.215999603271484 46.7239990234375,20.33099937438965 23.177000045776367,21.48200035095215 C0.843999981880188,22.573999404907227 -22.63800048828125,16.50200080871582 -39.066001892089844,-7.459000110626221 C-41.20600128173828,-7.895999908447266 -37.66600036621094,5.369999885559082 -22.847000122070312,15.314000129699707 C-6.0980000495910645,26.55299949645996 25.059999465942383,33.54899978637695 78.71199798583984,11.718999862670898 C86.0790023803711,8.722000122070312 82.69400024414062,6.943999767303467 80.37100219726562,6.710000038146973z"></path></g><g opacity="1" transform="matrix(1,0,0,1,0,0)"><path fill="rgb(255,18,69)" fill-opacity="1" d=" M79.04100036621094,31.641000747680664 C19.93899917602539,49.0359992980957 -12.470999717712402,26.902999877929688 -12.470999717712402,26.902999877929688 C-1.944000005722046,43.4640007019043 32.8489990234375,56.457000732421875 45.27000045776367,59.983001708984375 C44.94900131225586,60.30400085449219 74.53099822998047,55.667999267578125 79.04100036621094,31.641000747680664z"></path></g><g opacity="1" transform="matrix(1,0,0,1,0,0)"><path stroke-linecap="round" stroke-linejoin="round" fill-opacity="0" stroke="rgb(142,0,34)" stroke-opacity="1" stroke-width="6" d=" M-11.600000381469727,32.43199920654297 C-2.255000114440918,43.04100036621094 22.235000610351562,58.09199905395508 40.05400085449219,60.18600082397461"></path></g><g opacity="1" transform="matrix(1,0,0,1,0,0)"><path stroke-linecap="round" stroke-linejoin="round" fill-opacity="0" stroke="rgb(142,0,34)" stroke-opacity="1" stroke-width="6" d=" M-183.1300048828125,69.82099914550781 C-164.2449951171875,73.14299774169922 -150.21400451660156,71.61199951171875 -129.0540008544922,65.52100372314453"></path></g><g opacity="1" transform="matrix(1,0,0,1,0,0)"><path stroke-linecap="round" stroke-linejoin="round" fill-opacity="0" stroke="rgb(142,0,34)" stroke-opacity="1" stroke-width="6" d=" M-54.04199981689453,30.461000442504883 C-50.2140007019043,52.73400115966797 -64.75599670410156,86.40899658203125 -66.7249984741211,106.91000366210938"></path></g><g opacity="1" transform="matrix(1,0,0,1,0,0)"><path stroke-linecap="round" stroke-linejoin="round" fill-opacity="0" stroke="rgb(142,0,34)" stroke-opacity="1" stroke-width="6" d=" M-126.48400115966797,131.38299560546875 C-124.7040023803711,117.2760009765625 -119.88600158691406,103.30000305175781 -107.3499984741211,93.2959976196289"></path></g><g opacity="0.7000000000000001" transform="matrix(1,0,0,1,0,0)"><path fill="rgb(255,125,159)" fill-opacity="1" d=" M79.3239974975586,31.719999313354492 C74.3759994506836,47.402000427246094 66.36699676513672,55.15800094604492 51.784000396728516,59.00299835205078 C21.851999282836914,66.63800048828125 18.790000915527344,74.67400360107422 10.210000038146973,89.10199737548828 C2.369999885559082,102.28600311279297 -2.381999969482422,107.70899963378906 -13.567000389099121,103.98200225830078 C-1.1069999933242798,102.2249984741211 4.376999855041504,88.4489974975586 8.32699966430664,81.58999633789062 C17.27199935913086,66.05599975585938 31.138999938964844,58.90700149536133 51.60499954223633,53.55099868774414 C70.3219985961914,48.65299987792969 71.99600219726562,37.90399932861328 73.75700378417969,33.37300109863281 C76.44400024414062,26.458999633789062 79.12300109863281,20.082000732421875 79.08599853515625,8.829999923706055 C82.05699920654297,6.943999767303467 81.6729965209961,7.581999778747559 84.19499969482422,6.879000186920166 C84.35199737548828,17.530000686645508 82.31199645996094,22.25 79.3239974975586,31.719999313354492z"></path></g><g opacity="0" transform="matrix(1,0,0,1,0,0)"><path stroke-linecap="round" stroke-linejoin="round" fill-opacity="0" stroke="rgb(255,125,159)" stroke-opacity="1" stroke-width="6" d=" M136.5780029296875,126.43900299072266 C98.28700256347656,144.63499450683594 62.39500045776367,95.29399871826172 42.10300064086914,72.2979965209961 C23.993000030517578,50.564998626708984 15.487000465393066,36.3129997253418 -13.029000282287598,17.770000457763672"></path></g></g><g style="display: block;" transform="matrix(0.9800000190734863,0,0,0.9800000190734863,247.9603271484375,264.56982421875)" opacity="1"><g opacity="1" transform="matrix(1,0,0,1,0,0)"><g opacity="1" transform="matrix(1,0,0,1,0,0)"><path fill="rgb(255,209,64)" fill-opacity="1" d=" M-104.25599670410156,-50.2859992980957 C-102.88400268554688,-56.257999420166016 -74.19999694824219,-73.5510025024414 -67.33300018310547,-73.21299743652344 C-62.0880012512207,-72.95500183105469 -53.54899978637695,-57.28099822998047 -45.792999267578125,-49.17399978637695 C-26.625999450683594,-69.42400360107422 -27.985000610351562,-104.44300079345703 -45.792999267578125,-111.72699737548828 C-56.4010009765625,-115.19999694824219 -73.22699737548828,-107.00700378417969 -88.86100006103516,-95.86100006103516 C-108.27999877929688,-82.01799774169922 -125.86199951171875,-63.619998931884766 -127.41400146484375,-57.3650016784668"></path><path stroke-linecap="round" stroke-linejoin="round" fill-opacity="0" stroke="rgb(183,100,19)" stroke-opacity="1" stroke-width="6" d=" M-104.25599670410156,-50.2859992980957 C-102.88400268554688,-56.257999420166016 -74.19999694824219,-73.5510025024414 -67.33300018310547,-73.21299743652344 C-62.0880012512207,-72.95500183105469 -53.54899978637695,-57.28099822998047 -45.792999267578125,-49.17399978637695 C-26.625999450683594,-69.42400360107422 -27.985000610351562,-104.44300079345703 -45.792999267578125,-111.72699737548828 C-56.4010009765625,-115.19999694824219 -73.22699737548828,-107.00700378417969 -88.86100006103516,-95.86100006103516 C-108.27999877929688,-82.01799774169922 -125.86199951171875,-63.619998931884766 -127.41400146484375,-57.3650016784668"></path></g></g><g opacity="0.4" transform="matrix(1,0,0,1,0,0)"><path fill="rgb(196,118,32)" fill-opacity="1" d=" M-64.6989974975586,-75.11499786376953 C-64.6989974975586,-75.11499786376953 -38.132999420166016,-64.3489990234375 -40.95000076293945,-107.947998046875 C-40.95000076293945,-107.947998046875 -28.360000610351562,-88.4010009765625 -38.132999420166016,-64.3489990234375 C-47.25699996948242,-41.893001556396484 -48.79800033569336,-57.31800079345703 -64.6989974975586,-75.11499786376953z"></path></g><g opacity="1" transform="matrix(1,0,0,1,0,0)"><g opacity="1" transform="matrix(1,0,0,1,0,0)"><path stroke-linecap="round" stroke-linejoin="round" fill-opacity="0" stroke="rgb(114,0,17)" stroke-opacity="1" stroke-width="6" d=" M-45.792999267578125,-49.17399978637695 C-26.625999450683594,-69.42400360107422 -27.985000610351562,-104.44300079345703 -45.792999267578125,-111.72699737548828"></path></g></g></g><g style="display: block;" transform="matrix(0.9800000190734863,0,0,0.9800000190734863,247.9603271484375,264.56982421875)" opacity="1"><g opacity="1" transform="matrix(1,0,0,1,0,0)"><path fill="rgb(255,209,64)" fill-opacity="1" d=" M-127.41400146484375,-57.619998931884766 C-130.54200744628906,-48.25299835205078 -115.98600006103516,5.744999885559082 -115.98600006103516,5.744999885559082 C-115.98600006103516,5.744999885559082 -103.60800170898438,6.749000072479248 -103.60800170898438,6.749000072479248 C-99.38999938964844,0.2809999883174896 -105.81900024414062,-48.582000732421875 -104.0009994506836,-51.17900085449219"></path><path stroke-linecap="round" stroke-linejoin="round" fill-opacity="0" stroke="rgb(196,118,32)" stroke-opacity="1" stroke-width="6" d=" M-127.41400146484375,-57.619998931884766 C-130.54200744628906,-48.25299835205078 -115.98600006103516,5.744999885559082 -115.98600006103516,5.744999885559082 C-115.98600006103516,5.744999885559082 -103.60800170898438,6.749000072479248 -103.60800170898438,6.749000072479248 C-99.38999938964844,0.2809999883174896 -105.81900024414062,-48.582000732421875 -104.0009994506836,-51.17900085449219"></path></g></g><g style="display: block;" transform="matrix(0.9800000190734863,0,0,0.9800000190734863,247.9603271484375,264.56982421875)" opacity="1"><g opacity="1" transform="matrix(1,0,0,1,0,0)"><path fill="rgb(255,209,64)" fill-opacity="1" d=" M-116.88800048828125,1.6069999933242798 C-116.88800048828125,1.6069999933242798 -118.41600036621094,1.8650000095367432 -120.6259994506836,2.819000005722046 C-121.69000244140625,3.2780001163482666 -122.91100311279297,3.8970000743865967 -124.19599914550781,4.7270002365112305 C-125.41300201416016,5.513000011444092 -126.68699645996094,6.486999988555908 -127.93699645996094,7.690000057220459 C-130.58099365234375,10.234999656677246 -137.58299255371094,18.67099952697754 -140.9530029296875,18.819000244140625 C-146.0019989013672,19.041000366210938 -152.36700439453125,19.875 -152.66099548339844,22.665000915527344 C-153.0290069580078,26.165000915527344 -142.67100524902344,26.89299964904785 -137.51800537109375,27.038999557495117 C-135.82200622558594,27.086999893188477 -134.68899536132812,27.07200050354004 -134.68899536132812,27.07200050354004 C-134.68899536132812,27.07200050354004 -141.6009979248047,26.823999404907227 -141.6009979248047,26.823999404907227 C-141.6009979248047,26.823999404907227 -153.24099731445312,35.33399963378906 -150.91099548339844,38.013999938964844 C-149.6649932861328,39.446998596191406 -144.63699340820312,38.231998443603516 -138.26600646972656,35.40599822998047 C-136.5290069580078,34.63600158691406 -134.69400024414062,33.74599838256836 -132.8070068359375,32.75699996948242 C-130.95799255371094,31.788000106811523 -129.06100463867188,30.725000381469727 -127.16200256347656,29.586000442504883 C-114.93900299072266,22.257999420166016 -102.63500213623047,11.821999549865723 -102.63500213623047,3.5439999103546143"></path><path stroke-linecap="round" stroke-linejoin="round" fill-opacity="0" stroke="rgb(196,118,32)" stroke-opacity="1" stroke-width="6" d=" M-116.88800048828125,1.6069999933242798 C-116.88800048828125,1.6069999933242798 -118.41600036621094,1.8650000095367432 -120.6259994506836,2.819000005722046 C-121.69000244140625,3.2780001163482666 -122.91100311279297,3.8970000743865967 -124.19599914550781,4.7270002365112305 C-125.41300201416016,5.513000011444092 -126.68699645996094,6.486999988555908 -127.93699645996094,7.690000057220459 C-130.58099365234375,10.234999656677246 -137.58299255371094,18.67099952697754 -140.9530029296875,18.819000244140625 C-146.0019989013672,19.041000366210938 -152.36700439453125,19.875 -152.66099548339844,22.665000915527344 C-153.0290069580078,26.165000915527344 -142.67100524902344,26.89299964904785 -137.51800537109375,27.038999557495117 C-135.82200622558594,27.086999893188477 -134.68899536132812,27.07200050354004 -134.68899536132812,27.07200050354004 C-134.68899536132812,27.07200050354004 -141.6009979248047,26.823999404907227 -141.6009979248047,26.823999404907227 C-141.6009979248047,26.823999404907227 -153.24099731445312,35.33399963378906 -150.91099548339844,38.013999938964844 C-149.6649932861328,39.446998596191406 -144.63699340820312,38.231998443603516 -138.26600646972656,35.40599822998047 C-136.5290069580078,34.63600158691406 -134.69400024414062,33.74599838256836 -132.8070068359375,32.75699996948242 C-130.95799255371094,31.788000106811523 -129.06100463867188,30.725000381469727 -127.16200256347656,29.586000442504883 C-114.93900299072266,22.257999420166016 -102.63500213623047,11.821999549865723 -102.63500213623047,3.5439999103546143"></path></g></g><g style="display: block;" transform="matrix(1.0000017881393433,0,0,1.0000017881393433,288.1488952636719,263.43658447265625)" opacity="1"><g opacity="1" transform="matrix(1,0,0,1,0,0)"><path fill="rgb(117,55,13)" fill-opacity="1" d=" M-19.656999588012695,-137.7310028076172 C-20.333999633789062,-138.0989990234375 -18.63599967956543,-139.94400024414062 -19.610000610351562,-140.73199462890625 C-19.993999481201172,-141.0679931640625 -20.100000381469727,-141.19700622558594 -20.88599967956543,-141.16000366210938 C-21.672000885009766,-141.1230010986328 -21.530000686645508,-141.16900634765625 -24.06999969482422,-140.81100463867188 C-26.42300033569336,-140.47999572753906 -30.19300079345703,-140.72000122070312 -30.187999725341797,-139.98300170898438 C-30.179000854492188,-138.8000030517578 -27.02400016784668,-134.48399353027344 -20.906999588012695,-134.52200317382812 C-18.617000579833984,-134.69000244140625 -18.979999542236328,-137.36300659179688 -19.656999588012695,-137.7310028076172z"></path></g><g opacity="1" transform="matrix(1,0,0,1,0,0)"><path fill="rgb(81,37,8)" fill-opacity="1" d=" M-19.134000778198242,-139.55299377441406 C-21.341999053955078,-135.06399536132812 -30.749000549316406,-140.4290008544922 -30.749000549316406,-140.4290008544922 C-29.086000442504883,-140.23800659179688 -26.77400016784668,-140.51100158691406 -24.260000228881836,-140.83099365234375 C-21.93000030517578,-141.1269989013672 -21.863000869750977,-141.1750030517578 -21.073999404907227,-141.21200561523438 C-20.290000915527344,-141.24899291992188 -20.121999740600586,-141.11900329589844 -19.55299949645996,-140.82200622558594 C-19.21299934387207,-140.29299926757812 -19.176000595092773,-140.14999389648438 -19.134000778198242,-139.55299377441406z"></path></g></g><g style="display: none;"><g><path></path></g><g><path></path></g><g><path></path></g></g><g style="display: none;"><g><path></path></g><g><g><path fill="url(#__lottie_element_13968)"></path></g><g><path></path></g><g><path stroke-linecap="round" stroke-linejoin="round" fill-opacity="0"></path></g><g><path></path></g></g><g><path stroke-linecap="round" stroke-linejoin="round" fill-opacity="0"></path></g></g><g style="display: none;"><g><path></path></g><g><g><path fill="url(#__lottie_element_13964)"></path></g><g><path></path></g><g><path stroke-linecap="round" stroke-linejoin="round" fill-opacity="0"></path></g><g><path></path></g></g><g><path stroke-linecap="round" stroke-linejoin="round" fill-opacity="0"></path></g></g><g style="display: none;"><g><path stroke-linecap="round" stroke-linejoin="round" fill-opacity="0"></path></g><g><path stroke-linecap="round" stroke-linejoin="round" fill-opacity="0"></path></g></g><g style="display: block;" transform="matrix(0.9800000190734863,0,0,0.9800000190734863,247.9603271484375,264.56982421875)" opacity="1"><g opacity="1" transform="matrix(1,0,0,1,0,0)"><g opacity="1" transform="matrix(1,0,0,1,0,0)"><path fill="rgb(255,209,64)" fill-opacity="1" d=" M1.5219999551773071,-170.49400329589844 C1.5219999551773071,-170.49400329589844 -10.03600025177002,-145.30799865722656 -40.696998596191406,-133.49899291992188 C-70.53700256347656,-122.00599670410156 -110.41799926757812,-133.49000549316406 -89.76799774169922,-159.61599731445312 C-87.96900177001953,-154.66400146484375 -87.04499816894531,-145.1020050048828 -72.51899719238281,-146.00999450683594 C-72.51899719238281,-146.00999450683594 -78.97599792480469,-148.68899536132812 -78.97599792480469,-148.68899536132812 C-63.194000244140625,-157.56700134277344 -68.69400024414062,-194.3179931640625 -45.792999267578125,-211.6790008544922 C-36.94300079345703,-218.38800048828125 -16.034000396728516,-222.75599670410156 1.5219999551773071,-216.48800659179688 C24.8799991607666,-208.1490020751953 20.388999938964844,-193.3730010986328 20.388999938964844,-193.3730010986328 C20.388999938964844,-193.3730010986328 1.5219999551773071,-170.49400329589844 1.5219999551773071,-170.49400329589844z"></path><path stroke-linecap="round" stroke-linejoin="round" fill-opacity="0" stroke="rgb(185,96,0)" stroke-opacity="1" stroke-width="6" d=" M1.5219999551773071,-170.49400329589844 C1.5219999551773071,-170.49400329589844 -10.03600025177002,-145.30799865722656 -40.696998596191406,-133.49899291992188 C-70.53700256347656,-122.00599670410156 -110.41799926757812,-133.49000549316406 -89.76799774169922,-159.61599731445312 C-87.96900177001953,-154.66400146484375 -87.04499816894531,-145.1020050048828 -72.51899719238281,-146.00999450683594 C-72.51899719238281,-146.00999450683594 -78.97599792480469,-148.68899536132812 -78.97599792480469,-148.68899536132812 C-63.194000244140625,-157.56700134277344 -68.69400024414062,-194.3179931640625 -45.792999267578125,-211.6790008544922 C-36.94300079345703,-218.38800048828125 -16.034000396728516,-222.75599670410156 1.5219999551773071,-216.48800659179688 C24.8799991607666,-208.1490020751953 20.388999938964844,-193.3730010986328 20.388999938964844,-193.3730010986328 C20.388999938964844,-193.3730010986328 1.5219999551773071,-170.49400329589844 1.5219999551773071,-170.49400329589844z"></path></g><g opacity="0.4" transform="matrix(1,0,0,1,0,0)"><path fill="rgb(232,75,5)" fill-opacity="1" d=" M-92.18900299072266,-144.26199340820312 C-92.18900299072266,-144.26199340820312 -76.89099884033203,-131.23300170898438 -50.76100158691406,-140.302001953125 C-29.72800064086914,-147.6020050048828 -22.233999252319336,-165.0449981689453 -30.735000610351562,-166.50799560546875 C-30.735000610351562,-166.50799560546875 -3.8610000610351562,-171.42100524902344 -3.8610000610351562,-171.42100524902344 C-3.8610000610351562,-171.42100524902344 -2.7019999027252197,-151.47500610351562 -40.236000061035156,-136.10899353027344 C-78.38999938964844,-120.48899841308594 -92.18900299072266,-144.26199340820312 -92.18900299072266,-144.26199340820312z"></path></g></g><g opacity="1" transform="matrix(1,0,0,1,0,0)"><path fill="rgb(255,226,143)" fill-opacity="1" d=" M-3.5179998874664307,-208.91700744628906 C-5.783999919891357,-216.5240020751953 -20.41200065612793,-217.33299255371094 -34.48099899291992,-213.593994140625 C-47.7130012512207,-210.07699584960938 -56.79899978637695,-195.17100524902344 -54.861000061035156,-188.6510009765625 C-52.867000579833984,-181.9429931640625 -40.79800033569336,-187.15699768066406 -26.784000396728516,-193.1280059814453 C-15.130000114440918,-198.093994140625 -1.6510000228881836,-202.64700317382812 -3.5179998874664307,-208.91700744628906z"></path></g><g opacity="0" transform="matrix(1,0,0,1,0,0)"><path fill="rgb(246,155,40)" fill-opacity="1" d=" M39.46500015258789,-165.906005859375 C38.83399963378906,-173.3280029296875 29.474000930786133,-182.6820068359375 21.054000854492188,-179.43899536132812 C24.45400047302246,-170.0500030517578 38.24599838256836,-162.84100341796875 39.46500015258789,-165.906005859375z"></path></g></g><g style="display: block;" transform="matrix(0.9800000190734863,0,0,0.9800000190734863,247.9603271484375,264.56982421875)" opacity="1"><g opacity="1" transform="matrix(1,0,0,1,0,0)"><g opacity="1" transform="matrix(1,0,0,1,0,0)"><path stroke-linecap="round" stroke-linejoin="round" fill-opacity="0" stroke="rgb(255,255,255)" stroke-opacity="1" stroke-width="6" d=" M-25.961999893188477,-212.01199340820312 C-25.961999893188477,-212.01199340820312 -25.961999893188477,-212.01199340820312 -25.961999893188477,-212.01199340820312"></path></g><g opacity="1" transform="matrix(1,0,0,1,0,0)"><path stroke-linecap="round" stroke-linejoin="round" fill-opacity="0" stroke="rgb(255,255,255)" stroke-opacity="1" stroke-width="6" d=" M-39.1619987487793,-207.0659942626953 C-39.1619987487793,-207.0659942626953 -36.45600128173828,-208.42300415039062 -34.17100143432617,-209.23199462890625"></path></g></g></g><g style="display: block;" transform="matrix(0.9800000190734863,0,0,0.9800000190734863,247.9603271484375,264.56982421875)" opacity="1"><g opacity="1" transform="matrix(1,0,0,1,0,0)"><path fill="rgb(255,255,252)" fill-opacity="1" d=" M7.616000175476074,-159.0449981689453 C7.616000175476074,-159.0449981689453 8.28600025177002,-166.76600646972656 13.217000007629395,-170.83200073242188 C18.2810001373291,-175.00799560546875 22.04400062561035,-157.8520050048828 14.503999710083008,-156.2169952392578 C11.222000122070312,-155.5050048828125 7.616000175476074,-159.0449981689453 7.616000175476074,-159.0449981689453z"></path></g><g opacity="1" transform="matrix(1,0,0,1,0,0)"><g opacity="1" transform="matrix(1,0,0,1,0,0)"><g opacity="1" transform="matrix(1,0,0,1,0,0)"><g opacity="1" transform="matrix(1,0,0,1,0,0)"><path fill="url(#__lottie_element_13951)" fill-opacity="1" d=" M18.69099998474121,-165.3769989013672 C20.194000244140625,-156.2570037841797 11.821999549865723,-152.4600067138672 11.177000045776367,-163.6300048828125 C10.564000129699707,-174.2429962158203 17.378000259399414,-173.34500122070312 18.69099998474121,-165.3769989013672z"></path></g><g opacity="1" transform="matrix(1,0,0,1,0,0)"><path stroke-linecap="round" stroke-linejoin="round" fill-opacity="0" stroke="rgb(211,150,54)" stroke-opacity="1" stroke-width="1.5" d=" M18.016000747680664,-163.23199462890625 C17.958999633789062,-161.52099609375 17.711999893188477,-160.36099243164062 16.85300064086914,-159.11399841308594"></path></g><g opacity="1" transform="matrix(1,0,0,1,0,0)"><path fill="rgb(22,19,12)" fill-opacity="1" d=" M18.079999923706055,-164.1490020751953 C18.121000289916992,-159.1909942626953 13.880000114440918,-156.85299682617188 13.557999610900879,-163.97799682617188 C13.241999626159668,-170.95799255371094 18.01799964904785,-171.58700561523438 18.079999923706055,-164.1490020751953z"></path></g><g opacity="1" transform="matrix(1,0,0,1,0,0)"><path fill="rgb(242,242,242)" fill-opacity="1" d=" M13.58899974822998,-165.68600463867188 C12.253000259399414,-165.6649932861328 12.057999610900879,-167.75 13.369000434875488,-167.79800415039062 C15.220000267028809,-167.86500549316406 14.932000160217285,-165.70700073242188 13.58899974822998,-165.68600463867188z"></path></g></g></g></g><g opacity="1" transform="matrix(1,0,0,1,0,0)"><path stroke-linecap="round" stroke-linejoin="round" fill-opacity="0" stroke="rgb(43,10,6)" stroke-opacity="1" stroke-width="2" d=" M16.19700050354004,-171.6580047607422 C11.902999877929688,-171.08599853515625 8.897000312805176,-167.61099243164062 7.193999767303467,-160.42799377441406"></path></g></g><g style="display: none;"><g><path></path><path stroke-linecap="round" stroke-linejoin="round" fill-opacity="0"></path></g><g><path></path></g></g><g style="display: block;" transform="matrix(0.9800000190734863,0,0,0.9800000190734863,247.9603271484375,264.56982421875)" opacity="1"><g opacity="1" transform="matrix(1,0,0,1,0,0)"><path fill="rgb(255,209,64)" fill-opacity="1" d=" M27.011999130249023,-195.10299682617188 C25.930999755859375,-201.8280029296875 18.1560001373291,-202.5800018310547 14.336999893188477,-198.5590057373047 C-9.907999992370605,-173.031005859375 -43.7599983215332,-170.49400329589844 -43.7599983215332,-170.49400329589844 C-43.7599983215332,-170.49400329589844 -25.023000717163086,-163.72500610351562 -7.874000072479248,-166.6739959716797 C14.336999893188477,-170.49400329589844 28.698999404907227,-184.60499572753906 27.011999130249023,-195.10299682617188z"></path><path stroke-linecap="round" stroke-linejoin="round" fill-opacity="0" stroke="rgb(185,96,0)" stroke-opacity="1" stroke-width="6" d=" M27.011999130249023,-195.10299682617188 C25.930999755859375,-201.8280029296875 18.1560001373291,-202.5800018310547 14.336999893188477,-198.5590057373047 C-9.907999992370605,-173.031005859375 -43.7599983215332,-170.49400329589844 -43.7599983215332,-170.49400329589844 C-43.7599983215332,-170.49400329589844 -25.023000717163086,-163.72500610351562 -7.874000072479248,-166.6739959716797 C14.336999893188477,-170.49400329589844 28.698999404907227,-184.60499572753906 27.011999130249023,-195.10299682617188z"></path></g><g opacity="0.4" transform="matrix(1,0,0,1,0,0)"><path fill="rgb(232,75,5)" fill-opacity="1" d=" M21.56999969482422,-199.35299682617188 C21.56999969482422,-199.35299682617188 18.625,-171.99600219726562 -20.42300033569336,-167.7760009765625 C-13.430000305175781,-167.86199951171875 -5.5329999923706055,-168.7899932861328 2.2860000133514404,-171.42100524902344 C26.457000732421875,-179.55299377441406 27.145999908447266,-196.4499969482422 21.56999969482422,-199.35299682617188z"></path></g></g></g></svg>