<svg xmlns="http://www.w3.org/2000/svg" viewBox="0 0 512 512" width="512" height="512" style="width: 100%; height: 100%; transform: translate3d(0,0,0);" preserveAspectRatio="xMidYMid meet"><defs><clipPath id="__lottie_element_14021"><rect width="512" height="512" x="0" y="0"></rect></clipPath><linearGradient id="__lottie_element_14035" spreadMethod="pad" gradientUnits="userSpaceOnUse" x1="-58" y1="-173" x2="-87.11299896240234" y2="43.731998443603516"><stop offset="7%" stop-color="rgb(255,203,149)"></stop><stop offset="25%" stop-color="rgb(255,180,124)"></stop><stop offset="46%" stop-color="rgb(255,156,100)"></stop><stop offset="68%" stop-color="rgb(255,136,83)"></stop><stop offset="90%" stop-color="rgb(255,117,66)"></stop></linearGradient><radialGradient id="__lottie_element_14036" spreadMethod="pad" gradientUnits="userSpaceOnUse" cx="28.006999969482422" cy="-98.68900299072266" r="286.6604369451942" fx="28.006999969482422" fy="-98.68900299072266"><stop offset="0%" stop-color="rgb(255,155,103)"></stop><stop offset="29%" stop-color="rgb(255,114,52)"></stop><stop offset="57%" stop-color="rgb(255,73,0)"></stop><stop offset="67%" stop-color="rgb(255,36,0)"></stop><stop offset="79%" stop-color="rgb(255,0,0)"></stop><stop offset="89%" stop-color="rgb(255,58,52)"></stop><stop offset="98%" stop-color="rgb(255,116,103)"></stop></radialGradient><linearGradient id="__lottie_element_14040" spreadMethod="pad" gradientUnits="userSpaceOnUse" x1="105" y1="-151" x2="75.88700103759766" y2="65.73200225830078"><stop offset="7%" stop-color="rgb(255,203,149)"></stop><stop offset="25%" stop-color="rgb(255,180,124)"></stop><stop offset="46%" stop-color="rgb(255,156,100)"></stop><stop offset="68%" stop-color="rgb(255,136,83)"></stop><stop offset="90%" stop-color="rgb(255,117,66)"></stop></linearGradient><radialGradient id="__lottie_element_14041" spreadMethod="pad" gradientUnits="userSpaceOnUse" cx="79.96199798583984" cy="-63.41400146484375" r="251.7565029886109" fx="79.96199798583984" fy="-63.41400146484375"><stop offset="0%" stop-color="rgb(255,155,103)"></stop><stop offset="29%" stop-color="rgb(255,114,52)"></stop><stop offset="57%" stop-color="rgb(255,73,0)"></stop><stop offset="67%" stop-color="rgb(255,36,0)"></stop><stop offset="79%" stop-color="rgb(255,0,0)"></stop><stop offset="89%" stop-color="rgb(255,58,52)"></stop><stop offset="98%" stop-color="rgb(255,116,103)"></stop></radialGradient><linearGradient id="__lottie_element_14048" spreadMethod="pad" gradientUnits="userSpaceOnUse" x1="-178" y1="-195" x2="-37.78099822998047" y2="-174.07200622558594"><stop offset="0%" stop-color="rgb(91,153,0)"></stop><stop offset="65%" stop-color="rgb(57,100,0)"></stop><stop offset="100%" stop-color="rgb(23,48,0)"></stop></linearGradient><linearGradient id="__lottie_element_14049" spreadMethod="pad" gradientUnits="userSpaceOnUse" x1="-18" y1="-151" x2="-232.21200561523438" y2="-196.5290069580078"><stop offset="0%" stop-color="rgb(70,90,0)"></stop><stop offset="87%" stop-color="rgb(58,115,0)"></stop><stop offset="100%" stop-color="rgb(46,140,0)"></stop></linearGradient><linearGradient id="__lottie_element_14053" spreadMethod="pad" gradientUnits="userSpaceOnUse" x1="180" y1="-160" x2="14.069999694824219" y2="-184.0659942626953"><stop offset="0%" stop-color="rgb(46,140,0)"></stop><stop offset="60%" stop-color="rgb(34,83,0)"></stop><stop offset="100%" stop-color="rgb(23,27,0)"></stop></linearGradient></defs><g clip-path="url(#__lottie_element_14021)"><g style="display: block;" transform="matrix(1,0,0,1,264,296)" opacity="1"><g opacity="1" transform="matrix(1,0,0,1,0,0)"><path fill="url(#__lottie_element_14053)" fill-opacity="1" d=" M-0.3160000145435333,-173.29400634765625 C-0.3160000145435333,-173.29400634765625 20.711000442504883,-205.05299377441406 81.14700317382812,-208.5780029296875 C133.01600646972656,-211.60400390625 180.61700439453125,-185.2239990234375 188.47799682617188,-145.87100219726562 C188.47799682617188,-145.87100219726562 164.38900756835938,-126.3479995727539 97.802001953125,-134.7100067138672 C69.59100341796875,-138.2530059814453 35.31800079345703,-148.5330047607422 -0.3160000145435333,-173.29400634765625z"></path></g><g opacity="0.1" transform="matrix(1,0,0,1,0,0)"><path stroke-linecap="round" stroke-linejoin="round" fill-opacity="0" stroke="rgb(0,198,0)" stroke-opacity="1" stroke-width="3" d=" M177.9429931640625,-169.7209930419922 C177.9429931640625,-169.7209930419922 163.76699829101562,-172.71800231933594 137.84300231933594,-163.94900512695312 C137.84300231933594,-163.94900512695312 146.13299560546875,-146.57699584960938 159.61900329589844,-135.23699951171875"></path></g><g opacity="0.1" transform="matrix(1,0,0,1,0,0)"><path stroke-linecap="round" stroke-linejoin="round" fill-opacity="0" stroke="rgb(0,198,0)" stroke-opacity="1" stroke-width="3" d=" M148.10000610351562,-194.88699340820312 C148.10000610351562,-194.88699340820312 120.33300018310547,-189.98699951171875 98.41400146484375,-171.2030029296875 C98.41400146484375,-171.2030029296875 106.84200286865234,-151.99899291992188 125.71199798583984,-132.65699768066406"></path></g><g opacity="0.1" transform="matrix(1,0,0,1,0,0)"><path stroke-linecap="round" stroke-linejoin="round" fill-opacity="0" stroke="rgb(0,198,0)" stroke-opacity="1" stroke-width="3" d=" M107.31800079345703,-207.6179962158203 C107.31800079345703,-207.6179962158203 70.97799682617188,-190.66400146484375 58.095001220703125,-174.53199768066406 C58.095001220703125,-174.53199768066406 68.58000183105469,-149.66099548339844 83.5790023803711,-137.00900268554688"></path></g><g opacity="0.1" transform="matrix(1,0,0,1,0,0)"><path stroke-linecap="round" stroke-linejoin="round" fill-opacity="0" stroke="rgb(0,198,0)" stroke-opacity="1" stroke-width="3" d=" M60.45199966430664,-205.59100341796875 C60.45199966430664,-205.59100341796875 37.266998291015625,-190.0489959716797 27.458999633789062,-175.98500061035156 C27.458999633789062,-175.98500061035156 33.055999755859375,-161.1179962158203 44.654998779296875,-148.71800231933594"></path></g><g opacity="1" transform="matrix(1,0,0,1,0,0)"><path stroke-linecap="round" stroke-linejoin="round" fill-opacity="0" stroke="rgb(24,76,0)" stroke-opacity="1" stroke-width="8" d=" M-0.3160000145435333,-173.29400634765625 C-0.3160000145435333,-173.29400634765625 20.711000442504883,-205.05299377441406 81.14700317382812,-208.5780029296875 C133.01600646972656,-211.60400390625 180.61700439453125,-185.2239990234375 188.47799682617188,-145.87100219726562 C188.47799682617188,-145.87100219726562 164.38900756835938,-126.3479995727539 97.802001953125,-134.7100067138672 C69.59100341796875,-138.2530059814453 35.31800079345703,-148.5330047607422 -0.3160000145435333,-173.29400634765625z"></path></g><g opacity="1" transform="matrix(1,0,0,1,0,0)"><path stroke-linecap="round" stroke-linejoin="round" fill-opacity="0" stroke="rgb(119,182,0)" stroke-opacity="1" stroke-width="8" d=" M-0.3160000145435333,-173.29400634765625 C-0.3160000145435333,-173.29400634765625 110.14800262451172,-184.92799377441406 188.47799682617188,-145.87100219726562"></path></g></g><g style="display: block;" transform="matrix(1,0,0,1,264,296)" opacity="1"><g opacity="1" transform="matrix(1,0,0,1,0,0)"><path fill="url(#__lottie_element_14048)" fill-opacity="1" d=" M-11.454999923706055,-174.5240020751953 C-11.454999923706055,-174.5240020751953 -37.20800018310547,-213.25999450683594 -94.71099853515625,-222.177001953125 C-142.28599548339844,-229.55499267578125 -183.64199829101562,-207.0989990234375 -204.4720001220703,-197.35000610351562 C-204.4720001220703,-197.35000610351562 -182.40199279785156,-135.1510009765625 -80.99800109863281,-147.41900634765625 C-19.98900032043457,-154.8000030517578 -11.454999923706055,-174.5240020751953 -11.454999923706055,-174.5240020751953z"></path></g><g opacity="1" transform="matrix(1,0,0,1,0,0)"><path fill="url(#__lottie_element_14049)" fill-opacity="1" d=" M-13.23799991607666,-171.86700439453125 C-17.898000717163086,-166.15699768066406 -33.61899948120117,-152.8070068359375 -80.9990005493164,-147.41700744628906 C-164.24899291992188,-137.94700622558594 -195.72799682617188,-181.93699645996094 -202.8179931640625,-194.2270050048828 C-138.1840057373047,-167.77099609375 -49.47999954223633,-194.2270050048828 -13.23799991607666,-171.86700439453125z"></path></g><g opacity="0.1" transform="matrix(1,0,0,1,0,0)"><path stroke-linecap="round" stroke-linejoin="round" fill-opacity="0" stroke="rgb(0,198,0)" stroke-opacity="1" stroke-width="3" d=" M-80.03700256347656,-219.11599731445312 C-80.03700256347656,-219.11599731445312 -59.555999755859375,-197.35000610351562 -57.63399887084961,-181.5449981689453 C-57.63399887084961,-181.5449981689453 -64.63600158691406,-157.77200317382812 -86.5260009765625,-146.9510040283203"></path></g><g opacity="0.1" transform="matrix(1,0,0,1,0,0)"><path stroke-linecap="round" stroke-linejoin="round" fill-opacity="0" stroke="rgb(0,198,0)" stroke-opacity="1" stroke-width="3" d=" M-45.15999984741211,-204.33900451660156 C-45.15999984741211,-204.33900451660156 -29.090999603271484,-187.35699462890625 -26.707000732421875,-172.9499969482422 C-26.707000732421875,-172.9499969482422 -30.992000579833984,-163.6179962158203 -44.46799850463867,-154.86500549316406"></path></g><g opacity="0.1" transform="matrix(1,0,0,1,0,0)"><path stroke-linecap="round" stroke-linejoin="round" fill-opacity="0" stroke="rgb(0,198,0)" stroke-opacity="1" stroke-width="3" d=" M-174.28900146484375,-211.77499389648438 C-174.28900146484375,-211.77499389648438 -164.35299682617188,-202.093994140625 -158.2050018310547,-183.4499969482422 C-158.2050018310547,-183.4499969482422 -167.80599975585938,-177.48199462890625 -184.802001953125,-172.9499969482422"></path></g><g opacity="0.1" transform="matrix(1,0,0,1,0,0)"><path stroke-linecap="round" stroke-linejoin="round" fill-opacity="0" stroke="rgb(0,198,0)" stroke-opacity="1" stroke-width="3" d=" M-146.42300415039062,-220.77499389648438 C-146.42300415039062,-220.77499389648438 -126.79900360107422,-201.7689971923828 -123.26699829101562,-181.57000732421875 C-123.26699829101562,-181.57000732421875 -141.57899475097656,-166.8730010986328 -165.2689971923828,-159.7830047607422"></path></g><g opacity="0.1" transform="matrix(1,0,0,1,0,0)"><path stroke-linecap="round" stroke-linejoin="round" fill-opacity="0" stroke="rgb(0,198,0)" stroke-opacity="1" stroke-width="3" d=" M-114.81099700927734,-223.95700073242188 C-114.81099700927734,-223.95700073242188 -95.25599670410156,-202.03700256347656 -93.75499725341797,-182.61199951171875 C-93.75499725341797,-182.61199951171875 -109.09200286865234,-155.78900146484375 -135.9239959716797,-146.09500122070312"></path></g><g opacity="1" transform="matrix(1,0,0,1,0,0)"><path stroke-linecap="round" stroke-linejoin="round" fill-opacity="0" stroke="rgb(24,76,0)" stroke-opacity="1" stroke-width="8" d=" M-11.454999923706055,-174.5240020751953 C-11.454999923706055,-174.5240020751953 -37.242000579833984,-213.03900146484375 -94.71099853515625,-222.177001953125 C-147.22500610351562,-230.52699279785156 -182.3560028076172,-207.6909942626953 -204.4720001220703,-197.35000610351562 C-204.4720001220703,-197.35000610351562 -187.30599975585938,-136.09500122070312 -80.99800109863281,-147.41900634765625 C-19.889999389648438,-153.92799377441406 -11.454999923706055,-174.5240020751953 -11.454999923706055,-174.5240020751953z"></path></g><g opacity="1" transform="matrix(1,0,0,1,0,0)"><path stroke-linecap="round" stroke-linejoin="round" fill-opacity="0" stroke="rgb(119,182,0)" stroke-opacity="1" stroke-width="8" d=" M-204.4720001220703,-197.35000610351562 C-132.7969970703125,-163.77099609375 -95.25700378417969,-197.5850067138672 -11.454999923706055,-174.5240020751953"></path></g></g><g style="display: block;" transform="matrix(1,0,0,1,264,296)" opacity="1"><g opacity="1" transform="matrix(1,0,0,1,0,0)"><path fill="rgb(137,73,44)" fill-opacity="1" d=" M-0.24199999868869781,-173.94500732421875 C-0.24199999868869781,-173.94500732421875 -5.318999767303467,-198.83099365234375 2.9779999256134033,-220.00900268554688 C2.9779999256134033,-220.00900268554688 8.736000061035156,-225.11900329589844 10.152000427246094,-227.5780029296875 C12.913000106811523,-232.3730010986328 4.730999946594238,-240.43499755859375 2.0309998989105225,-240.70199584960938 C-0.10599999874830246,-240.91299438476562 -8.930000305175781,-234.98500061035156 -11.208999633789062,-228.92100524902344 C-13.048999786376953,-224.02499389648438 -14.756999969482422,-190.23500061035156 -4.85699987411499,-172.2689971923828 C-4.85699987411499,-172.2689971923828 -0.24199999868869781,-173.94500732421875 -0.24199999868869781,-173.94500732421875z"></path></g><g opacity="1" transform="matrix(1,0,0,1,0,0)"><path stroke-linecap="round" stroke-linejoin="round" fill-opacity="0" stroke="rgb(88,34,22)" stroke-opacity="1" stroke-width="8" d=" M-0.3330000042915344,-172.94900512695312 C-0.3330000042915344,-172.94900512695312 -5.409999847412109,-197.8350067138672 2.88700008392334,-219.01300048828125 C2.88700008392334,-219.01300048828125 8.645000457763672,-224.1230010986328 10.060999870300293,-226.58200073242188 C12.821999549865723,-231.3769989013672 4.638999938964844,-239.44000244140625 1.9390000104904175,-239.70700073242188 C-0.1979999989271164,-239.91799926757812 -9.020999908447266,-233.98899841308594 -11.300000190734863,-227.9250030517578 C-13.140000343322754,-223.0290069580078 -14.847999572753906,-189.23899841308594 -4.947999954223633,-171.2729949951172 C-4.947999954223633,-171.2729949951172 -0.3330000042915344,-172.94900512695312 -0.3330000042915344,-172.94900512695312z"></path></g><g opacity="1" transform="matrix(1,0,0,1,0,0)"><path stroke-linecap="round" stroke-linejoin="round" fill-opacity="0" stroke="rgb(181,110,87)" stroke-opacity="1" stroke-width="8" d=" M-12.237000465393066,-222.50799560546875 C-12.46500015258789,-220.20899963378906 -12.633000373840332,-217.36099243164062 -12.6899995803833,-214.15699768066406"></path></g></g><g style="display: block;" transform="matrix(1,0,0,1,264,296)" opacity="1"><g opacity="1" transform="matrix(1,0,0,1,0,0)"><g opacity="1" transform="matrix(1,0,0,1,0,0)"><path fill="url(#__lottie_element_14040)" fill-opacity="1" d=" M-4.313000202178955,-170.98899841308594 C-4.313000202178955,-170.98899841308594 30.981000900268555,-198.07699584960938 103.55400085449219,-182.56100463867188 C176.1269989013672,-167.0449981689453 206.66099548339844,-91.46800231933594 208.16200256347656,-35.9119987487793 C209.66299438476562,19.643999099731445 187.5330047607422,77.8270034790039 120.83499908447266,133.03599548339844 C58.35300064086914,184.75599670410156 1.6729999780654907,196.13400268554688 1.6729999780654907,196.13400268554688 C1.6729999780654907,196.13400268554688 -60.2400016784668,-4.955999851226807 -4.313000202178955,-170.98899841308594z"></path></g><g opacity="1" transform="matrix(1,0,0,1,0,0)"><path fill="url(#__lottie_element_14041)" fill-opacity="1" d=" M-3.4790000915527344,-156.1540069580078 C-3.4790000915527344,-156.1540069580078 31.054000854492188,-183.29400634765625 100.00900268554688,-168.3209991455078 C168.96400451660156,-153.34800720214844 194.4010009765625,-82.35800170898438 194.4010009765625,-29.799999237060547 C194.4010009765625,5.388000011444092 188.47799682617188,76.33799743652344 115.4280014038086,136.24200439453125 C55.45500183105469,185.4219970703125 2.2079999446868896,197.13400268554688 2.2079999446868896,197.13400268554688 C2.2079999446868896,197.13400268554688 -56.617000579833984,4.074999809265137 -3.4790000915527344,-156.1540069580078z"></path></g><g opacity="0.3" transform="matrix(1,0,0,1,0,0)"><path fill="rgb(225,0,0)" fill-opacity="1" d=" M203.58099365234375,10.463000297546387 C194.09100341796875,51.4630012512207 169.16099548339844,93.02300262451172 120.83100128173828,133.0330047607422 C58.35100173950195,184.7530059814453 1.6710000038146973,196.13299560546875 1.6710000038146973,196.13299560546875 C1.6710000038146973,196.13299560546875 -18.099000930786133,131.9029998779297 -25.208999633789062,46.073001861572266 C-2.3889999389648438,39.76300048828125 27.031999588012695,38.132999420166016 64.74199676513672,43.233001708984375 C64.74199676513672,43.233001708984375 45.65999984741211,110.56099700927734 84.18599700927734,121.35099792480469 C123.8010025024414,132.4459991455078 183.21600341796875,81.13700103759766 203.58099365234375,10.463000297546387z"></path></g><g opacity="0.25" transform="matrix(1,0,0,1,0,0)"><path fill="rgb(225,0,0)" fill-opacity="1" d=" M29.302000045776367,187.43299865722656 C12.251999855041504,194.01300048828125 1.6710000038146973,196.13299560546875 1.6710000038146973,196.13299560546875 C1.6710000038146973,196.13299560546875 -60.23899841308594,-4.956999778747559 -4.309000015258789,-170.98699951171875 C-4.309000015258789,-170.98699951171875 -1.9179999828338623,-172.81700134277344 2.8919999599456787,-175.2570037841797 C34.9119987487793,-161.13699340820312 66.7300033569336,-127.48600006103516 79.052001953125,-63.516998291015625 C98.41500091552734,37.00600051879883 67.73799896240234,149.98199462890625 29.302000045776367,187.43299865722656z"></path></g><g opacity="1" transform="matrix(1,0,0,1,0,0)"><path stroke-linecap="round" stroke-linejoin="round" fill-opacity="0" stroke="rgb(225,0,0)" stroke-opacity="1" stroke-width="8" d=" M-4.313000202178955,-170.98899841308594 C-4.313000202178955,-170.98899841308594 30.981000900268555,-198.07699584960938 103.55400085449219,-182.56100463867188 C176.1269989013672,-167.0449981689453 206.66099548339844,-91.46800231933594 208.16200256347656,-35.9119987487793 C209.66299438476562,19.643999099731445 187.5330047607422,77.8270034790039 120.83499908447266,133.03599548339844 C58.35300064086914,184.75599670410156 1.6729999780654907,196.13400268554688 1.6729999780654907,196.13400268554688 C1.6729999780654907,196.13400268554688 -60.2400016784668,-4.955999851226807 -4.313000202178955,-170.98899841308594z"></path></g></g><g opacity="1" transform="matrix(1,0,0,1,0,0)"><g opacity="1" transform="matrix(1,0,0,1,0,0)"><path stroke-linecap="round" stroke-linejoin="round" fill-opacity="0" stroke="rgb(255,231,207)" stroke-opacity="1" stroke-width="10" d=" M54.70100021362305,-178.0489959716797 C54.70100021362305,-178.0489959716797 73.10600280761719,-179.49200439453125 98.28099822998047,-174.2830047607422"></path></g><g opacity="1" transform="matrix(1,0,0,1,0,0)"><path stroke-linecap="round" stroke-linejoin="round" fill-opacity="0" stroke="rgb(255,156,111)" stroke-opacity="1" stroke-width="10" d=" M69.73699951171875,-112.23600006103516 C69.73699951171875,-112.23600006103516 80.18000030517578,-90.77899932861328 85.5790023803711,-56.435001373291016"></path></g><g opacity="1" transform="matrix(1,0,0,1,0,0)"><g opacity="1" transform="matrix(1,0,0,1,0,0)"><path stroke-linecap="round" stroke-linejoin="round" fill-opacity="0" stroke="rgb(255,255,255)" stroke-opacity="1" stroke-width="6" d=" M88.24199676513672,-74.74299621582031 C88.24199676513672,-74.74299621582031 88.24199676513672,-74.74299621582031 88.24199676513672,-74.74299621582031"></path></g><g opacity="1" transform="matrix(1,0,0,1,0,0)"><path stroke-linecap="round" stroke-linejoin="round" fill-opacity="0" stroke="rgb(255,255,255)" stroke-opacity="1" stroke-width="6" d=" M81.14700317382812,-96.9280014038086 C81.14700317382812,-96.9280014038086 82.93000030517578,-92.46299743652344 84.98600006103516,-85.02100372314453"></path></g></g></g><g opacity="1" transform="matrix(1,0,0,1,0,0)"><path stroke-linecap="round" stroke-linejoin="round" fill-opacity="0" stroke="rgb(255,99,56)" stroke-opacity="1" stroke-width="8.2" d=" M174.76800537109375,75.12899780273438 C199.97900390625,38.03799819946289 209.14599609375,0.49900001287460327 208.16200256347656,-35.9119987487793 C208.16200256347656,-35.9119987487793 208.16200256347656,-35.9119987487793 208.16200256347656,-35.9119987487793 C206.66099548339844,-91.46800231933594 176.1269989013672,-167.0449981689453 103.55400085449219,-182.56100463867188 C30.981000900268555,-198.07699584960938 -4.313000202178955,-170.98899841308594 -4.313000202178955,-170.98899841308594 C-4.36299991607666,-170.84100341796875 -4.410999774932861,-170.69400024414062 -4.460000038146973,-170.54600524902344 C-15.692999839782715,-134.13400268554688 -22.020000457763672,-96.83999633789062 -24.989999771118164,-60.64500045776367"></path></g><g opacity="0.22" transform="matrix(1,0,0,1,0,0)"><g opacity="1" transform="matrix(1,0,0,1,0,0)"><path fill="rgb(255,199,138)" fill-opacity="1" d=" M132.90699768066406,22.562999725341797 C132.90699768066406,23.624000549316406 133.76800537109375,24.485000610351562 134.82899475097656,24.485000610351562 C135.88999938964844,24.485000610351562 136.75100708007812,23.624000549316406 136.75100708007812,22.562999725341797 C136.75100708007812,21.50200080871582 135.88999938964844,20.641000747680664 134.82899475097656,20.641000747680664 C133.76800537109375,20.641000747680664 132.90699768066406,21.50200080871582 132.90699768066406,22.562999725341797z"></path></g><g opacity="1" transform="matrix(1,0,0,1,0,0)"><path fill="rgb(255,199,138)" fill-opacity="1" d=" M121.33499908447266,-37.40999984741211 C121.33499908447266,-36.3489990234375 122.19599914550781,-35.487998962402344 123.25700378417969,-35.487998962402344 C124.31800079345703,-35.487998962402344 125.17900085449219,-36.3489990234375 125.17900085449219,-37.40999984741211 C125.17900085449219,-38.47100067138672 124.31800079345703,-39.332000732421875 123.25700378417969,-39.332000732421875 C122.19599914550781,-39.332000732421875 121.33499908447266,-38.47100067138672 121.33499908447266,-37.40999984741211z"></path></g><g opacity="1" transform="matrix(1,0,0,1,0,0)"><path fill="rgb(255,199,138)" fill-opacity="1" d=" M135.92100524902344,76.33799743652344 C135.92100524902344,77.39900207519531 136.78199768066406,78.26000213623047 137.84300231933594,78.26000213623047 C138.9040069580078,78.26000213623047 139.76499938964844,77.39900207519531 139.76499938964844,76.33799743652344 C139.76499938964844,75.2770004272461 138.9040069580078,74.41600036621094 137.84300231933594,74.41600036621094 C136.78199768066406,74.41600036621094 135.92100524902344,75.2770004272461 135.92100524902344,76.33799743652344z"></path></g><g opacity="1" transform="matrix(1,0,0,1,0,0)"><path fill="rgb(255,199,138)" fill-opacity="1" d=" M142.98199462890625,-93.05799865722656 C142.98199462890625,-91.33699798583984 144.3769989013672,-89.94200134277344 146.09800720214844,-89.94200134277344 C147.81900024414062,-89.94200134277344 149.21299743652344,-91.33699798583984 149.21299743652344,-93.05799865722656 C149.21299743652344,-94.77899932861328 147.81900024414062,-96.17400360107422 146.09800720214844,-96.17400360107422 C144.3769989013672,-96.17400360107422 142.98199462890625,-94.77899932861328 142.98199462890625,-93.05799865722656z"></path></g><g opacity="1" transform="matrix(1,0,0,1,0,0)"><path fill="rgb(255,199,138)" fill-opacity="1" d=" M167.16900634765625,12.592000007629395 C167.16900634765625,14.312999725341797 168.56399536132812,15.708000183105469 170.28500366210938,15.708000183105469 C172.00599670410156,15.708000183105469 173.4010009765625,14.312999725341797 173.4010009765625,12.592000007629395 C173.4010009765625,10.871000289916992 172.00599670410156,9.47599983215332 170.28500366210938,9.47599983215332 C168.56399536132812,9.47599983215332 167.16900634765625,10.871000289916992 167.16900634765625,12.592000007629395z"></path></g></g><g opacity="1" transform="matrix(1,0,0,1,0,0)"><path fill="rgb(225,0,0)" fill-opacity="1" d=" M203,26.875 C197.97500610351562,47.375 176.0260009765625,80.625 176.0260009765625,80.625 C176.0260009765625,80.625 167.125,80 167.125,80 C167.125,80 177.81900024414062,64.625 180.6529998779297,59.75 C189.75,48.375 196.5,39.125 203,26.875z"></path></g></g><g style="display: block;" transform="matrix(1,0,0,1,264,296)" opacity="1"><g opacity="1" transform="matrix(1,0,0,1,0,0)"><path fill="url(#__lottie_element_14035)" fill-opacity="1" d=" M59.04899978637695,-65.51799774169922 C41.66299819946289,-156.65699768066406 -8.616999626159668,-182.14300537109375 -56.191001892089844,-184.9219970703125 C-107.74099731445312,-187.9340057373047 -185.2760009765625,-177.177001953125 -214.96600341796875,-92.6259994506836 C-244.656005859375,-8.074999809265137 -208.9219970703125,62.242000579833984 -156.23300170898438,113.91100311279297 C-111.65599822998047,157.625 -36.827999114990234,204.5959930419922 -3.2660000324249268,197.49600219726562 C30.29599952697754,190.39599609375 84.54199981689453,68.11900329589844 59.04899978637695,-65.51799774169922z"></path></g><g opacity="1" transform="matrix(1,0,0,1,0,0)"><path fill="url(#__lottie_element_14036)" fill-opacity="1" d=" M41.88199996948242,-60.347999572753906 C22.365999221801758,-145.4530029296875 -25.96299934387207,-168.87899780273438 -69.56300354003906,-169.64999389648438 C-116.80799865722656,-170.48500061035156 -187.2169952392578,-152.98199462890625 -210.7949981689453,-70.4540023803711 C-234.3730010986328,12.074999809265137 -197.64199829101562,74.19200134277344 -146.42300415039062,120.83899688720703 C-90.47200012207031,171.7949981689453 -49.88399887084961,196.13299560546875 -12.090999603271484,185.13400268554688 C18.11400032043457,176.343994140625 69.73799896240234,61.12699890136719 41.88199996948242,-60.347999572753906z"></path></g><g opacity="0.3" transform="matrix(1,0,0,1,0,0)"><path fill="rgb(225,0,0)" fill-opacity="1" d=" M60.45199966430664,63.85300064086914 C49.3120002746582,138.47300720214844 18.770999908447266,192.83299255371094 -3.2690000534057617,197.4929962158203 C-36.82899856567383,204.59300231933594 -111.65899658203125,157.6230010986328 -156.22900390625,113.91300201416016 C-177.50900268554688,93.0530014038086 -196.01800537109375,69.14299774169922 -208.5679931640625,42.49300003051758 C-196.53799438476562,57.44300079345703 -130.49000549316406,136.80599975585938 -43.46799850463867,141.13999938964844 C48.40700149536133,145.71499633789062 60.45199966430664,63.85300064086914 60.45199966430664,63.85300064086914z"></path></g><g opacity="1" transform="matrix(1,0,0,1,0,0)"><path stroke-linecap="round" stroke-linejoin="round" fill-opacity="0" stroke="rgb(225,0,0)" stroke-opacity="1" stroke-width="8" d=" M59.04899978637695,-65.51799774169922 C41.66299819946289,-156.65699768066406 -8.616999626159668,-182.14300537109375 -56.191001892089844,-184.9219970703125 C-107.74099731445312,-187.9340057373047 -185.2760009765625,-177.177001953125 -214.96600341796875,-92.6259994506836 C-244.656005859375,-8.074999809265137 -208.9219970703125,62.242000579833984 -156.23300170898438,113.91100311279297 C-111.65599822998047,157.625 -36.827999114990234,204.5959930419922 -3.2660000324249268,197.49600219726562 C30.29599952697754,190.39599609375 84.54199981689453,68.11900329589844 59.04899978637695,-65.51799774169922z"></path></g><g opacity="1" transform="matrix(1,0,0,1,0,0)"><path stroke-linecap="round" stroke-linejoin="round" fill-opacity="0" stroke="rgb(255,99,56)" stroke-opacity="1" stroke-width="8.2" d=" M-5.834000110626221,-171.29600524902344 C-22.875,-180.625 -39.375,-183.625 -56.191001892089844,-184.9219970703125 C-107.6760025024414,-188.8939971923828 -185.2760009765625,-177.177001953125 -214.96600341796875,-92.6259994506836 C-236.77000427246094,-30.5310001373291 -223.28799438476562,23.88599967956543 -193.71800231933594,68.87799835205078"></path></g><g opacity="1" transform="matrix(1,0,0,1,0,0)"><path stroke-linecap="round" stroke-linejoin="round" fill-opacity="0" stroke="rgb(255,231,207)" stroke-opacity="1" stroke-width="10" d=" M-148.0449981689453,-159.47799682617188 C-148.0449981689453,-159.47799682617188 -104.56600189208984,-183.8489990234375 -42.46799850463867,-173.5070037841797"></path></g><g opacity="1" transform="matrix(1,0,0,1,0,0)"><path stroke-linecap="round" stroke-linejoin="round" fill-opacity="0" stroke="rgb(255,99,56)" stroke-opacity="1" stroke-width="8" d=" M-5.758999824523926,-171.2729949951172 C0.7820000052452087,-167.44700622558594 16.31999969482422,-159.177001953125 31.573999404907227,-137.00900268554688"></path></g><g opacity="1" transform="matrix(1,0,0,1,0,0)"><path fill="rgb(255,99,56)" fill-opacity="1" d=" M31.573999404907227,-143.86399841308594 C38.24800109863281,-135.2030029296875 58.095001220703125,-107.89900207519531 65.76300048828125,-49.558998107910156 C65.76300048828125,-49.558998107910156 63.17900085449219,-74.74299621582031 47.53200149536133,-105.2760009765625 C39.599998474121094,-120.75499725341797 30.586999893188477,-131.32699584960938 27.738000869750977,-135.5570068359375 C27.738000869750977,-135.5570068359375 31.573999404907227,-143.86399841308594 31.573999404907227,-143.86399841308594z"></path></g><g opacity="0.2" transform="matrix(1,0,0,1,0,0)"><g opacity="1" transform="matrix(1,0,0,1,0,0)"><path fill="rgb(255,199,138)" fill-opacity="1" d=" M-36.95899963378906,76.33799743652344 C-36.95899963378906,77.7229995727539 -35.83599853515625,78.84600067138672 -34.45100021362305,78.84600067138672 C-33.066001892089844,78.84600067138672 -31.94300079345703,77.7229995727539 -31.94300079345703,76.33799743652344 C-31.94300079345703,74.9530029296875 -33.066001892089844,73.83000183105469 -34.45100021362305,73.83000183105469 C-35.83599853515625,73.83000183105469 -36.95899963378906,74.9530029296875 -36.95899963378906,76.33799743652344z"></path></g><g opacity="1" transform="matrix(1,0,0,1,0,0)"><path fill="rgb(255,199,138)" fill-opacity="1" d=" M9.574000358581543,44.89099884033203 C9.574000358581543,45.95199966430664 10.4350004196167,46.8129997253418 11.496000289916992,46.8129997253418 C12.557000160217285,46.8129997253418 13.418000221252441,45.95199966430664 13.418000221252441,44.89099884033203 C13.418000221252441,43.83000183105469 12.557000160217285,42.96900177001953 11.496000289916992,42.96900177001953 C10.4350004196167,42.96900177001953 9.574000358581543,43.83000183105469 9.574000358581543,44.89099884033203z"></path></g><g opacity="1" transform="matrix(1,0,0,1,0,0)"><path fill="rgb(255,199,138)" fill-opacity="1" d=" M-59.555999755859375,-29.70800018310547 C-59.555999755859375,-28.64699935913086 -58.69499969482422,-27.785999298095703 -57.63399887084961,-27.785999298095703 C-56.573001861572266,-27.785999298095703 -55.71200180053711,-28.64699935913086 -55.71200180053711,-29.70800018310547 C-55.71200180053711,-30.768999099731445 -56.573001861572266,-31.6299991607666 -57.63399887084961,-31.6299991607666 C-58.69499969482422,-31.6299991607666 -59.555999755859375,-30.768999099731445 -59.555999755859375,-29.70800018310547z"></path></g><g opacity="1" transform="matrix(1,0,0,1,0,0)"><path fill="rgb(255,199,138)" fill-opacity="1" d=" M17.72800064086914,-45.06700134277344 C17.72800064086914,-44.00600051879883 18.589000701904297,-43.145999908447266 19.649999618530273,-43.145999908447266 C20.711000442504883,-43.145999908447266 21.57200050354004,-44.00600051879883 21.57200050354004,-45.06700134277344 C21.57200050354004,-46.12799835205078 20.711000442504883,-46.98899841308594 19.649999618530273,-46.98899841308594 C18.589000701904297,-46.98899841308594 17.72800064086914,-46.12799835205078 17.72800064086914,-45.06700134277344z"></path></g><g opacity="1" transform="matrix(1,0,0,1,0,0)"><path fill="rgb(255,199,138)" fill-opacity="1" d=" M-132.7969970703125,33.75299835205078 C-132.7969970703125,34.81399917602539 -131.93600463867188,35.67499923706055 -130.875,35.67499923706055 C-129.81399536132812,35.67499923706055 -128.9530029296875,34.81399917602539 -128.9530029296875,33.75299835205078 C-128.9530029296875,32.69200134277344 -129.81399536132812,31.83099937438965 -130.875,31.83099937438965 C-131.93600463867188,31.83099937438965 -132.7969970703125,32.69200134277344 -132.7969970703125,33.75299835205078z"></path></g><g opacity="1" transform="matrix(1,0,0,1,0,0)"><path fill="rgb(255,199,138)" fill-opacity="1" d=" M-97.1780014038086,-119.34700012207031 C-97.1780014038086,-118.28600311279297 -96.31700134277344,-117.42500305175781 -95.25599670410156,-117.42500305175781 C-94.19499969482422,-117.42500305175781 -93.33399963378906,-118.28600311279297 -93.33399963378906,-119.34700012207031 C-93.33399963378906,-120.40799713134766 -94.19499969482422,-121.26899719238281 -95.25599670410156,-121.26899719238281 C-96.31700134277344,-121.26899719238281 -97.1780014038086,-120.40799713134766 -97.1780014038086,-119.34700012207031z"></path></g><g opacity="1" transform="matrix(1,0,0,1,0,0)"><path fill="rgb(255,199,138)" fill-opacity="1" d=" M-148.25,-13.133999824523926 C-148.25,-12.072999954223633 -147.38900756835938,-11.211999893188477 -146.3280029296875,-11.211999893188477 C-145.26699829101562,-11.211999893188477 -144.406005859375,-12.072999954223633 -144.406005859375,-13.133999824523926 C-144.406005859375,-14.194999694824219 -145.26699829101562,-15.055999755859375 -146.3280029296875,-15.055999755859375 C-147.38900756835938,-15.055999755859375 -148.25,-14.194999694824219 -148.25,-13.133999824523926z"></path></g><g opacity="1" transform="matrix(1,0,0,1,0,0)"><path fill="rgb(255,199,138)" fill-opacity="1" d=" M13.418000221252441,33.75299835205078 C13.418000221252441,35.4739990234375 14.812999725341797,36.86899948120117 16.534000396728516,36.86899948120117 C18.2549991607666,36.86899948120117 19.649999618530273,35.4739990234375 19.649999618530273,33.75299835205078 C19.649999618530273,32.03200149536133 18.2549991607666,30.636999130249023 16.534000396728516,30.636999130249023 C14.812999725341797,30.636999130249023 13.418000221252441,32.03200149536133 13.418000221252441,33.75299835205078z"></path></g><g opacity="1" transform="matrix(1,0,0,1,0,0)"><path fill="rgb(255,199,138)" fill-opacity="1" d=" M-114.83999633789062,3.312000036239624 C-114.83999633789062,5.0329999923706055 -113.44499969482422,6.427999973297119 -111.7239990234375,6.427999973297119 C-110.00299835205078,6.427999973297119 -108.60800170898438,5.0329999923706055 -108.60800170898438,3.312000036239624 C-108.60800170898438,1.590999960899353 -110.00299835205078,0.19599999487400055 -111.7239990234375,0.19599999487400055 C-113.44499969482422,0.19599999487400055 -114.83999633789062,1.590999960899353 -114.83999633789062,3.312000036239624z"></path></g><g opacity="1" transform="matrix(1,0,0,1,0,0)"><path fill="rgb(255,199,138)" fill-opacity="1" d=" M-15.352999687194824,-112.23600006103516 C-15.352999687194824,-110.51499938964844 -13.958000183105469,-109.12000274658203 -12.237000465393066,-109.12000274658203 C-10.515999794006348,-109.12000274658203 -9.121000289916992,-110.51499938964844 -9.121000289916992,-112.23600006103516 C-9.121000289916992,-113.95700073242188 -10.515999794006348,-115.35199737548828 -12.237000465393066,-115.35199737548828 C-13.958000183105469,-115.35199737548828 -15.352999687194824,-113.95700073242188 -15.352999687194824,-112.23600006103516z"></path></g><g opacity="1" transform="matrix(1,0,0,1,0,0)"><path fill="rgb(255,199,138)" fill-opacity="1" d=" M-130.875,-37.40999984741211 C-130.875,-35.68899917602539 -129.47999572753906,-34.29399871826172 -127.75900268554688,-34.29399871826172 C-126.03800201416016,-34.29399871826172 -124.64299774169922,-35.68899917602539 -124.64299774169922,-37.40999984741211 C-124.64299774169922,-39.13100051879883 -126.03800201416016,-40.5260009765625 -127.75900268554688,-40.5260009765625 C-129.47999572753906,-40.5260009765625 -130.875,-39.13100051879883 -130.875,-37.40999984741211z"></path></g><g opacity="1" transform="matrix(1,0,0,1,0,0)"><path fill="rgb(255,199,138)" fill-opacity="1" d=" M-38.702999114990234,6.427999973297119 C-38.702999114990234,8.14900016784668 -37.30799865722656,9.543999671936035 -35.58700180053711,9.543999671936035 C-33.86600112915039,9.543999671936035 -32.47100067138672,8.14900016784668 -32.47100067138672,6.427999973297119 C-32.47100067138672,4.706999778747559 -33.86600112915039,3.312000036239624 -35.58700180053711,3.312000036239624 C-37.30799865722656,3.312000036239624 -38.702999114990234,4.706999778747559 -38.702999114990234,6.427999973297119z"></path></g><g opacity="1" transform="matrix(1,0,0,1,0,0)"><path fill="rgb(255,199,138)" fill-opacity="1" d=" M-55.71200180053711,-65.86799621582031 C-55.71200180053711,-64.14700317382812 -54.31800079345703,-62.75199890136719 -52.59700012207031,-62.75199890136719 C-50.875999450683594,-62.75199890136719 -49.48099899291992,-64.14700317382812 -49.48099899291992,-65.86799621582031 C-49.48099899291992,-67.58899688720703 -50.875999450683594,-68.98400115966797 -52.59700012207031,-68.98400115966797 C-54.31800079345703,-68.98400115966797 -55.71200180053711,-67.58899688720703 -55.71200180053711,-65.86799621582031z"></path></g></g><g opacity="1" transform="matrix(1,0,0,1,0,0)"><path fill="rgb(225,0,0)" fill-opacity="1" d=" M-220.75,23.5 C-215.875,44 -193.125,76.625 -193.125,76.625 C-193.125,76.625 -184.125,76 -184.125,76 C-184.125,76 -194.5,60.625 -197.25,55.75 C-212.125,39.5 -216.25,30.875 -220.75,23.5z"></path></g></g><g style="display: block;" transform="matrix(0.9933828115463257,-0.11485046148300171,0.11485046148300171,0.9933828115463257,260.9419250488281,296.3138427734375)" opacity="1"><g opacity="0" transform="matrix(1,0,0,1,0,0)"><path fill="rgb(225,0,0)" fill-opacity="1" d=" M55.334999084472656,-93.76899719238281 C52.979000091552734,-93.822998046875 75.43699645996094,-31.608999252319336 54.645999908447266,-29.059999465942383 C46.4010009765625,-28.048999786376953 28.392000198364258,-35.70000076293945 13.326000213623047,-43.29999923706055 C13.324999809265137,-43.29999923706055 13.324000358581543,-43.30099868774414 13.322999954223633,-43.30099868774414 C13.321999549865723,-43.30099868774414 13.321999549865723,-43.301998138427734 13.321000099182129,-43.301998138427734 C6.64900016784668,-46.659000396728516 0.07599999755620956,-50.21200180053711 -8.246999740600586,-54.71200180053711 C-16.31599998474121,-59.07500076293945 -26.358999252319336,-64.50299835205078 -39.30099868774414,-71.24299621582031 C-46.90800094604492,-75.20500183105469 -53.930999755859375,-79.15299987792969 -60.72100067138672,-82.97100067138672 C-87.53199768066406,-98.0479965209961 -105.3949966430664,-106.62300109863281 -112.28199768066406,-98.20099639892578 C-115.7699966430664,-93.93599700927734 -116.24700164794922,-89.84200286865234 -115.05599975585938,-85.18299865722656 C-112.04299926757812,-73.39800262451172 -100.18000030517578,-67.61000061035156 -81.89199829101562,-57.46099853515625 C-78.677001953125,-55.676998138427734 -75.38999938964844,-53.85300064086914 -72.10199737548828,-51.972999572753906 C-68.3489990234375,-49.82699966430664 -64.6760025024414,-47.7599983215332 -61.138999938964844,-45.76900100708008 C-50.98099899291992,-40.05099868774414 -39.042999267578125,-33.11199951171875 -32.652000427246094,-28.759000778198242 C-29,-26.27199935913086 -25.023000717163086,-23.593000411987305 -26.143999099731445,-19.913999557495117 C-26.7450008392334,-15.236000061035156 -57.01499938964844,-25.892000198364258 -71.6709976196289,-31.893999099731445 C-77.09500122070312,-34.1150016784668 -82.572998046875,-36.36000061035156 -87.8949966430664,-38.50199890136719 C-90.94999694824219,-39.731998443603516 -93.89600372314453,-40.93199920654297 -96.73500061035156,-42.0890007019043 C-112.6240005493164,-48.5629997253418 -125.17500305175781,-53.67399978637695 -135.0850067138672,-55.073001861572266 C-147.0229949951172,-56.75899887084961 -154.5290069580078,-56.856998443603516 -158.4709930419922,-46.849998474121094 C-159.3820037841797,-44.5359992980957 -158.96600341796875,-41.08100128173828 -157.35800170898438,-37.19499969482422 C-151.9550018310547,-24.13800048828125 -127.80899810791016,-19.04599952697754 -100.70500183105469,-8.291999816894531 C-96.20700073242188,-6.506999969482422 -91.55500030517578,-4.6620001792907715 -87.0510025024414,-2.816999912261963 C-78.41400146484375,0.7210000157356262 -70.83499908447266,3.74399995803833 -64.14800262451172,6.410999774932861 C-51.90999984741211,11.291999816894531 -37.76599884033203,20.233999252319336 -37.50199890136719,24.952999114990234 C-40.948001861572266,28.17099952697754 -58.266998291015625,24.863000869750977 -68.875,22.333999633789062 C-75.5719985961914,20.738000869750977 -82.49700164794922,19.08799934387207 -88.97200012207031,17.69499969482422 C-93.11900329589844,16.80299949645996 -97.09100341796875,15.916000366210938 -100.875,15.071999549865723 C-114.88899993896484,11.944999694824219 -125.95899963378906,9.479999542236328 -134.7729949951172,9.090999603271484 C-138.8179931640625,8.911999702453613 -151.11500549316406,8.37600040435791 -155.28599548339844,18.292999267578125 C-156.77200317382812,21.826000213623047 -156.4929962158203,25.17799949645996 -154.45899963378906,28.256999969482422 C-148.2899932861328,37.59600067138672 -127.40799713134766,42.50899887084961 -95.79299926757812,49.92399978637695 C-93.06900024414062,50.5629997253418 -90.28099822998047,51.21799850463867 -87.43399810791016,51.891998291015625 C-71.13099670410156,55.75199890136719 -58.22600173950195,58.25699996948242 -48.803001403808594,60.08599853515625 C-39.66899871826172,61.85900115966797 -29.246000289916992,66.26699829101562 -29.371999740600586,69.28800201416016 C-33.22200012207031,71.99299621582031 -52.52299880981445,75.18900299072266 -63.540000915527344,74.26899719238281 C-66.09200286865234,74.05599975585938 -68.62200164794922,73.84400177001953 -71.0790023803711,73.65599822998047 C-73.3759994506836,73.4800033569336 -75.56999969482422,73.30400085449219 -77.66400146484375,73.13600158691406 C-89.81500244140625,72.16200256347656 -98.59600067138672,71.45099639892578 -105.08200073242188,72.47200012207031 C-113.0479965209961,73.72599792480469 -116.45800018310547,76.69499969482422 -118.16500091552734,81.1520004272461 C-119.3499984741211,84.24600219726562 -120.35900115966797,88.43599700927734 -117.66999816894531,92.18099975585938 C-110.20099639892578,102.58300018310547 -89.33499908447266,102.22599792480469 -63.93000030517578,105.0009994506836 C-63.93000030517578,105.0009994506836 -60.31800079345703,105.39700317382812 -60.31800079345703,105.39700317382812 C-56.27899932861328,105.84200286865234 -52.590999603271484,106.23799896240234 -49.138999938964844,106.60800170898438 C-34.34600067138672,108.19400024414062 -23.656999588012695,109.34100341796875 -8.350000381469727,111.95700073242188 C-8.329999923706055,111.96099853515625 -8.309000015258789,111.95899963378906 -8.288999557495117,111.96199798583984 C-8.272000312805176,111.96499633789062 18.774999618530273,117.61100006103516 18.79199981689453,117.61599731445312 C66.05000305175781,130.13299560546875 85.81400299072266,-93.0739974975586 55.334999084472656,-93.76899719238281z"></path></g></g><g style="display: block;" transform="matrix(0.6430549621582031,-0.7658200263977051,0.7658200263977051,0.6430549621582031,980.515380859375,620.1292724609375)" opacity="1"><g opacity="0" transform="matrix(1,0,0,1,0,0)"><path fill="rgb(225,0,0)" fill-opacity="1" d=" M124.66300201416016,-3.680000066757202 C121.64800262451172,-9.484999656677246 119.21399688720703,-13.980999946594238 117.06600189208984,-17.947999954223633 C111.68900299072266,-27.878999710083008 108.72699737548828,-33.3489990234375 104.83799743652344,-44.4010009765625 C100.61000061035156,-56.41600036621094 99.20700073242188,-68.7770004272461 97.96900177001953,-79.68199920654297 C97.62300109863281,-82.7300033569336 97.2959976196289,-85.61000061035156 96.91899871826172,-88.42400360107422 C96.71600341796875,-89.94300079345703 96.53900146484375,-91.53800201416016 96.36000061035156,-93.16300201416016 C95.05799865722656,-104.93000030517578 94.89299774169922,-132.10899353027344 77.57499694824219,-130.80499267578125 C77.54499816894531,-130.80299377441406 77.6050033569336,-130.80799865722656 77.57499694824219,-130.80499267578125 C60.70500183105469,-129.45799255371094 54.534000396728516,-106.50800323486328 54.66600036621094,-92.33599853515625 C54.73099899291992,-85.2760009765625 56.249000549316406,-78.08999633789062 57.715999603271484,-71.14099884033203 C59.196998596191406,-64.12799835205078 60.39899826049805,-57.50699996948242 60.38399887084961,-51.70100021362305 C60.37300109863281,-47.487998962402344 60.465999603271484,-40.176998138427734 56.24700164794922,-35.604000091552734 C55.29800033569336,-34.57500076293945 52.641998291015625,-33.340999603271484 49.91899871826172,-33.88399887084961 C41.77299880981445,-35.5099983215332 37.948001861572266,-37.55699920654297 23.790000915527344,-46.737998962402344 C23.788999557495117,-46.73899841308594 23.788000106811523,-46.737998962402344 23.78700065612793,-46.73899841308594 C23.785999298095703,-46.7400016784668 23.785999298095703,-46.74100112915039 23.78499984741211,-46.74100112915039 C17.513999938964844,-50.79899978637695 11.36299991607666,-55.04100036621094 3.5739998817443848,-60.4109992980957 C-3.9769999980926514,-65.61900329589844 -13.37600040435791,-72.0989990234375 -25.514999389648438,-80.19599914550781 C-32.650001525878906,-84.95600128173828 -39.20500183105469,-89.63899993896484 -45.54399871826172,-94.16699981689453 C-70.5719985961914,-112.04900360107422 -90.34400177001953,-126.1709976196289 -103.18199920654297,-110.0260009765625 C-106.61100006103516,-105.71399688720703 -108.00399780273438,-101.11499786376953 -107.322998046875,-96.35399627685547 C-105.5989990234375,-84.31300354003906 -90.83999633789062,-73.89700317382812 -73.75199890136719,-61.83599853515625 C-70.74800109863281,-59.71500015258789 -67.6760025024414,-57.54800033569336 -64.61000061035156,-55.32400131225586 C-61.111000061035156,-52.7859992980957 -57.683998107910156,-50.33399963378906 -54.38199996948242,-47.972999572753906 C-44.9010009765625,-41.19200134277344 -36.71200180053711,-35.33700180053711 -30.827999114990234,-30.31999969482422 C-27.46500015258789,-27.452999114990234 -25.503999710083008,-25.391000747680664 -24.349000930786133,-23.93899917602539 C-32.935001373291016,-27.368999481201172 -51.055999755859375,-37.19499969482422 -64.97799682617188,-44.744998931884766 C-70.13099670410156,-47.53900146484375 -75.33499908447266,-50.36199951171875 -80.39399719238281,-53.066001892089844 C-83.2979965209961,-54.61800003051758 -86.0979995727539,-56.12900161743164 -88.79499816894531,-57.584999084472656 C-103.89299774169922,-65.73600006103516 -115.81900024414062,-72.1729965209961 -125.5199966430664,-74.63200378417969 C-137.20599365234375,-77.59600067138672 -145.4739990234375,-74.48699951171875 -150.78599548339844,-65.13500213623047 C-152.89999389648438,-61.41400146484375 -153.37399291992188,-57.48099899291992 -152.19500732421875,-53.44300079345703 C-148.23199462890625,-39.87900161743164 -125.96099853515625,-28.1200008392334 -100.17500305175781,-14.506999969482422 C-95.8949966430664,-12.246999740600586 -91.47100067138672,-9.90999984741211 -87.19200134277344,-7.590000152587891 C-78.98699951171875,-3.1410000324249268 -71.77799987792969,0.6819999814033508 -65.41799926757812,4.054999828338623 C-53.77799987792969,10.227999687194824 -43.356998443603516,15.760000228881836 -38.270999908447266,19.301000595092773 C-45.81999969482422,17.858999252319336 -60.34400177001953,12.494000434875488 -70.68499755859375,8.67300033569336 C-77.21299743652344,6.260000228881836 -83.96399688720703,3.7660000324249268 -90.29100036621094,1.621999979019165 C-94.34300231933594,0.24799999594688416 -98.22100067138672,-1.1069999933242798 -101.91600036621094,-2.3989999294281006 C-115.5979995727539,-7.181000232696533 -126.40599822998047,-10.956999778747559 -135.16799926757812,-11.989999771118164 C-139.18800354003906,-12.465999603271484 -151.41600036621094,-13.906000137329102 -156.5590057373047,-1.7799999713897705 C-158.39199829101562,2.5390000343322754 -158.44500732421875,6.743000030517578 -156.72000122070312,10.715999603271484 C-151.48500061035156,22.766000747680664 -131.11900329589844,30.197999954223633 -100.29199981689453,41.44599914550781 C-97.63600158691406,42.41400146484375 -94.91699981689453,43.40700149536133 -92.14099884033203,44.426998138427734 C-76.24600219726562,50.268001556396484 -63.60900115966797,54.20500183105469 -54.38199996948242,57.077999114990234 C-45.4379997253418,59.86399841308594 -36.9739990234375,62.50299835205078 -34.97200012207031,64.25499725341797 C-39.090999603271484,66.52899932861328 -59.0359992980957,62.66299819946289 -69.88899993896484,60.555999755859375 C-72.40299987792969,60.069000244140625 -74.8949966430664,59.584999084472656 -77.31800079345703,59.132999420166016 C-79.58300018310547,58.709999084472656 -81.74500274658203,58.29800033569336 -83.80899810791016,57.904998779296875 C-95.78399658203125,55.625999450683594 -104.43599700927734,53.979000091552734 -110.99400329589844,54.28799819946289 C-119.04900360107422,54.67499923706055 -124.072998046875,58.215999603271484 -126.40499877929688,65.14600372314453 C-128.05499267578125,70.0510025024414 -127.74299621582031,74.5719985961914 -125.4729995727539,78.58499908447266 C-119.16999816894531,89.73200225830078 -99.45600128173828,94.0770034790039 -74.4990005493164,99.5770034790039 C-74.4990005493164,99.5770034790039 -70.95099639892578,100.36100006103516 -70.95099639892578,100.36100006103516 C-66.98400115966797,101.23999786376953 -63.36000061035156,102.02999877929688 -59.96799850463867,102.77100372314453 C-45.43199920654297,105.94400024414062 -34.92900085449219,108.23699951171875 -19.993999481201172,112.48899841308594 C-19.974000930786133,112.49500274658203 -19.95400047302246,112.49600219726562 -19.93400001525879,112.5009994506836 C-19.91699981689453,112.50599670410156 -19.902999877929688,112.51499938964844 -19.88599967956543,112.51899719238281 C9.194999694824219,119.99700164794922 48.49599838256836,128.9739990234375 74.24700164794922,126.91699981689453 C78.5979995727539,126.56999969482422 82.56500244140625,125.90799713134766 86.0270004272461,124.87000274658203 C116.41200256347656,115.76200103759766 127.56800079345703,95.43800354003906 135.0959930419922,74.83000183105469 C144.46400451660156,49.19200134277344 136.20199584960938,18.538000106811523 124.66300201416016,-3.680000066757202z"></path></g><g opacity="1" transform="matrix(1,0,0,1,0,0)"><g opacity="1" transform="matrix(1,0,0,1,0,0)"><g opacity="1" transform="matrix(1,0,0,1,0,0)"><path fill="rgb(255,205,0)" fill-opacity="1" d=" M-25.860000610351562,7.855000019073486 C-24.945999145507812,4.427999973297119 -49.327999114990234,-7.150000095367432 -85.36399841308594,-25.871999740600586 C-125.1760025024414,-46.555999755859375 -153.9340057373047,-64.4469985961914 -145.3159942626953,-79.60299682617188 C-135.07000732421875,-97.62100219726562 -114.78299713134766,-84.56700134277344 -78.9520034790039,-65.41999816894531 C-49.779998779296875,-49.832000732421875 -15.86299991607666,-28.238000869750977 -13.616000175476074,-34.08599853515625"></path></g><g opacity="1" transform="matrix(1,0,0,1,0,0)"><path fill="rgb(255,205,0)" fill-opacity="1" d=" M27.94700050354004,-59.104000091552734 C61.00199890136719,-40.847999572753906 68.49700164794922,-42.88399887084961 70.26000213623047,-53.229000091552734 C72.61000061035156,-67.01899719238281 63.875999450683594,-86.11399841308594 63.74599838256836,-100.12300109863281 C63.61600112915039,-114.13200378417969 73.81300354003906,-135.75599670410156 87.6510009765625,-135.50999450683594 C102.09300231933594,-135.2530059814453 100.33100128173828,-122.71199798583984 103.01100158691406,-105.21099853515625 C105.0790023803711,-91.70600128173828 104.77400207519531,-77.62899780273438 110.50199890136719,-61.349998474121094 C116.2300033569336,-45.07099914550781 118.75599670410156,-39.96799850463867 132.03700256347656,-16.50200080871582 C145.31700134277344,6.964000225067139 147.88699340820312,39.23500061035156 140.71299743652344,60.65299987792969 C133.69900512695312,81.59200286865234 125.98500061035156,97.16899871826172 97.33000183105469,107.99800109863281 C63.222999572753906,120.88700103759766 -0.6349999904632568,102.30500030517578 -17.062999725341797,95.73699951171875 C-17.062999725341797,95.73699951171875 -125.2969970703125,57.650001525878906 -25.52400016784668,52.28099822998047 C-25.52400016784668,52.28099822998047 -41.91600036621094,28.55699920654297 -25.860000610351562,7.855000019073486 C-25.860000610351562,7.855000019073486 -35.8390007019043,-20.094999313354492 -14.067000389099121,-35.27000045776367 C-14.067000389099121,-35.27000045776367 -2.7090001106262207,-76.03500366210938 27.94700050354004,-59.104000091552734z"></path></g><g opacity="1" transform="matrix(1,0,0,1,0,0)"><path fill="rgb(255,169,0)" fill-opacity="1" d=" M139.95899963378906,51.18000030517578 C141.7969970703125,74.20500183105469 125.98899841308594,97.16400146484375 97.33200073242188,107.9990005493164 C63.22800064086914,120.88500213623047 -19.11400032043457,96.2490005493164 -35.5369987487793,89.68499755859375 C-35.5369987487793,89.68499755859375 -116.52200317382812,58.98099899291992 -32.619998931884766,57.29999923706055 C-32.619998931884766,57.29999923706055 -21.3799991607666,48.909000396728516 -21.3799991607666,48.909000396728516 C-21.3799991607666,48.909000396728516 -12.10200023651123,67.5989990234375 21.45400047302246,80.6709976196289 C74.43000030517578,101.30799865722656 126.01100158691406,92.58699798583984 139.95899963378906,51.18000030517578z"></path></g><g opacity="1" transform="matrix(1,0,0,1,0,0)"><path fill="rgb(255,221,74)" fill-opacity="1" d=" M140.71400451660156,60.65800094604492 C133.70199584960938,81.58999633789062 125.98899841308594,97.1709976196289 97.33100128173828,107.99500274658203 C92.822998046875,109.697998046875 87.80500030517578,110.8489990234375 82.44400024414062,111.55000305175781 C82.70700073242188,111.427001953125 82.96800231933594,111.29900360107422 83.24500274658203,111.17900085449219 C116.82099914550781,96.60600280761719 156.80099487304688,46.47600173950195 114.88300323486328,-22.988000869750977 C89.73300170898438,-64.66600036621094 94.80599975585938,-105.52999877929688 87.6709976196289,-120.75900268554688 C81.97799682617188,-132.91000366210938 66.61199951171875,-114.49600219726562 66.61199951171875,-114.49600219726562 C66.43699645996094,-114.98300170898438 66.27300262451172,-115.48200225830078 66.12100219726562,-115.95899963378906 C69.47000122070312,-127.18599700927734 76.46600341796875,-137.48699951171875 87.6510009765625,-135.51199340820312 C101.87300109863281,-133.0050048828125 100.33399963378906,-122.70999908447266 103.01699829101562,-105.21600341796875 C105.08499908447266,-91.71299743652344 104.76899719238281,-77.62899780273438 110.50700378417969,-61.34600067138672 C116.23300170898438,-45.073001861572266 117.83899688720703,-39.97200012207031 131.1269989013672,-16.506999969482422 C144.4040069580078,6.959000110626221 147.89300537109375,39.23500061035156 140.71400451660156,60.65800094604492z"></path></g><g opacity="1" transform="matrix(1,0,0,1,0,0)"><path fill="rgb(255,205,0)" fill-opacity="1" d=" M27.94700050354004,-59.104000091552734 C16.902000427246094,-64.85700225830078 -8.362000465393066,-82.20600128173828 -25.200000762939453,-94.52100372314453 C-57.49800109863281,-118.14399719238281 -82.36000061035156,-143.0290069580078 -95.67500305175781,-126.44400024414062 C-108.5770034790039,-110.3740005493164 -83.8499984741211,-92.55000305175781 -57.8129997253418,-74.29000091552734 C-25.224000930786133,-51.435001373291016 -11.255000114440918,-42.18199920654297 -13.616000175476074,-34.08599853515625 C-13.616000175476074,-34.08599853515625 27.94700050354004,-59.104000091552734 27.94700050354004,-59.104000091552734z"></path></g><g opacity="1" transform="matrix(1,0,0,1,0,0)"><path fill="rgb(255,221,74)" fill-opacity="1" d=" M74.39700317382812,-57.66699981689453 C74.39700317382812,-57.66699981689453 82.08999633789062,-41.17900085449219 73.45800018310547,-32.42599868774414 C67.0469970703125,-25.924999237060547 49.31800079345703,-30.822999954223633 20.04400062561035,-49.11399841308594 C-10.661999702453613,-68.30000305175781 -60.573001861572266,-111.31700134277344 -76.177001953125,-114.71499633789062 C-91.5780029296875,-118.06900024414062 -90.66000366210938,-108.3010025024414 -90.66000366210938,-108.3010025024414 C-95.20899963378906,-110.78700256347656 -98.31300354003906,-115.28199768066406 -100.4280014038086,-120.3290023803711 C-99.95899963378906,-121.13300323486328 -99.41899871826172,-121.947998046875 -98.79299926757812,-122.77799987792969 C-86.0199966430664,-139.7830047607422 -56.38399887084961,-116.2229995727539 -21.895000457763672,-95.9209976196289 C-10.734999656677246,-89.35399627685547 61.90800094604492,-15.564000129699707 74.39700317382812,-57.66699981689453z"></path></g><g opacity="1" transform="matrix(1,0,0,1,0,0)"><path fill="rgb(255,221,74)" fill-opacity="1" d=" M-131.26100158691406,-63.51900100708008 C-131.26100158691406,-63.51900100708008 -133.32400512695312,-72.2490005493164 -123.6760025024414,-72.73500061035156 C-112.21099853515625,-73.31199645996094 -83.06400299072266,-55.75400161743164 -65.8949966430664,-47.00199890136719 C-46.66999816894531,-37.20199966430664 -15.715999603271484,-16.68899917602539 -10.428000450134277,-34.358001708984375 C-10.428000450134277,-34.358001708984375 -20.492000579833984,-33.16899871826172 -32.417999267578125,-39.23500061035156 C-62.45500183105469,-54.51300048828125 -115.38800048828125,-86.33999633789062 -126.74800109863281,-87.73100280761719 C-142.61900329589844,-89.67500305175781 -149.52099609375,-75.49400329589844 -131.26100158691406,-63.51900100708008z"></path></g><g opacity="1" transform="matrix(1,0,0,1,0,0)"><path fill="rgb(255,169,0)" fill-opacity="1" d=" M-135.11000061035156,-85.40899658203125 C-135.11000061035156,-85.40899658203125 -147.30099487304688,-77.04299926757812 -127.43299865722656,-63.34600067138672 C-109.44499969482422,-50.94599914550781 -95.06999969482422,-43.0099983215332 -61.75,-26.336000442504883 C-28.43000030517578,-9.661999702453613 -15.463000297546387,-2.1649999618530273 -24.77899932861328,10.692000389099121 C-24.77899932861328,10.692000389099121 -22.216999053955078,2.0280001163482666 -46.446998596191406,-8.842000007629395 C-65.60800170898438,-17.437999725341797 -116.3759994506836,-43.900001525878906 -127.30599975585938,-50.51900100708008 C-138.23500061035156,-57.13800048828125 -160.5659942626953,-73.97200012207031 -135.11000061035156,-85.40899658203125z"></path></g><g opacity="1" transform="matrix(1,0,0,1,0,0)"><path stroke-linecap="round" stroke-linejoin="round" fill-opacity="0" stroke="rgb(255,108,0)" stroke-opacity="1" stroke-width="8" d=" M-25.860000610351562,7.855000019073486 C-24.507999420166016,2.4820001125335693 -42.66699981689453,-5.46999979019165 -81.64600372314453,-26.60700035095215 C-115.8740005493164,-45.167999267578125 -155.01100158691406,-62.53499984741211 -145.3159942626953,-79.60299682617188 C-135.0570068359375,-97.66400146484375 -114.78299713134766,-84.56700134277344 -78.9520034790039,-65.41999816894531 C-49.779998779296875,-49.832000732421875 -15.854999542236328,-30.36400032043457 -13.616000175476074,-34.08599853515625"></path></g><g opacity="1" transform="matrix(1,0,0,1,0,0)"><g opacity="1" transform="matrix(1,0,0,1,0,0)"><path fill="rgb(255,205,0)" fill-opacity="1" d=" M-27.297000885009766,6.000999927520752 C-29.07200050354004,13.53499984741211 -49.617000579833984,6.321000099182129 -89.4990005493164,-9.190999984741211 C-120.06900024414062,-21.08099937438965 -145.69400024414062,-29.18199920654297 -151.02699279785156,-14.866000175476074 C-157.35400390625,2.118000030517578 -126.52100372314453,14.322999954223633 -88.73400115966797,27.351999282836914 C-50.946998596191406,40.38100051879883 -24.231000900268555,45.737998962402344 -25.52400016784668,52.28099822998047"></path></g><g opacity="1" transform="matrix(1,0,0,1,0,0)"><path fill="rgb(255,221,74)" fill-opacity="1" d=" M-134.88099670410156,-2.2679998874664307 C-134.88099670410156,-2.2679998874664307 -139.55799865722656,-8.324999809265137 -129.197998046875,-11.814000129699707 C-117.76200103759766,-15.664999961853027 -109.80400085449219,-11.70300006866455 -94.11499786376953,-10.008000373840332 C-94.11499786376953,-10.008000373840332 -131.62600708007812,-27.868000030517578 -141.47799682617188,-24.676000595092773 C-157.75799560546875,-19.402000427246094 -144.26800537109375,-5.283999919891357 -134.88099670410156,-2.2679998874664307z"></path></g><g opacity="1" transform="matrix(1,0,0,1,0,0)"><path fill="rgb(255,169,0)" fill-opacity="1" d=" M-142.96200561523438,-19.93899917602539 C-142.96200561523438,-19.93899917602539 -155.01100158691406,-12.012999534606934 -127.20800018310547,-0.12999999523162842 C-110.24800109863281,7.11899995803833 -72.00900268554688,20.68199920654297 -42.055999755859375,31.26799964904785 C-11.305999755859375,42.1349983215332 -23.320999145507812,54.37099838256836 -23.320999145507812,54.37099838256836 C-23.320999145507812,54.37099838256836 -24.517000198364258,47.81800079345703 -48.060001373291016,40.422000885009766 C-71.60299682617188,33.0260009765625 -109.64800262451172,20.406999588012695 -123.56099700927734,14.87399959564209 C-137.4739990234375,9.340999603271484 -153.7570037841797,-0.014999999664723873 -151.92999267578125,-11.001999855041504 C-150.1020050048828,-21.98900032043457 -142.96200561523438,-19.93899917602539 -142.96200561523438,-19.93899917602539z"></path></g><g opacity="1" transform="matrix(1,0,0,1,0,0)"><path stroke-linecap="round" stroke-linejoin="round" fill-opacity="0" stroke="rgb(255,108,0)" stroke-opacity="1" stroke-width="8" d=" M-25.860000610351562,7.855000019073486 C-27.493000030517578,15.463000297546387 -61.590999603271484,0.2669999897480011 -88.45500183105469,-8.83899974822998 C-122.36900329589844,-20.333999633789062 -144.3679962158203,-30.559999465942383 -151.02699279785156,-14.866000175476074 C-158.23899841308594,2.132999897003174 -128.90699768066406,11.385000228881836 -87.33799743652344,26.65999984741211 C-41.55500030517578,43.48400115966797 -23.385000228881836,44.486000061035156 -25.52400016784668,52.28099822998047"></path></g></g><g opacity="1" transform="matrix(1,0,0,1,0,0)"><g opacity="1" transform="matrix(1,0,0,1,0,0)"><path fill="rgb(255,169,0)" fill-opacity="1" d=" M-28.55699920654297,54.090999603271484 C-46.345001220703125,57.85100173950195 -52.36600112915039,52.69900131225586 -73.60299682617188,48.5620002746582 C-101.40899658203125,43.14500045776367 -115.8010025024414,41.606998443603516 -119.86799621582031,53.689998626708984 C-125.9010009765625,71.61599731445312 -100.81999969482422,78.42400360107422 -65.64700317382812,85.87100219726562 C-45.92300033569336,90.0469970703125 -17.062999725341797,95.73699951171875 -17.062999725341797,95.73699951171875 C-108.08899688720703,54.41899871826172 -28.55699920654297,54.090999603271484 -28.55699920654297,54.090999603271484z"></path></g><g opacity="1" transform="matrix(1,0,0,1,0,0)"><path fill="rgb(255,205,0)" fill-opacity="1" d=" M-102.5790023803711,74.43599700927734 C-102.5790023803711,74.43599700927734 -114.10800170898438,64.99600219726562 -110.17900085449219,59.040000915527344 C-105.01300048828125,51.20800018310547 -75.15899658203125,56.819000244140625 -67.12100219726562,55.60200119018555 C-67.12100219726562,55.60200119018555 -112.322998046875,38.16600036621094 -119.21800231933594,51.32699966430664 C-128.65699768066406,69.34300231933594 -102.5790023803711,74.43599700927734 -102.5790023803711,74.43599700927734z"></path></g><g opacity="1" transform="matrix(1,0,0,1,0,0)"><path stroke-linecap="round" stroke-linejoin="round" fill-opacity="0" stroke="rgb(255,108,0)" stroke-opacity="1" stroke-width="8" d=" M-25.52400016784668,52.28099822998047 C-26.709999084472656,60.78300094604492 -53.21099853515625,54.48899841308594 -74.4800033569336,50.51599884033203 C-103.08399963378906,45.172000885009766 -115.8010025024414,41.606998443603516 -119.86799621582031,53.689998626708984 C-125.9010009765625,71.61599731445312 -98.12999725341797,76.97000122070312 -66.11299896240234,84.05699920654297 C-44.19300079345703,88.90899658203125 -32.45800018310547,91.18199920654297 -13.406000137329102,96.60600280761719"></path></g></g><g opacity="1" transform="matrix(1,0,0,1,0,0)"><path stroke-linecap="round" stroke-linejoin="round" fill-opacity="0" stroke="rgb(255,108,0)" stroke-opacity="1" stroke-width="8" d=" M27.94700050354004,-59.104000091552734 C46.28200149536133,-47.2130012512207 49.53200149536133,-46.60599899291992 56.41999816894531,-45.23099899291992 C63.957000732421875,-43.72600173950195 70.21900177001953,-43.525001525878906 70.75900268554688,-58.18199920654297 C71.22699737548828,-70.89700317382812 65.00700378417969,-86.20500183105469 64.87699890136719,-100.21399688720703 C64.74700164794922,-114.2229995727539 70.91799926757812,-132.3780059814453 84.25800323486328,-135.24000549316406 C100.63400268554688,-138.7530059814453 101.2699966430664,-118.21399688720703 103.01100158691406,-105.21099853515625 C104.82499694824219,-91.66899871826172 105.6510009765625,-75.2770004272461 111.37899780273438,-58.99800109863281 C117.10700225830078,-42.71900177001953 121.03800201416016,-37.680999755859375 132.03700256347656,-16.50200080871582 C144.46400451660156,7.427000045776367 152.2429962158203,28.836000442504883 140.71299743652344,60.65299987792969 C135.2209930419922,75.80999755859375 122.51200103759766,100.57099914550781 93.16899871826172,109.36599731445312 C68.03900146484375,116.89800262451172 12.35099983215332,103.22899627685547 -13.406000137329102,96.60600280761719"></path></g><g opacity="1" transform="matrix(1,0,0,1,0,0)"><path fill="rgb(255,169,0)" fill-opacity="1" d=" M-89.0999984741211,-126.55899810791016 C-89.0999984741211,-126.55899810791016 -98.27899932861328,-118.41999816894531 -82.78600311279297,-105.68299865722656 C-65.75199890136719,-91.67900085449219 -48.152000427246094,-80.44300079345703 -28.01300048828125,-64.31199645996094 C-8.793000221252441,-48.91699981689453 -2.809000015258789,-42.50600051879883 -12.449999809265137,-31.024999618530273 C-12.449999809265137,-31.024999618530273 -9.765000343322754,-38.26900100708008 -25.04199981689453,-48.01300048828125 C-35.874000549316406,-54.922000885009766 -78.29399871826172,-88.11499786376953 -88.44999694824219,-95.67500305175781 C-98.60600280761719,-103.23500061035156 -106.25299835205078,-113.16799926757812 -96.625,-124.09200286865234 C-92.73999786376953,-128.5 -89.0999984741211,-126.55899810791016 -89.0999984741211,-126.55899810791016z"></path></g><g opacity="1" transform="matrix(1,0,0,1,0,0)"><path stroke-linecap="round" stroke-linejoin="round" fill-opacity="0" stroke="rgb(255,108,0)" stroke-opacity="1" stroke-width="8" d=" M27.94700050354004,-59.104000091552734 C14.901000022888184,-67.54299926757812 2.0360000133514404,-76.9729995727539 -22.847999572753906,-93.57099914550781 C-59.09299850463867,-117.74700164794922 -83.47599792480469,-141.86900329589844 -96.71499633789062,-125.2229995727539 C-109.6989974975586,-108.89700317382812 -83.64800262451172,-94.09100341796875 -57.90399932861328,-75.41999816894531 C-31.232999801635742,-56.07600021362305 -8.548999786376953,-41.58700180053711 -13.616000175476074,-34.08599853515625"></path></g><g opacity="1" transform="matrix(1,0,0,1,0,0)"><path stroke-linecap="round" stroke-linejoin="round" fill-opacity="0" stroke="rgb(255,255,255)" stroke-opacity="1" stroke-width="6" d=" M119.93099975585938,-13.963000297546387 C119.93099975585938,-13.963000297546387 122.59200286865234,-9.661999702453613 125.61199951171875,-1.8170000314712524"></path></g></g></g></g></g></svg>