<svg xmlns="http://www.w3.org/2000/svg" viewBox="0 0 448 480" width="448" height="480" style="width: 100%; height: 100%; transform: translate3d(0,0,0);" preserveAspectRatio="xMidYMid meet"><defs><clipPath id="__lottie_element_2513"><rect width="448" height="480" x="0" y="0"></rect></clipPath><clipPath id="__lottie_element_2515"><path d="M0,0 L448,0 L448,480 L0,480z"></path></clipPath><clipPath id="__lottie_element_2561"><path d="M0,0 L448,0 L448,480 L0,480z"></path></clipPath></defs><g clip-path="url(#__lottie_element_2513)"><g clip-path="url(#__lottie_element_2561)" style="display: none;"><g style="display: none;"><g><path></path></g><g><path></path><path stroke-linecap="butt" stroke-linejoin="miter" fill-opacity="0" stroke-miterlimit="10"></path></g><g><path></path></g><g><path></path></g><g><path stroke-linecap="round" stroke-linejoin="round" fill-opacity="0"></path></g><g><path stroke-linecap="round" stroke-linejoin="round" fill-opacity="0"></path></g></g><g style="display: none;"><g><path></path></g><g><path></path></g><g><path></path></g><g><path></path></g><g><path></path></g><g><path></path></g><g><path></path></g><g><path></path></g><g><path></path></g><g><path></path></g></g><g style="display: none;"><g><path></path></g><g><path></path></g><g><path></path></g><g><path></path></g><g><path></path></g><g><path></path></g><g><path></path></g><g><path></path></g><g><path></path></g><g><path></path></g></g><g style="display: none;"><g><path></path></g><g><path></path></g><g><path></path></g><g><path></path></g></g><g style="display: none;"><g><path></path></g><g><path stroke-linecap="round" stroke-linejoin="round" fill-opacity="0"></path></g></g><g style="display: none;"><g><path></path></g><g><path stroke-linecap="butt" stroke-linejoin="round" fill-opacity="0"></path></g></g><g style="display: none;"><g><path></path></g><g><path></path></g><g><path></path></g><g><path></path></g></g><g style="display: none;"><g><path></path></g><g><path stroke-linecap="round" stroke-linejoin="round" fill-opacity="0"></path></g></g><g style="display: none;"><g><path></path></g><g><path stroke-linecap="butt" stroke-linejoin="round" fill-opacity="0"></path></g></g><g style="display: none;"><g><path></path></g><g><path></path></g><g><path></path></g></g><g style="display: none;"><g><path></path></g><g><path></path></g><g><path></path></g></g><g style="display: none;"><g><path></path></g><g><path></path></g><g><path></path></g></g></g><g clip-path="url(#__lottie_element_2515)" style="display: block;" transform="matrix(1,0,0,1,0,0)" opacity="1"><g style="display: block;" transform="matrix(0.994823694229126,0,0,1.005176305770874,223.9903106689453,267.9189453125)" opacity="1"><g opacity="0.1" transform="matrix(1,0,0,1,0,0)"><path fill="rgb(0,0,0)" fill-opacity="1" d=" M194.15199279785156,3.7820000648498535 C194.15199279785156,112.04299926757812 106.38800048828125,199.80599975585938 -1.8730000257492065,199.80599975585938 C-110.13400268554688,199.80599975585938 -197.89700317382812,112.04299926757812 -197.89700317382812,3.7820000648498535 C-197.89700317382812,-104.47899627685547 -110.13400268554688,-192.2429962158203 -1.8730000257492065,-192.2429962158203 C106.38800048828125,-192.2429962158203 194.15199279785156,-104.47899627685547 194.15199279785156,3.7820000648498535z"></path></g><g opacity="1" transform="matrix(1,0,0,1,0,0)"><path fill="rgb(255,177,57)" fill-opacity="1" d=" M187.0030059814453,-11.218000411987305 C187.0030059814453,93.09500122070312 102.44000244140625,177.65699768066406 -1.8730000257492065,177.65699768066406 C-106.18599700927734,177.65699768066406 -190.7480010986328,93.09500122070312 -190.7480010986328,-11.218000411987305 C-190.7480010986328,-115.53099822998047 -106.18599700927734,-200.093994140625 -1.8730000257492065,-200.093994140625 C102.44000244140625,-200.093994140625 187.0030059814453,-115.53099822998047 187.0030059814453,-11.218000411987305z"></path><path stroke-linecap="butt" stroke-linejoin="miter" fill-opacity="0" stroke-miterlimit="10" stroke="rgb(247,126,65)" stroke-opacity="1" stroke-width="8" d=" M187.0030059814453,-11.218000411987305 C187.0030059814453,93.09500122070312 102.44000244140625,177.65699768066406 -1.8730000257492065,177.65699768066406 C-106.18599700927734,177.65699768066406 -190.7480010986328,93.09500122070312 -190.7480010986328,-11.218000411987305 C-190.7480010986328,-115.53099822998047 -106.18599700927734,-200.093994140625 -1.8730000257492065,-200.093994140625 C102.44000244140625,-200.093994140625 187.0030059814453,-115.53099822998047 187.0030059814453,-11.218000411987305z"></path></g><g opacity="1" transform="matrix(1,0,0,1,0,0)"><path fill="rgb(255,209,64)" fill-opacity="1" d=" M166.53399658203125,-10.505999565124512 C165.07699584960938,84.52300262451172 88.52300262451172,160.4029998779297 -4.454999923706055,158.97799682617188 C-97.43299865722656,157.55299377441406 -171.62600708007812,79.36199951171875 -170.16900634765625,-15.666000366210938 C-168.71200561523438,-110.69499969482422 -92.15799713134766,-186.5749969482422 0.8199999928474426,-185.14999389648438 C93.7979965209961,-183.72500610351562 167.99099731445312,-105.53500366210938 166.53399658203125,-10.505999565124512z"></path></g><g opacity="1" transform="matrix(1,0,0,1,0,0)"><path fill="rgb(255,223,121)" fill-opacity="1" d=" M147.39500427246094,-53.64699935913086 C147.39500427246094,18.996000289916992 80.56500244140625,-38.46799850463867 -1.8730000257492065,-38.46799850463867 C-84.31099700927734,-38.46799850463867 -151.13999938964844,18.996000289916992 -151.13999938964844,-53.64699935913086 C-151.13999938964844,-126.29000091552734 -84.31099700927734,-185.1790008544922 -1.8730000257492065,-185.1790008544922 C80.56500244140625,-185.1790008544922 147.39500427246094,-126.29000091552734 147.39500427246094,-53.64699935913086z"></path></g><g opacity="1" transform="matrix(1,0,0,1,0,0)"><path stroke-linecap="round" stroke-linejoin="round" fill-opacity="0" stroke="rgb(255,255,255)" stroke-opacity="1" stroke-width="6" d=" M34.5,-180.9600067138672 C36.03799819946289,-180.625 37.632999420166016,-180.2550048828125 39.277000427246094,-179.8489990234375"></path></g><g opacity="1" transform="matrix(1,0,0,1,0,0)"><path stroke-linecap="round" stroke-linejoin="round" fill-opacity="0" stroke="rgb(255,255,255)" stroke-opacity="1" stroke-width="6" d=" M13.145000457763672,-184.1790008544922 C13.145000457763672,-184.1790008544922 18.011999130249023,-183.91900634765625 25.735000610351562,-182.64100646972656"></path></g></g><g style="display: block;" transform="matrix(0.994823694229126,0,0,1.005176305770874,223.9903106689453,267.9189453125)" opacity="1"><g opacity="0.04" transform="matrix(1,0,0,1,0,0)"><path fill="rgb(226,6,19)" fill-opacity="1" d=" M186.72300720214844,-0.8629999756813049 C186.5330047607422,2.5769999027252197 186.26300048828125,5.9770002365112305 185.88299560546875,9.366999626159668 C185.88299560546875,9.366999626159668 185.88299560546875,9.366999626159668 185.88299560546875,9.376999855041504 C185.4929962158203,13.067000389099121 184.98300170898438,16.726999282836914 184.3730010986328,20.35700035095215 C183.61300659179688,24.906999588012695 182.68299865722656,29.406999588012695 181.58299255371094,33.84700012207031 C181.58299255371094,33.84700012207031 181.59300231933594,33.84700012207031 181.58299255371094,33.856998443603516 C180.33299255371094,38.97700119018555 178.8730010986328,44.016998291015625 177.21299743652344,48.96699905395508 C170.4929962158203,68.96700286865234 160.5229949951172,87.46700286865234 147.92300415039062,103.83699798583984 C147.92300415039062,103.83699798583984 147.92300415039062,103.84700012207031 147.91299438476562,103.84700012207031 C144.51300048828125,108.26699829101562 140.92300415039062,112.5270004272461 137.1529998779297,116.62699890136719 C133.7729949951172,120.30699920654297 130.2429962158203,123.85700225830078 126.572998046875,127.25700378417969 C123.56300354003906,130.0570068359375 120.4729995727539,132.73699951171875 117.28299713134766,135.3470001220703 C117.28299713134766,135.3470001220703 117.27300262451172,135.3470001220703 117.27300262451172,135.3470001220703 C114.31300354003906,137.7570037841797 111.27300262451172,140.07699584960938 108.16300201416016,142.3070068359375 C76.74299621582031,140.7469940185547 48.52299880981445,123.64700317382812 36.303001403808594,95.28700256347656 C18.472999572753906,53.89699935913086 42.65299987792969,6.947000026702881 88.86299896240234,-12.963000297546387 C124.52300262451172,-28.322999954223633 162.88299560546875,-23.08300018310547 186.72300720214844,-0.8629999756813049z"></path></g><g opacity="0.04" transform="matrix(1,0,0,1,0,0)"><path fill="rgb(226,6,19)" fill-opacity="1" d=" M185.88299560546875,9.366999626159668 C185.88299560546875,9.366999626159668 185.88299560546875,9.366999626159668 185.88299560546875,9.376999855041504 C185.4929962158203,13.067000389099121 184.98300170898438,16.726999282836914 184.3730010986328,20.35700035095215 C183.61300659179688,24.906999588012695 182.68299865722656,29.406999588012695 181.58299255371094,33.84700012207031 C181.58299255371094,33.84700012207031 181.59300231933594,33.84700012207031 181.58299255371094,33.856998443603516 C180.33299255371094,38.97700119018555 178.8730010986328,44.016998291015625 177.21299743652344,48.96699905395508 C170.4929962158203,68.96700286865234 160.5229949951172,87.46700286865234 147.92300415039062,103.83699798583984 C147.92300415039062,103.83699798583984 147.92300415039062,103.84700012207031 147.91299438476562,103.84700012207031 C144.51300048828125,108.26699829101562 140.92300415039062,112.5270004272461 137.1529998779297,116.62699890136719 C133.7729949951172,120.30699920654297 130.2429962158203,123.85700225830078 126.572998046875,127.25700378417969 C123.56300354003906,130.0570068359375 120.4729995727539,132.73699951171875 117.28299713134766,135.3470001220703 C117.28299713134766,135.3470001220703 117.27300262451172,135.3470001220703 117.27300262451172,135.3470001220703 C85.39299774169922,136.7169952392578 55.702999114990234,120.66699981689453 43.49300003051758,92.3270034790039 C27.19300079345703,54.47700119018555 49.303001403808594,11.527000427246094 91.56300354003906,-6.683000087738037 C126.69300079345703,-21.812999725341797 164.6929931640625,-15.083000183105469 185.88299560546875,9.366999626159668z"></path></g><g opacity="0.04" transform="matrix(1,0,0,1,0,0)"><path fill="rgb(226,6,19)" fill-opacity="1" d=" M184.3730010986328,20.35700035095215 C183.61300659179688,24.906999588012695 182.68299865722656,29.406999588012695 181.58299255371094,33.84700012207031 C181.58299255371094,33.84700012207031 181.59300231933594,33.84700012207031 181.58299255371094,33.856998443603516 C180.33299255371094,38.97700119018555 178.8730010986328,44.016998291015625 177.21299743652344,48.96699905395508 C170.4929962158203,68.96700286865234 160.5229949951172,87.46700286865234 147.92300415039062,103.83699798583984 C147.92300415039062,103.83699798583984 147.92300415039062,103.84700012207031 147.91299438476562,103.84700012207031 C144.51300048828125,108.26699829101562 140.92300415039062,112.5270004272461 137.1529998779297,116.62699890136719 C133.7729949951172,120.30699920654297 130.2429962158203,123.85700225830078 126.572998046875,127.25700378417969 C94.41300201416016,132.3070068359375 62.93299865722656,117.53700256347656 50.733001708984375,89.20700073242188 C35.9630012512207,54.9370002746582 56.09299850463867,16.28700065612793 94.35299682617188,-0.2029999941587448 C128.98300170898438,-15.11299991607666 166.60299682617188,-6.7729997634887695 184.3730010986328,20.35700035095215z"></path></g><g opacity="0.04" transform="matrix(1,0,0,1,0,0)"><path fill="rgb(226,6,19)" fill-opacity="1" d=" M181.58299255371094,33.84700012207031 C181.58299255371094,33.84700012207031 181.59300231933594,33.84700012207031 181.58299255371094,33.856998443603516 C180.33299255371094,38.97700119018555 178.8730010986328,44.016998291015625 177.21299743652344,48.96699905395508 C170.4929962158203,68.96700286865234 160.5229949951172,87.46700286865234 147.92300415039062,103.83699798583984 C147.92300415039062,103.83699798583984 147.92300415039062,103.84700012207031 147.91299438476562,103.84700012207031 C144.51300048828125,108.26699829101562 140.92300415039062,112.5270004272461 137.1529998779297,116.62699890136719 C105.10299682617188,127.06700134277344 71.01300048828125,114.09700012207031 58.803001403808594,85.72699737548828 C45.75299835205078,55.446998596191406 63.66299819946289,21.597000122070312 97.4729995727539,7.0269999504089355 C131.2830047607422,-7.5329999923706055 168.18299865722656,2.7070000171661377 181.23300170898438,32.99700164794922 C181.35299682617188,33.277000427246094 181.47300720214844,33.55699920654297 181.58299255371094,33.84700012207031z"></path></g><g opacity="0.04" transform="matrix(1,0,0,1,0,0)"><path fill="rgb(226,6,19)" fill-opacity="1" d=" M177.21299743652344,48.96699905395508 C170.4929962158203,68.96700286865234 160.5229949951172,87.46700286865234 147.92300415039062,103.83699798583984 C147.92300415039062,103.83699798583984 147.92300415039062,103.84700012207031 147.91299438476562,103.84700012207031 C145.63299560546875,105.177001953125 143.2429962158203,106.38700103759766 140.7429962158203,107.46700286865234 C111.072998046875,120.24700164794922 77.75299835205078,109.06700134277344 66.3030014038086,82.49700164794922 C54.85300064086914,55.926998138427734 70.7030029296875,26.527000427246094 100.36299896240234,13.746999740600586 C130.0330047607422,0.9670000076293945 162.2830047607422,9.656999588012695 173.73300170898438,36.22700119018555 C175.5229949951172,40.37699890136719 176.66299438476562,44.65700149536133 177.21299743652344,48.96699905395508z"></path></g><g opacity="0.04" transform="matrix(1,0,0,1,0,0)"><path fill="rgb(226,6,19)" fill-opacity="1" d=" M74.73300170898438,78.86900329589844 C84.38300323486328,101.2699966430664 112.47899627685547,110.69499969482422 137.48800659179688,99.9219970703125 C162.4969940185547,89.14900207519531 174.94900512695312,62.25600051879883 165.2989959716797,39.85499954223633 C155.6490020751953,17.45400047302246 128.6280059814453,10.524999618530273 103.61900329589844,21.29800033569336 C78.61000061035156,32.07099914550781 65.08300018310547,56.46799850463867 74.73300170898438,78.86900329589844z"></path></g><g opacity="0.04" transform="matrix(1,0,0,1,0,0)"><path fill="rgb(226,6,19)" fill-opacity="1" d=" M84.03900146484375,74.86000061035156 C91.70600128173828,92.65699768066406 114.02799987792969,100.14600372314453 133.8979949951172,91.58699798583984 C153.76800537109375,83.02799987792969 163.66099548339844,61.6609992980957 155.99400329589844,43.86399841308594 C148.32699584960938,26.066999435424805 127.08000183105469,21.073999404907227 107.20999908447266,29.632999420166016 C87.33999633789062,38.19200134277344 76.37200164794922,57.0629997253418 84.03900146484375,74.86000061035156z"></path></g><g opacity="0.04" transform="matrix(1,0,0,1,0,0)"><path fill="rgb(226,6,19)" fill-opacity="1" d=" M93.91000366210938,70.60800170898438 C99.4729995727539,83.52200317382812 115.6709976196289,88.95600128173828 130.08900451660156,82.74500274658203 C144.5070037841797,76.53399658203125 151.68600463867188,61.029998779296875 146.1230010986328,48.11600112915039 C140.55999755859375,35.20199966430664 125.43699645996094,32.263999938964844 111.01899719238281,38.474998474121094 C96.60099792480469,44.68600082397461 88.34700012207031,57.694000244140625 93.91000366210938,70.60800170898438z"></path></g><g opacity="0.04" transform="matrix(1,0,0,1,0,0)"><path fill="rgb(226,6,19)" fill-opacity="1" d=" M100.18399810791016,67.90499877929688 C104.41000366210938,77.71600341796875 116.71600341796875,81.84400177001953 127.66899871826172,77.1259994506836 C138.6219940185547,72.40799713134766 144.0749969482422,60.62900161743164 139.8489990234375,50.81800079345703 C135.6230010986328,41.00699996948242 124.39199829101562,39.375999450683594 113.43900299072266,44.09400177001953 C102.48600006103516,48.8120002746582 95.95800018310547,58.09400177001953 100.18399810791016,67.90499877929688z"></path></g><g opacity="0.04" transform="matrix(1,0,0,1,0,0)"><path fill="rgb(226,6,19)" fill-opacity="1" d=" M107.21900177001953,64.8740005493164 C109.94599914550781,71.2040023803711 117.88600158691406,73.86900329589844 124.9540023803711,70.8239974975586 C132.02200317382812,67.77899932861328 135.5399932861328,60.17900085449219 132.81300354003906,53.8489990234375 C130.08599853515625,47.51900100708008 123.22200012207031,47.35100173950195 116.15399932861328,50.395999908447266 C109.08599853515625,53.441001892089844 104.49199676513672,58.54399871826172 107.21900177001953,64.8740005493164z"></path></g></g><g style="display: block;" transform="matrix(0.994823694229126,0,0,1.005176305770874,223.9903106689453,267.9189453125)" opacity="1"><g opacity="0.04" transform="matrix(1,0,0,1,0,0)"><path fill="rgb(226,6,19)" fill-opacity="1" d=" M-39.84700012207031,95.28700256347656 C-52.08700180053711,123.6969985961914 -80.39700317382812,140.81700134277344 -111.89700317382812,142.31700134277344 C-115.01699829101562,140.08700561523438 -118.05699920654297,137.7570037841797 -121.0270004272461,135.33700561523438 C-124.22699737548828,132.73699951171875 -127.33699798583984,130.02699279785156 -130.35699462890625,127.21700286865234 C-134.03700256347656,123.80699920654297 -137.58700561523438,120.23699951171875 -140.9770050048828,116.53700256347656 C-144.78700256347656,112.39700317382812 -148.40699768066406,108.08699798583984 -151.83700561523438,103.61699676513672 C-164.26699829101562,87.41699981689453 -174.11700439453125,69.14700317382812 -180.8070068359375,49.40700149536133 C-182.4969940185547,44.41699981689453 -183.98699951171875,39.32699966430664 -185.2570037841797,34.15700149536133 C-186.35699462890625,29.687000274658203 -187.3070068359375,25.16699981689453 -188.07699584960938,20.586999893188477 C-188.69700622558594,16.94700050354004 -189.20700073242188,13.277000427246094 -189.60699462890625,9.57699966430664 C-189.98699951171875,6.186999797821045 -190.26699829101562,2.7669999599456787 -190.45700073242188,-0.6830000281333923 C-166.6269989013672,-23.05299949645996 -128.15699768066406,-28.363000869750977 -92.40699768066406,-12.963000297546387 C-46.196998596191406,6.947000026702881 -22.017000198364258,53.89699935913086 -39.84700012207031,95.28700256347656z"></path></g><g opacity="0.04" transform="matrix(1,0,0,1,0,0)"><path fill="rgb(226,6,19)" fill-opacity="1" d=" M-47.0369987487793,92.3270034790039 C-59.277000427246094,120.72699737548828 -89.06700134277344,136.78700256347656 -121.0270004272461,135.33700561523438 C-124.22699737548828,132.73699951171875 -127.33699798583984,130.02699279785156 -130.35699462890625,127.21700286865234 C-134.03700256347656,123.80699920654297 -137.58700561523438,120.23699951171875 -140.9770050048828,116.53700256347656 C-144.78700256347656,112.39700317382812 -148.40699768066406,108.08699798583984 -151.83700561523438,103.61699676513672 C-164.26699829101562,87.41699981689453 -174.11700439453125,69.14700317382812 -180.8070068359375,49.40700149536133 C-182.4969940185547,44.41699981689453 -183.98699951171875,39.32699966430664 -185.2570037841797,34.15700149536133 C-186.35699462890625,29.687000274658203 -187.3070068359375,25.16699981689453 -188.07699584960938,20.586999893188477 C-188.69700622558594,16.94700050354004 -189.20700073242188,13.277000427246094 -189.60699462890625,9.57699966430664 C-168.45700073242188,-15.043000221252441 -130.33700561523438,-21.85300064086914 -95.10700225830078,-6.683000087738037 C-52.84700012207031,11.527000427246094 -30.73699951171875,54.47700119018555 -47.0369987487793,92.3270034790039z"></path></g><g opacity="0.04" transform="matrix(1,0,0,1,0,0)"><path fill="rgb(226,6,19)" fill-opacity="1" d=" M-54.277000427246094,89.20700073242188 C-66.50700378417969,117.60700225830078 -98.10700225830078,132.3769989013672 -130.35699462890625,127.21700286865234 C-134.03700256347656,123.80699920654297 -137.58700561523438,120.23699951171875 -140.9770050048828,116.53700256347656 C-144.78700256347656,112.39700317382812 -148.40699768066406,108.08699798583984 -151.83700561523438,103.61699676513672 C-164.26699829101562,87.41699981689453 -174.11700439453125,69.14700317382812 -180.8070068359375,49.40700149536133 C-182.4969940185547,44.41699981689453 -183.98699951171875,39.32699966430664 -185.2570037841797,34.15700149536133 C-186.35699462890625,29.687000274658203 -187.3070068359375,25.16699981689453 -188.07699584960938,20.586999893188477 C-170.35699462890625,-6.7230000495910645 -132.6269989013672,-15.163000106811523 -97.89700317382812,-0.2029999941587448 C-59.637001037597656,16.28700065612793 -39.50699996948242,54.9370002746582 -54.277000427246094,89.20700073242188z"></path></g><g opacity="0.04" transform="matrix(1,0,0,1,0,0)"><path fill="rgb(226,6,19)" fill-opacity="1" d=" M-62.34700012207031,85.72699737548828 C-74.59700012207031,114.177001953125 -108.84700012207031,127.14700317382812 -140.9770050048828,116.53700256347656 C-144.78700256347656,112.39700317382812 -148.40699768066406,108.08699798583984 -151.83700561523438,103.61699676513672 C-164.26699829101562,87.41699981689453 -174.11700439453125,69.14700317382812 -180.8070068359375,49.40700149536133 C-182.4969940185547,44.41699981689453 -183.98699951171875,39.32699966430664 -185.2570037841797,34.15700149536133 C-185.10699462890625,33.766998291015625 -184.94700622558594,33.37699890136719 -184.77699279785156,32.99700164794922 C-171.7270050048828,2.7070000171661377 -134.82699584960938,-7.5329999923706055 -101.01699829101562,7.0269999504089355 C-67.20700073242188,21.597000122070312 -49.297000885009766,55.446998596191406 -62.34700012207031,85.72699737548828z"></path></g><g opacity="0.04" transform="matrix(1,0,0,1,0,0)"><path fill="rgb(226,6,19)" fill-opacity="1" d=" M-69.84700012207031,82.49700164794922 C-81.2969970703125,109.06700134277344 -114.61699676513672,120.24700164794922 -144.28700256347656,107.46700286865234 C-146.927001953125,106.3270034790039 -149.44700622558594,105.0469970703125 -151.83700561523438,103.61699676513672 C-164.26699829101562,87.41699981689453 -174.11700439453125,69.14700317382812 -180.8070068359375,49.40700149536133 C-180.27699279785156,44.946998596191406 -179.11700439453125,40.516998291015625 -177.26699829101562,36.22700119018555 C-165.82699584960938,9.656999588012695 -133.57699584960938,0.9670000076293945 -103.90699768066406,13.746999740600586 C-74.24700164794922,26.527000427246094 -58.39699935913086,55.926998138427734 -69.84700012207031,82.49700164794922z"></path></g><g opacity="0.04" transform="matrix(1,0,0,1,0,0)"><path fill="rgb(226,6,19)" fill-opacity="1" d=" M-78.2760009765625,78.86900329589844 C-87.9260025024414,101.2699966430664 -116.02200317382812,110.69499969482422 -141.031005859375,99.9219970703125 C-166.0399932861328,89.14900207519531 -178.49200439453125,62.25600051879883 -168.8419952392578,39.85499954223633 C-159.19200134277344,17.45400047302246 -132.17100524902344,10.524999618530273 -107.16200256347656,21.29800033569336 C-82.15299987792969,32.07099914550781 -68.6259994506836,56.46799850463867 -78.2760009765625,78.86900329589844z"></path></g><g opacity="0.04" transform="matrix(1,0,0,1,0,0)"><path fill="rgb(226,6,19)" fill-opacity="1" d=" M-87.58200073242188,74.86000061035156 C-95.2490005493164,92.65699768066406 -117.57099914550781,100.14600372314453 -137.4409942626953,91.58699798583984 C-157.31100463867188,83.02799987792969 -167.20399475097656,61.6609992980957 -159.53700256347656,43.86399841308594 C-151.8699951171875,26.066999435424805 -130.6230010986328,21.073999404907227 -110.75299835205078,29.632999420166016 C-90.88300323486328,38.19200134277344 -79.91500091552734,57.0629997253418 -87.58200073242188,74.86000061035156z"></path></g><g opacity="0.04" transform="matrix(1,0,0,1,0,0)"><path fill="rgb(226,6,19)" fill-opacity="1" d=" M-97.4530029296875,70.60800170898438 C-103.01599884033203,83.52200317382812 -119.21399688720703,88.95600128173828 -133.6320037841797,82.74500274658203 C-148.0500030517578,76.53399658203125 -155.22799682617188,61.029998779296875 -149.6649932861328,48.11600112915039 C-144.1020050048828,35.20199966430664 -128.97999572753906,32.263999938964844 -114.56199645996094,38.474998474121094 C-100.14399719238281,44.68600082397461 -91.88999938964844,57.694000244140625 -97.4530029296875,70.60800170898438z"></path></g><g opacity="0.04" transform="matrix(1,0,0,1,0,0)"><path fill="rgb(226,6,19)" fill-opacity="1" d=" M-103.72599792480469,67.90499877929688 C-107.9520034790039,77.71600341796875 -120.25900268554688,81.84400177001953 -131.21200561523438,77.1259994506836 C-142.1649932861328,72.40799713134766 -147.6179962158203,60.62900161743164 -143.39199829101562,50.81800079345703 C-139.16600036621094,41.00699996948242 -127.93499755859375,39.375999450683594 -116.98200225830078,44.09400177001953 C-106.02899932861328,48.8120002746582 -99.5,58.09400177001953 -103.72599792480469,67.90499877929688z"></path></g><g opacity="0.04" transform="matrix(1,0,0,1,0,0)"><path fill="rgb(226,6,19)" fill-opacity="1" d=" M-110.76200103759766,64.8740005493164 C-113.48899841308594,71.2040023803711 -121.42900085449219,73.86900329589844 -128.4969940185547,70.8239974975586 C-135.56500244140625,67.77899932861328 -139.08299255371094,60.17900085449219 -136.3560028076172,53.8489990234375 C-133.62899780273438,47.51900100708008 -126.76499938964844,47.35100173950195 -119.6969985961914,50.395999908447266 C-112.62899780273438,53.441001892089844 -108.03500366210938,58.54399871826172 -110.76200103759766,64.8740005493164z"></path></g></g><g style="display: block;" transform="matrix(0.994823694229126,0,0,1.005176305770874,223.9903106689453,267.9189453125)" opacity="1"><g opacity="0.9" transform="matrix(1,0,0,1,0,0)"><path fill="rgb(255,226,166)" fill-opacity="1" d=" M153.4499969482422,-2.4579999446868896 C153.4499969482422,33.125 123.12799835205078,61.97100067138672 85.7239990234375,61.97100067138672 C48.31999969482422,61.97100067138672 17.999000549316406,33.125 17.999000549316406,-2.4579999446868896 C17.999000549316406,-38.04100036621094 48.31999969482422,-66.88700103759766 85.7239990234375,-66.88700103759766 C123.12799835205078,-66.88700103759766 153.4499969482422,-38.04100036621094 153.4499969482422,-2.4579999446868896z"></path></g><g opacity="1" transform="matrix(1,0,0,1,0,0)"><path fill="rgb(255,177,57)" fill-opacity="1" d=" M153.4499969482422,-24.45800018310547 C153.4499969482422,11.125 123.12799835205078,39.97100067138672 85.7239990234375,39.97100067138672 C48.31999969482422,39.97100067138672 17.999000549316406,11.125 17.999000549316406,-24.45800018310547 C17.999000549316406,-60.04100036621094 48.31999969482422,-88.88700103759766 85.7239990234375,-88.88700103759766 C123.12799835205078,-88.88700103759766 153.4499969482422,-60.04100036621094 153.4499969482422,-24.45800018310547z"></path></g><g opacity="1" transform="matrix(1,0,0,1,0,0)"><path fill="rgb(205,205,205)" fill-opacity="1" d=" M150.1540069580078,-13.458000183105469 C150.1540069580078,22.125 121.30699920654297,50.97100067138672 85.7239990234375,50.97100067138672 C50.14099884033203,50.97100067138672 21.295000076293945,22.125 21.295000076293945,-13.458000183105469 C21.295000076293945,-49.04100036621094 50.14099884033203,-77.88700103759766 85.7239990234375,-77.88700103759766 C121.30699920654297,-77.88700103759766 150.1540069580078,-49.04100036621094 150.1540069580078,-13.458000183105469z"></path></g><g opacity="1" transform="matrix(1,0,0,1,0,0)"><path fill="rgb(237,237,237)" fill-opacity="1" d=" M139.06199645996094,-21.02199935913086 C139.06199645996094,8.4350004196167 115.18099975585938,32.316001892089844 85.7239990234375,32.316001892089844 C56.266998291015625,32.316001892089844 32.387001037597656,8.4350004196167 32.387001037597656,-21.02199935913086 C32.387001037597656,-50.479000091552734 56.266998291015625,-74.35900115966797 85.7239990234375,-74.35900115966797 C115.18099975585938,-74.35900115966797 139.06199645996094,-50.479000091552734 139.06199645996094,-21.02199935913086z"></path></g></g><g style="display: block;" transform="matrix(0.5968942642211914,0,0,0.6031057834625244,258.12030029296875,258.4906005859375)" opacity="1"><g opacity="1" transform="matrix(1,0,0,1,0,0)"><path fill="rgb(1,1,1)" fill-opacity="1" d=" M107.27899932861328,-13.812000274658203 C107.27899932861328,-2.1549999713897705 97.62799835205078,7.295000076293945 85.7239990234375,7.295000076293945 C73.81999969482422,7.295000076293945 64.16899871826172,-2.1549999713897705 64.16899871826172,-13.812000274658203 C64.16899871826172,-25.4689998626709 73.81999969482422,-34.917999267578125 85.7239990234375,-34.917999267578125 C97.62799835205078,-34.917999267578125 107.27899932861328,-25.4689998626709 107.27899932861328,-13.812000274658203z"></path></g><g opacity="1" transform="matrix(1,0,0,1,0,0)"><path stroke-linecap="round" stroke-linejoin="round" fill-opacity="0" stroke="rgb(255,255,255)" stroke-opacity="1" stroke-width="6" d=" M101.80500030517578,-22.003000259399414 C103.13300323486328,-22.832000732421875 104.5250015258789,-23.677000045776367 105.97599792480469,-24.5310001373291"></path></g></g><g style="display: block;" transform="matrix(0.994823694229126,0,0,1.005176305770874,223.9903106689453,267.9189453125)" opacity="1"><g opacity="0.35000000000000003" transform="matrix(1,0,0,1,0,0)"><path fill="rgb(255,255,255)" fill-opacity="1" d=" M150.1540069580078,-13.45300006866455 C150.1540069580078,-10.192999839782715 149.91400146484375,-6.993000030517578 149.44400024414062,-3.872999906539917 C144.81399536132812,-34.91299819946289 118.04399871826172,-58.722999572753906 85.7239990234375,-58.722999572753906 C53.39400100708008,-58.722999572753906 26.624000549316406,-34.91299819946289 22.003999710083008,-3.872999906539917 C21.534000396728516,-6.993000030517578 21.29400062561035,-10.192999839782715 21.29400062561035,-13.45300006866455 C21.29400062561035,-49.042999267578125 50.13399887084961,-77.88300323486328 85.7239990234375,-77.88300323486328 C121.30400085449219,-77.88300323486328 150.1540069580078,-49.042999267578125 150.1540069580078,-13.45300006866455z"></path></g><g opacity="1" transform="matrix(1,0,0,1,0,0)"><path stroke-linecap="butt" stroke-linejoin="round" fill-opacity="0" stroke="rgb(145,129,89)" stroke-opacity="1" stroke-width="6" d=" M150.1540069580078,-13.458000183105469 C150.1540069580078,22.125 121.30699920654297,50.97100067138672 85.7239990234375,50.97100067138672 C50.14099884033203,50.97100067138672 21.295000076293945,22.125 21.295000076293945,-13.458000183105469 C21.295000076293945,-49.04100036621094 50.14099884033203,-77.88700103759766 85.7239990234375,-77.88700103759766 C121.30699920654297,-77.88700103759766 150.1540069580078,-49.04100036621094 150.1540069580078,-13.458000183105469z"></path></g></g><g style="display: block;" transform="matrix(0.994823694229126,0,0,1.005176305770874,223.9903106689453,267.9189453125)" opacity="1"><g opacity="0.9" transform="matrix(1,0,0,1,0,0)"><path fill="rgb(255,226,166)" fill-opacity="1" d=" M-21.944000244140625,-2.4579999446868896 C-21.944000244140625,33.125 -52.17599868774414,61.97100067138672 -89.47000122070312,61.97100067138672 C-126.76399993896484,61.97100067138672 -156.9969940185547,33.125 -156.9969940185547,-2.4579999446868896 C-156.9969940185547,-38.04100036621094 -126.76399993896484,-66.88700103759766 -89.47000122070312,-66.88700103759766 C-52.17599868774414,-66.88700103759766 -21.944000244140625,-38.04100036621094 -21.944000244140625,-2.4579999446868896z"></path></g><g opacity="1" transform="matrix(1,0,0,1,0,0)"><path fill="rgb(255,177,57)" fill-opacity="1" d=" M-21.944000244140625,-24.45800018310547 C-21.944000244140625,11.125 -52.17599868774414,39.97100067138672 -89.47000122070312,39.97100067138672 C-126.76399993896484,39.97100067138672 -156.9969940185547,11.125 -156.9969940185547,-24.45800018310547 C-156.9969940185547,-60.04100036621094 -126.76399993896484,-88.88700103759766 -89.47000122070312,-88.88700103759766 C-52.17599868774414,-88.88700103759766 -21.944000244140625,-60.04100036621094 -21.944000244140625,-24.45800018310547z"></path></g><g opacity="1" transform="matrix(1,0,0,1,0,0)"><path fill="rgb(205,205,205)" fill-opacity="1" d=" M-25.041000366210938,-13.458000183105469 C-25.041000366210938,22.125 -53.887001037597656,50.97100067138672 -89.47000122070312,50.97100067138672 C-125.0530014038086,50.97100067138672 -153.8990020751953,22.125 -153.8990020751953,-13.458000183105469 C-153.8990020751953,-49.04100036621094 -125.0530014038086,-77.88700103759766 -89.47000122070312,-77.88700103759766 C-53.887001037597656,-77.88700103759766 -25.041000366210938,-49.04100036621094 -25.041000366210938,-13.458000183105469z"></path></g><g opacity="1" transform="matrix(1,0,0,1,0,0)"><path fill="rgb(237,237,237)" fill-opacity="1" d=" M-36.132999420166016,-21.02199935913086 C-36.132999420166016,8.4350004196167 -60.01300048828125,32.316001892089844 -89.47000122070312,32.316001892089844 C-118.927001953125,32.316001892089844 -142.80799865722656,8.4350004196167 -142.80799865722656,-21.02199935913086 C-142.80799865722656,-50.479000091552734 -118.927001953125,-74.35900115966797 -89.47000122070312,-74.35900115966797 C-60.01300048828125,-74.35900115966797 -36.132999420166016,-50.479000091552734 -36.132999420166016,-21.02199935913086z"></path></g></g><g style="display: block;" transform="matrix(0.5968942642211914,0,0,0.6031057834625244,188.21644592285156,258.4906005859375)" opacity="1"><g opacity="1" transform="matrix(1,0,0,1,0,0)"><path fill="rgb(1,1,1)" fill-opacity="1" d=" M-68.38999938964844,-13.812000274658203 C-68.38999938964844,-2.1549999713897705 -78.04100036621094,7.295000076293945 -89.94499969482422,7.295000076293945 C-101.8489990234375,7.295000076293945 -111.5,-2.1549999713897705 -111.5,-13.812000274658203 C-111.5,-25.4689998626709 -101.8489990234375,-34.917999267578125 -89.94499969482422,-34.917999267578125 C-78.04100036621094,-34.917999267578125 -68.38999938964844,-25.4689998626709 -68.38999938964844,-13.812000274658203z"></path></g><g opacity="1" transform="matrix(1,0,0,1,0,0)"><path stroke-linecap="round" stroke-linejoin="round" fill-opacity="0" stroke="rgb(255,255,255)" stroke-opacity="1" stroke-width="6" d=" M-73.86399841308594,-22.003000259399414 C-72.53600311279297,-22.832000732421875 -71.1449966430664,-23.677000045776367 -69.69400024414062,-24.5310001373291"></path></g></g><g style="display: block;" transform="matrix(0.994823694229126,0,0,1.005176305770874,223.9903106689453,267.9189453125)" opacity="1"><g opacity="0.35000000000000003" transform="matrix(1,0,0,1,0,0)"><path fill="rgb(255,255,255)" fill-opacity="1" d=" M-25.03700065612793,-13.45300006866455 C-25.03700065612793,-10.192999839782715 -25.277000427246094,-6.993000030517578 -25.746999740600586,-3.872999906539917 C-30.37700080871582,-34.91299819946289 -57.14699935913086,-58.722999572753906 -89.46700286865234,-58.722999572753906 C-121.7969970703125,-58.722999572753906 -148.56700134277344,-34.91299819946289 -153.18699645996094,-3.872999906539917 C-153.65699768066406,-6.993000030517578 -153.89700317382812,-10.192999839782715 -153.89700317382812,-13.45300006866455 C-153.89700317382812,-49.042999267578125 -125.05699920654297,-77.88300323486328 -89.46700286865234,-77.88300323486328 C-53.887001037597656,-77.88300323486328 -25.03700065612793,-49.042999267578125 -25.03700065612793,-13.45300006866455z"></path></g><g opacity="1" transform="matrix(1,0,0,1,0,0)"><path stroke-linecap="butt" stroke-linejoin="round" fill-opacity="0" stroke="rgb(145,129,89)" stroke-opacity="1" stroke-width="6" d=" M-25.041000366210938,-13.458000183105469 C-25.041000366210938,22.125 -53.887001037597656,50.97100067138672 -89.47000122070312,50.97100067138672 C-125.0530014038086,50.97100067138672 -153.8990020751953,22.125 -153.8990020751953,-13.458000183105469 C-153.8990020751953,-49.04100036621094 -125.0530014038086,-77.88700103759766 -89.47000122070312,-77.88700103759766 C-53.887001037597656,-77.88700103759766 -25.041000366210938,-49.04100036621094 -25.041000366210938,-13.458000183105469z"></path></g></g><g style="display: block;" transform="matrix(0.994823694229126,0,0,1.005176305770874,223.9903106689453,267.9189453125)" opacity="1"><g opacity="1" transform="matrix(1,0,0,1,0,0)"><path fill="rgb(255,226,166)" fill-opacity="1" d=" M30.187999725341797,124.50484466552734 C30.187999725341797,124.50484466552734 -33.93299865722656,124.50484466552734 -33.93299865722656,124.50484466552734 C-39.62799835205078,124.50484466552734 -44.28799819946289,119.84587097167969 -44.28799819946289,114.15089416503906 C-44.28799819946289,114.15089416503906 -44.28799819946289,109.99491882324219 -44.28799819946289,109.99491882324219 C-44.28799819946289,104.29994201660156 -39.62799835205078,99.6409683227539 -33.93299865722656,99.6409683227539 C-33.93299865722656,99.6409683227539 30.187999725341797,99.6409683227539 30.187999725341797,99.6409683227539 C35.882999420166016,99.6409683227539 40.54199981689453,104.29994201660156 40.54199981689453,109.99491882324219 C40.54199981689453,109.99491882324219 40.54199981689453,114.15089416503906 40.54199981689453,114.15089416503906 C40.54199981689453,119.84587097167969 35.882999420166016,124.50484466552734 30.187999725341797,124.50484466552734z"></path></g><g opacity="1" transform="matrix(1,0,0,1,0,0)"><path fill="rgb(134,63,20)" fill-opacity="1" d=" M28.82200050354004,118.6678695678711 C28.82200050354004,118.6678695678711 -32.56700134277344,118.6678695678711 -32.56700134277344,118.6678695678711 C-38.262001037597656,118.6678695678711 -42.922000885009766,114.00889587402344 -42.922000885009766,108.31392669677734 C-42.922000885009766,108.31392669677734 -42.922000885009766,108.31392669677734 -42.922000885009766,108.31392669677734 C-42.922000885009766,102.61894989013672 -38.262001037597656,97.95897674560547 -32.56700134277344,97.95897674560547 C-32.56700134277344,97.95897674560547 28.82200050354004,97.95897674560547 28.82200050354004,97.95897674560547 C34.516998291015625,97.95897674560547 39.17599868774414,102.61894989013672 39.17599868774414,108.31392669677734 C39.17599868774414,108.31392669677734 39.17599868774414,108.31392669677734 39.17599868774414,108.31392669677734 C39.17599868774414,114.00889587402344 34.516998291015625,118.6678695678711 28.82200050354004,118.6678695678711z"></path></g><g opacity="1" transform="matrix(1,0,0,1,0,0)"><path fill="rgb(107,32,0)" fill-opacity="1" d=" M39.17300033569336,108.31692504882812 C39.17300033569336,109.47692108154297 38.983001708984375,110.59691619873047 38.62300109863281,111.63690948486328 C37.233001708984375,107.54692840576172 33.35300064086914,104.58694458007812 28.822999954223633,104.58694458007812 C28.822999954223633,104.58694458007812 -32.56700134277344,104.58694458007812 -32.56700134277344,104.58694458007812 C-35.41699981689453,104.58694458007812 -38.00699996948242,105.74693298339844 -39.87699890136719,107.6269302368164 C-40.99700164794922,108.7469253540039 -41.856998443603516,110.10691833496094 -42.367000579833984,111.63690948486328 C-42.72700119018555,110.59691619873047 -42.91699981689453,109.47692108154297 -42.91699981689453,108.31692504882812 C-42.91699981689453,105.46693420410156 -41.75699996948242,102.876953125 -39.87699890136719,100.99695587158203 C-38.00699996948242,99.12696838378906 -35.41699981689453,97.95697784423828 -32.56700134277344,97.95697784423828 C-32.56700134277344,97.95697784423828 28.822999954223633,97.95697784423828 28.822999954223633,97.95697784423828 C34.51300048828125,97.95697784423828 39.17300033569336,102.61695098876953 39.17300033569336,108.31692504882812z"></path></g></g><g style="display: block;" transform="matrix(0.991338849067688,0.08406086266040802,-0.08319509029388428,1.0016552209854126,222.14389038085938,247.15353393554688)" opacity="1"><g opacity="1" transform="matrix(1,0,0,1,0,0)"><path fill="rgb(255,238,189)" fill-opacity="1" d=" M36.888999938964844,-127.79900360107422 C37.819000244140625,-129.36099243164062 41.369998931884766,-131.81100463867188 44.22600173950195,-133.21099853515625 C56.60300064086914,-139.27699279785156 87.43499755859375,-138.39199829101562 108.44400024414062,-126.91600036621094 C138.36199951171875,-110.572998046875 128.9149932861328,-96.76000213623047 122.41999816894531,-99.9530029296875 C115.92500305175781,-103.14600372314453 93.01399993896484,-118.0979995727539 61.55400085449219,-117.18299865722656 C53.124000549316406,-116.93800354003906 47.189998626708984,-115.83599853515625 42.51100158691406,-116.11199951171875 C36.33000183105469,-116.47599792480469 34.33700180053711,-123.51100158691406 36.888999938964844,-127.79900360107422z"></path></g><g opacity="1" transform="matrix(1,0,0,1,0,0)"><path fill="rgb(134,63,20)" fill-opacity="1" d=" M37.38399887084961,-128.7239990234375 C38.31399917602539,-130.28599548339844 41.369998931884766,-132.81100463867188 44.22600173950195,-134.21099853515625 C56.60300064086914,-140.27699279785156 84.9729995727539,-143.12899780273438 105.98200225830078,-131.6529998779297 C135.89999389648438,-115.30999755859375 128.81100463867188,-101.50599670410156 122.31600189208984,-104.6989974975586 C115.82099914550781,-107.89199829101562 92.91000366210938,-122.84400177001953 61.45000076293945,-121.92900085449219 C53.02000045776367,-121.68399810791016 47.08599853515625,-120.58100128173828 42.40700149536133,-120.85700225830078 C36.22600173950195,-121.22100067138672 34.832000732421875,-124.43599700927734 37.38399887084961,-128.7239990234375z"></path></g><g opacity="1" transform="matrix(1,0,0,1,0,0)"><path fill="rgb(107,32,0)" fill-opacity="1" d=" M37.12799835205078,-122.66300201416016 C37.250999450683594,-122.90699768066406 37.38399887084961,-123.16100311279297 37.5369987487793,-123.41500091552734 C38.4640007019043,-124.97100067138672 41.51499938964844,-127.49800109863281 44.37699890136719,-128.8979949951172 C56.75299835205078,-134.96499633789062 85.1240005493164,-137.8159942626953 106.13200378417969,-126.33699798583984 C120.02899932861328,-118.74099731445312 125.93800354003906,-111.7030029296875 127.62899780273438,-106.65799713134766 C129.41799926757812,-111.02999877929688 125.8949966430664,-120.78500366210938 105.98400115966797,-131.65499877929688 C84.97599792480469,-143.12399291992188 56.604000091552734,-140.2729949951172 44.22800064086914,-134.21600341796875 C41.36600112915039,-132.8159942626953 38.316001892089844,-130.28900146484375 37.388999938964844,-128.72300720214844 C35.88800048828125,-126.22000122070312 35.74800109863281,-124.07499694824219 37.12799835205078,-122.66300201416016z"></path></g></g><g style="display: block;" transform="matrix(0.9886484742164612,-0.11182419210672379,0.1106724813580513,0.9989368319511414,228.8750762939453,244.11660766601562)" opacity="1"><g opacity="1" transform="matrix(1,0,0,1,0,0)"><path fill="rgb(255,238,189)" fill-opacity="1" d=" M-40.71200180053711,-127.95099639892578 C-41.641998291015625,-129.51300048828125 -45.1150016784668,-131.81100463867188 -47.97100067138672,-133.21099853515625 C-60.347999572753906,-139.27699279785156 -91.18099975585938,-138.39199829101562 -112.19000244140625,-126.91600036621094 C-142.10800170898438,-110.572998046875 -132.66099548339844,-96.76000213623047 -126.16600036621094,-99.9530029296875 C-119.6709976196289,-103.14600372314453 -96.76000213623047,-118.0979995727539 -65.30000305175781,-117.18299865722656 C-56.869998931884766,-116.93800354003906 -50.93600082397461,-115.83599853515625 -46.25699996948242,-116.11199951171875 C-40.07600021362305,-116.47599792480469 -38.15999984741211,-123.66300201416016 -40.71200180053711,-127.95099639892578z"></path></g><g opacity="1" transform="matrix(1,0,0,1,0,0)"><path fill="rgb(134,63,20)" fill-opacity="1" d=" M-41.130001068115234,-128.7239990234375 C-42.060001373291016,-130.28599548339844 -45.1150016784668,-132.81100463867188 -47.97100067138672,-134.21099853515625 C-60.347999572753906,-140.27699279785156 -88.71900177001953,-143.12899780273438 -109.72799682617188,-131.6529998779297 C-139.64599609375,-115.30999755859375 -132.55599975585938,-101.50599670410156 -126.06099700927734,-104.6989974975586 C-119.56600189208984,-107.89199829101562 -96.65599822998047,-122.84400177001953 -65.19599914550781,-121.92900085449219 C-56.76599884033203,-121.68399810791016 -50.832000732421875,-120.58100128173828 -46.15299987792969,-120.85700225830078 C-39.97200012207031,-121.22100067138672 -38.577999114990234,-124.43599700927734 -41.130001068115234,-128.7239990234375z"></path></g><g opacity="1" transform="matrix(1,0,0,1,0,0)"><path fill="rgb(107,32,0)" fill-opacity="1" d=" M-40.87300109863281,-122.66300201416016 C-40.99599838256836,-122.90699768066406 -41.130001068115234,-123.16100311279297 -41.28300094604492,-123.41500091552734 C-42.209999084472656,-124.97100067138672 -45.2599983215332,-127.49800109863281 -48.12200164794922,-128.8979949951172 C-60.49800109863281,-134.96499633789062 -88.87000274658203,-137.8159942626953 -109.87799835205078,-126.33699798583984 C-123.7750015258789,-118.74099731445312 -129.68299865722656,-111.7030029296875 -131.37399291992188,-106.65799713134766 C-133.16299438476562,-111.02999877929688 -129.64100646972656,-120.78500366210938 -109.7300033569336,-131.65499877929688 C-88.72200012207031,-143.12399291992188 -60.349998474121094,-140.2729949951172 -47.9739990234375,-134.21600341796875 C-45.11199951171875,-132.8159942626953 -42.0620002746582,-130.28900146484375 -41.1349983215332,-128.72300720214844 C-39.63399887084961,-126.22000122070312 -39.49300003051758,-124.07499694824219 -40.87300109863281,-122.66300201416016z"></path></g></g></g></g></svg>