<svg xmlns="http://www.w3.org/2000/svg" viewBox="0 0 512 512" width="512" height="512" style="width: 100%; height: 100%; transform: translate3d(0,0,0);" preserveAspectRatio="xMidYMid meet"><defs><clipPath id="__lottie_element_14055"><rect width="512" height="512" x="0" y="0"></rect></clipPath><linearGradient id="__lottie_element_14062" spreadMethod="pad" gradientUnits="userSpaceOnUse"><stop></stop><stop></stop><stop></stop></linearGradient><linearGradient id="__lottie_element_14069" spreadMethod="pad" gradientUnits="userSpaceOnUse"><stop></stop><stop></stop><stop></stop></linearGradient><linearGradient id="__lottie_element_14076" spreadMethod="pad" gradientUnits="userSpaceOnUse"><stop></stop><stop></stop><stop></stop></linearGradient><linearGradient id="__lottie_element_14083" spreadMethod="pad" gradientUnits="userSpaceOnUse"><stop></stop><stop></stop><stop></stop></linearGradient><linearGradient id="__lottie_element_14090" spreadMethod="pad" gradientUnits="userSpaceOnUse" x1="27.19099998474121" y1="64.55400085449219" x2="66.29000091552734" y2="94.98799896240234"><stop offset="0%" stop-color="rgb(175,0,109)"></stop><stop offset="34%" stop-color="rgb(213,30,142)"></stop><stop offset="64%" stop-color="rgb(252,60,175)"></stop></linearGradient><linearGradient id="__lottie_element_14097" spreadMethod="pad" gradientUnits="userSpaceOnUse" x1="13.895000457763672" y1="85.42400360107422" x2="63.165000915527344" y2="79.22599792480469"><stop offset="0%" stop-color="rgb(175,0,109)"></stop><stop offset="34%" stop-color="rgb(213,30,142)"></stop><stop offset="64%" stop-color="rgb(252,60,175)"></stop></linearGradient></defs><g clip-path="url(#__lottie_element_14055)"><g style="display: block;" transform="matrix(-0.9261285662651062,-0.15710850059986115,0.15710850059986115,-0.9261285662651062,236.47860717773438,221.79652404785156)" opacity="1"><g opacity="1" transform="matrix(1,0,0,1,0,0)"><path fill="url(#__lottie_element_14097)" fill-opacity="1" d=" M197.5489959716797,6.290999889373779 C197.5489959716797,6.290999889373779 141.8280029296875,87.072998046875 7.427000045776367,89.64299774169922 C-32.112998962402344,92.35800170898438 -12.489999771118164,114.73200225830078 5.381999969482422,113.51100158691406 C22.76099967956543,112.40899658203125 76.10299682617188,104.29100036621094 119.5469970703125,81.49800109863281 C172.24200439453125,54.143001556396484 197.5489959716797,6.290999889373779 197.5489959716797,6.290999889373779z"></path></g></g><g style="display: block;" transform="matrix(0.9887999892234802,0,0,0.9887999892234802,376.3519287109375,110.44773864746094)" opacity="1"><g opacity="1" transform="matrix(1,0,0,1,0,0)"><path fill="rgb(244,0,128)" fill-opacity="1" d=" M28.33099937438965,16.375 C27.20400047302246,-0.6589999794960022 12.996999740600586,-23.298999786376953 -15.416000366210938,-22.652000427246094 C-39.75600051879883,-22.097999572753906 -54.88399887084961,-1.2899999618530273 -58.72100067138672,4.664000034332275 C-59.16600036621094,5.354000091552734 -60.21200180053711,5.354000091552734 -60.65700149536133,4.664000034332275 C-64.49400329589844,-1.2899999618530273 -79.62200164794922,-22.097999572753906 -103.96199798583984,-22.652000427246094 C-132.375,-23.298999786376953 -146.58099365234375,-0.6589999794960022 -147.70899963378906,16.375 C-148.83700561523438,33.409000396728516 -144.552001953125,52.5989990234375 -120.64900207519531,82.3550033569336 C-102.2229995727539,105.29299926757812 -75.97899627685547,130.66600036621094 -64.9209976196289,141.08799743652344 C-62.018001556396484,143.82400512695312 -57.36000061035156,143.82400512695312 -54.457000732421875,141.08799743652344 C-43.39899826049805,130.66600036621094 -17.155000686645508,105.29299926757812 1.2710000276565552,82.3550033569336 C25.173999786376953,52.5989990234375 29.45800018310547,33.409000396728516 28.33099937438965,16.375z"></path></g><g opacity="1" transform="matrix(1,0,0,1,0,0)"><path fill="rgb(253,36,155)" fill-opacity="1" d=" M28.33099937438965,16.375 C27.20400047302246,-0.6589999794960022 12.996999740600586,-23.298999786376953 -15.416000366210938,-22.652000427246094 C-43.82899856567383,-22.0049991607666 -59.68899917602539,6.241000175476074 -59.68899917602539,6.241000175476074 C-59.68899917602539,6.241000175476074 -75.54900360107422,-22.0049991607666 -103.96199798583984,-22.652000427246094 C-132.375,-23.298999786376953 -146.58099365234375,-0.6589999794960022 -147.70899963378906,16.375 C-148.83700561523438,33.409000396728516 -144.552001953125,52.5989990234375 -120.64900207519531,82.3550033569336 C-108.89399719238281,96.98799896240234 -93.95800018310547,112.61100006103516 -81.81300354003906,124.71199798583984 C-69.74199676513672,136.73899841308594 -49.63600158691406,136.73899841308594 -37.564998626708984,124.71199798583984 C-25.420000076293945,112.61100006103516 -10.484000205993652,96.98799896240234 1.2710000276565552,82.3550033569336 C25.173999786376953,52.5989990234375 29.45800018310547,33.409000396728516 28.33099937438965,16.375z"></path></g><g opacity="1" transform="matrix(1,0,0,1,0,0)"><path fill="rgb(252,60,175)" fill-opacity="1" d=" M20.167999267578125,20.684999465942383 C19.145000457763672,6.579999923706055 8.055000305175781,-13.73799991607666 -17.722999572753906,-13.20199966430664 C-43.500999450683594,-12.666000366210938 -59.68899917602539,17.788000106811523 -59.68899917602539,17.788000106811523 C-59.68899917602539,17.788000106811523 -75.87699890136719,-12.666000366210938 -101.65499877929688,-13.20199966430664 C-127.43299865722656,-13.73799991607666 -138.5240020751953,6.579999923706055 -139.5469970703125,20.684999465942383 C-140.57000732421875,34.790000915527344 -136.6820068359375,52.64400100708008 -114.99600219726562,77.28399658203125 C-108.59700012207031,84.55500030517578 -101.15899658203125,92.37799835205078 -93.85199737548828,99.79399871826172 C-75.31500244140625,118.60800170898438 -44.0629997253418,118.60800170898438 -25.525999069213867,99.79399871826172 C-18.2189998626709,92.37799835205078 -10.781000137329102,84.55500030517578 -4.381999969482422,77.28399658203125 C17.304000854492188,52.64400100708008 21.19099998474121,34.790000915527344 20.167999267578125,20.684999465942383z"></path></g><g opacity="1" transform="matrix(1,0,0,1,0,0)"><g opacity="1" transform="matrix(1,0,0,1,0,0)"><path fill="rgb(250,75,180)" fill-opacity="1" d=" M-59.69499969482422,17.784000396728516 C-67.05500030517578,10.914999961853027 -96.09300231933594,2.1700000762939453 -115.93000030517578,15.901000022888184 C-139.51199340820312,32.224998474121094 -129.89300537109375,56.915000915527344 -129.531005859375,57.7400016784668 C-132.56500244140625,52.667999267578125 -134.77200317382812,47.944000244140625 -136.34300231933594,43.51900100708008 C-136.2270050048828,34.38199996948242 -132.91700744628906,22.540000915527344 -119.49400329589844,13.24899959564209 C-100.4280014038086,0.050999999046325684 -73.37000274658203,6.380000114440918 -62.5620002746582,13.11400032043457 C-60.7400016784668,15.838000297546387 -59.755001068115234,17.670000076293945 -59.69499969482422,17.784000396728516z"></path></g><g opacity="1" transform="matrix(1,0,0,1,0,0)"><path fill="rgb(253,84,185)" fill-opacity="1" d=" M-62.5620002746582,13.11400032043457 C-73.37000274658203,6.380000114440918 -100.4260025024414,0.05400000140070915 -119.49400329589844,13.24899959564209 C-132.91799926757812,22.538000106811523 -136.2270050048828,34.38199996948242 -136.34300231933594,43.51900100708008 C-137.0399932861328,41.560001373291016 -137.60699462890625,39.6609992980957 -138.06199645996094,37.81700134277344 C-136.81199645996094,29.433000564575195 -132.48300170898438,19.839000701904297 -121.16699981689453,12.005000114440918 C-102.3010025024414,-1.0570000410079956 -75.8290023803711,4.480999946594238 -63.96099853515625,11.088000297546387 C-63.45000076293945,11.803000450134277 -62.98500061035156,12.484000205993652 -62.5620002746582,13.11400032043457z"></path></g><g opacity="1" transform="matrix(1,0,0,1,0,0)"><path fill="rgb(253,99,190)" fill-opacity="1" d=" M-63.96099853515625,11.088000297546387 C-75.8290023803711,4.480999946594238 -102.2959976196289,-1.0499999523162842 -121.16699981689453,12.005000114440918 C-132.48599243164062,19.834999084472656 -136.81199645996094,29.433000564575195 -138.06199645996094,37.81700134277344 C-138.7169952392578,35.189998626708984 -139.1540069580078,32.67300033569336 -139.40499877929688,30.257999420166016 C-137.03500366210938,23.427000045776367 -132.3070068359375,16.327999114990234 -123.5270004272461,10.25 C-104.89399719238281,-2.6519999504089355 -79.10900115966797,1.9210000038146973 -66.03299713134766,8.303999900817871 C-65.2760009765625,9.277000427246094 -64.58799743652344,10.211999893188477 -63.96099853515625,11.088000297546387z"></path></g><g opacity="1" transform="matrix(1,0,0,1,0,0)"><path fill="rgb(250,114,194)" fill-opacity="1" d=" M-66.03299713134766,8.303999900817871 C-79.10900115966797,1.9210000038146973 -104.88800048828125,-2.6429998874664307 -123.5270004272461,10.25 C-132.3090057373047,16.323999404907227 -137.03500366210938,23.427000045776367 -139.40499877929688,30.257999420166016 C-139.66099548339844,27.829999923706055 -139.73500061035156,25.503000259399414 -139.6699981689453,23.270000457763672 C-136.81700134277344,18.131000518798828 -132.43899536132812,13.038999557495117 -125.87899780273438,8.49899959564209 C-107.46399688720703,-4.245999813079834 -82.31999969482422,-0.5410000085830688 -68.26399993896484,5.563000202178955 C-67.46499633789062,6.498000144958496 -66.72100067138672,7.415999889373779 -66.03299713134766,8.303999900817871z"></path></g><g opacity="1" transform="matrix(1,0,0,1,0,0)"><path fill="rgb(253,124,200)" fill-opacity="1" d=" M-68.26399993896484,5.563000202178955 C-82.31999969482422,-0.5410000085830688 -107.46099853515625,-4.242000102996826 -125.87899780273438,8.49899959564209 C-132.44000244140625,13.038000106811523 -136.81700134277344,18.131000518798828 -139.6699981689453,23.270000457763672 C-139.6510009765625,22.393999099731445 -139.6060028076172,21.5310001373291 -139.5449981689453,20.684999465942383 C-139.44700622558594,19.322999954223633 -139.2519989013672,17.902000427246094 -138.96400451660156,16.44700050354004 C-136.25999450683594,13.038000106811523 -132.78799438476562,9.72599983215332 -128.35499572753906,6.658999919891357 C-110.18599700927734,-5.913000106811523 -85.71600341796875,-3.058000087738037 -70.81900024414062,2.6989998817443848 C-69.91300201416016,3.6589999198913574 -69.06300354003906,4.619999885559082 -68.26399993896484,5.563000202178955z"></path></g><g opacity="1" transform="matrix(1,0,0,1,0,0)"><path fill="rgb(251,138,204)" fill-opacity="1" d=" M-70.81900024414062,2.6989998817443848 C-85.71600341796875,-3.058000087738037 -110.18499755859375,-5.910999774932861 -128.35499572753906,6.658999919891357 C-132.78799438476562,9.72599983215332 -136.25999450683594,13.038000106811523 -138.96400451660156,16.44700050354004 C-138.56900024414062,14.467000007629395 -137.98800659179688,12.420000076293945 -137.2169952392578,10.376999855041504 C-135.2790069580078,8.52400016784668 -133.08099365234375,6.7270002365112305 -130.58599853515625,5.000999927520752 C-112.69599914550781,-7.380000114440918 -88.88099670410156,-5.269999980926514 -73.375,0.11100000143051147 C-72.48300170898438,0.9700000286102295 -71.63200378417969,1.8359999656677246 -70.81900024414062,2.6989998817443848z"></path></g><g opacity="1" transform="matrix(1,0,0,1,0,0)"><path fill="rgb(255,148,212)" fill-opacity="1" d=" M-73.375,0.11100000143051147 C-88.88099670410156,-5.269999980926514 -112.69300079345703,-7.375999927520752 -130.58599853515625,5.000999927520752 C-133.08099365234375,6.7270002365112305 -135.2790069580078,8.52400016784668 -137.2169952392578,10.376999855041504 C-136.35299682617188,8.08899974822998 -135.24600219726562,5.796000003814697 -133.88499450683594,3.5920000076293945 C-133.6479949951172,3.4230000972747803 -133.40699768066406,3.252000093460083 -133.1649932861328,3.0840001106262207 C-115.7030029296875,-9.005000114440918 -92.78900146484375,-7.761000156402588 -76.75800323486328,-2.9179999828338623 C-75.572998046875,-1.937000036239624 -74.44400024414062,-0.9169999957084656 -73.375,0.11100000143051147z"></path></g><g opacity="1" transform="matrix(1,0,0,1,0,0)"><path fill="rgb(255,161,216)" fill-opacity="1" d=" M-76.75800323486328,-2.9179999828338623 C-92.78900146484375,-7.761000156402588 -115.7030029296875,-9.005000114440918 -133.1649932861328,3.0840001106262207 C-133.40699768066406,3.253000020980835 -133.6479949951172,3.4230000972747803 -133.88499450683594,3.5920000076293945 C-132.79800415039062,1.8370000123977661 -131.552001953125,0.13199999928474426 -130.1300048828125,-1.4709999561309814 C-113.98300170898438,-10.041000366210938 -94.5739974975586,-9.229000091552734 -79.86199951171875,-5.321000099182129 C-78.78900146484375,-4.551000118255615 -77.75199890136719,-3.746999979019165 -76.75800323486328,-2.9179999828338623z"></path></g><g opacity="1" transform="matrix(1,0,0,1,0,0)"><path fill="rgb(255,173,222)" fill-opacity="1" d=" M-79.86199951171875,-5.321000099182129 C-94.5739974975586,-9.229000091552734 -113.98300170898438,-10.041000366210938 -130.1300048828125,-1.4709999561309814 C-128.9029998779297,-2.8580000400543213 -127.5510025024414,-4.170000076293945 -126.06400299072266,-5.380000114440918 C-111.81700134277344,-10.946999549865723 -95.89299774169922,-10.387999534606934 -82.96099853515625,-7.385000228881836 C-81.89700317382812,-6.734000205993652 -80.86100006103516,-6.039999961853027 -79.86199951171875,-5.321000099182129z"></path></g><g opacity="1" transform="matrix(1,0,0,1,0,0)"><path fill="rgb(255,188,227)" fill-opacity="1" d=" M-82.96099853515625,-7.385000228881836 C-95.89299774169922,-10.387999534606934 -111.81700134277344,-10.946999549865723 -126.06400299072266,-5.380000114440918 C-124.56300354003906,-6.603000164031982 -122.93299865722656,-7.718999862670898 -121.15799713134766,-8.704999923706055 C-109.50900268554688,-11.822999954223633 -97.21700286865234,-11.444999694824219 -86.56700134277344,-9.376999855041504 C-85.32599639892578,-8.767999649047852 -84.12699890136719,-8.100000381469727 -82.96099853515625,-7.385000228881836z"></path></g><g opacity="1" transform="matrix(1,0,0,1,0,0)"><path fill="rgb(255,202,232)" fill-opacity="1" d=" M-86.56700134277344,-9.376999855041504 C-97.21700286865234,-11.444999694824219 -109.50900268554688,-11.822999954223633 -121.15799713134766,-8.704999923706055 C-119.322998046875,-9.725000381469727 -117.33799743652344,-10.600000381469727 -115.19599914550781,-11.305999755859375 C-106.90599822998047,-12.583000183105469 -98.52400207519531,-12.338000297546387 -90.80999755859375,-11.175000190734863 C-89.35099792480469,-10.654999732971191 -87.93800354003906,-10.053999900817871 -86.56700134277344,-9.376999855041504z"></path></g><g opacity="1" transform="matrix(1,0,0,1,0,0)"><path fill="rgb(255,211,240)" fill-opacity="1" d=" M-90.80999755859375,-11.175000190734863 C-98.52400207519531,-12.338000297546387 -106.90599822998047,-12.583000183105469 -115.19599914550781,-11.305999755859375 C-111.22799682617188,-12.604999542236328 -106.7249984741211,-13.307000160217285 -101.65499877929688,-13.201000213623047 C-97.81700134277344,-13.121000289916992 -94.197998046875,-12.380000114440918 -90.80999755859375,-11.175000190734863z"></path></g><g opacity="0.5" transform="matrix(1,0,0,1,0,0)"><path fill="rgb(252,60,175)" fill-opacity="1" d=" M-59.69499969482422,17.784000396728516 C-67.05500030517578,10.914999961853027 -96.09300231933594,2.1700000762939453 -115.93000030517578,15.901000022888184 C-139.51199340820312,32.224998474121094 -129.89300537109375,56.915000915527344 -129.531005859375,57.7400016784668 C-131.07400512695312,55.16400146484375 -132.40199279785156,52.676998138427734 -133.53599548339844,50.27399826049805 C-134.86000061035156,41.28099822998047 -134.052001953125,25.986000061035156 -117.63999938964844,14.628000259399414 C-98.25900268554688,1.215000033378601 -70.35900115966797,8.616999626159668 -61.051998138427734,15.456999778747559 C-60.196998596191406,16.8439998626709 -59.73699951171875,17.70800018310547 -59.69499969482422,17.784000396728516z"></path></g></g><g opacity="1" transform="matrix(1,0,0,1,0,0)"><g opacity="1" transform="matrix(1,0,0,1,0,0)"><path fill="rgb(250,75,180)" fill-opacity="1" d=" M-59.69499969482422,17.784000396728516 C-52.334999084472656,10.914999961853027 -23.29800033569336,2.1700000762939453 -3.4609999656677246,15.901000022888184 C20.121000289916992,32.224998474121094 10.501999855041504,56.915000915527344 10.140000343322754,57.7400016784668 C13.173999786376953,52.667999267578125 15.381999969482422,47.944000244140625 16.952999114990234,43.51900100708008 C16.836999893188477,34.38199996948242 13.526000022888184,22.540000915527344 0.10300000011920929,13.24899959564209 C-18.96299934387207,0.050999999046325684 -46.02000045776367,6.380000114440918 -56.827999114990234,13.11400032043457 C-58.650001525878906,15.838000297546387 -59.6349983215332,17.670000076293945 -59.69499969482422,17.784000396728516z"></path></g><g opacity="1" transform="matrix(1,0,0,1,0,0)"><path fill="rgb(253,84,185)" fill-opacity="1" d=" M-56.827999114990234,13.11400032043457 C-46.02000045776367,6.380000114440918 -18.96500015258789,0.05400000140070915 0.10300000011920929,13.24899959564209 C13.527000427246094,22.538000106811523 16.836999893188477,34.38199996948242 16.952999114990234,43.51900100708008 C17.649999618530273,41.560001373291016 18.216999053955078,39.6609992980957 18.672000885009766,37.81700134277344 C17.422000885009766,29.433000564575195 13.092000007629395,19.839000701904297 1.7760000228881836,12.005000114440918 C-17.09000015258789,-1.0570000410079956 -43.5620002746582,4.480999946594238 -55.43000030517578,11.088000297546387 C-55.941001892089844,11.803000450134277 -56.404998779296875,12.484000205993652 -56.827999114990234,13.11400032043457z"></path></g><g opacity="1" transform="matrix(1,0,0,1,0,0)"><path fill="rgb(253,99,190)" fill-opacity="1" d=" M-55.43000030517578,11.088000297546387 C-43.5620002746582,4.480999946594238 -17.094999313354492,-1.0499999523162842 1.7760000228881836,12.005000114440918 C13.095000267028809,19.834999084472656 17.422000885009766,29.433000564575195 18.672000885009766,37.81700134277344 C19.32699966430664,35.189998626708984 19.763999938964844,32.67300033569336 20.014999389648438,30.257999420166016 C17.645000457763672,23.427000045776367 12.916999816894531,16.327999114990234 4.13700008392334,10.25 C-14.496000289916992,-2.6519999504089355 -40.28099822998047,1.9210000038146973 -53.356998443603516,8.303999900817871 C-54.11399841308594,9.277000427246094 -54.803001403808594,10.211999893188477 -55.43000030517578,11.088000297546387z"></path></g><g opacity="1" transform="matrix(1,0,0,1,0,0)"><path fill="rgb(250,114,194)" fill-opacity="1" d=" M-53.356998443603516,8.303999900817871 C-40.28099822998047,1.9210000038146973 -14.501999855041504,-2.6429998874664307 4.13700008392334,10.25 C12.918999671936035,16.323999404907227 17.645000457763672,23.427000045776367 20.014999389648438,30.257999420166016 C20.270000457763672,27.829999923706055 20.344999313354492,25.503000259399414 20.280000686645508,23.270000457763672 C17.427000045776367,18.131000518798828 13.04800033569336,13.038999557495117 6.48799991607666,8.49899959564209 C-11.927000045776367,-4.245999813079834 -37.07099914550781,-0.5410000085830688 -51.12699890136719,5.563000202178955 C-51.92599868774414,6.498000144958496 -52.66899871826172,7.415999889373779 -53.356998443603516,8.303999900817871z"></path></g><g opacity="1" transform="matrix(1,0,0,1,0,0)"><path fill="rgb(253,124,200)" fill-opacity="1" d=" M-51.12699890136719,5.563000202178955 C-37.07099914550781,-0.5410000085830688 -11.930000305175781,-4.242000102996826 6.48799991607666,8.49899959564209 C13.048999786376953,13.038000106811523 17.427000045776367,18.131000518798828 20.280000686645508,23.270000457763672 C20.26099967956543,22.393999099731445 20.21500015258789,21.5310001373291 20.15399932861328,20.684999465942383 C20.055999755859375,19.322999954223633 19.861000061035156,17.902000427246094 19.572999954223633,16.44700050354004 C16.868999481201172,13.038000106811523 13.39799976348877,9.72599983215332 8.96500015258789,6.658999919891357 C-9.204000473022461,-5.913000106811523 -33.67399978637695,-3.058000087738037 -48.57099914550781,2.6989998817443848 C-49.47700119018555,3.6589999198913574 -50.327999114990234,4.619999885559082 -51.12699890136719,5.563000202178955z"></path></g><g opacity="1" transform="matrix(1,0,0,1,0,0)"><path fill="rgb(251,138,204)" fill-opacity="1" d=" M-48.57099914550781,2.6989998817443848 C-33.67399978637695,-3.058000087738037 -9.204999923706055,-5.910999774932861 8.96500015258789,6.658999919891357 C13.39799976348877,9.72599983215332 16.868999481201172,13.038000106811523 19.572999954223633,16.44700050354004 C19.17799949645996,14.467000007629395 18.597000122070312,12.420000076293945 17.826000213623047,10.376999855041504 C15.887999534606934,8.52400016784668 13.6899995803833,6.7270002365112305 11.194999694824219,5.000999927520752 C-6.695000171661377,-7.380000114440918 -30.509000778198242,-5.269999980926514 -46.01499938964844,0.11100000143051147 C-46.90700149536133,0.9700000286102295 -47.757999420166016,1.8359999656677246 -48.57099914550781,2.6989998817443848z"></path></g><g opacity="1" transform="matrix(1,0,0,1,0,0)"><path fill="rgb(255,148,212)" fill-opacity="1" d=" M-46.01499938964844,0.11100000143051147 C-30.509000778198242,-5.269999980926514 -6.697999954223633,-7.375999927520752 11.194999694824219,5.000999927520752 C13.6899995803833,6.7270002365112305 15.887999534606934,8.52400016784668 17.826000213623047,10.376999855041504 C16.961999893188477,8.08899974822998 15.855999946594238,5.796000003814697 14.494000434875488,3.5920000076293945 C14.256999969482422,3.4230000972747803 14.015999794006348,3.252000093460083 13.77400016784668,3.0840001106262207 C-3.687999963760376,-9.005000114440918 -26.60099983215332,-7.761000156402588 -42.63199996948242,-2.9179999828338623 C-43.81700134277344,-1.937000036239624 -44.94599914550781,-0.9169999957084656 -46.01499938964844,0.11100000143051147z"></path></g><g opacity="1" transform="matrix(1,0,0,1,0,0)"><path fill="rgb(255,161,216)" fill-opacity="1" d=" M-42.63199996948242,-2.9179999828338623 C-26.60099983215332,-7.761000156402588 -3.687999963760376,-9.005000114440918 13.77400016784668,3.0840001106262207 C14.015999794006348,3.253000020980835 14.256999969482422,3.4230000972747803 14.494000434875488,3.5920000076293945 C13.406999588012695,1.8370000123977661 12.161999702453613,0.13199999928474426 10.739999771118164,-1.4709999561309814 C-5.4070000648498535,-10.041000366210938 -24.816999435424805,-9.229000091552734 -39.52899932861328,-5.321000099182129 C-40.60200119018555,-4.551000118255615 -41.63800048828125,-3.746999979019165 -42.63199996948242,-2.9179999828338623z"></path></g><g opacity="1" transform="matrix(1,0,0,1,0,0)"><path fill="rgb(255,173,222)" fill-opacity="1" d=" M-39.52899932861328,-5.321000099182129 C-24.816999435424805,-9.229000091552734 -5.4070000648498535,-10.041000366210938 10.739999771118164,-1.4709999561309814 C9.512999534606934,-2.8580000400543213 8.16100025177002,-4.170000076293945 6.673999786376953,-5.380000114440918 C-7.572999954223633,-10.946999549865723 -23.496999740600586,-10.387999534606934 -36.42900085449219,-7.385000228881836 C-37.49300003051758,-6.734000205993652 -38.529998779296875,-6.039999961853027 -39.52899932861328,-5.321000099182129z"></path></g><g opacity="1" transform="matrix(1,0,0,1,0,0)"><path fill="rgb(255,188,227)" fill-opacity="1" d=" M-36.42900085449219,-7.385000228881836 C-23.496999740600586,-10.387999534606934 -7.572999954223633,-10.946999549865723 6.673999786376953,-5.380000114440918 C5.172999858856201,-6.603000164031982 3.5420000553131104,-7.718999862670898 1.7669999599456787,-8.704999923706055 C-9.881999969482422,-11.822999954223633 -22.17300033569336,-11.444999694824219 -32.823001861572266,-9.376999855041504 C-34.06399917602539,-8.767999649047852 -35.26300048828125,-8.100000381469727 -36.42900085449219,-7.385000228881836z"></path></g><g opacity="1" transform="matrix(1,0,0,1,0,0)"><path fill="rgb(255,202,232)" fill-opacity="1" d=" M-32.823001861572266,-9.376999855041504 C-22.17300033569336,-11.444999694824219 -9.881999969482422,-11.822999954223633 1.7669999599456787,-8.704999923706055 C-0.06800000369548798,-9.725000381469727 -2.052999973297119,-10.600000381469727 -4.195000171661377,-11.305999755859375 C-12.484999656677246,-12.583000183105469 -20.867000579833984,-12.338000297546387 -28.58099937438965,-11.175000190734863 C-30.040000915527344,-10.654999732971191 -31.45199966430664,-10.053999900817871 -32.823001861572266,-9.376999855041504z"></path></g><g opacity="1" transform="matrix(1,0,0,1,0,0)"><path fill="rgb(255,211,240)" fill-opacity="1" d=" M-28.58099937438965,-11.175000190734863 C-20.867000579833984,-12.338000297546387 -12.484999656677246,-12.583000183105469 -4.195000171661377,-11.305999755859375 C-8.163000106811523,-12.604999542236328 -12.664999961853027,-13.307000160217285 -17.735000610351562,-13.201000213623047 C-21.572999954223633,-13.121000289916992 -25.19300079345703,-12.380000114440918 -28.58099937438965,-11.175000190734863z"></path></g><g opacity="0.5" transform="matrix(1,0,0,1,0,0)"><path fill="rgb(252,60,175)" fill-opacity="1" d=" M-59.69499969482422,17.784000396728516 C-52.334999084472656,10.914999961853027 -23.29800033569336,2.1700000762939453 -3.4609999656677246,15.901000022888184 C20.121000289916992,32.224998474121094 10.501999855041504,56.915000915527344 10.140000343322754,57.7400016784668 C11.682999610900879,55.16400146484375 13.01200008392334,52.676998138427734 14.145999908447266,50.27399826049805 C15.470000267028809,41.28099822998047 14.66100025177002,25.986000061035156 -1.7510000467300415,14.628000259399414 C-21.131999969482422,1.215000033378601 -49.03099822998047,8.616999626159668 -58.3380012512207,15.456999778747559 C-59.19300079345703,16.8439998626709 -59.65299987792969,17.70800018310547 -59.69499969482422,17.784000396728516z"></path></g></g><g opacity="1" transform="matrix(1,0,0,1,0,0)"><path fill="rgb(255,255,255)" fill-opacity="1" d=" M-24.70800018310547,-12.472999572753906 C-23.402000427246094,-12.493000030517578 -22.327999114990234,-11.451000213623047 -22.308000564575195,-10.145000457763672 C-22.288000106811523,-8.83899974822998 -23.329999923706055,-7.764999866485596 -24.63599967956543,-7.744999885559082 C-25.941999435424805,-7.724999904632568 -27.016000747680664,-8.767000198364258 -27.035999298095703,-10.072999954223633 C-27.055999755859375,-11.378999710083008 -26.013999938964844,-12.45300006866455 -24.70800018310547,-12.472999572753906z"></path></g><g opacity="1" transform="matrix(1,0,0,1,0,0)"><path stroke-linecap="round" stroke-linejoin="round" fill-opacity="0" stroke="rgb(255,255,255)" stroke-opacity="1" stroke-width="6" d=" M-29.915000915527344,-7.860000133514404 C-29.915000915527344,-7.860000133514404 -28.194000244140625,-8.57699966430664 -26.233999252319336,-9.27299976348877"></path></g><g opacity="1" transform="matrix(1,0,0,1,0,0)"><path stroke-linecap="round" stroke-linejoin="round" fill-opacity="0" stroke="rgb(197,0,107)" stroke-opacity="1" stroke-width="8" d=" M28.33099937438965,16.375 C27.20400047302246,-0.6589999794960022 12.996999740600586,-23.298999786376953 -15.416000366210938,-22.652000427246094 C-39.75600051879883,-22.097999572753906 -54.88399887084961,-1.2899999618530273 -58.72100067138672,4.664000034332275 C-59.16600036621094,5.354000091552734 -60.21200180053711,5.354000091552734 -60.65700149536133,4.664000034332275 C-64.49400329589844,-1.2899999618530273 -79.62200164794922,-22.097999572753906 -103.96199798583984,-22.652000427246094 C-132.375,-23.298999786376953 -146.58099365234375,-0.6589999794960022 -147.70899963378906,16.375 C-148.83700561523438,33.409000396728516 -144.552001953125,52.5989990234375 -120.64900207519531,82.3550033569336 C-102.2229995727539,105.29299926757812 -75.97899627685547,130.66600036621094 -64.9209976196289,141.08799743652344 C-62.018001556396484,143.82400512695312 -57.36000061035156,143.82400512695312 -54.457000732421875,141.08799743652344 C-43.39899826049805,130.66600036621094 -17.155000686645508,105.29299926757812 1.2710000276565552,82.3550033569336 C25.173999786376953,52.5989990234375 29.45800018310547,33.409000396728516 28.33099937438965,16.375z"></path></g><g opacity="0.35000000000000003" transform="matrix(1,0,0,1,0,0)"><path fill="rgb(191,0,111)" fill-opacity="1" d=" M-43.51900100708008,129.00599670410156 C-51.18199920654297,141.67300415039062 -60.0989990234375,144.3979949951172 -63.729000091552734,141.34500122070312 C-76.12699890136719,130.91900634765625 -128.5019989013672,77.5260009765625 -138.89599609375,57.87900161743164 C-136.33200073242188,61.96500015258789 -136.9219970703125,56.05500030517578 -135.07000732421875,58.77899932861328 C-131.8209991455078,63.55799865722656 -123.81600189208984,62.933998107910156 -121.33000183105469,63.284000396728516 C-80.59100341796875,67.38700103759766 -56.63100051879883,99.0739974975586 -57.29899978637695,128.281005859375 C-57.37900161743164,131.77000427246094 -56.604000091552734,133.42599487304688 -53.01900100708008,133.33900451660156 C-49.448001861572266,133.2519989013672 -46.849998474121094,132.74600219726562 -43.51900100708008,129.00599670410156z"></path></g></g><g style="display: block;" transform="matrix(0.9393600225448608,0,0,0.9393600225448608,268.9794921875,257.41754150390625)" opacity="1"><g opacity="1" transform="matrix(1,0,0,1,0,0)"><path fill="url(#__lottie_element_14090)" fill-opacity="1" d=" M146.1750030517578,-40.13199996948242 C146.1750030517578,-40.13199996948242 133.62399291992188,30.42799949645996 34.32899856567383,43.57500076293945 C-72.27899932861328,57.691001892089844 -62.42599868774414,117.14199829101562 -47.77899932861328,118.38300323486328 C-17.781999588012695,120.92500305175781 54.667999267578125,117.11000061035156 106.81700134277344,68.08100128173828 C149.85800170898438,27.614999771118164 146.1750030517578,-40.13199996948242 146.1750030517578,-40.13199996948242z"></path></g></g><g style="display: block;" transform="matrix(0.9887999892234802,0,0,0.9887999892234802,232.2789306640625,245.59674072265625)" opacity="0.99"><g opacity="1" transform="matrix(1,0,0,1,0,0)"><path fill="rgb(244,0,128)" fill-opacity="1" d=" M77.3489990234375,-5.420000076293945 C75.61199951171875,-31.66900062561035 53.720001220703125,-66.55699920654297 9.935999870300293,-65.55999755859375 C-27.570999145507812,-64.70600128173828 -50.882999420166016,-32.64099884033203 -56.79600143432617,-23.465999603271484 C-57.48099899291992,-22.402999877929688 -59.095001220703125,-22.402999877929688 -59.779998779296875,-23.465999603271484 C-65.69300079345703,-32.64099884033203 -89.00499725341797,-64.70600128173828 -126.51200103759766,-65.55999755859375 C-170.29600524902344,-66.55699920654297 -192.18800354003906,-31.66900062561035 -193.9250030517578,-5.420000076293945 C-195.66299438476562,20.82900047302246 -189.05999755859375,50.4010009765625 -152.2259979248047,96.25399780273438 C-123.83100128173828,131.6009979248047 -83.38999938964844,170.6999969482422 -66.3499984741211,186.76100158691406 C-61.875999450683594,190.97799682617188 -54.70000076293945,190.97799682617188 -50.22600173950195,186.76100158691406 C-33.18600082397461,170.6999969482422 7.255000114440918,131.6009979248047 35.650001525878906,96.25399780273438 C72.48400115966797,50.4010009765625 79.08599853515625,20.82900047302246 77.3489990234375,-5.420000076293945z"></path></g><g opacity="1" transform="matrix(1,0,0,1,0,0)"><path fill="rgb(253,36,155)" fill-opacity="1" d=" M77.3489990234375,-5.420000076293945 C75.61199951171875,-31.66900062561035 53.720001220703125,-66.55699920654297 9.935999870300293,-65.55999755859375 C-33.847999572753906,-64.56300354003906 -58.28799819946289,-21.035999298095703 -58.28799819946289,-21.035999298095703 C-58.28799819946289,-21.035999298095703 -82.72799682617188,-64.56300354003906 -126.51200103759766,-65.55999755859375 C-170.29600524902344,-66.55699920654297 -192.18800354003906,-31.66900062561035 -193.9250030517578,-5.420000076293945 C-195.66299438476562,20.82900047302246 -189.05999755859375,50.4010009765625 -152.2259979248047,96.25399780273438 C-134.11199951171875,118.8030014038086 -111.09600067138672,142.8780059814453 -92.37999725341797,161.5260009765625 C-73.77899932861328,180.0590057373047 -42.79600143432617,180.0590057373047 -24.19499969482422,161.5260009765625 C-5.479000091552734,142.8780059814453 17.535999298095703,118.8030014038086 35.650001525878906,96.25399780273438 C72.48400115966797,50.4010009765625 79.08599853515625,20.82900047302246 77.3489990234375,-5.420000076293945z"></path></g><g opacity="1" transform="matrix(1,0,0,1,0,0)"><path fill="rgb(252,60,175)" fill-opacity="1" d=" M64.77100372314453,1.2230000495910645 C63.19499969482422,-20.51300048828125 46.10499954223633,-51.821998596191406 6.38100004196167,-50.99700164794922 C-33.34299850463867,-50.172000885009766 -58.28799819946289,-3.243000030517578 -58.28799819946289,-3.243000030517578 C-58.28799819946289,-3.243000030517578 -83.23300170898438,-50.172000885009766 -122.95700073242188,-50.99700164794922 C-162.68099975585938,-51.821998596191406 -179.77099609375,-20.51300048828125 -181.3470001220703,1.2230000495910645 C-182.92300415039062,22.958999633789062 -176.93299865722656,50.470001220703125 -143.51499938964844,88.44000244140625 C-133.6540069580078,99.64399719238281 -122.19200134277344,111.6989974975586 -110.93199920654297,123.12699890136719 C-82.36699676513672,152.1199951171875 -34.20899963378906,152.1199951171875 -5.644000053405762,123.12699890136719 C5.616000175476074,111.6989974975586 17.077999114990234,99.64399719238281 26.93899917602539,88.44000244140625 C60.356998443603516,50.470001220703125 66.34700012207031,22.958999633789062 64.77100372314453,1.2230000495910645z"></path></g><g opacity="1" transform="matrix(1,0,0,1,0,0)"><g opacity="1" transform="matrix(1,0,0,1,0,0)"><path fill="rgb(250,75,180)" fill-opacity="1" d=" M-58.297000885009766,-3.249000072479248 C-69.63899993896484,-13.835000038146973 -114.38600158691406,-27.30900001525879 -144.95399475097656,-6.150000095367432 C-181.29400634765625,19.0049991607666 -166.4720001220703,57.051998138427734 -165.91299438476562,58.323001861572266 C-170.58900451660156,50.50699996948242 -173.99000549316406,43.22700119018555 -176.41000366210938,36.409000396728516 C-176.2310028076172,22.32900047302246 -171.1300048828125,4.080999851226807 -150.4459991455078,-10.237000465393066 C-121.06600189208984,-30.573999404907227 -79.37000274658203,-20.82200050354004 -62.71500015258789,-10.444999694824219 C-59.90800094604492,-6.247000217437744 -58.38999938964844,-3.424999952316284 -58.297000885009766,-3.249000072479248z"></path></g><g opacity="1" transform="matrix(1,0,0,1,0,0)"><path fill="rgb(253,84,185)" fill-opacity="1" d=" M-62.71500015258789,-10.444999694824219 C-79.37000274658203,-20.82200050354004 -121.06300354003906,-30.569000244140625 -150.4459991455078,-10.237000465393066 C-171.13299560546875,4.077000141143799 -176.2310028076172,22.32900047302246 -176.41000366210938,36.409000396728516 C-177.48399353027344,33.39099884033203 -178.35800170898438,30.464000701904297 -179.05999755859375,27.621999740600586 C-177.13400268554688,14.70300006866455 -170.46099853515625,-0.07999999821186066 -153.0240020751953,-12.152999877929688 C-123.9520034790039,-32.28200149536133 -83.15899658203125,-23.75 -64.87100219726562,-13.567999839782715 C-64.08300018310547,-12.465999603271484 -63.36600112915039,-11.416000366210938 -62.71500015258789,-10.444999694824219z"></path></g><g opacity="1" transform="matrix(1,0,0,1,0,0)"><path fill="rgb(253,99,190)" fill-opacity="1" d=" M-64.87100219726562,-13.567999839782715 C-83.15899658203125,-23.75 -123.94300079345703,-32.26900100708008 -153.0240020751953,-12.152999877929688 C-170.4669952392578,-0.08799999952316284 -177.13400268554688,14.70300006866455 -179.05999755859375,27.621999740600586 C-180.07000732421875,23.573999404907227 -180.74200439453125,19.695999145507812 -181.12899780273438,15.973999977111816 C-177.4770050048828,5.447000026702881 -170.19000244140625,-5.491000175476074 -156.66099548339844,-14.857999801635742 C-127.9469985961914,-34.73899841308594 -88.21399688720703,-27.69300079345703 -68.06400299072266,-17.85700035095215 C-66.89700317382812,-16.357999801635742 -65.83799743652344,-14.916999816894531 -64.87100219726562,-13.567999839782715z"></path></g><g opacity="1" transform="matrix(1,0,0,1,0,0)"><path fill="rgb(250,114,194)" fill-opacity="1" d=" M-68.06400299072266,-17.85700035095215 C-88.21399688720703,-27.69300079345703 -127.93699645996094,-34.7239990234375 -156.66099548339844,-14.857999801635742 C-170.19400024414062,-5.498000144958496 -177.4770050048828,5.447000026702881 -181.12899780273438,15.973999977111816 C-181.5229949951172,12.232000350952148 -181.63699340820312,8.647000312805176 -181.53700256347656,5.204999923706055 C-177.13999938964844,-2.7149999141693115 -170.3939971923828,-10.560999870300293 -160.28500366210938,-17.55699920654297 C-131.9080047607422,-37.196998596191406 -93.16200256347656,-31.48699951171875 -71.5009994506836,-22.08099937438965 C-70.26899719238281,-20.639999389648438 -69.1240005493164,-19.22599983215332 -68.06400299072266,-17.85700035095215z"></path></g><g opacity="1" transform="matrix(1,0,0,1,0,0)"><path fill="rgb(253,124,200)" fill-opacity="1" d=" M-71.5009994506836,-22.08099937438965 C-93.16200256347656,-31.48699951171875 -131.9029998779297,-37.189998626708984 -160.28500366210938,-17.55699920654297 C-170.39599609375,-10.562999725341797 -177.13999938964844,-2.7149999141693115 -181.53700256347656,5.204999923706055 C-181.50799560546875,3.8559999465942383 -181.43699645996094,2.5269999504089355 -181.343994140625,1.2230000495910645 C-181.19400024414062,-0.8759999871253967 -180.89300537109375,-3.066999912261963 -180.44900512695312,-5.309000015258789 C-176.28199768066406,-10.562999725341797 -170.9320068359375,-15.666000366210938 -164.1009979248047,-20.392000198364258 C-136.10299682617188,-39.76499938964844 -98.39700317382812,-35.3650016784668 -75.44000244140625,-26.493999481201172 C-74.04399871826172,-25.013999938964844 -72.73300170898438,-23.53499984741211 -71.5009994506836,-22.08099937438965z"></path></g><g opacity="1" transform="matrix(1,0,0,1,0,0)"><path fill="rgb(251,138,204)" fill-opacity="1" d=" M-75.44000244140625,-26.493999481201172 C-98.39700317382812,-35.3650016784668 -136.1020050048828,-39.762001037597656 -164.1009979248047,-20.392000198364258 C-170.9320068359375,-15.666000366210938 -176.28199768066406,-10.562999725341797 -180.44900512695312,-5.309000015258789 C-179.83999633789062,-8.359999656677246 -178.94500732421875,-11.515000343322754 -177.75599670410156,-14.663000106811523 C-174.77000427246094,-17.51799964904785 -171.3820037841797,-20.285999298095703 -167.53799438476562,-22.94700050354004 C-139.97000122070312,-42.0260009765625 -103.27300262451172,-38.77399826049805 -79.37799835205078,-30.482999801635742 C-78.00299835205078,-29.15999984741211 -76.69300079345703,-27.823999404907227 -75.44000244140625,-26.493999481201172z"></path></g><g opacity="1" transform="matrix(1,0,0,1,0,0)"><path fill="rgb(255,148,212)" fill-opacity="1" d=" M-79.37799835205078,-30.482999801635742 C-103.27300262451172,-38.77399826049805 -139.96400451660156,-42.018001556396484 -167.53799438476562,-22.94700050354004 C-171.38299560546875,-20.288000106811523 -174.77000427246094,-17.51799964904785 -177.75599670410156,-14.663000106811523 C-176.4239959716797,-18.18899917602539 -174.72000122070312,-21.722000122070312 -172.6219940185547,-25.118000030517578 C-172.2570037841797,-25.378999710083008 -171.88600158691406,-25.641000747680664 -171.51199340820312,-25.899999618530273 C-144.60299682617188,-44.52899932861328 -109.29499816894531,-42.612998962402344 -84.59100341796875,-35.150001525878906 C-82.76499938964844,-33.63800048828125 -81.0250015258789,-32.06700134277344 -79.37799835205078,-30.482999801635742z"></path></g><g opacity="1" transform="matrix(1,0,0,1,0,0)"><path fill="rgb(255,161,216)" fill-opacity="1" d=" M-84.59100341796875,-35.150001525878906 C-109.29499816894531,-42.612998962402344 -144.60299682617188,-44.52899932861328 -171.51199340820312,-25.899999618530273 C-171.88400268554688,-25.638999938964844 -172.2570037841797,-25.378999710083008 -172.6219940185547,-25.118000030517578 C-170.9459991455078,-27.822999954223633 -169.0279998779297,-30.451000213623047 -166.83700561523438,-32.92100143432617 C-141.95399475097656,-46.12699890136719 -112.04399871826172,-44.875 -89.3740005493164,-38.85200119018555 C-87.72000122070312,-37.66600036621094 -86.12300109863281,-36.428001403808594 -84.59100341796875,-35.150001525878906z"></path></g><g opacity="1" transform="matrix(1,0,0,1,0,0)"><path fill="rgb(255,173,222)" fill-opacity="1" d=" M-89.3740005493164,-38.85200119018555 C-112.04399871826172,-44.875 -141.95399475097656,-46.12699890136719 -166.83700561523438,-32.92100143432617 C-164.94700622558594,-35.058998107910156 -162.86199951171875,-37.07899856567383 -160.5709991455078,-38.94300079345703 C-138.61700439453125,-47.520999908447266 -114.0780029296875,-46.6609992980957 -94.1500015258789,-42.03300094604492 C-92.51000213623047,-41.02899932861328 -90.91400146484375,-39.959999084472656 -89.3740005493164,-38.85200119018555z"></path></g><g opacity="1" transform="matrix(1,0,0,1,0,0)"><path fill="rgb(255,188,227)" fill-opacity="1" d=" M-94.1500015258789,-42.03300094604492 C-114.0780029296875,-46.6609992980957 -138.61700439453125,-47.520999908447266 -160.5709991455078,-38.94300079345703 C-158.25799560546875,-40.82699966430664 -155.7449951171875,-42.54800033569336 -153.00999450683594,-44.06700134277344 C-135.0590057373047,-48.87099838256836 -116.11900329589844,-48.290000915527344 -99.70700073242188,-45.10300064086914 C-97.79499816894531,-44.16400146484375 -95.9469985961914,-43.1349983215332 -94.1500015258789,-42.03300094604492z"></path></g><g opacity="1" transform="matrix(1,0,0,1,0,0)"><path fill="rgb(255,202,232)" fill-opacity="1" d=" M-99.70700073242188,-45.10300064086914 C-116.11900329589844,-48.290000915527344 -135.0590057373047,-48.87099838256836 -153.00999450683594,-44.06700134277344 C-150.1820068359375,-45.63800048828125 -147.12399291992188,-46.98699951171875 -143.822998046875,-48.07600021362305 C-131.0489959716797,-50.04499816894531 -118.13099670410156,-49.66699981689453 -106.24400329589844,-47.874000549316406 C-103.99600219726562,-47.071998596191406 -101.81900024414062,-46.145999908447266 -99.70700073242188,-45.10300064086914z"></path></g><g opacity="1" transform="matrix(1,0,0,1,0,0)"><path fill="rgb(255,211,240)" fill-opacity="1" d=" M-106.24400329589844,-47.874000549316406 C-118.13099670410156,-49.66699981689453 -131.0489959716797,-50.04499816894531 -143.822998046875,-48.07600021362305 C-137.70799255371094,-50.07699966430664 -130.7689971923828,-51.15999984741211 -122.95700073242188,-50.99599838256836 C-117.04199981689453,-50.87200164794922 -111.46399688720703,-49.731998443603516 -106.24400329589844,-47.874000549316406z"></path></g><g opacity="0.5" transform="matrix(1,0,0,1,0,0)"><path fill="rgb(252,60,175)" fill-opacity="1" d=" M-58.297000885009766,-3.249000072479248 C-69.63899993896484,-13.835000038146973 -114.38600158691406,-27.30900001525879 -144.95399475097656,-6.150000095367432 C-181.29400634765625,19.0049991607666 -166.4720001220703,57.051998138427734 -165.91299438476562,58.323001861572266 C-168.2899932861328,54.35300064086914 -170.33799743652344,50.52000045776367 -172.0850067138672,46.81800079345703 C-174.12600708007812,32.959999084472656 -172.87899780273438,9.390999794006348 -147.58900451660156,-8.112000465393066 C-117.7229995727539,-28.781999588012695 -74.73100280761719,-17.374000549316406 -60.38800048828125,-6.834000110626221 C-59.06999969482422,-4.696000099182129 -58.361000061035156,-3.365999937057495 -58.297000885009766,-3.249000072479248z"></path></g></g><g opacity="1" transform="matrix(1,0,0,1,0,0)"><g opacity="1" transform="matrix(1,0,0,1,0,0)"><path fill="rgb(250,75,180)" fill-opacity="1" d=" M-58.297000885009766,-3.249000072479248 C-46.95500183105469,-13.835000038146973 -2.2090001106262207,-27.30900001525879 28.358999252319336,-6.150000095367432 C64.6989974975586,19.0049991607666 49.87699890136719,57.051998138427734 49.31800079345703,58.323001861572266 C53.99399948120117,50.50699996948242 57.39500045776367,43.22700119018555 59.814998626708984,36.409000396728516 C59.63600158691406,22.32900047302246 54.53499984741211,4.080999851226807 33.85100173950195,-10.237000465393066 C4.4710001945495605,-30.573999404907227 -37.2239990234375,-20.82200050354004 -53.87900161743164,-10.444999694824219 C-56.68600082397461,-6.247000217437744 -58.20399856567383,-3.424999952316284 -58.297000885009766,-3.249000072479248z"></path></g><g opacity="1" transform="matrix(1,0,0,1,0,0)"><path fill="rgb(253,84,185)" fill-opacity="1" d=" M-53.87900161743164,-10.444999694824219 C-37.2239990234375,-20.82200050354004 4.4679999351501465,-30.569000244140625 33.85100173950195,-10.237000465393066 C54.53799819946289,4.077000141143799 59.63600158691406,22.32900047302246 59.814998626708984,36.409000396728516 C60.888999938964844,33.39099884033203 61.76300048828125,30.464000701904297 62.46500015258789,27.621999740600586 C60.53900146484375,14.70300006866455 53.86600112915039,-0.07999999821186066 36.42900085449219,-12.152999877929688 C7.35699987411499,-32.28200149536133 -33.43600082397461,-23.75 -51.7239990234375,-13.567999839782715 C-52.512001037597656,-12.465999603271484 -53.22700119018555,-11.416000366210938 -53.87900161743164,-10.444999694824219z"></path></g><g opacity="1" transform="matrix(1,0,0,1,0,0)"><path fill="rgb(253,99,190)" fill-opacity="1" d=" M-51.7239990234375,-13.567999839782715 C-33.43600082397461,-23.75 7.3480000495910645,-32.26900100708008 36.42900085449219,-12.152999877929688 C53.87200164794922,-0.08799999952316284 60.53900146484375,14.70300006866455 62.46500015258789,27.621999740600586 C63.474998474121094,23.573999404907227 64.14700317382812,19.695999145507812 64.53399658203125,15.973999977111816 C60.88199996948242,5.447000026702881 53.59600067138672,-5.491000175476074 40.06700134277344,-14.857999801635742 C11.352999687194824,-34.73899841308594 -28.3799991607666,-27.69300079345703 -48.529998779296875,-17.85700035095215 C-49.696998596191406,-16.357999801635742 -50.75699996948242,-14.916999816894531 -51.7239990234375,-13.567999839782715z"></path></g><g opacity="1" transform="matrix(1,0,0,1,0,0)"><path fill="rgb(250,114,194)" fill-opacity="1" d=" M-48.529998779296875,-17.85700035095215 C-28.3799991607666,-27.69300079345703 11.343000411987305,-34.7239990234375 40.06700134277344,-14.857999801635742 C53.599998474121094,-5.498000144958496 60.88199996948242,5.447000026702881 64.53399658203125,15.973999977111816 C64.9280014038086,12.232000350952148 65.04199981689453,8.647000312805176 64.94200134277344,5.204999923706055 C60.54499816894531,-2.7149999141693115 53.79899978637695,-10.5600004196167 43.689998626708984,-17.55699920654297 C15.312999725341797,-37.196998596191406 -23.43199920654297,-31.48699951171875 -45.09299850463867,-22.08099937438965 C-46.32500076293945,-20.639999389648438 -47.470001220703125,-19.22599983215332 -48.529998779296875,-17.85700035095215z"></path></g><g opacity="1" transform="matrix(1,0,0,1,0,0)"><path fill="rgb(253,124,200)" fill-opacity="1" d=" M-45.09299850463867,-22.08099937438965 C-23.43199920654297,-31.48699951171875 15.307999610900879,-37.189998626708984 43.689998626708984,-17.55699920654297 C53.80099868774414,-10.562999725341797 60.54499816894531,-2.7149999141693115 64.94200134277344,5.204999923706055 C64.91300201416016,3.8559999465942383 64.84200286865234,2.5269999504089355 64.7490005493164,1.2230000495910645 C64.5989990234375,-0.8759999871253967 64.2979965209961,-3.066999912261963 63.854000091552734,-5.309000015258789 C59.6870002746582,-10.562999725341797 54.33700180053711,-15.666000366210938 47.50600051879883,-20.392000198364258 C19.507999420166016,-39.76499938964844 -18.197999954223633,-35.3650016784668 -41.154998779296875,-26.493999481201172 C-42.55099868774414,-25.013999938964844 -43.861000061035156,-23.53499984741211 -45.09299850463867,-22.08099937438965z"></path></g><g opacity="1" transform="matrix(1,0,0,1,0,0)"><path fill="rgb(251,138,204)" fill-opacity="1" d=" M-41.154998779296875,-26.493999481201172 C-18.197999954223633,-35.3650016784668 19.506000518798828,-39.762001037597656 47.50600051879883,-20.392000198364258 C54.33700180053711,-15.666000366210938 59.6870002746582,-10.562999725341797 63.854000091552734,-5.309000015258789 C63.244998931884766,-8.359999656677246 62.35100173950195,-11.515000343322754 61.1619987487793,-14.663000106811523 C58.17599868774414,-17.51799964904785 54.78799819946289,-20.285999298095703 50.944000244140625,-22.94700050354004 C23.375999450683594,-42.0260009765625 -13.321999549865723,-38.77399826049805 -37.21699905395508,-30.482999801635742 C-38.59199905395508,-29.15999984741211 -39.902000427246094,-27.823999404907227 -41.154998779296875,-26.493999481201172z"></path></g><g opacity="1" transform="matrix(1,0,0,1,0,0)"><path fill="rgb(255,148,212)" fill-opacity="1" d=" M-37.21699905395508,-30.482999801635742 C-13.321999549865723,-38.77399826049805 23.3700008392334,-42.018001556396484 50.944000244140625,-22.94700050354004 C54.78900146484375,-20.288000106811523 58.17599868774414,-17.51799964904785 61.1619987487793,-14.663000106811523 C59.83000183105469,-18.18899917602539 58.125,-21.722000122070312 56.027000427246094,-25.118000030517578 C55.6619987487793,-25.378999710083008 55.29199981689453,-25.641000747680664 54.917999267578125,-25.899999618530273 C28.009000778198242,-44.52899932861328 -7.300000190734863,-42.612998962402344 -32.00400161743164,-35.150001525878906 C-33.83000183105469,-33.63800048828125 -35.56999969482422,-32.06700134277344 -37.21699905395508,-30.482999801635742z"></path></g><g opacity="1" transform="matrix(1,0,0,1,0,0)"><path fill="rgb(255,161,216)" fill-opacity="1" d=" M-32.00400161743164,-35.150001525878906 C-7.300000190734863,-42.612998962402344 28.009000778198242,-44.52899932861328 54.917999267578125,-25.899999618530273 C55.290000915527344,-25.638999938964844 55.6619987487793,-25.378999710083008 56.027000427246094,-25.118000030517578 C54.35200119018555,-27.822999954223633 52.43299865722656,-30.451000213623047 50.242000579833984,-32.92100143432617 C25.358999252319336,-46.12699890136719 -4.551000118255615,-44.875 -27.22100067138672,-38.85200119018555 C-28.875,-37.66600036621094 -30.472000122070312,-36.428001403808594 -32.00400161743164,-35.150001525878906z"></path></g><g opacity="1" transform="matrix(1,0,0,1,0,0)"><path fill="rgb(255,173,222)" fill-opacity="1" d=" M-27.22100067138672,-38.85200119018555 C-4.551000118255615,-44.875 25.358999252319336,-46.12699890136719 50.242000579833984,-32.92100143432617 C48.35200119018555,-35.058998107910156 46.268001556396484,-37.07899856567383 43.97600173950195,-38.94300079345703 C22.02199935913086,-47.520999908447266 -2.5169999599456787,-46.6609992980957 -22.44499969482422,-42.03300094604492 C-24.084999084472656,-41.02899932861328 -25.680999755859375,-39.959999084472656 -27.22100067138672,-38.85200119018555z"></path></g><g opacity="1" transform="matrix(1,0,0,1,0,0)"><path fill="rgb(255,188,227)" fill-opacity="1" d=" M-22.44499969482422,-42.03300094604492 C-2.5169999599456787,-46.6609992980957 22.02199935913086,-47.520999908447266 43.97600173950195,-38.94300079345703 C41.66299819946289,-40.82699966430664 39.150001525878906,-42.54800033569336 36.415000915527344,-44.06700134277344 C18.464000701904297,-48.87099838256836 -0.47600001096725464,-48.290000915527344 -16.88800048828125,-45.10300064086914 C-18.799999237060547,-44.16400146484375 -20.648000717163086,-43.1349983215332 -22.44499969482422,-42.03300094604492z"></path></g><g opacity="1" transform="matrix(1,0,0,1,0,0)"><path fill="rgb(255,202,232)" fill-opacity="1" d=" M-16.88800048828125,-45.10300064086914 C-0.47600001096725464,-48.290000915527344 18.464000701904297,-48.87099838256836 36.415000915527344,-44.06700134277344 C33.58700180053711,-45.63800048828125 30.52899932861328,-46.98699951171875 27.22800064086914,-48.07600021362305 C14.454000473022461,-50.04499816894531 1.5360000133514404,-49.66699981689453 -10.35099983215332,-47.874000549316406 C-12.598999977111816,-47.071998596191406 -14.776000022888184,-46.145999908447266 -16.88800048828125,-45.10300064086914z"></path></g><g opacity="1" transform="matrix(1,0,0,1,0,0)"><path fill="rgb(255,211,240)" fill-opacity="1" d=" M-10.35099983215332,-47.874000549316406 C1.5360000133514404,-49.66699981689453 14.454000473022461,-50.04499816894531 27.22800064086914,-48.07600021362305 C21.113000869750977,-50.07699966430664 14.173999786376953,-51.15999984741211 6.361999988555908,-50.99599838256836 C0.44699999690055847,-50.87200164794922 -5.13100004196167,-49.731998443603516 -10.35099983215332,-47.874000549316406z"></path></g><g opacity="0.5" transform="matrix(1,0,0,1,0,0)"><path fill="rgb(252,60,175)" fill-opacity="1" d=" M-58.297000885009766,-3.249000072479248 C-46.95500183105469,-13.835000038146973 -2.2090001106262207,-27.30900001525879 28.358999252319336,-6.150000095367432 C64.6989974975586,19.0049991607666 49.87699890136719,57.051998138427734 49.31800079345703,58.323001861572266 C51.69499969482422,54.35300064086914 53.74300003051758,50.52000045776367 55.4900016784668,46.81800079345703 C57.53099822998047,32.959999084472656 56.284000396728516,9.390999794006348 30.993999481201172,-8.112000465393066 C1.128000020980835,-28.781999588012695 -41.86399841308594,-17.374000549316406 -56.207000732421875,-6.834000110626221 C-57.525001525878906,-4.696000099182129 -58.233001708984375,-3.365999937057495 -58.297000885009766,-3.249000072479248z"></path></g></g><g opacity="1" transform="matrix(1,0,0,1,0,0)"><path fill="rgb(255,255,255)" fill-opacity="1" d=" M2.8970000743865967,-49.117000579833984 C4.521999835968018,-49.08700180053711 5.815999984741211,-47.74599838256836 5.785999774932861,-46.12099838256836 C5.75600004196167,-44.49599838256836 4.414999961853027,-43.20199966430664 2.7899999618530273,-43.231998443603516 C1.1649999618530273,-43.262001037597656 -0.1289999932050705,-44.60300064086914 -0.0989999994635582,-46.22800064086914 C-0.0689999982714653,-47.85300064086914 1.2719999551773071,-49.14699935913086 2.8970000743865967,-49.117000579833984z"></path></g><g opacity="1" transform="matrix(1,0,0,1,0,0)"><path stroke-linecap="round" stroke-linejoin="round" fill-opacity="0" stroke="rgb(255,255,255)" stroke-opacity="1" stroke-width="6" d=" M-12.805999755859375,-42.00299835205078 C-12.805999755859375,-42.00299835205078 -10.385000228881836,-43.358001708984375 -5.828999996185303,-44.46699905395508"></path></g><g opacity="1" transform="matrix(1,0,0,1,0,0)"><path stroke-linecap="round" stroke-linejoin="round" fill-opacity="0" stroke="rgb(197,0,107)" stroke-opacity="1" stroke-width="8" d=" M77.3489990234375,-5.420000076293945 C75.61199951171875,-31.66900062561035 53.720001220703125,-66.55699920654297 9.935999870300293,-65.55999755859375 C-27.570999145507812,-64.70600128173828 -50.882999420166016,-32.64099884033203 -56.79600143432617,-23.465999603271484 C-57.48099899291992,-22.402999877929688 -59.095001220703125,-22.402999877929688 -59.779998779296875,-23.465999603271484 C-65.69300079345703,-32.64099884033203 -89.00499725341797,-64.70600128173828 -126.51200103759766,-65.55999755859375 C-170.29600524902344,-66.55699920654297 -192.18800354003906,-31.66900062561035 -193.9250030517578,-5.420000076293945 C-195.66299438476562,20.82900047302246 -189.05999755859375,50.4010009765625 -152.2259979248047,96.25399780273438 C-123.83100128173828,131.6009979248047 -83.38999938964844,170.6999969482422 -66.3499984741211,186.76100158691406 C-61.875999450683594,190.97799682617188 -54.70000076293945,190.97799682617188 -50.22600173950195,186.76100158691406 C-33.18600082397461,170.6999969482422 7.255000114440918,131.6009979248047 35.650001525878906,96.25399780273438 C72.48400115966797,50.4010009765625 79.08599853515625,20.82900047302246 77.3489990234375,-5.420000076293945z"></path></g></g><g style="display: none;"><g><path fill="url(#__lottie_element_14083)"></path></g></g><g style="display: none;"><g><path></path></g><g><path></path></g><g><path></path></g><g><g><path></path></g><g><path></path></g><g><path></path></g><g><path></path></g><g><path></path></g><g><path></path></g><g><path></path></g><g><path></path></g><g><path></path></g><g><path></path></g><g><path></path></g><g><path></path></g><g><path></path></g></g><g><g><path></path></g><g><path></path></g><g><path></path></g><g><path></path></g><g><path></path></g><g><path></path></g><g><path></path></g><g><path></path></g><g><path></path></g><g><path></path></g><g><path></path></g><g><path></path></g><g><path></path></g></g><g><path></path></g><g><path stroke-linecap="round" stroke-linejoin="round" fill-opacity="0"></path></g><g><path stroke-linecap="round" stroke-linejoin="round" fill-opacity="0"></path></g><g><path></path></g></g><g style="display: none;"><g><path fill="url(#__lottie_element_14076)"></path></g></g><g style="display: none;"><g><path></path></g><g><path></path></g><g><path></path></g><g><g><path></path></g><g><path></path></g><g><path></path></g><g><path></path></g><g><path></path></g><g><path></path></g><g><path></path></g><g><path></path></g><g><path></path></g><g><path></path></g><g><path></path></g><g><path></path></g><g><path></path></g></g><g><g><path></path></g><g><path></path></g><g><path></path></g><g><path></path></g><g><path></path></g><g><path></path></g><g><path></path></g><g><path></path></g><g><path></path></g><g><path></path></g><g><path></path></g><g><path></path></g><g><path></path></g></g><g><path></path></g><g><path stroke-linecap="round" stroke-linejoin="round" fill-opacity="0"></path></g><g><path stroke-linecap="round" stroke-linejoin="round" fill-opacity="0"></path></g></g><g style="display: none;"><g><path fill="url(#__lottie_element_14069)"></path></g></g><g style="display: none;"><g><path></path></g><g><path></path></g><g><path></path></g><g><g><path></path></g><g><path></path></g><g><path></path></g><g><path></path></g><g><path></path></g><g><path></path></g><g><path></path></g><g><path></path></g><g><path></path></g><g><path></path></g><g><path></path></g><g><path></path></g><g><path></path></g></g><g><g><path></path></g><g><path></path></g><g><path></path></g><g><path></path></g><g><path></path></g><g><path></path></g><g><path></path></g><g><path></path></g><g><path></path></g><g><path></path></g><g><path></path></g><g><path></path></g><g><path></path></g></g><g><path></path></g><g><path stroke-linecap="round" stroke-linejoin="round" fill-opacity="0"></path></g><g><path stroke-linecap="round" stroke-linejoin="round" fill-opacity="0"></path></g><g><path></path></g></g><g style="display: none;"><g><path fill="url(#__lottie_element_14062)"></path></g></g><g style="display: none;"><g><path></path></g><g><path></path></g><g><path></path></g><g><g><path></path></g><g><path></path></g><g><path></path></g><g><path></path></g><g><path></path></g><g><path></path></g><g><path></path></g><g><path></path></g><g><path></path></g><g><path></path></g><g><path></path></g><g><path></path></g><g><path></path></g></g><g><g><path></path></g><g><path></path></g><g><path></path></g><g><path></path></g><g><path></path></g><g><path></path></g><g><path></path></g><g><path></path></g><g><path></path></g><g><path></path></g><g><path></path></g><g><path></path></g><g><path></path></g></g><g><path></path></g><g><path stroke-linecap="round" stroke-linejoin="round" fill-opacity="0"></path></g><g><path stroke-linecap="round" stroke-linejoin="round" fill-opacity="0"></path></g></g></g></svg>