<svg xmlns="http://www.w3.org/2000/svg" viewBox="0 0 512 512" width="512" height="512" style="width: 100%; height: 100%; transform: translate3d(0,0,0);" preserveAspectRatio="xMidYMid meet"><defs><clipPath id="__lottie_element_14099"><rect width="512" height="512" x="0" y="0"></rect></clipPath><radialGradient id="__lottie_element_14123" spreadMethod="pad" gradientUnits="userSpaceOnUse" cx="-0.9229999780654907" cy="-0.6579999923706055" r="66.8699985742569" fx="-0.9229999780654907" fy="-0.6579999923706055"><stop offset="0%" stop-color="rgb(207,45,38)" stop-opacity="1"></stop><stop offset="59%" stop-color="rgb(207,45,38)" stop-opacity="0.5"></stop><stop offset="100%" stop-color="rgb(207,45,38)" stop-opacity="0"></stop></radialGradient><radialGradient id="__lottie_element_14127" spreadMethod="pad" gradientUnits="userSpaceOnUse" cx="-0.6050000190734863" cy="-0.6579999923706055" r="66.86999940872192" fx="-0.6050000190734863" fy="-0.6579999923706055"><stop offset="0%" stop-color="rgb(207,45,38)" stop-opacity="1"></stop><stop offset="59%" stop-color="rgb(207,45,38)" stop-opacity="0.5"></stop><stop offset="100%" stop-color="rgb(207,45,38)" stop-opacity="0"></stop></radialGradient></defs><g clip-path="url(#__lottie_element_14099)"><g style="display: block;" transform="matrix(0.9800000190734863,0,0,0.9800000190734863,38.73987579345703,46.35152053833008)" opacity="1"><g opacity="1" transform="matrix(1,0,0,1,0,0)"><g opacity="0.1" transform="matrix(1,0,0,1,221.59300231933594,237.6020050048828)"><path fill="rgb(0,0,0)" fill-opacity="1" d=" M209.2220001220703,0 C209.2220001220703,115.5510025024414 115.55000305175781,209.22300720214844 -0.0010000000474974513,209.22300720214844 C-115.55000305175781,209.22300720214844 -209.2220001220703,115.5510025024414 -209.2220001220703,0 C-209.2220001220703,-115.55000305175781 -115.55000305175781,-209.2220001220703 -0.0010000000474974513,-209.2220001220703 C115.55000305175781,-209.2220001220703 209.2220001220703,-115.55000305175781 209.2220001220703,0z"></path></g><g opacity="1" transform="matrix(1,0,0,1,221.5919952392578,221.5919952392578)"><path fill="rgb(255,176,57)" fill-opacity="1" d=" M201.5919952392578,0 C201.5919952392578,111.33599853515625 111.33599853515625,201.5919952392578 0,201.5919952392578 C-111.33599853515625,201.5919952392578 -201.5919952392578,111.33599853515625 -201.5919952392578,0 C-201.5919952392578,-111.33599853515625 -111.33599853515625,-201.5919952392578 0,-201.5919952392578 C111.33599853515625,-201.5919952392578 201.5919952392578,-111.33599853515625 201.5919952392578,0z"></path></g><g opacity="1" transform="matrix(1,0,0,1,221.5919952392578,221.5919952392578)"><path stroke-linecap="butt" stroke-linejoin="miter" fill-opacity="0" stroke-miterlimit="10" stroke="rgb(247,125,65)" stroke-opacity="1" stroke-width="8" d=" M201.5919952392578,0 C201.5919952392578,111.33599853515625 111.33599853515625,201.5919952392578 0,201.5919952392578 C-111.33599853515625,201.5919952392578 -201.5919952392578,111.33599853515625 -201.5919952392578,0 C-201.5919952392578,-111.33599853515625 -111.33599853515625,-201.5919952392578 0,-201.5919952392578 C111.33599853515625,-201.5919952392578 201.5919952392578,-111.33599853515625 201.5919952392578,0z"></path></g><g opacity="1" transform="matrix(1,0,0,1,221.65199279785156,219.5989990234375)"><path fill="rgb(255,209,64)" fill-opacity="1" d=" M179.68600463867188,2.753999948501587 C178.13099670410156,104.18099975585938 96.4229965209961,185.1699981689453 -2.813999891281128,183.6490020751953 C-102.052001953125,182.1269989013672 -181.24099731445312,98.6719970703125 -179.68600463867188,-2.753999948501587 C-178.13099670410156,-104.18099975585938 -96.4229965209961,-185.1699981689453 2.813999891281128,-183.6479949951172 C102.052001953125,-182.1280059814453 181.24099731445312,-98.6719970703125 179.68600463867188,2.753999948501587z"></path></g><g opacity="1" transform="matrix(1,0,0,1,221.59300231933594,125.72699737548828)"><path fill="rgb(255,223,121)" fill-opacity="1" d=" M159.31700134277344,50.58000183105469 C159.31700134277344,128.11399841308594 87.98799896240234,66.78099822998047 0,66.78099822998047 C-87.98899841308594,66.78099822998047 -159.31700134277344,128.11399841308594 -159.31700134277344,50.58000183105469 C-159.31700134277344,-26.95400047302246 -87.98899841308594,-89.80799865722656 0,-89.80799865722656 C87.98799896240234,-89.80799865722656 159.31700134277344,-26.95400047302246 159.31700134277344,50.58000183105469z"></path></g><g opacity="1" transform="matrix(1,0,0,1,262.9630126953125,41.01599884033203)"><path stroke-linecap="round" stroke-linejoin="round" fill-opacity="0" stroke="rgb(255,255,255)" stroke-opacity="1" stroke-width="6" d=" M-2.549999952316284,-0.5929999947547913 C-0.9079999923706055,-0.23600000143051147 0.7950000166893005,0.1589999943971634 2.549999952316284,0.5929999947547913"></path></g><g opacity="1" transform="matrix(1,0,0,1,244.33999633789062,37.80699920654297)"><path stroke-linecap="round" stroke-linejoin="round" fill-opacity="0" stroke="rgb(255,255,255)" stroke-opacity="1" stroke-width="6" d=" M-6.718999862670898,-0.8209999799728394 C-6.718999862670898,-0.8209999799728394 -1.5240000486373901,-0.5440000295639038 6.718999862670898,0.8209999799728394"></path></g></g></g><g style="display: block;" transform="matrix(0.9800000190734863,0,0,0.9800000190734863,384.2437744140625,297.7616882324219)" opacity="0.5"><g opacity="1" transform="matrix(1,0,0,1,0,0)"><path fill="url(#__lottie_element_14127)" fill-opacity="1" d=" M66.87000274658203,0 C66.87000274658203,36.930999755859375 36.930999755859375,66.87000274658203 0,66.87000274658203 C-36.930999755859375,66.87000274658203 -66.87000274658203,36.930999755859375 -66.87000274658203,0 C-66.87000274658203,-36.930999755859375 -36.930999755859375,-66.87000274658203 0,-66.87000274658203 C36.930999755859375,-66.87000274658203 66.87000274658203,-36.930999755859375 66.87000274658203,0z"></path></g></g><g style="display: block;" transform="matrix(0.9800000190734863,0,0,0.9800000190734863,128.77542114257812,297.7616882324219)" opacity="0.5"><g opacity="1" transform="matrix(1,0,0,1,0,0)"><path fill="url(#__lottie_element_14123)" fill-opacity="1" d=" M66.87000274658203,0 C66.87000274658203,36.930999755859375 36.930999755859375,66.87000274658203 0,66.87000274658203 C-36.930999755859375,66.87000274658203 -66.87000274658203,36.930999755859375 -66.87000274658203,0 C-66.87000274658203,-36.930999755859375 -36.930999755859375,-66.87000274658203 0,-66.87000274658203 C36.930999755859375,-66.87000274658203 66.87000274658203,-36.930999755859375 66.87000274658203,0z"></path></g></g><g style="display: block;" transform="matrix(0.9800000190734863,0,0,0.9800000190734863,155.38339233398438,317.2578125)" opacity="1"><g opacity="1" transform="matrix(1,0,0,1,102.51599884033203,28.065000534057617)"><path fill="rgb(255,176,57)" fill-opacity="1" d=" M47.58300018310547,26.281999588012695 C35.51100158691406,39.2599983215332 15.579999923706055,49.61199951171875 -0.10000000149011612,49.61199951171875 C-15.805999755859375,49.61199951171875 -35.66699981689453,39.2599983215332 -47.73899841308594,26.281999588012695 C-58.70399856567383,14.496000289916992 -59.551998138427734,3.5929999351501465 -55.987998962402344,2.2209999561309814 C-51.51300048828125,0.5009999871253967 -31.97100067138672,19.422000885009766 -0.10000000149011612,19.763999938964844 C31.770000457763672,19.422000885009766 51.3120002746582,0.5009999871253967 55.78799819946289,2.2209999561309814 C59.35200119018555,3.5929999351501465 58.547000885009766,14.496000289916992 47.58300018310547,26.281999588012695z"></path></g><g opacity="1" transform="matrix(1,0,0,1,102.54900360107422,34.54399871826172)"><path fill="rgb(255,225,166)" fill-opacity="1" d=" M44.27199935913086,30.55500030517578 C32.20000076293945,43.53200149536133 15.545999526977539,53.88399887084961 -0.1340000033378601,53.88399887084961 C-15.83899974822998,53.88399887084961 -32.46799850463867,43.53200149536133 -44.540000915527344,30.55500030517578 C-55.50400161743164,18.76799964904785 -59.584999084472656,1.3639999628067017 -56.02199935913086,-0.007000000216066837 C-51.54600143432617,-1.7280000448226929 -32.005001068115234,23.69499969482422 -0.1340000033378601,24.03700065612793 C31.73699951171875,23.69499969482422 51.27899932861328,-1.7280000448226929 55.75400161743164,-0.007000000216066837 C59.31800079345703,1.3639999628067017 55.23699951171875,18.76799964904785 44.27199935913086,30.55500030517578z"></path></g><g opacity="1" transform="matrix(1,0,0,1,102.5479965209961,31.79599952697754)"><path fill="rgb(133,62,19)" fill-opacity="1" d=" M44.27299880981445,26.906999588012695 C32.20100021362305,39.8849983215332 15.54699993133545,50.23699951171875 -0.13300000131130219,50.23699951171875 C-15.838000297546387,50.23699951171875 -32.46699905395508,39.8849983215332 -44.53900146484375,26.906999588012695 C-55.50299835205078,15.121000289916992 -59.58399963378906,4.2170000076293945 -56.020999908447266,2.8459999561309814 C-51.54499816894531,1.125 -32.00400161743164,21.113000869750977 -0.13300000131130219,21.45599937438965 C31.738000869750977,21.113000869750977 51.279998779296875,1.125 55.755001068115234,2.8459999561309814 C59.319000244140625,4.2170000076293945 55.237998962402344,15.121000289916992 44.27299880981445,26.906999588012695z"></path></g><g opacity="1" transform="matrix(1,0,0,1,102.5459976196289,23.7450008392334)"><path fill="rgb(98,36,11)" fill-opacity="1" d=" M56.0989990234375,17.475000381469727 C55.99300003051758,17.400999069213867 55.88600158691406,17.336000442504883 55.757999420166016,17.292999267578125 C51.28099822998047,15.57800006866455 31.742000579833984,35.564998626708984 -0.13099999725818634,35.90599822998047 C-32.005001068115234,35.564998626708984 -51.54399871826172,15.57800006866455 -56.020999908447266,17.292999267578125 C-56.14899826049805,17.336000442504883 -56.255001068115234,17.400999069213867 -56.36199951171875,17.475000381469727 C-57.67300033569336,13.935999870300293 -57.5880012512207,11.505000114440918 -56.020999908447266,10.89799976348877 C-51.54399871826172,9.182000160217285 -32.005001068115234,29.16900062561035 -0.13099999725818634,29.510000228881836 C31.742000579833984,29.16900062561035 51.28099822998047,9.182000160217285 55.757999420166016,10.89799976348877 C57.32500076293945,11.505000114440918 57.4109992980957,13.935999870300293 56.0989990234375,17.475000381469727z"></path></g></g><g style="display: block;" transform="matrix(-0.9016000628471375,0,0,0.9016000628471375,500.1955261230469,124.27496337890625)" opacity="1"><g opacity="1" transform="matrix(1,0,0,1,0.0260009765625,0.0070037841796875)"><g opacity="1" transform="matrix(1,0,0,1,188.8800048828125,201.77099609375)"><path fill="rgb(255,226,166)" fill-opacity="1" d=" M11.970999717712402,-59.263999938964844 C-1.9539999961853027,-59.263999938964844 -40.775001525878906,-53.90399932861328 -33.29399871826172,-36.78200149536133 C-26.308000564575195,-20.79199981689453 -12.824999809265137,-36.03900146484375 9.963000297546387,-36.66299819946289 C31.003000259399414,-37.23899841308594 47.676998138427734,-26.10700035095215 53.551998138427734,-41.80799865722656 C60.68199920654297,-60.862998962402344 25.89699935913086,-59.263999938964844 11.970999717712402,-59.263999938964844z"></path></g><g opacity="1" transform="matrix(1,0,0,1,188.8800048828125,189.71099853515625)"><path fill="rgb(255,177,57)" fill-opacity="1" d=" M11.34000015258789,-53.612998962402344 C-2.5850000381469727,-53.612998962402344 -33.44599914550781,-41.40399932861328 -31.577999114990234,-31.73200035095215 C-28.14699935913086,-13.970999717712402 -11.54800033569336,-31.92799949645996 9.708999633789062,-32.64400100708008 C31.749000549316406,-33.387001037597656 50.63399887084961,-20.805999755859375 51.82500076293945,-40.965999603271484 C52.361000061035156,-50.03200149536133 25.266000747680664,-53.612998962402344 11.34000015258789,-53.612998962402344z"></path></g><g opacity="1" transform="matrix(1,0,0,1,188.87899780273438,195.73199462890625)"><path fill="rgb(134,63,20)" fill-opacity="1" d=" M6.931000232696533,-60.409000396728516 C-6.124000072479248,-60.409000396728516 -34.742000579833984,-47.13600158691406 -32.52299880981445,-36.93199920654297 C-29.201000213623047,-21.659000396728516 -9.807999610900879,-36.46099853515625 9.503999710083008,-36.6150016784668 C30.736000061035156,-36.784000396728516 45.54800033569336,-28.5 51.53200149536133,-39.066001892089844 C60.15599822998047,-54.29499816894531 19.98699951171875,-60.409000396728516 6.931000232696533,-60.409000396728516z"></path></g><g opacity="1" transform="matrix(1,0,0,1,188.88099670410156,182.07400512695312)"><path fill="rgb(99,37,12)" fill-opacity="1" d=" M7.684000015258789,-49.7599983215332 C-5.9120001792907715,-48.417999267578125 -24.746999740600586,-42.20600128173828 -32.52199935913086,-26.910999298095703 C-34.573001861572266,-22.87700080871582 -32.138999938964844,-21.4950008392334 -32.00199890136719,-20.267000198364258 C-29.76799964904785,-32.54100036621094 -4.540999889373779,-42.2239990234375 7.433000087738037,-43.262001037597656 C21.31999969482422,-44.465999603271484 50.53099822998047,-41.803001403808594 52.013999938964844,-27.54800033569336 C54.14400100708008,-29.277999877929688 53.340999603271484,-33.983001708984375 52.409000396728516,-36.32600021362305 C46.67599868774414,-50.742000579833984 21.445999145507812,-51.11800003051758 7.684000015258789,-49.7599983215332z"></path></g></g></g><g style="display: block;" transform="matrix(0.9016000628471375,0,0,0.9016000628471375,11.403637886047363,124.27496337890625)" opacity="1"><g opacity="1" transform="matrix(1,0,0,1,0.871002197265625,0.2129974365234375)"><g opacity="1" transform="matrix(1,0,0,1,188.8800048828125,201.77099609375)"><path fill="rgb(255,226,166)" fill-opacity="1" d=" M11.970999717712402,-59.263999938964844 C-1.9539999961853027,-59.263999938964844 -40.775001525878906,-53.90399932861328 -33.29399871826172,-36.78200149536133 C-26.308000564575195,-20.79199981689453 -12.824999809265137,-36.03900146484375 9.963000297546387,-36.66299819946289 C31.003000259399414,-37.23899841308594 47.676998138427734,-26.10700035095215 53.551998138427734,-41.80799865722656 C60.68199920654297,-60.862998962402344 25.89699935913086,-59.263999938964844 11.970999717712402,-59.263999938964844z"></path></g><g opacity="1" transform="matrix(1,0,0,1,188.8800048828125,189.71099853515625)"><path fill="rgb(255,177,57)" fill-opacity="1" d=" M11.34000015258789,-53.612998962402344 C-2.5850000381469727,-53.612998962402344 -33.44599914550781,-41.40399932861328 -31.577999114990234,-31.73200035095215 C-28.14699935913086,-13.970999717712402 -11.54800033569336,-31.92799949645996 9.708999633789062,-32.64400100708008 C31.749000549316406,-33.387001037597656 50.63399887084961,-20.805999755859375 51.82500076293945,-40.965999603271484 C52.361000061035156,-50.03200149536133 25.266000747680664,-53.612998962402344 11.34000015258789,-53.612998962402344z"></path></g><g opacity="1" transform="matrix(1,0,0,1,188.87899780273438,195.73199462890625)"><path fill="rgb(134,63,20)" fill-opacity="1" d=" M6.931000232696533,-60.409000396728516 C-6.124000072479248,-60.409000396728516 -34.742000579833984,-47.13600158691406 -32.52299880981445,-36.93199920654297 C-29.201000213623047,-21.659000396728516 -9.807999610900879,-36.46099853515625 9.503999710083008,-36.6150016784668 C30.736000061035156,-36.784000396728516 45.54800033569336,-28.5 51.53200149536133,-39.066001892089844 C60.15599822998047,-54.29499816894531 19.98699951171875,-60.409000396728516 6.931000232696533,-60.409000396728516z"></path></g><g opacity="1" transform="matrix(1,0,0,1,188.88099670410156,182.07400512695312)"><path fill="rgb(99,37,12)" fill-opacity="1" d=" M7.684000015258789,-49.7599983215332 C-5.9120001792907715,-48.417999267578125 -24.746999740600586,-42.20600128173828 -32.52199935913086,-26.910999298095703 C-34.573001861572266,-22.87700080871582 -32.138999938964844,-21.4950008392334 -32.00199890136719,-20.267000198364258 C-29.76799964904785,-32.54100036621094 -4.540999889373779,-42.2239990234375 7.433000087738037,-43.262001037597656 C21.31999969482422,-44.465999603271484 50.53099822998047,-41.803001403808594 52.013999938964844,-27.54800033569336 C54.14400100708008,-29.277999877929688 53.340999603271484,-33.983001708984375 52.409000396728516,-36.32600021362305 C46.67599868774414,-50.742000579833984 21.445999145507812,-51.11800003051758 7.684000015258789,-49.7599983215332z"></path></g></g></g><g style="display: block;" transform="matrix(0.9800000190734863,0,0,0.9800000190734863,298.3938293457031,166.8542938232422)" opacity="1"><g opacity="1" transform="matrix(1,0,0,1,53.608001708984375,27.016000747680664)"><path fill="rgb(255,237,188)" fill-opacity="1" d=" M-50.637001037597656,-10.588000297546387 C-49.645999908447266,-12.253999710083008 -45.944000244140625,-14.70300006866455 -42.89899826049805,-16.19499969482422 C-29.70400047302246,-22.66200065612793 -0.9290000200271606,-21.718000411987305 21.465999603271484,-9.484000205993652 C53.358001708984375,7.936999797821045 47.380001068115234,22.660999298095703 40.45600128173828,19.256999969482422 C33.53200149536133,15.852999687194824 9.109000205993652,-0.08399999886751175 -24.426000595092773,0.890999972820282 C-33.4119987487793,1.1519999504089355 -39.737998962402344,2.3269999027252197 -44.72600173950195,2.0329999923706055 C-51.314998626708984,1.6449999809265137 -53.358001708984375,-6.017000198364258 -50.637001037597656,-10.588000297546387z"></path></g><g opacity="1" transform="matrix(1,0,0,1,52.04899978637695,22.434999465942383)"><path fill="rgb(133,62,19)" fill-opacity="1" d=" M-48.63199996948242,-6.829999923706055 C-47.64099884033203,-8.496000289916992 -44.3849983215332,-11.185999870300293 -41.34000015258789,-12.678999900817871 C-28.145999908447266,-19.145000457763672 -2.934000015258789,-22.18400001525879 19.461000442504883,-9.951000213623047 C51.35300064086914,7.46999979019165 48.82699966430664,22.184999465942383 41.90299987792969,18.7810001373291 C34.979000091552734,15.376999855041504 10.555999755859375,-0.5609999895095825 -22.979000091552734,0.4129999876022339 C-31.96500015258789,0.6740000247955322 -38.290000915527344,1.850000023841858 -43.27799987792969,1.5549999475479126 C-49.867000579833984,1.1670000553131104 -51.35300064086914,-2.259000062942505 -48.63199996948242,-6.829999923706055z"></path></g><g opacity="1" transform="matrix(1,0,0,1,51.10300064086914,20.75200080871582)"><path fill="rgb(98,36,11)" fill-opacity="1" d=" M-47.73500061035156,1.534999966621399 C-47.7239990234375,1.503000020980835 -47.70399856567383,1.4609999656677246 -47.68199920654297,1.4290000200271606 C-46.691001892089844,-0.23499999940395355 -43.439998626708984,-2.930999994277954 -40.39099884033203,-4.413000106811523 C-27.204999923706055,-10.883000373840332 -1.9830000400543213,-13.92199993133545 20.402999877929688,-1.694000005722046 C36.36000061035156,7.025000095367432 43.69499969482422,15.072999954223633 46.17900085449219,20.499000549316406 C49.441001892089844,18.014999389648438 46.06100082397461,5.745999813079834 20.402999877929688,-8.272000312805176 C-1.9830000400543213,-20.499000549316406 -27.204999923706055,-17.461000442504883 -40.39099884033203,-11.00100040435791 C-43.439998626708984,-9.508000373840332 -46.691001892089844,-6.811999797821045 -47.68199920654297,-5.14900016784668 C-49.35599899291992,-2.3450000286102295 -49.439998626708984,0.03200000151991844 -47.73500061035156,1.534999966621399z"></path></g></g><g style="display: block;" transform="matrix(0.9800000190734863,0,0,0.9800000190734863,108.46491241455078,166.8542938232422)" opacity="1"><g opacity="1" transform="matrix(1,0,0,1,53.606998443603516,27.016000747680664)"><path fill="rgb(255,237,188)" fill-opacity="1" d=" M50.637001037597656,-10.588000297546387 C49.645999908447266,-12.253999710083008 45.94300079345703,-14.70300006866455 42.89799880981445,-16.19499969482422 C29.702999114990234,-22.66200065612793 0.9290000200271606,-21.718000411987305 -21.46500015258789,-9.484000205993652 C-53.356998443603516,7.936999797821045 -47.380001068115234,22.660999298095703 -40.45600128173828,19.256999969482422 C-33.53200149536133,15.852999687194824 -9.109999656677246,-0.08399999886751175 24.426000595092773,0.890999972820282 C33.4119987487793,1.1519999504089355 39.73699951171875,2.3269999027252197 44.724998474121094,2.0329999923706055 C51.31399917602539,1.6449999809265137 53.358001708984375,-6.017000198364258 50.637001037597656,-10.588000297546387z"></path></g><g opacity="1" transform="matrix(1,0,0,1,55.16600036621094,22.434999465942383)"><path fill="rgb(133,62,19)" fill-opacity="1" d=" M48.632999420166016,-6.829999923706055 C47.64099884033203,-8.496000289916992 44.38399887084961,-11.185999870300293 41.3390007019043,-12.678999900817871 C28.145000457763672,-19.145000457763672 2.934000015258789,-22.18400001525879 -19.461999893188477,-9.951000213623047 C-51.35300064086914,7.46999979019165 -48.82699966430664,22.184999465942383 -41.90399932861328,18.7810001373291 C-34.97999954223633,15.376999855041504 -10.555999755859375,-0.5609999895095825 22.979999542236328,0.4129999876022339 C31.965999603271484,0.6740000247955322 38.29100036621094,1.850000023841858 43.27899932861328,1.5549999475479126 C49.86800003051758,1.1670000553131104 51.35300064086914,-2.259000062942505 48.632999420166016,-6.829999923706055z"></path></g><g opacity="1" transform="matrix(1,0,0,1,56.112998962402344,20.75200080871582)"><path fill="rgb(98,36,11)" fill-opacity="1" d=" M47.73500061035156,1.534999966621399 C47.7239990234375,1.503000020980835 47.702999114990234,1.4609999656677246 47.68199920654297,1.4290000200271606 C46.689998626708984,-0.23499999940395355 43.43899917602539,-2.930999994277954 40.38999938964844,-4.413000106811523 C27.20400047302246,-10.883000373840332 1.9819999933242798,-13.92199993133545 -20.40399932861328,-1.694000005722046 C-36.36199951171875,7.025000095367432 -43.69499969482422,15.072999954223633 -46.178001403808594,20.499000549316406 C-49.439998626708984,18.014999389648438 -46.0620002746582,5.745999813079834 -20.40399932861328,-8.272000312805176 C1.9819999933242798,-20.499000549316406 27.20400047302246,-17.461000442504883 40.38999938964844,-11.00100040435791 C43.43899917602539,-9.508000373840332 46.689998626708984,-6.811999797821045 47.68199920654297,-5.14900016784668 C49.35499954223633,-2.3450000286102295 49.441001892089844,0.03200000151991844 47.73500061035156,1.534999966621399z"></path></g></g></g></svg>