<svg xmlns="http://www.w3.org/2000/svg" viewBox="0 0 512 512" width="512" height="512" style="width: 100%; height: 100%; transform: translate3d(0,0,0);" preserveAspectRatio="xMidYMid meet"><defs><clipPath id="__lottie_element_14596"><rect width="512" height="512" x="0" y="0"></rect></clipPath><linearGradient id="__lottie_element_14611" spreadMethod="pad" gradientUnits="userSpaceOnUse" x1="-154.66299438476562" y1="11" x2="-32.66299819946289" y2="11"><stop offset="0%" stop-color="rgb(255,255,255)" stop-opacity="0.4000000059604645"></stop><stop offset="25%" stop-color="rgb(255,255,255)" stop-opacity="0.699999988079071"></stop><stop offset="50%" stop-color="rgb(255,255,255)" stop-opacity="1"></stop><stop offset="75%" stop-color="rgb(255,255,255)" stop-opacity="0.699999988079071"></stop><stop offset="100%" stop-color="rgb(255,255,255)" stop-opacity="0.4000000059604645"></stop></linearGradient><linearGradient id="__lottie_element_14612" spreadMethod="pad" gradientUnits="userSpaceOnUse" x1="31.336999893188477" y1="11" x2="153.33700561523438" y2="11"><stop offset="0%" stop-color="rgb(255,255,255)" stop-opacity="0.4000000059604645"></stop><stop offset="25%" stop-color="rgb(255,255,255)" stop-opacity="0.699999988079071"></stop><stop offset="50%" stop-color="rgb(255,255,255)" stop-opacity="1"></stop><stop offset="75%" stop-color="rgb(255,255,255)" stop-opacity="0.699999988079071"></stop><stop offset="100%" stop-color="rgb(255,255,255)" stop-opacity="0.4000000059604645"></stop></linearGradient><linearGradient id="__lottie_element_14613" spreadMethod="pad" gradientUnits="userSpaceOnUse" x1="-173.66299438476562" y1="-61" x2="171.67799377441406" y2="-61"><stop offset="0%" stop-color="rgb(255,255,255)" stop-opacity="0.4000000059604645"></stop><stop offset="25%" stop-color="rgb(255,255,255)" stop-opacity="0.699999988079071"></stop><stop offset="50%" stop-color="rgb(255,255,255)" stop-opacity="1"></stop><stop offset="75%" stop-color="rgb(255,255,255)" stop-opacity="0.699999988079071"></stop><stop offset="100%" stop-color="rgb(255,255,255)" stop-opacity="0.4000000059604645"></stop></linearGradient></defs><g clip-path="url(#__lottie_element_14596)"><g style="display: block;" transform="matrix(1,0,0,1,256,256.0009765625)" opacity="1"><g opacity="0.1" transform="matrix(1,0,0,1,0,0)"><path fill="rgb(0,0,0)" fill-opacity="1" d=" M195.92300415039062,10.781999588012695 C195.92300415039062,119.04299926757812 108.15899658203125,206.80599975585938 -0.10199999809265137,206.80599975585938 C-108.36299896240234,206.80599975585938 -196.12600708007812,119.04299926757812 -196.12600708007812,10.781999588012695 C-196.12600708007812,-97.47899627685547 -108.36299896240234,-185.2429962158203 -0.10199999809265137,-185.2429962158203 C108.15899658203125,-185.2429962158203 195.92300415039062,-97.47899627685547 195.92300415039062,10.781999588012695z"></path></g><g opacity="1" transform="matrix(1,0,0,1,0,0)"><path fill="rgb(255,173,0)" fill-opacity="1" d=" M188.7740020751953,-4.2179999351501465 C188.7740020751953,100.09500122070312 104.21199798583984,184.65699768066406 -0.10100000351667404,184.65699768066406 C-104.41400146484375,184.65699768066406 -188.9770050048828,100.09500122070312 -188.9770050048828,-4.2179999351501465 C-188.9770050048828,-108.53099822998047 -104.41400146484375,-193.093994140625 -0.10100000351667404,-193.093994140625 C104.21199798583984,-193.093994140625 188.7740020751953,-108.53099822998047 188.7740020751953,-4.2179999351501465z"></path></g><g opacity="1" transform="matrix(1,0,0,1,0,0)"><path fill="rgb(255,207,0)" fill-opacity="1" d=" M168.30599975585938,-3.50600004196167 C166.8489990234375,91.52200317382812 90.29499816894531,167.4029998779297 -2.683000087738037,165.97799682617188 C-95.66100311279297,164.55299377441406 -169.85299682617188,86.36199951171875 -168.39700317382812,-8.666999816894531 C-166.94000244140625,-103.69599914550781 -90.38600158691406,-179.5749969482422 2.5920000076293945,-178.14999389648438 C95.56999969482422,-176.72500610351562 169.76300048828125,-98.53500366210938 168.30599975585938,-3.50600004196167z"></path></g><g opacity="0.9" transform="matrix(1,0,0,1,0,0)"><path fill="rgb(255,222,102)" fill-opacity="1" d=" M149.16600036621094,-46.64699935913086 C149.16600036621094,25.996000289916992 82.33699798583984,-31.468000411987305 -0.10100000351667404,-31.468000411987305 C-82.53900146484375,-31.468000411987305 -149.36900329589844,25.996000289916992 -149.36900329589844,-46.64699935913086 C-149.36900329589844,-119.29000091552734 -82.53900146484375,-178.1790008544922 -0.10100000351667404,-178.1790008544922 C82.33699798583984,-178.1790008544922 149.16600036621094,-119.29000091552734 149.16600036621094,-46.64699935913086z"></path></g><g opacity="1" transform="matrix(1,0,0,1,0,0)"><g opacity="1" transform="matrix(1,0,0,1,0,0)"><path stroke-linecap="round" stroke-linejoin="round" fill-opacity="0" stroke="rgb(255,255,255)" stroke-opacity="1" stroke-width="6" d=" M36.270999908447266,-173.9600067138672 C37.808998107910156,-173.625 39.40399932861328,-173.2550048828125 41.04899978637695,-172.8489990234375"></path></g><g opacity="1" transform="matrix(1,0,0,1,0,0)"><path stroke-linecap="round" stroke-linejoin="round" fill-opacity="0" stroke="rgb(255,255,255)" stroke-opacity="1" stroke-width="6" d=" M14.916999816894531,-177.1790008544922 C14.916999816894531,-177.1790008544922 19.784000396728516,-176.91900634765625 27.506999969482422,-175.64100646972656"></path></g></g><g opacity="1" transform="matrix(1,0,0,1,0,0)"><path stroke-linecap="butt" stroke-linejoin="miter" fill-opacity="0" stroke-miterlimit="10" stroke="rgb(255,118,42)" stroke-opacity="1" stroke-width="8" d=" M188.7740020751953,-4.2179999351501465 C188.7740020751953,100.09500122070312 104.21199798583984,184.65699768066406 -0.10100000351667404,184.65699768066406 C-104.41400146484375,184.65699768066406 -188.9770050048828,100.09500122070312 -188.9770050048828,-4.2179999351501465 C-188.9770050048828,-108.53099822998047 -104.41400146484375,-193.093994140625 -0.10100000351667404,-193.093994140625 C104.21199798583984,-193.093994140625 188.7740020751953,-108.53099822998047 188.7740020751953,-4.2179999351501465z"></path></g></g><g style="display: block;" transform="matrix(1,0,0,1,256,256.0009765625)" opacity="1"><g opacity="1" transform="matrix(1,0,0,1,0,0)"><path fill="rgb(255,173,0)" fill-opacity="1" d=" M-91.8489990234375,55.79499816894531 C-53.12699890136719,54.986000061035156 -21.913000106811523,21.527999877929688 -21.913000106811523,-17.375 C-21.913000106811523,-18.420000076293945 -11.300999641418457,-26.43400001525879 -0.5370000004768372,-26.43400001525879 C11.423999786376953,-26.43400001525879 21.711999893188477,-18.68199920654297 21.711999893188477,-17.875 C21.711999893188477,21.507999420166016 54.933998107910156,55.803001403808594 94.31700134277344,55.803001403808594 C94.31700134277344,55.803001403808594 93.96099853515625,45.38199996948242 93.96099853515625,45.38199996948242 C60.32600021362305,45.38199996948242 32.30699920654297,18.02199935913086 32.30699920654297,-15.61299991607666 C32.30699920654297,-49.24800109863281 59.66999816894531,-76.61199951171875 93.30500030517578,-76.61199951171875 C126.94000244140625,-76.61199951171875 154.30499267578125,-49.24800109863281 154.30499267578125,-15.61299991607666 C154.30499267578125,17.88599967956543 127.16100311279297,45.16400146484375 93.71299743652344,45.38399887084961 C93.71299743652344,45.38399887084961 94.10099792480469,55.805999755859375 94.10099792480469,55.805999755859375 C133.03199768066406,55.37900161743164 164.58299255371094,23.643999099731445 164.7220001220703,-15.354999542236328 C169.8939971923828,-16.60099983215332 173.4320068359375,-18.80299949645996 172.3470001220703,-23.558000564575195 C171.5760040283203,-26.93899917602539 167.27699279785156,-27.77899932861328 163.656005859375,-27.867000579833984 C157.8260040283203,-61.42900085449219 128.50900268554688,-87.03700256347656 93.30500030517578,-87.03700256347656 C58.84299850463867,-87.03700256347656 30.0049991607666,-62.50400161743164 23.336000442504883,-29.985000610351562 C18.04800033569336,-33.28099822998047 9.845999717712402,-36.933998107910156 -0.5370000004768372,-36.933998107910156 C-10.381999969482422,-36.933998107910156 -18.19499969482422,-33.6510009765625 -23.430999755859375,-30.493999481201172 C-30.297000885009766,-62.757999420166016 -59.00400161743164,-87.03700256347656 -93.28500366210938,-87.03700256347656 C-128.48699951171875,-87.03700256347656 -157.802001953125,-61.430999755859375 -163.63299560546875,-27.871000289916992 C-167.3090057373047,-27.81999969482422 -171.81199645996094,-27.025999069213867 -172.60299682617188,-23.558000564575195 C-173.70700073242188,-18.718000411987305 -170.02200317382812,-16.523000717163086 -164.69900512695312,-15.288999557495117 C-164.5229949951172,23.94499969482422 -132.8300018310547,55.810001373291016 -91.31999969482422,55.810001373291016 C-91.31999969482422,55.810001373291016 -92.78900146484375,45.38399887084961 -92.78900146484375,45.38399887084961 C-125.947998046875,44.82899856567383 -154.2830047607422,17.676000595092773 -154.2830047607422,-15.61299991607666 C-154.2830047607422,-49.24800109863281 -126.91999816894531,-76.61199951171875 -93.28500366210938,-76.61199951171875 C-59.6510009765625,-76.61199951171875 -32.2859992980957,-49.24800109863281 -32.2859992980957,-15.61299991607666 C-32.2859992980957,18.02199935913086 -59.6510009765625,45.38600158691406 -93.28500366210938,45.38600158691406 C-93.28500366210938,45.38600158691406 -91.8489990234375,55.79499816894531 -91.8489990234375,55.79499816894531z"></path></g></g><g style="display: block;" transform="matrix(1,0,0,1,256,256.0009765625)" opacity="1"><g opacity="1" transform="matrix(1,0,0,1,0,0)"><g opacity="1" transform="matrix(1,0,0,1,0,0)"><g opacity="1" transform="matrix(1,0,0,1,0,0)"><path fill="rgb(255,173,0)" fill-opacity="1" d=" M155.99600219726562,-96.30799865722656 C158.4499969482422,-93.5479965209961 158.98599243164062,-89.56900024414062 157.41099548339844,-86.22899627685547 C157.41099548339844,-86.22899627685547 151.9409942626953,-74.62699890136719 151.9409942626953,-74.62699890136719 C150.302001953125,-71.1510009765625 145.89100646972656,-70.07099914550781 142.822998046875,-72.38500213623047 C134.87399291992188,-78.37899780273438 119.41899871826172,-87.93599700927734 100.76699829101562,-88.84200286865234 C77.89800262451172,-89.9520034790039 61.775001525878906,-82.09400177001953 53.486000061035156,-76.6520004272461 C50.1510009765625,-74.46199798583984 45.654998779296875,-76.04499816894531 44.42300033569336,-79.83999633789062 C44.42300033569336,-79.83999633789062 40.21500015258789,-92.7959976196289 40.21500015258789,-92.7959976196289 C72.97599792480469,-128.625 139.4199981689453,-114.9469985961914 155.99600219726562,-96.30799865722656z"></path></g><g opacity="1" transform="matrix(1,0,0,1,0,0)"><path fill="rgb(17,19,24)" fill-opacity="1" d=" M98.81700134277344,-127.31700134277344 C114.49500274658203,-126.7300033569336 137.47000122070312,-119.9469985961914 154.04600524902344,-101.30799865722656 C156.5,-98.5479965209961 157.03599548339844,-94.56900024414062 155.46099853515625,-91.22899627685547 C155.46099853515625,-91.22899627685547 149.99000549316406,-79.62699890136719 149.99000549316406,-79.62699890136719 C148.3509979248047,-76.1510009765625 116.4209976196289,-96.96900177001953 97.76899719238281,-97.875 C74.9000015258789,-98.98500061035156 43.70500183105469,-81.04499816894531 42.472999572753906,-84.83999633789062 C42.472999572753906,-84.83999633789062 38.26499938964844,-97.7959976196289 38.26499938964844,-97.7959976196289 C37.22200012207031,-101.00599670410156 37.99800109863281,-104.5260009765625 40.30500030517578,-106.98999786376953 C47.28900146484375,-114.45099639892578 65.0719985961914,-128.57899475097656 98.81700134277344,-127.31700134277344z"></path></g><g opacity="1" transform="matrix(1,0,0,1,0,0)"><path fill="rgb(0,0,0)" fill-opacity="1" d=" M40.77000045776367,-90.08999633789062 C40.77000045776367,-90.08999633789062 42.470001220703125,-84.83999633789062 42.470001220703125,-84.83999633789062 C43.709999084472656,-81.05000305175781 48.20000076293945,-79.45999908447266 51.540000915527344,-81.6500015258789 C59.83000183105469,-87.08999633789062 75.94999694824219,-94.94999694824219 98.81999969482422,-93.83999633789062 C117.47000122070312,-92.94000244140625 132.92999267578125,-83.37999725341797 140.8699951171875,-77.37999725341797 C143.94000244140625,-75.06999969482422 148.35000610351562,-76.1500015258789 149.99000549316406,-79.62999725341797 C149.99000549316406,-79.62999725341797 152.63999938964844,-85.23999786376953 152.63999938964844,-85.23999786376953 C150.57000732421875,-83.31999969482422 147.3000030517578,-83.0199966430664 144.8699951171875,-84.86000061035156 C136.92999267578125,-90.8499984741211 117.47000122070312,-100.41000366210938 98.81999969482422,-101.30999755859375 C75.94999694824219,-102.41999816894531 56.83000183105469,-94.56999969482422 48.540000915527344,-89.12000274658203 C45.959999084472656,-87.43000030517578 42.689998626708984,-87.98999786376953 40.77000045776367,-90.08999633789062z"></path></g></g><g opacity="1" transform="matrix(1,0,0,1,0,0)"><g opacity="1" transform="matrix(1,0,0,1,0,0)"><path fill="rgb(48,48,48)" fill-opacity="1" d=" M93.31900024414062,-127.38999938964844 C93.31900024414062,-127.38999938964844 95.52999877929688,-101.43000030517578 95.52999877929688,-101.43000030517578 C95.52999877929688,-101.43000030517578 97.76899719238281,-127.3499984741211 97.76899719238281,-127.3499984741211 C96.2490005493164,-127.4000015258789 94.76899719238281,-127.41000366210938 93.31900024414062,-127.38999938964844z"></path></g><g opacity="1" transform="matrix(1,0,0,1,0,0)"><path fill="rgb(48,48,48)" fill-opacity="1" d=" M78.00900268554688,-126.01000213623047 C78.00900268554688,-126.01000213623047 83.92900085449219,-108.55000305175781 83.92900085449219,-108.55000305175781 C83.92900085449219,-108.55000305175781 83.92900085449219,-126.8499984741211 83.92900085449219,-126.8499984741211 C81.87899780273438,-126.62999725341797 79.90899658203125,-126.3499984741211 78.00900268554688,-126.01000213623047z"></path></g><g opacity="1" transform="matrix(1,0,0,1,0,0)"><path fill="rgb(48,48,48)" fill-opacity="1" d=" M62.388999938964844,-121.63999938964844 C62.388999938964844,-121.63999938964844 72.20899963378906,-102.93399810791016 72.20899963378906,-102.93399810791016 C72.20899963378906,-102.93399810791016 69.03900146484375,-123.94000244140625 69.03900146484375,-123.94000244140625 C66.67900085449219,-123.23999786376953 64.45899963378906,-122.47000122070312 62.388999938964844,-121.63999938964844z"></path></g><g opacity="1" transform="matrix(1,0,0,1,0,0)"><path fill="rgb(48,48,48)" fill-opacity="1" d=" M47.86899948120117,-113.6500015258789 C47.86899948120117,-113.6500015258789 56.55099868774414,-101.43000030517578 56.55099868774414,-101.43000030517578 C56.55099868774414,-101.43000030517578 53.058998107910156,-117.06999969482422 53.058998107910156,-117.06999969482422 C51.14899826049805,-115.94999694824219 49.41899871826172,-114.79000091552734 47.86899948120117,-113.6500015258789z"></path></g><g opacity="1" transform="matrix(1,0,0,1,0,0)"><path fill="rgb(48,48,48)" fill-opacity="1" d=" M106.05899810791016,-126.6500015258789 C106.05899810791016,-126.6500015258789 106.05899810791016,-107.5199966430664 106.05899810791016,-107.5199966430664 C106.05899810791016,-107.5199966430664 111.46900177001953,-125.68000030517578 111.46900177001953,-125.68000030517578 C109.61900329589844,-126.08999633789062 107.81900024414062,-126.41000366210938 106.06900024414062,-126.66000366210938 C106.06900024414062,-126.66000366210938 106.05899810791016,-126.6500015258789 106.05899810791016,-126.6500015258789z"></path></g><g opacity="1" transform="matrix(1,0,0,1,0,0)"><path fill="rgb(48,48,48)" fill-opacity="1" d=" M115.72899627685547,-102.11299896240234 C115.72899627685547,-102.11299896240234 125.11900329589844,-121.4800033569336 125.11900329589844,-121.4800033569336 C125.11900329589844,-121.4800033569336 125.10900115966797,-121.48999786376953 125.10900115966797,-121.48999786376953 C122.60900115966797,-122.51000213623047 120.10900115966797,-123.37000274658203 117.65899658203125,-124.0999984741211 C117.65899658203125,-124.0999984741211 115.72899627685547,-102.11299896240234 115.72899627685547,-102.11299896240234z"></path></g><g opacity="1" transform="matrix(1,0,0,1,0,0)"><path fill="rgb(48,48,48)" fill-opacity="1" d=" M128.36900329589844,-100.69000244140625 C128.36900329589844,-100.69000244140625 139.5489959716797,-113.87999725341797 139.5489959716797,-113.87999725341797 C137.5989990234375,-115.19000244140625 135.61900329589844,-116.37999725341797 133.61900329589844,-117.45999908447266 C133.61900329589844,-117.45999908447266 128.36900329589844,-100.69000244140625 128.36900329589844,-100.69000244140625z"></path></g><g opacity="1" transform="matrix(1,0,0,1,0,0)"><path fill="rgb(48,48,48)" fill-opacity="1" d=" M142.5590057373047,-95.38999938964844 C142.5590057373047,-95.38999938964844 151.87899780273438,-103.62999725341797 151.87899780273438,-103.62999725341797 C150.5590057373047,-105 149.19900512695312,-106.29000091552734 147.81900024414062,-107.5199966430664 C147.81900024414062,-107.5199966430664 142.5590057373047,-95.38999938964844 142.5590057373047,-95.38999938964844z"></path></g></g></g></g><g style="display: block;" transform="matrix(1,0,0,1,256,256.0009765625)" opacity="1"><g opacity="1" transform="matrix(1,0,0,1,0,0)"><g opacity="1" transform="matrix(1,0,0,1,0,0)"><path fill="rgb(255,173,0)" fill-opacity="1" d=" M-155.8000030517578,-96.30799865722656 C-158.25399780273438,-93.5479965209961 -158.7899932861328,-89.56900024414062 -157.21499633789062,-86.22899627685547 C-157.21499633789062,-86.22899627685547 -151.7449951171875,-74.62699890136719 -151.7449951171875,-74.62699890136719 C-150.1060028076172,-71.1510009765625 -145.69500732421875,-70.07099914550781 -142.6269989013672,-72.38500213623047 C-134.67799377441406,-78.37899780273438 -119.2229995727539,-87.93599700927734 -100.57099914550781,-88.84200286865234 C-77.7020034790039,-89.9520034790039 -61.57899856567383,-82.09400177001953 -53.290000915527344,-76.6520004272461 C-49.95500183105469,-74.46199798583984 -45.459999084472656,-76.04499816894531 -44.22700119018555,-79.83999633789062 C-44.22700119018555,-79.83999633789062 -40.01900100708008,-92.7959976196289 -40.01900100708008,-92.7959976196289 C-65.33000183105469,-126.85099792480469 -139.2239990234375,-114.9469985961914 -155.8000030517578,-96.30799865722656z"></path></g><g opacity="1" transform="matrix(1,0,0,1,0,0)"><path fill="rgb(17,19,24)" fill-opacity="1" d=" M-98.57099914550781,-127.31700134277344 C-114.2490005493164,-126.7300033569336 -137.2239990234375,-119.9469985961914 -153.8000030517578,-101.30799865722656 C-156.25399780273438,-98.5479965209961 -156.7899932861328,-94.56900024414062 -155.21499633789062,-91.22899627685547 C-155.21499633789062,-91.22899627685547 -149.7449951171875,-79.62699890136719 -149.7449951171875,-79.62699890136719 C-148.1060028076172,-76.1510009765625 -116.94000244140625,-96.96900177001953 -98.28800201416016,-97.875 C-75.41899871826172,-98.98500061035156 -43.459999084472656,-81.04499816894531 -42.22700119018555,-84.83999633789062 C-42.22700119018555,-84.83999633789062 -38.01900100708008,-97.7959976196289 -38.01900100708008,-97.7959976196289 C-36.97600173950195,-101.00599670410156 -37.75199890136719,-104.5260009765625 -40.058998107910156,-106.98999786376953 C-47.042999267578125,-114.45099639892578 -64.82599639892578,-128.57899475097656 -98.57099914550781,-127.31700134277344z"></path></g><g opacity="1" transform="matrix(1,0,0,1,0,0)"><g opacity="1" transform="matrix(1,0,0,1,0,0)"><path fill="rgb(48,48,48)" fill-opacity="1" d=" M-93.072998046875,-127.38999938964844 C-93.072998046875,-127.38999938964844 -95.28399658203125,-101.43000030517578 -95.28399658203125,-101.43000030517578 C-95.28399658203125,-101.43000030517578 -97.52300262451172,-127.3499984741211 -97.52300262451172,-127.3499984741211 C-96.00299835205078,-127.4000015258789 -94.52300262451172,-127.41000366210938 -93.072998046875,-127.38999938964844z"></path></g><g opacity="1" transform="matrix(1,0,0,1,0,0)"><path fill="rgb(48,48,48)" fill-opacity="1" d=" M-77.76300048828125,-126.01000213623047 C-77.76300048828125,-126.01000213623047 -83.68299865722656,-108.55000305175781 -83.68299865722656,-108.55000305175781 C-83.68299865722656,-108.55000305175781 -83.68299865722656,-126.8499984741211 -83.68299865722656,-126.8499984741211 C-81.63300323486328,-126.62999725341797 -79.66300201416016,-126.3499984741211 -77.76300048828125,-126.01000213623047z"></path></g><g opacity="1" transform="matrix(1,0,0,1,0,0)"><path fill="rgb(48,48,48)" fill-opacity="1" d=" M-62.143001556396484,-121.63999938964844 C-62.143001556396484,-121.63999938964844 -71.96299743652344,-102.93399810791016 -71.96299743652344,-102.93399810791016 C-71.96299743652344,-102.93399810791016 -68.79299926757812,-123.94000244140625 -68.79299926757812,-123.94000244140625 C-66.43299865722656,-123.23999786376953 -64.21299743652344,-122.47000122070312 -62.143001556396484,-121.63999938964844z"></path></g><g opacity="1" transform="matrix(1,0,0,1,0,0)"><path fill="rgb(48,48,48)" fill-opacity="1" d=" M-47.62300109863281,-113.6500015258789 C-47.62300109863281,-113.6500015258789 -56.30500030517578,-101.43000030517578 -56.30500030517578,-101.43000030517578 C-56.30500030517578,-101.43000030517578 -52.8129997253418,-117.06999969482422 -52.8129997253418,-117.06999969482422 C-50.90299987792969,-115.94999694824219 -49.17300033569336,-114.79000091552734 -47.62300109863281,-113.6500015258789z"></path></g><g opacity="1" transform="matrix(1,0,0,1,0,0)"><path fill="rgb(48,48,48)" fill-opacity="1" d=" M-105.81300354003906,-126.6500015258789 C-105.81300354003906,-126.6500015258789 -105.81300354003906,-107.5199966430664 -105.81300354003906,-107.5199966430664 C-105.81300354003906,-107.5199966430664 -111.2229995727539,-125.68000030517578 -111.2229995727539,-125.68000030517578 C-109.37300109863281,-126.08999633789062 -107.572998046875,-126.41000366210938 -105.822998046875,-126.66000366210938 C-105.822998046875,-126.66000366210938 -105.81300354003906,-126.6500015258789 -105.81300354003906,-126.6500015258789z"></path></g><g opacity="1" transform="matrix(1,0,0,1,0,0)"><path fill="rgb(48,48,48)" fill-opacity="1" d=" M-115.48300170898438,-102.11299896240234 C-115.48300170898438,-102.11299896240234 -124.87300109863281,-121.4800033569336 -124.87300109863281,-121.4800033569336 C-124.87300109863281,-121.4800033569336 -124.86299896240234,-121.48999786376953 -124.86299896240234,-121.48999786376953 C-122.36299896240234,-122.51000213623047 -119.86299896240234,-123.37000274658203 -117.41300201416016,-124.0999984741211 C-117.41300201416016,-124.0999984741211 -115.48300170898438,-102.11299896240234 -115.48300170898438,-102.11299896240234z"></path></g><g opacity="1" transform="matrix(1,0,0,1,0,0)"><path fill="rgb(48,48,48)" fill-opacity="1" d=" M-128.1230010986328,-100.69000244140625 C-128.1230010986328,-100.69000244140625 -139.30299377441406,-113.87999725341797 -139.30299377441406,-113.87999725341797 C-137.35299682617188,-115.19000244140625 -135.3730010986328,-116.37999725341797 -133.3730010986328,-117.45999908447266 C-133.3730010986328,-117.45999908447266 -128.1230010986328,-100.69000244140625 -128.1230010986328,-100.69000244140625z"></path></g><g opacity="1" transform="matrix(1,0,0,1,0,0)"><path fill="rgb(48,48,48)" fill-opacity="1" d=" M-142.31300354003906,-95.38999938964844 C-142.31300354003906,-95.38999938964844 -151.63299560546875,-103.62999725341797 -151.63299560546875,-103.62999725341797 C-150.31300354003906,-105 -148.9530029296875,-106.29000091552734 -147.572998046875,-107.5199966430664 C-147.572998046875,-107.5199966430664 -142.31300354003906,-95.38999938964844 -142.31300354003906,-95.38999938964844z"></path></g></g><g opacity="1" transform="matrix(1,0,0,1,0,0)"><path fill="rgb(0,0,0)" fill-opacity="1" d=" M-40.52299880981445,-90.08999633789062 C-40.52299880981445,-90.08999633789062 -42.222999572753906,-84.83999633789062 -42.222999572753906,-84.83999633789062 C-43.4630012512207,-81.05000305175781 -47.952999114990234,-79.45999908447266 -51.292999267578125,-81.6500015258789 C-59.58300018310547,-87.08999633789062 -75.7030029296875,-94.94999694824219 -98.572998046875,-93.83999633789062 C-117.2229995727539,-92.94000244140625 -132.68299865722656,-83.37999725341797 -140.6230010986328,-77.37999725341797 C-143.6929931640625,-75.06999969482422 -148.10299682617188,-76.1500015258789 -149.7429962158203,-79.62999725341797 C-149.7429962158203,-79.62999725341797 -152.39300537109375,-85.23999786376953 -152.39300537109375,-85.23999786376953 C-150.322998046875,-83.31999969482422 -147.05299377441406,-83.0199966430664 -144.6230010986328,-84.86000061035156 C-136.68299865722656,-90.8499984741211 -117.2229995727539,-100.41000366210938 -98.572998046875,-101.30999755859375 C-75.7030029296875,-102.41999816894531 -56.58300018310547,-94.56999969482422 -48.292999267578125,-89.12000274658203 C-45.7130012512207,-87.43000030517578 -42.44300079345703,-87.98999786376953 -40.52299880981445,-90.08999633789062z"></path></g></g></g><g style="display: block;" transform="matrix(1,0,0,1,256,256.0009765625)" opacity="1"><g opacity="1" transform="matrix(1,0,0,1,0,0)"><g opacity="1" transform="matrix(1,0,0,1,0,0)"><path fill="rgb(255,225,156)" fill-opacity="1" d=" M-51.130001068115234,-22.440000534057617 C-51.130001068115234,-2.9619998931884766 -61.013999938964844,12.829000473022461 -73.20700073242188,12.829000473022461 C-85.4000015258789,12.829000473022461 -95.28399658203125,-2.9619998931884766 -95.28399658203125,-22.440000534057617 C-95.28399658203125,-32.334999084472656 -83.88899993896484,-37.202999114990234 -72.677001953125,-37.04499816894531 C-61.81800079345703,-36.891998291015625 -51.130001068115234,-32.02299880981445 -51.130001068115234,-22.440000534057617z"></path></g><g opacity="1" transform="matrix(1,0,0,1,0,0)"><path fill="rgb(255,173,0)" fill-opacity="1" d=" M-51.130001068115234,-26.070999145507812 C-51.130001068115234,-8.597999572753906 -61.013999938964844,5.566999912261963 -73.20700073242188,5.566999912261963 C-85.4000015258789,5.566999912261963 -95.28399658203125,-8.597999572753906 -95.28399658203125,-26.070999145507812 C-95.28399658203125,-43.54399871826172 -85.4000015258789,-57.70899963378906 -73.20700073242188,-57.70899963378906 C-61.013999938964844,-57.70899963378906 -51.130001068115234,-43.54399871826172 -51.130001068115234,-26.070999145507812z"></path></g><g opacity="1" transform="matrix(1,0,0,1,0,0)"><path fill="rgb(143,58,0)" fill-opacity="1" d=" M-52.90800094604492,-22.59600067138672 C-52.90800094604492,-6.130000114440918 -61.99599838256836,7.218999862670898 -73.20700073242188,7.218999862670898 C-84.41799926757812,7.218999862670898 -93.50599670410156,-6.130000114440918 -93.50599670410156,-22.59600067138672 C-93.50599670410156,-39.0620002746582 -84.41799926757812,-52.4109992980957 -73.20700073242188,-52.4109992980957 C-61.99599838256836,-52.4109992980957 -52.90800094604492,-39.0620002746582 -52.90800094604492,-22.59600067138672z"></path></g><g opacity="1" transform="matrix(1,0,0,1,0,0)"><path fill="rgb(107,32,0)" fill-opacity="1" d=" M-53.082000732421875,-18.729999542236328 C-54.36399841308594,-33.37799835205078 -62.888999938964844,-44.70000076293945 -73.20700073242188,-44.70000076293945 C-83.5250015258789,-44.70000076293945 -92.0510025024414,-33.37799835205078 -93.33200073242188,-18.729999542236328 C-94.58000183105469,-39.16699981689453 -84.41699981689453,-52.4109992980957 -73.20700073242188,-52.4109992980957 C-61.99700164794922,-52.4109992980957 -51.66299819946289,-38.83399963378906 -53.082000732421875,-18.729999542236328z"></path></g></g><g opacity="1" transform="matrix(1,0,0,1,0,0)"><g opacity="1" transform="matrix(1,0,0,1,0,0)"><path fill="rgb(255,225,156)" fill-opacity="1" d=" M95.08100128173828,-22.440000534057617 C95.08100128173828,-2.9619998931884766 85.1969985961914,12.829000473022461 73.00399780273438,12.829000473022461 C60.81100082397461,12.829000473022461 50.928001403808594,-2.9619998931884766 50.928001403808594,-22.440000534057617 C50.928001403808594,-32.46799850463867 62.63100051879883,-37.33300018310547 73.98699951171875,-37.0359992980957 C84.68900299072266,-36.75600051879883 95.08100128173828,-31.889999389648438 95.08100128173828,-22.440000534057617z"></path></g><g opacity="1" transform="matrix(1,0,0,1,0,0)"><path fill="rgb(255,173,0)" fill-opacity="1" d=" M95.08100128173828,-26.070999145507812 C95.08100128173828,-8.597999572753906 85.1969985961914,5.566999912261963 73.00399780273438,5.566999912261963 C60.81100082397461,5.566999912261963 50.928001403808594,-8.597999572753906 50.928001403808594,-26.070999145507812 C50.928001403808594,-43.54399871826172 60.81100082397461,-57.70899963378906 73.00399780273438,-57.70899963378906 C85.1969985961914,-57.70899963378906 95.08100128173828,-43.54399871826172 95.08100128173828,-26.070999145507812z"></path></g><g opacity="1" transform="matrix(1,0,0,1,0,0)"><path fill="rgb(143,58,0)" fill-opacity="1" d=" M93.3030014038086,-22.59600067138672 C93.3030014038086,-6.130000114440918 84.21499633789062,7.218999862670898 73.00399780273438,7.218999862670898 C61.792999267578125,7.218999862670898 52.70500183105469,-6.130000114440918 52.70500183105469,-22.59600067138672 C52.70500183105469,-39.0620002746582 61.792999267578125,-52.4109992980957 73.00399780273438,-52.4109992980957 C84.21499633789062,-52.4109992980957 93.3030014038086,-39.0620002746582 93.3030014038086,-22.59600067138672z"></path></g><g opacity="1" transform="matrix(1,0,0,1,0,0)"><path fill="rgb(107,32,0)" fill-opacity="1" d=" M93.12999725341797,-18.729999542236328 C91.8479995727539,-33.37799835205078 83.3219985961914,-44.70000076293945 73.00399780273438,-44.70000076293945 C62.68600082397461,-44.70000076293945 54.15999984741211,-33.37799835205078 52.87900161743164,-18.729999542236328 C51.21099853515625,-38.8129997253418 61.79399871826172,-52.4109992980957 73.00399780273438,-52.4109992980957 C84.21399688720703,-52.4109992980957 94.46199798583984,-39.625 93.12999725341797,-18.729999542236328z"></path></g></g></g><g style="display: none;"><g><path></path></g></g><g style="display: none;"><g><path></path></g></g><g style="display: none;"><g><path></path></g></g><g style="display: block;" transform="matrix(1,0,0,1,256,256.0009765625)" opacity="1"><g opacity="1" transform="matrix(1,0,0,1,0,0)"><path fill="rgb(255,173,0)" fill-opacity="1" d=" M77.13999938964844,99.39600372314453 C73.93399810791016,85.3270034790039 65.89900207519531,67.38400268554688 58.90599822998047,65 C55.077999114990234,63.69499969482422 26.270000457763672,76.46299743652344 -0.9399999976158142,76.4469985961914 C-28.81100082397461,76.43099975585938 -55.095001220703125,63.66299819946289 -59.01599884033203,65 C-66.00900268554688,67.38400268554688 -74.04399871826172,85.3270034790039 -77.25,99.39600372314453 C-77.92400360107422,102.35099792480469 -76.62999725341797,105.43599700927734 -74.01100158691406,106.96099853515625 C-71.98600006103516,108.13999938964844 -69.86399841308594,109.23799896240234 -67.65499877929688,110.26100158691406 C-64.14099884033203,111.88800048828125 -60.40999984741211,113.3219985961914 -56.50699996948242,114.57599639892578 C-53.209999084472656,115.63500213623047 -49.79100036621094,116.56600189208984 -46.27899932861328,117.3759994506836 C-33.79100036621094,120.25599670410156 -20.118000030517578,121.61199951171875 -6.526000022888184,121.79900360107422 C16.743999481201172,122.12000274658203 39.77399826049805,119.01599884033203 56.20199966430664,114.27200317382812 C58.766998291015625,113.53099822998047 61.172000885009766,112.75 63.39099884033203,111.93599700927734 C64.08899688720703,111.68000030517578 64.76799774169922,111.41999816894531 65.4280014038086,111.15799713134766 C68.7750015258789,109.8280029296875 71.63200378417969,108.4209976196289 73.9010009765625,106.96099853515625 C76.44999694824219,105.32099914550781 77.81400299072266,102.35099792480469 77.13999938964844,99.39600372314453z"></path></g><g opacity="1" transform="matrix(1,0,0,1,0,0)"><path fill="rgb(17,19,24)" fill-opacity="1" d=" M74.08499908447266,93.12100219726562 C71.00499725341797,79.60800170898438 63.28900146484375,62.375999450683594 56.573001861572266,60.08599853515625 C49.13199996948242,57.54899978637695 12.805999755859375,54.60100173950195 -3.0510001182556152,54.62799835205078 C-18.908000946044922,54.60100173950195 -49.242000579833984,57.54899978637695 -56.68299865722656,60.08599853515625 C-63.39899826049805,62.375999450683594 -71.11499786376953,79.60800170898438 -74.19499969482422,93.12100219726562 C-74.84200286865234,95.95899963378906 -73.58699798583984,98.9000015258789 -71.08399963378906,100.38600158691406 C-67.45099639892578,102.54199981689453 -45.28799819946289,113.875 -1.3300000429153442,113.30999755859375 C47.95800018310547,112.677001953125 64.46099853515625,104.25 70.9739990234375,100.38600158691406 C73.47799682617188,98.9010009765625 74.73200225830078,95.95899963378906 74.08499908447266,93.12100219726562z"></path></g><g opacity="1" transform="matrix(1,0,0,1,0,0)"><g opacity="1" transform="matrix(1,0,0,1,0,0)"><path fill="rgb(48,48,48)" fill-opacity="1" d=" M-52.91299819946289,87.75 C-52.91299819946289,87.75 -54.83300018310547,106.06999969482422 -54.83300018310547,106.06999969482422 C-57.222999572753906,105.37999725341797 -59.35300064086914,104.66999816894531 -61.24300003051758,103.97000122070312 C-61.24300003051758,103.97000122070312 -61.25299835205078,103.95999908447266 -61.25299835205078,103.95999908447266 C-61.25299835205078,103.95999908447266 -52.91299819946289,87.75 -52.91299819946289,87.75z"></path></g><g opacity="1" transform="matrix(1,0,0,1,0,0)"><path fill="rgb(48,48,48)" fill-opacity="1" d=" M-35.0629997253418,82.66000366210938 C-35.0629997253418,82.66000366210938 -36.952999114990234,109.86000061035156 -36.952999114990234,109.86000061035156 C-39.483001708984375,109.48999786376953 -41.85300064086914,109.08000183105469 -44.073001861572266,108.63999938964844 C-44.073001861572266,108.63999938964844 -35.0629997253418,82.66000366210938 -35.0629997253418,82.66000366210938z"></path></g><g opacity="1" transform="matrix(1,0,0,1,0,0)"><path fill="rgb(48,48,48)" fill-opacity="1" d=" M-19.163000106811523,111.72000122070312 C-21.51300048828125,111.56999969482422 -23.76300048828125,111.38999938964844 -25.92300033569336,111.19999694824219 C-25.92300033569336,111.19999694824219 -26.023000717163086,110.94999694824219 -26.023000717163086,110.94999694824219 C-26.023000717163086,110.94999694824219 -20.76300048828125,93.1500015258789 -20.76300048828125,93.1500015258789 C-20.76300048828125,93.1500015258789 -19.163000106811523,111.72000122070312 -19.163000106811523,111.72000122070312z"></path></g><g opacity="1" transform="matrix(1,0,0,1,0,0)"><path fill="rgb(48,48,48)" fill-opacity="1" d=" M-0.13300000131130219,112.30999755859375 C-2.632999897003174,112.30999755859375 -5.063000202178955,112.27999877929688 -7.4029998779296875,112.2300033569336 C-7.4029998779296875,112.2300033569336 -3.9130001068115234,87.75 -3.9130001068115234,87.75 C-3.9130001068115234,87.75 -0.13300000131130219,112.30999755859375 -0.13300000131130219,112.30999755859375z"></path></g><g opacity="1" transform="matrix(1,0,0,1,0,0)"><path fill="rgb(48,48,48)" fill-opacity="1" d=" M17.05699920654297,111.83999633789062 C15.416999816894531,111.94000244140625 13.72700023651123,112.0199966430664 11.996999740600586,112.08000183105469 C11.996999740600586,112.08000183105469 13.246999740600586,93.1500015258789 13.246999740600586,93.1500015258789 C13.246999740600586,93.1500015258789 17.05699920654297,111.83999633789062 17.05699920654297,111.83999633789062z"></path></g><g opacity="1" transform="matrix(1,0,0,1,0,0)"><path fill="rgb(48,48,48)" fill-opacity="1" d=" M32.30699920654297,110.48999786376953 C30.336999893188477,110.7300033569336 28.277000427246094,110.95999908447266 26.12700080871582,111.16000366210938 C26.12700080871582,111.16000366210938 25.927000045776367,110.94999694824219 25.927000045776367,110.94999694824219 C25.927000045776367,110.94999694824219 27.547000885009766,82.66000366210938 27.547000885009766,82.66000366210938 C27.547000885009766,82.66000366210938 32.30699920654297,110.48999786376953 32.30699920654297,110.48999786376953z"></path></g><g opacity="1" transform="matrix(1,0,0,1,0,0)"><path fill="rgb(48,48,48)" fill-opacity="1" d=" M50.176998138427734,107.27999877929688 C49.91699981689453,107.33999633789062 49.65700149536133,107.41000366210938 49.387001037597656,107.47000122070312 C47.9370002746582,107.81999969482422 46.40700149536133,108.1500015258789 44.797000885009766,108.4800033569336 C44.797000885009766,108.4800033569336 42.48699951171875,87.75 42.48699951171875,87.75 C42.48699951171875,87.75 50.176998138427734,107.27999877929688 50.176998138427734,107.27999877929688z"></path></g><g opacity="1" transform="matrix(1,0,0,1,0,0)"><path fill="rgb(48,48,48)" fill-opacity="1" d=" M61.23699951171875,103.93000030517578 C60.117000579833984,104.3499984741211 58.90700149536133,104.7699966430664 57.617000579833984,105.18000030517578 C57.617000579833984,105.18000030517578 55.527000427246094,91.23999786376953 55.527000427246094,91.23999786376953 C55.527000427246094,91.23999786376953 61.23699951171875,103.93000030517578 61.23699951171875,103.93000030517578z"></path></g></g></g><g style="display: block;" transform="matrix(1,0,0,1,256,256.0009765625)" opacity="1"><g opacity="1" transform="matrix(1,0,0,1,0,0)"><path fill="rgb(0,0,0)" fill-opacity="1" d=" M55.367000579833984,66.16999816894531 C53.946998596191406,77.27999877929688 43.57699966430664,82.31999969482422 25.44700050354004,79.18000030517578 C25.44700050354004,79.18000030517578 16.83300018310547,89.0199966430664 -0.10300000011920929,89.0199966430664 C-17.038999557495117,89.0199966430664 -25.55299949645996,79.18000030517578 -25.55299949645996,79.18000030517578 C-44.053001403808594,82.5 -54.053001403808594,77.27999877929688 -55.472999572753906,66.16999816894531 C-55.77299880981445,63.83000183105469 -55.632999420166016,61.709999084472656 -55.16299819946289,59.7599983215332 C-28.957000732421875,64 37.16999816894531,61.83300018310547 55.05699920654297,59.7599983215332 C55.527000427246094,61.709999084472656 55.66699981689453,63.83000183105469 55.367000579833984,66.16999816894531z"></path></g><g opacity="1" transform="matrix(1,0,0,1,0,0)"><path fill="rgb(255,173,0)" fill-opacity="1" d=" M37.16699981689453,33.52899932861328 C30.57699966430664,26.639999389648438 24.02400016784668,8.527999877929688 22.742000579833984,-11.538999557495117 C21.219999313354492,-35.35499954223633 9.163000106811523,-37.72700119018555 0,-37.257999420166016 C-9.163000106811523,-36.78900146484375 -21.541000366210938,-37.69599914550781 -22.232999801635742,-15.293999671936035 C-22.87700080871582,5.567999839782715 -30.679000854492188,26.639999389648438 -37.26900100708008,33.52899932861328 C-43.85900115966797,40.417999267578125 -51.4109992980957,46.10900115966797 -50.130001068115234,56.59299850463867 C-48.8489990234375,67.0770034790039 -39.8120002746582,72.00299835205078 -23.0939998626709,68.8740005493164 C-7.7270002365112305,81.27799987792969 7.636000156402588,81.22000122070312 22.993000030517578,68.8740005493164 C39.37799835205078,71.83200073242188 48.74800109863281,67.0770034790039 50.02899932861328,56.59299850463867 C51.310001373291016,46.10900115966797 43.75699996948242,40.417999267578125 37.16699981689453,33.52899932861328z"></path></g><g opacity="1" transform="matrix(1,0,0,1,0,0)"><g opacity="1" transform="matrix(1,0,0,1,0,0)"><path stroke-linecap="round" stroke-linejoin="round" fill-opacity="0" stroke="rgb(236,99,6)" stroke-opacity="1" stroke-width="8" d=" M28.854999542236328,60.08599853515625 C26.80900001525879,65.37300109863281 22.992000579833984,68.8740005493164 22.992000579833984,68.8740005493164 C10.670000076293945,80.66699981689453 -9.746000289916992,81.41699981689453 -23.0939998626709,68.8740005493164 C-23.0939998626709,68.8740005493164 -26.90999984741211,65.37300109863281 -28.95599937438965,60.08599853515625"></path></g></g><g opacity="0.7000000000000001" transform="matrix(1,0,0,1,0,0)"><path fill="rgb(255,222,102)" fill-opacity="1" d=" M-22.59600067138672,37.0890007019043 C-24.941999435424805,52.24800109863281 -9.812000274658203,60.12200164794922 0.10700000077486038,60.08599853515625 C10.026000022888184,60.04999923706055 25.066999435424805,52.0989990234375 22.607999801635742,36.95800018310547 C19.273000717163086,16.420000076293945 8.197999954223633,-9.895000457763672 5.394999980926514,-36.45500183105469 C5.210000038146973,-38.20899963378906 -5.6579999923706055,-38.2400016784668 -5.84499979019165,-36.5 C-8.880999565124512,-8.312999725341797 -19.058000564575195,14.218999862670898 -22.59600067138672,37.0890007019043z"></path></g><g opacity="0.3" transform="matrix(1,0,0,1,0,0)"><path fill="rgb(217,97,0)" fill-opacity="1" d=" M-18.861000061035156,-14.61299991607666 C-7.271999835968018,-25.93899917602539 5.413000106811523,-25.87700080871582 18.944000244140625,-17.020000457763672 C18.944000244140625,-17.020000457763672 23.334999084472656,-29.985000610351562 23.334999084472656,-29.985000610351562 C23.334999084472656,-29.985000610351562 4.4079999923706055,-44.95000076293945 -23.430999755859375,-30.493999481201172 C-23.430999755859375,-30.493999481201172 -18.861000061035156,-14.61299991607666 -18.861000061035156,-14.61299991607666z"></path></g><g opacity="1" transform="matrix(1,0,0,1,0,0)"><path stroke-linecap="round" stroke-linejoin="round" fill-opacity="0" stroke="rgb(236,99,6)" stroke-opacity="1" stroke-width="8" d=" M-20.59600067138672,-32.242000579833984 C-20.60099983215332,-31.20400047302246 -20.6200008392334,-30.16200065612793 -20.650999069213867,-29.118000030517578 C-21.465999603271484,-1.965000033378601 -30.92300033569336,26.895000457763672 -37.26900100708008,33.52899932861328 C-43.85900115966797,40.417999267578125 -51.4109992980957,46.10900115966797 -50.130001068115234,56.59299850463867 C-48.8489990234375,67.0770034790039 -39.8120002746582,72.00199890136719 -23.0939998626709,68.8740005493164 C-23.0939998626709,68.8740005493164 -13.215999603271484,78.94300079345703 -0.050999999046325684,78.15699768066406 C15.14900016784668,77.25 22.993000030517578,68.8740005493164 22.993000030517578,68.8740005493164 C39.37799835205078,71.83200073242188 48.74800109863281,67.0770034790039 50.02899932861328,56.59299850463867 C51.310001373291016,46.10900115966797 43.75699996948242,40.417999267578125 37.16699981689453,33.52899932861328 C30.95599937438965,27.03499984741211 21.742000579833984,0.4519999921321869 20.70400047302246,-27.184999465942383 C20.641000747680664,-28.868000030517578 20.607999801635742,-30.55500030517578 20.607999801635742,-32.242000579833984"></path></g></g><g style="display: block;" transform="matrix(1,0,0,1,256,256.0009765625)" opacity="1"><g opacity="1" transform="matrix(1,0,0,1,0,0)"><path fill="rgb(40,40,40)" fill-opacity="1" d=" M-92.30699920654297,48.80400085449219 C-53.37300109863281,48.27899932861328 -21.861000061035156,14.444000244140625 -21.861000061035156,-24.613000869750977 C-21.746999740600586,-27.5 -11.300999641418457,-33.433998107910156 -0.5370000004768372,-33.433998107910156 C11.423999786376953,-33.433998107910156 22.195999145507812,-26.6200008392334 21.882999420166016,-24.613000869750977 C21.882999420166016,14.770000457763672 53.922000885009766,48.810001373291016 93.30500030517578,48.810001373291016 C93.30500030517578,48.810001373291016 93.30500030517578,38.38600158691406 93.30500030517578,38.38600158691406 C59.66999816894531,38.38600158691406 32.30699920654297,11.022000312805176 32.30699920654297,-22.613000869750977 C32.30699920654297,-56.24800109863281 59.66999816894531,-83.61199951171875 93.30500030517578,-83.61199951171875 C126.94000244140625,-83.61199951171875 154.30499267578125,-56.24800109863281 154.30499267578125,-22.613000869750977 C154.30499267578125,10.552000045776367 127.58699798583984,38.75 92.89900207519531,38.38399887084961 C92.89900207519531,38.38399887084961 92.81600189208984,48.810001373291016 92.81600189208984,48.810001373291016 C133.75399780273438,48.810001373291016 164.58200073242188,16.731000900268555 164.7220001220703,-22.354999542236328 C169.8939971923828,-23.60099983215332 173.4320068359375,-25.80299949645996 172.3470001220703,-30.558000564575195 C171.5760040283203,-33.93899917602539 167.27699279785156,-34.77899932861328 163.656005859375,-34.867000579833984 C157.8260040283203,-68.42900085449219 128.50900268554688,-94.03700256347656 93.30500030517578,-94.03700256347656 C58.84299850463867,-94.03700256347656 30.0049991607666,-69.50399780273438 23.336000442504883,-36.98500061035156 C18.04800033569336,-40.28099822998047 9.845999717712402,-43.933998107910156 -0.5370000004768372,-43.933998107910156 C-10.381999969482422,-43.933998107910156 -18.19499969482422,-40.6510009765625 -23.430999755859375,-37.49399948120117 C-30.297000885009766,-69.75800323486328 -59.00400161743164,-94.03700256347656 -93.28500366210938,-94.03700256347656 C-128.48699951171875,-94.03700256347656 -157.802001953125,-68.43099975585938 -163.63299560546875,-34.87099838256836 C-167.3090057373047,-34.81999969482422 -171.81199645996094,-34.0260009765625 -172.60299682617188,-30.558000564575195 C-173.70700073242188,-25.718000411987305 -170.02200317382812,-23.523000717163086 -164.69900512695312,-22.288999557495117 C-164.5229949951172,16.94499969482422 -132.9969940185547,49.25 -91.91300201416016,48.797000885009766 C-91.91300201416016,48.797000885009766 -92.83000183105469,38.38399887084961 -92.83000183105469,38.38399887084961 C-126.13899993896484,38.00199890136719 -154.2830047607422,10.78499984741211 -154.2830047607422,-22.613000869750977 C-154.2830047607422,-56.24800109863281 -126.91999816894531,-83.61199951171875 -93.28500366210938,-83.61199951171875 C-59.6510009765625,-83.61199951171875 -32.2859992980957,-56.24800109863281 -32.2859992980957,-22.613000869750977 C-32.2859992980957,11.022000312805176 -59.6510009765625,38.38600158691406 -93.28500366210938,38.38600158691406 C-93.28500366210938,38.38600158691406 -92.30699920654297,48.80400085449219 -92.30699920654297,48.80400085449219z"></path></g><g opacity="1" transform="matrix(1,0,0,1,0,0)"><g opacity="0.4" transform="matrix(1,0,0,1,0,0)"><path fill="url(#__lottie_element_14611)" fill-opacity="1" d=" M-32.28300094604492,-18.729999542236328 C-32.28300094604492,14.90999984741211 -59.65299987792969,43.27000045776367 -93.28299713134766,43.27000045776367 C-126.9229965209961,43.27000045776367 -154.2830047607422,14.90999984741211 -154.2830047607422,-18.729999542236328 C-154.2830047607422,-19.3799991607666 -154.2729949951172,-20.030000686645508 -154.2530059814453,-20.670000076293945 C-153.22300720214844,12.069999694824219 -126.27300262451172,38.38999938964844 -93.28299713134766,38.38999938964844 C-60.303001403808594,38.38999938964844 -33.34299850463867,12.069999694824219 -32.3129997253418,-20.670000076293945 C-32.292999267578125,-20.030000686645508 -32.28300094604492,-19.3799991607666 -32.28300094604492,-18.729999542236328z"></path></g><g opacity="0.4" transform="matrix(1,0,0,1,0,0)"><path fill="url(#__lottie_element_14612)" fill-opacity="1" d=" M154.3070068359375,-18.729999542236328 C154.3070068359375,14.90999984741211 126.93699645996094,43.27000045776367 93.30699920654297,43.27000045776367 C59.66699981689453,43.27000045776367 32.30699920654297,14.90999984741211 32.30699920654297,-18.729999542236328 C32.30699920654297,-19.3799991607666 32.31700134277344,-20.030000686645508 32.33700180053711,-20.670000076293945 C33.367000579833984,12.069999694824219 60.31700134277344,38.38999938964844 93.30699920654297,38.38999938964844 C126.28700256347656,38.38999938964844 153.2469940185547,12.069999694824219 154.27699279785156,-20.670000076293945 C154.2969970703125,-20.030000686645508 154.3070068359375,-19.3799991607666 154.3070068359375,-18.729999542236328z"></path></g><g opacity="0.4" transform="matrix(1,0,0,1,0,0)"><path fill="url(#__lottie_element_14613)" fill-opacity="1" d=" M172.0070037841797,-26.6200008392334 C170.7169952392578,-29.209999084472656 166.90699768066406,-29.90999984741211 163.65699768066406,-29.979999542236328 C157.82699584960938,-63.54999923706055 128.5070037841797,-89.1500015258789 93.30699920654297,-89.1500015258789 C60.60200119018555,-89.1500015258789 32.959999084472656,-67.05500030517578 24.527000427246094,-37.005001068115234 C23.854000091552734,-34.60599899291992 21.20400047302246,-33.48899841308594 18.93899917602539,-34.52799987792969 C3.9200000762939453,-41.41600036621094 -9.246999740600586,-39.75 -19.097000122070312,-34.917999267578125 C-21.302000045776367,-33.83599853515625 -23.948999404907227,-35.034000396728516 -24.625999450683594,-37.39500045776367 C-33.18299865722656,-67.24099731445312 -60.720001220703125,-89.1500015258789 -93.28299713134766,-89.1500015258789 C-128.48300170898438,-89.1500015258789 -157.80299377441406,-63.54999923706055 -163.63299560546875,-29.989999771118164 C-166.9429931640625,-29.940000534057617 -170.92300415039062,-29.290000915527344 -172.2530059814453,-26.6299991607666 C-172.81300354003906,-27.700000762939453 -172.96299743652344,-28.989999771118164 -172.60299682617188,-30.559999465942383 C-171.81300354003906,-34.029998779296875 -167.31300354003906,-34.81999969482422 -163.63299560546875,-34.869998931884766 C-157.80299377441406,-68.43000030517578 -128.48300170898438,-94.04000091552734 -93.28299713134766,-94.04000091552734 C-59.00299835205078,-94.04000091552734 -30.292999267578125,-69.76000213623047 -23.433000564575195,-37.4900016784668 C-18.19300079345703,-40.650001525878906 -10.383000373840332,-43.93000030517578 -0.5329999923706055,-43.93000030517578 C9.847000122070312,-43.93000030517578 18.047000885009766,-40.279998779296875 23.336999893188477,-36.9900016784668 C30.006999969482422,-69.5 58.84700012207031,-94.04000091552734 93.30699920654297,-94.04000091552734 C128.5070037841797,-94.04000091552734 157.82699584960938,-68.43000030517578 163.65699768066406,-34.869998931884766 C167.27699279785156,-34.779998779296875 171.57699584960938,-33.939998626708984 172.3470001220703,-30.559999465942383 C172.70700073242188,-28.989999771118164 172.5570068359375,-27.690000534057617 172.0070037841797,-26.6200008392334z"></path></g></g></g><g style="display: none;"><g><path></path></g><g><g><path></path></g><g><path></path></g></g><g><path stroke-linecap="round" stroke-linejoin="round" fill-opacity="0"></path></g></g><g style="display: none;"><g><g><path></path></g><g><path></path></g><g><path stroke-linecap="round" stroke-linejoin="round" fill-opacity="0"></path></g><g><path></path></g><g><path></path></g><g><path stroke-linecap="round" stroke-linejoin="round" fill-opacity="0"></path></g></g><g><g><path></path></g><g><path></path></g><g><path stroke-linecap="round" stroke-linejoin="round" fill-opacity="0"></path></g></g><g><g><path></path></g><g><path></path></g><g><path stroke-linecap="round" stroke-linejoin="round" fill-opacity="0"></path></g></g><g><g><path></path></g><g><path></path></g><g><path stroke-linecap="round" stroke-linejoin="round" fill-opacity="0"></path></g><g><path stroke-linecap="round" stroke-linejoin="round" fill-opacity="0"></path></g></g><g><g><path></path></g><g><path stroke-linecap="round" stroke-linejoin="round" fill-opacity="0"></path></g></g></g><g style="display: none;"><g><path></path><path stroke-linecap="round" stroke-linejoin="round" fill-opacity="0"></path></g></g></g></svg>