<svg xmlns="http://www.w3.org/2000/svg" viewBox="0 0 512 512" width="512" height="512" style="width: 100%; height: 100%; transform: translate3d(0,0,0);" preserveAspectRatio="xMidYMid meet"><defs><clipPath id="__lottie_element_14645"><rect width="512" height="512" x="0" y="0"></rect></clipPath></defs><g clip-path="url(#__lottie_element_14645)"><g style="display: block;" transform="matrix(0.9599999785423279,0,0,0.9599999785423279,264.08929443359375,291.4222106933594)" opacity="0.3"><g opacity="1" transform="matrix(1,0,0,1,0,0)"><path fill="rgb(244,0,128)" fill-opacity="1" d=" M-31.25200080871582,188.2969970703125 C-23.930999755859375,195.71299743652344 -17.64299964904785,201.96200561523438 -12.89799976348877,206.6269989013672 C-8.46500015258789,210.98500061035156 -1.2660000324249268,210.97500610351562 3.1710000038146973,206.6269989013672 C12.654999732971191,197.3350067138672 17.108999252319336,193.02999877929688 21.674999237060547,188.22999572753906 C4.894000053405762,195.77999877929688 -14.454999923706055,195.80299377441406 -31.25200080871582,188.2969970703125z"></path></g><g opacity="1" transform="matrix(1,0,0,1,0,0)"><g opacity="1" transform="matrix(1,0,0,1,0,0)"><path fill="rgb(250,75,180)" fill-opacity="1" d=" M-4.875999927520752,-60.757999420166016 C-20.367000579833984,-75.84700012207031 -81.48100280761719,-95.05400085449219 -123.2300033569336,-64.89299774169922 C-172.86199951171875,-29.03700065612793 -152.61900329589844,25.195999145507812 -151.8560028076172,27.007999420166016 C-158.24200439453125,15.868000030517578 -162.88699340820312,5.489999771118164 -166.19200134277344,-4.229000091552734 C-165.947998046875,-24.29800033569336 -158.9810028076172,-50.308998107910156 -130.7310028076172,-70.71800231933594 C-90.6050033569336,-99.70700073242188 -33.659000396728516,-85.80799865722656 -10.91100025177002,-71.01599884033203 C-7.077000141143799,-65.03199768066406 -5.002999782562256,-61.00899887084961 -4.875999927520752,-60.757999420166016z"></path></g><g opacity="1" transform="matrix(1,0,0,1,0,0)"><path fill="rgb(253,84,185)" fill-opacity="1" d=" M-10.91100025177002,-71.01599884033203 C-33.659000396728516,-85.80799865722656 -90.5999984741211,-99.69999694824219 -130.7310028076172,-70.71800231933594 C-158.98399353027344,-50.31399917602539 -165.947998046875,-24.29800033569336 -166.19200134277344,-4.229000091552734 C-167.65899658203125,-8.531000137329102 -168.8520050048828,-12.70300006866455 -169.81100463867188,-16.753999710083008 C-167.17999267578125,-35.16999816894531 -158.0679931640625,-56.2400016784668 -134.2519989013672,-73.44999694824219 C-94.5459976196289,-102.14199829101562 -38.83100128173828,-89.97899627685547 -13.854000091552734,-75.46600341796875 C-12.777999877929688,-73.89600372314453 -11.800999641418457,-72.4000015258789 -10.91100025177002,-71.01599884033203z"></path></g><g opacity="1" transform="matrix(1,0,0,1,0,0)"><path fill="rgb(253,99,190)" fill-opacity="1" d=" M-13.854000091552734,-75.46600341796875 C-38.83100128173828,-89.97899627685547 -94.53399658203125,-102.12300109863281 -134.2519989013672,-73.44999694824219 C-158.0749969482422,-56.25199890136719 -167.17999267578125,-35.16999816894531 -169.81100463867188,-16.753999710083008 C-171.19000244140625,-22.52400016784668 -172.10899353027344,-28.05299949645996 -172.63699340820312,-33.358001708984375 C-167.6490020751953,-48.36399841308594 -157.69700622558594,-63.95399856567383 -139.22000122070312,-77.30599975585938 C-100.00299835205078,-105.6449966430664 -45.736000061035156,-95.60099792480469 -18.215999603271484,-81.58000183105469 C-16.621999740600586,-79.44300079345703 -15.173999786376953,-77.38899993896484 -13.854000091552734,-75.46600341796875z"></path></g><g opacity="1" transform="matrix(1,0,0,1,0,0)"><path fill="rgb(250,114,194)" fill-opacity="1" d=" M-18.215999603271484,-81.58000183105469 C-45.736000061035156,-95.60099792480469 -99.98999786376953,-105.6240005493164 -139.22000122070312,-77.30599975585938 C-157.70399475097656,-63.9640007019043 -167.6490020751953,-48.36399841308594 -172.63699340820312,-33.358001708984375 C-173.1750030517578,-38.691001892089844 -173.33200073242188,-43.80099868774414 -173.19500732421875,-48.707000732421875 C-167.19000244140625,-59.99599838256836 -157.9759979248047,-71.18000030517578 -144.16900634765625,-81.15299987792969 C-105.41200256347656,-109.14800262451172 -52.49399948120117,-101.00900268554688 -22.90999984741211,-87.60099792480469 C-21.22800064086914,-85.5479965209961 -19.663999557495117,-83.53099822998047 -18.215999603271484,-81.58000183105469z"></path></g><g opacity="1" transform="matrix(1,0,0,1,0,0)"><path fill="rgb(253,124,200)" fill-opacity="1" d=" M-22.90999984741211,-87.60099792480469 C-52.49399948120117,-101.00900268554688 -105.40599822998047,-109.13899993896484 -144.16900634765625,-81.15299987792969 C-157.97799682617188,-71.18299865722656 -167.19000244140625,-59.99599838256836 -173.19500732421875,-48.707000732421875 C-173.156005859375,-50.630001068115234 -173.05799865722656,-52.5260009765625 -172.93099975585938,-54.38399887084961 C-172.7259979248047,-57.375999450683594 -172.31399536132812,-60.49800109863281 -171.70799255371094,-63.694000244140625 C-166.01600646972656,-71.18299865722656 -158.7100067138672,-78.45700073242188 -149.38099670410156,-85.19400024414062 C-111.14199829101562,-112.80799865722656 -59.643001556396484,-106.53700256347656 -28.288999557495117,-93.89099884033203 C-26.381999969482422,-91.78199768066406 -24.591999053955078,-89.6729965209961 -22.90999984741211,-87.60099792480469z"></path></g><g opacity="1" transform="matrix(1,0,0,1,0,0)"><path fill="rgb(251,138,204)" fill-opacity="1" d=" M-28.288999557495117,-93.89099884033203 C-59.643001556396484,-106.53700256347656 -111.13999938964844,-112.80400085449219 -149.38099670410156,-85.19400024414062 C-158.71099853515625,-78.45800018310547 -166.01600646972656,-71.18299865722656 -171.70799255371094,-63.694000244140625 C-170.8769989013672,-68.04199981689453 -169.6540069580078,-72.53900146484375 -168.031005859375,-77.0270004272461 C-163.9530029296875,-81.09700012207031 -159.3260040283203,-85.04499816894531 -154.0749969482422,-88.83699798583984 C-116.4229965209961,-116.03299713134766 -66.3030014038086,-111.39600372314453 -33.667999267578125,-99.5770034790039 C-31.790000915527344,-97.69100189208984 -30.000999450683594,-95.78600311279297 -28.288999557495117,-93.89099884033203z"></path></g><g opacity="1" transform="matrix(1,0,0,1,0,0)"><path fill="rgb(255,148,212)" fill-opacity="1" d=" M-33.667999267578125,-99.5770034790039 C-66.3030014038086,-111.39600372314453 -116.41600036621094,-116.02200317382812 -154.0749969482422,-88.83699798583984 C-159.32699584960938,-85.0459976196289 -163.9530029296875,-81.09700012207031 -168.031005859375,-77.0270004272461 C-166.21200561523438,-82.05400085449219 -163.88400268554688,-87.08999633789062 -161.0189971923828,-91.93099975585938 C-160.52000427246094,-92.3030014038086 -160.01300048828125,-92.677001953125 -159.5030059814453,-93.0459976196289 C-122.7509994506836,-119.60099792480469 -74.52799987792969,-116.86900329589844 -40.78799819946289,-106.2300033569336 C-38.29399871826172,-104.0739974975586 -35.91699981689453,-101.83499908447266 -33.667999267578125,-99.5770034790039z"></path></g><g opacity="1" transform="matrix(1,0,0,1,0,0)"><path fill="rgb(255,161,216)" fill-opacity="1" d=" M-40.78799819946289,-106.2300033569336 C-74.52799987792969,-116.86900329589844 -122.7509994506836,-119.60099792480469 -159.5030059814453,-93.0459976196289 C-160.01199340820312,-92.67400360107422 -160.52000427246094,-92.3030014038086 -161.0189971923828,-91.93099975585938 C-158.7310028076172,-95.78700256347656 -156.11000061035156,-99.53099822998047 -153.11700439453125,-103.052001953125 C-119.13300323486328,-121.8759994506836 -78.28199768066406,-120.09300231933594 -47.31999969482422,-111.50800323486328 C-45.06100082397461,-109.81700134277344 -42.88100051879883,-108.0510025024414 -40.78799819946289,-106.2300033569336z"></path></g><g opacity="1" transform="matrix(1,0,0,1,0,0)"><path fill="rgb(255,173,222)" fill-opacity="1" d=" M-47.31999969482422,-111.50800323486328 C-78.28199768066406,-120.09300231933594 -119.13300323486328,-121.8759994506836 -153.11700439453125,-103.052001953125 C-150.53500366210938,-106.0999984741211 -147.68899536132812,-108.98100280761719 -144.55999755859375,-111.63800048828125 C-114.57599639892578,-123.86499786376953 -81.05999755859375,-122.63899993896484 -53.84299850463867,-116.04199981689453 C-51.60300064086914,-114.61100006103516 -49.42300033569336,-113.08799743652344 -47.31999969482422,-111.50800323486328z"></path></g><g opacity="1" transform="matrix(1,0,0,1,0,0)"><path fill="rgb(255,188,227)" fill-opacity="1" d=" M-53.84299850463867,-116.04199981689453 C-81.05999755859375,-122.63899993896484 -114.57599639892578,-123.86499786376953 -144.55999755859375,-111.63800048828125 C-141.4010009765625,-114.322998046875 -137.96800231933594,-116.7760009765625 -134.23199462890625,-118.94100189208984 C-109.71399688720703,-125.78900146484375 -83.84700012207031,-124.96099853515625 -61.43199920654297,-120.41799926757812 C-58.82099914550781,-119.08000183105469 -56.29800033569336,-117.61199951171875 -53.84299850463867,-116.04199981689453z"></path></g><g opacity="1" transform="matrix(1,0,0,1,0,0)"><path fill="rgb(255,202,232)" fill-opacity="1" d=" M-61.43199920654297,-120.41799926757812 C-83.84700012207031,-124.96099853515625 -109.71399688720703,-125.78900146484375 -134.23199462890625,-118.94100189208984 C-130.36900329589844,-121.18000030517578 -126.19400024414062,-123.10299682617188 -121.68499755859375,-124.65499877929688 C-104.23799896240234,-127.46099853515625 -86.59600067138672,-126.9219970703125 -70.36100006103516,-124.36699676513672 C-67.29000091552734,-123.2239990234375 -64.31700134277344,-121.90499877929688 -61.43199920654297,-120.41799926757812z"></path></g><g opacity="1" transform="matrix(1,0,0,1,0,0)"><path fill="rgb(255,211,240)" fill-opacity="1" d=" M-70.4020004272461,-124.37300109863281 C-77.52300262451172,-127.01200103759766 -85.12999725341797,-128.6439971923828 -93.18699645996094,-128.81900024414062 C-103.83200073242188,-129.0500030517578 -113.28199768066406,-127.51200103759766 -121.62000274658203,-124.66500091552734 C-104.20899963378906,-127.45700073242188 -86.6050033569336,-126.91999816894531 -70.4020004272461,-124.37300109863281z"></path></g></g><g opacity="1" transform="matrix(1,0,0,1,0,0)"><g opacity="1" transform="matrix(1,0,0,1,0,0)"><path fill="rgb(250,75,180)" fill-opacity="1" d=" M-4.875999927520752,-60.757999420166016 C10.614999771118164,-75.84700012207031 71.72799682617188,-95.05400085449219 113.47699737548828,-64.89299774169922 C163.10899353027344,-29.03700065612793 142.86599731445312,25.195999145507812 142.10299682617188,27.007999420166016 C148.48899841308594,15.868000030517578 153.13400268554688,5.489999771118164 156.43899536132812,-4.229000091552734 C156.19400024414062,-24.29800033569336 149.22799682617188,-50.308998107910156 120.97799682617188,-70.71800231933594 C80.85199737548828,-99.70700073242188 23.905000686645508,-85.80799865722656 1.1579999923706055,-71.01599884033203 C-2.6760001182556152,-65.03199768066406 -4.749000072479248,-61.00899887084961 -4.875999927520752,-60.757999420166016z"></path></g><g opacity="1" transform="matrix(1,0,0,1,0,0)"><path fill="rgb(253,84,185)" fill-opacity="1" d=" M1.1579999923706055,-71.01599884033203 C23.905000686645508,-85.80799865722656 80.84700012207031,-99.69999694824219 120.97799682617188,-70.71800231933594 C149.2310028076172,-50.31399917602539 156.19400024414062,-24.29800033569336 156.43899536132812,-4.229000091552734 C157.906005859375,-8.531000137329102 159.10000610351562,-12.70300006866455 160.05799865722656,-16.753999710083008 C157.427001953125,-35.16999816894531 148.31500244140625,-56.2400016784668 124.4990005493164,-73.44999694824219 C84.79299926757812,-102.14199829101562 29.077999114990234,-89.97899627685547 4.10099983215332,-75.46600341796875 C3.0250000953674316,-73.89600372314453 2.0480000972747803,-72.4000015258789 1.1579999923706055,-71.01599884033203z"></path></g><g opacity="1" transform="matrix(1,0,0,1,0,0)"><path fill="rgb(253,99,190)" fill-opacity="1" d=" M4.10099983215332,-75.46600341796875 C29.077999114990234,-89.97899627685547 84.78099822998047,-102.12300109863281 124.4990005493164,-73.44999694824219 C148.32200622558594,-56.25199890136719 157.427001953125,-35.16999816894531 160.05799865722656,-16.753999710083008 C161.43699645996094,-22.52400016784668 162.3560028076172,-28.05299949645996 162.88400268554688,-33.358001708984375 C157.89599609375,-48.36399841308594 147.94400024414062,-63.95399856567383 129.4669952392578,-77.30599975585938 C90.25,-105.6449966430664 35.983001708984375,-95.60099792480469 8.463000297546387,-81.58000183105469 C6.86899995803833,-79.44300079345703 5.421000003814697,-77.38899993896484 4.10099983215332,-75.46600341796875z"></path></g><g opacity="1" transform="matrix(1,0,0,1,0,0)"><path fill="rgb(250,114,194)" fill-opacity="1" d=" M8.463000297546387,-81.58000183105469 C35.983001708984375,-95.60099792480469 90.23699951171875,-105.6240005493164 129.4669952392578,-77.30599975585938 C147.9510040283203,-63.9640007019043 157.89599609375,-48.36399841308594 162.88400268554688,-33.358001708984375 C163.4219970703125,-38.691001892089844 163.57899475097656,-43.80099868774414 163.44200134277344,-48.707000732421875 C157.43699645996094,-59.99599838256836 148.22300720214844,-71.18000030517578 134.41600036621094,-81.15299987792969 C95.65899658203125,-109.14800262451172 42.74100112915039,-101.00900268554688 13.156999588012695,-87.60099792480469 C11.475000381469727,-85.5479965209961 9.90999984741211,-83.53099822998047 8.463000297546387,-81.58000183105469z"></path></g><g opacity="1" transform="matrix(1,0,0,1,0,0)"><path fill="rgb(253,124,200)" fill-opacity="1" d=" M13.156999588012695,-87.60099792480469 C42.74100112915039,-101.00900268554688 95.65299987792969,-109.13899993896484 134.41600036621094,-81.15299987792969 C148.22500610351562,-71.18299865722656 157.43699645996094,-59.99599838256836 163.44200134277344,-48.707000732421875 C163.4029998779297,-50.630001068115234 163.30599975585938,-52.5260009765625 163.17799377441406,-54.38399887084961 C162.97300720214844,-57.375999450683594 162.56100463867188,-60.49800109863281 161.9550018310547,-63.694000244140625 C156.26300048828125,-71.18299865722656 148.95700073242188,-78.45700073242188 139.6280059814453,-85.19400024414062 C101.38899993896484,-112.80799865722656 49.88999938964844,-106.53700256347656 18.535999298095703,-93.89099884033203 C16.628999710083008,-91.78199768066406 14.83899974822998,-89.6729965209961 13.156999588012695,-87.60099792480469z"></path></g><g opacity="1" transform="matrix(1,0,0,1,0,0)"><path fill="rgb(251,138,204)" fill-opacity="1" d=" M18.535999298095703,-93.89099884033203 C49.88999938964844,-106.53700256347656 101.38700103759766,-112.80400085449219 139.6280059814453,-85.19400024414062 C148.95799255371094,-78.45800018310547 156.26300048828125,-71.18299865722656 161.9550018310547,-63.694000244140625 C161.12399291992188,-68.04199981689453 159.9010009765625,-72.53900146484375 158.2779998779297,-77.0270004272461 C154.1999969482422,-81.09700012207031 149.57400512695312,-85.04499816894531 144.322998046875,-88.83699798583984 C106.6709976196289,-116.03299713134766 56.54999923706055,-111.39600372314453 23.915000915527344,-99.5770034790039 C22.03700065612793,-97.69100189208984 20.24799919128418,-95.78600311279297 18.535999298095703,-93.89099884033203z"></path></g><g opacity="1" transform="matrix(1,0,0,1,0,0)"><path fill="rgb(255,148,212)" fill-opacity="1" d=" M23.915000915527344,-99.5770034790039 C56.54999923706055,-111.39600372314453 106.66400146484375,-116.02200317382812 144.322998046875,-88.83699798583984 C149.5749969482422,-85.0459976196289 154.1999969482422,-81.09700012207031 158.2779998779297,-77.0270004272461 C156.45899963378906,-82.05400085449219 154.13099670410156,-87.08999633789062 151.26600646972656,-91.93099975585938 C150.76699829101562,-92.3030014038086 150.25999450683594,-92.677001953125 149.75,-93.0459976196289 C112.99800109863281,-119.60099792480469 64.7750015258789,-116.86900329589844 31.03499984741211,-106.2300033569336 C28.541000366210938,-104.0739974975586 26.163999557495117,-101.83499908447266 23.915000915527344,-99.5770034790039z"></path></g><g opacity="1" transform="matrix(1,0,0,1,0,0)"><path fill="rgb(255,161,216)" fill-opacity="1" d=" M31.03499984741211,-106.2300033569336 C64.7750015258789,-116.86900329589844 112.99800109863281,-119.60099792480469 149.75,-93.0459976196289 C150.25900268554688,-92.67400360107422 150.76699829101562,-92.3030014038086 151.26600646972656,-91.93099975585938 C148.97799682617188,-95.78700256347656 146.35699462890625,-99.53099822998047 143.36399841308594,-103.052001953125 C109.37999725341797,-121.8759994506836 68.52999877929688,-120.09300231933594 37.56700134277344,-111.50800323486328 C35.30799865722656,-109.81700134277344 33.12799835205078,-108.0510025024414 31.03499984741211,-106.2300033569336z"></path></g><g opacity="1" transform="matrix(1,0,0,1,0,0)"><path fill="rgb(255,173,222)" fill-opacity="1" d=" M37.56700134277344,-111.50800323486328 C68.52999877929688,-120.09300231933594 109.37999725341797,-121.8759994506836 143.36399841308594,-103.052001953125 C140.78199768066406,-106.0999984741211 137.93699645996094,-108.98100280761719 134.8070068359375,-111.63800048828125 C104.8219985961914,-123.86499786376953 71.30799865722656,-122.63899993896484 44.090999603271484,-116.04199981689453 C41.85100173950195,-114.61100006103516 39.66999816894531,-113.08799743652344 37.56700134277344,-111.50800323486328z"></path></g><g opacity="1" transform="matrix(1,0,0,1,0,0)"><path fill="rgb(255,188,227)" fill-opacity="1" d=" M44.090999603271484,-116.04199981689453 C71.30799865722656,-122.63899993896484 104.8219985961914,-123.86499786376953 134.8070068359375,-111.63800048828125 C131.6479949951172,-114.322998046875 128.21600341796875,-116.7760009765625 124.4800033569336,-118.94100189208984 C99.96199798583984,-125.78900146484375 74.09400177001953,-124.96099853515625 51.67900085449219,-120.41799926757812 C49.06800079345703,-119.08000183105469 46.54600143432617,-117.61199951171875 44.090999603271484,-116.04199981689453z"></path></g><g opacity="1" transform="matrix(1,0,0,1,0,0)"><path fill="rgb(255,202,232)" fill-opacity="1" d=" M51.67900085449219,-120.41799926757812 C74.09400177001953,-124.96099853515625 99.96199798583984,-125.78900146484375 124.4800033569336,-118.94100189208984 C120.61699676513672,-121.18000030517578 116.44100189208984,-123.10299682617188 111.93199920654297,-124.65499877929688 C94.48500061035156,-127.46099853515625 76.84200286865234,-126.9219970703125 60.608001708984375,-124.36699676513672 C57.5369987487793,-123.2239990234375 54.56399917602539,-121.90499877929688 51.67900085449219,-120.41799926757812z"></path></g><g opacity="1" transform="matrix(1,0,0,1,0,0)"><path fill="rgb(255,211,240)" fill-opacity="1" d=" M111.91200256347656,-124.65799713134766 C103.56900024414062,-127.50900268554688 94.11299896240234,-129.0500030517578 83.45999908447266,-128.81900024414062 C75.41000366210938,-128.6439971923828 67.80699920654297,-127.01399993896484 60.691001892089844,-124.37899780273438 C76.89600372314453,-126.9219970703125 94.5009994506836,-127.45500183105469 111.91200256347656,-124.65799713134766z"></path></g></g><g opacity="1" transform="matrix(1,0,0,1,0,0)"><path fill="rgb(197,0,107)" fill-opacity="1" d=" M-4.861000061035156,219.33200073242188 C-9.894000053405762,219.33200073242188 -14.928000450134277,217.40499877929688 -18.85099983215332,213.54600524902344 C-41.1870002746582,191.5760040283203 -97.36599731445312,134.9810028076172 -136.5570068359375,84.06300354003906 C-191.38299560546875,12.831000328063965 -196.61300659179688,-30.841999053955078 -194.5,-64.16999816894531 C-193.14199829101562,-85.59400177001953 -183.5260009765625,-108.16100311279297 -168.77999877929688,-124.53800201416016 C-156.14300537109375,-138.57200622558594 -133.57899475097656,-155.1219940185547 -97.94499969482422,-154.2760009765625 C-47.72800064086914,-153.08299255371094 -15.630000114440918,-111.30899810791016 -4.863999843597412,-94.73999786376953 C5.901000022888184,-111.30899810791016 37.999000549316406,-153.07699584960938 88.21700286865234,-154.2760009765625 C123.87100219726562,-155.1269989013672 146.41600036621094,-138.57200622558594 159.05299377441406,-124.53800201416016 C173.8000030517578,-108.16100311279297 183.41400146484375,-85.59400177001953 184.7729949951172,-64.16999816894531 C184.7729949951172,-64.16999816894531 184.7729949951172,-64.16999816894531 184.7729949951172,-64.16999816894531 C186.88699340820312,-30.841999053955078 181.5970001220703,12.78600025177002 126.83000183105469,84.06300354003906 C99.03500366210938,120.23699951171875 62.986000061035156,158.91600036621094 37.638999938964844,184.9929962158203 C28.235000610351562,194.61500549316406 18.624000549316406,204.20199584960938 9.118000030517578,213.552001953125 C5.201000213623047,217.4040069580078 0.17000000178813934,219.33200073242188 -4.861000061035156,219.33200073242188z M-100.54100036621094,-144.906005859375 C-131.6179962158203,-144.906005859375 -151.31199645996094,-130.3820037841797 -162.44500732421875,-118.01799774169922 C-175.8000030517578,-103.18599700927734 -184.50399780273438,-82.81800079345703 -185.7270050048828,-63.534000396728516 C-187.7239990234375,-32.04899978637695 -182.63699340820312,9.39799976348877 -129.76699829101562,78.08799743652344 C-90.9260025024414,128.552001953125 -35.10300064086914,184.79600524902344 -12.89799976348877,206.6269989013672 C-8.46500015258789,210.98500061035156 -1.2660000324249268,210.97500610351562 3.1710000038146973,206.6269989013672 C12.654999732971191,197.3350067138672 22.201000213623047,187.77699279785156 31.551000595092773,178.21099853515625 C56.71900177001953,152.3159942626953 92.48100280761719,113.8949966430664 120.03800201416016,78.09200286865234 C172.91000366210938,9.39900016784668 177.9969940185547,-32.04899978637695 175.99899291992188,-63.534000396728516 C175.99899291992188,-63.534000396728516 175.99899291992188,-63.534000396728516 175.99899291992188,-63.534000396728516 C174.7760009765625,-82.81800079345703 166.072998046875,-103.18599700927734 152.71800231933594,-118.01799774169922 C141.30099487304688,-130.69700622558594 120.88800048828125,-145.64999389648438 88.41300201416016,-144.8780059814453 C39.606998443603516,-143.71800231933594 9.043999671936035,-100.2760009765625 0.8429999947547913,-86.98600006103516 C-0.41200000047683716,-84.9520034790039 -2.5460000038146973,-83.73799896240234 -4.863999843597412,-83.73799896240234 C-7.182000160217285,-83.73799896240234 -9.3149995803833,-84.9530029296875 -10.569999694824219,-86.98600006103516 C-18.77400016784668,-100.27400207519531 -49.33599853515625,-143.71800231933594 -98.13999938964844,-144.8780059814453 C-98.9469985961914,-144.89700317382812 -99.7490005493164,-144.906005859375 -100.54100036621094,-144.906005859375z"></path></g><g opacity="1" transform="matrix(1,0,0,1,0,0)"><path fill="rgb(253,36,155)" fill-opacity="1" d=" M111.53800201416016,69.93699645996094 C98.06999969482422,85.90699768066406 82.41500091552734,103.08999633789062 67.03700256347656,119.37999725341797 C28.023000717163086,160.70700073242188 -37.750999450683594,160.70700073242188 -76.76399993896484,119.37999725341797 C-92.14199829101562,103.08999633789062 -107.7969970703125,85.90699768066406 -121.26499938964844,69.93699645996094 C-166.90699768066406,15.814000129699707 -175.08799743652344,-23.400999069213867 -172.93499755859375,-54.38399887084961 C-170.78199768066406,-85.36699676513672 -147.4409942626953,-129.99600219726562 -93.18699645996094,-128.81900024414062 C-38.93299865722656,-127.64199829101562 -4.86299991607666,-60.749000549316406 -4.86299991607666,-60.749000549316406 C-4.86299991607666,-60.749000549316406 29.207000732421875,-127.64299774169922 83.45999908447266,-128.81900024414062 C137.71299743652344,-129.9949951171875 161.05499267578125,-85.36699676513672 163.20799255371094,-54.38399887084961 C165.36099243164062,-23.400999069213867 157.17999267578125,15.814000129699707 111.53800201416016,69.93699645996094z M175.99899291992188,-63.534000396728516 C174.7760009765625,-82.81800079345703 166.072998046875,-103.18599700927734 152.71800231933594,-118.01799774169922 C141.30099487304688,-130.69700622558594 120.88800048828125,-145.64999389648438 88.41300201416016,-144.8780059814453 C39.606998443603516,-143.71800231933594 9.043999671936035,-100.2760009765625 0.8429999947547913,-86.98600006103516 C-0.41200000047683716,-84.9520034790039 -2.546999931335449,-83.73799896240234 -4.863999843597412,-83.73799896240234 C-7.182000160217285,-83.73799896240234 -9.3149995803833,-84.9530029296875 -10.569999694824219,-86.98600006103516 C-18.77400016784668,-100.27400207519531 -49.33599853515625,-143.71800231933594 -98.13999938964844,-144.8780059814453 C-98.9469985961914,-144.89700317382812 -99.7490005493164,-144.906005859375 -100.54100036621094,-144.906005859375 C-131.6179962158203,-144.906005859375 -151.31199645996094,-130.3820037841797 -162.44500732421875,-118.01799774169922 C-175.8000030517578,-103.18599700927734 -184.50399780273438,-82.81800079345703 -185.7270050048828,-63.534000396728516 C-187.7239990234375,-32.04899978637695 -182.63699340820312,9.39799976348877 -129.76699829101562,78.08799743652344 C-99.22599792480469,117.76799774169922 -58.191001892089844,161.00799560546875 -31.25200080871582,188.2969970703125 C-14.454999923706055,195.80299377441406 4.894000053405762,195.77999877929688 21.674999237060547,188.22999572753906 C24.98200035095215,184.89700317382812 28.290000915527344,181.5659942626953 31.551000595092773,178.21099853515625 C56.71900177001953,152.3159942626953 92.48100280761719,113.8949966430664 120.03800201416016,78.09200286865234 C172.91000366210938,9.39900016784668 177.9949951171875,-32.04899978637695 175.99899291992188,-63.534000396728516z"></path></g><g opacity="1" transform="matrix(1,0,0,1,0,0)"><path fill="rgb(252,60,175)" fill-opacity="1" d=" M142.1840057373047,26.638999938964844 C142.25900268554688,26.43400001525879 142.3489990234375,26.18000030517578 142.4510040283203,25.881000518798828 C142.5019989013672,25.731000900268555 142.55499267578125,25.56999969482422 142.61199951171875,25.398000717163086 C145.447998046875,16.790000915527344 155.06199645996094,-19.763999938964844 128.843994140625,-50.500999450683594 C128.32000732421875,-51.11600112915039 127.77999877929688,-51.72800064086914 127.22699737548828,-52.3380012512207 C125.56700134277344,-54.167999267578125 123.77400207519531,-55.9739990234375 121.84100341796875,-57.749000549316406 C121.19599914550781,-58.340999603271484 120.53700256347656,-58.92900085449219 119.86100006103516,-59.513999938964844 C118.50900268554688,-60.68299865722656 117.09100341796875,-61.8380012512207 115.60800170898438,-62.97600173950195 C114.86599731445312,-63.54499816894531 114.10700225830078,-64.11000061035156 113.33200073242188,-64.66999816894531 C110.06999969482422,-67.0260009765625 106.69100189208984,-69.08100128173828 103.2239990234375,-70.86000061035156 C83.80899810791016,-80.822998046875 61.659000396728516,-82.13800048828125 42.215999603271484,-79.28099822998047 C39.4379997253418,-78.87300109863281 36.71500015258789,-78.37999725341797 34.06399917602539,-77.81500244140625 C31.413000106811523,-77.25 28.83300018310547,-76.61199951171875 26.34000015258789,-75.91600036621094 C25.716999053955078,-75.74199676513672 25.099000930786133,-75.56400299072266 24.48699951171875,-75.38300323486328 C11.020000457763672,-71.39600372314453 0.30399999022483826,-65.72200012207031 -5.020999908447266,-60.53499984741211 C-5.020999908447266,-60.53499984741211 -5.020999908447266,-60.53499984741211 -5.020999908447266,-60.53499984741211 C-5.020999908447266,-60.53499984741211 -5.020999908447266,-60.53499984741211 -5.020999908447266,-60.53499984741211 C-14.461000442504883,-69.7300033569336 -40.84299850463867,-80.4540023803711 -69.45999908447266,-80.60399627685547 C-87.80400085449219,-80.69999694824219 -107.06700134277344,-76.4520034790039 -123.375,-64.66999816894531 C-172.30099487304688,-29.323999404907227 -153.3260040283203,23.878000259399414 -152.04600524902344,27.1200008392334 C-144.48199462890625,40.332000732421875 -134.4949951171875,54.60499954223633 -121.4229965209961,70.10600280761719 C-107.95500183105469,86.07599639892578 -92.30000305175781,103.25900268554688 -76.9219970703125,119.54900360107422 C-37.90800094604492,160.87600708007812 27.864999771118164,160.87600708007812 66.87899780273438,119.54900360107422 C82.25700378417969,103.25900268554688 97.91200256347656,86.07599639892578 111.37999725341797,70.10600280761719 C124.4520034790039,54.60499954223633 134.43899536132812,40.33100128173828 142.0030059814453,27.118999481201172 C142.0449981689453,27.011999130249023 142.1060028076172,26.85300064086914 142.1840057373047,26.638999938964844z"></path></g></g><g style="display: block;" transform="matrix(0.9599999785423279,0,0,0.9599999785423279,264.0889587402344,291.42205810546875)" opacity="0.5"><g opacity="1" transform="matrix(1,0,0,1,0,0)"><path fill="rgb(244,0,128)" fill-opacity="1" d=" M-27.16699981689453,172.677001953125 C-20.979000091552734,178.6929931640625 -15.664999961853027,183.76300048828125 -11.654000282287598,187.5469970703125 C-7.9070000648498535,191.08299255371094 -1.8229999542236328,191.07400512695312 1.9270000457763672,187.5469970703125 C9.942000389099121,180.00900268554688 13.706999778747559,176.51699829101562 17.56599998474121,172.6230010986328 C3.382999897003174,178.7480010986328 -12.970999717712402,178.76600646972656 -27.16699981689453,172.677001953125z"></path></g><g opacity="1" transform="matrix(1,0,0,1,0,0)"><g opacity="1" transform="matrix(1,0,0,1,0,0)"><path fill="rgb(250,75,180)" fill-opacity="1" d=" M-4.874000072479248,-29.356000900268555 C-17.965999603271484,-41.59600067138672 -69.61900329589844,-57.17599868774414 -104.90399932861328,-32.709999084472656 C-146.8520050048828,-3.624000072479248 -129.7429962158203,40.369998931884766 -129.09800720214844,41.84000015258789 C-134.4949951171875,32.803001403808594 -138.4219970703125,24.384000778198242 -141.21499633789062,16.5 C-141.00799560546875,0.2199999988079071 -135.1199951171875,-20.8799991607666 -111.24400329589844,-37.43600082397461 C-77.33000183105469,-60.95199966430664 -29.200000762939453,-49.67599868774414 -9.973999977111816,-37.676998138427734 C-6.734000205993652,-32.823001861572266 -4.980999946594238,-29.55900001525879 -4.874000072479248,-29.356000900268555z"></path></g><g opacity="1" transform="matrix(1,0,0,1,0,0)"><path fill="rgb(253,84,185)" fill-opacity="1" d=" M-9.973999977111816,-37.676998138427734 C-29.200000762939453,-49.67599868774414 -77.32599639892578,-60.94599914550781 -111.24400329589844,-37.43600082397461 C-135.1230010986328,-20.884000778198242 -141.00799560546875,0.2199999988079071 -141.21499633789062,16.5 C-142.4550018310547,13.010000228881836 -143.46299743652344,9.62600040435791 -144.2729949951172,6.340000152587891 C-142.0500030517578,-8.598999977111816 -134.3489990234375,-25.69099998474121 -114.22000122070312,-39.652000427246094 C-80.66200256347656,-62.926998138427734 -33.571998596191406,-53.060001373291016 -12.461999893188477,-41.2869987487793 C-11.553000450134277,-40.01300048828125 -10.72599983215332,-38.79999923706055 -9.973999977111816,-37.676998138427734z"></path></g><g opacity="1" transform="matrix(1,0,0,1,0,0)"><path fill="rgb(253,99,190)" fill-opacity="1" d=" M-12.461999893188477,-41.2869987487793 C-33.571998596191406,-53.060001373291016 -80.6510009765625,-62.9119987487793 -114.22000122070312,-39.652000427246094 C-134.35499572753906,-25.701000213623047 -142.0500030517578,-8.598999977111816 -144.2729949951172,6.340000152587891 C-145.43899536132812,1.659000039100647 -146.21600341796875,-2.825000047683716 -146.66200256347656,-7.129000186920166 C-142.4459991455078,-19.302000045776367 -134.03500366210938,-31.948999404907227 -118.41799926757812,-42.779998779296875 C-85.27300262451172,-65.76799774169922 -39.40800094604492,-57.62099838256836 -16.14900016784668,-46.24700164794922 C-14.802000045776367,-44.513999938964844 -13.57800006866455,-42.84700012207031 -12.461999893188477,-41.2869987487793z"></path></g><g opacity="1" transform="matrix(1,0,0,1,0,0)"><path fill="rgb(250,114,194)" fill-opacity="1" d=" M-16.14900016784668,-46.24700164794922 C-39.40800094604492,-57.62099838256836 -85.26200103759766,-65.7509994506836 -118.41799926757812,-42.779998779296875 C-134.0399932861328,-31.957000732421875 -142.4459991455078,-19.302000045776367 -146.66200256347656,-7.129000186920166 C-147.11599731445312,-11.454999923706055 -147.24899291992188,-15.600000381469727 -147.13299560546875,-19.579999923706055 C-142.05799865722656,-28.738000869750977 -134.27000427246094,-37.810001373291016 -122.60099792480469,-45.900001525878906 C-89.84500122070312,-68.60900115966797 -45.11899948120117,-62.00699996948242 -20.115999221801758,-51.13100051879883 C-18.694000244140625,-49.46500015258789 -17.371999740600586,-47.83000183105469 -16.14900016784668,-46.24700164794922z"></path></g><g opacity="1" transform="matrix(1,0,0,1,0,0)"><path fill="rgb(253,124,200)" fill-opacity="1" d=" M-20.115999221801758,-51.13100051879883 C-45.11899948120117,-62.00699996948242 -89.83999633789062,-68.60199737548828 -122.60099792480469,-45.900001525878906 C-134.27200317382812,-37.8129997253418 -142.05799865722656,-28.738000869750977 -147.13299560546875,-19.579999923706055 C-147.10000610351562,-21.139999389648438 -147.01800537109375,-22.679000854492188 -146.91000366210938,-24.18600082397461 C-146.73699951171875,-26.613000869750977 -146.38900756835938,-29.145000457763672 -145.8769989013672,-31.738000869750977 C-141.0659942626953,-37.8129997253418 -134.89100646972656,-43.7140007019043 -127.00599670410156,-49.17900085449219 C-94.68800354003906,-71.5790023803711 -51.1609992980957,-66.49199676513672 -24.66200065612793,-56.23400115966797 C-23.049999237060547,-54.52299880981445 -21.538000106811523,-52.8120002746582 -20.115999221801758,-51.13100051879883z"></path></g><g opacity="1" transform="matrix(1,0,0,1,0,0)"><path fill="rgb(251,138,204)" fill-opacity="1" d=" M-24.66200065612793,-56.23400115966797 C-51.1609992980957,-66.49199676513672 -94.68599700927734,-71.5770034790039 -127.00599670410156,-49.17900085449219 C-134.89100646972656,-43.71500015258789 -141.0659942626953,-37.8129997253418 -145.8769989013672,-31.738000869750977 C-145.1739959716797,-35.26499938964844 -144.14100646972656,-38.91400146484375 -142.7689971923828,-42.55400085449219 C-139.32200622558594,-45.85499954223633 -135.41200256347656,-49.05799865722656 -130.9739990234375,-52.13399887084961 C-99.1520004272461,-74.19499969482422 -56.790000915527344,-70.43399810791016 -29.20800018310547,-60.84700012207031 C-27.621000289916992,-59.31700134277344 -26.108999252319336,-57.77199935913086 -24.66200065612793,-56.23400115966797z"></path></g><g opacity="1" transform="matrix(1,0,0,1,0,0)"><path fill="rgb(255,148,212)" fill-opacity="1" d=" M-29.20800018310547,-60.84700012207031 C-56.790000915527344,-70.43399810791016 -99.14600372314453,-74.18599700927734 -130.9739990234375,-52.13399887084961 C-135.41200256347656,-49.058998107910156 -139.32200622558594,-45.85499954223633 -142.7689971923828,-42.55400085449219 C-141.23199462890625,-46.63199996948242 -139.26400756835938,-50.715999603271484 -136.8419952392578,-54.643001556396484 C-136.4199981689453,-54.944000244140625 -135.99200439453125,-55.249000549316406 -135.56100463867188,-55.54800033569336 C-104.4990005493164,-77.08899688720703 -63.742000579833984,-74.87300109863281 -35.22600173950195,-66.24299621582031 C-33.11800003051758,-64.49400329589844 -31.108999252319336,-62.67900085449219 -29.20800018310547,-60.84700012207031z"></path></g><g opacity="1" transform="matrix(1,0,0,1,0,0)"><path fill="rgb(255,161,216)" fill-opacity="1" d=" M-35.22600173950195,-66.24299621582031 C-63.742000579833984,-74.87300109863281 -104.4990005493164,-77.08899688720703 -135.56100463867188,-55.54800033569336 C-135.99099731445312,-55.24700164794922 -136.4199981689453,-54.944000244140625 -136.8419952392578,-54.643001556396484 C-134.9080047607422,-57.770999908447266 -132.6929931640625,-60.80799865722656 -130.16400146484375,-63.665000915527344 C-101.44100189208984,-78.93499755859375 -66.91600036621094,-77.48799896240234 -40.74700164794922,-70.52400207519531 C-38.8380012512207,-69.1520004272461 -36.994998931884766,-67.72000122070312 -35.22600173950195,-66.24299621582031z"></path></g><g opacity="1" transform="matrix(1,0,0,1,0,0)"><path fill="rgb(255,173,222)" fill-opacity="1" d=" M-40.74700164794922,-70.52400207519531 C-66.91600036621094,-77.48799896240234 -101.44100189208984,-78.93499755859375 -130.16400146484375,-63.665000915527344 C-127.98200225830078,-66.13700103759766 -125.57599639892578,-68.4739990234375 -122.93099975585938,-70.62999725341797 C-97.58899688720703,-80.54900360107422 -69.26300048828125,-79.5530014038086 -46.2599983215332,-74.2020034790039 C-44.367000579833984,-73.04100036621094 -42.52399826049805,-71.80500030517578 -40.74700164794922,-70.52400207519531z"></path></g><g opacity="1" transform="matrix(1,0,0,1,0,0)"><path fill="rgb(255,188,227)" fill-opacity="1" d=" M-46.2599983215332,-74.2020034790039 C-69.26300048828125,-79.5530014038086 -97.58899688720703,-80.54900360107422 -122.93099975585938,-70.62999725341797 C-120.26100158691406,-72.80799865722656 -117.36000061035156,-74.7979965209961 -114.2030029296875,-76.55400085449219 C-93.48100280761719,-82.10900115966797 -71.61900329589844,-81.43800354003906 -52.67399978637695,-77.75199890136719 C-50.46699905395508,-76.66699981689453 -48.334999084472656,-75.47599792480469 -46.2599983215332,-74.2020034790039z"></path></g><g opacity="1" transform="matrix(1,0,0,1,0,0)"><path fill="rgb(255,202,232)" fill-opacity="1" d=" M-52.67399978637695,-77.75199890136719 C-71.61900329589844,-81.43800354003906 -93.48100280761719,-82.10900115966797 -114.2030029296875,-76.55400085449219 C-110.93800354003906,-78.37100219726562 -107.40899658203125,-79.93000030517578 -103.5979995727539,-81.18900299072266 C-88.85199737548828,-83.46499633789062 -73.94100189208984,-83.02899932861328 -60.220001220703125,-80.95600128173828 C-57.625,-80.02899932861328 -55.11199951171875,-78.95800018310547 -52.67399978637695,-77.75199890136719z"></path></g><g opacity="1" transform="matrix(1,0,0,1,0,0)"><path fill="rgb(255,211,240)" fill-opacity="1" d=" M-60.255001068115234,-80.96099853515625 C-66.27400207519531,-83.10199737548828 -72.7040023803711,-84.42500305175781 -79.51300048828125,-84.56700134277344 C-88.51000213623047,-84.75399780273438 -96.49600219726562,-83.50599670410156 -103.54299926757812,-81.1969985961914 C-88.8270034790039,-83.46199798583984 -73.94999694824219,-83.0270004272461 -60.255001068115234,-80.96099853515625z"></path></g></g><g opacity="1" transform="matrix(1,0,0,1,0,0)"><g opacity="1" transform="matrix(1,0,0,1,0,0)"><path fill="rgb(250,75,180)" fill-opacity="1" d=" M-4.874000072479248,-29.356000900268555 C8.218999862670898,-41.59600067138672 59.869998931884766,-57.17599868774414 95.15499877929688,-32.709999084472656 C137.10299682617188,-3.624000072479248 119.99400329589844,40.369998931884766 119.3489990234375,41.84000015258789 C124.74600219726562,32.803001403808594 128.6719970703125,24.384000778198242 131.46600341796875,16.5 C131.25900268554688,0.2199999988079071 125.37100219726562,-20.8799991607666 101.49500274658203,-37.43600082397461 C67.58100128173828,-60.95199966430664 19.451000213623047,-49.67599868774414 0.22499999403953552,-37.676998138427734 C-3.015000104904175,-32.823001861572266 -4.767000198364258,-29.55900001525879 -4.874000072479248,-29.356000900268555z"></path></g><g opacity="1" transform="matrix(1,0,0,1,0,0)"><path fill="rgb(253,84,185)" fill-opacity="1" d=" M0.22499999403953552,-37.676998138427734 C19.451000213623047,-49.67599868774414 67.5770034790039,-60.94599914550781 101.49500274658203,-37.43600082397461 C125.3740005493164,-20.884000778198242 131.25900268554688,0.2199999988079071 131.46600341796875,16.5 C132.70599365234375,13.010000228881836 133.71400451660156,9.62600040435791 134.5240020751953,6.340000152587891 C132.30099487304688,-8.598999977111816 124.5999984741211,-25.69099998474121 104.47100067138672,-39.652000427246094 C70.91300201416016,-62.926998138427734 23.822999954223633,-53.060001373291016 2.7130000591278076,-41.2869987487793 C1.8040000200271606,-40.01300048828125 0.9769999980926514,-38.79999923706055 0.22499999403953552,-37.676998138427734z"></path></g><g opacity="1" transform="matrix(1,0,0,1,0,0)"><path fill="rgb(253,99,190)" fill-opacity="1" d=" M2.7130000591278076,-41.2869987487793 C23.822999954223633,-53.060001373291016 70.9020004272461,-62.9119987487793 104.47100067138672,-39.652000427246094 C124.60600280761719,-25.701000213623047 132.30099487304688,-8.598999977111816 134.5240020751953,6.340000152587891 C135.69000244140625,1.659000039100647 136.4669952392578,-2.825000047683716 136.91299438476562,-7.129000186920166 C132.69700622558594,-19.302000045776367 124.28700256347656,-31.948999404907227 108.66999816894531,-42.779998779296875 C75.5250015258789,-65.76799774169922 29.659000396728516,-57.62099838256836 6.400000095367432,-46.24700164794922 C5.052999973297119,-44.513999938964844 3.8289999961853027,-42.84700012207031 2.7130000591278076,-41.2869987487793z"></path></g><g opacity="1" transform="matrix(1,0,0,1,0,0)"><path fill="rgb(250,114,194)" fill-opacity="1" d=" M6.400000095367432,-46.24700164794922 C29.659000396728516,-57.62099838256836 75.51399993896484,-65.75199890136719 108.66999816894531,-42.779998779296875 C124.29199981689453,-31.957000732421875 132.69700622558594,-19.302000045776367 136.91299438476562,-7.129000186920166 C137.36700439453125,-11.454999923706055 137.5,-15.600000381469727 137.38400268554688,-19.579999923706055 C132.3090057373047,-28.738000869750977 124.52100372314453,-37.810001373291016 112.85199737548828,-45.900001525878906 C80.09600067138672,-68.60900115966797 35.369998931884766,-62.00699996948242 10.366999626159668,-51.13100051879883 C8.944999694824219,-49.46500015258789 7.623000144958496,-47.83000183105469 6.400000095367432,-46.24700164794922z"></path></g><g opacity="1" transform="matrix(1,0,0,1,0,0)"><path fill="rgb(253,124,200)" fill-opacity="1" d=" M10.366999626159668,-51.13100051879883 C35.369998931884766,-62.00699996948242 80.09100341796875,-68.60199737548828 112.85199737548828,-45.900001525878906 C124.52300262451172,-37.8129997253418 132.3090057373047,-28.738000869750977 137.38400268554688,-19.579999923706055 C137.3509979248047,-21.139999389648438 137.2689971923828,-22.679000854492188 137.16099548339844,-24.18600082397461 C136.98800659179688,-26.613000869750977 136.63999938964844,-29.145000457763672 136.1280059814453,-31.738000869750977 C131.31700134277344,-37.8129997253418 125.14299774169922,-43.7140007019043 117.25800323486328,-49.17900085449219 C84.94000244140625,-71.5790023803711 41.41299819946289,-66.49199676513672 14.913000106811523,-56.23400115966797 C13.300999641418457,-54.52299880981445 11.788999557495117,-52.8120002746582 10.366999626159668,-51.13100051879883z"></path></g><g opacity="1" transform="matrix(1,0,0,1,0,0)"><path fill="rgb(251,138,204)" fill-opacity="1" d=" M14.913000106811523,-56.23400115966797 C41.41299819946289,-66.49199676513672 84.93800354003906,-71.5770034790039 117.25800323486328,-49.17900085449219 C125.14299774169922,-43.71500015258789 131.31700134277344,-37.8129997253418 136.1280059814453,-31.738000869750977 C135.4250030517578,-35.26499938964844 134.39199829101562,-38.91400146484375 133.02000427246094,-42.55400085449219 C129.572998046875,-45.85499954223633 125.66300201416016,-49.05799865722656 121.2249984741211,-52.13399887084961 C89.40299987792969,-74.19499969482422 47.04100036621094,-70.43399810791016 19.458999633789062,-60.84700012207031 C17.871999740600586,-59.31700134277344 16.360000610351562,-57.77199935913086 14.913000106811523,-56.23400115966797z"></path></g><g opacity="1" transform="matrix(1,0,0,1,0,0)"><path fill="rgb(255,148,212)" fill-opacity="1" d=" M19.458999633789062,-60.84700012207031 C47.04100036621094,-70.43399810791016 89.39700317382812,-74.18599700927734 121.2249984741211,-52.13399887084961 C125.66300201416016,-49.058998107910156 129.572998046875,-45.85499954223633 133.02000427246094,-42.55400085449219 C131.48199462890625,-46.63199996948242 129.51499938964844,-50.715999603271484 127.09300231933594,-54.643001556396484 C126.6709976196289,-54.944000244140625 126.24299621582031,-55.249000549316406 125.81199645996094,-55.54800033569336 C94.75,-77.08899688720703 53.99300003051758,-74.87300109863281 25.476999282836914,-66.24299621582031 C23.368999481201172,-64.49400329589844 21.360000610351562,-62.67900085449219 19.458999633789062,-60.84700012207031z"></path></g><g opacity="1" transform="matrix(1,0,0,1,0,0)"><path fill="rgb(255,161,216)" fill-opacity="1" d=" M25.476999282836914,-66.24299621582031 C53.99300003051758,-74.87300109863281 94.75,-77.08899688720703 125.81199645996094,-55.54800033569336 C126.24199676513672,-55.24700164794922 126.6709976196289,-54.944000244140625 127.09300231933594,-54.643001556396484 C125.15899658203125,-57.770999908447266 122.94400024414062,-60.80799865722656 120.41500091552734,-63.665000915527344 C91.69200134277344,-78.93499755859375 57.16699981689453,-77.48799896240234 30.99799919128418,-70.52400207519531 C29.089000701904297,-69.1520004272461 27.246000289916992,-67.72000122070312 25.476999282836914,-66.24299621582031z"></path></g><g opacity="1" transform="matrix(1,0,0,1,0,0)"><path fill="rgb(255,173,222)" fill-opacity="1" d=" M30.99799919128418,-70.52400207519531 C57.16699981689453,-77.48799896240234 91.69200134277344,-78.93499755859375 120.41500091552734,-63.665000915527344 C118.23300170898438,-66.13700103759766 115.8280029296875,-68.4739990234375 113.18299865722656,-70.62999725341797 C87.84100341796875,-80.54900360107422 59.513999938964844,-79.5530014038086 36.51100158691406,-74.2020034790039 C34.61800003051758,-73.04100036621094 32.775001525878906,-71.80500030517578 30.99799919128418,-70.52400207519531z"></path></g><g opacity="1" transform="matrix(1,0,0,1,0,0)"><path fill="rgb(255,188,227)" fill-opacity="1" d=" M36.51100158691406,-74.2020034790039 C59.513999938964844,-79.5530014038086 87.84100341796875,-80.54900360107422 113.18299865722656,-70.62999725341797 C110.51300048828125,-72.80799865722656 107.61100006103516,-74.7979965209961 104.4540023803711,-76.55400085449219 C83.73200225830078,-82.10900115966797 61.869998931884766,-81.43800354003906 42.92499923706055,-77.75199890136719 C40.71799850463867,-76.66699981689453 38.58599853515625,-75.47599792480469 36.51100158691406,-74.2020034790039z"></path></g><g opacity="1" transform="matrix(1,0,0,1,0,0)"><path fill="rgb(255,202,232)" fill-opacity="1" d=" M42.92499923706055,-77.75199890136719 C61.869998931884766,-81.43800354003906 83.73200225830078,-82.10900115966797 104.4540023803711,-76.55400085449219 C101.18900299072266,-78.37100219726562 97.66000366210938,-79.93000030517578 93.8489990234375,-81.18900299072266 C79.10299682617188,-83.46499633789062 64.19300079345703,-83.02899932861328 50.47200012207031,-80.95600128173828 C47.87699890136719,-80.02899932861328 45.36399841308594,-78.95800018310547 42.92499923706055,-77.75199890136719z"></path></g><g opacity="1" transform="matrix(1,0,0,1,0,0)"><path fill="rgb(255,211,240)" fill-opacity="1" d=" M93.83200073242188,-81.19200134277344 C86.78099822998047,-83.50499725341797 78.79000091552734,-84.75399780273438 69.78600311279297,-84.56700134277344 C62.981998443603516,-84.42500305175781 56.55699920654297,-83.10399627685547 50.54199981689453,-80.96600341796875 C64.23799896240234,-83.02899932861328 79.11699676513672,-83.46099853515625 93.83200073242188,-81.19200134277344z"></path></g></g><g opacity="1" transform="matrix(1,0,0,1,0,0)"><path fill="rgb(197,0,107)" fill-opacity="1" d=" M-4.861999988555908,197.85299682617188 C-9.116000175476074,197.85299682617188 -13.371000289916992,196.28900146484375 -16.68600082397461,193.15899658203125 C-35.56399917602539,175.33700561523438 -83.04499816894531,129.427001953125 -116.16799926757812,88.12200164794922 C-162.5050048828125,30.339000701904297 -166.9250030517578,-5.089000225067139 -165.13900756835938,-32.124000549316406 C-163.99099731445312,-49.50299835205078 -155.86500549316406,-67.80999755859375 -143.40199279785156,-81.09500122070312 C-132.7209930419922,-92.4800033569336 -113.6500015258789,-105.90499877929688 -83.53299713134766,-105.21800231933594 C-41.09000015258789,-104.25 -13.961999893188477,-70.36299896240234 -4.86299991607666,-56.922000885009766 C4.236000061035156,-70.36299896240234 31.363000869750977,-104.24600219726562 73.80599975585938,-105.21800231933594 C103.94000244140625,-105.90799713134766 122.99500274658203,-92.47899627685547 133.6750030517578,-81.09500122070312 C146.13800048828125,-67.80999755859375 154.26400756835938,-49.50299835205078 155.41299438476562,-32.124000549316406 C155.41299438476562,-32.124000549316406 155.41299438476562,-32.124000549316406 155.41299438476562,-32.124000549316406 C157.19900512695312,-5.089000225067139 152.72900390625,30.302000045776367 106.44100189208984,88.12200164794922 C82.9489974975586,117.46600341796875 52.48099899291992,148.84300231933594 31.05900001525879,169.9969940185547 C23.111000061035156,177.80299377441406 14.987000465393066,185.5800018310547 6.953000068664551,193.16400146484375 C3.6429998874664307,196.28900146484375 -0.6100000143051147,197.85299682617188 -4.861999988555908,197.85299682617188z M-85.72699737548828,-97.61699676513672 C-111.99199676513672,-97.61699676513672 -128.63800048828125,-85.83499908447266 -138.0469970703125,-75.80599975585938 C-149.3350067138672,-63.77399826049805 -156.6909942626953,-47.250999450683594 -157.72500610351562,-31.607999801635742 C-159.41299438476562,-6.067999839782715 -155.11300659179688,27.55500030517578 -110.42900085449219,83.2760009765625 C-77.60099792480469,124.21299743652344 -30.42099952697754,169.83799743652344 -11.654000282287598,187.5469970703125 C-7.9070000648498535,191.08299255371094 -1.8229999542236328,191.07400512695312 1.9270000457763672,187.5469970703125 C9.942000389099121,180.00900268554688 18.010000228881836,172.25599670410156 25.913000106811523,164.49600219726562 C47.185001373291016,143.49000549316406 77.40899658203125,112.322998046875 100.69999694824219,83.27899932861328 C145.38600158691406,27.55500030517578 149.68499755859375,-6.067999839782715 147.9969940185547,-31.607999801635742 C147.9969940185547,-31.607999801635742 147.9969940185547,-31.607999801635742 147.9969940185547,-31.607999801635742 C146.96400451660156,-47.250999450683594 139.60800170898438,-63.77399826049805 128.32000732421875,-75.80599975585938 C118.6709976196289,-86.09100341796875 101.41799926757812,-98.22000122070312 73.97100067138672,-97.59400177001953 C32.72100067138672,-96.65299987792969 6.889999866485596,-61.41400146484375 -0.04100000113248825,-50.632999420166016 C-1.1019999980926514,-48.983001708984375 -2.9040000438690186,-47.99800109863281 -4.86299991607666,-47.99800109863281 C-6.822000026702881,-47.99800109863281 -8.625,-48.98400115966797 -9.685999870300293,-50.632999420166016 C-16.6200008392334,-61.4119987487793 -42.45000076293945,-96.65299987792969 -83.697998046875,-97.59400177001953 C-84.37999725341797,-97.60900115966797 -85.05799865722656,-97.61699676513672 -85.72699737548828,-97.61699676513672z"></path></g><g opacity="1" transform="matrix(1,0,0,1,0,0)"><path fill="rgb(253,36,155)" fill-opacity="1" d=" M93.51599884033203,76.66300201416016 C82.13300323486328,89.61799621582031 68.9020004272461,103.55699920654297 55.904998779296875,116.77200317382812 C22.93199920654297,150.29600524902344 -32.659000396728516,150.29600524902344 -65.63200378417969,116.77200317382812 C-78.62899780273438,103.55699920654297 -91.86000061035156,89.61799621582031 -103.24299621582031,76.66300201416016 C-141.8179931640625,32.75899887084961 -148.73300170898438,0.9480000138282776 -146.91299438476562,-24.18600082397461 C-145.09300231933594,-49.31999969482422 -125.36699676513672,-85.52200317382812 -79.51300048828125,-84.56700134277344 C-33.659000396728516,-83.61199951171875 -4.86299991607666,-29.349000930786133 -4.86299991607666,-29.349000930786133 C-4.86299991607666,-29.349000930786133 23.93199920654297,-83.61299896240234 69.78600311279297,-84.56700134277344 C115.63999938964844,-85.52100372314453 135.36700439453125,-49.31999969482422 137.18600463867188,-24.18600082397461 C139.0050048828125,0.9480000138282776 132.09100341796875,32.75899887084961 93.51599884033203,76.66300201416016z M147.9969940185547,-31.607999801635742 C146.96400451660156,-47.250999450683594 139.60800170898438,-63.77399826049805 128.32000732421875,-75.80599975585938 C118.6709976196289,-86.09100341796875 101.41799926757812,-98.22000122070312 73.97100067138672,-97.59400177001953 C32.72100067138672,-96.65299987792969 6.889999866485596,-61.41400146484375 -0.04100000113248825,-50.632999420166016 C-1.1019999980926514,-48.983001708984375 -2.9040000438690186,-47.99800109863281 -4.86299991607666,-47.99800109863281 C-6.822000026702881,-47.99800109863281 -8.625,-48.98400115966797 -9.685999870300293,-50.632999420166016 C-16.6200008392334,-61.4119987487793 -42.45000076293945,-96.65299987792969 -83.697998046875,-97.59400177001953 C-84.37999725341797,-97.60900115966797 -85.05799865722656,-97.61699676513672 -85.72699737548828,-97.61699676513672 C-111.99199676513672,-97.61699676513672 -128.63800048828125,-85.83499908447266 -138.0469970703125,-75.80599975585938 C-149.3350067138672,-63.77399826049805 -156.6909942626953,-47.250999450683594 -157.72500610351562,-31.607999801635742 C-159.41299438476562,-6.067999839782715 -155.11300659179688,27.55500030517578 -110.42900085449219,83.2760009765625 C-84.61599731445312,115.46499633789062 -49.935001373291016,150.5399932861328 -27.16699981689453,172.677001953125 C-12.970999717712402,178.76600646972656 3.382999897003174,178.7480010986328 17.56599998474121,172.6230010986328 C20.361000061035156,169.9199981689453 23.156999588012695,167.21800231933594 25.913000106811523,164.49600219726562 C47.185001373291016,143.49000549316406 77.40899658203125,112.322998046875 100.69999694824219,83.27899932861328 C145.38600158691406,27.55500030517578 149.6840057373047,-6.067999839782715 147.9969940185547,-31.607999801635742z"></path></g><g opacity="1" transform="matrix(1,0,0,1,0,0)"><path fill="rgb(252,60,175)" fill-opacity="1" d=" M119.41799926757812,41.540000915527344 C119.48100280761719,41.37300109863281 119.55699920654297,41.167999267578125 119.64299774169922,40.92499923706055 C119.68599700927734,40.80400085449219 119.73200225830078,40.67399978637695 119.77999877929688,40.534000396728516 C122.177001953125,33.55099868774414 130.30099487304688,3.8989999294281006 108.14199829101562,-21.03499984741211 C107.6989974975586,-21.534000396728516 107.24400329589844,-22.030000686645508 106.7760009765625,-22.524999618530273 C105.37300109863281,-24.009000778198242 103.85800170898438,-25.475000381469727 102.2239990234375,-26.915000915527344 C101.67900085449219,-27.395000457763672 101.12200164794922,-27.87299919128418 100.55000305175781,-28.347000122070312 C99.40699768066406,-29.29599952697754 98.20999908447266,-30.23200035095215 96.95600128173828,-31.155000686645508 C96.3290023803711,-31.617000579833984 95.68800354003906,-32.07500076293945 95.03299713134766,-32.52899932861328 C92.2760009765625,-34.439998626708984 89.41899871826172,-36.108001708984375 86.48899841308594,-37.55099868774414 C70.08000183105469,-45.632999420166016 51.36000061035156,-46.69900131225586 34.926998138427734,-44.38199996948242 C32.57899856567383,-44.05099868774414 30.27899932861328,-43.6510009765625 28.038000106811523,-43.19200134277344 C25.797000885009766,-42.733001708984375 23.615999221801758,-42.21699905395508 21.509000778198242,-41.652000427246094 C20.98200035095215,-41.51100158691406 20.459999084472656,-41.367000579833984 19.94300079345703,-41.220001220703125 C8.560999870300293,-37.98500061035156 -0.4959999918937683,-33.382999420166016 -4.997000217437744,-29.174999237060547 C-4.997000217437744,-29.174999237060547 -4.997000217437744,-29.174999237060547 -4.997000217437744,-29.174999237060547 C-4.997000217437744,-29.174999237060547 -4.997000217437744,-29.174999237060547 -4.997000217437744,-29.174999237060547 C-12.975000381469727,-36.63399887084961 -35.27299880981445,-45.33300018310547 -59.45899963378906,-45.45500183105469 C-74.96299743652344,-45.53300094604492 -91.24400329589844,-42.08599853515625 -105.0270004272461,-32.52899932861328 C-146.3780059814453,-3.8570001125335693 -130.33999633789062,39.29999923706055 -129.25799560546875,41.93000030517578 C-122.86499786376953,52.64799880981445 -114.42400360107422,64.22599792480469 -103.3759994506836,76.80000305175781 C-91.99299621582031,89.75499725341797 -78.76200103759766,103.69400024414062 -65.76499938964844,116.90899658203125 C-32.79199981689453,150.43299865722656 22.798999786376953,150.43299865722656 55.77199935913086,116.90899658203125 C68.76899719238281,103.69400024414062 82,89.75499725341797 93.38300323486328,76.80000305175781 C104.43099975585938,64.2249984741211 112.87200164794922,52.64799880981445 119.26499938964844,41.93000030517578 C119.3010025024414,41.84299850463867 119.35199737548828,41.7140007019043 119.41799926757812,41.540000915527344z"></path></g></g><g style="display: block;" transform="matrix(0.9599999785423279,0,0,0.9599999785423279,256.0799865722656,313.44000244140625)" opacity="1"><g opacity="1" transform="matrix(1,0,0,1,0,0)"><g opacity="1" transform="matrix(1,0,0,1,0,0)"><path fill="rgb(244,0,128)" fill-opacity="1" d=" M135.36700439453125,-19.409000396728516 C133.6719970703125,-45.025001525878906 112.30699920654297,-79.072998046875 69.5790023803711,-78.0999984741211 C32.97600173950195,-77.26699829101562 10.22599983215332,-45.974998474121094 4.455999851226807,-37.020999908447266 C3.7869999408721924,-35.983001708984375 2.2130000591278076,-35.983001708984375 1.5440000295639038,-37.020999908447266 C-4.22599983215332,-45.974998474121094 -26.97599983215332,-77.26699829101562 -63.57899856567383,-78.0999984741211 C-106.30699920654297,-79.072998046875 -127.6709976196289,-45.025001525878906 -129.36700439453125,-19.409000396728516 C-131.06300354003906,6.206999778747559 -124.62000274658203,35.066001892089844 -88.67400360107422,79.81300354003906 C-60.9640007019043,114.30799865722656 -21.49799919128418,152.46600341796875 -4.868000030517578,168.13900756835938 C-0.5019999742507935,172.25399780273438 6.501999855041504,172.25399780273438 10.868000030517578,168.13900756835938 C27.49799919128418,152.46600341796875 66.96399688720703,114.30799865722656 94.67400360107422,79.81300354003906 C130.6199951171875,35.066001892089844 137.06199645996094,6.206999778747559 135.36700439453125,-19.409000396728516z"></path></g><g opacity="1" transform="matrix(1,0,0,1,0,0)"><path fill="rgb(253,36,155)" fill-opacity="1" d=" M135.36700439453125,-19.409000396728516 C133.6719970703125,-45.025001525878906 112.30699920654297,-79.072998046875 69.5790023803711,-78.0999984741211 C26.85099983215332,-77.12699890136719 3,-34.64899826049805 3,-34.64899826049805 C3,-34.64899826049805 -20.85099983215332,-77.12699890136719 -63.57899856567383,-78.0999984741211 C-106.30699920654297,-79.072998046875 -127.6709976196289,-45.025001525878906 -129.36700439453125,-19.409000396728516 C-131.06300354003906,6.206999778747559 -124.62000274658203,35.066001892089844 -88.67400360107422,79.81300354003906 C-70.99700164794922,101.81800079345703 -48.5359992980957,125.31400299072266 -30.270999908447266,143.51199340820312 C-12.119000434875488,161.59800720214844 18.118999481201172,161.59800720214844 36.270999908447266,143.51199340820312 C54.5359992980957,125.31400299072266 76.99700164794922,101.81800079345703 94.67400360107422,79.81300354003906 C130.6199951171875,35.066001892089844 137.06199645996094,6.206999778747559 135.36700439453125,-19.409000396728516z"></path></g><g opacity="1" transform="matrix(1,0,0,1,0,0)"><path fill="rgb(252,60,175)" fill-opacity="1" d=" M123.09200286865234,-12.927000045776367 C121.55400085449219,-34.138999938964844 104.8759994506836,-64.69400024414062 66.11000061035156,-63.88800048828125 C27.3439998626709,-63.08300018310547 3,-17.28499984741211 3,-17.28499984741211 C3,-17.28499984741211 -21.3439998626709,-63.08300018310547 -60.11000061035156,-63.88800048828125 C-98.8759994506836,-64.69400024414062 -115.55400085449219,-34.138999938964844 -117.09200286865234,-12.927000045776367 C-118.62999725341797,8.28499984741211 -112.78600311279297,35.13399887084961 -80.1729965209961,72.18800354003906 C-70.55000305175781,83.12200164794922 -59.362998962402344,94.88500213623047 -48.375,106.03800201416016 C-20.499000549316406,134.33200073242188 26.499000549316406,134.33200073242188 54.375,106.03800201416016 C65.36299896240234,94.88500213623047 76.55000305175781,83.12200164794922 86.1729965209961,72.18800354003906 C118.78600311279297,35.13399887084961 124.62999725341797,8.28499984741211 123.09200286865234,-12.927000045776367z"></path></g></g><g opacity="1" transform="matrix(1,0,0,1,0,0)"><g opacity="1" transform="matrix(1,0,0,1,0,0)"><path fill="rgb(250,75,180)" fill-opacity="1" d=" M2.990999937057495,-17.291000366210938 C-8.07800006866455,-27.621999740600586 -51.74599838256836,-40.770999908447266 -81.5770034790039,-20.121999740600586 C-117.04100036621094,4.426000118255615 -102.57599639892578,41.55699920654297 -102.03099822998047,42.797000885009766 C-106.59400177001953,35.16999816894531 -109.91300201416016,28.065000534057617 -112.2750015258789,21.410999298095703 C-112.0999984741211,7.671000003814697 -107.125,-10.140999794006348 -86.93699645996094,-24.110000610351562 C-58.26599884033203,-43.957000732421875 -17.575000762939453,-34.441001892089844 -1.3209999799728394,-24.31399917602539 C1.4179999828338623,-20.216999053955078 2.9000000953674316,-17.46299934387207 2.990999937057495,-17.291000366210938z"></path></g><g opacity="1" transform="matrix(1,0,0,1,0,0)"><path fill="rgb(253,84,185)" fill-opacity="1" d=" M-1.3209999799728394,-24.31399917602539 C-17.575000762939453,-34.441001892089844 -58.26599884033203,-43.957000732421875 -86.93699645996094,-24.110000610351562 C-107.125,-10.140999794006348 -112.0999984741211,7.671000003814697 -112.2750015258789,21.410999298095703 C-113.322998046875,18.465999603271484 -114.17500305175781,15.609000205993652 -114.86000061035156,12.836000442504883 C-112.9800033569336,0.2280000001192093 -106.4749984741211,-14.204999923706055 -89.4520034790039,-25.979999542236328 C-61.08100128173828,-45.62300109863281 -21.270999908447266,-37.297000885009766 -3.4240000247955322,-27.361000061035156 C-2.6549999713897705,-26.285999298095703 -1.9570000171661377,-25.261999130249023 -1.3209999799728394,-24.31399917602539z"></path></g><g opacity="1" transform="matrix(1,0,0,1,0,0)"><path fill="rgb(253,99,190)" fill-opacity="1" d=" M-3.4240000247955322,-27.361000061035156 C-21.270999908447266,-37.297000885009766 -61.08100128173828,-45.62300109863281 -89.4520034790039,-25.979999542236328 C-106.4749984741211,-14.204999923706055 -112.9800033569336,0.2280000001192093 -114.86000061035156,12.836000442504883 C-115.84500122070312,8.88599967956543 -116.50299835205078,5.099999904632568 -116.87999725341797,1.468000054359436 C-113.31600189208984,-8.805000305175781 -106.20899963378906,-19.485000610351562 -93.00199890136719,-28.6200008392334 C-64.98100280761719,-48.02199935913086 -26.204999923706055,-41.14500045776367 -6.540999889373779,-31.54599952697754 C-5.4019999504089355,-30.08300018310547 -4.367000102996826,-28.67799949645996 -3.4240000247955322,-27.361000061035156z"></path></g><g opacity="1" transform="matrix(1,0,0,1,0,0)"><path fill="rgb(250,114,194)" fill-opacity="1" d=" M-6.540999889373779,-31.54599952697754 C-26.204999923706055,-41.14500045776367 -64.98100280761719,-48.02199935913086 -93.00199890136719,-28.6200008392334 C-106.20899963378906,-19.485000610351562 -113.31600189208984,-8.805000305175781 -116.87999725341797,1.468000054359436 C-117.26399993896484,-2.183000087738037 -117.3759994506836,-5.681000232696533 -117.27799987792969,-9.039999961853027 C-112.98699951171875,-16.768999099731445 -106.40499877929688,-24.42799949645996 -96.53800201416016,-31.253999710083008 C-68.84500122070312,-50.41999816894531 -31.034000396728516,-44.847999572753906 -9.895000457763672,-35.66899871826172 C-8.692999839782715,-34.26300048828125 -7.574999809265137,-32.88199996948242 -6.540999889373779,-31.54599952697754z"></path></g><g opacity="1" transform="matrix(1,0,0,1,0,0)"><path fill="rgb(253,124,200)" fill-opacity="1" d=" M-9.895000457763672,-35.66899871826172 C-31.034000396728516,-44.847999572753906 -68.84500122070312,-50.41999816894531 -96.53800201416016,-31.253999710083008 C-106.40499877929688,-24.42799949645996 -112.98699951171875,-16.768999099731445 -117.27799987792969,-9.039999961853027 C-117.25,-10.357000350952148 -117.18000030517578,-11.654999732971191 -117.08899688720703,-12.927000045776367 C-116.94200134277344,-14.975000381469727 -116.64900207519531,-17.113000869750977 -116.21600341796875,-19.301000595092773 C-112.14900207519531,-24.42799949645996 -106.93000030517578,-29.409000396728516 -100.26300048828125,-34.020999908447266 C-72.94000244140625,-52.926998138427734 -36.14099884033203,-48.632999420166016 -13.73799991607666,-39.974998474121094 C-12.375,-38.53099822998047 -11.097000122070312,-37.0880012512207 -9.895000457763672,-35.66899871826172z"></path></g><g opacity="1" transform="matrix(1,0,0,1,0,0)"><path fill="rgb(251,138,204)" fill-opacity="1" d=" M-13.73799991607666,-39.974998474121094 C-36.14099884033203,-48.632999420166016 -72.94000244140625,-52.926998138427734 -100.26300048828125,-34.020999908447266 C-106.93000030517578,-29.409000396728516 -112.14900207519531,-24.42799949645996 -116.21600341796875,-19.301000595092773 C-115.62200164794922,-22.277999877929688 -114.7490005493164,-25.357999801635742 -113.58899688720703,-28.43000030517578 C-110.67500305175781,-31.215999603271484 -107.36900329589844,-33.91999816894531 -103.61699676513672,-36.51499938964844 C-76.71399688720703,-55.13399887084961 -40.9010009765625,-51.95899963378906 -17.582000732421875,-43.86800003051758 C-16.239999771118164,-42.57699966430664 -14.961000442504883,-41.27299880981445 -13.73799991607666,-39.974998474121094z"></path></g><g opacity="1" transform="matrix(1,0,0,1,0,0)"><path fill="rgb(255,148,212)" fill-opacity="1" d=" M-17.582000732421875,-43.86800003051758 C-40.9010009765625,-51.95899963378906 -76.71399688720703,-55.13399887084961 -103.61699676513672,-36.51499938964844 C-107.36900329589844,-33.91999816894531 -110.67500305175781,-31.215999603271484 -113.58899688720703,-28.43000030517578 C-112.28900146484375,-31.871000289916992 -110.6259994506836,-35.319000244140625 -108.5780029296875,-38.632999420166016 C-108.22200012207031,-38.887001037597656 -107.85800170898438,-39.141998291015625 -107.49500274658203,-39.395999908447266 C-81.23400115966797,-57.57600021362305 -46.777000427246094,-55.707000732421875 -22.66900062561035,-48.42300033569336 C-20.886999130249023,-46.946998596191406 -19.18899917602539,-45.41400146484375 -17.582000732421875,-43.86800003051758z"></path></g><g opacity="1" transform="matrix(1,0,0,1,0,0)"><path fill="rgb(255,161,216)" fill-opacity="1" d=" M-22.66900062561035,-48.42300033569336 C-46.777000427246094,-55.707000732421875 -81.23400115966797,-57.57600021362305 -107.49500274658203,-39.395999908447266 C-107.85800170898438,-39.141998291015625 -108.22200012207031,-38.887001037597656 -108.5780029296875,-38.632999420166016 C-106.94300079345703,-41.27299880981445 -105.06999969482422,-43.83599853515625 -102.93199920654297,-46.24700164794922 C-78.64900207519531,-59.1349983215332 -49.46099853515625,-57.91400146484375 -27.336999893188477,-52.0359992980957 C-25.722999572753906,-50.87799835205078 -24.163999557495117,-49.66999816894531 -22.66900062561035,-48.42300033569336z"></path></g><g opacity="1" transform="matrix(1,0,0,1,0,0)"><path fill="rgb(255,173,222)" fill-opacity="1" d=" M-27.336999893188477,-52.0359992980957 C-49.46099853515625,-57.91400146484375 -78.64900207519531,-59.1349983215332 -102.93199920654297,-46.24700164794922 C-101.08699798583984,-48.33399963378906 -99.05400085449219,-50.305999755859375 -96.81800079345703,-52.125 C-75.39299774169922,-60.49599838256836 -51.44499969482422,-59.65599822998047 -31.99799919128418,-55.13999938964844 C-30.398000717163086,-54.15999984741211 -28.839000701904297,-53.117000579833984 -27.336999893188477,-52.0359992980957z"></path></g><g opacity="1" transform="matrix(1,0,0,1,0,0)"><path fill="rgb(255,188,227)" fill-opacity="1" d=" M-31.99799919128418,-55.13999938964844 C-51.44499969482422,-59.65599822998047 -75.39299774169922,-60.49599838256836 -96.81800079345703,-52.125 C-94.56099700927734,-53.9640007019043 -92.10700225830078,-55.643001556396484 -89.43800354003906,-57.125 C-71.91899871826172,-61.8129997253418 -53.43600082397461,-61.24700164794922 -37.41999816894531,-58.13600158691406 C-35.55400085449219,-57.220001220703125 -33.75199890136719,-56.21500015258789 -31.99799919128418,-55.13999938964844z"></path></g><g opacity="1" transform="matrix(1,0,0,1,0,0)"><path fill="rgb(255,202,232)" fill-opacity="1" d=" M-37.41999816894531,-58.13600158691406 C-53.43600082397461,-61.24700164794922 -71.91899871826172,-61.8129997253418 -89.43800354003906,-57.125 C-86.6780014038086,-58.65800094604492 -83.69400024414062,-59.974998474121094 -80.4729995727539,-61.0369987487793 C-68.00599670410156,-62.95800018310547 -55.400001525878906,-62.5890007019043 -43.79999923706055,-60.84000015258789 C-41.60599899291992,-60.05799865722656 -39.48099899291992,-59.15399932861328 -37.41999816894531,-58.13600158691406z"></path></g><g opacity="1" transform="matrix(1,0,0,1,0,0)"><path fill="rgb(255,211,240)" fill-opacity="1" d=" M-43.79999923706055,-60.84000015258789 C-55.400001525878906,-62.5890007019043 -68.00599670410156,-62.95800018310547 -80.4729995727539,-61.0369987487793 C-74.50499725341797,-62.9900016784668 -67.73400115966797,-64.0459976196289 -60.11000061035156,-63.887001037597656 C-54.3380012512207,-63.76599884033203 -48.89400100708008,-62.65299987792969 -43.79999923706055,-60.84000015258789z"></path></g><g opacity="0.5" transform="matrix(1,0,0,1,0,0)"><path fill="rgb(252,60,175)" fill-opacity="1" d=" M2.990999937057495,-17.291000366210938 C-8.07800006866455,-27.621999740600586 -51.74599838256836,-40.770999908447266 -81.5770034790039,-20.121999740600586 C-117.04100036621094,4.426000118255615 -102.57599639892578,41.55699920654297 -102.03099822998047,42.797000885009766 C-104.35099792480469,38.92300033569336 -106.3489990234375,35.18299865722656 -108.05400085449219,31.56999969482422 C-110.0459976196289,18.04599952697754 -108.8290023803711,-4.955999851226807 -84.14800262451172,-22.035999298095703 C-55.000999450683594,-42.207000732421875 -13.04699993133545,-31.076000213623047 0.949999988079071,-20.790000915527344 C2.2360000610351562,-18.70400047302246 2.927999973297119,-17.4060001373291 2.990999937057495,-17.291000366210938z"></path></g></g><g opacity="1" transform="matrix(1,0,0,1,0,0)"><g opacity="1" transform="matrix(1,0,0,1,0,0)"><path fill="rgb(250,75,180)" fill-opacity="1" d=" M2.990999937057495,-17.291000366210938 C14.0600004196167,-27.621999740600586 57.72800064086914,-40.770999908447266 87.55899810791016,-20.121999740600586 C123.02300262451172,4.426000118255615 108.55699920654297,41.55699920654297 108.01200103759766,42.797000885009766 C112.57499694824219,35.16999816894531 115.89399719238281,28.065000534057617 118.25599670410156,21.410999298095703 C118.08100128173828,7.671000003814697 113.10600280761719,-10.140999794006348 92.91799926757812,-24.110000610351562 C64.24700164794922,-43.957000732421875 23.555999755859375,-34.441001892089844 7.302000045776367,-24.31399917602539 C4.563000202178955,-20.216999053955078 3.0820000171661377,-17.46299934387207 2.990999937057495,-17.291000366210938z"></path></g><g opacity="1" transform="matrix(1,0,0,1,0,0)"><path fill="rgb(253,84,185)" fill-opacity="1" d=" M7.302000045776367,-24.31399917602539 C23.555999755859375,-34.441001892089844 64.24700164794922,-43.957000732421875 92.91799926757812,-24.110000610351562 C113.10600280761719,-10.140999794006348 118.08100128173828,7.671000003814697 118.25599670410156,21.410999298095703 C119.30400085449219,18.465999603271484 120.15699768066406,15.609000205993652 120.84200286865234,12.836000442504883 C118.96199798583984,0.2280000001192093 112.45700073242188,-14.204999923706055 95.43399810791016,-25.979999542236328 C67.06300354003906,-45.62300109863281 27.253000259399414,-37.297000885009766 9.406000137329102,-27.361000061035156 C8.63700008392334,-26.285999298095703 7.938000202178955,-25.261999130249023 7.302000045776367,-24.31399917602539z"></path></g><g opacity="1" transform="matrix(1,0,0,1,0,0)"><path fill="rgb(253,99,190)" fill-opacity="1" d=" M9.406000137329102,-27.361000061035156 C27.253000259399414,-37.297000885009766 67.06300354003906,-45.62300109863281 95.43399810791016,-25.979999542236328 C112.45700073242188,-14.204999923706055 118.96199798583984,0.2280000001192093 120.84200286865234,12.836000442504883 C121.8270034790039,8.88599967956543 122.48400115966797,5.099999904632568 122.86100006103516,1.468000054359436 C119.2969970703125,-8.805000305175781 112.19100189208984,-19.485000610351562 98.98400115966797,-28.6200008392334 C70.96299743652344,-48.02199935913086 32.18600082397461,-41.14500045776367 12.522000312805176,-31.54599952697754 C11.383000373840332,-30.08300018310547 10.348999977111816,-28.67799949645996 9.406000137329102,-27.361000061035156z"></path></g><g opacity="1" transform="matrix(1,0,0,1,0,0)"><path fill="rgb(250,114,194)" fill-opacity="1" d=" M12.522000312805176,-31.54599952697754 C32.18600082397461,-41.14500045776367 70.96299743652344,-48.02199935913086 98.98400115966797,-28.6200008392334 C112.19100189208984,-19.485000610351562 119.2969970703125,-8.805000305175781 122.86100006103516,1.468000054359436 C123.24500274658203,-2.183000087738037 123.35800170898438,-5.681000232696533 123.26000213623047,-9.039999961853027 C118.96900177001953,-16.768999099731445 112.38700103759766,-24.42799949645996 102.5199966430664,-31.253999710083008 C74.8270034790039,-50.41999816894531 37.013999938964844,-44.847999572753906 15.87600040435791,-35.66899871826172 C14.673999786376953,-34.26300048828125 13.555999755859375,-32.88199996948242 12.522000312805176,-31.54599952697754z"></path></g><g opacity="1" transform="matrix(1,0,0,1,0,0)"><path fill="rgb(253,124,200)" fill-opacity="1" d=" M15.87600040435791,-35.66899871826172 C37.013999938964844,-44.847999572753906 74.8270034790039,-50.41999816894531 102.5199966430664,-31.253999710083008 C112.38700103759766,-24.42799949645996 118.96900177001953,-16.768999099731445 123.26000213623047,-9.039999961853027 C123.23200225830078,-10.357000350952148 123.16200256347656,-11.654999732971191 123.07099914550781,-12.927000045776367 C122.92400360107422,-14.975000381469727 122.63099670410156,-17.113000869750977 122.197998046875,-19.301000595092773 C118.13099670410156,-24.42799949645996 112.91100311279297,-29.409000396728516 106.24400329589844,-34.020999908447266 C78.9209976196289,-52.926998138427734 42.12300109863281,-48.632999420166016 19.719999313354492,-39.974998474121094 C18.35700035095215,-38.53099822998047 17.077999114990234,-37.0880012512207 15.87600040435791,-35.66899871826172z"></path></g><g opacity="1" transform="matrix(1,0,0,1,0,0)"><path fill="rgb(251,138,204)" fill-opacity="1" d=" M19.719999313354492,-39.974998474121094 C42.12300109863281,-48.632999420166016 78.9209976196289,-52.926998138427734 106.24400329589844,-34.020999908447266 C112.91100311279297,-29.409000396728516 118.13099670410156,-24.42799949645996 122.197998046875,-19.301000595092773 C121.60399627685547,-22.277999877929688 120.7300033569336,-25.357999801635742 119.56999969482422,-28.43000030517578 C116.65599822998047,-31.215999603271484 113.3499984741211,-33.91999816894531 109.5979995727539,-36.51499938964844 C82.69400024414062,-55.13399887084961 46.88199996948242,-51.95899963378906 23.562999725341797,-43.86800003051758 C22.22100067138672,-42.57699966430664 20.94300079345703,-41.27299880981445 19.719999313354492,-39.974998474121094z"></path></g><g opacity="1" transform="matrix(1,0,0,1,0,0)"><path fill="rgb(255,148,212)" fill-opacity="1" d=" M23.562999725341797,-43.86800003051758 C46.88199996948242,-51.95899963378906 82.69400024414062,-55.13399887084961 109.5979995727539,-36.51499938964844 C113.3499984741211,-33.91999816894531 116.65599822998047,-31.215999603271484 119.56999969482422,-28.43000030517578 C118.2699966430664,-31.871000289916992 116.60800170898438,-35.319000244140625 114.55999755859375,-38.632999420166016 C114.2040023803711,-38.887001037597656 113.83999633789062,-39.141998291015625 113.47699737548828,-39.395999908447266 C87.21600341796875,-57.57600021362305 52.757999420166016,-55.707000732421875 28.649999618530273,-48.42300033569336 C26.868000030517578,-46.946998596191406 25.170000076293945,-45.41400146484375 23.562999725341797,-43.86800003051758z"></path></g><g opacity="1" transform="matrix(1,0,0,1,0,0)"><path fill="rgb(255,161,216)" fill-opacity="1" d=" M28.649999618530273,-48.42300033569336 C52.757999420166016,-55.707000732421875 87.21600341796875,-57.57600021362305 113.47699737548828,-39.395999908447266 C113.83999633789062,-39.141998291015625 114.2040023803711,-38.887001037597656 114.55999755859375,-38.632999420166016 C112.92500305175781,-41.27299880981445 111.0510025024414,-43.83599853515625 108.91300201416016,-46.24700164794922 C84.62999725341797,-59.1349983215332 55.44200134277344,-57.91400146484375 33.31800079345703,-52.0359992980957 C31.70400047302246,-50.87799835205078 30.145000457763672,-49.66999816894531 28.649999618530273,-48.42300033569336z"></path></g><g opacity="1" transform="matrix(1,0,0,1,0,0)"><path fill="rgb(255,173,222)" fill-opacity="1" d=" M33.31800079345703,-52.0359992980957 C55.44200134277344,-57.91400146484375 84.62999725341797,-59.1349983215332 108.91300201416016,-46.24700164794922 C107.06800079345703,-48.33399963378906 105.03500366210938,-50.305999755859375 102.79900360107422,-52.125 C81.3740005493164,-60.49599838256836 57.42599868774414,-59.65599822998047 37.979000091552734,-55.13999938964844 C36.37900161743164,-54.15999984741211 34.82099914550781,-53.117000579833984 33.31800079345703,-52.0359992980957z"></path></g><g opacity="1" transform="matrix(1,0,0,1,0,0)"><path fill="rgb(255,188,227)" fill-opacity="1" d=" M37.979000091552734,-55.13999938964844 C57.42599868774414,-59.65599822998047 81.3740005493164,-60.49599838256836 102.79900360107422,-52.125 C100.54199981689453,-53.9640007019043 98.08899688720703,-55.643001556396484 95.41999816894531,-57.125 C77.9010009765625,-61.8129997253418 59.417999267578125,-61.24700164794922 43.402000427246094,-58.13600158691406 C41.5359992980957,-57.220001220703125 39.733001708984375,-56.21500015258789 37.979000091552734,-55.13999938964844z"></path></g><g opacity="1" transform="matrix(1,0,0,1,0,0)"><path fill="rgb(255,202,232)" fill-opacity="1" d=" M43.402000427246094,-58.13600158691406 C59.417999267578125,-61.24700164794922 77.9010009765625,-61.8129997253418 95.41999816894531,-57.125 C92.66000366210938,-58.65800094604492 89.67500305175781,-59.974998474121094 86.4540023803711,-61.0369987487793 C73.98699951171875,-62.95800018310547 61.38199996948242,-62.5890007019043 49.78200149536133,-60.84000015258789 C47.5880012512207,-60.05799865722656 45.4640007019043,-59.15399932861328 43.402000427246094,-58.13600158691406z"></path></g><g opacity="1" transform="matrix(1,0,0,1,0,0)"><path fill="rgb(255,211,240)" fill-opacity="1" d=" M49.78200149536133,-60.84000015258789 C61.38199996948242,-62.5890007019043 73.98699951171875,-62.95800018310547 86.4540023803711,-61.0369987487793 C80.48600006103516,-62.9900016784668 73.71600341796875,-64.0459976196289 66.09200286865234,-63.887001037597656 C60.31999969482422,-63.76599884033203 54.875999450683594,-62.65299987792969 49.78200149536133,-60.84000015258789z"></path></g><g opacity="0.5" transform="matrix(1,0,0,1,0,0)"><path fill="rgb(252,60,175)" fill-opacity="1" d=" M2.990999937057495,-17.291000366210938 C14.0600004196167,-27.621999740600586 57.72800064086914,-40.770999908447266 87.55899810791016,-20.121999740600586 C123.02300262451172,4.426000118255615 108.55699920654297,41.55699920654297 108.01200103759766,42.797000885009766 C110.33200073242188,38.92300033569336 112.33100128173828,35.18299865722656 114.03600311279297,31.56999969482422 C116.02799987792969,18.04599952697754 114.81099700927734,-4.955999851226807 90.12999725341797,-22.035999298095703 C60.983001708984375,-42.207000732421875 19.027999877929688,-31.076000213623047 5.031000137329102,-20.790000915527344 C3.744999885559082,-18.70400047302246 3.053999900817871,-17.4060001373291 2.990999937057495,-17.291000366210938z"></path></g></g><g opacity="1" transform="matrix(1,0,0,1,0,0)"><g opacity="1" transform="matrix(1,0,0,1,64.5,-60.48400115966797)"><path fill="rgb(255,255,255)" fill-opacity="1" d=" M0,-2.865000009536743 C1.6540000438690186,-2.865000009536743 2.994999885559082,-1.5240000486373901 2.994999885559082,0.12999999523162842 C2.994999885559082,1.784000039100647 1.6540000438690186,3.125 0,3.125 C-1.6540000438690186,3.125 -2.994999885559082,1.784000039100647 -2.994999885559082,0.12999999523162842 C-2.994999885559082,-1.5240000486373901 -1.6540000438690186,-2.865000009536743 0,-2.865000009536743z"></path></g><g opacity="1" transform="matrix(1,0,0,1,0,0)"><path stroke-linecap="round" stroke-linejoin="round" fill-opacity="0" stroke="rgb(255,255,255)" stroke-opacity="1" stroke-width="6" d=" M47.749000549316406,-56.34000015258789 C47.749000549316406,-56.34000015258789 50.1879997253418,-57.797000885009766 54.986000061035156,-58.97200012207031"></path></g></g><g opacity="1" transform="matrix(1,0,0,1,0,0)"><g opacity="1" transform="matrix(1,0,0,1,0,0)"><path stroke-linecap="round" stroke-linejoin="round" fill-opacity="0" stroke="rgb(197,0,107)" stroke-opacity="1" stroke-width="8" d=" M135.36700439453125,-19.409000396728516 C133.6719970703125,-45.025001525878906 112.30699920654297,-79.072998046875 69.5790023803711,-78.0999984741211 C32.97600173950195,-77.26699829101562 10.22599983215332,-45.974998474121094 4.455999851226807,-37.020999908447266 C3.7869999408721924,-35.983001708984375 2.2130000591278076,-35.983001708984375 1.5440000295639038,-37.020999908447266 C-4.22599983215332,-45.974998474121094 -26.97599983215332,-77.26699829101562 -63.57899856567383,-78.0999984741211 C-106.30699920654297,-79.072998046875 -127.6709976196289,-45.025001525878906 -129.36700439453125,-19.409000396728516 C-131.06300354003906,6.206999778747559 -124.62000274658203,35.066001892089844 -88.67400360107422,79.81300354003906 C-60.9640007019043,114.30799865722656 -21.49799919128418,152.46600341796875 -4.868000030517578,168.13900756835938 C-0.5019999742507935,172.25399780273438 6.501999855041504,172.25399780273438 10.868000030517578,168.13900756835938 C27.49799919128418,152.46600341796875 66.96399688720703,114.30799865722656 94.67400360107422,79.81300354003906 C130.6199951171875,35.066001892089844 137.06199645996094,6.206999778747559 135.36700439453125,-19.409000396728516z"></path></g></g></g></g></svg>