<svg xmlns="http://www.w3.org/2000/svg" viewBox="0 0 512 512" width="512" height="512" style="width: 100%; height: 100%; transform: translate3d(0,0,0);" preserveAspectRatio="xMidYMid meet"><defs><clipPath id="__lottie_element_14657"><rect width="512" height="512" x="0" y="0"></rect></clipPath><linearGradient id="__lottie_element_14665" spreadMethod="pad" gradientUnits="userSpaceOnUse" x1="155" y1="-96" x2="155" y2="-156.21400451660156"><stop offset="0%" stop-color="rgb(16,30,151)"></stop><stop offset="50%" stop-color="rgb(24,48,172)"></stop><stop offset="100%" stop-color="rgb(32,66,192)"></stop></linearGradient><linearGradient id="__lottie_element_14669" spreadMethod="pad" gradientUnits="userSpaceOnUse" x1="155" y1="-96" x2="155" y2="-156.21400451660156"><stop offset="0%" stop-color="rgb(16,30,151)"></stop><stop offset="50%" stop-color="rgb(24,48,172)"></stop><stop offset="100%" stop-color="rgb(32,66,192)"></stop></linearGradient><linearGradient id="__lottie_element_14673" spreadMethod="pad" gradientUnits="userSpaceOnUse" x1="155" y1="-96" x2="155" y2="-156.21400451660156"><stop offset="0%" stop-color="rgb(16,30,151)"></stop><stop offset="50%" stop-color="rgb(24,48,172)"></stop><stop offset="100%" stop-color="rgb(32,66,192)"></stop></linearGradient></defs><g clip-path="url(#__lottie_element_14657)"><g style="display: block;" transform="matrix(1,0,0,1,256,256)" opacity="1"><g opacity="0.1" transform="matrix(1,0,0,1,0,0)"><path fill="rgb(0,0,0)" fill-opacity="1" d=" M196.02499389648438,7.050000190734863 C196.02499389648438,115.31099700927734 108.26100158691406,203.0749969482422 0,203.0749969482422 C-108.26100158691406,203.0749969482422 -196.02499389648438,115.31099700927734 -196.02499389648438,7.050000190734863 C-196.02499389648438,-101.21099853515625 -108.26100158691406,-188.9739990234375 0,-188.9739990234375 C108.26100158691406,-188.9739990234375 196.02499389648438,-101.21099853515625 196.02499389648438,7.050000190734863z"></path></g><g opacity="1" transform="matrix(1,0,0,1,0,0)"><path fill="rgb(255,173,0)" fill-opacity="1" d=" M188.875,-7.949999809265137 C188.875,96.36299896240234 104.31300354003906,180.92599487304688 0,180.92599487304688 C-104.31300354003906,180.92599487304688 -188.875,96.36299896240234 -188.875,-7.949999809265137 C-188.875,-112.26300048828125 -104.31300354003906,-196.8249969482422 0,-196.8249969482422 C104.31300354003906,-196.8249969482422 188.875,-112.26300048828125 188.875,-7.949999809265137z"></path><path stroke-linecap="butt" stroke-linejoin="miter" fill-opacity="0" stroke-miterlimit="10" stroke="rgb(255,118,42)" stroke-opacity="1" stroke-width="8" d=" M188.875,-7.949999809265137 C188.875,96.36299896240234 104.31300354003906,180.92599487304688 0,180.92599487304688 C-104.31300354003906,180.92599487304688 -188.875,96.36299896240234 -188.875,-7.949999809265137 C-188.875,-112.26300048828125 -104.31300354003906,-196.8249969482422 0,-196.8249969482422 C104.31300354003906,-196.8249969482422 188.875,-112.26300048828125 188.875,-7.949999809265137z"></path></g><g opacity="1" transform="matrix(1,0,0,1,0,0)"><path fill="rgb(255,207,0)" fill-opacity="1" d=" M168.40699768066406,-7.236999988555908 C166.9499969482422,87.79199981689453 90.39600372314453,163.6719970703125 -2.5820000171661377,162.2469940185547 C-95.55999755859375,160.82200622558594 -169.7519989013672,82.63099670410156 -168.29600524902344,-12.39799976348877 C-166.83999633789062,-107.427001953125 -90.28500366210938,-183.3070068359375 2.693000078201294,-181.8820037841797 C95.6709976196289,-180.45700073242188 169.86399841308594,-102.26599884033203 168.40699768066406,-7.236999988555908z"></path></g><g opacity="0.9" transform="matrix(1,0,0,1,0,0)"><path fill="rgb(255,222,102)" fill-opacity="1" d=" M149.26699829101562,-50.37799835205078 C149.26699829101562,22.264999389648438 82.43800354003906,-35.20000076293945 0,-35.20000076293945 C-82.43800354003906,-35.20000076293945 -149.26699829101562,22.264999389648438 -149.26699829101562,-50.37799835205078 C-149.26699829101562,-123.02100372314453 -82.43800354003906,-181.91099548339844 0,-181.91099548339844 C82.43800354003906,-181.91099548339844 149.26699829101562,-123.02100372314453 149.26699829101562,-50.37799835205078z"></path></g><g opacity="1" transform="matrix(1,0,0,1,0,0)"><path stroke-linecap="butt" stroke-linejoin="miter" fill-opacity="0" stroke-miterlimit="10" stroke="rgb(255,118,42)" stroke-opacity="1" stroke-width="8" d=" M188.875,-7.949999809265137 C188.875,96.36299896240234 104.31300354003906,180.92599487304688 0,180.92599487304688 C-104.31300354003906,180.92599487304688 -188.875,96.36299896240234 -188.875,-7.949999809265137 C-188.875,-112.26300048828125 -104.31300354003906,-196.8249969482422 0,-196.8249969482422 C104.31300354003906,-196.8249969482422 188.875,-112.26300048828125 188.875,-7.949999809265137z"></path></g><g opacity="1" transform="matrix(1,0,0,1,0,0)"><g opacity="1" transform="matrix(1,0,0,1,0,0)"><path stroke-linecap="round" stroke-linejoin="round" fill-opacity="0" stroke="rgb(255,255,255)" stroke-opacity="1" stroke-width="6" d=" M36.37300109863281,-177.6909942626953 C37.9109992980957,-177.3560028076172 39.505001068115234,-176.98699951171875 41.150001525878906,-176.58099365234375"></path></g><g opacity="1" transform="matrix(1,0,0,1,0,0)"><path stroke-linecap="round" stroke-linejoin="round" fill-opacity="0" stroke="rgb(255,255,255)" stroke-opacity="1" stroke-width="6" d=" M15.017999649047852,-180.91099548339844 C15.017999649047852,-180.91099548339844 19.885000228881836,-180.64999389648438 27.607999801635742,-179.3719940185547"></path></g></g></g><g style="display: block;" transform="matrix(1,0,0,1,124.60800170898438,249.9010009765625)" opacity="1"><g opacity="1" transform="matrix(1,0,0,1,0,0)"><path fill="rgb(255,172,0)" fill-opacity="1" d=" M133.0399932861328,-143.22799682617188 C133.0399932861328,-143.22799682617188 132.86900329589844,-135.72999572753906 132.86900329589844,-135.72999572753906 C132.85899353027344,-135.28900146484375 133.20799255371094,-134.9239959716797 133.6490020751953,-134.91400146484375 C133.6490020751953,-134.91400146484375 154.5290069580078,-134.43899536132812 154.5290069580078,-134.43899536132812 C154.81500244140625,-134.4320068359375 154.96299743652344,-134.09500122070312 154.7740020751953,-133.8800048828125 C154.7740020751953,-133.8800048828125 129.0570068359375,-106.86599731445312 129.0570068359375,-106.86599731445312 C128.9320068359375,-106.7249984741211 128.86099243164062,-106.54399871826172 128.85699462890625,-106.35600280761719 C128.85699462890625,-106.35600280761719 128.6790008544922,-98.51200103759766 128.6790008544922,-98.51200103759766 C128.66900634765625,-98.07099914550781 129.01800537109375,-97.70600128173828 129.45899963378906,-97.69599914550781 C129.45899963378906,-97.69599914550781 166.7209930419922,-96.75299835205078 166.7209930419922,-96.75299835205078 C167.16200256347656,-96.74299621582031 167.52699279785156,-97.09200286865234 167.53700256347656,-97.53299713134766 C167.53700256347656,-97.53299713134766 167.70399475097656,-104.87000274658203 167.70399475097656,-104.87000274658203 C167.71400451660156,-105.31099700927734 167.36500549316406,-105.6760025024414 166.9239959716797,-105.68599700927734 C166.9239959716797,-105.68599700927734 144.2270050048828,-106.2030029296875 144.2270050048828,-106.2030029296875 C143.9409942626953,-106.20999908447266 143.79299926757812,-106.5459976196289 143.9810028076172,-106.76100158691406 C143.9810028076172,-106.76100158691406 168.19000244140625,-133.906005859375 168.19000244140625,-133.906005859375 C168.31300354003906,-134.0469970703125 168.38299560546875,-134.2270050048828 168.38699340820312,-134.41400146484375 C168.38699340820312,-134.41400146484375 168.56900024414062,-142.4199981689453 168.56900024414062,-142.4199981689453 C168.57899475097656,-142.86099243164062 168.2310028076172,-143.2259979248047 167.7899932861328,-143.23599243164062 C167.7899932861328,-143.23599243164062 133.8560028076172,-144.00799560546875 133.8560028076172,-144.00799560546875 C133.4149932861328,-144.01800537109375 133.0500030517578,-143.66900634765625 133.0399932861328,-143.22799682617188z"></path></g></g><g style="display: block;" transform="matrix(1,0,0,1,179.85800170898438,219.74099731445312)" opacity="1"><g opacity="1" transform="matrix(1,0,0,1,0,0)"><path fill="rgb(255,172,0)" fill-opacity="1" d=" M127.77100372314453,-146.2519989013672 C127.77100372314453,-146.2519989013672 128.02099609375,-139.73899841308594 128.02099609375,-139.73899841308594 C128.02099609375,-139.05499267578125 128.5760040283203,-138.50100708007812 129.25999450683594,-138.50100708007812 C129.25999450683594,-138.50100708007812 143.79400634765625,-132.75100708007812 143.79400634765625,-132.75100708007812 C144.23800659179688,-132.75100708007812 144.47900390625,-132.23199462890625 144.1929931640625,-131.89199829101562 C144.1929931640625,-131.89199829101562 125.68399810791016,-109.77799987792969 125.68399810791016,-109.77799987792969 C125.49600219726562,-109.55500030517578 125.39199829101562,-109.27200317382812 125.39199829101562,-108.9800033569336 C125.39199829101562,-108.9800033569336 125.45500183105469,-90.05500030517578 125.45500183105469,-90.05500030517578 C125.45500183105469,-89.37100219726562 126.00900268554688,-88.81600189208984 126.69300079345703,-88.81600189208984 C126.69300079345703,-88.81600189208984 161.14199829101562,-88.86499786376953 182.42999267578125,-79.06600189208984 C183.76199340820312,-78.4530029296875 184.04400634765625,-79.30899810791016 184.04400634765625,-79.99299621582031 C184.04400634765625,-79.99299621582031 183.79400634765625,-93.81900024414062 183.79400634765625,-93.81900024414062 C183.79400634765625,-94.50299835205078 183.23899841308594,-95.05699920654297 182.55499267578125,-95.05699920654297 C182.55499267578125,-95.05699920654297 144.0760040283203,-102.55699920654297 144.0760040283203,-102.55699920654297 C143.63299560546875,-102.55699920654297 143.39100646972656,-103.0739974975586 143.6750030517578,-103.41400146484375 C143.6750030517578,-103.41400146484375 161.1300048828125,-131.906005859375 161.1300048828125,-131.906005859375 C161.3159942626953,-132.12899780273438 161.41900634765625,-132.41000366210938 161.41900634765625,-132.6999969482422 C161.41900634765625,-132.6999969482422 160.79400634765625,-134.8769989013672 160.79400634765625,-134.8769989013672 C160.79400634765625,-135.56100463867188 160.23899841308594,-136.11599731445312 159.55499267578125,-136.11599731445312 C159.55499267578125,-136.11599731445312 129.00999450683594,-147.49099731445312 129.00999450683594,-147.49099731445312 C128.3260040283203,-147.49099731445312 127.77100372314453,-146.93600463867188 127.77100372314453,-146.2519989013672z"></path></g></g><g style="display: block;" transform="matrix(1,0,0,1,252.41900634765625,268.1499938964844)" opacity="1"><g opacity="1" transform="matrix(1,0,0,1,0,0)"><path fill="rgb(255,173,0)" fill-opacity="1" d=" M125.94000244140625,-147.2010040283203 C125.94000244140625,-147.2010040283203 124.94000244140625,-144.22999572753906 124.94000244140625,-144.22999572753906 C125.20700073242188,-142.3990020751953 125.50499725341797,-142.94000244140625 126.3550033569336,-142.94000244140625 C126.3550033569336,-142.94000244140625 133.7779998779297,-137.81500244140625 133.7779998779297,-137.81500244140625 C134.3300018310547,-137.81500244140625 132.75599670410156,-134.41900634765625 132.39999389648438,-133.9969940185547 C132.39999389648438,-133.9969940185547 110.41200256347656,-107.11199951171875 110.41200256347656,-107.11199951171875 C110.1780014038086,-106.83399963378906 109.92500305175781,-105.60700225830078 109.92500305175781,-105.24400329589844 C109.92500305175781,-105.24400329589844 110.05000305175781,-82.85600280761719 110.05000305175781,-82.85600280761719 C110.05000305175781,-82.00499725341797 111.11399841308594,-80.69100189208984 111.96499633789062,-80.69100189208984 C111.96499633789062,-80.69100189208984 145.45700073242188,-76.14900207519531 169.7209930419922,-59.941001892089844 C170.08200073242188,-63.89899826049805 170.13600158691406,-60.755001068115234 170.13600158691406,-61.60599899291992 C170.13600158691406,-61.60599899291992 167.32400512695312,-81.3290023803711 167.32400512695312,-81.3290023803711 C167.32400512695312,-82.17900085449219 167.8040008544922,-81.69000244140625 166.3459930419922,-82.68199920654297 C155.83200073242188,-89.83699798583984 127.79199981689453,-95.80699920654297 127.79199981689453,-95.80699920654297 C127.24099731445312,-95.80699920654297 126.81500244140625,-97.32499694824219 127.16899871826172,-97.74800109863281 C127.16899871826172,-97.74800109863281 144.77699279785156,-122.38600158691406 144.77699279785156,-122.38600158691406 C145.00900268554688,-122.66300201416016 145.13600158691406,-123.01300048828125 145.13600158691406,-123.3740005493164 C145.13600158691406,-123.3740005493164 144.76100158691406,-136.4510040283203 144.76100158691406,-136.4510040283203 C144.76100158691406,-137.302001953125 144.0709991455078,-137.99099731445312 143.2209930419922,-137.99099731445312 C143.2209930419922,-137.99099731445312 127.9800033569336,-146.74099731445312 127.9800033569336,-146.74099731445312 C127.12999725341797,-146.74099731445312 125.94000244140625,-148.052001953125 125.94000244140625,-147.2010040283203z"></path></g></g><g style="display: block;" transform="matrix(1,0,0,1,256,256)" opacity="1"><g opacity="1" transform="matrix(1,0,0,1,0,0)"><g opacity="1" transform="matrix(1,0,0,1,0,0)"><path fill="rgb(255,173,0)" fill-opacity="1" d=" M126.44000244140625,-17.273000717163086 C124.9800033569336,-18.523000717163086 122.08000183105469,-18.39299964904785 117.93000030517578,-16.003000259399414 C102.36000061035156,-7.0329999923706055 87.36000061035156,-5.4029998779296875 77.06999969482422,-5.4029998779296875 C66.79000091552734,-5.4029998779296875 53.849998474121094,-5.663000106811523 36.220001220703125,-16.003000259399414 C32.06999969482422,-18.433000564575195 29.170000076293945,-18.562999725341797 27.700000762939453,-17.292999267578125 C24.709999084472656,-23.42300033569336 28.06999969482422,-27.562999725341797 36.220001220703125,-22.773000717163086 C53.849998474121094,-12.432999610900879 66.79000091552734,-12.17300033569336 77.06999969482422,-12.17300033569336 C87.36000061035156,-12.17300033569336 102.36000061035156,-13.803000450134277 117.93000030517578,-22.773000717163086 C126.12999725341797,-27.503000259399414 129.4600067138672,-23.402999877929688 126.44000244140625,-17.273000717163086z"></path></g><g opacity="1" transform="matrix(1,0,0,1,0,0)"><path fill="rgb(255,225,156)" fill-opacity="1" d=" M120.2750015258789,-23.23200035095215 C104.7040023803711,-14.26099967956543 87.36100006103516,-7.175000190734863 77.07499694824219,-7.175000190734863 C66.78900146484375,-7.175000190734863 51.88800048828125,-12.760000228881836 34.2599983215332,-23.10300064086914 C25.319000244140625,-28.349000930786133 24.104000091552734,-17.547000885009766 28.73200035095215,-10.475000381469727 C33.361000061035156,-3.4040000438690186 48.18899917602539,16.48200035095215 77.07499694824219,16.48200035095215 C105.96099853515625,16.48200035095215 120.78900146484375,-3.4040000438690186 125.41799926757812,-10.475000381469727 C130.04600524902344,-17.547000885009766 129.2570037841797,-28.406999588012695 120.2750015258789,-23.23200035095215z"></path></g><g opacity="1" transform="matrix(1,0,0,1,0,0)"><path fill="rgb(143,58,0)" fill-opacity="1" d=" M117.93199920654297,-22.774999618530273 C102.36100006103516,-13.803999900817871 87.36100006103516,-12.175000190734863 77.07499694824219,-12.175000190734863 C66.78900146484375,-12.175000190734863 53.84600067138672,-12.432000160217285 36.21799850463867,-22.774999618530273 C27.277000427246094,-28.020000457763672 24.104000091552734,-22.547000885009766 28.73200035095215,-15.475000381469727 C33.361000061035156,-8.404000282287598 48.18899917602539,11.482000350952148 77.07499694824219,11.482000350952148 C105.96099853515625,11.482000350952148 120.78900146484375,-8.404000282287598 125.41799926757812,-15.475000381469727 C130.04600524902344,-22.547000885009766 126.91400146484375,-27.950000762939453 117.93199920654297,-22.774999618530273z"></path></g><g opacity="1" transform="matrix(1,0,0,1,0,0)"><path fill="rgb(116,24,0)" fill-opacity="1" d=" M126.44000244140625,-17.273000717163086 C124.9800033569336,-18.523000717163086 122.08000183105469,-18.39299964904785 117.93000030517578,-16.003000259399414 C102.36000061035156,-7.0329999923706055 87.36000061035156,-5.4029998779296875 77.06999969482422,-5.4029998779296875 C66.79000091552734,-5.4029998779296875 53.849998474121094,-5.663000106811523 36.220001220703125,-16.003000259399414 C32.06999969482422,-18.433000564575195 29.170000076293945,-18.562999725341797 27.700000762939453,-17.292999267578125 C24.709999084472656,-23.42300033569336 28.06999969482422,-27.562999725341797 36.220001220703125,-22.773000717163086 C53.849998474121094,-12.432999610900879 66.79000091552734,-12.17300033569336 77.06999969482422,-12.17300033569336 C87.36000061035156,-12.17300033569336 102.36000061035156,-13.803000450134277 117.93000030517578,-22.773000717163086 C126.12999725341797,-27.503000259399414 129.4600067138672,-23.402999877929688 126.44000244140625,-17.273000717163086z"></path></g></g><g opacity="1" transform="matrix(1,0,0,1,0,0)"><g opacity="1" transform="matrix(1,0,0,1,0,0)"><path fill="rgb(255,173,0)" fill-opacity="1" d=" M-126.44000244140625,-17.273000717163086 C-124.9800033569336,-18.523000717163086 -122.08000183105469,-18.39299964904785 -117.93000030517578,-16.003000259399414 C-102.36000061035156,-7.0329999923706055 -87.36000061035156,-5.4029998779296875 -77.06999969482422,-5.4029998779296875 C-66.79000091552734,-5.4029998779296875 -53.849998474121094,-5.663000106811523 -36.220001220703125,-16.003000259399414 C-32.06999969482422,-18.433000564575195 -29.170000076293945,-18.562999725341797 -27.700000762939453,-17.292999267578125 C-24.709999084472656,-23.42300033569336 -28.06999969482422,-27.562999725341797 -36.220001220703125,-22.773000717163086 C-53.849998474121094,-12.432999610900879 -66.79000091552734,-12.17300033569336 -77.06999969482422,-12.17300033569336 C-87.36000061035156,-12.17300033569336 -102.36000061035156,-13.803000450134277 -117.93000030517578,-22.773000717163086 C-126.12999725341797,-27.503000259399414 -129.4600067138672,-23.402999877929688 -126.44000244140625,-17.273000717163086z"></path></g><g opacity="1" transform="matrix(1,0,0,1,0,0)"><path fill="rgb(255,225,156)" fill-opacity="1" d=" M-120.2750015258789,-23.23200035095215 C-104.7040023803711,-14.26099967956543 -87.36100006103516,-7.175000190734863 -77.07499694824219,-7.175000190734863 C-66.78900146484375,-7.175000190734863 -51.88800048828125,-12.760000228881836 -34.2599983215332,-23.10300064086914 C-25.319000244140625,-28.349000930786133 -24.104000091552734,-17.547000885009766 -28.73200035095215,-10.475000381469727 C-33.361000061035156,-3.4040000438690186 -48.18899917602539,16.48200035095215 -77.07499694824219,16.48200035095215 C-105.96099853515625,16.48200035095215 -120.78900146484375,-3.4040000438690186 -125.41799926757812,-10.475000381469727 C-130.04600524902344,-17.547000885009766 -129.2570037841797,-28.406999588012695 -120.2750015258789,-23.23200035095215z"></path></g><g opacity="1" transform="matrix(1,0,0,1,0,0)"><path fill="rgb(143,58,0)" fill-opacity="1" d=" M-117.93199920654297,-22.774999618530273 C-102.36100006103516,-13.803999900817871 -87.36100006103516,-12.175000190734863 -77.07499694824219,-12.175000190734863 C-66.78900146484375,-12.175000190734863 -53.84600067138672,-12.432000160217285 -36.21799850463867,-22.774999618530273 C-27.277000427246094,-28.020000457763672 -24.104000091552734,-22.547000885009766 -28.73200035095215,-15.475000381469727 C-33.361000061035156,-8.404000282287598 -48.18899917602539,11.482000350952148 -77.07499694824219,11.482000350952148 C-105.96099853515625,11.482000350952148 -120.78900146484375,-8.404000282287598 -125.41799926757812,-15.475000381469727 C-130.04600524902344,-22.547000885009766 -126.91400146484375,-27.950000762939453 -117.93199920654297,-22.774999618530273z"></path></g><g opacity="1" transform="matrix(1,0,0,1,0,0)"><path fill="rgb(116,24,0)" fill-opacity="1" d=" M-126.44000244140625,-17.273000717163086 C-124.9800033569336,-18.523000717163086 -122.08000183105469,-18.39299964904785 -117.93000030517578,-16.003000259399414 C-102.36000061035156,-7.0329999923706055 -87.36000061035156,-5.4029998779296875 -77.06999969482422,-5.4029998779296875 C-66.79000091552734,-5.4029998779296875 -53.849998474121094,-5.663000106811523 -36.220001220703125,-16.003000259399414 C-32.06999969482422,-18.433000564575195 -29.170000076293945,-18.562999725341797 -27.700000762939453,-17.292999267578125 C-24.709999084472656,-23.42300033569336 -28.06999969482422,-27.562999725341797 -36.220001220703125,-22.773000717163086 C-53.849998474121094,-12.432999610900879 -66.79000091552734,-12.17300033569336 -77.06999969482422,-12.17300033569336 C-87.36000061035156,-12.17300033569336 -102.36000061035156,-13.803000450134277 -117.93000030517578,-22.773000717163086 C-126.12999725341797,-27.503000259399414 -129.4600067138672,-23.402999877929688 -126.44000244140625,-17.273000717163086z"></path></g></g></g><g style="display: block;" transform="matrix(1,0,0,1,256,256)" opacity="1"><g opacity="1" transform="matrix(1,0,0,1,0,0)"><path fill="rgb(255,225,156)" fill-opacity="1" d=" M32.180999755859375,88.61199951171875 C32.180999755859375,106.7020034790039 17.22100067138672,122.36799621582031 0,122.36799621582031 C-17.22100067138672,122.36799621582031 -32.180999755859375,106.7020034790039 -32.180999755859375,88.61199951171875 C-32.180999755859375,70.52200317382812 -17.22100067138672,55.856998443603516 0,55.856998443603516 C17.22100067138672,55.856998443603516 32.180999755859375,70.52200317382812 32.180999755859375,88.61199951171875z"></path></g><g opacity="1" transform="matrix(1,0,0,1,0,0)"><path fill="rgb(255,173,0)" fill-opacity="1" d=" M31.180999755859375,84.6760025024414 C31.180999755859375,102.49400329589844 17.22100067138672,116.93900299072266 0,116.93900299072266 C-17.22100067138672,116.93900299072266 -31.180999755859375,102.49400329589844 -31.180999755859375,84.6760025024414 C-31.180999755859375,66.85700225830078 -17.22100067138672,51.4119987487793 0,51.4119987487793 C17.22100067138672,51.4119987487793 31.180999755859375,66.85700225830078 31.180999755859375,84.6760025024414z"></path></g><g opacity="1" transform="matrix(1,0,0,1,0,0)"><path fill="rgb(143,58,0)" fill-opacity="1" d=" M30,87.23500061035156 C30,103.8030014038086 16.56800079345703,117.23400115966797 0,117.23400115966797 C-16.56800079345703,117.23400115966797 -30,103.8030014038086 -30,87.23500061035156 C-30,70.66699981689453 -16.56800079345703,57.23500061035156 0,57.23500061035156 C16.56800079345703,57.23500061035156 30,70.66699981689453 30,87.23500061035156z"></path></g><g opacity="1" transform="matrix(1,0,0,1,0,0)"><path fill="rgb(116,24,0)" fill-opacity="1" d=" M28.37700080871582,96.98899841308594 C29.16699981689453,76.25 15.781999588012695,63.375 -0.0020000000949949026,63.375 C-15.78600025177002,63.375 -29.16699981689453,78 -28.374000549316406,96.98899841308594 C-29.42799949645996,93.93000030517578 -30,90.6510009765625 -30,87.23400115966797 C-30,70.66400146484375 -16.57200050354004,57.236000061035156 -0.0020000000949949026,57.236000061035156 C16.56800079345703,57.236000061035156 30.003000259399414,70.66400146484375 30.003000259399414,87.23400115966797 C30.003000259399414,90.6510009765625 29.430999755859375,93.93000030517578 28.37700080871582,96.98899841308594z"></path></g></g><g style="display: block;" transform="matrix(1,0,0,1,250.18301391601562,256.22198486328125)" opacity="1"><g opacity="1" transform="matrix(1,0,0,1,0,0)"><path fill="url(#__lottie_element_14673)" fill-opacity="1" d=" M122.94000244140625,-167.3260040283203 C122.94000244140625,-167.3260040283203 122.94000244140625,-152.85499572753906 122.94000244140625,-152.85499572753906 C122.94000244140625,-152.00399780273438 123.62999725341797,-151.31500244140625 124.4800033569336,-151.31500244140625 C124.4800033569336,-151.31500244140625 164.7779998779297,-151.31500244140625 164.7779998779297,-151.31500244140625 C165.3300018310547,-151.31500244140625 165.63099670410156,-150.66900634765625 165.27499389648438,-150.2469940185547 C165.27499389648438,-150.2469940185547 119.41200256347656,-95.86199951171875 119.41200256347656,-95.86199951171875 C119.1780014038086,-95.58399963378906 119.05000305175781,-95.23200225830078 119.05000305175781,-94.86900329589844 C119.05000305175781,-94.86900329589844 119.05000305175781,-79.73100280761719 119.05000305175781,-79.73100280761719 C119.05000305175781,-78.87999725341797 119.73899841308594,-78.19100189208984 120.58999633789062,-78.19100189208984 C120.58999633789062,-78.19100189208984 189.9709930419922,-78.19100189208984 189.9709930419922,-78.19100189208984 C190.8209991455078,-78.19100189208984 191.51100158691406,-78.87999725341797 191.51100158691406,-79.73100280761719 C191.51100158691406,-79.73100280761719 191.51100158691406,-93.89199829101562 191.51100158691406,-93.89199829101562 C191.51100158691406,-94.74199676513672 190.8209991455078,-95.43199920654297 189.9709930419922,-95.43199920654297 C189.9709930419922,-95.43199920654297 146.16700744628906,-95.43199920654297 146.16700744628906,-95.43199920654297 C145.61599731445312,-95.43199920654297 145.31500244140625,-96.07499694824219 145.66900634765625,-96.49800109863281 C145.66900634765625,-96.49800109863281 191.15199279785156,-150.88600158691406 191.15199279785156,-150.88600158691406 C191.38400268554688,-151.16299438476562 191.51100158691406,-151.51300048828125 191.51100158691406,-151.87399291992188 C191.51100158691406,-151.87399291992188 191.51100158691406,-167.3260040283203 191.51100158691406,-167.3260040283203 C191.51100158691406,-168.177001953125 190.8209991455078,-168.86599731445312 189.9709930419922,-168.86599731445312 C189.9709930419922,-168.86599731445312 124.4800033569336,-168.86599731445312 124.4800033569336,-168.86599731445312 C123.62999725341797,-168.86599731445312 122.94000244140625,-168.177001953125 122.94000244140625,-167.3260040283203z"></path></g></g><g style="display: block;" transform="matrix(1,0,0,1,183.35800170898438,214.74099731445312)" opacity="1"><g opacity="1" transform="matrix(1,0,0,1,0,0)"><path fill="url(#__lottie_element_14669)" fill-opacity="1" d=" M129.27099609375,-158.7519989013672 C129.27099609375,-158.7519989013672 129.27099609375,-147.11399841308594 129.27099609375,-147.11399841308594 C129.27099609375,-146.42999267578125 129.8260040283203,-145.87600708007812 130.50999450683594,-145.87600708007812 C130.50999450683594,-145.87600708007812 162.91900634765625,-145.87600708007812 162.91900634765625,-145.87600708007812 C163.36300659179688,-145.87600708007812 163.60400390625,-145.35699462890625 163.3179931640625,-145.01699829101562 C163.3179931640625,-145.01699829101562 126.43399810791016,-101.27799987792969 126.43399810791016,-101.27799987792969 C126.24600219726562,-101.05500030517578 126.14199829101562,-100.77200317382812 126.14199829101562,-100.4800033569336 C126.14199829101562,-100.4800033569336 126.14199829101562,-88.30500030517578 126.14199829101562,-88.30500030517578 C126.14199829101562,-87.62100219726562 126.6969985961914,-87.06600189208984 127.38099670410156,-87.06600189208984 C127.38099670410156,-87.06600189208984 183.17999267578125,-87.06600189208984 183.17999267578125,-87.06600189208984 C183.86399841308594,-87.06600189208984 184.41900634765625,-87.62100219726562 184.41900634765625,-88.30500030517578 C184.41900634765625,-88.30500030517578 184.41900634765625,-99.69400024414062 184.41900634765625,-99.69400024414062 C184.41900634765625,-100.37799835205078 183.86399841308594,-100.93199920654297 183.17999267578125,-100.93199920654297 C183.17999267578125,-100.93199920654297 147.9510040283203,-100.93199920654297 147.9510040283203,-100.93199920654297 C147.50799560546875,-100.93199920654297 147.26600646972656,-101.4489974975586 147.5500030517578,-101.78900146484375 C147.5500030517578,-101.78900146484375 184.1300048828125,-145.531005859375 184.1300048828125,-145.531005859375 C184.3159942626953,-145.75399780273438 184.41900634765625,-146.03500366210938 184.41900634765625,-146.3249969482422 C184.41900634765625,-146.3249969482422 184.41900634765625,-158.7519989013672 184.41900634765625,-158.7519989013672 C184.41900634765625,-159.43600463867188 183.86399841308594,-159.99099731445312 183.17999267578125,-159.99099731445312 C183.17999267578125,-159.99099731445312 130.50999450683594,-159.99099731445312 130.50999450683594,-159.99099731445312 C129.8260040283203,-159.99099731445312 129.27099609375,-159.43600463867188 129.27099609375,-158.7519989013672z"></path></g></g><g style="display: block;" transform="matrix(1,0,0,1,124.60800170898438,249.9010009765625)" opacity="1"><g opacity="1" transform="matrix(1,0,0,1,0,0)"><path fill="url(#__lottie_element_14665)" fill-opacity="1" d=" M138.5189971923828,-146.22799682617188 C138.5189971923828,-146.22799682617188 138.5189971923828,-138.72799682617188 138.5189971923828,-138.72799682617188 C138.5189971923828,-138.28700256347656 138.87600708007812,-137.92999267578125 139.31700134277344,-137.92999267578125 C139.31700134277344,-137.92999267578125 160.2030029296875,-137.92999267578125 160.2030029296875,-137.92999267578125 C160.48899841308594,-137.92999267578125 160.64500427246094,-137.59500122070312 160.4600067138672,-137.37600708007812 C160.4600067138672,-137.37600708007812 136.6909942626953,-109.19000244140625 136.6909942626953,-109.19000244140625 C136.57000732421875,-109.0459976196289 136.5030059814453,-108.86299896240234 136.5030059814453,-108.67500305175781 C136.5030059814453,-108.67500305175781 136.5030059814453,-100.8290023803711 136.5030059814453,-100.8290023803711 C136.5030059814453,-100.38800048828125 136.86000061035156,-100.03099822998047 137.30099487304688,-100.03099822998047 C137.30099487304688,-100.03099822998047 173.25999450683594,-100.03099822998047 173.25999450683594,-100.03099822998047 C173.7010040283203,-100.03099822998047 174.05799865722656,-100.38800048828125 174.05799865722656,-100.8290023803711 C174.05799865722656,-100.8290023803711 174.05799865722656,-108.16899871826172 174.05799865722656,-108.16899871826172 C174.05799865722656,-108.61000061035156 173.7010040283203,-108.96700286865234 173.25999450683594,-108.96700286865234 C173.25999450683594,-108.96700286865234 150.5570068359375,-108.96700286865234 150.5570068359375,-108.96700286865234 C150.27099609375,-108.96700286865234 150.11599731445312,-109.30000305175781 150.2989959716797,-109.51899719238281 C150.2989959716797,-109.51899719238281 173.8719940185547,-137.70799255371094 173.8719940185547,-137.70799255371094 C173.99200439453125,-137.8520050048828 174.05799865722656,-138.0330047607422 174.05799865722656,-138.22000122070312 C174.05799865722656,-138.22000122070312 174.05799865722656,-146.22799682617188 174.05799865722656,-146.22799682617188 C174.05799865722656,-146.66900634765625 173.7010040283203,-147.0260009765625 173.25999450683594,-147.0260009765625 C173.25999450683594,-147.0260009765625 139.31700134277344,-147.0260009765625 139.31700134277344,-147.0260009765625 C138.87600708007812,-147.0260009765625 138.5189971923828,-146.66900634765625 138.5189971923828,-146.22799682617188z"></path></g></g></g></svg>