<svg xmlns="http://www.w3.org/2000/svg" viewBox="0 0 512 512" width="512" height="512" style="width: 100%; height: 100%; transform: translate3d(0,0,0);" preserveAspectRatio="xMidYMid meet"><defs><clipPath id="__lottie_element_14690"><rect width="512" height="512" x="0" y="0"></rect></clipPath><linearGradient id="__lottie_element_14699" spreadMethod="pad" gradientUnits="userSpaceOnUse" x1="-6.189000129699707" y1="-17.94300079345703" x2="23.149999618530273" y2="93.05500030517578"><stop offset="0%" stop-color="rgb(206,206,209)"></stop><stop offset="50%" stop-color="rgb(222,222,225)"></stop><stop offset="100%" stop-color="rgb(237,238,241)"></stop></linearGradient><linearGradient id="__lottie_element_14706" spreadMethod="pad" gradientUnits="userSpaceOnUse" x1="86.45600128173828" y1="2.068000078201294" x2="-81.26699829101562" y2="-33.09299850463867"><stop offset="0%" stop-color="rgb(224,221,201)"></stop><stop offset="50%" stop-color="rgb(237,235,222)"></stop><stop offset="100%" stop-color="rgb(249,249,243)"></stop></linearGradient><linearGradient id="__lottie_element_14735" spreadMethod="pad" gradientUnits="userSpaceOnUse" x1="86.45600128173828" y1="2.068000078201294" x2="-81.26699829101562" y2="-33.09299850463867"><stop offset="0%" stop-color="rgb(201,210,224)"></stop><stop offset="50%" stop-color="rgb(222,228,236)"></stop><stop offset="100%" stop-color="rgb(243,246,249)"></stop></linearGradient><linearGradient id="__lottie_element_14756" spreadMethod="pad" gradientUnits="userSpaceOnUse" x1="86.45600128173828" y1="2.068000078201294" x2="-81.26699829101562" y2="-33.09299850463867"><stop offset="0%" stop-color="rgb(217,197,197)"></stop><stop offset="35%" stop-color="rgb(233,220,220)"></stop><stop offset="100%" stop-color="rgb(249,243,243)"></stop></linearGradient><clipPath id="__lottie_element_14784"><path d="M0,0 L512,0 L512,512 L0,512z"></path></clipPath></defs><g clip-path="url(#__lottie_element_14690)"><g style="display: block;" transform="matrix(1,0,0,1,238.44700622558594,312.77301025390625)" opacity="1"><g opacity="1" transform="matrix(1,0,0,1,0,0)"><path fill="rgb(180,184,189)" fill-opacity="1" d=" M144.85899353027344,112.60299682617188 C150.91000366210938,111.2249984741211 156.02499389648438,105.20700073242188 156.2830047607422,99.1520004272461 C156.2830047607422,99.1520004272461 166.6999969482422,-176.70700073242188 166.6999969482422,-176.70700073242188 C166.97999572753906,-183.25799560546875 162.08999633789062,-187.40699768066406 155.77999877929688,-185.96099853515625 C155.77999877929688,-185.96099853515625 -9.062999725341797,-148.17799377441406 -9.062999725341797,-148.17799377441406 C-13.875,-147.0749969482422 -18.365999221801758,-150.86500549316406 -18.292999267578125,-155.9770050048828 C-18.292999267578125,-155.9770050048828 -18.097000122070312,-169.8070068359375 -18.097000122070312,-169.8070068359375 C-18.003999710083008,-176.38099670410156 -23.06100082397461,-180.54299926757812 -29.393999099731445,-179.08999633789062 C-29.393999099731445,-179.08999633789062 -155.36700439453125,-149.83999633789062 -155.36700439453125,-149.83999633789062 C-161.69000244140625,-148.38999938964844 -166.7689971923828,-141.9080047607422 -166.71099853515625,-135.375 C-166.71099853515625,-135.375 -164.41099548339844,125.63899993896484 -164.41099548339844,125.63899993896484 C-164.3679962158203,130.5240020751953 -165.31399536132812,156.3769989013672 -158.24899291992188,172.8560028076172 C-151.1199951171875,189.48399353027344 -144.67599487304688,186.46200561523438 -139.62399291992188,185.17300415039062 C-139.62399291992188,185.17300415039062 144.85899353027344,112.60299682617188 144.85899353027344,112.60299682617188z"></path></g></g><g style="display: block;" transform="matrix(1,0,0,1,228.06900024414062,448.58001708984375)" opacity="0.25"><g opacity="1" transform="matrix(1,0,0,1,0,0)"><path stroke-linecap="round" stroke-linejoin="round" fill-opacity="0" stroke="rgb(237,238,241)" stroke-opacity="1" stroke-width="10" d=" M145.48500061035156,-37.034000396728516 C145.48500061035156,-37.034000396728516 -145.48500061035156,37.034000396728516 -145.48500061035156,37.034000396728516"></path></g></g><g style="display: block;" transform="matrix(1,0,0,1,79.69700622558594,322.4339904785156)" opacity="0.4"><g opacity="1" transform="matrix(1,0,0,1,0,0)"><path stroke-linecap="round" stroke-linejoin="round" fill-opacity="0" stroke="rgb(237,238,241)" stroke-opacity="1" stroke-width="6" d=" M1.9609999656677246,145.08799743652344 C0.6830000281333923,135.64199829101562 0.41600000858306885,124.56900024414062 0.3400000035762787,115.92500305175781 C0.3400000035762787,115.92500305175781 -1.9609999656677246,-145.08799743652344 -1.9609999656677246,-145.08799743652344"></path></g></g><g style="display: block;" transform="matrix(1,0,0,1,313.14599609375,151.55299377441406)" opacity="1"><g opacity="1" transform="matrix(1,0,0,1,0,0)"><path stroke-linecap="round" stroke-linejoin="round" fill-opacity="0" stroke="rgb(237,238,241)" stroke-opacity="1" stroke-width="6" d=" M-82.4219970703125,18.892000198364258 C-82.4219970703125,18.892000198364258 82.4219970703125,-18.892000198364258 82.4219970703125,-18.892000198364258"></path></g></g><g style="display: block;" transform="matrix(1,0,0,0.9700000286102295,-3,11.69476318359375)" opacity="0.9"><g opacity="0" transform="matrix(1,0,0,1,245.01600646972656,323.1600036621094)"><path fill="rgb(101,117,130)" fill-opacity="1" d=" M151.2530059814453,102.24099731445312 C151.2530059814453,102.24099731445312 161.79600524902344,-167.24000549316406 161.79600524902344,-167.24000549316406 C162.10499572753906,-174.48199462890625 156.7010040283203,-179.06700134277344 149.7259979248047,-177.46800231933594 C149.7259979248047,-177.46800231933594 -149.76699829101562,-108.28700256347656 -149.76699829101562,-108.28700256347656 C-151.50100708007812,-107.88899993896484 -153.1490020751953,-107.14900207519531 -154.64700317382812,-106.1500015258789 C-159.26699829101562,-103.06900024414062 -161.85699462890625,-97.71700286865234 -161.80799865722656,-92.16400146484375 C-161.80799865722656,-92.16400146484375 -159.90899658203125,123.3489990234375 -159.90899658203125,123.3489990234375 C-159.85899353027344,128.98500061035156 -161.07200622558594,161.39300537109375 -150.82699584960938,177.69200134277344 C-149.5500030517578,177.86300659179688 -148.21600341796875,177.80999755859375 -146.87100219726562,177.46800231933594 C-146.87100219726562,177.46800231933594 151.2530059814453,102.24099731445312 151.2530059814453,102.24099731445312z"></path></g><g opacity="0.1" transform="matrix(1,0,0,1,245.61000061035156,324.6839904785156)"><path fill="rgb(101,117,130)" fill-opacity="1" d=" M149.31900024414062,100.93399810791016 C149.31900024414062,100.93399810791016 159.7270050048828,-165.1020050048828 159.7270050048828,-165.1020050048828 C160.03199768066406,-172.25100708007812 154.69700622558594,-176.77699279785156 147.81100463867188,-175.19900512695312 C147.81100463867188,-175.19900512695312 -147.8520050048828,-106.9020004272461 -147.8520050048828,-106.9020004272461 C-149.56399536132812,-106.50900268554688 -151.1909942626953,-105.77799987792969 -152.6699981689453,-104.79199981689453 C-157.2310028076172,-101.75 -159.78700256347656,-96.46800231933594 -159.73899841308594,-90.98600006103516 C-159.73899841308594,-90.98600006103516 -157.86399841308594,121.77200317382812 -157.86399841308594,121.77200317382812 C-157.81500244140625,127.33599853515625 -159.01199340820312,159.32899475097656 -148.8979949951172,175.4199981689453 C-147.63699340820312,175.58799743652344 -146.32000732421875,175.53599548339844 -144.9929962158203,175.19900512695312 C-144.9929962158203,175.19900512695312 149.31900024414062,100.93399810791016 149.31900024414062,100.93399810791016z"></path></g><g opacity="0.2" transform="matrix(1,0,0,1,246.20399475097656,326.2070007324219)"><path fill="rgb(101,117,130)" fill-opacity="1" d=" M147.38499450683594,99.6259994506836 C147.38499450683594,99.6259994506836 157.6580047607422,-162.96299743652344 157.6580047607422,-162.96299743652344 C157.95899963378906,-170.0189971923828 152.69400024414062,-174.48800659179688 145.89700317382812,-172.92999267578125 C145.89700317382812,-172.92999267578125 -145.93699645996094,-105.51799774169922 -145.93699645996094,-105.51799774169922 C-147.6269989013672,-105.12999725341797 -149.23300170898438,-104.40799713134766 -150.6929931640625,-103.43499755859375 C-155.19500732421875,-100.43299865722656 -157.71800231933594,-95.21800231933594 -157.6699981689453,-89.80699920654297 C-157.6699981689453,-89.80699920654297 -155.81900024414062,120.19499969482422 -155.81900024414062,120.19499969482422 C-155.77099609375,125.68699645996094 -156.9530029296875,157.26600646972656 -146.97000122070312,173.1479949951172 C-145.72500610351562,173.31399536132812 -144.4250030517578,173.26300048828125 -143.11500549316406,172.92999267578125 C-143.11500549316406,172.92999267578125 147.38499450683594,99.6259994506836 147.38499450683594,99.6259994506836z"></path></g><g opacity="0.3" transform="matrix(1,0,0,1,246.7989959716797,327.7300109863281)"><path fill="rgb(101,117,130)" fill-opacity="1" d=" M145.4510040283203,98.31900024414062 C145.4510040283203,98.31900024414062 155.58900451660156,-160.8249969482422 155.58900451660156,-160.8249969482422 C155.88600158691406,-167.78900146484375 150.69000244140625,-172.197998046875 143.98199462890625,-170.66099548339844 C143.98199462890625,-170.66099548339844 -144.02200317382812,-104.13300323486328 -144.02200317382812,-104.13300323486328 C-145.69000244140625,-103.75 -147.27499389648438,-103.03900146484375 -148.71499633789062,-102.0780029296875 C-153.1580047607422,-99.11499786376953 -155.6479949951172,-93.96900177001953 -155.6009979248047,-88.62899780273438 C-155.6009979248047,-88.62899780273438 -153.7740020751953,118.61799621582031 -153.7740020751953,118.61799621582031 C-153.7259979248047,124.03800201416016 -154.89300537109375,155.20199584960938 -145.04100036621094,170.87600708007812 C-143.81300354003906,171.0399932861328 -142.52999877929688,170.99000549316406 -141.23699951171875,170.66099548339844 C-141.23699951171875,170.66099548339844 145.4510040283203,98.31900024414062 145.4510040283203,98.31900024414062z"></path></g><g opacity="0.4" transform="matrix(1,0,0,1,247.39300537109375,329.25299072265625)"><path fill="rgb(101,117,130)" fill-opacity="1" d=" M143.51699829101562,97.01200103759766 C143.51699829101562,97.01200103759766 153.52099609375,-158.68600463867188 153.52099609375,-158.68600463867188 C153.81399536132812,-165.5570068359375 148.68600463867188,-169.9080047607422 142.0679931640625,-168.39100646972656 C142.0679931640625,-168.39100646972656 -142.10699462890625,-102.74800109863281 -142.10699462890625,-102.74800109863281 C-143.7530059814453,-102.37000274658203 -145.31700134277344,-101.66799926757812 -146.73800659179688,-100.72000122070312 C-151.1219940185547,-97.7959976196289 -153.5780029296875,-92.72000122070312 -153.53199768066406,-87.45099639892578 C-153.53199768066406,-87.45099639892578 -151.72999572753906,117.04100036621094 -151.72999572753906,117.04100036621094 C-151.68299865722656,122.38899993896484 -152.83399963378906,153.13900756835938 -143.11300659179688,168.60400390625 C-141.9010009765625,168.76600646972656 -140.63499450683594,168.71600341796875 -139.35899353027344,168.39199829101562 C-139.35899353027344,168.39199829101562 143.51699829101562,97.01200103759766 143.51699829101562,97.01200103759766z"></path></g><g opacity="0.5" transform="matrix(1,0,0,1,247.98699951171875,330.7770080566406)"><path fill="rgb(101,117,130)" fill-opacity="1" d=" M141.58299255371094,95.7040023803711 C141.58299255371094,95.7040023803711 151.45199584960938,-156.54800415039062 151.45199584960938,-156.54800415039062 C151.74099731445312,-163.32699584960938 146.6820068359375,-167.61900329589844 140.1529998779297,-166.1219940185547 C140.1529998779297,-166.1219940185547 -140.19200134277344,-101.36399841308594 -140.19200134277344,-101.36399841308594 C-141.81500244140625,-100.99199676513672 -143.35800170898438,-100.2979965209961 -144.75999450683594,-99.36299896240234 C-149.0850067138672,-96.47899627685547 -151.50900268554688,-91.47000122070312 -151.46299743652344,-86.27200317382812 C-151.46299743652344,-86.27200317382812 -149.68499755859375,115.46299743652344 -149.68499755859375,115.46299743652344 C-149.63900756835938,120.73799896240234 -150.7740020751953,151.07400512695312 -141.1840057373047,166.33099365234375 C-139.98800659179688,166.49099731445312 -138.74000549316406,166.44200134277344 -137.4810028076172,166.1219940185547 C-137.4810028076172,166.1219940185547 141.58299255371094,95.7040023803711 141.58299255371094,95.7040023803711z"></path></g><g opacity="0.6" transform="matrix(1,0,0,1,248.58099365234375,332.29998779296875)"><path fill="rgb(101,117,130)" fill-opacity="1" d=" M139.6490020751953,94.39700317382812 C139.6490020751953,94.39700317382812 149.38299560546875,-154.41000366210938 149.38299560546875,-154.41000366210938 C149.66799926757812,-161.0959930419922 144.6790008544922,-165.32899475097656 138.23899841308594,-163.85299682617188 C138.23899841308594,-163.85299682617188 -138.27699279785156,-99.97899627685547 -138.27699279785156,-99.97899627685547 C-139.8780059814453,-99.61199951171875 -141.39999389648438,-98.9280014038086 -142.7830047607422,-98.00599670410156 C-147.0489959716797,-95.16100311279297 -149.43899536132812,-90.22100067138672 -149.3939971923828,-85.09400177001953 C-149.3939971923828,-85.09400177001953 -147.63999938964844,113.88600158691406 -147.63999938964844,113.88600158691406 C-147.593994140625,119.08899688720703 -148.71400451660156,149.00999450683594 -139.2550048828125,164.0590057373047 C-138.0760040283203,164.2169952392578 -136.843994140625,164.16900634765625 -135.60299682617188,163.85299682617188 C-135.60299682617188,163.85299682617188 139.6490020751953,94.39700317382812 139.6490020751953,94.39700317382812z"></path></g><g opacity="0.7000000000000001" transform="matrix(1,0,0,1,249.1750030517578,333.822998046875)"><path fill="rgb(101,117,130)" fill-opacity="1" d=" M137.71499633789062,93.08999633789062 C137.71499633789062,93.08999633789062 147.31399536132812,-152.27099609375 147.31399536132812,-152.27099609375 C147.5959930419922,-158.86500549316406 142.6750030517578,-163.0399932861328 136.32400512695312,-161.58399963378906 C136.32400512695312,-161.58399963378906 -136.36199951171875,-98.59500122070312 -136.36199951171875,-98.59500122070312 C-137.9409942626953,-98.23300170898438 -139.4409942626953,-97.55799865722656 -140.80499267578125,-96.64900207519531 C-145.01199340820312,-93.84400177001953 -147.3699951171875,-88.97100067138672 -147.3249969482422,-83.91500091552734 C-147.3249969482422,-83.91500091552734 -145.5959930419922,112.30899810791016 -145.5959930419922,112.30899810791016 C-145.55099487304688,117.44000244140625 -146.65499877929688,146.94700622558594 -137.32699584960938,161.78700256347656 C-136.16400146484375,161.94200134277344 -134.94900512695312,161.89500427246094 -133.72500610351562,161.58399963378906 C-133.72500610351562,161.58399963378906 137.71499633789062,93.08999633789062 137.71499633789062,93.08999633789062z"></path></g><g opacity="0.8" transform="matrix(1,0,0,1,249.77000427246094,335.34698486328125)"><path fill="rgb(101,117,130)" fill-opacity="1" d=" M135.781005859375,91.78199768066406 C135.781005859375,91.78199768066406 145.2449951171875,-150.13299560546875 145.2449951171875,-150.13299560546875 C145.5229949951172,-156.63400268554688 140.6719970703125,-160.75 134.41000366210938,-159.31500244140625 C134.41000366210938,-159.31500244140625 -134.44700622558594,-97.20999908447266 -134.44700622558594,-97.20999908447266 C-136.00399780273438,-96.85299682617188 -137.48300170898438,-96.18800354003906 -138.8280029296875,-95.29100036621094 C-142.9759979248047,-92.5250015258789 -145.3000030517578,-87.72200012207031 -145.25599670410156,-82.73699951171875 C-145.25599670410156,-82.73699951171875 -143.55099487304688,110.73200225830078 -143.55099487304688,110.73200225830078 C-143.50599670410156,115.79100036621094 -144.59500122070312,144.88299560546875 -135.3979949951172,159.51499938964844 C-134.25100708007812,159.66799926757812 -133.0540008544922,159.6219940185547 -131.8470001220703,159.31500244140625 C-131.8470001220703,159.31500244140625 135.781005859375,91.78199768066406 135.781005859375,91.78199768066406z"></path></g></g><g style="display: none;"><g><path></path></g><g><path></path></g><g><path></path></g><g><path></path></g><g><path></path></g><g><path></path></g><g><path></path></g><g><path></path></g><g><path></path></g></g><g style="display: block;" transform="matrix(1,0,0,1,98.0989990234375,490.59100341796875)" opacity="0.33"><g opacity="1" transform="matrix(1,0,0,1,0,0)"><path fill="rgb(101,117,130)" fill-opacity="1" d=" M-14.26099967956543,0.4189999997615814 C-3.9240000247955322,15.229000091552734 9.689000129699707,0.8220000267028809 14.26099967956543,-6.841000080108643 C14.26099967956543,-6.841000080108643 -14.26099967956543,0.4189999997615814 -14.26099967956543,0.4189999997615814z"></path></g></g><g style="display: block;" transform="matrix(1,0,0,1,144.072998046875,158.43699645996094)" opacity="1"><g opacity="1" transform="matrix(1,0,0,1,0,0)"><path stroke-linecap="round" stroke-linejoin="round" fill-opacity="0" stroke="rgb(237,238,241)" stroke-opacity="1" stroke-width="6" d=" M-66.33699798583984,18.909000396728516 C-66.37000274658203,15.170999526977539 -63.24700164794922,11.168000221252441 -59.652000427246094,10.343999862670898 C-59.652000427246094,10.343999862670898 66.33799743652344,-18.909000396728516 66.33799743652344,-18.909000396728516"></path></g></g><g style="display: block;" transform="matrix(1,0,0,1,238.44700622558594,312.77301025390625)" opacity="1"><g opacity="1" transform="matrix(1,0,0,1,0,0)"><path stroke-linecap="round" stroke-linejoin="round" fill-opacity="0" stroke="rgb(101,117,130)" stroke-opacity="1" stroke-width="6" d=" M144.85899353027344,112.60299682617188 C150.91000366210938,111.2249984741211 156.02499389648438,105.20700073242188 156.2830047607422,99.1520004272461 C156.2830047607422,99.1520004272461 166.6999969482422,-176.70700073242188 166.6999969482422,-176.70700073242188 C166.97999572753906,-183.25799560546875 162.08999633789062,-187.40699768066406 155.77999877929688,-185.96099853515625 C155.77999877929688,-185.96099853515625 -9.062999725341797,-148.17799377441406 -9.062999725341797,-148.17799377441406 C-13.875,-147.0749969482422 -18.365999221801758,-150.86500549316406 -18.292999267578125,-155.9770050048828 C-18.292999267578125,-155.9770050048828 -18.097000122070312,-169.8070068359375 -18.097000122070312,-169.8070068359375 C-18.003999710083008,-176.38099670410156 -23.06100082397461,-180.54299926757812 -29.393999099731445,-179.08999633789062 C-29.393999099731445,-179.08999633789062 -155.36700439453125,-149.83999633789062 -155.36700439453125,-149.83999633789062 C-161.69000244140625,-148.38999938964844 -166.7689971923828,-141.9080047607422 -166.71099853515625,-135.375 C-166.71099853515625,-135.375 -164.41099548339844,125.63899993896484 -164.41099548339844,125.63899993896484 C-164.3679962158203,130.5240020751953 -165.31399536132812,156.3769989013672 -158.24899291992188,172.8560028076172 C-151.1199951171875,189.48399353027344 -144.67599487304688,186.46200561523438 -139.62399291992188,185.17300415039062 C-139.62399291992188,185.17300415039062 144.85899353027344,112.60299682617188 144.85899353027344,112.60299682617188z"></path></g></g><g clip-path="url(#__lottie_element_14784)" style="display: block;" transform="matrix(1,0,0,1,5,6.5)" opacity="0.4"><g style="display: block;" transform="matrix(0,0,0,0,218.5709991455078,132.45899963378906)" opacity="1"><g opacity="1" transform="matrix(1,0,0,1,0,0)"><path fill="rgb(103,118,131)" fill-opacity="1" d=" M102.41000366210938,175.36700439453125 C102.41000366210938,175.36700439453125 -58.06700134277344,139.08299255371094 -58.06700134277344,139.08299255371094 C-58.06700134277344,139.08299255371094 -58.06700134277344,-165.37399291992188 -58.06700134277344,-165.37399291992188 C-58.06700134277344,-165.37399291992188 102.41000366210938,-129.08999633789062 102.41000366210938,-129.08999633789062 C102.41000366210938,-129.08999633789062 102.41000366210938,175.36700439453125 102.41000366210938,175.36700439453125z"></path><path stroke-linecap="round" stroke-linejoin="round" fill-opacity="0" stroke="rgb(103,118,131)" stroke-opacity="1" stroke-width="20" d=" M102.41000366210938,175.36700439453125 C102.41000366210938,175.36700439453125 -58.06700134277344,139.08299255371094 -58.06700134277344,139.08299255371094 C-58.06700134277344,139.08299255371094 -58.06700134277344,-165.37399291992188 -58.06700134277344,-165.37399291992188 C-58.06700134277344,-165.37399291992188 102.41000366210938,-129.08999633789062 102.41000366210938,-129.08999633789062 C102.41000366210938,-129.08999633789062 102.41000366210938,175.36700439453125 102.41000366210938,175.36700439453125z"></path></g></g><g style="display: block;" transform="matrix(0,0,0,0,234.88999938964844,146.44200134277344)" opacity="1"><g opacity="1" transform="matrix(1,0,0,1,0,0)"><path fill="rgb(103,118,131)" fill-opacity="1" d=" M102.41000366210938,175.36700439453125 C102.41000366210938,175.36700439453125 -58.06700134277344,139.08299255371094 -58.06700134277344,139.08299255371094 C-58.06700134277344,139.08299255371094 -58.06700134277344,-165.37399291992188 -58.06700134277344,-165.37399291992188 C-58.06700134277344,-165.37399291992188 102.41000366210938,-129.08999633789062 102.41000366210938,-129.08999633789062 C102.41000366210938,-129.08999633789062 102.41000366210938,175.36700439453125 102.41000366210938,175.36700439453125z"></path><path stroke-linecap="round" stroke-linejoin="round" fill-opacity="0" stroke="rgb(103,118,131)" stroke-opacity="1" stroke-width="20" d=" M102.41000366210938,175.36700439453125 C102.41000366210938,175.36700439453125 -58.06700134277344,139.08299255371094 -58.06700134277344,139.08299255371094 C-58.06700134277344,139.08299255371094 -58.06700134277344,-165.37399291992188 -58.06700134277344,-165.37399291992188 C-58.06700134277344,-165.37399291992188 102.41000366210938,-129.08999633789062 102.41000366210938,-129.08999633789062 C102.41000366210938,-129.08999633789062 102.41000366210938,175.36700439453125 102.41000366210938,175.36700439453125z"></path></g></g><g style="display: block;" transform="matrix(0,0,0,0,241.4849853515625,159.41799926757812)" opacity="1"><g opacity="1" transform="matrix(1,0,0,1,0,0)"><path fill="rgb(103,118,131)" fill-opacity="1" d=" M102.41000366210938,175.36700439453125 C102.41000366210938,175.36700439453125 -58.06700134277344,139.08299255371094 -58.06700134277344,139.08299255371094 C-58.06700134277344,139.08299255371094 -58.06700134277344,-165.37399291992188 -58.06700134277344,-165.37399291992188 C-58.06700134277344,-165.37399291992188 102.41000366210938,-129.08999633789062 102.41000366210938,-129.08999633789062 C102.41000366210938,-129.08999633789062 102.41000366210938,175.36700439453125 102.41000366210938,175.36700439453125z"></path><path stroke-linecap="round" stroke-linejoin="round" fill-opacity="0" stroke="rgb(103,118,131)" stroke-opacity="1" stroke-width="20" d=" M102.41000366210938,175.36700439453125 C102.41000366210938,175.36700439453125 -58.06700134277344,139.08299255371094 -58.06700134277344,139.08299255371094 C-58.06700134277344,139.08299255371094 -58.06700134277344,-165.37399291992188 -58.06700134277344,-165.37399291992188 C-58.06700134277344,-165.37399291992188 102.41000366210938,-129.08999633789062 102.41000366210938,-129.08999633789062 C102.41000366210938,-129.08999633789062 102.41000366210938,175.36700439453125 102.41000366210938,175.36700439453125z"></path></g></g></g><g style="display: block;" transform="matrix(0,0,0,0,228.57000732421875,108.42900085449219)" opacity="1"><g opacity="1" transform="matrix(1,0,0,1,0,0)"><path fill="url(#__lottie_element_14756)" fill-opacity="1" d=" M102.41000366210938,175.36700439453125 C102.41000366210938,175.36700439453125 -102.41000366210938,129.08999633789062 -102.41000366210938,129.08999633789062 C-102.41000366210938,129.08999633789062 -102.41000366210938,-175.36700439453125 -102.41000366210938,-175.36700439453125 C-102.41000366210938,-175.36700439453125 102.41000366210938,-129.08999633789062 102.41000366210938,-129.08999633789062 C102.41000366210938,-129.08999633789062 102.41000366210938,175.36700439453125 102.41000366210938,175.36700439453125z"></path><path stroke-linecap="round" stroke-linejoin="round" fill-opacity="0" stroke="rgb(219,166,166)" stroke-opacity="1" stroke-width="20" d=" M102.41000366210938,175.36700439453125 C102.41000366210938,175.36700439453125 -102.41000366210938,129.08999633789062 -102.41000366210938,129.08999633789062 C-102.41000366210938,129.08999633789062 -102.41000366210938,-175.36700439453125 -102.41000366210938,-175.36700439453125 C-102.41000366210938,-175.36700439453125 102.41000366210938,-129.08999633789062 102.41000366210938,-129.08999633789062 C102.41000366210938,-129.08999633789062 102.41000366210938,175.36700439453125 102.41000366210938,175.36700439453125z"></path></g></g><g style="display: block;" transform="matrix(0,0,0,0,228.57000732421875,108.42900085449219)" opacity="1"><g opacity="1" transform="matrix(1,0,0,1,0,0)"><path stroke-linecap="round" stroke-linejoin="round" fill-opacity="0" stroke="rgb(245,235,235)" stroke-opacity="1" stroke-width="20" d=" M97.78099822998047,163.49899291992188 C97.78099822998047,163.49899291992188 -90.55000305175781,120.94100189208984 -90.55000305175781,120.94100189208984"></path></g></g><g style="display: block;" transform="matrix(0,0,0,0,228.57000732421875,108.42900085449219)" opacity="1"><g opacity="1" transform="matrix(1,0,0,1,0,0)"><path stroke-linecap="round" stroke-linejoin="round" fill-opacity="0" stroke="rgb(255,255,255)" stroke-opacity="1" stroke-width="20" d=" M-90.99199676513672,120.84100341796875 C-90.99199676513672,120.84100341796875 -91.7979965209961,-159.46099853515625 -91.7979965209961,-159.46099853515625"></path></g></g><g style="display: none;"><g><path stroke-linecap="butt" stroke-linejoin="miter" fill-opacity="0" stroke-miterlimit="10"></path></g></g><g style="display: none;"><g><path stroke-linecap="butt" stroke-linejoin="miter" fill-opacity="0" stroke-miterlimit="10"></path></g></g><g style="display: none;"><g><path stroke-linecap="butt" stroke-linejoin="miter" fill-opacity="0" stroke-miterlimit="10"></path></g></g><g style="display: none;"><g><path stroke-linecap="butt" stroke-linejoin="miter" fill-opacity="0" stroke-miterlimit="10"></path></g></g><g style="display: none;"><g><path stroke-linecap="butt" stroke-linejoin="miter" fill-opacity="0" stroke-miterlimit="10"></path></g></g><g style="display: none;"><g><path stroke-linecap="butt" stroke-linejoin="miter" fill-opacity="0" stroke-miterlimit="10"></path></g></g><g style="display: none;"><g><path stroke-linecap="butt" stroke-linejoin="miter" fill-opacity="0" stroke-miterlimit="10"></path></g></g><g style="display: block;" transform="matrix(0,0,0,0,239.88999938964844,118.91200256347656)" opacity="0.4"><g opacity="1" transform="matrix(1,0,0,1,0,0)"><path fill="rgb(189,182,156)" fill-opacity="1" d=" M95.05899810791016,162.51499938964844 C95.05899810791016,162.51499938964844 -96.45700073242188,119.23600006103516 -96.45700073242188,119.23600006103516 C-96.45700073242188,119.23600006103516 -96.29499816894531,-173.53500366210938 -96.29499816894531,-173.53500366210938 C-96.29499816894531,-173.53500366210938 95.22100067138672,-130.25599670410156 95.22100067138672,-130.25599670410156 C95.22100067138672,-130.25599670410156 95.05899810791016,162.51499938964844 95.05899810791016,162.51499938964844z"></path><path stroke-linecap="round" stroke-linejoin="round" fill-opacity="0" stroke="rgb(189,182,156)" stroke-opacity="1" stroke-width="20" d=" M95.05899810791016,162.51499938964844 C95.05899810791016,162.51499938964844 -96.45700073242188,119.23600006103516 -96.45700073242188,119.23600006103516 C-96.45700073242188,119.23600006103516 -96.29499816894531,-173.53500366210938 -96.29499816894531,-173.53500366210938 C-96.29499816894531,-173.53500366210938 95.22100067138672,-130.25599670410156 95.22100067138672,-130.25599670410156 C95.22100067138672,-130.25599670410156 95.05899810791016,162.51499938964844 95.05899810791016,162.51499938964844z"></path></g></g><g style="display: block;" transform="matrix(0,0,0,0,244.88999938964844,122.41200256347656)" opacity="1"><g opacity="1" transform="matrix(1,0,0,1,0,0)"><path fill="url(#__lottie_element_14735)" fill-opacity="1" d=" M102.41000366210938,175.36700439453125 C102.41000366210938,175.36700439453125 -102.41000366210938,129.08999633789062 -102.41000366210938,129.08999633789062 C-102.41000366210938,129.08999633789062 -102.41000366210938,-175.36700439453125 -102.41000366210938,-175.36700439453125 C-102.41000366210938,-175.36700439453125 102.41000366210938,-129.08999633789062 102.41000366210938,-129.08999633789062 C102.41000366210938,-129.08999633789062 102.41000366210938,175.36700439453125 102.41000366210938,175.36700439453125z"></path><path stroke-linecap="round" stroke-linejoin="round" fill-opacity="0" stroke="rgb(153,175,204)" stroke-opacity="1" stroke-width="20" d=" M102.41000366210938,175.36700439453125 C102.41000366210938,175.36700439453125 -102.41000366210938,129.08999633789062 -102.41000366210938,129.08999633789062 C-102.41000366210938,129.08999633789062 -102.41000366210938,-175.36700439453125 -102.41000366210938,-175.36700439453125 C-102.41000366210938,-175.36700439453125 102.41000366210938,-129.08999633789062 102.41000366210938,-129.08999633789062 C102.41000366210938,-129.08999633789062 102.41000366210938,175.36700439453125 102.41000366210938,175.36700439453125z"></path></g></g><g style="display: block;" transform="matrix(0,0,0,0,244.88999938964844,122.41200256347656)" opacity="1"><g opacity="1" transform="matrix(1,0,0,1,0,0)"><path stroke-linecap="round" stroke-linejoin="round" fill-opacity="0" stroke="rgb(235,238,245)" stroke-opacity="1" stroke-width="20" d=" M97.78099822998047,163.49899291992188 C97.78099822998047,163.49899291992188 -90.55000305175781,120.94100189208984 -90.55000305175781,120.94100189208984"></path></g></g><g style="display: block;" transform="matrix(0,0,0,0,244.88999938964844,122.41200256347656)" opacity="1"><g opacity="1" transform="matrix(1,0,0,1,0,0)"><path stroke-linecap="round" stroke-linejoin="round" fill-opacity="0" stroke="rgb(255,255,255)" stroke-opacity="1" stroke-width="20" d=" M-90.99199676513672,120.84100341796875 C-90.99199676513672,120.84100341796875 -91.7979965209961,-159.46099853515625 -91.7979965209961,-159.46099853515625"></path></g></g><g style="display: none;"><g><path stroke-linecap="butt" stroke-linejoin="miter" fill-opacity="0" stroke-miterlimit="10"></path></g></g><g style="display: none;"><g><path stroke-linecap="butt" stroke-linejoin="miter" fill-opacity="0" stroke-miterlimit="10"></path></g><g><g><path></path></g><g><path></path></g></g></g><g style="display: block;" transform="matrix(0,0,0,0,244.88999938964844,122.41200256347656)" opacity="1"><g opacity="1" transform="matrix(1,0,0,1,88.45600128173828,-102.63400268554688)"><path fill="rgb(237,240,248)" fill-opacity="1" d=" M2.364000082015991,-10.86400032043457 C8.925000190734863,-11.935999870300293 14.27400016784668,-5.997000217437744 14.310999870300293,2.4030001163482666 C14.347999572753906,10.803000450134277 9.059000015258789,18.48200035095215 2.497999906539917,19.554000854492188 C-4.063000202178955,20.625999450683594 -9.41100025177002,14.687000274658203 -9.447999954223633,6.2870001792907715 C-9.484999656677246,-2.11299991607666 -4.197000026702881,-9.791999816894531 2.364000082015991,-10.86400032043457z"></path></g></g><g style="display: block;" transform="matrix(0,0,0,0,251.48500061035156,135.38800048828125)" opacity="0.4"><g opacity="1" transform="matrix(1,0,0,1,0,0)"><path fill="rgb(189,182,156)" fill-opacity="1" d=" M96.47200012207031,168.8489990234375 C96.47200012207031,168.8489990234375 -96.86199951171875,125.16000366210938 -96.86199951171875,125.16000366210938 C-96.86199951171875,125.16000366210938 -96.58100128173828,-172.10400390625 -96.58100128173828,-172.10400390625 C-96.58100128173828,-172.10400390625 96.75299835205078,-128.41600036621094 96.75299835205078,-128.41600036621094 C96.75299835205078,-128.41600036621094 96.47200012207031,168.8489990234375 96.47200012207031,168.8489990234375z"></path><path stroke-linecap="round" stroke-linejoin="round" fill-opacity="0" stroke="rgb(189,182,156)" stroke-opacity="1" stroke-width="20" d=" M96.47200012207031,168.8489990234375 C96.47200012207031,168.8489990234375 -96.86199951171875,125.16000366210938 -96.86199951171875,125.16000366210938 C-96.86199951171875,125.16000366210938 -96.58100128173828,-172.10400390625 -96.58100128173828,-172.10400390625 C-96.58100128173828,-172.10400390625 96.75299835205078,-128.41600036621094 96.75299835205078,-128.41600036621094 C96.75299835205078,-128.41600036621094 96.47200012207031,168.8489990234375 96.47200012207031,168.8489990234375z"></path></g></g><g style="display: block;" transform="matrix(0,0,0,0,251.48500061035156,135.38800048828125)" opacity="1"><g opacity="1" transform="matrix(1,0,0,1,0,0)"><path fill="url(#__lottie_element_14706)" fill-opacity="1" d=" M102.41000366210938,175.36700439453125 C102.41000366210938,175.36700439453125 -102.41000366210938,129.08999633789062 -102.41000366210938,129.08999633789062 C-102.41000366210938,129.08999633789062 -102.41000366210938,-175.36700439453125 -102.41000366210938,-175.36700439453125 C-102.41000366210938,-175.36700439453125 102.41000366210938,-129.08999633789062 102.41000366210938,-129.08999633789062 C102.41000366210938,-129.08999633789062 102.41000366210938,175.36700439453125 102.41000366210938,175.36700439453125z"></path><path stroke-linecap="round" stroke-linejoin="round" fill-opacity="0" stroke="rgb(189,182,156)" stroke-opacity="1" stroke-width="20" d=" M102.41000366210938,175.36700439453125 C102.41000366210938,175.36700439453125 -102.41000366210938,129.08999633789062 -102.41000366210938,129.08999633789062 C-102.41000366210938,129.08999633789062 -102.41000366210938,-175.36700439453125 -102.41000366210938,-175.36700439453125 C-102.41000366210938,-175.36700439453125 102.41000366210938,-129.08999633789062 102.41000366210938,-129.08999633789062 C102.41000366210938,-129.08999633789062 102.41000366210938,175.36700439453125 102.41000366210938,175.36700439453125z"></path></g></g><g style="display: block;" transform="matrix(0,0,0,0,251.48500061035156,135.38800048828125)" opacity="1"><g opacity="1" transform="matrix(1,0,0,1,0,0)"><path stroke-linecap="round" stroke-linejoin="round" fill-opacity="0" stroke="rgb(245,244,235)" stroke-opacity="1" stroke-width="20" d=" M97.78099822998047,163.49899291992188 C97.78099822998047,163.49899291992188 -90.55000305175781,120.94100189208984 -90.55000305175781,120.94100189208984"></path></g></g><g style="display: block;" transform="matrix(0,0,0,0,251.48500061035156,135.38800048828125)" opacity="1"><g opacity="1" transform="matrix(1,0,0,1,0,0)"><path stroke-linecap="round" stroke-linejoin="round" fill-opacity="0" stroke="rgb(255,255,255)" stroke-opacity="1" stroke-width="20" d=" M-90.99199676513672,120.84100341796875 C-90.99199676513672,120.84100341796875 -91.7979965209961,-159.46099853515625 -91.7979965209961,-159.46099853515625"></path></g></g><g style="display: block;" transform="matrix(0,0,0,0,251.48500061035156,135.38800048828125)" opacity="1"><g opacity="1" transform="matrix(1,0,0,1,0,0)"><path stroke-linecap="butt" stroke-linejoin="miter" fill-opacity="0" stroke-miterlimit="10" stroke="rgb(58,58,58)" stroke-opacity="1" stroke-width="6" d="M0 0"></path></g></g><g style="display: block;" transform="matrix(0,0,0,0,251.48500061035156,135.38800048828125)" opacity="1"><g opacity="1" transform="matrix(1,0,0,1,0,0)"><path stroke-linecap="butt" stroke-linejoin="miter" fill-opacity="0" stroke-miterlimit="10" stroke="rgb(58,58,58)" stroke-opacity="1" stroke-width="6" d="M0 0"></path></g></g><g style="display: block;" transform="matrix(0,0,0,0,251.48500061035156,135.38800048828125)" opacity="1"><g opacity="1" transform="matrix(1,0,0,1,0,0)"><path stroke-linecap="butt" stroke-linejoin="miter" fill-opacity="0" stroke-miterlimit="10" stroke="rgb(58,58,58)" stroke-opacity="1" stroke-width="6" d="M0 0"></path></g></g><g style="display: block;" transform="matrix(0,0,0,0,251.48500061035156,135.38800048828125)" opacity="1"><g opacity="1" transform="matrix(1,0,0,1,0,0)"><path stroke-linecap="butt" stroke-linejoin="miter" fill-opacity="0" stroke-miterlimit="10" stroke="rgb(58,58,58)" stroke-opacity="1" stroke-width="6" d="M0 0"></path></g></g><g style="display: block;" transform="matrix(0,0,0,0,251.48500061035156,135.38800048828125)" opacity="1"><g opacity="1" transform="matrix(1,0,0,1,0,0)"><path stroke-linecap="butt" stroke-linejoin="miter" fill-opacity="0" stroke-miterlimit="10" stroke="rgb(58,58,58)" stroke-opacity="1" stroke-width="6" d="M0 0"></path></g></g><g style="display: block;" transform="matrix(1,0,0,1,-2.9989776611328125,-4)" opacity="1"><g opacity="1" transform="matrix(1,0,0,1,0,0)"><g opacity="1" transform="matrix(1,0,0,1,284.1889953613281,355.9429931640625)"><path fill="url(#__lottie_element_14699)" fill-opacity="1" d=" M152.36700439453125,-168.85699462890625 C152.7740020751953,-176.7729949951172 147.6269989013672,-178.6840057373047 143.21400451660156,-177.58599853515625 C143.21400451660156,-177.58599853515625 -149.5240020751953,-113.15499877929688 -149.5240020751953,-113.15499877929688 C-159.4320068359375,-110.9739990234375 -170.18800354003906,-103.44300079345703 -172.31399536132812,-95.3270034790039 C-176.1230010986328,-80.78299713134766 -175.08799743652344,-16.45800018310547 -174.927001953125,34.47600173950195 C-174.68800354003906,109.80699920654297 -174.18899536132812,143.3070068359375 -185.43099975585938,146.80499267578125 C-185.43099975585938,146.80499267578125 123.36299896240234,68.36799621582031 123.36299896240234,68.36799621582031 C131.08799743652344,66.40499877929688 136.88900756835938,59.82500076293945 137.52200317382812,51.880001068115234 C143.0019989013672,-16.93400001525879 150.18499755859375,-126.43499755859375 152.36700439453125,-168.85699462890625z"></path></g><g opacity="0.2" transform="matrix(1,0,0,1,260.4320068359375,453.3210144042969)"><path fill="rgb(101,117,130)" fill-opacity="1" d=" M-153.79800415039062,36.650001525878906 C-155.10699462890625,43.643001556396484 -157.35299682617188,47.869998931884766 -161.6739959716797,49.426998138427734 C-161.6739959716797,49.426998138427734 147.11900329589844,-29.010000228881836 147.11900329589844,-29.010000228881836 C154.1739959716797,-30.80299949645996 159.48699951171875,-36.4630012512207 160.95399475097656,-43.47200012207031 C160.95399475097656,-43.47200012207031 161.6739959716797,-49.426998138427734 161.6739959716797,-49.426998138427734 C161.6739959716797,-49.426998138427734 -152.90499877929688,30.233999252319336 -152.90499877929688,30.233999252319336 C-152.90499877929688,30.233999252319336 -153.79800415039062,36.650001525878906 -153.79800415039062,36.650001525878906z"></path></g><g opacity="1" transform="matrix(1,0,0,1,287.3089904785156,342.92498779296875)"><path stroke-linecap="round" stroke-linejoin="round" fill-opacity="0" stroke="rgb(229,229,230)" stroke-opacity="1" stroke-width="6" d=" M-172.88299560546875,127.70899963378906 C-172.76499938964844,125.31800079345703 -172.6540069580078,122.81099700927734 -172.53700256347656,120.18699645996094 C-171.75599670410156,102.62000274658203 -173.3090057373047,75.07599639892578 -172.8730010986328,48.382999420166016 C-172.25599670410156,10.60200023651123 -175.5590057373047,-61.92499923706055 -170.04800415039062,-79.66600036621094 C-167.57699584960938,-87.62100219726562 -159.5659942626953,-92.46900177001953 -151.35400390625,-94.2770004272461 C-151.35400390625,-94.2770004272461 141.38299560546875,-158.70899963378906 141.38299560546875,-158.70899963378906"></path></g><g opacity="0.5" transform="matrix(1,0,0,1,262.4490051269531,454.9779968261719)"><path stroke-linecap="round" stroke-linejoin="round" fill-opacity="0" stroke="rgb(237,238,241)" stroke-opacity="1" stroke-width="6" d=" M156.64999389648438,-39.79100036621094 C156.64999389648438,-39.79100036621094 -156.64999389648438,39.79100036621094 -156.64999389648438,39.79100036621094"></path></g></g><g opacity="1" transform="matrix(1,0,0,1,313.8240051269531,247.4320068359375)"><path stroke-linecap="round" stroke-linejoin="round" fill-opacity="0" stroke="rgb(255,255,255)" stroke-opacity="1" stroke-width="6" d=" M-177.86900329589844,1.215999960899353 C-177.86900329589844,1.215999960899353 -31.5,-31 -31.5,-31 C-31.5,-31 114.86900329589844,-63.215999603271484 114.86900329589844,-63.215999603271484"></path></g><g opacity="1" transform="matrix(1,0,0,1,0,0)"><path fill="rgb(170,124,75)" fill-opacity="1" d=" M433,204.5"></path><path stroke-linecap="butt" stroke-linejoin="miter" fill-opacity="0" stroke-miterlimit="4" stroke="rgb(255,255,255)" stroke-opacity="1" stroke-width="6" d=" M433,204.5"></path></g></g><g style="display: block;" transform="matrix(1,0,0,1,-3.689971923828125,-3.50799560546875)" opacity="1"><g opacity="1" transform="matrix(1,0,0,1,0,0)"><path stroke-linecap="round" stroke-linejoin="round" fill-opacity="0" stroke="rgb(101,117,130)" stroke-opacity="1" stroke-width="6" d=" M436.5559997558594,187.08599853515625 C436.9630126953125,179.1699981689453 431.8160095214844,177.25900268554688 427.40301513671875,178.35699462890625 C427.40301513671875,178.35699462890625 134.6649932861328,242.78799438476562 134.6649932861328,242.78799438476562 C124.75700378417969,244.968994140625 114,252.5 111.8740005493164,260.6159973144531 C108.06500244140625,275.1600036621094 109.0999984741211,339.4849853515625 109.26100158691406,390.41900634765625 C109.5,465.75 110,499.25 98.75800323486328,502.74798583984375 C98.75800323486328,502.74798583984375 407.5509948730469,424.3110046386719 407.5509948730469,424.3110046386719 C415.2760009765625,422.3479919433594 421.0769958496094,415.7669982910156 421.7099914550781,407.8219909667969 C427.19000244140625,339.00799560546875 434.3739929199219,229.50799560546875 436.5559997558594,187.08599853515625z"></path></g></g></g></svg>