<svg xmlns="http://www.w3.org/2000/svg" viewBox="0 0 512 512" width="512" height="512" style="width: 100%; height: 100%; transform: translate3d(0,0,0);" preserveAspectRatio="xMidYMid meet"><defs><clipPath id="__lottie_element_15205"><rect width="512" height="512" x="0" y="0"></rect></clipPath></defs><g clip-path="url(#__lottie_element_15205)"><g style="display: none;"><g><path></path><path stroke-linecap="round" stroke-linejoin="round" fill-opacity="0"></path></g></g><g style="display: none;"><g><path></path><path stroke-linecap="round" stroke-linejoin="round" fill-opacity="0"></path></g></g><g style="display: block;" transform="matrix(1.0480999946594238,0,0,1.0480999946594238,1928.8067626953125,296.2937927246094)" opacity="1"><g opacity="1" transform="matrix(1,0,0,1,0,0)"><path fill="rgb(253,36,155)" fill-opacity="1" d=" M-1537.97705078125,-112.1969985961914 C-1537.97705078125,-112.1969985961914 -1498.64599609375,-135.35000610351562 -1456.375,-109.88700103759766 C-1419.241943359375,-87.5199966430664 -1417.93896484375,-43.85499954223633 -1417.93896484375,-43.85499954223633 C-1417.93896484375,-43.85499954223633 -1426.3990478515625,-75.15699768066406 -1463.0780029296875,-97.59500122070312 C-1499.0660400390625,-119.60900115966797 -1537.97705078125,-112.1969985961914 -1537.97705078125,-112.1969985961914z"></path><path stroke-linecap="round" stroke-linejoin="round" fill-opacity="0" stroke="rgb(253,36,155)" stroke-opacity="1" stroke-width="4" d=" M-1537.97705078125,-112.1969985961914 C-1537.97705078125,-112.1969985961914 -1498.64599609375,-135.35000610351562 -1456.375,-109.88700103759766 C-1419.241943359375,-87.5199966430664 -1417.93896484375,-43.85499954223633 -1417.93896484375,-43.85499954223633 C-1417.93896484375,-43.85499954223633 -1426.3990478515625,-75.15699768066406 -1463.0780029296875,-97.59500122070312 C-1499.0660400390625,-119.60900115966797 -1537.97705078125,-112.1969985961914 -1537.97705078125,-112.1969985961914z"></path></g></g><g style="display: block;" transform="matrix(1.0480999946594238,0,0,1.0480999946594238,1928.8067626953125,296.2937927246094)" opacity="1"><g opacity="1" transform="matrix(1,0,0,1,0,0)"><path fill="rgb(253,36,155)" fill-opacity="1" d=" M-1405.7049560546875,-80.03299713134766 C-1405.7049560546875,-80.03299713134766 -1406.7049560546875,-119.37799835205078 -1441.68994140625,-140.8249969482422 C-1476.2979736328125,-162.04100036621094 -1513.074951171875,-140.8249969482422 -1513.074951171875,-140.8249969482422 C-1513.074951171875,-140.8249969482422 -1473.6500244140625,-148.99099731445312 -1443.4580078125,-128.7010040283203 C-1416.1209716796875,-110.3290023803711 -1405.7049560546875,-80.03299713134766 -1405.7049560546875,-80.03299713134766z"></path><path stroke-linecap="round" stroke-linejoin="round" fill-opacity="0" stroke="rgb(253,36,155)" stroke-opacity="1" stroke-width="4" d=" M-1405.7049560546875,-80.03299713134766 C-1405.7049560546875,-80.03299713134766 -1406.7049560546875,-119.37799835205078 -1441.68994140625,-140.8249969482422 C-1476.2979736328125,-162.04100036621094 -1513.074951171875,-140.8249969482422 -1513.074951171875,-140.8249969482422 C-1513.074951171875,-140.8249969482422 -1473.6500244140625,-148.99099731445312 -1443.4580078125,-128.7010040283203 C-1416.1209716796875,-110.3290023803711 -1405.7049560546875,-80.03299713134766 -1405.7049560546875,-80.03299713134766z"></path></g></g><g style="display: block;" transform="matrix(1.0480999946594238,0,0,1.0480999946594238,1928.8067626953125,296.2937927246094)" opacity="1"><g opacity="1" transform="matrix(1,0,0,1,0,0)"><path fill="rgb(253,36,155)" fill-opacity="1" d=" M-1481.35595703125,-169.67100524902344 C-1481.35595703125,-169.67100524902344 -1450.3380126953125,-179.73300170898438 -1425.10595703125,-163.1320037841797 C-1398.8050537109375,-145.82699584960938 -1395.3590087890625,-115.64399719238281 -1395.3590087890625,-115.64399719238281 C-1395.3590087890625,-115.64399719238281 -1406.572021484375,-142.54600524902344 -1431.5360107421875,-157.29800415039062 C-1456.5,-172.0500030517578 -1481.35595703125,-169.67100524902344 -1481.35595703125,-169.67100524902344z"></path><path stroke-linecap="round" stroke-linejoin="round" fill-opacity="0" stroke="rgb(253,36,155)" stroke-opacity="1" stroke-width="4" d=" M-1481.35595703125,-169.67100524902344 C-1481.35595703125,-169.67100524902344 -1450.3380126953125,-179.73300170898438 -1425.10595703125,-163.1320037841797 C-1398.8050537109375,-145.82699584960938 -1395.3590087890625,-115.64399719238281 -1395.3590087890625,-115.64399719238281 C-1395.3590087890625,-115.64399719238281 -1406.572021484375,-142.54600524902344 -1431.5360107421875,-157.29800415039062 C-1456.5,-172.0500030517578 -1481.35595703125,-169.67100524902344 -1481.35595703125,-169.67100524902344z"></path></g></g><g style="display: block;" transform="matrix(1.0480999946594238,0,0,1.0480999946594238,1928.8060302734375,296.29345703125)" opacity="1"><g opacity="1" transform="matrix(1,0,0,1,0,0)"><g opacity="1" transform="matrix(1,0,0,1,0,0)"><path fill="rgb(244,0,128)" fill-opacity="1" d=" M-1445.3050537109375,-18.834999084472656 C-1447.2239990234375,-47.823001861572266 -1471.4000244140625,-86.35199737548828 -1519.7530517578125,-85.2509994506836 C-1561.1739501953125,-84.30799865722656 -1586.9189453125,-48.89799880981445 -1593.448974609375,-38.76499938964844 C-1594.2060546875,-37.590999603271484 -1595.987060546875,-37.590999603271484 -1596.7440185546875,-38.76499938964844 C-1603.2740478515625,-48.89799880981445 -1629.0179443359375,-84.30799865722656 -1670.43896484375,-85.2509994506836 C-1718.7919921875,-86.35199737548828 -1742.968017578125,-47.823001861572266 -1744.886962890625,-18.834999084472656 C-1746.8060302734375,10.152999877929688 -1739.5150146484375,42.810001373291016 -1698.8370361328125,93.447998046875 C-1667.47900390625,132.48399353027344 -1622.8189697265625,175.66299438476562 -1604,193.39999389648438 C-1599.0589599609375,198.0570068359375 -1591.134033203125,198.0570068359375 -1586.1929931640625,193.39999389648438 C-1567.3740234375,175.66299438476562 -1522.7130126953125,132.48399353027344 -1491.35498046875,93.447998046875 C-1450.677001953125,42.810001373291016 -1443.385986328125,10.152999877929688 -1445.3050537109375,-18.834999084472656z"></path></g><g opacity="1" transform="matrix(1,0,0,1,0,0)"><path fill="rgb(253,36,155)" fill-opacity="1" d=" M-1445.3050537109375,-18.834999084472656 C-1447.2239990234375,-47.823001861572266 -1471.4000244140625,-86.35199737548828 -1519.7530517578125,-85.2509994506836 C-1568.10595703125,-84.1500015258789 -1595.095947265625,-36.08100128173828 -1595.095947265625,-36.08100128173828 C-1595.095947265625,-36.08100128173828 -1622.0860595703125,-84.1500015258789 -1670.43896484375,-85.2509994506836 C-1718.7919921875,-86.35199737548828 -1742.968017578125,-47.823001861572266 -1744.886962890625,-18.834999084472656 C-1746.8060302734375,10.152999877929688 -1739.5150146484375,42.810001373291016 -1698.8370361328125,93.447998046875 C-1678.8330078125,118.3499984741211 -1653.4150390625,144.93800354003906 -1632.7459716796875,165.53199768066406 C-1612.2039794921875,185.99899291992188 -1577.988037109375,185.99899291992188 -1557.446044921875,165.53199768066406 C-1536.7769775390625,144.93800354003906 -1511.3590087890625,118.3499984741211 -1491.35498046875,93.447998046875 C-1450.677001953125,42.810001373291016 -1443.385986328125,10.152999877929688 -1445.3050537109375,-18.834999084472656z"></path></g><g opacity="1" transform="matrix(1,0,0,1,0,0)"><path fill="rgb(252,60,175)" fill-opacity="1" d=" M-1459.196044921875,-11.5 C-1460.93701171875,-35.505001068115234 -1479.8089599609375,-70.08100128173828 -1523.677978515625,-69.16899871826172 C-1567.5469970703125,-68.25800323486328 -1595.095947265625,-16.430999755859375 -1595.095947265625,-16.430999755859375 C-1595.095947265625,-16.430999755859375 -1622.64501953125,-68.25800323486328 -1666.5140380859375,-69.16899871826172 C-1710.383056640625,-70.08100128173828 -1729.2559814453125,-35.505001068115234 -1730.9969482421875,-11.5 C-1732.738037109375,12.505000114440918 -1726.123046875,42.887001037597656 -1689.217041015625,84.81900024414062 C-1678.3270263671875,97.19200134277344 -1665.6689453125,110.50499725341797 -1653.2340087890625,123.1259994506836 C-1621.68798828125,155.1439971923828 -1568.5040283203125,155.1439971923828 -1536.9580078125,123.1259994506836 C-1524.52294921875,110.50499725341797 -1511.864990234375,97.19200134277344 -1500.9749755859375,84.81900024414062 C-1464.0689697265625,42.887001037597656 -1457.4549560546875,12.505000114440918 -1459.196044921875,-11.5z"></path></g><g opacity="1" transform="matrix(1,0,0,1,0,0)"><g opacity="1" transform="matrix(1,0,0,1,0,0)"><path fill="rgb(250,75,180)" fill-opacity="1" d=" M-1595.1070556640625,-16.437999725341797 C-1607.633056640625,-28.128999710083008 -1657.0479736328125,-43.007999420166016 -1690.8060302734375,-19.641000747680664 C-1730.93798828125,8.137999534606934 -1714.5689697265625,50.15599822998047 -1713.9520263671875,51.560001373291016 C-1719.115966796875,42.92900085449219 -1722.8719482421875,34.88800048828125 -1725.5450439453125,27.357999801635742 C-1725.3470458984375,11.809000015258789 -1719.717041015625,-8.347000122070312 -1696.8719482421875,-24.155000686645508 C-1664.426025390625,-46.6150016784668 -1618.3790283203125,-35.845001220703125 -1599.9859619140625,-24.385000228881836 C-1596.885986328125,-19.749000549316406 -1595.2099609375,-16.631999969482422 -1595.1070556640625,-16.437999725341797z"></path></g><g opacity="1" transform="matrix(1,0,0,1,0,0)"><path fill="rgb(253,84,185)" fill-opacity="1" d=" M-1599.9859619140625,-24.385000228881836 C-1618.3790283203125,-35.845001220703125 -1664.426025390625,-46.6150016784668 -1696.8719482421875,-24.155000686645508 C-1719.717041015625,-8.347000122070312 -1725.3470458984375,11.809000015258789 -1725.5450439453125,27.357999801635742 C-1726.73095703125,24.024999618530273 -1727.696044921875,20.792999267578125 -1728.470947265625,17.65399932861328 C-1726.343994140625,3.385999917984009 -1718.9820556640625,-12.946000099182129 -1699.718994140625,-26.270999908447266 C-1667.613037109375,-48.5 -1622.56201171875,-39.07699966430664 -1602.365966796875,-27.83300018310547 C-1601.4959716796875,-26.615999221801758 -1600.7049560546875,-25.45800018310547 -1599.9859619140625,-24.385000228881836z"></path></g><g opacity="1" transform="matrix(1,0,0,1,0,0)"><path fill="rgb(253,99,190)" fill-opacity="1" d=" M-1602.365966796875,-27.83300018310547 C-1622.56201171875,-39.07699966430664 -1667.613037109375,-48.5 -1699.718994140625,-26.270999908447266 C-1718.9820556640625,-12.946000099182129 -1726.343994140625,3.385999917984009 -1728.470947265625,17.65399932861328 C-1729.5860595703125,13.184000015258789 -1730.3289794921875,8.901000022888184 -1730.7559814453125,4.790999889373779 C-1726.7230224609375,-6.835000038146973 -1718.6820068359375,-18.922000885009766 -1703.7359619140625,-29.259000778198242 C-1672.0260009765625,-51.21500015258789 -1628.14501953125,-43.43299865722656 -1605.8929443359375,-32.56999969482422 C-1604.60400390625,-30.913999557495117 -1603.4339599609375,-29.322999954223633 -1602.365966796875,-27.83300018310547z"></path></g><g opacity="1" transform="matrix(1,0,0,1,0,0)"><path fill="rgb(250,114,194)" fill-opacity="1" d=" M-1605.8929443359375,-32.56999969482422 C-1628.14501953125,-43.43299865722656 -1672.0260009765625,-51.21500015258789 -1703.7359619140625,-29.259000778198242 C-1718.6820068359375,-18.922000885009766 -1726.7230224609375,-6.835000038146973 -1730.7559814453125,4.790999889373779 C-1731.1910400390625,0.6589999794960022 -1731.3179931640625,-3.3010001182556152 -1731.20703125,-7.1020002365112305 C-1726.35205078125,-15.847999572753906 -1718.9029541015625,-24.514999389648438 -1707.737060546875,-32.23899841308594 C-1676.3990478515625,-53.928001403808594 -1633.6090087890625,-47.62200164794922 -1609.68798828125,-37.23500061035156 C-1608.3280029296875,-35.64400100708008 -1607.06298828125,-34.082000732421875 -1605.8929443359375,-32.56999969482422z"></path></g><g opacity="1" transform="matrix(1,0,0,1,0,0)"><path fill="rgb(253,124,200)" fill-opacity="1" d=" M-1609.68798828125,-37.23500061035156 C-1633.6090087890625,-47.62200164794922 -1676.3990478515625,-53.928001403808594 -1707.737060546875,-32.23899841308594 C-1718.9029541015625,-24.514999389648438 -1726.35205078125,-15.847999572753906 -1731.20703125,-7.1020002365112305 C-1731.175048828125,-8.592000007629395 -1731.0970458984375,-10.0600004196167 -1730.9940185546875,-11.5 C-1730.8280029296875,-13.817999839782715 -1730.4949951171875,-16.23699951171875 -1730.0050048828125,-18.71299934387207 C-1725.4029541015625,-24.514999389648438 -1719.4959716796875,-30.150999069213867 -1711.9520263671875,-35.369998931884766 C-1681.032958984375,-56.763999938964844 -1639.3900146484375,-51.904998779296875 -1614.0379638671875,-42.108001708984375 C-1612.4959716796875,-40.4739990234375 -1611.0479736328125,-38.84000015258789 -1609.68798828125,-37.23500061035156z"></path></g><g opacity="1" transform="matrix(1,0,0,1,0,0)"><path fill="rgb(251,138,204)" fill-opacity="1" d=" M-1614.0379638671875,-42.108001708984375 C-1639.3900146484375,-51.904998779296875 -1681.032958984375,-56.763999938964844 -1711.9520263671875,-35.369998931884766 C-1719.4959716796875,-30.150999069213867 -1725.4029541015625,-24.514999389648438 -1730.0050048828125,-18.71299934387207 C-1729.3330078125,-22.082000732421875 -1728.344970703125,-25.56599998474121 -1727.031982421875,-29.042999267578125 C-1723.7340087890625,-32.19599914550781 -1719.9940185546875,-35.255001068115234 -1715.748046875,-38.19200134277344 C-1685.302978515625,-59.262001037597656 -1644.7750244140625,-55.66999816894531 -1618.386962890625,-46.513999938964844 C-1616.8690185546875,-45.053001403808594 -1615.4219970703125,-43.57600021362305 -1614.0379638671875,-42.108001708984375z"></path></g><g opacity="1" transform="matrix(1,0,0,1,0,0)"><path fill="rgb(255,148,212)" fill-opacity="1" d=" M-1618.386962890625,-46.513999938964844 C-1644.7750244140625,-55.66999816894531 -1685.302978515625,-59.262001037597656 -1715.748046875,-38.19200134277344 C-1719.9940185546875,-35.255001068115234 -1723.7340087890625,-32.19599914550781 -1727.031982421875,-29.042999267578125 C-1725.56103515625,-32.9370002746582 -1723.678955078125,-36.8380012512207 -1721.362060546875,-40.5890007019043 C-1720.958984375,-40.87699890136719 -1720.5469970703125,-41.165000915527344 -1720.135986328125,-41.452999114990234 C-1690.4189453125,-62.027000427246094 -1651.426025390625,-59.90999984741211 -1624.14404296875,-51.667999267578125 C-1622.126953125,-49.99800109863281 -1620.2060546875,-48.26300048828125 -1618.386962890625,-46.513999938964844z"></path></g><g opacity="1" transform="matrix(1,0,0,1,0,0)"><path fill="rgb(255,161,216)" fill-opacity="1" d=" M-1624.14404296875,-51.667999267578125 C-1651.426025390625,-59.90999984741211 -1690.4189453125,-62.027000427246094 -1720.135986328125,-41.452999114990234 C-1720.5469970703125,-41.165000915527344 -1720.958984375,-40.87699890136719 -1721.362060546875,-40.5890007019043 C-1719.511962890625,-43.57600021362305 -1717.3919677734375,-46.47800064086914 -1714.9720458984375,-49.20600128173828 C-1687.4930419921875,-63.790000915527344 -1654.4620361328125,-62.409000396728516 -1629.426025390625,-55.75699996948242 C-1627.5989990234375,-54.446998596191406 -1625.8360595703125,-53.07899856567383 -1624.14404296875,-51.667999267578125z"></path></g><g opacity="1" transform="matrix(1,0,0,1,0,0)"><path fill="rgb(255,173,222)" fill-opacity="1" d=" M-1629.426025390625,-55.75699996948242 C-1654.4620361328125,-62.409000396728516 -1687.4930419921875,-63.790000915527344 -1714.9720458984375,-49.20600128173828 C-1712.884033203125,-51.56700134277344 -1710.5830078125,-53.79800033569336 -1708.052978515625,-55.856998443603516 C-1683.8079833984375,-65.33000183105469 -1656.7080078125,-64.38099670410156 -1634.7010498046875,-59.27000045776367 C-1632.8900146484375,-58.1609992980957 -1631.1259765625,-56.98099899291992 -1629.426025390625,-55.75699996948242z"></path></g><g opacity="1" transform="matrix(1,0,0,1,0,0)"><path fill="rgb(255,188,227)" fill-opacity="1" d=" M-1634.7010498046875,-59.27000045776367 C-1656.7080078125,-64.38099670410156 -1683.8079833984375,-65.33000183105469 -1708.052978515625,-55.856998443603516 C-1705.4990234375,-57.9370002746582 -1702.7239990234375,-59.8390007019043 -1699.7030029296875,-61.51599884033203 C-1679.8780517578125,-66.82099914550781 -1658.9620361328125,-66.18000030517578 -1640.8370361328125,-62.65999984741211 C-1638.7259521484375,-61.62300109863281 -1636.68603515625,-60.48699951171875 -1634.7010498046875,-59.27000045776367z"></path></g><g opacity="1" transform="matrix(1,0,0,1,0,0)"><path fill="rgb(255,202,232)" fill-opacity="1" d=" M-1640.8370361328125,-62.65999984741211 C-1658.9620361328125,-66.18000030517578 -1679.8780517578125,-66.82099914550781 -1699.7030029296875,-61.51599884033203 C-1696.5789794921875,-63.250999450683594 -1693.2030029296875,-64.74099731445312 -1689.5570068359375,-65.94300079345703 C-1675.449951171875,-68.11699676513672 -1661.1839599609375,-67.69999694824219 -1648.0570068359375,-65.72000122070312 C-1645.573974609375,-64.83499908447266 -1643.1700439453125,-63.8120002746582 -1640.8370361328125,-62.65999984741211z"></path></g><g opacity="1" transform="matrix(1,0,0,1,0,0)"><path fill="rgb(255,211,240)" fill-opacity="1" d=" M-1648.0570068359375,-65.72000122070312 C-1661.1839599609375,-67.69999694824219 -1675.449951171875,-68.11699676513672 -1689.5570068359375,-65.94300079345703 C-1682.803955078125,-68.15299987792969 -1675.1409912109375,-69.3479995727539 -1666.5140380859375,-69.16799926757812 C-1659.9820556640625,-69.03099822998047 -1653.822021484375,-67.77100372314453 -1648.0570068359375,-65.72000122070312z"></path></g></g><g opacity="1" transform="matrix(1,0,0,1,0,0)"><g opacity="1" transform="matrix(1,0,0,1,0,0)"><path fill="rgb(250,75,180)" fill-opacity="1" d=" M-1595.1070556640625,-16.437999725341797 C-1582.5810546875,-28.128999710083008 -1533.1650390625,-43.007999420166016 -1499.406982421875,-19.641000747680664 C-1459.2750244140625,8.137999534606934 -1475.64404296875,50.15599822998047 -1476.260986328125,51.560001373291016 C-1471.0970458984375,42.92900085449219 -1467.3409423828125,34.88800048828125 -1464.66796875,27.357999801635742 C-1464.865966796875,11.809000015258789 -1470.4969482421875,-8.347000122070312 -1493.342041015625,-24.155000686645508 C-1525.7879638671875,-46.6150016784668 -1571.8349609375,-35.845001220703125 -1590.22802734375,-24.385000228881836 C-1593.3280029296875,-19.749000549316406 -1595.0040283203125,-16.631999969482422 -1595.1070556640625,-16.437999725341797z"></path></g><g opacity="1" transform="matrix(1,0,0,1,0,0)"><path fill="rgb(253,84,185)" fill-opacity="1" d=" M-1590.22802734375,-24.385000228881836 C-1571.8349609375,-35.845001220703125 -1525.7879638671875,-46.6150016784668 -1493.342041015625,-24.155000686645508 C-1470.4969482421875,-8.347000122070312 -1464.865966796875,11.809000015258789 -1464.66796875,27.357999801635742 C-1463.4820556640625,24.024999618530273 -1462.5169677734375,20.792999267578125 -1461.741943359375,17.65399932861328 C-1463.8690185546875,3.385999917984009 -1471.2320556640625,-12.946000099182129 -1490.4949951171875,-26.270999908447266 C-1522.6009521484375,-48.5 -1567.6510009765625,-39.07699966430664 -1587.8470458984375,-27.83300018310547 C-1588.717041015625,-26.615999221801758 -1589.508056640625,-25.45800018310547 -1590.22802734375,-24.385000228881836z"></path></g><g opacity="1" transform="matrix(1,0,0,1,0,0)"><path fill="rgb(253,99,190)" fill-opacity="1" d=" M-1587.8470458984375,-27.83300018310547 C-1567.6510009765625,-39.07699966430664 -1522.6009521484375,-48.5 -1490.4949951171875,-26.270999908447266 C-1471.2320556640625,-12.946000099182129 -1463.8690185546875,3.385999917984009 -1461.741943359375,17.65399932861328 C-1460.626953125,13.184000015258789 -1459.884033203125,8.901000022888184 -1459.45703125,4.790999889373779 C-1463.489990234375,-6.835000038146973 -1471.531982421875,-18.922000885009766 -1486.47802734375,-29.259000778198242 C-1518.18798828125,-51.21500015258789 -1562.0689697265625,-43.43299865722656 -1584.321044921875,-32.56999969482422 C-1585.6099853515625,-30.913999557495117 -1586.779052734375,-29.322999954223633 -1587.8470458984375,-27.83300018310547z"></path></g><g opacity="1" transform="matrix(1,0,0,1,0,0)"><path fill="rgb(250,114,194)" fill-opacity="1" d=" M-1584.321044921875,-32.56999969482422 C-1562.0689697265625,-43.43299865722656 -1518.18798828125,-51.21500015258789 -1486.47802734375,-29.259000778198242 C-1471.531982421875,-18.922000885009766 -1463.489990234375,-6.835000038146973 -1459.45703125,4.790999889373779 C-1459.02197265625,0.6589999794960022 -1458.89501953125,-3.3010001182556152 -1459.0059814453125,-7.1020002365112305 C-1463.8609619140625,-15.847999572753906 -1471.31103515625,-24.514999389648438 -1482.47705078125,-32.23899841308594 C-1513.81494140625,-53.928001403808594 -1556.60400390625,-47.62200164794922 -1580.5250244140625,-37.23500061035156 C-1581.885009765625,-35.64400100708008 -1583.1510009765625,-34.082000732421875 -1584.321044921875,-32.56999969482422z"></path></g><g opacity="1" transform="matrix(1,0,0,1,0,0)"><path fill="rgb(253,124,200)" fill-opacity="1" d=" M-1580.5250244140625,-37.23500061035156 C-1556.60400390625,-47.62200164794922 -1513.81494140625,-53.928001403808594 -1482.47705078125,-32.23899841308594 C-1471.31103515625,-24.514999389648438 -1463.8609619140625,-15.847999572753906 -1459.0059814453125,-7.1020002365112305 C-1459.0379638671875,-8.592000007629395 -1459.116943359375,-10.0600004196167 -1459.219970703125,-11.5 C-1459.385986328125,-13.817999839782715 -1459.718017578125,-16.23699951171875 -1460.2080078125,-18.71299934387207 C-1464.81005859375,-24.514999389648438 -1470.718017578125,-30.150999069213867 -1478.261962890625,-35.369998931884766 C-1509.1810302734375,-56.763999938964844 -1550.823974609375,-51.904998779296875 -1576.176025390625,-42.108001708984375 C-1577.718017578125,-40.4739990234375 -1579.1650390625,-38.84000015258789 -1580.5250244140625,-37.23500061035156z"></path></g><g opacity="1" transform="matrix(1,0,0,1,0,0)"><path fill="rgb(251,138,204)" fill-opacity="1" d=" M-1576.176025390625,-42.108001708984375 C-1550.823974609375,-51.904998779296875 -1509.1810302734375,-56.763999938964844 -1478.261962890625,-35.369998931884766 C-1470.718017578125,-30.150999069213867 -1464.81005859375,-24.514999389648438 -1460.2080078125,-18.71299934387207 C-1460.8800048828125,-22.082000732421875 -1461.8690185546875,-25.56599998474121 -1463.1820068359375,-29.042999267578125 C-1466.47998046875,-32.19599914550781 -1470.219970703125,-35.255001068115234 -1474.4659423828125,-38.19200134277344 C-1504.9110107421875,-59.262001037597656 -1545.43798828125,-55.66999816894531 -1571.8260498046875,-46.513999938964844 C-1573.343994140625,-45.053001403808594 -1574.7919921875,-43.57600021362305 -1576.176025390625,-42.108001708984375z"></path></g><g opacity="1" transform="matrix(1,0,0,1,0,0)"><path fill="rgb(255,148,212)" fill-opacity="1" d=" M-1571.8260498046875,-46.513999938964844 C-1545.43798828125,-55.66999816894531 -1504.9110107421875,-59.262001037597656 -1474.4659423828125,-38.19200134277344 C-1470.219970703125,-35.255001068115234 -1466.47998046875,-32.19599914550781 -1463.1820068359375,-29.042999267578125 C-1464.6529541015625,-32.9370002746582 -1466.5340576171875,-36.8380012512207 -1468.8509521484375,-40.5890007019043 C-1469.2540283203125,-40.87699890136719 -1469.666015625,-41.165000915527344 -1470.0770263671875,-41.452999114990234 C-1499.7939453125,-62.027000427246094 -1538.7869873046875,-59.90999984741211 -1566.0689697265625,-51.667999267578125 C-1568.0849609375,-49.99800109863281 -1570.0069580078125,-48.26300048828125 -1571.8260498046875,-46.513999938964844z"></path></g><g opacity="1" transform="matrix(1,0,0,1,0,0)"><path fill="rgb(255,161,216)" fill-opacity="1" d=" M-1566.0689697265625,-51.667999267578125 C-1538.7869873046875,-59.90999984741211 -1499.7939453125,-62.027000427246094 -1470.0770263671875,-41.452999114990234 C-1469.666015625,-41.165000915527344 -1469.2540283203125,-40.87699890136719 -1468.8509521484375,-40.5890007019043 C-1470.7010498046875,-43.57600021362305 -1472.821044921875,-46.47800064086914 -1475.240966796875,-49.20600128173828 C-1502.719970703125,-63.790000915527344 -1535.7509765625,-62.409000396728516 -1560.7869873046875,-55.75699996948242 C-1562.614013671875,-54.446998596191406 -1564.376953125,-53.07899856567383 -1566.0689697265625,-51.667999267578125z"></path></g><g opacity="1" transform="matrix(1,0,0,1,0,0)"><path fill="rgb(255,173,222)" fill-opacity="1" d=" M-1560.7869873046875,-55.75699996948242 C-1535.7509765625,-62.409000396728516 -1502.719970703125,-63.790000915527344 -1475.240966796875,-49.20600128173828 C-1477.3289794921875,-51.56700134277344 -1479.6290283203125,-53.79800033569336 -1482.1600341796875,-55.856998443603516 C-1506.405029296875,-65.33000183105469 -1533.5050048828125,-64.38099670410156 -1555.511962890625,-59.27000045776367 C-1557.322998046875,-58.1609992980957 -1559.0870361328125,-56.98099899291992 -1560.7869873046875,-55.75699996948242z"></path></g><g opacity="1" transform="matrix(1,0,0,1,0,0)"><path fill="rgb(255,188,227)" fill-opacity="1" d=" M-1555.511962890625,-59.27000045776367 C-1533.5050048828125,-64.38099670410156 -1506.405029296875,-65.33000183105469 -1482.1600341796875,-55.856998443603516 C-1484.7139892578125,-57.9370002746582 -1487.489990234375,-59.8390007019043 -1490.510986328125,-61.51599884033203 C-1510.3360595703125,-66.82099914550781 -1531.2509765625,-66.18000030517578 -1549.3759765625,-62.65999984741211 C-1551.487060546875,-61.62300109863281 -1553.5269775390625,-60.48699951171875 -1555.511962890625,-59.27000045776367z"></path></g><g opacity="1" transform="matrix(1,0,0,1,0,0)"><path fill="rgb(255,202,232)" fill-opacity="1" d=" M-1549.3759765625,-62.65999984741211 C-1531.2509765625,-66.18000030517578 -1510.3360595703125,-66.82099914550781 -1490.510986328125,-61.51599884033203 C-1493.635009765625,-63.250999450683594 -1497.010009765625,-64.74099731445312 -1500.656005859375,-65.94300079345703 C-1514.7640380859375,-68.11699676513672 -1529.029052734375,-67.69999694824219 -1542.156005859375,-65.72000122070312 C-1544.6390380859375,-64.83499908447266 -1547.04296875,-63.8120002746582 -1549.3759765625,-62.65999984741211z"></path></g><g opacity="1" transform="matrix(1,0,0,1,0,0)"><path fill="rgb(255,211,240)" fill-opacity="1" d=" M-1542.156005859375,-65.72000122070312 C-1529.029052734375,-67.69999694824219 -1514.7640380859375,-68.11699676513672 -1500.656005859375,-65.94300079345703 C-1507.4090576171875,-68.15299987792969 -1515.072021484375,-69.3479995727539 -1523.698974609375,-69.16799926757812 C-1530.23095703125,-69.03099822998047 -1536.3909912109375,-67.77100372314453 -1542.156005859375,-65.72000122070312z"></path></g></g><g opacity="0.5" transform="matrix(1,0,0,1,0,0)"><path fill="rgb(252,60,175)" fill-opacity="1" d=" M-1595.1070556640625,-16.437999725341797 C-1607.633056640625,-28.128999710083008 -1657.0479736328125,-43.007999420166016 -1690.8060302734375,-19.641000747680664 C-1730.93798828125,8.137999534606934 -1714.5689697265625,50.15599822998047 -1713.9520263671875,51.560001373291016 C-1716.5770263671875,47.17599868774414 -1718.8399658203125,42.94300079345703 -1720.76904296875,38.854000091552734 C-1723.02294921875,23.549999237060547 -1721.64599609375,-2.4800000190734863 -1693.7159423828125,-21.808000564575195 C-1660.7330322265625,-44.6349983215332 -1613.2550048828125,-32.0369987487793 -1597.416015625,-20.39699935913086 C-1595.9610595703125,-18.035999298095703 -1595.177978515625,-16.56800079345703 -1595.1070556640625,-16.437999725341797z"></path></g><g opacity="0.5" transform="matrix(1,0,0,1,0,0)"><path fill="rgb(252,60,175)" fill-opacity="1" d=" M-1595.1070556640625,-16.437999725341797 C-1582.5810546875,-28.128999710083008 -1533.1650390625,-43.007999420166016 -1499.406982421875,-19.641000747680664 C-1459.2750244140625,8.137999534606934 -1475.64404296875,50.15599822998047 -1476.260986328125,51.560001373291016 C-1473.635986328125,47.17599868774414 -1471.373046875,42.94300079345703 -1469.4439697265625,38.854000091552734 C-1467.18994140625,23.549999237060547 -1468.5670166015625,-2.4800000190734863 -1496.4969482421875,-21.808000564575195 C-1529.47998046875,-44.6349983215332 -1576.958984375,-32.0369987487793 -1592.7979736328125,-20.39699935913086 C-1594.2530517578125,-18.035999298095703 -1595.0360107421875,-16.56800079345703 -1595.1070556640625,-16.437999725341797z"></path></g><g opacity="1" transform="matrix(1,0,0,1,0,0)"><g opacity="1" transform="matrix(1,0,0,1,0,0)"><path stroke-linecap="round" stroke-linejoin="round" fill-opacity="0" stroke="rgb(255,255,255)" stroke-opacity="1" stroke-width="6" d=" M-1544.4560546875,-60.62799835205078 C-1544.4560546875,-60.62799835205078 -1541.6949462890625,-62.2760009765625 -1536.2659912109375,-63.60599899291992"></path></g><g opacity="1" transform="matrix(0.9574499726295471,0,0,0.9574499726295471,123.375,-136.375)"><path fill="rgb(255,255,255)" fill-opacity="1" d=" M-1722.488037109375,70.51899719238281 C-1720.72900390625,70.51899719238281 -1719.302978515625,71.94499969482422 -1719.302978515625,73.7040023803711 C-1719.302978515625,75.46299743652344 -1720.72900390625,76.88899993896484 -1722.488037109375,76.88899993896484 C-1724.2469482421875,76.88899993896484 -1725.6719970703125,75.46299743652344 -1725.6719970703125,73.7040023803711 C-1725.6719970703125,71.94499969482422 -1724.2469482421875,70.51899719238281 -1722.488037109375,70.51899719238281z"></path></g></g></g><g opacity="1" transform="matrix(1,0,0,1,0,0)"><path stroke-linecap="round" stroke-linejoin="round" fill-opacity="0" stroke="rgb(197,0,107)" stroke-opacity="1" stroke-width="8" d=" M-1445.3050537109375,-18.834999084472656 C-1447.2239990234375,-47.823001861572266 -1471.4000244140625,-86.35199737548828 -1519.7530517578125,-85.2509994506836 C-1561.1739501953125,-84.30799865722656 -1586.9189453125,-48.89799880981445 -1593.448974609375,-38.76499938964844 C-1594.2060546875,-37.590999603271484 -1595.987060546875,-37.590999603271484 -1596.7440185546875,-38.76499938964844 C-1603.2740478515625,-48.89799880981445 -1629.0179443359375,-84.30799865722656 -1670.43896484375,-85.2509994506836 C-1718.7919921875,-86.35199737548828 -1742.968017578125,-47.823001861572266 -1744.886962890625,-18.834999084472656 C-1746.8060302734375,10.152999877929688 -1739.5150146484375,42.810001373291016 -1698.8370361328125,93.447998046875 C-1667.47900390625,132.48399353027344 -1622.8189697265625,175.66299438476562 -1604,193.39999389648438 C-1599.0589599609375,198.0570068359375 -1591.134033203125,198.0570068359375 -1586.1929931640625,193.39999389648438 C-1567.3740234375,175.66299438476562 -1522.7130126953125,132.48399353027344 -1491.35498046875,93.447998046875 C-1450.677001953125,42.810001373291016 -1443.385986328125,10.152999877929688 -1445.3050537109375,-18.834999084472656z"></path></g></g><g style="display: none;"><g><path></path><path stroke-linecap="round" stroke-linejoin="round" fill-opacity="0"></path></g></g><g style="display: none;"><g><path></path><path stroke-linecap="round" stroke-linejoin="round" fill-opacity="0"></path></g></g><g style="display: block;" transform="matrix(-1.0480999946594238,0,0,1.0480999946594238,-1414.8067626953125,296.2937927246094)" opacity="1"><g opacity="1" transform="matrix(1,0,0,1,0,0)"><path fill="rgb(253,36,155)" fill-opacity="1" d=" M-1537.97705078125,-112.1969985961914 C-1537.97705078125,-112.1969985961914 -1498.64599609375,-135.35000610351562 -1456.375,-109.88700103759766 C-1419.241943359375,-87.5199966430664 -1417.93896484375,-43.85499954223633 -1417.93896484375,-43.85499954223633 C-1417.93896484375,-43.85499954223633 -1426.3990478515625,-75.15699768066406 -1463.0780029296875,-97.59500122070312 C-1499.0660400390625,-119.60900115966797 -1537.97705078125,-112.1969985961914 -1537.97705078125,-112.1969985961914z"></path><path stroke-linecap="round" stroke-linejoin="round" fill-opacity="0" stroke="rgb(253,36,155)" stroke-opacity="1" stroke-width="4" d=" M-1537.97705078125,-112.1969985961914 C-1537.97705078125,-112.1969985961914 -1498.64599609375,-135.35000610351562 -1456.375,-109.88700103759766 C-1419.241943359375,-87.5199966430664 -1417.93896484375,-43.85499954223633 -1417.93896484375,-43.85499954223633 C-1417.93896484375,-43.85499954223633 -1426.3990478515625,-75.15699768066406 -1463.0780029296875,-97.59500122070312 C-1499.0660400390625,-119.60900115966797 -1537.97705078125,-112.1969985961914 -1537.97705078125,-112.1969985961914z"></path></g></g><g style="display: block;" transform="matrix(-1.0480999946594238,0,0,1.0480999946594238,-1414.8067626953125,296.2937927246094)" opacity="1"><g opacity="1" transform="matrix(1,0,0,1,0,0)"><path fill="rgb(253,36,155)" fill-opacity="1" d=" M-1405.7049560546875,-80.03299713134766 C-1405.7049560546875,-80.03299713134766 -1406.7049560546875,-119.37799835205078 -1441.68994140625,-140.8249969482422 C-1476.2979736328125,-162.04100036621094 -1513.074951171875,-140.8249969482422 -1513.074951171875,-140.8249969482422 C-1513.074951171875,-140.8249969482422 -1473.6500244140625,-148.99099731445312 -1443.4580078125,-128.7010040283203 C-1416.1209716796875,-110.3290023803711 -1405.7049560546875,-80.03299713134766 -1405.7049560546875,-80.03299713134766z"></path><path stroke-linecap="round" stroke-linejoin="round" fill-opacity="0" stroke="rgb(253,36,155)" stroke-opacity="1" stroke-width="4" d=" M-1405.7049560546875,-80.03299713134766 C-1405.7049560546875,-80.03299713134766 -1406.7049560546875,-119.37799835205078 -1441.68994140625,-140.8249969482422 C-1476.2979736328125,-162.04100036621094 -1513.074951171875,-140.8249969482422 -1513.074951171875,-140.8249969482422 C-1513.074951171875,-140.8249969482422 -1473.6500244140625,-148.99099731445312 -1443.4580078125,-128.7010040283203 C-1416.1209716796875,-110.3290023803711 -1405.7049560546875,-80.03299713134766 -1405.7049560546875,-80.03299713134766z"></path></g></g><g style="display: block;" transform="matrix(-1.0480999946594238,0,0,1.0480999946594238,-1414.8067626953125,296.2937927246094)" opacity="1"><g opacity="1" transform="matrix(1,0,0,1,0,0)"><path fill="rgb(253,36,155)" fill-opacity="1" d=" M-1481.35595703125,-169.67100524902344 C-1481.35595703125,-169.67100524902344 -1450.3380126953125,-179.73300170898438 -1425.10595703125,-163.1320037841797 C-1398.8050537109375,-145.82699584960938 -1395.3590087890625,-115.64399719238281 -1395.3590087890625,-115.64399719238281 C-1395.3590087890625,-115.64399719238281 -1406.572021484375,-142.54600524902344 -1431.5360107421875,-157.29800415039062 C-1456.5,-172.0500030517578 -1481.35595703125,-169.67100524902344 -1481.35595703125,-169.67100524902344z"></path><path stroke-linecap="round" stroke-linejoin="round" fill-opacity="0" stroke="rgb(253,36,155)" stroke-opacity="1" stroke-width="4" d=" M-1481.35595703125,-169.67100524902344 C-1481.35595703125,-169.67100524902344 -1450.3380126953125,-179.73300170898438 -1425.10595703125,-163.1320037841797 C-1398.8050537109375,-145.82699584960938 -1395.3590087890625,-115.64399719238281 -1395.3590087890625,-115.64399719238281 C-1395.3590087890625,-115.64399719238281 -1406.572021484375,-142.54600524902344 -1431.5360107421875,-157.29800415039062 C-1456.5,-172.0500030517578 -1481.35595703125,-169.67100524902344 -1481.35595703125,-169.67100524902344z"></path></g></g></g></svg>