<svg xmlns="http://www.w3.org/2000/svg" viewBox="0 0 512 512" width="512" height="512" style="width: 100%; height: 100%; transform: translate3d(0,0,0);" preserveAspectRatio="xMidYMid meet"><defs><clipPath id="__lottie_element_15347"><rect width="512" height="512" x="0" y="0"></rect></clipPath><linearGradient id="__lottie_element_15361" spreadMethod="pad" gradientUnits="userSpaceOnUse" x1="200.3769989013672" y1="112.83699798583984" x2="216.4770050048828" y2="114.18800354003906"><stop offset="0%" stop-color="rgb(255,255,255)"></stop><stop offset="50%" stop-color="rgb(142,131,148)"></stop><stop offset="100%" stop-color="rgb(29,7,40)"></stop></linearGradient><linearGradient id="__lottie_element_15362" spreadMethod="pad" gradientUnits="userSpaceOnUse" x1="198.3769989013672" y1="69.83699798583984" x2="220.05799865722656" y2="71.18800354003906"><stop offset="0%" stop-color="rgb(255,255,255)"></stop><stop offset="50%" stop-color="rgb(142,131,148)"></stop><stop offset="100%" stop-color="rgb(29,7,40)"></stop></linearGradient><linearGradient id="__lottie_element_15363" spreadMethod="pad" gradientUnits="userSpaceOnUse" x1="198.9550018310547" y1="17.759000778198242" x2="222.02000427246094" y2="19.150999069213867"><stop offset="0%" stop-color="rgb(255,255,255)"></stop><stop offset="50%" stop-color="rgb(142,131,148)"></stop><stop offset="100%" stop-color="rgb(29,7,40)"></stop></linearGradient><linearGradient id="__lottie_element_15368" spreadMethod="pad" gradientUnits="userSpaceOnUse" x1="-116.32499694824219" y1="-170.843994140625" x2="116.125" y2="-127.7979965209961"><stop offset="6%" stop-color="rgb(0,97,200)"></stop><stop offset="50%" stop-color="rgb(0,78,170)"></stop><stop offset="93%" stop-color="rgb(0,58,139)"></stop></linearGradient><linearGradient id="__lottie_element_15377" spreadMethod="pad" gradientUnits="userSpaceOnUse" x1="-113.32499694824219" y1="-84.84400177001953" x2="116.54499816894531" y2="-84.84400177001953"><stop offset="0%" stop-color="rgb(15,15,16)"></stop><stop offset="23%" stop-color="rgb(65,65,65)"></stop><stop offset="35%" stop-color="rgb(114,114,114)"></stop><stop offset="47%" stop-color="rgb(59,59,59)"></stop><stop offset="100%" stop-color="rgb(5,5,5)"></stop></linearGradient><linearGradient id="__lottie_element_15378" spreadMethod="pad" gradientUnits="userSpaceOnUse" x1="-115.32499694824219" y1="-116.84400177001953" x2="118.98899841308594" y2="-116.84400177001953"><stop offset="0%" stop-color="rgb(15,15,16)"></stop><stop offset="23%" stop-color="rgb(65,65,65)"></stop><stop offset="35%" stop-color="rgb(114,114,114)"></stop><stop offset="47%" stop-color="rgb(59,59,59)"></stop><stop offset="100%" stop-color="rgb(5,5,5)"></stop></linearGradient><linearGradient id="__lottie_element_15391" spreadMethod="pad" gradientUnits="userSpaceOnUse" x1="-59.32500076293945" y1="-24.8439998626709" x2="-45.792999267578125" y2="-3.9019999504089355"><stop offset="0%" stop-color="rgb(60,5,0)"></stop><stop offset="38%" stop-color="rgb(111,45,0)"></stop><stop offset="100%" stop-color="rgb(162,84,0)"></stop></linearGradient><linearGradient id="__lottie_element_15395" spreadMethod="pad" gradientUnits="userSpaceOnUse" x1="59.67499923706055" y1="-24.8439998626709" x2="73.20700073242188" y2="-3.9019999504089355"><stop offset="0%" stop-color="rgb(60,5,0)"></stop><stop offset="38%" stop-color="rgb(111,45,0)"></stop><stop offset="100%" stop-color="rgb(162,84,0)"></stop></linearGradient></defs><g clip-path="url(#__lottie_element_15347)"><g style="display: block;" transform="matrix(1,0,0,1,256,280.75)" opacity="1"><g opacity="1" transform="matrix(1,0,0,1,0,0)"><path fill="rgb(60,53,53)" fill-opacity="1" d=" M44.928001403808594,64.67900085449219 C44.928001403808594,64.67900085449219 -39.55099868774414,62.20899963378906 -39.55099868774414,62.20899963378906 C-39.55099868774414,62.20899963378906 -75.1449966430664,112.7969970703125 -67.36299896240234,147.23699951171875 C-55.47200012207031,199.86399841308594 64.5530014038086,196.7259979248047 75.66200256347656,151.23699951171875 C85,113 44.928001403808594,64.67900085449219 44.928001403808594,64.67900085449219z"></path><path stroke-linecap="round" stroke-linejoin="round" fill-opacity="0" stroke="rgb(9,9,9)" stroke-opacity="1" stroke-width="8" d=" M44.928001403808594,64.67900085449219 C44.928001403808594,64.67900085449219 -39.55099868774414,62.20899963378906 -39.55099868774414,62.20899963378906 C-39.55099868774414,62.20899963378906 -75.1449966430664,112.7969970703125 -67.36299896240234,147.23699951171875 C-55.47200012207031,199.86399841308594 64.5530014038086,196.7259979248047 75.66200256347656,151.23699951171875 C85,113 44.928001403808594,64.67900085449219 44.928001403808594,64.67900085449219z"></path></g></g><g style="display: block;" transform="matrix(1,0,0,1,256,280.75)" opacity="1"><g opacity="1" transform="matrix(1,0,0,1,0,0)"><g opacity="1" transform="matrix(1,0,0,1,0,0)"><path fill="rgb(0,71,154)" fill-opacity="1" d=" M42.569000244140625,108.01799774169922 C42.569000244140625,108.01799774169922 -37.54899978637695,109.04000091552734 -37.54899978637695,109.04000091552734 C-42.21799850463867,110.13500213623047 -46.27399826049805,112.91600036621094 -46.887001037597656,115.45800018310547 C-47.5,118 -54,151.5 7,151.75 C58.255001068115234,151.9600067138672 52.737998962402344,114.3759994506836 52.737998962402344,114.3759994506836 C52.737998962402344,114.3759994506836 50.58000183105469,109.04000091552734 42.569000244140625,108.01799774169922z"></path><path stroke-linecap="round" stroke-linejoin="round" fill-opacity="0" stroke="rgb(0,71,154)" stroke-opacity="1" stroke-width="8" d=" M42.569000244140625,108.01799774169922 C42.569000244140625,108.01799774169922 -37.54899978637695,109.04000091552734 -37.54899978637695,109.04000091552734 C-42.21799850463867,110.13500213623047 -46.27399826049805,112.91600036621094 -46.887001037597656,115.45800018310547 C-47.5,118 -54,151.5 7,151.75 C58.255001068115234,151.9600067138672 52.737998962402344,114.3759994506836 52.737998962402344,114.3759994506836 C52.737998962402344,114.3759994506836 50.58000183105469,109.04000091552734 42.569000244140625,108.01799774169922z"></path></g></g><g opacity="1" transform="matrix(1,0,0,1,0,0)"><g opacity="1" transform="matrix(1,0,0,1,0,0)"><path fill="rgb(0,97,200)" fill-opacity="1" d=" M51.23899841308594,128.25100708007812 C51.23899841308594,128.25100708007812 51.23899841308594,128.072998046875 51.23899841308594,128.072998046875 C51.23899841308594,128.072998046875 -31.33799934387207,125.93900299072266 -43.79999923706055,128.07200622558594 C-43.79999923706055,128.07200622558594 -43.79999923706055,128.072998046875 -43.79999923706055,128.072998046875 C-93.85099792480469,130.82200622558594 -149.86399841308594,153.15499877929688 -154.54600524902344,223.447998046875 C-154.54600524902344,223.447998046875 -146.0679931640625,231.26300048828125 -117.77899932861328,231.26300048828125 C-117.77899932861328,231.26300048828125 123.6500015258789,231.26300048828125 123.6500015258789,231.26300048828125 C149.0489959716797,231.29600524902344 159.83099365234375,223.31700134277344 159.83099365234375,223.31700134277344 C156.38800048828125,147.822998046875 103.00700378417969,131.15499877929688 51.23899841308594,128.25100708007812z"></path></g><g opacity="1" transform="matrix(1,0,0,1,0,0)"><g opacity="1" transform="matrix(1,0,0,1,0,0)"><path fill="rgb(0,43,111)" fill-opacity="1" d=" M-149.86399841308594,216.25999450683594 C-149.86399841308594,216.25999450683594 -150.58099365234375,221.56500244140625 -151.03700256347656,225.06500244140625 C-151.03700256347656,225.06500244140625 -158.4510040283203,221.0030059814453 -157.8939971923828,216.4600067138672 C-157.8939971923828,216.4600067138672 -149.86399841308594,216.25999450683594 -149.86399841308594,216.25999450683594z"></path></g><g opacity="1" transform="matrix(1,0,0,1,0,0)"><path stroke-linecap="round" stroke-linejoin="round" fill-opacity="0" stroke="rgb(0,43,111)" stroke-opacity="1" stroke-width="8" d=" M-153.9600067138672,216.88900756835938 C-152.9239959716797,208.75100708007812 -149.1959991455078,185.57000732421875 -135.33900451660156,168.2429962158203 C-122.33899688720703,152.0030059814453 -90.5790023803711,136.072998046875 -43.79899978637695,128.072998046875"></path></g></g><g opacity="0.6" transform="matrix(1,0,0,1,0,0)"><path stroke-linecap="round" stroke-linejoin="round" fill-opacity="0" stroke="rgb(0,43,111)" stroke-opacity="1" stroke-width="5" d=" M-131.93600463867188,164.43600463867188 C-131.93600463867188,164.43600463867188 -130.6959991455078,192.1320037841797 -118.5250015258789,228.06500244140625"></path></g><g opacity="1" transform="matrix(1,0,0,1,0,0)"><g opacity="0.4" transform="matrix(1,0,0,1,0,0)"><path fill="rgb(0,43,111)" fill-opacity="1" d=" M50.2400016784668,128.072998046875 C97.0199966430664,136.072998046875 128.77999877929688,152.0030059814453 141.77999877929688,168.2429962158203 C154.02000427246094,183.55299377441406 158.16099548339844,209.92300415039062 159.83099365234375,222.9429931640625 C159.83099365234375,222.9429931640625 159.83099365234375,222.9429931640625 159.83099365234375,222.9429931640625 C159.83099365234375,222.9429931640625 156.77099609375,226.39300537109375 146.91099548339844,228.84300231933594 C145.29100036621094,216.43299865722656 140.1699981689453,191.04299926757812 131.52000427246094,180.30299377441406 C108.61000061035156,151.84300231933594 50.2400016784668,145.67300415039062 50.2400016784668,145.67300415039062 C50.2400016784668,145.67300415039062 -42.32500076293945,145.656005859375 -42.32500076293945,145.656005859375 C-42.32500076293945,145.656005859375 -102.16999816894531,151.84300231933594 -125.08000183105469,180.30299377441406 C-133.75999450683594,191.08299255371094 -138.88900756835938,216.6230010986328 -140.48899841308594,228.98300170898438 C-150.78900146484375,226.51300048828125 -153.9600067138672,222.9429931640625 -153.9600067138672,222.9429931640625 C-152.16000366210938,209.54299926757812 -147.25900268554688,183.14300537109375 -135.33900451660156,168.2429962158203 C-122.33899688720703,152.0030059814453 -90.5790023803711,136.072998046875 -43.79899978637695,128.072998046875 C-43.79899978637695,128.072998046875 50.2400016784668,128.072998046875 50.2400016784668,128.072998046875z"></path></g></g><g opacity="1" transform="matrix(1,0,0,1,0,0)"><g opacity="1" transform="matrix(1,0,0,1,0,0)"><path fill="rgb(0,43,111)" fill-opacity="1" d=" M156.38800048828125,216.25999450683594 C156.38800048828125,216.25999450683594 157.11399841308594,221.1719970703125 157.57000732421875,224.6719970703125 C157.57000732421875,224.6719970703125 165.0189971923828,221.0030059814453 164.46200561523438,216.4600067138672 C164.46200561523438,216.4600067138672 156.38800048828125,216.25999450683594 156.38800048828125,216.25999450683594z"></path></g><g opacity="1" transform="matrix(1,0,0,1,0,0)"><path stroke-linecap="round" stroke-linejoin="round" fill-opacity="0" stroke="rgb(0,43,111)" stroke-opacity="1" stroke-width="8" d=" M160.4810028076172,216.8249969482422 C159.6909942626953,210.11900329589844 156.23899841308594,186.32400512695312 141.7790069580078,168.2429962158203 C128.7790069580078,152.0030059814453 97.01899719238281,136.072998046875 50.23899841308594,128.072998046875"></path></g></g><g opacity="0.6" transform="matrix(1,0,0,1,0,0)"><path stroke-linecap="round" stroke-linejoin="round" fill-opacity="0" stroke="rgb(0,43,111)" stroke-opacity="1" stroke-width="5" d=" M138.375,164.43600463867188 C138.375,164.43600463867188 136.46099853515625,192.33200073242188 124.29000091552734,228.26499938964844"></path></g><g opacity="1" transform="matrix(1,0,0,1,0,0)"><g opacity="1" transform="matrix(1,0,0,1,0,0)"><path fill="rgb(243,170,130)" fill-opacity="1" d=" M-35.332000732421875,91.06600189208984 C-35.332000732421875,91.06600189208984 -45.63199996948242,141.92599487304688 -43.79899978637695,145.67300415039062 C-35.986000061035156,161.6510009765625 0.23499999940395355,202.07000732421875 9.73900032043457,202.07000732421875 C18.868999481201172,202.07000732421875 42.16299819946289,161.36500549316406 50.2400016784668,145.67300415039062 C52.07699966430664,142.10499572753906 41.07899856567383,90.90599822998047 41.07899856567383,90.90599822998047 C41.07899856567383,90.90599822998047 -35.332000732421875,91.06600189208984 -35.332000732421875,91.06600189208984z"></path></g><g opacity="0.3" transform="matrix(1,0,0,1,0,0)"><path fill="rgb(202,123,85)" fill-opacity="1" d=" M43.62699890136719,131.0760040283203 C29.625,146.406005859375 -24.325000762939453,144.95199584960938 -36.93899917602539,131.13900756835938 C-39.10599899291992,128.00399780273438 -34.95000076293945,94.65599822998047 -34.95000076293945,94.65599822998047 C-34.95000076293945,94.65599822998047 41.64400100708008,93.21600341796875 41.64400100708008,93.21600341796875 C41.64400100708008,93.21600341796875 45.91999816894531,127.82599639892578 43.62699890136719,131.0760040283203z"></path></g><g opacity="1" transform="matrix(1,0,0,1,0,0)"><path stroke-linecap="round" stroke-linejoin="round" fill-opacity="0" stroke="rgb(202,123,85)" stroke-opacity="1" stroke-width="8" d=" M47.56100082397461,133.08900451660156 C47.87099838256836,130.71499633789062 41.99599838256836,92.98100280761719 41.99599838256836,92.06600189208984 C41.99599838256836,92.06600189208984 39.99599838256836,92.06600189208984 39.99599838256836,92.06600189208984 C39.99599838256836,92.06600189208984 -35.332000732421875,91.06600189208984 -35.332000732421875,91.06600189208984 C-35.332000732421875,91.06600189208984 -41.08000183105469,129.7469940185547 -40.722999572753906,132.3699951171875"></path></g></g></g></g><g style="display: block;" transform="matrix(1,0,0,1,256,280.75)" opacity="1"><g opacity="1" transform="matrix(1,0,0,1,0,0)"><path fill="rgb(0,119,220)" fill-opacity="1" d=" M-98.87899780273438,231.26300048828125 C-98.87899780273438,231.26300048828125 -98.87899780273438,212.1529998779297 -98.87899780273438,212.1529998779297 C-98.87899780273438,212.1529998779297 -42.52399826049805,212.1529998779297 -42.52399826049805,212.1529998779297 C-42.52399826049805,212.1529998779297 -42.52399826049805,231.26300048828125 -42.52399826049805,231.26300048828125 C-42.52399826049805,231.26300048828125 -98.87899780273438,231.26300048828125 -98.87899780273438,231.26300048828125z"></path></g><g opacity="1" transform="matrix(1,0,0,1,0,0)"><path stroke-linecap="round" stroke-linejoin="round" fill-opacity="0" stroke="rgb(0,71,154)" stroke-opacity="1" stroke-width="5" d=" M-98.87899780273438,228.74000549316406 C-98.87899780273438,228.74000549316406 -98.87899780273438,212.1529998779297 -98.87899780273438,212.1529998779297 C-98.87899780273438,212.1529998779297 -42.52399826049805,212.1529998779297 -42.52399826049805,212.1529998779297 C-42.52399826049805,212.1529998779297 -42.52399826049805,228.74000549316406 -42.52399826049805,228.74000549316406"></path></g><g opacity="1" transform="matrix(1,0,0,1,0,0)"><path fill="rgb(0,145,255)" fill-opacity="1" d=" M-70.7020034790039,202.52000427246094 C-70.7020034790039,202.52000427246094 -101.15799713134766,202.52000427246094 -101.15799713134766,202.52000427246094 C-101.86900329589844,202.52000427246094 -102.44599914550781,203.0970001220703 -102.44599914550781,203.80799865722656 C-102.44599914550781,203.80799865722656 -102.44599914550781,216.92100524902344 -102.44599914550781,216.92100524902344 C-102.44599914550781,217.71200561523438 -101.74400329589844,218.31399536132812 -100.96199798583984,218.19400024414062 C-96.97599792480469,217.58099365234375 -86.625,215.89199829101562 -78.8280029296875,220.66299438476562 C-77.28199768066406,221.60899353027344 -76.04199981689453,222.91700744628906 -74.71399688720703,223.83200073242188 C-72.28399658203125,225.50599670410156 -69.0790023803711,225.51800537109375 -66.65599822998047,223.83299255371094 C-65.36100006103516,222.93299865722656 -64.08599853515625,221.71499633789062 -62.57500076293945,220.66299438476562 C-55.720001220703125,215.89199829101562 -44.426998138427734,217.58099365234375 -40.441001892089844,218.19400024414062 C-39.659000396728516,218.31399536132812 -38.95800018310547,217.71200561523438 -38.95800018310547,216.92100524902344 C-38.95800018310547,216.92100524902344 -38.95800018310547,203.80799865722656 -38.95800018310547,203.80799865722656 C-38.95800018310547,203.0970001220703 -39.53499984741211,202.52000427246094 -40.24599838256836,202.52000427246094 C-40.24599838256836,202.52000427246094 -70.7020034790039,202.52000427246094 -70.7020034790039,202.52000427246094z"></path><path stroke-linecap="round" stroke-linejoin="round" fill-opacity="0" stroke="rgb(0,71,154)" stroke-opacity="1" stroke-width="5" d=" M-70.7020034790039,202.52000427246094 C-70.7020034790039,202.52000427246094 -101.15799713134766,202.52000427246094 -101.15799713134766,202.52000427246094 C-101.86900329589844,202.52000427246094 -102.44599914550781,203.0970001220703 -102.44599914550781,203.80799865722656 C-102.44599914550781,203.80799865722656 -102.44599914550781,216.92100524902344 -102.44599914550781,216.92100524902344 C-102.44599914550781,217.71200561523438 -101.74400329589844,218.31399536132812 -100.96199798583984,218.19400024414062 C-96.97599792480469,217.58099365234375 -86.625,215.89199829101562 -78.8280029296875,220.66299438476562 C-77.28199768066406,221.60899353027344 -76.04199981689453,222.91700744628906 -74.71399688720703,223.83200073242188 C-72.28399658203125,225.50599670410156 -69.0790023803711,225.51800537109375 -66.65599822998047,223.83299255371094 C-65.36100006103516,222.93299865722656 -64.08599853515625,221.71499633789062 -62.57500076293945,220.66299438476562 C-55.720001220703125,215.89199829101562 -44.426998138427734,217.58099365234375 -40.441001892089844,218.19400024414062 C-39.659000396728516,218.31399536132812 -38.95800018310547,217.71200561523438 -38.95800018310547,216.92100524902344 C-38.95800018310547,216.92100524902344 -38.95800018310547,203.80799865722656 -38.95800018310547,203.80799865722656 C-38.95800018310547,203.0970001220703 -39.53499984741211,202.52000427246094 -40.24599838256836,202.52000427246094 C-40.24599838256836,202.52000427246094 -70.7020034790039,202.52000427246094 -70.7020034790039,202.52000427246094z"></path></g><g opacity="1" transform="matrix(1,0,0,1,0,0)"><g opacity="1" transform="matrix(1,0,0,1,0,0)"><path stroke-linecap="butt" stroke-linejoin="miter" fill-opacity="0" stroke-miterlimit="10" stroke="rgb(224,163,52)" stroke-opacity="1" stroke-width="8" d=" M-102.44599914550781,189.32899475097656 C-102.44599914550781,189.32899475097656 -68.18699645996094,189.32899475097656 -68.18699645996094,189.32899475097656"></path></g><g opacity="1" transform="matrix(1,0,0,1,0,0)"><path stroke-linecap="butt" stroke-linejoin="miter" fill-opacity="0" stroke-miterlimit="10" stroke="rgb(255,207,15)" stroke-opacity="1" stroke-width="5" d=" M-102.44599914550781,187.23300170898438 C-102.44599914550781,187.23300170898438 -68.18699645996094,187.23300170898438 -68.18699645996094,187.23300170898438"></path></g></g><g opacity="1" transform="matrix(1,0,0,1,0,0)"><g opacity="1" transform="matrix(1,0,0,1,0,0)"><path fill="rgb(241,220,0)" fill-opacity="1" d=" M117.37899780273438,193.76100158691406 C113.13600158691406,189.4239959716797 125.05000305175781,175.02999877929688 109.58799743652344,177.38400268554688 C104.83000183105469,178.10800170898438 94.25499725341797,178.07200622558594 89.50499725341797,177.2969970703125 C77.13700103759766,175.27999877929688 86.91899871826172,187.531005859375 81.88400268554688,193.76100158691406 C78.07099914550781,198.47999572753906 74.02999877929688,206.38800048828125 80.70999908447266,214.8040008544922 C83.7249984741211,218.60299682617188 97.74199676513672,225.53500366210938 99.63200378417969,225.53500366210938 C101.53900146484375,225.53500366210938 115.65299987792969,218.45799255371094 118.5530014038086,214.8040008544922 C125.23300170898438,206.38800048828125 121.62200164794922,198.09800720214844 117.37899780273438,193.76100158691406z"></path></g><g opacity="1" transform="matrix(1,0,0,1,0,0)"><path fill="rgb(255,247,126)" fill-opacity="1" d=" M109.21299743652344,194.05099487304688 C107.79000091552734,191.77099609375 105.0479965209961,188.85299682617188 106.59500122070312,185.57400512695312 C108.14600372314453,182.28500366210938 108.08699798583984,182.61399841308594 105.01899719238281,183.32000732421875 C102.26599884033203,183.9530029296875 96.00399780273438,183.8000030517578 93.62699890136719,183.31700134277344 C90.54199981689453,182.6909942626953 90.51200103759766,182.28399658203125 92.06199645996094,185.57400512695312 C93.8010025024414,189.26400756835938 91.01899719238281,191.73199462890625 89.73400115966797,193.70799255371094 C87.76499938964844,196.73500061035156 83.18099975585938,203.11599731445312 87.15699768066406,208.125 C88.9520034790039,210.38600158691406 98.28700256347656,214.6020050048828 99.41200256347656,214.6020050048828 C100.5469970703125,214.6020050048828 110.46499633789062,210.3000030517578 112.19100189208984,208.125 C116.16699981689453,203.11599731445312 111.1259994506836,197.11399841308594 109.21299743652344,194.05099487304688z"></path></g><g opacity="1" transform="matrix(1,0,0,1,0,0)"><path fill="rgb(222,191,0)" fill-opacity="1" d=" M100.51599884033203,193.53199768066406 C100.51599884033203,193.53199768066406 102.00199890136719,196.54299926757812 102.00199890136719,196.54299926757812 C102.14600372314453,196.83399963378906 102.42400360107422,197.03599548339844 102.74500274658203,197.08299255371094 C102.74500274658203,197.08299255371094 106.06800079345703,197.5659942626953 106.06800079345703,197.5659942626953 C106.87699890136719,197.6840057373047 107.19999694824219,198.677001953125 106.61499786376953,199.2480010986328 C106.61499786376953,199.2480010986328 104.20999908447266,201.5919952392578 104.20999908447266,201.5919952392578 C103.97799682617188,201.81900024414062 103.87100219726562,202.14500427246094 103.9260025024414,202.46499633789062 C103.9260025024414,202.46499633789062 104.49400329589844,205.7740020751953 104.49400329589844,205.7740020751953 C104.63200378417969,206.5800018310547 103.78700256347656,207.19400024414062 103.06300354003906,206.81399536132812 C103.06300354003906,206.81399536132812 100.09100341796875,205.2519989013672 100.09100341796875,205.2519989013672 C99.80400085449219,205.1009979248047 99.45999908447266,205.1009979248047 99.1729965209961,205.2519989013672 C99.1729965209961,205.2519989013672 96.20099639892578,206.81399536132812 96.20099639892578,206.81399536132812 C95.47699737548828,207.19400024414062 94.63099670410156,206.5800018310547 94.76899719238281,205.7740020751953 C94.76899719238281,205.7740020751953 95.33699798583984,202.46499633789062 95.33699798583984,202.46499633789062 C95.39199829101562,202.14500427246094 95.28500366210938,201.81900024414062 95.0530014038086,201.5919952392578 C95.0530014038086,201.5919952392578 92.64900207519531,199.2480010986328 92.64900207519531,199.2480010986328 C92.06400299072266,198.677001953125 92.38700103759766,197.6840057373047 93.19599914550781,197.5659942626953 C93.19599914550781,197.5659942626953 96.51799774169922,197.08299255371094 96.51799774169922,197.08299255371094 C96.83899688720703,197.03599548339844 97.11699676513672,196.83399963378906 97.26100158691406,196.54299926757812 C97.26100158691406,196.54299926757812 98.74700164794922,193.53199768066406 98.74700164794922,193.53199768066406 C99.10900115966797,192.7989959716797 100.15399932861328,192.7989959716797 100.51599884033203,193.53199768066406z"></path></g><g opacity="0.5" transform="matrix(1,0,0,1,0,0)"><path fill="rgb(255,255,255)" fill-opacity="1" d=" M102.2040023803711,177.38400268554688 C102.2040023803711,177.38400268554688 80.70999908447266,214.8040008544922 80.70999908447266,214.8040008544922 C80.70999908447266,214.8040008544922 86.822998046875,219.20700073242188 86.822998046875,219.20700073242188 C86.822998046875,219.20700073242188 111.58799743652344,177.38400268554688 111.58799743652344,177.38400268554688 C111.58799743652344,177.38400268554688 102.2040023803711,177.38400268554688 102.2040023803711,177.38400268554688z"></path></g><g opacity="0.5" transform="matrix(1,0,0,1,0,0)"><path fill="rgb(255,255,255)" fill-opacity="1" d=" M114.42900085449219,180.14500427246094 C114.42900085449219,180.14500427246094 91.58499908447266,219.91400146484375 91.58499908447266,219.91400146484375 C91.58499908447266,219.91400146484375 94.1989974975586,222.31399536132812 94.1989974975586,222.31399536132812 C94.1989974975586,222.31399536132812 113.6780014038086,189.41900634765625 113.6780014038086,189.41900634765625 C113.6780014038086,189.41900634765625 114.42900085449219,180.14500427246094 114.42900085449219,180.14500427246094z"></path></g><g opacity="1" transform="matrix(1,0,0,1,0,0)"><path stroke-linecap="round" stroke-linejoin="round" fill-opacity="0" stroke="rgb(195,162,0)" stroke-opacity="1" stroke-width="5" d=" M117.37899780273438,193.76100158691406 C114.4280014038086,190.322998046875 114.65799713134766,187.63400268554688 116.41600036621094,184.90499877929688 C120.92500305175781,177.90499877929688 114.48999786376953,175.78799438476562 110.42500305175781,177.38400268554688 C105.94499969482422,179.14199829101562 94.03500366210938,178.9219970703125 89.50499725341797,177.2969970703125 C84.5270004272461,175.51100158691406 80.76300048828125,179.50399780273438 83.87899780273438,184.3209991455078 C86.52200317382812,188.40699768066406 83.8010025024414,190.70700073242188 81.88400268554688,193.76100158691406 C78.65799713134766,198.89999389648438 74.02999877929688,206.38800048828125 80.70999908447266,214.8040008544922 C83.7249984741211,218.60299682617188 87.99600219726562,220.1790008544922 91.92400360107422,221.73399353027344 C94.93299865722656,222.92599487304688 97.74199676513672,225.53500366210938 99.63200378417969,225.53500366210938 C101.53900146484375,225.53500366210938 104.52799987792969,222.86700439453125 107.72200012207031,221.55099487304688 C111.54199981689453,219.9770050048828 115.65299987792969,218.45799255371094 118.5530014038086,214.8040008544922 C125.23300170898438,206.38800048828125 121.33000183105469,198.36500549316406 117.37899780273438,193.76100158691406z"></path></g><g opacity="0.23" transform="matrix(1,0,0,1,0,0)"><path stroke-linecap="round" stroke-linejoin="round" fill-opacity="0" stroke="rgb(255,247,126)" stroke-opacity="1" stroke-width="5" d=" M86.91899871826172,176.7100067138672 C86.91899871826172,176.7100067138672 82.76300048828125,177.48899841308594 82.76300048828125,182.29800415039062"></path></g></g><g opacity="1" transform="matrix(1,0,0,1,0,0)"><g opacity="1" transform="matrix(1,0,0,1,0,0)"><path fill="rgb(223,228,234)" fill-opacity="1" d=" M-139.75,189.32899475097656 C-139.75,189.32899475097656 -144.80599975585938,199.95899963378906 -148.0229949951172,224.55599975585938 C-148.0229949951172,224.55599975585938 -155.677001953125,221.4949951171875 -157.8939971923828,217.41700744628906 C-157.8939971923828,217.41700744628906 -157.9239959716797,204.0500030517578 -148.93899536132812,182.84500122070312 C-148.93899536132812,182.84500122070312 -145.5050048828125,187.23300170898438 -139.75,189.32899475097656z"></path></g><g opacity="1" transform="matrix(1,0,0,1,0,0)"><path stroke-linecap="round" stroke-linejoin="round" fill-opacity="0" stroke="rgb(185,102,128)" stroke-opacity="1" stroke-width="5" d=" M-156.2480010986328,205.4149932861328 C-156.2480010986328,205.4149932861328 -152.9239959716797,210.67599487304688 -146.0679931640625,212.19000244140625"></path></g><g opacity="1" transform="matrix(1,0,0,1,0,0)"><path stroke-linecap="round" stroke-linejoin="round" fill-opacity="0" stroke="rgb(185,102,128)" stroke-opacity="1" stroke-width="5" d=" M-157.60699462890625,214.22000122070312 C-157.60699462890625,214.22000122070312 -154.54600524902344,218.31399536132812 -147.3979949951172,220.09300231933594"></path></g><g opacity="1" transform="matrix(1,0,0,1,0,0)"><path fill="rgb(45,115,182)" fill-opacity="1" d=" M-139.7530059814453,189.33399963378906 C-139.7530059814453,189.33399963378906 -142.18699645996094,195.51100158691406 -144.64700317382812,206.1009979248047 C-151.15899658203125,205.01300048828125 -154.54600524902344,199.67799377441406 -154.54600524902344,199.67799377441406 C-153.2259979248047,194.71800231933594 -152.30299377441406,190.79800415039062 -149.46299743652344,184.09800720214844 C-149.46299743652344,184.09800720214844 -145.5030059814453,187.23399353027344 -139.7530059814453,189.33399963378906z"></path></g><g opacity="1" transform="matrix(1,0,0,1,0,0)"><path stroke-linecap="round" stroke-linejoin="round" fill-opacity="0" stroke="rgb(79,103,69)" stroke-opacity="1" stroke-width="5" d=" M-139.75,189.32899475097656 C-139.75,189.32899475097656 -144.80599975585938,199.95899963378906 -148.0229949951172,224.55599975585938 C-148.0229949951172,224.55599975585938 -155.677001953125,221.4949951171875 -157.8939971923828,217.41700744628906 C-157.8939971923828,217.41700744628906 -158.447998046875,205.30299377441406 -149.46299743652344,184.09800720214844 C-149.46299743652344,184.09800720214844 -147.3979949951172,187.23300170898438 -139.75,189.32899475097656z"></path></g><g opacity="1" transform="matrix(1,0,0,1,0,0)"><path stroke-linecap="round" stroke-linejoin="round" fill-opacity="0" stroke="rgb(185,210,62)" stroke-opacity="1" stroke-width="5" d=" M-149.46299743652344,184.09800720214844 C-149.46299743652344,184.09800720214844 -147.3979949951172,187.23300170898438 -139.75,189.32899475097656 C-139.75,189.32899475097656 -144.80599975585938,199.95899963378906 -148.0229949951172,224.55599975585938"></path></g></g></g><g style="display: block;" transform="matrix(1,0,0,1,256,280.75)" opacity="1"><g opacity="1" transform="matrix(1,0,0,1,0,0)"><g opacity="1" transform="matrix(1,0,0,1,0,0)"><path fill="rgb(0,105,204)" fill-opacity="1" d=" M-74.70800018310547,134.10800170898438 C-74.70800018310547,134.10800170898438 -79.8270034790039,151.75399780273438 -83.08599853515625,153.70899963378906 C-86.34500122070312,155.66400146484375 -108.3270034790039,163.32400512695312 -130.0489959716797,181.15499877929688 C-130.0489959716797,181.15499877929688 -133.7949981689453,168.37100219726562 -128.42300415039062,159.093994140625 C-128.42300415039062,159.093994140625 -113.91899871826172,143.24000549316406 -94.27300262451172,136.29600524902344 C-86.51300048828125,133.55299377441406 -74.70800018310547,134.10800170898438 -74.70800018310547,134.10800170898438z"></path><path stroke-linecap="round" stroke-linejoin="round" fill-opacity="0" stroke="rgb(0,43,111)" stroke-opacity="1" stroke-width="5" d=" M-74.70800018310547,134.10800170898438 C-74.70800018310547,134.10800170898438 -79.8270034790039,151.75399780273438 -83.08599853515625,153.70899963378906 C-86.34500122070312,155.66400146484375 -108.3270034790039,163.32400512695312 -130.0489959716797,181.15499877929688 C-130.0489959716797,181.15499877929688 -133.7949981689453,168.37100219726562 -128.42300415039062,159.093994140625 C-128.42300415039062,159.093994140625 -113.91899871826172,143.24000549316406 -94.27300262451172,136.29600524902344 C-86.51300048828125,133.55299377441406 -74.70800018310547,134.10800170898438 -74.70800018310547,134.10800170898438z"></path></g><g opacity="0.4" transform="matrix(1,0,0,1,0,0)"><path fill="rgb(0,43,111)" fill-opacity="1" d=" M-75.74600219726562,137.48599243164062 C-121.43000030517578,150.3560028076172 -130.05299377441406,181.1540069580078 -130.05299377441406,181.1540069580078 C-130.05299377441406,181.1540069580078 -133.79299926757812,168.37399291992188 -128.42300415039062,159.093994140625 C-109.16300201416016,137.90899658203125 -78.19999694824219,128.07400512695312 -75.74600219726562,137.48599243164062z"></path></g><g opacity="1" transform="matrix(1,0,0,1,0,0)"><path fill="rgb(0,36,84)" fill-opacity="1" d=" M-86.01499938964844,141.5070037841797 C-85.18599700927734,143.58799743652344 -88.02100372314453,146.67300415039062 -92.3479995727539,148.3979949951172 C-96.67500305175781,150.1230010986328 -100.85600280761719,149.8350067138672 -101.68499755859375,147.75399780273438 C-102.51399993896484,145.67300415039062 -99.67900085449219,142.58799743652344 -95.35199737548828,140.86300659179688 C-91.0250015258789,139.13800048828125 -86.84400177001953,139.42599487304688 -86.01499938964844,141.5070037841797z"></path></g></g><g opacity="1" transform="matrix(1,0,0,1,0,0)"><g opacity="1" transform="matrix(1,0,0,1,0,0)"><path fill="rgb(0,105,204)" fill-opacity="1" d=" M80.76300048828125,133.5290069580078 C80.76300048828125,133.5290069580078 85.88200378417969,151.1750030517578 89.14099884033203,153.1300048828125 C92.4000015258789,155.0850067138672 114.38200378417969,162.7449951171875 136.10400390625,180.5760040283203 C136.10400390625,180.5760040283203 139.85000610351562,167.79200744628906 134.47799682617188,158.51499938964844 C134.47799682617188,158.51499938964844 119.9739990234375,142.66200256347656 100.3280029296875,135.71800231933594 C92.56800079345703,132.97500610351562 80.76300048828125,133.5290069580078 80.76300048828125,133.5290069580078z"></path><path stroke-linecap="round" stroke-linejoin="round" fill-opacity="0" stroke="rgb(0,43,111)" stroke-opacity="1" stroke-width="5" d=" M80.76300048828125,133.5290069580078 C80.76300048828125,133.5290069580078 85.88200378417969,151.1750030517578 89.14099884033203,153.1300048828125 C92.4000015258789,155.0850067138672 114.38200378417969,162.7449951171875 136.10400390625,180.5760040283203 C136.10400390625,180.5760040283203 139.85000610351562,167.79200744628906 134.47799682617188,158.51499938964844 C134.47799682617188,158.51499938964844 119.9739990234375,142.66200256347656 100.3280029296875,135.71800231933594 C92.56800079345703,132.97500610351562 80.76300048828125,133.5290069580078 80.76300048828125,133.5290069580078z"></path></g><g opacity="0.4" transform="matrix(1,0,0,1,0,0)"><path fill="rgb(0,43,111)" fill-opacity="1" d=" M81.8010025024414,136.90699768066406 C127.48500061035156,149.77699279785156 136.10800170898438,180.5749969482422 136.10800170898438,180.5749969482422 C136.10800170898438,180.5749969482422 139.84800720214844,167.7949981689453 134.47799682617188,158.51499938964844 C121.06400299072266,138.66400146484375 87.92500305175781,128.07400512695312 81.8010025024414,136.90699768066406z"></path></g><g opacity="1" transform="matrix(1,0,0,1,0,0)"><path fill="rgb(0,36,84)" fill-opacity="1" d=" M92.06999969482422,140.92799377441406 C91.24099731445312,143.00900268554688 94.07599639892578,146.093994140625 98.40299987792969,147.81900024414062 C102.7300033569336,149.54400634765625 106.91100311279297,149.25599670410156 107.73999786376953,147.1750030517578 C108.56900024414062,145.093994140625 105.73400115966797,142.00900268554688 101.40699768066406,140.28399658203125 C97.08000183105469,138.5590057373047 92.89900207519531,138.8470001220703 92.06999969482422,140.92799377441406z"></path></g></g></g><g style="display: block;" transform="matrix(1,0,0,1,256,280.75)" opacity="1"><g opacity="1" transform="matrix(1,0,0,1,0,0)"><g opacity="0.6" transform="matrix(1,0,0,1,0,0)"><g opacity="1" transform="matrix(1,0,0,1,0,0)"><path fill="rgb(0,71,154)" fill-opacity="1" d=" M23.889999389648438,228.6439971923828 C23.889999389648438,228.6439971923828 23.889999389648438,190.68600463867188 23.889999389648438,190.68600463867188 C23.889999389648438,190.68600463867188 2.4749999046325684,208.9320068359375 2.4749999046325684,208.9320068359375 C2.4749999046325684,208.9320068359375 2.4749999046325684,228.6439971923828 2.4749999046325684,228.6439971923828"></path><path stroke-linecap="round" stroke-linejoin="round" fill-opacity="0" stroke="rgb(0,43,111)" stroke-opacity="1" stroke-width="5" d=" M23.889999389648438,228.6439971923828 C23.889999389648438,228.6439971923828 23.889999389648438,190.68600463867188 23.889999389648438,190.68600463867188 C23.889999389648438,190.68600463867188 2.4749999046325684,208.9320068359375 2.4749999046325684,208.9320068359375 C2.4749999046325684,208.9320068359375 2.4749999046325684,228.6439971923828 2.4749999046325684,228.6439971923828"></path></g></g><g opacity="1" transform="matrix(1,0,0,1,0,0)"><path fill="rgb(0,36,84)" fill-opacity="1" d=" M19.070999145507812,224.93800354003906 C19.070999145507812,228.19000244140625 16.434999465942383,230.8260040283203 13.182999610900879,230.8260040283203 C9.930999755859375,230.8260040283203 7.294000148773193,228.19000244140625 7.294000148773193,224.93800354003906 C7.294000148773193,221.68600463867188 9.930999755859375,219.0489959716797 13.182999610900879,219.0489959716797 C16.434999465942383,219.0489959716797 19.070999145507812,221.68600463867188 19.070999145507812,224.93800354003906z"></path></g></g></g><g style="display: block;" transform="matrix(1,0,0,1,256,280.75)" opacity="1"><g opacity="1" transform="matrix(1,0,0,1,0,0)"><g opacity="1" transform="matrix(1,0,0,1,0,0)"><path fill="rgb(0,145,255)" fill-opacity="1" d=" M-46.88800048828125,115.45800018310547 C-40.7400016784668,142.04200744628906 0.5080000162124634,179.19400024414062 7.382999897003174,194.06100463867188 C7.382999897003174,194.06100463867188 3.989000082015991,204.72900390625 3.989000082015991,204.72900390625 C-6.570000171661377,194.25799560546875 -21.80500030517578,186.67300415039062 -21.80500030517578,186.67300415039062 C-21.80500030517578,186.67300415039062 -24.382999420166016,175.04400634765625 -24.382999420166016,175.04400634765625 C-24.382999420166016,175.04400634765625 -42.97200012207031,178.66799926757812 -59.91999816894531,194.25 C-59.91999816894531,194.25 -63.49399948120117,164.36399841308594 -58.32500076293945,134.12399291992188 C-57.18600082397461,127.45800018310547 -46.88800048828125,115.45800018310547 -46.88800048828125,115.45800018310547z"></path><path stroke-linecap="round" stroke-linejoin="round" fill-opacity="0" stroke="rgb(0,71,154)" stroke-opacity="1" stroke-width="8" d=" M-46.88800048828125,115.45800018310547 C-40.7400016784668,142.04200744628906 0.5080000162124634,179.19400024414062 7.382999897003174,194.06100463867188 C7.382999897003174,194.06100463867188 3.989000082015991,204.72900390625 3.989000082015991,204.72900390625 C-6.570000171661377,194.25799560546875 -21.80500030517578,186.67300415039062 -21.80500030517578,186.67300415039062 C-21.80500030517578,186.67300415039062 -24.382999420166016,175.04400634765625 -24.382999420166016,175.04400634765625 C-24.382999420166016,175.04400634765625 -42.97200012207031,178.66799926757812 -59.91999816894531,194.25 C-59.91999816894531,194.25 -63.49399948120117,164.36399841308594 -58.32500076293945,134.12399291992188 C-57.18600082397461,127.45800018310547 -46.88800048828125,115.45800018310547 -46.88800048828125,115.45800018310547z"></path></g><g opacity="0.8" transform="matrix(1,0,0,1,0,0)"><path stroke-linecap="round" stroke-linejoin="round" fill-opacity="0" stroke="rgb(0,43,111)" stroke-opacity="1" stroke-width="8" d=" M3.989000082015991,204.72900390625 C-6.570000171661377,194.25799560546875 -21.80500030517578,186.67300415039062 -21.80500030517578,186.67300415039062 C-21.80500030517578,186.67300415039062 -24.382999420166016,175.04400634765625 -24.382999420166016,175.04400634765625 C-24.382999420166016,175.04400634765625 -42.97200012207031,178.66799926757812 -59.91999816894531,194.25"></path></g><g opacity="0.4" transform="matrix(1,0,0,1,0,0)"><path fill="rgb(0,71,154)" fill-opacity="1" d=" M-57.71699905395508,170.65199279785156 C-57.71699905395508,170.65199279785156 -45.68600082397461,140.74099731445312 -35.659000396728516,145.906005859375 C-35.659000396728516,145.906005859375 -46.887001037597656,115.45800018310547 -46.887001037597656,115.45800018310547 C-46.887001037597656,115.45800018310547 -57.71699905395508,131.9600067138672 -57.71699905395508,131.9600067138672 C-57.71699905395508,131.9600067138672 -57.71699905395508,170.65199279785156 -57.71699905395508,170.65199279785156z"></path></g></g><g opacity="1" transform="matrix(1,0,0,1,0,0)"><g opacity="1" transform="matrix(1,0,0,1,0,0)"><path fill="rgb(0,145,255)" fill-opacity="1" d=" M3.989000082015991,208.9320068359375 C3.989000082015991,208.9320068359375 5.960000038146973,194.66600036621094 11.664999961853027,183.76100158691406 C14.342000007629395,178.6439971923828 51.507999420166016,141.15499877929688 52.737998962402344,114.3759994506836 C52.737998962402344,114.3759994506836 60.507999420166016,130.00399780273438 63.152000427246094,137.54600524902344 C64.7770004272461,142.1820068359375 68.73600006103516,164.43499755859375 68.65399932861328,194.01699829101562 C68.65399932861328,194.01699829101562 53.73899841308594,178.5279998779297 34.20500183105469,172.4810028076172 C34.20500183105469,172.4810028076172 33.229000091552734,186.4709930419922 33.229000091552734,186.4709930419922 C33.229000091552734,186.4709930419922 19.06100082397461,193.07000732421875 3.989000082015991,208.9320068359375z"></path><path stroke-linecap="round" stroke-linejoin="round" fill-opacity="0" stroke="rgb(0,71,154)" stroke-opacity="1" stroke-width="8" d=" M3.989000082015991,208.9320068359375 C3.989000082015991,208.9320068359375 5.960000038146973,194.66600036621094 11.664999961853027,183.76100158691406 C14.342000007629395,178.6439971923828 51.507999420166016,141.15499877929688 52.737998962402344,114.3759994506836 C52.737998962402344,114.3759994506836 60.507999420166016,130.00399780273438 63.152000427246094,137.54600524902344 C64.7770004272461,142.1820068359375 68.73600006103516,164.43499755859375 68.65399932861328,194.01699829101562 C68.65399932861328,194.01699829101562 53.73899841308594,178.5279998779297 34.20500183105469,172.4810028076172 C34.20500183105469,172.4810028076172 33.229000091552734,186.4709930419922 33.229000091552734,186.4709930419922 C33.229000091552734,186.4709930419922 19.06100082397461,193.07000732421875 3.989000082015991,208.9320068359375z"></path></g><g opacity="0.8" transform="matrix(1,0,0,1,0,0)"><path stroke-linecap="round" stroke-linejoin="round" fill-opacity="0" stroke="rgb(0,43,111)" stroke-opacity="1" stroke-width="8" d=" M68.65399932861328,194.01699829101562 C68.65399932861328,194.01699829101562 53.73899841308594,178.5279998779297 34.20500183105469,172.4810028076172 C34.20500183105469,172.4810028076172 33.229000091552734,186.4709930419922 33.229000091552734,186.4709930419922 C33.229000091552734,186.4709930419922 19.06100082397461,193.07000732421875 3.989000082015991,208.9320068359375"></path></g><g opacity="0.4" transform="matrix(1,0,0,1,0,0)"><path fill="rgb(0,71,154)" fill-opacity="1" d=" M41.07899856567383,150.2449951171875 C41.07899856567383,150.2449951171875 44.14799880981445,146.11900329589844 49.80699920654297,149.40199279785156 C61.262001037597656,156.04800415039062 64.06600189208984,172.4810028076172 64.06600189208984,172.4810028076172 C67.05799865722656,153.73800659179688 63.529998779296875,135.3679962158203 52.571998596191406,117.4219970703125 C52.571998596191406,117.4219970703125 41.07899856567383,150.2449951171875 41.07899856567383,150.2449951171875z"></path></g></g></g><g style="display: block;" transform="matrix(1,0,0,1,256,280.75)" opacity="1"><g opacity="1" transform="matrix(1,0,0,1,0,0)"><path fill="rgb(248,176,131)" fill-opacity="1" d=" M-111.76699829101562,-40.81399917602539 C-111.76699829101562,-40.81399917602539 -123.31199645996094,-40.88199996948242 -125.0739974975586,-25.385000228881836 C-126.44200134277344,-13.348999977111816 -118.99199676513672,25.340999603271484 -103.51300048828125,22.10300064086914 C-82.83899688720703,17.77899932861328 -100.07499694824219,-43.775001525878906 -111.76699829101562,-40.81399917602539z"></path><path stroke-linecap="round" stroke-linejoin="round" fill-opacity="0" stroke="rgb(202,123,85)" stroke-opacity="1" stroke-width="8" d=" M-111.76699829101562,-40.81399917602539 C-111.76699829101562,-40.81399917602539 -123.31199645996094,-40.88199996948242 -125.0739974975586,-25.385000228881836 C-126.44200134277344,-13.348999977111816 -118.99199676513672,25.340999603271484 -103.51300048828125,22.10300064086914 C-82.83899688720703,17.77899932861328 -100.07499694824219,-43.775001525878906 -111.76699829101562,-40.81399917602539z"></path></g><g opacity="1" transform="matrix(1,0,0,1,0,0)"><path fill="rgb(248,176,131)" fill-opacity="1" d=" M118.69300079345703,-40.79899978637695 C118.69300079345703,-40.79899978637695 130.23800659179688,-40.86600112915039 132,-25.368999481201172 C133.3679962158203,-13.333000183105469 126.0199966430664,24.823999404907227 110.43900299072266,22.118999481201172 C91.26899719238281,18.790000915527344 105.34100341796875,-41.678001403808594 118.69300079345703,-40.79899978637695z"></path><path stroke-linecap="round" stroke-linejoin="round" fill-opacity="0" stroke="rgb(202,123,85)" stroke-opacity="1" stroke-width="8" d=" M118.69300079345703,-40.79899978637695 C118.69300079345703,-40.79899978637695 130.23800659179688,-40.86600112915039 132,-25.368999481201172 C133.3679962158203,-13.333000183105469 126.0199966430664,24.823999404907227 110.43900299072266,22.118999481201172 C91.26899719238281,18.790000915527344 105.34100341796875,-41.678001403808594 118.69300079345703,-40.79899978637695z"></path></g></g><g style="display: block;" transform="matrix(1,0,0,1,256,280.75)" opacity="1"><g opacity="1" transform="matrix(1,0,0,1,0,0)"><path fill="rgb(245,181,136)" fill-opacity="1" d=" M94.2020034790039,-122.3010025024414 C73.04199981689453,-151.68899536132812 -66.4530029296875,-151.68899536132812 -87.61199951171875,-122.3010025024414 C-108.77200317382812,-92.91300201416016 -126.40399932861328,-24.381000518798828 -98.77899932861328,33.220001220703125 C-71.15499877929688,90.82099914550781 -24.485000610351562,109.04000091552734 3.2950000762939453,109.04000091552734 C31.075000762939453,109.04000091552734 77.74400329589844,90.82099914550781 105.36900329589844,33.220001220703125 C132.9929962158203,-24.381000518798828 115.36100006103516,-92.91300201416016 94.2020034790039,-122.3010025024414z"></path></g><g opacity="1" transform="matrix(1,0,0,1,0,0)"><path fill="rgb(255,205,166)" fill-opacity="1" d=" M87.11399841308594,-61.064998626708984 C75.93299865722656,-67.40799713134766 54.042999267578125,-47.81700134277344 1,-47.858001708984375 C-43.79999923706055,-47.893001556396484 -74.26499938964844,-68.22200012207031 -82.61499786376953,-59.064998626708984 C-98.4469985961914,-41.70199966430664 -101.28500366210938,3.552999973297119 -78.7969970703125,40.887001037597656 C-56.310001373291016,78.22100067138672 -19.319000244140625,91.02899932861328 3.2950000762939453,91.02899932861328 C25.909000396728516,91.02899932861328 62.89899826049805,78.22100067138672 85.38700103759766,40.887001037597656 C107.8740005493164,3.552999973297119 105.03500366210938,-50.89799880981445 87.11399841308594,-61.064998626708984z"></path></g><g opacity="1" transform="matrix(1,0,0,1,0,0)"><path stroke-linecap="round" stroke-linejoin="round" fill-opacity="0" stroke="rgb(202,123,85)" stroke-opacity="1" stroke-width="8" d=" M-109.58200073242188,1.1490000486373901 C-107.30000305175781,12 -103.78199768066406,22.788999557495117 -98.77899932861328,33.220001220703125 C-71.15499877929688,90.82099914550781 -24.485000610351562,109.04000091552734 3.2950000762939453,109.04000091552734 C31.075000762939453,109.04000091552734 77.74400329589844,90.82099914550781 105.36900329589844,33.220001220703125 C132.9929962158203,-24.381000518798828 115.36100006103516,-92.91300201416016 94.2020034790039,-122.3010025024414 C94.2020034790039,-122.3010025024414 94.2020034790039,-122.3010025024414 94.2020034790039,-122.3010025024414 C73.04199981689453,-151.68899536132812 -66.4530029296875,-151.68899536132812 -87.61199951171875,-122.3010025024414 C-104.94000244140625,-98.23500061035156 -119.9020004272461,-47.917999267578125 -109.58200073242188,1.1490000486373901"></path></g></g><g style="display: block;" transform="matrix(1,0,0,1,256,280.75)" opacity="1"><g opacity="1" transform="matrix(1,0,0,1,0,0)"><path fill="rgb(60,53,53)" fill-opacity="1" d=" M124.59600067138672,-104.1760025024414 C133.86300659179688,-61.055999755859375 121.5469970703125,-28.040000915527344 121.5469970703125,-28.040000915527344 C104.89600372314453,-117.88899993896484 6.626999855041504,-85.87300109863281 6.626999855041504,-85.87300109863281 C6.626999855041504,-85.87300109863281 0,-85.87300109863281 0,-85.87300109863281 C0,-85.87300109863281 -98.26899719238281,-117.88899993896484 -114.91999816894531,-28.040000915527344 C-114.91999816894531,-28.040000915527344 -127.23500061035156,-61.055999755859375 -117.96800231933594,-104.1760025024414 C-107.24500274658203,-154.0749969482422 113.87300109863281,-154.0749969482422 124.59600067138672,-104.1760025024414z"></path></g><g opacity="1" transform="matrix(1,0,0,1,0,0)"><path fill="rgb(83,72,73)" fill-opacity="1" d=" M121.55699920654297,-28.04599952697754 C121.55699920654297,-28.04599952697754 121.5469970703125,-28.035999298095703 121.5469970703125,-28.035999298095703 C126.39700317382812,-77.0260009765625 110.677001953125,-93.60600280761719 110.677001953125,-93.60600280761719 C110.677001953125,-93.60600280761719 124.3270034790039,-105.33599853515625 124.3270034790039,-105.33599853515625 C124.427001953125,-104.95600128173828 124.51699829101562,-104.56600189208984 124.59700012207031,-104.1760025024414 C133.7570037841797,-59.57600021362305 121.8270034790039,-28.746000289916992 121.55699920654297,-28.04599952697754z"></path></g><g opacity="1" transform="matrix(1,0,0,1,0,0)"><path fill="rgb(83,72,73)" fill-opacity="1" d=" M-114.9229965209961,-28.035999298095703 C-114.9229965209961,-28.035999298095703 -114.93299865722656,-28.04599952697754 -114.93299865722656,-28.04599952697754 C-115.19300079345703,-28.715999603271484 -126.35299682617188,-57.58599853515625 -118.8030014038086,-99.82599639892578 C-118.8030014038086,-99.82599639892578 -103.94300079345703,-96.18599700927734 -103.94300079345703,-96.18599700927734 C-117.37300109863281,-74.94599914550781 -114.9229965209961,-28.035999298095703 -114.9229965209961,-28.035999298095703z"></path></g><g opacity="1" transform="matrix(1,0,0,1,0,0)"><path stroke-linecap="round" stroke-linejoin="round" fill-opacity="0" stroke="rgb(9,9,9)" stroke-opacity="1" stroke-width="8" d=" M124.59600067138672,-104.1760025024414 C133.86300659179688,-61.055999755859375 121.5469970703125,-28.040000915527344 121.5469970703125,-28.040000915527344 C104.89600372314453,-117.88899993896484 6.626999855041504,-85.87300109863281 6.626999855041504,-85.87300109863281 C6.626999855041504,-85.87300109863281 0,-85.87300109863281 0,-85.87300109863281 C0,-85.87300109863281 -98.26899719238281,-117.88899993896484 -114.91999816894531,-28.040000915527344 C-114.91999816894531,-28.040000915527344 -127.23500061035156,-61.055999755859375 -117.96800231933594,-104.1760025024414 C-107.24500274658203,-154.0749969482422 113.87300109863281,-154.0749969482422 124.59600067138672,-104.1760025024414z"></path></g></g><g style="display: block;" transform="matrix(1,0,0,1,256,280.75)" opacity="1"><g opacity="1" transform="matrix(1,0,0,1,0,0)"><path fill="rgb(245,181,136)" fill-opacity="1" d=" M20.382999420166016,34.4640007019043 C20.382999420166016,41.34199905395508 12.732000350952148,46.91699981689453 3.2950000762939453,46.91699981689453 C-6.142000198364258,46.91699981689453 -13.793000221252441,41.34199905395508 -13.793000221252441,34.4640007019043 C-13.793000221252441,27.586000442504883 -6.142000198364258,22.304000854492188 3.2950000762939453,22.304000854492188 C12.732000350952148,22.304000854492188 20.382999420166016,27.586000442504883 20.382999420166016,34.4640007019043z"></path></g><g opacity="1" transform="matrix(1,0,0,1,0,0)"><path fill="rgb(255,205,166)" fill-opacity="1" d=" M18.07699966430664,30.533000946044922 C18.07699966430664,35.65299987792969 11.458999633789062,39.80400085449219 3.2950000762939453,39.80400085449219 C-4.86899995803833,39.80400085449219 -11.48799991607666,35.65299987792969 -11.48799991607666,30.533000946044922 C-11.48799991607666,25.413000106811523 -4.86899995803833,22.10300064086914 3.2950000762939453,22.10300064086914 C11.458999633789062,22.10300064086914 18.07699966430664,25.413000106811523 18.07699966430664,30.533000946044922z"></path></g><g opacity="1" transform="matrix(1,0,0,1,0,0)"><path fill="rgb(255,221,196)" fill-opacity="1" d=" M10.91100025177002,26.184999465942383 C10.91100025177002,28.506000518798828 7.500999927520752,30.690000534057617 3.2950000762939453,30.690000534057617 C-0.9110000133514404,30.690000534057617 -4.321000099182129,28.506000518798828 -4.321000099182129,26.184999465942383 C-4.321000099182129,23.863000869750977 -0.9110000133514404,22.698999404907227 3.2950000762939453,22.698999404907227 C7.500999927520752,22.698999404907227 10.91100025177002,23.863000869750977 10.91100025177002,26.184999465942383z"></path></g></g><g style="display: block;" transform="matrix(1,0,0,1,256,280.7510070800781)" opacity="1"><g opacity="1" transform="matrix(1,0,0,1,0,0)"><path fill="rgb(247,247,247)" fill-opacity="1" d=" M29.624000549316406,-4.564000129699707 C29.624000549316406,-4.564000129699707 32.70600128173828,-40.01900100708008 62.612998962402344,-43.60499954223633 C93.79900360107422,-47.34400177001953 99.16899871826172,-14.451000213623047 99.16899871826172,-14.451000213623047 C99.16899871826172,-14.451000213623047 91.76100158691406,4.870999813079834 67.66600036621094,7.513000011444092 C40.80400085449219,10.458999633789062 29.624000549316406,-4.564000129699707 29.624000549316406,-4.564000129699707z"></path></g><g opacity="1" transform="matrix(1,0,0,1,0,0)"><g opacity="1" transform="matrix(1,0,0,1,0,0)"><path fill="url(#__lottie_element_15395)" fill-opacity="1" d=" M83.71299743652344,-19.14299964904785 C83.71299743652344,-7.8379998207092285 75.06500244140625,1.3270000219345093 64.39700317382812,1.3270000219345093 C53.729000091552734,1.3270000219345093 45.08100128173828,-7.8379998207092285 45.08100128173828,-19.14299964904785 C45.08100128173828,-30.447999954223633 53.729000091552734,-39.61199951171875 64.39700317382812,-39.61199951171875 C75.06500244140625,-39.61199951171875 83.71299743652344,-30.447999954223633 83.71299743652344,-19.14299964904785z"></path></g><g opacity="1" transform="matrix(1,0,0,1,0,0)"><path fill="rgb(23,19,10)" fill-opacity="1" d=" M76.60399627685547,-19.14299964904785 C76.60399627685547,-11.998000144958496 71.13899993896484,-6.205999851226807 64.39700317382812,-6.205999851226807 C57.654998779296875,-6.205999851226807 52.18899917602539,-11.998000144958496 52.18899917602539,-19.14299964904785 C52.18899917602539,-26.288000106811523 57.654998779296875,-32.08000183105469 64.39700317382812,-32.08000183105469 C71.13899993896484,-32.08000183105469 76.60399627685547,-26.288000106811523 76.60399627685547,-19.14299964904785z"></path></g><g opacity="1" transform="matrix(1,0,0,1,0,0)"><path fill="rgb(244,244,244)" fill-opacity="1" d=" M63.314998626708984,-30.297000885009766 C63.314998626708984,-27.583999633789062 61.23899841308594,-25.385000228881836 58.67900085449219,-25.385000228881836 C56.11899948120117,-25.385000228881836 54.042999267578125,-27.583999633789062 54.042999267578125,-30.297000885009766 C54.042999267578125,-33.0099983215332 56.11899948120117,-35.209999084472656 58.67900085449219,-35.209999084472656 C61.23899841308594,-35.209999084472656 63.314998626708984,-33.0099983215332 63.314998626708984,-30.297000885009766z"></path></g><g opacity="1" transform="matrix(1,0,0,1,0,0)"><path stroke-linecap="round" stroke-linejoin="round" fill-opacity="0" stroke="rgb(235,147,0)" stroke-opacity="1" stroke-width="3.5" d=" M78.69100189208984,-13.361000061035156 C77.25499725341797,-8.82699966430664 73.81999969482422,-5.264999866485596 69.49600219726562,-3.8510000705718994"></path></g></g><g opacity="1" transform="matrix(1,0,0,1,0,0)"><g opacity="1" transform="matrix(1,0,0,1,0,0)"><path fill="rgb(255,205,166)" fill-opacity="1" d=" M29.625,-1.343999981880188 C38.04999923706055,5.656000137329102 73.6240005493164,22.792999267578125 99.65299987792969,-10.093999862670898 C101.1449966430664,4.043000221252441 79.78199768066406,22.04599952697754 61.54999923706055,22.10300064086914 C47.827999114990234,22.145999908447266 34.25699996948242,13.932999610900879 29.625,-1.343999981880188z"></path></g><g opacity="0" transform="matrix(1,0,0,1,0,0)"><path fill="rgb(245,181,136)" fill-opacity="1" d=" M67.45899963378906,9.076000213623047 C70.74700164794922,8.687999725341797 74.0989990234375,7.927999973297119 77.4540023803711,6.697000026702881 C85.06900024414062,3.9040000438690186 92.70099639892578,-1.3109999895095825 99.65299987792969,-10.093999862670898 C100.58999633789062,-1.215999960899353 92.51300048828125,9.187000274658203 81.85800170898438,15.711999893188477 C78.14099884033203,17.988000869750977 74.11100006103516,19.792999267578125 70.04000091552734,20.895999908447266 C67.1989974975586,21.666000366210938 50.268001556396484,11.105999946594238 67.45899963378906,9.076000213623047z"></path></g><g opacity="1" transform="matrix(1,0,0,1,0,0)"><path fill="rgb(238,168,119)" fill-opacity="1" d=" M29.424999237060547,-6.205999851226807 C32.67399978637695,-48.34400177001953 91.84100341796875,-59.064998626708984 99.16899871826172,-15.678000450134277 C94.875,-38.75 76.96800231933594,-47.13600158691406 61.55400085449219,-42.96900177001953 C33.250999450683594,-35.31800079345703 31.875,-18.625 29.424999237060547,-6.205999851226807z"></path></g></g><g opacity="1" transform="matrix(1,0,0,1,0,0)"><path fill="rgb(9,9,9)" fill-opacity="1" d=" M29.624000549316406,-4.564000129699707 C29.624000549316406,-4.564000129699707 31.065000534057617,-41.53300094604492 64.39700317382812,-44.7140007019043 C78.08200073242188,-46.02000045776367 89.67400360107422,-38.49100112915039 94.68499755859375,-29.56599998474121 C98.90499877929688,-22.051000595092773 99.16899871826172,-14.451000213623047 99.16899871826172,-14.451000213623047 C99.16899871826172,-14.451000213623047 96.02200317382812,-43.12200164794922 65.47000122070312,-41.65599822998047 C32.775001525878906,-40.08700180053711 29.624000549316406,-4.564000129699707 29.624000549316406,-4.564000129699707z"></path><path stroke-linecap="round" stroke-linejoin="round" fill-opacity="0" stroke="rgb(9,9,9)" stroke-opacity="1" stroke-width="2" d=" M29.624000549316406,-4.564000129699707 C29.624000549316406,-4.564000129699707 31.065000534057617,-41.53300094604492 64.39700317382812,-44.7140007019043 C78.08200073242188,-46.02000045776367 89.67400360107422,-38.49100112915039 94.68499755859375,-29.56599998474121 C98.90499877929688,-22.051000595092773 99.16899871826172,-14.451000213623047 99.16899871826172,-14.451000213623047 C99.16899871826172,-14.451000213623047 96.02200317382812,-43.12200164794922 65.47000122070312,-41.65599822998047 C32.775001525878906,-40.08700180053711 29.624000549316406,-4.564000129699707 29.624000549316406,-4.564000129699707z"></path></g></g><g style="display: block;" transform="matrix(1,0,0,1,256,280.7510070800781)" opacity="1"><g opacity="1" transform="matrix(1,0,0,1,0,0)"><path fill="rgb(247,247,247)" fill-opacity="1" d=" M-21.80500030517578,-4.564000129699707 C-21.80500030517578,-4.564000129699707 -24.847000122070312,-40.37200164794922 -54.79399871826172,-43.60499954223633 C-85.95099639892578,-46.96900177001953 -91.3489990234375,-14.451000213623047 -91.3489990234375,-14.451000213623047 C-91.3489990234375,-14.451000213623047 -83.94100189208984,4.870999813079834 -59.84600067138672,7.513000011444092 C-32.98400115966797,10.458999633789062 -21.80500030517578,-4.564000129699707 -21.80500030517578,-4.564000129699707z"></path></g><g opacity="1" transform="matrix(1,0,0,1,0,0)"><g opacity="1" transform="matrix(1,0,0,1,0,0)"><path fill="url(#__lottie_element_15391)" fill-opacity="1" d=" M-36.016998291015625,-19.14299964904785 C-36.016998291015625,-7.8379998207092285 -44.665000915527344,1.3270000219345093 -55.33300018310547,1.3270000219345093 C-66.0009994506836,1.3270000219345093 -74.64900207519531,-7.8379998207092285 -74.64900207519531,-19.14299964904785 C-74.64900207519531,-30.447999954223633 -66.0009994506836,-39.61199951171875 -55.33300018310547,-39.61199951171875 C-44.665000915527344,-39.61199951171875 -36.016998291015625,-30.447999954223633 -36.016998291015625,-19.14299964904785z"></path></g><g opacity="1" transform="matrix(1,0,0,1,0,0)"><path fill="rgb(23,19,10)" fill-opacity="1" d=" M-43.125,-19.14299964904785 C-43.125,-11.998000144958496 -48.590999603271484,-6.205999851226807 -55.33300018310547,-6.205999851226807 C-62.07500076293945,-6.205999851226807 -67.54000091552734,-11.998000144958496 -67.54000091552734,-19.14299964904785 C-67.54000091552734,-26.288000106811523 -62.07500076293945,-32.08000183105469 -55.33300018310547,-32.08000183105469 C-48.590999603271484,-32.08000183105469 -43.125,-26.288000106811523 -43.125,-19.14299964904785z"></path></g><g opacity="1" transform="matrix(1,0,0,1,0,0)"><path fill="rgb(244,244,244)" fill-opacity="1" d=" M-56.415000915527344,-30.297000885009766 C-56.415000915527344,-27.583999633789062 -58.4900016784668,-25.385000228881836 -61.04999923706055,-25.385000228881836 C-63.61000061035156,-25.385000228881836 -65.68599700927734,-27.583999633789062 -65.68599700927734,-30.297000885009766 C-65.68599700927734,-33.0099983215332 -63.61000061035156,-35.209999084472656 -61.04999923706055,-35.209999084472656 C-58.4900016784668,-35.209999084472656 -56.415000915527344,-33.0099983215332 -56.415000915527344,-30.297000885009766z"></path></g><g opacity="1" transform="matrix(1,0,0,1,0,0)"><path stroke-linecap="round" stroke-linejoin="round" fill-opacity="0" stroke="rgb(235,147,0)" stroke-opacity="1" stroke-width="3.5" d=" M-41.03900146484375,-13.361000061035156 C-42.474998474121094,-8.82699966430664 -45.909000396728516,-5.264999866485596 -50.233001708984375,-3.8510000705718994"></path></g></g><g opacity="1" transform="matrix(1,0,0,1,0,0)"><g opacity="1" transform="matrix(1,0,0,1,0,0)"><path fill="rgb(255,205,166)" fill-opacity="1" d=" M-22.141000747680664,-1.343999981880188 C-30.56599998474121,5.656000137329102 -66.14099884033203,22.792999267578125 -92.16999816894531,-10.093999862670898 C-93.66200256347656,4.043000221252441 -72.2979965209961,22.04599952697754 -54.066001892089844,22.10300064086914 C-40.34400177001953,22.145999908447266 -26.773000717163086,13.932999610900879 -22.141000747680664,-1.343999981880188z"></path></g><g opacity="1" transform="matrix(1,0,0,1,0,0)"><path fill="rgb(237,167,118)" fill-opacity="1" d=" M-21.941999435424805,-6.205999851226807 C-25.19099998474121,-48.34400177001953 -84.35700225830078,-59.064998626708984 -91.68499755859375,-15.678000450134277 C-88.625,-40.75 -64.66999816894531,-45.99700164794922 -52.07099914550781,-43.09400177001953 C-28.875,-37.75 -22.625,-18.25 -21.941999435424805,-6.205999851226807z"></path></g></g><g opacity="1" transform="matrix(1,0,0,1,0,0)"><path fill="rgb(9,9,9)" fill-opacity="1" d=" M-21.80500030517578,-4.564000129699707 C-21.80500030517578,-4.564000129699707 -23.2450008392334,-41.53300094604492 -56.57699966430664,-44.7140007019043 C-70.26200103759766,-46.02000045776367 -81.85299682617188,-38.49100112915039 -86.86499786376953,-29.56599998474121 C-91.08499908447266,-22.051000595092773 -91.3489990234375,-14.451000213623047 -91.3489990234375,-14.451000213623047 C-91.3489990234375,-14.451000213623047 -88.2030029296875,-43.12200164794922 -57.650001525878906,-41.65599822998047 C-24.954999923706055,-40.08700180053711 -21.80500030517578,-4.564000129699707 -21.80500030517578,-4.564000129699707z"></path><path stroke-linecap="round" stroke-linejoin="round" fill-opacity="0" stroke="rgb(9,9,9)" stroke-opacity="1" stroke-width="2" d=" M-21.80500030517578,-4.564000129699707 C-21.80500030517578,-4.564000129699707 -23.2450008392334,-41.53300094604492 -56.57699966430664,-44.7140007019043 C-70.26200103759766,-46.02000045776367 -81.85299682617188,-38.49100112915039 -86.86499786376953,-29.56599998474121 C-91.08499908447266,-22.051000595092773 -91.3489990234375,-14.451000213623047 -91.3489990234375,-14.451000213623047 C-91.3489990234375,-14.451000213623047 -88.2030029296875,-43.12200164794922 -57.650001525878906,-41.65599822998047 C-24.954999923706055,-40.08700180053711 -21.80500030517578,-4.564000129699707 -21.80500030517578,-4.564000129699707z"></path></g></g><g style="display: block;" transform="matrix(1,0,0,1,256,280.75)" opacity="1"><g opacity="1" transform="matrix(1,0,0,1,0,0)"><path fill="rgb(9,9,9)" fill-opacity="1" d=" M-82.61499786376953,-59.064998626708984 C-82.61499786376953,-59.064998626708984 -70.59700012207031,-67.30799865722656 -56.33300018310547,-66.86299896240234 C-42.665000915527344,-66.43599700927734 -37.016998291015625,-61.26900100708008 -37.016998291015625,-61.26900100708008 C-37.016998291015625,-61.26900100708008 -41.569000244140625,-71.19200134277344 -56.33300018310547,-70.76200103759766 C-72.59700012207031,-70.28800201416016 -82.61499786376953,-59.064998626708984 -82.61499786376953,-59.064998626708984z"></path><path stroke-linecap="round" stroke-linejoin="round" fill-opacity="0" stroke="rgb(9,9,9)" stroke-opacity="1" stroke-width="2" d=" M-82.61499786376953,-59.064998626708984 C-82.61499786376953,-59.064998626708984 -70.59700012207031,-67.30799865722656 -56.33300018310547,-66.86299896240234 C-42.665000915527344,-66.43599700927734 -37.016998291015625,-61.26900100708008 -37.016998291015625,-61.26900100708008 C-37.016998291015625,-61.26900100708008 -41.569000244140625,-71.19200134277344 -56.33300018310547,-70.76200103759766 C-72.59700012207031,-70.28800201416016 -82.61499786376953,-59.064998626708984 -82.61499786376953,-59.064998626708984z"></path></g><g opacity="1" transform="matrix(1,0,0,1,0,0)"><path fill="rgb(9,9,9)" fill-opacity="1" d=" M89.11399841308594,-59.064998626708984 C89.11399841308594,-59.064998626708984 77.09600067138672,-67.30799865722656 62.832000732421875,-66.86299896240234 C49.16400146484375,-66.43599700927734 43.51599884033203,-61.26900100708008 43.51599884033203,-61.26900100708008 C43.51599884033203,-61.26900100708008 48.06800079345703,-71.19200134277344 62.832000732421875,-70.76200103759766 C79.09600067138672,-70.28800201416016 89.11399841308594,-59.064998626708984 89.11399841308594,-59.064998626708984z"></path><path stroke-linecap="round" stroke-linejoin="round" fill-opacity="0" stroke="rgb(9,9,9)" stroke-opacity="1" stroke-width="2" d=" M89.11399841308594,-59.064998626708984 C89.11399841308594,-59.064998626708984 77.09600067138672,-67.30799865722656 62.832000732421875,-66.86299896240234 C49.16400146484375,-66.43599700927734 43.51599884033203,-61.26900100708008 43.51599884033203,-61.26900100708008 C43.51599884033203,-61.26900100708008 48.06800079345703,-71.19200134277344 62.832000732421875,-70.76200103759766 C79.09600067138672,-70.28800201416016 89.11399841308594,-59.064998626708984 89.11399841308594,-59.064998626708984z"></path></g></g><g style="display: block;" transform="matrix(1,0,0,1,256,280.75)" opacity="1"><g opacity="1" transform="matrix(1,0,0,1,0,0)"><path fill="rgb(197,100,65)" fill-opacity="1" d=" M40.82600021362305,63.077999114990234 C38.207000732421875,61.60499954223633 26.41900062561035,63.89699935913086 17.742000579833984,60.7859992980957 C9.0649995803833,57.67499923706055 7.10099983215332,62.077999114990234 3.990000009536743,62.077999114990234 C0.8799999952316284,62.077999114990234 -1.0839999914169312,57.67499923706055 -9.76099967956543,60.7859992980957 C-18.437999725341797,63.89699935913086 -30.225000381469727,61.60499954223633 -32.845001220703125,63.077999114990234 C-35.4640007019043,64.5510025024414 -17.5939998626709,81.55999755859375 3.990000009536743,81.55999755859375 C25.32200050354004,81.55999755859375 43.44599914550781,64.5510025024414 40.82600021362305,63.077999114990234z"></path></g><g opacity="1" transform="matrix(1,0,0,1,0,0)"><path fill="rgb(93,44,23)" fill-opacity="1" d=" M-26.81399917602539,66.14399719238281 C-26.81399917602539,66.14399719238281 -17.420000076293945,68.375 -11.01200008392334,68.375 C-6.6620001792907715,68.375 -0.09399999678134918,70.68099975585938 3.990999937057495,70.68099975585938 C7.918000221252441,70.68099975585938 13.229999542236328,68.42400360107422 17.350000381469727,68.42400360107422 C25.785999298095703,68.42400360107422 34.20500183105469,66.14399719238281 34.20500183105469,66.14399719238281 C34.20500183105469,66.14399719238281 27.18899917602539,68.2490005493164 16.947999954223633,70.4000015258789 C13.312000274658203,71.16400146484375 8.270000457763672,73.0999984741211 3.990999937057495,73.0999984741211 C-1.093999981880188,73.0999984741211 -6.9019999504089355,70.95099639892578 -11.112000465393066,69.94499969482422 C-20.424999237060547,67.71900177001953 -26.81399917602539,66.14399719238281 -26.81399917602539,66.14399719238281z"></path><path stroke-linecap="round" stroke-linejoin="round" fill-opacity="0" stroke="rgb(93,44,23)" stroke-opacity="1" stroke-width="1" d=" M-26.81399917602539,66.14399719238281 C-26.81399917602539,66.14399719238281 -17.420000076293945,68.375 -11.01200008392334,68.375 C-6.6620001792907715,68.375 -0.09399999678134918,70.68099975585938 3.990999937057495,70.68099975585938 C7.918000221252441,70.68099975585938 13.229999542236328,68.42400360107422 17.350000381469727,68.42400360107422 C25.785999298095703,68.42400360107422 34.20500183105469,66.14399719238281 34.20500183105469,66.14399719238281 C34.20500183105469,66.14399719238281 27.18899917602539,68.2490005493164 16.947999954223633,70.4000015258789 C13.312000274658203,71.16400146484375 8.270000457763672,73.0999984741211 3.990999937057495,73.0999984741211 C-1.093999981880188,73.0999984741211 -6.9019999504089355,70.95099639892578 -11.112000465393066,69.94499969482422 C-20.424999237060547,67.71900177001953 -26.81399917602539,66.14399719238281 -26.81399917602539,66.14399719238281z"></path></g></g><g style="display: block;" transform="matrix(1,0,0,1,256,280.75)" opacity="1"><g opacity="1" transform="matrix(1,0,0,1,0,0)"><path fill="url(#__lottie_element_15368)" fill-opacity="1" d=" M153.91700744628906,-143.43600463867188 C155.34500122070312,-132.83999633789062 151.91700744628906,-121.37999725341797 142.11700439453125,-111.97799682617188 C135.09500122070312,-105.23999786376953 124.80000305175781,-99.55899810791016 110.677001953125,-96.01100158691406 C85.2239990234375,-89.61599731445312 38.564998626708984,-90.427001953125 0,-90.8219985961914 C-48.569000244140625,-91.31900024414062 -97.75,-89 -124.18199920654297,-102.61399841308594 C-130.927001953125,-106.08799743652344 -133.0659942626953,-106.61499786376953 -139.05299377441406,-113.03099822998047 C-147.65499877929688,-122.2490005493164 -150.2530059814453,-133.24600219726562 -149.98300170898438,-143.43600463867188 C-149.4250030517578,-164.49899291992188 -131.16299438476562,-177.8260040283203 -82.61299896240234,-198.29600524902344 C-36.91299819946289,-217.55599975585938 -11.713000297546387,-221.0959930419922 1.9670000076293945,-221.0959930419922 C15.647000312805176,-221.0959930419922 40.83700180053711,-217.55599975585938 86.5469970703125,-198.29600524902344 C135.08700561523438,-177.8260040283203 151.10299682617188,-164.31700134277344 153.91700744628906,-143.43600463867188z"></path></g><g opacity="0.4" transform="matrix(1,0,0,1,0,0)"><path fill="rgb(0,43,111)" fill-opacity="1" d=" M-142.57000732421875,-162.76400756835938 C-142.57000732421875,-162.76400756835938 -148.5290069580078,-138.218994140625 -133.927001953125,-132.50599670410156 C-124.1240005493164,-128.67100524902344 -114.19499969482422,-135.16799926757812 -114.19499969482422,-135.16799926757812 C-114.19499969482422,-135.16799926757812 -111.82499694824219,-104.34600067138672 -118.9990005493164,-99.15899658203125 C-118.9990005493164,-99.15899658203125 -169.3249969482422,-125.95800018310547 -142.57000732421875,-162.76400756835938z"></path></g><g opacity="0.6" transform="matrix(1,0,0,1,0,0)"><g opacity="1" transform="matrix(1,0,0,1,0,0)"><path fill="rgb(0,43,111)" fill-opacity="1" d=" M21.273000717163086,-149.17799377441406 C54.71200180053711,-151.22799682617188 73.1050033569336,-140.75799560546875 78.40399932861328,-135.56100463867188 C86.29199981689453,-127.82499694824219 77.93800354003906,-125.95800018310547 77.93800354003906,-125.95800018310547 C77.93800354003906,-125.95800018310547 104.46600341796875,-109.33899688720703 105.62899780273438,-105.6760025024414 C106.79199981689453,-102.01300048828125 97.98699951171875,-103.01000213623047 97.98699951171875,-103.01000213623047 C97.98699951171875,-103.01000213623047 110.33999633789062,-91.88999938964844 128.54400634765625,-101.96900177001953 C146.7480010986328,-112.0479965209961 157.78500366210938,-132.36099243164062 152.08200073242188,-153.7239990234375 C146.37899780273438,-175.08700561523438 104.92400360107422,-185.11599731445312 104.92400360107422,-185.11599731445312 C104.92400360107422,-185.11599731445312 123.41500091552734,-176.6649932861328 116.89700317382812,-170.58900451660156 C109.84100341796875,-164.01100158691406 69.51799774169922,-172.51699829101562 44.755001068115234,-183.90899658203125 C44.755001068115234,-183.90899658203125 21.273000717163086,-149.17799377441406 21.273000717163086,-149.17799377441406z"></path></g></g><g opacity="0.5" transform="matrix(1,0,0,1,0,0)"><path fill="rgb(0,145,255)" fill-opacity="1" d=" M1.9670000076293945,-220.63299560546875 C-29.597999572753906,-220.13299560546875 -168.8249969482422,-177.593994140625 -148.83299255371094,-131.7729949951172 C-148.83299255371094,-131.7729949951172 -148.822998046875,-131.7729949951172 -148.822998046875,-131.7729949951172 C-148.822998046875,-131.7729949951172 -150.822998046875,-155.23300170898438 -98.27300262451172,-176.92300415039062 C-45.722999572753906,-198.6230010986328 -13.793000221252441,-203.85400390625 1.9670000076293945,-203.85400390625 C17.726999282836914,-203.85400390625 49.65700149536133,-198.6230010986328 102.20700073242188,-176.92300415039062 C154.7570037841797,-155.23300170898438 152.7570037841797,-131.7729949951172 152.7570037841797,-131.7729949951172 C152.7570037841797,-131.7729949951172 152.76699829101562,-131.7729949951172 152.76699829101562,-131.7729949951172 C178.1739959716797,-176.2050018310547 31.173999786376953,-221.0959930419922 1.9670000076293945,-220.63299560546875z"></path></g><g opacity="1" transform="matrix(1,0,0,1,0,0)"><path stroke-linecap="round" stroke-linejoin="round" fill-opacity="0" stroke="rgb(0,36,95)" stroke-opacity="1" stroke-width="5" d=" M-114.98799896240234,-134.07200622558594 C-114.98799896240234,-134.07200622558594 -114.87000274658203,-125.78700256347656 -114.87000274658203,-114.0780029296875 C-114.87000274658203,-109.4990005493164 -117.87000274658203,-98.16300201416016 -117.87000274658203,-98.16300201416016"></path></g><g opacity="1" transform="matrix(1,0,0,1,0,0)"><path stroke-linecap="round" stroke-linejoin="round" fill-opacity="0" stroke="rgb(0,20,55)" stroke-opacity="1" stroke-width="5" d=" M119.23699951171875,-134.07200622558594 C119.23699951171875,-134.07200622558594 119.11900329589844,-125.78700256347656 119.11900329589844,-114.0780029296875 C119.11900329589844,-109.4990005493164 122.11900329589844,-98.16300201416016 122.11900329589844,-98.16300201416016"></path></g><g opacity="1" transform="matrix(1,0,0,1,0,0)"><path stroke-linecap="round" stroke-linejoin="round" fill-opacity="0" stroke="rgb(0,43,111)" stroke-opacity="1" stroke-width="8" d=" M153.91700744628906,-143.43600463867188 C154.01699829101562,-121.84600067138672 142.31700134277344,-111.06600189208984 128.9669952392578,-103.63600158691406 C125.74700164794922,-101.84600067138672 121.64700317382812,-99.5260009765625 116.89700317382812,-96.94599914550781 C109.2249984741211,-92.76200103759766 53.03900146484375,-90.7229995727539 -1.9639999866485596,-90.82599639892578 C-35.65599822998047,-90.88899993896484 -68.90399932861328,-91.75599670410156 -90.28700256347656,-93.42500305175781 C-102.15399932861328,-94.35099792480469 -116.49199676513672,-98.7750015258789 -119.0979995727539,-100.19599914550781 C-123.8479995727539,-102.78600311279297 -121.822998046875,-101.84600067138672 -125.03299713134766,-103.63600158691406 C-138.39300537109375,-111.06600189208984 -150.08299255371094,-121.84600067138672 -149.98300170898438,-143.43600463867188 C-149.88299560546875,-164.50599670410156 -131.16299438476562,-175.8260040283203 -82.61299896240234,-196.29600524902344 C-36.91299819946289,-215.55599975585938 -11.713000297546387,-221.0959930419922 1.9670000076293945,-221.0959930419922 C15.647000312805176,-221.0959930419922 40.83700180053711,-215.55599975585938 86.5469970703125,-196.29600524902344 C135.08700561523438,-175.8260040283203 153.81700134277344,-164.50599670410156 153.91700744628906,-143.43600463867188z"></path></g><g opacity="1" transform="matrix(1,0,0,1,0,0)"><path stroke-linecap="round" stroke-linejoin="round" fill-opacity="0" stroke="rgb(0,20,55)" stroke-opacity="1" stroke-width="8" d=" M153.91700744628906,-143.43600463867188 C154.01699829101562,-121.84600067138672 142.31700134277344,-111.06600189208984 128.9669952392578,-103.63600158691406 C125.74700164794922,-101.84600067138672 121.64700317382812,-99.5260009765625 116.89700317382812,-96.94599914550781 C109.36900329589844,-92.83999633789062 55.132999420166016,-90.8010025024414 1.1369999647140503,-90.822998046875 C-52.3120002746582,-90.84500122070312 -105.5260009765625,-92.88700103759766 -112.9729995727539,-96.94599914550781 C-117.7229995727539,-99.53600311279297 -121.822998046875,-101.84600067138672 -125.03299713134766,-103.63600158691406 C-126.51399993896484,-104.45899963378906 -127.9729995727539,-105.3239974975586 -129.3990020751953,-106.23999786376953 C-140.83900451660156,-113.58799743652344 -150.07200622558594,-124.23899841308594 -149.98300170898438,-143.43600463867188"></path></g></g><g style="display: block;" transform="matrix(1,0,0,1,256,280.75)" opacity="1"><g opacity="0.6" transform="matrix(1,0,0,1,0,0)"><path fill="rgb(0,20,55)" fill-opacity="1" d=" M90.73999786376953,-160.18699645996094 C75.78399658203125,-168.1999969482422 49.58700180053711,-177.74400329589844 41.59199905395508,-192.49200439453125 C35.68199920654297,-203.39300537109375 -32.31800079345703,-193.1649932861328 -36.340999603271484,-192.3459930419922 C-36.340999603271484,-192.3459930419922 -39.29800033569336,-185.0290069580078 -48.08599853515625,-179.33900451660156 C-63.60499954223633,-169.2899932861328 -69.39900207519531,-168.2010040283203 -85.3219985961914,-159.1269989013672 C-116.60299682617188,-141.302001953125 -113.26000213623047,-135 -104.0009994506836,-137.6750030517578 C-77.78299713134766,-145.24899291992188 -48.9119987487793,-146.49099731445312 -27.606000900268555,-144.96200561523438 C-23.5,-142.5 -19.808000564575195,-141.302001953125 -14.824999809265137,-138.39700317382812 C-7.014999866485596,-133.84300231933594 3.01200008392334,-127.88800048828125 3.01200008392334,-127.88800048828125 C3.01200008392334,-127.88800048828125 9.395000457763672,-132.18299865722656 17.09000015258789,-136.52000427246094 C22.41200065612793,-139.5189971923828 27.75,-141.75 31.676000595092773,-144.83299255371094 C54.854000091552734,-146.28399658203125 85.71299743652344,-144.16099548339844 107.48400115966797,-139.8179931640625 C116.91500091552734,-137.93600463867188 121.25299835205078,-143.83799743652344 90.73999786376953,-160.18699645996094z"></path></g></g><g style="display: block;" transform="matrix(1,0,0,1,256,280.75)" opacity="1"><g opacity="1" transform="matrix(1,0,0,1,0,0)"><path fill="url(#__lottie_element_15377)" fill-opacity="1" d=" M116.89700317382812,-96.94599914550781 C85.67400360107422,-72.09400177001953 29.624000549316406,-64.91600036621094 1.9670000076293945,-64.91600036621094 C-25.576000213623047,-64.91600036621094 -80.32499694824219,-72.84400177001953 -112.9729995727539,-96.94599914550781 C-112.9729995727539,-96.94599914550781 -66.072998046875,-105.6760025024414 1.9670000076293945,-105.6760025024414 C70.00700378417969,-105.6760025024414 116.89700317382812,-96.94599914550781 116.89700317382812,-96.94599914550781z"></path><path stroke-linecap="round" stroke-linejoin="round" fill-opacity="0" stroke="rgb(0,0,0)" stroke-opacity="1" stroke-width="8" d=" M116.89700317382812,-96.94599914550781 C85.67400360107422,-72.09400177001953 29.624000549316406,-64.91600036621094 1.9670000076293945,-64.91600036621094 C-25.576000213623047,-64.91600036621094 -80.32499694824219,-72.84400177001953 -112.9729995727539,-96.94599914550781 C-112.9729995727539,-96.94599914550781 -66.072998046875,-105.6760025024414 1.9670000076293945,-105.6760025024414 C70.00700378417969,-105.6760025024414 116.89700317382812,-96.94599914550781 116.89700317382812,-96.94599914550781z"></path></g><g opacity="1" transform="matrix(1,0,0,1,0,0)"><path stroke-linecap="round" stroke-linejoin="round" fill-opacity="0" stroke="rgb(29,29,27)" stroke-opacity="1" stroke-width="8" d=" M-74.64900207519531,-101.96900177001953 C-54.94499969482422,-103.91200256347656 -28.625999450683594,-105.6760025024414 1.9670000076293945,-105.6760025024414"></path></g><g opacity="1" transform="matrix(1,0,0,1,0,0)"><path fill="url(#__lottie_element_15378)" fill-opacity="1" d=" M1.9620000123977661,-127.81400299072266 C1.9620000123977661,-127.81400299072266 -64.83799743652344,-128.4739990234375 -115.19499969482422,-116.65699768066406 C-115.19499969482422,-116.65699768066406 -115.19499969482422,-107.5 -115.19499969482422,-107.5 C-115.19499969482422,-107.5 -79.12000274658203,-117.3270034790039 1.9620000123977661,-117.3270034790039 C83.04399871826172,-117.3270034790039 119.11900329589844,-107.5 119.11900329589844,-107.5 C119.11900329589844,-107.5 119.11900329589844,-116.65699768066406 119.11900329589844,-116.65699768066406 C68.76200103759766,-128.4739990234375 1.9620000123977661,-127.81400299072266 1.9620000123977661,-127.81400299072266z"></path><path stroke-linecap="round" stroke-linejoin="round" fill-opacity="0" stroke="rgb(0,0,0)" stroke-opacity="1" stroke-width="5" d=" M1.9620000123977661,-127.81400299072266 C1.9620000123977661,-127.81400299072266 -64.83799743652344,-128.4739990234375 -115.19499969482422,-116.65699768066406 C-115.19499969482422,-116.65699768066406 -115.19499969482422,-107.5 -115.19499969482422,-107.5 C-115.19499969482422,-107.5 -79.12000274658203,-117.3270034790039 1.9620000123977661,-117.3270034790039 C83.04399871826172,-117.3270034790039 119.11900329589844,-107.5 119.11900329589844,-107.5 C119.11900329589844,-107.5 119.11900329589844,-116.65699768066406 119.11900329589844,-116.65699768066406 C68.76200103759766,-128.4739990234375 1.9620000123977661,-127.81400299072266 1.9620000123977661,-127.81400299072266z"></path></g><g opacity="1" transform="matrix(1,0,0,1,0,0)"><path stroke-linecap="round" stroke-linejoin="round" fill-opacity="0" stroke="rgb(29,29,27)" stroke-opacity="1" stroke-width="5" d=" M1.9620000123977661,-127.81400299072266 C1.9620000123977661,-127.81400299072266 -31.79199981689453,-128.1479949951172 -69.4000015258789,-124.09600067138672"></path></g><g opacity="1" transform="matrix(1,0,0,1,0,0)"><path stroke-linecap="round" stroke-linejoin="round" fill-opacity="0" stroke="rgb(29,29,27)" stroke-opacity="1" stroke-width="5" d=" M-70.73899841308594,-114.21800231933594 C-52.52000045776367,-115.94499969482422 -28.444000244140625,-117.3270034790039 1.9620000123977661,-117.3270034790039"></path></g><g opacity="1" transform="matrix(1,0,0,1,0,0)"><path stroke-linecap="round" stroke-linejoin="round" fill-opacity="0" stroke="rgb(204,140,0)" stroke-opacity="1" stroke-width="5" d=" M-115.19499969482422,-118.65699768066406 C-115.19499969482422,-118.65699768066406 -115.19499969482422,-107.5 -115.19499969482422,-107.5"></path></g><g opacity="1" transform="matrix(1,0,0,1,0,0)"><path stroke-linecap="round" stroke-linejoin="round" fill-opacity="0" stroke="rgb(255,205,0)" stroke-opacity="1" stroke-width="5" d=" M-115.19499969482422,-118.65699768066406 C-115.19499969482422,-118.65699768066406 -115.19499969482422,-116.65699768066406 -115.19499969482422,-116.65699768066406"></path></g><g opacity="1" transform="matrix(1,0,0,1,0,0)"><path stroke-linecap="round" stroke-linejoin="round" fill-opacity="0" stroke="rgb(204,140,0)" stroke-opacity="1" stroke-width="5" d=" M119.11900329589844,-118.65699768066406 C119.11900329589844,-118.65699768066406 119.11900329589844,-107.5 119.11900329589844,-107.5"></path></g><g opacity="1" transform="matrix(1,0,0,1,0,0)"><path stroke-linecap="round" stroke-linejoin="round" fill-opacity="0" stroke="rgb(255,205,0)" stroke-opacity="1" stroke-width="5" d=" M119.11900329589844,-118.66000366210938 C119.11900329589844,-118.66000366210938 119.11900329589844,-116.66000366210938 119.11900329589844,-116.66000366210938"></path></g></g><g style="display: block;" transform="matrix(1,0,0,1,256,280.75)" opacity="1"><g opacity="1" transform="matrix(1,0,0,1,0,0)"><path stroke-linecap="round" stroke-linejoin="round" fill-opacity="0" stroke="rgb(255,255,255)" stroke-opacity="1" stroke-width="6" d=" M78.99800109863281,-186.2050018310547 C79.5270004272461,-186.0050048828125 78.99800109863281,-186.20599365234375 79.99199676513672,-185.82000732421875"></path></g><g opacity="1" transform="matrix(1,0,0,1,0,0)"><path stroke-linecap="round" stroke-linejoin="round" fill-opacity="0" stroke="rgb(255,255,255)" stroke-opacity="1" stroke-width="6" d=" M61.150001525878906,-192.3820037841797 C61.150001525878906,-192.3820037841797 63.33100128173828,-191.6219940185547 68.16300201416016,-189.96299743652344"></path></g></g><g style="display: block;" transform="matrix(1,0,0,1,256,280.75)" opacity="1"><g opacity="1" transform="matrix(1,0,0,1,0,0)"><path fill="rgb(241,220,0)" fill-opacity="1" d=" M34.67100143432617,-201.48399353027344 C16.988000869750977,-186.3000030517578 4.008999824523926,-204.77000427246094 2.7839999198913574,-206.38499450683594 C1.559000015258789,-204.77000427246094 -11.420999526977539,-186.3000030517578 -29.104000091552734,-201.48399353027344 C-29.104000091552734,-201.48399353027344 -36.9630012512207,-184.9600067138672 -31.520000457763672,-167.08999633789062 C-26.826000213623047,-151.67799377441406 2.7839999198913574,-136.39700317382812 2.7839999198913574,-136.39700317382812 C2.7839999198913574,-136.39700317382812 31.841999053955078,-150.01100158691406 37.0880012512207,-167.08999633789062 C42.60200119018555,-185.0399932861328 34.67100143432617,-201.48399353027344 34.67100143432617,-201.48399353027344z"></path></g><g opacity="0.6" transform="matrix(1,0,0,1,0,0)"><path fill="rgb(255,255,255)" fill-opacity="1" d=" M-3.388000011444092,-199.96400451660156 C-3.388000011444092,-199.96400451660156 -3.388000011444092,-140.4429931640625 -3.388000011444092,-140.4429931640625 C-3.388000011444092,-140.4429931640625 -21.80500030517578,-154.99099731445312 -21.80500030517578,-154.99099731445312 C-21.80500030517578,-154.99099731445312 -21.80500030517578,-197.75399780273438 -21.80500030517578,-197.75399780273438 C-21.80500030517578,-197.75399780273438 -9.5600004196167,-193.54299926757812 -3.388000011444092,-199.96400451660156z"></path></g><g opacity="1" transform="matrix(1,0,0,1,0,0)"><path stroke-linecap="round" stroke-linejoin="round" fill-opacity="0" stroke="rgb(195,162,0)" stroke-opacity="1" stroke-width="8" d=" M34.67100143432617,-201.48399353027344 C18.5,-190.25 4.008999824523926,-204.77000427246094 2.7839999198913574,-206.38499450683594 C1.559000015258789,-204.77000427246094 -14.25,-190.75 -29.104000091552734,-201.48399353027344 C-29.104000091552734,-201.48399353027344 -38.26499938964844,-184.51100158691406 -31.520000457763672,-167.08999633789062 C-27.17099952697754,-155.8560028076172 -18.20400047302246,-149.24200439453125 -9.680000305175781,-144.27200317382812 C-2.890000104904175,-140.31300354003906 2.7839999198913574,-136.39700317382812 2.7839999198913574,-136.39700317382812 C2.7839999198913574,-136.39700317382812 8.335000038146973,-140.13099670410156 15.024999618530273,-143.90199279785156 C23.606000900268555,-148.73800659179688 32.81700134277344,-155.302001953125 37.0880012512207,-167.08999633789062 C43.48400115966797,-184.74400329589844 34.67100143432617,-201.48399353027344 34.67100143432617,-201.48399353027344z"></path></g></g><g style="display: block;" transform="matrix(0.9983588457107544,0.05726781114935875,-0.05726781114935875,0.9983588457107544,101.01868438720703,560.6420288085938)" opacity="1"><g opacity="1" transform="matrix(1,0,0,1,0,0)"><path fill="url(#__lottie_element_15361)" fill-opacity="1" d=" M216.10000610351562,103.62899780273438 C214.8000030517578,106.80799865722656 207.7270050048828,107.11900329589844 206.5780029296875,103.62899780273438 C206.5780029296875,103.62899780273438 203.31300354003906,76.177001953125 203.31300354003906,76.177001953125 C202.48199462890625,71.96299743652344 220.16700744628906,72.46800231933594 219.36500549316406,76.177001953125 C219.36500549316406,76.177001953125 216.10000610351562,103.62899780273438 216.10000610351562,103.62899780273438z"></path><path stroke-linecap="butt" stroke-linejoin="miter" fill-opacity="0" stroke-miterlimit="10" stroke="rgb(35,18,61)" stroke-opacity="1" stroke-width="8" d=" M216.10000610351562,103.62899780273438 C214.8000030517578,106.80799865722656 207.7270050048828,107.11900329589844 206.5780029296875,103.62899780273438 C206.5780029296875,103.62899780273438 203.31300354003906,76.177001953125 203.31300354003906,76.177001953125 C202.48199462890625,71.96299743652344 220.16700744628906,72.46800231933594 219.36500549316406,76.177001953125 C219.36500549316406,76.177001953125 216.10000610351562,103.62899780273438 216.10000610351562,103.62899780273438z"></path></g><g opacity="1" transform="matrix(1,0,0,1,0,0)"><path fill="url(#__lottie_element_15362)" fill-opacity="1" d=" M221.34500122070312,75.75599670410156 C220.87899780273438,81.27200317382812 201.7169952392578,81.14399719238281 201.33299255371094,75.75599670410156 C201.33299255371094,75.75599670410156 200.93299865722656,28.784000396728516 200.93299865722656,28.784000396728516 C200.93299865722656,28.784000396728516 221.74600219726562,28.784000396728516 221.74600219726562,28.784000396728516 C221.74600219726562,28.784000396728516 221.34500122070312,75.75599670410156 221.34500122070312,75.75599670410156z"></path><path stroke-linecap="butt" stroke-linejoin="miter" fill-opacity="0" stroke-miterlimit="10" stroke="rgb(35,18,61)" stroke-opacity="1" stroke-width="8" d=" M221.34500122070312,75.75599670410156 C220.87899780273438,81.27200317382812 201.7169952392578,81.14399719238281 201.33299255371094,75.75599670410156 C201.33299255371094,75.75599670410156 200.93299865722656,28.784000396728516 200.93299865722656,28.784000396728516 C200.93299865722656,28.784000396728516 221.74600219726562,28.784000396728516 221.74600219726562,28.784000396728516 C221.74600219726562,28.784000396728516 221.34500122070312,75.75599670410156 221.34500122070312,75.75599670410156z"></path></g><g opacity="1" transform="matrix(1,0,0,1,0,0)"><path fill="url(#__lottie_element_15363)" fill-opacity="1" d=" M222.88400268554688,12.277000427246094 C223.7270050048828,18.891000747680664 225.6750030517578,36.119998931884766 222.86399841308594,37.83000183105469 C218.5260009765625,28.73900032043457 204.55499267578125,28.884000778198242 199.8560028076172,37.69200134277344 C197.25,36.58700180053711 199.24000549316406,18.242000579833984 200.32899475097656,11.972000122070312 C202.7790069580078,-2.128000020980835 205.14500427246094,-10.819999694824219 211.1909942626953,-10.819999694824219 C217.23699951171875,-10.819999694824219 220.8990020751953,-3.2869999408721924 222.88400268554688,12.277000427246094z"></path><path stroke-linecap="round" stroke-linejoin="round" fill-opacity="0" stroke="rgb(35,18,61)" stroke-opacity="1" stroke-width="8" d=" M222.88400268554688,12.277000427246094 C223.7270050048828,18.891000747680664 225.6750030517578,36.119998931884766 222.86399841308594,37.83000183105469 C218.5260009765625,28.73900032043457 204.55499267578125,28.884000778198242 199.8560028076172,37.69200134277344 C197.25,36.58700180053711 199.24000549316406,18.242000579833984 200.32899475097656,11.972000122070312 C202.7790069580078,-2.128000020980835 205.14500427246094,-10.819999694824219 211.1909942626953,-10.819999694824219 C217.23699951171875,-10.819999694824219 220.8990020751953,-3.2869999408721924 222.88400268554688,12.277000427246094z"></path></g><g opacity="1" transform="matrix(1,0,0,1,0,0)"><path stroke-linecap="round" stroke-linejoin="round" fill-opacity="0" stroke="rgb(71,57,92)" stroke-opacity="1" stroke-width="8" d=" M198.6699981689453,35.15599822998047 C198.39599609375,29.01300048828125 199.55799865722656,16.408000946044922 200.32899475097656,11.972000122070312 C202.52999877929688,-0.6949999928474426 204.66299438476562,-8.996999740600586 209.45700073242188,-10.553999900817871"></path></g></g><g style="display: block;" transform="matrix(1,0,0,1,217,253)" opacity="1"><g opacity="1" transform="matrix(1,0,0,1,0,0)"><g opacity="1" transform="matrix(1,0,0,1,0,0)"><g opacity="1" transform="matrix(1,0,0,1,0,0)"><path fill="rgb(247,223,45)" fill-opacity="1" d=" M70.36599731445312,284.7760009765625 C70.36599731445312,273.5090026855469 61.233001708984375,264.3760070800781 49.965999603271484,264.3760070800781 C49.965999603271484,264.3760070800781 2.933000087738037,264.3760070800781 2.933000087738037,264.3760070800781 C-8.333999633789062,264.3760070800781 -17.466999053955078,273.5090026855469 -17.466999053955078,284.7760009765625 C-17.466999053955078,284.7760009765625 -37.46699905395508,302.90899658203125 -37.46699905395508,302.90899658203125 C-37.46699905395508,302.90899658203125 90.36599731445312,302.90899658203125 90.36599731445312,302.90899658203125 C90.36599731445312,302.90899658203125 70.36599731445312,284.7760009765625 70.36599731445312,284.7760009765625z M26.448999404907227,288.6289978027344 C22.038000106811523,288.6289978027344 18.46299934387207,285.0539855957031 18.46299934387207,280.64300537109375 C18.46299934387207,276.23199462890625 22.038000106811523,272.656005859375 26.448999404907227,272.656005859375 C30.860000610351562,272.656005859375 34.43600082397461,276.23199462890625 34.43600082397461,280.64300537109375 C34.43600082397461,285.0539855957031 30.860000610351562,288.6289978027344 26.448999404907227,288.6289978027344z"></path></g><g opacity="1" transform="matrix(1,0,0,1,0,0)"><path stroke-linecap="round" stroke-linejoin="round" fill-opacity="0" stroke="rgb(181,119,9)" stroke-opacity="1" stroke-width="8" d=" M49.965999603271484,264.3760070800781 C49.965999603271484,264.3760070800781 2.933000087738037,264.3760070800781 2.933000087738037,264.3760070800781 C-8.333999633789062,264.3760070800781 -17.466999053955078,273.5090026855469 -17.466999053955078,284.7760009765625 C-17.466999053955078,284.7760009765625 -37.46699905395508,298.90899658203125 -37.46699905395508,298.90899658203125 C-37.46699905395508,298.90899658203125 90.36599731445312,298.90899658203125 90.36599731445312,298.90899658203125 C90.36599731445312,298.90899658203125 70.36599731445312,284.7760009765625 70.36599731445312,284.7760009765625 C70.36599731445312,273.5090026855469 61.233001708984375,264.3760070800781 49.965999603271484,264.3760070800781z"></path></g><g opacity="1" transform="matrix(1,0,0,1,0,0)"><path stroke-linecap="round" stroke-linejoin="round" fill-opacity="0" stroke="rgb(181,119,9)" stroke-opacity="1" stroke-width="6" d=" M26.448999404907227,289.6289978027344 C22.038000106811523,289.6289978027344 18.46299934387207,286.0539855957031 18.46299934387207,281.64300537109375 C18.46299934387207,277.23199462890625 22.038000106811523,273.656005859375 26.448999404907227,273.656005859375 C30.860000610351562,273.656005859375 34.43600082397461,277.23199462890625 34.43600082397461,281.64300537109375 C34.43600082397461,286.0539855957031 30.860000610351562,289.6289978027344 26.448999404907227,289.6289978027344z"></path></g><g opacity="1" transform="matrix(1,0,0,1,0,0)"><path stroke-linecap="round" stroke-linejoin="round" fill-opacity="0" stroke="rgb(255,255,255)" stroke-opacity="1" stroke-width="5" d=" M49.99300003051758,272.656005859375 C56.17399978637695,272.656005859375 60.007999420166016,276.78399658203125 60.67499923706055,281.64300537109375"></path></g></g><g opacity="1" transform="matrix(1,0,0,1,0,0)"><path fill="rgb(204,122,54)" fill-opacity="1" d=" M122.10900115966797,540.0759887695312 C122.10900115966797,540.0759887695312 -69.20999908447266,540.0759887695312 -69.20999908447266,540.0759887695312 C-75.31500244140625,540.0759887695312 -80.26399993896484,535.1270141601562 -80.26399993896484,529.02197265625 C-80.26399993896484,529.02197265625 -80.26399993896484,309.3399963378906 -80.26399993896484,309.3399963378906 C-80.26399993896484,303.2349853515625 -75.31500244140625,298.2860107421875 -69.20999908447266,298.2860107421875 C-69.20999908447266,298.2860107421875 122.10900115966797,298.2860107421875 122.10900115966797,298.2860107421875 C128.21400451660156,298.2860107421875 133.16299438476562,303.2349853515625 133.16299438476562,309.3399963378906 C133.16299438476562,309.3399963378906 133.16299438476562,529.02197265625 133.16299438476562,529.02197265625 C133.16299438476562,535.1270141601562 128.21400451660156,540.0759887695312 122.10900115966797,540.0759887695312z"></path><path stroke-linecap="round" stroke-linejoin="round" fill-opacity="0" stroke="rgb(119,49,19)" stroke-opacity="1" stroke-width="8" d=" M122.10900115966797,540.0759887695312 C122.10900115966797,540.0759887695312 -69.20999908447266,540.0759887695312 -69.20999908447266,540.0759887695312 C-75.31500244140625,540.0759887695312 -80.26399993896484,535.1270141601562 -80.26399993896484,529.02197265625 C-80.26399993896484,529.02197265625 -80.26399993896484,309.3399963378906 -80.26399993896484,309.3399963378906 C-80.26399993896484,303.2349853515625 -75.31500244140625,298.2860107421875 -69.20999908447266,298.2860107421875 C-69.20999908447266,298.2860107421875 122.10900115966797,298.2860107421875 122.10900115966797,298.2860107421875 C128.21400451660156,298.2860107421875 133.16299438476562,303.2349853515625 133.16299438476562,309.3399963378906 C133.16299438476562,309.3399963378906 133.16299438476562,529.02197265625 133.16299438476562,529.02197265625 C133.16299438476562,535.1270141601562 128.21400451660156,540.0759887695312 122.10900115966797,540.0759887695312z"></path></g><g opacity="1" transform="matrix(1,0,0,1,0,0)"><path fill="rgb(183,99,42)" fill-opacity="1" d=" M106.88800048828125,519.5289916992188 C106.88800048828125,519.5289916992188 -53.98899841308594,519.5289916992188 -53.98899841308594,519.5289916992188 C-59.94599914550781,519.5289916992188 -64.7760009765625,514.7000122070312 -64.7760009765625,508.7430114746094 C-64.7760009765625,508.7430114746094 -64.7760009765625,323.6189880371094 -64.7760009765625,323.6189880371094 C-64.7760009765625,317.6619873046875 -59.94599914550781,312.8330078125 -53.98899841308594,312.8330078125 C-53.98899841308594,312.8330078125 106.88800048828125,312.8330078125 106.88800048828125,312.8330078125 C112.84500122070312,312.8330078125 117.67500305175781,317.6619873046875 117.67500305175781,323.6189880371094 C117.67500305175781,323.6189880371094 117.67500305175781,508.7430114746094 117.67500305175781,508.7430114746094 C117.67500305175781,514.7000122070312 112.84500122070312,519.5289916992188 106.88800048828125,519.5289916992188z"></path></g></g></g></g></svg>