<svg xmlns="http://www.w3.org/2000/svg" viewBox="0 0 512 512" width="512" height="512" style="width: 100%; height: 100%; transform: translate3d(0,0,0);" preserveAspectRatio="xMidYMid meet"><defs><clipPath id="__lottie_element_15421"><rect width="512" height="512" x="0" y="0"></rect></clipPath><linearGradient id="__lottie_element_15438" spreadMethod="pad" gradientUnits="userSpaceOnUse" x1="-80" y1="-85" x2="-80" y2="-35"><stop offset="0%" stop-color="rgb(255,255,255)"></stop><stop offset="46%" stop-color="rgb(128,128,128)"></stop><stop offset="100%" stop-color="rgb(0,0,0)"></stop></linearGradient><linearGradient id="__lottie_element_15439" spreadMethod="pad" gradientUnits="userSpaceOnUse" x1="77" y1="-85" x2="77" y2="-35"><stop offset="0%" stop-color="rgb(255,255,255)"></stop><stop offset="46%" stop-color="rgb(128,128,128)"></stop><stop offset="100%" stop-color="rgb(0,0,0)"></stop></linearGradient></defs><g clip-path="url(#__lottie_element_15421)"><g style="display: block;" transform="matrix(1,0,0,1,256,255.99998474121094)" opacity="1"><g opacity="0.1" transform="matrix(1,0,0,1,0,0)"><path fill="rgb(0,0,0)" fill-opacity="1" d=" M195.92300415039062,10.781999588012695 C195.92300415039062,119.04299926757812 108.15899658203125,206.80599975585938 -0.10199999809265137,206.80599975585938 C-108.36299896240234,206.80599975585938 -196.12600708007812,119.04299926757812 -196.12600708007812,10.781999588012695 C-196.12600708007812,-97.47899627685547 -108.36299896240234,-185.2429962158203 -0.10199999809265137,-185.2429962158203 C108.15899658203125,-185.2429962158203 195.92300415039062,-97.47899627685547 195.92300415039062,10.781999588012695z"></path></g><g opacity="1" transform="matrix(1,0,0,1,0,0)"><path fill="rgb(255,173,0)" fill-opacity="1" d=" M188.7740020751953,-4.2179999351501465 C188.7740020751953,100.09500122070312 104.21099853515625,184.65699768066406 -0.10199999809265137,184.65699768066406 C-104.41500091552734,184.65699768066406 -188.9770050048828,100.09500122070312 -188.9770050048828,-4.2179999351501465 C-188.9770050048828,-108.53099822998047 -104.41500091552734,-193.093994140625 -0.10199999809265137,-193.093994140625 C104.21099853515625,-193.093994140625 188.7740020751953,-108.53099822998047 188.7740020751953,-4.2179999351501465z"></path><path stroke-linecap="butt" stroke-linejoin="miter" fill-opacity="0" stroke-miterlimit="10" stroke="rgb(255,118,42)" stroke-opacity="1" stroke-width="8" d=" M188.7740020751953,-4.2179999351501465 C188.7740020751953,100.09500122070312 104.21099853515625,184.65699768066406 -0.10199999809265137,184.65699768066406 C-104.41500091552734,184.65699768066406 -188.9770050048828,100.09500122070312 -188.9770050048828,-4.2179999351501465 C-188.9770050048828,-108.53099822998047 -104.41500091552734,-193.093994140625 -0.10199999809265137,-193.093994140625 C104.21099853515625,-193.093994140625 188.7740020751953,-108.53099822998047 188.7740020751953,-4.2179999351501465z"></path></g><g opacity="1" transform="matrix(1,0,0,1,0,0)"><path fill="rgb(255,207,0)" fill-opacity="1" d=" M168.30599975585938,-3.50600004196167 C166.8489990234375,91.52200317382812 90.29499816894531,167.4029998779297 -2.683000087738037,165.97799682617188 C-95.66100311279297,164.55299377441406 -169.85400390625,86.36199951171875 -168.39700317382812,-8.666999816894531 C-166.9409942626953,-103.69599914550781 -90.38700103759766,-179.5749969482422 2.5910000801086426,-178.14999389648438 C95.56900024414062,-176.72500610351562 169.76300048828125,-98.53500366210938 168.30599975585938,-3.50600004196167z"></path></g><g opacity="0.9" transform="matrix(1,0,0,1,0,0)"><path fill="rgb(255,222,102)" fill-opacity="1" d=" M149.16600036621094,-46.64699935913086 C149.16600036621094,25.996000289916992 82.33599853515625,-31.468000411987305 -0.10199999809265137,-31.468000411987305 C-82.54000091552734,-31.468000411987305 -149.36900329589844,25.996000289916992 -149.36900329589844,-46.64699935913086 C-149.36900329589844,-119.29000091552734 -82.54000091552734,-178.1790008544922 -0.10199999809265137,-178.1790008544922 C82.33599853515625,-178.1790008544922 149.16600036621094,-119.29000091552734 149.16600036621094,-46.64699935913086z"></path></g><g opacity="1" transform="matrix(1,0,0,1,0,0)"><g opacity="1" transform="matrix(1,0,0,1,0,0)"><path stroke-linecap="round" stroke-linejoin="round" fill-opacity="0" stroke="rgb(255,255,255)" stroke-opacity="1" stroke-width="6" d=" M36.270999908447266,-173.9600067138672 C37.808998107910156,-173.625 39.40399932861328,-173.2550048828125 41.04899978637695,-172.8489990234375"></path></g><g opacity="1" transform="matrix(1,0,0,1,0,0)"><path stroke-linecap="round" stroke-linejoin="round" fill-opacity="0" stroke="rgb(255,255,255)" stroke-opacity="1" stroke-width="6" d=" M14.916999816894531,-177.1790008544922 C14.916999816894531,-177.1790008544922 19.784000396728516,-176.91900634765625 27.506999969482422,-175.64100646972656"></path></g></g></g><g style="display: block;" transform="matrix(1,0,0,1,256,255.99998474121094)" opacity="1"><g opacity="1" transform="matrix(1,0,0,1,0,0)"><path fill="rgb(255,173,0)" fill-opacity="1" d=" M145.3459930419922,-70.18699645996094 C47.638999938964844,-42.632999420166016 -94.6719970703125,-54.5 -147.36900329589844,-70.18699645996094 C-158.4510040283203,-69.5009994506836 -166.68699645996094,-70.52999877929688 -166.68699645996094,-59.558998107910156 C-166.68699645996094,-48.5880012512207 -159.8300018310547,-48.93000030517578 -156.74400329589844,-37.27299880981445 C-153.6580047607422,-25.615999221801758 -145.7729949951172,6.269999980926514 -133.08700561523438,17.927000045776367 C-121.30500030517578,28.753999710083008 -100.62899780273438,33.698001861572266 -81.42900085449219,33.698001861572266 C-62.229000091552734,33.698001861572266 -43.37200164794922,30.954999923706055 -26.915000915527344,12.784000396728516 C-13.47700023651123,-2.053999900817871 -5.581999778747559,-26.437000274658203 -3.871999979019165,-34.14899826049805 C-3.5190000534057617,-35.742000579833984 -2.6429998874664307,-36.87300109863281 -1.0110000371932983,-36.87300109863281 C-1.0110000371932983,-36.87300109863281 -1.0110000371932983,-36.87300109863281 -1.0110000371932983,-36.87300109863281 C-1.0110000371932983,-36.87300109863281 -1.0110000371932983,-36.87300109863281 -1.0110000371932983,-36.87300109863281 C0.6209999918937683,-36.87300109863281 1.496999979019165,-35.742000579833984 1.850000023841858,-34.14899826049805 C3.559999942779541,-26.437000274658203 11.454999923706055,-2.053999900817871 24.89299964904785,12.784000396728516 C41.349998474121094,30.954999923706055 60.20800018310547,33.698001861572266 79.40799713134766,33.698001861572266 C98.60800170898438,33.698001861572266 119.28199768066406,28.753999710083008 131.06399536132812,17.927000045776367 C143.75,6.269999980926514 151.63600158691406,-25.615999221801758 154.7209930419922,-37.27299880981445 C157.8070068359375,-48.93000030517578 164.66400146484375,-48.5880012512207 164.66400146484375,-59.558998107910156 C164.66400146484375,-70.52999877929688 156.4290008544922,-69.5009994506836 145.3459930419922,-70.18699645996094z"></path></g></g><g style="display: block;" transform="matrix(1,0,0,1,256,255.99996948242188)" opacity="1"><g opacity="1" transform="matrix(1,0,0,1,0,0)"><path fill="rgb(255,237,182)" fill-opacity="1" d=" M89.25199890136719,49.46099853515625 C84.43000030517578,45.87200164794922 61.659000396728516,83.0770034790039 -1.2569999694824219,83.0770034790039 C-62.78200149536133,83.0770034790039 -87.38500213623047,45.34400177001953 -91.76599884033203,49.46099853515625 C-100.67400360107422,57.83100128173828 -65.91100311279297,108.57499694824219 -1.2569999694824219,108.57499694824219 C63.39699935913086,108.57499694824219 100.03900146484375,57.4900016784668 89.25199890136719,49.46099853515625z"></path></g><g opacity="1" transform="matrix(1,0,0,1,0,0)"><path fill="rgb(255,173,0)" fill-opacity="1" d=" M89.41799926757812,49.59199905395508 C83.21199798583984,43.426998138427734 61.319000244140625,73.18199920654297 -1.2569999694824219,73.18199920654297 C-62.45000076293945,73.18199920654297 -85.54100036621094,43.61899948120117 -91.91799926757812,49.61399841308594 C-96.94999694824219,54.34400177001953 -65.56099700927734,102.44599914550781 -1.2569999694824219,102.44599914550781 C63.047000885009766,102.44599914550781 94.31800079345703,54.45899963378906 89.41799926757812,49.59199905395508z"></path></g><g opacity="1" transform="matrix(1,0,0,1,0,0)"><path fill="rgb(143,58,0)" fill-opacity="1" d=" M89.25199890136719,51.46099853515625 C84.63999938964844,47.702999114990234 60.57899856567383,79.23400115966797 -1.2569999694824219,79.23400115966797 C-61.72700119018555,79.23400115966797 -87.15399932861328,47.702999114990234 -91.76599884033203,51.46099853515625 C-97.10399627685547,55.81100082397461 -64.8010025024414,102.73200225830078 -1.2569999694824219,102.73200225830078 C62.2869987487793,102.73200225830078 94.58999633789062,55.81100082397461 89.25199890136719,51.46099853515625z"></path></g><g opacity="1" transform="matrix(1,0,0,1,0,0)"><path fill="rgb(116,24,0)" fill-opacity="1" d=" M89.0770034790039,56.1870002746582 C84.0770034790039,53.33700180053711 59.86800003051758,85.0770034790039 -1.2519999742507935,85.0770034790039 C-61.02199935913086,85.0770034790039 -86.56199645996094,53.33700180053711 -91.59200286865234,56.1870002746582 C-92.51200103759766,53.80699920654297 -92.58200073242188,52.12699890136719 -91.76200103759766,51.457000732421875 C-87.1520004272461,47.707000732421875 -61.72200012207031,79.23699951171875 -1.2519999742507935,79.23699951171875 C60.577999114990234,79.23699951171875 84.63700103759766,47.707000732421875 89.24700164794922,51.457000732421875 C90.06700134277344,52.12699890136719 89.99700164794922,53.80699920654297 89.0770034790039,56.1870002746582z"></path></g></g><g style="display: none;"><g><g><path></path></g><g><path></path></g><g><path></path></g></g><g><g><path></path></g><g><path></path></g><g><path></path></g></g></g><g style="display: none;"><g><path></path></g><g><path></path></g><g><path></path></g><g><path></path></g><g><path></path></g><g><path></path></g><g><path></path></g><g><path></path></g><g><path></path></g></g><g style="display: block;" transform="matrix(1,0,0,1,256,255.99998474121094)" opacity="1"><g opacity="1" transform="matrix(1,0,0,1,0,0)"><path fill="rgb(29,29,27)" fill-opacity="1" d=" M145.3459930419922,-79.18699645996094 C134.26400756835938,-79.87300109863281 76.35199737548828,-80.49099731445312 48.54999923706055,-74.04399871826172 C24.89299964904785,-68.55799865722656 12.26099967956543,-61.810001373291016 -1.0110000371932983,-61.35900115966797 C-14.282999992370605,-61.810001373291016 -26.915000915527344,-68.55799865722656 -50.571998596191406,-74.04399871826172 C-78.3740005493164,-80.49099731445312 -136.28700256347656,-79.87300109863281 -147.36900329589844,-79.18699645996094 C-158.4510040283203,-78.5009994506836 -162.68699645996094,-79.52999877929688 -162.68699645996094,-68.55899810791016 C-162.68699645996094,-57.5880012512207 -155.8300018310547,-57.93000030517578 -152.74400329589844,-46.27299880981445 C-149.6580047607422,-34.61600112915039 -141.7729949951172,-2.7300000190734863 -129.08700561523438,8.927000045776367 C-117.30500030517578,19.753999710083008 -100.62899780273438,24.697999954223633 -81.42900085449219,24.697999954223633 C-62.229000091552734,24.697999954223633 -43.37200164794922,21.954999923706055 -26.915000915527344,3.7839999198913574 C-13.47700023651123,-11.053999900817871 -7.581999778747559,-33.4370002746582 -5.872000217437744,-41.14899826049805 C-5.519000053405762,-42.742000579833984 -4.111000061035156,-43.87300109863281 -2.4790000915527344,-43.87300109863281 C-2.4790000915527344,-43.87300109863281 -1.0110000371932983,-43.87300109863281 -1.0110000371932983,-43.87300109863281 C-1.0110000371932983,-43.87300109863281 0.4569999873638153,-43.87300109863281 0.4569999873638153,-43.87300109863281 C2.0889999866485596,-43.87300109863281 3.496999979019165,-42.742000579833984 3.8499999046325684,-41.14899826049805 C5.559999942779541,-33.4370002746582 11.454999923706055,-11.053999900817871 24.89299964904785,3.7839999198913574 C41.349998474121094,21.954999923706055 60.207000732421875,24.697999954223633 79.40699768066406,24.697999954223633 C98.60700225830078,24.697999954223633 115.28199768066406,19.753999710083008 127.06400299072266,8.927000045776367 C139.75,-2.7300000190734863 147.63600158691406,-34.61600112915039 150.7209930419922,-46.27299880981445 C153.8070068359375,-57.93000030517578 160.66400146484375,-57.5880012512207 160.66400146484375,-68.55899810791016 C160.66400146484375,-79.52999877929688 156.4290008544922,-78.5009994506836 145.3459930419922,-79.18699645996094z"></path></g><g opacity="0.35000000000000003" transform="matrix(1,0,0,1,0,0)"><path fill="rgb(255,255,255)" fill-opacity="1" d=" M-85.20099639892578,-64.43699645996094 C-110.41699981689453,-65.8759994506836 -120.76599884033203,-65.9749984741211 -127.7979965209961,-63.84299850463867 C-135.7469940185547,-61.43299865722656 -141.52000427246094,-52.66400146484375 -136.9149932861328,-34.84600067138672 C-132.30999755859375,-17.027999877929688 -128.29200744628906,-3.0399999618530273 -118.78800201416016,3.746000051498413 C-111.91699981689453,8.652000427246094 -100.28500366210938,14.25 -82.38899993896484,14.25 C-66.90299987792969,14.25 -52.9739990234375,12.076000213623047 -41.63999938964844,1.2580000162124634 C-30.305999755859375,-9.5600004196167 -23.784000396728516,-31.593000411987305 -21.923999786376953,-43.297000885009766 C-20.295000076293945,-53.551998138427734 -37.742000579833984,-61.72800064086914 -85.20099639892578,-64.43699645996094z"></path></g><g opacity="1" transform="matrix(1,0,0,1,0,0)"><path fill="url(#__lottie_element_15438)" fill-opacity="1" d=" M-84.51300048828125,-66.55999755859375 C-108.9219970703125,-67.97200012207031 -121.30799865722656,-66.50800323486328 -128.11500549316406,-64.41600036621094 C-135.80999755859375,-62.05099868774414 -140.4290008544922,-53.44499969482422 -135.9720001220703,-35.95899963378906 C-131.51499938964844,-18.472999572753906 -125.31500244140625,-5.218999862670898 -116.11499786376953,1.440999984741211 C-109.46399688720703,6.25600004196167 -99.1729965209961,10.781999588012695 -81.8489990234375,10.781999588012695 C-66.85800170898438,10.781999588012695 -54.34299850463867,9.616000175476074 -43.37200164794922,-1 C-32.4010009765625,-11.616000175476074 -23.57200050354004,-32.387001037597656 -21.77199935913086,-43.87300109863281 C-20.19499969482422,-53.9370002746582 -38.571998596191406,-63.902000427246094 -84.51300048828125,-66.55999755859375z"></path></g><g opacity="0.35000000000000003" transform="matrix(1,0,0,1,0,0)"><path fill="rgb(255,255,255)" fill-opacity="1" d=" M83.17900085449219,-64.44200134277344 C108.3949966430664,-65.87699890136719 118.74299621582031,-65.9749984741211 125.7750015258789,-63.849998474121094 C133.7239990234375,-61.446998596191406 139.4969940185547,-52.70500183105469 134.89199829101562,-34.94300079345703 C130.28700256347656,-17.180999755859375 126.2699966430664,-3.236999988555908 116.76599884033203,3.5280001163482666 C109.8949966430664,8.418999671936035 98.26200103759766,14 80.36599731445312,14 C64.87999725341797,14 50.95100021362305,11.833000183105469 39.617000579833984,1.0490000247955322 C28.283000946044922,-9.734999656677246 21.761999130249023,-31.701000213623047 19.902000427246094,-43.36800003051758 C18.273000717163086,-53.590999603271484 35.720001220703125,-61.74100112915039 83.17900085449219,-64.44200134277344z"></path></g><g opacity="1" transform="matrix(1,0,0,1,0,0)"><path fill="url(#__lottie_element_15439)" fill-opacity="1" d=" M133.9499969482422,-35.959999084472656 C129.49000549316406,-18.469999313354492 123.29000091552734,-5.21999979019165 114.08999633789062,1.440000057220459 C107.44000244140625,6.260000228881836 97.1500015258789,10.779999732971191 79.83000183105469,10.779999732971191 C79.38999938964844,10.779999732971191 78.95999908447266,10.779999732971191 78.5199966430664,10.770000457763672 C72.41000366210938,10.75 66.70999908447266,10.479999542236328 61.36000061035156,9.390000343322754 C56.61000061035156,8.430000305175781 52.130001068115234,6.820000171661377 47.88999938964844,4.150000095367432 C45.650001525878906,2.75 43.470001220703125,1.0499999523162842 41.349998474121094,-1 C36.20000076293945,-5.980000019073486 31.540000915527344,-13.1899995803833 27.84000015258789,-20.6200008392334 C23.649999618530273,-29.049999237060547 20.709999084472656,-37.77000045776367 19.75,-43.869998931884766 C18.459999084472656,-52.06999969482422 30.399999618530273,-60.189998626708984 59.650001525878906,-64.36000061035156 C66.33999633789062,-65.31999969482422 73.94000244140625,-66.05999755859375 82.48999786376953,-66.55999755859375 C89.06999969482422,-66.94000244140625 94.76000213623047,-67.11000061035156 99.7300033569336,-67.12000274658203 C106.62999725341797,-67.12999725341797 112.08999633789062,-66.81999969482422 116.43000030517578,-66.30999755859375 C120.55000305175781,-65.81999969482422 123.66999816894531,-65.16000366210938 126.08999633789062,-64.41999816894531 C127.97000122070312,-63.84000015258789 129.6699981689453,-62.88999938964844 131.10000610351562,-61.5099983215332 C135.50999450683594,-57.29999923706055 137.32000732421875,-49.15999984741211 133.9499969482422,-35.959999084472656z"></path></g></g><g style="display: none;"><g><path></path></g></g></g></svg>