<svg xmlns="http://www.w3.org/2000/svg" viewBox="0 0 512 512" width="512" height="512" style="width: 100%; height: 100%; transform: translate3d(0,0,0);" preserveAspectRatio="xMidYMid meet"><defs><clipPath id="__lottie_element_15968"><rect width="512" height="512" x="0" y="0"></rect></clipPath></defs><g clip-path="url(#__lottie_element_15968)"><g style="display: block;" transform="matrix(1.3799999952316284,0,0,1.3799999952316284,259.71759033203125,288.8821716308594)" opacity="1"><g opacity="1" transform="matrix(1,0,0,1,0,0)"><path fill="rgb(255,209,64)" fill-opacity="1" d=" M108.56900024414062,-105.84700012207031 C116.46199798583984,-68.31600189208984 131.21499633789062,-18.11400032043457 113.6969985961914,40.69499969482422 C97.74299621582031,94.25700378417969 79.62799835205078,127.86199951171875 12.842000007629395,128.1649932861328 C-53.77399826049805,128.4669952392578 -87.44400024414062,103.35700225830078 -104.53800201416016,61.777000427246094 C-115.90299987792969,34.13399887084961 -127.56600189208984,-44.7400016784668 -118.9010009765625,-91.1969985961914 C-118.59700012207031,-92.8270034790039 -117.98799896240234,-94.40599822998047 -117.0979995727539,-95.93199920654297 C-112.98799896240234,-102.98400115966797 -102.88099670410156,-108.927001953125 -89.0979995727539,-113.71299743652344 C-85.94200134277344,-114.80899810791016 -82.59400177001953,-115.84400177001953 -79.08000183105469,-116.81800079345703 C-75.9489974975586,-117.68599700927734 -72.68800354003906,-118.50499725341797 -69.31500244140625,-119.2750015258789 C-57.244998931884766,-122.03199768066406 -43.75,-124.16000366210938 -29.735000610351562,-125.64299774169922 C-20.863000869750977,-126.58200073242188 -11.782999992370605,-127.26200103759766 -2.7239999771118164,-127.6780014038086 C1.6950000524520874,-127.88099670410156 6.109000205993652,-128.02099609375 10.491000175476074,-128.09800720214844 C28.80500030517578,-128.4199981689453 46.56800079345703,-127.63600158691406 61.84000015258789,-125.70899963378906 C66.29499816894531,-125.14700317382812 70.53900146484375,-124.48699951171875 74.52200317382812,-123.72899627685547 C76.60199737548828,-123.33300018310547 78.61000061035156,-122.91100311279297 80.54100036621094,-122.46099853515625 C96.4010009765625,-118.76799774169922 107.01100158691406,-113.25599670410156 108.56900024414062,-105.84700012207031z"></path></g></g><g style="display: block;" transform="matrix(1.3799999952316284,0,0,1.3799999952316284,343.6947021484375,211.82986450195312)" opacity="1"><g opacity="1" transform="matrix(1,0,0,1,0,0)"><path fill="rgb(255,177,57)" fill-opacity="1" d=" M57.27000045776367,2.7339999675750732 C57.27000045776367,2.7339999675750732 59.89099884033203,31.211000442504883 59.89099884033203,31.211000442504883 C59.89099884033203,31.211000442504883 36.48699951171875,20.93600082397461 36.48699951171875,20.93600082397461 C36.48699951171875,20.93600082397461 44.7859992980957,-11.833000183105469 57.27000045776367,2.7339999675750732z"></path></g></g><g style="display: block;" transform="matrix(1.3799999952316284,0,0,1.3799999952316284,293.68212890625,323.48291015625)" opacity="1"><g opacity="1" transform="matrix(1,0,0,1,0,0)"><path fill="rgb(255,177,57)" fill-opacity="1" d=" M26.434999465942383,-17.17099952697754 C26.434999465942383,-17.17099952697754 -1.628999948501587,-16.26099967956543 -21.729000091552734,23.288000106811523 C-27.488000869750977,34.61899948120117 -30.195999145507812,11.482000350952148 -16.437999725341797,-10.062000274658203 C-8.52400016784668,-22.454999923706055 0.7599999904632568,-26.472999572753906 8.791000366210938,-26.259000778198242 C16.760000228881836,-26.047000885009766 23.4950008392334,-21.66699981689453 26.434999465942383,-17.17099952697754z"></path></g></g><g style="display: block;" transform="matrix(0.9981549382209778,0.01040076743811369,-0.01040076743811369,0.9981549382209778,261.88555908203125,290.29254150390625)" opacity="1"><g opacity="1" transform="matrix(1,0,0,1,0,0)"><path fill="rgb(255,177,57)" fill-opacity="1" d=" M66.71499633789062,-114.0780029296875 C67.75199890136719,-124.5739974975586 49.86800003051758,-138.5500030517578 31.34600067138672,-137.3419952392578 C8.848999977111816,-135.875 -1.3569999933242798,-133.99000549316406 -3.058000087738037,-114.802001953125 C-3.8949999809265137,-105.36399841308594 -4.390999794006348,-90.3740005493164 2.2839999198913574,-77.26899719238281 C10.847000122070312,-60.457000732421875 41.1349983215332,-55.12200164794922 57.16400146484375,-75.1510009765625 C64.36100006103516,-84.14399719238281 64.89600372314453,-95.65699768066406 66.71499633789062,-114.0780029296875z"></path></g></g><g style="display: block;" transform="matrix(0.9981549382209778,0.01040076743811369,-0.01040076743811369,0.9981549382209778,340.8312072753906,287.30621337890625)" opacity="1"><g opacity="1" transform="matrix(1,0,0,1,0,0)"><path fill="rgb(255,177,57)" fill-opacity="1" d=" M13.081999778747559,-152.14199829101562 C-26.16699981689453,-151.63999938964844 -18.900999069213867,-113.85199737548828 -23.219999313354492,-93.71800231933594 C-29.07900047302246,-66.40299987792969 36.09600067138672,-58.2239990234375 55.928001403808594,-91.60099792480469 C61.8120002746582,-101.50299835205078 52.512001037597656,-152.64599609375 13.081999778747559,-152.14199829101562z"></path></g></g><g style="display: block;" transform="matrix(1.3799999952316284,0,0,1.3799999952316284,272.0796203613281,138.84030151367188)" opacity="1"><g opacity="1" transform="matrix(1,0,0,1,0,0)"><path fill="rgb(255,177,57)" fill-opacity="1" d=" M-51.75,58.25 C-59.733001708984375,85.08100128173828 -42.45199966430664,106.6969985961914 -16.5,109.25 C-1.25,110.75 25,110.75 37.75,110 C50.5,109.25 66.08899688720703,86.5979995727539 49,71.75 C33.75,58.5 -42.75,28 -51.75,58.25z"></path></g></g><g style="display: block;" transform="matrix(1.3799999952316284,0,0,1.3799999952316284,265.72747802734375,326.8432312011719)" opacity="1"><g opacity="1" transform="matrix(1,0,0,1,0,0)"><path fill="rgb(255,177,57)" fill-opacity="1" d=" M-125.60399627685547,-99.7249984741211 C-111.7699966430664,-101.03399658203125 -93.4280014038086,-101.2300033569336 -70.05599975585938,-98.56500244140625 C-62.17399978637695,-97.66600036621094 -53.720001220703125,-96.44200134277344 -44.67399978637695,-94.82499694824219 C-44.13100051879883,-94.72799682617188 -42.71699905395508,-94.5979995727539 -40.71900177001953,-94.38200378417969 C-28.472000122070312,-93.05899810791016 5.703999996185303,-88.53299713134766 -4.50600004196167,-68.93199920654297 C-14.4399995803833,-49.861000061035156 -47.11199951171875,-46.40299987792969 -64.00700378417969,-59.78200149536133 C-64.78399658203125,-60.39699935913086 -65.52799987792969,-61.04800033569336 -66.23400115966797,-61.73500061035156 C-85.49099731445312,-43.21900177001953 -127.5199966430664,-43.400001525878906 -125.60399627685547,-99.7249984741211z"></path></g></g><g style="display: block;" transform="matrix(1.3799999952316284,0,0,1.3799999952316284,265.72747802734375,326.8432312011719)" opacity="1"><g opacity="1" transform="matrix(1,0,0,1,0,0)"><path fill="rgb(255,177,57)" fill-opacity="1" d=" M126.26599884033203,-3.7149999141693115 C126.26599884033203,-3.7149999141693115 126.26599884033203,-3.694999933242798 126.26599884033203,-3.694999933242798 C119.72599792480469,25.045000076293945 103.09600067138672,58.80500030517578 72.08599853515625,82.25499725341797 C72.06600189208984,82.2750015258789 72.0459976196289,82.28500366210938 72.0260009765625,82.30500030517578 C57.555999755859375,94.03500366210938 37.66600036621094,100.5250015258789 8.486000061035156,100.65499877929688 C-58.124000549316406,100.95500183105469 -91.79399871826172,75.84500122070312 -108.89399719238281,34.26499938964844 C-118.8239974975586,10.114999771118164 -128.98399353027344,-53.14500045776367 -125.60399627685547,-99.7249984741211 C-121.91699981689453,-100.0739974975586 -117.84700012207031,-101.36599731445312 -115.0739974975586,-101.14199829101562 C-112.88899993896484,-100.96499633789062 -111.50900268554688,-99.8489990234375 -111.75299835205078,-96.58799743652344 C-112.19200134277344,-90.7239990234375 -112.17500305175781,-83.0719985961914 -111.99800109863281,-76.01499938964844 C-111.73400115966797,-65.5009994506836 -111.11399841308594,-56.30500030517578 -111.11399841308594,-56.30500030517578 C-109.85600280761719,-27.98699951171875 -104.96199798583984,0.22200000286102295 -92.17400360107422,22.992000579833984 C-79.70899963378906,45.18600082397461 -59.744998931884766,62.21200180053711 -28.336999893188477,69.13300323486328 C-21.979999542236328,70.53399658203125 -15.154000282287598,71.52100372314453 -7.827000141143799,72.0530014038086 C-1.7619999647140503,72.49299621582031 5.263999938964844,72.43699645996094 12.612000465393066,71.93399810791016 C32.321998596191406,70.58399963378906 54.35100173950195,66.01499938964844 66.38600158691406,59.1609992980957 C84.74400329589844,48.70600128173828 102.50299835205078,32.404998779296875 110.25499725341797,20.718000411987305 C118.48899841308594,8.303999900817871 126.26599884033203,-3.7149999141693115 126.26599884033203,-3.7149999141693115z"></path></g></g><g style="display: block;" transform="matrix(1.3799999952316284,0,0,1.3799999952316284,259.1379699707031,291.5317687988281)" opacity="1"><g opacity="1" transform="matrix(1,0,0,1,0,0)"><path stroke-linecap="round" stroke-linejoin="round" fill-opacity="0" stroke="rgb(247,126,65)" stroke-opacity="1" stroke-width="6" d=" M117.10299682617188,-115.47899627685547 C117.29100036621094,-101.3270034790039 116.92900085449219,-73.79000091552734 119.8239974975586,-49.185001373291016 C122.37999725341797,-20.792999267578125 123.02999877929688,8.854000091552734 114.11699676513672,38.775001525878906 C98.16200256347656,92.33699798583984 80.0479965209961,125.94200134277344 13.26200008392334,126.24500274658203 C-53.354000091552734,126.5469970703125 -88.78700256347656,102.11900329589844 -104.11799621582031,59.856998443603516 C-120.46600341796875,14.791999816894531 -124.81300354003906,-51.512001037597656 -118.1760025024414,-94.2490005493164"></path></g></g><g style="display: block;" transform="matrix(1.0000032186508179,0,0,1.0000032186508179,255.99984741210938,259.1997985839844)" opacity="1"><g opacity="1" transform="matrix(1,0,0,1,0,0)"><path stroke-linecap="round" stroke-linejoin="miter" fill-opacity="0" stroke-miterlimit="4" stroke="rgb(247,126,65)" stroke-opacity="1" stroke-width="8" d=" M-86,-123 C-84.25,-109.5 -84.56199645996094,-94.31300354003906 -80.25,-94.5 C-74.5,-94.75 -78.25,-110 -78.5,-124.25"></path></g></g><g style="display: block;" transform="matrix(0.9994534254074097,0.03315528482198715,-0.03315528482198715,0.9994534254074097,336.322265625,256.3103942871094)" opacity="1"><g opacity="1" transform="matrix(1,0,0,1,0,0)"><path stroke-linecap="round" stroke-linejoin="miter" fill-opacity="0" stroke-miterlimit="4" stroke="rgb(247,126,65)" stroke-opacity="1" stroke-width="8" d=" M-86,-123 C-84.25,-109.5 -84.56199645996094,-94.31300354003906 -80.25,-94.5 C-74.5,-94.75 -78.25,-110 -78.5,-124.25"></path></g></g><g style="display: block;" transform="matrix(0.9969205856323242,0.07845934480428696,-0.07845934480428696,0.9969205856323242,414.8378601074219,256.20855712890625)" opacity="1"><g opacity="1" transform="matrix(1,0,0,1,0,0)"><path stroke-linecap="round" stroke-linejoin="miter" fill-opacity="0" stroke-miterlimit="4" stroke="rgb(247,126,65)" stroke-opacity="1" stroke-width="8" d=" M-86,-123 C-84.25,-109.5 -84.56199645996094,-94.31300354003906 -80.25,-94.5 C-74.5,-94.75 -78.25,-110 -78.5,-124.25"></path></g></g><g style="display: block;" transform="matrix(1.3799999952316284,0,0,1.3799999952316284,2.80023193359375,-164.97088623046875)" opacity="1"><g opacity="1" transform="matrix(1,0,0,1,276.00299072265625,235.11900329589844)"><path fill="rgb(255,209,64)" fill-opacity="1" d=" M28.996999740600586,-23.118999481201172 C27.302000045776367,-40.06399917602539 18.993000030517578,-56.2140007019043 -4.002999782562256,-55.11899948120117 C-25.003000259399414,-54.11899948120117 -32.17300033569336,-37.724998474121094 -30.58799934387207,-17.422000885009766 C-29.003000259399414,2.88100004196167 -38.887001037597656,52.275001525878906 -0.4449999928474426,55.077999114990234 C37.99700164794922,57.88100051879883 30.996999740600586,-3.11899995803833 28.996999740600586,-23.118999481201172z"></path><path fill="rgb(255,223,121)" fill-opacity="0" d=" M28.996999740600586,-23.118999481201172 C27.302000045776367,-40.06399917602539 18.993000030517578,-56.2140007019043 -4.002999782562256,-55.11899948120117 C-25.003000259399414,-54.11899948120117 -32.17300033569336,-37.724998474121094 -30.58799934387207,-17.422000885009766 C-29.003000259399414,2.88100004196167 -38.887001037597656,52.275001525878906 -0.4449999928474426,55.077999114990234 C37.99700164794922,57.88100051879883 30.996999740600586,-3.11899995803833 28.996999740600586,-23.118999481201172z"></path></g><g opacity="1" transform="matrix(1,0,0,1,276.7539978027344,258.7919921875)"><path fill="rgb(255,209,64)" fill-opacity="1" d=" M-26.799999237060547,-31.20800018310547 C-26.753999710083008,-22.79199981689453 -24.753999710083008,-0.7919999957084656 -0.7540000081062317,-0.7919999957084656 C26.263999938964844,-0.7919999957084656 27.775999069213867,-21.624000549316406 27.51099967956543,-31.20800018310547 C27.51099967956543,-31.20800018310547 38.24599838256836,31.20800018310547 -0.7540000081062317,31.20800018310547 C-39.75400161743164,31.20800018310547 -26.799999237060547,-31.20800018310547 -26.799999237060547,-31.20800018310547z"></path><path fill="rgb(255,177,57)" fill-opacity="1" d=" M-26.799999237060547,-31.20800018310547 C-26.753999710083008,-22.79199981689453 -24.753999710083008,-0.7919999957084656 -0.7540000081062317,-0.7919999957084656 C26.263999938964844,-0.7919999957084656 27.775999069213867,-21.624000549316406 27.51099967956543,-31.20800018310547 C27.51099967956543,-31.20800018310547 38.24599838256836,31.20800018310547 -0.7540000081062317,31.20800018310547 C-39.75400161743164,31.20800018310547 -26.799999237060547,-31.20800018310547 -26.799999237060547,-31.20800018310547z"></path></g><g opacity="1" transform="matrix(1,0,0,1,276,205.47500610351562)"><path fill="rgb(255,223,121)" fill-opacity="1" d=" M-28.618999481201172,25.538000106811523 C-28.618999481201172,25.538000106811523 -27.013999938964844,-10.640000343322754 -5,-12.475000381469727 C19,-14.475000381469727 26.520999908447266,12.550000190734863 28.76099967956543,25.538000106811523 C28.76099967956543,25.538000106811523 40,-24.475000381469727 -4,-25.475000381469727 C-4,-25.475000381469727 -37.237998962402344,-29.450000762939453 -28.618999481201172,25.538000106811523z"></path></g><g opacity="1" transform="matrix(1,0,0,1,276.00299072265625,235.11900329589844)"><path stroke-linecap="butt" stroke-linejoin="miter" fill-opacity="0" stroke-miterlimit="10" stroke="rgb(247,126,65)" stroke-opacity="1" stroke-width="6" d=" M28.996999740600586,-23.118999481201172 C27.302000045776367,-40.06399917602539 18.993000030517578,-56.2140007019043 -4.002999782562256,-55.11899948120117 C-25.003000259399414,-54.11899948120117 -32.17300033569336,-37.724998474121094 -30.58799934387207,-17.422000885009766 C-29.003000259399414,2.88100004196167 -38.887001037597656,52.275001525878906 -0.4449999928474426,55.077999114990234 C37.99700164794922,57.88100051879883 30.996999740600586,-3.11899995803833 28.996999740600586,-23.118999481201172z"></path></g><g opacity="1" transform="matrix(1,0,0,1,277.47198486328125,259.5360107421875)"><path stroke-linecap="round" stroke-linejoin="round" fill-opacity="0" stroke="rgb(247,126,65)" stroke-opacity="1" stroke-width="6" d=" M-5.364999771118164,-0.06800000369548798 C-5.364999771118164,-0.06800000369548798 0,1.3459999561309814 5.364999771118164,-0.45899999141693115"></path></g></g><g style="display: block;" transform="matrix(1.3799999952316284,0,0,1.3799999952316284,-81.20037841796875,-170.9697265625)" opacity="1"><g opacity="1" transform="matrix(1,0,0,1,276.00299072265625,235.11900329589844)"><path fill="rgb(255,209,64)" fill-opacity="1" d=" M28.996999740600586,-23.118999481201172 C27.302000045776367,-40.06399917602539 18.993000030517578,-56.2140007019043 -4.002999782562256,-55.11899948120117 C-25.003000259399414,-54.11899948120117 -32.17300033569336,-37.724998474121094 -30.58799934387207,-17.422000885009766 C-29.003000259399414,2.88100004196167 -38.887001037597656,52.275001525878906 -0.4449999928474426,55.077999114990234 C37.99700164794922,57.88100051879883 30.996999740600586,-3.11899995803833 28.996999740600586,-23.118999481201172z"></path><path fill="rgb(255,223,121)" fill-opacity="0" d=" M28.996999740600586,-23.118999481201172 C27.302000045776367,-40.06399917602539 18.993000030517578,-56.2140007019043 -4.002999782562256,-55.11899948120117 C-25.003000259399414,-54.11899948120117 -32.17300033569336,-37.724998474121094 -30.58799934387207,-17.422000885009766 C-29.003000259399414,2.88100004196167 -38.887001037597656,52.275001525878906 -0.4449999928474426,55.077999114990234 C37.99700164794922,57.88100051879883 30.996999740600586,-3.11899995803833 28.996999740600586,-23.118999481201172z"></path></g><g opacity="1" transform="matrix(1,0,0,1,276.7539978027344,258.7919921875)"><path fill="rgb(255,209,64)" fill-opacity="1" d=" M-26.799999237060547,-31.20800018310547 C-26.753999710083008,-22.79199981689453 -24.753999710083008,-0.7919999957084656 -0.7540000081062317,-0.7919999957084656 C26.263999938964844,-0.7919999957084656 27.775999069213867,-21.624000549316406 27.51099967956543,-31.20800018310547 C27.51099967956543,-31.20800018310547 38.24599838256836,31.20800018310547 -0.7540000081062317,31.20800018310547 C-39.75400161743164,31.20800018310547 -26.799999237060547,-31.20800018310547 -26.799999237060547,-31.20800018310547z"></path><path fill="rgb(255,177,57)" fill-opacity="1" d=" M-26.799999237060547,-31.20800018310547 C-26.753999710083008,-22.79199981689453 -24.753999710083008,-0.7919999957084656 -0.7540000081062317,-0.7919999957084656 C26.263999938964844,-0.7919999957084656 27.775999069213867,-21.624000549316406 27.51099967956543,-31.20800018310547 C27.51099967956543,-31.20800018310547 38.24599838256836,31.20800018310547 -0.7540000081062317,31.20800018310547 C-39.75400161743164,31.20800018310547 -26.799999237060547,-31.20800018310547 -26.799999237060547,-31.20800018310547z"></path></g><g opacity="1" transform="matrix(1,0,0,1,276,205.47500610351562)"><path fill="rgb(255,223,121)" fill-opacity="1" d=" M-28.618999481201172,25.538000106811523 C-28.618999481201172,25.538000106811523 -27.013999938964844,-10.640000343322754 -5,-12.475000381469727 C19,-14.475000381469727 26.520999908447266,12.550000190734863 28.76099967956543,25.538000106811523 C28.76099967956543,25.538000106811523 40,-24.475000381469727 -4,-25.475000381469727 C-4,-25.475000381469727 -37.237998962402344,-29.450000762939453 -28.618999481201172,25.538000106811523z"></path></g><g opacity="1" transform="matrix(1,0,0,1,276,205.47500610351562)"><path stroke-linecap="round" stroke-linejoin="round" fill-opacity="0" stroke="rgb(255,255,255)" stroke-opacity="1" stroke-width="0" d=" M17.2810001373291,-2.9079999923706055 C18.45599937438965,-1.4859999418258667 19.520999908447266,0.039000000804662704 20.486000061035156,1.628000020980835"></path></g><g opacity="1" transform="matrix(1,0,0,1,276.00299072265625,235.11900329589844)"><path stroke-linecap="butt" stroke-linejoin="miter" fill-opacity="0" stroke-miterlimit="10" stroke="rgb(247,126,65)" stroke-opacity="1" stroke-width="6" d=" M28.996999740600586,-23.118999481201172 C27.302000045776367,-40.06399917602539 18.993000030517578,-56.2140007019043 -4.002999782562256,-55.11899948120117 C-25.003000259399414,-54.11899948120117 -32.17300033569336,-37.724998474121094 -30.58799934387207,-17.422000885009766 C-29.003000259399414,2.88100004196167 -38.887001037597656,52.275001525878906 -0.4449999928474426,55.077999114990234 C37.99700164794922,57.88100051879883 30.996999740600586,-3.11899995803833 28.996999740600586,-23.118999481201172z"></path></g><g opacity="1" transform="matrix(1,0,0,1,277.47198486328125,259.5360107421875)"><path stroke-linecap="round" stroke-linejoin="round" fill-opacity="0" stroke="rgb(247,126,65)" stroke-opacity="1" stroke-width="6" d=" M-5.364999771118164,-0.06800000369548798 C-5.364999771118164,-0.06800000369548798 0,1.3459999561309814 5.364999771118164,-0.45899999141693115"></path></g></g><g style="display: block;" transform="matrix(1.3799999952316284,0,0,1.3799999952316284,-81.112060546875,-170.37493896484375)" opacity="1"><g opacity="1" transform="matrix(1,0,0,1,216.58399963378906,240.0030059814453)"><path fill="rgb(255,209,64)" fill-opacity="1" d=" M-5.380000114440918,-51.91299819946289 C-25.64900016784668,-49.67300033569336 -34.15399932861328,-31.5310001373291 -30.64699935913086,6.11299991607666 C-27.36199951171875,41.374000549316406 -13.515000343322754,52.19900131225586 3.490000009536743,52.15800094604492 C18.634000778198242,52.12200164794922 31.31599998474121,39.24399948120117 31.415000915527344,6.192999839782715 C31.5049991607666,-24.01099967956543 24.740999221801758,-55.242000579833984 -5.380000114440918,-51.91299819946289z"></path><path fill="rgb(255,223,121)" fill-opacity="0" d=" M-5.380000114440918,-51.91299819946289 C-25.64900016784668,-49.67300033569336 -34.15399932861328,-31.5310001373291 -30.64699935913086,6.11299991607666 C-27.36199951171875,41.374000549316406 -13.515000343322754,52.19900131225586 3.490000009536743,52.15800094604492 C18.634000778198242,52.12200164794922 31.31599998474121,39.24399948120117 31.415000915527344,6.192999839782715 C31.5049991607666,-24.01099967956543 24.740999221801758,-55.242000579833984 -5.380000114440918,-51.91299819946289z"></path></g><g opacity="1" transform="matrix(1,0,0,1,216.38699340820312,261.58599853515625)"><path fill="rgb(255,209,64)" fill-opacity="1" d=" M28.0310001373291,-39.99399948120117 C36.4119987487793,15.859999656677246 18.834999084472656,30.542999267578125 3.684999942779541,30.572999954223633 C-11.944999694824219,30.613000869750977 -32.972999572753906,16.947999954223633 -30.361000061035156,-29.386999130249023 C-26.632999420166016,-14.211999893188477 -26.49799919128418,1.065999984741211 2.2690000534057617,-0.37400001287460327 C32.606998443603516,-1.8930000066757202 28.0310001373291,-39.99399948120117 28.0310001373291,-39.99399948120117z"></path><path fill="rgb(255,177,57)" fill-opacity="1" d=" M28.0310001373291,-39.99399948120117 C36.4119987487793,15.859999656677246 18.834999084472656,30.542999267578125 3.684999942779541,30.572999954223633 C-11.944999694824219,30.613000869750977 -32.972999572753906,16.947999954223633 -30.361000061035156,-29.386999130249023 C-26.632999420166016,-14.211999893188477 -26.49799919128418,1.065999984741211 2.2690000534057617,-0.37400001287460327 C32.606998443603516,-1.8930000066757202 28.0310001373291,-39.99399948120117 28.0310001373291,-39.99399948120117z"></path></g><g opacity="1" transform="matrix(1,0,0,1,216.5850067138672,221.61099243164062)"><path fill="rgb(255,223,121)" fill-opacity="1" d=" M31.417999267578125,24.586999893188477 C31.417999267578125,24.586999893188477 24.51799964904785,-19.55299949645996 -1.0720000267028809,-19.593000411987305 C-26.66200065612793,-19.632999420166016 -29.031999588012695,17.906999588012695 -29.461999893188477,33.73699951171875 C-29.461999893188477,33.73699951171875 -29.461999893188477,33.766998291015625 -29.461999893188477,33.766998291015625 C-29.941999435424805,30.886999130249023 -30.341999053955078,27.80699920654297 -30.652000427246094,24.506999969482422 C-34.152000427246094,-13.142999649047852 -25.652000427246094,-31.283000946044922 -5.381999969482422,-33.52299880981445 C24.738000869750977,-36.85300064086914 31.507999420166016,-5.623000144958496 31.417999267578125,24.586999893188477z"></path></g><g opacity="1" transform="matrix(1,0,0,1,216.08399963378906,240.0030059814453)"><path stroke-linecap="butt" stroke-linejoin="miter" fill-opacity="0" stroke-miterlimit="10" stroke="rgb(247,126,65)" stroke-opacity="1" stroke-width="6" d=" M-4.880000114440918,-51.91299819946289 C-25.14900016784668,-49.67300033569336 -33.65399932861328,-31.5310001373291 -30.14699935913086,6.11299991607666 C-26.86199951171875,41.374000549316406 -13.015000343322754,52.19900131225586 3.990000009536743,52.15800094604492 C19.134000778198242,52.12200164794922 30.81599998474121,39.24399948120117 30.915000915527344,6.192999839782715 C31.0049991607666,-24.01099967956543 25.240999221801758,-55.242000579833984 -4.880000114440918,-51.91299819946289z"></path></g><g opacity="1" transform="matrix(1,0,0,1,218.57200622558594,270.83599853515625)"><path stroke-linecap="round" stroke-linejoin="round" fill-opacity="0" stroke="rgb(247,126,65)" stroke-opacity="1" stroke-width="6" d=" M-5.364999771118164,-0.06800000369548798 C-5.364999771118164,-0.06800000369548798 0,1.3459999561309814 5.364999771118164,-0.45899999141693115"></path></g></g><g style="display: block;" transform="matrix(1.3800044059753418,0,0,1.3800044059753418,-81.19976806640625,-170.97161865234375)" opacity="1"><g opacity="1" transform="matrix(1,0,0,1,156.99600219726562,245.10800170898438)"><path fill="rgb(255,209,64)" fill-opacity="1" d=" M4.306000232696533,44.81399917602539 C-19.500999450683594,48.053001403808594 -28.87299919128418,22.152000427246094 -28.854000091552734,-3.0789999961853027 C-28.836000442504883,-27.02199935913086 -23.299999237060547,-43.69599914550781 -2.3299999237060547,-45.00600051879883 C20.624000549316406,-46.439998626708984 28.44700050354004,-29.20199966430664 28.836999893188477,-1.5410000085830688 C29.226999282836914,26.1200008392334 23.051000595092773,42.263999938964844 4.306000232696533,44.81399917602539z"></path><path fill="rgb(255,223,121)" fill-opacity="0" d=" M4.306000232696533,44.81399917602539 C-19.500999450683594,48.053001403808594 -28.87299919128418,22.152000427246094 -28.854000091552734,-3.0789999961853027 C-28.836000442504883,-27.02199935913086 -23.299999237060547,-43.69599914550781 -2.3299999237060547,-45.00600051879883 C20.624000549316406,-46.439998626708984 28.44700050354004,-29.20199966430664 28.836999893188477,-1.5410000085830688 C29.226999282836914,26.1200008392334 23.051000595092773,42.263999938964844 4.306000232696533,44.81399917602539z"></path></g><g opacity="1" transform="matrix(1,0,0,1,156.99600219726562,262.4469909667969)"><path fill="rgb(255,209,64)" fill-opacity="1" d=" M4.306000232696533,27.472000122070312 C-19.503999710083008,30.711999893188477 -28.874000549316406,4.811999797821045 -28.854000091552734,-20.417999267578125 C-28.854000091552734,-22.368000030517578 -28.81399917602539,-24.26799964904785 -28.733999252319336,-26.118000030517578 C-28.06399917602539,-18.99799919128418 -22.94099998474121,8.109999656677246 1.246000051498413,8.947999954223633 C27.159000396728516,9.845999717712402 28.166000366210938,-27.74799919128418 28.166000366210938,-27.74799919128418 C28.166000366210938,-27.74799919128418 28.805999755859375,-21.357999801635742 28.836000442504883,-18.878000259399414 C29.22599983215332,8.781999588012695 23.04599952697754,24.922000885009766 4.306000232696533,27.472000122070312z"></path><path fill="rgb(255,177,57)" fill-opacity="1" d=" M4.306000232696533,27.472000122070312 C-19.503999710083008,30.711999893188477 -28.874000549316406,4.811999797821045 -28.854000091552734,-20.417999267578125 C-28.854000091552734,-22.368000030517578 -28.81399917602539,-24.26799964904785 -28.733999252319336,-26.118000030517578 C-28.06399917602539,-18.99799919128418 -22.94099998474121,8.109999656677246 1.246000051498413,8.947999954223633 C27.159000396728516,9.845999717712402 28.166000366210938,-27.74799919128418 28.166000366210938,-27.74799919128418 C28.166000366210938,-27.74799919128418 28.805999755859375,-21.357999801635742 28.836000442504883,-18.878000259399414 C29.22599983215332,8.781999588012695 23.04599952697754,24.922000885009766 4.306000232696533,27.472000122070312z"></path></g><g opacity="1" transform="matrix(1,0,0,1,156.9969940185547,231.01199340820312)"><path fill="rgb(255,223,121)" fill-opacity="1" d=" M27.81599998474121,30.996000289916992 C30.016000747680664,12.965999603271484 21.393999099731445,-18.400999069213867 -1.8240000009536743,-17.134000778198242 C-25.40399932861328,-15.847999572753906 -28.56399917602539,18.63599967956543 -28.56399917602539,18.63599967956543 C-28.56399917602539,18.63599967956543 -28.573999404907227,18.625999450683594 -28.573999404907227,18.625999450683594 C-28.763999938964844,16.106000900268555 -28.854000091552734,13.555999755859375 -28.854000091552734,11.015999794006348 C-28.833999633789062,-12.923999786376953 -23.304000854492188,-29.604000091552734 -2.3340001106262207,-30.913999557495117 C20.625999450683594,-32.34400177001953 28.445999145507812,-15.104000091552734 28.836000442504883,12.555999755859375 C28.93600082397461,19.426000595092773 28.625999450683594,25.586000442504883 27.81599998474121,30.996000289916992z"></path></g><g opacity="1" transform="matrix(1,0,0,1,156.99600219726562,245.10800170898438)"><path stroke-linecap="round" stroke-linejoin="miter" fill-opacity="0" stroke-miterlimit="10" stroke="rgb(247,126,65)" stroke-opacity="1" stroke-width="6" d=" M-28.854000091552734,-3.0789999961853027 C-28.85300064086914,-4.089000225067139 -28.843000411987305,-5.085999965667725 -28.82200050354004,-6.068999767303467 C-28.341999053955078,-28.400999069213867 -22.416000366210938,-43.75199890136719 -2.3299999237060547,-45.00600051879883 C20.624000549316406,-46.439998626708984 28.44700050354004,-29.20199966430664 28.836999893188477,-1.5410000085830688 C29.226999282836914,26.1200008392334 23.051000595092773,42.263999938964844 4.306000232696533,44.81399917602539 C-5.146999835968018,46.099998474121094 -22.975000381469727,41.066001892089844 -26.871999740600586,14.541999816894531 C-27.680999755859375,9.034000396728516 -28.67099952697754,3.3559999465942383 -28.820999145507812,-2.3010001182556152"></path></g><g opacity="1" transform="matrix(1,0,0,1,158.52200317382812,273.3909912109375)"><path stroke-linecap="round" stroke-linejoin="round" fill-opacity="0" stroke="rgb(247,126,65)" stroke-opacity="1" stroke-width="6" d=" M-5.368000030517578,-0.3569999933242798 C-5.368000030517578,-0.3569999933242798 -0.05900000035762787,1.2519999742507935 5.368000030517578,-0.3569999933242798"></path></g></g><g style="display: block;" transform="matrix(1.3799999952316284,0,0,1.3799999952316284,-81.20037841796875,-170.9697265625)" opacity="1"><g opacity="1" transform="matrix(1,0,0,1,289.2590026855469,353.34100341796875)"><path fill="rgb(255,209,64)" fill-opacity="1" d=" M5.664999961853027,-10.949999809265137 C0.7300000190734863,-21.718000411987305 -5.551000118255615,-29.792999267578125 -14.074999809265137,-32.0359992980957 C-22.599000930786133,-34.27899932861328 -43.8849983215332,-30.325000762939453 -62.97800064086914,-38.76599884033203 C-80.52799987792969,-46.525001525878906 -95.12100219726562,-73.05599975585938 -85.16699981689453,-85.8740005493164 C-77.51599884033203,-95.72599792480469 -53.555999755859375,-89.91200256347656 -33.367000579833984,-90.36100006103516 C-13.178000450134277,-90.80999755859375 -5.373000144958496,-93.42400360107422 6.632999897003174,-91.66799926757812 C18.638999938964844,-89.91200256347656 73.37200164794922,-69.78399658203125 85.07599639892578,-42.35499954223633 C95.03800201416016,-19.009000778198242 84.2229995727539,51.91699981689453 30.812000274658203,92.26699829101562 C30.812000274658203,92.26699829101562 5.664999961853027,-10.949999809265137 5.664999961853027,-10.949999809265137z"></path></g><g opacity="1" transform="matrix(1,0,0,1,344.2550048828125,394.2860107421875)"><path fill="rgb(255,177,57)" fill-opacity="1" d=" M-32.77899932861328,28.67799949645996 C-27.08099937438965,25.347999572753906 25.12700080871582,-2.1689999103546143 29.81999969482422,-51.31800079345703 C34.51300048828125,-26.91699981689453 11.505999565124512,26.163000106811523 -24.18000030517578,51.31800079345703 C-24.18000030517578,51.31800079345703 -38.47700119018555,32.007999420166016 -32.77899932861328,28.67799949645996z"></path></g><g opacity="1" transform="matrix(1,0,0,1,289.2590026855469,332.40399169921875)"><path fill="rgb(255,223,121)" fill-opacity="1" d=" M67.6259994506836,71.33100128173828 C81.26599884033203,32.680999755859375 86.13300323486328,8.244999885559082 76.40299987792969,-12.121999740600586 C66.15399932861328,-33.57600021362305 23.236000061035156,-62.25899887084961 -11.814000129699707,-58.308998107910156 C-46.86399841308594,-54.3489990234375 -60.45399856567383,-62.67900085449219 -73.74400329589844,-57.308998107910156 C-86.89399719238281,-51.999000549316406 -72.14399719238281,-24.118999481201172 -71.8239974975586,-23.479000091552734 C-84.89399719238281,-34.479000091552734 -93.3740005493164,-54.36899948120117 -85.16400146484375,-64.93900299072266 C-77.51399993896484,-74.78900146484375 -53.55400085449219,-68.97899627685547 -33.36399841308594,-69.41899871826172 C-13.173999786376953,-69.86900329589844 -5.374000072479248,-72.48899841308594 6.636000156402588,-70.72899627685547 C18.63599967956543,-68.97899627685547 73.3759994506836,-48.8489990234375 85.07599639892578,-21.41900062561035 C92.08599853515625,-4.988999843597412 88.80599975585938,35.01100158691406 67.6259994506836,71.33100128173828z"></path></g><g opacity="1" transform="matrix(1,0,0,1,249.77699279785156,308.60198974609375)"><path fill="rgb(255,177,57)" fill-opacity="1" d=" M-48.80699920654297,-32.9739990234375 C-48.80699920654297,-32.9739990234375 -41.29499816894531,-2.6070001125335693 -8.555000305175781,-2.194000005722046 C5.021999835968018,-2.0230000019073486 22.231000900268555,-3.6600000858306885 34.30400085449219,1.7799999713897705 C38.77000045776367,3.7920000553131104 42.53300094604492,6.7729997634887695 45.14899826049805,11.170999526977539 C48.191001892089844,16.285999298095703 49.930999755859375,24.941999435424805 48.02199935913086,33.880001068115234 C48.02199935913086,33.880001068115234 36.082000732421875,13.54800033569336 25.406999588012695,12.70199966430664 C14.732000350952148,11.855999946594238 -9.387999534606934,12.98799991607666 -32.34199905395508,0.32199999690055847 C-52.79999923706055,-10.967000007629395 -48.80699920654297,-32.9739990234375 -48.80699920654297,-32.9739990234375z"></path></g><g opacity="1" transform="matrix(1,0,0,1,289.2590026855469,332.40399169921875)"><path stroke-linecap="round" stroke-linejoin="miter" fill-opacity="0" stroke-miterlimit="4" stroke="rgb(255,255,255)" stroke-opacity="1" stroke-width="6" d=" M21.68000030517578,-53.81800079345703 C16.507999420166016,-55.59600067138672 11.241999626159668,-56.95500183105469 6,-57.77799987792969"></path></g><g opacity="1" transform="matrix(1,0,0,1,289.2590026855469,332.40399169921875)"><path stroke-linecap="round" stroke-linejoin="miter" fill-opacity="0" stroke-miterlimit="4" stroke="rgb(255,255,255)" stroke-opacity="1" stroke-width="6" d=" M-7.031000137329102,-58.64799880981445 C-8.491999626159668,-58.60300064086914 -9.942000389099121,-58.50699996948242 -11.380000114440918,-58.35599899291992"></path></g><g opacity="1" transform="matrix(1,0,0,1,288.6400146484375,353.34100341796875)"><path stroke-linecap="round" stroke-linejoin="round" fill-opacity="0" stroke="rgb(247,126,65)" stroke-opacity="1" stroke-width="6" d=" M31.430999755859375,92.26699829101562 C84.84200286865234,51.91699981689453 95.65799713134766,-19.009000778198242 85.69599914550781,-42.35499954223633 C73.99199676513672,-69.78399658203125 19.257999420166016,-89.91200256347656 7.251999855041504,-91.66799926757812 C-4.754000186920166,-93.42400360107422 -12.559000015258789,-90.80999755859375 -32.74800109863281,-90.36100006103516 C-52.9370002746582,-89.91200256347656 -76.35199737548828,-95.2770004272461 -84.5479965209961,-85.8740005493164 C-94.70999908447266,-74.21499633789062 -87.6709976196289,-46.34400177001953 -62.35900115966797,-38.76599884033203 C-42.361000061035156,-32.77899932861328 -21.979999542236328,-34.27899932861328 -13.456000328063965,-32.0359992980957 C-4.932000160217285,-29.792999267578125 1.350000023841858,-21.718000411987305 6.284999847412109,-10.949999809265137"></path></g></g><g style="display: none;"><g><path></path></g></g><g style="display: none;"><g><path></path></g></g><g style="display: block;" transform="matrix(0.9981549382209778,0.01040076743811369,-0.01040076743811369,0.9981549382209778,365.0212097167969,302.0985107421875)" opacity="1"><g opacity="1" transform="matrix(1,0,0,1,0,0)"><path stroke-linecap="round" stroke-linejoin="miter" fill-opacity="0" stroke-miterlimit="4" stroke="rgb(255,255,255)" stroke-opacity="1" stroke-width="0" d=" M-172.45399475097656,38.13199996948242 C-172.23800659179688,38.551998138427734 -172.24099731445312,38.40399932861328 -171.84800720214844,39.0890007019043"></path></g></g></g></svg>