<svg xmlns="http://www.w3.org/2000/svg" viewBox="0 0 512 512" width="512" height="512" style="width: 100%; height: 100%; transform: translate3d(0,0,0);" preserveAspectRatio="xMidYMid meet"><defs><clipPath id="__lottie_element_16037"><rect width="512" height="512" x="0" y="0"></rect></clipPath><radialGradient id="__lottie_element_16043" spreadMethod="pad" gradientUnits="userSpaceOnUse" cx="0.9240000247955322" cy="-0.4440000057220459" r="55.795001745224" fx="0.9240000247955322" fy="-0.4440000057220459"><stop offset="19%" stop-color="rgb(252,238,33)"></stop><stop offset="48%" stop-color="rgb(253,199,40)"></stop><stop offset="73%" stop-color="rgb(255,160,47)"></stop><stop offset="76%" stop-color="rgb(255,158,47)"></stop><stop offset="78%" stop-color="rgb(255,155,48)"></stop></radialGradient><radialGradient id="__lottie_element_16049" spreadMethod="pad" gradientUnits="userSpaceOnUse" cx="0.9240000247955322" cy="-0.4440000057220459" r="55.795001745224" fx="0.9240000247955322" fy="-0.4440000057220459"><stop offset="19%" stop-color="rgb(252,238,33)"></stop><stop offset="48%" stop-color="rgb(253,199,40)"></stop><stop offset="73%" stop-color="rgb(255,160,47)"></stop><stop offset="76%" stop-color="rgb(255,158,47)"></stop><stop offset="78%" stop-color="rgb(255,155,48)"></stop></radialGradient><radialGradient id="__lottie_element_16055" spreadMethod="pad" gradientUnits="userSpaceOnUse"><stop></stop><stop></stop><stop></stop><stop></stop><stop></stop></radialGradient><radialGradient id="__lottie_element_16061" spreadMethod="pad" gradientUnits="userSpaceOnUse"><stop></stop><stop></stop><stop></stop><stop></stop><stop></stop></radialGradient><radialGradient id="__lottie_element_16066" spreadMethod="pad" gradientUnits="userSpaceOnUse"><stop></stop><stop></stop><stop></stop><stop></stop><stop></stop></radialGradient><radialGradient id="__lottie_element_16072" spreadMethod="pad" gradientUnits="userSpaceOnUse"><stop></stop><stop></stop><stop></stop><stop></stop><stop></stop></radialGradient><radialGradient id="__lottie_element_16077" spreadMethod="pad" gradientUnits="userSpaceOnUse"><stop></stop><stop></stop><stop></stop><stop></stop><stop></stop></radialGradient><radialGradient id="__lottie_element_16083" spreadMethod="pad" gradientUnits="userSpaceOnUse"><stop></stop><stop></stop><stop></stop><stop></stop><stop></stop></radialGradient><radialGradient id="__lottie_element_16088" spreadMethod="pad" gradientUnits="userSpaceOnUse"><stop></stop><stop></stop><stop></stop><stop></stop><stop></stop></radialGradient><radialGradient id="__lottie_element_16094" spreadMethod="pad" gradientUnits="userSpaceOnUse"><stop></stop><stop></stop><stop></stop><stop></stop><stop></stop></radialGradient><radialGradient id="__lottie_element_16100" spreadMethod="pad" gradientUnits="userSpaceOnUse" cx="0.9240000247955322" cy="-0.4440000057220459" r="103.295001745224" fx="0.9240000247955322" fy="-0.4440000057220459"><stop offset="19%" stop-color="rgb(252,238,33)"></stop><stop offset="48%" stop-color="rgb(253,199,40)"></stop><stop offset="73%" stop-color="rgb(255,160,47)"></stop><stop offset="76%" stop-color="rgb(255,158,47)"></stop><stop offset="78%" stop-color="rgb(255,155,48)"></stop></radialGradient><radialGradient id="__lottie_element_16106" spreadMethod="pad" gradientUnits="userSpaceOnUse" cx="0.9240000247955322" cy="-0.4440000057220459" r="103.295001745224" fx="0.9240000247955322" fy="-0.4440000057220459"><stop offset="19%" stop-color="rgb(252,238,33)"></stop><stop offset="48%" stop-color="rgb(253,199,40)"></stop><stop offset="73%" stop-color="rgb(255,160,47)"></stop><stop offset="76%" stop-color="rgb(255,158,47)"></stop><stop offset="78%" stop-color="rgb(255,155,48)"></stop></radialGradient></defs><g clip-path="url(#__lottie_element_16037)"><g style="display: block;" transform="matrix(0.949999988079071,0,0,0.949999988079071,255.5703125,255.63101196289062)" opacity="1"><g opacity="1" transform="matrix(1,0,0,1,0,0)"><path fill="rgb(252,35,154)" fill-opacity="1" d=" M95.50900268554688,-178.98399353027344 C31.052000045776367,-182.10499572753906 8.064000129699707,-135.26300048828125 -0.21299999952316284,-121.83000183105469 C-0.6930000185966492,-121.0510025024414 -1.496999979019165,-120.66200256347656 -2.3010001182556152,-120.66200256347656 C-3.1050000190734863,-120.66200256347656 -3.9089999198913574,-121.052001953125 -4.388999938964844,-121.83000183105469 C-12.666000366210938,-135.26300048828125 -36.84199905395508,-180 -100.61199951171875,-178.98399353027344 C-160.19400024414062,-178.03500366210938 -190.02200317382812,-128.80099487304688 -192.4199981689453,-90.91000366210938 C-194.8520050048828,-52.481998443603516 -187.11000061035156,-9.1899995803833 -135.5489959716797,57.9370002746582 C-95.8010025024414,109.68399810791016 -37.742000579833984,168.6739959716797 -13.887999534606934,192.18600463867188 C-10.756999969482422,195.27200317382812 -6.678999900817871,196.8159942626953 -2.6019999980926514,196.8159942626953 C1.475000023841858,196.8159942626953 5.552000045776367,195.27200317382812 8.682999610900879,192.18600463867188 C32.5369987487793,168.6739959716797 90.1989974975586,111.18399810791016 129.94700622558594,59.4370002746582 C181.50799560546875,-7.690000057220459 189.75,-52.481998443603516 187.3179931640625,-90.91000366210938 C184.9199981689453,-128.79800415039062 159.96600341796875,-175.86300659179688 95.50900268554688,-178.98399353027344z"></path></g></g><g style="display: block;" transform="matrix(0.9999984502792358,0,0,0.9999984502792358,255.99400329589844,255.99200439453125)" opacity="1"><g opacity="1" transform="matrix(1,0,0,1,0,0)"><path fill="rgb(244,0,128)" fill-opacity="1" d=" M60.75,128 C27.25,164.25 -19,171.75 -60.125,134.875 C-51.5,145.25 -13.5,187.5 -4,187.5 C9.25,187.5 32.25,160.5 60.75,128z"></path></g></g><g style="display: block;" transform="matrix(0.949999988079071,0,0,0.949999988079071,253.570556640625,242.8373565673828)" opacity="1"><g opacity="1" transform="matrix(1,0,0,1,0,0)"><path fill="rgb(252,60,175)" fill-opacity="1" d=" M168.97300720214844,-65.63500213623047 C166.8090057373047,-96.8489990234375 143.34300231933594,-141.80799865722656 88.7979965209961,-140.6230010986328 C34.25299835205078,-139.43800354003906 0,-72.0469970703125 0,-72.0469970703125 C0,-72.0469970703125 -34.25299835205078,-139.43800354003906 -88.7979965209961,-140.6230010986328 C-143.34300231933594,-141.80799865722656 -166.8090057373047,-96.8489990234375 -168.97300720214844,-65.63500213623047 C-171.13800048828125,-34.422000885009766 -162.91299438476562,5.085000038146973 -117.0260009765625,59.61000061035156 C-103.48600006103516,75.6989974975586 -87.74700164794922,93.01000213623047 -72.28600311279297,109.4209976196289 C-33.0629997253418,151.05499267578125 33.0629997253418,151.05499267578125 72.28600311279297,109.4209976196289 C87.74700164794922,93.01000213623047 103.48600006103516,75.6989974975586 117.0260009765625,59.61000061035156 C162.91299438476562,5.085000038146973 171.13699340820312,-34.422000885009766 168.97300720214844,-65.63500213623047z"></path></g></g><g style="display: block;" transform="matrix(0.949999988079071,0,0,0.949999988079071,12.79400634765625,12.792007446289062)" opacity="1"><g opacity="1" transform="matrix(1,0,0,1,172.34500122070312,200.7530059814453)"><path fill="rgb(250,75,180)" fill-opacity="1" d=" M81.09100341796875,-30.656999588012695 C65.51699829101562,-45.858001708984375 4.074999809265137,-65.20600128173828 -37.89799880981445,-34.821998596191406 C-87.7959976196289,1.2999999523162842 -67.44400024414062,55.9370002746582 -66.677001953125,57.762001037597656 C-73.09700012207031,46.53900146484375 -77.76799774169922,36.08300018310547 -81.09100341796875,26.29199981689453 C-80.84500122070312,6.072999954223633 -73.84400177001953,-20.135000228881836 -45.43899917602539,-40.691001892089844 C-5.0980000495910645,-69.89600372314453 52.15399932861328,-55.893001556396484 75.02400207519531,-40.99100112915039 C78.87799835205078,-34.9630012512207 80.96299743652344,-30.90999984741211 81.09100341796875,-30.656999588012695z"></path></g><g opacity="1" transform="matrix(1,0,0,1,167.4929962158203,183.39999389648438)"><path fill="rgb(253,84,185)" fill-opacity="1" d=" M79.8759994506836,-23.636999130249023 C57.00600051879883,-38.53900146484375 -0.2460000067949295,-52.542999267578125 -40.58700180053711,-23.33799934387207 C-68.99199676513672,-2.7820000648498535 -75.99299621582031,23.427000045776367 -76.23899841308594,43.645999908447266 C-77.71399688720703,39.3120002746582 -78.91200256347656,35.10900115966797 -79.8759994506836,31.027999877929688 C-77.23100280761719,12.475000381469727 -68.0780029296875,-8.763999938964844 -44.12699890136719,-26.09000015258789 C-4.208000183105469,-54.994998931884766 51.805999755859375,-42.742000579833984 76.91699981689453,-28.121000289916992 C77.9990005493164,-26.538999557495117 78.98100280761719,-25.031999588012695 79.8759994506836,-23.636999130249023z"></path></g><g opacity="1" transform="matrix(1,0,0,1,164.5919952392578,174.81199645996094)"><path fill="rgb(253,99,190)" fill-opacity="1" d=" M79.81800079345703,-19.533000946044922 C54.707000732421875,-34.15399932861328 -1.3070000410079956,-46.40700149536133 -41.22600173950195,-17.50200080871582 C-65.177001953125,-0.17599999904632568 -74.33100128173828,21.062000274658203 -76.97599792480469,39.6150016784668 C-78.36299896240234,33.801998138427734 -79.28700256347656,28.232999801635742 -79.81800079345703,22.88800048828125 C-74.80400085449219,7.770999908447266 -64.80400085449219,-7.946000099182129 -46.22100067138672,-21.386999130249023 C-6.794000148773193,-49.93600082397461 47.763999938964844,-39.81800079345703 75.43199920654297,-25.69300079345703 C77.03500366210938,-23.540000915527344 78.49099731445312,-21.47100067138672 79.81800079345703,-19.533000946044922z"></path></g><g opacity="1" transform="matrix(1,0,0,1,162.0959930419922,164.177001953125)"><path fill="rgb(250,114,194)" fill-opacity="1" d=" M77.92900085449219,-15.057999610900879 C50.26100158691406,-29.183000564575195 -4.297999858856201,-39.30099868774414 -43.724998474121094,-10.751999855041504 C-62.30799865722656,2.688999891281128 -72.30699920654297,18.4060001373291 -77.32099914550781,33.52299880981445 C-77.86199951171875,28.149999618530273 -78.0199966430664,23.00200080871582 -77.88200378417969,18.059999465942383 C-71.84500122070312,6.686999797821045 -62.58300018310547,-4.583000183105469 -48.70000076293945,-14.626999855041504 C-9.734999656677246,-42.83000183105469 43.46699905395508,-34.630001068115234 73.20899963378906,-21.12299919128418 C74.9000015258789,-19.054000854492188 76.4739990234375,-17.02400016784668 77.92900085449219,-15.057999610900879z"></path></g><g opacity="1" transform="matrix(1,0,0,1,159.75999450683594,154.05499267578125)"><path fill="rgb(253,124,200)" fill-opacity="1" d=" M75.54499816894531,-11.001999855041504 C45.803001403808594,-24.509000778198242 -7.39900016784668,-32.70800018310547 -46.36399841308594,-4.505000114440918 C-60.24700164794922,5.539000034332275 -69.50800323486328,16.808000564575195 -75.54499816894531,28.180999755859375 C-75.50599670410156,26.243000030517578 -75.40799713134766,24.333999633789062 -75.27999877929688,22.461999893188477 C-75.0739974975586,19.447999954223633 -74.66100311279297,16.30299949645996 -74.0510025024414,13.083000183105469 C-68.3290023803711,5.538000106811523 -60.98400115966797,-1.7910000085830688 -51.604000091552734,-8.57699966430664 C-13.15999984741211,-36.395999908447266 38.61600112915039,-30.07900047302246 70.13800048828125,-17.339000701904297 C72.05500030517578,-15.21399974822998 73.85399627685547,-13.08899974822998 75.54499816894531,-11.001999855041504z"></path></g><g opacity="1" transform="matrix(1,0,0,1,157.80299377441406,144.35299682617188)"><path fill="rgb(251,138,204)" fill-opacity="1" d=" M72.09400177001953,-7.636000156402588 C40.571998596191406,-20.375999450683594 -11.204000473022461,-26.694000244140625 -49.64799880981445,1.125 C-59.02799987792969,7.910999774932861 -66.37200164794922,15.239999771118164 -72.09400177001953,22.78499984741211 C-71.25800323486328,18.40399932861328 -70.02999877929688,13.87399959564209 -68.39800262451172,9.352999687194824 C-64.2979965209961,5.252999782562256 -59.64699935913086,1.274999976158142 -54.367000579833984,-2.5439999103546143 C-16.51300048828125,-29.941999435424805 33.87699890136719,-25.270999908447266 66.68699645996094,-13.364999771118164 C68.57499694824219,-11.46500015258789 70.37300109863281,-9.545999526977539 72.09400177001953,-7.636000156402588z"></path></g><g opacity="1" transform="matrix(1,0,0,1,156.947998046875,135.1479949951172)"><path fill="rgb(255,148,212)" fill-opacity="1" d=" M67.54199981689453,-4.159999847412109 C34.731998443603516,-16.06599998474121 -15.657999992370605,-20.738000869750977 -53.512001037597656,6.659999847412109 C-58.79199981689453,10.479000091552734 -63.44200134277344,14.458000183105469 -67.54199981689453,18.558000564575195 C-65.71299743652344,13.494000434875488 -63.37300109863281,8.420000076293945 -60.492000579833984,3.5429999828338623 C-59.99100112915039,3.1689999103546143 -59.479000091552734,2.7939999103546143 -58.96799850463867,2.4200000762939453 C-22.018999099731445,-24.332000732421875 26.46299934387207,-21.579999923706055 60.38399887084961,-10.862000465393066 C62.89099884033203,-8.6899995803833 65.27999877929688,-6.434999942779541 67.54199981689453,-4.159999847412109z"></path></g><g opacity="1" transform="matrix(1,0,0,1,156.8939971923828,125.7040023803711)"><path fill="rgb(255,161,216)" fill-opacity="1" d=" M60.4379997253418,-1.4179999828338623 C26.517000198364258,-12.13599967956543 -21.96500015258789,-14.887999534606934 -58.91400146484375,11.86400032043457 C-59.42499923706055,12.23799991607666 -59.9370002746582,12.61400032043457 -60.4379997253418,12.98799991607666 C-58.137001037597656,9.102999687194824 -55.50299835205078,5.330999851226807 -52.49399948120117,1.7829999923706055 C-18.32699966430664,-17.180999755859375 22.740999221801758,-15.383999824523926 53.869998931884766,-6.735000133514404 C56.14099884033203,-5.031000137329102 58.33399963378906,-3.253000020980835 60.4379997253418,-1.4179999828338623z"></path></g><g opacity="1" transform="matrix(1,0,0,1,157.58200073242188,118.47200012207031)"><path fill="rgb(255,173,222)" fill-opacity="1" d=" M53.18199920654297,0.4970000088214874 C22.05299949645996,-8.152000427246094 -19.014999389648438,-9.949000358581543 -53.18199920654297,9.015000343322754 C-50.58599853515625,5.945000171661377 -47.724998474121094,3.0429999828338623 -44.57899856567383,0.3659999966621399 C-14.434000015258789,-11.95199966430664 19.26099967956543,-10.717000007629395 46.624000549316406,-4.071000099182129 C48.875999450683594,-2.630000114440918 51.06800079345703,-1.093999981880188 53.18199920654297,0.4970000088214874z"></path></g><g opacity="1" transform="matrix(1,0,0,1,158.60499572753906,112.63400268554688)"><path fill="rgb(255,188,227)" fill-opacity="1" d=" M45.60200119018555,1.7669999599456787 C18.23900032043457,-4.879000186920166 -15.456999778747559,-6.113999843597412 -45.60200119018555,6.203999996185303 C-42.42599868774414,3.499000072479248 -38.974998474121094,1.027999997138977 -35.21900177001953,-1.152999997138977 C-10.569999694824219,-8.052000045776367 15.437000274658203,-7.2179999351501465 37.97200012207031,-2.6410000324249268 C40.59700012207031,-1.2929999828338623 43.13399887084961,0.1850000023841858 45.60200119018555,1.7669999599456787z"></path></g><g opacity="1" transform="matrix(1,0,0,1,159.9810028076172,107.65699768066406)"><path fill="rgb(255,202,232)" fill-opacity="1" d=" M36.595001220703125,2.3359999656677246 C14.0600004196167,-2.240999937057495 -11.946000099182129,-3.0739998817443848 -36.595001220703125,3.825000047683716 C-32.71099853515625,1.569000005722046 -28.513999938964844,-0.36899998784065247 -23.981000900268555,-1.9320000410079956 C-6.440000057220459,-4.758999824523926 11.29699993133545,-4.216000080108643 27.618999481201172,-1.6419999599456787 C30.70599937438965,-0.4909999966621399 33.694000244140625,0.8379999995231628 36.595001220703125,2.3359999656677246z"></path></g><g opacity="1" transform="matrix(1,0,0,1,161.8000030517578,103.76100158691406)"><path fill="rgb(255,211,240)" fill-opacity="1" d=" M25.799999237060547,2.253000020980835 C9.477999687194824,-0.32100000977516174 -8.258999824523926,-0.8640000224113464 -25.799999237060547,1.9630000591278076 C-17.402999877929688,-0.9110000133514404 -7.875999927520752,-2.4639999866485596 2.8510000705718994,-2.2300000190734863 C10.972000122070312,-2.052000045776367 18.631999969482422,-0.41499999165534973 25.799999237060547,2.253000020980835z"></path></g></g><g style="display: block;" transform="matrix(-0.9499984979629517,0,0,0.9499984979629517,499.1934814453125,12.7919921875)" opacity="1"><g opacity="1" transform="matrix(1,0,0,1,172.34500122070312,200.7530059814453)"><path fill="rgb(250,75,180)" fill-opacity="1" d=" M81.09100341796875,-30.656999588012695 C65.51699829101562,-45.858001708984375 4.074999809265137,-65.20600128173828 -37.89799880981445,-34.821998596191406 C-87.7959976196289,1.2999999523162842 -67.44400024414062,55.9370002746582 -66.677001953125,57.762001037597656 C-73.09700012207031,46.53900146484375 -77.76799774169922,36.08300018310547 -81.09100341796875,26.29199981689453 C-80.84500122070312,6.072999954223633 -73.84400177001953,-20.135000228881836 -45.43899917602539,-40.691001892089844 C-5.0980000495910645,-69.89600372314453 52.15399932861328,-55.893001556396484 75.02400207519531,-40.99100112915039 C78.87799835205078,-34.9630012512207 80.96299743652344,-30.90999984741211 81.09100341796875,-30.656999588012695z"></path></g><g opacity="1" transform="matrix(1,0,0,1,167.4929962158203,183.39999389648438)"><path fill="rgb(253,84,185)" fill-opacity="1" d=" M79.8759994506836,-23.636999130249023 C57.00600051879883,-38.53900146484375 -0.2460000067949295,-52.542999267578125 -40.58700180053711,-23.33799934387207 C-68.99199676513672,-2.7820000648498535 -75.99299621582031,23.427000045776367 -76.23899841308594,43.645999908447266 C-77.71399688720703,39.3120002746582 -78.91200256347656,35.10900115966797 -79.8759994506836,31.027999877929688 C-77.23100280761719,12.475000381469727 -68.0780029296875,-8.763999938964844 -44.12699890136719,-26.09000015258789 C-4.208000183105469,-54.994998931884766 51.805999755859375,-42.742000579833984 76.91699981689453,-28.121000289916992 C77.9990005493164,-26.538999557495117 78.98100280761719,-25.031999588012695 79.8759994506836,-23.636999130249023z"></path></g><g opacity="1" transform="matrix(1,0,0,1,164.5919952392578,174.81199645996094)"><path fill="rgb(253,99,190)" fill-opacity="1" d=" M79.81800079345703,-19.533000946044922 C54.707000732421875,-34.15399932861328 -1.3070000410079956,-46.40700149536133 -41.22600173950195,-17.50200080871582 C-65.177001953125,-0.17599999904632568 -74.33100128173828,21.062000274658203 -76.97599792480469,39.6150016784668 C-78.36299896240234,33.801998138427734 -79.28700256347656,28.232999801635742 -79.81800079345703,22.88800048828125 C-74.80400085449219,7.770999908447266 -64.80400085449219,-7.946000099182129 -46.22100067138672,-21.386999130249023 C-6.794000148773193,-49.93600082397461 47.763999938964844,-39.81800079345703 75.43199920654297,-25.69300079345703 C77.03500366210938,-23.540000915527344 78.49099731445312,-21.47100067138672 79.81800079345703,-19.533000946044922z"></path></g><g opacity="1" transform="matrix(1,0,0,1,162.0959930419922,164.177001953125)"><path fill="rgb(250,114,194)" fill-opacity="1" d=" M77.92900085449219,-15.057999610900879 C50.26100158691406,-29.183000564575195 -4.297999858856201,-39.30099868774414 -43.724998474121094,-10.751999855041504 C-62.30799865722656,2.688999891281128 -72.30699920654297,18.4060001373291 -77.32099914550781,33.52299880981445 C-77.86199951171875,28.149999618530273 -78.0199966430664,23.00200080871582 -77.88200378417969,18.059999465942383 C-71.84500122070312,6.686999797821045 -62.58300018310547,-4.583000183105469 -48.70000076293945,-14.626999855041504 C-9.734999656677246,-42.83000183105469 43.46699905395508,-34.630001068115234 73.20899963378906,-21.12299919128418 C74.9000015258789,-19.054000854492188 76.4739990234375,-17.02400016784668 77.92900085449219,-15.057999610900879z"></path></g><g opacity="1" transform="matrix(1,0,0,1,159.75999450683594,154.05499267578125)"><path fill="rgb(253,124,200)" fill-opacity="1" d=" M75.54499816894531,-11.001999855041504 C45.803001403808594,-24.509000778198242 -7.39900016784668,-32.70800018310547 -46.36399841308594,-4.505000114440918 C-60.24700164794922,5.539000034332275 -69.50800323486328,16.808000564575195 -75.54499816894531,28.180999755859375 C-75.50599670410156,26.243000030517578 -75.40799713134766,24.333999633789062 -75.27999877929688,22.461999893188477 C-75.0739974975586,19.447999954223633 -74.66100311279297,16.30299949645996 -74.0510025024414,13.083000183105469 C-68.3290023803711,5.538000106811523 -60.98400115966797,-1.7910000085830688 -51.604000091552734,-8.57699966430664 C-13.15999984741211,-36.395999908447266 38.61600112915039,-30.07900047302246 70.13800048828125,-17.339000701904297 C72.05500030517578,-15.21399974822998 73.85399627685547,-13.08899974822998 75.54499816894531,-11.001999855041504z"></path></g><g opacity="1" transform="matrix(1,0,0,1,157.80299377441406,144.35299682617188)"><path fill="rgb(251,138,204)" fill-opacity="1" d=" M72.09400177001953,-7.636000156402588 C40.571998596191406,-20.375999450683594 -11.204000473022461,-26.694000244140625 -49.64799880981445,1.125 C-59.02799987792969,7.910999774932861 -66.37200164794922,15.239999771118164 -72.09400177001953,22.78499984741211 C-71.25800323486328,18.40399932861328 -70.02999877929688,13.87399959564209 -68.39800262451172,9.352999687194824 C-64.2979965209961,5.252999782562256 -59.64699935913086,1.274999976158142 -54.367000579833984,-2.5439999103546143 C-16.51300048828125,-29.941999435424805 33.87699890136719,-25.270999908447266 66.68699645996094,-13.364999771118164 C68.57499694824219,-11.46500015258789 70.37300109863281,-9.545999526977539 72.09400177001953,-7.636000156402588z"></path></g><g opacity="1" transform="matrix(1,0,0,1,156.947998046875,135.1479949951172)"><path fill="rgb(255,148,212)" fill-opacity="1" d=" M67.54199981689453,-4.159999847412109 C34.731998443603516,-16.06599998474121 -15.657999992370605,-20.738000869750977 -53.512001037597656,6.659999847412109 C-58.79199981689453,10.479000091552734 -63.44200134277344,14.458000183105469 -67.54199981689453,18.558000564575195 C-65.71299743652344,13.494000434875488 -63.37300109863281,8.420000076293945 -60.492000579833984,3.5429999828338623 C-59.99100112915039,3.1689999103546143 -59.479000091552734,2.7939999103546143 -58.96799850463867,2.4200000762939453 C-22.018999099731445,-24.332000732421875 26.46299934387207,-21.579999923706055 60.38399887084961,-10.862000465393066 C62.89099884033203,-8.6899995803833 65.27999877929688,-6.434999942779541 67.54199981689453,-4.159999847412109z"></path></g><g opacity="1" transform="matrix(1,0,0,1,156.8939971923828,125.7040023803711)"><path fill="rgb(255,161,216)" fill-opacity="1" d=" M60.4379997253418,-1.4179999828338623 C26.517000198364258,-12.13599967956543 -21.96500015258789,-14.887999534606934 -58.91400146484375,11.86400032043457 C-59.42499923706055,12.23799991607666 -59.9370002746582,12.61400032043457 -60.4379997253418,12.98799991607666 C-58.137001037597656,9.102999687194824 -55.50299835205078,5.330999851226807 -52.49399948120117,1.7829999923706055 C-18.32699966430664,-17.180999755859375 22.740999221801758,-15.383999824523926 53.869998931884766,-6.735000133514404 C56.14099884033203,-5.031000137329102 58.33399963378906,-3.253000020980835 60.4379997253418,-1.4179999828338623z"></path></g><g opacity="1" transform="matrix(1,0,0,1,157.58200073242188,118.47200012207031)"><path fill="rgb(255,173,222)" fill-opacity="1" d=" M53.18199920654297,0.4970000088214874 C22.05299949645996,-8.152000427246094 -19.014999389648438,-9.949000358581543 -53.18199920654297,9.015000343322754 C-50.58599853515625,5.945000171661377 -47.724998474121094,3.0429999828338623 -44.57899856567383,0.3659999966621399 C-14.434000015258789,-11.95199966430664 19.26099967956543,-10.717000007629395 46.624000549316406,-4.071000099182129 C48.875999450683594,-2.630000114440918 51.06800079345703,-1.093999981880188 53.18199920654297,0.4970000088214874z"></path></g><g opacity="1" transform="matrix(1,0,0,1,158.60499572753906,112.63400268554688)"><path fill="rgb(255,188,227)" fill-opacity="1" d=" M45.60200119018555,1.7669999599456787 C18.23900032043457,-4.879000186920166 -15.456999778747559,-6.113999843597412 -45.60200119018555,6.203999996185303 C-42.42599868774414,3.499000072479248 -38.974998474121094,1.027999997138977 -35.21900177001953,-1.152999997138977 C-10.569999694824219,-8.052000045776367 15.437000274658203,-7.2179999351501465 37.97200012207031,-2.6410000324249268 C40.59700012207031,-1.2929999828338623 43.13399887084961,0.1850000023841858 45.60200119018555,1.7669999599456787z"></path></g><g opacity="1" transform="matrix(1,0,0,1,159.9810028076172,107.65699768066406)"><path fill="rgb(255,202,232)" fill-opacity="1" d=" M36.595001220703125,2.3359999656677246 C14.0600004196167,-2.240999937057495 -11.946000099182129,-3.0739998817443848 -36.595001220703125,3.825000047683716 C-32.71099853515625,1.569000005722046 -28.513999938964844,-0.36899998784065247 -23.981000900268555,-1.9320000410079956 C-6.440000057220459,-4.758999824523926 11.29699993133545,-4.216000080108643 27.618999481201172,-1.6419999599456787 C30.70599937438965,-0.4909999966621399 33.694000244140625,0.8379999995231628 36.595001220703125,2.3359999656677246z"></path></g><g opacity="1" transform="matrix(1,0,0,1,161.8000030517578,103.76100158691406)"><path fill="rgb(255,211,240)" fill-opacity="1" d=" M25.799999237060547,2.253000020980835 C9.477999687194824,-0.32100000977516174 -8.258999824523926,-0.8640000224113464 -25.799999237060547,1.9630000591278076 C-17.402999877929688,-0.9110000133514404 -7.875999927520752,-2.4639999866485596 2.8510000705718994,-2.2300000190734863 C10.972000122070312,-2.052000045776367 18.631999969482422,-0.41499999165534973 25.799999237060547,2.253000020980835z"></path></g></g><g style="display: block;" transform="matrix(0.949999988079071,0,0,0.949999988079071,255.99400329589844,255.99200439453125)" opacity="1"><g opacity="1" transform="matrix(1,0,0,1,0,0)"><path stroke-linecap="round" stroke-linejoin="round" fill-opacity="0" stroke="rgb(197,0,107)" stroke-opacity="1" stroke-width="9" d=" M95.50900268554688,-178.98399353027344 C31.052000045776367,-182.10499572753906 8.064000129699707,-135.26300048828125 -0.21299999952316284,-121.83000183105469 C-0.6930000185966492,-121.0510025024414 -1.496999979019165,-120.66200256347656 -2.3010001182556152,-120.66200256347656 C-3.1050000190734863,-120.66200256347656 -3.9089999198913574,-121.052001953125 -4.388999938964844,-121.83000183105469 C-12.666000366210938,-135.26300048828125 -36.84199905395508,-180 -100.61199951171875,-178.98399353027344 C-160.19400024414062,-178.03500366210938 -190.02200317382812,-128.80099487304688 -192.4199981689453,-90.91000366210938 C-194.8520050048828,-52.481998443603516 -187.11000061035156,-9.1899995803833 -135.5489959716797,57.9370002746582 C-95.8010025024414,109.68399810791016 -37.742000579833984,168.6739959716797 -13.887999534606934,192.18600463867188 C-10.756999969482422,195.27200317382812 -6.678999900817871,196.8159942626953 -2.6019999980926514,196.8159942626953 C1.475000023841858,196.8159942626953 5.552000045776367,195.27200317382812 8.682999610900879,192.18600463867188 C32.5369987487793,168.6739959716797 90.1989974975586,111.18399810791016 129.94700622558594,59.4370002746582 C181.50799560546875,-7.690000057220459 189.75,-52.481998443603516 187.3179931640625,-90.91000366210938 C184.9199981689453,-128.79800415039062 159.96600341796875,-175.86300659179688 95.50900268554688,-178.98399353027344z"></path></g></g><g style="display: block;" transform="matrix(0.949999988079071,0,0,0.949999988079071,12.794021606445312,12.792007446289062)" opacity="1"><g opacity="1" transform="matrix(1,0,0,1,337.7699890136719,106.89900207519531)"><path stroke-linecap="round" stroke-linejoin="round" fill-opacity="0" stroke="rgb(255,255,255)" stroke-opacity="1" stroke-width="6" d=" M-1.909999966621399,0.10999999940395355 C-0.6650000214576721,-0.012000000104308128 0.6110000014305115,-0.09000000357627869 1.909999966621399,-0.10999999940395355"></path></g><g opacity="1" transform="matrix(1,0,0,1,321.5039978027344,110.69999694824219)"><path stroke-linecap="round" stroke-linejoin="round" fill-opacity="0" stroke="rgb(255,255,255)" stroke-opacity="1" stroke-width="6" d=" M-5.091000080108643,1.9359999895095825 C-5.091000080108643,1.9359999895095825 -1.659000039100647,-0.2070000022649765 5.091000080108643,-1.9359999895095825"></path></g></g><g style="display: block;" transform="matrix(0.9999993443489075,0,0,0.9999993443489075,159.3000030517578,310.0820007324219)" opacity="1"><g opacity="1" transform="matrix(1,0,0,1,0,0)"><path fill="url(#__lottie_element_16100)" fill-opacity="1" d=" M105.20800018310547,0 C76.15599822998047,0 49.854000091552734,-11.776000022888184 30.815000534057617,-30.815000534057617 C11.776000022888184,-49.854000091552734 0,-76.15599822998047 0,-105.20800018310547 C0,-76.15599822998047 -11.776000022888184,-49.854000091552734 -30.815000534057617,-30.815000534057617 C-49.854000091552734,-11.776000022888184 -76.15599822998047,0 -105.20800018310547,0 C-76.15599822998047,0 -49.854000091552734,11.776000022888184 -30.815000534057617,30.815000534057617 C-11.776000022888184,49.854000091552734 0,76.15599822998047 0,105.20800018310547 C0,76.15599822998047 11.776000022888184,49.854000091552734 30.815000534057617,30.815000534057617 C49.854000091552734,11.776000022888184 76.15599822998047,0 105.20800018310547,0z"></path><path fill="rgb(255,255,255)" fill-opacity="0.5" d=" M105.20800018310547,0 C76.15599822998047,0 49.854000091552734,-11.776000022888184 30.815000534057617,-30.815000534057617 C11.776000022888184,-49.854000091552734 0,-76.15599822998047 0,-105.20800018310547 C0,-76.15599822998047 -11.776000022888184,-49.854000091552734 -30.815000534057617,-30.815000534057617 C-49.854000091552734,-11.776000022888184 -76.15599822998047,0 -105.20800018310547,0 C-76.15599822998047,0 -49.854000091552734,11.776000022888184 -30.815000534057617,30.815000534057617 C-11.776000022888184,49.854000091552734 0,76.15599822998047 0,105.20800018310547 C0,76.15599822998047 11.776000022888184,49.854000091552734 30.815000534057617,30.815000534057617 C49.854000091552734,11.776000022888184 76.15599822998047,0 105.20800018310547,0z"></path></g></g><g style="display: block;" transform="matrix(0.9999993443489075,0,0,0.9999993443489075,159.3000030517578,310.0820007324219)" opacity="1"><g opacity="1" transform="matrix(1,0,0,1,0,0)"><path fill="url(#__lottie_element_16106)" fill-opacity="1" d=" M105.20800018310547,0 C64.91699981689453,6.333000183105469 38.61399841308594,-5.442999839782715 22.385000228881836,-26.065000534057617 C6.156000137329102,-46.6870002746582 0,-76.15599822998047 0,-105.20800018310547 C3.062999963760376,-59.270999908447266 -6.156000137329102,-31.802000045776367 -24.68199920654297,-16.400999069213867 C-43.20800018310547,-1 -71.04100036621094,2.3329999446868896 -105.20800018310547,0 C-76.15599822998047,0 -49.854000091552734,11.776000022888184 -30.815000534057617,30.815000534057617 C-11.776000022888184,49.854000091552734 0,76.15599822998047 0,105.20800018310547 C0,76.15599822998047 11.776000022888184,49.854000091552734 30.815000534057617,30.815000534057617 C49.854000091552734,11.776000022888184 76.15599822998047,0 105.20800018310547,0z"></path></g></g><g style="display: block;" transform="matrix(0.9999993443489075,0,0,0.9999993443489075,159.3000030517578,310.0820007324219)" opacity="1"><g opacity="1" transform="matrix(1,0,0,1,0,0)"><path stroke-linecap="round" stroke-linejoin="round" fill-opacity="0" stroke="rgb(243,158,7)" stroke-opacity="1" stroke-width="8" d=" M105.20800018310547,0 C76.15599822998047,0 49.854000091552734,-11.776000022888184 30.815000534057617,-30.815000534057617 C11.776000022888184,-49.854000091552734 0,-76.15599822998047 0,-105.20800018310547 C0,-76.15599822998047 -11.776000022888184,-49.854000091552734 -30.815000534057617,-30.815000534057617 C-49.854000091552734,-11.776000022888184 -76.15599822998047,0 -105.20800018310547,0 C-76.15599822998047,0 -49.854000091552734,11.776000022888184 -30.815000534057617,30.815000534057617 C-11.776000022888184,49.854000091552734 0,76.15599822998047 0,105.20800018310547 C0,76.15599822998047 11.776000022888184,49.854000091552734 30.815000534057617,30.815000534057617 C49.854000091552734,11.776000022888184 76.15599822998047,0 105.20800018310547,0z"></path></g></g><g style="display: none;"><g><path fill="url(#__lottie_element_16088)"></path><path></path></g></g><g style="display: none;"><g><path fill="url(#__lottie_element_16094)"></path></g></g><g style="display: none;"><g><path stroke-linecap="round" stroke-linejoin="round" fill-opacity="0"></path></g></g><g style="display: none;"><g><path fill="url(#__lottie_element_16077)"></path><path></path></g></g><g style="display: none;"><g><path fill="url(#__lottie_element_16083)"></path></g></g><g style="display: none;"><g><path stroke-linecap="round" stroke-linejoin="round" fill-opacity="0"></path></g></g><g style="display: none;"><g><path fill="url(#__lottie_element_16066)"></path><path></path></g></g><g style="display: none;"><g><path fill="url(#__lottie_element_16072)"></path></g></g><g style="display: none;"><g><path stroke-linecap="round" stroke-linejoin="round" fill-opacity="0"></path></g></g><g style="display: none;"><g><path fill="url(#__lottie_element_16055)"></path><path></path></g></g><g style="display: none;"><g><path fill="url(#__lottie_element_16061)"></path></g></g><g style="display: none;"><g><path stroke-linecap="round" stroke-linejoin="round" fill-opacity="0"></path></g></g><g style="display: block;" transform="matrix(0.9999993443489075,0,0,0.9999993443489075,391.4800109863281,131.9669952392578)" opacity="1"><g opacity="1" transform="matrix(1,0,0,1,0,0)"><path fill="url(#__lottie_element_16043)" fill-opacity="1" d=" M59.39500045776367,0 C42.99399948120117,0 28.143999099731445,-8.954999923706055 17.395999908447266,-23.434999465942383 C6.6479997634887695,-37.915000915527344 0,-57.917999267578125 0,-80.01300048828125 C0,-57.917999267578125 -6.6479997634887695,-37.915000915527344 -17.395999908447266,-23.434999465942383 C-28.143999099731445,-8.954999923706055 -42.99399948120117,0 -59.39500045776367,0 C-42.99399948120117,0 -28.143999099731445,8.954999923706055 -17.395999908447266,23.434999465942383 C-6.6479997634887695,37.915000915527344 0,57.917999267578125 0,80.01300048828125 C0,57.917999267578125 6.6479997634887695,37.915000915527344 17.395999908447266,23.434999465942383 C28.143999099731445,8.954999923706055 42.99399948120117,0 59.39500045776367,0z"></path><path fill="rgb(255,255,255)" fill-opacity="0.5" d=" M59.39500045776367,0 C42.99399948120117,0 28.143999099731445,-8.954999923706055 17.395999908447266,-23.434999465942383 C6.6479997634887695,-37.915000915527344 0,-57.917999267578125 0,-80.01300048828125 C0,-57.917999267578125 -6.6479997634887695,-37.915000915527344 -17.395999908447266,-23.434999465942383 C-28.143999099731445,-8.954999923706055 -42.99399948120117,0 -59.39500045776367,0 C-42.99399948120117,0 -28.143999099731445,8.954999923706055 -17.395999908447266,23.434999465942383 C-6.6479997634887695,37.915000915527344 0,57.917999267578125 0,80.01300048828125 C0,57.917999267578125 6.6479997634887695,37.915000915527344 17.395999908447266,23.434999465942383 C28.143999099731445,8.954999923706055 42.99399948120117,0 59.39500045776367,0z"></path></g></g><g style="display: block;" transform="matrix(0.9999993443489075,0,0,0.9999993443489075,391.4800109863281,131.9669952392578)" opacity="1"><g opacity="1" transform="matrix(1,0,0,1,0,0)"><path fill="url(#__lottie_element_16049)" fill-opacity="1" d=" M59.39500045776367,0 C42.99399948120117,0 33.369998931884766,-0.8130000233650208 25.233999252319336,-5.126999855041504 C17.097999572753906,-9.440999984741211 10.451000213623047,-17.253999710083008 0,-31.253999710083008 C-2.006999969482422,-23.628999710083008 -8.88599967956543,-13.315999984741211 -17.29400062561035,-5.900000095367432 C-25.70199966430664,1.5160000324249268 -35.63999938964844,6.035999774932861 -43.76499938964844,2.0769999027252197 C-31.014999389648438,9.03600025177002 -20.073999404907227,17.472999572753906 -12.319999694824219,29.69300079345703 C-4.565999984741211,41.91299819946289 0,57.917999267578125 0,80.01300048828125 C0,57.917999267578125 6.6479997634887695,37.915000915527344 17.395999908447266,23.434999465942383 C28.143999099731445,8.954999923706055 42.99399948120117,0 59.39500045776367,0z"></path></g></g><g style="display: block;" transform="matrix(0.9999993443489075,0,0,0.9999993443489075,391.4800109863281,131.9669952392578)" opacity="1"><g opacity="1" transform="matrix(1,0,0,1,0,0)"><path stroke-linecap="round" stroke-linejoin="round" fill-opacity="0" stroke="rgb(243,158,7)" stroke-opacity="1" stroke-width="8" d=" M59.39500045776367,0 C42.99399948120117,0 28.143999099731445,-8.954999923706055 17.395999908447266,-23.434999465942383 C6.6479997634887695,-37.915000915527344 0,-57.917999267578125 0,-80.01300048828125 C0,-57.917999267578125 -6.6479997634887695,-37.915000915527344 -17.395999908447266,-23.434999465942383 C-28.143999099731445,-8.954999923706055 -42.99399948120117,0 -59.39500045776367,0 C-42.99399948120117,0 -28.143999099731445,8.954999923706055 -17.395999908447266,23.434999465942383 C-6.6479997634887695,37.915000915527344 0,57.917999267578125 0,80.01300048828125 C0,57.917999267578125 6.6479997634887695,37.915000915527344 17.395999908447266,23.434999465942383 C28.143999099731445,8.954999923706055 42.99399948120117,0 59.39500045776367,0z"></path></g></g></g></svg>