<svg xmlns="http://www.w3.org/2000/svg" viewBox="0 0 512 512" width="512" height="512" style="width: 100%; height: 100%; transform: translate3d(0,0,0);" preserveAspectRatio="xMidYMid meet"><defs><clipPath id="__lottie_element_16131"><rect width="512" height="512" x="0" y="0"></rect></clipPath></defs><g clip-path="url(#__lottie_element_16131)"><g style="display: block;" transform="matrix(1,0,0,1,255.99949645996094,256.00048828125)" opacity="1"><g opacity="1" transform="matrix(1,0,0,1,0,0)"><path fill="rgb(253,174,0)" fill-opacity="1" d=" M45.36600112915039,-167.43800354003906 C67.22899627685547,-189.53399658203125 134.49600219726562,-227.9239959716797 147.9409942626953,-220.60499572753906 C162.03799438476562,-212.93099975585938 158.0590057373047,-102.24800109863281 146.83099365234375,-50.2400016784668 C135.60299682617188,1.7680000066757202 -5.618000030517578,-115.91200256347656 45.36600112915039,-167.43800354003906z"></path><path stroke-linecap="butt" stroke-linejoin="miter" fill-opacity="0" stroke-miterlimit="10" stroke="rgb(172,90,0)" stroke-opacity="1" stroke-width="8" d=" M45.36600112915039,-167.43800354003906 C67.22899627685547,-189.53399658203125 134.49600219726562,-227.9239959716797 147.9409942626953,-220.60499572753906 C162.03799438476562,-212.93099975585938 158.0590057373047,-102.24800109863281 146.83099365234375,-50.2400016784668 C135.60299682617188,1.7680000066757202 -5.618000030517578,-115.91200256347656 45.36600112915039,-167.43800354003906z"></path></g><g opacity="1" transform="matrix(1,0,0,1,0,0)"><path fill="rgb(189,97,0)" fill-opacity="1" d=" M71.15699768066406,-166.7100067138672 C85.0459976196289,-180.7469940185547 127.7770004272461,-205.13499450683594 136.3179931640625,-200.48500061035156 C145.2729949951172,-195.61000061035156 145.60499572753906,-147.85000610351562 138.4720001220703,-114.81099700927734 C131.33999633789062,-81.77300262451172 38.76900100708008,-133.97799682617188 71.15699768066406,-166.7100067138672z"></path></g></g><g style="display: block;" transform="matrix(1,0,0,1,255.99949645996094,256.00048828125)" opacity="1"><g opacity="1" transform="matrix(1,0,0,1,0,0)"><path fill="rgb(253,174,0)" fill-opacity="1" d=" M-54.75,-167.43800354003906 C-76.61299896240234,-189.53399658203125 -143.8800048828125,-227.9239959716797 -157.3249969482422,-220.60499572753906 C-171.4219970703125,-212.93099975585938 -170.4429931640625,-95.74800109863281 -159.21499633789062,-43.7400016784668 C-147.98699951171875,8.267999649047852 -3.7660000324249268,-115.91200256347656 -54.75,-167.43800354003906z"></path><path stroke-linecap="butt" stroke-linejoin="miter" fill-opacity="0" stroke-miterlimit="10" stroke="rgb(172,90,0)" stroke-opacity="1" stroke-width="8" d=" M-54.75,-167.43800354003906 C-76.61299896240234,-189.53399658203125 -143.8800048828125,-227.9239959716797 -157.3249969482422,-220.60499572753906 C-171.4219970703125,-212.93099975585938 -170.4429931640625,-95.74800109863281 -159.21499633789062,-43.7400016784668 C-147.98699951171875,8.267999649047852 -3.7660000324249268,-115.91200256347656 -54.75,-167.43800354003906z"></path></g><g opacity="1" transform="matrix(1,0,0,1,0,0)"><path fill="rgb(189,97,0)" fill-opacity="1" d=" M-80.54100036621094,-166.7100067138672 C-94.43000030517578,-180.7469940185547 -137.16099548339844,-205.13499450683594 -145.70199584960938,-200.48500061035156 C-154.65699768066406,-195.61000061035156 -154.98800659179688,-147.85000610351562 -147.8560028076172,-114.81099700927734 C-140.7239990234375,-81.77300262451172 -48.15299987792969,-133.97799682617188 -80.54100036621094,-166.7100067138672z"></path></g></g><g style="display: block;" transform="matrix(1,0,0,1,256,256)" opacity="1"><g opacity="0.1" transform="matrix(1,0,0,1,0,0)"><path fill="rgb(0,0,0)" fill-opacity="1" d=" M190.01600646972656,8.802000045776367 C185.51199340820312,-17.840999603271484 166.48500061035156,-91.63500213623047 120.11399841308594,-130.29299926757812 C91.28099822998047,-154.3300018310547 52.04100036621094,-167.87399291992188 -3.9489998817443848,-167.87399291992188 C-4.123000144958496,-167.87399291992188 -4.639999866485596,-167.87399291992188 -4.814000129699707,-167.87399291992188 C-60.80400085449219,-167.87399291992188 -100.04399871826172,-154.3300018310547 -128.8769989013672,-130.29299926757812 C-175.24899291992188,-91.63500213623047 -194.27499389648438,-17.840999603271484 -198.7790069580078,8.802000045776367 C-202.57699584960938,31.273000717163086 -202.94700622558594,57.87799835205078 -193.71600341796875,79.10800170898438 C-163.98399353027344,147.49000549316406 -49.54600143432617,206.98599243164062 -4.814000129699707,206.98599243164062 C-4.639999866485596,206.98599243164062 -4.123000144958496,206.98599243164062 -3.9489998817443848,206.98599243164062 C39.91699981689453,206.98599243164062 155.22000122070312,147.49000549316406 184.95199584960938,79.10800170898438 C194.1820068359375,57.87799835205078 193.81399536132812,31.273000717163086 190.01600646972656,8.802000045776367z"></path></g><g opacity="1" transform="matrix(1,0,0,1,0,0)"><path fill="rgb(255,189,0)" fill-opacity="1" d=" M179.9080047607422,-4.638999938964844 C175.63800048828125,-29.895999908447266 157.6009979248047,-99.85399627685547 113.64099884033203,-136.5019989013672 C86.30699920654297,-159.28900146484375 49.106998443603516,-172.12899780273438 -3.9719998836517334,-172.12899780273438 C-4.13700008392334,-172.12899780273438 -4.626999855041504,-172.12899780273438 -4.791999816894531,-172.12899780273438 C-57.87099838256836,-172.12899780273438 -95.06999969482422,-159.28900146484375 -122.40399932861328,-136.5019989013672 C-166.36500549316406,-99.85399627685547 -184.40199279785156,-29.895999908447266 -188.6719970703125,-4.638999938964844 C-192.2729949951172,16.663999557495117 -192.6230010986328,41.8849983215332 -183.8719940185547,62.01100158691406 C-155.68600463867188,126.83699798583984 -47.198001861572266,183.24099731445312 -4.791999816894531,183.24099731445312 C-4.626999855041504,183.24099731445312 -4.13700008392334,183.24099731445312 -3.9719998836517334,183.24099731445312 C37.61399841308594,183.24099731445312 146.9219970703125,126.83699798583984 175.10800170898438,62.01100158691406 C183.85800170898438,41.8849983215332 183.50900268554688,16.663999557495117 179.9080047607422,-4.638999938964844z"></path></g><g opacity="1" transform="matrix(1,0,0,1,0,0)"><path fill="rgb(255,223,0)" fill-opacity="1" d=" M162.51300048828125,-3.6760001182556152 C158.64599609375,-26.548999786376953 142.31100463867188,-89.90399932861328 102.5,-123.09300231933594 C77.74600219726562,-143.72900390625 44.058998107910156,-155.35699462890625 -4.010000228881836,-155.35699462890625 C-4.158999919891357,-155.35699462890625 -4.603000164031982,-155.35699462890625 -4.752999782562256,-155.35699462890625 C-52.821998596191406,-155.35699462890625 -86.51000213623047,-143.72900390625 -111.26399993896484,-123.09300231933594 C-151.0749969482422,-89.90399932861328 -167.41000366210938,-26.548999786376953 -171.27699279785156,-3.6760001182556152 C-174.53799438476562,15.616000175476074 -174.85499572753906,38.45500183105469 -166.92999267578125,56.68199920654297 C-141.4040069580078,115.38899993896484 -43.15599822998047,166.47000122070312 -4.752999782562256,166.47000122070312 C-4.603000164031982,166.47000122070312 -4.158999919891357,166.47000122070312 -4.010000228881836,166.47000122070312 C33.650001525878906,166.47000122070312 132.63999938964844,115.38899993896484 158.16600036621094,56.68199920654297 C166.08999633789062,38.45500183105469 165.7740020751953,15.616000175476074 162.51300048828125,-3.6760001182556152z"></path></g><g opacity="1" transform="matrix(1,0,0,1,0,0)"><path stroke-linecap="butt" stroke-linejoin="miter" fill-opacity="0" stroke-miterlimit="10" stroke="rgb(211,120,0)" stroke-opacity="1" stroke-width="8" d=" M179.9080047607422,-4.638999938964844 C175.63800048828125,-29.895999908447266 157.6009979248047,-99.85399627685547 113.64099884033203,-136.5019989013672 C86.30699920654297,-159.28900146484375 49.106998443603516,-172.12899780273438 -3.9719998836517334,-172.12899780273438 C-4.13700008392334,-172.12899780273438 -4.626999855041504,-172.12899780273438 -4.791999816894531,-172.12899780273438 C-57.87099838256836,-172.12899780273438 -95.06999969482422,-159.28900146484375 -122.40399932861328,-136.5019989013672 C-166.36500549316406,-99.85399627685547 -184.40199279785156,-29.895999908447266 -188.6719970703125,-4.638999938964844 C-192.2729949951172,16.663999557495117 -192.6230010986328,41.8849983215332 -183.8719940185547,62.01100158691406 C-155.68600463867188,126.83699798583984 -47.198001861572266,183.24099731445312 -4.791999816894531,183.24099731445312 C-4.626999855041504,183.24099731445312 -4.13700008392334,183.24099731445312 -3.9719998836517334,183.24099731445312 C37.61399841308594,183.24099731445312 146.9219970703125,126.83699798583984 175.10800170898438,62.01100158691406 C183.85800170898438,41.8849983215332 183.50900268554688,16.663999557495117 179.9080047607422,-4.638999938964844z"></path></g><g opacity="0.9" transform="matrix(1,0,0,1,0,0)"><path fill="rgb(255,234,89)" fill-opacity="1" d=" M118.8550033569336,-22.554000854492188 C133.70599365234375,-37.404998779296875 128.59300231933594,-95.71800231933594 92.50499725341797,-125.8030014038086 C70.06600189208984,-144.50900268554688 39.52799987792969,-155.0500030517578 -4.045000076293945,-155.0500030517578 C-4.179999828338623,-155.0500030517578 -4.583000183105469,-155.0500030517578 -4.718999862670898,-155.0500030517578 C-48.292999267578125,-155.0500030517578 -78.83000183105469,-144.50900268554688 -101.26899719238281,-125.8030014038086 C-137.35800170898438,-95.71800231933594 -143.6750030517578,-37.981998443603516 -128.2469940185547,-22.554000854492188 C-111.04399871826172,-5.35099983215332 -78.47200012207031,-37.301998138427734 -4.692999839782715,-37.290000915527344 C69.29299926757812,-37.27799987792969 101.27400207519531,-4.9730000495910645 118.8550033569336,-22.554000854492188z"></path></g><g opacity="1" transform="matrix(1,0,0,1,0,0)"><g opacity="1" transform="matrix(1,0,0,1,0,0)"><path stroke-linecap="round" stroke-linejoin="round" fill-opacity="0" stroke="rgb(255,255,255)" stroke-opacity="1" stroke-width="6" d=" M41.91400146484375,-151.21400451660156 C43.43000030517578,-150.89500427246094 45.00199890136719,-150.54200744628906 46.624000549316406,-150.1529998779297"></path></g><g opacity="1" transform="matrix(1,0,0,1,0,0)"><path stroke-linecap="round" stroke-linejoin="round" fill-opacity="0" stroke="rgb(255,255,255)" stroke-opacity="1" stroke-width="6" d=" M20.8799991607666,-154.20799255371094 C20.8799991607666,-154.20799255371094 25.66900062561035,-153.99899291992188 33.277000427246094,-152.802001953125"></path></g></g></g><g style="display: block;" transform="matrix(1.0000008344650269,0,0,0.9999926686286926,256,255.99996948242188)" opacity="1"><g opacity="1" transform="matrix(1,0,0,1,0,0)"><path fill="rgb(255,232,157)" fill-opacity="1" d=" M-50.22200012207031,106.52799987792969 C-38.29100036621094,93.7020034790039 -18.593000411987305,83.47000122070312 -3.0959999561309814,83.47000122070312 C12.425999641418457,83.47000122070312 32.05699920654297,93.7020034790039 43.987998962402344,106.52799987792969 C54.82500076293945,118.177001953125 55.6619987487793,128.9530029296875 52.13999938964844,130.30799865722656 C47.71699905395508,132.00900268554688 28.402999877929688,113.30799865722656 -3.0959999561309814,112.96900177001953 C-34.595001220703125,113.30799865722656 -53.909000396728516,132.00900268554688 -58.332000732421875,130.30799865722656 C-61.854000091552734,128.9530029296875 -61.05799865722656,118.177001953125 -50.22200012207031,106.52799987792969z"></path></g><g opacity="1" transform="matrix(1,0,0,1,0,0)"><path fill="rgb(255,189,0)" fill-opacity="1" d=" M-46.98400115966797,97.2229995727539 C-35.053001403808594,84.39700317382812 -15,70 -3.0959999561309814,70 C9,70 28.861000061035156,84.39700317382812 40.79199981689453,97.2229995727539 C51.62799835205078,108.87200164794922 55.6619987487793,124.64800262451172 52.13999938964844,126.00299835205078 C47.71699905395508,127.7040023803711 28.402999877929688,107.94999694824219 -3.0959999561309814,107.61100006103516 C-34.595001220703125,107.94999694824219 -53.909000396728516,127.7040023803711 -58.332000732421875,126.00299835205078 C-61.854000091552734,124.64800262451172 -57.82099914550781,108.87200164794922 -46.98400115966797,97.2229995727539z"></path></g><g opacity="1" transform="matrix(1,0,0,1,0,0)"><path fill="rgb(79,48,29)" fill-opacity="1" d=" M-46.98400115966797,102.2229995727539 C-35.053001403808594,89.39700317382812 -15,76 -3.0959999561309814,76 C9,76 28.861000061035156,89.39700317382812 40.79199981689453,102.2229995727539 C51.62799835205078,113.87200164794922 55.6619987487793,124.64800262451172 52.13999938964844,126.00299835205078 C47.71699905395508,127.7040023803711 28.402999877929688,107.94999694824219 -3.0959999561309814,107.61100006103516 C-34.595001220703125,107.94999694824219 -53.909000396728516,127.7040023803711 -58.332000732421875,126.00299835205078 C-61.854000091552734,124.64800262451172 -57.82099914550781,113.87200164794922 -46.98400115966797,102.2229995727539z"></path></g><g opacity="1" transform="matrix(1,0,0,1,0,0)"><path fill="rgb(18,14,11)" fill-opacity="1" d=" M52.56999969482422,125.75 C50.959999084472656,121.26000213623047 46.9900016784668,114.87999725341797 40.790000915527344,108.22000122070312 C28.860000610351562,95.4000015258789 9,83 -3.0999999046325684,83 C-15,83 -35.04999923706055,95.4000015258789 -46.97999954223633,108.22000122070312 C-53.18000030517578,114.87999725341797 -57.150001525878906,121.26000213623047 -58.7599983215332,125.75 C-61.470001220703125,123.68000030517578 -57.33000183105469,113.33999633789062 -46.97999954223633,102.22000122070312 C-35.04999923706055,89.4000015258789 -15,76 -3.0999999046325684,76 C9,76 28.860000610351562,89.4000015258789 40.790000915527344,102.22000122070312 C51.13999938964844,113.33999633789062 55.279998779296875,123.68000030517578 52.56999969482422,125.75z"></path></g></g><g style="display: block;" transform="matrix(1.0000008344650269,0,0,0.9999926686286926,256,255.99996948242188)" opacity="1"><g opacity="1" transform="matrix(1,0,0,1,0,0)"><path fill="rgb(114,79,52)" fill-opacity="1" d=" M-4.010000228881836,-13.670000076293945 C-17.506000518798828,-13.670000076293945 -34.82600021362305,-9.781999588012695 -34.82600021362305,2.5950000286102295 C-34.82600021362305,14.972000122070312 -16.91900062561035,36.250999450683594 -4.010000228881836,36.250999450683594 C8.89900016784668,36.250999450683594 26.805999755859375,14.972000122070312 26.805999755859375,2.5950000286102295 C26.805999755859375,-9.781999588012695 9.486000061035156,-13.670000076293945 -4.010000228881836,-13.670000076293945z"></path></g><g opacity="1" transform="matrix(1,0,0,1,0,0)"><path fill="rgb(53,44,36)" fill-opacity="1" d=" M-11.022000312805176,34.49100112915039 C-11.022000312805176,34.49100112915039 -11.031999588012695,34.49100112915039 -11.041999816894531,34.500999450683594 C-17.07200050354004,31.701000213623047 -23.302000045776367,25.910999298095703 -27.86199951171875,19.551000595092773 C-27.86199951171875,19.551000595092773 -27.86199951171875,19.541000366210938 -27.86199951171875,19.541000366210938 C-27.86199951171875,19.541000366210938 -21.2189998626709,13.33899974822998 -14.482000350952148,20.981000900268555 C-10.123000144958496,25.926000595092773 -11.022000312805176,34.49100112915039 -11.022000312805176,34.49100112915039z"></path></g><g opacity="1" transform="matrix(1,0,0,1,0,0)"><path fill="rgb(156,122,87)" fill-opacity="1" d=" M16.551000595092773,-0.5879999995231628 C16.551000595092773,4.826000213623047 7.3460001945495605,9.215999603271484 -4.010000228881836,9.215999603271484 C-15.366000175476074,9.215999603271484 -24.570999145507812,4.826000213623047 -24.570999145507812,-0.5879999995231628 C-24.570999145507812,-6.001999855041504 -15.366000175476074,-10.390999794006348 -4.010000228881836,-10.390999794006348 C7.3460001945495605,-10.390999794006348 16.551000595092773,-6.001999855041504 16.551000595092773,-0.5879999995231628z"></path></g><g opacity="1" transform="matrix(1,0,0,1,0,0)"><path fill="rgb(53,44,36)" fill-opacity="1" d=" M19.54800033569336,19.97100067138672 C14.807999610900879,26.430999755859375 8.39799976348877,32.24100112915039 2.2679998874664307,34.83100128173828 C2.2679998874664307,34.83100128173828 2.257999897003174,34.83100128173828 2.257999897003174,34.83100128173828 C2.257999897003174,34.83100128173828 1.2829999923706055,27.19499969482422 5.9029998779296875,21.44499969482422 C11.666999816894531,14.270999908447266 19.54800033569336,19.97100067138672 19.54800033569336,19.97100067138672z"></path></g></g><g style="display: block;" transform="matrix(1.0000008344650269,0,0,0.9999926686286926,256,255.99996948242188)" opacity="1"><g opacity="1" transform="matrix(1,0,0,1,0,0)"><path fill="rgb(255,232,157)" fill-opacity="1" d=" M90,-43.0620002746582 C90,-22.041000366210938 78.95999908447266,-5 66.5,-5 C54.040000915527344,-5 43,-22.041000366210938 43,-43.0620002746582 C43,-64.08300018310547 54.040000915527344,-81.1240005493164 66.5,-81.1240005493164 C78.95999908447266,-81.1240005493164 90,-64.08300018310547 90,-43.0620002746582z"></path></g><g opacity="1" transform="matrix(1,0,0,1,0,0)"><g opacity="1" transform="matrix(1,0,0,1,0,0)"><path fill="rgb(17,17,17)" fill-opacity="1" d=" M89.05999755859375,-48.50400161743164 C89.05999755859375,-27.482999801635742 78.95999908447266,-10.442000389099121 66.5,-10.442000389099121 C54.040000915527344,-10.442000389099121 43.939998626708984,-27.482999801635742 43.939998626708984,-48.50400161743164 C43.939998626708984,-69.5250015258789 54.040000915527344,-86.56600189208984 66.5,-86.56600189208984 C78.95999908447266,-86.56600189208984 89.05999755859375,-69.5250015258789 89.05999755859375,-48.50400161743164z"></path></g><g opacity="1" transform="matrix(1,0,0,1,0,0)"><path fill="rgb(72,73,73)" fill-opacity="1" d=" M82.39099884033203,-40.152000427246094 C82.39099884033203,-32.527000427246094 75.79000091552734,-17.80299949645996 66.5,-17.80299949645996 C57.209999084472656,-17.80299949645996 50.60900115966797,-32.527000427246094 50.60900115966797,-40.152000427246094 C50.60900115966797,-52.3849983215332 57.209999084472656,-40.85100173950195 66.5,-40.85100173950195 C75.79000091552734,-40.85100173950195 82.39099884033203,-52.93899917602539 82.39099884033203,-40.152000427246094z"></path></g></g><g opacity="1" transform="matrix(1,0,0,1,0,0)"><path fill="rgb(242,242,242)" fill-opacity="1" d=" M74,-68 C74,-65.23899841308594 71.76100158691406,-63 69,-63 C66.23899841308594,-63 64,-65.23899841308594 64,-68 C64,-70.76100158691406 66.23899841308594,-73 69,-73 C71.76100158691406,-73 74,-70.76100158691406 74,-68z"></path></g></g><g style="display: block;" transform="matrix(-1.0000008344650269,0,0,0.9999926686286926,248.25,255.99996948242188)" opacity="1"><g opacity="1" transform="matrix(1,0,0,1,0,0)"><path fill="rgb(255,232,157)" fill-opacity="1" d=" M90,-43.0620002746582 C90,-22.041000366210938 78.95999908447266,-5 66.5,-5 C54.040000915527344,-5 43,-22.041000366210938 43,-43.0620002746582 C43,-64.08300018310547 54.040000915527344,-81.1240005493164 66.5,-81.1240005493164 C78.95999908447266,-81.1240005493164 90,-64.08300018310547 90,-43.0620002746582z"></path></g><g opacity="1" transform="matrix(1,0,0,1,0,0)"><g opacity="1" transform="matrix(1,0,0,1,0,0)"><path fill="rgb(17,17,17)" fill-opacity="1" d=" M89.05999755859375,-48.50400161743164 C89.05999755859375,-27.482999801635742 78.95999908447266,-10.442000389099121 66.5,-10.442000389099121 C54.040000915527344,-10.442000389099121 43.939998626708984,-27.482999801635742 43.939998626708984,-48.50400161743164 C43.939998626708984,-69.5250015258789 54.040000915527344,-86.56600189208984 66.5,-86.56600189208984 C78.95999908447266,-86.56600189208984 89.05999755859375,-69.5250015258789 89.05999755859375,-48.50400161743164z"></path></g><g opacity="1" transform="matrix(1,0,0,1,0,0)"><path fill="rgb(72,73,73)" fill-opacity="1" d=" M82.39099884033203,-40.152000427246094 C82.39099884033203,-32.527000427246094 75.79000091552734,-17.80299949645996 66.5,-17.80299949645996 C57.209999084472656,-17.80299949645996 50.60900115966797,-32.527000427246094 50.60900115966797,-40.152000427246094 C50.60900115966797,-52.3849983215332 57.209999084472656,-40.85100173950195 66.5,-40.85100173950195 C75.79000091552734,-40.85100173950195 82.39099884033203,-52.93899917602539 82.39099884033203,-40.152000427246094z"></path></g></g><g opacity="1" transform="matrix(1,0,0,1,-11,0)"><path fill="rgb(242,242,242)" fill-opacity="1" d=" M79,-68 C79,-65.23899841308594 76.76100158691406,-63 74,-63 C71.23899841308594,-63 69,-65.23899841308594 69,-68 C69,-70.76100158691406 71.23899841308594,-73 74,-73 C76.76100158691406,-73 79,-70.76100158691406 79,-68z"></path></g></g><g style="display: block;" transform="matrix(1.0000008344650269,0,0,0.9999926686286926,256,255.99996948242188)" opacity="1"><g opacity="1" transform="matrix(1,0,0,1,0,0)"><path fill="rgb(255,232,157)" fill-opacity="1" d=" M113.53900146484375,-91.49600219726562 C87.21399688720703,-117.21399688720703 62.4900016784668,-115.48300170898438 59.19900131225586,-105.57499694824219 C57.20600128173828,-99.5719985961914 73.00800323486328,-98.55799865722656 99.26100158691406,-75.7300033569336 C123.9990005493164,-54.21900177001953 127.25700378417969,-38.18299865722656 133.20399475097656,-40.34299850463867 C142.49099731445312,-43.715999603271484 134.8979949951172,-70.62999725341797 113.53900146484375,-91.49600219726562z"></path></g><g opacity="1" transform="matrix(1,0,0,1,0,0)"><path fill="rgb(79,48,29)" fill-opacity="1" d=" M115.87799835205078,-91.91899871826172 C89.5530014038086,-117.63700103759766 64.26000213623047,-116.0780029296875 61.69200134277344,-107.51699829101562 C59.875999450683594,-101.46299743652344 75.2750015258789,-101.87100219726562 101.52799987792969,-79.04299926757812 C126.26599884033203,-57.53200149536133 128.9010009765625,-40.85499954223633 134.9040069580078,-42.827999114990234 C140.90699768066406,-44.80099868774414 137.23699951171875,-71.0530014038086 115.87799835205078,-91.91899871826172z"></path></g><g opacity="1" transform="matrix(1,0,0,1,0,0)"><path fill="rgb(18,14,11)" fill-opacity="1" d=" M134.9040069580078,-42.827999114990234 C134.76499938964844,-42.777000427246094 134.6230010986328,-42.7400016784668 134.47900390625,-42.71699905395508 C135.8159942626953,-51.2140007019043 130.00399780273438,-71.19400024414062 113.04000091552734,-87.7760009765625 C90.7490005493164,-109.55899810791016 69.19400024414062,-111.78299713134766 61.55099868774414,-106.75 C61.56700134277344,-106.99400329589844 61.61000061035156,-107.24500274658203 61.69200134277344,-107.51699829101562 C64.26200103759766,-116.08300018310547 89.5530014038086,-117.63700103759766 115.8740005493164,-91.91699981689453 C137.23399353027344,-71.05000305175781 140.90699768066406,-44.80099868774414 134.9040069580078,-42.827999114990234z"></path></g></g><g style="display: block;" transform="matrix(1.0000008344650269,0,0,0.9999926686286926,256,255.99996948242188)" opacity="1"><g opacity="1" transform="matrix(1,0,0,1,0,0)"><path fill="rgb(255,232,157)" fill-opacity="1" d=" M-120.90699768066406,-91.49600219726562 C-94.58200073242188,-117.21399688720703 -69.85900115966797,-115.48300170898438 -66.56800079345703,-105.57499694824219 C-64.57499694824219,-99.5719985961914 -80.3759994506836,-98.55799865722656 -106.62899780273438,-75.7300033569336 C-131.36700439453125,-54.21900177001953 -134.625,-38.18299865722656 -140.57200622558594,-40.34299850463867 C-149.85899353027344,-43.715999603271484 -142.26600646972656,-70.62999725341797 -120.90699768066406,-91.49600219726562z"></path></g><g opacity="1" transform="matrix(1,0,0,1,0,0)"><path fill="rgb(79,48,29)" fill-opacity="1" d=" M-123.24700164794922,-91.91899871826172 C-96.9219970703125,-117.63700103759766 -71.62799835205078,-116.0780029296875 -69.05999755859375,-107.51699829101562 C-67.24400329589844,-101.46299743652344 -82.64299774169922,-101.87100219726562 -108.89600372314453,-79.04299926757812 C-133.63400268554688,-57.53200149536133 -136.2689971923828,-40.85499954223633 -142.27200317382812,-42.827999114990234 C-148.27499389648438,-44.80099868774414 -144.6060028076172,-71.0530014038086 -123.24700164794922,-91.91899871826172z"></path></g><g opacity="1" transform="matrix(1,0,0,1,0,0)"><path fill="rgb(18,14,11)" fill-opacity="1" d=" M-142.27200317382812,-42.827999114990234 C-142.13299560546875,-42.777000427246094 -141.99200439453125,-42.7400016784668 -141.84800720214844,-42.71699905395508 C-143.18499755859375,-51.2140007019043 -137.3730010986328,-71.19400024414062 -120.40899658203125,-87.7760009765625 C-98.11799621582031,-109.55899810791016 -76.56199645996094,-111.78299713134766 -68.91899871826172,-106.75 C-68.93499755859375,-106.99400329589844 -68.97799682617188,-107.24500274658203 -69.05999755859375,-107.51699829101562 C-71.62999725341797,-116.08300018310547 -96.9209976196289,-117.63700103759766 -123.24199676513672,-91.91699981689453 C-144.6020050048828,-71.05000305175781 -148.27499389648438,-44.80099868774414 -142.27200317382812,-42.827999114990234z"></path></g></g><g style="display: block;" transform="matrix(1.0000008344650269,0,0,0.9999926686286926,256,255.99996948242188)" opacity="1"><g opacity="1" transform="matrix(1,0,0,1,0,0)"><path fill="rgb(56,43,38)" fill-opacity="1" d=" M71.13400268554688,14.289999961853027 C98.08899688720703,-2.5199999809265137 152.06700134277344,-11.838000297546387 194.89599609375,9.215999603271484 C151.12600708007812,-2.4600000381469727 108.677001953125,0.5910000205039978 71.13400268554688,14.289999961853027z"></path></g><g opacity="1" transform="matrix(1,0,0,1,0,0)"><path fill="rgb(56,43,38)" fill-opacity="1" d=" M73.12000274658203,23.055999755859375 C107.1510009765625,6.829999923706055 170.28199768066406,2.8010001182556152 216.43699645996094,34.500999450683594 C168.781005859375,12.45300006866455 118.69000244140625,10.61299991607666 73.12000274658203,23.055999755859375z"></path></g><g opacity="1" transform="matrix(1,0,0,1,0,0)"><path fill="rgb(56,43,38)" fill-opacity="1" d=" M75.66000366210938,34.500999450683594 C112.91400146484375,17.594999313354492 178.49899291992188,17.88599967956543 220.30299377441406,60.180999755859375 C176.0800018310547,28.023000717163086 125.5770034790039,21.520999908447266 75.66000366210938,34.500999450683594z"></path></g></g><g style="display: block;" transform="matrix(1.0000008344650269,0,0,0.9999926686286926,256,255.99996948242188)" opacity="1"><g opacity="1" transform="matrix(1,0,0,1,0,0)"><path fill="rgb(56,43,38)" fill-opacity="1" d=" M-79.01399993896484,14.291000366210938 C-116.63300323486328,0.5640000104904175 -158.8979949951172,-2.48799991607666 -202.7760009765625,9.215999603271484 C-160.093994140625,-11.763999938964844 -106.06500244140625,-2.5789999961853027 -79.01399993896484,14.291000366210938z"></path></g><g opacity="1" transform="matrix(1,0,0,1,0,0)"><path fill="rgb(56,43,38)" fill-opacity="1" d=" M-81,23.055999755859375 C-126.35900115966797,10.670000076293945 -176.39700317382812,12.331000328063965 -224.3159942626953,34.500999450683594 C-178.5760040283203,3.0840001106262207 -115.45500183105469,6.627999782562256 -81,23.055999755859375z"></path></g><g opacity="1" transform="matrix(1,0,0,1,0,0)"><path fill="rgb(56,43,38)" fill-opacity="1" d=" M-83.54000091552734,34.500999450683594 C-132.51300048828125,21.76799964904785 -183.58799743652344,27.75200080871582 -228.18299865722656,60.180999755859375 C-186.56300354003906,18.069000244140625 -120.90299987792969,17.545000076293945 -83.54000091552734,34.500999450683594z"></path></g></g><g style="display: block;" transform="matrix(1.0000008344650269,0,0,0.9999926686286926,256.781005859375,257.02294921875)" opacity="1"><g opacity="1" transform="matrix(1,0,0,1,0,0)"><path fill="rgb(58,162,222)" fill-opacity="1" d=" M-129,109.48200225830078 C-128.90699768066406,135.26400756835938 -107.93099975585938,156.08900451660156 -82.14900207519531,155.99600219726562 C-56.367000579833984,155.9029998779297 -35.54199981689453,134.927001953125 -35.6349983215332,109.1449966430664 C-35.72800064086914,83.36299896240234 -82.65399932861328,-2.3989999294281006 -82.65399932861328,-2.3989999294281006 C-82.65399932861328,-2.3989999294281006 -129.09300231933594,83.69999694824219 -129,109.48200225830078z"></path></g><g opacity="0.61" transform="matrix(1,0,0,1,0,0)"><g opacity="0.3" transform="matrix(1,0,0,1,0,0)"><path fill="rgb(144,243,253)" fill-opacity="1" d=" M-45.757999420166016,134.3209991455078 C-45.757999420166016,134.3209991455078 -45.755001068115234,134.30799865722656 -45.755001068115234,134.30799865722656 C-44.590999603271484,129.9290008544922 -43.86000061035156,132.05999755859375 -43.941001892089844,127.22200012207031 C-44.3849983215332,102.09300231933594 -62.77399826049805,82.04299926757812 -85.0250015258789,82.43699645996094 C-99.54299926757812,82.69200134277344 -112.08899688720703,91.58499908447266 -118.947998046875,104.7020034790039 C-123.36799621582031,116.68800354003906 -123.90799713134766,123.3550033569336 -119.95899963378906,134.7469940185547 C-119.94599914550781,134.75 -119.94999694824219,134.76400756835938 -119.9530029296875,134.77699279785156 C-117.552001953125,138.45399475097656 -114.53500366210938,141.7550048828125 -110.85900115966797,144.56500244140625 C-106.75599670410156,147.73699951171875 -101.81800079345703,150.281005859375 -96.02300262451172,152.0050048828125 C-80.7770004272461,156.52999877929688 -67.91899871826172,151.95899963378906 -58.36399841308594,145.4739990234375 C-53.12900161743164,141.927001953125 -48.874000549316406,137.82000732421875 -45.757999420166016,134.3209991455078z"></path></g><g opacity="0.4" transform="matrix(1,0,0,1,0,0)"><path fill="rgb(144,243,253)" fill-opacity="1" d=" M-49.53799819946289,129.00399780273438 C-49.90599822998047,107.96700286865234 -65.29900360107422,91.18599700927734 -83.91000366210938,91.51599884033203 C-102.53399658203125,91.84300231933594 -117.3239974975586,109.16300201416016 -116.9520034790039,130.18699645996094 C-116.8010025024414,138.80799865722656 -114.27400207519531,139.91200256347656 -109.87899780273438,146.2209930419922 C-105.7760009765625,149.39300537109375 -100.83799743652344,151.93699645996094 -95.04299926757812,153.66099548339844 C-79.7969970703125,158.18600463867188 -66.93800354003906,153.61399841308594 -57.382999420166016,147.1300048828125 C-52.42300033569336,140.38099670410156 -49.36600112915039,138.47300720214844 -49.53799819946289,129.00399780273438z"></path></g><g opacity="0.4" transform="matrix(1,0,0,1,0,0)"><path fill="rgb(144,243,253)" fill-opacity="1" d=" M-84.12899780273438,99.91899871826172 C-99.28399658203125,100.18499755859375 -111.32499694824219,114.2770004272461 -111.02400207519531,131.39300537109375 C-110.7229995727539,148.50900268554688 -98.34600067138672,155.36599731445312 -83.19100189208984,155.10000610351562 C-68.03600311279297,154.83399963378906 -55.84299850463867,147.54400634765625 -56.14400100708008,130.42799377441406 C-56.44499969482422,113.31199645996094 -68.9739990234375,99.65299987792969 -84.12899780273438,99.91899871826172z"></path></g><g opacity="0.4" transform="matrix(1,0,0,1,0,0)"><path fill="rgb(144,243,253)" fill-opacity="1" d=" M-83.34500122070312,110.94599914550781 C-94.56199645996094,111.14299774169922 -103.4739990234375,121.572998046875 -103.2509994506836,134.24099731445312 C-103.02799987792969,146.90899658203125 -93.90699768066406,150.21800231933594 -82.69000244140625,150.02099609375 C-71.4729995727539,149.82400512695312 -62.409000396728516,146.1959991455078 -62.63199996948242,133.52699279785156 C-62.85499954223633,120.85900115966797 -72.12799835205078,110.7490005493164 -83.34500122070312,110.94599914550781z"></path></g><g opacity="0.4" transform="matrix(1,0,0,1,0,0)"><path fill="rgb(144,243,253)" fill-opacity="1" d=" M-84.08000183105469,125.43399810791016 C-90.21800231933594,125.54199981689453 -95.09500122070312,131.24899291992188 -94.9729995727539,138.1820068359375 C-94.85099792480469,145.11399841308594 -89.9280014038086,143.8459930419922 -83.79000091552734,143.73800659179688 C-77.6520004272461,143.6300048828125 -72.62300109863281,144.72300720214844 -72.74500274658203,137.79100036621094 C-72.86699676513672,130.85800170898438 -77.94200134277344,125.32599639892578 -84.08000183105469,125.43399810791016z"></path></g></g><g opacity="0.55" transform="matrix(1,0,0,1,0,0)"><path fill="rgb(255,255,255)" fill-opacity="1" d=" M-110.04900360107422,90.9520034790039 C-109.99600219726562,105.59600067138672 -96.93499755859375,117.42500305175781 -82.29100036621094,117.37200164794922 C-67.64700317382812,117.31900024414062 -54.67100143432617,105.40499877929688 -54.7239990234375,90.76100158691406 C-54.76900100708008,78.33399963378906 -74.7969970703125,25.268999099731445 -80.85900115966797,9.48799991607666 C-81.46199798583984,7.918000221252441 -83.68000030517578,7.921999931335449 -84.2770004272461,9.494999885559082 C-90.2750015258789,25.312000274658203 -110.09400177001953,78.52400207519531 -110.04900360107422,90.9520034790039z"></path></g><g opacity="1" transform="matrix(1,0,0,1,0,0)"><path stroke-linecap="round" stroke-linejoin="round" fill-opacity="0" stroke="rgb(0,109,196)" stroke-opacity="1" stroke-width="8" d=" M-129,109.48200225830078 C-129,135.26400756835938 -107.93099975585938,156.08900451660156 -82.14900207519531,155.99600219726562 C-56.367000579833984,155.9029998779297 -35.6349983215332,134.927001953125 -35.6349983215332,109.1449966430664 C-35.6349983215332,79.26200103759766 -68.06199645996094,22.084999084472656 -79.05799865722656,3.555999994277954 C-80.697998046875,0.7919999957084656 -84.67900085449219,0.753000020980835 -86.36599731445312,3.489000082015991 C-97.36100006103516,21.31599998474121 -129,75.55899810791016 -129,109.48200225830078z"></path></g><g opacity="1" transform="matrix(1,0,0,1,0,0)"><g opacity="1" transform="matrix(1,0,0,1,0,0)"><path stroke-linecap="round" stroke-linejoin="round" fill-opacity="0" stroke="rgb(255,255,255)" stroke-opacity="1" stroke-width="6" d=" M-60.816001892089844,69.177001953125 C-60.816001892089844,69.177001953125 -60.375999450683594,70.49099731445312 -60.375999450683594,70.49099731445312"></path></g><g opacity="1" transform="matrix(1,0,0,1,0,0)"><path stroke-linecap="round" stroke-linejoin="round" fill-opacity="0" stroke="rgb(255,255,255)" stroke-opacity="1" stroke-width="6" d=" M-66.1259994506836,53.297000885009766 C-66.1259994506836,53.297000885009766 -63.9010009765625,59.95000076293945 -63.9010009765625,59.95000076293945"></path></g></g></g></g></svg>