<svg xmlns="http://www.w3.org/2000/svg" viewBox="0 0 512 512" width="512" height="512" style="width: 100%; height: 100%; transform: translate3d(0,0,0);" preserveAspectRatio="xMidYMid meet"><defs><clipPath id="__lottie_element_2653"><rect width="512" height="512" x="0" y="0"></rect></clipPath></defs><g clip-path="url(#__lottie_element_2653)"><g style="display: none;"><g><path stroke-linecap="round" stroke-linejoin="round" fill-opacity="0"></path></g></g><g style="display: none;"><g><path stroke-linecap="round" stroke-linejoin="round" fill-opacity="0"></path></g></g><g style="display: none;"><g><path stroke-linecap="round" stroke-linejoin="round" fill-opacity="0"></path></g></g><g style="display: none;"><g><path stroke-linecap="round" stroke-linejoin="round" fill-opacity="0"></path></g></g><g style="display: none;"><g><path stroke-linecap="round" stroke-linejoin="round" fill-opacity="0"></path></g></g><g style="display: none;"><g><path stroke-linecap="round" stroke-linejoin="round" fill-opacity="0"></path></g></g><g style="display: none;"><g><path stroke-linecap="round" stroke-linejoin="round" fill-opacity="0"></path></g></g><g style="display: none;"><g><path stroke-linecap="round" stroke-linejoin="round" fill-opacity="0"></path></g></g><g style="display: none;"><g><path stroke-linecap="round" stroke-linejoin="round" fill-opacity="0"></path></g></g><g style="display: none;"><g><path stroke-linecap="round" stroke-linejoin="round" fill-opacity="0"></path></g></g><g style="display: none;"><g><path stroke-linecap="round" stroke-linejoin="round" fill-opacity="0"></path></g></g><g style="display: none;"><g><path stroke-linecap="round" stroke-linejoin="round" fill-opacity="0"></path></g></g><g style="display: none;"><g><path stroke-linecap="round" stroke-linejoin="round" fill-opacity="0"></path></g></g><g style="display: none;"><g><path stroke-linecap="round" stroke-linejoin="round" fill-opacity="0"></path></g></g><g style="display: none;"><g><path stroke-linecap="round" stroke-linejoin="round" fill-opacity="0"></path></g></g><g style="display: none;"><g><path stroke-linecap="round" stroke-linejoin="round" fill-opacity="0"></path></g></g><g style="display: none;"><g><path stroke-linecap="round" stroke-linejoin="round" fill-opacity="0"></path></g></g><g style="display: none;"><g><path stroke-linecap="round" stroke-linejoin="round" fill-opacity="0"></path></g></g><g style="display: none;"><g><path stroke-linecap="round" stroke-linejoin="round" fill-opacity="0"></path></g></g><g style="display: none;"><g><path stroke-linecap="round" stroke-linejoin="round" fill-opacity="0"></path></g></g><g style="display: none;"><g><path stroke-linecap="round" stroke-linejoin="round" fill-opacity="0"></path></g></g><g style="display: none;"><g><path stroke-linecap="round" stroke-linejoin="round" fill-opacity="0"></path></g></g><g style="display: none;"><g><path stroke-linecap="round" stroke-linejoin="round" fill-opacity="0"></path></g></g><g style="display: none;"><g><path stroke-linecap="round" stroke-linejoin="round" fill-opacity="0"></path></g></g><g style="display: none;"><g><path stroke-linecap="round" stroke-linejoin="round" fill-opacity="0"></path></g></g><g style="display: none;"><g><path stroke-linecap="round" stroke-linejoin="round" fill-opacity="0"></path></g></g><g style="display: none;"><g><path stroke-linecap="round" stroke-linejoin="round" fill-opacity="0"></path></g></g><g style="display: none;"><g><path stroke-linecap="round" stroke-linejoin="round" fill-opacity="0"></path></g></g><g style="display: none;"><g><path stroke-linecap="round" stroke-linejoin="round" fill-opacity="0"></path></g></g><g style="display: none;"><g><path stroke-linecap="round" stroke-linejoin="round" fill-opacity="0"></path></g></g><g style="display: none;"><g><path stroke-linecap="round" stroke-linejoin="round" fill-opacity="0"></path></g></g><g style="display: none;"><g><path stroke-linecap="round" stroke-linejoin="round" fill-opacity="0"></path></g></g><g style="display: block;" transform="matrix(1,0,0,1,250,262)" opacity="1"><g opacity="0.1" transform="matrix(1,0,0,1,0,0)"><path fill="rgb(0,0,0)" fill-opacity="1" d=" M198.92300415039062,9.781999588012695 C198.92300415039062,118.04299926757812 111.16000366210938,205.80599975585938 2.8989999294281006,205.80599975585938 C-105.36199951171875,205.80599975585938 -193.12600708007812,118.04299926757812 -193.12600708007812,9.781999588012695 C-193.12600708007812,-98.47899627685547 -105.36199951171875,-186.2429962158203 2.8989999294281006,-186.2429962158203 C111.16000366210938,-186.2429962158203 198.92300415039062,-98.47899627685547 198.92300415039062,9.781999588012695z"></path></g><g opacity="1" transform="matrix(1,0,0,1,0,0)"><path fill="rgb(229,51,16)" fill-opacity="1" d=" M191.7740020751953,-5.2179999351501465 C191.7740020751953,99.09500122070312 107.21199798583984,183.65699768066406 2.8989999294281006,183.65699768066406 C-101.41400146484375,183.65699768066406 -185.9770050048828,99.09500122070312 -185.9770050048828,-5.2179999351501465 C-185.9770050048828,-109.53099822998047 -101.41400146484375,-194.093994140625 2.8989999294281006,-194.093994140625 C107.21199798583984,-194.093994140625 191.7740020751953,-109.53099822998047 191.7740020751953,-5.2179999351501465z"></path><path stroke-linecap="butt" stroke-linejoin="miter" fill-opacity="0" stroke-miterlimit="10" stroke="rgb(181,13,0)" stroke-opacity="1" stroke-width="8" d=" M191.7740020751953,-5.2179999351501465 C191.7740020751953,99.09500122070312 107.21199798583984,183.65699768066406 2.8989999294281006,183.65699768066406 C-101.41400146484375,183.65699768066406 -185.9770050048828,99.09500122070312 -185.9770050048828,-5.2179999351501465 C-185.9770050048828,-109.53099822998047 -101.41400146484375,-194.093994140625 2.8989999294281006,-194.093994140625 C107.21199798583984,-194.093994140625 191.7740020751953,-109.53099822998047 191.7740020751953,-5.2179999351501465z"></path></g><g opacity="1" transform="matrix(1,0,0,1,0,0)"><path fill="rgb(242,91,25)" fill-opacity="1" d=" M171.30599975585938,-4.50600004196167 C169.8489990234375,90.52300262451172 93.29499816894531,166.4029998779297 0.31700000166893005,164.97799682617188 C-92.66100311279297,163.55299377441406 -166.85400390625,85.36199951171875 -165.39700317382812,-9.666000366210938 C-163.94000244140625,-104.69499969482422 -87.38700103759766,-180.5749969482422 5.591000080108643,-179.14999389648438 C98.56900024414062,-177.72500610351562 172.76300048828125,-99.53500366210938 171.30599975585938,-4.50600004196167z"></path></g><g opacity="0.9" transform="matrix(1,0,0,1,0,0)"><path fill="rgb(250,142,46)" fill-opacity="1" d=" M152.16600036621094,-47.64699935913086 C152.16600036621094,24.996000289916992 85.33699798583984,-32.46799850463867 2.8989999294281006,-32.46799850463867 C-79.53900146484375,-32.46799850463867 -146.36900329589844,24.996000289916992 -146.36900329589844,-47.64699935913086 C-146.36900329589844,-120.29000091552734 -79.53900146484375,-179.1790008544922 2.8989999294281006,-179.1790008544922 C85.33699798583984,-179.1790008544922 152.16600036621094,-120.29000091552734 152.16600036621094,-47.64699935913086z"></path></g><g opacity="1" transform="matrix(1,0,0,1,0,0)"><g opacity="1" transform="matrix(1,0,0,1,0,0)"><path stroke-linecap="round" stroke-linejoin="round" fill-opacity="0" stroke="rgb(255,255,255)" stroke-opacity="1" stroke-width="6" d=" M39.270999908447266,-174.9600067138672 C40.808998107910156,-174.625 42.404998779296875,-174.2550048828125 44.04899978637695,-173.8489990234375"></path></g><g opacity="1" transform="matrix(1,0,0,1,0,0)"><path stroke-linecap="round" stroke-linejoin="round" fill-opacity="0" stroke="rgb(255,255,255)" stroke-opacity="1" stroke-width="6" d=" M17.91699981689453,-178.1790008544922 C17.91699981689453,-178.1790008544922 22.784000396728516,-177.91900634765625 30.506999969482422,-176.64100646972656"></path></g></g></g><g style="display: block;" transform="matrix(1,0,0,1,250,262)" opacity="1"><g opacity="1" transform="matrix(1,0,0,1,0,0)"><path fill="rgb(251,150,52)" fill-opacity="1" d=" M47.624000549316406,109.3270034790039 C36.29899978637695,97.15299987792969 17.60300064086914,87.44100189208984 2.8929998874664307,87.44100189208984 C-11.84000015258789,87.44100189208984 -30.472000122070312,97.15299987792969 -41.797000885009766,109.3270034790039 C-52.08300018310547,120.38400268554688 -52.87799835205078,130.61199951171875 -49.53499984741211,131.8979949951172 C-45.33700180053711,133.51300048828125 -27.0049991607666,114.76300048828125 2.8929998874664307,114.44100189208984 C32.79100036621094,114.76300048828125 51.124000549316406,133.51300048828125 55.321998596191406,131.8979949951172 C58.665000915527344,130.61199951171875 57.90999984741211,120.38400268554688 47.624000549316406,109.3270034790039z"></path></g><g opacity="0.6" transform="matrix(1,0,0,1,0,0)"><path fill="rgb(221,75,14)" fill-opacity="1" d=" M44.54999923706055,99.24099731445312 C33.224998474121094,87.06700134277344 17.60300064086914,77.3550033569336 2.8929998874664307,77.3550033569336 C-11.84000015258789,77.3550033569336 -27.43899917602539,87.06700134277344 -38.763999938964844,99.24099731445312 C-49.04999923706055,110.2979965209961 -52.87799835205078,126.625 -49.53499984741211,127.91100311279297 C-45.33700180053711,129.5260009765625 -27.0049991607666,105.677001953125 2.8929998874664307,105.3550033569336 C32.79100036621094,105.677001953125 51.124000549316406,129.5260009765625 55.321998596191406,127.91100311279297 C58.665000915527344,126.625 54.83599853515625,110.2979965209961 44.54999923706055,99.24099731445312z"></path></g><g opacity="1" transform="matrix(1,0,0,1,0,0)"><path fill="rgb(98,27,8)" fill-opacity="1" d=" M44.54999923706055,105.24099731445312 C33.224998474121094,93.06700134277344 17.60300064086914,83.3550033569336 2.8929998874664307,83.3550033569336 C-11.84000015258789,83.3550033569336 -27.43899917602539,93.06700134277344 -38.763999938964844,105.24099731445312 C-49.04999923706055,116.2979965209961 -52.87799835205078,126.5270004272461 -49.53499984741211,127.81300354003906 C-45.33700180053711,129.42799377441406 -27.0049991607666,110.677001953125 2.8929998874664307,110.3550033569336 C32.79100036621094,110.677001953125 51.124000549316406,129.42799377441406 55.321998596191406,127.81300354003906 C58.665000915527344,126.5270004272461 54.83599853515625,116.2979965209961 44.54999923706055,105.24099731445312z"></path></g><g opacity="1" transform="matrix(1,0,0,1,0,0)"><path fill="rgb(58,7,0)" fill-opacity="1" d=" M55.70600128173828,127.59700012207031 C54.16600036621094,123.33699798583984 50.40599822998047,117.31700134277344 44.54600143432617,111.0270004272461 C33.22600173950195,98.85700225830078 17.606000900268555,90.13700103759766 2.8959999084472656,90.13700103759766 C-11.843999862670898,90.13700103759766 -27.43400001525879,98.85700225830078 -38.763999938964844,111.0270004272461 C-44.61399841308594,117.31700134277344 -48.374000549316406,123.33699798583984 -49.91400146484375,127.59700012207031 C-52.54399871826172,125.66699981689453 -48.624000549316406,115.83699798583984 -38.763999938964844,105.23699951171875 C-27.43400001525879,93.06700134277344 -11.843999862670898,83.35700225830078 2.8959999084472656,83.35700225830078 C17.606000900268555,83.35700225830078 33.22600173950195,93.06700134277344 44.54600143432617,105.23699951171875 C54.40599822998047,115.83699798583984 58.33599853515625,125.66699981689453 55.70600128173828,127.59700012207031z"></path></g></g><g style="display: block;" transform="matrix(1,0,0,1,250,262)" opacity="1"><g opacity="1" transform="matrix(1,0,0,1,0,0)"><path fill="rgb(251,150,52)" fill-opacity="1" d=" M108.10099792480469,-26.742000579833984 C106.83499908447266,-28.04800033569336 103.27899932861328,-27.798999786376953 100.177001953125,-28.50200080871582 C86.73400115966797,-31.54599952697754 60.68000030517578,-30.860000610351562 42.88800048828125,-14.843999862670898 C17.551000595092773,7.965000152587891 25.42799949645996,22.849000930786133 31.01099967956543,18.242000579833984 C36.59400177001953,13.635000228881836 55.43299865722656,-6.202000141143799 86.25399780273438,-12.574999809265137 C94.51300048828125,-14.282999992370605 100.54100036621094,-14.579000473022461 105.02999877929688,-15.928000450134277 C110.95999908447266,-17.709999084472656 111.5739974975586,-23.159000396728516 108.10099792480469,-26.742000579833984z"></path></g></g><g style="display: block;" transform="matrix(1,0,0,1,250,262)" opacity="1"><g opacity="1" transform="matrix(1,0,0,1,0,0)"><path fill="rgb(251,150,52)" fill-opacity="1" d=" M-102.31400299072266,-26.742000579833984 C-101.0479965209961,-28.04800033569336 -97.49299621582031,-27.798999786376953 -94.39099884033203,-28.50200080871582 C-80.947998046875,-31.54599952697754 -54.89400100708008,-30.860000610351562 -37.10200119018555,-14.843999862670898 C-11.765000343322754,7.965000152587891 -19.641000747680664,22.849000930786133 -25.224000930786133,18.242000579833984 C-30.80699920654297,13.635000228881836 -49.64699935913086,-6.202000141143799 -80.46800231933594,-12.574999809265137 C-88.72699737548828,-14.282999992370605 -94.75399780273438,-14.579000473022461 -99.24299621582031,-15.928000450134277 C-105.1729965209961,-17.709999084472656 -105.78700256347656,-23.159000396728516 -102.31400299072266,-26.742000579833984z"></path></g></g><g style="display: block;" transform="matrix(1,0,0,1,250,262)" opacity="1"><g opacity="1" transform="matrix(1,0,0,1,0,0)"><path fill="rgb(221,75,14)" fill-opacity="1" d=" M80.58399963378906,22.238000869750977 C80.58399963378906,40.67499923706055 70.06999969482422,55.619998931884766 57.0989990234375,55.619998931884766 C44.12799835205078,55.619998931884766 33.612998962402344,40.67499923706055 33.612998962402344,22.238000869750977 C33.612998962402344,3.8010001182556152 44.12799835205078,-11.145000457763672 57.0989990234375,-11.145000457763672 C70.06999969482422,-11.145000457763672 80.58399963378906,3.8010001182556152 80.58399963378906,22.238000869750977z"></path></g><g opacity="1" transform="matrix(1,0,0,1,0,0)"><path fill="rgb(251,150,52)" fill-opacity="1" d=" M80.58399963378906,34.237998962402344 C80.58399963378906,52.67499923706055 70.06999969482422,67.62000274658203 57.0989990234375,67.62000274658203 C44.12799835205078,67.62000274658203 33.612998962402344,52.67499923706055 33.612998962402344,34.237998962402344 C33.612998962402344,15.800999641418457 44.12799835205078,0.8550000190734863 57.0989990234375,0.8550000190734863 C70.06999969482422,0.8550000190734863 80.58399963378906,15.800999641418457 80.58399963378906,34.237998962402344z"></path></g><g opacity="1" transform="matrix(1,0,0,1,0,0)"><path fill="rgb(98,27,8)" fill-opacity="1" d=" M79.11599731445312,27.81599998474121 C79.11599731445312,46.25299835205078 69.25900268554688,61.198001861572266 57.0989990234375,61.198001861572266 C44.93899917602539,61.198001861572266 35.08100128173828,46.25299835205078 35.08100128173828,27.81599998474121 C35.08100128173828,9.378999710083008 44.93899917602539,-5.566999912261963 57.0989990234375,-5.566999912261963 C69.25900268554688,-5.566999912261963 79.11599731445312,9.378999710083008 79.11599731445312,27.81599998474121z"></path></g><g opacity="1" transform="matrix(1,0,0,1,0,0)"><path fill="rgb(58,7,0)" fill-opacity="1" d=" M35.08300018310547,27.816999435424805 C35.08300018310547,46.25699996948242 44.93299865722656,61.196998596191406 57.09299850463867,61.196998596191406 C69.25299835205078,61.196998596191406 79.11299896240234,46.25699996948242 79.11299896240234,27.816999435424805 C79.11299896240234,17.53700065612793 76.0530014038086,8.347000122070312 71.23300170898438,2.2269999980926514 C74.75299835205078,7.486999988555908 76.91300201416016,14.687000274658203 76.91300201416016,22.636999130249023 C76.91300201416016,38.766998291015625 67.99299621582031,52.83700180053711 56.99300003051758,52.83700180053711 C45.99300003051758,52.83700180053711 37.08300018310547,38.766998291015625 37.08300018310547,22.636999130249023 C37.08300018310547,15.57699966430664 38.792999267578125,9.116999626159668 41.62300109863281,4.066999912261963 C37.58300018310547,10.116999626159668 35.08300018310547,18.527000427246094 35.08300018310547,27.816999435424805z"></path></g></g><g style="display: block;" transform="matrix(1,0,0,1,250,262)" opacity="1"><g opacity="1" transform="matrix(1,0,0,1,0,0)"><path fill="rgb(221,75,14)" fill-opacity="1" d=" M-27.81599998474121,22.238000869750977 C-27.81599998474121,40.67499923706055 -38.33000183105469,55.619998931884766 -51.30099868774414,55.619998931884766 C-64.27200317382812,55.619998931884766 -74.78700256347656,40.67499923706055 -74.78700256347656,22.238000869750977 C-74.78700256347656,3.8010001182556152 -64.27200317382812,-11.145000457763672 -51.30099868774414,-11.145000457763672 C-38.33000183105469,-11.145000457763672 -27.81599998474121,3.8010001182556152 -27.81599998474121,22.238000869750977z"></path></g><g opacity="1" transform="matrix(1,0,0,1,0,0)"><path fill="rgb(251,150,52)" fill-opacity="1" d=" M-27.81599998474121,34.237998962402344 C-27.81599998474121,52.67499923706055 -38.33000183105469,67.62000274658203 -51.30099868774414,67.62000274658203 C-64.27200317382812,67.62000274658203 -74.78700256347656,52.67499923706055 -74.78700256347656,34.237998962402344 C-74.78700256347656,15.800999641418457 -64.27200317382812,0.8550000190734863 -51.30099868774414,0.8550000190734863 C-38.33000183105469,0.8550000190734863 -27.81599998474121,15.800999641418457 -27.81599998474121,34.237998962402344z"></path></g><g opacity="1" transform="matrix(1,0,0,1,0,0)"><path fill="rgb(98,27,8)" fill-opacity="1" d=" M-29.284000396728516,27.81599998474121 C-29.284000396728516,46.25299835205078 -39.14099884033203,61.198001861572266 -51.30099868774414,61.198001861572266 C-63.46099853515625,61.198001861572266 -73.31900024414062,46.25299835205078 -73.31900024414062,27.81599998474121 C-73.31900024414062,9.378999710083008 -63.46099853515625,-5.566999912261963 -51.30099868774414,-5.566999912261963 C-39.14099884033203,-5.566999912261963 -29.284000396728516,9.378999710083008 -29.284000396728516,27.81599998474121z"></path></g><g opacity="1" transform="matrix(1,0,0,1,0,0)"><path fill="rgb(58,7,0)" fill-opacity="1" d=" M-29.288000106811523,27.816999435424805 C-29.288000106811523,46.25699996948242 -39.13800048828125,61.196998596191406 -51.29800033569336,61.196998596191406 C-63.45800018310547,61.196998596191406 -73.31800079345703,46.25699996948242 -73.31800079345703,27.816999435424805 C-73.31800079345703,17.53700065612793 -70.25800323486328,8.347000122070312 -65.43800354003906,2.2269999980926514 C-68.95800018310547,7.486999988555908 -71.11799621582031,14.687000274658203 -71.11799621582031,22.636999130249023 C-71.11799621582031,38.766998291015625 -62.198001861572266,52.83700180053711 -51.198001861572266,52.83700180053711 C-40.198001861572266,52.83700180053711 -31.288000106811523,38.766998291015625 -31.288000106811523,22.636999130249023 C-31.288000106811523,15.57699966430664 -32.99800109863281,9.116999626159668 -35.827999114990234,4.066999912261963 C-31.788000106811523,10.116999626159668 -29.288000106811523,18.527000427246094 -29.288000106811523,27.816999435424805z"></path></g></g><g style="display: block;" transform="matrix(1,0,0,1,250,262)" opacity="1"><g opacity="1" transform="matrix(1,0,0,1,0,0)"><g opacity="1" transform="matrix(1,0,0,1,0,0)"><path fill="rgb(98,27,8)" fill-opacity="1" d=" M107.10099792480469,-28.742000579833984 C105.83499908447266,-30.04800033569336 102.27899932861328,-31.798999786376953 99.177001953125,-32.50199890136719 C85.73400115966797,-35.54600143432617 62.06399917602539,-32.86000061035156 44.27199935913086,-16.8439998626709 C18.934999465942383,5.965000152587891 24.42799949645996,18.849000930786133 30.01099967956543,14.241999626159668 C35.59400177001953,9.635000228881836 54.43299865722656,-10.20199966430664 85.25399780273438,-16.575000762939453 C93.51300048828125,-18.283000946044922 99.54100036621094,-18.57900047302246 104.02999877929688,-19.92799949645996 C109.95999908447266,-21.709999084472656 110.5739974975586,-25.159000396728516 107.10099792480469,-28.742000579833984z"></path></g><g opacity="1" transform="matrix(1,0,0,1,0,0)"><path fill="rgb(58,7,0)" fill-opacity="1" d=" M108.48100280761719,-22.503000259399414 C108.36100006103516,-22.64299964904785 108.23100280761719,-22.773000717163086 108.10099792480469,-22.913000106811523 C106.83100128173828,-24.222999572753906 103.28099822998047,-25.972999572753906 100.18099975585938,-26.67300033569336 C86.73100280761719,-29.71299934387207 63.06100082397461,-27.033000946044922 45.270999908447266,-11.012999534606934 C32.6510009765625,0.34700000286102295 27.680999755859375,9.246999740600586 26.56100082397461,14.746999740600586 C23.5310001373291,12.427000045776367 24.731000900268555,0.746999979019165 44.270999908447266,-16.843000411987305 C62.06100082397461,-32.862998962402344 85.73100280761719,-35.542999267578125 99.18099975585938,-32.50299835205078 C102.28099822998047,-31.80299949645996 105.83100128173828,-30.042999267578125 107.10099792480469,-28.743000030517578 C109.29100036621094,-26.482999801635742 109.86100006103516,-24.273000717163086 108.48100280761719,-22.503000259399414z"></path></g></g></g><g style="display: block;" transform="matrix(1,0,0,1,250,262)" opacity="1"><g opacity="1" transform="matrix(1,0,0,1,0,0)"><g opacity="1" transform="matrix(1,0,0,1,0,0)"><path fill="rgb(98,27,8)" fill-opacity="1" d=" M-101.31400299072266,-28.742000579833984 C-100.0479965209961,-30.04800033569336 -96.49299621582031,-31.798999786376953 -93.39099884033203,-32.50199890136719 C-79.947998046875,-35.54600143432617 -56.277000427246094,-32.86000061035156 -38.48500061035156,-16.8439998626709 C-13.14799976348877,5.965000152587891 -18.641000747680664,18.849000930786133 -24.224000930786133,14.241999626159668 C-29.80699920654297,9.635000228881836 -48.64699935913086,-10.20199966430664 -79.46800231933594,-16.575000762939453 C-87.72699737548828,-18.283000946044922 -93.75399780273438,-18.57900047302246 -98.24299621582031,-19.92799949645996 C-104.1729965209961,-21.709999084472656 -104.78700256347656,-25.159000396728516 -101.31400299072266,-28.742000579833984z"></path></g><g opacity="1" transform="matrix(1,0,0,1,0,0)"><path fill="rgb(58,7,0)" fill-opacity="1" d=" M-102.69499969482422,-22.503000259399414 C-102.57499694824219,-22.64299964904785 -102.44499969482422,-22.773000717163086 -102.31500244140625,-22.913000106811523 C-101.04499816894531,-24.222999572753906 -97.49500274658203,-25.972999572753906 -94.3949966430664,-26.67300033569336 C-80.94499969482422,-29.71299934387207 -57.275001525878906,-27.033000946044922 -39.48500061035156,-11.012999534606934 C-26.864999771118164,0.34700000286102295 -21.895000457763672,9.246999740600586 -20.774999618530273,14.746999740600586 C-17.7450008392334,12.427000045776367 -18.94499969482422,0.746999979019165 -38.48500061035156,-16.843000411987305 C-56.275001525878906,-32.862998962402344 -79.94499969482422,-35.542999267578125 -93.3949966430664,-32.50299835205078 C-96.49500274658203,-31.80299949645996 -100.04499816894531,-30.042999267578125 -101.31500244140625,-28.743000030517578 C-103.50499725341797,-26.482999801635742 -104.07499694824219,-24.273000717163086 -102.69499969482422,-22.503000259399414z"></path></g></g></g></g></svg>