<svg xmlns="http://www.w3.org/2000/svg" viewBox="0 0 512 512" width="512" height="512" style="width: 100%; height: 100%; transform: translate3d(0,0,0);" preserveAspectRatio="xMidYMid meet"><defs><clipPath id="__lottie_element_16174"><rect width="512" height="512" x="0" y="0"></rect></clipPath><linearGradient id="__lottie_element_16193" spreadMethod="pad" gradientUnits="userSpaceOnUse" x1="-40" y1="26" x2="204.24400329589844" y2="26"><stop offset="9%" stop-color="rgb(44,37,63)" stop-opacity="1"></stop><stop offset="28%" stop-color="rgb(44,37,63)" stop-opacity="0.5"></stop><stop offset="37%" stop-color="rgb(44,37,63)" stop-opacity="0"></stop></linearGradient></defs><g clip-path="url(#__lottie_element_16174)"><g style="display: block;" transform="matrix(1.059999942779541,0,0,1.059999942779541,249.00082397460938,286.7200012207031)" opacity="1"><g opacity="0.1" transform="matrix(1,0,0,1,0,0)"><path fill="rgb(0,0,0)" fill-opacity="1" d=" M203.47500610351562,-7.676000118255615 C203.47500610351562,100.58499908447266 115.71099853515625,188.34800720214844 7.449999809265137,188.34800720214844 C-100.81099700927734,188.34800720214844 -188.57400512695312,100.58499908447266 -188.57400512695312,-7.676000118255615 C-188.57400512695312,-115.93699645996094 -100.81099700927734,-203.7010040283203 7.449999809265137,-203.7010040283203 C115.71099853515625,-203.7010040283203 203.47500610351562,-115.93699645996094 203.47500610351562,-7.676000118255615z"></path></g><g opacity="1" transform="matrix(1,0,0,1,0,0)"><path fill="rgb(255,177,57)" fill-opacity="1" d=" M196.3260040283203,-22.676000595092773 C196.3260040283203,81.63700103759766 111.76300048828125,166.19900512695312 7.449999809265137,166.19900512695312 C-96.86299896240234,166.19900512695312 -181.4250030517578,81.63700103759766 -181.4250030517578,-22.676000595092773 C-181.4250030517578,-126.98899841308594 -96.86299896240234,-211.552001953125 7.449999809265137,-211.552001953125 C111.76300048828125,-211.552001953125 196.3260040283203,-126.98899841308594 196.3260040283203,-22.676000595092773z"></path><path stroke-linecap="butt" stroke-linejoin="miter" fill-opacity="0" stroke-miterlimit="10" stroke="rgb(247,126,65)" stroke-opacity="1" stroke-width="8" d=" M196.3260040283203,-22.676000595092773 C196.3260040283203,81.63700103759766 111.76300048828125,166.19900512695312 7.449999809265137,166.19900512695312 C-96.86299896240234,166.19900512695312 -181.4250030517578,81.63700103759766 -181.4250030517578,-22.676000595092773 C-181.4250030517578,-126.98899841308594 -96.86299896240234,-211.552001953125 7.449999809265137,-211.552001953125 C111.76300048828125,-211.552001953125 196.3260040283203,-126.98899841308594 196.3260040283203,-22.676000595092773z"></path></g><g opacity="1" transform="matrix(1,0,0,1,0,0)"><path fill="rgb(255,209,64)" fill-opacity="1" d=" M175.85699462890625,-21.964000701904297 C174.39999389648438,73.06400299072266 97.84700012207031,148.94500732421875 4.86899995803833,147.52000427246094 C-88.10900115966797,146.09500122070312 -162.302001953125,67.90399932861328 -160.8459930419922,-27.125 C-159.38900756835938,-122.15399932861328 -82.83499908447266,-198.03399658203125 10.142999649047852,-196.60899353027344 C103.12100219726562,-195.1840057373047 177.31300354003906,-116.99299621582031 175.85699462890625,-21.964000701904297z"></path></g><g opacity="0.9" transform="matrix(1,0,0,1,0,0)"><path fill="rgb(255,223,121)" fill-opacity="1" d=" M156.71800231933594,-65.1050033569336 C156.71800231933594,7.538000106811523 89.88800048828125,-49.92599868774414 7.449999809265137,-49.92599868774414 C-74.98799896240234,-49.92599868774414 -141.81700134277344,7.538000106811523 -141.81700134277344,-65.1050033569336 C-141.81700134277344,-137.7480010986328 -74.98799896240234,-196.63800048828125 7.449999809265137,-196.63800048828125 C89.88800048828125,-196.63800048828125 156.71800231933594,-137.7480010986328 156.71800231933594,-65.1050033569336z"></path></g><g opacity="1" transform="matrix(1,0,0,1,0,0)"><g opacity="1" transform="matrix(1,0,0,1,0,0)"><path stroke-linecap="round" stroke-linejoin="round" fill-opacity="0" stroke="rgb(255,255,255)" stroke-opacity="1" stroke-width="6" d=" M43.823001861572266,-192.41799926757812 C45.361000061035156,-192.08299255371094 46.95600128173828,-191.71400451660156 48.60100173950195,-191.30799865722656"></path></g><g opacity="1" transform="matrix(1,0,0,1,0,0)"><path stroke-linecap="round" stroke-linejoin="round" fill-opacity="0" stroke="rgb(255,255,255)" stroke-opacity="1" stroke-width="6" d=" M22.4689998626709,-195.63800048828125 C22.4689998626709,-195.63800048828125 27.336000442504883,-195.3769989013672 35.058998107910156,-194.0989990234375"></path></g></g></g><g style="display: block;" transform="matrix(1.059999942779541,0,0,1.059999942779541,249.00082397460938,286.7200012207031)" opacity="1"><g opacity="1" transform="matrix(1,0,0,1,0,0)"><path fill="rgb(255,177,57)" fill-opacity="1" d=" M61.87699890136719,82.01699829101562 C61.87699890136719,82.01699829101562 127.21900177001953,40.21900177001953 183.552001953125,10.067999839782715 C183.552001953125,10.067999839782715 198.3719940185547,-7.676000118255615 186.77999877929688,-55.194000244140625 C186.77999877929688,-55.194000244140625 52.99399948120117,76.56199645996094 52.99399948120117,76.56199645996094 C52.99399948120117,76.56199645996094 61.87699890136719,82.01699829101562 61.87699890136719,82.01699829101562z"></path></g></g><g style="display: block;" transform="matrix(1.059999942779541,0,0,1.059999942779541,249.00082397460938,286.7200012207031)" opacity="1"><g opacity="0.04" transform="matrix(1,0,0,1,0,0)"><path fill="rgb(226,6,19)" fill-opacity="1" d=" M183.552001953125,10.067999839782715 C183.552001953125,39.560001373291016 159.6439971923828,63.46799850463867 130.15199279785156,63.46799850463867 C100.66000366210938,63.46799850463867 76.7509994506836,39.560001373291016 76.7509994506836,10.067999839782715 C76.7509994506836,-19.423999786376953 100.66000366210938,-43.332000732421875 130.15199279785156,-43.332000732421875 C159.6439971923828,-43.332000732421875 183.552001953125,-19.423999786376953 183.552001953125,10.067999839782715z"></path></g><g opacity="0.04" transform="matrix(1,0,0,1,0,0)"><path fill="rgb(226,6,19)" fill-opacity="1" d=" M179.03799438476562,10.067999839782715 C179.03799438476562,37.06700134277344 157.1510009765625,58.95500183105469 130.15199279785156,58.95500183105469 C103.15299987792969,58.95500183105469 81.26499938964844,37.06700134277344 81.26499938964844,10.067999839782715 C81.26499938964844,-16.93199920654297 103.15299987792969,-38.819000244140625 130.15199279785156,-38.819000244140625 C157.1510009765625,-38.819000244140625 179.03799438476562,-16.93199920654297 179.03799438476562,10.067999839782715z"></path></g><g opacity="0.04" transform="matrix(1,0,0,1,0,0)"><path fill="rgb(226,6,19)" fill-opacity="1" d=" M174.57699584960938,10.067999839782715 C174.57699584960938,34.604000091552734 154.68800354003906,54.49300003051758 130.15199279785156,54.49300003051758 C105.61599731445312,54.49300003051758 85.72599792480469,34.604000091552734 85.72599792480469,10.067999839782715 C85.72599792480469,-14.468000411987305 105.61599731445312,-34.358001708984375 130.15199279785156,-34.358001708984375 C154.68800354003906,-34.358001708984375 174.57699584960938,-14.468000411987305 174.57699584960938,10.067999839782715z"></path></g><g opacity="0.04" transform="matrix(1,0,0,1,0,0)"><path fill="rgb(226,6,19)" fill-opacity="1" d=" M169.8249969482422,10.067999839782715 C169.8249969482422,31.979000091552734 152.06300354003906,49.74100112915039 130.15199279785156,49.74100112915039 C108.24099731445312,49.74100112915039 90.47799682617188,31.979000091552734 90.47799682617188,10.067999839782715 C90.47799682617188,-11.843000411987305 108.24099731445312,-29.606000900268555 130.15199279785156,-29.606000900268555 C152.06300354003906,-29.606000900268555 169.8249969482422,-11.843000411987305 169.8249969482422,10.067999839782715z"></path></g><g opacity="0.04" transform="matrix(1,0,0,1,0,0)"><path fill="rgb(226,6,19)" fill-opacity="1" d=" M165.197998046875,10.067999839782715 C165.197998046875,29.423999786376953 149.50799560546875,45.11399841308594 130.15199279785156,45.11399841308594 C110.7959976196289,45.11399841308594 95.1050033569336,29.423999786376953 95.1050033569336,10.067999839782715 C95.1050033569336,-9.288000106811523 110.7959976196289,-24.979000091552734 130.15199279785156,-24.979000091552734 C149.50799560546875,-24.979000091552734 165.197998046875,-9.288000106811523 165.197998046875,10.067999839782715z"></path></g><g opacity="0.04" transform="matrix(1,0,0,1,0,0)"><path fill="rgb(226,6,19)" fill-opacity="1" d=" M160.4459991455078,10.067999839782715 C160.4459991455078,26.798999786376953 146.88299560546875,40.36199951171875 130.15199279785156,40.36199951171875 C113.4209976196289,40.36199951171875 99.85700225830078,26.798999786376953 99.85700225830078,10.067999839782715 C99.85700225830078,-6.663000106811523 113.4209976196289,-20.226999282836914 130.15199279785156,-20.226999282836914 C146.88299560546875,-20.226999282836914 160.4459991455078,-6.663000106811523 160.4459991455078,10.067999839782715z"></path></g><g opacity="0.04" transform="matrix(1,0,0,1,0,0)"><path fill="rgb(226,6,19)" fill-opacity="1" d=" M155.47999572753906,10.067999839782715 C155.47999572753906,24.055999755859375 144.13999938964844,35.395999908447266 130.15199279785156,35.395999908447266 C116.16400146484375,35.395999908447266 104.822998046875,24.055999755859375 104.822998046875,10.067999839782715 C104.822998046875,-3.9200000762939453 116.16400146484375,-15.26099967956543 130.15199279785156,-15.26099967956543 C144.13999938964844,-15.26099967956543 155.47999572753906,-3.9200000762939453 155.47999572753906,10.067999839782715z"></path></g><g opacity="0.04" transform="matrix(1,0,0,1,0,0)"><path fill="rgb(226,6,19)" fill-opacity="1" d=" M149.9320068359375,10.067999839782715 C149.9320068359375,20.992000579833984 141.0760040283203,29.847999572753906 130.15199279785156,29.847999572753906 C119.22799682617188,29.847999572753906 110.37200164794922,20.992000579833984 110.37200164794922,10.067999839782715 C110.37200164794922,-0.8560000061988831 119.22799682617188,-9.711999893188477 130.15199279785156,-9.711999893188477 C141.0760040283203,-9.711999893188477 149.9320068359375,-0.8560000061988831 149.9320068359375,10.067999839782715z"></path></g><g opacity="0.04" transform="matrix(1,0,0,1,0,0)"><path fill="rgb(226,6,19)" fill-opacity="1" d=" M143.53399658203125,10.067999839782715 C143.53399658203125,17.458999633789062 137.54299926757812,23.450000762939453 130.15199279785156,23.450000762939453 C122.76100158691406,23.450000762939453 116.76899719238281,17.458999633789062 116.76899719238281,10.067999839782715 C116.76899719238281,2.677000045776367 122.76100158691406,-3.315000057220459 130.15199279785156,-3.315000057220459 C137.54299926757812,-3.315000057220459 143.53399658203125,2.677000045776367 143.53399658203125,10.067999839782715z"></path></g><g opacity="0.04" transform="matrix(1,0,0,1,0,0)"><path fill="rgb(226,6,19)" fill-opacity="1" d=" M137.60000610351562,10.067999839782715 C137.60000610351562,14.182000160217285 134.26600646972656,17.516000747680664 130.15199279785156,17.516000747680664 C126.03800201416016,17.516000747680664 122.7030029296875,14.182000160217285 122.7030029296875,10.067999839782715 C122.7030029296875,5.953999996185303 126.03800201416016,2.61899995803833 130.15199279785156,2.61899995803833 C134.26600646972656,2.61899995803833 137.60000610351562,5.953999996185303 137.60000610351562,10.067999839782715z"></path></g></g><g style="display: block;" transform="matrix(1.059999942779541,0,0,1.059999942779541,249.00082397460938,286.7200012207031)" opacity="1"><g opacity="0.04" transform="matrix(1,0,0,1,0,0)"><path fill="rgb(226,6,19)" fill-opacity="1" d=" M-59.64799880981445,8.067999839782715 C-59.64799880981445,37.560001373291016 -83.55599975585938,61.46799850463867 -113.0479965209961,61.46799850463867 C-142.5399932861328,61.46799850463867 -166.447998046875,37.560001373291016 -166.447998046875,8.067999839782715 C-166.447998046875,-21.423999786376953 -142.5399932861328,-45.332000732421875 -113.0479965209961,-45.332000732421875 C-83.55599975585938,-45.332000732421875 -59.64799880981445,-21.423999786376953 -59.64799880981445,8.067999839782715z"></path></g><g opacity="0.04" transform="matrix(1,0,0,1,0,0)"><path fill="rgb(226,6,19)" fill-opacity="1" d=" M-64.16100311279297,8.067999839782715 C-64.16100311279297,35.06700134277344 -86.04900360107422,56.95500183105469 -113.0479965209961,56.95500183105469 C-140.0469970703125,56.95500183105469 -161.93499755859375,35.06700134277344 -161.93499755859375,8.067999839782715 C-161.93499755859375,-18.93199920654297 -140.0469970703125,-40.819000244140625 -113.0479965209961,-40.819000244140625 C-86.04900360107422,-40.819000244140625 -64.16100311279297,-18.93199920654297 -64.16100311279297,8.067999839782715z"></path></g><g opacity="0.04" transform="matrix(1,0,0,1,0,0)"><path fill="rgb(226,6,19)" fill-opacity="1" d=" M-68.62200164794922,8.067999839782715 C-68.62200164794922,32.604000091552734 -88.51200103759766,52.49300003051758 -113.0479965209961,52.49300003051758 C-137.58399963378906,52.49300003051758 -157.4739990234375,32.604000091552734 -157.4739990234375,8.067999839782715 C-157.4739990234375,-16.468000411987305 -137.58399963378906,-36.358001708984375 -113.0479965209961,-36.358001708984375 C-88.51200103759766,-36.358001708984375 -68.62200164794922,-16.468000411987305 -68.62200164794922,8.067999839782715z"></path></g><g opacity="0.04" transform="matrix(1,0,0,1,0,0)"><path fill="rgb(226,6,19)" fill-opacity="1" d=" M-73.3740005493164,8.067999839782715 C-73.3740005493164,29.979000091552734 -91.13700103759766,47.74100112915039 -113.0479965209961,47.74100112915039 C-134.95899963378906,47.74100112915039 -152.7220001220703,29.979000091552734 -152.7220001220703,8.067999839782715 C-152.7220001220703,-13.843000411987305 -134.95899963378906,-31.606000900268555 -113.0479965209961,-31.606000900268555 C-91.13700103759766,-31.606000900268555 -73.3740005493164,-13.843000411987305 -73.3740005493164,8.067999839782715z"></path></g><g opacity="0.04" transform="matrix(1,0,0,1,0,0)"><path fill="rgb(226,6,19)" fill-opacity="1" d=" M-78.0009994506836,8.067999839782715 C-78.0009994506836,27.423999786376953 -93.69200134277344,43.11399841308594 -113.0479965209961,43.11399841308594 C-132.4040069580078,43.11399841308594 -148.09500122070312,27.423999786376953 -148.09500122070312,8.067999839782715 C-148.09500122070312,-11.288000106811523 -132.4040069580078,-26.979000091552734 -113.0479965209961,-26.979000091552734 C-93.69200134277344,-26.979000091552734 -78.0009994506836,-11.288000106811523 -78.0009994506836,8.067999839782715z"></path></g><g opacity="0.04" transform="matrix(1,0,0,1,0,0)"><path fill="rgb(226,6,19)" fill-opacity="1" d=" M-82.75299835205078,8.067999839782715 C-82.75299835205078,24.798999786376953 -96.31700134277344,38.36199951171875 -113.0479965209961,38.36199951171875 C-129.7790069580078,38.36199951171875 -143.34300231933594,24.798999786376953 -143.34300231933594,8.067999839782715 C-143.34300231933594,-8.663000106811523 -129.7790069580078,-22.226999282836914 -113.0479965209961,-22.226999282836914 C-96.31700134277344,-22.226999282836914 -82.75299835205078,-8.663000106811523 -82.75299835205078,8.067999839782715z"></path></g><g opacity="0.04" transform="matrix(1,0,0,1,0,0)"><path fill="rgb(226,6,19)" fill-opacity="1" d=" M-87.72000122070312,8.067999839782715 C-87.72000122070312,22.055999755859375 -99.05999755859375,33.395999908447266 -113.0479965209961,33.395999908447266 C-127.03600311279297,33.395999908447266 -138.37600708007812,22.055999755859375 -138.37600708007812,8.067999839782715 C-138.37600708007812,-5.920000076293945 -127.03600311279297,-17.26099967956543 -113.0479965209961,-17.26099967956543 C-99.05999755859375,-17.26099967956543 -87.72000122070312,-5.920000076293945 -87.72000122070312,8.067999839782715z"></path></g><g opacity="0.04" transform="matrix(1,0,0,1,0,0)"><path fill="rgb(226,6,19)" fill-opacity="1" d=" M-93.26799774169922,8.067999839782715 C-93.26799774169922,18.992000579833984 -102.1240005493164,27.847999572753906 -113.0479965209961,27.847999572753906 C-123.97200012207031,27.847999572753906 -132.8280029296875,18.992000579833984 -132.8280029296875,8.067999839782715 C-132.8280029296875,-2.8559999465942383 -123.97200012207031,-11.711999893188477 -113.0479965209961,-11.711999893188477 C-102.1240005493164,-11.711999893188477 -93.26799774169922,-2.8559999465942383 -93.26799774169922,8.067999839782715z"></path></g><g opacity="0.04" transform="matrix(1,0,0,1,0,0)"><path fill="rgb(226,6,19)" fill-opacity="1" d=" M-99.66500091552734,8.067999839782715 C-99.66500091552734,15.458999633789062 -105.65699768066406,21.450000762939453 -113.0479965209961,21.450000762939453 C-120.43900299072266,21.450000762939453 -126.43099975585938,15.458999633789062 -126.43099975585938,8.067999839782715 C-126.43099975585938,0.6769999861717224 -120.43900299072266,-5.315000057220459 -113.0479965209961,-5.315000057220459 C-105.65699768066406,-5.315000057220459 -99.66500091552734,0.6769999861717224 -99.66500091552734,8.067999839782715z"></path></g><g opacity="0.04" transform="matrix(1,0,0,1,0,0)"><path fill="rgb(226,6,19)" fill-opacity="1" d=" M-105.5999984741211,8.067999839782715 C-105.5999984741211,12.182000160217285 -108.93399810791016,15.515999794006348 -113.0479965209961,15.515999794006348 C-117.16200256347656,15.515999794006348 -120.49600219726562,12.182000160217285 -120.49600219726562,8.067999839782715 C-120.49600219726562,3.9539999961853027 -117.16200256347656,0.6190000176429749 -113.0479965209961,0.6190000176429749 C-108.93399810791016,0.6190000176429749 -105.5999984741211,3.9539999961853027 -105.5999984741211,8.067999839782715z"></path></g></g><g style="display: block;" transform="matrix(-1.0599993467330933,0.00000818022272142116,0.0018648472614586353,1.0599982738494873,260.5049743652344,282.48016357421875)" opacity="1"><g opacity="1" transform="matrix(1,0,0,1,0,0)"><path fill="rgb(255,177,57)" fill-opacity="1" d=" M-34.36000061035156,-30.860000610351562 C-34.36000061035156,-12.42300033569336 -44.874000549316406,2.5230000019073486 -57.845001220703125,2.5230000019073486 C-70.81600189208984,2.5230000019073486 -81.33100128173828,-12.42300033569336 -81.33100128173828,-30.860000610351562 C-81.33100128173828,-49.297000885009766 -70.81600189208984,-64.24199676513672 -57.845001220703125,-64.24199676513672 C-44.874000549316406,-64.24199676513672 -34.36000061035156,-49.297000885009766 -34.36000061035156,-30.860000610351562z"></path></g><g opacity="1" transform="matrix(1,0,0,1,0,0)"><path fill="rgb(255,226,166)" fill-opacity="1" d=" M-34.36000061035156,-18.860000610351562 C-34.36000061035156,-0.4230000078678131 -44.874000549316406,14.52299976348877 -57.845001220703125,14.52299976348877 C-70.81600189208984,14.52299976348877 -81.33100128173828,-0.4230000078678131 -81.33100128173828,-18.860000610351562 C-81.33100128173828,-37.297000885009766 -70.81600189208984,-52.242000579833984 -57.845001220703125,-52.242000579833984 C-44.874000549316406,-52.242000579833984 -34.36000061035156,-37.297000885009766 -34.36000061035156,-18.860000610351562z"></path></g><g opacity="1" transform="matrix(1,0,0,1,0,0)"><path fill="rgb(134,63,20)" fill-opacity="1" d=" M-35.82699966430664,-25.281999588012695 C-35.82699966430664,-6.84499979019165 -45.685001373291016,8.10099983215332 -57.845001220703125,8.10099983215332 C-70.00499725341797,8.10099983215332 -79.86299896240234,-6.84499979019165 -79.86299896240234,-25.281999588012695 C-79.86299896240234,-43.71900177001953 -70.00499725341797,-58.66400146484375 -57.845001220703125,-58.66400146484375 C-45.685001373291016,-58.66400146484375 -35.82699966430664,-43.71900177001953 -35.82699966430664,-25.281999588012695z"></path></g><g opacity="1" transform="matrix(1,0,0,1,0,0)"><path fill="rgb(107,32,0)" fill-opacity="1" d=" M-35.827999114990234,-25.277999877929688 C-35.827999114990234,-23.812000274658203 -35.891998291015625,-22.367000579833984 -36.02000045776367,-20.95400047302246 C-37.4010009765625,-37.36199951171875 -46.64899826049805,-50.02299880981445 -57.84400177001953,-50.02299880981445 C-69.03900146484375,-50.02299880981445 -78.28600311279297,-37.36199951171875 -79.66699981689453,-20.95400047302246 C-79.79499816894531,-22.367000579833984 -79.86000061035156,-23.812000274658203 -79.86000061035156,-25.277999877929688 C-79.86000061035156,-43.71900177001953 -70.00299835205078,-58.6609992980957 -57.84400177001953,-58.6609992980957 C-45.685001373291016,-58.6609992980957 -35.827999114990234,-43.71900177001953 -35.827999114990234,-25.277999877929688z"></path></g></g><g style="display: block;" transform="matrix(1.0599993467330933,-0.00000818022272142116,0.0018648472614586353,1.0599982738494873,253.2867431640625,282.47955322265625)" opacity="1"><g opacity="1" transform="matrix(1,0,0,1,0,0)"><path fill="rgb(255,177,57)" fill-opacity="1" d=" M-34.36000061035156,-30.860000610351562 C-34.36000061035156,-12.42300033569336 -44.874000549316406,2.5230000019073486 -57.845001220703125,2.5230000019073486 C-70.81600189208984,2.5230000019073486 -81.33100128173828,-12.42300033569336 -81.33100128173828,-30.860000610351562 C-81.33100128173828,-49.297000885009766 -70.81600189208984,-64.24199676513672 -57.845001220703125,-64.24199676513672 C-44.874000549316406,-64.24199676513672 -34.36000061035156,-49.297000885009766 -34.36000061035156,-30.860000610351562z"></path></g><g opacity="1" transform="matrix(1,0,0,1,0,0)"><path fill="rgb(255,226,166)" fill-opacity="1" d=" M-34.36000061035156,-18.860000610351562 C-34.36000061035156,-0.4230000078678131 -44.874000549316406,14.52299976348877 -57.845001220703125,14.52299976348877 C-70.81600189208984,14.52299976348877 -81.33100128173828,-0.4230000078678131 -81.33100128173828,-18.860000610351562 C-81.33100128173828,-37.297000885009766 -70.81600189208984,-52.242000579833984 -57.845001220703125,-52.242000579833984 C-44.874000549316406,-52.242000579833984 -34.36000061035156,-37.297000885009766 -34.36000061035156,-18.860000610351562z"></path></g><g opacity="1" transform="matrix(1,0,0,1,0,0)"><path fill="rgb(134,63,20)" fill-opacity="1" d=" M-35.82699966430664,-25.281999588012695 C-35.82699966430664,-6.84499979019165 -45.685001373291016,8.10099983215332 -57.845001220703125,8.10099983215332 C-70.00499725341797,8.10099983215332 -79.86299896240234,-6.84499979019165 -79.86299896240234,-25.281999588012695 C-79.86299896240234,-43.71900177001953 -70.00499725341797,-58.66400146484375 -57.845001220703125,-58.66400146484375 C-45.685001373291016,-58.66400146484375 -35.82699966430664,-43.71900177001953 -35.82699966430664,-25.281999588012695z"></path></g><g opacity="1" transform="matrix(1,0,0,1,0,0)"><path fill="rgb(107,32,0)" fill-opacity="1" d=" M-35.827999114990234,-25.277999877929688 C-35.827999114990234,-23.812000274658203 -35.891998291015625,-22.367000579833984 -36.02000045776367,-20.95400047302246 C-37.4010009765625,-37.36199951171875 -46.64899826049805,-50.02299880981445 -57.84400177001953,-50.02299880981445 C-69.03900146484375,-50.02299880981445 -78.28600311279297,-37.36199951171875 -79.66699981689453,-20.95400047302246 C-79.79499816894531,-22.367000579833984 -79.86000061035156,-23.812000274658203 -79.86000061035156,-25.277999877929688 C-79.86000061035156,-43.71900177001953 -70.00299835205078,-58.6609992980957 -57.84400177001953,-58.6609992980957 C-45.685001373291016,-58.6609992980957 -35.827999114990234,-43.71900177001953 -35.827999114990234,-25.277999877929688z"></path></g></g><g style="display: block;" transform="matrix(1.059999942779541,0,0,1.059999942779541,249.00082397460938,286.7200012207031)" opacity="1"><g opacity="1" transform="matrix(1,0,0,1,0,0)"><g opacity="1" transform="matrix(1,0,0,1,0,0)"><path fill="rgb(255,238,189)" fill-opacity="1" d=" M58.393001556396484,-96.3270034790039 C59.63399887084961,-97.65599822998047 63.516998291015625,-99.16200256347656 66.60600280761719,-99.9209976196289 C79.99099731445312,-103.21099853515625 106.1780014038086,-96.59700012207031 124.26000213623047,-80.90899658203125 C150.00999450683594,-58.569000244140625 141.58799743652344,-46.268001556396484 135.9219970703125,-50.770999908447266 C130.25599670410156,-55.27399826049805 111.05599975585938,-74.76300048828125 80.12300109863281,-80.56999969482422 C71.83499908447266,-82.1259994506836 65.802001953125,-82.31300354003906 61.28900146484375,-83.5790023803711 C55.32699966430664,-85.25199890136719 54.986000061035156,-92.68099975585938 58.393001556396484,-96.3270034790039z"></path></g><g opacity="1" transform="matrix(1,0,0,1,0,0)"><path fill="rgb(134,63,20)" fill-opacity="1" d=" M58.965999603271484,-96.99299621582031 C60.207000732421875,-98.3219985961914 63.72999954223633,-100.13899993896484 66.81900024414062,-100.89800262451172 C80.2040023803711,-104.18800354003906 103.91999816894531,-101.93800354003906 122.00199890136719,-86.25 C147.7530059814453,-63.90999984741211 142.4969940185547,-50.926998138427734 136.83099365234375,-55.43000030517578 C131.1649932861328,-59.933998107910156 111.96499633789062,-79.4219970703125 81.03199768066406,-85.22899627685547 C72.74400329589844,-86.78500366210938 66.71099853515625,-86.97200012207031 62.198001861572266,-88.23799896240234 C56.236000061035156,-89.91100311279297 55.558998107910156,-93.34700012207031 58.965999603271484,-96.99299621582031z"></path></g></g><g opacity="1" transform="matrix(1,0,0,1,0,0)"><path fill="rgb(107,32,0)" fill-opacity="1" d=" M57.58599853515625,-90.87799835205078 C57.60200119018555,-90.90499877929688 57.630001068115234,-90.94000244140625 57.65599822998047,-90.96499633789062 C58.89699935913086,-92.29100036621094 62.41600036621094,-94.11399841308594 65.50599670410156,-94.86299896240234 C78.88500213623047,-98.15899658203125 102.61000061035156,-95.90399932861328 120.68499755859375,-80.2239990234375 C133.56900024414062,-69.04299926757812 138.68299865722656,-60.20100021362305 139.875,-54.731998443603516 C143.36099243164062,-56.356998443603516 142.71600341796875,-68.27799987792969 121.9990005493164,-86.25299835205078 C103.92400360107422,-101.93299865722656 80.19999694824219,-104.18699645996094 66.822998046875,-100.9010009765625 C63.72999954223633,-100.14199829101562 60.21099853515625,-98.31999969482422 58.970001220703125,-96.99400329589844 C56.875999450683594,-94.75900268554688 56.323001861572266,-92.59600067138672 57.58599853515625,-90.87799835205078z"></path></g></g><g style="display: block;" transform="matrix(1.059999942779541,0,0,1.059999942779541,249.00082397460938,286.7200012207031)" opacity="1"><g opacity="1" transform="matrix(1,0,0,1,0,0)"><g opacity="1" transform="matrix(1,0,0,1,0,0)"><path fill="rgb(255,238,189)" fill-opacity="1" d=" M-42.058998107910156,-98.87300109863281 C-43.31800079345703,-100.18499755859375 -47.22100067138672,-101.63800048828125 -50.31999969482422,-102.3550033569336 C-63.74800109863281,-105.46399688720703 -89.84300231933594,-98.49700164794922 -107.71199798583984,-82.56700134277344 C-133.15899658203125,-59.88100051879883 -124.5719985961914,-47.69499969482422 -118.96700286865234,-52.275001525878906 C-113.36199951171875,-56.854000091552734 -94.4260025024414,-76.5999984741211 -63.57500076293945,-82.8239974975586 C-55.30799865722656,-84.49199676513672 -49.27899932861328,-84.76000213623047 -44.78300094604492,-86.08699798583984 C-38.84400177001953,-87.83999633789062 -38.60300064086914,-95.27300262451172 -42.058998107910156,-98.87300109863281z"></path></g><g opacity="1" transform="matrix(1,0,0,1,0,0)"><path fill="rgb(134,63,20)" fill-opacity="1" d=" M-42.64099884033203,-99.53099822998047 C-43.900001525878906,-100.84300231933594 -47.446998596191406,-102.61299896240234 -50.54600143432617,-103.33000183105469 C-63.974998474121094,-106.43900299072266 -87.65799713134766,-103.86799621582031 -105.5270004272461,-87.93800354003906 C-130.9739990234375,-65.25199890136719 -125.54299926757812,-52.34199905395508 -119.93800354003906,-56.92100143432617 C-114.33300018310547,-61.500999450683594 -95.39800262451172,-81.24600219726562 -64.5459976196289,-87.47000122070312 C-56.27899932861328,-89.13800048828125 -50.250999450683594,-89.40599822998047 -45.755001068115234,-90.73300170898438 C-39.816001892089844,-92.48600006103516 -39.185001373291016,-95.93099975585938 -42.64099884033203,-99.53099822998047z"></path></g></g><g opacity="1" transform="matrix(1,0,0,1,0,0)"><path fill="rgb(107,32,0)" fill-opacity="1" d=" M-41.17900085449219,-93.43499755859375 C-41.19499969482422,-93.46199798583984 -41.2239990234375,-93.49700164794922 -41.25,-93.52200317382812 C-42.50899887084961,-94.83100128173828 -46.051998138427734,-96.60600280761719 -49.152000427246094,-97.31300354003906 C-62.57400131225586,-100.4280014038086 -86.26599884033203,-97.85299682617188 -104.12799835205078,-81.93099975585938 C-116.86000061035156,-70.5770034790039 -121.8550033569336,-61.66699981689453 -122.9729995727539,-56.18199920654297 C-126.48100280761719,-57.7599983215332 -125.99500274658203,-69.68800354003906 -105.52300262451172,-87.94100189208984 C-87.66100311279297,-103.86299896240234 -63.970001220703125,-106.43699645996094 -50.54999923706055,-103.33200073242188 C-47.446998596191406,-102.61499786376953 -43.90399932861328,-100.84100341796875 -42.64500045776367,-99.53199768066406 C-40.520999908447266,-97.32499694824219 -39.93899917602539,-95.16999816894531 -41.17900085449219,-93.43499755859375z"></path></g></g><g style="display: block;" transform="matrix(1.059999942779541,0,0,1.059999942779541,249.00082397460938,286.7200012207031)" opacity="1"><g opacity="1" transform="matrix(1,0,0,1,0,0)"><path fill="rgb(134,63,20)" fill-opacity="1" d=" M7.449999809265137,62.22700119018555 C-24.988000869750977,62.22700119018555 -48.95899963378906,77.8239974975586 -46.974998474121094,82.01599884033203 C-45.638999938964844,84.83899688720703 -33.33300018310547,73.4540023803711 7.449999809265137,73.4540023803711 C48.94200134277344,73.4540023803711 60.59000015258789,85.27799987792969 61.875999450683594,82.01599884033203 C63.57699966430664,77.70099639892578 39.88800048828125,62.22700119018555 7.449999809265137,62.22700119018555z"></path></g><g opacity="1" transform="matrix(1,0,0,1,0,0)"><path fill="rgb(107,32,0)" fill-opacity="1" d=" M61.87699890136719,82.01699829101562 C61.75699996948242,82.3270034790039 61.547000885009766,82.49700164794922 61.23699951171875,82.55699920654297 C57.06700134277344,76.65699768066406 35.5369987487793,67.0469970703125 7.447000026702881,67.0469970703125 C-20.39299964904785,67.0469970703125 -42.01300048828125,76.53700256347656 -46.3129997253418,82.4469985961914 C-46.632999420166016,82.41699981689453 -46.84299850463867,82.2770004272461 -46.972999572753906,82.01699829101562 C-48.9630012512207,77.8270034790039 -24.982999801635742,62.22700119018555 7.447000026702881,62.22700119018555 C39.887001037597656,62.22700119018555 63.57699966430664,77.6969985961914 61.87699890136719,82.01699829101562z"></path></g></g><g style="display: none;"><g><path></path></g><g><g><path></path></g><g><path></path></g><g><path></path></g><g><path></path></g><g><path></path></g></g><g><path></path></g></g><g style="display: none;"><g><path></path></g><g><g><path></path></g><g><path></path></g><g><path></path></g><g><path></path></g><g><path></path></g></g><g><path></path></g></g><g style="display: none;"><g><path></path></g><g><g><path></path></g><g><path></path></g><g><path></path></g><g><path></path></g><g><path></path></g></g><g><path></path></g></g><g style="display: none;"><g><path></path></g><g><g><path></path></g><g><path></path></g><g><path></path></g><g><path></path></g><g><path></path></g></g><g><path></path></g></g><g style="display: block;" transform="matrix(1.059999942779541,0,0,1.059999942779541,249.00082397460938,286.7200012207031)" opacity="1"><g opacity="1" transform="matrix(1,0,0,1,0,0)"><path fill="rgb(222,222,222)" fill-opacity="1" d=" M-6.302000045776367,88.95099639892578 C-6.302000045776367,88.95099639892578 9.003000259399414,106.44400024414062 9.003000259399414,106.44400024414062 C13.984000205993652,102.08599853515625 19.85700035095215,98.86799621582031 26.211000442504883,97.01499938964844 C26.211000442504883,97.01499938964844 37.36600112915039,93.76200103759766 37.36600112915039,93.76200103759766 C42.38600158691406,92.2979965209961 47.0260009765625,89.75499725341797 50.96200180053711,86.31199645996094 C50.96200180053711,86.31199645996094 192.08399963378906,-37.165000915527344 192.08399963378906,-37.165000915527344 C202.1009979248047,-45.92900085449219 203.11599731445312,-61.15399932861328 194.3520050048828,-71.1709976196289 C194.3520050048828,-71.1709976196289 194.3520050048828,-71.1709976196289 194.3520050048828,-71.1709976196289 C185.58799743652344,-81.18800354003906 170.36300659179688,-82.2030029296875 160.3459930419922,-73.43900299072266 C160.3459930419922,-73.43900299072266 19.222999572753906,50.03799819946289 19.222999572753906,50.03799819946289 C15.286999702453613,53.48099899291992 12.152000427246094,57.74300003051758 10.034000396728516,62.52399826049805 C10.034000396728516,62.52399826049805 5.328000068664551,73.14800262451172 5.328000068664551,73.14800262451172 C2.6480000019073486,79.1989974975586 -1.3209999799728394,84.59300231933594 -6.302000045776367,88.95099639892578z"></path></g><g opacity="1" transform="matrix(1,0,0,1,0,0)"><path fill="rgb(222,222,222)" fill-opacity="1" d=" M4.25,83.19599914550781 C4.25,83.19599914550781 16.107999801635742,96.75 16.107999801635742,96.75 C17.92099952697754,95.16300201416016 20.059999465942383,93.99199676513672 22.37299919128418,93.31700134277344 C22.37299919128418,93.31700134277344 34.3390007019043,89.8270034790039 34.3390007019043,89.8270034790039 C38.64899826049805,88.56999969482422 42.63199996948242,86.38700103759766 46.01100158691406,83.43099975585938 C46.01100158691406,83.43099975585938 188.35000610351562,-41.10900115966797 188.35000610351562,-41.10900115966797 C196.11099243164062,-47.89899826049805 196.89700317382812,-59.69599914550781 190.10699462890625,-67.45700073242188 C190.10699462890625,-67.45700073242188 190.10699462890625,-67.45700073242188 190.10699462890625,-67.45700073242188 C183.31700134277344,-75.21800231933594 171.52000427246094,-76.00399780273438 163.75900268554688,-69.21399688720703 C163.75900268554688,-69.21399688720703 21.42099952697754,55.32600021362305 21.42099952697754,55.32600021362305 C18.04199981689453,58.28200149536133 15.350000381469727,61.941001892089844 13.531999588012695,66.0459976196289 C13.531999588012695,66.0459976196289 8.484000205993652,77.44300079345703 8.484000205993652,77.44300079345703 C7.507999897003174,79.64600372314453 6.063000202178955,81.60900115966797 4.25,83.19599914550781z"></path></g><g opacity="0.3" transform="matrix(1,0,0,1,0,0)"><path fill="rgb(255,255,255)" fill-opacity="1" d=" M156.64700317382812,-62.99700164794922 C156.64700317382812,-62.99700164794922 163.75900268554688,-69.22000122070312 163.75900268554688,-69.22000122070312 C167.63499450683594,-72.61100006103516 172.5260009765625,-74.11299896240234 177.2949981689453,-73.79499816894531 C182.06500244140625,-73.47699737548828 186.71299743652344,-71.33799743652344 190.11099243164062,-67.45500183105469 C196.89999389648438,-59.69599914550781 196.11300659179688,-47.900001525878906 188.35400390625,-41.111000061035156 C188.35400390625,-41.111000061035156 181.24200439453125,-34.88800048828125 181.24200439453125,-34.88800048828125 C189.00100708007812,-41.676998138427734 189.78799438476562,-53.4739990234375 182.99899291992188,-61.233001708984375 C179.6009979248047,-65.11599731445312 174.95199584960938,-67.25399780273438 170.18299865722656,-67.5719985961914 C165.41400146484375,-67.88999938964844 160.52999877929688,-66.3949966430664 156.64700317382812,-62.99700164794922z"></path></g><g opacity="1" transform="matrix(1,0,0,1,0,0)"><path fill="rgb(252,13,12)" fill-opacity="1" d=" M122.84700012207031,-8.607000350952148 C122.84700012207031,-8.607000350952148 122.84700012207031,-8.607000350952148 122.84700012207031,-8.607000350952148 C127.0739974975586,-3.7760000228881836 126.58399963378906,3.565000057220459 121.75299835205078,7.791999816894531 C121.75299835205078,7.791999816894531 16.67300033569336,99.73300170898438 16.67300033569336,99.73300170898438 C16.67300033569336,99.73300170898438 3.5439999103546143,80.33599853515625 3.5439999103546143,80.33599853515625 C3.5439999103546143,80.33599853515625 106.447998046875,-9.701000213623047 106.447998046875,-9.701000213623047 C111.27899932861328,-13.928000450134277 118.62000274658203,-13.437999725341797 122.84700012207031,-8.607000350952148z"></path></g><g opacity="0.4" transform="matrix(1,0,0,1,0,0)"><path stroke-linecap="round" stroke-linejoin="round" fill-opacity="0" stroke="rgb(255,255,255)" stroke-opacity="1" stroke-width="9" d=" M-22.867000579833984,114.33100128173828 C-22.867000579833984,114.33100128173828 -9.019000053405762,102.21399688720703 -9.019000053405762,102.21399688720703"></path></g><g opacity="1" transform="matrix(1,0,0,1,0,0)"><path stroke-linecap="round" stroke-linejoin="round" fill-opacity="0" stroke="rgb(60,60,59)" stroke-opacity="1" stroke-width="4" d=" M140.00799560546875,-48.428001403808594 C140.00799560546875,-48.428001403808594 142.96099853515625,-42.143001556396484 150.28799438476562,-36.49700164794922"></path></g><g opacity="1" transform="matrix(1,0,0,1,0,0)"><path stroke-linecap="round" stroke-linejoin="round" fill-opacity="0" stroke="rgb(60,60,59)" stroke-opacity="1" stroke-width="4" d=" M115.26699829101562,-26.780000686645508 C115.26699829101562,-26.780000686645508 118.21900177001953,-20.493999481201172 125.5459976196289,-14.848999977111816"></path></g><g opacity="1" transform="matrix(1,0,0,1,0,0)"><path stroke-linecap="round" stroke-linejoin="round" fill-opacity="0" stroke="rgb(60,60,59)" stroke-opacity="1" stroke-width="4" d=" M90.5250015258789,-5.131999969482422 C90.5250015258789,-5.131999969482422 93.47699737548828,1.152999997138977 100.80400085449219,6.798999786376953"></path></g><g opacity="1" transform="matrix(1,0,0,1,0,0)"><path stroke-linecap="round" stroke-linejoin="round" fill-opacity="0" stroke="rgb(60,60,59)" stroke-opacity="1" stroke-width="4" d=" M65.78299713134766,16.516000747680664 C65.78299713134766,16.516000747680664 68.73600006103516,22.801000595092773 76.06300354003906,28.44700050354004"></path></g><g opacity="1" transform="matrix(1,0,0,1,0,0)"><path stroke-linecap="round" stroke-linejoin="round" fill-opacity="0" stroke="rgb(60,60,59)" stroke-opacity="1" stroke-width="4" d=" M41.04199981689453,38.16400146484375 C41.04199981689453,38.16400146484375 43.99399948120117,44.44900131225586 51.32099914550781,50.095001220703125"></path></g><g opacity="1" transform="matrix(1,0,0,1,0,0)"><path stroke-linecap="round" stroke-linejoin="round" fill-opacity="0" stroke="rgb(60,60,59)" stroke-opacity="1" stroke-width="4" d=" M16.299999237060547,59.81100082397461 C16.299999237060547,59.81100082397461 19.25200080871582,66.0979995727539 26.57900047302246,71.74299621582031"></path></g><g opacity="0.45" transform="matrix(1,0,0,1,0,0)"><path stroke-linecap="round" stroke-linejoin="round" fill-opacity="0" stroke="rgb(255,255,255)" stroke-opacity="1" stroke-width="9" d=" M6.9770002365112305,88.21900177001953 C6.9770002365112305,88.21900177001953 172.99200439453125,-57.03799819946289 172.99200439453125,-57.03799819946289"></path></g><g opacity="1" transform="matrix(1,0,0,1,0,0)"><path stroke-linecap="butt" stroke-linejoin="miter" fill-opacity="0" stroke-miterlimit="10" stroke="rgb(155,172,196)" stroke-opacity="1" stroke-width="8" d=" M-6.302000045776367,88.95099639892578 C-6.302000045776367,88.95099639892578 9.003000259399414,106.44400024414062 9.003000259399414,106.44400024414062 C13.984000205993652,102.08599853515625 19.85700035095215,98.86799621582031 26.211000442504883,97.01499938964844 C26.211000442504883,97.01499938964844 37.36600112915039,93.76200103759766 37.36600112915039,93.76200103759766 C42.38600158691406,92.2979965209961 47.0260009765625,89.75499725341797 50.96200180053711,86.31199645996094 C50.96200180053711,86.31199645996094 192.08399963378906,-37.165000915527344 192.08399963378906,-37.165000915527344 C202.1009979248047,-45.92900085449219 203.11599731445312,-61.15399932861328 194.3520050048828,-71.1709976196289 C194.3520050048828,-71.1709976196289 194.3520050048828,-71.1709976196289 194.3520050048828,-71.1709976196289 C185.58799743652344,-81.18800354003906 170.36300659179688,-82.2030029296875 160.3459930419922,-73.43900299072266 C160.3459930419922,-73.43900299072266 19.222999572753906,50.03799819946289 19.222999572753906,50.03799819946289 C15.286999702453613,53.48099899291992 12.152000427246094,57.74300003051758 10.034000396728516,62.52399826049805 C10.034000396728516,62.52399826049805 5.328000068664551,73.14800262451172 5.328000068664551,73.14800262451172 C2.6480000019073486,79.1989974975586 -1.3209999799728394,84.59300231933594 -6.302000045776367,88.95099639892578z"></path></g><g opacity="0.39" transform="matrix(1,0,0,1,0,0)"><path fill="url(#__lottie_element_16193)" fill-opacity="1" d=" M197.36300659179688,-73.80500030517578 C187.15899658203125,-85.46600341796875 169.3719940185547,-86.6510009765625 157.71299743652344,-76.44999694824219 C157.71299743652344,-76.44999694824219 16.59000015258789,47.027000427246094 16.59000015258789,47.027000427246094 C12.246999740600586,50.82699966430664 8.715999603271484,55.625999450683594 6.376999855041504,60.90399932861328 C6.376999855041504,60.90399932861328 1.6710000038146973,71.52899932861328 1.6710000038146973,71.52899932861328 C-0.7559999823570251,77.00900268554688 -4.423999786376953,81.99299621582031 -8.935999870300293,85.94000244140625 C-8.935999870300293,85.94000244140625 11.63700008392334,109.4540023803711 11.63700008392334,109.4540023803711 C16.149999618530273,105.50599670410156 21.576000213623047,102.53299713134766 27.33099937438965,100.8550033569336 C27.33099937438965,100.8550033569336 38.486000061035156,97.60199737548828 38.486000061035156,97.60199737548828 C44.02799987792969,95.98500061035156 49.25199890136719,93.12300109863281 53.595001220703125,89.322998046875 C53.595001220703125,89.322998046875 194.71800231933594,-34.15399932861328 194.71800231933594,-34.15399932861328 C206.3780059814453,-44.356998443603516 207.56500244140625,-62.14400100708008 197.36300659179688,-73.80500030517578z"></path></g></g><g style="display: block;" transform="matrix(1.059999942779541,0,0,1.059999942779541,249.00082397460938,286.7200012207031)" opacity="1"><g opacity="1" transform="matrix(1,0,0,1,0,0)"><path fill="rgb(255,209,64)" fill-opacity="1" d=" M-84.58300018310547,104.58699798583984 C-89.16999816894531,101.13600158691406 -71.06300354003906,89.46700286865234 -47.073001861572266,81.68699645996094 C-47.0629997253418,81.80699920654297 -47.02299880981445,81.91699981689453 -46.972999572753906,82.01699829101562 C-45.643001556396484,84.83699798583984 -33.33300018310547,73.45700073242188 7.447000026702881,73.45700073242188 C48.946998596191406,73.45700073242188 60.58700180053711,85.2770004272461 61.87699890136719,82.01699829101562 C61.926998138427734,81.88700103759766 61.957000732421875,81.74700164794922 61.96699905395508,81.59700012207031 C77.14700317382812,87.76699829101562 94.91200256347656,95.11699676513672 88.80899810791016,106.58599853515625 C86.27999877929688,111.33999633789062 -27.86400032043457,147.26499938964844 -84.58300018310547,104.58699798583984z"></path></g><g opacity="1" transform="matrix(1,0,0,1,0,0)"><path fill="rgb(255,238,189)" fill-opacity="1" d=" M61.87699890136719,85.01699829101562 C59.39699935913086,87.49700164794922 48.946998596191406,77.45700073242188 7.447000026702881,77.45700073242188 C-33.33300018310547,77.45700073242188 -44.76300048828125,87.22699737548828 -46.972999572753906,85.01699829101562 C-48.28300094604492,83.71700286865234 -48.03300094604492,81.927001953125 -46.51300048828125,79.927001953125 C-47.0629997253418,80.76699829101562 -47.222999572753906,81.48699951171875 -46.972999572753906,82.01699829101562 C-45.643001556396484,84.83699798583984 -33.33300018310547,73.45700073242188 7.447000026702881,73.45700073242188 C48.946998596191406,73.45700073242188 60.58700180053711,85.2770004272461 61.87699890136719,82.01699829101562 C62.15700149536133,81.31700134277344 61.75699996948242,80.31700134277344 60.75699996948242,79.12699890136719 C62.84700012207031,81.4469985961914 63.356998443603516,83.53700256347656 61.87699890136719,85.01699829101562z"></path></g></g></g></svg>