<svg xmlns="http://www.w3.org/2000/svg" viewBox="0 0 512 512" width="512" height="512" style="width: 100%; height: 100%; transform: translate3d(0,0,0);" preserveAspectRatio="xMidYMid meet"><defs><clipPath id="__lottie_element_16229"><rect width="512" height="512" x="0" y="0"></rect></clipPath><linearGradient id="__lottie_element_16237" spreadMethod="pad" gradientUnits="userSpaceOnUse" x1="0.27399998903274536" y1="-29.84000015258789" x2="0.27399998903274536" y2="57.53900146484375"><stop offset="0%" stop-color="rgb(179,179,179)"></stop><stop offset="37%" stop-color="rgb(114,114,112)"></stop><stop offset="100%" stop-color="rgb(49,50,46)"></stop></linearGradient><radialGradient id="__lottie_element_16241" spreadMethod="pad" gradientUnits="userSpaceOnUse" cx="13.27400016784668" cy="18.15999984741211" r="33.62600135803223" fx="13.27400016784668" fy="18.15999984741211"><stop offset="24%" stop-color="rgb(89,92,90)"></stop><stop offset="52%" stop-color="rgb(82,85,82)"></stop><stop offset="100%" stop-color="rgb(75,79,74)"></stop></radialGradient><linearGradient id="__lottie_element_16248" spreadMethod="pad" gradientUnits="userSpaceOnUse" x1="0.15700000524520874" y1="-29.84000015258789" x2="0.15700000524520874" y2="57.53900146484375"><stop offset="0%" stop-color="rgb(179,179,179)"></stop><stop offset="37%" stop-color="rgb(114,114,112)"></stop><stop offset="100%" stop-color="rgb(49,50,46)"></stop></linearGradient><radialGradient id="__lottie_element_16252" spreadMethod="pad" gradientUnits="userSpaceOnUse" cx="13.156999588012695" cy="18.15999984741211" r="33.62500190734863" fx="13.156999588012695" fy="18.15999984741211"><stop offset="24%" stop-color="rgb(89,92,90)"></stop><stop offset="52%" stop-color="rgb(82,85,82)"></stop><stop offset="100%" stop-color="rgb(75,79,74)"></stop></radialGradient><linearGradient id="__lottie_element_16373" spreadMethod="pad" gradientUnits="userSpaceOnUse" x1="0.7630000114440918" y1="-66.71600341796875" x2="0.7630000114440918" y2="69.58599853515625"><stop offset="0%" stop-color="rgb(137,139,137)"></stop><stop offset="41%" stop-color="rgb(82,83,83)"></stop><stop offset="76%" stop-color="rgb(26,28,28)"></stop></linearGradient><linearGradient id="__lottie_element_16404" spreadMethod="pad" gradientUnits="userSpaceOnUse" x1="0.6679999828338623" y1="-66.71600341796875" x2="0.6679999828338623" y2="69.58599853515625"><stop offset="0%" stop-color="rgb(137,139,137)"></stop><stop offset="41%" stop-color="rgb(82,83,83)"></stop><stop offset="76%" stop-color="rgb(26,28,28)"></stop></linearGradient><linearGradient id="__lottie_element_16420" spreadMethod="pad" gradientUnits="userSpaceOnUse" x1="0.07000000029802322" y1="-28.464000701904297" x2="0.07000000029802322" y2="33.05799865722656"><stop offset="0%" stop-color="rgb(179,179,179)"></stop><stop offset="37%" stop-color="rgb(114,114,112)"></stop><stop offset="100%" stop-color="rgb(49,50,46)"></stop></linearGradient></defs><g clip-path="url(#__lottie_element_16229)"><g style="display: block;" transform="matrix(1,0,0,1,119.95099639892578,140.7729949951172)" opacity="1"><g opacity="1" transform="matrix(1,0,0,1,0,0)"><path fill="rgb(68,69,65)" fill-opacity="1" d=" M45.952999114990234,-24.170000076293945 C45.952999114990234,-24.170000076293945 41.13399887084961,-34.24800109863281 34.891998291015625,-35.888999938964844 C27.29400062561035,-37.887001037597656 0.460999995470047,-32.7859992980957 -21.599000930786133,-11.755000114440918 C-36.172000885009766,2.138000011444092 -45.095001220703125,16.725000381469727 -45.93600082397461,27.066999435424805 C-46.215999603271484,30.514999389648438 -42.82099914550781,32.60100173950195 -41.80799865722656,35.21900177001953 C-37.755001068115234,45.691001892089844 45.952999114990234,-24.170000076293945 45.952999114990234,-24.170000076293945z"></path><path stroke-linecap="round" stroke-linejoin="round" fill-opacity="0" stroke="rgb(44,45,43)" stroke-opacity="1" stroke-width="8" d=" M45.952999114990234,-24.170000076293945 C45.952999114990234,-24.170000076293945 41.13399887084961,-34.24800109863281 34.891998291015625,-35.888999938964844 C27.29400062561035,-37.887001037597656 0.460999995470047,-32.7859992980957 -21.599000930786133,-11.755000114440918 C-36.172000885009766,2.138000011444092 -45.095001220703125,16.725000381469727 -45.93600082397461,27.066999435424805 C-46.215999603271484,30.514999389648438 -42.82099914550781,32.60100173950195 -41.80799865722656,35.21900177001953 C-37.755001068115234,45.691001892089844 45.952999114990234,-24.170000076293945 45.952999114990234,-24.170000076293945z"></path></g></g><g style="display: block;" transform="matrix(1,0,0,1,119.95099639892578,140.7729949951172)" opacity="0.4"><g opacity="1" transform="matrix(1,0,0,1,0,0)"><path stroke-linecap="round" stroke-linejoin="round" fill-opacity="0" stroke="rgb(255,255,255)" stroke-opacity="1" stroke-width="8" d=" M45.952999114990234,-24.170000076293945 C45.952999114990234,-24.170000076293945 41.13399887084961,-34.24800109863281 34.891998291015625,-35.888999938964844 C27.43899917602539,-37.8489990234375 1.4769999980926514,-32.97800064086914 -20.332000732421875,-12.940999984741211"></path></g></g><g style="display: block;" transform="matrix(1,0,0,1,392.04901123046875,140.7729949951172)" opacity="1"><g opacity="1" transform="matrix(1,0,0,1,0,0)"><path fill="rgb(68,69,65)" fill-opacity="1" d=" M-45.952999114990234,-24.170000076293945 C-45.952999114990234,-24.170000076293945 -41.13399887084961,-34.24800109863281 -34.891998291015625,-35.888999938964844 C-27.29400062561035,-37.887001037597656 -0.460999995470047,-32.7859992980957 21.599000930786133,-11.755000114440918 C36.172000885009766,2.138000011444092 45.095001220703125,16.725000381469727 45.93600082397461,27.066999435424805 C46.215999603271484,30.514999389648438 42.82099914550781,32.60100173950195 41.80799865722656,35.21900177001953 C37.755001068115234,45.691001892089844 -45.952999114990234,-24.170000076293945 -45.952999114990234,-24.170000076293945z"></path><path stroke-linecap="round" stroke-linejoin="round" fill-opacity="0" stroke="rgb(44,45,43)" stroke-opacity="1" stroke-width="8" d=" M-45.952999114990234,-24.170000076293945 C-45.952999114990234,-24.170000076293945 -41.13399887084961,-34.24800109863281 -34.891998291015625,-35.888999938964844 C-27.29400062561035,-37.887001037597656 -0.460999995470047,-32.7859992980957 21.599000930786133,-11.755000114440918 C36.172000885009766,2.138000011444092 45.095001220703125,16.725000381469727 45.93600082397461,27.066999435424805 C46.215999603271484,30.514999389648438 42.82099914550781,32.60100173950195 41.80799865722656,35.21900177001953 C37.755001068115234,45.691001892089844 -45.952999114990234,-24.170000076293945 -45.952999114990234,-24.170000076293945z"></path></g></g><g style="display: block;" transform="matrix(1,0,0,1,392.04901123046875,140.7729949951172)" opacity="0.4"><g opacity="1" transform="matrix(1,0,0,1,0,0)"><path stroke-linecap="round" stroke-linejoin="round" fill-opacity="0" stroke="rgb(255,255,255)" stroke-opacity="1" stroke-width="8" d=" M-45.952999114990234,-24.170000076293945 C-45.952999114990234,-24.170000076293945 -41.13399887084961,-34.24800109863281 -34.891998291015625,-35.888999938964844 C-27.43899917602539,-37.8489990234375 -1.4769999980926514,-32.97800064086914 20.332000732421875,-12.940999984741211"></path></g></g><g style="display: block;" transform="matrix(1,0,0,1,256,283.6780090332031)" opacity="1"><g opacity="1" transform="matrix(1,0,0,1,0,0)"><path fill="rgb(68,69,65)" fill-opacity="1" d=" M192.13999938964844,42.347999572753906 C190.7030029296875,-43.137001037597656 183,-104.67900085449219 161.0659942626953,-133.43299865722656 C130.10499572753906,-174.02200317382812 85.55000305175781,-163.56900024414062 -0.5,-163.56900024414062 C-86.55000305175781,-163.56900024414062 -128.91700744628906,-173.08700561523438 -161.0659942626953,-133.43299865722656 C-186,-102.67900085449219 -191.2030029296875,-47.637001037597656 -192.63999938964844,37.847999572753906 C-194.07699584960938,123.33300018310547 -184.57000732421875,141.61900329589844 -155.6230010986328,149.4980010986328 C-133.44700622558594,155.53399658203125 -121.14900207519531,146.13699340820312 -100.97599792480469,121.84300231933594 C-77.69499969482422,93.80500030517578 -74,77.8219985961914 -58.90399932861328,73.08200073242188 C-39.665000915527344,67.04199981689453 -14.72599983215332,68.58200073242188 -0.5,68.58200073242188 C13.72599983215332,68.58200073242188 41.21699905395508,66.71499633789062 60.90399932861328,71.08200073242188 C71,73.3219985961914 75.19499969482422,91.30500030517578 98.47599792480469,119.34300231933594 C118.64900207519531,143.63699340820312 126.4469985961914,152.53399658203125 148.6230010986328,146.4980010986328 C177.57000732421875,138.61900329589844 193.57699584960938,127.83300018310547 192.13999938964844,42.347999572753906z"></path></g></g><g style="display: block;" transform="matrix(1,0,0,1,256.0010070800781,267.7749938964844)" opacity="1"><g opacity="1" transform="matrix(1,0,0,1,0,0)"><path fill="rgb(99,100,93)" fill-opacity="1" d=" M179.81500244140625,52.125999450683594 C179.73500061035156,106.0260009765625 167.06500244140625,127.22599792480469 146.30499267578125,129.58599853515625 C118.46499633789062,132.75599670410156 92.30500030517578,81.57599639892578 66.29499816894531,69.57599639892578 C66.29499816894531,69.57599639892578 16.604999542236328,70.59600067138672 -0.004999999888241291,70.59600067138672 C-16.604999542236328,70.59600067138672 -66.29499816894531,69.57599639892578 -66.29499816894531,69.57599639892578 C-92.31500244140625,81.57599639892578 -118.46499633789062,133.75599670410156 -146.30499267578125,130.58599853515625 C-167.06500244140625,128.2259979248047 -181.23500061035156,114.0260009765625 -181.31500244140625,60.125999450683594 C-181.4250030517578,-21.11400032043457 -167.38499450683594,-70.34400177001953 -167.38499450683594,-70.34400177001953 C-167.38499450683594,-70.34400177001953 -162.44500732421875,-95.05400085449219 -151.1750030517578,-127.6240005493164 C-119.32499694824219,-155.843994140625 -78.26499938964844,-152.16400146484375 -0.5049999952316284,-152.16400146484375 C73.98500061035156,-152.16400146484375 115.75499725341797,-155.70399475097656 147.09500122070312,-131.0240020751953 C160.8249969482422,-96.79399871826172 167.38499450683594,-70.34400177001953 167.38499450683594,-70.34400177001953 C167.38499450683594,-70.34400177001953 179.9250030517578,-29.11400032043457 179.81500244140625,52.125999450683594z"></path></g></g><g style="display: block;" transform="matrix(0.949999988079071,0,0,0.949999988079071,256.0010070800781,267.7749938964844)" opacity="0.7000000000000001"><g opacity="1" transform="matrix(1,0,0,1,0,0)"><path stroke-linecap="round" stroke-linejoin="round" fill-opacity="0" stroke="rgb(255,255,255)" stroke-opacity="1" stroke-width="10" d=" M155.61599731445312,-108.36299896240234 C161.28900146484375,-92.23100280761719 164.86500549316406,-79.73600006103516 166.44400024414062,-73.91999816894531"></path></g></g><g style="display: block;" transform="matrix(0.949999988079071,0,0,0.949999988079071,256.0010070800781,267.7749938964844)" opacity="0.7000000000000001"><g opacity="1" transform="matrix(1,0,0,1,0,0)"><path stroke-linecap="round" stroke-linejoin="round" fill-opacity="0" stroke="rgb(255,255,255)" stroke-opacity="1" stroke-width="10" d=" M-130.5919952392578,-141.08099365234375 C-120.34300231933594,-145.77999877929688 -108.94300079345703,-148.54800415039062 -95.79100036621094,-150.16000366210938"></path></g></g><g style="display: block;" transform="matrix(1,0,0,1,256,283.6780090332031)" opacity="1"><g opacity="1" transform="matrix(1,0,0,1,0,0)"><path stroke-linecap="round" stroke-linejoin="round" fill-opacity="0" stroke="rgb(44,45,43)" stroke-opacity="1" stroke-width="4" d=" M192.13999938964844,42.347999572753906 C190.7030029296875,-43.137001037597656 183,-104.67900085449219 161.0659942626953,-133.43299865722656 C130.10499572753906,-174.02200317382812 85.55000305175781,-163.56900024414062 -0.5,-163.56900024414062 C-86.55000305175781,-163.56900024414062 -128.91700744628906,-173.08700561523438 -161.0659942626953,-133.43299865722656 C-186,-102.67900085449219 -191.2030029296875,-47.637001037597656 -192.63999938964844,37.847999572753906 C-194.07699584960938,123.33300018310547 -184.57000732421875,141.61900329589844 -155.6230010986328,149.4980010986328 C-133.44700622558594,155.53399658203125 -121.14900207519531,146.13699340820312 -100.97599792480469,121.84300231933594 C-77.69499969482422,93.80500030517578 -74,77.8219985961914 -58.90399932861328,73.08200073242188 C-39.665000915527344,67.04199981689453 -14.72599983215332,68.58200073242188 -0.5,68.58200073242188 C13.72599983215332,68.58200073242188 41.21699905395508,66.71499633789062 60.90399932861328,71.08200073242188 C71,73.3219985961914 75.19499969482422,91.30500030517578 98.47599792480469,119.34300231933594 C118.64900207519531,143.63699340820312 126.4469985961914,152.53399658203125 148.6230010986328,146.4980010986328 C177.57000732421875,138.61900329589844 193.57699584960938,127.83300018310547 192.13999938964844,42.347999572753906z"></path></g></g><g style="display: block;" transform="matrix(1,0,0,1,258.47900390625,225.2519989013672)" opacity="1"><g opacity="1" transform="matrix(1,0,0,1,0,0)"><path fill="rgb(51,51,51)" fill-opacity="1" d=" M-94.0459976196289,87.4000015258789 C-94.0459976196289,87.4000015258789 -128.20799255371094,32.95800018310547 -128.20799255371094,32.95800018310547 C-128.20799255371094,32.95800018310547 -70.01499938964844,-92.47899627685547 -70.01499938964844,-92.47899627685547 C-70.01499938964844,-92.47899627685547 -19.315000534057617,-96.93800354003906 68.05699920654297,-92.47899627685547 C68.05699920654297,-92.47899627685547 128.20799255371094,32.08599853515625 128.20799255371094,32.08599853515625 C128.20799255371094,32.08599853515625 92.94000244140625,87.4000015258789 92.94000244140625,87.4000015258789 C92.94000244140625,87.4000015258789 26.60099983215332,94.46099853515625 26.60099983215332,94.46099853515625 C26.60099983215332,94.46099853515625 -30.743999481201172,94.46099853515625 -30.743999481201172,94.46099853515625 C-30.743999481201172,94.46099853515625 -94.0459976196289,87.4000015258789 -94.0459976196289,87.4000015258789z"></path></g></g><g style="display: block;" transform="matrix(1,0,0,1,257.14599609375,146.46400451660156)" opacity="1"><g opacity="1" transform="matrix(1,0,0,1,0,0)"><path fill="url(#__lottie_element_16420)" fill-opacity="1" d=" M-135.22300720214844,-19.68899917602539 C-135.22300720214844,-19.68899917602539 -135.22300720214844,34.51499938964844 -135.22300720214844,34.51499938964844 C-135.22300720214844,34.51499938964844 135.22300720214844,34.51499938964844 135.22300720214844,34.51499938964844 C135.22300720214844,34.51499938964844 135.22300720214844,-19.68899917602539 135.22300720214844,-19.68899917602539 C135.22300720214844,-19.68899917602539 113.40499877929688,-28.014999389648438 -0.8259999752044678,-28.014999389648438 C-115.05699920654297,-28.014999389648438 -135.22300720214844,-19.68899917602539 -135.22300720214844,-19.68899917602539z"></path></g></g><g style="display: block;" transform="matrix(1,0,0,1,256,283.6780090332031)" opacity="1"><g opacity="1" transform="matrix(1,0,0,1,0,0)"><path stroke-linecap="round" stroke-linejoin="round" fill-opacity="0" stroke="rgb(44,45,43)" stroke-opacity="1" stroke-width="8" d=" M192.13999938964844,42.347999572753906 C190.7030029296875,-43.137001037597656 183,-104.67900085449219 161.0659942626953,-133.43299865722656 C130.10499572753906,-174.02200317382812 85.55000305175781,-163.56900024414062 -0.5,-163.56900024414062 C-86.55000305175781,-163.56900024414062 -128.91700744628906,-173.08700561523438 -161.0659942626953,-133.43299865722656 C-186,-102.67900085449219 -191.2030029296875,-47.637001037597656 -192.63999938964844,37.847999572753906 C-194.07699584960938,123.33300018310547 -184.57000732421875,141.61900329589844 -155.6230010986328,149.4980010986328 C-133.44700622558594,155.53399658203125 -121.14900207519531,146.13699340820312 -100.97599792480469,121.84300231933594 C-77.69499969482422,93.80500030517578 -74,77.8219985961914 -58.90399932861328,73.08200073242188 C-39.665000915527344,67.04199981689453 -14.72599983215332,68.58200073242188 -0.5,68.58200073242188 C13.72599983215332,68.58200073242188 41.21699905395508,66.71499633789062 60.90399932861328,71.08200073242188 C71,73.3219985961914 75.19499969482422,91.30500030517578 98.47599792480469,119.34300231933594 C118.64900207519531,143.63699340820312 126.4469985961914,152.53399658203125 148.6230010986328,146.4980010986328 C177.57000732421875,138.61900329589844 193.57699584960938,127.83300018310547 192.13999938964844,42.347999572753906z"></path></g></g><g style="display: block;" transform="matrix(1.0099999904632568,0,0,1.0099999904632568,256,283.6780090332031)" opacity="0.3"><g opacity="1" transform="matrix(1,0,0,1,0,0)"><path stroke-linecap="round" stroke-linejoin="round" fill-opacity="0" stroke="rgb(255,255,255)" stroke-opacity="1" stroke-width="8" d=" M158.03900146484375,-137.18899536132812 C127.1989974975586,-173.36099243164062 82.78500366210938,-163.56900024414062 -0.5,-163.56900024414062 C-83.91799926757812,-163.56900024414062 -126.28399658203125,-172.51400756835938 -158.08599853515625,-136.93499755859375"></path></g></g><g style="display: block;" transform="matrix(1,0,0,1,258.47900390625,288.5249938964844)" opacity="1"><g opacity="1" transform="matrix(1,0,0,1,0,0)"><path stroke-linecap="round" stroke-linejoin="round" fill-opacity="0" stroke="rgb(22,22,22)" stroke-opacity="1" stroke-width="8" d=" M128.20799255371094,-31.187999725341797 C128.20799255371094,-31.187999725341797 92.94000244140625,24.12700080871582 92.94000244140625,24.12700080871582 C92.94000244140625,24.12700080871582 26.60099983215332,31.187999725341797 26.60099983215332,31.187999725341797 C26.60099983215332,31.187999725341797 -30.743999481201172,31.187999725341797 -30.743999481201172,31.187999725341797 C-30.743999481201172,31.187999725341797 -94.0459976196289,24.12700080871582 -94.0459976196289,24.12700080871582 C-94.0459976196289,24.12700080871582 -128.20799255371094,-30.315000534057617 -128.20799255371094,-30.315000534057617"></path></g></g><g style="display: block;" transform="matrix(0.9599999785423279,0,0,0.9599999785423279,256,283.6780090332031)" opacity="0.7000000000000001"><g opacity="1" transform="matrix(1,0,0,1,0,0)"><path stroke-linecap="round" stroke-linejoin="round" fill-opacity="0" stroke="rgb(193,193,193)" stroke-opacity="1" stroke-width="8" d=" M72.9489974975586,-164.7760009765625 C52.4109992980957,-164.73800659179688 28.274999618530273,-163.56900024414062 -0.5,-163.56900024414062 C-28.993999481201172,-163.56900024414062 -52.69900131225586,-164.61300659179688 -72.8290023803711,-164.56900024414062"></path></g></g><g style="display: block;" transform="matrix(1,0,0,1,155.54800415039062,194.71600341796875)" opacity="1"><g opacity="1" transform="matrix(1,0,0,1,0,0)"><path fill="url(#__lottie_element_16404)" fill-opacity="1" d=" M71.5530014038086,0 C71.5530014038086,39.516998291015625 39.516998291015625,71.5530014038086 0,71.5530014038086 C-39.516998291015625,71.5530014038086 -71.5530014038086,39.516998291015625 -71.5530014038086,0 C-71.5530014038086,-39.516998291015625 -39.516998291015625,-71.5530014038086 0,-71.5530014038086 C39.516998291015625,-71.5530014038086 71.5530014038086,-39.516998291015625 71.5530014038086,0z"></path><path stroke-linecap="round" stroke-linejoin="round" fill-opacity="0" stroke="rgb(22,22,22)" stroke-opacity="1" stroke-width="8" d=" M71.5530014038086,0 C71.5530014038086,39.516998291015625 39.516998291015625,71.5530014038086 0,71.5530014038086 C-39.516998291015625,71.5530014038086 -71.5530014038086,39.516998291015625 -71.5530014038086,0 C-71.5530014038086,-39.516998291015625 -39.516998291015625,-71.5530014038086 0,-71.5530014038086 C39.516998291015625,-71.5530014038086 71.5530014038086,-39.516998291015625 71.5530014038086,0z"></path></g></g><g style="display: block;" transform="matrix(1,0,0,1,155.54800415039062,194.71600341796875)" opacity="0.1"><g opacity="1" transform="matrix(1,0,0,1,0,0)"><path stroke-linecap="round" stroke-linejoin="round" fill-opacity="0" stroke="rgb(255,255,255)" stroke-opacity="1" stroke-width="8" d=" M-71.5530014038086,0 C-71.5530014038086,0 -71.5530014038086,0 -71.5530014038086,0 C-71.5530014038086,-39.516998291015625 -39.516998291015625,-71.5530014038086 0,-71.5530014038086 C39.516998291015625,-71.5530014038086 71.5530014038086,-39.516998291015625 71.5530014038086,0"></path></g></g><g style="display: block;" transform="matrix(1,0,0,1,155.54800415039062,194.71600341796875)" opacity="0.5"><g opacity="1" transform="matrix(1,0,0,1,0,0)"><path stroke-linecap="round" stroke-linejoin="round" fill-opacity="0" stroke="rgb(255,255,255)" stroke-opacity="1" stroke-width="8" d=" M-17.798999786376953,-69.32099914550781 C-12.109000205993652,-70.77799987792969 -6.144999980926514,-71.5530014038086 0,-71.5530014038086 C23.79800033569336,-71.5530014038086 44.88399887084961,-59.933998107910156 57.891998291015625,-42.060001373291016"></path></g></g><g style="display: block;" transform="matrix(1,0,0,1,155.54800415039062,194.71600341796875)" opacity="1"><g opacity="1" transform="matrix(1,0,0,1,0,0)"><path stroke-linecap="round" stroke-linejoin="round" fill-opacity="0" stroke="rgb(255,255,255)" stroke-opacity="1" stroke-width="6" d=" M17.798999786376953,-69.3219985961914 C20.725000381469727,-68.572998046875 23.577999114990234,-67.64299774169922 26.347000122070312,-66.5459976196289"></path></g></g><g style="display: block;" transform="matrix(1,0,0,1,157.677001953125,187.71600341796875)" opacity="1"><g opacity="1" transform="matrix(1,0,0,1,0,0)"><path fill="rgb(35,35,35)" fill-opacity="1" d=" M56.94300079345703,0.30300000309944153 C56.7760009765625,31.75200080871582 31.145999908447266,57.11000061035156 -0.30300000309944153,56.94300079345703 C-31.75200080871582,56.7760009765625 -57.11000061035156,31.145999908447266 -56.94300079345703,-0.30300000309944153 C-56.7760009765625,-31.75200080871582 -31.145999908447266,-57.111000061035156 0.30300000309944153,-56.94300079345703 C31.75200080871582,-56.775001525878906 57.11000061035156,-31.145999908447266 56.94300079345703,0.30300000309944153z"></path><path stroke-linecap="round" stroke-linejoin="round" fill-opacity="0" stroke="rgb(154,51,0)" stroke-opacity="1" stroke-width="5" d=" M56.94300079345703,0.30300000309944153 C56.7760009765625,31.75200080871582 31.145999908447266,57.11000061035156 -0.30300000309944153,56.94300079345703 C-31.75200080871582,56.7760009765625 -57.11000061035156,31.145999908447266 -56.94300079345703,-0.30300000309944153 C-56.7760009765625,-31.75200080871582 -31.145999908447266,-57.111000061035156 0.30300000309944153,-56.94300079345703 C31.75200080871582,-56.775001525878906 57.11000061035156,-31.145999908447266 56.94300079345703,0.30300000309944153z"></path></g></g><g style="display: block;" transform="matrix(1,0,0,1,0,0)" opacity="1"><g opacity="1" transform="matrix(1,0,0,1,157.68499755859375,168.91099548339844)"><path fill="rgb(0,0,0)" fill-opacity="1" d=" M-15.633999824523926,-23.624000549316406 C-15.633999824523926,-23.624000549316406 15.633999824523926,-23.624000549316406 15.633999824523926,-23.624000549316406 C15.633999824523926,-23.624000549316406 15.633999824523926,7.989999771118164 15.633999824523926,7.989999771118164 C15.633999824523926,7.989999771118164 -0.14499999582767487,23.624000549316406 -0.14499999582767487,23.624000549316406 C-0.14499999582767487,23.624000549316406 -15.633999824523926,8.178999900817871 -15.633999824523926,8.178999900817871 C-15.633999824523926,8.178999900817871 -15.633999824523926,-23.624000549316406 -15.633999824523926,-23.624000549316406z"></path><path stroke-linecap="round" stroke-linejoin="round" fill-opacity="0" stroke="rgb(0,0,0)" stroke-opacity="1" stroke-width="5" d=" M-15.633999824523926,-23.624000549316406 C-15.633999824523926,-23.624000549316406 15.633999824523926,-23.624000549316406 15.633999824523926,-23.624000549316406 C15.633999824523926,-23.624000549316406 15.633999824523926,7.989999771118164 15.633999824523926,7.989999771118164 C15.633999824523926,7.989999771118164 -0.14499999582767487,23.624000549316406 -0.14499999582767487,23.624000549316406 C-0.14499999582767487,23.624000549316406 -15.633999824523926,8.178999900817871 -15.633999824523926,8.178999900817871 C-15.633999824523926,8.178999900817871 -15.633999824523926,-23.624000549316406 -15.633999824523926,-23.624000549316406z"></path></g></g><g style="display: block;" transform="matrix(1,0,0,1,0,0)" opacity="1"><g opacity="1" transform="matrix(1,0,0,1,133.89300537109375,192.7239990234375)"><path fill="rgb(0,0,0)" fill-opacity="1" d=" M-23.645999908447266,15.633999824523926 C-23.645999908447266,15.633999824523926 -23.645999908447266,-15.633999824523926 -23.645999908447266,-15.633999824523926 C-23.645999908447266,-15.633999824523926 8.156999588012695,-15.633999824523926 8.156999588012695,-15.633999824523926 C8.156999588012695,-15.633999824523926 23.645999908447266,-0.1889999955892563 23.645999908447266,-0.1889999955892563 C23.645999908447266,-0.1889999955892563 7.98799991607666,15.633999824523926 7.98799991607666,15.633999824523926 C7.98799991607666,15.633999824523926 -23.645999908447266,15.633999824523926 -23.645999908447266,15.633999824523926z"></path><path stroke-linecap="round" stroke-linejoin="round" fill-opacity="0" stroke="rgb(0,0,0)" stroke-opacity="1" stroke-width="5" d=" M-23.645999908447266,15.633999824523926 C-23.645999908447266,15.633999824523926 -23.645999908447266,-15.633999824523926 -23.645999908447266,-15.633999824523926 C-23.645999908447266,-15.633999824523926 8.156999588012695,-15.633999824523926 8.156999588012695,-15.633999824523926 C8.156999588012695,-15.633999824523926 23.645999908447266,-0.1889999955892563 23.645999908447266,-0.1889999955892563 C23.645999908447266,-0.1889999955892563 7.98799991607666,15.633999824523926 7.98799991607666,15.633999824523926 C7.98799991607666,15.633999824523926 -23.645999908447266,15.633999824523926 -23.645999908447266,15.633999824523926z"></path></g></g><g style="display: block;" transform="matrix(1,0,0,1,0,0)" opacity="1"><g opacity="1" transform="matrix(1,0,0,1,181.25799560546875,192.53500366210938)"><path fill="rgb(0,0,0)" fill-opacity="1" d=" M23.7189998626709,15.633999824523926 C23.7189998626709,15.633999824523926 23.7189998626709,-15.633999824523926 23.7189998626709,-15.633999824523926 C23.7189998626709,-15.633999824523926 -7.939000129699707,-15.633999824523926 -7.939000129699707,-15.633999824523926 C-7.939000129699707,-15.633999824523926 -23.7189998626709,0 -23.7189998626709,0 C-23.7189998626709,0 -8.083999633789062,15.633999824523926 -8.083999633789062,15.633999824523926 C-8.083999633789062,15.633999824523926 23.7189998626709,15.633999824523926 23.7189998626709,15.633999824523926z"></path><path stroke-linecap="round" stroke-linejoin="round" fill-opacity="0" stroke="rgb(0,0,0)" stroke-opacity="1" stroke-width="5" d=" M23.7189998626709,15.633999824523926 C23.7189998626709,15.633999824523926 23.7189998626709,-15.633999824523926 23.7189998626709,-15.633999824523926 C23.7189998626709,-15.633999824523926 -7.939000129699707,-15.633999824523926 -7.939000129699707,-15.633999824523926 C-7.939000129699707,-15.633999824523926 -23.7189998626709,0 -23.7189998626709,0 C-23.7189998626709,0 -8.083999633789062,15.633999824523926 -8.083999633789062,15.633999824523926 C-8.083999633789062,15.633999824523926 23.7189998626709,15.633999824523926 23.7189998626709,15.633999824523926z"></path></g></g><g style="display: block;" transform="matrix(1,0,0,1,157.677001953125,187.71600341796875)" opacity="1"><g opacity="1" transform="matrix(1,0,0,1,0,0)"><path stroke-linecap="round" stroke-linejoin="round" fill-opacity="0" stroke="rgb(111,35,2)" stroke-opacity="1" stroke-width="5" d=" M-55.88800048828125,-10.970000267028809 C-50.75199890136719,-37.29199981689453 -27.49799919128418,-57.09199905395508 0.30300000309944153,-56.94300079345703 C15.383999824523926,-56.86199951171875 29.06399917602539,-50.926998138427734 39.20100021362305,-41.303001403808594"></path></g></g><g style="display: block;" transform="matrix(1,0,0,1,157.677001953125,187.71600341796875)" opacity="1"><g opacity="1" transform="matrix(1,0,0,1,0,0)"><path stroke-linecap="round" stroke-linejoin="round" fill-opacity="0" stroke="rgb(187,82,3)" stroke-opacity="1" stroke-width="5" d=" M56.94300079345703,0.30300000309944153 C56.7760009765625,31.75200080871582 31.145999908447266,57.11000061035156 -0.30300000309944153,56.94300079345703 C-10.25,56.88999938964844 -19.589000701904297,54.290000915527344 -27.70199966430664,49.763999938964844"></path></g></g><g style="display: block;" transform="matrix(1,0,0,1,359.4530029296875,194.71600341796875)" opacity="1"><g opacity="1" transform="matrix(1,0,0,1,0,0)"><path fill="url(#__lottie_element_16373)" fill-opacity="1" d=" M71.5530014038086,0 C71.5530014038086,39.516998291015625 39.516998291015625,71.5530014038086 0,71.5530014038086 C-39.516998291015625,71.5530014038086 -71.5530014038086,39.516998291015625 -71.5530014038086,0 C-71.5530014038086,-39.516998291015625 -39.516998291015625,-71.5530014038086 0,-71.5530014038086 C39.516998291015625,-71.5530014038086 71.5530014038086,-39.516998291015625 71.5530014038086,0z"></path><path stroke-linecap="round" stroke-linejoin="round" fill-opacity="0" stroke="rgb(22,22,22)" stroke-opacity="1" stroke-width="8" d=" M71.5530014038086,0 C71.5530014038086,39.516998291015625 39.516998291015625,71.5530014038086 0,71.5530014038086 C-39.516998291015625,71.5530014038086 -71.5530014038086,39.516998291015625 -71.5530014038086,0 C-71.5530014038086,-39.516998291015625 -39.516998291015625,-71.5530014038086 0,-71.5530014038086 C39.516998291015625,-71.5530014038086 71.5530014038086,-39.516998291015625 71.5530014038086,0z"></path></g></g><g style="display: block;" transform="matrix(1,0,0,1,359.4530029296875,194.71600341796875)" opacity="0.1"><g opacity="1" transform="matrix(1,0,0,1,0,0)"><path stroke-linecap="round" stroke-linejoin="round" fill-opacity="0" stroke="rgb(255,255,255)" stroke-opacity="1" stroke-width="8" d=" M-71.5530014038086,0 C-71.5530014038086,0 -71.5530014038086,0 -71.5530014038086,0 C-71.5530014038086,-39.516998291015625 -39.516998291015625,-71.5530014038086 0,-71.5530014038086 C39.516998291015625,-71.5530014038086 71.5530014038086,-39.516998291015625 71.5530014038086,0"></path></g></g><g style="display: block;" transform="matrix(1,0,0,1,359.4530029296875,194.71600341796875)" opacity="0.5"><g opacity="1" transform="matrix(1,0,0,1,0,0)"><path stroke-linecap="round" stroke-linejoin="round" fill-opacity="0" stroke="rgb(255,255,255)" stroke-opacity="1" stroke-width="8" d=" M-55.13399887084961,-45.61000061035156 C-42.0099983215332,-61.457000732421875 -22.18400001525879,-71.5530014038086 0,-71.5530014038086 C7.718999862670898,-71.5530014038086 15.152000427246094,-70.33100128173828 22.117000579833984,-68.06900024414062"></path></g></g><g style="display: block;" transform="matrix(1,0,0,1,359.4530029296875,194.71600341796875)" opacity="1"><g opacity="1" transform="matrix(1,0,0,1,0,0)"><path stroke-linecap="round" stroke-linejoin="round" fill-opacity="0" stroke="rgb(255,255,255)" stroke-opacity="1" stroke-width="6" d=" M-48.98099899291992,-52.15999984741211 C-46.79800033569336,-54.21099853515625 -44.48699951171875,-56.125999450683594 -42.060001373291016,-57.891998291015625"></path></g></g><g style="display: block;" transform="matrix(1,0,0,1,359.4530029296875,194.71600341796875)" opacity="1"><g opacity="1" transform="matrix(1,0,0,1,0,0)"><path stroke-linecap="round" stroke-linejoin="round" fill-opacity="0" stroke="rgb(255,255,255)" stroke-opacity="1" stroke-width="6" d=" M-34.47600173950195,-62.7140007019043 C-33.16600036621094,-63.43600082397461 -31.83099937438965,-64.11799621582031 -30.472000122070312,-64.75900268554688"></path></g></g><g style="display: block;" transform="matrix(1,0,0,1,357.322998046875,187.71600341796875)" opacity="1"><g opacity="1" transform="matrix(1,0,0,1,0,0)"><path fill="rgb(35,35,35)" fill-opacity="1" d=" M56.944000244140625,0 C56.944000244140625,31.448999404907227 31.448999404907227,56.944000244140625 0,56.944000244140625 C-31.448999404907227,56.944000244140625 -56.944000244140625,31.448999404907227 -56.944000244140625,0 C-56.944000244140625,-31.448999404907227 -31.448999404907227,-56.944000244140625 0,-56.944000244140625 C31.448999404907227,-56.944000244140625 56.944000244140625,-31.448999404907227 56.944000244140625,0z"></path><path stroke-linecap="round" stroke-linejoin="round" fill-opacity="0" stroke="rgb(0,0,0)" stroke-opacity="1" stroke-width="5" d=" M56.944000244140625,0 C56.944000244140625,31.448999404907227 31.448999404907227,56.944000244140625 0,56.944000244140625 C-31.448999404907227,56.944000244140625 -56.944000244140625,31.448999404907227 -56.944000244140625,0 C-56.944000244140625,-31.448999404907227 -31.448999404907227,-56.944000244140625 0,-56.944000244140625 C31.448999404907227,-56.944000244140625 56.944000244140625,-31.448999404907227 56.944000244140625,0z"></path></g></g><g style="display: block;" transform="matrix(1,0,0,1,357.322998046875,160.3939971923828)" opacity="1"><g opacity="1" transform="matrix(1,0,0,1,0,0)"><path fill="rgb(0,0,0)" fill-opacity="1" d=" M17.033000946044922,0 C17.033000946044922,9.406999588012695 9.406999588012695,17.033000946044922 0,17.033000946044922 C-9.406999588012695,17.033000946044922 -17.033000946044922,9.406999588012695 -17.033000946044922,0 C-17.033000946044922,-9.406999588012695 -9.406999588012695,-17.033000946044922 0,-17.033000946044922 C9.406999588012695,-17.033000946044922 17.033000946044922,-9.406999588012695 17.033000946044922,0z"></path><path stroke-linecap="round" stroke-linejoin="round" fill-opacity="0" stroke="rgb(0,0,0)" stroke-opacity="1" stroke-width="5" d=" M17.033000946044922,0 C17.033000946044922,9.406999588012695 9.406999588012695,17.033000946044922 0,17.033000946044922 C-9.406999588012695,17.033000946044922 -17.033000946044922,9.406999588012695 -17.033000946044922,0 C-17.033000946044922,-9.406999588012695 -9.406999588012695,-17.033000946044922 0,-17.033000946044922 C9.406999588012695,-17.033000946044922 17.033000946044922,-9.406999588012695 17.033000946044922,0z"></path></g></g><g style="display: block;" transform="matrix(1,0,0,1,389.2640075683594,192.33499145507812)" opacity="1"><g opacity="1" transform="matrix(1,0,0,1,0,0)"><path fill="rgb(0,0,0)" fill-opacity="1" d=" M0,17.033000946044922 C-9.406999588012695,17.033000946044922 -17.033000946044922,9.406999588012695 -17.033000946044922,0 C-17.033000946044922,-9.406999588012695 -9.406999588012695,-17.033000946044922 0,-17.033000946044922 C9.406999588012695,-17.033000946044922 17.033000946044922,-9.406999588012695 17.033000946044922,0 C17.033000946044922,9.406999588012695 9.406999588012695,17.033000946044922 0,17.033000946044922z"></path><path stroke-linecap="round" stroke-linejoin="round" fill-opacity="0" stroke="rgb(0,0,0)" stroke-opacity="1" stroke-width="5" d=" M0,17.033000946044922 C-9.406999588012695,17.033000946044922 -17.033000946044922,9.406999588012695 -17.033000946044922,0 C-17.033000946044922,-9.406999588012695 -9.406999588012695,-17.033000946044922 0,-17.033000946044922 C9.406999588012695,-17.033000946044922 17.033000946044922,-9.406999588012695 17.033000946044922,0 C17.033000946044922,9.406999588012695 9.406999588012695,17.033000946044922 0,17.033000946044922z"></path></g></g><g style="display: block;" transform="matrix(1,0,0,1,325.38201904296875,192.33499145507812)" opacity="1"><g opacity="1" transform="matrix(1,0,0,1,0,0)"><path fill="rgb(0,0,0)" fill-opacity="1" d=" M0,17.033000946044922 C-9.406999588012695,17.033000946044922 -17.033000946044922,9.406999588012695 -17.033000946044922,0 C-17.033000946044922,-9.406999588012695 -9.406999588012695,-17.033000946044922 0,-17.033000946044922 C9.406999588012695,-17.033000946044922 17.033000946044922,-9.406999588012695 17.033000946044922,0 C17.033000946044922,9.406999588012695 9.406999588012695,17.033000946044922 0,17.033000946044922z"></path><path stroke-linecap="round" stroke-linejoin="round" fill-opacity="0" stroke="rgb(0,0,0)" stroke-opacity="1" stroke-width="5" d=" M0,17.033000946044922 C-9.406999588012695,17.033000946044922 -17.033000946044922,9.406999588012695 -17.033000946044922,0 C-17.033000946044922,-9.406999588012695 -9.406999588012695,-17.033000946044922 0,-17.033000946044922 C9.406999588012695,-17.033000946044922 17.033000946044922,-9.406999588012695 17.033000946044922,0 C17.033000946044922,9.406999588012695 9.406999588012695,17.033000946044922 0,17.033000946044922z"></path></g></g><g style="display: block;" transform="matrix(1,0,0,1,357.322998046875,187.71600341796875)" opacity="0.25"><g opacity="1" transform="matrix(1,0,0,1,0,0)"><path stroke-linecap="round" stroke-linejoin="round" fill-opacity="0" stroke="rgb(255,255,255)" stroke-opacity="1" stroke-width="5" d=" M56.944000244140625,0 C56.944000244140625,31.448999404907227 31.448999404907227,56.944000244140625 0,56.944000244140625 C-11.22700023651123,56.944000244140625 -21.69499969482422,53.69499969482422 -30.514999389648438,48.08599853515625"></path></g></g><g style="display: block;" transform="matrix(1,0,0,1,256,247.26699829101562)" opacity="1"><g opacity="1" transform="matrix(1,0,0,1,0,0)"><path fill="rgb(67,68,63)" fill-opacity="1" d=" M17.22100067138672,0 C17.22100067138672,9.51099967956543 9.51099967956543,17.22100067138672 0,17.22100067138672 C-9.51099967956543,17.22100067138672 -17.22100067138672,9.51099967956543 -17.22100067138672,0 C-17.22100067138672,-9.51099967956543 -9.51099967956543,-17.22100067138672 0,-17.22100067138672 C9.51099967956543,-17.22100067138672 17.22100067138672,-9.51099967956543 17.22100067138672,0z"></path><path stroke-linecap="round" stroke-linejoin="round" fill-opacity="0" stroke="rgb(26,26,26)" stroke-opacity="1" stroke-width="8" d=" M17.22100067138672,0 C17.22100067138672,9.51099967956543 9.51099967956543,17.22100067138672 0,17.22100067138672 C-9.51099967956543,17.22100067138672 -17.22100067138672,9.51099967956543 -17.22100067138672,0 C-17.22100067138672,-9.51099967956543 -9.51099967956543,-17.22100067138672 0,-17.22100067138672 C9.51099967956543,-17.22100067138672 17.22100067138672,-9.51099967956543 17.22100067138672,0z"></path></g></g><g style="display: block;" transform="matrix(1,0,0,1,256,247.26699829101562)" opacity="0.6"><g opacity="1" transform="matrix(1,0,0,1,0,0)"><path stroke-linecap="round" stroke-linejoin="round" fill-opacity="0" stroke="rgb(99,99,97)" stroke-opacity="1" stroke-width="8" d=" M-9.227999687194824,-14.541999816894531 C-6.560999870300293,-16.238000869750977 -3.3949999809265137,-17.22100067138672 0,-17.22100067138672 C3.007999897003174,-17.22100067138672 5.836999893188477,-16.450000762939453 8.29800033569336,-15.093999862670898"></path></g></g><g style="display: block;" transform="matrix(1,0,0,1,256,247.26699829101562)" opacity="1"><g opacity="1" transform="matrix(1,0,0,1,0,0)"><path stroke-linecap="round" stroke-linejoin="round" fill-opacity="0" stroke="rgb(188,83,4)" stroke-opacity="1" stroke-width="5" d=" M8.3100004196167,0 C8.3100004196167,4.589000225067139 4.589000225067139,8.3100004196167 0,8.3100004196167 C-4.589000225067139,8.3100004196167 -8.3100004196167,4.589000225067139 -8.3100004196167,0 C-8.3100004196167,-4.589000225067139 -4.589000225067139,-8.3100004196167 0,-8.3100004196167 C4.589000225067139,-8.3100004196167 8.3100004196167,-4.589000225067139 8.3100004196167,0z"></path></g></g><g style="display: block;" transform="matrix(1,0,0,1,195.96800231933594,301.9649963378906)" opacity="1"><g opacity="1" transform="matrix(1,0,0,1,0,0)"><path fill="rgb(37,40,40)" fill-opacity="1" d=" M35.696998596191406,0 C35.696998596191406,19.71500015258789 19.71500015258789,35.696998596191406 0,35.696998596191406 C-19.71500015258789,35.696998596191406 -35.696998596191406,19.71500015258789 -35.696998596191406,0 C-35.696998596191406,-19.71500015258789 -19.71500015258789,-35.696998596191406 0,-35.696998596191406 C19.71500015258789,-35.696998596191406 35.696998596191406,-19.71500015258789 35.696998596191406,0z"></path><path stroke-linecap="round" stroke-linejoin="round" fill-opacity="0" stroke="rgb(22,22,22)" stroke-opacity="1" stroke-width="8" d=" M35.696998596191406,0 C35.696998596191406,19.71500015258789 19.71500015258789,35.696998596191406 0,35.696998596191406 C-19.71500015258789,35.696998596191406 -35.696998596191406,19.71500015258789 -35.696998596191406,0 C-35.696998596191406,-19.71500015258789 -19.71500015258789,-35.696998596191406 0,-35.696998596191406 C19.71500015258789,-35.696998596191406 35.696998596191406,-19.71500015258789 35.696998596191406,0z"></path></g></g><g style="display: block;" transform="matrix(1,0,0,1,316.8659973144531,301.9649963378906)" opacity="1"><g opacity="1" transform="matrix(1,0,0,1,0,0)"><path fill="rgb(37,40,40)" fill-opacity="1" d=" M35.696998596191406,0 C35.696998596191406,19.71500015258789 19.71500015258789,35.696998596191406 0,35.696998596191406 C-19.71500015258789,35.696998596191406 -35.696998596191406,19.71500015258789 -35.696998596191406,0 C-35.696998596191406,-19.71500015258789 -19.71500015258789,-35.696998596191406 0,-35.696998596191406 C19.71500015258789,-35.696998596191406 35.696998596191406,-19.71500015258789 35.696998596191406,0z"></path><path stroke-linecap="round" stroke-linejoin="round" fill-opacity="0" stroke="rgb(22,22,22)" stroke-opacity="1" stroke-width="8" d=" M35.696998596191406,0 C35.696998596191406,19.71500015258789 19.71500015258789,35.696998596191406 0,35.696998596191406 C-19.71500015258789,35.696998596191406 -35.696998596191406,19.71500015258789 -35.696998596191406,0 C-35.696998596191406,-19.71500015258789 -19.71500015258789,-35.696998596191406 0,-35.696998596191406 C19.71500015258789,-35.696998596191406 35.696998596191406,-19.71500015258789 35.696998596191406,0z"></path></g></g><g style="display: block;" transform="matrix(1,0,0,1,357.322998046875,155.3939971923828)" opacity="1"><g opacity="1" transform="matrix(1,0,0,1,0,0)"><path fill="rgb(221,89,0)" fill-opacity="1" d=" M17.033000946044922,0 C17.033000946044922,9.406999588012695 9.406999588012695,17.033000946044922 0,17.033000946044922 C-9.406999588012695,17.033000946044922 -17.033000946044922,9.406999588012695 -17.033000946044922,0 C-17.033000946044922,-9.406999588012695 -9.406999588012695,-17.033000946044922 0,-17.033000946044922 C9.406999588012695,-17.033000946044922 17.033000946044922,-9.406999588012695 17.033000946044922,0z"></path><path stroke-linecap="round" stroke-linejoin="round" fill-opacity="0" stroke="rgb(181,57,2)" stroke-opacity="1" stroke-width="5" d=" M17.033000946044922,0 C17.033000946044922,9.406999588012695 9.406999588012695,17.033000946044922 0,17.033000946044922 C-9.406999588012695,17.033000946044922 -17.033000946044922,9.406999588012695 -17.033000946044922,0 C-17.033000946044922,-9.406999588012695 -9.406999588012695,-17.033000946044922 0,-17.033000946044922 C9.406999588012695,-17.033000946044922 17.033000946044922,-9.406999588012695 17.033000946044922,0z"></path></g></g><g style="display: block;" transform="matrix(1,0,0,1,357.322998046875,155.3939971923828)" opacity="1"><g opacity="1" transform="matrix(1,0,0,1,0,0)"><path fill="rgb(221,89,0)" fill-opacity="1" d=" M17.033000946044922,0 C17.033000946044922,9.406999588012695 9.406999588012695,17.033000946044922 0,17.033000946044922 C-9.406999588012695,17.033000946044922 -17.033000946044922,9.406999588012695 -17.033000946044922,0 C-17.033000946044922,-9.406999588012695 -9.406999588012695,-17.033000946044922 0,-17.033000946044922 C9.406999588012695,-17.033000946044922 17.033000946044922,-9.406999588012695 17.033000946044922,0z"></path><path stroke-linecap="round" stroke-linejoin="round" fill-opacity="0" stroke="rgb(181,57,2)" stroke-opacity="1" stroke-width="5" d=" M17.033000946044922,0 C17.033000946044922,9.406999588012695 9.406999588012695,17.033000946044922 0,17.033000946044922 C-9.406999588012695,17.033000946044922 -17.033000946044922,9.406999588012695 -17.033000946044922,0 C-17.033000946044922,-9.406999588012695 -9.406999588012695,-17.033000946044922 0,-17.033000946044922 C9.406999588012695,-17.033000946044922 17.033000946044922,-9.406999588012695 17.033000946044922,0z"></path></g></g><g style="display: block;" transform="matrix(1,0,0,1,357.322998046875,155.3939971923828)" opacity="0.5"><g opacity="1" transform="matrix(1,0,0,1,0,0)"><path stroke-linecap="round" stroke-linejoin="round" fill-opacity="0" stroke="rgb(255,255,255)" stroke-opacity="1" stroke-width="5" d=" M-16.50200080871582,-4.236999988555908 C-14.618000030517578,-11.593999862670898 -7.943999767303467,-17.033000946044922 0,-17.033000946044922 C0,-17.033000946044922 0,-17.033000946044922 0,-17.033000946044922"></path></g></g><g style="display: block;" transform="matrix(1,0,0,1,389.2640075683594,187.3350067138672)" opacity="1"><g opacity="1" transform="matrix(1,0,0,1,0,0)"><path fill="rgb(221,89,0)" fill-opacity="1" d=" M0,17.033000946044922 C-9.406999588012695,17.033000946044922 -17.033000946044922,9.406999588012695 -17.033000946044922,0 C-17.033000946044922,-9.406999588012695 -9.406999588012695,-17.033000946044922 0,-17.033000946044922 C9.406999588012695,-17.033000946044922 17.033000946044922,-9.406999588012695 17.033000946044922,0 C17.033000946044922,9.406999588012695 9.406999588012695,17.033000946044922 0,17.033000946044922z"></path><path stroke-linecap="round" stroke-linejoin="round" fill-opacity="0" stroke="rgb(181,57,2)" stroke-opacity="1" stroke-width="5" d=" M0,17.033000946044922 C-9.406999588012695,17.033000946044922 -17.033000946044922,9.406999588012695 -17.033000946044922,0 C-17.033000946044922,-9.406999588012695 -9.406999588012695,-17.033000946044922 0,-17.033000946044922 C9.406999588012695,-17.033000946044922 17.033000946044922,-9.406999588012695 17.033000946044922,0 C17.033000946044922,9.406999588012695 9.406999588012695,17.033000946044922 0,17.033000946044922z"></path></g></g><g style="display: block;" transform="matrix(1,0,0,1,389.2640075683594,187.3350067138672)" opacity="1"><g opacity="1" transform="matrix(1,0,0,1,0,0)"><path fill="rgb(221,89,0)" fill-opacity="1" d=" M0,17.033000946044922 C-9.406999588012695,17.033000946044922 -17.033000946044922,9.406999588012695 -17.033000946044922,0 C-17.033000946044922,-9.406999588012695 -9.406999588012695,-17.033000946044922 0,-17.033000946044922 C9.406999588012695,-17.033000946044922 17.033000946044922,-9.406999588012695 17.033000946044922,0 C17.033000946044922,9.406999588012695 9.406999588012695,17.033000946044922 0,17.033000946044922z"></path><path stroke-linecap="round" stroke-linejoin="round" fill-opacity="0" stroke="rgb(181,57,2)" stroke-opacity="1" stroke-width="5" d=" M0,17.033000946044922 C-9.406999588012695,17.033000946044922 -17.033000946044922,9.406999588012695 -17.033000946044922,0 C-17.033000946044922,-9.406999588012695 -9.406999588012695,-17.033000946044922 0,-17.033000946044922 C9.406999588012695,-17.033000946044922 17.033000946044922,-9.406999588012695 17.033000946044922,0 C17.033000946044922,9.406999588012695 9.406999588012695,17.033000946044922 0,17.033000946044922z"></path></g></g><g style="display: block;" transform="matrix(1,0,0,1,389.2640075683594,187.3350067138672)" opacity="0.5"><g opacity="1" transform="matrix(1,0,0,1,0,0)"><path stroke-linecap="round" stroke-linejoin="round" fill-opacity="0" stroke="rgb(255,255,255)" stroke-opacity="1" stroke-width="5" d=" M-16.899999618530273,-2.134999990463257 C-15.937000274658203,-9.835000038146973 -9.835000038146973,-15.937000274658203 -2.134999990463257,-16.899999618530273"></path></g></g><g style="display: block;" transform="matrix(1,0,0,1,325.38201904296875,187.3350067138672)" opacity="1"><g opacity="1" transform="matrix(1,0,0,1,0,0)"><path fill="rgb(135,135,132)" fill-opacity="1" d=" M0,17.033000946044922 C-9.406999588012695,17.033000946044922 -17.033000946044922,9.406999588012695 -17.033000946044922,0 C-17.033000946044922,-9.406999588012695 -9.406999588012695,-17.033000946044922 0,-17.033000946044922 C9.406999588012695,-17.033000946044922 17.033000946044922,-9.406999588012695 17.033000946044922,0 C17.033000946044922,9.406999588012695 9.406999588012695,17.033000946044922 0,17.033000946044922z"></path><path stroke-linecap="round" stroke-linejoin="round" fill-opacity="0" stroke="rgb(96,96,94)" stroke-opacity="1" stroke-width="5" d=" M0,17.033000946044922 C-9.406999588012695,17.033000946044922 -17.033000946044922,9.406999588012695 -17.033000946044922,0 C-17.033000946044922,-9.406999588012695 -9.406999588012695,-17.033000946044922 0,-17.033000946044922 C9.406999588012695,-17.033000946044922 17.033000946044922,-9.406999588012695 17.033000946044922,0 C17.033000946044922,9.406999588012695 9.406999588012695,17.033000946044922 0,17.033000946044922z"></path></g></g><g style="display: block;" transform="matrix(1,0,0,1,325.38201904296875,187.3350067138672)" opacity="1"><g opacity="1" transform="matrix(1,0,0,1,0,0)"><path fill="rgb(135,135,132)" fill-opacity="1" d=" M0,17.033000946044922 C-9.406999588012695,17.033000946044922 -17.033000946044922,9.406999588012695 -17.033000946044922,0 C-17.033000946044922,-9.406999588012695 -9.406999588012695,-17.033000946044922 0,-17.033000946044922 C9.406999588012695,-17.033000946044922 17.033000946044922,-9.406999588012695 17.033000946044922,0 C17.033000946044922,9.406999588012695 9.406999588012695,17.033000946044922 0,17.033000946044922z"></path><path stroke-linecap="round" stroke-linejoin="round" fill-opacity="0" stroke="rgb(96,96,94)" stroke-opacity="1" stroke-width="5" d=" M0,17.033000946044922 C-9.406999588012695,17.033000946044922 -17.033000946044922,9.406999588012695 -17.033000946044922,0 C-17.033000946044922,-9.406999588012695 -9.406999588012695,-17.033000946044922 0,-17.033000946044922 C9.406999588012695,-17.033000946044922 17.033000946044922,-9.406999588012695 17.033000946044922,0 C17.033000946044922,9.406999588012695 9.406999588012695,17.033000946044922 0,17.033000946044922z"></path></g></g><g style="display: block;" transform="matrix(1,0,0,1,325.38201904296875,187.3350067138672)" opacity="0.5"><g opacity="1" transform="matrix(1,0,0,1,0,0)"><path stroke-linecap="round" stroke-linejoin="round" fill-opacity="0" stroke="rgb(255,255,255)" stroke-opacity="1" stroke-width="5" d=" M-16.899999618530273,-2.134999990463257 C-15.937000274658203,-9.835000038146973 -9.835000038146973,-15.937000274658203 -2.134999990463257,-16.899999618530273"></path></g></g><g style="display: block;" transform="matrix(1,0,0,1,357.322998046875,219.2760009765625)" opacity="1"><g opacity="1" transform="matrix(1,0,0,1,0,0)"><path fill="rgb(135,135,132)" fill-opacity="1" d=" M17.033000946044922,0 C17.033000946044922,9.406999588012695 9.406999588012695,17.033000946044922 0,17.033000946044922 C-9.406999588012695,17.033000946044922 -17.033000946044922,9.406999588012695 -17.033000946044922,0 C-17.033000946044922,-9.406999588012695 -9.406999588012695,-17.033000946044922 0,-17.033000946044922 C9.406999588012695,-17.033000946044922 17.033000946044922,-9.406999588012695 17.033000946044922,0z"></path><path stroke-linecap="round" stroke-linejoin="round" fill-opacity="0" stroke="rgb(96,96,94)" stroke-opacity="1" stroke-width="5" d=" M17.033000946044922,0 C17.033000946044922,9.406999588012695 9.406999588012695,17.033000946044922 0,17.033000946044922 C-9.406999588012695,17.033000946044922 -17.033000946044922,9.406999588012695 -17.033000946044922,0 C-17.033000946044922,-9.406999588012695 -9.406999588012695,-17.033000946044922 0,-17.033000946044922 C9.406999588012695,-17.033000946044922 17.033000946044922,-9.406999588012695 17.033000946044922,0z"></path></g></g><g style="display: block;" transform="matrix(1,0,0,1,357.322998046875,219.2760009765625)" opacity="1"><g opacity="1" transform="matrix(1,0,0,1,0,0)"><path fill="rgb(135,135,132)" fill-opacity="1" d=" M17.033000946044922,0 C17.033000946044922,9.406999588012695 9.406999588012695,17.033000946044922 0,17.033000946044922 C-9.406999588012695,17.033000946044922 -17.033000946044922,9.406999588012695 -17.033000946044922,0 C-17.033000946044922,-9.406999588012695 -9.406999588012695,-17.033000946044922 0,-17.033000946044922 C9.406999588012695,-17.033000946044922 17.033000946044922,-9.406999588012695 17.033000946044922,0z"></path><path stroke-linecap="round" stroke-linejoin="round" fill-opacity="0" stroke="rgb(96,96,94)" stroke-opacity="1" stroke-width="5" d=" M17.033000946044922,0 C17.033000946044922,9.406999588012695 9.406999588012695,17.033000946044922 0,17.033000946044922 C-9.406999588012695,17.033000946044922 -17.033000946044922,9.406999588012695 -17.033000946044922,0 C-17.033000946044922,-9.406999588012695 -9.406999588012695,-17.033000946044922 0,-17.033000946044922 C9.406999588012695,-17.033000946044922 17.033000946044922,-9.406999588012695 17.033000946044922,0z"></path></g></g><g style="display: block;" transform="matrix(1,0,0,1,357.322998046875,219.2760009765625)" opacity="0.5"><g opacity="1" transform="matrix(1,0,0,1,0,0)"><path stroke-linecap="round" stroke-linejoin="round" fill-opacity="0" stroke="rgb(255,255,255)" stroke-opacity="1" stroke-width="5" d=" M-16.50200080871582,-4.236999988555908 C-14.618000030517578,-11.593999862670898 -7.943999767303467,-17.033000946044922 0,-17.033000946044922 C0,-17.033000946044922 0,-17.033000946044922 0,-17.033000946044922"></path></g></g><g style="display: block;" transform="matrix(1,0,0,1,0,0)" opacity="1"><g opacity="1" transform="matrix(1,0,0,1,157.68299865722656,163.91099548339844)"><path fill="rgb(98,103,96)" fill-opacity="1" d=" M-15.633999824523926,-23.624000549316406 C-15.633999824523926,-23.624000549316406 15.633999824523926,-23.624000549316406 15.633999824523926,-23.624000549316406 C15.633999824523926,-23.624000549316406 15.633999824523926,7.989999771118164 15.633999824523926,7.989999771118164 C15.633999824523926,7.989999771118164 -0.14499999582767487,23.624000549316406 -0.14499999582767487,23.624000549316406 C-0.14499999582767487,23.624000549316406 -15.633999824523926,8.178999900817871 -15.633999824523926,8.178999900817871 C-15.633999824523926,8.178999900817871 -15.633999824523926,-23.624000549316406 -15.633999824523926,-23.624000549316406z"></path><path stroke-linecap="round" stroke-linejoin="round" fill-opacity="0" stroke="rgb(22,22,22)" stroke-opacity="1" stroke-width="5" d=" M-15.633999824523926,-23.624000549316406 C-15.633999824523926,-23.624000549316406 15.633999824523926,-23.624000549316406 15.633999824523926,-23.624000549316406 C15.633999824523926,-23.624000549316406 15.633999824523926,7.989999771118164 15.633999824523926,7.989999771118164 C15.633999824523926,7.989999771118164 -0.14499999582767487,23.624000549316406 -0.14499999582767487,23.624000549316406 C-0.14499999582767487,23.624000549316406 -15.633999824523926,8.178999900817871 -15.633999824523926,8.178999900817871 C-15.633999824523926,8.178999900817871 -15.633999824523926,-23.624000549316406 -15.633999824523926,-23.624000549316406z"></path></g></g><g style="display: block;" transform="matrix(1,0,0,1,0,0)" opacity="1"><g opacity="1" transform="matrix(1,0,0,1,157.68299865722656,163.91099548339844)"><path fill="rgb(98,103,96)" fill-opacity="1" d=" M-15.633999824523926,-23.624000549316406 C-15.633999824523926,-23.624000549316406 15.633999824523926,-23.624000549316406 15.633999824523926,-23.624000549316406 C15.633999824523926,-23.624000549316406 15.633999824523926,7.989999771118164 15.633999824523926,7.989999771118164 C15.633999824523926,7.989999771118164 -0.14499999582767487,23.624000549316406 -0.14499999582767487,23.624000549316406 C-0.14499999582767487,23.624000549316406 -15.633999824523926,8.178999900817871 -15.633999824523926,8.178999900817871 C-15.633999824523926,8.178999900817871 -15.633999824523926,-23.624000549316406 -15.633999824523926,-23.624000549316406z"></path><path stroke-linecap="round" stroke-linejoin="round" fill-opacity="0" stroke="rgb(22,22,22)" stroke-opacity="1" stroke-width="5" d=" M-15.633999824523926,-23.624000549316406 C-15.633999824523926,-23.624000549316406 15.633999824523926,-23.624000549316406 15.633999824523926,-23.624000549316406 C15.633999824523926,-23.624000549316406 15.633999824523926,7.989999771118164 15.633999824523926,7.989999771118164 C15.633999824523926,7.989999771118164 -0.14499999582767487,23.624000549316406 -0.14499999582767487,23.624000549316406 C-0.14499999582767487,23.624000549316406 -15.633999824523926,8.178999900817871 -15.633999824523926,8.178999900817871 C-15.633999824523926,8.178999900817871 -15.633999824523926,-23.624000549316406 -15.633999824523926,-23.624000549316406z"></path></g></g><g style="display: block;" transform="matrix(1,0,0,1,0,5)" opacity="0.2"><g opacity="1" transform="matrix(1,0,0,1,157.68299865722656,163.91099548339844)"><path stroke-linecap="round" stroke-linejoin="round" fill-opacity="0" stroke="rgb(255,255,255)" stroke-opacity="1" stroke-width="5" d=" M-15.633999824523926,-23.624000549316406 C-15.633999824523926,-23.624000549316406 10.17300033569336,-23.624000549316406 14.895999908447266,-23.624000549316406"></path></g></g><g style="display: block;" transform="matrix(1,0,0,1,0,0)" opacity="1"><g opacity="1" transform="matrix(1,0,0,1,133.89100646972656,187.7239990234375)"><path fill="rgb(98,103,96)" fill-opacity="1" d=" M-23.645999908447266,15.633999824523926 C-23.645999908447266,15.633999824523926 -23.645999908447266,-15.633999824523926 -23.645999908447266,-15.633999824523926 C-23.645999908447266,-15.633999824523926 8.156999588012695,-15.633999824523926 8.156999588012695,-15.633999824523926 C8.156999588012695,-15.633999824523926 23.645999908447266,-0.1889999955892563 23.645999908447266,-0.1889999955892563 C23.645999908447266,-0.1889999955892563 7.98799991607666,15.633999824523926 7.98799991607666,15.633999824523926 C7.98799991607666,15.633999824523926 -23.645999908447266,15.633999824523926 -23.645999908447266,15.633999824523926z"></path><path stroke-linecap="round" stroke-linejoin="round" fill-opacity="0" stroke="rgb(22,22,22)" stroke-opacity="1" stroke-width="5" d=" M-23.645999908447266,15.633999824523926 C-23.645999908447266,15.633999824523926 -23.645999908447266,-15.633999824523926 -23.645999908447266,-15.633999824523926 C-23.645999908447266,-15.633999824523926 8.156999588012695,-15.633999824523926 8.156999588012695,-15.633999824523926 C8.156999588012695,-15.633999824523926 23.645999908447266,-0.1889999955892563 23.645999908447266,-0.1889999955892563 C23.645999908447266,-0.1889999955892563 7.98799991607666,15.633999824523926 7.98799991607666,15.633999824523926 C7.98799991607666,15.633999824523926 -23.645999908447266,15.633999824523926 -23.645999908447266,15.633999824523926z"></path></g></g><g style="display: block;" transform="matrix(1,0,0,1,0,0)" opacity="1"><g opacity="1" transform="matrix(1,0,0,1,133.89100646972656,187.7239990234375)"><path fill="rgb(98,103,96)" fill-opacity="1" d=" M-23.645999908447266,15.633999824523926 C-23.645999908447266,15.633999824523926 -23.645999908447266,-15.633999824523926 -23.645999908447266,-15.633999824523926 C-23.645999908447266,-15.633999824523926 8.156999588012695,-15.633999824523926 8.156999588012695,-15.633999824523926 C8.156999588012695,-15.633999824523926 23.645999908447266,-0.1889999955892563 23.645999908447266,-0.1889999955892563 C23.645999908447266,-0.1889999955892563 7.98799991607666,15.633999824523926 7.98799991607666,15.633999824523926 C7.98799991607666,15.633999824523926 -23.645999908447266,15.633999824523926 -23.645999908447266,15.633999824523926z"></path><path stroke-linecap="round" stroke-linejoin="round" fill-opacity="0" stroke="rgb(22,22,22)" stroke-opacity="1" stroke-width="5" d=" M-23.645999908447266,15.633999824523926 C-23.645999908447266,15.633999824523926 -23.645999908447266,-15.633999824523926 -23.645999908447266,-15.633999824523926 C-23.645999908447266,-15.633999824523926 8.156999588012695,-15.633999824523926 8.156999588012695,-15.633999824523926 C8.156999588012695,-15.633999824523926 23.645999908447266,-0.1889999955892563 23.645999908447266,-0.1889999955892563 C23.645999908447266,-0.1889999955892563 7.98799991607666,15.633999824523926 7.98799991607666,15.633999824523926 C7.98799991607666,15.633999824523926 -23.645999908447266,15.633999824523926 -23.645999908447266,15.633999824523926z"></path></g></g><g style="display: block;" transform="matrix(1,0,0,1,0,5)" opacity="0.2"><g opacity="1" transform="matrix(1,0,0,1,133.89100646972656,187.7239990234375)"><path stroke-linecap="round" stroke-linejoin="round" fill-opacity="0" stroke="rgb(255,255,255)" stroke-opacity="1" stroke-width="5" d=" M-21.593000411987305,-15.633999824523926 C-14.555999755859375,-15.633999824523926 8.156999588012695,-15.633999824523926 8.156999588012695,-15.633999824523926 C8.156999588012695,-15.633999824523926 17.249000549316406,-6.567999839782715 21.500999450683594,-2.328000068664551"></path></g></g><g style="display: block;" transform="matrix(1,0,0,1,0,0)" opacity="1"><g opacity="1" transform="matrix(1,0,0,1,181.25599670410156,187.53500366210938)"><path fill="rgb(98,103,96)" fill-opacity="1" d=" M23.7189998626709,15.633999824523926 C23.7189998626709,15.633999824523926 23.7189998626709,-15.633999824523926 23.7189998626709,-15.633999824523926 C23.7189998626709,-15.633999824523926 -7.939000129699707,-15.633999824523926 -7.939000129699707,-15.633999824523926 C-7.939000129699707,-15.633999824523926 -23.7189998626709,0 -23.7189998626709,0 C-23.7189998626709,0 -8.083999633789062,15.633999824523926 -8.083999633789062,15.633999824523926 C-8.083999633789062,15.633999824523926 23.7189998626709,15.633999824523926 23.7189998626709,15.633999824523926z"></path><path stroke-linecap="round" stroke-linejoin="round" fill-opacity="0" stroke="rgb(22,22,22)" stroke-opacity="1" stroke-width="5" d=" M23.7189998626709,15.633999824523926 C23.7189998626709,15.633999824523926 23.7189998626709,-15.633999824523926 23.7189998626709,-15.633999824523926 C23.7189998626709,-15.633999824523926 -7.939000129699707,-15.633999824523926 -7.939000129699707,-15.633999824523926 C-7.939000129699707,-15.633999824523926 -23.7189998626709,0 -23.7189998626709,0 C-23.7189998626709,0 -8.083999633789062,15.633999824523926 -8.083999633789062,15.633999824523926 C-8.083999633789062,15.633999824523926 23.7189998626709,15.633999824523926 23.7189998626709,15.633999824523926z"></path></g></g><g style="display: block;" transform="matrix(1,0,0,1,0,0)" opacity="1"><g opacity="1" transform="matrix(1,0,0,1,181.25599670410156,187.53500366210938)"><path fill="rgb(98,103,96)" fill-opacity="1" d=" M23.7189998626709,15.633999824523926 C23.7189998626709,15.633999824523926 23.7189998626709,-15.633999824523926 23.7189998626709,-15.633999824523926 C23.7189998626709,-15.633999824523926 -7.939000129699707,-15.633999824523926 -7.939000129699707,-15.633999824523926 C-7.939000129699707,-15.633999824523926 -23.7189998626709,0 -23.7189998626709,0 C-23.7189998626709,0 -8.083999633789062,15.633999824523926 -8.083999633789062,15.633999824523926 C-8.083999633789062,15.633999824523926 23.7189998626709,15.633999824523926 23.7189998626709,15.633999824523926z"></path><path stroke-linecap="round" stroke-linejoin="round" fill-opacity="0" stroke="rgb(22,22,22)" stroke-opacity="1" stroke-width="5" d=" M23.7189998626709,15.633999824523926 C23.7189998626709,15.633999824523926 23.7189998626709,-15.633999824523926 23.7189998626709,-15.633999824523926 C23.7189998626709,-15.633999824523926 -7.939000129699707,-15.633999824523926 -7.939000129699707,-15.633999824523926 C-7.939000129699707,-15.633999824523926 -23.7189998626709,0 -23.7189998626709,0 C-23.7189998626709,0 -8.083999633789062,15.633999824523926 -8.083999633789062,15.633999824523926 C-8.083999633789062,15.633999824523926 23.7189998626709,15.633999824523926 23.7189998626709,15.633999824523926z"></path></g></g><g style="display: block;" transform="matrix(1,0,0,1,0,5)" opacity="0.2"><g opacity="1" transform="matrix(1,0,0,1,181.25599670410156,187.53500366210938)"><path stroke-linecap="round" stroke-linejoin="round" fill-opacity="0" stroke="rgb(255,255,255)" stroke-opacity="1" stroke-width="5" d=" M23.7189998626709,-14.958000183105469 C23.7189998626709,-15.395000457763672 23.7189998626709,-15.633999824523926 23.7189998626709,-15.633999824523926 C23.7189998626709,-15.633999824523926 -7.939000129699707,-15.633999824523926 -7.939000129699707,-15.633999824523926 C-7.939000129699707,-15.633999824523926 -21.56999969482422,-2.128999948501587 -23.493999481201172,-0.22300000488758087"></path></g></g><g style="display: block;" transform="matrix(1,0,0,1,0,0)" opacity="1"><g opacity="1" transform="matrix(1,0,0,1,157.53700256347656,211.25399780273438)"><path fill="rgb(98,103,96)" fill-opacity="1" d=" M-15.633999824523926,23.7189998626709 C-15.633999824523926,23.7189998626709 15.633999824523926,23.7189998626709 15.633999824523926,23.7189998626709 C15.633999824523926,23.7189998626709 15.633999824523926,-8.083999633789062 15.633999824523926,-8.083999633789062 C15.633999824523926,-8.083999633789062 0,-23.7189998626709 0,-23.7189998626709 C0,-23.7189998626709 -15.633999824523926,-7.895999908447266 -15.633999824523926,-7.895999908447266 C-15.633999824523926,-7.895999908447266 -15.633999824523926,23.7189998626709 -15.633999824523926,23.7189998626709z"></path><path stroke-linecap="round" stroke-linejoin="round" fill-opacity="0" stroke="rgb(22,22,22)" stroke-opacity="1" stroke-width="5" d=" M-15.633999824523926,23.7189998626709 C-15.633999824523926,23.7189998626709 15.633999824523926,23.7189998626709 15.633999824523926,23.7189998626709 C15.633999824523926,23.7189998626709 15.633999824523926,-8.083999633789062 15.633999824523926,-8.083999633789062 C15.633999824523926,-8.083999633789062 0,-23.7189998626709 0,-23.7189998626709 C0,-23.7189998626709 -15.633999824523926,-7.895999908447266 -15.633999824523926,-7.895999908447266 C-15.633999824523926,-7.895999908447266 -15.633999824523926,23.7189998626709 -15.633999824523926,23.7189998626709z"></path></g></g><g style="display: block;" transform="matrix(1,0,0,1,0,0)" opacity="1"><g opacity="1" transform="matrix(1,0,0,1,157.53700256347656,211.25399780273438)"><path fill="rgb(98,103,96)" fill-opacity="1" d=" M-15.633999824523926,23.7189998626709 C-15.633999824523926,23.7189998626709 15.633999824523926,23.7189998626709 15.633999824523926,23.7189998626709 C15.633999824523926,23.7189998626709 15.633999824523926,-8.083999633789062 15.633999824523926,-8.083999633789062 C15.633999824523926,-8.083999633789062 0,-23.7189998626709 0,-23.7189998626709 C0,-23.7189998626709 -15.633999824523926,-7.895999908447266 -15.633999824523926,-7.895999908447266 C-15.633999824523926,-7.895999908447266 -15.633999824523926,23.7189998626709 -15.633999824523926,23.7189998626709z"></path><path stroke-linecap="round" stroke-linejoin="round" fill-opacity="0" stroke="rgb(22,22,22)" stroke-opacity="1" stroke-width="5" d=" M-15.633999824523926,23.7189998626709 C-15.633999824523926,23.7189998626709 15.633999824523926,23.7189998626709 15.633999824523926,23.7189998626709 C15.633999824523926,23.7189998626709 15.633999824523926,-8.083999633789062 15.633999824523926,-8.083999633789062 C15.633999824523926,-8.083999633789062 0,-23.7189998626709 0,-23.7189998626709 C0,-23.7189998626709 -15.633999824523926,-7.895999908447266 -15.633999824523926,-7.895999908447266 C-15.633999824523926,-7.895999908447266 -15.633999824523926,23.7189998626709 -15.633999824523926,23.7189998626709z"></path></g></g><g style="display: block;" transform="matrix(1,0,0,1,0,5)" opacity="0.2"><g opacity="1" transform="matrix(1,0,0,1,157.53700256347656,211.25399780273438)"><path stroke-linecap="round" stroke-linejoin="round" fill-opacity="0" stroke="rgb(255,255,255)" stroke-opacity="1" stroke-width="5" d=" M14.02400016784668,-9.694999694824219 C10.031999588012695,-13.687000274658203 0,-23.7189998626709 0,-23.7189998626709 C0,-23.7189998626709 -10.710000038146973,-12.880000114440918 -14.401000022888184,-9.144000053405762"></path></g></g><g style="display: block;" transform="matrix(1,0,0,1,316.8659973144531,301.96600341796875)" opacity="1"><g opacity="1" transform="matrix(1,0,0,1,0,0)"><path fill="rgb(27,29,29)" fill-opacity="1" d=" M-104.54299926757812,-15.545000076293945 C-104.54299926757812,-15.545000076293945 -132.31700134277344,-16.023000717163086 -132.31700134277344,-16.023000717163086 C-132.31700134277344,-16.023000717163086 -131.61500549316406,-4.2870001792907715 -131.02099609375,8.076000213623047 C-124.61000061035156,13.774999618530273 -110.3290023803711,14.689000129699707 -102.0979995727539,7.144999980926514 C-103.46600341796875,-3.821000099182129 -104.54299926757812,-15.545000076293945 -104.54299926757812,-15.545000076293945z"></path><path stroke-linecap="round" stroke-linejoin="round" fill-opacity="0" stroke="rgb(22,22,22)" stroke-opacity="1" stroke-width="8" d=" M-104.54299926757812,-15.545000076293945 C-104.54299926757812,-15.545000076293945 -132.31700134277344,-16.023000717163086 -132.31700134277344,-16.023000717163086 C-132.31700134277344,-16.023000717163086 -131.61500549316406,-4.2870001792907715 -131.02099609375,8.076000213623047 C-124.61000061035156,13.774999618530273 -110.3290023803711,14.689000129699707 -102.0979995727539,7.144999980926514 C-103.46600341796875,-3.821000099182129 -104.54299926757812,-15.545000076293945 -104.54299926757812,-15.545000076293945z"></path></g></g><g style="display: block;" transform="matrix(1,0,0,1,198.0590057373047,291.84100341796875)" opacity="1"><g opacity="1" transform="matrix(1,0,0,1,0,0)"><path fill="url(#__lottie_element_16252)" fill-opacity="1" d=" M0,-24.350000381469727 C-13.425999641418457,-24.350000381469727 -24.350000381469727,-13.425999641418457 -24.350000381469727,0.0010000000474974513 C-24.350000381469727,13.428000450134277 -13.425999641418457,24.350000381469727 0,24.350000381469727 C13.425999641418457,24.350000381469727 24.350000381469727,13.428000450134277 24.350000381469727,0.0010000000474974513 C24.350000381469727,-13.425999641418457 13.425999641418457,-24.350000381469727 0,-24.350000381469727z"></path></g></g><g style="display: block;" transform="matrix(1,0,0,1,198.0590057373047,291.8399963378906)" opacity="1"><g opacity="1" transform="matrix(1,0,0,1,0,0)"><path fill="url(#__lottie_element_16248)" fill-opacity="1" d=" M0,32.349998474121094 C-17.836999893188477,32.349998474121094 -32.349998474121094,17.839000701904297 -32.349998474121094,0.0010000000474974513 C-32.349998474121094,-17.836999893188477 -17.836999893188477,-32.349998474121094 0,-32.349998474121094 C17.836999893188477,-32.349998474121094 32.349998474121094,-17.836999893188477 32.349998474121094,0.0010000000474974513 C32.349998474121094,17.839000701904297 17.836999893188477,32.349998474121094 0,32.349998474121094z M0,-24.350000381469727 C-13.425999641418457,-24.350000381469727 -24.350000381469727,-13.425999641418457 -24.350000381469727,0.0010000000474974513 C-24.350000381469727,13.428000450134277 -13.425999641418457,24.350000381469727 0,24.350000381469727 C13.425999641418457,24.350000381469727 24.350000381469727,13.428000450134277 24.350000381469727,0.0010000000474974513 C24.350000381469727,-13.425999641418457 13.425999641418457,-24.350000381469727 0,-24.350000381469727z"></path></g></g><g style="display: block;" transform="matrix(1,0,0,1,316.8659973144531,301.96600341796875)" opacity="1"><g opacity="1" transform="matrix(1,0,0,1,0,0)"><path fill="rgb(27,29,29)" fill-opacity="1" d=" M10.888999938964844,-10.109999656677246 C10.888999938964844,-10.109999656677246 -16.034000396728516,-9.444000244140625 -16.034000396728516,-9.444000244140625 C-16.034000396728516,-9.444000244140625 -16.795000076293945,1.652999997138977 -15.006999969482422,13.017999649047852 C-11.114999771118164,19.41200065612793 4.289000034332275,20.034000396728516 11.196999549865723,13.166000366210938 C12.472999572753906,1.3420000076293945 10.888999938964844,-10.109999656677246 10.888999938964844,-10.109999656677246z"></path><path stroke-linecap="round" stroke-linejoin="round" fill-opacity="0" stroke="rgb(22,22,22)" stroke-opacity="1" stroke-width="8" d=" M10.888999938964844,-10.109999656677246 C10.888999938964844,-10.109999656677246 -16.034000396728516,-9.444000244140625 -16.034000396728516,-9.444000244140625 C-16.034000396728516,-9.444000244140625 -16.795000076293945,1.652999997138977 -15.006999969482422,13.017999649047852 C-11.114999771118164,19.41200065612793 4.289000034332275,20.034000396728516 11.196999549865723,13.166000366210938 C12.472999572753906,1.3420000076293945 10.888999938964844,-10.109999656677246 10.888999938964844,-10.109999656677246z"></path></g></g><g style="display: block;" transform="matrix(1,0,0,1,313.9410095214844,291.84100341796875)" opacity="1"><g opacity="1" transform="matrix(1,0,0,1,0,0)"><path fill="url(#__lottie_element_16241)" fill-opacity="1" d=" M0,-24.350000381469727 C-13.425999641418457,-24.350000381469727 -24.350000381469727,-13.425999641418457 -24.350000381469727,0.0010000000474974513 C-24.350000381469727,13.428000450134277 -13.425999641418457,24.350000381469727 0,24.350000381469727 C13.425999641418457,24.350000381469727 24.350000381469727,13.428000450134277 24.350000381469727,0.0010000000474974513 C24.350000381469727,-13.425999641418457 13.425999641418457,-24.350000381469727 0,-24.350000381469727z"></path></g></g><g style="display: block;" transform="matrix(1,0,0,1,313.9410095214844,291.8399963378906)" opacity="1"><g opacity="1" transform="matrix(1,0,0,1,0,0)"><path fill="url(#__lottie_element_16237)" fill-opacity="1" d=" M0,32.349998474121094 C-17.836999893188477,32.349998474121094 -32.349998474121094,17.839000701904297 -32.349998474121094,0.0010000000474974513 C-32.349998474121094,-17.836999893188477 -17.836999893188477,-32.349998474121094 0,-32.349998474121094 C17.836999893188477,-32.349998474121094 32.349998474121094,-17.836999893188477 32.349998474121094,0.0010000000474974513 C32.349998474121094,17.839000701904297 17.836999893188477,32.349998474121094 0,32.349998474121094z M0,-24.350000381469727 C-13.425999641418457,-24.350000381469727 -24.350000381469727,-13.425999641418457 -24.350000381469727,0.0010000000474974513 C-24.350000381469727,13.428000450134277 -13.425999641418457,24.350000381469727 0,24.350000381469727 C13.425999641418457,24.350000381469727 24.350000381469727,13.428000450134277 24.350000381469727,0.0010000000474974513 C24.350000381469727,-13.425999641418457 13.425999641418457,-24.350000381469727 0,-24.350000381469727z"></path></g></g><g style="display: block;" transform="matrix(1,0,0,1,313.9410095214844,291.8399963378906)" opacity="1"><g opacity="1" transform="matrix(1,0,0,1,0,0)"><path stroke-linecap="round" stroke-linejoin="round" fill-opacity="0" stroke="rgb(255,255,255)" stroke-opacity="1" stroke-width="6" d=" M-10.364999771118164,-22.031999588012695 C-12.687999725341797,-20.934999465942383 -14.8100004196167,-19.481000900268555 -16.660999298095703,-17.742000579833984"></path></g></g></g></svg>