<svg xmlns="http://www.w3.org/2000/svg" viewBox="0 0 512 512" width="512" height="512" style="width: 100%; height: 100%; transform: translate3d(0,0,0);" preserveAspectRatio="xMidYMid meet"><defs><clipPath id="__lottie_element_16553"><rect width="512" height="512" x="0" y="0"></rect></clipPath></defs><g clip-path="url(#__lottie_element_16553)"><g style="display: block;" transform="matrix(0.999998927116394,0,0,0.999998927116394,259.9997253417969,256.0003662109375)" opacity="1"><g opacity="1" transform="matrix(1,0,0,1,0,0)"><path fill="rgb(253,174,0)" fill-opacity="1" d=" M45.36600112915039,-167.43800354003906 C67.22899627685547,-189.53399658203125 134.49600219726562,-227.9239959716797 147.9409942626953,-220.60499572753906 C162.03799438476562,-212.93099975585938 158.0590057373047,-102.24800109863281 146.83099365234375,-50.2400016784668 C135.60299682617188,1.7680000066757202 -5.618000030517578,-115.91200256347656 45.36600112915039,-167.43800354003906z"></path><path stroke-linecap="butt" stroke-linejoin="miter" fill-opacity="0" stroke-miterlimit="10" stroke="rgb(172,90,0)" stroke-opacity="1" stroke-width="8" d=" M45.36600112915039,-167.43800354003906 C67.22899627685547,-189.53399658203125 134.49600219726562,-227.9239959716797 147.9409942626953,-220.60499572753906 C162.03799438476562,-212.93099975585938 158.0590057373047,-102.24800109863281 146.83099365234375,-50.2400016784668 C135.60299682617188,1.7680000066757202 -5.618000030517578,-115.91200256347656 45.36600112915039,-167.43800354003906z"></path></g><g opacity="1" transform="matrix(1,0,0,1,0,0)"><path fill="rgb(189,97,0)" fill-opacity="1" d=" M71.15699768066406,-166.7100067138672 C85.0459976196289,-180.7469940185547 127.7770004272461,-205.13499450683594 136.3179931640625,-200.48500061035156 C145.2729949951172,-195.61000061035156 145.60499572753906,-147.85000610351562 138.4720001220703,-114.81099700927734 C131.33999633789062,-81.77300262451172 38.76900100708008,-133.97799682617188 71.15699768066406,-166.7100067138672z"></path></g></g><g style="display: block;" transform="matrix(0.999998927116394,0,0,0.999998927116394,259.99932861328125,256.0003662109375)" opacity="1"><g opacity="1" transform="matrix(1,0,0,1,0,0)"><path fill="rgb(253,174,0)" fill-opacity="1" d=" M-54.75,-167.43800354003906 C-76.61299896240234,-189.53399658203125 -143.8800048828125,-227.9239959716797 -157.3249969482422,-220.60499572753906 C-171.4219970703125,-212.93099975585938 -170.4429931640625,-95.74800109863281 -159.21499633789062,-43.7400016784668 C-147.98699951171875,8.267999649047852 -3.7660000324249268,-115.91200256347656 -54.75,-167.43800354003906z"></path><path stroke-linecap="butt" stroke-linejoin="miter" fill-opacity="0" stroke-miterlimit="10" stroke="rgb(172,90,0)" stroke-opacity="1" stroke-width="8" d=" M-54.75,-167.43800354003906 C-76.61299896240234,-189.53399658203125 -143.8800048828125,-227.9239959716797 -157.3249969482422,-220.60499572753906 C-171.4219970703125,-212.93099975585938 -170.4429931640625,-95.74800109863281 -159.21499633789062,-43.7400016784668 C-147.98699951171875,8.267999649047852 -3.7660000324249268,-115.91200256347656 -54.75,-167.43800354003906z"></path></g><g opacity="1" transform="matrix(1,0,0,1,0,0)"><path fill="rgb(189,97,0)" fill-opacity="1" d=" M-80.54100036621094,-166.7100067138672 C-94.43000030517578,-180.7469940185547 -137.16099548339844,-205.13499450683594 -145.70199584960938,-200.48500061035156 C-154.65699768066406,-195.61000061035156 -154.98800659179688,-147.85000610351562 -147.8560028076172,-114.81099700927734 C-140.7239990234375,-81.77300262451172 -48.15299987792969,-133.97799682617188 -80.54100036621094,-166.7100067138672z"></path></g></g><g style="display: block;" transform="matrix(1,0,0,1,260,256)" opacity="1"><g opacity="0.1" transform="matrix(1,0,0,1,0,0)"><path fill="rgb(0,0,0)" fill-opacity="1" d=" M190.01600646972656,8.802000045776367 C185.51199340820312,-17.840999603271484 166.48500061035156,-91.63500213623047 120.11399841308594,-130.29299926757812 C91.28099822998047,-154.3300018310547 52.04100036621094,-167.87399291992188 -3.9489998817443848,-167.87399291992188 C-4.123000144958496,-167.87399291992188 -4.639999866485596,-167.87399291992188 -4.814000129699707,-167.87399291992188 C-60.80400085449219,-167.87399291992188 -100.04399871826172,-154.3300018310547 -128.8769989013672,-130.29299926757812 C-175.24899291992188,-91.63500213623047 -194.27499389648438,-17.840999603271484 -198.7790069580078,8.802000045776367 C-202.57699584960938,31.273000717163086 -202.94700622558594,57.87799835205078 -193.71600341796875,79.10800170898438 C-163.98399353027344,147.49000549316406 -49.54600143432617,206.98599243164062 -4.814000129699707,206.98599243164062 C-4.639999866485596,206.98599243164062 -4.123000144958496,206.98599243164062 -3.9489998817443848,206.98599243164062 C39.91699981689453,206.98599243164062 155.22000122070312,147.49000549316406 184.95199584960938,79.10800170898438 C194.1820068359375,57.87799835205078 193.81399536132812,31.273000717163086 190.01600646972656,8.802000045776367z"></path></g><g opacity="1" transform="matrix(1,0,0,1,0,0)"><path fill="rgb(255,189,0)" fill-opacity="1" d=" M179.9080047607422,-4.638999938964844 C175.63800048828125,-29.895999908447266 157.6009979248047,-99.85399627685547 113.64099884033203,-136.5019989013672 C86.30699920654297,-159.28900146484375 49.106998443603516,-172.12899780273438 -3.9719998836517334,-172.12899780273438 C-4.13700008392334,-172.12899780273438 -4.626999855041504,-172.12899780273438 -4.791999816894531,-172.12899780273438 C-57.87099838256836,-172.12899780273438 -95.06999969482422,-159.28900146484375 -122.40399932861328,-136.5019989013672 C-166.36500549316406,-99.85399627685547 -184.40199279785156,-29.895999908447266 -188.6719970703125,-4.638999938964844 C-192.2729949951172,16.663999557495117 -192.6230010986328,41.8849983215332 -183.8719940185547,62.01100158691406 C-155.68600463867188,126.83699798583984 -47.198001861572266,183.24099731445312 -4.791999816894531,183.24099731445312 C-4.626999855041504,183.24099731445312 -4.13700008392334,183.24099731445312 -3.9719998836517334,183.24099731445312 C37.61399841308594,183.24099731445312 146.9219970703125,126.83699798583984 175.10800170898438,62.01100158691406 C183.85800170898438,41.8849983215332 183.50900268554688,16.663999557495117 179.9080047607422,-4.638999938964844z"></path></g><g opacity="1" transform="matrix(1,0,0,1,0,0)"><path fill="rgb(255,223,0)" fill-opacity="1" d=" M162.51300048828125,-3.6760001182556152 C158.64599609375,-26.548999786376953 142.31100463867188,-89.90399932861328 102.5,-123.09300231933594 C77.74600219726562,-143.72900390625 44.058998107910156,-155.35699462890625 -4.010000228881836,-155.35699462890625 C-4.158999919891357,-155.35699462890625 -4.603000164031982,-155.35699462890625 -4.752999782562256,-155.35699462890625 C-52.821998596191406,-155.35699462890625 -86.51000213623047,-143.72900390625 -111.26399993896484,-123.09300231933594 C-151.0749969482422,-89.90399932861328 -167.41000366210938,-26.548999786376953 -171.27699279785156,-3.6760001182556152 C-174.53799438476562,15.616000175476074 -174.85499572753906,38.45500183105469 -166.92999267578125,56.68199920654297 C-141.4040069580078,115.38899993896484 -43.15599822998047,166.47000122070312 -4.752999782562256,166.47000122070312 C-4.603000164031982,166.47000122070312 -4.158999919891357,166.47000122070312 -4.010000228881836,166.47000122070312 C33.650001525878906,166.47000122070312 132.63999938964844,115.38899993896484 158.16600036621094,56.68199920654297 C166.08999633789062,38.45500183105469 165.7740020751953,15.616000175476074 162.51300048828125,-3.6760001182556152z"></path></g><g opacity="1" transform="matrix(1,0,0,1,0,0)"><g opacity="1" transform="matrix(1,0,0,1,0,0)"><path fill="rgb(255,189,0)" fill-opacity="1" d=" M94.5999984741211,66.37799835205078 C94.5999984741211,66.37799835205078 60.220001220703125,98.58399963378906 45.71900177001953,172.67599487304688 C45.71900177001953,172.67599487304688 86.3479995727539,146.51400756835938 86.3479995727539,146.51400756835938 C86.3479995727539,146.51400756835938 94.5999984741211,66.37799835205078 94.5999984741211,66.37799835205078z"></path></g><g opacity="1" transform="matrix(1,0,0,1,0,0)"><path fill="rgb(255,189,0)" fill-opacity="1" d=" M-103.37100219726562,66.37799835205078 C-103.37100219726562,66.37799835205078 -68.98999786376953,98.58399963378906 -54.48899841308594,172.67599487304688 C-54.48899841308594,172.67599487304688 -95.11799621582031,146.51400756835938 -95.11799621582031,146.51400756835938 C-95.11799621582031,146.51400756835938 -103.37100219726562,66.37799835205078 -103.37100219726562,66.37799835205078z"></path></g></g><g opacity="1" transform="matrix(1,0,0,1,0,0)"><path stroke-linecap="butt" stroke-linejoin="miter" fill-opacity="0" stroke-miterlimit="10" stroke="rgb(211,120,0)" stroke-opacity="1" stroke-width="8" d=" M179.9080047607422,-4.638999938964844 C175.63800048828125,-29.895999908447266 157.6009979248047,-99.85399627685547 113.64099884033203,-136.5019989013672 C86.30699920654297,-159.28900146484375 49.106998443603516,-172.12899780273438 -3.9719998836517334,-172.12899780273438 C-4.13700008392334,-172.12899780273438 -4.626999855041504,-172.12899780273438 -4.791999816894531,-172.12899780273438 C-57.87099838256836,-172.12899780273438 -95.06999969482422,-159.28900146484375 -122.40399932861328,-136.5019989013672 C-166.36500549316406,-99.85399627685547 -184.40199279785156,-29.895999908447266 -188.6719970703125,-4.638999938964844 C-192.2729949951172,16.663999557495117 -192.6230010986328,41.8849983215332 -183.8719940185547,62.01100158691406 C-155.68600463867188,126.83699798583984 -47.198001861572266,183.24099731445312 -4.791999816894531,183.24099731445312 C-4.626999855041504,183.24099731445312 -4.13700008392334,183.24099731445312 -3.9719998836517334,183.24099731445312 C37.61399841308594,183.24099731445312 146.9219970703125,126.83699798583984 175.10800170898438,62.01100158691406 C183.85800170898438,41.8849983215332 183.50900268554688,16.663999557495117 179.9080047607422,-4.638999938964844z"></path></g><g opacity="0.9" transform="matrix(1,0,0,1,0,0)"><path fill="rgb(255,234,89)" fill-opacity="1" d=" M118.8550033569336,-22.554000854492188 C133.70599365234375,-37.404998779296875 128.59300231933594,-95.71800231933594 92.50499725341797,-125.8030014038086 C70.06600189208984,-144.50900268554688 39.52799987792969,-155.0500030517578 -4.045000076293945,-155.0500030517578 C-4.179999828338623,-155.0500030517578 -4.583000183105469,-155.0500030517578 -4.718999862670898,-155.0500030517578 C-48.292999267578125,-155.0500030517578 -78.83000183105469,-144.50900268554688 -101.26899719238281,-125.8030014038086 C-137.35800170898438,-95.71800231933594 -143.6750030517578,-37.981998443603516 -128.2469940185547,-22.554000854492188 C-111.04399871826172,-5.35099983215332 -78.47200012207031,-37.301998138427734 -4.692999839782715,-37.290000915527344 C69.29299926757812,-37.27799987792969 101.27400207519531,-4.9730000495910645 118.8550033569336,-22.554000854492188z"></path></g><g opacity="1" transform="matrix(1,0,0,1,0,0)"><g opacity="1" transform="matrix(1,0,0,1,0,0)"><path stroke-linecap="round" stroke-linejoin="round" fill-opacity="0" stroke="rgb(255,255,255)" stroke-opacity="1" stroke-width="6" d=" M41.91400146484375,-151.21400451660156 C43.43000030517578,-150.89500427246094 45.00199890136719,-150.54200744628906 46.624000549316406,-150.1529998779297"></path></g><g opacity="1" transform="matrix(1,0,0,1,0,0)"><path stroke-linecap="round" stroke-linejoin="round" fill-opacity="0" stroke="rgb(255,255,255)" stroke-opacity="1" stroke-width="6" d=" M20.8799991607666,-154.20799255371094 C20.8799991607666,-154.20799255371094 25.66900062561035,-153.99899291992188 33.277000427246094,-152.802001953125"></path></g></g></g><g style="display: block;" transform="matrix(0.999998927116394,0,0,0.999998927116394,260,255.9999542236328)" opacity="1"><g opacity="1" transform="matrix(1,0,0,1,0,0)"><path fill="rgb(255,189,0)" fill-opacity="1" d=" M-4.300000190734863,148.59800720214844 C-4.300000190734863,148.59800720214844 -10.069999694824219,148.59800720214844 -10.069999694824219,148.59800720214844 C-31.957000732421875,148.59800720214844 -49.69900131225586,130.85499572753906 -49.69900131225586,108.96800231933594 C-49.69900131225586,108.96800231933594 -49.69900131225586,84.89900207519531 -49.69900131225586,84.89900207519531 C-49.69900131225586,63.012001037597656 -31.957000732421875,45.27000045776367 -10.069999694824219,45.27000045776367 C-10.069999694824219,45.27000045776367 -4.300000190734863,45.27000045776367 -4.300000190734863,45.27000045776367 C17.586999893188477,45.27000045776367 35.33000183105469,63.012001037597656 35.33000183105469,84.89900207519531 C35.33000183105469,84.89900207519531 35.33000183105469,108.96800231933594 35.33000183105469,108.96800231933594 C35.33000183105469,130.85499572753906 17.586999893188477,148.59800720214844 -4.300000190734863,148.59800720214844z"></path></g><g opacity="1" transform="matrix(1,0,0,1,0,0)"><path fill="rgb(255,232,157)" fill-opacity="1" d=" M-4.300000190734863,161.59800720214844 C-4.300000190734863,161.59800720214844 -10.069999694824219,161.59800720214844 -10.069999694824219,161.59800720214844 C-31.957000732421875,161.59800720214844 -49.69900131225586,144.85499572753906 -49.69900131225586,122.96800231933594 C-49.69900131225586,122.96800231933594 -49.69900131225586,98.89900207519531 -49.69900131225586,98.89900207519531 C-49.69900131225586,77.01200103759766 -31.957000732421875,59.27000045776367 -10.069999694824219,59.27000045776367 C-10.069999694824219,59.27000045776367 -4.300000190734863,59.27000045776367 -4.300000190734863,59.27000045776367 C17.586999893188477,59.27000045776367 35.33000183105469,77.01200103759766 35.33000183105469,98.89900207519531 C35.33000183105469,98.89900207519531 35.33000183105469,122.96800231933594 35.33000183105469,122.96800231933594 C35.33000183105469,144.85499572753906 17.586999893188477,161.59800720214844 -4.300000190734863,161.59800720214844z"></path></g><g opacity="1" transform="matrix(1,0,0,1,0,0)"><path fill="rgb(79,48,29)" fill-opacity="1" d=" M-4.300000190734863,154.59800720214844 C-4.300000190734863,154.59800720214844 -10.069999694824219,154.59800720214844 -10.069999694824219,154.59800720214844 C-31.957000732421875,154.59800720214844 -49.69900131225586,136.85499572753906 -49.69900131225586,114.96800231933594 C-49.69900131225586,114.96800231933594 -49.69900131225586,90.89900207519531 -49.69900131225586,90.89900207519531 C-49.69900131225586,69.01200103759766 -31.957000732421875,51.27000045776367 -10.069999694824219,51.27000045776367 C-10.069999694824219,51.27000045776367 -4.300000190734863,51.27000045776367 -4.300000190734863,51.27000045776367 C17.586999893188477,51.27000045776367 35.33000183105469,69.01200103759766 35.33000183105469,90.89900207519531 C35.33000183105469,90.89900207519531 35.33000183105469,114.96800231933594 35.33000183105469,114.96800231933594 C35.33000183105469,136.85499572753906 17.586999893188477,154.59800720214844 -4.300000190734863,154.59800720214844z"></path></g><g opacity="1" transform="matrix(1,0,0,1,0,0)"><path fill="rgb(18,14,11)" fill-opacity="1" d=" M35.33399963378906,90.89900207519531 C35.33399963378906,90.89900207519531 35.33399963378906,101.55899810791016 35.33399963378906,101.55899810791016 C35.33399963378906,79.67900085449219 17.584999084472656,61.92900085449219 -4.295000076293945,61.92900085449219 C-4.295000076293945,61.92900085449219 -10.0649995803833,61.92900085449219 -10.0649995803833,61.92900085449219 C-31.954999923706055,61.92900085449219 -49.69499969482422,79.67900085449219 -49.69499969482422,101.55899810791016 C-49.69499969482422,101.55899810791016 -49.69499969482422,90.89900207519531 -49.69499969482422,90.89900207519531 C-49.69499969482422,69.00900268554688 -31.954999923706055,51.26900100708008 -10.0649995803833,51.26900100708008 C-10.0649995803833,51.26900100708008 -4.295000076293945,51.26900100708008 -4.295000076293945,51.26900100708008 C17.584999084472656,51.26900100708008 35.33399963378906,69.00900268554688 35.33399963378906,90.89900207519531z"></path></g></g><g style="display: block;" transform="matrix(0.999998927116394,0,0,0.999998927116394,260,255.9999542236328)" opacity="1"><g opacity="1" transform="matrix(1,0,0,1,0,0)"><path fill="rgb(114,79,52)" fill-opacity="1" d=" M-4.010000228881836,-13.670000076293945 C-17.506000518798828,-13.670000076293945 -34.82600021362305,-9.781999588012695 -34.82600021362305,2.5950000286102295 C-34.82600021362305,14.972000122070312 -16.91900062561035,36.250999450683594 -4.010000228881836,36.250999450683594 C8.89900016784668,36.250999450683594 26.805999755859375,14.972000122070312 26.805999755859375,2.5950000286102295 C26.805999755859375,-9.781999588012695 9.486000061035156,-13.670000076293945 -4.010000228881836,-13.670000076293945z"></path></g><g opacity="1" transform="matrix(1,0,0,1,0,0)"><path fill="rgb(53,44,36)" fill-opacity="1" d=" M-11.022000312805176,34.49100112915039 C-11.022000312805176,34.49100112915039 -11.031999588012695,34.49100112915039 -11.041999816894531,34.500999450683594 C-17.07200050354004,31.701000213623047 -23.302000045776367,25.910999298095703 -27.86199951171875,19.551000595092773 C-27.86199951171875,19.551000595092773 -27.86199951171875,19.541000366210938 -27.86199951171875,19.541000366210938 C-27.86199951171875,19.541000366210938 -21.2189998626709,13.33899974822998 -14.482000350952148,20.981000900268555 C-10.123000144958496,25.926000595092773 -11.022000312805176,34.49100112915039 -11.022000312805176,34.49100112915039z"></path></g><g opacity="1" transform="matrix(1,0,0,1,0,0)"><path fill="rgb(156,122,87)" fill-opacity="1" d=" M16.551000595092773,-0.5879999995231628 C16.551000595092773,4.826000213623047 7.3460001945495605,9.215999603271484 -4.010000228881836,9.215999603271484 C-15.366000175476074,9.215999603271484 -24.570999145507812,4.826000213623047 -24.570999145507812,-0.5879999995231628 C-24.570999145507812,-6.001999855041504 -15.366000175476074,-10.390999794006348 -4.010000228881836,-10.390999794006348 C7.3460001945495605,-10.390999794006348 16.551000595092773,-6.001999855041504 16.551000595092773,-0.5879999995231628z"></path></g><g opacity="1" transform="matrix(1,0,0,1,0,0)"><path fill="rgb(53,44,36)" fill-opacity="1" d=" M19.54800033569336,19.97100067138672 C14.807999610900879,26.430999755859375 8.39799976348877,32.24100112915039 2.2679998874664307,34.83100128173828 C2.2679998874664307,34.83100128173828 2.257999897003174,34.83100128173828 2.257999897003174,34.83100128173828 C2.257999897003174,34.83100128173828 1.2829999923706055,27.19499969482422 5.9029998779296875,21.44499969482422 C11.666999816894531,14.270999908447266 19.54800033569336,19.97100067138672 19.54800033569336,19.97100067138672z"></path></g></g><g style="display: block;" transform="matrix(0.9534589648246765,0,0,0.9534589648246765,264.9439392089844,223.03573608398438)" opacity="1"><g opacity="1" transform="matrix(1,0,0,1,0,0)"><path fill="rgb(208,208,208)" fill-opacity="1" d=" M-131.531005859375,-55.00400161743164 C-146.78500366210938,-23.634000778198242 -138.93299865722656,11.626999855041504 -113.99400329589844,23.753000259399414 C-89.05500030517578,35.87900161743164 -56.4739990234375,20.280000686645508 -41.220001220703125,-11.09000015258789 C-25.965999603271484,-42.459999084472656 -33.81700134277344,-77.72100067138672 -58.75600051879883,-89.84700012207031 C-83.69499969482422,-101.9729995727539 -116.2770004272461,-86.3740005493164 -131.531005859375,-55.00400161743164z"></path><path stroke-linecap="butt" stroke-linejoin="miter" fill-opacity="0" stroke-miterlimit="10" stroke="rgb(90,85,79)" stroke-opacity="1" stroke-width="8" d=" M-131.531005859375,-55.00400161743164 C-146.78500366210938,-23.634000778198242 -138.93299865722656,11.626999855041504 -113.99400329589844,23.753000259399414 C-89.05500030517578,35.87900161743164 -56.4739990234375,20.280000686645508 -41.220001220703125,-11.09000015258789 C-25.965999603271484,-42.459999084472656 -33.81700134277344,-77.72100067138672 -58.75600051879883,-89.84700012207031 C-83.69499969482422,-101.9729995727539 -116.2770004272461,-86.3740005493164 -131.531005859375,-55.00400161743164z"></path></g><g opacity="1" transform="matrix(1,0,0,1,0,0)"><path fill="rgb(255,255,255)" fill-opacity="1" d=" M-123.5250015258789,-47.15399932861328 C-135.58299255371094,-22.354999542236328 -129.2469940185547,5.583000183105469 -109.37200164794922,15.246999740600586 C-89.49700164794922,24.910999298095703 -63.61000061035156,12.642999649047852 -51.55099868774414,-12.156000137329102 C-39.49300003051758,-36.95500183105469 -45.83000183105469,-64.89299774169922 -65.70500183105469,-74.55699920654297 C-85.58000183105469,-84.22100067138672 -111.46700286865234,-71.9530029296875 -123.5250015258789,-47.15399932861328z"></path></g></g><g style="display: block;" transform="matrix(-0.9534589648246765,0,0,0.9534589648246765,246.25205993652344,223.03573608398438)" opacity="1"><g opacity="1" transform="matrix(1,0,0,1,0,0)"><path fill="rgb(208,208,208)" fill-opacity="1" d=" M-131.531005859375,-55.00400161743164 C-146.78500366210938,-23.634000778198242 -138.93299865722656,11.626999855041504 -113.99400329589844,23.753000259399414 C-89.05500030517578,35.87900161743164 -56.4739990234375,20.280000686645508 -41.220001220703125,-11.09000015258789 C-25.965999603271484,-42.459999084472656 -33.81700134277344,-77.72100067138672 -58.75600051879883,-89.84700012207031 C-83.69499969482422,-101.9729995727539 -116.2770004272461,-86.3740005493164 -131.531005859375,-55.00400161743164z"></path><path stroke-linecap="butt" stroke-linejoin="miter" fill-opacity="0" stroke-miterlimit="10" stroke="rgb(90,85,79)" stroke-opacity="1" stroke-width="8" d=" M-131.531005859375,-55.00400161743164 C-146.78500366210938,-23.634000778198242 -138.93299865722656,11.626999855041504 -113.99400329589844,23.753000259399414 C-89.05500030517578,35.87900161743164 -56.4739990234375,20.280000686645508 -41.220001220703125,-11.09000015258789 C-25.965999603271484,-42.459999084472656 -33.81700134277344,-77.72100067138672 -58.75600051879883,-89.84700012207031 C-83.69499969482422,-101.9729995727539 -116.2770004272461,-86.3740005493164 -131.531005859375,-55.00400161743164z"></path></g><g opacity="1" transform="matrix(1,0,0,1,0,0)"><path fill="rgb(255,255,255)" fill-opacity="1" d=" M-123.5250015258789,-47.15399932861328 C-135.58299255371094,-22.354999542236328 -129.2469940185547,5.583000183105469 -109.37200164794922,15.246999740600586 C-89.49700164794922,24.910999298095703 -63.61000061035156,12.642999649047852 -51.55099868774414,-12.156000137329102 C-39.49300003051758,-36.95500183105469 -45.83000183105469,-64.89299774169922 -65.70500183105469,-74.55699920654297 C-85.58000183105469,-84.22100067138672 -111.46700286865234,-71.9530029296875 -123.5250015258789,-47.15399932861328z"></path></g></g><g style="display: block;" transform="matrix(1.0499999523162842,0,0,1.0499999523162842,253.62744140625,253.1292724609375)" opacity="1"><g opacity="1" transform="matrix(1,0,0,1,0,0)"><path fill="rgb(255,189,0)" fill-opacity="1" d=" M-80.4209976196289,104.44000244140625 C-89.46900177001953,77.55000305175781 -104.37300109863281,46.518001556396484 -132.42799377441406,38.52299880981445 C-160.48300170898438,30.527999877929688 -175.39700317382812,49.547000885009766 -166.60899353027344,72.48200225830078 C-157.03700256347656,97.46199798583984 -151.71200561523438,107.48300170898438 -157.31500244140625,139.70599365234375 C-160.8209991455078,159.8679962158203 -173.4980010986328,188.50599670410156 -132.8800048828125,198.9499969482422 C-101.19100189208984,207.09800720214844 -73.52999877929688,194.01100158691406 -69.98400115966797,176.13499450683594 C-67.14299774169922,161.80999755859375 -73.78199768066406,124.16999816894531 -80.4209976196289,104.44000244140625z"></path><path stroke-linecap="butt" stroke-linejoin="miter" fill-opacity="0" stroke-miterlimit="10" stroke="rgb(211,120,0)" stroke-opacity="1" stroke-width="8" d=" M-80.4209976196289,104.44000244140625 C-89.46900177001953,77.55000305175781 -104.37300109863281,46.518001556396484 -132.42799377441406,38.52299880981445 C-160.48300170898438,30.527999877929688 -175.39700317382812,49.547000885009766 -166.60899353027344,72.48200225830078 C-157.03700256347656,97.46199798583984 -151.71200561523438,107.48300170898438 -157.31500244140625,139.70599365234375 C-160.8209991455078,159.8679962158203 -173.4980010986328,188.50599670410156 -132.8800048828125,198.9499969482422 C-101.19100189208984,207.09800720214844 -73.52999877929688,194.01100158691406 -69.98400115966797,176.13499450683594 C-67.14299774169922,161.80999755859375 -73.78199768066406,124.16999816894531 -80.4209976196289,104.44000244140625z"></path></g><g opacity="1" transform="matrix(1,0,0,1,0,0)"><path fill="rgb(255,223,0)" fill-opacity="1" d=" M-92.48200225830078,107.11599731445312 C-99.88300323486328,85.12000274658203 -113.12300109863281,67.54199981689453 -130.08200073242188,63.402000427246094 C-147.57699584960938,59.13100051879883 -153.63800048828125,70.01799774169922 -146.98300170898438,88.9739990234375 C-142.76699829101562,100.98300170898438 -141.6699981689453,108.61100006103516 -144.38099670410156,135.96400451660156 C-146.03199768066406,152.6230010986328 -158.62899780273438,176.89700317382812 -127.39299774169922,184.60699462890625 C-101.65599822998047,190.9600067138672 -85.84400177001953,181.20399475097656 -82.94400024414062,166.58099365234375 C-80.62000274658203,154.86300659179688 -87.052001953125,123.25499725341797 -92.48200225830078,107.11599731445312z"></path></g></g><g style="display: block;" transform="matrix(1.0499999523162842,0,0,1.0499999523162842,259.8739013671875,253.1292724609375)" opacity="1"><g opacity="1" transform="matrix(1,0,0,1,0,0)"><path fill="rgb(255,189,0)" fill-opacity="1" d=" M78.33300018310547,104.44000244140625 C87.38099670410156,77.55000305175781 102.28600311279297,46.518001556396484 130.34100341796875,38.52299880981445 C158.39599609375,30.527999877929688 173.3090057373047,49.547000885009766 164.52099609375,72.48200225830078 C154.94900512695312,97.46199798583984 149.625,107.48300170898438 155.22799682617188,139.70599365234375 C158.73399353027344,159.8679962158203 171.41099548339844,188.50599670410156 130.79299926757812,198.9499969482422 C99.10399627685547,207.09800720214844 71.44300079345703,194.01100158691406 67.89700317382812,176.13499450683594 C65.05599975585938,161.80999755859375 71.69400024414062,124.16999816894531 78.33300018310547,104.44000244140625z"></path><path stroke-linecap="butt" stroke-linejoin="miter" fill-opacity="0" stroke-miterlimit="10" stroke="rgb(211,120,0)" stroke-opacity="1" stroke-width="8" d=" M78.33300018310547,104.44000244140625 C87.38099670410156,77.55000305175781 102.28600311279297,46.518001556396484 130.34100341796875,38.52299880981445 C158.39599609375,30.527999877929688 173.3090057373047,49.547000885009766 164.52099609375,72.48200225830078 C154.94900512695312,97.46199798583984 149.625,107.48300170898438 155.22799682617188,139.70599365234375 C158.73399353027344,159.8679962158203 171.41099548339844,188.50599670410156 130.79299926757812,198.9499969482422 C99.10399627685547,207.09800720214844 71.44300079345703,194.01100158691406 67.89700317382812,176.13499450683594 C65.05599975585938,161.80999755859375 71.69400024414062,124.16999816894531 78.33300018310547,104.44000244140625z"></path></g><g opacity="1" transform="matrix(1,0,0,1,0,0)"><path fill="rgb(255,223,0)" fill-opacity="1" d=" M90.39399719238281,107.11599731445312 C97.79499816894531,85.12000274658203 111.03600311279297,67.54199981689453 127.99500274658203,63.402000427246094 C145.49000549316406,59.13100051879883 151.55099487304688,70.01799774169922 144.89599609375,88.9739990234375 C140.67999267578125,100.98300170898438 139.58299255371094,108.61100006103516 142.29400634765625,135.96400451660156 C143.94500732421875,152.6230010986328 156.54200744628906,176.89700317382812 125.30599975585938,184.60699462890625 C99.56900024414062,190.9600067138672 83.75700378417969,181.20399475097656 80.85700225830078,166.58099365234375 C78.53299713134766,154.86300659179688 84.96399688720703,123.25499725341797 90.39399719238281,107.11599731445312z"></path></g></g><g style="display: block;" transform="matrix(0.999998927116394,0,0,0.999998927116394,260,255.9999542236328)" opacity="1"><g opacity="1" transform="matrix(1,0,0,1,0,0)"><path fill="rgb(56,43,38)" fill-opacity="1" d=" M71.13400268554688,14.289999961853027 C98.08899688720703,-2.5199999809265137 152.06700134277344,-11.838000297546387 194.89599609375,9.215999603271484 C151.12600708007812,-2.4600000381469727 108.677001953125,0.5910000205039978 71.13400268554688,14.289999961853027z"></path></g><g opacity="1" transform="matrix(1,0,0,1,0,0)"><path fill="rgb(56,43,38)" fill-opacity="1" d=" M73.12000274658203,23.055999755859375 C107.1510009765625,6.829999923706055 170.28199768066406,2.8010001182556152 216.43699645996094,34.500999450683594 C168.781005859375,12.45300006866455 118.69000244140625,10.61299991607666 73.12000274658203,23.055999755859375z"></path></g><g opacity="1" transform="matrix(1,0,0,1,0,0)"><path fill="rgb(56,43,38)" fill-opacity="1" d=" M75.66000366210938,34.500999450683594 C112.91400146484375,17.594999313354492 178.49899291992188,17.88599967956543 220.30299377441406,60.180999755859375 C176.0800018310547,28.023000717163086 125.5770034790039,21.520999908447266 75.66000366210938,34.500999450683594z"></path></g></g><g style="display: block;" transform="matrix(0.999998927116394,0,0,0.999998927116394,260,255.9999542236328)" opacity="1"><g opacity="1" transform="matrix(1,0,0,1,0,0)"><path fill="rgb(56,43,38)" fill-opacity="1" d=" M-79.01399993896484,14.291000366210938 C-116.63300323486328,0.5640000104904175 -158.8979949951172,-2.48799991607666 -202.7760009765625,9.215999603271484 C-160.093994140625,-11.763999938964844 -106.06500244140625,-2.5789999961853027 -79.01399993896484,14.291000366210938z"></path></g><g opacity="1" transform="matrix(1,0,0,1,0,0)"><path fill="rgb(56,43,38)" fill-opacity="1" d=" M-81,23.055999755859375 C-126.35900115966797,10.670000076293945 -176.39700317382812,12.331000328063965 -224.3159942626953,34.500999450683594 C-178.5760040283203,3.0840001106262207 -115.45500183105469,6.627999782562256 -81,23.055999755859375z"></path></g><g opacity="1" transform="matrix(1,0,0,1,0,0)"><path fill="rgb(56,43,38)" fill-opacity="1" d=" M-83.54000091552734,34.500999450683594 C-132.51300048828125,21.76799964904785 -183.58799743652344,27.75200080871582 -228.18299865722656,60.180999755859375 C-186.56300354003906,18.069000244140625 -120.90299987792969,17.545000076293945 -83.54000091552734,34.500999450683594z"></path></g></g></g></svg>