<svg xmlns="http://www.w3.org/2000/svg" viewBox="0 0 512 512" width="512" height="512" style="width: 100%; height: 100%; transform: translate3d(0,0,0);" preserveAspectRatio="xMidYMid meet"><defs><clipPath id="__lottie_element_16592"><rect width="512" height="512" x="0" y="0"></rect></clipPath></defs><g clip-path="url(#__lottie_element_16592)"><g style="display: block;" transform="matrix(1.0499999523162842,0,0,1.0499999523162842,240.0500030517578,260)" opacity="1"><g opacity="0.1" transform="matrix(1,0,0,1,0,0)"><path fill="rgb(0,0,0)" fill-opacity="1" d=" M213.7779998779297,13.557000160217285 C213.7779998779297,121.81800079345703 126.01499938964844,209.58099365234375 17.753999710083008,209.58099365234375 C-90.50700378417969,209.58099365234375 -178.27099609375,121.81800079345703 -178.27099609375,13.557000160217285 C-178.27099609375,-94.7040023803711 -90.50700378417969,-182.46800231933594 17.753999710083008,-182.46800231933594 C126.01499938964844,-182.46800231933594 213.7779998779297,-94.7040023803711 213.7779998779297,13.557000160217285z"></path></g><g opacity="1" transform="matrix(1,0,0,1,0,0)"><path fill="rgb(255,177,57)" fill-opacity="1" d=" M206.62899780273438,-1.4429999589920044 C206.62899780273438,102.87000274658203 122.06700134277344,187.4320068359375 17.753999710083008,187.4320068359375 C-86.55899810791016,187.4320068359375 -171.1219940185547,102.87000274658203 -171.1219940185547,-1.4429999589920044 C-171.1219940185547,-105.75599670410156 -86.55899810791016,-190.31900024414062 17.753999710083008,-190.31900024414062 C122.06700134277344,-190.31900024414062 206.62899780273438,-105.75599670410156 206.62899780273438,-1.4429999589920044z"></path></g><g opacity="1" transform="matrix(1,0,0,1,0,0)"><path fill="rgb(255,209,64)" fill-opacity="1" d=" M186.16099548339844,-0.7300000190734863 C184.70399475097656,94.2979965209961 108.1500015258789,170.17799377441406 15.17199993133545,168.7530059814453 C-77.80599975585938,167.3280029296875 -151.9980010986328,89.13800048828125 -150.54200744628906,-5.890999794006348 C-149.0850067138672,-100.91999816894531 -72.53099822998047,-176.8000030517578 20.44700050354004,-175.375 C113.42500305175781,-173.9499969482422 187.6179962158203,-95.75900268554688 186.16099548339844,-0.7300000190734863z"></path></g><g opacity="0.9" transform="matrix(1,0,0,1,0,0)"><path fill="rgb(255,223,121)" fill-opacity="1" d=" M167.02099609375,-43.87200164794922 C167.02099609375,28.770999908447266 100.19200134277344,-28.69300079345703 17.753999710083008,-28.69300079345703 C-64.68399810791016,-28.69300079345703 -131.51400756835938,28.770999908447266 -131.51400756835938,-43.87200164794922 C-131.51400756835938,-116.51499938964844 -64.68399810791016,-175.4040069580078 17.753999710083008,-175.4040069580078 C100.19200134277344,-175.4040069580078 167.02099609375,-116.51499938964844 167.02099609375,-43.87200164794922z"></path></g><g opacity="1" transform="matrix(1,0,0,1,0,0)"><g opacity="1" transform="matrix(1,0,0,1,0,0)"><path stroke-linecap="round" stroke-linejoin="round" fill-opacity="0" stroke="rgb(255,255,255)" stroke-opacity="1" stroke-width="6" d=" M8.230999946594238,-174.71499633789062 C9.803000450134277,-174.781005859375 11.4399995803833,-174.8300018310547 13.133999824523926,-174.85499572753906"></path></g><g opacity="1" transform="matrix(1,0,0,1,0,0)"><path stroke-linecap="round" stroke-linejoin="round" fill-opacity="0" stroke="rgb(255,255,255)" stroke-opacity="1" stroke-width="6" d=" M-13.239999771118164,-172.4040069580078 C-13.239999771118164,-172.4040069580078 -8.467000007629395,-173.38900756835938 -0.6729999780654907,-174.11500549316406"></path></g></g><g opacity="1" transform="matrix(1,0,0,1,0,0)"><path stroke-linecap="butt" stroke-linejoin="miter" fill-opacity="0" stroke-miterlimit="10" stroke="rgb(247,126,65)" stroke-opacity="1" stroke-width="8" d=" M206.62899780273438,-1.4429999589920044 C206.62899780273438,102.87000274658203 122.06700134277344,187.4320068359375 17.753999710083008,187.4320068359375 C-86.55899810791016,187.4320068359375 -171.1219940185547,102.87000274658203 -171.1219940185547,-1.4429999589920044 C-171.1219940185547,-105.75599670410156 -86.55899810791016,-190.31900024414062 17.753999710083008,-190.31900024414062 C122.06700134277344,-190.31900024414062 206.62899780273438,-105.75599670410156 206.62899780273438,-1.4429999589920044z"></path></g></g><g style="display: block;" transform="matrix(1.0499999523162842,0,0,1.0499999523162842,240.0500030517578,260)" opacity="0.7000000000000001"><g opacity="1" transform="matrix(1,0,0,1,0,0)"><path fill="rgb(255,177,57)" fill-opacity="1" d=" M195.96499633789062,-64.552001953125 C195.96499633789062,-64.552001953125 183.5030059814453,-93.83499908447266 157.9949951171875,-120.32599639892578 C160.30799865722656,-121.0790023803711 161.5050048828125,-121.43599700927734 161.5050048828125,-121.43599700927734 C161.5050048828125,-121.43599700927734 133.61000061035156,-156.1999969482422 82.55500030517578,-174.40199279785156 C82.55500030517578,-174.40199279785156 37.28200149536133,-164.77499389648438 -20.94300079345703,-135.8249969482422 C-51.22999954223633,-134.4709930419922 -86.87999725341797,-130.16700744628906 -122.24500274658203,-118.7760009765625 C-122.24500274658203,-118.7760009765625 -152.14300537109375,-85.9260025024414 -163.406005859375,-51.5989990234375 C-163.406005859375,-51.5989990234375 -153.04100036621094,-55.715999603271484 -133.3719940185547,-60.18600082397461 C-144.2740020751953,-50.38999938964844 -154.9759979248047,-39.83000183105469 -165.3000030517578,-28.43000030517578 C-165.3000030517578,-28.43000030517578 -177.7169952392578,15.02299976348877 -162.46200561523438,59.422000885009766 C-162.46200561523438,59.422000885009766 -85.62300109863281,-5.309999942779541 39.090999603271484,-68.89199829101562 C113.12899780273438,-64.71900177001953 153.447998046875,-59.06999969482422 195.96499633789062,-64.552001953125z"></path></g></g><g style="display: block;" transform="matrix(1.0499999523162842,0,0,1.0499999523162842,240.0500030517578,260)" opacity="1"><g opacity="1" transform="matrix(1,0,0,1,0,0)"><path fill="rgb(255,226,166)" fill-opacity="1" d=" M53.3380012512207,92.11900329589844 C21.506999969482422,86.9540023803711 -10.770999908447266,93.71700286865234 -9.279999732971191,97.44300079345703 C-6.9670000076293945,103.2249984741211 14.284000396728516,95.02200317382812 50.24599838256836,100.01599884033203 C78.05999755859375,103.87799835205078 98.45099639892578,120.5260009765625 100.8949966430664,119.06999969482422 C105.4260025024414,116.37000274658203 85.12100219726562,97.2770004272461 53.3380012512207,92.11900329589844z"></path></g><g opacity="1" transform="matrix(1,0,0,1,0,0)"><path fill="rgb(255,177,57)" fill-opacity="1" d=" M53.3380012512207,85.11900329589844 C21.506999969482422,79.9540023803711 -10.935999870300293,91.21299743652344 -9.279999732971191,97.44300079345703 C-8.38599967956543,100.80799865722656 14.284000396728516,88.02200317382812 50.24599838256836,93.01599884033203 C78.05999755859375,96.87799835205078 98.38899993896484,119.16600036621094 100.43000030517578,117.18399810791016 C105.00199890136719,112.74299621582031 85.12100219726562,90.2770004272461 53.3380012512207,85.11900329589844z"></path></g><g opacity="1" transform="matrix(1,0,0,1,0,0)"><path fill="rgb(134,63,20)" fill-opacity="1" d=" M53.3380012512207,89.11900329589844 C21.506999969482422,83.9540023803711 -10.92199993133545,93.78099822998047 -9.279999732971191,97.44300079345703 C-7.855999946594238,100.62000274658203 14.284000396728516,91.02200317382812 50.24599838256836,96.01599884033203 C78.05999755859375,99.87799835205078 97.81900024414062,118.31199645996094 100.43000030517578,117.18399810791016 C104.16699981689453,115.56900024414062 85.12100219726562,94.2770004272461 53.3380012512207,89.11900329589844z"></path></g><g opacity="1" transform="matrix(1,0,0,1,0,0)"><path fill="rgb(107,32,0)" fill-opacity="1" d=" M100.447998046875,117.1709976196289 C97.48799896240234,111.20099639892578 79.83699798583984,96.68099975585938 53.33700180053711,92.38099670410156 C25.586999893188477,87.87100219726562 -2.611999988555908,93.76100158691406 -8.302000045776367,98.03099822998047 C-8.812000274658203,97.93099975585938 -9.142000198364258,97.7509994506836 -9.281999588012695,97.44100189208984 C-10.92199993133545,93.78099822998047 21.506999969482422,83.95099639892578 53.33700180053711,89.12100219726562 C85.0469970703125,94.27100372314453 104.08799743652344,115.48100280761719 100.447998046875,117.1709976196289z"></path></g></g><g style="display: block;" transform="matrix(-1.0079998970031738,0,0,1.0079998970031738,142.89224243164062,281.1213684082031)" opacity="1"><g opacity="1" transform="matrix(1,0,0,1,0,0)"><path fill="rgb(255,177,57)" fill-opacity="1" d=" M-34.36000061035156,-30.860000610351562 C-34.36000061035156,-12.42300033569336 -44.874000549316406,2.5230000019073486 -57.845001220703125,2.5230000019073486 C-70.81600189208984,2.5230000019073486 -81.33100128173828,-12.42300033569336 -81.33100128173828,-30.860000610351562 C-81.33100128173828,-49.297000885009766 -70.81600189208984,-64.24199676513672 -57.845001220703125,-64.24199676513672 C-44.874000549316406,-64.24199676513672 -34.36000061035156,-49.297000885009766 -34.36000061035156,-30.860000610351562z"></path></g><g opacity="1" transform="matrix(1,0,0,1,0,0)"><path fill="rgb(255,226,166)" fill-opacity="1" d=" M-34.36000061035156,-18.860000610351562 C-34.36000061035156,-0.4230000078678131 -44.874000549316406,14.52299976348877 -57.845001220703125,14.52299976348877 C-70.81600189208984,14.52299976348877 -81.33100128173828,-0.4230000078678131 -81.33100128173828,-18.860000610351562 C-81.33100128173828,-37.297000885009766 -70.81600189208984,-52.242000579833984 -57.845001220703125,-52.242000579833984 C-44.874000549316406,-52.242000579833984 -34.36000061035156,-37.297000885009766 -34.36000061035156,-18.860000610351562z"></path></g><g opacity="1" transform="matrix(1,0,0,1,0,0)"><path fill="rgb(134,63,20)" fill-opacity="1" d=" M-35.82699966430664,-25.281999588012695 C-35.82699966430664,-6.84499979019165 -45.685001373291016,8.10099983215332 -57.845001220703125,8.10099983215332 C-70.00499725341797,8.10099983215332 -79.86299896240234,-6.84499979019165 -79.86299896240234,-25.281999588012695 C-79.86299896240234,-43.71900177001953 -70.00499725341797,-58.66400146484375 -57.845001220703125,-58.66400146484375 C-45.685001373291016,-58.66400146484375 -35.82699966430664,-43.71900177001953 -35.82699966430664,-25.281999588012695z"></path></g><g opacity="1" transform="matrix(1,0,0,1,0,0)"><path fill="rgb(107,32,0)" fill-opacity="1" d=" M-35.827999114990234,-25.277999877929688 C-35.827999114990234,-23.812000274658203 -35.891998291015625,-22.367000579833984 -36.02000045776367,-20.95400047302246 C-37.4010009765625,-37.36199951171875 -46.64899826049805,-50.02299880981445 -57.84400177001953,-50.02299880981445 C-69.03900146484375,-50.02299880981445 -78.28600311279297,-37.36199951171875 -79.66699981689453,-20.95400047302246 C-79.79499816894531,-22.367000579833984 -79.86000061035156,-23.812000274658203 -79.86000061035156,-25.277999877929688 C-79.86000061035156,-43.71900177001953 -70.00299835205078,-58.6609992980957 -57.84400177001953,-58.6609992980957 C-45.685001373291016,-58.6609992980957 -35.827999114990234,-43.71900177001953 -35.827999114990234,-25.277999877929688z"></path></g></g><g style="display: block;" transform="matrix(1.0499999523162842,0,0,1.0499999523162842,240.0500030517578,260)" opacity="1"><g opacity="0.2" transform="matrix(1,0,0,1,0,0)"><path fill="rgb(107,32,0)" fill-opacity="1" d=" M-23.08300018310547,-35.02899932861328 C-24.402999877929688,-34.25899887084961 -25.722999572753906,-33.499000549316406 -27.023000717163086,-32.729000091552734 C-37.66299819946289,-26.509000778198242 -47.762001037597656,-20.39900016784668 -57.28200149536133,-14.479000091552734 C-58.082000732421875,-13.98900032043457 -58.87200164794922,-13.49899959564209 -59.652000427246094,-13.008999824523926 C-58.52199935913086,-29.27899932861328 -48.87200164794922,-41.979000091552734 -37.13199996948242,-41.979000091552734 C-31.82200050354004,-41.979000091552734 -26.94300079345703,-39.37900161743164 -23.08300018310547,-35.02899932861328z"></path></g></g><g style="display: block;" transform="matrix(-1.0079998970031738,0,0,1.0079998970031738,269.417236328125,281.1213684082031)" opacity="1"><g opacity="1" transform="matrix(1,0,0,1,0,0)"><path fill="rgb(255,177,57)" fill-opacity="1" d=" M-34.36000061035156,-30.860000610351562 C-34.36000061035156,-12.42300033569336 -44.874000549316406,2.5230000019073486 -57.845001220703125,2.5230000019073486 C-70.81600189208984,2.5230000019073486 -81.33100128173828,-12.42300033569336 -81.33100128173828,-30.860000610351562 C-81.33100128173828,-49.297000885009766 -70.81600189208984,-64.24199676513672 -57.845001220703125,-64.24199676513672 C-44.874000549316406,-64.24199676513672 -34.36000061035156,-49.297000885009766 -34.36000061035156,-30.860000610351562z"></path></g><g opacity="1" transform="matrix(1,0,0,1,0,0)"><path fill="rgb(255,226,166)" fill-opacity="1" d=" M-34.36000061035156,-18.860000610351562 C-34.36000061035156,-0.4230000078678131 -44.874000549316406,14.52299976348877 -57.845001220703125,14.52299976348877 C-70.81600189208984,14.52299976348877 -81.33100128173828,-0.4230000078678131 -81.33100128173828,-18.860000610351562 C-81.33100128173828,-37.297000885009766 -70.81600189208984,-52.242000579833984 -57.845001220703125,-52.242000579833984 C-44.874000549316406,-52.242000579833984 -34.36000061035156,-37.297000885009766 -34.36000061035156,-18.860000610351562z"></path></g><g opacity="1" transform="matrix(1,0,0,1,0,0)"><path fill="rgb(134,63,20)" fill-opacity="1" d=" M-35.82699966430664,-25.281999588012695 C-35.82699966430664,-6.84499979019165 -45.685001373291016,8.10099983215332 -57.845001220703125,8.10099983215332 C-70.00499725341797,8.10099983215332 -79.86299896240234,-6.84499979019165 -79.86299896240234,-25.281999588012695 C-79.86299896240234,-43.71900177001953 -70.00499725341797,-58.66400146484375 -57.845001220703125,-58.66400146484375 C-45.685001373291016,-58.66400146484375 -35.82699966430664,-43.71900177001953 -35.82699966430664,-25.281999588012695z"></path></g><g opacity="1" transform="matrix(1,0,0,1,0,0)"><path fill="rgb(107,32,0)" fill-opacity="1" d=" M-35.827999114990234,-25.277999877929688 C-35.827999114990234,-23.812000274658203 -35.891998291015625,-22.367000579833984 -36.02000045776367,-20.95400047302246 C-37.4010009765625,-37.36199951171875 -46.64899826049805,-50.02299880981445 -57.84400177001953,-50.02299880981445 C-69.03900146484375,-50.02299880981445 -78.28600311279297,-37.36199951171875 -79.66699981689453,-20.95400047302246 C-79.79499816894531,-22.367000579833984 -79.86000061035156,-23.812000274658203 -79.86000061035156,-25.277999877929688 C-79.86000061035156,-43.71900177001953 -70.00299835205078,-58.6609992980957 -57.84400177001953,-58.6609992980957 C-45.685001373291016,-58.6609992980957 -35.827999114990234,-43.71900177001953 -35.827999114990234,-25.277999877929688z"></path></g></g><g style="display: block;" transform="matrix(1.0499999523162842,0,0,1.0499999523162842,240.0500030517578,260)" opacity="1"></g><g style="display: block;" transform="matrix(1.0499999523162842,0,0,1.0499999523162842,240.0500030517578,260)" opacity="1"><g opacity="1" transform="matrix(1,0,0,1,0,0)"><g opacity="1" transform="matrix(1,0,0,1,0,0)"><path fill="rgb(255,226,166)" fill-opacity="1" d=" M143.42100524902344,-43.93299865722656 C142.1510009765625,-42.72100067138672 138.46400451660156,-41.21200180053711 135.47900390625,-40.487998962402344 C122.54299926757812,-37.35100173950195 97.39099884033203,-40.92100143432617 79.97599792480469,-56.124000549316406 C55.17599868774414,-77.77400207519531 63.09000015258789,-93.44499969482422 68.5479965209961,-89.0790023803711 C74.00599670410156,-84.71299743652344 92.70600128173828,-62.98500061035156 122.55999755859375,-57.28499984741211 C130.5590057373047,-55.757999420166016 137.43800354003906,-57.98899841308594 141.79299926757812,-56.75299835205078 C147.5449981689453,-55.119998931884766 148.08599853515625,-48.3849983215332 143.42100524902344,-43.93299865722656z"></path></g><g opacity="1" transform="matrix(1,0,0,1,0,0)"><path fill="rgb(134,63,20)" fill-opacity="1" d=" M143.61599731445312,-48.709999084472656 C142.41299438476562,-47.430999755859375 139.00599670410156,-45.6870002746582 136.02099609375,-44.9630012512207 C123.08499908447266,-41.82600021362305 100.19100189208984,-44.06999969482422 82.7760009765625,-59.27299880981445 C57.97600173950195,-80.9229965209961 63.09000015258789,-93.44499969482422 68.5479965209961,-89.0790023803711 C74.00599670410156,-84.71299743652344 92.48899841308594,-65.83699798583984 122.34300231933594,-60.137001037597656 C130.3419952392578,-58.61000061035156 136.16700744628906,-58.40999984741211 140.52099609375,-57.17399978637695 C146.2729949951172,-55.54100036621094 146.91700744628906,-52.22100067138672 143.61599731445312,-48.709999084472656z"></path></g><g opacity="1" transform="matrix(1,0,0,1,0,0)"><path fill="rgb(107,32,0)" fill-opacity="1" d=" M144.56500244140625,-49.87799835205078 C143.7429962158203,-50.62799835205078 142.47000122070312,-51.27399826049805 140.74000549316406,-51.76599884033203 C136.38099670410156,-53.00400161743164 130.5540008544922,-53.20600128173828 122.55899810791016,-54.73400115966797 C92.7020034790039,-60.428001403808594 74.21700286865234,-79.31199645996094 68.76699829101562,-83.6760025024414 C67,-85.08399963378906 65.27400207519531,-84.73600006103516 64.57499694824219,-82.88200378417969 C62.845001220703125,-88.94999694824219 65.64700317382812,-91.4000015258789 68.552001953125,-89.08000183105469 C74.00199890136719,-84.71600341796875 92.48799896240234,-65.83200073242188 122.34500122070312,-60.13800048828125 C130.33999633789062,-58.61000061035156 136.16600036621094,-58.40700149536133 140.52499389648438,-57.17900085449219 C145.6269989013672,-55.729000091552734 146.70399475097656,-52.94900131225586 144.56500244140625,-49.87799835205078z"></path></g><g opacity="0.2" transform="matrix(1,0,0,1,0,0)"><path fill="rgb(107,32,0)" fill-opacity="1" d=" M107.08699798583984,-64.42900085449219 C104.97699737548828,-64.56900024414062 102.8270034790039,-64.71900177001953 100.64700317382812,-64.85900115966797 C92.62699890136719,-65.40899658203125 84.14800262451172,-66.00900268554688 75.11799621582031,-66.62899780273438 C73.3280029296875,-66.7490005493164 71.52799987792969,-66.86900329589844 69.697998046875,-66.98899841308594 C61.28799819946289,-78.18900299072266 61.99700164794922,-86.46900177001953 64.72699737548828,-88.9990005493164 C64.72699737548828,-88.9990005493164 64.72799682617188,-88.9990005493164 64.73799896240234,-89.00900268554688 C65.70800018310547,-89.89900207519531 66.9280014038086,-90.0790023803711 68.0780029296875,-89.40899658203125 C68.22799682617188,-89.31900024414062 68.38700103759766,-89.20899963378906 68.5469970703125,-89.0790023803711 C68.63700103759766,-89.00900268554688 68.71800231933594,-88.93900299072266 68.81800079345703,-88.85900115966797 C73.51799774169922,-85.00900268554688 86.5469970703125,-72.11900329589844 107.08699798583984,-64.42900085449219z"></path></g></g></g><g style="display: block;" transform="matrix(1.0499999523162842,0,0,1.0499999523162842,240.0500030517578,260)" opacity="1"><g opacity="1" transform="matrix(1,0,0,1,0,0)"><path fill="rgb(226,224,224)" fill-opacity="1" d=" M-170.3000030517578,-37.43000030517578 C-170.3000030517578,-37.43000030517578 -182.7169952392578,6.0229997634887695 -167.46200561523438,50.422000885009766 C-167.46200561523438,50.422000885009766 -85.7300033569336,-18.434999465942383 45.96500015258789,-83.87000274658203 C114.64199829101562,-117.99299621582031 156.5050048828125,-130.43600463867188 156.5050048828125,-130.43600463867188 C156.5050048828125,-130.43600463867188 128.60899353027344,-165.1999969482422 77.55400085449219,-183.40199279785156 C77.55400085449219,-183.40199279785156 -65.7030029296875,-152.9409942626953 -170.3000030517578,-37.43000030517578z"></path></g><g opacity="0.5" transform="matrix(1,0,0,1,0,0)"><path fill="rgb(255,255,255)" fill-opacity="1" d=" M136.5070037841797,-123.55899810791016 C117.75700378417969,-116.61900329589844 86.53800201416016,-104.02899932861328 45.96799850463867,-83.86900329589844 C-5.501999855041504,-58.29899978637695 -49.33300018310547,-32.20899963378906 -83.64299774169922,-9.89900016784668 C-113.08300018310547,-3.4590001106262207 -131.51199340820312,-5.729000091552734 -131.51199340820312,-43.86899948120117 C-131.51199340820312,-56.43899917602539 -129.51199340820312,-68.58899688720703 -125.78199768066406,-80.0989990234375 C-63.10200119018555,-132.43899536132812 3.927999973297119,-160.35899353027344 43.21799850463867,-173.50900268554688 C81.11799621582031,-167.75900268554688 114.12699890136719,-149.4290008544922 136.5070037841797,-123.55899810791016z"></path></g><g opacity="0.6" transform="matrix(1,0,0,1,0,0)"><path fill="rgb(169,164,152)" fill-opacity="1" d=" M66.98799896240234,-94.04900360107422 C60.29800033569336,-90.89900207519531 53.28799819946289,-87.50900268554688 45.96799850463867,-83.86900329589844 C36.80799865722656,-79.31900024414062 27.886999130249023,-74.7490005493164 19.226999282836914,-70.18900299072266 C-69.16300201416016,-77.11900329589844 -143.26300048828125,-62.819000244140625 -144.3730010986328,-62.62900161743164 C-129.72300720214844,-76.20899963378906 -113.6520004272461,-90.3489990234375 -98.59200286865234,-101.17900085449219 C-98.59200286865234,-101.17900085449219 58.63800048828125,-101.17900085449219 58.63800048828125,-101.17900085449219 C58.63800048828125,-101.17900085449219 62.8380012512207,-98.1989974975586 66.98799896240234,-94.04900360107422z"></path></g><g opacity="1" transform="matrix(1,0,0,1,0,0)"><path stroke-linecap="round" stroke-linejoin="round" fill-opacity="0" stroke="rgb(169,164,152)" stroke-opacity="1" stroke-width="8" d=" M-170.3000030517578,-37.43000030517578 C-170.3000030517578,-37.43000030517578 -182.7169952392578,6.0229997634887695 -167.46200561523438,50.422000885009766 C-167.46200561523438,50.422000885009766 -85.7300033569336,-18.434999465942383 45.96500015258789,-83.87000274658203 C114.64199829101562,-117.99299621582031 156.5050048828125,-130.43600463867188 156.5050048828125,-130.43600463867188 C156.5050048828125,-130.43600463867188 128.60899353027344,-165.1999969482422 77.55400085449219,-183.40199279785156 C77.55400085449219,-183.40199279785156 -65.7030029296875,-152.9409942626953 -170.3000030517578,-37.43000030517578z"></path></g><g opacity="1" transform="matrix(1,0,0,1,0,0)"><path fill="rgb(237,237,237)" fill-opacity="1" d=" M-124.24199676513672,-129.7760009765625 C-124.24199676513672,-129.7760009765625 -154.31399536132812,-96.927001953125 -165.64300537109375,-62.5989990234375 C-165.64300537109375,-62.5989990234375 -107.05599975585938,-85.73200225830078 -4.119999885559082,-81.87100219726562 C98.46099853515625,-78.02400207519531 145.61000061035156,-69.11599731445312 195.8179931640625,-75.552001953125 C195.8179931640625,-75.552001953125 181.85400390625,-108.2020034790039 153.21099853515625,-135.73800659179688 C153.21099853515625,-135.73800659179688 97.45600128173828,-147.36000061035156 2.4079999923706055,-147.36000061035156 C-32.20800018310547,-147.36000061035156 -78.46399688720703,-144.43600463867188 -124.24199676513672,-129.7760009765625z"></path></g><g opacity="0.5" transform="matrix(1,0,0,1,0,0)"><path fill="rgb(255,255,255)" fill-opacity="1" d=" M163.2570037841797,-73.31900024414062 C122.75700378417969,-72.71900177001953 76.39700317382812,-78.8489990234375 -4.123000144958496,-81.86900329589844 C-58.40299987792969,-83.90899658203125 -100.35199737548828,-78.42900085449219 -127.88200378417969,-72.79900360107422 C-121.23200225830078,-98.93900299072266 -105.74299621582031,-122.13899993896484 -84.33300018310547,-139.82899475097656 C-52.452999114990234,-145.8990020751953 -22.101999282836914,-147.35899353027344 2.4079999923706055,-147.35899353027344 C53.097999572753906,-147.35899353027344 92.61799621582031,-144.0489959716797 118.447998046875,-140.968994140625 C140.43800354003906,-123.2490005493164 156.38699340820312,-99.80899810791016 163.2570037841797,-73.31900024414062z"></path></g><g opacity="0.4" transform="matrix(1,0,0,1,0,0)"><path fill="rgb(169,164,152)" fill-opacity="1" d=" M-146.59800720214844,34.04399871826172 C-160.22799682617188,44.33399963378906 -167.45799255371094,50.42399978637695 -167.45799255371094,50.42399978637695 C-182.71800231933594,6.02400016784668 -170.29800415039062,-37.42599868774414 -170.29800415039062,-37.42599868774414 C-159.6580047607422,-49.17599868774414 -148.6179962158203,-60.04600143432617 -137.3679962158203,-70.08599853515625 C-145.5279998779297,-50.316001892089844 -150.18800354003906,-28.666000366210938 -150.53799438476562,-5.895999908447266 C-150.7480010986328,7.823999881744385 -149.3780059814453,21.194000244140625 -146.59800720214844,34.04399871826172z"></path></g><g opacity="0.4" transform="matrix(1,0,0,1,0,0)"><path fill="rgb(169,164,152)" fill-opacity="1" d=" M-84.68800354003906,-139.75599670410156 C-107.447998046875,-121.88600158691406 -125.62799835205078,-98.18599700927734 -137.0679931640625,-70.80599975585938 C-155.79800415039062,-66.48600006103516 -165.6479949951172,-62.59600067138672 -165.6479949951172,-62.59600067138672 C-154.3179931640625,-96.9260025024414 -124.23799896240234,-129.7760009765625 -124.23799896240234,-129.7760009765625 C-110.99800109863281,-134.01600646972656 -97.71800231933594,-137.2760009765625 -84.68800354003906,-139.75599670410156z"></path></g><g opacity="0.4" transform="matrix(1,0,0,1,0,0)"><path fill="rgb(169,164,152)" fill-opacity="1" d=" M195.82200622558594,-75.55599975585938 C187.7519989013672,-74.5260009765625 179.76199340820312,-73.88600158691406 171.6020050048828,-73.55599975585938 C163.3520050048828,-92.41600036621094 151.86199951171875,-109.49600219726562 137.8520050048828,-124.0459976196289 C132.0019989013672,-130.12600708007812 125.71199798583984,-135.76600646972656 119.03199768066406,-140.89599609375 C136.27200317382812,-138.8260040283203 147.31199645996094,-136.86599731445312 151.41200256347656,-136.08599853515625 C152.6020050048828,-135.86599731445312 153.21200561523438,-135.73599243164062 153.21200561523438,-135.73599243164062 C181.8520050048828,-108.20600128173828 195.82200622558594,-75.55599975585938 195.82200622558594,-75.55599975585938z"></path></g><g opacity="0.2" transform="matrix(1,0,0,1,0,0)"><path fill="rgb(169,164,152)" fill-opacity="1" d=" M151.41200256347656,-136.08599853515625 C147.31199645996094,-136.86599731445312 136.27200317382812,-138.8260040283203 119.03199768066406,-140.89599609375 C79.7509994506836,-144.64700317382812 15.010000228881836,-146.6060028076172 -13.239999771118164,-150.93600463867188 C8.039999961853027,-158.0659942626953 77.552001953125,-183.406005859375 77.552001953125,-183.406005859375 C115.9219970703125,-169.71600341796875 141.21200561523438,-146.68600463867188 151.41200256347656,-136.08599853515625z"></path></g><g opacity="1" transform="matrix(1,0,0,1,0,0)"><path stroke-linecap="round" stroke-linejoin="round" fill-opacity="0" stroke="rgb(169,164,152)" stroke-opacity="1" stroke-width="8" d=" M-124.24199676513672,-129.7760009765625 C-124.24199676513672,-129.7760009765625 -154.31399536132812,-96.927001953125 -165.64300537109375,-62.5989990234375 C-165.64300537109375,-62.5989990234375 -107.05599975585938,-85.73200225830078 -4.119999885559082,-81.87100219726562 C98.46099853515625,-78.02400207519531 145.61000061035156,-69.11599731445312 195.8179931640625,-75.552001953125 C195.8179931640625,-75.552001953125 181.85400390625,-108.2020034790039 153.21099853515625,-135.73800659179688 C153.21099853515625,-135.73800659179688 97.45600128173828,-147.36000061035156 2.4079999923706055,-147.36000061035156 C-32.20800018310547,-147.36000061035156 -78.46399688720703,-144.43600463867188 -124.24199676513672,-129.7760009765625z"></path></g><g opacity="0.4" transform="matrix(1,0,0,1,0,0)"><path fill="rgb(169,164,152)" fill-opacity="1" d=" M151.41200256347656,-136.08599853515625 C147.31199645996094,-136.86599731445312 136.27200317382812,-138.8260040283203 119.03199768066406,-140.89599609375 C97.25199890136719,-157.656005859375 71.34200286865234,-169.14599609375 43.09199905395508,-173.4759979248047 C64.37200164794922,-180.6060028076172 77.552001953125,-183.406005859375 77.552001953125,-183.406005859375 C115.9219970703125,-169.71600341796875 141.21200561523438,-146.68600463867188 151.41200256347656,-136.08599853515625z"></path></g></g></g></svg>