<svg xmlns="http://www.w3.org/2000/svg" viewBox="0 0 512 512" width="512" height="512" style="width: 100%; height: 100%; transform: translate3d(0,0,0);" preserveAspectRatio="xMidYMid meet"><defs><clipPath id="__lottie_element_16626"><rect width="512" height="512" x="0" y="0"></rect></clipPath></defs><g clip-path="url(#__lottie_element_16626)"><g style="display: block;" transform="matrix(1,0.0000981969860731624,-0.0000981969860731624,1,264.3465576171875,374.08099365234375)" opacity="1"><g opacity="1" transform="matrix(1,0,0,1,0,0)"><path fill="rgb(255,209,64)" fill-opacity="1" d=" M-184.0019989013672,84.177001953125 C-178.06199645996094,94.59100341796875 -136.62100219726562,88.91999816894531 -97.08599853515625,91.72599792480469 C-66.29199981689453,93.91200256347656 42.422000885009766,110.08100128173828 117.41000366210938,77.68099975585938 C176.06199645996094,52.3390007019043 189.01324462890625,28.545888900756836 189.71693420410156,6.282018184661865 C190.42123413085938,-15.988126754760742 165.46807861328125,-59.104923248291016 116.00728607177734,-84.48961639404297 C58.64585876464844,-113.93052673339844 8.267721176147461,-89.76647186279297 -31.77613067626953,-52.61907196044922 C-71.83030700683594,-15.46667194366455 -79.1718521118164,15.163390159606934 -79.1718521118164,15.163390159606934 C-79.1718521118164,15.163390159606934 -73.5021743774414,2.086317777633667 -80.26170349121094,0.7517642974853516 C-87.02609252929688,-0.5814512372016907 -98.60697937011719,15.169546127319336 -98.60697937011719,15.169546127319336 C-100.06211853027344,15.284520149230957 -216.52000427246094,27.170000076293945 -184.0019989013672,84.177001953125z"></path></g></g><g style="display: block;" transform="matrix(1,0.0000981969860731624,-0.0000981969860731624,1,244.78163146972656,363.3270568847656)" opacity="1"><g opacity="1" transform="matrix(1,0,0,1,0,0)"><path fill="rgb(255,177,57)" fill-opacity="1" d=" M-2.0893614292144775,-47.19116973876953 C-2.0893614292144775,-47.19116973876953 -61.37491226196289,9.814711570739746 -19.64729881286621,16.0711669921875 C-11.592512130737305,17.279617309570312 7.790818214416504,18.488109588623047 15.547954559326172,20.36406135559082 C17.99973487854004,20.957046508789062 19.289892196655273,21.61687660217285 18.694725036621094,22.36350440979004 C15.126983642578125,26.841283798217773 3.4050471782684326,30.23238754272461 -19.903223037719727,32.65674591064453 C-44.3741569519043,35.20199966430664 -56.924407958984375,36.797454833984375 -57.83151626586914,20.408090591430664 C-57.83151626586914,20.408090591430664 -40.689537048339844,-23.109764099121094 -2.0893614292144775,-47.19116973876953z"></path></g></g><g style="display: block;" transform="matrix(1,0.0000981969860731624,-0.0000981969860731624,1,321.4078369140625,340.9615783691406)" opacity="1"><g opacity="1" transform="matrix(1,0,0,1,0,0)"><path fill="rgb(255,223,121)" fill-opacity="1" d=" M126.10299682617188,60.31281661987305 C132.49374389648438,3.387253761291504 61.81645965576172,-61.97527313232422 -2.139909505844116,-52.779869079589844 C-72.10346221923828,-42.7199592590332 -125.76103210449219,32.61122131347656 -132.7032470703125,48.292625427246094 C-132.7032470703125,48.292625427246094 -132.58282470703125,40.32939147949219 -132.0527801513672,35.32172393798828 C-125.99516296386719,19.265094757080078 -105.45453643798828,-0.007032120134681463 -78.72842407226562,-24.800689697265625 C-38.65835952758789,-61.95103073120117 9.096946716308594,-75.97410583496094 58.9660530090332,-51.36446762084961 C108.81389617919922,-26.756746292114258 133.36199951171875,17.141794204711914 132.66293334960938,39.40981674194336 C132.41326904296875,47.31614685058594 130.61300659179688,55.423980712890625 125.76300048828125,63.731998443603516 C125.85299682617188,62.62226486206055 125.97283172607422,61.482505798339844 126.10299682617188,60.31281661987305z"></path></g></g><g style="display: block;" transform="matrix(1,0.0002454924688208848,-0.0002454924688208848,1,198.0784454345703,110.67962646484375)" opacity="1"><g opacity="1" transform="matrix(1,0,0,1,0,0)"><path fill="rgb(255,223,121)" fill-opacity="1" d=" M-5.412452697753906,-16.826688766479492 C0.40987345576286316,-22.968997955322266 3.788191080093384,-49.945491790771484 -12.879219055175781,-47.337764739990234 C-28.083202362060547,-44.95658874511719 -60.33335876464844,-6.708667278289795 -60.91516876220703,11.137272834777832 C-60.91516876220703,11.137272834777832 -75.55033874511719,52.7054557800293 -24.22800064086914,48.42900085449219 C1.4281162023544312,46.29263687133789 4.415482997894287,5.549108505249023 -5.412452697753906,-16.826688766479492z"></path></g></g><g style="display: block;" transform="matrix(1,-0.00006546466465806589,0.00006546466465806589,1,135.90243530273438,291.9422302246094)" opacity="1"><g opacity="1" transform="matrix(1,0,0,1,0,0)"><path fill="rgb(255,209,64)" fill-opacity="1" d=" M-55.577999114990234,166.29400634765625 C-69.55899810791016,157.08599853515625 -59.83399963378906,138.2989959716797 -60.577999114990234,94.9520034790039 C-61.305999755859375,52.50299835205078 -57.5880012512207,22.202999114990234 -45.81800079345703,-13.986000061035156 C-32.77799987792969,-54.08000183105469 -14.585000038146973,-93.1760025024414 -10.60099983215332,-108.11100006103516 C-7.4070000648498535,-120.08599853515625 -5.496049880981445,-153.72462463378906 -0.9902593493461609,-171.12188720703125 C-0.9902593493461609,-171.12188720703125 25.31235122680664,-175.10421752929688 44.959999084472656,-149.1199951171875 C64.61202239990234,-123.13002014160156 67.87699890136719,-125.5 57.119998931884766,-94.177001953125 C46.362998962402344,-62.854000091552734 56.198001861572266,-19.166000366210938 54.38600158691406,21.97800064086914 C52.57400131225586,63.12200164794922 44.957923889160156,83.93582916259766 44.957923889160156,83.93582916259766 C44.957923889160156,83.93582916259766 -10.220000267028809,196.1649932861328 -55.577999114990234,166.29400634765625z"></path></g></g><g style="display: block;" transform="matrix(1,0.0000981969860731624,-0.0000981969860731624,1,264.34088134765625,411.55596923828125)" opacity="1"><g opacity="1" transform="matrix(1,0,0,1,0,0)"><path fill="rgb(255,177,57)" fill-opacity="1" d=" M189.72300720214844,-31.197999954223633 C189.01300048828125,-8.928000450134277 176.06300354003906,14.862000465393066 117.41300201416016,40.20199966430664 C42.42300033569336,72.60199737548828 -66.28700256347656,56.43199920654297 -97.08699798583984,54.25199890136719 C-136.61700439453125,51.44200134277344 -178.0570068359375,57.11199951171875 -183.9969940185547,46.70199966430664 C-190.5970001220703,35.13199996948242 -191.0570068359375,25.43199920654297 -187.5970001220703,17.302000045776367 C-187.5970001220703,17.302000045776367 -186.677001953125,31.27199935913086 -168.03700256347656,32.731998443603516 C-149.38699340820312,34.18199920654297 -116.03700256347656,12.741999626159668 -70.61699676513672,23.031999588012695 C-49.380001068115234,27.843000411987305 -17.856000900268555,32.577999114990234 16.208999633789062,32.82899856567383 C22.329999923706055,32.874000549316406 28.533000946044922,32.77399826049805 34.77299880981445,32.50400161743164 C43.22700119018555,32.13800048828125 51.74800109863281,31.459999084472656 60.22600173950195,30.405000686645508 C70.66500091552734,29.106000900268555 81.03800201416016,27.23699951171875 91.13600158691406,24.679000854492188 C101.66100311279297,22.011999130249023 118.40939331054688,15.928366661071777 127.63300323486328,11.461000442504883 C130.44183349609375,10.100563049316406 136.7776641845703,6.432815074920654 140.81590270996094,3.8213443756103516 C146.2131805419922,0.3322505056858063 148.4929962158203,-1.5640000104904175 153.24200439453125,-5.88100004196167 C171.0229949951172,-22.04199981689453 182.25851440429688,-43.13109588623047 177.21588134765625,-60.20623016357422 C180.9380645751953,-51.54753112792969 189.91299438476562,-37.39799880981445 189.72300720214844,-31.197999954223633z"></path></g></g><g style="display: none;"><g><path></path></g></g><g style="display: block;" transform="matrix(1,-0.00006546466465806589,0.00006546466465806589,1,97.34173583984375,357.7767639160156)" opacity="1"><g opacity="1" transform="matrix(1,0,0,1,0,0)"><path fill="rgb(255,177,57)" fill-opacity="1" d=" M23.63280487060547,82.00211334228516 C23.63280487060547,82.00211334228516 -7.105000019073486,89.25299835205078 -7.804999828338623,50.983001708984375 C-8.585000038146973,8.366000175476074 -27.65399932861328,3.0329999923706055 1.680999994277954,-94.04000091552734 C1.680999994277954,-94.04000091552734 -14.380999565124512,-73.85900115966797 -21.052000045776367,-10.66100025177002 C-25.229000091552734,28.91200065612793 -20.325000762939453,43.29399871826172 -22.742000579833984,59.303001403808594 C-29.719999313354492,105.51799774169922 6.03080415725708,97.28411102294922 23.63280487060547,82.00211334228516z"></path></g></g><g style="display: block;" transform="matrix(1,-0.00006546466465806589,0.00006546466465806589,1,96.9591064453125,317.09478759765625)" opacity="1"><g opacity="1" transform="matrix(1,0,0,1,0,0)"><path fill="rgb(255,223,121)" fill-opacity="1" d=" M24.010000228881836,-116.86499786376953 C21.14900016784668,-97.39800262451172 9.027000427246094,-62.268001556396484 -0.23399999737739563,-27.139999389648438 C-1.930999994277954,-20.70400047302246 -3.5320000648498535,-14.267999649047852 -4.961999893188477,-7.928999900817871 C-6.090000152587891,-2.927000045776367 -7.111999988555908,2.0139999389648438 -7.991000175476074,6.848999977111816 C-9.354000091552734,14.343999862670898 -10.37399959564209,21.58099937438965 -10.913999557495117,28.382999420166016 C-12.48799991607666,48.21099853515625 -11.456000328063965,74.54100036621094 -20.229999542236328,111.74500274658203 C-21.06399917602539,115.28199768066406 -21.90999984741211,116.8949966430664 -24.010000228881836,116.86499786376953 C-23.329999923706055,105.7249984741211 -21.280000686645508,90.59500122070312 -21.6299991607666,69.80500030517578 C-22.360000610351562,27.354999542236328 -18.639999389648438,-2.944999933242798 -6.869999885559082,-39.1349983215332 C2.450000047683716,-67.79499816894531 14.40999984741211,-95.95500183105469 21.920000076293945,-115.125 C21.920000076293945,-115.125 24.010000228881836,-116.86499786376953 24.010000228881836,-116.86499786376953z"></path></g></g><g style="display: block;" transform="matrix(1,-0.00006546466465806589,0.00006546466465806589,1,178.71226501464844,289.095458984375)" opacity="1"><g opacity="1" transform="matrix(1,0,0,1,0,0)"><path fill="rgb(255,177,57)" fill-opacity="1" d=" M-13.166000366210938,-98.74700164794922 C-13.166000366210938,-89.77799987792969 -6.039000034332275,-88.31500244140625 -3.117000102996826,-59.71900177001953 C-0.5849999785423279,-34.93899917602539 -2.119999885559082,-12.795000076293945 -4.729000091552734,6.224999904632568 C-5.507999897003174,11.904999732971191 -6.382999897003174,17.30699920654297 -7.27400016784668,22.41699981689453 C-8.097999572753906,27.145000457763672 -8.9350004196167,31.621999740600586 -9.723999977111816,35.84000015258789 C-11.164999961853027,43.54499816894531 -12.440999984741211,50.38399887084961 -13.166000366210938,56.290000915527344 C-16.777999877929688,85.6989974975586 -13.443568229675293,101.37183380126953 -13.442800521850586,101.37681579589844 C-13.442224502563477,101.38054656982422 0.570702075958252,93.59827423095703 4.825718879699707,76.60322570800781 C10.764569282531738,52.8841667175293 13.768594741821289,27.365631103515625 9.96399974822998,-14.73900032043457 C7.181428909301758,-45.53693389892578 8.491000175476074,-74.19400024414062 15.043999671936035,-96.12000274658203 C15.043999671936035,-96.12000274658203 -13.166000366210938,-98.74700164794922 -13.166000366210938,-98.74700164794922z"></path></g></g><g style="display: block;" transform="matrix(1,-0.00006546466465806589,0.00006546466465806589,1,103.61328125,289.5263671875)" opacity="1"><g opacity="1" transform="matrix(1,0,0,1,0,0)"><path stroke-linecap="round" stroke-linejoin="round" fill-opacity="0" stroke="rgb(247,126,65)" stroke-opacity="1" stroke-width="8" d=" M21.69791603088379,-105.71187591552734 C17.704626083374023,-90.7763671875 -0.48899999260902405,-51.6609992980957 -13.529000282287598,-11.567000389099121 C-25.298999786376953,24.621999740600586 -29.01799964904785,54.608001708984375 -28.290000915527344,97.37100219726562 C-27.552000045776367,140.71800231933594 -38.19165802001953,156.5706024169922 -23.290542602539062,168.71292114257812"></path></g></g><g style="display: block;" transform="matrix(1,0.0000981969860731624,-0.0000981969860731624,1,178.45663452148438,383.7265625)" opacity="1"><g opacity="1" transform="matrix(1,0,0,1,0,0)"><path fill="rgb(255,177,57)" fill-opacity="1" d=" M-8.73183536529541,7.918690204620361 C-3.836408853530884,4.002894878387451 1.0381453037261963,2.5029373168945312 4.3403496742248535,6.767520904541016 C6.91275691986084,1.7530239820480347 7.722026824951172,-0.2258797287940979 7.721473217010498,-6.2554802894592285 C7.720458030700684,-12.285648345947266 -8.25277328491211,-0.038660161197185516 -8.73183536529541,7.918690204620361z"></path></g></g><g style="display: block;" transform="matrix(1,-0.00006546466465806589,0.00006546466465806589,1,188.2499237060547,283.9128112792969)" opacity="1"><g opacity="1" transform="matrix(1,0,0,1,0,0)"><path stroke-linecap="round" stroke-linejoin="round" fill-opacity="0" stroke="rgb(247,126,65)" stroke-opacity="1" stroke-width="8" d=" M7.388000011444092,-91.94300079345703 C7.388000011444092,-91.94300079345703 2.3259999752044678,-85.06500244140625 0.2980000078678131,-62.25199890136719 C-2.6070001125335693,-29.57200050354004 3.0290000438690186,-0.029999999329447746 2.0390000343322754,30.003999710083008 C0.699999988079071,70.625 -7.390443801879883,91.95077514648438 -7.389795303344727,91.96251678466797"></path></g></g><g style="display: block;" transform="matrix(1,0.0000981969860731624,-0.0000981969860731624,1,178.49180603027344,382.02752685546875)" opacity="1"><g opacity="1" transform="matrix(1,0,0,1,0,0)"><path stroke-linecap="round" stroke-linejoin="round" fill-opacity="0" stroke="rgb(247,126,65)" stroke-opacity="1" stroke-width="8" d=" M-10.252095222473145,7.216078758239746 C-10.245875358581543,7.212504863739014 0.7092434167861938,-8.946940422058105 10.205686569213867,-7.050839900970459"></path></g></g><g style="display: block;" transform="matrix(0.5150380730628967,0.8571673035621643,-0.8571673035621643,0.5150380730628967,480.9880065917969,213.4141387939453)" opacity="1"><g opacity="1" transform="matrix(1,0,0,1,11.996999740600586,13.041000366210938)"><path fill="rgb(255,177,57)" fill-opacity="1" d=" M94.63740539550781,92.87982940673828 C120.78736877441406,115.144287109375 120.70366668701172,123.53126525878906 120.71766662597656,130.3762664794922 C120.72966003417969,136.10926818847656 122.07501220703125,141.87599182128906 125.2730712890625,146.52740478515625 C128.61090087890625,151.3819580078125 127.95700073242188,156.10499572753906 128.61199951171875,158.61199951171875 C130.69900512695312,166.5989990234375 130.31100463867188,170.15699768066406 130.2030029296875,178.09100341796875 C142.36599731445312,157.86000061035156 136.27186584472656,103.45240020751953 94.63740539550781,92.87982940673828z"></path></g></g><g style="display: block;" transform="matrix(1,0.0000981969860731624,-0.0000981969860731624,1,267.21063232421875,373.57623291015625)" opacity="1"><g opacity="1" transform="matrix(1,0,0,1,0,0)"><path stroke-linecap="round" stroke-linejoin="round" fill-opacity="0" stroke="rgb(247,126,65)" stroke-opacity="1" stroke-width="8" d=" M-82.03800201416016,15.671252250671387 C-75.90252685546875,-6.586505889892578 -59.17131042480469,-33.69511032104492 -19.948686599731445,-64.32328033447266 C23.103961944580078,-97.9397964477539 63.30221176147461,-109.59365844726562 113.13452911376953,-84.98933410644531 C162.98419189453125,-60.382171630859375 187.55474853515625,-15.498882293701172 186.85194396972656,6.787581443786621 C186.14984130859375,29.055011749267578 173.197998046875,52.84400177001953 114.5459976196289,78.18599700927734 C101.48300170898438,83.83000183105469 87.39700317382812,88 72.87799835205078,91.0270004272461 C4.046999931335449,105.37699890136719 -74.52100372314453,94.03600311279297 -99.95099639892578,92.23100280761719 C-139.48599243164062,89.42500305175781 -177.83599853515625,92.99700164794922 -186.86700439453125,84.68199920654297"></path></g></g><g style="display: block;" transform="matrix(1,0.00009564488573232666,-0.00009564488573232666,1,0.0355224609375,13.0123291015625)" opacity="1"><g opacity="1" transform="matrix(1,0,0,1,334.5830078125,275.4639892578125)"><path stroke-linecap="round" stroke-linejoin="round" fill-opacity="0" stroke="rgb(255,255,255)" stroke-opacity="1" stroke-width="6" d=" M-1.0809999704360962,-0.01899999938905239 C-1.0809999704360962,-0.01899999938905239 -0.14617778360843658,-0.052888888865709305 1.0833555459976196,0.01600000075995922"></path></g><g opacity="1" transform="matrix(1,0,0,1,316.6369934082031,276.7409973144531)"><path stroke-linecap="round" stroke-linejoin="round" fill-opacity="0" stroke="rgb(255,255,255)" stroke-opacity="1" stroke-width="6" d=" M-6.361999988555908,1.059000015258789 C-6.361999988555908,1.059000015258789 -1.7730889320373535,-0.30124443769454956 6.362933158874512,-1.047844409942627"></path></g></g><g style="display: block;" transform="matrix(0.9902670979499817,0.13918007910251617,-0.13918007910251617,0.9902670979499817,215.61407470703125,293.80535888671875)" opacity="1"><g opacity="1" transform="matrix(1,0,0,1,6.5,3)"><path fill="rgb(255,177,57)" fill-opacity="1" d=" M-6.5,-194.75 C-7.427999973297119,-197.00399780273438 -37.22800064086914,-205.18499755859375 -52.44300079345703,-204.39700317382812 C-58.62099838256836,-204.07699584960938 -63.09400177001953,-200.54100036621094 -63.525001525878906,-196.1750030517578 C-63.73899841308594,-194.00599670410156 -62.95600128173828,-191.63299560546875 -60.88800048828125,-189.34800720214844 C-51.75,-179.25 -34.0629997253418,-182.93699645996094 -30.25,-183.5 C-31.625,-179.125 -35.48400115966797,-180.12600708007812 -37.58399963378906,-178.281005859375 C-40.83399963378906,-180.21800231933594 -50.04600143432617,-186.23199462890625 -57.39500045776367,-181.86000061035156 C-62.222999572753906,-178.98800659179688 -66.57499694824219,-170.73300170898438 -59.66600036621094,-166.11500549316406 C-51.95100021362305,-160.95799255371094 -31.299999237060547,-153.20399475097656 -22.62299919128418,-159.72500610351562 C-17.957000732421875,-163.2310028076172 -4.75,-190.5 -6.5,-194.75z"></path><path stroke-linecap="round" stroke-linejoin="round" fill-opacity="0" stroke="rgb(247,126,65)" stroke-opacity="1" stroke-width="7" d=" M-6.5,-194.75 C-7.427999973297119,-197.00399780273438 -37.22800064086914,-205.18499755859375 -52.44300079345703,-204.39700317382812 C-58.62099838256836,-204.07699584960938 -63.09400177001953,-200.54100036621094 -63.525001525878906,-196.1750030517578 C-63.73899841308594,-194.00599670410156 -62.95600128173828,-191.63299560546875 -60.88800048828125,-189.34800720214844 C-51.75,-179.25 -34.0629997253418,-182.93699645996094 -30.25,-183.5 C-31.625,-179.125 -35.48400115966797,-180.12600708007812 -37.58399963378906,-178.281005859375 C-40.83399963378906,-180.21800231933594 -50.04600143432617,-186.23199462890625 -57.39500045776367,-181.86000061035156 C-62.222999572753906,-178.98800659179688 -66.57499694824219,-170.73300170898438 -59.66600036621094,-166.11500549316406 C-51.95100021362305,-160.95799255371094 -31.299999237060547,-153.20399475097656 -22.62299919128418,-159.72500610351562 C-17.957000732421875,-163.2310028076172 -4.75,-190.5 -6.5,-194.75z"></path></g></g><g style="display: block;" transform="matrix(0.9961959719657898,0.08714114874601364,-0.08714114874601364,0.9961959719657898,230.11941528320312,288.9598388671875)" opacity="1"><g opacity="1" transform="matrix(1,0,0,1,6.5,3)"><path fill="rgb(255,177,57)" fill-opacity="1" d=" M-14.75,-197.5 C-17.5939998626709,-200.19500732421875 -58.75,-232 -63.13800048828125,-200.09800720214844 C-64.6719970703125,-188.94500732421875 -35.3129997253418,-182.93699645996094 -31.5,-183.5 C-32.875,-179.125 -34.99399948120117,-182.1699981689453 -35.80400085449219,-179.40699768066406 C-38.869998931884766,-181.62399291992188 -49.65399932861328,-184.39199829101562 -57.229000091552734,-180.42300415039062 C-66.12300109863281,-175.76300048828125 -64.75800323486328,-162.67999267578125 -56.86000061035156,-160.0959930419922 C-41.874000549316406,-155.1929931640625 -31.739999771118164,-153.16700744628906 -22.520999908447266,-158.89700317382812 C-17.56399917602539,-161.97799682617188 -10,-193 -14.75,-197.5z"></path><path stroke-linecap="round" stroke-linejoin="round" fill-opacity="0" stroke="rgb(247,126,65)" stroke-opacity="1" stroke-width="7" d=" M-14.75,-197.5 C-17.5939998626709,-200.19500732421875 -58.75,-232 -63.13800048828125,-200.09800720214844 C-64.6719970703125,-188.94500732421875 -35.3129997253418,-182.93699645996094 -31.5,-183.5 C-32.875,-179.125 -34.99399948120117,-182.1699981689453 -35.80400085449219,-179.40699768066406 C-38.869998931884766,-181.62399291992188 -49.65399932861328,-184.39199829101562 -57.229000091552734,-180.42300415039062 C-66.12300109863281,-175.76300048828125 -64.75800323486328,-162.67999267578125 -56.86000061035156,-160.0959930419922 C-41.874000549316406,-155.1929931640625 -31.739999771118164,-153.16700744628906 -22.520999908447266,-158.89700317382812 C-17.56399917602539,-161.97799682617188 -10,-193 -14.75,-197.5z"></path></g></g><g style="display: block;" transform="matrix(1,-0.00007528438436565921,0.00007528438436565921,1,198.09371948242188,110.67416381835938)" opacity="1"><g opacity="1" transform="matrix(1,0,0,1,0,0)"><path fill="rgb(255,223,121)" fill-opacity="1" d=" M65.58112335205078,-10.34376335144043 C66.66267395019531,-19.209497451782227 51.49424743652344,-25.156007766723633 28.23809242248535,-34.499603271484375 C11.539485931396484,-41.20913314819336 -6.788570880889893,-47.65321731567383 -11.508358001708984,-45.3372688293457 C-25.338598251342773,-38.55160903930664 -12.281227111816406,-18.21363639831543 -5.164000034332275,-13.61299991607666 C6.535000324249268,-6.010000228881836 14.916747093200684,1.5396140813827515 36.51954650878906,-9.818310737609863 C38.913543701171875,-6.706310749053955 64.40760040283203,-0.7247309684753418 65.58112335205078,-10.34376335144043z"></path></g></g><g style="display: block;" transform="matrix(1,-0.0002143967867596075,0.0002143967867596075,1,251.1003875732422,135.171875)" opacity="1"><g opacity="1" transform="matrix(1,0,0,1,0,0)"><path fill="rgb(255,223,121)" fill-opacity="1" d=" M-49.612003326416016,-6.884654521942139 C-48.02448654174805,-3.6170380115509033 -14.509958267211914,3.9850239753723145 -5.504642963409424,-4.814479351043701 C6.410605430603027,-16.457935333251953 11.537835121154785,-26.583999633789062 9.878835678100586,-33.79499816894531 C8.40383529663086,-40.207000732421875 -9.001479148864746,-41.9683952331543 -14.27647876739502,-35.346397399902344 C-19.08647918701172,-33.711395263671875 -25.083999633789062,-27.083999633789062 -28.559999465942383,-17.341999053955078 C-33.96660232543945,-39.3248405456543 -57.9630126953125,-24.075918197631836 -49.612003326416016,-6.884654521942139z"></path></g></g><g style="display: block;" transform="matrix(1,0.0002454924688208848,-0.0002454924688208848,1,198.0784454345703,110.67962646484375)" opacity="1"><g opacity="1" transform="matrix(1,0,0,1,0,0)"><path fill="rgb(255,209,64)" fill-opacity="1" d=" M-5.412452697753906,-16.826688766479492 C0.40987345576286316,-22.968997955322266 5.0390472412109375,-40.6959228515625 -11.628363609313965,-38.088199615478516 C-26.832345962524414,-35.70702362060547 -57.83674621582031,-2.700667381286621 -60.915103912353516,11.145356178283691 C-60.915103912353516,11.145356178283691 -75.55510711669922,52.70658493041992 -24.22800064086914,48.42900085449219 C1.428118109703064,46.291439056396484 4.415482997894287,5.549108505249023 -5.412452697753906,-16.826688766479492z"></path></g></g><g style="display: block;" transform="matrix(1,-0.00007528438436565921,0.00007528438436565921,1,198.09371948242188,110.67416381835938)" opacity="1"><g opacity="1" transform="matrix(1,0,0,1,0,0)"><path fill="rgb(255,209,64)" fill-opacity="1" d=" M56.83399963378906,-8.343000411987305 C57.45199966430664,-11.92300033569336 48.49428176879883,-17.406301498413086 25.238126754760742,-26.749897003173828 C8.539520263671875,-33.45942687988281 -4.789820671081543,-39.90345764160156 -9.509608268737793,-37.58750915527344 C-23.339847564697266,-30.801849365234375 -12.281227111816406,-18.21363639831543 -5.164000034332275,-13.61299991607666 C6.535000324249268,-6.010000228881836 14.916747093200684,1.5396140813827515 36.51954650878906,-9.818310737609863 C38.913543701171875,-6.706310749053955 55.185001373291016,1.2059999704360962 56.83399963378906,-8.343000411987305z"></path></g></g><g style="display: block;" transform="matrix(1,-0.0002143967867596075,0.0002143967867596075,1,251.1003875732422,135.171875)" opacity="1"><g opacity="1" transform="matrix(1,0,0,1,0,0)"><path fill="rgb(255,209,64)" fill-opacity="1" d=" M-49.612003326416016,-6.884654521942139 C-48.02448654174805,-3.6170380115509033 -18.585046768188477,3.793114185333252 -10.752182006835938,-6.0638933181762695 C0.4444039463996887,-20.153202056884766 4.790999889373779,-26.583999633789062 3.131999969482422,-33.79499816894531 C1.656999945640564,-40.207000732421875 -9.001479148864746,-41.9683952331543 -14.27647876739502,-35.346397399902344 C-19.08647918701172,-33.711395263671875 -25.083999633789062,-27.083999633789062 -28.559999465942383,-17.341999053955078 C-33.96660232543945,-39.3248405456543 -57.9630126953125,-24.075918197631836 -49.612003326416016,-6.884654521942139z"></path></g></g><g style="display: block;" transform="matrix(1,-0.00007528438436565921,0.00007528438436565921,1,227.77613830566406,116.094970703125)" opacity="1"><g opacity="1" transform="matrix(1,0,0,1,0,0)"><path fill="rgb(255,177,57)" fill-opacity="1" d=" M9.303609848022461,-13.239608764648438 C9.303609848022461,-13.239608764648438 -3.470496892929077,-3.614919424057007 6.245767116546631,4.1136322021484375 C14.508841514587402,10.686699867248535 30.454238891601562,-2.713696241378784 30.454238891601562,-2.713696241378784 C30.454238891601562,-2.713696241378784 23.738849639892578,13.459389686584473 -0.0778646171092987,13.69405460357666 C-10.471866607666016,13.79696273803711 -28.45369529724121,12.01430606842041 -28.45369529724121,12.01430606842041 C-28.45369529724121,12.01430606842041 -30.76188087463379,-3.8647496700286865 -21.958520889282227,-6.672013282775879 C-21.958520889282227,-6.672013282775879 -8.772930145263672,-8.116388320922852 9.303609848022461,-13.239608764648438z"></path></g></g><g style="display: block;" transform="matrix(1,0.0002454924688208848,-0.0002454924688208848,1,199.16729736328125,94.9989013671875)" opacity="1"><g opacity="1" transform="matrix(1,0,0,1,0,0)"><path stroke-linecap="round" stroke-linejoin="round" fill-opacity="0" stroke="rgb(247,126,65)" stroke-opacity="1" stroke-width="8" d=" M-14.96500015258789,-31.9060001373291 C-31.675771713256836,-28.49840545654297 -62.16899871826172,13.972000122070312 -64.2490005493164,25.81800079345703 C-66.33499908447266,37.694000244140625 -70.67033386230469,79.97476196289062 -72.86030578613281,85.43836212158203"></path></g></g><g style="display: block;" transform="matrix(1,-0.00007528438436565921,0.00007528438436565921,1,199.17755126953125,94.99310302734375)" opacity="1"><g opacity="1" transform="matrix(1,0,0,1,0,0)"><path stroke-linecap="round" stroke-linejoin="round" fill-opacity="0" stroke="rgb(247,126,65)" stroke-opacity="1" stroke-width="8" d=" M64.24352264404297,5.5892438888549805 C64.24048614501953,-3.349543571472168 47.98276901245117,-9.520421981811523 28.583999633789062,-18.900999069213867 C14.554072380065918,-25.68514633178711 -3.513890504837036,-34.23729705810547 -14.96500015258789,-31.9060001373291"></path></g></g><g style="display: block;" transform="matrix(1,-0.0002143967867596075,0.0002143967867596075,1,199.17677307128906,95.00201416015625)" opacity="1"><g opacity="1" transform="matrix(1,0,0,1,0,0)"><path stroke-linecap="round" stroke-linejoin="round" fill-opacity="0" stroke="rgb(247,126,65)" stroke-opacity="1" stroke-width="8" d=" M22.580978393554688,22.723369598388672 C25.324745178222656,13.97717571258545 8.074440002441406,4.738209247589111 -0.17098505795001984,20.9818172454834 C-11.665698051452637,43.631134033203125 17.584556579589844,43.22469711303711 23.83439064025879,43.47321701049805 C30.084224700927734,43.72173309326172 39.0813102722168,41.96943283081055 48.531471252441406,32.29416275024414 C52.08713912963867,28.65195655822754 64.24569702148438,16.33182716369629 64.24197387695312,5.585110187530518"></path></g></g><g style="display: block;" transform="matrix(1,-0.00007528438436565921,0.00007528438436565921,1,211.73208618164062,102.08514404296875)" opacity="1"><g opacity="1" transform="matrix(1,0,0,1,0,0)"><path stroke-linecap="round" stroke-linejoin="round" fill-opacity="0" stroke="rgb(247,126,65)" stroke-opacity="1" stroke-width="8" d=" M-17.199810028076172,-4.571130752563477 C-17.199810028076172,-4.571130752563477 -12.368287086486816,2.5429320335388184 -0.24028177559375763,4.295538425445557 C8.643871307373047,5.578858852386475 17.198772430419922,1.950675129890442 17.198772430419922,1.950675129890442"></path></g></g><g style="display: block;" transform="matrix(1,-0.0002143967867596075,0.0002143967867596075,1,228.93267822265625,108.54263305664062)" opacity="1"><g opacity="1" transform="matrix(1,0,0,1,0,0)"><path stroke-linecap="round" stroke-linejoin="round" fill-opacity="0" stroke="rgb(247,126,65)" stroke-opacity="1" stroke-width="8" d=" M6.786338806152344,-8.09815788269043 C6.786338806152344,-8.09815788269043 -6.789000034332275,-3.9159998893737793 -6.789000034332275,8.095999717712402"></path></g></g><g style="display: block;" transform="matrix(1,0.0002454924688208848,-0.0002454924688208848,1,195.6512908935547,111.33901977539062)" opacity="1"><g opacity="1" transform="matrix(1,0,0,1,0,0)"><path fill="rgb(255,209,64)" fill-opacity="1" d=" M-6.7820000648498535,-20.243999481201172 C-18.524999618530273,-26.732999801635742 -24.033000946044922,-11.17199993133545 -23.906999588012695,3.38100004196167 C-23.6560001373291,32.43299865722656 -2.0929999351501465,24.724000930786133 0.46799999475479126,16.631000518798828 C3.5929999351501465,6.75600004196167 2.7179999351501465,-14.994000434875488 -6.7820000648498535,-20.243999481201172z"></path></g><g opacity="1" transform="matrix(1,0,0,1,0,0)"><path stroke-linecap="round" stroke-linejoin="round" fill-opacity="0" stroke="rgb(247,126,65)" stroke-opacity="1" stroke-width="8" d=" M-2.6062493324279785,-16.751405715942383 C-2.6124846935272217,-16.747644424438477 6.413511276245117,-2.1711509227752686 0.7429059743881226,16.74972152709961"></path></g></g><g style="display: block;" transform="matrix(1,0.0003076838911511004,-0.0003076838911511004,1,0.029388427734375,12.91168212890625)" opacity="1"><g opacity="1" transform="matrix(1,0,0,1,210.14700317382812,141.83700561523438)"><path fill="rgb(255,177,57)" fill-opacity="1" d=" M3.462449550628662,31.763675689697266 C23.684873580932617,24.64240837097168 28.80352783203125,19.063312530517578 38.17332458496094,6.38978385925293 C47.54050064086914,-6.281747817993164 57.84442138671875,-10.28007698059082 57.84808349609375,-22.540327072143555 C57.85214614868164,-32.736202239990234 51.085487365722656,-38.299476623535156 44.3263053894043,-36.9788703918457 C38.551910400390625,-35.85207748413086 29.027828216552734,-30.36407470703125 21.931814193725586,-26.950408935546875 C18.290224075317383,-25.199405670166016 15.288330078125,-23.991432189941406 13.760793685913086,-24.195392608642578 C-7.034246444702148,-26.974170684814453 -20.783000946044922,-25.677000045776367 -20.783000946044922,-25.677000045776367 C-20.783000946044922,-25.677000045776367 -21.448101043701172,-13.076361656188965 -22.190824508666992,-2.998593330383301 C-23.417320251464844,13.668084144592285 -18.640350341796875,39.54669952392578 3.462449550628662,31.763675689697266z"></path></g><g opacity="1" transform="matrix(1,0,0,1,210.14700317382812,141.83700561523438)"><path fill="rgb(255,209,64)" fill-opacity="1" d=" M-40.99599838256836,35.69499969482422 C-28.264999389648438,37.02000045776367 -18.640350341796875,39.54669952392578 3.462449550628662,31.763675689697266 C23.684873580932617,24.64240837097168 28.116849899291992,18.72846794128418 37.92344284057617,6.38978385925293 C41.9751091003418,1.291699767112732 45.3614501953125,-4.084955215454102 46.852664947509766,-7.421197414398193 C54.86514663696289,-25.34198760986328 42.98945617675781,-35.465057373046875 29.077587127685547,-26.72823143005371 C24.128456115722656,-23.619918823242188 23.243270874023438,-25.33632469177246 20.43424415588379,-24.82329750061035 C16.458812713623047,-24.09781265258789 15.292159080505371,-23.989055633544922 13.764622688293457,-24.19301414489746 C-7.0304179191589355,-26.971792221069336 -20.783000946044922,-25.677000045776367 -20.783000946044922,-25.677000045776367 C-20.783000946044922,-25.677000045776367 -47.244998931884766,-24.506999969482422 -55.92499923706055,0 C-64.6050033569336,24.506999969482422 -40.99599838256836,35.69499969482422 -40.99599838256836,35.69499969482422z"></path></g><g opacity="1" transform="matrix(1,0,0,1,215.89999389648438,154.0800018310547)"><path fill="rgb(255,177,57)" fill-opacity="1" d=" M50.33945083618164,-26.876205444335938 C50.33945083618164,-26.876205444335938 38.51346206665039,-22.01219367980957 27.593929290771484,-12.243131637573242 C9.173823356628418,4.235417366027832 -5.752999782562256,6.124000072479248 -26.488000869750977,7.49399995803833 C-48.70399856567383,8.961999893188477 -50.33399963378906,23.305999755859375 -50.33399963378906,23.305999755859375 C-47.14899826049805,29.766000747680664 -5.75490140914917,28.234458923339844 15.198099136352539,12.31045913696289 C30.316099166870117,0.8204590082168579 37.565452575683594,-17.28510284423828 50.33945083618164,-26.876205444335938z"></path></g><g opacity="1" transform="matrix(1,0,0,1,218.57000732421875,141.83700561523438)"><path stroke-linecap="round" stroke-linejoin="round" fill-opacity="0" stroke="rgb(247,126,65)" stroke-opacity="1" stroke-width="8" d=" M-29.204999923706055,-25.677000045776367 C-29.200109481811523,-25.676433563232422 -18.238908767700195,-29.32452392578125 5.3380513191223145,-24.19569206237793 C8.18307876586914,-23.576929092407227 16.365018844604492,-28.308664321899414 24.169780731201172,-32.23116683959961 C28.529664993286133,-34.422271728515625 32.769779205322266,-36.370365142822266 35.903465270996094,-36.97908020019531 C42.663291931152344,-38.29925537109375 49.427616119384766,-32.73470687866211 49.425235748291016,-22.540369033813477 C49.42280960083008,-10.280904769897461 39.118473052978516,-6.281419277191162 29.751419067382812,6.389886856079102 C20.382844924926758,19.06230354309082 15.262683868408203,24.642709732055664 -4.960564136505127,31.763994216918945 C-27.065771102905273,39.547340393066406 -36.6879997253418,37.02000045776367 -49.41899871826172,35.69499969482422"></path></g></g><g style="display: none;"><g><path></path></g></g><g style="display: block;" transform="matrix(0.46629977226257324,0.8846267461776733,-0.8846267461776733,0.46629977226257324,341.72076416015625,249.11734008789062)" opacity="1"><g opacity="1" transform="matrix(1,0,0,1,11.996999740600586,13.041000366210938)"><path fill="rgb(255,177,57)" fill-opacity="1" d=" M116.45500183105469,164.51800537109375 C106.49700164794922,182.11099243164062 103.78299713134766,186.1540069580078 79.75800323486328,220.38699340820312 C72.52300262451172,230.6959991455078 88.30599975585938,218.70700073242188 94.04100036621094,212.34100341796875 C101.36499786376953,204.2100067138672 122.88899993896484,172.4709930419922 124.44599914550781,163.4029998779297 C126.89399719238281,149.14700317382812 121.27100372314453,156.00900268554688 116.45500183105469,164.51800537109375z"></path></g></g><g style="display: block;" transform="matrix(0.9984352588653564,0.055919546633958817,-0.055919546633958817,0.9984352588653564,264.441162109375,225.34498596191406)" opacity="0.04"><g opacity="1" transform="matrix(1,0,0,1,0,0)"><path fill="rgb(255,223,121)" fill-opacity="1" d=" M19.822999954223633,160 C26.974000930786133,161.875 27.375,159.5 20.749000549316406,157.125 C9.857999801635742,153.2209930419922 -9.019000053405762,154.9810028076172 -16.524999618530273,157.75 C-22.625,160 -20.92300033569336,161.73800659179688 -15.579000473022461,160.65899658203125 C-8.604000091552734,159.25 -2.3610000610351562,158.63699340820312 2.799999952316284,158.5 C7.5,158.375 12.586999893188477,158.10299682617188 19.822999954223633,160z"></path></g></g><g style="display: block;" transform="matrix(0.9984352588653564,0.055919546633958817,-0.055919546633958817,0.9984352588653564,354.5433654785156,243.912841796875)" opacity="0.04"><g opacity="1" transform="matrix(1,0,0,1,0,0)"><path fill="rgb(255,223,121)" fill-opacity="1" d=" M18.69099998474121,150.031005859375 C14,147.5 2.6080000400543213,149.03500366210938 -2.6579999923706055,149.46200561523438 C-12.375,150.25 -29.125,153.5 -29.07699966430664,158.2429962158203 C-29.048999786376953,161.00100708007812 -18.875,156.25 -3.1640000343322754,154.52200317382812 C9.871000289916992,153.08799743652344 26.441999435424805,154.21299743652344 18.69099998474121,150.031005859375z"></path></g></g><g style="display: block;" transform="matrix(0.9984352588653564,0.055919546633958817,-0.055919546633958817,0.9984352588653564,426.8904113769531,212.90992736816406)" opacity="0.04"><g opacity="1" transform="matrix(1,0,0,1,0,0)"><path fill="rgb(255,223,121)" fill-opacity="1" d=" M-6.918000221252441,145.15199279785156 C-7.7829999923706055,142.875 -9.336999893188477,145.70399475097656 -13.571000099182129,150.50900268554688 C-15.572999954223633,152.781005859375 -18.33300018310547,154.8489990234375 -19.382999420166016,156.552001953125 C-21.0310001373291,159.2259979248047 -15.553999900817871,155.7989959716797 -11.402999877929688,151.7239990234375 C-7.892000198364258,148.2779998779297 -6.25,146.91000366210938 -6.918000221252441,145.15199279785156z"></path></g></g><g style="display: block;" transform="matrix(0.9984352588653564,0.055919546633958817,-0.055919546633958817,0.9984352588653564,265.3958740234375,228.403076171875)" opacity="1"><g opacity="1" transform="matrix(1,0,0,1,0,0)"><path stroke-linecap="round" stroke-linejoin="miter" fill-opacity="0" stroke-miterlimit="4" stroke="rgb(255,255,255)" stroke-opacity="1" stroke-width="2" d="M0 0"></path></g></g></g></svg>