<svg xmlns="http://www.w3.org/2000/svg" viewBox="0 0 512 512" width="512" height="512" style="width: 100%; height: 100%; transform: translate3d(0,0,0);" preserveAspectRatio="xMidYMid meet"><defs><clipPath id="__lottie_element_16747"><rect width="512" height="512" x="0" y="0"></rect></clipPath><linearGradient id="__lottie_element_16775" spreadMethod="pad" gradientUnits="userSpaceOnUse" x1="-0.4749999940395355" y1="-179.052001953125" x2="4.525000095367432" y2="129.44200134277344"><stop offset="0%" stop-color="rgb(40,98,240)" stop-opacity="1"></stop><stop offset="48%" stop-color="rgb(139,146,167)" stop-opacity="0.5189999938011169"></stop><stop offset="60%" stop-color="rgb(239,194,93)" stop-opacity="0.03700000047683716"></stop></linearGradient><linearGradient id="__lottie_element_16776" spreadMethod="pad" gradientUnits="userSpaceOnUse" x1="13" y1="-175" x2="15.045999526977539" y2="117.47100067138672"><stop offset="0%" stop-color="rgb(41,49,169)" stop-opacity="1"></stop><stop offset="50%" stop-color="rgb(148,83,106)" stop-opacity="0.5"></stop><stop offset="74%" stop-color="rgb(255,118,42)" stop-opacity="0"></stop></linearGradient></defs><g clip-path="url(#__lottie_element_16747)"><g style="display: block;" transform="matrix(1,0,0,1,273,256)" opacity="1"><g opacity="0.1" transform="matrix(1,0,0,1,0,0)"><path fill="rgb(0,0,0)" fill-opacity="1" d=" M196.02499389648438,3.924999952316284 C196.02499389648438,112.18599700927734 108.26100158691406,199.9499969482422 0,199.9499969482422 C-108.26100158691406,199.9499969482422 -196.02499389648438,112.18599700927734 -196.02499389648438,3.924999952316284 C-196.02499389648438,-104.33599853515625 -108.26100158691406,-192.0989990234375 0,-192.0989990234375 C108.26100158691406,-192.0989990234375 196.02499389648438,-104.33599853515625 196.02499389648438,3.924999952316284z"></path></g><g opacity="1" transform="matrix(1,0,0,1,0,0)"><path fill="rgb(255,173,0)" fill-opacity="1" d=" M188.875,-11.074999809265137 C188.875,93.23799896240234 104.31300354003906,177.80099487304688 0,177.80099487304688 C-104.31300354003906,177.80099487304688 -188.875,93.23799896240234 -188.875,-11.074999809265137 C-188.875,-115.38800048828125 -104.31300354003906,-199.9499969482422 0,-199.9499969482422 C104.31300354003906,-199.9499969482422 188.875,-115.38800048828125 188.875,-11.074999809265137z"></path><path stroke-linecap="butt" stroke-linejoin="miter" fill-opacity="0" stroke-miterlimit="10" stroke="rgb(255,118,42)" stroke-opacity="1" stroke-width="8" d=" M188.875,-11.074999809265137 C188.875,93.23799896240234 104.31300354003906,177.80099487304688 0,177.80099487304688 C-104.31300354003906,177.80099487304688 -188.875,93.23799896240234 -188.875,-11.074999809265137 C-188.875,-115.38800048828125 -104.31300354003906,-199.9499969482422 0,-199.9499969482422 C104.31300354003906,-199.9499969482422 188.875,-115.38800048828125 188.875,-11.074999809265137z"></path></g><g opacity="1" transform="matrix(1,0,0,1,0,0)"><path fill="rgb(255,207,0)" fill-opacity="1" d=" M168.40699768066406,-10.362000465393066 C166.9499969482422,84.66699981689453 90.39600372314453,160.5469970703125 -2.5820000171661377,159.1219940185547 C-95.55999755859375,157.69700622558594 -169.7530059814453,79.50499725341797 -168.29600524902344,-15.52299976348877 C-166.83900451660156,-110.552001953125 -90.28500366210938,-186.4320068359375 2.693000078201294,-185.0070037841797 C95.6709976196289,-183.58200073242188 169.86399841308594,-105.39099884033203 168.40699768066406,-10.362000465393066z"></path></g><g opacity="0" transform="matrix(1,0,0,1,0,0)"><path fill="rgb(255,222,102)" fill-opacity="1" d=" M149.26699829101562,-53.50299835205078 C149.26699829101562,19.139999389648438 82.43800354003906,-38.32500076293945 0,-38.32500076293945 C-82.43800354003906,-38.32500076293945 -149.26699829101562,19.139999389648438 -149.26699829101562,-53.50299835205078 C-149.26699829101562,-126.14600372314453 -82.43800354003906,-185.03599548339844 0,-185.03599548339844 C82.43800354003906,-185.03599548339844 149.26699829101562,-126.14600372314453 149.26699829101562,-53.50299835205078z"></path></g><g opacity="1" transform="matrix(1,0,0,1,0,-7.5)"><path fill="url(#__lottie_element_16775)" fill-opacity="1" d=" M-0.11500000208616257,-197.0919952392578 C-106.45800018310547,-197.0919952392578 -192.97500610351562,-110.57099914550781 -192.97500610351562,-4.2220001220703125 C-192.97500610351562,57.19900131225586 -155.125,91.83000183105469 -127.48899841308594,117.11599731445312 C-125.61000061035156,118.83499908447266 -123.76899719238281,120.51899719238281 -121.98100280761719,122.17400360107422 C-68.25199890136719,171.87899780273438 -39.44499969482422,192.6580047607422 -0.11500000208616257,192.6580047607422 C39.215999603271484,192.6580047607422 68.02300262451172,171.87899780273438 121.75199890136719,122.17400360107422 C123.54100036621094,120.51799774169922 125.38300323486328,118.83399963378906 127.26200103759766,117.11399841308594 C154.8979949951172,91.8280029296875 192.7449951171875,57.198001861572266 192.7449951171875,-4.2220001220703125 C192.7449951171875,-110.57099914550781 106.22899627685547,-197.0919952392578 -0.11500000208616257,-197.0919952392578z"></path></g><g opacity="1" transform="matrix(1,0,0,1,0,0)"><g opacity="1" transform="matrix(1,0,0,1,0,0)"><path stroke-linecap="round" stroke-linejoin="round" fill-opacity="0" stroke="rgb(255,255,255)" stroke-opacity="1" stroke-width="6" d=" M36.37300109863281,-180.8159942626953 C37.9109992980957,-180.4810028076172 39.50600051879883,-180.11199951171875 41.150001525878906,-179.70599365234375"></path></g><g opacity="1" transform="matrix(1,0,0,1,0,0)"><path stroke-linecap="round" stroke-linejoin="round" fill-opacity="0" stroke="rgb(255,255,255)" stroke-opacity="1" stroke-width="6" d=" M15.017999649047852,-184.03599548339844 C15.017999649047852,-184.03599548339844 19.885000228881836,-183.77499389648438 27.607999801635742,-182.4969940185547"></path></g></g><g opacity="1" transform="matrix(1.003999948501587,0,0,1.003999948501587,-15.5,0)"><path fill="url(#__lottie_element_16776)" fill-opacity="1" d=" M15.484999656677246,181.80099487304688 C-90.86699676513672,181.80099487304688 -177.38999938964844,95.2770004272461 -177.38999938964844,-11.074999809265137 C-177.38999938964844,-117.427001953125 -90.86699676513672,-203.9499969482422 15.484999656677246,-203.9499969482422 C121.83799743652344,-203.9499969482422 208.36099243164062,-117.427001953125 208.36099243164062,-11.074999809265137 C208.36099243164062,95.2770004272461 121.83799743652344,181.80099487304688 15.484999656677246,181.80099487304688z M15.484999656677246,-195.9499969482422 C-86.45500183105469,-195.9499969482422 -169.38999938964844,-113.01499938964844 -169.38999938964844,-11.074999809265137 C-169.38999938964844,90.86599731445312 -86.45500183105469,173.80099487304688 15.484999656677246,173.80099487304688 C117.4260025024414,173.80099487304688 200.36099243164062,90.86599731445312 200.36099243164062,-11.074999809265137 C200.36099243164062,-113.01499938964844 117.4260025024414,-195.9499969482422 15.484999656677246,-195.9499969482422z"></path></g><g opacity="0.3" transform="matrix(1,0,0,1,0,0)"><path fill="rgb(255,255,255)" fill-opacity="1" d=" M149.16600036621094,-46.64699935913086 C149.16600036621094,25.996000289916992 82.33699798583984,-31.468000411987305 -0.10100000351667404,-31.468000411987305 C-82.53900146484375,-31.468000411987305 -149.36900329589844,25.996000289916992 -149.36900329589844,-46.64699935913086 C-149.36900329589844,-119.29000091552734 -82.53900146484375,-178.1790008544922 -0.10100000351667404,-178.1790008544922 C82.33699798583984,-178.1790008544922 149.16600036621094,-119.29000091552734 149.16600036621094,-46.64699935913086z"></path></g></g><g style="display: block;" transform="matrix(1,0,0,1,290.5,272)" opacity="1"><g opacity="1" transform="matrix(1,0,0,1,0,0)"><path fill="rgb(255,225,156)" fill-opacity="1" d=" M-50.422000885009766,-14.520999908447266 C-50.422000885009766,3.3369998931884766 -61.064998626708984,17.812999725341797 -74.19400024414062,17.812999725341797 C-87.322998046875,17.812999725341797 -97.96499633789062,3.3369998931884766 -97.96499633789062,-14.520999908447266 C-97.96499633789062,-32.37900161743164 -87.322998046875,-46.85599899291992 -74.19400024414062,-46.85599899291992 C-61.064998626708984,-46.85599899291992 -50.422000885009766,-32.37900161743164 -50.422000885009766,-14.520999908447266z"></path></g><g opacity="1" transform="matrix(1,0,0,1,0,0)"><path fill="rgb(164,194,179)" fill-opacity="1" d=" M-50.422000885009766,-17.850000381469727 C-50.422000885009766,-1.8300000429153442 -61.064998626708984,11.156000137329102 -74.19400024414062,11.156000137329102 C-87.322998046875,11.156000137329102 -97.96499633789062,-1.8300000429153442 -97.96499633789062,-17.850000381469727 C-97.96499633789062,-33.869998931884766 -87.322998046875,-46.85599899291992 -74.19400024414062,-46.85599899291992 C-61.064998626708984,-46.85599899291992 -50.422000885009766,-33.869998931884766 -50.422000885009766,-17.850000381469727z"></path></g><g opacity="1" transform="matrix(1,0,0,1,0,0)"><path fill="rgb(143,58,0)" fill-opacity="1" d=" M-52.33599853515625,-14.663999557495117 C-52.33599853515625,0.43299999833106995 -62.12300109863281,12.670999526977539 -74.19400024414062,12.670999526977539 C-86.26499938964844,12.670999526977539 -96.0510025024414,0.43299999833106995 -96.0510025024414,-14.663999557495117 C-96.0510025024414,-29.76099967956543 -86.26499938964844,-41.999000549316406 -74.19400024414062,-41.999000549316406 C-62.12300109863281,-41.999000549316406 -52.33599853515625,-29.76099967956543 -52.33599853515625,-14.663999557495117z"></path></g><g opacity="1" transform="matrix(1,0,0,1,0,0)"><path fill="rgb(107,32,0)" fill-opacity="1" d=" M-52.33399963378906,-14.659000396728516 C-52.33399963378906,-13.458999633789062 -52.39400100708008,-12.279000282287598 -52.52399826049805,-11.119000434875488 C-53.90399932861328,-24.548999786376953 -63.08399963378906,-34.92900085449219 -74.19400024414062,-34.92900085449219 C-85.30400085449219,-34.92900085449219 -94.48300170898438,-24.548999786376953 -95.86299896240234,-11.119000434875488 C-95.99299621582031,-12.279000282287598 -96.0530014038086,-13.458999633789062 -96.0530014038086,-14.659000396728516 C-96.0530014038086,-29.759000778198242 -86.26399993896484,-41.999000549316406 -74.19400024414062,-41.999000549316406 C-62.124000549316406,-41.999000549316406 -52.33399963378906,-29.759000778198242 -52.33399963378906,-14.659000396728516z"></path></g></g><g style="display: block;" transform="matrix(1,0,0,1,406,272)" opacity="1"><g opacity="1" transform="matrix(1,0,0,1,0,0)"><path fill="rgb(255,225,156)" fill-opacity="1" d=" M-50.422000885009766,-14.520999908447266 C-50.422000885009766,3.3369998931884766 -61.064998626708984,17.812999725341797 -74.19400024414062,17.812999725341797 C-87.322998046875,17.812999725341797 -97.96499633789062,3.3369998931884766 -97.96499633789062,-14.520999908447266 C-97.96499633789062,-32.37900161743164 -87.322998046875,-46.85599899291992 -74.19400024414062,-46.85599899291992 C-61.064998626708984,-46.85599899291992 -50.422000885009766,-32.37900161743164 -50.422000885009766,-14.520999908447266z"></path></g><g opacity="1" transform="matrix(1,0,0,1,0,0)"><path fill="rgb(164,194,179)" fill-opacity="1" d=" M-50.422000885009766,-17.850000381469727 C-50.422000885009766,-1.8300000429153442 -61.064998626708984,11.156000137329102 -74.19400024414062,11.156000137329102 C-87.322998046875,11.156000137329102 -97.96499633789062,-1.8300000429153442 -97.96499633789062,-17.850000381469727 C-97.96499633789062,-33.869998931884766 -87.322998046875,-46.85599899291992 -74.19400024414062,-46.85599899291992 C-61.064998626708984,-46.85599899291992 -50.422000885009766,-33.869998931884766 -50.422000885009766,-17.850000381469727z"></path></g><g opacity="1" transform="matrix(1,0,0,1,0,0)"><path fill="rgb(143,58,0)" fill-opacity="1" d=" M-52.33599853515625,-14.663999557495117 C-52.33599853515625,0.43299999833106995 -62.12300109863281,12.670999526977539 -74.19400024414062,12.670999526977539 C-86.26499938964844,12.670999526977539 -96.0510025024414,0.43299999833106995 -96.0510025024414,-14.663999557495117 C-96.0510025024414,-29.76099967956543 -86.26499938964844,-41.999000549316406 -74.19400024414062,-41.999000549316406 C-62.12300109863281,-41.999000549316406 -52.33599853515625,-29.76099967956543 -52.33599853515625,-14.663999557495117z"></path></g><g opacity="1" transform="matrix(1,0,0,1,0,0)"><path fill="rgb(107,32,0)" fill-opacity="1" d=" M-52.33399963378906,-14.659000396728516 C-52.33399963378906,-13.458999633789062 -52.39400100708008,-12.279000282287598 -52.52399826049805,-11.119000434875488 C-53.90399932861328,-24.548999786376953 -63.08399963378906,-34.92900085449219 -74.19400024414062,-34.92900085449219 C-85.30400085449219,-34.92900085449219 -94.48300170898438,-24.548999786376953 -95.86299896240234,-11.119000434875488 C-95.99299621582031,-12.279000282287598 -96.0530014038086,-13.458999633789062 -96.0530014038086,-14.659000396728516 C-96.0530014038086,-29.759000778198242 -86.26399993896484,-41.999000549316406 -74.19400024414062,-41.999000549316406 C-62.124000549316406,-41.999000549316406 -52.33399963378906,-29.759000778198242 -52.33399963378906,-14.659000396728516z"></path></g></g><g style="display: none;"><g><path></path></g><g><path></path></g><g><path></path></g><g><path></path></g></g><g style="display: block;" transform="matrix(1,0,0,1,257.25,256.25)" opacity="1"><g opacity="1" transform="matrix(1,0,0,1,0,0)"><path fill="rgb(255,225,156)" fill-opacity="1" d=" M62.1609992980957,126.75 C51.85499954223633,126.53399658203125 38.92300033569336,122.75 15.553000450134277,122.25 C-7.816999912261963,121.75 -22.885000228881836,125.93099975585938 -30.878000259399414,126.75 C-47.13600158691406,128.41700744628906 -52.21099853515625,114.62899780273438 -49.698001861572266,105 C-45.72200012207031,89.76799774169922 -9.838000297546387,83 15.494000434875488,83 C40.82600021362305,83 78.06500244140625,91 80.71600341796875,106 C82.29900360107422,114.95999908447266 77.41000366210938,127.06900024414062 62.1609992980957,126.75z"></path></g><g opacity="1" transform="matrix(1,0,0,1,0,0)"><path fill="rgb(255,173,0)" fill-opacity="1" d=" M61.12699890136719,114.75 C51.04899978637695,114.53399658203125 -22.040000915527344,113.93099975585938 -29.85700035095215,114.75 C-45.755001068115234,116.41699981689453 -50.33700180053711,107.41699981689453 -48.85300064086914,97.60399627685547 C-46.013999938964844,78.83300018310547 -9.281000137329102,71 15.491000175476074,71 C40.26300048828125,71 79.54900360107422,78.66699981689453 79.36799621582031,99.94400024414062 C79.29100036621094,109.0270004272461 76.03900146484375,115.06900024414062 61.12699890136719,114.75z"></path></g><g opacity="1" transform="matrix(1,0,0,1,0,0)"><path fill="rgb(143,58,0)" fill-opacity="1" d=" M61.12699890136719,121.75 C56.66699981689453,121.65499877929688 51.70399856567383,120.86000061035156 45.57600021362305,119.96099853515625 C37.856998443603516,118.8280029296875 28.288000106811523,117.52899932861328 15.54800033569336,117.25 C3.1510000228881836,116.97899627685547 -6.855999946594238,118.08499908447266 -14.666999816894531,119.28500366210938 C-21.2549991607666,120.2969970703125 -26.280000686645508,121.375 -29.85700035095215,121.75 C-45.755001068115234,123.41699981689453 -50.71900177001953,109.62899780273438 -48.26100158691406,100 C-44.37300109863281,84.76799774169922 -9.281000137329102,78 15.491000175476074,78 C40.26300048828125,78 76.68000030517578,86 79.27200317382812,101 C80.81999969482422,109.95999908447266 76.03900146484375,122.06900024414062 61.12699890136719,121.75z"></path></g><g opacity="1" transform="matrix(1,0,0,1,0,0)"><path fill="rgb(107,32,0)" fill-opacity="1" d=" M-48.26100158691406,109 C-44.37300109863281,93.76799774169922 -9.281000137329102,87 15.491000175476074,87 C39.65299987792969,87 74.8759994506836,94.61399841308594 79.00299835205078,108.90799713134766 C79.64099884033203,106.25299835205078 79.70500183105469,103.50299835205078 79.27200317382812,101 C76.68000030517578,86 40.26300048828125,78 15.491000175476074,78 C-9.281000137329102,78 -44.37300109863281,84.76799774169922 -48.26100158691406,100 C-49.00699996948242,102.9219970703125 -49.0629997253418,106.22699737548828 -48.34400177001953,109.36699676513672 C-48.316001892089844,109.24500274658203 -48.29199981689453,109.12100219726562 -48.26100158691406,109z"></path></g></g><g style="display: none;"><g><path></path></g></g><g style="display: none;"><g><path></path></g></g><g style="display: none;"><g><g><path></path></g><g><path></path></g></g><g><path></path></g></g><g style="display: none;"><g><g><path></path></g><g><path></path></g></g><g><path></path></g></g><g style="display: block;" transform="matrix(1,0,0,1,-629,256)" opacity="1"><g opacity="1" transform="matrix(1,0,0,1,0,0)"><g opacity="1" transform="matrix(1,0,0,1,0,0)"><path fill="rgb(147,193,230)" fill-opacity="1" d=" M751.385986328125,-66.625 C751.4030151367188,-66.5979995727539 751.3590087890625,-66.6500015258789 751.385986328125,-66.625 C752.6680297851562,-65.32599639892578 757.2100219726562,-61.12300109863281 760.35400390625,-60.439998626708984 C773.9650268554688,-57.430999755859375 797.948974609375,-60.19300079345703 815.958984375,-76.25900268554688 C828.7969970703125,-87.71499633789062 833.8499755859375,-99.93199920654297 834.9550170898438,-105.427001953125 C839.25,-101.875 838.0460205078125,-88.6760025024414 817.4039916992188,-70.25900268554688 C799.3939819335938,-54.19300079345703 775.4099731445312,-51.430999755859375 761.801025390625,-54.430999755859375 C758.655029296875,-55.12300109863281 755.0570068359375,-56.87099838256836 753.7750244140625,-58.16999816894531 C750.7880249023438,-60.875 750.1389770507812,-64.87999725341797 751.385986328125,-66.625z"></path></g><g opacity="1" transform="matrix(1,0,0,1,0,0)"><path fill="rgb(32,66,129)" fill-opacity="1" d=" M753.3159790039062,-61.22999954223633 C754.583984375,-59.926998138427734 758.7039794921875,-58.058998107910156 761.8079833984375,-57.36199951171875 C775.2559814453125,-54.34000015258789 800.510009765625,-60.56999969482422 818.2750244140625,-76.61599731445312 C843.573974609375,-99.46600341796875 834.9080200195312,-111.59700012207031 829.3330078125,-106.98100280761719 C823.7579956054688,-102.36499786376953 804.9509887695312,-82.49700164794922 774.1409912109375,-76.072998046875 C765.885009765625,-74.35199737548828 759.8579711914062,-74.04399871826172 755.3709716796875,-72.68800354003906 C749.4439697265625,-70.89700317382812 749.8369750976562,-64.80699920654297 753.3159790039062,-61.22999954223633z"></path></g><g opacity="1" transform="matrix(1,0,0,1,0,0)"><path fill="rgb(49,92,139)" fill-opacity="1" d=" M753.3159790039062,-61.22999954223633 C755.072998046875,-59.97999954223633 758.39599609375,-58.821998596191406 761.5,-58.125 C774.947998046875,-55.10300064086914 797.8179931640625,-58.2869987487793 815.5830078125,-74.33300018310547 C840.8820190429688,-97.18299865722656 835.3610229492188,-106.48600006103516 829.7860107421875,-101.87000274658203 C824.2109985351562,-97.25399780273438 806.6849975585938,-76.54900360107422 775.875,-70.125 C767.6190185546875,-68.40399932861328 761.0360107421875,-67.197998046875 757.25,-66.875 C751.4420166015625,-66.66699981689453 749.593994140625,-64.31199645996094 753.3159790039062,-61.22999954223633z"></path></g></g><g opacity="1" transform="matrix(1,0,0,1,0,0)"><g opacity="1" transform="matrix(1,0,0,1,0,0)"><path fill="rgb(147,193,230)" fill-opacity="1" d=" M1055.364990234375,-66.625 C1055.3480224609375,-66.5979995727539 1055.3919677734375,-66.6500015258789 1055.364990234375,-66.625 C1054.0830078125,-65.32599639892578 1049.5400390625,-61.12300109863281 1046.39599609375,-60.439998626708984 C1032.7850341796875,-57.430999755859375 1008.801025390625,-60.19300079345703 990.791015625,-76.25900268554688 C977.9530029296875,-87.71499633789062 972.9010009765625,-99.93199920654297 971.7960205078125,-105.427001953125 C967.5009765625,-101.875 968.7050170898438,-88.6760025024414 989.3469848632812,-70.25900268554688 C1007.3569946289062,-54.19300079345703 1031.3399658203125,-51.430999755859375 1044.948974609375,-54.430999755859375 C1048.094970703125,-55.12300109863281 1051.6929931640625,-56.87099838256836 1052.9749755859375,-58.16999816894531 C1055.9620361328125,-60.875 1056.612060546875,-64.87999725341797 1055.364990234375,-66.625z"></path></g><g opacity="1" transform="matrix(1,0,0,1,0,0)"><path fill="rgb(32,66,129)" fill-opacity="1" d=" M1053.4339599609375,-61.22999954223633 C1052.166015625,-59.926998138427734 1048.0460205078125,-58.058998107910156 1044.9420166015625,-57.36199951171875 C1031.4940185546875,-54.34000015258789 1006.239990234375,-60.56999969482422 988.4749755859375,-76.61599731445312 C963.176025390625,-99.46600341796875 971.8419799804688,-111.59700012207031 977.4169921875,-106.98100280761719 C982.9920043945312,-102.36499786376953 1001.7999877929688,-82.49700164794922 1032.6099853515625,-76.072998046875 C1040.865966796875,-74.35199737548828 1046.8929443359375,-74.04399871826172 1051.3800048828125,-72.68800354003906 C1057.3070068359375,-70.89700317382812 1056.9129638671875,-64.80699920654297 1053.4339599609375,-61.22999954223633z"></path></g><g opacity="1" transform="matrix(1,0,0,1,0,0)"><path fill="rgb(49,92,139)" fill-opacity="1" d=" M1053.4339599609375,-61.22999954223633 C1051.677001953125,-59.97999954223633 1048.35400390625,-58.821998596191406 1045.25,-58.125 C1031.802001953125,-55.10300064086914 1008.9320068359375,-58.2869987487793 991.1669921875,-74.33300018310547 C965.8679809570312,-97.18299865722656 971.3889770507812,-106.48600006103516 976.9639892578125,-101.87000274658203 C982.5390014648438,-97.25399780273438 1000.0650024414062,-76.54900360107422 1030.875,-70.125 C1039.1309814453125,-68.40399932861328 1045.7139892578125,-67.197998046875 1049.5,-66.875 C1055.3079833984375,-66.66699981689453 1057.156005859375,-64.31199645996094 1053.4339599609375,-61.22999954223633z"></path></g></g></g><g style="display: none;"><g><path></path></g></g><g style="display: none;"><g><path></path></g><g><g><path></path></g><g><path></path></g><g><path></path></g><g><path></path></g></g><g><path></path></g><g><path stroke-linecap="round" stroke-linejoin="round" fill-opacity="0"></path></g><g><g><path stroke-linecap="round" stroke-linejoin="round" fill-opacity="0"></path></g><g><path stroke-linecap="round" stroke-linejoin="round" fill-opacity="0"></path></g></g></g><g style="display: none;"><g><path></path></g><g><g><path></path></g><g><path></path></g><g><path></path></g><g><path></path></g></g><g><path></path></g><g><path stroke-linecap="round" stroke-linejoin="round" fill-opacity="0"></path></g><g><g><path stroke-linecap="round" stroke-linejoin="round" fill-opacity="0"></path></g><g><path stroke-linecap="round" stroke-linejoin="round" fill-opacity="0"></path></g></g></g><g style="display: none;"><g><path></path></g><g><g><path></path></g><g><path></path></g><g><path></path></g><g><path></path></g></g><g><path></path></g><g><path stroke-linecap="round" stroke-linejoin="round" fill-opacity="0"></path></g><g><g><path stroke-linecap="round" stroke-linejoin="round" fill-opacity="0"></path></g><g><path stroke-linecap="round" stroke-linejoin="round" fill-opacity="0"></path></g></g></g><g style="display: block;" transform="matrix(1,0,0,1,257,255.99998474121094)" opacity="1"><g opacity="1" transform="matrix(1,0,0,1,0,0)"><path fill="rgb(255,173,0)" fill-opacity="1" d=" M-67.96199798583984,102.94400024414062 C-70.25,124.88800048828125 -84.25,135 -94.33300018310547,135 C-112.7770004272461,118.30000305175781 -138.39500427246094,23.527999877929688 -117.06400299072266,-0.5659999847412109 C-90.43299865722656,30.253999710083008 -63.50699996948242,73.9260025024414 -67.96199798583984,102.94400024414062z"></path></g></g><g style="display: block;" transform="matrix(1,0,0,1,257,255.99998474121094)" opacity="1"><g opacity="1" transform="matrix(1,0,0,1,0,0)"><path fill="rgb(58,162,222)" fill-opacity="1" d=" M-160.61500549316406,88.80500030517578 C-163.5,135 -85.19200134277344,150.41200256347656 -79.197998046875,88.51100158691406 C-77.03099822998047,66.13300323486328 -120.45099639892578,-3.7170000076293945 -120.45099639892578,-3.7170000076293945 C-120.45099639892578,-3.7170000076293945 -159.21400451660156,66.36599731445312 -160.61500549316406,88.80500030517578z"></path></g><g opacity="0.61" transform="matrix(1,0,0,1,0,0)"><g opacity="0.3" transform="matrix(1,0,0,1,0,0)"><path fill="rgb(144,243,253)" fill-opacity="1" d=" M-86.44100189208984,104.27400207519531 C-84.61299896240234,82.43399810791016 -102.86299896240234,64.87699890136719 -122.26699829101562,65.22100067138672 C-134.92799377441406,65.44300079345703 -161.66600036621094,79.16699981689453 -152.7310028076172,110.83699798583984 C-142.47999572753906,134.4499969482422 -89.14800262451172,136.61599731445312 -86.44100189208984,104.27400207519531z"></path></g><g opacity="0.4" transform="matrix(1,0,0,1,0,0)"><path fill="rgb(144,243,253)" fill-opacity="1" d=" M-91.3219985961914,105.8290023803711 C-91.3219985961914,87.48100280761719 -105.06600189208984,72.8489990234375 -121.29499816894531,73.13700103759766 C-137.53599548339844,73.4219970703125 -151.23399353027344,88.55799865722656 -150.10899353027344,106.86000061035156 C-148.32200622558594,135.91799926757812 -91.3219985961914,132.9499969482422 -91.3219985961914,105.8290023803711z"></path></g><g opacity="0.4" transform="matrix(1,0,0,1,0,0)"><path fill="rgb(144,243,253)" fill-opacity="1" d=" M-121.48600006103516,80.46499633789062 C-134.7010040283203,80.6969985961914 -145.86399841308594,93.01200103759766 -144.94000244140625,107.91100311279297 C-143.16700744628906,136.5 -94.83399963378906,136.16700744628906 -97.08300018310547,107.06999969482422 C-98.23400115966797,92.18599700927734 -108.27100372314453,80.23300170898438 -121.48600006103516,80.46499633789062z"></path></g><g opacity="0.4" transform="matrix(1,0,0,1,0,0)"><path fill="rgb(144,243,253)" fill-opacity="1" d=" M-120.802001953125,90.08100128173828 C-130.58299255371094,90.25299835205078 -138.15899658203125,99.34600067138672 -138.16099548339844,110.3949966430664 C-138.1649932861328,129.38999938964844 -101.15599822998047,129.38999938964844 -102.73999786376953,109.77200317382812 C-103.62899780273438,98.75900268554688 -111.02100372314453,89.90899658203125 -120.802001953125,90.08100128173828z"></path></g></g><g opacity="0.55" transform="matrix(1,0,0,1,0,0)"><path fill="rgb(255,255,255)" fill-opacity="1" d=" M-144.08900451660156,72.64600372314453 C-144.04299926757812,85.41600036621094 -132.6529998779297,95.73100280761719 -119.88300323486328,95.68499755859375 C-107.11299896240234,95.63899993896484 -95.79900360107422,85.2490005493164 -95.84500122070312,72.47899627685547 C-95.88400268554688,61.641998291015625 -113.3479995727539,15.368000030517578 -118.63500213623047,1.6069999933242798 C-119.16100311279297,0.2370000034570694 -121.09500122070312,0.24199999868869781 -121.61499786376953,1.6139999628067017 C-126.84500122070312,15.406999588012695 -144.1280059814453,61.80799865722656 -144.08900451660156,72.64600372314453z"></path></g><g opacity="1" transform="matrix(1,0,0,1,0,0)"><path stroke-linecap="round" stroke-linejoin="round" fill-opacity="0" stroke="rgb(0,109,196)" stroke-opacity="1" stroke-width="8" d=" M-160.61500549316406,88.80500030517578 C-160.61500549316406,111.28800201416016 -142.24200439453125,129.44700622558594 -119.76000213623047,129.36599731445312 C-97.27799987792969,129.28500366210938 -79.197998046875,110.99400329589844 -79.197998046875,88.51100158691406 C-79.197998046875,62.452999114990234 -107.4749984741211,12.592000007629395 -117.06400299072266,-3.565999984741211 C-118.49400329589844,-5.97599983215332 -121.96600341796875,-6.008999824523926 -123.43699645996094,-3.624000072479248 C-133.02499389648438,11.92199993133545 -160.61500549316406,59.2239990234375 -160.61500549316406,88.80500030517578z"></path></g><g opacity="1" transform="matrix(1,0,0,1,0,0)"><g opacity="1" transform="matrix(1,0,0,1,0,0)"><path stroke-linecap="round" stroke-linejoin="round" fill-opacity="0" stroke="rgb(255,255,255)" stroke-opacity="1" stroke-width="6" d=" M-101.15599822998047,53.65700149536133 C-101.15599822998047,53.65700149536133 -100.77300262451172,54.803001403808594 -100.77300262451172,54.803001403808594"></path></g><g opacity="1" transform="matrix(1,0,0,1,0,0)"><path stroke-linecap="round" stroke-linejoin="round" fill-opacity="0" stroke="rgb(255,255,255)" stroke-opacity="1" stroke-width="6" d=" M-105.78700256347656,39.810001373291016 C-105.78700256347656,39.810001373291016 -103.84700012207031,45.611000061035156 -103.84700012207031,45.611000061035156"></path></g></g></g></g></svg>