<svg xmlns="http://www.w3.org/2000/svg" viewBox="0 0 512 512" width="512" height="512" style="width: 100%; height: 100%; transform: translate3d(0,0,0);" preserveAspectRatio="xMidYMid meet"><defs><clipPath id="__lottie_element_2780"><rect width="512" height="512" x="0" y="0"></rect></clipPath></defs><g clip-path="url(#__lottie_element_2780)"><g style="display: block;" transform="matrix(1.059999942779541,0,0,1.059999942779541,256,255.8800048828125)" opacity="1"><g opacity="0.1" transform="matrix(1,0,0,1,0,0)"><path fill="rgb(0,0,0)" fill-opacity="1" d=" M196.02499389648438,5.925000190734863 C196.02499389648438,114.18599700927734 108.26100158691406,201.9499969482422 0,201.9499969482422 C-108.26100158691406,201.9499969482422 -196.02499389648438,114.18599700927734 -196.02499389648438,5.925000190734863 C-196.02499389648438,-102.33599853515625 -108.26100158691406,-190.0989990234375 0,-190.0989990234375 C108.26100158691406,-190.0989990234375 196.02499389648438,-102.33599853515625 196.02499389648438,5.925000190734863z"></path></g><g opacity="1" transform="matrix(1,0,0,1,0,0)"><path fill="rgb(255,173,0)" fill-opacity="1" d=" M188.875,-9.074999809265137 C188.875,95.23799896240234 104.31300354003906,179.80099487304688 0,179.80099487304688 C-104.31300354003906,179.80099487304688 -188.875,95.23799896240234 -188.875,-9.074999809265137 C-188.875,-113.38800048828125 -104.31300354003906,-197.9499969482422 0,-197.9499969482422 C104.31300354003906,-197.9499969482422 188.875,-113.38800048828125 188.875,-9.074999809265137z"></path><path stroke-linecap="butt" stroke-linejoin="miter" fill-opacity="0" stroke-miterlimit="10" stroke="rgb(255,118,42)" stroke-opacity="1" stroke-width="8" d=" M188.875,-9.074999809265137 C188.875,95.23799896240234 104.31300354003906,179.80099487304688 0,179.80099487304688 C-104.31300354003906,179.80099487304688 -188.875,95.23799896240234 -188.875,-9.074999809265137 C-188.875,-113.38800048828125 -104.31300354003906,-197.9499969482422 0,-197.9499969482422 C104.31300354003906,-197.9499969482422 188.875,-113.38800048828125 188.875,-9.074999809265137z"></path></g><g opacity="1" transform="matrix(1,0,0,1,0,0)"><path fill="rgb(255,207,0)" fill-opacity="1" d=" M168.40699768066406,-8.362000465393066 C166.9499969482422,86.66600036621094 90.39600372314453,162.5469970703125 -2.5820000171661377,161.1219940185547 C-95.55999755859375,159.69700622558594 -169.7519989013672,81.50599670410156 -168.29600524902344,-13.52299976348877 C-166.83900451660156,-108.552001953125 -90.28500366210938,-184.4320068359375 2.693000078201294,-183.0070037841797 C95.6709976196289,-181.58200073242188 169.86399841308594,-103.39099884033203 168.40699768066406,-8.362000465393066z"></path></g><g opacity="0.9" transform="matrix(1,0,0,1,0,0)"><path fill="rgb(255,222,102)" fill-opacity="1" d=" M149.26699829101562,-51.50299835205078 C149.26699829101562,21.139999389648438 82.43800354003906,-36.32500076293945 0,-36.32500076293945 C-82.43800354003906,-36.32500076293945 -149.26800537109375,21.139999389648438 -149.26800537109375,-51.50299835205078 C-149.26800537109375,-124.14600372314453 -82.43800354003906,-183.03599548339844 0,-183.03599548339844 C82.43800354003906,-183.03599548339844 149.26699829101562,-124.14600372314453 149.26699829101562,-51.50299835205078z"></path></g><g opacity="1" transform="matrix(1,0,0,1,0,0)"><g opacity="1" transform="matrix(1,0,0,1,0,0)"><path stroke-linecap="round" stroke-linejoin="round" fill-opacity="0" stroke="rgb(255,255,255)" stroke-opacity="1" stroke-width="6" d=" M36.37300109863281,-178.8159942626953 C37.9109992980957,-178.4810028076172 39.505001068115234,-178.11199951171875 41.150001525878906,-177.70599365234375"></path></g><g opacity="1" transform="matrix(1,0,0,1,0,0)"><path stroke-linecap="round" stroke-linejoin="round" fill-opacity="0" stroke="rgb(255,255,255)" stroke-opacity="1" stroke-width="6" d=" M15.017999649047852,-182.03599548339844 C15.017999649047852,-182.03599548339844 19.885000228881836,-181.77499389648438 27.607999801635742,-180.4969940185547"></path></g></g></g><g style="display: block;" transform="matrix(1.059999942779541,0,0,1.059999942779541,256,255.8800048828125)" opacity="1"><g opacity="0.6" transform="matrix(1,0,0,1,0,0)"><path fill="rgb(255,173,0)" fill-opacity="1" d=" M79.802001953125,91.2509994506836 C54.78200149536133,76.87799835205078 35.652000427246094,64.3219985961914 -0.023000000044703484,64.2020034790039 C-35.698001861572266,64.3219985961914 -55.8489990234375,76.91699981689453 -80.822998046875,91.33499908447266 C-83.4749984741211,92.86599731445312 -87.33399963378906,90 -84.5739974975586,83.73600006103516 C-81.05999755859375,75.76000213623047 -54.0890007019043,44.52799987792969 0.0560000017285347,44.25 C54.20000076293945,44.52799987792969 82.80899810791016,77.95700073242188 86.16699981689453,86 C88.5,91.58899688720703 82.72799682617188,92.93199920654297 79.802001953125,91.2509994506836z"></path></g><g opacity="1" transform="matrix(1,0,0,1,0,0)"><path fill="rgb(255,225,156)" fill-opacity="1" d=" M79.48300170898438,94.04499816894531 C54.60300064086914,81.71099853515625 33.94200134277344,72.92400360107422 -0.9169999957084656,72.81700134277344 C-35.7760009765625,72.92400360107422 -54.64799880981445,81.71099853515625 -79.52799987792969,94.04499816894531 C-81.10700225830078,94.83100128173828 -86.3740005493164,93.6989974975586 -84.66200256347656,89.5780029296875 C-81.66300201416016,82.36000061035156 -52.93000030517578,59.50299835205078 -0.023000000044703484,59.25600051879883 C52.88399887084961,59.50299835205078 82.04900360107422,82.52200317382812 84.64299774169922,89.8270034790039 C86.08200073242188,93.87899780273438 81.06199645996094,94.83100128173828 79.48300170898438,94.04499816894531z"></path></g><g opacity="1" transform="matrix(1,0,0,1,0,0)"><path fill="rgb(107,32,0)" fill-opacity="1" d=" M79.802001953125,91.2509994506836 C54.78200149536133,76.87799835205078 35.652000427246094,64.3219985961914 -0.023000000044703484,64.2020034790039 C-35.698001861572266,64.3219985961914 -55.14799880981445,76.91699981689453 -80.12200164794922,91.33499908447266 C-82.77400207519531,92.86599731445312 -85.29199981689453,91.15699768066406 -84.5739974975586,89.26799774169922 C-81.46900177001953,81.125 -50.99700164794922,50.257999420166016 -0.004000000189989805,49.61000061035156 C48,49 81.42400360107422,81.125 84.52899932861328,89.26799774169922 C85.24700164794922,91.15699768066406 82.72799682617188,92.93199920654297 79.802001953125,91.2509994506836z"></path></g><g opacity="1" transform="matrix(1,0,0,1,0,0)"><path fill="rgb(143,58,0)" fill-opacity="1" d=" M79.58799743652344,90.97599792480469 C54.70800018310547,78.64199829101562 34.85499954223633,68.31400299072266 -0.004000000189989805,68.20700073242188 C-34.862998962402344,68.31400299072266 -54.119998931884766,78.66600036621094 -79,91 C-80.5790023803711,91.78600311279297 -83.34300231933594,91.18900299072266 -82.64099884033203,89.51699829101562 C-79.60700225830078,82.30699920654297 -47.47700119018555,55.29800033569336 -0.004000000189989805,55.29800033569336 C48.38199996948242,55.29800033569336 79.56199645996094,82.30699920654297 82.59600067138672,89.51699829101562 C83.2979965209961,91.18900299072266 81.16699981689453,91.76200103759766 79.58799743652344,90.97599792480469z"></path></g></g><g style="display: block;" transform="matrix(1.059999942779541,0,0,1.059999942779541,256,255.8800048828125)" opacity="1"><g opacity="1" transform="matrix(1,0,0,1,0,0)"><g opacity="1" transform="matrix(1,0,0,1,0,0)"><path fill="rgb(255,173,0)" fill-opacity="1" d=" M-39.257999420166016,-51.667999267578125 C-39.257999420166016,-33.90299987792969 -49.38999938964844,-19.500999450683594 -61.888999938964844,-19.500999450683594 C-74.38800048828125,-19.500999450683594 -84.5199966430664,-33.90299987792969 -84.5199966430664,-51.667999267578125 C-84.5199966430664,-69.43399810791016 -74.38800048828125,-83.83499908447266 -61.888999938964844,-83.83499908447266 C-49.38999938964844,-83.83499908447266 -39.257999420166016,-69.43399810791016 -39.257999420166016,-51.667999267578125z"></path></g><g opacity="1" transform="matrix(1,0,0,1,0,0)"><path fill="rgb(255,237,182)" fill-opacity="1" d=" M-39.257999420166016,-40.10499954223633 C-39.257999420166016,-22.34000015258789 -49.38999938964844,-7.938000202178955 -61.888999938964844,-7.938000202178955 C-74.38800048828125,-7.938000202178955 -84.5199966430664,-22.34000015258789 -84.5199966430664,-40.10499954223633 C-84.5199966430664,-57.869998931884766 -74.38800048828125,-72.27200317382812 -61.888999938964844,-72.27200317382812 C-49.38999938964844,-72.27200317382812 -39.257999420166016,-57.869998931884766 -39.257999420166016,-40.10499954223633z"></path></g><g opacity="1" transform="matrix(1,0,0,1,0,0)"><path fill="rgb(143,58,0)" fill-opacity="1" d=" M-40.67300033569336,-46.292999267578125 C-40.67300033569336,-28.527999877929688 -50.172000885009766,-14.12600040435791 -61.888999938964844,-14.12600040435791 C-73.60600280761719,-14.12600040435791 -83.1050033569336,-28.527999877929688 -83.1050033569336,-46.292999267578125 C-83.1050033569336,-64.05799865722656 -73.60600280761719,-78.45999908447266 -61.888999938964844,-78.45999908447266 C-50.172000885009766,-78.45999908447266 -40.67300033569336,-64.05799865722656 -40.67300033569336,-46.292999267578125z"></path></g><g opacity="1" transform="matrix(1,0,0,1,0,0)"><path fill="rgb(116,24,0)" fill-opacity="1" d=" M-40.85900115966797,-42.12200164794922 C-42.18899917602539,-57.93299865722656 -51.099998474121094,-70.13400268554688 -61.88800048828125,-70.13400268554688 C-72.6760025024414,-70.13400268554688 -81.58599853515625,-57.93299865722656 -82.91699981689453,-42.12200164794922 C-84.5199966430664,-63.33300018310547 -73.60399627685547,-78.45700073242188 -61.88800048828125,-78.45700073242188 C-50.172000885009766,-78.45700073242188 -39.25899887084961,-63.41600036621094 -40.85900115966797,-42.12200164794922z"></path></g></g><g opacity="1" transform="matrix(1,0,0,1,0,0)"><g opacity="1" transform="matrix(1,0,0,1,0,0)"><path fill="rgb(255,173,0)" fill-opacity="1" d=" M81.41200256347656,-51.667999267578125 C81.41200256347656,-33.90299987792969 71.27999877929688,-19.500999450683594 58.78099822998047,-19.500999450683594 C46.28200149536133,-19.500999450683594 36.150001525878906,-33.90299987792969 36.150001525878906,-51.667999267578125 C36.150001525878906,-69.43399810791016 46.28200149536133,-83.83499908447266 58.78099822998047,-83.83499908447266 C71.27999877929688,-83.83499908447266 81.41200256347656,-69.43399810791016 81.41200256347656,-51.667999267578125z"></path></g><g opacity="1" transform="matrix(1,0,0,1,0,0)"><path fill="rgb(255,237,182)" fill-opacity="1" d=" M81.41200256347656,-40.10499954223633 C81.41200256347656,-22.34000015258789 71.27999877929688,-7.938000202178955 58.78099822998047,-7.938000202178955 C46.28200149536133,-7.938000202178955 36.150001525878906,-22.34000015258789 36.150001525878906,-40.10499954223633 C36.150001525878906,-57.869998931884766 46.28200149536133,-72.27200317382812 58.78099822998047,-72.27200317382812 C71.27999877929688,-72.27200317382812 81.41200256347656,-57.869998931884766 81.41200256347656,-40.10499954223633z"></path></g><g opacity="1" transform="matrix(1,0,0,1,0,0)"><path fill="rgb(143,58,0)" fill-opacity="1" d=" M79.99700164794922,-46.292999267578125 C79.99700164794922,-28.527999877929688 70.49800109863281,-14.12600040435791 58.78099822998047,-14.12600040435791 C47.0629997253418,-14.12600040435791 37.564998626708984,-28.527999877929688 37.564998626708984,-46.292999267578125 C37.564998626708984,-64.05799865722656 47.0629997253418,-78.45999908447266 58.78099822998047,-78.45999908447266 C70.49800109863281,-78.45999908447266 79.99700164794922,-64.05799865722656 79.99700164794922,-46.292999267578125z"></path></g><g opacity="1" transform="matrix(1,0,0,1,0,0)"><path fill="rgb(116,24,0)" fill-opacity="1" d=" M79.81099700927734,-42.12200164794922 C78.48100280761719,-57.93299865722656 69.56999969482422,-70.13400268554688 58.78200149536133,-70.13400268554688 C47.99399948120117,-70.13400268554688 39.08399963378906,-57.93299865722656 37.75299835205078,-42.12200164794922 C35.75,-62.58300018310547 47.066001892089844,-78.45700073242188 58.78200149536133,-78.45700073242188 C70.49800109863281,-78.45700073242188 81.41100311279297,-63.6870002746582 79.81099700927734,-42.12200164794922z"></path></g></g></g></g></svg>