<svg xmlns="http://www.w3.org/2000/svg" viewBox="0 0 512 512" width="512" height="512" style="width: 100%; height: 100%; transform: translate3d(0,0,0);" preserveAspectRatio="xMidYMid meet"><defs><clipPath id="__lottie_element_19049"><rect width="512" height="512" x="0" y="0"></rect></clipPath><linearGradient id="__lottie_element_19060" spreadMethod="pad" gradientUnits="userSpaceOnUse" x1="-5.811999797821045" y1="-55.319000244140625" x2="16.86400032043457" y2="61.34600067138672"><stop offset="0%" stop-color="rgb(248,207,61)"></stop><stop offset="35%" stop-color="rgb(250,218,76)"></stop><stop offset="58%" stop-color="rgb(252,229,91)"></stop><stop offset="78%" stop-color="rgb(240,205,73)"></stop><stop offset="100%" stop-color="rgb(229,180,55)"></stop></linearGradient><linearGradient id="__lottie_element_19061" spreadMethod="pad" gradientUnits="userSpaceOnUse" x1="3.630000114440918" y1="19.118000030517578" x2="9.90999984741211" y2="56.1879997253418"><stop offset="0%" stop-color="rgb(255,237,74)"></stop><stop offset="61%" stop-color="rgb(250,218,65)"></stop><stop offset="100%" stop-color="rgb(246,199,56)"></stop></linearGradient><linearGradient id="__lottie_element_19062" spreadMethod="pad" gradientUnits="userSpaceOnUse" x1="-9.315999984741211" y1="-45.24100112915039" x2="5.269000053405762" y2="46.87300109863281"><stop offset="19%" stop-color="rgb(255,255,255)" stop-opacity="1"></stop><stop offset="73%" stop-color="rgb(255,255,255)" stop-opacity="0.699999988079071"></stop><stop offset="100%" stop-color="rgb(255,255,255)" stop-opacity="0.4000000059604645"></stop></linearGradient><linearGradient id="__lottie_element_19066" spreadMethod="pad" gradientUnits="userSpaceOnUse" x1="-5.811999797821045" y1="-55.319000244140625" x2="16.86400032043457" y2="61.34600067138672"><stop offset="0%" stop-color="rgb(248,207,61)"></stop><stop offset="35%" stop-color="rgb(250,218,76)"></stop><stop offset="58%" stop-color="rgb(252,229,91)"></stop><stop offset="78%" stop-color="rgb(240,205,73)"></stop><stop offset="100%" stop-color="rgb(229,180,55)"></stop></linearGradient><linearGradient id="__lottie_element_19067" spreadMethod="pad" gradientUnits="userSpaceOnUse" x1="3.630000114440918" y1="19.118000030517578" x2="9.90999984741211" y2="56.1879997253418"><stop offset="0%" stop-color="rgb(255,237,74)"></stop><stop offset="61%" stop-color="rgb(250,218,65)"></stop><stop offset="100%" stop-color="rgb(246,199,56)"></stop></linearGradient><linearGradient id="__lottie_element_19068" spreadMethod="pad" gradientUnits="userSpaceOnUse" x1="-9.315999984741211" y1="-45.24100112915039" x2="5.269000053405762" y2="46.87300109863281"><stop offset="19%" stop-color="rgb(255,255,255)" stop-opacity="1"></stop><stop offset="73%" stop-color="rgb(255,255,255)" stop-opacity="0.699999988079071"></stop><stop offset="100%" stop-color="rgb(255,255,255)" stop-opacity="0.4000000059604645"></stop></linearGradient></defs><g clip-path="url(#__lottie_element_19049)"><g style="display: block;" transform="matrix(1,0,0,1,0,4.0000152587890625)" opacity="1"><g opacity="1" transform="matrix(1,0,0,1,0,0)"><g opacity="0.1" transform="matrix(1,0,0,1,255.6790008544922,266.7820129394531)"><path fill="rgb(0,0,0)" fill-opacity="1" d=" M196.02499389648438,0 C196.02499389648438,108.26100158691406 108.26100158691406,196.02499389648438 0,196.02499389648438 C-108.26100158691406,196.02499389648438 -196.02499389648438,108.26100158691406 -196.02499389648438,0 C-196.02499389648438,-108.26100158691406 -108.26100158691406,-196.02499389648438 0,-196.02499389648438 C108.26100158691406,-196.02499389648438 196.02499389648438,-108.26100158691406 196.02499389648438,0z"></path></g><g opacity="1" transform="matrix(1,0,0,1,255.6790008544922,251.78199768066406)"><path fill="rgb(255,177,57)" fill-opacity="1" d=" M188.875,0 C188.875,104.31300354003906 104.31300354003906,188.875 0,188.875 C-104.31300354003906,188.875 -188.875,104.31300354003906 -188.875,0 C-188.875,-104.31300354003906 -104.31300354003906,-188.875 0,-188.875 C104.31300354003906,-188.875 188.875,-104.31300354003906 188.875,0z"></path></g><g opacity="1" transform="matrix(1,0,0,1,255.73500061035156,249.91400146484375)"><path fill="rgb(255,209,64)" fill-opacity="1" d=" M168.3509979248047,2.5799999237060547 C166.8939971923828,97.60900115966797 90.34100341796875,173.48899841308594 -2.63700008392334,172.06399536132812 C-95.61499786376953,170.63900756835938 -169.8070068359375,92.4489974975586 -168.3509979248047,-2.5799999237060547 C-166.8939971923828,-97.60900115966797 -90.34100341796875,-173.48899841308594 2.63700008392334,-172.06399536132812 C95.61499786376953,-170.63900756835938 169.8070068359375,-92.4489974975586 168.3509979248047,2.5799999237060547z"></path></g><g opacity="0.9" transform="matrix(1,0,0,1,255.6790008544922,161.96299743652344)"><path fill="rgb(255,223,121)" fill-opacity="1" d=" M149.26699829101562,47.38999938964844 C149.26699829101562,120.03299713134766 82.43800354003906,62.569000244140625 0,62.569000244140625 C-82.43800354003906,62.569000244140625 -149.26699829101562,120.03299713134766 -149.26699829101562,47.38999938964844 C-149.26699829101562,-25.253000259399414 -82.43800354003906,-84.14199829101562 0,-84.14199829101562 C82.43800354003906,-84.14199829101562 149.26699829101562,-25.253000259399414 149.26699829101562,47.38999938964844z"></path></g><g opacity="1" transform="matrix(1,0,0,1,255.6790008544922,251.78199768066406)"><path stroke-linecap="butt" stroke-linejoin="miter" fill-opacity="0" stroke-miterlimit="10" stroke="rgb(247,126,65)" stroke-opacity="1" stroke-width="8" d=" M188.875,0 C188.875,104.31300354003906 104.31300354003906,188.875 0,188.875 C-104.31300354003906,188.875 -188.875,104.31300354003906 -188.875,0 C-188.875,-104.31300354003906 -104.31300354003906,-188.875 0,-188.875 C104.31300354003906,-188.875 188.875,-104.31300354003906 188.875,0z"></path></g><g opacity="1" transform="matrix(1,0,0,1,0,0)"><g opacity="1" transform="matrix(1,0,0,1,294.4410095214844,82.59500122070312)"><path stroke-linecap="round" stroke-linejoin="round" fill-opacity="0" stroke="rgb(255,255,255)" stroke-opacity="1" stroke-width="6" d=" M-2.3889999389648438,-0.5550000071525574 C-0.8510000109672546,-0.2199999988079071 0.7440000176429749,0.14900000393390656 2.3889999389648438,0.5550000071525574"></path></g><g opacity="1" transform="matrix(1,0,0,1,276.9930114746094,79.58999633789062)"><path stroke-linecap="round" stroke-linejoin="round" fill-opacity="0" stroke="rgb(255,255,255)" stroke-opacity="1" stroke-width="6" d=" M-6.295000076293945,-0.7689999938011169 C-6.295000076293945,-0.7689999938011169 -1.4279999732971191,-0.5090000033378601 6.295000076293945,0.7689999938011169"></path></g></g></g></g><g style="display: block;" transform="matrix(-0.999998927116394,0,0,0.999998927116394,351.5649108886719,206.40426635742188)" opacity="0.5"><g opacity="1" transform="matrix(1,0,0,1,0,0)"><path fill="rgb(247,126,65)" fill-opacity="1" d=" M53.03099822998047,-4.02400016784668 C51.930999755859375,-2.7139999866485596 51.70100021362305,-0.8840000033378601 52.430999755859375,0.656000018119812 C52.430999755859375,0.656000018119812 74.48100280761719,47.50600051879883 74.48100280761719,47.50600051879883 C83.60099792480469,64.3759994506836 71.91100311279297,77.53600311279297 54.38100051879883,70.78600311279297 C54.38100051879883,70.78600311279297 6.921000003814697,54.04600143432617 6.921000003814697,54.04600143432617 C1.180999994277954,51.736000061035156 -1.1390000581741333,53.60599899291992 -6.548999786376953,58.50600051879883 C-6.548999786376953,58.50600051879883 -38.999000549316406,90.60600280761719 -38.999000549316406,90.60600280761719 C-51.159000396728516,102.76599884033203 -75.11900329589844,101.82599639892578 -75.11900329589844,78.45600128173828 C-75.11900329589844,78.45600128173828 -71.63899993896484,28.166000366210938 -71.63899993896484,28.166000366210938 C-71.54900360107422,26.45599937438965 -72.46900177001953,24.84600067138672 -73.98899841308594,24.06599998474121 C-73.98899841308594,24.06599998474121 -90.12899780273438,15.675999641418457 -90.12899780273438,15.675999641418457 C-86.60900115966797,-3.874000072479248 -80.0790023803711,-22.374000549316406 -71.02899932861328,-39.33399963378906 C-71.02899932861328,-39.33399963378906 -65.5989990234375,-40.7140007019043 -65.5989990234375,-40.7140007019043 C-63.93899917602539,-41.14400100708008 -62.67900085449219,-42.49399948120117 -62.37900161743164,-44.17399978637695 C-62.37900161743164,-44.17399978637695 -59.979000091552734,-57.534000396728516 -59.979000091552734,-57.534000396728516 C-49.37900161743164,-72.93399810791016 -36.569000244140625,-86.68399810791016 -21.98900032043457,-98.31400299072266 C-21.98900032043457,-98.31400299072266 3.7909998893737793,-57.55400085449219 3.7909998893737793,-57.55400085449219 C4.710999965667725,-56.104000091552734 6.390999794006348,-55.32400131225586 8.10099983215332,-55.56399917602539 C8.10099983215332,-55.56399917602539 75.73100280761719,-69.36399841308594 75.73100280761719,-69.36399841308594 C88.24099731445312,-70.88400268554688 95.7509994506836,-55.91400146484375 84.91100311279297,-43.08399963378906 C76.78099822998047,-33.45399856567383 53.03099822998047,-4.02400016784668 53.03099822998047,-4.02400016784668z"></path></g></g><g style="display: block;" transform="matrix(0.999998927116394,0,0,0.999998927116394,159.92910766601562,206.40426635742188)" opacity="0.5"><g opacity="1" transform="matrix(1,0,0,1,0,0)"><path fill="rgb(247,126,65)" fill-opacity="1" d=" M53.03099822998047,-4.02400016784668 C51.930999755859375,-2.7139999866485596 51.70100021362305,-0.8840000033378601 52.430999755859375,0.656000018119812 C52.430999755859375,0.656000018119812 74.48100280761719,47.50600051879883 74.48100280761719,47.50600051879883 C83.60099792480469,64.3759994506836 71.91100311279297,77.53600311279297 54.38100051879883,70.78600311279297 C54.38100051879883,70.78600311279297 6.921000003814697,54.04600143432617 6.921000003814697,54.04600143432617 C1.180999994277954,51.736000061035156 -1.1390000581741333,53.60599899291992 -6.548999786376953,58.50600051879883 C-6.548999786376953,58.50600051879883 -38.999000549316406,90.60600280761719 -38.999000549316406,90.60600280761719 C-51.159000396728516,102.76599884033203 -75.11900329589844,101.82599639892578 -75.11900329589844,78.45600128173828 C-75.11900329589844,78.45600128173828 -71.63899993896484,28.166000366210938 -71.63899993896484,28.166000366210938 C-71.54900360107422,26.45599937438965 -72.46900177001953,24.84600067138672 -73.98899841308594,24.06599998474121 C-73.98899841308594,24.06599998474121 -90.12899780273438,15.675999641418457 -90.12899780273438,15.675999641418457 C-86.60900115966797,-3.874000072479248 -80.0790023803711,-22.374000549316406 -71.02899932861328,-39.33399963378906 C-71.02899932861328,-39.33399963378906 -65.5989990234375,-40.7140007019043 -65.5989990234375,-40.7140007019043 C-63.93899917602539,-41.14400100708008 -62.67900085449219,-42.49399948120117 -62.37900161743164,-44.17399978637695 C-62.37900161743164,-44.17399978637695 -59.979000091552734,-57.534000396728516 -59.979000091552734,-57.534000396728516 C-49.37900161743164,-72.93399810791016 -36.569000244140625,-86.68399810791016 -21.98900032043457,-98.31400299072266 C-21.98900032043457,-98.31400299072266 3.7909998893737793,-57.55400085449219 3.7909998893737793,-57.55400085449219 C4.710999965667725,-56.104000091552734 6.390999794006348,-55.32400131225586 8.10099983215332,-55.56399917602539 C8.10099983215332,-55.56399917602539 75.73100280761719,-69.36399841308594 75.73100280761719,-69.36399841308594 C88.24099731445312,-70.88400268554688 95.7509994506836,-55.91400146484375 84.91100311279297,-43.08399963378906 C76.78099822998047,-33.45399856567383 53.03099822998047,-4.02400016784668 53.03099822998047,-4.02400016784668z"></path></g></g><g style="display: block;" transform="matrix(0.999998927116394,0,0,0.999998927116394,114.80915832519531,258.1412048339844)" opacity="1"><g opacity="1" transform="matrix(1,0,0,1,140.6959991455078,71.60299682617188)"><path fill="rgb(255,176,57)" fill-opacity="1" d=" M0.0560000017285347,71.35299682617188 C-75.43699645996094,71.35299682617188 -140.4459991455078,-24.801000595092773 -138.66900634765625,-51.48400115966797 C-137.34500122070312,-71.35299682617188 -111.08300018310547,-40.52000045776367 0.0560000017285347,-38.1150016784668 C111.19499969482422,-40.52000045776367 137.1300048828125,-71.3290023803711 138.781005859375,-51.48400115966797 C140.4459991455078,-31.45199966430664 75.54900360107422,71.35299682617188 0.0560000017285347,71.35299682617188z"></path></g><g opacity="1" transform="matrix(1,0,0,1,140.7519989013672,81.91100311279297)"><path fill="rgb(255,225,166)" fill-opacity="1" d=" M0.0010000000474974513,-40.28799819946289 C-117.75800323486328,-42.93899917602539 -138.77699279785156,-76.85700225830078 -138.77699279785156,-51.68899917602539 C-138.77699279785156,18.610000610351562 -77.78700256347656,76.85700225830078 0.0010000000474974513,76.85700225830078 C77.78900146484375,76.85700225830078 138.77699279785156,18.610000610351562 138.77699279785156,-51.68899917602539 C138.77699279785156,-76.85700225830078 117.76000213623047,-42.93899917602539 0.0010000000474974513,-40.28799819946289z"></path></g><g opacity="1" transform="matrix(1,0,0,1,140.7519989013672,78.8270034790039)"><path fill="rgb(133,62,19)" fill-opacity="1" d=" M137.06199645996094,-49.66400146484375 C137.06199645996094,16.027999877929688 74.55999755859375,71.3550033569336 0,71.3550033569336 C-74.56099700927734,71.3550033569336 -137.06300354003906,16.027999877929688 -137.06300354003906,-49.66400146484375 C-137.06300354003906,-50.31399917602539 -137.04299926757812,-50.91299819946289 -137.01199340820312,-51.48099899291992 C-135.7729949951172,-71.3550033569336 -109.76699829101562,-40.516998291015625 0,-38.111000061035156 C109.76499938964844,-40.516998291015625 135.77200317382812,-71.3550033569336 137.00999450683594,-51.48099899291992 C137.04100036621094,-50.91299819946289 137.06199645996094,-50.31399917602539 137.06199645996094,-49.66400146484375z"></path></g><g opacity="1" transform="matrix(1,0,0,1,0,0)"><g opacity="1" transform="matrix(1,0,0,1,0,0)"><g opacity="1" transform="matrix(1,0,0,1,140.8560028076172,58.994998931884766)"><path fill="rgb(98,36,11)" fill-opacity="1" d=" M116.70899963378906,8.418999671936035 C111.91400146484375,17.739999771118164 65.93599700927734,36.94200134277344 1.0889999866485596,36.94200134277344 C-64.36499786376953,36.94200134277344 -112.41400146484375,18.0049991607666 -116.54299926757812,8.852999687194824 C-121.02400207519531,-2.0369999408721924 -124.70999908447266,-18.003000259399414 -124.68900299072266,-18.533000946044922 C-123.58399963378906,-36.94200134277344 -96.64900207519531,-4.175000190734863 1.0889999866485596,-1.940999984741211 C98.83799743652344,-4.175000190734863 123.58499908447266,-35.856998443603516 124.68900299072266,-17.447999954223633 C124.70999908447266,-16.917999267578125 120.9729995727539,-1.8769999742507935 116.70899963378906,8.418999671936035z"></path></g><g opacity="1" transform="matrix(1,0,0,1,140.8560028076172,55.33399963378906)"><path fill="rgb(244,244,244)" fill-opacity="1" d=" M124.73200225830078,-13.618000030517578 C123.77100372314453,-5.007999897003174 120.9729995727539,3.6549999713897705 116.70999908447266,12.079999923706055 C106.77799987792969,16.013999938964844 64.75800323486328,30.95199966430664 -0.08699999749660492,30.95199966430664 C-65.54199981689453,30.95199966430664 -105.58899688720703,16.910999298095703 -116.54299926757812,12.513999938964844 C-121.02300262451172,3.6040000915527344 -123.86299896240234,-5.521999835968018 -124.7300033569336,-14.505000114440918 C-124.78199768066406,-15 -124.70899963378906,-15.456000328063965 -124.68800354003906,-15.888999938964844 C-123.58399963378906,-30.95199966430664 -97.83599853515625,-4.357999801635742 -0.09799999743700027,-2.5309998989105225 C97.6500015258789,-4.357999801635742 123.58499908447266,-30.06399917602539 124.68900299072266,-15.00100040435791 C124.70999908447266,-14.567000389099121 124.78299713134766,-14.11299991607666 124.73200225830078,-13.618000030517578z"></path></g><g opacity="1" transform="matrix(1,0,0,1,140.46299743652344,50.775001525878906)"><path fill="rgb(200,213,214)" fill-opacity="1" d=" M123.66000366210938,-15.28499984741211 C119.1989974975586,-22.493000030517578 97.70899963378906,-0.597000002861023 0.3409999907016754,-0.5879999995231628 C-97.02799987792969,-0.597000002861023 -119.197998046875,-23.11199951171875 -123.65899658203125,-15.902999877929688 C-128.24400329589844,-8.494000434875488 -119.27100372314453,11.902000427246094 -116.54000091552734,17.072999954223633 C-112.22799682617188,18.788999557495117 -106.48799896240234,20.87299919128418 -98.50399780273438,23.11199951171875 C-103.75499725341797,19.02899932861328 -111.04299926757812,2.8929998874664307 -101.84200286865234,-1.1039999723434448 C-87.71700286865234,-6.202000141143799 -63.03900146484375,3.255000114440918 0.28600001335144043,3.255000114440918 C63.611000061035156,3.255000114440918 89.4739990234375,-6.300000190734863 103.5989990234375,-1.2020000219345093 C114.34200286865234,3.006999969482422 105.98799896240234,18.420000076293945 102.46399688720703,21.645999908447266 C110.3759994506836,19.285999298095703 112.79199981689453,18.356000900268555 117.10299682617188,16.639999389648438 C119.83399963378906,11.468000411987305 128.2449951171875,-7.875999927520752 123.66000366210938,-15.28499984741211z"></path></g></g></g><g opacity="1" transform="matrix(1,0,0,1,140.74899291992188,55.04999923706055)"><path fill="rgb(98,36,11)" fill-opacity="1" d=" M108.17500305175781,47.54800033569336 C118.62300109863281,29.923999786376953 124.64299774169922,9.64799976348877 124.64299774169922,-11.722999572753906 C124.64299774169922,-12.37399959564209 124.63200378417969,-12.972999572753906 124.60099792480469,-13.539999961853027 C123.47599792480469,-33.41400146484375 99.822998046875,-4.464000225067139 0,-2.056999921798706 C-99.81400299072266,-4.464000225067139 -123.46700286865234,-33.41400146484375 -124.59200286865234,-13.539999961853027 C-124.62300109863281,-12.972999572753906 -124.64299774169922,-12.37399959564209 -124.64299774169922,-11.722999572753906 C-124.64299774169922,9.657999992370605 -118.61399841308594,29.945999145507812 -108.1449966430664,47.57899856567383 C-126.2020034790039,27.06599998474121 -137.06300354003906,1.4830000400543213 -137.06300354003906,-25.886999130249023 C-137.06300354003906,-26.53700065612793 -137.04299926757812,-27.13599967956543 -137.01199340820312,-27.70400047302246 C-135.7729949951172,-47.577999114990234 -109.76599884033203,-16.739999771118164 0,-14.335000038146973 C109.76499938964844,-16.739999771118164 135.77200317382812,-47.577999114990234 137.01100158691406,-27.70400047302246 C137.04200744628906,-27.13599967956543 137.06300354003906,-26.53700065612793 137.06300354003906,-25.886999130249023 C137.06300354003906,1.472000002861023 126.21199798583984,27.033000946044922 108.17500305175781,47.54800033569336z"></path></g></g><g style="display: block;" transform="matrix(-0.999998927116394,0,0,0.999998927116394,510.6677551269531,4.0004730224609375)" opacity="1"><g opacity="1" transform="matrix(1,0,0,1,144.02099609375,214.8159942626953)"><path stroke-linecap="round" stroke-linejoin="round" fill-opacity="0" stroke="rgb(188,133,25)" stroke-opacity="1" stroke-width="14" d=" M-97.96700286865234,-31.69700050354004 C-97.96700286865234,-31.69700050354004 -45.551998138427734,-4.446000099182129 -45.551998138427734,-4.446000099182129 C-44.16400146484375,-3.7239999771118164 -43.32400131225586,-2.257999897003174 -43.404998779296875,-0.6949999928474426 C-43.404998779296875,-0.6949999928474426 -46.58700180053711,60.637001037597656 -46.58700180053711,60.637001037597656 C-47.0369987487793,69.31199645996094 -36.55799865722656,73.97899627685547 -30.410999298095703,67.84100341796875 C-30.410999298095703,67.84100341796875 12.75100040435791,24.738000869750977 12.75100040435791,24.738000869750977 C13.894000053405762,23.597000122070312 15.609999656677246,23.256000518798828 17.101999282836914,23.874000549316406 C17.101999282836914,23.874000549316406 73.51599884033203,47.25 73.51599884033203,47.25 C81.53299713134766,50.571998596191406 89.43299865722656,42.27399826049805 85.72100067138672,34.42900085449219 C85.72100067138672,34.42900085449219 59.441001892089844,-21.117000579833984 59.441001892089844,-21.117000579833984 C58.77399826049805,-22.527999877929688 58.98899841308594,-24.197999954223633 59.992000579833984,-25.39299964904785 C59.992000579833984,-25.39299964904785 97.96700286865234,-70.63700103759766 97.96700286865234,-70.63700103759766"></path></g><g opacity="1" transform="matrix(1,0,0,1,142.6199951171875,183.02999877929688)"><path fill="url(#__lottie_element_19066)" fill-opacity="1" d=" M-22.85099983215332,-94.41999816894531 C-22.85099983215332,-94.41999816894531 -33.53499984741211,-35.047000885009766 -33.53499984741211,-35.047000885009766 C-33.8120002746582,-33.505001068115234 -34.96699905395508,-32.268001556396484 -36.48500061035156,-31.882999420166016 C-36.48500061035156,-31.882999420166016 -94.56400299072266,-17.152000427246094 -94.56400299072266,-17.152000427246094 C-102.83599853515625,-15.053999900817871 -104.13700103759766,-3.8469998836517334 -96.56500244140625,0.09000000357627869 C-96.56500244140625,0.09000000357627869 -44.150001525878906,27.34000015258789 -44.150001525878906,27.34000015258789 C-42.762001037597656,28.062000274658203 -41.92300033569336,29.527999877929688 -42.00400161743164,31.090999603271484 C-42.00400161743164,31.090999603271484 -45.185001373291016,92.42400360107422 -45.185001373291016,92.42400360107422 C-45.6349983215332,101.0989990234375 -35.15700149536133,105.76499938964844 -29.010000228881836,99.62699890136719 C-29.010000228881836,99.62699890136719 14.152000427246094,56.52399826049805 14.152000427246094,56.52399826049805 C15.295000076293945,55.382999420166016 17.011999130249023,55.042999267578125 18.503999710083008,55.6609992980957 C18.503999710083008,55.6609992980957 74.91699981689453,79.03600311279297 74.91699981689453,79.03600311279297 C82.93399810791016,82.35800170898438 90.83499908447266,74.06099700927734 87.12300109863281,66.21600341796875 C87.12300109863281,66.21600341796875 60.84299850463867,10.670000076293945 60.84299850463867,10.670000076293945 C60.17599868774414,9.258999824523926 60.39099884033203,7.589000225067139 61.39400100708008,6.394000053405762 C61.39400100708008,6.394000053405762 99.36799621582031,-38.85100173950195 99.36799621582031,-38.85100173950195 C104.84500122070312,-45.37699890136719 99.37899780273438,-55.21699905395508 90.94400024414062,-54.01499938964844 C90.94400024414062,-54.01499938964844 30.895000457763672,-45.45600128173828 30.895000457763672,-45.45600128173828 C29.339000701904297,-45.23400115966797 27.797000885009766,-45.94499969482422 26.95599937438965,-47.27399826049805 C26.95599937438965,-47.27399826049805 -5.072000026702881,-97.8949966430664 -5.072000026702881,-97.8949966430664 C-9.810999870300293,-105.38500213623047 -21.2810001373291,-103.14299774169922 -22.85099983215332,-94.41999816894531z"></path></g><g opacity="1" transform="matrix(1,0,0,1,143.14599609375,176.88099670410156)"><g opacity="1" transform="matrix(1,0,0,1,0,0)"><path fill="url(#__lottie_element_19067)" fill-opacity="1" d=" M-15.28600025177002,-75.697998046875 C-15.28600025177002,-75.697998046875 -24.506000518798828,-24.461999893188477 -24.506000518798828,-24.461999893188477 C-25.05500030517578,-21.41200065612793 -27.336999893188477,-18.964000701904297 -30.340999603271484,-18.20199966430664 C-30.340999603271484,-18.20199966430664 -79.85099792480469,-5.644000053405762 -79.85099792480469,-5.644000053405762 C-83.30999755859375,-4.767000198364258 -83.85299682617188,-0.08100000023841858 -80.68699645996094,1.565000057220459 C-80.68699645996094,1.565000057220459 -31.427000045776367,27.176000595092773 -31.427000045776367,27.176000595092773 C-31.427000045776367,27.176000595092773 -33.178001403808594,72.79100036621094 -33.178001403808594,72.79100036621094 C-33.382999420166016,78.12699890136719 -26.93199920654297,80.93900299072266 -23.16200065612793,77.15799713134766 C-23.16200065612793,77.15799713134766 7.107999801635742,46.79600143432617 7.107999801635742,46.79600143432617 C9.95199966430664,43.94300079345703 14.23799991607666,43.09199905395508 17.95599937438965,44.641998291015625 C17.95599937438965,44.641998291015625 57.56800079345703,61.159000396728516 57.56800079345703,61.159000396728516 C62.49100112915039,63.21200180053711 67.37699890136719,58.15999984741211 65.16200256347656,53.30799865722656 C65.16200256347656,53.30799865722656 46.19900131225586,11.767999649047852 46.19900131225586,11.767999649047852 C46.19900131225586,11.767999649047852 81.85900115966797,-30.719999313354492 81.85900115966797,-30.719999313354492 C84.14900207519531,-33.44900131225586 81.86399841308594,-37.5629997253418 78.33699798583984,-37.060001373291016 C78.33699798583984,-37.060001373291016 27.264999389648438,-29.780000686645508 27.264999389648438,-29.780000686645508 C24.18600082397461,-29.340999603271484 21.135000228881836,-30.75 19.472000122070312,-33.37900161743164 C19.472000122070312,-33.37900161743164 -8.182000160217285,-77.08599853515625 -8.182000160217285,-77.08599853515625 C-10.074999809265137,-80.0780029296875 -14.659000396728516,-79.18299865722656 -15.28600025177002,-75.697998046875z"></path></g></g><g opacity="1" transform="matrix(1,0,0,1,143.14700317382812,150.66900634765625)"><path fill="url(#__lottie_element_19068)" fill-opacity="1" d=" M-80.68599700927734,27.777000427246094 C-80.68599700927734,27.777000427246094 -49.8120002746582,43.832000732421875 -49.8120002746582,43.832000732421875 C-49.805999755859375,43.83599853515625 -49.80099868774414,43.834999084472656 -49.79499816894531,43.8390007019043 C-26.166000366210938,53.715999603271484 -10.038999557495117,54.25899887084961 8.336000442504883,50.61199951171875 C29.761999130249023,46.35900115966797 46.2239990234375,37.95199966430664 68.60600280761719,11.218000411987305 C68.60600280761719,11.218000411987305 68.72899627685547,11.13700008392334 68.72899627685547,11.13700008392334 C68.72899627685547,11.13700008392334 81.85900115966797,-4.506999969482422 81.85900115966797,-4.506999969482422 C84.14900207519531,-7.236999988555908 81.86499786376953,-11.35200023651123 78.33499908447266,-10.847000122070312 C78.33499908447266,-10.847000122070312 28.7549991607666,-3.7809998989105225 28.7549991607666,-3.7809998989105225 C28.7549991607666,-3.7809998989105225 27.26300048828125,-3.566999912261963 27.26300048828125,-3.566999912261963 C24.183000564575195,-3.13100004196167 21.131999969482422,-4.539000034332275 19.472999572753906,-7.164999961853027 C19.472999572753906,-7.164999961853027 18.66900062561035,-8.442000389099121 18.66900062561035,-8.442000389099121 C18.66900062561035,-8.442000389099121 18.663999557495117,-8.440999984741211 18.663999557495117,-8.440999984741211 C18.663999557495117,-8.440999984741211 -8.182999610900879,-50.87200164794922 -8.182999610900879,-50.87200164794922 C-10.074000358581543,-53.86399841308594 -14.65999984741211,-52.970001220703125 -15.286999702453613,-49.487998962402344 C-15.286999702453613,-49.487998962402344 -24.240999221801758,0.2709999978542328 -24.240999221801758,0.2709999978542328 C-24.240999221801758,0.2709999978542328 -24.509000778198242,1.75 -24.509000778198242,1.75 C-25.05699920654297,4.798999786376953 -27.336000442504883,7.25 -30.340999603271484,8.01099967956543 C-30.340999603271484,8.01099967956543 -31.797000885009766,8.381999969482422 -31.797000885009766,8.381999969482422 C-31.797000885009766,8.381999969482422 -31.802000045776367,8.383000373840332 -31.802000045776367,8.383000373840332 C-31.802000045776367,8.383000373840332 -79.85199737548828,20.56800079345703 -79.85199737548828,20.56800079345703 C-83.30799865722656,21.44499969482422 -83.8550033569336,26.1299991607666 -80.68599700927734,27.777000427246094z"></path></g><g opacity="1" transform="matrix(1,0,0,1,142.6199951171875,183.02999877929688)"><path stroke-linecap="round" stroke-linejoin="round" fill-opacity="0" stroke="rgb(221,173,40)" stroke-opacity="1" stroke-width="8" d=" M-22.85099983215332,-94.41999816894531 C-22.85099983215332,-94.41999816894531 -33.53499984741211,-35.047000885009766 -33.53499984741211,-35.047000885009766 C-33.8120002746582,-33.505001068115234 -34.96699905395508,-32.268001556396484 -36.48500061035156,-31.882999420166016 C-36.48500061035156,-31.882999420166016 -94.56400299072266,-17.152000427246094 -94.56400299072266,-17.152000427246094 C-102.83599853515625,-15.053999900817871 -104.13700103759766,-3.8469998836517334 -96.56500244140625,0.09000000357627869 C-96.56500244140625,0.09000000357627869 -44.150001525878906,27.34000015258789 -44.150001525878906,27.34000015258789 C-42.762001037597656,28.062000274658203 -41.92300033569336,29.527999877929688 -42.00400161743164,31.090999603271484 C-42.00400161743164,31.090999603271484 -45.185001373291016,92.42400360107422 -45.185001373291016,92.42400360107422 C-45.6349983215332,101.0989990234375 -35.15700149536133,105.76499938964844 -29.010000228881836,99.62699890136719 C-29.010000228881836,99.62699890136719 14.152000427246094,56.52399826049805 14.152000427246094,56.52399826049805 C15.295000076293945,55.382999420166016 17.011999130249023,55.042999267578125 18.503999710083008,55.6609992980957 C18.503999710083008,55.6609992980957 74.91699981689453,79.03600311279297 74.91699981689453,79.03600311279297 C82.93399810791016,82.35800170898438 90.83499908447266,74.06099700927734 87.12300109863281,66.21600341796875 C87.12300109863281,66.21600341796875 60.84299850463867,10.670000076293945 60.84299850463867,10.670000076293945 C60.17599868774414,9.258999824523926 60.39099884033203,7.589000225067139 61.39400100708008,6.394000053405762 C61.39400100708008,6.394000053405762 99.36799621582031,-38.85100173950195 99.36799621582031,-38.85100173950195 C104.84500122070312,-45.37699890136719 99.37899780273438,-55.21699905395508 90.94400024414062,-54.01499938964844 C90.94400024414062,-54.01499938964844 30.895000457763672,-45.45600128173828 30.895000457763672,-45.45600128173828 C29.339000701904297,-45.23400115966797 27.797000885009766,-45.94499969482422 26.95599937438965,-47.27399826049805 C26.95599937438965,-47.27399826049805 -5.072000026702881,-97.8949966430664 -5.072000026702881,-97.8949966430664 C-9.810999870300293,-105.38500213623047 -21.2810001373291,-103.14299774169922 -22.85099983215332,-94.41999816894531z"></path></g><g opacity="1" transform="matrix(1,0,0,1,144.02099609375,214.8159942626953)"><path stroke-linecap="round" stroke-linejoin="round" fill-opacity="0" stroke="rgb(188,133,25)" stroke-opacity="1" stroke-width="8" d=" M-97.96700286865234,-31.69700050354004 C-97.96700286865234,-31.69700050354004 -45.551998138427734,-4.446000099182129 -45.551998138427734,-4.446000099182129 C-44.16400146484375,-3.7239999771118164 -43.32400131225586,-2.257999897003174 -43.404998779296875,-0.6949999928474426 C-43.404998779296875,-0.6949999928474426 -46.58700180053711,60.637001037597656 -46.58700180053711,60.637001037597656 C-47.0369987487793,69.31199645996094 -36.55799865722656,73.97899627685547 -30.410999298095703,67.84100341796875 C-30.410999298095703,67.84100341796875 12.75100040435791,24.738000869750977 12.75100040435791,24.738000869750977 C13.894000053405762,23.597000122070312 15.609999656677246,23.256000518798828 17.101999282836914,23.874000549316406 C17.101999282836914,23.874000549316406 73.51599884033203,47.25 73.51599884033203,47.25 C81.53299713134766,50.571998596191406 89.43299865722656,42.27399826049805 85.72100067138672,34.42900085449219 C85.72100067138672,34.42900085449219 59.441001892089844,-21.117000579833984 59.441001892089844,-21.117000579833984 C58.77399826049805,-22.527999877929688 58.98899841308594,-24.197999954223633 59.992000579833984,-25.39299964904785 C59.992000579833984,-25.39299964904785 97.96700286865234,-70.63700103759766 97.96700286865234,-70.63700103759766"></path></g><g opacity="1" transform="matrix(1,0,0,1,42.42399978637695,177.0970001220703)"><path fill="rgb(188,133,25)" fill-opacity="1" d=" M5.421999931335449,2.434999942779541 C5.421999931335449,2.434999942779541 -5.39300012588501,-3.046999931335449 -3.2230000495910645,-9.4399995803833 C-3.2230000495910645,-9.4399995803833 -6.2270002365112305,-5.281000137329102 -5.2129998207092285,-0.00800000037997961 C-4.199999809265137,5.264999866485596 -1.031999945640564,7.89300012588501 1.5700000524520874,9.4399995803833 C1.5700000524520874,9.4399995803833 5.421999931335449,2.434999942779541 5.421999931335449,2.434999942779541z"></path></g><g opacity="1" transform="matrix(1,0,0,1,243.531005859375,136.7480010986328)"><path fill="rgb(188,133,25)" fill-opacity="1" d=" M-4.635000228881836,4.8979997634887695 C-4.635000228881836,4.8979997634887695 3.1530001163482666,-4.75600004196167 -1.402999997138977,-9.73900032043457 C-1.402999997138977,-9.73900032043457 3.0190000534057617,-7.13700008392334 4.209000110626221,-1.9010000228881836 C5.39900016784668,3.3350000381469727 3.946000099182129,6.922999858856201 1.7009999752044678,9.73900032043457 C1.7009999752044678,9.73900032043457 -4.635000228881836,4.8979997634887695 -4.635000228881836,4.8979997634887695z"></path></g></g><g style="display: block;" transform="matrix(0.999998927116394,0,0,0.999998927116394,0.000274658203125,4.0004730224609375)" opacity="1"><g opacity="1" transform="matrix(1,0,0,1,144.02099609375,214.8159942626953)"><path stroke-linecap="round" stroke-linejoin="round" fill-opacity="0" stroke="rgb(188,133,25)" stroke-opacity="1" stroke-width="14" d=" M-97.96700286865234,-31.69700050354004 C-97.96700286865234,-31.69700050354004 -45.551998138427734,-4.446000099182129 -45.551998138427734,-4.446000099182129 C-44.16400146484375,-3.7239999771118164 -43.32400131225586,-2.257999897003174 -43.404998779296875,-0.6949999928474426 C-43.404998779296875,-0.6949999928474426 -46.58700180053711,60.637001037597656 -46.58700180053711,60.637001037597656 C-47.0369987487793,69.31199645996094 -36.55799865722656,73.97899627685547 -30.410999298095703,67.84100341796875 C-30.410999298095703,67.84100341796875 12.75100040435791,24.738000869750977 12.75100040435791,24.738000869750977 C13.894000053405762,23.597000122070312 15.609999656677246,23.256000518798828 17.101999282836914,23.874000549316406 C17.101999282836914,23.874000549316406 73.51599884033203,47.25 73.51599884033203,47.25 C81.53299713134766,50.571998596191406 89.43299865722656,42.27399826049805 85.72100067138672,34.42900085449219 C85.72100067138672,34.42900085449219 59.441001892089844,-21.117000579833984 59.441001892089844,-21.117000579833984 C58.77399826049805,-22.527999877929688 58.98899841308594,-24.197999954223633 59.992000579833984,-25.39299964904785 C59.992000579833984,-25.39299964904785 97.96700286865234,-70.63700103759766 97.96700286865234,-70.63700103759766"></path></g><g opacity="1" transform="matrix(1,0,0,1,142.6199951171875,183.02999877929688)"><path fill="url(#__lottie_element_19060)" fill-opacity="1" d=" M-22.85099983215332,-94.41999816894531 C-22.85099983215332,-94.41999816894531 -33.53499984741211,-35.047000885009766 -33.53499984741211,-35.047000885009766 C-33.8120002746582,-33.505001068115234 -34.96699905395508,-32.268001556396484 -36.48500061035156,-31.882999420166016 C-36.48500061035156,-31.882999420166016 -94.56400299072266,-17.152000427246094 -94.56400299072266,-17.152000427246094 C-102.83599853515625,-15.053999900817871 -104.13700103759766,-3.8469998836517334 -96.56500244140625,0.09000000357627869 C-96.56500244140625,0.09000000357627869 -44.150001525878906,27.34000015258789 -44.150001525878906,27.34000015258789 C-42.762001037597656,28.062000274658203 -41.92300033569336,29.527999877929688 -42.00400161743164,31.090999603271484 C-42.00400161743164,31.090999603271484 -45.185001373291016,92.42400360107422 -45.185001373291016,92.42400360107422 C-45.6349983215332,101.0989990234375 -35.15700149536133,105.76499938964844 -29.010000228881836,99.62699890136719 C-29.010000228881836,99.62699890136719 14.152000427246094,56.52399826049805 14.152000427246094,56.52399826049805 C15.295000076293945,55.382999420166016 17.011999130249023,55.042999267578125 18.503999710083008,55.6609992980957 C18.503999710083008,55.6609992980957 74.91699981689453,79.03600311279297 74.91699981689453,79.03600311279297 C82.93399810791016,82.35800170898438 90.83499908447266,74.06099700927734 87.12300109863281,66.21600341796875 C87.12300109863281,66.21600341796875 60.84299850463867,10.670000076293945 60.84299850463867,10.670000076293945 C60.17599868774414,9.258999824523926 60.39099884033203,7.589000225067139 61.39400100708008,6.394000053405762 C61.39400100708008,6.394000053405762 99.36799621582031,-38.85100173950195 99.36799621582031,-38.85100173950195 C104.84500122070312,-45.37699890136719 99.37899780273438,-55.21699905395508 90.94400024414062,-54.01499938964844 C90.94400024414062,-54.01499938964844 30.895000457763672,-45.45600128173828 30.895000457763672,-45.45600128173828 C29.339000701904297,-45.23400115966797 27.797000885009766,-45.94499969482422 26.95599937438965,-47.27399826049805 C26.95599937438965,-47.27399826049805 -5.072000026702881,-97.8949966430664 -5.072000026702881,-97.8949966430664 C-9.810999870300293,-105.38500213623047 -21.2810001373291,-103.14299774169922 -22.85099983215332,-94.41999816894531z"></path></g><g opacity="1" transform="matrix(1,0,0,1,143.14599609375,176.88099670410156)"><g opacity="1" transform="matrix(1,0,0,1,0,0)"><path fill="url(#__lottie_element_19061)" fill-opacity="1" d=" M-15.28600025177002,-75.697998046875 C-15.28600025177002,-75.697998046875 -24.506000518798828,-24.461999893188477 -24.506000518798828,-24.461999893188477 C-25.05500030517578,-21.41200065612793 -27.336999893188477,-18.964000701904297 -30.340999603271484,-18.20199966430664 C-30.340999603271484,-18.20199966430664 -79.85099792480469,-5.644000053405762 -79.85099792480469,-5.644000053405762 C-83.30999755859375,-4.767000198364258 -83.85299682617188,-0.08100000023841858 -80.68699645996094,1.565000057220459 C-80.68699645996094,1.565000057220459 -31.427000045776367,27.176000595092773 -31.427000045776367,27.176000595092773 C-31.427000045776367,27.176000595092773 -33.178001403808594,72.79100036621094 -33.178001403808594,72.79100036621094 C-33.382999420166016,78.12699890136719 -26.93199920654297,80.93900299072266 -23.16200065612793,77.15799713134766 C-23.16200065612793,77.15799713134766 7.107999801635742,46.79600143432617 7.107999801635742,46.79600143432617 C9.95199966430664,43.94300079345703 14.23799991607666,43.09199905395508 17.95599937438965,44.641998291015625 C17.95599937438965,44.641998291015625 57.56800079345703,61.159000396728516 57.56800079345703,61.159000396728516 C62.49100112915039,63.21200180053711 67.37699890136719,58.15999984741211 65.16200256347656,53.30799865722656 C65.16200256347656,53.30799865722656 46.19900131225586,11.767999649047852 46.19900131225586,11.767999649047852 C46.19900131225586,11.767999649047852 81.85900115966797,-30.719999313354492 81.85900115966797,-30.719999313354492 C84.14900207519531,-33.44900131225586 81.86399841308594,-37.5629997253418 78.33699798583984,-37.060001373291016 C78.33699798583984,-37.060001373291016 27.264999389648438,-29.780000686645508 27.264999389648438,-29.780000686645508 C24.18600082397461,-29.340999603271484 21.135000228881836,-30.75 19.472000122070312,-33.37900161743164 C19.472000122070312,-33.37900161743164 -8.182000160217285,-77.08599853515625 -8.182000160217285,-77.08599853515625 C-10.074999809265137,-80.0780029296875 -14.659000396728516,-79.18299865722656 -15.28600025177002,-75.697998046875z"></path></g></g><g opacity="1" transform="matrix(1,0,0,1,143.14700317382812,150.66900634765625)"><path fill="url(#__lottie_element_19062)" fill-opacity="1" d=" M-80.68599700927734,27.777000427246094 C-80.68599700927734,27.777000427246094 -49.8120002746582,43.832000732421875 -49.8120002746582,43.832000732421875 C-49.805999755859375,43.83599853515625 -49.80099868774414,43.834999084472656 -49.79499816894531,43.8390007019043 C-26.166000366210938,53.715999603271484 -10.038999557495117,54.25899887084961 8.336000442504883,50.61199951171875 C29.761999130249023,46.35900115966797 46.2239990234375,37.95199966430664 68.60600280761719,11.218000411987305 C68.60600280761719,11.218000411987305 68.72899627685547,11.13700008392334 68.72899627685547,11.13700008392334 C68.72899627685547,11.13700008392334 81.85900115966797,-4.506999969482422 81.85900115966797,-4.506999969482422 C84.14900207519531,-7.236999988555908 81.86499786376953,-11.35200023651123 78.33499908447266,-10.847000122070312 C78.33499908447266,-10.847000122070312 28.7549991607666,-3.7809998989105225 28.7549991607666,-3.7809998989105225 C28.7549991607666,-3.7809998989105225 27.26300048828125,-3.566999912261963 27.26300048828125,-3.566999912261963 C24.183000564575195,-3.13100004196167 21.131999969482422,-4.539000034332275 19.472999572753906,-7.164999961853027 C19.472999572753906,-7.164999961853027 18.66900062561035,-8.442000389099121 18.66900062561035,-8.442000389099121 C18.66900062561035,-8.442000389099121 18.663999557495117,-8.440999984741211 18.663999557495117,-8.440999984741211 C18.663999557495117,-8.440999984741211 -8.182999610900879,-50.87200164794922 -8.182999610900879,-50.87200164794922 C-10.074000358581543,-53.86399841308594 -14.65999984741211,-52.970001220703125 -15.286999702453613,-49.487998962402344 C-15.286999702453613,-49.487998962402344 -24.240999221801758,0.2709999978542328 -24.240999221801758,0.2709999978542328 C-24.240999221801758,0.2709999978542328 -24.509000778198242,1.75 -24.509000778198242,1.75 C-25.05699920654297,4.798999786376953 -27.336000442504883,7.25 -30.340999603271484,8.01099967956543 C-30.340999603271484,8.01099967956543 -31.797000885009766,8.381999969482422 -31.797000885009766,8.381999969482422 C-31.797000885009766,8.381999969482422 -31.802000045776367,8.383000373840332 -31.802000045776367,8.383000373840332 C-31.802000045776367,8.383000373840332 -79.85199737548828,20.56800079345703 -79.85199737548828,20.56800079345703 C-83.30799865722656,21.44499969482422 -83.8550033569336,26.1299991607666 -80.68599700927734,27.777000427246094z"></path></g><g opacity="1" transform="matrix(1,0,0,1,142.6199951171875,183.02999877929688)"><path stroke-linecap="round" stroke-linejoin="round" fill-opacity="0" stroke="rgb(221,173,40)" stroke-opacity="1" stroke-width="8" d=" M-22.85099983215332,-94.41999816894531 C-22.85099983215332,-94.41999816894531 -33.53499984741211,-35.047000885009766 -33.53499984741211,-35.047000885009766 C-33.8120002746582,-33.505001068115234 -34.96699905395508,-32.268001556396484 -36.48500061035156,-31.882999420166016 C-36.48500061035156,-31.882999420166016 -94.56400299072266,-17.152000427246094 -94.56400299072266,-17.152000427246094 C-102.83599853515625,-15.053999900817871 -104.13700103759766,-3.8469998836517334 -96.56500244140625,0.09000000357627869 C-96.56500244140625,0.09000000357627869 -44.150001525878906,27.34000015258789 -44.150001525878906,27.34000015258789 C-42.762001037597656,28.062000274658203 -41.92300033569336,29.527999877929688 -42.00400161743164,31.090999603271484 C-42.00400161743164,31.090999603271484 -45.185001373291016,92.42400360107422 -45.185001373291016,92.42400360107422 C-45.6349983215332,101.0989990234375 -35.15700149536133,105.76499938964844 -29.010000228881836,99.62699890136719 C-29.010000228881836,99.62699890136719 14.152000427246094,56.52399826049805 14.152000427246094,56.52399826049805 C15.295000076293945,55.382999420166016 17.011999130249023,55.042999267578125 18.503999710083008,55.6609992980957 C18.503999710083008,55.6609992980957 74.91699981689453,79.03600311279297 74.91699981689453,79.03600311279297 C82.93399810791016,82.35800170898438 90.83499908447266,74.06099700927734 87.12300109863281,66.21600341796875 C87.12300109863281,66.21600341796875 60.84299850463867,10.670000076293945 60.84299850463867,10.670000076293945 C60.17599868774414,9.258999824523926 60.39099884033203,7.589000225067139 61.39400100708008,6.394000053405762 C61.39400100708008,6.394000053405762 99.36799621582031,-38.85100173950195 99.36799621582031,-38.85100173950195 C104.84500122070312,-45.37699890136719 99.37899780273438,-55.21699905395508 90.94400024414062,-54.01499938964844 C90.94400024414062,-54.01499938964844 30.895000457763672,-45.45600128173828 30.895000457763672,-45.45600128173828 C29.339000701904297,-45.23400115966797 27.797000885009766,-45.94499969482422 26.95599937438965,-47.27399826049805 C26.95599937438965,-47.27399826049805 -5.072000026702881,-97.8949966430664 -5.072000026702881,-97.8949966430664 C-9.810999870300293,-105.38500213623047 -21.2810001373291,-103.14299774169922 -22.85099983215332,-94.41999816894531z"></path></g><g opacity="1" transform="matrix(1,0,0,1,144.02099609375,214.8159942626953)"><path stroke-linecap="round" stroke-linejoin="round" fill-opacity="0" stroke="rgb(188,133,25)" stroke-opacity="1" stroke-width="8" d=" M-97.96700286865234,-31.69700050354004 C-97.96700286865234,-31.69700050354004 -45.551998138427734,-4.446000099182129 -45.551998138427734,-4.446000099182129 C-44.16400146484375,-3.7239999771118164 -43.32400131225586,-2.257999897003174 -43.404998779296875,-0.6949999928474426 C-43.404998779296875,-0.6949999928474426 -46.58700180053711,60.637001037597656 -46.58700180053711,60.637001037597656 C-47.0369987487793,69.31199645996094 -36.55799865722656,73.97899627685547 -30.410999298095703,67.84100341796875 C-30.410999298095703,67.84100341796875 12.75100040435791,24.738000869750977 12.75100040435791,24.738000869750977 C13.894000053405762,23.597000122070312 15.609999656677246,23.256000518798828 17.101999282836914,23.874000549316406 C17.101999282836914,23.874000549316406 73.51599884033203,47.25 73.51599884033203,47.25 C81.53299713134766,50.571998596191406 89.43299865722656,42.27399826049805 85.72100067138672,34.42900085449219 C85.72100067138672,34.42900085449219 59.441001892089844,-21.117000579833984 59.441001892089844,-21.117000579833984 C58.77399826049805,-22.527999877929688 58.98899841308594,-24.197999954223633 59.992000579833984,-25.39299964904785 C59.992000579833984,-25.39299964904785 97.96700286865234,-70.63700103759766 97.96700286865234,-70.63700103759766"></path></g><g opacity="1" transform="matrix(1,0,0,1,42.42399978637695,177.0970001220703)"><path fill="rgb(188,133,25)" fill-opacity="1" d=" M5.421999931335449,2.434999942779541 C5.421999931335449,2.434999942779541 -5.39300012588501,-3.046999931335449 -3.2230000495910645,-9.4399995803833 C-3.2230000495910645,-9.4399995803833 -6.2270002365112305,-5.281000137329102 -5.2129998207092285,-0.00800000037997961 C-4.199999809265137,5.264999866485596 -1.031999945640564,7.89300012588501 1.5700000524520874,9.4399995803833 C1.5700000524520874,9.4399995803833 5.421999931335449,2.434999942779541 5.421999931335449,2.434999942779541z"></path></g><g opacity="1" transform="matrix(1,0,0,1,243.531005859375,136.7480010986328)"><path fill="rgb(188,133,25)" fill-opacity="1" d=" M-4.635000228881836,4.8979997634887695 C-4.635000228881836,4.8979997634887695 3.1530001163482666,-4.75600004196167 -1.402999997138977,-9.73900032043457 C-1.402999997138977,-9.73900032043457 3.0190000534057617,-7.13700008392334 4.209000110626221,-1.9010000228881836 C5.39900016784668,3.3350000381469727 3.946000099182129,6.922999858856201 1.7009999752044678,9.73900032043457 C1.7009999752044678,9.73900032043457 -4.635000228881836,4.8979997634887695 -4.635000228881836,4.8979997634887695z"></path></g></g></g></svg>