<svg xmlns="http://www.w3.org/2000/svg" viewBox="0 0 512 512" width="512" height="512" style="width: 100%; height: 100%; transform: translate3d(0,0,0);" preserveAspectRatio="xMidYMid meet"><defs><clipPath id="__lottie_element_19079"><rect width="512" height="512" x="0" y="0"></rect></clipPath></defs><g clip-path="url(#__lottie_element_19079)"><g style="display: block;" transform="matrix(0,1,-1,0,207.83700561523438,96.53799438476562)" opacity="1"><g opacity="1" transform="matrix(1,0,0,1,0,0)"><path fill="rgb(255,209,64)" fill-opacity="1" d=" M-26.533000946044922,-85.2979965209961 C-15.932000160217285,-94.4280014038086 1.4019999504089355,-82.01899719238281 30.33799934387207,-77.43299865722656 C62.92900085449219,-57.16299819946289 61.595001220703125,66.50399780273438 43.042999267578125,76.64199829101562 C34.25899887084961,76.5510025024414 -6.98799991607666,87.91999816894531 -19.160999298095703,88.56700134277344 C-66.0719985961914,54.16999816894531 -68.0719985961914,-38.83000183105469 -26.533000946044922,-85.2979965209961z"></path></g></g><g style="display: block;" transform="matrix(0,1,-1,0,215.50900268554688,220.56900024414062)" opacity="1"><g opacity="1" transform="matrix(1,0,0,1,0,0)"><path fill="rgb(255,209,64)" fill-opacity="1" d=" M-90.19300079345703,-33.76100158691406 C-78.05599975585938,-55.9640007019043 -19.101999282836914,-99.49099731445312 15.381999969482422,-101.43099975585938 C79.73600006103516,-107.70999908447266 104.89800262451172,-77.15799713134766 89.49400329589844,-49.48899841308594 C92.63500213623047,-41.33000183105469 102.74600219726562,-33.301998138427734 100.51699829101562,-17.94099998474121 C98.28800201416016,-2.5799999237060547 87.8499984741211,0.11599999666213989 88.35399627685547,6.574999809265137 C88.85800170898438,13.032999992370605 94.6259994506836,18.547000885009766 92.2750015258789,32.03300094604492 C89.77200317382812,46.400001525878906 78.37699890136719,53.810001373291016 78.37699890136719,53.810001373291016 C78.37699890136719,53.810001373291016 82.0739974975586,70.24299621582031 67.27899932861328,85.65299987792969 C57.233001708984375,96.11799621582031 34.21699905395508,104.25199890136719 -5.480999946594238,101.83100128173828 C-42.48099899291992,99.57499694824219 -67.21499633789062,84.45500183105469 -80.98799896240234,84.31400299072266 C-99.10199737548828,74.1760025024414 -104.60199737548828,-8.157999992370605 -90.19300079345703,-33.76100158691406z"></path></g></g><g style="display: block;" transform="matrix(0,1,-1,0,341.32098388671875,227.59500122070312)" opacity="1"><g opacity="1" transform="matrix(1,0,0,1,0,0)"><path fill="rgb(255,209,64)" fill-opacity="1" d=" M-100.71800231933594,56.051998138427734 C-88.58100128173828,33.8489990234375 -73.73999786376953,6.440000057220459 -41.53200149536133,-6.960000038146973 C-12.413999557495117,-19.075000762939453 13.298999786376953,-18.57200050354004 29.701000213623047,-25.062999725341797 C73.66400146484375,-42.459999084472656 69.4469985961914,-57.94599914550781 82.69999694824219,-55.99100112915039 C104.52400207519531,-53.7760009765625 104.55899810791016,-18.160999298095703 93.23200225830078,-4.520999908447266 C81.90599822998047,9.119000434875488 72.54100036621094,12.371999740600586 63.20399856567383,15.616000175476074 C47.222999572753906,21.167999267578125 24.926000595092773,20.965999603271484 8.357000350952148,24.381999969482422 C-7.693999767303467,68.8219985961914 -104.69400024414062,125.8219985961914 -100.71800231933594,56.051998138427734z"></path></g></g><g style="display: block;" transform="matrix(1,0,0,1,308.8689880371094,185.66600036621094)" opacity="1"><g opacity="1" transform="matrix(1,0,0,1,0,0)"><path fill="rgb(255,223,121)" fill-opacity="1" d=" M-34.500999450683594,-115.31500244140625 C-21.867000579833984,-102.77100372314453 -28.586000442504883,-91.62999725341797 -33.24300003051758,-75.447998046875 C-37.33599853515625,-61.224998474121094 -42.244998931884766,-64.41600036621094 -51.75199890136719,-63.37099838256836 C-58.750999450683594,-62.60200119018555 -18.481000900268555,-55.12200164794922 -23.18600082397461,-58.45199966430664 C-21.183000564575195,-77.00299835205078 -9.177000045776367,-104.4469985961914 -13.331000328063965,-112.4749984741211 C-20.072999954223633,-125.50499725341797 -75.09100341796875,-146.8820037841797 -91.02999877929688,-140.94400024414062 C-69.74600219726562,-136.8209991455078 -45.22999954223633,-125.96700286865234 -34.500999450683594,-115.31500244140625z"></path></g><g opacity="1" transform="matrix(1,0,0,1,0,0)"><path fill="rgb(255,223,121)" fill-opacity="1" d=" M-52.650001525878906,-63.5260009765625 C-76.86799621582031,-64.14700317382812 -73.35600280761719,-59.3390007019043 -64.15699768066406,-57.10100173950195 C-48.98899841308594,-53.4109992980957 -38.138999938964844,-48.60599899291992 -35.12699890136719,-47.37099838256836 C-1.8300000429153442,-33.7140007019043 24.441999435424805,-11.642999649047852 33.79999923706055,25.104000091552734 C43.553001403808594,63.40299987792969 40.47100067138672,74.15599822998047 60.527000427246094,104.3010025024414 C67.11299896240234,114.1989974975586 86.08200073242188,128.78399658203125 66.29399871826172,132.72000122070312 C62.016998291015625,133.5709991455078 70.6969985961914,138.843994140625 67.33100128173828,141.96400451660156 C100.7959976196289,135.58200073242188 90.5989990234375,118.01699829101562 85.44400024414062,114.24299621582031 C75.65899658203125,107.0790023803711 66.67900085449219,97.10199737548828 61.51300048828125,82.89099884033203 C56.34700012207031,68.67900085449219 48.23699951171875,19.08799934387207 39.040000915527344,-2.002000093460083 C31.284000396728516,-19.784000396728516 18.548999786376953,-32.08000183105469 6.449999809265137,-40.76499938964844 C-6.373000144958496,-49.97100067138672 -18.481000900268555,-55.12200164794922 -23.18600082397461,-58.45199966430664 C-28.6200008392334,-60.79100036621094 -43.8650016784668,-63.30099868774414 -52.650001525878906,-63.5260009765625z"></path></g><g opacity="1" transform="matrix(1,0,0,1,0,0)"><path stroke-linecap="round" stroke-linejoin="round" fill-opacity="0" stroke="rgb(255,255,255)" stroke-opacity="1" stroke-width="6" d=" M17.88599967956543,-8.756999969482422 C18.37700080871582,-8.095000267028809 18.861000061035156,-7.425000190734863 19.336000442504883,-6.748000144958496"></path></g><g opacity="1" transform="matrix(1,0,0,1,0,0)"><path stroke-linecap="round" stroke-linejoin="round" fill-opacity="0" stroke="rgb(255,255,255)" stroke-opacity="1" stroke-width="6" d=" M-4.465000152587891,-30.624000549316406 C0.7039999961853027,-26.868999481201172 5.506999969482422,-22.742000579833984 9.878999710083008,-18.202999114990234"></path></g></g><g style="display: block;" transform="matrix(1,0,0,1,358.1600036621094,280.7960205078125)" opacity="1"><g opacity="1" transform="matrix(1,0,0,1,0,0)"><path fill="rgb(255,177,57)" fill-opacity="1" d=" M36.737998962402344,21.152999877929688 C35.5359992980957,40.31700134277344 2.424999952316284,40.58000183105469 -11.480999946594238,24.19700050354004 C-26.893999099731445,6.0370001792907715 -31.253000259399414,-13.067999839782715 -39.97999954223633,-49.430999755859375 C-39.356998443603516,-4.341000080108643 -37.69499969482422,20.5939998626709 -10.57800006866455,41.63999938964844 C4.502999782562256,53.345001220703125 23.937999725341797,50.374000549316406 32.77799987792969,42.479000091552734 C43.172000885009766,33.19599914550781 40.25,32.84600067138672 36.737998962402344,21.152999877929688z"></path></g></g><g style="display: block;" transform="matrix(0,1,-1,0,342.3800048828125,227.95999145507812)" opacity="1"><g opacity="1" transform="matrix(1,0,0,1,0,0)"><path stroke-linecap="round" stroke-linejoin="round" fill-opacity="0" stroke="rgb(247,126,65)" stroke-opacity="1" stroke-width="8" d=" M-100.73999786376953,55.7130012512207 C-89.42500305175781,38.194000244140625 -84.19400024414062,18.961999893188477 -60.071998596191406,3.678999900817871 C-23.5310001373291,-19.472999572753906 2.736999988555908,-15.173999786376953 28.131000518798828,-23.757999420166016 C67.35199737548828,-37.01599884033203 63.59600067138672,-47.10599899291992 76.51100158691406,-54.20000076293945 C82.82499694824219,-57.66899871826172 89.38400268554688,-54.89099884033203 94.08300018310547,-48.71699905395508 C101.81900024414062,-38.551998138427734 104.51200103759766,-19.179000854492188 92.76399993896484,-3.319000005722046 C81.71499633789062,11.597000122070312 57.61800003051758,20.59000015258789 31.176000595092773,23.361000061035156"></path></g></g><g style="display: block;" transform="matrix(0,1,-1,0,293.6659851074219,352.83001708984375)" opacity="1"><g opacity="1" transform="matrix(1,0,0,1,0,0)"><path fill="rgb(255,209,64)" fill-opacity="1" d=" M11.920000076293945,-28.128000259399414 C-10.031000137329102,-27.891000747680664 -57.933998107910156,-28.8799991607666 -121.89099884033203,-22.843000411987305 C-121.89099884033203,-22.843000411987305 -120.5770034790039,26.926000595092773 -120.5770034790039,26.926000595092773 C-120.5770034790039,26.926000595092773 -43.529998779296875,28.666000366210938 -43.529998779296875,28.666000366210938 C-33.31999969482422,28.374000549316406 -3.0390000343322754,27.222999572753906 26.702999114990234,26.018999099731445 C55.446998596191406,24.854999542236328 83.68599700927734,23.641000747680664 92.82099914550781,23.10300064086914 C129.97000122070312,20.916000366210938 131.98199462890625,-23.38599967956543 92.98600006103516,-26.040000915527344 C73.97000122070312,-27.333999633789062 30.969999313354492,-28.333999633789062 11.920000076293945,-28.128000259399414z"></path></g></g><g style="display: block;" transform="matrix(1,0,0,1,137.72900390625,129.9010009765625)" opacity="1"><g opacity="1" transform="matrix(1,0,0,1,0,0)"><path fill="rgb(255,177,57)" fill-opacity="1" d=" M20.590999603271484,-75.64700317382812 C0.07400000095367432,-74.10099792480469 -7.191999912261963,-63.24399948120117 -14.960000038146973,-53.81100082397461 C-19.496000289916992,-48.30400085449219 -9.005999565124512,-5.632999897003174 -7.27400016784668,10.13700008392334 C-5.369999885559082,27.47800064086914 -20.030000686645508,44.395999908447266 -20.590999603271484,75.64700317382812 C-10.111000061035156,44.395999908447266 -4.142000198364258,42.53799819946289 4.993000030517578,16.399999618530273 C10.168000221252441,1.5920000076293945 1.9010000228881836,-1.1660000085830688 -6.109000205993652,-44.59000015258789 C-7.795000076293945,-53.729000091552734 10.472999572753906,-70.4469985961914 20.590999603271484,-75.64700317382812z"></path><path fill="rgb(255,223,121)" fill-opacity="1" d=" M20.590999603271484,-75.64700317382812 C0.07400000095367432,-74.10099792480469 -7.191999912261963,-63.24399948120117 -14.960000038146973,-53.81100082397461 C-19.496000289916992,-48.30400085449219 -9.005999565124512,-5.632999897003174 -7.27400016784668,10.13700008392334 C-5.369999885559082,27.47800064086914 -20.030000686645508,44.395999908447266 -20.590999603271484,75.64700317382812 C-10.111000061035156,44.395999908447266 -4.142000198364258,42.53799819946289 4.993000030517578,16.399999618530273 C10.168000221252441,1.5920000076293945 1.9010000228881836,-1.1660000085830688 -6.109000205993652,-44.59000015258789 C-7.795000076293945,-53.729000091552734 10.472999572753906,-70.4469985961914 20.590999603271484,-75.64700317382812z"></path></g></g><g style="display: block;" transform="matrix(1,0,0,1,216.79098510742188,320.6300048828125)" opacity="1"><g opacity="1" transform="matrix(1,0,0,1,0,0)"><path fill="rgb(255,177,57)" fill-opacity="1" d=" M-87.76200103759766,-155.0330047607422 C-94.45500183105469,-141.35000610351562 -102.23500061035156,-131.26499938964844 -103.197998046875,-102.55500030517578 C-103.97799682617188,-79.31099700927734 -102.08499908447266,-53.11199951171875 -90.72899627685547,-35.27399826049805 C-77.66100311279297,-14.744999885559082 -54.16600036621094,-23.52400016784668 -54.16600036621094,-23.52400016784668 C-54.16600036621094,-23.52400016784668 -49.619998931884766,-8.329999923706055 -26.541000366210938,-6.27400016784668 C-18.263999938964844,-5.535999774932861 -4.635000228881836,-12.243000030517578 -4.635000228881836,-12.241999626159668 C-4.635000228881836,-12.241999626159668 2.380000114440918,2.0799999237060547 24.583999633789062,2.381999969482422 C29.27199935913086,2.446000099182129 41.617000579833984,-1.968000054359436 48.494998931884766,-8.119999885559082 C49.42599868774414,-2.053999900817871 50.78300094604492,62.69499969482422 51.71799850463867,101.0260009765625 C52.073001861572266,115.57499694824219 52.36600112915039,126.31700134277344 52.553001403808594,128.6009979248047 C54.888999938964844,157.23699951171875 94.25199890136719,171.09500122070312 103.27100372314453,125.50800323486328 C103.89700317382812,115.18900299072266 100.7040023803711,96.15799713134766 99.86000061035156,105.96900177001953 C100.05000305175781,136.13800048828125 77.36900329589844,141.9320068359375 70.05400085449219,132.1199951171875 C62.73899841308594,122.30699920654297 65.08699798583984,103.11199951171875 64.1500015258789,67.2969970703125 C63.17599868774414,30.003999710083008 62.347999572753906,-9.581999778747559 60.84700012207031,-21.43899917602539 C59.231998443603516,-34.20000076293945 46.22700119018555,-17.523000717163086 27.982999801635742,-19.201000213623047 C3.6500000953674316,-21.43899917602539 5.24399995803833,-34.803001403808594 -1.2359999418258667,-33.0890007019043 C-6.585999965667725,-31.673999786376953 -15.14799976348877,-25.7189998626709 -27.115999221801758,-26.9689998626709 C-46.21900177001953,-28.96500015258789 -46.143001556396484,-43.80400085449219 -57.84000015258789,-43.32699966430664 C-72.87799835205078,-42.7130012512207 -84.53900146484375,-51.76599884033203 -90.677001953125,-68.9520034790039 C-98.12799835205078,-89.81300354003906 -96.81500244140625,-115.13800048828125 -87.76200103759766,-155.0330047607422z"></path></g></g><g style="display: block;" transform="matrix(1,0,0,1,314.0099792480469,346.80902099609375)" opacity="1"><g opacity="1" transform="matrix(1,0,0,1,0,0)"><path fill="rgb(255,223,121)" fill-opacity="1" d=" M6.195000171661377,-116.74299621582031 C3.114000082015991,-127.19200134277344 -9.59000015258789,-126.02899932861328 -8.08899974822998,-112.5250015258789 C-4.7729997634887695,-82.68099975585938 -3.7639999389648438,-61.106998443603516 -2.678999900817871,-32.76599884033203 C-1.8450000286102295,-10.973999977111816 -0.5360000133514404,19.61199951171875 -1.0299999713897705,53.86800003051758 C-1.4889999628067017,85.66500091552734 0.03999999910593033,106.45600128173828 -10.048999786376953,123.7300033569336 C14.869000434875488,123.11900329589844 10.4350004196167,31.09000015258789 8.361000061035156,-26.593000411987305 C7.368000030517578,-54.19499969482422 9.593000411987305,-98.14399719238281 6.195000171661377,-116.74299621582031z"></path></g></g><g style="display: block;" transform="matrix(0,1,-1,0,293.6659851074219,352.83001708984375)" opacity="1"><g opacity="1" transform="matrix(1,0,0,1,0,0)"><path stroke-linecap="round" stroke-linejoin="round" fill-opacity="0" stroke="rgb(247,126,65)" stroke-opacity="1" stroke-width="8" d=" M-121.89099884033203,-22.843000411987305 C-57.933998107910156,-28.8799991607666 -10.031000137329102,-27.891000747680664 11.920000076293945,-28.128000259399414 C30.969999313354492,-28.333999633789062 73.97000122070312,-27.333999633789062 92.98600006103516,-26.040000915527344 C131.98199462890625,-23.38599967956543 129.97000122070312,20.916000366210938 92.82099914550781,23.10300064086914 C83.68599700927734,23.641000747680664 55.446998596191406,24.854999542236328 26.702999114990234,26.018999099731445 C-3.0390000343322754,27.222999572753906 -33.31999969482422,28.374000549316406 -43.529998779296875,28.666000366210938"></path></g></g><g style="display: block;" transform="matrix(0,1,-1,0,189.01199340820312,229.2519989013672)" opacity="1"><g opacity="1" transform="matrix(1,0,0,1,0,0)"><path stroke-linecap="round" stroke-linejoin="round" fill-opacity="0" stroke="rgb(247,126,65)" stroke-opacity="1" stroke-width="8" d=" M-91.99500274658203,57.6150016784668 C-77.7030029296875,55.26900100708008 -59.007999420166016,68.7760009765625 -32.90700149536133,72.76100158691406 C-4.9629998207092285,77.0270004272461 11.468000411987305,76.48500061035156 32.73699951171875,72.25700378417969 C43.62099838256836,70.09300231933594 51.323001861572266,66.42500305175781 56.736000061035156,62.01599884033203 C69.052001953125,51.983001708984375 69.51399993896484,38.111000061035156 68.62899780273438,29.371999740600586 C68.56400299072266,28.73200035095215 68.49199676513672,28.118999481201172 68.41699981689453,27.538000106811523 C71.26599884033203,25.523000717163086 73.69000244140625,23.274999618530273 75.71199798583984,20.860000610351562 C80.23100280761719,15.46399974822998 82.74700164794922,9.230999946594238 83.53299713134766,2.872999906539917 C84.56999969482422,-5.517000198364258 82.59500122070312,-14.12399959564209 78.2300033569336,-21.31100082397461 C79.17500305175781,-21.743000030517578 80.197998046875,-22.97100067138672 82.02200317382812,-24.825000762939453 C88.44200134277344,-31.351999282836914 91.76100158691406,-42.388999938964844 91.97100067138672,-48.27899932861328 C92.39199829101562,-60.08399963378906 87.2229995727539,-71.0770034790039 80.57599639892578,-75.70600128173828"></path></g></g><g style="display: block;" transform="matrix(0,1,-1,0,208.09500122070312,88.76899719238281)" opacity="1"><g opacity="1" transform="matrix(1,0,0,1,0,0)"><path stroke-linecap="round" stroke-linejoin="round" fill-opacity="0" stroke="rgb(247,126,65)" stroke-opacity="1" stroke-width="8" d=" M37.78099822998047,-77.52999877929688 C30.854000091552734,-77.16999816894531 12.118000030517578,-83.37899780273438 4.026000022888184,-85.44499969482422 C-3.4749999046325684,-87.36100006103516 -13.687999725341797,-91.82099914550781 -19.44499969482422,-84.7239990234375 C-56.49399948120117,-39.04899978637695 -61.270999908447266,50.034000396728516 -11.416999816894531,87.76000213623047 C-10.279999732971191,88.62100219726562 -8.60099983215332,88.73200225830078 -7.197999954223633,88.4749984741211 C10.60099983215332,85.21800231933594 30.32699966430664,80.4990005493164 48.03099822998047,76.76200103759766"></path></g></g></g></svg>