<svg xmlns="http://www.w3.org/2000/svg" viewBox="0 0 512 512" width="512" height="512" style="width: 100%; height: 100%; transform: translate3d(0,0,0);" preserveAspectRatio="xMidYMid meet"><defs><clipPath id="__lottie_element_19169"><rect width="512" height="512" x="0" y="0"></rect></clipPath><clipPath id="__lottie_element_19172"><path d="M0,0 L512,0 L512,512 L0,512z"></path></clipPath><linearGradient id="__lottie_element_19423" spreadMethod="pad" gradientUnits="userSpaceOnUse" x1="19" y1="69" x2="-55.21500015258789" y2="-73.72100067138672"><stop offset="34%" stop-color="rgb(142,238,192)"></stop><stop offset="73%" stop-color="rgb(103,211,167)"></stop><stop offset="100%" stop-color="rgb(63,184,142)"></stop></linearGradient><radialGradient id="__lottie_element_19426" spreadMethod="pad" gradientUnits="userSpaceOnUse" cx="145" cy="25" r="21.078994750976562" fx="145" fy="25"><stop offset="17%" stop-color="rgb(209,238,227)" stop-opacity="0.20000000298023224"></stop><stop offset="67%" stop-color="rgb(206,236,224)" stop-opacity="0.6000000238418579"></stop><stop offset="98%" stop-color="rgb(202,234,221)" stop-opacity="1"></stop></radialGradient><radialGradient id="__lottie_element_19427" spreadMethod="pad" gradientUnits="userSpaceOnUse" cx="102" cy="65" r="41.613006591796875" fx="102" fy="65"><stop offset="17%" stop-color="rgb(209,238,227)" stop-opacity="0.20000000298023224"></stop><stop offset="67%" stop-color="rgb(206,236,224)" stop-opacity="0.6000000238418579"></stop><stop offset="98%" stop-color="rgb(202,234,221)" stop-opacity="1"></stop></radialGradient><radialGradient id="__lottie_element_19431" spreadMethod="pad" gradientUnits="userSpaceOnUse" cx="-2" cy="63" r="19.69300079345703" fx="-2" fy="63"><stop offset="44%" stop-color="rgb(255,255,255)" stop-opacity="0"></stop><stop offset="70%" stop-color="rgb(225,244,236)" stop-opacity="0.5"></stop><stop offset="100%" stop-color="rgb(195,232,216)" stop-opacity="1"></stop></radialGradient><radialGradient id="__lottie_element_19438" spreadMethod="pad" gradientUnits="userSpaceOnUse" cx="82" cy="-27.895000457763672" r="28.96900177001953" fx="82" fy="-27.895000457763672"><stop offset="44%" stop-color="rgb(255,255,255)" stop-opacity="0"></stop><stop offset="78%" stop-color="rgb(236,248,244)" stop-opacity="0.5"></stop><stop offset="100%" stop-color="rgb(216,241,232)" stop-opacity="1"></stop></radialGradient><radialGradient id="__lottie_element_19439" spreadMethod="pad" gradientUnits="userSpaceOnUse" cx="59" cy="-9" r="16.432998657226562" fx="59" fy="-9"><stop offset="44%" stop-color="rgb(255,255,255)" stop-opacity="0"></stop><stop offset="78%" stop-color="rgb(236,248,244)" stop-opacity="0.5"></stop><stop offset="100%" stop-color="rgb(216,241,232)" stop-opacity="1"></stop></radialGradient><radialGradient id="__lottie_element_19440" spreadMethod="pad" gradientUnits="userSpaceOnUse" cx="59" cy="-8.890000343322754" r="16.432998657226562" fx="59" fy="-8.890000343322754"><stop offset="44%" stop-color="rgb(255,255,255)" stop-opacity="0"></stop><stop offset="78%" stop-color="rgb(236,248,244)" stop-opacity="0.5"></stop><stop offset="100%" stop-color="rgb(216,241,232)" stop-opacity="1"></stop></radialGradient><radialGradient id="__lottie_element_19444" spreadMethod="pad" gradientUnits="userSpaceOnUse" cx="-8" cy="-54.94300079345703" r="36.922000885009766" fx="-8" fy="-54.94300079345703"><stop offset="44%" stop-color="rgb(255,255,255)" stop-opacity="0"></stop><stop offset="68%" stop-color="rgb(255,255,255)" stop-opacity="0.5"></stop><stop offset="100%" stop-color="rgb(255,255,255)" stop-opacity="1"></stop></radialGradient><radialGradient id="__lottie_element_19445" spreadMethod="pad" gradientUnits="userSpaceOnUse" cx="-56" cy="-12.729000091552734" r="12.8489990234375" fx="-56" fy="-12.729000091552734"><stop offset="44%" stop-color="rgb(255,255,255)" stop-opacity="0"></stop><stop offset="68%" stop-color="rgb(255,255,255)" stop-opacity="0.5"></stop><stop offset="100%" stop-color="rgb(255,255,255)" stop-opacity="1"></stop></radialGradient><radialGradient id="__lottie_element_19449" spreadMethod="pad" gradientUnits="userSpaceOnUse" cx="12" cy="-112.93199920654297" r="73.84500122070312" fx="12" fy="-112.93199920654297"><stop offset="44%" stop-color="rgb(255,255,255)" stop-opacity="0"></stop><stop offset="78%" stop-color="rgb(234,248,243)" stop-opacity="0.5"></stop><stop offset="100%" stop-color="rgb(212,240,231)" stop-opacity="1"></stop></radialGradient><radialGradient id="__lottie_element_19450" spreadMethod="pad" gradientUnits="userSpaceOnUse" cx="148" cy="-69.21099853515625" r="27.844347315072657" fx="148" fy="-69.21099853515625"><stop offset="44%" stop-color="rgb(255,255,255)" stop-opacity="0"></stop><stop offset="78%" stop-color="rgb(234,248,243)" stop-opacity="0.5"></stop><stop offset="100%" stop-color="rgb(212,240,231)" stop-opacity="1"></stop></radialGradient><radialGradient id="__lottie_element_19481" spreadMethod="pad" gradientUnits="userSpaceOnUse" cx="123" cy="-94.94100189208984" r="43.313995361328125" fx="123" fy="-94.94100189208984"><stop offset="17%" stop-color="rgb(209,238,227)" stop-opacity="0.10000000149011612"></stop><stop offset="67%" stop-color="rgb(206,236,224)" stop-opacity="0.550000011920929"></stop><stop offset="98%" stop-color="rgb(202,234,221)" stop-opacity="1"></stop></radialGradient><radialGradient id="__lottie_element_19482" spreadMethod="pad" gradientUnits="userSpaceOnUse" cx="-79" cy="-67.75599670410156" r="43.41999816894531" fx="-79" fy="-67.75599670410156"><stop offset="17%" stop-color="rgb(209,238,227)" stop-opacity="0.10000000149011612"></stop><stop offset="67%" stop-color="rgb(206,236,224)" stop-opacity="0.550000011920929"></stop><stop offset="98%" stop-color="rgb(202,234,221)" stop-opacity="1"></stop></radialGradient></defs><g clip-path="url(#__lottie_element_19169)"><g style="display: none;"><g><path stroke-linecap="round" stroke-linejoin="round" fill-opacity="0"></path></g></g><g style="display: none;"><g><path stroke-linecap="round" stroke-linejoin="round" fill-opacity="0"></path></g></g><g style="display: block;" transform="matrix(0.9999999403953552,0,0,0.9999999403953552,255.9996337890625,256.0004577636719)" opacity="1"><g opacity="1" transform="matrix(1,0,0,1,0,0)"><g opacity="0.8" transform="matrix(1,0,0,1,0,0)"><path fill="url(#__lottie_element_19481)" fill-opacity="1" d=" M74.24500274658203,-100.20899963378906 C74.24500274658203,-100.20899963378906 88.25800323486328,-137.0959930419922 133.343994140625,-129.78500366210938 C178.42999267578125,-122.4739990234375 181.08299255371094,-67.23300170898438 160.15199279785156,-60.32899856567383 C134.04400634765625,-51.71799850463867 66.46700286865234,-80.66200256347656 74.24500274658203,-100.20899963378906z"></path></g><g opacity="1" transform="matrix(1,0,0,1,0,0)"><path stroke-linecap="round" stroke-linejoin="round" fill-opacity="0" stroke="rgb(140,211,193)" stroke-opacity="1" stroke-width="4" d=" M74.24500274658203,-100.20899963378906 C74.24500274658203,-100.20899963378906 88.25800323486328,-137.0959930419922 133.343994140625,-129.78500366210938 C178.42999267578125,-122.4739990234375 181.08299255371094,-67.23300170898438 160.15199279785156,-60.32899856567383 C134.04400634765625,-51.71799850463867 66.46700286865234,-80.66200256347656 74.24500274658203,-100.20899963378906z"></path></g><g opacity="0.8" transform="matrix(1,0,0,1,0,0)"><path fill="rgb(255,255,255)" fill-opacity="1" d=" M101.50800323486328,-106.0479965209961 C101.50800323486328,-106.0479965209961 101.08499908447266,-116.08699798583984 101.08499908447266,-116.08699798583984 C101.01799774169922,-117.68499755859375 101.80599975585938,-119.24199676513672 103.26000213623047,-120.26899719238281 C105.81300354003906,-122.0719985961914 110.47100067138672,-124.55999755859375 117.00700378417969,-124.83499908447266 C123.78199768066406,-125.12100219726562 128.44700622558594,-123.26000213623047 131.06700134277344,-121.75399780273438 C132.6529998779297,-120.84200286865234 133.6269989013672,-119.34400177001953 133.6959991455078,-117.7040023803711 C133.6959991455078,-117.7040023803711 134.12600708007812,-107.50800323486328 134.12600708007812,-107.50800323486328 C134.15699768066406,-106.77400207519531 133.22999572753906,-106.27999877929688 132.48599243164062,-106.64199829101562 C128.21800231933594,-108.71900177001953 116.5,-112.96299743652344 103.20099639892578,-105.32099914550781 C102.48999786376953,-104.91300201416016 101.53900146484375,-105.322998046875 101.50800323486328,-106.0479965209961z"></path></g></g><g opacity="1" transform="matrix(1,0,0,1,0,0)"><g opacity="0.8" transform="matrix(1,0,0,1,0,0)"><path fill="url(#__lottie_element_19482)" fill-opacity="1" d=" M-29.569000244140625,-79.5989990234375 C-41.814998626708984,-97.16899871826172 -68.05400085449219,-107.06400299072266 -98.23600006103516,-94.68000030517578 C-127.20600128173828,-82.79299926757812 -146.6929931640625,-38.263999938964844 -112.77999877929688,-34.604000091552734 C-78.86699676513672,-30.944000244140625 -13.710000038146973,-56.84600067138672 -29.569000244140625,-79.5989990234375z"></path></g><g opacity="1" transform="matrix(1,0,0,1,0,0)"><path stroke-linecap="round" stroke-linejoin="round" fill-opacity="0" stroke="rgb(140,211,193)" stroke-opacity="1" stroke-width="4" d=" M-29.569000244140625,-79.5989990234375 C-41.814998626708984,-97.16899871826172 -68.05400085449219,-107.06400299072266 -98.23600006103516,-94.68000030517578 C-127.20600128173828,-82.79299926757812 -146.6929931640625,-38.263999938964844 -112.77999877929688,-34.604000091552734 C-78.86699676513672,-30.944000244140625 -13.710000038146973,-56.84600067138672 -29.569000244140625,-79.5989990234375z"></path></g><g opacity="0.8" transform="matrix(1,0,0,1,0,0)"><path fill="rgb(255,255,255)" fill-opacity="1" d=" M-93.91899871826172,-71.7020034790039 C-93.91899871826172,-71.7020034790039 -94.66400146484375,-82.24199676513672 -94.66400146484375,-82.24199676513672 C-94.78299713134766,-83.91999816894531 -93.93800354003906,-85.58399963378906 -92.33100128173828,-86.71499633789062 C-89.51000213623047,-88.70099639892578 -84.34100341796875,-91.4800033569336 -77.0009994506836,-91.9990005493164 C-69.39199829101562,-92.53700256347656 -64.0979995727539,-90.74500274658203 -61.112998962402344,-89.25299835205078 C-59.305999755859375,-88.3499984741211 -58.17100143432617,-86.80799865722656 -58.04899978637695,-85.08699798583984 C-58.04899978637695,-85.08699798583984 -57.29100036621094,-74.38300323486328 -57.29100036621094,-74.38300323486328 C-57.236000061035156,-73.61199951171875 -58.26599884033203,-73.05999755859375 -59.11199951171875,-73.41500091552734 C-63.965999603271484,-75.447998046875 -77.2509994506836,-79.4990005493164 -91.99600219726562,-70.99700164794922 C-92.78399658203125,-70.54299926757812 -93.86499786376953,-70.94000244140625 -93.91899871826172,-71.7020034790039z"></path></g></g></g><g style="display: block;" transform="matrix(0.9999999403953552,0,0,0.9999999403953552,255.9996337890625,256.0004577636719)" opacity="1"><g opacity="1" transform="matrix(1,0,0,1,0,0)"><path fill="rgb(51,187,127)" fill-opacity="1" d=" M-48.04800033569336,-77.85099792480469 C-141.39100646972656,-46.26100158691406 -201.4219970703125,-14.888999938964844 -210.14100646972656,19.00200080871582 C-220.10699462890625,57.736000061035156 -175.39999389648438,115.85399627685547 -151.18699645996094,143.2259979248047 C-126.9739990234375,170.59800720214844 -81.63500213623047,176.3699951171875 -40.64799880981445,146.35299682617188 C-1.9119999408721924,117.98500061035156 55.90399932861328,84.03299713134766 100.41999816894531,73.74500274658203 C165.9739990234375,58.59400177001953 176.14500427246094,43.99800109863281 187.8300018310547,20.05500030517578 C200.81900024414062,-6.559999942779541 199.37899780273438,-28.371999740600586 168.8489990234375,-54.691001892089844 C138.32000732421875,-81.01000213623047 98.0260009765625,-103.53199768066406 56.97100067138672,-101.37999725341797 C11.088000297546387,-98.97599792480469 -24.70400047302246,-85.7509994506836 -48.04800033569336,-77.85099792480469z"></path></g><g opacity="1" transform="matrix(1,0,0,1,0,0)"><path fill="url(#__lottie_element_19423)" fill-opacity="1" d=" M-48.04800033569336,-77.85099792480469 C-141.39100646972656,-46.26100158691406 -201.89199829101562,-15.006999969482422 -210.14100646972656,19.00200080871582 C-211.61199951171875,25.06599998474121 -214.25,33.75 -210.1540069580078,41.7140007019043 C-193.99099731445312,73.14199829101562 -158.39100646972656,117.22000122070312 -129.18699645996094,126.72599792480469 C-94.26100158691406,138.093994140625 -59.6349983215332,123.87000274658203 -18.648000717163086,93.85299682617188 C20.08799934387207,65.48500061035156 68.75,34.25 123.91999816894531,23.9950008392334 C190.06900024414062,11.699000358581543 192.8939971923828,-0.6880000233650208 189.32899475097656,-22.44499969482422 C187.375,-34.375 183.5,-41.25 168.8489990234375,-54.691001892089844 C139.14599609375,-81.93900299072266 98.0250015258789,-103.53199768066406 56.970001220703125,-101.37999725341797 C11.086999893188477,-98.97599792480469 -24.70400047302246,-85.7509994506836 -48.04800033569336,-77.85099792480469z"></path><path stroke-linecap="round" stroke-linejoin="miter" fill-opacity="0" stroke-miterlimit="10" stroke="rgb(92,202,155)" stroke-opacity="1" stroke-width="1" d=" M-48.04800033569336,-77.85099792480469 C-141.39100646972656,-46.26100158691406 -201.89199829101562,-15.006999969482422 -210.14100646972656,19.00200080871582 C-211.61199951171875,25.06599998474121 -214.25,33.75 -210.1540069580078,41.7140007019043 C-193.99099731445312,73.14199829101562 -158.39100646972656,117.22000122070312 -129.18699645996094,126.72599792480469 C-94.26100158691406,138.093994140625 -59.6349983215332,123.87000274658203 -18.648000717163086,93.85299682617188 C20.08799934387207,65.48500061035156 68.75,34.25 123.91999816894531,23.9950008392334 C190.06900024414062,11.699000358581543 192.8939971923828,-0.6880000233650208 189.32899475097656,-22.44499969482422 C187.375,-34.375 183.5,-41.25 168.8489990234375,-54.691001892089844 C139.14599609375,-81.93900299072266 98.0250015258789,-103.53199768066406 56.970001220703125,-101.37999725341797 C11.086999893188477,-98.97599792480469 -24.70400047302246,-85.7509994506836 -48.04800033569336,-77.85099792480469z"></path></g></g><g style="display: block;" transform="matrix(0.9999999403953552,0,0,0.9999999403953552,255.9996337890625,256.0004577636719)" opacity="1"><g opacity="1" transform="matrix(1,0,0,1,0,0)"><path fill="rgb(80,188,139)" fill-opacity="1" d=" M-26.764999389648438,-67.55699920654297 C-72.31300354003906,-51.41699981689453 -101.76300048828125,-38.308998107910156 -97.89399719238281,-23.479999542236328 C-94.0250015258789,-8.649999618530273 -76.72699737548828,2.9149999618530273 -61.95399856567383,10.133000373840332 C-43.82500076293945,18.989999771118164 -16.25200080871582,2.9749999046325684 32.992000579833984,-15.303999900817871 C68.47000122070312,-28.472999572753906 100.05500030517578,-33.65700149536133 100.0199966430664,-45.01900100708008 C99.98600006103516,-56.05500030517578 77.9209976196289,-74.8270034790039 60.512001037597656,-79.98500061035156 C43.10300064086914,-85.14299774169922 5.986000061035156,-79.16300201416016 -26.764999389648438,-67.55699920654297z"></path></g><g opacity="1" transform="matrix(1,0,0,1,0,0)"><path fill="rgb(130,224,177)" fill-opacity="1" d=" M-20.764999389648438,-55.30699920654297 C-66.31300354003906,-39.16699981689453 -103.25,-25 -87.64399719238281,-7.480000019073486 C-83.9990005493164,-3.388000011444092 -76.72699737548828,2.9149999618530273 -61.95399856567383,10.133000373840332 C-43.82500076293945,18.989999771118164 -16.250999450683594,2.9749999046325684 32.99300003051758,-15.303999900817871 C68.47100067138672,-28.472999572753906 98.625,-34.375 99.5199966430664,-42.64400100708008 C99.125,-47.75 84.875,-64 65.88700103759766,-68.98500061035156 C48.32600021362305,-73.59600067138672 11.986000061035156,-66.91300201416016 -20.764999389648438,-55.30699920654297z"></path></g></g><g style="display: block;" transform="matrix(0.9999999403953552,0,0,0.9999999403953552,255.9996337890625,256.0004577636719)" opacity="1"><g opacity="0.2" transform="matrix(1,0,0,1,0,0)"><path fill="rgb(17,127,80)" fill-opacity="1" d=" M-43.861000061035156,-65.16400146484375 C-20.517000198364258,-73.06400299072266 9.699999809265137,-84.88500213623047 54.97100067138672,-87.00499725341797 C92.25,-88.75 128.69500732421875,-70.01000213623047 159.2239990234375,-43.691001892089844 C189.75399780273438,-17.371999740600586 186.7449951171875,3.0940001010894775 176.5800018310547,25.43000030517578 C165,50.875 165.9739990234375,58.59400177001953 100.41999816894531,73.74500274658203 C55.90399932861328,84.03299713134766 -1.9119999408721924,117.98400115966797 -40.64799880981445,146.35299682617188 C-81.63500213623047,176.3699951171875 -121.5,165.5 -144.18699645996094,140.4759979248047 C-168.73300170898438,113.4020004272461 -205.39100646972656,65.18099975585938 -198.14100646972656,25.50200080871582 C-192.75,-4 -137.20399475097656,-33.57400131225586 -43.861000061035156,-65.16400146484375z M-48.04800033569336,-77.85099792480469 C-141.39100646972656,-46.26100158691406 -201.4219970703125,-14.888999938964844 -210.14100646972656,19.00200080871582 C-220.10699462890625,57.736000061035156 -175.39999389648438,115.85399627685547 -151.18699645996094,143.2259979248047 C-126.9739990234375,170.59800720214844 -81.63500213623047,176.3699951171875 -40.64799880981445,146.35299682617188 C-1.9119999408721924,117.98500061035156 55.90399932861328,84.03299713134766 100.41999816894531,73.74500274658203 C165.9739990234375,58.59400177001953 176.14500427246094,43.99800109863281 187.8300018310547,20.05500030517578 C200.81900024414062,-6.559999942779541 199.37899780273438,-28.371999740600586 168.8489990234375,-54.691001892089844 C138.32000732421875,-81.01000213623047 98.0260009765625,-103.53199768066406 56.97100067138672,-101.37999725341797 C11.088000297546387,-98.97599792480469 -24.70400047302246,-85.7509994506836 -48.04800033569336,-77.85099792480469z"></path></g><g opacity="1" transform="matrix(1,0,0,1,0,0)"><path stroke-linecap="round" stroke-linejoin="miter" fill-opacity="0" stroke-miterlimit="10" stroke="rgb(17,127,80)" stroke-opacity="1" stroke-width="8" d=" M-48.04800033569336,-77.85099792480469 C-141.39100646972656,-46.26100158691406 -201.4219970703125,-14.888999938964844 -210.14100646972656,19.00200080871582 C-220.10699462890625,57.736000061035156 -175.39999389648438,115.85399627685547 -151.18699645996094,143.2259979248047 C-126.9739990234375,170.59800720214844 -81.63500213623047,176.3699951171875 -40.64799880981445,146.35299682617188 C-1.9119999408721924,117.98500061035156 55.90399932861328,84.03299713134766 100.41999816894531,73.74500274658203 C165.9739990234375,58.59400177001953 176.14500427246094,43.99800109863281 187.8300018310547,20.05500030517578 C200.81900024414062,-6.559999942779541 199.37899780273438,-28.371999740600586 168.8489990234375,-54.691001892089844 C138.32000732421875,-81.01000213623047 98.0260009765625,-103.53199768066406 56.97100067138672,-101.37999725341797 C11.088000297546387,-98.97599792480469 -24.70400047302246,-85.7509994506836 -48.04800033569336,-77.85099792480469z"></path></g></g><g style="display: none;"><g><path stroke-linecap="round" stroke-linejoin="round" fill-opacity="0"></path></g></g><g style="display: none;"><g><path stroke-linecap="round" stroke-linejoin="round" fill-opacity="0"></path></g></g><g style="display: none;"><g><path stroke-linecap="round" stroke-linejoin="round" fill-opacity="0"></path></g></g><g style="display: none;"><g><path stroke-linecap="round" stroke-linejoin="round" fill-opacity="0"></path></g></g><g style="display: none;"><g><path stroke-linecap="round" stroke-linejoin="round" fill-opacity="0"></path></g></g><g style="display: none;"><g><path stroke-linecap="round" stroke-linejoin="round" fill-opacity="0"></path></g></g><g style="display: none;"><g><path stroke-linecap="round" stroke-linejoin="round" fill-opacity="0"></path></g></g><g style="display: none;"><g><path stroke-linecap="round" stroke-linejoin="round" fill-opacity="0"></path></g></g><g style="display: block;" transform="matrix(0.9999999403953552,0,0,0.9999999403953552,255.9996337890625,256.0004577636719)" opacity="1"><g opacity="1" transform="matrix(1,0,0,1,0,0)"><g opacity="0.8" transform="matrix(1,0,0,1,0,0)"><path fill="url(#__lottie_element_19449)" fill-opacity="1" d=" M17.674999237060547,-56.7400016784668 C42.88100051879883,-57.93199920654297 81.62899780273438,-61.577999114990234 85.61299896240234,-92.11599731445312 C89.59700012207031,-122.65399932861328 63.28200149536133,-165.21600341796875 20.124000549316406,-168.53599548339844 C-23.034000396728516,-171.8560028076172 -52.68899917602539,-140.8070068359375 -59.13199996948242,-113.2300033569336 C-65.44300079345703,-86.21600341796875 -56.75899887084961,-71.56400299072266 -36.97700119018555,-63.14099884033203 C-23.27899932861328,-57.30799865722656 0.6179999709129333,-55.93299865722656 17.674999237060547,-56.7400016784668z"></path></g><g opacity="1" transform="matrix(1,0,0,1,0,0)"><path stroke-linecap="round" stroke-linejoin="round" fill-opacity="0" stroke="rgb(140,211,193)" stroke-opacity="1" stroke-width="4" d=" M17.674999237060547,-56.7400016784668 C42.88100051879883,-57.93199920654297 81.62899780273438,-61.577999114990234 85.61299896240234,-92.11599731445312 C89.59700012207031,-122.65399932861328 63.28200149536133,-165.21600341796875 20.124000549316406,-168.53599548339844 C-23.034000396728516,-171.8560028076172 -52.68899917602539,-140.8070068359375 -59.13199996948242,-113.2300033569336 C-65.44300079345703,-86.21600341796875 -56.75899887084961,-71.56400299072266 -36.97700119018555,-63.14099884033203 C-23.27899932861328,-57.30799865722656 0.6179999709129333,-55.93299865722656 17.674999237060547,-56.7400016784668z"></path></g><g opacity="0.8" transform="matrix(1,0,0,1,0,0)"><path fill="rgb(255,255,255)" fill-opacity="1" d=" M-11.95199966430664,-132.9969940185547 C-11.95199966430664,-132.9969940185547 -11.95199966430664,-148.08700561523438 -11.95199966430664,-148.08700561523438 C-11.95199966430664,-150.48899841308594 -10.734999656677246,-152.77499389648438 -8.600000381469727,-154.2239990234375 C-4.853000164031982,-156.76800537109375 1.937000036239624,-160.20700073242188 11.270000457763672,-160.20700073242188 C20.94499969482422,-160.20700073242188 27.482999801635742,-157.1199951171875 31.12700080871582,-154.69400024414062 C33.33300018310547,-153.22500610351562 34.63100051879883,-150.91400146484375 34.63100051879883,-148.4499969482422 C34.63100051879883,-148.4499969482422 34.63100051879883,-133.12600708007812 34.63100051879883,-133.12600708007812 C34.63100051879883,-132.02200317382812 33.28099822998047,-131.33999633789062 32.242000579833984,-131.92999267578125 C26.281999588012695,-135.3159942626953 9.835000038146973,-142.4250030517578 -9.581999778747559,-131.7989959716797 C-10.619999885559082,-131.2310028076172 -11.95199966430664,-131.90699768066406 -11.95199966430664,-132.9969940185547z"></path></g></g><g opacity="1" transform="matrix(1,0,0,1,0,0)"><g opacity="0.8" transform="matrix(1,0,0,1,0,0)"><path fill="url(#__lottie_element_19450)" fill-opacity="1" d=" M175.49000549316406,-48.5890007019043 C169.76499938964844,-46.27899932861328 162.81399536132812,-47.810001373291016 151.23300170898438,-47.14799880981445 C137.32899475097656,-46.35300064086914 111.76300048828125,-50.51499938964844 114.78600311279297,-67.96800231933594 C117.4540023803711,-83.37300109863281 133.9149932861328,-95.76499938964844 155.4029998779297,-91.13200378417969 C180.2830047607422,-85.76799774169922 187.3159942626953,-53.361000061035156 175.49000549316406,-48.5890007019043z"></path></g><g opacity="0.9" transform="matrix(1,0,0,1,0,0)"><path fill="rgb(255,255,255)" fill-opacity="1" d=" M133.78199768066406,-71.50800323486328 C133.78199768066406,-71.50800323486328 133.78199768066406,-80.01699829101562 133.78199768066406,-80.01699829101562 C133.78199768066406,-81.37200164794922 134.3979949951172,-82.66100311279297 135.47799682617188,-83.47799682617188 C137.37399291992188,-84.91300201416016 140.8090057373047,-86.85099792480469 145.531005859375,-86.85099792480469 C150.42599487304688,-86.85099792480469 153.73300170898438,-85.11100006103516 155.57699584960938,-83.74299621582031 C156.6929931640625,-82.91500091552734 157.35000610351562,-81.61199951171875 157.35000610351562,-80.22200012207031 C157.35000610351562,-80.22200012207031 157.35000610351562,-71.58000183105469 157.35000610351562,-71.58000183105469 C157.35000610351562,-70.95800018310547 156.66700744628906,-70.572998046875 156.14100646972656,-70.90599822998047 C153.12600708007812,-72.81500244140625 144.80499267578125,-76.8239974975586 134.9810028076172,-70.83200073242188 C134.45599365234375,-70.51200103759766 133.78199768066406,-70.89299774169922 133.78199768066406,-71.50800323486328z"></path></g><g opacity="1" transform="matrix(1,0,0,1,0,0)"><path stroke-linecap="round" stroke-linejoin="round" fill-opacity="0" stroke="rgb(140,211,193)" stroke-opacity="1" stroke-width="4" d=" M175.49000549316406,-48.5890007019043 C169.76499938964844,-46.27899932861328 162.81399536132812,-47.810001373291016 151.23300170898438,-47.14799880981445 C137.32899475097656,-46.35300064086914 111.76300048828125,-50.51499938964844 114.78600311279297,-67.96800231933594 C117.4540023803711,-83.37300109863281 133.9149932861328,-95.76499938964844 155.4029998779297,-91.13200378417969 C180.2830047607422,-85.76799774169922 187.3159942626953,-53.361000061035156 175.49000549316406,-48.5890007019043z"></path></g></g></g><g style="display: block;" transform="matrix(0.9999999403953552,0,0,0.9999999403953552,255.9996337890625,256.0004577636719)" opacity="1"><g opacity="1" transform="matrix(1,0,0,1,0,0)"><g opacity="1" transform="matrix(1,0,0,1,0,0)"><path fill="rgb(84,203,146)" fill-opacity="1" d=" M31.2549991607666,-36.37900161743164 C31.2549991607666,-35.4900016784668 30.972999572753906,-34.612998962402344 30.430999755859375,-33.77799987792969 C25.889999389648438,-29.38800048828125 17.726999282836914,-26.31999969482422 8.373000144958496,-24.770000457763672 C8.35099983215332,-24.770000457763672 8.317999839782715,-24.759000778198242 8.28600025177002,-24.759000778198242 C3.5169999599456787,-24.04400062561035 -1.7730000019073486,-23.64299964904785 -7.343999862670898,-23.621000289916992 C-25.00200080871582,-23.79400062561035 -41.44499969482422,-27.923999786376953 -47.23400115966797,-36.37900161743164 C-47.23400115966797,-36.37900161743164 -47.23400115966797,-36.38999938964844 -47.23400115966797,-36.38999938964844 C-47.21200180053711,-43.446998596191406 -29.652000427246094,-49.159000396728516 -7.994999885559082,-49.159000396728516 C13.684000015258789,-49.159000396728516 31.2549991607666,-43.435001373291016 31.2549991607666,-36.37900161743164z"></path><path stroke-linecap="round" stroke-linejoin="round" fill-opacity="0" stroke="rgb(140,211,193)" stroke-opacity="1" stroke-width="4" d=" M31.2549991607666,-36.37900161743164 C31.2549991607666,-35.4900016784668 30.972999572753906,-34.612998962402344 30.430999755859375,-33.77799987792969 C25.889999389648438,-29.38800048828125 17.726999282836914,-26.31999969482422 8.373000144958496,-24.770000457763672 C8.35099983215332,-24.770000457763672 8.317999839782715,-24.759000778198242 8.28600025177002,-24.759000778198242 C3.5169999599456787,-24.04400062561035 -1.7730000019073486,-23.64299964904785 -7.343999862670898,-23.621000289916992 C-25.00200080871582,-23.79400062561035 -41.44499969482422,-27.923999786376953 -47.23400115966797,-36.37900161743164 C-47.23400115966797,-36.37900161743164 -47.23400115966797,-36.38999938964844 -47.23400115966797,-36.38999938964844 C-47.21200180053711,-43.446998596191406 -29.652000427246094,-49.159000396728516 -7.994999885559082,-49.159000396728516 C13.684000015258789,-49.159000396728516 31.2549991607666,-43.435001373291016 31.2549991607666,-36.37900161743164z"></path></g><g opacity="0.8" transform="matrix(1,0,0,1,0,0)"><path fill="url(#__lottie_element_19444)" fill-opacity="1" d=" M-6.118000030517578,-23.611000061035156 C-26.145999908447266,-23.611000061035156 -44.895999908447266,-28.639999389648438 -48.70600128173828,-39.26499938964844 C-52.84299850463867,-50.80500030517578 -43.6619987487793,-83.42500305175781 -9.01200008392334,-85.65399932861328 C26.844999313354492,-87.95999908447266 35.46500015258789,-54.457000732421875 34.16899871826172,-40.87699890136719 C33.11800003051758,-29.867000579833984 13.449999809265137,-23.611000061035156 -6.118000030517578,-23.611000061035156z"></path></g><g opacity="1" transform="matrix(1,0,0,1,0,0)"><path stroke-linecap="round" stroke-linejoin="round" fill-opacity="0" stroke="rgb(140,211,193)" stroke-opacity="1" stroke-width="4" d=" M-6.118000030517578,-23.611000061035156 C-26.145999908447266,-23.611000061035156 -44.895999908447266,-28.639999389648438 -48.70600128173828,-39.26499938964844 C-52.84299850463867,-50.80500030517578 -43.6619987487793,-83.42500305175781 -9.01200008392334,-85.65399932861328 C26.844999313354492,-87.95999908447266 35.46500015258789,-54.457000732421875 34.16899871826172,-40.87699890136719 C33.11800003051758,-29.867000579833984 13.449999809265137,-23.611000061035156 -6.118000030517578,-23.611000061035156z"></path></g><g opacity="0.9" transform="matrix(1,0,0,1,0,0)"><path fill="rgb(255,255,255)" fill-opacity="1" d=" M-22.566999435424805,-59.479000091552734 C-22.566999435424805,-59.479000091552734 -22.566999435424805,-70.30599975585938 -22.566999435424805,-70.30599975585938 C-22.566999435424805,-72.02899932861328 -21.783000946044922,-73.66899871826172 -20.409000396728516,-74.70899963378906 C-17.996999740600586,-76.53500366210938 -13.62600040435791,-79.0009994506836 -7.618000030517578,-79.0009994506836 C-1.3899999856948853,-79.0009994506836 2.818000078201294,-76.78600311279297 5.164000034332275,-75.0459976196289 C6.584000110626221,-73.99199676513672 7.420000076293945,-72.33399963378906 7.420000076293945,-70.56600189208984 C7.420000076293945,-70.56600189208984 7.420000076293945,-59.57099914550781 7.420000076293945,-59.57099914550781 C7.420000076293945,-58.77899932861328 6.551000118255615,-58.290000915527344 5.881999969482422,-58.7140007019043 C2.0450000762939453,-61.143001556396484 -8.541999816894531,-66.24400329589844 -21.041000366210938,-58.619998931884766 C-21.708999633789062,-58.2130012512207 -22.566999435424805,-58.696998596191406 -22.566999435424805,-59.479000091552734z"></path></g></g><g opacity="1" transform="matrix(1,0,0,1,0,0)"><g opacity="0.7000000000000001" transform="matrix(1,0,0,1,0,0)"><path fill="url(#__lottie_element_19445)" fill-opacity="1" d=" M-39.81999969482422,-9.107000350952148 C-39.80500030517578,-14.961999893188477 -46.159000396728516,-22.30900001525879 -54.7140007019043,-22.30900001525879 C-65.42400360107422,-22.30900001525879 -71.68599700927734,-13.248000144958496 -69.87899780273438,-7.2789998054504395 C-68.28900146484375,-2.0239999294281006 -39.84600067138672,1.1979999542236328 -39.81999969482422,-9.107000350952148z"></path></g><g opacity="1" transform="matrix(1,0,0,1,0,0)"><path stroke-linecap="round" stroke-linejoin="round" fill-opacity="0" stroke="rgb(140,211,193)" stroke-opacity="1" stroke-width="4" d=" M-39.81999969482422,-9.107000350952148 C-39.80500030517578,-14.961999893188477 -46.159000396728516,-22.30900001525879 -54.7140007019043,-22.30900001525879 C-65.42400360107422,-22.30900001525879 -71.68599700927734,-13.248000144958496 -69.87899780273438,-7.2789998054504395 C-68.28900146484375,-2.0239999294281006 -39.84600067138672,1.1979999542236328 -39.81999969482422,-9.107000350952148z"></path></g><g opacity="0.9" transform="matrix(1,0,0,1,0,0)"><path fill="rgb(255,255,255)" fill-opacity="1" d=" M-60.196998596191406,-14.211999893188477 C-60.196998596191406,-14.211999893188477 -60.196998596191406,-17.253000259399414 -60.196998596191406,-17.253000259399414 C-60.196998596191406,-17.73699951171875 -59.91999816894531,-18.197999954223633 -59.43600082397461,-18.489999771118164 C-58.58599853515625,-19.003000259399414 -57.04600143432617,-19.695999145507812 -54.92900085449219,-19.695999145507812 C-52.73400115966797,-19.695999145507812 -51.250999450683594,-19.073999404907227 -50.42399978637695,-18.584999084472656 C-49.92300033569336,-18.288999557495117 -49.62900161743164,-17.823999404907227 -49.62900161743164,-17.32699966430664 C-49.62900161743164,-17.32699966430664 -49.62900161743164,-14.23799991607666 -49.62900161743164,-14.23799991607666 C-49.62900161743164,-14.015999794006348 -49.935001373291016,-13.878000259399414 -50.17100143432617,-13.996999740600586 C-51.52299880981445,-14.678999900817871 -55.25400161743164,-16.113000869750977 -59.659000396728516,-13.970999717712402 C-59.89400100708008,-13.857000350952148 -60.196998596191406,-13.991999626159668 -60.196998596191406,-14.211999893188477z"></path></g></g></g><g style="display: block;" transform="matrix(0.9999999403953552,0,0,0.9999999403953552,255.9996337890625,256.0004577636719)" opacity="1"><g opacity="1" transform="matrix(1,0,0,1,0,0)"><g opacity="1" transform="matrix(1,0,0,1,0,0)"><path fill="rgb(95,196,148)" fill-opacity="1" d=" M114.0469970703125,-18.395999908447266 C111.9010009765625,-11.253000259399414 104.66000366210938,-3.7090001106262207 87.80400085449219,-1.930999994277954 C69.76699829101562,-0.03400000184774399 55.6870002746582,-8.857999801635742 52.11000061035156,-18.895000457763672 C55.090999603271484,-26.395999908447266 67.78399658203125,-32.03300094604492 82.99199676513672,-32.03300094604492 C98.53600311279297,-32.03300094604492 111.44599914550781,-26.145999908447266 114.0469970703125,-18.395999908447266z"></path><path stroke-linecap="round" stroke-linejoin="round" fill-opacity="0" stroke="rgb(140,211,193)" stroke-opacity="1" stroke-width="4" d=" M114.0469970703125,-18.395999908447266 C111.9010009765625,-11.253000259399414 104.66000366210938,-3.7090001106262207 87.80400085449219,-1.930999994277954 C69.76699829101562,-0.03400000184774399 55.6870002746582,-8.857999801635742 52.11000061035156,-18.895000457763672 C55.090999603271484,-26.395999908447266 67.78399658203125,-32.03300094604492 82.99199676513672,-32.03300094604492 C98.53600311279297,-32.03300094604492 111.44599914550781,-26.145999908447266 114.0469970703125,-18.395999908447266z"></path></g><g opacity="0.8" transform="matrix(1,0,0,1,0,0)"><path fill="url(#__lottie_element_19438)" fill-opacity="1" d=" M114.75800323486328,-22.570999145507812 C115.44000244140625,-38.13199996948242 103.447998046875,-53.36199951171875 83.23200225830078,-53.36199951171875 C62.68199920654297,-53.36199951171875 50.207000732421875,-33.98699951171875 51.270999908447266,-22.570999145507812 C52.334999084472656,-11.156000137329102 67.58699798583984,0.1940000057220459 87.8030014038086,-1.934000015258789 C108.0199966430664,-4.061999797821045 114.40299987792969,-14.479000091552734 114.75800323486328,-22.570999145507812z"></path></g><g opacity="1" transform="matrix(1,0,0,1,0,0)"><path stroke-linecap="round" stroke-linejoin="round" fill-opacity="0" stroke="rgb(140,211,193)" stroke-opacity="1" stroke-width="4" d=" M114.75800323486328,-22.570999145507812 C115.44000244140625,-38.13199996948242 103.447998046875,-53.36199951171875 83.23200225830078,-53.36199951171875 C62.68199920654297,-53.36199951171875 50.207000732421875,-33.98699951171875 51.270999908447266,-22.570999145507812 C52.334999084472656,-11.156000137329102 67.58699798583984,0.1940000057220459 87.8030014038086,-1.934000015258789 C108.0199966430664,-4.061999797821045 114.40299987792969,-14.479000091552734 114.75800323486328,-22.570999145507812z"></path></g><g opacity="0.9" transform="matrix(1,0,0,1,0,0)"><path fill="rgb(255,255,255)" fill-opacity="1" d=" M71.21299743652344,-33.06100082397461 C71.21299743652344,-33.06100082397461 71.21299743652344,-41.13399887084961 71.21299743652344,-41.13399887084961 C71.21299743652344,-42.41899871826172 71.7969970703125,-43.641998291015625 72.8219985961914,-44.41699981689453 C74.62100219726562,-45.77799987792969 77.87899780273438,-47.617000579833984 82.35900115966797,-47.617000579833984 C87.00299835205078,-47.617000579833984 90.14099884033203,-45.965999603271484 91.88999938964844,-44.667999267578125 C92.9489974975586,-43.88199996948242 93.5719985961914,-42.645999908447266 93.5719985961914,-41.327999114990234 C93.5719985961914,-41.327999114990234 93.5719985961914,-33.130001068115234 93.5719985961914,-33.130001068115234 C93.5719985961914,-32.540000915527344 92.92400360107422,-32.17399978637695 92.42500305175781,-32.4900016784668 C89.56400299072266,-34.30099868774414 81.66999816894531,-38.10499954223633 72.3499984741211,-32.41999816894531 C71.85199737548828,-32.11600112915039 71.21299743652344,-32.47800064086914 71.21299743652344,-33.06100082397461z"></path></g></g><g opacity="1" transform="matrix(1,0,0,1,0,0)"><g opacity="0.6" transform="matrix(1,0,0,1,0,0)"><path fill="url(#__lottie_element_19439)" fill-opacity="1" d=" M77.87200164794922,-5.125999927520752 C77.27799987792969,-16.111000061035156 64.66799926757812,-24.14299964904785 56.23699951171875,-22.30900001525879 C47.805999755859375,-20.475000381469727 39.2130012512207,-13.284000396728516 40.986000061035156,-2.2890000343322754 C42.75899887084961,8.706000328063965 78.58100128173828,7.997000217437744 77.87200164794922,-5.125999927520752z"></path></g><g opacity="1" transform="matrix(1,0,0,1,0,0)"><path fill="rgb(95,196,148)" fill-opacity="1" d=" M75.86100006103516,-1.7760000228881836 C75.86100006103516,2.180000066757202 68.4540023803711,5.386000156402588 59.31700134277344,5.386000156402588 C50.18000030517578,5.386000156402588 42.77199935913086,2.180000066757202 42.77199935913086,-1.7760000228881836 C42.77199935913086,-5.730999946594238 50.18000030517578,-8.937999725341797 59.31700134277344,-8.937999725341797 C68.4540023803711,-8.937999725341797 75.86100006103516,-5.730999946594238 75.86100006103516,-1.7760000228881836z"></path><path stroke-linecap="round" stroke-linejoin="round" fill-opacity="0" stroke="rgb(140,211,193)" stroke-opacity="1" stroke-width="4" d=" M75.86100006103516,-1.7760000228881836 C75.86100006103516,2.180000066757202 68.4540023803711,5.386000156402588 59.31700134277344,5.386000156402588 C50.18000030517578,5.386000156402588 42.77199935913086,2.180000066757202 42.77199935913086,-1.7760000228881836 C42.77199935913086,-5.730999946594238 50.18000030517578,-8.937999725341797 59.31700134277344,-8.937999725341797 C68.4540023803711,-8.937999725341797 75.86100006103516,-5.730999946594238 75.86100006103516,-1.7760000228881836z"></path></g><g opacity="1" transform="matrix(1,0,0,1,0,0)"><g opacity="0.8" transform="matrix(1,0,0,1,0,0)"><path stroke-linecap="round" stroke-linejoin="round" fill-opacity="0" stroke="rgb(140,211,193)" stroke-opacity="1" stroke-width="4" d=" M77.87200164794922,-5.125999927520752 C77.27799987792969,-16.111000061035156 64.66799926757812,-24.14299964904785 56.23699951171875,-22.30900001525879 C47.805999755859375,-20.475000381469727 39.2130012512207,-13.284000396728516 40.986000061035156,-2.2890000343322754 C42.75899887084961,8.706000328063965 78.58100128173828,7.997000217437744 77.87200164794922,-5.125999927520752z"></path><g opacity="1" transform="matrix(1,0,0,1,0,0)"><path fill="url(#__lottie_element_19440)" fill-opacity="1" d=" M77.87200164794922,-5.125999927520752 C77.27799987792969,-16.111000061035156 64.66799926757812,-24.14299964904785 56.23699951171875,-22.30900001525879 C47.805999755859375,-20.475000381469727 39.2130012512207,-13.284000396728516 40.986000061035156,-2.2890000343322754 C42.75899887084961,8.706000328063965 78.58100128173828,7.997000217437744 77.87200164794922,-5.125999927520752z"></path></g></g><g opacity="0.9" transform="matrix(1,0,0,1,0,0)"><path fill="rgb(255,255,255)" fill-opacity="1" d=" M51.56999969482422,-9.368000030517578 C51.56999969482422,-9.368000030517578 51.56999969482422,-13.991000175476074 51.56999969482422,-13.991000175476074 C51.56999969482422,-14.72700023651123 51.90399932861328,-15.425999641418457 52.49100112915039,-15.869999885559082 C53.520999908447266,-16.64900016784668 55.387001037597656,-17.702999114990234 57.95199966430664,-17.702999114990234 C60.611000061035156,-17.702999114990234 62.40800094604492,-16.756999969482422 63.409000396728516,-16.013999938964844 C64.01499938964844,-15.564000129699707 64.37200164794922,-14.857000350952148 64.37200164794922,-14.10200023651123 C64.37200164794922,-14.10200023651123 64.37200164794922,-9.407999992370605 64.37200164794922,-9.407999992370605 C64.37200164794922,-9.069999694824219 64.0009994506836,-8.859999656677246 63.71500015258789,-9.041000366210938 C62.07699966430664,-10.07800006866455 57.55699920654297,-12.255999565124512 52.22100067138672,-9.00100040435791 C51.93600082397461,-8.82699966430664 51.56999969482422,-9.034000396728516 51.56999969482422,-9.368000030517578z"></path></g></g></g></g><g style="display: none;"><g><path stroke-linecap="round" stroke-linejoin="round" fill-opacity="0"></path></g></g><g style="display: block;" transform="matrix(0.9999999403953552,0,0,0.9999999403953552,255.9996337890625,256.0004577636719)" opacity="0.8"><g opacity="0.8" transform="matrix(1,0,0,1,0,0)"><path stroke-linecap="round" stroke-linejoin="round" fill-opacity="0" stroke="rgb(140,211,193)" stroke-opacity="1" stroke-width="4" d=" M17.90399932861328,63.65399932861328 C17.90399932861328,74.52999877929688 9.086000442504883,83.34700012207031 -1.7899999618530273,83.34700012207031 C-12.666000366210938,83.34700012207031 -21.482999801635742,74.52999877929688 -21.482999801635742,63.65399932861328 C-21.482999801635742,52.77799987792969 -12.666000366210938,43.96099853515625 -1.7899999618530273,43.96099853515625 C9.086000442504883,43.96099853515625 17.90399932861328,52.77799987792969 17.90399932861328,63.65399932861328z"></path><g opacity="1" transform="matrix(1,0,0,1,0,0)"><path fill="url(#__lottie_element_19431)" fill-opacity="1" d=" M17.90399932861328,63.65399932861328 C17.90399932861328,74.52999877929688 9.086000442504883,83.34700012207031 -1.7899999618530273,83.34700012207031 C-12.666000366210938,83.34700012207031 -21.482999801635742,74.52999877929688 -21.482999801635742,63.65399932861328 C-21.482999801635742,52.77799987792969 -12.666000366210938,43.96099853515625 -1.7899999618530273,43.96099853515625 C9.086000442504883,43.96099853515625 17.90399932861328,52.77799987792969 17.90399932861328,63.65399932861328z"></path></g></g><g opacity="0.9" transform="matrix(1,0,0,1,0,0)"><path fill="rgb(255,255,255)" fill-opacity="1" d=" M-9.375,55.79800033569336 C-9.375,55.79800033569336 -9.375,51.58700180053711 -9.375,51.58700180053711 C-9.375,50.91699981689453 -9.038999557495117,50.27799987792969 -8.449000358581543,49.874000549316406 C-7.414000034332275,49.16400146484375 -5.539000034332275,48.20500183105469 -2.9600000381469727,48.20500183105469 C-0.28700000047683716,48.20500183105469 1.5190000534057617,49.066001892089844 2.5260000228881836,49.74300003051758 C3.134999990463257,50.15299987792969 3.494999885559082,50.79800033569336 3.494999885559082,51.486000061035156 C3.494999885559082,51.486000061035156 3.494999885559082,55.762001037597656 3.494999885559082,55.762001037597656 C3.494999885559082,56.06999969482422 3.121000051498413,56.26100158691406 2.8340001106262207,56.09600067138672 C1.187000036239624,55.1510009765625 -3.3570001125335693,53.167999267578125 -8.720999717712402,56.132999420166016 C-9.008000373840332,56.29100036621094 -9.375,56.10200119018555 -9.375,55.79800033569336z"></path></g></g><g style="display: block;" transform="matrix(0.9999999403953552,0,0,0.9999999403953552,255.9996337890625,256.0004577636719)" opacity="1"><g opacity="1" transform="matrix(1,0,0,1,0,0)"><g opacity="1" transform="matrix(1,0,0,1,0,0)"><path stroke-linecap="round" stroke-linejoin="round" fill-opacity="0" stroke="rgb(140,211,193)" stroke-opacity="1" stroke-width="4" d=" M141.55099487304688,50.82400131225586 C137.34500122070312,38.53200149536133 129.23699951171875,31.378999710083008 119.95800018310547,27.780000686645508 C118.69000244140625,21.232999801635742 120.5,14.545000076293945 126.26699829101562,8.312000274658203 C138.29800415039062,-4.705999851226807 162.88299560546875,-0.7390000224113464 168.2270050048828,11.152000427246094 C181.3419952392578,40.27799987792969 156.8350067138672,52.85100173950195 141.55099487304688,50.82400131225586z"></path><g opacity="0.5" transform="matrix(1,0,0,1,0,0)"><path fill="url(#__lottie_element_19426)" fill-opacity="1" d=" M141.55099487304688,50.82400131225586 C137.34500122070312,38.53200149536133 129.23699951171875,31.378999710083008 119.95800018310547,27.780000686645508 C118.69000244140625,21.232999801635742 120.5,14.545000076293945 126.26699829101562,8.312000274658203 C138.29800415039062,-4.705999851226807 162.88299560546875,-0.7390000224113464 168.2270050048828,11.152000427246094 C181.3419952392578,40.27799987792969 156.8350067138672,52.85100173950195 141.55099487304688,50.82400131225586z"></path></g></g><g opacity="0.9" transform="matrix(1,0,0,1,0,0)"><path fill="rgb(255,255,255)" fill-opacity="1" d=" M135.73300170898438,15.003000259399414 C135.73300170898438,15.003000259399414 135.73300170898438,9.043000221252441 135.73300170898438,9.043000221252441 C135.73300170898438,8.093999862670898 136.25799560546875,7.190999984741211 137.177001953125,6.61899995803833 C138.79100036621094,5.613999843597412 141.71499633789062,4.256999969482422 145.73500061035156,4.256999969482422 C149.90199279785156,4.256999969482422 152.71800231933594,5.47599983215332 154.28799438476562,6.434000015258789 C155.23800659179688,7.013999938964844 155.79800415039062,7.927000045776367 155.79800415039062,8.899999618530273 C155.79800415039062,8.899999618530273 155.79800415039062,14.95199966430664 155.79800415039062,14.95199966430664 C155.79800415039062,15.387999534606934 155.21600341796875,15.657999992370605 154.76800537109375,15.425000190734863 C152.2010040283203,14.088000297546387 145.11599731445312,11.279000282287598 136.7530059814453,15.47599983215332 C136.30599975585938,15.699999809265137 135.73300170898438,15.434000015258789 135.73300170898438,15.003000259399414z"></path></g></g><g opacity="1" transform="matrix(1,0,0,1,0,0)"><g opacity="1" transform="matrix(1,0,0,1,0,0)"><path stroke-linecap="round" stroke-linejoin="round" fill-opacity="0" stroke="rgb(140,211,193)" stroke-opacity="1" stroke-width="4" d=" M142.26100158691406,53.06100082397461 C133.51699829101562,22.899999618530273 102.62200164794922,21.312999725341797 84.49400329589844,28.121999740600586 C59.41899871826172,37.540000915527344 57.14799880981445,71.05799865722656 62.17300033569336,85.04900360107422 C70.35299682617188,107.82599639892578 104.06900024414062,110.20600128173828 118.44499969482422,103.73899841308594 C132.2530059814453,97.5270004272461 150.6790008544922,82.0989990234375 142.26100158691406,53.06100082397461z"></path><g opacity="0.7000000000000001" transform="matrix(1,0,0,1,0,0)"><path fill="url(#__lottie_element_19427)" fill-opacity="1" d=" M142.26100158691406,53.06100082397461 C133.51699829101562,22.899999618530273 102.62200164794922,21.312999725341797 84.49400329589844,28.121999740600586 C59.41899871826172,37.540000915527344 57.14799880981445,71.05799865722656 62.17300033569336,85.04900360107422 C70.35299682617188,107.82599639892578 104.06900024414062,110.20600128173828 118.44499969482422,103.73899841308594 C132.2530059814453,97.5270004272461 150.6790008544922,82.0989990234375 142.26100158691406,53.06100082397461z"></path></g></g><g opacity="0.9" transform="matrix(1,0,0,1,0,0)"><path fill="rgb(255,255,255)" fill-opacity="1" d=" M85.16000366210938,52.15800094604492 C85.16000366210938,52.15800094604492 85.16000366210938,40.930999755859375 85.16000366210938,40.930999755859375 C85.16000366210938,39.14400100708008 86.04100036621094,37.44300079345703 87.58599853515625,36.3650016784668 C90.2979965209961,34.47200012207031 95.21199798583984,31.915000915527344 101.96700286865234,31.915000915527344 C108.96900177001953,31.915000915527344 113.70099639892578,34.21099853515625 116.33799743652344,36.01599884033203 C117.93399810791016,37.10900115966797 118.875,38.82699966430664 118.875,40.6609992980957 C118.875,40.6609992980957 118.875,52.0629997253418 118.875,52.0629997253418 C118.875,52.88399887084961 117.89700317382812,53.39099884033203 117.1449966430664,52.95199966430664 C112.83200073242188,50.43299865722656 100.9280014038086,45.14400100708008 86.875,53.04999923706055 C86.1240005493164,53.47200012207031 85.16000366210938,52.96900177001953 85.16000366210938,52.15800094604492z"></path></g></g></g><g clip-path="url(#__lottie_element_19172)" style="display: block;" transform="matrix(1,0,0,1,0,0)" opacity="1"><g style="display: none;"><g><path></path></g><g><path></path></g></g><g style="display: none;"><g><path></path></g><g><path></path></g></g><g style="display: none;"><g><path></path></g><g><path></path></g></g><g style="display: none;"><g><path></path></g><g><path></path></g></g><g style="display: none;"><g><path></path></g><g><path></path></g></g><g style="display: none;"><g><path></path></g><g><path></path></g></g><g style="display: none;"><g><path></path></g><g><path></path></g></g><g style="display: none;"><g><path></path></g><g><path></path></g></g><g style="display: none;"><g><path></path></g><g><path></path></g></g><g style="display: none;"><g><path></path></g><g><path></path></g></g><g style="display: none;"><g><path></path></g><g><path></path></g></g><g style="display: none;"><g><path></path></g><g><path></path></g></g><g style="display: none;"><g><path></path></g><g><path></path></g></g><g style="display: none;"><g><path></path></g><g><path></path></g></g><g style="display: none;"><g><path></path></g><g><path></path></g></g><g style="display: none;"><g><path></path></g><g><path></path></g></g><g style="display: none;"><g><g><path stroke-linecap="round" stroke-linejoin="miter" fill-opacity="0" stroke-miterlimit="4"></path></g></g><g><g><path stroke-linecap="round" stroke-linejoin="miter" fill-opacity="0" stroke-miterlimit="4"></path></g><g><path stroke-linecap="round" stroke-linejoin="miter" fill-opacity="0" stroke-miterlimit="4"></path></g></g></g><g style="display: none;"><g><g><path stroke-linecap="round" stroke-linejoin="miter" fill-opacity="0" stroke-miterlimit="4"></path></g></g><g><g><path stroke-linecap="round" stroke-linejoin="miter" fill-opacity="0" stroke-miterlimit="4"></path></g><g><path stroke-linecap="round" stroke-linejoin="miter" fill-opacity="0" stroke-miterlimit="4"></path></g></g></g><g style="display: none;"><g><g><path stroke-linecap="round" stroke-linejoin="miter" fill-opacity="0" stroke-miterlimit="4"></path></g></g><g><g><path stroke-linecap="round" stroke-linejoin="miter" fill-opacity="0" stroke-miterlimit="4"></path></g><g><path stroke-linecap="round" stroke-linejoin="miter" fill-opacity="0" stroke-miterlimit="4"></path></g></g></g><g style="display: none;"><g><g><path stroke-linecap="round" stroke-linejoin="miter" fill-opacity="0" stroke-miterlimit="4"></path></g></g><g><g><path stroke-linecap="round" stroke-linejoin="miter" fill-opacity="0" stroke-miterlimit="4"></path></g><g><path stroke-linecap="round" stroke-linejoin="miter" fill-opacity="0" stroke-miterlimit="4"></path></g></g></g><g style="display: none;"><g><g><path stroke-linecap="round" stroke-linejoin="miter" fill-opacity="0" stroke-miterlimit="4"></path></g></g><g><g><path stroke-linecap="round" stroke-linejoin="miter" fill-opacity="0" stroke-miterlimit="4"></path></g><g><path stroke-linecap="round" stroke-linejoin="miter" fill-opacity="0" stroke-miterlimit="4"></path></g></g></g><g style="display: none;"><g><g><path stroke-linecap="round" stroke-linejoin="miter" fill-opacity="0" stroke-miterlimit="4"></path></g></g><g><g><path stroke-linecap="round" stroke-linejoin="miter" fill-opacity="0" stroke-miterlimit="4"></path></g><g><path stroke-linecap="round" stroke-linejoin="miter" fill-opacity="0" stroke-miterlimit="4"></path></g></g></g><g style="display: none;"><g><g><path stroke-linecap="round" stroke-linejoin="miter" fill-opacity="0" stroke-miterlimit="4"></path></g></g><g><g><path stroke-linecap="round" stroke-linejoin="miter" fill-opacity="0" stroke-miterlimit="4"></path></g><g><path stroke-linecap="round" stroke-linejoin="miter" fill-opacity="0" stroke-miterlimit="4"></path></g></g></g><g style="display: none;"><g><g><path stroke-linecap="round" stroke-linejoin="miter" fill-opacity="0" stroke-miterlimit="4"></path></g></g><g><g><path stroke-linecap="round" stroke-linejoin="miter" fill-opacity="0" stroke-miterlimit="4"></path></g><g><path stroke-linecap="round" stroke-linejoin="miter" fill-opacity="0" stroke-miterlimit="4"></path></g></g></g><g style="display: none;"><g><g><path stroke-linecap="round" stroke-linejoin="miter" fill-opacity="0" stroke-miterlimit="4"></path></g></g><g><g><path stroke-linecap="round" stroke-linejoin="miter" fill-opacity="0" stroke-miterlimit="4"></path></g><g><path stroke-linecap="round" stroke-linejoin="miter" fill-opacity="0" stroke-miterlimit="4"></path></g></g></g><g style="display: none;"><g><g><path stroke-linecap="round" stroke-linejoin="miter" fill-opacity="0" stroke-miterlimit="4"></path></g></g><g><g><path stroke-linecap="round" stroke-linejoin="miter" fill-opacity="0" stroke-miterlimit="4"></path></g><g><path stroke-linecap="round" stroke-linejoin="miter" fill-opacity="0" stroke-miterlimit="4"></path></g></g></g><g style="display: none;"><g><g><path stroke-linecap="round" stroke-linejoin="miter" fill-opacity="0" stroke-miterlimit="4"></path></g></g><g><g><path stroke-linecap="round" stroke-linejoin="miter" fill-opacity="0" stroke-miterlimit="4"></path></g><g><path stroke-linecap="round" stroke-linejoin="miter" fill-opacity="0" stroke-miterlimit="4"></path></g></g></g><g style="display: none;"><g><g><path stroke-linecap="round" stroke-linejoin="miter" fill-opacity="0" stroke-miterlimit="4"></path></g></g><g><g><path stroke-linecap="round" stroke-linejoin="miter" fill-opacity="0" stroke-miterlimit="4"></path></g><g><path stroke-linecap="round" stroke-linejoin="miter" fill-opacity="0" stroke-miterlimit="4"></path></g></g></g><g style="display: none;"><g><g><path stroke-linecap="round" stroke-linejoin="miter" fill-opacity="0" stroke-miterlimit="4"></path></g></g><g><g><path stroke-linecap="round" stroke-linejoin="miter" fill-opacity="0" stroke-miterlimit="4"></path></g><g><path stroke-linecap="round" stroke-linejoin="miter" fill-opacity="0" stroke-miterlimit="4"></path></g></g></g><g style="display: none;"><g><g><path stroke-linecap="round" stroke-linejoin="miter" fill-opacity="0" stroke-miterlimit="4"></path></g></g><g><g><path stroke-linecap="round" stroke-linejoin="miter" fill-opacity="0" stroke-miterlimit="4"></path></g><g><path stroke-linecap="round" stroke-linejoin="miter" fill-opacity="0" stroke-miterlimit="4"></path></g></g></g><g style="display: none;"><g><g><path stroke-linecap="round" stroke-linejoin="miter" fill-opacity="0" stroke-miterlimit="4"></path></g></g><g><g><path stroke-linecap="round" stroke-linejoin="miter" fill-opacity="0" stroke-miterlimit="4"></path></g><g><path stroke-linecap="round" stroke-linejoin="miter" fill-opacity="0" stroke-miterlimit="4"></path></g></g></g><g style="display: none;"><g><g><path stroke-linecap="round" stroke-linejoin="miter" fill-opacity="0" stroke-miterlimit="4"></path></g></g><g><g><path stroke-linecap="round" stroke-linejoin="miter" fill-opacity="0" stroke-miterlimit="4"></path></g><g><path stroke-linecap="round" stroke-linejoin="miter" fill-opacity="0" stroke-miterlimit="4"></path></g></g></g><g style="display: none;"><g><g><path stroke-linecap="round" stroke-linejoin="miter" fill-opacity="0" stroke-miterlimit="4"></path></g></g><g><g><path stroke-linecap="round" stroke-linejoin="miter" fill-opacity="0" stroke-miterlimit="4"></path></g><g><path stroke-linecap="round" stroke-linejoin="miter" fill-opacity="0" stroke-miterlimit="4"></path></g></g></g><g style="display: none;"><g><g><path stroke-linecap="round" stroke-linejoin="miter" fill-opacity="0" stroke-miterlimit="4"></path></g></g><g><g><path stroke-linecap="round" stroke-linejoin="miter" fill-opacity="0" stroke-miterlimit="4"></path></g><g><path stroke-linecap="round" stroke-linejoin="miter" fill-opacity="0" stroke-miterlimit="4"></path></g></g></g><g style="display: none;"><g><g><path stroke-linecap="round" stroke-linejoin="miter" fill-opacity="0" stroke-miterlimit="4"></path></g></g><g><g><path stroke-linecap="round" stroke-linejoin="miter" fill-opacity="0" stroke-miterlimit="4"></path></g><g><path stroke-linecap="round" stroke-linejoin="miter" fill-opacity="0" stroke-miterlimit="4"></path></g></g></g><g style="display: none;"><g><g><path stroke-linecap="round" stroke-linejoin="miter" fill-opacity="0" stroke-miterlimit="4"></path></g></g><g><g><path stroke-linecap="round" stroke-linejoin="miter" fill-opacity="0" stroke-miterlimit="4"></path></g><g><path stroke-linecap="round" stroke-linejoin="miter" fill-opacity="0" stroke-miterlimit="4"></path></g></g></g><g style="display: none;"><g><g><path stroke-linecap="round" stroke-linejoin="miter" fill-opacity="0" stroke-miterlimit="4"></path></g></g><g><g><path stroke-linecap="round" stroke-linejoin="miter" fill-opacity="0" stroke-miterlimit="4"></path></g><g><path stroke-linecap="round" stroke-linejoin="miter" fill-opacity="0" stroke-miterlimit="4"></path></g></g></g><g style="display: none;"><g><g><path stroke-linecap="round" stroke-linejoin="miter" fill-opacity="0" stroke-miterlimit="4"></path></g></g><g><g><path stroke-linecap="round" stroke-linejoin="miter" fill-opacity="0" stroke-miterlimit="4"></path></g><g><path stroke-linecap="round" stroke-linejoin="miter" fill-opacity="0" stroke-miterlimit="4"></path></g></g></g><g style="display: none;"><g><g><path stroke-linecap="round" stroke-linejoin="miter" fill-opacity="0" stroke-miterlimit="4"></path></g></g><g><g><path stroke-linecap="round" stroke-linejoin="miter" fill-opacity="0" stroke-miterlimit="4"></path></g><g><path stroke-linecap="round" stroke-linejoin="miter" fill-opacity="0" stroke-miterlimit="4"></path></g></g></g><g style="display: none;"><g><g><path stroke-linecap="round" stroke-linejoin="miter" fill-opacity="0" stroke-miterlimit="4"></path></g></g><g><g><path stroke-linecap="round" stroke-linejoin="miter" fill-opacity="0" stroke-miterlimit="4"></path></g><g><path stroke-linecap="round" stroke-linejoin="miter" fill-opacity="0" stroke-miterlimit="4"></path></g></g></g><g style="display: none;"><g><g><path stroke-linecap="round" stroke-linejoin="miter" fill-opacity="0" stroke-miterlimit="4"></path></g></g><g><g><path stroke-linecap="round" stroke-linejoin="miter" fill-opacity="0" stroke-miterlimit="4"></path></g><g><path stroke-linecap="round" stroke-linejoin="miter" fill-opacity="0" stroke-miterlimit="4"></path></g></g></g><g style="display: none;"><g><g><path stroke-linecap="round" stroke-linejoin="miter" fill-opacity="0" stroke-miterlimit="4"></path></g></g><g><g><path stroke-linecap="round" stroke-linejoin="miter" fill-opacity="0" stroke-miterlimit="4"></path></g><g><path stroke-linecap="round" stroke-linejoin="miter" fill-opacity="0" stroke-miterlimit="4"></path></g></g></g><g style="display: none;"><g><g><path stroke-linecap="round" stroke-linejoin="miter" fill-opacity="0" stroke-miterlimit="4"></path></g></g><g><g><path stroke-linecap="round" stroke-linejoin="miter" fill-opacity="0" stroke-miterlimit="4"></path></g><g><path stroke-linecap="round" stroke-linejoin="miter" fill-opacity="0" stroke-miterlimit="4"></path></g></g></g><g style="display: none;"><g><g><path stroke-linecap="round" stroke-linejoin="miter" fill-opacity="0" stroke-miterlimit="4"></path></g></g><g><g><path stroke-linecap="round" stroke-linejoin="miter" fill-opacity="0" stroke-miterlimit="4"></path></g><g><path stroke-linecap="round" stroke-linejoin="miter" fill-opacity="0" stroke-miterlimit="4"></path></g></g></g><g style="display: none;"><g><g><path stroke-linecap="round" stroke-linejoin="miter" fill-opacity="0" stroke-miterlimit="4"></path></g></g><g><g><path stroke-linecap="round" stroke-linejoin="miter" fill-opacity="0" stroke-miterlimit="4"></path></g><g><path stroke-linecap="round" stroke-linejoin="miter" fill-opacity="0" stroke-miterlimit="4"></path></g></g></g><g style="display: none;"><g><g><path stroke-linecap="round" stroke-linejoin="miter" fill-opacity="0" stroke-miterlimit="4"></path></g></g><g><g><path stroke-linecap="round" stroke-linejoin="miter" fill-opacity="0" stroke-miterlimit="4"></path></g><g><path stroke-linecap="round" stroke-linejoin="miter" fill-opacity="0" stroke-miterlimit="4"></path></g></g></g><g style="display: none;"><g><g><path stroke-linecap="round" stroke-linejoin="miter" fill-opacity="0" stroke-miterlimit="4"></path></g></g><g><g><path stroke-linecap="round" stroke-linejoin="miter" fill-opacity="0" stroke-miterlimit="4"></path></g><g><path stroke-linecap="round" stroke-linejoin="miter" fill-opacity="0" stroke-miterlimit="4"></path></g></g></g><g style="display: none;"><g><g><path stroke-linecap="round" stroke-linejoin="miter" fill-opacity="0" stroke-miterlimit="4"></path></g></g><g><g><path stroke-linecap="round" stroke-linejoin="miter" fill-opacity="0" stroke-miterlimit="4"></path></g><g><path stroke-linecap="round" stroke-linejoin="miter" fill-opacity="0" stroke-miterlimit="4"></path></g></g></g><g style="display: none;"><g><g><path stroke-linecap="round" stroke-linejoin="miter" fill-opacity="0" stroke-miterlimit="4"></path></g></g><g><g><path stroke-linecap="round" stroke-linejoin="miter" fill-opacity="0" stroke-miterlimit="4"></path></g><g><path stroke-linecap="round" stroke-linejoin="miter" fill-opacity="0" stroke-miterlimit="4"></path></g></g></g><g style="display: none;"><g><g><path stroke-linecap="round" stroke-linejoin="miter" fill-opacity="0" stroke-miterlimit="4"></path></g></g><g><g><path stroke-linecap="round" stroke-linejoin="miter" fill-opacity="0" stroke-miterlimit="4"></path></g><g><path stroke-linecap="round" stroke-linejoin="miter" fill-opacity="0" stroke-miterlimit="4"></path></g></g></g><g style="display: none;"><g><g><path stroke-linecap="round" stroke-linejoin="miter" fill-opacity="0" stroke-miterlimit="4"></path></g></g><g><g><path stroke-linecap="round" stroke-linejoin="miter" fill-opacity="0" stroke-miterlimit="4"></path></g><g><path stroke-linecap="round" stroke-linejoin="miter" fill-opacity="0" stroke-miterlimit="4"></path></g></g></g><g style="display: none;"><g><g><path stroke-linecap="round" stroke-linejoin="miter" fill-opacity="0" stroke-miterlimit="4"></path></g></g><g><g><path stroke-linecap="round" stroke-linejoin="miter" fill-opacity="0" stroke-miterlimit="4"></path></g><g><path stroke-linecap="round" stroke-linejoin="miter" fill-opacity="0" stroke-miterlimit="4"></path></g></g></g><g style="display: none;"><g><g><path stroke-linecap="round" stroke-linejoin="miter" fill-opacity="0" stroke-miterlimit="4"></path></g></g><g><g><path stroke-linecap="round" stroke-linejoin="miter" fill-opacity="0" stroke-miterlimit="4"></path></g><g><path stroke-linecap="round" stroke-linejoin="miter" fill-opacity="0" stroke-miterlimit="4"></path></g></g></g><g style="display: none;"><g><g><path stroke-linecap="round" stroke-linejoin="miter" fill-opacity="0" stroke-miterlimit="4"></path></g></g><g><g><path stroke-linecap="round" stroke-linejoin="miter" fill-opacity="0" stroke-miterlimit="4"></path></g><g><path stroke-linecap="round" stroke-linejoin="miter" fill-opacity="0" stroke-miterlimit="4"></path></g></g></g><g style="display: none;"><g><g><path stroke-linecap="round" stroke-linejoin="miter" fill-opacity="0" stroke-miterlimit="4"></path></g></g><g><g><path stroke-linecap="round" stroke-linejoin="miter" fill-opacity="0" stroke-miterlimit="4"></path></g><g><path stroke-linecap="round" stroke-linejoin="miter" fill-opacity="0" stroke-miterlimit="4"></path></g></g></g><g style="display: none;"><g><g><path stroke-linecap="round" stroke-linejoin="miter" fill-opacity="0" stroke-miterlimit="4"></path></g></g><g><g><path stroke-linecap="round" stroke-linejoin="miter" fill-opacity="0" stroke-miterlimit="4"></path></g><g><path stroke-linecap="round" stroke-linejoin="miter" fill-opacity="0" stroke-miterlimit="4"></path></g></g></g><g style="display: none;"><g><g><path stroke-linecap="round" stroke-linejoin="miter" fill-opacity="0" stroke-miterlimit="4"></path></g></g><g><g><path stroke-linecap="round" stroke-linejoin="miter" fill-opacity="0" stroke-miterlimit="4"></path></g><g><path stroke-linecap="round" stroke-linejoin="miter" fill-opacity="0" stroke-miterlimit="4"></path></g></g></g><g style="display: none;"><g><g><path stroke-linecap="round" stroke-linejoin="miter" fill-opacity="0" stroke-miterlimit="4"></path></g></g><g><g><path stroke-linecap="round" stroke-linejoin="miter" fill-opacity="0" stroke-miterlimit="4"></path></g><g><path stroke-linecap="round" stroke-linejoin="miter" fill-opacity="0" stroke-miterlimit="4"></path></g></g></g><g style="display: none;"><g><g><path stroke-linecap="round" stroke-linejoin="miter" fill-opacity="0" stroke-miterlimit="4"></path></g></g><g><g><path stroke-linecap="round" stroke-linejoin="miter" fill-opacity="0" stroke-miterlimit="4"></path></g><g><path stroke-linecap="round" stroke-linejoin="miter" fill-opacity="0" stroke-miterlimit="4"></path></g></g></g><g style="display: none;"><g><g><path stroke-linecap="round" stroke-linejoin="miter" fill-opacity="0" stroke-miterlimit="4"></path></g></g><g><g><path stroke-linecap="round" stroke-linejoin="miter" fill-opacity="0" stroke-miterlimit="4"></path></g><g><path stroke-linecap="round" stroke-linejoin="miter" fill-opacity="0" stroke-miterlimit="4"></path></g></g></g><g style="display: none;"><g><g><path stroke-linecap="round" stroke-linejoin="miter" fill-opacity="0" stroke-miterlimit="4"></path></g></g><g><g><path stroke-linecap="round" stroke-linejoin="miter" fill-opacity="0" stroke-miterlimit="4"></path></g><g><path stroke-linecap="round" stroke-linejoin="miter" fill-opacity="0" stroke-miterlimit="4"></path></g></g></g><g style="display: none;"><g><g><path stroke-linecap="round" stroke-linejoin="miter" fill-opacity="0" stroke-miterlimit="4"></path></g></g><g><g><path stroke-linecap="round" stroke-linejoin="miter" fill-opacity="0" stroke-miterlimit="4"></path></g><g><path stroke-linecap="round" stroke-linejoin="miter" fill-opacity="0" stroke-miterlimit="4"></path></g></g></g><g style="display: none;"><g><g><path stroke-linecap="round" stroke-linejoin="miter" fill-opacity="0" stroke-miterlimit="4"></path></g></g><g><g><path stroke-linecap="round" stroke-linejoin="miter" fill-opacity="0" stroke-miterlimit="4"></path></g><g><path stroke-linecap="round" stroke-linejoin="miter" fill-opacity="0" stroke-miterlimit="4"></path></g></g></g><g style="display: none;"><g><g><path stroke-linecap="round" stroke-linejoin="miter" fill-opacity="0" stroke-miterlimit="4"></path></g></g><g><g><path stroke-linecap="round" stroke-linejoin="miter" fill-opacity="0" stroke-miterlimit="4"></path></g><g><path stroke-linecap="round" stroke-linejoin="miter" fill-opacity="0" stroke-miterlimit="4"></path></g></g></g><g style="display: none;"><g><g><path stroke-linecap="round" stroke-linejoin="miter" fill-opacity="0" stroke-miterlimit="4"></path></g></g><g><g><path stroke-linecap="round" stroke-linejoin="miter" fill-opacity="0" stroke-miterlimit="4"></path></g><g><path stroke-linecap="round" stroke-linejoin="miter" fill-opacity="0" stroke-miterlimit="4"></path></g></g></g><g style="display: none;"><g><g><path stroke-linecap="round" stroke-linejoin="miter" fill-opacity="0" stroke-miterlimit="4"></path></g></g><g><g><path stroke-linecap="round" stroke-linejoin="miter" fill-opacity="0" stroke-miterlimit="4"></path></g><g><path stroke-linecap="round" stroke-linejoin="miter" fill-opacity="0" stroke-miterlimit="4"></path></g></g></g><g style="display: none;"><g><g><path stroke-linecap="round" stroke-linejoin="miter" fill-opacity="0" stroke-miterlimit="4"></path></g></g><g><g><path stroke-linecap="round" stroke-linejoin="miter" fill-opacity="0" stroke-miterlimit="4"></path></g><g><path stroke-linecap="round" stroke-linejoin="miter" fill-opacity="0" stroke-miterlimit="4"></path></g></g></g><g style="display: none;"><g><g><path stroke-linecap="round" stroke-linejoin="miter" fill-opacity="0" stroke-miterlimit="4"></path></g></g><g><g><path stroke-linecap="round" stroke-linejoin="miter" fill-opacity="0" stroke-miterlimit="4"></path></g><g><path stroke-linecap="round" stroke-linejoin="miter" fill-opacity="0" stroke-miterlimit="4"></path></g></g></g><g style="display: none;"><g><g><path stroke-linecap="round" stroke-linejoin="miter" fill-opacity="0" stroke-miterlimit="4"></path></g></g><g><g><path stroke-linecap="round" stroke-linejoin="miter" fill-opacity="0" stroke-miterlimit="4"></path></g><g><path stroke-linecap="round" stroke-linejoin="miter" fill-opacity="0" stroke-miterlimit="4"></path></g></g></g><g style="display: none;"><g><g><path stroke-linecap="round" stroke-linejoin="miter" fill-opacity="0" stroke-miterlimit="4"></path></g></g><g><g><path stroke-linecap="round" stroke-linejoin="miter" fill-opacity="0" stroke-miterlimit="4"></path></g><g><path stroke-linecap="round" stroke-linejoin="miter" fill-opacity="0" stroke-miterlimit="4"></path></g></g></g><g style="display: none;"><g><g><path stroke-linecap="round" stroke-linejoin="miter" fill-opacity="0" stroke-miterlimit="4"></path></g></g><g><g><path stroke-linecap="round" stroke-linejoin="miter" fill-opacity="0" stroke-miterlimit="4"></path></g><g><path stroke-linecap="round" stroke-linejoin="miter" fill-opacity="0" stroke-miterlimit="4"></path></g></g></g><g style="display: none;"><g><g><path stroke-linecap="round" stroke-linejoin="miter" fill-opacity="0" stroke-miterlimit="4"></path></g></g><g><g><path stroke-linecap="round" stroke-linejoin="miter" fill-opacity="0" stroke-miterlimit="4"></path></g><g><path stroke-linecap="round" stroke-linejoin="miter" fill-opacity="0" stroke-miterlimit="4"></path></g></g></g><g style="display: none;"><g><g><path stroke-linecap="round" stroke-linejoin="miter" fill-opacity="0" stroke-miterlimit="4"></path></g></g><g><g><path stroke-linecap="round" stroke-linejoin="miter" fill-opacity="0" stroke-miterlimit="4"></path></g><g><path stroke-linecap="round" stroke-linejoin="miter" fill-opacity="0" stroke-miterlimit="4"></path></g></g></g><g style="display: none;"><g><g><path stroke-linecap="round" stroke-linejoin="miter" fill-opacity="0" stroke-miterlimit="4"></path></g></g><g><g><path stroke-linecap="round" stroke-linejoin="miter" fill-opacity="0" stroke-miterlimit="4"></path></g><g><path stroke-linecap="round" stroke-linejoin="miter" fill-opacity="0" stroke-miterlimit="4"></path></g></g></g><g style="display: none;"><g><g><path stroke-linecap="round" stroke-linejoin="miter" fill-opacity="0" stroke-miterlimit="4"></path></g></g><g><g><path stroke-linecap="round" stroke-linejoin="miter" fill-opacity="0" stroke-miterlimit="4"></path></g><g><path stroke-linecap="round" stroke-linejoin="miter" fill-opacity="0" stroke-miterlimit="4"></path></g></g></g><g style="display: none;"><g><g><path stroke-linecap="round" stroke-linejoin="miter" fill-opacity="0" stroke-miterlimit="4"></path></g></g><g><g><path stroke-linecap="round" stroke-linejoin="miter" fill-opacity="0" stroke-miterlimit="4"></path></g><g><path stroke-linecap="round" stroke-linejoin="miter" fill-opacity="0" stroke-miterlimit="4"></path></g></g></g><g style="display: none;"><g><g><path stroke-linecap="round" stroke-linejoin="miter" fill-opacity="0" stroke-miterlimit="4"></path></g></g><g><g><path stroke-linecap="round" stroke-linejoin="miter" fill-opacity="0" stroke-miterlimit="4"></path></g><g><path stroke-linecap="round" stroke-linejoin="miter" fill-opacity="0" stroke-miterlimit="4"></path></g></g></g><g style="display: none;"><g><g><path stroke-linecap="round" stroke-linejoin="miter" fill-opacity="0" stroke-miterlimit="4"></path></g></g><g><g><path stroke-linecap="round" stroke-linejoin="miter" fill-opacity="0" stroke-miterlimit="4"></path></g><g><path stroke-linecap="round" stroke-linejoin="miter" fill-opacity="0" stroke-miterlimit="4"></path></g></g></g><g style="display: none;"><g><g><path stroke-linecap="round" stroke-linejoin="miter" fill-opacity="0" stroke-miterlimit="4"></path></g></g><g><g><path stroke-linecap="round" stroke-linejoin="miter" fill-opacity="0" stroke-miterlimit="4"></path></g><g><path stroke-linecap="round" stroke-linejoin="miter" fill-opacity="0" stroke-miterlimit="4"></path></g></g></g><g style="display: none;"><g><g><path stroke-linecap="round" stroke-linejoin="miter" fill-opacity="0" stroke-miterlimit="4"></path></g></g><g><g><path stroke-linecap="round" stroke-linejoin="miter" fill-opacity="0" stroke-miterlimit="4"></path></g><g><path stroke-linecap="round" stroke-linejoin="miter" fill-opacity="0" stroke-miterlimit="4"></path></g></g></g></g></g></svg>