<svg xmlns="http://www.w3.org/2000/svg" viewBox="0 0 512 512" width="512" height="512" style="width: 100%; height: 100%; transform: translate3d(0,0,0);" preserveAspectRatio="xMidYMid meet"><defs><clipPath id="__lottie_element_19490"><rect width="512" height="512" x="0" y="0"></rect></clipPath></defs><g clip-path="url(#__lottie_element_19490)"><g style="display: block;" transform="matrix(0.999998927116394,0,0,0.999998927116394,256,256.33245849609375)" opacity="1"><g opacity="1" transform="matrix(1,0,0,1,0,0)"><path fill="rgb(253,174,0)" fill-opacity="1" d=" M45.36600112915039,-167.43800354003906 C67.22899627685547,-189.53399658203125 134.49600219726562,-227.9239959716797 147.9409942626953,-220.60499572753906 C162.03799438476562,-212.93099975585938 158.0590057373047,-102.24800109863281 146.83099365234375,-50.2400016784668 C135.60299682617188,1.7680000066757202 -5.618000030517578,-115.91200256347656 45.36600112915039,-167.43800354003906z"></path><path stroke-linecap="butt" stroke-linejoin="miter" fill-opacity="0" stroke-miterlimit="10" stroke="rgb(172,90,0)" stroke-opacity="1" stroke-width="8" d=" M45.36600112915039,-167.43800354003906 C67.22899627685547,-189.53399658203125 134.49600219726562,-227.9239959716797 147.9409942626953,-220.60499572753906 C162.03799438476562,-212.93099975585938 158.0590057373047,-102.24800109863281 146.83099365234375,-50.2400016784668 C135.60299682617188,1.7680000066757202 -5.618000030517578,-115.91200256347656 45.36600112915039,-167.43800354003906z"></path></g><g opacity="1" transform="matrix(1,0,0,1,0,0)"><path fill="rgb(189,97,0)" fill-opacity="1" d=" M71.15699768066406,-166.7100067138672 C85.0459976196289,-180.7469940185547 127.7770004272461,-205.13499450683594 136.3179931640625,-200.48500061035156 C145.2729949951172,-195.61000061035156 145.60499572753906,-147.85000610351562 138.4720001220703,-114.81099700927734 C131.33999633789062,-81.77300262451172 38.76900100708008,-133.97799682617188 71.15699768066406,-166.7100067138672z"></path></g></g><g style="display: block;" transform="matrix(0.999998927116394,0,0,0.999998927116394,255.9995880126953,256.33245849609375)" opacity="1"><g opacity="1" transform="matrix(1,0,0,1,0,0)"><path fill="rgb(253,174,0)" fill-opacity="1" d=" M-54.75,-167.43800354003906 C-76.61299896240234,-189.53399658203125 -143.8800048828125,-227.9239959716797 -157.3249969482422,-220.60499572753906 C-171.4219970703125,-212.93099975585938 -170.4429931640625,-95.74800109863281 -159.21499633789062,-43.7400016784668 C-147.98699951171875,8.267999649047852 -3.7660000324249268,-115.91200256347656 -54.75,-167.43800354003906z"></path><path stroke-linecap="butt" stroke-linejoin="miter" fill-opacity="0" stroke-miterlimit="10" stroke="rgb(172,90,0)" stroke-opacity="1" stroke-width="8" d=" M-54.75,-167.43800354003906 C-76.61299896240234,-189.53399658203125 -143.8800048828125,-227.9239959716797 -157.3249969482422,-220.60499572753906 C-171.4219970703125,-212.93099975585938 -170.4429931640625,-95.74800109863281 -159.21499633789062,-43.7400016784668 C-147.98699951171875,8.267999649047852 -3.7660000324249268,-115.91200256347656 -54.75,-167.43800354003906z"></path></g><g opacity="1" transform="matrix(1,0,0,1,0,0)"><path fill="rgb(189,97,0)" fill-opacity="1" d=" M-80.54100036621094,-166.7100067138672 C-94.43000030517578,-180.7469940185547 -137.16099548339844,-205.13499450683594 -145.70199584960938,-200.48500061035156 C-154.65699768066406,-195.61000061035156 -154.98800659179688,-147.85000610351562 -147.8560028076172,-114.81099700927734 C-140.7239990234375,-81.77300262451172 -48.15299987792969,-133.97799682617188 -80.54100036621094,-166.7100067138672z"></path></g></g><g style="display: block;" transform="matrix(1,0,0,1,256,256)" opacity="1"><g opacity="0.1" transform="matrix(1,0,0,1,0,0)"><path fill="rgb(0,0,0)" fill-opacity="1" d=" M190.01600646972656,8.802000045776367 C185.51199340820312,-17.840999603271484 166.48500061035156,-91.63500213623047 120.11399841308594,-130.29299926757812 C91.28099822998047,-154.3300018310547 52.04100036621094,-167.87399291992188 -3.9489998817443848,-167.87399291992188 C-4.123000144958496,-167.87399291992188 -4.639999866485596,-167.87399291992188 -4.814000129699707,-167.87399291992188 C-60.80400085449219,-167.87399291992188 -100.04399871826172,-154.3300018310547 -128.8769989013672,-130.29299926757812 C-175.24899291992188,-91.63500213623047 -194.27499389648438,-17.840999603271484 -198.7790069580078,8.802000045776367 C-202.57699584960938,31.273000717163086 -202.94700622558594,57.87799835205078 -193.71600341796875,79.10800170898438 C-163.98399353027344,147.49000549316406 -49.54600143432617,206.98599243164062 -4.814000129699707,206.98599243164062 C-4.639999866485596,206.98599243164062 -4.123000144958496,206.98599243164062 -3.9489998817443848,206.98599243164062 C39.91699981689453,206.98599243164062 155.22000122070312,147.49000549316406 184.95199584960938,79.10800170898438 C194.1820068359375,57.87799835205078 193.81399536132812,31.273000717163086 190.01600646972656,8.802000045776367z"></path></g><g opacity="1" transform="matrix(1,0,0,1,0,0)"><path fill="rgb(255,189,0)" fill-opacity="1" d=" M179.9080047607422,-4.638999938964844 C175.63800048828125,-29.895999908447266 157.6009979248047,-99.85399627685547 113.64099884033203,-136.5019989013672 C86.30699920654297,-159.28900146484375 49.106998443603516,-172.12899780273438 -3.9719998836517334,-172.12899780273438 C-4.13700008392334,-172.12899780273438 -4.626999855041504,-172.12899780273438 -4.791999816894531,-172.12899780273438 C-57.87099838256836,-172.12899780273438 -95.06999969482422,-159.28900146484375 -122.40399932861328,-136.5019989013672 C-166.36500549316406,-99.85399627685547 -184.40199279785156,-29.895999908447266 -188.6719970703125,-4.638999938964844 C-192.2729949951172,16.663999557495117 -192.6230010986328,41.8849983215332 -183.8719940185547,62.01100158691406 C-155.68600463867188,126.83699798583984 -47.198001861572266,183.24099731445312 -4.791999816894531,183.24099731445312 C-4.626999855041504,183.24099731445312 -4.13700008392334,183.24099731445312 -3.9719998836517334,183.24099731445312 C37.61399841308594,183.24099731445312 146.9219970703125,126.83699798583984 175.10800170898438,62.01100158691406 C183.85800170898438,41.8849983215332 183.50900268554688,16.663999557495117 179.9080047607422,-4.638999938964844z"></path></g><g opacity="1" transform="matrix(1,0,0,1,0,0)"><path fill="rgb(255,223,0)" fill-opacity="1" d=" M162.51300048828125,-3.6760001182556152 C158.64599609375,-26.548999786376953 142.31100463867188,-89.90399932861328 102.5,-123.09300231933594 C77.74600219726562,-143.72900390625 44.058998107910156,-155.35699462890625 -4.010000228881836,-155.35699462890625 C-4.158999919891357,-155.35699462890625 -4.603000164031982,-155.35699462890625 -4.752999782562256,-155.35699462890625 C-52.821998596191406,-155.35699462890625 -86.51000213623047,-143.72900390625 -111.26399993896484,-123.09300231933594 C-151.0749969482422,-89.90399932861328 -167.41000366210938,-26.548999786376953 -171.27699279785156,-3.6760001182556152 C-174.53799438476562,15.616000175476074 -174.85499572753906,38.45500183105469 -166.92999267578125,56.68199920654297 C-141.4040069580078,115.38899993896484 -43.15599822998047,166.47000122070312 -4.752999782562256,166.47000122070312 C-4.603000164031982,166.47000122070312 -4.158999919891357,166.47000122070312 -4.010000228881836,166.47000122070312 C33.650001525878906,166.47000122070312 132.63999938964844,115.38899993896484 158.16600036621094,56.68199920654297 C166.08999633789062,38.45500183105469 165.7740020751953,15.616000175476074 162.51300048828125,-3.6760001182556152z"></path></g><g opacity="1" transform="matrix(1,0,0,1,0,0)"><path stroke-linecap="butt" stroke-linejoin="miter" fill-opacity="0" stroke-miterlimit="10" stroke="rgb(211,120,0)" stroke-opacity="1" stroke-width="8" d=" M179.9080047607422,-4.638999938964844 C175.63800048828125,-29.895999908447266 157.6009979248047,-99.85399627685547 113.64099884033203,-136.5019989013672 C86.30699920654297,-159.28900146484375 49.106998443603516,-172.12899780273438 -3.9719998836517334,-172.12899780273438 C-4.13700008392334,-172.12899780273438 -4.626999855041504,-172.12899780273438 -4.791999816894531,-172.12899780273438 C-57.87099838256836,-172.12899780273438 -95.06999969482422,-159.28900146484375 -122.40399932861328,-136.5019989013672 C-166.36500549316406,-99.85399627685547 -184.40199279785156,-29.895999908447266 -188.6719970703125,-4.638999938964844 C-192.2729949951172,16.663999557495117 -192.6230010986328,41.8849983215332 -183.8719940185547,62.01100158691406 C-155.68600463867188,126.83699798583984 -47.198001861572266,183.24099731445312 -4.791999816894531,183.24099731445312 C-4.626999855041504,183.24099731445312 -4.13700008392334,183.24099731445312 -3.9719998836517334,183.24099731445312 C37.61399841308594,183.24099731445312 146.9219970703125,126.83699798583984 175.10800170898438,62.01100158691406 C183.85800170898438,41.8849983215332 183.50900268554688,16.663999557495117 179.9080047607422,-4.638999938964844z"></path></g><g opacity="0.9" transform="matrix(1,0,0,1,0,0)"><path fill="rgb(255,234,89)" fill-opacity="1" d=" M118.8550033569336,-22.554000854492188 C133.70599365234375,-37.404998779296875 128.59300231933594,-95.71800231933594 92.50499725341797,-125.8030014038086 C70.06600189208984,-144.50900268554688 39.52799987792969,-155.0500030517578 -4.045000076293945,-155.0500030517578 C-4.179999828338623,-155.0500030517578 -4.583000183105469,-155.0500030517578 -4.718999862670898,-155.0500030517578 C-48.292999267578125,-155.0500030517578 -78.83000183105469,-144.50900268554688 -101.26899719238281,-125.8030014038086 C-137.35800170898438,-95.71800231933594 -143.6750030517578,-37.981998443603516 -128.2469940185547,-22.554000854492188 C-111.04399871826172,-5.35099983215332 -78.47200012207031,-37.301998138427734 -4.692999839782715,-37.290000915527344 C69.29299926757812,-37.27799987792969 101.27400207519531,-4.9730000495910645 118.8550033569336,-22.554000854492188z"></path></g><g opacity="1" transform="matrix(1,0,0,1,0,0)"><g opacity="1" transform="matrix(1,0,0,1,0,0)"><path stroke-linecap="round" stroke-linejoin="round" fill-opacity="0" stroke="rgb(255,255,255)" stroke-opacity="1" stroke-width="6" d=" M41.91400146484375,-151.21400451660156 C43.43000030517578,-150.89500427246094 45.00199890136719,-150.54200744628906 46.624000549316406,-150.1529998779297"></path></g><g opacity="1" transform="matrix(1,0,0,1,0,0)"><path stroke-linecap="round" stroke-linejoin="round" fill-opacity="0" stroke="rgb(255,255,255)" stroke-opacity="1" stroke-width="6" d=" M20.8799991607666,-154.20799255371094 C20.8799991607666,-154.20799255371094 25.66900062561035,-153.99899291992188 33.277000427246094,-152.802001953125"></path></g></g></g><g style="display: block;" transform="matrix(1,0,0,1,256,256)" opacity="1"><g opacity="1" transform="matrix(1,0,0,1,0,0)"><path fill="rgb(255,189,0)" fill-opacity="1" d=" M-5,46 C-70,46 -114,85 -95,104 C-83,116 -72,72 -5,72 C62,72 73,116 85,104 C104,85 60,46 -5,46z"></path></g><g opacity="1" transform="matrix(1,0,0,1,0,0)"><path fill="rgb(255,232,157)" fill-opacity="1" d=" M-5,53 C-81,53 -107,92 -95,104 C-83,116 -68,80 -5,80 C59,80 73,116 85,104 C97,92 71,53 -5,53z"></path></g><g opacity="1" transform="matrix(1,0,0,1,0,0)"><path fill="rgb(79,48,29)" fill-opacity="1" d=" M-5,51 C-70,51 -107,88 -95,100 C-83,112 -72,76 -5,76 C62,76 73,112 85,100 C97,88 60,51 -5,51z"></path></g><g opacity="1" transform="matrix(1,0,0,1,0,0)"><path fill="rgb(18,14,11)" fill-opacity="1" d=" M85.88999938964844,98.91999816894531 C83.75,83.51000213623047 49.27000045776367,57 -5,57 C-59.27000045776367,57 -93.75,83.51000213623047 -95.88999938964844,98.91999816894531 C-104.87999725341797,85.93000030517578 -68.16000366210938,51 -5,51 C58.15999984741211,51 94.87999725341797,85.93000030517578 85.88999938964844,98.91999816894531z"></path></g></g><g style="display: block;" transform="matrix(1,0,0,1,256,256)" opacity="1"><g opacity="1" transform="matrix(1,0,0,1,0,0)"><path fill="rgb(114,79,52)" fill-opacity="1" d=" M-4.010000228881836,-13.670000076293945 C-17.506000518798828,-13.670000076293945 -34.82600021362305,-9.781999588012695 -34.82600021362305,2.5950000286102295 C-34.82600021362305,14.972000122070312 -16.91900062561035,36.250999450683594 -4.010000228881836,36.250999450683594 C8.89900016784668,36.250999450683594 26.805999755859375,14.972000122070312 26.805999755859375,2.5950000286102295 C26.805999755859375,-9.781999588012695 9.486000061035156,-13.670000076293945 -4.010000228881836,-13.670000076293945z"></path></g><g opacity="1" transform="matrix(1,0,0,1,0,0)"><path fill="rgb(53,44,36)" fill-opacity="1" d=" M-11.022000312805176,34.49100112915039 C-11.022000312805176,34.49100112915039 -11.031999588012695,34.49100112915039 -11.041999816894531,34.500999450683594 C-17.07200050354004,31.701000213623047 -23.302000045776367,25.910999298095703 -27.86199951171875,19.551000595092773 C-27.86199951171875,19.551000595092773 -27.86199951171875,19.541000366210938 -27.86199951171875,19.541000366210938 C-27.86199951171875,19.541000366210938 -21.2189998626709,13.33899974822998 -14.482000350952148,20.981000900268555 C-10.123000144958496,25.926000595092773 -11.022000312805176,34.49100112915039 -11.022000312805176,34.49100112915039z"></path></g><g opacity="1" transform="matrix(1,0,0,1,0,0)"><path fill="rgb(156,122,87)" fill-opacity="1" d=" M16.551000595092773,-0.5879999995231628 C16.551000595092773,4.826000213623047 7.3460001945495605,9.215999603271484 -4.010000228881836,9.215999603271484 C-15.366000175476074,9.215999603271484 -24.570999145507812,4.826000213623047 -24.570999145507812,-0.5879999995231628 C-24.570999145507812,-6.001999855041504 -15.366000175476074,-10.390999794006348 -4.010000228881836,-10.390999794006348 C7.3460001945495605,-10.390999794006348 16.551000595092773,-6.001999855041504 16.551000595092773,-0.5879999995231628z"></path></g><g opacity="1" transform="matrix(1,0,0,1,0,0)"><path fill="rgb(53,44,36)" fill-opacity="1" d=" M19.54800033569336,19.97100067138672 C14.807999610900879,26.430999755859375 8.39799976348877,32.24100112915039 2.2679998874664307,34.83100128173828 C2.2679998874664307,34.83100128173828 2.257999897003174,34.83100128173828 2.257999897003174,34.83100128173828 C2.257999897003174,34.83100128173828 1.2829999923706055,27.19499969482422 5.9029998779296875,21.44499969482422 C11.666999816894531,14.270999908447266 19.54800033569336,19.97100067138672 19.54800033569336,19.97100067138672z"></path></g></g><g style="display: block;" transform="matrix(1,0,0,1,256,256)" opacity="1"><g opacity="1" transform="matrix(1,0,0,1,0,0)"><path fill="rgb(255,232,157)" fill-opacity="1" d=" M128.08900451660156,-111.44200134277344 C129.97000122070312,-122.99500274658203 97.86499786376953,-122.30799865722656 73.46399688720703,-113 C47.042999267578125,-102.9209976196289 26.999000549316406,-76.88700103759766 34.64400100708008,-67.29499816894531 C42.051998138427734,-58 54.308998107910156,-79.71700286865234 77.81300354003906,-92.0739974975586 C112.10700225830078,-110.10399627685547 127.04100036621094,-105 128.08900451660156,-111.44200134277344z"></path></g></g><g style="display: block;" transform="matrix(1,0,0,1,255.99899291992188,256)" opacity="1"><g opacity="1" transform="matrix(1,0,0,1,0,0)"><path fill="rgb(255,232,157)" fill-opacity="1" d=" M-135.92100524902344,-111.44200134277344 C-137.80099487304688,-122.99500274658203 -105.697998046875,-122.30799865722656 -81.2969970703125,-113 C-54.875999450683594,-102.9209976196289 -34.832000732421875,-76.88700103759766 -42.47700119018555,-67.29499816894531 C-49.8849983215332,-58 -62.14099884033203,-79.71700286865234 -85.6449966430664,-92.0739974975586 C-119.93900299072266,-110.10399627685547 -134.8719940185547,-105 -135.92100524902344,-111.44200134277344z"></path></g></g><g style="display: block;" transform="matrix(1,0,0,1,256,256)" opacity="1"><g opacity="1" transform="matrix(1,0,0,1,0,0)"><path fill="rgb(255,232,157)" fill-opacity="1" d=" M90,-43.0620002746582 C90,-22.041000366210938 78.95999908447266,-5 66.5,-5 C54.040000915527344,-5 43,-22.041000366210938 43,-43.0620002746582 C43,-64.08300018310547 54.040000915527344,-81.1240005493164 66.5,-81.1240005493164 C78.95999908447266,-81.1240005493164 90,-64.08300018310547 90,-43.0620002746582z"></path></g><g opacity="1" transform="matrix(1,0,0,1,0,0)"><g opacity="1" transform="matrix(1,0,0,1,0,0)"><path fill="rgb(17,17,17)" fill-opacity="1" d=" M89.05999755859375,-48.50400161743164 C89.05999755859375,-27.482999801635742 78.95999908447266,-10.442000389099121 66.5,-10.442000389099121 C54.040000915527344,-10.442000389099121 43.939998626708984,-27.482999801635742 43.939998626708984,-48.50400161743164 C43.939998626708984,-69.5250015258789 54.040000915527344,-86.56600189208984 66.5,-86.56600189208984 C78.95999908447266,-86.56600189208984 89.05999755859375,-69.5250015258789 89.05999755859375,-48.50400161743164z"></path></g><g opacity="1" transform="matrix(1,0,0,1,0,0)"><path fill="rgb(72,73,73)" fill-opacity="1" d=" M82.39099884033203,-40.152000427246094 C82.39099884033203,-32.527000427246094 75.79000091552734,-17.80299949645996 66.5,-17.80299949645996 C57.209999084472656,-17.80299949645996 50.60900115966797,-32.527000427246094 50.60900115966797,-40.152000427246094 C50.60900115966797,-52.3849983215332 57.209999084472656,-40.85100173950195 66.5,-40.85100173950195 C75.79000091552734,-40.85100173950195 82.39099884033203,-52.93899917602539 82.39099884033203,-40.152000427246094z"></path></g></g><g opacity="1" transform="matrix(1,0,0,1,0,0)"><path fill="rgb(242,242,242)" fill-opacity="1" d=" M74,-68 C74,-65.23899841308594 71.76100158691406,-63 69,-63 C66.23899841308594,-63 64,-65.23899841308594 64,-68 C64,-70.76100158691406 66.23899841308594,-73 69,-73 C71.76100158691406,-73 74,-70.76100158691406 74,-68z"></path></g></g><g style="display: block;" transform="matrix(1,0,0,1,113.93699645996094,256)" opacity="1"><g opacity="1" transform="matrix(1,0,0,1,0,0)"><path fill="rgb(255,232,157)" fill-opacity="1" d=" M90,-43.0620002746582 C90,-22.041000366210938 78.95999908447266,-5 66.5,-5 C54.040000915527344,-5 43,-22.041000366210938 43,-43.0620002746582 C43,-64.08300018310547 54.040000915527344,-81.1240005493164 66.5,-81.1240005493164 C78.95999908447266,-81.1240005493164 90,-64.08300018310547 90,-43.0620002746582z"></path></g><g opacity="1" transform="matrix(1,0,0,1,0,0)"><g opacity="1" transform="matrix(1,0,0,1,0,0)"><path fill="rgb(17,17,17)" fill-opacity="1" d=" M89.05999755859375,-48.50400161743164 C89.05999755859375,-27.482999801635742 78.95999908447266,-10.442000389099121 66.5,-10.442000389099121 C54.040000915527344,-10.442000389099121 43.939998626708984,-27.482999801635742 43.939998626708984,-48.50400161743164 C43.939998626708984,-69.5250015258789 54.040000915527344,-86.56600189208984 66.5,-86.56600189208984 C78.95999908447266,-86.56600189208984 89.05999755859375,-69.5250015258789 89.05999755859375,-48.50400161743164z"></path></g><g opacity="1" transform="matrix(1,0,0,1,0,0)"><path fill="rgb(72,73,73)" fill-opacity="1" d=" M82.39099884033203,-40.152000427246094 C82.39099884033203,-32.527000427246094 75.79000091552734,-17.80299949645996 66.5,-17.80299949645996 C57.209999084472656,-17.80299949645996 50.60900115966797,-32.527000427246094 50.60900115966797,-40.152000427246094 C50.60900115966797,-52.3849983215332 57.209999084472656,-40.85100173950195 66.5,-40.85100173950195 C75.79000091552734,-40.85100173950195 82.39099884033203,-52.93899917602539 82.39099884033203,-40.152000427246094z"></path></g></g><g opacity="1" transform="matrix(1,0,0,1,0,0)"><path fill="rgb(242,242,242)" fill-opacity="1" d=" M74,-68 C74,-65.23899841308594 71.76100158691406,-63 69,-63 C66.23899841308594,-63 64,-65.23899841308594 64,-68 C64,-70.76100158691406 66.23899841308594,-73 69,-73 C71.76100158691406,-73 74,-70.76100158691406 74,-68z"></path></g></g><g style="display: block;" transform="matrix(1,0,0,1,256,256)" opacity="1"><g opacity="1" transform="matrix(1,0,0,1,0,0)"><path fill="rgb(79,48,29)" fill-opacity="1" d=" M127.12300109863281,-115.44200134277344 C125.88899993896484,-123.71499633789062 97.86499786376953,-123.51300048828125 73.46399688720703,-114.20500183105469 C47.042999267578125,-104.1259994506836 29.117000579833984,-81.45600128173828 34.64400100708008,-71.29499816894531 C40.00600051879883,-61.4370002746582 54.308998107910156,-83.71700286865234 77.81300354003906,-96.0739974975586 C112.10700225830078,-114.10399627685547 128.21299743652344,-108.13899993896484 127.12300109863281,-115.44200134277344z"></path></g><g opacity="1" transform="matrix(1,0,0,1,0,0)"><path fill="rgb(18,14,11)" fill-opacity="1" d=" M127.06600189208984,-113.9540023803711 C119.11399841308594,-118.34200286865234 96.48200225830078,-116.8740005493164 76.322998046875,-109.18499755859375 C52.22999954223633,-99.98999786376953 35.19200134277344,-80.3239974975586 36.582000732421875,-69.23200225830078 C35.840999603271484,-69.61799621582031 35.19900131225586,-70.29399871826172 34.64699935913086,-71.29900360107422 C29.115999221801758,-81.45600128173828 47.04800033569336,-104.125 73.46600341796875,-114.20999908447266 C97.86900329589844,-123.51300048828125 125.88800048828125,-123.71399688720703 127.1259994506836,-115.44300079345703 C127.20899963378906,-114.87200164794922 127.19499969482422,-114.38300323486328 127.06600189208984,-113.9540023803711z"></path></g></g><g style="display: block;" transform="matrix(1,0,0,1,255.99899291992188,256)" opacity="1"><g opacity="1" transform="matrix(1,0,0,1,0,0)"><path fill="rgb(79,48,29)" fill-opacity="1" d=" M-134.9550018310547,-115.44200134277344 C-133.7209930419922,-123.71499633789062 -105.697998046875,-123.51300048828125 -81.2969970703125,-114.20500183105469 C-54.875999450683594,-104.1259994506836 -36.95000076293945,-81.45600128173828 -42.47700119018555,-71.29499816894531 C-47.8390007019043,-61.4370002746582 -62.14099884033203,-83.71700286865234 -85.6449966430664,-96.0739974975586 C-119.93900299072266,-114.10399627685547 -136.0449981689453,-108.13899993896484 -134.9550018310547,-115.44200134277344z"></path></g><g opacity="1" transform="matrix(1,0,0,1,0,0)"><path fill="rgb(18,14,11)" fill-opacity="1" d=" M-134.8979949951172,-113.9540023803711 C-126.94599914550781,-118.34200286865234 -104.31500244140625,-116.8740005493164 -84.15599822998047,-109.18499755859375 C-60.06399917602539,-99.98999786376953 -43.02399826049805,-80.3239974975586 -44.41400146484375,-69.23200225830078 C-43.67300033569336,-69.61799621582031 -43.03200149536133,-70.29399871826172 -42.47999954223633,-71.29900360107422 C-36.94900131225586,-81.45600128173828 -54.880001068115234,-104.125 -81.2979965209961,-114.20999908447266 C-105.70099639892578,-123.51300048828125 -133.72000122070312,-123.71399688720703 -134.95799255371094,-115.44300079345703 C-135.04100036621094,-114.87200164794922 -135.02699279785156,-114.38300323486328 -134.8979949951172,-113.9540023803711z"></path></g></g><g style="display: block;" transform="matrix(1,0,0,1,256,256)" opacity="1"><g opacity="1" transform="matrix(1,0,0,1,0,0)"><path fill="rgb(56,43,38)" fill-opacity="1" d=" M71.13400268554688,14.289999961853027 C98.08899688720703,-2.5199999809265137 152.06700134277344,-11.838000297546387 194.89599609375,9.215999603271484 C151.12600708007812,-2.4600000381469727 108.677001953125,0.5910000205039978 71.13400268554688,14.289999961853027z"></path></g><g opacity="1" transform="matrix(1,0,0,1,0,0)"><path fill="rgb(56,43,38)" fill-opacity="1" d=" M73.12000274658203,23.055999755859375 C107.1510009765625,6.829999923706055 170.28199768066406,2.8010001182556152 216.43699645996094,34.500999450683594 C168.781005859375,12.45300006866455 118.69000244140625,10.61299991607666 73.12000274658203,23.055999755859375z"></path></g><g opacity="1" transform="matrix(1,0,0,1,0,0)"><path fill="rgb(56,43,38)" fill-opacity="1" d=" M75.66000366210938,34.500999450683594 C112.91400146484375,17.594999313354492 178.49899291992188,17.88599967956543 220.30299377441406,60.180999755859375 C176.0800018310547,28.023000717163086 125.5770034790039,21.520999908447266 75.66000366210938,34.500999450683594z"></path></g></g><g style="display: block;" transform="matrix(1,0,0,1,256,256)" opacity="1"><g opacity="1" transform="matrix(1,0,0,1,0,0)"><path fill="rgb(56,43,38)" fill-opacity="1" d=" M-79.01399993896484,14.291000366210938 C-116.63300323486328,0.5640000104904175 -158.8979949951172,-2.48799991607666 -202.7760009765625,9.215999603271484 C-160.093994140625,-11.763999938964844 -106.06500244140625,-2.5789999961853027 -79.01399993896484,14.291000366210938z"></path></g><g opacity="1" transform="matrix(1,0,0,1,0,0)"><path fill="rgb(56,43,38)" fill-opacity="1" d=" M-81,23.055999755859375 C-126.35900115966797,10.670000076293945 -176.39700317382812,12.331000328063965 -224.3159942626953,34.500999450683594 C-178.5760040283203,3.0840001106262207 -115.45500183105469,6.627999782562256 -81,23.055999755859375z"></path></g><g opacity="1" transform="matrix(1,0,0,1,0,0)"><path fill="rgb(56,43,38)" fill-opacity="1" d=" M-83.54000091552734,34.500999450683594 C-132.51300048828125,21.76799964904785 -183.58799743652344,27.75200080871582 -228.18299865722656,60.180999755859375 C-186.56300354003906,18.069000244140625 -120.90299987792969,17.545000076293945 -83.54000091552734,34.500999450683594z"></path></g></g></g></svg>