<svg xmlns="http://www.w3.org/2000/svg" viewBox="0 0 512 512" width="512" height="512" style="width: 100%; height: 100%; transform: translate3d(0,0,0);" preserveAspectRatio="xMidYMid meet"><defs><clipPath id="__lottie_element_19534"><rect width="512" height="512" x="0" y="0"></rect></clipPath></defs><g clip-path="url(#__lottie_element_19534)"><g style="display: block;" transform="matrix(1,0,0,1,244.4219970703125,297.7490234375)" opacity="1"><g opacity="1" transform="matrix(1,0,0,1,0,0)"><path fill="rgb(255,177,57)" fill-opacity="1" d=" M174.73199462890625,88.62999725341797 C173.03199768066406,102.20999908447266 172.36199951171875,124.13999938964844 146.7220001220703,152.24000549316406 C119.8219985961914,181.72999572753906 94.36199951171875,180.89999389648438 81.74199676513672,180.52000427246094 C77.46199798583984,180.3800048828125 73.48100280761719,178.30999755859375 70.87100219726562,174.91000366210938 C70.87100219726562,174.91000366210938 36.68299865722656,135.08700561523438 36.68299865722656,135.08700561523438 C35.16299819946289,133.10699462890625 30.910999298095703,131.05999755859375 28.430999755859375,130.80999755859375 C15.420999526977539,129.52999877929688 -18.429000854492188,130.80999755859375 -61.54899978637695,92.01000213623047 C-96.80899810791016,60.279998779296875 -135.15499877929688,18.959999084472656 -159.13499450683594,-5.980000019073486 C-176.23500061035156,-23.770000457763672 -175.9949951171875,-38.45000076293945 -166.76499938964844,-46.36000061035156 C-161.85499572753906,-50.560001373291016 -159.0500030517578,-55.37099838256836 -137.1300048828125,-37.88100051879883 C-123.4800033569336,-26.981000900268555 -113.08799743652344,-18.979999542236328 -110.86799621582031,-17.049999237060547 C-131.6479949951172,-36.36000061035156 -169.61900329589844,-80.23100280761719 -173.2689971923828,-90.33100128173828 C-175.2790069580078,-95.91100311279297 -176.60000610351562,-104.38099670410156 -169.2100067138672,-111.1709976196289 C-161.02000427246094,-118.70099639892578 -149.25,-117.86100006103516 -140.1300048828125,-110.39099884033203 C-128.00999450683594,-100.47100067138672 -116.12000274658203,-89.01100158691406 -110.37999725341797,-83.35099792480469 C-118.26000213623047,-91.33100128173828 -141.27000427246094,-115.04100036621094 -150.6199951171875,-128.84100341796875 C-157.4199981689453,-138.87100219726562 -157.6999969482422,-151.38099670410156 -148.11000061035156,-159.86099243164062 C-138.9600067138672,-166.9409942626953 -127.56900024414062,-163.7310028076172 -118.47899627685547,-157.31100463867188 C-104.52899932861328,-147.4510040283203 -83.47000122070312,-125.96099853515625 -80.87999725341797,-123.29100036621094 C-83.05000305175781,-125.68099975585938 -95.7699966430664,-139.84100341796875 -101.16000366210938,-150.37100219726562 C-105.16000366210938,-158.18099975585938 -106.79900360107422,-169.2010040283203 -97.93900299072266,-176.4409942626953 C-88.67900085449219,-183.99099731445312 -75.08000183105469,-180.6510009765625 -64.68000030517578,-171.75100708007812 C-44.77000045776367,-154.6909942626953 45.70199966430664,-61.61000061035156 50.36199951171875,-56.779998779296875 C50.36199951171875,-56.779998779296875 24.23699951171875,-78.28500366210938 25.985000610351562,-106.23699951171875 C27.114999771118164,-124.23699951171875 38.904998779296875,-132.14700317382812 45.23500061035156,-131.23699951171875 C54.48500061035156,-129.89700317382812 55.505001068115234,-123.13700103759766 71.375,-103.09700012207031 C75.57499694824219,-97.78700256347656 91.00199890136719,-82.31999969482422 95.31199645996094,-78.29000091552734 C105.26200103759766,-68.98999786376953 114.94200134277344,-61.720001220703125 121.77200317382812,-50.18000030517578 C127.87200164794922,-39.869998931884766 129.6909942626953,-25.18000030517578 135.54100036621094,-3.569999933242798 C137.86099243164062,5.010000228881836 139.02200317382812,12.210000038146973 139.3419952392578,23.75 C139.69200134277344,36.41999816894531 136.79200744628906,44.65999984741211 143.03199768066406,49.2400016784668 C143.03199768066406,49.2400016784668 168.40199279785156,74.94000244140625 168.40199279785156,74.94000244140625 C172.9320068359375,77.91999816894531 175.41200256347656,83.2300033569336 174.73199462890625,88.62999725341797z"></path></g></g><g style="display: block;" transform="matrix(1,0,0,1,228.968994140625,264.4580078125)" opacity="1"><g opacity="1" transform="matrix(1,0,0,1,0,0)"><path fill="rgb(255,209,64)" fill-opacity="1" d=" M86.8280029296875,-69.80599975585938 C70.95800018310547,-89.84600067138672 69.93800354003906,-96.60600280761719 60.6879997253418,-97.94599914550781 C59.61000061035156,-98.10099792480469 58.37200164794922,-97.99400329589844 57.05699920654297,-97.63099670410156 C55.45600128173828,-95.01599884033203 46.691001892089844,-79.05400085449219 56.137001037597656,-56.79899978637695 C65.23699951171875,-35.36000061035156 74.21399688720703,-30.02899932861328 91.08999633789062,-19.80699920654297 C109.11499786376953,-8.888999938964844 110.37699890136719,3.4240000247955322 107.6989974975586,5.892000198364258 C105.02100372314453,8.359999656677246 83.30699920654297,-5.228000164031982 70.48200225830078,-17.823999404907227 C34.18899917602539,-53.470001220703125 -5.736000061035156,-96.95500183105469 -33.25400161743164,-123.69300079345703 C-48.922000885009766,-138.91700744628906 -69.4229965209961,-146.1750030517578 -72.31500244140625,-136.4499969482422 C-74.29199981689453,-129.802001953125 -69.5999984741211,-118.19599914550781 -52.17100143432617,-99.2750015258789 C-22.770999908447266,-67.35900115966797 -4.236000061035156,-48.46500015258789 4.940999984741211,-36.40599822998047 C15.185999870300293,-22.94300079345703 0.703000009059906,-22.554000854492188 -4.769000053405762,-27.96500015258789 C-23.46299934387207,-47.941001892089844 -79.6449966430664,-107.49400329589844 -103.0270004272461,-124.02100372314453 C-109.59300231933594,-128.6580047607422 -117.35800170898438,-131.61700439453125 -124.61299896240234,-130.23699951171875 C-124.54100036621094,-130.2259979248047 -124.47200012207031,-130.2209930419922 -124.4000015258789,-130.2100067138672 C-124.4000015258789,-130.2100067138672 -133.94500732421875,-126.52200317382812 -125.80400085449219,-111.65699768066406 C-120.88400268554688,-102.6719970703125 -99.2750015258789,-78.95800018310547 -82.36499786376953,-61.185001373291016 C-45.125999450683594,-22.045000076293945 -29.92300033569336,-4.129000186920166 -22.007999420166016,5.34499979019165 C-16.066999435424805,12.456000328063965 -22.732999801635742,24.06800079345703 -30.490999221801758,19.952999114990234 C-30.490999221801758,19.952999114990234 -34.37300109863281,18.947999954223633 -63.3650016784668,-10.946000099182129 C-84.38800048828125,-32.62300109863281 -114.4260025024414,-59.90700149536133 -128.23199462890625,-72.5979995727539 C-139.4290008544922,-82.88999938964844 -149.74600219726562,-72.50299835205078 -142.5469970703125,-59.68199920654297 C-137.63600158691406,-50.935001373291016 -124.9739990234375,-38.055999755859375 -110.38300323486328,-21.948999404907227 C-87.13899993896484,3.7100000381469727 -67.51000213623047,20.687000274658203 -53.00299835205078,36.470001220703125 C-40.88600158691406,49.65399932861328 -52.03099822998047,58.595001220703125 -56.82899856567383,58.595001220703125 C-56.82899856567383,58.595001220703125 -56.82899856567383,58.595001220703125 -56.82899856567383,58.595001220703125 C-58.340999603271484,58.65399932861328 -60.435001373291016,58.01499938964844 -63.26499938964844,55.81100082397461 C-79.55400085449219,43.125 -104.50700378417969,18.593000411987305 -118.57099914550781,5.739999771118164 C-131.08099365234375,-5.692999839782715 -137.66099548339844,-2.818000078201294 -134.1739959716797,6.205999851226807 C-131.4510040283203,13.251999855041504 -116.68000030517578,29.59600067138672 -107.8219985961914,38.617000579833984 C-47.65599822998047,99.88800048828125 -13.689000129699707,140.91099548339844 55.79199981689453,140.86700439453125 C97.927001953125,140.83999633789062 133.18600463867188,113.4739990234375 142.26499938964844,77.14399719238281 C149.21499633789062,49.33300018310547 141.47999572753906,11.835000038146973 131.97500610351562,-8.26099967956543 C121.79299926757812,-29.78700065612793 100.55500030517578,-52.619998931884766 86.8280029296875,-69.80599975585938z"></path></g></g><g style="display: block;" transform="matrix(1,0,0,1,305.07000732421875,193.68499755859375)" opacity="1"><g opacity="1" transform="matrix(1,0,0,1,0,0)"><path fill="rgb(255,223,121)" fill-opacity="1" d=" M34.66400146484375,25.773000717163086 C34.66400146484375,25.773000717163086 34.62300109863281,27.243000030517578 34.62300109863281,27.243000030517578 C34.62300109863281,27.243000030517578 6.605999946594238,15.869999885559082 -15.588000297546387,-9.958999633789062 C-26.468000411987305,-22.621000289916992 -34.66400146484375,-2.1730000972747803 -34.66400146484375,-2.1730000972747803 C-33.534000396728516,-20.17300033569336 -21.743999481201172,-28.08300018310547 -15.413999557495117,-27.17300033569336 C-6.164000034332275,-25.83300018310547 -5.14300012588501,-19.072999954223633 10.72700023651123,0.9670000076293945 C14.927000045776367,6.2769999504089355 30.354000091552734,21.743000030517578 34.66400146484375,25.773000717163086z"></path></g></g><g style="display: block;" transform="matrix(1,0,0,1,96.07499694824219,268.2480163574219)" opacity="1"><g opacity="1" transform="matrix(1,0,0,1,0,0)"><path fill="rgb(255,223,121)" fill-opacity="1" d=" M-13.45199966430664,20.214000701904297 C-13.45199966430664,20.224000930786133 -13.442000389099121,20.222999572753906 -13.442000389099121,20.232999801635742 C-14.503999710083008,18.986000061035156 -14.555000305175781,16.75 -15.586999893188477,15.52299976348877 C-24.604000091552734,4.763000011444092 -27.97800064086914,-9.281999588012695 -18.732999801635742,-17.010000228881836 C-11.232999801635742,-23.27899932861328 -1.4500000476837158,-19.91699981689453 9.845000267028809,-11.11400032043457 C9.92300033569336,-11.03600025177002 24.143999099731445,2.808000087738037 24.222000122070312,2.8959999084472656 C24.222000122070312,2.8959999084472656 -31.006000518798828,-28.052000045776367 -13.45199966430664,20.214000701904297z"></path></g></g><g style="display: block;" transform="matrix(0.9698543548583984,0.04439703747630119,-0.04714353010058403,1.0298515558242798,289.4710693359375,267.6850280761719)" opacity="1"><g opacity="1" transform="matrix(1,0,0,1,0,0)"><path fill="rgb(255,177,57)" fill-opacity="1" d=" M-49.5620002746582,-6.514999866485596 C-55.27799987792969,5.339000225067139 -65.33799743652344,41.13800048828125 -46.95600128173828,81.48400115966797 C-44.3849983215332,87.1259994506836 -38.49700164794922,84.71600341796875 -38.58300018310547,78.24600219726562 C-39.00400161743164,46.64799880981445 -32.512001037597656,22.83300018310547 -15.5,8 C1.5640000104904175,-6.876999855041504 -40.13999938964844,-26.05500030517578 -49.5620002746582,-6.514999866485596z"></path></g></g><g style="display: block;" transform="matrix(1,0,0,1,128.74899291992188,226.3610076904297)" opacity="1"><g opacity="1" transform="matrix(1,0,0,1,0,0)"><path fill="rgb(255,223,121)" fill-opacity="1" d=" M-55.4010009765625,-23.2450008392334 C-55.4010009765625,-23.2450008392334 -45.652000427246094,-43.25 -20.46500015258789,-21.62299919128418 C27.1200008392334,19.236000061035156 45.608001708984375,52.35599899291992 56.96900177001953,43.27000045776367 C56.96900177001953,43.27000045776367 -1.38100004196167,-23.676000595092773 -24.458999633789062,-39.00400161743164 C-47.5369987487793,-54.332000732421875 -61.900001525878906,-35.70500183105469 -55.4010009765625,-23.2450008392334z"></path></g></g><g style="display: block;" transform="matrix(1,0,0,1,214.093994140625,175.89901733398438)" opacity="1"><g opacity="1" transform="matrix(1,0,0,1,0,0)"><path fill="rgb(255,223,121)" fill-opacity="1" d=" M72.89600372314453,56.12300109863281 C72.89600372314453,56.12300109863281 74.14199829101562,58.29399871826172 74.14199829101562,58.29399871826172 C61.191001892089844,66.12300109863281 -18.000999450683594,-24.643999099731445 -36.17399978637695,-38.27000045776367 C-61.86600112915039,-57.53300094604492 -70.73600006103516,-34.58100128173828 -70.73600006103516,-34.58100128173828 C-78.52100372314453,-44.180999755859375 -70.98899841308594,-51.8390007019043 -67.61000061035156,-54.584999084472656 C-58.3489990234375,-62.14099884033203 -44.74599838256836,-58.80099868774414 -34.35599899291992,-49.9010009765625 C-18.10300064086914,-35.986000061035156 51.930999755859375,34.749000549316406 72.89600372314453,56.12300109863281z"></path></g></g><g style="display: block;" transform="matrix(1,0,0,1,155.6929931640625,185.87301635742188)" opacity="1"><g opacity="1" transform="matrix(1,0,0,1,0,0)"><path fill="rgb(255,223,121)" fill-opacity="1" d=" M-63.0359992980957,-27.577999114990234 C-63.0359992980957,-27.577999114990234 -54.48099899291992,-51.073001861572266 -28.944000244140625,-29.402000427246094 C22.500999450683594,14.255000114440918 52.209999084472656,58.2130012512207 64.2959976196289,49.512001037597656 C64.2959976196289,49.512001037597656 5.936999797821045,-15.861000061035156 -18.108999252319336,-35.569000244140625 C-51.85900115966797,-63.22999954223633 -69.302001953125,-48.0880012512207 -63.0359992980957,-27.577999114990234z"></path></g></g><g style="display: block;" transform="matrix(1,0,0,1,244.52499389648438,297.5010070800781)" opacity="1"><g opacity="1" transform="matrix(1,0,0,1,0,0)"><path stroke-linecap="round" stroke-linejoin="round" fill-opacity="0" stroke="rgb(247,126,65)" stroke-opacity="1" stroke-width="8" d=" M174.63299560546875,88.8740005493164 C172.9290008544922,102.45800018310547 167.94000244140625,128.00100708007812 145.61900329589844,151.48599243164062 C120.81700134277344,177.58099365234375 94.25399780273438,181.14599609375 81.64299774169922,180.76600646972656 C77.35800170898438,180.6300048828125 73.3759994506836,178.55499267578125 70.76699829101562,175.15699768066406 C70.76699829101562,175.15699768066406 36.58000183105469,135.3350067138672 36.58000183105469,135.3350067138672 C35.06100082397461,133.35800170898438 30.80900001525879,131.30599975585938 28.326000213623047,131.05299377441406 C15.317000389099121,129.77699279785156 -18.530000686645508,131.05299377441406 -61.650001525878906,92.25800323486328 C-96.91400146484375,60.53099822998047 -136.72999572753906,21.163000106811523 -158.23699951171875,-5.736000061035156 C-173.6479949951172,-25.01099967956543 -176.16000366210938,-38.321998596191406 -165.83999633789062,-46.108001708984375 C-160.6820068359375,-50 -149.5970001220703,-50.867000579833984 -134.2010040283203,-36.59600067138672 C-120.53500366210938,-23.929000854492188 -108.19999694824219,-12.819000244140625 -108.19999694824219,-12.819000244140625 C-117.08100128173828,-21.047000885009766 -128.8300018310547,-32.92399978637695 -139.9199981689453,-45.316001892089844 C-154.64999389648438,-61.7760009765625 -168.2209930419922,-79.1449966430664 -172.37100219726562,-90.08000183105469 C-174.4759979248047,-95.6259994506836 -177.30599975585938,-104.57099914550781 -170.30999755859375,-111.9280014038086 C-162.64599609375,-119.98699951171875 -149.3560028076172,-117.61199951171875 -140.23500061035156,-110.1449966430664 C-123.375,-96.34200286865234 -106.94100189208984,-79.55699920654297 -106.94100189208984,-79.55699920654297 C-106.94100189208984,-79.55699920654297 -138.75100708007812,-110.927001953125 -150.7259979248047,-128.59300231933594 C-157.5279998779297,-138.6269989013672 -158.80299377441406,-152.13099670410156 -149.21600341796875,-160.61500549316406 C-140.06500244140625,-167.6909942626953 -127.66799926757812,-162.48800659179688 -118.58399963378906,-156.06300354003906 C-103.45500183105469,-145.36199951171875 -80.64800262451172,-122.697998046875 -80.64800262451172,-122.697998046875 C-80.64800262451172,-122.697998046875 -95.35399627685547,-138.58799743652344 -101.26399993896484,-150.12600708007812 C-105.26599884033203,-157.93899536132812 -107.90399932861328,-169.95700073242188 -99.04100036621094,-177.18899536132812 C-89.78299713134766,-184.74200439453125 -76.17900085449219,-179.406005859375 -65.78299713134766,-170.50399780273438 C-45.198001861572266,-152.8769989013672 50.49700164794922,-56.27799987792969 50.49700164794922,-56.27799987792969 C50.49700164794922,-56.27799987792969 24.299999237060547,-80.67900085449219 25.886999130249023,-105.98699951171875 C27.016000747680664,-123.99199676513672 38.80500030517578,-131.89599609375 45.12799835205078,-130.98399353027344 C54.38199996948242,-129.6490020751953 55.39899826049805,-122.88999938964844 71.2760009765625,-102.8479995727539 C85.17400360107422,-85.30400085449219 111.88099670410156,-66.4800033569336 121.6719970703125,-49.930999755859375 C127.77100372314453,-39.62200164794922 129.59100341796875,-24.930999755859375 135.43499755859375,-3.319000005722046 C137.7550048828125,5.261000156402588 138.91700744628906,12.454000473022461 139.23800659179688,23.999000549316406 C139.59100341796875,36.672000885009766 137.5709991455078,45.000999450683594 142.9290008544922,49.4900016784668 C142.9290008544922,49.4900016784668 168.29400634765625,73.18299865722656 168.29400634765625,73.18299865722656 C173.31900024414062,77.48899841308594 175.30499267578125,83.47899627685547 174.63299560546875,88.8740005493164z"></path></g></g><g style="display: block;" transform="matrix(1,0,0,1,165.76199340820312,246.63400268554688)" opacity="1"><g opacity="1" transform="matrix(1,0,0,1,0,0)"><path stroke-linecap="round" stroke-linejoin="round" fill-opacity="0" stroke="rgb(247,126,65)" stroke-opacity="1" stroke-width="8" d=" M28.17799949645996,28.690000534057617 C28.17799949645996,28.690000534057617 -28.17799949645996,-28.690000534057617 -28.17799949645996,-28.690000534057617"></path></g></g><g style="display: block;" transform="matrix(1,0,0,1,193.3159942626953,205.59100341796875)" opacity="1"><g opacity="1" transform="matrix(1,0,0,1,0,0)"><path stroke-linecap="round" stroke-linejoin="round" fill-opacity="0" stroke="rgb(247,126,65)" stroke-opacity="1" stroke-width="8" d=" M29.43899917602539,30.788000106811523 C29.43899917602539,30.788000106811523 -29.43899917602539,-30.788000106811523 -29.43899917602539,-30.788000106811523"></path></g></g><g style="display: block;" transform="matrix(1,0,0,1,143.125,291.281005859375)" opacity="1"><g opacity="1" transform="matrix(1,0,0,1,0,0)"><path stroke-linecap="round" stroke-linejoin="round" fill-opacity="0" stroke="rgb(247,126,65)" stroke-opacity="1" stroke-width="8" d=" M24.297000885009766,22.60700035095215 C24.297000885009766,22.60700035095215 -24.297000885009766,-22.60700035095215 -24.297000885009766,-22.60700035095215"></path></g></g><g style="display: block;" transform="matrix(1,0,0,1,381.33099365234375,347.6490173339844)" opacity="1"><g opacity="1" transform="matrix(1,0,0,1,0,0)"><path stroke-linecap="round" stroke-linejoin="round" fill-opacity="0" stroke="rgb(247,126,65)" stroke-opacity="1" stroke-width="8" d=" M2.3440001010894775,-12.437000274658203 C2.3440001010894775,-12.437000274658203 1.6649999618530273,3.0460000038146973 -2.3440001010894775,12.437000274658203"></path></g></g><g style="display: block;" transform="matrix(1,0,0,1,282.5480041503906,428.2149963378906)" opacity="1"><g opacity="1" transform="matrix(1,0,0,1,0,0)"><path stroke-linecap="round" stroke-linejoin="round" fill-opacity="0" stroke="rgb(247,126,65)" stroke-opacity="1" stroke-width="8" d=" M-8.753999710083008,0.296999990940094 C-8.753999710083008,0.296999990940094 2.5450000762939453,1.5779999494552612 10.640000343322754,-0.7360000014305115"></path></g></g><g style="display: block;" transform="matrix(1,0,0,1,288.1730041503906,307.1419982910156)" opacity="1"><g opacity="1" transform="matrix(1,0,0,1,0,0)"><path fill="rgb(255,209,64)" fill-opacity="1" d=" M181.69700622558594,91.73799896240234 C179.906005859375,106.01499938964844 174.92599487304688,126.44599914550781 147.97900390625,155.97300720214844 C119.69999694824219,186.9739990234375 98.38800048828125,185.97300720214844 85.13400268554688,185.57400512695312 C80.63099670410156,185.43099975585938 76.44499969482422,183.25100708007812 73.7020034790039,179.6790008544922 C73.7020034790039,179.6790008544922 35.96099853515625,137.2899932861328 35.96099853515625,137.2899932861328 C34.36399841308594,135.21200561523438 26.257999420166016,133.71299743652344 23.648000717163086,133.44700622558594 C9.975000381469727,132.1060028076172 -35.297000885009766,125.48300170898438 -72.00599670410156,88.33200073242188 C-87.70700073242188,72.44200134277344 -102.91600036621094,24.138999938964844 -54.72800064086914,-32.70899963378906 C2.6689999103546143,-100.41999816894531 65.0989990234375,-48.42599868774414 65.0989990234375,-48.42599868774414 C65.0989990234375,-48.42599868774414 31.759000778198242,-77.60099792480469 31.61199951171875,-112.08300018310547 C31.496000289916992,-139.14500427246094 50.33399963378906,-150.36599731445312 57.02899932861328,-149.86099243164062 C66.8280029296875,-149.1219940185547 66.60900115966797,-137.34100341796875 79.93499755859375,-110.6969985961914 C90.45800018310547,-89.65699768066406 109.68900299072266,-74.3479995727539 119.9800033569336,-56.95500183105469 C126.39099884033203,-46.119998931884766 131.77000427246094,-35.018001556396484 132.81700134277344,-15.722999572753906 C133.322998046875,-6.394999980926514 133.88299560546875,8.793999671936035 134.2209930419922,20.92799949645996 C134.5919952392578,34.24800109863281 137.39999389648438,45.643001556396484 143.95799255371094,50.459999084472656 C143.95799255371094,50.459999084472656 175.03399658203125,77.3479995727539 175.03399658203125,77.3479995727539 C179.80299377441406,80.48999786376953 182.4029998779297,86.06800079345703 181.69700622558594,91.73799896240234z"></path></g></g><g style="display: block;" transform="matrix(1,0,0,1,347.9049987792969,193.18399047851562)" opacity="1"><g opacity="1" transform="matrix(1,0,0,1,0,0)"><path fill="rgb(255,223,121)" fill-opacity="1" d=" M-1.6369999647140503,-36.48099899291992 C-10.005000114440918,-39.31800079345703 -21.30900001525879,-26.7549991607666 -14.807000160217285,-0.6890000104904175 C-7.4679999351501465,28.73200035095215 10.701000213623047,39.26499938964844 15.20199966430664,36.430999755859375 C19.702999114990234,33.59700012207031 13.065999984741211,17.444000244140625 11.329000473022461,7.755000114440918 C8.699000358581543,-6.915999889373779 12.534000396728516,-31.677000045776367 -1.6369999647140503,-36.48099899291992z"></path></g></g><g style="display: block;" transform="matrix(1,0,0,1,288.0140075683594,306.6210021972656)" opacity="1"><path fill="rgb(255,209,64)" fill-opacity="1" d=" M-15.567000389099121,-55.4630012512207 C-15.567000389099121,-55.4630012512207 -34.111000061035156,-72.83399963378906 -54.367000579833984,-93.55799865722656 C-75.45899963378906,-115.13800048828125 -98.40899658203125,-140.35299682617188 -104.20999908447266,-153.375 C-108.97699737548828,-164.0749969482422 -112.13800048828125,-175.16799926757812 -102.8219985961914,-182.7689971923828 C-93.09200286865234,-190.70700073242188 -77.79399871826172,-183.20199584960938 -66.86699676513672,-173.84500122070312 C-59.21900177001953,-167.29600524902344 -40.46799850463867,-149.64100646972656 -19.420000076293945,-129.5489959716797 C19.076000213623047,-92.802001953125 65.25800323486328,-47.90599822998047 65.25800323486328,-47.90599822998047"></path><path fill="rgb(255,209,64)" fill-opacity="1" d=" M-15.567000389099121,-55.4630012512207 C-15.567000389099121,-55.4630012512207 -34.111000061035156,-72.83399963378906 -54.367000579833984,-93.55799865722656 C-75.45899963378906,-115.13800048828125 -98.40899658203125,-140.35299682617188 -104.20999908447266,-153.375 C-108.97699737548828,-164.0749969482422 -112.13800048828125,-175.16799926757812 -102.8219985961914,-182.7689971923828 C-93.09200286865234,-190.70700073242188 -77.79399871826172,-183.20199584960938 -66.86699676513672,-173.84500122070312 C-59.21900177001953,-167.29600524902344 -40.46799850463867,-149.64100646972656 -19.420000076293945,-129.5489959716797 C19.076000213623047,-92.802001953125 65.25800323486328,-47.90599822998047 65.25800323486328,-47.90599822998047"></path><g opacity="1" transform="matrix(1,0,0,1,0,0)"></g></g><g style="display: block;" transform="matrix(1,0,0,1,273.385986328125,196.843994140625)" opacity="1"><g opacity="1" transform="matrix(1,0,0,1,0,0)"><path fill="rgb(255,223,121)" fill-opacity="1" d=" M34.21799850463867,18.104000091552734 C34.21799850463867,18.104000091552734 90.8290023803711,67.47799682617188 87.7249984741211,74.28199768066406 C83.35900115966797,83.85199737548828 30.145000457763672,30.572999954223633 -59.49100112915039,-53.78799819946289 C-75.39900207519531,-68.76000213623047 -79.43599700927734,-56.066001892089844 -79.43599700927734,-56.066001892089844 C-87.61900329589844,-66.15599822998047 -89.74500274658203,-68.10299682617188 -86.19400024414062,-70.98899841308594 C-76.45999908447266,-78.93099975585938 -62.1619987487793,-75.4209976196289 -51.242000579833984,-66.06600189208984 C-34.15999984741211,-51.441001892089844 12.182999610900879,-4.361000061035156 34.21799850463867,18.104000091552734z"></path></g></g><g style="display: block;" transform="matrix(1,0,0,1,229.61000061035156,189.12200927734375)" opacity="1"><g opacity="1" transform="matrix(1,0,0,1,0,0)"><path fill="rgb(255,177,57)" fill-opacity="1" d=" M-23.89900016784668,-64.99099731445312 C-60.67100143432617,-73.18599700927734 -53.827999114990234,-37.56999969482422 -28.472000122070312,-11.451000213623047 C-9.946999549865723,7.63100004196167 44.709999084472656,66.18800354003906 44.709999084472656,66.18800354003906 C58.75,57.11199951171875 42.70399856567383,44.34600067138672 -14.557999610900879,-17.81599998474121 C-53.99399948120117,-60.625999450683594 -23.89900016784668,-64.99099731445312 -23.89900016784668,-64.99099731445312z"></path></g></g><g style="display: block;" transform="matrix(1,0,0,1,288.0140075683594,306.6210021972656)" opacity="1"><g opacity="1" transform="matrix(1,0,0,1,0,0)"><path stroke-linecap="round" stroke-linejoin="round" fill-opacity="0" stroke="rgb(247,126,65)" stroke-opacity="1" stroke-width="8" d=" M-15.567000389099121,-55.4630012512207 C-15.567000389099121,-55.4630012512207 -34.111000061035156,-72.83399963378906 -54.367000579833984,-93.55799865722656 C-75.45899963378906,-115.13800048828125 -98.40899658203125,-140.35299682617188 -104.20999908447266,-153.375 C-108.97699737548828,-164.0749969482422 -112.13800048828125,-175.16799926757812 -102.8219985961914,-182.7689971923828 C-93.09200286865234,-190.70700073242188 -77.79399871826172,-183.20199584960938 -66.86699676513672,-173.84500122070312 C-59.21900177001953,-167.29600524902344 -40.46799850463867,-149.64100646972656 -19.420000076293945,-129.5489959716797 C19.076000213623047,-92.802001953125 65.25800323486328,-47.90599822998047 65.25800323486328,-47.90599822998047"></path></g></g><g style="display: block;" transform="matrix(1,0,0,1,217.156005859375,144.71400451660156)" opacity="1"><g opacity="1" transform="matrix(1,0,0,1,0,0)"><path stroke-linecap="round" stroke-linejoin="round" fill-opacity="0" stroke="rgb(255,255,255)" stroke-opacity="1" stroke-width="6" d=" M-3.259999990463257,-2.6570000648498535 C-3.259999990463257,-2.6570000648498535 0.2460000067949295,-0.035999998450279236 3.259999990463257,2.6570000648498535"></path></g></g><g style="display: block;" transform="matrix(1,0,0,1,288.0140075683594,306.6210021972656)" opacity="1"><path fill="rgb(255,209,64)" fill-opacity="1" d=" M-50.97200012207031,-19.90999984741211 C-62.00299835205078,-27.89299964904785 -110.1760025024414,-79.2040023803711 -110.1760025024414,-79.2040023803711 C-110.1760025024414,-79.2040023803711 -144.406005859375,-113.97100067138672 -156.99200439453125,-132.53900146484375 C-164.14100646972656,-143.0850067138672 -166.43099975585938,-157.2270050048828 -156.35400390625,-166.1439971923828 C-146.73599243164062,-173.58099365234375 -133.7570037841797,-168.21600341796875 -124.20999908447266,-161.46299743652344 C-108.30799865722656,-150.21600341796875 -82.54100036621094,-123.5479965209961 -82.54100036621094,-123.5479965209961 C-82.54100036621094,-123.5479965209961 -20.086999893188477,-60.95600128173828 -15.569000244140625,-55.9630012512207"></path><path fill="rgb(255,209,64)" fill-opacity="1" d=" M-50.97200012207031,-19.90999984741211 C-62.00299835205078,-27.89299964904785 -110.1760025024414,-79.2040023803711 -110.1760025024414,-79.2040023803711 C-110.1760025024414,-79.2040023803711 -144.406005859375,-113.97100067138672 -156.99200439453125,-132.53900146484375 C-164.14100646972656,-143.0850067138672 -166.43099975585938,-157.2270050048828 -156.35400390625,-166.1439971923828 C-146.73599243164062,-173.58099365234375 -133.7570037841797,-168.21600341796875 -124.20999908447266,-161.46299743652344 C-108.30799865722656,-150.21600341796875 -82.54100036621094,-123.5479965209961 -82.54100036621094,-123.5479965209961 C-82.54100036621094,-123.5479965209961 -20.086999893188477,-60.95600128173828 -15.569000244140625,-55.9630012512207"></path><g opacity="1" transform="matrix(1,0,0,1,0,0)"></g></g><g style="display: block;" transform="matrix(1,0,0,1,204.7310028076172,197.96200561523438)" opacity="1"><g opacity="1" transform="matrix(1,0,0,1,0,0)"><path fill="rgb(255,223,121)" fill-opacity="1" d=" M-67.39700317382812,-41.87200164794922 C-67.39700317382812,-41.87200164794922 -61.715999603271484,-55.04600143432617 -40.979000091552734,-36.1619987487793 C-13.017000198364258,-10.699000358581543 9.119999885559082,12.074999809265137 26.222000122070312,28.79599952697754 C47.9010009765625,49.99100112915039 61.48899841308594,61.45899963378906 68.58999633789062,56.34700012207031 C68.58999633789062,56.34700012207031 -1.4989999532699585,-21.07200050354004 -26.89299964904785,-41.63800048828125 C-52.2869987487793,-62.20399856567383 -73.98300170898438,-63.42900085449219 -67.39700317382812,-41.87200164794922z"></path></g></g><g style="display: block;" transform="matrix(1,0,0,1,186.56500244140625,216.3179931640625)" opacity="1"><g opacity="1" transform="matrix(1,0,0,1,0,0)"><path fill="rgb(255,177,57)" fill-opacity="1" d=" M-43.742000579833984,-75.9469985961914 C-43.742000579833984,-75.9469985961914 -53.2869987487793,-72.25800323486328 -45.145999908447266,-57.393001556396484 C-40.22600173950195,-48.40800094604492 -18.617000579833984,-24.694000244140625 -1.7070000171661377,-6.921000003814697 C35.53099822998047,32.21900177001953 50.73500061035156,50.13399887084961 58.650001525878906,59.608001708984375 C64.59100341796875,66.71900177001953 59.94499969482422,78.14700317382812 51.358001708984375,75.95500183105469 C51.358001708984375,75.95500183105469 -21.93000030517578,-2.507999897003174 -37.263999938964844,-19.625999450683594 C-47.24300003051758,-30.764999389648438 -56.43899917602539,-40.89699935913086 -59.694000244140625,-51.064998626708984 C-64.38400268554688,-65.71800231933594 -58.88999938964844,-78.29399871826172 -43.742000579833984,-75.9469985961914z"></path></g></g><g style="display: block;" transform="matrix(1,0,0,1,288.0140075683594,306.6210021972656)" opacity="1"><g opacity="1" transform="matrix(1,0,0,1,0,0)"><path stroke-linecap="round" stroke-linejoin="round" fill-opacity="0" stroke="rgb(247,126,65)" stroke-opacity="1" stroke-width="8" d=" M-50.97200012207031,-19.90999984741211 C-62.00299835205078,-27.89299964904785 -110.1760025024414,-79.2040023803711 -110.1760025024414,-79.2040023803711 C-110.1760025024414,-79.2040023803711 -144.406005859375,-113.97100067138672 -156.99200439453125,-132.53900146484375 C-164.14100646972656,-143.0850067138672 -166.43099975585938,-157.2270050048828 -156.35400390625,-166.1439971923828 C-146.73599243164062,-173.58099365234375 -133.7570037841797,-168.21600341796875 -124.20999908447266,-161.46299743652344 C-108.30799865722656,-150.21600341796875 -82.54100036621094,-123.5479965209961 -82.54100036621094,-123.5479965209961 C-82.54100036621094,-123.5479965209961 -20.086999893188477,-60.95600128173828 -15.569000244140625,-55.9630012512207"></path></g></g><g style="display: block;" transform="matrix(1,0,0,1,288.0140075683594,306.6210021972656)" opacity="1"><path fill="rgb(255,209,64)" fill-opacity="1" d=" M-77.36699676513672,17.1299991607666 C-94.9280014038086,0.656000018119812 -135.63600158691406,-38.16899871826172 -135.63600158691406,-38.16899871826172 C-135.63600158691406,-38.16899871826172 -135.63600158691406,-38.16899871826172 -135.63600158691406,-38.16899871826172 C-153.78599548339844,-56.42900085449219 -174.93600463867188,-79.68699645996094 -178.9969940185547,-90.26499938964844 C-182.18299865722656,-98.56300354003906 -184.4969940185547,-107.03800201416016 -176.72900390625,-114.177001953125 C-168.1219940185547,-122.08699798583984 -154.75599670410156,-119.2020034790039 -145.16900634765625,-111.35299682617188 C-127.447998046875,-96.84500122070312 -110.1760025024414,-79.2040023803711 -110.1760025024414,-79.2040023803711 C-110.1760025024414,-79.2040023803711 -58.99800109863281,-26.898000717163086 -50.97200012207031,-19.90999984741211"></path><path fill="rgb(255,209,64)" fill-opacity="1" d=" M-77.36699676513672,17.1299991607666 C-94.9280014038086,0.656000018119812 -135.63600158691406,-38.16899871826172 -135.63600158691406,-38.16899871826172 C-135.63600158691406,-38.16899871826172 -135.63600158691406,-38.16899871826172 -135.63600158691406,-38.16899871826172 C-153.78599548339844,-56.42900085449219 -174.93600463867188,-79.68699645996094 -178.9969940185547,-90.26499938964844 C-182.18299865722656,-98.56300354003906 -184.4969940185547,-107.03800201416016 -176.72900390625,-114.177001953125 C-168.1219940185547,-122.08699798583984 -154.75599670410156,-119.2020034790039 -145.16900634765625,-111.35299682617188 C-127.447998046875,-96.84500122070312 -110.1760025024414,-79.2040023803711 -110.1760025024414,-79.2040023803711 C-110.1760025024414,-79.2040023803711 -58.99800109863281,-26.898000717163086 -50.97200012207031,-19.90999984741211"></path><g opacity="1" transform="matrix(1,0,0,1,0,0)"></g></g><g style="display: block;" transform="matrix(1,0,0,1,137.26699829101562,205.7050018310547)" opacity="1"><g opacity="1" transform="matrix(1,0,0,1,0,0)"><path fill="rgb(255,223,121)" fill-opacity="1" d=" M-9.359000205993652,10.119999885559082 C-9.359000205993652,10.119999885559082 -9.057000160217285,1.0579999685287476 -1.6679999828338623,1.5950000286102295 C5.7210001945495605,2.131999969482422 18.01099967956543,11.791000366210938 18.01099967956543,11.791000366210938 C18.01099967956543,11.791000366210938 8.678999900817871,-5.611999988555908 -7.176000118255615,-10.89900016784668 C-23.0310001373291,-16.18600082397461 -19.4689998626709,3.4639999866485596 -9.359000205993652,10.119999885559082z"></path></g></g><g style="display: block;" transform="matrix(1,0,0,1,171.4250030517578,257.9049987792969)" opacity="1"><g opacity="1" transform="matrix(1,0,0,1,0,0)"><path fill="rgb(255,177,57)" fill-opacity="1" d=" M65.30799865722656,32.62900161743164 C65.30799865722656,32.62900161743164 65.30799865722656,40.29999923706055 32.16999816894531,6.045000076293945 C11.173999786376953,-15.659000396728516 -18.891000747680664,-42.91600036621094 -32.696998596191406,-55.606998443603516 C-43.89400100708008,-65.89900207519531 -53.948001861572266,-59.82699966430664 -46.749000549316406,-47.00600051879883 C-41.8380012512207,-38.25899887084961 -29.176000595092773,-25.3799991607666 -14.585000038146973,-9.27299976348877 C8.659000396728516,16.38599967956543 28.288999557495117,33.362998962402344 42.79600143432617,49.145999908447266 C54.91299819946289,62.33000183105469 47.59199905395508,70.41600036621094 42.79399871826172,70.41600036621094 C42.79399871826172,70.41600036621094 -23.079999923706055,7.078999996185303 -43.72100067138672,-15.305000305175781 C-59.85100173950195,-32.797000885009766 -67.6719970703125,-47.67499923706055 -64.68000030517578,-58.63600158691406 C-62.084999084472656,-68.14099884033203 -51.19300079345703,-75.86900329589844 -32.57099914550781,-65.40899658203125 C-16.871000289916992,-56.59000015258789 44.31999969482422,8.086999893188477 65.30799865722656,32.62900161743164z"></path></g></g><g style="display: block;" transform="matrix(1,0,0,1,288.0140075683594,306.6210021972656)" opacity="1"><g opacity="1" transform="matrix(1,0,0,1,0,0)"><path stroke-linecap="round" stroke-linejoin="round" fill-opacity="0" stroke="rgb(247,126,65)" stroke-opacity="1" stroke-width="8" d=" M-77.36699676513672,17.1299991607666 C-94.9280014038086,0.656000018119812 -135.63600158691406,-38.16899871826172 -135.63600158691406,-38.16899871826172 C-135.63600158691406,-38.16899871826172 -135.63600158691406,-38.16899871826172 -135.63600158691406,-38.16899871826172 C-153.78599548339844,-56.42900085449219 -174.93600463867188,-79.68699645996094 -178.9969940185547,-90.26499938964844 C-182.18299865722656,-98.56300354003906 -184.4969940185547,-107.03800201416016 -176.72900390625,-114.177001953125 C-168.1219940185547,-122.08699798583984 -154.75599670410156,-119.2020034790039 -145.16900634765625,-111.35299682617188 C-127.447998046875,-96.84500122070312 -110.1760025024414,-79.2040023803711 -110.1760025024414,-79.2040023803711 C-110.1760025024414,-79.2040023803711 -58.99800109863281,-26.898000717163086 -50.97200012207031,-19.90999984741211"></path></g></g><g style="display: block;" transform="matrix(1,0,0,1,288.0140075683594,306.6210021972656)" opacity="1"><path fill="rgb(255,209,64)" fill-opacity="1" d=" M-71.84700012207031,88.85299682617188 C-91.05000305175781,69.41899871826172 -113.88300323486328,46.22200012207031 -133.447998046875,25.249000549316406 C-144.947998046875,12.92199993133545 -155.3179931640625,1.3639999628067017 -163.15899658203125,-8.211000442504883 C-174.34300231933594,-21.868000030517578 -181.86500549316406,-38.290000915527344 -170.46600341796875,-47.404998779296875 C-155.64999389648438,-59.25199890136719 -135.63600158691406,-38.16899871826172 -135.63600158691406,-38.16899871826172 C-127.81099700927734,-32.97200012207031 -116.71299743652344,-22.469999313354492 -105.88500213623047,-11.654000282287598 C-95.12100219726562,-0.9020000100135803 -84.62300109863281,10.15999984741211 -77.86900329589844,16.631000518798828"></path><path fill="rgb(255,209,64)" fill-opacity="1" d=" M-71.84700012207031,88.85299682617188 C-91.05000305175781,69.41899871826172 -113.88300323486328,46.22200012207031 -133.447998046875,25.249000549316406 C-144.947998046875,12.92199993133545 -155.3179931640625,1.3639999628067017 -163.15899658203125,-8.211000442504883 C-174.34300231933594,-21.868000030517578 -181.86500549316406,-38.290000915527344 -170.46600341796875,-47.404998779296875 C-155.64999389648438,-59.25199890136719 -135.63600158691406,-38.16899871826172 -135.63600158691406,-38.16899871826172 C-127.81099700927734,-32.97200012207031 -116.71299743652344,-22.469999313354492 -105.88500213623047,-11.654000282287598 C-95.12100219726562,-0.9020000100135803 -84.62300109863281,10.15999984741211 -77.86900329589844,16.631000518798828"></path><g opacity="1" transform="matrix(1,0,0,1,0,0)"></g></g><g style="display: block;" transform="matrix(1,0,0,1,290.82000732421875,349.1369934082031)" opacity="1"><g opacity="1" transform="matrix(1,0,0,1,0,0)"><path fill="rgb(255,177,57)" fill-opacity="1" d=" M159.15899658203125,96.59300231933594 C159.15899658203125,96.59300231933594 159.15899658203125,96.61399841308594 159.15899658203125,96.61399841308594 C155.25999450683594,102.28399658203125 150.69500732421875,108.10700225830078 145.33200073242188,113.98200225830078 C117.0530014038086,144.98300170898438 95.74099731445312,143.98199462890625 82.48699951171875,143.58299255371094 C77.98400115966797,143.44000244140625 73.7979965209961,141.25999450683594 71.05500030517578,137.68800354003906 C71.05500030517578,137.68800354003906 33.31399917602539,95.2979965209961 33.31399917602539,95.2979965209961 C31.716999053955078,93.22100067138672 23.610000610351562,91.72100067138672 21,91.45500183105469 C7.327000141143799,90.11399841308594 -37.941001892089844,83.49299621582031 -74.65299987792969,46.340999603271484 C-105.14199829101562,15.484000205993652 -143.77200317382812,-21.871999740600586 -167.96600341796875,-50.7239990234375 C-170.83200073242188,-54.143001556396484 -178.96200561523438,-65.42900085449219 -179.5469970703125,-77.29000091552734 C-180.05999755859375,-87.69499969482422 -170.72900390625,-94.20800018310547 -161.94700622558594,-93.68199920654297 C-145.1959991455078,-92.67900085449219 -107.10199737548828,-50.25699996948242 -77.01699829101562,-22.06800079345703 C-77.01699829101562,-22.06800079345703 -79.3489990234375,-16.89299964904785 -86.86199951171875,-22.7450008392334 C-103.1510009765625,-35.430999755859375 -128.10400390625,-59.9630012512207 -142.16799926757812,-72.81600189208984 C-154.67799377441406,-84.2490005493164 -161.25799560546875,-81.3740005493164 -157.77099609375,-72.3499984741211 C-155.04800415039062,-65.30400085449219 -140.2790069580078,-48.959999084472656 -131.42100524902344,-39.93899917602539 C-71.25499725341797,21.332000732421875 -37.28900146484375,62.35499954223633 32.19200134277344,62.31100082397461 C74.3270034790039,62.284000396728516 109.58200073242188,34.91899871826172 118.66100311279297,-1.4110000133514404 C125.61100006103516,-29.222000122070312 124.22200012207031,-76.00299835205078 114.16200256347656,-95.8270034790039 C107.80400085449219,-108.35600280761719 97.36599731445312,-121.72000122070312 85.59100341796875,-143.69700622558594 C85.59100341796875,-143.69700622558594 115.80400085449219,-106.00499725341797 124.55400085449219,-89.10600280761719 C124.55400085449219,-89.10600280761719 135.88900756835938,-54.42100143432617 133.8000030517578,-1.4160000085830688 C133.53900146484375,5.206999778747559 155.88299560546875,24 177.70700073242188,41.47600173950195 C183.29600524902344,45.95100021362305 176.05499267578125,71.20600128173828 159.15899658203125,96.59300231933594z"></path></g></g><g style="display: block;" transform="matrix(1,0,0,1,421.3630065917969,416.9830017089844)" opacity="1"><g opacity="1" transform="matrix(1,0,0,1,0,0)"><path fill="rgb(255,209,64)" fill-opacity="1" d=" M-32.96699905395508,12.369000434875488 C-28.36400032043457,26.63599967956543 -10.26099967956543,51.176998138427734 9.055000305175781,35.220001220703125 C29.562999725341797,18.27899932861328 39.106998443603516,-10.019000053405762 30.256000518798828,-23.111000061035156 C23.03700065612793,-33.78900146484375 7.298999786376953,-43.87699890136719 5.197000026702881,-39.28099822998047 C-15.168999671936035,5.260000228881836 -37.51300048828125,-1.718999981880188 -32.96699905395508,12.369000434875488z"></path></g></g><g style="display: block;" transform="matrix(1,0,0,1,353.7619934082031,220.78599548339844)" opacity="1"><g opacity="1" transform="matrix(1,0,0,1,0,0)"><path fill="rgb(255,177,57)" fill-opacity="1" d=" M-19.652000427246094,-58.92599868774414 C-19.652000427246094,-58.92599868774414 -25.28700065612793,-41.36899948120117 -14.812999725341797,-17.042999267578125 C-4.349999904632568,7.25600004196167 6.038000106811523,22.041000366210938 21.457000732421875,36.40700149536133 C36.875999450683594,50.77299880981445 36.21699905395508,54.448001861572266 33.779998779296875,57.154998779296875 C31.343000411987305,59.86199951171875 13.430000305175781,49.38800048828125 -0.47600001096725464,37.99599838256836 C-14.381999969482422,26.604000091552734 -23.591999053955078,2.9210000038146973 -28.006000518798828,-23.195999145507812 C-32.41999816894531,-49.3129997253418 -19.652000427246094,-58.92599868774414 -19.652000427246094,-58.92599868774414z"></path></g></g><g style="display: block;" transform="matrix(1,0,0,1,288.0140075683594,306.6210021972656)" opacity="1"><g opacity="1" transform="matrix(1,0,0,1,0,0)"><path stroke-linecap="round" stroke-linejoin="round" fill-opacity="0" stroke="rgb(247,126,65)" stroke-opacity="1" stroke-width="8" d=" M65.25800323486328,-47.90599822998047 C65.25800323486328,-47.90599822998047 48.40700149536133,-67.84600067138672 40.071998596191406,-90.56600189208984 C37.05099868774414,-98.80000305175781 35.150001525878906,-107.4000015258789 35.57400131225586,-115.5479965209961 C36.749000549316406,-138.125 47.57899856567383,-147.0019989013672 53.84400177001953,-149.91799926757812 C62.0629997253418,-153.74400329589844 68.98799896240234,-150.96499633789062 76.99299621582031,-126.31099700927734 C88.84100341796875,-89.822998046875 107.92500305175781,-74.15299987792969 120.13899993896484,-56.433998107910156 C127.28399658203125,-46.06800079345703 132.572998046875,-33.608001708984375 134.22500610351562,-13.619999885559082 C135.19400024414062,-1.8960000276565552 135.21499633789062,3.1080000400543213 135.5709991455078,21.059999465942383 C135.8350067138672,34.382999420166016 137.5590057373047,46.16400146484375 144.11700439453125,50.98099899291992 C144.11700439453125,50.98099899291992 175.1929931640625,77.86900329589844 175.1929931640625,77.86900329589844 C179.96200561523438,81.01100158691406 182.56199645996094,86.58899688720703 181.8560028076172,92.25900268554688 C180.06500244140625,106.53600311279297 176.6649932861328,128.49000549316406 148.13800048828125,156.49400329589844 C124.42500305175781,179.7729949951172 98.5469970703125,186.49400329589844 85.29299926757812,186.09500122070312 C80.79000091552734,185.95199584960938 76.60399627685547,183.77200317382812 73.86100006103516,180.1999969482422 C73.86100006103516,180.1999969482422 36.119998931884766,137.80999755859375 36.119998931884766,137.80999755859375 C34.52299880981445,135.73199462890625 26.41699981689453,134.23300170898438 23.80699920654297,133.9669952392578 C10.133999824523926,132.62600708007812 -35.13800048828125,126.00399780273438 -71.84700012207031,88.85299682617188"></path></g></g><g style="display: block;" transform="matrix(1,0,0,1,288.0140075683594,306.6210021972656)" opacity="1"><g opacity="1" transform="matrix(1,0,0,1,0,0)"><path stroke-linecap="round" stroke-linejoin="round" fill-opacity="0" stroke="rgb(247,126,65)" stroke-opacity="1" stroke-width="8" d=" M-71.84700012207031,88.85299682617188 C-91.05000305175781,69.41899871826172 -113.88300323486328,46.22200012207031 -133.447998046875,25.249000549316406 C-144.947998046875,12.92199993133545 -155.3179931640625,1.3639999628067017 -163.15899658203125,-8.211000442504883 C-174.34300231933594,-21.868000030517578 -181.86500549316406,-38.290000915527344 -170.46600341796875,-47.404998779296875 C-155.64999389648438,-59.25199890136719 -135.63600158691406,-38.16899871826172 -135.63600158691406,-38.16899871826172 C-127.81099700927734,-32.97200012207031 -116.71299743652344,-22.469999313354492 -105.88500213623047,-11.654000282287598 C-95.12100219726562,-0.9020000100135803 -84.62300109863281,10.15999984741211 -77.86900329589844,16.631000518798828"></path></g></g><g style="display: block;" transform="matrix(1,0,0,1,424.0010070800781,354.1669921875)" opacity="1"><g opacity="1" transform="matrix(1,0,0,1,0,0)"><path stroke-linecap="round" stroke-linejoin="round" fill-opacity="0" stroke="rgb(247,126,65)" stroke-opacity="1" stroke-width="8" d=" M0.382999986410141,-14.458000183105469 C0.382999986410141,-14.458000183105469 1.371999979019165,2.5859999656677246 -0.6269999742507935,14.458000183105469"></path></g></g><g style="display: block;" transform="matrix(1,0,0,1,322.01202392578125,440.9519958496094)" opacity="1"><g opacity="1" transform="matrix(1,0,0,1,0,0)"><path stroke-linecap="round" stroke-linejoin="round" fill-opacity="0" stroke="rgb(247,126,65)" stroke-opacity="1" stroke-width="8" d=" M-10.190999984741211,-0.3630000054836273 C-10.190999984741211,-0.3630000054836273 2.3320000171661377,1.2699999809265137 10.190999984741211,-0.3630000054836273"></path></g></g><g style="display: block;" transform="matrix(1,0,0,1,435.6940002441406,99.9169921875)" opacity="1"><g opacity="1" transform="matrix(1,0,0,1,0,0)"><path fill="rgb(169,169,169)" fill-opacity="1" d=" M-24.815000534057617,31.231000900268555 C-24.815000534057617,31.231000900268555 26.85700035095215,-2.2039999961853027 26.85700035095215,-2.2039999961853027 C27.929000854492188,-2.8970000743865967 28.009000778198242,-4.435999870300293 27.016000747680664,-5.236999988555908 C27.016000747680664,-5.236999988555908 -5.066999912261963,-31.12299919128418 -5.066999912261963,-31.12299919128418 C-6.085999965667725,-31.94499969482422 -7.61299991607666,-31.496000289916992 -8.02400016784668,-30.25200080871582 C-8.02400016784668,-30.25200080871582 -27.613000869750977,29.069000244140625 -27.613000869750977,29.069000244140625 C-28.167999267578125,30.749000549316406 -26.301000595092773,32.19200134277344 -24.815000534057617,31.231000900268555z"></path><path stroke-linecap="round" stroke-linejoin="round" fill-opacity="0" stroke="rgb(99,99,98)" stroke-opacity="1" stroke-width="8" d=" M-24.815000534057617,31.231000900268555 C-24.815000534057617,31.231000900268555 26.85700035095215,-2.2039999961853027 26.85700035095215,-2.2039999961853027 C27.929000854492188,-2.8970000743865967 28.009000778198242,-4.435999870300293 27.016000747680664,-5.236999988555908 C27.016000747680664,-5.236999988555908 -5.066999912261963,-31.12299919128418 -5.066999912261963,-31.12299919128418 C-6.085999965667725,-31.94499969482422 -7.61299991607666,-31.496000289916992 -8.02400016784668,-30.25200080871582 C-8.02400016784668,-30.25200080871582 -27.613000869750977,29.069000244140625 -27.613000869750977,29.069000244140625 C-28.167999267578125,30.749000549316406 -26.301000595092773,32.19200134277344 -24.815000534057617,31.231000900268555z"></path></g></g><g style="display: block;" transform="matrix(1,0,0,1,446.708984375,163.74899291992188)" opacity="1"><g opacity="1" transform="matrix(1,0,0,1,0,0)"><path fill="rgb(169,169,169)" fill-opacity="1" d=" M-20.256000518798828,2.888000011444092 C-20.256000518798828,2.888000011444092 19.094999313354492,15.710000038146973 19.094999313354492,15.710000038146973 C20.305999755859375,16.104999542236328 21.549999237060547,15.20199966430664 21.549999237060547,13.928000450134277 C21.549999237060547,13.928000450134277 21.549999237060547,-13.928000450134277 21.549999237060547,-13.928000450134277 C21.549999237060547,-15.241999626159668 20.233999252319336,-16.148000717163086 19.006999969482422,-15.678999900817871 C19.006999969482422,-15.678999900817871 -20.344999313354492,-0.6460000276565552 -20.344999313354492,-0.6460000276565552 C-21.996000289916992,-0.014999999664723873 -21.93600082397461,2.3399999141693115 -20.256000518798828,2.888000011444092z"></path><path stroke-linecap="round" stroke-linejoin="round" fill-opacity="0" stroke="rgb(99,99,98)" stroke-opacity="1" stroke-width="8" d=" M-20.256000518798828,2.888000011444092 C-20.256000518798828,2.888000011444092 19.094999313354492,15.710000038146973 19.094999313354492,15.710000038146973 C20.305999755859375,16.104999542236328 21.549999237060547,15.20199966430664 21.549999237060547,13.928000450134277 C21.549999237060547,13.928000450134277 21.549999237060547,-13.928000450134277 21.549999237060547,-13.928000450134277 C21.549999237060547,-15.241999626159668 20.233999252319336,-16.148000717163086 19.006999969482422,-15.678999900817871 C19.006999969482422,-15.678999900817871 -20.344999313354492,-0.6460000276565552 -20.344999313354492,-0.6460000276565552 C-21.996000289916992,-0.014999999664723873 -21.93600082397461,2.3399999141693115 -20.256000518798828,2.888000011444092z"></path></g></g><g style="display: block;" transform="matrix(1,0,0,1,361.46600341796875,95.08200073242188)" opacity="1"><g opacity="1" transform="matrix(1,0,0,1,0,0)"><path fill="rgb(169,169,169)" fill-opacity="1" d=" M10.024999618530273,21.791000366210938 C10.024999618530273,21.791000366210938 14.878999710083008,-21.371999740600586 14.878999710083008,-21.371999740600586 C15.031999588012695,-22.73699951171875 13.71500015258789,-23.79800033569336 12.413999557495117,-23.35700035095215 C12.413999557495117,-23.35700035095215 -13.616999626159668,-14.532999992370605 -13.616999626159668,-14.532999992370605 C-14.758000373840332,-14.145999908447266 -15.243000030517578,-12.798999786376953 -14.611000061035156,-11.77400016784668 C-14.611000061035156,-11.77400016784668 6.566999912261963,22.56599998474121 6.566999912261963,22.56599998474121 C7.501999855041504,24.082000732421875 9.826000213623047,23.56100082397461 10.024999618530273,21.791000366210938z"></path><path stroke-linecap="round" stroke-linejoin="round" fill-opacity="0" stroke="rgb(99,99,98)" stroke-opacity="1" stroke-width="8" d=" M10.024999618530273,21.791000366210938 C10.024999618530273,21.791000366210938 14.878999710083008,-21.371999740600586 14.878999710083008,-21.371999740600586 C15.031999588012695,-22.73699951171875 13.71500015258789,-23.79800033569336 12.413999557495117,-23.35700035095215 C12.413999557495117,-23.35700035095215 -13.616999626159668,-14.532999992370605 -13.616999626159668,-14.532999992370605 C-14.758000373840332,-14.145999908447266 -15.243000030517578,-12.798999786376953 -14.611000061035156,-11.77400016784668 C-14.611000061035156,-11.77400016784668 6.566999912261963,22.56599998474121 6.566999912261963,22.56599998474121 C7.501999855041504,24.082000732421875 9.826000213623047,23.56100082397461 10.024999618530273,21.791000366210938z"></path></g></g><g style="display: block;" transform="matrix(1,0,0,1,172.0699920654297,48.27499771118164)" opacity="1"><g opacity="1" transform="matrix(1,0,0,1,0,0)"><path fill="rgb(169,169,169)" fill-opacity="1" d=" M-12.862000465393066,22.174999237060547 C-12.862000465393066,22.174999237060547 15.67300033569336,-10.185999870300293 15.67300033569336,-10.185999870300293 C16.56100082397461,-11.192999839782715 16.132999420166016,-12.779999732971191 14.859000205993652,-13.204000473022461 C14.859000205993652,-13.204000473022461 -13.675000190734863,-22.71500015258789 -13.675000190734863,-22.71500015258789 C-14.888999938964844,-23.1200008392334 -16.142000198364258,-22.215999603271484 -16.142000198364258,-20.937000274658203 C-16.142000198364258,-20.937000274658203 -16.142000198364258,20.934999465942383 -16.142000198364258,20.934999465942383 C-16.142000198364258,22.66200065612793 -14.003999710083008,23.47100067138672 -12.862000465393066,22.174999237060547z"></path><path stroke-linecap="round" stroke-linejoin="round" fill-opacity="0" stroke="rgb(99,99,98)" stroke-opacity="1" stroke-width="8" d=" M-12.862000465393066,22.174999237060547 C-12.862000465393066,22.174999237060547 15.67300033569336,-10.185999870300293 15.67300033569336,-10.185999870300293 C16.56100082397461,-11.192999839782715 16.132999420166016,-12.779999732971191 14.859000205993652,-13.204000473022461 C14.859000205993652,-13.204000473022461 -13.675000190734863,-22.71500015258789 -13.675000190734863,-22.71500015258789 C-14.888999938964844,-23.1200008392334 -16.142000198364258,-22.215999603271484 -16.142000198364258,-20.937000274658203 C-16.142000198364258,-20.937000274658203 -16.142000198364258,20.934999465942383 -16.142000198364258,20.934999465942383 C-16.142000198364258,22.66200065612793 -14.003999710083008,23.47100067138672 -12.862000465393066,22.174999237060547z"></path></g></g><g style="display: block;" transform="matrix(1,0,0,1,98.25900268554688,47.28300476074219)" opacity="1"><g opacity="1" transform="matrix(1,0,0,1,0,0)"><path fill="rgb(169,169,169)" fill-opacity="1" d=" M26.711000442504883,28.56800079345703 C26.711000442504883,28.56800079345703 9.244999885559082,-29.650999069213867 9.244999885559082,-29.650999069213867 C8.866000175476074,-30.916000366210938 7.331999778747559,-31.402999877929688 6.293000221252441,-30.58799934387207 C6.293000221252441,-30.58799934387207 -26.07699966430664,-5.203999996185303 -26.07699966430664,-5.203999996185303 C-27.084999084472656,-4.414000034332275 -27.020000457763672,-2.868000030517578 -25.951000213623047,-2.1640000343322754 C-25.951000213623047,-2.1640000343322754 23.884000778198242,30.672000885009766 23.884000778198242,30.672000885009766 C25.34600067138672,31.63599967956543 27.214000701904297,30.246000289916992 26.711000442504883,28.56800079345703z"></path><path stroke-linecap="round" stroke-linejoin="round" fill-opacity="0" stroke="rgb(99,99,98)" stroke-opacity="1" stroke-width="8" d=" M26.711000442504883,28.56800079345703 C26.711000442504883,28.56800079345703 9.244999885559082,-29.650999069213867 9.244999885559082,-29.650999069213867 C8.866000175476074,-30.916000366210938 7.331999778747559,-31.402999877929688 6.293000221252441,-30.58799934387207 C6.293000221252441,-30.58799934387207 -26.07699966430664,-5.203999996185303 -26.07699966430664,-5.203999996185303 C-27.084999084472656,-4.414000034332275 -27.020000457763672,-2.868000030517578 -25.951000213623047,-2.1640000343322754 C-25.951000213623047,-2.1640000343322754 23.884000778198242,30.672000885009766 23.884000778198242,30.672000885009766 C25.34600067138672,31.63599967956543 27.214000701904297,30.246000289916992 26.711000442504883,28.56800079345703z"></path></g></g><g style="display: block;" transform="matrix(1,0,0,1,65.48699951171875,84.30899810791016)" opacity="1"><g opacity="1" transform="matrix(1,0,0,1,0,0)"><path fill="rgb(169,169,169)" fill-opacity="1" d=" M20.875999450683594,15.607000350952148 C20.875999450683594,15.607000350952148 -20.878000259399414,15.607000350952148 -20.878000259399414,15.607000350952148 C-22.167999267578125,15.607000350952148 -23.072999954223633,14.335000038146973 -22.64900016784668,13.116999626159668 C-22.64900016784668,13.116999626159668 -13.098999977111816,-14.347999572753906 -13.098999977111816,-14.347999572753906 C-12.666000366210938,-15.593999862670898 -11.116000175476074,-16.013999938964844 -10.112000465393066,-15.157999992370605 C-10.112000465393066,-15.157999992370605 22.091999053955078,12.307000160217285 22.091999053955078,12.307000160217285 C23.417999267578125,13.437999725341797 22.618999481201172,15.607000350952148 20.875999450683594,15.607000350952148z"></path><path stroke-linecap="round" stroke-linejoin="round" fill-opacity="0" stroke="rgb(99,99,98)" stroke-opacity="1" stroke-width="8" d=" M20.875999450683594,15.607000350952148 C20.875999450683594,15.607000350952148 -20.878000259399414,15.607000350952148 -20.878000259399414,15.607000350952148 C-22.167999267578125,15.607000350952148 -23.072999954223633,14.335000038146973 -22.64900016784668,13.116999626159668 C-22.64900016784668,13.116999626159668 -13.098999977111816,-14.347999572753906 -13.098999977111816,-14.347999572753906 C-12.666000366210938,-15.593999862670898 -11.116000175476074,-16.013999938964844 -10.112000465393066,-15.157999992370605 C-10.112000465393066,-15.157999992370605 22.091999053955078,12.307000160217285 22.091999053955078,12.307000160217285 C23.417999267578125,13.437999725341797 22.618999481201172,15.607000350952148 20.875999450683594,15.607000350952148z"></path></g></g></g></svg>