<svg xmlns="http://www.w3.org/2000/svg" viewBox="0 0 512 512" width="512" height="512" style="width: 100%; height: 100%; transform: translate3d(0,0,0);" preserveAspectRatio="xMidYMid meet"><defs><clipPath id="__lottie_element_19666"><rect width="512" height="512" x="0" y="0"></rect></clipPath></defs><g clip-path="url(#__lottie_element_19666)"><g style="display: block;" transform="matrix(0.7498850226402283,0.013089289888739586,-0.013089289888739586,0.7498850226402283,245.817626953125,306.9114685058594)" opacity="1"><g opacity="1" transform="matrix(1,0,0,1,0,0)"><path fill="rgb(255,177,57)" fill-opacity="1" d=" M51.35499954223633,-17.702999114990234 C43.012001037597656,-33.86000061035156 13.494999885559082,-16.273000717163086 13.494999885559082,-16.273000717163086 C-0.49399998784065247,-10.795000076293945 -12.145000457763672,7.1519999504089355 -13.494999885559082,16.273000717163086 C-13.494999885559082,16.273000717163086 -2.7109999656677246,24.97599983215332 9.916000366210938,24.200000762939453 C22.542999267578125,23.423999786376953 55.71500015258789,-9.258999824523926 51.35499954223633,-17.702999114990234z"></path></g><g opacity="1" transform="matrix(1,0,0,1,0,0)"><path stroke-linecap="round" stroke-linejoin="round" fill-opacity="0" stroke="rgb(247,126,65)" stroke-opacity="1" stroke-width="10" d=" M-13.494999885559082,16.273000717163086 C-12.145000457763672,7.1519999504089355 -0.49399998784065247,-10.795000076293945 13.494999885559082,-16.273000717163086"></path></g></g><g style="display: block;" transform="matrix(0.75,0,0,0.75,113.87750244140625,427.41876220703125)" opacity="1"><g opacity="1" transform="matrix(1,0,0,1,0,0)"><path fill="rgb(255,209,64)" fill-opacity="1" d=" M59.38800048828125,-66.54299926757812 C41.41600036621094,-66.9530029296875 -20.570999145507812,-66.2760009765625 -41.0989990234375,-66.38700103759766 C-59.82899856567383,-66.48699951171875 -78.45800018310547,-66.4229965209961 -94.85700225830078,-66.11900329589844 C-116.85600280761719,-65.71199798583984 -118.10399627685547,-31.363000869750977 -118.10700225830078,-4.026000022888184 C-118.11100006103516,25.0939998626709 -115.90599822998047,54.176998138427734 -104.66899871826172,63.81800079345703 C-97.76899719238281,69.73799896240234 5.605999946594238,63.89099884033203 44.26900100708008,62.88100051879883 C69.59600067138672,62.21900177001953 92.61699676513672,57.92599868774414 112.51599884033203,52.854000091552734 C142.1699981689453,43.0989990234375 86.86599731445312,-74.93099975585938 59.38800048828125,-66.54299926757812z"></path></g></g><g style="display: block;" transform="matrix(0.75,0,0,0.75,78.76625061035156,393.9770202636719)" opacity="1"><g opacity="1" transform="matrix(1,0,0,1,0,0)"><path fill="rgb(255,223,121)" fill-opacity="1" d=" M74.44200134277344,-21.246000289916992 C93.70700073242188,-18.589000701904297 89.56400299072266,18.319000244140625 83.56999969482422,18.8439998626709 C46.638999938964844,19.152000427246094 62.58599853515625,-4.043000221252441 29.069000244140625,-5.367000102996826 C6.873000144958496,-6.24399995803833 -19.68199920654297,-4.644999980926514 -34.15999984741211,-5.171999931335449 C-59.222999572753906,-6.084000110626221 -57.42599868774414,3.6040000915527344 -66.60299682617188,22.802000045776367 C-67.02999877929688,-5.085999965667725 -59.229000091552734,-20.982999801635742 -51.013999938964844,-21.572999954223633 C-28.618999481201172,-23.179000854492188 57.777000427246094,-22.19499969482422 74.44200134277344,-21.246000289916992z"></path></g></g><g style="display: block;" transform="matrix(0.7499260902404785,-0.010471624322235584,0.010471624322235584,0.7499260902404785,233.5342559814453,255.38247680664062)" opacity="1"><g opacity="1" transform="matrix(1,0,0,1,0,0)"><path fill="rgb(255,177,57)" fill-opacity="1" d=" M77.81600189208984,73.80899810791016 C76.11499786376953,39.479000091552734 64.31999969482422,6.8379998207092285 55.691001892089844,-6.961999893188477 C47.77799987792969,-19.617000579833984 31.155000686645508,-44.95800018310547 17.152000427246094,-57.388999938964844 C6.664000034332275,-66.69999694824219 -17.878000259399414,-79.8219985961914 -32.58599853515625,-86.68800354003906 C-48.507999420166016,-94.12000274658203 -71.0009994506836,-75.28600311279297 -54.97200012207031,-52.755001068115234 C-46.367000579833984,-40.659000396728516 -32.43199920654297,-32.242000579833984 -14.732999801635742,-28.448999404907227 C-9.24899959564209,-10.609999656677246 2.8429999351501465,11.946999549865723 16.70199966430664,22.6560001373291 C13.954999923706055,34.441001892089844 15.744000434875488,49.060001373291016 20.503000259399414,58.69300079345703"></path></g><g opacity="0" transform="matrix(1,0,0,1,0,0)"><path fill="rgb(255,209,64)" fill-opacity="1" d=" M-53.172000885009766,-81.43299865722656 C-75.26399993896484,-56.99599838256836 -27.81100082397461,-33.74700164794922 -13.135000228881836,-28.812000274658203 C-7.644000053405762,-0.5709999799728394 16.49799919128418,21.298999786376953 17.34600067138672,17.934999465942383 C19.42099952697754,9.706999778747559 20.770999908447266,2.2639999389648438 16.43400001525879,-2.7300000190734863 C10.199999809265137,-9.909000396728516 6.019000053405762,-25.687999725341797 -8.64799976348877,-37.89500045776367 C-54.67599868774414,-49.13199996948242 -46.387001037597656,-88.93900299072266 -53.172000885009766,-81.43299865722656z"></path></g><g opacity="1" transform="matrix(1,0,0,1,0,0)"><path stroke-linecap="round" stroke-linejoin="round" fill-opacity="0" stroke="rgb(247,126,65)" stroke-opacity="1" stroke-width="10" d=" M77.81600189208984,73.80899810791016 C76.11499786376953,39.479000091552734 64.31999969482422,6.8379998207092285 55.691001892089844,-6.961999893188477 C47.77799987792969,-19.617000579833984 31.155000686645508,-44.95800018310547 17.152000427246094,-57.388999938964844 C6.664000034332275,-66.69999694824219 -17.878000259399414,-79.8219985961914 -32.58599853515625,-86.68800354003906 C-48.507999420166016,-94.12000274658203 -71.0009994506836,-75.28600311279297 -54.97200012207031,-52.755001068115234 C-46.367000579833984,-40.659000396728516 -32.43199920654297,-32.242000579833984 -14.732999801635742,-28.448999404907227 C-9.24899959564209,-10.609999656677246 2.8429999351501465,11.946999549865723 16.70199966430664,22.6560001373291 C13.954999923706055,34.441001892089844 15.744000434875488,49.060001373291016 20.503000259399414,58.69300079345703"></path></g></g><g style="display: block;" transform="matrix(0.7499260902404785,-0.010471624322235584,0.010471624322235584,0.7499260902404785,246.52792358398438,252.2772674560547)" opacity="1"><g opacity="1" transform="matrix(1,0,0,1,0,0)"><path fill="rgb(255,177,57)" fill-opacity="1" d=" M61.5880012512207,51.082000732421875 C62.80500030517578,31.038000106811523 64.31999969482422,6.8379998207092285 55.691001892089844,-6.961999893188477 C47.77799987792969,-19.617000579833984 31.155000686645508,-44.95800018310547 17.152000427246094,-57.388999938964844 C6.664000034332275,-66.69999694824219 -17.878000259399414,-79.8219985961914 -32.58599853515625,-86.68800354003906 C-48.507999420166016,-94.12000274658203 -71.0009994506836,-75.28600311279297 -54.97200012207031,-52.755001068115234 C-46.367000579833984,-40.659000396728516 -32.43199920654297,-32.242000579833984 -14.732999801635742,-28.448999404907227 C-9.24899959564209,-10.609999656677246 -2.318000078201294,9.625 15.54699993133545,17.690000534057617 C11.121999740600586,27.670000076293945 11.180000305175781,46.88999938964844 15.28600025177002,62.52399826049805"></path><path stroke-linecap="round" stroke-linejoin="round" fill-opacity="0" stroke="rgb(247,126,65)" stroke-opacity="1" stroke-width="10" d=" M61.5880012512207,51.082000732421875 C62.80500030517578,31.038000106811523 64.31999969482422,6.8379998207092285 55.691001892089844,-6.961999893188477 C47.77799987792969,-19.617000579833984 31.155000686645508,-44.95800018310547 17.152000427246094,-57.388999938964844 C6.664000034332275,-66.69999694824219 -17.878000259399414,-79.8219985961914 -32.58599853515625,-86.68800354003906 C-48.507999420166016,-94.12000274658203 -71.0009994506836,-75.28600311279297 -54.97200012207031,-52.755001068115234 C-46.367000579833984,-40.659000396728516 -32.43199920654297,-32.242000579833984 -14.732999801635742,-28.448999404907227 C-9.24899959564209,-10.609999656677246 -2.318000078201294,9.625 15.54699993133545,17.690000534057617 C11.121999740600586,27.670000076293945 11.180000305175781,46.88999938964844 15.28600025177002,62.52399826049805"></path></g></g><g style="display: block;" transform="matrix(0.7498850226402283,0.013089289888739586,-0.013089289888739586,0.7498850226402283,261.6544189453125,237.65762329101562)" opacity="1"><g opacity="1" transform="matrix(1,0,0,1,0,0)"><path fill="rgb(255,177,57)" fill-opacity="1" d=" M19.030000686645508,82.47200012207031 C10.861000061035156,61.87200164794922 11.925999641418457,48.72999954223633 15.123000144958496,31.325000762939453 C-2.635999917984009,24.222000122070312 -16.134000778198242,0.0689999982714653 -23.947999954223633,-19.111000061035156 C-68.34600067138672,-27.990999221801758 -80.7699966430664,-40.05799865722656 -85.552001953125,-48.70800018310547 C-97.9280014038086,-71.09600067138672 -77.83699798583984,-91.23500061035156 -57.941001892089844,-83.70600128173828 C-34.06800079345703,-74.6709976196289 -9.739999771118164,-67.77300262451172 8.019000053405762,-58.893001556396484 C21.381000518798828,-52.21200180053711 48.11000061035156,-20.219999313354492 59.87699890136719,-9.166000366210938 C71.5979995727539,1.8450000286102295 86.87100219726562,30.969999313354492 89.35700225830078,85.31400299072266"></path></g><g opacity="1" transform="matrix(1,0,0,1,0,0)"><path fill="rgb(255,209,64)" fill-opacity="1" d=" M-84,-74.35399627685547 C-97.60700225830078,-52.77399826049805 -49.71200180053711,-73.0469970703125 -37.56999969482422,-72.28500366210938 C-31.329999923706055,-66.73200225830078 10.423999786376953,13.616000175476074 19.538000106811523,23.707000732421875 C20.780000686645508,28.39900016784668 22.09600067138672,58.77799987792969 34.68000030517578,55.145999908447266 C41.63199996948242,53.138999938964844 44.992000579833984,31.150999069213867 36.452999114990234,11.60099983215332 C7.103000164031982,-24.652999877929688 -7.38100004196167,-64.18800354003906 -16.913000106811523,-63.65999984741211 C-34.39699935913086,-68.7509994506836 -68.5989990234375,-98.77899932861328 -84,-74.35399627685547z"></path></g><g opacity="1" transform="matrix(1,0,0,1,0,0)"><path stroke-linecap="round" stroke-linejoin="round" fill-opacity="0" stroke="rgb(247,126,65)" stroke-opacity="1" stroke-width="10" d=" M19.030000686645508,82.47200012207031 C10.861000061035156,61.87200164794922 11.925999641418457,48.72999954223633 15.123000144958496,31.325000762939453 C-2.635999917984009,24.222000122070312 -16.134000778198242,0.0689999982714653 -23.947999954223633,-19.111000061035156 C-68.34600067138672,-27.990999221801758 -80.7699966430664,-40.05799865722656 -85.552001953125,-48.70800018310547 C-97.9280014038086,-71.09600067138672 -77.83699798583984,-91.23500061035156 -57.941001892089844,-83.70600128173828 C-34.06800079345703,-74.6709976196289 -9.739999771118164,-67.77300262451172 8.019000053405762,-58.893001556396484 C21.381000518798828,-52.21200180053711 48.11000061035156,-20.219999313354492 59.87699890136719,-9.166000366210938 C71.5979995727539,1.8450000286102295 86.87100219726562,30.969999313354492 89.35700225830078,85.31400299072266"></path></g></g><g style="display: block;" transform="matrix(0.7498850226402283,0.013089289888739586,-0.013089289888739586,0.7498850226402283,240.11383056640625,384.73443603515625)" opacity="1"><g opacity="1" transform="matrix(1,0,0,1,0,0)"><path fill="rgb(255,209,64)" fill-opacity="1" d=" M42.40399932861328,-110.5479965209961 C33.76599884033203,-106.58799743652344 10.548999786376953,-94.70700073242188 -0.1589999943971634,-82.9530029296875 C-34.5620002746582,-53.071998596191406 -218.55499267578125,4.431000232696533 -58.15299987792969,112.87200164794922 C4.416999816894531,95.0270004272461 52.66299819946289,42.909000396728516 76.94400024414062,10.784000396728516 C96.28199768066406,-14.800999641418457 119.97100067138672,-40.98099899291992 118.25,-69.44400024414062 C118.50399780273438,-86.197998046875 73.27200317382812,-108.01000213623047 42.40399932861328,-110.5479965209961z"></path></g></g><g style="display: block;" transform="matrix(0.7498850226402283,0.013089289888739586,-0.013089289888739586,0.7498850226402283,272.27569580078125,253.74920654296875)" opacity="1"><g opacity="1" transform="matrix(1,0,0,1,0,0)"><path fill="rgb(255,209,64)" fill-opacity="1" d=" M-42.869998931884766,-110.11799621582031 C-58.369998931884766,-114.37999725341797 -73.8270034790039,-107.94100189208984 -78.19000244140625,-90.85900115966797 C-82.4489974975586,-74.18099975585938 -70.14900207519531,-60.042999267578125 -32.82500076293945,-32.54100036621094 C-29.36199951171875,-6.304999828338623 -15.295000076293945,7.98799991607666 -0.43299999833106995,19.312999725341797 C-4.53000020980835,29.121000289916992 -4.630000114440918,51.30099868774414 2.322999954223633,65.7030029296875 C2.322999954223633,65.7030029296875 77.60800170898438,111.39199829101562 77.60800170898438,111.39199829101562 C77.20099639892578,98.78199768066406 77.74400329589844,74.50599670410156 76.12699890136719,50.242000579833984 C73.39199829101562,9.225000381469727 69.31300354003906,-10.326000213623047 51.117000579833984,-30.099000930786133 C35.84000015258789,-46.70000076293945 21.7549991607666,-61.62900161743164 2.9560000896453857,-77.8489990234375 C-18.315000534057617,-96.2020034790039 -29.426000595092773,-106.4209976196289 -42.869998931884766,-110.11799621582031z"></path></g></g><g style="display: block;" transform="matrix(0.7498850226402283,0.013089289888739586,-0.013089289888739586,0.7498850226402283,272.90374755859375,232.5926971435547)" opacity="1"><g opacity="1" transform="matrix(1,0,0,1,0,0)"><path fill="rgb(255,223,121)" fill-opacity="1" d=" M-74.47000122070312,-55.590999603271484 C-68.8239974975586,-70.67400360107422 -58.487998962402344,-72.6709976196289 -50.237998962402344,-71.23999786376953 C-39.499000549316406,-69.37699890136719 -32.40399932861328,-63.17599868774414 -22.760000228881836,-55.43000030517578 C-11.170999526977539,-46.12200164794922 0.27399998903274536,-36.88199996948242 18.16900062561035,-17.18000030517578 C33.21200180053711,-0.6179999709129333 41.641998291015625,0.008999999612569809 53.792999267578125,23.031999588012695 C61.654998779296875,37.92900085449219 66.34500122070312,46.79499816894531 67.45800018310547,83.26499938964844 C82.26899719238281,59.569000244140625 69.8239974975586,27.59000015258789 64.56999969482422,16.50200080871582 C61.32600021362305,9.656000137329102 55.667999267578125,4.456999778747559 50.763999938964844,-1.1729999780654907 C38.41600036621094,-15.347999572753906 26.33799934387207,-29.12299919128418 12.675999641418457,-42.15599822998047 C2.2679998874664307,-52.08399963378906 -10.704999923706055,-62.12300109863281 -27.365999221801758,-73.95099639892578 C-45.42399978637695,-86.77100372314453 -72.56800079345703,-91.02400207519531 -74.47000122070312,-55.590999603271484"></path></g><g opacity="0" transform="matrix(1,0,0,1,0,0)"><path fill="rgb(255,177,57)" fill-opacity="1" d=" M-74.47000122070312,-55.590999603271484 C-68.8239974975586,-70.67400360107422 -58.487998962402344,-72.6709976196289 -50.237998962402344,-71.23999786376953 C-39.499000549316406,-69.37699890136719 -32.40399932861328,-63.17599868774414 -22.760000228881836,-55.43000030517578 C-11.170999526977539,-46.12200164794922 0.27399998903274536,-36.88199996948242 18.16900062561035,-17.18000030517578 C33.21200180053711,-0.6179999709129333 41.641998291015625,0.008999999612569809 53.792999267578125,23.031999588012695 C61.654998779296875,37.92900085449219 66.34500122070312,46.79499816894531 67.45800018310547,83.26499938964844 C82.26899719238281,59.569000244140625 69.8239974975586,27.59000015258789 64.56999969482422,16.50200080871582 C61.32600021362305,9.656000137329102 55.667999267578125,4.456999778747559 50.763999938964844,-1.1729999780654907 C38.41600036621094,-15.347999572753906 26.33799934387207,-29.12299919128418 12.675999641418457,-42.15599822998047 C2.2679998874664307,-52.08399963378906 -10.704999923706055,-62.12300109863281 -27.365999221801758,-73.95099639892578 C-45.42399978637695,-86.77100372314453 -72.56800079345703,-91.02400207519531 -74.47000122070312,-55.590999603271484"></path></g></g><g style="display: block;" transform="matrix(0.7498850226402283,0.013089289888739586,-0.013089289888739586,0.7498850226402283,250.0138397216797,253.4911346435547)" opacity="1"><g opacity="1" transform="matrix(1,0,0,1,0,0)"><path fill="rgb(255,177,57)" fill-opacity="1" d=" M-31.159000396728516,-108.05699920654297 C-44.654998779296875,-98.4739990234375 -40.48099899291992,-84.1729965209961 -32.354000091552734,-81.83799743652344 C-3.940999984741211,-73.6729965209961 -8.041999816894531,-37.93299865722656 8.46399974822998,-43.00899887084961 C9.185999870300293,-26.165000915527344 21.159000396728516,2.3269999027252197 44.018001556396484,10.460000038146973 C31.569000244140625,50.04199981689453 64.73500061035156,87.87799835205078 44.4739990234375,91.76899719238281 C21.454999923706055,96.19000244140625 5.054999828338623,105.35299682617188 -8.168000221252441,107.90699768066406 C-15.836999893188477,109.38800048828125 -14.659000396728516,99.61699676513672 -7.760000228881836,90.97000122070312 C-0.8619999885559082,82.322998046875 19.679000854492188,67.12999725341797 32.27000045776367,63.95399856567383 C26.634000778198242,54.33599853515625 24.134000778198242,37.33599853515625 28.634000778198242,19.086000442504883 C18.613000869750977,9.487000465393066 0.8999999761581421,-5.447000026702881 -3.1540000438690186,-27.93000030517578 C-14.01099967956543,-36.77399826049805 -24.517000198364258,-60.75600051879883 -29.51099967956543,-63.457000732421875 C-38.1510009765625,-68.12999725341797 -49.117000579833984,-71.7750015258789 -50.81399917602539,-79.1729965209961 C-52.82699966430664,-87.94400024414062 -47.11199951171875,-100.2760009765625 -31.159000396728516,-108.05699920654297z"></path></g><g opacity="0" transform="matrix(1,0,0,1,0,0)"><path fill="rgb(255,223,121)" fill-opacity="1" d=" M-31.159000396728516,-108.05699920654297 C-44.654998779296875,-98.4739990234375 -40.48099899291992,-84.1729965209961 -32.354000091552734,-81.83799743652344 C-3.940999984741211,-73.6729965209961 -8.041999816894531,-37.93299865722656 8.46399974822998,-43.00899887084961 C9.185999870300293,-26.165000915527344 21.159000396728516,2.3269999027252197 44.018001556396484,10.460000038146973 C31.569000244140625,50.04199981689453 64.73500061035156,87.87799835205078 44.4739990234375,91.76899719238281 C21.454999923706055,96.19000244140625 5.054999828338623,105.35299682617188 -8.168000221252441,107.90699768066406 C-15.836999893188477,109.38800048828125 -14.659000396728516,99.61699676513672 -7.760000228881836,90.97000122070312 C-0.8619999885559082,82.322998046875 19.679000854492188,67.12999725341797 32.27000045776367,63.95399856567383 C26.634000778198242,54.33599853515625 24.134000778198242,37.33599853515625 28.634000778198242,19.086000442504883 C18.613000869750977,9.487000465393066 0.8999999761581421,-5.447000026702881 -3.1540000438690186,-27.93000030517578 C-14.01099967956543,-36.77399826049805 -24.517000198364258,-60.75600051879883 -29.51099967956543,-63.457000732421875 C-38.1510009765625,-68.12999725341797 -49.117000579833984,-71.7750015258789 -50.81399917602539,-79.1729965209961 C-52.82699966430664,-87.94400024414062 -47.11199951171875,-100.2760009765625 -31.159000396728516,-108.05699920654297z"></path></g></g><g style="display: block;" transform="matrix(0.7498850226402283,0.013089289888739586,-0.013089289888739586,0.7498850226402283,257.5934753417969,312.5523376464844)" opacity="1"><g opacity="1" transform="matrix(1,0,0,1,0,0)"><path stroke-linecap="round" stroke-linejoin="round" fill-opacity="0" stroke="rgb(247,126,65)" stroke-opacity="1" stroke-width="10" d=" M20.527999877929688,-13.031999588012695 C6.25,-7.570000171661377 -11.543999671936035,3.740000009536743 -20.527999877929688,13.031999588012695"></path></g></g><g style="display: block;" transform="matrix(0.75,0,0,0.75,177.5142364501953,367.09326171875)" opacity="1"><g opacity="1" transform="matrix(1,0,0,1,0,0)"><path fill="rgb(255,177,57)" fill-opacity="1" d=" M195.8350067138672,-140.7480010986328 C193.75999450683594,-111.56700134277344 188.75999450683594,-86.56800079345703 189.4409942626953,-61.82699966430664 C190.24600219726562,-32.56999969482422 178.70199584960938,-16.679000854492188 168.81100463867188,-7.334000110626221 C141.53799438476562,18.433000564575195 118.70700073242188,40.441001892089844 73.23500061035156,74.0250015258789 C34.56800079345703,102.58300018310547 12.668999671936035,113.76399993896484 -35.965999603271484,116.05799865722656 C-84.60099792480469,118.35199737548828 -130.70399475097656,118.22699737548828 -168.44200134277344,113.33799743652344 C-186.697998046875,110.9729995727539 -197.7310028076172,101.65899658203125 -198.44500732421875,57.768001556396484 C-199.33700561523438,42.95899963378906 -201.6999969482422,87.25399780273438 -201.51199340820312,92.83399963378906 C-200.8509979248047,112.4209976196289 -198.0449981689453,147.1060028076172 -179.16700744628906,146.85299682617188 C-131.24000549316406,146.2100067138672 -52.007999420166016,147.4810028076172 -0.09799999743700027,140.81900024414062 C29.315000534057617,137.04400634765625 59.36899948120117,129.17999267578125 108.12699890136719,89.63899993896484 C131.53700256347656,70.65399932861328 187.68699645996094,15.479000091552734 199.63600158691406,-19.27400016784668 C206.53700256347656,-39.34600067138672 200.98300170898438,-80.45600128173828 195.8350067138672,-140.7480010986328z"></path></g></g><g style="display: block;" transform="matrix(0.7498850226402283,0.013089289888739586,-0.013089289888739586,0.7498850226402283,272.27569580078125,253.74920654296875)" opacity="1"><g opacity="1" transform="matrix(1,0,0,1,0,0)"><path stroke-linecap="round" stroke-linejoin="round" fill-opacity="0" stroke="rgb(247,126,65)" stroke-opacity="1" stroke-width="10" d=" M77.60800170898438,111.39199829101562 C77.20099639892578,98.78199768066406 77.74400329589844,74.50599670410156 76.12699890136719,50.242000579833984 C73.39199829101562,9.225000381469727 69.31300354003906,-10.326000213623047 51.117000579833984,-30.099000930786133 C35.84000015258789,-46.70000076293945 21.7549991607666,-61.62900161743164 2.9560000896453857,-77.8489990234375 C-18.315000534057617,-96.2020034790039 -29.426000595092773,-106.4209976196289 -42.869998931884766,-110.11799621582031 C-58.369998931884766,-114.37999725341797 -73.8270034790039,-107.94100189208984 -78.19000244140625,-90.85900115966797 C-82.4489974975586,-74.18099975585938 -70.14900207519531,-60.042999267578125 -32.82500076293945,-32.54100036621094 C-29.36199951171875,-6.304999828338623 -15.295000076293945,7.98799991607666 -0.43299999833106995,19.312999725341797 C-4.53000020980835,29.121000289916992 -4.630000114440918,51.30099868774414 2.322999954223633,65.7030029296875"></path></g></g><g style="display: block;" transform="matrix(0.75,0,0,0.75,104.5617446899414,426.7699890136719)" opacity="1"><g opacity="1" transform="matrix(1,0,0,1,0,0)"><path stroke-linecap="round" stroke-linejoin="round" fill-opacity="0" stroke="rgb(247,126,65)" stroke-opacity="1" stroke-width="10" d=" M106.08699798583984,58.72100067138672 C71.68800354003906,65.40399932861328 37.334999084472656,65.24400329589844 6.814000129699707,64.93099975585938 C-22.990999221801758,65.54199981689453 -73.61900329589844,65.72599792480469 -79.73200225830078,65.822998046875 C-85.84500122070312,65.91999816894531 -96.05699920654297,64.75599670410156 -100.83000183105469,48.766998291015625 C-106.78199768066406,28.82699966430664 -110.06199645996094,-29.10300064086914 -97.3280029296875,-56.89899826049805 C-92.85199737548828,-66.66899871826172 -86.40799713134766,-65.71700286865234 -84.67900085449219,-65.73600006103516 C-47.415000915527344,-66.16200256347656 39.07400131225586,-64.77200317382812 65.86599731445312,-66.63300323486328"></path></g></g><g style="display: block;" transform="matrix(0.7498850226402283,0.013089289888739586,-0.013089289888739586,0.7498850226402283,256.5704040527344,404.55316162109375)" opacity="1"><g opacity="1" transform="matrix(1,0,0,1,0,0)"><path stroke-linecap="round" stroke-linejoin="round" fill-opacity="0" stroke="rgb(247,126,65)" stroke-opacity="1" stroke-width="10" d=" M-95.0780029296875,90.2030029296875 C-30.027000427246094,81.947998046875 35.23400115966797,10.416000366210938 62.68899917602539,-24.9950008392334 C83.2020034790039,-51.452999114990234 94.63700103759766,-70.0260009765625 95.03600311279297,-90.01599884033203"></path></g></g><g style="display: block;" transform="matrix(0.7498850226402283,0.013089289888739586,-0.013089289888739586,0.7498850226402283,186.18707275390625,292.7466125488281)" opacity="1"><g opacity="1" transform="matrix(1,0,0,1,-1.6519999504089355,1.1330000162124634)"><path fill="rgb(255,209,64)" fill-opacity="1" d=" M30.51099967956543,-129.89199829101562 C12.319999694824219,-127.61799621582031 11.831999778747559,-111.69100189208984 13.239999771118164,-97.19400024414062 C15.29800033569336,-76.01799774169922 15.954999923706055,-65.51499938964844 10.92199993133545,-53.917999267578125 C4.922999858856201,-40.09400177001953 -12.86400032043457,-17.934999465942383 -22.22100067138672,-6.927000045776367 C-39.55500030517578,13.46500015258789 -54.1349983215332,37.275001525878906 -62.749000549316406,62.6150016784668 C-72.66000366210938,91.7699966430664 -69.41200256347656,112.66000366210938 -76.77100372314453,130.0260009765625 C-34.893001556396484,198.76300048828125 98.08000183105469,81.42400360107422 75.41400146484375,38.20600128173828 C62.308998107910156,37.59700012207031 60.494998931884766,5.392000198364258 61.827999114990234,-3.934000015258789 C63.47999954223633,-15.498000144958496 69.5739974975586,-26.770000457763672 72.88099670410156,-38.013999938964844 C80.52400207519531,-64.00199890136719 77.43800354003906,-95.9219970703125 58.83399963378906,-116.07599639892578 C52.3650016784668,-123.08399963378906 40.702999114990234,-131.16600036621094 30.51099967956543,-129.89199829101562z"></path></g><g opacity="1" transform="matrix(1,0,0,1,-18.048999786376953,16.429000854492188)"><path fill="rgb(255,223,121)" fill-opacity="1" d=" M65.6969985961914,-134.60299682617188 C61.57500076293945,-134.9010009765625 48.68000030517578,-143.0850067138672 45.26300048828125,-127.56600189208984 C41.35300064086914,-109.80500030517578 57.165000915527344,-85.22599792480469 44.9119987487793,-59.84299850463867 C30.490999221801758,-29.97100067138672 4.298999786376953,-16.594999313354492 -16.570999145507812,48.57500076293945 C-26.929000854492188,80.91999816894531 -26.665000915527344,118.01899719238281 -13.618000030517578,132.2530059814453 C-0.5709999799728394,146.48599243164062 -78.79199981689453,157.56399536132812 -63.77299880981445,111.46299743652344 C-57.15299987792969,106.78800201416016 -54.28499984741211,96.82599639892578 -50.486000061035156,63.983001708984375 C-48.98500061035156,51.01499938964844 -29.541000366210938,10.47700023651123 -19.392000198364258,-3.1029999256134033 C-9.243000030517578,-16.683000564575195 26.229999542236328,-55.292999267578125 31.700000762939453,-77.17500305175781 C37.17100143432617,-99.05599975585938 28.20199966430664,-114.71399688720703 30.493999481201172,-130.61199951171875 C32.584999084472656,-145.11700439453125 52.26900100708008,-151.35299682617188 65.6969985961914,-134.60299682617188z"></path></g><g opacity="1" transform="matrix(1,0,0,1,-18.048999786376953,16.429000854492188)"><path stroke-linecap="round" stroke-linejoin="round" fill-opacity="0" stroke="rgb(255,255,255)" stroke-opacity="1" stroke-width="7" d=" M-2.2079999446868896,12.359999656677246 C-5.909999847412109,19.916000366210938 -9.569000244140625,28.476999282836914 -13.107999801635742,38.35300064086914"></path></g><g opacity="1" transform="matrix(1,0,0,1,-18.048999786376953,16.429000854492188)"><path stroke-linecap="round" stroke-linejoin="round" fill-opacity="0" stroke="rgb(255,255,255)" stroke-opacity="1" stroke-width="7" d=" M9.53600025177002,-8.520000457763672 C8.666000366210938,-7.164000034332275 7.794000148773193,-5.769999980926514 6.921000003814697,-4.335000038146973"></path></g><g opacity="1" transform="matrix(1,0,0,1,51.28300094604492,-36.63100051879883)"><path fill="rgb(255,177,57)" fill-opacity="1" d=" M22.29800033569336,76.19599914550781 C7.224999904632568,70.08999633789062 6.74399995803833,44.349998474121094 9.423999786376953,32.6870002746582 C20.884000778198242,0.11599999666213989 32.7760009765625,-36.198001861572266 14.487000465393066,-68.13700103759766 C4.267000198364258,-85.98500061035156 -15.128999710083008,-98.21600341796875 -30.523000717163086,-86.5989990234375 C-10.824000358581543,-86.72699737548828 -4.580999851226807,-73.55699920654297 1.7979999780654907,-60.56999969482422 C8.826000213623047,-46.26100158691406 15.340999603271484,-19.10700035095215 3.822999954223633,6.5929999351501465 C-4.122000217437744,24.31999969482422 -9.902999877929688,39.755001068115234 -4.044000148773193,67.65399932861328 C1.218000054359436,92.70999908447266 16.934999465942383,94.44400024414062 30.381000518798828,88.05899810791016 C43.39899826049805,84.00399780273438 27.527999877929688,78.31500244140625 22.29800033569336,76.19599914550781z"></path></g><g opacity="1" transform="matrix(1,0,0,1,-1.6519999504089355,1.1330000162124634)"><path stroke-linecap="round" stroke-linejoin="round" fill-opacity="0" stroke="rgb(247,126,65)" stroke-opacity="1" stroke-width="10" d=" M-76.77100372314453,130.0260009765625 C-70.08599853515625,113.5009994506836 -72.66000366210938,91.7699966430664 -62.749000549316406,62.6150016784668 C-54.1349983215332,37.275001525878906 -39.55500030517578,13.46500015258789 -22.22100067138672,-6.927000045776367 C-12.86400032043457,-17.934999465942383 4.922999858856201,-40.09400177001953 10.92199993133545,-53.917999267578125 C15.954999923706055,-65.51499938964844 15.29800033569336,-76.01799774169922 13.239999771118164,-97.19400024414062 C11.831999778747559,-111.69100189208984 12.319999694824219,-127.61799621582031 30.51099967956543,-129.89199829101562 C40.702999114990234,-131.16600036621094 52.3650016784668,-123.08399963378906 58.83399963378906,-116.07599639892578 C77.43800354003906,-95.9219970703125 80.52400207519531,-64.00199890136719 72.88099670410156,-38.013999938964844 C69.5739974975586,-26.770000457763672 63.47999954223633,-15.498000144958496 61.827999114990234,-3.934000015258789 C60.494998931884766,5.392000198364258 63.03099822998047,38.20600128173828 75.41400146484375,38.20600128173828"></path></g></g><g style="display: block;" transform="matrix(0.7499991655349731,0,0,0.7499991655349731,236.37680053710938,178.88609313964844)" opacity="1"><g opacity="1" transform="matrix(1,0,0,1,0,0)"><path stroke-linecap="round" stroke-linejoin="round" fill-opacity="0" stroke="rgb(255,255,255)" stroke-opacity="1" stroke-width="6" d=" M-2.753000020980835,-0.6830000281333923 C-1.0959999561309814,-0.8080000281333923 1.0720000267028809,-0.07999999821186066 2.753000020980835,0.6970000267028809"></path></g></g></g></svg>