<svg xmlns="http://www.w3.org/2000/svg" viewBox="0 0 512 512" width="512" height="512" style="width: 100%; height: 100%; transform: translate3d(0,0,0);" preserveAspectRatio="xMidYMid meet"><defs><clipPath id="__lottie_element_19724"><rect width="512" height="512" x="0" y="0"></rect></clipPath></defs><g clip-path="url(#__lottie_element_19724)"><g style="display: block;" transform="matrix(1,0,0,1,246,256)" opacity="1"><g opacity="0.1" transform="matrix(1,0,0,1,0,0)"><path fill="rgb(0,0,0)" fill-opacity="1" d=" M205.30599975585938,-17.84000015258789 C205.30599975585938,90.4209976196289 117.54299926757812,178.18499755859375 9.281999588012695,178.18499755859375 C-98.97899627685547,178.18499755859375 -186.7429962158203,90.4209976196289 -186.7429962158203,-17.84000015258789 C-186.7429962158203,-126.10099792480469 -98.97899627685547,-213.86399841308594 9.281999588012695,-213.86399841308594 C117.54299926757812,-213.86399841308594 205.30599975585938,-126.10099792480469 205.30599975585938,-17.84000015258789z"></path></g><g opacity="1" transform="matrix(1,0,0,1,0,0)"><path fill="rgb(255,177,57)" fill-opacity="1" d=" M198.15699768066406,-32.84000015258789 C198.15699768066406,71.4729995727539 113.59500122070312,156.03599548339844 9.281999588012695,156.03599548339844 C-95.03099822998047,156.03599548339844 -179.593994140625,71.4729995727539 -179.593994140625,-32.84000015258789 C-179.593994140625,-137.1529998779297 -95.03099822998047,-221.71499633789062 9.281999588012695,-221.71499633789062 C113.59500122070312,-221.71499633789062 198.15699768066406,-137.1529998779297 198.15699768066406,-32.84000015258789z"></path><path stroke-linecap="butt" stroke-linejoin="miter" fill-opacity="0" stroke-miterlimit="10" stroke="rgb(247,126,65)" stroke-opacity="1" stroke-width="8" d=" M198.15699768066406,-32.84000015258789 C198.15699768066406,71.4729995727539 113.59500122070312,156.03599548339844 9.281999588012695,156.03599548339844 C-95.03099822998047,156.03599548339844 -179.593994140625,71.4729995727539 -179.593994140625,-32.84000015258789 C-179.593994140625,-137.1529998779297 -95.03099822998047,-221.71499633789062 9.281999588012695,-221.71499633789062 C113.59500122070312,-221.71499633789062 198.15699768066406,-137.1529998779297 198.15699768066406,-32.84000015258789z"></path></g><g opacity="1" transform="matrix(1,0,0,1,0,0)"><path fill="rgb(255,209,64)" fill-opacity="1" d=" M177.68899536132812,-32.12699890136719 C176.23199462890625,62.9010009765625 99.6780014038086,138.78199768066406 6.699999809265137,137.35699462890625 C-86.27799987792969,135.9320068359375 -160.47000122070312,57.74100112915039 -159.01400756835938,-37.28799819946289 C-157.5570068359375,-132.31700134277344 -81.00399780273438,-208.19700622558594 11.973999977111816,-206.77200317382812 C104.9520034790039,-205.3470001220703 179.14599609375,-127.15599822998047 177.68899536132812,-32.12699890136719z"></path></g><g opacity="0.9" transform="matrix(1,0,0,1,0,0)"><path fill="rgb(255,223,121)" fill-opacity="1" d=" M158.5489959716797,-75.26799774169922 C158.5489959716797,-2.625 91.72000122070312,-60.09000015258789 9.281999588012695,-60.09000015258789 C-73.15599822998047,-60.09000015258789 -139.98599243164062,-2.625 -139.98599243164062,-75.26799774169922 C-139.98599243164062,-147.91099548339844 -73.15599822998047,-206.80099487304688 9.281999588012695,-206.80099487304688 C91.72000122070312,-206.80099487304688 158.5489959716797,-147.91099548339844 158.5489959716797,-75.26799774169922z"></path></g><g opacity="1" transform="matrix(1,0,0,1,0,0)"><g opacity="1" transform="matrix(1,0,0,1,0,0)"><path stroke-linecap="round" stroke-linejoin="round" fill-opacity="0" stroke="rgb(255,255,255)" stroke-opacity="1" stroke-width="6" d=" M45.65399932861328,-201.23899841308594 C47.19200134277344,-200.9040069580078 48.7869987487793,-200.53500366210938 50.43199920654297,-200.12899780273438"></path></g><g opacity="1" transform="matrix(1,0,0,1,0,0)"><path stroke-linecap="round" stroke-linejoin="round" fill-opacity="0" stroke="rgb(255,255,255)" stroke-opacity="1" stroke-width="6" d=" M24.299999237060547,-204.45899963378906 C24.299999237060547,-204.45899963378906 29.16699981689453,-204.197998046875 36.88999938964844,-202.9199981689453"></path></g></g></g><g style="display: block;" transform="matrix(1,0,0,1,246,256)" opacity="1"><g opacity="1" transform="matrix(1,0,0,1,0,0)"><g opacity="1" transform="matrix(1,0,0,1,0,0)"><path fill="rgb(255,226,166)" fill-opacity="1" d=" M122.70899963378906,60.78900146484375 C122.70899963378906,106.82599639892578 71.69499969482422,144.14599609375 8.767000198364258,144.14599609375 C-54.1609992980957,144.14599609375 -105.17500305175781,106.82599639892578 -105.17500305175781,60.78900146484375 C-105.17500305175781,14.751999855041504 -54.1609992980957,-22.56800079345703 8.767000198364258,-22.56800079345703 C71.69499969482422,-22.56800079345703 122.70899963378906,14.751999855041504 122.70899963378906,60.78900146484375z"></path></g><g opacity="1" transform="matrix(1,0,0,1,0,0)"><path fill="rgb(255,177,57)" fill-opacity="1" d=" M122.70899963378906,54.96200180053711 C122.70899963378906,99.76399993896484 71.69499969482422,136.08399963378906 8.767000198364258,136.08399963378906 C-54.1609992980957,136.08399963378906 -105.17500305175781,99.76399993896484 -105.17500305175781,54.96200180053711 C-105.17500305175781,10.15999984741211 -54.1609992980957,-26.15999984741211 8.767000198364258,-26.15999984741211 C71.69499969482422,-26.15999984741211 122.70899963378906,10.15999984741211 122.70899963378906,54.96200180053711z"></path></g><g opacity="1" transform="matrix(1,0,0,1,0,0)"><path fill="rgb(107,32,0)" fill-opacity="1" d=" M118.39299774169922,58.930999755859375 C118.39299774169922,101.96499633789062 69.31199645996094,136.85000610351562 8.767000198364258,136.85000610351562 C-51.77799987792969,136.85000610351562 -100.85900115966797,101.96499633789062 -100.85900115966797,58.930999755859375 C-100.85900115966797,15.897000312805176 -51.77799987792969,-18.98900032043457 8.767000198364258,-18.98900032043457 C69.31199645996094,-18.98900032043457 118.39299774169922,15.897000312805176 118.39299774169922,58.930999755859375z"></path></g></g><g opacity="0.31" transform="matrix(1,0,0,1,0,0)"><path fill="rgb(71,34,0)" fill-opacity="1" d=" M118.38999938964844,58.928001403808594 C118.38999938964844,62.78799819946289 118,66.5780029296875 117.2300033569336,70.28800201416016 C109.5,32.63800048828125 63.880001068115234,3.7179999351501465 8.770000457763672,3.7179999351501465 C-46.349998474121094,3.7179999351501465 -91.97000122070312,32.63800048828125 -99.69999694824219,70.28800201416016 C-100.47000122070312,66.5780029296875 -100.86000061035156,62.78799819946289 -100.86000061035156,58.928001403808594 C-100.86000061035156,15.89799976348877 -51.779998779296875,-18.992000579833984 8.770000457763672,-18.992000579833984 C69.30999755859375,-18.992000579833984 118.38999938964844,15.89799976348877 118.38999938964844,58.928001403808594z"></path></g></g><g style="display: block;" transform="matrix(1,0,0,1,246,256)" opacity="1"><g opacity="1" transform="matrix(1,0,0,1,0,0)"><path stroke-linecap="round" stroke-linejoin="round" fill-opacity="0" stroke="rgb(7,142,0)" stroke-opacity="1" stroke-width="12" d=" M135.5800018310547,171.86599731445312 C135.5800018310547,171.86599731445312 149.50100708007812,168.35400390625 145.43699645996094,153.947998046875 C142.92300415039062,145.03700256347656 140.3040008544922,141.2689971923828 122.95899963378906,142.1060028076172 C108.30899810791016,142.81300354003906 98.81999969482422,135.6909942626953 98.81999969482422,135.6909942626953 C98.81999969482422,135.6909942626953 -82.11000061035156,119.40599822998047 -82.11000061035156,119.40599822998047 C-82.11000061035156,119.40599822998047 -88.12899780273438,119.95500183105469 -95.90599822998047,118.69100189208984 C-110.40699768066406,116.33499908447266 -116.26399993896484,121.01899719238281 -118.78500366210938,129.38800048828125 C-121.0270004272461,136.83299255371094 -118.0770034790039,144.7949981689453 -113.5770034790039,147.62399291992188 C-113.5770034790039,147.62399291992188 -130.447998046875,148.05599975585938 -141.07000732421875,155.6269989013672 C-151.61300659179688,163.14100646972656 -157.02000427246094,175.8560028076172 -148.02000427246094,191.7989959716797 C-139.11399841308594,207.5760040283203 -119.45600128173828,201.65499877929688 -119.45600128173828,201.65499877929688 C-119.45600128173828,201.65499877929688 -113.80699920654297,222.45399475097656 -94.72699737548828,224.12899780273438 C-67.98400115966797,226.4759979248047 -58.16299819946289,206.0489959716797 -58.16299819946289,206.0489959716797 C-58.16299819946289,206.0489959716797 -51.82600021362305,224.25399780273438 -31.74799919128418,224.25399780273438 C-8.090999603271484,224.25399780273438 -2.6549999713897705,208.68800354003906 -2.6549999713897705,208.68800354003906 C-2.6549999713897705,208.68800354003906 5.559000015258789,223.27999877929688 19.916000366210938,224.87899780273438 C32.00199890136719,226.22500610351562 37.45800018310547,220.14100646972656 44.65800094604492,208.82699584960938 C44.65800094604492,208.82699584960938 48.64799880981445,223.92799377441406 71.2770004272461,225.93299865722656 C93.90499877929688,227.93800354003906 100.49500274658203,210.16299438476562 103.58000183105469,199.36300659179688 C103.58000183105469,199.36300659179688 112.74099731445312,208.32699584960938 132.79800415039062,204.7270050048828 C152.85499572753906,201.1269989013672 146.3800048828125,175.97999572753906 135.5800018310547,171.86599731445312z"></path></g></g><g style="display: block;" transform="matrix(1,0,0,1,246,256)" opacity="1"><g opacity="1" transform="matrix(1,0,0,1,0,0)"><path stroke-linecap="round" stroke-linejoin="round" fill-opacity="0" stroke="rgb(7,142,0)" stroke-opacity="1" stroke-width="16" d=" M-77.89199829101562,26.67300033569336 C-77.9540023803711,50.933998107910156 -78.14199829101562,156.11199951171875 -76.87799835205078,184.26699829101562 C-76.54100036621094,191.77999877929688 98.52100372314453,195.43899536132812 98.2699966430664,181.48800659179688 C97.98200225830078,165.44400024414062 97.0770034790039,56.928001403808594 96.85299682617188,29.777000427246094"></path></g></g><g style="display: block;" transform="matrix(1,0,0,1,246,256)" opacity="1"><g opacity="1" transform="matrix(1,0,0,1,0,0)"><path fill="rgb(122,221,18)" fill-opacity="1" d=" M135.5800018310547,171.86599731445312 C135.5800018310547,171.86599731445312 149.50100708007812,168.35400390625 145.43699645996094,153.947998046875 C142.92300415039062,145.03700256347656 140.3040008544922,141.2689971923828 122.95899963378906,142.1060028076172 C108.30899810791016,142.81300354003906 98.81999969482422,135.6909942626953 98.81999969482422,135.6909942626953 C98.81999969482422,135.6909942626953 -82.11000061035156,119.40599822998047 -82.11000061035156,119.40599822998047 C-82.11000061035156,119.40599822998047 -88.12899780273438,119.95500183105469 -95.90599822998047,118.69100189208984 C-110.40699768066406,116.33499908447266 -116.26399993896484,121.01899719238281 -118.78500366210938,129.38800048828125 C-121.0270004272461,136.83299255371094 -118.0770034790039,144.7949981689453 -113.5770034790039,147.62399291992188 C-113.5770034790039,147.62399291992188 -130.447998046875,148.05599975585938 -141.07000732421875,155.6269989013672 C-151.61300659179688,163.14100646972656 -157.02000427246094,175.8560028076172 -148.02000427246094,191.7989959716797 C-139.11399841308594,207.5760040283203 -119.45600128173828,201.65499877929688 -119.45600128173828,201.65499877929688 C-119.45600128173828,201.65499877929688 -113.80699920654297,222.45399475097656 -94.72699737548828,224.12899780273438 C-67.98400115966797,226.4759979248047 -58.16299819946289,206.0489959716797 -58.16299819946289,206.0489959716797 C-58.16299819946289,206.0489959716797 -51.82600021362305,224.25399780273438 -31.74799919128418,224.25399780273438 C-8.090999603271484,224.25399780273438 -2.6549999713897705,208.68800354003906 -2.6549999713897705,208.68800354003906 C-2.6549999713897705,208.68800354003906 5.559000015258789,223.27999877929688 19.916000366210938,224.87899780273438 C32.00199890136719,226.22500610351562 37.45800018310547,220.14100646972656 44.65800094604492,208.82699584960938 C44.65800094604492,208.82699584960938 48.64799880981445,223.92799377441406 71.2770004272461,225.93299865722656 C93.90499877929688,227.93800354003906 100.49500274658203,210.16299438476562 103.58000183105469,199.36300659179688 C103.58000183105469,199.36300659179688 112.74099731445312,208.32699584960938 132.79800415039062,204.7270050048828 C152.85499572753906,201.1269989013672 146.3800048828125,175.97999572753906 135.5800018310547,171.86599731445312z"></path></g><g opacity="1" transform="matrix(1,0,0,1,0,0)"><path stroke-linecap="round" stroke-linejoin="round" fill-opacity="0" stroke="rgb(7,142,0)" stroke-opacity="1" stroke-width="4" d=" M135.5800018310547,171.86599731445312 C135.5800018310547,171.86599731445312 149.50100708007812,168.35400390625 145.43699645996094,153.947998046875 C142.92300415039062,145.03700256347656 140.3040008544922,141.2689971923828 122.95899963378906,142.1060028076172 C108.30899810791016,142.81300354003906 98.81999969482422,135.6909942626953 98.81999969482422,135.6909942626953 C98.81999969482422,135.6909942626953 -82.11000061035156,119.40599822998047 -82.11000061035156,119.40599822998047 C-82.11000061035156,119.40599822998047 -88.12899780273438,119.95500183105469 -95.90599822998047,118.69100189208984 C-110.40699768066406,116.33499908447266 -116.26399993896484,121.01899719238281 -118.78500366210938,129.38800048828125 C-121.0270004272461,136.83299255371094 -118.0770034790039,144.7949981689453 -113.5770034790039,147.62399291992188 C-113.5770034790039,147.62399291992188 -130.447998046875,148.05599975585938 -141.07000732421875,155.6269989013672 C-151.61300659179688,163.14100646972656 -157.02000427246094,175.8560028076172 -148.02000427246094,191.7989959716797 C-139.11399841308594,207.5760040283203 -119.45600128173828,201.65499877929688 -119.45600128173828,201.65499877929688 C-119.45600128173828,201.65499877929688 -113.80699920654297,222.45399475097656 -94.72699737548828,224.12899780273438 C-67.98400115966797,226.4759979248047 -58.16299819946289,206.0489959716797 -58.16299819946289,206.0489959716797 C-58.16299819946289,206.0489959716797 -51.82600021362305,224.25399780273438 -31.74799919128418,224.25399780273438 C-8.090999603271484,224.25399780273438 -2.6549999713897705,208.68800354003906 -2.6549999713897705,208.68800354003906 C-2.6549999713897705,208.68800354003906 5.559000015258789,223.27999877929688 19.916000366210938,224.87899780273438 C32.00199890136719,226.22500610351562 37.45800018310547,220.14100646972656 44.65800094604492,208.82699584960938 C44.65800094604492,208.82699584960938 48.64799880981445,223.92799377441406 71.2770004272461,225.93299865722656 C93.90499877929688,227.93800354003906 100.49500274658203,210.16299438476562 103.58000183105469,199.36300659179688 C103.58000183105469,199.36300659179688 112.74099731445312,208.32699584960938 132.79800415039062,204.7270050048828 C152.85499572753906,201.1269989013672 146.3800048828125,175.97999572753906 135.5800018310547,171.86599731445312z"></path></g></g><g style="display: block;" transform="matrix(1,0,0,1,246,256)" opacity="1"><g opacity="1" transform="matrix(1,0,0,1,0,0)"><path fill="rgb(122,221,18)" fill-opacity="1" d=" M96.802001953125,23.628000259399414 C77.19200134277344,2.507999897003174 43.30400085449219,-11.67199993133545 5.044000148773193,-11.67199993133545 C-32.93600082397461,-11.67199993133545 -60.5,4.5 -77.87799835205078,21.658000946044922 C-77.87799835205078,21.658000946044922 -78.30999755859375,152.375 -76.87799835205078,184.26699829101562 C-76.54100036621094,191.77999877929688 98.52100372314453,195.43899536132812 98.2699966430664,181.48800659179688 C97.94000244140625,163.125 96.802001953125,23.628000259399414 96.802001953125,23.628000259399414z"></path></g></g><g style="display: block;" transform="matrix(1,0,0,1,246,256)" opacity="1"><g opacity="0.4" transform="matrix(1,0,0,1,0,0)"><path fill="rgb(7,142,0)" fill-opacity="1" d=" M143.3300018310547,178.99600219726562 C143.3300018310547,178.99600219726562 136.21600341796875,170.24899291992188 115.30000305175781,170.5659942626953 C115.30000305175781,170.5659942626953 108.91000366210938,166.61599731445312 103.31999969482422,152.04600524902344 C103.31999969482422,152.04600524902344 110.41000366210938,162.85499572753906 129.19000244140625,164.59500122070312 C145.1999969482422,166.0749969482422 146.41600036621094,153.22000122070312 143.67300415039062,148.9340057373047 C143.67300415039062,148.95399475097656 149.97799682617188,156.01600646972656 149.97799682617188,156.03599548339844 C149.97799682617188,169.82000732421875 143.3300018310547,178.99600219726562 143.3300018310547,178.99600219726562z"></path><path stroke-linecap="round" stroke-linejoin="round" fill-opacity="0" stroke="rgb(7,142,0)" stroke-opacity="1" stroke-width="2" d=" M143.3300018310547,178.99600219726562 C143.3300018310547,178.99600219726562 136.21600341796875,170.24899291992188 115.30000305175781,170.5659942626953 C115.30000305175781,170.5659942626953 108.91000366210938,166.61599731445312 103.31999969482422,152.04600524902344 C103.31999969482422,152.04600524902344 110.41000366210938,162.85499572753906 129.19000244140625,164.59500122070312 C145.1999969482422,166.0749969482422 146.41600036621094,153.22000122070312 143.67300415039062,148.9340057373047 C143.67300415039062,148.95399475097656 149.97799682617188,156.01600646972656 149.97799682617188,156.03599548339844 C149.97799682617188,169.82000732421875 143.3300018310547,178.99600219726562 143.3300018310547,178.99600219726562z"></path></g><g opacity="0.4" transform="matrix(1,0,0,1,0,0)"><path fill="rgb(7,142,0)" fill-opacity="1" d=" M142.97999572753906,178.18600463867188 C146.97799682617188,188.4199981689453 144.27200317382812,201.27699279785156 127.19000244140625,201.1060028076172 C109.17500305175781,200.9250030517578 100.31999969482422,188.76600646972656 100.31999969482422,188.76600646972656 C100.31999969482422,188.76600646972656 96.78800201416016,218.53700256347656 72.61599731445312,218.99099731445312 C52.902000427246094,219.36199951171875 44.06999969482422,196.0760040283203 44.06999969482422,196.0760040283203 C39.27299880981445,214.16200256347656 24.358999252319336,219.56199645996094 15.050999641418457,215.7969970703125 C1.6519999504089355,210.3769989013672 -1.8899999856948853,194.30599975585938 -1.8899999856948853,194.30599975585938 C-1.8899999856948853,194.30599975585938 -12.359999656677246,220.19000244140625 -39.5,213.4459991455078 C-58.00299835205078,208.84800720214844 -57.36000061035156,185.67599487304688 -57.36000061035156,185.67599487304688 C-57.36000061035156,185.67599487304688 -61.9630012512207,200.54400634765625 -72.09600067138672,209.99200439453125 C-82.36000061035156,219.56199645996094 -101.29900360107422,217.96299743652344 -109.61000061035156,205.70599365234375 C-116.90399932861328,194.94900512695312 -115.30999755859375,185.97999572753906 -111.59300231933594,179.09100341796875 C-106.25599670410156,169.19900512695312 -96.06999969482422,166.13499450683594 -96.06999969482422,166.13499450683594 C-96.06999969482422,166.13499450683594 -108.41000366210938,166.13600158691406 -117.33000183105469,178.18600463867188 C-118.54299926757812,179.8260040283203 -119.50399780273438,181.53399658203125 -120.27200317382812,183.25999450683594 C-120.27200317382812,183.25999450683594 -120.2699966430664,183.23599243164062 -120.2699966430664,183.23599243164062 C-120.2760009765625,183.25900268554688 -120.28399658203125,183.2790069580078 -120.29000091552734,183.302001953125 C-120.5790023803711,183.95399475097656 -120.84700012207031,184.60800170898438 -121.08100128173828,185.26199340820312 C-125.64099884033203,193.51100158691406 -144.46200561523438,193.73399353027344 -149.85000610351562,180.50599670410156 C-157.47000122070312,161.78599548339844 -140.82000732421875,151.0260009765625 -140.02000427246094,150.49600219726562 C-140.32000732421875,150.63600158691406 -140.6199951171875,150.78599548339844 -140.9199981689453,150.9459991455078 C-141.5,151.24600219726562 -142.07000732421875,151.5760040283203 -142.6300048828125,151.92599487304688 C-142.83999633789062,152.05599975585938 -143.0500030517578,152.18600463867188 -143.25999450683594,152.3260040283203 C-143.52999877929688,152.49600219726562 -143.8000030517578,152.68600463867188 -144.07000732421875,152.87600708007812 C-154.61000061035156,160.39599609375 -160.27000427246094,177.1060028076172 -151.27000427246094,193.04600524902344 C-151.07000732421875,193.406005859375 -150.86000061035156,193.7550048828125 -150.63999938964844,194.09500122070312 C-142.35000610351562,207.2550048828125 -125.69999694824219,206.28599548339844 -122.5,205.96600341796875 C-122.5,205.96600341796875 -122.3280029296875,204.20799255371094 -122.3280029296875,204.20799255371094 C-122.12799835205078,205.28500366210938 -121.95999908447266,205.906005859375 -121.95999908447266,205.906005859375 C-121.95999908447266,205.906005859375 -114.80999755859375,225.70599365234375 -95.7300033569336,227.37600708007812 C-68.9800033569336,229.7259979248047 -58.65999984741211,211.04600524902344 -58.65999984741211,211.04600524902344 C-58.65999984741211,211.04600524902344 -52.58000183105469,228.37600708007812 -32.5,228.37600708007812 C-8.84000015258789,228.37600708007812 -2.1600000858306885,212.5659942626953 -2.1600000858306885,212.5659942626953 C-2.1600000858306885,212.5659942626953 3.0199999809265137,227.2259979248047 17.420000076293945,228.37600708007812 C31.81999969482422,229.53599548339844 36.959999084472656,225.39599609375 44.15999984741211,214.0760040283203 C44.15999984741211,214.0760040283203 48.27000045776367,227.55599975585938 70.9000015258789,229.55599975585938 C93.52999877929688,231.5659942626953 101.23999786376953,215.1649932861328 104.33000183105469,204.36500549316406 C104.33000183105469,204.36500549316406 114.62000274658203,212.0760040283203 134.6699981689453,208.4759979248047 C150.57000732421875,205.62600708007812 148.61000061035156,187.58599853515625 142.97999572753906,178.18600463867188z"></path><path stroke-linecap="round" stroke-linejoin="round" fill-opacity="0" stroke="rgb(7,142,0)" stroke-opacity="1" stroke-width="2" d=" M142.97999572753906,178.18600463867188 C146.97799682617188,188.4199981689453 144.27200317382812,201.27699279785156 127.19000244140625,201.1060028076172 C109.17500305175781,200.9250030517578 100.31999969482422,188.76600646972656 100.31999969482422,188.76600646972656 C100.31999969482422,188.76600646972656 96.78800201416016,218.53700256347656 72.61599731445312,218.99099731445312 C52.902000427246094,219.36199951171875 44.06999969482422,196.0760040283203 44.06999969482422,196.0760040283203 C39.27299880981445,214.16200256347656 24.358999252319336,219.56199645996094 15.050999641418457,215.7969970703125 C1.6519999504089355,210.3769989013672 -1.8899999856948853,194.30599975585938 -1.8899999856948853,194.30599975585938 C-1.8899999856948853,194.30599975585938 -12.359999656677246,220.19000244140625 -39.5,213.4459991455078 C-58.00299835205078,208.84800720214844 -57.36000061035156,185.67599487304688 -57.36000061035156,185.67599487304688 C-57.36000061035156,185.67599487304688 -61.9630012512207,200.54400634765625 -72.09600067138672,209.99200439453125 C-82.36000061035156,219.56199645996094 -101.29900360107422,217.96299743652344 -109.61000061035156,205.70599365234375 C-116.90399932861328,194.94900512695312 -115.30999755859375,185.97999572753906 -111.59300231933594,179.09100341796875 C-106.25599670410156,169.19900512695312 -96.06999969482422,166.13499450683594 -96.06999969482422,166.13499450683594 C-96.06999969482422,166.13499450683594 -108.41000366210938,166.13600158691406 -117.33000183105469,178.18600463867188 C-118.54299926757812,179.8260040283203 -119.50399780273438,181.53399658203125 -120.27200317382812,183.25999450683594 C-120.27200317382812,183.25999450683594 -120.2699966430664,183.23599243164062 -120.2699966430664,183.23599243164062 C-120.2760009765625,183.25900268554688 -120.28399658203125,183.2790069580078 -120.29000091552734,183.302001953125 C-120.5790023803711,183.95399475097656 -120.84700012207031,184.60800170898438 -121.08100128173828,185.26199340820312 C-125.64099884033203,193.51100158691406 -144.46200561523438,193.73399353027344 -149.85000610351562,180.50599670410156 C-157.47000122070312,161.78599548339844 -140.82000732421875,151.0260009765625 -140.02000427246094,150.49600219726562 C-140.32000732421875,150.63600158691406 -140.6199951171875,150.78599548339844 -140.9199981689453,150.9459991455078 C-141.5,151.24600219726562 -142.07000732421875,151.5760040283203 -142.6300048828125,151.92599487304688 C-142.83999633789062,152.05599975585938 -143.0500030517578,152.18600463867188 -143.25999450683594,152.3260040283203 C-143.52999877929688,152.49600219726562 -143.8000030517578,152.68600463867188 -144.07000732421875,152.87600708007812 C-154.61000061035156,160.39599609375 -160.27000427246094,177.1060028076172 -151.27000427246094,193.04600524902344 C-151.07000732421875,193.406005859375 -150.86000061035156,193.7550048828125 -150.63999938964844,194.09500122070312 C-142.35000610351562,207.2550048828125 -125.69999694824219,206.28599548339844 -122.5,205.96600341796875 C-122.5,205.96600341796875 -122.3280029296875,204.20799255371094 -122.3280029296875,204.20799255371094 C-122.12799835205078,205.28500366210938 -121.95999908447266,205.906005859375 -121.95999908447266,205.906005859375 C-121.95999908447266,205.906005859375 -114.80999755859375,225.70599365234375 -95.7300033569336,227.37600708007812 C-68.9800033569336,229.7259979248047 -58.65999984741211,211.04600524902344 -58.65999984741211,211.04600524902344 C-58.65999984741211,211.04600524902344 -52.58000183105469,228.37600708007812 -32.5,228.37600708007812 C-8.84000015258789,228.37600708007812 -2.1600000858306885,212.5659942626953 -2.1600000858306885,212.5659942626953 C-2.1600000858306885,212.5659942626953 3.0199999809265137,227.2259979248047 17.420000076293945,228.37600708007812 C31.81999969482422,229.53599548339844 36.959999084472656,225.39599609375 44.15999984741211,214.0760040283203 C44.15999984741211,214.0760040283203 48.27000045776367,227.55599975585938 70.9000015258789,229.55599975585938 C93.52999877929688,231.5659942626953 101.23999786376953,215.1649932861328 104.33000183105469,204.36500549316406 C104.33000183105469,204.36500549316406 114.62000274658203,212.0760040283203 134.6699981689453,208.4759979248047 C150.57000732421875,205.62600708007812 148.61000061035156,187.58599853515625 142.97999572753906,178.18600463867188z"></path></g><g opacity="0.4" transform="matrix(1,0,0,1,0,0)"><path fill="rgb(7,142,0)" fill-opacity="1" d=" M-79.2699966430664,147.25599670410156 C-95.72699737548828,154.87899780273438 -117.33000183105469,149.24600219726562 -117.33000183105469,149.24600219726562 C-121.83000183105469,146.41600036621094 -124.52999877929688,136.08599853515625 -122.27999877929688,128.63600158691406 C-121.4000015258789,125.73600006103516 -116.73999786376953,124.93599700927734 -114.33000183105469,122.63600158691406 C-128.38400268554688,141.49200439453125 -98.55599975585938,152.677001953125 -79.2699966430664,147.25599670410156z"></path><path stroke-linecap="round" stroke-linejoin="round" fill-opacity="0" stroke="rgb(7,142,0)" stroke-opacity="1" stroke-width="2" d=" M-79.2699966430664,147.25599670410156 C-95.72699737548828,154.87899780273438 -117.33000183105469,149.24600219726562 -117.33000183105469,149.24600219726562 C-121.83000183105469,146.41600036621094 -124.52999877929688,136.08599853515625 -122.27999877929688,128.63600158691406 C-121.4000015258789,125.73600006103516 -116.73999786376953,124.93599700927734 -114.33000183105469,122.63600158691406 C-128.38400268554688,141.49200439453125 -98.55599975585938,152.677001953125 -79.2699966430664,147.25599670410156z"></path></g><g opacity="1" transform="matrix(1,0,0,1,0,0)"><g opacity="1" transform="matrix(1,0,0,1,0,0)"><path fill="rgb(151,251,46)" fill-opacity="1" d=" M-95.98400115966797,122.63600158691406 C-106.65499877929688,121.20500183105469 -112.4739990234375,129.54400634765625 -107.04100036621094,137.13800048828125 C-102.0270004272461,144.14599609375 -84.5770034790039,142.677001953125 -82.36000061035156,136.08399963378906 C-80.41300201416016,130.29400634765625 -84.97699737548828,124.11199951171875 -95.98400115966797,122.63600158691406z"></path></g><g opacity="1" transform="matrix(1,0,0,1,0,0)"><path fill="rgb(151,251,46)" fill-opacity="1" d=" M-81.5770034790039,185.218994140625 C-91.71299743652344,182.08799743652344 -105.41300201416016,185.56199645996094 -101.47000122070312,197.04800415039062 C-97.5270004272461,208.53399658203125 -78.66999816894531,207.84800720214844 -73.6989974975586,202.0189971923828 C-68.72799682617188,196.19000244140625 -72.14199829101562,188.13299560546875 -81.5770034790039,185.218994140625z"></path></g><g opacity="1" transform="matrix(1,0,0,1,0,0)"><path fill="rgb(151,251,46)" fill-opacity="1" d=" M-126.927001953125,155.69500732421875 C-135.28199768066406,156.58299255371094 -143.7270050048828,166.61199951171875 -138.927001953125,175.41900634765625 C-134.6929931640625,183.18800354003906 -130.8699951171875,170.10400390625 -120.41300201416016,166.64199829101562 C-110.74199676513672,163.44000244140625 -117.15599822998047,154.656005859375 -126.927001953125,155.69500732421875z"></path></g><g opacity="1" transform="matrix(1,0,0,1,0,0)"><path fill="rgb(151,251,46)" fill-opacity="1" d=" M-23.69700050354004,186.39100646972656 C-31.191999435424805,183.52099609375 -40.60100173950195,185.7050018310547 -41.54999923706055,192.39100646972656 C-42.499000549316406,199.07699584960938 -38.21200180053711,204.39100646972656 -27.240999221801758,205.2480010986328 C-18.417999267578125,205.93699645996094 -4.895999908447266,193.59100341796875 -23.69700050354004,186.39100646972656z"></path></g><g opacity="1" transform="matrix(1,0,0,1,0,0)"><path fill="rgb(151,251,46)" fill-opacity="1" d=" M84.53900146484375,186.33700561523438 C79.63700103759766,188.03599548339844 69.38300323486328,195.75900268554688 72.90399932861328,205.76600646972656 C76.42500305175781,215.7729949951172 88.65799713134766,204.2220001220703 91.08699798583984,195.58399963378906 C93.51599884033203,186.9459991455078 88.5,184.96400451660156 84.53900146484375,186.33700561523438z"></path></g><g opacity="1" transform="matrix(1,0,0,1,0,0)"><path fill="rgb(151,251,46)" fill-opacity="1" d=" M132.74400329589844,178.18499755859375 C129.04299926757812,176.55499267578125 120.65899658203125,176.23399353027344 116.02999877929688,180.34800720214844 C111.4010009765625,184.46200561523438 124.12999725341797,191.0189971923828 131.97300720214844,190.89100646972656 C139.8159942626953,190.76199340820312 140.97300720214844,181.80799865722656 132.74400329589844,178.18499755859375z"></path></g><g opacity="1" transform="matrix(1,0,0,1,0,0)"><path fill="rgb(151,251,46)" fill-opacity="1" d=" M133.38699340820312,145.67599487304688 C129.46800231933594,144.68099975585938 124.12999725341797,146.7899932861328 125.41600036621094,151.0760040283203 C126.7020034790039,155.36199951171875 137.072998046875,157.76199340820312 139.47300720214844,154.5050048828125 C141.8730010986328,151.2480010986328 138.78700256347656,147.0469970703125 133.38699340820312,145.67599487304688z"></path></g></g></g><g style="display: block;" transform="matrix(1,0,0,1,246,256)" opacity="1"><g opacity="0.3" transform="matrix(1,0,0,1,0,0)"><path fill="rgb(7,142,0)" fill-opacity="1" d=" M-17.551000595092773,-0.13300000131130219 C-17.551000595092773,-0.13300000131130219 -23.80299949645996,39.29600143432617 -15.706000328063965,48.895999908447266 C-7.609000205993652,58.49599838256836 0.47200000286102295,39.17499923706055 -1.8539999723434448,18.149999618530273 C-1.8539999723434448,18.149999618530273 -6.406000137329102,44.034000396728516 -12.409000396728516,43.486000061035156 C-18.41200065612793,42.9379997253418 -17.551000595092773,-0.13300000131130219 -17.551000595092773,-0.13300000131130219z"></path><path stroke-linecap="round" stroke-linejoin="round" fill-opacity="0" stroke="rgb(7,142,0)" stroke-opacity="1" stroke-width="2" d=" M-17.551000595092773,-0.13300000131130219 C-17.551000595092773,-0.13300000131130219 -23.80299949645996,39.29600143432617 -15.706000328063965,48.895999908447266 C-7.609000205993652,58.49599838256836 0.47200000286102295,39.17499923706055 -1.8539999723434448,18.149999618530273 C-1.8539999723434448,18.149999618530273 -6.406000137329102,44.034000396728516 -12.409000396728516,43.486000061035156 C-18.41200065612793,42.9379997253418 -17.551000595092773,-0.13300000131130219 -17.551000595092773,-0.13300000131130219z"></path></g><g opacity="1" transform="matrix(1,0,0,1,0,0)"><g opacity="0.3" transform="matrix(1,0,0,1,0,0)"><path fill="rgb(7,142,0)" fill-opacity="1" d=" M-39.52000045776367,36.183998107910156 C-39.52000045776367,36.183998107910156 -37.441001892089844,79.11499786376953 -52.88399887084961,111.08899688720703 C-62.49800109863281,130.99400329589844 -58.63399887084961,136.9459991455078 -52.20100021362305,138.3979949951172 C-43.11399841308594,140.44900512695312 -26.315000534057617,129.8820037841797 -26.81999969482422,88.94100189208984 C-26.81999969482422,88.94100189208984 -23.945999145507812,136.91400146484375 -46.05799865722656,146.59800720214844 C-65.4739990234375,155.1020050048828 -70.94599914550781,131.1179962158203 -62.380001068115234,115.95800018310547 C-50.28099822998047,94.54499816894531 -44.54999923706055,76.50399780273438 -39.52000045776367,36.183998107910156z"></path><path stroke-linecap="round" stroke-linejoin="round" fill-opacity="0" stroke="rgb(7,142,0)" stroke-opacity="1" stroke-width="2" d=" M-39.52000045776367,36.183998107910156 C-39.52000045776367,36.183998107910156 -37.441001892089844,79.11499786376953 -52.88399887084961,111.08899688720703 C-62.49800109863281,130.99400329589844 -58.63399887084961,136.9459991455078 -52.20100021362305,138.3979949951172 C-43.11399841308594,140.44900512695312 -26.315000534057617,129.8820037841797 -26.81999969482422,88.94100189208984 C-26.81999969482422,88.94100189208984 -23.945999145507812,136.91400146484375 -46.05799865722656,146.59800720214844 C-65.4739990234375,155.1020050048828 -70.94599914550781,131.1179962158203 -62.380001068115234,115.95800018310547 C-50.28099822998047,94.54499816894531 -44.54999923706055,76.50399780273438 -39.52000045776367,36.183998107910156z"></path></g><g opacity="0.6" transform="matrix(1,0,0,1,0,0)"><path fill="rgb(131,235,22)" fill-opacity="1" d=" M-38.38399887084961,102.81900024414062 C-44.672000885009766,101.14199829101562 -54.07500076293945,122.63500213623047 -50.72700119018555,128.5330047607422 C-42.80500030517578,142.48699951171875 -27.840999603271484,105.63099670410156 -38.38399887084961,102.81900024414062z"></path></g></g><g opacity="1" transform="matrix(1,0,0,1,0,0)"><g opacity="0.6" transform="matrix(1,0,0,1,0,0)"><path fill="rgb(131,235,22)" fill-opacity="1" d=" M31.1299991607666,70.28800201416016 C28.913999557495117,71.64900207519531 29.31800079345703,94.38999938964844 32.130001068115234,98.2509994506836 C38.04399871826172,106.37100219726562 36.7869987487793,66.81400299072266 31.1299991607666,70.28800201416016z"></path></g><g opacity="0.3" transform="matrix(1,0,0,1,0,0)"><path fill="rgb(7,142,0)" fill-opacity="1" d=" M38.560001373291016,43.63800048828125 C39.145999908447266,42.49399948120117 41.137001037597656,67.47000122070312 44.444000244140625,86.83799743652344 C47.32899856567383,103.73600006103516 46.9010009765625,113.9229965209961 37.30099868774414,114.60900115966797 C27.701000213623047,115.29499816894531 16.58099937438965,99.44400024414062 20.010000228881836,60.78900146484375 C20.010000228881836,60.78900146484375 21.128000259399414,86.94499969482422 28.386999130249023,100.20899963378906 C36.255001068115234,114.58599853515625 41.064998626708984,105.43000030517578 40.04399871826172,89.23799896240234 C38.8489990234375,70.28700256347656 38.560001373291016,43.63800048828125 38.560001373291016,43.63800048828125z"></path><path stroke-linecap="round" stroke-linejoin="round" fill-opacity="0" stroke="rgb(7,142,0)" stroke-opacity="1" stroke-width="2" d=" M38.560001373291016,43.63800048828125 C39.145999908447266,42.49399948120117 41.137001037597656,67.47000122070312 44.444000244140625,86.83799743652344 C47.32899856567383,103.73600006103516 46.9010009765625,113.9229965209961 37.30099868774414,114.60900115966797 C27.701000213623047,115.29499816894531 16.58099937438965,99.44400024414062 20.010000228881836,60.78900146484375 C20.010000228881836,60.78900146484375 21.128000259399414,86.94499969482422 28.386999130249023,100.20899963378906 C36.255001068115234,114.58599853515625 41.064998626708984,105.43000030517578 40.04399871826172,89.23799896240234 C38.8489990234375,70.28700256347656 38.560001373291016,43.63800048828125 38.560001373291016,43.63800048828125z"></path></g></g></g><g style="display: block;" transform="matrix(1,0,0,1,246,256)" opacity="1"><g opacity="1" transform="matrix(1,0,0,1,0,0)"><path fill="rgb(151,251,46)" fill-opacity="1" d=" M5.822000026702881,1.1319999694824219 C5.321000099182129,9.14900016784668 8.984000205993652,24.790000915527344 13.27400016784668,16.92799949645996 C17.56399917602539,9.065999984741211 21.915000915527344,23.731000900268555 25.246000289916992,35.641998291015625 C27.51099967956543,43.74300003051758 32.63600158691406,14.258000373840332 29.513999938964844,5.004000186920166 C26.392000198364258,-4.25 23.56999969482422,9.137999534606934 20.30500030517578,9.473999977111816 C17.040000915527344,9.8100004196167 7.132999897003174,-19.86400032043457 5.822000026702881,1.1319999694824219z"></path></g><g opacity="1" transform="matrix(1,0,0,1,0,0)"><path fill="rgb(151,251,46)" fill-opacity="1" d=" M-29.31999969482422,49.49599838256836 C-28.312999725341797,31.190000534057617 -25.160999298095703,50.680999755859375 -19.229000091552734,61.060001373291016 C-15.60200023651123,67.40699768066406 -7.682000160217285,67.84300231933594 -4.242000102996826,61.46799850463867 C-1.2109999656677246,55.849998474121094 2.1110000610351562,45.28499984741211 5.125,42.68899917602539 C11.125,37.520999908447266 13.906999588012695,46.14799880981445 12.765999794006348,63.77899932861328 C11.052000045776367,90.26699829101562 1.7949999570846558,105.7750015258789 0.4230000078678131,83.96399688720703 C-0.9480000138282776,62.15299987792969 -2.319999933242798,99.5250015258789 -9.177000045776367,106.03900146484375 C-16.034000396728516,112.5530014038086 -18.464000701904297,93.69599914550781 -19.135000228881836,81.35299682617188 C-19.743000030517578,70.15799713134766 -27.29199981689453,98.0999984741211 -28.91900062561035,63.2859992980957 C-29.086000442504883,59.71799850463867 -29.5939998626709,54.48500061035156 -29.31999969482422,49.49599838256836z"></path></g><g opacity="1" transform="matrix(1,0,0,1,0,0)"><path fill="rgb(151,251,46)" fill-opacity="1" d=" M55.8120002746582,82.78600311279297 C60.882999420166016,94.83899688720703 61.37699890136719,90.7760009765625 63.74100112915039,81.57099914550781 C66.1050033569336,72.36599731445312 69.9020004272461,94.66200256347656 72.71099853515625,106.4260025024414 C75.5199966430664,118.19000244140625 70.18099975585938,114.06800079345703 66.09700012207031,102.74299621582031 C62.01300048828125,91.41799926757812 63.487998962402344,108.51000213623047 61.167999267578125,111.802001953125 C58.847999572753906,115.09400177001953 45.297000885009766,57.792999267578125 55.8120002746582,82.78600311279297z"></path></g></g><g style="display: block;" transform="matrix(1,0,0,1,246,256)" opacity="1"><g opacity="1" transform="matrix(1,0,0,1,0,0)"><g opacity="0.3" transform="matrix(1,0,0,1,0,0)"><path fill="rgb(7,142,0)" fill-opacity="1" d=" M-12.812999725341797,119.19400024414062 C-12.812999725341797,119.19400024414062 -16.850000381469727,134.9219970703125 -22.784000396728516,150.3939971923828 C-29.641000747680664,168.2729949951172 -24.12700080871582,178.8509979248047 -12.812999725341797,182.96499633789062 C2.065000057220459,188.375 17.701000213623047,178.27999877929688 17.701000213623047,163.79400634765625 C17.701000213623047,147.67999267578125 13.930000305175781,118.93699645996094 11.383000373840332,97.2509994506836 C11.383000373840332,97.2509994506836 9.130000114440918,125.64399719238281 11.767000198364258,153.47999572753906 C13.935999870300293,176.3780059814453 -8.651000022888184,178.50900268554688 -16.240999221801758,170.27999877929688 C-26.253000259399414,159.42599487304688 -12.812999725341797,134.27999877929688 -12.812999725341797,119.19400024414062z"></path><path stroke-linecap="round" stroke-linejoin="round" fill-opacity="0" stroke="rgb(7,142,0)" stroke-opacity="1" stroke-width="2" d=" M-12.812999725341797,119.19400024414062 C-12.812999725341797,119.19400024414062 -16.850000381469727,134.9219970703125 -22.784000396728516,150.3939971923828 C-29.641000747680664,168.2729949951172 -24.12700080871582,178.8509979248047 -12.812999725341797,182.96499633789062 C2.065000057220459,188.375 17.701000213623047,178.27999877929688 17.701000213623047,163.79400634765625 C17.701000213623047,147.67999267578125 13.930000305175781,118.93699645996094 11.383000373840332,97.2509994506836 C11.383000373840332,97.2509994506836 9.130000114440918,125.64399719238281 11.767000198364258,153.47999572753906 C13.935999870300293,176.3780059814453 -8.651000022888184,178.50900268554688 -16.240999221801758,170.27999877929688 C-26.253000259399414,159.42599487304688 -12.812999725341797,134.27999877929688 -12.812999725341797,119.19400024414062z"></path></g><g opacity="1" transform="matrix(1,0,0,1,0,0)"><path fill="rgb(151,251,46)" fill-opacity="1" d=" M3.2730000019073486,141.7550048828125 C0.878000020980835,137.6820068359375 -6.74399995803833,140.8769989013672 -9.064000129699707,147.04800415039062 C-11.385000228881836,153.218994140625 -12.871000289916992,167.7480010986328 -2.88700008392334,168.82200622558594 C7.0970001220703125,169.89599609375 8.930000305175781,151.37600708007812 3.2730000019073486,141.7550048828125z"></path></g></g><g opacity="1" transform="matrix(1,0,0,1,0,0)"><g opacity="0.3" transform="matrix(1,0,0,1,0,0)"><path fill="rgb(7,142,0)" fill-opacity="1" d=" M71.38700103759766,119.61100006103516 C71.38700103759766,119.61100006103516 79.81600189208984,128.52499389648438 85.4000015258789,133.6959991455078 C99.11599731445312,146.39700317382812 96.63600158691406,165.66600036621094 84.69400024414062,170.43099975585938 C73.08699798583984,175.06199645996094 62.67300033569336,171.7689971923828 56.24399948120117,164.44000244140625 C56.24399948120117,164.44000244140625 55.215999603271484,179.78399658203125 42.87300109863281,179.66799926757812 C29.341999053955078,179.54100036621094 25.93000030517578,168.21099853515625 28.159000396728516,161.52499389648438 C28.159000396728516,161.52499389648438 29.51799964904785,171.85499572753906 38.41600036621094,173.13999938964844 C54.832000732421875,175.50999450683594 53.30099868774414,153.85400390625 53.30099868774414,153.85400390625 C53.30099868774414,153.85400390625 57.96500015258789,166.38099670410156 71.43699645996094,165.79100036621094 C84.90899658203125,165.2010040283203 92.19999694824219,155.14599609375 88.06300354003906,143.95700073242188 C84.58000183105469,134.53700256347656 79.78299713134766,130.9759979248047 71.38700103759766,119.61100006103516z"></path><path stroke-linecap="round" stroke-linejoin="round" fill-opacity="0" stroke="rgb(7,142,0)" stroke-opacity="1" stroke-width="2" d=" M71.38700103759766,119.61100006103516 C71.38700103759766,119.61100006103516 79.81600189208984,128.52499389648438 85.4000015258789,133.6959991455078 C99.11599731445312,146.39700317382812 96.63600158691406,165.66600036621094 84.69400024414062,170.43099975585938 C73.08699798583984,175.06199645996094 62.67300033569336,171.7689971923828 56.24399948120117,164.44000244140625 C56.24399948120117,164.44000244140625 55.215999603271484,179.78399658203125 42.87300109863281,179.66799926757812 C29.341999053955078,179.54100036621094 25.93000030517578,168.21099853515625 28.159000396728516,161.52499389648438 C28.159000396728516,161.52499389648438 29.51799964904785,171.85499572753906 38.41600036621094,173.13999938964844 C54.832000732421875,175.50999450683594 53.30099868774414,153.85400390625 53.30099868774414,153.85400390625 C53.30099868774414,153.85400390625 57.96500015258789,166.38099670410156 71.43699645996094,165.79100036621094 C84.90899658203125,165.2010040283203 92.19999694824219,155.14599609375 88.06300354003906,143.95700073242188 C84.58000183105469,134.53700256347656 79.78299713134766,130.9759979248047 71.38700103759766,119.61100006103516z"></path></g><g opacity="1" transform="matrix(1,0,0,1,0,0)"><path fill="rgb(151,251,46)" fill-opacity="1" d=" M41.96200180053711,153.2169952392578 C37.86399841308594,154.39300537109375 33.21799850463867,161.8419952392578 37.24399948120117,167.13400268554688 C41.33000183105469,172.5050048828125 47.244998931884766,164.46499633789062 48.01599884033203,160.17599487304688 C48.5369987487793,157.2779998779297 46.45100021362305,151.9290008544922 41.96200180053711,153.2169952392578z"></path></g><g opacity="1" transform="matrix(1,0,0,1,0,0)"><path fill="rgb(131,235,22)" fill-opacity="1" d=" M81.54100036621094,155.4810028076172 C87.00700378417969,149.05599975585938 81.55000305175781,136.54400634765625 73.7699966430664,134.7239990234375 C65.98999786376953,132.9040069580078 65.2750015258789,146.49600219726562 68.63300323486328,152.46200561523438 C71.99099731445312,158.42799377441406 78.22100067138672,159.38299560546875 81.54100036621094,155.4810028076172z"></path></g></g><g opacity="1" transform="matrix(1,0,0,1,0,0)"><g opacity="0.3" transform="matrix(1,0,0,1,0,0)"><path fill="rgb(7,142,0)" fill-opacity="1" d=" M-71.00599670410156,156.80099487304688 C-77.36499786376953,160.98500061035156 -77.26399993896484,171.0540008544922 -69.16799926757812,176.08299255371094 C-61.071998596191406,181.11199951171875 -49.42900085449219,176.51600646972656 -47.99399948120117,170.37899780273438 C-47.99399948120117,170.37899780273438 -58.915000915527344,176.13900756835938 -67.45899963378906,171.10000610351562 C-76.50900268554688,165.76300048828125 -71.00599670410156,156.80099487304688 -71.00599670410156,156.80099487304688z"></path><path stroke-linecap="round" stroke-linejoin="round" fill-opacity="0" stroke="rgb(7,142,0)" stroke-opacity="1" stroke-width="2" d=" M-71.00599670410156,156.80099487304688 C-77.36499786376953,160.98500061035156 -77.26399993896484,171.0540008544922 -69.16799926757812,176.08299255371094 C-61.071998596191406,181.11199951171875 -49.42900085449219,176.51600646972656 -47.99399948120117,170.37899780273438 C-47.99399948120117,170.37899780273438 -58.915000915527344,176.13900756835938 -67.45899963378906,171.10000610351562 C-76.50900268554688,165.76300048828125 -71.00599670410156,156.80099487304688 -71.00599670410156,156.80099487304688z"></path></g><g opacity="1" transform="matrix(1,0,0,1,0,0)"><path fill="rgb(151,251,46)" fill-opacity="1" d=" M-30.952999114990234,141.7550048828125 C-35.28499984741211,148.32200622558594 -44.04800033569336,154.24899291992188 -55.64099884033203,157.8780059814453 C-65.99099731445312,161.1179962158203 -63.13199996948242,170.07699584960938 -53.07600021362305,166.64199829101562 C-43.0890007019043,163.22999572753906 -40.840999603271484,156.76600646972656 -41.527000427246094,168.92100524902344 C-42.2130012512207,181.0760040283203 -34.37900161743164,172.40899658203125 -31.952999114990234,160.9709930419922 C-29.527000427246094,149.5330047607422 -24.46500015258789,131.91900634765625 -30.952999114990234,141.7550048828125z"></path></g></g></g><g style="display: block;" transform="matrix(1,0,0,1,246,256)" opacity="1"><g opacity="1" transform="matrix(1,0,0,1,0,0)"><path stroke-linecap="round" stroke-linejoin="round" fill-opacity="0" stroke="rgb(122,221,18)" stroke-opacity="1" stroke-width="16" d=" M94.10399627685547,20.854000091552734 C74.1709976196289,1.2760000228881836 41.604000091552734,-11.67199993133545 5.044000148773193,-11.67199993133545 C-30.04199981689453,-11.67199993133545 -56.23899841308594,2.128999948501587 -73.72799682617188,17.760000228881836"></path></g></g><g style="display: block;" transform="matrix(1,0,0,1,246,256)" opacity="1"><g opacity="0.4" transform="matrix(1,0,0,1,0,0)"><path fill="rgb(7,142,0)" fill-opacity="1" d=" M100.31999969482422,16.06599998474121 C100.31999969482422,16.06599998474121 100.31999969482422,136.1959991455078 100.31999969482422,136.1959991455078 C100.31999969482422,136.1959991455078 62.67300033569336,103.04900360107422 60.880001068115234,-9.633999824523926 C76.81999969482422,-3.503999948501587 90.37999725341797,5.355999946594238 100.31999969482422,16.06599998474121z"></path></g><g opacity="0.4" transform="matrix(1,0,0,1,0,0)"><path fill="rgb(7,142,0)" fill-opacity="1" d=" M-44.54999923706055,-9.163999557495117 C-44.54999923706055,-9.163999557495117 -47.130001068115234,117.04499816894531 -82.11000061035156,121.15499877929688 C-82.11000061035156,121.15499877929688 -82.36000061035156,15.595999717712402 -82.36000061035156,15.595999717712402 C-72.70999908447266,5.366000175476074 -59.7400016784668,-3.1440000534057617 -44.54999923706055,-9.163999557495117z"></path></g></g><g style="display: block;" transform="matrix(1,0,0,1,256,256)" opacity="1"><g opacity="1" transform="matrix(1,0,0,1,0,0)"><path fill="rgb(7,142,0)" fill-opacity="1" d=" M-87.75,10.875 C-89.56300354003906,12.25 -96.125,19.875 -96.125,19.875 C-96.125,19.875 -95.625,26.875 -95.625,26.875 C-95.625,26.875 -88,26.625 -88,26.625 C-88,26.625 -87.81300354003906,18.937999725341797 -87.75,10.875z"></path></g><g opacity="1" transform="matrix(1,0,0,1,0,0)"><path fill="rgb(7,142,0)" fill-opacity="1" d=" M86.81300354003906,12.75 C88.63899993896484,14.125 95.25,21.75 95.25,21.75 C95.25,21.75 94.74600219726562,28.75 94.74600219726562,28.75 C94.74600219726562,28.75 87.06400299072266,28.5 87.06400299072266,28.5 C87.06400299072266,28.5 86.8759994506836,20.812999725341797 86.81300354003906,12.75z"></path></g></g><g style="display: block;" transform="matrix(1,0,0,1,246,256)" opacity="1"><g opacity="1" transform="matrix(1,0,0,1,0,0)"><path fill="rgb(183,146,29)" fill-opacity="1" d=" M47.525001525878906,132.56300354003906 C47.525001525878906,135.63499450683594 45.034000396728516,138.12600708007812 41.96200180053711,138.12600708007812 C38.88999938964844,138.12600708007812 36.39899826049805,135.63499450683594 36.39899826049805,132.56300354003906 C36.39899826049805,129.49099731445312 38.88999938964844,127 41.96200180053711,127 C45.034000396728516,127 47.525001525878906,129.49099731445312 47.525001525878906,132.56300354003906z"></path><path stroke-linecap="butt" stroke-linejoin="miter" fill-opacity="0" stroke-miterlimit="10" stroke="rgb(155,127,16)" stroke-opacity="1" stroke-width="4" d=" M47.525001525878906,132.56300354003906 C47.525001525878906,135.63499450683594 45.034000396728516,138.12600708007812 41.96200180053711,138.12600708007812 C38.88999938964844,138.12600708007812 36.39899826049805,135.63499450683594 36.39899826049805,132.56300354003906 C36.39899826049805,129.49099731445312 38.88999938964844,127 41.96200180053711,127 C45.034000396728516,127 47.525001525878906,129.49099731445312 47.525001525878906,132.56300354003906z"></path></g><g opacity="1" transform="matrix(1,0,0,1,0,0)"><path fill="rgb(183,146,29)" fill-opacity="1" d=" M48.70800018310547,20.996000289916992 C48.70800018310547,24.722000122070312 45.6879997253418,27.740999221801758 41.96200180053711,27.740999221801758 C38.236000061035156,27.740999221801758 35.215999603271484,24.722000122070312 35.215999603271484,20.996000289916992 C35.215999603271484,17.270000457763672 38.236000061035156,14.25 41.96200180053711,14.25 C45.6879997253418,14.25 48.70800018310547,17.270000457763672 48.70800018310547,20.996000289916992z"></path><path stroke-linecap="butt" stroke-linejoin="miter" fill-opacity="0" stroke-miterlimit="10" stroke="rgb(155,127,16)" stroke-opacity="1" stroke-width="4" d=" M48.70800018310547,20.996000289916992 C48.70800018310547,24.722000122070312 45.6879997253418,27.740999221801758 41.96200180053711,27.740999221801758 C38.236000061035156,27.740999221801758 35.215999603271484,24.722000122070312 35.215999603271484,20.996000289916992 C35.215999603271484,17.270000457763672 38.236000061035156,14.25 41.96200180053711,14.25 C45.6879997253418,14.25 48.70800018310547,17.270000457763672 48.70800018310547,20.996000289916992z"></path></g><g opacity="1" transform="matrix(1,0,0,1,0,0)"><path fill="rgb(204,199,33)" fill-opacity="1" d=" M-11.25,107.37100219726562 C-11.25,110.6729965209961 -13.925999641418457,113.3489990234375 -17.22800064086914,113.3489990234375 C-20.530000686645508,113.3489990234375 -23.20599937438965,110.6729965209961 -23.20599937438965,107.37100219726562 C-23.20599937438965,104.06900024414062 -20.530000686645508,101.39299774169922 -17.22800064086914,101.39299774169922 C-13.925999641418457,101.39299774169922 -11.25,104.06900024414062 -11.25,107.37100219726562z"></path><path stroke-linecap="butt" stroke-linejoin="miter" fill-opacity="0" stroke-miterlimit="10" stroke="rgb(98,149,13)" stroke-opacity="1" stroke-width="4" d=" M-11.25,107.37100219726562 C-11.25,110.6729965209961 -13.925999641418457,113.3489990234375 -17.22800064086914,113.3489990234375 C-20.530000686645508,113.3489990234375 -23.20599937438965,110.6729965209961 -23.20599937438965,107.37100219726562 C-23.20599937438965,104.06900024414062 -20.530000686645508,101.39299774169922 -17.22800064086914,101.39299774169922 C-13.925999641418457,101.39299774169922 -11.25,104.06900024414062 -11.25,107.37100219726562z"></path></g><g opacity="1" transform="matrix(1,0,0,1,0,0)"><path fill="rgb(183,146,29)" fill-opacity="1" d=" M-81.5,172.80799865722656 C-81.5,176.70599365234375 -84.4010009765625,179.86599731445312 -87.98100280761719,179.86599731445312 C-91.56099700927734,179.86599731445312 -94.46299743652344,176.70599365234375 -94.46299743652344,172.80799865722656 C-94.46299743652344,168.91000366210938 -91.56099700927734,165.75 -87.98100280761719,165.75 C-84.4010009765625,165.75 -81.5,168.91000366210938 -81.5,172.80799865722656z"></path><path stroke-linecap="butt" stroke-linejoin="miter" fill-opacity="0" stroke-miterlimit="10" stroke="rgb(155,127,16)" stroke-opacity="1" stroke-width="4" d=" M-81.5,172.80799865722656 C-81.5,176.70599365234375 -84.4010009765625,179.86599731445312 -87.98100280761719,179.86599731445312 C-91.56099700927734,179.86599731445312 -94.46299743652344,176.70599365234375 -94.46299743652344,172.80799865722656 C-94.46299743652344,168.91000366210938 -91.56099700927734,165.75 -87.98100280761719,165.75 C-84.4010009765625,165.75 -81.5,168.91000366210938 -81.5,172.80799865722656z"></path></g><g opacity="1" transform="matrix(1,0,0,1,0,0)"><path fill="rgb(204,199,33)" fill-opacity="1" d=" M29.5,194.76199340820312 C29.5,198.4199981689453 26.53499984741211,201.38499450683594 22.87700080871582,201.38499450683594 C19.2189998626709,201.38499450683594 16.2549991607666,198.4199981689453 16.2549991607666,194.76199340820312 C16.2549991607666,191.10400390625 19.2189998626709,188.13900756835938 22.87700080871582,188.13900756835938 C26.53499984741211,188.13900756835938 29.5,191.10400390625 29.5,194.76199340820312z"></path><path stroke-linecap="butt" stroke-linejoin="miter" fill-opacity="0" stroke-miterlimit="10" stroke="rgb(98,149,13)" stroke-opacity="1" stroke-width="4" d=" M29.5,194.76199340820312 C29.5,198.4199981689453 26.53499984741211,201.38499450683594 22.87700080871582,201.38499450683594 C19.2189998626709,201.38499450683594 16.2549991607666,198.4199981689453 16.2549991607666,194.76199340820312 C16.2549991607666,191.10400390625 19.2189998626709,188.13900756835938 22.87700080871582,188.13900756835938 C26.53499984741211,188.13900756835938 29.5,191.10400390625 29.5,194.76199340820312z"></path></g><g opacity="1" transform="matrix(1,0,0,1,0,0)"><path fill="rgb(204,199,33)" fill-opacity="1" d=" M88.20999908447266,69.822998046875 C88.20999908447266,73.177001953125 85.49099731445312,75.89600372314453 82.13700103759766,75.89600372314453 C78.78299713134766,75.89600372314453 76.06400299072266,73.177001953125 76.06400299072266,69.822998046875 C76.06400299072266,66.46900177001953 78.78299713134766,63.75 82.13700103759766,63.75 C85.49099731445312,63.75 88.20999908447266,66.46900177001953 88.20999908447266,69.822998046875z"></path><path stroke-linecap="butt" stroke-linejoin="miter" fill-opacity="0" stroke-miterlimit="10" stroke="rgb(98,149,13)" stroke-opacity="1" stroke-width="4" d=" M88.20999908447266,69.822998046875 C88.20999908447266,73.177001953125 85.49099731445312,75.89600372314453 82.13700103759766,75.89600372314453 C78.78299713134766,75.89600372314453 76.06400299072266,73.177001953125 76.06400299072266,69.822998046875 C76.06400299072266,66.46900177001953 78.78299713134766,63.75 82.13700103759766,63.75 C85.49099731445312,63.75 88.20999908447266,66.46900177001953 88.20999908447266,69.822998046875z"></path></g><g opacity="1" transform="matrix(1,0,0,1,0,0)"><path fill="rgb(204,199,33)" fill-opacity="1" d=" M-55.66899871826172,38.986000061035156 C-55.66899871826172,42.84400177001953 -58.797000885009766,45.97200012207031 -62.654998779296875,45.97200012207031 C-66.51300048828125,45.97200012207031 -69.64099884033203,42.84400177001953 -69.64099884033203,38.986000061035156 C-69.64099884033203,35.12799835205078 -66.51300048828125,32 -62.654998779296875,32 C-58.797000885009766,32 -55.66899871826172,35.12799835205078 -55.66899871826172,38.986000061035156z"></path><path stroke-linecap="butt" stroke-linejoin="miter" fill-opacity="0" stroke-miterlimit="10" stroke="rgb(98,149,13)" stroke-opacity="1" stroke-width="4" d=" M-55.66899871826172,38.986000061035156 C-55.66899871826172,42.84400177001953 -58.797000885009766,45.97200012207031 -62.654998779296875,45.97200012207031 C-66.51300048828125,45.97200012207031 -69.64099884033203,42.84400177001953 -69.64099884033203,38.986000061035156 C-69.64099884033203,35.12799835205078 -66.51300048828125,32 -62.654998779296875,32 C-58.797000885009766,32 -55.66899871826172,35.12799835205078 -55.66899871826172,38.986000061035156z"></path></g></g><g style="display: block;" transform="matrix(1,0,0,1,246,256)" opacity="1"><g opacity="1" transform="matrix(1,0,0,1,0,0)"><g opacity="1" transform="matrix(1,0,0,1,0,0)"><path fill="rgb(122,221,18)" fill-opacity="1" d=" M198.15699768066406,121.91999816894531 C192.21200561523438,117.31800079345703 171.18699645996094,121.04900360107422 169.1300048828125,134.16299438476562 C167.072998046875,147.27699279785156 188.1580047607422,143.16299438476562 195.1009979248047,138.53399658203125 C202.04400634765625,133.90499877929688 203.27000427246094,125.87799835205078 198.15699768066406,121.91999816894531z"></path><path stroke-linecap="butt" stroke-linejoin="miter" fill-opacity="0" stroke-miterlimit="10" stroke="rgb(7,142,0)" stroke-opacity="1" stroke-width="8" d=" M198.15699768066406,121.91999816894531 C192.21200561523438,117.31800079345703 171.18699645996094,121.04900360107422 169.1300048828125,134.16299438476562 C167.072998046875,147.27699279785156 188.1580047607422,143.16299438476562 195.1009979248047,138.53399658203125 C202.04400634765625,133.90499877929688 203.27000427246094,125.87799835205078 198.15699768066406,121.91999816894531z"></path></g></g><g opacity="1" transform="matrix(1,0,0,1,0,0)"><g opacity="1" transform="matrix(1,0,0,1,0,0)"><path fill="rgb(122,221,18)" fill-opacity="1" d=" M-182.64100646972656,157.56300354003906 C-189.6479949951172,155.1699981689453 -198.97000122070312,156.81900024414062 -201.04100036621094,165.13499450683594 C-203.28599548339844,174.1479949951172 -186.74400329589844,179.4199981689453 -177.49899291992188,175.30599975585938 C-170.9550018310547,172.39300537109375 -172.09800720214844,161.16299438476562 -182.64100646972656,157.56300354003906z"></path><path stroke-linecap="butt" stroke-linejoin="miter" fill-opacity="0" stroke-miterlimit="10" stroke="rgb(7,142,0)" stroke-opacity="1" stroke-width="8" d=" M-182.64100646972656,157.56300354003906 C-189.6479949951172,155.1699981689453 -198.97000122070312,156.81900024414062 -201.04100036621094,165.13499450683594 C-203.28599548339844,174.1479949951172 -186.74400329589844,179.4199981689453 -177.49899291992188,175.30599975585938 C-170.9550018310547,172.39300537109375 -172.09800720214844,161.16299438476562 -182.64100646972656,157.56300354003906z"></path></g></g></g><g style="display: block;" transform="matrix(1,0,0,1,246,256)" opacity="1"><g opacity="0.31" transform="matrix(1,0,0,1,0,0)"><path fill="rgb(71,34,0)" fill-opacity="1" d=" M118.38999938964844,58.928001403808594 C118.38999938964844,62.78799819946289 118,66.5780029296875 117.2300033569336,70.28800201416016 C109.5,32.63800048828125 63.880001068115234,3.7179999351501465 8.770000457763672,3.7179999351501465 C-46.349998474121094,3.7179999351501465 -91.97000122070312,32.63800048828125 -99.69999694824219,70.28800201416016 C-100.47000122070312,66.5780029296875 -100.86000061035156,62.78799819946289 -100.86000061035156,58.928001403808594 C-100.86000061035156,15.89799976348877 -51.779998779296875,-18.992000579833984 8.770000457763672,-18.992000579833984 C69.30999755859375,-18.992000579833984 118.38999938964844,15.89799976348877 118.38999938964844,58.928001403808594z"></path></g></g><g style="display: block;" transform="matrix(1,0,0,1,246,256)" opacity="1"><g opacity="1" transform="matrix(1,0,0,1,0,0)"><path fill="rgb(255,238,189)" fill-opacity="1" d=" M-15.73799991607666,-75.6259994506836 C-15.73799991607666,-91.41200256347656 -37.512001037597656,-95.5459976196289 -59.48699951171875,-106.05699920654297 C-83.74199676513672,-117.65899658203125 -102.22799682617188,-131.0850067138672 -101.57099914550781,-119.65799713134766 C-101.15799713134766,-112.46700286865234 -48.766998291015625,-85.447998046875 -48.87699890136719,-74.6259994506836 C-48.97800064086914,-64.71600341796875 -96.14199829101562,-34.707000732421875 -90.19000244140625,-25.621000289916992 C-89.87899780273438,-25.145000457763672 -89.375,-24.858999252319336 -88.39800262451172,-24.899999618530273 C-76.97200012207031,-25.378000259399414 -15.73799991607666,-60.323001861572266 -15.73799991607666,-75.6259994506836z"></path></g><g opacity="1" transform="matrix(1,0,0,1,0,0)"><path fill="rgb(134,63,20)" fill-opacity="1" d=" M-16.738000869750977,-79.6259994506836 C-16.738000869750977,-89.57599639892578 -37.512001037597656,-99.5459976196289 -59.48699951171875,-110.05699920654297 C-83.74199676513672,-121.65899658203125 -100.53500366210938,-126.79199981689453 -100.57099914550781,-122.65799713134766 C-100.63300323486328,-115.45500183105469 -48.766998291015625,-89.447998046875 -48.87699890136719,-78.6259994506836 C-48.97800064086914,-68.71600341796875 -92.41100311279297,-35.707000732421875 -90.19000244140625,-29.621000289916992 C-89.99500274658203,-29.086999893188477 -89.375,-28.858999252319336 -88.39800262451172,-28.899999618530273 C-76.97200012207031,-29.378000259399414 -16.738000869750977,-66.55599975585938 -16.738000869750977,-79.6259994506836z"></path></g><g opacity="1" transform="matrix(1,0,0,1,0,0)"><path fill="rgb(107,32,0)" fill-opacity="1" d=" M-100.56800079345703,-122.65399932861328 C-100.5780029296875,-121.74400329589844 -99.74800109863281,-120.52400207519531 -98.28800201416016,-119.06400299072266 C-92.90799713134766,-119.26399993896484 -78.47899627685547,-114.14399719238281 -59.48899841308594,-105.05400085449219 C-37.50899887084961,-94.54399871826172 -18.73900032043457,-84.5739974975586 -18.73900032043457,-74.6240005493164 C-18.73900032043457,-74.6240005493164 -18.73900032043457,-74.5739974975586 -18.73900032043457,-74.5739974975586 C-17.448999404907227,-76.49400329589844 -16.73900032043457,-78.2040023803711 -16.73900032043457,-79.6240005493164 C-16.73900032043457,-89.5739974975586 -37.50899887084961,-99.54399871826172 -59.48899841308594,-110.05400085449219 C-83.73899841308594,-121.65399932861328 -100.53800201416016,-126.79399871826172 -100.56800079345703,-122.65399932861328z"></path></g><g opacity="1" transform="matrix(1,0,0,1,0,0)"><path fill="rgb(107,32,0)" fill-opacity="1" d=" M-90.18800354003906,-29.624000549316406 C-89.99800109863281,-29.0939998626709 -89.37799835205078,-28.86400032043457 -88.39800262451172,-28.90399932861328 C-79.96800231933594,-40.29399871826172 -46.87900161743164,-67.14399719238281 -46.87799835205078,-75.6240005493164 C-46.87799835205078,-78.34500122070312 -47.60900115966797,-79.93399810791016 -50.48899841308594,-82.55400085449219 C-49.44900131225586,-81.10399627685547 -48.86800003051758,-79.77400207519531 -48.87799835205078,-78.6240005493164 C-48.97800064086914,-68.71399688720703 -92.40799713134766,-35.70399856567383 -90.18800354003906,-29.624000549316406z"></path></g></g><g style="display: block;" transform="matrix(1,0,0,1,246,256)" opacity="1"><g opacity="1" transform="matrix(1,0,0,1,0,0)"><path fill="rgb(255,238,189)" fill-opacity="1" d=" M34.560001373291016,-75.6259994506836 C34.560001373291016,-91.41200256347656 56.33399963378906,-95.5459976196289 78.30899810791016,-106.05699920654297 C102.56400299072266,-117.65899658203125 121.05000305175781,-131.0850067138672 120.39299774169922,-119.65799713134766 C119.9800033569336,-112.46700286865234 67.58899688720703,-85.447998046875 67.6989974975586,-74.6259994506836 C67.80000305175781,-64.71600341796875 114.96399688720703,-34.707000732421875 109.01200103759766,-25.621000289916992 C108.69999694824219,-25.145000457763672 108.1969985961914,-24.858999252319336 107.22000122070312,-24.899999618530273 C95.79399871826172,-25.378000259399414 34.560001373291016,-60.323001861572266 34.560001373291016,-75.6259994506836z"></path></g><g opacity="1" transform="matrix(1,0,0,1,0,0)"><path fill="rgb(134,63,20)" fill-opacity="1" d=" M35.560001373291016,-79.6259994506836 C35.560001373291016,-89.57599639892578 56.33399963378906,-99.5459976196289 78.30899810791016,-110.05699920654297 C102.56400299072266,-121.65899658203125 119.35700225830078,-126.79199981689453 119.39299774169922,-122.65799713134766 C119.45500183105469,-115.45500183105469 67.58899688720703,-89.447998046875 67.6989974975586,-78.6259994506836 C67.80000305175781,-68.71600341796875 111.23300170898438,-35.707000732421875 109.01200103759766,-29.621000289916992 C108.81700134277344,-29.086999893188477 108.1969985961914,-28.858999252319336 107.22000122070312,-28.899999618530273 C95.79399871826172,-29.378000259399414 35.560001373291016,-66.55599975585938 35.560001373291016,-79.6259994506836z"></path></g><g opacity="1" transform="matrix(1,0,0,1,0,0)"><path fill="rgb(107,32,0)" fill-opacity="1" d=" M119.38999938964844,-122.65399932861328 C119.4000015258789,-121.74400329589844 118.56999969482422,-120.52400207519531 117.11000061035156,-119.06400299072266 C111.7300033569336,-119.26399993896484 97.30000305175781,-114.14399719238281 78.30999755859375,-105.05400085449219 C56.33000183105469,-94.54399871826172 37.560001373291016,-84.5739974975586 37.560001373291016,-74.6240005493164 C37.560001373291016,-74.6240005493164 37.560001373291016,-74.5739974975586 37.560001373291016,-74.5739974975586 C36.27000045776367,-76.49400329589844 35.560001373291016,-78.2040023803711 35.560001373291016,-79.6240005493164 C35.560001373291016,-89.5739974975586 56.33000183105469,-99.54399871826172 78.30999755859375,-110.05400085449219 C102.55999755859375,-121.65399932861328 119.36000061035156,-126.79399871826172 119.38999938964844,-122.65399932861328z"></path></g><g opacity="1" transform="matrix(1,0,0,1,0,0)"><path fill="rgb(107,32,0)" fill-opacity="1" d=" M109.01000213623047,-29.624000549316406 C108.81999969482422,-29.0939998626709 108.19999694824219,-28.86400032043457 107.22000122070312,-28.90399932861328 C98.79000091552734,-40.29399871826172 65.70099639892578,-67.14399719238281 65.69999694824219,-75.6240005493164 C65.69999694824219,-78.34500122070312 66.43000030517578,-79.93399810791016 69.30999755859375,-82.55400085449219 C68.2699966430664,-81.10399627685547 67.69000244140625,-79.77400207519531 67.69999694824219,-78.6240005493164 C67.80000305175781,-68.71399688720703 111.2300033569336,-35.70399856567383 109.01000213623047,-29.624000549316406z"></path></g></g><g style="display: none;"><g><path></path></g><g><path></path></g><g><path></path></g></g><g style="display: none;"><g><path></path></g><g><path></path></g><g><path></path></g></g><g style="display: block;" transform="matrix(1,0,0,1,246,256)" opacity="1"><g opacity="1" transform="matrix(1,0,0,1,0,0)"><g opacity="1" transform="matrix(1,0,0,1,0,0)"><path fill="rgb(255,238,189)" fill-opacity="1" d=" M115.1709976196289,-141.4720001220703 C113.85299682617188,-140.31100463867188 110.11100006103516,-138.94900512695312 107.0989990234375,-138.343994140625 C94.04900360107422,-135.72300720214844 69.05799865722656,-140.29100036621094 52.26100158691406,-156.1739959716797 C28.340999603271484,-178.79299926757812 36.87200164794922,-194.13600158691406 42.152000427246094,-189.5570068359375 C47.43199920654297,-184.97799682617188 65.25499725341797,-162.5240020751953 94.85800170898438,-155.64199829101562 C102.79000091552734,-153.79800415039062 109.75199890136719,-155.75399780273438 114.05400085449219,-154.3459930419922 C119.73699951171875,-152.48599243164062 120.00900268554688,-145.73500061035156 115.1709976196289,-141.4720001220703z"></path></g><g opacity="1" transform="matrix(1,0,0,1,0,0)"><path fill="rgb(134,63,20)" fill-opacity="1" d=" M115.55699920654297,-146.23699951171875 C114.30400085449219,-145.0070037841797 110.83000183105469,-143.3990020751953 107.81800079345703,-142.79400634765625 C94.76799774169922,-140.17300415039062 71.98100280761719,-143.3260040283203 55.183998107910156,-159.20899963378906 C31.263999938964844,-181.8280029296875 36.87200164794922,-194.13600158691406 42.152000427246094,-189.5570068359375 C47.43199920654297,-184.97799682617188 65.1500015258789,-165.3820037841797 94.75399780273438,-158.5 C102.68599700927734,-156.656005859375 108.49800109863281,-156.2259979248047 112.80000305175781,-154.8179931640625 C118.48300170898438,-152.95799255371094 118.99500274658203,-149.61399841308594 115.55699920654297,-146.23699951171875z"></path></g><g opacity="1" transform="matrix(1,0,0,1,0,0)"><path fill="rgb(107,32,0)" fill-opacity="1" d=" M116.5510025024414,-147.36700439453125 C115.75900268554688,-148.1490020751953 114.51300048828125,-148.843994140625 112.80400085449219,-149.4040069580078 C108.49700164794922,-150.81399536132812 102.68399810791016,-151.24899291992188 94.75599670410156,-153.09300231933594 C65.14800262451172,-159.968994140625 47.428001403808594,-179.57200622558594 42.154998779296875,-184.1490020751953 C40.44599914550781,-185.62600708007812 38.70800018310547,-185.3470001220703 37.935001373291016,-183.52200317382812 C36.448001861572266,-189.6540069580078 39.345001220703125,-191.99099731445312 42.154998779296875,-189.5570068359375 C47.428001403808594,-184.97999572753906 65.14800262451172,-165.3769989013672 94.75599670410156,-158.50100708007812 C102.68399810791016,-156.65699768066406 108.49700164794922,-156.2220001220703 112.80400085449219,-154.82200622558594 C117.84500122070312,-153.17100524902344 118.81099700927734,-150.3509979248047 116.5510025024414,-147.36700439453125z"></path></g></g></g><g style="display: block;" transform="matrix(1,0,0,1,246,256)" opacity="1"><g opacity="1" transform="matrix(1,0,0,1,0,0)"><g opacity="1" transform="matrix(1,0,0,1,0,0)"><path fill="rgb(255,238,189)" fill-opacity="1" d=" M-96.53199768066406,-141.4720001220703 C-95.21499633789062,-140.31100463867188 -91.47200012207031,-138.94900512695312 -88.45999908447266,-138.343994140625 C-75.41000366210938,-135.72300720214844 -50.41899871826172,-140.29100036621094 -33.62200164794922,-156.1739959716797 C-9.70199966430664,-178.79299926757812 -18.232999801635742,-194.13600158691406 -23.51300048828125,-189.5570068359375 C-28.792999267578125,-184.97799682617188 -46.6150016784668,-162.5240020751953 -76.21900177001953,-155.64199829101562 C-84.1510009765625,-153.79800415039062 -91.11299896240234,-155.75399780273438 -95.41500091552734,-154.3459930419922 C-101.0979995727539,-152.48599243164062 -101.37000274658203,-145.73500061035156 -96.53199768066406,-141.4720001220703z"></path></g><g opacity="1" transform="matrix(1,0,0,1,0,0)"><path fill="rgb(134,63,20)" fill-opacity="1" d=" M-96.91799926757812,-146.23699951171875 C-95.66500091552734,-145.0070037841797 -92.19200134277344,-143.3990020751953 -89.18000030517578,-142.79400634765625 C-76.12999725341797,-140.17300415039062 -53.34199905395508,-143.3260040283203 -36.54499816894531,-159.20899963378906 C-12.625,-181.8280029296875 -18.232999801635742,-194.13600158691406 -23.51300048828125,-189.5570068359375 C-28.792999267578125,-184.97799682617188 -46.512001037597656,-165.3820037841797 -76.11499786376953,-158.5 C-84.0469970703125,-156.656005859375 -89.86000061035156,-156.2259979248047 -94.16200256347656,-154.8179931640625 C-99.84500122070312,-152.95799255371094 -100.35600280761719,-149.61399841308594 -96.91799926757812,-146.23699951171875z"></path></g><g opacity="1" transform="matrix(1,0,0,1,0,0)"><path fill="rgb(107,32,0)" fill-opacity="1" d=" M-97.91200256347656,-147.36700439453125 C-97.12000274658203,-148.1490020751953 -95.8740005493164,-148.843994140625 -94.16500091552734,-149.4040069580078 C-89.85800170898438,-150.81399536132812 -84.04499816894531,-151.24899291992188 -76.11699676513672,-153.09300231933594 C-46.50899887084961,-159.968994140625 -28.788999557495117,-179.57200622558594 -23.516000747680664,-184.1490020751953 C-21.80699920654297,-185.62600708007812 -20.06999969482422,-185.3470001220703 -19.297000885009766,-183.52200317382812 C-17.809999465942383,-189.6540069580078 -20.70599937438965,-191.99099731445312 -23.516000747680664,-189.5570068359375 C-28.788999557495117,-184.97999572753906 -46.50899887084961,-165.3769989013672 -76.11699676513672,-158.50100708007812 C-84.04499816894531,-156.65699768066406 -89.85800170898438,-156.2220001220703 -94.16500091552734,-154.82200622558594 C-99.20600128173828,-153.17100524902344 -100.1719970703125,-150.3509979248047 -97.91200256347656,-147.36700439453125z"></path></g></g></g></g></svg>