<svg xmlns="http://www.w3.org/2000/svg" viewBox="0 0 512 512" width="512" height="512" style="width: 100%; height: 100%; transform: translate3d(0,0,0);" preserveAspectRatio="xMidYMid meet"><defs><clipPath id="__lottie_element_19793"><rect width="512" height="512" x="0" y="0"></rect></clipPath></defs><g clip-path="url(#__lottie_element_19793)"><g style="display: block;" transform="matrix(1,0,0,1,249.5,335.76300048828125)" opacity="1"><g opacity="1" transform="matrix(1,0,0,1,0,0)"><path fill="rgb(255,209,64)" fill-opacity="1" d=" M109.04100036621094,-104.38600158691406 C115.83100128173828,-72.10199737548828 130.125,-11.406000137329102 114.16999816894531,42.154998779296875 C98.21600341796875,95.71700286865234 80.0999984741211,129.322998046875 13.314000129699707,129.62600708007812 C-53.301998138427734,129.92799377441406 -86.97100067138672,104.81800079345703 -104.06500244140625,63.237998962402344 C-115.43000030517578,35.595001220703125 -127.09300231933594,-43.27899932861328 -118.4280014038086,-89.73600006103516 C-101.61499786376953,-100.16799926757812 -57.57099914550781,-90.89199829101562 -0.9490000009536743,-129.27000427246094 C52.59400177001953,-131.48599243164062 105.02899932861328,-123.46099853515625 109.04100036621094,-104.38600158691406z"></path></g></g><g style="display: block;" transform="matrix(1,0,0,1,310.833984375,278.0830078125)" opacity="1"><g opacity="1" transform="matrix(1,0,0,1,0,0)"><path fill="rgb(255,177,57)" fill-opacity="1" d=" M-62.39099884033203,-65.22000122070312 C-58.58399963378906,-35.83300018310547 -44.25199890136719,-27.465999603271484 -28.038000106811523,-30.469999313354492 C-11.824999809265137,-33.4739990234375 11.795000076293945,-35.65399932861328 57.27000045776367,2.4749999046325684 C57.27000045776367,2.4749999046325684 59.89099884033203,31.95199966430664 59.89099884033203,31.95199966430664 C59.89099884033203,31.95199966430664 -40.849998474121094,6.7820000648498535 -54.09199905395508,2.4749999046325684 C-69.08399963378906,-9.333000183105469 -73.83399963378906,-28.33300018310547 -62.39099884033203,-65.22000122070312z"></path></g></g><g style="display: block;" transform="matrix(1,0,0,1,254.3260040283203,364.73199462890625)" opacity="1"><g opacity="1" transform="matrix(1,0,0,1,0,0)"><path fill="rgb(255,177,57)" fill-opacity="1" d=" M126.26599884033203,-3.7149999141693115 C126.26599884033203,-3.7149999141693115 126.26599884033203,-3.694999933242798 126.26599884033203,-3.694999933242798 C119.72599792480469,25.045000076293945 103.09600067138672,58.80500030517578 72.08599853515625,82.25499725341797 C72.06600189208984,82.2750015258789 72.0459976196289,82.28500366210938 72.0260009765625,82.30500030517578 C57.555999755859375,94.03500366210938 37.66600036621094,100.5250015258789 8.486000061035156,100.65499877929688 C-58.124000549316406,100.95500183105469 -91.79399871826172,75.84500122070312 -108.89399719238281,34.26499938964844 C-118.8239974975586,10.114999771118164 -128.98399353027344,-53.14500045776367 -125.60399627685547,-99.7249984741211 C-106.07599639892578,-104.98200225830078 -80.79399871826172,-108.48500061035156 -44.92399978637695,-102.07499694824219 C-41.05400085449219,-101.38500213623047 -19.826000213623047,-95.73200225830078 -20.888999938964844,-80.427001953125 C-22.097999572753906,-63.025001525878906 -48.82600021362305,-46.481998443603516 -66.23400115966797,-61.73500061035156 C-84.32599639892578,-42.981998443603516 -109.11399841308594,-56.30500030517578 -109.11399841308594,-56.30500030517578 C-108.16100311279297,-34.85900115966797 -105.36599731445312,-13.47599983215332 -98.70999908447266,5.53000020980835 C-86.2760009765625,41.03300094604492 -60.369998931884766,68.23899841308594 -7.827000141143799,72.0530014038086 C14.508000373840332,73.67400360107422 49.8650016784668,68.56999969482422 66.38600158691406,59.1609992980957 C84.74400329589844,48.70600128173828 102.50299835205078,32.404998779296875 110.25499725341797,20.718000411987305 C118.48899841308594,8.303999900817871 126.26599884033203,-3.7149999141693115 126.26599884033203,-3.7149999141693115z"></path></g></g><g style="display: block;" transform="matrix(1,0,0,1,274.05499267578125,362.2969970703125)" opacity="1"><g opacity="1" transform="matrix(1,0,0,1,0,0)"><path fill="rgb(255,177,57)" fill-opacity="1" d=" M26.434999465942383,-17.17099952697754 C26.434999465942383,-17.17099952697754 -1.628999948501587,-16.26099967956543 -21.729000091552734,23.288000106811523 C-27.488000869750977,34.61899948120117 -30.195999145507812,11.482000350952148 -16.437999725341797,-10.062000274658203 C-0.6710000038146973,-34.75199890136719 29.69499969482422,-34.547000885009766 26.434999465942383,-17.17099952697754z"></path></g></g><g style="display: block;" transform="matrix(1,0,0,1,259,260.75)" opacity="1"><g opacity="1" transform="matrix(1,0,0,1,-9.75,77)"><path fill="rgb(255,177,57)" fill-opacity="1" d=" M-44.31999969482422,-43.97600173950195 C-46.19499969482422,-24.72599983215332 -33.84000015258789,-0.5709999799728394 -7.195000171661377,0.5239999890327454 C11.055000305175781,1.2740000486373901 44.93000030517578,5.02400016784668 57.18000030517578,-14.47599983215332 C58.44200134277344,-16.483999252319336 -42.09600067138672,-66.81400299072266 -44.31999969482422,-43.97600173950195z"></path></g></g><g style="display: block;" transform="matrix(1,0,0,1,249.5,335.76300048828125)" opacity="1"><g opacity="1" transform="matrix(1,0,0,1,0,0)"><path stroke-linecap="round" stroke-linejoin="round" fill-opacity="0" stroke="rgb(247,126,65)" stroke-opacity="1" stroke-width="8" d=" M61.45899963378906,-126.7229995727539 C87.63099670410156,-122.97899627685547 106.68499755859375,-115.58799743652344 109.04100036621094,-104.38600158691406 C115.83100128173828,-72.10199737548828 130.125,-11.406000137329102 114.16999816894531,42.154998779296875 C98.21600341796875,95.71700286865234 80.0999984741211,129.322998046875 13.314000129699707,129.62600708007812 C-53.301998138427734,129.92799377441406 -86.97100067138672,104.81800079345703 -104.06500244140625,63.237998962402344 C-115.43000030517578,35.595001220703125 -127.09300231933594,-43.27899932861328 -118.4280014038086,-89.73600006103516 C-117.0739974975586,-96.99500274658203 -110.79100036621094,-103.2959976196289 -101.11900329589844,-108.61100006103516"></path></g></g><g style="display: block;" transform="matrix(1,0,0,1,0,0)" opacity="1"><g opacity="1" transform="matrix(1,0,0,1,297.16900634765625,128.18299865722656)"><path fill="rgb(255,209,64)" fill-opacity="1" d=" M-50.66899871826172,82.2750015258789 C-50.66899871826172,82.2750015258789 -23.305999755859375,-2.134000062942505 -11.145999908447266,-31.423999786376953 C1.0140000581741333,-60.7140007019043 10.515999794006348,-88.51100158691406 34.5989990234375,-81.8010025024414 C56.86800003051758,-75.59700012207031 53.14699935913086,-53.53200149536133 40.60100173950195,-17.106000900268555 C22.7549991607666,34.70500183105469 13.46500015258789,82.81199645996094 13.46500015258789,82.81199645996094 C13.46500015258789,82.81199645996094 -50.66899871826172,82.2750015258789 -50.66899871826172,82.2750015258789z"></path></g><g opacity="1" transform="matrix(1,0,0,1,274.36199951171875,181.7030029296875)"><path fill="rgb(255,177,57)" fill-opacity="1" d=" M-21.174999237060547,16.597999572753906 C-6.190000057220459,-26.683000564575195 5.46999979019165,17.554000854492188 21.174999237060547,41.7760009765625 C21.174999237060547,41.7760009765625 16.56100082397461,9.902999877929688 8.755000114440918,-12.359000205993652 C0.9490000009536743,-34.62099838256836 -4.2230000495910645,-41.7760009765625 -4.2230000495910645,-41.7760009765625 C-4.2230000495910645,-41.7760009765625 -21.174999237060547,16.597999572753906 -21.174999237060547,16.597999572753906z"></path></g><g opacity="1" transform="matrix(1,0,0,1,0,0)"><path fill="rgb(255,177,57)" fill-opacity="1" d=" M340.97900390625,54.67300033569336 C353,70.75 336.125,107.625 329.4209899902344,126.18099975585938 C323.9960021972656,141.1959991455078 326.5,141.75 331.12799072265625,128.34500122070312 C335.8500061035156,114.66999816894531 359,65.75 340.97900390625,54.67300033569336z"></path></g><g opacity="0" transform="matrix(1,0,0,1,0,0)"><path fill="rgb(255,177,57)" fill-opacity="1" d=" M309.6679992675781,52.49399948120117 C295.625,67 255.80299377441406,185.84300231933594 252.78399658203125,197.8209991455078 C252.31300354003906,209.01699829101562 285.12200927734375,124.16200256347656 296.5350036621094,96.39600372314453 C306.60400390625,71.89900207519531 321.13800048828125,45.917999267578125 340.2770080566406,54.66299819946289 C337.25,49.104000091552734 324.02801513671875,37.65999984741211 309.6679992675781,52.49399948120117z"></path><path fill="rgb(255,223,121)" fill-opacity="0" d=" M309.6679992675781,52.49399948120117 C295.625,67 255.80299377441406,185.84300231933594 252.78399658203125,197.8209991455078 C252.31300354003906,209.01699829101562 285.12200927734375,124.16200256347656 296.5350036621094,96.39600372314453 C306.60400390625,71.89900207519531 321.13800048828125,45.917999267578125 340.2770080566406,54.66299819946289 C337.25,49.104000091552734 324.02801513671875,37.65999984741211 309.6679992675781,52.49399948120117z"></path></g><g opacity="1" transform="matrix(1,0,0,1,297.16900634765625,128.18299865722656)"><path stroke-linecap="round" stroke-linejoin="round" fill-opacity="0" stroke="rgb(247,126,65)" stroke-opacity="1" stroke-width="8" d=" M-50.66899871826172,82.2750015258789 C-50.66899871826172,82.2750015258789 -23.305999755859375,-2.134000062942505 -11.145999908447266,-31.423999786376953 C1.0140000581741333,-60.7140007019043 10.515999794006348,-88.51100158691406 34.5989990234375,-81.8010025024414 C56.86800003051758,-75.59700012207031 53.14699935913086,-53.53200149536133 40.60100173950195,-17.106000900268555 C22.7549991607666,34.70500183105469 13.46500015258789,82.81199645996094 13.46500015258789,82.81199645996094"></path></g></g><g style="display: block;" transform="matrix(1,0,0,1,0,0)" opacity="1"><g opacity="1" transform="matrix(1,0,0,1,304.0790100097656,139.927001953125)"><path fill="rgb(255,209,64)" fill-opacity="1" d=" M-4.756999969482422,82.48999786376953 C-4.756999969482422,82.48999786376953 -12.927000045776367,50.02399826049805 -31.04199981689453,0.9390000104904175 C-45.494998931884766,-38.222999572753906 -69.6989974975586,-76.01799774169922 -41.25199890136719,-88.7300033569336 C-11.782999992370605,-101.89900207519531 -0.7850000262260437,-65.65599822998047 20.316999435424805,-14.392000198364258 C32.755001068115234,15.824000358581543 44.22700119018555,46.98400115966797 54.46099853515625,91.44999694824219 C54.46099853515625,91.44999694824219 -4.756999969482422,82.48999786376953 -4.756999969482422,82.48999786376953z"></path></g><g opacity="1" transform="matrix(1,0,0,1,303.4469909667969,137.20799255371094)"><path fill="rgb(255,223,121)" fill-opacity="1" d=" M53.82500076293945,88.7300033569336 C50.71500015258789,83.27999877929688 48.42499923706055,75.73899841308594 44.39400100708008,66.80999755859375 C26.357999801635742,26.86199951171875 12.817000389099121,-6.605000019073486 1.6970000267028809,-30.625999450683594 C-10.170999526977539,-56.262001037597656 -19.2810001373291,-71.13899993896484 -28.15399932861328,-71.6500015258789 C-42.55799865722656,-72.47899627685547 -43.584999084472656,-58.641998291015625 -43.584999084472656,-58.641998291015625 C-43.584999084472656,-58.641998291015625 -53.525001525878906,-60.68000030517578 -53.525001525878906,-60.68000030517578 C-54.875,-72.05999755859375 -51.845001220703125,-80.98999786376953 -40.6150016784668,-86.01000213623047 C-11.145000457763672,-99.18000030517578 -0.1550000011920929,-62.939998626708984 20.94499969482422,-11.670000076293945 C32.875,17.290000915527344 43.915000915527344,47.130001068115234 53.82500076293945,88.7300033569336z"></path></g><g opacity="1" transform="matrix(1,0,0,1,276.68499755859375,137.677001953125)"><path fill="rgb(255,177,57)" fill-opacity="1" d=" M26.4689998626709,83.6989974975586 C26.4689998626709,83.6989974975586 21.496999740600586,80.4209976196289 21.496999740600586,80.4209976196289 C18.677000045776367,70.06099700927734 10.586999893188477,41.750999450683594 -3.6429998874664307,3.190999984741211 C-16.243000030517578,-30.929000854492188 -43.555999755859375,-78.91300201416016 -11.315999984741211,-83.6989974975586 C-11.305999755859375,-83.05899810791016 -29.184999465942383,-69.9729995727539 -1.465000033378601,-29.11400032043457 C1.8420000076293945,-24.23900032043457 1.3289999961853027,-18.674999237060547 6.4039998054504395,-1 C8.024999618530273,4.646999835968018 11.137999534606934,12.895999908447266 16.386999130249023,28.011999130249023 C17.801000595092773,32.084999084472656 18.851999282836914,48.06800079345703 26.4689998626709,83.6989974975586z"></path></g><g opacity="1" transform="matrix(1,0,0,1,304.0790100097656,139.927001953125)"><path stroke-linecap="round" stroke-linejoin="round" fill-opacity="0" stroke="rgb(247,126,65)" stroke-opacity="1" stroke-width="8" d=" M-4.756999969482422,82.48999786376953 C-4.756999969482422,82.48999786376953 -12.927000045776367,50.02399826049805 -31.04199981689453,0.9390000104904175 C-45.494998931884766,-38.222999572753906 -69.6989974975586,-76.01799774169922 -41.25199890136719,-88.7300033569336 C-11.782999992370605,-101.89900207519531 -0.7850000262260437,-65.65599822998047 20.316999435424805,-14.392000198364258 C32.755001068115234,15.824000358581543 44.22700119018555,46.98400115966797 54.46099853515625,91.44999694824219"></path></g></g><g style="display: block;" transform="matrix(1,0,0,1,0,0)" opacity="1"><g opacity="1" transform="matrix(1,0,0,1,219.51300048828125,243.5050048828125)"><path fill="rgb(255,209,64)" fill-opacity="1" d=" M-5.380000114440918,-52.41600036621094 C-25.64900016784668,-50.17599868774414 -34.15399932861328,-31.034000396728516 -30.64699935913086,6.610000133514404 C-27.36199951171875,41.87099838256836 -12.765000343322754,45.44499969482422 4.239999771118164,45.40399932861328 C19.384000778198242,45.36800003051758 31.31599998474121,39.7400016784668 31.415000915527344,6.689000129699707 C31.5049991607666,-23.514999389648438 24.740999221801758,-55.744998931884766 -5.380000114440918,-52.41600036621094z"></path><path fill="rgb(255,223,121)" fill-opacity="0" d=" M-5.380000114440918,-52.41600036621094 C-25.64900016784668,-50.17599868774414 -34.15399932861328,-31.034000396728516 -30.64699935913086,6.610000133514404 C-27.36199951171875,41.87099838256836 -12.765000343322754,45.44499969482422 4.239999771118164,45.40399932861328 C19.384000778198242,45.36800003051758 31.31599998474121,39.7400016784668 31.415000915527344,6.689000129699707 C31.5049991607666,-23.514999389648438 24.740999221801758,-55.744998931884766 -5.380000114440918,-52.41600036621094z"></path></g><g opacity="1" transform="matrix(1,0,0,1,219.31700134277344,265.5840148925781)"><path fill="rgb(255,177,57)" fill-opacity="1" d=" M27.667999267578125,-30.572999954223633 C35.21699905395508,13.666000366210938 18.834999084472656,30.542999267578125 3.684999942779541,30.572999954223633 C-11.944999694824219,30.613000869750977 -31.22100067138672,11.878999710083008 -29.454999923706055,-23.409000396728516 C-26.915000915527344,-18.999000549316406 -26.48200035095215,8.359999656677246 2.2690000534057617,6.625999927520752 C31.30299949645996,4.875 27.667999267578125,-30.572999954223633 27.667999267578125,-30.572999954223633z"></path></g><g opacity="1" transform="matrix(1,0,0,1,219.51499938964844,225.11300659179688)"><path fill="rgb(255,223,121)" fill-opacity="1" d=" M31.417999267578125,25.083999633789062 C31.417999267578125,25.083999633789062 24.51799964904785,-19.055999755859375 -1.0720000267028809,-19.09600067138672 C-26.66200065612793,-19.13599967956543 -29.031999588012695,18.40399932861328 -29.461999893188477,34.23400115966797 C-29.461999893188477,34.23400115966797 -29.461999893188477,34.263999938964844 -29.461999893188477,34.263999938964844 C-29.941999435424805,31.384000778198242 -30.341999053955078,28.304000854492188 -30.652000427246094,25.003999710083008 C-34.152000427246094,-12.645999908447266 -25.652000427246094,-31.785999298095703 -5.381999969482422,-34.0260009765625 C24.738000869750977,-37.35599899291992 31.507999420166016,-5.125999927520752 31.417999267578125,25.083999633789062z"></path></g><g opacity="1" transform="matrix(1,0,0,1,219.51300048828125,243.5050048828125)"><path stroke-linecap="butt" stroke-linejoin="miter" fill-opacity="0" stroke-miterlimit="10" stroke="rgb(247,126,65)" stroke-opacity="1" stroke-width="8" d=" M-5.380000114440918,-52.41600036621094 C-25.64900016784668,-50.17599868774414 -34.15399932861328,-31.034000396728516 -30.64699935913086,6.610000133514404 C-27.36199951171875,41.87099838256836 -13.515000343322754,52.69499969482422 3.490000009536743,52.65399932861328 C18.634000778198242,52.61800003051758 31.31599998474121,39.7400016784668 31.415000915527344,6.689000129699707 C31.5049991607666,-23.514999389648438 24.740999221801758,-55.744998931884766 -5.380000114440918,-52.41600036621094z"></path></g><g opacity="1" transform="matrix(1,0,0,1,0,0)"><path stroke-linecap="round" stroke-linejoin="round" fill-opacity="0" stroke="rgb(247,126,65)" stroke-opacity="1" stroke-width="8" d=" M215.88499450683594,275.9320068359375 C215.88499450683594,275.9320068359375 221.25,277.34600830078125 226.61500549316406,275.5409851074219"></path></g></g><g style="display: block;" transform="matrix(1,0,0,1,0,0)" opacity="1"><g opacity="1" transform="matrix(1,0,0,1,159.92599487304688,249.1060028076172)"><path fill="rgb(255,209,64)" fill-opacity="1" d=" M4.306000232696533,44.81399917602539 C-19.500999450683594,48.053001403808594 -28.87299919128418,22.152000427246094 -28.854000091552734,-3.0789999961853027 C-28.836000442504883,-27.02199935913086 -23.299999237060547,-43.69599914550781 -2.3289999961853027,-45.00600051879883 C20.625,-46.439998626708984 28.44700050354004,-29.20199966430664 28.836999893188477,-1.5410000085830688 C29.226999282836914,26.1200008392334 23.051000595092773,42.263999938964844 4.306000232696533,44.81399917602539z"></path><path fill="rgb(255,223,121)" fill-opacity="0" d=" M4.306000232696533,44.81399917602539 C-19.500999450683594,48.053001403808594 -28.87299919128418,22.152000427246094 -28.854000091552734,-3.0789999961853027 C-28.836000442504883,-27.02199935913086 -23.299999237060547,-43.69599914550781 -2.3289999961853027,-45.00600051879883 C20.625,-46.439998626708984 28.44700050354004,-29.20199966430664 28.836999893188477,-1.5410000085830688 C29.226999282836914,26.1200008392334 23.051000595092773,42.263999938964844 4.306000232696533,44.81399917602539z"></path></g><g opacity="1" transform="matrix(1,0,0,1,159.92599487304688,266.44500732421875)"><path fill="rgb(255,177,57)" fill-opacity="1" d=" M4.306000232696533,27.472000122070312 C-19.503999710083008,30.711999893188477 -28.874000549316406,4.811999797821045 -28.854000091552734,-20.417999267578125 C-28.854000091552734,-22.368000030517578 -28.81399917602539,-24.26799964904785 -28.733999252319336,-26.118000030517578 C-28.06399917602539,-18.99799919128418 -22.94099998474121,8.109999656677246 1.246000051498413,8.947999954223633 C27.159000396728516,9.845999717712402 28.166000366210938,-27.74799919128418 28.166000366210938,-27.74799919128418 C28.166000366210938,-27.74799919128418 28.54599952697754,-26.097999572753906 28.54599952697754,-26.097999572753906 C28.54599952697754,-26.097999572753906 28.54599952697754,-26.06800079345703 28.54599952697754,-26.06800079345703 C28.70599937438965,-23.757999420166016 28.805999755859375,-21.357999801635742 28.836000442504883,-18.878000259399414 C29.22599983215332,8.781999588012695 23.04599952697754,24.922000885009766 4.306000232696533,27.472000122070312z"></path></g><g opacity="1" transform="matrix(1,0,0,1,159.92599487304688,235.01100158691406)"><path fill="rgb(255,223,121)" fill-opacity="1" d=" M27.81599998474121,30.996000289916992 C30.016000747680664,12.965999603271484 21.393999099731445,-18.400999069213867 -1.8240000009536743,-17.134000778198242 C-25.40399932861328,-15.847999572753906 -28.56399917602539,18.63599967956543 -28.56399917602539,18.63599967956543 C-28.56399917602539,18.63599967956543 -28.573999404907227,18.625999450683594 -28.573999404907227,18.625999450683594 C-28.763999938964844,16.106000900268555 -28.854000091552734,13.555999755859375 -28.854000091552734,11.015999794006348 C-28.833999633789062,-12.923999786376953 -23.304000854492188,-29.604000091552734 -2.3340001106262207,-30.913999557495117 C20.625999450683594,-32.34400177001953 28.445999145507812,-15.104000091552734 28.836000442504883,12.555999755859375 C28.93600082397461,19.426000595092773 28.625999450683594,25.586000442504883 27.81599998474121,30.996000289916992z"></path></g><g opacity="1" transform="matrix(1,0,0,1,159.92599487304688,249.1060028076172)"><path stroke-linecap="butt" stroke-linejoin="miter" fill-opacity="0" stroke-miterlimit="10" stroke="rgb(247,126,65)" stroke-opacity="1" stroke-width="8" d=" M4.306000232696533,44.81399917602539 C-19.500999450683594,48.053001403808594 -28.87299919128418,22.152000427246094 -28.854000091552734,-3.0789999961853027 C-28.836000442504883,-27.02199935913086 -23.299999237060547,-43.69599914550781 -2.3289999961853027,-45.00600051879883 C20.625,-46.439998626708984 28.44700050354004,-29.20199966430664 28.836999893188477,-1.5410000085830688 C29.226999282836914,26.1200008392334 23.051000595092773,42.263999938964844 4.306000232696533,44.81399917602539z"></path></g><g opacity="1" transform="matrix(1,0,0,1,160.07400512695312,278.3890075683594)"><path stroke-linecap="round" stroke-linejoin="round" fill-opacity="0" stroke="rgb(247,126,65)" stroke-opacity="1" stroke-width="8" d=" M-5.368000030517578,-0.3569999933242798 C-5.368000030517578,-0.3569999933242798 -0.05900000035762787,1.2519999742507935 5.368000030517578,-0.3569999933242798"></path></g></g><g style="display: block;" transform="matrix(1,0,0,1,0,0)" opacity="1"><g opacity="1" transform="matrix(1,0,0,1,295.5360107421875,354.77301025390625)"><path fill="rgb(255,209,64)" fill-opacity="1" d=" M5.664999961853027,-10.949999809265137 C0.7300000190734863,-21.718000411987305 -5.551000118255615,-29.792999267578125 -14.074999809265137,-32.0359992980957 C-22.599000930786133,-34.27899932861328 -43.8849983215332,-30.325000762939453 -62.97800064086914,-38.76599884033203 C-80.52799987792969,-46.525001525878906 -95.12100219726562,-73.05599975585938 -85.16699981689453,-85.8740005493164 C-77.51599884033203,-95.72599792480469 -53.555999755859375,-89.91200256347656 -33.367000579833984,-90.36100006103516 C-13.178000450134277,-90.80999755859375 -5.373000144958496,-93.42400360107422 6.632999897003174,-91.66799926757812 C18.638999938964844,-89.91200256347656 73.37200164794922,-69.78399658203125 85.07599639892578,-42.35499954223633 C95.03800201416016,-19.009000778198242 83.58799743652344,52.10100173950195 33.3120002746582,90.26699829101562 C33.3120002746582,90.26699829101562 5.664999961853027,-10.949999809265137 5.664999961853027,-10.949999809265137z"></path></g><g opacity="1" transform="matrix(1,0,0,1,350.5320129394531,395.718994140625)"><path fill="rgb(255,177,57)" fill-opacity="1" d=" M-29.81999969482422,28.173999786376953 C-29.81999969482422,28.173999786376953 21.219999313354492,2.5999999046325684 29.81999969482422,-51.31800079345703 C29.81999969482422,-51.31800079345703 30.059999465942383,11.87399959564209 -24.18000030517578,51.31800079345703 C-24.18000030517578,51.31800079345703 -29.81999969482422,28.173999786376953 -29.81999969482422,28.173999786376953z"></path></g><g opacity="1" transform="matrix(1,0,0,1,295.5360107421875,333.83599853515625)"><path fill="rgb(255,223,121)" fill-opacity="1" d=" M67.6259994506836,71.33100128173828 C81.26599884033203,32.680999755859375 86.13300323486328,8.244999885559082 76.40299987792969,-12.121999740600586 C66.15399932861328,-33.57600021362305 23.236000061035156,-62.2599983215332 -11.814000129699707,-58.310001373291016 C-46.86399841308594,-54.349998474121094 -60.45399856567383,-62.68000030517578 -73.74400329589844,-57.310001373291016 C-86.89399719238281,-52 -72.14399719238281,-24.118999481201172 -71.8239974975586,-23.479000091552734 C-84.89399719238281,-34.479000091552734 -93.3740005493164,-54.36899948120117 -85.16400146484375,-64.93900299072266 C-77.51399993896484,-74.78900146484375 -53.55400085449219,-68.97899627685547 -33.36399841308594,-69.41899871826172 C-13.173999786376953,-69.86900329589844 -5.374000072479248,-72.48899841308594 6.636000156402588,-70.72899627685547 C18.63599967956543,-68.97899627685547 73.3759994506836,-48.8489990234375 85.07599639892578,-21.41900062561035 C92.08599853515625,-4.988999843597412 88.80599975585938,35.01100158691406 67.6259994506836,71.33100128173828z"></path></g><g opacity="1" transform="matrix(1,0,0,1,256.05499267578125,310.0350036621094)"><path fill="rgb(255,177,57)" fill-opacity="1" d=" M-48.80699920654297,-32.9739990234375 C-48.80699920654297,-32.9739990234375 -41.29499816894531,-2.6070001125335693 -8.555000305175781,-2.194000005722046 C7.460000038146973,-1.9919999837875366 28.52899932861328,-4.306000232696533 40.2599983215332,5.446000099182129 C43.034000396728516,7.751999855041504 45.28499984741211,10.732000350952148 46.82500076293945,14.579999923706055 C48.709999084472656,19.29199981689453 49.527000427246094,25.305999755859375 48.926998138427734,32.9739990234375 C48.926998138427734,32.9739990234375 44.805999755859375,26.742000579833984 39.292999267578125,21.18400001525879 C35.071998596191406,16.929000854492188 30.035999298095703,13.069000244140625 25.406999588012695,12.70199966430664 C14.732000350952148,11.855999946594238 -9.387999534606934,12.98799991607666 -32.34199905395508,0.32199999690055847 C-52.79999923706055,-10.967000007629395 -48.80699920654297,-32.9739990234375 -48.80699920654297,-32.9739990234375z"></path></g><g opacity="1" transform="matrix(1,0,0,1,294.9169921875,354.77301025390625)"><path stroke-linecap="round" stroke-linejoin="round" fill-opacity="0" stroke="rgb(247,126,65)" stroke-opacity="1" stroke-width="8" d=" M31.430999755859375,92.26699829101562 C84.84200286865234,51.91699981689453 95.65799713134766,-19.009000778198242 85.69599914550781,-42.35499954223633 C73.99199676513672,-69.78399658203125 19.257999420166016,-89.91200256347656 7.251999855041504,-91.66799926757812 C-4.754000186920166,-93.42400360107422 -12.559000015258789,-90.80999755859375 -32.74800109863281,-90.36100006103516 C-52.9370002746582,-89.91200256347656 -76.35199737548828,-95.2770004272461 -84.5479965209961,-85.8740005493164 C-94.70999908447266,-74.21499633789062 -87.6709976196289,-46.34400177001953 -62.35900115966797,-38.76599884033203 C-42.361000061035156,-32.77899932861328 -21.979999542236328,-34.27899932861328 -13.456000328063965,-32.0359992980957 C-4.932000160217285,-29.792999267578125 1.350000023841858,-21.718000411987305 6.284999847412109,-10.949999809265137"></path></g><g opacity="1" transform="matrix(1,0,0,1,295.5360107421875,333.83599853515625)"><path stroke-linecap="round" stroke-linejoin="round" fill-opacity="0" stroke="rgb(255,255,255)" stroke-opacity="1" stroke-width="6" d=" M21.09000015258789,-54.02000045776367 C16.107999801635742,-55.69900131225586 11.043000221252441,-56.98699951171875 6,-57.77799987792969"></path></g><g opacity="1" transform="matrix(1,0,0,1,295.5360107421875,333.83599853515625)"><path stroke-linecap="round" stroke-linejoin="round" fill-opacity="0" stroke="rgb(255,255,255)" stroke-opacity="1" stroke-width="6" d=" M-7.031000137329102,-58.64899826049805 C-8.491999626159668,-58.604000091552734 -9.942000389099121,-58.507999420166016 -11.380000114440918,-58.356998443603516"></path></g></g><g style="display: block;" transform="matrix(1,0,0,1,272.52099609375,64.9739990234375)" opacity="1"><g opacity="1" transform="matrix(1,0,0,1,0,0)"><path stroke-linecap="round" stroke-linejoin="round" fill-opacity="0" stroke="rgb(255,255,255)" stroke-opacity="1" stroke-width="6" d=" M-1.840999960899353,0.24500000476837158 C-1.840999960899353,0.24500000476837158 -0.4650000035762787,-0.3580000102519989 1.840999960899353,-0.22599999606609344"></path></g></g></g></svg>