<svg xmlns="http://www.w3.org/2000/svg" viewBox="0 0 512 512" width="512" height="512" style="width: 100%; height: 100%; transform: translate3d(0,0,0);" preserveAspectRatio="xMidYMid meet"><defs><clipPath id="__lottie_element_19833"><rect width="512" height="512" x="0" y="0"></rect></clipPath><clipPath id="__lottie_element_19873"><path d="M0,0 L480,0 L480,448 L0,448z"></path></clipPath><clipPath id="__lottie_element_19877"><path d="M0,0 L512,0 L512,10 L0,10z"></path></clipPath><clipPath id="__lottie_element_19884"><path d="M0,0 L512,0 L512,20 L0,20z"></path></clipPath><clipPath id="__lottie_element_19891"><path d="M0,0 L512,0 L512,30 L0,30z"></path></clipPath><clipPath id="__lottie_element_19898"><path d="M0,0 L512,0 L512,40 L0,40z"></path></clipPath><clipPath id="__lottie_element_19905"><path d="M0,0 L512,0 L512,50 L0,50z"></path></clipPath><clipPath id="__lottie_element_19912"><path d="M0,0 L512,0 L512,60 L0,60z"></path></clipPath><clipPath id="__lottie_element_19919"><path d="M0,0 L512,0 L512,70 L0,70z"></path></clipPath><clipPath id="__lottie_element_19926"><path d="M0,0 L512,0 L512,80 L0,80z"></path></clipPath><clipPath id="__lottie_element_19933"><path d="M0,0 L512,0 L512,90 L0,90z"></path></clipPath><clipPath id="__lottie_element_19940"><path d="M0,0 L512,0 L512,100 L0,100z"></path></clipPath><clipPath id="__lottie_element_19947"><path d="M0,0 L512,0 L512,110 L0,110z"></path></clipPath><clipPath id="__lottie_element_19954"><path d="M0,0 L512,0 L512,120 L0,120z"></path></clipPath><clipPath id="__lottie_element_19961"><path d="M0,0 L512,0 L512,130 L0,130z"></path></clipPath><clipPath id="__lottie_element_19968"><path d="M0,0 L512,0 L512,140 L0,140z"></path></clipPath><clipPath id="__lottie_element_19975"><path d="M0,0 L512,0 L512,150 L0,150z"></path></clipPath><clipPath id="__lottie_element_19982"><path d="M0,0 L512,0 L512,160 L0,160z"></path></clipPath><clipPath id="__lottie_element_19989"><path d="M0,0 L512,0 L512,170 L0,170z"></path></clipPath><clipPath id="__lottie_element_19996"><path d="M0,0 L512,0 L512,180 L0,180z"></path></clipPath><clipPath id="__lottie_element_20003"><path d="M0,0 L512,0 L512,190 L0,190z"></path></clipPath><clipPath id="__lottie_element_20010"><path d="M0,0 L512,0 L512,200 L0,200z"></path></clipPath><clipPath id="__lottie_element_20017"><path d="M0,0 L512,0 L512,210 L0,210z"></path></clipPath><clipPath id="__lottie_element_20024"><path d="M0,0 L512,0 L512,220 L0,220z"></path></clipPath><clipPath id="__lottie_element_20031"><path d="M0,0 L512,0 L512,230 L0,230z"></path></clipPath><clipPath id="__lottie_element_20038"><path d="M0,0 L512,0 L512,240 L0,240z"></path></clipPath><clipPath id="__lottie_element_20045"><path d="M0,0 L512,0 L512,250 L0,250z"></path></clipPath><clipPath id="__lottie_element_20052"><path d="M0,0 L512,0 L512,260 L0,260z"></path></clipPath><clipPath id="__lottie_element_20059"><path d="M0,0 L512,0 L512,270 L0,270z"></path></clipPath><clipPath id="__lottie_element_20066"><path d="M0,0 L512,0 L512,280 L0,280z"></path></clipPath><clipPath id="__lottie_element_20073"><path d="M0,0 L512,0 L512,290 L0,290z"></path></clipPath><clipPath id="__lottie_element_20080"><path d="M0,0 L512,0 L512,300 L0,300z"></path></clipPath><clipPath id="__lottie_element_20087"><path d="M0,0 L512,0 L512,310 L0,310z"></path></clipPath><clipPath id="__lottie_element_20094"><path d="M0,0 L512,0 L512,320 L0,320z"></path></clipPath><clipPath id="__lottie_element_20101"><path d="M0,0 L512,0 L512,330 L0,330z"></path></clipPath><clipPath id="__lottie_element_20108"><path d="M0,0 L512,0 L512,340 L0,340z"></path></clipPath><clipPath id="__lottie_element_20115"><path d="M0,0 L512,0 L512,350 L0,350z"></path></clipPath><clipPath id="__lottie_element_20122"><path d="M0,0 L512,0 L512,360 L0,360z"></path></clipPath><clipPath id="__lottie_element_20129"><path d="M0,0 L512,0 L512,370 L0,370z"></path></clipPath><clipPath id="__lottie_element_20136"><path d="M0,0 L512,0 L512,380 L0,380z"></path></clipPath><clipPath id="__lottie_element_20143"><path d="M0,0 L512,0 L512,390 L0,390z"></path></clipPath><clipPath id="__lottie_element_20150"><path d="M0,0 L512,0 L512,400 L0,400z"></path></clipPath><clipPath id="__lottie_element_20157"><path d="M0,0 L512,0 L512,410 L0,410z"></path></clipPath><clipPath id="__lottie_element_20164"><path d="M0,0 L512,0 L512,420 L0,420z"></path></clipPath><clipPath id="__lottie_element_20171"><path d="M0,0 L512,0 L512,430 L0,430z"></path></clipPath><clipPath id="__lottie_element_20178"><path d="M0,0 L512,0 L512,440 L0,440z"></path></clipPath><clipPath id="__lottie_element_20185"><path d="M0,0 L512,0 L512,450 L0,450z"></path></clipPath><clipPath id="__lottie_element_20192"><path d="M0,0 L512,0 L512,460 L0,460z"></path></clipPath></defs><g clip-path="url(#__lottie_element_19833)"><g style="display: block;" transform="matrix(1,0,0,1,465,415)" opacity="1"><g opacity="1" transform="matrix(1,0,0,1,0,0)"><path fill="rgb(65,65,114)" fill-opacity="1" d=" M-175.1750030517578,-152.94900512695312 C-175.1750030517578,-147.80999755859375 -180.61500549316406,-143.64500427246094 -187.3260040283203,-143.64500427246094 C-194.03700256347656,-143.64500427246094 -199.47799682617188,-147.80999755859375 -199.47799682617188,-152.94900512695312 C-199.47799682617188,-158.08799743652344 -194.03700256347656,-162.25399780273438 -187.3260040283203,-162.25399780273438 C-180.61500549316406,-162.25399780273438 -175.1750030517578,-158.08799743652344 -175.1750030517578,-152.94900512695312z"></path></g><g opacity="0.79" transform="matrix(1,0,0,1,0,0)"><path fill="rgb(104,104,170)" fill-opacity="1" d=" M-177.33599853515625,-156.29100036621094 C-177.33599853515625,-153.28500366210938 -181.2169952392578,-150.8489990234375 -186.0030059814453,-150.8489990234375 C-190.78900146484375,-150.8489990234375 -194.66900634765625,-153.28500366210938 -194.66900634765625,-156.29100036621094 C-194.66900634765625,-159.2969970703125 -190.78900146484375,-161.73399353027344 -186.0030059814453,-161.73399353027344 C-181.2169952392578,-161.73399353027344 -177.33599853515625,-159.2969970703125 -177.33599853515625,-156.29100036621094z"></path></g><g opacity="0.5" transform="matrix(0.258819043636322,-0.9659258127212524,0.9659258127212524,0.258819043636322,12.804061889648438,-299.25140380859375)"><path fill="rgb(111,208,247)" fill-opacity="1" d=" M-188.5489959716797,-157.93499755859375 C-188.5489959716797,-157.93499755859375 -190.45899963378906,-185.43699645996094 -203.9550018310547,-174.875 C-216.08999633789062,-165.3780059814453 -188.5489959716797,-157.93499755859375 -188.5489959716797,-157.93499755859375z"></path></g><g opacity="0.5" transform="matrix(0.258819043636322,0.9659258127212524,-0.9659258127212524,0.258819043636322,-291.21826171875,60.83502197265625)"><path fill="rgb(111,208,247)" fill-opacity="1" d=" M-185.17100524902344,-159.28199768066406 C-185.17100524902344,-159.28199768066406 -164.5240020751953,-174.27499389648438 -179.43499755859375,-179.6840057373047 C-192.8419952392578,-184.5469970703125 -185.17100524902344,-159.28199768066406 -185.17100524902344,-159.28199768066406z"></path></g></g><g style="display: none;"><g><path></path></g><g><path></path></g><g><path></path></g><g><path></path></g></g><g style="display: none;"><g><path></path></g><g><path></path></g><g><path></path></g><g><path></path></g></g><g clip-path="url(#__lottie_element_19873)" style="display: none;"><g clip-path="url(#__lottie_element_20192)" style="display: none;"><g style="display: none;"><g><path></path></g></g></g><g clip-path="url(#__lottie_element_20185)" style="display: none;"><g style="display: none;"><g><path></path></g></g></g><g clip-path="url(#__lottie_element_20178)" style="display: none;"><g style="display: none;"><g><path></path></g></g></g><g clip-path="url(#__lottie_element_20171)" style="display: none;"><g style="display: none;"><g><path></path></g></g></g><g clip-path="url(#__lottie_element_20164)" style="display: none;"><g style="display: none;"><g><path></path></g></g></g><g clip-path="url(#__lottie_element_20157)" style="display: none;"><g style="display: none;"><g><path></path></g></g></g><g clip-path="url(#__lottie_element_20150)" style="display: none;"><g style="display: none;"><g><path></path></g></g></g><g clip-path="url(#__lottie_element_20143)" style="display: none;"><g style="display: none;"><g><path></path></g></g></g><g clip-path="url(#__lottie_element_20136)" style="display: none;"><g style="display: none;"><g><path></path></g></g></g><g clip-path="url(#__lottie_element_20129)" style="display: none;"><g style="display: none;"><g><path></path></g></g></g><g clip-path="url(#__lottie_element_20122)" style="display: none;"><g style="display: none;"><g><path></path></g></g></g><g clip-path="url(#__lottie_element_20115)" style="display: none;"><g style="display: none;"><g><path></path></g></g></g><g clip-path="url(#__lottie_element_20108)" style="display: none;"><g style="display: none;"><g><path></path></g></g></g><g clip-path="url(#__lottie_element_20101)" style="display: none;"><g style="display: none;"><g><path></path></g></g></g><g clip-path="url(#__lottie_element_20094)" style="display: none;"><g style="display: none;"><g><path></path></g></g></g><g clip-path="url(#__lottie_element_20087)" style="display: none;"><g style="display: none;"><g><path></path></g></g></g><g clip-path="url(#__lottie_element_20080)" style="display: none;"><g style="display: none;"><g><path></path></g></g></g><g clip-path="url(#__lottie_element_20073)" style="display: none;"><g style="display: none;"><g><path></path></g></g></g><g clip-path="url(#__lottie_element_20066)" style="display: none;"><g style="display: none;"><g><path></path></g></g></g><g clip-path="url(#__lottie_element_20059)" style="display: none;"><g style="display: none;"><g><path></path></g></g></g><g clip-path="url(#__lottie_element_20052)" style="display: none;"><g style="display: none;"><g><path></path></g></g></g><g clip-path="url(#__lottie_element_20045)" style="display: none;"><g style="display: none;"><g><path></path></g></g></g><g clip-path="url(#__lottie_element_20038)" style="display: none;"><g style="display: none;"><g><path></path></g></g></g><g clip-path="url(#__lottie_element_20031)" style="display: none;"><g style="display: none;"><g><path></path></g></g></g><g clip-path="url(#__lottie_element_20024)" style="display: none;"><g style="display: none;"><g><path></path></g></g></g><g clip-path="url(#__lottie_element_20017)" style="display: none;"><g style="display: none;"><g><path></path></g></g></g><g clip-path="url(#__lottie_element_20010)" style="display: none;"><g style="display: none;"><g><path></path></g></g></g><g clip-path="url(#__lottie_element_20003)" style="display: none;"><g style="display: none;"><g><path></path></g></g></g><g clip-path="url(#__lottie_element_19996)" style="display: none;"><g style="display: none;"><g><path></path></g></g></g><g clip-path="url(#__lottie_element_19989)" style="display: none;"><g style="display: none;"><g><path></path></g></g></g><g clip-path="url(#__lottie_element_19982)" style="display: none;"><g style="display: none;"><g><path></path></g></g></g><g clip-path="url(#__lottie_element_19975)" style="display: none;"><g style="display: none;"><g><path></path></g></g></g><g clip-path="url(#__lottie_element_19968)" style="display: none;"><g style="display: none;"><g><path></path></g></g></g><g clip-path="url(#__lottie_element_19961)" style="display: none;"><g style="display: none;"><g><path></path></g></g></g><g clip-path="url(#__lottie_element_19954)" style="display: none;"><g style="display: none;"><g><path></path></g></g></g><g clip-path="url(#__lottie_element_19947)" style="display: none;"><g style="display: none;"><g><path></path></g></g></g><g clip-path="url(#__lottie_element_19940)" style="display: none;"><g style="display: none;"><g><path></path></g></g></g><g clip-path="url(#__lottie_element_19933)" style="display: none;"><g style="display: none;"><g><path></path></g></g></g><g clip-path="url(#__lottie_element_19926)" style="display: none;"><g style="display: none;"><g><path></path></g></g></g><g clip-path="url(#__lottie_element_19919)" style="display: none;"><g style="display: none;"><g><path></path></g></g></g><g clip-path="url(#__lottie_element_19912)" style="display: none;"><g style="display: none;"><g><path></path></g></g></g><g clip-path="url(#__lottie_element_19905)" style="display: none;"><g style="display: none;"><g><path></path></g></g></g><g clip-path="url(#__lottie_element_19898)" style="display: none;"><g style="display: none;"><g><path></path></g></g></g><g clip-path="url(#__lottie_element_19891)" style="display: none;"><g style="display: none;"><g><path></path></g></g></g><g clip-path="url(#__lottie_element_19884)" style="display: none;"><g style="display: none;"><g><path></path></g></g></g><g clip-path="url(#__lottie_element_19877)" style="display: none;"><g style="display: none;"><g><path></path></g></g></g></g><g style="display: block;" transform="matrix(1,0,0,1,256.56201171875,259.3900146484375)" opacity="1"><g opacity="1" transform="matrix(1,0,0,1,0,0)"><path fill="rgb(152,97,46)" fill-opacity="1" d=" M65.62699890136719,-67.14399719238281 C65.62699890136719,-67.14399719238281 76.33399963378906,-115.072998046875 25.34600067138672,-154.84300231933594 C-25.642000198364258,-194.61300659179688 -52.3129997253418,-194.2899932861328 -50.1150016784668,-186.96499633789062 C-48.803001403808594,-182.5919952392578 -37.36800003051758,-175.23800659179688 -45.5260009765625,-158.9219970703125 C-53.683998107910156,-142.6060028076172 -73.05999755859375,-121.70099639892578 -60.823001861572266,-95.6969985961914 C-60.823001861572266,-95.6969985961914 -85.80699920654297,-97.73699951171875 -106.2020034790039,-67.14399719238281 C-126.59700012207031,-36.55099868774414 -112.31999969482422,-3.0339999198913574 -112.31999969482422,-3.0339999198913574 C-112.31999969482422,-3.0339999198913574 -150.05099487304688,6.251999855041504 -159.22900390625,39.051998138427734 C-167.46400451660156,68.48200225830078 -155.14999389648438,92.11599731445312 -155.14999389648438,92.11599731445312 C-155.14999389648438,92.11599731445312 -193.9010009765625,97.03700256347656 -207.1580047607422,137.31700134277344 C-220.4149932861328,177.5970001220703 -194.92100524902344,209.8209991455078 -164.3280029296875,211.80999755859375 C-133.73500061035156,213.7989959716797 -104.6719970703125,198.7570037841797 -47.055999755859375,203.09100341796875 C-0.3179999887943268,206.60699462890625 117.125,218.38699340820312 165.56300354003906,203.6009979248047 C214.00100708007812,188.81500244140625 218.58999633789062,142.9720001220703 198.19500732421875,117.19999694824219 C177.8000030517578,91.4280014038086 155.36500549316406,95.50700378417969 155.36500549316406,95.50700378417969 C155.36500549316406,95.50700378417969 174.45899963378906,53.54600143432617 151.79600524902344,21.590999603271484 C137.00999450683594,0.7419999837875366 112.53500366210938,0.7419999837875366 112.53500366210938,0.7419999837875366 C112.53500366210938,0.7419999837875366 123.75299835205078,-29.92300033569336 107.43699645996094,-49.29800033569336 C91.12100219726562,-68.6729965209961 65.62699890136719,-67.14399719238281 65.62699890136719,-67.14399719238281z"></path></g><g opacity="1" transform="matrix(1,0,0,1,0,0)"><path fill="rgb(140,78,31)" fill-opacity="1" d=" M165.56700134277344,203.6009979248047 C117.1259994506836,218.38299560546875 -0.3190000057220459,206.6060028076172 -47.05500030517578,203.0959930419922 C-47.58000183105469,203.05599975585938 -48.1150016784668,203.01699829101562 -48.63100051879883,202.9770050048828 C-48.63100051879883,202.9770050048828 13.550000190734863,186.23699951171875 13.550000190734863,186.23699951171875 C13.550000190734863,186.23699951171875 87.83899688720703,189.9409942626953 136.16000366210938,179.4669952392578 C205.16299438476562,164.51100158691406 204.11399841308594,126.62699890136719 204.11399841308594,126.62699890136719 C204.11399841308594,126.62699890136719 204.12399291992188,126.62699890136719 204.12399291992188,126.62699890136719 C216.9929962158203,152.93899536132812 208.5260009765625,190.48399353027344 165.56700134277344,203.6009979248047z"></path></g><g opacity="1" transform="matrix(1,0,0,1,0,0)"><path fill="rgb(140,78,31)" fill-opacity="1" d=" M112.53600311279297,0.7450000047683716 C90.65499877929688,22.0310001373291 66.81099700927734,38.44900131225586 42.66999816894531,51.11000061035156 C110.60299682617188,9.168000221252441 107.94599914550781,-39.78099822998047 100.12799835205078,-54.763999938964844 C124.60199737548828,-41.13999938964844 112.53600311279297,0.7450000047683716 112.53600311279297,0.7450000047683716z"></path></g><g opacity="1" transform="matrix(1,0,0,1,0,0)"><path fill="rgb(172,121,76)" fill-opacity="1" d=" M-59.47700119018555,-5.451000213623047 C-75.68699645996094,-2.8929998874664307 -93.33399963378906,-1.8519999980926514 -112.31999969482422,-3.0320000648498535 C-112.31999969482422,-3.0320000648498535 -126.59700012207031,-36.553001403808594 -106.2030029296875,-67.14800262451172 C-85.80899810791016,-97.73400115966797 -60.82600021362305,-95.70099639892578 -60.82600021362305,-95.70099639892578 C-60.82600021362305,-95.70099639892578 -34.32899856567383,-96.5999984741211 -17.98900032043457,-106.83300018310547 C-17.0939998626709,-107.39299774169922 -16.14900016784668,-106.21099853515625 -16.881000518798828,-105.44999694824219 C-23.687999725341797,-98.3740005493164 -37.823001861572266,-86.6050033569336 -64.9000015258789,-74.28600311279297 C-96.61599731445312,-59.85599899291992 -100.76300048828125,-14.965999603271484 -59.47700119018555,-5.451000213623047z"></path></g><g opacity="1" transform="matrix(1,0,0,1,0,0)"><path fill="rgb(172,121,76)" fill-opacity="1" d=" M155.08799743652344,26.829999923706055 C155.08799743652344,26.829999923706055 133.18499755859375,-8.506999969482422 93.41500091552734,35.08700180053711 C55.56399917602539,76.5770034790039 -25.898000717163086,120.32099914550781 -109.25700378417969,125.50599670410156 C-192.62600708007812,130.6909942626953 -223.4739990234375,140.8520050048828 -201.56900024414062,189.85000610351562 C-210.58099365234375,176.42599487304688 -213.9409942626953,157.92599487304688 -207.16000366210938,137.31399536132812 C-193.90499877929688,97.03199768066406 -155.14999389648438,92.11499786376953 -155.14999389648438,92.11499786376953 C-155.14999389648438,92.11499786376953 3.171999931335449,107.125 112.53600311279297,0.7450000047683716 C112.53600311279297,0.7450000047683716 137.01400756835938,0.7450000047683716 151.79600524902344,21.594999313354492 C153.01499938964844,23.309999465942383 154.11599731445312,25.05500030517578 155.08799743652344,26.829999923706055z"></path></g><g opacity="1" transform="matrix(1,0,0,1,0,0)"><path fill="rgb(140,78,31)" fill-opacity="1" d=" M155.36500549316406,95.50599670410156 C155.36500549316406,95.50599670410156 75.13899993896484,194.58900451660156 -74.11100006103516,202.3820037841797 C-74.11100006103516,202.3820037841797 -74.16000366210938,202.3820037841797 -74.16000366210938,202.3820037841797 C-114.62000274658203,203.38299560546875 -138.9499969482422,213.46600341796875 -164.33099365234375,211.80999755859375 C-190.09800720214844,210.13400268554688 -212.25599670410156,186.9949951171875 -210.6699981689453,155.656005859375 C-210.6699981689453,155.656005859375 -201.15699768066406,176.7949981689453 -140.73800659179688,174.3040008544922 C-100.15799713134766,172.63099670410156 38.36600112915039,170.07699584960938 116.29399871826172,95.2699966430664 C129.5189971923828,82.57499694824219 164.3730010986328,45.87900161743164 139.91700744628906,9.87600040435791 C177.6300048828125,35.34199905395508 155.36500549316406,95.50599670410156 155.36500549316406,95.50599670410156z"></path></g><g opacity="1" transform="matrix(1,0,0,1,0,0)"><path fill="rgb(172,121,76)" fill-opacity="1" d=" M-30.04199981689453,-155.35499572753906 C-37.19900131225586,-141.7550048828125 -57.25299835205078,-142.7760009765625 -64.69200134277344,-115.16300201416016 C-63.64099884033203,-132.37399291992188 -51.5359992980957,-146.8979949951172 -45.52799987792969,-158.9239959716797 C-37.36899948120117,-175.23300170898438 -48.79899978637695,-182.58999633789062 -50.11800003051758,-186.96200561523438 C-50.505001068115234,-188.27099609375 -49.97999954223633,-189.3520050048828 -48.571998596191406,-190.00599670410156 C-47.8380012512207,-189.5800018310547 -20.57699966430664,-173.3419952392578 -30.04199981689453,-155.35499572753906z"></path></g><g opacity="1" transform="matrix(1,0,0,1,0,0)"><path fill="rgb(172,121,76)" fill-opacity="1" d=" M101.98699951171875,-54.775001525878906 C101.16400146484375,-55.172000885009766 80.47899627685547,-67.85700225830078 54.409000396728516,-39.099998474121094 C4.951000213623047,15.456999778747559 -58.78300094604492,27.183000564575195 -103.65499877929688,26.165000915527344 C-139.05799865722656,25.36199951171875 -159.22500610351562,43.34700012207031 -155.14999389648438,92.11499786376953 C-155.14999389648438,92.11499786376953 -167.46400451660156,68.4800033569336 -159.22500610351562,39.05400085449219 C-150.0540008544922,6.248000144958496 -112.31999969482422,-3.0320000648498535 -112.31999969482422,-3.0320000648498535 C0.1080000028014183,3.9679999351501465 65.63099670410156,-67.14800262451172 65.63099670410156,-67.14800262451172 C65.63099670410156,-67.14800262451172 86.00499725341797,-68.36699676513672 101.98699951171875,-54.775001525878906z"></path></g><g opacity="1" transform="matrix(1,0,0,1,0,0)"><path fill="rgb(140,78,31)" fill-opacity="1" d=" M65.63099670410156,-67.14800262451172 C65.63099670410156,-67.14800262451172 32.071998596191406,-30.722999572753906 -28.216999053955078,-12.579999923706055 C-28.158000946044922,-12.600000381469727 -28.108999252319336,-12.619000434875488 -28.048999786376953,-12.638999938964844 C66.93000030517578,-46.58599853515625 39.15999984741211,-142.39700317382812 39.15999984741211,-142.39700317382812 C74.25599670410156,-105.74400329589844 65.63099670410156,-67.14800262451172 65.63099670410156,-67.14800262451172z"></path></g><g opacity="1" transform="matrix(1,0,0,1,0,0)"><path stroke-linecap="butt" stroke-linejoin="miter" fill-opacity="0" stroke-miterlimit="10" stroke="rgb(140,78,31)" stroke-opacity="1" stroke-width="8" d=" M112.53600311279297,0.7450000047683716 C3.171999931335449,107.125 -155.14999389648438,92.11499786376953 -155.14999389648438,92.11499786376953 C-155.14999389648438,92.11499786376953 -167.46400451660156,68.4800033569336 -159.22500610351562,39.05400085449219 C-150.0540008544922,6.248000144958496 -112.31999969482422,-3.0320000648498535 -112.31999969482422,-3.0320000648498535 C0.1080000028014183,3.9679999351501465 65.63099670410156,-67.14800262451172 65.63099670410156,-67.14800262451172 C65.63099670410156,-67.14800262451172 91.12000274658203,-68.67400360107422 107.43900299072266,-49.301998138427734 C123.74800109863281,-29.920000076293945 112.53600311279297,0.7450000047683716 112.53600311279297,0.7450000047683716z"></path></g><g opacity="1" transform="matrix(1,0,0,1,0,0)"><path stroke-linecap="butt" stroke-linejoin="miter" fill-opacity="0" stroke-miterlimit="10" stroke="rgb(140,78,31)" stroke-opacity="1" stroke-width="8" d=" M165.56700134277344,203.6009979248047 C117.1259994506836,218.38299560546875 -0.3190000057220459,206.6060028076172 -47.05500030517578,203.0959930419922 C-56.869998931884766,202.3520050048828 -65.85199737548828,202.1739959716797 -74.16000366210938,202.3820037841797 C75.11900329589844,194.60899353027344 155.36500549316406,95.50599670410156 155.36500549316406,95.50599670410156 C155.36500549316406,95.50599670410156 177.80099487304688,91.43099975585938 198.19500732421875,117.197998046875 C218.58900451660156,142.97500610351562 213.9980010986328,188.81900024414062 165.56700134277344,203.6009979248047z"></path></g><g opacity="1" transform="matrix(1,0,0,1,0,0)"><path stroke-linecap="round" stroke-linejoin="round" fill-opacity="0" stroke="rgb(140,78,31)" stroke-opacity="1" stroke-width="8" d=" M-60.823001861572266,-95.6969985961914 C-60.823001861572266,-95.6969985961914 -34.81100082397461,-96.04499816894531 -17.98900032043457,-106.83300018310547"></path></g><g opacity="0.5" transform="matrix(1,0,0,1,0,0)"><path fill="rgb(172,121,76)" fill-opacity="1" d=" M179.66900634765625,115.9020004272461 C172.35800170898438,108.68000030517578 158.25399780273438,110.93499755859375 143.25399780273438,130.5189971923828 C129.56100463867188,148.39599609375 102.1709976196289,155.30599975585938 106.927001953125,162.3979949951172 C118.32599639892578,179.3939971923828 207.54200744628906,143.43499755859375 179.66900634765625,115.9020004272461z"></path></g><g opacity="1" transform="matrix(1,0,0,1,0,0)"><path stroke-linecap="round" stroke-linejoin="round" fill-opacity="0" stroke="rgb(114,63,12)" stroke-opacity="1" stroke-width="8" d=" M65.62699890136719,-67.14399719238281 C65.62699890136719,-67.14399719238281 76.33399963378906,-115.072998046875 25.34600067138672,-154.84300231933594 C-25.642000198364258,-194.61300659179688 -52.3129997253418,-194.2899932861328 -50.1150016784668,-186.96499633789062 C-48.803001403808594,-182.5919952392578 -37.36800003051758,-175.23800659179688 -45.5260009765625,-158.9219970703125 C-53.683998107910156,-142.6060028076172 -73.05999755859375,-121.70099639892578 -60.823001861572266,-95.6969985961914 C-60.823001861572266,-95.6969985961914 -85.80699920654297,-97.73699951171875 -106.2020034790039,-67.14399719238281 C-126.59700012207031,-36.55099868774414 -112.31999969482422,-3.0339999198913574 -112.31999969482422,-3.0339999198913574 C-112.31999969482422,-3.0339999198913574 -150.05099487304688,6.251999855041504 -159.22900390625,39.051998138427734 C-167.46400451660156,68.48200225830078 -155.14999389648438,92.11599731445312 -155.14999389648438,92.11599731445312 C-155.14999389648438,92.11599731445312 -193.9010009765625,97.03700256347656 -207.1580047607422,137.31700134277344 C-220.4149932861328,177.5970001220703 -194.92100524902344,209.8209991455078 -164.3280029296875,211.80999755859375 C-133.73500061035156,213.7989959716797 -104.6719970703125,198.7570037841797 -47.055999755859375,203.09100341796875 C-0.3179999887943268,206.60699462890625 117.125,218.38699340820312 165.56300354003906,203.6009979248047 C214.00100708007812,188.81500244140625 218.58999633789062,142.9720001220703 198.19500732421875,117.19999694824219 C177.8000030517578,91.4280014038086 155.36500549316406,95.50700378417969 155.36500549316406,95.50700378417969 C155.36500549316406,95.50700378417969 174.45899963378906,53.54600143432617 151.79600524902344,21.590999603271484 C137.00999450683594,0.7419999837875366 112.53500366210938,0.7419999837875366 112.53500366210938,0.7419999837875366 C112.53500366210938,0.7419999837875366 123.75299835205078,-29.92300033569336 107.43699645996094,-49.29800033569336 C91.12100219726562,-68.6729965209961 65.62699890136719,-67.14399719238281 65.62699890136719,-67.14399719238281z"></path></g><g opacity="1" transform="matrix(1,0,0,1,0,0)"><path stroke-linecap="round" stroke-linejoin="round" fill-opacity="0" stroke="rgb(255,255,255)" stroke-opacity="1" stroke-width="6" d=" M-71.10900115966797,-70.96900177001953 C-69.81199645996094,-71.78099822998047 -68.41100311279297,-72.56600189208984 -66.89900207519531,-73.31099700927734"></path></g><g opacity="1" transform="matrix(1,0,0,1,0,0)"><path stroke-linecap="round" stroke-linejoin="round" fill-opacity="0" stroke="rgb(255,255,255)" stroke-opacity="1" stroke-width="6" d=" M-86.60700225830078,-52.513999938964844 C-86.60700225830078,-52.513999938964844 -84.9209976196289,-58.88600158691406 -78.15699768066406,-65.46600341796875"></path></g></g><g style="display: block;" transform="matrix(1,0,0,1,256.56201171875,259.3900146484375)" opacity="1"><g opacity="1" transform="matrix(1,0,0,1,0,0)"><path fill="rgb(172,121,76)" fill-opacity="1" d=" M-80.46700286865234,106.55599975585938 C-80.46700286865234,106.55599975585938 -26.11400032043457,106.55599975585938 1.062999963760376,106.55599975585938 C27.156999588012695,106.55599975585938 79.34600067138672,106.55599975585938 79.34600067138672,106.55599975585938 C84.16500091552734,106.55599975585938 87.02999877929688,112.14700317382812 84.35700225830078,116.32599639892578 C74.552001953125,131.65199279785156 49.85599899291992,159.625 -0.5419999957084656,159.70799255371094 C-50.108001708984375,159.7899932861328 -75.36699676513672,131.76400756835938 -85.44200134277344,116.38099670410156 C-88.17500305175781,112.20800018310547 -85.31500244140625,106.55599975585938 -80.46700286865234,106.55599975585938z"></path></g><g opacity="1" transform="matrix(1,0,0,1,0,0)"><path fill="rgb(114,63,12)" fill-opacity="1" d=" M-77.2490005493164,112.70899963378906 C-77.2490005493164,112.70899963378906 -25.082000732421875,112.70899963378906 1.0010000467300415,112.70899963378906 C26.042999267578125,112.70899963378906 76.12799835205078,112.70899963378906 76.12799835205078,112.70899963378906 C80.75299835205078,112.70899963378906 83.50299835205078,118.45500183105469 80.93699645996094,122.7490005493164 C71.5270004272461,138.4980010986328 47.82500076293945,167.24200439453125 -0.5429999828338623,167.32699584960938 C-48.11199951171875,167.41099548339844 -72.3550033569336,138.61199951171875 -82.02400207519531,122.80500030517578 C-84.64700317382812,118.51699829101562 -81.9020004272461,112.70899963378906 -77.2490005493164,112.70899963378906z"></path></g><g opacity="1" transform="matrix(1,0,0,1,0,0)"><path fill="rgb(238,238,239)" fill-opacity="1" d=" M-77.2490005493164,112.94599914550781 C-77.2490005493164,112.94599914550781 1.687999963760376,112.94599914550781 1.687999963760376,112.94599914550781 C1.687999963760376,112.94599914550781 76.12699890136719,112.94599914550781 76.12699890136719,112.94599914550781 C80.75199890136719,112.94599914550781 80.93599700927734,121.00700378417969 80.93599700927734,121.00700378417969 C71.5260009765625,135.12100219726562 47.82500076293945,160.88099670410156 -0.5429999828338623,160.95799255371094 C-48.11199951171875,161.0330047607422 -72.35399627685547,135.22500610351562 -82.02300262451172,121.05799865722656 C-82.02300262451172,121.05799865722656 -81.9020004272461,112.94599914550781 -77.2490005493164,112.94599914550781z"></path></g><g opacity="1" transform="matrix(1,0,0,1,0,0)"><path fill="rgb(181,181,181)" fill-opacity="1" d=" M80.93199920654297,121.01200103759766 C77.95600128173828,125.48500061035156 73.53099822998047,131.1269989013672 67.34600067138672,136.75 C68.80599975585938,134.67300415039062 70.05000305175781,132.70799255371094 71.08899688720703,130.92999267578125 C73.34400177001953,127.08399963378906 70.93000030517578,121.93800354003906 66.86900329589844,121.93800354003906 C66.86900329589844,121.93800354003906 22.915000915527344,121.93800354003906 0.9380000233650208,121.93800354003906 C-22.035999298095703,121.93800354003906 -67.98300170898438,121.93800354003906 -67.98300170898438,121.93800354003906 C-72.08100128173828,121.93800354003906 -74.48600006103516,127.13999938964844 -72.18399810791016,130.98599243164062 C-71.18299865722656,132.6510009765625 -70.00399780273438,134.4759979248047 -68.63800048828125,136.4040069580078 C-74.66400146484375,130.92100524902344 -79.04199981689453,125.43699645996094 -82.0270004272461,121.05799865722656 C-82.0270004272461,121.05799865722656 -81.90599822998047,112.94599914550781 -77.24600219726562,112.94599914550781 C-77.24600219726562,112.94599914550781 -25.101999282836914,112.94599914550781 0.9700000286102295,112.94599914550781 C26.02400016784668,112.94599914550781 76.13200378417969,112.94599914550781 76.13200378417969,112.94599914550781 C80.75399780273438,112.94599914550781 80.93199920654297,121.01200103759766 80.93199920654297,121.01200103759766z"></path></g><g opacity="1" transform="matrix(1,0,0,1,0,0)"><path fill="rgb(104,86,74)" fill-opacity="1" d=" M80.93199920654297,121.01200103759766 C80.71700286865234,121.33999633789062 80.49299621582031,121.66600036621094 80.26799774169922,122.00299835205078 C80.30500030517578,118.96199798583984 77.9469985961914,116.12699890136719 74.58799743652344,116.12699890136719 C74.58799743652344,116.12699890136719 25.655000686645508,116.12699890136719 1.187999963760376,116.12699890136719 C-24.441999435424805,116.12699890136719 -75.7020034790039,116.12699890136719 -75.7020034790039,116.12699890136719 C-79.06099700927734,116.12699890136719 -81.41000366210938,118.9530029296875 -81.39099884033203,121.9749984741211 C-81.60600280761719,121.66600036621094 -81.82099914550781,121.35700225830078 -82.0270004272461,121.05799865722656 C-84.64700317382812,117.21199798583984 -81.90599822998047,112.01000213623047 -77.24600219726562,112.01000213623047 C-77.24600219726562,112.01000213623047 -25.101999282836914,112.01000213623047 0.9700000286102295,112.01000213623047 C26.02400016784668,112.01000213623047 76.13200378417969,112.01000213623047 76.13200378417969,112.01000213623047 C80.75399780273438,112.01000213623047 83.50499725341797,117.15699768066406 80.93199920654297,121.01200103759766z"></path></g></g><g style="display: block;" transform="matrix(1,0,0,1,256.0010070800781,258.9989929199219)" opacity="1"><g opacity="1" transform="matrix(1,0,0,1,0,0)"><path fill="rgb(172,121,76)" fill-opacity="1" d=" M116.44100189208984,32.755001068115234 C116.44100189208984,67.28099822998047 94.66699981689453,95.2699966430664 67.80799865722656,95.2699966430664 C40.94900131225586,95.2699966430664 19.174999237060547,67.28099822998047 19.174999237060547,32.755001068115234 C19.174999237060547,-1.7710000276565552 40.94900131225586,-29.760000228881836 67.80799865722656,-29.760000228881836 C94.66699981689453,-29.760000228881836 116.44100189208984,-1.7710000276565552 116.44100189208984,32.755001068115234z"></path></g><g opacity="1" transform="matrix(1,0,0,1,0,0)"><path fill="rgb(104,86,74)" fill-opacity="1" d=" M114.46199798583984,35.284000396728516 C114.46199798583984,67.072998046875 93.5739974975586,92.84200286865234 67.80799865722656,92.84200286865234 C42.04199981689453,92.84200286865234 21.15399932861328,67.072998046875 21.15399932861328,35.284000396728516 C21.15399932861328,3.494999885559082 42.04199981689453,-22.27400016784668 67.80799865722656,-22.27400016784668 C93.5739974975586,-22.27400016784668 114.46199798583984,3.494999885559082 114.46199798583984,35.284000396728516z"></path></g><g opacity="1" transform="matrix(1,0,0,1,0,0)"><path fill="rgb(181,181,181)" fill-opacity="1" d=" M114.46199798583984,38.558998107910156 C114.46199798583984,68.53900146484375 93.5739974975586,92.84200286865234 67.80799865722656,92.84200286865234 C42.04199981689453,92.84200286865234 21.15399932861328,68.53900146484375 21.15399932861328,38.558998107910156 C21.15399932861328,8.579000473022461 42.04199981689453,-15.725000381469727 67.80799865722656,-15.725000381469727 C93.5739974975586,-15.725000381469727 114.46199798583984,8.579000473022461 114.46199798583984,38.558998107910156z"></path></g><g opacity="1" transform="matrix(1,0,0,1,0,0)"><path fill="rgb(238,238,239)" fill-opacity="1" d=" M108.90699768066406,42.137001037597656 C108.90699768066406,70.13999938964844 90.50599670410156,92.84200286865234 67.80799865722656,92.84200286865234 C45.11000061035156,92.84200286865234 26.709999084472656,70.13999938964844 26.709999084472656,42.137001037597656 C26.709999084472656,14.133999824523926 45.11000061035156,-8.567000389099121 67.80799865722656,-8.567000389099121 C90.50599670410156,-8.567000389099121 108.90699768066406,14.133999824523926 108.90699768066406,42.137001037597656z"></path></g></g><g style="display: block;" transform="matrix(1,0,0,1,256.56201171875,259.3900146484375)" opacity="1"><g opacity="1" transform="matrix(1,0,0,1,0,0)"><path fill="rgb(1,1,1)" fill-opacity="1" d=" M90.66799926757812,36.10599899291992 C90.66799926757812,54.64400100708008 80.43299865722656,69.6729965209961 67.80799865722656,69.6729965209961 C55.18299865722656,69.6729965209961 44.94900131225586,54.64400100708008 44.94900131225586,36.10599899291992 C44.94900131225586,17.56800079345703 55.18299865722656,2.5399999618530273 67.80799865722656,2.5399999618530273 C80.43299865722656,2.5399999618530273 90.66799926757812,17.56800079345703 90.66799926757812,36.10599899291992z"></path></g><g opacity="1" transform="matrix(1,0,0,1,0,0)"><path stroke-linecap="round" stroke-linejoin="round" fill-opacity="0" stroke="rgb(255,255,255)" stroke-opacity="1" stroke-width="6" d=" M83.31400299072266,16.718000411987305 C84.63099670410156,15.895999908447266 86.01100158691406,15.057999610900879 87.44999694824219,14.211999893188477"></path></g></g><g style="display: block;" transform="matrix(1,0,0,1,256.0010070800781,258.9989929199219)" opacity="1"><g opacity="1" transform="matrix(1,0,0,1,0,0)"><path fill="rgb(140,78,31)" fill-opacity="1" d=" M104.16400146484375,4.556000232696533 C110.60099792480469,13.862000465393066 114.46199798583984,25.683000564575195 114.46199798583984,38.558998107910156 C114.46199798583984,68.53900146484375 93.5739974975586,92.84200286865234 67.80799865722656,92.84200286865234 C42.04199981689453,92.84200286865234 21.15399932861328,68.53900146484375 21.15399932861328,38.558998107910156 C21.15399932861328,25.683000564575195 25.014999389648438,13.862000465393066 31.45199966430664,4.556000232696533 C23.819000244140625,14.720999717712402 19.174999237060547,28.100000381469727 19.174999237060547,42.76900100708008 C19.174999237060547,74.55799865722656 40.94900131225586,100.3280029296875 67.80799865722656,100.3280029296875 C94.66699981689453,100.3280029296875 116.44100189208984,74.55799865722656 116.44100189208984,42.76900100708008 C116.44100189208984,28.100000381469727 111.7969970703125,14.720999717712402 104.16400146484375,4.556000232696533z"></path></g></g><g style="display: block;" transform="matrix(1,0,0,1,256,258.9989929199219)" opacity="1"><g opacity="1" transform="matrix(1,0,0,1,0,0)"><path fill="rgb(172,121,76)" fill-opacity="1" d=" M-20.297000885009766,32.755001068115234 C-20.297000885009766,67.28099822998047 -42.07099914550781,95.2699966430664 -68.93000030517578,95.2699966430664 C-95.78900146484375,95.2699966430664 -117.56300354003906,67.28099822998047 -117.56300354003906,32.755001068115234 C-117.56300354003906,-1.7710000276565552 -95.78900146484375,-29.760000228881836 -68.93000030517578,-29.760000228881836 C-42.07099914550781,-29.760000228881836 -20.297000885009766,-1.7710000276565552 -20.297000885009766,32.755001068115234z"></path></g><g opacity="1" transform="matrix(1,0,0,1,0,0)"><path fill="rgb(104,86,74)" fill-opacity="1" d=" M-22.275999069213867,35.284000396728516 C-22.275999069213867,67.072998046875 -43.16400146484375,92.84200286865234 -68.93000030517578,92.84200286865234 C-94.69599914550781,92.84200286865234 -115.58399963378906,67.072998046875 -115.58399963378906,35.284000396728516 C-115.58399963378906,3.494999885559082 -94.69599914550781,-22.27400016784668 -68.93000030517578,-22.27400016784668 C-43.16400146484375,-22.27400016784668 -22.275999069213867,3.494999885559082 -22.275999069213867,35.284000396728516z"></path></g><g opacity="1" transform="matrix(1,0,0,1,0,0)"><path fill="rgb(181,181,181)" fill-opacity="1" d=" M-22.275999069213867,38.558998107910156 C-22.275999069213867,68.53900146484375 -43.16400146484375,92.84200286865234 -68.93000030517578,92.84200286865234 C-94.69599914550781,92.84200286865234 -115.58399963378906,68.53900146484375 -115.58399963378906,38.558998107910156 C-115.58399963378906,8.579000473022461 -94.69599914550781,-15.725000381469727 -68.93000030517578,-15.725000381469727 C-43.16400146484375,-15.725000381469727 -22.275999069213867,8.579000473022461 -22.275999069213867,38.558998107910156z"></path></g><g opacity="1" transform="matrix(1,0,0,1,0,0)"><path fill="rgb(238,238,239)" fill-opacity="1" d=" M-27.832000732421875,42.137001037597656 C-27.832000732421875,70.13999938964844 -46.231998443603516,92.84200286865234 -68.93000030517578,92.84200286865234 C-91.62799835205078,92.84200286865234 -110.02899932861328,70.13999938964844 -110.02899932861328,42.137001037597656 C-110.02899932861328,14.133999824523926 -91.62799835205078,-8.567000389099121 -68.93000030517578,-8.567000389099121 C-46.231998443603516,-8.567000389099121 -27.832000732421875,14.133999824523926 -27.832000732421875,42.137001037597656z"></path></g></g><g style="display: block;" transform="matrix(1,0,0,1,256.5610046386719,259.3900146484375)" opacity="1"><g opacity="1" transform="matrix(1,0,0,1,0,0)"><path fill="rgb(1,1,1)" fill-opacity="1" d=" M-46.07099914550781,36.10599899291992 C-46.07099914550781,54.64400100708008 -56.30500030517578,69.6729965209961 -68.93000030517578,69.6729965209961 C-81.55500030517578,69.6729965209961 -91.79000091552734,54.64400100708008 -91.79000091552734,36.10599899291992 C-91.79000091552734,17.56800079345703 -81.55500030517578,2.5399999618530273 -68.93000030517578,2.5399999618530273 C-56.30500030517578,2.5399999618530273 -46.07099914550781,17.56800079345703 -46.07099914550781,36.10599899291992z"></path></g><g opacity="1" transform="matrix(1,0,0,1,0,0)"><path stroke-linecap="round" stroke-linejoin="round" fill-opacity="0" stroke="rgb(255,255,255)" stroke-opacity="1" stroke-width="6" d=" M-53.42399978637695,16.718000411987305 C-52.106998443603516,15.895999908447266 -50.72800064086914,15.057999610900879 -49.28900146484375,14.211999893188477"></path></g></g><g style="display: block;" transform="matrix(1,0,0,1,256,258.9989929199219)" opacity="1"><g opacity="1" transform="matrix(1,0,0,1,0,0)"><path fill="rgb(140,78,31)" fill-opacity="1" d=" M-32.57400131225586,4.557000160217285 C-26.136999130249023,13.86299991607666 -22.275999069213867,25.68400001525879 -22.275999069213867,38.558998107910156 C-22.275999069213867,68.53900146484375 -43.16400146484375,92.84200286865234 -68.93000030517578,92.84200286865234 C-94.69599914550781,92.84200286865234 -115.58399963378906,68.53900146484375 -115.58399963378906,38.558998107910156 C-115.58399963378906,25.68400001525879 -111.7229995727539,13.86299991607666 -105.28600311279297,4.557000160217285 C-112.91899871826172,14.722000122070312 -117.56300354003906,28.100000381469727 -117.56300354003906,42.76900100708008 C-117.56300354003906,74.55799865722656 -95.78900146484375,100.3280029296875 -68.93000030517578,100.3280029296875 C-42.07099914550781,100.3280029296875 -20.297000885009766,74.55799865722656 -20.297000885009766,42.76900100708008 C-20.297000885009766,28.100000381469727 -24.94099998474121,14.722000122070312 -32.57400131225586,4.557000160217285z"></path></g></g><g style="display: none;"><g><path></path></g><g><path></path></g><g><path></path></g><g><path></path></g></g><g style="display: none;"><g><path></path></g><g><path></path></g><g><path></path></g><g><path></path></g></g></g></svg>