<svg xmlns="http://www.w3.org/2000/svg" viewBox="0 0 512 512" width="512" height="512" style="width: 100%; height: 100%; transform: translate3d(0,0,0);" preserveAspectRatio="xMidYMid meet"><defs><clipPath id="__lottie_element_20427"><rect width="512" height="512" x="0" y="0"></rect></clipPath></defs><g clip-path="url(#__lottie_element_20427)"><g style="display: block;" transform="matrix(1,0,0,1,247.0419921875,364.72601318359375)" opacity="1"><g opacity="1" transform="matrix(1,0,0,1,0,0)"><path fill="rgb(255,209,64)" fill-opacity="1" d=" M108.56900024414062,-105.84700012207031 C116.46199798583984,-68.31600189208984 131.21499633789062,-18.11400032043457 113.6969985961914,40.69499969482422 C97.74299621582031,94.25700378417969 79.62799835205078,127.86199951171875 12.842000007629395,128.1649932861328 C-53.77399826049805,128.4669952392578 -87.44400024414062,103.35700225830078 -104.53800201416016,61.777000427246094 C-115.90299987792969,34.13399887084961 -127.56600189208984,-44.7400016784668 -118.9010009765625,-91.1969985961914 C-111.0270004272461,-133.41400146484375 101.15799713134766,-141.0850067138672 108.56900024414062,-105.84700012207031z"></path></g></g><g style="display: block;" transform="matrix(1,0,0,1,0,31.5)" opacity="1"><g opacity="1" transform="matrix(1,0,0,1,332.9469909667969,156.65199279785156)"><path fill="rgb(255,209,64)" fill-opacity="1" d=" M34.303001403808594,134.09800720214844 C31.500999450683594,111.68299865722656 28.086000442504883,40.32500076293945 26.291000366210938,-8.65999984741211 C25.52400016784668,-29.60700035095215 25.05299949645996,-46.4630012512207 25.05299949645996,-53.652000427246094 C25.05299949645996,-77.6520004272461 24.132999420166016,-103.6520004272461 -0.9470000267028809,-103.6520004272461 C-26.94700050354004,-103.6520004272461 -26.099000930786133,-76.63899993896484 -26.94700050354004,-48.652000427246094 C-27.382999420166016,-34.277000427246094 -28.007999420166016,-12.690999984741211 -28.575000762939453,7.09499979019165 C-29.309999465942383,32.731998443603516 -29.94700050354004,55.347999572753906 -29.94700050354004,55.347999572753906 C-29.94700050354004,55.347999572753906 -39.446998596191406,103.0979995727539 -19.94700050354004,106.8479995727539 C6.052999973297119,111.8479995727539 34.303001403808594,134.09800720214844 34.303001403808594,134.09800720214844z"></path></g><g opacity="1" transform="matrix(1,0,0,1,330.2980041503906,125.5)"><path fill="rgb(255,223,121)" fill-opacity="1" d=" M24.70199966430664,-39.5 C24.70199966430664,-39.5 21.267000198364258,-59.47999954223633 -0.2980000078678131,-58.5 C-15.151000022888184,-57.82500076293945 -16.329999923706055,-17.492000579833984 -18.29800033569336,21.566999435424805 C-19.2450008392334,40.35900115966797 -20.374000549316406,58.856998443603516 -23.29800033569336,72.5 C-23.29800033569336,72.5 -24.143999099731445,56.13800048828125 -24.583999633789062,34.1510009765625 C-24.972000122070312,14.741000175476074 -25.04400062561035,-9.053999900817871 -23.937000274658203,-29.847000122070312 C-22.357999801635742,-59.50299835205078 -16.29800033569336,-72.5 2.7019999027252197,-72.5 C21.70199966430664,-72.5 25.70199966430664,-54.5 24.70199966430664,-39.5z"></path></g><g opacity="1" transform="matrix(1,0,0,1,0,0)"><path fill="rgb(255,223,121)" fill-opacity="0" d=" M324.4360046386719,187.5590057373047 C296.15399169921875,184.9770050048828 307.22198486328125,237.38999938964844 308.6910095214844,249.92799377441406 C322.95001220703125,254.9980010986328 346.3909912109375,271.5360107421875 357.61199951171875,285.9739990234375 C356.5790100097656,278.5270080566406 351.4150085449219,236.74400329589844 350.4389953613281,218.6510009765625 C349.0610046386719,193.08799743652344 339.6809997558594,188.9510040283203 324.4360046386719,187.5590057373047z"></path></g><g opacity="1" transform="matrix(1,0,0,1,0,0)"><path fill="rgb(255,177,57)" fill-opacity="1" d=" M335.2659912109375,55.558998107910156 C353.8599853515625,65.41999816894531 351.46099853515625,120.40799713134766 352.0039978027344,130.51100158691406 C352.5,139.75 352.47198486328125,143.94200134277344 352.3240051269531,152.052001953125 C352.17999267578125,159.91200256347656 352.5,162.5 352.63299560546875,169.9669952392578 C352.7749938964844,177.95700073242188 354.25,194 354.57598876953125,201.66400146484375 C354.76300048828125,206.04800415039062 356.1579895019531,213.7469940185547 358.0679931640625,231.5229949951172 C359.50299072265625,244.87600708007812 362.1310119628906,267.5450134277344 363.90301513671875,280.31201171875 C365.6830139160156,281.4200134277344 363.3080139160156,285.9960021972656 366.2040100097656,289.1910095214844 C367.7309875488281,271.9809875488281 358.625,213.177001953125 357.0260009765625,189.67300415039062 C356.10101318359375,176.0850067138672 374.25,50.5 335.2659912109375,55.558998107910156z"></path></g><g opacity="1" transform="matrix(1,0,0,1,342.9219970703125,146.1750030517578)"><path fill="rgb(255,177,57)" fill-opacity="1" d=" M-15.92199993133545,-89.17500305175781 C-5.921999931335449,-88.17500305175781 4.078000068664551,-84.17500305175781 5.078000068664551,-53.17499923706055 C5.452000141143799,-41.59299850463867 5.966000080108643,-23.031999588012695 6.8460001945495605,-2.497999906539917 C8.321999549865723,31.929000854492188 10.829999923706055,71.9020004272461 15.442999839782715,93.8280029296875 C15.442999839782715,93.8280029296875 15.993000030517578,31.827999114990234 15.53600025177002,2.3269999027252197 C15.079000473022461,-27.173999786376953 19.781999588012695,-72.09500122070312 5.429999828338623,-86.63500213623047 C-8.92199993133545,-101.17500305175781 -15.92199993133545,-89.17500305175781 -15.92199993133545,-89.17500305175781z"></path></g><g opacity="1" transform="matrix(1,0,0,1,333,153)"><path stroke-linecap="round" stroke-linejoin="round" fill-opacity="0" stroke="rgb(247,126,65)" stroke-opacity="1" stroke-width="8" d=" M30,100 C27.325000762939453,78.5999984741211 25.992000579833984,29.472999572753906 25.402000427246094,-7.9039998054504395 C25.110000610351562,-26.417999267578125 25,-42.04999923706055 25,-50 C25,-74 24.079999923706055,-100 -1,-100 C-27,-100 -26.152000427246094,-72.98699951171875 -27,-45 C-27.41200065612793,-31.391000747680664 -27.9950008392334,-11.319000244140625 -28.53700065612793,7.570000171661377 C-29.30900001525879,34.48500061035156 -30,59 -30,59"></path></g></g><g style="display: block;" transform="matrix(1,0,0,1,307.8949890136719,308.8909912109375)" opacity="1"><g opacity="1" transform="matrix(1,0,0,1,0,0)"><path fill="rgb(255,177,57)" fill-opacity="1" d=" M-59.89099884033203,-31.211000442504883 C-59.89099884033203,-31.211000442504883 -44.25199890136719,-25.207000732421875 -28.038000106811523,-28.211000442504883 C-11.824000358581543,-31.21500015258789 11.795000076293945,-35.39500045776367 57.27000045776367,2.7339999675750732 C57.27000045776367,2.7339999675750732 59.89099884033203,31.211000442504883 59.89099884033203,31.211000442504883 C59.89099884033203,31.211000442504883 -54.09199905395508,1.7339999675750732 -54.09199905395508,1.7339999675750732 C-54.09199905395508,1.7339999675750732 -59.89099884033203,-31.211000442504883 -59.89099884033203,-31.211000442504883z"></path></g></g><g style="display: block;" transform="matrix(1,0,0,1,271.65399169921875,389.79901123046875)" opacity="1"><g opacity="1" transform="matrix(1,0,0,1,0,0)"><path fill="rgb(255,177,57)" fill-opacity="1" d=" M26.434999465942383,-17.17099952697754 C26.434999465942383,-17.17099952697754 -1.628999948501587,-16.26099967956543 -21.729000091552734,23.288000106811523 C-27.488000869750977,34.61899948120117 -30.195999145507812,11.482000350952148 -16.437999725341797,-10.062000274658203 C-0.6710000038146973,-34.75199890136719 20.533000946044922,-26.198999404907227 26.434999465942383,-17.17099952697754z"></path></g></g><g style="display: block;" transform="matrix(1,0,0,1,255.99998474121094,256)" opacity="1"><g opacity="1" transform="matrix(1,0,0,1,0,0)"><path fill="rgb(255,177,57)" fill-opacity="1" d=" M-51.75,58.25 C-59.733001708984375,85.08100128173828 -42.45199966430664,106.6969985961914 -16.5,109.25 C-1.25,110.75 25,110.75 37.75,110 C50.5,109.25 66.08899688720703,86.5979995727539 49,71.75 C33.75,58.5 -42.75,28 -51.75,58.25z"></path></g></g><g style="display: block;" transform="matrix(1,0,0,1,251.39700317382812,392.2340087890625)" opacity="1"><g opacity="1" transform="matrix(1,0,0,1,0,0)"><path fill="rgb(255,177,57)" fill-opacity="1" d=" M126.26599884033203,-3.7149999141693115 C126.26599884033203,-3.7149999141693115 126.26599884033203,-3.694999933242798 126.26599884033203,-3.694999933242798 C119.72599792480469,25.045000076293945 103.09600067138672,58.80500030517578 72.08599853515625,82.25499725341797 C72.06600189208984,82.2750015258789 72.0459976196289,82.28500366210938 72.0260009765625,82.30500030517578 C57.555999755859375,94.03500366210938 37.66600036621094,100.5250015258789 8.486000061035156,100.65499877929688 C-58.124000549316406,100.95500183105469 -91.79399871826172,75.84500122070312 -108.89399719238281,34.26499938964844 C-118.8239974975586,10.114999771118164 -128.98399353027344,-53.14500045776367 -125.60399627685547,-99.7249984741211 C-107.10399627685547,-101.4749984741211 -80.54399871826172,-101.23500061035156 -44.67399978637695,-94.82499694824219 C-40.80400085449219,-94.13500213623047 7.369999885559082,-91.73100280761719 -4.50600004196167,-68.93199920654297 C-14.897000312805176,-48.98400115966797 -35.24100112915039,-50.99599838256836 -47.194000244140625,-52.8650016784668 C-59.14699935913086,-54.73400115966797 -66.23400115966797,-61.73500061035156 -66.23400115966797,-61.73500061035156 C-85.66400146484375,-42.435001373291016 -111.11399841308594,-56.30500030517578 -111.11399841308594,-56.30500030517578 C-108.38200378417969,5.201000213623047 -88.49800109863281,66.1969985961914 -7.827000141143799,72.0530014038086 C14.508000373840332,73.67400360107422 49.8650016784668,68.56999969482422 66.38600158691406,59.1609992980957 C84.74400329589844,48.70600128173828 102.50299835205078,32.40399932861328 110.25499725341797,20.718000411987305 C118.48899841308594,8.303999900817871 126.26599884033203,-3.7149999141693115 126.26599884033203,-3.7149999141693115z"></path></g></g><g style="display: block;" transform="matrix(1,0,0,1,246.6219940185547,366.64599609375)" opacity="1"><g opacity="1" transform="matrix(1,0,0,1,0,0)"><path stroke-linecap="round" stroke-linejoin="round" fill-opacity="0" stroke="rgb(247,126,65)" stroke-opacity="1" stroke-width="8" d=" M116.37799835205078,-82.14600372314453 C120.37799835205078,-44.145999908447266 126.5459976196289,-2.9519999027252197 114.11699676513672,38.775001525878906 C98.16300201416016,92.33699798583984 80.0479965209961,125.94200134277344 13.26200008392334,126.24500274658203 C-53.354000091552734,126.5469970703125 -87.02400207519531,101.43699645996094 -104.11799621582031,59.856998443603516 C-115.48300170898438,32.2140007019043 -127.1449966430664,-46.65999984741211 -118.4800033569336,-93.11699676513672 C-115.41000366210938,-109.5780029296875 -81.27799987792969,-120.78700256347656 -40.334999084472656,-126.24800109863281"></path></g></g><g style="display: block;" transform="matrix(1,0,0,1,0,31.5)" opacity="1"><g opacity="1" transform="matrix(1,0,0,1,276.00299072265625,235.11900329589844)"><path fill="rgb(255,209,64)" fill-opacity="1" d=" M28.996999740600586,-23.118999481201172 C27.302000045776367,-40.06399917602539 18.993000030517578,-56.2140007019043 -4.002999782562256,-55.11899948120117 C-25.003000259399414,-54.11899948120117 -32.17300033569336,-37.724998474121094 -30.58799934387207,-17.422000885009766 C-29.003000259399414,2.88100004196167 -38.887001037597656,52.275001525878906 -0.4449999928474426,55.077999114990234 C37.99700164794922,57.88100051879883 30.996999740600586,-3.11899995803833 28.996999740600586,-23.118999481201172z"></path><path fill="rgb(255,223,121)" fill-opacity="0" d=" M28.996999740600586,-23.118999481201172 C27.302000045776367,-40.06399917602539 18.993000030517578,-56.2140007019043 -4.002999782562256,-55.11899948120117 C-25.003000259399414,-54.11899948120117 -32.17300033569336,-37.724998474121094 -30.58799934387207,-17.422000885009766 C-29.003000259399414,2.88100004196167 -38.887001037597656,52.275001525878906 -0.4449999928474426,55.077999114990234 C37.99700164794922,57.88100051879883 30.996999740600586,-3.11899995803833 28.996999740600586,-23.118999481201172z"></path></g><g opacity="1" transform="matrix(1,0,0,1,276.7539978027344,258.7919921875)"><path fill="rgb(255,177,57)" fill-opacity="1" d=" M-26.799999237060547,-31.20800018310547 C-26.753999710083008,-22.79199981689453 -24.753999710083008,-0.7919999957084656 -0.7540000081062317,-0.7919999957084656 C26.263999938964844,-0.7919999957084656 27.775999069213867,-21.624000549316406 27.51099967956543,-31.20800018310547 C27.51099967956543,-31.20800018310547 38.24599838256836,31.20800018310547 -0.7540000081062317,31.20800018310547 C-39.75400161743164,31.20800018310547 -26.799999237060547,-31.20800018310547 -26.799999237060547,-31.20800018310547z"></path></g><g opacity="1" transform="matrix(1,0,0,1,276,205.47500610351562)"><path fill="rgb(255,223,121)" fill-opacity="1" d=" M-28.618999481201172,25.538000106811523 C-28.618999481201172,25.538000106811523 -27.013999938964844,-10.640000343322754 -5,-12.475000381469727 C19,-14.475000381469727 26.520999908447266,12.550000190734863 28.76099967956543,25.538000106811523 C28.76099967956543,25.538000106811523 40,-24.475000381469727 -4,-25.475000381469727 C-4,-25.475000381469727 -37.237998962402344,-29.450000762939453 -28.618999481201172,25.538000106811523z"></path></g><g opacity="1" transform="matrix(1,0,0,1,276.00299072265625,235.11900329589844)"><path stroke-linecap="butt" stroke-linejoin="miter" fill-opacity="0" stroke-miterlimit="10" stroke="rgb(247,126,65)" stroke-opacity="1" stroke-width="8" d=" M28.996999740600586,-23.118999481201172 C27.302000045776367,-40.06399917602539 18.993000030517578,-56.2140007019043 -4.002999782562256,-55.11899948120117 C-25.003000259399414,-54.11899948120117 -32.17300033569336,-37.724998474121094 -30.58799934387207,-17.422000885009766 C-29.003000259399414,2.88100004196167 -38.887001037597656,52.275001525878906 -0.4449999928474426,55.077999114990234 C37.99700164794922,57.88100051879883 30.996999740600586,-3.11899995803833 28.996999740600586,-23.118999481201172z"></path></g></g><g style="display: block;" transform="matrix(1,0,0,1,0.063995361328125,31.9310302734375)" opacity="1"><g opacity="1" transform="matrix(1,0,0,1,216.58399963378906,240.0030059814453)"><path fill="rgb(255,209,64)" fill-opacity="1" d=" M-5.380000114440918,-51.91299819946289 C-25.64900016784668,-49.67300033569336 -34.15399932861328,-31.5310001373291 -30.64699935913086,6.11299991607666 C-27.36199951171875,41.374000549316406 -13.515000343322754,52.19900131225586 3.490000009536743,52.15800094604492 C18.634000778198242,52.12200164794922 31.31599998474121,39.24399948120117 31.415000915527344,6.192999839782715 C31.5049991607666,-24.01099967956543 24.740999221801758,-55.242000579833984 -5.380000114440918,-51.91299819946289z"></path><path fill="rgb(255,223,121)" fill-opacity="0" d=" M-5.380000114440918,-51.91299819946289 C-25.64900016784668,-49.67300033569336 -34.15399932861328,-31.5310001373291 -30.64699935913086,6.11299991607666 C-27.36199951171875,41.374000549316406 -13.515000343322754,52.19900131225586 3.490000009536743,52.15800094604492 C18.634000778198242,52.12200164794922 31.31599998474121,39.24399948120117 31.415000915527344,6.192999839782715 C31.5049991607666,-24.01099967956543 24.740999221801758,-55.242000579833984 -5.380000114440918,-51.91299819946289z"></path></g><g opacity="1" transform="matrix(1,0,0,1,216.38699340820312,261.58599853515625)"><path fill="rgb(255,177,57)" fill-opacity="1" d=" M27.667999267578125,-30.572999954223633 C35.21699905395508,13.666000366210938 18.834999084472656,30.542999267578125 3.684999942779541,30.572999954223633 C-11.944999694824219,30.613000869750977 -31.22100067138672,11.878999710083008 -29.454999923706055,-23.409000396728516 C-26.915000915527344,-18.999000549316406 -26.440000534057617,1.9479999542236328 2.2690000534057617,-0.37400001287460327 C29.613000869750977,-2.5850000381469727 27.667999267578125,-30.572999954223633 27.667999267578125,-30.572999954223633z"></path></g><g opacity="1" transform="matrix(1,0,0,1,216.5850067138672,221.61099243164062)"><path fill="rgb(255,223,121)" fill-opacity="1" d=" M31.417999267578125,24.586999893188477 C31.417999267578125,24.586999893188477 24.51799964904785,-19.55299949645996 -1.0720000267028809,-19.593000411987305 C-26.66200065612793,-19.632999420166016 -29.031999588012695,17.906999588012695 -29.461999893188477,33.73699951171875 C-29.461999893188477,33.73699951171875 -29.461999893188477,33.766998291015625 -29.461999893188477,33.766998291015625 C-29.941999435424805,30.886999130249023 -30.341999053955078,27.80699920654297 -30.652000427246094,24.506999969482422 C-34.152000427246094,-13.142999649047852 -25.652000427246094,-31.283000946044922 -5.381999969482422,-33.52299880981445 C24.738000869750977,-36.85300064086914 31.507999420166016,-5.623000144958496 31.417999267578125,24.586999893188477z"></path></g><g opacity="1" transform="matrix(1,0,0,1,216.08399963378906,240.0030059814453)"><path stroke-linecap="butt" stroke-linejoin="miter" fill-opacity="0" stroke-miterlimit="10" stroke="rgb(247,126,65)" stroke-opacity="1" stroke-width="8" d=" M-4.880000114440918,-51.91299819946289 C-25.14900016784668,-49.67300033569336 -33.65399932861328,-31.5310001373291 -30.14699935913086,6.11299991607666 C-26.86199951171875,41.374000549316406 -13.015000343322754,52.19900131225586 3.990000009536743,52.15800094604492 C19.134000778198242,52.12200164794922 30.81599998474121,39.24399948120117 30.915000915527344,6.192999839782715 C31.0049991607666,-24.01099967956543 25.240999221801758,-55.242000579833984 -4.880000114440918,-51.91299819946289z"></path></g><g opacity="1" transform="matrix(1,0,0,1,218.57200622558594,270.83599853515625)"><path stroke-linecap="round" stroke-linejoin="round" fill-opacity="0" stroke="rgb(247,126,65)" stroke-opacity="1" stroke-width="8" d=" M-5.364999771118164,-0.06800000369548798 C-5.364999771118164,-0.06800000369548798 0,1.3459999561309814 5.364999771118164,-0.45899999141693115"></path></g></g><g style="display: block;" transform="matrix(1,0,0,1,0,31.5)" opacity="1"><g opacity="1" transform="matrix(1,0,0,1,156.99600219726562,245.10800170898438)"><path fill="rgb(255,209,64)" fill-opacity="1" d=" M4.306000232696533,44.81399917602539 C-19.500999450683594,48.053001403808594 -28.87299919128418,22.152000427246094 -28.854000091552734,-3.0789999961853027 C-28.836000442504883,-27.02199935913086 -23.299999237060547,-43.69599914550781 -2.3299999237060547,-45.00600051879883 C20.624000549316406,-46.439998626708984 28.44700050354004,-29.20199966430664 28.836999893188477,-1.5410000085830688 C29.226999282836914,26.1200008392334 23.051000595092773,42.263999938964844 4.306000232696533,44.81399917602539z"></path><path fill="rgb(255,223,121)" fill-opacity="0" d=" M4.306000232696533,44.81399917602539 C-19.500999450683594,48.053001403808594 -28.87299919128418,22.152000427246094 -28.854000091552734,-3.0789999961853027 C-28.836000442504883,-27.02199935913086 -23.299999237060547,-43.69599914550781 -2.3299999237060547,-45.00600051879883 C20.624000549316406,-46.439998626708984 28.44700050354004,-29.20199966430664 28.836999893188477,-1.5410000085830688 C29.226999282836914,26.1200008392334 23.051000595092773,42.263999938964844 4.306000232696533,44.81399917602539z"></path></g><g opacity="1" transform="matrix(1,0,0,1,156.99600219726562,262.4469909667969)"><path fill="rgb(255,177,57)" fill-opacity="1" d=" M4.306000232696533,27.472000122070312 C-19.503999710083008,30.711999893188477 -28.874000549316406,4.811999797821045 -28.854000091552734,-20.417999267578125 C-28.854000091552734,-22.368000030517578 -28.81399917602539,-24.26799964904785 -28.733999252319336,-26.118000030517578 C-28.06399917602539,-18.99799919128418 -22.94099998474121,8.109999656677246 1.246000051498413,8.947999954223633 C27.159000396728516,9.845999717712402 28.166000366210938,-27.74799919128418 28.166000366210938,-27.74799919128418 C28.166000366210938,-27.74799919128418 28.54599952697754,-26.097999572753906 28.54599952697754,-26.097999572753906 C28.54599952697754,-26.097999572753906 28.54599952697754,-26.06800079345703 28.54599952697754,-26.06800079345703 C28.70599937438965,-23.757999420166016 28.805999755859375,-21.357999801635742 28.836000442504883,-18.878000259399414 C29.22599983215332,8.781999588012695 23.04599952697754,24.922000885009766 4.306000232696533,27.472000122070312z"></path></g><g opacity="1" transform="matrix(1,0,0,1,156.9969940185547,231.01199340820312)"><path fill="rgb(255,223,121)" fill-opacity="1" d=" M27.81599998474121,30.996000289916992 C30.016000747680664,12.965999603271484 21.393999099731445,-18.400999069213867 -1.8240000009536743,-17.134000778198242 C-25.40399932861328,-15.847999572753906 -28.56399917602539,18.63599967956543 -28.56399917602539,18.63599967956543 C-28.56399917602539,18.63599967956543 -28.573999404907227,18.625999450683594 -28.573999404907227,18.625999450683594 C-28.763999938964844,16.106000900268555 -28.854000091552734,13.555999755859375 -28.854000091552734,11.015999794006348 C-28.833999633789062,-12.923999786376953 -23.304000854492188,-29.604000091552734 -2.3340001106262207,-30.913999557495117 C20.625999450683594,-32.34400177001953 28.445999145507812,-15.104000091552734 28.836000442504883,12.555999755859375 C28.93600082397461,19.426000595092773 28.625999450683594,25.586000442504883 27.81599998474121,30.996000289916992z"></path></g><g opacity="1" transform="matrix(1,0,0,1,156.99600219726562,245.10800170898438)"><path stroke-linecap="round" stroke-linejoin="miter" fill-opacity="0" stroke-miterlimit="10" stroke="rgb(247,126,65)" stroke-opacity="1" stroke-width="8" d=" M-28.854000091552734,-3.0789999961853027 C-28.836000442504883,-27.02199935913086 -23.299999237060547,-43.69599914550781 -2.3299999237060547,-45.00600051879883 C20.624000549316406,-46.439998626708984 28.44700050354004,-29.20199966430664 28.836999893188477,-1.5410000085830688 C29.226999282836914,26.1200008392334 23.051000595092773,42.263999938964844 4.306000232696533,44.81399917602539 C-5.146999835968018,46.099998474121094 -12.326000213623047,42.45800018310547 -17.542999267578125,36.02899932861328 C-20.533000946044922,32.34400177001953 -22.878999710083008,27.743999481201172 -24.641000747680664,22.631000518798828 C-25.5310001373291,20.04800033569336 -26.273000717163086,17.334999084472656 -26.871999740600586,14.541999816894531 C-28.040000915527344,9.098999977111816 -28.67099952697754,3.3559999465942383 -28.820999145507812,-2.3010001182556152"></path></g><g opacity="1" transform="matrix(1,0,0,1,158.52200317382812,273.3909912109375)"><path stroke-linecap="round" stroke-linejoin="round" fill-opacity="0" stroke="rgb(247,126,65)" stroke-opacity="1" stroke-width="8" d=" M-5.368000030517578,-0.3569999933242798 C-5.368000030517578,-0.3569999933242798 -0.05900000035762787,1.2519999742507935 5.368000030517578,-0.3569999933242798"></path></g></g><g style="display: block;" transform="matrix(1,0,0,1,0,31.5)" opacity="1"><g opacity="1" transform="matrix(1,0,0,1,289.2590026855469,353.34100341796875)"><path fill="rgb(255,209,64)" fill-opacity="1" d=" M5.664999961853027,-10.949999809265137 C0.7300000190734863,-21.718000411987305 -5.551000118255615,-29.792999267578125 -14.074999809265137,-32.0359992980957 C-22.599000930786133,-34.27899932861328 -43.8849983215332,-30.325000762939453 -62.97800064086914,-38.76599884033203 C-80.52799987792969,-46.525001525878906 -95.12100219726562,-73.05599975585938 -85.16699981689453,-85.8740005493164 C-77.51599884033203,-95.72599792480469 -53.555999755859375,-89.91200256347656 -33.367000579833984,-90.36100006103516 C-13.178000450134277,-90.80999755859375 -5.373000144958496,-93.42400360107422 6.632999897003174,-91.66799926757812 C18.638999938964844,-89.91200256347656 73.37200164794922,-69.78399658203125 85.07599639892578,-42.35499954223633 C95.03800201416016,-19.009000778198242 84.2229995727539,51.91699981689453 30.812000274658203,92.26699829101562 C30.812000274658203,92.26699829101562 5.664999961853027,-10.949999809265137 5.664999961853027,-10.949999809265137z"></path></g><g opacity="1" transform="matrix(1,0,0,1,344.2550048828125,394.2860107421875)"><path fill="rgb(255,177,57)" fill-opacity="1" d=" M-32.77899932861328,28.67799949645996 C-32.77899932861328,28.67799949645996 21.219999313354492,2.5999999046325684 29.81999969482422,-51.31800079345703 C29.81999969482422,-51.31800079345703 30.059999465942383,11.87399959564209 -24.18000030517578,51.31800079345703 C-24.18000030517578,51.31800079345703 -32.77899932861328,28.67799949645996 -32.77899932861328,28.67799949645996z"></path></g><g opacity="1" transform="matrix(1,0,0,1,289.2590026855469,332.40399169921875)"><path fill="rgb(255,223,121)" fill-opacity="1" d=" M67.6259994506836,71.33100128173828 C81.26599884033203,32.680999755859375 86.13300323486328,8.244999885559082 76.40299987792969,-12.121999740600586 C66.15399932861328,-33.57600021362305 23.236000061035156,-62.25899887084961 -11.814000129699707,-58.308998107910156 C-46.86399841308594,-54.3489990234375 -60.45399856567383,-62.67900085449219 -73.74400329589844,-57.308998107910156 C-86.89399719238281,-51.999000549316406 -72.14399719238281,-24.118999481201172 -71.8239974975586,-23.479000091552734 C-84.89399719238281,-34.479000091552734 -93.3740005493164,-54.36899948120117 -85.16400146484375,-64.93900299072266 C-77.51399993896484,-74.78900146484375 -53.55400085449219,-68.97899627685547 -33.36399841308594,-69.41899871826172 C-13.173999786376953,-69.86900329589844 -5.374000072479248,-72.48899841308594 6.636000156402588,-70.72899627685547 C18.63599967956543,-68.97899627685547 73.3759994506836,-48.8489990234375 85.07599639892578,-21.41900062561035 C92.08599853515625,-4.988999843597412 88.80599975585938,35.01100158691406 67.6259994506836,71.33100128173828z"></path></g><g opacity="1" transform="matrix(1,0,0,1,249.77699279785156,308.60198974609375)"><path fill="rgb(255,177,57)" fill-opacity="1" d=" M-48.80699920654297,-32.9739990234375 C-48.80699920654297,-32.9739990234375 -41.29499816894531,-2.6070001125335693 -8.555000305175781,-2.194000005722046 C5.021999835968018,-2.0230000019073486 22.231000900268555,-3.6600000858306885 34.30400085449219,1.7799999713897705 C43.96200180053711,6.131999969482422 50.33300018310547,15.013999938964844 48.926998138427734,32.9739990234375 C48.926998138427734,32.9739990234375 36.082000732421875,13.54800033569336 25.406999588012695,12.70199966430664 C14.732000350952148,11.855999946594238 -9.387999534606934,12.98799991607666 -32.34199905395508,0.32199999690055847 C-52.79999923706055,-10.967000007629395 -48.80699920654297,-32.9739990234375 -48.80699920654297,-32.9739990234375z"></path></g><g opacity="1" transform="matrix(1,0,0,1,289.2590026855469,332.40399169921875)"><path stroke-linecap="round" stroke-linejoin="miter" fill-opacity="0" stroke-miterlimit="4" stroke="rgb(255,255,255)" stroke-opacity="1" stroke-width="5.3" d=" M21.68000030517578,-53.81800079345703 C16.507999420166016,-55.59600067138672 11.241999626159668,-56.95500183105469 6,-57.77799987792969"></path></g><g opacity="1" transform="matrix(1,0,0,1,289.2590026855469,332.40399169921875)"><path stroke-linecap="round" stroke-linejoin="miter" fill-opacity="0" stroke-miterlimit="4" stroke="rgb(255,255,255)" stroke-opacity="1" stroke-width="5.3" d=" M-7.031000137329102,-58.64799880981445 C-8.491999626159668,-58.60300064086914 -9.942000389099121,-58.50699996948242 -11.380000114440918,-58.35599899291992"></path></g><g opacity="1" transform="matrix(1,0,0,1,288.6400146484375,353.34100341796875)"><path stroke-linecap="round" stroke-linejoin="round" fill-opacity="0" stroke="rgb(247,126,65)" stroke-opacity="1" stroke-width="8" d=" M31.430999755859375,92.26699829101562 C84.84200286865234,51.91699981689453 95.65799713134766,-19.009000778198242 85.69599914550781,-42.35499954223633 C73.99199676513672,-69.78399658203125 19.257999420166016,-89.91200256347656 7.251999855041504,-91.66799926757812 C-4.754000186920166,-93.42400360107422 -12.559000015258789,-90.80999755859375 -32.74800109863281,-90.36100006103516 C-52.9370002746582,-89.91200256347656 -76.35199737548828,-95.2770004272461 -84.5479965209961,-85.8740005493164 C-94.70999908447266,-74.21499633789062 -87.6709976196289,-46.34400177001953 -62.35900115966797,-38.76599884033203 C-42.361000061035156,-32.77899932861328 -21.979999542236328,-34.27899932861328 -13.456000328063965,-32.0359992980957 C-4.932000160217285,-29.792999267578125 1.350000023841858,-21.718000411987305 6.284999847412109,-10.949999809265137"></path></g></g><g style="display: block;" transform="matrix(1,0,0,1,328.25299072265625,99.1650390625)" opacity="1"><g opacity="1" transform="matrix(1,0,0,1,0,0)"><path stroke-linecap="round" stroke-linejoin="round" fill-opacity="0" stroke="rgb(255,255,255)" stroke-opacity="1" stroke-width="6" d=" M-1.8489999771118164,0.5899999737739563 C-1.8489999771118164,0.5899999737739563 -0.4749999940395355,-0.3050000071525574 1.8489999771118164,-0.5899999737739563"></path></g></g></g></svg>