<svg xmlns="http://www.w3.org/2000/svg" viewBox="0 0 512 512" width="512" height="512" style="width: 100%; height: 100%; transform: translate3d(0,0,0);" preserveAspectRatio="xMidYMid meet"><defs><clipPath id="__lottie_element_20469"><rect width="512" height="512" x="0" y="0"></rect></clipPath><clipPath id="__lottie_element_20473"><path d="M0,0 L512,0 L512,512 L0,512z"></path></clipPath><clipPath id="__lottie_element_20561"><path d="M0,0 L512,0 L512,512 L0,512z"></path></clipPath></defs><g clip-path="url(#__lottie_element_20469)"><g clip-path="url(#__lottie_element_20561)" style="display: block;" transform="matrix(-1.180999994277954,0,0,1.180999994277954,558.3359985351562,-46.33599853515625)" opacity="1"><g style="display: block;" transform="matrix(1,0,0,1,330.0632019042969,268.30511474609375)" opacity="1"><g opacity="1" transform="matrix(1,0,0,1,0,0)"><path fill="rgb(255,209,64)" fill-opacity="1" d=" M4.203999996185303,-46.30500030517578 C-12.312999725341797,-31.55500030517578 -20.229000091552734,-32.4109992980957 -24.79599952697754,-41.30500030517578 C-29.36400032043457,-50.19900131225586 -56.62799835205078,-41.821998596191406 -57.926998138427734,-29.555999755859375 C-59.22600173950195,-17.290000915527344 -59.67300033569336,-13.501999855041504 -65.03800201416016,5.008999824523926 C-70.40299987792969,23.520000457763672 -66.31099700927734,41.970001220703125 -57.78900146484375,55.68199920654297 C-49.457000732421875,69.08799743652344 -32.566001892089844,86.26599884033203 -10.85099983215332,89.07099914550781 C14.996000289916992,92.40899658203125 52.553001403808594,64.86499786376953 60.698001861572266,59.279998779296875 C65.41300201416016,56.029998779296875 58.507999420166016,41.77299880981445 55.31700134277344,28.79400062561035 C52.13399887084961,15.845000267028809 54.42900085449219,10.185999870300293 47.02299880981445,-3.928999900817871 C40.48899841308594,-16.381000518798828 37.520999908447266,-24.631000518798828 30.368999481201172,-31.759000778198242 C22.915000915527344,-39.1879997253418 9.555000305175781,-51.138999938964844 4.203999996185303,-46.30500030517578z"></path></g></g><g style="display: block;" transform="matrix(1,0,0,1,326.5821838378906,267.93408203125)" opacity="1"><g opacity="1" transform="matrix(1,0,0,1,0,0)"><path fill="rgb(255,209,64)" fill-opacity="1" d=" M-20.315000534057617,-39.933998107910156 C-25.07200050354004,-48.729000091552734 -20.80500030517578,-59.22999954223633 -23.024999618530273,-68.99400329589844 C-25.2450008392334,-78.75800323486328 -40.875999450683594,-93.12999725341797 -51.775001525878906,-87.87000274658203 C-62.67399978637695,-82.61000061035156 -57.9010009765625,-74.01699829101562 -54.314998626708984,-64.93399810791016 C-49.6510009765625,-51.68199920654297 -51.314998626708984,-39.933998107910156 -53.314998626708984,-29.93400001525879 C-56.07899856567383,-17.923999786376953 -57.314998626708984,-12.9350004196167 -61.6609992980957,4.619999885559082 C-67.0260009765625,23.131000518798828 -62.935001373291016,41.58100128173828 -54.41299819946289,55.292999267578125 C-46.08100128173828,68.6989974975586 -29.190000534057617,85.8759994506836 -7.474999904632568,88.68099975585938 C18.371999740600586,92.01899719238281 51.183998107910156,67.72699737548828 64.0739974975586,58.89099884033203"></path></g></g><g style="display: none;"><g><path></path></g></g><g style="display: block;" transform="matrix(1,0,0,1,310.17120361328125,239.95509338378906)" opacity="1"><g opacity="1" transform="matrix(1,0,0,1,0,0)"><path fill="rgb(255,177,57)" fill-opacity="1" d=" M-20.90399932861328,-53.95500183105469 C0.7710000276565552,-42.01900100708008 -19.01799964904785,-17.429000854492188 -8.859999656677246,-5.659999847412109 C-2.7899999618530273,1.3730000257492065 2.578000068664551,2.3239998817443848 9.84000015258789,19.8439998626709 C16.764999389648438,36.55099868774414 7.728000164031982,53.150001525878906 10.1899995803833,53.902000427246094 C12.652000427246094,54.65399932861328 17.805999755859375,47.42599868774414 20.034000396728516,36.41699981689453 C22.941999435424805,22.04800033569336 17.83099937438965,7.804999828338623 15.333999633789062,1.3530000448226929 C12.836000442504883,-5.0929999351501465 15.89799976348877,-10.057000160217285 15.89799976348877,-10.057000160217285 C15.89799976348877,-10.057000160217285 15.64799976348877,-11.557000160217285 15.64799976348877,-11.557000160217285 C4.828999996185303,-7.204999923706055 -0.2029999941587448,-4.754000186920166 -3.9040000438690186,-11.954999923706055 C-8.472000122070312,-20.847999572753906 -6.394999980926514,-29.25 -8.61299991607666,-39.01300048828125 C-10.0649995803833,-45.382999420166016 -11.767000198364258,-52.020999908447266 -20.90399932861328,-53.95500183105469z"></path></g></g><g style="display: block;" transform="matrix(1,0,0,1,356.0592041015625,269.9281005859375)" opacity="1"><g opacity="1" transform="matrix(1,0,0,1,0,0)"><path fill="rgb(255,177,57)" fill-opacity="1" d=" M-82.02999877929688,-31.93899917602539 C-83.3270034790039,-19.673999786376953 -85.77100372314453,-15.885000228881836 -91.13899993896484,2.628999948501587 C-96.50599670410156,21.136999130249023 -92.41200256347656,39.584999084472656 -83.89099884033203,53.301998138427734 C-75.55899810791016,66.70800018310547 -58.66999816894531,83.88099670410156 -36.95399856567383,86.68900299072266 C-11.105999946594238,90.0250015258789 24.253000259399414,64.1760025024414 34.59400177001953,56.89500045776367 C34.59400177001953,56.89500045776367 34.59400177001953,56.89500045776367 34.599998474121094,56.88999938964844 C42.16400146484375,51.4109992980957 41.47200012207031,42.16999816894531 30.996000289916992,49.402000427246094 C22.490999221801758,55.27299880981445 15.569999694824219,60.08599853515625 14.206999778747559,61.071998596191406 C2.2070000171661377,68.0719985961914 -8.793000221252441,73.0719985961914 -27.792999267578125,74.0719985961914 C-47.292999267578125,74.30899810791016 -55.19200134277344,61.42900085449219 -54.16999816894531,56.74399948120117 C-53.15299987792969,52.058998107910156 -46.52000045776367,49.85300064086914 -44.15999984741211,44.73400115966797 C-41.582000732421875,39.14099884033203 -43.422000885009766,39.130001068115234 -47.36199951171875,41.62099838256836 C-51.301998138427734,44.11199951171875 -71.93900299072266,47.672000885009766 -77.8479995727539,30.775999069213867 C-85.31900024414062,9.413999557495117 -74.79299926757812,-21.92799949645996 -72.79299926757812,-37.928001403808594 C-71.44499969482422,-47.902000427246094 -71.48699951171875,-62.45199966430664 -77.79299926757812,-72.9280014038086 C-83.05999755859375,-81.6780014038086 -78.93499755859375,-89.4280014038086 -75.2229995727539,-89.39099884033203 C-86.30999755859375,-92.5530014038086 -91.68399810791016,-83.9280014038086 -83.18900299072266,-64.60900115966797 C-79.25700378417969,-55.667999267578125 -80.73300170898438,-44.20399856567383 -82.02999877929688,-31.93899917602539z"></path></g></g><g style="display: block;" transform="matrix(1,0,0,1,-1.344818115234375,-6.99993896484375)" opacity="1"><g opacity="1" transform="matrix(1,0,0,1,290.97900390625,203.85899353027344)"><path fill="rgb(255,223,121)" fill-opacity="1" d=" M-5.64900016784668,-13.815999984741211 C-0.36800000071525574,-11.857999801635742 8.26099967956543,-5.249000072479248 9.631999969482422,2.1410000324249268 C10.807000160217285,8.47599983215332 11.093000411987305,14.152999877929688 5.631999969482422,14.140999794006348 C1.0410000085830688,14.130999565124512 2.631999969482422,6.140999794006348 -5.368000030517578,-3.8589999675750732 C-13.368000030517578,-13.859000205993652 -10.368000030517578,-14.857999801635742 -5.64900016784668,-13.815999984741211z"></path></g></g><g style="display: block;" transform="matrix(1,0,0,1,326.5821838378906,267.93408203125)" opacity="1"><g opacity="1" transform="matrix(1,0,0,1,0,0)"><path stroke-linecap="round" stroke-linejoin="round" fill-opacity="0" stroke="rgb(247,126,65)" stroke-opacity="1" stroke-width="7" d=" M-20.315000534057617,-39.933998107910156 C-25.07200050354004,-48.729000091552734 -20.80500030517578,-59.22999954223633 -23.024999618530273,-68.99400329589844 C-25.2450008392334,-78.75800323486328 -40.875999450683594,-93.12999725341797 -51.775001525878906,-87.87000274658203 C-62.67399978637695,-82.61000061035156 -57.9010009765625,-74.01699829101562 -54.314998626708984,-64.93399810791016 C-49.6510009765625,-51.68199920654297 -51.314998626708984,-39.933998107910156 -53.314998626708984,-29.93400001525879 C-56.07899856567383,-17.923999786376953 -57.314998626708984,-12.9350004196167 -61.6609992980957,4.619999885559082 C-67.0260009765625,23.131000518798828 -62.935001373291016,41.58100128173828 -54.41299819946289,55.292999267578125 C-46.08100128173828,68.6989974975586 -29.190000534057617,85.8759994506836 -7.474999904632568,88.68099975585938"></path></g></g><g style="display: none;"><g><path></path><path></path></g></g><g style="display: block;" transform="matrix(1,0,0,1,374.668212890625,197.62808227539062)" opacity="1"><g opacity="1" transform="matrix(1,0,0,1,0,0)"><path fill="rgb(255,209,64)" fill-opacity="1" d=" M-40.4010009765625,24.371999740600586 C-33.667999267578125,18.549999237060547 -14.229999542236328,-1.0720000267028809 -7.401000022888184,-7.627999782562256 C13.232999801635742,-27.43400001525879 26.599000930786133,-46.62799835205078 37.5989990234375,-36.62799835205078 C46.5989990234375,-26.628000259399414 32.39400100708008,-14.975000381469727 16.599000930786133,1.371999979019165 C0.5870000123977661,17.94499969482422 -20.101999282836914,34.98099899291992 -15.340999603271484,39.36199951171875"></path></g></g><g style="display: block;" transform="matrix(1,0,0,1,369.3411865234375,195.94110107421875)" opacity="1"><g opacity="1" transform="matrix(1,0,0,1,0,0)"><path fill="rgb(255,223,121)" fill-opacity="1" d=" M-46.07400131225586,36.058998107910156 C-44.29100036621094,44.349998474121094 -34.14099884033203,36.43199920654297 -17.753999710083008,20.533000946044922 C-4.927999973297119,8.088000297546387 23.173999786376953,-22.94099998474121 33.465999603271484,-27.878000259399414 C43.62300109863281,-32.75 44.59600067138672,-25.805999755859375 44.59600067138672,-25.805999755859375 C47.15299987792969,-29.240999221801758 44.80099868774414,-34 42.1870002746582,-36.255001068115234 C31.44300079345703,-45.52299880981445 11.984999656677246,-18.44499969482422 -1.1859999895095825,-5.853000164031982 C-13.279000282287598,5.708000183105469 -46.07400131225586,36.058998107910156 -46.07400131225586,36.058998107910156z"></path></g></g><g style="display: block;" transform="matrix(1,0,0,1,384.39019775390625,200.84210205078125)" opacity="1"><g opacity="1" transform="matrix(1,0,0,1,0,0)"><path fill="rgb(255,177,57)" fill-opacity="1" d=" M19.450000762939453,-39.14799880981445 C19.450000762939453,-39.14799880981445 28.531999588012695,-36.85200119018555 19.857999801635742,-25.437999725341797 C10.321000099182129,-12.887999534606934 -7.249000072479248,2.0429999828338623 -18.86400032043457,14.26099967956543 C-30.990999221801758,27.01799964904785 -35.32400131225586,33.15399932861328 -26.725000381469727,39.54800033569336 C-26.725000381469727,39.54800033569336 -29.785999298095703,34.95199966430664 -20.768999099731445,25.6560001373291 C-14.375,19.06399917602539 18.275999069213867,-10.628999710083008 24.091999053955078,-17.562000274658203 C29.908000946044922,-24.4950008392334 35.314998626708984,-32.111000061035156 26.816999435424805,-38.119998931884766 C23.38800048828125,-40.54499816894531 19.450000762939453,-39.14799880981445 19.450000762939453,-39.14799880981445z"></path></g></g><g style="display: block;" transform="matrix(1,0,0,1,374.668212890625,197.62808227539062)" opacity="1"><g opacity="1" transform="matrix(1,0,0,1,0,0)"><path stroke-linecap="round" stroke-linejoin="round" fill-opacity="0" stroke="rgb(247,126,65)" stroke-opacity="1" stroke-width="7" d=" M-40.4010009765625,24.371999740600586 C-33.667999267578125,18.549999237060547 -14.229999542236328,-1.0720000267028809 -7.401000022888184,-7.627999782562256 C13.232999801635742,-27.43400001525879 26.599000930786133,-46.62799835205078 37.5989990234375,-36.62799835205078 C46.5989990234375,-26.628000259399414 32.39400100708008,-14.975000381469727 16.599000930786133,1.371999979019165 C0.5870000123977661,17.94499969482422 -20.101999282836914,34.98099899291992 -15.340999603271484,39.36199951171875"></path></g></g><g style="display: block;" transform="matrix(1,0,0,1,405.4541931152344,220.09808349609375)" opacity="1"><g opacity="1" transform="matrix(1,0,0,1,0,0)"><path fill="rgb(255,209,64)" fill-opacity="1" d=" M-29.694000244140625,45.040000915527344 C-33.183998107910156,39.79399871826172 -12.809000015258789,27.0310001373291 10.812999725341797,5.9019999504089355 C31.555999755859375,-12.652000427246094 53.37099838256836,-30.82699966430664 43.8129997253418,-41.097999572753906 C33.69900131225586,-51.96699905395508 23.905000686645508,-38.90399932861328 2.1429998874664307,-19.67799949645996 C-15.574000358581543,-4.025000095367432 -42.57400131225586,21.21299934387207 -46.12699890136719,16.891000747680664"></path></g></g><g style="display: block;" transform="matrix(1,0,0,1,402.8321838378906,209.46908569335938)" opacity="1"><g opacity="1" transform="matrix(1,0,0,1,0,0)"><path fill="rgb(255,223,121)" fill-opacity="1" d=" M41.45899963378906,-16.354999542236328 C41.45899963378906,-16.354999542236328 41.45399856567383,-22.76799964904785 34.66400146484375,-21.513999938964844 C26.594999313354492,-20.02400016784668 9.343999862670898,-2.2039999961853027 -1.152999997138977,6.715000152587891 C-12.906999588012695,16.70199966430664 -39.409000396728516,42.902000427246094 -46.766998291015625,29.856000900268555 C-46.766998291015625,29.856000900268555 -40,28.479999542236328 -32.27799987792969,22.83799934387207 C-12.807999610900879,8.612000465393066 24.849000930786133,-28.638999938964844 32.00600051879883,-32.60100173950195 C43.369998931884766,-38.89099884033203 52.18299865722656,-27.69499969482422 41.45899963378906,-16.354999542236328z"></path></g></g><g style="display: block;" transform="matrix(1,0,0,1,410.02618408203125,223.27310180664062)" opacity="1"><g opacity="1" transform="matrix(1,0,0,1,0,0)"><path fill="rgb(255,177,57)" fill-opacity="1" d=" M30.329999923706055,-45.016998291015625 C30.329999923706055,-45.016998291015625 40.189998626708984,-41.209999084472656 28.631000518798828,-28.406999588012695 C18.166000366210938,-16.815000534057617 3.3540000915527344,-4.7270002365112305 -17.069000244140625,12.364999771118164 C-32.66899871826172,25.42099952697754 -41.834999084472656,32.9109992980957 -40.6870002746582,39.28900146484375 C-40.332000732421875,41.26100158691406 -38.99100112915039,43.125999450683594 -36.54999923706055,45.016998291015625 C-36.54999923706055,45.016998291015625 -39.7599983215332,39.41400146484375 -24.70199966430664,27.857999801635742 C-12.793999671936035,18.7189998626709 24.148000717163086,-13.059000015258789 30.658000946044922,-19.46500015258789 C37.167999267578125,-25.871000289916992 49.91999816894531,-41.262001037597656 30.329999923706055,-45.016998291015625z"></path></g></g><g style="display: block;" transform="matrix(1,0,0,1,405.4541931152344,220.09808349609375)" opacity="1"><g opacity="1" transform="matrix(1,0,0,1,0,0)"><path stroke-linecap="round" stroke-linejoin="round" fill-opacity="0" stroke="rgb(247,126,65)" stroke-opacity="1" stroke-width="7" d=" M-29.694000244140625,45.040000915527344 C-33.183998107910156,39.79399871826172 -12.809000015258789,27.0310001373291 10.812999725341797,5.9019999504089355 C31.555999755859375,-12.652000427246094 53.37099838256836,-30.82699966430664 43.8129997253418,-41.097999572753906 C33.69900131225586,-51.96699905395508 23.905000686645508,-38.90399932861328 2.1429998874664307,-19.67799949645996 C-15.574000358581543,-4.025000095367432 -42.57400131225586,21.21299934387207 -46.12699890136719,16.891000747680664"></path></g></g><g style="display: block;" transform="matrix(1,0,0,1,418.190185546875,256.5111083984375)" opacity="1"><g opacity="1" transform="matrix(1,0,0,1,0,0)"><path fill="rgb(255,209,64)" fill-opacity="1" d=" M-42.43000030517578,8.628000259399414 C-39.566001892089844,13.395000457763672 -13.986000061035156,-9.140999794006348 2.0769999027252197,-21.51099967956543 C22.356000900268555,-37.12799835205078 32.75199890136719,-47.249000549316406 40.07699966430664,-37.51100158691406 C48.667999267578125,-26.09000015258789 32.69200134277344,-14.583000183105469 9.07699966430664,3.489000082015991 C-14.857999801635742,21.805999755859375 -37.176998138427734,36.5620002746582 -33.928001403808594,41.3390007019043"></path></g></g><g style="display: block;" transform="matrix(1,0,0,1,441.169189453125,226.42410278320312)" opacity="1"><g opacity="1" transform="matrix(1,0,0,1,0,0)"><path fill="rgb(255,223,121)" fill-opacity="1" d=" M11.442000389099121,6.244999885559082 C11.442000389099121,6.244999885559082 13.204999923706055,1.0679999589920044 5.390999794006348,1.1039999723434448 C-3.2339999675750732,1.1430000066757202 -7.701000213623047,5.663000106811523 -17.920000076293945,10.437000274658203 C-17.920000076293945,10.437000274658203 3.321000099182129,-10.3149995803833 10.722000122070312,-10.4350004196167 C22.95199966430664,-10.633000373840332 17.093000411987305,2.0350000858306885 11.442000389099121,6.244999885559082z"></path></g></g><g style="display: block;" transform="matrix(1,0,0,1,419.82818603515625,259.4841003417969)" opacity="1"><g opacity="1" transform="matrix(1,0,0,1,0,0)"><path fill="rgb(255,177,57)" fill-opacity="1" d=" M32.474998474121094,-42.25899887084961 C32.474998474121094,-42.25899887084961 40.87699890136719,-37.61800003051758 25.492000579833984,-22.440000534057617 C23.788999557495117,-20.760000228881836 17.486000061035156,-15.904000282287598 9.38700008392334,-9.805999755859375 C-3.4210000038146973,-0.16300000250339508 -20.722000122070312,12.588000297546387 -31.43400001525879,20.804000854492188 C-41.05699920654297,28.184999465942383 -41.75699996948242,33.45600128173828 -40.44200134277344,36.70500183105469 C-39.367000579833984,39.35900115966797 -36.946998596191406,40.66400146484375 -36.946998596191406,40.66400146484375 C-36.946998596191406,40.66400146484375 -33.125999450683594,32.231998443603516 -19.31599998474121,21.259000778198242 C-5.953000068664551,10.640999794006348 18.083999633789062,-7.14300012588501 26.21500015258789,-14.102999687194824 C34.34600067138672,-21.062999725341797 44.07099914550781,-29.655000686645508 40.29399871826172,-36.66299819946289 C36.516998291015625,-43.67100143432617 32.474998474121094,-42.25899887084961 32.474998474121094,-42.25899887084961z"></path></g></g><g style="display: block;" transform="matrix(1,0,0,1,418.190185546875,256.5111083984375)" opacity="1"><g opacity="1" transform="matrix(1,0,0,1,0,0)"><path stroke-linecap="round" stroke-linejoin="round" fill-opacity="0" stroke="rgb(247,126,65)" stroke-opacity="1" stroke-width="7" d=" M-42.43000030517578,8.628000259399414 C-39.566001892089844,13.395000457763672 -13.986000061035156,-9.140999794006348 2.0769999027252197,-21.51099967956543 C22.356000900268555,-37.12799835205078 32.75199890136719,-47.249000549316406 40.07699966430664,-37.51100158691406 C48.667999267578125,-26.09000015258789 32.69200134277344,-14.583000183105469 9.07699966430664,3.489000082015991 C-14.857999801635742,21.805999755859375 -37.176998138427734,36.5620002746582 -33.928001403808594,41.3390007019043"></path></g></g><g style="display: block;" transform="matrix(1,0,0,1,416.83319091796875,297.2210998535156)" opacity="1"><g opacity="1" transform="matrix(1,0,0,1,0,0)"><path fill="rgb(255,209,64)" fill-opacity="1" d=" M-32.57099914550781,0.628000020980835 C-31.006000518798828,5.334000110626221 -10.430000305175781,-9.857000350952148 3.434000015258789,-20.22100067138672 C15.730999946594238,-28.44700050354004 24.594999313354492,-33.21699905395508 30.43400001525879,-26.22100067138672 C39.09700012207031,-15.842000007629395 19.43400001525879,-3.2219998836517334 6.951000213623047,5.8460001945495605 C-4.855999946594238,14.107000350952148 -18.613000869750977,24.121000289916992 -26.177000045776367,29.604000091552734"></path></g></g><g style="display: block;" transform="matrix(1,0,0,1,432.7052001953125,277.4111022949219)" opacity="1"><g opacity="1" transform="matrix(1,0,0,1,0,0)"><path fill="rgb(255,223,121)" fill-opacity="1" d=" M6.126999855041504,8.194999694824219 C6.126999855041504,8.194999694824219 10.229000091552734,0.6039999723434448 5.4120001792907715,-1.0709999799728394 C0.5950000286102295,-2.746000051498413 -11.565999984741211,4.316999912261963 -16.981000900268555,6.425000190734863 C-16.981000900268555,6.425000190734863 0.9459999799728394,-14.468999862670898 12.972999572753906,-6.302000045776367 C25,1.8650000095367432 6.126999855041504,8.194999694824219 6.126999855041504,8.194999694824219z"></path></g></g><g style="display: block;" transform="matrix(1,0,0,1,356.0592041015625,269.9281005859375)" opacity="1"><g opacity="1" transform="matrix(1,0,0,1,0,0)"><path fill="rgb(255,177,57)" fill-opacity="1" d=" M34.59400177001953,56.89500045776367 C34.59400177001953,56.89500045776367 34.59400177001953,56.89500045776367 34.599998474121094,56.88999938964844 C42.16400146484375,51.4109992980957 55.5989990234375,41.58399963378906 67.64900207519531,33.691001892089844 C89.15299987792969,19.618999481201172 99.09500122070312,13.586000442504883 90.43099975585938,3.2090001106262207 C90.15499877929688,2.875 89.86900329589844,2.572999954223633 89.57499694824219,2.2929999828338623 C89.57499694824219,2.2929999828338623 86.2699966430664,0.3070000112056732 86.2699966430664,0.3070000112056732 C86.2699966430664,0.3070000112056732 86.00399780273438,0.14800000190734863 86.00399780273438,0.14800000190734863 C86.00399780273438,0.14800000190734863 86.03399658203125,0.18000000715255737 86.07599639892578,0.24699999392032623 C86.44300079345703,0.7900000214576721 87.96800231933594,3.5759999752044678 85.31800079345703,8.758999824523926 C82.34400177001953,14.574000358581543 70.13899993896484,22.757999420166016 62.207000732421875,28.07200050354004 C54.35100173950195,33.33399963378906 41.47200012207031,42.16999816894531 30.996000289916992,49.402000427246094 C22.490999221801758,55.27299880981445 24.253000259399414,64.1760025024414 34.59400177001953,56.89500045776367z"></path></g></g><g style="display: block;" transform="matrix(1,0,0,1,416.83319091796875,297.2210998535156)" opacity="1"><g opacity="1" transform="matrix(1,0,0,1,0,0)"><path stroke-linecap="round" stroke-linejoin="round" fill-opacity="0" stroke="rgb(247,126,65)" stroke-opacity="1" stroke-width="7" d=" M-32.57099914550781,0.628000020980835 C-31.006000518798828,5.334000110626221 -10.430000305175781,-9.857000350952148 3.434000015258789,-20.22100067138672 C15.730999946594238,-28.44700050354004 24.594999313354492,-33.21699905395508 30.43400001525879,-26.22100067138672 C39.09700012207031,-15.842000007629395 19.43400001525879,-3.2219998836517334 6.951000213623047,5.8460001945495605 C-4.855999946594238,14.107000350952148 -18.613000869750977,24.121000289916992 -26.177000045776367,29.604000091552734"></path></g></g><g style="display: block;" transform="matrix(1,0,0,1,326.5821838378906,267.93408203125)" opacity="1"><g opacity="1" transform="matrix(1,0,0,1,0,0)"><path stroke-linecap="round" stroke-linejoin="round" fill-opacity="0" stroke="rgb(247,126,65)" stroke-opacity="1" stroke-width="7" d=" M-7.474999904632568,88.68099975585938 C13.114999771118164,91.33999633789062 38.12699890136719,76.46499633789062 53.96500015258789,65.83699798583984 C58.007999420166016,63.124000549316406 61.452999114990234,60.6879997253418 64.0739974975586,58.89099884033203"></path></g></g><g style="display: block;" transform="matrix(1,0,0,1,-1.344818115234375,-6.99993896484375)" opacity="1"><g opacity="1" transform="matrix(1,0,0,1,308.10699462890625,271.4020080566406)"><path fill="rgb(255,223,121)" fill-opacity="1" d=" M-10.652000427246094,-30.8700008392334 C-7.129000186920166,-33.13600158691406 -0.6600000262260437,-27.8439998626709 7.821000099182129,-15.385000228881836 C19.073999404907227,1.1469999551773071 16.913000106811523,17.709999084472656 10.163000106811523,26.416000366210938 C2.2760000228881836,36.5880012512207 -9.772000312805176,32.125 -10.496000289916992,20.597999572753906 C-11.25100040435791,8.581000328063965 -10.036999702453613,-2.9809999465942383 -12.496000289916992,-12.402000427246094 C-14.64799976348877,-20.645999908447266 -14.9399995803833,-28.111000061035156 -10.652000427246094,-30.8700008392334z"></path></g><g opacity="1" transform="matrix(1,0,0,1,357.38299560546875,281.8080139160156)"><path fill="rgb(255,223,121)" fill-opacity="1" d=" M-17.85700035095215,-30.677000045776367 C-15.397000312805176,-34.3129997253418 -2.2760000228881836,-30.48200035095215 7.445000171661377,-13.652000427246094 C17.166000366210938,3.177999973297119 22.226999282836914,28.145999908447266 15.71399974822998,31.46299934387207 C9.201000213623047,34.779998779296875 8.050999641418457,19.91200065612793 3.055999994277954,7.960999965667725 C-1.996999979019165,-4.127999782562256 -7.252999782562256,-10.86299991607666 -11.40999984741211,-16.229999542236328 C-16.160999298095703,-22.364999771118164 -20.451000213623047,-26.843000411987305 -17.85700035095215,-30.677000045776367z"></path></g><g opacity="1" transform="matrix(1,0,0,1,339.96099853515625,334.1969909667969)"><path fill="rgb(255,223,121)" fill-opacity="1" d=" M-1.274999976158142,-5.241000175476074 C8.878000259399414,-5.669000148773193 13.107000350952148,-8.359000205993652 18.583999633789062,-10.170999526977539 C24.06100082397461,-11.982999801635742 29.125999450683594,-8.104999542236328 24.341999053955078,-1.3009999990463257 C19.558000564575195,5.502999782562256 5.8520002365112305,10.661999702453613 -1.899999976158142,10.614999771118164 C-14.74899959564209,10.536999702453613 -27.996000289916992,5.079999923706055 -26.062000274658203,-2.765000104904175 C-24.66699981689453,-8.42300033569336 -16.246999740600586,-4.611000061035156 -1.274999976158142,-5.241000175476074z"></path></g></g><g style="display: block;" transform="matrix(1,0,0,1,326.5821838378906,267.93408203125)" opacity="1"><g opacity="1" transform="matrix(1,0,0,1,0,0)"><path stroke-linecap="round" stroke-linejoin="round" fill-opacity="0" stroke="rgb(247,126,65)" stroke-opacity="1" stroke-width="7" d=" M7.684999942779541,-45.933998107910156 C-2.9089999198913574,-35.77199935913086 -15.581999778747559,-31.18400001525879 -20.315000534057617,-39.933998107910156"></path></g></g><g style="display: block;" transform="matrix(1,0,0,1,256.00018310546875,180.4001007080078)" opacity="1"><g opacity="1" transform="matrix(1,0,0,1,0,0)"><path stroke-linecap="round" stroke-linejoin="miter" fill-opacity="0" stroke-miterlimit="4" stroke="rgb(255,255,255)" stroke-opacity="1" stroke-width="6" d=" M170.75,15 C170.75,15 165.68800354003906,19.875 165.68800354003906,19.875"></path></g></g></g><g clip-path="url(#__lottie_element_20473)" style="display: block;" transform="matrix(1.180999994277954,0,0,1.180999994277954,-46.33599853515625,-46.33599853515625)" opacity="1"><g style="display: block;" transform="matrix(1,0,0,1,330.0632019042969,268.30511474609375)" opacity="1"><g opacity="1" transform="matrix(1,0,0,1,0,0)"><path fill="rgb(255,209,64)" fill-opacity="1" d=" M4.203999996185303,-46.30500030517578 C-12.312999725341797,-31.55500030517578 -20.229000091552734,-32.4109992980957 -24.79599952697754,-41.30500030517578 C-29.36400032043457,-50.19900131225586 -56.62799835205078,-41.821998596191406 -57.926998138427734,-29.555999755859375 C-59.22600173950195,-17.290000915527344 -59.67300033569336,-13.501999855041504 -65.03800201416016,5.008999824523926 C-70.40299987792969,23.520000457763672 -66.31099700927734,41.970001220703125 -57.78900146484375,55.68199920654297 C-49.457000732421875,69.08799743652344 -32.566001892089844,86.26599884033203 -10.85099983215332,89.07099914550781 C14.996000289916992,92.40899658203125 52.553001403808594,64.86499786376953 60.698001861572266,59.279998779296875 C65.41300201416016,56.029998779296875 58.507999420166016,41.77299880981445 55.31700134277344,28.79400062561035 C52.13399887084961,15.845000267028809 54.42900085449219,10.185999870300293 47.02299880981445,-3.928999900817871 C40.48899841308594,-16.381000518798828 37.520999908447266,-24.631000518798828 30.368999481201172,-31.759000778198242 C22.915000915527344,-39.1879997253418 9.555000305175781,-51.138999938964844 4.203999996185303,-46.30500030517578z"></path></g></g><g style="display: block;" transform="matrix(1,0,0,1,326.5821838378906,267.93408203125)" opacity="1"><g opacity="1" transform="matrix(1,0,0,1,0,0)"><path fill="rgb(255,209,64)" fill-opacity="1" d=" M-20.315000534057617,-39.933998107910156 C-25.07200050354004,-48.729000091552734 -20.80500030517578,-59.22999954223633 -23.024999618530273,-68.99400329589844 C-25.2450008392334,-78.75800323486328 -40.875999450683594,-93.12999725341797 -51.775001525878906,-87.87000274658203 C-62.67399978637695,-82.61000061035156 -57.9010009765625,-74.01699829101562 -54.314998626708984,-64.93399810791016 C-49.6510009765625,-51.68199920654297 -51.314998626708984,-39.933998107910156 -53.314998626708984,-29.93400001525879 C-56.07899856567383,-17.923999786376953 -57.314998626708984,-12.9350004196167 -61.6609992980957,4.619999885559082 C-67.0260009765625,23.131000518798828 -62.935001373291016,41.58100128173828 -54.41299819946289,55.292999267578125 C-46.08100128173828,68.6989974975586 -29.190000534057617,85.8759994506836 -7.474999904632568,88.68099975585938 C18.371999740600586,92.01899719238281 51.183998107910156,67.72699737548828 64.0739974975586,58.89099884033203"></path></g></g><g style="display: none;"><g><path></path></g></g><g style="display: block;" transform="matrix(1,0,0,1,310.17120361328125,239.95509338378906)" opacity="1"><g opacity="1" transform="matrix(1,0,0,1,0,0)"><path fill="rgb(255,177,57)" fill-opacity="1" d=" M-20.90399932861328,-53.95500183105469 C0.7710000276565552,-42.01900100708008 -19.01799964904785,-17.429000854492188 -8.859999656677246,-5.659999847412109 C-2.7899999618530273,1.3730000257492065 2.578000068664551,2.3239998817443848 9.84000015258789,19.8439998626709 C16.764999389648438,36.55099868774414 7.728000164031982,53.150001525878906 10.1899995803833,53.902000427246094 C12.652000427246094,54.65399932861328 17.805999755859375,47.42599868774414 20.034000396728516,36.41699981689453 C22.941999435424805,22.04800033569336 17.83099937438965,7.804999828338623 15.333999633789062,1.3530000448226929 C12.836000442504883,-5.0929999351501465 15.89799976348877,-10.057000160217285 15.89799976348877,-10.057000160217285 C15.89799976348877,-10.057000160217285 15.64799976348877,-11.557000160217285 15.64799976348877,-11.557000160217285 C4.828999996185303,-7.204999923706055 -0.2029999941587448,-4.754000186920166 -3.9040000438690186,-11.954999923706055 C-8.472000122070312,-20.847999572753906 -6.394999980926514,-29.25 -8.61299991607666,-39.01300048828125 C-10.0649995803833,-45.382999420166016 -11.767000198364258,-52.020999908447266 -20.90399932861328,-53.95500183105469z"></path></g></g><g style="display: block;" transform="matrix(1,0,0,1,356.0592041015625,269.9281005859375)" opacity="1"><g opacity="1" transform="matrix(1,0,0,1,0,0)"><path fill="rgb(255,177,57)" fill-opacity="1" d=" M-82.02999877929688,-31.93899917602539 C-83.3270034790039,-19.673999786376953 -85.77100372314453,-15.885000228881836 -91.13899993896484,2.628999948501587 C-96.50599670410156,21.136999130249023 -92.41200256347656,39.584999084472656 -83.89099884033203,53.301998138427734 C-75.55899810791016,66.70800018310547 -58.66999816894531,83.88099670410156 -36.95399856567383,86.68900299072266 C-11.105999946594238,90.0250015258789 24.253000259399414,64.1760025024414 34.59400177001953,56.89500045776367 C34.59400177001953,56.89500045776367 34.59400177001953,56.89500045776367 34.599998474121094,56.88999938964844 C42.16400146484375,51.4109992980957 41.47200012207031,42.16999816894531 30.996000289916992,49.402000427246094 C22.490999221801758,55.27299880981445 15.569999694824219,60.08599853515625 14.206999778747559,61.071998596191406 C2.2070000171661377,68.0719985961914 -8.793000221252441,73.0719985961914 -27.792999267578125,74.0719985961914 C-47.292999267578125,74.30899810791016 -55.19200134277344,61.42900085449219 -54.16999816894531,56.74399948120117 C-53.15299987792969,52.058998107910156 -46.52000045776367,49.85300064086914 -44.15999984741211,44.73400115966797 C-41.582000732421875,39.14099884033203 -43.422000885009766,39.130001068115234 -47.36199951171875,41.62099838256836 C-51.301998138427734,44.11199951171875 -71.93900299072266,47.672000885009766 -77.8479995727539,30.775999069213867 C-85.31900024414062,9.413999557495117 -74.79299926757812,-21.92799949645996 -72.79299926757812,-37.928001403808594 C-71.44499969482422,-47.902000427246094 -71.48699951171875,-62.45199966430664 -77.79299926757812,-72.9280014038086 C-83.05999755859375,-81.6780014038086 -78.93499755859375,-89.4280014038086 -75.2229995727539,-89.39099884033203 C-86.30999755859375,-92.5530014038086 -91.68399810791016,-83.9280014038086 -83.18900299072266,-64.60900115966797 C-79.25700378417969,-55.667999267578125 -80.73300170898438,-44.20399856567383 -82.02999877929688,-31.93899917602539z"></path></g></g><g style="display: block;" transform="matrix(1,0,0,1,-1.344818115234375,-6.99993896484375)" opacity="1"><g opacity="1" transform="matrix(1,0,0,1,290.97900390625,203.85899353027344)"><path fill="rgb(255,223,121)" fill-opacity="1" d=" M-5.64900016784668,-13.815999984741211 C-0.36800000071525574,-11.857999801635742 8.26099967956543,-5.249000072479248 9.631999969482422,2.1410000324249268 C10.807000160217285,8.47599983215332 11.093000411987305,14.152999877929688 5.631999969482422,14.140999794006348 C1.0410000085830688,14.130999565124512 2.631999969482422,6.140999794006348 -5.368000030517578,-3.8589999675750732 C-13.368000030517578,-13.859000205993652 -10.368000030517578,-14.857999801635742 -5.64900016784668,-13.815999984741211z"></path></g></g><g style="display: block;" transform="matrix(1,0,0,1,326.5821838378906,267.93408203125)" opacity="1"><g opacity="1" transform="matrix(1,0,0,1,0,0)"><path stroke-linecap="round" stroke-linejoin="round" fill-opacity="0" stroke="rgb(247,126,65)" stroke-opacity="1" stroke-width="7" d=" M-20.315000534057617,-39.933998107910156 C-25.07200050354004,-48.729000091552734 -20.80500030517578,-59.22999954223633 -23.024999618530273,-68.99400329589844 C-25.2450008392334,-78.75800323486328 -40.875999450683594,-93.12999725341797 -51.775001525878906,-87.87000274658203 C-62.67399978637695,-82.61000061035156 -57.9010009765625,-74.01699829101562 -54.314998626708984,-64.93399810791016 C-49.6510009765625,-51.68199920654297 -51.314998626708984,-39.933998107910156 -53.314998626708984,-29.93400001525879 C-56.07899856567383,-17.923999786376953 -57.314998626708984,-12.9350004196167 -61.6609992980957,4.619999885559082 C-67.0260009765625,23.131000518798828 -62.935001373291016,41.58100128173828 -54.41299819946289,55.292999267578125 C-46.08100128173828,68.6989974975586 -29.190000534057617,85.8759994506836 -7.474999904632568,88.68099975585938"></path></g></g><g style="display: none;"><g><path></path><path></path></g></g><g style="display: block;" transform="matrix(1,0,0,1,374.668212890625,197.62808227539062)" opacity="1"><g opacity="1" transform="matrix(1,0,0,1,0,0)"><path fill="rgb(255,209,64)" fill-opacity="1" d=" M-40.4010009765625,24.371999740600586 C-33.667999267578125,18.549999237060547 -14.229999542236328,-1.0720000267028809 -7.401000022888184,-7.627999782562256 C13.232999801635742,-27.43400001525879 26.599000930786133,-46.62799835205078 37.5989990234375,-36.62799835205078 C46.5989990234375,-26.628000259399414 32.39400100708008,-14.975000381469727 16.599000930786133,1.371999979019165 C0.5870000123977661,17.94499969482422 -20.101999282836914,34.98099899291992 -15.340999603271484,39.36199951171875"></path></g></g><g style="display: block;" transform="matrix(1,0,0,1,369.3411865234375,195.94110107421875)" opacity="1"><g opacity="1" transform="matrix(1,0,0,1,0,0)"><path fill="rgb(255,223,121)" fill-opacity="1" d=" M-46.07400131225586,36.058998107910156 C-44.29100036621094,44.349998474121094 -34.14099884033203,36.43199920654297 -17.753999710083008,20.533000946044922 C-4.927999973297119,8.088000297546387 23.173999786376953,-22.94099998474121 33.465999603271484,-27.878000259399414 C43.62300109863281,-32.75 44.59600067138672,-25.805999755859375 44.59600067138672,-25.805999755859375 C47.15299987792969,-29.240999221801758 44.80099868774414,-34 42.1870002746582,-36.255001068115234 C31.44300079345703,-45.52299880981445 11.984999656677246,-18.44499969482422 -1.1859999895095825,-5.853000164031982 C-13.279000282287598,5.708000183105469 -46.07400131225586,36.058998107910156 -46.07400131225586,36.058998107910156z"></path></g></g><g style="display: block;" transform="matrix(1,0,0,1,384.39019775390625,200.84210205078125)" opacity="1"><g opacity="1" transform="matrix(1,0,0,1,0,0)"><path fill="rgb(255,177,57)" fill-opacity="1" d=" M19.450000762939453,-39.14799880981445 C19.450000762939453,-39.14799880981445 28.531999588012695,-36.85200119018555 19.857999801635742,-25.437999725341797 C10.321000099182129,-12.887999534606934 -7.249000072479248,2.0429999828338623 -18.86400032043457,14.26099967956543 C-30.990999221801758,27.01799964904785 -35.32400131225586,33.15399932861328 -26.725000381469727,39.54800033569336 C-26.725000381469727,39.54800033569336 -29.785999298095703,34.95199966430664 -20.768999099731445,25.6560001373291 C-14.375,19.06399917602539 18.275999069213867,-10.628999710083008 24.091999053955078,-17.562000274658203 C29.908000946044922,-24.4950008392334 35.314998626708984,-32.111000061035156 26.816999435424805,-38.119998931884766 C23.38800048828125,-40.54499816894531 19.450000762939453,-39.14799880981445 19.450000762939453,-39.14799880981445z"></path></g></g><g style="display: block;" transform="matrix(1,0,0,1,374.668212890625,197.62808227539062)" opacity="1"><g opacity="1" transform="matrix(1,0,0,1,0,0)"><path stroke-linecap="round" stroke-linejoin="round" fill-opacity="0" stroke="rgb(247,126,65)" stroke-opacity="1" stroke-width="7" d=" M-40.4010009765625,24.371999740600586 C-33.667999267578125,18.549999237060547 -14.229999542236328,-1.0720000267028809 -7.401000022888184,-7.627999782562256 C13.232999801635742,-27.43400001525879 26.599000930786133,-46.62799835205078 37.5989990234375,-36.62799835205078 C46.5989990234375,-26.628000259399414 32.39400100708008,-14.975000381469727 16.599000930786133,1.371999979019165 C0.5870000123977661,17.94499969482422 -20.101999282836914,34.98099899291992 -15.340999603271484,39.36199951171875"></path></g></g><g style="display: block;" transform="matrix(1,0,0,1,405.4541931152344,220.09808349609375)" opacity="1"><g opacity="1" transform="matrix(1,0,0,1,0,0)"><path fill="rgb(255,209,64)" fill-opacity="1" d=" M-29.694000244140625,45.040000915527344 C-33.183998107910156,39.79399871826172 -12.809000015258789,27.0310001373291 10.812999725341797,5.9019999504089355 C31.555999755859375,-12.652000427246094 53.37099838256836,-30.82699966430664 43.8129997253418,-41.097999572753906 C33.69900131225586,-51.96699905395508 23.905000686645508,-38.90399932861328 2.1429998874664307,-19.67799949645996 C-15.574000358581543,-4.025000095367432 -42.57400131225586,21.21299934387207 -46.12699890136719,16.891000747680664"></path></g></g><g style="display: block;" transform="matrix(1,0,0,1,402.8321838378906,209.46908569335938)" opacity="1"><g opacity="1" transform="matrix(1,0,0,1,0,0)"><path fill="rgb(255,223,121)" fill-opacity="1" d=" M41.45899963378906,-16.354999542236328 C41.45899963378906,-16.354999542236328 41.45399856567383,-22.76799964904785 34.66400146484375,-21.513999938964844 C26.594999313354492,-20.02400016784668 9.343999862670898,-2.2039999961853027 -1.152999997138977,6.715000152587891 C-12.906999588012695,16.70199966430664 -39.409000396728516,42.902000427246094 -46.766998291015625,29.856000900268555 C-46.766998291015625,29.856000900268555 -40,28.479999542236328 -32.27799987792969,22.83799934387207 C-12.807999610900879,8.612000465393066 24.849000930786133,-28.638999938964844 32.00600051879883,-32.60100173950195 C43.369998931884766,-38.89099884033203 52.18299865722656,-27.69499969482422 41.45899963378906,-16.354999542236328z"></path></g></g><g style="display: block;" transform="matrix(1,0,0,1,410.02618408203125,223.27310180664062)" opacity="1"><g opacity="1" transform="matrix(1,0,0,1,0,0)"><path fill="rgb(255,177,57)" fill-opacity="1" d=" M30.329999923706055,-45.016998291015625 C30.329999923706055,-45.016998291015625 40.189998626708984,-41.209999084472656 28.631000518798828,-28.406999588012695 C18.166000366210938,-16.815000534057617 3.3540000915527344,-4.7270002365112305 -17.069000244140625,12.364999771118164 C-32.66899871826172,25.42099952697754 -41.834999084472656,32.9109992980957 -40.6870002746582,39.28900146484375 C-40.332000732421875,41.26100158691406 -38.99100112915039,43.125999450683594 -36.54999923706055,45.016998291015625 C-36.54999923706055,45.016998291015625 -39.7599983215332,39.41400146484375 -24.70199966430664,27.857999801635742 C-12.793999671936035,18.7189998626709 24.148000717163086,-13.059000015258789 30.658000946044922,-19.46500015258789 C37.167999267578125,-25.871000289916992 49.91999816894531,-41.262001037597656 30.329999923706055,-45.016998291015625z"></path></g></g><g style="display: block;" transform="matrix(1,0,0,1,405.4541931152344,220.09808349609375)" opacity="1"><g opacity="1" transform="matrix(1,0,0,1,0,0)"><path stroke-linecap="round" stroke-linejoin="round" fill-opacity="0" stroke="rgb(247,126,65)" stroke-opacity="1" stroke-width="7" d=" M-29.694000244140625,45.040000915527344 C-33.183998107910156,39.79399871826172 -12.809000015258789,27.0310001373291 10.812999725341797,5.9019999504089355 C31.555999755859375,-12.652000427246094 53.37099838256836,-30.82699966430664 43.8129997253418,-41.097999572753906 C33.69900131225586,-51.96699905395508 23.905000686645508,-38.90399932861328 2.1429998874664307,-19.67799949645996 C-15.574000358581543,-4.025000095367432 -42.57400131225586,21.21299934387207 -46.12699890136719,16.891000747680664"></path></g></g><g style="display: block;" transform="matrix(1,0,0,1,418.190185546875,256.5111083984375)" opacity="1"><g opacity="1" transform="matrix(1,0,0,1,0,0)"><path fill="rgb(255,209,64)" fill-opacity="1" d=" M-42.43000030517578,8.628000259399414 C-39.566001892089844,13.395000457763672 -13.986000061035156,-9.140999794006348 2.0769999027252197,-21.51099967956543 C22.356000900268555,-37.12799835205078 32.75199890136719,-47.249000549316406 40.07699966430664,-37.51100158691406 C48.667999267578125,-26.09000015258789 32.69200134277344,-14.583000183105469 9.07699966430664,3.489000082015991 C-14.857999801635742,21.805999755859375 -37.176998138427734,36.5620002746582 -33.928001403808594,41.3390007019043"></path></g></g><g style="display: block;" transform="matrix(1,0,0,1,441.169189453125,226.42410278320312)" opacity="1"><g opacity="1" transform="matrix(1,0,0,1,0,0)"><path fill="rgb(255,223,121)" fill-opacity="1" d=" M11.442000389099121,6.244999885559082 C11.442000389099121,6.244999885559082 13.204999923706055,1.0679999589920044 5.390999794006348,1.1039999723434448 C-3.2339999675750732,1.1430000066757202 -7.701000213623047,5.663000106811523 -17.920000076293945,10.437000274658203 C-17.920000076293945,10.437000274658203 3.321000099182129,-10.3149995803833 10.722000122070312,-10.4350004196167 C22.95199966430664,-10.633000373840332 17.093000411987305,2.0350000858306885 11.442000389099121,6.244999885559082z"></path></g></g><g style="display: block;" transform="matrix(1,0,0,1,419.82818603515625,259.4841003417969)" opacity="1"><g opacity="1" transform="matrix(1,0,0,1,0,0)"><path fill="rgb(255,177,57)" fill-opacity="1" d=" M32.474998474121094,-42.25899887084961 C32.474998474121094,-42.25899887084961 40.87699890136719,-37.61800003051758 25.492000579833984,-22.440000534057617 C23.788999557495117,-20.760000228881836 17.486000061035156,-15.904000282287598 9.38700008392334,-9.805999755859375 C-3.4210000038146973,-0.16300000250339508 -20.722000122070312,12.588000297546387 -31.43400001525879,20.804000854492188 C-41.05699920654297,28.184999465942383 -41.75699996948242,33.45600128173828 -40.44200134277344,36.70500183105469 C-39.367000579833984,39.35900115966797 -36.946998596191406,40.66400146484375 -36.946998596191406,40.66400146484375 C-36.946998596191406,40.66400146484375 -33.125999450683594,32.231998443603516 -19.31599998474121,21.259000778198242 C-5.953000068664551,10.640999794006348 18.083999633789062,-7.14300012588501 26.21500015258789,-14.102999687194824 C34.34600067138672,-21.062999725341797 44.07099914550781,-29.655000686645508 40.29399871826172,-36.66299819946289 C36.516998291015625,-43.67100143432617 32.474998474121094,-42.25899887084961 32.474998474121094,-42.25899887084961z"></path></g></g><g style="display: block;" transform="matrix(1,0,0,1,418.190185546875,256.5111083984375)" opacity="1"><g opacity="1" transform="matrix(1,0,0,1,0,0)"><path stroke-linecap="round" stroke-linejoin="round" fill-opacity="0" stroke="rgb(247,126,65)" stroke-opacity="1" stroke-width="7" d=" M-42.43000030517578,8.628000259399414 C-39.566001892089844,13.395000457763672 -13.986000061035156,-9.140999794006348 2.0769999027252197,-21.51099967956543 C22.356000900268555,-37.12799835205078 32.75199890136719,-47.249000549316406 40.07699966430664,-37.51100158691406 C48.667999267578125,-26.09000015258789 32.69200134277344,-14.583000183105469 9.07699966430664,3.489000082015991 C-14.857999801635742,21.805999755859375 -37.176998138427734,36.5620002746582 -33.928001403808594,41.3390007019043"></path></g></g><g style="display: block;" transform="matrix(1,0,0,1,416.83319091796875,297.2210998535156)" opacity="1"><g opacity="1" transform="matrix(1,0,0,1,0,0)"><path fill="rgb(255,209,64)" fill-opacity="1" d=" M-32.57099914550781,0.628000020980835 C-31.006000518798828,5.334000110626221 -10.430000305175781,-9.857000350952148 3.434000015258789,-20.22100067138672 C15.730999946594238,-28.44700050354004 24.594999313354492,-33.21699905395508 30.43400001525879,-26.22100067138672 C39.09700012207031,-15.842000007629395 19.43400001525879,-3.2219998836517334 6.951000213623047,5.8460001945495605 C-4.855999946594238,14.107000350952148 -18.613000869750977,24.121000289916992 -26.177000045776367,29.604000091552734"></path></g></g><g style="display: block;" transform="matrix(1,0,0,1,432.7052001953125,277.4111022949219)" opacity="1"><g opacity="1" transform="matrix(1,0,0,1,0,0)"><path fill="rgb(255,223,121)" fill-opacity="1" d=" M6.126999855041504,8.194999694824219 C6.126999855041504,8.194999694824219 10.229000091552734,0.6039999723434448 5.4120001792907715,-1.0709999799728394 C0.5950000286102295,-2.746000051498413 -11.565999984741211,4.316999912261963 -16.981000900268555,6.425000190734863 C-16.981000900268555,6.425000190734863 0.9459999799728394,-14.468999862670898 12.972999572753906,-6.302000045776367 C25,1.8650000095367432 6.126999855041504,8.194999694824219 6.126999855041504,8.194999694824219z"></path></g></g><g style="display: block;" transform="matrix(1,0,0,1,356.0592041015625,269.9281005859375)" opacity="1"><g opacity="1" transform="matrix(1,0,0,1,0,0)"><path fill="rgb(255,177,57)" fill-opacity="1" d=" M34.59400177001953,56.89500045776367 C34.59400177001953,56.89500045776367 34.59400177001953,56.89500045776367 34.599998474121094,56.88999938964844 C42.16400146484375,51.4109992980957 55.5989990234375,41.58399963378906 67.64900207519531,33.691001892089844 C89.15299987792969,19.618999481201172 99.09500122070312,13.586000442504883 90.43099975585938,3.2090001106262207 C90.15499877929688,2.875 89.86900329589844,2.572999954223633 89.57499694824219,2.2929999828338623 C89.57499694824219,2.2929999828338623 86.2699966430664,0.3070000112056732 86.2699966430664,0.3070000112056732 C86.2699966430664,0.3070000112056732 86.00399780273438,0.14800000190734863 86.00399780273438,0.14800000190734863 C86.00399780273438,0.14800000190734863 86.03399658203125,0.18000000715255737 86.07599639892578,0.24699999392032623 C86.44300079345703,0.7900000214576721 87.96800231933594,3.5759999752044678 85.31800079345703,8.758999824523926 C82.34400177001953,14.574000358581543 70.13899993896484,22.757999420166016 62.207000732421875,28.07200050354004 C54.35100173950195,33.33399963378906 41.47200012207031,42.16999816894531 30.996000289916992,49.402000427246094 C22.490999221801758,55.27299880981445 24.253000259399414,64.1760025024414 34.59400177001953,56.89500045776367z"></path></g></g><g style="display: block;" transform="matrix(1,0,0,1,416.83319091796875,297.2210998535156)" opacity="1"><g opacity="1" transform="matrix(1,0,0,1,0,0)"><path stroke-linecap="round" stroke-linejoin="round" fill-opacity="0" stroke="rgb(247,126,65)" stroke-opacity="1" stroke-width="7" d=" M-32.57099914550781,0.628000020980835 C-31.006000518798828,5.334000110626221 -10.430000305175781,-9.857000350952148 3.434000015258789,-20.22100067138672 C15.730999946594238,-28.44700050354004 24.594999313354492,-33.21699905395508 30.43400001525879,-26.22100067138672 C39.09700012207031,-15.842000007629395 19.43400001525879,-3.2219998836517334 6.951000213623047,5.8460001945495605 C-4.855999946594238,14.107000350952148 -18.613000869750977,24.121000289916992 -26.177000045776367,29.604000091552734"></path></g></g><g style="display: block;" transform="matrix(1,0,0,1,326.5821838378906,267.93408203125)" opacity="1"><g opacity="1" transform="matrix(1,0,0,1,0,0)"><path stroke-linecap="round" stroke-linejoin="round" fill-opacity="0" stroke="rgb(247,126,65)" stroke-opacity="1" stroke-width="7" d=" M-7.474999904632568,88.68099975585938 C13.114999771118164,91.33999633789062 38.12699890136719,76.46499633789062 53.96500015258789,65.83699798583984 C58.007999420166016,63.124000549316406 61.452999114990234,60.6879997253418 64.0739974975586,58.89099884033203"></path></g></g><g style="display: block;" transform="matrix(1,0,0,1,-1.344818115234375,-6.99993896484375)" opacity="1"><g opacity="1" transform="matrix(1,0,0,1,308.10699462890625,271.4020080566406)"><path fill="rgb(255,223,121)" fill-opacity="1" d=" M-10.652000427246094,-30.8700008392334 C-7.129000186920166,-33.13600158691406 -0.6600000262260437,-27.8439998626709 7.821000099182129,-15.385000228881836 C19.073999404907227,1.1469999551773071 16.913000106811523,17.709999084472656 10.163000106811523,26.416000366210938 C2.2760000228881836,36.5880012512207 -9.772000312805176,32.125 -10.496000289916992,20.597999572753906 C-11.25100040435791,8.581000328063965 -10.036999702453613,-2.9809999465942383 -12.496000289916992,-12.402000427246094 C-14.64799976348877,-20.645999908447266 -14.9399995803833,-28.111000061035156 -10.652000427246094,-30.8700008392334z"></path></g><g opacity="1" transform="matrix(1,0,0,1,357.38299560546875,281.8080139160156)"><path fill="rgb(255,223,121)" fill-opacity="1" d=" M-17.85700035095215,-30.677000045776367 C-15.397000312805176,-34.3129997253418 -2.2760000228881836,-30.48200035095215 7.445000171661377,-13.652000427246094 C17.166000366210938,3.177999973297119 22.226999282836914,28.145999908447266 15.71399974822998,31.46299934387207 C9.201000213623047,34.779998779296875 8.050999641418457,19.91200065612793 3.055999994277954,7.960999965667725 C-1.996999979019165,-4.127999782562256 -7.252999782562256,-10.86299991607666 -11.40999984741211,-16.229999542236328 C-16.160999298095703,-22.364999771118164 -20.451000213623047,-26.843000411987305 -17.85700035095215,-30.677000045776367z"></path></g><g opacity="1" transform="matrix(1,0,0,1,339.96099853515625,334.1969909667969)"><path fill="rgb(255,223,121)" fill-opacity="1" d=" M-1.274999976158142,-5.241000175476074 C8.878000259399414,-5.669000148773193 13.107000350952148,-8.359000205993652 18.583999633789062,-10.170999526977539 C24.06100082397461,-11.982999801635742 29.125999450683594,-8.104999542236328 24.341999053955078,-1.3009999990463257 C19.558000564575195,5.502999782562256 5.8520002365112305,10.661999702453613 -1.899999976158142,10.614999771118164 C-14.74899959564209,10.536999702453613 -27.996000289916992,5.079999923706055 -26.062000274658203,-2.765000104904175 C-24.66699981689453,-8.42300033569336 -16.246999740600586,-4.611000061035156 -1.274999976158142,-5.241000175476074z"></path></g><g opacity="1" transform="matrix(1,0,0,1,338.40899658203125,331.87200927734375)"><path stroke-linecap="round" stroke-linejoin="round" fill-opacity="0" stroke="rgb(255,255,255)" stroke-opacity="1" stroke-width="6" d=" M21.290000915527344,1.8550000190734863 C18.270000457763672,3.802000045776367 14.583999633789062,5.585999965667725 10.871999740600586,7.039999961853027"></path></g><g opacity="1" transform="matrix(1,0,0,1,338.40899658203125,331.87200927734375)"><path stroke-linecap="round" stroke-linejoin="round" fill-opacity="0" stroke="rgb(255,255,255)" stroke-opacity="1" stroke-width="6" d=" M3.7009999752044678,9.432000160217285 C3.253999948501587,9.553999900817871 2.813999891281128,9.668999671936035 2.38100004196167,9.776000022888184"></path></g></g><g style="display: block;" transform="matrix(1,0,0,1,326.5821838378906,267.93408203125)" opacity="1"><g opacity="1" transform="matrix(1,0,0,1,0,0)"><path stroke-linecap="round" stroke-linejoin="round" fill-opacity="0" stroke="rgb(247,126,65)" stroke-opacity="1" stroke-width="7" d=" M7.684999942779541,-45.933998107910156 C-2.9089999198913574,-35.77199935913086 -15.581999778747559,-31.18400001525879 -20.315000534057617,-39.933998107910156"></path></g></g></g></g></svg>