<svg xmlns="http://www.w3.org/2000/svg" viewBox="0 0 512 512" width="512" height="512" style="width: 100%; height: 100%; transform: translate3d(0,0,0);" preserveAspectRatio="xMidYMid meet"><defs><clipPath id="__lottie_element_20652"><rect width="512" height="512" x="0" y="0"></rect></clipPath><linearGradient id="__lottie_element_20658" spreadMethod="pad" gradientUnits="userSpaceOnUse" x1="-161.66299438476562" y1="-21" x2="160.1060028076172" y2="-21"><stop offset="0%" stop-color="rgb(10,10,10)"></stop><stop offset="29%" stop-color="rgb(46,46,46)"></stop><stop offset="50%" stop-color="rgb(82,82,82)"></stop><stop offset="75%" stop-color="rgb(42,42,42)"></stop><stop offset="100%" stop-color="rgb(3,3,3)"></stop></linearGradient></defs><g clip-path="url(#__lottie_element_20652)"><g style="display: block;" transform="matrix(1,0,0,1,256,255.99998474121094)" opacity="1"><g opacity="0.1" transform="matrix(1,0,0,1,0,0)"><path fill="rgb(0,0,0)" fill-opacity="1" d=" M195.92300415039062,10.781999588012695 C195.92300415039062,119.04299926757812 108.15899658203125,206.80599975585938 -0.10199999809265137,206.80599975585938 C-108.36299896240234,206.80599975585938 -196.12600708007812,119.04299926757812 -196.12600708007812,10.781999588012695 C-196.12600708007812,-97.47899627685547 -108.36299896240234,-185.2429962158203 -0.10199999809265137,-185.2429962158203 C108.15899658203125,-185.2429962158203 195.92300415039062,-97.47899627685547 195.92300415039062,10.781999588012695z"></path></g><g opacity="1" transform="matrix(1,0,0,1,0,0)"><path fill="rgb(255,173,0)" fill-opacity="1" d=" M188.7740020751953,-4.2179999351501465 C188.7740020751953,100.09500122070312 104.21099853515625,184.65699768066406 -0.10199999809265137,184.65699768066406 C-104.41500091552734,184.65699768066406 -188.9770050048828,100.09500122070312 -188.9770050048828,-4.2179999351501465 C-188.9770050048828,-108.53099822998047 -104.41500091552734,-193.093994140625 -0.10199999809265137,-193.093994140625 C104.21099853515625,-193.093994140625 188.7740020751953,-108.53099822998047 188.7740020751953,-4.2179999351501465z"></path></g><g opacity="1" transform="matrix(1,0,0,1,0,0)"><path fill="rgb(255,207,0)" fill-opacity="1" d=" M168.30499267578125,-3.50600004196167 C166.84800720214844,91.52200317382812 90.29499816894531,167.4029998779297 -2.683000087738037,165.97799682617188 C-95.66100311279297,164.55299377441406 -169.85299682617188,86.36199951171875 -168.39700317382812,-8.666999816894531 C-166.94000244140625,-103.69599914550781 -90.38700103759766,-179.5749969482422 2.5910000801086426,-178.14999389648438 C95.56900024414062,-176.72500610351562 169.76199340820312,-98.53500366210938 168.30499267578125,-3.50600004196167z"></path></g><g opacity="0.9" transform="matrix(1,0,0,1,0,0)"><path fill="rgb(255,222,102)" fill-opacity="1" d=" M149.16600036621094,-46.64699935913086 C149.16600036621094,25.996000289916992 82.33599853515625,-31.468000411987305 -0.10199999809265137,-31.468000411987305 C-82.54000091552734,-31.468000411987305 -149.36900329589844,25.996000289916992 -149.36900329589844,-46.64699935913086 C-149.36900329589844,-119.29000091552734 -82.54000091552734,-178.1790008544922 -0.10199999809265137,-178.1790008544922 C82.33599853515625,-178.1790008544922 149.16600036621094,-119.29000091552734 149.16600036621094,-46.64699935913086z"></path></g><g opacity="1" transform="matrix(1,0,0,1,0,0)"><g opacity="1" transform="matrix(1,0,0,1,0,0)"><path stroke-linecap="round" stroke-linejoin="round" fill-opacity="0" stroke="rgb(255,255,255)" stroke-opacity="1" stroke-width="6" d=" M36.270999908447266,-173.9600067138672 C37.808998107910156,-173.625 39.404998779296875,-173.2550048828125 41.04899978637695,-172.8489990234375"></path></g><g opacity="1" transform="matrix(1,0,0,1,0,0)"><path stroke-linecap="round" stroke-linejoin="round" fill-opacity="0" stroke="rgb(255,255,255)" stroke-opacity="1" stroke-width="6" d=" M14.916999816894531,-177.1790008544922 C14.916999816894531,-177.1790008544922 19.784000396728516,-176.91900634765625 27.506999969482422,-175.64100646972656"></path></g></g><g opacity="1" transform="matrix(1,0,0,1,0,0)"><path stroke-linecap="butt" stroke-linejoin="miter" fill-opacity="0" stroke-miterlimit="10" stroke="rgb(255,118,42)" stroke-opacity="1" stroke-width="8" d=" M188.7740020751953,-4.2179999351501465 C188.7740020751953,100.09500122070312 104.21099853515625,184.65699768066406 -0.10199999809265137,184.65699768066406 C-104.41500091552734,184.65699768066406 -188.9770050048828,100.09500122070312 -188.9770050048828,-4.2179999351501465 C-188.9770050048828,-108.53099822998047 -104.41500091552734,-193.093994140625 -0.10199999809265137,-193.093994140625 C104.21099853515625,-193.093994140625 188.7740020751953,-108.53099822998047 188.7740020751953,-4.2179999351501465z"></path></g></g><g style="display: block;" transform="matrix(1,0,0,1,256,255.99998474121094)" opacity="1"><g opacity="1" transform="matrix(1,0,0,1,0,0)"><path fill="rgb(255,173,0)" fill-opacity="1" d=" M81.21199798583984,-58.45500183105469 C100.4990005493164,-58.94900131225586 122.51100158691406,-54.45000076293945 129.39199829101562,-46.2869987487793 C134.78799438476562,-39.86899948120117 138.73599243164062,-21.982999801635742 135.66099548339844,-5.525000095367432 C133.17100524902344,7.8480000495910645 132.76300048828125,48.84000015258789 66.57599639892578,36.26900100708008 C9.170000076293945,25.365999221801758 21.895000457763672,-32.59700012207031 24.483999252319336,-39.58100128173828 C27.08300018310547,-46.564998626708984 42.6349983215332,-56.68299865722656 81.83999633789062,-58.46900177001953 C81.83999633789062,-58.46900177001953 83.2750015258789,-70.39800262451172 83.2750015258789,-70.39800262451172 C57.17399978637695,-69.81500244140625 33.4379997253418,-62.9900016784668 26.45800018310547,-59.928001403808594 C16.94499969482422,-55.75199890136719 -3.1630001068115234,-48.957000732421875 -26.77400016784668,-59.928001403808594 C-33.547000885009766,-63.07500076293945 -55.14899826049805,-70.1729965209961 -79.49600219726562,-71.13999938964844 C-79.49600219726562,-71.13999938964844 -80.0469970703125,-58.404998779296875 -80.0469970703125,-58.404998779296875 C-42.79999923706055,-56.31399917602539 -27.343000411987305,-46.41400146484375 -24.799999237060547,-39.58100128173828 C-22.211000442504883,-32.59700012207031 -22.11199951171875,-7.994999885559082 -29.84000015258789,10.814000129699707 C-37.56800079345703,29.613000869750977 -69.72100067138672,53.81800079345703 -115.69999694824219,29.066999435424805 C-149.86900329589844,10.67300033569336 -135.10400390625,-39.86899948120117 -129.70700073242188,-46.2869987487793 C-122.5739974975586,-54.749000549316406 -99.18199920654297,-59.27299880981445 -79.4209976196289,-58.380001068115234 C-79.4209976196289,-58.380001068115234 -79.18099975585938,-71.12200164794922 -79.18099975585938,-71.12200164794922 C-97.03800201416016,-71.40399932861328 -118.0979995727539,-68.36599731445312 -140.6510009765625,-58.3849983215332 C-146.68800354003906,-55.7130012512207 -152.83399963378906,-52.542999267578125 -159.052001953125,-48.80699920654297 C-163.91900634765625,-45.882999420166016 -165.73699951171875,-34.67100143432617 -163.2969970703125,-32.29999923706055 C-160.63900756835938,-29.701000213623047 -158.06900024414062,-27.090999603271484 -157.63299560546875,-25.891000747680664 C-157.177001953125,-24.60099983215332 -156.02499389648438,-10.940999984741211 -147.97999572753906,8.562000274658203 C-139.93499755859375,28.065000534057617 -126.11599731445312,38.2239990234375 -110.66999816894531,43.78900146484375 C-95.2239990234375,49.36399841308594 -65.39399719238281,48.49100112915039 -48.797000885009766,41.28900146484375 C-38.16299819946289,36.68600082397461 -27.260000228881836,29.413999557495117 -18.808000564575195,8.045999526977539 C-13.034000396728516,-6.517000198364258 -9.28499984741211,-23.183000564575195 -0.15800000727176666,-23.183000564575195 C8.968999862670898,-23.183000564575195 12.718000411987305,-6.517000198364258 18.492000579833984,8.045999526977539 C26.944000244140625,29.413999557495117 37.84600067138672,36.68600082397461 48.48099899291992,41.28900146484375 C65.0780029296875,48.49100112915039 94.90799713134766,49.36399841308594 110.35399627685547,43.78900146484375 C125.80000305175781,38.2239990234375 139.6199951171875,28.065000534057617 147.6649932861328,8.562000274658203 C155.7100067138672,-10.940999984741211 156.8509979248047,-24.60099983215332 157.3070068359375,-25.891000747680664 C157.7429962158203,-27.090999603271484 160.31300354003906,-29.701000213623047 162.9720001220703,-32.29999923706055 C165.41200256347656,-34.67100143432617 163.45399475097656,-45.66299819946289 158.7259979248047,-48.80699920654297 C152.43299865722656,-52.99100112915039 146.02099609375,-56.4379997253418 139.5780029296875,-59.255001068115234 C120.06199645996094,-67.78700256347656 100.27200317382812,-70.5270004272461 82.71199798583984,-70.39399719238281 C82.71199798583984,-70.39399719238281 81.21199798583984,-58.45500183105469 81.21199798583984,-58.45500183105469z"></path></g></g><g style="display: block;" transform="matrix(1,0,0,1,256,255.99899291992188)" opacity="1"><g opacity="1" transform="matrix(1,0,0,1,0,0)"><g opacity="1" transform="matrix(1,0,0,1,0,0)"><path fill="rgb(255,225,156)" fill-opacity="1" d=" M-36.30500030517578,-19.351999282836914 C-36.30500030517578,0.12600000202655792 -46.18899917602539,15.916000366210938 -58.38199996948242,15.916000366210938 C-70.57499694824219,15.916000366210938 -80.45899963378906,0.12600000202655792 -80.45899963378906,-19.351999282836914 C-80.45899963378906,-38.83000183105469 -70.57499694824219,-54.62099838256836 -58.38199996948242,-54.62099838256836 C-46.18899917602539,-54.62099838256836 -36.30500030517578,-38.83000183105469 -36.30500030517578,-19.351999282836914z"></path></g><g opacity="1" transform="matrix(1,0,0,1,0,0)"><path fill="rgb(255,173,0)" fill-opacity="1" d=" M-36.30500030517578,-22.982999801635742 C-36.30500030517578,-5.510000228881836 -46.18899917602539,8.654999732971191 -58.38199996948242,8.654999732971191 C-70.57499694824219,8.654999732971191 -80.45899963378906,-5.510000228881836 -80.45899963378906,-22.982999801635742 C-80.45899963378906,-40.45600128173828 -70.57499694824219,-54.62099838256836 -58.38199996948242,-54.62099838256836 C-46.18899917602539,-54.62099838256836 -36.30500030517578,-40.45600128173828 -36.30500030517578,-22.982999801635742z"></path></g><g opacity="1" transform="matrix(1,0,0,1,0,0)"><path fill="rgb(143,58,0)" fill-opacity="1" d=" M-38.08300018310547,-19.507999420166016 C-38.08300018310547,-3.0420000553131104 -47.17100143432617,10.307000160217285 -58.38199996948242,10.307000160217285 C-69.59300231933594,10.307000160217285 -78.68099975585938,-3.0420000553131104 -78.68099975585938,-19.507999420166016 C-78.68099975585938,-35.9739990234375 -69.59300231933594,-49.323001861572266 -58.38199996948242,-49.323001861572266 C-47.17100143432617,-49.323001861572266 -38.08300018310547,-35.9739990234375 -38.08300018310547,-19.507999420166016z"></path></g><g opacity="1" transform="matrix(1,0,0,1,0,0)"><path fill="rgb(107,32,0)" fill-opacity="1" d=" M-38.25699996948242,-15.642000198364258 C-39.53900146484375,-30.290000915527344 -48.06399917602539,-41.61199951171875 -58.38199996948242,-41.61199951171875 C-68.69999694824219,-41.61199951171875 -77.22599792480469,-30.290000915527344 -78.50700378417969,-15.642000198364258 C-79.63700103759766,-36 -69.59200286865234,-49.32400131225586 -58.38199996948242,-49.32400131225586 C-47.172000885009766,-49.32400131225586 -37.33000183105469,-36.66699981689453 -38.25699996948242,-15.642000198364258z"></path></g></g><g opacity="1" transform="matrix(1,0,0,1,0,0)"><g opacity="1" transform="matrix(1,0,0,1,0,0)"><path fill="rgb(255,225,156)" fill-opacity="1" d=" M37.14099884033203,-19.351999282836914 C37.14099884033203,0.12600000202655792 47.071998596191406,15.916000366210938 59.32099914550781,15.916000366210938 C71.56999969482422,15.916000366210938 81.5,0.12600000202655792 81.5,-19.351999282836914 C81.5,-38.83000183105469 71.56999969482422,-54.62099838256836 59.32099914550781,-54.62099838256836 C47.071998596191406,-54.62099838256836 37.14099884033203,-38.83000183105469 37.14099884033203,-19.351999282836914z"></path></g><g opacity="1" transform="matrix(1,0,0,1,0,0)"><path fill="rgb(255,173,0)" fill-opacity="1" d=" M37.14099884033203,-22.982999801635742 C37.14099884033203,-5.510000228881836 47.071998596191406,8.654999732971191 59.32099914550781,8.654999732971191 C71.56999969482422,8.654999732971191 81.5,-5.510000228881836 81.5,-22.982999801635742 C81.5,-40.45600128173828 71.56999969482422,-54.62099838256836 59.32099914550781,-54.62099838256836 C47.071998596191406,-54.62099838256836 37.14099884033203,-40.45600128173828 37.14099884033203,-22.982999801635742z"></path></g><g opacity="1" transform="matrix(1,0,0,1,0,0)"><path fill="rgb(143,58,0)" fill-opacity="1" d=" M38.928001403808594,-19.507999420166016 C38.928001403808594,-3.0420000553131104 48.05799865722656,10.307000160217285 59.32099914550781,10.307000160217285 C70.58399963378906,10.307000160217285 79.71399688720703,-3.0420000553131104 79.71399688720703,-19.507999420166016 C79.71399688720703,-35.9739990234375 70.58399963378906,-49.323001861572266 59.32099914550781,-49.323001861572266 C48.05799865722656,-49.323001861572266 38.928001403808594,-35.9739990234375 38.928001403808594,-19.507999420166016z"></path></g><g opacity="1" transform="matrix(1,0,0,1,0,0)"><path fill="rgb(107,32,0)" fill-opacity="1" d=" M39.10200119018555,-15.642000198364258 C40.38999938964844,-30.290000915527344 48.95500183105469,-41.61199951171875 59.32099914550781,-41.61199951171875 C69.68699645996094,-41.61199951171875 78.25199890136719,-30.290000915527344 79.53900146484375,-15.642000198364258 C81.15499877929688,-35.5 70.58300018310547,-49.32400131225586 59.32099914550781,-49.32400131225586 C48.058998107910156,-49.32400131225586 37.78799819946289,-35.58399963378906 39.10200119018555,-15.642000198364258z"></path></g></g></g><g style="display: block;" transform="matrix(1,0,0,1,255.99899291992188,255.99998474121094)" opacity="1"><g opacity="0.6" transform="matrix(1,0,0,1,0,0)"><path fill="rgb(255,169,0)" fill-opacity="1" d=" M89.7040023803711,58.03300094604492 C61.737998962402344,76.54299926757812 39.52000045776367,86.11299896240234 0.3370000123977661,86.27300262451172 C-38.84600067138672,86.11299896240234 -61.064998626708984,76.54299926757812 -89.03099822998047,58.03300094604492 C-90.80500030517578,56.85300064086914 -96.7249984741211,58.551998138427734 -94.8010025024414,64.73699951171875 C-91.43000030517578,75.56999969482422 -59.132999420166016,109.87300109863281 0.3370000123977661,110.24299621582031 C59.80699920654297,109.87300109863281 92.58899688720703,75.3280029296875 95.50499725341797,64.36399841308594 C97.12200164794922,58.28300094604492 91.47799682617188,56.85300064086914 89.7040023803711,58.03300094604492z"></path></g><g opacity="1" transform="matrix(1,0,0,1,0,0)"><path fill="rgb(255,224,145)" fill-opacity="1" d=" M90.06400299072266,62.22600173950195 C61.941001892089844,83.7969970703125 40.4370002746582,94.33699798583984 0.3370000123977661,94.51799774169922 C-39.76300048828125,94.33699798583984 -61.625999450683594,83.73799896240234 -89.697998046875,62.099998474121094 C-92.67900085449219,59.801998138427734 -95.50900268554688,62.367000579833984 -94.7020034790039,65.2020034790039 C-91.21199798583984,77.4229965209961 -60.52399826049805,119.91600036621094 0.3370000123977661,120.33399963378906 C61.198001861572266,119.91600036621094 91.88600158691406,77.4229965209961 95.3759994506836,65.2020034790039 C96.18299865722656,62.367000579833984 93.35299682617188,59.702999114990234 90.06400299072266,62.22600173950195z"></path></g><g opacity="1" transform="matrix(1,0,0,1,0,0)"><path fill="rgb(255,173,0)" fill-opacity="1" d=" M38.73500061035156,89.2030029296875 C20.041000366210938,97.37799835205078 -20.663000106811523,99.75 -38.0620002746582,89.2030029296875 C-43.16299819946289,111 -33.32899856567383,123.83300018310547 -30.15399932861328,127.35600280761719 C-19.25,139.45399475097656 0.3370000123977661,138.40699768066406 0.3370000123977661,130.89199829101562 C0.3370000123977661,138.40699768066406 19.92300033569336,139.45399475097656 30.82699966430664,127.35600280761719 C34.00199890136719,123.83300018310547 43.33599853515625,112.85600280761719 38.73500061035156,89.2030029296875z"></path></g><g opacity="1" transform="matrix(1,0,0,1,0,0)"><path fill="rgb(153,51,0)" fill-opacity="1" d=" M93.20700073242188,64.83000183105469 C90.49700164794922,73.41999816894531 67.08699798583984,113.63999938964844 0.3370000123977661,113.63999938964844 C-69.83000183105469,113.63999938964844 -89.822998046875,73.41999816894531 -92.53299713134766,64.83000183105469 C-93.322998046875,62.31999969482422 -90.8030014038086,61.25 -89.03299713134766,62.43000030517578 C-70.34300231933594,74.80000305175781 -50.33000183105469,93.33300018310547 0.3370000123977661,92.44499969482422 C58.52199935913086,91.42500305175781 71.01699829101562,74.80000305175781 89.70700073242188,62.43000030517578 C91.47699737548828,61.25 93.99700164794922,62.31999969482422 93.20700073242188,64.83000183105469z"></path></g><g opacity="1" transform="matrix(1,0,0,1,0,0)"><path fill="rgb(116,24,0)" fill-opacity="1" d=" M92.29000091552734,67.06500244140625 C91.55000305175781,66.70500183105469 90.54000091552734,67.75499725341797 89.69999694824219,68.31500244140625 C61.7400016784668,86.82499694824219 39.52000045776367,98.3949966430664 0.3400000035762787,98.55500030517578 C-38.849998474121094,98.3949966430664 -61.060001373291016,86.82499694824219 -89.02999877929688,68.31500244140625 C-89.87000274658203,67.75499725341797 -90.87999725341797,66.70500183105469 -91.62000274658203,67.07499694824219 C-94.50700378417969,62.09299850463867 -90.80000305175781,61.244998931884766 -89.02999877929688,62.42499923706055 C-61.060001373291016,80.93499755859375 -38.849998474121094,91.50499725341797 0.3400000035762787,91.66500091552734 C39.52000045776367,91.50499725341797 61.7400016784668,80.93499755859375 89.69999694824219,62.42499923706055 C91.4800033569336,61.244998931884766 95.12899780273438,61.95000076293945 92.29000091552734,67.06500244140625z"></path></g></g><g style="display: none;"><g><path></path><path stroke-linecap="round" stroke-linejoin="round" fill-opacity="0"></path></g><g><path></path></g><g><path stroke-linecap="round" stroke-linejoin="round" fill-opacity="0"></path></g></g><g style="display: block;" transform="matrix(1,0,0,1,255.99899291992188,255.99998474121094)" opacity="1"><g opacity="1" transform="matrix(1,0,0,1,0,0)"><path fill="rgb(247,249,245)" fill-opacity="1" d=" M0.3370000123977661,94.16600036621094 C0.3370000123977661,94.16600036621094 0.3370000123977661,124.49600219726562 0.3370000123977661,124.49600219726562 C0.3370000123977661,130.5959930419922 -16.260000228881836,130.50900268554688 -26.843000411987305,121.6259994506836 C-38.16299819946289,112.125 -33.87300109863281,90.66600036621094 -33.862998962402344,90.66600036621094 C-23.773000717163086,92.91600036621094 -12.652999877929688,94.11599731445312 0.3370000123977661,94.16600036621094z"></path></g><g opacity="1" transform="matrix(1,0,0,1,0,0)"><path fill="rgb(218,220,217)" fill-opacity="1" d=" M0.3370000123977661,109.80599975585938 C0.3370000123977661,109.80599975585938 0.3370000123977661,124.49600219726562 0.3370000123977661,124.49600219726562 C0.3370000123977661,130.5959930419922 -17.100000381469727,131.42300415039062 -26.843000411987305,121.6259994506836 C-38.16299819946289,110.24299621582031 -34.08300018310547,91.71600341796875 -33.893001556396484,90.65599822998047 C-33.882999420166016,90.65599822998047 -31.323999404907227,114.61900329589844 -16.19300079345703,115.75599670410156 C-6.288000106811523,116.5 0.3370000123977661,109.80599975585938 0.3370000123977661,109.80599975585938z"></path></g><g opacity="1" transform="matrix(1,0,0,1,0,0)"><path stroke-linecap="round" stroke-linejoin="round" fill-opacity="0" stroke="rgb(154,159,166)" stroke-opacity="1" stroke-width="5" d=" M0.3370000123977661,94.16600036621094 C0.3370000123977661,94.16600036621094 0.3370000123977661,124.49600219726562 0.3370000123977661,124.49600219726562 C0.3370000123977661,130.5959930419922 -17.12299919128418,131.4459991455078 -26.843000411987305,121.6259994506836 C-29.67300033569336,118.76599884033203 -31.51300048828125,115.2959976196289 -32.67300033569336,111.72599792480469 C-35.823001861572266,102.08599853515625 -34.08300018310547,91.71600341796875 -33.893001556396484,90.65599822998047 C-33.882999420166016,90.65599822998047 -33.87300109863281,90.66600036621094 -33.862998962402344,90.66600036621094 C-23.773000717163086,92.91600036621094 -12.652999877929688,94.11599731445312 0.3370000123977661,94.16600036621094z"></path></g><g opacity="1" transform="matrix(1,0,0,1,0,0)"><path fill="rgb(247,249,245)" fill-opacity="1" d=" M27.517000198364258,121.6259994506836 C18.527000427246094,132.1179962158203 0.3370000123977661,130.5959930419922 0.3370000123977661,124.49600219726562 C0.3370000123977661,124.49600219726562 0.3370000123977661,94.16600036621094 0.3370000123977661,94.16600036621094 C13.32699966430664,94.11599731445312 34.55699920654297,90.65599822998047 34.56700134277344,90.65599822998047 C34.75699996948242,91.71600341796875 39.834999084472656,107.2490005493164 27.517000198364258,121.6259994506836z"></path></g><g opacity="1" transform="matrix(1,0,0,1,0,0)"><path fill="rgb(218,220,217)" fill-opacity="1" d=" M0.22699999809265137,109.80599975585938 C0.22699999809265137,109.80599975585938 0.22699999809265137,124.49600219726562 0.22699999809265137,124.49600219726562 C0.22699999809265137,130.5959930419922 17.663999557495117,131.42300415039062 27.406999588012695,121.6259994506836 C38.72700119018555,110.24299621582031 34.64699935913086,91.71600341796875 34.457000732421875,90.65599822998047 C34.446998596191406,90.65599822998047 31.88800048828125,114.61900329589844 16.756999969482422,115.75599670410156 C6.8520002365112305,116.5 0.22699999809265137,109.80599975585938 0.22699999809265137,109.80599975585938z"></path></g><g opacity="1" transform="matrix(1,0,0,1,0,0)"><path stroke-linecap="round" stroke-linejoin="round" fill-opacity="0" stroke="rgb(154,159,166)" stroke-opacity="1" stroke-width="5" d=" M33.34700012207031,111.72599792480469 C32.1870002746582,115.2959976196289 30.347000122070312,118.76599884033203 27.517000198364258,121.6259994506836 C17.797000885009766,131.4459991455078 0.3370000123977661,130.5959930419922 0.3370000123977661,124.49600219726562 C0.3370000123977661,124.49600219726562 0.3370000123977661,94.16600036621094 0.3370000123977661,94.16600036621094 C13.32699966430664,94.11599731445312 24.44700050354004,92.91600036621094 34.5369987487793,90.66600036621094 C34.547000885009766,90.66600036621094 34.55699920654297,90.65599822998047 34.56700134277344,90.65599822998047 C34.75699996948242,91.71600341796875 36.49700164794922,102.08599853515625 33.34700012207031,111.72599792480469z"></path></g><g opacity="1" transform="matrix(1,0,0,1,0,0)"><path stroke-linecap="round" stroke-linejoin="round" fill-opacity="0" stroke="rgb(110,110,123)" stroke-opacity="1" stroke-width="5" d=" M34.56700134277344,90.65599822998047 C34.55699920654297,90.65599822998047 34.547000885009766,90.66600036621094 34.5369987487793,90.66600036621094 C24.44700050354004,92.91600036621094 13.32699966430664,94.11599731445312 0.3370000123977661,94.16600036621094 C-12.652999877929688,94.11599731445312 -23.773000717163086,92.91600036621094 -33.862998962402344,90.66600036621094 C-33.87300109863281,90.66600036621094 -33.882999420166016,90.65599822998047 -33.893001556396484,90.65599822998047"></path></g></g><g style="display: none;"><g><path></path><path stroke-linecap="round" stroke-linejoin="round" fill-opacity="0"></path></g><g><path></path></g><g><path stroke-linecap="round" stroke-linejoin="round" fill-opacity="0"></path></g></g><g style="display: block;" transform="matrix(0.8660253882408142,0.5,-0.5,0.8660253882408142,349.2001953125,183.23233032226562)" opacity="0.4"><g opacity="1" transform="matrix(1,0,0,1,-203.5,144)"><path fill="rgb(255,255,255)" fill-opacity="1" d=" M20.299999237060547,-12.04800033569336 C20.299999237060547,-12.04800033569336 27.042999267578125,25.726999282836914 27.042999267578125,25.726999282836914 C27.042999267578125,25.726999282836914 15.954999923706055,14.795000076293945 15.954999923706055,14.795000076293945 C15.954999923706055,14.795000076293945 10.508000373840332,-6.2220001220703125 10.508000373840332,-6.2220001220703125 C10.508000373840332,-6.2220001220703125 20.299999237060547,-12.04800033569336 20.299999237060547,-12.04800033569336z"></path></g></g><g style="display: block;" transform="matrix(0.8660253882408142,0.5,-0.5,0.8660253882408142,508.55316162109375,184.40733337402344)" opacity="0.4"><g opacity="1" transform="matrix(1,0,0,1,-203.5,144)"><path fill="rgb(255,255,255)" fill-opacity="1" d=" M20.299999237060547,-12.04800033569336 C20.299999237060547,-12.04800033569336 27.042999267578125,25.726999282836914 27.042999267578125,25.726999282836914 C27.042999267578125,25.726999282836914 15.954999923706055,14.795000076293945 15.954999923706055,14.795000076293945 C15.954999923706055,14.795000076293945 10.508000373840332,-6.2220001220703125 10.508000373840332,-6.2220001220703125 C10.508000373840332,-6.2220001220703125 20.299999237060547,-12.04800033569336 20.299999237060547,-12.04800033569336z"></path></g></g><g style="display: block;" transform="matrix(1,0,0,1,256,255.99998474121094)" opacity="1"><g opacity="1" transform="matrix(1,0,0,1,0,0)"><path fill="url(#__lottie_element_20658)" fill-opacity="1" d=" M87.03099822998047,-70.2509994506836 C104.09400177001953,-69.46399688720703 123.92900085449219,-64.9219970703125 129.83599853515625,-57.6349983215332 C134.24000549316406,-52.1870002746582 137.677001953125,-40.17100143432617 137.1219940185547,-26.635000228881836 C137.1230010986328,-26.656999588012695 137.1280059814453,-26.683000564575195 137.12899780273438,-26.70400047302246 C137.31700134277344,-21.941999435424805 143.00399780273438,2.568000078201294 115.83000183105469,23.204999923706055 C102.5530014038086,33.28799819946289 82.2300033569336,33.59199905395508 67.02200317382812,30.69499969482422 C51.81399917602539,27.79800033569336 36.70600128173828,23.7810001373291 28.97800064086914,4.228000164031982 C23.28700065612793,-10.161999702453613 21.309999465942383,-26.268999099731445 21.684999465942383,-37.189998626708984 C21.482999801635742,-43.696998596191406 21.961999893188477,-48.9370002746582 22.944000244140625,-51.69300079345703 C25.542999267578125,-58.95500183105469 50.84299850463867,-70.09500122070312 87.03099822998047,-70.2509994506836 C87.03099822998047,-70.2509994506836 86.59300231933594,-80.95600128173828 86.59300231933594,-80.95600128173828 C62.3129997253418,-81.08499908447266 39.76100158691406,-74.28900146484375 26.905000686645508,-68.41899871826172 C17.400999069213867,-64.08399963378906 9.732999801635742,-62.060001373291016 -0.15800000727176666,-62.060001373291016 C-10.048999786376953,-62.060001373291016 -17.270000457763672,-64.08399963378906 -26.77400016784668,-68.41899871826172 C-39.01100158691406,-74.00599670410156 -60.03499984741211,-80.43399810791016 -82.97100067138672,-80.9280014038086 C-82.97100067138672,-80.9280014038086 -84.84500122070312,-70.59500122070312 -84.84500122070312,-70.59500122070312 C-45.63999938964844,-68.73999786376953 -25.415000915527344,-58.95500183105469 -22.81599998474121,-51.69300079345703 C-21.836999893188477,-48.94200134277344 -21.356000900268555,-43.71799850463867 -21.55500030517578,-37.229000091552734 C-21.173999786376953,-26.30699920654297 -23.150999069213867,-10.178999900817871 -28.847999572753906,4.228000164031982 C-36.57600021362305,23.7810001373291 -51.683998107910156,27.79800033569336 -66.89199829101562,30.69499969482422 C-82.0999984741211,33.59199905395508 -101.76399993896484,32.35599899291992 -115.69999694824219,23.204999923706055 C-139.0070037841797,7.900000095367432 -137.18800354003906,-21.941999435424805 -136.99899291992188,-26.70400047302246 C-136.99899291992188,-26.69499969482422 -136.99600219726562,-26.683000564575195 -136.99600219726562,-26.67300033569336 C-137.54299926757812,-40.194000244140625 -134.10699462890625,-52.19200134277344 -129.70700073242188,-57.6349983215332 C-123.58699798583984,-65.18599700927734 -102.34300231933594,-70.05000305175781 -84.84500122070312,-70.59500122070312 C-84.84500122070312,-70.59500122070312 -81.85399627685547,-80.90299987792969 -82.97100067138672,-80.9280014038086 C-113.28299713134766,-81.59500122070312 -127.87100219726562,-77.39700317382812 -142.23599243164062,-67.30799865722656 C-144.41900634765625,-65.77999877929688 -153.71400451660156,-68.66699981689453 -155.98599243164062,-66.13700103759766 C-158.20199584960938,-63.68299865722656 -160.80099487304688,-58.262001037597656 -160.80099487304688,-50.345001220703125 C-160.65699768066406,-49.94900131225586 -153.02000427246094,-49.01499938964844 -152.58399963378906,-47.76499938964844 C-152.1280059814453,-46.42599868774414 -152.05799865722656,-22.93400001525879 -144.01199340820312,-2.6570000648498535 C-135.9669952392578,17.6200008392334 -124.13200378417969,28.184999465942383 -108.68599700927734,33.979000091552734 C-93.23999786376953,39.77199935913086 -62.83100128173828,40.03799819946289 -46.8129997253418,31.3799991607666 C-15.407999992370605,14.406000137329102 -17.062000274658203,-33.83599853515625 -0.1599999964237213,-35.672000885009766 C19.841999053955078,-37.845001220703125 16.593000411987305,18.1560001373291 46.94200134277344,31.3799991607666 C74.30400085449219,43.301998138427734 93.36900329589844,39.77199935913086 108.81500244140625,33.979000091552734 C124.26100158691406,28.184999465942383 136.0959930419922,17.6200008392334 144.14100646972656,-2.6570000648498535 C152.18600463867188,-22.93400001525879 152.25599670410156,-46.42599868774414 152.71200561523438,-47.76499938964844 C153.1479949951172,-49.01499938964844 160.78700256347656,-49.56399917602539 160.93099975585938,-49.96099853515625 C161.34300231933594,-56.09400177001953 158.33299255371094,-63.683998107910156 156.11700439453125,-66.13700103759766 C153.84500122070312,-68.66699981689453 144.5500030517578,-65.77999877929688 142.36700439453125,-67.30799865722656 C128.0019989013672,-77.39700317382812 116.34200286865234,-80.99600219726562 86.59300231933594,-80.95600128173828 C86.59300231933594,-80.95600128173828 87.03099822998047,-70.2509994506836 87.03099822998047,-70.2509994506836z"></path></g><g opacity="1" transform="matrix(1,0,0,1,0,0)"><path fill="rgb(17,19,24)" fill-opacity="1" d=" M-78.6780014038086,-75.3010025024414 C-82.05699920654297,-75.47200012207031 -85.88300323486328,-75.54000091552734 -89.34200286865234,-75.44300079345703 C-114.71800231933594,-74.72899627685547 -127.87100219726562,-71.93099975585938 -142.23599243164062,-61.84199905395508 C-144.41900634765625,-60.31399917602539 -153.71400451660156,-63.20199966430664 -155.98599243164062,-60.672000885009766 C-158.20199584960938,-58.21799850463867 -160.06300354003906,-53.78099822998047 -160.80099487304688,-49.95800018310547 C-160.65699768066406,-49.5620002746582 -160.47799682617188,-49.21500015258789 -160.23199462890625,-48.965999603271484 C-157.572998046875,-46.268001556396484 -153.02000427246094,-43.54899978637695 -152.58399963378906,-42.29899978637695 C-152.1280059814453,-40.959999084472656 -152.05799865722656,-17.4689998626709 -144.01199340820312,2.808000087738037 C-135.9669952392578,23.084999084472656 -124.13200378417969,33.650001525878906 -108.68599700927734,39.444000244140625 C-93.23999786376953,45.23699951171875 -63.40999984741211,44.334999084472656 -46.8129997253418,36.845001220703125 C-36.178001403808594,32.053001403808594 -25.275999069213867,24.493999481201172 -16.823999404907227,2.2730000019073486 C-11.050000190734863,-12.875 -9.286999702453613,-30.207000732421875 -0.1599999964237213,-30.207000732421875 C8.965999603271484,-30.207000732421875 11.178999900817871,-12.875 16.952999114990234,2.2730000019073486 C25.405000686645508,24.493999481201172 36.30699920654297,32.053001403808594 46.94200134277344,36.845001220703125 C63.53900146484375,44.334999084472656 93.36900329589844,45.23699951171875 108.81500244140625,39.444000244140625 C124.26100158691406,33.650001525878906 136.0959930419922,23.084999084472656 144.14100646972656,2.808000087738037 C152.18600463867188,-17.4689998626709 152.25599670410156,-40.959999084472656 152.71200561523438,-42.29899978637695 C153.1479949951172,-43.54899978637695 157.7010040283203,-46.268001556396484 160.36000061035156,-48.965999603271484 C160.60699462890625,-49.215999603271484 160.78700256347656,-49.56399917602539 160.93099975585938,-49.96099853515625 C160.19200134277344,-53.78300094604492 158.33299255371094,-58.21900177001953 156.11700439453125,-60.672000885009766 C153.84500122070312,-63.20199966430664 144.5500030517578,-60.31399917602539 142.36700439453125,-61.84199905395508 C128.0019989013672,-71.93099975585938 114.8479995727539,-74.72899627685547 89.47200012207031,-75.44300079345703 C86.697998046875,-75.52100372314453 82.69000244140625,-75.45500183105469 79.96399688720703,-75.35800170898438 C79.96399688720703,-75.35800170898438 79.55000305175781,-64.73899841308594 79.55000305175781,-64.73899841308594 C102.96700286865234,-65.46900177001953 123.01799774169922,-60.58000183105469 129.83599853515625,-52.16999816894531 C134.24000549316406,-46.72200012207031 137.677001953125,-34.70600128173828 137.1219940185547,-21.170000076293945 C137.1230010986328,-21.191999435424805 137.1280059814453,-21.218000411987305 137.12899780273438,-21.23900032043457 C137.31700134277344,-16.476999282836914 143.00399780273438,8.034000396728516 115.83000183105469,28.67099952697754 C102.5530014038086,38.75400161743164 82.2300033569336,39.05699920654297 67.02200317382812,36.15999984741211 C51.81399917602539,33.26300048828125 36.70600128173828,29.246000289916992 28.97800064086914,9.692999839782715 C23.28700065612793,-4.697000026702881 21.309999465942383,-20.80299949645996 21.684999465942383,-31.724000930786133 C21.482999801635742,-38.23099899291992 21.961999893188477,-43.47200012207031 22.944000244140625,-46.22800064086914 C25.542999267578125,-53.4900016784668 40.345001220703125,-62.88399887084961 79.55000305175781,-64.73899841308594 C79.55000305175781,-64.73899841308594 79.96399688720703,-75.35800170898438 79.96399688720703,-75.35800170898438 C58.25899887084961,-74.38099670410156 38.582000732421875,-68.28500366210938 26.905000686645508,-62.95399856567383 C17.400999069213867,-58.61899948120117 9.732999801635742,-56.595001220703125 -0.15800000727176666,-56.595001220703125 C-10.048999786376953,-56.595001220703125 -17.270000457763672,-58.61899948120117 -26.77400016784668,-62.95399856567383 C-38.24399948120117,-68.19100189208984 -57.430999755859375,-74.16500091552734 -78.6780014038086,-75.3010025024414 C-78.6780014038086,-75.3010025024414 -78.947998046875,-64.71600341796875 -78.947998046875,-64.71600341796875 C-40.09700012207031,-62.80799865722656 -25.405000686645508,-53.459999084472656 -22.81599998474121,-46.22800064086914 C-21.836999893188477,-43.47700119018555 -21.356000900268555,-38.25299835205078 -21.55500030517578,-31.763999938964844 C-21.173999786376953,-20.841999053955078 -23.150999069213867,-4.714000225067139 -28.847999572753906,9.692999839782715 C-36.57600021362305,29.246000289916992 -51.683998107910156,33.26300048828125 -66.89199829101562,36.15999984741211 C-82.0999984741211,39.05699920654297 -101.76399993896484,37.821998596191406 -115.69999694824219,28.67099952697754 C-139.0070037841797,13.366000175476074 -137.18800354003906,-16.476999282836914 -136.99899291992188,-21.23900032043457 C-136.99899291992188,-21.229999542236328 -136.99600219726562,-21.218000411987305 -136.99600219726562,-21.20800018310547 C-137.54299926757812,-34.729000091552734 -134.10699462890625,-46.72700119018555 -129.70700073242188,-52.16999816894531 C-123.58699798583984,-59.72100067138672 -104.70500183105469,-64.2770004272461 -87.20700073242188,-64.8219985961914 C-84.58000183105469,-64.88600158691406 -81.49700164794922,-64.83599853515625 -78.947998046875,-64.71600341796875 C-78.947998046875,-64.71600341796875 -78.6780014038086,-75.3010025024414 -78.6780014038086,-75.3010025024414z"></path></g></g></g></svg>