<svg xmlns="http://www.w3.org/2000/svg" viewBox="0 0 512 512" width="512" height="512" style="width: 100%; height: 100%; transform: translate3d(0,0,0);" preserveAspectRatio="xMidYMid meet"><defs><clipPath id="__lottie_element_20687"><rect width="512" height="512" x="0" y="0"></rect></clipPath><radialGradient id="__lottie_element_20693" spreadMethod="pad" gradientUnits="userSpaceOnUse" cx="0" cy="65" r="194.57400512695312" fx="0" fy="65"><stop offset="0%" stop-color="rgb(223,161,236)"></stop><stop offset="58%" stop-color="rgb(178,83,196)"></stop><stop offset="100%" stop-color="rgb(133,5,156)"></stop></radialGradient></defs><g clip-path="url(#__lottie_element_20687)"><g style="display: block;" transform="matrix(1,0,0,1,256,259)" opacity="1"><g opacity="1" transform="matrix(1,0,0,1,0,0)"><g opacity="1" transform="matrix(1,0,0,1,0,0)"><path fill="rgb(96,11,117)" fill-opacity="1" d=" M93.11299896240234,-158.71800231933594 C93.11299896240234,-158.71800231933594 143.5,-163.4040069580078 207.76499938964844,-199.90699768066406 C219.3699951171875,-197.1790008544922 215.63800048828125,-107.74800109863281 168.77099609375,-82.73699951171875 C121.90399932861328,-57.72600173950195 64.83499908447266,-149.78900146484375 93.11299896240234,-158.71800231933594z"></path></g><g opacity="1" transform="matrix(1,0,0,1,0,0)"><path fill="rgb(141,54,162)" fill-opacity="1" d=" M127.2040023803711,-132.15499877929688 C185.23800659179688,-151.9980010986328 207.76300048828125,-199.90499877929688 207.76300048828125,-199.90499877929688 C145,-164.4720001220703 93.11299896240234,-158.71499633789062 93.11299896240234,-158.71499633789062 C86.5530014038086,-156.64500427246094 105.23999786376953,-124.6449966430664 127.2040023803711,-132.15499877929688z"></path></g><g opacity="1" transform="matrix(1,0,0,1,0,0)"><path stroke-linecap="butt" stroke-linejoin="miter" fill-opacity="0" stroke-miterlimit="10" stroke="rgb(52,15,58)" stroke-opacity="1" stroke-width="8" d=" M93.11299896240234,-158.71800231933594 C93.11299896240234,-158.71800231933594 120.78600311279297,-159.96800231933594 159.0570068359375,-177.89700317382812 C190.49899291992188,-192.6269989013672 205.2830047607422,-201.16000366210938 207.76499938964844,-199.90699768066406 C215.65499877929688,-195.92300415039062 215.63800048828125,-107.74800109863281 168.77099609375,-82.73699951171875 C121.90399932861328,-57.72600173950195 64.83499908447266,-149.78900146484375 93.11299896240234,-158.71800231933594z"></path></g></g><g opacity="1" transform="matrix(1,0,0,1,0,0)"><g opacity="1" transform="matrix(1,0,0,1,0,0)"><path fill="rgb(96,11,117)" fill-opacity="1" d=" M-92.63300323486328,-158.71800231933594 C-92.63300323486328,-158.71800231933594 -156.25,-169.25 -207.28500366210938,-199.90699768066406 C-218.88999938964844,-197.1790008544922 -215.1580047607422,-107.74800109863281 -168.29100036621094,-82.73699951171875 C-121.42400360107422,-57.72600173950195 -64.3550033569336,-149.78900146484375 -92.63300323486328,-158.71800231933594z"></path></g><g opacity="1" transform="matrix(1,0,0,1,0,0)"><path fill="rgb(141,54,162)" fill-opacity="1" d=" M-126.7239990234375,-132.15499877929688 C-184.75799560546875,-151.9980010986328 -207.2830047607422,-199.90499877929688 -207.2830047607422,-199.90499877929688 C-172,-175.2429962158203 -92.63300323486328,-158.71499633789062 -92.63300323486328,-158.71499633789062 C-86.072998046875,-156.64500427246094 -104.76000213623047,-124.6449966430664 -126.7239990234375,-132.15499877929688z"></path></g><g opacity="1" transform="matrix(1,0,0,1,0,0)"><path stroke-linecap="butt" stroke-linejoin="miter" fill-opacity="0" stroke-miterlimit="10" stroke="rgb(52,15,58)" stroke-opacity="1" stroke-width="8" d=" M-92.63300323486328,-158.71800231933594 C-92.63300323486328,-158.71800231933594 -120.30599975585938,-159.96800231933594 -158.57699584960938,-177.89700317382812 C-190.02000427246094,-192.6269989013672 -204.80299377441406,-201.16000366210938 -207.28500366210938,-199.90699768066406 C-215.1750030517578,-195.92300415039062 -215.1580047607422,-107.74800109863281 -168.29100036621094,-82.73699951171875 C-121.42400360107422,-57.72600173950195 -64.3550033569336,-149.78900146484375 -92.63300323486328,-158.71800231933594z"></path></g></g></g><g style="display: block;" transform="matrix(1,0,0,1,256,256)" opacity="1"><g opacity="0.1" transform="matrix(1,0,0,1,0,0)"><path fill="rgb(0,0,0)" fill-opacity="1" d=" M195.92300415039062,20.781999588012695 C195.92300415039062,129.04299926757812 108.15899658203125,216.80599975585938 -0.10199999809265137,216.80599975585938 C-108.36299896240234,216.80599975585938 -196.12600708007812,129.04299926757812 -196.12600708007812,20.781999588012695 C-196.12600708007812,-87.47899627685547 -108.36299896240234,-175.2429962158203 -0.10199999809265137,-175.2429962158203 C108.15899658203125,-175.2429962158203 195.92300415039062,-87.47899627685547 195.92300415039062,20.781999588012695z"></path></g><g opacity="1" transform="matrix(1,0,0,1,0,0)"><path fill="rgb(107,18,126)" fill-opacity="1" d=" M188.7740020751953,5.7820000648498535 C188.7740020751953,110.09500122070312 104.21099853515625,194.65699768066406 -0.10199999809265137,194.65699768066406 C-104.41500091552734,194.65699768066406 -188.9770050048828,110.09500122070312 -188.9770050048828,5.7820000648498535 C-188.9770050048828,-98.53099822998047 -104.41500091552734,-183.093994140625 -0.10199999809265137,-183.093994140625 C104.21099853515625,-183.093994140625 188.7740020751953,-98.53099822998047 188.7740020751953,5.7820000648498535z"></path><path stroke-linecap="butt" stroke-linejoin="miter" fill-opacity="0" stroke-miterlimit="10" stroke="rgb(52,15,58)" stroke-opacity="1" stroke-width="8" d=" M188.7740020751953,5.7820000648498535 C188.7740020751953,110.09500122070312 104.21099853515625,194.65699768066406 -0.10199999809265137,194.65699768066406 C-104.41500091552734,194.65699768066406 -188.9770050048828,110.09500122070312 -188.9770050048828,5.7820000648498535 C-188.9770050048828,-98.53099822998047 -104.41500091552734,-183.093994140625 -0.10199999809265137,-183.093994140625 C104.21099853515625,-183.093994140625 188.7740020751953,-98.53099822998047 188.7740020751953,5.7820000648498535z"></path></g><g opacity="1" transform="matrix(1,0,0,1,0,0)"><path fill="url(#__lottie_element_20693)" fill-opacity="1" d=" M168.30499267578125,9.494000434875488 C166.8489990234375,104.52200317382812 90.29499816894531,180.4029998779297 -2.683000087738037,178.97799682617188 C-95.66100311279297,177.55299377441406 -169.85400390625,99.36199951171875 -168.39700317382812,4.333000183105469 C-166.9409942626953,-90.69599914550781 -90.38700103759766,-166.5749969482422 2.5910000801086426,-165.14999389648438 C95.56900024414062,-163.72500610351562 169.76199340820312,-85.53500366210938 168.30499267578125,9.494000434875488z"></path></g><g opacity="0.5" transform="matrix(1,0,0,1,0,0)"><path fill="rgb(197,103,219)" fill-opacity="1" d=" M149.16600036621094,-36.64699935913086 C149.16600036621094,35.99599838256836 82.33599853515625,-21.468000411987305 -0.10199999809265137,-21.468000411987305 C-82.54000091552734,-21.468000411987305 -149.36900329589844,35.99599838256836 -149.36900329589844,-36.64699935913086 C-149.36900329589844,-109.29000091552734 -82.54000091552734,-168.1790008544922 -0.10199999809265137,-168.1790008544922 C82.33599853515625,-168.1790008544922 149.16600036621094,-109.29000091552734 149.16600036621094,-36.64699935913086z"></path></g><g opacity="1" transform="matrix(1,0,0,1,0,0)"><g opacity="1" transform="matrix(1,0,0,1,0,0)"><path stroke-linecap="round" stroke-linejoin="round" fill-opacity="0" stroke="rgb(255,255,255)" stroke-opacity="1" stroke-width="6" d=" M36.270999908447266,-163.9600067138672 C37.808998107910156,-163.625 39.40399932861328,-163.2550048828125 41.04899978637695,-162.8489990234375"></path></g><g opacity="1" transform="matrix(1,0,0,1,0,0)"><path stroke-linecap="round" stroke-linejoin="round" fill-opacity="0" stroke="rgb(255,255,255)" stroke-opacity="1" stroke-width="6" d=" M14.916999816894531,-167.1790008544922 C14.916999816894531,-167.1790008544922 19.784000396728516,-166.91900634765625 27.506999969482422,-165.64100646972656"></path></g></g></g><g style="display: none;"><g><g><path></path></g><g><path></path></g><g><path stroke-linecap="round" stroke-linejoin="round" fill-opacity="0"></path></g></g><g><g><path></path></g><g><path></path></g><g><path stroke-linecap="round" stroke-linejoin="round" fill-opacity="0"></path></g></g></g><g style="display: block;" transform="matrix(1,0,0,1,256,256)" opacity="1"><g opacity="1" transform="matrix(1,0,0,1,0.017000198364257812,-0.24900054931640625)"><path fill="rgb(166,62,185)" fill-opacity="1" d=" M97.16699981689453,-13.026000022888184 C89.75,-18.75 53.77299880981445,-16.795000076293945 37.492000579833984,-2.1389999389648438 C14.307000160217285,18.732999801635742 21.514999389648438,32.35200119018555 26.62299919128418,28.136999130249023 C31.73200035095215,23.922000885009766 48.97100067138672,5.769999980926514 77.17500305175781,-0.06199999898672104 C84.73200225830078,-1.625 90.24800109863281,-1.8969999551773071 94.35600280761719,-3.13100004196167 C99.78299713134766,-4.761000156402588 100.78199768066406,-10.236000061035156 97.16699981689453,-13.026000022888184z"></path></g><g opacity="1" transform="matrix(1,0,0,1,0,0)"><path fill="rgb(166,62,185)" fill-opacity="1" d=" M-97.37999725341797,-13.026000022888184 C-90.01300048828125,-18.093000411987305 -53.98699951171875,-16.795000076293945 -37.70600128173828,-2.1389999389648438 C-14.520999908447266,18.732999801635742 -21.72800064086914,32.35200119018555 -26.836999893188477,28.136999130249023 C-31.94499969482422,23.922000885009766 -49.185001373291016,5.769999980926514 -77.38899993896484,-0.06199999898672104 C-84.94599914550781,-1.625 -90.46199798583984,-1.8969999551773071 -94.56999969482422,-3.13100004196167 C-99.99600219726562,-4.761000156402588 -101.14199829101562,-10.437999725341797 -97.37999725341797,-13.026000022888184z"></path></g></g><g style="display: block;" transform="matrix(1,0,0,1,256,256)" opacity="1"><g opacity="1" transform="matrix(1,0,0,1,0,0)"><g opacity="1" transform="matrix(1,0,0,1,0,0)"><path fill="rgb(223,156,239)" fill-opacity="1" d=" M43.73099899291992,120.46199798583984 C32.40599822998047,108.28800201416016 -34.3650016784668,108.28800201416016 -45.689998626708984,120.46199798583984 C-55.97600173950195,131.5189971923828 -56.77199935913086,141.7469940185547 -53.42900085449219,143.0330047607422 C-49.23099899291992,144.6479949951172 -30.898000717163086,125.89800262451172 -1,125.57599639892578 C28.898000717163086,125.89800262451172 47.23099899291992,144.6479949951172 51.42900085449219,143.0330047607422 C54.77199935913086,141.7469940185547 54.016998291015625,131.5189971923828 43.73099899291992,120.46199798583984z"></path></g><g opacity="1" transform="matrix(1,0,0,1,0,0)"><path fill="rgb(166,62,185)" fill-opacity="1" d=" M40.65700149536133,110.3759994506836 C29.332000732421875,98.2020034790039 13.710000038146973,88.48999786376953 -1,88.48999786376953 C-15.732999801635742,88.48999786376953 -31.332000732421875,98.2020034790039 -42.65700149536133,110.3759994506836 C-52.94300079345703,121.43299865722656 -56.77199935913086,137.75999450683594 -53.42900085449219,139.04600524902344 C-32.5,116.76799774169922 6.25,96.25 51.42900085449219,139.04600524902344 C54.77199935913086,137.75999450683594 50.94300079345703,121.43299865722656 40.65700149536133,110.3759994506836z"></path></g><g opacity="1" transform="matrix(1,0,0,1,0,0)"><path fill="rgb(56,0,73)" fill-opacity="1" d=" M40.65700149536133,116.3759994506836 C29.332000732421875,104.2020034790039 13.710000038146973,94.48999786376953 -1,94.48999786376953 C-15.732999801635742,94.48999786376953 -31.332000732421875,104.2020034790039 -42.65700149536133,116.3759994506836 C-52.94300079345703,127.43299865722656 -56.77199935913086,137.66099548339844 -53.42900085449219,138.94700622558594 C-49.23099899291992,140.56199645996094 -30.898000717163086,121.81199645996094 -1,121.48999786376953 C28.898000717163086,121.81199645996094 47.23099899291992,140.56199645996094 51.42900085449219,138.94700622558594 C54.77199935913086,137.66099548339844 50.94300079345703,127.43299865722656 40.65700149536133,116.3759994506836z"></path></g><g opacity="1" transform="matrix(1,0,0,1,0,0)"><path fill="rgb(24,0,33)" fill-opacity="1" d=" M51.8120002746582,138.73199462890625 C43.25,118.5 17.499000549316406,101.17400360107422 -0.9980000257492065,101.27200317382812 C-20.5,101.375 -47.375,119.875 -53.80799865722656,138.73199462890625 C-56.4379997253418,136.802001953125 -52.518001556396484,126.97200012207031 -42.65800094604492,116.37200164794922 C-31.327999114990234,104.2020034790039 -15.73799991607666,94.49199676513672 -0.9980000257492065,94.49199676513672 C13.711999893188477,94.49199676513672 29.332000732421875,104.2020034790039 40.652000427246094,116.37200164794922 C50.512001037597656,126.97200012207031 54.44200134277344,136.802001953125 51.8120002746582,138.73199462890625z"></path></g></g></g><g style="display: block;" transform="matrix(1,0,0,1,256,256)" opacity="1"><g opacity="1" transform="matrix(1,0,0,1,0,0)"><g opacity="1" transform="matrix(1,0,0,1,0,0)"><path fill="rgb(166,62,185)" fill-opacity="1" d=" M-28.20800018310547,33.79399871826172 C-28.20800018310547,50.665000915527344 -37.83000183105469,64.34100341796875 -49.69900131225586,64.34100341796875 C-61.56800079345703,64.34100341796875 -71.19100189208984,50.665000915527344 -71.19100189208984,33.79399871826172 C-71.19100189208984,16.92300033569336 -61.56800079345703,3.246000051498413 -49.69900131225586,3.246000051498413 C-37.83000183105469,3.246000051498413 -28.20800018310547,16.92300033569336 -28.20800018310547,33.79399871826172z"></path></g><g opacity="1" transform="matrix(1,0,0,1,0,0)"><path fill="rgb(223,156,239)" fill-opacity="1" d=" M-28.20800018310547,44.775001525878906 C-28.20800018310547,61.645999908447266 -37.83000183105469,75.3219985961914 -49.69900131225586,75.3219985961914 C-61.56800079345703,75.3219985961914 -71.19100189208984,61.645999908447266 -71.19100189208984,44.775001525878906 C-71.19100189208984,27.90399932861328 -61.56800079345703,14.22700023651123 -49.69900131225586,14.22700023651123 C-37.83000183105469,14.22700023651123 -28.20800018310547,27.90399932861328 -28.20800018310547,44.775001525878906z"></path></g><g opacity="1" transform="matrix(1,0,0,1,0,0)"><path fill="rgb(56,0,73)" fill-opacity="1" d=" M-29.551000595092773,38.89799880981445 C-29.551000595092773,55.76900100708008 -38.571998596191406,69.44599914550781 -49.69900131225586,69.44599914550781 C-60.82699966430664,69.44599914550781 -69.84700012207031,55.76900100708008 -69.84700012207031,38.89799880981445 C-69.84700012207031,22.027000427246094 -60.82699966430664,8.350000381469727 -49.69900131225586,8.350000381469727 C-38.571998596191406,8.350000381469727 -29.551000595092773,22.027000427246094 -29.551000595092773,38.89799880981445z"></path></g><g opacity="1" transform="matrix(1,0,0,1,0,0)"><path fill="rgb(24,0,33)" fill-opacity="1" d=" M-29.55500030517578,38.89899826049805 C-29.55500030517578,55.77299880981445 -38.56800079345703,69.44499969482422 -49.69599914550781,69.44499969482422 C-60.823001861572266,69.44499969482422 -69.84600067138672,55.77299880981445 -69.84600067138672,38.89899826049805 C-69.84600067138672,29.492000579833984 -67.0459976196289,21.082000732421875 -62.6349983215332,15.482000350952148 C-65.85600280761719,20.295000076293945 -67.83300018310547,26.884000778198242 -67.83300018310547,34.159000396728516 C-67.83300018310547,48.91899871826172 -59.67100143432617,61.79399871826172 -49.60499954223633,61.79399871826172 C-39.53900146484375,61.79399871826172 -31.385000228881836,48.91899871826172 -31.385000228881836,34.159000396728516 C-31.385000228881836,27.698999404907227 -32.95000076293945,21.78700065612793 -35.540000915527344,17.166000366210938 C-31.843000411987305,22.70199966430664 -29.55500030517578,30.398000717163086 -29.55500030517578,38.89899826049805z"></path></g></g><g opacity="1" transform="matrix(1,0,0,1,0,0)"><g opacity="1" transform="matrix(1,0,0,1,0,0)"><path fill="rgb(166,62,185)" fill-opacity="1" d=" M70.98699951171875,33.79399871826172 C70.98699951171875,50.665000915527344 61.36399841308594,64.34100341796875 49.494998931884766,64.34100341796875 C37.625999450683594,64.34100341796875 28.003999710083008,50.665000915527344 28.003999710083008,33.79399871826172 C28.003999710083008,16.92300033569336 37.625999450683594,3.246000051498413 49.494998931884766,3.246000051498413 C61.36399841308594,3.246000051498413 70.98699951171875,16.92300033569336 70.98699951171875,33.79399871826172z"></path></g><g opacity="1" transform="matrix(1,0,0,1,0,0)"><path fill="rgb(223,156,239)" fill-opacity="1" d=" M70.98699951171875,44.775001525878906 C70.98699951171875,61.645999908447266 61.36399841308594,75.3219985961914 49.494998931884766,75.3219985961914 C37.625999450683594,75.3219985961914 28.003999710083008,61.645999908447266 28.003999710083008,44.775001525878906 C28.003999710083008,27.90399932861328 37.625999450683594,14.22700023651123 49.494998931884766,14.22700023651123 C61.36399841308594,14.22700023651123 70.98699951171875,27.90399932861328 70.98699951171875,44.775001525878906z"></path></g><g opacity="1" transform="matrix(1,0,0,1,0,0)"><path fill="rgb(56,0,73)" fill-opacity="1" d=" M69.64299774169922,38.89799880981445 C69.64299774169922,55.76900100708008 60.62200164794922,69.44599914550781 49.494998931884766,69.44599914550781 C38.367000579833984,69.44599914550781 29.347000122070312,55.76900100708008 29.347000122070312,38.89799880981445 C29.347000122070312,22.027000427246094 38.367000579833984,8.350000381469727 49.494998931884766,8.350000381469727 C60.62200164794922,8.350000381469727 69.64299774169922,22.027000427246094 69.64299774169922,38.89799880981445z"></path></g><g opacity="1" transform="matrix(1,0,0,1,0,0)"><path fill="rgb(24,0,33)" fill-opacity="1" d=" M29.349000930786133,38.89899826049805 C29.349000930786133,55.77299880981445 38.36199951171875,69.44499969482422 49.4900016784668,69.44499969482422 C60.617000579833984,69.44499969482422 69.63999938964844,55.77299880981445 69.63999938964844,38.89899826049805 C69.63999938964844,29.492000579833984 66.83999633789062,21.082000732421875 62.42900085449219,15.482000350952148 C65.6500015258789,20.295000076293945 67.62699890136719,26.884000778198242 67.62699890136719,34.159000396728516 C67.62699890136719,48.91899871826172 59.4640007019043,61.79399871826172 49.39799880981445,61.79399871826172 C39.332000732421875,61.79399871826172 31.179000854492188,48.91899871826172 31.179000854492188,34.159000396728516 C31.179000854492188,27.698999404907227 32.74399948120117,21.78700065612793 35.33399963378906,17.166000366210938 C31.636999130249023,22.70199966430664 29.349000930786133,30.398000717163086 29.349000930786133,38.89899826049805z"></path></g></g></g><g style="display: block;" transform="matrix(1,0,0,1,256,256)" opacity="1"><g opacity="1" transform="matrix(1,0,0,1,0,0)"><g opacity="1" transform="matrix(1,0,0,1,0,0)"><g opacity="1" transform="matrix(1,0,0,1,0,0)"><path fill="rgb(56,0,73)" fill-opacity="1" d=" M96.2509994506836,-14.857000350952148 C95.09300231933594,-16.052000045776367 91.83999633789062,-17.65399932861328 89.0009994506836,-18.297000885009766 C76.6989974975586,-21.08300018310547 55.03900146484375,-18.625 38.757999420166016,-3.9690001010894775 C15.572999954223633,16.902999877929688 20.600000381469727,28.691999435424805 25.70800018310547,24.476999282836914 C30.816999435424805,20.261999130249023 48.055999755859375,2.1089999675750732 76.26000213623047,-3.7230000495910645 C83.81700134277344,-5.285999774932861 89.33300018310547,-5.558000087738037 93.44100189208984,-6.791999816894531 C98.86699676513672,-8.42199993133545 99.42900085449219,-11.57800006866455 96.2509994506836,-14.857000350952148z"></path></g><g opacity="1" transform="matrix(1,0,0,1,0,0)"><path fill="rgb(24,0,33)" fill-opacity="1" d=" M97.51499938964844,-9.14799976348877 C96.14600372314453,-10.520999908447266 92.75599670410156,-12.322999954223633 89.91899871826172,-12.96399974822998 C77.61100006103516,-15.746000289916992 55.95199966430664,-13.293000221252441 39.67300033569336,1.3669999837875366 C28.125,11.76200008392334 23.576000213623047,19.9060001373291 22.551000595092773,24.93899917602539 C19.777999877929688,22.81599998474121 20.875999450683594,12.128000259399414 38.75699996948242,-3.9679999351501465 C55.0359992980957,-18.628000259399414 76.69599914550781,-21.079999923706055 89.00399780273438,-18.29800033569336 C91.84100341796875,-17.656999588012695 95.08999633789062,-16.04800033569336 96.25199890136719,-14.857999801635742 C98.25599670410156,-12.789999961853027 98.77799987792969,-10.767999649047852 97.51499938964844,-9.14799976348877z"></path></g></g></g><g opacity="1" transform="matrix(1,0,0,1,0,0)"><g opacity="1" transform="matrix(1,0,0,1,0,0)"><g opacity="1" transform="matrix(1,0,0,1,0,0)"><path fill="rgb(56,0,73)" fill-opacity="1" d=" M-96.46499633789062,-14.857000350952148 C-95.30699920654297,-16.052000045776367 -92.05400085449219,-17.65399932861328 -89.21499633789062,-18.297000885009766 C-76.91300201416016,-21.08300018310547 -55.25299835205078,-18.625 -38.97200012207031,-3.9690001010894775 C-15.786999702453613,16.902999877929688 -20.812999725341797,28.691999435424805 -25.92099952697754,24.476999282836914 C-31.02899932861328,20.261999130249023 -48.27000045776367,2.1089999675750732 -76.4739990234375,-3.7230000495910645 C-84.03099822998047,-5.285999774932861 -89.5469970703125,-5.558000087738037 -93.65499877929688,-6.791999816894531 C-99.08200073242188,-8.42199993133545 -99.64299774169922,-11.57800006866455 -96.46499633789062,-14.857000350952148z"></path></g><g opacity="1" transform="matrix(1,0,0,1,0,0)"><path fill="rgb(24,0,33)" fill-opacity="1" d=" M-97.72799682617188,-9.14799976348877 C-95.96800231933594,-10.562999725341797 -92.97000122070312,-12.322999954223633 -90.13300323486328,-12.96399974822998 C-77.82499694824219,-15.746000289916992 -56.165000915527344,-13.293000221252441 -39.88600158691406,1.3669999837875366 C-28.33799934387207,11.76200008392334 -23.790000915527344,19.9060001373291 -22.764999389648438,24.93899917602539 C-19.992000579833984,22.81599998474121 -21.09000015258789,12.128000259399414 -38.97100067138672,-3.9679999351501465 C-55.25,-18.628000259399414 -76.91000366210938,-21.079999923706055 -89.21800231933594,-18.29800033569336 C-92.05500030517578,-17.656999588012695 -95.30400085449219,-16.04800033569336 -96.46600341796875,-14.857999801635742 C-98.47000122070312,-12.789999961853027 -98.99099731445312,-10.767999649047852 -97.72799682617188,-9.14799976348877z"></path></g></g></g></g></g></svg>