<svg xmlns="http://www.w3.org/2000/svg" viewBox="0 0 432 464" width="432" height="464" style="width: 100%; height: 100%; transform: translate3d(0,0,0);" preserveAspectRatio="xMidYMid meet"><defs><clipPath id="__lottie_element_2884"><rect width="432" height="464" x="0" y="0"></rect></clipPath></defs><g clip-path="url(#__lottie_element_2884)"><g style="display: block;" transform="matrix(1,0,0,1,216,234)" opacity="1"><g opacity="0.1" transform="matrix(1,0,0,1,0,0)"><path fill="rgb(0,0,0)" fill-opacity="1" d=" M196.02499389648438,3.924999952316284 C196.02499389648438,112.18599700927734 108.26100158691406,199.9499969482422 0,199.9499969482422 C-108.26100158691406,199.9499969482422 -196.02499389648438,112.18599700927734 -196.02499389648438,3.924999952316284 C-196.02499389648438,-104.33599853515625 -108.26100158691406,-192.0989990234375 0,-192.0989990234375 C108.26100158691406,-192.0989990234375 196.02499389648438,-104.33599853515625 196.02499389648438,3.924999952316284z"></path></g><g opacity="1" transform="matrix(1,0,0,1,0,0)"><path fill="rgb(255,177,57)" fill-opacity="1" d=" M188.875,-11.074999809265137 C188.875,93.23799896240234 104.31300354003906,177.80099487304688 0,177.80099487304688 C-104.31300354003906,177.80099487304688 -188.875,93.23799896240234 -188.875,-11.074999809265137 C-188.875,-115.38800048828125 -104.31300354003906,-199.9499969482422 0,-199.9499969482422 C104.31300354003906,-199.9499969482422 188.875,-115.38800048828125 188.875,-11.074999809265137z"></path><path stroke-linecap="butt" stroke-linejoin="miter" fill-opacity="0" stroke-miterlimit="10" stroke="rgb(247,126,65)" stroke-opacity="1" stroke-width="8" d=" M188.875,-11.074999809265137 C188.875,93.23799896240234 104.31300354003906,177.80099487304688 0,177.80099487304688 C-104.31300354003906,177.80099487304688 -188.875,93.23799896240234 -188.875,-11.074999809265137 C-188.875,-115.38800048828125 -104.31300354003906,-199.9499969482422 0,-199.9499969482422 C104.31300354003906,-199.9499969482422 188.875,-115.38800048828125 188.875,-11.074999809265137z"></path></g><g opacity="1" transform="matrix(1,0,0,1,0,0)"><path fill="rgb(255,209,64)" fill-opacity="1" d=" M168.40699768066406,-10.362000465393066 C166.9499969482422,84.66699981689453 90.39600372314453,160.5469970703125 -2.5820000171661377,159.1219940185547 C-95.55999755859375,157.69700622558594 -169.7530059814453,79.50499725341797 -168.29600524902344,-15.52299976348877 C-166.83900451660156,-110.552001953125 -90.28500366210938,-186.4320068359375 2.693000078201294,-185.0070037841797 C95.6709976196289,-183.58200073242188 169.86399841308594,-105.39099884033203 168.40699768066406,-10.362000465393066z"></path></g><g opacity="0.9" transform="matrix(1,0,0,1,0,0)"><path fill="rgb(255,223,121)" fill-opacity="1" d=" M149.26699829101562,-53.50299835205078 C149.26699829101562,19.139999389648438 82.43800354003906,-38.32500076293945 0,-38.32500076293945 C-82.43800354003906,-38.32500076293945 -149.26699829101562,19.139999389648438 -149.26699829101562,-53.50299835205078 C-149.26699829101562,-126.14600372314453 -82.43800354003906,-185.03599548339844 0,-185.03599548339844 C82.43800354003906,-185.03599548339844 149.26699829101562,-126.14600372314453 149.26699829101562,-53.50299835205078z"></path></g><g opacity="1" transform="matrix(1,0,0,1,0,0)"><g opacity="1" transform="matrix(1,0,0,1,0,0)"><path stroke-linecap="round" stroke-linejoin="round" fill-opacity="0" stroke="rgb(255,255,255)" stroke-opacity="1" stroke-width="6" d=" M36.37300109863281,-180.8159942626953 C37.9109992980957,-180.4810028076172 39.50600051879883,-180.11199951171875 41.150001525878906,-179.70599365234375"></path></g><g opacity="1" transform="matrix(1,0,0,1,0,0)"><path stroke-linecap="round" stroke-linejoin="round" fill-opacity="0" stroke="rgb(255,255,255)" stroke-opacity="1" stroke-width="6" d=" M15.017999649047852,-184.03599548339844 C15.017999649047852,-184.03599548339844 19.885000228881836,-183.77499389648438 27.607999801635742,-182.4969940185547"></path></g></g></g><g style="display: block;" transform="matrix(1,0,0,1,216,234)" opacity="1"><g opacity="1" transform="matrix(1,0,0,1,0,0)"><path fill="rgb(255,226,166)" fill-opacity="1" d=" M-50.422000885009766,-14.520999908447266 C-50.422000885009766,3.3369998931884766 -61.064998626708984,17.812999725341797 -74.19400024414062,17.812999725341797 C-87.322998046875,17.812999725341797 -97.96499633789062,3.3369998931884766 -97.96499633789062,-14.520999908447266 C-97.96499633789062,-32.37900161743164 -87.322998046875,-46.85599899291992 -74.19400024414062,-46.85599899291992 C-61.064998626708984,-46.85599899291992 -50.422000885009766,-32.37900161743164 -50.422000885009766,-14.520999908447266z"></path></g><g opacity="1" transform="matrix(1,0,0,1,0,0)"><path fill="rgb(255,177,57)" fill-opacity="1" d=" M-50.422000885009766,-17.850000381469727 C-50.422000885009766,-1.8300000429153442 -61.064998626708984,11.156000137329102 -74.19400024414062,11.156000137329102 C-87.322998046875,11.156000137329102 -97.96499633789062,-1.8300000429153442 -97.96499633789062,-17.850000381469727 C-97.96499633789062,-33.869998931884766 -87.322998046875,-46.85599899291992 -74.19400024414062,-46.85599899291992 C-61.064998626708984,-46.85599899291992 -50.422000885009766,-33.869998931884766 -50.422000885009766,-17.850000381469727z"></path></g><g opacity="1" transform="matrix(1,0,0,1,0,0)"><path fill="rgb(134,63,20)" fill-opacity="1" d=" M-52.33599853515625,-14.663999557495117 C-52.33599853515625,0.43299999833106995 -62.12300109863281,12.670999526977539 -74.19400024414062,12.670999526977539 C-86.26499938964844,12.670999526977539 -96.0510025024414,0.43299999833106995 -96.0510025024414,-14.663999557495117 C-96.0510025024414,-29.76099967956543 -86.26499938964844,-41.999000549316406 -74.19400024414062,-41.999000549316406 C-62.12300109863281,-41.999000549316406 -52.33599853515625,-29.76099967956543 -52.33599853515625,-14.663999557495117z"></path></g><g opacity="1" transform="matrix(1,0,0,1,0,0)"><path fill="rgb(107,32,0)" fill-opacity="1" d=" M-52.33399963378906,-14.659000396728516 C-52.33399963378906,-13.458999633789062 -52.39400100708008,-12.279000282287598 -52.52399826049805,-11.119000434875488 C-53.90399932861328,-24.548999786376953 -63.08399963378906,-34.92900085449219 -74.19400024414062,-34.92900085449219 C-85.30400085449219,-34.92900085449219 -94.48300170898438,-24.548999786376953 -95.86299896240234,-11.119000434875488 C-95.99299621582031,-12.279000282287598 -96.0530014038086,-13.458999633789062 -96.0530014038086,-14.659000396728516 C-96.0530014038086,-29.759000778198242 -86.26399993896484,-41.999000549316406 -74.19400024414062,-41.999000549316406 C-62.124000549316406,-41.999000549316406 -52.33399963378906,-29.759000778198242 -52.33399963378906,-14.659000396728516z"></path></g></g><g style="display: block;" transform="matrix(1,0,0,1,365.5,234)" opacity="1"><g opacity="1" transform="matrix(1,0,0,1,0,0)"><path fill="rgb(255,226,166)" fill-opacity="1" d=" M-50.422000885009766,-14.520999908447266 C-50.422000885009766,3.3369998931884766 -61.064998626708984,17.812999725341797 -74.19400024414062,17.812999725341797 C-87.322998046875,17.812999725341797 -97.96499633789062,3.3369998931884766 -97.96499633789062,-14.520999908447266 C-97.96499633789062,-32.37900161743164 -87.322998046875,-46.85599899291992 -74.19400024414062,-46.85599899291992 C-61.064998626708984,-46.85599899291992 -50.422000885009766,-32.37900161743164 -50.422000885009766,-14.520999908447266z"></path></g><g opacity="1" transform="matrix(1,0,0,1,0,0)"><path fill="rgb(255,177,57)" fill-opacity="1" d=" M-50.422000885009766,-17.850000381469727 C-50.422000885009766,-1.8300000429153442 -61.064998626708984,11.156000137329102 -74.19400024414062,11.156000137329102 C-87.322998046875,11.156000137329102 -97.96499633789062,-1.8300000429153442 -97.96499633789062,-17.850000381469727 C-97.96499633789062,-33.869998931884766 -87.322998046875,-46.85599899291992 -74.19400024414062,-46.85599899291992 C-61.064998626708984,-46.85599899291992 -50.422000885009766,-33.869998931884766 -50.422000885009766,-17.850000381469727z"></path></g><g opacity="1" transform="matrix(1,0,0,1,0,0)"><path fill="rgb(134,63,20)" fill-opacity="1" d=" M-52.33599853515625,-14.663999557495117 C-52.33599853515625,0.43299999833106995 -62.12300109863281,12.670999526977539 -74.19400024414062,12.670999526977539 C-86.26499938964844,12.670999526977539 -96.0510025024414,0.43299999833106995 -96.0510025024414,-14.663999557495117 C-96.0510025024414,-29.76099967956543 -86.26499938964844,-41.999000549316406 -74.19400024414062,-41.999000549316406 C-62.12300109863281,-41.999000549316406 -52.33599853515625,-29.76099967956543 -52.33599853515625,-14.663999557495117z"></path></g><g opacity="1" transform="matrix(1,0,0,1,0,0)"><path fill="rgb(107,32,0)" fill-opacity="1" d=" M-52.33399963378906,-14.659000396728516 C-52.33399963378906,-13.458999633789062 -52.39400100708008,-12.279000282287598 -52.52399826049805,-11.119000434875488 C-53.90399932861328,-24.548999786376953 -63.08399963378906,-34.92900085449219 -74.19400024414062,-34.92900085449219 C-85.30400085449219,-34.92900085449219 -94.48300170898438,-24.548999786376953 -95.86299896240234,-11.119000434875488 C-95.99299621582031,-12.279000282287598 -96.0530014038086,-13.458999633789062 -96.0530014038086,-14.659000396728516 C-96.0530014038086,-29.759000778198242 -86.26399993896484,-41.999000549316406 -74.19400024414062,-41.999000549316406 C-62.124000549316406,-41.999000549316406 -52.33399963378906,-29.759000778198242 -52.33399963378906,-14.659000396728516z"></path></g></g><g style="display: block;" transform="matrix(1,0,0,1,216,234)" opacity="1"><g opacity="1" transform="matrix(1,0,0,1,0,0)"><path fill="rgb(255,177,57)" fill-opacity="1" d=" M64.11799621582031,92.03700256347656 C53.57400131225586,68.6449966430664 30.934999465942383,50.52799987792969 0.382999986410141,50.52799987792969 C-31.26099967956543,50.52799987792969 -52.51100158691406,68.72100067138672 -63.02000045776367,92.03700256347656 C-71.35700225830078,110.53299713134766 -57.064998626708984,124.38099670410156 -42.64099884033203,120.1449966430664 C-28.27400016784668,115.9260025024414 -14.85200023651123,113.4000015258789 0.5490000247955322,113.4000015258789 C15.949999809265137,113.4000015258789 29.371999740600586,115.9260025024414 43.73899841308594,120.1449966430664 C58.16299819946289,124.38099670410156 72.45500183105469,110.53299713134766 64.11799621582031,92.03700256347656z"></path></g><g opacity="1" transform="matrix(1,0,0,1,0,0)"><path fill="rgb(255,226,166)" fill-opacity="1" d=" M64.11799621582031,96.95600128173828 C53.57400131225586,75.65499877929688 30.934999465942383,59.15599822998047 0.382999986410141,59.15599822998047 C-31.26099967956543,59.15599822998047 -52.51100158691406,75.7239990234375 -63.02000045776367,96.95600128173828 C-71.35700225830078,113.79900360107422 -57.064998626708984,127.4990005493164 -42.64099884033203,123.64199829101562 C-28.27400016784668,119.80000305175781 -14.85200023651123,117.4990005493164 0.5490000247955322,117.4990005493164 C15.949999809265137,117.4990005493164 29.371999740600586,119.80000305175781 43.73899841308594,123.64199829101562 C58.16299819946289,127.4990005493164 72.45500183105469,113.79900360107422 64.11799621582031,96.95600128173828z"></path></g><g opacity="1" transform="matrix(1,0,0,1,0,0)"><path fill="rgb(134,63,20)" fill-opacity="1" d=" M62.3129997253418,93.95600128173828 C52.069000244140625,72.65499877929688 30.07200050354004,56.15599822998047 0.3880000114440918,56.15599822998047 C-30.35700035095215,56.15599822998047 -51.00299835205078,72.7239990234375 -61.2140007019043,93.95600128173828 C-69.31400299072266,110.79900360107422 -55.428001403808594,122.4990005493164 -41.41400146484375,118.64199829101562 C-27.454999923706055,114.80000305175781 -14.413999557495117,112.4990005493164 0.5490000247955322,112.4990005493164 C15.51200008392334,112.4990005493164 28.55299949645996,114.80000305175781 42.512001037597656,118.64199829101562 C56.5260009765625,122.4990005493164 70.41300201416016,110.79900360107422 62.3129997253418,93.95600128173828z"></path></g><g opacity="1" transform="matrix(1,0,0,1,0,0)"><path fill="rgb(107,32,0)" fill-opacity="1" d=" M60.67300033569336,114.09100341796875 C61.472999572753906,110.31099700927734 61.01300048828125,105.82099914550781 58.78300094604492,100.9010009765625 C49.12300109863281,79.60099792480469 28.382999420166016,65.10099792480469 0.3930000066757202,65.10099792480469 C-28.586999893188477,65.10099792480469 -48.05699920654297,79.6709976196289 -57.6870002746582,100.9010009765625 C-59.91699981689453,105.82099914550781 -60.37699890136719,110.31099700927734 -59.57699966430664,114.09100341796875 C-63.81700134277344,109.54100036621094 -65.2770004272461,102.4010009765625 -61.21699905395508,93.96099853515625 C-51.00699996948242,72.72100067138672 -30.35700035095215,56.1609992980957 0.382999986410141,56.1609992980957 C30.072999954223633,56.1609992980957 52.073001861572266,72.6510009765625 62.3129997253418,93.96099853515625 C66.37300109863281,102.4010009765625 64.91300201416016,109.54100036621094 60.67300033569336,114.09100341796875z"></path></g></g><g style="display: block;" transform="matrix(1,0,0,1,216,234)" opacity="1"><g opacity="1" transform="matrix(1,0,0,1,0,0)"><g opacity="1" transform="matrix(1,0,0,1,0,0)"><path fill="rgb(255,238,189)" fill-opacity="1" d=" M54.52000045776367,-109.875 C55.637001037597656,-111.30999755859375 59.369998931884766,-113.15799713134766 62.37799835205078,-114.19100189208984 C75.41400146484375,-118.66899871826172 102.08799743652344,-114.43000030517578 121.50499725341797,-100.4280014038086 C149.156005859375,-80.48799896240234 141.87100219726562,-67.48100280761719 135.82400512695312,-71.45800018310547 C129.77699279785156,-75.43499755859375 108.90599822998047,-93.12200164794922 77.5770034790039,-96.13099670410156 C69.18199920654297,-96.93699645996094 63.15800094604492,-96.58200073242188 58.54899978637695,-97.43800354003906 C52.46099853515625,-98.56900024414062 51.45399856567383,-105.93800354003906 54.52000045776367,-109.875z"></path></g><g opacity="1" transform="matrix(1,0,0,1,0,0)"><path fill="rgb(134,63,20)" fill-opacity="1" d=" M55.03099822998047,-110.58999633789062 C56.14799880981445,-112.0250015258789 59.494998931884766,-114.1500015258789 62.50299835205078,-115.18299865722656 C75.53900146484375,-119.66100311279297 99.36000061035156,-119.5459976196289 118.7770004272461,-105.54399871826172 C146.42799377441406,-85.60399627685547 142.35800170898438,-72.2020034790039 136.31100463867188,-76.17900085449219 C130.26400756835938,-80.15599822998047 109.39299774169922,-97.84300231933594 78.06400299072266,-100.85199737548828 C69.66899871826172,-101.65799713134766 63.64500045776367,-101.3030014038086 59.0359992980957,-102.15899658203125 C52.948001861572266,-103.29000091552734 51.96500015258789,-106.65299987792969 55.03099822998047,-110.58999633789062z"></path></g></g><g opacity="1" transform="matrix(1,0,0,1,0,0)"><path fill="rgb(107,32,0)" fill-opacity="1" d=" M54.20500183105469,-104.3759994506836 C54.21900177001953,-104.40399932861328 54.24300003051758,-104.44200134277344 54.266998291015625,-104.46900177001953 C55.38399887084961,-105.9010009765625 58.724998474121094,-108.03099822998047 61.736000061035156,-109.05400085449219 C74.76499938964844,-113.53700256347656 98.59600067138672,-113.41999816894531 118.00499725341797,-99.42500305175781 C131.83999633789062,-89.44499969482422 137.72799682617188,-81.09700012207031 139.406005859375,-75.75700378417969 C142.73199462890625,-77.68800354003906 141.0189971923828,-89.50299835205078 118.77300262451172,-105.5469970703125 C99.36399841308594,-119.54199981689453 75.53399658203125,-119.65899658203125 62.50600051879883,-115.18599700927734 C59.49399948120117,-114.15299987792969 56.152000427246094,-112.02200317382812 55.03499984741211,-110.58999633789062 C53.150001525878906,-108.1760025024414 52.792999267578125,-105.9739990234375 54.20500183105469,-104.3759994506836z"></path></g></g><g style="display: block;" transform="matrix(1,0,0,1,216,234)" opacity="1"><g opacity="1" transform="matrix(1,0,0,1,0,0)"><g opacity="1" transform="matrix(1,0,0,1,0,0)"><path fill="rgb(255,238,189)" fill-opacity="1" d=" M-50.957000732421875,-109.875 C-52.07400131225586,-111.30999755859375 -55.805999755859375,-113.15799713134766 -58.81399917602539,-114.19100189208984 C-71.8499984741211,-118.66899871826172 -98.52400207519531,-114.43000030517578 -117.94100189208984,-100.4280014038086 C-145.5919952392578,-80.48799896240234 -138.30799865722656,-67.48100280761719 -132.26100158691406,-71.45800018310547 C-126.21399688720703,-75.43499755859375 -105.34200286865234,-93.12200164794922 -74.01300048828125,-96.13099670410156 C-65.61799621582031,-96.93699645996094 -59.59400177001953,-96.58200073242188 -54.98500061035156,-97.43800354003906 C-48.89699935913086,-98.56900024414062 -47.89099884033203,-105.93800354003906 -50.957000732421875,-109.875z"></path></g><g opacity="1" transform="matrix(1,0,0,1,0,0)"><path fill="rgb(134,63,20)" fill-opacity="1" d=" M-51.46799850463867,-110.58999633789062 C-52.584999084472656,-112.0250015258789 -55.930999755859375,-114.1500015258789 -58.93899917602539,-115.18299865722656 C-71.9749984741211,-119.66100311279297 -95.7969970703125,-119.5459976196289 -115.21399688720703,-105.54399871826172 C-142.86500549316406,-85.60399627685547 -138.7949981689453,-72.2020034790039 -132.7480010986328,-76.17900085449219 C-126.70099639892578,-80.15599822998047 -105.8290023803711,-97.84300231933594 -74.5,-100.85199737548828 C-66.1050033569336,-101.65799713134766 -60.08100128173828,-101.3030014038086 -55.47200012207031,-102.15899658203125 C-49.38399887084961,-103.29000091552734 -48.402000427246094,-106.65299987792969 -51.46799850463867,-110.58999633789062z"></path></g></g><g opacity="1" transform="matrix(1,0,0,1,0,0)"><path fill="rgb(107,32,0)" fill-opacity="1" d=" M-50.641998291015625,-104.3759994506836 C-50.65599822998047,-104.40399932861328 -50.68000030517578,-104.44200134277344 -50.70399856567383,-104.46900177001953 C-51.82099914550781,-105.9010009765625 -55.1619987487793,-108.03099822998047 -58.17300033569336,-109.05400085449219 C-71.2020034790039,-113.53700256347656 -95.03299713134766,-113.41999816894531 -114.44200134277344,-99.42500305175781 C-128.27699279785156,-89.44499969482422 -134.16400146484375,-81.09700012207031 -135.8419952392578,-75.75700378417969 C-139.16799926757812,-77.68800354003906 -137.45599365234375,-89.50299835205078 -115.20999908447266,-105.5469970703125 C-95.8010025024414,-119.54199981689453 -71.97000122070312,-119.65899658203125 -58.94200134277344,-115.18599700927734 C-55.93000030517578,-114.15299987792969 -52.5890007019043,-112.02200317382812 -51.47200012207031,-110.58999633789062 C-49.58700180053711,-108.1760025024414 -49.22999954223633,-105.9739990234375 -50.641998291015625,-104.3759994506836z"></path></g></g></g></svg>