<svg xmlns="http://www.w3.org/2000/svg" viewBox="0 0 512 512" width="512" height="512" style="width: 100%; height: 100%; transform: translate3d(0,0,0);" preserveAspectRatio="xMidYMid meet"><defs><clipPath id="__lottie_element_20866"><rect width="512" height="512" x="0" y="0"></rect></clipPath><linearGradient id="__lottie_element_20877" spreadMethod="pad" gradientUnits="userSpaceOnUse" x1="77.99600219726562" y1="-88.1989974975586" x2="73.19200134277344" y2="-129.49099731445312"><stop offset="0%" stop-color="rgb(255,191,44)"></stop><stop offset="50%" stop-color="rgb(242,150,42)"></stop><stop offset="100%" stop-color="rgb(229,110,39)"></stop></linearGradient><linearGradient id="__lottie_element_20881" spreadMethod="pad" gradientUnits="userSpaceOnUse" x1="-26.64299964904785" y1="-83" x2="-26.64299964904785" y2="-128.51400756835938"><stop offset="0%" stop-color="rgb(255,191,44)"></stop><stop offset="50%" stop-color="rgb(242,150,42)"></stop><stop offset="100%" stop-color="rgb(229,110,39)"></stop></linearGradient><linearGradient id="__lottie_element_20897" spreadMethod="pad" gradientUnits="userSpaceOnUse" x1="-107.64299774169922" y1="123" x2="-100.03099822998047" y2="90.5459976196289"><stop offset="0%" stop-color="rgb(239,174,89)"></stop><stop offset="71%" stop-color="rgb(176,120,61)"></stop><stop offset="100%" stop-color="rgb(114,66,33)"></stop></linearGradient><linearGradient id="__lottie_element_20898" spreadMethod="pad" gradientUnits="userSpaceOnUse" x1="-136.64300537109375" y1="130" x2="-129.031005859375" y2="80.31700134277344"><stop offset="0%" stop-color="rgb(239,174,89)"></stop><stop offset="71%" stop-color="rgb(176,120,61)"></stop><stop offset="100%" stop-color="rgb(114,66,33)"></stop></linearGradient><linearGradient id="__lottie_element_20899" spreadMethod="pad" gradientUnits="userSpaceOnUse" x1="-79.64299774169922" y1="70" x2="-72.00599670410156" y2="51.41600036621094"><stop offset="0%" stop-color="rgb(239,174,89)"></stop><stop offset="64%" stop-color="rgb(176,120,61)"></stop><stop offset="100%" stop-color="rgb(114,66,33)"></stop></linearGradient><linearGradient id="__lottie_element_20900" spreadMethod="pad" gradientUnits="userSpaceOnUse" x1="-109.64299774169922" y1="77" x2="-99.62699890136719" y2="53.76100158691406"><stop offset="0%" stop-color="rgb(239,174,89)"></stop><stop offset="71%" stop-color="rgb(176,120,61)"></stop><stop offset="100%" stop-color="rgb(114,66,33)"></stop></linearGradient></defs><g clip-path="url(#__lottie_element_20866)"><g style="display: block;" transform="matrix(1,0,0,1,269.99951171875,267.00048828125)" opacity="1"><g opacity="1" transform="matrix(1,0,0,1,0,0)"><path fill="rgb(86,46,30)" fill-opacity="1" d=" M-89.38999938964844,132.6649932861328 C-99.23699951171875,142.30799865722656 -110.93000030517578,155.12899780273438 -107.63899993896484,162.86900329589844 C-103.30699920654297,173.0570068359375 -68.0780029296875,175.91799926757812 -54.77399826049805,171.36700439453125 C-41.470001220703125,166.8159942626953 -39.720001220703125,140.9080047607422 -39.720001220703125,140.9080047607422 C-39.720001220703125,140.9080047607422 -89.38999938964844,132.6649932861328 -89.38999938964844,132.6649932861328z"></path></g><g opacity="0.2" transform="matrix(1,0,0,1,0,0)"><path fill="rgb(235,219,211)" fill-opacity="1" d=" M-69.77899932861328,173.4429931640625 C-85.2490005493164,173.7729949951172 -104.50900268554688,170.23300170898438 -107.63899993896484,162.8730010986328 C-110.92900085449219,155.13299560546875 -99.23899841308594,142.31300354003906 -89.38899993896484,132.66299438476562 C-89.38899993896484,132.66299438476562 -68.31900024414062,136.16299438476562 -68.31900024414062,136.16299438476562 C-68.31900024414062,136.16299438476562 -66.06900024414062,142.64300537109375 -66.06900024414062,142.64300537109375 C-66.06900024414062,142.64300537109375 -91.29100036621094,146.75 -91.29100036621094,146.75 C-91.29100036621094,146.75 -101.17900085449219,156.2830047607422 -98.12899780273438,161.5229949951172 C-95.0790023803711,166.7530059814453 -79.9990005493164,172.13299560546875 -69.77899932861328,173.4429931640625z"></path></g><g opacity="1" transform="matrix(1,0,0,1,0,0)"><path stroke-linecap="round" stroke-linejoin="round" fill-opacity="0" stroke="rgb(45,20,12)" stroke-opacity="1" stroke-width="8" d=" M-89.38999938964844,132.6649932861328 C-99.23699951171875,142.30799865722656 -110.93000030517578,155.12899780273438 -107.63899993896484,162.86900329589844 C-103.30699920654297,173.0570068359375 -68.0780029296875,175.91799926757812 -54.77399826049805,171.36700439453125 C-41.470001220703125,166.8159942626953 -39.720001220703125,140.9080047607422 -39.720001220703125,140.9080047607422 C-43.762001037597656,133.70599365234375 -82.06900024414062,129.47799682617188 -89.38999938964844,132.6649932861328z"></path></g></g><g style="display: block;" transform="matrix(1,0,0,1,270,267)" opacity="1"><g opacity="1" transform="matrix(1,0,0,1,0,0)"><path fill="rgb(45,38,37)" fill-opacity="1" d=" M86.34500122070312,192.44200134277344 C87.53199768066406,190.20599365234375 83.73500061035156,178.95399475097656 70.072998046875,182.20399475097656 C70.072998046875,182.20399475097656 73.15899658203125,193.18800354003906 73.15899658203125,193.18800354003906 C73.15899658203125,193.18800354003906 74.94999694824219,190.8000030517578 78.31099700927734,190.5229949951172 C84.36699676513672,190.0240020751953 85.64199829101562,193.76699829101562 86.34500122070312,192.44200134277344z"></path></g><g opacity="1" transform="matrix(1,0,0,1,0,0)"><path fill="rgb(92,84,83)" fill-opacity="1" d=" M82.59500122070312,186.69000244140625 C83.8290023803711,185.33200073242188 78.59600067138672,181.5989990234375 75.09500122070312,183.2760009765625 C73.4209976196289,184.0780029296875 77.70700073242188,184.41200256347656 79.38099670410156,185.35000610351562 C81.05500030517578,186.28799438476562 81.92500305175781,187.427001953125 82.59500122070312,186.69000244140625z"></path></g><g opacity="1" transform="matrix(1,0,0,1,0,0)"><path fill="rgb(183,161,146)" fill-opacity="1" d=" M19.048999786376953,186.85400390625 C19.048999786376953,186.85400390625 35.810001373291016,190.24099731445312 54.4379997253418,184.46200561523438 C65.72000122070312,180.96200561523438 71.58599853515625,185.43299865722656 71.58599853515625,194.95199584960938 C71.58599853515625,201.41000366210938 25.90999984741211,194.95199584960938 25.90999984741211,194.95199584960938"></path><path stroke-linecap="round" stroke-linejoin="round" fill-opacity="0" stroke="rgb(114,77,63)" stroke-opacity="1" stroke-width="8" d=" M19.048999786376953,186.85400390625 C19.048999786376953,186.85400390625 35.810001373291016,190.24099731445312 54.4379997253418,184.46200561523438 C65.72000122070312,180.96200561523438 71.58599853515625,185.43299865722656 71.58599853515625,194.95199584960938 C71.58599853515625,201.41000366210938 25.90999984741211,194.95199584960938 25.90999984741211,194.95199584960938"></path></g><g opacity="1" transform="matrix(1,0,0,1,0,0)"><path fill="rgb(107,81,67)" fill-opacity="1" d=" M4.4710001945495605,161.86900329589844 C4.4710001945495605,161.86900329589844 2.555999994277954,180.92100524902344 14.414999961853027,185.35000610351562 C30.867000579833984,191.49400329589844 40.7239990234375,186.7480010986328 46.91600036621094,188.697998046875 C53.547000885009766,190.78599548339844 57.91600036621094,202.5679931640625 49.30699920654297,204.75999450683594 C40.698001861572266,206.95199584960938 10.08899974822998,197.06700134277344 3.4709999561309814,196.95199584960938 C-3.1470000743865967,196.83700561523438 -25.167999267578125,211.33099365234375 -24.32699966430664,196.95199584960938 C-23.486000061035156,182.572998046875 -12.105999946594238,190.98800659179688 -8.180000305175781,181.97900390625 C-5.764999866485596,176.43600463867188 -8.180000305175781,160.5189971923828 -8.180000305175781,160.5189971923828 C-8.937000274658203,153.4709930419922 4.389999866485596,154.93699645996094 4.4710001945495605,161.86900329589844z"></path><path stroke-linecap="round" stroke-linejoin="round" fill-opacity="0" stroke="rgb(79,49,41)" stroke-opacity="1" stroke-width="8" d=" M4.4710001945495605,161.86900329589844 C4.4710001945495605,161.86900329589844 2.555999994277954,180.92100524902344 14.414999961853027,185.35000610351562 C30.867000579833984,191.49400329589844 40.7239990234375,186.7480010986328 46.91600036621094,188.697998046875 C53.547000885009766,190.78599548339844 57.91600036621094,202.5679931640625 49.30699920654297,204.75999450683594 C40.698001861572266,206.95199584960938 10.08899974822998,197.06700134277344 3.4709999561309814,196.95199584960938 C-3.1470000743865967,196.83700561523438 -25.167999267578125,211.33099365234375 -24.32699966430664,196.95199584960938 C-23.486000061035156,182.572998046875 -12.105999946594238,190.98800659179688 -8.180000305175781,181.97900390625 C-5.764999866485596,176.43600463867188 -8.180000305175781,160.5189971923828 -8.180000305175781,160.5189971923828 C-8.937000274658203,153.4709930419922 4.389999866485596,154.93699645996094 4.4710001945495605,161.86900329589844z"></path></g><g opacity="1" transform="matrix(1,0,0,1,0,0)"><path fill="rgb(209,185,169)" fill-opacity="1" d=" M3.4709999561309814,196.95199584960938 C10.08899974822998,197.06700134277344 40.698001861572266,206.95199584960938 49.30699920654297,204.75999450683594 C57.91600036621094,202.5679931640625 53.547000885009766,190.78599548339844 46.91600036621094,188.697998046875 C40.7239990234375,186.7480010986328 28.781999588012695,190.98800659179688 14.414999961853027,185.35000610351562 C14.414999961853027,185.35000610351562 3.4709999561309814,196.95199584960938 3.4709999561309814,196.95199584960938z"></path></g><g opacity="1" transform="matrix(1,0,0,1,0,0)"><path stroke-linecap="round" stroke-linejoin="round" fill-opacity="0" stroke="rgb(130,95,75)" stroke-opacity="1" stroke-width="8" d=" M3.4709999561309814,196.95199584960938 C10.08899974822998,197.06700134277344 40.698001861572266,206.95199584960938 49.30699920654297,204.75999450683594 C57.91600036621094,202.5679931640625 53.547000885009766,190.78599548339844 46.91600036621094,188.697998046875 C40.7239990234375,186.7480010986328 30.867000579833984,191.49400329589844 14.414999961853027,185.35000610351562"></path></g><g opacity="1" transform="matrix(1,0,0,1,0,0)"><path stroke-linecap="round" stroke-linejoin="round" fill-opacity="0" stroke="rgb(102,66,55)" stroke-opacity="1" stroke-width="8" d=" M3.4709999561309814,196.95199584960938 C10.08899974822998,197.06700134277344 40.698001861572266,206.95199584960938 49.30699920654297,204.75999450683594"></path></g><g opacity="1" transform="matrix(1,0,0,1,0,0)"><path fill="rgb(45,38,37)" fill-opacity="1" d=" M-20.624000549316406,189.28399658203125 C-17.10700035095215,190.57400512695312 -17.844999313354492,199.2030029296875 -20.95199966430664,200.7729949951172 C-22.77400016784668,201.6929931640625 -25.132999420166016,201.53700256347656 -27.891000747680664,207.98500061035156 C-28.80699920654297,210.12600708007812 -31.857999801635742,207.73800659179688 -30.910999298095703,200.82400512695312 C-29.972000122070312,193.97000122070312 -23.81100082397461,188.11500549316406 -20.624000549316406,189.28399658203125z"></path></g><g opacity="1" transform="matrix(1,0,0,1,0,0)"><path fill="rgb(45,38,37)" fill-opacity="1" d=" M48.2599983215332,190.44200134277344 C45.388999938964844,192.86099243164062 47.8489990234375,200.64999389648438 51.520999908447266,201.38800048828125 C53.67300033569336,201.82000732421875 57.23500061035156,199.79600524902344 61.92399978637695,206.29299926757812 C63.38999938964844,208.32400512695312 66.25399780273438,204.7949981689453 62.93600082397461,198.13299560546875 C59.61800003051758,191.4709930419922 51.020999908447266,188.11599731445312 48.2599983215332,190.44200134277344z"></path></g><g opacity="1" transform="matrix(1,0,0,1,0,0)"><path fill="rgb(92,84,83)" fill-opacity="1" d=" M61.525001525878906,198.93099975585938 C62.4370002746582,197.9429931640625 56.959999084472656,189.7899932861328 51.63999938964844,192.4499969482422 C49.4379997253418,193.55099487304688 55.04899978637695,194.65899658203125 56.92599868774414,196.19400024414062 C59.483001708984375,198.28500366210938 60.78300094604492,199.73500061035156 61.525001525878906,198.93099975585938z"></path></g></g><g style="display: block;" transform="matrix(1,0,0,1,270.00048828125,267)" opacity="1"><g opacity="1" transform="matrix(1,0,0,1,0,0)"><path fill="rgb(45,38,37)" fill-opacity="1" d=" M11.45199966430664,202.6179962158203 C12.982999801635742,199.94500732421875 8.71399974822998,188.23899841308594 -6.123000144958496,190.9770050048828 C-6.123000144958496,190.9770050048828 -2.555000066757202,202.46600341796875 -2.555000066757202,202.46600341796875 C-2.555000066757202,202.46600341796875 -0.32199999690055847,200.83099365234375 3.7769999504089355,200.64300537109375 C9.168999671936035,200.39599609375 10.545000076293945,204.20199584960938 11.45199966430664,202.6179962158203z"></path></g><g opacity="1" transform="matrix(1,0,0,1,0,0)"><path fill="rgb(45,38,37)" fill-opacity="1" d=" M-98.13099670410156,191.9510040283203 C-98.13099670410156,191.9510040283203 -103.62899780273438,188.58799743652344 -111.78399658203125,192.91400146484375 C-117.50499725341797,195.94900512695312 -118.55799865722656,202.7899932861328 -117.11599731445312,203.51100158691406 C-115.67400360107422,204.23199462890625 -110.39700317382812,197.2449951171875 -100.5250015258789,202.58099365234375 C-100.5250015258789,202.58099365234375 -98.13099670410156,191.9510040283203 -98.13099670410156,191.9510040283203z"></path></g><g opacity="1" transform="matrix(1,0,0,1,0,0)"><path fill="rgb(107,81,67)" fill-opacity="1" d=" M-61.516998291015625,164.65499877929688 C-60.58300018310547,187.531005859375 -64.21600341796875,191.37100219726562 -72.36000061035156,193.18099975585938 C-80.50399780273438,194.99099731445312 -90.00499725341797,188.65699768066406 -95.20800018310547,191.82400512695312 C-100.41100311279297,194.99099731445312 -102.11699676513672,202.38099670410156 -97.85099792480469,204.94400024414062 C-92.83200073242188,207.95899963378906 -74.37100219726562,203.94400024414062 -53.55699920654297,203.94400024414062 C-34.439998626708984,203.94400024414062 -15.927000045776367,206.0760040283203 -10.618000030517578,204.94400024414062 C-1.50600004196167,203 -3.0929999351501465,197.6909942626953 -6.078999996185303,193.86000061035156 C-10.52299976348877,188.15899658203125 -16.43899917602539,189.99899291992188 -26.341999053955078,192.0500030517578 C-53.643001556396484,197.70599365234375 -46.111000061035156,166.03199768066406 -45.87699890136719,163.16299438476562 C-50.11399841308594,152.52699279785156 -61.2130012512207,157.81700134277344 -61.516998291015625,164.65499877929688z"></path></g><g opacity="1" transform="matrix(1,0,0,1,0,0)"><path fill="rgb(183,161,146)" fill-opacity="1" d=" M-26.341999053955078,192.0500030517578 C-16.4060001373291,190.1649932861328 -10.52299976348877,188.15899658203125 -6.078999996185303,193.86000061035156 C-3.0929999351501465,197.6909942626953 -1.50600004196167,203 -10.618000030517578,204.94400024414062 C-15.927000045776367,206.0760040283203 -34.439998626708984,203.94400024414062 -53.55699920654297,203.94400024414062 C-74.37100219726562,203.94400024414062 -92.83200073242188,207.95899963378906 -97.85099792480469,204.94400024414062 C-102.11699676513672,202.38099670410156 -100.41100311279297,194.99099731445312 -95.20800018310547,191.82400512695312 C-90.00499725341797,188.65699768066406 -80.50399780273438,194.99099731445312 -72.36000061035156,193.18099975585938"></path></g><g opacity="1" transform="matrix(1,0,0,1,0,0)"><path stroke-linecap="round" stroke-linejoin="round" fill-opacity="0" stroke="rgb(79,49,41)" stroke-opacity="1" stroke-width="8" d=" M-45.87699890136719,163.16299438476562 C-45.87699890136719,163.16299438476562 -54.17300033569336,198.08799743652344 -26.341999053955078,192.0500030517578 C-16.458999633789062,189.906005859375 -10.52299976348877,188.15899658203125 -6.078999996185303,193.86000061035156 C-3.0929999351501465,197.6909942626953 -1.50600004196167,203 -10.618000030517578,204.94400024414062 C-15.927000045776367,206.0760040283203 -34.439998626708984,203.94400024414062 -53.55699920654297,203.94400024414062 C-74.37100219726562,203.94400024414062 -92.83200073242188,207.95899963378906 -97.85099792480469,204.94400024414062 C-102.11699676513672,202.38099670410156 -100.41100311279297,194.99099731445312 -95.20800018310547,191.82400512695312 C-90.00499725341797,188.65699768066406 -80.50399780273438,194.99099731445312 -72.36000061035156,193.18099975585938 C-64.21600341796875,191.37100219726562 -61.14899826049805,187.5469970703125 -61.516998291015625,164.65499877929688 C-61.64400100708008,156.76499938964844 -45.404998779296875,154.97300720214844 -45.87699890136719,163.16299438476562z"></path></g><g opacity="1" transform="matrix(1,0,0,1,0,0)"><path stroke-linecap="round" stroke-linejoin="round" fill-opacity="0" stroke="rgb(114,77,63)" stroke-opacity="1" stroke-width="8" d=" M-26.341999053955078,192.0500030517578 C-16.4060001373291,190.1649932861328 -10.52299976348877,188.15899658203125 -6.078999996185303,193.86000061035156 C-3.0929999351501465,197.6909942626953 -1.50600004196167,203 -10.618000030517578,204.94400024414062 C-15.927000045776367,206.0760040283203 -34.439998626708984,203.94400024414062 -53.55699920654297,203.94400024414062 C-74.37100219726562,203.94400024414062 -92.83200073242188,207.95899963378906 -97.85099792480469,204.94400024414062 C-102.11699676513672,202.38099670410156 -100.41100311279297,194.99099731445312 -95.20800018310547,191.82400512695312 C-90.00499725341797,188.65699768066406 -80.50399780273438,194.99099731445312 -72.36000061035156,193.18099975585938"></path></g><g opacity="1" transform="matrix(1,0,0,1,0,0)"><path fill="rgb(209,185,169)" fill-opacity="1" d=" M-44.22999954223633,216.38900756835938 C-50.16299819946289,218.8209991455078 -57.47200012207031,218.68499755859375 -61.2130012512207,215.38900756835938 C-65.49400329589844,211.6179962158203 -63.71500015258789,195.42799377441406 -54.54499816894531,192.28399658203125 C-45.375,189.13999938964844 -33.5629997253418,212.01600646972656 -44.22999954223633,216.38900756835938z"></path><path stroke-linecap="round" stroke-linejoin="round" fill-opacity="0" stroke="rgb(130,95,75)" stroke-opacity="1" stroke-width="8" d=" M-44.22999954223633,216.38900756835938 C-50.16299819946289,218.8209991455078 -57.47200012207031,218.68499755859375 -61.2130012512207,215.38900756835938 C-65.49400329589844,211.6179962158203 -63.71500015258789,195.42799377441406 -54.54499816894531,192.28399658203125 C-45.375,189.13999938964844 -33.5629997253418,212.01600646972656 -44.22999954223633,216.38900756835938z"></path></g><g opacity="1" transform="matrix(1,0,0,1,0,0)"><path stroke-linecap="round" stroke-linejoin="round" fill-opacity="0" stroke="rgb(102,66,55)" stroke-opacity="1" stroke-width="8" d=" M-44.22999954223633,216.38900756835938 C-50.16299819946289,218.8209991455078 -57.47200012207031,218.68499755859375 -61.2130012512207,215.38900756835938"></path></g><g opacity="1" transform="matrix(1,0,0,1,0,0)"><path fill="rgb(45,38,37)" fill-opacity="1" d=" M-49.06800079345703,200.69500732421875 C-53.000999450683594,201.5760040283203 -53.426998138427734,210.88299560546875 -50.33399963378906,212.99400329589844 C-48.520999908447266,214.23199462890625 -45.983001708984375,214.39599609375 -43.948001861572266,221.66099548339844 C-43.27199935913086,224.072998046875 -39.68199920654297,221.95599365234375 -39.720001220703125,214.44900512695312 C-39.75699996948242,207.0070037841797 -45.505001068115234,199.89700317382812 -49.06800079345703,200.69500732421875z"></path></g><g opacity="1" transform="matrix(1,0,0,1,0,0)"><path fill="rgb(92,84,83)" fill-opacity="1" d=" M-47.14799880981445,203.0050048828125 C-49.07899856567383,204.177001953125 -45.32600021362305,204.4810028076172 -42.68000030517578,213.31100463867188 C-41.233001708984375,218.13900756835938 -38.75,214.26699829101562 -41.30500030517578,208.302001953125 C-43.534000396728516,203.09800720214844 -46.047000885009766,202.33599853515625 -47.14799880981445,203.0050048828125z"></path></g><g opacity="1" transform="matrix(1,0,0,1,0,0)"><path fill="rgb(92,84,83)" fill-opacity="1" d=" M8.628999710083008,196.95199584960938 C9.369999885559082,196.08799743652344 5.6570000648498535,190.7689971923828 -0.10700000077486038,191.86700439453125 C-1.5110000371932983,192.13400268554688 0.6019999980926514,193.1739959716797 3.4709999561309814,194.40899658203125 C5.339000225067139,195.21299743652344 7.656000137329102,198.08799743652344 8.628999710083008,196.95199584960938z"></path></g><g opacity="1" transform="matrix(1,0,0,1,0,0)"><path fill="rgb(92,84,83)" fill-opacity="1" d=" M-104.2750015258789,191.98800659179688 C-105.07099914550781,191 -111.93299865722656,192.2790069580078 -114.76799774169922,196.56700134277344 C-117.60299682617188,200.85499572753906 -111.70700073242188,195.8780059814453 -108.20600128173828,194.9320068359375 C-104.70500183105469,193.98599243164062 -103.31900024414062,193.17599487304688 -104.2750015258789,191.98800659179688z"></path></g></g><g style="display: block;" transform="matrix(1,0,0,1,269.99951171875,267.00048828125)" opacity="1"><g opacity="1" transform="matrix(1,0,0,1,0,0)"><path fill="rgb(145,92,40)" fill-opacity="1" d=" M102.30799865722656,-18.107999801635742 C91.25299835205078,-42.090999603271484 72.197998046875,-52.551998138427734 53.03499984741211,-48.95399856567383 C31.152999877929688,-44.84600067138672 16.67300033569336,-7.25600004196167 10.059000015258789,29.586999893188477 C4.633999824523926,59.805999755859375 36.12200164794922,109.53500366210938 47.832000732421875,100.93900299072266 C47.832000732421875,100.93900299072266 82.33200073242188,98.38800048828125 101.04100036621094,49.82400131225586 C114.20700073242188,15.64799976348877 105.6240005493164,-10.913000106811523 102.30799865722656,-18.107999801635742z"></path></g><g opacity="1" transform="matrix(1,0,0,1,0,0)"><path stroke-linecap="round" stroke-linejoin="round" fill-opacity="0" stroke="rgb(91,42,8)" stroke-opacity="1" stroke-width="8" d=" M102.30799865722656,-18.107999801635742 C91.25299835205078,-42.090999603271484 72.197998046875,-52.551998138427734 53.03499984741211,-48.95399856567383 C31.152999877929688,-44.84600067138672 16.673999786376953,-7.25600004196167 10.059000015258789,29.586999893188477 C4.633999824523926,59.805999755859375 36.12200164794922,109.53500366210938 47.832000732421875,100.93900299072266 C47.832000732421875,100.93900299072266 82.33200073242188,98.38800048828125 101.04100036621094,49.82400131225586 C114.20700073242188,15.64799976348877 105.6240005493164,-10.913000106811523 102.30799865722656,-18.107999801635742z"></path></g></g><g style="display: block;" transform="matrix(1,0,0,1,270,267)" opacity="1"><g opacity="1" transform="matrix(1,0,0,1,0,0)"><path fill="rgb(107,60,24)" fill-opacity="1" d=" M-26.341999053955078,142.97999572753906 C-26.341999053955078,142.97999572753906 -20.89299964904785,161.27999877929688 -1.6380000114440918,162.78799438476562 C14.020000457763672,164.01499938964844 33.1510009765625,151.44000244140625 37.770999908447266,122.41899871826172 C39.53300094604492,111.35299682617188 -39.51100158691406,120.48999786376953 -26.341999053955078,142.97999572753906z"></path><path stroke-linecap="round" stroke-linejoin="round" fill-opacity="0" stroke="rgb(73,33,5)" stroke-opacity="1" stroke-width="8" d=" M-26.341999053955078,142.97999572753906 C-26.341999053955078,142.97999572753906 -20.89299964904785,161.27999877929688 -1.6380000114440918,162.78799438476562 C14.020000457763672,164.01499938964844 33.1510009765625,151.44000244140625 37.770999908447266,122.41899871826172 C39.53300094604492,111.35299682617188 -39.51100158691406,120.48999786376953 -26.341999053955078,142.97999572753906z"></path></g></g><g style="display: block;" transform="matrix(1,0,0,1,269.99951171875,267.00048828125)" opacity="1"><g opacity="1" transform="matrix(1,0,0,1,0,0)"><path fill="rgb(198,177,167)" fill-opacity="1" d=" M-95.76300048828125,133.93099975585938 C-93.50399780273438,145.2530059814453 -46.04600143432617,160.5189971923828 -30.148000717163086,155.343994140625 C-30.148000717163086,155.343994140625 -0.7870000004768372,157.14700317382812 30.94700050354004,131.57000732421875 C55.96099853515625,111.40899658203125 76.77999877929688,93.80999755859375 86.9020004272461,64.2040023803711 C100.4749984741211,24.503999710083008 89.30799865722656,-8.616999626159668 99.9800033569336,-28.3799991607666 C110.6520004272461,-48.143001556396484 -98.13099670410156,-87 -100.91699981689453,-28.947999954223633 C-102.68399810791016,7.872000217437744 -108.82099914550781,68.4749984741211 -95.76300048828125,133.93099975585938z"></path></g><g opacity="1" transform="matrix(1,0,0,1,0,0)"><path fill="rgb(146,97,50)" fill-opacity="1" d=" M-30.14900016784668,155.34300231933594 C-41.388999938964844,164.09300231933594 -55.319000244140625,166.17300415039062 -66.68900299072266,163.98300170898438 C-87.0790023803711,160.04299926757812 -93.50900268554688,145.2530059814453 -95.75900268554688,133.93299865722656 C-95.75900268554688,133.93299865722656 -87.93499755859375,96.20099639892578 -47.047000885009766,101.78399658203125 C-12.105999946594238,106.55500030517578 -12.105999946594238,144.6790008544922 -30.14900016784668,155.34300231933594z"></path></g><g opacity="0.3" transform="matrix(1,0,0,1,0,0)"><path fill="rgb(239,174,89)" fill-opacity="1" d=" M-45.87699890136719,163.16299438476562 C-45.87699890136719,163.16299438476562 -81.93699645996094,163.8509979248047 -88.94400024414062,120.86599731445312 C-91.29499816894531,106.44200134277344 -99.25900268554688,112.44000244140625 -98.13099670410156,120.87200164794922 C-97.00299835205078,129.3040008544922 -94.23200225830078,174.41099548339844 -45.87699890136719,163.16299438476562z"></path></g><g opacity="0.3" transform="matrix(1,0,0,1,0,0)"><path fill="rgb(87,55,31)" fill-opacity="1" d=" M88.74099731445312,43.474998474121094 C91.72699737548828,87.33699798583984 55.96099853515625,111.41300201416016 30.951000213623047,131.572998046875 C-0.7889999747276306,157.14300537109375 -30.14900016784668,155.34300231933594 -30.14900016784668,155.34300231933594 C-41.388999938964844,164.09300231933594 -55.319000244140625,166.17300415039062 -66.68900299072266,163.98300170898438 C-87.0790023803711,160.04299926757812 -93.50900268554688,145.2530059814453 -95.75900268554688,133.93299865722656 C-102.4489974975586,100.37300109863281 -104.75900268554688,68.04299926757812 -104.8290023803711,39.5629997253418 C-65.60900115966797,34.303001403808594 -22.28499984741211,26.608999252319336 -20.777999877929688,40.16600036621094 C-18.21500015258789,63.22700119018555 -6.689000129699707,74.50399780273438 5.724999904632568,82.06600189208984 C25.43899917602539,94.07499694824219 78.3550033569336,91.82599639892578 88.74099731445312,43.474998474121094z"></path></g><g opacity="0.5" transform="matrix(1,0,0,1,0,0)"><path fill="rgb(87,55,31)" fill-opacity="1" d=" M-24.19700050354004,14.29800033569336 C-24.19700050354004,14.29800033569336 -11.357000350952148,69.75399780273438 -43.88600158691406,112.49600219726562 C-66.06900024414062,141.64300537109375 -92.33300018310547,144.6790008544922 -92.33300018310547,144.6790008544922 C-92.33300018310547,144.6790008544922 -95.75900268554688,135.80499267578125 -95.75900268554688,135.80499267578125 C-95.75900268554688,135.80499267578125 -24.19700050354004,14.29800033569336 -24.19700050354004,14.29800033569336z"></path></g><g opacity="0.3" transform="matrix(1,0,0,1,0,0)"><path fill="rgb(255,255,255)" fill-opacity="1" d=" M85.29100036621094,-15.675999641418457 C82.65699768066406,3.2100000381469727 84.95500183105469,30.215999603271484 77.77100372314453,55.27299880981445 C69.8740005493164,82.81700134277344 53.42599868774414,107.76699829101562 32.4370002746582,125.54399871826172 C55.80099868774414,113.70600128173828 76.78099822998047,93.81300354003906 86.9010009765625,64.2030029296875 C100.45500183105469,24.548999786376953 92.56300354003906,-18.80299949645996 99.94999694824219,-28.325000762939453 C97.11000061035156,-31.118000030517578 89.5270004272461,-28.90999984741211 85.29100036621094,-15.675999641418457z"></path></g><g opacity="1" transform="matrix(1,0,0,1,0,0)"><path stroke-linecap="round" stroke-linejoin="round" fill-opacity="0" stroke="rgb(114,77,63)" stroke-opacity="1" stroke-width="8" d=" M-30.148000717163086,155.343994140625 C-30.148000717163086,155.343994140625 -0.7870000004768372,157.14700317382812 30.94700050354004,131.57000732421875 C55.96099853515625,111.40899658203125 76.77999877929688,93.80999755859375 86.9020004272461,64.2040023803711 C100.4749984741211,24.503999710083008 89.30799865722656,-8.616999626159668 99.9800033569336,-28.3799991607666"></path></g><g opacity="1" transform="matrix(1,0,0,1,0,0)"><path stroke-linecap="round" stroke-linejoin="round" fill-opacity="0" stroke="rgb(91,42,8)" stroke-opacity="1" stroke-width="8" d=" M-100.91699981689453,-28.947999954223633 C-105.16999816894531,7.669000148773193 -108.82099914550781,68.4749984741211 -95.76300048828125,133.93099975585938 C-93.50399780273438,145.2530059814453 -87.08000183105469,160.04800415039062 -66.69000244140625,163.97999572753906 C-55.316001892089844,166.1739959716797 -41.388999938964844,164.0970001220703 -30.148000717163086,155.343994140625"></path></g></g><g style="display: block;" transform="matrix(1,0,0,1,269.99951171875,267.00048828125)" opacity="0.2"><g opacity="1" transform="matrix(1,0,0,1,0,0)"><path fill="rgb(255,255,255)" fill-opacity="1" d=" M34.59199905395508,45.0099983215332 C30.297000885009766,46.55400085449219 33.069000244140625,57.2859992980957 37.21200180053711,55.69300079345703 C41.35499954223633,54.099998474121094 39.45800018310547,43.26100158691406 34.59199905395508,45.0099983215332z"></path></g><g opacity="1" transform="matrix(1,0,0,1,0,0)"><path fill="rgb(255,255,255)" fill-opacity="1" d=" M41.71500015258789,27.32200050354004 C33.81700134277344,30.007999420166016 38.57500076293945,49.72100067138672 46.198001861572266,46.941001892089844 C53.82099914550781,44.1609992980957 50.66299819946289,24.27899932861328 41.71500015258789,27.32200050354004z"></path></g><g opacity="1" transform="matrix(1,0,0,1,0,0)"><path fill="rgb(255,255,255)" fill-opacity="1" d=" M26.46299934387207,32.39400100708008 C21.158000946044922,33.790000915527344 23.451000213623047,46.96900177001953 28.57900047302246,45.49800109863281 C33.707000732421875,44.027000427246094 32.472999572753906,30.812999725341797 26.46299934387207,32.39400100708008z"></path></g><g opacity="1" transform="matrix(1,0,0,1,0,0)"><path fill="rgb(255,255,255)" fill-opacity="1" d=" M62.36199951171875,16.0049991607666 C57.89099884033203,19.417999267578125 64.0790023803711,32.33599853515625 68.36299896240234,28.90999984741211 C72.64700317382812,25.483999252319336 67.427001953125,12.137999534606934 62.36199951171875,16.0049991607666z"></path></g><g opacity="1" transform="matrix(1,0,0,1,0,0)"><path fill="rgb(255,255,255)" fill-opacity="1" d=" M49.599998474121094,14.288999557495117 C44.17900085449219,17.427000045776367 49.71500015258789,32.90700149536133 54.926998138427734,29.72599983215332 C60.138999938964844,26.545000076293945 55.742000579833984,10.734000205993652 49.599998474121094,14.288999557495117z"></path></g><g opacity="1" transform="matrix(1,0,0,1,0,0)"><path fill="rgb(255,255,255)" fill-opacity="1" d=" M30.988000869750977,14.461999893188477 C24.325000762939453,16.21500015258789 27.204999923706055,32.768001556396484 33.64500045776367,30.92099952697754 C40.084999084472656,29.073999404907227 38.5359992980957,12.47599983215332 30.988000869750977,14.461999893188477z"></path></g><g opacity="1" transform="matrix(1,0,0,1,0,0)"><path fill="rgb(255,255,255)" fill-opacity="1" d=" M16.07900047302246,16.378999710083008 C9.949000358581543,16.53700065612793 9.359000205993652,32.59199905395508 15.312999725341797,32.29800033569336 C21.267000198364258,32.00400161743164 23.02400016784668,16.201000213623047 16.07900047302246,16.378999710083008z"></path></g><g opacity="1" transform="matrix(1,0,0,1,0,0)"><path fill="rgb(255,255,255)" fill-opacity="1" d=" M2.121000051498413,19.187000274658203 C-2.6740000247955322,19.08099937438965 -3.6080000400543213,31.604999542236328 1.0529999732971191,31.597000122070312 C5.714000225067139,31.589000701904297 7.552999973297119,19.30699920654297 2.121000051498413,19.187000274658203z"></path></g></g><g style="display: block;" transform="matrix(1,0,0,1,269.99951171875,267.00048828125)" opacity="1"><g opacity="1" transform="matrix(1,0,0,1,0,0)"><path fill="rgb(198,177,167)" fill-opacity="1" d=" M124.09100341796875,-86.13700103759766 C122.59500122070312,-59.321998596191406 116.125,-57.56999969482422 105.45500183105469,-37.79999923706055 C105.45500183105469,-37.79999923706055 96.06199645996094,-35.4119987487793 92.98100280761719,-21.086000442504883 C75.5,4.5 -52.5,13.5 -99.37999725341797,-46.96500015258789 C-97.76799774169922,-60.04199981689453 -102.4489974975586,-99.37699890136719 -100.91899871826172,-112.64700317382812 C-97.31900024414062,-143.86700439453125 128.07000732421875,-157.45899963378906 124.09100341796875,-86.13700103759766z"></path></g><g opacity="1" transform="matrix(1,0,0,1,0,0)"><path fill="rgb(150,120,104)" fill-opacity="1" d=" M124.09100341796875,-86.13700103759766 C122.59500122070312,-59.321998596191406 116.125,-57.56999969482422 105.45500183105469,-37.79999923706055 C105.45500183105469,-37.79999923706055 96.06199645996094,-35.4119987487793 92.98100280761719,-21.086000442504883 C75.5,4.5 -52.5,13.5 -99.37999725341797,-46.96500015258789 C-98.7969970703125,-51.69300079345703 -99.5,-55.5 -99.50800323486328,-61.4739990234375 C-99.5199966430664,-70.625 -101.89600372314453,-104.17500305175781 -100.91899871826172,-112.64700317382812 C-97.31900024414062,-143.86700439453125 128.07000732421875,-157.45899963378906 124.09100341796875,-86.13700103759766z"></path></g><g opacity="0.3" transform="matrix(1,0,0,1,0,0)"><path fill="rgb(255,255,255)" fill-opacity="1" d=" M123.99700164794922,-91.02899932861328 C123.13899993896484,-86.66100311279297 118.67500305175781,-65.69100189208984 91.87000274658203,-33.95600128173828 C88.22799682617188,-29.643999099731445 86.10800170898438,-22.07200050354004 85.04100036621094,-14.425999641418457 C87.27999877929688,-15.60099983215332 90,-17.5 92.98100280761719,-21.086000442504883 C95.6510009765625,-37.5880012512207 124.15699768066406,-59.53099822998047 123.99700164794922,-91.02899932861328z"></path></g><g opacity="1" transform="matrix(1,0,0,1,0,0)"><path fill="rgb(145,92,40)" fill-opacity="1" d=" M-89.91699981689453,-85.09700012207031 C-85.80799865722656,-72.66400146484375 -77.66600036621094,-62.242000579833984 -73.76899719238281,-41.387001037597656 C-64.80799865722656,6.566999912261963 -108.20600128173828,37.108001708984375 -100.91899871826172,-28.94700050354004 C-97.5989990234375,-59.04100036621094 -102.05000305175781,-81.16100311279297 -102.81999969482422,-98.34400177001953 C-103.11799621582031,-104.99800109863281 -92.93699645996094,-97.47000122070312 -89.91699981689453,-85.09700012207031z"></path></g><g opacity="1" transform="matrix(1,0,0,1,0,0)"><path stroke-linecap="round" stroke-linejoin="round" fill-opacity="0" stroke="rgb(91,42,8)" stroke-opacity="1" stroke-width="8" d=" M-100.91699981689453,-28.947999954223633 C-97.15299987792969,-61.35599899291992 -101.43399810791016,-74.86799621582031 -101.82599639892578,-94.08300018310547"></path></g><g opacity="1" transform="matrix(1,0,0,1,0,0)"><path stroke-linecap="round" stroke-linejoin="round" fill-opacity="0" stroke="rgb(114,77,63)" stroke-opacity="1" stroke-width="8" d=" M99.9800033569336,-28.3799991607666 C110.6520004272461,-48.143001556396484 122.90399932861328,-59.31100082397461 124.08999633789062,-86.13800048828125"></path></g></g><g style="display: none;"><g><path></path></g><g><path></path></g><g><path></path></g><g><path></path></g></g><g style="display: block;" transform="matrix(1,0,0,1,269.99951171875,267.00048828125)" opacity="1"><g opacity="1" transform="matrix(1,0,0,1,0,0)"><path fill="rgb(114,66,33)" fill-opacity="1" d=" M-30.32200050354004,-9.079000473022461 C-43.60200119018555,-37.88999938964844 -66.49299621582031,-50.45600128173828 -89.51300048828125,-46.13399887084961 C-115.79900360107422,-41.19900131225586 -133.1929931640625,3.9579999446868896 -141.13900756835938,48.21699905395508 C-147.656005859375,84.51899719238281 -155.09100341796875,145.5760040283203 -141.13900756835938,152.13800048828125 C-129.21200561523438,157.7469940185547 -119.7760009765625,135.89100646972656 -119.7760009765625,135.89100646972656 C-119.7760009765625,135.89100646972656 -109.83000183105469,144.2570037841797 -95.76300048828125,133.93099975585938 C-95.76300048828125,133.93099975585938 -54.319000244140625,130.86599731445312 -31.8439998626709,72.5270004272461 C-16.027999877929688,31.472000122070312 -26.33799934387207,-0.4359999895095825 -30.32200050354004,-9.079000473022461z"></path></g><g opacity="1" transform="matrix(1,0,0,1,0,0)"><path fill="rgb(145,92,40)" fill-opacity="1" d=" M-33.106998443603516,-8.342000007629395 C-42.95199966430664,-37.5359992980957 -90.93499755859375,-61.270999908447266 -96.34300231933594,-22.8700008392334 C-101.56600189208984,14.21500015258789 -72.89700317382812,58.66899871826172 -44.13800048828125,55.85300064086914 C-21.233999252319336,53.61000061035156 -24.856000900268555,16.12299919128418 -33.106998443603516,-8.342000007629395z"></path></g><g opacity="0.15" transform="matrix(1,0,0,1,0,0)"><path fill="url(#__lottie_element_20897)" fill-opacity="1" d=" M-103.84400177001953,95.63400268554688 C-118.13300323486328,96.80000305175781 -123.28199768066406,134.8979949951172 -115.375,137.802001953125 C-104.58499908447266,141.76499938964844 -95.94300079345703,134.79299926757812 -93.66200256347656,120.4520034790039 C-91.19000244140625,104.90699768066406 -96.60600280761719,95.04399871826172 -103.84400177001953,95.63400268554688z"></path></g><g opacity="0.15" transform="matrix(1,0,0,1,0,0)"><path fill="url(#__lottie_element_20898)" fill-opacity="1" d=" M-131.8509979248047,94.07499694824219 C-144.90499877929688,94.14700317382812 -148.8249969482422,117.56300354003906 -148.61399841308594,132.6649932861328 C-148.4029998779297,147.76699829101562 -142.60499572753906,154.10899353027344 -137.6929931640625,153.0399932861328 C-133.88900756835938,152.21200561523438 -127.60199737548828,153.41900634765625 -124.44400024414062,136.6540069580078 C-123.52400207519531,131.77000427246094 -123.31300354003906,123.35099792480469 -123.6449966430664,115.40899658203125 C-124.21700286865234,101.74700164794922 -126.45899963378906,94.04499816894531 -131.8509979248047,94.07499694824219z"></path></g><g opacity="0.3" transform="matrix(1,0,0,1,0,0)"><path fill="rgb(239,174,89)" fill-opacity="1" d=" M-43.28900146484375,95.63300323486328 C-43.28900146484375,95.63300323486328 -43.29899978637695,95.63300323486328 -43.29899978637695,95.63300323486328 C-43.29899978637695,95.63300323486328 -21.99799919128418,49.707000732421875 -34.249000549316406,5.552999973297119 C-46.42100143432617,-38.31399917602539 -87.572998046875,-42.29899978637695 -104.83899688720703,-19.60700035095215 C-126.54499816894531,8.918999671936035 -135.55999755859375,70.20600128173828 -138.718994140625,108.78299713134766 C-141.322998046875,140.5760040283203 -134.1490020751953,152.1230010986328 -128.1790008544922,148.56300354003906 C-131.75900268554688,152.11300659179688 -136.23899841308594,154.4429931640625 -141.13900756835938,152.14300537109375 C-155.08900451660156,145.572998046875 -147.65899658203125,84.52300262451172 -141.13900756835938,48.2130012512207 C-133.18899536132812,3.953000068664551 -115.79900360107422,-41.196998596191406 -89.50900268554688,-46.137001037597656 C-66.48899841308594,-50.457000732421875 -41.65700149536133,-38.70500183105469 -30.319000244140625,-9.07699966430664 C-11.289999961853027,40.64699935913086 -36.3489990234375,85.47100067138672 -43.28900146484375,95.63300323486328z"></path></g><g opacity="1" transform="matrix(1,0,0,1,0,0)"><path stroke-linecap="round" stroke-linejoin="round" fill-opacity="0" stroke="rgb(91,42,8)" stroke-opacity="1" stroke-width="8" d=" M-30.32200050354004,-9.079000473022461 C-43.60200119018555,-37.88999938964844 -66.49299621582031,-50.45600128173828 -89.51300048828125,-46.13399887084961 C-115.79900360107422,-41.19900131225586 -133.1929931640625,3.9579999446868896 -141.13900756835938,48.21699905395508 C-147.656005859375,84.51899719238281 -155.09100341796875,145.5760040283203 -141.13900756835938,152.13800048828125 C-129.21200561523438,157.7469940185547 -119.7760009765625,135.89100646972656 -119.7760009765625,135.89100646972656 C-119.7760009765625,135.89100646972656 -109.83000183105469,144.2570037841797 -95.76300048828125,133.93099975585938 C-95.76300048828125,133.93099975585938 -54.319000244140625,130.86599731445312 -31.8439998626709,72.5270004272461 C-16.027999877929688,31.472000122070312 -26.33799934387207,-0.4359999895095825 -30.32200050354004,-9.079000473022461z"></path></g><g opacity="1" transform="matrix(1,0,0,1,0,0)"><path stroke-linecap="round" stroke-linejoin="round" fill-opacity="0" stroke="rgb(61,29,16)" stroke-opacity="1" stroke-width="8" d=" M-141.13900756835938,152.13800048828125 C-129.21200561523438,157.7469940185547 -119.7760009765625,135.89100646972656 -119.7760009765625,135.89100646972656 C-119.7760009765625,135.89100646972656 -109.83000183105469,144.2570037841797 -95.76300048828125,133.93099975585938 C-95.76300048828125,133.93099975585938 -54.319000244140625,130.86599731445312 -31.8439998626709,72.5270004272461 C-16.027999877929688,31.472000122070312 -26.33799934387207,-0.4359999895095825 -30.32200050354004,-9.079000473022461"></path></g><g opacity="0.15" transform="matrix(1,0,0,1,0,0)"><path fill="url(#__lottie_element_20899)" fill-opacity="1" d=" M-73.80899810791016,54.32400131225586 C-81.58599853515625,53.047000885009766 -89.4010009765625,74.26200103759766 -81.73300170898438,77.3290023803711 C-74.06500244140625,80.39600372314453 -64.06300354003906,55.92399978637695 -73.80899810791016,54.32400131225586z"></path></g><g opacity="0.15" transform="matrix(1,0,0,1,0,0)"><path fill="url(#__lottie_element_20900)" fill-opacity="1" d=" M-101.46700286865234,56.180999755859375 C-113.6989974975586,52.104000091552734 -126.6449966430664,87.38899993896484 -113.85099792480469,91.49500274658203 C-101.05699920654297,95.60099792480469 -89.14800262451172,60.2869987487793 -101.46700286865234,56.180999755859375z"></path></g><g opacity="0.15" transform="matrix(1,0,0,1,0,0)"><path fill="rgb(239,174,89)" fill-opacity="1" d=" M-47.46799850463867,-12.038999557495117 C-54.590999603271484,-11.61400032043457 -53.7130012512207,7.130000114440918 -46.80799865722656,6.552999973297119 C-39.90299987792969,5.97599983215332 -39.39799880981445,-12.520000457763672 -47.46799850463867,-12.038999557495117z"></path></g><g opacity="0.15" transform="matrix(1,0,0,1,0,0)"><path fill="rgb(239,174,89)" fill-opacity="1" d=" M-59.0359992980957,-5.1579999923706055 C-66.03900146484375,-6.572000026702881 -69.88200378417969,12.345000267028809 -63.053001403808594,13.550000190734863 C-56.2239990234375,14.755000114440918 -51.10200119018555,-3.555999994277954 -59.0359992980957,-5.1579999923706055z"></path></g><g opacity="0.15" transform="matrix(1,0,0,1,0,0)"><path fill="rgb(239,174,89)" fill-opacity="1" d=" M-57.45399856567383,-21.57699966430664 C-63.516998291015625,-20.889999389648438 -62.64799880981445,-6.331999778747559 -56.77199935913086,-7.126999855041504 C-50.895999908447266,-7.921999931335449 -50.584999084472656,-22.356000900268555 -57.45399856567383,-21.57699966430664z"></path></g><g opacity="1" transform="matrix(1,0,0,1,0,0)"><path stroke-linecap="round" stroke-linejoin="round" fill-opacity="0" stroke="rgb(255,255,255)" stroke-opacity="1" stroke-width="6" d=" M-66.63099670410156,-31.66200065612793 C-65.72799682617188,-31.408000946044922 -65.74400329589844,-31.444000244140625 -64.80799865722656,-31.118999481201172"></path></g><g opacity="1" transform="matrix(1,0,0,1,0,0)"><path stroke-linecap="round" stroke-linejoin="round" fill-opacity="0" stroke="rgb(255,255,255)" stroke-opacity="1" stroke-width="6" d=" M-90.46800231933594,-30.79599952697754 C-87.71399688720703,-31.906999588012695 -82.9489974975586,-33.20000076293945 -76.9990005493164,-33.20000076293945"></path></g></g><g style="display: block;" transform="matrix(1,0,0,1,269.99951171875,267.00048828125)" opacity="1"><g opacity="1" transform="matrix(1,0,0,1,0,0)"><path fill="rgb(86,46,30)" fill-opacity="1" d=" M87.58499908447266,-145.21499633789062 C96.90699768066406,-149.12399291992188 112.5979995727539,-150.6280059814453 112.5979995727539,-150.6280059814453 C106.43299865722656,-155.74000549316406 99.61399841308594,-159.64999389648438 99.61399841308594,-159.64999389648438 C112.24400329589844,-170.1750030517578 128.07000732421875,-176.2239990234375 128.07000732421875,-176.2239990234375 C128.07000732421875,-176.2239990234375 104.90499877929688,-180.22500610351562 80.22100067138672,-168.4010009765625 C55.5369987487793,-156.5780029296875 87.58499908447266,-145.21499633789062 87.58499908447266,-145.21499633789062z"></path><path stroke-linecap="round" stroke-linejoin="round" fill-opacity="0" stroke="rgb(61,29,16)" stroke-opacity="1" stroke-width="8" d=" M87.58499908447266,-145.21499633789062 C96.90699768066406,-149.12399291992188 112.5979995727539,-150.6280059814453 112.5979995727539,-150.6280059814453 C106.43299865722656,-155.74000549316406 99.61399841308594,-159.64999389648438 99.61399841308594,-159.64999389648438 C112.24400329589844,-170.1750030517578 128.07000732421875,-176.2239990234375 128.07000732421875,-176.2239990234375 C128.07000732421875,-176.2239990234375 104.90499877929688,-180.22500610351562 80.22100067138672,-168.4010009765625 C55.5369987487793,-156.5780029296875 87.58499908447266,-145.21499633789062 87.58499908447266,-145.21499633789062z"></path></g></g><g style="display: block;" transform="matrix(1,0,0,1,269.99951171875,267.00048828125)" opacity="1"><g opacity="1" transform="matrix(1,0,0,1,0,0)"><path fill="rgb(86,46,30)" fill-opacity="1" d=" M-84.27999877929688,-149.01100158691406 C-84.27999877929688,-149.01100158691406 -97.69300079345703,-152.16400146484375 -106.89199829101562,-151.302001953125 C-106.89199829101562,-151.302001953125 -101.3290023803711,-159.33799743652344 -88.49400329589844,-165.6750030517578 C-88.49400329589844,-165.6750030517578 -93.49700164794922,-176.38900756835938 -113.85099792480469,-185.56100463867188 C-113.85099792480469,-185.56100463867188 -63.284000396728516,-188.18699645996094 -30.033000946044922,-173.1490020751953 C3.2179999351501465,-158.11099243164062 -84.27999877929688,-149.01100158691406 -84.27999877929688,-149.01100158691406z"></path><path stroke-linecap="round" stroke-linejoin="round" fill-opacity="0" stroke="rgb(61,29,16)" stroke-opacity="1" stroke-width="8" d=" M-84.27999877929688,-149.01100158691406 C-84.27999877929688,-149.01100158691406 -97.69300079345703,-152.16400146484375 -106.89199829101562,-151.302001953125 C-106.89199829101562,-151.302001953125 -101.3290023803711,-159.33799743652344 -88.49400329589844,-165.6750030517578 C-88.49400329589844,-165.6750030517578 -93.49700164794922,-176.38900756835938 -113.85099792480469,-185.56100463867188 C-113.85099792480469,-185.56100463867188 -63.284000396728516,-188.18699645996094 -30.033000946044922,-173.1490020751953 C3.2179999351501465,-158.11099243164062 -84.27999877929688,-149.01100158691406 -84.27999877929688,-149.01100158691406z"></path></g></g><g style="display: block;" transform="matrix(1,0,0,1,269.99951171875,267.00048828125)" opacity="1"><g opacity="1" transform="matrix(1,0,0,1,0,0)"><path fill="rgb(230,190,138)" fill-opacity="1" d=" M34.492000579833984,-36.191001892089844 C11.109999656677246,-34.22700119018555 -33.643001556396484,-42.847999572753906 -66.63099670410156,-61.08300018310547 C-97.78500366210938,-78.30400085449219 -100.72699737548828,-108.36000061035156 -92.29100036621094,-131.47999572753906 C-83.8550033569336,-154.60000610351562 -54.446998596191406,-183.7259979248047 -19.3439998626709,-175.57899475097656 C48.92399978637695,-159.73500061035156 58.04399871826172,-177.21099853515625 79.22100067138672,-170.4010009765625 C112.2979965209961,-159.76400756835938 122.94200134277344,-105.85900115966797 120.08999633789062,-86.13800048828125 C116.96499633789062,-64.52799987792969 79.91000366210938,-40.005001068115234 34.492000579833984,-36.191001892089844z"></path></g><g opacity="1" transform="matrix(1,0,0,1,0,0)"><path fill="rgb(235,219,211)" fill-opacity="1" d=" M32.481998443603516,-49.63199996948242 C10.416000366210938,-47.97100067138672 -22.493000030517578,-54.45100021362305 -49.250999450683594,-68.08499908447266 C-75.31199645996094,-81.36399841308594 -80.26599884033203,-108.11000061035156 -73.33499908447266,-127.10700225830078 C-66.40399932861328,-146.10400390625 -43.71099853515625,-162.81100463867188 -15.354999542236328,-154.28700256347656 C10.673999786376953,-146.46299743652344 28.506000518798828,-132.66099548339844 28.506000518798828,-132.66099548339844 C28.506000518798828,-132.66099548339844 58.08300018310547,-150.4290008544922 69.88099670410156,-153.49899291992188 C108.12999725341797,-163.4510040283203 121.51499938964844,-109.72000122070312 108.12999725341797,-86.68399810791016 C99.90399932861328,-72.5270004272461 77.63600158691406,-53.03200149536133 32.481998443603516,-49.63199996948242z"></path></g><g opacity="1" transform="matrix(1,0,0,1,0,0)"><path fill="rgb(145,92,40)" fill-opacity="1" d=" M124.09100341796875,-86.13700103759766 C124.09100341796875,-86.13700103759766 116.26300048828125,-151.8820037841797 80.30400085449219,-154.99400329589844 C45.266998291015625,-158.0260009765625 38.611000061035156,-114.91699981689453 38.611000061035156,-114.91699981689453 C38.611000061035156,-114.91699981689453 18.291000366210938,-105.98699951171875 18.291000366210938,-105.98699951171875 C18.291000366210938,-105.98699951171875 11.227999687194824,-151.2169952392578 -22.493000030517578,-156.9290008544922 C-66.63099670410156,-164.406005859375 -90.86100006103516,-132.9969940185547 -92.33699798583984,-102.96600341796875 C-92.71700286865234,-95.2300033569336 -91.99600219726562,-90.76499938964844 -87.14600372314453,-78.03500366210938 C-84.71700286865234,-71.66100311279297 -93.94599914550781,-81.47000122070312 -96.96299743652344,-89.70600128173828 C-99.0999984741211,-95.54000091552734 -101.01200103759766,-104.1760025024414 -100.91899871826172,-112.64700317382812 C-100.57499694824219,-144.07200622558594 -81.36900329589844,-166.3769989013672 -58.79899978637695,-175.28700256347656 C-29.118999481201172,-187.0070037841797 60.54100036621094,-186.08700561523438 85.38099670410156,-172.0469970703125 C110.22100067138672,-158.0070037841797 125.28099822998047,-112.96700286865234 124.09100341796875,-86.13700103759766z"></path></g><g opacity="0.4" transform="matrix(1,0,0,1,0,0)"><path fill="rgb(61,29,16)" fill-opacity="1" d=" M60.637001037597656,-151.41700744628906 C60.637001037597656,-151.41700744628906 87.32099914550781,-174.39500427246094 109.69100189208984,-144.21499633789062 C109.69100189208984,-144.21499633789062 96.68900299072266,-169.05599975585938 85.58499908447266,-169.96800231933594 C74.48100280761719,-170.8800048828125 60.637001037597656,-151.41700744628906 60.637001037597656,-151.41700744628906z"></path></g><g opacity="0.4" transform="matrix(1,0,0,1,0,0)"><path fill="rgb(61,29,16)" fill-opacity="1" d=" M-94.74500274658203,-137.63699340820312 C-94.74500274658203,-137.63699340820312 -52.41400146484375,-198.79600524902344 6.34499979019165,-144.21499633789062 C6.34499979019165,-144.21499633789062 -21.304000854492188,-183.48599243164062 -53.941001892089844,-176.4340057373047 C-86.5780029296875,-169.3820037841797 -94.74500274658203,-137.63699340820312 -94.74500274658203,-137.63699340820312z"></path></g><g opacity="1" transform="matrix(1,0,0,1,0,0)"><path stroke-linecap="round" stroke-linejoin="round" fill-opacity="0" stroke="rgb(91,42,8)" stroke-opacity="1" stroke-width="8" d=" M85.38300323486328,-172.04800415039062 C60.542999267578125,-186.08799743652344 -29.118999481201172,-187.00399780273438 -58.797000885009766,-175.28799438476562 C-81.37100219726562,-166.37600708007812 -104.84400177001953,-137.4290008544922 -101.74800109863281,-91.46900177001953"></path></g><g opacity="1" transform="matrix(1,0,0,1,0,0)"><path stroke-linecap="round" stroke-linejoin="round" fill-opacity="0" stroke="rgb(114,77,63)" stroke-opacity="1" stroke-width="8" d=" M124.08999633789062,-86.13800048828125 C125.2760009765625,-112.96499633789062 110.2229995727539,-158.00799560546875 85.38300323486328,-172.04800415039062"></path></g><g opacity="1" transform="matrix(1,0,0,1,0,0)"><path stroke-linecap="round" stroke-linejoin="round" fill-opacity="0" stroke="rgb(61,29,16)" stroke-opacity="1" stroke-width="8" d=" M-32.64799880981445,-180.88099670410156 C-44.375,-179.5290069580078 -81.75,-175.75 -95.99099731445312,-134.3520050048828"></path></g><g opacity="1" transform="matrix(1,0,0,1,0,0)"><path stroke-linecap="round" stroke-linejoin="round" fill-opacity="0" stroke="rgb(61,29,16)" stroke-opacity="1" stroke-width="8" d=" M117.052001953125,-127.14600372314453 C110.44000244140625,-146.1020050048828 99.48999786376953,-164.0749969482422 85.38300323486328,-172.04800415039062"></path></g></g><g style="display: block;" transform="matrix(1,0,0,1,269.99951171875,267.00048828125)" opacity="1"><g opacity="1" transform="matrix(1,0,0,1,0,0)"><path fill="rgb(86,46,30)" fill-opacity="1" d=" M44.084999084472656,-68.61299896240234 C44.9640007019043,-74.47200012207031 35.32699966430664,-85.0989990234375 28.371999740600586,-85.0989990234375 C21.41699981689453,-85.0989990234375 12.142999649047852,-72.73500061035156 12.916000366210938,-68.61299896240234 C13.689000129699707,-64.49099731445312 25.860000610351562,-57 31.67799949645996,-56.742000579833984 C37.49700164794922,-56.48400115966797 43.3120002746582,-63.46099853515625 44.084999084472656,-68.61299896240234z"></path><path stroke-linecap="round" stroke-linejoin="round" fill-opacity="0" stroke="rgb(45,20,12)" stroke-opacity="1" stroke-width="8" d=" M44.084999084472656,-68.61299896240234 C44.9640007019043,-74.47200012207031 35.32699966430664,-85.0989990234375 28.371999740600586,-85.0989990234375 C21.41699981689453,-85.0989990234375 12.142999649047852,-72.73500061035156 12.916000366210938,-68.61299896240234 C13.689000129699707,-64.49099731445312 25.860000610351562,-57 31.67799949645996,-56.742000579833984 C37.49700164794922,-56.48400115966797 43.3120002746582,-63.46099853515625 44.084999084472656,-68.61299896240234z"></path></g><g opacity="0.2" transform="matrix(1,0,0,1,0,0)"><path fill="rgb(235,219,211)" fill-opacity="1" d=" M35.263999938964844,-73.61499786376953 C34.06399917602539,-77.25800323486328 31.672000885009766,-80.08699798583984 28.891000747680664,-79.5719985961914 C25.23699951171875,-78.8949966430664 26.763999938964844,-68.95700073242188 31.322999954223633,-67.04199981689453 C35.91999816894531,-65.11100006103516 36.095001220703125,-71.09200286865234 35.263999938964844,-73.61499786376953z"></path></g></g><g style="display: block;" transform="matrix(1,0,0,1,269.99951171875,267.00048828125)" opacity="1"><g opacity="1" transform="matrix(1,0,0,1,0,0)"><path fill="rgb(235,219,211)" fill-opacity="1" d=" M17.666000366210938,-98.34400177001953 C17.666000366210938,-98.34400177001953 20.679000854492188,-129.718994140625 1.0399999618530273,-152.0330047607422 C-17.80699920654297,-173.447998046875 -53.36399841308594,-185.09500122070312 -114.85099792480469,-185.56100463867188 C-114.85099792480469,-185.56100463867188 -67.3030014038086,-191.5959930419922 -12.746999740600586,-176.16600036621094 C-0.09600000083446503,-172.58799743652344 13.722999572753906,-167.28599548339844 28.091999053955078,-167.4029998779297 C40.8849983215332,-167.5070037841797 52.15800094604492,-170.447998046875 63.06800079345703,-173.61900329589844 C83.7509994506836,-179.63099670410156 103.12699890136719,-186.4720001220703 129.07000732421875,-176.38900756835938 C129.07000732421875,-176.38900756835938 86.24800109863281,-178.33200073242188 61.986000061035156,-156.73899841308594 C33.84000015258789,-131.69000244140625 37.856998443603516,-98.83899688720703 37.856998443603516,-98.83899688720703 C37.856998443603516,-98.83899688720703 17.666000366210938,-98.34400177001953 17.666000366210938,-98.34400177001953z"></path></g><g opacity="0.2" transform="matrix(1,0,0,1,0,0)"><path fill="rgb(183,146,118)" fill-opacity="1" d=" M20.94499969482422,-98.83899688720703 C20.94499969482422,-98.83899688720703 27.481000900268555,-110.0260009765625 33.6609992980957,-98.83899688720703 C33.6609992980957,-98.83899688720703 37.24300003051758,-132.93600463867188 46.11899948120117,-145.4709930419922 C46.11899948120117,-145.4709930419922 27.479999542236328,-118.0270004272461 8.842000007629395,-147.21499633789062 C8.842000007629395,-147.21499633789062 15.383999824523926,-119.90699768066406 20.94499969482422,-98.83899688720703z"></path></g><g opacity="1" transform="matrix(1,0,0,1,0,0)"><path stroke-linecap="round" stroke-linejoin="round" fill-opacity="0" stroke="rgb(183,146,118)" stroke-opacity="1" stroke-width="8" d=" M-114.85099792480469,-185.56100463867188 C-114.85099792480469,-185.56100463867188 -67.49800109863281,-191.5959930419922 -13.164999961853027,-176.16600036621094 C-0.5659999847412109,-172.58799743652344 13.196000099182129,-167.28599548339844 27.506000518798828,-167.4029998779297 C38.347999572753906,-167.49200439453125 48.09299850463867,-169.63299560546875 57.45199966430664,-172.2239990234375 C79.94300079345703,-178.4499969482422 100.20099639892578,-187.26499938964844 128.07000732421875,-176.38900756835938"></path></g><g opacity="1" transform="matrix(1,0,0,1,0,0)"><path stroke-linecap="round" stroke-linejoin="round" fill-opacity="0" stroke="rgb(183,146,118)" stroke-opacity="1" stroke-width="8" d=" M128.07000732421875,-176.38900756835938 C128.07000732421875,-176.38900756835938 85.42500305175781,-178.33200073242188 61.262001037597656,-156.73899841308594 C33.23099899291992,-131.69000244140625 37.23099899291992,-98.83899688720703 37.23099899291992,-98.83899688720703"></path></g><g opacity="1" transform="matrix(1,0,0,1,0,0)"><path stroke-linecap="round" stroke-linejoin="round" fill-opacity="0" stroke="rgb(61,29,16)" stroke-opacity="1" stroke-width="8" d=" M128.07000732421875,-176.38900756835938 C128.07000732421875,-176.38900756835938 85.42500305175781,-178.33200073242188 61.262001037597656,-156.73899841308594 C61.02199935913086,-156.5240020751953 60.784000396728516,-156.3090057373047 60.54899978637695,-156.093994140625"></path></g><g opacity="1" transform="matrix(1,0,0,1,0,0)"><path stroke-linecap="round" stroke-linejoin="round" fill-opacity="0" stroke="rgb(183,146,118)" stroke-opacity="1" stroke-width="8" d=" M17.12299919128418,-98.34400177001953 C17.12299919128418,-98.34400177001953 20.12299919128418,-129.718994140625 0.5649999976158142,-152.0330047607422 C-18.204999923706055,-173.447998046875 -53.61600112915039,-185.09500122070312 -114.85099792480469,-185.56100463867188"></path></g><g opacity="1" transform="matrix(1,0,0,1,0,0)"><path stroke-linecap="round" stroke-linejoin="round" fill-opacity="0" stroke="rgb(61,29,16)" stroke-opacity="1" stroke-width="8" d=" M1.4889999628067017,-150.95199584960938 C1.187000036239624,-151.31399536132812 0.8790000081062317,-151.6750030517578 0.5649999976158142,-152.0330047607422 C-18.204999923706055,-173.447998046875 -53.61600112915039,-185.09500122070312 -114.85099792480469,-185.56100463867188"></path></g></g><g style="display: block;" transform="matrix(1,0,0,1,269.99951171875,267.00048828125)" opacity="1"><g opacity="1" transform="matrix(1,0,0,1,0,0)"><path fill="url(#__lottie_element_20881)" fill-opacity="1" d=" M6.940999984741211,-109.6719970703125 C6.940999984741211,-91.20700073242188 -8.027999877929688,-76.23799896240234 -26.493000030517578,-76.23799896240234 C-44.95800018310547,-76.23799896240234 -59.928001403808594,-91.20700073242188 -59.928001403808594,-109.6719970703125 C-59.928001403808594,-128.13699340820312 -44.95800018310547,-143.10699462890625 -26.493000030517578,-143.10699462890625 C-8.027999877929688,-143.10699462890625 6.940999984741211,-128.13699340820312 6.940999984741211,-109.6719970703125z"></path><path stroke-linecap="round" stroke-linejoin="round" fill-opacity="0" stroke="rgb(30,30,30)" stroke-opacity="1" stroke-width="8" d=" M6.940999984741211,-109.6719970703125 C6.940999984741211,-91.20700073242188 -8.027999877929688,-76.23799896240234 -26.493000030517578,-76.23799896240234 C-44.95800018310547,-76.23799896240234 -59.928001403808594,-91.20700073242188 -59.928001403808594,-109.6719970703125 C-59.928001403808594,-128.13699340820312 -44.95800018310547,-143.10699462890625 -26.493000030517578,-143.10699462890625 C-8.027999877929688,-143.10699462890625 6.940999984741211,-128.13699340820312 6.940999984741211,-109.6719970703125z"></path></g><g opacity="1" transform="matrix(1,0,0,1,0,0)"><path fill="rgb(30,30,30)" fill-opacity="1" d=" M-3.505000114440918,-109.6719970703125 C-3.505000114440918,-96.97599792480469 -13.79699993133545,-86.68399810791016 -26.493000030517578,-86.68399810791016 C-39.18899917602539,-86.68399810791016 -49.481998443603516,-96.97599792480469 -49.481998443603516,-109.6719970703125 C-49.481998443603516,-122.36799621582031 -39.18899917602539,-132.66099548339844 -26.493000030517578,-132.66099548339844 C-13.79699993133545,-132.66099548339844 -3.505000114440918,-122.36799621582031 -3.505000114440918,-109.6719970703125z"></path></g><g opacity="1" transform="matrix(1,0,0,1,0,0)"><path fill="rgb(255,255,255)" fill-opacity="1" d=" M-19.3439998626709,-122.07099914550781 C-19.3439998626709,-118.12200164794922 -22.54400062561035,-114.9209976196289 -26.493000030517578,-114.9209976196289 C-30.441999435424805,-114.9209976196289 -33.643001556396484,-118.12200164794922 -33.643001556396484,-122.07099914550781 C-33.643001556396484,-126.0199966430664 -30.441999435424805,-129.2209930419922 -26.493000030517578,-129.2209930419922 C-22.54400062561035,-129.2209930419922 -19.3439998626709,-126.0199966430664 -19.3439998626709,-122.07099914550781z"></path></g></g><g style="display: block;" transform="matrix(1,0,0,1,269.99951171875,267.00048828125)" opacity="1"><g opacity="1" transform="matrix(1,0,0,1,0,0)"><path fill="url(#__lottie_element_20877)" fill-opacity="1" d=" M102.35099792480469,-114.09300231933594 C104.2959976196289,-97.33999633789062 93.61100006103516,-82.33699798583984 78.48699951171875,-80.58100128173828 C63.362998962402344,-78.82499694824219 49.5260009765625,-90.98200225830078 47.58100128173828,-107.73500061035156 C45.63600158691406,-124.48799896240234 56.31999969482422,-139.49099731445312 71.44400024414062,-141.2469940185547 C86.56800079345703,-143.0030059814453 100.40599822998047,-130.8459930419922 102.35099792480469,-114.09300231933594z"></path><path stroke-linecap="round" stroke-linejoin="round" fill-opacity="0" stroke="rgb(30,30,30)" stroke-opacity="1" stroke-width="8" d=" M102.35099792480469,-114.09300231933594 C104.2959976196289,-97.33999633789062 93.61100006103516,-82.33699798583984 78.48699951171875,-80.58100128173828 C63.362998962402344,-78.82499694824219 49.5260009765625,-90.98200225830078 47.58100128173828,-107.73500061035156 C45.63600158691406,-124.48799896240234 56.31999969482422,-139.49099731445312 71.44400024414062,-141.2469940185547 C86.56800079345703,-143.0030059814453 100.40599822998047,-130.8459930419922 102.35099792480469,-114.09300231933594z"></path></g><g opacity="1" transform="matrix(1,0,0,1,0,0)"><path fill="rgb(30,30,30)" fill-opacity="1" d=" M93.79499816894531,-113.0999984741211 C95.13200378417969,-101.58100128173828 87.78600311279297,-91.26499938964844 77.38700103759766,-90.05799865722656 C66.98799896240234,-88.85099792480469 57.472999572753906,-97.20899963378906 56.13600158691406,-108.72799682617188 C54.79899978637695,-120.24700164794922 62.14500045776367,-130.56399536132812 72.54399871826172,-131.77099609375 C82.94300079345703,-132.97799682617188 92.45800018310547,-124.61900329589844 93.79499816894531,-113.0999984741211z"></path></g><g opacity="1" transform="matrix(1,0,0,1,0,0)"><path fill="rgb(255,255,255)" fill-opacity="1" d=" M79.51599884033203,-122.84200286865234 C79.93199920654297,-119.26000213623047 77.64700317382812,-116.0510025024414 74.41300201416016,-115.6760025024414 C71.17900085449219,-115.30000305175781 68.22000122070312,-117.9000015258789 67.80400085449219,-121.48300170898438 C67.38800048828125,-125.06500244140625 69.6729965209961,-128.2740020751953 72.90699768066406,-128.6490020751953 C76.14099884033203,-129.02499389648438 79.0999984741211,-126.42400360107422 79.51599884033203,-122.84200286865234z"></path></g></g></g></svg>