<svg xmlns="http://www.w3.org/2000/svg" viewBox="0 0 512 512" width="512" height="512" style="width: 100%; height: 100%; transform: translate3d(0,0,0);" preserveAspectRatio="xMidYMid meet"><defs><clipPath id="__lottie_element_20926"><rect width="512" height="512" x="0" y="0"></rect></clipPath></defs><g clip-path="url(#__lottie_element_20926)"><g style="display: block;" transform="matrix(1,0,0,1,256,256)" opacity="1"><g opacity="0.1" transform="matrix(1,0,0,1,0,0)"><path fill="rgb(0,0,0)" fill-opacity="1" d=" M196.0800018310547,3.924999952316284 C196.0800018310547,112.18599700927734 108.31700134277344,199.9499969482422 0.0560000017285347,199.9499969482422 C-108.20500183105469,199.9499969482422 -195.968994140625,112.18599700927734 -195.968994140625,3.924999952316284 C-195.968994140625,-104.33599853515625 -108.20500183105469,-192.0989990234375 0.0560000017285347,-192.0989990234375 C108.31700134277344,-192.0989990234375 196.0800018310547,-104.33599853515625 196.0800018310547,3.924999952316284z"></path></g><g opacity="1" transform="matrix(1,0,0,1,0,0)"><g opacity="1" transform="matrix(1,0,0,1,0,0)"><path fill="rgb(255,173,0)" fill-opacity="1" d=" M188.93099975585938,-11.074999809265137 C188.93099975585938,93.23799896240234 104.36900329589844,177.80099487304688 0.0560000017285347,177.80099487304688 C-104.25700378417969,177.80099487304688 -188.82000732421875,93.23799896240234 -188.82000732421875,-11.074999809265137 C-188.82000732421875,-115.38800048828125 -104.25700378417969,-199.9499969482422 0.0560000017285347,-199.9499969482422 C104.36900329589844,-199.9499969482422 188.93099975585938,-115.38800048828125 188.93099975585938,-11.074999809265137z"></path><path stroke-linecap="round" stroke-linejoin="round" fill-opacity="0" stroke="rgb(255,118,42)" stroke-opacity="1" stroke-width="8" d=" M188.93099975585938,-11.074999809265137 C188.93099975585938,93.23799896240234 104.36900329589844,177.80099487304688 0.0560000017285347,177.80099487304688 C-104.25700378417969,177.80099487304688 -188.82000732421875,93.23799896240234 -188.82000732421875,-11.074999809265137 C-188.82000732421875,-115.38800048828125 -104.25700378417969,-199.9499969482422 0.0560000017285347,-199.9499969482422 C104.36900329589844,-199.9499969482422 188.93099975585938,-115.38800048828125 188.93099975585938,-11.074999809265137z"></path></g><g opacity="1" transform="matrix(1,0,0,1,0,0)"><path fill="rgb(255,207,0)" fill-opacity="1" d=" M168.46299743652344,-10.362000465393066 C167.00599670410156,84.66600036621094 90.4520034790039,160.5469970703125 -2.5260000228881836,159.1219940185547 C-95.50399780273438,157.69700622558594 -169.6959991455078,79.50599670410156 -168.24000549316406,-15.52299976348877 C-166.7830047607422,-110.5510025024414 -90.2300033569336,-186.4320068359375 2.747999906539917,-185.0070037841797 C95.72599792480469,-183.58200073242188 169.9199981689453,-105.39099884033203 168.46299743652344,-10.362000465393066z"></path></g><g opacity="0.9" transform="matrix(1,0,0,1,0,0)"><path fill="rgb(255,222,102)" fill-opacity="1" d=" M149.322998046875,-53.50299835205078 C149.322998046875,19.139999389648438 82.49400329589844,-38.32500076293945 0.0560000017285347,-38.32500076293945 C-82.38200378417969,-38.32500076293945 -149.21200561523438,19.139999389648438 -149.21200561523438,-53.50299835205078 C-149.21200561523438,-126.14600372314453 -82.38200378417969,-185.03599548339844 0.0560000017285347,-185.03599548339844 C82.49400329589844,-185.03599548339844 149.322998046875,-126.14600372314453 149.322998046875,-53.50299835205078z"></path></g><g opacity="1" transform="matrix(1,0,0,1,0,0)"><g opacity="1" transform="matrix(1,0,0,1,0,0)"><path stroke-linecap="round" stroke-linejoin="round" fill-opacity="0" stroke="rgb(255,255,255)" stroke-opacity="1" stroke-width="6" d=" M36.428001403808594,-180.8159942626953 C37.965999603271484,-180.4810028076172 39.5620002746582,-180.11199951171875 41.20600128173828,-179.70599365234375"></path></g><g opacity="1" transform="matrix(1,0,0,1,0,0)"><path stroke-linecap="round" stroke-linejoin="round" fill-opacity="0" stroke="rgb(255,255,255)" stroke-opacity="1" stroke-width="6" d=" M15.074000358581543,-184.03599548339844 C15.074000358581543,-184.03599548339844 19.94099998474121,-183.77499389648438 27.663999557495117,-182.4969940185547"></path></g></g></g></g><g style="display: block;" transform="matrix(1,0,0,1,256,256)" opacity="1"><g opacity="1" transform="matrix(1,0,0,1,0,0)"><g opacity="1" transform="matrix(1,0,0,1,0,0)"><path fill="rgb(255,225,156)" fill-opacity="1" d=" M-32.49599838256836,-59.68899917602539 C-32.49599838256836,-59.68899917602539 -49.74599838256836,-59.68899917602539 -49.74599838256836,-59.68899917602539 C-49.74599838256836,-59.68899917602539 -78.85700225830078,-59.68899917602539 -78.85700225830078,-59.68899917602539 C-78.85700225830078,-59.68899917602539 -96.10700225830078,-59.68899917602539 -96.10700225830078,-59.68899917602539 C-101.67400360107422,-59.68899917602539 -106.22899627685547,-55.029998779296875 -106.22899627685547,-49.334999084472656 C-106.22899627685547,-49.334999084472656 -106.22899627685547,-45.17900085449219 -106.22899627685547,-45.17900085449219 C-106.22899627685547,-39.48400115966797 -101.67400360107422,-34.82500076293945 -96.10700225830078,-34.82500076293945 C-96.10700225830078,-34.82500076293945 -78.85700225830078,-34.82500076293945 -78.85700225830078,-34.82500076293945 C-78.85700225830078,-34.82500076293945 -49.74599838256836,-34.82500076293945 -49.74599838256836,-34.82500076293945 C-49.74599838256836,-34.82500076293945 -32.49599838256836,-34.82500076293945 -32.49599838256836,-34.82500076293945 C-26.929000854492188,-34.82500076293945 -22.374000549316406,-39.48400115966797 -22.374000549316406,-45.17900085449219 C-22.374000549316406,-45.17900085449219 -22.374000549316406,-49.334999084472656 -22.374000549316406,-49.334999084472656 C-22.374000549316406,-55.029998779296875 -26.929000854492188,-59.68899917602539 -32.49599838256836,-59.68899917602539z"></path></g><g opacity="1" transform="matrix(1,0,0,1,0,0)"><path fill="rgb(255,173,0)" fill-opacity="1" d=" M-32.49599838256836,-66.5270004272461 C-32.49599838256836,-66.5270004272461 -49.74599838256836,-66.5270004272461 -49.74599838256836,-66.5270004272461 C-49.74599838256836,-66.5270004272461 -78.85700225830078,-66.5270004272461 -78.85700225830078,-66.5270004272461 C-78.85700225830078,-66.5270004272461 -96.10700225830078,-66.5270004272461 -96.10700225830078,-66.5270004272461 C-101.67400360107422,-66.5270004272461 -106.22899627685547,-61.867000579833984 -106.22899627685547,-56.172000885009766 C-106.22899627685547,-56.172000885009766 -106.22899627685547,-52.016998291015625 -106.22899627685547,-52.016998291015625 C-106.22899627685547,-46.321998596191406 -101.67400360107422,-41.6619987487793 -96.10700225830078,-41.6619987487793 C-96.10700225830078,-41.6619987487793 -78.85700225830078,-41.6619987487793 -78.85700225830078,-41.6619987487793 C-78.85700225830078,-41.6619987487793 -49.74599838256836,-41.6619987487793 -49.74599838256836,-41.6619987487793 C-49.74599838256836,-41.6619987487793 -32.49599838256836,-41.6619987487793 -32.49599838256836,-41.6619987487793 C-26.929000854492188,-41.6619987487793 -22.374000549316406,-46.321998596191406 -22.374000549316406,-52.016998291015625 C-22.374000549316406,-52.016998291015625 -22.374000549316406,-56.172000885009766 -22.374000549316406,-56.172000885009766 C-22.374000549316406,-61.867000579833984 -26.929000854492188,-66.5270004272461 -32.49599838256836,-66.5270004272461z"></path></g><g opacity="1" transform="matrix(1,0,0,1,0,0)"><path fill="rgb(143,58,0)" fill-opacity="1" d=" M-33.132999420166016,-61.37099838256836 C-33.132999420166016,-61.37099838256836 -49.41299819946289,-61.37099838256836 -49.41299819946289,-61.37099838256836 C-49.41299819946289,-61.37099838256836 -79.19000244140625,-61.37099838256836 -79.19000244140625,-61.37099838256836 C-79.19000244140625,-61.37099838256836 -95.47000122070312,-61.37099838256836 -95.47000122070312,-61.37099838256836 C-101.16500091552734,-61.37099838256836 -105.8239974975586,-56.71200180053711 -105.8239974975586,-51.016998291015625 C-105.8239974975586,-45.321998596191406 -101.16500091552734,-40.6619987487793 -95.47000122070312,-40.6619987487793 C-95.47000122070312,-40.6619987487793 -79.19000244140625,-40.6619987487793 -79.19000244140625,-40.6619987487793 C-79.19000244140625,-40.6619987487793 -49.41299819946289,-40.6619987487793 -49.41299819946289,-40.6619987487793 C-49.41299819946289,-40.6619987487793 -33.132999420166016,-40.6619987487793 -33.132999420166016,-40.6619987487793 C-27.437999725341797,-40.6619987487793 -22.77899932861328,-45.321998596191406 -22.77899932861328,-51.016998291015625 C-22.77899932861328,-56.71200180053711 -27.437999725341797,-61.37099838256836 -33.132999420166016,-61.37099838256836z"></path></g><g opacity="1" transform="matrix(1,0,0,1,0,0)"><path fill="rgb(107,32,0)" fill-opacity="1" d=" M-25.823999404907227,-58.33300018310547 C-27.694000244140625,-60.202999114990234 -30.284000396728516,-61.37300109863281 -33.13399887084961,-61.37300109863281 C-33.13399887084961,-61.37300109863281 -49.41299819946289,-61.37300109863281 -49.41299819946289,-61.37300109863281 C-49.41299819946289,-61.37300109863281 -79.19000244140625,-61.37300109863281 -79.19000244140625,-61.37300109863281 C-79.19000244140625,-61.37300109863281 -95.46900177001953,-61.37300109863281 -95.46900177001953,-61.37300109863281 C-98.31900024414062,-61.37300109863281 -100.90899658203125,-60.202999114990234 -102.77899932861328,-58.33300018310547 C-104.65899658203125,-56.452999114990234 -105.81900024414062,-53.862998962402344 -105.81900024414062,-51.01300048828125 C-105.81900024414062,-49.85300064086914 -105.62899780273438,-48.733001708984375 -105.26899719238281,-47.69300079345703 C-104.75900268554688,-49.222999572753906 -103.89900207519531,-50.58300018310547 -102.77899932861328,-51.702999114990234 C-100.90899658203125,-53.58300018310547 -98.31900024414062,-54.74300003051758 -95.46900177001953,-54.74300003051758 C-95.46900177001953,-54.74300003051758 -79.19000244140625,-54.74300003051758 -79.19000244140625,-54.74300003051758 C-79.19000244140625,-54.74300003051758 -49.41299819946289,-54.74300003051758 -49.41299819946289,-54.74300003051758 C-49.41299819946289,-54.74300003051758 -33.13399887084961,-54.74300003051758 -33.13399887084961,-54.74300003051758 C-30.284000396728516,-54.74300003051758 -27.694000244140625,-53.58300018310547 -25.823999404907227,-51.702999114990234 C-24.70400047302246,-50.58300018310547 -23.8439998626709,-49.222999572753906 -23.333999633789062,-47.69300079345703 C-22.974000930786133,-48.733001708984375 -22.784000396728516,-49.85300064086914 -22.784000396728516,-51.01300048828125 C-22.784000396728516,-53.862998962402344 -23.944000244140625,-56.452999114990234 -25.823999404907227,-58.33300018310547z"></path></g></g><g opacity="1" transform="matrix(1,0,0,1,0,0)"><g opacity="1" transform="matrix(1,0,0,1,0,0)"><path fill="rgb(255,225,156)" fill-opacity="1" d=" M95.24400329589844,-59.68899917602539 C95.24400329589844,-59.68899917602539 77.99299621582031,-59.68899917602539 77.99299621582031,-59.68899917602539 C77.99299621582031,-59.68899917602539 48.882999420166016,-59.68899917602539 48.882999420166016,-59.68899917602539 C48.882999420166016,-59.68899917602539 31.632999420166016,-59.68899917602539 31.632999420166016,-59.68899917602539 C26.06599998474121,-59.68899917602539 21.51099967956543,-55.029998779296875 21.51099967956543,-49.334999084472656 C21.51099967956543,-49.334999084472656 21.51099967956543,-45.17900085449219 21.51099967956543,-45.17900085449219 C21.51099967956543,-39.48400115966797 26.06599998474121,-34.82500076293945 31.632999420166016,-34.82500076293945 C31.632999420166016,-34.82500076293945 48.882999420166016,-34.82500076293945 48.882999420166016,-34.82500076293945 C48.882999420166016,-34.82500076293945 77.99299621582031,-34.82500076293945 77.99299621582031,-34.82500076293945 C77.99299621582031,-34.82500076293945 95.24400329589844,-34.82500076293945 95.24400329589844,-34.82500076293945 C100.81099700927734,-34.82500076293945 105.36599731445312,-39.48400115966797 105.36599731445312,-45.17900085449219 C105.36599731445312,-45.17900085449219 105.36599731445312,-49.334999084472656 105.36599731445312,-49.334999084472656 C105.36599731445312,-55.029998779296875 100.81099700927734,-59.68899917602539 95.24400329589844,-59.68899917602539z"></path></g><g opacity="1" transform="matrix(1,0,0,1,0,0)"><path fill="rgb(255,173,0)" fill-opacity="1" d=" M95.24400329589844,-66.5270004272461 C95.24400329589844,-66.5270004272461 77.99299621582031,-66.5270004272461 77.99299621582031,-66.5270004272461 C77.99299621582031,-66.5270004272461 48.882999420166016,-66.5270004272461 48.882999420166016,-66.5270004272461 C48.882999420166016,-66.5270004272461 31.632999420166016,-66.5270004272461 31.632999420166016,-66.5270004272461 C26.06599998474121,-66.5270004272461 21.51099967956543,-61.867000579833984 21.51099967956543,-56.172000885009766 C21.51099967956543,-56.172000885009766 21.51099967956543,-52.016998291015625 21.51099967956543,-52.016998291015625 C21.51099967956543,-46.321998596191406 26.06599998474121,-41.6619987487793 31.632999420166016,-41.6619987487793 C31.632999420166016,-41.6619987487793 48.882999420166016,-41.6619987487793 48.882999420166016,-41.6619987487793 C48.882999420166016,-41.6619987487793 77.99299621582031,-41.6619987487793 77.99299621582031,-41.6619987487793 C77.99299621582031,-41.6619987487793 95.24400329589844,-41.6619987487793 95.24400329589844,-41.6619987487793 C100.81099700927734,-41.6619987487793 105.36599731445312,-46.321998596191406 105.36599731445312,-52.016998291015625 C105.36599731445312,-52.016998291015625 105.36599731445312,-56.172000885009766 105.36599731445312,-56.172000885009766 C105.36599731445312,-61.867000579833984 100.81099700927734,-66.5270004272461 95.24400329589844,-66.5270004272461z"></path></g><g opacity="1" transform="matrix(1,0,0,1,0,0)"><path fill="rgb(143,58,0)" fill-opacity="1" d=" M94.60700225830078,-61.37099838256836 C94.60700225830078,-61.37099838256836 78.3270034790039,-61.37099838256836 78.3270034790039,-61.37099838256836 C78.3270034790039,-61.37099838256836 48.54899978637695,-61.37099838256836 48.54899978637695,-61.37099838256836 C48.54899978637695,-61.37099838256836 32.27000045776367,-61.37099838256836 32.27000045776367,-61.37099838256836 C26.575000762939453,-61.37099838256836 21.915000915527344,-56.71200180053711 21.915000915527344,-51.016998291015625 C21.915000915527344,-45.321998596191406 26.575000762939453,-40.6619987487793 32.27000045776367,-40.6619987487793 C32.27000045776367,-40.6619987487793 48.54899978637695,-40.6619987487793 48.54899978637695,-40.6619987487793 C48.54899978637695,-40.6619987487793 78.3270034790039,-40.6619987487793 78.3270034790039,-40.6619987487793 C78.3270034790039,-40.6619987487793 94.60700225830078,-40.6619987487793 94.60700225830078,-40.6619987487793 C100.302001953125,-40.6619987487793 104.96099853515625,-45.321998596191406 104.96099853515625,-51.016998291015625 C104.96099853515625,-56.71200180053711 100.302001953125,-61.37099838256836 94.60700225830078,-61.37099838256836z"></path></g><g opacity="1" transform="matrix(1,0,0,1,0,0)"><path fill="rgb(107,32,0)" fill-opacity="1" d=" M101.91600036621094,-58.33300018310547 C100.0459976196289,-60.202999114990234 97.45600128173828,-61.37300109863281 94.60600280761719,-61.37300109863281 C94.60600280761719,-61.37300109863281 78.3270034790039,-61.37300109863281 78.3270034790039,-61.37300109863281 C78.3270034790039,-61.37300109863281 48.54899978637695,-61.37300109863281 48.54899978637695,-61.37300109863281 C48.54899978637695,-61.37300109863281 32.27000045776367,-61.37300109863281 32.27000045776367,-61.37300109863281 C29.420000076293945,-61.37300109863281 26.829999923706055,-60.202999114990234 24.959999084472656,-58.33300018310547 C23.079999923706055,-56.452999114990234 21.920000076293945,-53.862998962402344 21.920000076293945,-51.01300048828125 C21.920000076293945,-49.85300064086914 22.110000610351562,-48.733001708984375 22.469999313354492,-47.69300079345703 C22.979999542236328,-49.222999572753906 23.84000015258789,-50.58300018310547 24.959999084472656,-51.702999114990234 C26.829999923706055,-53.58300018310547 29.420000076293945,-54.74300003051758 32.27000045776367,-54.74300003051758 C32.27000045776367,-54.74300003051758 48.54899978637695,-54.74300003051758 48.54899978637695,-54.74300003051758 C48.54899978637695,-54.74300003051758 78.3270034790039,-54.74300003051758 78.3270034790039,-54.74300003051758 C78.3270034790039,-54.74300003051758 94.60600280761719,-54.74300003051758 94.60600280761719,-54.74300003051758 C97.45600128173828,-54.74300003051758 100.0459976196289,-53.58300018310547 101.91600036621094,-51.702999114990234 C103.03600311279297,-50.58300018310547 103.89600372314453,-49.222999572753906 104.40599822998047,-47.69300079345703 C104.76599884033203,-48.733001708984375 104.95600128173828,-49.85300064086914 104.95600128173828,-51.01300048828125 C104.95600128173828,-53.862998962402344 103.7959976196289,-56.452999114990234 101.91600036621094,-58.33300018310547z"></path></g></g></g><g style="display: none;"><g><g><path></path></g><g><path></path></g><g><path></path></g><g><path></path></g></g><g><g><path></path></g><g><path></path></g><g><path></path></g><g><path></path></g></g></g><g style="display: none;"><g><path></path></g><g><path></path></g></g><g style="display: block;" transform="matrix(1,0,0,1,256,256)" opacity="1"><g opacity="1" transform="matrix(1,0,0,1,0,0)"><path fill="rgb(255,173,0)" fill-opacity="1" d=" M89.01200103759766,59.99700164794922 C89.01200103759766,59.99700164794922 -89.08999633789062,59.99700164794922 -89.08999633789062,59.99700164794922 C-94.78500366210938,59.99700164794922 -99.44400024414062,55.3380012512207 -99.44400024414062,49.643001556396484 C-99.44400024414062,49.643001556396484 -99.44400024414062,45.48699951171875 -99.44400024414062,45.48699951171875 C-99.44400024414062,39.79199981689453 -94.78500366210938,35.132999420166016 -89.08999633789062,35.132999420166016 C-89.08999633789062,35.132999420166016 89.01200103759766,35.132999420166016 89.01200103759766,35.132999420166016 C94.70700073242188,35.132999420166016 99.36599731445312,39.79199981689453 99.36599731445312,45.48699951171875 C99.36599731445312,45.48699951171875 99.36599731445312,49.643001556396484 99.36599731445312,49.643001556396484 C99.36599731445312,55.3380012512207 94.70700073242188,59.99700164794922 89.01200103759766,59.99700164794922z"></path></g><g opacity="1" transform="matrix(1,0,0,1,0,0)"><path fill="rgb(255,225,156)" fill-opacity="1" d=" M89.01200103759766,66.83499908447266 C89.01200103759766,66.83499908447266 -89.08999633789062,66.83499908447266 -89.08999633789062,66.83499908447266 C-94.78500366210938,66.83499908447266 -99.44400024414062,62.17499923706055 -99.44400024414062,56.47999954223633 C-99.44400024414062,56.47999954223633 -99.44400024414062,52.32500076293945 -99.44400024414062,52.32500076293945 C-99.44400024414062,46.630001068115234 -94.78500366210938,41.970001220703125 -89.08999633789062,41.970001220703125 C-89.08999633789062,41.970001220703125 89.01200103759766,41.970001220703125 89.01200103759766,41.970001220703125 C94.70700073242188,41.970001220703125 99.36599731445312,46.630001068115234 99.36599731445312,52.32500076293945 C99.36599731445312,52.32500076293945 99.36599731445312,56.47999954223633 99.36599731445312,56.47999954223633 C99.36599731445312,62.17499923706055 94.70700073242188,66.83499908447266 89.01200103759766,66.83499908447266z"></path></g><g opacity="1" transform="matrix(1,0,0,1,0,0)"><path fill="rgb(143,58,0)" fill-opacity="1" d=" M87.64600372314453,60.99700164794922 C87.64600372314453,60.99700164794922 -87.7239990234375,60.99700164794922 -87.7239990234375,60.99700164794922 C-93.41899871826172,60.99700164794922 -98.0780029296875,56.3380012512207 -98.0780029296875,50.643001556396484 C-98.0780029296875,50.643001556396484 -98.0780029296875,50.643001556396484 -98.0780029296875,50.643001556396484 C-98.0780029296875,44.948001861572266 -93.41899871826172,40.28799819946289 -87.7239990234375,40.28799819946289 C-87.7239990234375,40.28799819946289 87.64600372314453,40.28799819946289 87.64600372314453,40.28799819946289 C93.34100341796875,40.28799819946289 98,44.948001861572266 98,50.643001556396484 C98,50.643001556396484 98,50.643001556396484 98,50.643001556396484 C98,56.3380012512207 93.34100341796875,60.99700164794922 87.64600372314453,60.99700164794922z"></path></g><g opacity="1" transform="matrix(1,0,0,1,0,0)"><path fill="rgb(107,32,0)" fill-opacity="1" d=" M97.99700164794922,50.645999908447266 C97.99700164794922,51.805999755859375 97.80699920654297,52.92599868774414 97.4469985961914,53.965999603271484 C96.05699920654297,49.875999450683594 92.177001953125,46.91600036621094 87.64700317382812,46.91600036621094 C87.64700317382812,46.91600036621094 -87.7229995727539,46.91600036621094 -87.7229995727539,46.91600036621094 C-90.572998046875,46.91600036621094 -93.16300201416016,48.07600021362305 -95.03299713134766,49.95600128173828 C-96.15299987792969,51.07600021362305 -97.01300048828125,52.43600082397461 -97.52300262451172,53.965999603271484 C-97.88300323486328,52.92599868774414 -98.072998046875,51.805999755859375 -98.072998046875,50.645999908447266 C-98.072998046875,47.79600143432617 -96.91300201416016,45.20600128173828 -95.03299713134766,43.32600021362305 C-93.16300201416016,41.45600128173828 -90.572998046875,40.2859992980957 -87.7229995727539,40.2859992980957 C-87.7229995727539,40.2859992980957 87.64700317382812,40.2859992980957 87.64700317382812,40.2859992980957 C93.33699798583984,40.2859992980957 97.99700164794922,44.94599914550781 97.99700164794922,50.645999908447266z"></path></g></g></g></svg>