<svg xmlns="http://www.w3.org/2000/svg" viewBox="0 0 512 512" width="512" height="512" style="width: 100%; height: 100%; transform: translate3d(0,0,0);" preserveAspectRatio="xMidYMid meet"><defs><clipPath id="__lottie_element_21364"><rect width="512" height="512" x="0" y="0"></rect></clipPath><linearGradient id="__lottie_element_21391" spreadMethod="pad" gradientUnits="userSpaceOnUse" x1="20.839000701904297" y1="-186.71099853515625" x2="26.158000946044922" y2="-179.73599243164062"><stop offset="0%" stop-color="rgb(55,10,0)"></stop><stop offset="38%" stop-color="rgb(104,48,2)"></stop><stop offset="100%" stop-color="rgb(153,87,4)"></stop></linearGradient><linearGradient id="__lottie_element_21392" spreadMethod="pad" gradientUnits="userSpaceOnUse" x1="-12.545000076293945" y1="-187.9510040283203" x2="-7.02400016784668" y2="-180.25399780273438"><stop offset="0%" stop-color="rgb(55,10,0)"></stop><stop offset="38%" stop-color="rgb(104,48,2)"></stop><stop offset="100%" stop-color="rgb(153,87,4)"></stop></linearGradient></defs><g clip-path="url(#__lottie_element_21364)"><g style="display: block;" transform="matrix(0.9699999690055847,0,0,0.9699999690055847,264.82293701171875,263.2503356933594)" opacity="1"><g opacity="1" transform="matrix(1,0,0,1,0,0)"><path fill="rgb(255,209,64)" fill-opacity="1" d=" M-125.93399810791016,-205.5050048828125 C-123.16899871826172,-199.44500732421875 -117.8270034790039,-192.20599365234375 -121.11100006103516,-181.94200134277344 C-121.11100006103516,-181.94200134277344 -119.62999725341797,-167.16900634765625 -119.62999725341797,-167.16900634765625 C-119.62999725341797,-167.16900634765625 -137.91200256347656,-161.06199645996094 -137.91200256347656,-161.06199645996094 C-138.73500061035156,-167.16400146484375 -140.36000061035156,-173.89599609375 -140.36000061035156,-173.89599609375 C-150.4199981689453,-179.08200073242188 -148.24600219726562,-192.83200073242188 -148.24600219726562,-192.83200073242188"></path><path stroke-linecap="round" stroke-linejoin="round" fill-opacity="0" stroke="rgb(196,118,32)" stroke-opacity="1" stroke-width="6" d=" M-125.93399810791016,-205.5050048828125 C-123.16899871826172,-199.44500732421875 -117.8270034790039,-192.20599365234375 -121.11100006103516,-181.94200134277344 C-121.11100006103516,-181.94200134277344 -119.62999725341797,-167.16900634765625 -119.62999725341797,-167.16900634765625 C-119.62999725341797,-167.16900634765625 -137.91200256347656,-161.06199645996094 -137.91200256347656,-161.06199645996094 C-138.73500061035156,-167.16400146484375 -140.36000061035156,-173.89599609375 -140.36000061035156,-173.89599609375 C-150.4199981689453,-179.08200073242188 -148.24600219726562,-192.83200073242188 -148.24600219726562,-192.83200073242188"></path></g><g opacity="1" transform="matrix(1,0,0,1,0,0)"><g opacity="1" transform="matrix(1,0,0,1,0,0)"><path fill="rgb(255,209,64)" fill-opacity="1" d=" M-146.9149932861328,-208.6020050048828 C-146.9149932861328,-208.6020050048828 -153.6300048828125,-208.0229949951172 -153.6300048828125,-200.54299926757812 C-153.6300048828125,-193.06300354003906 -145.56700134277344,-188.13099670410156 -142.64100646972656,-196.54200744628906"></path><path stroke-linecap="round" stroke-linejoin="round" fill-opacity="0" stroke="rgb(196,118,32)" stroke-opacity="1" stroke-width="6" d=" M-146.9149932861328,-208.6020050048828 C-146.9149932861328,-208.6020050048828 -153.6300048828125,-208.0229949951172 -153.6300048828125,-200.54299926757812 C-153.6300048828125,-193.06300354003906 -145.56700134277344,-188.13099670410156 -142.64100646972656,-196.54200744628906"></path></g><g opacity="1" transform="matrix(1,0,0,1,0,0)"><path fill="rgb(255,209,64)" fill-opacity="1" d=" M-137.97500610351562,-195.74600219726562 C-137.97500610351562,-195.74600219726562 -145.3350067138672,-194.9320068359375 -146.76300048828125,-203.4739990234375 C-147.81900024414062,-209.79299926757812 -143.95399475097656,-216.16099548339844 -134.03700256347656,-214.73399353027344 C-134.03700256347656,-214.73399353027344 -134.58599853515625,-219.23300170898438 -134.58599853515625,-219.23300170898438 C-135.44700622558594,-231.6719970703125 -134.7530059814453,-236.65499877929688 -130.2050018310547,-236.65499877929688 C-129.92799377441406,-236.65499877929688 -129.66600036621094,-236.6300048828125 -129.41799926757812,-236.58099365234375 C-125.5999984741211,-235.8209991455078 -125.16500091552734,-229.34800720214844 -124.88899993896484,-221.44700622558594 C-124.5459976196289,-211.6510009765625 -122.6780014038086,-197.3179931640625 -122.6780014038086,-197.3179931640625"></path><path stroke-linecap="round" stroke-linejoin="round" fill-opacity="0" stroke="rgb(196,118,32)" stroke-opacity="1" stroke-width="6" d=" M-137.97500610351562,-195.74600219726562 C-137.97500610351562,-195.74600219726562 -145.3350067138672,-194.9320068359375 -146.76300048828125,-203.4739990234375 C-147.81900024414062,-209.79299926757812 -143.95399475097656,-216.16099548339844 -134.03700256347656,-214.73399353027344 C-134.03700256347656,-214.73399353027344 -134.58599853515625,-219.23300170898438 -134.58599853515625,-219.23300170898438 C-135.44700622558594,-231.6719970703125 -134.7530059814453,-236.65499877929688 -130.2050018310547,-236.65499877929688 C-129.92799377441406,-236.65499877929688 -129.66600036621094,-236.6300048828125 -129.41799926757812,-236.58099365234375 C-125.5999984741211,-235.8209991455078 -125.16500091552734,-229.34800720214844 -124.88899993896484,-221.44700622558594 C-124.5459976196289,-211.6510009765625 -122.6780014038086,-197.3179931640625 -122.6780014038086,-197.3179931640625"></path></g></g><g opacity="1" transform="matrix(1,0,0,1,0,0)"><path fill="rgb(255,209,64)" fill-opacity="1" d=" M-138.29299926757812,-188.072998046875 C-138.29299926757812,-188.072998046875 -139.82200622558594,-196.31199645996094 -135.4250030517578,-199.7989959716797 C-135.4250030517578,-199.7989959716797 -141.2830047607422,-215.21200561523438 -134.58599853515625,-219.23300170898438 C-129.322998046875,-222.39300537109375 -128.39100646972656,-210.88999938964844 -125.93399810791016,-205.5050048828125 C-123.16899871826172,-199.44500732421875 -117.8270034790039,-192.20599365234375 -121.11100006103516,-181.94200134277344"></path><path stroke-linecap="round" stroke-linejoin="round" fill-opacity="0" stroke="rgb(196,118,32)" stroke-opacity="1" stroke-width="6" d=" M-138.29299926757812,-188.072998046875 C-138.29299926757812,-188.072998046875 -139.82200622558594,-196.31199645996094 -135.4250030517578,-199.7989959716797 C-135.4250030517578,-199.7989959716797 -141.2830047607422,-215.21200561523438 -134.58599853515625,-219.23300170898438 C-129.322998046875,-222.39300537109375 -128.39100646972656,-210.88999938964844 -125.93399810791016,-205.5050048828125 C-123.16899871826172,-199.44500732421875 -117.8270034790039,-192.20599365234375 -121.11100006103516,-181.94200134277344"></path></g><g opacity="1" transform="matrix(1,0,0,1,0,0)"><path fill="rgb(249,120,194)" fill-opacity="1" d=" M-139.8800048828125,-156.0030059814453 C-139.8800048828125,-156.0030059814453 -141.7570037841797,-167.57000732421875 -141.7570037841797,-167.57000732421875 C-141.7570037841797,-167.57000732421875 -129.6820068359375,-168.63999938964844 -119.62999725341797,-175.98500061035156 C-119.62999725341797,-175.98500061035156 -117.91899871826172,-162.74899291992188 -117.91899871826172,-162.74899291992188"></path><path stroke-linecap="round" stroke-linejoin="round" fill-opacity="0" stroke="rgb(206,36,137)" stroke-opacity="1" stroke-width="6" d=" M-139.8800048828125,-156.0030059814453 C-139.8800048828125,-156.0030059814453 -141.7570037841797,-167.57000732421875 -141.7570037841797,-167.57000732421875 C-141.7570037841797,-167.57000732421875 -129.6820068359375,-168.63999938964844 -119.62999725341797,-175.98500061035156 C-119.62999725341797,-175.98500061035156 -117.91899871826172,-162.74899291992188 -117.91899871826172,-162.74899291992188"></path></g></g><g style="display: block;" transform="matrix(-0.9698523283004761,-0.016928836703300476,-0.016928836703300476,0.9698523283004761,289.5191345214844,238.3994140625)" opacity="1"><g opacity="1" transform="matrix(1,0,0,1,0,0)"><path fill="rgb(151,64,172)" fill-opacity="1" d=" M142.45700073242188,-141.25 C133.67999267578125,-118.60700225830078 126.25399780273438,-99.9749984741211 122.26599884033203,-94.80799865722656 C112.24299621582031,-100.4800033569336 85.48400115966797,-107.9010009765625 67.06900024414062,-110.5999984741211 C51.75400161743164,-112.84500122070312 50.066001892089844,-94.625 59.138999938964844,-84.68199920654297 C65.93399810791016,-77.23600006103516 89.89800262451172,-67.96199798583984 99.57099914550781,-64.60900115966797 C107.41600036621094,-61.88999938964844 126.20999908447266,-55.986000061035156 136.37399291992188,-60.33599853515625 C146.87100219726562,-64.8290023803711 165.13900756835938,-106.90399932861328 171.3800048828125,-131.843994140625 C171.3800048828125,-131.843994140625 158.4709930419922,-130.79100036621094 142.45700073242188,-141.25z"></path><path stroke-linecap="round" stroke-linejoin="round" fill-opacity="0" stroke="rgb(73,0,91)" stroke-opacity="1" stroke-width="6" d=" M142.45700073242188,-141.25 C133.67999267578125,-118.60700225830078 126.25399780273438,-99.9749984741211 122.26599884033203,-94.80799865722656 C112.24299621582031,-100.4800033569336 85.48400115966797,-107.9010009765625 67.06900024414062,-110.5999984741211 C51.75400161743164,-112.84500122070312 50.066001892089844,-94.625 59.138999938964844,-84.68199920654297 C65.93399810791016,-77.23600006103516 89.89800262451172,-67.96199798583984 99.57099914550781,-64.60900115966797 C107.41600036621094,-61.88999938964844 126.20999908447266,-55.986000061035156 136.37399291992188,-60.33599853515625 C146.87100219726562,-64.8290023803711 165.13900756835938,-106.90399932861328 171.3800048828125,-131.843994140625 C171.3800048828125,-131.843994140625 158.4709930419922,-130.79100036621094 142.45700073242188,-141.25z"></path></g><g opacity="1" transform="matrix(1,0,0,1,0,0)"><path fill="rgb(183,87,206)" fill-opacity="1" d=" M143.51400756835938,-136.76600646972656 C145.7480010986328,-136.32000732421875 147.77000427246094,-136.218994140625 147.55799865722656,-133.8260040283203 C142.66799926757812,-119.38899993896484 134.22999572753906,-94.83999633789062 126.25299835205078,-87.79100036621094 C122.27799987792969,-84.27799987792969 93.49700164794922,-97.13300323486328 74.03299713134766,-100.93900299072266 C69.33799743652344,-101.85700225830078 56.91699981689453,-104.38999938964844 57.125999450683594,-93.11100006103516 C57.12699890136719,-93.04499816894531 50.500999450683594,-99.52799987792969 58.35200119018555,-104.98600006103516 C70.0009994506836,-113.08499908447266 114.36100006103516,-93.76599884033203 124.37000274658203,-93.67400360107422 C132.5540008544922,-104.33499908447266 143.51400756835938,-136.76600646972656 143.51400756835938,-136.76600646972656z"></path></g><g opacity="0.3" transform="matrix(1,0,0,1,0,0)"><path fill="rgb(50,0,61)" fill-opacity="1" d=" M97.11799621582031,-100.63500213623047 C91.5989990234375,-95.3219985961914 109.11599731445312,-62.435001373291016 145.052001953125,-75.29199981689453 C140.2689971923828,-41.96099853515625 60.637001037597656,-82.06700134277344 56.50699996948242,-92.96499633789062 C46.137001037597656,-120.3290023803711 96.5989990234375,-100.50900268554688 97.11799621582031,-100.63500213623047z"></path></g></g><g style="display: none;"><g><path></path><path stroke-linecap="round" stroke-linejoin="round" fill-opacity="0"></path></g><g><path></path><path stroke-linecap="round" stroke-linejoin="round" fill-opacity="0"></path></g></g><g style="display: none;"><g><path></path><path stroke-linecap="round" stroke-linejoin="round" fill-opacity="0"></path></g><g><path></path></g><g><path></path></g></g><g style="display: none;"><g><path></path><path stroke-linecap="round" stroke-linejoin="round" fill-opacity="0"></path></g><g><g><path></path></g></g></g><g style="display: none;"><g><path></path><path stroke-linecap="round" stroke-linejoin="round" fill-opacity="0"></path></g><g><g><path></path></g></g><g><path></path></g><g><path></path></g></g><g style="display: block;" transform="matrix(0.9700000286102295,0,0,0.9700000286102295,256.1499938964844,269.260009765625)" opacity="1"><g opacity="1" transform="matrix(1,0,0,1,0,0)"><g opacity="1" transform="matrix(1,0,0,1,0,0)"><path fill="rgb(28,45,44)" fill-opacity="1" d=" M-51.67100143432617,209.02699279785156 C-51.67100143432617,209.02699279785156 -50.17100143432617,222.7449951171875 -52.69499969482422,236.46200561523438 C-52.69499969482422,236.46200561523438 -66.03500366210938,236.46200561523438 -66.03500366210938,236.46200561523438 C-66.03500366210938,236.46200561523438 -67.75199890136719,227.14300537109375 -67.75199890136719,227.14300537109375 C-70.51899719238281,227.47799682617188 -76.78099822998047,236.468994140625 -83.88300323486328,236.46200561523438 C-93.48300170898438,236.17100524902344 -126.6449966430664,236.46200561523438 -130.13600158691406,236.46200561523438 C-133.6269989013672,236.46200561523438 -132.22000122070312,226.3800048828125 -122.29499816894531,223.0279998779297 C-101.58799743652344,216.03500366210938 -96.04299926757812,212.30799865722656 -96.04299926757812,212.30799865722656 C-96.04299926757812,212.30799865722656 -51.67100143432617,209.02699279785156 -51.67100143432617,209.02699279785156z"></path><path stroke-linecap="round" stroke-linejoin="round" fill-opacity="0" stroke="rgb(0,0,0)" stroke-opacity="1" stroke-width="6" d=" M-51.67100143432617,209.02699279785156 C-51.67100143432617,209.02699279785156 -50.17100143432617,222.7449951171875 -52.69499969482422,236.46200561523438 C-52.69499969482422,236.46200561523438 -66.03500366210938,236.46200561523438 -66.03500366210938,236.46200561523438 C-66.03500366210938,236.46200561523438 -67.75199890136719,227.14300537109375 -67.75199890136719,227.14300537109375 C-70.51899719238281,227.47799682617188 -76.78099822998047,236.468994140625 -83.88300323486328,236.46200561523438 C-93.48300170898438,236.17100524902344 -126.6449966430664,236.46200561523438 -130.13600158691406,236.46200561523438 C-133.6269989013672,236.46200561523438 -132.22000122070312,226.3800048828125 -122.29499816894531,223.0279998779297 C-101.58799743652344,216.03500366210938 -96.04299926757812,212.30799865722656 -96.04299926757812,212.30799865722656 C-96.04299926757812,212.30799865722656 -51.67100143432617,209.02699279785156 -51.67100143432617,209.02699279785156z"></path></g></g><g opacity="1" transform="matrix(1,0,0,1,0,0)"><path fill="rgb(51,74,86)" fill-opacity="1" d=" M-127.00499725341797,229.9949951171875 C-127.00499725341797,229.9949951171875 -110.16300201416016,231.36700439453125 -88.86199951171875,225.5540008544922 C-81.52899932861328,223.11000061035156 -94.36100006103516,215.24000549316406 -99.19300079345703,217.52499389648438 C-113.94300079345703,224.49899291992188 -124.50499725341797,225.0570068359375 -127.00499725341797,229.9949951171875z"></path></g></g><g style="display: block;" transform="matrix(0.9700000286102295,0,0,0.9700000286102295,256.1499938964844,269.260009765625)" opacity="1"><g opacity="1" transform="matrix(1,0,0,1,0,0)"><path fill="rgb(94,29,109)" fill-opacity="1" d=" M23.952999114990234,-34.20800018310547 C0.47099998593330383,-46.29499816894531 -35.604000091552734,-24.062000274658203 -35.604000091552734,-24.062000274658203 C-35.604000091552734,2.6989998817443848 -35.604000091552734,18.579999923706055 -35.604000091552734,18.579999923706055 C-43.27399826049805,27.917999267578125 -84.7229995727539,80.91000366210938 -88.60399627685547,95.28399658203125 C-92.95500183105469,108.54000091552734 -96.04299926757812,212.30799865722656 -96.04299926757812,212.30799865722656 C-66.77999877929688,219.39999389648438 -49.060001373291016,207.58900451660156 -49.060001373291016,207.58900451660156 C-46.63100051879883,169.8939971923828 -47.84299850463867,121.46900177001953 -44.470001220703125,111.33399963378906 C-44.470001220703125,111.33399963378906 -3.5859999656677246,62.183998107910156 12.194999694824219,52.066001892089844 C27.97599983215332,41.948001861572266 27.97599983215332,41.946998596191406 27.97599983215332,41.946998596191406 C27.97599983215332,41.946998596191406 47.43600082397461,-22.121000289916992 23.952999114990234,-34.20800018310547z"></path></g><g opacity="0.4" transform="matrix(1,0,0,1,0,0)"><path fill="rgb(50,0,61)" fill-opacity="1" d=" M29.6200008392334,3.0989999771118164 C29.6200008392334,3.0989999771118164 -3.130000114440918,9.932999610900879 11.267000198364258,47.43000030517578 C11.267000198364258,47.43000030517578 -32.880001068115234,90.3489990234375 -47.630001068115234,110.30699920654297 C-47.630001068115234,110.30699920654297 -50.2130012512207,147.8090057373047 -50.2130012512207,147.8090057373047 C-50.641998291015625,93.4520034790039 -65.35299682617188,109.93900299072266 -58.834999084472656,103.89199829101562 C-19.341999053955078,67.25599670410156 -13.517999649047852,42.891998291015625 -18.639999389648438,34.1349983215332 C-29.54599952697754,15.48900032043457 -52.01499938964844,44.50600051879883 -52.01499938964844,44.50600051879883 C-52.01499938964844,44.50600051879883 -32.2130012512207,19.516000747680664 -32.2130012512207,19.516000747680664 C-32.2130012512207,19.516000747680664 -34.709999084472656,-41.96900177001953 -34.709999084472656,-41.96900177001953 C-34.709999084472656,-41.96900177001953 21.125999450683594,-41.96900177001953 21.125999450683594,-41.96900177001953 C21.125999450683594,-41.96900177001953 29.6200008392334,3.0989999771118164 29.6200008392334,3.0989999771118164z"></path></g><g opacity="1" transform="matrix(1,0,0,1,0,0)"><path stroke-linecap="round" stroke-linejoin="round" fill-opacity="0" stroke="rgb(50,0,61)" stroke-opacity="1" stroke-width="6" d=" M-9.192999839782715,-35.33100128173828 C-23.740999221801758,-31.37299919128418 -35.604000091552734,-24.062000274658203 -35.604000091552734,-24.062000274658203 C-35.604000091552734,2.6989998817443848 -35.604000091552734,18.579999923706055 -35.604000091552734,18.579999923706055 C-43.27399826049805,27.917999267578125 -84.7229995727539,80.91000366210938 -88.60399627685547,95.28399658203125 C-92.95500183105469,108.54000091552734 -96.04299926757812,212.30799865722656 -96.04299926757812,212.30799865722656 C-66.77999877929688,219.39999389648438 -49.060001373291016,207.58900451660156 -49.060001373291016,207.58900451660156 C-46.63100051879883,169.8939971923828 -47.84299850463867,121.46900177001953 -44.470001220703125,111.33399963378906 C-44.470001220703125,111.33399963378906 -3.5859999656677246,62.183998107910156 12.194999694824219,52.066001892089844 C13.692000389099121,51.10599899291992 15.04800033569336,50.23699951171875 16.27400016784668,49.45000076293945"></path></g></g><g style="display: block;" transform="matrix(0.9700000286102295,0,0,0.9700000286102295,256.1499938964844,269.260009765625)" opacity="1"><g opacity="1" transform="matrix(1,0,0,1,0,0)"><path fill="rgb(28,45,44)" fill-opacity="1" d=" M88.25700378417969,234.2270050048828 C84.96099853515625,237.03799438476562 83.60900115966797,242.45199584960938 85.57499694824219,244.78700256347656 C87.73200225830078,247.34800720214844 102.33499908447266,246.6490020751953 114.4489974975586,243.6750030517578 C121.2490005493164,242.0050048828125 135.04400634765625,233.23399353027344 135.22900390625,232.30999755859375 C135.41400146484375,231.38600158691406 135.22900390625,225.91099548339844 135.22900390625,225.91099548339844 C135.22900390625,225.91099548339844 135.8209991455078,232.0540008544922 135.8209991455078,232.0540008544922 C135.8209991455078,232.0540008544922 141.76800537109375,229.95599365234375 142.60699462890625,229.32699584960938 C143.4459991455078,228.697998046875 142.50900268554688,213.802001953125 136.58700561523438,205.0590057373047 C130.66600036621094,196.3159942626953 93.34100341796875,229.88999938964844 88.25700378417969,234.2270050048828z"></path><path stroke-linecap="round" stroke-linejoin="round" fill-opacity="0" stroke="rgb(0,0,0)" stroke-opacity="1" stroke-width="6" d=" M88.25700378417969,234.2270050048828 C84.96099853515625,237.03799438476562 83.60900115966797,242.45199584960938 85.57499694824219,244.78700256347656 C87.73200225830078,247.34800720214844 102.33499908447266,246.6490020751953 114.4489974975586,243.6750030517578 C121.2490005493164,242.0050048828125 135.04400634765625,233.23399353027344 135.22900390625,232.30999755859375 C135.41400146484375,231.38600158691406 135.22900390625,225.91099548339844 135.22900390625,225.91099548339844 C135.22900390625,225.91099548339844 135.8209991455078,232.0540008544922 135.8209991455078,232.0540008544922 C135.8209991455078,232.0540008544922 141.76800537109375,229.95599365234375 142.60699462890625,229.32699584960938 C143.4459991455078,228.697998046875 142.50900268554688,213.802001953125 136.58700561523438,205.0590057373047 C130.66600036621094,196.3159942626953 93.34100341796875,229.88999938964844 88.25700378417969,234.2270050048828z"></path></g><g opacity="1" transform="matrix(1,0,0,1,0,0)"><g opacity="1" transform="matrix(1,0,0,1,0,0)"><path fill="rgb(51,74,86)" fill-opacity="1" d=" M106.04299926757812,237.00999450683594 C112.4530029296875,235.7899932861328 135.2449951171875,225.0570068359375 118.87000274658203,216.9320068359375 C114.87200164794922,214.947998046875 92.77400207519531,233.48399353027344 91.43199920654297,234.9949951171875 C86.80999755859375,240.1959991455078 99.63300323486328,238.24000549316406 106.04299926757812,237.00999450683594z"></path></g></g></g><g style="display: block;" transform="matrix(0.9700000286102295,0,0,0.9700000286102295,256.1499938964844,269.260009765625)" opacity="1"><g opacity="1" transform="matrix(1,0,0,1,0,0)"><path fill="rgb(94,29,109)" fill-opacity="1" d=" M9.95300006866455,48.3489990234375 C14.619999885559082,57.68199920654297 31.12299919128418,84.77799987792969 60.152000427246094,127.04399871826172 C64.53900146484375,135.47000122070312 81.64299774169922,170.7169952392578 88.16799926757812,197.5260009765625 C91.43099975585938,210.9340057373047 92.23200225830078,225.27999877929688 92.23200225830078,225.27999877929688 C92.23200225830078,225.27999877929688 103.16400146484375,228.49000549316406 120.76899719238281,220.43299865722656 C136.07899475097656,213.42599487304688 138.2949981689453,202.593994140625 138.2949981689453,202.593994140625 C138.2949981689453,202.593994140625 134.75999450683594,189.26600646972656 127.39099884033203,170.64599609375 C120.63300323486328,153.56900024414062 111.9530029296875,137.45199584960938 100.08300018310547,113.87699890136719 C88.75299835205078,90.9520034790039 78.66400146484375,52.0989990234375 75.85900115966797,41.72800064086914 C70.16799926757812,20.684999465942383 52.959999084472656,-8.824999809265137 39.952999114990234,-25.81800079345703"></path><path stroke-linecap="round" stroke-linejoin="round" fill-opacity="0" stroke="rgb(50,0,61)" stroke-opacity="1" stroke-width="6" d=" M9.95300006866455,48.3489990234375 C14.619999885559082,57.68199920654297 31.12299919128418,84.77799987792969 60.152000427246094,127.04399871826172 C64.53900146484375,135.47000122070312 81.64299774169922,170.7169952392578 88.16799926757812,197.5260009765625 C91.43099975585938,210.9340057373047 92.23200225830078,225.27999877929688 92.23200225830078,225.27999877929688 C92.23200225830078,225.27999877929688 103.16400146484375,228.49000549316406 120.76899719238281,220.43299865722656 C136.07899475097656,213.42599487304688 138.2949981689453,202.593994140625 138.2949981689453,202.593994140625 C138.2949981689453,202.593994140625 134.75999450683594,189.26600646972656 127.39099884033203,170.64599609375 C120.63300323486328,153.56900024414062 111.9530029296875,137.45199584960938 100.08300018310547,113.87699890136719 C88.75299835205078,90.9520034790039 78.66400146484375,52.0989990234375 75.85900115966797,41.72800064086914 C70.16799926757812,20.684999465942383 52.959999084472656,-8.824999809265137 39.952999114990234,-25.81800079345703"></path></g><g opacity="1" transform="matrix(1,0,0,1,0,0)"><g opacity="1" transform="matrix(1,0,0,1,0,0)"><path fill="rgb(122,40,142)" fill-opacity="1" d=" M51.25600051879883,13.454999923706055 C30.378000259399414,21.297000885009766 38.301998138427734,56.52799987792969 53.25600051879883,87.55500030517578 C64.66400146484375,111.2229995727539 68.13300323486328,113.91600036621094 72.36599731445312,118.48999786376953 C82.7979965209961,129.76199340820312 101.29399871826172,135.93499755859375 88.1520004272461,93.2760009765625 C76.30999755859375,63.999000549316406 68.28600311279297,7.058000087738037 51.25600051879883,13.454999923706055z"></path></g></g><g opacity="0.5" transform="matrix(1,0,0,1,0,0)"><path fill="rgb(183,87,206)" fill-opacity="1" d=" M96.91200256347656,114.26599884033203 C96.91200256347656,114.26599884033203 81.9540023803711,91.3489990234375 69.78700256347656,55.8489990234375 C60.97700119018555,30.14299964904785 55.709999084472656,18.1200008392334 55.709999084472656,18.1200008392334 C55.709999084472656,18.1200008392334 57.70800018310547,7.057000160217285 57.70800018310547,7.057000160217285 C63.70800018310547,17.316999435424805 68.60600280761719,27.961999893188477 72.38600158691406,41.93199920654297 C75.18599700927734,52.301998138427734 85.58200073242188,91.33599853515625 96.91200256347656,114.26599884033203z"></path></g><g opacity="0.4" transform="matrix(1,0,0,1,0,0)"><path fill="rgb(50,0,61)" fill-opacity="1" d=" M59.137001037597656,119.60199737548828 C62.880001068115234,124.10600280761719 72.48799896240234,136.34300231933594 85.16300201416016,135.82200622558594 C96.16100311279297,135.3699951171875 86.12799835205078,141.64700317382812 83.4280014038086,150.29800415039062 C79.63099670410156,162.46499633789062 84.78700256347656,176.01600646972656 84.78700256347656,176.01600646972656 C81.99600219726562,168.46200561523438 78.7229995727539,160.12399291992188 75.03800201416016,151.61500549316406 C70.3550033569336,140.802001953125 65.00700378417969,129.71200561523438 59.137001037597656,119.60199737548828z"></path></g></g><g style="display: block;" transform="matrix(0.968670666217804,0.050765879452228546,-0.050765879452228546,0.968670666217804,256.9355773925781,269.2910461425781)" opacity="1"><g opacity="1" transform="matrix(1,0,0,1,0,0)"><path fill="rgb(216,149,53)" fill-opacity="1" d=" M-18.264999389648438,-88.12699890136719 C-18.26799964904785,-114.08599853515625 -7.881999969482422,-143.447998046875 -7.881999969482422,-143.447998046875 C-7.881999969482422,-143.447998046875 31.976999282836914,-151.79400634765625 31.976999282836914,-151.79400634765625 C31.976999282836914,-151.79400634765625 28.88599967956543,-141.56500244140625 30.06100082397461,-133.5399932861328"></path><path stroke-linecap="round" stroke-linejoin="round" fill-opacity="0" stroke="rgb(178,98,18)" stroke-opacity="1" stroke-width="6" d=" M-18.264999389648438,-88.12699890136719 C-18.26799964904785,-114.08599853515625 -7.881999969482422,-143.447998046875 -7.881999969482422,-143.447998046875 C-7.881999969482422,-143.447998046875 31.976999282836914,-151.79400634765625 31.976999282836914,-151.79400634765625 C31.976999282836914,-151.79400634765625 28.88599967956543,-141.56500244140625 30.06100082397461,-133.5399932861328"></path></g><g opacity="1" transform="matrix(1,0,0,1,0,0)"><path fill="rgb(255,209,64)" fill-opacity="1" d=" M-12.842000007629395,-118.06700134277344 C-11.053999900817871,-124.18099975585938 -3.428999900817871,-125.71399688720703 0.39500001072883606,-124.56900024414062 C5.892000198364258,-122.9229965209961 6.25600004196167,-116.34200286865234 -1.6050000190734863,-107.10900115966797 C-9.46500015258789,-97.8759994506836 -22.572999954223633,-84.802001953125 -12.842000007629395,-118.06700134277344z"></path></g></g><g style="display: block;" transform="matrix(0.968670666217804,0.050765879452228546,-0.050765879452228546,0.968670666217804,256.9355773925781,269.2910461425781)" opacity="1"><g opacity="1" transform="matrix(1,0,0,1,0,0)"><path fill="rgb(122,40,142)" fill-opacity="1" d=" M19.5,-122.75 C19.5,-122.75 -18.25,-91.5 -18.25,-91.5 C-18.25,-91.5 -13.75,-125.5 -10.458000183105469,-139.2949981689453 C-34.02799987792969,-122.46099853515625 -39.215999603271484,-106.33100128173828 -41.47700119018555,-91.03700256347656 C-43.915000915527344,-74.54299926757812 -40.95899963378906,-8.824000358581543 -40.95899963378906,-8.824000358581543 C-40.95899963378906,-8.824000358581543 -35.07099914550781,-14.881999969482422 -35.07099914550781,-14.881999969482422 C-35.07099914550781,-14.881999969482422 -30.70800018310547,-19.371000289916992 -30.70800018310547,-19.371000289916992 C-30.70800018310547,-19.371000289916992 -14.26200008392334,-6.020999908447266 -14.26200008392334,-6.020999908447266 C9.357000350952148,-7.622000217437744 30.06100082397461,-20.277000427246094 30.06100082397461,-20.277000427246094 C30.06100082397461,-20.277000427246094 43.029998779296875,-103.41000366210938 43.029998779296875,-103.41000366210938"></path><path stroke-linecap="round" stroke-linejoin="round" fill-opacity="0" stroke="rgb(50,0,61)" stroke-opacity="1" stroke-width="6" d=" M19.5,-122.75 C19.5,-122.75 -18.25,-91.5 -18.25,-91.5 C-18.25,-91.5 -13.75,-125.5 -10.458000183105469,-139.2949981689453 C-34.02799987792969,-122.46099853515625 -39.215999603271484,-106.33100128173828 -41.47700119018555,-91.03700256347656 C-43.915000915527344,-74.54299926757812 -40.95899963378906,-8.824000358581543 -40.95899963378906,-8.824000358581543 C-40.95899963378906,-8.824000358581543 -35.07099914550781,-14.881999969482422 -35.07099914550781,-14.881999969482422 C-35.07099914550781,-14.881999969482422 -30.70800018310547,-19.371000289916992 -30.70800018310547,-19.371000289916992 C-30.70800018310547,-19.371000289916992 -14.26200008392334,-6.020999908447266 -14.26200008392334,-6.020999908447266 C9.357000350952148,-7.622000217437744 30.06100082397461,-20.277000427246094 30.06100082397461,-20.277000427246094 C30.06100082397461,-20.277000427246094 43.029998779296875,-103.41000366210938 43.029998779296875,-103.41000366210938"></path></g><g opacity="0.3" transform="matrix(1,0,0,1,0,0)"><path fill="rgb(50,0,61)" fill-opacity="1" d=" M-14.510000228881836,-7.519999980926514 C-14.510000228881836,-7.519999980926514 -30.709999084472656,-19.3700008392334 -30.709999084472656,-19.3700008392334 C-30.709999084472656,-19.3700008392334 -38.505001068115234,-15.692999839782715 -38.505001068115234,-15.692999839782715 C-38.505001068115234,-15.692999839782715 -41.31999969482422,-74.54399871826172 -38.880001068115234,-91.04399871826172 C-37.439998626708984,-100.75399780273438 -13.77299976348877,-157.55799865722656 -20.202999114990234,-87.31900024414062 C-23.856000900268555,-75.8489990234375 -27.5,-26.75 -14.510000228881836,-7.519999980926514z"></path></g><g opacity="1" transform="matrix(1,0,0,1,0,0)"><path fill="rgb(226,192,40)" fill-opacity="1" d=" M-17.472000122070312,-33.25199890136719 C-17.466999053955078,-26.860000610351562 -26.41699981689453,-25.743000030517578 -26.256999969482422,-34.02399826049805 C-26.134000778198242,-40.40399932861328 -17.476999282836914,-40.31800079345703 -17.472000122070312,-33.25199890136719z"></path></g><g opacity="1" transform="matrix(1,0,0,1,0,0)"><path fill="rgb(226,192,40)" fill-opacity="1" d=" M-18.475000381469727,-53.74800109863281 C-18.469999313354492,-47.35599899291992 -27.420000076293945,-46.23899841308594 -27.260000228881836,-54.52000045776367 C-27.136999130249023,-60.900001525878906 -18.479999542236328,-60.81399917602539 -18.475000381469727,-53.74800109863281z"></path></g><g opacity="1" transform="matrix(1,0,0,1,0,0)"><path fill="rgb(226,192,40)" fill-opacity="1" d=" M-17.829999923706055,-73.37699890136719 C-17.825000762939453,-66.98500061035156 -26.774999618530273,-65.86799621582031 -26.614999771118164,-74.14900207519531 C-26.492000579833984,-80.52899932861328 -17.834999084472656,-80.44300079345703 -17.829999923706055,-73.37699890136719z"></path></g><g opacity="0.3" transform="matrix(1,0,0,1,0,0)"><path fill="rgb(218,119,242)" fill-opacity="1" d=" M-10.979000091552734,-75.16100311279297 C-34.237998962402344,-73.26699829101562 -40.20600128173828,-85.1510009765625 -36.45399856567383,-98.9520034790039 C-36.45399856567383,-98.9520034790039 -32.027000427246094,-116.0199966430664 -20.885000228881836,-122.7770004272461 C-20.885000228881836,-122.7770004272461 -28.509000778198242,-68.87300109863281 8.967000007629395,-116.64700317382812 C16.059999465942383,-118.4800033569336 20.285999298095703,-112.25599670410156 19.952999114990234,-107.6760025024414 C19.04599952697754,-95.20099639892578 10.470999717712402,-76.90699768066406 -10.979000091552734,-75.16100311279297z"></path></g></g><g style="display: block;" transform="matrix(0.968670666217804,0.050765879452228546,-0.050765879452228546,0.968670666217804,256.9355773925781,269.2910461425781)" opacity="1"><g opacity="1" transform="matrix(1,0,0,1,0,0)"><path fill="rgb(82,25,96)" fill-opacity="1" d=" M-39.81100082397461,-99.4010009765625 C-47.75899887084961,-80.9010009765625 -40.75,-16.25 -36.78099822998047,18.489999771118164 C-42,16.25 -63.284000396728516,14.10099983215332 -80.42900085449219,-5.7820000648498535 C-80.42900085449219,-5.7820000648498535 -69.88200378417969,-20.8439998626709 -69.0510025024414,-28.34000015258789 C-68.00199890136719,-37.805999755859375 -67.37100219726562,-56.875999450683594 -66.54000091552734,-63.81100082397461 C-54.75,-162.25 -12.310999870300293,-140.2100067138672 -12.310999870300293,-140.2100067138672 C-12.310999870300293,-140.2100067138672 -32.25,-117 -39.81100082397461,-99.4010009765625z"></path><path stroke-linecap="round" stroke-linejoin="round" fill-opacity="0" stroke="rgb(50,0,61)" stroke-opacity="1" stroke-width="6" d=" M-39.81100082397461,-99.4010009765625 C-47.75899887084961,-80.9010009765625 -40.75,-16.25 -36.78099822998047,18.489999771118164 C-42,16.25 -63.284000396728516,14.10099983215332 -80.42900085449219,-5.7820000648498535 C-80.42900085449219,-5.7820000648498535 -69.88200378417969,-20.8439998626709 -69.0510025024414,-28.34000015258789 C-68.00199890136719,-37.805999755859375 -67.37100219726562,-56.875999450683594 -66.54000091552734,-63.81100082397461 C-54.75,-162.25 -12.310999870300293,-140.2100067138672 -12.310999870300293,-140.2100067138672 C-12.310999870300293,-140.2100067138672 -32.25,-117 -39.81100082397461,-99.4010009765625z"></path></g><g opacity="1" transform="matrix(1,0,0,1,0,0)"><path fill="rgb(59,3,73)" fill-opacity="1" d=" M-42.81100082397461,-98.2760009765625 C-52.125,-72.25 -40.215999603271484,13.788000106811523 -40.215999603271484,13.788000106811523 C-40.215999603271484,13.788000106811523 -48.448001861572266,13.904999732971191 -58.4109992980957,6.796000003814697 C-52.24399948120117,4.4629998207092285 -43.880001068115234,-7.234000205993652 -44.941001892089844,-27.243000030517578 C-46.358001708984375,-53.95800018310547 -57.2130012512207,-61.56399917602539 -64.12999725341797,-45.56800079345703 C-65.71299743652344,-75.81800079345703 -65.75,-140.75 -16.5049991607666,-140.5679931640625 C-16.5049991607666,-140.5679931640625 -39.75199890136719,-106.822998046875 -42.81100082397461,-98.2760009765625z"></path></g><g opacity="1" transform="matrix(1,0,0,1,0,0)"><g opacity="1" transform="matrix(1,0,0,1,0,0)"><path fill="rgb(151,64,172)" fill-opacity="1" d=" M-65.98400115966797,-64.5989990234375 C-65.98400115966797,-64.5989990234375 -60,-90.25 -39.96699905395508,-115.38600158691406 C-26.33300018310547,-132.4929962158203 -4.810999870300293,-141.6020050048828 -4.810999870300293,-141.6020050048828 C-4.810999870300293,-141.6020050048828 -17.95599937438965,-147.40899658203125 -29.724000930786133,-144.30099487304688 C-41.492000579833984,-141.1929931640625 -70.75499725341797,-119.2760009765625 -65.98400115966797,-64.5989990234375z"></path><path stroke-linecap="round" stroke-linejoin="round" fill-opacity="0" stroke="rgb(73,0,91)" stroke-opacity="1" stroke-width="6" d=" M-65.98400115966797,-64.5989990234375 C-65.98400115966797,-64.5989990234375 -60,-90.25 -39.96699905395508,-115.38600158691406 C-26.33300018310547,-132.4929962158203 -4.810999870300293,-141.6020050048828 -4.810999870300293,-141.6020050048828 C-4.810999870300293,-141.6020050048828 -17.95599937438965,-147.40899658203125 -29.724000930786133,-144.30099487304688 C-41.492000579833984,-141.1929931640625 -70.75499725341797,-119.2760009765625 -65.98400115966797,-64.5989990234375z"></path></g><g opacity="1" transform="matrix(1,0,0,1,0,0)"><path fill="rgb(183,87,206)" fill-opacity="1" d=" M-28.763999938964844,-141.36500549316406 C-28.763999938964844,-141.36500549316406 -23.066999435424805,-140.9429931640625 -22.367000579833984,-138.98300170898438 C-20.698999404907227,-134.31500244140625 -43.21500015258789,-126.56199645996094 -52.229000091552734,-104.15599822998047 C-36.233001708984375,-123.83100128173828 -10.095999717712402,-140.3249969482422 -10.317999839782715,-140.41099548339844 C-19.413999557495117,-143.94000244140625 -28.763999938964844,-141.36500549316406 -28.763999938964844,-141.36500549316406z"></path></g></g></g><g style="display: block;" transform="matrix(0.968670666217804,0.050765879452228546,-0.050765879452228546,0.968670666217804,256.9355773925781,269.2910461425781)" opacity="1"><g opacity="1" transform="matrix(1,0,0,1,0,0)"><g opacity="1" transform="matrix(1,0,0,1,0,0)"><path fill="rgb(122,40,142)" fill-opacity="1" d=" M32.279998779296875,-132.81300354003906 C18.770000457763672,-116.69599914550781 13.178999900817871,-103.4209976196289 12.194999694824219,-86.0199966430664 C11.682999610900879,-76.9749984741211 12.086999893188477,-58.784000396728516 12.770999908447266,-42.70100021362305 C13.402999877929688,-27.841999053955078 14.27299976348877,-14.782999992370605 14.881999969482422,-12.399999618530273 C16.667999267578125,-5.414000034332275 38.67900085449219,35.22999954223633 40.3380012512207,37.125999450683594 C40.3380012512207,37.125999450683594 54.547000885009766,29.69499969482422 63.05099868774414,19.753000259399414 C68.65899658203125,13.196999549865723 70.6760025024414,4.65500020980835 70.2020034790039,2.759000062942505 C70.2020034790039,2.759000062942505 58.82500076293945,-13.595000267028809 57.87699890136719,-20.468000411987305 C56.92900085449219,-27.340999603271484 59.68199920654297,-62.141998291015625 62.30699920654297,-70.00399780273438 C69.24299621582031,-90.78099822998047 79.63600158691406,-111.00199890136719 69.5199966430664,-120.9280014038086 C60.244998931884766,-130.0279998779297 32.279998779296875,-132.81300354003906 32.279998779296875,-132.81300354003906z"></path><path stroke-linecap="round" stroke-linejoin="round" fill-opacity="0" stroke="rgb(50,0,61)" stroke-opacity="1" stroke-width="6" d=" M32.279998779296875,-132.81300354003906 C18.770000457763672,-116.69599914550781 13.178999900817871,-103.4209976196289 12.194999694824219,-86.0199966430664 C11.682999610900879,-76.9749984741211 12.086999893188477,-58.784000396728516 12.770999908447266,-42.70100021362305 C13.402999877929688,-27.841999053955078 14.27299976348877,-14.782999992370605 14.881999969482422,-12.399999618530273 C16.667999267578125,-5.414000034332275 38.67900085449219,35.22999954223633 40.3380012512207,37.125999450683594 C40.3380012512207,37.125999450683594 54.547000885009766,29.69499969482422 63.05099868774414,19.753000259399414 C68.65899658203125,13.196999549865723 70.6760025024414,4.65500020980835 70.2020034790039,2.759000062942505 C70.2020034790039,2.759000062942505 58.82500076293945,-13.595000267028809 57.87699890136719,-20.468000411987305 C56.92900085449219,-27.340999603271484 59.68199920654297,-62.141998291015625 62.30699920654297,-70.00399780273438 C69.24299621582031,-90.78099822998047 79.63600158691406,-111.00199890136719 69.5199966430664,-120.9280014038086 C60.244998931884766,-130.0279998779297 32.279998779296875,-132.81300354003906 32.279998779296875,-132.81300354003906z"></path></g><g opacity="1" transform="matrix(1,0,0,1,0,0)"><path fill="rgb(183,87,206)" fill-opacity="1" d=" M70.5780029296875,-111.5260009765625 C65.03600311279297,-121.9010009765625 31.327999114990234,-126.81800079345703 31.327999114990234,-126.81800079345703 C31.327999114990234,-126.81800079345703 32.11000061035156,-127.97599792480469 33.619998931884766,-129.7760009765625 C33.619998931884766,-129.7760009765625 57.32899856567383,-126.98400115966797 66.91200256347656,-119.2760009765625 C69.90899658203125,-116.86499786376953 70.5780029296875,-111.5260009765625 70.5780029296875,-111.5260009765625z"></path></g><g opacity="0.4" transform="matrix(1,0,0,1,0,0)"><path fill="rgb(50,0,61)" fill-opacity="1" d=" M70.1989974975586,2.759999990463257 C70.5790023803711,4.269999980926514 66.08000183105469,15.489999771118164 66.08000183105469,15.489999771118164 C62.25600051879883,10.920000076293945 50.020999908447266,-3.8440001010894775 45.492000579833984,-19.881999969482422 C42.362998962402344,-30.96299934387207 41.75199890136719,-78.92900085449219 46.40800094604492,-100.2750015258789 C50.689998626708984,-119.90899658203125 65.35099792480469,-123.07499694824219 69.61100006103516,-116.6989974975586 C76.49299621582031,-106.98400115966797 67.70700073242188,-91.2300033569336 62.310001373291016,-70 C48.319000244140625,-14.961999893188477 70.1989974975586,2.759999990463257 70.1989974975586,2.759999990463257z"></path></g></g><g opacity="1" transform="matrix(1,0,0,1,0,0)"><path fill="rgb(151,64,172)" fill-opacity="1" d=" M12.762999534606934,-42.895999908447266 C12.762999534606934,-42.895999908447266 29.174999237060547,-99.48699951171875 34.367000579833984,-106.36799621582031 C39.558998107910156,-113.2490005493164 48.678001403808594,-124.85399627685547 57.70800018310547,-127.3949966430664 C57.70800018310547,-127.3949966430664 38.525001525878906,-134.3719940185547 30.895000457763672,-130.64599609375 C23.264999389648438,-126.91999816894531 7.395999908447266,-114.60399627685547 12.762999534606934,-42.895999908447266z"></path><path stroke-linecap="round" stroke-linejoin="round" fill-opacity="0" stroke="rgb(73,0,91)" stroke-opacity="1" stroke-width="6" d=" M12.762999534606934,-42.895999908447266 C12.762999534606934,-42.895999908447266 29.174999237060547,-99.48699951171875 34.367000579833984,-106.36799621582031 C39.558998107910156,-113.2490005493164 48.678001403808594,-124.85399627685547 57.70800018310547,-127.3949966430664 C57.70800018310547,-127.3949966430664 38.525001525878906,-134.3719940185547 30.895000457763672,-130.64599609375 C23.264999389648438,-126.91999816894531 7.395999908447266,-114.60399627685547 12.762999534606934,-42.895999908447266z"></path></g></g><g style="display: none;"><g><path></path><path stroke-linecap="round" stroke-linejoin="round" fill-opacity="0"></path></g><g><g><path></path><path stroke-linecap="round" stroke-linejoin="round" fill-opacity="0"></path></g><g><path></path><path stroke-linecap="round" stroke-linejoin="round" fill-opacity="0"></path></g></g><g><path></path><path stroke-linecap="round" stroke-linejoin="round" fill-opacity="0"></path></g><g><path></path><path stroke-linecap="round" stroke-linejoin="round" fill-opacity="0"></path></g></g><g style="display: none;"><g><path></path><path stroke-linecap="round" stroke-linejoin="round" fill-opacity="0"></path></g><g><path></path></g><g><path></path></g></g><g style="display: block;" transform="matrix(0.968670666217804,0.050765879452228546,-0.050765879452228546,0.968670666217804,259.845703125,269.2910461425781)" opacity="1"><g opacity="1" transform="matrix(1,0,0,1,0,0)"><path fill="rgb(255,209,64)" fill-opacity="1" d=" M124.79900360107422,6.107999801635742 C124.79900360107422,6.107999801635742 125.47699737548828,14.085000038146973 125.47699737548828,14.085000038146973 C125.47699737548828,14.085000038146973 119.28600311279297,23.724000930786133 118.35199737548828,32.069000244140625 C117.0780029296875,43.45100021362305 115.13500213623047,63.999000549316406 119.99600219726562,63.999000549316406 C123.38400268554688,63.999000549316406 124.96399688720703,49.297000885009766 125.50499725341797,42.643001556396484 C125.66300201416016,40.696998596191406 125.73300170898438,39.43899917602539 125.73300170898438,39.43899917602539 C125.73300170898438,39.43899917602539 125.5770034790039,47.30500030517578 126.322998046875,49.57699966430664 C127.06900024414062,51.8489990234375 131.1750030517578,57.79600143432617 134.33999633789062,56.393001556396484 C136.89300537109375,55.26100158691406 135.0229949951172,48.58399963378906 134.3459930419922,46.80799865722656 C134.1820068359375,46.37900161743164 134.22500610351562,42.67399978637695 134.2689971923828,40.32699966430664 C134.2899932861328,39.20899963378906 134.31199645996094,38.400001525878906 134.31199645996094,38.400001525878906 C134.31199645996094,38.400001525878906 135.96200561523438,45.19300079345703 138.5989990234375,45.55799865722656 C146.53500366210938,46.65700149536133 142.49600219726562,38.50899887084961 141.40899658203125,36.53300094604492 C141.25999450683594,36.26300048828125 141.16700744628906,36.108001708984375 141.16700744628906,36.108001708984375 C141.55299377441406,36.99800109863281 141.9929962158203,37.755001068115234 142.4669952392578,38.38600158691406 C143.0919952392578,39.21900177001953 143.77499389648438,39.834999084472656 144.468994140625,40.25600051879883 C148.2050018310547,42.52399826049805 152.26100158691406,39.14400100708008 149.2989959716797,33.54499816894531 C149.2989959716797,33.54499816894531 152.2469940185547,22.25200080871582 148.32400512695312,17.16900062561035 C148.32400512695312,17.16900062561035 145.7989959716797,8.12399959564209 145.7989959716797,8.12399959564209"></path><path stroke-linecap="round" stroke-linejoin="round" fill-opacity="0" stroke="rgb(196,118,32)" stroke-opacity="1" stroke-width="6" d=" M124.79900360107422,6.107999801635742 C124.79900360107422,6.107999801635742 125.47699737548828,14.085000038146973 125.47699737548828,14.085000038146973 C125.47699737548828,14.085000038146973 119.28600311279297,23.724000930786133 118.35199737548828,32.069000244140625 C117.0780029296875,43.45100021362305 115.13500213623047,63.999000549316406 119.99600219726562,63.999000549316406 C123.38400268554688,63.999000549316406 124.96399688720703,49.297000885009766 125.50499725341797,42.643001556396484 C125.66300201416016,40.696998596191406 125.73300170898438,39.43899917602539 125.73300170898438,39.43899917602539 C125.73300170898438,39.43899917602539 125.5770034790039,47.30500030517578 126.322998046875,49.57699966430664 C127.06900024414062,51.8489990234375 131.1750030517578,57.79600143432617 134.33999633789062,56.393001556396484 C136.89300537109375,55.26100158691406 135.0229949951172,48.58399963378906 134.3459930419922,46.80799865722656 C134.1820068359375,46.37900161743164 134.22500610351562,42.67399978637695 134.2689971923828,40.32699966430664 C134.2899932861328,39.20899963378906 134.31199645996094,38.400001525878906 134.31199645996094,38.400001525878906 C134.31199645996094,38.400001525878906 135.96200561523438,45.19300079345703 138.5989990234375,45.55799865722656 C146.53500366210938,46.65700149536133 142.49600219726562,38.50899887084961 141.40899658203125,36.53300094604492 C141.25999450683594,36.26300048828125 141.16700744628906,36.108001708984375 141.16700744628906,36.108001708984375 C141.55299377441406,36.99800109863281 141.9929962158203,37.755001068115234 142.4669952392578,38.38600158691406 C143.0919952392578,39.21900177001953 143.77499389648438,39.834999084472656 144.468994140625,40.25600051879883 C148.2050018310547,42.52399826049805 152.26100158691406,39.14400100708008 149.2989959716797,33.54499816894531 C149.2989959716797,33.54499816894531 152.2469940185547,22.25200080871582 148.32400512695312,17.16900062561035 C148.32400512695312,17.16900062561035 145.7989959716797,8.12399959564209 145.7989959716797,8.12399959564209"></path></g><g opacity="1" transform="matrix(1,0,0,1,0,0)"><path fill="rgb(249,120,194)" fill-opacity="1" d=" M123.83100128173828,1.3489999771118164 C123.83100128173828,1.3489999771118164 123.83100128173828,14.20199966430664 123.83100128173828,14.20199966430664 C130.3159942626953,16.783000946044922 145.1750030517578,15.744000434875488 148.00900268554688,12.942999839782715 C148.00900268554688,12.942999839782715 148.97799682617188,1.3489999771118164 148.97799682617188,1.3489999771118164"></path><path stroke-linecap="round" stroke-linejoin="round" fill-opacity="0" stroke="rgb(206,36,137)" stroke-opacity="1" stroke-width="6" d=" M123.83100128173828,1.3489999771118164 C123.83100128173828,1.3489999771118164 123.83100128173828,14.20199966430664 123.83100128173828,14.20199966430664 C130.3159942626953,16.783000946044922 145.1750030517578,15.744000434875488 148.00900268554688,12.942999839782715 C148.00900268554688,12.942999839782715 148.97799682617188,1.3489999771118164 148.97799682617188,1.3489999771118164"></path></g></g><g style="display: block;" transform="matrix(0.968670666217804,0.050765879452228546,-0.050765879452228546,0.968670666217804,256.9355773925781,269.2910461425781)" opacity="1"><g opacity="1" transform="matrix(1,0,0,1,0,0)"><path fill="rgb(151,64,172)" fill-opacity="1" d=" M141.52000427246094,-51.720001220703125 C136.90899658203125,-66.82599639892578 133.21800231933594,-70.4729995727539 128.36000061035156,-75.16100311279297 C121.51000213623047,-81.56900024414062 85.73400115966797,-107.90599822998047 67.31900024414062,-110.6050033569336 C52.00400161743164,-112.8499984741211 48.981998443603516,-85.10399627685547 58.05500030517578,-75.16100311279297 C64.8499984741211,-67.71499633789062 80.9469985961914,-64.05799865722656 100.08300018310547,-49.61600112915039 C107.35399627685547,-43.48400115966797 115.64299774169922,-20.454999923706055 122.56199645996094,5.7779998779296875 C122.56199645996094,5.7779998779296875 137.0749969482422,10.303000450134277 155.23599243164062,4.380000114440918 C155.23599243164062,4.380000114440918 149.98899841308594,-23.975000381469727 141.52000427246094,-51.720001220703125z"></path><path stroke-linecap="round" stroke-linejoin="round" fill-opacity="0" stroke="rgb(73,0,91)" stroke-opacity="1" stroke-width="6" d=" M141.52000427246094,-51.720001220703125 C136.90899658203125,-66.82599639892578 133.21800231933594,-70.4729995727539 128.36000061035156,-75.16100311279297 C121.51000213623047,-81.56900024414062 85.73400115966797,-107.90599822998047 67.31900024414062,-110.6050033569336 C52.00400161743164,-112.8499984741211 48.981998443603516,-85.10399627685547 58.05500030517578,-75.16100311279297 C64.8499984741211,-67.71499633789062 80.9469985961914,-64.05799865722656 100.08300018310547,-49.61600112915039 C107.35399627685547,-43.48400115966797 115.64299774169922,-20.454999923706055 122.56199645996094,5.7779998779296875 C122.56199645996094,5.7779998779296875 137.0749969482422,10.303000450134277 155.23599243164062,4.380000114440918 C155.23599243164062,4.380000114440918 149.98899841308594,-23.975000381469727 141.52000427246094,-51.720001220703125z"></path></g><g opacity="1" transform="matrix(1,0,0,1,0,0)"><path fill="rgb(183,87,206)" fill-opacity="1" d=" M150.6320037841797,3.005000114440918 C148.11199951171875,3.825000047683716 147.74400329589844,3.502000093460083 145.38400268554688,3.9519999027252197 C143.25399780273438,-18.687999725341797 134.11300659179688,-57.435001373291016 125.1989974975586,-66.45099639892578 C120.18000030517578,-71.5270004272461 95.7770004272461,-89.99199676513672 77.44000244140625,-97.5469970703125 C64.86900329589844,-102.72599792480469 58.597999572753906,-103.22899627685547 56.1619987487793,-91.7969970703125 C56.14799880981445,-91.73300170898438 55.619998931884766,-109.56700134277344 67.7030029296875,-107.51000213623047 C86.0459976196289,-104.38700103759766 122.8499984741211,-76.45899963378906 129.1490020751953,-69.50700378417969 C144.1199951171875,-52.98500061035156 150.6320037841797,3.005000114440918 150.6320037841797,3.005000114440918z"></path></g><g opacity="0.3" transform="matrix(1,0,0,1,0,0)"><path fill="rgb(50,0,61)" fill-opacity="1" d=" M61.013999938964844,-106.25599670410156 C55.494998931884766,-100.94300079345703 54.1510009765625,-92.16200256347656 80.34700012207031,-74.49099731445312 C100.37000274658203,-60.98400115966797 103.9739990234375,-51.303001403808594 105.2750015258789,-47.84299850463867 C91.12000274658203,-64.31700134277344 60.84199905395508,-70.25900268554688 57.70800018310547,-81.48400115966797 C52.43299865722656,-100.37999725341797 60.494998931884766,-106.12999725341797 61.013999938964844,-106.25599670410156z"></path></g></g><g style="display: block;" transform="matrix(0.968670666217804,0.050765879452228546,-0.050765879452228546,0.968670666217804,256.9355773925781,269.2910461425781)" opacity="1"><g opacity="0.6" transform="matrix(1,0,0,1,0,0)"><path fill="rgb(50,0,61)" fill-opacity="1" d=" M-11.836000442504883,-91.7969970703125 C-11.836000442504883,-91.7969970703125 5.235000133514404,-104.02799987792969 10.954000473022461,-104.5770034790039 C19.736000061035156,-105.41999816894531 42.887001037597656,-99.80699920654297 44.57899856567383,-100.55899810791016 C48.40999984741211,-116.65399932861328 13.130000114440918,-129.35499572753906 -11.836000442504883,-91.7969970703125z"></path></g><g opacity="0.6" transform="matrix(1,0,0,1,0,0)"><path fill="rgb(50,0,61)" fill-opacity="1" d=" M-37.237998962402344,-128.96800231933594 C-42.44200134277344,-123.71399688720703 -41.540000915527344,-124.43099975585938 -28.57900047302246,-118.17400360107422 C-26.006999969482422,-116.93199920654297 -19.430999755859375,-97.01300048828125 -19.430999755859375,-97.01300048828125 C-19.430999755859375,-97.01300048828125 -16.107999801635742,-150.30299377441406 -37.237998962402344,-128.96800231933594z"></path></g><g opacity="1" transform="matrix(1,0,0,1,0,0)"><path fill="rgb(249,120,194)" fill-opacity="1" d=" M-18.051000595092773,-88.98200225830078 C-18.051000595092773,-88.98200225830078 6.158999919891357,-118.0510025024414 6.158999919891357,-118.0510025024414 C19.871999740600586,-129.6820068359375 34.374000549316406,-136.3419952392578 34.374000549316406,-136.3419952392578 C38.31800079345703,-130.73899841308594 44.138999938964844,-107.75299835205078 44.138999938964844,-107.75299835205078 C23.427000045776367,-114.08599853515625 7.697000026702881,-112.29299926757812 7.697000026702881,-112.29299926757812 C-4.077000141143799,-105.51899719238281 -18.167999267578125,-88.5469970703125 -18.167999267578125,-88.5469970703125 C-20.549999237060547,-100.02899932861328 -19.79599952697754,-120.53500366210938 -19.79599952697754,-120.53500366210938 C-19.79599952697754,-120.53500366210938 -24.381999969482422,-124.73600006103516 -34.709999084472656,-128.7169952392578 C-34.709999084472656,-128.7169952392578 -20.64699935913086,-136.94000244140625 -8.208000183105469,-140.0449981689453 C-8.208000183105469,-140.0449981689453 -11.51099967956543,-122.03099822998047 -12.842000007629395,-118.06700134277344 C-16.05900001525879,-110.02400207519531 -18.051000595092773,-88.98200225830078 -18.051000595092773,-88.98200225830078z"></path><path stroke-linecap="round" stroke-linejoin="round" fill-opacity="0" stroke="rgb(206,36,137)" stroke-opacity="1" stroke-width="6" d=" M-18.051000595092773,-88.98200225830078 C-18.051000595092773,-88.98200225830078 6.158999919891357,-118.0510025024414 6.158999919891357,-118.0510025024414 C19.871999740600586,-129.6820068359375 34.374000549316406,-136.3419952392578 34.374000549316406,-136.3419952392578 C38.31800079345703,-130.73899841308594 44.138999938964844,-107.75299835205078 44.138999938964844,-107.75299835205078 C23.427000045776367,-114.08599853515625 7.697000026702881,-112.29299926757812 7.697000026702881,-112.29299926757812 C-4.077000141143799,-105.51899719238281 -18.167999267578125,-88.5469970703125 -18.167999267578125,-88.5469970703125 C-20.549999237060547,-100.02899932861328 -19.79599952697754,-120.53500366210938 -19.79599952697754,-120.53500366210938 C-19.79599952697754,-120.53500366210938 -24.381999969482422,-124.73600006103516 -34.709999084472656,-128.7169952392578 C-34.709999084472656,-128.7169952392578 -20.64699935913086,-136.94000244140625 -8.208000183105469,-140.0449981689453 C-8.208000183105469,-140.0449981689453 -11.51099967956543,-122.03099822998047 -12.842000007629395,-118.06700134277344 C-16.05900001525879,-110.02400207519531 -18.051000595092773,-88.98200225830078 -18.051000595092773,-88.98200225830078z"></path></g></g><g style="display: block;" transform="matrix(0.968670666217804,0.050765879452228546,-0.050765879452228546,0.968670666217804,256.9355773925781,269.2910461425781)" opacity="1"><g opacity="1" transform="matrix(1,0,0,1,0,0)"><g opacity="1" transform="matrix(1,0,0,1,0,0)"><g opacity="1" transform="matrix(1,0,0,1,0,0)"><path fill="rgb(237,176,38)" fill-opacity="1" d=" M-33.650001525878906,-175.84100341796875 C-36.987998962402344,-173.5030059814453 -34.5629997253418,-165.00399780273438 -30.375,-162.58900451660156 C-27.798999786376953,-161.10299682617188 -23.55299949645996,-160.67599487304688 -23.55299949645996,-160.67599487304688 C-21.631999969482422,-160.8489990234375 -20.1299991607666,-185.30999755859375 -33.650001525878906,-175.84100341796875z"></path><path stroke-linecap="round" stroke-linejoin="round" fill-opacity="0" stroke="rgb(196,118,32)" stroke-opacity="1" stroke-width="6" d=" M-33.650001525878906,-175.84100341796875 C-36.987998962402344,-173.5030059814453 -34.5629997253418,-165.00399780273438 -30.375,-162.58900451660156 C-27.798999786376953,-161.10299682617188 -23.55299949645996,-160.67599487304688 -23.55299949645996,-160.67599487304688 C-21.631999969482422,-160.8489990234375 -20.1299991607666,-185.30999755859375 -33.650001525878906,-175.84100341796875z"></path></g></g><g opacity="1" transform="matrix(1,0,0,1,0,0)"><g opacity="1" transform="matrix(1,0,0,1,0,0)"><path fill="rgb(237,176,38)" fill-opacity="1" d=" M46.93899917602539,-175.84100341796875 C49.84400177001953,-172.98199462890625 47.85200119018555,-165.00399780273438 43.66400146484375,-162.58900451660156 C41.0880012512207,-161.10299682617188 36.84199905395508,-160.67599487304688 36.84199905395508,-160.67599487304688 C32.553001403808594,-161.0260009765625 36.547000885009766,-186.0679931640625 46.93899917602539,-175.84100341796875z"></path><path stroke-linecap="round" stroke-linejoin="round" fill-opacity="0" stroke="rgb(196,118,32)" stroke-opacity="1" stroke-width="6" d=" M46.93899917602539,-175.84100341796875 C49.84400177001953,-172.98199462890625 47.85200119018555,-165.00399780273438 43.66400146484375,-162.58900451660156 C41.0880012512207,-161.10299682617188 36.84199905395508,-160.67599487304688 36.84199905395508,-160.67599487304688 C32.553001403808594,-161.0260009765625 36.547000885009766,-186.0679931640625 46.93899917602539,-175.84100341796875z"></path></g></g></g></g><g style="display: block;" transform="matrix(0.968670666217804,0.050765879452228546,-0.050765879452228546,0.968670666217804,256.9355773925781,269.2910461425781)" opacity="1"><g opacity="1" transform="matrix(1,0,0,1,0,0)"><path fill="rgb(255,209,64)" fill-opacity="1" d=" M38.97200012207031,-171.02000427246094 C37.529998779296875,-158.7969970703125 32.03099822998047,-139.36700439453125 7.505000114440918,-139.36700439453125 C-17.628000259399414,-139.36700439453125 -24.707000732421875,-158.86900329589844 -25.701000213623047,-171.02000427246094 C-25.701000213623047,-171.02000427246094 -37.981998443603516,-218.20399475097656 6.635000228881836,-218.50599670410156 C51.25199890136719,-218.80799865722656 38.97200012207031,-171.02000427246094 38.97200012207031,-171.02000427246094z"></path><path stroke-linecap="round" stroke-linejoin="round" fill-opacity="0" stroke="rgb(196,118,32)" stroke-opacity="1" stroke-width="6" d=" M38.97200012207031,-171.02000427246094 C37.529998779296875,-158.7969970703125 32.03099822998047,-139.36700439453125 7.505000114440918,-139.36700439453125 C-17.628000259399414,-139.36700439453125 -24.707000732421875,-158.86900329589844 -25.701000213623047,-171.02000427246094 C-25.701000213623047,-171.02000427246094 -37.981998443603516,-218.20399475097656 6.635000228881836,-218.50599670410156 C51.25199890136719,-218.80799865722656 38.97200012207031,-171.02000427246094 38.97200012207031,-171.02000427246094z"></path></g></g><g style="display: block;" transform="matrix(0.968670666217804,0.050765879452228546,-0.050765879452228546,0.968670666217804,256.9355773925781,269.2910461425781)" opacity="1"><g opacity="1" transform="matrix(1,0,0,1,0,0)"><g opacity="1" transform="matrix(1,0,0,1,0,0)"><g opacity="1" transform="matrix(1,0,0,1,0,0)"><path fill="rgb(255,247,212)" fill-opacity="1" d=" M14.963000297546387,-179.14199829101562 C14.963000297546387,-179.14199829101562 14.503999710083008,-184.4149932861328 18.243999481201172,-187.84100341796875 C21.457000732421875,-190.78500366210938 27.506999969482422,-190.4969940185547 30.538999557495117,-186.72500610351562 C33.007999420166016,-183.6540069580078 32.41999816894531,-180.072998046875 32.41999816894531,-180.072998046875 C26.856000900268555,-176.0050048828125 20.06100082397461,-176.1300048828125 14.963000297546387,-179.14199829101562z"></path></g><g opacity="1" transform="matrix(1,0,0,1,0,0)"><path fill="url(#__lottie_element_21391)" fill-opacity="1" d=" M29.368999481201172,-183.46200561523438 C29.368999481201172,-180.11500549316406 26.6560001373291,-177.40199279785156 23.30900001525879,-177.40199279785156 C19.961999893188477,-177.40199279785156 17.249000549316406,-180.11500549316406 17.249000549316406,-183.46200561523438 C17.249000549316406,-186.8090057373047 19.961999893188477,-189.52200317382812 23.30900001525879,-189.52200317382812 C26.6560001373291,-189.52200317382812 29.368999481201172,-186.8090057373047 29.368999481201172,-183.46200561523438z"></path></g><g opacity="1" transform="matrix(1,0,0,1,0,0)"><path fill="rgb(22,19,11)" fill-opacity="1" d=" M27.138999938964844,-183.46200561523438 C27.138999938964844,-181.3470001220703 25.423999786376953,-179.6320037841797 23.30900001525879,-179.6320037841797 C21.194000244140625,-179.6320037841797 19.479000091552734,-181.3470001220703 19.479000091552734,-183.46200561523438 C19.479000091552734,-185.57699584960938 21.194000244140625,-187.29200744628906 23.30900001525879,-187.29200744628906 C25.423999786376953,-187.29200744628906 27.138999938964844,-185.57699584960938 27.138999938964844,-183.46200561523438z"></path></g><g opacity="1" transform="matrix(1,0,0,1,0,0)"><path fill="rgb(245,245,245)" fill-opacity="1" d=" M21.514999389648438,-185.30999755859375 C19.584999084472656,-185.27699279785156 19.43600082397461,-188.10800170898438 21.514999389648438,-188.218994140625 C23.264999389648438,-188.31199645996094 23.90399932861328,-185.3509979248047 21.514999389648438,-185.30999755859375z"></path></g><g opacity="1" transform="matrix(1,0,0,1,0,0)"><path stroke-linecap="round" stroke-linejoin="round" fill-opacity="0" stroke="rgb(224,151,5)" stroke-opacity="1" stroke-width="0.953" d=" M27.79400062561035,-181.75 C27.3439998626709,-180.4080047607422 26.266000747680664,-179.35400390625 24.909000396728516,-178.93499755859375"></path></g><g opacity="1" transform="matrix(1,0,0,1,0,0)"><path fill="rgb(125,66,2)" fill-opacity="1" d=" M15.62399959564209,-184.23300170898438 C16.135000228881836,-186.1739959716797 18.334999084472656,-190.18800354003906 23.82900047302246,-190.18299865722656 C29.2189998626709,-190.17799377441406 33.45600128173828,-185.47900390625 32.387001037597656,-180.072998046875 C32.50400161743164,-185.0919952392578 28.797000885009766,-189.45799255371094 23.650999069213867,-189.50900268554688 C18.79199981689453,-189.5570068359375 16.198999404907227,-186.2760009765625 15.62399959564209,-184.23300170898438z"></path><path stroke-linecap="round" stroke-linejoin="round" fill-opacity="0" stroke="rgb(125,66,2)" stroke-opacity="1" stroke-width="0.545" d=" M15.62399959564209,-184.23300170898438 C16.135000228881836,-186.1739959716797 18.334999084472656,-190.18800354003906 23.82900047302246,-190.18299865722656 C29.2189998626709,-190.17799377441406 33.45600128173828,-185.47900390625 32.387001037597656,-180.072998046875 C32.50400161743164,-185.0919952392578 28.797000885009766,-189.45799255371094 23.650999069213867,-189.50900268554688 C18.79199981689453,-189.5570068359375 16.198999404907227,-186.2760009765625 15.62399959564209,-184.23300170898438z"></path></g></g><g opacity="1" transform="matrix(1,0,0,1,0,0)"><g opacity="1" transform="matrix(1,0,0,1,0,0)"><path fill="rgb(255,247,212)" fill-opacity="1" d=" M-1.5399999618530273,-179.14199829101562 C-1.5399999618530273,-179.14199829101562 -1.0820000171661377,-184.4149932861328 -4.822000026702881,-187.84100341796875 C-8.03499984741211,-190.78500366210938 -14.083999633789062,-190.4969940185547 -17.115999221801758,-186.72500610351562 C-19.584999084472656,-183.6540069580078 -18.996999740600586,-180.072998046875 -18.996999740600586,-180.072998046875 C-14.255000114440918,-176.1929931640625 -7.36899995803833,-175.906005859375 -1.5399999618530273,-179.14199829101562z"></path></g><g opacity="1" transform="matrix(1,0,0,1,0,0)"><path fill="url(#__lottie_element_21392)" fill-opacity="1" d=" M-3.8259999752044678,-183.46200561523438 C-3.8259999752044678,-180.11500549316406 -6.539999961853027,-177.40199279785156 -9.88700008392334,-177.40199279785156 C-13.234000205993652,-177.40199279785156 -15.946999549865723,-180.11500549316406 -15.946999549865723,-183.46200561523438 C-15.946999549865723,-186.8090057373047 -13.234000205993652,-189.52200317382812 -9.88700008392334,-189.52200317382812 C-6.539999961853027,-189.52200317382812 -3.8259999752044678,-186.8090057373047 -3.8259999752044678,-183.46200561523438z"></path></g><g opacity="1" transform="matrix(1,0,0,1,0,0)"><path fill="rgb(22,19,11)" fill-opacity="1" d=" M-13.717000007629395,-183.46200561523438 C-13.717000007629395,-181.3470001220703 -12.001999855041504,-179.6320037841797 -9.88700008392334,-179.6320037841797 C-7.771999835968018,-179.6320037841797 -6.057000160217285,-181.3470001220703 -6.057000160217285,-183.46200561523438 C-6.057000160217285,-185.57699584960938 -7.771999835968018,-187.29200744628906 -9.88700008392334,-187.29200744628906 C-12.001999855041504,-187.29200744628906 -13.717000007629395,-185.57699584960938 -13.717000007629395,-183.46200561523438z"></path></g><g opacity="1" transform="matrix(1,0,0,1,0,0)"><path fill="rgb(245,245,245)" fill-opacity="1" d=" M-11.744999885559082,-185.30999755859375 C-9.843000411987305,-185.2429962158203 -9.451000213623047,-188.3769989013672 -11.744999885559082,-188.218994140625 C-13.88700008392334,-188.07200622558594 -13.616999626159668,-185.37600708007812 -11.744999885559082,-185.30999755859375z"></path></g><g opacity="1" transform="matrix(1,0,0,1,0,0)"><path stroke-linecap="round" stroke-linejoin="round" fill-opacity="0" stroke="rgb(224,151,5)" stroke-opacity="1" stroke-width="0.953" d=" M-5.4019999504089355,-181.75 C-5.8520002365112305,-180.4080047607422 -6.929999828338623,-179.35400390625 -8.286999702453613,-178.93499755859375"></path></g><g opacity="1" transform="matrix(1,0,0,1,0,0)"><path fill="rgb(125,66,2)" fill-opacity="1" d=" M-2.2339999675750732,-184.23300170898438 C-2.744999885559082,-186.1739959716797 -4.943999767303467,-190.18800354003906 -10.439000129699707,-190.18299865722656 C-15.829000473022461,-190.17799377441406 -20.06599998474121,-185.47900390625 -18.996999740600586,-180.072998046875 C-19.11400032043457,-185.0919952392578 -15.406999588012695,-189.45799255371094 -10.26099967956543,-189.50900268554688 C-5.4019999504089355,-189.5570068359375 -2.809000015258789,-186.2760009765625 -2.2339999675750732,-184.23300170898438z"></path><path stroke-linecap="round" stroke-linejoin="round" fill-opacity="0" stroke="rgb(125,66,2)" stroke-opacity="1" stroke-width="0.545" d=" M-2.2339999675750732,-184.23300170898438 C-2.744999885559082,-186.1739959716797 -4.943999767303467,-190.18800354003906 -10.439000129699707,-190.18299865722656 C-15.829000473022461,-190.17799377441406 -20.06599998474121,-185.47900390625 -18.996999740600586,-180.072998046875 C-19.11400032043457,-185.0919952392578 -15.406999588012695,-189.45799255371094 -10.26099967956543,-189.50900268554688 C-5.4019999504089355,-189.5570068359375 -2.809000015258789,-186.2760009765625 -2.2339999675750732,-184.23300170898438z"></path></g></g></g></g><g style="display: block;" transform="matrix(0.968670666217804,0.050765879452228546,-0.050765879452228546,0.968670666217804,256.9355773925781,269.2910461425781)" opacity="1"><g opacity="1" transform="matrix(1,0,0,1,0,0)"><g opacity="1" transform="matrix(1,0,0,1,0,0)"><path stroke-linecap="round" stroke-linejoin="round" fill-opacity="0" stroke="rgb(125,66,2)" stroke-opacity="1" stroke-width="5" d=" M-7.629000186920166,-196.28799438476562 C-7.629000186920166,-196.28799438476562 -12.060999870300293,-197.15899658203125 -16.13599967956543,-194.7050018310547"></path></g><g opacity="1" transform="matrix(1,0,0,1,0,0)"><path stroke-linecap="round" stroke-linejoin="round" fill-opacity="0" stroke="rgb(125,66,2)" stroke-opacity="1" stroke-width="5" d=" M20.551000595092773,-196.28799438476562 C20.551000595092773,-196.28799438476562 24.982999801635742,-197.15899658203125 29.058000564575195,-194.7050018310547"></path></g></g></g><g style="display: block;" transform="matrix(0.968670666217804,0.050765879452228546,-0.050765879452228546,0.968670666217804,256.9355773925781,269.2910461425781)" opacity="1"><g opacity="1" transform="matrix(1,0,0,1,0,0)"><g opacity="1" transform="matrix(1,0,0,1,0,0)"><path fill="rgb(237,176,38)" fill-opacity="1" d=" M14.940999984741211,-151.80599975585938 C14.940999984741211,-150.3419952392578 11.218999862670898,-147.8800048828125 6.626999855041504,-147.8800048828125 C2.0350000858306885,-147.8800048828125 -1.687000036239624,-150.3419952392578 -1.687000036239624,-151.80599975585938 C-1.687000036239624,-153.27000427246094 2.0350000858306885,-151.46200561523438 6.626999855041504,-151.46200561523438 C11.218999862670898,-151.46200561523438 14.940999984741211,-153.27000427246094 14.940999984741211,-151.80599975585938z"></path></g><g opacity="1" transform="matrix(1,0,0,1,0,0)"><path fill="rgb(255,226,143)" fill-opacity="1" d=" M17.465999603271484,-157.20799255371094 C17.465999603271484,-154.4600067138672 12.557000160217285,-151.48800659179688 6.5,-151.48800659179688 C0.4429999887943268,-151.48800659179688 -4.4670000076293945,-154.4600067138672 -4.4670000076293945,-157.20799255371094 C-4.4670000076293945,-162.74899291992188 17.465999603271484,-163.1510009765625 17.465999603271484,-157.20799255371094z"></path></g><g opacity="0.3" transform="matrix(1,0,0,1,0,0)"><path fill="rgb(196,118,32)" fill-opacity="1" d=" M17.464000701904297,-165.5800018310547 C17.464000701904297,-165.5800018310547 -4.464000225067139,-165.5800018310547 -4.464000225067139,-165.5800018310547 C-8.76099967956543,-165.5800018310547 -13.855999946594238,-161.54600524902344 -13.855999946594238,-156.84100341796875 C-13.855999946594238,-156.38800048828125 -13.519000053405762,-156.0030059814453 -13.041000366210938,-156.0030059814453 C-13.041000366210938,-156.0030059814453 26.041000366210938,-156.0030059814453 26.041000366210938,-156.0030059814453 C26.518999099731445,-156.0030059814453 26.854999542236328,-156.38800048828125 26.854999542236328,-156.84100341796875 C26.854999542236328,-161.0260009765625 21.76099967956543,-165.5800018310547 17.464000701904297,-165.5800018310547z"></path></g><g opacity="1" transform="matrix(1,0,0,1,0,0)"><path fill="rgb(126,35,18)" fill-opacity="1" d=" M16.055999755859375,-157.4290008544922 C16.07200050354004,-156.92599487304688 15.45300006866455,-153.31199645996094 6.498000144958496,-153.31199645996094 C-2.6029999256134033,-153.31199645996094 -3.0299999713897705,-156.927001953125 -3.056999921798706,-157.4290008544922 C-3.421999931335449,-164.16700744628906 15.869999885559082,-163.3179931640625 16.055999755859375,-157.4290008544922z"></path></g><g opacity="1" transform="matrix(1,0,0,1,0,0)"><path fill="rgb(81,19,18)" fill-opacity="1" d=" M16.055999755859375,-157.4290008544922 C16.091999053955078,-156.927001953125 15.850000381469727,-156.4459991455078 15.463000297546387,-156.0030059814453 C15.463000297546387,-156.0030059814453 -2.4639999866485596,-156.0030059814453 -2.4639999866485596,-156.0030059814453 C-2.8499999046325684,-156.4459991455078 -3.0439999103546143,-156.92599487304688 -3.056999921798706,-157.4290008544922 C-3.171999931335449,-161.8800048828125 15.744999885559082,-161.7760009765625 16.055999755859375,-157.4290008544922z"></path></g><g opacity="1" transform="matrix(1,0,0,1,0,0)"><path fill="rgb(255,203,45)" fill-opacity="1" d=" M16.839000701904297,-164.6230010986328 C16.839000701904297,-164.6230010986328 -3.8389999866485596,-164.6230010986328 -3.8389999866485596,-164.6230010986328 C-7.890999794006348,-164.6230010986328 -11.97700023651123,-161.80799865722656 -12.394000053405762,-158.19500732421875 C-12.442000389099121,-157.78399658203125 -12.07699966430664,-157.4290008544922 -11.62600040435791,-157.4290008544922 C-11.62600040435791,-157.4290008544922 24.625999450683594,-157.4290008544922 24.625999450683594,-157.4290008544922 C25.07699966430664,-157.4290008544922 25.441999435424805,-157.78399658203125 25.393999099731445,-158.19500732421875 C24.976999282836914,-161.80799865722656 20.891000747680664,-164.6230010986328 16.839000701904297,-164.6230010986328z"></path></g><g opacity="1" transform="matrix(1,0,0,1,0,0)"><path fill="rgb(198,126,20)" fill-opacity="1" d=" M25.39299964904785,-158.19500732421875 C25.441999435424805,-157.78599548339844 25.07699966430664,-157.4290008544922 24.62700080871582,-157.4290008544922 C24.62700080871582,-157.4290008544922 -11.628000259399414,-157.4290008544922 -11.628000259399414,-157.4290008544922 C-12.07800006866455,-157.4290008544922 -12.442000389099121,-157.78599548339844 -12.392999649047852,-158.19500732421875 C-12.25,-159.43699645996094 -11.67199993133545,-160.5850067138672 -10.812999725341797,-161.5570068359375 C-11.071999549865723,-161.02000427246094 -11.833000183105469,-159.1929931640625 -10.592000007629395,-159.13699340820312 C-10.592000007629395,-159.13699340820312 23.591999053955078,-159.13699340820312 23.591999053955078,-159.13699340820312 C24.8700008392334,-159.16200256347656 24.076000213623047,-161.02000427246094 23.812999725341797,-161.5570068359375 C24.676000595092773,-160.5850067138672 25.25,-159.43699645996094 25.39299964904785,-158.19500732421875z"></path></g></g></g><g style="display: block;" transform="matrix(1.000002145767212,0,0,1.000002145767212,-0.00026673523825593293,-0.0002363086969126016)" opacity="1"><g opacity="1" transform="matrix(0.968670666217804,0.050765879452228546,-0.050765879452228546,0.968670666217804,256.9352111816406,269.2902526855469)"><g opacity="0.5" transform="matrix(1,0,0,1,0,0)"><path fill="rgb(196,118,32)" fill-opacity="1" d=" M13.440999984741211,-168.2030029296875 C13.440999984741211,-165.1909942626953 10.77400016784668,-162.74899291992188 6.640999794006348,-162.74899291992188 C2.507999897003174,-162.74899291992188 -0.1599999964237213,-165.1909942626953 -0.1599999964237213,-168.2030029296875 C-0.1599999964237213,-171.21499633789062 13.440999984741211,-171.21499633789062 13.440999984741211,-168.2030029296875z"></path></g></g><g opacity="1" transform="matrix(0.968670666217804,0.050765879452228546,-0.050765879452228546,0.968670666217804,256.9350891113281,269.2909240722656)"><g opacity="1" transform="matrix(1,0,0,1,0,0)"><g opacity="1" transform="matrix(1,0,0,1,0,0)"><path fill="rgb(198,126,20)" fill-opacity="1" d=" M13.583000183105469,-169.2270050048828 C13.583000183105469,-166.43299865722656 10.47599983215332,-164.16799926757812 6.640999794006348,-164.16799926757812 C2.805999994277954,-164.16799926757812 -0.3019999861717224,-166.43299865722656 -0.3019999861717224,-169.2270050048828 C-0.3019999861717224,-172.02099609375 2.805999994277954,-174.16799926757812 6.640999794006348,-174.16799926757812 C10.47599983215332,-174.16799926757812 13.583000183105469,-172.02099609375 13.583000183105469,-169.2270050048828z"></path></g><g opacity="1" transform="matrix(1,0,0,1,0,0)"><path fill="rgb(255,209,64)" fill-opacity="1" d=" M12.958999633789062,-170.56399536132812 C12.958999633789062,-168.48399353027344 9.958000183105469,-166.48500061035156 6.640999794006348,-166.48500061035156 C3.3239998817443848,-166.48500061035156 0.32199999690055847,-168.48399353027344 0.32199999690055847,-170.56399536132812 C0.32199999690055847,-172.6439971923828 3.3239998817443848,-174.16799926757812 6.640999794006348,-174.16799926757812 C9.958000183105469,-174.16799926757812 12.958999633789062,-172.6439971923828 12.958999633789062,-170.56399536132812z"></path></g><g opacity="1" transform="matrix(1,0,0,1,0,0)"><path fill="rgb(255,226,143)" fill-opacity="1" d=" M10.267999649047852,-172.36700439453125 C10.267999649047852,-171.26100158691406 8.644000053405762,-170.2209930419922 6.640999794006348,-170.2209930419922 C4.638000011444092,-170.2209930419922 3.0139999389648438,-171.26100158691406 3.0139999389648438,-172.36700439453125 C3.0139999389648438,-173.4720001220703 4.638000011444092,-174.02699279785156 6.640999794006348,-174.02699279785156 C8.644000053405762,-174.02699279785156 10.267999649047852,-173.4720001220703 10.267999649047852,-172.36700439453125z"></path></g></g></g></g><g style="display: block;" transform="matrix(0.968670666217804,0.050765879452228546,-0.050765879452228546,0.968670666217804,256.9355773925781,269.2910461425781)" opacity="1"><g opacity="1" transform="matrix(1,0,0,1,0,0)"><g opacity="1" transform="matrix(1,0,0,1,0,0)"><path fill="rgb(229,200,78)" fill-opacity="1" d=" M38.75699996948242,-224.5290069580078 C30.861000061035156,-235.4239959716797 18.385000228881836,-238.53900146484375 6.635000228881836,-238.53900146484375 C-5.114999771118164,-238.53900146484375 -17.02199935913086,-234.98800659179688 -25.48699951171875,-224.5290069580078 C-43.80699920654297,-201.89300537109375 -25.701000213623047,-171.02000427246094 -25.701000213623047,-171.02000427246094 C-29.981000900268555,-194.3679962158203 -22.003999710083008,-206.86700439453125 -8.515000343322754,-206.86700439453125 C-0.07199999690055847,-206.86700439453125 1.3630000352859497,-201.3699951171875 6.635000228881836,-201.3699951171875 C11.906999588012695,-201.3699951171875 13.342000007629395,-206.86700439453125 21.78499984741211,-206.86700439453125 C35.6150016784668,-206.86700439453125 42.893001556396484,-194.20199584960938 38.97200012207031,-171.02000427246094 C38.97200012207031,-171.02000427246094 55.86399841308594,-200.9219970703125 38.75699996948242,-224.5290069580078z"></path><path stroke-linecap="round" stroke-linejoin="round" fill-opacity="0" stroke="rgb(188,141,36)" stroke-opacity="1" stroke-width="6" d=" M38.75699996948242,-224.5290069580078 C30.861000061035156,-235.4239959716797 18.385000228881836,-238.53900146484375 6.635000228881836,-238.53900146484375 C-5.114999771118164,-238.53900146484375 -17.02199935913086,-234.98800659179688 -25.48699951171875,-224.5290069580078 C-43.80699920654297,-201.89300537109375 -25.701000213623047,-171.02000427246094 -25.701000213623047,-171.02000427246094 C-29.981000900268555,-194.3679962158203 -22.003999710083008,-206.86700439453125 -8.515000343322754,-206.86700439453125 C-0.07199999690055847,-206.86700439453125 1.3630000352859497,-201.3699951171875 6.635000228881836,-201.3699951171875 C11.906999588012695,-201.3699951171875 13.342000007629395,-206.86700439453125 21.78499984741211,-206.86700439453125 C35.6150016784668,-206.86700439453125 42.893001556396484,-194.20199584960938 38.97200012207031,-171.02000427246094 C38.97200012207031,-171.02000427246094 55.86399841308594,-200.9219970703125 38.75699996948242,-224.5290069580078z"></path></g><g opacity="1" transform="matrix(1,0,0,1,0,0)"><path fill="rgb(255,235,151)" fill-opacity="1" d=" M6.711999893188477,-235.5959930419922 C-8.918000221252441,-235.5959930419922 -20.76799964904785,-228.08799743652344 -18.42099952697754,-221.22799682617188 C-16.073999404907227,-214.3679962158203 -5.132999897003174,-214.9429931640625 0.5540000200271606,-210.36300659179688 C4.020999908447266,-207.5709991455078 9.654000282287598,-207.8419952392578 13.885000228881836,-211.26100158691406 C17.613000869750977,-214.2729949951172 30.972999572753906,-217.19500732421875 31.856000900268555,-222.2779998779297 C33.0369987487793,-229.0749969482422 21.514999389648438,-235.5959930419922 6.711999893188477,-235.5959930419922z"></path></g></g></g><g style="display: block;" transform="matrix(0.968670666217804,0.050765879452228546,-0.050765879452228546,0.968670666217804,256.9355773925781,269.2910461425781)" opacity="1"><g opacity="1" transform="matrix(1,0,0,1,0,0)"><g opacity="1" transform="matrix(1,0,0,1,0,0)"><g opacity="1" transform="matrix(1,0,0,1,0,0)"><path stroke-linecap="round" stroke-linejoin="round" fill-opacity="0" stroke="rgb(255,255,255)" stroke-opacity="1" stroke-width="6" d=" M13.517000198364258,-229.54600524902344 C13.517000198364258,-229.54600524902344 13.517000198364258,-229.54600524902344 13.517000198364258,-229.54600524902344"></path></g><g opacity="1" transform="matrix(1,0,0,1,0,0)"><path stroke-linecap="round" stroke-linejoin="round" fill-opacity="0" stroke="rgb(255,255,255)" stroke-opacity="1" stroke-width="6" d=" M-0.5180000066757202,-229.58900451660156 C-0.5180000066757202,-229.58900451660156 2.4809999465942383,-229.89999389648438 4.894000053405762,-229.8489990234375"></path></g></g></g></g></g></svg>