<svg xmlns="http://www.w3.org/2000/svg" viewBox="0 0 512 512" width="512" height="512" style="width: 100%; height: 100%; transform: translate3d(0,0,0);" preserveAspectRatio="xMidYMid meet"><defs><clipPath id="__lottie_element_21450"><rect width="512" height="512" x="0" y="0"></rect></clipPath></defs><g clip-path="url(#__lottie_element_21450)"><g style="display: block;" transform="matrix(1,0,0,1,39.91900634765625,40.0789794921875)" opacity="1"><g opacity="0.1" transform="matrix(1,0,0,1,215.6439971923828,231.13099670410156)"><path fill="rgb(0,0,0)" fill-opacity="1" d=" M202.3780059814453,0 C202.3780059814453,111.77100372314453 111.77100372314453,202.3780059814453 0,202.3780059814453 C-111.7699966430664,202.3780059814453 -202.3780059814453,111.77100372314453 -202.3780059814453,0 C-202.3780059814453,-111.77100372314453 -111.7699966430664,-202.3780059814453 0,-202.3780059814453 C111.77100372314453,-202.3780059814453 202.3780059814453,-111.77100372314453 202.3780059814453,0z"></path></g><g opacity="1" transform="matrix(1,0,0,1,215.6439971923828,215.64500427246094)"><path fill="rgb(255,176,57)" fill-opacity="1" d=" M194.9969940185547,0 C194.9969940185547,107.69400024414062 107.69300079345703,194.9969940185547 0,194.9969940185547 C-107.69400024414062,194.9969940185547 -194.9969940185547,107.69400024414062 -194.9969940185547,0 C-194.9969940185547,-107.69400024414062 -107.69400024414062,-194.9969940185547 0,-194.9969940185547 C107.69300079345703,-194.9969940185547 194.9969940185547,-107.69400024414062 194.9969940185547,0z"></path></g><g opacity="1" transform="matrix(1,0,0,1,215.6439971923828,215.64500427246094)"><path stroke-linecap="butt" stroke-linejoin="miter" fill-opacity="0" stroke-miterlimit="10" stroke="rgb(247,125,65)" stroke-opacity="1" stroke-width="8.259" d=" M194.9969940185547,0 C194.9969940185547,107.69400024414062 107.69300079345703,194.9969940185547 0,194.9969940185547 C-107.69400024414062,194.9969940185547 -194.9969940185547,107.69400024414062 -194.9969940185547,0 C-194.9969940185547,-107.69400024414062 -107.69400024414062,-194.9969940185547 0,-194.9969940185547 C107.69300079345703,-194.9969940185547 194.9969940185547,-107.69400024414062 194.9969940185547,0z"></path></g><g opacity="1" transform="matrix(1,0,0,1,215.70199584960938,213.7169952392578)"><path fill="rgb(255,209,64)" fill-opacity="1" d=" M173.80799865722656,2.6630001068115234 C172.3040008544922,100.77200317382812 93.26899719238281,179.11199951171875 -2.7230000495910645,177.63999938964844 C-98.71399688720703,176.16799926757812 -175.31199645996094,95.44499969482422 -173.80799865722656,-2.6640000343322754 C-172.3040008544922,-100.77300262451172 -93.26899719238281,-179.11199951171875 2.7230000495910645,-177.64100646972656 C98.71399688720703,-176.16900634765625 175.31199645996094,-95.44499969482422 173.80799865722656,2.6630001068115234z"></path></g><g opacity="1" transform="matrix(1,0,0,1,215.6439971923828,122.91500091552734)"><path fill="rgb(255,223,121)" fill-opacity="1" d=" M154.10499572753906,48.92499923706055 C154.10499572753906,123.9229965209961 85.10900115966797,64.59500122070312 0,64.59500122070312 C-85.11100006103516,64.59500122070312 -154.1060028076172,123.9229965209961 -154.1060028076172,48.92499923706055 C-154.1060028076172,-26.072999954223633 -85.11100006103516,-86.87000274658203 0,-86.87000274658203 C85.10900115966797,-86.87000274658203 154.10499572753906,-26.072999954223633 154.10499572753906,48.92499923706055z"></path></g><g opacity="1" transform="matrix(1,0,0,1,255.66200256347656,40.974998474121094)"><path stroke-linecap="round" stroke-linejoin="round" fill-opacity="0" stroke="rgb(255,255,255)" stroke-opacity="1" stroke-width="6.194" d=" M-2.4660000801086426,-0.5730000138282776 C-0.8790000081062317,-0.22699999809265137 0.7680000066757202,0.15399999916553497 2.4660000801086426,0.5730000138282776"></path></g><g opacity="1" transform="matrix(1,0,0,1,237.6479949951172,37.87200164794922)"><path stroke-linecap="round" stroke-linejoin="round" fill-opacity="0" stroke="rgb(255,255,255)" stroke-opacity="1" stroke-width="6.194" d=" M-6.499000072479248,-0.7940000295639038 C-6.499000072479248,-0.7940000295639038 -1.475000023841858,-0.5249999761581421 6.499000072479248,0.7940000295639038"></path></g></g><g style="display: block;" transform="matrix(1,0,0,1,114.80900573730469,261.1419677734375)" opacity="1"><g opacity="1" transform="matrix(1,0,0,1,140.6959991455078,71.60299682617188)"><path fill="rgb(255,176,57)" fill-opacity="1" d=" M0.0560000017285347,71.35299682617188 C-75.43699645996094,71.35299682617188 -140.4459991455078,-24.801000595092773 -138.66900634765625,-51.48400115966797 C-137.34500122070312,-71.35299682617188 -111.08300018310547,-40.52000045776367 0.0560000017285347,-38.1150016784668 C111.19499969482422,-40.52000045776367 137.1300048828125,-71.3290023803711 138.781005859375,-51.48400115966797 C140.4459991455078,-31.45199966430664 75.54900360107422,71.35299682617188 0.0560000017285347,71.35299682617188z"></path></g><g opacity="1" transform="matrix(1,0,0,1,140.7519989013672,81.91100311279297)"><path fill="rgb(255,225,166)" fill-opacity="1" d=" M0.0010000000474974513,-40.28799819946289 C-117.75800323486328,-42.93899917602539 -138.77699279785156,-76.85700225830078 -138.77699279785156,-51.68899917602539 C-138.77699279785156,18.610000610351562 -77.78700256347656,76.85700225830078 0.0010000000474974513,76.85700225830078 C77.78900146484375,76.85700225830078 138.77699279785156,18.610000610351562 138.77699279785156,-51.68899917602539 C138.77699279785156,-76.85700225830078 117.76000213623047,-42.93899917602539 0.0010000000474974513,-40.28799819946289z"></path></g><g opacity="1" transform="matrix(1,0,0,1,140.7519989013672,78.8270034790039)"><path fill="rgb(133,62,19)" fill-opacity="1" d=" M137.06199645996094,-49.66400146484375 C137.06199645996094,16.027999877929688 74.55999755859375,71.3550033569336 0,71.3550033569336 C-74.56099700927734,71.3550033569336 -137.06300354003906,16.027999877929688 -137.06300354003906,-49.66400146484375 C-137.06300354003906,-50.31399917602539 -137.04299926757812,-50.91299819946289 -137.01199340820312,-51.48099899291992 C-135.7729949951172,-71.3550033569336 -109.76699829101562,-40.516998291015625 0,-38.111000061035156 C109.76499938964844,-40.516998291015625 135.77200317382812,-71.3550033569336 137.00999450683594,-51.48099899291992 C137.04100036621094,-50.91299819946289 137.06199645996094,-50.31399917602539 137.06199645996094,-49.66400146484375z"></path></g><g opacity="1" transform="matrix(1,0,0,1,0,0)"><g opacity="1" transform="matrix(1,0,0,1,0,0)"><g opacity="1" transform="matrix(1,0,0,1,140.8560028076172,58.994998931884766)"><path fill="rgb(98,36,11)" fill-opacity="1" d=" M116.70899963378906,8.418999671936035 C111.91400146484375,17.739999771118164 65.93599700927734,36.94200134277344 1.0889999866485596,36.94200134277344 C-64.36499786376953,36.94200134277344 -112.41400146484375,18.0049991607666 -116.54299926757812,8.852999687194824 C-121.02400207519531,-2.0369999408721924 -124.70999908447266,-18.003000259399414 -124.68900299072266,-18.533000946044922 C-123.58399963378906,-36.94200134277344 -96.64900207519531,-4.175000190734863 1.0889999866485596,-1.940999984741211 C98.83799743652344,-4.175000190734863 123.58499908447266,-35.856998443603516 124.68900299072266,-17.447999954223633 C124.70999908447266,-16.917999267578125 120.9729995727539,-1.8769999742507935 116.70899963378906,8.418999671936035z"></path></g><g opacity="1" transform="matrix(1,0,0,1,140.8560028076172,55.33399963378906)"><path fill="rgb(244,244,244)" fill-opacity="1" d=" M124.73200225830078,-13.618000030517578 C123.77100372314453,-5.007999897003174 120.9729995727539,3.6549999713897705 116.70999908447266,12.079999923706055 C106.77799987792969,16.013999938964844 64.75800323486328,30.95199966430664 -0.08699999749660492,30.95199966430664 C-65.54199981689453,30.95199966430664 -105.58899688720703,16.910999298095703 -116.54299926757812,12.513999938964844 C-121.02300262451172,3.6040000915527344 -123.86299896240234,-5.521999835968018 -124.7300033569336,-14.505000114440918 C-124.78199768066406,-15 -124.70899963378906,-15.456000328063965 -124.68800354003906,-15.888999938964844 C-123.58399963378906,-30.95199966430664 -97.83599853515625,-4.357999801635742 -0.09799999743700027,-2.5309998989105225 C97.6500015258789,-4.357999801635742 123.58499908447266,-30.06399917602539 124.68900299072266,-15.00100040435791 C124.70999908447266,-14.567000389099121 124.78299713134766,-14.11299991607666 124.73200225830078,-13.618000030517578z"></path></g><g opacity="1" transform="matrix(1,0,0,1,140.46299743652344,50.775001525878906)"><path fill="rgb(200,213,214)" fill-opacity="1" d=" M123.66000366210938,-15.28499984741211 C119.1989974975586,-22.493000030517578 97.70899963378906,-0.597000002861023 0.3409999907016754,-0.5879999995231628 C-97.02799987792969,-0.597000002861023 -119.197998046875,-23.11199951171875 -123.65899658203125,-15.902999877929688 C-128.24400329589844,-8.494000434875488 -119.27100372314453,11.902000427246094 -116.54000091552734,17.072999954223633 C-112.22799682617188,18.788999557495117 -106.48799896240234,20.87299919128418 -98.50399780273438,23.11199951171875 C-103.75499725341797,19.02899932861328 -111.04299926757812,2.8929998874664307 -101.84200286865234,-1.1039999723434448 C-87.71700286865234,-6.202000141143799 -63.03900146484375,3.255000114440918 0.28600001335144043,3.255000114440918 C63.611000061035156,3.255000114440918 89.4739990234375,-6.300000190734863 103.5989990234375,-1.2020000219345093 C114.34200286865234,3.006999969482422 105.98799896240234,18.420000076293945 102.46399688720703,21.645999908447266 C110.3759994506836,19.285999298095703 112.79199981689453,18.356000900268555 117.10299682617188,16.639999389648438 C119.83399963378906,11.468000411987305 128.2449951171875,-7.875999927520752 123.66000366210938,-15.28499984741211z"></path></g></g></g><g opacity="1" transform="matrix(1,0,0,1,140.74899291992188,55.04999923706055)"><path fill="rgb(98,36,11)" fill-opacity="1" d=" M108.17500305175781,47.54800033569336 C118.62300109863281,29.923999786376953 124.64299774169922,9.64799976348877 124.64299774169922,-11.722999572753906 C124.64299774169922,-12.37399959564209 124.63200378417969,-12.972999572753906 124.60099792480469,-13.539999961853027 C123.47599792480469,-33.41400146484375 99.822998046875,-4.464000225067139 0,-2.056999921798706 C-99.81400299072266,-4.464000225067139 -123.46700286865234,-33.41400146484375 -124.59200286865234,-13.539999961853027 C-124.62300109863281,-12.972999572753906 -124.64299774169922,-12.37399959564209 -124.64299774169922,-11.722999572753906 C-124.64299774169922,9.657999992370605 -118.61399841308594,29.945999145507812 -108.1449966430664,47.57899856567383 C-126.2020034790039,27.06599998474121 -137.06300354003906,1.4830000400543213 -137.06300354003906,-25.886999130249023 C-137.06300354003906,-26.53700065612793 -137.04299926757812,-27.13599967956543 -137.01199340820312,-27.70400047302246 C-135.7729949951172,-47.577999114990234 -109.76599884033203,-16.739999771118164 0,-14.335000038146973 C109.76499938964844,-16.739999771118164 135.77200317382812,-47.577999114990234 137.01100158691406,-27.70400047302246 C137.04200744628906,-27.13599967956543 137.06300354003906,-26.53700065612793 137.06300354003906,-25.886999130249023 C137.06300354003906,1.472000002861023 126.21199798583984,27.033000946044922 108.17500305175781,47.54800033569336z"></path></g></g><g style="display: block;" transform="matrix(1,0,0,1,0,0.0009765625)" opacity="1"><g opacity="1" transform="matrix(1.0299999713897705,0,0,1.0299999713897705,178.34849548339844,142.7154998779297)"><g opacity="1" transform="matrix(1,0,0,1,20.25,56.75)"><path fill="rgb(255,225,166)" fill-opacity="1" d=" M20,0 C20,31.20400047302246 11.045999526977539,56.5 0,56.5 C-11.045000076293945,56.5 -20,31.20400047302246 -20,0 C-20,-31.20400047302246 -11.045000076293945,-56.5 0,-56.5 C11.045999526977539,-56.5 20,-31.20400047302246 20,0z"></path></g><g opacity="1" transform="matrix(1,0,0,1,20.25,50.933998107910156)"><path fill="rgb(255,176,57)" fill-opacity="1" d=" M20,0 C20,27.992000579833984 11.045999526977539,50.683998107910156 0,50.683998107910156 C-11.045000076293945,50.683998107910156 -20,27.992000579833984 -20,0 C-20,-27.992000579833984 -11.045000076293945,-50.683998107910156 0,-50.683998107910156 C11.045999526977539,-50.683998107910156 20,-27.992000579833984 20,0z"></path></g><g opacity="1" transform="matrix(1,0,0,1,20.25,56.500999450683594)"><path fill="rgb(133,62,19)" fill-opacity="1" d=" M18.389999389648438,0 C18.389999389648438,28.5049991607666 10.156000137329102,51.612998962402344 -0.0010000000474974513,51.612998962402344 C-10.156999588012695,51.612998962402344 -18.389999389648438,28.5049991607666 -18.389999389648438,0 C-18.389999389648438,-28.5049991607666 -10.156999588012695,-51.612998962402344 -0.0010000000474974513,-51.612998962402344 C10.156000137329102,-51.612998962402344 18.389999389648438,-28.5049991607666 18.389999389648438,0z"></path></g><g opacity="1" transform="matrix(1,0,0,1,20.25,34.040000915527344)"><path fill="rgb(107,31,0)" fill-opacity="1" d=" M18.392000198364258,22.4689998626709 C18.392000198364258,24.735000610351562 18.341999053955078,26.96299934387207 18.23200035095215,29.15399932861328 C17.070999145507812,3.7950000762939453 9.347000122070312,-15.803999900817871 -0.0010000000474974513,-15.803999900817871 C-9.347999572753906,-15.803999900817871 -17.070999145507812,3.7950000762939453 -18.232999801635742,29.15399932861328 C-18.341999053955078,26.96299934387207 -18.392000198364258,24.735000610351562 -18.392000198364258,22.4689998626709 C-18.392000198364258,-6.041999816894531 -10.156000137329102,-29.15399932861328 -0.0010000000474974513,-29.15399932861328 C10.154999732971191,-29.15399932861328 18.392000198364258,-6.041999816894531 18.392000198364258,22.4689998626709z"></path></g></g><g opacity="1" transform="matrix(-1.0299999713897705,0,0,1.0299999713897705,333.6885070800781,142.7154998779297)"><g opacity="1" transform="matrix(1,0,0,1,20.25,56.75)"><path fill="rgb(255,225,166)" fill-opacity="1" d=" M20,0 C20,31.20400047302246 11.045999526977539,56.5 0,56.5 C-11.045000076293945,56.5 -20,31.20400047302246 -20,0 C-20,-31.20400047302246 -11.045000076293945,-56.5 0,-56.5 C11.045999526977539,-56.5 20,-31.20400047302246 20,0z"></path></g><g opacity="1" transform="matrix(1,0,0,1,20.25,50.933998107910156)"><path fill="rgb(255,176,57)" fill-opacity="1" d=" M20,0 C20,27.992000579833984 11.045999526977539,50.683998107910156 0,50.683998107910156 C-11.045000076293945,50.683998107910156 -20,27.992000579833984 -20,0 C-20,-27.992000579833984 -11.045000076293945,-50.683998107910156 0,-50.683998107910156 C11.045999526977539,-50.683998107910156 20,-27.992000579833984 20,0z"></path></g><g opacity="1" transform="matrix(1,0,0,1,20.25,56.500999450683594)"><path fill="rgb(133,62,19)" fill-opacity="1" d=" M18.389999389648438,0 C18.389999389648438,28.5049991607666 10.156000137329102,51.612998962402344 -0.0010000000474974513,51.612998962402344 C-10.156999588012695,51.612998962402344 -18.389999389648438,28.5049991607666 -18.389999389648438,0 C-18.389999389648438,-28.5049991607666 -10.156999588012695,-51.612998962402344 -0.0010000000474974513,-51.612998962402344 C10.156000137329102,-51.612998962402344 18.389999389648438,-28.5049991607666 18.389999389648438,0z"></path></g><g opacity="1" transform="matrix(1,0,0,1,20.25,34.040000915527344)"><path fill="rgb(107,31,0)" fill-opacity="1" d=" M18.392000198364258,22.4689998626709 C18.392000198364258,24.735000610351562 18.341999053955078,26.96299934387207 18.23200035095215,29.15399932861328 C17.070999145507812,3.7950000762939453 9.347000122070312,-15.803999900817871 -0.0010000000474974513,-15.803999900817871 C-9.347999572753906,-15.803999900817871 -17.070999145507812,3.7950000762939453 -18.232999801635742,29.15399932861328 C-18.341999053955078,26.96299934387207 -18.392000198364258,24.735000610351562 -18.392000198364258,22.4689998626709 C-18.392000198364258,-6.041999816894531 -10.156000137329102,-29.15399932861328 -0.0010000000474974513,-29.15399932861328 C10.154999732971191,-29.15399932861328 18.392000198364258,-6.041999816894531 18.392000198364258,22.4689998626709z"></path></g></g></g></g></svg>