<svg xmlns="http://www.w3.org/2000/svg" viewBox="0 0 512 512" width="512" height="512" style="width: 100%; height: 100%; transform: translate3d(0,0,0);" preserveAspectRatio="xMidYMid meet"><defs><clipPath id="__lottie_element_21463"><rect width="512" height="512" x="0" y="0"></rect></clipPath></defs><g clip-path="url(#__lottie_element_21463)"><g style="display: block;" transform="matrix(0.949999988079071,0,0,0.949999988079071,39.586151123046875,61.049468994140625)" opacity="1"><g opacity="1" transform="matrix(1,0,0,1,0,0)"><g opacity="0.1" transform="matrix(1.0230000019073486,0,0,1,227.80299377441406,248.39500427246094)"><path fill="rgb(0,0,0)" fill-opacity="1" d=" M219.49400329589844,-0.0010000000474974513 C219.49400329589844,121.2239990234375 121.2229995727539,219.49400329589844 0,219.49400329589844 C-121.22200012207031,219.49400329589844 -219.49400329589844,121.2239990234375 -219.49400329589844,-0.0010000000474974513 C-219.49400329589844,-121.2229995727539 -121.22200012207031,-219.49400329589844 0,-219.49400329589844 C121.2229995727539,-219.49400329589844 219.49400329589844,-121.2229995727539 219.49400329589844,-0.0010000000474974513z"></path></g><g opacity="1" transform="matrix(1,0,0,1,227.80299377441406,224.39500427246094)"><path fill="rgb(255,177,57)" fill-opacity="1" d=" M219.49400329589844,-0.0010000000474974513 C219.49400329589844,121.2239990234375 121.2229995727539,219.49400329589844 0,219.49400329589844 C-121.22200012207031,219.49400329589844 -219.49400329589844,121.2239990234375 -219.49400329589844,-0.0010000000474974513 C-219.49400329589844,-121.2229995727539 -121.22200012207031,-219.49400329589844 0,-219.49400329589844 C121.2229995727539,-219.49400329589844 219.49400329589844,-121.2229995727539 219.49400329589844,-0.0010000000474974513z"></path></g><g opacity="1" transform="matrix(1,0,0,1,227.8040008544922,224.39500427246094)"><path fill="rgb(248,127,66)" fill-opacity="1" d=" M158.49200439453125,-158.4929962158203 C117.94499969482422,-199.0469970703125 61.880001068115234,-224.14500427246094 -0.0010000000474974513,-224.14300537109375 C-61.88100051879883,-224.14500427246094 -117.94599914550781,-199.0469970703125 -158.4929962158203,-158.4929962158203 C-199.0469970703125,-117.94599914550781 -224.14500427246094,-61.88100051879883 -224.14300537109375,-0.0010000000474974513 C-224.14500427246094,61.880001068115234 -199.0469970703125,117.94499969482422 -158.4929962158203,158.49200439453125 C-117.94599914550781,199.04800415039062 -61.88100051879883,224.14500427246094 -0.0010000000474974513,224.14300537109375 C61.880001068115234,224.14500427246094 117.94499969482422,199.04800415039062 158.49200439453125,158.49200439453125 C199.0469970703125,117.94499969482422 224.14500427246094,61.880001068115234 224.14199829101562,-0.0010000000474974513 C224.14500427246094,-61.88100051879883 199.0469970703125,-117.94599914550781 158.49200439453125,-158.4929962158203z M151.91799926757812,151.91900634765625 C113.02400207519531,190.80599975585938 59.34199905395508,214.84300231933594 -0.0010000000474974513,214.84500122070312 C-59.34299850463867,214.84300231933594 -113.0250015258789,190.80599975585938 -151.91900634765625,151.91900634765625 C-190.80599975585938,113.02400207519531 -214.843994140625,59.34299850463867 -214.8459930419922,-0.0010000000474974513 C-214.843994140625,-59.34299850463867 -190.80599975585938,-113.02400207519531 -151.91900634765625,-151.91900634765625 C-113.0250015258789,-190.80499267578125 -59.34299850463867,-214.843994140625 -0.0010000000474974513,-214.8459930419922 C59.34199905395508,-214.843994140625 113.02400207519531,-190.80499267578125 151.91799926757812,-151.91900634765625 C190.80499267578125,-113.02400207519531 214.84300231933594,-59.34299850463867 214.84500122070312,-0.0010000000474974513 C214.84300231933594,59.34299850463867 190.80499267578125,113.02400207519531 151.91799926757812,151.91900634765625z"></path></g><g opacity="1" transform="matrix(1,0,0,1,227.86700439453125,222.22500610351562)"><path fill="rgb(255,209,64)" fill-opacity="1" d=" M195.64300537109375,2.997999906539917 C193.9510040283203,113.43199920654297 104.98699951171875,201.61300659179688 -3.063999891281128,199.95799255371094 C-111.11399841308594,198.30099487304688 -197.33599853515625,107.43499755859375 -195.6439971923828,-3 C-193.9499969482422,-113.43199920654297 -104.98600006103516,-201.61300659179688 3.065999984741211,-199.95700073242188 C111.11499786376953,-198.30099487304688 197.33599853515625,-107.43499755859375 195.64300537109375,2.997999906539917z"></path><path fill="rgb(255,209,64)" fill-opacity="1" d=" M195.64300537109375,2.997999906539917 C193.9510040283203,113.43199920654297 104.98699951171875,201.61300659179688 -3.063999891281128,199.95799255371094 C-111.11399841308594,198.30099487304688 -197.33599853515625,107.43499755859375 -195.6439971923828,-3 C-193.9499969482422,-113.43199920654297 -104.98600006103516,-201.61300659179688 3.065999984741211,-199.95700073242188 C111.11499786376953,-198.30099487304688 197.33599853515625,-107.43499755859375 195.64300537109375,2.997999906539917z"></path></g><g opacity="1" transform="matrix(1,0,0,1,222.3489990234375,40.20800018310547)"><path fill="rgb(255,223,121)" fill-opacity="1" d=" M-106.30899810791016,17.975000381469727 C-76.12200164794922,-4.456999778747559 -37.125999450683594,-17.975000381469727 5.453999996185303,-17.975000381469727 C43.06999969482422,-17.975000381469727 77.88899993896484,-7.425000190734863 106.30899810791016,10.50100040435791 C77.7249984741211,-7.067999839782715 44.347999572753906,-17.39299964904785 8.585000038146973,-17.940000534057617 C7.581999778747559,-17.957000732421875 6.590000152587891,-17.964000701904297 5.590000152587891,-17.964000701904297 C-35.94300079345703,-17.964000701904297 -74.5530014038086,-4.690000057220459 -106.30899810791016,17.975000381469727z"></path></g><g opacity="1" transform="matrix(1,0,0,1,227.80299377441406,120.02200317382812)"><path fill="rgb(255,223,121)" fill-opacity="1" d=" M141.97799682617188,97.7760009765625 C110.58899688720703,97.7760009765625 58.70100021362305,72.70500183105469 -0.0010000000474974513,72.70500183105469 C-58.69499969482422,72.70500183105469 -110.58899688720703,97.77300262451172 -141.97799682617188,97.7760009765625 C-161.82200622558594,97.77799987792969 -173.46499633789062,87.76499938964844 -173.46499633789062,55.06700134277344 C-173.46499633789062,8.168000221252441 -149.49600219726562,-33.79899978637695 -111.76300048828125,-61.8380012512207 C-80.00700378417969,-84.50299835205078 -41.39699935913086,-97.77799987792969 0.13600000739097595,-97.77799987792969 C1.1360000371932983,-97.77799987792969 2.127000093460083,-97.77100372314453 3.130000114440918,-97.75399780273438 C38.89400100708008,-97.20700073242188 72.27100372314453,-86.88200378417969 100.8550033569336,-69.31199645996094 C144.81700134277344,-41.58300018310547 173.46499633789062,3.7929999828338623 173.46499633789062,55.06700134277344 C173.46499633789062,87.75900268554688 161.81500244140625,97.7760009765625 141.97799682617188,97.7760009765625z"></path></g><g opacity="1" transform="matrix(1,0,0,1,272.8630065917969,27.797000885009766)"><path fill="rgb(255,255,255)" fill-opacity="1" d=" M-3.5329999923706055,2.746000051498413 C-1.774999976158142,3.128999948501587 0.04600000008940697,3.5510001182556152 1.9249999523162842,4.015999794006348 C3.7939999103546143,4.4770002365112305 5.684000015258789,3.3350000381469727 6.145999908447266,1.465999960899353 C6.60699987411499,-0.40299999713897705 5.4670000076293945,-2.2929999828338623 3.5969998836517334,-2.753999948501587 C1.6540000438690186,-3.2339999675750732 -0.23100000619888306,-3.6689999103546143 -2.0490000247955322,-4.065000057220459 C-3.930000066757202,-4.47599983215332 -5.7870001792907715,-3.2820000648498535 -6.197000026702881,-1.4010000228881836 C-6.60699987411499,0.48100000619888306 -5.414000034332275,2.3369998931884766 -3.5329999923706055,2.746000051498413z"></path></g><g opacity="1" transform="matrix(1,0,0,1,252.656005859375,24.374000549316406)"><path fill="rgb(255,255,255)" fill-opacity="1" d=" M-7.586999893188477,2.503000020980835 C-7.586999893188477,2.503000020980835 -7.540999889373779,2.505000114440918 -7.540999889373779,2.505000114440918 C-6.985000133514404,2.5390000343322754 -1.6050000190734863,2.881999969482422 6.660999774932861,4.248000144958496 C8.560999870300293,4.563000202178955 10.354999542236328,3.2780001163482666 10.670000076293945,1.378000020980835 C10.984000205993652,-0.5210000276565552 9.699000358581543,-2.315999984741211 7.798999786376953,-2.630000114440918 C-1.3329999446868896,-4.140999794006348 -7.110000133514404,-4.453999996185303 -7.214000225067139,-4.459000110626221 C-9.13599967956543,-4.563000202178955 -10.777999877929688,-3.0880000591278076 -10.881999969482422,-1.1649999618530273 C-10.984999656677246,0.7580000162124634 -9.508999824523926,2.3989999294281006 -7.586999893188477,2.503000020980835z"></path></g></g></g><g style="display: block;" transform="matrix(0.9723820090293884,0.00015274141333065927,-0.00015274141333065927,0.9723820090293884,7.032169818878174,37.97037887573242)" opacity="1"><g opacity="1" transform="matrix(1,0,0,1,97.593994140625,264.3210144042969)"><g opacity="1" transform="matrix(1,0,0,1,158.468994140625,72.2509994506836)"><path fill="rgb(255,177,57)" fill-opacity="1" d=" M146.91700744628906,-69.927001953125 C138.38299560546875,-74.0719985961914 94.78600311279297,-48.29899978637695 -0.07699999958276749,-48.689998626708984 C-94.38800048828125,-49.07899856567383 -138.38299560546875,-74.0719985961914 -146.91700744628906,-69.927001953125 C-153.5489959716797,-66.70600128173828 -152.1699981689453,-34.60200119018555 -134.4739990234375,-3.9130001068115234 C-112.90599822998047,33.49100112915039 -68.6449966430664,71.60800170898438 0,71.60800170898438 C68.6449966430664,71.60800170898438 112.90499877929688,33.4900016784668 134.4739990234375,-3.9130001068115234 C152.17100524902344,-34.60200119018555 153.5489959716797,-66.70600128173828 146.91700744628906,-69.927001953125z"></path></g><g opacity="1" transform="matrix(1,0,0,1,158.468994140625,83.60099792480469)"><path fill="rgb(255,226,166)" fill-opacity="1" d=" M146.91700744628906,-72.03399658203125 C138.38299560546875,-76.31300354003906 95.302001953125,-54.108001708984375 0.05700000002980232,-52.02399826049805 C-89.61799621582031,-50.0620002746582 -137.1580047607422,-76.18399810791016 -145.6929931640625,-71.90499877929688 C-152.3249969482422,-68.58000183105469 -152.17100524902344,-35.55699920654297 -134.4739990234375,-3.868000030517578 C-112.90599822998047,34.75400161743164 -74.0260009765625,73.3499984741211 0,74.11399841308594 C74.94100189208984,74.88700103759766 112.90599822998047,34.75400161743164 134.4739990234375,-3.868000030517578 C152.17100524902344,-35.55699920654297 153.5489959716797,-68.70800018310547 146.91700744628906,-72.03399658203125z"></path></g><g opacity="1" transform="matrix(1,0,0,1,158.468994140625,79.55999755859375)"><path fill="rgb(134,63,20)" fill-opacity="1" d=" M145.95399475097656,-68.94000244140625 C137.6699981689453,-73.08499908447266 94.91500091552734,-49.808998107910156 0.004999999888241291,-49.183998107910156 C-103.66500091552734,-48.50199890136719 -130.72900390625,-72.48999786376953 -143.89300537109375,-68.81099700927734 C-152.4949951171875,-66.40699768066406 -148.60499572753906,-32.970001220703125 -131.42799377441406,-2.2809998989105225 C-110.49299621582031,35.12200164794922 -66.83499908447266,70.2760009765625 -0.20399999618530273,70.2760009765625 C66.4260025024414,70.2760009765625 111.13800048828125,34.608001708984375 132.07200622558594,-2.7960000038146973 C149.24899291992188,-33.486000061035156 152.39100646972656,-65.71900177001953 145.95399475097656,-68.94000244140625z"></path></g></g><g opacity="1" transform="matrix(1,0,0,1,117.3389892578125,290.5409851074219)"><g opacity="1" transform="matrix(1,0,0,1,138.72500610351562,50.21200180053711)"><path fill="rgb(99,37,12)" fill-opacity="1" d=" M-124.25800323486328,-14.206000328063965 C-110.36799621582031,-3.253000020980835 -69.7760009765625,14.038999557495117 -0.257999986410141,14.159000396728516 C66.04900360107422,14.27299976348877 107.93099975585938,0.22599999606609344 125.93399810791016,-16.138999938964844 C125.93399810791016,-16.138999938964844 -124.25800323486328,-14.206000328063965 -124.25800323486328,-14.206000328063965z"></path></g><g opacity="1" transform="matrix(1,0,0,1,138.7239990234375,26.799999237060547)"><path fill="rgb(255,255,255)" fill-opacity="1" d=" M-124.25700378417969,9.206000328063965 C-107.08599853515625,15.770999908447266 -73.15799713134766,27.07900047302246 0.05400000140070915,27.07900047302246 C73.26499938964844,27.07900047302246 108.89099884033203,14.225000381469727 126.06300354003906,7.659999847412109 C131.88999938964844,-4.7230000495910645 133.71600341796875,-13.767999649047852 134.7989959716797,-22.222999572753906 C135.16099548339844,-25.049999237060547 132.1219940185547,-28.4689998626709 129.46200561523438,-27.7810001373291 C114.50399780273438,-23.913000106811523 70.04399871826172,-8.96500015258789 -0.017000000923871994,-9.472999572753906 C-71.322998046875,-9.989999771118164 -109.56199645996094,-23.624000549316406 -128.302001953125,-28.555999755859375 C-130.95899963378906,-29.2549991607666 -134.52099609375,-27.250999450683594 -134.79800415039062,-24.415000915527344 C-135.59800720214844,-16.229000091552734 -133.0229949951172,-3.5969998836517334 -124.25700378417969,9.206000328063965z"></path></g><g opacity="1" transform="matrix(1,0,0,1,229.593994140625,21.417999267578125)"><path fill="rgb(201,214,215)" fill-opacity="1" d=" M35.70800018310547,12.39799976348877 C41.53499984741211,0.014999999664723873 42.84299850463867,-8.38700008392334 43.928001403808594,-16.840999603271484 C44.29100036621094,-19.667999267578125 41.25199890136719,-23.086999893188477 38.59199905395508,-22.39900016784668 C23.375,-18.465999603271484 -2.4619998931884766,-10.927000045776367 -48.75199890136719,-6.105000019073486 C15.597999572753906,-8.621999740600586 39.74100112915039,-14.92199993133545 20.867000579833984,17.83300018310547 C27.613000869750977,16.0049991607666 35.48899841308594,12.397000312805176 35.70800018310547,12.39799976348877z"></path></g><g opacity="1" transform="matrix(1,0,0,1,47.861000061035156,21.41699981689453)"><path fill="rgb(201,214,215)" fill-opacity="1" d=" M48.62900161743164,-6.876999855041504 C0.35600000619888306,-9.61299991607666 -20.79400062561035,-19.174999237060547 -37.43899917602539,-23.17300033569336 C-40.111000061035156,-23.815000534057617 -44.297000885009766,-21.858999252319336 -43.935001373291016,-19.031999588012695 C-42.85200119018555,-10.57699966430664 -43.4739990234375,1.7020000219345093 -33.39400100708008,14.58899974822998 C-29.097000122070312,16.23200035095215 -23.753999710083008,18.06800079345703 -17.007999420166016,19.895000457763672 C-37.03099822998047,-14.92199993133545 -16.41200065612793,-10.668999671936035 48.62900161743164,-6.876999855041504z"></path></g></g><g opacity="1" transform="matrix(1,0,0,1,102.24099731445312,271.6289978027344)"><g opacity="1" transform="matrix(1,0,0,1,153.82400512695312,49.275001525878906)"><path fill="rgb(99,37,12)" fill-opacity="1" d=" M132.07200622558594,20.18000030517578 C126.5510025024414,30.054000854492188 118.83200073242188,39.70899963378906 110.2040023803711,48.95500183105469 C112.6969985961914,46.01100158691406 135.5070037841797,18.270000457763672 134.7050018310547,-18.202999114990234 C134.7050018310547,-18.202999114990234 131.35400390625,-8.300999641418457 131.35400390625,-8.300999641418457 C133.59500122070312,-15.239999771118164 133.88499450683594,-20.690000534057617 134.79299926757812,-25.790000915527344 C135.50599670410156,-29.79599952697754 132.16900634765625,-31.78499984741211 129.46400451660156,-31.344999313354492 C112.82599639892578,-28.63599967956543 70.30000305175781,-12.656999588012695 -0.023000000044703484,-13.038000106811523 C-70.4280014038086,-13.418999671936035 -109.66100311279297,-27.2189998626709 -128.30299377441406,-32.11899948120117 C-130.96299743652344,-32.81800079345703 -135.16600036621094,-30.80299949645996 -134.80299377441406,-27.981000900268555 C-134.14199829101562,-22.841999053955078 -134.33900451660156,-19.874000549316406 -134.06100463867188,-17.31100082397461 C-134.06100463867188,-17.31100082397461 -134.3179931640625,-14.980999946594238 -134.3179931640625,-14.980999946594238 C-136.0780029296875,18.142000198364258 -113.21199798583984,45.10900115966797 -110.72799682617188,48.053001403808594 C-119.34700012207031,38.80699920654297 -125.6719970703125,30.43400001525879 -131.42799377441406,20.69499969482422 C-149.56100463867188,-9.98900032043457 -152.48699951171875,-43.641998291015625 -142.60800170898438,-46.86199951171875 C-133.79600524902344,-49.73400115966797 -103.41100311279297,-25.676000595092773 -0.0010000000474974513,-26.208999633789062 C96.072998046875,-26.70400047302246 136.89300537109375,-50.736000061035156 145.0469970703125,-46.34700012207031 C153.2899932861328,-41.90999984741211 149.23399353027344,-10.51200008392334 132.07200622558594,20.18000030517578z"></path></g></g><g opacity="0" transform="matrix(0.7699999809265137,0,0,0.7699999809265137,58.879547119140625,73.4593505859375)"><g opacity="1" transform="matrix(1,0,0,1,255.9980010986328,365.23199462890625)"><path fill="rgb(255,255,255)" fill-opacity="1" d=" M-0.2619999945163727,51.90800094604492 C51.52799987792969,51.90800094604492 93.60700225830078,26.39900016784668 112.68699645996094,10.555999755859375 C86.85900115966797,35.064998626708984 42.18899917602539,53.474998474121094 0.9480000138282776,53.474998474121094 C-44.24300003051758,53.474998474121094 -87.08799743652344,39.564998626708984 -112.22599792480469,15.439000129699707 C-86.56099700927734,33.448001861572266 -52.81999969482422,51.90800094604492 -0.2619999945163727,51.90800094604492z"></path></g><g opacity="1" transform="matrix(1,0,0,1,255.9980010986328,365.23199462890625)"><path fill="rgb(199,209,209)" fill-opacity="1" d=" M108.1449966430664,13.98799991607666 C104.08100128173828,16.483999252319336 102.46700286865234,21.253000259399414 97.15899658203125,22.145000457763672 C97.15899658203125,22.145000457763672 97.15899658203125,22.187999725341797 97.15899658203125,22.187999725341797 C97.15899658203125,22.187999725341797 97.16999816894531,22.50200080871582 97.16999816894531,22.50200080871582 C97.16999816894531,22.50200080871582 62.599998474121094,52.89400100708008 -0.22100000083446503,52.89400100708008 C-62.92499923706055,52.89400100708008 -96.13899993896484,27.177000045776367 -96.13899993896484,27.177000045776367 C-96.13899993896484,27.177000045776367 -96.13899993896484,27.16900062561035 -96.13899993896484,27.16900062561035 C-103.81700134277344,25.87700080871582 -107.927001953125,18.365999221801758 -112.22599792480469,15.439000129699707 C-87.30999755859375,39.35300064086914 -44.98899841308594,53.176998138427734 -0.22100000083446503,53.465999603271484 C-0.20999999344348907,53.465999603271484 -0.20999999344348907,53.465999603271484 -0.19900000095367432,53.465999603271484 C0.17900000512599945,53.474998474121094 0.5699999928474426,53.474998474121094 0.9480000138282776,53.474998474121094 C42.18899917602539,53.474998474121094 86.85900115966797,35.064998626708984 112.68699645996094,10.555999755859375 C110.94000244140625,10.946999549865723 109.83100128173828,12.95199966430664 108.1449966430664,13.98799991607666z"></path></g></g></g><g style="display: block;" transform="matrix(0.949999988079071,0,0,0.949999988079071,132.2852325439453,170.06385803222656)" opacity="1"><g opacity="1" transform="matrix(1,0,0,1,0,0)"><g opacity="1" transform="matrix(1,0,0,1,53.50199890136719,69.88400268554688)"><path fill="rgb(255,226,166)" fill-opacity="1" d=" M48.41299819946289,-12.397000312805176 C48.41299819946289,-12.397000312805176 -44.28499984741211,-57.84199905395508 -44.28499984741211,-57.84199905395508 C-53.25299835205078,-41.159000396728516 8.718999862670898,-6.986000061035156 8.718999862670898,4.171000003814697 C8.718999862670898,16.301000595092773 -42.09600067138672,47.54800033569336 -42.09600067138672,47.54800033569336 C-35.37799835205078,57.84299850463867 -8.364999771118164,45.9370002746582 15.470999717712402,30.56999969482422 C35.07600021362305,17.93000030517578 53.25299835205078,4.482999801635742 48.41299819946289,-12.397000312805176z"></path></g><g opacity="1" transform="matrix(1,0,0,1,54.058998107910156,62.44599914550781)"><path fill="rgb(255,177,57)" fill-opacity="1" d=" M47.99700164794922,-4.256999969482422 C45.895999908447266,-20.53499984741211 -38.85499954223633,-62.19499969482422 -44.84000015258789,-50.40399932861328 C-50.48899841308594,-39.275001525878906 4.875999927520752,-13.725000381469727 4.875999927520752,-2.568000078201294 C4.875999927520752,9.562000274658203 -48.507999420166016,45.99300003051758 -42.652000427246094,54.98699951171875 C-37.95899963378906,62.19599914550781 50.4900016784668,15.052000045776367 47.99700164794922,-4.256999969482422z"></path></g><g opacity="1" transform="matrix(1,0,0,1,53.694000244140625,67.8030014038086)"><path fill="rgb(134,63,20)" fill-opacity="1" d=" M46.819000244140625,-3.302000045776367 C46.819000244140625,-19.415000915527344 -35.16699981689453,-58.499000549316406 -40.88399887084961,-50.02899932861328 C-46.819000244140625,-41.23699951171875 8.59000015258789,-13.031000137329102 8.59000015258789,-1.8739999532699585 C8.59000015258789,10.255000114440918 -43.87300109863281,41.20600128173828 -36.60100173950195,49.93199920654297 C-29.461999893188477,58.499000549316406 46.819000244140625,12.402999877929688 46.819000244140625,-3.302000045776367z"></path></g><g opacity="1" transform="matrix(1,0,0,1,56.106998443603516,38.90700149536133)"><path fill="rgb(107,32,0)" fill-opacity="1" d=" M43.17499923706055,29.60300064086914 C43.970001220703125,28.121000289916992 44.40599822998047,26.770000457763672 44.40599822998047,25.5939998626709 C44.40599822998047,9.480999946594238 -37.58000183105469,-29.60300064086914 -43.297000885009766,-21.132999420166016 C-44.40599822998047,-19.489999771118164 -43.37200164794922,-17.16900062561035 -40.95899963378906,-14.407999992370605 C-27.440000534057617,-16.166000366210938 33.75299835205078,13.276000022888184 43.17499923706055,29.60300064086914z"></path></g><g opacity="1" transform="matrix(1,0,0,1,36.417999267578125,92.52100372314453)"><path fill="rgb(107,32,0)" fill-opacity="1" d=" M-18.054000854492188,26.003999710083008 C-9.239999771118164,12.182000160217285 26.48200035095215,-13.777000427246094 26.48200035095215,-23.729000091552734 C26.48200035095215,-24.440000534057617 26.25200080871582,-25.20199966430664 25.82699966430664,-26.003999710083008 C24.226999282836914,-13.491999626159668 -26.482999801635742,16.625999450683594 -19.326000213623047,25.214000701904297 C-19.02400016784668,25.576000213623047 -18.59000015258789,25.83099937438965 -18.054000854492188,26.003999710083008z"></path></g></g><g opacity="1" transform="matrix(1,0,0,1,0,0)"><g opacity="1" transform="matrix(1,0,0,1,206.94900512695312,69.88400268554688)"><path fill="rgb(255,226,166)" fill-opacity="1" d=" M-48.41299819946289,-12.397000312805176 C-48.41299819946289,-12.397000312805176 44.284000396728516,-57.84199905395508 44.284000396728516,-57.84199905395508 C53.25299835205078,-41.159000396728516 -8.720000267028809,-6.986000061035156 -8.720000267028809,4.171000003814697 C-8.720000267028809,16.301000595092773 42.09700012207031,47.54800033569336 42.09700012207031,47.54800033569336 C35.37799835205078,57.84299850463867 8.36400032043457,45.9370002746582 -15.472000122070312,30.56999969482422 C-35.07600021362305,17.93000030517578 -53.25299835205078,4.482999801635742 -48.41299819946289,-12.397000312805176z"></path></g><g opacity="1" transform="matrix(1,0,0,1,206.39199829101562,62.44599914550781)"><path fill="rgb(255,177,57)" fill-opacity="1" d=" M-47.99700164794922,-4.256999969482422 C-45.895999908447266,-20.53499984741211 38.85499954223633,-62.19499969482422 44.84000015258789,-50.40399932861328 C50.48899841308594,-39.275001525878906 -4.876999855041504,-13.725000381469727 -4.876999855041504,-2.568000078201294 C-4.876999855041504,9.562000274658203 48.507999420166016,45.99300003051758 42.652000427246094,54.98699951171875 C37.95800018310547,62.19599914550781 -50.4900016784668,15.052000045776367 -47.99700164794922,-4.256999969482422z"></path></g><g opacity="1" transform="matrix(1,0,0,1,206.7570037841797,67.8030014038086)"><path fill="rgb(134,63,20)" fill-opacity="1" d=" M-46.819000244140625,-3.302000045776367 C-46.819000244140625,-19.415000915527344 35.16600036621094,-58.499000549316406 40.88399887084961,-50.02899932861328 C46.819000244140625,-41.23699951171875 -8.59000015258789,-13.031000137329102 -8.59000015258789,-1.8739999532699585 C-8.59000015258789,10.255000114440918 43.87200164794922,41.20600128173828 36.60100173950195,49.93199920654297 C29.461999893188477,58.499000549316406 -46.819000244140625,12.402999877929688 -46.819000244140625,-3.302000045776367z"></path></g><g opacity="1" transform="matrix(1,0,0,1,204.343994140625,38.90700149536133)"><path fill="rgb(107,32,0)" fill-opacity="1" d=" M-43.17499923706055,29.60300064086914 C-43.970001220703125,28.121000289916992 -44.40599822998047,26.770000457763672 -44.40599822998047,25.5939998626709 C-44.40599822998047,9.480999946594238 37.58100128173828,-29.60300064086914 43.29800033569336,-21.132999420166016 C44.40599822998047,-19.489999771118164 43.37099838256836,-17.16900062561035 40.95899963378906,-14.407999992370605 C27.43899917602539,-16.166000366210938 -33.75299835205078,13.276000022888184 -43.17499923706055,29.60300064086914z"></path></g><g opacity="1" transform="matrix(1,0,0,1,224.0330047607422,92.52100372314453)"><path fill="rgb(107,32,0)" fill-opacity="1" d=" M18.05500030517578,26.003999710083008 C9.241000175476074,12.182000160217285 -26.48200035095215,-13.777000427246094 -26.48200035095215,-23.729000091552734 C-26.48200035095215,-24.440000534057617 -26.25200080871582,-25.20199966430664 -25.82699966430664,-26.003999710083008 C-24.226999282836914,-13.491999626159668 26.482999801635742,16.625999450683594 19.326000213623047,25.214000701904297 C19.024999618530273,25.576000213623047 18.590999603271484,25.83099937438965 18.05500030517578,26.003999710083008z"></path></g></g></g><g style="display: none;"><g></g><g><g><path></path></g><g><path></path></g><g><path></path></g><g><path></path></g></g><g><g><path></path></g><g><path></path></g><g><path></path></g><g><path></path></g></g></g></g></svg>