<svg xmlns="http://www.w3.org/2000/svg" viewBox="0 0 512 512" width="512" height="512" style="width: 100%; height: 100%; transform: translate3d(0,0,0);" preserveAspectRatio="xMidYMid meet"><defs><clipPath id="__lottie_element_21479"><rect width="512" height="512" x="0" y="0"></rect></clipPath></defs><g clip-path="url(#__lottie_element_21479)"><g style="display: block;" transform="matrix(1,0,0,1,28.8280029296875,33.20399475097656)" opacity="1"><g opacity="1" transform="matrix(1,0,0,1,0,0)"><g opacity="0.1" transform="matrix(1,0,0,1,227.07200622558594,243.37899780273438)"><path fill="rgb(0,0,0)" fill-opacity="1" d=" M213.1009979248047,0 C213.1009979248047,117.69200134277344 117.69200134277344,213.1020050048828 -0.0010000000474974513,213.1020050048828 C-117.69300079345703,213.1020050048828 -213.1020050048828,117.69200134277344 -213.1020050048828,0 C-213.1020050048828,-117.69300079345703 -117.69300079345703,-213.1020050048828 -0.0010000000474974513,-213.1020050048828 C117.69200134277344,-213.1020050048828 213.1009979248047,-117.69300079345703 213.1009979248047,0z"></path></g><g opacity="1" transform="matrix(1,0,0,1,227.0709991455078,227.07200622558594)"><path fill="rgb(255,176,57)" fill-opacity="1" d=" M205.32899475097656,0 C205.32899475097656,113.4000015258789 113.4000015258789,205.3300018310547 0,205.3300018310547 C-113.4000015258789,205.3300018310547 -205.32899475097656,113.4000015258789 -205.32899475097656,0 C-205.32899475097656,-113.4000015258789 -113.4000015258789,-205.3300018310547 0,-205.3300018310547 C113.4000015258789,-205.3300018310547 205.32899475097656,-113.4000015258789 205.32899475097656,0z"></path></g><g opacity="1" transform="matrix(1,0,0,1,227.1320037841797,225.04200744628906)"><path fill="rgb(255,209,64)" fill-opacity="1" d=" M183.01800537109375,2.805000066757202 C181.4340057373047,106.11199951171875 98.21099853515625,188.60299682617188 -2.867000102996826,187.05299377441406 C-103.94400024414062,185.50399780273438 -184.6009979248047,100.5009994506836 -183.01699829101562,-2.805000066757202 C-181.4340057373047,-106.11199951171875 -98.21099853515625,-188.60299682617188 2.868000030517578,-187.0540008544922 C103.94599914550781,-185.5050048828125 184.6009979248047,-100.50199890136719 183.01800537109375,2.805000066757202z"></path></g><g opacity="1" transform="matrix(1,0,0,1,227.07200622558594,129.4290008544922)"><path fill="rgb(255,223,121)" fill-opacity="1" d=" M162.27099609375,51.518001556396484 C162.27099609375,130.49000549316406 89.62000274658203,68.01899719238281 0,68.01899719238281 C-89.62000274658203,68.01899719238281 -162.27099609375,130.49000549316406 -162.27099609375,51.518001556396484 C-162.27099609375,-27.45400047302246 -89.62000274658203,-91.4729995727539 0,-91.4729995727539 C89.62000274658203,-91.4729995727539 162.27099609375,-27.45400047302246 162.27099609375,51.518001556396484z"></path></g><g opacity="1" transform="matrix(1,0,0,1,269.2090148925781,43.14799880981445)"><path stroke-linecap="round" stroke-linejoin="round" fill-opacity="0" stroke="rgb(255,255,255)" stroke-opacity="1" stroke-width="6.523" d=" M-2.5969998836517334,-0.6039999723434448 C-0.925000011920929,-0.23899999260902405 0.8090000152587891,0.16200000047683716 2.5969998836517334,0.6039999723434448"></path></g><g opacity="1" transform="matrix(1,0,0,1,250.24200439453125,39.880001068115234)"><path stroke-linecap="round" stroke-linejoin="round" fill-opacity="0" stroke="rgb(255,255,255)" stroke-opacity="1" stroke-width="6.523" d=" M-6.8429999351501465,-0.8360000252723694 C-6.8429999351501465,-0.8360000252723694 -1.5529999732971191,-0.5529999732971191 6.8429999351501465,0.8360000252723694"></path></g><g opacity="1" transform="matrix(1,0,0,1,368.38800048828125,144.26300048828125)"><path fill="rgb(255,176,57)" fill-opacity="1" d=" M54.05400085449219,40.42900085449219 C48.3489990234375,57.86000061035156 27.538999557495117,73.80400085449219 4.296000003814697,73.80400085449219 C-26.589000701904297,73.8030014038086 -52.590999603271484,48.696998596191406 -53.9630012512207,23.416000366210938 C-55.762001037597656,-9.779000282287598 -30.27199935913086,-56.37900161743164 -16.815000534057617,-73.80400085449219 C17.940000534057617,-45.75699996948242 43.367000579833984,-4.435999870300293 54.05400085449219,40.42900085449219z"></path></g><g opacity="1" transform="matrix(1,0,0,1,227.0709991455078,227.07200622558594)"><path stroke-linecap="butt" stroke-linejoin="miter" fill-opacity="0" stroke-miterlimit="10" stroke="rgb(247,125,65)" stroke-opacity="1" stroke-width="8.697" d=" M205.32899475097656,0 C205.32899475097656,113.4000015258789 113.4000015258789,205.3300018310547 0,205.3300018310547 C-113.4000015258789,205.3300018310547 -205.32899475097656,113.4000015258789 -205.32899475097656,0 C-205.32899475097656,-113.4000015258789 -113.4000015258789,-205.3300018310547 0,-205.3300018310547 C113.4000015258789,-205.3300018310547 205.32899475097656,-113.4000015258789 205.32899475097656,0z"></path></g></g></g><g style="display: none;"><g><path></path></g><g><path></path></g><g><path></path></g><g><path></path></g><g><path></path></g><g><path></path></g><g><path></path></g><g><path></path></g><g><path></path></g><g><path></path></g></g><g style="display: none;"><g><path></path></g><g><path></path></g><g><path></path></g><g><path></path></g><g><path></path></g><g><path></path></g><g><path></path></g><g><path></path></g><g><path></path></g><g><path></path></g></g><g style="display: block;" transform="matrix(0.9700000286102295,0,0,0.9700000286102295,7.676910400390625,22.583877563476562)" opacity="1"><g opacity="1" transform="matrix(1,0,0,1,97.593994140625,264.3210144042969)"><g opacity="1" transform="matrix(1,0,0,1,158.468994140625,72.2509994506836)"><path fill="rgb(255,177,57)" fill-opacity="1" d=" M146.91700744628906,-69.927001953125 C138.38299560546875,-74.0719985961914 94.78600311279297,-48.29899978637695 -0.07699999958276749,-48.689998626708984 C-94.38800048828125,-49.07899856567383 -138.38299560546875,-74.0719985961914 -146.91700744628906,-69.927001953125 C-153.5489959716797,-66.70600128173828 -152.1699981689453,-34.60200119018555 -134.4739990234375,-3.9130001068115234 C-112.90599822998047,33.49100112915039 -68.6449966430664,71.60800170898438 0,71.60800170898438 C68.6449966430664,71.60800170898438 112.90499877929688,33.4900016784668 134.4739990234375,-3.9130001068115234 C152.17100524902344,-34.60200119018555 153.5489959716797,-66.70600128173828 146.91700744628906,-69.927001953125z"></path></g><g opacity="1" transform="matrix(1,0,0,1,158.468994140625,83.60099792480469)"><path fill="rgb(255,226,166)" fill-opacity="1" d=" M146.91700744628906,-72.03399658203125 C138.38299560546875,-76.31300354003906 95.302001953125,-54.108001708984375 0.05700000002980232,-52.02399826049805 C-89.61799621582031,-50.0620002746582 -137.1580047607422,-76.18399810791016 -145.6929931640625,-71.90499877929688 C-152.3249969482422,-68.58000183105469 -152.17100524902344,-35.55699920654297 -134.4739990234375,-3.868000030517578 C-112.90599822998047,34.75400161743164 -74.0260009765625,73.3499984741211 0,74.11399841308594 C74.94100189208984,74.88700103759766 112.90599822998047,34.75400161743164 134.4739990234375,-3.868000030517578 C152.17100524902344,-35.55699920654297 153.5489959716797,-68.70800018310547 146.91700744628906,-72.03399658203125z"></path></g><g opacity="1" transform="matrix(1,0,0,1,158.468994140625,79.55999755859375)"><path fill="rgb(134,63,20)" fill-opacity="1" d=" M145.95399475097656,-68.94000244140625 C137.6699981689453,-73.08499908447266 94.91500091552734,-49.808998107910156 0.004999999888241291,-49.183998107910156 C-103.66500091552734,-48.50199890136719 -130.72900390625,-72.48999786376953 -143.89300537109375,-68.81099700927734 C-152.4949951171875,-66.40699768066406 -148.60499572753906,-32.970001220703125 -131.42799377441406,-2.2809998989105225 C-110.49299621582031,35.12200164794922 -66.83499908447266,70.2760009765625 -0.20399999618530273,70.2760009765625 C66.4260025024414,70.2760009765625 111.13800048828125,34.608001708984375 132.07200622558594,-2.7960000038146973 C149.24899291992188,-33.486000061035156 152.39100646972656,-65.71900177001953 145.95399475097656,-68.94000244140625z"></path></g></g><g opacity="1" transform="matrix(1,0,0,1,117.3389892578125,290.5409851074219)"><g opacity="1" transform="matrix(1,0,0,1,138.72500610351562,50.21200180053711)"><path fill="rgb(99,37,12)" fill-opacity="1" d=" M-124.25800323486328,-14.206000328063965 C-110.36799621582031,-3.253000020980835 -69.7760009765625,14.038999557495117 -0.257999986410141,14.159000396728516 C66.04900360107422,14.27299976348877 107.93099975585938,0.22599999606609344 125.93399810791016,-16.138999938964844 C125.93399810791016,-16.138999938964844 -124.25800323486328,-14.206000328063965 -124.25800323486328,-14.206000328063965z"></path></g><g opacity="1" transform="matrix(1,0,0,1,138.7239990234375,26.799999237060547)"><path fill="rgb(244,244,244)" fill-opacity="1" d=" M-124.25700378417969,9.206000328063965 C-107.08599853515625,15.770999908447266 -73.15799713134766,27.07900047302246 0.05400000140070915,27.07900047302246 C73.26499938964844,27.07900047302246 108.89099884033203,14.225000381469727 126.06300354003906,7.659999847412109 C131.88999938964844,-4.7230000495910645 133.71600341796875,-13.767999649047852 134.7989959716797,-22.222999572753906 C135.16099548339844,-25.049999237060547 132.1219940185547,-28.4689998626709 129.46200561523438,-27.7810001373291 C114.50399780273438,-23.913000106811523 70.04399871826172,-8.96500015258789 -0.017000000923871994,-9.472999572753906 C-71.322998046875,-9.989999771118164 -109.56199645996094,-23.624000549316406 -128.302001953125,-28.555999755859375 C-130.95899963378906,-29.2549991607666 -134.52099609375,-27.250999450683594 -134.79800415039062,-24.415000915527344 C-135.59800720214844,-16.229000091552734 -133.0229949951172,-3.5969998836517334 -124.25700378417969,9.206000328063965z"></path></g><g opacity="1" transform="matrix(1,0,0,1,229.593994140625,21.417999267578125)"><path fill="rgb(201,214,215)" fill-opacity="1" d=" M35.70800018310547,12.39799976348877 C41.53499984741211,0.014999999664723873 42.84299850463867,-8.38700008392334 43.928001403808594,-16.840999603271484 C44.29100036621094,-19.667999267578125 41.25199890136719,-23.086999893188477 38.59199905395508,-22.39900016784668 C23.375,-18.465999603271484 -2.4619998931884766,-10.927000045776367 -48.75199890136719,-6.105000019073486 C15.597999572753906,-8.621999740600586 39.74100112915039,-14.92199993133545 20.867000579833984,17.83300018310547 C27.613000869750977,16.0049991607666 35.48899841308594,12.397000312805176 35.70800018310547,12.39799976348877z"></path></g><g opacity="1" transform="matrix(1,0,0,1,47.861000061035156,21.41699981689453)"><path fill="rgb(201,214,215)" fill-opacity="1" d=" M48.62900161743164,-6.876999855041504 C0.35600000619888306,-9.61299991607666 -20.79400062561035,-19.174999237060547 -37.43899917602539,-23.17300033569336 C-40.111000061035156,-23.815000534057617 -44.297000885009766,-21.858999252319336 -43.935001373291016,-19.031999588012695 C-42.85200119018555,-10.57699966430664 -43.4739990234375,1.7020000219345093 -33.39400100708008,14.58899974822998 C-29.097000122070312,16.23200035095215 -23.753999710083008,18.06800079345703 -17.007999420166016,19.895000457763672 C-37.03099822998047,-14.92199993133545 -16.41200065612793,-10.668999671936035 48.62900161743164,-6.876999855041504z"></path></g></g><g opacity="1" transform="matrix(1,0,0,1,102.24099731445312,271.6289978027344)"><g opacity="1" transform="matrix(1,0,0,1,153.82400512695312,49.275001525878906)"><path fill="rgb(99,37,12)" fill-opacity="1" d=" M132.07200622558594,20.18000030517578 C126.5510025024414,30.054000854492188 118.83200073242188,39.70899963378906 110.2040023803711,48.95500183105469 C112.6969985961914,46.01100158691406 135.5070037841797,18.270000457763672 134.7050018310547,-18.202999114990234 C134.7050018310547,-18.202999114990234 131.35400390625,-8.300999641418457 131.35400390625,-8.300999641418457 C133.59500122070312,-15.239999771118164 133.88499450683594,-20.690000534057617 134.79299926757812,-25.790000915527344 C135.50599670410156,-29.79599952697754 132.16900634765625,-31.78499984741211 129.46400451660156,-31.344999313354492 C112.82599639892578,-28.63599967956543 70.30000305175781,-12.656999588012695 -0.023000000044703484,-13.038000106811523 C-70.4280014038086,-13.418999671936035 -109.66100311279297,-27.2189998626709 -128.30299377441406,-32.11899948120117 C-130.96299743652344,-32.81800079345703 -135.16600036621094,-30.80299949645996 -134.80299377441406,-27.981000900268555 C-134.14199829101562,-22.841999053955078 -134.33900451660156,-19.874000549316406 -134.06100463867188,-17.31100082397461 C-134.06100463867188,-17.31100082397461 -134.3179931640625,-14.980999946594238 -134.3179931640625,-14.980999946594238 C-136.0780029296875,18.142000198364258 -113.21199798583984,45.10900115966797 -110.72799682617188,48.053001403808594 C-119.34700012207031,38.80699920654297 -125.6719970703125,30.43400001525879 -131.42799377441406,20.69499969482422 C-149.56100463867188,-9.98900032043457 -152.48699951171875,-43.641998291015625 -142.60800170898438,-46.86199951171875 C-133.79600524902344,-49.73400115966797 -103.41100311279297,-25.676000595092773 -0.0010000000474974513,-26.208999633789062 C96.072998046875,-26.70400047302246 136.89300537109375,-50.736000061035156 145.0469970703125,-46.34700012207031 C153.2899932861328,-41.90999984741211 149.23399353027344,-10.51200008392334 132.07200622558594,20.18000030517578z"></path></g></g><g opacity="0" transform="matrix(0.7699999809265137,0,0,0.7699999809265137,58.879547119140625,73.4593505859375)"><g opacity="1" transform="matrix(1,0,0,1,255.9980010986328,365.23199462890625)"><path fill="rgb(245,245,245)" fill-opacity="1" d=" M0.20000000298023224,66.20500183105469 C61.141998291015625,66.20500183105469 110.1050033569336,37.62099838256836 132.55599975585938,18.97800064086914 C102.16300201416016,47.81800079345703 50.152000427246094,68.0479965209961 1.6230000257492065,68.0479965209961 C-51.55400085449219,68.0479965209961 -102.49099731445312,47.77799987792969 -132.07200622558594,19.38800048828125 C-101.87200164794922,40.57899856567383 -61.645999908447266,66.20500183105469 0.20000000298023224,66.20500183105469z"></path></g><g opacity="1" transform="matrix(1,0,0,1,255.9980010986328,365.23199462890625)"><path fill="rgb(199,209,209)" fill-opacity="1" d=" M127.21099853515625,23.017000198364258 C122.4280014038086,25.95400047302246 120.52899932861328,31.56599998474121 114.28299713134766,32.61600112915039 C114.28299713134766,32.61600112915039 114.28299713134766,32.66600036621094 114.28299713134766,32.66600036621094 C114.28299713134766,32.66600036621094 114.2959976196289,33.0359992980957 114.2959976196289,33.0359992980957 C114.2959976196289,33.0359992980957 74.1709976196289,67.36499786376953 0.24799999594688416,67.36499786376953 C-73.53600311279297,67.36499786376953 -113.14299774169922,33.20000076293945 -113.14299774169922,33.20000076293945 C-113.14299774169922,33.20000076293945 -113.14299774169922,33.189998626708984 -113.14299774169922,33.189998626708984 C-122.1780014038086,31.670000076293945 -127.01300048828125,22.832000732421875 -132.07200622558594,19.38800048828125 C-102.75299835205078,47.52799987792969 -52.43199920654297,67.697998046875 0.24799999594688416,68.03800201416016 C0.26100000739097595,68.03800201416016 0.26100000739097595,68.03800201416016 0.27399998903274536,68.03800201416016 C0.718999981880188,68.0479965209961 1.1779999732971191,68.0479965209961 1.6230000257492065,68.0479965209961 C50.152000427246094,68.0479965209961 102.16300201416016,47.81800079345703 132.55599975585938,18.97800064086914 C130.5,19.437999725341797 129.19500732421875,21.79800033569336 127.21099853515625,23.017000198364258z"></path></g></g></g><g style="display: none;"><g><g><path></path></g><g><path stroke-linecap="round" stroke-linejoin="round" fill-opacity="0"></path></g></g></g><g style="display: none;"><g><g><path></path></g><g><path></path></g><g><path></path></g><g><path></path></g><g><path></path></g><g><path></path></g><g><path></path></g><g><path stroke-linecap="round" stroke-linejoin="round" fill-opacity="0"></path></g><g><path stroke-linecap="round" stroke-linejoin="round" fill-opacity="0"></path></g><g><path stroke-linecap="round" stroke-linejoin="round" fill-opacity="0"></path></g></g></g><g style="display: block;" transform="matrix(0.9140000343322754,0,0,0.9140000343322754,6.67584228515625,113.23432922363281)" opacity="1"><g opacity="1" transform="matrix(1,0,0,1,188.8800048828125,201.77099609375)"><path fill="rgb(255,226,166)" fill-opacity="1" d=" M20.04800033569336,-104.37799835205078 C-12.604000091552734,-104.43499755859375 -16.542999267578125,-68.71499633789062 -14.406000137329102,-37.321998596191406 C-5.283999919891357,-16.709999084472656 -5.401000022888184,-64.6259994506836 18.70199966430664,-64.51399993896484 C44.191001892089844,-64.3949966430664 42.70800018310547,-17.35700035095215 52.70199966430664,-37.51300048828125 C59.422000885009766,-61.65299987792969 51.53200149536133,-104.322998046875 20.04800033569336,-104.37799835205078z"></path></g><g opacity="1" transform="matrix(1,0,0,1,188.8800048828125,189.71099853515625)"><path fill="rgb(255,177,57)" fill-opacity="1" d=" M18.826000213623047,-109.12799835205078 C-16.75200080871582,-109.05000305175781 -22.2450008392334,-67.26399993896484 -16.545000076293945,-42.874000549316406 C-11.178999900817871,-19.913999557495117 -1.7929999828338623,-69.26300048828125 18.70599937438965,-69.26300048828125 C39.207000732421875,-69.26300048828125 49.3120002746582,-19.62299919128418 54.625,-42.59700012207031 C59.9379997253418,-65.57099914550781 55.321998596191406,-109.20800018310547 18.826000213623047,-109.12799835205078z"></path></g><g opacity="1" transform="matrix(1,0,0,1,188.87899780273438,195.73199462890625)"><path fill="rgb(134,63,20)" fill-opacity="1" d=" M19.5049991607666,-100.4469985961914 C-13.005999565124512,-100.45899963378906 -24.136999130249023,-63.10100173950195 -16.461999893188477,-38.297000885009766 C-9.590999603271484,-16.090999603271484 -9.201000213623047,-63.637001037597656 18.707000732421875,-63.83399963378906 C45.96200180053711,-64.0260009765625 47.31800079345703,-19.611000061035156 54.27299880981445,-36.3390007019043 C62.159000396728516,-55.30500030517578 52.486000061035156,-100.43499755859375 19.5049991607666,-100.4469985961914z"></path></g><g opacity="1" transform="matrix(1,0,0,1,188.88099670410156,182.07400512695312)"><path fill="rgb(99,37,12)" fill-opacity="1" d=" M19.489999771118164,-94.96199798583984 C-16.349000930786133,-95.49800109863281 -20.75200080871582,-48.077999114990234 -17.132999420166016,-34.525001525878906 C-16.64900016784668,-32.7140007019043 -16.160999298095703,-30.920000076293945 -15.621000289916992,-29.18400001525879 C-19.256999969482422,-53.91999816894531 -6.216000080108643,-84.43000030517578 19.371000289916992,-84.39299774169922 C45.28099822998047,-84.3550033569336 56.83000183105469,-50.65999984741211 53.40800094604492,-27.03499984741211 C54.38399887084961,-29.055999755859375 55.76599884033203,-32.3380012512207 56.332000732421875,-40.34400177001953 C56.89799880981445,-48.349998474121094 54.499000549316406,-94.43800354003906 19.489999771118164,-94.96199798583984z"></path></g></g><g style="display: block;" transform="matrix(-0.9140000343322754,0,0,0.9140000343322754,505.2001953125,113.23432922363281)" opacity="1"><g opacity="1" transform="matrix(1,0,0,1,188.8800048828125,201.77099609375)"><path fill="rgb(255,226,166)" fill-opacity="1" d=" M20.04800033569336,-104.37799835205078 C-12.604000091552734,-104.43499755859375 -16.542999267578125,-68.71499633789062 -14.406000137329102,-37.321998596191406 C-5.283999919891357,-16.709999084472656 -5.401000022888184,-64.6259994506836 18.70199966430664,-64.51399993896484 C44.191001892089844,-64.3949966430664 42.70800018310547,-17.35700035095215 52.70199966430664,-37.51300048828125 C59.422000885009766,-61.65299987792969 51.53200149536133,-104.322998046875 20.04800033569336,-104.37799835205078z"></path></g><g opacity="1" transform="matrix(1,0,0,1,188.8800048828125,189.71099853515625)"><path fill="rgb(255,177,57)" fill-opacity="1" d=" M18.826000213623047,-109.12799835205078 C-16.75200080871582,-109.05000305175781 -22.2450008392334,-67.26399993896484 -16.545000076293945,-42.874000549316406 C-11.178999900817871,-19.913999557495117 -1.7929999828338623,-69.26300048828125 18.70599937438965,-69.26300048828125 C39.207000732421875,-69.26300048828125 49.3120002746582,-19.62299919128418 54.625,-42.59700012207031 C59.9379997253418,-65.57099914550781 55.321998596191406,-109.20800018310547 18.826000213623047,-109.12799835205078z"></path></g><g opacity="1" transform="matrix(1,0,0,1,188.87899780273438,195.73199462890625)"><path fill="rgb(134,63,20)" fill-opacity="1" d=" M19.5049991607666,-100.4469985961914 C-13.005999565124512,-100.45899963378906 -24.136999130249023,-63.10100173950195 -16.461999893188477,-38.297000885009766 C-9.590999603271484,-16.090999603271484 -9.201000213623047,-63.637001037597656 18.707000732421875,-63.83399963378906 C45.96200180053711,-64.0260009765625 47.31800079345703,-19.611000061035156 54.27299880981445,-36.3390007019043 C62.159000396728516,-55.30500030517578 52.486000061035156,-100.43499755859375 19.5049991607666,-100.4469985961914z"></path></g><g opacity="1" transform="matrix(1,0,0,1,188.88099670410156,182.07400512695312)"><path fill="rgb(99,37,12)" fill-opacity="1" d=" M19.489999771118164,-94.96199798583984 C-16.349000930786133,-95.49800109863281 -20.75200080871582,-48.077999114990234 -17.132999420166016,-34.525001525878906 C-16.64900016784668,-32.7140007019043 -16.160999298095703,-30.920000076293945 -15.621000289916992,-29.18400001525879 C-19.256999969482422,-53.91999816894531 -6.216000080108643,-84.43000030517578 19.371000289916992,-84.39299774169922 C45.28099822998047,-84.3550033569336 56.83000183105469,-50.65999984741211 53.40800094604492,-27.03499984741211 C54.38399887084961,-29.055999755859375 55.76599884033203,-32.3380012512207 56.332000732421875,-40.34400177001953 C56.89799880981445,-48.349998474121094 54.499000549316406,-94.43800354003906 19.489999771118164,-94.96199798583984z"></path></g></g><g style="display: block;" transform="matrix(1,0,0,1,335.31298828125,66.29999542236328)" opacity="1"><g opacity="1" transform="matrix(1,0,0,1,65.99700164794922,93.8759994506836)"><path fill="rgb(86,161,218)" fill-opacity="1" d=" M-44.255001068115234,30.940000534057617 C-44.16699981689453,55.38100051879883 -24.281999588012695,75.12300109863281 0.1589999943971634,75.03500366210938 C24.600000381469727,74.9469985961914 44.34299850463867,55.0620002746582 44.25400161743164,30.621000289916992 C44.16600036621094,6.179999828338623 -0.3190000057220459,-75.12300109863281 -0.3190000057220459,-75.12300109863281 C-0.3190000057220459,-75.12300109863281 -44.34299850463867,6.499000072479248 -44.255001068115234,30.940000534057617z"></path></g><g opacity="0.3" transform="matrix(1,0,0,1,65.08799743652344,133.01199340820312)"><path fill="rgb(168,241,251)" fill-opacity="1" d=" M35.56700134277344,15.35099983215332 C35.56700134277344,15.35099983215332 35.57099914550781,15.33899974822998 35.57099914550781,15.33899974822998 C36.67399978637695,11.187000274658203 37.367000579833984,13.208000183105469 37.29100036621094,8.621999740600586 C36.869998931884766,-15.201000213623047 19.437000274658203,-34.20800018310547 -1.6579999923706055,-33.83399963378906 C-15.420000076293945,-33.59299850463867 -27.31399917602539,-25.163000106811523 -33.816001892089844,-12.727999687194824 C-38.00600051879883,-1.3639999628067017 -38.51900100708008,4.955999851226807 -34.775001525878906,15.755000114440918 C-34.762001037597656,15.758999824523926 -34.76599884033203,15.770999908447266 -34.76900100708008,15.784000396728516 C-32.49300003051758,19.268999099731445 -29.632999420166016,22.39900016784668 -26.148000717163086,25.062999725341797 C-22.257999420166016,28.06999969482422 -17.57699966430664,30.48200035095215 -12.083000183105469,32.11600112915039 C2.369999885559082,36.404998779296875 14.559000015258789,32.07099914550781 23.618000030517578,25.923999786376953 C28.579999923706055,22.562000274658203 32.61399841308594,18.667999267578125 35.56700134277344,15.35099983215332z"></path></g><g opacity="0.4" transform="matrix(1,0,0,1,65.11699676513672,138.1009979248047)"><path fill="rgb(168,241,251)" fill-opacity="1" d=" M31.95400047302246,5.2220001220703125 C31.604000091552734,-14.720000267028809 17.01300048828125,-30.6299991607666 -0.6299999952316284,-30.316999435424805 C-18.28499984741211,-30.006999969482422 -32.30699920654297,-13.586999893188477 -31.95400047302246,6.3429999351501465 C-31.81100082397461,14.515000343322754 -29.415000915527344,15.562999725341797 -25.24799919128418,21.54400062561035 C-21.358999252319336,24.551000595092773 -16.677000045776367,26.961999893188477 -11.184000015258789,28.597000122070312 C3.2690000534057617,32.88600158691406 15.458000183105469,28.552000045776367 24.517000198364258,22.405000686645508 C29.2189998626709,16.006000518798828 32.117000579833984,14.199000358581543 31.95400047302246,5.2220001220703125z"></path></g><g opacity="0.4" transform="matrix(1,0,0,1,64.7959976196289,141.9080047607422)"><path fill="rgb(168,241,251)" fill-opacity="1" d=" M-0.5170000195503235,-26.158000946044922 C-14.883000373840332,-25.905000686645508 -26.29800033569336,-12.54699993133545 -26.01300048828125,3.678999900817871 C-25.72800064086914,19.905000686645508 -13.994999885559082,26.4060001373291 0.3720000088214874,26.15399932861328 C14.73900032043457,25.900999069213867 26.297000885009766,18.989999771118164 26.011999130249023,2.7639999389648438 C25.726999282836914,-13.461000442504883 13.848999977111816,-26.40999984741211 -0.5170000195503235,-26.158000946044922z"></path></g><g opacity="0.4" transform="matrix(1,0,0,1,65.40499877929688,144.72799682617188)"><path fill="rgb(168,241,251)" fill-opacity="1" d=" M-0.382999986410141,-18.52400016784668 C-11.015999794006348,-18.336999893188477 -19.46500015258789,-8.449999809265137 -19.253999710083008,3.559999942779541 C-19.042999267578125,15.569000244140625 -10.395999908447266,18.70599937438965 0.23800000548362732,18.518999099731445 C10.871000289916992,18.332000732421875 19.46500015258789,14.892999649047852 19.253000259399414,2.882999897003174 C19.04199981689453,-9.126999855041504 10.25100040435791,-18.711000442504883 -0.382999986410141,-18.52400016784668z"></path></g><g opacity="1" transform="matrix(1,0,0,1,64.53600311279297,148.68899536132812)"><path fill="rgb(168,241,251)" fill-opacity="1" d=" M-0.20900000631809235,-8.75 C-6.0279998779296875,-8.647000312805176 -10.651000022888184,-3.236999988555908 -10.53600025177002,3.3350000381469727 C-10.420000076293945,9.906999588012695 -5.754000186920166,8.704000473022461 0.06499999761581421,8.60200023651123 C5.883999824523926,8.5 10.651000022888184,9.536999702453613 10.53600025177002,2.9649999141693115 C10.420999526977539,-3.6070001125335693 5.610000133514404,-8.85200023651123 -0.20900000631809235,-8.75z"></path></g><g opacity="0.55" transform="matrix(1,0,0,1,65.93099975585938,80.60299682617188)"><path fill="rgb(255,255,255)" fill-opacity="1" d=" M-26.224000930786133,26.648000717163086 C-26.17300033569336,40.529998779296875 -13.791000366210938,51.74399948120117 0.09000000357627869,51.694000244140625 C13.972999572753906,51.64400100708008 26.27400016784668,40.3489990234375 26.224000930786133,26.466999053955078 C26.180999755859375,14.685999870300293 7.195000171661377,-35.619998931884766 1.4479999542236328,-50.58000183105469 C0.8759999871253967,-52.06800079345703 -1.2269999980926514,-52.06399917602539 -1.7920000553131104,-50.573001861572266 C-7.478000164031982,-35.57899856567383 -26.266000747680664,14.866000175476074 -26.224000930786133,26.648000717163086z"></path></g><g opacity="1" transform="matrix(1,0,0,1,65.99700164794922,95.37100219726562)"><path stroke-linecap="round" stroke-linejoin="round" fill-opacity="0" stroke="rgb(28,108,190)" stroke-opacity="1" stroke-width="8.697" d=" M-44.255001068115234,29.44499969482422 C-44.255001068115234,53.88600158691406 -24.2810001373291,73.62799835205078 0.1599999964237213,73.54000091552734 C24.60099983215332,73.4520034790039 44.255001068115234,53.56800079345703 44.255001068115234,29.12700080871582 C44.255001068115234,0.7990000247955322 13.513999938964844,-53.40700149536133 3.0899999141693115,-70.97200012207031 C1.534999966621399,-73.59300231933594 -2.239000082015991,-73.62899780273438 -3.8389999866485596,-71.03600311279297 C-14.26200008392334,-54.13600158691406 -44.255001068115234,-2.7130000591278076 -44.255001068115234,29.44499969482422z"></path></g><g opacity="1" transform="matrix(1,0,0,1,86.58899688720703,87.2300033569336)"><path stroke-linecap="round" stroke-linejoin="round" fill-opacity="0" stroke="rgb(255,255,255)" stroke-opacity="1" stroke-width="6.523" d=" M-0.20800000429153442,-0.6230000257492065 C-0.20800000429153442,-0.6230000257492065 0.20800000429153442,0.6230000257492065 0.20800000429153442,0.6230000257492065"></path></g><g opacity="1" transform="matrix(1,0,0,1,82.4000015258789,74.70700073242188)"><path stroke-linecap="round" stroke-linejoin="round" fill-opacity="0" stroke="rgb(255,255,255)" stroke-opacity="1" stroke-width="6.523" d=" M-1.0540000200271606,-3.1540000438690186 C-1.0540000200271606,-3.1540000438690186 1.0540000200271606,3.1540000438690186 1.0540000200271606,3.1540000438690186"></path></g></g></g></svg>