<svg xmlns="http://www.w3.org/2000/svg" viewBox="0 0 512 448" width="512" height="448" style="width: 100%; height: 100%; transform: translate3d(0,0,0);" preserveAspectRatio="xMidYMid meet"><defs><clipPath id="__lottie_element_2910"><rect width="512" height="448" x="0" y="0"></rect></clipPath></defs><g clip-path="url(#__lottie_element_2910)"><g style="display: block;" transform="matrix(0.999998927116394,0,0,0.999998927116394,255.99986267089844,240.00047302246094)" opacity="1"><g opacity="0.1" transform="matrix(1,0,0,1,0,0)"><path fill="rgb(0,0,0)" fill-opacity="1" d=" M196.83700561523438,4.98199987411499 C196.83700561523438,113.24299621582031 109.0739974975586,201.00599670410156 0.8130000233650208,201.00599670410156 C-107.447998046875,201.00599670410156 -195.21200561523438,113.24299621582031 -195.21200561523438,4.98199987411499 C-195.21200561523438,-103.27899932861328 -107.447998046875,-191.04299926757812 0.8130000233650208,-191.04299926757812 C109.0739974975586,-191.04299926757812 196.83700561523438,-103.27899932861328 196.83700561523438,4.98199987411499z"></path></g><g opacity="1" transform="matrix(1,0,0,1,0,0)"><path fill="rgb(255,177,57)" fill-opacity="1" d=" M189.68800354003906,-10.017999649047852 C189.68800354003906,94.29499816894531 105.1259994506836,178.85699462890625 0.8130000233650208,178.85699462890625 C-103.5,178.85699462890625 -188.06300354003906,94.29499816894531 -188.06300354003906,-10.017999649047852 C-188.06300354003906,-114.33100128173828 -103.5,-198.8939971923828 0.8130000233650208,-198.8939971923828 C105.1259994506836,-198.8939971923828 189.68800354003906,-114.33100128173828 189.68800354003906,-10.017999649047852z"></path><path stroke-linecap="butt" stroke-linejoin="miter" fill-opacity="0" stroke-miterlimit="10" stroke="rgb(247,126,65)" stroke-opacity="1" stroke-width="8" d=" M189.68800354003906,-10.017999649047852 C189.68800354003906,94.29499816894531 105.1259994506836,178.85699462890625 0.8130000233650208,178.85699462890625 C-103.5,178.85699462890625 -188.06300354003906,94.29499816894531 -188.06300354003906,-10.017999649047852 C-188.06300354003906,-114.33100128173828 -103.5,-198.8939971923828 0.8130000233650208,-198.8939971923828 C105.1259994506836,-198.8939971923828 189.68800354003906,-114.33100128173828 189.68800354003906,-10.017999649047852z"></path></g><g opacity="1" transform="matrix(1,0,0,1,0,0)"><path fill="rgb(255,209,64)" fill-opacity="1" d=" M169.22000122070312,-9.305999755859375 C167.76300048828125,85.7229995727539 91.20899963378906,161.60299682617188 -1.7690000534057617,160.17799377441406 C-94.74700164794922,158.7530059814453 -168.94000244140625,80.56300354003906 -167.48300170898438,-14.465999603271484 C-166.0260009765625,-109.49500274658203 -89.47200012207031,-185.375 3.50600004196167,-183.9499969482422 C96.48400115966797,-182.52499389648438 170.677001953125,-104.33499908447266 169.22000122070312,-9.305999755859375z"></path></g><g opacity="0.9" transform="matrix(1,0,0,1,0,0)"><path fill="rgb(255,223,121)" fill-opacity="1" d=" M150.0800018310547,-52.446998596191406 C150.0800018310547,20.195999145507812 83.2509994506836,-37.268001556396484 0.8130000233650208,-37.268001556396484 C-81.625,-37.268001556396484 -148.4550018310547,20.195999145507812 -148.4550018310547,-52.446998596191406 C-148.4550018310547,-125.08999633789062 -81.625,-183.97900390625 0.8130000233650208,-183.97900390625 C83.2509994506836,-183.97900390625 150.0800018310547,-125.08999633789062 150.0800018310547,-52.446998596191406z"></path></g><g opacity="1" transform="matrix(1,0,0,1,0,0)"><g opacity="1" transform="matrix(1,0,0,1,0,0)"><path stroke-linecap="round" stroke-linejoin="round" fill-opacity="0" stroke="rgb(255,255,255)" stroke-opacity="1" stroke-width="6" d=" M37.18600082397461,-179.75999450683594 C38.7239990234375,-179.4250030517578 40.319000244140625,-179.05499267578125 41.9630012512207,-178.6490020751953"></path></g><g opacity="1" transform="matrix(1,0,0,1,0,0)"><path stroke-linecap="round" stroke-linejoin="round" fill-opacity="0" stroke="rgb(255,255,255)" stroke-opacity="1" stroke-width="6" d=" M15.831000328063965,-182.97900390625 C15.831000328063965,-182.97900390625 20.697999954223633,-182.718994140625 28.42099952697754,-181.4409942626953"></path></g></g></g><g style="display: block;" transform="matrix(0.999998927116394,0,0,0.999998927116394,255.99986267089844,240.00047302246094)" opacity="1"><g opacity="1" transform="matrix(1,0,0,1,0,0)"><g opacity="0.6" transform="matrix(1,0,0,1,0,0)"><path fill="rgb(255,177,57)" fill-opacity="1" d=" M-25.472999572753906,-57.62799835205078 C-33.939998626708984,-78.28399658203125 -50.7869987487793,-78.45700073242188 -53.70100021362305,-78.45700073242188 C-56.444000244140625,-78.45700073242188 -73.46299743652344,-78.28399658203125 -81.93000030517578,-57.62799835205078 C-92.33000183105469,-32.25699996948242 -79.75900268554688,-4.739999771118164 -75.75900268554688,-16.485000610351562 C-67.7020034790039,-40.141998291015625 -56.14400100708008,-39.8849983215332 -53.70100021362305,-39.8849983215332 C-51.125,-39.8849983215332 -39.70100021362305,-40.141998291015625 -31.643999099731445,-16.485000610351562 C-27.643999099731445,-4.739999771118164 -15.072999954223633,-32.25699996948242 -25.472999572753906,-57.62799835205078z"></path></g><g opacity="1" transform="matrix(1,0,0,1,0,0)"><path fill="rgb(255,226,166)" fill-opacity="1" d=" M-25.472999572753906,-46.62799835205078 C-33.939998626708984,-67.28399658203125 -50.7869987487793,-67.45700073242188 -53.70100021362305,-67.45700073242188 C-56.444000244140625,-67.45700073242188 -73.46299743652344,-67.28399658203125 -81.93000030517578,-46.62799835205078 C-92.33000183105469,-21.256999969482422 -79.75900268554688,6.260000228881836 -75.75900268554688,-5.485000133514404 C-67.7020034790039,-29.142000198364258 -56.14400100708008,-28.885000228881836 -53.70100021362305,-28.885000228881836 C-51.125,-28.885000228881836 -39.70100021362305,-29.142000198364258 -31.643999099731445,-5.485000133514404 C-27.643999099731445,6.260000228881836 -15.072999954223633,-21.256999969482422 -25.472999572753906,-46.62799835205078z"></path></g></g><g opacity="1" transform="matrix(1,0,0,1,0,0)"><path fill="rgb(134,63,20)" fill-opacity="1" d=" M-26.472999572753906,-51.62799835205078 C-34.939998626708984,-72.28399658203125 -50.7869987487793,-72.45700073242188 -53.70100021362305,-72.45700073242188 C-56.444000244140625,-72.45700073242188 -72.46299743652344,-72.28399658203125 -80.93000030517578,-51.62799835205078 C-91.33000183105469,-26.256999969482422 -81.75900268554688,1.2599999904632568 -77.75900268554688,-10.484999656677246 C-69.7020034790039,-34.141998291015625 -56.14400100708008,-33.8849983215332 -53.70100021362305,-33.8849983215332 C-51.125,-33.8849983215332 -37.70100021362305,-34.141998291015625 -29.643999099731445,-10.484999656677246 C-25.643999099731445,1.2599999904632568 -16.072999954223633,-26.256999969482422 -26.472999572753906,-51.62799835205078z"></path></g><g opacity="1" transform="matrix(1,0,0,1,0,0)"><path fill="rgb(107,32,0)" fill-opacity="1" d=" M-23.333999633789062,-14.170999526977539 C-22.493999481201172,-22.400999069213867 -23.253999710083008,-32.430999755859375 -27.534000396728516,-43.07099914550781 C-35.67399978637695,-63.32099914550781 -50.90399932861328,-63.48099899291992 -53.70399856567383,-63.48099899291992 C-56.33399963378906,-63.48099899291992 -71.7239990234375,-63.32099914550781 -79.86399841308594,-43.07099914550781 C-84.13400268554688,-32.430999755859375 -84.90399932861328,-22.410999298095703 -84.0739974975586,-14.180999755859375 C-86.31400299072266,-22.44099998474121 -86.77400207519531,-37.38100051879883 -80.93399810791016,-51.63100051879883 C-72.46399688720703,-72.28099822998047 -56.444000244140625,-72.46099853515625 -53.70399856567383,-72.46099853515625 C-50.784000396728516,-72.46099853515625 -34.944000244140625,-72.28099822998047 -26.474000930786133,-51.63100051879883 C-20.624000549316406,-37.37099838256836 -21.0939998626709,-22.430999755859375 -23.333999633789062,-14.170999526977539z"></path></g></g><g style="display: block;" transform="matrix(-0.999998927116394,0,0,0.999998927116394,255.99986267089844,240.00047302246094)" opacity="1"><g opacity="1" transform="matrix(1,0,0,1,0,0)"><g opacity="0.6" transform="matrix(1,0,0,1,0,0)"><path fill="rgb(255,177,57)" fill-opacity="1" d=" M-25.472999572753906,-57.62799835205078 C-33.939998626708984,-78.28399658203125 -50.7869987487793,-78.45700073242188 -53.70100021362305,-78.45700073242188 C-56.444000244140625,-78.45700073242188 -73.46299743652344,-78.28399658203125 -81.93000030517578,-57.62799835205078 C-92.33000183105469,-32.25699996948242 -79.75900268554688,-4.739999771118164 -75.75900268554688,-16.485000610351562 C-67.7020034790039,-40.141998291015625 -56.14400100708008,-39.8849983215332 -53.70100021362305,-39.8849983215332 C-51.125,-39.8849983215332 -39.70100021362305,-40.141998291015625 -31.643999099731445,-16.485000610351562 C-27.643999099731445,-4.739999771118164 -15.072999954223633,-32.25699996948242 -25.472999572753906,-57.62799835205078z"></path></g><g opacity="1" transform="matrix(1,0,0,1,0,0)"><path fill="rgb(255,226,166)" fill-opacity="1" d=" M-25.472999572753906,-46.62799835205078 C-33.939998626708984,-67.28399658203125 -50.7869987487793,-67.45700073242188 -53.70100021362305,-67.45700073242188 C-56.444000244140625,-67.45700073242188 -73.46299743652344,-67.28399658203125 -81.93000030517578,-46.62799835205078 C-92.33000183105469,-21.256999969482422 -79.75900268554688,6.260000228881836 -75.75900268554688,-5.485000133514404 C-67.7020034790039,-29.142000198364258 -56.14400100708008,-28.885000228881836 -53.70100021362305,-28.885000228881836 C-51.125,-28.885000228881836 -39.70100021362305,-29.142000198364258 -31.643999099731445,-5.485000133514404 C-27.643999099731445,6.260000228881836 -15.072999954223633,-21.256999969482422 -25.472999572753906,-46.62799835205078z"></path></g></g><g opacity="1" transform="matrix(1,0,0,1,0,0)"><path fill="rgb(134,63,20)" fill-opacity="1" d=" M-26.472999572753906,-51.62799835205078 C-34.939998626708984,-72.28399658203125 -50.7869987487793,-72.45700073242188 -53.70100021362305,-72.45700073242188 C-56.444000244140625,-72.45700073242188 -72.46299743652344,-72.28399658203125 -80.93000030517578,-51.62799835205078 C-91.33000183105469,-26.256999969482422 -81.75900268554688,1.2599999904632568 -77.75900268554688,-10.484999656677246 C-69.7020034790039,-34.141998291015625 -56.14400100708008,-33.8849983215332 -53.70100021362305,-33.8849983215332 C-51.125,-33.8849983215332 -37.70100021362305,-34.141998291015625 -29.643999099731445,-10.484999656677246 C-25.643999099731445,1.2599999904632568 -16.072999954223633,-26.256999969482422 -26.472999572753906,-51.62799835205078z"></path></g><g opacity="1" transform="matrix(1,0,0,1,0,0)"><path fill="rgb(107,32,0)" fill-opacity="1" d=" M-23.333999633789062,-14.170999526977539 C-22.493999481201172,-22.400999069213867 -23.253999710083008,-32.430999755859375 -27.534000396728516,-43.07099914550781 C-35.67399978637695,-63.32099914550781 -50.90399932861328,-63.48099899291992 -53.70399856567383,-63.48099899291992 C-56.33399963378906,-63.48099899291992 -71.7239990234375,-63.32099914550781 -79.86399841308594,-43.07099914550781 C-84.13400268554688,-32.430999755859375 -84.90399932861328,-22.410999298095703 -84.0739974975586,-14.180999755859375 C-86.31400299072266,-22.44099998474121 -86.77400207519531,-37.38100051879883 -80.93399810791016,-51.63100051879883 C-72.46399688720703,-72.28099822998047 -56.444000244140625,-72.46099853515625 -53.70399856567383,-72.46099853515625 C-50.784000396728516,-72.46099853515625 -34.944000244140625,-72.28099822998047 -26.474000930786133,-51.63100051879883 C-20.624000549316406,-37.37099838256836 -21.0939998626709,-22.430999755859375 -23.333999633789062,-14.170999526977539z"></path></g></g><g style="display: block;" transform="matrix(0.999998927116394,0,0,0.999998927116394,255.99986267089844,240.00047302246094)" opacity="1"><g opacity="1" transform="matrix(1,0,0,1,0,0)"><g opacity="1" transform="matrix(1,0,0,1,0,0)"><path fill="rgb(255,226,166)" fill-opacity="1" d=" M0.8109999895095825,35.54600143432617 C-113.2509994506836,32.97800064086914 -133.60899353027344,0.12300000339746475 -133.60899353027344,24.500999450683594 C-133.60899353027344,92.59400177001953 -74.53500366210938,149.01300048828125 0.8109999895095825,149.01300048828125 C76.15699768066406,149.01300048828125 135.2310028076172,92.59400177001953 135.2310028076172,24.500999450683594 C135.2310028076172,0.12300000339746475 114.87300109863281,32.97800064086914 0.8109999895095825,35.54600143432617z"></path></g><g opacity="0.6" transform="matrix(1,0,0,1,0,0)"><path fill="rgb(255,177,57)" fill-opacity="1" d=" M135.2310028076172,16.476999282836914 C135.2310028076172,80.10700225830078 73.93399810791016,133.69700622558594 0.8109999895095825,133.69700622558594 C-72.31199645996094,133.69700622558594 -133.60899353027344,80.10700225830078 -133.60899353027344,16.476999282836914 C-133.60899353027344,15.847000122070312 -133.58799743652344,15.267000198364258 -133.55799865722656,14.717000007629395 C-132.34300231933594,-4.5329999923706055 -106.83799743652344,25.336999893188477 0.8109999895095825,27.66699981689453 C108.45999908447266,25.336999893188477 133.96499633789062,-4.5329999923706055 135.17999267578125,14.717000007629395 C135.2100067138672,15.267000198364258 135.2310028076172,15.847000122070312 135.2310028076172,16.476999282836914z"></path></g></g><g opacity="1" transform="matrix(1,0,0,1,0,0)"><path fill="rgb(134,63,20)" fill-opacity="1" d=" M133.5709991455078,23.476999282836914 C133.5709991455078,87.10700225830078 73.03099822998047,140.69700622558594 0.8109999895095825,140.69700622558594 C-71.40899658203125,140.69700622558594 -131.94900512695312,87.10700225830078 -131.94900512695312,23.476999282836914 C-131.94900512695312,22.847000122070312 -131.9290008544922,22.267000198364258 -131.8990020751953,21.716999053955078 C-130.69900512695312,2.4670000076293945 -105.50900268554688,32.33700180053711 0.8109999895095825,34.66699981689453 C107.13099670410156,32.33700180053711 132.3209991455078,2.4670000076293945 133.52099609375,21.716999053955078 C133.55099487304688,22.267000198364258 133.5709991455078,22.847000122070312 133.5709991455078,23.476999282836914z"></path></g><g opacity="1" transform="matrix(1,0,0,1,0,0)"><g opacity="1" transform="matrix(1,0,0,1,0,0)"><path fill="rgb(107,32,0)" fill-opacity="1" d=" M105.58799743652344,94.60700225830078 C115.70800018310547,77.53700256347656 121.53800201416016,57.89699935913086 121.53800201416016,37.196998596191406 C121.53800201416016,36.56700134277344 121.52799987792969,35.98699951171875 121.49800109863281,35.4370002746582 C120.40799713134766,16.187000274658203 97.49800109863281,46.05699920654297 0.8080000281333923,48.387001037597656 C-95.87200164794922,46.05699920654297 -118.78199768066406,16.187000274658203 -119.87200164794922,35.4370002746582 C-119.9020004272461,35.98699951171875 -119.9219970703125,36.56700134277344 -119.9219970703125,37.196998596191406 C-119.9219970703125,57.90700149536133 -114.08200073242188,77.55699920654297 -103.94200134277344,94.63700103759766 C-121.43199920654297,74.76699829101562 -131.95199584960938,49.98699951171875 -131.95199584960938,23.476999282836914 C-131.95199584960938,22.847000122070312 -131.9320068359375,22.267000198364258 -131.90199279785156,21.716999053955078 C-130.70199584960938,2.4670000076293945 -105.51200103759766,32.33700180053711 0.8080000281333923,34.66699981689453 C107.12799835205078,32.33700180053711 132.3179931640625,2.4670000076293945 133.51800537109375,21.716999053955078 C133.54800415039062,22.267000198364258 133.5679931640625,22.847000122070312 133.5679931640625,23.476999282836914 C133.5679931640625,49.97700119018555 123.05799865722656,74.73699951171875 105.58799743652344,94.60700225830078z"></path></g><g opacity="1" transform="matrix(1,0,0,1,0,0)"><path fill="rgb(245,245,245)" fill-opacity="1" d=" M0.828000009059906,92.31700134277344 C47.36800003051758,92.31700134277344 81.947998046875,84.81700134277344 101.95800018310547,78.89700317382812 C78.74800109863281,107.73699951171875 39.02799987792969,127.96700286865234 1.968000054359436,127.96700286865234 C-38.641998291015625,127.96700286865234 -77.54199981689453,107.6969985961914 -100.13200378417969,79.30699920654297 C-80.302001953125,85.16699981689453 -46.402000427246094,92.31700134277344 0.828000009059906,92.31700134277344z"></path></g><g opacity="1" transform="matrix(1,0,0,1,0,0)"><path fill="rgb(199,209,209)" fill-opacity="1" d=" M96.99800109863281,80.30699920654297 C93.0979995727539,81.36699676513672 88.75800323486328,82.4469985961914 83.98799896240234,83.49700164794922 C83.98799896240234,83.49700164794922 83.98799896240234,83.5469970703125 83.98799896240234,83.5469970703125 C83.98799896240234,83.5469970703125 83.99800109863281,83.91699981689453 83.99800109863281,83.91699981689453 C83.99800109863281,83.91699981689453 57.37099838256836,127.28399658203125 0.9179999828338623,127.28399658203125 C-55.42900085449219,127.28399658203125 -82.16200256347656,83.91699981689453 -82.16200256347656,83.91699981689453 C-82.16200256347656,83.91699981689453 -82.16200256347656,83.90699768066406 -82.16200256347656,83.90699768066406 C-89.06199645996094,82.38700103759766 -95.06199645996094,80.80699920654297 -100.13200378417969,79.30699920654297 C-77.74199676513672,107.4469985961914 -39.3120002746582,127.61699676513672 0.9179999828338623,127.95700073242188 C0.9279999732971191,127.95700073242188 0.9279999732971191,127.95700073242188 0.9380000233650208,127.95700073242188 C1.277999997138977,127.96700286865234 1.628000020980835,127.96700286865234 1.968000054359436,127.96700286865234 C39.02799987792969,127.96700286865234 78.74800109863281,107.73699951171875 101.95800018310547,78.89700317382812 C100.38800048828125,79.35700225830078 98.73799896240234,79.8270034790039 96.99800109863281,80.30699920654297z"></path></g><g opacity="1" transform="matrix(1,0,0,1,0,0)"><path fill="rgb(107,32,0)" fill-opacity="1" d=" M121.72799682617188,37.11000061035156 C120.7979965209961,47.303001403808594 118.08799743652344,50.55400085449219 113.95800018310547,60.527000427246094 C109.31400299072266,69.55599975585938 64.77799987792969,88.15599822998047 1.968000054359436,88.15599822998047 C-61.43199920654297,88.15599822998047 -107.97200012207031,69.81300354003906 -111.97200012207031,60.946998596191406 C-116.31199645996094,50.400001525878906 -119.06199645996094,46.69200134277344 -119.9020004272461,36.058998107910156 C-119.9520034790039,35.47200012207031 -119.88200378417969,34.933998107910156 -119.86199951171875,34.42100143432617 C-118.79199981689453,16.59000015258789 -92.7020034790039,48.32899856567383 1.968000054359436,50.492000579833984 C96.64800262451172,48.32899856567383 120.61799621582031,17.641000747680664 121.68800354003906,35.47200012207031 C121.70800018310547,35.98500061035156 121.77799987792969,36.52299880981445 121.72799682617188,37.11000061035156z"></path></g><g opacity="1" transform="matrix(1,0,0,1,0,0)"><path fill="rgb(245,245,245)" fill-opacity="1" d=" M121.72799682617188,35.637001037597656 C120.7979965209961,43.97700119018555 118.08799743652344,52.367000579833984 113.95800018310547,60.527000427246094 C104.33799743652344,64.33699798583984 63.63800048828125,78.80699920654297 0.828000009059906,78.80699920654297 C-62.571998596191406,78.80699920654297 -101.36199951171875,65.20700073242188 -111.97200012207031,60.946998596191406 C-116.31199645996094,52.31700134277344 -119.06199645996094,43.47700119018555 -119.9020004272461,34.777000427246094 C-119.9520034790039,34.297000885009766 -119.88200378417969,33.856998443603516 -119.86199951171875,33.4370002746582 C-118.79199981689453,18.847000122070312 -92.7020034790039,44.81700134277344 1.968000054359436,46.58700180053711 C96.64800262451172,44.81700134277344 120.61799621582031,19.707000732421875 121.68800354003906,34.297000885009766 C121.70800018310547,34.71699905395508 121.77799987792969,35.15700149536133 121.72799682617188,35.637001037597656z"></path></g><g opacity="1" transform="matrix(1,0,0,1,0,0)"><path fill="rgb(199,215,216)" fill-opacity="1" d=" M121.72799682617188,35.637001037597656 C120.7979965209961,43.97700119018555 118.08799743652344,52.367000579833984 113.95800018310547,60.527000427246094 C111.39099884033203,61.54399871826172 106.60900115966797,63.319000244140625 99.78500366210938,65.37699890136719 C116.875,37.25 99.87899780273438,42.375 30.257999420166016,47.435001373291016 C20.05299949645996,48.176998138427734 9.899999618530273,48.68199920654297 0.7799999713897705,48.68199920654297 C-13.031000137329102,48.68199920654297 -30.680999755859375,47.03499984741211 -47.36600112915039,45.78099822998047 C-95.99600219726562,42.125 -113.75,37.75 -94.43900299072266,66.81800079345703 C-102.8499984741211,64.42500305175781 -108.72799682617188,62.25 -111.97200012207031,60.946998596191406 C-116.31199645996094,52.31700134277344 -119.06199645996094,43.47700119018555 -119.9020004272461,34.777000427246094 C-119.9520034790039,34.297000885009766 -119.88200378417969,33.856998443603516 -119.86199951171875,33.4370002746582 C-118.79199981689453,18.847000122070312 -92.7020034790039,44.81700134277344 1.968000054359436,46.58700180053711 C96.64800262451172,44.81700134277344 120.61799621582031,19.707000732421875 121.68800354003906,34.297000885009766 C121.70800018310547,34.71699905395508 121.77799987792969,35.15700149536133 121.72799682617188,35.637001037597656z"></path></g></g></g><g style="display: block;" transform="matrix(0.999998927116394,0,0,0.999998927116394,255.99986267089844,240.00047302246094)" opacity="1"><g opacity="1" transform="matrix(1,0,0,1,0,0)"><path stroke-linecap="butt" stroke-linejoin="miter" fill-opacity="0" stroke-miterlimit="10" stroke="rgb(247,126,65)" stroke-opacity="1" stroke-width="8" d=" M189.68800354003906,-10.017999649047852 C189.68800354003906,94.29499816894531 105.1259994506836,178.85699462890625 0.8130000233650208,178.85699462890625 C-103.5,178.85699462890625 -188.06300354003906,94.29499816894531 -188.06300354003906,-10.017999649047852 C-188.06300354003906,-114.33100128173828 -103.5,-198.8939971923828 0.8130000233650208,-198.8939971923828 C105.1259994506836,-198.8939971923828 189.68800354003906,-114.33100128173828 189.68800354003906,-10.017999649047852z"></path></g></g></g></svg>