<svg xmlns="http://www.w3.org/2000/svg" viewBox="0 0 512 512" width="512" height="512" style="width: 100%; height: 100%; transform: translate3d(0,0,0);" preserveAspectRatio="xMidYMid meet"><defs><clipPath id="__lottie_element_21550"><rect width="512" height="512" x="0" y="0"></rect></clipPath><linearGradient id="__lottie_element_21555" spreadMethod="pad" gradientUnits="userSpaceOnUse" x1="15" y1="-194" x2="15" y2="137.4499969482422"><stop offset="0%" stop-color="rgb(22,94,248)" stop-opacity="1"></stop><stop offset="48%" stop-color="rgb(134,143,159)" stop-opacity="0.5189999938011169"></stop><stop offset="60%" stop-color="rgb(246,192,69)" stop-opacity="0.03700000047683716"></stop></linearGradient><linearGradient id="__lottie_element_21556" spreadMethod="pad" gradientUnits="userSpaceOnUse" x1="15" y1="-213" x2="15" y2="140.0749969482422"><stop offset="0%" stop-color="rgb(41,49,169)" stop-opacity="1"></stop><stop offset="50%" stop-color="rgb(148,83,106)" stop-opacity="0.5"></stop><stop offset="74%" stop-color="rgb(255,118,42)" stop-opacity="0"></stop></linearGradient></defs><g clip-path="url(#__lottie_element_21550)"><g style="display: block;" transform="matrix(1,0,0,1,241,256)" opacity="1"><g opacity="0.1" transform="matrix(1,0,0,1,0,0)"><path fill="rgb(0,0,0)" fill-opacity="1" d=" M211.50999450683594,3.924999952316284 C211.50999450683594,112.18599700927734 123.74700164794922,199.9499969482422 15.486000061035156,199.9499969482422 C-92.7750015258789,199.9499969482422 -180.53900146484375,112.18599700927734 -180.53900146484375,3.924999952316284 C-180.53900146484375,-104.33599853515625 -92.7750015258789,-192.0989990234375 15.486000061035156,-192.0989990234375 C123.74700164794922,-192.0989990234375 211.50999450683594,-104.33599853515625 211.50999450683594,3.924999952316284z"></path></g><g opacity="1" transform="matrix(1,0,0,1,0,0)"><path fill="rgb(255,173,0)" fill-opacity="1" d=" M204.36099243164062,-11.074999809265137 C204.36099243164062,93.23799896240234 119.79900360107422,177.80099487304688 15.486000061035156,177.80099487304688 C-88.8270034790039,177.80099487304688 -173.38999938964844,93.23799896240234 -173.38999938964844,-11.074999809265137 C-173.38999938964844,-115.38800048828125 -88.8270034790039,-199.9499969482422 15.486000061035156,-199.9499969482422 C119.79900360107422,-199.9499969482422 204.36099243164062,-115.38800048828125 204.36099243164062,-11.074999809265137z"></path></g><g opacity="1" transform="matrix(1,0,0,1,0,0)"><path stroke-linecap="butt" stroke-linejoin="miter" fill-opacity="0" stroke-miterlimit="10" stroke="rgb(255,118,42)" stroke-opacity="1" stroke-width="8" d=" M204.36099243164062,-11.074999809265137 C204.36099243164062,93.23799896240234 119.79900360107422,177.80099487304688 15.486000061035156,177.80099487304688 C-88.8270034790039,177.80099487304688 -173.38999938964844,93.23799896240234 -173.38999938964844,-11.074999809265137 C-173.38999938964844,-115.38800048828125 -88.8270034790039,-199.9499969482422 15.486000061035156,-199.9499969482422 C119.79900360107422,-199.9499969482422 204.36099243164062,-115.38800048828125 204.36099243164062,-11.074999809265137z"></path></g><g opacity="1" transform="matrix(1,0,0,1,0,0)"><path fill="rgb(255,207,0)" fill-opacity="1" d=" M183.89300537109375,-10.362000465393066 C182.43600463867188,84.66699981689453 105.88200378417969,160.5469970703125 12.904000282287598,159.1219940185547 C-80.0739974975586,157.69700622558594 -154.26600646972656,79.50599670410156 -152.80999755859375,-15.52299976348877 C-151.35299682617188,-110.5510025024414 -74.79900360107422,-186.4320068359375 18.179000854492188,-185.0070037841797 C111.15699768066406,-183.58200073242188 185.35000610351562,-105.39099884033203 183.89300537109375,-10.362000465393066z"></path></g><g opacity="1" transform="matrix(1,0,0,1,0,0)"><path fill="url(#__lottie_element_21555)" fill-opacity="1" d=" M208.35400390625,-9.744000434875488 C206.9340057373047,96.84200286865234 116.86599731445312,181.64100646972656 12.583000183105469,180.04299926757812 C-91.69999694824219,178.44500732421875 -178.98599243164062,91.66300201416016 -177.3520050048828,-14.920000076293945 C-175.71800231933594,-121.50299835205078 -86.44999694824219,-204.26499938964844 17.83300018310547,-202.66700744628906 C122.11599731445312,-201.06900024414062 209.75,-114.5 208.35400390625,-9.744000434875488z"></path></g><g opacity="0.3" transform="matrix(1,0,0,1,0,0)"><path fill="rgb(255,255,255)" fill-opacity="1" d=" M164.7530059814453,-53.50299835205078 C164.7530059814453,19.139999389648438 97.92400360107422,-38.32500076293945 15.486000061035156,-38.32500076293945 C-66.9520034790039,-38.32500076293945 -133.78199768066406,19.139999389648438 -133.78199768066406,-53.50299835205078 C-133.78199768066406,-126.14600372314453 -66.9520034790039,-185.03599548339844 15.486000061035156,-185.03599548339844 C97.92400360107422,-185.03599548339844 164.7530059814453,-126.14600372314453 164.7530059814453,-53.50299835205078z"></path></g><g opacity="1" transform="matrix(1,0,0,1,0,0)"><g opacity="1" transform="matrix(1,0,0,1,0,0)"><path stroke-linecap="round" stroke-linejoin="round" fill-opacity="0" stroke="rgb(255,255,255)" stroke-opacity="1" stroke-width="6" d=" M51.858001708984375,-180.8159942626953 C53.395999908447266,-180.4810028076172 54.992000579833984,-180.11199951171875 56.63600158691406,-179.70599365234375"></path></g><g opacity="1" transform="matrix(1,0,0,1,0,0)"><path stroke-linecap="round" stroke-linejoin="round" fill-opacity="0" stroke="rgb(255,255,255)" stroke-opacity="1" stroke-width="6" d=" M30.503999710083008,-184.03599548339844 C30.503999710083008,-184.03599548339844 35.37099838256836,-183.77499389648438 43.09400177001953,-182.4969940185547"></path></g></g><g opacity="1" transform="matrix(1,0,0,1,0,0)"><path fill="url(#__lottie_element_21556)" fill-opacity="1" d=" M15.484999656677246,181.80099487304688 C-90.86699676513672,181.80099487304688 -177.38999938964844,95.2770004272461 -177.38999938964844,-11.074999809265137 C-177.38999938964844,-117.427001953125 -90.86699676513672,-203.9499969482422 15.484999656677246,-203.9499969482422 C121.83799743652344,-203.9499969482422 208.36099243164062,-117.427001953125 208.36099243164062,-11.074999809265137 C208.36099243164062,95.2770004272461 121.83799743652344,181.80099487304688 15.484999656677246,181.80099487304688z M15.484999656677246,-195.9499969482422 C-86.45500183105469,-195.9499969482422 -169.38999938964844,-113.01499938964844 -169.38999938964844,-11.074999809265137 C-169.38999938964844,90.86599731445312 -86.45500183105469,173.80099487304688 15.484999656677246,173.80099487304688 C117.4260025024414,173.80099487304688 200.36099243164062,90.86599731445312 200.36099243164062,-11.074999809265137 C200.36099243164062,-113.01499938964844 117.4260025024414,-195.9499969482422 15.484999656677246,-195.9499969482422z"></path></g></g><g style="display: none;"><g><g><g><path></path></g><g><path></path></g></g><g><path></path></g></g><g><g><g><path></path></g><g><path></path></g></g><g><path></path></g></g></g><g style="display: block;" transform="matrix(1,0,0,1,241,240)" opacity="1"><g opacity="1" transform="matrix(1,0,0,1,-17,0)"><g opacity="1" transform="matrix(1,0,0,1,0,0)"><path fill="rgb(255,225,156)" fill-opacity="1" d=" M-15.180000305175781,3.822999954223633 C-15.180000305175781,20.20400047302246 -25.82200050354004,33.48400115966797 -38.95100021362305,33.48400115966797 C-52.08000183105469,33.48400115966797 -62.72200012207031,20.20400047302246 -62.72200012207031,3.822999954223633 C-62.72200012207031,-12.557999610900879 -52.08000183105469,-24.75 -38.95100021362305,-24.75 C-25.82200050354004,-24.75 -15.180000305175781,-12.557999610900879 -15.180000305175781,3.822999954223633z"></path></g><g opacity="1" transform="matrix(1,0,0,1,0,0)"><path fill="rgb(255,225,156)" fill-opacity="1" d=" M-15.180000305175781,3.822999954223633 C-15.180000305175781,20.20400047302246 -25.82200050354004,33.48400115966797 -38.95100021362305,33.48400115966797 C-52.08000183105469,33.48400115966797 -62.72200012207031,20.20400047302246 -62.72200012207031,3.822999954223633 C-62.72200012207031,-12.557999610900879 -52.08000183105469,-24.75 -38.95100021362305,-24.75 C-25.82200050354004,-24.75 -15.180000305175781,-12.557999610900879 -15.180000305175781,3.822999954223633z"></path></g><g opacity="1" transform="matrix(1,0,0,1,0,0)"><path fill="rgb(143,58,0)" fill-opacity="1" d=" M-17.0939998626709,1.00600004196167 C-17.0939998626709,16.10300064086914 -26.8799991607666,28.340999603271484 -38.95100021362305,28.340999603271484 C-51.02199935913086,28.340999603271484 -60.80799865722656,16.10300064086914 -60.80799865722656,1.00600004196167 C-60.80799865722656,-14.090999603271484 -51.02199935913086,-26.32900047302246 -38.95100021362305,-26.32900047302246 C-26.8799991607666,-26.32900047302246 -17.0939998626709,-14.090999603271484 -17.0939998626709,1.00600004196167z"></path></g><g opacity="1" transform="matrix(1,0,0,1,0,0)"><path fill="rgb(107,32,0)" fill-opacity="1" d=" M-17.090999603271484,1.0110000371932983 C-17.090999603271484,2.2109999656677246 -17.150999069213867,3.3910000324249268 -17.2810001373291,4.551000118255615 C-18.660999298095703,-8.878999710083008 -27.840999603271484,-19.259000778198242 -38.95100021362305,-19.259000778198242 C-50.06100082397461,-19.259000778198242 -59.24100112915039,-8.878999710083008 -60.62099838256836,4.551000118255615 C-60.750999450683594,3.3910000324249268 -60.81100082397461,2.2109999656677246 -60.81100082397461,1.0110000371932983 C-60.81100082397461,-14.08899974822998 -51.020999908447266,-26.32900047302246 -38.95100021362305,-26.32900047302246 C-26.881000518798828,-26.32900047302246 -17.090999603271484,-14.08899974822998 -17.090999603271484,1.0110000371932983z"></path></g></g><g opacity="1" transform="matrix(1,0,0,1,17,0)"><g opacity="1" transform="matrix(1,0,0,1,0,0)"><path fill="rgb(255,225,156)" fill-opacity="1" d=" M96.31999969482422,3.186000108718872 C96.31999969482422,19.91900062561035 85.6780014038086,33.48400115966797 72.54900360107422,33.48400115966797 C59.41999816894531,33.48400115966797 48.77799987792969,19.91900062561035 48.77799987792969,3.186000108718872 C48.77799987792969,-13.54699993133545 59.41999816894531,-26 72.54900360107422,-26 C85.6780014038086,-26 96.31999969482422,-13.54699993133545 96.31999969482422,3.186000108718872z"></path></g><g opacity="1" transform="matrix(1,0,0,1,0,0)"><path fill="rgb(255,225,156)" fill-opacity="1" d=" M96.31999969482422,3.186000108718872 C96.31999969482422,19.91900062561035 85.6780014038086,33.48400115966797 72.54900360107422,33.48400115966797 C59.41999816894531,33.48400115966797 48.77799987792969,19.91900062561035 48.77799987792969,3.186000108718872 C48.77799987792969,-13.54699993133545 59.41999816894531,-26 72.54900360107422,-26 C85.6780014038086,-26 96.31999969482422,-13.54699993133545 96.31999969482422,3.186000108718872z"></path></g><g opacity="1" transform="matrix(1,0,0,1,0,0)"><path fill="rgb(143,58,0)" fill-opacity="1" d=" M94.40599822998047,1.00600004196167 C94.40599822998047,16.10300064086914 84.62000274658203,28.340999603271484 72.54900360107422,28.340999603271484 C60.47800064086914,28.340999603271484 50.69200134277344,16.10300064086914 50.69200134277344,1.00600004196167 C50.69200134277344,-14.090999603271484 60.47800064086914,-26.32900047302246 72.54900360107422,-26.32900047302246 C84.62000274658203,-26.32900047302246 94.40599822998047,-14.090999603271484 94.40599822998047,1.00600004196167z"></path></g><g opacity="1" transform="matrix(1,0,0,1,0,0)"><path fill="rgb(107,32,0)" fill-opacity="1" d=" M94.40899658203125,1.0110000371932983 C94.40899658203125,2.2109999656677246 94.3489990234375,3.3910000324249268 94.21900177001953,4.551000118255615 C92.83899688720703,-8.878999710083008 83.65899658203125,-19.259000778198242 72.54900360107422,-19.259000778198242 C61.43899917602539,-19.259000778198242 52.25899887084961,-8.878999710083008 50.87900161743164,4.551000118255615 C50.749000549316406,3.3910000324249268 50.68899917602539,2.2109999656677246 50.68899917602539,1.0110000371932983 C50.68899917602539,-14.08899974822998 60.479000091552734,-26.32900047302246 72.54900360107422,-26.32900047302246 C84.61900329589844,-26.32900047302246 94.40899658203125,-14.08899974822998 94.40899658203125,1.0110000371932983z"></path></g></g></g><g style="display: block;" transform="matrix(1,0,0,1,241,240)" opacity="1"><g opacity="1" transform="matrix(1,0,0,1,0,0)"><path fill="rgb(255,225,156)" fill-opacity="1" d=" M60.9109992980957,139.75 C50.654998779296875,138.71299743652344 39.17300033569336,135.25 15.803000450134277,134.75 C-7.566999912261963,134.25 -23.635000228881836,139.68099975585938 -31.628000259399414,140.5 C-47.88600158691406,142.16700744628906 -52.25,126.75 -48.948001861572266,116.25 C-44.224998474121094,101.23300170898438 -9.838000297546387,83 15.494000434875488,83 C40.82600021362305,83 77.29000091552734,102.3010025024414 80.21600341796875,117.25 C83.25,132.75 75.75,141.25 60.9109992980957,139.75z"></path></g><g opacity="1" transform="matrix(1,0,0,1,0,0)"><path fill="rgb(255,173,0)" fill-opacity="1" d=" M51.37699890136719,128.25 C26.5,119 -10.5,126.5 -29.85700035095215,132.25 C-45.180999755859375,136.802001953125 -48.90800094604492,121.99600219726562 -48.10300064086914,112.10399627685547 C-46,86.25 -15,67 15.741000175476074,66.75 C42.50400161743164,66.53199768066406 79.75,84.25 80.36799621582031,123.19400024414062 C80.51200103759766,132.2760009765625 65.35800170898438,133.447998046875 51.37699890136719,128.25z"></path></g><g opacity="1" transform="matrix(1,0,0,1,0,0)"><path fill="rgb(143,58,0)" fill-opacity="1" d=" M58.37699890136719,134 C54.00699996948242,133.10299682617188 47.95399856567383,131.36000061035156 41.82600021362305,130.46099853515625 C34.106998443603516,129.3280029296875 27.788000106811523,128.5290069580078 15.04800033569336,128.25 C2.6510000228881836,127.97899627685547 -5.605999946594238,129.8350067138672 -13.416999816894531,131.03500366210938 C-20.0049991607666,132.0469970703125 -27.030000686645508,134.375 -30.60700035095215,134.75 C-46.505001068115234,136.41700744628906 -51,123.75 -45.76100158691406,109.75 C-40.250999450683594,95.0270004272461 -20.531999588012695,73.5 15.491000175476074,73.5 C49,73.5 77.18000030517578,103 79.77200317382812,118 C81.31999969482422,126.95999908447266 73,137 58.37699890136719,134z"></path></g><g opacity="1" transform="matrix(1,0,0,1,0,0)"><path fill="rgb(107,32,0)" fill-opacity="1" d=" M-45.51100158691406,128.625 C-39.375,95.875 -13,82.25 15.366000175476074,81.625 C43.36899948120117,81.00800323486328 73.125,99.375 76.50299835205078,129.6580047607422 C78.75,125.875 80.63099670410156,121.08999633789062 78.64700317382812,114 C72.875,93.375 46.7140007019043,70.71399688720703 14.616000175476074,72.25 C-14.125,73.625 -35.5,88.25 -45.01100158691406,107.5 C-46.34700012207031,110.2040023803711 -48.6879997253418,117.47699737548828 -47.96900177001953,120.61699676513672 C-47.941001892089844,120.49500274658203 -45.534000396728516,128.7480010986328 -45.51100158691406,128.625z"></path></g></g><g style="display: block;" transform="matrix(1,0,0,1,239.5,252.99899291992188)" opacity="1"><g opacity="1" transform="matrix(1,0,0,1,0,0)"><g opacity="1" transform="matrix(1,0,0,1,0,0)"><g opacity="1" transform="matrix(1,0,0,1,0,0)"><g opacity="1" transform="matrix(1,0,0,1,0,0)"><path fill="rgb(148,194,230)" fill-opacity="1" d=" M-34.625,-109.94200134277344 C-35.805999755859375,-111.32499694824219 -39.61800003051758,-113.0009994506836 -42.66999816894531,-113.89700317382812 C-55.89500045776367,-117.77999877929688 -82.3499984741211,-112.33999633789062 -101.11299896240234,-97.4729995727539 C-127.83300018310547,-76.302001953125 -119.96800231933594,-63.637001037597656 -114.10700225830078,-67.88400268554688 C-108.24600219726562,-72.13099670410156 -88.1969985961914,-90.74500274658203 -57.0359992980957,-95.16799926757812 C-48.68600082397461,-96.35299682617188 -42.652000427246094,-96.27100372314453 -38.08700180053711,-97.33499908447266 C-32.05699920654297,-98.73999786376953 -31.384000778198242,-106.14800262451172 -34.625,-109.94200134277344z"></path></g><g opacity="1" transform="matrix(1,0,0,1,0,0)"><path fill="rgb(50,93,139)" fill-opacity="1" d=" M-35.167999267578125,-110.63200378417969 C-36.3489990234375,-112.01499938964844 -39.78799819946289,-113.98699951171875 -42.84000015258789,-114.88300323486328 C-56.064998626708984,-118.76599884033203 -79.85800170898438,-117.5739974975586 -98.62100219726562,-102.70700073242188 C-125.34100341796875,-81.53600311279297 -120.66799926757812,-68.33200073242188 -114.80699920654297,-72.5790023803711 C-108.94599914550781,-76.82599639892578 -88.89700317382812,-95.43900299072266 -57.736000061035156,-99.86199951171875 C-49.38600158691406,-101.0469970703125 -43.35200119018555,-100.96600341796875 -38.7869987487793,-102.02999877929688 C-32.75699996948242,-103.43499755859375 -31.927000045776367,-106.83799743652344 -35.167999267578125,-110.63200378417969z"></path></g></g><g opacity="1" transform="matrix(1,0,0,1,0,0)"><path fill="rgb(32,67,129)" fill-opacity="1" d=" M-34.0620002746582,-104.46199798583984 C-34.07699966430664,-104.48999786376953 -34.10300064086914,-104.5260009765625 -34.12799835205078,-104.552001953125 C-35.308998107910156,-105.93199920654297 -38.74300003051758,-107.90899658203125 -41.797000885009766,-108.79499816894531 C-55.01599884033203,-112.68399810791016 -78.81600189208984,-111.48799896240234 -97.5719985961914,-96.62899780273438 C-110.94100189208984,-86.03299713134766 -116.44499969482422,-77.4280014038086 -117.87999725341797,-72.01699829101562 C-121.29000091552734,-73.79499816894531 -120.11399841308594,-85.6760025024414 -98.61699676513672,-102.70999908447266 C-79.86100006103516,-117.56900024414062 -56.060001373291016,-118.76499938964844 -42.84299850463867,-114.88600158691406 C-39.7869987487793,-113.98999786376953 -36.35300064086914,-112.01300048828125 -35.172000885009766,-110.63300323486328 C-33.17900085449219,-108.30699920654297 -32.7239990234375,-106.12200164794922 -34.0620002746582,-104.46199798583984z"></path></g></g></g><g opacity="1" transform="matrix(1,0,0,1,0,0)"><g opacity="1" transform="matrix(1,0,0,1,0,0)"><g opacity="1" transform="matrix(1,0,0,1,0,0)"><g opacity="1" transform="matrix(1,0,0,1,0,0)"><path fill="rgb(148,194,230)" fill-opacity="1" d=" M70.6989974975586,-109.94200134277344 C71.87999725341797,-111.32499694824219 75.69200134277344,-113.0009994506836 78.74400329589844,-113.89700317382812 C91.96900177001953,-117.77999877929688 118.42400360107422,-112.33999633789062 137.18699645996094,-97.4729995727539 C163.90699768066406,-76.302001953125 156.04100036621094,-63.637001037597656 150.17999267578125,-67.88400268554688 C144.31900024414062,-72.13099670410156 124.2699966430664,-90.74500274658203 93.10900115966797,-95.16799926757812 C84.75900268554688,-96.35299682617188 78.7249984741211,-96.27100372314453 74.16000366210938,-97.33499908447266 C68.12999725341797,-98.73999786376953 67.45800018310547,-106.14800262451172 70.6989974975586,-109.94200134277344z"></path></g><g opacity="1" transform="matrix(1,0,0,1,0,0)"><path fill="rgb(50,93,139)" fill-opacity="1" d=" M71.24099731445312,-110.63200378417969 C72.4219970703125,-112.01499938964844 75.86100006103516,-113.98699951171875 78.91300201416016,-114.88300323486328 C92.13800048828125,-118.76599884033203 115.93099975585938,-117.5739974975586 134.69400024414062,-102.70700073242188 C161.41400146484375,-81.53600311279297 156.74200439453125,-68.33200073242188 150.88099670410156,-72.5790023803711 C145.02000427246094,-76.82599639892578 124.97000122070312,-95.43900299072266 93.80899810791016,-99.86199951171875 C85.45899963378906,-101.0469970703125 79.42500305175781,-100.96600341796875 74.86000061035156,-102.02999877929688 C68.83000183105469,-103.43499755859375 68,-106.83799743652344 71.24099731445312,-110.63200378417969z"></path></g></g><g opacity="1" transform="matrix(1,0,0,1,0,0)"><path fill="rgb(32,67,129)" fill-opacity="1" d=" M70.13500213623047,-104.46199798583984 C70.1500015258789,-104.48999786376953 70.1760025024414,-104.5260009765625 70.20099639892578,-104.552001953125 C71.38200378417969,-105.93199920654297 74.81600189208984,-107.90899658203125 77.87000274658203,-108.79499816894531 C91.08899688720703,-112.68399810791016 114.88999938964844,-111.48799896240234 133.64599609375,-96.62899780273438 C147.01499938964844,-86.03299713134766 152.51800537109375,-77.4280014038086 153.9530029296875,-72.01699829101562 C157.36300659179688,-73.79499816894531 156.18699645996094,-85.6760025024414 134.69000244140625,-102.70999908447266 C115.93399810791016,-117.56900024414062 92.13300323486328,-118.76499938964844 78.91600036621094,-114.88600158691406 C75.86000061035156,-113.98999786376953 72.427001953125,-112.01300048828125 71.24600219726562,-110.63300323486328 C69.25299835205078,-108.30699920654297 68.7969970703125,-106.12200164794922 70.13500213623047,-104.46199798583984z"></path></g></g></g></g></g></svg>