<svg xmlns="http://www.w3.org/2000/svg" viewBox="0 0 512 512" width="512" height="512" style="width: 100%; height: 100%; transform: translate3d(0,0,0);" preserveAspectRatio="xMidYMid meet"><defs><clipPath id="__lottie_element_21570"><rect width="512" height="512" x="0" y="0"></rect></clipPath></defs><g clip-path="url(#__lottie_element_21570)"><g style="display: block;" transform="matrix(1,0,0,1,19.022994995117188,48.5360107421875)" opacity="1"><g opacity="0.1" transform="matrix(1,0,0,1,208.875,223.875)"><path fill="rgb(0,0,0)" fill-opacity="1" d=" M196.02499389648438,0 C196.02499389648438,108.26200103759766 108.26200103759766,196.02499389648438 0.0010000000474974513,196.02499389648438 C-108.26100158691406,196.02499389648438 -196.02499389648438,108.26200103759766 -196.02499389648438,0 C-196.02499389648438,-108.26100158691406 -108.26100158691406,-196.0240020751953 0.0010000000474974513,-196.0240020751953 C108.26200103759766,-196.0240020751953 196.02499389648438,-108.26100158691406 196.02499389648438,0z"></path></g><g opacity="1" transform="matrix(1,0,0,1,208.875,208.875)"><path fill="rgb(255,176,57)" fill-opacity="1" d=" M188.875,0 C188.875,104.31300354003906 104.31300354003906,188.875 0,188.875 C-104.31300354003906,188.875 -188.875,104.31300354003906 -188.875,0 C-188.875,-104.31300354003906 -104.31300354003906,-188.875 0,-188.875 C104.31300354003906,-188.875 188.875,-104.31300354003906 188.875,0z"></path></g><g opacity="1" transform="matrix(1,0,0,1,208.875,208.875)"><path stroke-linecap="butt" stroke-linejoin="miter" fill-opacity="0" stroke-miterlimit="10" stroke="rgb(247,125,65)" stroke-opacity="1" stroke-width="8" d=" M188.875,0 C188.875,104.31300354003906 104.31300354003906,188.875 0,188.875 C-104.31300354003906,188.875 -188.875,104.31300354003906 -188.875,0 C-188.875,-104.31300354003906 -104.31300354003906,-188.875 0,-188.875 C104.31300354003906,-188.875 188.875,-104.31300354003906 188.875,0z"></path></g><g opacity="1" transform="matrix(1,0,0,1,208.92999267578125,207.0070037841797)"><path fill="rgb(255,209,64)" fill-opacity="1" d=" M168.3520050048828,2.5810000896453857 C166.89500427246094,97.60900115966797 90.34100341796875,173.49000549316406 -2.63700008392334,172.06500244140625 C-95.61499786376953,170.63900756835938 -169.80799865722656,92.4489974975586 -168.3509979248047,-2.5799999237060547 C-166.89500427246094,-97.60800170898438 -90.33999633789062,-173.48899841308594 2.638000011444092,-172.06399536132812 C95.61599731445312,-170.63900756835938 169.80799865722656,-92.447998046875 168.3520050048828,2.5810000896453857z"></path></g><g opacity="1" transform="matrix(1,0,0,1,208.875,137.0019989013672)"><path fill="rgb(255,223,121)" fill-opacity="1" d=" M149.26800537109375,29.444000244140625 C149.26800537109375,102.08699798583984 82.43800354003906,44.624000549316406 -0.0010000000474974513,44.624000549316406 C-82.43900299072266,44.624000549316406 -149.26800537109375,102.08699798583984 -149.26800537109375,29.444000244140625 C-149.26800537109375,-43.20000076293945 -82.43900299072266,-102.08699798583984 -0.0010000000474974513,-102.08699798583984 C82.43800354003906,-102.08699798583984 149.26800537109375,-43.20000076293945 149.26800537109375,29.444000244140625z"></path></g><g opacity="1" transform="matrix(1,0,0,1,238.69000244140625,39.6879997253418)"><path stroke-linecap="round" stroke-linejoin="round" fill-opacity="0" stroke="rgb(255,255,255)" stroke-opacity="1" stroke-width="6" d=" M-2.388000011444092,-0.5550000071525574 C-0.8500000238418579,-0.2199999988079071 0.7440000176429749,0.15000000596046448 2.388000011444092,0.5550000071525574"></path></g><g opacity="1" transform="matrix(1,0,0,1,221.24200439453125,36.68299865722656)"><path stroke-linecap="round" stroke-linejoin="round" fill-opacity="0" stroke="rgb(255,255,255)" stroke-opacity="1" stroke-width="6" d=" M-6.295000076293945,-0.7689999938011169 C-6.295000076293945,-0.7689999938011169 -1.4279999732971191,-0.5090000033378601 6.295000076293945,0.7689999938011169"></path></g></g><g style="display: block;" transform="matrix(0.746785044670105,-0.4244915843009949,0.4244915843009949,0.746785044670105,-65.94940185546875,186.50357055664062)" opacity="1"><g opacity="1" transform="matrix(1,0,0,1,97.593994140625,264.3210144042969)"><g opacity="1" transform="matrix(1,0,0,1,158.468994140625,72.2509994506836)"><path fill="rgb(255,177,57)" fill-opacity="1" d=" M146.91700744628906,-69.927001953125 C138.38299560546875,-74.0719985961914 94.78600311279297,-48.29899978637695 -0.07699999958276749,-48.689998626708984 C-94.38800048828125,-49.07899856567383 -138.38299560546875,-74.0719985961914 -146.91700744628906,-69.927001953125 C-153.5489959716797,-66.70600128173828 -152.1699981689453,-34.60200119018555 -134.4739990234375,-3.9130001068115234 C-112.90599822998047,33.49100112915039 -68.6449966430664,71.60800170898438 0,71.60800170898438 C68.6449966430664,71.60800170898438 112.90499877929688,33.4900016784668 134.4739990234375,-3.9130001068115234 C152.17100524902344,-34.60200119018555 153.5489959716797,-66.70600128173828 146.91700744628906,-69.927001953125z"></path></g><g opacity="1" transform="matrix(1,0,0,1,158.468994140625,83.60099792480469)"><path fill="rgb(255,226,166)" fill-opacity="1" d=" M146.91700744628906,-72.03399658203125 C138.38299560546875,-76.31300354003906 95.302001953125,-54.108001708984375 0.05700000002980232,-52.02399826049805 C-89.61799621582031,-50.0620002746582 -137.1580047607422,-76.18399810791016 -145.6929931640625,-71.90499877929688 C-152.3249969482422,-68.58000183105469 -152.17100524902344,-35.55699920654297 -134.4739990234375,-3.868000030517578 C-112.90599822998047,34.75400161743164 -74.0260009765625,73.3499984741211 0,74.11399841308594 C74.94100189208984,74.88700103759766 112.90599822998047,34.75400161743164 134.4739990234375,-3.868000030517578 C152.17100524902344,-35.55699920654297 153.5489959716797,-68.70800018310547 146.91700744628906,-72.03399658203125z"></path></g><g opacity="1" transform="matrix(1,0,0,1,158.468994140625,79.55999755859375)"><path fill="rgb(134,63,20)" fill-opacity="1" d=" M145.95399475097656,-68.94000244140625 C137.6699981689453,-73.08499908447266 94.91500091552734,-49.808998107910156 0.004999999888241291,-49.183998107910156 C-103.66500091552734,-48.50199890136719 -130.72900390625,-72.48999786376953 -143.89300537109375,-68.81099700927734 C-152.4949951171875,-66.40699768066406 -148.60499572753906,-32.970001220703125 -131.42799377441406,-2.2809998989105225 C-110.49299621582031,35.12200164794922 -66.83499908447266,70.2760009765625 -0.20399999618530273,70.2760009765625 C66.4260025024414,70.2760009765625 111.13800048828125,34.608001708984375 132.07200622558594,-2.7960000038146973 C149.24899291992188,-33.486000061035156 152.39100646972656,-65.71900177001953 145.95399475097656,-68.94000244140625z"></path></g></g><g opacity="1" transform="matrix(1,0,0,1,117.3389892578125,290.5409851074219)"><g opacity="1" transform="matrix(1,0,0,1,138.72500610351562,50.21200180053711)"><path fill="rgb(99,37,12)" fill-opacity="1" d=" M-124.25800323486328,-14.206000328063965 C-110.36799621582031,-3.253000020980835 -69.7760009765625,14.038999557495117 -0.257999986410141,14.159000396728516 C66.04900360107422,14.27299976348877 107.93099975585938,0.22599999606609344 125.93399810791016,-16.138999938964844 C125.93399810791016,-16.138999938964844 -124.25800323486328,-14.206000328063965 -124.25800323486328,-14.206000328063965z"></path></g><g opacity="1" transform="matrix(1,0,0,1,138.7239990234375,26.799999237060547)"><path fill="rgb(244,244,244)" fill-opacity="1" d=" M-124.25700378417969,9.206000328063965 C-107.08599853515625,15.770999908447266 -73.15799713134766,27.07900047302246 0.05400000140070915,27.07900047302246 C73.26499938964844,27.07900047302246 108.89099884033203,14.225000381469727 126.06300354003906,7.659999847412109 C131.88999938964844,-4.7230000495910645 133.71600341796875,-13.767999649047852 134.7989959716797,-22.222999572753906 C135.16099548339844,-25.049999237060547 132.1219940185547,-28.4689998626709 129.46200561523438,-27.7810001373291 C114.50399780273438,-23.913000106811523 70.04399871826172,-8.96500015258789 -0.017000000923871994,-9.472999572753906 C-71.322998046875,-9.989999771118164 -109.56199645996094,-23.624000549316406 -128.302001953125,-28.555999755859375 C-130.95899963378906,-29.2549991607666 -134.52099609375,-27.250999450683594 -134.79800415039062,-24.415000915527344 C-135.59800720214844,-16.229000091552734 -133.0229949951172,-3.5969998836517334 -124.25700378417969,9.206000328063965z"></path></g><g opacity="1" transform="matrix(1,0,0,1,229.593994140625,21.417999267578125)"><path fill="rgb(201,214,215)" fill-opacity="1" d=" M35.70800018310547,12.39799976348877 C41.53499984741211,0.014999999664723873 42.84299850463867,-8.38700008392334 43.928001403808594,-16.840999603271484 C44.29100036621094,-19.667999267578125 41.25199890136719,-23.086999893188477 38.59199905395508,-22.39900016784668 C23.375,-18.465999603271484 -2.4619998931884766,-10.927000045776367 -48.75199890136719,-6.105000019073486 C15.597999572753906,-8.621999740600586 39.74100112915039,-14.92199993133545 20.867000579833984,17.83300018310547 C27.613000869750977,16.0049991607666 35.48899841308594,12.397000312805176 35.70800018310547,12.39799976348877z"></path></g><g opacity="1" transform="matrix(1,0,0,1,47.861000061035156,21.41699981689453)"><path fill="rgb(201,214,215)" fill-opacity="1" d=" M48.62900161743164,-6.876999855041504 C0.35600000619888306,-9.61299991607666 -20.79400062561035,-19.174999237060547 -37.43899917602539,-23.17300033569336 C-40.111000061035156,-23.815000534057617 -44.297000885009766,-21.858999252319336 -43.935001373291016,-19.031999588012695 C-42.85200119018555,-10.57699966430664 -43.4739990234375,1.7020000219345093 -33.39400100708008,14.58899974822998 C-29.097000122070312,16.23200035095215 -23.753999710083008,18.06800079345703 -17.007999420166016,19.895000457763672 C-37.03099822998047,-14.92199993133545 -16.41200065612793,-10.668999671936035 48.62900161743164,-6.876999855041504z"></path></g></g><g opacity="1" transform="matrix(1,0,0,1,102.24099731445312,271.6289978027344)"><g opacity="1" transform="matrix(1,0,0,1,153.82400512695312,49.275001525878906)"><path fill="rgb(99,37,12)" fill-opacity="1" d=" M132.07200622558594,20.18000030517578 C126.5510025024414,30.054000854492188 118.83200073242188,39.70899963378906 110.2040023803711,48.95500183105469 C112.6969985961914,46.01100158691406 135.5070037841797,18.270000457763672 134.7050018310547,-18.202999114990234 C134.7050018310547,-18.202999114990234 131.35400390625,-8.300999641418457 131.35400390625,-8.300999641418457 C133.59500122070312,-15.239999771118164 133.88499450683594,-20.690000534057617 134.79299926757812,-25.790000915527344 C135.50599670410156,-29.79599952697754 132.16900634765625,-31.78499984741211 129.46400451660156,-31.344999313354492 C112.82599639892578,-28.63599967956543 70.30000305175781,-12.656999588012695 -0.023000000044703484,-13.038000106811523 C-70.4280014038086,-13.418999671936035 -109.66100311279297,-27.2189998626709 -128.30299377441406,-32.11899948120117 C-130.96299743652344,-32.81800079345703 -135.16600036621094,-30.80299949645996 -134.80299377441406,-27.981000900268555 C-134.14199829101562,-22.841999053955078 -134.33900451660156,-19.874000549316406 -134.06100463867188,-17.31100082397461 C-134.06100463867188,-17.31100082397461 -134.3179931640625,-14.980999946594238 -134.3179931640625,-14.980999946594238 C-136.0780029296875,18.142000198364258 -113.21199798583984,45.10900115966797 -110.72799682617188,48.053001403808594 C-119.34700012207031,38.80699920654297 -125.6719970703125,30.43400001525879 -131.42799377441406,20.69499969482422 C-149.56100463867188,-9.98900032043457 -152.48699951171875,-43.641998291015625 -142.60800170898438,-46.86199951171875 C-133.79600524902344,-49.73400115966797 -103.41100311279297,-25.676000595092773 -0.0010000000474974513,-26.208999633789062 C96.072998046875,-26.70400047302246 136.89300537109375,-50.736000061035156 145.0469970703125,-46.34700012207031 C153.2899932861328,-41.90999984741211 149.23399353027344,-10.51200008392334 132.07200622558594,20.18000030517578z"></path></g></g><g opacity="0" transform="matrix(0.7699999809265137,0,0,0.7699999809265137,58.879547119140625,73.4593505859375)"><g opacity="1" transform="matrix(1,0,0,1,255.9980010986328,365.23199462890625)"><path fill="rgb(245,245,245)" fill-opacity="1" d=" M-0.2619999945163727,51.90800094604492 C51.52799987792969,51.90800094604492 93.60700225830078,26.39900016784668 112.68699645996094,10.555999755859375 C86.85900115966797,35.064998626708984 42.18899917602539,53.474998474121094 0.9480000138282776,53.474998474121094 C-44.24300003051758,53.474998474121094 -87.08799743652344,39.564998626708984 -112.22599792480469,15.439000129699707 C-86.56099700927734,33.448001861572266 -52.81999969482422,51.90800094604492 -0.2619999945163727,51.90800094604492z"></path></g><g opacity="1" transform="matrix(1,0,0,1,255.9980010986328,365.23199462890625)"><path fill="rgb(199,209,209)" fill-opacity="1" d=" M108.1449966430664,13.98799991607666 C104.08100128173828,16.483999252319336 102.46700286865234,21.253000259399414 97.15899658203125,22.145000457763672 C97.15899658203125,22.145000457763672 97.15899658203125,22.187999725341797 97.15899658203125,22.187999725341797 C97.15899658203125,22.187999725341797 97.16999816894531,22.50200080871582 97.16999816894531,22.50200080871582 C97.16999816894531,22.50200080871582 62.599998474121094,52.89400100708008 -0.22100000083446503,52.89400100708008 C-62.92499923706055,52.89400100708008 -96.13899993896484,27.177000045776367 -96.13899993896484,27.177000045776367 C-96.13899993896484,27.177000045776367 -96.13899993896484,27.16900062561035 -96.13899993896484,27.16900062561035 C-103.81700134277344,25.87700080871582 -107.927001953125,18.365999221801758 -112.22599792480469,15.439000129699707 C-87.30999755859375,39.35300064086914 -44.98899841308594,53.176998138427734 -0.22100000083446503,53.465999603271484 C-0.20999999344348907,53.465999603271484 -0.20999999344348907,53.465999603271484 -0.19900000095367432,53.465999603271484 C0.17900000512599945,53.474998474121094 0.5699999928474426,53.474998474121094 0.9480000138282776,53.474998474121094 C42.18899917602539,53.474998474121094 86.85900115966797,35.064998626708984 112.68699645996094,10.555999755859375 C110.94000244140625,10.946999549865723 109.83100128173828,12.95199966430664 108.1449966430664,13.98799991607666z"></path></g></g></g><g style="display: block;" transform="matrix(-0.11519721150398254,-0.9933426380157471,0.9933426380157471,-0.11519721150398254,318.1532287597656,251.79278564453125)" opacity="1"><g opacity="1" transform="matrix(1,0,0,1,65.99700164794922,93.8759994506836)"><path fill="rgb(86,161,218)" fill-opacity="1" d=" M-53.983001708984375,-7.453000068664551 C-55.63399887084961,6.4629998207092285 -45.45000076293945,19.11199951171875 -31.236000061035156,20.801000595092773 C-17.02199935913086,22.489999771118164 -4.160999774932861,12.57699966430664 -2.509999990463257,-1.3389999866485596 C-0.859000027179718,-15.255000114440918 -21.055999755859375,-64.69100189208984 -21.055999755859375,-64.69100189208984 C-21.055999755859375,-64.69100189208984 -52.332000732421875,-21.368999481201172 -53.983001708984375,-7.453000068664551z"></path></g><g opacity="0.3" transform="matrix(1,0,0,1,65.08799743652344,133.01199340820312)"><path fill="rgb(168,241,251)" fill-opacity="1" d=" M-8.840999603271484,-27.575000762939453 C-8.840999603271484,-27.575000762939453 -8.838000297546387,-27.58099937438965 -8.838000297546387,-27.58099937438965 C-7.9079999923706055,-29.865999221801758 -7.642000198364258,-28.666000366210938 -7.369999885559082,-31.281999588012695 C-5.955999851226807,-44.869998931884766 -14.767000198364258,-56.92499923706055 -27.05500030517578,-58.21500015258789 C-35.071998596191406,-59.05699920654297 -42.571998596191406,-55.10499954223633 -47.21799850463867,-48.49100112915039 C-50.44499969482422,-42.321998596191406 -51.18299865722656,-38.76100158691406 -49.75899887084961,-32.3489990234375 C-49.75199890136719,-32.34600067138672 -49.755001068115234,-32.3390007019043 -49.757999420166016,-32.332000732421875 C-48.678001403808594,-30.187000274658203 -47.2239990234375,-28.211999893188477 -45.393001556396484,-26.437999725341797 C-43.340999603271484,-24.450000762939453 -40.78900146484375,-22.742000579833984 -37.70800018310547,-21.42300033569336 C-29.604999542236328,-17.95400047302246 -22.219999313354492,-19.55699920654297 -16.52400016784668,-22.406999588012695 C-13.404999732971191,-23.966999053955078 -10.788999557495117,-25.89699935913086 -8.840999603271484,-27.575000762939453z"></path></g><g opacity="0.4" transform="matrix(1,0,0,1,65.11699676513672,138.1009979248047)"><path fill="rgb(168,241,251)" fill-opacity="1" d=" M-10.602999687194824,-35.7869987487793 C-9.418000221252441,-47.1609992980957 -16.79199981689453,-57.25199890136719 -27.069000244140625,-58.33100128173828 C-37.35300064086914,-59.40999984741211 -46.64500045776367,-51.0620002746582 -47.83000183105469,-39.69499969482422 C-48.316001892089844,-35.034000396728516 -46.99700164794922,-34.266998291015625 -44.99100112915039,-30.566999435424805 C-42.939998626708984,-28.57900047302246 -40.387001037597656,-26.871000289916992 -37.30699920654297,-25.552000045776367 C-29.20400047302246,-22.08300018310547 -21.81599998474121,-23.683000564575195 -16.121999740600586,-26.53700065612793 C-12.942999839782715,-29.8439998626709 -11.13700008392334,-30.66699981689453 -10.602999687194824,-35.7869987487793z"></path></g><g opacity="0.4" transform="matrix(1,0,0,1,64.7959976196289,141.9080047607422)"><path fill="rgb(168,241,251)" fill-opacity="1" d=" M-27.42300033569336,-57.61899948120117 C-35.79199981689453,-58.49700164794922 -43.358001708984375,-51.707000732421875 -44.321998596191406,-42.45199966430664 C-45.2859992980957,-33.196998596191406 -38.91899871826172,-28.66200065612793 -30.549999237060547,-27.784000396728516 C-22.180999755859375,-26.9060001373291 -14.979999542236328,-30.017000198364258 -14.015999794006348,-39.27199935913086 C-13.052000045776367,-48.5260009765625 -19.054000854492188,-56.74100112915039 -27.42300033569336,-57.61899948120117z"></path></g><g opacity="0.4" transform="matrix(1,0,0,1,65.40499877929688,144.72799682617188)"><path fill="rgb(168,241,251)" fill-opacity="1" d=" M-28.327999114990234,-54.4370002746582 C-34.52199935913086,-55.08700180053711 -40.12200164794922,-50.06100082397461 -40.83599853515625,-43.21099853515625 C-41.54999923706055,-36.361000061035156 -36.742000579833984,-33.96099853515625 -30.547000885009766,-33.31100082397461 C-24.35300064086914,-32.6609992980957 -19.118999481201172,-34.00699996948242 -18.405000686645508,-40.856998443603516 C-17.69099998474121,-47.707000732421875 -22.132999420166016,-53.7869987487793 -28.327999114990234,-54.4370002746582z"></path></g><g opacity="1" transform="matrix(1,0,0,1,64.53600311279297,148.68899536132812)"><path fill="rgb(168,241,251)" fill-opacity="1" d=" M-28.81999969482422,-50.630001068115234 C-32.209999084472656,-50.98500061035156 -35.275001525878906,-48.236000061035156 -35.665000915527344,-44.48699951171875 C-36.05500030517578,-40.737998962402344 -33.25899887084961,-41.090999603271484 -29.868999481201172,-40.73500061035156 C-26.479000091552734,-40.37900161743164 -23.7810001373291,-39.45100021362305 -23.389999389648438,-43.19900131225586 C-22.999000549316406,-46.946998596191406 -25.43000030517578,-50.275001525878906 -28.81999969482422,-50.630001068115234z"></path></g><g opacity="0.55" transform="matrix(1,0,0,1,65.93099975585938,80.60299682617188)"><path fill="rgb(255,255,255)" fill-opacity="1" d=" M-42.25,-2.8989999294281006 C-43.1870002746582,5.005000114440918 -36.770999908447266,12.267999649047852 -28.697999954223633,13.22700023651123 C-20.624000549316406,14.185999870300293 -12.685999870300293,8.633000373840332 -11.74899959564209,0.7289999723434448 C-10.954000473022461,-5.979000091552734 -18.48699951171875,-35.959999084472656 -20.785999298095703,-44.882999420166016 C-21.014999389648438,-45.770999908447266 -22.238000869750977,-45.91699981689453 -22.670000076293945,-45.10900115966797 C-27.020000457763672,-36.97999954223633 -41.45500183105469,-9.607000350952148 -42.25,-2.8989999294281006z"></path></g><g opacity="1" transform="matrix(1,0,0,1,65.99700164794922,95.37100219726562)"><path stroke-linecap="round" stroke-linejoin="round" fill-opacity="0" stroke="rgb(28,108,190)" stroke-opacity="1" stroke-width="8.697" d=" M-53.981998443603516,-8.947999954223633 C-55.683998107910156,4.961999893188477 -45.44900131225586,17.618000030517578 -31.235000610351562,19.30699920654297 C-17.020999908447266,20.996000289916992 -4.211999893188477,11.07699966430664 -2.509999990463257,-2.8329999446868896 C-0.5370000004768372,-18.954999923706055 -14.631999969482422,-51.9900016784668 -19.466999053955078,-62.729000091552734 C-20.187999725341797,-64.33100128173828 -22.3799991607666,-64.62100219726562 -23.489999771118164,-63.25899887084961 C-30.72599983215332,-54.38199996948242 -51.742000579833984,-27.25 -53.981998443603516,-8.947999954223633z"></path></g><g opacity="1" transform="matrix(1,0,0,1,86.58899688720703,87.2300033569336)"><path stroke-linecap="round" stroke-linejoin="round" fill-opacity="0" stroke="rgb(255,255,255)" stroke-opacity="1" stroke-width="6.523" d=" M-34.3390007019043,-17.954999923706055 C-34.3390007019043,-17.954999923706055 -34.18299865722656,-17.215999603271484 -34.18299865722656,-17.215999603271484"></path></g><g opacity="1" transform="matrix(1,0,0,1,82.4000015258789,74.70700073242188)"><path stroke-linecap="round" stroke-linejoin="round" fill-opacity="0" stroke="rgb(255,255,255)" stroke-opacity="1" stroke-width="6.523" d=" M-32.02899932861328,-14.357000350952148 C-32.02899932861328,-14.357000350952148 -31.242000579833984,-10.618000030517578 -31.242000579833984,-10.618000030517578"></path></g></g><g style="display: block;" transform="matrix(-0.7945736050605774,-0.6071678400039673,-0.6071678400039673,0.7945736050605774,176.42848205566406,332.3509521484375)" opacity="1"><g opacity="1" transform="matrix(1,0,0,1,65.99700164794922,93.8759994506836)"><path fill="rgb(86,161,218)" fill-opacity="1" d=" M-53.983001708984375,-7.453000068664551 C-55.63399887084961,6.4629998207092285 -45.45000076293945,19.11199951171875 -31.236000061035156,20.801000595092773 C-17.02199935913086,22.489999771118164 -4.160999774932861,12.57699966430664 -2.509999990463257,-1.3389999866485596 C-0.859000027179718,-15.255000114440918 -21.055999755859375,-64.69100189208984 -21.055999755859375,-64.69100189208984 C-21.055999755859375,-64.69100189208984 -52.332000732421875,-21.368999481201172 -53.983001708984375,-7.453000068664551z"></path></g><g opacity="0.3" transform="matrix(1,0,0,1,65.08799743652344,133.01199340820312)"><path fill="rgb(168,241,251)" fill-opacity="1" d=" M-8.840999603271484,-27.575000762939453 C-8.840999603271484,-27.575000762939453 -8.838000297546387,-27.58099937438965 -8.838000297546387,-27.58099937438965 C-7.9079999923706055,-29.865999221801758 -7.642000198364258,-28.666000366210938 -7.369999885559082,-31.281999588012695 C-5.955999851226807,-44.869998931884766 -14.767000198364258,-56.92499923706055 -27.05500030517578,-58.21500015258789 C-35.071998596191406,-59.05699920654297 -42.571998596191406,-55.10499954223633 -47.21799850463867,-48.49100112915039 C-50.44499969482422,-42.321998596191406 -51.18299865722656,-38.76100158691406 -49.75899887084961,-32.3489990234375 C-49.75199890136719,-32.34600067138672 -49.755001068115234,-32.3390007019043 -49.757999420166016,-32.332000732421875 C-48.678001403808594,-30.187000274658203 -47.2239990234375,-28.211999893188477 -45.393001556396484,-26.437999725341797 C-43.340999603271484,-24.450000762939453 -40.78900146484375,-22.742000579833984 -37.70800018310547,-21.42300033569336 C-29.604999542236328,-17.95400047302246 -22.219999313354492,-19.55699920654297 -16.52400016784668,-22.406999588012695 C-13.404999732971191,-23.966999053955078 -10.788999557495117,-25.89699935913086 -8.840999603271484,-27.575000762939453z"></path></g><g opacity="0.4" transform="matrix(1,0,0,1,65.11699676513672,138.1009979248047)"><path fill="rgb(168,241,251)" fill-opacity="1" d=" M-10.602999687194824,-35.7869987487793 C-9.418000221252441,-47.1609992980957 -16.79199981689453,-57.25199890136719 -27.069000244140625,-58.33100128173828 C-37.35300064086914,-59.40999984741211 -46.64500045776367,-51.0620002746582 -47.83000183105469,-39.69499969482422 C-48.316001892089844,-35.034000396728516 -46.99700164794922,-34.266998291015625 -44.99100112915039,-30.566999435424805 C-42.939998626708984,-28.57900047302246 -40.387001037597656,-26.871000289916992 -37.30699920654297,-25.552000045776367 C-29.20400047302246,-22.08300018310547 -21.81599998474121,-23.683000564575195 -16.121999740600586,-26.53700065612793 C-12.942999839782715,-29.8439998626709 -11.13700008392334,-30.66699981689453 -10.602999687194824,-35.7869987487793z"></path></g><g opacity="0.4" transform="matrix(1,0,0,1,64.7959976196289,141.9080047607422)"><path fill="rgb(168,241,251)" fill-opacity="1" d=" M-27.42300033569336,-57.61899948120117 C-35.79199981689453,-58.49700164794922 -43.358001708984375,-51.707000732421875 -44.321998596191406,-42.45199966430664 C-45.2859992980957,-33.196998596191406 -38.91899871826172,-28.66200065612793 -30.549999237060547,-27.784000396728516 C-22.180999755859375,-26.9060001373291 -14.979999542236328,-30.017000198364258 -14.015999794006348,-39.27199935913086 C-13.052000045776367,-48.5260009765625 -19.054000854492188,-56.74100112915039 -27.42300033569336,-57.61899948120117z"></path></g><g opacity="0.4" transform="matrix(1,0,0,1,65.40499877929688,144.72799682617188)"><path fill="rgb(168,241,251)" fill-opacity="1" d=" M-28.327999114990234,-54.4370002746582 C-34.52199935913086,-55.08700180053711 -40.12200164794922,-50.06100082397461 -40.83599853515625,-43.21099853515625 C-41.54999923706055,-36.361000061035156 -36.742000579833984,-33.96099853515625 -30.547000885009766,-33.31100082397461 C-24.35300064086914,-32.6609992980957 -19.118999481201172,-34.00699996948242 -18.405000686645508,-40.856998443603516 C-17.69099998474121,-47.707000732421875 -22.132999420166016,-53.7869987487793 -28.327999114990234,-54.4370002746582z"></path></g><g opacity="1" transform="matrix(1,0,0,1,64.53600311279297,148.68899536132812)"><path fill="rgb(168,241,251)" fill-opacity="1" d=" M-28.81999969482422,-50.630001068115234 C-32.209999084472656,-50.98500061035156 -35.275001525878906,-48.236000061035156 -35.665000915527344,-44.48699951171875 C-36.05500030517578,-40.737998962402344 -33.25899887084961,-41.090999603271484 -29.868999481201172,-40.73500061035156 C-26.479000091552734,-40.37900161743164 -23.7810001373291,-39.45100021362305 -23.389999389648438,-43.19900131225586 C-22.999000549316406,-46.946998596191406 -25.43000030517578,-50.275001525878906 -28.81999969482422,-50.630001068115234z"></path></g><g opacity="0.55" transform="matrix(1,0,0,1,65.93099975585938,80.60299682617188)"><path fill="rgb(255,255,255)" fill-opacity="1" d=" M-42.25,-2.8989999294281006 C-43.1870002746582,5.005000114440918 -36.770999908447266,12.267999649047852 -28.697999954223633,13.22700023651123 C-20.624000549316406,14.185999870300293 -12.685999870300293,8.633000373840332 -11.74899959564209,0.7289999723434448 C-10.954000473022461,-5.979000091552734 -18.48699951171875,-35.959999084472656 -20.785999298095703,-44.882999420166016 C-21.014999389648438,-45.770999908447266 -22.238000869750977,-45.91699981689453 -22.670000076293945,-45.10900115966797 C-27.020000457763672,-36.97999954223633 -41.45500183105469,-9.607000350952148 -42.25,-2.8989999294281006z"></path></g><g opacity="1" transform="matrix(1,0,0,1,65.99700164794922,95.37100219726562)"><path stroke-linecap="round" stroke-linejoin="round" fill-opacity="0" stroke="rgb(28,108,190)" stroke-opacity="1" stroke-width="8.697" d=" M-53.981998443603516,-8.947999954223633 C-55.683998107910156,4.961999893188477 -45.44900131225586,17.618000030517578 -31.235000610351562,19.30699920654297 C-17.020999908447266,20.996000289916992 -4.211999893188477,11.07699966430664 -2.509999990463257,-2.8329999446868896 C-0.5370000004768372,-18.954999923706055 -14.631999969482422,-51.9900016784668 -19.466999053955078,-62.729000091552734 C-20.187999725341797,-64.33100128173828 -22.3799991607666,-64.62100219726562 -23.489999771118164,-63.25899887084961 C-30.72599983215332,-54.38199996948242 -51.742000579833984,-27.25 -53.981998443603516,-8.947999954223633z"></path></g><g opacity="1" transform="matrix(1,0,0,1,86.58899688720703,87.2300033569336)"><path stroke-linecap="round" stroke-linejoin="round" fill-opacity="0" stroke="rgb(255,255,255)" stroke-opacity="1" stroke-width="6.523" d=" M-34.3390007019043,-17.954999923706055 C-34.3390007019043,-17.954999923706055 -34.18299865722656,-17.215999603271484 -34.18299865722656,-17.215999603271484"></path></g><g opacity="1" transform="matrix(1,0,0,1,82.4000015258789,74.70700073242188)"><path stroke-linecap="round" stroke-linejoin="round" fill-opacity="0" stroke="rgb(255,255,255)" stroke-opacity="1" stroke-width="6.523" d=" M-32.02899932861328,-14.357000350952148 C-32.02899932861328,-14.357000350952148 -31.242000579833984,-10.618000030517578 -31.242000579833984,-10.618000030517578"></path></g></g><g style="display: block;" transform="matrix(0,0,0,0,328.98370361328125,197.3078155517578)" opacity="1"><g opacity="1" transform="matrix(1,0,0,1,65.99700164794922,93.8759994506836)"><path fill="rgb(86,161,218)" fill-opacity="1" d=" M-53.983001708984375,-7.453000068664551 C-55.63399887084961,6.4629998207092285 -45.45000076293945,19.11199951171875 -31.236000061035156,20.801000595092773 C-17.02199935913086,22.489999771118164 -4.160999774932861,12.57699966430664 -2.509999990463257,-1.3389999866485596 C-0.859000027179718,-15.255000114440918 -21.055999755859375,-64.69100189208984 -21.055999755859375,-64.69100189208984 C-21.055999755859375,-64.69100189208984 -52.332000732421875,-21.368999481201172 -53.983001708984375,-7.453000068664551z"></path></g><g opacity="0.3" transform="matrix(1,0,0,1,65.08799743652344,133.01199340820312)"><path fill="rgb(168,241,251)" fill-opacity="1" d=" M-8.840999603271484,-27.575000762939453 C-8.840999603271484,-27.575000762939453 -8.838000297546387,-27.58099937438965 -8.838000297546387,-27.58099937438965 C-7.9079999923706055,-29.865999221801758 -7.642000198364258,-28.666000366210938 -7.369999885559082,-31.281999588012695 C-5.955999851226807,-44.869998931884766 -14.767000198364258,-56.92499923706055 -27.05500030517578,-58.21500015258789 C-35.071998596191406,-59.05699920654297 -42.571998596191406,-55.10499954223633 -47.21799850463867,-48.49100112915039 C-50.44499969482422,-42.321998596191406 -51.18299865722656,-38.76100158691406 -49.75899887084961,-32.3489990234375 C-49.75199890136719,-32.34600067138672 -49.755001068115234,-32.3390007019043 -49.757999420166016,-32.332000732421875 C-48.678001403808594,-30.187000274658203 -47.2239990234375,-28.211999893188477 -45.393001556396484,-26.437999725341797 C-43.340999603271484,-24.450000762939453 -40.78900146484375,-22.742000579833984 -37.70800018310547,-21.42300033569336 C-29.604999542236328,-17.95400047302246 -22.219999313354492,-19.55699920654297 -16.52400016784668,-22.406999588012695 C-13.404999732971191,-23.966999053955078 -10.788999557495117,-25.89699935913086 -8.840999603271484,-27.575000762939453z"></path></g><g opacity="0.4" transform="matrix(1,0,0,1,65.11699676513672,138.1009979248047)"><path fill="rgb(168,241,251)" fill-opacity="1" d=" M-10.602999687194824,-35.7869987487793 C-9.418000221252441,-47.1609992980957 -16.79199981689453,-57.25199890136719 -27.069000244140625,-58.33100128173828 C-37.35300064086914,-59.40999984741211 -46.64500045776367,-51.0620002746582 -47.83000183105469,-39.69499969482422 C-48.316001892089844,-35.034000396728516 -46.99700164794922,-34.266998291015625 -44.99100112915039,-30.566999435424805 C-42.939998626708984,-28.57900047302246 -40.387001037597656,-26.871000289916992 -37.30699920654297,-25.552000045776367 C-29.20400047302246,-22.08300018310547 -21.81599998474121,-23.683000564575195 -16.121999740600586,-26.53700065612793 C-12.942999839782715,-29.8439998626709 -11.13700008392334,-30.66699981689453 -10.602999687194824,-35.7869987487793z"></path></g><g opacity="0.4" transform="matrix(1,0,0,1,64.7959976196289,141.9080047607422)"><path fill="rgb(168,241,251)" fill-opacity="1" d=" M-27.42300033569336,-57.61899948120117 C-35.79199981689453,-58.49700164794922 -43.358001708984375,-51.707000732421875 -44.321998596191406,-42.45199966430664 C-45.2859992980957,-33.196998596191406 -38.91899871826172,-28.66200065612793 -30.549999237060547,-27.784000396728516 C-22.180999755859375,-26.9060001373291 -14.979999542236328,-30.017000198364258 -14.015999794006348,-39.27199935913086 C-13.052000045776367,-48.5260009765625 -19.054000854492188,-56.74100112915039 -27.42300033569336,-57.61899948120117z"></path></g><g opacity="0.4" transform="matrix(1,0,0,1,65.40499877929688,144.72799682617188)"><path fill="rgb(168,241,251)" fill-opacity="1" d=" M-28.327999114990234,-54.4370002746582 C-34.52199935913086,-55.08700180053711 -40.12200164794922,-50.06100082397461 -40.83599853515625,-43.21099853515625 C-41.54999923706055,-36.361000061035156 -36.742000579833984,-33.96099853515625 -30.547000885009766,-33.31100082397461 C-24.35300064086914,-32.6609992980957 -19.118999481201172,-34.00699996948242 -18.405000686645508,-40.856998443603516 C-17.69099998474121,-47.707000732421875 -22.132999420166016,-53.7869987487793 -28.327999114990234,-54.4370002746582z"></path></g><g opacity="1" transform="matrix(1,0,0,1,64.53600311279297,148.68899536132812)"><path fill="rgb(168,241,251)" fill-opacity="1" d=" M-28.81999969482422,-50.630001068115234 C-32.209999084472656,-50.98500061035156 -35.275001525878906,-48.236000061035156 -35.665000915527344,-44.48699951171875 C-36.05500030517578,-40.737998962402344 -33.25899887084961,-41.090999603271484 -29.868999481201172,-40.73500061035156 C-26.479000091552734,-40.37900161743164 -23.7810001373291,-39.45100021362305 -23.389999389648438,-43.19900131225586 C-22.999000549316406,-46.946998596191406 -25.43000030517578,-50.275001525878906 -28.81999969482422,-50.630001068115234z"></path></g><g opacity="0.55" transform="matrix(1,0,0,1,65.93099975585938,80.60299682617188)"><path fill="rgb(255,255,255)" fill-opacity="1" d=" M-42.25,-2.8989999294281006 C-43.1870002746582,5.005000114440918 -36.770999908447266,12.267999649047852 -28.697999954223633,13.22700023651123 C-20.624000549316406,14.185999870300293 -12.685999870300293,8.633000373840332 -11.74899959564209,0.7289999723434448 C-10.954000473022461,-5.979000091552734 -18.48699951171875,-35.959999084472656 -20.785999298095703,-44.882999420166016 C-21.014999389648438,-45.770999908447266 -22.238000869750977,-45.91699981689453 -22.670000076293945,-45.10900115966797 C-27.020000457763672,-36.97999954223633 -41.45500183105469,-9.607000350952148 -42.25,-2.8989999294281006z"></path></g><g opacity="1" transform="matrix(1,0,0,1,65.99700164794922,95.37100219726562)"><path stroke-linecap="round" stroke-linejoin="round" fill-opacity="0" stroke="rgb(28,108,190)" stroke-opacity="1" stroke-width="8.697" d=" M-53.981998443603516,-8.947999954223633 C-55.683998107910156,4.961999893188477 -45.44900131225586,17.618000030517578 -31.235000610351562,19.30699920654297 C-17.020999908447266,20.996000289916992 -4.211999893188477,11.07699966430664 -2.509999990463257,-2.8329999446868896 C-0.5370000004768372,-18.954999923706055 -14.631999969482422,-51.9900016784668 -19.466999053955078,-62.729000091552734 C-20.187999725341797,-64.33100128173828 -22.3799991607666,-64.62100219726562 -23.489999771118164,-63.25899887084961 C-30.72599983215332,-54.38199996948242 -51.742000579833984,-27.25 -53.981998443603516,-8.947999954223633z"></path></g><g opacity="1" transform="matrix(1,0,0,1,86.58899688720703,87.2300033569336)"><path stroke-linecap="round" stroke-linejoin="round" fill-opacity="0" stroke="rgb(255,255,255)" stroke-opacity="1" stroke-width="6.523" d=" M-34.3390007019043,-17.954999923706055 C-34.3390007019043,-17.954999923706055 -34.18299865722656,-17.215999603271484 -34.18299865722656,-17.215999603271484"></path></g><g opacity="1" transform="matrix(1,0,0,1,82.4000015258789,74.70700073242188)"><path stroke-linecap="round" stroke-linejoin="round" fill-opacity="0" stroke="rgb(255,255,255)" stroke-opacity="1" stroke-width="6.523" d=" M-32.02899932861328,-14.357000350952148 C-32.02899932861328,-14.357000350952148 -31.242000579833984,-10.618000030517578 -31.242000579833984,-10.618000030517578"></path></g></g><g style="display: block;" transform="matrix(0,0,0,0,122.72854614257812,316.5257873535156)" opacity="1"><g opacity="1" transform="matrix(1,0,0,1,65.99700164794922,93.8759994506836)"><path fill="rgb(86,161,218)" fill-opacity="1" d=" M-53.983001708984375,-7.453000068664551 C-55.63399887084961,6.4629998207092285 -45.45000076293945,19.11199951171875 -31.236000061035156,20.801000595092773 C-17.02199935913086,22.489999771118164 -4.160999774932861,12.57699966430664 -2.509999990463257,-1.3389999866485596 C-0.859000027179718,-15.255000114440918 -21.055999755859375,-64.69100189208984 -21.055999755859375,-64.69100189208984 C-21.055999755859375,-64.69100189208984 -52.332000732421875,-21.368999481201172 -53.983001708984375,-7.453000068664551z"></path></g><g opacity="0.3" transform="matrix(1,0,0,1,65.08799743652344,133.01199340820312)"><path fill="rgb(168,241,251)" fill-opacity="1" d=" M-8.840999603271484,-27.575000762939453 C-8.840999603271484,-27.575000762939453 -8.838000297546387,-27.58099937438965 -8.838000297546387,-27.58099937438965 C-7.9079999923706055,-29.865999221801758 -7.642000198364258,-28.666000366210938 -7.369999885559082,-31.281999588012695 C-5.955999851226807,-44.869998931884766 -14.767000198364258,-56.92499923706055 -27.05500030517578,-58.21500015258789 C-35.071998596191406,-59.05699920654297 -42.571998596191406,-55.10499954223633 -47.21799850463867,-48.49100112915039 C-50.44499969482422,-42.321998596191406 -51.18299865722656,-38.76100158691406 -49.75899887084961,-32.3489990234375 C-49.75199890136719,-32.34600067138672 -49.755001068115234,-32.3390007019043 -49.757999420166016,-32.332000732421875 C-48.678001403808594,-30.187000274658203 -47.2239990234375,-28.211999893188477 -45.393001556396484,-26.437999725341797 C-43.340999603271484,-24.450000762939453 -40.78900146484375,-22.742000579833984 -37.70800018310547,-21.42300033569336 C-29.604999542236328,-17.95400047302246 -22.219999313354492,-19.55699920654297 -16.52400016784668,-22.406999588012695 C-13.404999732971191,-23.966999053955078 -10.788999557495117,-25.89699935913086 -8.840999603271484,-27.575000762939453z"></path></g><g opacity="0.4" transform="matrix(1,0,0,1,65.11699676513672,138.1009979248047)"><path fill="rgb(168,241,251)" fill-opacity="1" d=" M-10.602999687194824,-35.7869987487793 C-9.418000221252441,-47.1609992980957 -16.79199981689453,-57.25199890136719 -27.069000244140625,-58.33100128173828 C-37.35300064086914,-59.40999984741211 -46.64500045776367,-51.0620002746582 -47.83000183105469,-39.69499969482422 C-48.316001892089844,-35.034000396728516 -46.99700164794922,-34.266998291015625 -44.99100112915039,-30.566999435424805 C-42.939998626708984,-28.57900047302246 -40.387001037597656,-26.871000289916992 -37.30699920654297,-25.552000045776367 C-29.20400047302246,-22.08300018310547 -21.81599998474121,-23.683000564575195 -16.121999740600586,-26.53700065612793 C-12.942999839782715,-29.8439998626709 -11.13700008392334,-30.66699981689453 -10.602999687194824,-35.7869987487793z"></path></g><g opacity="0.4" transform="matrix(1,0,0,1,64.7959976196289,141.9080047607422)"><path fill="rgb(168,241,251)" fill-opacity="1" d=" M-27.42300033569336,-57.61899948120117 C-35.79199981689453,-58.49700164794922 -43.358001708984375,-51.707000732421875 -44.321998596191406,-42.45199966430664 C-45.2859992980957,-33.196998596191406 -38.91899871826172,-28.66200065612793 -30.549999237060547,-27.784000396728516 C-22.180999755859375,-26.9060001373291 -14.979999542236328,-30.017000198364258 -14.015999794006348,-39.27199935913086 C-13.052000045776367,-48.5260009765625 -19.054000854492188,-56.74100112915039 -27.42300033569336,-57.61899948120117z"></path></g><g opacity="0.4" transform="matrix(1,0,0,1,65.40499877929688,144.72799682617188)"><path fill="rgb(168,241,251)" fill-opacity="1" d=" M-28.327999114990234,-54.4370002746582 C-34.52199935913086,-55.08700180053711 -40.12200164794922,-50.06100082397461 -40.83599853515625,-43.21099853515625 C-41.54999923706055,-36.361000061035156 -36.742000579833984,-33.96099853515625 -30.547000885009766,-33.31100082397461 C-24.35300064086914,-32.6609992980957 -19.118999481201172,-34.00699996948242 -18.405000686645508,-40.856998443603516 C-17.69099998474121,-47.707000732421875 -22.132999420166016,-53.7869987487793 -28.327999114990234,-54.4370002746582z"></path></g><g opacity="1" transform="matrix(1,0,0,1,64.53600311279297,148.68899536132812)"><path fill="rgb(168,241,251)" fill-opacity="1" d=" M-28.81999969482422,-50.630001068115234 C-32.209999084472656,-50.98500061035156 -35.275001525878906,-48.236000061035156 -35.665000915527344,-44.48699951171875 C-36.05500030517578,-40.737998962402344 -33.25899887084961,-41.090999603271484 -29.868999481201172,-40.73500061035156 C-26.479000091552734,-40.37900161743164 -23.7810001373291,-39.45100021362305 -23.389999389648438,-43.19900131225586 C-22.999000549316406,-46.946998596191406 -25.43000030517578,-50.275001525878906 -28.81999969482422,-50.630001068115234z"></path></g><g opacity="0.55" transform="matrix(1,0,0,1,65.93099975585938,80.60299682617188)"><path fill="rgb(255,255,255)" fill-opacity="1" d=" M-42.25,-2.8989999294281006 C-43.1870002746582,5.005000114440918 -36.770999908447266,12.267999649047852 -28.697999954223633,13.22700023651123 C-20.624000549316406,14.185999870300293 -12.685999870300293,8.633000373840332 -11.74899959564209,0.7289999723434448 C-10.954000473022461,-5.979000091552734 -18.48699951171875,-35.959999084472656 -20.785999298095703,-44.882999420166016 C-21.014999389648438,-45.770999908447266 -22.238000869750977,-45.91699981689453 -22.670000076293945,-45.10900115966797 C-27.020000457763672,-36.97999954223633 -41.45500183105469,-9.607000350952148 -42.25,-2.8989999294281006z"></path></g><g opacity="1" transform="matrix(1,0,0,1,65.99700164794922,95.37100219726562)"><path stroke-linecap="round" stroke-linejoin="round" fill-opacity="0" stroke="rgb(28,108,190)" stroke-opacity="1" stroke-width="8.697" d=" M-53.981998443603516,-8.947999954223633 C-55.683998107910156,4.961999893188477 -45.44900131225586,17.618000030517578 -31.235000610351562,19.30699920654297 C-17.020999908447266,20.996000289916992 -4.211999893188477,11.07699966430664 -2.509999990463257,-2.8329999446868896 C-0.5370000004768372,-18.954999923706055 -14.631999969482422,-51.9900016784668 -19.466999053955078,-62.729000091552734 C-20.187999725341797,-64.33100128173828 -22.3799991607666,-64.62100219726562 -23.489999771118164,-63.25899887084961 C-30.72599983215332,-54.38199996948242 -51.742000579833984,-27.25 -53.981998443603516,-8.947999954223633z"></path></g><g opacity="1" transform="matrix(1,0,0,1,86.58899688720703,87.2300033569336)"><path stroke-linecap="round" stroke-linejoin="round" fill-opacity="0" stroke="rgb(255,255,255)" stroke-opacity="1" stroke-width="6.523" d=" M-34.3390007019043,-17.954999923706055 C-34.3390007019043,-17.954999923706055 -34.18299865722656,-17.215999603271484 -34.18299865722656,-17.215999603271484"></path></g><g opacity="1" transform="matrix(1,0,0,1,82.4000015258789,74.70700073242188)"><path stroke-linecap="round" stroke-linejoin="round" fill-opacity="0" stroke="rgb(255,255,255)" stroke-opacity="1" stroke-width="6.523" d=" M-32.02899932861328,-14.357000350952148 C-32.02899932861328,-14.357000350952148 -31.242000579833984,-10.618000030517578 -31.242000579833984,-10.618000030517578"></path></g></g><g style="display: none;"><g><path></path></g><g><path></path></g><g><path></path></g><g><path></path></g><g><path></path></g><g><path></path></g><g><path></path></g><g><path stroke-linecap="round" stroke-linejoin="round" fill-opacity="0"></path></g><g><path stroke-linecap="round" stroke-linejoin="round" fill-opacity="0"></path></g><g><path stroke-linecap="round" stroke-linejoin="round" fill-opacity="0"></path></g></g><g style="display: none;"><g><path></path></g><g><path></path></g><g><path></path></g><g><path></path></g><g><path></path></g><g><path></path></g><g><path></path></g><g><path stroke-linecap="round" stroke-linejoin="round" fill-opacity="0"></path></g><g><path stroke-linecap="round" stroke-linejoin="round" fill-opacity="0"></path></g><g><path stroke-linecap="round" stroke-linejoin="round" fill-opacity="0"></path></g></g><g style="display: none;"><g><path></path></g><g><path></path></g><g><path></path></g><g><path></path></g><g><path></path></g><g><path></path></g><g><path></path></g><g><path stroke-linecap="round" stroke-linejoin="round" fill-opacity="0"></path></g><g><path stroke-linecap="round" stroke-linejoin="round" fill-opacity="0"></path></g><g><path stroke-linecap="round" stroke-linejoin="round" fill-opacity="0"></path></g></g><g style="display: none;"><g><path></path></g><g><path></path></g><g><path></path></g><g><path></path></g><g><path></path></g><g><path></path></g><g><path></path></g><g><path stroke-linecap="round" stroke-linejoin="round" fill-opacity="0"></path></g><g><path stroke-linecap="round" stroke-linejoin="round" fill-opacity="0"></path></g><g><path stroke-linecap="round" stroke-linejoin="round" fill-opacity="0"></path></g></g><g style="display: block;" transform="matrix(0.8716675043106079,-0.49009761214256287,0.49009761214256287,0.8716675043106079,81.1671142578125,225.85667419433594)" opacity="1"><g opacity="1" transform="matrix(1,0,0,1,0,0)"><g opacity="1" transform="matrix(1,0,0,1,180.38699340820312,53.39699935913086)"><path fill="rgb(255,237,188)" fill-opacity="1" d=" M-43.051998138427734,2.7760000228881836 C-43.137001037597656,-13.010000228881836 -21.385000228881836,-17.260000228881836 0.5329999923706055,-27.889999389648438 C24.725000381469727,-39.62099838256836 43.137001037597656,-53.14699935913086 42.542999267578125,-41.71699905395508 C42.167999267578125,-34.52399826049805 -10.07699966430664,-7.223999977111816 -9.907999992370605,3.5980000495910645 C-9.753999710083008,13.505999565124512 37.57099914550781,43.262001037597656 31.667999267578125,52.380001068115234 C31.357999801635742,52.856998443603516 30.856000900268555,53.145999908447266 29.878999710083008,53.11000061035156 C18.451000213623047,52.69300079345703 -42.96900177001953,18.077999114990234 -43.051998138427734,2.7760000228881836z"></path></g><g opacity="1" transform="matrix(1,0,0,1,180.13600158691406,53.547000885009766)"><path fill="rgb(133,62,19)" fill-opacity="1" d=" M-41.823001861572266,-1.3799999952316284 C-41.87699890136719,-11.329999923706055 -21.1560001373291,-21.40999984741211 0.7620000243186951,-32.03900146484375 C24.95400047302246,-43.770999908447266 41.71799850463867,-48.994998931884766 41.777000427246094,-44.861000061035156 C41.87699890136719,-37.659000396728516 -9.847000122070312,-11.373000144958496 -9.678000450134277,-0.5519999861717224 C-9.52400016784668,9.357000350952148 34.08399963378906,42.13199996948242 31.89699935913086,48.22999954223633 C31.70400047302246,48.76499938964844 31.084999084472656,48.99599838256836 30.107999801635742,48.959999084472656 C18.68000030517578,48.54399871826172 -41.75299835205078,11.689000129699707 -41.823001861572266,-1.3799999952316284z"></path></g><g opacity="1" transform="matrix(1,0,0,1,180.09300231933594,30.878999710083008)"><path fill="rgb(107,31,0)" fill-opacity="1" d=" M41.81800079345703,-22.190000534057617 C41.83300018310547,-21.280000686645508 41.00899887084961,-20.05500030517578 39.55699920654297,-18.586999893188477 C34.17599868774414,-18.757999420166016 19.77400016784668,-13.562000274658203 0.8339999914169312,-4.369999885559082 C-21.09000015258789,6.258999824523926 -39.805999755859375,16.33099937438965 -39.75199890136719,26.280000686645508 C-39.75199890136719,26.280000686645508 -39.75199890136719,26.32900047302246 -39.75199890136719,26.32900047302246 C-41.051998138427734,24.416000366210938 -41.770999908447266,22.709999084472656 -41.77899932861328,21.290000915527344 C-41.832000732421875,11.34000015258789 -21.118000030517578,1.2599999904632568 0.8050000071525574,-9.368000030517578 C24.993000030517578,-21.099000930786133 41.76599884033203,-26.329999923706055 41.81800079345703,-22.190000534057617z"></path></g><g opacity="1" transform="matrix(1,0,0,1,191.33900451660156,75.7979965209961)"><path fill="rgb(107,31,0)" fill-opacity="1" d=" M20.691999435424805,25.97599983215332 C20.5049991607666,26.506999969482422 19.88599967956543,26.739999771118164 18.9060001373291,26.704999923706055 C10.414999961853027,15.361000061035156 -22.81800079345703,-11.3100004196167 -22.864999771118164,-19.791000366210938 C-22.878999710083008,-22.51099967956543 -22.158000946044922,-24.104000091552734 -19.291000366210938,-26.739999771118164 C-20.323999404907227,-25.284000396728516 -20.898000717163086,-23.951000213623047 -20.881000518798828,-22.801000595092773 C-20.72800064086914,-12.892000198364258 22.8799991607666,19.884000778198242 20.691999435424805,25.97599983215332z"></path></g></g><g opacity="1" transform="matrix(1,0,0,1,0,0)"><g opacity="1" transform="matrix(1,0,0,1,43.685001373291016,54.52799987792969)"><path fill="rgb(255,237,188)" fill-opacity="1" d=" M43.35200119018555,1.9149999618530273 C43.266998291015625,-13.871000289916992 21.472000122070312,-17.88599967956543 -0.5600000023841858,-28.27899932861328 C-24.87700080871582,-39.75 -43.435001373291016,-53.07699966430664 -42.715999603271484,-41.65399932861328 C-42.26499938964844,-34.46500015258789 10.270999908447266,-7.730000019073486 10.218999862670898,3.0929999351501465 C10.170999526977539,13.003000259399414 -36.83100128173828,43.266998291015625 -30.829999923706055,52.31999969482422 C-30.516000747680664,52.79399871826172 -30.01099967956543,53.077999114990234 -29.034000396728516,53.03200149536133 C-17.611000061035156,52.492000579833984 43.435001373291016,17.216999053955078 43.35200119018555,1.9149999618530273z"></path></g><g opacity="1" transform="matrix(1,0,0,1,44.00699996948242,54.66899871826172)"><path fill="rgb(133,62,19)" fill-opacity="1" d=" M42.007999420166016,-2.2209999561309814 C41.95500183105469,-12.170999526977539 21.12700080871582,-22.027999877929688 -0.9039999842643738,-32.41999816894531 C-25.22100067138672,-43.89099884033203 -42.04100036621094,-48.935001373291016 -42.05500030517578,-44.80099868774414 C-42.077999114990234,-37.59700012207031 9.927000045776367,-11.871000289916992 9.875,-1.0479999780654907 C9.82699966430664,8.862000465393066 -33.428001403808594,42.10499954223633 -31.173999786376953,48.17900085449219 C-30.97599983215332,48.71200180053711 -30.354999542236328,48.93600082397461 -29.378000259399414,48.88999938964844 C-17.954999923706055,48.35100173950195 42.077999114990234,10.847999572753906 42.007999420166016,-2.2209999561309814z"></path></g><g opacity="1" transform="matrix(1,0,0,1,43.986000061035156,31.621999740600586)"><path fill="rgb(107,31,0)" fill-opacity="1" d=" M-42.03099822998047,-21.75 C-42.0359992980957,-20.84000015258789 -41.19900131225586,-19.624000549316406 -39.731998443603516,-18.172000885009766 C-34.35300064086914,-18.400999069213867 -19.895999908447266,-13.359000205993652 -0.8569999933242798,-4.370999813079834 C21.179000854492188,6.020999908447266 40.00199890136719,15.890000343322754 40.055999755859375,25.839000701904297 C40.055999755859375,25.839000701904297 40.055999755859375,25.889999389648438 40.055999755859375,25.889999389648438 C41.33599853515625,23.961999893188477 42.0359992980957,22.249000549316406 42.02899932861328,20.82900047302246 C41.974998474121094,10.878999710083008 21.152999877929688,1.0210000276565552 -0.8840000033378601,-9.371000289916992 C-25.195999145507812,-20.84000015258789 -42.02299880981445,-25.889999389648438 -42.03099822998047,-21.75z"></path></g><g opacity="1" transform="matrix(1,0,0,1,33.262001037597656,76.6510009765625)"><path fill="rgb(107,31,0)" fill-opacity="1" d=" M-20.426000595092773,26.19300079345703 C-20.233999252319336,26.722000122070312 -19.61199951171875,26.950000762939453 -18.632999420166016,26.90399932861328 C-10.262999534606934,15.468999862670898 22.68000030517578,-11.559000015258789 22.63599967956543,-20.038999557495117 C22.621000289916992,-22.760000228881836 21.882999420166016,-24.3439998626709 18.988000869750977,-26.948999404907227 C20.035999298095703,-25.503999710083008 20.62299919128418,-24.179000854492188 20.618999481201172,-23.02899932861328 C20.572999954223633,-13.118000030517578 -22.679000854492188,20.125 -20.426000595092773,26.19300079345703z"></path></g></g></g><g style="display: none;"><g><g><path></path></g><g><path></path></g><g><path></path></g><g><path></path></g></g><g><g><path></path></g><g><path></path></g><g><path></path></g><g><path></path></g></g></g></g></svg>