<svg xmlns="http://www.w3.org/2000/svg" viewBox="0 0 512 512" width="512" height="512" style="width: 100%; height: 100%; transform: translate3d(0,0,0);" preserveAspectRatio="xMidYMid meet"><defs><clipPath id="__lottie_element_22030"><rect width="512" height="512" x="0" y="0"></rect></clipPath><linearGradient id="__lottie_element_22035" spreadMethod="pad" gradientUnits="userSpaceOnUse"><stop></stop><stop></stop><stop></stop><stop></stop><stop></stop><stop></stop><stop></stop></linearGradient><linearGradient id="__lottie_element_22040" spreadMethod="pad" gradientUnits="userSpaceOnUse" x1="-147.322998046875" y1="-0.6399999856948853" x2="147.2050018310547" y2="-0.6399999856948853"><stop offset="15%" stop-color="rgb(207,206,197)"></stop><stop offset="35%" stop-color="rgb(224,224,216)"></stop><stop offset="61%" stop-color="rgb(242,242,235)"></stop><stop offset="84%" stop-color="rgb(215,214,203)"></stop><stop offset="100%" stop-color="rgb(188,186,171)"></stop></linearGradient><linearGradient id="__lottie_element_22041" spreadMethod="pad" gradientUnits="userSpaceOnUse" x1="-147.322998046875" y1="-0.6399999856948853" x2="147.2050018310547" y2="-0.6399999856948853"><stop offset="15%" stop-color="rgb(172,169,160)"></stop><stop offset="35%" stop-color="rgb(207,206,198)"></stop><stop offset="61%" stop-color="rgb(242,242,235)"></stop><stop offset="84%" stop-color="rgb(215,214,203)"></stop><stop offset="100%" stop-color="rgb(188,186,171)"></stop></linearGradient><linearGradient id="__lottie_element_22044" spreadMethod="pad" gradientUnits="userSpaceOnUse"><stop></stop><stop></stop><stop></stop><stop></stop><stop></stop><stop></stop><stop></stop></linearGradient><linearGradient id="__lottie_element_22045" spreadMethod="pad" gradientUnits="userSpaceOnUse"><stop></stop><stop></stop><stop></stop></linearGradient><linearGradient id="__lottie_element_22049" spreadMethod="pad" gradientUnits="userSpaceOnUse" x1="-90.91600036621094" y1="-0.8429999947547913" x2="64.06700134277344" y2="-0.8429999947547913"><stop offset="0%" stop-color="rgb(184,180,170)"></stop><stop offset="12%" stop-color="rgb(170,167,158)"></stop><stop offset="28%" stop-color="rgb(155,153,145)"></stop><stop offset="36%" stop-color="rgb(160,159,150)"></stop><stop offset="42%" stop-color="rgb(166,164,156)"></stop><stop offset="61%" stop-color="rgb(186,186,175)"></stop><stop offset="86%" stop-color="rgb(207,208,194)"></stop></linearGradient><linearGradient id="__lottie_element_22050" spreadMethod="pad" gradientUnits="userSpaceOnUse" x1="-0.9959999918937683" y1="-87.30899810791016" x2="-0.9959999918937683" y2="52.784000396728516"><stop offset="0%" stop-color="rgb(127,123,114)" stop-opacity="1"></stop><stop offset="43%" stop-color="rgb(128,124,116)" stop-opacity="0.574999988079071"></stop><stop offset="100%" stop-color="rgb(128,126,118)" stop-opacity="0.15000000596046448"></stop></linearGradient><radialGradient id="__lottie_element_22054" spreadMethod="pad" gradientUnits="userSpaceOnUse" cx="-0.32600000500679016" cy="-0.017999999225139618" r="42.81100061535835" fx="-0.32600000500679016" fy="-0.017999999225139618"><stop offset="11%" stop-color="rgb(142,133,114)"></stop><stop offset="69%" stop-color="rgb(119,111,96)"></stop><stop offset="93%" stop-color="rgb(96,90,78)"></stop></radialGradient></defs><g clip-path="url(#__lottie_element_22030)"><g style="display: block;" transform="matrix(1,0,0,1,4,6.0189971923828125)" opacity="1"><g opacity="1" transform="matrix(1,0,0,1,109.62999725341797,387.5480041503906)"><path fill="rgb(236,236,228)" fill-opacity="1" d=" M-0.22200000286102295,-0.14499999582767487 C-0.06800000369548798,-0.04500000178813934 0.07800000160932541,0.05400000140070915 0.23199999332427979,0.14499999582767487 C0.07800000160932541,0.05400000140070915 -0.07800000160932541,-0.04500000178813934 -0.23199999332427979,-0.14499999582767487 C-0.23199999332427979,-0.14499999582767487 -0.22200000286102295,-0.14499999582767487 -0.22200000286102295,-0.14499999582767487z"></path></g><g opacity="1" transform="matrix(1,0,0,1,249.95599365234375,271.5870056152344)"><path fill="url(#__lottie_element_22040)" fill-opacity="1" d=" M147.26400756835938,-137.625 C147.26400756835938,-137.625 147.26400756835938,107.02999877929688 147.26400756835938,107.02999877929688 C147.26400756835938,111.40499877929688 142.26300048828125,115.6969985961914 133.322998046875,119.60900115966797 C114.71700286865234,127.75 79.02999877929688,134.28500366210938 35.763999938964844,136.6540069580078 C24.319000244140625,137.28900146484375 12.338000297546387,137.625 0.004000000189989805,137.625 C-16.187999725341797,137.625 -31.761999130249023,137.04400634765625 -46.32899856567383,135.98199462890625 C-46.393001556396484,135.97300720214844 -46.465999603271484,135.97300720214844 -46.52899932861328,135.96400451660156 C-46.57400131225586,135.96400451660156 -46.62900161743164,135.9550018310547 -46.67399978637695,135.9550018310547 C-54.18899917602539,135.41000366210938 -61.441001892089844,134.72999572753906 -68.35700225830078,133.94000244140625 C-68.36599731445312,133.94900512695312 -68.375,133.94000244140625 -68.38400268554688,133.94000244140625 C-96.73699951171875,130.70899963378906 -119.63600158691406,125.5989990234375 -133.31399536132812,119.60900115966797 C-133.4770050048828,119.0009994506836 -146.1300048828125,111.2490005493164 -146.1300048828125,110.64099884033203 C-146.1300048828125,110.64099884033203 -147.26400756835938,-137.625 -147.26400756835938,-137.625 C-147.26400756835938,-137.625 147.26400756835938,-137.625 147.26400756835938,-137.625z"></path></g><g opacity="0" transform="matrix(1,0,0,1,249.95599365234375,271.5870056152344)"><path fill="url(#__lottie_element_22041)" fill-opacity="1" d=" M147.26400756835938,-137.625 C147.26400756835938,-137.625 147.26400756835938,107.02999877929688 147.26400756835938,107.02999877929688 C147.26400756835938,111.40499877929688 142.26300048828125,115.6969985961914 133.322998046875,119.60900115966797 C114.71700286865234,127.75 79.02999877929688,134.28500366210938 35.763999938964844,136.6540069580078 C24.319000244140625,137.28900146484375 12.338000297546387,137.625 0.004000000189989805,137.625 C-16.187999725341797,137.625 -31.761999130249023,137.04400634765625 -46.32899856567383,135.98199462890625 C-46.393001556396484,135.97300720214844 -46.465999603271484,135.97300720214844 -46.52899932861328,135.96400451660156 C-46.57400131225586,135.96400451660156 -46.62900161743164,135.9550018310547 -46.67399978637695,135.9550018310547 C-54.18899917602539,135.41000366210938 -61.441001892089844,134.72999572753906 -68.35700225830078,133.94000244140625 C-68.36599731445312,133.94900512695312 -68.375,133.94000244140625 -68.38400268554688,133.94000244140625 C-96.73699951171875,130.70899963378906 -119.63600158691406,125.5989990234375 -133.31399536132812,119.60900115966797 C-133.4770050048828,119.0009994506836 -146.1300048828125,111.2490005493164 -146.1300048828125,110.64099884033203 C-146.1300048828125,110.64099884033203 -147.26400756835938,-137.625 -147.26400756835938,-137.625 C-147.26400756835938,-137.625 147.26400756835938,-137.625 147.26400756835938,-137.625z"></path></g><g opacity="0.5" transform="matrix(1,0,0,1,109.39900207519531,262.5790100097656)"><path fill="rgb(236,236,228)" fill-opacity="1" d=" M-6.96999979019165,-128.61700439453125 C-6.96999979019165,-128.61700439453125 -7.438000202178955,78.61100006103516 -7.438000202178955,78.61100006103516 C-9.428000450134277,84.98500061035156 -4.361999988555908,123.15899658203125 7.665999889373779,127.38300323486328 C7.502999782562256,126.7750015258789 7.923999786376953,129.73300170898438 7.923999786376953,129.125 C7.923999786376953,129.125 7.230000019073486,-126.37699890136719 7.230000019073486,-126.37699890136719 C7.230000019073486,-126.37699890136719 -6.96999979019165,-128.61700439453125 -6.96999979019165,-128.61700439453125z"></path></g><g opacity="0.5" transform="matrix(1,0,0,1,390.2489929199219,262.5790100097656)"><path fill="rgb(236,236,228)" fill-opacity="1" d=" M6.96999979019165,-128.61700439453125 C6.96999979019165,-128.61700439453125 6.96999979019165,116.03800201416016 6.96999979019165,116.03800201416016 C6.96999979019165,120.41300201416016 1.9700000286102295,124.70500183105469 -6.96999979019165,128.61700439453125 C-6.806000232696533,128.00900268554688 -6.724999904632568,127.39199829101562 -6.724999904632568,126.78399658203125 C-6.724999904632568,126.78399658203125 -6.724999904632568,-128.61700439453125 -6.724999904632568,-128.61700439453125 C-6.724999904632568,-128.61700439453125 6.96999979019165,-128.61700439453125 6.96999979019165,-128.61700439453125z"></path></g><g opacity="1" transform="matrix(1,0,0,1,249.95899963378906,271.5889892578125)"><path stroke-linecap="round" stroke-linejoin="round" fill-opacity="0" stroke="rgb(153,149,135)" stroke-opacity="1" stroke-width="8" d=" M-147.26499938964844,-137.6230010986328 C-147.26499938964844,-137.6230010986328 -147.26499938964844,107.03199768066406 -147.26499938964844,107.03199768066406 C-147.26499938964844,122.92500305175781 -81.33200073242188,137.6230010986328 0,137.6230010986328 C81.33200073242188,137.6230010986328 147.26499938964844,122.92500305175781 147.26499938964844,107.03199768066406 C147.26499938964844,107.03199768066406 147.26499938964844,-137.6230010986328 147.26499938964844,-137.6230010986328 C147.26499938964844,-137.6230010986328 -147.26499938964844,-137.6230010986328 -147.26499938964844,-137.6230010986328z"></path></g><g opacity="0.7000000000000001" transform="matrix(1,0,0,1,348.8399963378906,276.2170104980469)"><path stroke-linecap="round" stroke-linejoin="round" fill-opacity="0" stroke-dasharray=" 12 15" stroke-dashoffset="0" stroke="rgb(153,149,135)" stroke-opacity="1" stroke-width="5" d=" M0,-124.7239990234375 C0,-124.7239990234375 0,124.7239990234375 0,124.7239990234375"></path></g></g><g style="display: block;" transform="matrix(1,0,0,1,4,6.0189971923828125)" opacity="1"><g opacity="1" transform="matrix(1,0,0,1,249.95899963378906,133.96600341796875)"><path fill="rgb(249,248,244)" fill-opacity="1" d=" M147.26499938964844,0 C147.26499938964844,13.062000274658203 81.33200073242188,23.652000427246094 0,23.652000427246094 C-81.33200073242188,23.652000427246094 -147.26499938964844,13.062000274658203 -147.26499938964844,0 C-147.26499938964844,-13.062999725341797 -81.33200073242188,-23.652000427246094 0,-23.652000427246094 C81.33200073242188,-23.652000427246094 147.26499938964844,-13.062999725341797 147.26499938964844,0z"></path></g><g opacity="1" transform="matrix(1,0,0,1,249.95599365234375,128.97000122070312)"><path fill="rgb(222,220,211)" fill-opacity="1" d=" M147.26400756835938,6.807000160217285 C147.26400756835938,10.392000198364258 142.3000030517578,13.795999526977539 133.40499877929688,16.844999313354492 C135.91000366210938,15.402000427246094 137.24400329589844,13.895999908447266 137.24400329589844,12.352999687194824 C137.24400329589844,1.8519999980926514 75.7979965209961,-7.568999767303467 0.004000000189989805,-7.568999767303467 C-75.79000091552734,-7.568999767303467 -137.23500061035156,1.8519999980926514 -137.23500061035156,12.352999687194824 C-137.23500061035156,13.904999732971191 -135.90199279785156,15.402000427246094 -133.38699340820312,16.844999313354492 C-142.29100036621094,13.795999526977539 -147.26400756835938,10.392000198364258 -147.26400756835938,6.807000160217285 C-147.26400756835938,-6.254000186920166 -81.3270034790039,-16.844999313354492 0.004000000189989805,-16.844999313354492 C81.33499908447266,-16.844999313354492 147.26400756835938,-6.254000186920166 147.26400756835938,6.807000160217285z"></path></g><g opacity="1" transform="matrix(1,0,0,1,249.95899963378906,133.96600341796875)"><path fill="url(#__lottie_element_22054)" fill-opacity="1" d=" M59.972999572753906,0 C59.972999572753906,4.580999851226807 33.12200164794922,8.295000076293945 0,8.295000076293945 C-33.12200164794922,8.295000076293945 -59.972999572753906,4.580999851226807 -59.972999572753906,0 C-59.972999572753906,-4.580999851226807 -33.12200164794922,-8.295000076293945 0,-8.295000076293945 C33.12200164794922,-8.295000076293945 59.972999572753906,-4.580999851226807 59.972999572753906,0z"></path></g><g opacity="1" transform="matrix(1,0,0,1,0,0)"><g opacity="1" transform="matrix(1,0,0,1,358.5299987792969,130.00399780273438)"><path stroke-linecap="round" stroke-linejoin="round" fill-opacity="0" stroke="rgb(255,255,255)" stroke-opacity="1" stroke-width="6" d=" M-2.1679999828338623,-0.5040000081062317 C-0.7720000147819519,-0.20000000298023224 0.6759999990463257,0.13500000536441803 2.1679999828338623,0.5040000081062317"></path></g><g opacity="1" transform="matrix(1,0,0,1,342.6940002441406,127.2760009765625)"><path stroke-linecap="round" stroke-linejoin="round" fill-opacity="0" stroke="rgb(255,255,255)" stroke-opacity="1" stroke-width="6" d=" M-5.7129998207092285,-0.6980000138282776 C-5.7129998207092285,-0.6980000138282776 -1.2960000038146973,-0.4620000123977661 5.7129998207092285,0.6980000138282776"></path></g></g><g opacity="1" transform="matrix(1,0,0,1,249.95899963378906,133.96600341796875)"><path stroke-linecap="butt" stroke-linejoin="round" fill-opacity="0" stroke="rgb(183,181,171)" stroke-opacity="1" stroke-width="8" d=" M147.26499938964844,0 C147.26499938964844,13.062000274658203 81.33200073242188,23.652000427246094 0,23.652000427246094 C-81.33200073242188,23.652000427246094 -147.26499938964844,13.062000274658203 -147.26499938964844,0 C-147.26499938964844,-13.062999725341797 -81.33200073242188,-23.652000427246094 0,-23.652000427246094 C81.33200073242188,-23.652000427246094 147.26499938964844,-13.062999725341797 147.26499938964844,0z"></path></g></g><g style="display: block;" transform="matrix(1,0,0,1,4,6.0189971923828125)" opacity="1"><g opacity="1" transform="matrix(1,0,0,1,200.56399536132812,287.4209899902344)"><path fill="rgb(243,242,239)" fill-opacity="1" d=" M87.84300231933594,140.197998046875 C86.9260025024414,133.3459930419922 86.03700256347656,126.9020004272461 85.15599822998047,120.82099914550781 C76.4520034790039,60.665000915527344 69.09200286865234,36.53099822998047 55.97700119018555,10.763999938964844 C41.54600143432617,-17.607999801635742 9.180999755859375,-36.03200149536133 9.180999755859375,-36.03200149536133 C14.163999557495117,-68.88700103759766 10.940999984741211,-84.27100372314453 -4.251999855041504,-99.74600219726562 C-16.868000030517578,-112.58899688720703 -28.14900016784668,-116.6729965209961 -61.50400161743164,-127.12899780273438 C-74.14700317382812,-131.09500122070312 -82.43399810791016,-135.83200073242188 -87.84300231933594,-140.18899536132812 C-87.84300231933594,-140.18899536132812 -87.84300231933594,-140.197998046875 -87.84300231933594,-140.197998046875 C-63.70000076293945,-125.25900268554688 -5.014999866485596,-124.31500244140625 27.667999267578125,-89.1449966430664 C62.275001525878906,-51.89699935913086 87.84300231933594,19.141000747680664 87.84300231933594,140.197998046875z"></path><path stroke-linecap="butt" stroke-linejoin="round" fill-opacity="0" stroke="rgb(183,181,171)" stroke-opacity="1" stroke-width="8" d=" M87.84300231933594,140.197998046875 C86.9260025024414,133.3459930419922 86.03700256347656,126.9020004272461 85.15599822998047,120.82099914550781 C76.4520034790039,60.665000915527344 69.09200286865234,36.53099822998047 55.97700119018555,10.763999938964844 C41.54600143432617,-17.607999801635742 9.180999755859375,-36.03200149536133 9.180999755859375,-36.03200149536133 C14.163999557495117,-68.88700103759766 10.940999984741211,-84.27100372314453 -4.251999855041504,-99.74600219726562 C-16.868000030517578,-112.58899688720703 -28.14900016784668,-116.6729965209961 -61.50400161743164,-127.12899780273438 C-74.14700317382812,-131.09500122070312 -82.43399810791016,-135.83200073242188 -87.84300231933594,-140.18899536132812 C-87.84300231933594,-140.18899536132812 -87.84300231933594,-140.197998046875 -87.84300231933594,-140.197998046875 C-63.70000076293945,-125.25900268554688 -5.014999866485596,-124.31500244140625 27.667999267578125,-89.1449966430664 C62.275001525878906,-51.89699935913086 87.84300231933594,19.141000747680664 87.84300231933594,140.197998046875z"></path></g><g opacity="1" transform="matrix(1,0,0,1,195.5489959716797,280.7909851074219)"><path fill="url(#__lottie_element_22049)" fill-opacity="1" d=" M92.85700225830078,146.8280029296875 C92.85700225830078,146.8280029296875 62.29800033569336,131.7259979248047 7.877999782562256,126.76100158691406 C7.833000183105469,126.76100158691406 -7.189000129699707,125.40899658203125 -13.949999809265137,124.73699951171875 C-13.958999633789062,124.74600219726562 -67.9530029296875,118.11199951171875 -85.11599731445312,107.25700378417969 C-85.30699920654297,107.14800262451172 -92.48600006103516,103.31600189208984 -92.85700225830078,97.8270034790039 C-92.85700225830078,97.8270034790039 -92.85700225830078,-146.8280029296875 -92.85700225830078,-146.8280029296875 C-92.85700225830078,-146.8280029296875 -89.84500122070312,-130.9550018310547 -56.4900016784668,-120.4990005493164 C-23.135000228881836,-110.04299926757812 -11.854000091552734,-105.95899963378906 0.7620000243186951,-93.11599731445312 C15.954999923706055,-77.64099884033203 19.17799949645996,-62.25699996948242 14.194999694824219,-29.402000427246094 C14.194999694824219,-29.402000427246094 46.560001373291016,-10.977999687194824 60.99100112915039,17.393999099731445 C74.10600280761719,43.1609992980957 81.46700286865234,67.29499816894531 90.1709976196289,127.45099639892578 C91.052001953125,133.53199768066406 91.94000244140625,139.9759979248047 92.85700225830078,146.8280029296875z"></path></g><g opacity="0.4" transform="matrix(1,0,0,1,213.62899780273438,293.2569885253906)"><path fill="url(#__lottie_element_22050)" fill-opacity="1" d=" M74.20600128173828,130.13299560546875 C54.54999923706055,0 -22.976999282836914,9.63599967956543 -20.847999572753906,-4.927999973297119 C-3.822000026702881,-121.38500213623047 -54.67100143432617,-116.64900207519531 -74.20600128173828,-130.13299560546875 C-74.20600128173828,-130.13299560546875 -29.886999130249023,-118.37899780273438 -17.316999435424805,-105.58200073242188 C-2.124000072479248,-90.10700225830078 1.0980000495910645,-74.7229995727539 -3.884999990463257,-41.86800003051758 C-3.884999990463257,-41.86800003051758 28.481000900268555,-23.444000244140625 42.9119987487793,4.927999973297119 C56.027000427246094,30.69499969482422 63.387001037597656,54.82899856567383 72.09100341796875,114.98500061035156 C72.79000091552734,119.79499816894531 73.40799713134766,124.85299682617188 74.20600128173828,130.13299560546875z"></path></g><g opacity="0" transform="matrix(1,0,0,1,0,0)"><path fill="rgb(243,242,239)" fill-opacity="1" d=" M169.5,231.3560028076172 C169.5,231.3560028076172 152.125,242.4810028076172 152.125,242.4810028076172 C152.125,242.4810028076172 171.5,254.7310028076172 171.5,254.7310028076172 C171.5,254.7310028076172 169.5,231.3560028076172 169.5,231.3560028076172z"></path></g><g opacity="0.5" transform="matrix(1,0,0,1,109.39900207519531,262.5790100097656)"><path fill="rgb(236,236,228)" fill-opacity="1" d=" M-6.96999979019165,-128.61700439453125 C-6.96999979019165,-128.61700439453125 -6.96999979019165,116.03800201416016 -6.96999979019165,116.03800201416016 C-6.96999979019165,120.41300201416016 -1.9700000286102295,124.70500183105469 6.96999979019165,128.61700439453125 C6.807000160217285,128.00900268554688 6.724999904632568,127.39199829101562 6.724999904632568,126.78399658203125 C6.724999904632568,126.78399658203125 6.724999904632568,-112.6520004272461 6.724999904632568,-112.6520004272461 C6.724999904632568,-112.6520004272461 -6.96999979019165,-128.61700439453125 -6.96999979019165,-128.61700439453125z"></path></g><g opacity="1" transform="matrix(1,0,0,1,195.5489959716797,280.7909851074219)"><path stroke-linecap="round" stroke-linejoin="round" fill-opacity="0" stroke="rgb(137,134,124)" stroke-opacity="1" stroke-width="8" d=" M92.85700225830078,146.8280029296875 C92.85700225830078,146.8280029296875 62.29800033569336,131.7259979248047 7.877999782562256,126.76100158691406 C7.833000183105469,126.76100158691406 -7.189000129699707,125.40899658203125 -13.949999809265137,124.73699951171875 C-13.958999633789062,124.74600219726562 -67.9530029296875,118.11199951171875 -85.11599731445312,107.25700378417969 C-85.30699920654297,107.14800262451172 -92.48600006103516,103.31600189208984 -92.85700225830078,97.8270034790039 C-92.85700225830078,97.8270034790039 -92.85700225830078,-146.8280029296875 -92.85700225830078,-146.8280029296875 C-92.85700225830078,-146.8280029296875 -89.84500122070312,-130.9550018310547 -56.4900016784668,-120.4990005493164 C-23.135000228881836,-110.04299926757812 -11.854000091552734,-105.95899963378906 0.7620000243186951,-93.11599731445312 C15.954999923706055,-77.64099884033203 19.17799949645996,-62.25699996948242 14.194999694824219,-29.402000427246094 C14.194999694824219,-29.402000427246094 46.560001373291016,-10.977999687194824 60.99100112915039,17.393999099731445 C74.10600280761719,43.1609992980957 81.46700286865234,67.29499816894531 90.1709976196289,127.45099639892578 C91.052001953125,133.53199768066406 91.94000244140625,139.9759979248047 92.85700225830078,146.8280029296875z"></path></g><g opacity="1" transform="matrix(1,0,0,1,105.4000015258789,127.69200134277344)"><path fill="rgb(137,136,131)" fill-opacity="1" d=" M1.3140000104904175,5.849999904632568 C1.3140000104904175,5.849999904632568 -1.7269999980926514,-2.2820000648498535 6.7220001220703125,-6.4029998779296875 C6.7220001220703125,-6.4029998779296875 0.46799999475479126,-4.191999912261963 -3.1589999198913574,-0.8510000109672546 C-6.785999774932861,2.490000009536743 -6.59499979019165,5.0980000495910645 -6.7220001220703125,6.4029998779296875 C-6.7220001220703125,6.4029998779296875 1.3140000104904175,5.849999904632568 1.3140000104904175,5.849999904632568z"></path></g></g><g style="display: none;"><g><path></path><path stroke-linecap="butt" stroke-linejoin="round" fill-opacity="0"></path></g><g><path fill="url(#__lottie_element_22044)"></path></g><g><path></path></g><g><path fill="url(#__lottie_element_22045)"></path></g><g><path stroke-linecap="round" stroke-linejoin="round" fill-opacity="0"></path></g><g><path></path></g></g><g style="display: none;"><g><path fill="url(#__lottie_element_22035)"></path><path stroke-linecap="round" stroke-linejoin="round" fill-opacity="0"></path></g></g></g></svg>