<svg xmlns="http://www.w3.org/2000/svg" viewBox="0 0 512 512" width="512" height="512" style="width: 100%; height: 100%; transform: translate3d(0,0,0);" preserveAspectRatio="xMidYMid meet"><defs><clipPath id="__lottie_element_22056"><rect width="512" height="512" x="0" y="0"></rect></clipPath></defs><g clip-path="url(#__lottie_element_22056)"><g style="display: block;" transform="matrix(0,-1,1,0,281.4909973144531,296.781005859375)" opacity="1"><g opacity="1" transform="matrix(1,0,0,1,0,0)"><path fill="rgb(255,209,64)" fill-opacity="1" d=" M-93.69300079345703,-68.26100158691406 C-81.55599975585938,-90.46399688720703 -32.71900177001953,-115.99099731445312 15.381999969482422,-101.43099975585938 C79.73600006103516,-107.70999908447266 104.89800262451172,-77.15799713134766 89.49400329589844,-49.48899841308594 C92.63500213623047,-41.33000183105469 102.74600219726562,-33.301998138427734 100.51699829101562,-17.94099998474121 C98.28800201416016,-2.5799999237060547 87.8499984741211,0.11599999666213989 88.35399627685547,6.574999809265137 C88.85800170898438,13.032999992370605 94.6259994506836,18.547000885009766 92.2750015258789,32.03300094604492 C89.77200317382812,46.400001525878906 78.37699890136719,53.810001373291016 78.37699890136719,53.810001373291016 C78.37699890136719,53.810001373291016 82.0739974975586,70.24299621582031 67.27899932861328,85.65299987792969 C61.17599868774414,92.01100158691406 50.28499984741211,97.50800323486328 33.775001525878906,100.3010025024414 C23.110000610351562,102.1050033569336 10.098999977111816,102.78099822998047 -5.480999946594238,101.83100128173828 C-42.48099899291992,99.57499694824219 -67.21499633789062,84.45500183105469 -80.98799896240234,84.31400299072266 C-99.10199737548828,74.1760025024414 -108.10199737548828,-42.65800094604492 -93.69300079345703,-68.26100158691406z"></path></g></g><g style="display: block;" transform="matrix(0,-1,1,0,154.6199951171875,289.3900146484375)" opacity="1"><g opacity="1" transform="matrix(1,0,0,1,0,0)"><path fill="rgb(255,209,64)" fill-opacity="1" d=" M-100.73999786376953,55.7130012512207 C-89.42500305175781,38.194000244140625 -84.19400024414062,18.961999893188477 -60.071998596191406,3.678999900817871 C-23.5310001373291,-19.472999572753906 2.5769999027252197,-15.661999702453613 28.131000518798828,-23.757999420166016 C56.88999938964844,-32.86899948120117 63.59600067138672,-47.10599899291992 76.51100158691406,-54.20000076293945 C82.82499694824219,-57.66899871826172 89.38400268554688,-54.89099884033203 94.08300018310547,-48.71699905395508 C101.81900024414062,-38.551998138427734 104.51200103759766,-19.179000854492188 92.76399993896484,-3.319000005722046 C81.71499633789062,11.597000122070312 57.61800003051758,20.59000015258789 31.176000595092773,23.361000061035156"></path></g></g><g style="display: block;" transform="matrix(0,-1,1,0,203.33401489257812,164.52000427246094)" opacity="1"><g opacity="1" transform="matrix(1,0,0,1,0,0)"><path fill="rgb(255,209,64)" fill-opacity="1" d=" M-17.027000427246094,-28.003999710083008 C-42.54499816894531,-27.798999786376953 -78.52799987792969,-26.93600082397461 -121.89099884033203,-22.843000411987305 C-121.89099884033203,-22.843000411987305 -43.529998779296875,28.666000366210938 -43.529998779296875,28.666000366210938 C-33.31999969482422,28.374000549316406 -3.0390000343322754,27.222999572753906 26.702999114990234,26.018999099731445 C55.446998596191406,24.854999542236328 83.68599700927734,23.641000747680664 92.82099914550781,23.10300064086914 C129.97000122070312,20.916000366210938 131.98199462890625,-23.38599967956543 92.98600006103516,-26.040000915527344 C73.97000122070312,-27.333999633789062 30.969999313354492,-28.333999633789062 11.920000076293945,-28.128000259399414 C4.8520002365112305,-28.052000045776367 -4.9070000648498535,-28.101999282836914 -17.027000427246094,-28.003999710083008z"></path></g></g><g style="display: block;" transform="matrix(1,0,0,1,239.39100646972656,333.57598876953125)" opacity="1"><g opacity="1" transform="matrix(1,0,0,1,0,0)"><path fill="rgb(255,177,57)" fill-opacity="1" d=" M137.7570037841797,105.7979965209961 C142.23500061035156,100.24400329589844 128.79800415039062,59.95600128173828 127.05899810791016,44.1870002746582 C125.14700317382812,26.847000122070312 147.10499572753906,-3.4790000915527344 141.56199645996094,-41.5260009765625 C137.76800537109375,-22.780000686645508 133.06900024414062,-7.89900016784668 126.21700286865234,5.236999988555908 C120.55599975585938,16.09000015258789 113.427001953125,25.75200080871582 104.1259994506836,35.41699981689453 C96.03900146484375,43.821998596191406 84.78900146484375,49.064998626708984 72.11499786376953,51.84199905395508 C58.52199935913086,54.81999969482422 43.29199981689453,54.959999084472656 28.56399917602539,53.11800003051758 C14.538999557495117,51.362998962402344 0.9700000286102295,47.81100082397461 -10.291000366210938,43.19900131225586 C-28.12299919128418,35.89400100708008 -45.180999755859375,26.847999572753906 -58.86899948120117,14.447999954223633 C-70.74400329589844,3.690000057220459 -80.08300018310547,-9.590999603271484 -85.18800354003906,-26.450000762939453 C-96.91500091552734,-65.177001953125 -93.65499877929688,-99.60800170898438 -115.16699981689453,-115.88200378417969 C-135.3090057373047,-131.11900329589844 -125.68499755859375,-142.14199829101562 -118.77200317382812,-143.2949981689453 C-152.23399353027344,-136.8979949951172 -142.0279998779297,-119.33699798583984 -136.8719940185547,-115.56600189208984 C-127.08399963378906,-108.40599822998047 -118.0999984741211,-98.43299865722656 -112.927001953125,-84.2239990234375 C-107.75499725341797,-70.01499938964844 -99.62200164794922,-20.427000045776367 -90.41500091552734,0.6579999923706055 C-74.4229965209961,37.28099822998047 -37.310001373291016,50.61199951171875 -28.163000106811523,57.08000183105469 C-30.159000396728516,75.63200378417969 -42.152000427246094,103.08200073242188 -37.994998931884766,111.10800170898438 C-26.18199920654297,133.91099548339844 83.60399627685547,172.9720001220703 137.7570037841797,105.7979965209961z"></path></g></g><g style="display: block;" transform="matrix(0,-1,1,0,288.906005859375,428.58099365234375)" opacity="1"><g opacity="1" transform="matrix(1,0,0,1,0,0)"><path stroke-linecap="round" stroke-linejoin="round" fill-opacity="0" stroke="rgb(247,126,65)" stroke-opacity="1" stroke-width="8" d=" M37.78099822998047,-77.52999877929688 C30.854000091552734,-77.16999816894531 12.118000030517578,-83.37899780273438 4.026000022888184,-85.44499969482422 C-3.4749999046325684,-87.36100006103516 -13.687999725341797,-91.82099914550781 -19.44499969482422,-84.7239990234375 C-56.49399948120117,-39.04899978637695 -61.270999908447266,50.034000396728516 -11.416999816894531,87.76000213623047 C-10.279999732971191,88.62100219726562 -8.60099983215332,88.73200225830078 -7.197999954223633,88.4749984741211 C10.60099983215332,85.21800231933594 30.32699966430664,80.4990005493164 48.03099822998047,76.76200103759766"></path></g></g><g style="display: block;" transform="matrix(1,0,0,1,304.0220031738281,430.1540222167969)" opacity="1"><g opacity="1" transform="matrix(1,0,0,1,0,0)"><path fill="rgb(255,209,64)" fill-opacity="1" d=" M-44.599998474121094,-6.605000019073486 C-48.20800018310547,6.109000205993652 -54.58700180053711,23.062000274658203 -40.32400131225586,26.951000213623047 C-11.418999671936035,34.834999084472656 17.08799934387207,28.2450008392334 32.268001556396484,18.90399932861328 C45.077999114990234,11.020999908447266 53.04199981689453,-0.8640000224113464 47.28200149536133,-18.115999221801758 C43.22600173950195,-30.264999389648438 35.46200180053711,-34.96699905395508 9.185999870300293,-25.22100067138672 C-13.63700008392334,-16.756000518798828 -37.5880012512207,-31.316999435424805 -44.599998474121094,-6.605000019073486z"></path></g></g><g style="display: block;" transform="matrix(1,0,0,1,140.0419921875,235.3870086669922)" opacity="1"><g opacity="1" transform="matrix(1,0,0,1,0,0)"><path fill="rgb(255,223,121)" fill-opacity="1" d=" M11.937999725341797,-22.665000915527344 C30.461999893188477,-1.9800000190734863 32.93199920654297,15.927000045776367 40.49599838256836,46.95500183105469 C38.64400100708008,18.70599937438965 34.70899963378906,-0.8870000243186951 31.38800048828125,-8.927000045776367 C26.665000915527344,-20.360000610351562 21.458999633789062,-33.387001037597656 9.199000358581543,-39.92499923706055 C-7.645999908447266,-48.90800094604492 -25.32200050354004,-48.643001556396484 -34.15800094604492,-40.74399948120117 C-44.547000885009766,-31.45599937438965 -5.063000202178955,-41.64899826049805 11.937999725341797,-22.665000915527344z"></path></g></g><g style="display: block;" transform="matrix(0,-1,1,0,154.6199951171875,289.3900146484375)" opacity="1"><g opacity="1" transform="matrix(1,0,0,1,0,0)"><path stroke-linecap="round" stroke-linejoin="round" fill-opacity="0" stroke="rgb(247,126,65)" stroke-opacity="1" stroke-width="8" d=" M-100.73999786376953,55.7130012512207 C-89.42500305175781,38.194000244140625 -84.19400024414062,18.961999893188477 -60.071998596191406,3.678999900817871 C-23.5310001373291,-19.472999572753906 2.5769999027252197,-15.661999702453613 28.131000518798828,-23.757999420166016 C56.88999938964844,-32.86899948120117 63.59600067138672,-47.10599899291992 76.51100158691406,-54.20000076293945 C82.82499694824219,-57.66899871826172 89.38400268554688,-54.89099884033203 94.08300018310547,-48.71699905395508 C101.81900024414062,-38.551998138427734 104.51200103759766,-19.179000854492188 92.76399993896484,-3.319000005722046 C81.71499633789062,11.597000122070312 57.61800003051758,20.59000015258789 31.176000595092773,23.361000061035156"></path></g></g><g style="display: block;" transform="matrix(1,0,0,1,306.5039978027344,268.614013671875)" opacity="1"><g opacity="1" transform="matrix(1,0,0,1,0,0)"><path fill="rgb(255,223,121)" fill-opacity="1" d=" M-76.7959976196289,-58.20199966430664 C-65.16699981689453,-51.768001556396484 -65.93399810791016,-60.50400161743164 -48.2239990234375,-59.92599868774414 C-32.071998596191406,-59.39899826049805 -29.138999938964844,-51.3849983215332 -20.96299934387207,-50.36399841308594 C-12.895999908447266,-49.356998443603516 -13.043000221252441,-55.612998962402344 2.5899999141693115,-52.54199981689453 C18.736000061035156,-49.369998931884766 19.395999908447266,-37.358001708984375 25.486000061035156,-36.016998291015625 C31.576000213623047,-34.67499923706055 34.43000030517578,-35.92599868774414 46.005001068115234,-29.641000747680664 C57.529998779296875,-23.382999420166016 63.75899887084961,-8.878000259399414 66.88500213623047,15.798999786376953 C68.53800201416016,28.847999572753906 71.46800231933594,50.45000076293945 66.64700317382812,73.7770004272461 C73.33399963378906,60.09199905395508 75.69000244140625,56.13199996948242 76.63999938964844,27.422000885009766 C77.41000366210938,4.177999973297119 75.63400268554688,-18.336999893188477 64.2699966430664,-36.16999816894531 C51.19200134277344,-56.69300079345703 27.72100067138672,-47.895999908447266 27.72100067138672,-47.895999908447266 C27.72100067138672,-47.895999908447266 23.150999069213867,-63.111000061035156 0.07100000232458115,-65.15699768066406 C-8.206000328063965,-65.88999938964844 -21.84000015258789,-59.167999267578125 -21.84000015258789,-59.167999267578125 C-21.84000015258789,-59.167999267578125 -28.851999282836914,-73.48400115966797 -51.055999755859375,-73.7760009765625 C-57.80799865722656,-73.86499786376953 -75.3479995727539,-66.89700317382812 -76.7959976196289,-58.20199966430664z"></path></g><g opacity="1" transform="matrix(1,0,0,1,0,0)"><path fill="rgb(255,223,121)" fill-opacity="1" d=" M-76.7959976196289,-58.20199966430664 C-65.16699981689453,-51.768001556396484 -65.93399810791016,-60.50400161743164 -48.2239990234375,-59.92599868774414 C-32.071998596191406,-59.39899826049805 -29.138999938964844,-51.3849983215332 -20.96299934387207,-50.36399841308594 C-12.895999908447266,-49.356998443603516 -13.043000221252441,-55.612998962402344 2.5899999141693115,-52.54199981689453 C18.736000061035156,-49.369998931884766 19.395999908447266,-37.358001708984375 25.486000061035156,-36.016998291015625 C31.576000213623047,-34.67499923706055 34.43000030517578,-35.92599868774414 46.005001068115234,-29.641000747680664 C57.529998779296875,-23.382999420166016 63.75899887084961,-8.878000259399414 66.88500213623047,15.798999786376953 C68.53800201416016,28.847999572753906 71.46800231933594,50.45000076293945 66.64700317382812,73.7770004272461 C73.33399963378906,60.09199905395508 75.69000244140625,56.13199996948242 76.63999938964844,27.422000885009766 C77.41000366210938,4.177999973297119 75.63400268554688,-18.336999893188477 64.2699966430664,-36.16999816894531 C51.19200134277344,-56.69300079345703 27.72100067138672,-47.895999908447266 27.72100067138672,-47.895999908447266 C27.72100067138672,-47.895999908447266 23.150999069213867,-63.111000061035156 0.07100000232458115,-65.15699768066406 C-8.206000328063965,-65.88999938964844 -21.84000015258789,-59.167999267578125 -21.84000015258789,-59.167999267578125 C-21.84000015258789,-59.167999267578125 -28.851999282836914,-73.48400115966797 -51.055999755859375,-73.7760009765625 C-54.196998596191406,-73.81700134277344 -59.672000885009766,-72.33200073242188 -64.7760009765625,-69.85600280761719 C-66.31600189208984,-69.10900115966797 -67.8219985961914,-68.27100372314453 -69.22000122070312,-67.35800170898438 C-73.14900207519531,-64.79299926757812 -76.2249984741211,-61.63199996948242 -76.7959976196289,-58.20199966430664z"></path></g></g><g style="display: block;" transform="matrix(1,0,0,1,204.77801513671875,126.26701354980469)" opacity="1"><g opacity="1" transform="matrix(1,0,0,1,0,0)"><path fill="rgb(255,223,121)" fill-opacity="1" d=" M27.882999420166016,69.88400268554688 C27.81800079345703,74.72100067138672 29.020000457763672,83.322998046875 25.91900062561035,84.0469970703125 C16.347999572753906,84.4020004272461 13.543999671936035,37.244998931884766 12.352999687194824,-0.8330000042915344 C11.807000160217285,-18.275999069213867 11.598999977111816,-33.8129997253418 11.234999656677246,-42.00600051879883 C9.576000213623047,-79.322998046875 -16.513999938964844,-67.37200164794922 -18.554000854492188,-52.505001068115234 C-22.7810001373291,-53.37900161743164 -25.961000442504883,-54.96500015258789 -28.059999465942383,-54.51499938964844 C-19.062000274658203,-100.10700225830078 20.301000595092773,-86.25900268554688 22.649999618530273,-57.624000549316406 C23.33099937438965,-49.323001861572266 24.19499969482422,-18.097000122070312 24.283000946044922,-13.21399974822998 C24.927000045776367,22.538999557495117 25.660999298095703,23.77400016784668 27.882999420166016,69.88400268554688z"></path></g><g opacity="1" transform="matrix(1,0,0,1,0,0)"><path stroke-linecap="round" stroke-linejoin="round" fill-opacity="0" stroke="rgb(255,255,255)" stroke-opacity="1" stroke-width="6" d=" M5.265999794006348,-62.65700149536133 C3.9609999656677246,-64.2020034790039 2.515000104904175,-65.2760009765625 0.996999979019165,-65.9469985961914"></path></g></g><g style="display: block;" transform="matrix(1,0,0,1,190.29400634765625,162.32699584960938)" opacity="1"><g opacity="1" transform="matrix(1,0,0,1,0,0)"><path fill="rgb(255,177,57)" fill-opacity="1" d=" M-9.628999710083008,119.72899627685547 C-7.177999973297119,119.3290023803711 -6.118000030517578,110.10199737548828 -5.703999996185303,97.35900115966797 C-5.060999870300293,77.59600067138672 -5.96999979019165,49.37699890136719 -5.6479997634887695,32.51499938964844 C-4.571000099182129,-23.867000579833984 -4.058000087738037,-49.88999938964844 -3.5989999771118164,-70.5790023803711 C-3.174999952316284,-89.69100189208984 -2.38100004196167,-108.83599853515625 15.852999687194824,-119.33799743652344 C-11.050000190734863,-123.16500091552734 -14.314000129699707,-98.17900085449219 -14.859999656677246,-75.13899993896484 C-16.030000686645508,-25.82200050354004 -15.840999603271484,6.906000137329102 -15.842000007629395,35.34299850463867 C-15.843000411987305,62.9640007019043 -13.03600025177002,101.13200378417969 -9.628999710083008,119.72899627685547z"></path></g></g><g style="display: block;" transform="matrix(0,-1,1,0,203.33401489257812,164.52000427246094)" opacity="1"><g opacity="1" transform="matrix(1,0,0,1,0,0)"><path stroke-linecap="round" stroke-linejoin="round" fill-opacity="0" stroke="rgb(247,126,65)" stroke-opacity="1" stroke-width="8" d=" M-121.89099884033203,-22.843000411987305 C-78.52799987792969,-26.93600082397461 -42.54499816894531,-27.798999786376953 -17.027000427246094,-28.003999710083008 C-4.9070000648498535,-28.101999282836914 4.8520002365112305,-28.052000045776367 11.920000076293945,-28.128000259399414 C30.969999313354492,-28.333999633789062 73.97000122070312,-27.333999633789062 92.98600006103516,-26.040000915527344 C131.98199462890625,-23.38599967956543 129.97000122070312,20.916000366210938 92.82099914550781,23.10300064086914 C83.68599700927734,23.641000747680664 55.446998596191406,24.854999542236328 26.702999114990234,26.018999099731445 C-3.0390000343322754,27.222999572753906 -33.31999969482422,28.374000549316406 -43.529998779296875,28.666000366210938"></path></g></g><g style="display: block;" transform="matrix(0,-1,1,0,307.9880065917969,288.0980224609375)" opacity="1"><g opacity="1" transform="matrix(1,0,0,1,0,0)"><path stroke-linecap="round" stroke-linejoin="round" fill-opacity="0" stroke="rgb(176,59,0)" stroke-opacity="1" stroke-width="8" d="M0 0"></path></g><g opacity="1" transform="matrix(1,0,0,1,0,0)"><path stroke-linecap="round" stroke-linejoin="round" fill-opacity="0" stroke="rgb(247,126,65)" stroke-opacity="1" stroke-width="8" d=" M-91.99500274658203,57.6150016784668 C-77.7030029296875,55.26900100708008 -59.007999420166016,68.7760009765625 -32.90700149536133,72.76100158691406 C-4.9629998207092285,77.0270004272461 11.468000411987305,76.48500061035156 32.73699951171875,72.25700378417969 C43.62099838256836,70.09300231933594 51.323001861572266,66.42500305175781 56.736000061035156,62.01599884033203"></path></g><g opacity="1" transform="matrix(1,0,0,1,0,0)"><path stroke-linecap="round" stroke-linejoin="round" fill-opacity="0" stroke="rgb(247,126,65)" stroke-opacity="1" stroke-width="8" d=" M56.736000061035156,62.01599884033203 C61.55699920654297,58.0890007019043 64.56199645996094,53.573001861572266 66.37999725341797,49.00699996948242 C69.20700073242188,41.909000396728516 69.16799926757812,34.689998626708984 68.62899780273438,29.371999740600586 C68.56400299072266,28.73200035095215 68.49199676513672,28.118999481201172 68.41699981689453,27.538000106811523 C71.26599884033203,25.523000717163086 73.69000244140625,23.274999618530273 75.71199798583984,20.860000610351562 C80.23100280761719,15.46399974822998 82.74700164794922,9.230999946594238 83.53299713134766,2.872999906539917 C84.56999969482422,-5.517000198364258 82.59500122070312,-14.12399959564209 78.2300033569336,-21.31100082397461 C79.17500305175781,-21.743000030517578 80.197998046875,-22.97100067138672 82.02200317382812,-24.825000762939453 C88.44200134277344,-31.351999282836914 91.76100158691406,-42.388999938964844 91.97100067138672,-48.27899932861328 C92.39199829101562,-60.08399963378906 87.2229995727539,-71.0770034790039 80.57599639892578,-75.70600128173828"></path></g></g><g style="display: block;" transform="matrix(1,0,0,1,256,256)" opacity="1"><path stroke-linecap="round" stroke-linejoin="miter" fill-opacity="0" stroke-miterlimit="4" stroke="rgb(255,255,255)" stroke-opacity="1" stroke-width="6" d=" M96.27999877929688,-18.798999786376953 C100.68000030517578,-16.54599952697754 104.88899993896484,-12.560999870300293 108.2300033569336,-5.625 M112.22899627685547,5.966000080108643 C112.57599639892578,7.406000137329102 112.89900207519531,8.918999671936035 113.19499969482422,10.510000228881836"></path><g opacity="1" transform="matrix(1,0,0,1,0,0)"></g><g opacity="1" transform="matrix(1,0,0,1,0,0)"></g></g></g></svg>