<svg xmlns="http://www.w3.org/2000/svg" viewBox="0 0 512 512" width="512" height="512" style="width: 100%; height: 100%; transform: translate3d(0,0,0);" preserveAspectRatio="xMidYMid meet"><defs><clipPath id="__lottie_element_22103"><rect width="512" height="512" x="0" y="0"></rect></clipPath><linearGradient id="__lottie_element_22109" spreadMethod="pad" gradientUnits="userSpaceOnUse" x1="30" y1="5" x2="-64.48699951171875" y2="73.03099822998047"><stop offset="0%" stop-color="rgb(142,34,149)"></stop><stop offset="38%" stop-color="rgb(110,19,113)"></stop><stop offset="98%" stop-color="rgb(79,5,77)"></stop></linearGradient><linearGradient id="__lottie_element_22110" spreadMethod="pad" gradientUnits="userSpaceOnUse" x1="-38" y1="75" x2="28.740999221801758" y2="-1.1260000467300415"><stop offset="1%" stop-color="rgb(148,0,147)"></stop><stop offset="52%" stop-color="rgb(201,128,201)"></stop><stop offset="92%" stop-color="rgb(255,255,255)"></stop></linearGradient><linearGradient id="__lottie_element_22116" spreadMethod="pad" gradientUnits="userSpaceOnUse" x1="-189" y1="-53" x2="-103.73999786376953" y2="-108.97200012207031"><stop offset="0%" stop-color="rgb(93,117,56)"></stop><stop offset="60%" stop-color="rgb(129,171,67)"></stop><stop offset="100%" stop-color="rgb(164,224,78)"></stop></linearGradient><linearGradient id="__lottie_element_22120" spreadMethod="pad" gradientUnits="userSpaceOnUse" x1="-81" y1="-97" x2="-44.457000732421875" y2="-109.34600067138672"><stop offset="0%" stop-color="rgb(94,142,33)"></stop><stop offset="60%" stop-color="rgb(110,160,41)"></stop><stop offset="100%" stop-color="rgb(125,178,50)"></stop></linearGradient><linearGradient id="__lottie_element_22124" spreadMethod="pad" gradientUnits="userSpaceOnUse" x1="-179" y1="-136" x2="-145.85400390625" y2="-147.197998046875"><stop offset="0%" stop-color="rgb(110,159,46)"></stop><stop offset="60%" stop-color="rgb(137,192,62)"></stop><stop offset="100%" stop-color="rgb(164,224,78)"></stop></linearGradient></defs><g clip-path="url(#__lottie_element_22103)"><g style="display: block;" transform="matrix(1.059999942779541,0,0,1.059999942779541,242.25001525878906,250.05999755859375)" opacity="1"><g opacity="1" transform="matrix(1,0,0,1,0,0)"><path fill="url(#__lottie_element_22124)" fill-opacity="1" d=" M-169.6280059814453,-151.91200256347656 C-176.56900024414062,-146.77999877929688 -170.73599243164062,-140.62899780273438 -168.7449951171875,-129.406005859375 C-166.75399780273438,-118.18299865722656 -146.2760009765625,-136.2429962158203 -145.63099670410156,-139.14500427246094 C-144.98599243164062,-142.0469970703125 -150.98199462890625,-144.20899963378906 -155.6580047607422,-148.625 C-160.33399963378906,-153.04100036621094 -164.33599853515625,-155.8249969482422 -169.6280059814453,-151.91200256347656z"></path><path stroke-linecap="round" stroke-linejoin="round" fill-opacity="0" stroke="rgb(93,126,0)" stroke-opacity="1" stroke-width="8" d=" M-169.6280059814453,-151.91200256347656 C-176.56900024414062,-146.77999877929688 -170.73599243164062,-140.62899780273438 -168.7449951171875,-129.406005859375 C-166.75399780273438,-118.18299865722656 -146.2760009765625,-136.2429962158203 -145.63099670410156,-139.14500427246094 C-144.98599243164062,-142.0469970703125 -150.98199462890625,-144.20899963378906 -155.6580047607422,-148.625 C-160.33399963378906,-153.04100036621094 -164.33599853515625,-155.8249969482422 -169.6280059814453,-151.91200256347656z"></path></g><g opacity="1" transform="matrix(1,0,0,1,0,0)"><path stroke-linecap="round" stroke-linejoin="round" fill-opacity="0" stroke="rgb(52,74,0)" stroke-opacity="1" stroke-width="8" d=" M-172.89999389648438,-146.6790008544922 C-173.2989959716797,-142.4409942626953 -170.11399841308594,-137.1219940185547 -168.7449951171875,-129.406005859375"></path></g><g opacity="1" transform="matrix(1,0,0,1,0,0)"><path fill="rgb(52,74,0)" fill-opacity="1" d=" M-168.93899536132812,-146.5229949951172 C-168.93899536132812,-146.5229949951172 -168.5540008544922,-158.9199981689453 -158.54200744628906,-155.593994140625 C-158.54200744628906,-155.593994140625 -164.2480010986328,-159.96600341796875 -170.51400756835938,-156.14999389648438 C-176.77999877929688,-152.33399963378906 -176.73800659179688,-148.1300048828125 -176.9080047607422,-146.83599853515625 C-176.9080047607422,-146.83599853515625 -168.93899536132812,-146.5229949951172 -168.93899536132812,-146.5229949951172z"></path></g></g><g style="display: block;" transform="matrix(1.059999942779541,0,0,1.059999942779541,244.90000915527344,255.36000061035156)" opacity="1"><g opacity="1" transform="matrix(1,0,0,1,0,0)"><path fill="url(#__lottie_element_22120)" fill-opacity="1" d=" M-40.481998443603516,-107.95800018310547 C-40.481998443603516,-107.95800018310547 -46.659000396728516,-95.98999786376953 -65.90499877929688,-91.26899719238281 C-85.1510009765625,-86.5479965209961 -82.54100036621094,-106.197998046875 -74.91500091552734,-107.86100006103516 C-67.28900146484375,-109.52400207519531 -59.17100143432617,-101.57499694824219 -40.481998443603516,-107.95800018310547z"></path><path stroke-linecap="round" stroke-linejoin="round" fill-opacity="0" stroke="rgb(52,74,0)" stroke-opacity="1" stroke-width="8" d=" M-40.481998443603516,-107.95800018310547 C-40.481998443603516,-107.95800018310547 -46.659000396728516,-95.98999786376953 -65.90499877929688,-91.26899719238281 C-85.1510009765625,-86.5479965209961 -82.54100036621094,-106.197998046875 -74.91500091552734,-107.86100006103516 C-67.28900146484375,-109.52400207519531 -59.17100143432617,-101.57499694824219 -40.481998443603516,-107.95800018310547z"></path></g></g><g style="display: block;" transform="matrix(1.059999942779541,0,0,1.059999942779541,244.90000915527344,255.36000061035156)" opacity="1"><g opacity="1" transform="matrix(1,0,0,1,0,0)"><path fill="url(#__lottie_element_22109)" fill-opacity="1" d=" M4.672999858856201,-34.07699966430664 C-48.90999984741211,-76.77400207519531 -94.97000122070312,-175.0760040283203 -157.51699829101562,-135.84300231933594 C-208.3300018310547,-103.97100067138672 -145.1479949951172,14.96500015258789 -82.36900329589844,87.13500213623047 C4.5,187 97.5,236 164.45799255371094,183.88299560546875 C192.31900024414062,162.19700622558594 186.1199951171875,119.11000061035156 176.802001953125,95.39900207519531 C166.3000030517578,68.67500305175781 143.32000732421875,49.81999969482422 107.93800354003906,31.288000106811523 C76.16100311279297,14.644000053405762 64.44499969482422,13.552000045776367 4.672999858856201,-34.07699966430664z"></path></g><g opacity="0.4" transform="matrix(1,0,0,1,0,0)"><path fill="rgb(48,3,45)" fill-opacity="1" d=" M164.46099853515625,183.8780059814453 C98,237 3,187 -82.37300109863281,87.13800048828125 C-144.52999877929688,14.432000160217285 -205,-99.31600189208984 -155.1959991455078,-137.24200439453125 C-186.06700134277344,-83.2699966430664 -102.95999908447266,60.29199981689453 -32.266998291015625,114.60199737548828 C39.72999954223633,169.91600036621094 109.09600067138672,199 151.99099731445312,175.8459930419922 C188.21400451660156,156.29400634765625 179.28399658203125,102.63600158691406 172.29600524902344,85.7770004272461 C189.75,111.25 192.0399932861328,161.8350067138672 164.46099853515625,183.8780059814453z"></path></g><g opacity="0.45" transform="matrix(1,0,0,1,0,0)"><path fill="rgb(255,255,255)" fill-opacity="1" d=" M177.73800659179688,112.77300262451172 C165.95399475097656,79.55000305175781 150.21800231933594,62.762001037597656 106.99800109863281,41.1510009765625 C74.9209976196289,25.111000061035156 51.388999938964844,17.655000686645508 2.7980000972747803,-20.520999908447266 C-81.18199920654297,-86.5 -94.9739990234375,-157.70599365234375 -157.51300048828125,-118.46600341796875 C-168.593994140625,-111.51300048828125 -172.88299560546875,-126.197998046875 -157.51300048828125,-135.843994140625 C-94.9739990234375,-175.0749969482422 -48.9119987487793,-76.7770004272461 4.675000190734863,-34.07400131225586 C64.44599914550781,13.555000305175781 76.16600036621094,14.642999649047852 107.93699645996094,31.288999557495117 C143.3209991455078,49.82099914550781 166.3000030517578,68.6719970703125 176.8000030517578,95.3949966430664 C181.60400390625,107.63099670410156 180.56900024414062,120.75399780273438 177.73800659179688,112.77300262451172z"></path></g><g opacity="1" transform="matrix(1,0,0,1,0,0)"><path stroke-linecap="round" stroke-linejoin="round" fill-opacity="0" stroke="rgb(150,6,140)" stroke-opacity="1" stroke-width="8" d=" M180.89300537109375,153.73899841308594 C186.1959991455078,133.11099243164062 182.9010009765625,110.91899871826172 176.802001953125,95.39900207519531 C166.3000030517578,68.67500305175781 143.32000732421875,49.81999969482422 107.93800354003906,31.288000106811523 C76.16100311279297,14.644000053405762 64.44499969482422,13.552000045776367 4.672999858856201,-34.07699966430664 C-48.90999984741211,-76.77400207519531 -94.97000122070312,-175.0760040283203 -157.51699829101562,-135.84300231933594"></path></g><g opacity="1" transform="matrix(1,0,0,1,0,0)"><path stroke-linecap="round" stroke-linejoin="round" fill-opacity="0" stroke="rgb(48,3,45)" stroke-opacity="1" stroke-width="8" d=" M-157.51699829101562,-135.84300231933594 C-208.3300018310547,-103.97100067138672 -143.02999877929688,12.470000267028809 -83.86900329589844,87.63500213623047 C-15.5,174.5 101.5,244.5 164.45799255371094,183.88299560546875 C182.08999633789062,166.90699768066406 185.26100158691406,141.91400146484375 182.93299865722656,120.76799774169922"></path></g><g opacity="0.35000000000000003" transform="matrix(1,0,0,1,0,0)"><path fill="url(#__lottie_element_22110)" fill-opacity="1" d=" M-10.503000259399414,-10.663999557495117 C-94.84700012207031,-79.68199920654297 -80.19300079345703,-100.52300262451172 -109.42500305175781,-110.50700378417969 C-154.10800170898438,-125.76799774169922 -146.5850067138672,-65.18800354003906 -62.0620002746582,34.01900100708008 C-22.256000518798828,80.73999786376953 50.35200119018555,144.56399536132812 106.63400268554688,155.718994140625 C152.13400268554688,164.73699951171875 164.9949951171875,127.8740005493164 159.02499389648438,105.47599792480469 C154.5,88.5 138.78900146484375,72.45700073242188 111.91000366210938,58.790000915527344 C71.49299621582031,38.23899841308594 34.80500030517578,26.410999298095703 -10.503000259399414,-10.663999557495117z"></path></g><g opacity="0.4" transform="matrix(1,0,0,1,0,0)"><path fill="rgb(139,105,155)" fill-opacity="1" d=" M-15.37399959564209,108.59300231933594 C-70.9489974975586,63.45000076293945 -92.87200164794922,20.10099983215332 -103.19000244140625,22.65399932861328 C-114.15599822998047,25.368000030517578 -80.19499969482422,81.3280029296875 -7.189000129699707,134.00999450683594 C45.321998596191406,171.9029998779297 92.54299926757812,179.95799255371094 84.88800048828125,170.8780059814453 C74.65299987792969,158.73800659179688 47.209999084472656,159.4290008544922 -15.37399959564209,108.59300231933594z"></path></g><g opacity="1" transform="matrix(1,0,0,1,0,0)"><path fill="rgb(48,3,45)" fill-opacity="1" d=" M179.0229949951172,121.69000244140625 C179.0229949951172,121.69000244140625 177.9949951171875,85.39099884033203 166.38699340820312,70.23100280761719 C166.38699340820312,70.23100280761719 184.0679931640625,89.00599670410156 186.9810028076172,121.1729965209961 C186.9810028076172,121.1729965209961 179.0229949951172,121.69000244140625 179.0229949951172,121.69000244140625z"></path></g><g opacity="1" transform="matrix(1,0,0,1,-5,-1.5)"><g opacity="1" transform="matrix(1,0,0,1,0,0)"><path stroke-linecap="round" stroke-linejoin="round" fill-opacity="0" stroke="rgb(255,255,255)" stroke-opacity="1" stroke-width="6" d=" M85.65699768066406,48.59600067138672 C86.32599639892578,48.90999984741211 86.96299743652344,49.21099853515625 87.55899810791016,49.492000579833984"></path></g><g opacity="1" transform="matrix(1,0,0,1,0,0)"><path stroke-linecap="round" stroke-linejoin="round" fill-opacity="0" stroke="rgb(255,255,255)" stroke-opacity="1" stroke-width="6" d=" M65.12999725341797,38.96900177001953 C65.12999725341797,38.96900177001953 70.125,41.30799865722656 75.8239974975586,43.97999954223633"></path></g></g></g><g style="display: block;" transform="matrix(1.059999942779541,0,0,1.059999942779541,244.90000915527344,255.36000061035156)" opacity="1"><g opacity="0.6" transform="matrix(1,0,0,1,0,0)"><path fill="rgb(48,3,45)" fill-opacity="1" d=" M-102.52400207519531,-40.79100036621094 C-102.52400207519531,-40.79100036621094 -115.48200225830078,-48.35300064086914 -124.05000305175781,-59.89500045776367 C-130.9149932861328,-69.14299774169922 -144.5570068359375,-63.94200134277344 -157.18299865722656,-66.47699737548828 C-157.18299865722656,-66.47699737548828 -155.75799560546875,-48.58700180053711 -164.72999572753906,-36.375 C-167.05099487304688,-33.215999603271484 -177.1909942626953,-67.7760009765625 -178.4810028076172,-81.71700286865234 C-181.74899291992188,-106.78700256347656 -96.13500213623047,-154.8820037841797 -53.08399963378906,-97.99700164794922 C-53.08399963378906,-97.99700164794922 -78.62999725341797,-90.43499755859375 -103.76399993896484,-99.96499633789062 C-128.89300537109375,-109.49299621582031 -101.677001953125,-67.27799987792969 -102.52400207519531,-40.79100036621094z"></path></g><g opacity="1" transform="matrix(1,0,0,1,0,0)"><path fill="url(#__lottie_element_22116)" fill-opacity="1" d=" M-168.11300659179688,-23.996999740600586 C-168.11300659179688,-23.996999740600586 -173.1959991455078,-33.27899932861328 -170.17799377441406,-44.2239990234375 C-166.00999450683594,-59.340999603271484 -164.99899291992188,-72.31400299072266 -167.8769989013672,-83.09100341796875 C-167.8769989013672,-83.09100341796875 -161.3470001220703,-77.2750015258789 -144.38499450683594,-76.80899810791016 C-125.01399993896484,-76.2770004272461 -120.56199645996094,-67.18800354003906 -117.65799713134766,-60.893001556396484 C-111.6520004272461,-47.875 -102.52100372314453,-40.790000915527344 -102.52100372314453,-40.790000915527344 C-102.52100372314453,-40.790000915527344 -87.6500015258789,-62.150001525878906 -96.86399841308594,-111.98899841308594 C-96.86399841308594,-111.98899841308594 -68.3219985961914,-91.5199966430664 -40.005001068115234,-108.45700073242188 C-40.005001068115234,-108.45700073242188 -58.38199996948242,-108.24700164794922 -70.3550033569336,-117.00199890136719 C-82.3280029296875,-125.75700378417969 -112.16200256347656,-167.37600708007812 -155.2689971923828,-142.3070068359375 C-159.61700439453125,-139.7790069580078 -183.2100067138672,-126.56900024414062 -186.3280029296875,-98.9229965209961 C-189.31700134277344,-72.41999816894531 -180.93600463867188,-64.54499816894531 -180.51499938964844,-50.91299819946289 C-180.25900268554688,-42.62099838256836 -177.0800018310547,-30.190000534057617 -168.11300659179688,-23.996999740600586z"></path></g><g opacity="0.5" transform="matrix(1,0,0,1,0,0)"><path fill="rgb(181,246,88)" fill-opacity="1" d=" M-40,-108.45500183105469 C-65.54000091552734,-97.23899841308594 -76.41600036621094,-106.78900146484375 -97.55799865722656,-128.29200744628906 C-119.89299774169922,-151.00799560546875 -164.59300231933594,-139.81300354003906 -176.83700561523438,-103.87799835205078 C-182.9709930419922,-85.8759994506836 -178.99099731445312,-66.89800262451172 -180.9949951171875,-55.715999603271484 C-182.08599853515625,-61.73699951171875 -186.9709930419922,-78.83300018310547 -186.322998046875,-98.91999816894531 C-185.42599487304688,-126.73100280761719 -159.61700439453125,-139.77999877929688 -155.2729949951172,-142.30599975585938 C-112.16000366210938,-167.3769989013672 -82.32499694824219,-125.75499725341797 -70.35800170898438,-117.00499725341797 C-58.37900161743164,-108.24600219726562 -40,-108.45500183105469 -40,-108.45500183105469z"></path></g><g opacity="1" transform="matrix(1,0,0,1,0,0)"><path stroke-linecap="round" stroke-linejoin="round" fill-opacity="0" stroke="rgb(93,126,0)" stroke-opacity="1" stroke-width="8" d=" M-165.5659942626953,-24.868000030517578 C-165.5659942626953,-24.868000030517578 -171.10499572753906,-32.59199905395508 -170.17799377441406,-44.2239990234375 C-168.93299865722656,-59.85499954223633 -164.99899291992188,-72.31400299072266 -167.8769989013672,-83.09100341796875 C-167.8769989013672,-83.09100341796875 -161.3470001220703,-77.2750015258789 -144.38499450683594,-76.80899810791016 C-125.01399993896484,-76.2770004272461 -120.56199645996094,-67.18800354003906 -117.65799713134766,-60.893001556396484 C-111.6520004272461,-47.875 -102.52100372314453,-40.790000915527344 -102.52100372314453,-40.790000915527344 C-102.52100372314453,-40.790000915527344 -87.6500015258789,-62.150001525878906 -96.86399841308594,-111.98899841308594 C-96.86399841308594,-111.98899841308594 -68.3219985961914,-91.5199966430664 -40.005001068115234,-108.45700073242188 C-40.005001068115234,-108.45700073242188 -58.38199996948242,-108.24700164794922 -70.3550033569336,-117.00199890136719 C-82.3280029296875,-125.75700378417969 -118.6729965209961,-167.0919952392578 -160.18600463867188,-144.05999755859375 C-167.94500732421875,-139.7550048828125 -183.2100067138672,-126.56900024414062 -186.3280029296875,-98.9229965209961 C-189.31700134277344,-72.41999816894531 -180.93600463867188,-64.54499816894531 -180.51499938964844,-50.91299819946289 C-180.25900268554688,-42.62099838256836 -174.5330047607422,-31.06100082397461 -165.5659942626953,-24.868000030517578z"></path></g><g opacity="1" transform="matrix(1,0,0,1,0,0)"><path stroke-linecap="round" stroke-linejoin="round" fill-opacity="0" stroke="rgb(52,74,0)" stroke-opacity="1" stroke-width="8" d=" M-185.697998046875,-103.18699645996094 C-185.9530029296875,-101.79499816894531 -186.16400146484375,-100.37300109863281 -186.3280029296875,-98.9229965209961 C-189.31700134277344,-72.41999816894531 -180.93600463867188,-64.54499816894531 -180.51499938964844,-50.91299819946289 C-180.25900268554688,-42.62099838256836 -175.76400756835938,-29.576000213623047 -165.5780029296875,-24.618999481201172 C-165.5780029296875,-24.618999481201172 -165.5780029296875,-24.618999481201172 -165.5780029296875,-24.618999481201172 C-165.5780029296875,-24.618999481201172 -169.26800537109375,-34.25 -168.92999267578125,-44.15999984741211 C-168.39500427246094,-59.83100128173828 -163.947998046875,-69.7760009765625 -167.8769989013672,-83.09100341796875 C-167.8769989013672,-83.09100341796875 -161.3470001220703,-77.2750015258789 -144.38499450683594,-76.80899810791016 C-125.01399993896484,-76.2770004272461 -120.56199645996094,-67.18800354003906 -117.65799713134766,-60.893001556396484 C-112.17400360107422,-49.00699996948242 -104.08599853515625,-42.06700134277344 -102.72000122070312,-40.95000076293945"></path></g><g opacity="1" transform="matrix(1,0,0,1,0,0)"><path fill="rgb(52,74,0)" fill-opacity="1" d=" M-182.04299926757812,-102.4729995727539 C-182.04299926757812,-102.4729995727539 -178.75900268554688,-135.11700439453125 -158.3730010986328,-148.63499450683594 C-158.3730010986328,-148.63499450683594 -186.82000732421875,-137.781005859375 -189.68499755859375,-101.89800262451172"></path></g></g><g style="display: none;"><g><path></path></g></g></g></svg>