<svg xmlns="http://www.w3.org/2000/svg" viewBox="0 0 512 512" width="512" height="512" style="width: 100%; height: 100%; transform: translate3d(0,0,0);" preserveAspectRatio="xMidYMid meet"><defs><clipPath id="__lottie_element_22126"><rect width="512" height="512" x="0" y="0"></rect></clipPath><linearGradient id="__lottie_element_22131" spreadMethod="pad" gradientUnits="userSpaceOnUse" x1="3.7920000553131104" y1="14.093000411987305" x2="13.595999717712402" y2="23.89699935913086"><stop offset="0%" stop-color="rgb(199,30,54)"></stop><stop offset="50%" stop-color="rgb(185,77,65)"></stop><stop offset="100%" stop-color="rgb(170,124,75)"></stop></linearGradient><linearGradient id="__lottie_element_22132" spreadMethod="pad" gradientUnits="userSpaceOnUse" x1="3.187000036239624" y1="12.093000411987305" x2="-11.869999885559082" y2="27.14900016784668"><stop offset="0%" stop-color="rgb(199,30,54)"></stop><stop offset="50%" stop-color="rgb(185,77,65)"></stop><stop offset="100%" stop-color="rgb(170,124,75)"></stop></linearGradient><linearGradient id="__lottie_element_22133" spreadMethod="pad" gradientUnits="userSpaceOnUse" x1="100.2770004272461" y1="-119.56199645996094" x2="99.9800033569336" y2="161.56199645996094"><stop offset="0%" stop-color="rgb(245,207,174)"></stop><stop offset="50%" stop-color="rgb(238,198,164)"></stop><stop offset="100%" stop-color="rgb(231,189,153)"></stop></linearGradient><linearGradient id="__lottie_element_22134" spreadMethod="pad" gradientUnits="userSpaceOnUse" x1="-0.44699999690055847" y1="-157.90699768066406" x2="-0.44699999690055847" y2="156.24899291992188"><stop offset="0%" stop-color="rgb(239,197,156)"></stop><stop offset="50%" stop-color="rgb(228,184,137)"></stop><stop offset="100%" stop-color="rgb(216,171,118)"></stop></linearGradient><linearGradient id="__lottie_element_22143" spreadMethod="pad" gradientUnits="userSpaceOnUse" x1="-8.345999717712402" y1="6.52400016784668" x2="9.628000259399414" y2="24.49799919128418"><stop offset="0%" stop-color="rgb(69,84,204)"></stop><stop offset="50%" stop-color="rgb(120,104,139)"></stop><stop offset="100%" stop-color="rgb(170,124,75)"></stop></linearGradient><linearGradient id="__lottie_element_22144" spreadMethod="pad" gradientUnits="userSpaceOnUse" x1="14.960000038146973" y1="-0.47600001096725464" x2="-9.881999969482422" y2="24.365999221801758"><stop offset="0%" stop-color="rgb(69,84,204)"></stop><stop offset="50%" stop-color="rgb(120,104,139)"></stop><stop offset="100%" stop-color="rgb(170,124,75)"></stop></linearGradient><linearGradient id="__lottie_element_22145" spreadMethod="pad" gradientUnits="userSpaceOnUse" x1="-0.6990000009536743" y1="-150.78700256347656" x2="-0.6990000009536743" y2="150.77699279785156"><stop offset="0%" stop-color="rgb(239,197,156)"></stop><stop offset="50%" stop-color="rgb(236,192,145)"></stop><stop offset="100%" stop-color="rgb(232,186,133)"></stop></linearGradient><linearGradient id="__lottie_element_22156" spreadMethod="pad" gradientUnits="userSpaceOnUse" x1="-6.554999828338623" y1="7.800000190734863" x2="5.046999931335449" y2="19.400999069213867"><stop offset="0%" stop-color="rgb(199,117,28)"></stop><stop offset="50%" stop-color="rgb(185,121,52)"></stop><stop offset="100%" stop-color="rgb(170,124,75)"></stop></linearGradient><linearGradient id="__lottie_element_22157" spreadMethod="pad" gradientUnits="userSpaceOnUse" x1="0.4819999933242798" y1="8.800000190734863" x2="-8.222000122070312" y2="17.503999710083008"><stop offset="0%" stop-color="rgb(199,117,28)"></stop><stop offset="50%" stop-color="rgb(185,121,52)"></stop><stop offset="100%" stop-color="rgb(170,124,75)"></stop></linearGradient><linearGradient id="__lottie_element_22158" spreadMethod="pad" gradientUnits="userSpaceOnUse" x1="-0.9490000009536743" y1="-145.10299682617188" x2="-0.9490000009536743" y2="144.26199340820312"><stop offset="0%" stop-color="rgb(239,197,156)"></stop><stop offset="50%" stop-color="rgb(236,192,145)"></stop><stop offset="100%" stop-color="rgb(232,186,133)"></stop></linearGradient><linearGradient id="__lottie_element_22166" spreadMethod="pad" gradientUnits="userSpaceOnUse" x1="-0.3050000071525574" y1="9.13700008392334" x2="10.755000114440918" y2="20.19700050354004"><stop offset="0%" stop-color="rgb(199,30,54)"></stop><stop offset="50%" stop-color="rgb(185,77,65)"></stop><stop offset="100%" stop-color="rgb(170,124,75)"></stop></linearGradient><linearGradient id="__lottie_element_22167" spreadMethod="pad" gradientUnits="userSpaceOnUse" x1="5.289000034332275" y1="8.13700008392334" x2="-11.413999557495117" y2="24.840999603271484"><stop offset="0%" stop-color="rgb(199,30,54)"></stop><stop offset="50%" stop-color="rgb(185,77,65)"></stop><stop offset="100%" stop-color="rgb(170,124,75)"></stop></linearGradient><linearGradient id="__lottie_element_22168" spreadMethod="pad" gradientUnits="userSpaceOnUse" x1="-0.19900000095367432" y1="-140.4669952392578" x2="-0.19900000095367432" y2="139.156005859375"><stop offset="0%" stop-color="rgb(239,197,156)"></stop><stop offset="50%" stop-color="rgb(236,192,145)"></stop><stop offset="100%" stop-color="rgb(232,186,133)"></stop></linearGradient><linearGradient id="__lottie_element_22180" spreadMethod="pad" gradientUnits="userSpaceOnUse" x1="-4.059000015258789" y1="10.121999740600586" x2="6.140999794006348" y2="20.32200050354004"><stop offset="0%" stop-color="rgb(69,84,204)"></stop><stop offset="50%" stop-color="rgb(120,104,139)"></stop><stop offset="100%" stop-color="rgb(170,124,75)"></stop></linearGradient><linearGradient id="__lottie_element_22181" spreadMethod="pad" gradientUnits="userSpaceOnUse" x1="3.5160000324249268" y1="10.121999740600586" x2="-8.418000221252441" y2="22.055999755859375"><stop offset="0%" stop-color="rgb(69,84,204)"></stop><stop offset="50%" stop-color="rgb(120,104,139)"></stop><stop offset="100%" stop-color="rgb(170,124,75)"></stop></linearGradient><linearGradient id="__lottie_element_22182" spreadMethod="pad" gradientUnits="userSpaceOnUse" x1="-0.4490000009536743" y1="-133.88299560546875" x2="-0.4490000009536743" y2="133.86099243164062"><stop offset="0%" stop-color="rgb(239,197,156)"></stop><stop offset="50%" stop-color="rgb(236,192,145)"></stop><stop offset="100%" stop-color="rgb(232,186,133)"></stop></linearGradient><linearGradient id="__lottie_element_22189" spreadMethod="pad" gradientUnits="userSpaceOnUse" x1="-8.211999893188477" y1="4.455999851226807" x2="1.7669999599456787" y2="14.434000015258789"><stop offset="0%" stop-color="rgb(199,117,28)"></stop><stop offset="50%" stop-color="rgb(185,121,52)"></stop><stop offset="100%" stop-color="rgb(170,124,75)"></stop></linearGradient><linearGradient id="__lottie_element_22190" spreadMethod="pad" gradientUnits="userSpaceOnUse" x1="0.6420000195503235" y1="5.455999851226807" x2="-7.525000095367432" y2="13.623000144958496"><stop offset="0%" stop-color="rgb(199,117,28)"></stop><stop offset="50%" stop-color="rgb(185,121,52)"></stop><stop offset="100%" stop-color="rgb(170,124,75)"></stop></linearGradient><linearGradient id="__lottie_element_22191" spreadMethod="pad" gradientUnits="userSpaceOnUse" x1="-0.6980000138282776" y1="-127.81800079345703" x2="-0.6980000138282776" y2="126.48100280761719"><stop offset="0%" stop-color="rgb(239,197,156)"></stop><stop offset="50%" stop-color="rgb(236,192,145)"></stop><stop offset="100%" stop-color="rgb(232,186,133)"></stop></linearGradient></defs><g clip-path="url(#__lottie_element_22126)"><g style="display: block;" transform="matrix(1,0,0,1,0,30)" opacity="1"><g opacity="1" transform="matrix(1,0,0,1,256.697998046875,171.8179931640625)"><path fill="rgb(170,124,75)" fill-opacity="1" d=" M-168.85299682617188,139.1490020751953 C-179.37399291992188,139.1490020751953 -187.9770050048828,130.61700439453125 -188.0800018310547,120.11000061035156 C-188.0800018310547,120.11000061035156 -195.58099365234375,-94.56400299072266 -195.58099365234375,-94.56400299072266 C-195.58099365234375,-94.56400299072266 -195.57899475097656,-94.83100128173828 -195.57899475097656,-94.83100128173828 C-195.45399475097656,-105.33499908447266 -186.8300018310547,-113.85600280761719 -176.35299682617188,-113.85600280761719 C-176.35299682617188,-113.85600280761719 -173.7530059814453,-113.85600280761719 -173.7530059814453,-113.85600280761719 C-173.7530059814453,-113.85600280761719 -169.75999450683594,-127.81099700927734 -169.75999450683594,-127.81099700927734 C-167.8509979248047,-134.48699951171875 -161.66600036621094,-139.1490020751953 -154.72000122070312,-139.1490020751953 C-154.72000122070312,-139.1490020751953 -93.4749984741211,-139.1490020751953 -93.4749984741211,-139.1490020751953 C-87.71700286865234,-139.1490020751953 -82.44100189208984,-136.0019989013672 -79.70700073242188,-130.93600463867188 C-79.70700073242188,-130.93600463867188 -74.25900268554688,-120.83899688720703 -74.25900268554688,-120.83899688720703 C-71.93800354003906,-116.53800201416016 -67.44499969482422,-113.85600280761719 -62.55699920654297,-113.85600280761719 C-62.55699920654297,-113.85600280761719 176.35400390625,-113.85600280761719 176.35400390625,-113.85600280761719 C186.83099365234375,-113.85600280761719 195.45599365234375,-105.33499908447266 195.58099365234375,-94.85900115966797 C195.58099365234375,-94.85900115966797 195.572998046875,-94.2969970703125 195.572998046875,-94.2969970703125 C195.572998046875,-94.2969970703125 188.08099365234375,120.03600311279297 188.08099365234375,120.03600311279297 C188.0189971923828,130.58599853515625 179.41700744628906,139.1490020751953 168.85400390625,139.1490020751953 C168.85400390625,139.1490020751953 -168.85299682617188,139.1490020751953 -168.85299682617188,139.1490020751953z"></path></g><g opacity="1" transform="matrix(1,0,0,1,168.21200561523438,68.54399871826172)"><path fill="url(#__lottie_element_22189)" fill-opacity="1" d=" M-33.28200149536133,35.875999450683594 C-33.28200149536133,35.875999450683594 33.28200149536133,35.875999450683594 33.28200149536133,35.875999450683594 C33.28200149536133,35.875999450683594 33.28200149536133,-10.583000183105469 33.28200149536133,-10.583000183105469 C33.28200149536133,-10.583000183105469 24.851999282836914,-10.583000183105469 24.851999282836914,-10.583000183105469 C19.915000915527344,-10.583000183105469 16.047000885009766,-14.192999839782715 14.802000045776367,-16.5 C14.802000045776367,-16.5 8.779000282287598,-27.66200065612793 8.779000282287598,-27.66200065612793 C6.045000076293945,-32.72800064086914 0.7689999938011169,-35.875999450683594 -4.988999843597412,-35.875999450683594 C-4.988999843597412,-35.875999450683594 -33.28099822998047,-35.875999450683594 -33.28099822998047,-35.875999450683594"></path></g><g opacity="1" transform="matrix(1,0,0,1,107.35800170898438,68.54399871826172)"><path fill="url(#__lottie_element_22190)" fill-opacity="1" d=" M27.572999954223633,-35.875999450683594 C27.572999954223633,-35.875999450683594 -5.380000114440918,-35.875999450683594 -5.380000114440918,-35.875999450683594 C-12.326000213623047,-35.875999450683594 -18.51099967956543,-31.21299934387207 -20.420000076293945,-24.53700065612793 C-20.420000076293945,-24.53700065612793 -24.413000106811523,-10.583000183105469 -24.413000106811523,-10.583000183105469 C-24.413000106811523,-10.583000183105469 -27.01300048828125,-10.583000183105469 -27.01300048828125,-10.583000183105469 C-27.20199966430664,-10.583000183105469 -27.385000228881836,-10.5600004196167 -27.572999954223633,-10.555000305175781 C-27.572999954223633,-10.555000305175781 -27.572999954223633,35.875999450683594 -27.572999954223633,35.875999450683594 C-27.572999954223633,35.875999450683594 27.57200050354004,35.875999450683594 27.57200050354004,35.875999450683594"></path></g><g opacity="1" transform="matrix(1,0,0,1,256.697998046875,171.8179931640625)"><path fill="rgb(242,201,165)" fill-opacity="1" d=" M-168.85299682617188,133.1490020751953 C-176.12600708007812,133.1490020751953 -182.04800415039062,127.2490005493164 -182.08200073242188,119.98400115966797 C-182.08200073242188,119.98400115966797 -189.58099365234375,-94.64700317382812 -189.58099365234375,-94.64700317382812 C-189.58099365234375,-94.64700317382812 -189.5800018310547,-94.78800201416016 -189.5800018310547,-94.78800201416016 C-189.49400329589844,-101.99400329589844 -183.55999755859375,-107.85600280761719 -176.35299682617188,-107.85600280761719 C-176.35299682617188,-107.85600280761719 -173.7530059814453,-107.85600280761719 -173.7530059814453,-107.85600280761719 C-171.0749969482422,-107.85600280761719 -168.7209930419922,-109.63099670410156 -167.98399353027344,-112.20600128173828 C-167.98399353027344,-112.20600128173828 -163.99200439453125,-126.16000366210938 -163.99200439453125,-126.16000366210938 C-162.81500244140625,-130.27499389648438 -159.0019989013672,-133.1490020751953 -154.72000122070312,-133.1490020751953 C-154.72000122070312,-133.1490020751953 -93.4749984741211,-133.1490020751953 -93.4749984741211,-133.1490020751953 C-89.92500305175781,-133.1490020751953 -86.67400360107422,-131.20899963378906 -84.98799896240234,-128.08599853515625 C-84.98799896240234,-128.08599853515625 -79.55000305175781,-118.00900268554688 -79.55000305175781,-118.00900268554688 C-76.17500305175781,-111.75499725341797 -69.64199829101562,-107.85600280761719 -62.5359992980957,-107.85600280761719 C-62.5359992980957,-107.85600280761719 176.35400390625,-107.85600280761719 176.35400390625,-107.85600280761719 C183.56100463867188,-107.85600280761719 189.4949951171875,-101.99400329589844 189.58099365234375,-94.78800201416016 C189.58099365234375,-94.78800201416016 189.57699584960938,-94.50700378417969 189.57699584960938,-94.50700378417969 C189.57699584960938,-94.50700378417969 182.08099365234375,119.9219970703125 182.08099365234375,119.9219970703125 C182.08099365234375,127.21600341796875 176.14700317382812,133.1490020751953 168.85400390625,133.1490020751953 C168.85400390625,133.1490020751953 -168.85299682617188,133.1490020751953 -168.85299682617188,133.1490020751953z"></path></g><g opacity="1" transform="matrix(1,0,0,1,138.00399780273438,51.314998626708984)"><path fill="rgb(255,175,95)" fill-opacity="1" d=" M55.058998107910156,12.645999908447266 C50.277000427246094,12.645999908447266 43.16899871826172,9.696000099182129 39.4119987487793,2.990999937057495 C39.4119987487793,2.990999937057495 33.70600128173828,-7.583000183105469 33.70600128173828,-7.583000183105469 C32.02000045776367,-10.706000328063965 28.768999099731445,-12.645999908447266 25.2189998626709,-12.645999908447266 C25.2189998626709,-12.645999908447266 -36.0260009765625,-12.645999908447266 -36.0260009765625,-12.645999908447266 C-40.30799865722656,-12.645999908447266 -44.12099838256836,-9.772000312805176 -45.29800033569336,-5.6570000648498535 C-45.29800033569336,-5.6570000648498535 -49.290000915527344,8.29699993133545 -49.290000915527344,8.29699993133545 C-50.027000427246094,10.871999740600586 -52.38100051879883,12.645999908447266 -55.058998107910156,12.645999908447266 C-55.058998107910156,12.645999908447266 55.058998107910156,12.645999908447266 55.058998107910156,12.645999908447266z"></path></g><g opacity="1" transform="matrix(1,0,0,1,256.697998046875,171.8179931640625)"><path fill="url(#__lottie_element_22191)" fill-opacity="1" d=" M176.35400390625,-101.85600280761719 C176.35400390625,-101.85600280761719 -62.61199951171875,-101.85600280761719 -62.61199951171875,-101.85600280761719 C-71.8759994506836,-101.85600280761719 -80.39399719238281,-106.93900299072266 -84.79399871826172,-115.09200286865234 C-84.79399871826172,-115.09200286865234 -90.26799774169922,-125.23600006103516 -90.26799774169922,-125.23600006103516 C-90.90499877929688,-126.41600036621094 -92.13300323486328,-127.14900207519531 -93.4749984741211,-127.14900207519531 C-93.4749984741211,-127.14900207519531 -154.72000122070312,-127.14900207519531 -154.72000122070312,-127.14900207519531 C-156.33799743652344,-127.14900207519531 -157.7790069580078,-126.06400299072266 -158.22300720214844,-124.51000213623047 C-158.22300720214844,-124.51000213623047 -162.21600341796875,-110.55500030517578 -162.21600341796875,-110.55500030517578 C-163.68899536132812,-105.40599822998047 -168.39700317382812,-101.85600280761719 -173.7530059814453,-101.85600280761719 C-173.7530059814453,-101.85600280761719 -176.35299682617188,-101.85600280761719 -176.35299682617188,-101.85600280761719 C-180.3090057373047,-101.85600280761719 -183.5330047607422,-98.66200256347656 -183.5800018310547,-94.71700286865234 C-183.5800018310547,-94.71700286865234 -176.0850067138672,119.71199798583984 -176.0850067138672,119.71199798583984 C-176.0850067138672,119.71199798583984 -176.08099365234375,119.9219970703125 -176.08099365234375,119.9219970703125 C-176.08099365234375,123.90699768066406 -172.83799743652344,127.14900207519531 -168.85299682617188,127.14900207519531 C-168.85299682617188,127.14900207519531 168.85400390625,127.14900207519531 168.85400390625,127.14900207519531 C172.83900451660156,127.14900207519531 176.08099365234375,123.90699768066406 176.08099365234375,119.9219970703125 C176.08099365234375,119.9219970703125 176.08099365234375,119.81700134277344 176.08099365234375,119.81700134277344 C176.08099365234375,119.81700134277344 183.5800018310547,-94.71700286865234 183.5800018310547,-94.71700286865234 C183.5330047607422,-98.66200256347656 180.30999755859375,-101.85600280761719 176.35400390625,-101.85600280761719z"></path></g><g opacity="1" transform="matrix(1,0,0,1,135.42599487304688,54.314998626708984)"><path fill="rgb(255,146,28)" fill-opacity="1" d=" M42.0880012512207,9.645999908447266 C40.99399948120117,8.47700023651123 38.64799880981445,6.697000026702881 36.792999267578125,2.99399995803833 C36.792999267578125,2.99399995803833 31.003999710083008,-7.732999801635742 31.003999710083008,-7.732999801635742 C30.367000579833984,-8.913000106811523 29.138999938964844,-9.645999908447266 27.797000885009766,-9.645999908447266 C27.797000885009766,-9.645999908447266 -33.448001861572266,-9.645999908447266 -33.448001861572266,-9.645999908447266 C-35.066001892089844,-9.645999908447266 -36.50699996948242,-8.560999870300293 -36.95100021362305,-7.006999969482422 C-36.95100021362305,-7.006999969482422 -40.94300079345703,6.947999954223633 -40.94300079345703,6.947999954223633 C-41.21799850463867,7.9070000648498535 -41.60599899291992,8.8100004196167 -42.0880012512207,9.645999908447266 C-42.0880012512207,9.645999908447266 42.0880012512207,9.645999908447266 42.0880012512207,9.645999908447266z"></path></g></g><g style="display: block;" transform="matrix(1,0,0,1,0,23)" opacity="0.33"><g opacity="1" transform="matrix(1,0,0,1,256.447998046875,194.88299560546875)"><path fill="rgb(170,124,75)" fill-opacity="1" d=" M-192.0260009765625,145.8719940185547 C-192.38999938964844,145.8719940185547 -192.68699645996094,137.30599975585938 -192.68899536132812,126.75399780273438 C-192.68899536132812,126.75399780273438 -192.947998046875,-98.41600036621094 -192.947998046875,-98.41600036621094 C-192.947998046875,-98.41600036621094 -192.947998046875,-98.6719970703125 -192.947998046875,-98.6719970703125 C-192.94500732421875,-106.55699920654297 -192.781005859375,-113.1719970703125 -192.54400634765625,-116.09500122070312 C-192.4600067138672,-117.13099670410156 -187.38999938964844,-117.7030029296875 -184.5260009765625,-117.7030029296875 C-184.5260009765625,-117.7030029296875 -58.57400131225586,-117.7030029296875 -58.57400131225586,-117.7030029296875 C-55.31999969482422,-117.7030029296875 -52.45899963378906,-119.86000061035156 -51.56399917602539,-122.98899841308594 C-51.56399917602539,-122.98899841308594 -48.03799819946289,-127.80400085449219 -48.03799819946289,-127.80400085449219 C-46.2599983215332,-127.85099792480469 -40.499000549316406,-127.88300323486328 -34.02899932861328,-127.88300323486328 C-34.02899932861328,-127.88300323486328 36.5099983215332,-127.88300323486328 36.5099983215332,-127.88300323486328 C42.98099899291992,-127.88300323486328 48.74300003051758,-127.85099792480469 50.520999908447266,-127.80400085449219 C50.520999908447266,-127.80400085449219 54.04399871826172,-122.98899841308594 54.04399871826172,-122.98899841308594 C54.93899917602539,-119.86000061035156 57.79899978637695,-117.7030029296875 61.05400085449219,-117.7030029296875 C61.05400085449219,-117.7030029296875 185.5279998779297,-117.7030029296875 185.5279998779297,-117.7030029296875 C188.20799255371094,-117.7030029296875 192.28799438476562,-117.08200073242188 192.33399963378906,-115.9749984741211 C192.4600067138672,-112.93900299072266 192.5500030517578,-106.25 192.552001953125,-98.7020034790039 C192.552001953125,-98.7020034790039 192.552001953125,-98.16000366210938 192.552001953125,-98.16000366210938 C192.552001953125,-98.16000366210938 192.40499877929688,126.79100036621094 192.40499877929688,126.79100036621094 C192.40199279785156,137.32000732421875 192.23399353027344,145.8719940185547 192.0279998779297,145.8719940185547 C192.0279998779297,145.8719940185547 -192.0260009765625,145.8719940185547 -192.0260009765625,145.8719940185547z"></path></g></g><g style="display: block;" transform="matrix(1,0,0,1,0,30)" opacity="1"><g opacity="1" transform="matrix(1,0,0,1,256.447998046875,194.88299560546875)"><path fill="rgb(170,124,75)" fill-opacity="1" d=" M-177.5260009765625,145.8719940185547 C-188.0919952392578,145.8719940185547 -196.6959991455078,137.30599975585938 -196.7550048828125,126.75399780273438 C-196.7550048828125,126.75399780273438 -204.2550048828125,-98.41600036621094 -204.2550048828125,-98.41600036621094 C-204.2550048828125,-98.41600036621094 -204.2530059814453,-98.6719970703125 -204.2530059814453,-98.6719970703125 C-204.13499450683594,-109.35299682617188 -195.468994140625,-117.7030029296875 -184.5260009765625,-117.7030029296875 C-184.5260009765625,-117.7030029296875 -58.57400131225586,-117.7030029296875 -58.57400131225586,-117.7030029296875 C-55.31999969482422,-117.7030029296875 -52.45899963378906,-119.86000061035156 -51.56399917602539,-122.98899841308594 C-51.56399917602539,-122.98899841308594 -48.03799819946289,-135.30999755859375 -48.03799819946289,-135.30999755859375 C-46.2599983215332,-141.5290069580078 -40.499000549316406,-145.8719940185547 -34.02899932861328,-145.8719940185547 C-34.02899932861328,-145.8719940185547 36.5099983215332,-145.8719940185547 36.5099983215332,-145.8719940185547 C42.98099899291992,-145.8719940185547 48.74300003051758,-141.52699279785156 50.520999908447266,-135.3040008544922 C50.520999908447266,-135.3040008544922 54.04399871826172,-122.98899841308594 54.04399871826172,-122.98899841308594 C54.93899917602539,-119.86000061035156 57.79999923706055,-117.7030029296875 61.05400085449219,-117.7030029296875 C61.05400085449219,-117.7030029296875 185.5279998779297,-117.7030029296875 185.5279998779297,-117.7030029296875 C195.55599975585938,-117.7030029296875 204.13299560546875,-109.00199890136719 204.2550048828125,-98.7020034790039 C204.2550048828125,-98.7020034790039 204.24899291992188,-98.16000366210938 204.24899291992188,-98.16000366210938 C204.24899291992188,-98.16000366210938 196.7550048828125,126.79100036621094 196.7550048828125,126.79100036621094 C196.6230010986328,137.32000732421875 188.01499938964844,145.8719940185547 177.5279998779297,145.8719940185547 C177.5279998779297,145.8719940185547 -177.5260009765625,145.8719940185547 -177.5260009765625,145.8719940185547z"></path></g><g opacity="1" transform="matrix(1,0,0,1,293.0589904785156,80.87799835205078)"><path fill="url(#__lottie_element_22180)" fill-opacity="1" d=" M-35.569000244140625,31.867000579833984 C-35.569000244140625,31.867000579833984 36.35900115966797,31.867000579833984 36.35900115966797,31.867000579833984 C36.35900115966797,31.867000579833984 36.35900115966797,-3.697999954223633 36.35900115966797,-3.697999954223633 C36.35900115966797,-3.697999954223633 24.44300079345703,-3.697999954223633 24.44300079345703,-3.697999954223633 C21.187999725341797,-3.697999954223633 18.327999114990234,-5.855000019073486 17.433000564575195,-8.984000205993652 C17.433000564575195,-8.984000205993652 13.909000396728516,-21.298999786376953 13.909000396728516,-21.298999786376953 C12.130999565124512,-27.52199935913086 6.369999885559082,-31.867000579833984 -0.10100000351667404,-31.867000579833984 C-0.10100000351667404,-31.867000579833984 -36.35900115966797,-31.867000579833984 -36.35900115966797,-31.867000579833984"></path></g><g opacity="1" transform="matrix(1,0,0,1,220.48399353027344,80.87799835205078)"><path fill="url(#__lottie_element_22181)" fill-opacity="1" d=" M36.215999603271484,-31.867000579833984 C36.215999603271484,-31.867000579833984 1.934999942779541,-31.867000579833984 1.934999942779541,-31.867000579833984 C-4.534999847412109,-31.867000579833984 -10.295999526977539,-27.52400016784668 -12.074000358581543,-21.30500030517578 C-12.074000358581543,-21.30500030517578 -15.598999977111816,-8.984000205993652 -15.598999977111816,-8.984000205993652 C-16.4950008392334,-5.855000019073486 -19.356000900268555,-3.697999954223633 -22.610000610351562,-3.697999954223633 C-22.610000610351562,-3.697999954223633 -37.00600051879883,-3.697999954223633 -37.00600051879883,-3.697999954223633 C-37.00600051879883,-3.697999954223633 -37.00600051879883,31.867000579833984 -37.00600051879883,31.867000579833984 C-37.00600051879883,31.867000579833984 37.00600051879883,31.867000579833984 37.00600051879883,31.867000579833984"></path></g><g opacity="1" transform="matrix(1,0,0,1,256.447998046875,194.88299560546875)"><path fill="rgb(242,201,165)" fill-opacity="1" d=" M-177.52699279785156,139.8719940185547 C-184.8209991455078,139.8719940185547 -190.7550048828125,133.93899536132812 -190.7550048828125,126.6449966430664 C-190.7550048828125,126.6449966430664 -198.25399780273438,-98.49299621582031 -198.25399780273438,-98.49299621582031 C-198.25399780273438,-98.49299621582031 -198.2530059814453,-98.62699890136719 -198.2530059814453,-98.62699890136719 C-198.1719970703125,-105.95899963378906 -192.14300537109375,-111.7030029296875 -184.52699279785156,-111.7030029296875 C-184.52699279785156,-111.7030029296875 -58.65999984741211,-111.7030029296875 -58.65999984741211,-111.7030029296875 C-52.676998138427734,-111.7030029296875 -47.417999267578125,-115.66799926757812 -45.77199935913086,-121.4209976196289 C-45.77199935913086,-121.4209976196289 -42.27000045776367,-133.65899658203125 -42.27000045776367,-133.65899658203125 C-41.2239990234375,-137.3159942626953 -37.83599853515625,-139.8719940185547 -34.029998779296875,-139.8719940185547 C-34.029998779296875,-139.8719940185547 36.50899887084961,-139.8719940185547 36.50899887084961,-139.8719940185547 C40.316001892089844,-139.8719940185547 43.70399856567383,-137.31500244140625 44.75,-133.65499877929688 C44.75,-133.65499877929688 48.250999450683594,-121.4209976196289 48.250999450683594,-121.4209976196289 C49.89699935913086,-115.66899871826172 55.15599822998047,-111.7030029296875 61.138999938964844,-111.7030029296875 C61.138999938964844,-111.7030029296875 185.5279998779297,-111.7030029296875 185.5279998779297,-111.7030029296875 C192.3419952392578,-111.7030029296875 198.1699981689453,-105.71700286865234 198.25399780273438,-98.63099670410156 C198.25399780273438,-98.63099670410156 198.25100708007812,-98.36000061035156 198.25100708007812,-98.36000061035156 C198.25100708007812,-98.36000061035156 190.7550048828125,126.65899658203125 190.7550048828125,126.65899658203125 C190.69400024414062,133.99899291992188 184.78500366210938,139.8719940185547 177.5279998779297,139.8719940185547 C177.5279998779297,139.8719940185547 -177.52699279785156,139.8719940185547 -177.52699279785156,139.8719940185547z"></path></g><g opacity="1" transform="matrix(1,0,0,1,257.68798828125,69.09500122070312)"><path fill="rgb(97,120,255)" fill-opacity="1" d=" M59.900001525878906,14.083999633789062 C53.91699981689453,14.083999633789062 48.65700149536133,10.119999885559082 47.01100158691406,4.367000102996826 C47.01100158691406,4.367000102996826 43.51100158691406,-7.868000030517578 43.51100158691406,-7.868000030517578 C42.46500015258789,-11.527999877929688 39.07699966430664,-14.083999633789062 35.27000045776367,-14.083999633789062 C35.27000045776367,-14.083999633789062 -35.26900100708008,-14.083999633789062 -35.26900100708008,-14.083999633789062 C-39.07500076293945,-14.083999633789062 -42.4640007019043,-11.529000282287598 -43.5099983215332,-7.872000217437744 C-43.5099983215332,-7.872000217437744 -47.01100158691406,4.367000102996826 -47.01100158691406,4.367000102996826 C-48.65700149536133,10.119000434875488 -53.91699981689453,14.083999633789062 -59.900001525878906,14.083999633789062 C-59.900001525878906,14.083999633789062 59.900001525878906,14.083999633789062 59.900001525878906,14.083999633789062z"></path></g><g opacity="1" transform="matrix(1,0,0,1,256.4490051269531,194.88299560546875)"><path fill="url(#__lottie_element_22182)" fill-opacity="1" d=" M185.52699279785156,-105.7030029296875 C185.52699279785156,-105.7030029296875 61.138999938964844,-105.7030029296875 61.138999938964844,-105.7030029296875 C52.47800064086914,-105.7030029296875 44.86600112915039,-111.44300079345703 42.483001708984375,-119.7699966430664 C42.483001708984375,-119.7699966430664 38.97999954223633,-132.00799560546875 38.97999954223633,-132.00799560546875 C38.66699981689453,-133.1060028076172 37.6510009765625,-133.8719940185547 36.50899887084961,-133.8719940185547 C36.50899887084961,-133.8719940185547 -34.029998779296875,-133.8719940185547 -34.029998779296875,-133.8719940185547 C-35.172000885009766,-133.8719940185547 -36.18899917602539,-133.1060028076172 -36.50199890136719,-132.00900268554688 C-36.50199890136719,-132.00900268554688 -40.00400161743164,-119.7699966430664 -40.00400161743164,-119.7699966430664 C-42.387001037597656,-111.44300079345703 -50,-105.7030029296875 -58.6609992980957,-105.7030029296875 C-58.6609992980957,-105.7030029296875 -184.5279998779297,-105.7030029296875 -184.5279998779297,-105.7030029296875 C-188.9029998779297,-105.7030029296875 -192.20899963378906,-102.63899993896484 -192.25399780273438,-98.56099700927734 C-192.25399780273438,-98.56099700927734 -184.75799560546875,126.44400024414062 -184.75799560546875,126.44400024414062 C-184.75799560546875,126.44400024414062 -184.7550048828125,126.6449966430664 -184.7550048828125,126.6449966430664 C-184.7550048828125,130.6300048828125 -181.51300048828125,133.8719940185547 -177.5279998779297,133.8719940185547 C-177.5279998779297,133.8719940185547 177.52699279785156,133.8719940185547 177.52699279785156,133.8719940185547 C181.51300048828125,133.8719940185547 184.7550048828125,130.6300048828125 184.7550048828125,126.6449966430664 C184.7550048828125,126.6449966430664 184.7550048828125,126.54499816894531 184.7550048828125,126.54499816894531 C184.7550048828125,126.54499816894531 192.25399780273438,-98.56099700927734 192.25399780273438,-98.56099700927734 C192.20899963378906,-102.375 189.0850067138672,-105.7030029296875 185.52699279785156,-105.7030029296875z"></path></g><g opacity="1" transform="matrix(1,0,0,1,257.68798828125,72.09500122070312)"><path fill="rgb(56,79,255)" fill-opacity="1" d=" M45.87099838256836,11.083999633789062 C43.74700164794922,8.86299991607666 42.13100051879883,6.120999813079834 41.24300003051758,3.0179998874664307 C41.24300003051758,3.0179998874664307 37.74100112915039,-9.220000267028809 37.74100112915039,-9.220000267028809 C37.428001403808594,-10.317999839782715 36.4119987487793,-11.083999633789062 35.27000045776367,-11.083999633789062 C35.27000045776367,-11.083999633789062 -35.27000045776367,-11.083999633789062 -35.27000045776367,-11.083999633789062 C-36.4119987487793,-11.083999633789062 -37.428001403808594,-10.317999839782715 -37.74100112915039,-9.220999717712402 C-37.74100112915039,-9.220999717712402 -41.24300003051758,3.0179998874664307 -41.24300003051758,3.0179998874664307 C-42.13100051879883,6.120999813079834 -43.74700164794922,8.86299991607666 -45.87099838256836,11.083999633789062 C-45.87099838256836,11.083999633789062 45.87099838256836,11.083999633789062 45.87099838256836,11.083999633789062z"></path></g></g><g style="display: block;" transform="matrix(1,0,0,1,0,22.4990234375)" opacity="0.33"><g opacity="1" transform="matrix(1,0,0,1,256.197998046875,220.4669952392578)"><path fill="rgb(170,124,75)" fill-opacity="1" d=" M-186.1999969482422,151.81199645996094 C-196.69200134277344,151.81199645996094 -199.66299438476562,143.2969970703125 -199.68800354003906,132.8159942626953 C-199.68800354003906,132.8159942626953 -201.197998046875,-103.0510025024414 -201.197998046875,-103.0510025024414 C-201.197998046875,-103.0510025024414 -201.19700622558594,-103.2959976196289 -201.19700622558594,-103.2959976196289 C-201.1790008544922,-111.44000244140625 -200.1909942626953,-118.0739974975586 -198.72900390625,-120.88400268554688 C-198.24099731445312,-121.8219985961914 -195.55599975585938,-122.33300018310547 -192.6999969482422,-122.33300018310547 C-192.6999969482422,-122.33300018310547 59.81999969482422,-122.33300018310547 59.81999969482422,-122.33300018310547 C66.2979965209961,-122.33300018310547 72.25399780273438,-132.7169952392578 75.33000183105469,-132.93699645996094 C75.33000183105469,-132.93699645996094 81.35900115966797,-133.3679962158203 81.35900115966797,-133.3679962158203 C84.37300109863281,-133.58299255371094 90.18599700927734,-133.7169952392578 96.52999877929688,-133.7169952392578 C96.52999877929688,-133.7169952392578 167.90699768066406,-133.7169952392578 167.90699768066406,-133.7169952392578 C175.56100463867188,-133.7169952392578 182.3769989013672,-133.5189971923828 184.4810028076172,-133.23500061035156 C184.4810028076172,-133.23500061035156 186.2030029296875,-133.0030059814453 186.2030029296875,-133.0030059814453 C186.2030029296875,-133.0030059814453 189.33999633789062,-122.33300018310547 189.33999633789062,-122.33300018310547 C189.33999633789062,-122.33300018310547 194.70199584960938,-122.33300018310547 194.70199584960938,-122.33300018310547 C196.94500732421875,-122.33300018310547 199.11399841308594,-121.87300109863281 199.43299865722656,-121.04000091552734 C200.50100708007812,-118.24700164794922 201.28799438476562,-111.25800323486328 201.302001953125,-103.31999969482422 C201.302001953125,-103.31999969482422 201.30099487304688,-102.80599975585938 201.30099487304688,-102.80599975585938 C201.30099487304688,-102.80599975585938 200.11399841308594,132.8159942626953 200.11399841308594,132.8159942626953 C200.093994140625,143.2969970703125 196.69400024414062,151.81199645996094 186.20199584960938,151.81199645996094 C186.20199584960938,151.81199645996094 -186.1999969482422,151.81199645996094 -186.1999969482422,151.81199645996094z"></path></g></g><g style="display: none;"><g><path></path></g></g><g style="display: block;" transform="matrix(1,0,0,1,0,29.9990234375)" opacity="1"><g opacity="1" transform="matrix(1,0,0,1,256.197998046875,220.4669952392578)"><path fill="rgb(170,124,75)" fill-opacity="1" d=" M-186.1999969482422,151.81199645996094 C-196.69200134277344,151.81199645996094 -205.30299377441406,143.2969970703125 -205.42799377441406,132.8159942626953 C-205.42799377441406,132.8159942626953 -212.93099975585938,-103.0510025024414 -212.93099975585938,-103.0510025024414 C-212.93099975585938,-103.0510025024414 -212.9290008544922,-103.2959976196289 -212.9290008544922,-103.2959976196289 C-212.81100463867188,-114.15699768066406 -204.11399841308594,-122.33300018310547 -192.6999969482422,-122.33300018310547 C-192.6999969482422,-122.33300018310547 59.81999969482422,-122.33300018310547 59.81999969482422,-122.33300018310547 C66.2979965209961,-122.33300018310547 72.25399780273438,-125.88700103759766 75.33000183105469,-131.58700561523438 C75.33000183105469,-131.58700561523438 81.35900115966797,-142.75900268554688 81.35900115966797,-142.75900268554688 C84.37300109863281,-148.34300231933594 90.18599700927734,-151.81199645996094 96.52999877929688,-151.81199645996094 C96.52999877929688,-151.81199645996094 167.90699768066406,-151.81199645996094 167.90699768066406,-151.81199645996094 C175.56100463867188,-151.81199645996094 182.3769989013672,-146.67100524902344 184.4810028076172,-139.31199645996094 C184.4810028076172,-139.31199645996094 189.33999633789062,-122.33300018310547 189.33999633789062,-122.33300018310547 C189.33999633789062,-122.33300018310547 194.70199584960938,-122.33300018310547 194.70199584960938,-122.33300018310547 C204.4669952392578,-122.33300018310547 212.81500244140625,-113.6259994506836 212.93099975585938,-103.31999969482422 C212.93099975585938,-103.31999969482422 212.9250030517578,-102.80599975585938 212.9250030517578,-102.80599975585938 C212.9250030517578,-102.80599975585938 205.42999267578125,132.8159942626953 205.42999267578125,132.8159942626953 C205.30499267578125,143.2969970703125 196.69400024414062,151.81199645996094 186.20199584960938,151.81199645996094 C186.20199584960938,151.81199645996094 -186.1999969482422,151.81199645996094 -186.1999969482422,151.81199645996094z"></path></g><g opacity="1" transform="matrix(1,0,0,1,421.30499267578125,94.86299896240234)"><path fill="url(#__lottie_element_22166)" fill-opacity="1" d=" M-29.44300079345703,26.20800018310547 C-29.44300079345703,26.20800018310547 29.44300079345703,26.20800018310547 29.44300079345703,26.20800018310547 C29.44300079345703,26.20800018310547 29.44300079345703,3.2709999084472656 29.44300079345703,3.2709999084472656 C29.44300079345703,3.2709999084472656 24.23200035095215,3.2709999084472656 24.23200035095215,3.2709999084472656 C24.23200035095215,3.2709999084472656 19.374000549316406,-13.708000183105469 19.374000549316406,-13.708000183105469 C17.270000457763672,-21.066999435424805 10.454000473022461,-26.20800018310547 2.799999952316284,-26.20800018310547 C2.799999952316284,-26.20800018310547 -29.44300079345703,-26.20800018310547 -29.44300079345703,-26.20800018310547"></path></g><g opacity="1" transform="matrix(1,0,0,1,347.71099853515625,94.86299896240234)"><path fill="url(#__lottie_element_22167)" fill-opacity="1" d=" M44.152000427246094,-26.20800018310547 C44.152000427246094,-26.20800018310547 5.017000198364258,-26.20800018310547 5.017000198364258,-26.20800018310547 C-1.3270000219345093,-26.20800018310547 -7.138999938964844,-22.73900032043457 -10.152999877929688,-17.155000686645508 C-10.152999877929688,-17.155000686645508 -16.18600082397461,-5.97599983215332 -16.18600082397461,-5.97599983215332 C-19.260000228881836,-0.2800000011920929 -25.211999893188477,3.2709999084472656 -31.684999465942383,3.2709999084472656 C-31.684999465942383,3.2709999084472656 -44.152000427246094,3.2709999084472656 -44.152000427246094,3.2709999084472656 C-44.152000427246094,3.2709999084472656 -44.152000427246094,26.20800018310547 -44.152000427246094,26.20800018310547 C-44.152000427246094,26.20800018310547 44.152000427246094,26.20800018310547 44.152000427246094,26.20800018310547"></path></g><g opacity="1" transform="matrix(1,0,0,1,256.197998046875,220.4669952392578)"><path fill="rgb(242,201,165)" fill-opacity="1" d=" M-186.2010040283203,145.81199645996094 C-193.45899963378906,145.81199645996094 -199.3699951171875,139.93600463867188 -199.4290008544922,132.69200134277344 C-199.4290008544922,132.69200134277344 -206.92999267578125,-103.1240005493164 -206.92999267578125,-103.1240005493164 C-206.92999267578125,-103.1240005493164 -206.9290008544922,-103.2509994506836 -206.9290008544922,-103.2509994506836 C-206.84800720214844,-110.70899963378906 -200.7310028076172,-116.33300018310547 -192.7010040283203,-116.33300018310547 C-192.7010040283203,-116.33300018310547 59.875999450683594,-116.33300018310547 59.875999450683594,-116.33300018310547 C68.52400207519531,-116.33300018310547 76.47599792480469,-121.0770034790039 80.58300018310547,-128.68800354003906 C80.58300018310547,-128.68800354003906 86.63899993896484,-139.90899658203125 86.63899993896484,-139.90899658203125 C88.60399627685547,-143.5500030517578 92.39399719238281,-145.81199645996094 96.52999877929688,-145.81199645996094 C96.52999877929688,-145.81199645996094 167.90699768066406,-145.81199645996094 167.90699768066406,-145.81199645996094 C172.89700317382812,-145.81199645996094 177.33999633789062,-142.46099853515625 178.71200561523438,-137.66299438476562 C178.71200561523438,-137.66299438476562 183.5709991455078,-120.68199920654297 183.5709991455078,-120.68199920654297 C184.30799865722656,-118.10700225830078 186.66200256347656,-116.33300018310547 189.33999633789062,-116.33300018310547 C189.33999633789062,-116.33300018310547 194.70199584960938,-116.33300018310547 194.70199584960938,-116.33300018310547 C201.13900756835938,-116.33300018310547 206.8520050048828,-110.22100067138672 206.92999267578125,-103.25299835205078 C206.92999267578125,-103.25299835205078 206.927001953125,-102.99600219726562 206.927001953125,-102.99600219726562 C206.927001953125,-102.99600219726562 199.42999267578125,132.69200134277344 199.42999267578125,132.69200134277344 C199.37100219726562,139.93600463867188 193.4600067138672,145.81199645996094 186.20199584960938,145.81199645996094 C186.20199584960938,145.81199645996094 -186.2010040283203,145.81199645996094 -186.2010040283203,145.81199645996094z"></path></g><g opacity="1" transform="matrix(1,0,0,1,256.1990051269531,220.4669952392578)"><path fill="url(#__lottie_element_22168)" fill-opacity="1" d=" M194.70199584960938,-110.33300018310547 C194.70199584960938,-110.33300018310547 189.33900451660156,-110.33300018310547 189.33900451660156,-110.33300018310547 C183.98300170898438,-110.33300018310547 179.2760009765625,-113.88200378417969 177.80299377441406,-119.03099822998047 C177.80299377441406,-119.03099822998047 172.9429931640625,-136.01400756835938 172.9429931640625,-136.01400756835938 C172.30299377441406,-138.25 170.23199462890625,-139.81199645996094 167.906005859375,-139.81199645996094 C167.906005859375,-139.81199645996094 96.52899932861328,-139.81199645996094 96.52899932861328,-139.81199645996094 C94.60099792480469,-139.81199645996094 92.83499908447266,-138.7570037841797 91.91899871826172,-137.05999755859375 C91.91899871826172,-137.05999755859375 85.83699798583984,-125.79100036621094 85.83699798583984,-125.79100036621094 C80.697998046875,-116.26899719238281 70.75,-110.33300018310547 59.93000030517578,-110.33300018310547 C59.93000030517578,-110.33300018310547 -192.70199584960938,-110.33300018310547 -192.70199584960938,-110.33300018310547 C-197.43800354003906,-110.33300018310547 -200.88400268554688,-107.33300018310547 -200.9290008544922,-103.18699645996094 C-200.9290008544922,-103.18699645996094 -193.4290008544922,132.58399963378906 -193.4290008544922,132.58399963378906 C-193.4290008544922,136.56900024414062 -190.18699645996094,139.81199645996094 -186.20199584960938,139.81199645996094 C-186.20199584960938,139.81199645996094 186.20199584960938,139.81199645996094 186.20199584960938,139.81199645996094 C190.18699645996094,139.81199645996094 193.4290008544922,136.56900024414062 193.4290008544922,132.58399963378906 C193.4290008544922,132.58399963378906 200.9290008544922,-103.18699645996094 200.9290008544922,-103.18699645996094 C200.88400268554688,-107.21800231933594 197.56199645996094,-110.33300018310547 194.70199584960938,-110.33300018310547z"></path></g><g opacity="1" transform="matrix(1,0,0,1,380.8059997558594,89.3949966430664)"><path fill="rgb(255,99,122)" fill-opacity="1" d=" M58.9640007019043,10.390000343322754 C58.9640007019043,10.390000343322754 54.10499954223633,-6.591000080108643 54.10499954223633,-6.591000080108643 C52.733001708984375,-11.388999938964844 48.28900146484375,-14.73900032043457 43.29899978637695,-14.73900032043457 C43.29899978637695,-14.73900032043457 -28.077999114990234,-14.73900032043457 -28.077999114990234,-14.73900032043457 C-32.2140007019043,-14.73900032043457 -36.00400161743164,-12.477999687194824 -37.96900177001953,-8.836999893188477 C-37.96900177001953,-8.836999893188477 -44.025001525878906,2.384000062942505 -44.025001525878906,2.384000062942505 C-48.13199996948242,9.994999885559082 -56.08399963378906,14.73900032043457 -64.73200225830078,14.73900032043457 C-64.73200225830078,14.73900032043457 64.73200225830078,14.73900032043457 64.73200225830078,14.73900032043457 C62.05400085449219,14.73900032043457 59.70100021362305,12.96500015258789 58.9640007019043,10.390000343322754z"></path></g><g opacity="1" transform="matrix(1,0,0,1,384.531005859375,92.3949966430664)"><path fill="rgb(255,26,48)" fill-opacity="1" d=" M50.61399841308594,11.73900032043457 C50.13199996948242,10.902999877929688 49.74399948120117,10 49.470001220703125,9.041000366210938 C49.470001220703125,9.041000366210938 44.611000061035156,-7.940999984741211 44.611000061035156,-7.940999984741211 C43.97100067138672,-10.177000045776367 41.900001525878906,-11.73900032043457 39.57400131225586,-11.73900032043457 C39.57400131225586,-11.73900032043457 -31.80299949645996,-11.73900032043457 -31.80299949645996,-11.73900032043457 C-33.73099899291992,-11.73900032043457 -35.49800109863281,-10.684000015258789 -36.41400146484375,-8.987000465393066 C-36.41400146484375,-8.987000465393066 -42.494998931884766,2.2809998989105225 -42.494998931884766,2.2809998989105225 C-44.52799987792969,6.046999931335449 -47.32099914550781,9.239999771118164 -50.61399841308594,11.73900032043457 C-50.61399841308594,11.73900032043457 50.61399841308594,11.73900032043457 50.61399841308594,11.73900032043457z"></path></g></g><g style="display: block;" transform="matrix(1.659999966621399,0,0,1.659999966621399,57.92500305175781,230.22503662109375)" opacity="1"><g opacity="1" transform="matrix(1,0,0,1,0,0)"><path fill="rgb(170,124,75)" fill-opacity="1" d=" M123.95899963378906,-4.47599983215332 C123.95899963378906,-10.456999778747559 128.73800659179688,-15.302000045776367 134.63900756835938,-15.302000045776367 C140.5399932861328,-15.302000045776367 145.32000732421875,-10.456999778747559 145.32000732421875,-4.47599983215332 C145.32000732421875,1.5049999952316284 140.5399932861328,6.348999977111816 134.63900756835938,6.348999977111816 C128.73800659179688,6.348999977111816 123.95899963378906,1.5049999952316284 123.95899963378906,-4.47599983215332z M106.15799713134766,2.5 C113.10800170898438,2.5 118.73699951171875,-3.2060000896453857 118.73699951171875,-10.25 C118.73699951171875,-17.29400062561035 113.10800170898438,-23 106.15799713134766,-23 C99.20800018310547,-23 93.5790023803711,-17.29400062561035 93.5790023803711,-10.25 C93.5790023803711,-3.2060000896453857 99.20800018310547,2.5 106.15799713134766,2.5z M134.63900756835938,11.76200008392334 C133.656005859375,11.76200008392334 132.53700256347656,11.831000328063965 131.33900451660156,11.968999862670898 C134.8520050048828,14.491999626159668 137.3159942626953,17.795000076293945 137.3159942626953,21.875 C137.3159942626953,21.875 137.3159942626953,27.059999465942383 137.3159942626953,27.059999465942383 C137.3159942626953,27.413000106811523 137.3040008544922,27.725000381469727 137.2760009765625,28 C137.2760009765625,28 154.12100219726562,28 154.12100219726562,28 C155.58999633789062,28 156,27.584999084472656 156,26.09600067138672 C156,26.09600067138672 156,22.586999893188477 156,22.586999893188477 C156,15.387999534606934 141.76800537109375,11.76200008392334 134.63900756835938,11.76200008392334z M106.15799713134766,8.875 C97.76100158691406,8.875 81,13.145999908447266 81,21.625 C81,21.625 81,25.756999969482422 81,25.756999969482422 C81,27.510000228881836 81.48300170898438,28 83.21299743652344,28 C83.21299743652344,28 129.10299682617188,28 129.10299682617188,28 C130.83299255371094,28 131.3159942626953,27.510000228881836 131.3159942626953,25.756999969482422 C131.3159942626953,25.756999969482422 131.3159942626953,21.625 131.3159942626953,21.625 C131.3159942626953,13.145999908447266 114.55500030517578,8.875 106.15799713134766,8.875z"></path></g></g><g style="display: block;" transform="matrix(1,0,0,1,0,22)" opacity="0.33"><g opacity="1" transform="matrix(1,0,0,1,255.947998046875,249.10299682617188)"><path fill="rgb(170,124,75)" fill-opacity="1" d=" M-194.87399291992188,156.68299865722656 C-200.5959930419922,156.68299865722656 -205.2899932861328,148.16600036621094 -205.35699462890625,137.6820068359375 C-205.35699462890625,137.6820068359375 -209.447998046875,-108.75499725341797 -209.447998046875,-108.75499725341797 C-209.447998046875,-108.75499725341797 -209.44700622558594,-108.99299621582031 -209.44700622558594,-108.99299621582031 C-209.40199279785156,-116.78600311279297 -208.947998046875,-116.10299682617188 -209.98899841308594,-126.197998046875 C-207.26400756835938,-127.37999725341797 -204.17999267578125,-128.03199768066406 -200.87399291992188,-128.03199768066406 C-200.87399291992188,-128.03199768066406 -193.3509979248047,-128.03199768066406 -193.3509979248047,-128.03199768066406 C-193.3509979248047,-128.03199768066406 -189.9010009765625,-140.08900451660156 -189.9010009765625,-140.08900451660156 C-189.9010009765625,-140.08900451660156 -188.66299438476562,-140.09300231933594 -188.66299438476562,-140.09300231933594 C-186.59500122070312,-140.0989990234375 -179.90499877929688,-140.10299682617188 -172.39300537109375,-140.10299682617188 C-172.39300537109375,-140.10299682617188 -103.0199966430664,-140.10299682617188 -103.0199966430664,-140.10299682617188 C-96.79100036621094,-140.10299682617188 -91.08499908447266,-140.10000610351562 -88.12699890136719,-140.0959930419922 C-88.12699890136719,-140.0959930419922 -84.08000183105469,-140.08999633789062 -84.08000183105469,-140.08999633789062 C-84.08000183105469,-140.08999633789062 -82.3479995727539,-137.08999633789062 -82.3479995727539,-137.08999633789062 C-79.33699798583984,-131.50999450683594 -73.50700378417969,-128.03199768066406 -67.16699981689453,-128.03199768066406 C-67.16699981689453,-128.03199768066406 203.87600708007812,-128.03199768066406 203.87600708007812,-128.03199768066406 C205.91200256347656,-128.03199768066406 209.08099365234375,-127.64299774169922 209.10899353027344,-126.9489974975586 C209.22500610351562,-124.12100219726562 209.30099487304688,-116.23300170898438 209.302001953125,-109.00800323486328 C209.302001953125,-109.00800323486328 209.302001953125,-108.51799774169922 209.302001953125,-108.51799774169922 C209.302001953125,-108.51799774169922 209.18099975585938,137.6820068359375 209.18099975585938,137.6820068359375 C209.1790008544922,148.16600036621094 205.3699951171875,156.68299865722656 194.87600708007812,156.68299865722656 C194.87600708007812,156.68299865722656 -194.87399291992188,156.68299865722656 -194.87399291992188,156.68299865722656z"></path></g></g><g style="display: block;" transform="matrix(1,0,0,1,0,30)" opacity="1"><g opacity="1" transform="matrix(1,0,0,1,255.947998046875,249.10299682617188)"><path fill="rgb(170,124,75)" fill-opacity="1" d=" M-194.87399291992188,156.68299865722656 C-205.3679962158203,156.68299865722656 -213.97900390625,148.16600036621094 -214.1020050048828,137.6820068359375 C-214.1020050048828,137.6820068359375 -221.60400390625,-108.75499725341797 -221.60400390625,-108.75499725341797 C-221.60400390625,-108.75499725341797 -221.60299682617188,-108.99299621582031 -221.60299682617188,-108.99299621582031 C-221.48699951171875,-119.8550033569336 -212.5749969482422,-128.03199768066406 -200.87399291992188,-128.03199768066406 C-200.87399291992188,-128.03199768066406 -193.3509979248047,-128.03199768066406 -193.3509979248047,-128.03199768066406 C-193.3509979248047,-128.03199768066406 -188.66299438476562,-144.4149932861328 -188.66299438476562,-144.4149932861328 C-186.59500122070312,-151.63900756835938 -179.90499877929688,-156.68299865722656 -172.39300537109375,-156.68299865722656 C-172.39300537109375,-156.68299865722656 -103.0199966430664,-156.68299865722656 -103.0199966430664,-156.68299865722656 C-96.79100036621094,-156.68299865722656 -91.08499908447266,-153.2790069580078 -88.12699890136719,-147.8000030517578 C-88.12699890136719,-147.8000030517578 -82.3479995727539,-137.08999633789062 -82.3479995727539,-137.08999633789062 C-79.33699798583984,-131.50999450683594 -73.50700378417969,-128.03199768066406 -67.16699981689453,-128.03199768066406 C-67.16699981689453,-128.03199768066406 203.87600708007812,-128.03199768066406 203.87600708007812,-128.03199768066406 C214.20599365234375,-128.03199768066406 221.50999450683594,-118.00599670410156 221.60400390625,-109.00800323486328 C221.60400390625,-109.00800323486328 221.5989990234375,-108.51799774169922 221.5989990234375,-108.51799774169922 C221.5989990234375,-108.51799774169922 214.10400390625,137.6820068359375 214.10400390625,137.6820068359375 C213.9810028076172,148.16600036621094 205.3699951171875,156.68299865722656 194.87600708007812,156.68299865722656 C194.87600708007812,156.68299865722656 -194.87399291992188,156.68299865722656 -194.87399291992188,156.68299865722656z"></path></g><g opacity="1" transform="matrix(1,0,0,1,156.55499267578125,128.1999969482422)"><path fill="url(#__lottie_element_22156)" fill-opacity="1" d=" M-35.26300048828125,35.779998779296875 C-35.26300048828125,35.779998779296875 35.268001556396484,35.779998779296875 35.268001556396484,35.779998779296875 C35.268001556396484,35.779998779296875 35.268001556396484,-7.130000114440918 35.268001556396484,-7.130000114440918 C35.268001556396484,-7.130000114440918 32.143001556396484,-7.130000114440918 32.143001556396484,-7.130000114440918 C25.854000091552734,-7.130000114440918 20.07200050354004,-10.579000473022461 17.084999084472656,-16.11400032043457 C17.084999084472656,-16.11400032043457 11.265999794006348,-26.89699935913086 11.265999794006348,-26.89699935913086 C8.307999610900879,-32.375999450683594 2.6029999256134033,-35.779998779296875 -3.625999927520752,-35.779998779296875 C-3.625999927520752,-35.779998779296875 -35.268001556396484,-35.779998779296875 -35.268001556396484,-35.779998779296875 C-35.268001556396484,-35.779998779296875 -35.26300048828125,35.779998779296875 -35.26300048828125,35.779998779296875z"></path></g><g opacity="1" transform="matrix(1,0,0,1,88.51799774169922,128.1999969482422)"><path fill="url(#__lottie_element_22157)" fill-opacity="1" d=" M32.76900100708008,-35.779998779296875 C32.76900100708008,-35.779998779296875 -4.9629998207092285,-35.779998779296875 -4.9629998207092285,-35.779998779296875 C-12.475000381469727,-35.779998779296875 -19.165000915527344,-30.736000061035156 -21.232999801635742,-23.511999130249023 C-21.232999801635742,-23.511999130249023 -25.92099952697754,-7.130000114440918 -25.92099952697754,-7.130000114440918 C-25.92099952697754,-7.130000114440918 -32.77399826049805,-7.130000114440918 -32.77399826049805,-7.130000114440918 C-32.77399826049805,-7.130000114440918 -32.77399826049805,35.779998779296875 -32.77399826049805,35.779998779296875 C-32.77399826049805,35.779998779296875 32.77399826049805,35.779998779296875 32.77399826049805,35.779998779296875 C32.77399826049805,35.779998779296875 32.76900100708008,-35.779998779296875 32.76900100708008,-35.779998779296875z"></path></g><g opacity="1" transform="matrix(1,0,0,1,255.947998046875,249.10299682617188)"><path fill="rgb(242,201,165)" fill-opacity="1" d=" M-194.875,150.68299865722656 C-202.13400268554688,150.68299865722656 -208.0449981689453,144.80599975585938 -208.10299682617188,137.55999755859375 C-208.10299682617188,137.55999755859375 -215.60400390625,-108.822998046875 -215.60400390625,-108.822998046875 C-215.60400390625,-108.822998046875 -215.60299682617188,-108.9469985961914 -215.60299682617188,-108.9469985961914 C-215.52200317382812,-116.52899932861328 -209.3280029296875,-122.03199768066406 -200.875,-122.03199768066406 C-200.875,-122.03199768066406 -193.3509979248047,-122.03199768066406 -193.3509979248047,-122.03199768066406 C-190.67300415039062,-122.03199768066406 -188.32000732421875,-123.80599975585938 -187.58299255371094,-126.38099670410156 C-187.58299255371094,-126.38099670410156 -182.89500427246094,-142.76499938964844 -182.89500427246094,-142.76499938964844 C-181.55999755859375,-147.427001953125 -177.24200439453125,-150.68299865722656 -172.39300537109375,-150.68299865722656 C-172.39300537109375,-150.68299865722656 -103.0199966430664,-150.68299865722656 -103.0199966430664,-150.68299865722656 C-99,-150.68299865722656 -95.31600189208984,-148.48500061035156 -93.40699768066406,-144.94900512695312 C-93.40699768066406,-144.94900512695312 -87.58699798583984,-134.1649932861328 -87.58699798583984,-134.1649932861328 C-83.55400085449219,-126.69100189208984 -75.74600219726562,-122.03199768066406 -67.25399780273438,-122.03199768066406 C-67.25399780273438,-122.03199768066406 203.875,-122.03199768066406 203.875,-122.03199768066406 C210.50999450683594,-122.03199768066406 215.5399932861328,-115.12300109863281 215.60400390625,-108.94499969482422 C215.60400390625,-108.94499969482422 215.6009979248047,-108.69999694824219 215.6009979248047,-108.69999694824219 C215.6009979248047,-108.69999694824219 208.10400390625,137.55999755859375 208.10400390625,137.55999755859375 C208.04600524902344,144.80599975585938 202.13400268554688,150.68299865722656 194.875,150.68299865722656 C194.875,150.68299865722656 -194.875,150.68299865722656 -194.875,150.68299865722656z"></path></g><g opacity="1" transform="matrix(1,0,0,1,125.64600372314453,112.74500274658203)"><path fill="rgb(255,175,95)" fill-opacity="1" d=" M42.715999603271484,2.193000078201294 C42.715999603271484,2.193000078201294 36.895999908447266,-8.592000007629395 36.895999908447266,-8.592000007629395 C34.98699951171875,-12.128000259399414 31.304000854492188,-14.324999809265137 27.283000946044922,-14.324999809265137 C27.283000946044922,-14.324999809265137 -42.09000015258789,-14.324999809265137 -42.09000015258789,-14.324999809265137 C-46.93899917602539,-14.324999809265137 -51.25699996948242,-11.069000244140625 -52.59199905395508,-6.4070000648498535 C-52.59199905395508,-6.4070000648498535 -57.28099822998047,9.97599983215332 -57.28099822998047,9.97599983215332 C-58.016998291015625,12.550000190734863 -60.37099838256836,14.324999809265137 -63.04899978637695,14.324999809265137 C-63.04899978637695,14.324999809265137 63.04899978637695,14.324999809265137 63.04899978637695,14.324999809265137 C54.555999755859375,14.324999809265137 46.749000549316406,9.666999816894531 42.715999603271484,2.193000078201294z"></path></g><g opacity="1" transform="matrix(1,0,0,1,255.94900512695312,249.10299682617188)"><path fill="url(#__lottie_element_22158)" fill-opacity="1" d=" M203.875,-116.03199768066406 C203.875,-116.03199768066406 -67.16799926757812,-116.03199768066406 -67.16799926757812,-116.03199768066406 C-77.91899871826172,-116.03199768066406 -87.8030014038086,-121.93000030517578 -92.90899658203125,-131.39100646972656 C-92.90899658203125,-131.39100646972656 -98.68800354003906,-142.0989990234375 -98.68800354003906,-142.0989990234375 C-99.5479965209961,-143.6929931640625 -101.20899963378906,-144.68299865722656 -103.02100372314453,-144.68299865722656 C-103.02100372314453,-144.68299865722656 -172.3939971923828,-144.68299865722656 -172.3939971923828,-144.68299865722656 C-174.5800018310547,-144.68299865722656 -176.52499389648438,-143.21499633789062 -177.1269989013672,-141.11399841308594 C-177.1269989013672,-141.11399841308594 -181.81500244140625,-124.73100280761719 -181.81500244140625,-124.73100280761719 C-183.28799438476562,-119.58200073242188 -187.99600219726562,-116.03199768066406 -193.3520050048828,-116.03199768066406 C-193.3520050048828,-116.03199768066406 -200.875,-116.03199768066406 -200.875,-116.03199768066406 C-205.98199462890625,-116.03199768066406 -209.5590057373047,-113.09700012207031 -209.60299682617188,-108.88300323486328 C-209.60299682617188,-108.88300323486328 -202.10299682617188,137.45399475097656 -202.10299682617188,137.45399475097656 C-202.10299682617188,141.43899536132812 -198.86000061035156,144.68299865722656 -194.875,144.68299865722656 C-194.875,144.68299865722656 194.875,144.68299865722656 194.875,144.68299865722656 C198.86000061035156,144.68299865722656 202.10299682617188,141.43899536132812 202.10299682617188,137.45399475097656 C202.10299682617188,137.45399475097656 209.60299682617188,-108.88300323486328 209.60299682617188,-108.88300323486328 C209.55999755859375,-113.03500366210938 206.16700744628906,-116.03199768066406 203.875,-116.03199768066406z"></path></g><g opacity="1" transform="matrix(1,0,0,1,122.02200317382812,115.74500274658203)"><path fill="rgb(255,146,28)" fill-opacity="1" d=" M49.03200149536133,11.324999809265137 C45.78200149536133,8.847999572753906 43.027000427246094,5.689000129699707 41.018001556396484,1.9670000076293945 C41.018001556396484,1.9670000076293945 35.2400016784668,-8.741000175476074 35.2400016784668,-8.741000175476074 C34.380001068115234,-10.335000038146973 32.71900177001953,-11.324999809265137 30.906999588012695,-11.324999809265137 C30.906999588012695,-11.324999809265137 -38.465999603271484,-11.324999809265137 -38.465999603271484,-11.324999809265137 C-40.652000427246094,-11.324999809265137 -42.597999572753906,-9.857999801635742 -43.20000076293945,-7.756999969482422 C-43.20000076293945,-7.756999969482422 -47.88800048828125,8.62600040435791 -47.88800048828125,8.62600040435791 C-48.1619987487793,9.586000442504883 -48.54999923706055,10.48900032043457 -49.03200149536133,11.324999809265137 C-49.03200149536133,11.324999809265137 49.03200149536133,11.324999809265137 49.03200149536133,11.324999809265137z"></path></g></g><g style="display: block;" transform="matrix(1,0,0,1,0,19.9990234375)" opacity="0.33"><g opacity="1" transform="matrix(1,0,0,1,255.697998046875,278.7869873046875)"><path fill="rgb(170,124,75)" fill-opacity="1" d=" M-203.54800415039062,162.78199768066406 C-209.39999389648438,162.78199768066406 -214.2010040283203,154.26100158691406 -214.26600646972656,143.77200317382812 C-214.26600646972656,143.77200317382812 -218.447998046875,-113.2300033569336 -218.447998046875,-113.2300033569336 C-218.447998046875,-113.2300033569336 -218.44700622558594,-113.46099853515625 -218.44700622558594,-113.46099853515625 C-218.40499877929688,-120.98500061035156 -219.447998046875,-126.03700256347656 -219.10899353027344,-130.3470001220703 C-216.14500427246094,-131.7310028076172 -212.73199462890625,-132.5030059814453 -209.04800415039062,-132.5030059814453 C-209.04800415039062,-132.5030059814453 -67.5459976196289,-132.5030059814453 -67.5459976196289,-132.5030059814453 C-61.59299850463867,-132.5030059814453 -56.361000061035156,-136.447998046875 -54.722999572753906,-142.1719970703125 C-54.722999572753906,-142.1719970703125 -52.04199981689453,-145.28799438476562 -52.04199981689453,-145.28799438476562 C-50.1510009765625,-145.28799438476562 -44.020999908447266,-145.28700256347656 -37.13399887084961,-145.28700256347656 C-37.13399887084961,-145.28700256347656 41.112998962402344,-145.28700256347656 41.112998962402344,-145.28700256347656 C48,-145.28700256347656 54.130001068115234,-145.28799438476562 56.02299880981445,-145.28799438476562 C56.02299880981445,-145.28799438476562 58.790000915527344,-141.86900329589844 58.790000915527344,-141.86900329589844 C60.375999450683594,-136.3249969482422 65.44499969482422,-132.5030059814453 71.21099853515625,-132.5030059814453 C71.21099853515625,-132.5030059814453 213.0500030517578,-132.5030059814453 213.0500030517578,-132.5030059814453 C215.0760040283203,-132.5030059814453 217.052001953125,-132.05999755859375 218.8990020751953,-131.25900268554688 C218.55299377441406,-123.03700256347656 218.7570037841797,-121.34600067138672 218.802001953125,-113.47000122070312 C218.802001953125,-113.47000122070312 218.80099487304688,-113.10099792480469 218.80099487304688,-113.10099792480469 C218.80099487304688,-113.10099792480469 214.52200317382812,143.77200317382812 214.52200317382812,143.77200317382812 C214.4550018310547,154.26100158691406 209.54100036621094,162.78199768066406 203.5500030517578,162.78199768066406 C203.5500030517578,162.78199768066406 -203.54800415039062,162.78199768066406 -203.54800415039062,162.78199768066406z"></path></g></g><g style="display: none;"><g><path></path></g></g><g style="display: block;" transform="matrix(1,0,0,1,0,29.9990234375)" opacity="1"><g opacity="1" transform="matrix(1,0,0,1,255.697998046875,278.7869873046875)"><path fill="rgb(170,124,75)" fill-opacity="1" d=" M-203.54800415039062,162.78199768066406 C-214.0469970703125,162.78199768066406 -222.6580047607422,154.26100158691406 -222.77499389648438,143.77200317382812 C-222.77499389648438,143.77200317382812 -230.2779998779297,-113.2300033569336 -230.2779998779297,-113.2300033569336 C-230.2779998779297,-113.2300033569336 -230.2760009765625,-113.46099853515625 -230.2760009765625,-113.46099853515625 C-230.16700744628906,-124.31999969482422 -221.04100036621094,-132.5030059814453 -209.04800415039062,-132.5030059814453 C-209.04800415039062,-132.5030059814453 -67.5459976196289,-132.5030059814453 -67.5459976196289,-132.5030059814453 C-61.59299850463867,-132.5030059814453 -56.361000061035156,-136.447998046875 -54.722999572753906,-142.1719970703125 C-54.722999572753906,-142.1719970703125 -52.04199981689453,-151.54100036621094 -52.04199981689453,-151.54100036621094 C-50.1510009765625,-158.15899658203125 -44.020999908447266,-162.78199768066406 -37.13399887084961,-162.78199768066406 C-37.13399887084961,-162.78199768066406 41.112998962402344,-162.78199768066406 41.112998962402344,-162.78199768066406 C48,-162.78199768066406 54.130001068115234,-158.1580047607422 56.02299880981445,-151.53799438476562 C56.02299880981445,-151.53799438476562 58.790000915527344,-141.86900329589844 58.790000915527344,-141.86900329589844 C60.375999450683594,-136.3249969482422 65.44499969482422,-132.5030059814453 71.21099853515625,-132.5030059814453 C71.21099853515625,-132.5030059814453 213.0500030517578,-132.5030059814453 213.0500030517578,-132.5030059814453 C222.1269989013672,-132.5030059814453 230.177001953125,-123.61000061035156 230.2779998779297,-113.47000122070312 C230.2779998779297,-113.47000122070312 230.27499389648438,-113.10099792480469 230.27499389648438,-113.10099792480469 C230.27499389648438,-113.10099792480469 222.77699279785156,143.77200317382812 222.77699279785156,143.77200317382812 C222.66000366210938,154.26100158691406 214.0489959716797,162.78199768066406 203.5500030517578,162.78199768066406 C203.5500030517578,162.78199768066406 -203.54800415039062,162.78199768066406 -203.54800415039062,162.78199768066406z"></path></g><g opacity="1" transform="matrix(1,0,0,1,298.34600830078125,148.4759979248047)"><path fill="url(#__lottie_element_22143)" fill-opacity="1" d=" M-40.65800094604492,32.47100067138672 C-40.65800094604492,32.47100067138672 40.65800094604492,32.47100067138672 40.65800094604492,32.47100067138672 C40.65800094604492,32.47100067138672 40.65800094604492,-2.193000078201294 40.65800094604492,-2.193000078201294 C40.65800094604492,-2.193000078201294 28.562999725341797,-2.193000078201294 28.562999725341797,-2.193000078201294 C22.79599952697754,-2.193000078201294 17.72800064086914,-6.013999938964844 16.142000198364258,-11.557999610900879 C16.142000198364258,-11.557999610900879 13.375,-21.226999282836914 13.375,-21.226999282836914 C11.482000350952148,-27.847000122070312 5.3520002365112305,-32.47100067138672 -1.534999966621399,-32.47100067138672 C-1.534999966621399,-32.47100067138672 -40.65800094604492,-32.47100067138672 -40.65800094604492,-32.47100067138672"></path></g><g opacity="1" transform="matrix(1,0,0,1,215.0399932861328,148.4759979248047)"><path fill="url(#__lottie_element_22144)" fill-opacity="1" d=" M42.64799880981445,-32.47100067138672 C42.64799880981445,-32.47100067138672 3.5239999294281006,-32.47100067138672 3.5239999294281006,-32.47100067138672 C-3.36299991607666,-32.47100067138672 -9.493000030517578,-27.847999572753906 -11.383999824523926,-21.229999542236328 C-11.383999824523926,-21.229999542236328 -14.0649995803833,-11.862000465393066 -14.0649995803833,-11.862000465393066 C-15.70300006866455,-6.138000011444092 -20.93400001525879,-2.193000078201294 -26.88800048828125,-2.193000078201294 C-26.88800048828125,-2.193000078201294 -42.64899826049805,-2.193000078201294 -42.64899826049805,-2.193000078201294 C-42.64899826049805,-2.193000078201294 -42.64899826049805,32.47100067138672 -42.64899826049805,32.47100067138672 C-42.64899826049805,32.47100067138672 42.64899826049805,32.47100067138672 42.64899826049805,32.47100067138672"></path></g><g opacity="1" transform="matrix(1,0,0,1,255.697998046875,278.7869873046875)"><path fill="rgb(242,201,165)" fill-opacity="1" d=" M-203.54800415039062,156.78199768066406 C-210.8090057373047,156.78199768066406 -216.7220001220703,150.9029998779297 -216.77699279785156,143.65499877929688 C-216.77699279785156,143.65499877929688 -224.2779998779297,-113.29199981689453 -224.2779998779297,-113.29199981689453 C-224.2779998779297,-113.29199981689453 -224.27699279785156,-113.41100311279297 -224.27699279785156,-113.41100311279297 C-224.2010040283203,-120.99700164794922 -217.79600524902344,-126.50299835205078 -209.04800415039062,-126.50299835205078 C-209.04800415039062,-126.50299835205078 -67.62200164794922,-126.50299835205078 -67.62200164794922,-126.50299835205078 C-58.94599914550781,-126.50299835205078 -51.32099914550781,-132.2519989013672 -48.933998107910156,-140.59300231933594 C-48.933998107910156,-140.59300231933594 -46.27399826049805,-149.88999938964844 -46.27399826049805,-149.88999938964844 C-45.1150016784668,-153.94700622558594 -41.35599899291992,-156.78199768066406 -37.13399887084961,-156.78199768066406 C-37.13399887084961,-156.78199768066406 41.112998962402344,-156.78199768066406 41.112998962402344,-156.78199768066406 C45.33599853515625,-156.78199768066406 49.09400177001953,-153.94700622558594 50.25400161743164,-149.88800048828125 C50.25400161743164,-149.88800048828125 53.02299880981445,-140.2100067138672 53.02299880981445,-140.2100067138672 C55.34400177001953,-132.0959930419922 62.76300048828125,-126.50299835205078 71.2020034790039,-126.50299835205078 C71.2020034790039,-126.50299835205078 213.0489959716797,-126.50299835205078 213.0489959716797,-126.50299835205078 C218.1820068359375,-126.50299835205078 224.2050018310547,-120.78399658203125 224.2779998779297,-113.41100311279297 C224.2779998779297,-113.41100311279297 224.27499389648438,-113.1760025024414 224.27499389648438,-113.1760025024414 C224.27499389648438,-113.1760025024414 216.7779998779297,143.65499877929688 216.7779998779297,143.65499877929688 C216.72300720214844,150.9029998779297 210.80999755859375,156.78199768066406 203.5489959716797,156.78199768066406 C203.5489959716797,156.78199768066406 -203.54800415039062,156.78199768066406 -203.54800415039062,156.78199768066406z"></path></g><g opacity="1" transform="matrix(1,0,0,1,257.4880065917969,137.1439971923828)"><path fill="rgb(97,120,255)" fill-opacity="1" d=" M69.41200256347656,15.138999938964844 C60.972999572753906,15.138999938964844 53.55400085449219,9.545999526977539 51.233001708984375,1.4320000410079956 C51.233001708984375,1.4320000410079956 48.4640007019043,-8.246000289916992 48.4640007019043,-8.246000289916992 C47.30400085449219,-12.305000305175781 43.54600143432617,-15.138999938964844 39.323001861572266,-15.138999938964844 C39.323001861572266,-15.138999938964844 -38.92399978637695,-15.138999938964844 -38.92399978637695,-15.138999938964844 C-43.145999908447266,-15.138999938964844 -46.904998779296875,-12.305000305175781 -48.06399917602539,-8.248000144958496 C-48.06399917602539,-8.248000144958496 -50.7239990234375,1.0490000247955322 -50.7239990234375,1.0490000247955322 C-53.111000061035156,9.390000343322754 -60.73699951171875,15.138999938964844 -69.41200256347656,15.138999938964844 C-69.41200256347656,15.138999938964844 69.41200256347656,15.138999938964844 69.41200256347656,15.138999938964844z"></path></g><g opacity="1" transform="matrix(1,0,0,1,255.69900512695312,278.7869873046875)"><path fill="url(#__lottie_element_22145)" fill-opacity="1" d=" M213.0489959716797,-120.50299835205078 C213.0489959716797,-120.50299835205078 71.12000274658203,-120.50299835205078 71.12000274658203,-120.50299835205078 C60.05099868774414,-120.50299835205078 50.321998596191406,-127.83899688720703 47.277000427246094,-138.4810028076172 C47.277000427246094,-138.4810028076172 44.48400115966797,-148.24000549316406 44.48400115966797,-148.24000549316406 C44.055999755859375,-149.73699951171875 42.66999816894531,-150.78199768066406 41.11199951171875,-150.78199768066406 C41.11199951171875,-150.78199768066406 -37.1349983215332,-150.78199768066406 -37.1349983215332,-150.78199768066406 C-38.69200134277344,-150.78199768066406 -40.077999114990234,-149.73699951171875 -40.50600051879883,-148.24000549316406 C-40.50600051879883,-148.24000549316406 -43.16600036621094,-138.9429931640625 -43.16600036621094,-138.9429931640625 C-46.28900146484375,-128.02699279785156 -56.268001556396484,-120.50299835205078 -67.62200164794922,-120.50299835205078 C-67.62200164794922,-120.50299835205078 -209.0489959716797,-120.50299835205078 -209.0489959716797,-120.50299835205078 C-214.53599548339844,-120.50299835205078 -218.23399353027344,-117.63200378417969 -218.27699279785156,-113.3499984741211 C-218.27699279785156,-113.3499984741211 -210.77699279785156,143.55299377441406 -210.77699279785156,143.55299377441406 C-210.77699279785156,147.53799438476562 -207.53399658203125,150.78199768066406 -203.5489959716797,150.78199768066406 C-203.5489959716797,150.78199768066406 203.5489959716797,150.78199768066406 203.5489959716797,150.78199768066406 C207.53399658203125,150.78199768066406 210.77699279785156,147.53799438476562 210.77699279785156,143.55299377441406 C210.77699279785156,143.55299377441406 218.27699279785156,-113.35099792480469 218.27699279785156,-113.35099792480469 C218.23599243164062,-117.48799896240234 214.82699584960938,-120.50299835205078 213.0489959716797,-120.50299835205078z"></path></g><g opacity="1" transform="matrix(1,0,0,1,257.5610046386719,140.1439971923828)"><path fill="rgb(56,79,255)" fill-opacity="1" d=" M53.10300064086914,12.138999938964844 C49.51499938964844,9.057000160217285 46.78499984741211,4.947999954223633 45.415000915527344,0.16099999845027924 C45.415000915527344,0.16099999845027924 42.62200164794922,-9.597000122070312 42.62200164794922,-9.597000122070312 C42.194000244140625,-11.093999862670898 40.80799865722656,-12.138999938964844 39.25,-12.138999938964844 C39.25,-12.138999938964844 -38.99700164794922,-12.138999938964844 -38.99700164794922,-12.138999938964844 C-40.55400085449219,-12.138999938964844 -41.939998626708984,-11.093999862670898 -42.36800003051758,-9.597000122070312 C-42.36800003051758,-9.597000122070312 -45.02799987792969,-0.3009999990463257 -45.02799987792969,-0.3009999990463257 C-46.457000732421875,4.690999984741211 -49.33100128173828,8.961000442504883 -53.10300064086914,12.138999938964844 C-53.10300064086914,12.138999938964844 53.10300064086914,12.138999938964844 53.10300064086914,12.138999938964844z"></path></g></g><g style="display: block;" transform="matrix(2,0,0,2,19,284.4970397949219)" opacity="1"><g opacity="1" transform="matrix(1,0,0,1,0,0)"><path fill="rgb(170,124,75)" fill-opacity="1" d=" M148,-17.677000045776367 C148,-17.677000045776367 148,16.27899932861328 148,16.27899932861328 C148,19.2189998626709 145.61700439453125,21.60099983215332 142.677001953125,21.60099983215332 C141.7790069580078,21.60099983215332 140.89500427246094,21.374000549316406 140.10800170898438,20.940000534057617 C140.10800170898438,20.940000534057617 128.58599853515625,14.58899974822998 128.58599853515625,14.58899974822998 C126.98999786376953,13.710000038146973 126,12.032999992370605 126,10.211000442504883 C126,10.211000442504883 126,-11.211999893188477 126,-11.211999893188477 C126,-12.987000465393066 126.94100189208984,-14.630000114440918 128.47300720214844,-15.527000427246094 C128.47300720214844,-15.527000427246094 139.98800659179688,-22.270000457763672 139.98800659179688,-22.270000457763672 C142.52499389648438,-23.7549991607666 145.78500366210938,-22.902999877929688 147.27000427246094,-20.365999221801758 C147.7480010986328,-19.549999237060547 148,-18.621999740600586 148,-17.677000045776367z M117,-13.520999908447266 C117,-13.520999908447266 98,-13.520999908447266 98,-13.520999908447266 C93.02899932861328,-13.520999908447266 89,-9.491999626159668 89,-4.520999908447266 C89,-4.520999908447266 89,4.511000156402588 89,4.511000156402588 C89,9.333999633789062 92.91000366210938,13.244999885559082 97.73300170898438,13.244999885559082 C97.73300170898438,13.244999885559082 101.4010009765625,13.244999885559082 101.4010009765625,13.244999885559082 C101.4010009765625,13.244999885559082 105.31600189208984,24.916000366210938 105.31600189208984,24.916000366210938 C106.1969985961914,27.542999267578125 108.76300048828125,29.225000381469727 111.52400207519531,28.985000610351562 C111.52400207519531,28.985000610351562 113.47200012207031,28.815000534057617 113.47200012207031,28.815000534057617 C113.48100280761719,28.81399917602539 113.48899841308594,28.81399917602539 113.49800109863281,28.812999725341797 C115.14700317382812,28.655000686645508 116.35600280761719,27.190000534057617 116.197998046875,25.541000366210938 C116.197998046875,25.541000366210938 115.11399841308594,14.22599983215332 115.11399841308594,14.22599983215332 C115.08200073242188,13.894000053405762 115.03199768066406,13.567000389099121 114.96600341796875,13.244999885559082 C114.96600341796875,13.244999885559082 117,13.244999885559082 117,13.244999885559082 C118.65699768066406,13.244999885559082 120,11.902000427246094 120,10.244999885559082 C120,10.244999885559082 120,-10.520999908447266 120,-10.520999908447266 C120,-12.178000450134277 118.65699768066406,-13.520999908447266 117,-13.520999908447266z"></path></g></g><g style="display: block;" transform="matrix(1,0,0,1,0,17.9990234375)" opacity="0.33"><g opacity="1" transform="matrix(1,0,0,1,255.4459991455078,310.9070129394531)"><path fill="rgb(170,124,75)" fill-opacity="1" d=" M-199.9459991455078,169.0780029296875 C-210.4409942626953,169.0780029296875 -218.8939971923828,160.86000061035156 -219.19000244140625,150.36900329589844 C-219.19000244140625,150.36900329589844 -226.68699645996094,-116.98699951171875 -226.68699645996094,-116.98699951171875 C-226.90499877929688,-124.87999725341797 -226.9459991455078,-127.90699768066406 -227.3419952392578,-135.197998046875 C-224.94500732421875,-136.2449951171875 -222.3159942626953,-136.7760009765625 -219.52999877929688,-136.7760009765625 C-219.52999877929688,-136.7760009765625 71.37899780273438,-136.7760009765625 71.37899780273438,-136.7760009765625 C78.79299926757812,-136.7760009765625 85.61499786376953,-140.82699584960938 89.16400146484375,-147.33599853515625 C89.16400146484375,-147.33599853515625 91.15499877929688,-150.98800659179688 91.15499877929688,-150.98800659179688 C91.15499877929688,-150.98800659179688 95.81099700927734,-150.71400451660156 95.81099700927734,-150.71400451660156 C98.93599700927734,-150.52499389648438 105.10900115966797,-150.40699768066406 111.89199829101562,-150.40699768066406 C111.89199829101562,-150.40699768066406 190.10800170898438,-150.40699768066406 190.10800170898438,-150.40699768066406 C198.22999572753906,-150.40699768066406 205.47000122070312,-150.58200073242188 207.71200561523438,-150.83299255371094 C207.71200561523438,-150.83299255371094 209.54800415039062,-149.406005859375 209.54800415039062,-149.406005859375 C209.54800415039062,-149.406005859375 213.16299438476562,-136.7760009765625 213.16299438476562,-136.7760009765625 C213.16299438476562,-136.7760009765625 219.697998046875,-136.7760009765625 219.697998046875,-136.7760009765625 C222.5,-136.7760009765625 225.1909942626953,-136.17799377441406 227.6300048828125,-135.0780029296875 C227.55299377441406,-131.4080047607422 225.66200256347656,-129.42100524902344 227.57699584960938,-124.68199920654297 C228.55799865722656,-122.24400329589844 229.01400756835938,-119.5989990234375 228.93499755859375,-116.81800079345703 C228.93499755859375,-116.81800079345703 221.44400024414062,150.36700439453125 221.44400024414062,150.36700439453125 C221.1479949951172,160.85899353027344 212.6959991455078,169.0780029296875 202.2010040283203,169.0780029296875 C202.2010040283203,169.0780029296875 -199.9459991455078,169.0780029296875 -199.9459991455078,169.0780029296875z"></path></g></g><g style="display: block;" transform="matrix(1,0,0,1,0,29.9990234375)" opacity="1"><g opacity="1" transform="matrix(1,0,0,1,255.4459991455078,310.9070129394531)"><path fill="rgb(170,124,75)" fill-opacity="1" d=" M-212.1959991455078,169.0780029296875 C-222.6909942626953,169.0780029296875 -231.1439971923828,160.86000061035156 -231.44000244140625,150.36900329589844 C-231.44000244140625,150.36900329589844 -238.93699645996094,-116.98699951171875 -238.93699645996094,-116.98699951171875 C-239.15499877929688,-124.87999725341797 -234.60400390625,-132.02699279785156 -227.3419952392578,-135.197998046875 C-224.94500732421875,-136.2449951171875 -222.3159942626953,-136.7760009765625 -219.52999877929688,-136.7760009765625 C-219.52999877929688,-136.7760009765625 71.37899780273438,-136.7760009765625 71.37899780273438,-136.7760009765625 C78.79299926757812,-136.7760009765625 85.61499786376953,-140.82699584960938 89.16400146484375,-147.33599853515625 C89.16400146484375,-147.33599853515625 95.81099700927734,-159.5279998779297 95.81099700927734,-159.5279998779297 C98.93599700927734,-165.3979949951172 105.10900115966797,-169.0780029296875 111.89199829101562,-169.0780029296875 C111.89199829101562,-169.0780029296875 190.10800170898438,-169.0780029296875 190.10800170898438,-169.0780029296875 C198.22999572753906,-169.0780029296875 205.47000122070312,-163.6269989013672 207.71200561523438,-155.82200622558594 C207.71200561523438,-155.82200622558594 213.16299438476562,-136.7760009765625 213.16299438476562,-136.7760009765625 C213.16299438476562,-136.7760009765625 219.697998046875,-136.7760009765625 219.697998046875,-136.7760009765625 C227.59100341796875,-136.7760009765625 234.60800170898438,-132.0290069580078 237.57699584960938,-124.68199920654297 C238.55799865722656,-122.24400329589844 239.01400756835938,-119.5989990234375 238.93499755859375,-116.81800079345703 C238.93499755859375,-116.81800079345703 231.44400024414062,150.36700439453125 231.44400024414062,150.36700439453125 C231.1479949951172,160.85899353027344 222.6959991455078,169.0780029296875 212.2010040283203,169.0780029296875 C212.2010040283203,169.0780029296875 -212.1959991455078,169.0780029296875 -212.1959991455078,169.0780029296875z"></path></g><g opacity="1" transform="matrix(1,0,0,1,438.2080078125,168.90699768066406)"><path fill="url(#__lottie_element_22131)" fill-opacity="1" d=" M-35.766998291015625,27.077999114990234 C-35.766998291015625,27.077999114990234 35.766998291015625,27.077999114990234 35.766998291015625,27.077999114990234 C35.766998291015625,27.077999114990234 35.766998291015625,5.223999977111816 35.766998291015625,5.223999977111816 C35.766998291015625,5.223999977111816 30.400999069213867,5.223999977111816 30.400999069213867,5.223999977111816 C30.400999069213867,5.223999977111816 24.950000762939453,-13.821999549865723 24.950000762939453,-13.821999549865723 C22.70800018310547,-21.62700080871582 15.468000411987305,-27.077999114990234 7.3460001945495605,-27.077999114990234 C7.3460001945495605,-27.077999114990234 -35.76599884033203,-27.077999114990234 -35.76599884033203,-27.077999114990234 C-35.76599884033203,-27.077999114990234 -35.766998291015625,27.077999114990234 -35.766998291015625,27.077999114990234z"></path></g><g opacity="1" transform="matrix(1,0,0,1,360.81298828125,168.90699768066406)"><path fill="url(#__lottie_element_22132)" fill-opacity="1" d=" M41.630001068115234,-27.077999114990234 C41.630001068115234,-27.077999114990234 6.526000022888184,-27.077999114990234 6.526000022888184,-27.077999114990234 C-0.25699999928474426,-27.077999114990234 -6.429999828338623,-23.398000717163086 -9.555000305175781,-17.527999877929688 C-9.555000305175781,-17.527999877929688 -16.194000244140625,-5.353000164031982 -16.194000244140625,-5.353000164031982 C-19.749000549316406,1.1670000553131104 -26.582000732421875,5.223999977111816 -34.007999420166016,5.223999977111816 C-34.007999420166016,5.223999977111816 -41.630001068115234,5.223999977111816 -41.630001068115234,5.223999977111816 C-41.630001068115234,5.223999977111816 -41.630001068115234,27.077999114990234 -41.630001068115234,27.077999114990234 C-41.630001068115234,27.077999114990234 41.62799835205078,27.077999114990234 41.62799835205078,27.077999114990234 C41.62799835205078,27.077999114990234 41.630001068115234,-27.077999114990234 41.630001068115234,-27.077999114990234z"></path></g><g opacity="1" transform="matrix(1,0,0,1,255.4459991455078,310.9070129394531)"><path fill="url(#__lottie_element_22133)" fill-opacity="1" d=" M-212.1959991455078,163.0780029296875 C-219.4199981689453,163.0780029296875 -225.23899841308594,157.42100524902344 -225.44200134277344,150.1999969482422 C-225.44200134277344,150.1999969482422 -232.93899536132812,-117.15499877929688 -232.93899536132812,-117.15499877929688 C-233.08900451660156,-122.58999633789062 -229.9499969482422,-127.51200103759766 -224.9409942626953,-129.6999969482422 C-223.30599975585938,-130.41400146484375 -221.48500061035156,-130.7760009765625 -219.52999877929688,-130.7760009765625 C-219.52999877929688,-130.7760009765625 71.37899780273438,-130.7760009765625 71.37899780273438,-130.7760009765625 C80.98899841308594,-130.7760009765625 89.83200073242188,-136.02699279785156 94.43199920654297,-144.46499633789062 C94.43199920654297,-144.46499633789062 101.0790023803711,-156.656005859375 101.0790023803711,-156.656005859375 C103.1780014038086,-160.5970001220703 107.33100128173828,-163.0780029296875 111.89199829101562,-163.0780029296875 C111.89199829101562,-163.0780029296875 190.10800170898438,-163.0780029296875 190.10800170898438,-163.0780029296875 C195.56900024414062,-163.0780029296875 200.43699645996094,-159.41299438476562 201.94500732421875,-154.1649932861328 C201.94500732421875,-154.1649932861328 207.3939971923828,-135.12600708007812 207.3939971923828,-135.12600708007812 C208.13099670410156,-132.55099487304688 210.48500061035156,-130.7760009765625 213.16299438476562,-130.7760009765625 C213.16299438476562,-130.7760009765625 219.697998046875,-130.7760009765625 219.697998046875,-130.7760009765625 C225.1320037841797,-130.7760009765625 229.96600341796875,-127.50199890136719 232.01400756835938,-122.43399810791016 C232.6840057373047,-120.7699966430664 232.9929962158203,-118.93900299072266 232.93699645996094,-116.98899841308594 C232.93699645996094,-116.98899841308594 225.4459991455078,150.19900512695312 225.4459991455078,150.19900512695312 C225.2429962158203,157.42100524902344 219.4250030517578,163.0780029296875 212.2010040283203,163.0780029296875 C212.2010040283203,163.0780029296875 -212.1959991455078,163.0780029296875 -212.1959991455078,163.0780029296875z"></path></g><g opacity="1" transform="matrix(1,0,0,1,397.7170104980469,163.97999572753906)"><path fill="rgb(255,99,122)" fill-opacity="1" d=" M70.89199829101562,16.150999069213867 C68.21399688720703,16.150999069213867 65.86100006103516,14.376999855041504 65.1240005493164,11.802000045776367 C65.1240005493164,11.802000045776367 59.67399978637695,-7.23799991607666 59.67399978637695,-7.23799991607666 C58.16600036621094,-12.486000061035156 53.29800033569336,-16.150999069213867 47.83700180053711,-16.150999069213867 C47.83700180053711,-16.150999069213867 -30.378000259399414,-16.150999069213867 -30.378000259399414,-16.150999069213867 C-34.93899917602539,-16.150999069213867 -39.09299850463867,-13.670000076293945 -41.19200134277344,-9.729000091552734 C-41.19200134277344,-9.729000091552734 -47.8390007019043,2.4630000591278076 -47.8390007019043,2.4630000591278076 C-52.43899917602539,10.901000022888184 -61.28200149536133,16.150999069213867 -70.89199829101562,16.150999069213867 C-70.89199829101562,16.150999069213867 70.89199829101562,16.150999069213867 70.89199829101562,16.150999069213867z"></path></g><g opacity="1" transform="matrix(1,0,0,1,255.44700622558594,310.9070129394531)"><path fill="url(#__lottie_element_22134)" fill-opacity="1" d=" M226.94000244140625,-117.16000366210938 C226.968994140625,-118.19000244140625 226.83399963378906,-119.2300033569336 226.44900512695312,-120.18599700927734 C225.29200744628906,-123.05400085449219 222.5850067138672,-124.7760009765625 219.69700622558594,-124.7760009765625 C219.69700622558594,-124.7760009765625 213.16200256347656,-124.7760009765625 213.16200256347656,-124.7760009765625 C207.80599975585938,-124.7760009765625 203.0989990234375,-128.3260040283203 201.625,-133.47500610351562 C201.625,-133.47500610351562 196.17799377441406,-152.50799560546875 196.17799377441406,-152.50799560546875 C195.40499877929688,-155.19900512695312 192.9080047607422,-157.0780029296875 190.10800170898438,-157.0780029296875 C190.10800170898438,-157.0780029296875 111.89199829101562,-157.0780029296875 111.89199829101562,-157.0780029296875 C109.5530014038086,-157.0780029296875 107.41699981689453,-155.79600524902344 106.34600067138672,-153.78399658203125 C106.34600067138672,-153.78399658203125 99.6989974975586,-141.5919952392578 99.6989974975586,-141.5919952392578 C94.0469970703125,-131.2259979248047 83.18399810791016,-124.7760009765625 71.37799835205078,-124.7760009765625 C71.37799835205078,-124.7760009765625 -219.52999877929688,-124.7760009765625 -219.52999877929688,-124.7760009765625 C-220.55999755859375,-124.7760009765625 -221.5970001220703,-124.61299896240234 -222.54100036621094,-124.20099639892578 C-225.375,-122.96399688720703 -227.02200317382812,-120.20999908447266 -226.9409942626953,-117.322998046875 C-226.9409942626953,-117.322998046875 -219.44400024414062,150.031005859375 -219.44400024414062,150.031005859375 C-219.33399963378906,153.95399475097656 -216.1219940185547,157.0780029296875 -212.19700622558594,157.0780029296875 C-212.19700622558594,157.0780029296875 212.1999969482422,157.0780029296875 212.1999969482422,157.0780029296875 C216.125,157.0780029296875 219.33799743652344,153.95399475097656 219.447998046875,150.031005859375 C219.447998046875,150.031005859375 226.94000244140625,-117.16000366210938 226.94000244140625,-117.16000366210938z"></path></g><g opacity="1" transform="matrix(1,0,0,1,401.87799072265625,166.97999572753906)"><path fill="rgb(255,26,48)" fill-opacity="1" d=" M56.3390007019043,13.151000022888184 C55.856998443603516,12.3149995803833 55.46799850463867,11.41100025177002 55.194000244140625,10.45199966430664 C55.194000244140625,10.45199966430664 49.74700164794922,-8.581000328063965 49.74700164794922,-8.581000328063965 C48.9739990234375,-11.272000312805176 46.47700119018555,-13.151000022888184 43.676998138427734,-13.151000022888184 C43.676998138427734,-13.151000022888184 -34.53900146484375,-13.151000022888184 -34.53900146484375,-13.151000022888184 C-36.87799835205078,-13.151000022888184 -39.013999938964844,-11.869000434875488 -40.084999084472656,-9.857000350952148 C-40.084999084472656,-9.857000350952148 -46.731998443603516,2.3350000381469727 -46.731998443603516,2.3350000381469727 C-49.112998962402344,6.702000141143799 -52.426998138427734,10.36299991607666 -56.3390007019043,13.151000022888184 C-56.3390007019043,13.151000022888184 56.3390007019043,13.151000022888184 56.3390007019043,13.151000022888184z"></path></g></g></g></svg>