<svg xmlns="http://www.w3.org/2000/svg" viewBox="0 0 512 512" width="512" height="512" style="width: 100%; height: 100%; transform: translate3d(0,0,0);" preserveAspectRatio="xMidYMid meet"><defs><clipPath id="__lottie_element_22208"><rect width="512" height="512" x="0" y="0"></rect></clipPath></defs><g clip-path="url(#__lottie_element_22208)"><g style="display: block;" transform="matrix(1.149999976158142,0,0,1.149999976158142,-38.3992919921875,-38.3507080078125)" opacity="1"><g opacity="1" transform="matrix(1,0,0,1,0,0)"><g opacity="0.1" transform="matrix(0.9700000286102295,0,0,0.9700000286102295,257.2349853515625,266.9150085449219)"><path fill="rgb(0,0,0)" fill-opacity="1" d=" M192.96499633789062,0 C192.96499633789062,106.57099914550781 106.57099914550781,192.96499633789062 0,192.96499633789062 C-106.5719985961914,192.96499633789062 -192.96499633789062,106.57099914550781 -192.96499633789062,0 C-192.96499633789062,-106.5719985961914 -106.5719985961914,-192.96499633789062 0,-192.96499633789062 C106.57099914550781,-192.96499633789062 192.96499633789062,-106.5719985961914 192.96499633789062,0z"></path></g><g opacity="1" transform="matrix(1,0,0,1,257.48199462890625,247.55799865722656)"><path fill="rgb(255,177,57)" fill-opacity="1" d=" M188.875,0 C188.875,104.31300354003906 104.31300354003906,188.875 0,188.875 C-104.31300354003906,188.875 -188.875,104.31300354003906 -188.875,0 C-188.875,-104.31300354003906 -104.31300354003906,-188.875 0,-188.875 C104.31300354003906,-188.875 188.875,-104.31300354003906 188.875,0z"></path></g><g opacity="1" transform="matrix(1,0,0,1,257.5379943847656,245.69000244140625)"><path fill="rgb(254,205,0)" fill-opacity="1" d=" M168.3509979248047,2.5799999237060547 C166.8939971923828,97.60900115966797 90.34100341796875,173.48899841308594 -2.63700008392334,172.06399536132812 C-95.61499786376953,170.63900756835938 -169.8070068359375,92.4489974975586 -168.3509979248047,-2.5799999237060547 C-166.8939971923828,-97.60900115966797 -90.34100341796875,-173.48899841308594 2.63700008392334,-172.06399536132812 C95.61499786376953,-170.63900756835938 169.8070068359375,-92.4489974975586 168.3509979248047,2.5799999237060547z"></path></g><g opacity="0.9" transform="matrix(1,0,0,1,257.48199462890625,157.73899841308594)"><path fill="rgb(254,218,81)" fill-opacity="1" d=" M149.26699829101562,47.38999938964844 C149.26699829101562,120.03299713134766 82.43800354003906,62.569000244140625 0,62.569000244140625 C-82.43800354003906,62.569000244140625 -149.26699829101562,120.03299713134766 -149.26699829101562,47.38999938964844 C-149.26699829101562,-25.253000259399414 -82.43800354003906,-84.14199829101562 0,-84.14199829101562 C82.43800354003906,-84.14199829101562 149.26699829101562,-25.253000259399414 149.26699829101562,47.38999938964844z"></path></g><g opacity="1" transform="matrix(1,0,0,1,0,0)"><g opacity="1" transform="matrix(1,0,0,1,296.2439880371094,78.37100219726562)"><path stroke-linecap="round" stroke-linejoin="round" fill-opacity="0" stroke="rgb(255,255,255)" stroke-opacity="1" stroke-width="5" d=" M-2.3889999389648438,-0.5550000071525574 C-0.8510000109672546,-0.2199999988079071 0.7440000176429749,0.14900000393390656 2.3889999389648438,0.5550000071525574"></path></g><g opacity="1" transform="matrix(1,0,0,1,278.7950134277344,75.36599731445312)"><path stroke-linecap="round" stroke-linejoin="round" fill-opacity="0" stroke="rgb(255,255,255)" stroke-opacity="1" stroke-width="5" d=" M-6.295000076293945,-0.7689999938011169 C-6.295000076293945,-0.7689999938011169 -1.4279999732971191,-0.5090000033378601 6.295000076293945,0.7689999938011169"></path></g></g><g opacity="1" transform="matrix(1,0,0,1,257.48199462890625,247.55799865722656)"><path stroke-linecap="butt" stroke-linejoin="miter" fill-opacity="0" stroke-miterlimit="10" stroke="rgb(247,126,65)" stroke-opacity="1" stroke-width="7" d=" M188.875,0 C188.875,104.31300354003906 104.31300354003906,188.875 0,188.875 C-104.31300354003906,188.875 -188.875,104.31300354003906 -188.875,0 C-188.875,-104.31300354003906 -104.31300354003906,-188.875 0,-188.875 C104.31300354003906,-188.875 188.875,-104.31300354003906 188.875,0z"></path></g></g></g><g style="display: none;"><g><path></path></g></g><g style="display: none;"><g><path></path></g></g><g style="display: block;" transform="matrix(1.1500062942504883,0,0,1.1500062942504883,-38.4002685546875,-9.831878662109375)" opacity="1"><g opacity="0.6" transform="matrix(1,0,0,1,257.8890075683594,274.72698974609375)"><path fill="rgb(255,177,57)" fill-opacity="1" d=" M96.06800079345703,40.76599884033203 C91.58899688720703,21.864999771118164 63.106998443603516,-32.18299865722656 -0.17299999296665192,-32.02299880981445 C-57.90599822998047,-32.70100021362305 -91.88899993896484,19.038000106811523 -95.29900360107422,39.32899856567383 C-95.74400329589844,41.979000091552734 -93.36299896240234,49.09299850463867 -86.68099975585938,45.900001525878906 C-74.97699737548828,40.30799865722656 -96.14700317382812,-12.336000442504883 -0.10499999672174454,-11.965999603271484 C95.93699645996094,-12.336000442504883 75.87000274658203,39.983001708984375 86.91100311279297,46.38199996948242 C93.03500366210938,49.930999755859375 96.67500305175781,43.32600021362305 96.06800079345703,40.76599884033203z"></path></g><g opacity="1" transform="matrix(1,0,0,1,257.9289855957031,281.552001953125)"><path fill="rgb(255,226,166)" fill-opacity="1" d=" M93.18499755859375,37.435001373291016 C68.28800201416016,-13.439000129699707 25.8700008392334,-22.957000732421875 0.01600000075995922,-22.775999069213867 C-25.83799934387207,-22.957000732421875 -65.19000244140625,-11.482000350952148 -92.97899627685547,35.9370002746582 C-95.43800354003906,40.13199996948242 -90.35700225830078,42.44200134277344 -88.27100372314453,39.86199951171875 C-67.14600372314453,13.734999656677246 -39.332000732421875,-17.59600067138672 -0.09200000017881393,-17.17799949645996 C39.14799880981445,-17.59600067138672 72.41899871826172,16.77899932861328 86.79499816894531,38.31999969482422 C88.60700225830078,41.0359992980957 95.43000030517578,42.02199935913086 93.18499755859375,37.435001373291016z"></path></g><g opacity="1" transform="matrix(1,0,0,1,257.9289855957031,278.5740051269531)"><path fill="rgb(141,56,0)" fill-opacity="1" d=" M92.23799896240234,43.111000061035156 C84.51499938964844,39.76499938964844 59.38199996948242,-17.871000289916992 0.7059999704360962,-18.395999908447266 C-59.97200012207031,-18.93899917602539 -85.13999938964844,37.75400161743164 -91.62999725341797,42.722999572753906 C-93.50499725341797,44.159000396728516 -95.42400360107422,42.387001037597656 -94.5770034790039,40.44599914550781 C-87.06500244140625,23.235000610351562 -64.11100006103516,-30.78700065612793 0.3409999907016754,-30.8439998626709 C58.28900146484375,-30.895999908447266 86.2229995727539,18.125999450683594 94.55899810791016,39.654998779296875 C95.33200073242188,41.6510009765625 94.49400329589844,44.0880012512207 92.23799896240234,43.111000061035156z"></path></g><g opacity="1" transform="matrix(1,0,0,1,257.927001953125,271.0299987792969)"><path fill="rgb(106,31,0)" fill-opacity="1" d=" M93.86699676513672,50.02399826049805 C93.06600189208984,50.06999969482422 92.90899658203125,48.23099899291992 92.36599731445312,47.30400085449219 C91.822998046875,46.37699890136719 91.24500274658203,44.6870002746582 90.61199951171875,43.608001708984375 C75.68199920654297,18.17099952697754 47.202999114990234,-18.569000244140625 0.4090000092983246,-18.542999267578125 C-46.73699951171875,-18.517000198364258 -75.62200164794922,13.170999526977539 -89.38500213623047,42.58100128173828 C-89.92400360107422,43.731998443603516 -91.40499877929688,45.316001892089844 -92.42500305175781,46.95000076293945 C-93.2040023803711,48.198001861572266 -93.69400024414062,49.14899826049805 -94.41899871826172,49.928001403808594 C-95.10700225830078,49.3390007019043 -94.90399932861328,48.20199966430664 -93.81400299072266,45.7140007019043 C-78.23100280761719,10.126999855041504 -49.172000885009766,-22.96299934387207 0.3199999928474426,-23.149999618530273 C53.61600112915039,-23.35099983215332 83.94300079345703,20.3439998626709 94.322998046875,45.35200119018555 C94.97899627685547,46.93299865722656 94.9209976196289,49.9640007019043 93.86699676513672,50.02399826049805z"></path></g></g><g style="display: block;" transform="matrix(-0.9959346652030945,0.5750031471252441,0.5750031471252441,0.9959346652030945,207.07516479492188,199.31936645507812)" opacity="1"><g opacity="1" transform="matrix(1,0,0,1,121.20600128173828,358.72698974609375)"><path fill="rgb(254,205,0)" fill-opacity="1" d=" M-33.12099838256836,-6.072999954223633 C-33.12099838256836,-6.072999954223633 1.6369999647140503,-81.34100341796875 6.309999942779541,-91.46099853515625 C10.982999801635742,-101.58100128173828 17.214000701904297,-104.28199768066406 23.423999786376953,-102.21499633789062 C30.62700080871582,-99.81800079345703 31.929000854492188,-90.83899688720703 29.30699920654297,-84.15499877929688 C26.684999465942383,-77.47100067138672 5.61899995803833,-26.825000762939453 5.61899995803833,-26.825000762939453 C5.61899995803833,-26.825000762939453 20.854999542236328,-32.0890007019043 27.315000534057617,-14.541999816894531 C27.315000534057617,-14.541999816894531 42.944000244140625,-16.062999725341797 45.34199905395508,-0.7559999823570251 C45.34199905395508,-0.7559999823570251 59.25699996948242,3.510999917984009 56.145999908447266,20.76799964904785 C53.685001373291016,34.41899871826172 45.6609992980957,48.20500183105469 32.07699966430664,62.659000396728516 C28.49799919128418,66.46700286865234 13.397000312805176,79.39800262451172 -12.418000221252441,68.74400329589844 C-38.233001708984375,58.09000015258789 -41.87200164794922,45.053001403808594 -41.87200164794922,45.053001403808594 C-41.87200164794922,45.053001403808594 -57.07500076293945,32.32899856567383 -55.1619987487793,11.032999992370605 C-53.249000549316406,-10.262999534606934 -45.72999954223633,-29.288000106811523 -48.2599983215332,-36.15999984741211 C-50.790000915527344,-43.03200149536133 -53.78099822998047,-52.542999267578125 -48.61800003051758,-55.970001220703125 C-41.71699905395508,-60.55099868774414 -21.59600067138672,-56.16400146484375 -23.972000122070312,-29.062000274658203 C-23.972000122070312,-29.062000274658203 -33.12099838256836,-6.072999954223633 -33.12099838256836,-6.072999954223633z"></path></g><g opacity="1" transform="matrix(1,0,0,1,152.09300231933594,364.0660095214844)"><path fill="rgb(254,218,81)" fill-opacity="1" d=" M19.125999450683594,32.902000427246094 C28.08099937438965,4.954999923706055 6.690999984741211,1.4630000591278076 6.690999984741211,1.4630000591278076 C4.6620001792907715,-12.868000030517578 -9.463000297546387,-10.138999938964844 -9.463000297546387,-10.138999938964844 C-11.852999687194824,-26.597000122070312 -25.711999893188477,-28.469999313354492 -25.711999893188477,-28.469999313354492 C-25.711999893188477,-28.469999313354492 -25.25200080871582,-32.167999267578125 -25.25200080871582,-32.167999267578125 C-25.25200080871582,-32.167999267578125 -20.93400001525879,-32.88399887084961 -20.93400001525879,-32.88399887084961 C-15.930000305175781,-33.10599899291992 -7.8379998207092285,-31.474000930786133 -3.5769999027252197,-19.878999710083008 C-3.5769999027252197,-19.878999710083008 12.062000274658203,-21.402000427246094 14.456999778747559,-6.0980000495910645 C14.456999778747559,-6.0980000495910645 28.3700008392334,-1.8320000171661377 25.259000778198242,15.42300033569336 C24.216999053955078,21.208999633789062 22.170000076293945,27.027000427246094 19.125999450683594,32.902000427246094z"></path></g><g opacity="1" transform="matrix(1,0,0,1,81.93599700927734,316.5989990234375)"><path fill="rgb(254,218,81)" fill-opacity="1" d=" M-11.770000457763672,-3.384000062942505 C-12.164999961853027,-6.670000076293945 6.416999816894531,-11.602999687194824 11.3100004196167,15.364999771118164 C11.3100004196167,15.364999771118164 14.95199966430664,-10.083999633789062 1.8839999437332153,-14.5600004196167 C-11.184000015258789,-19.035999298095703 -11.770000457763672,-3.384000062942505 -11.770000457763672,-3.384000062942505z"></path></g><g opacity="1" transform="matrix(1,0,0,1,136.72500610351562,273.5270080566406)"><path fill="rgb(254,218,81)" fill-opacity="1" d=" M-14.567999839782715,5.34499979019165 C-14.567999839782715,5.34499979019165 -2.5980000495910645,-10.843999862670898 4.099999904632568,-7.750999927520752 C10.789999961853027,-4.6620001792907715 9.946999549865723,6.883999824523926 7.002999782562256,17.615999221801758 C7.002999782562256,17.615999221801758 23.406999588012695,-11.916000366210938 7.90500020980835,-17.014999389648438 C-7.151000022888184,-21.966999053955078 -14.567999839782715,5.34499979019165 -14.567999839782715,5.34499979019165z"></path></g><g opacity="1" transform="matrix(1,0,0,1,114.72100067138672,406.49200439453125)"><path fill="rgb(255,177,57)" fill-opacity="1" d=" M-9.008999824523926,19.916000366210938 C-34.82099914550781,9.262999534606934 -37.270999908447266,1.180999994277954 -37.270999908447266,1.180999994277954 C-37.270999908447266,1.180999994277954 -50.59000015258789,-15.4350004196167 -48.67399978637695,-36.73400115966797 C-48.196998596191406,-41.987998962402344 -43.15700149536133,-50.268001556396484 -42.237998962402344,-55.09700012207031 C-45.505001068115234,-36.29100036621094 -37.2859992980957,-5.083000183105469 -3.26200008392334,8.324999809265137 C25.26099967956543,19.565000534057617 43.47100067138672,3.3499999046325684 50.11000061035156,-4.323999881744385 C46.78499984741211,0.4189999997615814 43.59000015258789,9.553000450134277 38.55699920654297,14.895000457763672 C34.97999954223633,18.70599937438965 16.80299949645996,30.569000244140625 -9.008999824523926,19.916000366210938z"></path></g><g opacity="1" transform="matrix(1,0,0,1,121.21700286865234,358.72698974609375)"><path stroke-linecap="round" stroke-linejoin="round" fill-opacity="0" stroke="rgb(248,127,66)" stroke-opacity="1" stroke-width="7" d=" M-33.13199996948242,-6.072999954223633 C-33.13199996948242,-6.072999954223633 1.6269999742507935,-81.34100341796875 6.300000190734863,-91.46099853515625 C10.972999572753906,-101.58100128173828 17.202999114990234,-104.28199768066406 23.413000106811523,-102.21499633789062 C30.615999221801758,-99.81800079345703 31.917999267578125,-90.83899688720703 29.29599952697754,-84.15499877929688 C26.673999786376953,-77.47100067138672 5.607999801635742,-26.825000762939453 5.607999801635742,-26.825000762939453 C5.607999801635742,-26.825000762939453 20.8439998626709,-32.0890007019043 27.304000854492188,-14.541999816894531 C27.304000854492188,-14.541999816894531 42.93299865722656,-16.062999725341797 45.33100128173828,-0.7559999823570251 C45.33100128173828,-0.7559999823570251 59.334999084472656,3.5269999504089355 56.1349983215332,20.76799964904785 C54.08100128173828,31.833999633789062 45.650001525878906,48.20500183105469 32.066001892089844,62.659000396728516 C28.48699951171875,66.46700286865234 13.38599967956543,79.39800262451172 -12.428999900817871,68.74400329589844 C-38.24399948120117,58.09000015258789 -57.084999084472656,32.32899856567383 -55.172000885009766,11.032999992370605 C-53.25899887084961,-10.262999534606934 -45.74100112915039,-29.288000106811523 -48.270999908447266,-36.15999984741211 C-50.80099868774414,-43.03200149536133 -53.79100036621094,-52.542999267578125 -48.62799835205078,-55.970001220703125 C-41.72700119018555,-60.55099868774414 -21.606000900268555,-56.16400146484375 -23.98200035095215,-29.062000274658203"></path></g><g opacity="1" transform="matrix(1,0,0,1,165.87399291992188,369.63800048828125)"><path stroke-linecap="round" stroke-linejoin="round" fill-opacity="0" stroke="rgb(255,255,255)" stroke-opacity="1" stroke-width="5" d=" M-1.8680000305175781,-1.906999945640564 C-1.8680000305175781,-1.906999945640564 0.48100000619888306,-0.9089999794960022 1.8680000305175781,1.906999945640564"></path></g></g><g style="display: block;" transform="matrix(0.8410614132881165,0.7843024134635925,-0.7843024134635925,0.8410614132881165,358.9916076660156,242.45391845703125)" opacity="1"><g opacity="1" transform="matrix(1,0,0,1,121.20600128173828,358.72698974609375)"><path fill="rgb(254,205,0)" fill-opacity="1" d=" M-33.12099838256836,-6.072999954223633 C-33.12099838256836,-6.072999954223633 1.6369999647140503,-81.34100341796875 6.309999942779541,-91.46099853515625 C10.982999801635742,-101.58100128173828 17.214000701904297,-104.28199768066406 23.423999786376953,-102.21499633789062 C30.62700080871582,-99.81800079345703 31.929000854492188,-90.83899688720703 29.30699920654297,-84.15499877929688 C26.684999465942383,-77.47100067138672 5.61899995803833,-26.825000762939453 5.61899995803833,-26.825000762939453 C5.61899995803833,-26.825000762939453 20.854999542236328,-32.0890007019043 27.315000534057617,-14.541999816894531 C27.315000534057617,-14.541999816894531 42.944000244140625,-16.062999725341797 45.34199905395508,-0.7559999823570251 C45.34199905395508,-0.7559999823570251 59.25699996948242,3.510999917984009 56.145999908447266,20.76799964904785 C53.685001373291016,34.41899871826172 45.6609992980957,48.20500183105469 32.07699966430664,62.659000396728516 C28.49799919128418,66.46700286865234 13.397000312805176,79.39800262451172 -12.418000221252441,68.74400329589844 C-38.233001708984375,58.09000015258789 -41.87200164794922,45.053001403808594 -41.87200164794922,45.053001403808594 C-41.87200164794922,45.053001403808594 -57.07500076293945,32.32899856567383 -55.1619987487793,11.032999992370605 C-53.249000549316406,-10.262999534606934 -45.72999954223633,-29.288000106811523 -48.2599983215332,-36.15999984741211 C-50.790000915527344,-43.03200149536133 -53.78099822998047,-52.542999267578125 -48.61800003051758,-55.970001220703125 C-41.71699905395508,-60.55099868774414 -21.59600067138672,-56.16400146484375 -23.972000122070312,-29.062000274658203 C-23.972000122070312,-29.062000274658203 -33.12099838256836,-6.072999954223633 -33.12099838256836,-6.072999954223633z"></path></g><g opacity="1" transform="matrix(1,0,0,1,152.09300231933594,364.0660095214844)"><path fill="rgb(254,218,81)" fill-opacity="1" d=" M19.125999450683594,32.902000427246094 C28.08099937438965,4.954999923706055 6.690999984741211,1.4630000591278076 6.690999984741211,1.4630000591278076 C4.6620001792907715,-12.868000030517578 -9.463000297546387,-10.138999938964844 -9.463000297546387,-10.138999938964844 C-11.852999687194824,-26.597000122070312 -25.711999893188477,-28.469999313354492 -25.711999893188477,-28.469999313354492 C-25.711999893188477,-28.469999313354492 -25.25200080871582,-32.167999267578125 -25.25200080871582,-32.167999267578125 C-25.25200080871582,-32.167999267578125 -20.93400001525879,-32.88399887084961 -20.93400001525879,-32.88399887084961 C-15.930000305175781,-33.10599899291992 -7.8379998207092285,-31.474000930786133 -3.5769999027252197,-19.878999710083008 C-3.5769999027252197,-19.878999710083008 12.062000274658203,-21.402000427246094 14.456999778747559,-6.0980000495910645 C14.456999778747559,-6.0980000495910645 28.3700008392334,-1.8320000171661377 25.259000778198242,15.42300033569336 C24.216999053955078,21.208999633789062 22.170000076293945,27.027000427246094 19.125999450683594,32.902000427246094z"></path></g><g opacity="1" transform="matrix(1,0,0,1,81.93599700927734,316.5989990234375)"><path fill="rgb(254,218,81)" fill-opacity="1" d=" M-11.770000457763672,-3.384000062942505 C-12.164999961853027,-6.670000076293945 6.416999816894531,-11.602999687194824 11.3100004196167,15.364999771118164 C11.3100004196167,15.364999771118164 14.95199966430664,-10.083999633789062 1.8839999437332153,-14.5600004196167 C-11.184000015258789,-19.035999298095703 -11.770000457763672,-3.384000062942505 -11.770000457763672,-3.384000062942505z"></path></g><g opacity="1" transform="matrix(1,0,0,1,136.72500610351562,273.5270080566406)"><path fill="rgb(254,218,81)" fill-opacity="1" d=" M-14.567999839782715,5.34499979019165 C-14.567999839782715,5.34499979019165 -2.5980000495910645,-10.843999862670898 4.099999904632568,-7.750999927520752 C10.789999961853027,-4.6620001792907715 9.946999549865723,6.883999824523926 7.002999782562256,17.615999221801758 C7.002999782562256,17.615999221801758 23.406999588012695,-11.916000366210938 7.90500020980835,-17.014999389648438 C-7.151000022888184,-21.966999053955078 -14.567999839782715,5.34499979019165 -14.567999839782715,5.34499979019165z"></path></g><g opacity="1" transform="matrix(1,0,0,1,114.72100067138672,406.49200439453125)"><path fill="rgb(255,177,57)" fill-opacity="1" d=" M-11.751999855041504,19.701000213623047 C-37.56399917602539,9.04800033569336 -37.79499816894531,0.8989999890327454 -37.79499816894531,0.8989999890327454 C-37.79499816894531,0.8989999890327454 -50.59000015258789,-15.4350004196167 -48.67399978637695,-36.73400115966797 C-48.196998596191406,-41.987998962402344 -43.15700149536133,-50.268001556396484 -42.237998962402344,-55.09700012207031 C-45.505001068115234,-36.29100036621094 -36.59700012207031,-6.820000171661377 -2.572999954223633,6.5879998207092285 C25.950000762939453,17.827999114990234 43.47100067138672,3.3499999046325684 50.11000061035156,-4.323999881744385 C46.78499984741211,0.4189999997615814 43.59000015258789,9.553000450134277 38.55699920654297,14.895000457763672 C34.97999954223633,18.70599937438965 14.0600004196167,30.354000091552734 -11.751999855041504,19.701000213623047z"></path></g><g opacity="1" transform="matrix(1,0,0,1,121.21700286865234,358.72698974609375)"><path stroke-linecap="round" stroke-linejoin="round" fill-opacity="0" stroke="rgb(248,127,66)" stroke-opacity="1" stroke-width="7" d=" M-33.13199996948242,-6.072999954223633 C-33.13199996948242,-6.072999954223633 1.6269999742507935,-81.34100341796875 6.300000190734863,-91.46099853515625 C10.972999572753906,-101.58100128173828 17.202999114990234,-104.28199768066406 23.413000106811523,-102.21499633789062 C30.615999221801758,-99.81800079345703 31.917999267578125,-90.83899688720703 29.29599952697754,-84.15499877929688 C26.673999786376953,-77.47100067138672 5.607999801635742,-26.825000762939453 5.607999801635742,-26.825000762939453 C5.607999801635742,-26.825000762939453 20.8439998626709,-32.0890007019043 27.304000854492188,-14.541999816894531 C27.304000854492188,-14.541999816894531 42.93299865722656,-16.062999725341797 45.33100128173828,-0.7559999823570251 C45.33100128173828,-0.7559999823570251 59.334999084472656,3.5269999504089355 56.1349983215332,20.76799964904785 C54.08100128173828,31.833999633789062 45.650001525878906,48.20500183105469 32.066001892089844,62.659000396728516 C28.48699951171875,66.46700286865234 13.38599967956543,79.39800262451172 -12.428999900817871,68.74400329589844 C-38.24399948120117,58.09000015258789 -57.084999084472656,32.32899856567383 -55.172000885009766,11.032999992370605 C-53.25899887084961,-10.262999534606934 -45.74100112915039,-29.288000106811523 -48.270999908447266,-36.15999984741211 C-50.80099868774414,-43.03200149536133 -53.79100036621094,-52.542999267578125 -48.62799835205078,-55.970001220703125 C-41.72700119018555,-60.55099868774414 -21.606000900268555,-56.16400146484375 -23.98200035095215,-29.062000274658203"></path></g><g opacity="1" transform="matrix(1,0,0,1,165.87399291992188,369.63800048828125)"><path stroke-linecap="round" stroke-linejoin="round" fill-opacity="0" stroke="rgb(255,255,255)" stroke-opacity="1" stroke-width="5" d=" M-1.8680000305175781,-1.906999945640564 C-1.8680000305175781,-1.906999945640564 0.48100000619888306,-0.9089999794960022 1.8680000305175781,1.906999945640564"></path></g></g><g style="display: block;" transform="matrix(-1.1414563655853271,0,0,1.3355073928833008,384.2559814453125,160.11672973632812)" opacity="1"><g opacity="1" transform="matrix(1,0,0,1,173.5070037841797,32.584999084472656)"><path fill="rgb(255,226,166)" fill-opacity="1" d=" M23.770999908447266,0 C23.770999908447266,15.142000198364258 13.128000259399414,27.41699981689453 0,27.41699981689453 C-13.128000259399414,27.41699981689453 -23.770999908447266,15.142000198364258 -23.770999908447266,0 C-23.770999908447266,-15.142000198364258 -13.128000259399414,-27.41699981689453 0,-27.41699981689453 C13.128000259399414,-27.41699981689453 23.770999908447266,-15.142000198364258 23.770999908447266,0z"></path></g><g opacity="1" transform="matrix(1,0,0,1,173.5070037841797,29.256000518798828)"><path fill="rgb(255,177,57)" fill-opacity="1" d=" M23.770999908447266,0.5059999823570251 C23.770999908447266,14.08899974822998 13.128000259399414,25.10099983215332 0,25.10099983215332 C-13.128000259399414,25.10099983215332 -23.770999908447266,14.08899974822998 -23.770999908447266,0.5059999823570251 C-23.770999908447266,-13.07699966430664 -13.128000259399414,-24.08799934387207 0,-24.08799934387207 C13.128000259399414,-24.08799934387207 23.770999908447266,-13.07699966430664 23.770999908447266,0.5059999823570251z"></path></g><g opacity="1" transform="matrix(1,0,0,1,173.5070037841797,32.44200134277344)"><path fill="rgb(141,56,0)" fill-opacity="1" d=" M21.85700035095215,0.020999999716877937 C21.85700035095215,12.821999549865723 12.071000099182129,23.198999404907227 0,23.198999404907227 C-12.071999549865723,23.198999404907227 -21.85700035095215,12.821999549865723 -21.85700035095215,0.020999999716877937 C-21.85700035095215,-12.779999732971191 -12.071999549865723,-23.155000686645508 0,-23.155000686645508 C12.071000099182129,-23.155000686645508 21.85700035095215,-12.779999732971191 21.85700035095215,0.020999999716877937z"></path></g><g opacity="1" transform="matrix(1,0,0,1,173.5070037841797,20.547000885009766)"><path fill="rgb(99,37,12)" fill-opacity="1" d=" M21.860000610351562,11.920999526977539 C21.860000610351562,12.937999725341797 21.799999237060547,13.939000129699707 21.670000076293945,14.92300033569336 C20.290000915527344,3.5360000133514404 11.109999656677246,-5.265999794006348 0,-5.265999794006348 C-11.109999656677246,-5.265999794006348 -20.290000915527344,3.5360000133514404 -21.670000076293945,14.92300033569336 C-21.799999237060547,13.939000129699707 -21.860000610351562,12.937999725341797 -21.860000610351562,11.920999526977539 C-21.860000610351562,-0.8820000290870667 -12.069999694824219,-11.26099967956543 0,-11.26099967956543 C12.069999694824219,-11.26099967956543 21.860000610351562,-0.8820000290870667 21.860000610351562,11.920999526977539z"></path></g></g><g style="display: block;" transform="matrix(1.1414563655853271,0,0,1.3355073928833008,132.40545654296875,160.11672973632812)" opacity="1"><g opacity="1" transform="matrix(1,0,0,1,173.5070037841797,32.584999084472656)"><path fill="rgb(255,226,166)" fill-opacity="1" d=" M23.770999908447266,0 C23.770999908447266,15.142000198364258 13.128000259399414,27.41699981689453 0,27.41699981689453 C-13.128000259399414,27.41699981689453 -23.770999908447266,15.142000198364258 -23.770999908447266,0 C-23.770999908447266,-15.142000198364258 -13.128000259399414,-27.41699981689453 0,-27.41699981689453 C13.128000259399414,-27.41699981689453 23.770999908447266,-15.142000198364258 23.770999908447266,0z"></path></g><g opacity="1" transform="matrix(1,0,0,1,173.5070037841797,29.256000518798828)"><path fill="rgb(255,177,57)" fill-opacity="1" d=" M23.770999908447266,0.5059999823570251 C23.770999908447266,14.08899974822998 13.128000259399414,25.10099983215332 0,25.10099983215332 C-13.128000259399414,25.10099983215332 -23.770999908447266,14.08899974822998 -23.770999908447266,0.5059999823570251 C-23.770999908447266,-13.07699966430664 -13.128000259399414,-24.08799934387207 0,-24.08799934387207 C13.128000259399414,-24.08799934387207 23.770999908447266,-13.07699966430664 23.770999908447266,0.5059999823570251z"></path></g><g opacity="1" transform="matrix(1,0,0,1,173.5070037841797,32.44200134277344)"><path fill="rgb(141,56,0)" fill-opacity="1" d=" M21.85700035095215,0.020999999716877937 C21.85700035095215,12.821999549865723 12.071000099182129,23.198999404907227 0,23.198999404907227 C-12.071999549865723,23.198999404907227 -21.85700035095215,12.821999549865723 -21.85700035095215,0.020999999716877937 C-21.85700035095215,-12.779999732971191 -12.071999549865723,-23.155000686645508 0,-23.155000686645508 C12.071000099182129,-23.155000686645508 21.85700035095215,-12.779999732971191 21.85700035095215,0.020999999716877937z"></path></g><g opacity="1" transform="matrix(1,0,0,1,173.5070037841797,20.547000885009766)"><path fill="rgb(99,37,12)" fill-opacity="1" d=" M21.860000610351562,11.920999526977539 C21.860000610351562,12.937999725341797 21.799999237060547,13.939000129699707 21.670000076293945,14.92300033569336 C20.290000915527344,3.5360000133514404 11.109999656677246,-5.265999794006348 0,-5.265999794006348 C-11.109999656677246,-5.265999794006348 -20.290000915527344,3.5360000133514404 -21.670000076293945,14.92300033569336 C-21.799999237060547,13.939000129699707 -21.860000610351562,12.937999725341797 -21.860000610351562,11.920999526977539 C-21.860000610351562,-0.8820000290870667 -12.069999694824219,-11.26099967956543 0,-11.26099967956543 C12.069999694824219,-11.26099967956543 21.860000610351562,-0.8820000290870667 21.860000610351562,11.920999526977539z"></path></g></g></g></svg>