<svg xmlns="http://www.w3.org/2000/svg" viewBox="0 0 512 512" width="512" height="512" style="width: 100%; height: 100%; transform: translate3d(0,0,0);" preserveAspectRatio="xMidYMid meet"><defs><clipPath id="__lottie_element_22246"><rect width="512" height="512" x="0" y="0"></rect></clipPath><linearGradient id="__lottie_element_22256" spreadMethod="pad" gradientUnits="userSpaceOnUse" x1="1" y1="17" x2="1" y2="138.5500030517578"><stop offset="0%" stop-color="rgb(47,48,48)"></stop><stop offset="50%" stop-color="rgb(36,37,37)"></stop><stop offset="100%" stop-color="rgb(26,26,26)"></stop></linearGradient><linearGradient id="__lottie_element_22259" spreadMethod="pad" gradientUnits="userSpaceOnUse"><stop></stop><stop></stop><stop></stop></linearGradient><linearGradient id="__lottie_element_22263" spreadMethod="pad" gradientUnits="userSpaceOnUse"><stop></stop><stop></stop><stop></stop></linearGradient><linearGradient id="__lottie_element_22267" spreadMethod="pad" gradientUnits="userSpaceOnUse"><stop></stop><stop></stop><stop></stop></linearGradient><linearGradient id="__lottie_element_22271" spreadMethod="pad" gradientUnits="userSpaceOnUse"><stop></stop><stop></stop><stop></stop></linearGradient><linearGradient id="__lottie_element_22275" spreadMethod="pad" gradientUnits="userSpaceOnUse" x1="101" y1="29" x2="101" y2="118.99600219726562"><stop offset="0%" stop-color="rgb(255,255,255)"></stop><stop offset="50%" stop-color="rgb(233,233,233)"></stop><stop offset="100%" stop-color="rgb(211,211,211)"></stop></linearGradient><linearGradient id="__lottie_element_22276" spreadMethod="pad" gradientUnits="userSpaceOnUse" x1="122" y1="29" x2="122" y2="118.99600219726562"><stop offset="0%" stop-color="rgb(255,255,255)"></stop><stop offset="50%" stop-color="rgb(233,233,233)"></stop><stop offset="100%" stop-color="rgb(211,211,211)"></stop></linearGradient><linearGradient id="__lottie_element_22277" spreadMethod="pad" gradientUnits="userSpaceOnUse" x1="144" y1="29" x2="144" y2="118.99600219726562"><stop offset="0%" stop-color="rgb(255,255,255)"></stop><stop offset="50%" stop-color="rgb(233,233,233)"></stop><stop offset="100%" stop-color="rgb(211,211,211)"></stop></linearGradient><linearGradient id="__lottie_element_22281" spreadMethod="pad" gradientUnits="userSpaceOnUse" x1="49" y1="29" x2="49" y2="118.99600219726562"><stop offset="0%" stop-color="rgb(255,255,255)"></stop><stop offset="50%" stop-color="rgb(233,233,233)"></stop><stop offset="100%" stop-color="rgb(211,211,211)"></stop></linearGradient><linearGradient id="__lottie_element_22285" spreadMethod="pad" gradientUnits="userSpaceOnUse" x1="-3" y1="29" x2="-3" y2="118.99600219726562"><stop offset="0%" stop-color="rgb(255,255,255)"></stop><stop offset="50%" stop-color="rgb(233,233,233)"></stop><stop offset="100%" stop-color="rgb(211,211,211)"></stop></linearGradient><linearGradient id="__lottie_element_22286" spreadMethod="pad" gradientUnits="userSpaceOnUse" x1="-3" y1="29" x2="-3" y2="118.99700164794922"><stop offset="0%" stop-color="rgb(255,255,255)"></stop><stop offset="50%" stop-color="rgb(233,233,233)"></stop><stop offset="100%" stop-color="rgb(211,211,211)"></stop></linearGradient><linearGradient id="__lottie_element_22290" spreadMethod="pad" gradientUnits="userSpaceOnUse"><stop></stop><stop></stop><stop></stop></linearGradient><linearGradient id="__lottie_element_22294" spreadMethod="pad" gradientUnits="userSpaceOnUse" x1="-51" y1="29" x2="-51" y2="119.0770034790039"><stop offset="0%" stop-color="rgb(255,255,255)"></stop><stop offset="50%" stop-color="rgb(233,233,233)"></stop><stop offset="100%" stop-color="rgb(211,211,211)"></stop></linearGradient><linearGradient id="__lottie_element_22298" spreadMethod="pad" gradientUnits="userSpaceOnUse" x1="-117" y1="29" x2="-117" y2="118.99600219726562"><stop offset="0%" stop-color="rgb(255,255,255)"></stop><stop offset="50%" stop-color="rgb(233,233,233)"></stop><stop offset="100%" stop-color="rgb(211,211,211)"></stop></linearGradient></defs><g clip-path="url(#__lottie_element_22246)"><g style="display: block;" transform="matrix(1,0,0,1,256,256)" opacity="1"><g opacity="0.1" transform="matrix(1,0,0,1,0,0)"><path fill="rgb(0,0,0)" fill-opacity="1" d=" M196.02499389648438,5.925000190734863 C196.02499389648438,114.18599700927734 108.26100158691406,201.9499969482422 0,201.9499969482422 C-108.26100158691406,201.9499969482422 -196.02499389648438,114.18599700927734 -196.02499389648438,5.925000190734863 C-196.02499389648438,-102.33599853515625 -108.26100158691406,-190.0989990234375 0,-190.0989990234375 C108.26100158691406,-190.0989990234375 196.02499389648438,-102.33599853515625 196.02499389648438,5.925000190734863z"></path></g><g opacity="1" transform="matrix(1,0,0,1,0,0)"><path fill="rgb(246,7,0)" fill-opacity="1" d=" M188.875,-9.074999809265137 C188.875,95.23799896240234 104.31300354003906,179.80099487304688 0,179.80099487304688 C-104.31300354003906,179.80099487304688 -188.875,95.23799896240234 -188.875,-9.074999809265137 C-188.875,-113.38800048828125 -104.31300354003906,-197.9499969482422 0,-197.9499969482422 C104.31300354003906,-197.9499969482422 188.875,-113.38800048828125 188.875,-9.074999809265137z"></path><path stroke-linecap="butt" stroke-linejoin="miter" fill-opacity="0" stroke-miterlimit="10" stroke="rgb(186,0,0)" stroke-opacity="1" stroke-width="8" d=" M188.875,-9.074999809265137 C188.875,95.23799896240234 104.31300354003906,179.80099487304688 0,179.80099487304688 C-104.31300354003906,179.80099487304688 -188.875,95.23799896240234 -188.875,-9.074999809265137 C-188.875,-113.38800048828125 -104.31300354003906,-197.9499969482422 0,-197.9499969482422 C104.31300354003906,-197.9499969482422 188.875,-113.38800048828125 188.875,-9.074999809265137z"></path></g><g opacity="1" transform="matrix(1,0,0,1,0,0)"><path fill="rgb(255,74,0)" fill-opacity="1" d=" M168.40699768066406,-8.362000465393066 C166.9499969482422,86.66600036621094 90.39600372314453,162.5469970703125 -2.5820000171661377,161.1219940185547 C-95.55999755859375,159.69700622558594 -169.7519989013672,81.50599670410156 -168.29600524902344,-13.52299976348877 C-166.83900451660156,-108.552001953125 -90.28500366210938,-184.4320068359375 2.693000078201294,-183.0070037841797 C95.6709976196289,-181.58200073242188 169.86399841308594,-103.39099884033203 168.40699768066406,-8.362000465393066z"></path></g><g opacity="1" transform="matrix(1,0,0,1,0,0)"><path fill="rgb(255,128,0)" fill-opacity="1" d=" M149.26699829101562,-51.50299835205078 C149.26699829101562,21.139999389648438 82.43800354003906,-36.32500076293945 0,-36.32500076293945 C-82.43800354003906,-36.32500076293945 -149.26800537109375,21.139999389648438 -149.26800537109375,-51.50299835205078 C-149.26800537109375,-124.14600372314453 -82.43800354003906,-183.03599548339844 0,-183.03599548339844 C82.43800354003906,-183.03599548339844 149.26699829101562,-124.14600372314453 149.26699829101562,-51.50299835205078z"></path></g><g opacity="1" transform="matrix(1,0,0,1,0,0)"><g opacity="1" transform="matrix(1,0,0,1,0,0)"><path stroke-linecap="round" stroke-linejoin="round" fill-opacity="0" stroke="rgb(255,255,255)" stroke-opacity="1" stroke-width="6" d=" M36.37300109863281,-178.8159942626953 C37.9109992980957,-178.4810028076172 39.505001068115234,-178.11199951171875 41.150001525878906,-177.70599365234375"></path></g><g opacity="1" transform="matrix(1,0,0,1,0,0)"><path stroke-linecap="round" stroke-linejoin="round" fill-opacity="0" stroke="rgb(255,255,255)" stroke-opacity="1" stroke-width="6" d=" M15.017999649047852,-182.03599548339844 C15.017999649047852,-182.03599548339844 19.885000228881836,-181.77499389648438 27.607999801635742,-180.4969940185547"></path></g></g></g><g style="display: block;" transform="matrix(1,0,0,1,256,256)" opacity="1"><g opacity="1" transform="matrix(1,0,0,1,0,0)"><path fill="rgb(255,140,0)" fill-opacity="1" d=" M100.11000061035156,-78.0979995727539 C98.90599822998047,-79.33999633789062 68.0479965209961,-89.02999877929688 39.23500061035156,-65.4219970703125 C15.555999755859375,-46.02000045776367 21.43899917602539,-30.908000946044922 26.750999450683594,-35.29199981689453 C32.0629997253418,-39.67599868774414 49.992000579833984,-58.551998138427734 79.32099914550781,-64.61699676513672 C87.18000030517578,-66.24199676513672 92.91600036621094,-66.5250015258789 97.18800354003906,-67.80799865722656 C102.83100128173828,-69.50299835205078 103.41500091552734,-74.68800354003906 100.11000061035156,-78.0979995727539z"></path></g><g opacity="1" transform="matrix(1,0,0,1,0,0)"><path fill="rgb(255,140,0)" fill-opacity="1" d=" M-100.12100219726562,-78.0979995727539 C-92.25,-84.625 -55.95399856567383,-81.88099670410156 -39.02299880981445,-66.63999938964844 C-14.913000106811523,-44.935001373291016 -21.450000762939453,-30.908000946044922 -26.761999130249023,-35.29199981689453 C-32.07400131225586,-39.67599868774414 -50.00299835205078,-58.551998138427734 -79.33200073242188,-64.61699676513672 C-87.19100189208984,-66.24199676513672 -92.927001953125,-66.5250015258789 -97.1989974975586,-67.80799865722656 C-102.84200286865234,-69.50299835205078 -103.7760009765625,-75.06700134277344 -100.12100219726562,-78.0979995727539z"></path></g></g><g style="display: block;" transform="matrix(1,0,0,1,256,256)" opacity="1"><g opacity="1" transform="matrix(1,0,0,1,0,0)"><path fill="rgb(249,148,53)" fill-opacity="1" d=" M33.29499816894531,71.77999877929688 C27.56399917602539,58.935001373291016 -30.131999969482422,60.1349983215332 -34.071998596191406,73.68599700927734 C-36.250999450683594,81.18099975585938 -36.38100051879883,83.80699920654297 -36.650001525878906,88.04399871826172 C-37.34000015258789,98.92900085449219 -24.31800079345703,122 1.1369999647140503,121.73600006103516 C26.593000411987305,122 39.86800003051758,100.83200073242188 39.492000579833984,88.4540023803711 C39.27799987792969,81.40599822998047 37.66699981689453,81.5780029296875 33.29499816894531,71.77999877929688z"></path></g><g opacity="1" transform="matrix(1,0,0,1,0,0)"><path fill="rgb(242,55,0)" fill-opacity="1" d=" M33.928001403808594,63.09299850463867 C27.155000686645508,52.29999923706055 12.269000053405762,46.11800003051758 -0.2549999952316284,46.11800003051758 C-12.798999786376953,46.11800003051758 -26.530000686645508,52.79899978637695 -32.60100173950195,62.569000244140625 C-39.361000061035156,73.447998046875 -37.349998474121094,83.84400177001953 -35.87900161743164,86.43399810791016 C-18.639999389648438,69.66400146484375 -3.5239999294281006,45.95100021362305 37.82899856567383,86.05699920654297 C39.417999267578125,84.80799865722656 40,72.76899719238281 33.928001403808594,63.09299850463867z"></path></g><g opacity="1" transform="matrix(1,0,0,1,0,0)"><path fill="rgb(98,27,8)" fill-opacity="1" d=" M32.56700134277344,68.2699966430664 C27.06399917602539,57.87799835205078 12.572999954223633,50.518001556396484 0.04899999871850014,50.518001556396484 C-12.494999885559082,50.518001556396484 -22.98200035095215,55.874000549316406 -30.815000534057617,67.46199798583984 C-36.165000915527344,75.37799835205078 -35.89500045776367,82.54499816894531 -35.766998291015625,86.66699981689453 C-35.5880012512207,92.4540023803711 -24.881999969482422,116.85900115966797 0.5730000138282776,116.59500122070312 C26.027999877929688,116.85900115966797 38.17399978637695,95.38500213623047 38.47100067138672,86.48799896240234 C38.53499984741211,84.58499908447266 38.534000396728516,79.53700256347656 32.56700134277344,68.2699966430664z"></path></g><g opacity="1" transform="matrix(1,0,0,1,0,0)"><path fill="rgb(58,7,0)" fill-opacity="1" d=" M38.58100128173828,85.9990005493164 C35.94599914550781,70.01399993896484 20.631999969482422,55.845001220703125 0.050999999046325684,56.09600067138672 C-17.0939998626709,56.30500030517578 -35.44499969482422,69.7699966430664 -35.55500030517578,86.89900207519531 C-36.80400085449219,84.78099822998047 -37.70600128173828,75.17500305175781 -30.545000076293945,65.34300231933594 C-23.347000122070312,55.46099853515625 -12.49899959564209,50.51900100708008 0.050999999046325684,50.51900100708008 C12.574999809265137,50.51900100708008 27.79800033569336,58.39799880981445 33.7140007019043,68.02899932861328 C38.27000045776367,75.44599914550781 38.3129997253418,82.3010025024414 38.58100128173828,85.9990005493164z"></path></g></g><g style="display: block;" transform="matrix(1,0,0,1,256,256)" opacity="1"><g opacity="1" transform="matrix(1,0,0,1,0,0)"><g opacity="1" transform="matrix(1,0,0,1,0,0)"><path fill="rgb(242,55,0)" fill-opacity="1" d=" M-29.22800064086914,-22.489999771118164 C-29.22800064086914,-4.946000099182129 -39.23400115966797,9.277000427246094 -51.57699966430664,9.277000427246094 C-63.91999816894531,9.277000427246094 -73.9260025024414,-4.946000099182129 -73.9260025024414,-22.489999771118164 C-73.9260025024414,-40.034000396728516 -63.91999816894531,-54.25600051879883 -51.57699966430664,-54.25600051879883 C-39.23400115966797,-54.25600051879883 -29.22800064086914,-40.034000396728516 -29.22800064086914,-22.489999771118164z"></path></g><g opacity="1" transform="matrix(1,0,0,1,0,0)"><path fill="rgb(255,140,0)" fill-opacity="1" d=" M-29.22800064086914,-11.069999694824219 C-29.22800064086914,6.473999977111816 -39.23400115966797,20.69700050354004 -51.57699966430664,20.69700050354004 C-63.91999816894531,20.69700050354004 -73.9260025024414,6.473999977111816 -73.9260025024414,-11.069999694824219 C-73.9260025024414,-28.61400032043457 -63.91999816894531,-42.83700180053711 -51.57699966430664,-42.83700180053711 C-39.23400115966797,-42.83700180053711 -29.22800064086914,-28.61400032043457 -29.22800064086914,-11.069999694824219z"></path></g><g opacity="1" transform="matrix(1,0,0,1,0,0)"><path fill="rgb(106,18,0)" fill-opacity="1" d=" M-30.625,-17.180999755859375 C-30.625,0.3630000054836273 -40.005001068115234,14.585000038146973 -51.57699966430664,14.585000038146973 C-63.14899826049805,14.585000038146973 -72.52899932861328,0.3630000054836273 -72.52899932861328,-17.180999755859375 C-72.52899932861328,-34.724998474121094 -63.14899826049805,-48.948001861572266 -51.57699966430664,-48.948001861572266 C-40.005001068115234,-48.948001861572266 -30.625,-34.724998474121094 -30.625,-17.180999755859375z"></path></g><g opacity="1" transform="matrix(1,0,0,1,0,0)"><path fill="rgb(61,0,0)" fill-opacity="1" d=" M-30.628999710083008,-17.18000030517578 C-30.628999710083008,0.36800000071525574 -40.00199890136719,14.583999633789062 -51.57400131225586,14.583999633789062 C-63.145999908447266,14.583999633789062 -72.52799987792969,0.36800000071525574 -72.52799987792969,-17.18000030517578 C-72.52799987792969,-26.96299934387207 -69.61599731445312,-35.70800018310547 -65.02899932861328,-41.53200149536133 C-68.37899780273438,-36.527000427246094 -70.43499755859375,-29.673999786376953 -70.43499755859375,-22.108999252319336 C-70.43499755859375,-6.760000228881836 -61.946998596191406,6.629000186920166 -51.479000091552734,6.629000186920166 C-41.01100158691406,6.629000186920166 -32.53200149536133,-6.760000228881836 -32.53200149536133,-22.108999252319336 C-32.53200149536133,-28.82699966430664 -34.15999984741211,-34.974998474121094 -36.85300064086914,-39.78099822998047 C-33.007999420166016,-34.02399826049805 -30.628999710083008,-26.020000457763672 -30.628999710083008,-17.18000030517578z"></path></g></g><g opacity="1" transform="matrix(1,0,0,1,0,0)"><g opacity="1" transform="matrix(1,0,0,1,0,0)"><path fill="rgb(242,55,0)" fill-opacity="1" d=" M73.9260025024414,-22.489999771118164 C73.9260025024414,-4.946000099182129 63.91999816894531,9.277000427246094 51.57699966430664,9.277000427246094 C39.23400115966797,9.277000427246094 29.226999282836914,-4.946000099182129 29.226999282836914,-22.489999771118164 C29.226999282836914,-40.034000396728516 39.23400115966797,-54.25600051879883 51.57699966430664,-54.25600051879883 C63.91999816894531,-54.25600051879883 73.9260025024414,-40.034000396728516 73.9260025024414,-22.489999771118164z"></path></g><g opacity="1" transform="matrix(1,0,0,1,0,0)"><path fill="rgb(255,140,0)" fill-opacity="1" d=" M73.9260025024414,-11.069999694824219 C73.9260025024414,6.473999977111816 63.91999816894531,20.69700050354004 51.57699966430664,20.69700050354004 C39.23400115966797,20.69700050354004 29.226999282836914,6.473999977111816 29.226999282836914,-11.069999694824219 C29.226999282836914,-28.61400032043457 39.23400115966797,-42.83700180053711 51.57699966430664,-42.83700180053711 C63.91999816894531,-42.83700180053711 73.9260025024414,-28.61400032043457 73.9260025024414,-11.069999694824219z"></path></g><g opacity="1" transform="matrix(1,0,0,1,0,0)"><path fill="rgb(106,18,0)" fill-opacity="1" d=" M72.52899932861328,-17.180999755859375 C72.52899932861328,0.3630000054836273 63.14899826049805,14.585000038146973 51.57699966430664,14.585000038146973 C40.005001068115234,14.585000038146973 30.624000549316406,0.3630000054836273 30.624000549316406,-17.180999755859375 C30.624000549316406,-34.724998474121094 40.005001068115234,-48.948001861572266 51.57699966430664,-48.948001861572266 C63.14899826049805,-48.948001861572266 72.52899932861328,-34.724998474121094 72.52899932861328,-17.180999755859375z"></path></g><g opacity="1" transform="matrix(1,0,0,1,0,0)"><path fill="rgb(61,0,0)" fill-opacity="1" d=" M30.625999450683594,-17.18000030517578 C30.625999450683594,0.36800000071525574 39.999000549316406,14.583999633789062 51.57099914550781,14.583999633789062 C63.141998291015625,14.583999633789062 72.5250015258789,0.36800000071525574 72.5250015258789,-17.18000030517578 C72.5250015258789,-26.96299934387207 69.61399841308594,-35.70800018310547 65.0270004272461,-41.53200149536133 C68.37699890136719,-36.527000427246094 70.43199920654297,-29.673999786376953 70.43199920654297,-22.108999252319336 C70.43199920654297,-6.760000228881836 61.944000244140625,6.629000186920166 51.47600173950195,6.629000186920166 C41.007999420166016,6.629000186920166 32.52899932861328,-6.760000228881836 32.52899932861328,-22.108999252319336 C32.52899932861328,-28.82699966430664 34.15700149536133,-34.974998474121094 36.849998474121094,-39.78099822998047 C33.00600051879883,-34.02399826049805 30.625999450683594,-26.020000457763672 30.625999450683594,-17.18000030517578z"></path></g></g></g><g style="display: block;" transform="matrix(1,0,0,1,256,256)" opacity="1"><g opacity="1" transform="matrix(1,0,0,1,0,0)"><g opacity="1" transform="matrix(1,0,0,1,0,0)"><g opacity="1" transform="matrix(1,0,0,1,0,0)"><path fill="rgb(106,18,0)" fill-opacity="1" d=" M99.15899658203125,-80.0009994506836 C92.33399963378906,-86 56.301998138427734,-83.9209976196289 39.37099838256836,-68.68000030517578 C15.26099967956543,-46.974998474121094 20.488000869750977,-34.7140007019043 25.799999237060547,-39.097999572753906 C31.11199951171875,-43.481998443603516 49.04100036621094,-62.358001708984375 78.37000274658203,-68.4229965209961 C86.22899627685547,-70.0479965209961 91.96399688720703,-70.33200073242188 96.23600006103516,-71.61499786376953 C101.87899780273438,-73.30999755859375 102.72599792480469,-76.86599731445312 99.15899658203125,-80.0009994506836z"></path></g><g opacity="1" transform="matrix(1,0,0,1,0,0)"><path fill="rgb(61,0,0)" fill-opacity="1" d=" M100.4729995727539,-74.06500244140625 C99.03199768066406,-75.68800354003906 95.52400207519531,-77.36699676513672 92.5739974975586,-78.03299713134766 C79.7750015258789,-80.9260025024414 57.250999450683594,-78.3759994506836 40.321998596191406,-63.13100051879883 C28.312999725341797,-52.32099914550781 23.58300018310547,-43.85200119018555 22.517000198364258,-38.61800003051758 C19.634000778198242,-40.82600021362305 20.775999069213867,-51.939998626708984 39.369998931884766,-68.67900085449219 C56.29899978637695,-83.92400360107422 78.822998046875,-86.4739990234375 91.62200164794922,-83.58100128173828 C94.5719985961914,-82.91500091552734 97.95099639892578,-81.23999786376953 99.15899658203125,-80.00299835205078 C101.24299621582031,-77.85199737548828 101.78600311279297,-75.7490005493164 100.4729995727539,-74.06500244140625z"></path></g></g></g><g opacity="1" transform="matrix(1,0,0,1,0,0)"><g opacity="1" transform="matrix(1,0,0,1,0,0)"><g opacity="1" transform="matrix(1,0,0,1,0,0)"><path fill="rgb(106,18,0)" fill-opacity="1" d=" M-99.16899871826172,-80.0009994506836 C-92.83300018310547,-85.58300018310547 -56.31100082397461,-83.9209976196289 -39.38100051879883,-68.68000030517578 C-15.270999908447266,-46.974998474121094 -20.49799919128418,-34.7140007019043 -25.809999465942383,-39.097999572753906 C-31.121999740600586,-43.481998443603516 -49.05099868774414,-62.358001708984375 -78.37999725341797,-68.4229965209961 C-86.23899841308594,-70.0479965209961 -91.9749984741211,-70.33200073242188 -96.24700164794922,-71.61499786376953 C-101.88999938964844,-73.30999755859375 -102.73200225830078,-76.86199951171875 -99.16899871826172,-80.0009994506836z"></path></g><g opacity="1" transform="matrix(1,0,0,1,0,0)"><path fill="rgb(61,0,0)" fill-opacity="1" d=" M-100.48300170898438,-74.06500244140625 C-98.83300018310547,-75.54199981689453 -95.53500366210938,-77.36699676513672 -92.58499908447266,-78.03299713134766 C-79.78600311279297,-80.9260025024414 -57.26100158691406,-78.3759994506836 -40.332000732421875,-63.13100051879883 C-28.322999954223633,-52.32099914550781 -23.5939998626709,-43.85200119018555 -22.527999877929688,-38.61800003051758 C-19.645000457763672,-40.82600021362305 -20.78700065612793,-51.939998626708984 -39.38100051879883,-68.67900085449219 C-56.310001373291016,-83.92400360107422 -78.83399963378906,-86.4739990234375 -91.63300323486328,-83.58100128173828 C-94.58300018310547,-82.91500091552734 -97.96099853515625,-81.23999786376953 -99.16999816894531,-80.00299835205078 C-101.25399780273438,-77.85199737548828 -101.7959976196289,-75.7490005493164 -100.48300170898438,-74.06500244140625z"></path></g></g></g></g><g style="display: block;" transform="matrix(1,0,0,1,256,256)" opacity="1"><g opacity="0.6" transform="matrix(1,0,0,1,0,0)"><path fill="rgb(186,0,0)" fill-opacity="1" d=" M161.8489990234375,88.33999633789062 C150.48899841308594,107.18000030517578 125.27100372314453,133.53500366210938 102.80999755859375,148.3179931640625 C102.80999755859375,148.3179931640625 48.422000885009766,136.66000366210938 -1.2710000276565552,136.66000366210938 C-63.56999969482422,136.66000366210938 -102.52999877929688,148.0800018310547 -102.52999877929688,148.0800018310547 C-128.9040069580078,131.20899963378906 -149.69200134277344,104.87999725341797 -161.39199829101562,84.25 C-161.39199829101562,84.25 -161.0800018310547,35.5 -160,35.5 C-160,35.5 159.8990020751953,35.5 159.8990020751953,35.5 C160.97900390625,35.5 161.8489990234375,88.33999633789062 161.8489990234375,88.33999633789062z"></path></g><g opacity="1" transform="matrix(1,0,0,1,0,0)"><path fill="url(#__lottie_element_22256)" fill-opacity="1" d=" M162.9029998779297,126.65599822998047 C162.9029998779297,126.65599822998047 -159.44400024414062,126.65599822998047 -159.44400024414062,126.65599822998047 C-160.52000427246094,126.65599822998047 -161.39199829101562,125.78299713134766 -161.39199829101562,124.70700073242188 C-161.39199829101562,124.70700073242188 -161.39199829101562,26.44700050354004 -161.39199829101562,26.44700050354004 C-161.39199829101562,25.371000289916992 -160.52000427246094,24.49799919128418 -159.44400024414062,24.49799919128418 C-159.44400024414062,24.49799919128418 162.9029998779297,24.49799919128418 162.9029998779297,24.49799919128418 C163.97900390625,24.49799919128418 164.8520050048828,25.371000289916992 164.8520050048828,26.44700050354004 C164.8520050048828,26.44700050354004 164.8520050048828,124.70700073242188 164.8520050048828,124.70700073242188 C164.8520050048828,125.78299713134766 163.97900390625,126.65599822998047 162.9029998779297,126.65599822998047z"></path></g></g><g style="display: block;" transform="matrix(1,0,0,1,254.0189971923828,256)" opacity="1"><g opacity="1" transform="matrix(1,0,0,1,0,0)"><path fill="url(#__lottie_element_22298)" fill-opacity="1" d=" M-89.83799743652344,70.9020004272461 C-89.83799743652344,70.9020004272461 -89.83799743652344,68.07599639892578 -89.83799743652344,68.07599639892578 C-89.83799743652344,68.07599639892578 -99.93099975585938,68.07599639892578 -99.93099975585938,68.07599639892578 C-99.93099975585938,68.07599639892578 -99.93099975585938,71 -99.93099975585938,71 C-99.93099975585938,79.31199645996094 -100.86199951171875,85.69100189208984 -102.6989974975586,89.9990005493164 C-102.6989974975586,89.9990005493164 -119.08799743652344,72.01499938964844 -119.08799743652344,72.01499938964844 C-114.49199676513672,69.4990005493164 -110.87699890136719,66.89800262451172 -108.3290023803711,64.27100372314453 C-105.45700073242188,61.31100082397461 -104,57.5989990234375 -104,53.23699951171875 C-104,49.93199920654297 -104.86799621582031,46.90999984741211 -106.5780029296875,44.25699996948242 C-108.27999877929688,41.61600112915039 -110.62000274658203,39.540000915527344 -113.53299713134766,38.08300018310547 C-116.4229965209961,36.63800048828125 -119.72699737548828,35.904998779296875 -123.3550033569336,35.904998779296875 C-128.88400268554688,35.904998779296875 -133.51100158691406,37.56999969482422 -137.1060028076172,40.854000091552734 C-140.7270050048828,44.1619987487793 -142.56300354003906,48.262001037597656 -142.56300354003906,53.040000915527344 C-142.56300354003906,56.2400016784668 -141.71600341796875,59.23899841308594 -140.04600524902344,61.952999114990234 C-138.60899353027344,64.28800201416016 -136.63499450683594,66.85700225830078 -134.1699981689453,69.60299682617188 C-134.25900268554688,69.6520004272461 -134.3520050048828,69.70099639892578 -134.447998046875,69.75499725341797 C-135.26499938964844,70.20600128173828 -135.47799682617188,70.28600311279297 -135.51300048828125,70.2979965209961 C-135.51300048828125,70.2979965209961 -135.6719970703125,70.36799621582031 -135.6719970703125,70.36799621582031 C-140.3470001220703,72.88899993896484 -144.0229949951172,75.86000061035156 -146.59800720214844,79.1969985961914 C-149.22500610351562,82.60099792480469 -150.5570068359375,86.76599884033203 -150.5570068359375,91.5770034790039 C-150.5570068359375,98.14700317382812 -148.08299255371094,103.48100280761719 -143.20399475097656,107.4280014038086 C-138.38999938964844,111.3239974975586 -132.34100341796875,113.30000305175781 -125.2300033569336,113.30000305175781 C-116.375,113.30000305175781 -108.55500030517578,110.49299621582031 -101.97000122070312,104.9540023803711 C-101.97000122070312,104.9540023803711 -95.56800079345703,111.87000274658203 -95.56800079345703,111.87000274658203 C-95.56800079345703,111.87000274658203 -81.80799865722656,111.87000274658203 -81.80799865722656,111.87000274658203 C-81.80799865722656,111.87000274658203 -95.50399780273438,97.37100219726562 -95.50399780273438,97.37100219726562 C-91.74400329589844,91.11299896240234 -89.83799743652344,82.21299743652344 -89.83799743652344,70.9020004272461z M-132.2239990234375,53.48400115966797 C-132.2239990234375,50.90700149536133 -131.41600036621094,48.84600067138672 -129.75399780273438,47.183998107910156 C-128.09100341796875,45.52199935913086 -125.96600341796875,44.7130012512207 -123.25700378417969,44.7130012512207 C-121.52400207519531,44.7130012512207 -119.96199798583984,45.073001861572266 -118.61599731445312,45.78300094604492 C-117.29000091552734,46.48099899291992 -116.20999908447266,47.512001037597656 -115.40399932861328,48.84400177001953 C-114.5989990234375,50.176998138427734 -114.19100189208984,51.6870002746582 -114.19100189208984,53.334999084472656 C-114.19100189208984,56.03799819946289 -115.08399963378906,58.21699905395508 -116.9209976196289,59.99399948120117 C-118.75700378417969,61.770999908447266 -121.5530014038086,63.64899826049805 -125.23899841308594,65.58100128173828 C-127.84700012207031,62.95399856567383 -129.6739959716797,60.72200012207031 -130.6750030517578,58.93899917602539 C-131.7030029296875,57.111000061035156 -132.2239990234375,55.2760009765625 -132.2239990234375,53.48400115966797z M-128.02699279785156,76.37799835205078 C-128.02699279785156,76.37799835205078 -108.3030014038086,98.10900115966797 -108.3030014038086,98.10900115966797 C-110.26899719238281,99.99099731445312 -112.64900207519531,101.42400360107422 -115.39399719238281,102.375 C-118.49500274658203,103.45099639892578 -121.55599975585938,103.99700164794922 -124.49099731445312,103.99700164794922 C-128.8520050048828,103.99700164794922 -132.59100341796875,102.84600067138672 -135.60699462890625,100.572998046875 C-138.57699584960938,98.33499908447266 -140.02000427246094,95.18199920654297 -140.02000427246094,90.93499755859375 C-140.02000427246094,87.95600128173828 -139.17999267578125,85.38500213623047 -137.52200317382812,83.29000091552734 C-135.8090057373047,81.125 -133.21299743652344,79.0989990234375 -129.80299377441406,77.26599884033203 C-129.80299377441406,77.26599884033203 -128.02699279785156,76.37799835205078 -128.02699279785156,76.37799835205078z"></path></g></g><g style="display: block;" transform="matrix(1,0,0,1,256,256)" opacity="1"><g opacity="1" transform="matrix(1,0,0,1,0,0)"><path fill="url(#__lottie_element_22294)" fill-opacity="1" d=" M-42.654998779296875,69.93699645996094 C-42.654998779296875,69.93699645996094 -46.111000061035156,69.0009994506836 -46.111000061035156,69.0009994506836 C-46.111000061035156,69.0009994506836 -46.111000061035156,45.27399826049805 -46.111000061035156,45.27399826049805 C-42.983001708984375,45.8380012512207 -40.433998107910156,47.04100036621094 -38.52299880981445,48.85499954223633 C-36.39699935913086,50.875999450683594 -35.30400085449219,53.30799865722656 -35.18199920654297,56.28799819946289 C-35.18199920654297,56.28799819946289 -35.143001556396484,57.24700164794922 -35.143001556396484,57.24700164794922 C-35.143001556396484,57.24700164794922 -25.05500030517578,57.24700164794922 -25.05500030517578,57.24700164794922 C-25.05500030517578,57.24700164794922 -25.090999603271484,56.21099853515625 -25.090999603271484,56.21099853515625 C-25.29800033569336,50.32600021362305 -27.496000289916992,45.50400161743164 -31.62299919128418,41.87699890136719 C-35.494998931884766,38.47600173950195 -40.3650016784668,36.402000427246094 -46.111000061035156,35.70899963378906 C-46.111000061035156,35.70899963378906 -46.111000061035156,28.650999069213867 -46.111000061035156,28.650999069213867 C-46.111000061035156,28.650999069213867 -55.018001556396484,28.650999069213867 -55.018001556396484,28.650999069213867 C-55.018001556396484,28.650999069213867 -55.018001556396484,35.82099914550781 -55.018001556396484,35.82099914550781 C-58.709999084472656,36.305999755859375 -62.04199981689453,37.290000915527344 -64.93099975585938,38.75 C-68.10600280761719,40.35499954223633 -70.69599914550781,42.715999603271484 -72.62699890136719,45.76900100708008 C-74.56400299072266,48.82899856567383 -75.54499816894531,52.48699951171875 -75.54499816894531,56.641998291015625 C-75.54499816894531,59.430999755859375 -75.13700103759766,62.03200149536133 -74.08300018310547,64.26300048828125 C-71.33300018310547,70.08300018310547 -63.66600036621094,74.60299682617188 -58.28799819946289,76.10700225830078 C-58.28799819946289,76.10700225830078 -55.018001556396484,77.03600311279297 -55.018001556396484,77.03600311279297 C-55.018001556396484,77.03600311279297 -55.018001556396484,102.41500091552734 -55.018001556396484,102.41500091552734 C-58.62200164794922,101.8270034790039 -61.47100067138672,100.56099700927734 -63.49700164794922,98.64600372314453 C-65.73200225830078,96.53299713134766 -66.93800354003906,93.9530029296875 -67.18299865722656,90.76000213623047 C-67.18299865722656,90.76000213623047 -67.25399780273438,89.83599853515625 -67.25399780273438,89.83599853515625 C-67.25399780273438,89.83599853515625 -77.53800201416016,89.83599853515625 -77.53800201416016,89.83599853515625 C-77.53800201416016,89.83599853515625 -77.51899719238281,90.8550033569336 -77.51899719238281,90.8550033569336 C-77.41500091552734,96.43199920654297 -75.31300354003906,101.25700378417969 -71.27100372314453,105.19599914550781 C-67.4209976196289,108.9489974975586 -61.95600128173828,111.19499969482422 -55.018001556396484,111.88300323486328 C-55.018001556396484,111.88300323486328 -55.018001556396484,118.72799682617188 -55.018001556396484,118.72799682617188 C-55.018001556396484,118.72799682617188 -46.111000061035156,118.72799682617188 -46.111000061035156,118.72799682617188 C-46.111000061035156,118.72799682617188 -46.111000061035156,111.87699890136719 -46.111000061035156,111.87699890136719 C-39.698001861572266,111.19599914550781 -34.400001525878906,109.10700225830078 -30.351999282836914,105.66100311279297 C-26.042999267578125,101.99199676513672 -23.85700035095215,96.83799743652344 -23.85700035095215,90.34300231933594 C-23.85700035095215,84.73200225830078 -25.475000381469727,80.26799774169922 -28.665000915527344,77.0780029296875 C-31.78700065612793,73.95600128173828 -36.49700164794922,71.552001953125 -42.654998779296875,69.93699645996094z M-46.111000061035156,79.22799682617188 C-45.94200134277344,79.27100372314453 -45.762001037597656,79.31500244140625 -45.573001861572266,79.36000061035156 C-41.16299819946289,80.68299865722656 -38.07600021362305,82.27400207519531 -36.39699935913086,84.08899688720703 C-34.75,85.87100219726562 -33.94900131225586,88.0780029296875 -33.94900131225586,90.83599853515625 C-33.94900131225586,94.34400177001953 -35.09299850463867,97.0250015258789 -37.446998596191406,99.03199768066406 C-39.62300109863281,100.88700103759766 -42.534000396728516,102.06700134277344 -46.111000061035156,102.5469970703125 C-46.111000061035156,102.5469970703125 -46.111000061035156,79.22799682617188 -46.111000061035156,79.22799682617188z M-56.90999984741211,65.9739990234375 C-62.659000396728516,63.71799850463867 -65.4530029296875,60.47200012207031 -65.4530029296875,56.04899978637695 C-65.4530029296875,52.89799880981445 -64.4489974975586,50.47100067138672 -62.382999420166016,48.62900161743164 C-60.50699996948242,46.95600128173828 -58.03200149536133,45.832000732421875 -55.018001556396484,45.27799987792969 C-55.018001556396484,45.27799987792969 -55.018001556396484,66.58799743652344 -55.018001556396484,66.58799743652344 C-55.597999572753906,66.40399932861328 -56.23099899291992,66.19999694824219 -56.90999984741211,65.9739990234375z"></path></g></g><g style="display: none;"><g><path fill="url(#__lottie_element_22290)"></path></g></g><g style="display: block;" transform="matrix(1,0,0,1,256,256)" opacity="1"><g opacity="1" transform="matrix(1,0,0,1,0,0)"><path fill="url(#__lottie_element_22285)" fill-opacity="1" d=" M2.181999921798706,85.47100067138672 C2.181999921798706,85.47100067138672 3.365000009536743,36.54499816894531 3.365000009536743,36.54499816894531 C3.365000009536743,36.54499816894531 -8.35200023651123,36.54499816894531 -8.35200023651123,36.54499816894531 C-8.35200023651123,36.54499816894531 -7.271999835968018,85.47100067138672 -7.271999835968018,85.47100067138672 C-7.271999835968018,85.47100067138672 2.181999921798706,85.47100067138672 2.181999921798706,85.47100067138672z"></path></g><g opacity="1" transform="matrix(1,0,0,1,0,0)"><path fill="url(#__lottie_element_22286)" fill-opacity="1" d=" M-2.7899999618530273,96.30000305175781 C-5.0289998054504395,96.30000305175781 -6.9770002365112305,97.11199951171875 -8.579999923706055,98.71499633789062 C-10.182000160217285,100.31700134277344 -10.994999885559082,102.2969970703125 -10.994999885559082,104.60299682617188 C-10.994999885559082,106.91300201416016 -10.180000305175781,108.87999725341797 -8.571999549865723,110.44999694824219 C-6.9720001220703125,112.01399993896484 -5.026000022888184,112.80699920654297 -2.7899999618530273,112.80699920654297 C-0.42399999499320984,112.80699920654297 1.5870000123977661,112.01399993896484 3.187999963760376,110.44999694824219 C4.796000003814697,108.87899780273438 5.611000061035156,106.91200256347656 5.611000061035156,104.60299682617188 C5.611000061035156,102.22899627685547 4.796000003814697,100.22899627685547 3.187999963760376,98.65699768066406 C1.5870000123977661,97.09300231933594 -0.42399999499320984,96.30000305175781 -2.7899999618530273,96.30000305175781z"></path></g></g><g style="display: block;" transform="matrix(1,0,0,1,256,256)" opacity="1"><g opacity="1" transform="matrix(1,0,0,1,0,0)"><path fill="url(#__lottie_element_22281)" fill-opacity="1" d=" M72.40899658203125,36.54499816894531 C72.40899658203125,36.54499816894531 63.608001708984375,36.54499816894531 63.608001708984375,36.54499816894531 C63.608001708984375,36.54499816894531 59.41400146484375,57.073001861572266 59.41400146484375,57.073001861572266 C59.41400146484375,57.073001861572266 45.51100158691406,57.073001861572266 45.51100158691406,57.073001861572266 C45.51100158691406,57.073001861572266 49.606998443603516,36.54499816894531 49.606998443603516,36.54499816894531 C49.606998443603516,36.54499816894531 40.70800018310547,36.54499816894531 40.70800018310547,36.54499816894531 C40.70800018310547,36.54499816894531 36.612998962402344,57.073001861572266 36.612998962402344,57.073001861572266 C36.612998962402344,57.073001861572266 26.01099967956543,57.073001861572266 26.01099967956543,57.073001861572266 C26.01099967956543,57.073001861572266 24.165000915527344,65.98100280761719 24.165000915527344,65.98100280761719 C24.165000915527344,65.98100280761719 34.68199920654297,65.98100280761719 34.68199920654297,65.98100280761719 C34.68199920654297,65.98100280761719 31.482999801635742,81.84300231933594 31.482999801635742,81.84300231933594 C31.482999801635742,81.84300231933594 20.386999130249023,81.84300231933594 20.386999130249023,81.84300231933594 C20.386999130249023,81.84300231933594 18.538999557495117,90.7020034790039 18.538999557495117,90.7020034790039 C18.538999557495117,90.7020034790039 29.5049991607666,90.7020034790039 29.5049991607666,90.7020034790039 C29.5049991607666,90.7020034790039 25.31100082397461,111.87000274658203 25.31100082397461,111.87000274658203 C25.31100082397461,111.87000274658203 34.25400161743164,111.87000274658203 34.25400161743164,111.87000274658203 C34.25400161743164,111.87000274658203 38.547000885009766,90.7020034790039 38.547000885009766,90.7020034790039 C38.547000885009766,90.7020034790039 52.441001892089844,90.7020034790039 52.441001892089844,90.7020034790039 C52.441001892089844,90.7020034790039 48.0989990234375,111.87000274658203 48.0989990234375,111.87000274658203 C48.0989990234375,111.87000274658203 57.05099868774414,111.87000274658203 57.05099868774414,111.87000274658203 C57.05099868774414,111.87000274658203 61.34299850463867,90.7020034790039 61.34299850463867,90.7020034790039 C61.34299850463867,90.7020034790039 72.44100189208984,90.7020034790039 72.44100189208984,90.7020034790039 C72.44100189208984,90.7020034790039 74.28900146484375,81.84300231933594 74.28900146484375,81.84300231933594 C74.28900146484375,81.84300231933594 63.18600082397461,81.84300231933594 63.18600082397461,81.84300231933594 C63.18600082397461,81.84300231933594 66.47200012207031,65.98100280761719 66.47200012207031,65.98100280761719 C66.47200012207031,65.98100280761719 78.2760009765625,65.98100280761719 78.2760009765625,65.98100280761719 C78.2760009765625,65.98100280761719 79.99400329589844,57.073001861572266 79.99400329589844,57.073001861572266 C79.99400329589844,57.073001861572266 68.21499633789062,57.073001861572266 68.21499633789062,57.073001861572266 C68.21499633789062,57.073001861572266 72.40899658203125,36.54499816894531 72.40899658203125,36.54499816894531z M57.56999969482422,65.98100280761719 C57.56999969482422,65.98100280761719 54.284000396728516,81.84300231933594 54.284000396728516,81.84300231933594 C54.284000396728516,81.84300231933594 40.29100036621094,81.84300231933594 40.29100036621094,81.84300231933594 C40.29100036621094,81.84300231933594 43.57699966430664,65.98100280761719 43.57699966430664,65.98100280761719 C43.57699966430664,65.98100280761719 57.56999969482422,65.98100280761719 57.56999969482422,65.98100280761719z"></path></g></g><g style="display: block;" transform="matrix(1,0,0,1,256,256)" opacity="1"><g opacity="1" transform="matrix(1,0,0,1,0,0)"><path fill="url(#__lottie_element_22275)" fill-opacity="1" d=" M101.39199829101562,75.40499877929688 C106.26799774169922,75.40499877929688 110.19499969482422,73.53099822998047 113.06300354003906,69.83699798583984 C115.87100219726562,66.21900177001953 117.29399871826172,61.7140007019043 117.29399871826172,56.444000244140625 C117.29399871826172,56.444000244140625 117.29399871826172,55.01300048828125 117.29399871826172,55.01300048828125 C117.29399871826172,52.944000244140625 117.0780029296875,50.94300079345703 116.6520004272461,49.06800079345703 C116.22000122070312,47.16999816894531 115.54399871826172,45.409000396728516 114.6449966430664,43.83300018310547 C113.74299621582031,42.257999420166016 112.66200256347656,40.86800003051758 111.42900085449219,39.70399856567383 C110.17400360107422,38.52000045776367 108.68000030517578,37.582000732421875 106.99099731445312,36.91299819946289 C105.302001953125,36.24399948120117 103.45099639892578,35.904998779296875 101.49099731445312,35.904998779296875 C98.26499938964844,35.904998779296875 95.38700103759766,36.79800033569336 92.93800354003906,38.560001373291016 C90.51000213623047,40.30699920654297 88.66999816894531,42.650001525878906 87.46800231933594,45.52399826049805 C86.28700256347656,48.347999572753906 85.68800354003906,51.4739990234375 85.68800354003906,54.816001892089844 C85.68800354003906,54.816001892089844 85.68800354003906,56.24700164794922 85.68800354003906,56.24700164794922 C85.68800354003906,61.64500045776367 87.08499908447266,66.21499633789062 89.83999633789062,69.83100128173828 C92.65799713134766,73.52899932861328 96.54399871826172,75.40499877929688 101.39199829101562,75.40499877929688z M101.49099731445312,67.43499755859375 C99.177001953125,67.43499755859375 97.43800354003906,66.43699645996094 96.17400360107422,64.38200378417969 C94.83200073242188,62.20199966430664 94.1520004272461,59.28200149536133 94.1520004272461,55.70399856567383 C94.1520004272461,55.70399856567383 94.1520004272461,55.308998107910156 94.1520004272461,55.308998107910156 C94.1520004272461,51.895999908447266 94.83200073242188,49.069000244140625 96.1729965209961,46.904998779296875 C97.43699645996094,44.86600112915039 99.20800018310547,43.874000549316406 101.58899688720703,43.874000549316406 C103.9010009765625,43.874000549316406 105.63200378417969,44.8650016784668 106.87999725341797,46.9010009765625 C108.20600128173828,49.06700134277344 108.87899780273438,51.96200180053711 108.87899780273438,55.50600051879883 C108.87899780273438,55.50600051879883 108.87899780273438,55.803001403808594 108.87899780273438,55.803001403808594 C108.87899780273438,59.37200164794922 108.1780014038086,62.268001556396484 106.79399871826172,64.41300201416016 C105.48100280761719,66.44599914550781 103.74700164794922,67.43499755859375 101.49099731445312,67.43499755859375z"></path></g><g opacity="1" transform="matrix(1,0,0,1,0,0)"><path fill="url(#__lottie_element_22276)" fill-opacity="1" d=" M146.48899841308594,36.54499816894531 C146.48899841308594,36.54499816894531 118.36000061035156,73.60099792480469 118.36000061035156,73.60099792480469 C118.36000061035156,73.60099792480469 89.20800018310547,111.87000274658203 89.20800018310547,111.87000274658203 C89.20800018310547,111.87000274658203 99.32099914550781,111.87000274658203 99.32099914550781,111.87000274658203 C99.32099914550781,111.87000274658203 156.70199584960938,36.54499816894531 156.70199584960938,36.54499816894531 C156.70199584960938,36.54499816894531 146.48899841308594,36.54499816894531 146.48899841308594,36.54499816894531z"></path></g><g opacity="1" transform="matrix(1,0,0,1,0,0)"><path fill="url(#__lottie_element_22277)" fill-opacity="1" d=" M156.18499755859375,78.4260025024414 C153.31700134277344,74.76699829101562 149.4080047607422,72.91200256347656 144.56700134277344,72.91200256347656 C139.72300720214844,72.91200256347656 135.8300018310547,74.76899719238281 132.9949951171875,78.43099975585938 C130.2209930419922,82.01599884033203 128.81399536132812,86.50499725341797 128.81399536132812,91.77400207519531 C128.81399536132812,91.77400207519531 128.81399536132812,93.10600280761719 128.81399536132812,93.10600280761719 C128.81399536132812,98.56700134277344 130.1929931640625,103.16899871826172 132.91299438476562,106.78399658203125 C135.697998046875,110.48600006103516 139.5679931640625,112.36299896240234 144.41900634765625,112.36299896240234 C149.36000061035156,112.36299896240234 153.32000732421875,110.48899841308594 156.18800354003906,106.79499816894531 C158.99600219726562,103.177001953125 160.41900634765625,98.63800048828125 160.41900634765625,93.3030014038086 C160.41900634765625,93.3030014038086 160.41900634765625,91.87200164794922 160.41900634765625,91.87200164794922 C160.41900634765625,86.53700256347656 158.9949951171875,82.01300048828125 156.18499755859375,78.4260025024414z M144.61700439453125,104.44200134277344 C142.30099487304688,104.44200134277344 140.5449981689453,103.43299865722656 139.2480010986328,101.35900115966797 C137.875,99.16400146484375 137.1790008544922,96.22100067138672 137.1790008544922,92.61299896240234 C137.1790008544922,92.61299896240234 137.1790008544922,92.16799926757812 137.1790008544922,92.16799926757812 C137.1790008544922,88.81800079345703 137.86099243164062,86.00599670410156 139.20399475097656,83.80799865722656 C140.46800231933594,81.73999786376953 142.23899841308594,80.73400115966797 144.61700439453125,80.73400115966797 C146.15699768066406,80.73400115966797 147.43499755859375,81.19499969482422 148.5240020751953,82.14099884033203 C149.6479949951172,83.12100219726562 150.5050048828125,84.47599792480469 151.06900024414062,86.16899871826172 C151.65699768066406,87.93499755859375 151.95599365234375,90.01899719238281 151.95599365234375,92.36599731445312 C151.95599365234375,92.36599731445312 151.95599365234375,92.80999755859375 151.95599365234375,92.80999755859375 C151.95599365234375,96.3499984741211 151.26100158691406,99.24099731445312 149.89100646972656,101.40399932861328 C148.59500122070312,103.447998046875 146.8699951171875,104.44200134277344 144.61700439453125,104.44200134277344z"></path></g></g><g style="display: none;"><g><path fill="url(#__lottie_element_22271)"></path></g></g><g style="display: none;"><g><path fill="url(#__lottie_element_22267)"></path></g></g><g style="display: none;"><g><path fill="url(#__lottie_element_22263)"></path></g></g><g style="display: none;"><g><path fill="url(#__lottie_element_22259)"></path></g></g></g></svg>