<svg xmlns="http://www.w3.org/2000/svg" viewBox="0 0 512 512" width="512" height="512" style="width: 100%; height: 100%; transform: translate3d(0,0,0);" preserveAspectRatio="xMidYMid meet"><defs><clipPath id="__lottie_element_22312"><rect width="512" height="512" x="0" y="0"></rect></clipPath><linearGradient id="__lottie_element_22317" spreadMethod="pad" gradientUnits="userSpaceOnUse" x1="-199" y1="1" x2="192.25999450683594" y2="1"><stop offset="0%" stop-color="rgb(225,231,242)"></stop><stop offset="29%" stop-color="rgb(240,243,249)"></stop><stop offset="45%" stop-color="rgb(255,255,255)"></stop><stop offset="71%" stop-color="rgb(239,243,249)"></stop><stop offset="88%" stop-color="rgb(224,231,243)"></stop><stop offset="96%" stop-color="rgb(231,236,246)"></stop><stop offset="100%" stop-color="rgb(237,241,249)"></stop></linearGradient><linearGradient id="__lottie_element_22318" spreadMethod="pad" gradientUnits="userSpaceOnUse" x1="-199" y1="1" x2="192.25999450683594" y2="1"><stop offset="0%" stop-color="rgb(225,231,242)"></stop><stop offset="29%" stop-color="rgb(240,243,249)"></stop><stop offset="45%" stop-color="rgb(255,255,255)"></stop><stop offset="71%" stop-color="rgb(239,243,249)"></stop><stop offset="88%" stop-color="rgb(224,231,243)"></stop><stop offset="96%" stop-color="rgb(231,236,246)"></stop><stop offset="100%" stop-color="rgb(237,241,249)"></stop></linearGradient><linearGradient id="__lottie_element_22319" spreadMethod="pad" gradientUnits="userSpaceOnUse" x1="-199" y1="1" x2="192.25999450683594" y2="1"><stop offset="0%" stop-color="rgb(205,0,37)"></stop><stop offset="31%" stop-color="rgb(230,0,19)"></stop><stop offset="45%" stop-color="rgb(255,0,0)"></stop><stop offset="72%" stop-color="rgb(224,0,9)"></stop><stop offset="89%" stop-color="rgb(193,0,19)"></stop><stop offset="96%" stop-color="rgb(224,0,9)"></stop><stop offset="100%" stop-color="rgb(255,0,0)"></stop></linearGradient></defs><g clip-path="url(#__lottie_element_22312)"><g style="display: block;" transform="matrix(1,0,0,1,256,256)" opacity="1"><g opacity="1" transform="matrix(1,0,0,1,0,0)"><g opacity="0" transform="matrix(1,0,0,1,0,0)"><path fill="url(#__lottie_element_22317)" fill-opacity="1" d=" M94.375,141.6179962158203 C104,152 82.5,140.5 68.375,164.4080047607422 C63.08100128173828,173.36900329589844 64.91000366210938,135.5780029296875 53.007999420166016,106.92500305175781 C20.38800048828125,28.395999908447266 4,2 21.507999420166016,5.60699987411499 C58.314998626708984,13.1899995803833 68.82499694824219,114.05999755859375 94.375,141.6179962158203z"></path><path stroke-linecap="round" stroke-linejoin="round" fill-opacity="0" stroke="rgb(156,169,189)" stroke-opacity="1" stroke-width="8" d=" M94.375,141.6179962158203 C104,152 82.5,140.5 68.375,164.4080047607422 C63.08100128173828,173.36900329589844 64.91000366210938,135.5780029296875 53.007999420166016,106.92500305175781 C20.38800048828125,28.395999908447266 4,2 21.507999420166016,5.60699987411499 C58.314998626708984,13.1899995803833 68.82499694824219,114.05999755859375 94.375,141.6179962158203z"></path></g><g opacity="1" transform="matrix(1,0,0,1,0,0.125)"><path fill="url(#__lottie_element_22318)" fill-opacity="1" d=" M198.375,-128.3820037841797 C198.375,-128.3820037841797 198.375,126.90799713134766 198.375,126.90799713134766 C175.01199340820312,118.00399780273438 146.53399658203125,111.14900207519531 106.50800323486328,111.92500305175781 C73.97799682617188,112.55599975585938 33.821998596191406,118.22799682617188 -17.415000915527344,131.93800354003906 C-60.2599983215332,143.40199279785156 -95.20999908447266,146.30799865722656 -122.56800079345703,145.2259979248047 C-173.76800537109375,143.2010040283203 -198.375,127.20800018310547 -198.375,127.20800018310547 C-198.375,127.20800018310547 -198.375,-128.0919952392578 -198.375,-128.0919952392578 C-198.375,-128.0919952392578 -171.6750030517578,-110.73400115966797 -116.03199768066406,-109.88800048828125 C-89.71399688720703,-109.48799896240234 -56.92100143432617,-112.78099822998047 -17.415000915527344,-123.35199737548828 C23.795000076293945,-134.37899780273438 57.83700180053711,-140.20599365234375 86.50800323486328,-142.39300537109375 C137.34500122070312,-146.27000427246094 171.2969970703125,-138.70199584960938 198.375,-128.3820037841797z"></path></g><g opacity="0.5" transform="matrix(1,0,0,1,0,0)"><g opacity="1" transform="matrix(1,0,0,1,0,0)"><g opacity="1" transform="matrix(1,0,0,1,0,0)"><path fill="rgb(255,255,255)" fill-opacity="1" d=" M198.375,-128.3820037841797 C198.375,-128.3820037841797 198.375,-112.63200378417969 198.375,-112.63200378417969 C171.4010009765625,-122.91200256347656 137.60800170898438,-130.46099853515625 87.0979995727539,-126.68699645996094 C58.30400085449219,-124.53600311279297 24.077999114990234,-118.70500183105469 -17.415000915527344,-107.60199737548828 C-58.16899871826172,-96.6969985961914 -91.77999877929688,-93.53700256347656 -118.50800323486328,-94.18699645996094 C-172.46800231933594,-95.4990005493164 -198.375,-112.34200286865234 -198.375,-112.34200286865234 C-198.375,-112.34200286865234 -198.375,-128.0919952392578 -198.375,-128.0919952392578 C-198.375,-128.0919952392578 -172.13900756835938,-111.03600311279297 -117.48100280761719,-109.91400146484375 C-90.9209976196289,-109.36900329589844 -57.64899826049805,-112.58599853515625 -17.415000915527344,-123.35199737548828 C23.961000442504883,-134.4239959716797 58.11199951171875,-140.2530059814453 86.8550033569336,-142.41900634765625 C137.5,-146.23500061035156 171.35800170898438,-138.67799377441406 198.375,-128.3820037841797z"></path></g></g><g opacity="1" transform="matrix(1,0,0,1,0,0)"><path fill="rgb(255,255,255)" fill-opacity="1" d=" M198.375,-128.3820037841797 C198.375,-128.3820037841797 198.375,126.90799713134766 198.375,126.90799713134766 C193.9550018310547,125.21800231933594 189.34500122070312,123.60800170898438 184.5050048828125,122.11799621582031 C184.5050048828125,122.11799621582031 184.5050048828125,-133.1719970703125 184.5050048828125,-133.1719970703125 C189.34500122070312,-131.6820068359375 193.9550018310547,-130.07200622558594 198.375,-128.3820037841797z"></path></g></g><g opacity="1" transform="matrix(1,0,0,1,0,0)"><path fill="url(#__lottie_element_22319)" fill-opacity="1" d=" M198.375,-48.7130012512207 C198.375,-48.7130012512207 198.375,42.51599884033203 198.375,42.51599884033203 C171.13999938964844,32.13600158691406 136.9530029296875,24.540000915527344 85.6240005493164,28.572999954223633 C57.13800048828125,30.81100082397461 23.371999740600586,36.63199996948242 -17.415000915527344,47.54600143432617 C-57.402000427246094,58.244998931884766 -90.51200103759766,61.4900016784668 -116.99099731445312,60.99599838256836 C-171.98199462890625,59.96900177001953 -198.375,42.816001892089844 -198.375,42.816001892089844 C-198.375,42.816001892089844 -198.375,-48.42300033569336 -198.375,-48.42300033569336 C-198.375,-48.42300033569336 -172.30599975585938,-31.47599983215332 -118.00499725341797,-30.256000518798828 C-91.35900115966797,-29.656999588012695 -57.91400146484375,-32.84600067138672 -17.415000915527344,-43.68299865722656 C23.326000213623047,-54.584999084472656 57.0620002746582,-60.40399932861328 85.52799987792969,-62.64799880981445 C136.91000366210938,-66.697998046875 171.1230010986328,-59.0989990234375 198.375,-48.7130012512207z"></path></g><g opacity="0.3" transform="matrix(1,0,0,1,0,0)"><path fill="rgb(255,255,255)" fill-opacity="1" d=" M198.37899780273438,-48.71799850463867 C198.37899780273438,-48.71799850463867 198.37899780273438,42.512001037597656 198.37899780273438,42.512001037597656 C193.95899963378906,40.821998596191406 189.3489990234375,39.21200180053711 184.50900268554688,37.72200012207031 C184.50900268554688,37.72200012207031 184.50900268554688,-53.507999420166016 184.50900268554688,-53.507999420166016 C189.3489990234375,-52.018001556396484 193.95899963378906,-50.40800094604492 198.37899780273438,-48.71799850463867z"></path></g><g opacity="0.2" transform="matrix(1,0,0,1,0,0)"><path fill="rgb(146,158,176)" fill-opacity="1" d=" M198.375,109.97799682617188 C198.375,109.97799682617188 198.375,126.90799713134766 198.375,126.90799713134766 C175.11099243164062,118.04199981689453 146.77499389648438,111.20700073242188 107.01599884033203,111.91600036621094 C74.39700317382812,112.49700164794922 34.0890007019043,118.15599822998047 -17.415000915527344,131.93800354003906 C-61.03900146484375,143.61099243164062 -96.47899627685547,146.41099548339844 -124.0530014038086,145.16299438476562 C-174.24400329589844,142.89199829101562 -198.375,127.20800018310547 -198.375,127.20800018310547 C-198.375,127.20800018310547 -198.375,110.27799987792969 -198.375,110.27799987792969 C-198.375,110.27799987792969 -173.4239959716797,126.49500274658203 -121.49400329589844,128.33700561523438 C-94.2979965209961,129.302001953125 -59.70199966430664,126.322998046875 -17.415000915527344,115.00800323486328 C34.611000061035156,101.08599853515625 75.21399688720703,95.4540023803711 108.00700378417969,94.97000122070312 C147.2469940185547,94.39099884033203 175.30499267578125,101.18599700927734 198.375,109.97799682617188z"></path><g opacity="1" transform="matrix(1,0,0,1,0,0)"></g></g></g><g opacity="1" transform="matrix(1,0,0,1,0,0)"><g opacity="1" transform="matrix(1,0,0,1,0,0)"><path stroke-linecap="round" stroke-linejoin="round" fill-opacity="0" stroke="rgb(156,169,189)" stroke-opacity="1" stroke-width="8" d=" M198.375,-128.3820037841797 C198.375,-128.3820037841797 198.375,126.90799713134766 198.375,126.90799713134766 C175.01199340820312,118.00399780273438 146.53399658203125,111.14900207519531 106.50800323486328,111.92500305175781 C73.97799682617188,112.55599975585938 33.821998596191406,118.22799682617188 -17.415000915527344,131.93800354003906 C-60.2599983215332,143.40199279785156 -95.20999908447266,146.30799865722656 -122.56800079345703,145.2259979248047 C-173.76800537109375,143.2010040283203 -198.375,127.20800018310547 -198.375,127.20800018310547 C-198.375,127.20800018310547 -198.375,-128.0919952392578 -198.375,-128.0919952392578 C-198.375,-128.0919952392578 -171.6750030517578,-110.73400115966797 -116.03199768066406,-109.88800048828125 C-89.71399688720703,-109.48799896240234 -56.92100143432617,-112.78099822998047 -17.415000915527344,-123.35199737548828 C23.795000076293945,-134.37899780273438 57.83700180053711,-140.20599365234375 86.50800323486328,-142.39300537109375 C137.34500122070312,-146.27000427246094 171.2969970703125,-138.70199584960938 198.375,-128.3820037841797z"></path></g><g opacity="0" transform="matrix(1,0,0,1,0,0)"><path stroke-linecap="round" stroke-linejoin="round" fill-opacity="0" stroke="rgb(156,169,189)" stroke-opacity="1" stroke-width="8" d=" M-15.875,-122.59200286865234 C3.5,-47.5 96.5,33 81.125,111.70800018310547"></path></g><g opacity="0" transform="matrix(1,0,0,1,0,0)"><path stroke-linecap="round" stroke-linejoin="round" fill-opacity="0" stroke="rgb(212,0,0)" stroke-opacity="1" stroke-width="8" d=" M9.041000366210938,-66.36900329589844 C22.434999465942383,-43.132999420166016 38.439998626708984,-19.56800079345703 52.11600112915039,4.130000114440918"></path></g></g></g><g style="display: block;" transform="matrix(1,0,0,1,256,256)" opacity="1"><g opacity="1" transform="matrix(1,0,0,1,0,0)"><path stroke-linecap="round" stroke-linejoin="round" fill-opacity="0" stroke="rgb(129,140,155)" stroke-opacity="1" stroke-width="8" d=" M198.375,126.90799713134766 C175.01199340820312,118.00399780273438 146.53399658203125,111.14900207519531 106.50800323486328,111.92500305175781 C73.97799682617188,112.55599975585938 33.821998596191406,118.22799682617188 -17.415000915527344,131.93800354003906 C-60.2599983215332,143.40199279785156 -95.20999908447266,146.30799865722656 -122.56800079345703,145.2259979248047 C-173.76800537109375,143.2010040283203 -198.375,127.20800018310547 -198.375,127.20800018310547 C-198.375,127.20800018310547 -198.375,-128.0919952392578 -198.375,-128.0919952392578"></path></g><g opacity="1" transform="matrix(1,0,0,1,0,0)"><g opacity="1" transform="matrix(1,0,0,1,0,0)"><path stroke-linecap="butt" stroke-linejoin="miter" fill-opacity="0" stroke-miterlimit="10" stroke="rgb(143,0,5)" stroke-opacity="1" stroke-width="8" d=" M-198.375,36.816001892089844 C-198.375,36.816001892089844 -198.375,-45.42300033569336 -198.375,-45.42300033569336"></path></g><g opacity="1" transform="matrix(1,0,0,1,0,0)"><path fill="rgb(143,0,5)" fill-opacity="1" d=" M-194.37399291992188,-46.2130012512207 C-194.37399291992188,-46.2130012512207 -199.72500610351562,-49.14500045776367 -202.36399841308594,-52.439998626708984 C-202.36399841308594,-52.439998626708984 -202.36399841308594,-45.42300033569336 -202.36399841308594,-45.42300033569336 C-202.36399841308594,-45.42300033569336 -194.37399291992188,-45.39899826049805 -194.37399291992188,-45.39899826049805 C-194.37399291992188,-45.39899826049805 -194.37399291992188,-46.2130012512207 -194.37399291992188,-46.2130012512207z"></path></g><g opacity="1" transform="matrix(1,0,0,1,0,0)"><path fill="rgb(143,0,5)" fill-opacity="1" d=" M-194.3769989013672,45.02399826049805 C-194.3769989013672,45.02399826049805 -199.04400634765625,42.582000732421875 -202.3730010986328,38.891998291015625 C-202.3730010986328,38.891998291015625 -202.3730010986328,36.35499954223633 -202.3730010986328,36.35499954223633 C-202.3730010986328,36.35499954223633 -194.3769989013672,36.35499954223633 -194.3769989013672,36.35499954223633 C-194.3769989013672,36.35499954223633 -194.3769989013672,45.02399826049805 -194.3769989013672,45.02399826049805z"></path></g></g><g opacity="1" transform="matrix(1,0,0,1,0,0)"><g opacity="1" transform="matrix(1,0,0,1,0,0)"><path stroke-linecap="butt" stroke-linejoin="miter" fill-opacity="0" stroke-miterlimit="10" stroke="rgb(193,0,24)" stroke-opacity="1" stroke-width="8" d=" M198.375,-43.7130012512207 C198.375,-43.7130012512207 198.375,40.51599884033203 198.375,40.51599884033203"></path></g><g opacity="1" transform="matrix(1,0,0,1,0,0)"><path fill="rgb(193,0,24)" fill-opacity="1" d=" M194.3800048828125,-50.19599914550781 C194.3800048828125,-50.19599914550781 199.45700073242188,-48.25899887084961 202.3730010986328,-45.56399917602539 C202.3730010986328,-45.56399917602539 202.3730010986328,-43.388999938964844 202.3730010986328,-43.388999938964844 C202.3730010986328,-43.388999938964844 194.3800048828125,-43.388999938964844 194.3800048828125,-43.388999938964844 C194.3800048828125,-43.388999938964844 194.3800048828125,-50.19599914550781 194.3800048828125,-50.19599914550781z"></path></g><g opacity="1" transform="matrix(1,0,0,1,0,0)"><path fill="rgb(193,0,24)" fill-opacity="1" d=" M194.375,41.02799987792969 C194.375,41.02799987792969 199.0590057373047,42.74700164794922 202.36599731445312,45.10200119018555 C202.36599731445312,45.10200119018555 202.36599731445312,40.10499954223633 202.36599731445312,40.10499954223633 C202.36599731445312,40.10499954223633 194.375,40.106998443603516 194.375,40.106998443603516 C194.375,40.106998443603516 194.375,41.02799987792969 194.375,41.02799987792969z"></path></g></g><g opacity="1" transform="matrix(1,0,0,1,0,0)"><g opacity="1" transform="matrix(1,0,0,1,0,0)"><path stroke-linecap="round" stroke-linejoin="round" fill-opacity="0" stroke="rgb(255,255,255)" stroke-opacity="1" stroke-width="6" d=" M184.50900268554688,-38.7859992980957 C184.50900268554688,-38.7859992980957 184.50900268554688,-37.74599838256836 184.50900268554688,-37.74599838256836"></path></g><g opacity="1" transform="matrix(1,0,0,1,0,0)"><path stroke-linecap="round" stroke-linejoin="round" fill-opacity="0" stroke="rgb(255,255,255)" stroke-opacity="1" stroke-width="6" d=" M184.50900268554688,-58.111000061035156 C184.50900268554688,-58.111000061035156 184.50900268554688,-47.928001403808594 184.50900268554688,-47.928001403808594"></path></g></g></g></g></svg>