<svg xmlns="http://www.w3.org/2000/svg" viewBox="0 0 512 512" width="512" height="512" style="width: 100%; height: 100%; transform: translate3d(0,0,0);" preserveAspectRatio="xMidYMid meet"><defs><clipPath id="__lottie_element_22323"><rect width="512" height="512" x="0" y="0"></rect></clipPath><linearGradient id="__lottie_element_22336" spreadMethod="pad" gradientUnits="userSpaceOnUse" x1="1026.4219970703125" y1="-284.7359924316406" x2="1090.2750244140625" y2="-223.64500427246094"><stop offset="10%" stop-color="rgb(105,98,110)" stop-opacity="0.5"></stop><stop offset="65%" stop-color="rgb(92,87,99)" stop-opacity="0.75"></stop><stop offset="100%" stop-color="rgb(78,77,88)" stop-opacity="1"></stop></linearGradient><linearGradient id="__lottie_element_22337" spreadMethod="pad" gradientUnits="userSpaceOnUse" x1="58" y1="216" x2="45.67100143432617" y2="35.178001403808594"><stop offset="10%" stop-color="rgb(255,255,255)" stop-opacity="0"></stop><stop offset="65%" stop-color="rgb(255,255,255)" stop-opacity="0.5"></stop><stop offset="100%" stop-color="rgb(255,255,255)" stop-opacity="1"></stop></linearGradient><linearGradient id="__lottie_element_22358" spreadMethod="pad" gradientUnits="userSpaceOnUse" x1="60" y1="-25" x2="73.53199768066406" y2="-4.057000160217285"><stop offset="0%" stop-color="rgb(60,5,0)"></stop><stop offset="38%" stop-color="rgb(111,45,0)"></stop><stop offset="100%" stop-color="rgb(162,84,0)"></stop></linearGradient><linearGradient id="__lottie_element_22359" spreadMethod="pad" gradientUnits="userSpaceOnUse" x1="-60" y1="-25" x2="-46.46799850463867" y2="-4.057000160217285"><stop offset="0%" stop-color="rgb(60,5,0)"></stop><stop offset="38%" stop-color="rgb(111,45,0)"></stop><stop offset="100%" stop-color="rgb(162,84,0)"></stop></linearGradient></defs><g clip-path="url(#__lottie_element_22323)"><g style="display: block;" transform="matrix(0.9811359643936157,0,0,1,256.3513488769531,256.0880126953125)" opacity="1"><g opacity="1" transform="matrix(1,0,0,1,0,0)"><path fill="rgb(244,172,0)" fill-opacity="1" d=" M119.55999755859375,-111.63500213623047 C81.93099975585938,-170.51400756835938 3.2950000762939453,-168.97000122070312 3.2950000762939453,-168.97000122070312 C3.2950000762939453,-168.97000122070312 -75.34100341796875,-170.51400756835938 -112.97000122070312,-111.63500213623047 C-150.5989990234375,-52.75699996948242 -166.28799438476562,57.97999954223633 -157.69700622558594,98.56600189208984 C-150,134.92799377441406 -45.95100021362305,135 3,135 C51.95100021362305,135 172,127.0009994506836 170.6909942626953,98.56600189208984 C167.4239959716797,27.610000610351562 157.18899536132812,-52.75699996948242 119.55999755859375,-111.63500213623047z"></path></g><g opacity="0.5" transform="matrix(1,0,0,1,0,0)"><path fill="rgb(197,106,5)" fill-opacity="1" d=" M119.55599975585938,-111.63400268554688 C113.25599670410156,-121.48400115966797 -105.86199951171875,-121.48400115966797 -112.16200256347656,-111.63400268554688 C-146.98199462890625,-57.14400100708008 -166.71499633789062,7.895999908447266 -160.69200134277344,82.5459976196289 C-160.65199279785156,81.61599731445312 -157.4290008544922,13.416999816894531 -128.44200134277344,26.695999145507812 C-111.16600036621094,34.61000061035156 -112.16500091552734,50.16600036621094 -84.98600006103516,79.97899627685547 C-58.58300018310547,108.94000244140625 -71.99199676513672,132.28599548339844 -96.6719970703125,127.23400115966797 C-43.125,138.19500732421875 82.75900268554688,133.50799560546875 104.06700134277344,127.23400115966797 C84.44200134277344,133.01300048828125 65.97799682617188,108.94000244140625 92.38099670410156,79.97899627685547 C119.55999755859375,50.16600036621094 118.55999755859375,34.61000061035156 135.83599853515625,26.695999145507812 C164.822998046875,13.416999816894531 171.04600524902344,81.61599731445312 171.08599853515625,82.5459976196289 C171.36599731445312,15.746000289916992 154.37600708007812,-57.14400100708008 119.55599975585938,-111.63400268554688z"></path></g><g opacity="1" transform="matrix(1,0,0,1,0,0)"><path stroke-linecap="round" stroke-linejoin="round" fill-opacity="0" stroke="rgb(185,97,0)" stroke-opacity="1" stroke-width="8" d=" M119.55999755859375,-111.63500213623047 C81.93099975585938,-170.51400756835938 -75.34100341796875,-170.51400756835938 -112.97000122070312,-111.63500213623047 C-150.5989990234375,-52.75699996948242 -166.56500244140625,58.040000915527344 -157.69700622558594,98.56600189208984 C-154.7050018310547,112.24099731445312 -140.7449951171875,118.21800231933594 -114.53500366210938,124.0780029296875 C-65.68599700927734,135 78.69100189208984,135 127.52999877929688,124.0780029296875 C151.22900390625,118.77799987792969 170.04100036621094,112.55000305175781 170.6909942626953,98.56600189208984 C173.98699951171875,27.611000061035156 157.18899536132812,-52.75699996948242 119.55999755859375,-111.63500213623047z"></path></g></g><g style="display: block;" transform="matrix(1.0399999618530273,0,0,1,261.1392822265625,263.5)" opacity="1"><g opacity="1" transform="matrix(1,0,0,1,-6.5,0)"><g opacity="1" transform="matrix(1,0,0,1,0,0)"><path fill="rgb(255,207,0)" fill-opacity="1" d=" M48.70899963378906,165.63499450683594 C48.99800109863281,163.26100158691406 43.31800079345703,91.53299713134766 43.31800079345703,90.61799621582031 C43.31800079345703,90.61799621582031 41.45100021362305,90.61799621582031 41.45100021362305,90.61799621582031 C41.45100021362305,90.61799621582031 -29.301000595092773,90.61799621582031 -29.301000595092773,90.61799621582031 C-29.301000595092773,90.61799621582031 -36.393001556396484,167.58099365234375 -36.060001373291016,170.20399475097656"></path><path stroke-linecap="round" stroke-linejoin="round" fill-opacity="0" stroke="rgb(206,115,0)" stroke-opacity="1" stroke-width="11" d=" M48.70899963378906,165.63499450683594 C48.99800109863281,163.26100158691406 43.31800079345703,91.53299713134766 43.31800079345703,90.61799621582031 C43.31800079345703,90.61799621582031 41.45100021362305,90.61799621582031 41.45100021362305,90.61799621582031 C41.45100021362305,90.61799621582031 -29.301000595092773,90.61799621582031 -29.301000595092773,90.61799621582031 C-29.301000595092773,90.61799621582031 -36.393001556396484,167.58099365234375 -36.060001373291016,170.20399475097656"></path></g><g opacity="1" transform="matrix(1,0,0,1,0,0)"><path fill="rgb(232,164,0)" fill-opacity="1" d=" M43.25400161743164,120.89099884033203 C11.609000205993652,143.24600219726562 -20.969999313354492,133.44200134277344 -31.125,121.92500305175781 C-33.14699935913086,118.79000091552734 -27.268999099731445,92.11299896240234 -27.268999099731445,92.11299896240234 C-27.268999099731445,92.11299896240234 41.81700134277344,92.31900024414062 41.81700134277344,92.31900024414062 C41.81700134277344,92.31900024414062 45.39400100708008,117.64099884033203 43.25400161743164,120.89099884033203z"></path></g></g><g opacity="1" transform="matrix(1,0,0,1,0,0)"><g opacity="1" transform="matrix(1,0,0,1,0,0)"><path fill="rgb(51,55,213)" fill-opacity="1" d=" M168.45799255371094,168.98899841308594 C121.82099914550781,140.1269989013672 75.22200012207031,126.20600128173828 41.983001708984375,119.50199890136719 C34.33300018310547,145.33299255371094 -2.2219998836517334,149.5 -2.2219998836517334,149.5 C-13.753999710083008,149.32000732421875 -37.33300018310547,140.83299255371094 -43.37900161743164,117.40899658203125 C-102.21099853515625,129.41200256347656 -92.34200286865234,236.08399963378906 -7.479000091552734,236.10899353027344 C81.02400207519531,236.13499450683594 171.36099243164062,235.7689971923828 174.81399536132812,234.97799682617188 C187.0279998779297,232.18600463867188 190.8179931640625,228.2530059814453 190.8179931640625,228.2530059814453 C188.74899291992188,213.41400146484375 188.11500549316406,181.1540069580078 168.45799255371094,168.98899841308594z"></path></g><g opacity="1" transform="matrix(1,0,0,1,0,0)"><path fill="rgb(78,100,255)" fill-opacity="1" d=" M36.5629997253418,135.2270050048828 C38.92100143432617,136.75 105.67400360107422,148.16600036621094 155.74899291992188,182.73399353027344 C168.4720001220703,191.51699829101562 172.8070068359375,220.83399963378906 174.81399536132812,234.97799682617188 C187.0279998779297,232.18600463867188 190.8179931640625,228.2530059814453 190.8179931640625,228.2530059814453 C190.8179931640625,228.2530059814453 190.8179931640625,228.2530059814453 190.8179931640625,228.2530059814453 C188.74899291992188,213.41400146484375 183.6219940185547,186.43800354003906 168.45899963378906,168.98899841308594 C164.31300354003906,164.22300720214844 96.03700256347656,131.1909942626953 42.137001037597656,116.81300354003906 C31,154.33299255371094 11.46500015258789,154.41600036621094 36.5629997253418,135.2270050048828z"></path></g><g opacity="1" transform="matrix(1,0,0,1,0,0)"><g opacity="1" transform="matrix(1,0,0,1,0,0)"><path fill="rgb(36,37,152)" fill-opacity="1" d=" M187.55299377441406,220.11599731445312 C187.55299377441406,220.11599731445312 187.76300048828125,226.23500061035156 186.9929962158203,230.781005859375 C186.9929962158203,230.781005859375 196.4219970703125,227.2530059814453 195.58599853515625,220.86399841308594 C195.58599853515625,220.86399841308594 187.55299377441406,220.11599731445312 187.55299377441406,220.11599731445312z"></path></g></g></g><g opacity="1" transform="matrix(1,0,0,1,0,0)"><path stroke-linecap="round" stroke-linejoin="round" fill-opacity="0" stroke="rgb(36,37,152)" stroke-opacity="1" stroke-width="8" d=" M-1.6019999980926514,148.60499572753906 C17.94099998474121,148.60499572753906 39.49800109863281,134.87600708007812 42.137001037597656,116.81300354003906 C42.137001037597656,116.81300354003906 144.3419952392578,149.09100341796875 168.45700073242188,168.98899841308594 C179.42599487304688,178.0399932861328 190.81900024414062,201.83999633789062 191.625,221.2790069580078"></path></g></g><g style="display: block;" transform="matrix(1.0399999618530273,0,0,1,261.1392822265625,263.5)" opacity="1"><g opacity="1" transform="matrix(1,0,0,1,0,0)"><g opacity="1" transform="matrix(1,0,0,1,0,0)"><path fill="rgb(51,55,213)" fill-opacity="1" d=" M-2.2219998836517334,149.5 C-13.753999710083008,149.32000732421875 -37.33300018310547,140.83299255371094 -43.37900161743164,117.40899658203125 C-102.21099853515625,129.41200256347656 -170.31300354003906,163.80599975585938 -174.822998046875,168.98899841308594 C-189.58900451660156,185.9709930419922 -195.48399353027344,210.91000366210938 -197.71400451660156,226.1820068359375 C-197.71400451660156,226.1820068359375 -191.5590057373047,232.16299438476562 -178.7989959716797,234.97799682617188 C-175.4810028076172,235.70599365234375 -90.41799926757812,236.09300231933594 -4.551000118255615,236.11000061035156 C83.00599670410156,236.1269989013672 -2.2219998836517334,149.5 -2.2219998836517334,149.5z"></path></g><g opacity="1" transform="matrix(1,0,0,1,0,0)"><path fill="rgb(78,100,255)" fill-opacity="1" d=" M-44.65700149536133,117.23400115966797 C-95.12999725341797,130.1009979248047 -168.447998046875,164.22300720214844 -172.593994140625,168.98899841308594 C-187.7570037841797,186.43800354003906 -192.88499450683594,213.41400146484375 -194.95399475097656,228.2530059814453 C-194.95399475097656,228.2530059814453 -194.95399475097656,228.2530059814453 -194.95399475097656,228.2530059814453 C-194.95399475097656,228.2530059814453 -191.16299438476562,232.18600463867188 -178.94900512695312,234.97799682617188 C-176.94200134277344,220.83399963378906 -172.60800170898438,191.51699829101562 -159.88499450683594,182.73399353027344 C-109.80999755859375,148.16600036621094 -42.47700119018555,135.54100036621094 -40.69900131225586,135.2270050048828 C-14.321000099182129,153.4810028076172 -29,161.33299255371094 -44.65700149536133,117.23400115966797z"></path></g><g opacity="1" transform="matrix(1,0,0,1,0,0)"><g opacity="1" transform="matrix(1,0,0,1,0,0)"><path fill="rgb(36,37,152)" fill-opacity="1" d=" M-191.52699279785156,219.92799377441406 C-191.52699279785156,219.92799377441406 -191.96299743652344,225.86300659179688 -191.8780059814453,230.3179931640625 C-191.8780059814453,230.3179931640625 -200.4550018310547,227.18099975585938 -199.5919952392578,220.86399841308594 C-199.5919952392578,220.86399841308594 -191.52699279785156,219.92799377441406 -191.52699279785156,219.92799377441406z"></path></g></g></g><g opacity="1" transform="matrix(1,0,0,1,0,0)"><path stroke-linecap="round" stroke-linejoin="round" fill-opacity="0" stroke="rgb(36,37,152)" stroke-opacity="1" stroke-width="8" d=" M-195.61000061035156,221.2790069580078 C-194.8040008544922,201.83999633789062 -183.36399841308594,178.0970001220703 -172.44200134277344,168.98899841308594 C-150.42999267578125,150.6320037841797 -43.67599868774414,115.81700134277344 -43.67599868774414,115.81700134277344 C-40.999000549316406,132.2429962158203 -26.61400032043457,148.60499572753906 -1.6019999980926514,148.60499572753906"></path></g></g><g style="display: block;" transform="matrix(0.9811359643936157,0,0,1,256.3513488769531,256.0880126953125)" opacity="1"><g opacity="1" transform="matrix(1,0,0,1,0,0)"><path fill="rgb(244,172,0)" fill-opacity="1" d=" M94.2020034790039,-122.3010025024414 C73.04199981689453,-151.68899536132812 45.180999755859375,-168.97000122070312 3.2950000762939453,-168.97000122070312 C-38.590999603271484,-168.97000122070312 -66.4530029296875,-151.68899536132812 -87.61199951171875,-122.3010025024414 C-108.77200317382812,-92.91300201416016 -126.40499877929688,-24.381000518798828 -98.77999877929688,33.220001220703125 C-71.15499877929688,90.82099914550781 -24.485000610351562,109.04000091552734 3.2950000762939453,109.04000091552734 C31.075000762939453,109.04000091552734 77.74400329589844,90.82099914550781 105.36900329589844,33.220001220703125 C132.9929962158203,-24.381000518798828 115.36100006103516,-92.91300201416016 94.2020034790039,-122.3010025024414z"></path><path stroke-linecap="round" stroke-linejoin="round" fill-opacity="0" stroke="rgb(206,115,0)" stroke-opacity="1" stroke-width="8" d=" M94.2020034790039,-122.3010025024414 C73.04199981689453,-151.68899536132812 45.180999755859375,-168.97000122070312 3.2950000762939453,-168.97000122070312 C-38.590999603271484,-168.97000122070312 -66.4530029296875,-151.68899536132812 -87.61199951171875,-122.3010025024414 C-108.77200317382812,-92.91300201416016 -126.40499877929688,-24.381000518798828 -98.77999877929688,33.220001220703125 C-71.15499877929688,90.82099914550781 -24.485000610351562,109.04000091552734 3.2950000762939453,109.04000091552734 C31.075000762939453,109.04000091552734 77.74400329589844,90.82099914550781 105.36900329589844,33.220001220703125 C132.9929962158203,-24.381000518798828 115.36100006103516,-92.91300201416016 94.2020034790039,-122.3010025024414z"></path></g><g opacity="1" transform="matrix(1,0,0,1,0,0)"><path fill="rgb(255,207,0)" fill-opacity="1" d=" M85.0739974975586,-39.61199951171875 C85.0739974975586,-39.61199951171875 44.35200119018555,-52.77000045776367 19.382999420166016,-64.91999816894531 C-11.487000465393066,-79.94100189208984 -35.65800094604492,-97.76200103759766 -49.058998107910156,-108.59300231933594 C-49.058998107910156,-108.59300231933594 -59.659000396728516,-77.04900360107422 -76.70700073242188,-58.91299819946289 C-103.60700225830078,-30.297000885009766 -101.28500366210938,3.552999973297119 -78.7969970703125,40.887001037597656 C-56.310001373291016,78.22100067138672 -19.319000244140625,91.02899932861328 3.2950000762939453,91.02899932861328 C25.909000396728516,91.02899932861328 62.89899826049805,78.22100067138672 85.38700103759766,40.887001037597656 C107.8740005493164,3.552999973297119 102.2979965209961,-20.56399917602539 85.0739974975586,-39.61199951171875z"></path></g></g><g style="display: block;" transform="matrix(0.9811359643936157,0,0,1,256.3954772949219,256.1499938964844)" opacity="1"><g opacity="1" transform="matrix(1,0,0,1,0,0)"><g opacity="1" transform="matrix(1,0,0,1,0,0)"><path fill="rgb(247,247,247)" fill-opacity="1" d=" M29.624000549316406,-4.564000129699707 C29.624000549316406,-4.564000129699707 32.641998291015625,-40.595001220703125 62.612998962402344,-43.60499954223633 C90.13700103759766,-46.36899948120117 99.16899871826172,-14.451000213623047 99.16899871826172,-14.451000213623047 C99.16899871826172,-14.451000213623047 91.76100158691406,4.870999813079834 67.66600036621094,7.513000011444092 C40.80400085449219,10.458999633789062 29.624000549316406,-4.564000129699707 29.624000549316406,-4.564000129699707z"></path></g><g opacity="1" transform="matrix(1,0,0,1,-0.02100372314453125,0.09099960327148438)"><g opacity="1" transform="matrix(1,0,0,1,0,0)"><path fill="url(#__lottie_element_22358)" fill-opacity="1" d=" M83.71299743652344,-19.14299964904785 C83.71299743652344,-7.8379998207092285 75.06500244140625,1.3270000219345093 64.39700317382812,1.3270000219345093 C53.729000091552734,1.3270000219345093 45.08100128173828,-7.8379998207092285 45.08100128173828,-19.14299964904785 C45.08100128173828,-30.447999954223633 53.729000091552734,-39.61199951171875 64.39700317382812,-39.61199951171875 C75.06500244140625,-39.61199951171875 83.71299743652344,-30.447999954223633 83.71299743652344,-19.14299964904785z"></path></g><g opacity="1" transform="matrix(1,0,0,1,0,0)"><path fill="rgb(23,19,10)" fill-opacity="1" d=" M76.60399627685547,-19.14299964904785 C76.60399627685547,-11.998000144958496 71.13899993896484,-6.205999851226807 64.39700317382812,-6.205999851226807 C57.654998779296875,-6.205999851226807 52.18899917602539,-11.998000144958496 52.18899917602539,-19.14299964904785 C52.18899917602539,-26.288000106811523 57.654998779296875,-32.08000183105469 64.39700317382812,-32.08000183105469 C71.13899993896484,-32.08000183105469 76.60399627685547,-26.288000106811523 76.60399627685547,-19.14299964904785z"></path></g><g opacity="1" transform="matrix(1,0,0,1,0,0)"><path fill="rgb(244,244,244)" fill-opacity="1" d=" M63.314998626708984,-30.297000885009766 C63.314998626708984,-27.583999633789062 61.23899841308594,-25.385000228881836 58.67900085449219,-25.385000228881836 C56.11899948120117,-25.385000228881836 54.042999267578125,-27.583999633789062 54.042999267578125,-30.297000885009766 C54.042999267578125,-33.0099983215332 56.11899948120117,-35.209999084472656 58.67900085449219,-35.209999084472656 C61.23899841308594,-35.209999084472656 63.314998626708984,-33.0099983215332 63.314998626708984,-30.297000885009766z"></path></g><g opacity="1" transform="matrix(1,0,0,1,0,0)"><path stroke-linecap="round" stroke-linejoin="round" fill-opacity="0" stroke="rgb(235,147,0)" stroke-opacity="1" stroke-width="3.5" d=" M78.69000244140625,-13.361000061035156 C77.25499725341797,-8.82699966430664 73.81999969482422,-5.264999866485596 69.49600219726562,-3.8510000705718994"></path></g></g><g opacity="1" transform="matrix(1,0,0,1,0,0)"><g opacity="1" transform="matrix(1,0,0,1,0,0)"><path fill="rgb(255,207,0)" fill-opacity="1" d=" M26.7450008392334,-6.205999851226807 C26.7450008392334,-6.205999851226807 34.189998626708984,-41.762001037597656 63.314998626708984,-43.775001525878906 C96.8239974975586,-46.090999603271484 98.9530029296875,-18.361000061035156 98.62000274658203,-15 C94.65499877929688,-35.39899826049805 76.98200225830078,-45.108001708984375 63.314998626708984,-43.775001525878906 C49.64799880981445,-42.44200134277344 26.65999984741211,-44.86199951171875 26.7450008392334,-6.205999851226807z"></path></g><g opacity="1" transform="matrix(1,0,0,1,0,0)"><path fill="rgb(255,207,0)" fill-opacity="1" d=" M27.8700008392334,-3.8510000705718994 C27.8700008392334,-3.8510000705718994 38.244998931884766,11.875 67.62000274658203,8.5 C88.69499969482422,6.078999996185303 96.55899810791016,-6.560999870300293 98.71900177001953,-12.666999816894531 C97.56800079345703,7.76200008392334 84.83399963378906,15.125 64.33399963378906,15.125 C43.83399963378906,15.125 31.8700008392334,7.547999858856201 27.8700008392334,-3.8510000705718994z"></path></g></g><g opacity="1" transform="matrix(1,0,0,1,0,0)"><path fill="rgb(133,63,0)" fill-opacity="1" d=" M29.624000549316406,-4.564000129699707 C29.624000549316406,-4.564000129699707 31.065000534057617,-41.53300094604492 64.39700317382812,-44.7140007019043 C78.08200073242188,-46.02000045776367 89.67400360107422,-38.49100112915039 94.68499755859375,-29.56599998474121 C98.90499877929688,-22.051000595092773 99.16899871826172,-14.451000213623047 99.16899871826172,-14.451000213623047 C99.16899871826172,-14.451000213623047 96.02200317382812,-43.12200164794922 65.47000122070312,-41.65599822998047 C32.775001525878906,-40.08700180053711 29.624000549316406,-4.564000129699707 29.624000549316406,-4.564000129699707z"></path><path stroke-linecap="round" stroke-linejoin="round" fill-opacity="0" stroke="rgb(133,63,0)" stroke-opacity="1" stroke-width="2" d=" M29.624000549316406,-4.564000129699707 C29.624000549316406,-4.564000129699707 31.065000534057617,-41.53300094604492 64.39700317382812,-44.7140007019043 C78.08200073242188,-46.02000045776367 89.67400360107422,-38.49100112915039 94.68499755859375,-29.56599998474121 C98.90499877929688,-22.051000595092773 99.16899871826172,-14.451000213623047 99.16899871826172,-14.451000213623047 C99.16899871826172,-14.451000213623047 96.02200317382812,-43.12200164794922 65.47000122070312,-41.65599822998047 C32.775001525878906,-40.08700180053711 29.624000549316406,-4.564000129699707 29.624000549316406,-4.564000129699707z"></path></g></g><g opacity="1" transform="matrix(1,0,0,1,0,0)"><g opacity="1" transform="matrix(1,0,0,1,0,0)"><path fill="rgb(247,247,247)" fill-opacity="1" d=" M-21.80500030517578,-4.564000129699707 C-21.80500030517578,-4.564000129699707 -24.822999954223633,-40.595001220703125 -54.79399871826172,-43.60499954223633 C-82.31800079345703,-46.36899948120117 -91.3489990234375,-14.451000213623047 -91.3489990234375,-14.451000213623047 C-91.3489990234375,-14.451000213623047 -83.94100189208984,4.870999813079834 -59.84600067138672,7.513000011444092 C-32.98400115966797,10.458999633789062 -21.80500030517578,-4.564000129699707 -21.80500030517578,-4.564000129699707z"></path></g><g opacity="1" transform="matrix(1,0,0,1,-0.034999847412109375,0.09099960327148438)"><g opacity="1" transform="matrix(1,0,0,1,0,0)"><path fill="url(#__lottie_element_22359)" fill-opacity="1" d=" M-36.016998291015625,-19.14299964904785 C-36.016998291015625,-7.8379998207092285 -44.665000915527344,1.3270000219345093 -55.33300018310547,1.3270000219345093 C-66.0009994506836,1.3270000219345093 -74.64900207519531,-7.8379998207092285 -74.64900207519531,-19.14299964904785 C-74.64900207519531,-30.447999954223633 -66.0009994506836,-39.61199951171875 -55.33300018310547,-39.61199951171875 C-44.665000915527344,-39.61199951171875 -36.016998291015625,-30.447999954223633 -36.016998291015625,-19.14299964904785z"></path></g><g opacity="1" transform="matrix(1,0,0,1,0,0)"><path fill="rgb(23,19,10)" fill-opacity="1" d=" M-43.125,-19.14299964904785 C-43.125,-11.998000144958496 -48.590999603271484,-6.205999851226807 -55.33300018310547,-6.205999851226807 C-62.07500076293945,-6.205999851226807 -67.54000091552734,-11.998000144958496 -67.54000091552734,-19.14299964904785 C-67.54000091552734,-26.288000106811523 -62.07500076293945,-32.08000183105469 -55.33300018310547,-32.08000183105469 C-48.590999603271484,-32.08000183105469 -43.125,-26.288000106811523 -43.125,-19.14299964904785z"></path></g><g opacity="1" transform="matrix(1,0,0,1,0,0)"><path fill="rgb(244,244,244)" fill-opacity="1" d=" M-56.415000915527344,-30.297000885009766 C-56.415000915527344,-27.583999633789062 -58.4900016784668,-25.385000228881836 -61.04999923706055,-25.385000228881836 C-63.61000061035156,-25.385000228881836 -65.68599700927734,-27.583999633789062 -65.68599700927734,-30.297000885009766 C-65.68599700927734,-33.0099983215332 -63.61000061035156,-35.209999084472656 -61.04999923706055,-35.209999084472656 C-58.4900016784668,-35.209999084472656 -56.415000915527344,-33.0099983215332 -56.415000915527344,-30.297000885009766z"></path></g><g opacity="1" transform="matrix(1,0,0,1,0,0)"><path stroke-linecap="round" stroke-linejoin="round" fill-opacity="0" stroke="rgb(235,147,0)" stroke-opacity="1" stroke-width="3.5" d=" M-41.03900146484375,-13.361000061035156 C-42.474998474121094,-8.82699966430664 -45.909000396728516,-5.264999866485596 -50.233001708984375,-3.8510000705718994"></path></g></g><g opacity="1" transform="matrix(1,0,0,1,0,0)"><g opacity="1" transform="matrix(1,0,0,1,0,0)"><path fill="rgb(255,207,0)" fill-opacity="1" d=" M-19.375,-6.205999851226807 C-19.375,-6.205999851226807 -25.375,-41.61199951171875 -54.5,-43.625 C-88.00900268554688,-45.941001892089844 -92.83300018310547,-18.361000061035156 -92.5,-15 C-92.875,-47.375 -68.29199981689453,-54.08300018310547 -54.625,-52.75 C-40.95800018310547,-51.41699981689453 -19.290000915527344,-44.86199951171875 -19.375,-6.205999851226807z"></path></g><g opacity="1" transform="matrix(1,0,0,1,0,0)"><path fill="rgb(255,207,0)" fill-opacity="1" d=" M-20.5,-3.8510000705718994 C-20.5,-3.8510000705718994 -30.875,11.875 -60.25,8.5 C-81.32499694824219,6.078999996185303 -89.18900299072266,-6.560999870300293 -91.3489990234375,-12.666999816894531 C-90.197998046875,7.76200008392334 -77.46499633789062,15.125 -56.96500015258789,15.125 C-36.46500015258789,15.125 -24.5,7.547999858856201 -20.5,-3.8510000705718994z"></path></g></g><g opacity="1" transform="matrix(1,0,0,1,0,0)"><path fill="rgb(133,63,0)" fill-opacity="1" d=" M-21.80500030517578,-4.564000129699707 C-21.80500030517578,-4.564000129699707 -23.2450008392334,-41.53300094604492 -56.57699966430664,-44.7140007019043 C-70.26200103759766,-46.02000045776367 -81.85299682617188,-38.49100112915039 -86.86499786376953,-29.56599998474121 C-91.08499908447266,-22.051000595092773 -91.3489990234375,-14.451000213623047 -91.3489990234375,-14.451000213623047 C-91.3489990234375,-14.451000213623047 -88.2030029296875,-43.12200164794922 -57.650001525878906,-41.65599822998047 C-24.954999923706055,-40.08700180053711 -21.80500030517578,-4.564000129699707 -21.80500030517578,-4.564000129699707z"></path><path stroke-linecap="round" stroke-linejoin="round" fill-opacity="0" stroke="rgb(133,63,0)" stroke-opacity="1" stroke-width="2" d=" M-21.80500030517578,-4.564000129699707 C-21.80500030517578,-4.564000129699707 -23.2450008392334,-41.53300094604492 -56.57699966430664,-44.7140007019043 C-70.26200103759766,-46.02000045776367 -81.85299682617188,-38.49100112915039 -86.86499786376953,-29.56599998474121 C-91.08499908447266,-22.051000595092773 -91.3489990234375,-14.451000213623047 -91.3489990234375,-14.451000213623047 C-91.3489990234375,-14.451000213623047 -88.2030029296875,-43.12200164794922 -57.650001525878906,-41.65599822998047 C-24.954999923706055,-40.08700180053711 -21.80500030517578,-4.564000129699707 -21.80500030517578,-4.564000129699707z"></path></g></g></g><g style="display: block;" transform="matrix(0.9811359643936157,0,0,1,256.3954772949219,256.1499938964844)" opacity="1"><g opacity="1" transform="matrix(1,0,0,1,0,0)"><path fill="rgb(244,172,0)" fill-opacity="1" d=" M20.382999420166016,34.4640007019043 C20.382999420166016,41.34199905395508 12.732000350952148,46.91699981689453 3.2950000762939453,46.91699981689453 C-6.142000198364258,46.91699981689453 -13.793000221252441,41.34199905395508 -13.793000221252441,34.4640007019043 C-13.793000221252441,27.586000442504883 -6.142000198364258,22.304000854492188 3.2950000762939453,22.304000854492188 C12.732000350952148,22.304000854492188 20.382999420166016,27.586000442504883 20.382999420166016,34.4640007019043z"></path></g><g opacity="1" transform="matrix(1,0,0,1,0,0)"><path fill="rgb(255,207,0)" fill-opacity="1" d=" M18.07699966430664,30.533000946044922 C18.07699966430664,35.65299987792969 11.458999633789062,39.80400085449219 3.2950000762939453,39.80400085449219 C-4.86899995803833,39.80400085449219 -11.48799991607666,35.65299987792969 -11.48799991607666,30.533000946044922 C-11.48799991607666,25.413000106811523 -4.86899995803833,22.10300064086914 3.2950000762939453,22.10300064086914 C11.458999633789062,22.10300064086914 18.07699966430664,25.413000106811523 18.07699966430664,30.533000946044922z"></path></g><g opacity="1" transform="matrix(1,0,0,1,0,0)"><path fill="rgb(255,225,129)" fill-opacity="1" d=" M10.91100025177002,26.184999465942383 C10.91100025177002,28.506000518798828 7.500999927520752,30.690000534057617 3.2950000762939453,30.690000534057617 C-0.9110000133514404,30.690000534057617 -4.321000099182129,28.506000518798828 -4.321000099182129,26.184999465942383 C-4.321000099182129,23.863000869750977 -0.9110000133514404,22.698999404907227 3.2950000762939453,22.698999404907227 C7.500999927520752,22.698999404907227 10.91100025177002,23.863000869750977 10.91100025177002,26.184999465942383z"></path></g></g><g style="display: block;" transform="matrix(0.9811359643936157,0,0,1,256.3954772949219,256.1499938964844)" opacity="1"><g opacity="1" transform="matrix(1,0,0,1,0,0)"><path fill="rgb(133,63,0)" fill-opacity="1" d=" M-82.61499786376953,-59.064998626708984 C-82.61499786376953,-59.064998626708984 -70.59700012207031,-67.30799865722656 -56.33300018310547,-66.86299896240234 C-42.665000915527344,-66.43599700927734 -37.016998291015625,-61.26900100708008 -37.016998291015625,-61.26900100708008 C-37.016998291015625,-61.26900100708008 -41.569000244140625,-71.19200134277344 -56.33300018310547,-70.76200103759766 C-72.59700012207031,-70.28800201416016 -82.61499786376953,-59.064998626708984 -82.61499786376953,-59.064998626708984z"></path><path stroke-linecap="round" stroke-linejoin="round" fill-opacity="0" stroke="rgb(133,63,0)" stroke-opacity="1" stroke-width="2" d=" M-82.61499786376953,-59.064998626708984 C-82.61499786376953,-59.064998626708984 -70.59700012207031,-67.30799865722656 -56.33300018310547,-66.86299896240234 C-42.665000915527344,-66.43599700927734 -37.016998291015625,-61.26900100708008 -37.016998291015625,-61.26900100708008 C-37.016998291015625,-61.26900100708008 -41.569000244140625,-71.19200134277344 -56.33300018310547,-70.76200103759766 C-72.59700012207031,-70.28800201416016 -82.61499786376953,-59.064998626708984 -82.61499786376953,-59.064998626708984z"></path></g><g opacity="1" transform="matrix(1,0,0,1,0,0)"><path fill="rgb(133,63,0)" fill-opacity="1" d=" M89.11399841308594,-59.064998626708984 C89.11399841308594,-59.064998626708984 77.09600067138672,-67.30799865722656 62.832000732421875,-66.86299896240234 C49.16400146484375,-66.43599700927734 43.51599884033203,-61.26900100708008 43.51599884033203,-61.26900100708008 C43.51599884033203,-61.26900100708008 48.06800079345703,-71.19200134277344 62.832000732421875,-70.76200103759766 C79.09600067138672,-70.28800201416016 89.11399841308594,-59.064998626708984 89.11399841308594,-59.064998626708984z"></path><path stroke-linecap="round" stroke-linejoin="round" fill-opacity="0" stroke="rgb(133,63,0)" stroke-opacity="1" stroke-width="2" d=" M89.11399841308594,-59.064998626708984 C89.11399841308594,-59.064998626708984 77.09600067138672,-67.30799865722656 62.832000732421875,-66.86299896240234 C49.16400146484375,-66.43599700927734 43.51599884033203,-61.26900100708008 43.51599884033203,-61.26900100708008 C43.51599884033203,-61.26900100708008 48.06800079345703,-71.19200134277344 62.832000732421875,-70.76200103759766 C79.09600067138672,-70.28800201416016 89.11399841308594,-59.064998626708984 89.11399841308594,-59.064998626708984z"></path></g></g><g style="display: block;" transform="matrix(0.9811359643936157,0,0,1,256.3513488769531,256.0880126953125)" opacity="1"><g opacity="1" transform="matrix(1,0,0,1,0,0)"><path fill="rgb(255,207,0)" fill-opacity="1" d=" M-58.84299850463867,-140.3800048828125 C-65.39199829101562,-86.75499725341797 -92.22599792480469,-51.47100067138672 -136.63800048828125,-32.08000183105469 C-136.63800048828125,-32.08000183105469 -167.3979949951172,10.381999969482422 -157.69700622558594,98.56600189208984 C-157.69700622558594,98.56600189208984 -173.09100341796875,27.83300018310547 -144.8769989013672,-76.06800079345703 C-118.72000122070312,-172.39500427246094 -75.68000030517578,-187.28500366210938 -65.68599700927734,-183.33599853515625 C-65.68599700927734,-183.33599853515625 -51.617000579833984,-210.3179931640625 18.07699966430664,-201.10499572753906 C87.77100372314453,-191.89199829101562 131.86300659179688,-139.90199279785156 151.6060028076172,-79.35800170898438 C171.3489990234375,-18.81399917602539 173.9810028076172,53.15800094604492 170.6909942626953,98.56600189208984 C170.6909942626953,98.56600189208984 182.35499572753906,-12.425999641418457 108.2239990234375,-48.41899871826172 C108.2239990234375,-48.41899871826172 3.2939999103546143,-70.7770004272461 -58.84299850463867,-140.3800048828125z"></path></g><g opacity="1" transform="matrix(1,0,0,1,0,0)"><path fill="rgb(255,225,129)" fill-opacity="1" d=" M-77.78199768066406,-144.71200561523438 C-77.78199768066406,-154.93699645996094 -81.91999816894531,-163.26499938964844 -93.0530014038086,-157.27099609375 C-99.75900268554688,-153.66000366210938 -107.25299835205078,-146.03900146484375 -104.2239990234375,-140.00799560546875 C-102.2249984741211,-136.02699279785156 -90.3479995727539,-136.4499969482422 -89.49700164794922,-125.9520034790039 C-88.177001953125,-109.66999816894531 -77.78199768066406,-126.06999969482422 -77.78199768066406,-144.71200561523438z"></path></g><g opacity="1" transform="matrix(1,0,0,1,0,0)"><path fill="rgb(234,157,1)" fill-opacity="1" d=" M148.04600524902344,-43.77399826049805 C148.04600524902344,-43.77399826049805 129.49600219726562,-47.98400115966797 108.22599792480469,-48.41400146484375 C108.22599792480469,-48.41400146484375 3.2960000038146973,-70.77400207519531 -58.84400177001953,-140.38400268554688 C-58.84400177001953,-140.38400268554688 -61.2239990234375,-92.94400024414062 -91.35399627685547,-64.92400360107422 C-119.8239974975586,-38.433998107910156 -136.63400268554688,-32.08399963378906 -136.63400268554688,-32.08399963378906 C-136.63400268554688,-32.08399963378906 -160.093994140625,26.695999145507812 -160.093994140625,26.695999145507812 C-160.093994140625,26.695999145507812 -162,-32 -142.35400390625,-40.61399841308594 C-142.35400390625,-40.61399841308594 -109.85900115966797,-58.5099983215332 -92.35399627685547,-81.4739990234375 C-69.9229965209961,-110.9000015258789 -71.59700012207031,-149.8000030517578 -74.64399719238281,-160.3939971923828 C-79.08000183105469,-175.81700134277344 -112.97100067138672,-158.68600463867188 -133.58399963378906,-110.51399993896484 C-107.79399871826172,-176.04400634765625 -74.34400177001953,-186.75399780273438 -65.68399810791016,-183.33399963378906 C-65.68399810791016,-183.33399963378906 -51.61399841308594,-210.31399536132812 18.076000213623047,-201.10400390625 C53.33599853515625,-196.44400024414062 82.05599975585938,-180.82400512695312 104.3759994506836,-158.6840057373047 C104.3759994506836,-158.6840057373047 59.72999954223633,-200.66900634765625 -12.723999977111816,-192.61399841308594 C-61.54899978637695,-187.18600463867188 -54.66400146484375,-163.23800659179688 -49.23400115966797,-154.10400390625 C-41.53300094604492,-141.14999389648438 -2.0889999866485596,-100.4219970703125 54.04600143432617,-79.14399719238281 C102.07599639892578,-60.9379997253418 129.5659942626953,-56.15399932861328 148.04600524902344,-43.77399826049805z"></path></g><g opacity="1" transform="matrix(1,0,0,1,0,0)"><path fill="rgb(255,225,129)" fill-opacity="1" d=" M18.825000762939453,-136.61300659179688 C-18.354000091552734,-143.29299926757812 -37.80699920654297,-153.15199279785156 -43.499000549316406,-160 C-48.0890007019043,-165.52200317382812 -46.165000915527344,-171.93699645996094 -40.43899917602539,-176.2469940185547 C-35.90800094604492,-179.65699768066406 -16.667999267578125,-191.6909942626953 29.003000259399414,-184.18499755859375 C55.01100158691406,-179.91200256347656 74.3489990234375,-169.8249969482422 87.2979965209961,-156.11500549316406 C87.30500030517578,-156.10499572753906 87.30500030517578,-156.10499572753906 87.31199645996094,-156.09500122070312 C105.02400207519531,-135.35899353027344 80.9489974975586,-125.45099639892578 18.825000762939453,-136.61300659179688z"></path></g><g opacity="1" transform="matrix(1,0,0,1,0,0)"><path stroke-linecap="round" stroke-linejoin="round" fill-opacity="0" stroke="rgb(185,97,0)" stroke-opacity="1" stroke-width="8" d=" M-58.84299850463867,-140.3800048828125 C-55,-93 -90.12300109863281,-51.981998443603516 -136.63800048828125,-32.08000183105469 C-136.63800048828125,-32.08000183105469 -167.3979949951172,10.381999969482422 -157.69700622558594,98.56600189208984 C-157.69700622558594,98.56600189208984 -173.09100341796875,27.83300018310547 -144.8769989013672,-76.06800079345703 C-118.72000122070312,-172.39500427246094 -75.68000030517578,-187.28500366210938 -65.68599700927734,-183.33599853515625 C-65.68599700927734,-183.33599853515625 -51.617000579833984,-210.3179931640625 18.07699966430664,-201.10499572753906 C87.77100372314453,-191.89199829101562 131.86300659179688,-139.90199279785156 151.6060028076172,-79.35800170898438 C171.3489990234375,-18.81399917602539 173.9810028076172,53.15800094604492 170.6909942626953,98.56600189208984 C170.6909942626953,98.56600189208984 182.14500427246094,-13.461999893188477 108.2239990234375,-48.41899871826172 C108.2239990234375,-48.41899871826172 3.2939999103546143,-70.7770004272461 -58.84299850463867,-140.3800048828125z"></path></g></g><g style="display: block;" transform="matrix(0.9811359643936157,0,0,1,5.222707271575928,3.03399658203125)" opacity="1"><g opacity="1" transform="matrix(1,0,0,1,256,256)"><g opacity="1" transform="matrix(1,0,0,1,0,0)"><path fill="rgb(117,55,13)" fill-opacity="1" d=" M40.82600021362305,63.077999114990234 C38.207000732421875,61.60499954223633 26.41900062561035,63.89699935913086 17.742000579833984,60.7859992980957 C9.0649995803833,57.67499923706055 7.10099983215332,62.077999114990234 3.990000009536743,62.077999114990234 C0.8799999952316284,62.077999114990234 -1.0839999914169312,57.67499923706055 -9.76099967956543,60.7859992980957 C-18.437999725341797,63.89699935913086 -30.225000381469727,61.60499954223633 -32.845001220703125,63.077999114990234 C-33.51300048828125,63.45399856567383 -32.8489990234375,64.83899688720703 -31.131000518798828,66.69499969482422 C-26.111000061035156,72.11900329589844 -12.090999603271484,81.55999755859375 3.990000009536743,81.55999755859375 C20.336000442504883,81.55999755859375 34.79800033569336,71.5739974975586 39.48699951171875,66.24199676513672 C40.917999267578125,64.61599731445312 41.4379997253418,63.422000885009766 40.82600021362305,63.077999114990234z"></path></g></g><g opacity="1" transform="matrix(1,0,0,1,256,256)"><g opacity="1" transform="matrix(1,0,0,1,0,0)"><path fill="rgb(22,19,11)" fill-opacity="1" d=" M-26.81399917602539,66.14399719238281 C-26.81399917602539,66.14399719238281 -17.420000076293945,68.375 -11.01200008392334,68.375 C-6.6620001792907715,68.375 -0.09399999678134918,70.68099975585938 3.990999937057495,70.68099975585938 C7.918000221252441,70.68099975585938 13.230999946594238,68.42400360107422 17.350000381469727,68.42400360107422 C25.785999298095703,68.42400360107422 34.20500183105469,66.14399719238281 34.20500183105469,66.14399719238281 C34.20500183105469,66.14399719238281 27.18899917602539,68.2490005493164 16.947999954223633,70.4000015258789 C13.312000274658203,71.16400146484375 8.270000457763672,73.0999984741211 3.990999937057495,73.0999984741211 C-1.093999981880188,73.0999984741211 -6.9019999504089355,70.95099639892578 -11.112000465393066,69.94499969482422 C-20.424999237060547,67.71900177001953 -26.81399917602539,66.14399719238281 -26.81399917602539,66.14399719238281z"></path><path stroke-linecap="round" stroke-linejoin="round" fill-opacity="0" stroke="rgb(22,19,11)" stroke-opacity="1" stroke-width="1" d=" M-26.81399917602539,66.14399719238281 C-26.81399917602539,66.14399719238281 -17.420000076293945,68.375 -11.01200008392334,68.375 C-6.6620001792907715,68.375 -0.09399999678134918,70.68099975585938 3.990999937057495,70.68099975585938 C7.918000221252441,70.68099975585938 13.230999946594238,68.42400360107422 17.350000381469727,68.42400360107422 C25.785999298095703,68.42400360107422 34.20500183105469,66.14399719238281 34.20500183105469,66.14399719238281 C34.20500183105469,66.14399719238281 27.18899917602539,68.2490005493164 16.947999954223633,70.4000015258789 C13.312000274658203,71.16400146484375 8.270000457763672,73.0999984741211 3.990999937057495,73.0999984741211 C-1.093999981880188,73.0999984741211 -6.9019999504089355,70.95099639892578 -11.112000465393066,69.94499969482422 C-20.424999237060547,67.71900177001953 -26.81399917602539,66.14399719238281 -26.81399917602539,66.14399719238281z"></path></g></g></g><g style="display: block;" transform="matrix(0.9811359643936157,0,0,1,256.36212158203125,256.0149841308594)" opacity="1"><g opacity="1" transform="matrix(1,0,0,1,0,0)"><path stroke-linecap="round" stroke-linejoin="round" fill-opacity="0" stroke="rgb(255,255,255)" stroke-opacity="1" stroke-width="6" d=" M37.52199935913086,-181.4759979248047 C39.0369987487793,-181.13900756835938 40.61000061035156,-180.7689971923828 42.22999954223633,-180.36199951171875"></path></g><g opacity="1" transform="matrix(1,0,0,1,0,0)"><path stroke-linecap="round" stroke-linejoin="round" fill-opacity="0" stroke="rgb(255,255,255)" stroke-opacity="1" stroke-width="6" d=" M16.47100067138672,-184.73300170898438 C16.47100067138672,-184.73300170898438 21.270000457763672,-184.45700073242188 28.882999420166016,-183.16700744628906"></path></g></g><g style="display: none;"><g><path></path><path stroke-linecap="round" stroke-linejoin="round" fill-opacity="0"></path></g><g><path></path><path stroke-linecap="round" stroke-linejoin="round" fill-opacity="0"></path></g><g><path></path></g></g><g style="display: none;"><g><path></path><path stroke-linecap="round" stroke-linejoin="round" fill-opacity="0"></path></g><g><path></path><path stroke-linecap="round" stroke-linejoin="round" fill-opacity="0"></path></g><g><path></path><path stroke-linecap="round" stroke-linejoin="round" fill-opacity="0"></path></g><g><path></path><path stroke-linecap="round" stroke-linejoin="round" fill-opacity="0"></path></g><g><path stroke-linecap="round" stroke-linejoin="round" fill-opacity="0"></path></g><g><path stroke-linecap="round" stroke-linejoin="round" fill-opacity="0"></path></g><g><path stroke-linecap="round" stroke-linejoin="round" fill-opacity="0"></path></g></g><g style="display: block;" transform="matrix(1,0,0,1,262,262.25)" opacity="1"><g opacity="1" transform="matrix(1,0,0,1,0,0)"><path fill="rgb(146,144,147)" fill-opacity="1" d=" M156.27999877929688,34.108001708984375 C156.27999877929688,34.108001708984375 -156.50999450683594,34.108001708984375 -156.50999450683594,34.108001708984375 C-162.6529998779297,34.108001708984375 -167.5189971923828,39.301998138427734 -167.11700439453125,45.43199920654297 C-167.11700439453125,45.43199920654297 -155.21400451660156,227.1219940185547 -155.21400451660156,227.1219940185547 C-154.96099853515625,230.97900390625 -151.75999450683594,233.97799682617188 -147.89500427246094,233.97799682617188 C-147.89500427246094,233.97799682617188 147.66400146484375,233.97799682617188 147.66400146484375,233.97799682617188 C151.5290069580078,233.97799682617188 154.72999572753906,230.97900390625 154.98300170898438,227.1219940185547 C154.98300170898438,227.1219940185547 166.88600158691406,45.43199920654297 166.88600158691406,45.43199920654297 C167.28799438476562,39.301998138427734 162.42300415039062,34.108001708984375 156.27999877929688,34.108001708984375z"></path><path stroke-linecap="round" stroke-linejoin="round" fill-opacity="0" stroke="rgb(68,65,71)" stroke-opacity="1" stroke-width="8" d=" M156.27999877929688,34.108001708984375 C156.27999877929688,34.108001708984375 -156.50999450683594,34.108001708984375 -156.50999450683594,34.108001708984375 C-162.6529998779297,34.108001708984375 -167.5189971923828,39.301998138427734 -167.11700439453125,45.43199920654297 C-167.11700439453125,45.43199920654297 -155.21400451660156,227.1219940185547 -155.21400451660156,227.1219940185547 C-154.96099853515625,230.97900390625 -151.75999450683594,233.97799682617188 -147.89500427246094,233.97799682617188 C-147.89500427246094,233.97799682617188 147.66400146484375,233.97799682617188 147.66400146484375,233.97799682617188 C151.5290069580078,233.97799682617188 154.72999572753906,230.97900390625 154.98300170898438,227.1219940185547 C154.98300170898438,227.1219940185547 166.88600158691406,45.43199920654297 166.88600158691406,45.43199920654297 C167.28799438476562,39.301998138427734 162.42300415039062,34.108001708984375 156.27999877929688,34.108001708984375z"></path></g><g opacity="1" transform="matrix(1,0,0,1,0,0)"><path fill="url(#__lottie_element_22336)" fill-opacity="1" d=" M-0.6110000014305115,116 C-20.82699966430664,116 -37.22100067138672,128.83099365234375 -37.22100067138672,144.65499877929688 C-37.22100067138672,160.47900390625 -20.82699966430664,173.3000030517578 -0.6110000014305115,173.3000030517578 C19.604999542236328,173.3000030517578 36,160.47900390625 36,144.65499877929688 C36,128.83099365234375 19.604999542236328,116 -0.6110000014305115,116z M15.156000137329102,158.0749969482422 C14.696999549865723,159.58599853515625 14.934000015258789,161.3939971923828 13.512999534606934,162.60899353027344 C11.173999786376953,164.19400024414062 7.931000232696533,162.3769989013672 5.791999816894531,161.33900451660156 C1.4919999837875366,159.05799865722656 -2.99399995803833,156.94400024414062 -7.034999847412109,154.36599731445312 C-9.937000274658203,152.3260040283203 -5.510000228881836,150.4810028076172 -3.8369998931884766,149.07200622558594 C-1.5049999952316284,147.3470001220703 7.0279998779296875,141.4320068359375 7.835000038146973,139.62399291992188 C8.109000205993652,137.38999938964844 -6.991000175476074,146.0590057373047 -9.722000122070312,147.5050048828125 C-13.378999710083008,149.32200622558594 -15.694999694824219,151.53799438476562 -20.417999267578125,150.26800537109375 C-22.660999298095703,149.72999572753906 -30.180999755859375,147.9040069580078 -29.618000030517578,146.67999267578125 C-29,144 3.0980000495910645,135.46099853515625 10.758999824523926,132.92100524902344 C13.394000053405762,132.3179931640625 19.634000778198242,128.99000549316406 20.070999145507812,132.92100524902344 C18.708999633789062,141.3489990234375 16.80699920654297,149.6840057373047 15.156000137329102,158.0749969482422z"></path></g><g opacity="0.2" transform="matrix(1,0,0,1,0,0)"><path fill="url(#__lottie_element_22337)" fill-opacity="1" d=" M166.88999938964844,45.43000030517578 C166.88999938964844,45.43000030517578 154,233 154,233 C151,238 -60.529998779296875,233.97999572753906 -60.529998779296875,233.97999572753906 C-60.529998779296875,233.97999572753906 106.66999816894531,34.11000061035156 106.66999816894531,34.11000061035156 C106.66999816894531,34.11000061035156 169,26 166.88999938964844,45.43000030517578z"></path></g><g opacity="1" transform="matrix(1,0,0,1,0,0)"><path stroke-linecap="round" stroke-linejoin="round" fill-opacity="0" stroke="rgb(116,113,119)" stroke-opacity="1" stroke-width="8" d=" M154.98300170898438,227.1219940185547 C154.98300170898438,227.1219940185547 166.88600158691406,45.43199920654297 166.88600158691406,45.43199920654297 C167.28799438476562,39.301998138427734 162.42300415039062,34.108001708984375 156.27999877929688,34.108001708984375 C156.27999877929688,34.108001708984375 -0.14000000059604645,34.108001708984375 -0.14000000059604645,34.108001708984375 C-0.14000000059604645,34.108001708984375 -156.50999450683594,34.108001708984375 -156.50999450683594,34.108001708984375 C-162.6529998779297,34.108001708984375 -167.5189971923828,39.301998138427734 -167.11700439453125,45.43199920654297 C-167.11700439453125,45.43199920654297 -155.21400451660156,227.1219940185547 -155.21400451660156,227.1219940185547"></path></g><g opacity="1" transform="matrix(1,0,0,1,0,0)"><path stroke-linecap="round" stroke-linejoin="round" fill-opacity="0" stroke="rgb(200,199,201)" stroke-opacity="1" stroke-width="8" d=" M166.88600158691406,45.43199920654297 C167.28799438476562,39.301998138427734 162.42300415039062,34.108001708984375 156.27999877929688,34.108001708984375 C156.27999877929688,34.108001708984375 -0.14000000059604645,34.108001708984375 -0.14000000059604645,34.108001708984375 C-0.14000000059604645,34.108001708984375 -156.50999450683594,34.108001708984375 -156.50999450683594,34.108001708984375 C-162.6529998779297,34.108001708984375 -167.5189971923828,39.301998138427734 -167.11700439453125,45.43199920654297"></path></g></g><g style="display: none;"><g><path></path><path stroke-linecap="round" stroke-linejoin="round" fill-opacity="0"></path></g><g><path></path><path stroke-linecap="round" stroke-linejoin="round" fill-opacity="0"></path></g><g><path></path><path stroke-linecap="round" stroke-linejoin="round" fill-opacity="0"></path></g><g><path></path><path stroke-linecap="round" stroke-linejoin="round" fill-opacity="0"></path></g><g><path stroke-linecap="round" stroke-linejoin="round" fill-opacity="0"></path></g><g><path stroke-linecap="round" stroke-linejoin="round" fill-opacity="0"></path></g><g><path stroke-linecap="round" stroke-linejoin="round" fill-opacity="0"></path></g></g></g></svg>