<svg xmlns="http://www.w3.org/2000/svg" viewBox="0 0 512 512" width="512" height="512" style="width: 100%; height: 100%; transform: translate3d(0,0,0);" preserveAspectRatio="xMidYMid meet"><defs><clipPath id="__lottie_element_22372"><rect width="512" height="512" x="0" y="0"></rect></clipPath></defs><g clip-path="url(#__lottie_element_22372)"><g style="display: block;" transform="matrix(1,0,0,1,276.3219909667969,340.218017578125)" opacity="1"><g opacity="1" transform="matrix(1,0,0,1,0,0)"><path fill="rgb(255,209,64)" fill-opacity="1" d=" M39.840999603271484,-85.61499786376953 C38.520999908447266,-39.637001037597656 48.96900177001953,-38.59299850463867 65.54199981689453,-42.54999923706055 C82.11499786376953,-46.50699996948242 68.25900268554688,33.41299819946289 50.262001037597656,60.88800048828125 C32.26599884033203,88.36299896240234 3.8589999675750732,103.53500366210938 -23.334999084472656,107.72000122070312 C-49.92100143432617,111.81199645996094 -72.38400268554688,63.51499938964844 -100.0999984741211,38.53300094604492 C-133.09100341796875,8.79699993133545 -157.3699951171875,-20.125999450683594 -159.42799377441406,-41.57899856567383 C-159.42799377441406,-41.57899856567383 -142.54200744628906,-66.06800079345703 -113.3219985961914,-67.21800231933594 C-113.3219985961914,-67.21800231933594 -91.697998046875,-97.04900360107422 -60.321998596191406,-91.21800231933594 C-60.321998596191406,-91.21800231933594 -33.90299987792969,-115.322998046875 -5.322000026702881,-100.21800231933594 C-5.322000026702881,-100.21800231933594 41.064998626708984,-128.25599670410156 39.840999603271484,-85.61499786376953"></path></g></g><g style="display: block;" transform="matrix(1,0,0,1,277.69000244140625,351.69000244140625)" opacity="1"><g opacity="1" transform="matrix(1,0,0,1,0,0)"><path fill="rgb(255,209,64)" fill-opacity="1" d=" M11.97700023651123,83.54000091552734 C0.5410000085830688,89.73799896240234 -11.64900016784668,93.70099639892578 -23.604000091552734,95.54100036621094 C-50.189998626708984,99.63300323486328 -91.1520004272461,96.83699798583984 -118.86799621582031,71.8550033569336 C-151.85899353027344,42.119998931884766 -156.82899475097656,-27.280000686645508 -159.6959991455078,-53.75699996948242"></path></g></g><g style="display: block;" transform="matrix(1,0,0,1,329.635986328125,297.83099365234375)" opacity="1"><g opacity="1" transform="matrix(1,0,0,1,0,0)"><path fill="rgb(255,177,57)" fill-opacity="1" d=" M6.613999843597412,4.85699987411499 C-9.206000328063965,5.465000152587891 -24.257999420166016,7.369999885559082 -47.04199981689453,16.163999557495117 C-75.79499816894531,27.261999130249023 -78.50499725341797,44.374000549316406 -82.20800018310547,42.02299880981445 C-85.91300201416016,39.67100143432617 -78.05500030517578,21.173999786376953 -67.1050033569336,12.715999603271484 C-56.154998779296875,4.258999824523926 -47.41699981689453,-4.300000190734863 -34.141998291015625,-9.842000007629395 C-19.913000106811523,-15.781999588012695 -12.998000144958496,-42.242000579833984 -12.998000144958496,-42.242000579833984 C-13.581000328063965,-16.695999145507812 -12.48900032043457,-12.050000190734863 -8.446000099182129,-5.940999984741211 C-6.635000228881836,-3.2060000896453857 -3.135999917984009,0.04399999976158142 6.613999843597412,4.85699987411499z"></path></g></g><g style="display: block;" transform="matrix(1,0,0,1,224.35899353027344,281.39599609375)" opacity="1"><g opacity="1" transform="matrix(1,0,0,1,0,0)"><path fill="rgb(255,223,121)" fill-opacity="1" d=" M58.82899856567383,-7.309000015258789 C60.80400085449219,-14.524999618530273 41.29100036621094,-27.25 8.736000061035156,-21.158000946044922 C-23.82200050354004,-15.0649995803833 -61.73699951171875,6.085000038146973 -58.80500030517578,18.190000534057617 C-55.87200164794922,30.295000076293945 -35.361000061035156,15.291000366210938 -14.357999801635742,8.496000289916992 C6.886000156402588,1.6230000257492065 21.433000564575195,0.9520000219345093 32.987998962402344,0.37700000405311584 C46.19499969482422,-0.28200000524520874 56.74599838256836,0.30000001192092896 58.82899856567383,-7.309000015258789"></path></g></g><g style="display: none;"><g><path></path></g></g><g style="display: block;" transform="matrix(1,0,0,1,304.9280090332031,170.39100646972656)" opacity="1"><g opacity="1" transform="matrix(1,0,0,1,0,0)"><path fill="rgb(255,209,64)" fill-opacity="1" d=" M11.234999656677246,84.21199798583984 C11.28600025177002,72.09500122070312 17.996999740600586,40.3489990234375 22.059999465942383,19.95599937438965 C23.08300018310547,14.819000244140625 30.320999145507812,-22.6200008392334 32.69300079345703,-35.165000915527344 C37.689998626708984,-61.590999603271484 38.84400177001953,-80.00399780273438 22.13599967956543,-84.00199890136719 C4.314000129699707,-86.41600036621094 -1.2389999628067017,-67.74500274658203 -6.60099983215332,-41.27399826049805 C-8.074000358581543,-34 -14.961999893188477,1.284999966621399 -16.740999221801758,10.984999656677246 C-22.312999725341797,41.36199951171875 -27.656999588012695,69.40399932861328 -35.95600128173828,68.41899871826172"></path></g></g><g style="display: block;" transform="matrix(1,0,0,1,240.2689971923828,153.53500366210938)" opacity="1"><g opacity="1" transform="matrix(1,0,0,1,0,0)"><path fill="rgb(255,209,64)" fill-opacity="1" d=" M-25.944000244140625,95.24099731445312 C-16.44700050354004,94.0790023803711 -22.28499984741211,63.084999084472656 -25.656999588012695,18.187999725341797 C-26.069000244140625,12.696999549865723 -28.30299949645996,-26.01300048828125 -28.597000122070312,-38.555999755859375 C-29.33099937438965,-69.91699981689453 -26.60300064086914,-94.6709976196289 -9.532999992370605,-95.2229995727539 C11.67199993133545,-95.91000366210938 12.255000114440918,-76.66200256347656 13.588000297546387,-41.29800033569336 C13.845000267028809,-34.4900016784668 15.831999778747559,3.999000072479248 16.57900047302246,16.44499969482422 C18.639999389648438,50.7859992980957 21.704999923706055,85.4209976196289 28.702999114990234,85.2760009765625"></path></g></g><g style="display: block;" transform="matrix(1,0,0,1,175.9320068359375,183.87399291992188)" opacity="1"><g opacity="1" transform="matrix(1,0,0,1,0,0)"><path fill="rgb(255,209,64)" fill-opacity="1" d=" M38.393001556396484,64.9010009765625 C31.805999755859375,66.01699829101562 24.204999923706055,36.301998138427734 17.486000061035156,6.894999980926514 C14.67300033569336,-5.418000221252441 6.323999881744385,-41.917999267578125 4.861999988555908,-48.19200134277344 C-2.0199999809265137,-77.7229995727539 -6.915999889373779,-93.697998046875 -23.530000686645508,-89.53600311279297 C-41.00699996948242,-85.15899658203125 -40.72600173950195,-66.3030014038086 -34.577999114990234,-36.84299850463867 C-32.415000915527344,-26.479999542236328 -22.239999771118164,15.243000030517578 -20.308000564575195,23.285999298095703 C-11.21500015258789,61.132999420166016 -5.288000106811523,89.28399658203125 -13.357999801635742,90.18800354003906"></path></g></g><g style="display: block;" transform="matrix(1,0,0,1,118.41000366210938,231.66099548339844)" opacity="1"><g opacity="1" transform="matrix(1,0,0,1,0,0)"><path fill="rgb(255,209,64)" fill-opacity="1" d=" M44.16400146484375,42.39899826049805 C39.42499923706055,44.334999084472656 28.40399932861328,26.402999877929688 17.992000579833984,5.885000228881836 C11.21500015258789,-7.46999979019165 4.695000171661377,-21.922000885009766 0.33399999141693115,-32.70399856567383 C-10.333000183105469,-55.54899978637695 -19.045000076293945,-70.32599639892578 -33.733001708984375,-65.28099822998047 C-49.21699905395508,-59.9630012512207 -44.847999572753906,-40.367000579833984 -37.36399841308594,-20.77400016784668 C-34.31700134277344,-12.795999526977539 -24.65999984741211,9.33899974822998 -18.031999588012695,22.398000717163086 C-9.682000160217285,38.849998474121094 -1.3329999446868896,55.0369987487793 -0.41499999165534973,66.26899719238281"></path></g></g><g style="display: block;" transform="matrix(1,0,0,1,99.16900634765625,190.01600646972656)" opacity="1"><g opacity="1" transform="matrix(1,0,0,1,0,0)"><path fill="rgb(255,223,121)" fill-opacity="1" d=" M-13.13700008392334,4.933000087738037 C-13.13700008392334,4.933000087738037 -12.597000122070312,-9.76200008392334 -4.074999809265137,-8.055999755859375 C4.447000026702881,-6.349999904632568 16.197999954223633,14.536999702453613 22.326000213623047,22.316999435424805 C22.326000213623047,22.316999435424805 14.069000244140625,-23.868000030517578 -10.654999732971191,-22.275999069213867 C-35.37900161743164,-20.68400001525879 -13.13700008392334,4.933000087738037 -13.13700008392334,4.933000087738037"></path></g></g><g style="display: block;" transform="matrix(1,0,0,1,164.4320068359375,130.12399291992188)" opacity="1"><g opacity="1" transform="matrix(1,0,0,1,0,0)"><path fill="rgb(255,223,121)" fill-opacity="1" d=" M-19.95400047302246,-9.451000213623047 C-18.95199966430664,-17.700000762939453 -8.541999816894531,-23.667999267578125 -2.36899995803833,-16.55900001525879 C6.021999835968018,-6.896999835968018 11.699999809265137,14.607999801635742 22.542999267578125,35.55500030517578 C22.542999267578125,35.55500030517578 11.720999717712402,-29.034000396728516 0.07900000363588333,-33.891998291015625 C-16.145999908447266,-40.66299819946289 -28.009000778198242,-25.608999252319336 -19.95400047302246,-9.451000213623047z"></path></g></g><g style="display: block;" transform="matrix(1,0,0,1,242.58999633789062,150.62600708007812)" opacity="1"><g opacity="1" transform="matrix(1,0,0,1,0,0)"><path fill="rgb(255,223,121)" fill-opacity="1" d=" M-26.916000366210938,-68.63099670410156 C-23.475000381469727,-74.46099853515625 -11.114999771118164,-79.49199676513672 -4.5269999504089355,-69.74199676513672 C3.3010001182556152,-58.154998779296875 1.7949999570846558,-21.417999267578125 3.131999969482422,5.578999996185303 C4.603000164031982,35.29100036621094 4.386000156402588,98.76799774169922 26.93600082397461,91.88200378417969 C26.93600082397461,91.88200378417969 19.35099983215332,82.14199829101562 18.156999588012695,65.88800048828125 C15.149999618530273,24.950000762939453 11.5,-68.39099884033203 5.789999961853027,-81.11100006103516 C-2.188999891281128,-98.87799835205078 -27.731000900268555,-96.36699676513672 -26.916000366210938,-68.63099670410156z"></path></g></g><g style="display: block;" transform="matrix(1,0,0,1,323.4129943847656,183.54299926757812)" opacity="1"><g opacity="1" transform="matrix(1,0,0,1,0,0)"><path fill="rgb(255,223,121)" fill-opacity="1" d=" M-7.5370001792907715,97.52300262451172 C-17.27199935913086,88.83599853515625 -20.108999252319336,80.1969985961914 -14.553000450134277,41.68600082397461 C-12.61400032043457,28.246000289916992 -8.20199966430664,7.61299991607666 -4.043000221252441,-12.628999710083008 C1.125,-37.78499984741211 5.9029998779296875,-62.3390007019043 5.059999942779541,-71.74500274658203 C3.5399999618530273,-88.71800231933594 -13.147000312805176,-77.31500244140625 -13.147000312805176,-77.31500244140625 C-11.446999549865723,-89.88200378417969 -4.269999980926514,-99.25700378417969 5.084000110626221,-97.25199890136719 C18.87299919128418,-94.46499633789062 18.86400032043457,-73.75299835205078 15.527999877929688,-52.3380012512207 C13.937000274658203,-42.12699890136719 3.3940000534057617,4.020999908447266 -3.0859999656677246,43.32899856567383 C-6.982999801635742,66.96900177001953 -9.41100025177002,88.13600158691406 -7.5370001792907715,97.52300262451172z"></path></g></g><g style="display: block;" transform="matrix(1,0,0,1,301.89801025390625,165.04299926757812)" opacity="1"><g opacity="1" transform="matrix(1,0,0,1,0,0)"><path fill="rgb(255,177,57)" fill-opacity="1" d=" M34.617000579833984,-68.31900024414062 C34.617000579833984,-68.31900024414062 20.663000106811523,-77.12200164794922 12.72599983215332,-54.016998291015625 C7.809000015258789,-39.709999084472656 4.114999771118164,-19.211000442504883 0.703000009059906,0.9739999771118164 C0.06700000166893005,4.734000205993652 -0.5590000152587891,8.484000205993652 -1.180999994277954,12.180999755859375 C-3.1489999294281006,23.87299919128418 -5.079999923706055,35.0359992980957 -7.166999816894531,44.3390007019043 C-13.732999801635742,73.60800170898438 -17.409000396728516,82.91799926757812 -34.617000579833984,76.80500030517578 C-34.617000579833984,76.80500030517578 -26.110000610351562,79.42500305175781 -21.496999740600586,57.84199905395508 C-18.224000930786133,42.53799819946289 -4.73199987411499,-37.12900161743164 -0.4300000071525574,-51.9379997253418 C3.872999906539917,-66.7490005493164 9.211000442504883,-82.37899780273438 26.52400016784668,-77.76599884033203 C33.43899917602539,-75.92400360107422 34.617000579833984,-68.31900024414062 34.617000579833984,-68.31900024414062z"></path></g></g><g style="display: block;" transform="matrix(1,0,0,1,227.85499572753906,155.0570068359375)" opacity="1"><g opacity="1" transform="matrix(1,0,0,1,0,0)"><path fill="rgb(255,177,57)" fill-opacity="1" d=" M15.836999893188477,-91.51300048828125 C15.836999893188477,-91.51300048828125 -0.5120000243186951,-99.06999969482422 -2.4839999675750732,-69.74099731445312 C-3.740000009536743,-51.071998596191406 -2.749000072479248,-29.479999542236328 -0.9079999923706055,-2.571000099182129 C-0.5889999866485596,2.0920000076293945 -0.24500000476837158,6.914000034332275 0.11800000071525574,11.907999992370605 C0.6389999985694885,19.084999084472656 1.1990000009536743,26.618999481201172 1.7740000486373901,34.54399871826172 C5.059000015258789,79.81099700927734 6.952000141143799,100.26899719238281 -15.107000350952148,97.10299682617188 C-15.107000350952148,97.10299682617188 -4.440999984741211,94.39199829101562 -8.144000053405762,62.25600051879883 C-11.071999549865723,36.84400177001953 -15.961000442504883,-46.058998107910156 -15.833999633789062,-61.62300109863281 C-15.708000183105469,-77.18699645996094 -11.984999656677246,-111.0459976196289 15.836999893188477,-91.51300048828125"></path></g></g><g style="display: block;" transform="matrix(1,0,0,1,156.8300018310547,185.8280029296875)" opacity="1"><g opacity="1" transform="matrix(1,0,0,1,0,0)"><path fill="rgb(255,177,57)" fill-opacity="1" d=" M4.98199987411499,-89.98100280761719 C4.98199987411499,-89.98100280761719 -10.77299976348877,-96.9280014038086 -7.510000228881836,-60.242000579833984 C-7.015999794006348,-54.68600082397461 -1.8880000114440918,-31.923999786376953 4.00600004196167,-6.289999961853027 C4.553999900817871,-3.9070000648498535 5.107999801635742,-1.4989999532699585 5.665999889373779,0.9229999780654907 C10.432999610900879,21.607999801635742 15.456999778747559,43.26499938964844 18.798999786376953,58.71200180053711 C26.73900032043457,95.41699981689453 4.189000129699707,92.07099914550781 4.189000129699707,92.07099914550781 C4.189000129699707,92.07099914550781 13.277999877929688,85.68800354003906 2.697000026702881,44.84600067138672 C-4.257999897003174,15.60200023651123 -15.48900032043457,-30.9950008392334 -18.382999420166016,-49.00199890136719 C-21.277999877929688,-67.01000213623047 -23.117000579833984,-84.9990005493164 -10.482000350952148,-89.94300079345703 C2.1519999504089355,-94.88800048828125 4.98199987411499,-89.98100280761719 4.98199987411499,-89.98100280761719z"></path></g></g><g style="display: block;" transform="matrix(1,0,0,1,256,308.89398193359375)" opacity="1"><g opacity="1" transform="matrix(1,0,0,1,0,0)"><path fill="rgb(255,177,57)" fill-opacity="1" d=" M-164.64100646972656,-139.70700073242188 C-164.64100646972656,-139.70700073242188 -176.94000244140625,-142.01400756835938 -181.1199951171875,-130.09300231933594 C-184.625,-120.0979995727539 -179.156005859375,-101.76899719238281 -165.97999572753906,-74.31900024414062 C-155.36700439453125,-52.18299865722656 -139.8489990234375,-25.083999633789062 -138.37600708007812,-16.475000381469727 C-137.25,-9.894000053405762 -126.14399719238281,-6.136000156402588 -128.14999389648438,-17.71500015258789 C-130,-28.393999099731445 -143.42999267578125,-54.2599983215332 -154.3000030517578,-77.79000091552734 C-154.98199462890625,-79.26599884033203 -155.65699768066406,-80.73100280761719 -156.3209991455078,-82.18099975585938 C-165.0850067138672,-101.31600189208984 -172.09500122070312,-117.9229965209961 -171.906005859375,-124.97799682617188 C-171.6529998779297,-134.44700622558594 -164.64100646972656,-139.70700073242188 -164.64100646972656,-139.70700073242188z"></path></g></g><g style="display: block;" transform="matrix(1,0,0,1,304.9280090332031,170.39100646972656)" opacity="1"><g opacity="1" transform="matrix(1,0,0,1,0,0)"><path stroke-linecap="round" stroke-linejoin="round" fill-opacity="0" stroke="rgb(247,126,65)" stroke-opacity="1" stroke-width="8" d=" M11.234999656677246,84.21199798583984 C11.28600025177002,72.09500122070312 17.996999740600586,40.3489990234375 22.059999465942383,19.95599937438965 C23.08300018310547,14.819000244140625 30.320999145507812,-22.6200008392334 32.69300079345703,-35.165000915527344 C37.689998626708984,-61.590999603271484 38.84400177001953,-80.00399780273438 22.13599967956543,-84.00199890136719 C4.314000129699707,-86.41600036621094 -1.2389999628067017,-67.74500274658203 -6.60099983215332,-41.27399826049805 C-8.074000358581543,-34 -14.961999893188477,1.284999966621399 -16.740999221801758,10.984999656677246 C-22.312999725341797,41.36199951171875 -27.656999588012695,69.40399932861328 -35.95600128173828,68.41899871826172"></path></g></g><g style="display: block;" transform="matrix(1,0,0,1,240.2689971923828,153.53500366210938)" opacity="1"><g opacity="1" transform="matrix(1,0,0,1,0,0)"><path stroke-linecap="round" stroke-linejoin="round" fill-opacity="0" stroke="rgb(247,126,65)" stroke-opacity="1" stroke-width="8" d=" M-25.944000244140625,95.24099731445312 C-16.44700050354004,94.0790023803711 -22.28499984741211,63.084999084472656 -25.656999588012695,18.187999725341797 C-26.069000244140625,12.696999549865723 -28.30299949645996,-26.01300048828125 -28.597000122070312,-38.555999755859375 C-29.33099937438965,-69.91699981689453 -26.60300064086914,-94.6709976196289 -9.532999992370605,-95.2229995727539 C11.67199993133545,-95.91000366210938 12.255000114440918,-76.66200256347656 13.588000297546387,-41.29800033569336 C13.845000267028809,-34.4900016784668 15.831999778747559,3.999000072479248 16.57900047302246,16.44499969482422 C18.639999389648438,50.7859992980957 21.704999923706055,85.4209976196289 28.702999114990234,85.2760009765625"></path></g></g><g style="display: block;" transform="matrix(1,0,0,1,175.9320068359375,183.87399291992188)" opacity="1"><g opacity="1" transform="matrix(1,0,0,1,0,0)"><path stroke-linecap="round" stroke-linejoin="round" fill-opacity="0" stroke="rgb(247,126,65)" stroke-opacity="1" stroke-width="8" d=" M38.393001556396484,64.9010009765625 C31.805999755859375,66.01699829101562 24.204999923706055,36.301998138427734 17.486000061035156,6.894999980926514 C14.67300033569336,-5.418000221252441 6.323999881744385,-41.917999267578125 4.861999988555908,-48.19200134277344 C-2.0199999809265137,-77.7229995727539 -6.915999889373779,-93.697998046875 -23.530000686645508,-89.53600311279297 C-41.00699996948242,-85.15899658203125 -40.72600173950195,-66.3030014038086 -34.577999114990234,-36.84299850463867 C-32.415000915527344,-26.479999542236328 -22.239999771118164,15.243000030517578 -20.308000564575195,23.285999298095703 C-11.21500015258789,61.132999420166016 -5.288000106811523,89.28399658203125 -13.357999801635742,90.18800354003906"></path></g></g><g style="display: block;" transform="matrix(1,0,0,1,179.0760040283203,361.9169921875)" opacity="1"><g opacity="1" transform="matrix(1,0,0,1,0,0)"><path fill="rgb(255,223,121)" fill-opacity="1" d=" M-11.293000221252441,-31.573999404907227 C-15.024999618530273,-40.67100143432617 -25.65999984741211,-42.92100143432617 -29.1560001373291,-29.18400001525879 C-32.652000427246094,-15.446999549865723 -24.121999740600586,8.008000373840332 -15.461999893188477,17.983999252319336 C-1.1089999675750732,34.52199935913086 20.645999908447266,45.608001708984375 28.649999618530273,34.402000427246094 C34.32400131225586,26.45800018310547 19.930999755859375,20.427000045776367 5.164999961853027,0.6029999852180481 C-7.326000213623047,-16.16699981689453 -7.560999870300293,-22.476999282836914 -11.293000221252441,-31.573999404907227z"></path></g></g><g style="display: block;" transform="matrix(1,0,0,1,277.69000244140625,351.69000244140625)" opacity="1"><g opacity="1" transform="matrix(1,0,0,1,0,0)"><path stroke-linecap="round" stroke-linejoin="round" fill-opacity="0" stroke="rgb(247,126,65)" stroke-opacity="1" stroke-width="8" d=" M38.472999572753906,-97.08699798583984 C35.94599914550781,-57.65999984741211 46.84600067138672,-54.24100112915039 56.56999969482422,-52.900001525878906"></path></g></g><g style="display: none;"><g><path></path><path></path><path></path></g><g><path></path></g><g><path></path></g><g><path stroke-linecap="round" stroke-linejoin="miter" fill-opacity="0" stroke-miterlimit="10"></path></g><g><path stroke-linecap="round" stroke-linejoin="round" fill-opacity="0"></path></g></g><g style="display: none;"><g><path></path><path></path><path></path></g><g><path></path></g><g><path></path></g><g><path stroke-linecap="round" stroke-linejoin="miter" fill-opacity="0" stroke-miterlimit="10"></path></g><g><path stroke-linecap="round" stroke-linejoin="round" fill-opacity="0"></path></g></g><g style="display: none;"><g><path></path><path></path><path></path></g><g><path></path></g><g><path></path></g><g><path stroke-linecap="round" stroke-linejoin="miter" fill-opacity="0" stroke-miterlimit="10"></path></g><g><path stroke-linecap="round" stroke-linejoin="round" fill-opacity="0"></path></g></g><g style="display: block;" transform="matrix(1,0,0,1,277.69000244140625,351.69000244140625)" opacity="1"><g opacity="1" transform="matrix(1,0,0,1,0,0)"><path fill="rgb(255,209,64)" fill-opacity="1" d=" M56.56999969482422,-52.900001525878906 C73.8219985961914,-50.52000045776367 87.27799987792969,-74.97799682617188 102.37300109863281,-82.93599700927734 C117.46800231933594,-90.8949966430664 153.4010009765625,-86.61499786376953 158.68499755859375,-66.67900085449219 C163.97000122070312,-46.744998931884766 147.5590057373047,-43.387001037597656 131.8300018310547,-37.95100021362305 C119.59400177001953,-33.20000076293945 110.0530014038086,-26.48900032043457 102.16300201416016,-19.141000747680664 C95.66200256347656,-13.086999893188477 90.28199768066406,-6.599999904632568 85.44000244140625,-0.41999998688697815 C72.96700286865234,16.479000091552734 67.88300323486328,23.613000869750977 49.99399948120117,48.70899963378906 C39.909000396728516,64.1050033569336 26.55500030517578,75.63899993896484 11.97700023651123,83.54000091552734"></path></g></g><g style="display: block;" transform="matrix(1,0,0,1,256,308.89398193359375)" opacity="1"><g opacity="1" transform="matrix(1,0,0,1,0,0)"><path fill="rgb(255,177,57)" fill-opacity="1" d=" M106.2979965209961,41.37699890136719 C91.86900329589844,56.6609992980957 89.6780014038086,64.0250015258789 71.68099975585938,91.50800323486328 C53.689998626708984,118.98200225830078 25.2810001373291,134.1479949951172 -1.9170000553131104,138.34100341796875 C-28.503000259399414,142.4340057373047 -69.45700073242188,139.63400268554688 -97.17900085449219,114.65299987792969 C-130.16799926757812,84.91300201416016 -135.94900512695312,10.493000030517578 -138,-10.961999893188477 C-138,-10.961999893188477 -138.00100708007812,-10.975000381469727 -138.00100708007812,-10.975000381469727 C-139.30299377441406,-26.839000701904297 -131.7310028076172,-31.030000686645508 -128.14999389648438,-17.71500015258789 C-124.9229965209961,-5.7129998207092285 -124.13300323486328,5.682000160217285 -120.78900146484375,20.047000885009766 C-114.51899719238281,46.981998443603516 -110.80000305175781,63.1150016784668 -91.01699829101562,88.80599975585938 C-69.69300079345703,114.2959976196289 -44.26599884033203,110.22799682617188 -39.3390007019043,103.70800018310547 C-34.40599822998047,97.19499969482422 -38.9109992980957,86.16799926757812 -34.90599822998047,77.43699645996094 C-30.52899932861328,67.89800262451172 -28.475000381469727,70.26499938964844 -27.32699966430664,78.125 C-26.18000030517578,85.98600006103516 -7.892000198364258,116.63500213623047 20.52199935913086,105.53600311279297 C56.44499969482422,91.50399780273438 85.41999816894531,43.21099853515625 103.80000305175781,22.783000946044922 C115.27200317382812,10.031999588012695 132.1439971923828,-5.418000221252441 154.6269989013672,-9.572999954223633 C178,-13.894000053405762 175.63099670410156,-28.805999755859375 175.4759979248047,-29.31399917602539 C178.38499450683594,-26.617000579833984 180.51699829101562,-23.3799991607666 181.531005859375,-19.56399917602539 C186,-4.894000053405762 165.5760040283203,1.1950000524520874 149.8520050048828,6.63700008392334 C134.11900329589844,12.071000099182129 120.72799682617188,26.093000411987305 106.2979965209961,41.37699890136719"></path></g></g><g style="display: block;" transform="matrix(1,0,0,1,293.8009948730469,342.1709899902344)" opacity="1"><g opacity="1" transform="matrix(1,0,0,1,0,0)"><path fill="rgb(255,223,121)" fill-opacity="1" d=" M47.56700134277344,-24.770000457763672 C44.24700164794922,-31.739999771118164 30.099000930786133,-38.43000030517578 6.459000110626221,-32.887001037597656 C-26.722000122070312,-25.107999801635742 -43.659000396728516,-7.184999942779541 -47.435001373291016,11.204999923706055 C-51.84600067138672,32.69300079345703 -36.00699996948242,39.97200012207031 -16.990999221801758,31.479999542236328 C-1.3320000171661377,24.48699951171875 4.5329999923706055,10.423999786376953 14.696999549865723,2.4019999504089355 C27.84600067138672,-7.9770002365112305 52.35900115966797,-14.706000328063965 47.56700134277344,-24.770000457763672z"></path></g></g><g style="display: block;" transform="matrix(1,0,0,1,396.92498779296875,278.92999267578125)" opacity="1"><g opacity="1" transform="matrix(1,0,0,1,0,0)"><path fill="rgb(255,223,121)" fill-opacity="1" d=" M-15.220999717712402,-10.664999961853027 C-27.0049991607666,-5.386000156402588 -36.707000732421875,10.137999534606934 -26.266000747680664,13.663000106811523 C-17.69499969482422,16.55699920654297 -12.40999984741211,2.6010000705718994 9.723999977111816,3.5940001010894775 C22.202999114990234,4.1529998779296875 29.405000686645508,1.6160000562667847 30.549999237060547,-1.7929999828338623 C30.98699951171875,-3.0929999351501465 30.542999267578125,-4.520999908447266 29.173999786376953,-5.951000213623047 C27.86199951171875,-7.322999954223633 25.698999404907227,-8.696999549865723 22.64900016784668,-9.965999603271484 C11.602999687194824,-14.560999870300293 -3.437000036239624,-15.944999694824219 -15.220999717712402,-10.664999961853027z"></path></g></g><g style="display: none;"><g><path></path></g></g><g style="display: block;" transform="matrix(1,0,0,1,277.69000244140625,351.69000244140625)" opacity="1"><g opacity="1" transform="matrix(1,0,0,1,0,0)"><path stroke-linecap="round" stroke-linejoin="round" fill-opacity="0" stroke="rgb(247,126,65)" stroke-opacity="1" stroke-width="8" d=" M56.56999969482422,-52.900001525878906 C73.8219985961914,-50.52000045776367 87.27799987792969,-74.97799682617188 102.37300109863281,-82.93599700927734 C117.46800231933594,-90.8949966430664 153.4010009765625,-86.61499786376953 158.68499755859375,-66.67900085449219 C163.97000122070312,-46.744998931884766 147.5590057373047,-43.387001037597656 131.8300018310547,-37.95100021362305 C119.59400177001953,-33.20000076293945 110.0530014038086,-26.48900032043457 102.16300201416016,-19.141000747680664 C95.66200256347656,-13.086999893188477 90.28199768066406,-6.599999904632568 85.44000244140625,-0.41999998688697815 C72.96700286865234,16.479000091552734 67.88300323486328,23.613000869750977 49.99399948120117,48.70899963378906 C39.909000396728516,64.1050033569336 26.55500030517578,75.63899993896484 11.97700023651123,83.54000091552734"></path></g></g><g style="display: block;" transform="matrix(1,0,0,1,277.69000244140625,351.69000244140625)" opacity="1"><g opacity="1" transform="matrix(1,0,0,1,0,0)"><path stroke-linecap="round" stroke-linejoin="round" fill-opacity="0" stroke="rgb(247,126,65)" stroke-opacity="1" stroke-width="8" d=" M11.97700023651123,83.54000091552734 C0.5410000085830688,89.73799896240234 -11.64900016784668,93.70099639892578 -23.604000091552734,95.54100036621094 C-50.189998626708984,99.63300323486328 -91.1520004272461,96.83699798583984 -118.86799621582031,71.8550033569336 C-151.85899353027344,42.119998931884766 -156.82899475097656,-27.280000686645508 -159.6959991455078,-53.75699996948242"></path></g></g><g style="display: block;" transform="matrix(1,0,0,1,118.41000366210938,231.66099548339844)" opacity="1"><g opacity="1" transform="matrix(1,0,0,1,0,0)"><path stroke-linecap="round" stroke-linejoin="round" fill-opacity="0" stroke="rgb(247,126,65)" stroke-opacity="1" stroke-width="8" d=" M44.16400146484375,42.39899826049805 C39.42499923706055,44.334999084472656 28.40399932861328,26.402999877929688 17.992000579833984,5.885000228881836 C11.21500015258789,-7.46999979019165 4.695000171661377,-21.922000885009766 0.33399999141693115,-32.70399856567383 C-10.333000183105469,-55.54899978637695 -19.045000076293945,-70.32599639892578 -33.733001708984375,-65.28099822998047 C-49.21699905395508,-59.9630012512207 -44.847999572753906,-40.367000579833984 -37.36399841308594,-20.77400016784668 C-34.31700134277344,-12.795999526977539 -24.65999984741211,9.33899974822998 -18.031999588012695,22.398000717163086 C-9.682000160217285,38.849998474121094 -1.3329999446868896,55.0369987487793 -0.41499999165534973,66.26899719238281"></path></g></g><g style="display: none;"><g><path></path><path></path><path></path></g><g><path></path></g><g><path></path></g><g><path stroke-linecap="round" stroke-linejoin="miter" fill-opacity="0" stroke-miterlimit="10"></path></g><g><path stroke-linecap="round" stroke-linejoin="round" fill-opacity="0"></path></g></g><g style="display: block;" transform="matrix(1,0,0,1,237.968994140625,79.48800659179688)" opacity="1"><g opacity="1" transform="matrix(1,0,0,1,0,0)"><path stroke-linecap="round" stroke-linejoin="round" fill-opacity="0" stroke="rgb(255,255,255)" stroke-opacity="1" stroke-width="6" d=" M-1.2020000219345093,-1.9229999780654907 C-1.2020000219345093,-1.9229999780654907 0.8579999804496765,0.9269999861717224 1.2009999752044678,1.9229999780654907"></path></g></g><g style="display: block;" transform="matrix(1,0,0,1,274.6969909667969,330.5559997558594)" opacity="1"><g opacity="1" transform="matrix(1,0,0,1,0,0)"><path stroke-linecap="round" stroke-linejoin="round" fill-opacity="0" stroke="rgb(255,255,255)" stroke-opacity="1" stroke-width="6" d=" M-9.98799991607666,7.50600004196167 C-5.761000156402588,2.6059999465942383 1.4869999885559082,-3.3519999980926514 9.710000038146973,-7.90500020980835"></path></g><g opacity="1" transform="matrix(1,0,0,1,0,0)"><path stroke-linecap="round" stroke-linejoin="round" fill-opacity="0" stroke="rgb(255,255,255)" stroke-opacity="1" stroke-width="6" d=" M20.493000030517578,-12.734999656677246 C21.323999404907227,-13.015000343322754 22.156999588012695,-13.27299976348877 22.988000869750977,-13.505999565124512"></path></g></g></g></svg>