<svg xmlns="http://www.w3.org/2000/svg" viewBox="0 0 512 512" width="512" height="512" style="width: 100%; height: 100%; transform: translate3d(0,0,0);" preserveAspectRatio="xMidYMid meet"><defs><clipPath id="__lottie_element_22487"><rect width="512" height="512" x="0" y="0"></rect></clipPath></defs><g clip-path="url(#__lottie_element_22487)"><g style="display: block;" transform="matrix(1,0,0,1,342.5,189)" opacity="1"><g opacity="1" transform="matrix(1,0,0,1,0,0)"><path fill="rgb(208,240,255)" fill-opacity="1" d=" M-195.63099670410156,218.66299438476562 C-201.06500244140625,229.41700744628906 -214.18899536132812,233.72999572753906 -224.9429931640625,228.29600524902344 C-235.69700622558594,222.86199951171875 -240.00999450683594,209.73800659179688 -234.5760040283203,198.98399353027344 C-229.14199829101562,188.22999572753906 -216.01800537109375,183.91700744628906 -205.26400756835938,189.3509979248047 C-194.50999450683594,194.78500366210938 -190.19700622558594,207.90899658203125 -195.63099670410156,218.66299438476562z"></path></g><g opacity="1" transform="matrix(1,0,0,1,0,0)"><path fill="rgb(248,253,255)" fill-opacity="1" d=" M-192.58599853515625,207.74600219726562 C-195.0919952392578,219.2530059814453 -206.07899475097656,220.7239990234375 -215.4720001220703,215.97799682617188 C-224.86500549316406,211.23199462890625 -228.78199768066406,200.06399536132812 -224.218994140625,191.03399658203125 C-219.656005859375,182.00399780273438 -204.76699829101562,186.5260009765625 -192.58599853515625,207.74600219726562z"></path></g><g opacity="1" transform="matrix(1,0,0,1,0,0)"><path stroke-linecap="round" stroke-linejoin="round" fill-opacity="0" stroke="rgb(152,198,240)" stroke-opacity="1" stroke-width="8" d=" M-195.63099670410156,218.66299438476562 C-201.06500244140625,229.41700744628906 -214.18899536132812,233.72999572753906 -224.9429931640625,228.29600524902344 C-235.69700622558594,222.86199951171875 -240.00999450683594,209.73800659179688 -234.5760040283203,198.98399353027344 C-229.14199829101562,188.22999572753906 -216.01800537109375,183.91700744628906 -205.26400756835938,189.3509979248047 C-194.50999450683594,194.78500366210938 -190.19700622558594,207.90899658203125 -195.63099670410156,218.66299438476562z"></path></g></g><g style="display: block;" transform="matrix(1,0,0,1,256,256)" opacity="1"><g opacity="0.1" transform="matrix(1,0,0,1,0,0)"><path fill="rgb(0,0,0)" fill-opacity="1" d=" M195.92300415039062,10.781999588012695 C195.92300415039062,119.04299926757812 108.15899658203125,206.80599975585938 -0.10199999809265137,206.80599975585938 C-108.36299896240234,206.80599975585938 -196.12600708007812,119.04299926757812 -196.12600708007812,10.781999588012695 C-196.12600708007812,-97.47899627685547 -108.36299896240234,-185.2429962158203 -0.10199999809265137,-185.2429962158203 C108.15899658203125,-185.2429962158203 195.92300415039062,-97.47899627685547 195.92300415039062,10.781999588012695z"></path></g><g opacity="1" transform="matrix(1,0,0,1,0,0)"><path fill="rgb(255,173,0)" fill-opacity="1" d=" M188.7740020751953,-2.4570000171661377 C188.7740020751953,101.85600280761719 104.21099853515625,186.41799926757812 -0.10199999809265137,186.41799926757812 C-104.41500091552734,186.41799926757812 -188.9770050048828,101.85600280761719 -188.9770050048828,-2.4570000171661377 C-188.9770050048828,-106.7699966430664 -104.41500091552734,-191.33299255371094 -0.10199999809265137,-191.33299255371094 C104.21099853515625,-191.33299255371094 188.7740020751953,-106.7699966430664 188.7740020751953,-2.4570000171661377z"></path><path stroke-linecap="butt" stroke-linejoin="miter" fill-opacity="0" stroke-miterlimit="10" stroke="rgb(255,118,42)" stroke-opacity="1" stroke-width="8" d=" M188.7740020751953,-2.4570000171661377 C188.7740020751953,101.85600280761719 104.21099853515625,186.41799926757812 -0.10199999809265137,186.41799926757812 C-104.41500091552734,186.41799926757812 -188.9770050048828,101.85600280761719 -188.9770050048828,-2.4570000171661377 C-188.9770050048828,-106.7699966430664 -104.41500091552734,-191.33299255371094 -0.10199999809265137,-191.33299255371094 C104.21099853515625,-191.33299255371094 188.7740020751953,-106.7699966430664 188.7740020751953,-2.4570000171661377z"></path></g><g opacity="1" transform="matrix(1,0,0,1,0,0)"><path fill="rgb(255,207,0)" fill-opacity="1" d=" M168.30499267578125,-3.50600004196167 C166.84800720214844,91.52200317382812 90.29499816894531,167.4029998779297 -2.683000087738037,165.97799682617188 C-95.66100311279297,164.55299377441406 -169.85400390625,86.36199951171875 -168.39700317382812,-8.666999816894531 C-166.9409942626953,-103.69599914550781 -90.38700103759766,-179.5749969482422 2.5910000801086426,-178.14999389648438 C95.56900024414062,-176.72500610351562 169.76199340820312,-98.53500366210938 168.30499267578125,-3.50600004196167z"></path></g><g opacity="0.9" transform="matrix(1,0,0,1,0,0)"><path fill="rgb(255,222,102)" fill-opacity="1" d=" M149.16600036621094,-46.64699935913086 C149.16600036621094,25.996000289916992 82.33599853515625,-31.468000411987305 -0.10199999809265137,-31.468000411987305 C-82.54000091552734,-31.468000411987305 -149.36900329589844,25.996000289916992 -149.36900329589844,-46.64699935913086 C-149.36900329589844,-119.29000091552734 -82.54000091552734,-178.1790008544922 -0.10199999809265137,-178.1790008544922 C82.33599853515625,-178.1790008544922 149.16600036621094,-119.29000091552734 149.16600036621094,-46.64699935913086z"></path></g><g opacity="1" transform="matrix(1,0,0,1,0,0)"><g opacity="1" transform="matrix(1,0,0,1,0,0)"><path stroke-linecap="round" stroke-linejoin="round" fill-opacity="0" stroke="rgb(255,255,255)" stroke-opacity="1" stroke-width="6" d=" M36.270999908447266,-173.9600067138672 C37.808998107910156,-173.625 39.404998779296875,-173.2550048828125 41.04899978637695,-172.8489990234375"></path></g><g opacity="1" transform="matrix(1,0,0,1,0,0)"><path stroke-linecap="round" stroke-linejoin="round" fill-opacity="0" stroke="rgb(255,255,255)" stroke-opacity="1" stroke-width="6" d=" M14.916999816894531,-177.1790008544922 C14.916999816894531,-177.1790008544922 19.784000396728516,-176.91900634765625 27.506999969482422,-175.64100646972656"></path></g></g></g><g style="display: block;" transform="matrix(1,0,0,1,573,261)" opacity="1"><g opacity="1" transform="matrix(1,0,0,1,0,0)"><path fill="rgb(208,240,255)" fill-opacity="1" d=" M-181.7480010986328,111.89299774169922 C-181.7480010986328,122.99800109863281 -190.75,132 -201.85499572753906,132 C-212.9600067138672,132 -221.96099853515625,122.99800109863281 -221.96099853515625,111.89299774169922 C-221.96099853515625,100.78800201416016 -212.9600067138672,91.78700256347656 -201.85499572753906,91.78700256347656 C-190.75,91.78700256347656 -181.7480010986328,100.78800201416016 -181.7480010986328,111.89299774169922z"></path></g><g opacity="1" transform="matrix(1,0,0,1,0,0)"><path fill="rgb(248,253,255)" fill-opacity="1" d=" M-181.83200073242188,104.33100128173828 C-181.83200073242188,113.65499877929688 -189.69400024414062,121.21299743652344 -199.39300537109375,121.21299743652344 C-209.0919952392578,121.21299743652344 -216.9550018310547,113.65499877929688 -216.9550018310547,104.33100128173828 C-216.9550018310547,95.00700378417969 -210.2830047607422,92.9280014038086 -200.58399963378906,92.9280014038086 C-190.88499450683594,92.9280014038086 -181.83200073242188,95.00700378417969 -181.83200073242188,104.33100128173828z"></path></g><g opacity="1" transform="matrix(1,0,0,1,0,0)"><path stroke-linecap="round" stroke-linejoin="round" fill-opacity="0" stroke="rgb(152,198,240)" stroke-opacity="1" stroke-width="7" d=" M-181.7480010986328,111.89299774169922 C-181.7480010986328,122.99800109863281 -190.75,132 -201.85499572753906,132 C-212.9600067138672,132 -221.96099853515625,122.99800109863281 -221.96099853515625,111.89299774169922 C-221.96099853515625,100.78800201416016 -212.9600067138672,91.78700256347656 -201.85499572753906,91.78700256347656 C-190.75,91.78700256347656 -181.7480010986328,100.78800201416016 -181.7480010986328,111.89299774169922z"></path></g></g><g style="display: block;" transform="matrix(-0.882947564125061,0.4694715738296509,-0.4694715738296509,-0.882947564125061,186.4481964111328,591.203857421875)" opacity="1"><g opacity="1" transform="matrix(1,0,0,1,0,0)"><path fill="rgb(208,240,255)" fill-opacity="1" d=" M-187.8459930419922,111.89299774169922 C-187.8459930419922,119.62999725341797 -194.1179962158203,125.9020004272461 -201.85499572753906,125.9020004272461 C-209.5919952392578,125.9020004272461 -215.86300659179688,119.62999725341797 -215.86300659179688,111.89299774169922 C-215.86300659179688,104.15599822998047 -209.5919952392578,97.88500213623047 -201.85499572753906,97.88500213623047 C-194.1179962158203,97.88500213623047 -187.8459930419922,104.15599822998047 -187.8459930419922,111.89299774169922z"></path></g><g opacity="1" transform="matrix(1,0,0,1,0,0)"><path fill="rgb(248,253,255)" fill-opacity="1" d=" M-187.9040069580078,106.6240005493164 C-187.9040069580078,113.12000274658203 -193.3820037841797,118.38700103759766 -200.13999938964844,118.38700103759766 C-206.8979949951172,118.38700103759766 -212.37600708007812,113.12000274658203 -212.37600708007812,106.6240005493164 C-212.37600708007812,100.12799835205078 -207.7270050048828,98.68000030517578 -200.97000122070312,98.68000030517578 C-194.21299743652344,98.68000030517578 -187.9040069580078,100.12799835205078 -187.9040069580078,106.6240005493164z"></path></g><g opacity="1" transform="matrix(1,0,0,1,0,0)"><path stroke-linecap="round" stroke-linejoin="round" fill-opacity="0" stroke="rgb(152,198,240)" stroke-opacity="1" stroke-width="7" d=" M-187.8459930419922,111.89299774169922 C-187.8459930419922,119.62999725341797 -194.1179962158203,125.9020004272461 -201.85499572753906,125.9020004272461 C-209.5919952392578,125.9020004272461 -215.86300659179688,119.62999725341797 -215.86300659179688,111.89299774169922 C-215.86300659179688,104.15599822998047 -209.5919952392578,97.88500213623047 -201.85499572753906,97.88500213623047 C-194.1179962158203,97.88500213623047 -187.8459930419922,104.15599822998047 -187.8459930419922,111.89299774169922z"></path></g></g><g style="display: block;" transform="matrix(1,0,0,1,369.2980041503906,151.96298217773438)" opacity="1"><g opacity="1" transform="matrix(1,0,0,1,0,0)"><path fill="rgb(208,240,255)" fill-opacity="1" d=" M-205.1540069580078,213.38299560546875 C-207.92999267578125,218.8780059814453 -214.63600158691406,221.08099365234375 -220.13099670410156,218.30499267578125 C-225.62600708007812,215.5290069580078 -227.82899475097656,208.82400512695312 -225.05299377441406,203.32899475097656 C-222.27699279785156,197.83399963378906 -215.5709991455078,195.63099670410156 -210.0760040283203,198.40699768066406 C-204.58099365234375,201.18299865722656 -202.3780059814453,207.88800048828125 -205.1540069580078,213.38299560546875z"></path></g><g opacity="1" transform="matrix(1,0,0,1,0,0)"><path fill="rgb(248,253,255)" fill-opacity="1" d=" M-203.5989990234375,207.80499267578125 C-204.8800048828125,213.6840057373047 -210.4929962158203,214.43600463867188 -215.29200744628906,212.01100158691406 C-220.09100341796875,209.58599853515625 -222.0919952392578,203.88099670410156 -219.76100158691406,199.26699829101562 C-217.42999267578125,194.6529998779297 -209.822998046875,196.96299743652344 -203.5989990234375,207.80499267578125z"></path></g><g opacity="1" transform="matrix(1,0,0,1,0,0)"><path stroke-linecap="round" stroke-linejoin="round" fill-opacity="0" stroke="rgb(152,198,240)" stroke-opacity="1" stroke-width="8" d=" M-205.1540069580078,213.38299560546875 C-207.92999267578125,218.8780059814453 -214.63600158691406,221.08099365234375 -220.13099670410156,218.30499267578125 C-225.62600708007812,215.5290069580078 -227.82899475097656,208.82400512695312 -225.05299377441406,203.32899475097656 C-222.27699279785156,197.83399963378906 -215.5709991455078,195.63099670410156 -210.0760040283203,198.40699768066406 C-204.58099365234375,201.18299865722656 -202.3780059814453,207.88800048828125 -205.1540069580078,213.38299560546875z"></path></g></g><g style="display: block;" transform="matrix(1,0,0,1,256,256)" opacity="1"><g opacity="1" transform="matrix(1,0,0,1,0,0)"><g opacity="0.6" transform="matrix(1,0,0,1,0,0)"><path fill="rgb(255,173,0)" fill-opacity="1" d=" M-68.79000091552734,-55.55500030517578 C-103.38999938964844,-55.55500030517578 -110.88899993896484,-64.0009994506836 -115.07099914550781,-56.63600158691406 C-119.48100280761719,-48.87099838256836 -97.9540023803711,-30.490999221801758 -67.79000091552734,-30.490999221801758 C-39.20500183105469,-30.490999221801758 -16.034000396728516,-48.08000183105469 -22.31100082397461,-59.32099914550781 C-25.736000061035156,-65.45500183105469 -34.26499938964844,-55.55500030517578 -68.79000091552734,-55.55500030517578z"></path></g><g opacity="1" transform="matrix(1,0,0,1,0,0)"><path fill="rgb(255,237,182)" fill-opacity="1" d=" M-68.79000091552734,-47.55500030517578 C-103.38999938964844,-47.55500030517578 -109.9729995727539,-59.569000244140625 -114.69400024414062,-54.80500030517578 C-122.22699737548828,-47.20399856567383 -97.9540023803711,-25.490999221801758 -67.79000091552734,-25.490999221801758 C-39.20500183105469,-25.490999221801758 -16.253999710083008,-47.89799880981445 -22.31100082397461,-55.32099914550781 C-26.75200080871582,-60.763999938964844 -34.26499938964844,-47.55500030517578 -68.79000091552734,-47.55500030517578z"></path></g><g opacity="1" transform="matrix(1,0,0,1,0,0)"><path fill="rgb(143,58,0)" fill-opacity="1" d=" M-68.79000091552734,-51.55500030517578 C-103.38999938964844,-51.55500030517578 -109.89600372314453,-59.49100112915039 -114.69400024414062,-54.80500030517578 C-120.05400085449219,-49.56999969482422 -97.9540023803711,-30.490999221801758 -67.79000091552734,-30.490999221801758 C-39.20500183105469,-30.490999221801758 -19.89299964904785,-49.96200180053711 -22.31100082397461,-55.32099914550781 C-25.201000213623047,-61.724998474121094 -34.26499938964844,-51.55500030517578 -68.79000091552734,-51.55500030517578z"></path></g><g opacity="1" transform="matrix(1,0,0,1,0,0)"><path fill="rgb(107,32,0)" fill-opacity="1" d=" M-22.97599983215332,-51.38999938964844 C-26.525999069213867,-55.400001525878906 -36.57600021362305,-46.560001373291016 -68.78600311279297,-46.560001373291016 C-103.10600280761719,-46.560001373291016 -109.78600311279297,-54.36000061035156 -114.57599639892578,-49.90999984741211 C-115.73600006103516,-51.959999084472656 -115.83599853515625,-53.689998626708984 -114.69599914550781,-54.79999923706055 C-109.89600372314453,-59.4900016784668 -103.38600158691406,-51.560001373291016 -68.78600311279297,-51.560001373291016 C-34.26599884033203,-51.560001373291016 -25.195999145507812,-61.720001220703125 -22.305999755859375,-55.31999969482422 C-21.88599967956543,-54.380001068115234 -22.125999450683594,-53.0099983215332 -22.97599983215332,-51.38999938964844z"></path></g></g><g opacity="1" transform="matrix(1,0,0,1,0,0)"><g opacity="0.6" transform="matrix(1,0,0,1,0,0)"><path fill="rgb(255,173,0)" fill-opacity="1" d=" M68.79000091552734,-55.55500030517578 C103.38999938964844,-55.55500030517578 110.88899993896484,-64.0009994506836 115.07099914550781,-56.63600158691406 C119.48100280761719,-48.87099838256836 97.9540023803711,-30.490999221801758 67.79000091552734,-30.490999221801758 C39.20500183105469,-30.490999221801758 16.034000396728516,-48.08000183105469 22.31100082397461,-59.32099914550781 C25.73699951171875,-65.45500183105469 34.26499938964844,-55.55500030517578 68.79000091552734,-55.55500030517578z"></path></g><g opacity="1" transform="matrix(1,0,0,1,0,0)"><path fill="rgb(255,237,182)" fill-opacity="1" d=" M68.79000091552734,-47.55500030517578 C103.38999938964844,-47.55500030517578 109.9729995727539,-59.569000244140625 114.69400024414062,-54.80500030517578 C122.22699737548828,-47.20399856567383 97.9540023803711,-25.490999221801758 67.79000091552734,-25.490999221801758 C39.20500183105469,-25.490999221801758 16.253999710083008,-47.89799880981445 22.31100082397461,-55.32099914550781 C26.753000259399414,-60.763999938964844 34.26499938964844,-47.55500030517578 68.79000091552734,-47.55500030517578z"></path></g><g opacity="1" transform="matrix(1,0,0,1,0,0)"><path fill="rgb(143,58,0)" fill-opacity="1" d=" M68.79000091552734,-51.55500030517578 C103.38999938964844,-51.55500030517578 109.89600372314453,-59.49100112915039 114.69400024414062,-54.80500030517578 C120.05400085449219,-49.56999969482422 97.9540023803711,-30.490999221801758 67.79000091552734,-30.490999221801758 C39.20500183105469,-30.490999221801758 19.89299964904785,-49.96200180053711 22.31100082397461,-55.32099914550781 C25.201000213623047,-61.724998474121094 34.26499938964844,-51.55500030517578 68.79000091552734,-51.55500030517578z"></path></g><g opacity="1" transform="matrix(1,0,0,1,0,0)"><path fill="rgb(107,32,0)" fill-opacity="1" d=" M22.97599983215332,-51.38999938964844 C26.525999069213867,-55.400001525878906 36.57600021362305,-46.560001373291016 68.78600311279297,-46.560001373291016 C103.10600280761719,-46.560001373291016 109.78600311279297,-54.36000061035156 114.57599639892578,-49.90999984741211 C115.73600006103516,-51.959999084472656 115.83599853515625,-53.689998626708984 114.69599914550781,-54.79999923706055 C109.89600372314453,-59.4900016784668 103.38600158691406,-51.560001373291016 68.78600311279297,-51.560001373291016 C34.26599884033203,-51.560001373291016 25.195999145507812,-61.720001220703125 22.305999755859375,-55.31999969482422 C21.88599967956543,-54.380001068115234 22.125999450683594,-53.0099983215332 22.97599983215332,-51.38999938964844z"></path></g></g></g><g style="display: block;" transform="matrix(1,0,0,1,256,256)" opacity="1"><g opacity="1" transform="matrix(1,0,0,1,0,0)"><g opacity="1" transform="matrix(1,0,0,1,0,0)"><g opacity="1" transform="matrix(1,0,0,1,0,0)"><path fill="rgb(255,237,182)" fill-opacity="1" d=" M-22.28700065612793,-89.9540023803711 C-22.024999618530273,-91.75299835205078 -22.183000564575195,-95.80899810791016 -22.958999633789062,-98.89399719238281 C-26.320999145507812,-112.26100158691406 -44.43000030517578,-132.3000030517578 -66.76000213623047,-140.92799377441406 C-98.55899810791016,-153.21499633789062 -102.66500091552734,-138.8800048828125 -96.03199768066406,-135.98300170898438 C-89.39900207519531,-133.08599853515625 -66.00599670410156,-126.38300323486328 -46.387001037597656,-101.77300262451172 C-41.130001068115234,-95.17900085449219 -38.13999938964844,-89.93699645996094 -34.90700149536133,-86.54199981689453 C-30.636999130249023,-82.05799865722656 -23.493000030517578,-81.68399810791016 -22.28700065612793,-89.9540023803711z"></path></g><g opacity="1" transform="matrix(1,0,0,1,0,0)"><path fill="rgb(143,58,0)" fill-opacity="1" d=" M-21.966999053955078,-90.77300262451172 C-21.375,-92.49199676513672 -21.420000076293945,-96.45500183105469 -22.195999145507812,-99.54000091552734 C-25.558000564575195,-112.90699768066406 -38.654998779296875,-132.8070068359375 -60.98500061035156,-141.43499755859375 C-92.78399658203125,-153.7220001220703 -101.79299926757812,-142.9980010986328 -95.16000366210938,-140.1009979248047 C-88.5270004272461,-137.20399475097656 -62.316001892089844,-129.3679962158203 -42.696998596191406,-104.75800323486328 C-37.439998626708984,-98.16400146484375 -34.45000076293945,-92.9209976196289 -31.216999053955078,-89.5270004272461 C-26.94700050354004,-85.04299926757812 -23.593000411987305,-86.05500030517578 -21.966999053955078,-90.77300262451172z"></path></g></g><g opacity="1" transform="matrix(1,0,0,1,0,0)"><path fill="rgb(116,24,0)" fill-opacity="1" d=" M-26.724000930786133,-86.68900299072266 C-26.70800018310547,-86.71600341796875 -26.68899917602539,-86.75700378417969 -26.679000854492188,-86.79199981689453 C-26.089000701904297,-88.51000213623047 -26.12700080871582,-92.47200012207031 -26.913000106811523,-95.5530014038086 C-30.267000198364258,-108.91799926757812 -43.37099838256836,-128.82200622558594 -65.69100189208984,-137.447998046875 C-81.60399627685547,-143.59500122070312 -91.81199645996094,-143.9709930419922 -97.2030029296875,-142.46299743652344 C-97.4000015258789,-146.3040008544922 -86.56500244140625,-151.3179931640625 -60.97999954223633,-141.43299865722656 C-38.65999984741211,-132.8070068359375 -25.55699920654297,-112.9020004272461 -22.19499969482422,-99.54399871826172 C-21.41699981689453,-96.45600128173828 -21.378999710083008,-92.49400329589844 -21.9689998626709,-90.7770004272461 C-22.96299934387207,-87.87999725341797 -24.61400032043457,-86.37799835205078 -26.724000930786133,-86.68900299072266z"></path></g></g></g><g style="display: block;" transform="matrix(1,0,0,1,256,256)" opacity="1"><g opacity="1" transform="matrix(1,0,0,1,0,0)"><g opacity="1" transform="matrix(1,0,0,1,0,0)"><g opacity="1" transform="matrix(1,0,0,1,0,0)"><path fill="rgb(255,237,182)" fill-opacity="1" d=" M22.28700065612793,-89.9540023803711 C21.905000686645508,-91.73200225830078 22.183000564575195,-95.80899810791016 22.958999633789062,-98.89399719238281 C26.320999145507812,-112.26100158691406 44.43000030517578,-132.3000030517578 66.76000213623047,-140.92799377441406 C98.55899810791016,-153.21499633789062 102.6520004272461,-138.875 96.01899719238281,-135.97799682617188 C89.38600158691406,-133.08099365234375 66.00599670410156,-126.38300323486328 46.387001037597656,-101.77300262451172 C41.130001068115234,-95.17900085449219 38.13999938964844,-89.93699645996094 34.90700149536133,-86.54199981689453 C30.636999130249023,-82.05799865722656 23.775999069213867,-83.01799774169922 22.28700065612793,-89.9540023803711z"></path></g><g opacity="1" transform="matrix(1,0,0,1,0,0)"><path fill="rgb(143,58,0)" fill-opacity="1" d=" M21.966999053955078,-90.77300262451172 C21.375,-92.49199676513672 21.420000076293945,-96.45500183105469 22.195999145507812,-99.54000091552734 C25.558000564575195,-112.90699768066406 38.654998779296875,-132.8070068359375 60.98500061035156,-141.43499755859375 C92.78399658203125,-153.7220001220703 101.79299926757812,-142.9980010986328 95.16000366210938,-140.1009979248047 C88.5270004272461,-137.20399475097656 62.316001892089844,-129.3679962158203 42.696998596191406,-104.75800323486328 C37.439998626708984,-98.16400146484375 34.45000076293945,-92.9209976196289 31.216999053955078,-89.5270004272461 C26.94700050354004,-85.04299926757812 23.593000411987305,-86.05500030517578 21.966999053955078,-90.77300262451172z"></path></g></g><g opacity="1" transform="matrix(1,0,0,1,0,0)"><path fill="rgb(116,24,0)" fill-opacity="1" d=" M26.722999572753906,-86.68900299072266 C26.70599937438965,-86.71600341796875 26.68899917602539,-86.75700378417969 26.679000854492188,-86.79199981689453 C26.089000701904297,-88.51000213623047 26.12700080871582,-92.47200012207031 26.913000106811523,-95.5530014038086 C30.267000198364258,-108.91799926757812 43.37200164794922,-128.82200622558594 65.69100189208984,-137.447998046875 C81.60399627685547,-143.59500122070312 91.81199645996094,-143.9709930419922 97.2030029296875,-142.46299743652344 C97.4000015258789,-146.3040008544922 86.56500244140625,-151.3179931640625 60.97999954223633,-141.43299865722656 C38.65999984741211,-132.8070068359375 25.55699920654297,-112.9020004272461 22.19499969482422,-99.54399871826172 C21.41699981689453,-96.45600128173828 21.378999710083008,-92.49400329589844 21.9689998626709,-90.7770004272461 C22.96299934387207,-87.87999725341797 24.613000869750977,-86.37799835205078 26.722999572753906,-86.68900299072266z"></path></g></g></g><g style="display: block;" transform="matrix(1,0,0,1,256,255.99998474121094)" opacity="0.4"><g opacity="1" transform="matrix(1,0,0,1,0,0)"><path fill="rgb(255,118,42)" fill-opacity="1" d=" M48.78499984741211,21.114999771118164 C48.78499984741211,21.114999771118164 76.97699737548828,89.53500366210938 76.97699737548828,89.53500366210938 C79.46700286865234,88.07499694824219 93.75399780273438,86.51399993896484 98.91699981689453,96.32499694824219 C116.25,91.91699981689453 129.75100708007812,106.05699920654297 129.16700744628906,121.78500366210938 C131.98699951171875,123.36499786376953 134.4770050048828,125.41500091552734 136.53700256347656,127.81500244140625 C112.24700164794922,154.0449981689453 79.5,175.88600158691406 40.277000427246094,179.4550018310547 C35.387001037597656,178.47500610351562 30.756999969482422,176.40499877929688 26.677000045776367,173.2949981689453 C19.636999130249023,167.9250030517578 15.677000045776367,159.18299865722656 14.937000274658203,150.36500549316406 C13.741000175476074,136.10699462890625 21.156999588012695,123.8550033569336 32.06700134277344,116.95500183105469 C32.207000732421875,116.8550033569336 33.617000579833984,115.99500274658203 35.766998291015625,114.99500274658203 C33.41600036621094,106.75 37.25699996948242,99.7750015258789 40.50699996948242,96.34500122070312 C40.50699996948242,96.34500122070312 41.375,23.825000762939453 41.375,23.825000762939453 C41.46900177001953,18.326000213623047 46.15599822998047,17.125 48.78499984741211,21.114999771118164z"></path></g></g><g style="display: block;" transform="matrix(1,0,0,1,256,255.99998474121094)" opacity="0.4"><g opacity="1" transform="matrix(1,0,0,1,0,0)"><path fill="rgb(255,118,42)" fill-opacity="1" d=" M-17.60300064086914,155.61500549316406 C-18.150999069213867,162.88600158691406 -22.982999801635742,170.8350067138672 -29.51300048828125,175.72500610351562 C-33.83300018310547,178.96499633789062 -38.8129997253418,180.93499755859375 -44.02299880981445,181.5850067138672 C-93.10399627685547,170.68099975585938 -129.88299560546875,119.32499694824219 -129.91299438476562,118.375 C-130.2030029296875,105.63500213623047 -114.35800170898438,91 -99.61299896240234,96.03500366210938 C-96.63300323486328,90.31500244140625 -88.375,83.625 -77.19300079345703,89.42500305175781 C-77.19300079345703,89.42500305175781 -48.57600021362305,20.385000228881836 -48.57600021362305,20.385000228881836 C-47.59400177001953,18.44499969482422 -45.520999908447266,18.32699966430664 -44.51599884033203,18.44499969482422 C-43.43000030517578,18.572999954223633 -41.23500061035156,19.3439998626709 -41.19599914550781,23.155000686645508 C-41.19599914550781,23.155000686645508 -40.733001708984375,96.26499938964844 -40.733001708984375,96.26499938964844 C-38.77299880981445,98.36499786376953 -37.303001403808594,100.88500213623047 -36.44300079345703,103.65499877929688 C-28.322999954223633,105.66500091552734 -22.19300079345703,112.8949966430664 -21.993000030517578,121.65499877929688 C-21.89299964904785,125.73500061035156 -23.113000869750977,129.5449981689453 -25.232999801635742,132.69500732421875 C-23.788999557495117,133.86399841308594 -22.427000045776367,135.72999572753906 -21.261999130249023,138.00799560546875 C-18.756000518798828,142.90899658203125 -17.159000396728516,149.718994140625 -17.60300064086914,155.61500549316406z"></path></g></g><g style="display: block;" transform="matrix(1,0,0,1,256,256)" opacity="1"><g opacity="0.6" transform="matrix(1,0,0,1,0,0)"><path fill="rgb(255,173,0)" fill-opacity="1" d=" M0,18.326000213623047 C-68.8030014038086,18.326000213623047 -115.76799774169922,61.2130012512207 -108.64700317382812,71.49700164794922 C-104.66600036621094,77.24600219726562 -74.24299621582031,35.51599884033203 -0.10199999809265137,35.51599884033203 C74.03900146484375,35.51599884033203 104.11599731445312,76.822998046875 108.64700317382812,71.49700164794922 C116.67500305175781,62.0620002746582 68.8030014038086,18.326000213623047 0,18.326000213623047z"></path></g><g opacity="1" transform="matrix(1,0,0,1,0,0)"><path fill="rgb(255,225,156)" fill-opacity="1" d=" M0,29.326000213623047 C-68.8030014038086,29.326000213623047 -112.31800079345703,65.54499816894531 -108.64700317382812,71.49700164794922 C-101.38899993896484,83.26200103759766 -74.24299621582031,45.51599884033203 -0.10199999809265137,45.51599884033203 C74.03900146484375,45.51599884033203 102.22100067138672,83.875 108.64700317382812,71.49700164794922 C111.86900329589844,65.29100036621094 68.8030014038086,29.326000213623047 0,29.326000213623047z"></path></g><g opacity="1" transform="matrix(1,0,0,1,0,0)"><path fill="rgb(143,58,0)" fill-opacity="1" d=" M0,24.326000213623047 C-68.8030014038086,24.326000213623047 -112.24500274658203,65.5009994506836 -108.64700317382812,71.49700164794922 C-105.04900360107422,77.49299621582031 -74.24299621582031,41.51599884033203 -0.10199999809265137,41.51599884033203 C74.03900146484375,41.51599884033203 105.04900360107422,77.49299621582031 108.64700317382812,71.49700164794922 C112.24500274658203,65.5009994506836 68.8030014038086,24.326000213623047 0,24.326000213623047z"></path></g><g opacity="1" transform="matrix(1,0,0,1,0,0)"><path fill="rgb(107,32,0)" fill-opacity="1" d=" M108.6510009765625,71.5 C108.39099884033203,71.93000030517578 107.98100280761719,72.13999938964844 107.44100189208984,72.16000366210938 C99.5510025024414,60.02000045776367 59.14099884033203,30.329999923706055 0.0010000000474974513,30.329999923706055 C-59.138999938964844,30.329999923706055 -99.54900360107422,60.0099983215332 -107.43900299072266,72.16000366210938 C-107.98899841308594,72.13999938964844 -108.38800048828125,71.93000030517578 -108.64800262451172,71.5 C-112.24800109863281,65.5 -68.79900360107422,24.329999923706055 0.0010000000474974513,24.329999923706055 C68.8010025024414,24.329999923706055 112.24099731445312,65.5 108.6510009765625,71.5z"></path></g></g><g style="display: block;" transform="matrix(0.9462400078773499,0,0,1.0385099649429321,258.16632080078125,255.50782775878906)" opacity="1"><g opacity="1" transform="matrix(1,0,0,1,0,0)"><path fill="rgb(248,253,255)" fill-opacity="1" d=" M62.21699905395508,112.24400329589844 C62.21699905395508,112.24400329589844 40.29600143432617,12.779999732971191 40.29600143432617,12.779999732971191 C40.29600143432617,12.779999732971191 96.97599792480469,105.55799865722656 96.97599792480469,105.55799865722656"></path></g><g opacity="1" transform="matrix(1,0,0,1,0,0)"><path stroke-linecap="round" stroke-linejoin="round" fill-opacity="0" stroke="rgb(152,198,240)" stroke-opacity="1" stroke-width="8" d=" M62.21699905395508,112.24400329589844 C62.21699905395508,112.24400329589844 40.29600143432617,12.779999732971191 40.29600143432617,12.779999732971191 C40.29600143432617,12.779999732971191 96.97599792480469,105.55799865722656 96.97599792480469,105.55799865722656"></path></g><g opacity="1" transform="matrix(1,0,0,1,0,0)"><path stroke-linecap="round" stroke-linejoin="round" fill-opacity="0" stroke="rgb(169,214,249)" stroke-opacity="1" stroke-width="8" d=" M40.29600143432617,12.779999732971191 C40.29600143432617,12.779999732971191 96.97599792480469,105.55799865722656 96.97599792480469,105.55799865722656"></path></g></g><g style="display: block;" transform="matrix(1,0,0,1,256,255.99998474121094)" opacity="1"><g opacity="1" transform="matrix(1,0,0,1,0,0)"><g opacity="1" transform="matrix(1,0,0,1,0,0)"><path fill="rgb(208,240,255)" fill-opacity="1" d=" M65.93800354003906,173.58399963378906 C65.93800354003906,181.13600158691406 72.05999755859375,187.25900268554688 79.61199951171875,187.25900268554688 C87.16400146484375,187.25900268554688 93.28700256347656,181.13600158691406 93.28700256347656,173.58399963378906 C93.28700256347656,166.03199768066406 87.16400146484375,159.91000366210938 79.61199951171875,159.91000366210938 C72.05999755859375,159.91000366210938 65.93800354003906,166.03199768066406 65.93800354003906,173.58399963378906z"></path><path stroke-linecap="butt" stroke-linejoin="miter" fill-opacity="0" stroke-miterlimit="10" stroke="rgb(152,198,240)" stroke-opacity="1" stroke-width="8" d=" M65.93800354003906,173.58399963378906 C65.93800354003906,181.13600158691406 72.05999755859375,187.25900268554688 79.61199951171875,187.25900268554688 C87.16400146484375,187.25900268554688 93.28700256347656,181.13600158691406 93.28700256347656,173.58399963378906 C93.28700256347656,166.03199768066406 87.16400146484375,159.91000366210938 79.61199951171875,159.91000366210938 C72.05999755859375,159.91000366210938 65.93800354003906,166.03199768066406 65.93800354003906,173.58399963378906z"></path></g><g opacity="1" transform="matrix(1,0,0,1,0,0)"><path fill="rgb(248,253,255)" fill-opacity="1" d=" M39.38100051879883,151.26400756835938 C39.38100051879883,143.00100708007812 40.29600143432617,129 60.19499969482422,120.68099975585938 C50.73400115966797,101.03800201416016 61.119998931884766,95.15799713134766 72.02200317382812,93.77300262451172 C75.59400177001953,93.31900024414062 79.22100067138672,93.3479995727539 82.2239990234375,93.53399658203125 C84.53500366210938,93.677001953125 86.47599792480469,93.91200256347656 87.73799896240234,94.09200286865234 C88.73300170898438,94.23400115966797 89.30599975585938,94.34100341796875 89.30599975585938,94.34100341796875 C89.47699737548828,94.08000183105469 89.58699798583984,93.93499755859375 89.58699798583984,93.93499755859375 C91.68499755859375,91.03199768066406 95.0989990234375,89.14299774169922 98.9540023803711,89.14299774169922 C104.87200164794922,89.14299774169922 108.9489974975586,92.177001953125 111.34300231933594,99.33399963378906 C113.80000305175781,97.41999816894531 117.052001953125,96.16699981689453 120.94300079345703,96.16699981689453 C131.4949951171875,96.16699981689453 140.0489959716797,104.72000122070312 140.0489959716797,115.27200317382812 C140.0489959716797,117.08100128173828 139.781005859375,118.8239974975586 139.31100463867188,120.48300170898438 C148.28500366210938,123.76000213623047 154.6909942626953,132.3719940185547 154.6909942626953,142.47999572753906 C154.6909942626953,155.41000366210938 144.2100067138672,165.89199829101562 131.27999877929688,165.89199829101562 C128.71200561523438,165.89199829101562 126.24299621582031,165.47300720214844 123.93099975585938,164.70899963378906 C124.00299835205078,165.3990020751953 124.04299926757812,166.09800720214844 124.04299926757812,166.8070068359375 C124.04299926757812,177.86399841308594 115.0790023803711,186.8280029296875 104.02200317382812,186.8280029296875 C93.677001953125,186.8280029296875 85.16699981689453,178.9810028076172 84.11399841308594,168.91400146484375 C84.11399841308594,168.91400146484375 84.04399871826172,168.23699951171875 84.01899719238281,167.2530059814453 C84.01899719238281,167.2530059814453 84.11900329589844,165.8780059814453 84.11900329589844,165.8780059814453 C61.59000015258789,185.66600036621094 39.38100051879883,166.41799926757812 39.38100051879883,151.26400756835938z"></path></g><g opacity="1" transform="matrix(1,0,0,1,0,0)"><g opacity="1" transform="matrix(1,0,0,1,0,0)"><path fill="rgb(208,240,255)" fill-opacity="1" d=" M42.74800109863281,134.75599670410156 C42.13100051879883,137.6280059814453 42.02799987792969,140.66000366210938 42.54100036621094,143.73300170898438 C44.72200012207031,156.79200744628906 57.07500076293945,165.61000061035156 70.13400268554688,163.4290008544922 C82.66300201416016,161.33700561523438 91.28199768066406,149.87899780273438 90.03500366210938,137.4199981689453 C90.88800048828125,139.3769989013672 91.5199966430664,141.46800231933594 91.88800048828125,143.66900634765625 C93.30599975585938,152.16200256347656 90.51699829101562,160.38299560546875 85.0469970703125,166.21099853515625 C87.31999969482422,172.33200073242188 93.39099884033203,176.71800231933594 100.53900146484375,176.71800231933594 C109.62899780273438,176.71800231933594 116.9990005493164,169.63400268554688 116.9990005493164,160.89500427246094 C116.9990005493164,158.3470001220703 116.35700225830078,155.94700622558594 115.24400329589844,153.81500244140625 C115.8290023803711,154.32699584960938 116.37799835205078,154.87899780273438 116.89600372314453,155.45899963378906 C118.19599914550781,155.76400756835938 119.54900360107422,155.93499755859375 120.94300079345703,155.93499755859375 C130.74899291992188,155.93499755859375 138.697998046875,147.98599243164062 138.697998046875,138.17999267578125 C138.697998046875,133.06900024414062 136.53399658203125,128.468994140625 133.07699584960938,125.23300170898438 C129.82000732421875,129.1719970703125 124.89600372314453,131.68299865722656 119.38500213623047,131.68299865722656 C116.37899780273438,131.68299865722656 113.552001953125,130.92999267578125 111.07099914550781,129.61199951171875 C112.08899688720703,129.83700561523438 113.14299774169922,129.96400451660156 114.22799682617188,129.96400451660156 C122.28299713134766,129.96400451660156 128.81399536132812,123.43399810791016 128.81399536132812,115.37899780273438 C128.81399536132812,107.3239974975586 122.28299713134766,100.79299926757812 114.22799682617188,100.79299926757812 C112.927001953125,100.79299926757812 111.6729965209961,100.97899627685547 110.4739990234375,101.30000305175781 C110.15699768066406,107.3949966430664 105.12799835205078,112.24400329589844 98.9540023803711,112.24400329589844 C95.58000183105469,112.24400329589844 92.55400085449219,110.78800201416016 90.44200134277344,108.48100280761719 C91.98300170898438,109.6760025024414 93.91200256347656,110.39399719238281 96.01300048828125,110.39399719238281 C99.89800262451172,110.39399719238281 103.20500183105469,107.95700073242188 104.51399993896484,104.53299713134766 C104.38600158691406,104.64700317382812 104.2509994506836,104.75299835205078 104.12799835205078,104.87200164794922 C104.31800079345703,104.552001953125 104.51799774169922,104.23899841308594 104.72699737548828,103.93299865722656 C104.98100280761719,103.09500122070312 105.12100219726562,102.20700073242188 105.12100219726562,101.28600311279297 C105.12100219726562,96.25599670410156 101.04299926757812,92.177001953125 96.01300048828125,92.177001953125 C92.61499786376953,92.177001953125 89.65799713134766,94.04100036621094 88.09200286865234,96.79900360107422 C89.69200134277344,92.33899688720703 93.94400024414062,89.14299774169922 98.9540023803711,89.14299774169922 C104.64199829101562,89.14299774169922 109.35800170898438,93.25800323486328 110.31600189208984,98.6709976196289 C112.96900177001953,97.08399963378906 116.06700134277344,96.16699981689453 119.38500213623047,96.16699981689453 C129.1929931640625,96.16699981689453 137.14300537109375,104.11699676513672 137.14300537109375,113.92500305175781 C137.14300537109375,115.90899658203125 136.8040008544922,117.80999755859375 136.20399475097656,119.59200286865234 C146.7689971923828,121.85399627685547 154.6909942626953,131.24000549316406 154.6909942626953,142.47999572753906 C154.6909942626953,155.41000366210938 144.2100067138672,165.89199829101562 131.27999877929688,165.89199829101562 C127.65699768066406,165.89199829101562 124.22899627685547,165.06399536132812 121.16799926757812,163.593994140625 C121.50599670410156,165.0019989013672 121.69100189208984,166.47000122070312 121.69100189208984,167.98300170898438 C121.69100189208984,178.39100646972656 113.25399780273438,186.8280029296875 102.84600067138672,186.8280029296875 C92.43800354003906,186.8280029296875 84.0009994506836,178.39100646972656 84.0009994506836,167.98300170898438 C84.0009994506836,167.72799682617188 84.03099822998047,167.48199462890625 84.04100036621094,167.22999572753906 C80.32499694824219,170.78399658203125 75.54100036621094,173.3000030517578 70.08699798583984,174.21099853515625 C55.632999420166016,176.625 41.959999084472656,166.86399841308594 39.54600143432617,152.41000366210938 C38.48899841308594,146.08299255371094 39.76599884033203,139.90499877929688 42.74800109863281,134.75599670410156z"></path></g><g opacity="1" transform="matrix(1,0,0,1,0,0)"><path fill="rgb(208,240,255)" fill-opacity="1" d=" M68.76599884033203,123.25800323486328 C60.35200119018555,123.25800323486328 53.53099822998047,116.43699645996094 53.53099822998047,108.02300262451172 C53.53099822998047,103.29299926757812 55.6870002746582,99.06600189208984 59.069000244140625,96.27200317382812 C57.834999084472656,98.40499877929688 57.11600112915039,100.8740005493164 57.11600112915039,103.51499938964844 C57.11600112915039,111.5199966430664 63.606998443603516,118.01000213623047 71.61199951171875,118.01000213623047 C76.5469970703125,118.01000213623047 80.89900207519531,115.54000091552734 83.51699829101562,111.77300262451172 C81.84400177001953,118.37000274658203 75.88400268554688,123.25800323486328 68.76599884033203,123.25800323486328z"></path></g></g><g opacity="1" transform="matrix(1,0,0,1,0,0)"><path stroke-linecap="round" stroke-linejoin="round" fill-opacity="0" stroke="rgb(168,214,249)" stroke-opacity="1" stroke-width="8" d=" M123.93099975585938,164.70899963378906 C126.24299621582031,165.47300720214844 128.71200561523438,165.89199829101562 131.27999877929688,165.89199829101562 C144.2100067138672,165.89199829101562 154.6909942626953,155.41000366210938 154.6909942626953,142.47999572753906 C154.6909942626953,132.3719940185547 148.28500366210938,123.76000213623047 139.31100463867188,120.48300170898438 C139.781005859375,118.82499694824219 140.0489959716797,117.08100128173828 140.0489959716797,115.27200317382812 C140.0489959716797,104.72000122070312 131.4949951171875,96.16699981689453 120.94300079345703,96.16699981689453 C117.052001953125,96.16699981689453 113.80000305175781,97.41999816894531 111.34300231933594,99.33399963378906 C108.9489974975586,92.177001953125 104.87200164794922,89.14299774169922 98.9540023803711,89.14299774169922 C95.0989990234375,89.14299774169922 91.68499755859375,91.03199768066406 89.58699798583984,93.93499755859375 C89.58699798583984,93.93499755859375 89.47699737548828,94.08000183105469 89.30599975585938,94.34100341796875"></path></g><g opacity="1" transform="matrix(1,0,0,1,0,0)"><path stroke-linecap="round" stroke-linejoin="round" fill-opacity="0" stroke="rgb(152,198,240)" stroke-opacity="1" stroke-width="8" d=" M61.71900177001953,94.51200103759766 C56.85200119018555,97.05599975585938 53.53099822998047,102.1510009765625 53.53099822998047,108.02300262451172 C53.53099822998047,111.12699890136719 54.4640007019043,114.01000213623047 56.05799865722656,116.41799926757812 C56.05799865722656,116.41799926757812 57.952999114990234,119.67900085449219 61.14799880981445,121.21499633789062 C61.14799880981445,121.21499633789062 54.91400146484375,123.25800323486328 50.81999969482422,126.08399963378906 C44.167999267578125,130.6750030517578 37.784000396728516,141.85699462890625 39.54600143432617,152.41000366210938 C41.959999084472656,166.86399841308594 55.632999420166016,176.625 70.08699798583984,174.21099853515625 C74.93000030517578,173.40199279785156 80.60600280761719,170.6439971923828 84.0009994506836,166.8070068359375 C84.0009994506836,166.8070068359375 84.01899719238281,167.2530059814453 84.01899719238281,167.2530059814453 C84.04399871826172,168.23699951171875 84.11399841308594,168.91400146484375 84.11399841308594,168.91400146484375 C85.16699981689453,178.97999572753906 93.677001953125,186.8280029296875 104.02200317382812,186.8280029296875 C115.0790023803711,186.8280029296875 126.125,179.4550018310547 123.53099822998047,164.572998046875"></path></g></g></g><g style="display: block;" transform="matrix(-0.9462400078773499,0,0,1.0385099649429321,253.83367919921875,255.50782775878906)" opacity="1"><g opacity="1" transform="matrix(1,0,0,1,0,0)"><path fill="rgb(248,253,255)" fill-opacity="1" d=" M62.21699905395508,112.24400329589844 C62.21699905395508,112.24400329589844 40.29600143432617,12.779999732971191 40.29600143432617,12.779999732971191 C40.29600143432617,12.779999732971191 96.97599792480469,105.55799865722656 96.97599792480469,105.55799865722656"></path></g><g opacity="1" transform="matrix(1,0,0,1,0,0)"><path stroke-linecap="round" stroke-linejoin="round" fill-opacity="0" stroke="rgb(169,214,249)" stroke-opacity="1" stroke-width="8" d=" M62.21699905395508,112.24400329589844 C62.21699905395508,112.24400329589844 40.29600143432617,12.779999732971191 40.29600143432617,12.779999732971191 C40.29600143432617,12.779999732971191 96.97599792480469,105.55799865722656 96.97599792480469,105.55799865722656"></path></g><g opacity="1" transform="matrix(1,0,0,1,0,0)"><path stroke-linecap="round" stroke-linejoin="round" fill-opacity="0" stroke="rgb(152,198,240)" stroke-opacity="1" stroke-width="8" d=" M40.29600143432617,12.779999732971191 C40.29600143432617,12.779999732971191 96.97599792480469,105.55799865722656 96.97599792480469,105.55799865722656"></path></g></g><g style="display: block;" transform="matrix(-1,0,0,1,256,255.99998474121094)" opacity="1"><g opacity="1" transform="matrix(1,0,0,1,0,0)"><g opacity="1" transform="matrix(1,0,0,1,-29.25,-54.25)"><path fill="rgb(208,240,255)" fill-opacity="1" d=" M67.6969985961914,177.08399963378906 C67.6969985961914,186.42599487304688 75.2699966430664,194 84.61199951171875,194 C93.9540023803711,194 101.52799987792969,186.42599487304688 101.52799987792969,177.08399963378906 C101.52799987792969,167.74200439453125 93.9540023803711,160.16900634765625 84.61199951171875,160.16900634765625 C75.2699966430664,160.16900634765625 67.6969985961914,167.74200439453125 67.6969985961914,177.08399963378906z"></path><path stroke-linecap="butt" stroke-linejoin="miter" fill-opacity="0" stroke-miterlimit="10" stroke="rgb(169,214,249)" stroke-opacity="1" stroke-width="8" d=" M67.6969985961914,177.08399963378906 C67.6969985961914,186.42599487304688 75.2699966430664,194 84.61199951171875,194 C93.9540023803711,194 101.52799987792969,186.42599487304688 101.52799987792969,177.08399963378906 C101.52799987792969,167.74200439453125 93.9540023803711,160.16900634765625 84.61199951171875,160.16900634765625 C75.2699966430664,160.16900634765625 67.6969985961914,167.74200439453125 67.6969985961914,177.08399963378906z"></path></g><g opacity="1" transform="matrix(1,0,0,1,45,-6.75)"><path fill="rgb(208,240,255)" fill-opacity="1" d=" M72.02799987792969,176.08399963378906 C72.02799987792969,181.6529998779297 76.54299926757812,186.16900634765625 82.11199951171875,186.16900634765625 C87.68099975585938,186.16900634765625 92.1969985961914,181.6529998779297 92.1969985961914,176.08399963378906 C92.1969985961914,170.51499938964844 87.68099975585938,166 82.11199951171875,166 C76.54299926757812,166 72.02799987792969,170.51499938964844 72.02799987792969,176.08399963378906z"></path><path stroke-linecap="butt" stroke-linejoin="miter" fill-opacity="0" stroke-miterlimit="10" stroke="rgb(152,198,240)" stroke-opacity="1" stroke-width="8" d=" M72.02799987792969,176.08399963378906 C72.02799987792969,181.6529998779297 76.54299926757812,186.16900634765625 82.11199951171875,186.16900634765625 C87.68099975585938,186.16900634765625 92.1969985961914,181.6529998779297 92.1969985961914,176.08399963378906 C92.1969985961914,170.51499938964844 87.68099975585938,166 82.11199951171875,166 C76.54299926757812,166 72.02799987792969,170.51499938964844 72.02799987792969,176.08399963378906z"></path></g><g opacity="1" transform="matrix(1,0,0,1,0,0)"><path fill="rgb(208,240,255)" fill-opacity="1" d=" M65.93800354003906,173.58399963378906 C65.93800354003906,181.13600158691406 72.05999755859375,187.25900268554688 79.61199951171875,187.25900268554688 C87.16400146484375,187.25900268554688 93.28700256347656,181.13600158691406 93.28700256347656,173.58399963378906 C93.28700256347656,166.03199768066406 87.16400146484375,159.91000366210938 79.61199951171875,159.91000366210938 C72.05999755859375,159.91000366210938 65.93800354003906,166.03199768066406 65.93800354003906,173.58399963378906z"></path><path stroke-linecap="butt" stroke-linejoin="miter" fill-opacity="0" stroke-miterlimit="10" stroke="rgb(169,214,249)" stroke-opacity="1" stroke-width="8" d=" M65.93800354003906,173.58399963378906 C65.93800354003906,181.13600158691406 72.05999755859375,187.25900268554688 79.61199951171875,187.25900268554688 C87.16400146484375,187.25900268554688 93.28700256347656,181.13600158691406 93.28700256347656,173.58399963378906 C93.28700256347656,166.03199768066406 87.16400146484375,159.91000366210938 79.61199951171875,159.91000366210938 C72.05999755859375,159.91000366210938 65.93800354003906,166.03199768066406 65.93800354003906,173.58399963378906z"></path></g><g opacity="1" transform="matrix(1,0,0,1,0,0)"><path fill="rgb(248,253,255)" fill-opacity="1" d=" M39.38100051879883,151.26400756835938 C39.38100051879883,143.00100708007812 40.29600143432617,129 60.19499969482422,120.68099975585938 C50.73400115966797,101.03800201416016 61.119998931884766,95.15799713134766 72.02200317382812,93.77300262451172 C75.59400177001953,93.31900024414062 79.22100067138672,93.3479995727539 82.2239990234375,93.53399658203125 C84.53500366210938,93.677001953125 86.47599792480469,93.91200256347656 87.73799896240234,94.09200286865234 C88.73300170898438,94.23400115966797 89.30599975585938,94.34100341796875 89.30599975585938,94.34100341796875 C89.47699737548828,94.08000183105469 89.58699798583984,93.93499755859375 89.58699798583984,93.93499755859375 C91.68499755859375,91.03199768066406 95.0989990234375,89.14299774169922 98.9540023803711,89.14299774169922 C104.87200164794922,89.14299774169922 108.9489974975586,92.177001953125 111.34300231933594,99.33399963378906 C113.80000305175781,97.41999816894531 117.052001953125,96.16699981689453 120.94300079345703,96.16699981689453 C131.4949951171875,96.16699981689453 140.0489959716797,104.72000122070312 140.0489959716797,115.27200317382812 C140.0489959716797,117.08100128173828 139.781005859375,118.8239974975586 139.31100463867188,120.48300170898438 C148.28500366210938,123.76000213623047 154.6909942626953,132.3719940185547 154.6909942626953,142.47999572753906 C154.6909942626953,155.41000366210938 144.2100067138672,165.89199829101562 131.27999877929688,165.89199829101562 C128.71200561523438,165.89199829101562 126.24299621582031,165.47300720214844 123.93099975585938,164.70899963378906 C124.00299835205078,165.3990020751953 124.04299926757812,166.09800720214844 124.04299926757812,166.8070068359375 C124.04299926757812,177.86399841308594 115.0790023803711,186.8280029296875 104.02200317382812,186.8280029296875 C93.677001953125,186.8280029296875 85.16699981689453,178.9810028076172 84.11399841308594,168.91400146484375 C84.11399841308594,168.91400146484375 84.04399871826172,168.23699951171875 84.01899719238281,167.2530059814453 C84.01899719238281,167.2530059814453 84.11900329589844,165.8780059814453 84.11900329589844,165.8780059814453 C61.59000015258789,185.66600036621094 39.38100051879883,166.41799926757812 39.38100051879883,151.26400756835938z"></path></g><g opacity="1" transform="matrix(1,0,0,1,0,0)"><g opacity="1" transform="matrix(1,0,0,1,0,0)"><path fill="rgb(208,240,255)" fill-opacity="1" d=" M42.74800109863281,134.75599670410156 C42.13100051879883,137.6280059814453 42.02799987792969,140.66000366210938 42.54100036621094,143.73300170898438 C44.72200012207031,156.79200744628906 57.07500076293945,165.61000061035156 70.13400268554688,163.4290008544922 C82.66300201416016,161.33700561523438 91.28199768066406,149.87899780273438 90.03500366210938,137.4199981689453 C90.88800048828125,139.3769989013672 91.5199966430664,141.46800231933594 91.88800048828125,143.66900634765625 C93.30599975585938,152.16200256347656 90.51699829101562,160.38299560546875 85.0469970703125,166.21099853515625 C87.31999969482422,172.33200073242188 93.39099884033203,176.71800231933594 100.53900146484375,176.71800231933594 C109.62899780273438,176.71800231933594 116.9990005493164,169.63400268554688 116.9990005493164,160.89500427246094 C116.9990005493164,158.3470001220703 116.35700225830078,155.94700622558594 115.24400329589844,153.81500244140625 C115.8290023803711,154.32699584960938 116.37799835205078,154.87899780273438 116.89600372314453,155.45899963378906 C118.19599914550781,155.76400756835938 119.54900360107422,155.93499755859375 120.94300079345703,155.93499755859375 C130.74899291992188,155.93499755859375 138.697998046875,147.98599243164062 138.697998046875,138.17999267578125 C138.697998046875,133.06900024414062 136.53399658203125,128.468994140625 133.07699584960938,125.23300170898438 C129.82000732421875,129.1719970703125 124.89600372314453,131.68299865722656 119.38500213623047,131.68299865722656 C116.37899780273438,131.68299865722656 113.552001953125,130.92999267578125 111.07099914550781,129.61199951171875 C112.08899688720703,129.83700561523438 113.14299774169922,129.96400451660156 114.22799682617188,129.96400451660156 C122.28299713134766,129.96400451660156 128.81399536132812,123.43399810791016 128.81399536132812,115.37899780273438 C128.81399536132812,107.3239974975586 122.28299713134766,100.79299926757812 114.22799682617188,100.79299926757812 C112.927001953125,100.79299926757812 111.6729965209961,100.97899627685547 110.4739990234375,101.30000305175781 C110.15699768066406,107.3949966430664 105.12799835205078,112.24400329589844 98.9540023803711,112.24400329589844 C95.58000183105469,112.24400329589844 92.55400085449219,110.78800201416016 90.44200134277344,108.48100280761719 C91.98300170898438,109.6760025024414 93.91200256347656,110.39399719238281 96.01300048828125,110.39399719238281 C99.89800262451172,110.39399719238281 103.20500183105469,107.95700073242188 104.51399993896484,104.53299713134766 C104.38600158691406,104.64700317382812 104.2509994506836,104.75299835205078 104.12799835205078,104.87200164794922 C104.31800079345703,104.552001953125 104.51799774169922,104.23899841308594 104.72699737548828,103.93299865722656 C104.98100280761719,103.09500122070312 105.12100219726562,102.20700073242188 105.12100219726562,101.28600311279297 C105.12100219726562,96.25599670410156 101.04299926757812,92.177001953125 96.01300048828125,92.177001953125 C92.61499786376953,92.177001953125 89.65799713134766,94.04100036621094 88.09200286865234,96.79900360107422 C89.69200134277344,92.33899688720703 93.94400024414062,89.14299774169922 98.9540023803711,89.14299774169922 C104.64199829101562,89.14299774169922 109.35800170898438,93.25800323486328 110.31600189208984,98.6709976196289 C112.96900177001953,97.08399963378906 116.06700134277344,96.16699981689453 119.38500213623047,96.16699981689453 C129.1929931640625,96.16699981689453 137.14300537109375,104.11699676513672 137.14300537109375,113.92500305175781 C137.14300537109375,115.90899658203125 136.8040008544922,117.80999755859375 136.20399475097656,119.59200286865234 C146.7689971923828,121.85399627685547 154.6909942626953,131.24000549316406 154.6909942626953,142.47999572753906 C154.6909942626953,155.41000366210938 144.2100067138672,165.89199829101562 131.27999877929688,165.89199829101562 C127.65699768066406,165.89199829101562 124.22899627685547,165.06399536132812 121.16799926757812,163.593994140625 C121.50599670410156,165.0019989013672 121.69100189208984,166.47000122070312 121.69100189208984,167.98300170898438 C121.69100189208984,178.39100646972656 113.25399780273438,186.8280029296875 102.84600067138672,186.8280029296875 C92.43800354003906,186.8280029296875 84.0009994506836,178.39100646972656 84.0009994506836,167.98300170898438 C84.0009994506836,167.72799682617188 84.03099822998047,167.48199462890625 84.04100036621094,167.22999572753906 C80.32499694824219,170.78399658203125 75.54100036621094,173.3000030517578 70.08699798583984,174.21099853515625 C55.632999420166016,176.625 41.959999084472656,166.86399841308594 39.54600143432617,152.41000366210938 C38.48899841308594,146.08299255371094 39.76599884033203,139.90499877929688 42.74800109863281,134.75599670410156z"></path></g><g opacity="1" transform="matrix(1,0,0,1,0,0)"><path fill="rgb(208,240,255)" fill-opacity="1" d=" M68.76599884033203,123.25800323486328 C60.35200119018555,123.25800323486328 53.53099822998047,116.43699645996094 53.53099822998047,108.02300262451172 C53.53099822998047,103.29299926757812 55.6870002746582,99.06600189208984 59.069000244140625,96.27200317382812 C57.834999084472656,98.40499877929688 57.11600112915039,100.8740005493164 57.11600112915039,103.51499938964844 C57.11600112915039,111.5199966430664 63.606998443603516,118.01000213623047 71.61199951171875,118.01000213623047 C76.5469970703125,118.01000213623047 80.89900207519531,115.54000091552734 83.51699829101562,111.77300262451172 C81.84400177001953,118.37000274658203 75.88400268554688,123.25800323486328 68.76599884033203,123.25800323486328z"></path></g></g><g opacity="1" transform="matrix(1,0,0,1,0,0)"><path stroke-linecap="round" stroke-linejoin="round" fill-opacity="0" stroke="rgb(152,198,240)" stroke-opacity="1" stroke-width="8" d=" M123.93099975585938,164.70899963378906 C126.24299621582031,165.47300720214844 128.71200561523438,165.89199829101562 131.27999877929688,165.89199829101562 C144.2100067138672,165.89199829101562 154.6909942626953,155.41000366210938 154.6909942626953,142.47999572753906 C154.6909942626953,132.3719940185547 148.28500366210938,123.76000213623047 139.31100463867188,120.48300170898438 C139.781005859375,118.82499694824219 140.0489959716797,117.08100128173828 140.0489959716797,115.27200317382812 C140.0489959716797,104.72000122070312 131.4949951171875,96.16699981689453 120.94300079345703,96.16699981689453 C117.052001953125,96.16699981689453 113.80000305175781,97.41999816894531 111.34300231933594,99.33399963378906 C108.9489974975586,92.177001953125 104.87200164794922,89.14299774169922 98.9540023803711,89.14299774169922 C95.0989990234375,89.14299774169922 91.68499755859375,91.03199768066406 89.58699798583984,93.93499755859375 C89.58699798583984,93.93499755859375 89.47699737548828,94.08000183105469 89.30599975585938,94.34100341796875"></path></g><g opacity="1" transform="matrix(1,0,0,1,0,0)"><path stroke-linecap="round" stroke-linejoin="round" fill-opacity="0" stroke="rgb(169,214,249)" stroke-opacity="1" stroke-width="8" d=" M61.71900177001953,94.51200103759766 C56.85200119018555,97.05599975585938 53.53099822998047,102.1510009765625 53.53099822998047,108.02300262451172 C53.53099822998047,111.12699890136719 54.4640007019043,114.01000213623047 56.05799865722656,116.41799926757812 C56.05799865722656,116.41799926757812 57.952999114990234,119.67900085449219 61.14799880981445,121.21499633789062 C61.14799880981445,121.21499633789062 54.91400146484375,123.25800323486328 50.81999969482422,126.08399963378906 C44.167999267578125,130.6750030517578 37.784000396728516,141.85699462890625 39.54600143432617,152.41000366210938 C41.959999084472656,166.86399841308594 55.632999420166016,176.625 70.08699798583984,174.21099853515625 C74.93000030517578,173.40199279785156 80.60600280761719,170.6439971923828 84.0009994506836,166.8070068359375 C84.0009994506836,166.8070068359375 84.01899719238281,167.2530059814453 84.01899719238281,167.2530059814453 C84.04399871826172,168.23699951171875 84.11399841308594,168.91400146484375 84.11399841308594,168.91400146484375 C85.16699981689453,178.97999572753906 93.677001953125,186.8280029296875 104.02200317382812,186.8280029296875 C115.0790023803711,186.8280029296875 126.125,179.4550018310547 123.53099822998047,164.572998046875"></path></g></g></g></g></svg>