<svg xmlns="http://www.w3.org/2000/svg" viewBox="0 0 512 512" width="512" height="512" style="width: 100%; height: 100%; transform: translate3d(0,0,0);" preserveAspectRatio="xMidYMid meet"><defs><clipPath id="__lottie_element_22537"><rect width="512" height="512" x="0" y="0"></rect></clipPath><linearGradient id="__lottie_element_22557" spreadMethod="pad" gradientUnits="userSpaceOnUse" x1="-44.30099868774414" y1="115.26899719238281" x2="-42.32600021362305" y2="214.9980010986328"><stop offset="0%" stop-color="rgb(251,57,130)"></stop><stop offset="25%" stop-color="rgb(253,102,170)"></stop><stop offset="52%" stop-color="rgb(255,147,209)"></stop><stop offset="80%" stop-color="rgb(250,73,162)"></stop><stop offset="100%" stop-color="rgb(245,0,116)"></stop></linearGradient></defs><g clip-path="url(#__lottie_element_22537)"><g style="display: block;" transform="matrix(1,0,0,1,256,256)" opacity="1"><g opacity="1" transform="matrix(0.9659258127212524,-0.258819043636322,0.258819043636322,0.9659258127212524,-2.0469789505004883,0.2776522636413574)"><g opacity="0.1" transform="matrix(1,0,0,1,0,0)"><path fill="rgb(0,0,0)" fill-opacity="1" d=" M190.43899536132812,57.35300064086914 C164.7100067138672,162.51300048828125 58.60499954223633,226.90499877929688 -46.55500030517578,201.17599487304688 C-77.4469985961914,193.6179962158203 -104.82099914550781,179.12399291992188 -127.42500305175781,159.7550048828125 C-141.697998046875,147.52499389648438 -154.07000732421875,133.3509979248047 -164.22500610351562,117.75299835205078 C-174.43699645996094,102.06800079345703 -182.4080047607422,84.94100189208984 -187.81700134277344,66.90299987792969 C-197.50900268554688,34.58100128173828 -198.9770050048828,-0.6710000038146973 -190.3780059814453,-35.81800079345703 C-164.6490020751953,-140.97799682617188 -58.54399871826172,-205.3699951171875 46.61600112915039,-179.64100646972656 C151.7760009765625,-153.91200256347656 216.16799926757812,-47.80699920654297 190.43899536132812,57.35300064086914z"></path></g><g opacity="1" transform="matrix(1,0,0,1,0,0)"><g opacity="1" transform="matrix(1,0,0,1,0,0)"><path fill="rgb(255,173,0)" fill-opacity="1" d=" M186.64100646972656,42.79399871826172 C161.8509979248047,144.1179962158203 59.61399841308594,206.16200256347656 -41.709999084472656,181.3719940185547 C-143.03399658203125,156.58200073242188 -205.07699584960938,54.345001220703125 -180.28700256347656,-46.979000091552734 C-155.4969940185547,-148.30299377441406 -53.2599983215332,-210.3459930419922 48.06399917602539,-185.55599975585938 C149.38800048828125,-160.76600646972656 211.43099975585938,-58.529998779296875 186.64100646972656,42.79399871826172z"></path><path stroke-linecap="butt" stroke-linejoin="miter" fill-opacity="0" stroke-miterlimit="10" stroke="rgb(255,118,42)" stroke-opacity="1" stroke-width="8" d=" M186.64100646972656,42.79399871826172 C161.8509979248047,144.1179962158203 59.61399841308594,206.16200256347656 -41.709999084472656,181.3719940185547 C-143.03399658203125,156.58200073242188 -205.07699584960938,54.345001220703125 -180.28700256347656,-46.979000091552734 C-155.4969940185547,-148.30299377441406 -53.2599983215332,-210.3459930419922 48.06399917602539,-185.55599975585938 C149.38800048828125,-160.76600646972656 211.43099975585938,-58.529998779296875 186.64100646972656,42.79399871826172z"></path></g><g opacity="1" transform="matrix(1,0,0,1,0,0)"><path fill="rgb(255,207,0)" fill-opacity="1" d=" M167.00799560546875,36.9119987487793 C143.00900268554688,128.8719940185547 50.6150016784668,184.38499450683594 -39.36000061035156,160.9040069580078 C-129.3350067138672,137.42300415039062 -182.8209991455078,43.84000015258789 -158.82200622558594,-48.119998931884766 C-134.822998046875,-140.0800018310547 -42.428001403808594,-195.59300231933594 47.547000885009766,-172.11199951171875 C137.52200317382812,-148.63099670410156 191.0070037841797,-55.04800033569336 167.00799560546875,36.9119987487793z"></path></g><g opacity="0.9" transform="matrix(1,0,0,1,0,0)"><path fill="rgb(255,222,102)" fill-opacity="1" d=" M158.6699981689453,-9.541999816894531 C141.406005859375,61.02000045776367 90.14700317382812,-10.680000305175781 10.071000099182129,-30.27199935913086 C-70.00499725341797,-49.86399841308594 -148.5760040283203,-9.928000450134277 -131.31199645996094,-80.48999786376953 C-114.0479965209961,-151.052001953125 -35.13800048828125,-192.3719940185547 44.9379997253418,-172.77999877929688 C125.01399993896484,-153.18800354003906 175.9340057373047,-80.10399627685547 158.6699981689453,-9.541999816894531z"></path></g><g opacity="1" transform="matrix(1,0,0,1,0,0)"><g opacity="1" transform="matrix(1,0,0,1,0,0)"><path stroke-linecap="round" stroke-linejoin="round" fill-opacity="0" stroke="rgb(255,255,255)" stroke-opacity="1" stroke-width="6" d=" M79.26599884033203,-160.03700256347656 C80.68000030517578,-159.3459930419922 82.14099884033203,-158.60800170898438 83.64199829101562,-157.822998046875"></path></g><g opacity="1" transform="matrix(1,0,0,1,0,0)"><path stroke-linecap="round" stroke-linejoin="round" fill-opacity="0" stroke="rgb(255,255,255)" stroke-opacity="1" stroke-width="6" d=" M59.28799819946289,-168.24000549316406 C59.28799819946289,-168.24000549316406 63.95399856567383,-166.8300018310547 71.1520004272461,-163.7530059814453"></path></g></g></g></g></g><g style="display: block;" transform="matrix(1,0,0,1,293.794677734375,266.5807189941406)" opacity="0.7000000000000001"><g opacity="1" transform="matrix(1,0,0,1,0,0)"><path fill="rgb(255,173,0)" fill-opacity="1" d=" M1.434999942779541,87.93699645996094 C1.434999942779541,87.93699645996094 10.571999549865723,157.8090057373047 3.0160000324249268,163.57200622558594 C-32.24100112915039,178.9739990234375 -87.03600311279297,168.30299377441406 -110.77200317382812,157.1490020751953 C-115.26300048828125,153.6230010986328 -116.31999969482422,152.84800720214844 -116.59700012207031,147.8459930419922 C-116.59700012207031,147.8459930419922 -119.54000091552734,94.62699890136719 -119.54000091552734,94.62699890136719 C-120.2249984741211,82.24600219726562 0.75,75.55599975585938 1.434999942779541,87.93699645996094z"></path></g></g><g style="display: block;" transform="matrix(0.9659258127212524,-0.258819043636322,0.258819043636322,0.9659258127212524,256.9526062011719,255.2772674560547)" opacity="1"><g opacity="0.9" transform="matrix(1,0,0,1,0,0)"><path fill="rgb(255,224,164)" fill-opacity="1" d=" M147.61900329589844,-44.790000915527344 C147.95599365234375,-9.208000183105469 117.90899658203125,19.92300033569336 80.50700378417969,20.277000427246094 C43.10499954223633,20.631000518798828 12.51200008392334,-7.925000190734863 12.175000190734863,-43.50699996948242 C11.838000297546387,-79.08899688720703 41.8849983215332,-108.22100067138672 79.28700256347656,-108.57499694824219 C116.68900299072266,-108.92900085449219 147.28199768066406,-80.37200164794922 147.61900329589844,-44.790000915527344z"></path></g><g opacity="1" transform="matrix(1,0,0,1,0,0)"><path fill="rgb(255,173,0)" fill-opacity="1" d=" M147.41099548339844,-66.78900146484375 C147.7480010986328,-31.207000732421875 117.70099639892578,-2.0759999752044678 80.29900360107422,-1.722000002861023 C42.89699935913086,-1.3680000305175781 12.303000450134277,-29.923999786376953 11.965999603271484,-65.50599670410156 C11.628999710083008,-101.08799743652344 41.67599868774414,-130.22000122070312 79.0780029296875,-130.57400512695312 C116.4800033569336,-130.92799377441406 147.07400512695312,-102.37100219726562 147.41099548339844,-66.78900146484375z"></path></g><g opacity="1" transform="matrix(1,0,0,1,0,0)"><path fill="rgb(209,209,209)" fill-opacity="1" d=" M144.218994140625,-55.75899887084961 C144.55599975585938,-20.177000045776367 115.98500061035156,8.940999984741211 80.40299987792969,9.277999877929688 C44.82099914550781,9.614999771118164 15.704000473022461,-18.95599937438965 15.366999626159668,-54.53799819946289 C15.029999732971191,-90.12000274658203 43.60100173950195,-119.23799896240234 79.18299865722656,-119.57499694824219 C114.76499938964844,-119.91200256347656 143.8820037841797,-91.34100341796875 144.218994140625,-55.75899887084961z"></path></g><g opacity="1" transform="matrix(1,0,0,1,0,0)"><path fill="rgb(236,236,237)" fill-opacity="1" d=" M131.18099975585938,-55.6349983215332 C131.4499969482422,-27.253999710083008 108.66100311279297,-4.0289998054504395 80.27999877929688,-3.759999990463257 C51.89899826049805,-3.490999937057495 28.673999786376953,-26.2810001373291 28.405000686645508,-54.6619987487793 C28.13599967956543,-83.04299926757812 50.92499923706055,-106.26799774169922 79.30599975585938,-106.53700256347656 C107.68699645996094,-106.80599975585938 130.91200256347656,-84.01599884033203 131.18099975585938,-55.6349983215332z"></path></g><g opacity="1" transform="matrix(1,0,0,1,0,0)"><path stroke-linecap="butt" stroke-linejoin="miter" fill-opacity="0" stroke-miterlimit="10" stroke="rgb(144,128,89)" stroke-opacity="1" stroke-width="8" d=" M144.218994140625,-55.75899887084961 C144.55599975585938,-20.177000045776367 115.98500061035156,8.940999984741211 80.40299987792969,9.277999877929688 C44.82099914550781,9.614999771118164 15.704000473022461,-18.95599937438965 15.366999626159668,-54.53799819946289 C15.029999732971191,-90.12000274658203 43.60100173950195,-119.23799896240234 79.18299865722656,-119.57499694824219 C114.76499938964844,-119.91200256347656 143.8820037841797,-91.34100341796875 144.218994140625,-55.75899887084961z"></path></g></g><g style="display: block;" transform="matrix(0.9659258127212524,-0.258819043636322,0.258819043636322,0.9659258127212524,256.9526062011719,255.2772674560547)" opacity="1"><g opacity="1" transform="matrix(1,0,0,1,0,0)"><path fill="rgb(1,1,1)" fill-opacity="1" d=" M89.78399658203125,-75.27300262451172 C89.89399719238281,-63.617000579833984 80.33399963378906,-54.07600021362305 68.43000030517578,-53.9630012512207 C56.5260009765625,-53.849998474121094 46.7859992980957,-63.20800018310547 46.67599868774414,-74.86399841308594 C46.566001892089844,-86.5199966430664 56.125999450683594,-96.06099700927734 68.02999877929688,-96.17400360107422 C79.93399810791016,-96.28700256347656 89.67400360107422,-86.92900085449219 89.78399658203125,-75.27300262451172z"></path></g><g opacity="1" transform="matrix(1,0,0,1,0,0)"><path stroke-linecap="round" stroke-linejoin="round" fill-opacity="0" stroke="rgb(255,255,255)" stroke-opacity="1" stroke-width="6" d=" M84.23200225830078,-83.41200256347656 C85.552001953125,-84.25299835205078 86.93599700927734,-85.11199951171875 88.37899780273438,-85.97899627685547"></path></g></g><g style="display: block;" transform="matrix(0.9659258127212524,-0.258819043636322,0.258819043636322,0.9659258127212524,256.9526062011719,255.2772674560547)" opacity="1"><g opacity="0.9" transform="matrix(1,0,0,1,0,0)"><path fill="rgb(255,224,164)" fill-opacity="1" d=" M-32.62799835205078,-31.94300079345703 C-32.400001525878906,-7.8480000495910645 -52.74599838256836,11.878999710083008 -78.0739974975586,12.119000434875488 C-103.4020004272461,12.359000205993652 -124.11900329589844,-6.980000019073486 -124.34700012207031,-31.075000762939453 C-124.57499694824219,-55.16999816894531 -104.22899627685547,-74.89700317382812 -78.9010009765625,-75.13700103759766 C-53.573001861572266,-75.37699890136719 -32.85599899291992,-56.03799819946289 -32.62799835205078,-31.94300079345703z"></path></g><g opacity="1" transform="matrix(1,0,0,1,0,0)"><path fill="rgb(255,173,0)" fill-opacity="1" d=" M-32.55699920654297,-50.5 C-32.32899856567383,-26.405000686645508 -52.67499923706055,-6.677999973297119 -78.00299835205078,-6.438000202178955 C-103.33100128173828,-6.197999954223633 -124.0479965209961,-25.535999298095703 -124.2760009765625,-49.63100051879883 C-124.50399780273438,-73.72599792480469 -104.15799713134766,-93.4540023803711 -78.83000183105469,-93.69400024414062 C-53.50199890136719,-93.93399810791016 -32.78499984741211,-74.59500122070312 -32.55699920654297,-50.5z"></path></g><g opacity="1" transform="matrix(1,0,0,1,0,0)"><path fill="rgb(209,209,209)" fill-opacity="1" d=" M-34.95600128173828,-42.058998107910156 C-34.72800064086914,-17.964000701904297 -54.07500076293945,1.753999948501587 -78.16999816894531,1.9819999933242798 C-102.26499938964844,2.2100000381469727 -121.98300170898438,-17.13800048828125 -122.21099853515625,-41.233001708984375 C-122.43900299072266,-65.3280029296875 -103.09200286865234,-85.0459976196289 -78.99700164794922,-85.27400207519531 C-54.902000427246094,-85.50199890136719 -35.183998107910156,-66.15399932861328 -34.95600128173828,-42.058998107910156z"></path></g><g opacity="1" transform="matrix(1,0,0,1,0,0)"><path fill="rgb(236,236,237)" fill-opacity="1" d=" M-44.26599884033203,-41.97100067138672 C-44.08599853515625,-23.01799964904785 -59.30500030517578,-7.507999897003174 -78.25800323486328,-7.328000068664551 C-97.21099853515625,-7.1479997634887695 -112.72100067138672,-22.368000030517578 -112.9010009765625,-41.32099914550781 C-113.08100128173828,-60.27399826049805 -97.86199951171875,-75.78299713134766 -78.90899658203125,-75.96299743652344 C-59.95600128173828,-76.14299774169922 -44.44599914550781,-60.92399978637695 -44.26599884033203,-41.97100067138672z"></path></g><g opacity="1" transform="matrix(1,0,0,1,0,0)"><path stroke-linecap="butt" stroke-linejoin="miter" fill-opacity="0" stroke-miterlimit="10" stroke="rgb(144,128,89)" stroke-opacity="1" stroke-width="8" d=" M-34.95600128173828,-42.058998107910156 C-34.72800064086914,-17.964000701904297 -54.07500076293945,1.753999948501587 -78.16999816894531,1.9819999933242798 C-102.26499938964844,2.2100000381469727 -121.98300170898438,-17.13800048828125 -122.21099853515625,-41.233001708984375 C-122.43900299072266,-65.3280029296875 -103.09200286865234,-85.0459976196289 -78.99700164794922,-85.27400207519531 C-54.902000427246094,-85.50199890136719 -35.183998107910156,-66.15399932861328 -34.95600128173828,-42.058998107910156z"></path></g></g><g style="display: block;" transform="matrix(0.9659258127212524,-0.258819043636322,0.258819043636322,0.9659258127212524,256.9526062011719,255.2772674560547)" opacity="1"><g opacity="1" transform="matrix(1,0,0,1,0,0)"><path fill="rgb(1,1,1)" fill-opacity="1" d=" M-63.143001556396484,-29.533000946044922 C-63.05699920654297,-20.409000396728516 -70.54000091552734,-12.940999984741211 -79.85700225830078,-12.852999687194824 C-89.17400360107422,-12.765000343322754 -96.7979965209961,-20.089000701904297 -96.88400268554688,-29.21299934387207 C-96.97000122070312,-38.33700180053711 -89.48699951171875,-45.80400085449219 -80.16999816894531,-45.891998291015625 C-70.85299682617188,-45.97999954223633 -63.229000091552734,-38.65700149536133 -63.143001556396484,-29.533000946044922z"></path></g><g opacity="1" transform="matrix(1,0,0,1,0,0)"><path stroke-linecap="round" stroke-linejoin="round" fill-opacity="0" stroke="rgb(255,255,255)" stroke-opacity="1" stroke-width="6" d=" M-67.48799896240234,-35.90299987792969 C-66.45500183105469,-36.5620002746582 -65.37100219726562,-37.23400115966797 -64.24199676513672,-37.91299819946289"></path></g></g><g style="display: block;" transform="matrix(0.9659258127212524,-0.258819043636322,0.258819043636322,0.9659258127212524,256.9526062011719,255.2772674560547)" opacity="1"><g opacity="1" transform="matrix(1,0,0,1,0,0)"><path fill="rgb(255,173,0)" fill-opacity="1" d=" M2.4230000972747803,149.41299438476562 C-70.6969985961914,150.1060028076172 -138.302001953125,90.5469970703125 -133.0679931640625,31.711000442504883 C-131.35899353027344,12.49899959564209 -106.2490005493164,42.077999114990234 1.4179999828338623,43.38800048828125 C109.04000091552734,40.03799819946289 135.18600463867188,9.883000373840332 135.65899658203125,29.166000366210938 C137.07200622558594,86.75800323486328 75.54299926757812,148.72000122070312 2.4230000972747803,149.41299438476562z"></path></g><g opacity="1" transform="matrix(1,0,0,1,0,0)"><path fill="rgb(255,225,156)" fill-opacity="1" d=" M-0.3109999895095825,53.14500045776367 C-114.39299774169922,51.65700149536133 -133.2570037841797,17.118999481201172 -133.0260009765625,41.49599838256836 C-132.38099670410156,109.58599853515625 -72.7750015258789,165.44200134277344 2.568000078201294,164.72799682617188 C77.91100311279297,164.01400756835938 136.44700622558594,107.03900146484375 135.802001953125,38.94900131225586 C135.5709991455078,14.571999549865723 113.72200012207031,49.49599838256836 -0.3109999895095825,53.14500045776367z"></path></g><g opacity="1" transform="matrix(1,0,0,1,0,0)"><path fill="rgb(143,58,0)" fill-opacity="1" d=" M134.1320037841797,37.941001892089844 C134.73500061035156,101.56800079345703 74.70600128173828,155.72900390625 2.489000082015991,156.41299438476562 C-69.72799682617188,157.0970001220703 -130.7729949951172,104.08300018310547 -131.37600708007812,40.45600128173828 C-131.3820037841797,39.82600021362305 -131.36700439453125,39.244998931884766 -131.3419952392578,38.69499969482422 C-130.32400512695312,19.434999465942383 -104.85299682617188,49.064998626708984 1.4839999675750732,50.38800048828125 C107.7770004272461,47.05099868774414 132.6840057373047,16.94300079345703 134.0659942626953,36.180999755859375 C134.1009979248047,36.73099899291992 134.12600708007812,37.31100082397461 134.1320037841797,37.941001892089844z"></path></g><g opacity="1" transform="matrix(1,0,0,1,0,0)"><path fill="rgb(107,32,0)" fill-opacity="1" d=" M106.8239974975586,109.33200073242188 C123.7770004272461,79.7300033569336 122.20800018310547,50.56399917602539 122.1729965209961,50.013999938964844 C120.9010009765625,30.774999618530273 98.27400207519531,60.861000061035156 1.6109999418258667,64.10700225830078 C-95.08699798583984,62.69300079345703 -118.27799987792969,33.04199981689453 -119.18599700927734,52.30099868774414 C-119.21099853515625,52.85100173950195 -120.28900146484375,81.44300079345703 -102.69599914550781,111.34700012207031 C-120.3740005493164,91.64299774169922 -131.1280059814453,66.96499633789062 -131.37899780273438,40.45600128173828 C-131.38499450683594,39.82600021362305 -131.37100219726562,39.244998931884766 -131.3459930419922,38.69499969482422 C-130.3280029296875,19.434999465942383 -104.85600280761719,49.064998626708984 1.4809999465942383,50.38800048828125 C107.77400207519531,47.05099868774414 132.67999267578125,16.94300079345703 134.06199645996094,36.180999755859375 C134.0970001220703,36.73099899291992 134.1230010986328,37.31100082397461 134.12899780273438,37.941001892089844 C134.3800048828125,64.44000244140625 124.1050033569336,89.2969970703125 106.8239974975586,109.33200073242188z"></path></g><g opacity="1" transform="matrix(1,0,0,1,0,0)"><path fill="rgb(107,32,0)" fill-opacity="1" d=" M122.41899871826172,51.685001373291016 C121.58599853515625,61.88600158691406 118.90599822998047,65.16400146484375 114.87100219726562,75.17500305175781 C110.31300354003906,84.24700164794922 65.9540023803711,103.26799774169922 3.1470000743865967,103.86299896240234 C-60.25,104.46399688720703 -106.96099853515625,86.56199645996094 -111.04499816894531,77.73500061035156 C-115.48500061035156,67.22899627685547 -118.26899719238281,63.547000885009766 -119.20999908447266,52.92300033569336 C-119.26599884033203,52.33700180053711 -91.8949966430664,64.93499755859375 2.7909998893737793,66.20099639892578 C97.44599914550781,63.14099884033203 122.46299743652344,51.097999572753906 122.41899871826172,51.685001373291016z"></path></g></g><g style="display: block;" transform="matrix(1,0,0,1,293.794677734375,266.5807189941406)" opacity="1"><g opacity="1" transform="matrix(1,0,0,1,0,0)"><path fill="url(#__lottie_element_22557)" fill-opacity="1" d=" M-94.09500122070312,93.15599822998047 C-101.51699829101562,96.33200073242188 -106.66699981689453,103.59600067138672 -106.50299835205078,111.89199829101562 C-106.50299835205078,111.89199829101562 -105.5459976196289,160.23899841308594 -105.5459976196289,160.23899841308594 C-105.3280029296875,171.25100708007812 -95.19400024414062,202.77999877929688 -55.67599868774414,201.9969940185547 C-17.43899917602539,201.24000549316406 -7.28000020980835,169.3090057373047 -7.498000144958496,158.2969970703125 C-7.498000144958496,158.2969970703125 -8.454999923706055,109.95099639892578 -8.454999923706055,109.95099639892578 C-8.619000434875488,101.69200134277344 -14.003999710083008,94.66200256347656 -21.4950008392334,91.75900268554688"></path><path stroke-linecap="round" stroke-linejoin="round" fill-opacity="0" stroke="rgb(213,0,87)" stroke-opacity="1" stroke-width="8" d=" M-94.09500122070312,93.15599822998047 C-101.51699829101562,96.33200073242188 -106.66699981689453,103.59600067138672 -106.50299835205078,111.89199829101562 C-106.50299835205078,111.89199829101562 -105.5459976196289,160.23899841308594 -105.5459976196289,160.23899841308594 C-105.3280029296875,171.25100708007812 -95.19400024414062,202.77999877929688 -55.67599868774414,201.9969940185547 C-17.43899917602539,201.24000549316406 -7.28000020980835,169.3090057373047 -7.498000144958496,158.2969970703125 C-7.498000144958496,158.2969970703125 -8.454999923706055,109.95099639892578 -8.454999923706055,109.95099639892578 C-8.619000434875488,101.69200134277344 -14.003999710083008,94.66200256347656 -21.4950008392334,91.75900268554688"></path></g><g opacity="0.7000000000000001" transform="matrix(1,0,0,1,0,0)"><path stroke-linecap="round" stroke-linejoin="round" fill-opacity="0" stroke="rgb(171,0,59)" stroke-opacity="1" stroke-width="8" d=" M-57.57400131225586,98.18000030517578 C-57.57400131225586,98.18000030517578 -56.70899963378906,141.87399291992188 -56.70899963378906,141.87399291992188"></path></g><g opacity="0.5" transform="matrix(1,0,0,1,0,0)"><path fill="rgb(183,0,64)" fill-opacity="1" d=" M-9.621000289916992,95.62699890136719 C-13.925999641418457,102.9540023803711 -35.250999450683594,109.0530014038086 -57.50199890136719,109.49400329589844 C-79.75299835205078,109.93499755859375 -101.23699951171875,104.68299865722656 -105.8280029296875,97.53199768066406 C-101.51599884033203,91.1240005493164 -93.62100219726562,87.61299896240234 -86.0979995727539,87.46399688720703 C-86.0979995727539,87.46399688720703 -69.79299926757812,87.14099884033203 -69.79299926757812,87.14099884033203 C-65.5250015258789,87.05599975585938 -61.17900085449219,88.75199890136719 -57.99599838256836,91.7229995727539 C-56.49800109863281,89.94100189208984 -51.643001556396484,86.78099822998047 -46.215999603271484,86.67400360107422 C-46.215999603271484,86.67400360107422 -29.743999481201172,86.3479995727539 -29.743999481201172,86.3479995727539 C-22.249000549316406,86.19999694824219 -14.482000350952148,89.43399810791016 -9.621000289916992,95.62699890136719z"></path></g><g opacity="1" transform="matrix(1,0,0,1,0,0)"><path stroke-linecap="round" stroke-linejoin="round" fill-opacity="0" stroke="rgb(174,0,71)" stroke-opacity="1" stroke-width="8" d=" M-102.00800323486328,99.08100128173828 C-98.28800201416016,94.5510025024414 -92.58899688720703,91.58599853515625 -86.17900085449219,91.45899963378906 C-86.17900085449219,91.45899963378906 -69.78399658203125,91.13400268554688 -69.78399658203125,91.13400268554688 C-64.38800048828125,90.83699798583984 -59.56100082397461,95.87799835205078 -59.56100082397461,95.87799835205078 C-58.62699890136719,96.89600372314453 -56.95399856567383,96.81199645996094 -56.13199996948242,95.70500183105469 C-56.13199996948242,95.70500183105469 -56.13199996948242,95.70500183105469 -56.13199996948242,95.70500183105469 C-53.83399963378906,92.61299896240234 -50.16400146484375,90.74600219726562 -46.22800064086914,90.66799926757812 C-46.22800064086914,90.66799926757812 -29.57200050354004,90.33799743652344 -29.57200050354004,90.33799743652344 C-23.163000106811523,90.21099853515625 -17.354000091552734,92.9469985961914 -13.456999778747559,97.3239974975586"></path></g></g><g style="display: block;" transform="matrix(0.9659258127212524,-0.258819043636322,0.258819043636322,0.9659258127212524,256.9526062011719,255.2772674560547)" opacity="1"><g opacity="1" transform="matrix(1,0,0,1,0,0)"><path fill="rgb(243,243,243)" fill-opacity="1" d=" M114.87100219726562,75.17500305175781 C105.28800201416016,79.07599639892578 64.72599792480469,93.93000030517578 1.9190000295639038,94.5250015258789 C-61.47800064086914,95.1259994506836 -100.3949966430664,81.89399719238281 -111.04499816894531,77.73500061035156 C-116.59500122070312,68.4489974975586 -119.22200012207031,55.369998931884766 -119.19499969482422,50.30099868774414 C-119.13600158691406,39.387001037597656 -91.9280014038086,61.42300033569336 2.753999948501587,62.29600143432617 C97.41300201416016,59.62900161743164 121.12100219726562,37.814998626708984 122.35199737548828,48.87300109863281 C122.7239990234375,52.2130012512207 121.01799774169922,65.58599853515625 114.87100219726562,75.17500305175781z"></path></g><g opacity="1" transform="matrix(1,0,0,1,0,0)"><path fill="rgb(197,213,214)" fill-opacity="1" d=" M114.87100219726562,75.17500305175781 C119.97599792480469,67.38999938964844 122.0270004272461,58.31800079345703 122.40499877929688,50.21200180053711 C122.44999694824219,49.731998443603516 122.4990005493164,46.516998291015625 121.03900146484375,45.39500045776367 C120.947998046875,45.305999755859375 119.6969985961914,44.029998779296875 116.62999725341797,44.426998138427734 C116.48999786376953,44.4379997253418 114.55599975585938,44.57400131225586 111.15899658203125,45.44900131225586 C110.93900299072266,45.500999450683594 77.08000183105469,55.02899932861328 58.05099868774414,57.52199935913086 C57.87099838256836,57.54399871826172 57.69200134277344,57.57500076293945 57.512001037597656,57.606998443603516 C56.20399856567383,57.79899978637695 40.314998626708984,60.03900146484375 30.579999923706055,60.75199890136719 C29.85099983215332,60.819000244140625 10.449000358581543,62.07099914550781 0.24300000071525574,62.2599983215332 C-1.4869999885559082,62.236000061035156 -14.892000198364258,61.823001861572266 -15.802000045776367,61.78200149536133 C-71.45899963378906,59.159000396728516 -99.4469985961914,47.91400146484375 -111.5250015258789,46.077999114990234 C-112.00599670410156,46.00299835205078 -113.77200317382812,45.81800079345703 -114.47799682617188,45.82600021362305 C-117.71099853515625,45.590999603271484 -118.63999938964844,47.27399826049805 -118.87999725341797,48.25699996948242 C-119.02999877929688,48.849998474121094 -119.31300354003906,50.025001525878906 -119.2229995727539,51.64099884033203 C-118.5009994506836,60.28300094604492 -116.04399871826172,69.5270004272461 -111.04499816894531,77.73500061035156 C-105.5250015258789,79.85399627685547 -99.67900085449219,81.74600219726562 -93.5199966430664,83.41899871826172 C-97.30599975585938,79.66500091552734 -102.25,72.99199676513672 -100.85900115966797,64.61799621582031 C-98.66300201416016,51.46699905395508 -54.736000061035156,63.64099884033203 2.760999917984009,63.09600067138672 C60.257999420166016,62.55099868774414 103.947998046875,49.547000885009766 106.39199829101562,62.65399932861328 C107.76200103759766,70.04100036621094 104.1500015258789,76.18699645996094 100.73699951171875,80.15899658203125 C100.74600219726562,80.3479995727539 113.95999908447266,75.76300048828125 114.87100219726562,75.17500305175781z"></path></g></g><g style="display: none;"><g><g><path></path></g><g><path></path></g><g><path></path></g><g><path></path></g></g><g><g><path></path></g><g><path></path></g><g><path></path></g><g><path></path></g></g></g></g></svg>