<svg xmlns="http://www.w3.org/2000/svg" viewBox="0 0 512 512" width="512" height="512" style="width: 100%; height: 100%; transform: translate3d(0,0,0);" preserveAspectRatio="xMidYMid meet"><defs><clipPath id="__lottie_element_22571"><rect width="512" height="512" x="0" y="0"></rect></clipPath><linearGradient id="__lottie_element_22630" spreadMethod="pad" gradientUnits="userSpaceOnUse" x1="0" y1="111" x2="0" y2="197.58799743652344"><stop offset="0%" stop-color="rgb(251,57,130)"></stop><stop offset="25%" stop-color="rgb(253,102,170)"></stop><stop offset="52%" stop-color="rgb(255,147,209)"></stop><stop offset="80%" stop-color="rgb(250,73,162)"></stop><stop offset="100%" stop-color="rgb(245,0,116)"></stop></linearGradient></defs><g clip-path="url(#__lottie_element_22571)"><g style="display: block;" transform="matrix(1,0,0,1,256,256)" opacity="1"><g opacity="0.1" transform="matrix(1,0,0,1,0,0)"><path fill="rgb(0,0,0)" fill-opacity="1" d=" M196.02499389648438,3.924999952316284 C196.02499389648438,92.46900177001953 137.31900024414062,167.302001953125 56.707000732421875,191.6230010986328 C38.75600051879883,197.03900146484375 19.718000411987305,199.9499969482422 0,199.9499969482422 C-22.283000946044922,199.9499969482422 -43.696998596191406,196.23199462890625 -63.65599822998047,189.38299560546875 C-140.6699981689453,162.9550018310547 -196.02499389648438,89.90399932861328 -196.02499389648438,3.924999952316284 C-196.02499389648438,-104.33599853515625 -108.26100158691406,-192.0989990234375 0,-192.0989990234375 C108.26100158691406,-192.0989990234375 196.02499389648438,-104.33599853515625 196.02499389648438,3.924999952316284z"></path></g><g opacity="1" transform="matrix(1,0,0,1,0,0)"><path fill="rgb(246,7,0)" fill-opacity="1" d=" M188.875,-11.074999809265137 C188.875,93.23799896240234 104.31300354003906,177.80099487304688 0,177.80099487304688 C-104.31300354003906,177.80099487304688 -188.875,93.23799896240234 -188.875,-11.074999809265137 C-188.875,-115.38800048828125 -104.31300354003906,-199.9499969482422 0,-199.9499969482422 C104.31300354003906,-199.9499969482422 188.875,-115.38800048828125 188.875,-11.074999809265137z"></path><path stroke-linecap="butt" stroke-linejoin="miter" fill-opacity="0" stroke-miterlimit="10" stroke="rgb(186,0,0)" stroke-opacity="1" stroke-width="8" d=" M188.875,-11.074999809265137 C188.875,93.23799896240234 104.31300354003906,177.80099487304688 0,177.80099487304688 C-104.31300354003906,177.80099487304688 -188.875,93.23799896240234 -188.875,-11.074999809265137 C-188.875,-115.38800048828125 -104.31300354003906,-199.9499969482422 0,-199.9499969482422 C104.31300354003906,-199.9499969482422 188.875,-115.38800048828125 188.875,-11.074999809265137z"></path></g><g opacity="1" transform="matrix(1,0,0,1,0,0)"><path fill="rgb(255,74,0)" fill-opacity="1" d=" M168.40699768066406,-10.362000465393066 C166.9499969482422,84.66600036621094 90.39600372314453,160.5469970703125 -2.5820000171661377,159.1219940185547 C-95.55999755859375,157.69700622558594 -169.7519989013672,79.50599670410156 -168.29600524902344,-15.52299976348877 C-166.83900451660156,-110.5510025024414 -90.28500366210938,-186.4320068359375 2.693000078201294,-185.0070037841797 C95.6709976196289,-183.58200073242188 169.86399841308594,-105.39099884033203 168.40699768066406,-10.362000465393066z"></path></g><g opacity="1" transform="matrix(1,0,0,1,0,0)"><path fill="rgb(255,128,0)" fill-opacity="1" d=" M149.26699829101562,-53.50299835205078 C149.26699829101562,19.139999389648438 82.43800354003906,-38.32500076293945 0,-38.32500076293945 C-82.43800354003906,-38.32500076293945 -149.26800537109375,19.139999389648438 -149.26800537109375,-53.50299835205078 C-149.26800537109375,-126.14600372314453 -82.43800354003906,-185.03599548339844 0,-185.03599548339844 C82.43800354003906,-185.03599548339844 149.26699829101562,-126.14600372314453 149.26699829101562,-53.50299835205078z"></path></g><g opacity="1" transform="matrix(1,0,0,1,0,0)"><g opacity="1" transform="matrix(1,0,0,1,0,0)"><path stroke-linecap="round" stroke-linejoin="round" fill-opacity="0" stroke="rgb(255,255,255)" stroke-opacity="1" stroke-width="6" d=" M36.37300109863281,-180.8159942626953 C37.9109992980957,-180.4810028076172 39.505001068115234,-180.11199951171875 41.150001525878906,-179.70599365234375"></path></g><g opacity="1" transform="matrix(1,0,0,1,0,0)"><path stroke-linecap="round" stroke-linejoin="round" fill-opacity="0" stroke="rgb(255,255,255)" stroke-opacity="1" stroke-width="6" d=" M15.017999649047852,-184.03599548339844 C15.017999649047852,-184.03599548339844 19.885000228881836,-183.77499389648438 27.607999801635742,-182.4969940185547"></path></g></g></g><g style="display: block;" transform="matrix(1,0,0,1,256,256)" opacity="0.3"><g opacity="1" transform="matrix(1,0,0,1,0,0)"><path fill="rgb(186,0,0)" fill-opacity="1" d=" M58.858001708984375,115.02799987792969 C58.858001708984375,115.02799987792969 60.72700119018555,162 56.86800003051758,169.08799743652344 C38.917999267578125,174.7480010986328 19.81800079345703,177.79800415039062 -0.0020000000949949026,177.79800415039062 C-19.77199935913086,177.79800415039062 -38.832000732421875,174.75799560546875 -56.742000579833984,169.1179962158203 C-60.61600112915039,161 -58.75199890136719,115.02799987792969 -58.75199890136719,115.02799987792969 C-58.75199890136719,104.947998046875 58.858001708984375,104.947998046875 58.858001708984375,115.02799987792969z"></path></g></g><g style="display: block;" transform="matrix(1,0,0,1,256,256)" opacity="1"><g opacity="1" transform="matrix(1,0,0,1,0,0)"><path fill="rgb(242,55,0)" fill-opacity="1" d=" M62.98699951171875,113.47599792480469 C62.98699951171875,129.4340057373047 34.8120002746582,138.8699951171875 0.0560000017285347,138.8699951171875 C-34.70000076293945,138.8699951171875 -62.875999450683594,129.4340057373047 -62.875999450683594,113.47599792480469 C-62.875999450683594,88.89800262451172 -34.70000076293945,75.08300018310547 0.0560000017285347,75.08300018310547 C34.8120002746582,75.08300018310547 62.98699951171875,89.91999816894531 62.98699951171875,113.47599792480469z"></path></g><g opacity="1" transform="matrix(1,0,0,1,0,0)"><path fill="rgb(255,140,0)" fill-opacity="1" d=" M62.98699951171875,113.47599792480469 C62.98699951171875,130.81399536132812 34.8120002746582,144.8699951171875 0.0560000017285347,144.8699951171875 C-34.70000076293945,144.8699951171875 -62.875999450683594,130.81399536132812 -62.875999450683594,113.47599792480469 C-62.875999450683594,96.13800048828125 -34.70000076293945,81.08300018310547 0.0560000017285347,81.08300018310547 C34.8120002746582,81.08300018310547 62.98699951171875,96.13800048828125 62.98699951171875,113.47599792480469z"></path></g><g opacity="1" transform="matrix(1,0,0,1,0,0)"><path fill="rgb(58,7,0)" fill-opacity="1" d=" M60.72700119018555,109.97599792480469 C60.72700119018555,125.93399810791016 33.56399917602539,138.8699951171875 0.0560000017285347,138.8699951171875 C-33.45199966430664,138.8699951171875 -60.61600112915039,125.93399810791016 -60.61600112915039,109.97599792480469 C-60.61600112915039,94.01799774169922 -33.45199966430664,81.08300018310547 0.0560000017285347,81.08300018310547 C33.56399917602539,81.08300018310547 60.72700119018555,94.01799774169922 60.72700119018555,109.97599792480469z"></path></g></g><g style="display: block;" transform="matrix(1,0,0,1,256,256)" opacity="1"><g opacity="1" transform="matrix(1,0,0,1,0,0)"><g opacity="1" transform="matrix(1,0,0,1,0,0)"><g opacity="1" transform="matrix(1,0,0,1,0,0)"><path fill="url(#__lottie_element_22630)" fill-opacity="1" d=" M0.0560000017285347,194.8350067138672 C-39.49800109863281,194.8350067138672 -49.01300048828125,164.9949951171875 -49.01300048828125,153.16400146484375 C-49.01300048828125,153.16400146484375 -49.01300048828125,116.49400329589844 -49.01300048828125,116.49400329589844 C-49.01300048828125,107.26399993896484 -39.680999755859375,99.71199798583984 -28.27400016784668,99.71199798583984 C-28.27400016784668,99.71199798583984 -11.86400032043457,99.71199798583984 -11.86400032043457,99.71199798583984 C-8.20199966430664,99.71199798583984 -4.7230000495910645,101.01200103759766 -2.3480000495910645,103.26799774169922 C-2.3480000495910645,103.26799774169922 -1.7289999723434448,103.85600280761719 -1.7289999723434448,103.85600280761719 C-0.8140000104904175,104.7239990234375 0.8600000143051147,104.68199920654297 1.7050000429153442,103.76799774169922 C1.7050000429153442,103.76799774169922 1.7050000429153442,103.76799774169922 1.7050000429153442,103.76799774169922 C4.065000057220459,101.21499633789062 7.77400016784668,99.71199798583984 11.71399974822998,99.71199798583984 C11.71399974822998,99.71199798583984 28.385000228881836,99.71199798583984 28.385000228881836,99.71199798583984 C39.79199981689453,99.71199798583984 49.125,107.26399993896484 49.125,116.49400329589844 C49.125,116.49400329589844 49.125,153.16400146484375 49.125,153.16400146484375 C49.125,166.15699768066406 38.32699966430664,194.8350067138672 0.0560000017285347,194.8350067138672z"></path><path stroke-linecap="round" stroke-linejoin="round" fill-opacity="0" stroke="rgb(213,0,87)" stroke-opacity="1" stroke-width="8" d=" M0.0560000017285347,194.8350067138672 C-39.49800109863281,194.8350067138672 -49.01300048828125,164.9949951171875 -49.01300048828125,153.16400146484375 C-49.01300048828125,153.16400146484375 -49.01300048828125,116.49400329589844 -49.01300048828125,116.49400329589844 C-49.01300048828125,107.26399993896484 -39.680999755859375,99.71199798583984 -28.27400016784668,99.71199798583984 C-28.27400016784668,99.71199798583984 -11.86400032043457,99.71199798583984 -11.86400032043457,99.71199798583984 C-8.20199966430664,99.71199798583984 -4.7230000495910645,101.01200103759766 -2.3480000495910645,103.26799774169922 C-2.3480000495910645,103.26799774169922 -1.7289999723434448,103.85600280761719 -1.7289999723434448,103.85600280761719 C-0.8140000104904175,104.7239990234375 0.8600000143051147,104.68199920654297 1.7050000429153442,103.76799774169922 C1.7050000429153442,103.76799774169922 1.7050000429153442,103.76799774169922 1.7050000429153442,103.76799774169922 C4.065000057220459,101.21499633789062 7.77400016784668,99.71199798583984 11.71399974822998,99.71199798583984 C11.71399974822998,99.71199798583984 28.385000228881836,99.71199798583984 28.385000228881836,99.71199798583984 C39.79199981689453,99.71199798583984 49.125,107.26399993896484 49.125,116.49400329589844 C49.125,116.49400329589844 49.125,153.16400146484375 49.125,153.16400146484375 C49.125,166.15699768066406 38.32699966430664,194.8350067138672 0.0560000017285347,194.8350067138672z"></path></g><g opacity="0.7000000000000001" transform="matrix(1,0,0,1,0,0)"><path stroke-linecap="round" stroke-linejoin="round" fill-opacity="0" stroke="rgb(171,0,59)" stroke-opacity="1" stroke-width="8" d=" M0.21299999952316284,103.35900115966797 C0.21299999952316284,103.35900115966797 0.21299999952316284,143.10499572753906 0.21299999952316284,143.10499572753906"></path></g><g opacity="0.5" transform="matrix(1,0,0,1,0,0)"><path fill="rgb(183,0,64)" fill-opacity="1" d=" M51.513999938964844,112.1719970703125 C47.064998626708984,118.33399963378906 22.31599998474121,122.54100036621094 0.061000000685453415,122.54100036621094 C-22.194000244140625,122.54100036621094 -47.80799865722656,119.6510009765625 -52.25600051879883,113.48899841308594 C-53.21500015258789,104.9990005493164 -35.617000579833984,96.31400299072266 -28.093000411987305,96.31400299072266 C-28.093000411987305,96.31400299072266 -3.2049999237060547,97.83000183105469 -0.08100000023841858,100.41200256347656 C-0.08100000023841858,100.41200256347656 28.27199935913086,96.31400299072266 28.27199935913086,96.31400299072266 C35.768001556396484,96.31400299072266 50.34400177001953,103.68199920654297 51.513999938964844,112.1719970703125z"></path></g><g opacity="1" transform="matrix(1,0,0,1,0,0)"><path stroke-linecap="round" stroke-linejoin="round" fill-opacity="0" stroke="rgb(149,0,64)" stroke-opacity="1" stroke-width="8" d=" M-48.54399871826172,113.29100036621094 C-47.055999755859375,105.09700012207031 -38.61399841308594,99.71199798583984 -28.253000259399414,99.71199798583984 C-28.253000259399414,99.71199798583984 -11.854999542236328,99.71199798583984 -11.854999542236328,99.71199798583984 C-8.194999694824219,99.71199798583984 -4.718999862670898,101.03199768066406 -2.3459999561309814,103.322998046875 C-2.3459999561309814,103.322998046875 -1.7280000448226929,103.91999816894531 -1.7280000448226929,103.91999816894531 C-0.8140000104904175,104.802001953125 0.8600000143051147,104.75900268554688 1.7039999961853027,103.83100128173828 C1.7039999961853027,103.83100128173828 1.7039999961853027,103.83100128173828 1.7039999961853027,103.83100128173828 C4.061999797821045,101.23899841308594 7.769000053405762,99.71199798583984 11.706000328063965,99.71199798583984 C11.706000328063965,99.71199798583984 28.364999771118164,99.71199798583984 28.364999771118164,99.71199798583984 C38.0629997253418,99.71199798583984 46.12099838256836,104.53500366210938 48.35100173950195,111.96399688720703"></path></g></g></g></g><g style="display: block;" transform="matrix(1,0,0,1,256,256)" opacity="1"><g opacity="1" transform="matrix(1,0,0,1,0,0)"><g opacity="1" transform="matrix(1,0,0,1,0,0)"><path fill="rgb(242,55,0)" fill-opacity="1" d=" M-31.968000411987305,6.361999988555908 C-31.968000411987305,21.334999084472656 -42.33100128173828,33.472999572753906 -55.11600112915039,33.472999572753906 C-67.9010009765625,33.472999572753906 -78.26499938964844,21.334999084472656 -78.26499938964844,6.361999988555908 C-78.26499938964844,-8.611000061035156 -67.9010009765625,-20.75 -55.11600112915039,-20.75 C-42.33100128173828,-20.75 -31.968000411987305,-8.611000061035156 -31.968000411987305,6.361999988555908z"></path></g><g opacity="1" transform="matrix(1,0,0,1,0,0)"><path fill="rgb(255,140,0)" fill-opacity="1" d=" M-31.968000411987305,16.10700035095215 C-31.968000411987305,31.079999923706055 -42.33100128173828,43.21900177001953 -55.11600112915039,43.21900177001953 C-67.9010009765625,43.21900177001953 -78.26499938964844,31.079999923706055 -78.26499938964844,16.10700035095215 C-78.26499938964844,1.1339999437332153 -67.9010009765625,-11.003999710083008 -55.11600112915039,-11.003999710083008 C-42.33100128173828,-11.003999710083008 -31.968000411987305,1.1339999437332153 -31.968000411987305,16.10700035095215z"></path></g><g opacity="1" transform="matrix(1,0,0,1,0,0)"><path fill="rgb(106,18,0)" fill-opacity="1" d=" M-76.81900024414062,10.892000198364258 C-76.81900024414062,-4.080999851226807 -67.10299682617188,-16.219999313354492 -55.117000579833984,-16.219999313354492 C-43.13100051879883,-16.219999313354492 -33.41400146484375,-4.080999851226807 -33.41400146484375,10.892000198364258 C-33.41400146484375,25.864999771118164 -43.13100051879883,38.00299835205078 -55.117000579833984,38.00299835205078 C-67.10299682617188,38.00299835205078 -76.81900024414062,25.864999771118164 -76.81900024414062,10.892000198364258z"></path></g><g opacity="1" transform="matrix(1,0,0,1,0,0)"><path fill="rgb(61,0,0)" fill-opacity="1" d=" M-33.41699981689453,10.890999794006348 C-33.41699981689453,-4.085000038146973 -43.125,-16.2189998626709 -55.111000061035156,-16.2189998626709 C-67.09700012207031,-16.2189998626709 -76.81500244140625,-4.085000038146973 -76.81500244140625,10.890999794006348 C-76.81500244140625,19.239999771118164 -73.79900360107422,26.70400047302246 -69.0479965209961,31.673999786376953 C-72.51799774169922,27.402000427246094 -74.64600372314453,21.55500030517578 -74.64600372314453,15.097999572753906 C-74.64600372314453,1.9980000257492065 -65.85399627685547,-9.428999900817871 -55.012001037597656,-9.428999900817871 C-44.16999816894531,-9.428999900817871 -35.38800048828125,1.9980000257492065 -35.38800048828125,15.097999572753906 C-35.38800048828125,20.832000732421875 -37.073001861572266,26.077999114990234 -39.862998962402344,30.179000854492188 C-35.88100051879883,25.266000747680664 -33.41699981689453,18.43600082397461 -33.41699981689453,10.890999794006348z"></path></g></g><g opacity="1" transform="matrix(1,0,0,1,0,0)"><g opacity="1" transform="matrix(1,0,0,1,0,0)"><path fill="rgb(242,55,0)" fill-opacity="1" d=" M77.66000366210938,6.361999988555908 C77.66000366210938,21.334999084472656 67.2969970703125,33.472999572753906 54.512001037597656,33.472999572753906 C41.72700119018555,33.472999572753906 31.363000869750977,21.334999084472656 31.363000869750977,6.361999988555908 C31.363000869750977,-8.611000061035156 41.72700119018555,-20.75 54.512001037597656,-20.75 C67.2969970703125,-20.75 77.66000366210938,-8.611000061035156 77.66000366210938,6.361999988555908z"></path></g><g opacity="1" transform="matrix(1,0,0,1,0,0)"><path fill="rgb(255,140,0)" fill-opacity="1" d=" M77.66000366210938,16.10700035095215 C77.66000366210938,31.079999923706055 67.2969970703125,43.21900177001953 54.512001037597656,43.21900177001953 C41.72700119018555,43.21900177001953 31.363000869750977,31.079999923706055 31.363000869750977,16.10700035095215 C31.363000869750977,1.1339999437332153 41.72700119018555,-11.003999710083008 54.512001037597656,-11.003999710083008 C67.2969970703125,-11.003999710083008 77.66000366210938,1.1339999437332153 77.66000366210938,16.10700035095215z"></path></g><g opacity="1" transform="matrix(1,0,0,1,0,0)"><path fill="rgb(106,18,0)" fill-opacity="1" d=" M32.810001373291016,10.892000198364258 C32.810001373291016,-4.080999851226807 42.5260009765625,-16.219999313354492 54.512001037597656,-16.219999313354492 C66.49800109863281,-16.219999313354492 76.21399688720703,-4.080999851226807 76.21399688720703,10.892000198364258 C76.21399688720703,25.864999771118164 66.49800109863281,38.00299835205078 54.512001037597656,38.00299835205078 C42.5260009765625,38.00299835205078 32.810001373291016,25.864999771118164 32.810001373291016,10.892000198364258z"></path></g><g opacity="1" transform="matrix(1,0,0,1,0,0)"><path fill="rgb(61,0,0)" fill-opacity="1" d=" M76.21199798583984,10.890999794006348 C76.21199798583984,-4.085000038146973 66.50299835205078,-16.2189998626709 54.516998291015625,-16.2189998626709 C42.53200149536133,-16.2189998626709 32.8129997253418,-4.085000038146973 32.8129997253418,10.890999794006348 C32.8129997253418,19.239999771118164 35.82899856567383,26.70400047302246 40.58000183105469,31.673999786376953 C37.111000061035156,27.402000427246094 34.981998443603516,21.55500030517578 34.981998443603516,15.097999572753906 C34.981998443603516,1.9980000257492065 43.77399826049805,-9.428999900817871 54.61600112915039,-9.428999900817871 C65.45800018310547,-9.428999900817871 74.23999786376953,1.9980000257492065 74.23999786376953,15.097999572753906 C74.23999786376953,20.832000732421875 72.55400085449219,26.077999114990234 69.76499938964844,30.179000854492188 C73.74700164794922,25.266000747680664 76.21199798583984,18.43600082397461 76.21199798583984,10.890999794006348z"></path></g></g></g><g style="display: block;" transform="matrix(1,0,0,1,256,256)" opacity="1"><g opacity="1" transform="matrix(1,0,0,1,0,0)"><g opacity="1" transform="matrix(1,0,0,1,0,0)"><g opacity="1" transform="matrix(1,0,0,1,0,0)"><path fill="rgb(255,177,37)" fill-opacity="1" d=" M135.9600067138672,-46.042999267578125 C122.51300048828125,-43.013999938964844 96.56700134277344,-48.05799865722656 79.1729965209961,-64.50599670410156 C54.40299987792969,-87.9280014038086 63.236000061035156,-103.81800079345703 68.7040023803711,-99.07599639892578 C74.1719970703125,-94.33399963378906 91.375,-63.875 143.16200256347656,-62.612998962402344 C149.3520050048828,-62.46200180053711 152.625,-49.79800033569336 135.9600067138672,-46.042999267578125z"></path></g><g opacity="1" transform="matrix(1,0,0,1,0,0)"><path fill="rgb(106,18,0)" fill-opacity="1" d=" M144.71800231933594,-54.215999603271484 C143.42100524902344,-52.94200134277344 139.82400512695312,-51.277000427246094 136.7050018310547,-50.6510009765625 C123.19100189208984,-47.9370002746582 99.59400177001953,-51.202999114990234 82.19999694824219,-67.6500015258789 C57.43000030517578,-91.072998046875 63.277000427246094,-103.86499786376953 68.7040023803711,-99.07599639892578 C82.56999969482422,-86.83999633789062 102,-68 141.86399841308594,-63.10200119018555 C148.00999450683594,-62.34700012207031 148.2779998779297,-57.7130012512207 144.71800231933594,-54.215999603271484z"></path></g><g opacity="1" transform="matrix(1,0,0,1,0,0)"><path fill="rgb(61,0,0)" fill-opacity="1" d=" M145.7480010986328,-55.38600158691406 C144.92799377441406,-56.19599914550781 143.63800048828125,-56.91600036621094 141.8679962158203,-57.49599838256836 C137.4080047607422,-58.95600128173828 131.38800048828125,-59.40599822998047 123.1780014038086,-61.316001892089844 C92.51799774169922,-68.43599700927734 74.16799926757812,-88.73600006103516 68.70800018310547,-93.47599792480469 C66.93800354003906,-95.00599670410156 65.13800048828125,-94.71600341796875 64.33799743652344,-92.82599639892578 C62.79800033569336,-99.1760025024414 65.7979965209961,-101.59600067138672 68.70800018310547,-99.07599639892578 C74.16799926757812,-94.33599853515625 92.51799774169922,-74.03600311279297 123.1780014038086,-66.91600036621094 C131.38800048828125,-65.00599670410156 137.4080047607422,-64.55599975585938 141.8679962158203,-63.10599899291992 C147.08799743652344,-61.395999908447266 148.08799743652344,-58.47600173950195 145.7480010986328,-55.38600158691406z"></path></g></g></g></g><g style="display: block;" transform="matrix(1,0,0,1,256,256)" opacity="1"><g opacity="1" transform="matrix(1,0,0,1,0,0)"><g opacity="1" transform="matrix(1,0,0,1,0,0)"><g opacity="1" transform="matrix(1,0,0,1,0,0)"><path fill="rgb(255,177,37)" fill-opacity="1" d=" M-137.28199768066406,-46.042999267578125 C-123.83499908447266,-43.013999938964844 -97.88999938964844,-48.05799865722656 -80.49600219726562,-64.50599670410156 C-55.72600173950195,-87.9280014038086 -64.55899810791016,-103.81800079345703 -70.0270004272461,-99.07599639892578 C-75.49500274658203,-94.33399963378906 -92.697998046875,-63.875 -144.48500061035156,-62.612998962402344 C-150.6750030517578,-62.46200180053711 -153.94700622558594,-49.79800033569336 -137.28199768066406,-46.042999267578125z"></path></g><g opacity="1" transform="matrix(1,0,0,1,0,0)"><path fill="rgb(106,18,0)" fill-opacity="1" d=" M-146.0399932861328,-54.215999603271484 C-144.7429962158203,-52.94200134277344 -141.14599609375,-51.277000427246094 -138.02699279785156,-50.6510009765625 C-124.51300048828125,-47.9370002746582 -100.91600036621094,-51.202999114990234 -83.52200317382812,-67.6500015258789 C-58.75199890136719,-91.072998046875 -64.5999984741211,-103.86499786376953 -70.0270004272461,-99.07599639892578 C-83.89299774169922,-86.83999633789062 -103.3219985961914,-68 -143.18600463867188,-63.10200119018555 C-149.33200073242188,-62.34700012207031 -149.60000610351562,-57.7130012512207 -146.0399932861328,-54.215999603271484z"></path></g><g opacity="1" transform="matrix(1,0,0,1,0,0)"><path fill="rgb(61,0,0)" fill-opacity="1" d=" M-147.07000732421875,-55.38600158691406 C-146.25,-56.19599914550781 -144.9600067138672,-56.91600036621094 -143.19000244140625,-57.49599838256836 C-138.72999572753906,-58.95600128173828 -132.7100067138672,-59.40599822998047 -124.5,-61.316001892089844 C-93.83999633789062,-68.43599700927734 -75.48999786376953,-88.73600006103516 -70.02999877929688,-93.47599792480469 C-68.26000213623047,-95.00599670410156 -66.46099853515625,-94.71600341796875 -65.66100311279297,-92.82599639892578 C-64.12100219726562,-99.1760025024414 -67.12000274658203,-101.59600067138672 -70.02999877929688,-99.07599639892578 C-75.48999786376953,-94.33599853515625 -93.83999633789062,-74.03600311279297 -124.5,-66.91600036621094 C-132.7100067138672,-65.00599670410156 -138.72999572753906,-64.55599975585938 -143.19000244140625,-63.10599899291992 C-148.41000366210938,-61.395999908447266 -149.41000366210938,-58.47600173950195 -147.07000732421875,-55.38600158691406z"></path></g></g></g></g><g style="display: none;"><g><path></path></g></g><g style="display: none;"><g><path></path></g><g><g><path></path></g><g><path></path></g><g><path></path></g><g><path></path></g><g><path></path></g></g><g><path></path></g><g><path stroke-linecap="round" stroke-linejoin="round" fill-opacity="0"></path></g><g><g><path stroke-linecap="round" stroke-linejoin="round" fill-opacity="0"></path></g></g><g><g><path stroke-linecap="round" stroke-linejoin="round" fill-opacity="0"></path></g></g><g><g><path stroke-linecap="round" stroke-linejoin="round" fill-opacity="0"></path></g><g><path stroke-linecap="round" stroke-linejoin="round" fill-opacity="0"></path></g></g></g><g style="display: block;" transform="matrix(1,0,0,1,256,256)" opacity="0.3"><g opacity="1" transform="matrix(1,0,0,1,0,0)"><path fill="rgb(186,0,0)" fill-opacity="1" d=" M-82.78299713134766,111.96800231933594 C-82.78299713134766,127.01799774169922 -90.88200378417969,140.17799377441406 -102.98200225830078,147.2779998779297 C-125.4520034790039,132.63800048828125 -144.61199951171875,113.3479995727539 -159.0919952392578,90.76799774169922 C-148.2220001220703,60.007999420166016 -123.78299713134766,14.697999954223633 -123.78299713134766,14.697999954223633 C-123.78299713134766,14.697999954223633 -82.78299713134766,81.0780029296875 -82.78299713134766,111.96800231933594z"></path></g></g><g style="display: block;" transform="matrix(1,0,0,1,256,256)" opacity="1"><g opacity="1" transform="matrix(1,0,0,1,0,0)"><path fill="rgb(58,162,222)" fill-opacity="1" d=" M-175.1999969482422,98.26300048828125 C-175.11900329589844,120.74600219726562 -156.82699584960938,138.90499877929688 -134.34500122070312,138.82400512695312 C-111.86299896240234,138.7429962158203 -93.7020034790039,120.4520034790039 -93.78299713134766,97.96900177001953 C-93.86399841308594,75.48699951171875 -134.78500366210938,0.6990000009536743 -134.78500366210938,0.6990000009536743 C-134.78500366210938,0.6990000009536743 -175.281005859375,75.78099822998047 -175.1999969482422,98.26300048828125z"></path></g><g opacity="0.61" transform="matrix(1,0,0,1,0,0)"><g opacity="0.3" transform="matrix(1,0,0,1,0,0)"><path fill="rgb(144,243,253)" fill-opacity="1" d=" M-110.42900085449219,131.25 C-101.0250015258789,124.76399993896484 -100.95600128173828,117.95099639892578 -101.0260009765625,113.73200225830078 C-101.41300201416016,91.81900024414062 -117.447998046875,74.33499908447266 -136.8520050048828,74.67900085449219 C-149.51300048828125,74.9010009765625 -173.375,91.375 -167.3159942626953,120.29499816894531 C-167.3040008544922,120.2979965209961 -167.30799865722656,120.30799865722656 -167.31100463867188,120.31999969482422 C-146.5,147.2779998779297 -119.83300018310547,137.73599243164062 -110.42900085449219,131.25z"></path></g><g opacity="0.4" transform="matrix(1,0,0,1,0,0)"><path fill="rgb(144,243,253)" fill-opacity="1" d=" M-105.90699768066406,115.28700256347656 C-107.16400146484375,96.98300170898438 -119.6510009765625,82.30699920654297 -135.8800048828125,82.59500122070312 C-152.12100219726562,82.87999725341797 -164.69400024414062,97.98200225830078 -164.69400024414062,116.31800079345703 C-164.69400024414062,143.375 -103.875,144.8699951171875 -105.90699768066406,115.28700256347656z"></path></g><g opacity="0.4" transform="matrix(1,0,0,1,0,0)"><path fill="rgb(144,243,253)" fill-opacity="1" d=" M-136.0709991455078,89.9229965209961 C-149.28599548339844,90.15499877929688 -159.78700256347656,102.44300079345703 -159.52499389648438,117.36900329589844 C-159.26300048828125,132.2949981689453 -148.46800231933594,138.27499389648438 -135.2530059814453,138.04299926757812 C-122.03800201416016,137.81100463867188 -111.40599822998047,131.45399475097656 -111.66799926757812,116.52799987792969 C-111.93000030517578,101.60199737548828 -122.85600280761719,89.69100189208984 -136.0709991455078,89.9229965209961z"></path></g><g opacity="0.4" transform="matrix(1,0,0,1,0,0)"><path fill="rgb(144,243,253)" fill-opacity="1" d=" M-135.38699340820312,99.53900146484375 C-145.16799926757812,99.71099853515625 -152.94000244140625,108.80599975585938 -152.74600219726562,119.85299682617188 C-152.552001953125,130.89999389648438 -144.59800720214844,133.78599548339844 -134.81700134277344,133.61399841308594 C-125.03600311279297,133.44200134277344 -117.13099670410156,130.27699279785156 -117.32499694824219,119.2300033569336 C-117.51899719238281,108.18299865722656 -125.60600280761719,99.36699676513672 -135.38699340820312,99.53900146484375z"></path></g><g opacity="0.4" transform="matrix(1,0,0,1,0,0)"><path fill="rgb(144,243,253)" fill-opacity="1" d=" M-136.0279998779297,112.1729965209961 C-141.38099670410156,112.26699829101562 -145.63299560546875,117.24500274658203 -145.52699279785156,123.29000091552734 C-145.42100524902344,129.3350067138672 -141.12899780273438,128.22799682617188 -135.7760009765625,128.13400268554688 C-130.42300415039062,128.0399932861328 -126.03800201416016,128.99400329589844 -126.14399719238281,122.9489974975586 C-126.25,116.90399932861328 -130.6750030517578,112.0790023803711 -136.0279998779297,112.1729965209961z"></path></g></g><g opacity="0.55" transform="matrix(1,0,0,1,0,0)"><path fill="rgb(255,255,255)" fill-opacity="1" d=" M-158.6739959716797,82.10399627685547 C-158.6280059814453,94.8740005493164 -147.23800659179688,105.18900299072266 -134.46800231933594,105.14299774169922 C-121.697998046875,105.09700012207031 -110.38400268554688,94.70700073242188 -110.43000030517578,81.93699645996094 C-110.46900177001953,71.0999984741211 -127.93299865722656,24.826000213623047 -133.22000122070312,11.0649995803833 C-133.74600219726562,9.694999694824219 -135.67999267578125,9.699999809265137 -136.1999969482422,11.071999549865723 C-141.42999267578125,24.864999771118164 -158.71299743652344,71.26599884033203 -158.6739959716797,82.10399627685547z"></path></g><g opacity="1" transform="matrix(1,0,0,1,0,0)"><path stroke-linecap="round" stroke-linejoin="round" fill-opacity="0" stroke="rgb(0,109,196)" stroke-opacity="1" stroke-width="8" d=" M-175.1999969482422,98.26300048828125 C-175.1999969482422,120.74600219726562 -156.82699584960938,138.90499877929688 -134.34500122070312,138.82400512695312 C-111.86299896240234,138.7429962158203 -93.78299713134766,120.4520034790039 -93.78299713134766,97.96900177001953 C-93.78299713134766,71.91100311279297 -122.05999755859375,22.049999237060547 -131.6490020751953,5.892000198364258 C-133.07899475097656,3.4820001125335693 -136.55099487304688,3.447999954223633 -138.02200317382812,5.834000110626221 C-147.61000061035156,21.3799991607666 -175.1999969482422,68.68199920654297 -175.1999969482422,98.26300048828125z"></path></g><g opacity="0.4" transform="matrix(1,0,0,1,0,0)"><g opacity="1" transform="matrix(1,0,0,1,0,0)"><path stroke-linecap="round" stroke-linejoin="round" fill-opacity="0" stroke="rgb(186,0,0)" stroke-opacity="1" stroke-width="8" d=" M-118.52200317382812,135.5679931640625 C-103.9530029296875,129.33599853515625 -93.78299713134766,114.83100128173828 -93.78299713134766,97.96900177001953 C-93.78299713134766,71.91100311279297 -122.05999755859375,22.049999237060547 -131.6490020751953,5.892000198364258"></path></g></g><g opacity="0.5" transform="matrix(1,0,0,1,0,0)"><g opacity="1" transform="matrix(1,0,0,1,0,0)"><path stroke-linecap="round" stroke-linejoin="round" fill-opacity="0" stroke="rgb(186,0,0)" stroke-opacity="1" stroke-width="8" d=" M-93.78299713134766,97.96900177001953 C-93.78299713134766,78.65399932861328 -109.31999969482422,46.26100158691406 -121.26499938964844,24.209999084472656"></path></g></g><g opacity="1" transform="matrix(1,0,0,1,0,0)"><g opacity="1" transform="matrix(1,0,0,1,0,0)"><path stroke-linecap="round" stroke-linejoin="round" fill-opacity="0" stroke="rgb(255,255,255)" stroke-opacity="1" stroke-width="6" d=" M-115.74099731445312,63.1150016784668 C-115.74099731445312,63.1150016784668 -115.35800170898438,64.26100158691406 -115.35800170898438,64.26100158691406"></path></g><g opacity="1" transform="matrix(1,0,0,1,0,0)"><path stroke-linecap="round" stroke-linejoin="round" fill-opacity="0" stroke="rgb(255,255,255)" stroke-opacity="1" stroke-width="6" d=" M-120.37200164794922,49.268001556396484 C-120.37200164794922,49.268001556396484 -118.43199920654297,55.069000244140625 -118.43199920654297,55.069000244140625"></path></g></g></g><g style="display: none;"><g><path></path></g></g><g style="display: none;"><g><path></path></g><g><g><path></path></g><g><path></path></g><g><path></path></g><g><path></path></g><g><path></path></g></g><g><path></path></g><g><path stroke-linecap="round" stroke-linejoin="round" fill-opacity="0"></path></g><g><g><path stroke-linecap="round" stroke-linejoin="round" fill-opacity="0"></path></g></g><g><g><path stroke-linecap="round" stroke-linejoin="round" fill-opacity="0"></path></g></g><g><g><path stroke-linecap="round" stroke-linejoin="round" fill-opacity="0"></path></g><g><path stroke-linecap="round" stroke-linejoin="round" fill-opacity="0"></path></g></g></g><g style="display: none;"><g><path></path></g></g><g style="display: none;"><g><path></path></g><g><g><path></path></g><g><path></path></g><g><path></path></g><g><path></path></g><g><path></path></g></g><g><path></path></g><g><path stroke-linecap="round" stroke-linejoin="round" fill-opacity="0"></path></g><g><g><path stroke-linecap="round" stroke-linejoin="round" fill-opacity="0"></path></g></g><g><g><path stroke-linecap="round" stroke-linejoin="round" fill-opacity="0"></path></g></g><g><g><path stroke-linecap="round" stroke-linejoin="round" fill-opacity="0"></path></g><g><path stroke-linecap="round" stroke-linejoin="round" fill-opacity="0"></path></g></g></g><g style="display: none;"><g><path></path><path stroke-linecap="round" stroke-linejoin="round" fill-opacity="0"></path></g><g><path></path><path stroke-linecap="round" stroke-linejoin="round" fill-opacity="0"></path></g><g><path></path><path stroke-linecap="round" stroke-linejoin="round" fill-opacity="0"></path></g></g><g style="display: none;"><g><path stroke-linecap="round" stroke-linejoin="round" fill-opacity="0"></path></g></g><g style="display: none;"><g><path stroke-linecap="round" stroke-linejoin="round" fill-opacity="0"></path></g></g><g style="display: none;"><g><path stroke-linecap="round" stroke-linejoin="round" fill-opacity="0"></path></g></g><g style="display: none;"><g><path stroke-linecap="round" stroke-linejoin="round" fill-opacity="0"></path></g></g></g></svg>