<svg xmlns="http://www.w3.org/2000/svg" viewBox="0 0 512 512" width="512" height="512" style="width: 100%; height: 100%; transform: translate3d(0,0,0);" preserveAspectRatio="xMidYMid meet"><defs><clipPath id="__lottie_element_22635"><rect width="512" height="512" x="0" y="0"></rect></clipPath><linearGradient id="__lottie_element_22645" spreadMethod="pad" gradientUnits="userSpaceOnUse" x1="44" y1="223" x2="44" y2="147.11099243164062"><stop offset="0%" stop-color="rgb(247,248,248)"></stop><stop offset="50%" stop-color="rgb(244,245,245)"></stop><stop offset="100%" stop-color="rgb(241,242,242)"></stop></linearGradient><linearGradient id="__lottie_element_22646" spreadMethod="pad" gradientUnits="userSpaceOnUse" x1="-54" y1="223" x2="-54" y2="147.11099243164062"><stop offset="0%" stop-color="rgb(247,248,248)"></stop><stop offset="50%" stop-color="rgb(244,245,245)"></stop><stop offset="100%" stop-color="rgb(241,242,242)"></stop></linearGradient><linearGradient id="__lottie_element_22676" spreadMethod="pad" gradientUnits="userSpaceOnUse" x1="-241.1820068359375" y1="-9.182000160217285" x2="-218.5590057373047" y2="17.670000076293945"><stop offset="0%" stop-color="rgb(60,5,0)"></stop><stop offset="38%" stop-color="rgb(111,45,0)"></stop><stop offset="100%" stop-color="rgb(162,84,0)"></stop></linearGradient><linearGradient id="__lottie_element_22683" spreadMethod="pad" gradientUnits="userSpaceOnUse" x1="-124.36399841308594" y1="-9.63599967956543" x2="-100.37699890136719" y2="18.124000549316406"><stop offset="0%" stop-color="rgb(60,5,0)"></stop><stop offset="38%" stop-color="rgb(111,45,0)"></stop><stop offset="100%" stop-color="rgb(162,84,0)"></stop></linearGradient></defs><g clip-path="url(#__lottie_element_22635)"><g style="display: block;" transform="matrix(1.0999953746795654,0,0,1.0999953746795654,426.0003356933594,235.99966430664062)" opacity="1"><g opacity="1" transform="matrix(1,0,0,1,0,0)"><path fill="rgb(247,173,0)" fill-opacity="1" d=" M-57.034000396728516,-88.44000244140625 C-94.66300201416016,-147.31900024414062 -173.2989959716797,-145.7760009765625 -173.2989959716797,-145.7760009765625 C-173.2989959716797,-145.7760009765625 -251.93499755859375,-147.31900024414062 -289.5639953613281,-88.44000244140625 C-327.1929931640625,-29.562000274658203 -343.1579895019531,81.23400115966797 -334.2900085449219,121.76000213623047 C-331.2980041503906,135.43499755859375 -317.20599365234375,143.84300231933594 -291.1289978027344,150.2729949951172 C-259.2080078125,158.1439971923828 -222.25,163.1219940185547 -173.2989959716797,163.1219940185547 C-124.3479995727539,163.1219940185547 -83.48200225830078,157.67300415039062 -49.06399917602539,150.2729949951172 C-25.32200050354004,145.16799926757812 -6.552999973297119,135.74400329589844 -5.9029998779296875,121.76000213623047 C-4.681000232696533,95.45600128173828 -6.21999979019165,67.85800170898438 -10.559000015258789,40.54100036621094 C-17.923999786376953,-5.828999996185303 -33.35499954223633,-51.388999938964844 -57.034000396728516,-88.44000244140625z"></path></g><g opacity="0.5" transform="matrix(1,0,0,1,0,0)"><path fill="rgb(187,98,0)" fill-opacity="1" d=" M-5.506999969482422,105.74099731445312 C-5.546999931335449,104.81099700927734 -11.770000457763672,36.61199951171875 -40.75699996948242,49.89099884033203 C-58.03300094604492,57.80500030517578 -57.034000396728516,73.36000061035156 -84.21299743652344,103.1729965209961 C-110.61599731445312,132.13400268554688 -91.13600158691406,147.04600524902344 -71.61799621582031,154.29299926757812 C-90.22699737548828,160.6820068359375 -142.90699768066406,163.12100219726562 -173.2969970703125,163.12100219726562 C-173.2969970703125,163.12100219726562 -173.2969970703125,-44.57899856567383 -173.2969970703125,-44.57899856567383 C-173.2969970703125,-44.57899856567383 -78.80699920654297,-113.1989974975586 -78.80699920654297,-113.1989974975586 C-70.7770004272461,-106.4489974975586 -63.33700180053711,-98.28900146484375 -57.0369987487793,-88.43900299072266 C-33.37099838256836,-51.40399932861328 -17.941999435424805,-5.86899995803833 -10.572999954223633,40.47700119018555 C-7.099999904632568,62.31999969482422 -5.416999816894531,84.34300231933594 -5.506999969482422,105.74099731445312z"></path></g><g opacity="0.5" transform="matrix(1,0,0,1,0,0)"><path fill="rgb(187,98,0)" fill-opacity="1" d=" M-337.2850036621094,105.74099731445312 C-337.2449951171875,104.81099700927734 -334.0220031738281,36.61199951171875 -305.0350036621094,49.89099884033203 C-287.7590026855469,57.80500030517578 -288.7590026855469,73.36000061035156 -261.5799865722656,103.1729965209961 C-235.177001953125,132.13400268554688 -252.27200317382812,144.7729949951172 -273.9469909667969,154.0659942626953 C-250.34100341796875,158.63699340820312 -202.88499450683594,163.12100219726562 -172.4949951171875,163.12100219726562 C-172.4949951171875,163.12100219726562 -172.4949951171875,-44.57899856567383 -172.4949951171875,-44.57899856567383 C-172.4949951171875,-44.57899856567383 -266.9849853515625,-113.1989974975586 -266.9849853515625,-113.1989974975586 C-275.0150146484375,-106.4489974975586 -282.4549865722656,-98.28900146484375 -288.7550048828125,-88.43900299072266 C-323.57501220703125,-33.94900131225586 -343.3080139160156,31.090999603271484 -337.2850036621094,105.74099731445312z"></path></g><g opacity="1" transform="matrix(1,0,0,1,0,0)"><path stroke-linecap="round" stroke-linejoin="round" fill-opacity="0" stroke="rgb(187,98,0)" stroke-opacity="1" stroke-width="8" d=" M-57.034000396728516,-88.44000244140625 C-94.66300201416016,-147.31900024414062 -173.2989959716797,-145.7760009765625 -173.2989959716797,-145.7760009765625 C-173.2989959716797,-145.7760009765625 -251.93499755859375,-147.31900024414062 -289.5639953613281,-88.44000244140625 C-327.1929931640625,-29.562000274658203 -343.1579895019531,81.23400115966797 -334.2900085449219,121.76000213623047 C-331.2980041503906,135.43499755859375 -317.20599365234375,143.84300231933594 -291.1289978027344,150.2729949951172 C-259.2080078125,158.1439971923828 -222.25,163.1219940185547 -173.2989959716797,163.1219940185547 C-124.3479995727539,163.1219940185547 -83.48200225830078,157.67300415039062 -49.06399917602539,150.2729949951172 C-25.32200050354004,145.16799926757812 -6.552999973297119,135.74400329589844 -5.9029998779296875,121.76000213623047 C-4.670000076293945,95.21099853515625 -6.249000072479248,67.34400177001953 -10.680999755859375,39.77799987792969 C-18.0939998626709,-6.328000068664551 -33.48500061035156,-51.59199905395508 -57.034000396728516,-88.44000244140625z"></path></g></g><g style="display: block;" transform="matrix(1.090000033378601,0,0,1.090000033378601,243.0006561279297,253.99954223632812)" opacity="1"><g opacity="1" transform="matrix(1,0,0,1,0,0)"><g opacity="1" transform="matrix(1,0,0,1,0,0)"><path stroke-linecap="round" stroke-linejoin="round" fill-opacity="0" stroke="rgb(146,159,165)" stroke-opacity="1" stroke-width="8" d=" M-60.888999938964844,133.1280059814453 C-60.888999938964844,133.1280059814453 -54.90299987792969,118.77100372314453 -45.39799880981445,114.09500122070312"></path></g><g opacity="1" transform="matrix(1,0,0,1,0,0)"><path stroke-linecap="round" stroke-linejoin="round" fill-opacity="0" stroke="rgb(146,159,165)" stroke-opacity="1" stroke-width="8" d=" M46.52199935913086,124.32499694824219 C46.52199935913086,124.32499694824219 42.89099884033203,117.31400299072266 36.06700134277344,114.76100158691406"></path></g></g><g opacity="1" transform="matrix(1,0,0,1,0,0)"><path fill="rgb(147,18,149)" fill-opacity="1" d=" M-51.64899826049805,236.32000732421875 C-51.64899826049805,236.32000732421875 -51.64899826049805,133.1269989013672 -51.64899826049805,133.1269989013672 C-39.1870002746582,130.99400329589844 -25.659000396728516,129.42300415039062 -11.13700008392334,128.55799865722656 C-11.13700008392334,128.55799865722656 3.943000078201294,128.8459930419922 3.943000078201294,128.8459930419922 C3.943000078201294,128.8459930419922 42.388999938964844,133.1280059814453 42.388999938964844,133.1280059814453 C42.388999938964844,133.1280059814453 42.388999938964844,236.3179931640625 42.388999938964844,236.3179931640625"></path></g><g opacity="1" transform="matrix(1,0,0,1,0,0)"><path fill="rgb(213,213,213)" fill-opacity="1" d=" M-51.64899826049805,133.1280059814453 C-51.64899826049805,133.1280059814453 -51.64899826049805,236.3179931640625 -51.64899826049805,236.3179931640625 C-51.64899826049805,236.3179931640625 -125.62899780273438,236.3179931640625 -125.62899780273438,236.3179931640625 C-135.5489959716797,236.3179931640625 -142.9290008544922,235.3280029296875 -148.33900451660156,234.03799438476562 C-158.63900756835938,231.5679931640625 -161.8090057373047,227.9980010986328 -161.8090057373047,227.9980010986328 C-160.00900268554688,214.59800720214844 -155.10899353027344,188.197998046875 -143.18899536132812,173.29800415039062 C-130.18899536132812,157.05799865722656 -98.42900085449219,141.1280059814453 -51.64899826049805,133.1280059814453z"></path></g><g opacity="0.8" transform="matrix(1,0,0,1,0,0)"><path fill="rgb(243,243,243)" fill-opacity="1" d=" M-51.64899826049805,133.1280059814453 C-51.64899826049805,133.1280059814453 -51.64899826049805,150.72799682617188 -51.64899826049805,150.72799682617188 C-51.64899826049805,150.72799682617188 -110.01899719238281,156.8979949951172 -132.9290008544922,185.35800170898438 C-141.60899353027344,196.13800048828125 -146.73899841308594,221.67799377441406 -148.33900451660156,234.03799438476562 C-158.63900756835938,231.5679931640625 -161.8090057373047,227.9980010986328 -161.8090057373047,227.9980010986328 C-160.00900268554688,214.59800720214844 -155.10899353027344,188.197998046875 -143.18899536132812,173.29800415039062 C-130.18899536132812,157.05799865722656 -98.42900085449219,141.1280059814453 -51.64899826049805,133.1280059814453z"></path></g><g opacity="1" transform="matrix(1,0,0,1,0,0)"><g opacity="1" transform="matrix(1,0,0,1,0,0)"><path fill="rgb(128,140,147)" fill-opacity="1" d=" M-157.71400451660156,221.31500244140625 C-157.71400451660156,221.31500244140625 -158.43099975585938,226.6199951171875 -158.88699340820312,230.1199951171875 C-158.88699340820312,230.1199951171875 -166.3000030517578,226.05799865722656 -165.7429962158203,221.51499938964844 C-165.7429962158203,221.51499938964844 -157.71400451660156,221.31500244140625 -157.71400451660156,221.31500244140625z"></path></g><g opacity="1" transform="matrix(1,0,0,1,0,0)"><path stroke-linecap="round" stroke-linejoin="round" fill-opacity="0" stroke="rgb(128,140,147)" stroke-opacity="1" stroke-width="8" d=" M-161.8090057373047,221.94400024414062 C-160.7729949951172,213.80599975585938 -157.04600524902344,190.625 -143.18899536132812,173.29800415039062 C-130.18899536132812,157.05799865722656 -98.42900085449219,141.1280059814453 -51.64899826049805,133.1280059814453 C-51.64899826049805,133.1280059814453 -51.64899826049805,231.3179931640625 -51.64899826049805,231.3179931640625"></path></g></g><g opacity="0.6" transform="matrix(1,0,0,1,0,0)"><path stroke-linecap="round" stroke-linejoin="round" fill-opacity="0" stroke="rgb(128,140,147)" stroke-opacity="1" stroke-width="5" d=" M-139.78500366210938,169.49000549316406 C-139.78500366210938,169.49000549316406 -138.54600524902344,197.18699645996094 -126.375,233.1199951171875"></path></g><g opacity="1" transform="matrix(1,0,0,1,0,0)"><path fill="rgb(213,213,213)" fill-opacity="1" d=" M151.9810028076172,227.9980010986328 C151.9810028076172,227.9980010986328 151.9810028076172,227.9980010986328 151.9810028076172,227.9980010986328 C151.9810028076172,227.9980010986328 148.92100524902344,231.447998046875 139.06100463867188,233.8979949951172 C133.6009979248047,235.25799560546875 126.06099700927734,236.3179931640625 115.8010025024414,236.3179931640625 C115.8010025024414,236.3179931640625 42.39099884033203,236.3179931640625 42.39099884033203,236.3179931640625 C42.39099884033203,236.3179931640625 42.39099884033203,133.1280059814453 42.39099884033203,133.1280059814453 C89.1709976196289,141.1280059814453 120.93099975585938,157.05799865722656 133.93099975585938,173.29800415039062 C146.17100524902344,188.60800170898438 150.31100463867188,214.97799682617188 151.9810028076172,227.9980010986328z"></path></g><g opacity="0.8" transform="matrix(1,0,0,1,0,0)"><path fill="rgb(243,243,243)" fill-opacity="1" d=" M151.9810028076172,227.9980010986328 C151.9810028076172,227.9980010986328 151.9810028076172,227.9980010986328 151.9810028076172,227.9980010986328 C151.9810028076172,227.9980010986328 148.92100524902344,231.447998046875 139.06100463867188,233.8979949951172 C137.4409942626953,221.48800659179688 132.3209991455078,196.09800720214844 123.6709976196289,185.35800170898438 C100.76100158691406,156.8979949951172 42.39099884033203,150.72799682617188 42.39099884033203,150.72799682617188 C42.39099884033203,150.72799682617188 42.39099884033203,133.1280059814453 42.39099884033203,133.1280059814453 C89.1709976196289,141.1280059814453 120.93099975585938,157.05799865722656 133.93099975585938,173.29800415039062 C146.17100524902344,188.60800170898438 150.31100463867188,214.97799682617188 151.9810028076172,227.9980010986328z"></path></g><g opacity="1" transform="matrix(1,0,0,1,0,0)"><g opacity="1" transform="matrix(1,0,0,1,0,0)"><path fill="rgb(128,140,147)" fill-opacity="1" d=" M148.53799438476562,221.31500244140625 C148.53799438476562,221.31500244140625 149.26400756835938,226.2270050048828 149.72000122070312,229.7270050048828 C149.72000122070312,229.7270050048828 157.1699981689453,226.05799865722656 156.61300659179688,221.51499938964844 C156.61300659179688,221.51499938964844 148.53799438476562,221.31500244140625 148.53799438476562,221.31500244140625z"></path></g><g opacity="1" transform="matrix(1,0,0,1,0,0)"><path stroke-linecap="round" stroke-linejoin="round" fill-opacity="0" stroke="rgb(128,140,147)" stroke-opacity="1" stroke-width="8" d=" M152.6320037841797,221.87899780273438 C151.8419952392578,215.17300415039062 148.38999938964844,191.37899780273438 133.92999267578125,173.29800415039062 C120.93000030517578,157.05799865722656 89.16899871826172,141.1280059814453 42.388999938964844,133.1280059814453 C42.388999938964844,133.1280059814453 42.388999938964844,231.3179931640625 42.388999938964844,231.3179931640625"></path></g></g><g opacity="0.6" transform="matrix(1,0,0,1,0,0)"><path stroke-linecap="round" stroke-linejoin="round" fill-opacity="0" stroke="rgb(128,140,147)" stroke-opacity="1" stroke-width="5" d=" M130.5260009765625,169.49000549316406 C130.5260009765625,169.49000549316406 128.61199951171875,197.38699340820312 116.44100189208984,233.32000732421875"></path></g><g opacity="1" transform="matrix(1,0,0,1,0,0)"><path fill="rgb(246,173,0)" fill-opacity="1" d=" M-43.680999755859375,103.62000274658203 C-43.680999755859375,103.62000274658203 -50.96799850463867,127.16500091552734 -50.96799850463867,127.16500091552734 C-50.96799850463867,130.35800170898438 -53.481998443603516,146.9810028076172 -51.64899826049805,150.72799682617188 C-43.83599853515625,166.70599365234375 -13.670000076293945,187.72300720214844 -4.165999889373779,187.72300720214844 C4.964000225067139,187.72300720214844 34.31399917602539,166.4199981689453 42.39099884033203,150.72799682617188 C44.22800064086914,147.16000366210938 42.05500030517578,130.27000427246094 42.05500030517578,127.16500091552734 C42.05500030517578,127.16500091552734 33.321998596191406,98.88200378417969 33.321998596191406,98.88200378417969 C33.321998596191406,98.88200378417969 -43.680999755859375,103.62000274658203 -43.680999755859375,103.62000274658203z"></path></g><g opacity="0.3" transform="matrix(1,0,0,1,0,0)"><path fill="rgb(207,114,0)" fill-opacity="1" d=" M37.22600173950195,125.41899871826172 C37.928001403808594,128.4239959716797 38.06999969482422,132.88099670410156 35.777000427246094,136.13099670410156 C25.149999618530273,142.7519989013672 9.595000267028809,147.177001953125 -4.573999881744385,147.177001953125 C-18.69099998474121,147.177001953125 -35.042999267578125,142.7519989013672 -44.78900146484375,136.19400024414062 C-46.95600128173828,133.0590057373047 -47.31100082397461,130.156005859375 -46.96799850463867,127.16500091552734 C-46.02299880981445,118.91400146484375 -42.70800018310547,111.02300262451172 -42.70800018310547,111.02300262451172 C-42.70800018310547,111.02300262451172 33.590999603271484,109.93900299072266 33.590999603271484,109.93900299072266 C33.590999603271484,109.93900299072266 35.38800048828125,117.54399871826172 37.22600173950195,125.41899871826172z"></path></g><g opacity="1" transform="matrix(1,0,0,1,0,0)"><path stroke-linecap="round" stroke-linejoin="round" fill-opacity="0" stroke="rgb(207,114,0)" stroke-opacity="1" stroke-width="8" d=" M39.71200180053711,138.1439971923828 C40.02199935913086,135.77000427246094 34.14699935913086,104.53500366210938 34.14699935913086,103.62000274658203 C34.14699935913086,103.62000274658203 32.14699935913086,103.62000274658203 32.14699935913086,103.62000274658203 C32.14699935913086,103.62000274658203 -43.680999755859375,103.62000274658203 -43.680999755859375,103.62000274658203 C-43.680999755859375,103.62000274658203 -48.92900085449219,134.802001953125 -48.571998596191406,137.4250030517578"></path></g><g opacity="1" transform="matrix(1,0,0,1,0,0)"><path stroke-linecap="round" stroke-linejoin="round" fill-opacity="0" stroke="rgb(56,0,64)" stroke-opacity="1" stroke-width="10" d=" M45.051998138427734,139.33399963378906 C41.17300033569336,156.14199829101562 12.265999794006348,188.72300720214844 -3.308000087738037,188.72300720214844 C-18.054000854492188,188.72300720214844 -50.507999420166016,155.17100524902344 -54.31100082397461,139.33399963378906"></path></g><g opacity="1" transform="matrix(1,0,0,1,0,0)"><path stroke-linecap="round" stroke-linejoin="round" fill-opacity="0" stroke="rgb(31,32,32)" stroke-opacity="1" stroke-width="8" d=" M46.52199935913086,124.32499694824219 C46.52199935913086,124.32499694824219 65.14099884033203,126.15899658203125 75.46900177001953,145.656005859375"></path></g><g opacity="1" transform="matrix(1,0,0,1,0,0)"><g opacity="1" transform="matrix(1,0,0,1,0,0)"><path fill="url(#__lottie_element_22645)" fill-opacity="1" d=" M14.45300006866455,236.3179931640625 C14.45300006866455,236.3179931640625 32.72999954223633,167.6280059814453 43.71500015258789,121.32499694824219 C43.71500015258789,121.32499694824219 50.36800003051758,130.05999755859375 50.36800003051758,130.05999755859375 C50.36800003051758,130.05999755859375 65.32599639892578,156.93099975585938 70.71199798583984,188.72300720214844 C70.71199798583984,188.72300720214844 49.36800003051758,194.6479949951172 49.36800003051758,194.6479949951172 C49.36800003051758,194.6479949951172 65.18099975585938,205.72900390625 74.4800033569336,212.60299682617188 C74.4800033569336,212.60299682617188 66.82599639892578,236.3179931640625 66.82599639892578,236.3179931640625"></path></g><g opacity="1" transform="matrix(1,0,0,1,0,0)"><path stroke-linecap="round" stroke-linejoin="round" fill-opacity="0" stroke="rgb(146,159,165)" stroke-opacity="1" stroke-width="8" d=" M15.725000381469727,231.3179931640625 C15.725000381469727,231.3179931640625 45.10300064086914,122.09700012207031 45.10300064086914,122.09700012207031 C47.26300048828125,125.09700012207031 50.36800003051758,130.05999755859375 50.36800003051758,130.05999755859375 C50.36800003051758,130.05999755859375 65.32599639892578,156.93099975585938 70.71199798583984,188.72300720214844 C70.71199798583984,188.72300720214844 49.36800003051758,194.6479949951172 49.36800003051758,194.6479949951172 C49.36800003051758,194.6479949951172 65.18099975585938,205.72900390625 74.4800033569336,212.60299682617188 C74.4800033569336,212.60299682617188 67.41600036621094,231.3179931640625 67.41600036621094,231.3179931640625"></path></g><g opacity="1" transform="matrix(1,0,0,1,0,0)"><path fill="rgb(146,159,165)" fill-opacity="1" d=" M12.343000411987305,228.468994140625 C12.343000411987305,228.468994140625 10.277999877929688,236.32000732421875 10.277999877929688,236.32000732421875 C10.277999877929688,236.32000732421875 18.523000717163086,236.32000732421875 18.523000717163086,236.32000732421875 C18.523000717163086,236.32000732421875 20.40999984741211,229.2030029296875 20.40999984741211,229.2030029296875 C20.40999984741211,229.2030029296875 12.343000411987305,228.468994140625 12.343000411987305,228.468994140625z"></path></g><g opacity="1" transform="matrix(1,0,0,1,0,0)"><path fill="rgb(146,159,165)" fill-opacity="1" d=" M64.22000122070312,228.468994140625 C64.22000122070312,228.468994140625 61.17100143432617,236.32000732421875 61.17100143432617,236.32000732421875 C61.17100143432617,236.32000732421875 69.81300354003906,236.32000732421875 69.81300354003906,236.32000732421875 C69.81300354003906,236.32000732421875 72.48200225830078,229.2030029296875 72.48200225830078,229.2030029296875 C72.48200225830078,229.2030029296875 64.22000122070312,228.468994140625 64.22000122070312,228.468994140625z"></path></g></g><g opacity="1" transform="matrix(1,0,0,1,0,0)"><g opacity="1" transform="matrix(1,0,0,1,0,0)"><path stroke-linecap="round" stroke-linejoin="round" fill-opacity="0" stroke="rgb(31,32,32)" stroke-opacity="1" stroke-width="8" d=" M72.4800033569336,229.32000732421875 C72.4800033569336,229.32000732421875 53.89400100708008,233.94500732421875 46.944000244140625,219.41299438476562 C39.99399948120117,204.88099670410156 49.308998107910156,159.96099853515625 55.15800094604492,152.93099975585938 C62.04199981689453,144.656005859375 88.97799682617188,143.41000366210938 97.51100158691406,151.1739959716797 C108.09600067138672,160.8040008544922 118.2969970703125,208.22900390625 112.97100067138672,220.0449981689453 C108.55599975585938,229.84100341796875 88.01300048828125,228.3939971923828 88.01300048828125,228.3939971923828"></path></g><g opacity="1" transform="matrix(1,0,0,1,0,0)"><path stroke-linecap="round" stroke-linejoin="round" fill-opacity="0" stroke="rgb(98,102,104)" stroke-opacity="1" stroke-width="8" d=" M106.63899993896484,168.39300537109375 C112.86599731445312,186.36700439453125 116.6760025024414,211.82400512695312 112.97100067138672,220.0449981689453 C108.55599975585938,229.84100341796875 88.01300048828125,228.3939971923828 88.01300048828125,228.3939971923828"></path></g><g opacity="1" transform="matrix(1,0,0,1,0,0)"><path stroke-linecap="round" stroke-linejoin="round" fill-opacity="0" stroke="rgb(191,193,195)" stroke-opacity="1" stroke-width="4" d=" M107.28700256347656,166.76300048828125 C113.51399993896484,184.73699951171875 117.6760025024414,211.82400512695312 113.97100067138672,220.0449981689453 C112.40799713134766,223.51300048828125 108.8239974975586,226.10499572753906 104.84500122070312,227.3179931640625"></path></g><g opacity="1" transform="matrix(1,0,0,1,0,0)"><path stroke-linecap="round" stroke-linejoin="round" fill-opacity="0" stroke="rgb(98,102,104)" stroke-opacity="1" stroke-width="8" d=" M72.4800033569336,229.32000732421875 C72.4800033569336,229.32000732421875 53.89400100708008,233.94500732421875 46.944000244140625,219.41299438476562 C42.51900100708008,210.16000366210938 44.6879997253418,188.58799743652344 48.356998443603516,172.3209991455078"></path></g><g opacity="1" transform="matrix(1,0,0,1,0,0)"><path stroke-linecap="round" stroke-linejoin="round" fill-opacity="0" stroke="rgb(191,193,195)" stroke-opacity="1" stroke-width="4" d=" M54.369998931884766,226.427001953125 C51.84700012207031,224.81900024414062 49.57500076293945,222.82400512695312 47.944000244140625,219.41299438476562 C43.51900100708008,210.16000366210938 45.926998138427734,187.5449981689453 49.59600067138672,171.2779998779297"></path></g><g opacity="1" transform="matrix(1,0,0,1,0,0)"><path stroke-linecap="round" stroke-linejoin="round" fill-opacity="0" stroke="rgb(31,32,32)" stroke-opacity="1" stroke-width="12" d=" M93.177001953125,228.42100524902344 C90.14199829101562,228.54400634765625 88.01300048828125,228.3939971923828 88.01300048828125,228.3939971923828"></path></g><g opacity="1" transform="matrix(1,0,0,1,0,0)"><path stroke-linecap="round" stroke-linejoin="round" fill-opacity="0" stroke="rgb(31,32,32)" stroke-opacity="1" stroke-width="12" d=" M72.4800033569336,229.32000732421875 C72.4800033569336,229.32000732421875 70.48899841308594,229.8159942626953 67.56600189208984,229.97300720214844"></path></g><g opacity="1" transform="matrix(1,0,0,1,0,0)"><path stroke-linecap="round" stroke-linejoin="round" fill-opacity="0" stroke="rgb(82,86,89)" stroke-opacity="1" stroke-width="4" d=" M88.19499969482422,225.95199584960938 C88.19499969482422,225.95199584960938 92.33899688720703,225.95199584960938 92.33899688720703,225.95199584960938"></path></g><g opacity="1" transform="matrix(1,0,0,1,0,0)"><path stroke-linecap="round" stroke-linejoin="round" fill-opacity="0" stroke="rgb(82,86,89)" stroke-opacity="1" stroke-width="4" d=" M67.447998046875,227.33700561523438 C67.447998046875,227.33700561523438 71.73999786376953,226.78399658203125 71.73999786376953,226.78399658203125"></path></g></g><g opacity="1" transform="matrix(1,0,0,1,0,0)"><path stroke-linecap="round" stroke-linejoin="round" fill-opacity="0" stroke="rgb(31,32,32)" stroke-opacity="1" stroke-width="8" d=" M-98.73300170898438,203.83599853515625 C-98.73300170898438,203.83599853515625 -94.11399841308594,141.8300018310547 -54.3120002746582,123.94599914550781"></path></g><g opacity="1" transform="matrix(1,0,0,1,0,0)"><g opacity="1" transform="matrix(1,0,0,1,0,0)"><path fill="url(#__lottie_element_22646)" fill-opacity="1" d=" M-23.365999221801758,236.3179931640625 C-23.365999221801758,236.3179931640625 -41.643001556396484,167.6280059814453 -52.62799835205078,121.32499694824219 C-52.62799835205078,121.32499694824219 -59.28099822998047,130.05999755859375 -59.28099822998047,130.05999755859375 C-59.28099822998047,130.05999755859375 -74.23899841308594,156.93099975585938 -79.625,188.72300720214844 C-79.625,188.72300720214844 -58.28099822998047,194.6479949951172 -58.28099822998047,194.6479949951172 C-58.28099822998047,194.6479949951172 -74.09400177001953,205.72900390625 -83.39299774169922,212.60299682617188 C-83.39299774169922,212.60299682617188 -75.73899841308594,236.3179931640625 -75.73899841308594,236.3179931640625"></path></g><g opacity="1" transform="matrix(1,0,0,1,0,0)"><path stroke-linecap="round" stroke-linejoin="round" fill-opacity="0" stroke="rgb(146,159,165)" stroke-opacity="1" stroke-width="8" d=" M-24.63800048828125,231.3179931640625 C-24.63800048828125,231.3179931640625 -54.3120002746582,122.94599914550781 -54.3120002746582,122.94599914550781 C-56.625999450683594,125.34200286865234 -59.28099822998047,130.05999755859375 -59.28099822998047,130.05999755859375 C-59.28099822998047,130.05999755859375 -74.23899841308594,156.93099975585938 -79.625,188.72300720214844 C-79.625,188.72300720214844 -58.28099822998047,194.6479949951172 -58.28099822998047,194.6479949951172 C-58.28099822998047,194.6479949951172 -74.09400177001953,205.72900390625 -83.39299774169922,212.60299682617188 C-83.39299774169922,212.60299682617188 -76.3290023803711,231.3179931640625 -76.3290023803711,231.3179931640625"></path></g><g opacity="1" transform="matrix(1,0,0,1,0,0)"><path fill="rgb(146,159,165)" fill-opacity="1" d=" M-21.256000518798828,228.468994140625 C-21.256000518798828,228.468994140625 -19.19099998474121,236.32000732421875 -19.19099998474121,236.32000732421875 C-19.19099998474121,236.32000732421875 -27.43600082397461,236.32000732421875 -27.43600082397461,236.32000732421875 C-27.43600082397461,236.32000732421875 -29.322999954223633,229.2030029296875 -29.322999954223633,229.2030029296875 C-29.322999954223633,229.2030029296875 -21.256000518798828,228.468994140625 -21.256000518798828,228.468994140625z"></path></g><g opacity="1" transform="matrix(1,0,0,1,0,0)"><path fill="rgb(146,159,165)" fill-opacity="1" d=" M-73.13300323486328,228.468994140625 C-73.13300323486328,228.468994140625 -70.08399963378906,236.32000732421875 -70.08399963378906,236.32000732421875 C-70.08399963378906,236.32000732421875 -78.7249984741211,236.32000732421875 -78.7249984741211,236.32000732421875 C-78.7249984741211,236.32000732421875 -81.3949966430664,229.2030029296875 -81.3949966430664,229.2030029296875 C-81.3949966430664,229.2030029296875 -73.13300323486328,228.468994140625 -73.13300323486328,228.468994140625z"></path></g></g><g opacity="1" transform="matrix(1,0,0,1,0,0)"><path stroke-linecap="round" stroke-linejoin="round" fill-opacity="0" stroke="rgb(255,255,255)" stroke-opacity="1" stroke-width="4" d=" M111.97699737548828,187.72300720214844 C111.97699737548828,187.72300720214844 113.56400299072266,195.8939971923828 113.56400299072266,195.8939971923828"></path></g><g opacity="1" transform="matrix(1,0,0,1,0,0)"><g opacity="1" transform="matrix(1,0,0,1,0,0)"><path fill="rgb(98,102,104)" fill-opacity="1" d=" M-84.8949966430664,216.8820037841797 C-84.8949966430664,225.1529998779297 -91.5999984741211,231.85699462890625 -99.87000274658203,231.85699462890625 C-108.14099884033203,231.85699462890625 -114.84500122070312,225.1529998779297 -114.84500122070312,216.8820037841797 C-114.84500122070312,208.61199951171875 -108.14099884033203,201.90699768066406 -99.87000274658203,201.90699768066406 C-91.5999984741211,201.90699768066406 -84.8949966430664,208.61199951171875 -84.8949966430664,216.8820037841797z"></path><path stroke-linecap="round" stroke-linejoin="round" fill-opacity="0" stroke="rgb(98,102,104)" stroke-opacity="1" stroke-width="8" d=" M-84.8949966430664,216.8820037841797 C-84.8949966430664,225.1529998779297 -91.5999984741211,231.85699462890625 -99.87000274658203,231.85699462890625 C-108.14099884033203,231.85699462890625 -114.84500122070312,225.1529998779297 -114.84500122070312,216.8820037841797 C-114.84500122070312,208.61199951171875 -108.14099884033203,201.90699768066406 -99.87000274658203,201.90699768066406 C-91.5999984741211,201.90699768066406 -84.8949966430664,208.61199951171875 -84.8949966430664,216.8820037841797z"></path></g><g opacity="1" transform="matrix(1,0,0,1,0,0)"><path fill="rgb(203,207,208)" fill-opacity="1" d=" M-88.39299774169922,216.8820037841797 C-88.39299774169922,223.7729949951172 -93.97899627685547,229.35899353027344 -100.87000274658203,229.35899353027344 C-107.76100158691406,229.35899353027344 -113.3479995727539,223.7729949951172 -113.3479995727539,216.8820037841797 C-113.3479995727539,209.99099731445312 -107.76100158691406,204.40499877929688 -100.87000274658203,204.40499877929688 C-93.97899627685547,204.40499877929688 -88.39299774169922,209.99099731445312 -88.39299774169922,216.8820037841797z"></path></g><g opacity="1" transform="matrix(1,0,0,1,0,0)"><path stroke-linecap="round" stroke-linejoin="round" fill-opacity="0" stroke="rgb(255,255,255)" stroke-opacity="1" stroke-width="4" d=" M-95.67400360107422,209.10699462890625 C-94.93199920654297,209.572998046875 -91.23699951171875,212.33399963378906 -91.71499633789062,217.44000244140625"></path></g></g><g opacity="1" transform="matrix(1,0,0,1,0,0)"><g opacity="1" transform="matrix(1,0,0,1,0,0)"><path stroke-linecap="round" stroke-linejoin="round" fill-opacity="0" stroke="rgb(255,255,255)" stroke-opacity="1" stroke-width="6" d=" M29.672000885009766,-176.42100524902344 C31.187000274658203,-176.08399963378906 32.7599983215332,-175.71499633789062 34.380001068115234,-175.30799865722656"></path></g><g opacity="1" transform="matrix(1,0,0,1,0,0)"><path stroke-linecap="round" stroke-linejoin="round" fill-opacity="0" stroke="rgb(255,255,255)" stroke-opacity="1" stroke-width="6" d=" M8.621999740600586,-179.67799377441406 C8.621999740600586,-179.67799377441406 13.420999526977539,-179.4029998779297 21.034000396728516,-178.11300659179688"></path></g></g></g><g style="display: block;" transform="matrix(1.0999953746795654,0,0,1.0999953746795654,426.0003356933594,235.99966430664062)" opacity="1"><g opacity="1" transform="matrix(1,0,0,1,0,0)"><path fill="rgb(246,173,0)" fill-opacity="1" d=" M-82.39199829101562,-99.10600280761719 C-103.552001953125,-128.49400329589844 -131.41299438476562,-145.7760009765625 -173.2989959716797,-145.7760009765625 C-215.18499755859375,-145.7760009765625 -243.0469970703125,-128.49400329589844 -264.20599365234375,-99.10600280761719 C-285.3659973144531,-69.71800231933594 -302.99798583984375,-1.1859999895095825 -275.37298583984375,56.415000915527344 C-247.74899291992188,114.01599884033203 -201.07899475097656,132.23500061035156 -173.2989959716797,132.23500061035156 C-145.5189971923828,132.23500061035156 -98.8489990234375,114.01599884033203 -71.2239990234375,56.415000915527344 C-43.599998474121094,-1.1859999895095825 -61.233001708984375,-69.71800231933594 -82.39199829101562,-99.10600280761719z"></path><path stroke-linecap="round" stroke-linejoin="round" fill-opacity="0" stroke="rgb(207,114,0)" stroke-opacity="1" stroke-width="8" d=" M-82.39199829101562,-99.10600280761719 C-103.552001953125,-128.49400329589844 -131.41299438476562,-145.7760009765625 -173.2989959716797,-145.7760009765625 C-215.18499755859375,-145.7760009765625 -243.0469970703125,-128.49400329589844 -264.20599365234375,-99.10600280761719 C-285.3659973144531,-69.71800231933594 -302.99798583984375,-1.1859999895095825 -275.37298583984375,56.415000915527344 C-247.74899291992188,114.01599884033203 -201.07899475097656,132.23500061035156 -173.2989959716797,132.23500061035156 C-145.5189971923828,132.23500061035156 -98.8489990234375,114.01599884033203 -71.2239990234375,56.415000915527344 C-43.599998474121094,-1.1859999895095825 -61.233001708984375,-69.71800231933594 -82.39199829101562,-99.10600280761719z"></path></g><g opacity="1" transform="matrix(1,0,0,1,0,0)"><path fill="rgb(255,207,0)" fill-opacity="1" d=" M-91.51899719238281,-16.41699981689453 C-91.51899719238281,-16.41699981689453 -132.24200439453125,-29.575000762939453 -157.21099853515625,-41.724998474121094 C-188.08099365234375,-56.74599838256836 -212.25100708007812,-74.56700134277344 -225.65199279785156,-85.39800262451172 C-225.65199279785156,-85.39800262451172 -236.2519989013672,-53.854000091552734 -253.3000030517578,-35.71799850463867 C-280.20001220703125,-7.1020002365112305 -277.8789978027344,26.746999740600586 -255.39100646972656,64.08100128173828 C-232.9040069580078,101.41500091552734 -195.91299438476562,114.2239990234375 -173.2989959716797,114.2239990234375 C-150.68499755859375,114.2239990234375 -113.69499969482422,101.41500091552734 -91.20700073242188,64.08100128173828 C-68.72000122070312,26.746999740600586 -74.29499816894531,2.63100004196167 -91.51899719238281,-16.41699981689453z"></path></g></g><g style="display: block;" transform="matrix(1.0999953746795654,0,0,1.0999953746795654,426.0003356933594,235.99966430664062)" opacity="1"><g opacity="1" transform="matrix(1,0,0,1,0,0)"><path fill="rgb(255,246,207)" fill-opacity="1" d=" M-146.968994140625,18.631000518798828 C-146.968994140625,18.631000518798828 -143.9510040283203,-17.400999069213867 -113.9800033569336,-20.410999298095703 C-86.45600128173828,-23.174999237060547 -77.42500305175781,8.744000434875488 -77.42500305175781,8.744000434875488 C-77.42500305175781,8.744000434875488 -84.83300018310547,28.06599998474121 -108.9280014038086,30.70800018310547 C-135.7899932861328,33.65399932861328 -146.968994140625,18.631000518798828 -146.968994140625,18.631000518798828z"></path></g></g><g style="display: block;" transform="matrix(1.0999953746795654,0,0,1.0999953746795654,426.0003356933594,235.99966430664062)" opacity="1"><g opacity="1" transform="matrix(1,0,0,1,0,0)"><path fill="url(#__lottie_element_22683)" fill-opacity="1" d=" M-92.88099670410156,4.052000045776367 C-92.88099670410156,15.357000350952148 -101.52899932861328,24.52199935913086 -112.1969985961914,24.52199935913086 C-122.86499786376953,24.52199935913086 -131.51300048828125,15.357000350952148 -131.51300048828125,4.052000045776367 C-131.51300048828125,-7.252999782562256 -122.86499786376953,-16.41699981689453 -112.1969985961914,-16.41699981689453 C-101.52899932861328,-16.41699981689453 -92.88099670410156,-7.252999782562256 -92.88099670410156,4.052000045776367z"></path></g><g opacity="1" transform="matrix(1,0,0,1,0,0)"><path fill="rgb(23,19,10)" fill-opacity="1" d=" M-99.98899841308594,4.052000045776367 C-99.98899841308594,11.196999549865723 -105.45500183105469,16.98900032043457 -112.1969985961914,16.98900032043457 C-118.93900299072266,16.98900032043457 -124.40399932861328,11.196999549865723 -124.40399932861328,4.052000045776367 C-124.40399932861328,-3.0929999351501465 -118.93900299072266,-8.885000228881836 -112.1969985961914,-8.885000228881836 C-105.45500183105469,-8.885000228881836 -99.98899841308594,-3.0929999351501465 -99.98899841308594,4.052000045776367z"></path></g><g opacity="1" transform="matrix(1,0,0,1,0,0)"><path fill="rgb(244,244,244)" fill-opacity="1" d=" M-113.27899932861328,-7.1020002365112305 C-113.27899932861328,-4.388999938964844 -115.35399627685547,-2.190000057220459 -117.91400146484375,-2.190000057220459 C-120.4739990234375,-2.190000057220459 -122.55000305175781,-4.388999938964844 -122.55000305175781,-7.1020002365112305 C-122.55000305175781,-9.8149995803833 -120.4739990234375,-12.015000343322754 -117.91400146484375,-12.015000343322754 C-115.35399627685547,-12.015000343322754 -113.27899932861328,-9.8149995803833 -113.27899932861328,-7.1020002365112305z"></path></g><g opacity="1" transform="matrix(1,0,0,1,0,0)"><path stroke-linecap="round" stroke-linejoin="round" fill-opacity="0" stroke="rgb(235,147,0)" stroke-opacity="1" stroke-width="3.5" d=" M-97.90299987792969,9.833999633789062 C-99.33899688720703,14.368000030517578 -102.77400207519531,17.93000030517578 -107.0979995727539,19.3439998626709"></path></g></g><g style="display: block;" transform="matrix(1.0999953746795654,0,0,1.0999953746795654,426.0003356933594,235.99966430664062)" opacity="1"><g opacity="1" transform="matrix(1,0,0,1,0,0)"><path fill="rgb(255,207,0)" fill-opacity="1" d=" M-148.343994140625,18.631000518798828 C-148.343994140625,18.631000518798828 -135.5970001220703,46.369998931884766 -108.73500061035156,43.42399978637695 C-84.63999938964844,40.78200149536133 -76.55000305175781,8.744000434875488 -76.55000305175781,8.744000434875488 C-76.55000305175781,8.744000434875488 -85.625,-24.625 -113.8550033569336,-21.660999298095703 C-143.81199645996094,-18.514999389648438 -148.343994140625,18.631000518798828 -148.343994140625,18.631000518798828z M-146.968994140625,18.631000518798828 C-146.968994140625,18.631000518798828 -143.9510040283203,-17.400999069213867 -113.9800033569336,-20.410999298095703 C-86.45600128173828,-23.174999237060547 -77.42500305175781,8.744000434875488 -77.42500305175781,8.744000434875488 C-77.42500305175781,8.744000434875488 -84.83300018310547,28.06599998474121 -108.9280014038086,30.70800018310547 C-135.7899932861328,33.65399932861328 -146.968994140625,18.631000518798828 -146.968994140625,18.631000518798828z"></path></g><g opacity="1" transform="matrix(1,0,0,1,0,0)"><path fill="rgb(126,51,0)" fill-opacity="1" d=" M-146.968994140625,18.631000518798828 C-146.968994140625,18.631000518798828 -145.5290069580078,-18.33799934387207 -112.1969985961914,-21.518999099731445 C-98.51200103759766,-22.825000762939453 -86.91999816894531,-15.29699993133545 -81.90899658203125,-6.372000217437744 C-77.68900299072266,1.1430000066757202 -77.42500305175781,8.744000434875488 -77.42500305175781,8.744000434875488 C-77.42500305175781,8.744000434875488 -80.57099914550781,-19.927000045776367 -111.12300109863281,-18.461000442504883 C-143.8179931640625,-16.892000198364258 -146.968994140625,18.631000518798828 -146.968994140625,18.631000518798828z"></path><path stroke-linecap="round" stroke-linejoin="round" fill-opacity="0" stroke="rgb(126,51,0)" stroke-opacity="1" stroke-width="2" d=" M-146.968994140625,18.631000518798828 C-146.968994140625,18.631000518798828 -145.5290069580078,-18.33799934387207 -112.1969985961914,-21.518999099731445 C-98.51200103759766,-22.825000762939453 -86.91999816894531,-15.29699993133545 -81.90899658203125,-6.372000217437744 C-77.68900299072266,1.1430000066757202 -77.42500305175781,8.744000434875488 -77.42500305175781,8.744000434875488 C-77.42500305175781,8.744000434875488 -80.57099914550781,-19.927000045776367 -111.12300109863281,-18.461000442504883 C-143.8179931640625,-16.892000198364258 -146.968994140625,18.631000518798828 -146.968994140625,18.631000518798828z"></path></g></g><g style="display: block;" transform="matrix(-1.0999953746795654,0,0,1.0999953746795654,46.06855010986328,236.54966735839844)" opacity="1"><g opacity="1" transform="matrix(1,0,0,1,0,0)"><path fill="rgb(255,246,207)" fill-opacity="1" d=" M-146.968994140625,18.631000518798828 C-146.968994140625,18.631000518798828 -143.9510040283203,-17.400999069213867 -113.9800033569336,-20.410999298095703 C-86.45600128173828,-23.174999237060547 -77.42500305175781,8.744000434875488 -77.42500305175781,8.744000434875488 C-77.42500305175781,8.744000434875488 -84.83300018310547,28.06599998474121 -108.9280014038086,30.70800018310547 C-135.7899932861328,33.65399932861328 -146.968994140625,18.631000518798828 -146.968994140625,18.631000518798828z"></path></g></g><g style="display: block;" transform="matrix(1.0999953746795654,0,0,1.0999953746795654,425.9992370605469,235.99966430664062)" opacity="1"><g opacity="1" transform="matrix(1,0,0,1,0,0)"><path fill="url(#__lottie_element_22676)" fill-opacity="1" d=" M-212.61099243164062,4.052000045776367 C-212.61099243164062,15.357000350952148 -221.25799560546875,24.52199935913086 -231.92599487304688,24.52199935913086 C-242.593994140625,24.52199935913086 -251.24200439453125,15.357000350952148 -251.24200439453125,4.052000045776367 C-251.24200439453125,-7.252999782562256 -242.593994140625,-16.41699981689453 -231.92599487304688,-16.41699981689453 C-221.25799560546875,-16.41699981689453 -212.61099243164062,-7.252999782562256 -212.61099243164062,4.052000045776367z"></path></g><g opacity="1" transform="matrix(1,0,0,1,0,0)"><path fill="rgb(23,19,10)" fill-opacity="1" d=" M-219.718994140625,4.052000045776367 C-219.718994140625,11.196999549865723 -225.1840057373047,16.98900032043457 -231.92599487304688,16.98900032043457 C-238.66799926757812,16.98900032043457 -244.13400268554688,11.196999549865723 -244.13400268554688,4.052000045776367 C-244.13400268554688,-3.0929999351501465 -238.66799926757812,-8.885000228881836 -231.92599487304688,-8.885000228881836 C-225.1840057373047,-8.885000228881836 -219.718994140625,-3.0929999351501465 -219.718994140625,4.052000045776367z"></path></g><g opacity="1" transform="matrix(1,0,0,1,0,0)"><path fill="rgb(244,244,244)" fill-opacity="1" d=" M-233.00799560546875,-7.1020002365112305 C-233.00799560546875,-4.388999938964844 -235.08399963378906,-2.190000057220459 -237.6439971923828,-2.190000057220459 C-240.20399475097656,-2.190000057220459 -242.27999877929688,-4.388999938964844 -242.27999877929688,-7.1020002365112305 C-242.27999877929688,-9.8149995803833 -240.20399475097656,-12.015000343322754 -237.6439971923828,-12.015000343322754 C-235.08399963378906,-12.015000343322754 -233.00799560546875,-9.8149995803833 -233.00799560546875,-7.1020002365112305z"></path></g><g opacity="1" transform="matrix(1,0,0,1,0,0)"><path stroke-linecap="round" stroke-linejoin="round" fill-opacity="0" stroke="rgb(235,147,0)" stroke-opacity="1" stroke-width="3.5" d=" M-217.63299560546875,9.833999633789062 C-219.06900024414062,14.368000030517578 -222.5030059814453,17.93000030517578 -226.82699584960938,19.3439998626709"></path></g></g><g style="display: block;" transform="matrix(-1.0999953746795654,0,0,1.0999953746795654,46.06855010986328,235.99966430664062)" opacity="1"><g opacity="1" transform="matrix(1,0,0,1,0,0)"><path fill="rgb(255,207,0)" fill-opacity="1" d=" M-148.343994140625,18.631000518798828 C-148.343994140625,18.631000518798828 -135.25599670410156,42.05099868774414 -108.39399719238281,39.10499954223633 C-84.29900360107422,36.4630012512207 -76.55000305175781,8.744000434875488 -76.55000305175781,8.744000434875488 C-76.55000305175781,8.744000434875488 -85.625,-24.625 -113.8550033569336,-21.660999298095703 C-143.81199645996094,-18.514999389648438 -148.343994140625,18.631000518798828 -148.343994140625,18.631000518798828z M-146.968994140625,18.631000518798828 C-146.968994140625,18.631000518798828 -143.9510040283203,-17.400999069213867 -113.9800033569336,-20.410999298095703 C-86.45600128173828,-23.174999237060547 -77.42500305175781,8.744000434875488 -77.42500305175781,8.744000434875488 C-77.42500305175781,8.744000434875488 -84.83300018310547,28.06599998474121 -108.9280014038086,30.70800018310547 C-135.7899932861328,33.65399932861328 -146.968994140625,18.631000518798828 -146.968994140625,18.631000518798828z"></path></g><g opacity="1" transform="matrix(1,0,0,1,0,0)"><path fill="rgb(126,51,0)" fill-opacity="1" d=" M-146.968994140625,18.631000518798828 C-146.968994140625,18.631000518798828 -145.5290069580078,-18.33799934387207 -112.1969985961914,-21.518999099731445 C-98.51200103759766,-22.825000762939453 -86.91999816894531,-15.29699993133545 -81.90899658203125,-6.372000217437744 C-77.68900299072266,1.1430000066757202 -77.42500305175781,8.744000434875488 -77.42500305175781,8.744000434875488 C-77.42500305175781,8.744000434875488 -80.57099914550781,-19.927000045776367 -111.12300109863281,-18.461000442504883 C-143.8179931640625,-16.892000198364258 -146.968994140625,18.631000518798828 -146.968994140625,18.631000518798828z"></path><path stroke-linecap="round" stroke-linejoin="round" fill-opacity="0" stroke="rgb(126,51,0)" stroke-opacity="1" stroke-width="2" d=" M-146.968994140625,18.631000518798828 C-146.968994140625,18.631000518798828 -145.5290069580078,-18.33799934387207 -112.1969985961914,-21.518999099731445 C-98.51200103759766,-22.825000762939453 -86.91999816894531,-15.29699993133545 -81.90899658203125,-6.372000217437744 C-77.68900299072266,1.1430000066757202 -77.42500305175781,8.744000434875488 -77.42500305175781,8.744000434875488 C-77.42500305175781,8.744000434875488 -80.57099914550781,-19.927000045776367 -111.12300109863281,-18.461000442504883 C-143.8179931640625,-16.892000198364258 -146.968994140625,18.631000518798828 -146.968994140625,18.631000518798828z"></path></g></g><g style="display: block;" transform="matrix(1.0999953746795654,0,0,1.0999953746795654,426.0003356933594,235.99966430664062)" opacity="1"><g opacity="1" transform="matrix(1,0,0,1,0,0)"><path fill="rgb(126,51,0)" fill-opacity="1" d=" M-87.4800033569336,-35.869998931884766 C-87.4800033569336,-35.869998931884766 -99.49800109863281,-44.112998962402344 -113.76200103759766,-43.667999267578125 C-127.43000030517578,-43.24100112915039 -133.07699584960938,-38.07400131225586 -133.07699584960938,-38.07400131225586 C-133.07699584960938,-38.07400131225586 -128.5260009765625,-47.99700164794922 -113.76200103759766,-47.56700134277344 C-97.49800109863281,-47.09299850463867 -87.4800033569336,-35.869998931884766 -87.4800033569336,-35.869998931884766z"></path><path stroke-linecap="round" stroke-linejoin="round" fill-opacity="0" stroke="rgb(126,51,0)" stroke-opacity="1" stroke-width="2" d=" M-87.4800033569336,-35.869998931884766 C-87.4800033569336,-35.869998931884766 -99.49800109863281,-44.112998962402344 -113.76200103759766,-43.667999267578125 C-127.43000030517578,-43.24100112915039 -133.07699584960938,-38.07400131225586 -133.07699584960938,-38.07400131225586 C-133.07699584960938,-38.07400131225586 -128.5260009765625,-47.99700164794922 -113.76200103759766,-47.56700134277344 C-97.49800109863281,-47.09299850463867 -87.4800033569336,-35.869998931884766 -87.4800033569336,-35.869998931884766z"></path></g></g><g style="display: block;" transform="matrix(1.0999953746795654,0,0,1.0999953746795654,425.9992370605469,235.99966430664062)" opacity="1"><g opacity="1" transform="matrix(1,0,0,1,0,0)"><path fill="rgb(126,51,0)" fill-opacity="1" d=" M-259.2080078125,-35.869998931884766 C-259.2080078125,-35.869998931884766 -247.19000244140625,-44.112998962402344 -232.92599487304688,-43.667999267578125 C-219.25799560546875,-43.24100112915039 -213.61099243164062,-38.07400131225586 -213.61099243164062,-38.07400131225586 C-213.61099243164062,-38.07400131225586 -218.16200256347656,-47.99700164794922 -232.92599487304688,-47.56700134277344 C-249.19000244140625,-47.09299850463867 -259.2080078125,-35.869998931884766 -259.2080078125,-35.869998931884766z"></path><path stroke-linecap="round" stroke-linejoin="round" fill-opacity="0" stroke="rgb(126,51,0)" stroke-opacity="1" stroke-width="2" d=" M-259.2080078125,-35.869998931884766 C-259.2080078125,-35.869998931884766 -247.19000244140625,-44.112998962402344 -232.92599487304688,-43.667999267578125 C-219.25799560546875,-43.24100112915039 -213.61099243164062,-38.07400131225586 -213.61099243164062,-38.07400131225586 C-213.61099243164062,-38.07400131225586 -218.16200256347656,-47.99700164794922 -232.92599487304688,-47.56700134277344 C-249.19000244140625,-47.09299850463867 -259.2080078125,-35.869998931884766 -259.2080078125,-35.869998931884766z"></path></g></g><g style="display: block;" transform="matrix(1.0999953746795654,0,0,1.0999953746795654,426.0003356933594,235.99966430664062)" opacity="1"><g opacity="1" transform="matrix(1,0,0,1,0,0)"><path fill="rgb(126,51,0)" fill-opacity="1" d=" M-135.76800537109375,86.27300262451172 C-138.38699340820312,84.80000305175781 -150.1739959716797,87.09200286865234 -158.8509979248047,83.98100280761719 C-167.5279998779297,80.87000274658203 -169.49200439453125,85.27300262451172 -172.60299682617188,85.27300262451172 C-175.71299743652344,85.27300262451172 -177.67799377441406,80.87000274658203 -186.35499572753906,83.98100280761719 C-195.03199768066406,87.09200286865234 -206.81900024414062,84.80000305175781 -209.43899536132812,86.27300262451172 C-212.05799865722656,87.74600219726562 -199.7790069580078,104.60900115966797 -172.60299682617188,105.75499725341797 C-145.42599487304688,104.60900115966797 -133.1479949951172,87.74600219726562 -135.76800537109375,86.27300262451172z"></path></g><g opacity="1" transform="matrix(1,0,0,1,0,0)"><path fill="rgb(23,19,10)" fill-opacity="1" d=" M-202.4080047607422,90.33899688720703 C-202.4080047607422,90.33899688720703 -198.1929931640625,92.52300262451172 -185.58399963378906,93.0250015258789 C-181.23699951171875,93.197998046875 -176.656005859375,94.24299621582031 -172.5709991455078,94.24299621582031 C-168.6439971923828,94.24299621582031 -164.33900451660156,93.2249984741211 -160.2220001220703,93.0739974975586 C-147.63400268554688,92.61100006103516 -143.38900756835938,90.33899688720703 -143.38900756835938,90.33899688720703 C-143.38900756835938,90.33899688720703 -156.27000427246094,96.8759994506836 -172.60299682617188,96.8759994506836 C-188.93600463867188,96.8759994506836 -202.4080047607422,90.33899688720703 -202.4080047607422,90.33899688720703z"></path><path stroke-linecap="round" stroke-linejoin="round" fill-opacity="0" stroke="rgb(44,26,8)" stroke-opacity="1" stroke-width="1" d=" M-202.4080047607422,90.33899688720703 C-202.4080047607422,90.33899688720703 -198.1929931640625,92.52300262451172 -185.58399963378906,93.0250015258789 C-181.23699951171875,93.197998046875 -176.656005859375,94.24299621582031 -172.5709991455078,94.24299621582031 C-168.6439971923828,94.24299621582031 -164.33900451660156,93.2249984741211 -160.2220001220703,93.0739974975586 C-147.63400268554688,92.61100006103516 -143.38900756835938,90.33899688720703 -143.38900756835938,90.33899688720703 C-143.38900756835938,90.33899688720703 -156.27000427246094,96.8759994506836 -172.60299682617188,96.8759994506836 C-188.93600463867188,96.8759994506836 -202.4080047607422,90.33899688720703 -202.4080047607422,90.33899688720703z"></path></g></g><g style="display: block;" transform="matrix(1.0999953746795654,0,0,1.0999953746795654,426.0003356933594,235.99966430664062)" opacity="1"><g opacity="1" transform="matrix(1,0,0,1,0,0)"><path fill="rgb(246,173,0)" fill-opacity="1" d=" M-156.21099853515625,57.659000396728516 C-156.21099853515625,64.53700256347656 -163.86199951171875,70.11100006103516 -173.2989959716797,70.11100006103516 C-182.73599243164062,70.11100006103516 -190.38699340820312,64.53700256347656 -190.38699340820312,57.659000396728516 C-190.38699340820312,50.78099822998047 -182.73599243164062,45.499000549316406 -173.2989959716797,45.499000549316406 C-163.86199951171875,45.499000549316406 -156.21099853515625,50.78099822998047 -156.21099853515625,57.659000396728516z"></path></g><g opacity="1" transform="matrix(1,0,0,1,0,0)"><path fill="rgb(255,207,0)" fill-opacity="1" d=" M-158.51600646972656,53.72800064086914 C-158.51600646972656,58.847999572753906 -165.13499450683594,62.999000549316406 -173.2989959716797,62.999000549316406 C-181.46299743652344,62.999000549316406 -188.08099365234375,58.847999572753906 -188.08099365234375,53.72800064086914 C-188.08099365234375,48.608001708984375 -181.46299743652344,45.29800033569336 -173.2989959716797,45.29800033569336 C-165.13499450683594,45.29800033569336 -158.51600646972656,48.608001708984375 -158.51600646972656,53.72800064086914z"></path></g><g opacity="1" transform="matrix(1,0,0,1,0,0)"><path fill="rgb(255,225,129)" fill-opacity="1" d=" M-165.68299865722656,49.380001068115234 C-165.68299865722656,51.70100021362305 -169.09300231933594,53.8849983215332 -173.2989959716797,53.8849983215332 C-177.5050048828125,53.8849983215332 -180.9149932861328,51.70100021362305 -180.9149932861328,49.380001068115234 C-180.9149932861328,47.05799865722656 -177.5050048828125,45.893001556396484 -173.2989959716797,45.893001556396484 C-169.09300231933594,45.893001556396484 -165.68299865722656,47.05799865722656 -165.68299865722656,49.380001068115234z"></path></g></g><g style="display: block;" transform="matrix(1.0999953746795654,0,0,1.0999953746795654,426.0003356933594,235.99966430664062)" opacity="1"><g opacity="1" transform="matrix(1,0,0,1,0,0)"><path fill="rgb(255,207,0)" fill-opacity="1" d=" M-235.43600463867188,-117.18499755859375 C-235.43600463867188,-117.18499755859375 -237.81700134277344,-69.75299835205078 -267.9429931640625,-41.724998474121094 C-296.4169921875,-15.234000205993652 -313.2309875488281,-8.885000228881836 -313.2309875488281,-8.885000228881836 C-313.2309875488281,-8.885000228881836 -343.9909973144531,33.57600021362305 -334.2900085449219,121.76000213623047 C-334.2900085449219,121.76000213623047 -349.6839904785156,51.02799987792969 -321.4700012207031,-52.87300109863281 C-295.31298828125,-149.1999969482422 -252.2740020751953,-164.08999633789062 -242.27999877929688,-160.14100646972656 C-242.27999877929688,-160.14100646972656 -228.2100067138672,-187.1230010986328 -158.51600646972656,-177.91000366210938 C-88.8219985961914,-168.69700622558594 -44.72999954223633,-116.70700073242188 -24.98699951171875,-56.16299819946289 C-5.24399995803833,4.38100004196167 -5.61299991607666,4.1020002365112305 -8.902999877929688,49.5099983215332 C-8.902999877929688,49.5099983215332 -16,0 -68.37000274658203,-25.224000930786133 C-68.37000274658203,-25.224000930786133 -173.2989959716797,-47.582000732421875 -235.43600463867188,-117.18499755859375z"></path></g><g opacity="1" transform="matrix(1,0,0,1,0,0)"><path fill="rgb(236,157,0)" fill-opacity="1" d=" M-28.547000885009766,-20.57900047302246 C-28.547000885009766,-20.57900047302246 -47.09700012207031,-24.788999557495117 -68.36699676513672,-25.2189998626709 C-68.36699676513672,-25.2189998626709 -173.29800415039062,-47.57899856567383 -235.43800354003906,-117.18900299072266 C-235.43800354003906,-117.18900299072266 -237.81700134277344,-69.7490005493164 -267.9469909667969,-41.729000091552734 C-296.4169921875,-15.23900032043457 -313.22698974609375,-8.888999938964844 -313.22698974609375,-8.888999938964844 C-313.22698974609375,-8.888999938964844 -325.7770080566406,8.440999984741211 -332.3070068359375,43.95100021362305 C-332.3070068359375,43.95100021362305 -336.68798828125,49.89099884033203 -336.68798828125,49.89099884033203 C-336.68798828125,49.89099884033203 -337.3169860839844,38.4010009765625 -337.3169860839844,38.4010009765625 C-337.3169860839844,38.4010009765625 -338.47698974609375,16.990999221801758 -338.47698974609375,16.990999221801758 C-338.47698974609375,16.990999221801758 -336.6969909667969,12.01099967956543 -333.7070007324219,5.701000213623047 C-330.1570129394531,-1.809000015258789 -324.9169921875,-12.199000358581543 -318.9469909667969,-17.41900062561035 C-318.9469909667969,-17.41900062561035 -286.4519958496094,-35.314998626708984 -268.9469909667969,-58.27899932861328 C-246.51600646972656,-87.70500183105469 -248.19000244140625,-126.6050033569336 -251.23699951171875,-137.19900512695312 C-255.67300415039062,-152.6219940185547 -289.5639953613281,-135.49099731445312 -310.177001953125,-87.31900024414062 C-284.3869934082031,-152.8489990234375 -250.93699645996094,-163.5590057373047 -242.27699279785156,-160.13900756835938 C-242.27699279785156,-160.13900756835938 -228.20700073242188,-187.11900329589844 -158.51699829101562,-177.90899658203125 C-123.25700378417969,-173.24899291992188 -94.53700256347656,-157.62899780273438 -72.21700286865234,-135.48899841308594 C-72.21700286865234,-135.48899841308594 -116.86299896240234,-177.4739990234375 -189.31700134277344,-169.41900634765625 C-238.14199829101562,-163.99099731445312 -231.2570037841797,-140.04299926757812 -225.82699584960938,-130.90899658203125 C-218.12600708007812,-117.95500183105469 -178.6820068359375,-77.22699737548828 -122.5469970703125,-55.94900131225586 C-74.51699829101562,-37.74300003051758 -47.027000427246094,-32.95899963378906 -28.547000885009766,-20.57900047302246z"></path></g><g opacity="1" transform="matrix(1,0,0,1,0,0)"><path stroke-linecap="round" stroke-linejoin="round" fill-opacity="0" stroke="rgb(187,98,0)" stroke-opacity="1" stroke-width="8" d=" M-235.43600463867188,-117.18499755859375 C-235.43600463867188,-117.18499755859375 -235.67300415039062,-73.28399658203125 -267.9429931640625,-41.724998474121094 C-289.5639953613281,-20.579999923706055 -313.2309875488281,-8.885000228881836 -313.2309875488281,-8.885000228881836 C-313.2309875488281,-8.885000228881836 -343.9909973144531,33.57600021362305 -334.2900085449219,121.76000213623047 C-334.2900085449219,121.76000213623047 -349.6839904785156,51.02799987792969 -321.4700012207031,-52.87300109863281 C-295.31298828125,-149.1999969482422 -252.2740020751953,-164.08999633789062 -242.27999877929688,-160.14100646972656 C-242.27999877929688,-160.14100646972656 -228.2100067138672,-187.1230010986328 -158.51600646972656,-177.91000366210938 C-88.8219985961914,-168.69700622558594 -44.72999954223633,-116.70700073242188 -24.98699951171875,-56.16299819946289 C-5.24399995803833,4.38100004196167 -9.5,23.75 -8.902999877929688,49.5099983215332 C-8.902999877929688,49.5099983215332 -16.5,-0.5 -68.37000274658203,-25.224000930786133 C-68.37000274658203,-25.224000930786133 -173.2989959716797,-47.582000732421875 -235.43600463867188,-117.18499755859375z"></path></g><g opacity="1" transform="matrix(1,0,0,1,0,0)"><path fill="rgb(255,225,129)" fill-opacity="1" d=" M-157.7689971923828,-113.41799926757812 C-194.947998046875,-120.0979995727539 -214.4010009765625,-129.95700073242188 -220.09300231933594,-136.80499267578125 C-224.68299865722656,-142.32699584960938 -222.75900268554688,-148.74200439453125 -217.03199768066406,-153.052001953125 C-212.50100708007812,-156.46200561523438 -193.26100158691406,-168.49600219726562 -147.58999633789062,-160.99000549316406 C-121.58200073242188,-156.7169952392578 -102.24400329589844,-146.6300048828125 -89.29499816894531,-132.9199981689453 C-89.28800201416016,-132.91000366210938 -89.28800201416016,-132.91000366210938 -89.28099822998047,-132.89999389648438 C-71.56900024414062,-112.16400146484375 -95.6449966430664,-102.25599670410156 -157.7689971923828,-113.41799926757812z"></path></g><g opacity="1" transform="matrix(1,0,0,1,0,0)"><path stroke-linecap="round" stroke-linejoin="round" fill-opacity="0" stroke="rgb(255,255,255)" stroke-opacity="1" stroke-width="6" d=" M-139.07200622558594,-158.281005859375 C-137.5570068359375,-157.94400024414062 -135.98399353027344,-157.57400512695312 -134.36399841308594,-157.16700744628906"></path></g><g opacity="1" transform="matrix(1,0,0,1,0,0)"><path stroke-linecap="round" stroke-linejoin="round" fill-opacity="0" stroke="rgb(255,255,255)" stroke-opacity="1" stroke-width="6" d=" M-160.1230010986328,-161.53799438476562 C-160.1230010986328,-161.53799438476562 -155.322998046875,-161.26300048828125 -147.7100067138672,-159.97300720214844"></path></g><g opacity="1" transform="matrix(1,0,0,1,-168.1820068359375,16.36400032043457)"><path fill="rgb(255,225,129)" fill-opacity="1" d=" M-85.63099670410156,-139.65699768066406 C-85.63099670410156,-149.8820037841797 -89.76899719238281,-158.21099853515625 -100.9020004272461,-152.2169952392578 C-107.60800170898438,-148.6060028076172 -115.10199737548828,-140.98500061035156 -112.072998046875,-134.95399475097656 C-110.0739974975586,-130.97300720214844 -98.1969985961914,-131.39599609375 -97.34600067138672,-120.89800262451172 C-96.0260009765625,-104.61599731445312 -85.63099670410156,-121.01499938964844 -85.63099670410156,-139.65699768066406z"></path></g><g opacity="1" transform="matrix(1,0,0,1,0,0)"><path stroke-linecap="round" stroke-linejoin="round" fill-opacity="0" stroke="rgb(187,98,0)" stroke-opacity="1" stroke-width="8" d=" M-241.4770050048828,-145.11399841308594 C-241.4770050048828,-145.11399841308594 -241.9320068359375,-125.56800079345703 -235.34100341796875,-117.04499816894531"></path></g></g><g style="display: block;" transform="matrix(1.090000033378601,0,0,1.090000033378601,243.0006866455078,340.0007629394531)" opacity="1"><g opacity="1" transform="matrix(1,0,0,1,0,0)"><g opacity="1" transform="matrix(1,0,0,1,0,0)"><path fill="rgb(81,101,126)" fill-opacity="1" d=" M-4.848999977111816,179.8209991455078 C1.1410000324249268,179.8209991455078 6.171000003814697,183.93699645996094 7.611999988555908,189.4759979248047 C12.45300006866455,190.39500427246094 14.769000053405762,193.61399841308594 16.233999252319336,195.66600036621094 C16.517000198364258,196.06300354003906 16.881999969482422,196.572998046875 17.132999420166016,196.8560028076172 C17.132999420166016,196.8560028076172 23.753000259399414,196.8560028076172 23.753000259399414,196.8560028076172 C25.68600082397461,196.8560028076172 27.253000259399414,198.42300415039062 27.253000259399414,200.3560028076172 C27.253000259399414,200.6580047607422 27.202999114990234,200.9459991455078 27.131000518798828,201.2259979248047 C27.799999237060547,201.22900390625 28.486000061035156,201.2310028076172 29.211000442504883,201.2310028076172 C29.211000442504883,201.2310028076172 46.88100051879883,201.2310028076172 46.88100051879883,201.2310028076172 C51.06999969482422,201.2310028076172 54.87099838256836,202.9320068359375 57.62099838256836,205.6820068359375 C60.361000061035156,208.4320068359375 62.06100082397461,212.2220001220703 62.06100082397461,216.41200256347656 C62.06100082397461,217.3820037841797 61.28099822998047,218.1719970703125 60.31100082397461,218.1719970703125 C60.31100082397461,218.1719970703125 -70.00900268554688,218.1719970703125 -70.00900268554688,218.1719970703125 C-70.97899627685547,218.1719970703125 -71.75900268554688,217.3820037841797 -71.75900268554688,216.41200256347656 C-71.75900268554688,208.03199768066406 -64.96900177001953,201.2310028076172 -56.57899856567383,201.2310028076172 C-56.57899856567383,201.2310028076172 -38.909000396728516,201.2310028076172 -38.909000396728516,201.2310028076172 C-38.2859992980957,201.2310028076172 -37.689998626708984,201.22999572753906 -37.108001708984375,201.22799682617188 C-37.18000030517578,200.947998046875 -37.22999954223633,200.65899658203125 -37.22999954223633,200.3560028076172 C-37.22999954223633,198.42300415039062 -35.66299819946289,196.8560028076172 -33.72999954223633,196.8560028076172 C-33.72999954223633,196.8560028076172 -27.110000610351562,196.8560028076172 -27.110000610351562,196.8560028076172 C-26.858999252319336,196.572998046875 -26.493999481201172,196.06300354003906 -26.211000442504883,195.66600036621094 C-24.715999603271484,193.572998046875 -22.340999603271484,190.25799560546875 -17.29599952697754,189.41799926757812 C-15.833999633789062,183.9080047607422 -10.817000389099121,179.8209991455078 -4.848999977111816,179.8209991455078 M-4.848999977111816,198.6009979248047 C-1.5989999771118164,198.6009979248047 1.0410000085830688,195.96099853515625 1.0410000085830688,192.71099853515625 C1.0410000085830688,189.4709930419922 -1.5989999771118164,186.8209991455078 -4.848999977111816,186.8209991455078 C-8.098999977111816,186.8209991455078 -10.73900032043457,189.4709930419922 -10.73900032043457,192.71099853515625 C-10.73900032043457,195.96099853515625 -8.098999977111816,198.6009979248047 -4.848999977111816,198.6009979248047 M-4.848999977111816,171.8209991455078 C-12.664999961853027,171.8209991455078 -19.691999435424805,176.19200134277344 -23.263999938964844,182.87899780273438 C-26.95400047302246,184.46099853515625 -29.447999954223633,186.88699340820312 -31.082000732421875,188.8560028076172 C-31.082000732421875,188.8560028076172 -33.72999954223633,188.8560028076172 -33.72999954223633,188.8560028076172 C-37.382999420166016,188.8560028076172 -40.643001556396484,190.56700134277344 -42.750999450683594,193.2310028076172 C-42.750999450683594,193.2310028076172 -56.57899856567383,193.2310028076172 -56.57899856567383,193.2310028076172 C-69.36000061035156,193.2310028076172 -79.75900268554688,203.6300048828125 -79.75900268554688,216.41200256347656 C-79.75900268554688,221.79400634765625 -75.38500213623047,226.1719970703125 -70.00900268554688,226.1719970703125 C-70.00900268554688,226.1719970703125 60.31100082397461,226.1719970703125 60.31100082397461,226.1719970703125 C65.68699645996094,226.1719970703125 70.06099700927734,221.79400634765625 70.06099700927734,216.41200256347656 C70.06099700927734,210.23500061035156 67.65499877929688,204.41900634765625 63.28799819946289,200.03500366210938 C58.89699935913086,195.6439971923828 53.07400131225586,193.2310028076172 46.88100051879883,193.2310028076172 C46.88100051879883,193.2310028076172 32.77399826049805,193.2310028076172 32.77399826049805,193.2310028076172 C30.666000366210938,190.56700134277344 27.4060001373291,188.8560028076172 23.753000259399414,188.8560028076172 C23.753000259399414,188.8560028076172 21.10300064086914,188.8560028076172 21.10300064086914,188.8560028076172 C19.527000427246094,186.95799255371094 17.143999099731445,184.6320037841797 13.656999588012695,183.0489959716797 C10.118000030517578,176.26300048828125 3.0460000038146973,171.8209991455078 -4.848999977111816,171.8209991455078 C-4.848999977111816,171.8209991455078 -4.848999977111816,171.8209991455078 -4.848999977111816,171.8209991455078z"></path></g></g><g opacity="1" transform="matrix(1,0,0,1,0,0)"><g opacity="1" transform="matrix(1,0,0,1,0,0)"><path fill="rgb(145,175,224)" fill-opacity="1" d=" M-12.902999877929688,203.8560028076172 C-12.902999877929688,203.8560028076172 -33.72999954223633,203.8560028076172 -33.72999954223633,203.8560028076172 C-35.66299819946289,203.8560028076172 -37.22999954223633,202.28900146484375 -37.22999954223633,200.3560028076172 C-37.22999954223633,198.42300415039062 -35.66299819946289,196.8560028076172 -33.72999954223633,196.8560028076172 C-33.72999954223633,196.8560028076172 -27.110000610351562,196.8560028076172 -27.110000610351562,196.8560028076172 C-26.858999252319336,196.572998046875 -26.493999481201172,196.06199645996094 -26.211000442504883,195.66600036621094 C-24.488000869750977,193.25399780273438 -21.604999542236328,189.21600341796875 -14.805000305175781,189.21600341796875 C-13.197999954223633,189.21600341796875 -11.79699993133545,190.30999755859375 -11.407999992370605,191.87100219726562 C-11.407999992370605,191.87100219726562 -9.506999969482422,199.51100158691406 -9.506999969482422,199.51100158691406 C-9.246999740600586,200.55599975585938 -9.482000350952148,201.66200256347656 -10.145000457763672,202.51100158691406 C-10.809000015258789,203.36000061035156 -11.826000213623047,203.8560028076172 -12.902999877929688,203.8560028076172z M-17.757999420166016,196.8560028076172 C-17.757999420166016,196.8560028076172 -17.381000518798828,196.8560028076172 -17.381000518798828,196.8560028076172 C-17.381000518798828,196.8560028076172 -17.422000885009766,196.6909942626953 -17.422000885009766,196.6909942626953 C-17.538000106811523,196.7429962158203 -17.649999618530273,196.7969970703125 -17.757999420166016,196.8560028076172z"></path></g></g><g opacity="1" transform="matrix(1,0,0,1,0,0)"><g opacity="1" transform="matrix(1,0,0,1,0,0)"><path fill="rgb(145,175,224)" fill-opacity="1" d=" M23.753000259399414,203.8560028076172 C23.753000259399414,203.8560028076172 2.9260001182556152,203.8560028076172 2.9260001182556152,203.8560028076172 C1.8489999771118164,203.8560028076172 0.8320000171661377,203.36000061035156 0.1679999977350235,202.51100158691406 C-0.4950000047683716,201.66200256347656 -0.7310000061988831,200.55599975585938 -0.47099998593330383,199.51100158691406 C-0.47099998593330383,199.51100158691406 1.430999994277954,191.87100219726562 1.430999994277954,191.87100219726562 C1.8200000524520874,190.30999755859375 3.2200000286102295,189.21600341796875 4.827000141143799,189.21600341796875 C11.626999855041504,189.21600341796875 14.51099967956543,193.25399780273438 16.233999252319336,195.66600036621094 C16.517000198364258,196.06199645996094 16.881999969482422,196.572998046875 17.132999420166016,196.8560028076172 C17.132999420166016,196.8560028076172 23.753000259399414,196.8560028076172 23.753000259399414,196.8560028076172 C25.68600082397461,196.8560028076172 27.253000259399414,198.42300415039062 27.253000259399414,200.3560028076172 C27.253000259399414,202.28900146484375 25.68600082397461,203.8560028076172 23.753000259399414,203.8560028076172z M7.4039998054504395,196.8560028076172 C7.4039998054504395,196.8560028076172 7.78000020980835,196.8560028076172 7.78000020980835,196.8560028076172 C7.671999931335449,196.7969970703125 7.560999870300293,196.7429962158203 7.445000171661377,196.6909942626953 C7.445000171661377,196.6909942626953 7.4039998054504395,196.8560028076172 7.4039998054504395,196.8560028076172z"></path></g></g><g opacity="1" transform="matrix(1,0,0,1,0,0)"><path fill="rgb(197,214,246)" fill-opacity="1" d=" M57.62099838256836,205.68099975585938 C54.87099838256836,202.93099975585938 51.06999969482422,201.2310028076172 46.88100051879883,201.2310028076172 C46.88100051879883,201.2310028076172 29.211000442504883,201.2310028076172 29.211000442504883,201.2310028076172 C12.451000213623047,201.2310028076172 10.970999717712402,200.39100646972656 9.711000442504883,199.18099975585938 C8.270999908447266,197.79100036621094 8.041000366210938,195.24099731445312 8.041000366210938,192.71099853515625 C8.041000366210938,185.61099243164062 2.260999917984009,179.8209991455078 -4.848999977111816,179.8209991455078 C-11.958999633789062,179.8209991455078 -17.73900032043457,185.61099243164062 -17.73900032043457,192.71099853515625 C-17.73900032043457,195.24099731445312 -17.9689998626709,197.79100036621094 -19.409000396728516,199.18099975585938 C-20.66900062561035,200.39100646972656 -22.14900016784668,201.2310028076172 -38.909000396728516,201.2310028076172 C-38.909000396728516,201.2310028076172 -56.57899856567383,201.2310028076172 -56.57899856567383,201.2310028076172 C-64.96900177001953,201.2310028076172 -71.75900268554688,208.031005859375 -71.75900268554688,216.41099548339844 C-71.75900268554688,216.41099548339844 -71.75900268554688,220.1909942626953 -71.75900268554688,220.1909942626953 C-71.75900268554688,221.16099548339844 -70.97899627685547,221.9510040283203 -70.00900268554688,221.9510040283203 C-70.00900268554688,221.9510040283203 60.31100082397461,221.9510040283203 60.31100082397461,221.9510040283203 C61.28099822998047,221.9510040283203 62.06100082397461,221.16099548339844 62.06100082397461,220.1909942626953 C62.06100082397461,220.1909942626953 62.06100082397461,216.41099548339844 62.06100082397461,216.41099548339844 C62.06100082397461,212.2209930419922 60.361000061035156,208.43099975585938 57.62099838256836,205.68099975585938z M-4.848999977111816,186.8209991455078 C-1.5989999771118164,186.8209991455078 1.0410000085830688,189.4709930419922 1.0410000085830688,192.71099853515625 C1.0410000085830688,195.96099853515625 -1.5989999771118164,198.6020050048828 -4.848999977111816,198.6020050048828 C-8.098999977111816,198.6020050048828 -10.73900032043457,195.96099853515625 -10.73900032043457,192.71099853515625 C-10.73900032043457,189.4709930419922 -8.098999977111816,186.8209991455078 -4.848999977111816,186.8209991455078z"></path></g><g opacity="1" transform="matrix(1,0,0,1,0,0)"><path fill="rgb(224,160,79)" fill-opacity="1" d=" M77.65499877929688,415.0509948730469 C77.65499877929688,415.0509948730469 -87.35800170898438,415.0509948730469 -87.35800170898438,415.0509948730469 C-95.12699890136719,415.0509948730469 -101.42500305175781,408.7539978027344 -101.42500305175781,400.9849853515625 C-101.42500305175781,400.9849853515625 -101.42500305175781,222.56500244140625 -101.42500305175781,222.56500244140625 C-101.42500305175781,214.79600524902344 -95.12699890136719,208.49899291992188 -87.35800170898438,208.49899291992188 C-87.35800170898438,208.49899291992188 77.65499877929688,208.49899291992188 77.65499877929688,208.49899291992188 C85.42400360107422,208.49899291992188 91.72200012207031,214.79600524902344 91.72200012207031,222.56500244140625 C91.72200012207031,222.56500244140625 91.72200012207031,400.9849853515625 91.72200012207031,400.9849853515625 C91.72200012207031,408.7539978027344 85.42400360107422,415.0509948730469 77.65499877929688,415.0509948730469z"></path></g><g opacity="1" transform="matrix(1,0,0,1,0,0)"><path fill="rgb(201,139,61)" fill-opacity="1" d=" M68.61000061035156,415.0509948730469 C68.61000061035156,415.0509948730469 -78.31300354003906,415.0509948730469 -78.31300354003906,415.0509948730469 C-86.08200073242188,415.0509948730469 -92.37999725341797,408.7539978027344 -92.37999725341797,400.9849853515625 C-92.37999725341797,400.9849853515625 -92.37999725341797,232.23800659179688 -92.37999725341797,232.23800659179688 C-92.37999725341797,224.468994140625 -86.08200073242188,218.17100524902344 -78.31300354003906,218.17100524902344 C-78.31300354003906,218.17100524902344 68.61000061035156,218.17100524902344 68.61000061035156,218.17100524902344 C76.37899780273438,218.17100524902344 82.677001953125,224.468994140625 82.677001953125,232.23800659179688 C82.677001953125,232.23800659179688 82.677001953125,400.9849853515625 82.677001953125,400.9849853515625 C82.677001953125,408.7539978027344 76.37899780273438,415.0509948730469 68.61000061035156,415.0509948730469z"></path></g><g opacity="1" transform="matrix(1,0,0,1,0,0)"><g opacity="1" transform="matrix(1,0,0,1,0,0)"><path fill="rgb(183,119,48)" fill-opacity="1" d=" M37.71500015258789,225.94400024414062 C37.71500015258789,230.12100219726562 34.327999114990234,233.50799560546875 30.150999069213867,233.50799560546875 C25.974000930786133,233.50799560546875 22.586999893188477,230.12100219726562 22.586999893188477,225.94400024414062 C22.586999893188477,221.76699829101562 25.974000930786133,218.38099670410156 30.150999069213867,218.38099670410156 C34.327999114990234,218.38099670410156 37.71500015258789,221.76699829101562 37.71500015258789,225.94400024414062z"></path></g><g opacity="1" transform="matrix(1,0,0,1,0,0)"><path fill="rgb(183,119,48)" fill-opacity="1" d=" M-32.2859992980957,225.94400024414062 C-32.2859992980957,230.12100219726562 -35.67300033569336,233.50799560546875 -39.849998474121094,233.50799560546875 C-44.027000427246094,233.50799560546875 -47.41400146484375,230.12100219726562 -47.41400146484375,225.94400024414062 C-47.41400146484375,221.76699829101562 -44.027000427246094,218.38099670410156 -39.849998474121094,218.38099670410156 C-35.67300033569336,218.38099670410156 -32.2859992980957,221.76699829101562 -32.2859992980957,225.94400024414062z"></path></g><g opacity="1" transform="matrix(1,0,0,1,0,0)"><path fill="rgb(197,214,246)" fill-opacity="1" d=" M33.61399841308594,225.94400024414062 C33.61399841308594,227.85699462890625 32.06399917602539,229.40699768066406 30.150999069213867,229.40699768066406 C28.238000869750977,229.40699768066406 26.687999725341797,227.85699462890625 26.687999725341797,225.94400024414062 C26.687999725341797,224.031005859375 28.238000869750977,222.4810028076172 30.150999069213867,222.4810028076172 C32.06399917602539,222.4810028076172 33.61399841308594,224.031005859375 33.61399841308594,225.94400024414062z"></path></g><g opacity="1" transform="matrix(1,0,0,1,0,0)"><path fill="rgb(197,214,246)" fill-opacity="1" d=" M-36.387001037597656,225.94400024414062 C-36.387001037597656,227.85699462890625 -37.9370002746582,229.40699768066406 -39.849998474121094,229.40699768066406 C-41.76300048828125,229.40699768066406 -43.3129997253418,227.85699462890625 -43.3129997253418,225.94400024414062 C-43.3129997253418,224.031005859375 -41.76300048828125,222.4810028076172 -39.849998474121094,222.4810028076172 C-37.9370002746582,222.4810028076172 -36.387001037597656,224.031005859375 -36.387001037597656,225.94400024414062z"></path></g></g><g opacity="1" transform="matrix(1,0,0,1,0,0)"><path stroke-linecap="round" stroke-linejoin="round" fill-opacity="0" stroke="rgb(130,79,25)" stroke-opacity="1" stroke-width="8" d=" M77.65499877929688,415.0509948730469 C77.65499877929688,415.0509948730469 -87.35800170898438,415.0509948730469 -87.35800170898438,415.0509948730469 C-95.12699890136719,415.0509948730469 -101.42500305175781,408.7539978027344 -101.42500305175781,400.9849853515625 C-101.42500305175781,400.9849853515625 -101.42500305175781,222.56500244140625 -101.42500305175781,222.56500244140625 C-101.42500305175781,214.79600524902344 -95.12699890136719,208.49899291992188 -87.35800170898438,208.49899291992188 C-87.35800170898438,208.49899291992188 77.65499877929688,208.49899291992188 77.65499877929688,208.49899291992188 C85.42400360107422,208.49899291992188 91.72200012207031,214.79600524902344 91.72200012207031,222.56500244140625 C91.72200012207031,222.56500244140625 91.72200012207031,400.9849853515625 91.72200012207031,400.9849853515625 C91.72200012207031,408.7539978027344 85.42400360107422,415.0509948730469 77.65499877929688,415.0509948730469z"></path></g><g opacity="1" transform="matrix(1,0,0,1,0,0)"><path fill="rgb(35,58,78)" fill-opacity="1" d=" M1.1790000200271606,192.71099853515625 C1.1790000200271606,196.04200744628906 -1.5210000276565552,198.74200439453125 -4.8520002365112305,198.74200439453125 C-8.182999610900879,198.74200439453125 -10.881999969482422,196.04200744628906 -10.881999969482422,192.71099853515625 C-10.881999969482422,189.3800048828125 -8.182999610900879,186.68099975585938 -4.8520002365112305,186.68099975585938 C-1.5210000276565552,186.68099975585938 1.1790000200271606,189.3800048828125 1.1790000200271606,192.71099853515625z"></path></g><g opacity="1" transform="matrix(1,0,0,1,0,0)"><path fill="rgb(72,72,93)" fill-opacity="1" d=" M-1.5299999713897705,192.71099853515625 C-1.5299999713897705,194.54400634765625 -3.0160000324249268,196.031005859375 -4.848999977111816,196.031005859375 C-6.682000160217285,196.031005859375 -8.168999671936035,194.54400634765625 -8.168999671936035,192.71099853515625 C-8.168999671936035,190.8780059814453 -6.682000160217285,189.39199829101562 -4.848999977111816,189.39199829101562 C-3.0160000324249268,189.39199829101562 -1.5299999713897705,190.8780059814453 -1.5299999713897705,192.71099853515625z"></path></g></g></g></svg>