<svg xmlns="http://www.w3.org/2000/svg" viewBox="0 0 512 512" width="512" height="512" style="width: 100%; height: 100%; transform: translate3d(0,0,0);" preserveAspectRatio="xMidYMid meet"><defs><clipPath id="__lottie_element_22688"><rect width="512" height="512" x="0" y="0"></rect></clipPath><linearGradient id="__lottie_element_22702" spreadMethod="pad" gradientUnits="userSpaceOnUse" x1="-1" y1="100" x2="-1" y2="199.7480010986328"><stop offset="0%" stop-color="rgb(251,57,130)"></stop><stop offset="25%" stop-color="rgb(253,102,170)"></stop><stop offset="52%" stop-color="rgb(255,147,209)"></stop><stop offset="80%" stop-color="rgb(250,73,162)"></stop><stop offset="100%" stop-color="rgb(245,0,116)"></stop></linearGradient></defs><g clip-path="url(#__lottie_element_22688)"><g style="display: block;" transform="matrix(1,0,0,1,256,256)" opacity="1"><g opacity="0.1" transform="matrix(1,0,0,1,0,0)"><path fill="rgb(0,0,0)" fill-opacity="1" d=" M196.02499389648438,5.045000076293945 C196.02499389648438,99.14800262451172 129.71600341796875,177.76400756835938 41.27299880981445,196.7169952392578 C27.965999603271484,199.56900024414062 14.157999992370605,201.06900024414062 0,201.06900024414062 C-22.62700080871582,201.06900024414062 -44.35900115966797,197.23500061035156 -64.58100128173828,190.1820068359375 C-141.11399841308594,163.48800659179688 -196.02499389648438,90.67900085449219 -196.02499389648438,5.045000076293945 C-196.02499389648438,-103.21600341796875 -108.26100158691406,-190.97999572753906 0,-190.97999572753906 C108.26100158691406,-190.97999572753906 196.02499389648438,-103.21600341796875 196.02499389648438,5.045000076293945z"></path></g><g opacity="1" transform="matrix(1,0,0,1,0,0)"><path fill="rgb(255,173,0)" fill-opacity="1" d=" M188.875,-8.194000244140625 C188.875,96.11900329589844 104.31300354003906,180.68099975585938 0,180.68099975585938 C-104.31300354003906,180.68099975585938 -188.875,96.11900329589844 -188.875,-8.194000244140625 C-188.875,-112.50700378417969 -104.31300354003906,-197.06900024414062 0,-197.06900024414062 C104.31300354003906,-197.06900024414062 188.875,-112.50700378417969 188.875,-8.194000244140625z"></path><path stroke-linecap="butt" stroke-linejoin="miter" fill-opacity="0" stroke-miterlimit="10" stroke="rgb(255,118,42)" stroke-opacity="1" stroke-width="8" d=" M188.875,-8.194000244140625 C188.875,96.11900329589844 104.31300354003906,180.68099975585938 0,180.68099975585938 C-104.31300354003906,180.68099975585938 -188.875,96.11900329589844 -188.875,-8.194000244140625 C-188.875,-112.50700378417969 -104.31300354003906,-197.06900024414062 0,-197.06900024414062 C104.31300354003906,-197.06900024414062 188.875,-112.50700378417969 188.875,-8.194000244140625z"></path></g><g opacity="1" transform="matrix(1,0,0,1,0,0)"><path fill="rgb(255,207,0)" fill-opacity="1" d=" M168.40699768066406,-9.241999626159668 C166.9510040283203,85.78600311279297 90.39600372314453,161.66600036621094 -2.5820000171661377,160.24099731445312 C-95.55999755859375,158.8159942626953 -169.7530059814453,80.6259994506836 -168.29600524902344,-14.402999877929688 C-166.83999633789062,-109.43199920654297 -90.28500366210938,-185.31199645996094 2.693000078201294,-183.88699340820312 C95.6709976196289,-182.46200561523438 169.86399841308594,-104.27100372314453 168.40699768066406,-9.241999626159668z"></path></g><g opacity="0.9" transform="matrix(1,0,0,1,0,0)"><path fill="rgb(255,222,102)" fill-opacity="1" d=" M149.26800537109375,-52.38399887084961 C149.26800537109375,20.259000778198242 82.43800354003906,-37.20500183105469 0,-37.20500183105469 C-82.43800354003906,-37.20500183105469 -149.26699829101562,20.259000778198242 -149.26699829101562,-52.38399887084961 C-149.26699829101562,-125.0270004272461 -82.43800354003906,-183.91600036621094 0,-183.91600036621094 C82.43800354003906,-183.91600036621094 149.26800537109375,-125.0270004272461 149.26800537109375,-52.38399887084961z"></path></g><g opacity="1" transform="matrix(1,0,0,1,0,0)"><g opacity="1" transform="matrix(1,0,0,1,0,0)"><path stroke-linecap="round" stroke-linejoin="round" fill-opacity="0" stroke="rgb(255,255,255)" stroke-opacity="1" stroke-width="6" d=" M36.37300109863281,-179.69700622558594 C37.9109992980957,-179.36199951171875 39.50600051879883,-178.99200439453125 41.150001525878906,-178.58599853515625"></path></g><g opacity="1" transform="matrix(1,0,0,1,0,0)"><path stroke-linecap="round" stroke-linejoin="round" fill-opacity="0" stroke="rgb(255,255,255)" stroke-opacity="1" stroke-width="6" d=" M15.017999649047852,-182.91600036621094 C15.017999649047852,-182.91600036621094 19.885000228881836,-182.656005859375 27.607999801635742,-181.3780059814453"></path></g></g></g><g style="display: block;" transform="matrix(1,0,0,1,256,256)" opacity="0.7000000000000001"><g opacity="1" transform="matrix(1,0,0,1,0,0)"><path fill="rgb(255,173,0)" fill-opacity="1" d=" M60.356998443603516,99.81999969482422 C60.356998443603516,99.81999969482422 64.62999725341797,163.49899291992188 60.25,166.25 C24.19700050354004,179.68099975585938 -31.145999908447266,177.625 -60.83300018310547,165.91700744628906 C-65.12300109863281,162.1490020751953 -60.803001403808594,99.81999969482422 -60.803001403808594,99.81999969482422 C-60.803001403808594,87.41999816894531 60.356998443603516,87.41999816894531 60.356998443603516,99.81999969482422z"></path></g></g><g style="display: block;" transform="matrix(1,0,0,1,256,256)" opacity="1"><g opacity="1" transform="matrix(1,0,0,1,0,0)"><g opacity="1" transform="matrix(1,0,0,1,0,0)"><path fill="rgb(255,173,0)" fill-opacity="1" d=" M-116.9280014038086,55.020999908447266 C-117,50.05400085449219 -115.3489990234375,46.42499923706055 -110.5250015258789,46.784000396728516 C-98.30000305175781,47.69499969482422 -67.1729965209961,60.40800094604492 0,61.45899963378906 C70.25700378417969,60.35900115966797 100.10600280761719,46.893001556396484 111.18499755859375,46.81800079345703 C114.87799835205078,46.792999267578125 116.99600219726562,49.77000045776367 116.92900085449219,55.020999908447266 C116.93499755859375,73.87999725341797 -116.16699981689453,83.33399963378906 -116.9280014038086,55.020999908447266z"></path></g></g><g opacity="1" transform="matrix(1,0,0,1,0,0)"><g opacity="1" transform="matrix(1,0,0,1,0,0)"><path fill="rgb(255,224,164)" fill-opacity="1" d=" M115.63999938964844,62.99800109863281 C109.9739990234375,99.14800262451172 63.63199996948242,143.32200622558594 0,143.32200622558594 C-63.63199996948242,143.32200622558594 -107.99500274658203,105.12799835205078 -115.6719970703125,63.72999954223633 C-115.74400329589844,63.3390007019043 -118.4229965209961,52.957000732421875 -110.5250015258789,53.608001708984375 C-98.30799865722656,54.6150016784668 -67.1729965209961,68.33699798583984 0,69.38800048828125 C70.25700378417969,68.28800201416016 100.14600372314453,54.58300018310547 111.18499755859375,53.641998291015625 C118.24400329589844,53.040000915527344 115.70099639892578,62.60599899291992 115.63999938964844,62.99800109863281z"></path></g></g><g opacity="1" transform="matrix(1,0,0,1,0,0)"><g opacity="1" transform="matrix(1,0,0,1,0,0)"><path fill="rgb(143,58,0)" fill-opacity="1" d=" M98.39299774169922,91.34600067138672 C77.79100036621094,114.74600219726562 43.11600112915039,135.78500366210938 0.004999999888241291,135.78500366210938 C-42.76100158691406,135.78500366210938 -77.2249984741211,118.29299926757812 -97.05000305175781,94.1989974975586 C-97.06199645996094,94.18800354003906 -97.0719985961914,94.177001953125 -97.08399963378906,94.15499877929688 C-115.78399658203125,72.8740005493164 -113.34500122070312,54.50299835205078 -113.26399993896484,54.42599868774414 C-107.8479995727539,49.70500183105469 -81.76699829101562,67.0199966430664 0.004999999888241291,68.3030014038086 C91.63200378417969,66.86599731445312 113.41500091552734,45.31399917602539 114.44999694824219,57.16699981689453 C114.71199798583984,58.457000732421875 112.63899993896484,75.16500091552734 98.39299774169922,91.34600067138672z"></path></g></g><g opacity="1" transform="matrix(1,0,0,1,0,0)"><path fill="rgb(107,32,0)" fill-opacity="1" d=" M98.39299774169922,91.34600067138672 C105.4520034790039,80.60199737548828 106.51499938964844,72.41500091552734 106.35099792480469,69.96199798583984 C105.62999725341797,59.165000915527344 83.36399841308594,78.80699920654297 0.004999999888241291,80.11199951171875 C-83.36499786376953,78.80699920654297 -105.4219970703125,59.180999755859375 -106.35299682617188,69.96199798583984 C-106.48600006103516,71.72799682617188 -104.4229965209961,82.72799682617188 -97.08399963378906,94.15499877929688 C-111.02100372314453,79.24299621582031 -116.96700286865234,56.790000915527344 -113.26399993896484,54.42599868774414 C-107.8479995727539,49.70500183105469 -81.76699829101562,67.0199966430664 0.004999999888241291,68.3030014038086 C91.63200378417969,66.86599731445312 113.34200286865234,45.292999267578125 114.37699890136719,57.145999908447266 C114.38899993896484,57.27899932861328 113.74299621582031,73.87899780273438 98.39299774169922,91.34600067138672z"></path></g></g><g style="display: block;" transform="matrix(1,0,0,1,256,256)" opacity="1"><g opacity="1" transform="matrix(1,0,0,1,0,0)"><path fill="url(#__lottie_element_22702)" fill-opacity="1" d=" M-36.57699966430664,86.73899841308594 C-44.06100082397461,89.76699829101562 -49.35300064086914,96.9280014038086 -49.35300064086914,105.22599792480469 C-49.35300064086914,105.22599792480469 -49.35300064086914,153.58200073242188 -49.35300064086914,153.58200073242188 C-49.35300064086914,164.5970001220703 -39.845001220703125,196.31900024414062 -0.3190000057220459,196.31900024414062 C37.92499923706055,196.31900024414062 48.7140007019043,164.5970001220703 48.7140007019043,153.58200073242188 C48.7140007019043,153.58200073242188 48.7140007019043,105.22599792480469 48.7140007019043,105.22599792480469 C48.7140007019043,96.96499633789062 43.46900177001953,89.83000183105469 36.0369987487793,86.77899932861328"></path><path stroke-linecap="round" stroke-linejoin="round" fill-opacity="0" stroke="rgb(213,0,87)" stroke-opacity="1" stroke-width="8" d=" M-36.57699966430664,86.73899841308594 C-44.06100082397461,89.76699829101562 -49.35300064086914,96.9280014038086 -49.35300064086914,105.22599792480469 C-49.35300064086914,105.22599792480469 -49.35300064086914,153.58200073242188 -49.35300064086914,153.58200073242188 C-49.35300064086914,164.5970001220703 -39.845001220703125,196.31900024414062 -0.3190000057220459,196.31900024414062 C37.92499923706055,196.31900024414062 48.7140007019043,164.5970001220703 48.7140007019043,153.58200073242188 C48.7140007019043,153.58200073242188 48.7140007019043,105.22599792480469 48.7140007019043,105.22599792480469 C48.7140007019043,96.96499633789062 43.46900177001953,89.83000183105469 36.0369987487793,86.77899932861328"></path></g><g opacity="0.7000000000000001" transform="matrix(1,0,0,1,0,0)"><path stroke-linecap="round" stroke-linejoin="round" fill-opacity="0" stroke="rgb(171,0,59)" stroke-opacity="1" stroke-width="8" d=" M-0.16200000047683716,92.48500061035156 C-0.16200000047683716,92.48500061035156 -0.16200000047683716,136.18800354003906 -0.16200000047683716,136.18800354003906"></path></g><g opacity="0.5" transform="matrix(1,0,0,1,0,0)"><path fill="rgb(183,0,64)" fill-opacity="1" d=" M47.832000732421875,90.88200378417969 C38.65299987792969,107.625 -27.722000122070312,115.75 -48.39400100708008,90.88200378417969 C-43.95600128173828,84.56099700927734 -35.992000579833984,81.20600128173828 -28.468000411987305,81.20600128173828 C-28.468000411987305,81.20600128173828 -12.15999984741211,81.20600128173828 -12.15999984741211,81.20600128173828 C-7.890999794006348,81.20600128173828 -3.5799999237060547,82.98699951171875 -0.4560000002384186,86.02100372314453 C1.0770000219345093,84.26899719238281 5.99399995803833,81.20600128173828 11.42199993133545,81.20600128173828 C11.42199993133545,81.20600128173828 27.89699935913086,81.20600128173828 27.89699935913086,81.20600128173828 C35.393001556396484,81.20600128173828 43.095001220703125,84.59400177001953 47.832000732421875,90.88200378417969z"></path></g><g opacity="1" transform="matrix(1,0,0,1,0,0)"><path stroke-linecap="round" stroke-linejoin="round" fill-opacity="0" stroke="rgb(174,0,71)" stroke-opacity="1" stroke-width="8" d=" M-44.60499954223633,92.50599670410156 C-40.79600143432617,88.0510025024414 -35.040000915527344,85.1989974975586 -28.628000259399414,85.1989974975586 C-28.628000259399414,85.1989974975586 -12.229999542236328,85.1989974975586 -12.229999542236328,85.1989974975586 C-6.828999996185303,85.00900268554688 -2.1029999256134033,90.14399719238281 -2.1029999256134033,90.14399719238281 C-1.1890000104904175,91.18099975585938 0.48399999737739563,91.12899780273438 1.3279999494552612,90.03900146484375 C1.3279999494552612,90.03900146484375 1.3279999494552612,90.03900146484375 1.3279999494552612,90.03900146484375 C3.686000108718872,86.99299621582031 7.39300012588501,85.1989974975586 11.329999923706055,85.1989974975586 C11.329999923706055,85.1989974975586 27.989999771118164,85.1989974975586 27.989999771118164,85.1989974975586 C34.400001525878906,85.1989974975586 40.15399932861328,88.04900360107422 43.9630012512207,92.50199890136719"></path></g></g><g style="display: block;" transform="matrix(1,0,0,1,256,256)" opacity="1"><g opacity="1" transform="matrix(1,0,0,1,0,0)"><g opacity="1" transform="matrix(1,0,0,1,0,0)"><path fill="rgb(255,237,182)" fill-opacity="1" d=" M-50.97100067138672,-11.852999687194824 C-50.97100067138672,6.005000114440918 -61.6150016784668,20.481000900268555 -74.74299621582031,20.481000900268555 C-87.87200164794922,20.481000900268555 -98.51399993896484,6.005000114440918 -98.51399993896484,-11.852999687194824 C-98.51399993896484,-29.711000442504883 -87.87200164794922,-44.1879997253418 -74.74299621582031,-44.1879997253418 C-61.6150016784668,-44.1879997253418 -50.97100067138672,-29.711000442504883 -50.97100067138672,-11.852999687194824z"></path></g><g opacity="1" transform="matrix(1,0,0,1,0,0)"><path fill="rgb(255,173,0)" fill-opacity="1" d=" M-50.97100067138672,-15.182000160217285 C-50.97100067138672,0.8379999995231628 -61.6150016784668,13.824000358581543 -74.74299621582031,13.824000358581543 C-87.87200164794922,13.824000358581543 -98.51399993896484,0.8379999995231628 -98.51399993896484,-15.182000160217285 C-98.51399993896484,-31.20199966430664 -87.87200164794922,-44.1879997253418 -74.74299621582031,-44.1879997253418 C-61.6150016784668,-44.1879997253418 -50.97100067138672,-31.20199966430664 -50.97100067138672,-15.182000160217285z"></path></g><g opacity="1" transform="matrix(1,0,0,1,0,0)"><path fill="rgb(143,58,0)" fill-opacity="1" d=" M-52.88600158691406,-11.996000289916992 C-52.88600158691406,3.1010000705718994 -62.672000885009766,15.33899974822998 -74.74299621582031,15.33899974822998 C-86.81400299072266,15.33899974822998 -96.5999984741211,3.1010000705718994 -96.5999984741211,-11.996000289916992 C-96.5999984741211,-27.093000411987305 -86.81400299072266,-39.33100128173828 -74.74299621582031,-39.33100128173828 C-62.672000885009766,-39.33100128173828 -52.88600158691406,-27.093000411987305 -52.88600158691406,-11.996000289916992z"></path></g><g opacity="1" transform="matrix(1,0,0,1,0,0)"><path fill="rgb(116,24,0)" fill-opacity="1" d=" M-52.882999420166016,-11.991000175476074 C-52.882999420166016,-10.791000366210938 -52.94300079345703,-9.612000465393066 -53.073001861572266,-8.45199966430664 C-54.452999114990234,-21.881999969482422 -63.632999420166016,-32.26100158691406 -74.74299621582031,-32.26100158691406 C-85.85299682617188,-32.26100158691406 -95.03299713134766,-21.881999969482422 -96.41300201416016,-8.45199966430664 C-96.54299926757812,-9.612000465393066 -96.60299682617188,-10.791000366210938 -96.60299682617188,-11.991000175476074 C-96.60299682617188,-27.090999603271484 -86.81300354003906,-39.33100128173828 -74.74299621582031,-39.33100128173828 C-62.67300033569336,-39.33100128173828 -52.882999420166016,-27.090999603271484 -52.882999420166016,-11.991000175476074z"></path></g></g><g opacity="1" transform="matrix(1,0,0,1,0,0)"><g opacity="1" transform="matrix(1,0,0,1,0,0)"><path fill="rgb(255,237,182)" fill-opacity="1" d=" M98.51399993896484,-11.852999687194824 C98.51399993896484,6.005000114440918 87.87200164794922,20.481000900268555 74.74299621582031,20.481000900268555 C61.61399841308594,20.481000900268555 50.97100067138672,6.005000114440918 50.97100067138672,-11.852999687194824 C50.97100067138672,-29.711000442504883 61.61399841308594,-44.1879997253418 74.74299621582031,-44.1879997253418 C87.87200164794922,-44.1879997253418 98.51399993896484,-29.711000442504883 98.51399993896484,-11.852999687194824z"></path></g><g opacity="1" transform="matrix(1,0,0,1,0,0)"><path fill="rgb(255,173,0)" fill-opacity="1" d=" M98.51399993896484,-15.182000160217285 C98.51399993896484,0.8379999995231628 87.87200164794922,13.824000358581543 74.74299621582031,13.824000358581543 C61.61399841308594,13.824000358581543 50.97100067138672,0.8379999995231628 50.97100067138672,-15.182000160217285 C50.97100067138672,-31.20199966430664 61.61399841308594,-44.1879997253418 74.74299621582031,-44.1879997253418 C87.87200164794922,-44.1879997253418 98.51399993896484,-31.20199966430664 98.51399993896484,-15.182000160217285z"></path></g><g opacity="1" transform="matrix(1,0,0,1,0,0)"><path fill="rgb(143,58,0)" fill-opacity="1" d=" M96.5999984741211,-11.996000289916992 C96.5999984741211,3.1010000705718994 86.81400299072266,15.33899974822998 74.74299621582031,15.33899974822998 C62.672000885009766,15.33899974822998 52.88600158691406,3.1010000705718994 52.88600158691406,-11.996000289916992 C52.88600158691406,-27.093000411987305 62.672000885009766,-39.33100128173828 74.74299621582031,-39.33100128173828 C86.81400299072266,-39.33100128173828 96.5999984741211,-27.093000411987305 96.5999984741211,-11.996000289916992z"></path></g><g opacity="1" transform="matrix(1,0,0,1,0,0)"><path fill="rgb(116,24,0)" fill-opacity="1" d=" M96.60299682617188,-11.991000175476074 C96.60299682617188,-10.791000366210938 96.54299926757812,-9.612000465393066 96.41300201416016,-8.45199966430664 C95.03299713134766,-21.881999969482422 85.85299682617188,-32.26100158691406 74.74299621582031,-32.26100158691406 C63.632999420166016,-32.26100158691406 54.452999114990234,-21.881999969482422 53.073001861572266,-8.45199966430664 C52.94300079345703,-9.612000465393066 52.882999420166016,-10.791000366210938 52.882999420166016,-11.991000175476074 C52.882999420166016,-27.090999603271484 62.67300033569336,-39.33100128173828 74.74299621582031,-39.33100128173828 C86.81300354003906,-39.33100128173828 96.60299682617188,-27.090999603271484 96.60299682617188,-11.991000175476074z"></path></g></g></g></g></svg>