<svg xmlns="http://www.w3.org/2000/svg" viewBox="0 0 512 512" width="512" height="512" style="width: 100%; height: 100%; transform: translate3d(0,0,0);" preserveAspectRatio="xMidYMid meet"><defs><clipPath id="__lottie_element_22707"><rect width="512" height="512" x="0" y="0"></rect></clipPath><linearGradient id="__lottie_element_22713" spreadMethod="pad" gradientUnits="userSpaceOnUse" x1="-0.7440000176429749" y1="-170.47300720214844" x2="-0.7440000176429749" y2="143.34800720214844"><stop offset="24%" stop-color="rgb(18,93,238)"></stop><stop offset="68%" stop-color="rgb(9,150,246)"></stop><stop offset="100%" stop-color="rgb(0,208,253)"></stop></linearGradient><linearGradient id="__lottie_element_22714" spreadMethod="pad" gradientUnits="userSpaceOnUse" x1="-0.7440000176429749" y1="126.5270004272461" x2="-0.7440000176429749" y2="-150.9290008544922"><stop offset="0%" stop-color="rgb(93,243,255)"></stop><stop offset="32%" stop-color="rgb(50,193,254)"></stop><stop offset="76%" stop-color="rgb(7,143,253)"></stop></linearGradient><linearGradient id="__lottie_element_22721" spreadMethod="pad" gradientUnits="userSpaceOnUse" x1="-121.74400329589844" y1="77.5270004272461" x2="121.93699645996094" y2="77.5270004272461"><stop offset="0%" stop-color="rgb(202,202,201)"></stop><stop offset="22%" stop-color="rgb(227,227,227)"></stop><stop offset="50%" stop-color="rgb(253,253,253)"></stop><stop offset="78%" stop-color="rgb(229,229,229)"></stop><stop offset="100%" stop-color="rgb(206,206,205)"></stop></linearGradient><linearGradient id="__lottie_element_22722" spreadMethod="pad" gradientUnits="userSpaceOnUse" x1="-121.74400329589844" y1="36.527000427246094" x2="121.9280014038086" y2="36.527000427246094"><stop offset="0%" stop-color="rgb(202,202,201)"></stop><stop offset="22%" stop-color="rgb(227,227,227)"></stop><stop offset="50%" stop-color="rgb(253,253,253)"></stop><stop offset="78%" stop-color="rgb(229,229,229)"></stop><stop offset="100%" stop-color="rgb(206,206,205)"></stop></linearGradient><linearGradient id="__lottie_element_22747" spreadMethod="pad" gradientUnits="userSpaceOnUse" x1="56.25600051879883" y1="89.5270004272461" x2="61.53200149536133" y2="188.81399536132812"><stop offset="4%" stop-color="rgb(85,195,234)" stop-opacity="0.8999999761581421"></stop><stop offset="9%" stop-color="rgb(141,219,243)" stop-opacity="0.8999999761581421"></stop><stop offset="19%" stop-color="rgb(196,243,251)" stop-opacity="0.8999999761581421"></stop><stop offset="66%" stop-color="rgb(162,234,249)" stop-opacity="0.75"></stop><stop offset="100%" stop-color="rgb(128,224,247)" stop-opacity="0.6000000238418579"></stop></linearGradient><linearGradient id="__lottie_element_22762" spreadMethod="pad" gradientUnits="userSpaceOnUse" x1="-44.74399948120117" y1="127.5270004272461" x2="-43.38600158691406" y2="54.16899871826172"><stop offset="0%" stop-color="rgb(128,224,247)" stop-opacity="0.6000000238418579"></stop><stop offset="28%" stop-color="rgb(162,234,249)" stop-opacity="0.75"></stop><stop offset="66%" stop-color="rgb(196,243,251)" stop-opacity="0.8999999761581421"></stop><stop offset="83%" stop-color="rgb(141,219,243)" stop-opacity="0.8999999761581421"></stop><stop offset="90%" stop-color="rgb(85,195,234)" stop-opacity="0.8999999761581421"></stop></linearGradient><linearGradient id="__lottie_element_22763" spreadMethod="pad" gradientUnits="userSpaceOnUse" x1="-78.74400329589844" y1="182.52699279785156" x2="-80.23400115966797" y2="82.71700286865234"><stop offset="0%" stop-color="rgb(128,224,247)" stop-opacity="0.6000000238418579"></stop><stop offset="28%" stop-color="rgb(162,234,249)" stop-opacity="0.75"></stop><stop offset="66%" stop-color="rgb(196,243,251)" stop-opacity="0.8999999761581421"></stop><stop offset="83%" stop-color="rgb(141,219,243)" stop-opacity="0.8999999761581421"></stop><stop offset="90%" stop-color="rgb(85,195,234)" stop-opacity="0.8999999761581421"></stop></linearGradient><linearGradient id="__lottie_element_22773" spreadMethod="pad" gradientUnits="userSpaceOnUse" x1="132.25599670410156" y1="126.5270004272461" x2="151.88900756835938" y2="189.78900146484375"><stop offset="15%" stop-color="rgb(85,195,234)" stop-opacity="0.8999999761581421"></stop><stop offset="31%" stop-color="rgb(141,219,243)" stop-opacity="0.8999999761581421"></stop><stop offset="67%" stop-color="rgb(196,243,251)" stop-opacity="0.8999999761581421"></stop><stop offset="86%" stop-color="rgb(162,234,249)" stop-opacity="0.550000011920929"></stop><stop offset="100%" stop-color="rgb(128,224,247)" stop-opacity="0.20000000298023224"></stop></linearGradient><linearGradient id="__lottie_element_22777" spreadMethod="pad" gradientUnits="userSpaceOnUse" x1="-128.74400329589844" y1="121.5270004272461" x2="-137.88299560546875" y2="199.9720001220703"><stop offset="21%" stop-color="rgb(85,195,234)" stop-opacity="0.8999999761581421"></stop><stop offset="33%" stop-color="rgb(141,219,243)" stop-opacity="0.8999999761581421"></stop><stop offset="61%" stop-color="rgb(196,243,251)" stop-opacity="0.8999999761581421"></stop><stop offset="83%" stop-color="rgb(162,234,249)" stop-opacity="0.550000011920929"></stop><stop offset="100%" stop-color="rgb(128,224,247)" stop-opacity="0.20000000298023224"></stop></linearGradient><linearGradient id="__lottie_element_22781" spreadMethod="pad" gradientUnits="userSpaceOnUse" x1="35.25600051879883" y1="176.52699279785156" x2="36.6870002746582" y2="203.72000122070312"><stop offset="14%" stop-color="rgb(85,195,234)" stop-opacity="0.8999999761581421"></stop><stop offset="32%" stop-color="rgb(141,219,243)" stop-opacity="0.8999999761581421"></stop><stop offset="72%" stop-color="rgb(196,243,251)" stop-opacity="0.8999999761581421"></stop><stop offset="88%" stop-color="rgb(162,234,249)" stop-opacity="0.550000011920929"></stop><stop offset="100%" stop-color="rgb(128,224,247)" stop-opacity="0.20000000298023224"></stop></linearGradient><linearGradient id="__lottie_element_22785" spreadMethod="pad" gradientUnits="userSpaceOnUse" x1="-33.74399948120117" y1="179.52699279785156" x2="-32.3129997253418" y2="206.72000122070312"><stop offset="14%" stop-color="rgb(85,195,234)" stop-opacity="0.8999999761581421"></stop><stop offset="32%" stop-color="rgb(141,219,243)" stop-opacity="0.8999999761581421"></stop><stop offset="72%" stop-color="rgb(196,243,251)" stop-opacity="0.8999999761581421"></stop><stop offset="88%" stop-color="rgb(162,234,249)" stop-opacity="0.550000011920929"></stop><stop offset="100%" stop-color="rgb(128,224,247)" stop-opacity="0.20000000298023224"></stop></linearGradient></defs><g clip-path="url(#__lottie_element_22707)"><g style="display: block;" transform="matrix(1,0,0,1,256,256)" opacity="0.1"><g opacity="1" transform="matrix(1,0,0,1,0,0)"><path fill="rgb(0,0,0)" fill-opacity="1" d=" M196.0800018310547,3.924999952316284 C196.0800018310547,112.18599700927734 108.31700134277344,199.9499969482422 0.0560000017285347,199.9499969482422 C-108.20500183105469,199.9499969482422 -195.968994140625,112.18599700927734 -195.968994140625,3.924999952316284 C-195.968994140625,-104.33599853515625 -108.20500183105469,-192.0989990234375 0.0560000017285347,-192.0989990234375 C108.31700134277344,-192.0989990234375 196.0800018310547,-104.33599853515625 196.0800018310547,3.924999952316284z"></path></g></g><g style="display: block;" transform="matrix(1,0,0,1,256,256)" opacity="1"><g opacity="1" transform="matrix(1,0,0,1,0,0)"><path fill="url(#__lottie_element_22785)" fill-opacity="1" d=" M-46.09400177001953,170.1199951171875 C-46.09400177001953,170.1199951171875 -43.207000732421875,177.68800354003906 -40.41600036621094,180.94400024414062 C-37.625,184.1999969482422 -38.64799880981445,191.64199829101562 -33.742000579833984,191.64199829101562 C-30.4060001373291,191.64199829101562 -30.253999710083008,183.1999969482422 -28.625999450683594,181.33900451660156 C-26.99799919128418,179.47900390625 -22.211000442504883,178.7969970703125 -21,174.63800048828125"></path></g><g opacity="1" transform="matrix(1,0,0,1,0,0)"><path stroke-linecap="round" stroke-linejoin="round" fill-opacity="0" stroke="rgb(0,161,210)" stroke-opacity="1" stroke-width="5" d=" M-46.09400177001953,170.1199951171875 C-46.09400177001953,170.1199951171875 -43.207000732421875,177.68800354003906 -40.41600036621094,180.94400024414062 C-37.625,184.1999969482422 -38.64799880981445,191.64199829101562 -33.742000579833984,191.64199829101562 C-30.4060001373291,191.64199829101562 -30.253999710083008,183.1999969482422 -28.625999450683594,181.33900451660156 C-26.99799919128418,179.47900390625 -22.211000442504883,178.7969970703125 -21,174.63800048828125"></path></g><g opacity="1" transform="matrix(1,0,0,1,0,0)"><path stroke-linecap="round" stroke-linejoin="round" fill-opacity="0" stroke="rgb(0,130,195)" stroke-opacity="1" stroke-width="5" d=" M-46.09400177001953,170.1199951171875 C-46.09400177001953,170.1199951171875 -43.207000732421875,177.68800354003906 -40.41600036621094,180.94400024414062 C-37.625,184.1999969482422 -38.64799880981445,191.64199829101562 -33.742000579833984,191.64199829101562"></path></g></g><g style="display: block;" transform="matrix(1,0,0,1,256,256)" opacity="1"><g opacity="1" transform="matrix(1,0,0,1,0,0)"><path fill="url(#__lottie_element_22781)" fill-opacity="1" d=" M11.42300033569336,175.46200561523438 C11.42300033569336,175.46200561523438 13.579000473022461,182.86199951171875 17.368999481201172,183.6739959716797 C21.15999984741211,184.48599243164062 21.888999938964844,191.48899841308594 24.867000579833984,192.4969940185547 C27.844999313354492,193.5050048828125 28.542999267578125,187.23500061035156 30.0939998626709,184.47900390625 C32.1870002746582,180.75900268554688 35.86800003051758,180.08099365234375 36.404998779296875,181.5279998779297 C37.448001861572266,184.33900451660156 39.465999603271484,195.85800170898438 42.986000061035156,195.04600524902344 C46.50600051879883,194.23399353027344 47.152000427246094,182.32000732421875 50.130001068115234,179.3419952392578 C53.108001708984375,176.36399841308594 59.19499969482422,172.6269989013672 58.939998626708984,166.43099975585938"></path></g><g opacity="1" transform="matrix(1,0,0,1,0,0)"><path stroke-linecap="round" stroke-linejoin="round" fill-opacity="0" stroke="rgb(0,161,210)" stroke-opacity="1" stroke-width="5" d=" M11.42300033569336,175.46200561523438 C11.42300033569336,175.46200561523438 13.579000473022461,182.86199951171875 17.368999481201172,183.6739959716797 C21.15999984741211,184.48599243164062 21.888999938964844,191.48899841308594 24.867000579833984,192.4969940185547 C27.844999313354492,193.5050048828125 28.542999267578125,187.23500061035156 30.0939998626709,184.47900390625 C32.1870002746582,180.75900268554688 35.86800003051758,180.08099365234375 36.404998779296875,181.5279998779297 C37.448001861572266,184.33900451660156 39.465999603271484,195.85800170898438 42.986000061035156,195.04600524902344 C46.50600051879883,194.23399353027344 47.152000427246094,182.32000732421875 50.130001068115234,179.3419952392578 C53.108001708984375,176.36399841308594 59.19499969482422,172.6269989013672 58.939998626708984,166.43099975585938"></path></g><g opacity="1" transform="matrix(1,0,0,1,0,0)"><path stroke-linecap="round" stroke-linejoin="round" fill-opacity="0" stroke="rgb(0,130,195)" stroke-opacity="1" stroke-width="5" d=" M36.404998779296875,181.5279998779297 C37.448001861572266,184.33900451660156 39.465999603271484,195.85800170898438 42.986000061035156,195.04600524902344"></path></g><g opacity="1" transform="matrix(1,0,0,1,0,0)"><path stroke-linecap="round" stroke-linejoin="round" fill-opacity="0" stroke="rgb(0,130,195)" stroke-opacity="1" stroke-width="5" d=" M11.42300033569336,175.46200561523438 C11.42300033569336,175.46200561523438 13.579000473022461,182.86199951171875 17.368999481201172,183.6739959716797 C21.15999984741211,184.48599243164062 21.888999938964844,191.48899841308594 24.867000579833984,192.4969940185547"></path></g></g><g style="display: block;" transform="matrix(1,0,0,1,256,256)" opacity="1"><g opacity="1" transform="matrix(1,0,0,1,0,0)"><path fill="url(#__lottie_element_22777)" fill-opacity="1" d=" M-99.17400360107422,149.6580047607422 C-100.06400299072266,154.79800415039062 -108.83399963378906,158.59800720214844 -108.84400177001953,160.01800537109375 C-108.84400177001953,161.42799377441406 -110.60399627685547,165.7480010986328 -110.81400299072266,168.48800659179688 C-111.01399993896484,171.22799682617188 -110.53399658203125,184.58799743652344 -114.48400115966797,183.73800659179688 C-118.43399810791016,182.8979949951172 -118.28399658203125,172.1580047607422 -118.85399627685547,167.63800048828125 C-119.41400146484375,163.1179962158203 -119.3239974975586,159.41799926757812 -121.77400207519531,153.79800415039062 C-124.2239990234375,148.18800354003906 -121.08300018310547,145.2969970703125 -125.50399780273438,141.93800354003906 C-128.44200134277344,139.70599365234375 -133.10400390625,136.84800720214844 -133.6739959716797,139.70799255371094 C-134.6739959716797,144.79800415039062 -137.62399291992188,147.01800537109375 -137.9040069580078,150.4080047607422 C-138.19400024414062,153.79800415039062 -138.7740020751953,169.33799743652344 -139.9040069580078,173.28799438476562 C-141.03399658203125,177.2480010986328 -139.3419952392578,199.947998046875 -143.01400756835938,199.947998046875 C-146.9080047607422,199.947998046875 -146.91200256347656,194.88600158691406 -147.10400390625,184.43800354003906 C-147.2429962158203,176.8979949951172 -149.51400756835938,176.95799255371094 -149.51400756835938,172.43800354003906 C-149.51400756835938,160.5780029296875 -151.23399353027344,156.05799865722656 -153.20399475097656,144.197998046875 C-155.1840057373047,132.3280029296875 -152.52000427246094,122.65399932861328 -155.593994140625,117.22799682617188 C-159.6529998779297,110.06199645996094 -156.62399291992188,94.43800354003906 -156.62399291992188,94.43800354003906 C-141.62399291992188,116.66799926757812 -122.01399993896484,135.5279998779297 -99.17400360107422,149.6580047607422z"></path></g><g opacity="0.6" transform="matrix(1,0,0,1,0,0)"><path fill="rgb(255,255,255)" fill-opacity="1" d=" M-108.84100341796875,158.08700561523438 C-109.16999816894531,158.2830047607422 -110.8740005493164,171.42799377441406 -110.9739990234375,173.72799682617188 C-116.08899688720703,174.56399536132812 -113.76399993896484,166.46800231933594 -114.69400024414062,163.20799255371094 C-115.6240005493164,159.947998046875 -114.13400268554688,158.45799255371094 -115.06400299072266,155.947998046875 C-115.99400329589844,153.43800354003906 -119.25399780273438,150.08799743652344 -115.90399932861328,148.68800354003906 C-112.55400085449219,147.29800415039062 -113.39399719238281,151.29800415039062 -108.84400177001953,150.88800048828125 C-104.66400146484375,150.50799560546875 -105.30599975585938,155.97900390625 -108.84100341796875,158.08700561523438z"></path></g><g opacity="0.6" transform="matrix(1,0,0,1,0,0)"><path fill="rgb(255,255,255)" fill-opacity="1" d=" M-137.28399658203125,137.01800537109375 C-136.66400146484375,138.8979949951172 -141.31399536132812,175.4980010986328 -141.95399475097656,175.47799682617188 C-147.3040008544922,175.29800415039062 -142.5780029296875,156.4040069580078 -145.36399841308594,145.5679931640625 C-146.60699462890625,140.73199462890625 -143.94400024414062,136.16799926757812 -145.1439971923828,132.84800720214844 C-146.343994140625,129.5279998779297 -141.58799743652344,123.44200134277344 -137.42799377441406,127.8219985961914 C-134.35800170898438,131.07200622558594 -137.96400451660156,134.96800231933594 -137.28399658203125,137.01800537109375z"></path></g><g opacity="1" transform="matrix(1,0,0,1,0,0)"><path stroke-linecap="round" stroke-linejoin="round" fill-opacity="0" stroke="rgb(0,161,210)" stroke-opacity="1" stroke-width="5" d=" M-99.17400360107422,149.6580047607422 C-100.06400299072266,154.79800415039062 -108.83399963378906,158.59800720214844 -108.84400177001953,160.01800537109375 C-108.84400177001953,161.42799377441406 -110.60399627685547,165.7480010986328 -110.81400299072266,168.48800659179688 C-111.01399993896484,171.22799682617188 -110.53399658203125,184.58799743652344 -114.48400115966797,183.73800659179688 C-118.43399810791016,182.8979949951172 -118.28399658203125,172.1580047607422 -118.85399627685547,167.63800048828125 C-119.41400146484375,163.1179962158203 -119.3239974975586,159.41799926757812 -121.77400207519531,153.79800415039062 C-124.2239990234375,148.18800354003906 -121.08300018310547,145.2969970703125 -125.50399780273438,141.93800354003906 C-128.44200134277344,139.70599365234375 -133.10400390625,136.84800720214844 -133.6739959716797,139.70799255371094 C-134.6739959716797,144.79800415039062 -137.62399291992188,147.01800537109375 -137.9040069580078,150.4080047607422 C-138.19400024414062,153.79800415039062 -138.7740020751953,169.33799743652344 -139.9040069580078,173.28799438476562 C-141.03399658203125,177.2480010986328 -139.3419952392578,199.947998046875 -143.01400756835938,199.947998046875 C-146.9080047607422,199.947998046875 -146.91200256347656,194.88600158691406 -147.10400390625,184.43800354003906 C-147.2429962158203,176.8979949951172 -149.51400756835938,176.95799255371094 -149.51400756835938,172.43800354003906 C-149.51400756835938,160.5780029296875 -151.23399353027344,156.05799865722656 -153.20399475097656,144.197998046875 C-155.1840057373047,132.3280029296875 -152.52000427246094,122.65399932861328 -155.593994140625,117.22799682617188 C-159.6529998779297,110.06199645996094 -156.62399291992188,94.43800354003906 -156.62399291992188,94.43800354003906 C-141.62399291992188,116.66799926757812 -122.01399993896484,135.5279998779297 -99.17400360107422,149.6580047607422z"></path></g><g opacity="1" transform="matrix(1,0,0,1,0,0)"><path stroke-linecap="round" stroke-linejoin="round" fill-opacity="0" stroke="rgb(0,130,195)" stroke-opacity="1" stroke-width="5" d=" M-114.48400115966797,183.73800659179688 C-118.43399810791016,182.8979949951172 -118.28399658203125,172.1580047607422 -118.85399627685547,167.63800048828125 C-119.41400146484375,163.1179962158203 -119.3239974975586,159.41799926757812 -121.77400207519531,153.79800415039062 C-124.2239990234375,148.18800354003906 -121.08300018310547,145.2969970703125 -125.50399780273438,141.93800354003906"></path></g><g opacity="1" transform="matrix(1,0,0,1,0,0)"><path stroke-linecap="round" stroke-linejoin="round" fill-opacity="0" stroke="rgb(0,130,195)" stroke-opacity="1" stroke-width="5" d=" M-143.01400756835938,199.947998046875 C-146.9080047607422,199.947998046875 -146.91200256347656,194.88600158691406 -147.10400390625,184.43800354003906 C-147.2429962158203,176.8979949951172 -149.51400756835938,176.95799255371094 -149.51400756835938,172.43800354003906 C-149.51400756835938,160.5780029296875 -151.23399353027344,156.05799865722656 -153.20399475097656,144.197998046875 C-155.1840057373047,132.3280029296875 -152.52000427246094,122.65399932861328 -155.593994140625,117.22799682617188 C-159.6529998779297,110.06199645996094 -156.62399291992188,94.43800354003906 -156.62399291992188,94.43800354003906"></path></g><g opacity="1" transform="matrix(1,0,0,1,0,0)"><path fill="rgb(255,255,255)" fill-opacity="1" d=" M-137.83799743652344,132.48500061035156 C-137.83799743652344,134.11900329589844 -138.88600158691406,135.44400024414062 -140.1790008544922,135.44400024414062 C-141.4720001220703,135.44400024414062 -142.52000427246094,134.11900329589844 -142.52000427246094,132.48500061035156 C-142.52000427246094,130.8509979248047 -141.4720001220703,129.5260009765625 -140.1790008544922,129.5260009765625 C-138.88600158691406,129.5260009765625 -137.83799743652344,130.8509979248047 -137.83799743652344,132.48500061035156z"></path></g></g><g style="display: block;" transform="matrix(1,0,0,1,256,256)" opacity="1"><g opacity="1" transform="matrix(1,0,0,1,0,0)"><path fill="url(#__lottie_element_22773)" fill-opacity="1" d=" M156.73300170898438,94.44000244140625 C156.73300170898438,94.44000244140625 153.7519989013672,112.53299713134766 149.0050048828125,117.27999877929688 C144.25799560546875,122.0270004272461 141.50399780273438,139.77499389648438 138.38600158691406,142.81300354003906 C135.26800537109375,145.8509979248047 137.1820068359375,160.42999267578125 135.38600158691406,168.43099975585938 C133.58999633789062,176.4320068359375 135.7530059814453,196.90899658203125 130.1300048828125,197.08700561523438 C124.70999908447266,197.25799560546875 125.0770034790039,174.10800170898438 123.65299987792969,172.1199951171875 C120.7770004272461,168.10499572753906 120.76300048828125,156.71200561523438 118.23300170898438,153.91799926757812 C114.29299926757812,149.56700134277344 108.55500030517578,151.0469970703125 105.08000183105469,147.53599548339844 C105.08000183105469,147.53599548339844 156.73300170898438,94.44000244140625 156.73300170898438,94.44000244140625z"></path></g><g opacity="0.6" transform="matrix(1,0,0,1,0,0)"><path fill="rgb(255,255,255)" fill-opacity="1" d=" M139.95599365234375,140.1280059814453 C135.1719970703125,149.52699279785156 134.58599853515625,179.85800170898438 134.16600036621094,186.08799743652344 C128.62600708007812,187.5279998779297 128.30599975585938,170.83799743652344 128.9459991455078,167.30799865722656 C129.58599853515625,163.7779998779297 122.20600128173828,160.88800048828125 124.93599700927734,153.8179931640625 C127.66600036621094,146.75799560546875 127.33599853515625,146.75799560546875 123.80599975585938,140.4980010986328 C120.2760009765625,134.22799682617188 130.95599365234375,127.3280029296875 136.33599853515625,131.17799377441406 C139.70599365234375,133.59800720214844 140.21600341796875,137.01800537109375 139.95599365234375,140.1280059814453z"></path></g><g opacity="1" transform="matrix(1,0,0,1,0,0)"><path stroke-linecap="round" stroke-linejoin="round" fill-opacity="0" stroke="rgb(0,161,210)" stroke-opacity="1" stroke-width="5" d=" M156.73300170898438,94.44000244140625 C156.73300170898438,94.44000244140625 153.7519989013672,112.53299713134766 149.0050048828125,117.27999877929688 C144.25799560546875,122.0270004272461 141.50399780273438,139.77499389648438 138.38600158691406,142.81300354003906 C135.26800537109375,145.8509979248047 137.1820068359375,160.42999267578125 135.38600158691406,168.43099975585938 C133.58999633789062,176.4320068359375 135.7530059814453,196.90899658203125 130.1300048828125,197.08700561523438 C124.70999908447266,197.25799560546875 125.0770034790039,174.10800170898438 123.65299987792969,172.1199951171875 C120.7770004272461,168.10499572753906 120.76300048828125,156.71200561523438 118.23300170898438,153.91799926757812 C114.29299926757812,149.56700134277344 108.55500030517578,151.0469970703125 105.08000183105469,147.53599548339844"></path></g><g opacity="1" transform="matrix(1,0,0,1,0,0)"><path stroke-linecap="round" stroke-linejoin="round" fill-opacity="0" stroke="rgb(0,130,195)" stroke-opacity="1" stroke-width="5" d=" M130.1300048828125,197.08700561523438 C124.70999908447266,197.25799560546875 125.0770034790039,174.10800170898438 123.65299987792969,172.1199951171875 C120.7770004272461,168.10499572753906 120.76300048828125,156.71200561523438 118.23300170898438,153.91799926757812 C114.29299926757812,149.56700134277344 108.55500030517578,151.0469970703125 105.08000183105469,147.53599548339844"></path></g><g opacity="1" transform="matrix(1,0,0,1,0,0)"><path fill="rgb(255,255,255)" fill-opacity="1" d=" M134.7949981689453,136.0760040283203 C135.16400146484375,138.21400451660156 134.14100646972656,140.1750030517578 132.50799560546875,140.45700073242188 C130.875,140.73899841308594 129.2519989013672,139.23399353027344 128.88299560546875,137.0959930419922 C128.51400756835938,134.95799255371094 129.53799438476562,132.99600219726562 131.17100524902344,132.71400451660156 C132.8040008544922,132.4320068359375 134.42599487304688,133.93800354003906 134.7949981689453,136.0760040283203z"></path></g></g><g style="display: none;"><g><path stroke-linecap="round" stroke-linejoin="round" fill-opacity="0"></path></g></g><g style="display: block;" transform="matrix(1,0,0,1,256,256)" opacity="1"><g opacity="1" transform="matrix(1,0,0,1,0,0)"><path fill="url(#__lottie_element_22713)" fill-opacity="1" d=" M188.93099975585938,-11.074999809265137 C188.93099975585938,93.23799896240234 104.36900329589844,177.80099487304688 0.0560000017285347,177.80099487304688 C-104.25700378417969,177.80099487304688 -188.82000732421875,93.23799896240234 -188.82000732421875,-11.074999809265137 C-188.82000732421875,-115.38800048828125 -104.25700378417969,-199.9499969482422 0.0560000017285347,-199.9499969482422 C104.36900329589844,-199.9499969482422 188.93099975585938,-115.38800048828125 188.93099975585938,-11.074999809265137z"></path><path stroke-linecap="round" stroke-linejoin="round" fill-opacity="0" stroke="rgb(0,74,255)" stroke-opacity="1" stroke-width="8" d=" M188.93099975585938,-11.074999809265137 C188.93099975585938,93.23799896240234 104.36900329589844,177.80099487304688 0.0560000017285347,177.80099487304688 C-104.25700378417969,177.80099487304688 -188.82000732421875,93.23799896240234 -188.82000732421875,-11.074999809265137 C-188.82000732421875,-115.38800048828125 -104.25700378417969,-199.9499969482422 0.0560000017285347,-199.9499969482422 C104.36900329589844,-199.9499969482422 188.93099975585938,-115.38800048828125 188.93099975585938,-11.074999809265137z"></path></g><g opacity="1" transform="matrix(1,0,0,1,0,0)"><path stroke-linecap="round" stroke-linejoin="round" fill-opacity="0" stroke="rgb(1,59,181)" stroke-opacity="1" stroke-width="8" d=" M-163.60499572753906,83.27200317382812 C-179.64300537109375,55.512001037597656 -188.82000732421875,23.290000915527344 -188.82000732421875,-11.074999809265137 C-188.82000732421875,-115.38800048828125 -104.25700378417969,-199.9499969482422 0.0560000017285347,-199.9499969482422 C104.36900329589844,-199.9499969482422 188.93099975585938,-115.38800048828125 188.93099975585938,-11.074999809265137 C188.93099975585938,22.910999298095703 179.9550018310547,54.80099868774414 164.2429962158203,82.35299682617188"></path></g><g opacity="1" transform="matrix(1,0,0,1,0,0)"><path stroke-linecap="round" stroke-linejoin="round" fill-opacity="0" stroke="rgb(10,27,157)" stroke-opacity="1" stroke-width="8" d=" M-184.33299255371094,-52.185001373291016 C-165.56700134277344,-136.72999572753906 -90.13800048828125,-199.9499969482422 0.0560000017285347,-199.9499969482422 C90.72899627685547,-199.9499969482422 166.47799682617188,-136.0570068359375 184.73800659179688,-50.83700180053711"></path></g><g opacity="1" transform="matrix(1,0,0,1,0,0)"><path fill="url(#__lottie_element_22714)" fill-opacity="1" d=" M168.46299743652344,-10.362000465393066 C167.00599670410156,84.66600036621094 90.4520034790039,160.5469970703125 -2.5260000228881836,159.1219940185547 C-95.50399780273438,157.69700622558594 -169.6959991455078,79.50599670410156 -168.24000549316406,-15.52299976348877 C-166.7830047607422,-110.5510025024414 -90.22899627685547,-186.4320068359375 2.749000072479248,-185.0070037841797 C95.72699737548828,-183.58200073242188 169.9199981689453,-105.39099884033203 168.46299743652344,-10.362000465393066z"></path></g><g opacity="0.3" transform="matrix(1,0,0,1,0,0)"><path fill="rgb(255,255,255)" fill-opacity="1" d=" M149.322998046875,-53.50299835205078 C149.322998046875,19.139999389648438 82.49400329589844,-38.32500076293945 0.0560000017285347,-38.32500076293945 C-82.38200378417969,-38.32500076293945 -149.21200561523438,19.139999389648438 -149.21200561523438,-53.50299835205078 C-149.21200561523438,-126.14600372314453 -82.38200378417969,-185.03599548339844 0.0560000017285347,-185.03599548339844 C82.49400329589844,-185.03599548339844 149.322998046875,-126.14600372314453 149.322998046875,-53.50299835205078z"></path></g><g opacity="1" transform="matrix(1,0,0,1,0,0)"><g opacity="1" transform="matrix(1,0,0,1,0,0)"><path stroke-linecap="round" stroke-linejoin="round" fill-opacity="0" stroke="rgb(255,255,255)" stroke-opacity="1" stroke-width="6" d=" M36.428001403808594,-180.8159942626953 C37.965999603271484,-180.4810028076172 39.56100082397461,-180.11199951171875 41.20600128173828,-179.70599365234375"></path></g><g opacity="1" transform="matrix(1,0,0,1,0,0)"><path stroke-linecap="round" stroke-linejoin="round" fill-opacity="0" stroke="rgb(255,255,255)" stroke-opacity="1" stroke-width="6" d=" M15.074000358581543,-184.03599548339844 C15.074000358581543,-184.03599548339844 19.94099998474121,-183.77499389648438 27.663999557495117,-182.4969940185547"></path></g></g><g opacity="0.5" transform="matrix(1,0,0,1,-30.336999893188477,53.20199966430664)"><g opacity="0" transform="matrix(1,0,0,1,0,0)"><path fill="rgb(255,255,255)" fill-opacity="1" d=" M99.21700286865234,90.6449966430664 C99.15499877929688,90.697998046875 90.83000183105469,96.83399963378906 28.753999710083008,108.29399871826172 C-56.90399932861328,93.97899627685547 -81.64399719238281,76.87300109863281 -122.96399688720703,-0.2280000001192093 C-128.1820068359375,-23.88599967956543 -131.41799926757812,-30.312000274658203 -135.04400634765625,-51.14099884033203 C-116.4469985961914,61.25 -26.395000457763672,139.79299926757812 99.21700286865234,90.6449966430664z"></path></g><g opacity="0" transform="matrix(1,0,0,1,0,0)"><path fill="rgb(255,255,255)" fill-opacity="1" d=" M113.73899841308594,81.44999694824219 C104.2239990234375,87.05699920654297 93.45099639892578,93.46399688720703 85.00299835205078,97.13300323486328 C9.805000305175781,125.51100158691406 -101.4209976196289,81.15799713134766 -128.74000549316406,-24.885000228881836 C-133.82200622558594,-37.24300003051758 -135.24099731445312,-57.00600051879883 -134.19200134277344,-66.41200256347656 C-127.052001953125,66.58200073242188 -10.50100040435791,149.70899963378906 113.73899841308594,81.44999694824219z"></path></g></g></g><g style="display: block;" transform="matrix(1,0,0,1,256,256)" opacity="1"><g opacity="1" transform="matrix(1,0,0,1,0,0)"><path fill="url(#__lottie_element_22721)" fill-opacity="1" d=" M-122.2300033569336,58.05799865722656 C-121.86799621582031,79.75 -105.69400024414062,94.44000244140625 -87.15799713134766,94.44000244140625 C-87.15799713134766,94.44000244140625 87.37999725341797,94.44000244140625 87.37999725341797,94.44000244140625 C105.91600036621094,94.44000244140625 121.75800323486328,79.75 122.2020034790039,57.80799865722656 C122.2020034790039,57.80799865722656 4.006999969482422,57.92900085449219 4.006999969482422,57.92900085449219 C4.006999969482422,57.92900085449219 -122.2300033569336,58.05799865722656 -122.2300033569336,58.05799865722656z"></path></g><g opacity="1" transform="matrix(1,0,0,1,0,0)"><path fill="url(#__lottie_element_22722)" fill-opacity="1" d=" M-121.5999984741211,56.152000427246094 C-121.5999984741211,56.152000427246094 122.0719985961914,56.277000427246094 122.0719985961914,56.277000427246094 C121.50700378417969,35.75 105.88600158691406,20.733999252319336 87.37999725341797,20.733999252319336 C87.37999725341797,20.733999252319336 -8.789999961853027,20.733999252319336 -8.789999961853027,20.733999252319336 C-8.789999961853027,20.733999252319336 -87.15799713134766,20.733999252319336 -87.15799713134766,20.733999252319336 C-105.66500091552734,20.733999252319336 -121.24199676513672,35.375 -121.5999984741211,56.152000427246094z"></path></g><g opacity="1" transform="matrix(1,0,0,1,0,0)"><g opacity="1" transform="matrix(1,0,0,1,0,0)"><path stroke-linecap="butt" stroke-linejoin="miter" fill-opacity="0" stroke-miterlimit="10" stroke="rgb(172,160,155)" stroke-opacity="1" stroke-width="5" d=" M0.11100000143051147,20.733999252319336 C0.11100000143051147,20.733999252319336 0.11100000143051147,94.44000244140625 0.11100000143051147,94.44000244140625"></path></g><g opacity="1" transform="matrix(1,0,0,1,0,0)"><path stroke-linecap="butt" stroke-linejoin="miter" fill-opacity="0" stroke-miterlimit="10" stroke="rgb(172,160,155)" stroke-opacity="1" stroke-width="5" d=" M-44.89099884033203,20.733999252319336 C-44.89099884033203,20.733999252319336 -44.89099884033203,94.44000244140625 -44.89099884033203,94.44000244140625"></path></g><g opacity="1" transform="matrix(1,0,0,1,0,0)"><path stroke-linecap="butt" stroke-linejoin="miter" fill-opacity="0" stroke-miterlimit="10" stroke="rgb(172,160,155)" stroke-opacity="1" stroke-width="5" d=" M-89.17500305175781,20.733999252319336 C-89.17500305175781,20.733999252319336 -89.17500305175781,94.44000244140625 -89.17500305175781,94.44000244140625"></path></g><g opacity="1" transform="matrix(1,0,0,1,0,0)"><path stroke-linecap="butt" stroke-linejoin="miter" fill-opacity="0" stroke-miterlimit="10" stroke="rgb(172,160,155)" stroke-opacity="1" stroke-width="5" d=" M89.08300018310547,20.733999252319336 C89.08300018310547,20.733999252319336 89.08300018310547,94.44000244140625 89.08300018310547,94.44000244140625"></path></g><g opacity="1" transform="matrix(1,0,0,1,0,0)"><path stroke-linecap="butt" stroke-linejoin="miter" fill-opacity="0" stroke-miterlimit="10" stroke="rgb(172,160,155)" stroke-opacity="1" stroke-width="5" d=" M47.65800094604492,20.733999252319336 C47.65800094604492,20.733999252319336 47.65800094604492,94.44000244140625 47.65800094604492,94.44000244140625"></path></g></g><g opacity="1" transform="matrix(1,0,0,1,0,0)"><path stroke-linecap="butt" stroke-linejoin="miter" fill-opacity="0" stroke-miterlimit="10" stroke="rgb(0,62,92)" stroke-opacity="1" stroke-width="8" d=" M87.37999725341797,94.44000244140625 C87.37999725341797,94.44000244140625 -87.15799713134766,94.44000244140625 -87.15799713134766,94.44000244140625 C-106.2760009765625,94.44000244140625 -121.77300262451172,78.94200134277344 -121.77300262451172,59.82400131225586 C-121.77300262451172,59.82400131225586 -121.77300262451172,55.3489990234375 -121.77300262451172,55.3489990234375 C-121.77300262451172,36.23099899291992 -106.2760009765625,20.733999252319336 -87.15799713134766,20.733999252319336 C-87.15799713134766,20.733999252319336 87.37999725341797,20.733999252319336 87.37999725341797,20.733999252319336 C106.49800109863281,20.733999252319336 121.99600219726562,36.23099899291992 121.99600219726562,55.3489990234375 C121.99600219726562,55.3489990234375 121.99600219726562,59.82400131225586 121.99600219726562,59.82400131225586 C121.99600219726562,78.94200134277344 106.49800109863281,94.44000244140625 87.37999725341797,94.44000244140625z"></path></g><g opacity="1" transform="matrix(1,0,0,1,0,0)"><path stroke-linecap="butt" stroke-linejoin="miter" fill-opacity="0" stroke-miterlimit="10" stroke="rgb(0,62,92)" stroke-opacity="1" stroke-width="8" d=" M-121.77300262451172,57.58700180053711 C-121.77300262451172,57.58700180053711 121.99600219726562,57.58700180053711 121.99600219726562,57.58700180053711"></path></g></g><g style="display: block;" transform="matrix(1,0,0,1,256,256)" opacity="1"><g opacity="1" transform="matrix(1,0,0,1,0,0)"><g opacity="0.3" transform="matrix(1,0,0,1,0,0)"><path fill="rgb(0,66,128)" fill-opacity="1" d=" M-31.91200065612793,-50.79999923706055 C-31.91200065612793,-35.82699966430664 -42.2760009765625,-23.687999725341797 -55.06100082397461,-23.687999725341797 C-67.84600067138672,-23.687999725341797 -78.20999908447266,-35.82699966430664 -78.20999908447266,-50.79999923706055 C-78.20999908447266,-65.77300262451172 -67.84600067138672,-77.91100311279297 -55.06100082397461,-77.91100311279297 C-42.2760009765625,-77.91100311279297 -31.91200065612793,-65.77300262451172 -31.91200065612793,-50.79999923706055z"></path></g><g opacity="0.3" transform="matrix(1,0,0,1,0,0)"><path fill="rgb(255,255,255)" fill-opacity="1" d=" M-31.91200065612793,-41.05400085449219 C-31.91200065612793,-26.08099937438965 -42.2760009765625,-13.942000389099121 -55.06100082397461,-13.942000389099121 C-67.84600067138672,-13.942000389099121 -78.20999908447266,-26.08099937438965 -78.20999908447266,-41.05400085449219 C-78.20999908447266,-56.027000427246094 -67.84600067138672,-68.16500091552734 -55.06100082397461,-68.16500091552734 C-42.2760009765625,-68.16500091552734 -31.91200065612793,-56.027000427246094 -31.91200065612793,-41.05400085449219z"></path></g><g opacity="1" transform="matrix(1,0,0,1,0,0)"><path fill="rgb(0,66,128)" fill-opacity="1" d=" M-76.76300048828125,-46.26900100708008 C-76.76300048828125,-61.242000579833984 -67.0469970703125,-73.38099670410156 -55.06100082397461,-73.38099670410156 C-43.07500076293945,-73.38099670410156 -33.35900115966797,-61.242000579833984 -33.35900115966797,-46.26900100708008 C-33.35900115966797,-31.29599952697754 -43.07500076293945,-19.158000946044922 -55.06100082397461,-19.158000946044922 C-67.0469970703125,-19.158000946044922 -76.76300048828125,-31.29599952697754 -76.76300048828125,-46.26900100708008z"></path></g><g opacity="1" transform="matrix(1,0,0,1,0,0)"><path fill="rgb(0,35,65)" fill-opacity="1" d=" M-33.361000061035156,-46.27000045776367 C-33.361000061035156,-61.24599838256836 -43.069000244140625,-73.37999725341797 -55.05500030517578,-73.37999725341797 C-67.04100036621094,-73.37999725341797 -76.75900268554688,-61.24599838256836 -76.75900268554688,-46.27000045776367 C-76.75900268554688,-37.92100143432617 -73.74299621582031,-30.45800018310547 -68.99199676513672,-25.488000869750977 C-72.46199798583984,-29.760000228881836 -74.59100341796875,-35.60599899291992 -74.59100341796875,-42.0629997253418 C-74.59100341796875,-55.16299819946289 -65.7979965209961,-66.58999633789062 -54.95600128173828,-66.58999633789062 C-44.11399841308594,-66.58999633789062 -35.332000732421875,-55.16299819946289 -35.332000732421875,-42.0629997253418 C-35.332000732421875,-36.32899856567383 -37.016998291015625,-31.08300018310547 -39.80699920654297,-26.98200035095215 C-35.82500076293945,-31.895000457763672 -33.361000061035156,-38.724998474121094 -33.361000061035156,-46.27000045776367z"></path></g></g><g opacity="1" transform="matrix(1,0,0,1,0,0)"><g opacity="0.3" transform="matrix(1,0,0,1,0,0)"><path fill="rgb(0,66,128)" fill-opacity="1" d=" M77.71600341796875,-50.79999923706055 C77.71600341796875,-35.82699966430664 67.35199737548828,-23.687999725341797 54.56700134277344,-23.687999725341797 C41.78200149536133,-23.687999725341797 31.417999267578125,-35.82699966430664 31.417999267578125,-50.79999923706055 C31.417999267578125,-65.77300262451172 41.78200149536133,-77.91100311279297 54.56700134277344,-77.91100311279297 C67.35199737548828,-77.91100311279297 77.71600341796875,-65.77300262451172 77.71600341796875,-50.79999923706055z"></path></g><g opacity="0.3" transform="matrix(1,0,0,1,0,0)"><path fill="rgb(255,255,255)" fill-opacity="1" d=" M77.71600341796875,-41.05400085449219 C77.71600341796875,-26.08099937438965 67.35199737548828,-13.942000389099121 54.56700134277344,-13.942000389099121 C41.78200149536133,-13.942000389099121 31.417999267578125,-26.08099937438965 31.417999267578125,-41.05400085449219 C31.417999267578125,-56.027000427246094 41.78200149536133,-68.16500091552734 54.56700134277344,-68.16500091552734 C67.35199737548828,-68.16500091552734 77.71600341796875,-56.027000427246094 77.71600341796875,-41.05400085449219z"></path></g><g opacity="1" transform="matrix(1,0,0,1,0,0)"><path fill="rgb(0,66,128)" fill-opacity="1" d=" M32.8650016784668,-46.26900100708008 C32.8650016784668,-61.242000579833984 42.58100128173828,-73.38099670410156 54.56700134277344,-73.38099670410156 C66.5530014038086,-73.38099670410156 76.26899719238281,-61.242000579833984 76.26899719238281,-46.26900100708008 C76.26899719238281,-31.29599952697754 66.5530014038086,-19.158000946044922 54.56700134277344,-19.158000946044922 C42.58100128173828,-19.158000946044922 32.8650016784668,-31.29599952697754 32.8650016784668,-46.26900100708008z"></path></g><g opacity="1" transform="matrix(1,0,0,1,0,0)"><path fill="rgb(0,35,65)" fill-opacity="1" d=" M76.26699829101562,-46.27000045776367 C76.26699829101562,-61.24599838256836 66.55899810791016,-73.37999725341797 54.573001861572266,-73.37999725341797 C42.58700180053711,-73.37999725341797 32.86899948120117,-61.24599838256836 32.86899948120117,-46.27000045776367 C32.86899948120117,-37.92100143432617 35.8849983215332,-30.45800018310547 40.63600158691406,-25.488000869750977 C37.16699981689453,-29.760000228881836 35.0369987487793,-35.60599899291992 35.0369987487793,-42.0629997253418 C35.0369987487793,-55.16299819946289 43.82899856567383,-66.58999633789062 54.67100143432617,-66.58999633789062 C65.51300048828125,-66.58999633789062 74.2959976196289,-55.16299819946289 74.2959976196289,-42.0629997253418 C74.2959976196289,-36.32899856567383 72.61100006103516,-31.08300018310547 69.82099914550781,-26.98200035095215 C73.8030014038086,-31.895000457763672 76.26699829101562,-38.724998474121094 76.26699829101562,-46.27000045776367z"></path></g></g></g><g style="display: block;" transform="matrix(1,0,0,1,256,256)" opacity="1"><g opacity="0.2" transform="matrix(1,0,0,1,0,0)"><path fill="rgb(0,65,255)" fill-opacity="1" d=" M-4.473999977111816,96.33200073242188 C-4.473999977111816,96.33200073242188 -2.7230000495910645,103.0530014038086 6.894999980926514,110.16799926757812 C15.84000015258789,116.78500366210938 12.854000091552734,125.18800354003906 17.503999710083008,131.697998046875 C22.15399932861328,138.20799255371094 18.145000457763672,153.54100036621094 30.055999755859375,152.16299438476562 C36.48400115966797,151.4199981689453 34.268001556396484,128.48199462890625 41.125,125.02100372314453 C42.808998107910156,124.1709976196289 44.56399917602539,130.37600708007812 56.96699905395508,131.24400329589844 C62.4379997253418,131.6269989013672 62.64400100708008,158.27000427246094 66.36900329589844,165.8300018310547 C66.36900329589844,165.8300018310547 79.41300201416016,160.36500549316406 79.41300201416016,160.36500549316406 C79.41300201416016,160.36500549316406 80.60600280761719,122.90899658203125 86.5469970703125,119.34100341796875 C90.52200317382812,116.9540023803711 87.86599731445312,133.7899932861328 99.90599822998047,136.58599853515625 C108.7030029296875,138.62899780273438 106.06700134277344,109.73799896240234 96.45999908447266,91.96299743652344 C96.45999908447266,91.96299743652344 2.568000078201294,94.43800354003906 -4.473999977111816,96.33200073242188z"></path></g><g opacity="1" transform="matrix(1,0,0,1,0,0)"><g opacity="1" transform="matrix(1,0,0,1,0,0)"><path fill="url(#__lottie_element_22747)" fill-opacity="1" d=" M119.21800231933594,68.59500122070312 C118.10800170898438,89.125 113.06800079345703,94.03500366210938 109.36799621582031,97.73500061035156 C105.66799926757812,101.42500305175781 104.87799835205078,108.56500244140625 104.3479995727539,114.375 C103.81800079345703,120.18499755859375 104.72799682617188,134.97500610351562 101.2979965209961,135.5050048828125 C97.85800170898438,136.03500366210938 97.53800201416016,133.65499877929688 95.26799774169922,126.5250015258789 C92.99800109863281,119.3949966430664 93.96800231933594,109.6449966430664 90.93800354003906,107.56500244140625 C89.33799743652344,106.46499633789062 86.53800201416016,109.08499908447266 85.60800170898438,111.99500274658203 C83.95800018310547,117.09500122070312 85.12799835205078,131.2449951171875 83.47799682617188,138.6750030517578 C81.99800109863281,145.40499877929688 81.68800354003906,159.5449981689453 80.89800262451172,164.56500244140625 C80.10800170898438,169.5850067138672 81.30799865722656,194.4149932861328 77.08799743652344,193.88499450683594 C72.85800170898438,193.35499572753906 71.64800262451172,168.78500366210938 70.3280029296875,164.2949981689453 C69.00800323486328,159.80499267578125 67.8280029296875,136.22500610351562 66.4280014038086,132.3350067138672 C65.2979965209961,129.22500610351562 66.62799835205078,116.2249984741211 64.51799774169922,116.2249984741211 C62.40800094604492,116.2249984741211 61.97800064086914,121.3949966430664 53.3380012512207,121.63500213623047 C48.13800048828125,121.7750015258789 39.1879997253418,113.20500183105469 39.108001708984375,117.07499694824219 C38.948001861572266,123.9749984741211 36.40800094604492,129.1649932861328 35.61800003051758,132.3350067138672 C34.81800079345703,135.5050048828125 33.61800003051758,157.63499450683594 28.857999801635742,155.80499267578125 C24.107999801635742,153.96499633789062 24.628000259399414,134.44500732421875 23.577999114990234,132.59500122070312 C22.51799964904785,130.7550048828125 20.408000946044922,125.99500274658203 20.13800048828125,119.125 C19.878000259399414,112.25499725341797 10.04800033569336,104.59500122070312 4.498000144958496,102.2750015258789 C-2.371999979019165,99.41500091552734 -7.271999835968018,92.83499908447266 -7.271999835968018,92.83499908447266 C-7.271999835968018,92.83499908447266 86.1780014038086,92.83499908447266 86.1780014038086,92.83499908447266 C101.68800354003906,92.83499908447266 114.80799865722656,82.6449966430664 119.21800231933594,68.59500122070312z"></path></g><g opacity="0.6" transform="matrix(1,0,0,1,0,0)"><path fill="rgb(255,255,255)" fill-opacity="1" d=" M105.51799774169922,105.91500091552734 C105.51799774169922,105.91500091552734 105.51799774169922,105.92500305175781 105.51799774169922,105.92500305175781 C104.89800262451172,108.70500183105469 104.15799713134766,118.88500213623047 104.0979995727539,121.74500274658203 C104.0979995727539,121.74500274658203 102.02799987792969,121.68499755859375 100.89800262451172,120.59500122070312 C96.52799987792969,116.375 100.03800201416016,109.11499786376953 97.56800079345703,106.78500366210938 C95.0979995727539,104.45500183105469 96.70999908447266,100.2770004272461 99.60800170898438,98.875 C102.91500091552734,97.2750015258789 105.41799926757812,100.96499633789062 105.51799774169922,105.91500091552734z"></path></g><g opacity="0.6" transform="matrix(1,0,0,1,0,0)"><path fill="rgb(255,255,255)" fill-opacity="1" d=" M84.17500305175781,122.73600006103516 C83.9749984741211,128.70599365234375 79.63800048828125,168.73500061035156 79.0979995727539,168.94500732421875 C74.5780029296875,170.71499633789062 75.35800170898438,148.28500366210938 72.77799987792969,140.0850067138672 C70.18800354003906,131.88499450683594 74.96800231933594,131.35499572753906 72.77799987792969,125.25499725341797 C70.5780029296875,119.15499877929688 73.75800323486328,115.76499938964844 79.88800048828125,116.98500061035156 C81.75800323486328,117.36499786376953 83.7020034790039,119.8290023803711 84.17500305175781,122.73600006103516z"></path></g><g opacity="0.6" transform="matrix(1,0,0,1,0,0)"><path fill="rgb(255,255,255)" fill-opacity="1" d=" M37.09199905395508,116.71900177001953 C37.09199905395508,116.71900177001953 37.09199905395508,116.71900177001953 37.09199905395508,116.71900177001953 C36.95199966430664,117.1989974975586 37.09199905395508,116.71900177001953 37.09199905395508,116.71900177001953 C36.93199920654297,123.61900329589844 32.551998138427734,141.7790069580078 31.25200080871582,147.95899963378906 C26.722000122070312,147.49899291992188 31.441999435424805,135.9290008544922 29.062000274658203,129.7790069580078 C26.68199920654297,123.63899993896484 28.506999969482422,116.09700012207031 27.9950008392334,112.63500213623047 C27.200000762939453,107.26100158691406 25.29400062561035,106.12300109863281 25.926000595092773,103.93299865722656 C26.42799949645996,102.19400024414062 27.01099967956543,101.14800262451172 30.180999755859375,100.08799743652344 C33.340999603271484,99.03800201416016 36.303001403808594,97.16300201416016 38.5629997253418,102.33300018310547 C40.41299819946289,106.56300354003906 37.801998138427734,114.1989974975586 37.09199905395508,116.71900177001953z"></path></g><g opacity="1" transform="matrix(1,0,0,1,0,0)"><path stroke-linecap="round" stroke-linejoin="round" fill-opacity="0" stroke="rgb(0,174,239)" stroke-opacity="1" stroke-width="5" d=" M119.21800231933594,68.59500122070312 C118.10800170898438,89.125 113.06800079345703,94.03500366210938 109.36799621582031,97.73500061035156 C105.66799926757812,101.42500305175781 104.87799835205078,108.56500244140625 104.3479995727539,114.375 C103.81800079345703,120.18499755859375 104.72799682617188,134.97500610351562 101.2979965209961,135.5050048828125 C97.85800170898438,136.03500366210938 97.53800201416016,133.65499877929688 95.26799774169922,126.5250015258789 C92.99800109863281,119.3949966430664 93.96800231933594,109.6449966430664 90.93800354003906,107.56500244140625 C89.33799743652344,106.46499633789062 86.53800201416016,109.08499908447266 85.60800170898438,111.99500274658203 C83.95800018310547,117.09500122070312 85.12799835205078,131.2449951171875 83.47799682617188,138.6750030517578 C81.99800109863281,145.40499877929688 81.68800354003906,159.5449981689453 80.89800262451172,164.56500244140625 C80.10800170898438,169.5850067138672 81.30799865722656,194.4149932861328 77.08799743652344,193.88499450683594 C72.85800170898438,193.35499572753906 71.64800262451172,168.78500366210938 70.3280029296875,164.2949981689453 C69.00800323486328,159.80499267578125 67.8280029296875,136.22500610351562 66.4280014038086,132.3350067138672 C65.2979965209961,129.22500610351562 66.62799835205078,116.2249984741211 64.51799774169922,116.2249984741211 C62.40800094604492,116.2249984741211 61.97800064086914,121.3949966430664 53.3380012512207,121.63500213623047 C48.13800048828125,121.7750015258789 39.1879997253418,113.20500183105469 39.108001708984375,117.07499694824219 C38.948001861572266,123.9749984741211 36.40800094604492,129.1649932861328 35.61800003051758,132.3350067138672 C34.81800079345703,135.5050048828125 33.61800003051758,157.63499450683594 28.857999801635742,155.80499267578125 C24.107999801635742,153.96499633789062 24.628000259399414,134.44500732421875 23.577999114990234,132.59500122070312 C22.51799964904785,130.7550048828125 20.408000946044922,125.99500274658203 20.13800048828125,119.125 C19.878000259399414,112.25499725341797 10.04800033569336,104.59500122070312 4.498000144958496,102.2750015258789 C-2.371999979019165,99.41500091552734 -7.271999835968018,92.83499908447266 -7.271999835968018,92.83499908447266 C-7.271999835968018,92.83499908447266 86.1780014038086,92.83499908447266 86.1780014038086,92.83499908447266 C101.68800354003906,92.83499908447266 114.80799865722656,82.6449966430664 119.21800231933594,68.59500122070312z"></path></g><g opacity="1" transform="matrix(1,0,0,1,0,0)"><path stroke-linecap="round" stroke-linejoin="round" fill-opacity="0" stroke="rgb(0,144,221)" stroke-opacity="1" stroke-width="5" d=" M28.857999801635742,155.80499267578125 C24.107999801635742,153.96499633789062 24.628000259399414,134.44500732421875 23.577999114990234,132.59500122070312 C22.51799964904785,130.7550048828125 20.408000946044922,125.99500274658203 20.13800048828125,119.125 C19.878000259399414,112.25499725341797 10.04800033569336,104.59500122070312 4.498000144958496,102.2750015258789 C-2.371999979019165,99.41500091552734 -7.271999835968018,92.83499908447266 -7.271999835968018,92.83499908447266"></path></g><g opacity="1" transform="matrix(1,0,0,1,0,0)"><path stroke-linecap="round" stroke-linejoin="round" fill-opacity="0" stroke="rgb(0,144,221)" stroke-opacity="1" stroke-width="5" d=" M77.08799743652344,193.88499450683594 C72.85800170898438,193.35499572753906 71.64800262451172,168.78500366210938 70.3280029296875,164.2949981689453 C69.00800323486328,159.80499267578125 67.8280029296875,136.22500610351562 66.4280014038086,132.3350067138672 C65.2979965209961,129.22500610351562 66.62799835205078,116.2249984741211 64.51799774169922,116.2249984741211"></path></g><g opacity="1" transform="matrix(1,0,0,1,0,0)"><path stroke-linecap="round" stroke-linejoin="round" fill-opacity="0" stroke="rgb(0,144,221)" stroke-opacity="1" stroke-width="5" d=" M101.2979965209961,135.5050048828125 C97.85800170898438,136.03500366210938 97.53800201416016,133.65499877929688 95.26799774169922,126.5250015258789 C92.99800109863281,119.3949966430664 93.96800231933594,109.6449966430664 90.93800354003906,107.56500244140625"></path></g><g opacity="0.6" transform="matrix(1,0,0,1,0,0)"><path fill="rgb(255,255,255)" fill-opacity="1" d=" M61.90800094604492,100.5199966430664 C57.941001892089844,95.32099914550781 48.60100173950195,98.91100311279297 49.52899932861328,105.7249984741211 C50.11199951171875,110.00700378417969 44.972999572753906,113.93299865722656 53.507999420166016,114.33899688720703 C62.042999267578125,114.74500274658203 65.54399871826172,105.28600311279297 61.90800094604492,100.5199966430664z"></path></g><g opacity="0.6" transform="matrix(1,0,0,1,0,0)"><path fill="rgb(255,255,255)" fill-opacity="1" d=" M81.02799987792969,99.98699951171875 C76.24800109863281,96.5250015258789 70.68000030517578,103.4020004272461 74.09600067138672,110.59300231933594 C76.12200164794922,114.85900115966797 80.13099670410156,114.06500244140625 80.38700103759766,108.75199890136719 C80.52999877929688,105.7770004272461 83.5260009765625,101.7959976196289 81.02799987792969,99.98699951171875z"></path></g><g opacity="1" transform="matrix(1,0,0,1,0,0)"><path fill="rgb(255,255,255)" fill-opacity="1" d=" M81.08899688720703,122.69400024414062 C81.08899688720703,124.76499938964844 79.87699890136719,126.44400024414062 78.38099670410156,126.44400024414062 C76.88500213623047,126.44400024414062 75.6719970703125,124.76499938964844 75.6719970703125,122.69400024414062 C75.6719970703125,120.62300109863281 76.88500213623047,118.94400024414062 78.38099670410156,118.94400024414062 C79.87699890136719,118.94400024414062 81.08899688720703,120.62300109863281 81.08899688720703,122.69400024414062z"></path></g></g><g opacity="1" transform="matrix(1,0,0,1,0,0)"><path fill="rgb(255,255,255)" fill-opacity="1" d=" M37.10200119018555,106.197998046875 C37.10200119018555,108.14600372314453 35.84000015258789,109.7249984741211 34.28300094604492,109.7249984741211 C32.72600173950195,109.7249984741211 31.464000701904297,108.14600372314453 31.464000701904297,106.197998046875 C31.464000701904297,104.25 32.72600173950195,102.6709976196289 34.28300094604492,102.6709976196289 C35.84000015258789,102.6709976196289 37.10200119018555,104.25 37.10200119018555,106.197998046875z"></path></g></g><g style="display: block;" transform="matrix(1,0,0,1,256,256)" opacity="1"><g opacity="0.2" transform="matrix(1,0,0,1,0,0)"><path fill="rgb(0,65,255)" fill-opacity="1" d=" M-90.1969985961914,155.0540008544922 C-92.5530014038086,153.55599975585938 -97.34300231933594,147.1929931640625 -96.17400360107422,131.64100646972656 C-95.46600341796875,122.22899627685547 -95.625,111.66799926757812 -99.17400360107422,114.67500305175781 C-100.93099975585938,116.16400146484375 -106.21299743652344,120.4520034790039 -108.10900115966797,98.75399780273438 C-110.00499725341797,77.05599975585938 -104.7249984741211,94.46099853515625 -89.17500305175781,94.44000244140625 C-73.625,94.41899871826172 -51.36899948120117,94.43800354003906 -51.36899948120117,94.43800354003906 C-51.36899948120117,94.43800354003906 -43.553001403808594,109.6500015258789 -43.553001403808594,109.6500015258789 C-43.553001403808594,109.6500015258789 -46.54800033569336,111.15499877929688 -52.12900161743164,106.40399932861328 C-57.709999084472656,101.65299987792969 -64.38600158691406,109.44200134277344 -66.93900299072266,123.94400024414062 C-69.49199676513672,138.4459991455078 -72.08899688720703,162.83799743652344 -72.08899688720703,162.83799743652344 C-72.08899688720703,162.83799743652344 -83.82599639892578,159.10499572753906 -90.1969985961914,155.0540008544922z"></path></g><g opacity="1" transform="matrix(1,0,0,1,0,0)"><g opacity="1" transform="matrix(1,0,0,1,0,0)"><path fill="url(#__lottie_element_22762)" fill-opacity="1" d=" M-35.67499923706055,92.83499908447266 C-35.67499923706055,92.83499908447266 -38.13999938964844,110.06500244140625 -40.86000061035156,110.06500244140625 C-43.56999969482422,110.06500244140625 -47.03799819946289,97.39099884033203 -50.65399932861328,92.83499908447266 C-50.65399932861328,92.83499908447266 -35.67499923706055,92.83499908447266 -35.67499923706055,92.83499908447266z"></path></g><g opacity="1" transform="matrix(1,0,0,1,0,0)"><path fill="url(#__lottie_element_22763)" fill-opacity="1" d=" M-50.65399932861328,92.83499908447266 C-54.944000244140625,92.83499908447266 -56.14500045776367,102.79499816894531 -61.14500045776367,109.23500061035156 C-66.15499877929688,115.67500305175781 -66.15499877929688,140.7050018310547 -69.49500274658203,147.14500427246094 C-72.82499694824219,153.5749969482422 -70.68499755859375,189.72500610351562 -77.3550033569336,190.89500427246094 C-84.03500366210938,192.05499267578125 -83.31500244140625,153.3350067138672 -84.51499938964844,149.52499389648438 C-85.70500183105469,145.7050018310547 -90.30999755859375,131.2480010986328 -90.4749984741211,122.1050033569336 C-90.6449966430664,112.7020034790039 -93.6780014038086,101.44999694824219 -95.4749984741211,101.13500213623047 C-98.79900360107422,100.552001953125 -100.95500183105469,110.66500091552734 -103.1050033569336,110.66500091552734 C-105.25499725341797,110.66500091552734 -108.93499755859375,95.30500030517578 -108.19499969482422,85.28500366210938 C-102.2750015258789,90.01499938964844 -94.76499938964844,92.83499908447266 -86.6050033569336,92.83499908447266 C-86.6050033569336,92.83499908447266 -50.65399932861328,92.83499908447266 -50.65399932861328,92.83499908447266z"></path></g><g opacity="0.6" transform="matrix(1,0,0,1,0,0)"><path fill="rgb(255,255,255)" fill-opacity="1" d=" M-69.19499969482422,124.82499694824219 C-68.93399810791016,128.65899658203125 -72.04499816894531,167.8040008544922 -72.50499725341797,175.1439971923828 C-80.1050033569336,183.85400390625 -75.447998046875,150.35400390625 -79.4749984741211,139.1649932861328 C-81.03199768066406,134.83900451660156 -81.46499633789062,126.28500366210938 -80.375,120.1050033569336 C-79.28500366210938,113.93499755859375 -79.6449966430664,111.66500091552734 -81.28500366210938,108.53500366210938 C-82.91500091552734,105.40499877929688 -79.90799713134766,102.21099853515625 -78.23899841308594,101.08799743652344 C-75.6760025024414,99.36299896240234 -69.56800079345703,97.14700317382812 -67.61299896240234,99.31999969482422 C-63.803001403808594,103.55500030517578 -70.19999694824219,110.06500244140625 -69.19499969482422,124.82499694824219z"></path></g><g opacity="1" transform="matrix(1,0,0,1,0,0)"><path stroke-linecap="round" stroke-linejoin="round" fill-opacity="0" stroke="rgb(0,174,239)" stroke-opacity="1" stroke-width="5" d=" M-35.67499923706055,92.83499908447266 C-35.67499923706055,92.83499908447266 -38.13999938964844,110.06500244140625 -40.86000061035156,110.06500244140625 C-43.56999969482422,110.06500244140625 -47.03799819946289,97.39099884033203 -50.65399932861328,92.83499908447266 C-50.65399932861328,92.83499908447266 -35.67499923706055,92.83499908447266 -35.67499923706055,92.83499908447266z"></path></g><g opacity="1" transform="matrix(1,0,0,1,0,0)"><path stroke-linecap="round" stroke-linejoin="round" fill-opacity="0" stroke="rgb(0,144,221)" stroke-opacity="1" stroke-width="5" d=" M-40.86000061035156,110.06500244140625 C-43.56999969482422,110.06500244140625 -47.03799819946289,97.39099884033203 -50.65399932861328,92.83499908447266"></path></g><g opacity="1" transform="matrix(1,0,0,1,0,0)"><path stroke-linecap="round" stroke-linejoin="round" fill-opacity="0" stroke="rgb(0,174,239)" stroke-opacity="1" stroke-width="5" d=" M-50.65399932861328,92.83499908447266 C-54.944000244140625,92.83499908447266 -56.14500045776367,102.79499816894531 -61.14500045776367,109.23500061035156 C-66.15499877929688,115.67500305175781 -66.15499877929688,140.7050018310547 -69.49500274658203,147.14500427246094 C-72.82499694824219,153.5749969482422 -70.68499755859375,189.72500610351562 -77.3550033569336,190.89500427246094 C-84.03500366210938,192.05499267578125 -83.31500244140625,153.3350067138672 -84.51499938964844,149.52499389648438 C-85.70500183105469,145.7050018310547 -90.30999755859375,131.2480010986328 -90.4749984741211,122.1050033569336 C-90.6449966430664,112.7020034790039 -93.6780014038086,101.44999694824219 -95.4749984741211,101.13500213623047 C-98.79900360107422,100.552001953125 -100.95500183105469,110.66500091552734 -103.1050033569336,110.66500091552734 C-105.25499725341797,110.66500091552734 -108.93499755859375,95.30500030517578 -108.19499969482422,85.28500366210938 C-102.2750015258789,90.01499938964844 -94.76499938964844,92.83499908447266 -86.6050033569336,92.83499908447266 C-86.6050033569336,92.83499908447266 -50.65399932861328,92.83499908447266 -50.65399932861328,92.83499908447266z"></path></g><g opacity="1" transform="matrix(1,0,0,1,0,0)"><path stroke-linecap="round" stroke-linejoin="round" fill-opacity="0" stroke="rgb(0,144,221)" stroke-opacity="1" stroke-width="5" d=" M-77.3550033569336,190.89500427246094 C-84.03500366210938,192.05499267578125 -83.31500244140625,153.3350067138672 -84.51499938964844,149.52499389648438 C-85.70500183105469,145.7050018310547 -90.30999755859375,131.2480010986328 -90.4749984741211,122.1050033569336 C-90.6449966430664,112.7020034790039 -93.6780014038086,101.44999694824219 -95.4749984741211,101.13500213623047 C-98.79900360107422,100.552001953125 -100.95500183105469,110.66500091552734 -103.1050033569336,110.66500091552734 C-105.25499725341797,110.66500091552734 -108.93499755859375,95.30500030517578 -108.19499969482422,85.28500366210938"></path></g><g opacity="1" transform="matrix(1,0,0,1,0,0)"><path stroke-linecap="round" stroke-linejoin="round" fill-opacity="0" stroke="rgb(0,174,239)" stroke-opacity="1" stroke-width="5" d=" M-50.65399932861328,92.83499908447266 C-50.65399932861328,92.83499908447266 -35.67499923706055,92.83499908447266 -35.67499923706055,92.83499908447266"></path></g><g opacity="1" transform="matrix(1,0,0,1,0,0)"><path fill="rgb(255,255,255)" fill-opacity="1" d=" M-68.69999694824219,106.05799865722656 C-68.69999694824219,108.51599884033203 -70.33699798583984,110.50800323486328 -72.35700225830078,110.50800323486328 C-74.37699890136719,110.50800323486328 -76.01499938964844,108.51599884033203 -76.01499938964844,106.05799865722656 C-76.01499938964844,103.5999984741211 -74.37699890136719,101.60800170898438 -72.35700225830078,101.60800170898438 C-70.33699798583984,101.60800170898438 -68.69999694824219,103.5999984741211 -68.69999694824219,106.05799865722656z"></path></g><g opacity="1" transform="matrix(1,0,0,1,0,0)"><path fill="rgb(255,255,255)" fill-opacity="1" d=" M-70.56700134277344,129.7969970703125 C-70.56700134277344,131.6719970703125 -71.81600189208984,133.1909942626953 -73.35700225830078,133.1909942626953 C-74.89800262451172,133.1909942626953 -76.14800262451172,131.6719970703125 -76.14800262451172,129.7969970703125 C-76.14800262451172,127.9219970703125 -74.89800262451172,126.4020004272461 -73.35700225830078,126.4020004272461 C-71.81600189208984,126.4020004272461 -70.56700134277344,127.9219970703125 -70.56700134277344,129.7969970703125z"></path></g></g></g><g style="display: none;"><g><path stroke-linecap="round" stroke-linejoin="round" fill-opacity="0"></path></g><g><path stroke-linecap="round" stroke-linejoin="round" fill-opacity="0"></path></g><g><path stroke-linecap="round" stroke-linejoin="round" fill-opacity="0"></path></g><g><path stroke-linecap="round" stroke-linejoin="round" fill-opacity="0"></path></g></g><g style="display: none;"><g><path stroke-linecap="round" stroke-linejoin="round" fill-opacity="0"></path></g></g><g style="display: none;"><g><path></path></g></g><g style="display: none;"><g><path></path></g></g><g style="display: none;"><g><path></path></g></g><g style="display: none;"><g><path></path></g></g><g style="display: none;"><g><path></path></g></g><g style="display: none;"><g><path stroke-linecap="round" stroke-linejoin="round" fill-opacity="0"></path></g><g><path stroke-linecap="round" stroke-linejoin="round" fill-opacity="0"></path></g><g><path stroke-linecap="round" stroke-linejoin="round" fill-opacity="0"></path></g></g><g style="display: none;"><g><path stroke-linecap="round" stroke-linejoin="round" fill-opacity="0"></path></g><g><path stroke-linecap="round" stroke-linejoin="round" fill-opacity="0"></path></g><g><path stroke-linecap="round" stroke-linejoin="round" fill-opacity="0"></path></g></g><g style="display: none;"><g><path stroke-linecap="round" stroke-linejoin="round" fill-opacity="0"></path></g><g><path stroke-linecap="round" stroke-linejoin="round" fill-opacity="0"></path></g><g><path stroke-linecap="round" stroke-linejoin="round" fill-opacity="0"></path></g></g><g style="display: none;"><g><path stroke-linecap="round" stroke-linejoin="round" fill-opacity="0"></path></g><g><path stroke-linecap="round" stroke-linejoin="round" fill-opacity="0"></path></g><g><path stroke-linecap="round" stroke-linejoin="round" fill-opacity="0"></path></g></g></g></svg>