<svg xmlns="http://www.w3.org/2000/svg" viewBox="0 0 512 512" width="512" height="512" style="width: 100%; height: 100%; transform: translate3d(0,0,0);" preserveAspectRatio="xMidYMid meet"><defs><clipPath id="__lottie_element_22790"><rect width="512" height="512" x="0" y="0"></rect></clipPath><linearGradient id="__lottie_element_22819" spreadMethod="pad" gradientUnits="userSpaceOnUse" x1="122" y1="-16" x2="133.79800415039062" y2="2.259000062942505"><stop offset="0%" stop-color="rgb(60,5,0)"></stop><stop offset="38%" stop-color="rgb(111,45,0)"></stop><stop offset="100%" stop-color="rgb(162,84,0)"></stop></linearGradient><linearGradient id="__lottie_element_22829" spreadMethod="pad" gradientUnits="userSpaceOnUse" x1="232" y1="-16" x2="243.79800415039062" y2="2.259000062942505"><stop offset="0%" stop-color="rgb(60,5,0)"></stop><stop offset="38%" stop-color="rgb(111,45,0)"></stop><stop offset="100%" stop-color="rgb(162,84,0)"></stop></linearGradient><linearGradient id="__lottie_element_22842" spreadMethod="pad" gradientUnits="userSpaceOnUse" x1="59" y1="186" x2="59" y2="107.58599853515625"><stop offset="0%" stop-color="rgb(247,248,248)"></stop><stop offset="50%" stop-color="rgb(247,248,248)"></stop><stop offset="100%" stop-color="rgb(247,248,248)"></stop></linearGradient><linearGradient id="__lottie_element_22843" spreadMethod="pad" gradientUnits="userSpaceOnUse" x1="-42" y1="186" x2="-42" y2="107.58599853515625"><stop offset="0%" stop-color="rgb(247,248,248)"></stop><stop offset="50%" stop-color="rgb(247,248,248)"></stop><stop offset="100%" stop-color="rgb(247,248,248)"></stop></linearGradient></defs><g clip-path="url(#__lottie_element_22790)"><g style="display: block;" transform="matrix(1.090000033378601,0,0,1.090000033378601,228.6573486328125,309.5339660644531)" opacity="1"><g opacity="1" transform="matrix(1,0,0,1,0,0)"><path fill="rgb(0,145,166)" fill-opacity="1" d=" M-40.01100158691406,199.50999450683594 C-40.01100158691406,199.50999450683594 -40.01100158691406,92.88400268554688 -40.01100158691406,92.88400268554688 C-27.135000228881836,90.68000030517578 -13.156999588012695,89.05699920654297 1.8480000495910645,88.16300201416016 C1.8480000495910645,88.16300201416016 17.43000030517578,88.45999908447266 17.43000030517578,88.45999908447266 C17.43000030517578,88.45999908447266 57.154998779296875,92.88500213623047 57.154998779296875,92.88500213623047 C57.154998779296875,92.88500213623047 57.154998779296875,199.50799560546875 57.154998779296875,199.50799560546875"></path></g><g opacity="1" transform="matrix(1,0,0,1,0,0)"><path fill="rgb(213,213,213)" fill-opacity="1" d=" M-40.01100158691406,92.88500213623047 C-40.01100158691406,92.88500213623047 -40.01100158691406,199.50799560546875 -40.01100158691406,199.50799560546875 C-40.01100158691406,199.50799560546875 -116.4520034790039,199.50799560546875 -116.4520034790039,199.50799560546875 C-126.7020034790039,199.50799560546875 -134.3280029296875,198.48500061035156 -139.91799926757812,197.15199279785156 C-150.56100463867188,194.60000610351562 -153.83599853515625,190.91099548339844 -153.83599853515625,190.91099548339844 C-151.9759979248047,177.06500244140625 -146.91400146484375,149.78799438476562 -134.5970001220703,134.39199829101562 C-121.16500091552734,117.61199951171875 -88.3479995727539,101.1510009765625 -40.01100158691406,92.88500213623047z"></path></g><g opacity="0.8" transform="matrix(1,0,0,1,0,0)"><path fill="rgb(243,243,243)" fill-opacity="1" d=" M-40.01100158691406,92.88500213623047 C-40.01100158691406,92.88500213623047 -40.01100158691406,111.07099914550781 -40.01100158691406,111.07099914550781 C-40.01100158691406,111.07099914550781 -100.3239974975586,117.44599914550781 -123.99600219726562,146.85299682617188 C-132.96499633789062,157.99200439453125 -138.26499938964844,184.38099670410156 -139.91799926757812,197.15199279785156 C-150.56100463867188,194.60000610351562 -153.83599853515625,190.91099548339844 -153.83599853515625,190.91099548339844 C-151.9759979248047,177.06500244140625 -146.91400146484375,149.78799438476562 -134.5970001220703,134.39199829101562 C-121.16500091552734,117.61199951171875 -88.3479995727539,101.1510009765625 -40.01100158691406,92.88500213623047z"></path></g><g opacity="1" transform="matrix(1,0,0,1,0,0)"><g opacity="1" transform="matrix(1,0,0,1,0,0)"><path fill="rgb(128,140,147)" fill-opacity="1" d=" M-149.60499572753906,184.00599670410156 C-149.60499572753906,184.00599670410156 -150.3459930419922,189.48800659179688 -150.81700134277344,193.10400390625 C-150.81700134277344,193.10400390625 -158.4770050048828,188.90699768066406 -157.9010009765625,184.21299743652344 C-157.9010009765625,184.21299743652344 -149.60499572753906,184.00599670410156 -149.60499572753906,184.00599670410156z"></path></g><g opacity="1" transform="matrix(1,0,0,1,0,0)"><path stroke-linecap="round" stroke-linejoin="round" fill-opacity="0" stroke="rgb(128,140,147)" stroke-opacity="1" stroke-width="8" d=" M-153.83599853515625,184.656005859375 C-152.76600646972656,176.2469940185547 -148.9149932861328,152.2949981689453 -134.5970001220703,134.39199829101562 C-121.16500091552734,117.61199951171875 -88.3479995727539,101.1510009765625 -40.01100158691406,92.88500213623047 C-40.01100158691406,92.88500213623047 -40.01100158691406,194.3419952392578 -40.01100158691406,194.3419952392578"></path></g></g><g opacity="0.6" transform="matrix(1,0,0,1,0,0)"><path stroke-linecap="round" stroke-linejoin="round" fill-opacity="0" stroke="rgb(128,140,147)" stroke-opacity="1" stroke-width="5" d=" M-131.0800018310547,130.45700073242188 C-131.0800018310547,130.45700073242188 -129.7989959716797,159.0749969482422 -117.2229995727539,196.2030029296875"></path></g><g opacity="1" transform="matrix(1,0,0,1,0,0)"><path fill="rgb(213,213,213)" fill-opacity="1" d=" M170.39300537109375,190.91099548339844 C170.39300537109375,190.91099548339844 170.39300537109375,190.91099548339844 170.39300537109375,190.91099548339844 C170.39300537109375,190.91099548339844 167.2310028076172,194.4770050048828 157.04299926757812,197.00799560546875 C151.40199279785156,198.41299438476562 143.61099243164062,199.50799560546875 133.00900268554688,199.50799560546875 C133.00900268554688,199.50799560546875 57.15700149536133,199.50799560546875 57.15700149536133,199.50799560546875 C57.15700149536133,199.50799560546875 57.15700149536133,92.88500213623047 57.15700149536133,92.88500213623047 C105.49400329589844,101.1510009765625 138.30999755859375,117.61199951171875 151.74200439453125,134.39199829101562 C164.38900756835938,150.21099853515625 168.66700744628906,177.45799255371094 170.39300537109375,190.91099548339844z"></path></g><g opacity="0.8" transform="matrix(1,0,0,1,0,0)"><path fill="rgb(243,243,243)" fill-opacity="1" d=" M170.39300537109375,190.91099548339844 C170.39300537109375,190.91099548339844 170.39300537109375,190.91099548339844 170.39300537109375,190.91099548339844 C170.39300537109375,190.91099548339844 167.2310028076172,194.4770050048828 157.04299926757812,197.00799560546875 C155.36900329589844,184.18499755859375 150.07899475097656,157.9499969482422 141.14100646972656,146.85299682617188 C117.46900177001953,117.44599914550781 57.15700149536133,111.07099914550781 57.15700149536133,111.07099914550781 C57.15700149536133,111.07099914550781 57.15700149536133,92.88500213623047 57.15700149536133,92.88500213623047 C105.49400329589844,101.1510009765625 138.30999755859375,117.61199951171875 151.74200439453125,134.39199829101562 C164.38900756835938,150.21099853515625 168.66700744628906,177.45799255371094 170.39300537109375,190.91099548339844z"></path></g><g opacity="1" transform="matrix(1,0,0,1,0,0)"><g opacity="1" transform="matrix(1,0,0,1,0,0)"><path fill="rgb(128,140,147)" fill-opacity="1" d=" M166.83599853515625,184.00599670410156 C166.83599853515625,184.00599670410156 167.58599853515625,189.08200073242188 168.0570068359375,192.697998046875 C168.0570068359375,192.697998046875 175.75399780273438,188.90699768066406 175.17799377441406,184.21299743652344 C175.17799377441406,184.21299743652344 166.83599853515625,184.00599670410156 166.83599853515625,184.00599670410156z"></path></g><g opacity="1" transform="matrix(1,0,0,1,0,0)"><path stroke-linecap="round" stroke-linejoin="round" fill-opacity="0" stroke="rgb(128,140,147)" stroke-opacity="1" stroke-width="8" d=" M171.06500244140625,184.58900451660156 C170.24899291992188,177.66000366210938 166.6820068359375,153.07400512695312 151.74099731445312,134.39199829101562 C138.3090057373047,117.61199951171875 105.49199676513672,101.1510009765625 57.154998779296875,92.88500213623047 C57.154998779296875,92.88500213623047 57.154998779296875,194.3419952392578 57.154998779296875,194.3419952392578"></path></g></g><g opacity="0.6" transform="matrix(1,0,0,1,0,0)"><path stroke-linecap="round" stroke-linejoin="round" fill-opacity="0" stroke="rgb(128,140,147)" stroke-opacity="1" stroke-width="5" d=" M148.2239990234375,130.45700073242188 C148.2239990234375,130.45700073242188 146.24600219726562,159.28199768066406 133.6699981689453,196.41000366210938"></path></g><g opacity="1" transform="matrix(1,0,0,1,0,0)"><path fill="rgb(246,173,0)" fill-opacity="1" d=" M-35.17399978637695,86.7229995727539 C-35.17399978637695,86.7229995727539 -39.30799865722656,86.7229995727539 -39.30799865722656,86.7229995727539 C-39.30799865722656,90.02300262451172 -37.981998443603516,100.86699676513672 -36.0890007019043,104.73899841308594 C-28.016000747680664,121.2490005493164 -0.7689999938011169,149.29600524902344 9.050999641418457,149.29600524902344 C18.485000610351562,149.29600524902344 45.470001220703125,120.63800048828125 53.816001892089844,104.42400360107422 C55.7140007019043,100.73699951171875 56.808998107910156,89.93199920654297 56.808998107910156,86.7229995727539 C56.808998107910156,86.7229995727539 49.57699966430664,85.66300201416016 49.57699966430664,85.66300201416016 C49.57699966430664,85.66300201416016 -35.17399978637695,86.7229995727539 -35.17399978637695,86.7229995727539z"></path></g><g opacity="0.3" transform="matrix(1,0,0,1,0,0)"><path fill="rgb(207,114,0)" fill-opacity="1" d=" M56.805999755859375,86.72699737548828 C56.805999755859375,89.93000030517578 55.71099853515625,100.73799896240234 53.81999969482422,104.427001953125 C52.435001373291016,107.1240005493164 50.52399826049805,110.16100311279297 48.270999908447266,113.35399627685547 C35.933998107910156,119.0780029296875 22.55299949645996,122.23999786376953 8.635000228881836,122.23999786376953 C-5.230999946594238,122.23999786376953 -18.559999465942383,119.0989990234375 -30.865999221801758,113.41600036621094 C-32.994998931884766,110.33699798583984 -34.78300094604492,107.39299774169922 -36.084999084472656,104.73699951171875 C-37.986000061035156,100.86199951171875 -39.308998107910156,90.02300262451172 -39.308998107910156,86.72699737548828 C-39.308998107910156,86.72699737548828 -35.17599868774414,86.72699737548828 -35.17599868774414,86.72699737548828 C-35.17599868774414,86.72699737548828 49.57400131225586,85.66300201416016 49.57400131225586,85.66300201416016 C49.57400131225586,85.66300201416016 56.805999755859375,86.72699737548828 56.805999755859375,86.72699737548828z"></path></g><g opacity="1" transform="matrix(1,0,0,1,0,0)"><path stroke-linecap="round" stroke-linejoin="round" fill-opacity="0" stroke="rgb(0,84,104)" stroke-opacity="1" stroke-width="8" d=" M-33.51100158691406,76.5260009765625 C-33.51100158691406,76.5260009765625 -41.32699966430664,86.16899871826172 -41.32699966430664,86.16899871826172 C-41.32699966430664,89.46900177001953 -37.981998443603516,100.86699676513672 -36.0890007019043,104.73899841308594 C-28.016000747680664,121.2490005493164 -0.7689999938011169,149.29600524902344 9.050999641418457,149.29600524902344 C18.485000610351562,149.29600524902344 45.470001220703125,120.63800048828125 53.816001892089844,104.42400360107422 C55.7140007019043,100.73699951171875 56.808998107910156,89.93199920654297 56.808998107910156,86.7229995727539 C56.808998107910156,86.7229995727539 55.87300109863281,74.35700225830078 55.87300109863281,74.35700225830078 C55.87300109863281,74.35700225830078 -33.51100158691406,76.5260009765625 -33.51100158691406,76.5260009765625z"></path></g><g opacity="1" transform="matrix(1,0,0,1,0,0)"><g opacity="1" transform="matrix(1,0,0,1,0,0)"><path fill="url(#__lottie_element_22842)" fill-opacity="1" d=" M28.288999557495117,199.50799560546875 C28.288999557495117,199.50799560546875 47.17499923706055,128.5330047607422 58.525001525878906,80.68900299072266 C58.525001525878906,80.68900299072266 65.39900207519531,89.71499633789062 65.39900207519531,89.71499633789062 C65.39900207519531,89.71499633789062 80.8550033569336,117.4800033569336 86.41999816894531,150.3300018310547 C86.41999816894531,150.3300018310547 64.36599731445312,156.4510040283203 64.36599731445312,156.4510040283203 C64.36599731445312,156.4510040283203 80.70500183105469,167.90199279785156 90.31400299072266,175.00399780273438 C90.31400299072266,175.00399780273438 82.40499877929688,199.50799560546875 82.40499877929688,199.50799560546875"></path></g><g opacity="1" transform="matrix(1,0,0,1,0,0)"><path stroke-linecap="round" stroke-linejoin="round" fill-opacity="0" stroke="rgb(146,159,165)" stroke-opacity="1" stroke-width="8" d=" M29.604000091552734,194.3419952392578 C29.604000091552734,194.3419952392578 47.17499923706055,128.5330047607422 58.525001525878906,80.68900299072266 C58.525001525878906,80.68900299072266 65.39900207519531,89.71499633789062 65.39900207519531,89.71499633789062 C65.39900207519531,89.71499633789062 80.8550033569336,117.4800033569336 86.41999816894531,150.3300018310547 C86.41999816894531,150.3300018310547 64.36599731445312,156.4510040283203 64.36599731445312,156.4510040283203 C64.36599731445312,156.4510040283203 80.70500183105469,167.90199279785156 90.31400299072266,175.00399780273438 C90.31400299072266,175.00399780273438 83.01399993896484,194.3419952392578 83.01399993896484,194.3419952392578"></path></g><g opacity="1" transform="matrix(1,0,0,1,0,0)"><path fill="rgb(146,159,165)" fill-opacity="1" d=" M26.110000610351562,191.3979949951172 C26.110000610351562,191.3979949951172 23.97599983215332,199.50999450683594 23.97599983215332,199.50999450683594 C23.97599983215332,199.50999450683594 32.494998931884766,199.50999450683594 32.494998931884766,199.50999450683594 C32.494998931884766,199.50999450683594 34.44499969482422,192.156005859375 34.44499969482422,192.156005859375 C34.44499969482422,192.156005859375 26.110000610351562,191.3979949951172 26.110000610351562,191.3979949951172z"></path></g><g opacity="1" transform="matrix(1,0,0,1,0,0)"><path fill="rgb(146,159,165)" fill-opacity="1" d=" M79.71199798583984,191.3979949951172 C79.71199798583984,191.3979949951172 76.56099700927734,199.50999450683594 76.56099700927734,199.50999450683594 C76.56099700927734,199.50999450683594 85.49099731445312,199.50999450683594 85.49099731445312,199.50999450683594 C85.49099731445312,199.50999450683594 88.2490005493164,192.156005859375 88.2490005493164,192.156005859375 C88.2490005493164,192.156005859375 79.71199798583984,191.3979949951172 79.71199798583984,191.3979949951172z"></path></g></g><g opacity="1" transform="matrix(1,0,0,1,0,0)"><g opacity="1" transform="matrix(1,0,0,1,0,0)"><path stroke-linecap="round" stroke-linejoin="round" fill-opacity="0" stroke="rgb(31,32,32)" stroke-opacity="1" stroke-width="8" d=" M51.81999969482422,77.65599822998047 C51.81999969482422,77.65599822998047 79.75199890136719,81.04900360107422 91.33499908447266,106.92900085449219"></path></g><g opacity="1" transform="matrix(1,0,0,1,0,0)"><path stroke-linecap="round" stroke-linejoin="round" fill-opacity="0" stroke="rgb(31,32,32)" stroke-opacity="1" stroke-width="8" d=" M88.24700164794922,193.41000366210938 C88.24700164794922,193.41000366210938 69.04299926757812,198.19000244140625 61.861000061035156,183.1739959716797 C54.68000030517578,168.1580047607422 64.30400085449219,121.74400329589844 70.3479995727539,114.4800033569336 C77.46099853515625,105.93000030517578 105.29299926757812,104.64299774169922 114.11000061035156,112.66500091552734 C125.0469970703125,122.61599731445312 135.58799743652344,171.6179962158203 130.0850067138672,183.82699584960938 C125.52300262451172,193.94900512695312 104.2969970703125,192.45399475097656 104.2969970703125,192.45399475097656"></path></g><g opacity="1" transform="matrix(1,0,0,1,0,0)"><path stroke-linecap="round" stroke-linejoin="round" fill-opacity="0" stroke="rgb(98,102,104)" stroke-opacity="1" stroke-width="8" d=" M123.54199981689453,130.45599365234375 C129.9759979248047,149.0279998779297 133.91400146484375,175.33299255371094 130.0850067138672,183.82699584960938 C125.52300262451172,193.94900512695312 104.2969970703125,192.45399475097656 104.2969970703125,192.45399475097656"></path></g><g opacity="1" transform="matrix(1,0,0,1,0,0)"><path stroke-linecap="round" stroke-linejoin="round" fill-opacity="0" stroke="rgb(191,193,195)" stroke-opacity="1" stroke-width="4" d=" M124.21099853515625,128.77200317382812 C130.64500427246094,147.343994140625 134.94700622558594,175.33299255371094 131.1179962158203,183.82699584960938 C129.5030059814453,187.41099548339844 125.79900360107422,190.08900451660156 121.68800354003906,191.3419952392578"></path></g><g opacity="1" transform="matrix(1,0,0,1,0,0)"><path stroke-linecap="round" stroke-linejoin="round" fill-opacity="0" stroke="rgb(98,102,104)" stroke-opacity="1" stroke-width="8" d=" M88.24700164794922,193.41000366210938 C88.24700164794922,193.41000366210938 69.04299926757812,198.19000244140625 61.861000061035156,183.1739959716797 C57.28900146484375,173.61300659179688 59.52899932861328,151.322998046875 63.32099914550781,134.51499938964844"></path></g><g opacity="1" transform="matrix(1,0,0,1,0,0)"><path stroke-linecap="round" stroke-linejoin="round" fill-opacity="0" stroke="rgb(191,193,195)" stroke-opacity="1" stroke-width="4" d=" M69.53500366210938,190.42100524902344 C66.9280014038086,188.75999450683594 64.58000183105469,186.69900512695312 62.89400100708008,183.1739959716797 C58.321998596191406,173.61300659179688 60.808998107910156,150.2449951171875 64.60099792480469,133.43699645996094"></path></g><g opacity="1" transform="matrix(1,0,0,1,0,0)"><path stroke-linecap="round" stroke-linejoin="round" fill-opacity="0" stroke="rgb(31,32,32)" stroke-opacity="1" stroke-width="12" d=" M109.63300323486328,192.4810028076172 C106.49700164794922,192.60899353027344 104.2969970703125,192.45399475097656 104.2969970703125,192.45399475097656"></path></g><g opacity="1" transform="matrix(1,0,0,1,0,0)"><path stroke-linecap="round" stroke-linejoin="round" fill-opacity="0" stroke="rgb(31,32,32)" stroke-opacity="1" stroke-width="12" d=" M88.24700164794922,193.41000366210938 C88.24700164794922,193.41000366210938 86.18900299072266,193.92300415039062 83.16899871826172,194.0850067138672"></path></g><g opacity="1" transform="matrix(1,0,0,1,0,0)"><path stroke-linecap="round" stroke-linejoin="round" fill-opacity="0" stroke="rgb(82,86,89)" stroke-opacity="1" stroke-width="4" d=" M104.48500061035156,189.92999267578125 C104.48500061035156,189.92999267578125 108.76699829101562,189.92999267578125 108.76699829101562,189.92999267578125"></path></g><g opacity="1" transform="matrix(1,0,0,1,0,0)"><path stroke-linecap="round" stroke-linejoin="round" fill-opacity="0" stroke="rgb(82,86,89)" stroke-opacity="1" stroke-width="4" d=" M83.0469970703125,191.36099243164062 C83.0469970703125,191.36099243164062 87.48200225830078,190.7899932861328 87.48200225830078,190.7899932861328"></path></g></g><g opacity="1" transform="matrix(1,0,0,1,0,0)"><g opacity="1" transform="matrix(1,0,0,1,0,0)"><path fill="url(#__lottie_element_22843)" fill-opacity="1" d=" M-10.786999702453613,199.50799560546875 C-10.786999702453613,199.50799560546875 -29.67300033569336,128.5330047607422 -41.02299880981445,80.68900299072266 C-41.02299880981445,80.68900299072266 -47.89699935913086,89.71499633789062 -47.89699935913086,89.71499633789062 C-47.89699935913086,89.71499633789062 -63.354000091552734,117.4800033569336 -68.91899871826172,150.3300018310547 C-68.91899871826172,150.3300018310547 -46.86399841308594,156.4510040283203 -46.86399841308594,156.4510040283203 C-46.86399841308594,156.4510040283203 -63.202999114990234,167.90199279785156 -72.81199645996094,175.00399780273438 C-72.81199645996094,175.00399780273438 -64.90299987792969,199.50799560546875 -64.90299987792969,199.50799560546875"></path></g><g opacity="1" transform="matrix(1,0,0,1,0,0)"><path stroke-linecap="round" stroke-linejoin="round" fill-opacity="0" stroke="rgb(146,159,165)" stroke-opacity="1" stroke-width="8" d=" M-12.10200023651123,194.3419952392578 C-12.10200023651123,194.3419952392578 -29.67300033569336,128.5330047607422 -41.02299880981445,80.68900299072266 C-41.02299880981445,80.68900299072266 -47.89699935913086,89.71499633789062 -47.89699935913086,89.71499633789062 C-47.89699935913086,89.71499633789062 -63.354000091552734,117.4800033569336 -68.91899871826172,150.3300018310547 C-68.91899871826172,150.3300018310547 -46.86399841308594,156.4510040283203 -46.86399841308594,156.4510040283203 C-46.86399841308594,156.4510040283203 -63.202999114990234,167.90199279785156 -72.81199645996094,175.00399780273438 C-72.81199645996094,175.00399780273438 -65.51200103759766,194.3419952392578 -65.51200103759766,194.3419952392578"></path></g><g opacity="1" transform="matrix(1,0,0,1,0,0)"><path fill="rgb(146,159,165)" fill-opacity="1" d=" M-8.607999801635742,191.3979949951172 C-8.607999801635742,191.3979949951172 -6.473999977111816,199.50999450683594 -6.473999977111816,199.50999450683594 C-6.473999977111816,199.50999450683594 -14.993000030517578,199.50999450683594 -14.993000030517578,199.50999450683594 C-14.993000030517578,199.50999450683594 -16.94300079345703,192.156005859375 -16.94300079345703,192.156005859375 C-16.94300079345703,192.156005859375 -8.607999801635742,191.3979949951172 -8.607999801635742,191.3979949951172z"></path></g><g opacity="1" transform="matrix(1,0,0,1,0,0)"><path fill="rgb(146,159,165)" fill-opacity="1" d=" M-62.209999084472656,191.3979949951172 C-62.209999084472656,191.3979949951172 -59.058998107910156,199.50999450683594 -59.058998107910156,199.50999450683594 C-59.058998107910156,199.50999450683594 -67.98899841308594,199.50999450683594 -67.98899841308594,199.50999450683594 C-67.98899841308594,199.50999450683594 -70.74700164794922,192.156005859375 -70.74700164794922,192.156005859375 C-70.74700164794922,192.156005859375 -62.209999084472656,191.3979949951172 -62.209999084472656,191.3979949951172z"></path></g></g><g opacity="1" transform="matrix(1,0,0,1,0,0)"><path stroke-linecap="round" stroke-linejoin="round" fill-opacity="0" stroke="rgb(31,32,32)" stroke-opacity="1" stroke-width="8" d=" M-88.66200256347656,165.94500732421875 C-88.66200256347656,165.94500732421875 -81.72699737548828,104.98500061035156 -38.650001525878906,76.78299713134766"></path></g><g opacity="1" transform="matrix(1,0,0,1,0,0)"><path stroke-linecap="round" stroke-linejoin="round" fill-opacity="0" stroke="rgb(255,255,255)" stroke-opacity="1" stroke-width="4" d=" M129.05799865722656,149.29600524902344 C129.05799865722656,149.29600524902344 130.697998046875,157.74000549316406 130.697998046875,157.74000549316406"></path></g><g opacity="1" transform="matrix(1,0,0,1,0,0)"><g opacity="1" transform="matrix(1,0,0,1,0,0)"><path fill="rgb(98,102,104)" fill-opacity="1" d=" M-74.36399841308594,179.4250030517578 C-74.36399841308594,187.9709930419922 -81.29100036621094,194.8990020751953 -89.83699798583984,194.8990020751953 C-98.38300323486328,194.8990020751953 -105.30999755859375,187.9709930419922 -105.30999755859375,179.4250030517578 C-105.30999755859375,170.87899780273438 -98.38300323486328,163.95199584960938 -89.83699798583984,163.95199584960938 C-81.29100036621094,163.95199584960938 -74.36399841308594,170.87899780273438 -74.36399841308594,179.4250030517578z"></path><path stroke-linecap="round" stroke-linejoin="round" fill-opacity="0" stroke="rgb(98,102,104)" stroke-opacity="1" stroke-width="8" d=" M-74.36399841308594,179.4250030517578 C-74.36399841308594,187.9709930419922 -81.29100036621094,194.8990020751953 -89.83699798583984,194.8990020751953 C-98.38300323486328,194.8990020751953 -105.30999755859375,187.9709930419922 -105.30999755859375,179.4250030517578 C-105.30999755859375,170.87899780273438 -98.38300323486328,163.95199584960938 -89.83699798583984,163.95199584960938 C-81.29100036621094,163.95199584960938 -74.36399841308594,170.87899780273438 -74.36399841308594,179.4250030517578z"></path></g><g opacity="1" transform="matrix(1,0,0,1,0,0)"><path fill="rgb(203,207,208)" fill-opacity="1" d=" M-77.97799682617188,179.4250030517578 C-77.97799682617188,186.5449981689453 -83.75,192.3179931640625 -90.87000274658203,192.3179931640625 C-97.98999786376953,192.3179931640625 -103.76300048828125,186.5449981689453 -103.76300048828125,179.4250030517578 C-103.76300048828125,172.30499267578125 -97.98999786376953,166.5330047607422 -90.87000274658203,166.5330047607422 C-83.75,166.5330047607422 -77.97799682617188,172.30499267578125 -77.97799682617188,179.4250030517578z"></path></g><g opacity="1" transform="matrix(1,0,0,1,0,0)"><path stroke-linecap="round" stroke-linejoin="round" fill-opacity="0" stroke="rgb(255,255,255)" stroke-opacity="1" stroke-width="4" d=" M-85.5009994506836,171.39100646972656 C-84.73400115966797,171.8719940185547 -80.91699981689453,174.7270050048828 -81.41100311279297,180.0019989013672"></path></g></g></g><g style="display: block;" transform="matrix(1.1662920713424683,0,0,1.1662920713424683,21.079912185668945,259.6459045410156)" opacity="1"><g opacity="1" transform="matrix(1,0,0,1,0,0)"><path fill="rgb(246,173,0)" fill-opacity="1" d=" M76.302001953125,-22.98699951171875 C76.302001953125,-22.98699951171875 65.97100067138672,-30.009000778198242 60.540000915527344,-20.599000930786133 C55.571998596191406,-11.991000175476074 65.06600189208984,32.50699996948242 73.83599853515625,39.7239990234375 C79.23100280761719,44.16299819946289 85.0719985961914,38.6870002746582 85.0719985961914,38.6870002746582 C88.62999725341797,36.25299835205078 82.85600280761719,-14.060999870300293 76.302001953125,-22.98699951171875z"></path></g><g opacity="1" transform="matrix(1,0,0,1,0,0)"><path stroke-linecap="round" stroke-linejoin="round" fill-opacity="0" stroke="rgb(207,114,0)" stroke-opacity="1" stroke-width="8" d=" M76.302001953125,-22.98699951171875 C76.302001953125,-22.98699951171875 65.97100067138672,-30.009000778198242 60.540000915527344,-20.599000930786133 C55.571998596191406,-11.991000175476074 65.06600189208984,32.50699996948242 73.83599853515625,39.7239990234375 C79.23100280761719,44.16299819946289 85.0719985961914,38.6870002746582 85.0719985961914,38.6870002746582 C88.62999725341797,36.25299835205078 82.85600280761719,-14.060999870300293 76.302001953125,-22.98699951171875z"></path></g></g><g style="display: block;" transform="matrix(-1.1662920713424683,0,0,1.1662920713424683,454.57318115234375,259.6459045410156)" opacity="1"><g opacity="1" transform="matrix(1,0,0,1,0,0)"><path fill="rgb(246,173,0)" fill-opacity="1" d=" M76.302001953125,-22.98699951171875 C76.302001953125,-22.98699951171875 65.97100067138672,-30.009000778198242 60.540000915527344,-20.599000930786133 C55.571998596191406,-11.991000175476074 65.06600189208984,32.50699996948242 73.83599853515625,39.7239990234375 C79.23100280761719,44.16299819946289 85.0719985961914,38.6870002746582 85.0719985961914,38.6870002746582 C88.62999725341797,36.25299835205078 82.85600280761719,-14.060999870300293 76.302001953125,-22.98699951171875z"></path></g><g opacity="1" transform="matrix(1,0,0,1,0,0)"><path stroke-linecap="round" stroke-linejoin="round" fill-opacity="0" stroke="rgb(207,114,0)" stroke-opacity="1" stroke-width="8" d=" M76.302001953125,-22.98699951171875 C76.302001953125,-22.98699951171875 65.97100067138672,-30.009000778198242 60.540000915527344,-20.599000930786133 C55.571998596191406,-11.991000175476074 65.06600189208984,32.50699996948242 73.83599853515625,39.7239990234375 C79.23100280761719,44.16299819946289 85.0719985961914,38.6870002746582 85.0719985961914,38.6870002746582 C88.62999725341797,36.25299835205078 82.85600280761719,-14.060999870300293 76.302001953125,-22.98699951171875z"></path></g></g><g style="display: block;" transform="matrix(1.1662920713424683,0,0,1.1662920713424683,21.079912185668945,259.6459045410156)" opacity="1"><g opacity="1" transform="matrix(1,0,0,1,0,0)"><path fill="rgb(246,173,0)" fill-opacity="1" d=" M292.32000732421875,6.434000015258789 C292.32000732421875,74.7300033569336 243.8280029296875,132.32200622558594 185.35800170898438,132.32200622558594 C126.88800048828125,132.32200622558594 78.39600372314453,74.7300033569336 78.39600372314453,6.434000015258789 C78.39600372314453,4.611000061035156 78.4020004272461,-19.454999923706055 78.41400146484375,-21.23699951171875 C79.49099731445312,-177.4010009765625 127.5469970703125,-152.78599548339844 185.35800170898438,-152.78599548339844 C241.6529998779297,-152.78599548339844 288.6969909667969,-165.3179931640625 292.1199951171875,-21.23699951171875 C292.25201416015625,-15.668999671936035 292.32000732421875,0.41999998688697815 292.32000732421875,6.434000015258789z"></path></g><g opacity="1" transform="matrix(1,0,0,1,0,0)"><path stroke-linecap="round" stroke-linejoin="round" fill-opacity="0" stroke="rgb(207,114,0)" stroke-opacity="1" stroke-width="8" d=" M292.32000732421875,6.434000015258789 C292.32000732421875,74.7300033569336 243.8280029296875,132.32200622558594 185.35800170898438,132.32200622558594 C126.88800048828125,132.32200622558594 78.39600372314453,74.7300033569336 78.39600372314453,6.434000015258789 C78.39600372314453,4.611000061035156 78.4020004272461,-19.454999923706055 78.41400146484375,-21.23699951171875 C79.49099731445312,-177.4010009765625 127.5469970703125,-152.78599548339844 185.35800170898438,-152.78599548339844 C241.6529998779297,-152.78599548339844 288.6969909667969,-165.3179931640625 292.1199951171875,-21.23699951171875 C292.25201416015625,-15.668999671936035 292.32000732421875,0.41999998688697815 292.32000732421875,6.434000015258789z"></path></g><g opacity="1" transform="matrix(1,0,0,1,0,0)"><path fill="rgb(255,207,0)" fill-opacity="1" d=" M282.4880065917969,-3.303999900817871 C282.4880065917969,58.2869987487793 238.45399475097656,110.2239990234375 185.35800170898438,110.2239990234375 C132.26199340820312,110.2239990234375 88.22699737548828,58.2869987487793 88.22699737548828,-3.303999900817871 C88.22699737548828,-4.947999954223633 88.23300170898438,-26.650999069213867 88.24400329589844,-28.257999420166016 C89.22200012207031,-169.08999633789062 132.86099243164062,-146.89199829101562 185.35800170898438,-146.89199829101562 C236.47799682617188,-146.89199829101562 279.1990051269531,-158.1929931640625 282.3070068359375,-28.257999420166016 C282.427001953125,-23.23699951171875 282.4880065917969,-8.72700023651123 282.4880065917969,-3.303999900817871z"></path></g></g><g style="display: block;" transform="matrix(-1.1662920713424683,0,0,1.1662920713424683,455.3312683105469,259.89666748046875)" opacity="1"><g opacity="1" transform="matrix(1,0,0,1,0,0)"><path fill="rgb(255,246,207)" fill-opacity="1" d=" M161.5489959716797,3.8239998817443848 C161.5489959716797,3.8239998817443848 163.00900268554688,-12.975000381469727 151.09300231933594,-23.892000198364258 C140.8560028076172,-33.270999908447266 121.58100128173828,-32.35100173950195 111.9219970703125,-20.333999633789062 C104.05699920654297,-10.548999786376953 105.93000030517578,0.859000027179718 105.93000030517578,0.859000027179718 C105.93000030517578,0.859000027179718 113.78199768066406,9.303000450134277 129.89999389648438,10.222999572753906 C150.406005859375,11.392999649047852 161.5489959716797,3.8239998817443848 161.5489959716797,3.8239998817443848z"></path></g></g><g style="display: block;" transform="matrix(1.1662920713424683,0,0,1.1662920713424683,22.63690757751465,259.8954772949219)" opacity="1"><g opacity="1" transform="matrix(1,0,0,1,0,0)"><path fill="url(#__lottie_element_22829)" fill-opacity="1" d=" M253.7270050048828,-9.939000129699707 C253.7270050048828,-0.24300000071525574 245.86599731445312,7.617000102996826 236.1699981689453,7.617000102996826 C226.4739990234375,7.617000102996826 218.61300659179688,-0.24300000071525574 218.61300659179688,-9.939000129699707 C218.61300659179688,-19.635000228881836 226.4739990234375,-27.496000289916992 236.1699981689453,-27.496000289916992 C245.86599731445312,-27.496000289916992 253.7270050048828,-19.635000228881836 253.7270050048828,-9.939000129699707z"></path></g><g opacity="1" transform="matrix(1,0,0,1,0,0)"><path fill="rgb(28,26,19)" fill-opacity="1" d=" M247.26600646972656,-9.939000129699707 C247.26600646972656,-3.811000108718872 242.29800415039062,1.156000018119812 236.1699981689453,1.156000018119812 C230.04200744628906,1.156000018119812 225.07400512695312,-3.811000108718872 225.07400512695312,-9.939000129699707 C225.07400512695312,-16.066999435424805 230.04200744628906,-21.03499984741211 236.1699981689453,-21.03499984741211 C242.29800415039062,-21.03499984741211 247.26600646972656,-16.066999435424805 247.26600646972656,-9.939000129699707z"></path></g><g opacity="1" transform="matrix(1,0,0,1,0,0)"><path fill="rgb(244,244,244)" fill-opacity="1" d=" M235.18699645996094,-19.506999969482422 C235.18699645996094,-17.18000030517578 233.3000030517578,-15.293000221252441 230.97300720214844,-15.293000221252441 C228.64599609375,-15.293000221252441 226.75999450683594,-17.18000030517578 226.75999450683594,-19.506999969482422 C226.75999450683594,-21.833999633789062 228.64599609375,-23.719999313354492 230.97300720214844,-23.719999313354492 C233.3000030517578,-23.719999313354492 235.18699645996094,-21.833999633789062 235.18699645996094,-19.506999969482422z"></path></g><g opacity="1" transform="matrix(1,0,0,1,0,0)"><path stroke-linecap="round" stroke-linejoin="round" fill-opacity="0" stroke="rgb(235,147,0)" stroke-opacity="1" stroke-width="3.5" d=" M249.16200256347656,-4.980000019073486 C247.85699462890625,-1.090999960899353 244.73500061035156,1.9639999866485596 240.80499267578125,3.1760001182556152"></path></g></g><g style="display: block;" transform="matrix(-1.1662920713424683,0,0,1.1662920713424683,455.3312683105469,259.89666748046875)" opacity="1"><g opacity="1" transform="matrix(1,0,0,1,0,0)"><path fill="rgb(255,207,0)" fill-opacity="1" d=" M166.05499267578125,6.198999881744385 C166.05499267578125,6.198999881744385 153.1199951171875,23.55900001525879 129.3159942626953,22.200000762939453 C110.6050033569336,21.131999969482422 101.48999786376953,2.756999969482422 101.48999786376953,2.756999969482422 C101.48999786376953,2.756999969482422 99.31600189208984,-10.486000061035156 108.44599914550781,-21.844999313354492 C119.65899658203125,-35.79499816894531 142.0330047607422,-36.862998962402344 153.91700744628906,-25.975000381469727 C167.75,-13.302000045776367 166.05499267578125,6.198999881744385 166.05499267578125,6.198999881744385z M161.5489959716797,3.8239998817443848 C161.5489959716797,3.8239998817443848 163.00900268554688,-12.975000381469727 151.09300231933594,-23.892000198364258 C140.8560028076172,-33.270999908447266 121.58100128173828,-32.35100173950195 111.9219970703125,-20.333999633789062 C104.05699920654297,-10.548999786376953 105.93000030517578,0.859000027179718 105.93000030517578,0.859000027179718 C105.93000030517578,0.859000027179718 113.78199768066406,9.303000450134277 129.89999389648438,10.222999572753906 C150.406005859375,11.392999649047852 161.5489959716797,3.8239998817443848 161.5489959716797,3.8239998817443848z"></path></g><g opacity="1" transform="matrix(1,0,0,1,0,0)"><path fill="rgb(133,63,0)" fill-opacity="1" d=" M161.54800415039062,3.8239998817443848 C163.81500244140625,-13.913999557495117 152.35000610351562,-32.09299850463867 133.25399780273438,-31.823999404907227 C116.08399963378906,-31.582000732421875 102.52400207519531,-16.36400032043457 105.93000030517578,0.859000027179718 C105.55799865722656,-15.131999969482422 117.36900329589844,-28.766000747680664 133.76400756835938,-28.56999969482422 C151.37399291992188,-28.358999252319336 160.88800048828125,-12.260000228881836 161.54800415039062,3.8239998817443848z"></path><path stroke-linecap="round" stroke-linejoin="round" fill-opacity="0" stroke="rgb(133,63,0)" stroke-opacity="1" stroke-width="2" d=" M161.54800415039062,3.8239998817443848 C163.81500244140625,-13.913999557495117 152.35000610351562,-32.09299850463867 133.25399780273438,-31.823999404907227 C116.08399963378906,-31.582000732421875 102.52400207519531,-16.36400032043457 105.93000030517578,0.859000027179718 C105.55799865722656,-15.131999969482422 117.36900329589844,-28.766000747680664 133.76400756835938,-28.56999969482422 C151.37399291992188,-28.358999252319336 160.88800048828125,-12.260000228881836 161.54800415039062,3.8239998817443848z"></path></g></g><g style="display: block;" transform="matrix(1.1662920713424683,0,0,1.1662920713424683,21.079912185668945,259.6459045410156)" opacity="1"><g opacity="1" transform="matrix(1,0,0,1,0,0)"><path fill="rgb(255,246,207)" fill-opacity="1" d=" M161.5489959716797,3.8239998817443848 C161.5489959716797,3.8239998817443848 163.00900268554688,-12.975000381469727 151.09300231933594,-23.892000198364258 C140.8560028076172,-33.270999908447266 121.58100128173828,-32.35100173950195 111.9219970703125,-20.333999633789062 C104.05699920654297,-10.548999786376953 105.93000030517578,0.859000027179718 105.93000030517578,0.859000027179718 C105.93000030517578,0.859000027179718 113.78199768066406,9.303000450134277 129.89999389648438,10.222999572753906 C150.406005859375,11.392999649047852 161.5489959716797,3.8239998817443848 161.5489959716797,3.8239998817443848z"></path></g></g><g style="display: block;" transform="matrix(1.1662920713424683,0,0,1.1662920713424683,21.079912185668945,259.6459045410156)" opacity="1"><g opacity="1" transform="matrix(1,0,0,1,0,0)"><path fill="url(#__lottie_element_22819)" fill-opacity="1" d=" M152.51300048828125,-9.939000129699707 C152.51300048828125,-0.24300000071525574 144.65199279785156,7.617000102996826 134.95599365234375,7.617000102996826 C125.26000213623047,7.617000102996826 117.4000015258789,-0.24300000071525574 117.4000015258789,-9.939000129699707 C117.4000015258789,-19.635000228881836 125.26000213623047,-27.496000289916992 134.95599365234375,-27.496000289916992 C144.65199279785156,-27.496000289916992 152.51300048828125,-19.635000228881836 152.51300048828125,-9.939000129699707z"></path></g><g opacity="1" transform="matrix(1,0,0,1,0,0)"><path fill="rgb(28,26,19)" fill-opacity="1" d=" M146.052001953125,-9.939000129699707 C146.052001953125,-3.811000108718872 141.08399963378906,1.156000018119812 134.95599365234375,1.156000018119812 C128.8280029296875,1.156000018119812 123.86100006103516,-3.811000108718872 123.86100006103516,-9.939000129699707 C123.86100006103516,-16.066999435424805 128.8280029296875,-21.03499984741211 134.95599365234375,-21.03499984741211 C141.08399963378906,-21.03499984741211 146.052001953125,-16.066999435424805 146.052001953125,-9.939000129699707z"></path></g><g opacity="1" transform="matrix(1,0,0,1,0,0)"><path fill="rgb(244,244,244)" fill-opacity="1" d=" M133.97300720214844,-19.506999969482422 C133.97300720214844,-17.18000030517578 132.08700561523438,-15.293000221252441 129.75999450683594,-15.293000221252441 C127.43299865722656,-15.293000221252441 125.5459976196289,-17.18000030517578 125.5459976196289,-19.506999969482422 C125.5459976196289,-21.833999633789062 127.43299865722656,-23.719999313354492 129.75999450683594,-23.719999313354492 C132.08700561523438,-23.719999313354492 133.97300720214844,-21.833999633789062 133.97300720214844,-19.506999969482422z"></path></g><g opacity="1" transform="matrix(1,0,0,1,0,0)"><path stroke-linecap="round" stroke-linejoin="round" fill-opacity="0" stroke="rgb(235,147,0)" stroke-opacity="1" stroke-width="3.5" d=" M147.947998046875,-4.980000019073486 C146.64300537109375,-1.090999960899353 143.52099609375,1.9639999866485596 139.59100341796875,3.1760001182556152"></path></g></g><g style="display: block;" transform="matrix(1.1662920713424683,0,0,1.1662920713424683,21.079912185668945,259.6459045410156)" opacity="1"><g opacity="1" transform="matrix(1,0,0,1,0,0)"><path fill="rgb(255,207,0)" fill-opacity="1" d=" M166.05499267578125,6.198999881744385 C166.05499267578125,6.198999881744385 153.1199951171875,23.988000869750977 129.3159942626953,22.628999710083008 C110.6050033569336,21.56100082397461 101.48999786376953,2.756999969482422 101.48999786376953,2.756999969482422 C101.48999786376953,2.756999969482422 99.31600189208984,-10.486000061035156 108.44599914550781,-21.844999313354492 C119.65899658203125,-35.79499816894531 142.0330047607422,-36.862998962402344 153.91700744628906,-25.975000381469727 C167.75,-13.302000045776367 166.05499267578125,6.198999881744385 166.05499267578125,6.198999881744385z M161.5489959716797,3.8239998817443848 C161.5489959716797,3.8239998817443848 163.00900268554688,-12.975000381469727 151.09300231933594,-23.892000198364258 C140.8560028076172,-33.270999908447266 121.58100128173828,-32.35100173950195 111.9219970703125,-20.333999633789062 C104.05699920654297,-10.548999786376953 105.93000030517578,0.859000027179718 105.93000030517578,0.859000027179718 C105.93000030517578,0.859000027179718 113.78199768066406,9.303000450134277 129.89999389648438,10.222999572753906 C150.406005859375,11.392999649047852 161.5489959716797,3.8239998817443848 161.5489959716797,3.8239998817443848z"></path></g><g opacity="1" transform="matrix(1,0,0,1,0,0)"><path fill="rgb(133,63,0)" fill-opacity="1" d=" M161.54800415039062,3.8239998817443848 C163.81500244140625,-13.913999557495117 152.35000610351562,-32.09299850463867 133.25399780273438,-31.823999404907227 C116.08399963378906,-31.582000732421875 102.52400207519531,-16.36400032043457 105.93000030517578,0.859000027179718 C105.55799865722656,-15.131999969482422 117.36900329589844,-28.766000747680664 133.76400756835938,-28.56999969482422 C151.37399291992188,-28.358999252319336 160.88800048828125,-12.260000228881836 161.54800415039062,3.8239998817443848z"></path><path stroke-linecap="round" stroke-linejoin="round" fill-opacity="0" stroke="rgb(133,63,0)" stroke-opacity="1" stroke-width="2" d=" M161.54800415039062,3.8239998817443848 C163.81500244140625,-13.913999557495117 152.35000610351562,-32.09299850463867 133.25399780273438,-31.823999404907227 C116.08399963378906,-31.582000732421875 102.52400207519531,-16.36400032043457 105.93000030517578,0.859000027179718 C105.55799865722656,-15.131999969482422 117.36900329589844,-28.766000747680664 133.76400756835938,-28.56999969482422 C151.37399291992188,-28.358999252319336 160.88800048828125,-12.260000228881836 161.54800415039062,3.8239998817443848z"></path></g></g><g style="display: block;" transform="matrix(1.0899932384490967,0,0,1.0899932384490967,228.65823364257812,309.5330505371094)" opacity="1"><g opacity="1" transform="matrix(1,0,0,1,0,0)"><path fill="rgb(246,173,0)" fill-opacity="1" d=" M34.66699981689453,49.33599853515625 C34.66699981689453,53.922000885009766 23.003000259399414,61.63800048828125 8.614999771118164,61.63800048828125 C-5.7729997634887695,61.63800048828125 -17.437000274658203,53.922000885009766 -17.437000274658203,49.33599853515625 C-17.437000274658203,44.75 -5.7729997634887695,50.4119987487793 8.614999771118164,50.4119987487793 C23.003000259399414,50.4119987487793 34.66699981689453,44.75 34.66699981689453,49.33599853515625z"></path></g><g opacity="1" transform="matrix(1,0,0,1,0,0)"><path fill="rgb(255,225,129)" fill-opacity="1" d=" M42.57899856567383,32.409000396728516 C42.57899856567383,41.01900100708008 27.194000244140625,50.332000732421875 8.21500015258789,50.332000732421875 C-10.763999938964844,50.332000732421875 -26.14900016784668,41.01900100708008 -26.14900016784668,32.409000396728516 C-26.14900016784668,23.798999786376953 -10.763999938964844,16.819000244140625 8.21500015258789,16.819000244140625 C27.194000244140625,16.819000244140625 42.57899856567383,23.798999786376953 42.57899856567383,32.409000396728516z"></path></g><g opacity="0.3" transform="matrix(1,0,0,1,0,0)"><path fill="rgb(207,114,0)" fill-opacity="1" d=" M42.57099914550781,6.172999858856201 C42.57099914550781,6.172999858856201 -26.141000747680664,6.172999858856201 -26.141000747680664,6.172999858856201 C-39.60599899291992,6.172999858856201 -55.569000244140625,18.81599998474121 -55.569000244140625,33.55799865722656 C-55.569000244140625,34.97600173950195 -54.23699951171875,36.233001708984375 -53.016998291015625,36.18600082397461 C-43.18299865722656,35.808998107910156 -33.69599914550781,36.18600082397461 -24.03499984741211,36.18600082397461 C-2.450000047683716,36.18600082397461 19.13599967956543,36.18600082397461 40.72100067138672,36.18600082397461 C50.29600143432617,36.18600082397461 60.33300018310547,36.375999450683594 69.4469985961914,36.18600082397461 C70.66799926757812,36.1609992980957 71.9990005493164,34.97600173950195 71.9990005493164,33.55799865722656 C71.9990005493164,20.44499969482422 56.0359992980957,6.172999858856201 42.57099914550781,6.172999858856201z"></path></g><g opacity="1" transform="matrix(1,0,0,1,0,0)"><path fill="rgb(136,24,4)" fill-opacity="1" d=" M38.15999984741211,31.715999603271484 C38.15999984741211,33.29199981689453 37.513999938964844,34.797000885009766 36.301998138427734,36.183998107910156 C32.09199905395508,41.111000061035156 21.108999252319336,44.6150016784668 8.208999633789062,44.6150016784668 C-4.678999900817871,44.6150016784668 -15.661999702453613,41.111000061035156 -19.871999740600586,36.183998107910156 C-21.08300018310547,34.797000885009766 -21.729999542236328,33.29199981689453 -21.729999542236328,31.715999603271484 C-21.729999542236328,24.59000015258789 -8.324000358581543,18.81599998474121 8.208999633789062,18.81599998474121 C24.7549991607666,18.81599998474121 38.15999984741211,24.59000015258789 38.15999984741211,31.715999603271484z"></path></g><g opacity="1" transform="matrix(1,0,0,1,0,0)"><path fill="rgb(88,11,14)" fill-opacity="1" d=" M38.15999984741211,31.715999603271484 C38.15999984741211,33.29199981689453 37.513999938964844,34.797000885009766 36.301998138427734,36.183998107910156 C36.301998138427734,36.183998107910156 -19.871999740600586,36.183998107910156 -19.871999740600586,36.183998107910156 C-21.08300018310547,34.797000885009766 -21.729999542236328,33.29199981689453 -21.729999542236328,31.715999603271484 C-21.729999542236328,24.59000015258789 -8.324000358581543,18.81599998474121 8.208999633789062,18.81599998474121 C24.7549991607666,18.81599998474121 38.15999984741211,24.59000015258789 38.15999984741211,31.715999603271484z"></path></g><g opacity="0.5" transform="matrix(1,0,0,1,0,0)"><path fill="rgb(207,114,0)" fill-opacity="1" d=" M32.06999969482422,-1.9639999866485596 C32.06999969482422,8.406000137329102 22.88599967956543,16.812999725341797 8.656000137329102,16.812999725341797 C-5.573999881744385,16.812999725341797 -14.758000373840332,8.406000137329102 -14.758000373840332,-1.9639999866485596 C-14.758000373840332,-12.333999633789062 -5.573999881744385,-20.740999221801758 8.656000137329102,-20.740999221801758 C22.88599967956543,-20.740999221801758 32.06999969482422,-12.333999633789062 32.06999969482422,-1.9639999866485596z"></path></g><g opacity="1" transform="matrix(1,0,0,1,0,0)"><path fill="rgb(255,201,0)" fill-opacity="1" d=" M40.61199951171875,9.17300033569336 C40.61199951171875,9.17300033569336 -24.180999755859375,9.17300033569336 -24.180999755859375,9.17300033569336 C-36.87799835205078,9.17300033569336 -49.68000030517578,17.993999481201172 -50.987998962402344,29.315000534057617 C-51.137001037597656,30.60300064086914 -49.71500015258789,31.69499969482422 -48.582000732421875,31.716999053955078 C-41.77199935913086,31.849000930786133 -33.10900115966797,31.716999053955078 -25.37299919128418,31.716999053955078 C-3.0869998931884766,31.716999053955078 19.198999404907227,31.716999053955078 41.48500061035156,31.716999053955078 C49.32699966430664,31.716999053955078 59.604000091552734,31.733999252319336 65.01200103759766,31.716999053955078 C66.1449966430664,31.71299934387207 67.56800079345703,30.60300064086914 67.41899871826172,29.315000534057617 C66.11100006103516,17.993999481201172 53.308998107910156,9.17300033569336 40.61199951171875,9.17300033569336z"></path></g><g opacity="0.5" transform="matrix(1,0,0,1,0,0)"><path fill="rgb(207,114,0)" fill-opacity="1" d=" M28.222999572753906,9.17300033569336 C23.5310001373291,13.805999755859375 17.158000946044922,16.816999435424805 8.656000137329102,16.816999435424805 C0.15399999916553497,16.816999435424805 -6.218999862670898,13.805999755859375 -10.91100025177002,9.17300033569336 C-10.91100025177002,9.17300033569336 28.222999572753906,9.17300033569336 28.222999572753906,9.17300033569336z"></path></g><g opacity="1" transform="matrix(1,0,0,1,0,0)"><path fill="rgb(208,123,0)" fill-opacity="1" d=" M67.41699981689453,29.316999435424805 C67.56999969482422,30.599000930786133 66.14900207519531,31.714000701904297 65.01799774169922,31.715999603271484 C57.316001892089844,31.729000091552734 49.284000396728516,31.715999603271484 41.41699981689453,31.715999603271484 C19.194000244140625,31.715999603271484 -3.0299999713897705,31.715999603271484 -25.253000259399414,31.715999603271484 C-33.03099822998047,31.715999603271484 -40.97800064086914,31.95599937438965 -48.58700180053711,31.715999603271484 C-49.71699905395508,31.68000030517578 -51.13800048828125,30.599000930786133 -50.986000061035156,29.316999435424805 C-50.53900146484375,25.424999237060547 -48.729000091552734,21.82699966430664 -46.0359992980957,18.7810001373291 C-46.84700012207031,20.46299934387207 -47.39899826049805,22.25 -47.611000061035156,24.107999801635742 C-47.75199890136719,25.319000244140625 -46.40800094604492,26.375 -45.340999603271484,26.364999771118164 C-37.49599838256836,26.288000106811523 -30.634000778198242,26.364999771118164 -23.280000686645508,26.364999771118164 C-2.177999973297119,26.364999771118164 18.922000885009766,26.364999771118164 40.02399826049805,26.364999771118164 C47.27299880981445,26.364999771118164 54.06700134277344,26.288000106811523 61.77299880981445,26.364999771118164 C62.84000015258789,26.375999450683594 64.18299865722656,25.319000244140625 64.04199981689453,24.107999801635742 C63.83100128173828,22.25 63.290000915527344,20.46299934387207 62.465999603271484,18.7810001373291 C65.16999816894531,21.82699966430664 66.97000122070312,25.424999237060547 67.41699981689453,29.316999435424805z"></path></g><g opacity="1" transform="matrix(1,0,0,1,0,0)"><g opacity="1" transform="matrix(1,0,0,1,0,0)"><path fill="rgb(208,123,0)" fill-opacity="1" d=" M32.56100082397461,-5.492000102996826 C32.56100082397461,4.129000186920166 21.857999801635742,11.928000450134277 8.656000137329102,11.928000450134277 C-4.546000003814697,11.928000450134277 -15.248000144958496,4.129000186920166 -15.248000144958496,-5.492000102996826 C-15.248000144958496,-15.11299991607666 -4.546000003814697,-22.50200080871582 8.656000137329102,-22.50200080871582 C21.857999801635742,-22.50200080871582 32.56100082397461,-15.11299991607666 32.56100082397461,-5.492000102996826z"></path></g><g opacity="1" transform="matrix(1,0,0,1,0,0)"><path fill="rgb(255,207,0)" fill-opacity="1" d=" M30.41200065612793,-10.095999717712402 C30.41200065612793,-2.934000015258789 20.07699966430664,3.9489998817443848 8.656000137329102,3.9489998817443848 C-2.765000104904175,3.9489998817443848 -13.098999977111816,-2.934000015258789 -13.098999977111816,-10.095999717712402 C-13.098999977111816,-17.257999420166016 -2.765000104904175,-22.50200080871582 8.656000137329102,-22.50200080871582 C20.07699966430664,-22.50200080871582 30.41200065612793,-17.257999420166016 30.41200065612793,-10.095999717712402z"></path></g><g opacity="1" transform="matrix(1,0,0,1,0,0)"><path fill="rgb(255,225,129)" fill-opacity="1" d=" M21.143999099731445,-16.302000045776367 C21.143999099731445,-12.496000289916992 15.553000450134277,-8.914999961853027 8.656000137329102,-8.914999961853027 C1.7589999437332153,-8.914999961853027 -3.8320000171661377,-12.496000289916992 -3.8320000171661377,-16.302000045776367 C-3.8320000171661377,-20.107999801635742 1.7589999437332153,-22.01799964904785 8.656000137329102,-22.01799964904785 C15.553000450134277,-22.01799964904785 21.143999099731445,-20.107999801635742 21.143999099731445,-16.302000045776367z"></path></g></g></g><g style="display: block;" transform="matrix(1.1662920713424683,0,0,1.1662920713424683,22.37799644470215,259.85699462890625)" opacity="1"><g opacity="1" transform="matrix(1,0,0,1,0,0)"><path stroke-linecap="round" stroke-linejoin="round" fill-opacity="0" stroke="rgb(133,63,0)" stroke-opacity="1" stroke-width="12" d=" M222.406005859375,-48.58000183105469 C222.406005859375,-48.58000183105469 238.83900451660156,-52.37200164794922 253.7270050048828,-45.178001403808594"></path></g></g><g style="display: block;" transform="matrix(1.1662920713424683,0,0,1.1662920713424683,21.089242935180664,260.1077575683594)" opacity="1"><g opacity="1" transform="matrix(1,0,0,1,0,0)"><path stroke-linecap="round" stroke-linejoin="round" fill-opacity="0" stroke="rgb(133,63,0)" stroke-opacity="1" stroke-width="12" d=" M148.7209930419922,-48.58000183105469 C148.7209930419922,-48.58000183105469 132.28799438476562,-52.37200164794922 117.4000015258789,-45.178001403808594"></path></g></g><g style="display: block;" transform="matrix(1.1662920713424683,0,0,1.1662920713424683,21.079912185668945,259.6459045410156)" opacity="1"><g opacity="1" transform="matrix(1,0,0,1,0,0)"><path fill="rgb(246,173,0)" fill-opacity="1" d=" M283.73699951171875,-20.233999252319336 C282.85198974609375,-29.30699920654297 282.06298828125,-35.85599899291992 276.91900634765625,-41.520999908447266 C267,-52.44499969482422 263.72698974609375,-66.6780014038086 262.84100341796875,-71.7020034790039 C262.6610107421875,-72.72100067138672 261.6780090332031,-73.3949966430664 260.66400146484375,-73.19300079345703 C180.718994140625,-57.26300048828125 127.12699890136719,-77.75399780273438 117.51599884033203,-84.76799774169922 C116.4010009765625,-85.58200073242188 114.83000183105469,-84.9209976196289 114.60700225830078,-83.55799865722656 C111.98699951171875,-67.51300048828125 106.27200317382812,-55.667999267578125 94.82599639892578,-43.62799835205078 C88.90299987792969,-37.39799880981445 86.95500183105469,-28.011999130249023 86.9020004272461,-27.158000946044922 C88.76699829101562,-160.99899291992188 132.66799926757812,-139.60699462890625 185.35699462890625,-139.60699462890625 C237.2030029296875,-139.60699462890625 280.53399658203125,-150.7239990234375 283.6839904785156,-22.889999389648438 C283.70599365234375,-22.18400001525879 283.71600341796875,-21.277000427246094 283.73699951171875,-20.233999252319336z"></path></g><g opacity="1" transform="matrix(1,0,0,1,0,0)"><path fill="rgb(255,207,0)" fill-opacity="1" d=" M105.21099853515625,-105.46600341796875 C105.32599639892578,-106.46800231933594 106.4530029296875,-107.00399780273438 107.28500366210938,-106.43399810791016 C114.2699966430664,-101.6510009765625 141.33799743652344,-85.43299865722656 189.75799560546875,-83.44300079345703 C237.06399536132812,-81.4990005493164 264.1650085449219,-87.37999725341797 270.6159973144531,-89.00199890136719 C271.40301513671875,-89.19999694824219 272.1730041503906,-88.65899658203125 272.2550048828125,-87.85199737548828 C272.77899169921875,-82.6780014038086 275.2640075683594,-65.322998046875 286.01800537109375,-47.22100067138672 C286.989013671875,-45.58700180053711 287.48199462890625,-43.71099853515625 287.48199462890625,-41.81100082397461 C287.48199462890625,-41.81100082397461 287.48199462890625,2.296999931335449 287.48199462890625,2.296999931335449 C287.48199462890625,3.803999900817871 288.9700012207031,4.925000190734863 290.385009765625,4.4070000648498535 C293.2049865722656,3.375999927520752 297.3599853515625,-0.5450000166893005 299.4670104980469,-14.121999740600586 C302.8380126953125,-35.845001220703125 310.3290100097656,-71.427001953125 303.5870056152344,-102.88800048828125 C296.8450012207031,-134.3489990234375 273.2799987792969,-165.93499755859375 222.34300231933594,-174.33099365234375 C166.8800048828125,-183.47300720214844 114.44499969482422,-171.4290008544922 90.62300109863281,-137.302001953125 C90.0250015258789,-136.44500732421875 89.31900024414062,-135.67999267578125 88.41500091552734,-135.15499877929688 C84.22200012207031,-132.7220001220703 71.1240005493164,-123.38400268554688 66.12999725341797,-99.48600006103516 C60.887001037597656,-74.39199829101562 65.03700256347656,-46.33300018310547 67.65899658203125,-30.976999282836914 C69.86699676513672,-18.042999267578125 72.05400085449219,-2.184999942779541 78.05999755859375,4.060999870300293 C79.43499755859375,5.491000175476074 82.41400146484375,6.716000080108643 82.41400146484375,4.73199987411499 C82.41400146484375,4.73199987411499 81.86000061035156,-41.391998291015625 81.86000061035156,-41.391998291015625 C81.86000061035156,-43.755001068115234 82.64800262451172,-46.04399871826172 84.0739974975586,-47.928001403808594 C89.17500305175781,-54.66400146484375 101.59300231933594,-73.9010009765625 105.21099853515625,-105.46600341796875z"></path></g><g opacity="1" transform="matrix(1,0,0,1,0,0)"><path fill="rgb(255,225,129)" fill-opacity="1" d=" M187.96400451660156,-110.90599822998047 C144.26300048828125,-111.04900360107422 120.12000274658203,-118.375 112.26000213623047,-125.03299713134766 C105.9209976196289,-130.4029998779297 106.82499694824219,-138.0970001220703 112.48400115966797,-144.1580047607422 C116.96099853515625,-148.9530029296875 136.46400451660156,-166.5279998779297 190.00599670410156,-167.14999389648438 C220.49600219726562,-167.50599670410156 244.55299377441406,-159.89599609375 262.05999755859375,-146.8780059814453 C262.07000732421875,-146.8679962158203 262.07000732421875,-146.8679962158203 262.0799865722656,-146.85800170898438 C286.42498779296875,-126.79000091552734 260.9849853515625,-110.66699981689453 187.96400451660156,-110.90599822998047z"></path></g><g opacity="1" transform="matrix(1,0,0,1,0,0)"><path fill="rgb(236,158,0)" fill-opacity="1" d=" M298.49798583984375,-9.079000473022461 C296.24798583984375,0.4690000116825104 292.8169860839844,3.5169999599456787 290.3810119628906,4.4019999504089355 C288.97198486328125,4.926000118255615 286.8580017089844,4.684000015258789 286.8580017089844,3.1760001182556152 C286.8580017089844,3.1760001182556152 287.4859924316406,-41.80699920654297 287.4859924316406,-41.80699920654297 C287.4859924316406,-43.70800018310547 286.9840087890625,-45.58599853515625 286.02301025390625,-47.224998474121094 C275.26300048828125,-65.32599639892578 272.7820129394531,-82.67400360107422 272.25799560546875,-87.85199737548828 C272.1709899902344,-88.66000366210938 271.406005859375,-89.19599914550781 270.6199951171875,-88.9990005493164 C264.16400146484375,-87.38200378417969 237.06100463867188,-81.49500274658203 189.75999450683594,-83.43900299072266 C141.33399963378906,-85.43800354003906 114.27400207519531,-101.64900207519531 107.28299713134766,-106.43399810791016 C106.4520034790039,-107.00199890136719 105.3280029296875,-106.46700286865234 105.20800018310547,-105.46199798583984 C101.59200286865234,-73.90299987792969 89.1709976196289,-54.665000915527344 84.06999969482422,-47.92499923706055 C82.6500015258789,-46.04600143432617 81.86299896240234,-43.75199890136719 81.86299896240234,-41.391998291015625 C81.86299896240234,-41.391998291015625 81.86299896240234,6.480999946594238 81.86299896240234,6.480999946594238 C75.92400360107422,4.738999843597412 72.78500366210938,-4.317999839782715 70.58999633789062,-14.694000244140625 C77.8010025024414,9.149999618530273 75.0009994506836,-42.73699951171875 75.0009994506836,-42.73699951171875 C74.2030029296875,-42.441001892089844 72.40299987792969,-42.59000015258789 72.40299987792969,-42.59000015258789 C92.37200164794922,-67.56400299072266 97.68800354003906,-95.25 97.2490005493164,-108.19300079345703 C96.91000366210938,-118.17400360107422 94.91100311279297,-123.06099700927734 91.85399627685547,-125.76799774169922 C90.44100189208984,-127.01899719238281 87.48100280761719,-127.20099639892578 85.88700103759766,-126.19100189208984 C68.75199890136719,-115.34100341796875 64.51599884033203,-89.37000274658203 64.51599884033203,-89.37000274658203 C64.90899658203125,-92.76699829101562 65.43399810791016,-96.15399932861328 66.13300323486328,-99.48600006103516 C71.125,-123.38800048828125 84.2229995727539,-132.7169952392578 88.41799926757812,-135.1529998779297 C89.31400299072266,-135.677001953125 90.02300262451172,-136.44200134277344 90.6240005493164,-137.30499267578125 C114.4489974975586,-171.4320068359375 166.88499450683594,-183.47000122070312 222.3459930419922,-174.32699584960938 C273.2850036621094,-165.93699645996094 296.8479919433594,-134.343994140625 303.5889892578125,-102.88300323486328 C304.375,-99.2229995727539 304.9649963378906,-95.52100372314453 305.3800048828125,-91.78500366210938 C301.8580017089844,-145.0500030517578 256.9670104980469,-175.91799926757812 189.45199584960938,-174.8780059814453 C134.3159942626953,-174.0290069580078 110.19100189208984,-152.6490020751953 101.48899841308594,-142.68699645996094 C98.88500213623047,-139.70599365234375 97.31400299072266,-133.93499755859375 100.48999786376953,-128.98199462890625 C114.2239990234375,-107.55899810791016 143.7469940185547,-95.73899841308594 196.83900451660156,-92.64800262451172 C253.7270050048828,-89.33499908447266 292.87701416015625,-99.13800048828125 293.7619934082031,-99.41100311279297 C287.5790100097656,-93.7959976196289 279.239013671875,-88.84600067138672 279.239013671875,-88.84600067138672 C281.0719909667969,-62.077999114990234 297.2309875488281,-41.87799835205078 297.2309875488281,-41.87799835205078 C295.2139892578125,-41.37799835205078 293.5299987792969,-41.808998107910156 293.5299987792969,-41.808998107910156 C292.7019958496094,-0.4050000011920929 298.49798583984375,-9.079000473022461 298.49798583984375,-9.079000473022461z"></path></g><g opacity="1" transform="matrix(1,0,0,1,0,0)"><path fill="rgb(255,225,129)" fill-opacity="1" d=" M91.7770004272461,-100.87999725341797 C93.50299835205078,-112.9530029296875 89.38700103759766,-125.822998046875 83.18199920654297,-117.5719985961914 C75.66899871826172,-107.58100128173828 70.52200317382812,-90.83599853515625 70.8280029296875,-76.0459976196289 C70.9469985961914,-70.29299926757812 72.39399719238281,-82.31199645996094 79.56300354003906,-95.13400268554688 C86.60199737548828,-107.7229995727539 91.072998046875,-95.95999908447266 91.7770004272461,-100.87999725341797z"></path></g><g opacity="1" transform="matrix(1,0,0,1,0,0)"><path stroke-linecap="round" stroke-linejoin="round" fill-opacity="0" stroke="rgb(187,98,0)" stroke-opacity="1" stroke-width="8" d=" M105.21099853515625,-105.46600341796875 C105.32599639892578,-106.46800231933594 106.4530029296875,-107.00399780273438 107.28500366210938,-106.43399810791016 C114.2699966430664,-101.6510009765625 141.33900451660156,-85.43299865722656 189.75900268554688,-83.44300079345703 C237.06500244140625,-81.4990005493164 264.1650085449219,-87.37999725341797 270.6159973144531,-89.00199890136719 C271.40301513671875,-89.19999694824219 272.1730041503906,-88.65899658203125 272.2550048828125,-87.85199737548828 C272.77899169921875,-82.6780014038086 275.2640075683594,-65.322998046875 286.01800537109375,-47.22100067138672 C286.989013671875,-45.58700180053711 287.48199462890625,-43.71099853515625 287.48199462890625,-41.81100082397461 C287.48199462890625,-41.81100082397461 287.48199462890625,2.296999931335449 287.48199462890625,2.296999931335449 C287.48199462890625,3.803999900817871 287.385009765625,3.4070000648498535 287.385009765625,3.4070000648498535 C290.2049865722656,2.375999927520752 294.3599853515625,-0.5450000166893005 296.4670104980469,-14.121999740600586 C299.8380126953125,-35.845001220703125 307.3290100097656,-71.427001953125 300.5870056152344,-102.88800048828125 C293.8450012207031,-134.3489990234375 273.2799987792969,-165.93499755859375 222.34300231933594,-174.33099365234375 C166.8800048828125,-183.47300720214844 114.44499969482422,-171.4290008544922 90.62300109863281,-137.302001953125 C90.0250015258789,-136.44500732421875 89.31900024414062,-135.67999267578125 88.41500091552734,-135.15499877929688 C84.22200012207031,-132.7220001220703 74.1240005493164,-123.38400268554688 69.12999725341797,-99.48600006103516 C63.887001037597656,-74.39199829101562 68.03700256347656,-46.33300018310547 70.65899658203125,-30.976999282836914 C72.86699676513672,-18.042999267578125 75.05400085449219,-2.184999942779541 81.05999755859375,4.060999870300293 C82.43499755859375,5.491000175476074 81.86000061035156,4.480000019073486 81.86000061035156,2.496000051498413 C81.86000061035156,2.496000051498413 81.86000061035156,-41.391998291015625 81.86000061035156,-41.391998291015625 C81.86000061035156,-43.755001068115234 82.64800262451172,-46.04399871826172 84.0739974975586,-47.928001403808594 C89.17500305175781,-54.66400146484375 101.59300231933594,-73.9010009765625 105.21099853515625,-105.46600341796875z"></path></g><g opacity="1" transform="matrix(1,0,0,1,0,0)"><path stroke-linecap="round" stroke-linejoin="round" fill-opacity="0" stroke="rgb(255,255,255)" stroke-opacity="1" stroke-width="6" d=" M227.34800720214844,-161.8780059814453 C228.86300659179688,-161.54100036621094 230.43600463867188,-161.1719970703125 232.05599975585938,-160.76499938964844"></path></g><g opacity="1" transform="matrix(1,0,0,1,0,0)"><path stroke-linecap="round" stroke-linejoin="round" fill-opacity="0" stroke="rgb(255,255,255)" stroke-opacity="1" stroke-width="6" d=" M206.2969970703125,-165.13499450683594 C206.2969970703125,-165.13499450683594 211.0959930419922,-164.86000061035156 218.70899963378906,-163.57000732421875"></path></g><g opacity="1" transform="matrix(1,0,0,1,0,0)"><path stroke-linecap="round" stroke-linejoin="round" fill-opacity="0" stroke="rgb(255,255,255)" stroke-opacity="1" stroke-width="6" d=" M151.9770050048828,-162.00399780273438 C153.48599243164062,-162.3679962158203 155.06100463867188,-162.72799682617188 156.69500732421875,-163.0749969482422"></path></g><g opacity="1" transform="matrix(1,0,0,1,0,0)"><path stroke-linecap="round" stroke-linejoin="round" fill-opacity="0" stroke="rgb(255,255,255)" stroke-opacity="1" stroke-width="6" d=" M131.63900756835938,-155.6699981689453 C131.63900756835938,-155.6699981689453 136.0709991455078,-157.5330047607422 143.47500610351562,-159.72300720214844"></path></g></g><g style="display: block;" transform="matrix(1.090000033378601,0,0,1.090000033378601,243.0006866455078,340.0007629394531)" opacity="1"><g opacity="1" transform="matrix(1,0,0,1,0,0)"><g opacity="1" transform="matrix(1,0,0,1,0,0)"><path fill="rgb(81,101,126)" fill-opacity="1" d=" M-4.848999977111816,179.8209991455078 C1.1410000324249268,179.8209991455078 6.171000003814697,183.93699645996094 7.611999988555908,189.4759979248047 C12.45300006866455,190.39500427246094 14.769000053405762,193.61399841308594 16.233999252319336,195.66600036621094 C16.517000198364258,196.06300354003906 16.881999969482422,196.572998046875 17.132999420166016,196.8560028076172 C17.132999420166016,196.8560028076172 23.753000259399414,196.8560028076172 23.753000259399414,196.8560028076172 C25.68600082397461,196.8560028076172 27.253000259399414,198.42300415039062 27.253000259399414,200.3560028076172 C27.253000259399414,200.6580047607422 27.202999114990234,200.9459991455078 27.131000518798828,201.2259979248047 C27.799999237060547,201.22900390625 28.486000061035156,201.2310028076172 29.211000442504883,201.2310028076172 C29.211000442504883,201.2310028076172 46.88100051879883,201.2310028076172 46.88100051879883,201.2310028076172 C51.06999969482422,201.2310028076172 54.87099838256836,202.9320068359375 57.62099838256836,205.6820068359375 C60.361000061035156,208.4320068359375 62.06100082397461,212.2220001220703 62.06100082397461,216.41200256347656 C62.06100082397461,217.3820037841797 61.28099822998047,218.1719970703125 60.31100082397461,218.1719970703125 C60.31100082397461,218.1719970703125 -70.00900268554688,218.1719970703125 -70.00900268554688,218.1719970703125 C-70.97899627685547,218.1719970703125 -71.75900268554688,217.3820037841797 -71.75900268554688,216.41200256347656 C-71.75900268554688,208.03199768066406 -64.96900177001953,201.2310028076172 -56.57899856567383,201.2310028076172 C-56.57899856567383,201.2310028076172 -38.909000396728516,201.2310028076172 -38.909000396728516,201.2310028076172 C-38.2859992980957,201.2310028076172 -37.689998626708984,201.22999572753906 -37.108001708984375,201.22799682617188 C-37.18000030517578,200.947998046875 -37.22999954223633,200.65899658203125 -37.22999954223633,200.3560028076172 C-37.22999954223633,198.42300415039062 -35.66299819946289,196.8560028076172 -33.72999954223633,196.8560028076172 C-33.72999954223633,196.8560028076172 -27.110000610351562,196.8560028076172 -27.110000610351562,196.8560028076172 C-26.858999252319336,196.572998046875 -26.493999481201172,196.06300354003906 -26.211000442504883,195.66600036621094 C-24.715999603271484,193.572998046875 -22.340999603271484,190.25799560546875 -17.29599952697754,189.41799926757812 C-15.833999633789062,183.9080047607422 -10.817000389099121,179.8209991455078 -4.848999977111816,179.8209991455078 M-4.848999977111816,198.6009979248047 C-1.5989999771118164,198.6009979248047 1.0410000085830688,195.96099853515625 1.0410000085830688,192.71099853515625 C1.0410000085830688,189.4709930419922 -1.5989999771118164,186.8209991455078 -4.848999977111816,186.8209991455078 C-8.098999977111816,186.8209991455078 -10.73900032043457,189.4709930419922 -10.73900032043457,192.71099853515625 C-10.73900032043457,195.96099853515625 -8.098999977111816,198.6009979248047 -4.848999977111816,198.6009979248047 M-4.848999977111816,171.8209991455078 C-12.664999961853027,171.8209991455078 -19.691999435424805,176.19200134277344 -23.263999938964844,182.87899780273438 C-26.95400047302246,184.46099853515625 -29.447999954223633,186.88699340820312 -31.082000732421875,188.8560028076172 C-31.082000732421875,188.8560028076172 -33.72999954223633,188.8560028076172 -33.72999954223633,188.8560028076172 C-37.382999420166016,188.8560028076172 -40.643001556396484,190.56700134277344 -42.750999450683594,193.2310028076172 C-42.750999450683594,193.2310028076172 -56.57899856567383,193.2310028076172 -56.57899856567383,193.2310028076172 C-69.36000061035156,193.2310028076172 -79.75900268554688,203.6300048828125 -79.75900268554688,216.41200256347656 C-79.75900268554688,221.79400634765625 -75.38500213623047,226.1719970703125 -70.00900268554688,226.1719970703125 C-70.00900268554688,226.1719970703125 60.31100082397461,226.1719970703125 60.31100082397461,226.1719970703125 C65.68699645996094,226.1719970703125 70.06099700927734,221.79400634765625 70.06099700927734,216.41200256347656 C70.06099700927734,210.23500061035156 67.65499877929688,204.41900634765625 63.28799819946289,200.03500366210938 C58.89699935913086,195.6439971923828 53.07400131225586,193.2310028076172 46.88100051879883,193.2310028076172 C46.88100051879883,193.2310028076172 32.77399826049805,193.2310028076172 32.77399826049805,193.2310028076172 C30.666000366210938,190.56700134277344 27.4060001373291,188.8560028076172 23.753000259399414,188.8560028076172 C23.753000259399414,188.8560028076172 21.10300064086914,188.8560028076172 21.10300064086914,188.8560028076172 C19.527000427246094,186.95799255371094 17.143999099731445,184.6320037841797 13.656999588012695,183.0489959716797 C10.118000030517578,176.26300048828125 3.0460000038146973,171.8209991455078 -4.848999977111816,171.8209991455078 C-4.848999977111816,171.8209991455078 -4.848999977111816,171.8209991455078 -4.848999977111816,171.8209991455078z"></path></g></g><g opacity="1" transform="matrix(1,0,0,1,0,0)"><g opacity="1" transform="matrix(1,0,0,1,0,0)"><path fill="rgb(145,175,224)" fill-opacity="1" d=" M-12.902999877929688,203.8560028076172 C-12.902999877929688,203.8560028076172 -33.72999954223633,203.8560028076172 -33.72999954223633,203.8560028076172 C-35.66299819946289,203.8560028076172 -37.22999954223633,202.28900146484375 -37.22999954223633,200.3560028076172 C-37.22999954223633,198.42300415039062 -35.66299819946289,196.8560028076172 -33.72999954223633,196.8560028076172 C-33.72999954223633,196.8560028076172 -27.110000610351562,196.8560028076172 -27.110000610351562,196.8560028076172 C-26.858999252319336,196.572998046875 -26.493999481201172,196.06199645996094 -26.211000442504883,195.66600036621094 C-24.488000869750977,193.25399780273438 -21.604999542236328,189.21600341796875 -14.805000305175781,189.21600341796875 C-13.197999954223633,189.21600341796875 -11.79699993133545,190.30999755859375 -11.407999992370605,191.87100219726562 C-11.407999992370605,191.87100219726562 -9.506999969482422,199.51100158691406 -9.506999969482422,199.51100158691406 C-9.246999740600586,200.55599975585938 -9.482000350952148,201.66200256347656 -10.145000457763672,202.51100158691406 C-10.809000015258789,203.36000061035156 -11.826000213623047,203.8560028076172 -12.902999877929688,203.8560028076172z M-17.757999420166016,196.8560028076172 C-17.757999420166016,196.8560028076172 -17.381000518798828,196.8560028076172 -17.381000518798828,196.8560028076172 C-17.381000518798828,196.8560028076172 -17.422000885009766,196.6909942626953 -17.422000885009766,196.6909942626953 C-17.538000106811523,196.7429962158203 -17.649999618530273,196.7969970703125 -17.757999420166016,196.8560028076172z"></path></g></g><g opacity="1" transform="matrix(1,0,0,1,0,0)"><g opacity="1" transform="matrix(1,0,0,1,0,0)"><path fill="rgb(145,175,224)" fill-opacity="1" d=" M23.753000259399414,203.8560028076172 C23.753000259399414,203.8560028076172 2.9260001182556152,203.8560028076172 2.9260001182556152,203.8560028076172 C1.8489999771118164,203.8560028076172 0.8320000171661377,203.36000061035156 0.1679999977350235,202.51100158691406 C-0.4950000047683716,201.66200256347656 -0.7310000061988831,200.55599975585938 -0.47099998593330383,199.51100158691406 C-0.47099998593330383,199.51100158691406 1.430999994277954,191.87100219726562 1.430999994277954,191.87100219726562 C1.8200000524520874,190.30999755859375 3.2200000286102295,189.21600341796875 4.827000141143799,189.21600341796875 C11.626999855041504,189.21600341796875 14.51099967956543,193.25399780273438 16.233999252319336,195.66600036621094 C16.517000198364258,196.06199645996094 16.881999969482422,196.572998046875 17.132999420166016,196.8560028076172 C17.132999420166016,196.8560028076172 23.753000259399414,196.8560028076172 23.753000259399414,196.8560028076172 C25.68600082397461,196.8560028076172 27.253000259399414,198.42300415039062 27.253000259399414,200.3560028076172 C27.253000259399414,202.28900146484375 25.68600082397461,203.8560028076172 23.753000259399414,203.8560028076172z M7.4039998054504395,196.8560028076172 C7.4039998054504395,196.8560028076172 7.78000020980835,196.8560028076172 7.78000020980835,196.8560028076172 C7.671999931335449,196.7969970703125 7.560999870300293,196.7429962158203 7.445000171661377,196.6909942626953 C7.445000171661377,196.6909942626953 7.4039998054504395,196.8560028076172 7.4039998054504395,196.8560028076172z"></path></g></g><g opacity="1" transform="matrix(1,0,0,1,0,0)"><path fill="rgb(197,214,246)" fill-opacity="1" d=" M57.62099838256836,205.68099975585938 C54.87099838256836,202.93099975585938 51.06999969482422,201.2310028076172 46.88100051879883,201.2310028076172 C46.88100051879883,201.2310028076172 29.211000442504883,201.2310028076172 29.211000442504883,201.2310028076172 C12.451000213623047,201.2310028076172 10.970999717712402,200.39100646972656 9.711000442504883,199.18099975585938 C8.270999908447266,197.79100036621094 8.041000366210938,195.24099731445312 8.041000366210938,192.71099853515625 C8.041000366210938,185.61099243164062 2.260999917984009,179.8209991455078 -4.848999977111816,179.8209991455078 C-11.958999633789062,179.8209991455078 -17.73900032043457,185.61099243164062 -17.73900032043457,192.71099853515625 C-17.73900032043457,195.24099731445312 -17.9689998626709,197.79100036621094 -19.409000396728516,199.18099975585938 C-20.66900062561035,200.39100646972656 -22.14900016784668,201.2310028076172 -38.909000396728516,201.2310028076172 C-38.909000396728516,201.2310028076172 -56.57899856567383,201.2310028076172 -56.57899856567383,201.2310028076172 C-64.96900177001953,201.2310028076172 -71.75900268554688,208.031005859375 -71.75900268554688,216.41099548339844 C-71.75900268554688,216.41099548339844 -71.75900268554688,220.1909942626953 -71.75900268554688,220.1909942626953 C-71.75900268554688,221.16099548339844 -70.97899627685547,221.9510040283203 -70.00900268554688,221.9510040283203 C-70.00900268554688,221.9510040283203 60.31100082397461,221.9510040283203 60.31100082397461,221.9510040283203 C61.28099822998047,221.9510040283203 62.06100082397461,221.16099548339844 62.06100082397461,220.1909942626953 C62.06100082397461,220.1909942626953 62.06100082397461,216.41099548339844 62.06100082397461,216.41099548339844 C62.06100082397461,212.2209930419922 60.361000061035156,208.43099975585938 57.62099838256836,205.68099975585938z M-4.848999977111816,186.8209991455078 C-1.5989999771118164,186.8209991455078 1.0410000085830688,189.4709930419922 1.0410000085830688,192.71099853515625 C1.0410000085830688,195.96099853515625 -1.5989999771118164,198.6020050048828 -4.848999977111816,198.6020050048828 C-8.098999977111816,198.6020050048828 -10.73900032043457,195.96099853515625 -10.73900032043457,192.71099853515625 C-10.73900032043457,189.4709930419922 -8.098999977111816,186.8209991455078 -4.848999977111816,186.8209991455078z"></path></g><g opacity="1" transform="matrix(1,0,0,1,0,0)"><path fill="rgb(224,160,79)" fill-opacity="1" d=" M77.65499877929688,415.0509948730469 C77.65499877929688,415.0509948730469 -87.35800170898438,415.0509948730469 -87.35800170898438,415.0509948730469 C-95.12699890136719,415.0509948730469 -101.42500305175781,408.7539978027344 -101.42500305175781,400.9849853515625 C-101.42500305175781,400.9849853515625 -101.42500305175781,222.56500244140625 -101.42500305175781,222.56500244140625 C-101.42500305175781,214.79600524902344 -95.12699890136719,208.49899291992188 -87.35800170898438,208.49899291992188 C-87.35800170898438,208.49899291992188 77.65499877929688,208.49899291992188 77.65499877929688,208.49899291992188 C85.42400360107422,208.49899291992188 91.72200012207031,214.79600524902344 91.72200012207031,222.56500244140625 C91.72200012207031,222.56500244140625 91.72200012207031,400.9849853515625 91.72200012207031,400.9849853515625 C91.72200012207031,408.7539978027344 85.42400360107422,415.0509948730469 77.65499877929688,415.0509948730469z"></path></g><g opacity="1" transform="matrix(1,0,0,1,0,0)"><path fill="rgb(201,139,61)" fill-opacity="1" d=" M68.61000061035156,415.0509948730469 C68.61000061035156,415.0509948730469 -78.31300354003906,415.0509948730469 -78.31300354003906,415.0509948730469 C-86.08200073242188,415.0509948730469 -92.37999725341797,408.7539978027344 -92.37999725341797,400.9849853515625 C-92.37999725341797,400.9849853515625 -92.37999725341797,232.23800659179688 -92.37999725341797,232.23800659179688 C-92.37999725341797,224.468994140625 -86.08200073242188,218.17100524902344 -78.31300354003906,218.17100524902344 C-78.31300354003906,218.17100524902344 68.61000061035156,218.17100524902344 68.61000061035156,218.17100524902344 C76.37899780273438,218.17100524902344 82.677001953125,224.468994140625 82.677001953125,232.23800659179688 C82.677001953125,232.23800659179688 82.677001953125,400.9849853515625 82.677001953125,400.9849853515625 C82.677001953125,408.7539978027344 76.37899780273438,415.0509948730469 68.61000061035156,415.0509948730469z"></path></g><g opacity="1" transform="matrix(1,0,0,1,0,0)"><g opacity="1" transform="matrix(1,0,0,1,0,0)"><path fill="rgb(183,119,48)" fill-opacity="1" d=" M37.71500015258789,225.94400024414062 C37.71500015258789,230.12100219726562 34.327999114990234,233.50799560546875 30.150999069213867,233.50799560546875 C25.974000930786133,233.50799560546875 22.586999893188477,230.12100219726562 22.586999893188477,225.94400024414062 C22.586999893188477,221.76699829101562 25.974000930786133,218.38099670410156 30.150999069213867,218.38099670410156 C34.327999114990234,218.38099670410156 37.71500015258789,221.76699829101562 37.71500015258789,225.94400024414062z"></path></g><g opacity="1" transform="matrix(1,0,0,1,0,0)"><path fill="rgb(183,119,48)" fill-opacity="1" d=" M-32.2859992980957,225.94400024414062 C-32.2859992980957,230.12100219726562 -35.67300033569336,233.50799560546875 -39.849998474121094,233.50799560546875 C-44.027000427246094,233.50799560546875 -47.41400146484375,230.12100219726562 -47.41400146484375,225.94400024414062 C-47.41400146484375,221.76699829101562 -44.027000427246094,218.38099670410156 -39.849998474121094,218.38099670410156 C-35.67300033569336,218.38099670410156 -32.2859992980957,221.76699829101562 -32.2859992980957,225.94400024414062z"></path></g><g opacity="1" transform="matrix(1,0,0,1,0,0)"><path fill="rgb(197,214,246)" fill-opacity="1" d=" M33.61399841308594,225.94400024414062 C33.61399841308594,227.85699462890625 32.06399917602539,229.40699768066406 30.150999069213867,229.40699768066406 C28.238000869750977,229.40699768066406 26.687999725341797,227.85699462890625 26.687999725341797,225.94400024414062 C26.687999725341797,224.031005859375 28.238000869750977,222.4810028076172 30.150999069213867,222.4810028076172 C32.06399917602539,222.4810028076172 33.61399841308594,224.031005859375 33.61399841308594,225.94400024414062z"></path></g><g opacity="1" transform="matrix(1,0,0,1,0,0)"><path fill="rgb(197,214,246)" fill-opacity="1" d=" M-36.387001037597656,225.94400024414062 C-36.387001037597656,227.85699462890625 -37.9370002746582,229.40699768066406 -39.849998474121094,229.40699768066406 C-41.76300048828125,229.40699768066406 -43.3129997253418,227.85699462890625 -43.3129997253418,225.94400024414062 C-43.3129997253418,224.031005859375 -41.76300048828125,222.4810028076172 -39.849998474121094,222.4810028076172 C-37.9370002746582,222.4810028076172 -36.387001037597656,224.031005859375 -36.387001037597656,225.94400024414062z"></path></g></g><g opacity="1" transform="matrix(1,0,0,1,0,0)"><path stroke-linecap="round" stroke-linejoin="round" fill-opacity="0" stroke="rgb(130,79,25)" stroke-opacity="1" stroke-width="8" d=" M77.65499877929688,415.0509948730469 C77.65499877929688,415.0509948730469 -87.35800170898438,415.0509948730469 -87.35800170898438,415.0509948730469 C-95.12699890136719,415.0509948730469 -101.42500305175781,408.7539978027344 -101.42500305175781,400.9849853515625 C-101.42500305175781,400.9849853515625 -101.42500305175781,222.56500244140625 -101.42500305175781,222.56500244140625 C-101.42500305175781,214.79600524902344 -95.12699890136719,208.49899291992188 -87.35800170898438,208.49899291992188 C-87.35800170898438,208.49899291992188 77.65499877929688,208.49899291992188 77.65499877929688,208.49899291992188 C85.42400360107422,208.49899291992188 91.72200012207031,214.79600524902344 91.72200012207031,222.56500244140625 C91.72200012207031,222.56500244140625 91.72200012207031,400.9849853515625 91.72200012207031,400.9849853515625 C91.72200012207031,408.7539978027344 85.42400360107422,415.0509948730469 77.65499877929688,415.0509948730469z"></path></g><g opacity="1" transform="matrix(1,0,0,1,0,0)"><path fill="rgb(35,58,78)" fill-opacity="1" d=" M1.1790000200271606,192.71099853515625 C1.1790000200271606,196.04200744628906 -1.5210000276565552,198.74200439453125 -4.8520002365112305,198.74200439453125 C-8.182999610900879,198.74200439453125 -10.881999969482422,196.04200744628906 -10.881999969482422,192.71099853515625 C-10.881999969482422,189.3800048828125 -8.182999610900879,186.68099975585938 -4.8520002365112305,186.68099975585938 C-1.5210000276565552,186.68099975585938 1.1790000200271606,189.3800048828125 1.1790000200271606,192.71099853515625z"></path></g><g opacity="1" transform="matrix(1,0,0,1,0,0)"><path fill="rgb(72,72,93)" fill-opacity="1" d=" M-1.5299999713897705,192.71099853515625 C-1.5299999713897705,194.54400634765625 -3.0160000324249268,196.031005859375 -4.848999977111816,196.031005859375 C-6.682000160217285,196.031005859375 -8.168999671936035,194.54400634765625 -8.168999671936035,192.71099853515625 C-8.168999671936035,190.8780059814453 -6.682000160217285,189.39199829101562 -4.848999977111816,189.39199829101562 C-3.0160000324249268,189.39199829101562 -1.5299999713897705,190.8780059814453 -1.5299999713897705,192.71099853515625z"></path></g></g></g></svg>