<svg xmlns="http://www.w3.org/2000/svg" viewBox="0 0 512 512" width="512" height="512" style="width: 100%; height: 100%; transform: translate3d(0,0,0);" preserveAspectRatio="xMidYMid meet"><defs><clipPath id="__lottie_element_22845"><rect width="512" height="512" x="0" y="0"></rect></clipPath></defs><g clip-path="url(#__lottie_element_22845)"><g style="display: block;" transform="matrix(1,0,0,1,256,256)" opacity="1"><g opacity="0.1" transform="matrix(1,0,0,1,0,0)"><path fill="rgb(0,0,0)" fill-opacity="1" d=" M211.50999450683594,3.924999952316284 C211.50999450683594,112.18599700927734 123.74700164794922,199.9499969482422 15.486000061035156,199.9499969482422 C-92.7750015258789,199.9499969482422 -180.53900146484375,112.18599700927734 -180.53900146484375,3.924999952316284 C-180.53900146484375,-104.33599853515625 -92.7750015258789,-192.0989990234375 15.486000061035156,-192.0989990234375 C123.74700164794922,-192.0989990234375 211.50999450683594,-104.33599853515625 211.50999450683594,3.924999952316284z"></path></g><g opacity="1" transform="matrix(1,0,0,1,0,0)"><g opacity="1" transform="matrix(1,0,0,1,0,0)"><path fill="rgb(255,173,0)" fill-opacity="1" d=" M204.36099243164062,-11.074999809265137 C204.36099243164062,93.23799896240234 119.79900360107422,177.80099487304688 15.486000061035156,177.80099487304688 C-88.8270034790039,177.80099487304688 -173.38999938964844,93.23799896240234 -173.38999938964844,-11.074999809265137 C-173.38999938964844,-115.38800048828125 -88.8270034790039,-199.9499969482422 15.486000061035156,-199.9499969482422 C119.79900360107422,-199.9499969482422 204.36099243164062,-115.38800048828125 204.36099243164062,-11.074999809265137z"></path><path stroke-linecap="round" stroke-linejoin="round" fill-opacity="0" stroke="rgb(255,118,42)" stroke-opacity="1" stroke-width="8" d=" M204.36099243164062,-11.074999809265137 C204.36099243164062,93.23799896240234 119.79900360107422,177.80099487304688 15.486000061035156,177.80099487304688 C-88.8270034790039,177.80099487304688 -173.38999938964844,93.23799896240234 -173.38999938964844,-11.074999809265137 C-173.38999938964844,-115.38800048828125 -88.8270034790039,-199.9499969482422 15.486000061035156,-199.9499969482422 C119.79900360107422,-199.9499969482422 204.36099243164062,-115.38800048828125 204.36099243164062,-11.074999809265137z"></path></g><g opacity="1" transform="matrix(1,0,0,1,0,0)"><path fill="rgb(255,207,0)" fill-opacity="1" d=" M183.89300537109375,-10.362000465393066 C182.43600463867188,84.66699981689453 105.88200378417969,160.5469970703125 12.904000282287598,159.1219940185547 C-80.0739974975586,157.69700622558594 -154.26600646972656,79.50599670410156 -152.80999755859375,-15.52299976348877 C-151.35299682617188,-110.5510025024414 -74.79900360107422,-186.4320068359375 18.179000854492188,-185.0070037841797 C111.15699768066406,-183.58200073242188 185.35000610351562,-105.39099884033203 183.89300537109375,-10.362000465393066z"></path></g></g></g><g style="display: block;" transform="matrix(1,0,0,1,256,256)" opacity="1"><g opacity="1" transform="matrix(1,0,0,1,0,0)"><g opacity="0.9" transform="matrix(1,0,0,1,0,0)"><path fill="rgb(255,222,102)" fill-opacity="1" d=" M164.7530059814453,-53.50299835205078 C164.7530059814453,19.139999389648438 97.92400360107422,-38.32500076293945 15.486000061035156,-38.32500076293945 C-66.9520034790039,-38.32500076293945 -133.78199768066406,19.139999389648438 -133.78199768066406,-53.50299835205078 C-133.78199768066406,-126.14600372314453 -66.9520034790039,-185.03599548339844 15.486000061035156,-185.03599548339844 C97.92400360107422,-185.03599548339844 164.7530059814453,-126.14600372314453 164.7530059814453,-53.50299835205078z"></path></g></g></g><g style="display: block;" transform="matrix(1,0,0,1,256,256)" opacity="1"><g opacity="1" transform="matrix(1,0,0,1,0,0)"><g opacity="1" transform="matrix(1,0,0,1,0,0)"><g opacity="1" transform="matrix(1,0,0,1,0,0)"><path stroke-linecap="round" stroke-linejoin="round" fill-opacity="0" stroke="rgb(255,255,255)" stroke-opacity="1" stroke-width="6" d=" M51.858001708984375,-180.8159942626953 C53.395999908447266,-180.4810028076172 54.992000579833984,-180.11199951171875 56.63600158691406,-179.70599365234375"></path></g><g opacity="1" transform="matrix(1,0,0,1,0,0)"><path stroke-linecap="round" stroke-linejoin="round" fill-opacity="0" stroke="rgb(255,255,255)" stroke-opacity="1" stroke-width="6" d=" M30.503999710083008,-184.03599548339844 C30.503999710083008,-184.03599548339844 35.37099838256836,-183.77499389648438 43.09400177001953,-182.4969940185547"></path></g></g></g></g><g style="display: block;" transform="matrix(1,0,0,1,256,256)" opacity="1"><g opacity="1" transform="matrix(1,0,0,1,0,0)"><g opacity="1" transform="matrix(1,0,0,1,0,0)"><path fill="rgb(255,173,0)" fill-opacity="1" d=" M-22.69700050354004,-60.68899917602539 C-22.69700050354004,-42.25199890136719 -33.21099853515625,-27.30699920654297 -46.18199920654297,-27.30699920654297 C-59.15299987792969,-27.30699920654297 -69.66799926757812,-42.25199890136719 -69.66799926757812,-60.68899917602539 C-69.66799926757812,-79.1259994506836 -59.15299987792969,-94.07099914550781 -46.18199920654297,-94.07099914550781 C-33.21099853515625,-94.07099914550781 -22.69700050354004,-79.1259994506836 -22.69700050354004,-60.68899917602539z"></path></g><g opacity="1" transform="matrix(1,0,0,1,0,0)"><path fill="rgb(255,173,0)" fill-opacity="1" d=" M99.7040023803711,-60.68899917602539 C99.7040023803711,-42.25199890136719 89.18900299072266,-27.30699920654297 76.21800231933594,-27.30699920654297 C63.24700164794922,-27.30699920654297 52.731998443603516,-42.25199890136719 52.731998443603516,-60.68899917602539 C52.731998443603516,-79.1259994506836 63.24700164794922,-94.07099914550781 76.21800231933594,-94.07099914550781 C89.18900299072266,-94.07099914550781 99.7040023803711,-79.1259994506836 99.7040023803711,-60.68899917602539z"></path></g><g opacity="1" transform="matrix(1,0,0,1,0,0)"><path fill="rgb(255,225,156)" fill-opacity="1" d=" M-22.69700050354004,-48.68899917602539 C-22.69700050354004,-30.25200080871582 -33.21099853515625,-15.307000160217285 -46.18199920654297,-15.307000160217285 C-59.15299987792969,-15.307000160217285 -69.66799926757812,-30.25200080871582 -69.66799926757812,-48.68899917602539 C-69.66799926757812,-67.1259994506836 -59.15299987792969,-82.07099914550781 -46.18199920654297,-82.07099914550781 C-33.21099853515625,-82.07099914550781 -22.69700050354004,-67.1259994506836 -22.69700050354004,-48.68899917602539z"></path></g><g opacity="1" transform="matrix(1,0,0,1,0,0)"><path fill="rgb(143,58,0)" fill-opacity="1" d=" M-24.163999557495117,-55.111000061035156 C-24.163999557495117,-36.67399978637695 -34.02199935913086,-21.72800064086914 -46.18199920654297,-21.72800064086914 C-58.34199905395508,-21.72800064086914 -68.19999694824219,-36.67399978637695 -68.19999694824219,-55.111000061035156 C-68.19999694824219,-73.5479965209961 -58.34199905395508,-88.49299621582031 -46.18199920654297,-88.49299621582031 C-34.02199935913086,-88.49299621582031 -24.163999557495117,-73.5479965209961 -24.163999557495117,-55.111000061035156z"></path></g><g opacity="1" transform="matrix(1,0,0,1,0,0)"><path fill="rgb(107,32,0)" fill-opacity="1" d=" M-24.35700035095215,-50.78300094604492 C-25.738000869750977,-67.19100189208984 -34.986000061035156,-79.85299682617188 -46.180999755859375,-79.85299682617188 C-57.375999450683594,-79.85299682617188 -66.62300109863281,-67.19100189208984 -68.00399780273438,-50.78300094604492 C-69.66699981689453,-73.33300018310547 -58.34000015258789,-88.48999786376953 -46.180999755859375,-88.48999786376953 C-34.02199935913086,-88.48999786376953 -23.16699981689453,-73.33300018310547 -24.35700035095215,-50.78300094604492z"></path></g></g><g opacity="1" transform="matrix(1,0,0,1,0,0)"><g opacity="1" transform="matrix(1,0,0,1,0,0)"><path fill="rgb(255,225,156)" fill-opacity="1" d=" M99.7040023803711,-48.68899917602539 C99.7040023803711,-30.25200080871582 89.18900299072266,-15.307000160217285 76.21800231933594,-15.307000160217285 C63.24700164794922,-15.307000160217285 52.731998443603516,-30.25200080871582 52.731998443603516,-48.68899917602539 C52.731998443603516,-67.1259994506836 63.24700164794922,-82.07099914550781 76.21800231933594,-82.07099914550781 C89.18900299072266,-82.07099914550781 99.7040023803711,-67.1259994506836 99.7040023803711,-48.68899917602539z"></path></g><g opacity="1" transform="matrix(1,0,0,1,0,0)"><path fill="rgb(143,58,0)" fill-opacity="1" d=" M98.23600006103516,-55.111000061035156 C98.23600006103516,-36.67399978637695 88.37799835205078,-21.72800064086914 76.21800231933594,-21.72800064086914 C64.05799865722656,-21.72800064086914 54.20000076293945,-36.67399978637695 54.20000076293945,-55.111000061035156 C54.20000076293945,-73.5479965209961 64.05799865722656,-88.49299621582031 76.21800231933594,-88.49299621582031 C88.37799835205078,-88.49299621582031 98.23600006103516,-73.5479965209961 98.23600006103516,-55.111000061035156z"></path></g><g opacity="1" transform="matrix(1,0,0,1,0,0)"><path fill="rgb(107,32,0)" fill-opacity="1" d=" M98.04299926757812,-50.78300094604492 C96.66200256347656,-67.19100189208984 87.41400146484375,-79.85299682617188 76.21900177001953,-79.85299682617188 C65.02400207519531,-79.85299682617188 55.777000427246094,-67.19100189208984 54.395999908447266,-50.78300094604492 C52.733001708984375,-73.33300018310547 64.05999755859375,-88.48999786376953 76.21900177001953,-88.48999786376953 C88.37799835205078,-88.48999786376953 99.33300018310547,-73.66699981689453 98.04299926757812,-50.78300094604492z"></path></g></g></g></g></svg>