<svg xmlns="http://www.w3.org/2000/svg" viewBox="0 0 512 512" width="512" height="512" style="width: 100%; height: 100%; transform: translate3d(0,0,0);" preserveAspectRatio="xMidYMid meet"><defs><clipPath id="__lottie_element_22859"><rect width="512" height="512" x="0" y="0"></rect></clipPath><linearGradient id="__lottie_element_22910" spreadMethod="pad" gradientUnits="userSpaceOnUse" x1="4.322000026702881" y1="36.527000427246094" x2="4.322000026702881" y2="1.2209999561309814"><stop offset="0%" stop-color="rgb(185,50,0)"></stop><stop offset="50%" stop-color="rgb(149,36,0)"></stop><stop offset="100%" stop-color="rgb(113,23,0)"></stop></linearGradient><linearGradient id="__lottie_element_22969" spreadMethod="pad" gradientUnits="userSpaceOnUse" x1="9.321999549865723" y1="18.527000427246094" x2="9.321999549865723" y2="-45.41400146484375"><stop offset="0%" stop-color="rgb(203,84,0)"></stop><stop offset="50%" stop-color="rgb(176,65,0)"></stop><stop offset="100%" stop-color="rgb(149,46,0)"></stop></linearGradient></defs><g clip-path="url(#__lottie_element_22859)"><g style="display: block;" transform="matrix(1,0,0,1,230.75,173.75)" opacity="0.7000000000000001"><g opacity="1" transform="matrix(1,0,0,1,0,0)"><path fill="rgb(203,84,0)" fill-opacity="1" d=" M68.81600189208984,-73.08300018310547 C55.959999084472656,-70.19400024414062 50.5,-61.77899932861328 52.07400131225586,-52.62099838256836 C53.31700134277344,-45.391998291015625 61.6609992980957,-34.30500030517578 76.8290023803711,-37.88199996948242 C90.45800018310547,-41.09600067138672 94,-52.763999938964844 91.71099853515625,-60.63399887084961 C90.29399871826172,-65.50299835205078 81.5510025024414,-75.94499969482422 68.81600189208984,-73.08300018310547z"></path></g></g><g style="display: block;" transform="matrix(1,0,0,1,117.24999237060547,168.5)" opacity="0.7000000000000001"><g opacity="1" transform="matrix(1,0,0,1,0,0)"><path fill="rgb(203,84,0)" fill-opacity="1" d=" M74.21600341796875,-61.43000030517578 C63.79600143432617,-59.0880012512207 59.37099838256836,-52.268001556396484 60.64699935913086,-44.845001220703125 C61.65399932861328,-38.98500061035156 68.41699981689453,-30 80.71099853515625,-32.89899826049805 C91.75800323486328,-35.50400161743164 94.62899780273438,-44.96099853515625 92.77300262451172,-51.34000015258789 C91.625,-55.2869987487793 84.53800201416016,-63.75 74.21600341796875,-61.43000030517578z"></path></g></g><g style="display: block;" transform="matrix(1,0,0,1,93.49999237060547,210.5)" opacity="0.7000000000000001"><g opacity="1" transform="matrix(1,0,0,1,0,0)"><path fill="rgb(203,84,0)" fill-opacity="1" d=" M72.64900207519531,-69.625 C56.36199951171875,-65.96499633789062 49.446998596191406,-55.30400085449219 51.441001892089844,-43.702999114990234 C53.01499938964844,-34.54499816894531 63.58599853515625,-20.5 82.8010025024414,-25.031999588012695 C100.06700134277344,-29.104000091552734 104.5530014038086,-43.88399887084961 101.65299987792969,-53.854000091552734 C99.85900115966797,-60.02299880981445 88.78199768066406,-73.25 72.64900207519531,-69.625z"></path></g></g><g style="display: block;" transform="matrix(1,0,0,1,250.5,202.5)" opacity="0.7000000000000001"><g opacity="1" transform="matrix(1,0,0,1,0,0)"><path fill="rgb(203,84,0)" fill-opacity="1" d=" M59.5,-83.75 C37.03799819946289,-78.7020034790039 27.5,-64 30.25,-48 C32.42100143432617,-35.36899948120117 47,-16 73.5,-22.25 C97.31199645996094,-27.865999221801758 103.5,-48.25 99.5,-62 C97.0250015258789,-70.50700378417969 81.75,-88.75 59.5,-83.75z"></path></g></g><g style="display: block;" transform="matrix(1,0,0,1,256,256)" opacity="1"><g opacity="1" transform="matrix(1,0,0,1,0,0)"><path fill="rgb(203,84,0)" fill-opacity="1" d=" M148.54299926757812,-98.21600341796875 C117.5,-100.75 27.61400032043457,-90.54100036621094 8.470000267028809,-89.25800323486328 C-21.25,-96.75 -95.25,-84 -140.44500732421875,-85.12300109863281 C-133.8280029296875,-68.51499938964844 -113.8759994506836,-59.499000549316406 -95.29499816894531,-65.21399688720703 C-88.74299621582031,-67.22899627685547 -83.2750015258789,-70.7979965209961 -79.21199798583984,-75.302001953125 C-69.94000244140625,-68.43000030517578 -55.834999084472656,-65.64099884033203 -42.5620002746582,-68.98999786376953 C-35.93899917602539,-70.66100311279297 -30.42799949645996,-73.63899993896484 -26.357999801635742,-77.39399719238281 C-16.694000244140625,-68.75700378417969 0.32600000500679016,-64.87000274658203 16.236000061035156,-68.5780029296875 C24.87299919128418,-70.59100341796875 31.756999969482422,-74.51100158691406 36.22999954223633,-79.41100311279297 C46.63600158691406,-74.50700378417969 60.13399887084961,-72.93499755859375 72.96399688720703,-75.97000122070312 C77.33499908447266,-77.00399780273438 81.28500366210938,-78.5009994506836 84.75900268554688,-80.34300231933594 C94.69300079345703,-70.17400360107422 110.81800079345703,-65.822998046875 125.94400024414062,-70.4749984741211 C145.96099853515625,-76.63099670410156 149.25,-90 148.54299926757812,-98.21600341796875z"></path><path stroke-linecap="round" stroke-linejoin="round" fill-opacity="0" stroke="rgb(149,46,0)" stroke-opacity="1" stroke-width="8" d=" M148.54299926757812,-98.21600341796875 C117.5,-100.75 27.61400032043457,-90.54100036621094 8.470000267028809,-89.25800323486328 C-21.25,-96.75 -95.25,-84 -140.44500732421875,-85.12300109863281 C-133.8280029296875,-68.51499938964844 -113.8759994506836,-59.499000549316406 -95.29499816894531,-65.21399688720703 C-88.74299621582031,-67.22899627685547 -83.2750015258789,-70.7979965209961 -79.21199798583984,-75.302001953125 C-69.94000244140625,-68.43000030517578 -55.834999084472656,-65.64099884033203 -42.5620002746582,-68.98999786376953 C-35.93899917602539,-70.66100311279297 -30.42799949645996,-73.63899993896484 -26.357999801635742,-77.39399719238281 C-16.694000244140625,-68.75700378417969 0.32600000500679016,-64.87000274658203 16.236000061035156,-68.5780029296875 C24.87299919128418,-70.59100341796875 31.756999969482422,-74.51100158691406 36.22999954223633,-79.41100311279297 C46.63600158691406,-74.50700378417969 60.13399887084961,-72.93499755859375 72.96399688720703,-75.97000122070312 C77.33499908447266,-77.00399780273438 81.28500366210938,-78.5009994506836 84.75900268554688,-80.34300231933594 C94.69300079345703,-70.17400360107422 110.81800079345703,-65.822998046875 125.94400024414062,-70.4749984741211 C145.96099853515625,-76.63099670410156 149.25,-90 148.54299926757812,-98.21600341796875z"></path></g></g><g style="display: block;" transform="matrix(1,0,0,1,256,256)" opacity="1"><g opacity="1" transform="matrix(1,0,0,1,0,0)"><path fill="url(#__lottie_element_22969)" fill-opacity="1" d=" M72.61599731445312,-54.9900016784668 C72.61599731445312,-54.9900016784668 62.018001556396484,-61.66699981689453 57.75600051879883,-65.03600311279297 C45.40599822998047,-74.80599975585938 57.75600051879883,-95.18599700927734 57.75600051879883,-95.18599700927734 C57.75600051879883,-95.18599700927734 8.97599983215332,-115.39600372314453 -46.09400177001953,-91.21600341796875 C-46.09400177001953,-91.21600341796875 -28.954999923706055,-76.97599792480469 -40.89500045776367,-64.03600311279297 C-44.07500076293945,-60.58599853515625 -49.71200180053711,-57.2599983215332 -53.60599899291992,-55.54999923706055 C-53.60599899291992,-55.54999923706055 -25.73900032043457,-18.104000091552734 -36.71099853515625,0.1679999977350235 C-39.632999420166016,5.039999961853027 -43.61199951171875,9.911999702453613 -46.763999938964844,14.741000175476074 C-46.763999938964844,14.741000175476074 65.09400177001953,16.124000549316406 65.09400177001953,16.124000549316406 C63.11800003051758,10.928000450134277 58.904998779296875,5.547999858856201 53.93899917602539,-1.24399995803833 C37.321998596191406,-23.972999572753906 72.61599731445312,-54.9900016784668 72.61599731445312,-54.9900016784668z"></path><path stroke-linecap="round" stroke-linejoin="round" fill-opacity="0" stroke="rgb(113,23,0)" stroke-opacity="1" stroke-width="8" d=" M72.61599731445312,-54.9900016784668 C72.61599731445312,-54.9900016784668 62.018001556396484,-61.66699981689453 57.75600051879883,-65.03600311279297 C45.40599822998047,-74.80599975585938 57.75600051879883,-95.18599700927734 57.75600051879883,-95.18599700927734 C57.75600051879883,-95.18599700927734 8.97599983215332,-115.39600372314453 -46.09400177001953,-91.21600341796875 C-46.09400177001953,-91.21600341796875 -28.954999923706055,-76.97599792480469 -40.89500045776367,-64.03600311279297 C-44.07500076293945,-60.58599853515625 -49.71200180053711,-57.2599983215332 -53.60599899291992,-55.54999923706055 C-53.60599899291992,-55.54999923706055 -25.73900032043457,-18.104000091552734 -36.71099853515625,0.1679999977350235 C-39.632999420166016,5.039999961853027 -43.61199951171875,9.911999702453613 -46.763999938964844,14.741000175476074 C-46.763999938964844,14.741000175476074 65.09400177001953,16.124000549316406 65.09400177001953,16.124000549316406 C63.11800003051758,10.928000450134277 58.904998779296875,5.547999858856201 53.93899917602539,-1.24399995803833 C37.321998596191406,-23.972999572753906 72.61599731445312,-54.9900016784668 72.61599731445312,-54.9900016784668z"></path></g><g opacity="0.5" transform="matrix(1,0,0,1,0,0)"><path stroke-linecap="round" stroke-linejoin="round" fill-opacity="0" stroke="rgb(113,23,0)" stroke-opacity="1" stroke-width="8" d=" M36.48500061035156,-69.31500244140625 C37.11899948120117,-64.65899658203125 38.4630012512207,-59.55699920654297 41.00299835205078,-54.45500183105469 C41.00299835205078,-54.45500183105469 30.945999145507812,-24.125999450683594 35.54899978637695,2.4790000915527344"></path></g><g opacity="0.5" transform="matrix(1,0,0,1,0,0)"><path stroke-linecap="round" stroke-linejoin="round" fill-opacity="0" stroke="rgb(113,23,0)" stroke-opacity="1" stroke-width="8" d=" M-22.92099952697754,-37.777000427246094 C-19.233999252319336,-23.64699935913086 -16.538999557495117,-2.933000087738037 -25.34000015258789,14.02299976348877 M-22.577999114990234,-84.33599853515625 C-22.577999114990234,-84.33599853515625 -20.229999542236328,-76.00900268554688 -22.83799934387207,-66.08300018310547"></path></g><g opacity="0.5" transform="matrix(1,0,0,1,0,0)"><path stroke-linecap="round" stroke-linejoin="round" fill-opacity="0" stroke="rgb(113,23,0)" stroke-opacity="1" stroke-width="8" d=" M-0.9520000219345093,-4.039000034332275 C-1.1540000438690186,2.7639999389648438 -1.7339999675750732,9.37399959564209 -2.8949999809265137,15.109999656677246 M-2.808000087738037,-78.16999816894531 C-2.808000087738037,-78.16999816894531 -0.800000011920929,-68.7959976196289 -4.093999862670898,-53.45500183105469 C-4.093999862670898,-53.45500183105469 -2.75,-44.4010009765625 -1.7970000505447388,-32.13100051879883"></path></g><g opacity="0.5" transform="matrix(1,0,0,1,0,0)"><path stroke-linecap="round" stroke-linejoin="round" fill-opacity="0" stroke="rgb(113,23,0)" stroke-opacity="1" stroke-width="8" d=" M16.46500015258789,-31.520000457763672 C16.025999069213867,-15.432999610900879 15.727999687194824,5.25600004196167 16.69099998474121,15.109999656677246"></path></g></g><g style="display: block;" transform="matrix(1,0,0,1,256,254)" opacity="1"><g opacity="1" transform="matrix(1,0,0,1,0,0)"><path fill="rgb(253,207,145)" fill-opacity="1" d=" M74.44499969482422,-41.316001892089844 C72.93299865722656,-39.733001708984375 68.12799835205078,-35.369998931884766 53.60900115966797,-35.61199951171875 C47.904998779296875,-35.707000732421875 41.387001037597656,-36.823001861572266 34.37099838256836,-36.566001892089844 C28.3439998626709,-36.345001220703125 25.92099952697754,-33.10900115966797 15.472999572753906,-33.10900115966797 C6.48199987411499,-33.10900115966797 2.378000020980835,-36.012001037597656 -4.099999904632568,-36.06999969482422 C-9.96500015258789,-36.12200164794922 -14.317000389099121,-34.46799850463867 -21.20599937438965,-33.40299987792969 C-31.48900032043457,-31.812999725341797 -34.93199920654297,-36.94200134277344 -40.70100021362305,-37.36399841308594 C-44.44300079345703,-37.63800048828125 -47.803001403808594,-36.35300064086914 -50.73899841308594,-36.19300079345703 C-59.387001037597656,-35.72100067138672 -61.275001525878906,-40.10200119018555 -62.06800079345703,-41.316001892089844 C-64.6449966430664,-45.25600051879883 -61.720001220703125,-49.32600021362305 -57.27299880981445,-53.45600128173828 C-57.27299880981445,-53.45600128173828 -57.16999816894531,-53.55099868774414 -56.97999954223633,-53.715999603271484 C-53.641998291015625,-56.61399841308594 -43.9370002746582,-58.645999908447266 -36.11399841308594,-52.99599838256836 C-27.201000213623047,-46.55799865722656 -20.243000030517578,-60.00299835205078 4.196000099182129,-50.922000885009766 C12.666999816894531,-47.775001525878906 23.340999603271484,-62.36600112915039 43.42399978637695,-52.88600158691406 C47.327999114990234,-51.0359992980957 60.09199905395508,-66.83599853515625 75.37999725341797,-52.736000061035156 C75.37999725341797,-52.736000061035156 75.39099884033203,-52.72600173950195 75.39099884033203,-52.72600173950195 C78.01100158691406,-48.59600067138672 77.87000274658203,-44.90599822998047 74.44499969482422,-41.316001892089844z"></path><path stroke-linecap="round" stroke-linejoin="round" fill-opacity="0" stroke="rgb(234,143,53)" stroke-opacity="1" stroke-width="8" d=" M74.44499969482422,-41.316001892089844 C72.93299865722656,-39.733001708984375 68.12799835205078,-35.369998931884766 53.60900115966797,-35.61199951171875 C47.904998779296875,-35.707000732421875 41.387001037597656,-36.823001861572266 34.37099838256836,-36.566001892089844 C28.3439998626709,-36.345001220703125 25.92099952697754,-33.10900115966797 15.472999572753906,-33.10900115966797 C6.48199987411499,-33.10900115966797 2.378000020980835,-36.012001037597656 -4.099999904632568,-36.06999969482422 C-9.96500015258789,-36.12200164794922 -14.317000389099121,-34.46799850463867 -21.20599937438965,-33.40299987792969 C-31.48900032043457,-31.812999725341797 -34.93199920654297,-36.94200134277344 -40.70100021362305,-37.36399841308594 C-44.44300079345703,-37.63800048828125 -47.803001403808594,-36.35300064086914 -50.73899841308594,-36.19300079345703 C-59.387001037597656,-35.72100067138672 -61.275001525878906,-40.10200119018555 -62.06800079345703,-41.316001892089844 C-64.6449966430664,-45.25600051879883 -61.720001220703125,-49.32600021362305 -57.27299880981445,-53.45600128173828 C-57.27299880981445,-53.45600128173828 -57.16999816894531,-53.55099868774414 -56.97999954223633,-53.715999603271484 C-53.641998291015625,-56.61399841308594 -43.9370002746582,-58.645999908447266 -36.11399841308594,-52.99599838256836 C-27.201000213623047,-46.55799865722656 -20.243000030517578,-60.00299835205078 4.196000099182129,-50.922000885009766 C12.666999816894531,-47.775001525878906 23.340999603271484,-62.36600112915039 43.42399978637695,-52.88600158691406 C47.327999114990234,-51.0359992980957 60.09199905395508,-66.83599853515625 75.37999725341797,-52.736000061035156 C75.37999725341797,-52.736000061035156 75.39099884033203,-52.72600173950195 75.39099884033203,-52.72600173950195 C78.01100158691406,-48.59600067138672 77.87000274658203,-44.90599822998047 74.44499969482422,-41.316001892089844z"></path></g><g opacity="1" transform="matrix(1,0,0,1,0,0)"><path stroke-linecap="round" stroke-linejoin="round" fill-opacity="0" stroke="rgb(209,112,33)" stroke-opacity="1" stroke-width="8" d=" M77.18900299072266,-46.882999420166016 C77.06900024414062,-44.972999572753906 76.177001953125,-43.13199996948242 74.44499969482422,-41.316001892089844 C74.44499969482422,-41.316001892089844 74.44499969482422,-41.316001892089844 74.44499969482422,-41.316001892089844 C72.93299865722656,-39.733001708984375 68.12799835205078,-35.369998931884766 53.60900115966797,-35.61199951171875 C47.904998779296875,-35.707000732421875 41.387001037597656,-36.823001861572266 34.37099838256836,-36.566001892089844 C28.3439998626709,-36.345001220703125 25.92099952697754,-33.10900115966797 15.472999572753906,-33.10900115966797 C6.48199987411499,-33.10900115966797 2.378000020980835,-36.012001037597656 -4.099999904632568,-36.06999969482422 C-9.96500015258789,-36.12200164794922 -14.317000389099121,-34.46799850463867 -21.20599937438965,-33.40299987792969 C-31.48900032043457,-31.812999725341797 -34.93199920654297,-36.94200134277344 -40.70100021362305,-37.36399841308594 C-44.44300079345703,-37.63800048828125 -47.803001403808594,-36.35300064086914 -50.73899841308594,-36.19300079345703 C-59.387001037597656,-35.72100067138672 -61.275001525878906,-40.10200119018555 -62.06800079345703,-41.316001892089844 C-62.66400146484375,-42.22700119018555 -62.965999603271484,-43.14500045776367 -63.02199935913086,-44.069000244140625"></path></g></g><g style="display: block;" transform="matrix(1,0,0,1,348.9999694824219,263.4990234375)" opacity="1"><g opacity="1" transform="matrix(1,0,0,1,0,0)"><g opacity="1" transform="matrix(1,0,0,1,0,0)"><path fill="rgb(239,201,120)" fill-opacity="1" d=" M-135.12600708007812,-140.302001953125 C-129.90899658203125,-125.0459976196289 -113.31199645996094,-116.90899658203125 -98.05599975585938,-122.1259994506836 C-82.80000305175781,-127.34300231933594 -74.66300201416016,-143.93899536132812 -79.87999725341797,-159.19500732421875 C-85.09700012207031,-174.4510040283203 -101.69400024414062,-182.58799743652344 -116.94999694824219,-177.37100219726562 C-132.20599365234375,-172.1540069580078 -140.34300231933594,-155.55799865722656 -135.12600708007812,-140.302001953125z"></path></g><g opacity="1" transform="matrix(1,0,0,1,0,0)"><path fill="rgb(249,240,204)" fill-opacity="1" d=" M-135.28900146484375,-152.04800415039062 C-132.45599365234375,-141.53900146484375 -115.73999786376953,-136.9770050048828 -102.06800079345703,-140.33799743652344 C-88.39600372314453,-143.69900512695312 -79.10399627685547,-155.39199829101562 -83.77999877929688,-165.22000122070312 C-88.45600128173828,-175.04800415039062 -101.9540023803711,-181.16600036621094 -115.625,-177.80499267578125 C-129.2969970703125,-174.44400024414062 -137.5,-160.25 -135.28900146484375,-152.04800415039062z"></path></g></g></g><g style="display: block;" transform="matrix(1,0,0,1,256.0009765625,256)" opacity="1"><g opacity="1" transform="matrix(1,0,0,1,0,0)"><path fill="rgb(239,201,120)" fill-opacity="1" d=" M-44.41699981689453,-128.45799255371094 C-35.7400016784668,-110.90599822998047 -8.13599967956543,-101.54299926757812 17.23699951171875,-107.5459976196289 C42.61000061035156,-113.54900360107422 56.14400100708008,-132.64300537109375 47.46699905395508,-150.19500732421875 C38.790000915527344,-167.7469940185547 11.187000274658203,-177.11000061035156 -14.185999870300293,-171.10699462890625 C-39.558998107910156,-165.10400390625 -53.09400177001953,-146.00999450683594 -44.41699981689453,-128.45799255371094z"></path></g></g><g style="display: block;" transform="matrix(1,0,0,1,256,255.99899291992188)" opacity="1"><g opacity="1" transform="matrix(1,0,0,1,0,0)"><g opacity="1" transform="matrix(1,0,0,1,0,0)"><path fill="rgb(246,175,74)" fill-opacity="1" d=" M-165.52999877929688,-99.5 C-158.07699584960938,-79.90299987792969 -134.37100219726562,-69.44999694824219 -112.5790023803711,-76.1520004272461 C-90.78800201416016,-82.85399627685547 -79.16400146484375,-104.17400360107422 -86.61599731445312,-123.77100372314453 C-94.06900024414062,-143.3679962158203 -117.7760009765625,-153.8209991455078 -139.56700134277344,-147.11900329589844 C-161.35899353027344,-140.41700744628906 -172.98300170898438,-119.09700012207031 -165.52999877929688,-99.5z"></path></g><g opacity="1" transform="matrix(1,0,0,1,0,0)"><path fill="rgb(249,240,204)" fill-opacity="1" d=" M-157.8979949951172,-114.26599884033203 C-151.9969940185547,-100.4990005493164 -133.2259979248047,-93.15599822998047 -115.97200012207031,-97.86399841308594 C-98.71800231933594,-102.5719985961914 -89.51399993896484,-117.55000305175781 -95.41500091552734,-131.31700134277344 C-101.31600189208984,-145.08399963378906 -120.08699798583984,-152.427001953125 -137.34100341796875,-147.718994140625 C-154.59500122070312,-143.01100158691406 -163.7989959716797,-128.0330047607422 -157.8979949951172,-114.26599884033203z"></path></g></g></g><g style="display: block;" transform="matrix(1,0,0,1,256,255.9990234375)" opacity="1"><g opacity="1" transform="matrix(1,0,0,1,0,0)"><g opacity="1" transform="matrix(1,0,0,1,0,0)"><path fill="rgb(239,201,120)" fill-opacity="1" d=" M-135.12600708007812,-140.302001953125 C-129.90899658203125,-125.0459976196289 -113.31199645996094,-116.90899658203125 -98.05599975585938,-122.1259994506836 C-82.80000305175781,-127.34300231933594 -74.66300201416016,-143.93899536132812 -79.87999725341797,-159.19500732421875 C-85.09700012207031,-174.4510040283203 -101.69400024414062,-182.58799743652344 -116.94999694824219,-177.37100219726562 C-132.20599365234375,-172.1540069580078 -140.34300231933594,-155.55799865722656 -135.12600708007812,-140.302001953125z"></path></g><g opacity="1" transform="matrix(1,0,0,1,0,0)"><path fill="rgb(249,240,204)" fill-opacity="1" d=" M-135.28900146484375,-152.04800415039062 C-132.45599365234375,-141.53900146484375 -115.73999786376953,-136.9770050048828 -102.06800079345703,-140.33799743652344 C-88.39600372314453,-143.69900512695312 -79.10399627685547,-155.39199829101562 -83.77999877929688,-165.22000122070312 C-88.45600128173828,-175.04800415039062 -101.9540023803711,-181.16600036621094 -115.625,-177.80499267578125 C-129.2969970703125,-174.44400024414062 -137.5,-160.25 -135.28900146484375,-152.04800415039062z"></path></g></g></g><g style="display: block;" transform="matrix(1,0,0,1,256,256)" opacity="1"><g opacity="1" transform="matrix(1,0,0,1,0,0)"><path fill="rgb(249,240,204)" fill-opacity="1" d=" M-31.910999298095703,-185.8260040283203 C-25.461999893188477,-174.86599731445312 -4.945000171661377,-169.02000427246094 13.913000106811523,-172.76800537109375 C32.770999908447266,-176.51600646972656 42.83000183105469,-188.44000244140625 36.38100051879883,-199.39999389648438 C29.93199920654297,-210.36000061035156 9.414999961853027,-216.20599365234375 -9.442999839782715,-212.45799255371094 C-28.301000595092773,-208.7100067138672 -38.36000061035156,-196.78599548339844 -31.910999298095703,-185.8260040283203z"></path></g></g><g style="display: block;" transform="matrix(1,0,0,1,256,256)" opacity="1"><g opacity="1" transform="matrix(1,0,0,1,0,0)"><g opacity="1" transform="matrix(1,0,0,1,0,0)"><path fill="rgb(239,201,120)" fill-opacity="1" d=" M-100.16600036621094,-154.15199279785156 C-91.12699890136719,-136.6020050048828 -62.37300109863281,-127.24099731445312 -35.94200134277344,-133.2429962158203 C-9.51099967956543,-139.2449951171875 4.586999893188477,-158.33700561523438 -4.452000141143799,-175.88699340820312 C-13.491000175476074,-193.43699645996094 -42.244998931884766,-202.79800415039062 -68.6760025024414,-196.79600524902344 C-95.10700225830078,-190.79400634765625 -109.20500183105469,-171.70199584960938 -100.16600036621094,-154.15199279785156z"></path></g><g opacity="1" transform="matrix(1,0,0,1,0,0)"><path fill="rgb(249,240,204)" fill-opacity="1" d=" M-92.50800323486328,-165.30999755859375 C-84.88400268554688,-151.8209991455078 -60.62900161743164,-144.62600708007812 -38.33399963378906,-149.23899841308594 C-16.040000915527344,-153.8520050048828 -4.146999835968018,-168.5260009765625 -11.772000312805176,-182.01499938964844 C-19.395999908447266,-195.50399780273438 -43.6510009765625,-202.69900512695312 -65.94499969482422,-198.08599853515625 C-88.23899841308594,-193.47300720214844 -100.13300323486328,-178.7989959716797 -92.50800323486328,-165.30999755859375z"></path></g></g></g><g style="display: block;" transform="matrix(1,0,0,1,255.99998474121094,255.9990234375)" opacity="1"><g opacity="1" transform="matrix(1,0,0,1,0,0)"><g opacity="1" transform="matrix(1,0,0,1,0,0)"><path fill="rgb(246,175,74)" fill-opacity="1" d=" M-103.5739974975586,-99.69300079345703 C-96.13700103759766,-83.6500015258789 -72.48100280761719,-75.09400177001953 -50.736000061035156,-80.58000183105469 C-28.990999221801758,-86.06600189208984 -17.392000198364258,-103.51799774169922 -24.82900047302246,-119.56099700927734 C-32.26599884033203,-135.60400390625 -55.92100143432617,-144.16099548339844 -77.66600036621094,-138.6750030517578 C-99.41100311279297,-133.18899536132812 -111.01000213623047,-115.73500061035156 -103.5739974975586,-99.69300079345703z"></path></g><g opacity="1" transform="matrix(1,0,0,1,0,0)"><path fill="rgb(249,240,204)" fill-opacity="1" d=" M-98.05799865722656,-114.23699951171875 C-91.66300201416016,-104.0479965209961 -71.32099914550781,-98.61299896240234 -52.62200164794922,-102.0979995727539 C-33.92300033569336,-105.58200073242188 -23.948999404907227,-116.66699981689453 -30.3439998626709,-126.85600280761719 C-36.73899841308594,-137.0449981689453 -57.08100128173828,-142.4810028076172 -75.77999877929688,-138.99600219726562 C-94.47899627685547,-135.51199340820312 -104.4530029296875,-124.4260025024414 -98.05799865722656,-114.23699951171875z"></path></g></g></g><g style="display: block;" transform="matrix(1,0,0,1,256,256)" opacity="1"><g opacity="1" transform="matrix(1,0,0,1,0,0)"><g opacity="1" transform="matrix(1,0,0,1,0,0)"><path fill="rgb(246,175,74)" fill-opacity="1" d=" M23.094999313354492,-109.6780014038086 C31.77199935913086,-92.1259994506836 59.375999450683594,-82.76300048828125 84.7490005493164,-88.76599884033203 C110.12200164794922,-94.76899719238281 123.65699768066406,-113.86399841308594 114.97899627685547,-131.41600036621094 C106.302001953125,-148.96800231933594 78.6989974975586,-158.3300018310547 53.32600021362305,-152.32699584960938 C27.952999114990234,-146.32400512695312 14.418000221252441,-127.2300033569336 23.094999313354492,-109.6780014038086z"></path></g><g opacity="1" transform="matrix(1,0,0,1,0,0)"><path fill="rgb(249,240,204)" fill-opacity="1" d=" M27.589000701904297,-123.64299774169922 C34.78499984741211,-110.69400024414062 57.676998138427734,-103.78700256347656 78.72000122070312,-108.21499633789062 C99.76200103759766,-112.64299774169922 110.98699951171875,-126.73100280761719 103.79100036621094,-139.67999267578125 C96.59500122070312,-152.62899780273438 73.7020034790039,-159.53500366210938 52.65999984741211,-155.10699462890625 C31.617000579833984,-150.6790008544922 20.39299964904785,-136.5919952392578 27.589000701904297,-123.64299774169922z"></path></g></g></g><g style="display: block;" transform="matrix(1,0,0,1,256,256)" opacity="1"><g opacity="1" transform="matrix(1,0,0,1,0,0)"><g opacity="1" transform="matrix(1,0,0,1,0,0)"><path fill="rgb(246,175,74)" fill-opacity="1" d=" M89.84100341796875,-107.4739990234375 C97.86900329589844,-86.36299896240234 123.40799713134766,-75.10199737548828 146.88299560546875,-82.3219985961914 C170.35800170898438,-89.54199981689453 182.8800048828125,-112.50900268554688 174.8520050048828,-133.6199951171875 C166.82400512695312,-154.7310028076172 141.28500366210938,-165.99200439453125 117.80999755859375,-158.77200317382812 C94.33499908447266,-151.552001953125 81.81300354003906,-128.5850067138672 89.84100341796875,-107.4739990234375z"></path></g><g opacity="1" transform="matrix(1,0,0,1,0,0)"><path fill="rgb(249,240,204)" fill-opacity="1" d=" M87.93900299072266,-121.85099792480469 C91.22899627685547,-106.36100006103516 119.73300170898438,-100.5510025024414 141.968994140625,-105.302001953125 C164.2050018310547,-110.052001953125 176.8159942626953,-128.16299438476562 169.21099853515625,-142.0540008544922 C161.6060028076172,-155.94500732421875 140.39700317382812,-164.2480010986328 117.68099975585938,-158.60400390625 C95.61399841308594,-153.1219940185547 85.14700317382812,-134.9969940185547 87.93900299072266,-121.85099792480469z"></path></g></g></g><g style="display: block;" transform="matrix(1,0,0,1,256.0009765625,255.99899291992188)" opacity="1"><g opacity="1" transform="matrix(1,0,0,1,0,0)"><g opacity="1" transform="matrix(1,0,0,1,0,0)"><path fill="rgb(246,175,74)" fill-opacity="1" d=" M-38.47800064086914,-102.35299682617188 C-30.49799919128418,-83.89299774169922 -5.11299991607666,-74.0469970703125 18.22100067138672,-80.36000061035156 C41.55400085449219,-86.6729965209961 54.000999450683594,-106.75499725341797 46.020999908447266,-125.21499633789062 C38.04100036621094,-143.6750030517578 12.656000137329102,-153.52200317382812 -10.677000045776367,-147.20899963378906 C-34.01100158691406,-140.89599609375 -46.45800018310547,-120.81300354003906 -38.47800064086914,-102.35299682617188z"></path></g><g opacity="1" transform="matrix(1,0,0,1,0,0)"><path fill="rgb(249,240,204)" fill-opacity="1" d=" M-34.4109992980957,-116.822998046875 C-27.200000762939453,-103.8239974975586 -4.263000011444092,-96.88999938964844 16.82200050354004,-101.33599853515625 C37.90700149536133,-105.78199768066406 49.15399932861328,-119.9229965209961 41.94300079345703,-132.9219970703125 C34.731998443603516,-145.92100524902344 11.795000076293945,-152.8560028076172 -9.289999961853027,-148.41000366210938 C-30.375,-143.96499633789062 -41.62200164794922,-129.82200622558594 -34.4109992980957,-116.822998046875z"></path></g></g></g><g style="display: block;" transform="matrix(1,0,0,1,256,256)" opacity="1"><g opacity="1" transform="matrix(1,0,0,1,0,0)"><g opacity="1" transform="matrix(1,0,0,1,0,0)"><path fill="rgb(239,201,120)" fill-opacity="1" d=" M71.99500274658203,-152.66299438476562 C78.91000366210938,-138.39199829101562 100.90799713134766,-130.7779998779297 121.12799835205078,-135.65899658203125 C141.34800720214844,-140.5399932861328 152.13400268554688,-156.0659942626953 145.218994140625,-170.33700561523438 C138.3040008544922,-184.60899353027344 116.30599975585938,-192.2209930419922 96.08599853515625,-187.33999633789062 C75.86599731445312,-182.45899963378906 65.08000183105469,-166.9340057373047 71.99500274658203,-152.66299438476562z"></path></g><g opacity="1" transform="matrix(1,0,0,1,0,0)"><path fill="rgb(249,240,204)" fill-opacity="1" d=" M87.24199676513672,-162.56399536132812 C92.572998046875,-152.20199584960938 109.53299713134766,-146.6739959716797 125.12200164794922,-150.21800231933594 C140.71099853515625,-153.76199340820312 148.9010009765625,-162.66000366210938 143.57000732421875,-173.02200317382812 C138.23899841308594,-183.38400268554688 120.875,-190.25 105.81600189208984,-187.7429962158203 C90.0459976196289,-185.1179962158203 81.91100311279297,-172.92599487304688 87.24199676513672,-162.56399536132812z"></path></g></g></g><g style="display: block;" transform="matrix(1,0,0,1,256,256)" opacity="1"><g opacity="1" transform="matrix(1,0,0,1,0,0)"><path fill="rgb(239,201,120)" fill-opacity="1" d=" M9.029999732971191,-164.97300720214844 C17.33300018310547,-148.33799743652344 43.74700164794922,-139.46400451660156 68.0270004272461,-145.1529998779297 C92.30699920654297,-150.8419952392578 105.25800323486328,-168.94000244140625 96.95500183105469,-185.5749969482422 C88.6520004272461,-202.2100067138672 62.23699951171875,-211.08399963378906 37.95800018310547,-205.39500427246094 C13.678000450134277,-199.70599365234375 0.7269999980926514,-181.60800170898438 9.029999732971191,-164.97300720214844z"></path></g></g><g style="display: block;" transform="matrix(1,0,0,1,256,256)" opacity="1"><g opacity="1" transform="matrix(1,0,0,1,0,0)"><g opacity="1" transform="matrix(1,0,0,1,0,0)"><path fill="rgb(249,240,204)" fill-opacity="1" d=" M12.682000160217285,-174.63499450683594 C20.19099998474121,-161.81399536132812 44.07699966430664,-154.97500610351562 66.03399658203125,-159.36000061035156 C87.99099731445312,-163.74400329589844 99.7030029296875,-177.69200134277344 92.19400024414062,-190.51300048828125 C84.68499755859375,-203.33399963378906 60.79800033569336,-210.17300415039062 38.840999603271484,-205.78799438476562 C16.884000778198242,-201.4040069580078 5.172999858856201,-187.45599365234375 12.682000160217285,-174.63499450683594z"></path></g><g opacity="1" transform="matrix(1,0,0,1,0,0)"><g opacity="1" transform="matrix(1,0,0,1,0,0)"><path stroke-linecap="round" stroke-linejoin="round" fill-opacity="0" stroke="rgb(255,255,255)" stroke-opacity="1" stroke-width="6" d=" M70.54299926757812,-192.36199951171875 C71.18199920654297,-192.19200134277344 71.83300018310547,-192.01199340820312 72.49500274658203,-191.82400512695312"></path></g><g opacity="1" transform="matrix(1,0,0,1,0,0)"><path stroke-linecap="round" stroke-linejoin="round" fill-opacity="0" stroke="rgb(255,255,255)" stroke-opacity="1" stroke-width="6" d=" M53.09299850463867,-195.58200073242188 C53.09299850463867,-195.58200073242188 55.8380012512207,-195.4029998779297 60.38600158691406,-194.60899353027344"></path></g></g></g></g><g style="display: block;" transform="matrix(1,0,0,1,256,256)" opacity="1"><g opacity="1" transform="matrix(1,0,0,1,0,0)"><path stroke-linecap="round" stroke-linejoin="round" fill-opacity="0" stroke="rgb(225,170,84)" stroke-opacity="1" stroke-width="8" d=" M174.8520050048828,-133.6199951171875 C170.20399475097656,-145.8419952392578 159.6820068359375,-154.7519989013672 147.09500122070312,-158.6959991455078 C147.65699768066406,-162.51100158691406 147.09300231933594,-166.468994140625 145.218994140625,-170.33700561523438 C138.3040008544922,-184.60800170898438 116.30599975585938,-192.2220001220703 96.08599853515625,-187.34100341796875 C96.05500030517578,-187.33399963378906 96.0260009765625,-187.32400512695312 95.99500274658203,-187.31700134277344 C86.7699966430664,-202.82000732421875 61.374000549316406,-210.8820037841797 37.95800018310547,-205.39500427246094 C36.53900146484375,-205.06199645996094 35.1619987487793,-204.6840057373047 33.821998596191406,-204.2689971923828 C23.565000534057617,-213.20799255371094 5.826000213623047,-217.19000244140625 -10.767000198364258,-213.302001953125 C-22.715999603271484,-210.5019989013672 -31.483999252319336,-204.2259979248047 -35.505001068115234,-196.68699645996094 C-45.862998962402344,-199.11500549316406 -57.47600173950195,-199.33900451660156 -68.6760025024414,-196.79600524902344 C-83.06800079345703,-193.5279998779297 -93.78900146484375,-186.37600708007812 -99.1240005493164,-177.70799255371094 C-104.76000213623047,-179.40199279785156 -110.95700073242188,-179.4199981689453 -116.94999694824219,-177.37100219726562 C-129.68899536132812,-173.01400756835938 -137.45799255371094,-160.72300720214844 -136.63900756835938,-147.9029998779297 C-137.6179962158203,-147.67100524902344 -138.593994140625,-147.41799926757812 -139.56700134277344,-147.11900329589844 C-161.35899353027344,-140.41700744628906 -172.98300170898438,-119.09700012207031 -165.52999877929688,-99.5 C-158.07699584960938,-79.90299987792969 -134.37100219726562,-69.44999694824219 -112.5790023803711,-76.1520004272461 C-104.8949966430664,-78.51499938964844 -98.48300170898438,-82.70099639892578 -93.71800231933594,-87.98300170898438 C-82.84400177001953,-79.92400360107422 -66.302001953125,-76.65299987792969 -50.736000061035156,-80.58000183105469 C-42.96799850463867,-82.54000091552734 -36.505001068115234,-86.03199768066406 -31.73200035095215,-90.43599700927734 C-20.398000717163086,-80.30699920654297 -0.43700000643730164,-75.74800109863281 18.22100067138672,-80.09700012207031 C28.350000381469727,-82.45800018310547 36.42300033569336,-87.05500030517578 41.66899871826172,-92.802001953125 C53.87200164794922,-87.0510025024414 69.7020034790039,-85.20600128173828 84.7490005493164,-88.76599884033203 C89.875,-89.97899627685547 94.50800323486328,-91.73300170898438 98.58200073242188,-93.89399719238281 C110.23200225830078,-81.96800231933594 129.1439971923828,-76.86599731445312 146.88299560546875,-82.3219985961914 C170.35800170898438,-89.54199981689453 182.8800048828125,-112.50900268554688 174.8520050048828,-133.6199951171875z"></path></g><g opacity="1" transform="matrix(1,0,0,1,0,0)"><path stroke-linecap="round" stroke-linejoin="round" fill-opacity="0" stroke="rgb(201,118,7)" stroke-opacity="1" stroke-width="8" d=" M-166.05099487304688,-122.31300354003906 C-168.44200134277344,-115.09700012207031 -168.4459991455078,-107.16699981689453 -165.52999877929688,-99.5 C-158.07699584960938,-79.90299987792969 -134.37100219726562,-69.44999694824219 -112.5790023803711,-76.1520004272461 C-104.8949966430664,-78.51499938964844 -98.48300170898438,-82.70099639892578 -93.71800231933594,-87.98300170898438 C-82.84400177001953,-79.92400360107422 -66.302001953125,-76.65299987792969 -50.736000061035156,-80.58000183105469 C-42.96799850463867,-82.54000091552734 -36.505001068115234,-86.03199768066406 -31.73200035095215,-90.43599700927734 C-20.398000717163086,-80.30699920654297 -0.43700000643730164,-75.74800109863281 18.22100067138672,-80.09700012207031 C28.350000381469727,-82.45800018310547 36.42300033569336,-87.05500030517578 41.66899871826172,-92.802001953125 C53.87200164794922,-87.0510025024414 69.7020034790039,-85.20600128173828 84.7490005493164,-88.76599884033203 C89.875,-89.97899627685547 94.50800323486328,-91.73300170898438 98.58200073242188,-93.89399719238281 C110.23200225830078,-81.96800231933594 129.1439971923828,-76.86599731445312 146.88299560546875,-82.3219985961914 C168.18699645996094,-88.8740005493164 180.47000122070312,-108.3949966430664 176.55999755859375,-127.72799682617188"></path></g></g><g style="display: none;"><g><path></path><path stroke-linecap="butt" stroke-linejoin="miter" fill-opacity="0" stroke-miterlimit="4"></path></g></g><g style="display: none;"><g><path></path><path stroke-linecap="butt" stroke-linejoin="miter" fill-opacity="0" stroke-miterlimit="4"></path></g></g><g style="display: none;"><g><path></path><path stroke-linecap="butt" stroke-linejoin="miter" fill-opacity="0" stroke-miterlimit="4"></path></g></g><g style="display: block;" transform="matrix(1,0,0,1,256,256)" opacity="1"><g opacity="1" transform="matrix(1,0,0,1,0,0)"><path fill="rgb(253,207,145)" fill-opacity="1" d=" M-180.10000610351562,4.281000137329102 C-180.10000610351562,4.281000137329102 -183.7779998779297,-19.59600067138672 -175.0260009765625,-15.220000267028809 C-161.6219940185547,-8.517999649047852 -167.82899475097656,-27.160999298095703 -165.45799255371094,-37.10599899291992 C-162.4759979248047,-49.61399841308594 -148.552001953125,-19.766000747680664 -132.65699768066406,-16.854000091552734 C-113.06600189208984,-13.263999938964844 -114.36699676513672,-27.59600067138672 -103.64800262451172,-23.417999267578125 C-92.92900085449219,-19.239999771118164 -88.99199676513672,-42.275001525878906 -76.93000030517578,-37.7869987487793 C-66.68599700927734,-33.974998474121094 -58.729000091552734,-8.0649995803833 -46.54600143432617,-6.340000152587891 C-37.49800109863281,-5.059000015258789 -33.22100067138672,-24.246999740600586 -15.222000122070312,-6.874000072479248 C-7.811999797821045,0.27799999713897705 -3.4200000762939453,-20.229999542236328 8.954000473022461,-15.218999862670898 C15.61400032043457,-12.522000312805176 23.8799991607666,-9.567000389099121 32.16699981689453,-14.706000328063965 C45.154998779296875,-22.76099967956543 47.987998962402344,-19.184999465942383 61.426998138427734,-17.238000869750977 C74.54000091552734,-15.33899974822998 84.91600036621094,-56.67599868774414 102.5790023803711,-54.525001525878906 C109.89900207519531,-53.63399887084961 105.85399627685547,-37.207000732421875 112.45899963378906,-33.724998474121094 C119.78199768066406,-29.86400032043457 125.7040023803711,-39.724998474121094 133.66400146484375,-27.93199920654297 C141.62399291992188,-16.138999938964844 149.83299255371094,-28.86199951171875 157.71400451660156,-23.93600082397461 C162.9510040283203,-20.663000106811523 164.9149932861328,-19.43400001525879 177.38900756835938,-30.17799949645996 C185.5500030517578,-37.207000732421875 190.38999938964844,-15.890999794006348 184.2010040283203,-4.492000102996826 C179.06500244140625,4.9679999351501465 133.03700256347656,40.17599868774414 4.355000019073486,48.71699905395508 C-124.3270034790039,57.257999420166016 -170.65899658203125,82.7249984741211 -180.10000610351562,4.281000137329102z"></path><path stroke-linecap="round" stroke-linejoin="round" fill-opacity="0" stroke="rgb(234,143,53)" stroke-opacity="1" stroke-width="8" d=" M-180.10000610351562,4.281000137329102 C-180.10000610351562,4.281000137329102 -183.7779998779297,-19.59600067138672 -175.0260009765625,-15.220000267028809 C-161.6219940185547,-8.517999649047852 -167.82899475097656,-27.160999298095703 -165.45799255371094,-37.10599899291992 C-162.4759979248047,-49.61399841308594 -148.552001953125,-19.766000747680664 -132.65699768066406,-16.854000091552734 C-113.06600189208984,-13.263999938964844 -114.36699676513672,-27.59600067138672 -103.64800262451172,-23.417999267578125 C-92.92900085449219,-19.239999771118164 -88.99199676513672,-42.275001525878906 -76.93000030517578,-37.7869987487793 C-66.68599700927734,-33.974998474121094 -58.729000091552734,-8.0649995803833 -46.54600143432617,-6.340000152587891 C-37.49800109863281,-5.059000015258789 -33.22100067138672,-24.246999740600586 -15.222000122070312,-6.874000072479248 C-7.811999797821045,0.27799999713897705 -3.4200000762939453,-20.229999542236328 8.954000473022461,-15.218999862670898 C15.61400032043457,-12.522000312805176 23.8799991607666,-9.567000389099121 32.16699981689453,-14.706000328063965 C45.154998779296875,-22.76099967956543 47.987998962402344,-19.184999465942383 61.426998138427734,-17.238000869750977 C74.54000091552734,-15.33899974822998 84.91600036621094,-56.67599868774414 102.5790023803711,-54.525001525878906 C109.89900207519531,-53.63399887084961 105.85399627685547,-37.207000732421875 112.45899963378906,-33.724998474121094 C119.78199768066406,-29.86400032043457 125.7040023803711,-39.724998474121094 133.66400146484375,-27.93199920654297 C141.62399291992188,-16.138999938964844 149.83299255371094,-28.86199951171875 157.71400451660156,-23.93600082397461 C162.9510040283203,-20.663000106811523 164.9149932861328,-19.43400001525879 177.38900756835938,-30.17799949645996 C185.5500030517578,-37.207000732421875 190.38999938964844,-15.890999794006348 184.2010040283203,-4.492000102996826 C179.06500244140625,4.9679999351501465 133.03700256347656,40.17599868774414 4.355000019073486,48.71699905395508 C-124.3270034790039,57.257999420166016 -170.65899658203125,82.7249984741211 -180.10000610351562,4.281000137329102z"></path></g></g><g style="display: block;" transform="matrix(1,0,0,1,256,256)" opacity="1"><g opacity="1" transform="matrix(1,0,0,1,0,0)"><path fill="url(#__lottie_element_22910)" fill-opacity="1" d=" M-182.42799377441406,11.527000427246094 C-182.42799377441406,11.527000427246094 -180.86300659179688,-5.2230000495910645 -168.23599243164062,-2.4210000038146973 C-153.6060028076172,0.824999988079071 -156.71600341796875,-4.198999881744385 -157.04100036621094,-12.190999984741211 C-157.56300354003906,-25.038999557495117 -149.552001953125,-1.2039999961853027 -133.65699768066406,1.7079999446868896 C-114.06600189208984,5.297999858856201 -113.36699676513672,-9.034000396728516 -102.64800262451172,-4.855999946594238 C-91.92900085449219,-0.6779999732971191 -87.18699645996094,-22.534000396728516 -79.91100311279297,-18.424999237060547 C-74.55899810791016,-15.402999877929688 -67.7699966430664,7.910999774932861 -46.54600143432617,10.222000122070312 C-37.46099853515625,11.211000442504883 -29.94499969482422,-0.164000004529953 -21.416000366210938,4.281000137329102 C-2.805000066757202,13.979999542236328 -2.3399999141693115,-3.9590001106262207 9.164999961853027,2.812000036239624 C33.555999755859375,17.16699981689453 38.49100112915039,-0.7609999775886536 47.07699966430664,0.6740000247955322 C57.76100158691406,2.4600000381469727 65.09400177001953,2.4600000381469727 72.61599731445312,-1.8389999866485596 C84.11900329589844,-8.413999557495117 88.93199920654297,-25.83799934387207 96.56900024414062,-29.077999114990234 C103.35700225830078,-31.95800018310547 98.56900024414062,-23.731000900268555 107.98999786376953,-19.41900062561035 C115.51799774169922,-15.973999977111816 117.73799896240234,-27.06800079345703 128.74600219726562,-10.842000007629395 C136.73399353027344,0.9319999814033508 149.83299255371094,-14.300000190734863 157.71400451660156,-9.37399959564209 C162.9510040283203,-6.10099983215332 166.15499877929688,-3.306999921798706 174.1020050048828,-11.769000053405762 C181.57200622558594,-19.722999572753906 194.30599975585938,-8.041999816894531 190.82200622558594,2.1429998874664307 C187.33799743652344,12.32800006866455 133.03700256347656,54.737998962402344 4.355000019073486,63.27899932861328 C-124.3270034790039,71.81999969482422 -172.98599243164062,89.97100067138672 -182.42799377441406,11.527000427246094z"></path><path stroke-linecap="round" stroke-linejoin="round" fill-opacity="0" stroke="rgb(209,112,33)" stroke-opacity="1" stroke-width="8" d=" M-182.42799377441406,11.527000427246094 C-182.42799377441406,11.527000427246094 -180.86300659179688,-5.2230000495910645 -168.23599243164062,-2.4210000038146973 C-153.6060028076172,0.824999988079071 -156.71600341796875,-4.198999881744385 -157.04100036621094,-12.190999984741211 C-157.56300354003906,-25.038999557495117 -149.552001953125,-1.2039999961853027 -133.65699768066406,1.7079999446868896 C-114.06600189208984,5.297999858856201 -113.36699676513672,-9.034000396728516 -102.64800262451172,-4.855999946594238 C-91.92900085449219,-0.6779999732971191 -87.18699645996094,-22.534000396728516 -79.91100311279297,-18.424999237060547 C-74.55899810791016,-15.402999877929688 -67.7699966430664,7.910999774932861 -46.54600143432617,10.222000122070312 C-37.46099853515625,11.211000442504883 -29.94499969482422,-0.164000004529953 -21.416000366210938,4.281000137329102 C-2.805000066757202,13.979999542236328 -2.3399999141693115,-3.9590001106262207 9.164999961853027,2.812000036239624 C33.555999755859375,17.16699981689453 38.49100112915039,-0.7609999775886536 47.07699966430664,0.6740000247955322 C57.76100158691406,2.4600000381469727 65.09400177001953,2.4600000381469727 72.61599731445312,-1.8389999866485596 C84.11900329589844,-8.413999557495117 88.93199920654297,-25.83799934387207 96.56900024414062,-29.077999114990234 C103.35700225830078,-31.95800018310547 98.56900024414062,-23.731000900268555 107.98999786376953,-19.41900062561035 C115.51799774169922,-15.973999977111816 117.73799896240234,-27.06800079345703 128.74600219726562,-10.842000007629395 C136.73399353027344,0.9319999814033508 149.83299255371094,-14.300000190734863 157.71400451660156,-9.37399959564209 C162.9510040283203,-6.10099983215332 166.15499877929688,-3.306999921798706 174.1020050048828,-11.769000053405762 C181.57200622558594,-19.722999572753906 194.30599975585938,-8.041999816894531 190.82200622558594,2.1429998874664307 C187.33799743652344,12.32800006866455 133.03700256347656,54.737998962402344 4.355000019073486,63.27899932861328 C-124.3270034790039,71.81999969482422 -172.98599243164062,89.97100067138672 -182.42799377441406,11.527000427246094z"></path></g></g><g style="display: none;"><g><path></path></g><g><path></path><path stroke-linecap="round" stroke-linejoin="round" fill-opacity="0"></path></g><g><path></path></g><g><path></path></g><g><g><path stroke-linecap="round" stroke-linejoin="round" fill-opacity="0"></path></g><g><path stroke-linecap="round" stroke-linejoin="round" fill-opacity="0"></path></g></g></g><g style="display: none;"><g><path stroke-linecap="round" stroke-linejoin="round" fill-opacity="0"></path></g></g><g style="display: block;" transform="matrix(1,0,0,1,256,256)" opacity="1"><g opacity="0.1" transform="matrix(1,0,0,1,0,0)"><path fill="rgb(0,0,0)" fill-opacity="1" d=" M200.3509979248047,22.766000747680664 C200.3509979248047,131.02699279785156 112.58799743652344,218.7899932861328 4.327000141143799,218.7899932861328 C-103.93399810791016,218.7899932861328 -191.697998046875,131.02699279785156 -191.697998046875,22.766000747680664 C-191.697998046875,16.902999877929688 -191.69900512695312,9.901000022888184 -190.82899475097656,5.085000038146973 C-190.5989990234375,3.808000087738037 -189.4219970703125,2.944000005722046 -188.1840057373047,3.3329999446868896 C-188.1840057373047,3.3329999446868896 -188.1840057373047,3.3329999446868896 -188.1840057373047,3.3329999446868896 C-157.5229949951172,8.791999816894531 -168.12399291992188,91.8489990234375 -78.75199890136719,91.8489990234375 C-5.39900016784668,91.8489990234375 119.79100036621094,33.00400161743164 172.66200256347656,3.740999937057495 C172.66200256347656,3.740999937057495 190.7449951171875,-10.913000106811523 190.7449951171875,-10.913000106811523 C194.23599243164062,-13.373000144958496 196.86900329589844,-11.536999702453613 197.41600036621094,-10.069999694824219 C198.8459930419922,-6.23799991607666 200.3509979248047,10.798999786376953 200.3509979248047,22.766000747680664z"></path></g><g opacity="1" transform="matrix(1,0,0,1,0,0)"><path fill="rgb(255,173,0)" fill-opacity="1" d=" M193.20599365234375,9.52400016784668 C193.20599365234375,113.84400177001953 108.63600158691406,198.4040069580078 4.326000213623047,198.4040069580078 C-99.98400115966797,198.4040069580078 -184.54400634765625,113.84400177001953 -184.54400634765625,9.52400016784668 C-184.54400634765625,9.053999900817871 -179.08399963378906,9.434000015258789 -172.50399780273438,11.984000205993652 C-172.50399780273438,11.984000205993652 -164.2209930419922,26.445999145507812 -159.6750030517578,44.86399841308594 C-154.83200073242188,64.48300170898438 178.1300048828125,35.58100128173828 172.73599243164062,8.473999977111816 C172.73599243164062,8.473999977111816 192.44500732421875,-7.455999851226807 192.44500732421875,-7.455999851226807 C192.9550018310547,-1.8559999465942383 193.20599365234375,3.803999900817871 193.20599365234375,9.52400016784668z"></path></g><g opacity="1" transform="matrix(1,0,0,1,0,0)"><path fill="rgb(255,207,0)" fill-opacity="1" d=" M172.73599243164062,8.473999977111816 C171.2760009765625,103.50399780273438 94.72599792480469,179.38400268554688 1.746000051498413,177.96400451660156 C-77.24400329589844,176.75399780273438 -142.6739959716797,120.13400268554688 -159.6739959716797,44.86399841308594 C-158.23399353027344,47.38399887084961 -156.00399780273438,5.093999862670898 -156.00399780273438,5.093999862670898 C-156.00399780273438,5.093999862670898 -141.51400756835938,5.894000053405762 -141.51400756835938,5.894000053405762 C-141.51400756835938,5.894000053405762 -123.6240005493164,24.714000701904297 -123.6240005493164,24.714000701904297 C-123.6240005493164,24.714000701904297 -112.65399932861328,22.763999938964844 -112.65399932861328,22.763999938964844 C-112.65399932861328,22.763999938964844 -106.80500030517578,29.214000701904297 -106.80500030517578,29.214000701904297 C-106.80500030517578,29.214000701904297 -76.2040023803711,-5.906000137329102 -76.2040023803711,-5.906000137329102 C-76.2040023803711,-5.906000137329102 -59.28499984741211,-5.906000137329102 -59.28499984741211,-5.906000137329102 C-59.28499984741211,-5.906000137329102 -48.00400161743164,8.204000473022461 -48.00400161743164,8.204000473022461 C-48.00400161743164,8.204000473022461 -38.683998107910156,9.52400016784668 -38.683998107910156,9.52400016784668 C-38.683998107910156,9.52400016784668 -28.013999938964844,31.253999710083008 -28.013999938964844,31.253999710083008 C-28.013999938964844,31.253999710083008 -17.694000244140625,25.233999252319336 -17.694000244140625,25.233999252319336 C-17.694000244140625,25.233999252319336 -0.49399998784065247,32.9739990234375 -0.49399998784065247,32.9739990234375 C-0.49399998784065247,32.9739990234375 10.515000343322754,17.52400016784668 10.515000343322754,17.52400016784668 C10.515000343322754,17.52400016784668 30.46500015258789,22.763999938964844 30.46500015258789,22.763999938964844 C30.46500015258789,22.763999938964844 77.08499908447266,-10.22599983215332 77.08499908447266,-10.22599983215332 C77.08499908447266,-10.22599983215332 89.65599822998047,-4.645999908447266 89.65599822998047,-4.645999908447266 C89.65599822998047,-4.645999908447266 101.35600280761719,-14.706000328063965 101.35600280761719,-14.706000328063965 C101.35600280761719,-14.706000328063965 118.14600372314453,1.5140000581741333 118.14600372314453,1.5140000581741333 C118.14600372314453,1.5140000581741333 130.406005859375,-10.736000061035156 130.406005859375,-10.736000061035156 C130.406005859375,-10.736000061035156 172.73599243164062,8.473999977111816 172.73599243164062,8.473999977111816z"></path></g><g opacity="1" transform="matrix(1,0,0,1,0,0)"><path stroke-linecap="round" stroke-linejoin="round" fill-opacity="0" stroke="rgb(255,118,42)" stroke-opacity="1" stroke-width="8" d=" M193.20599365234375,9.52400016784668 C193.20599365234375,113.84400177001953 108.63600158691406,198.4040069580078 4.326000213623047,198.4040069580078 C-99.98400115966797,198.4040069580078 -184.54400634765625,113.84400177001953 -184.54400634765625,9.52400016784668 C-184.54400634765625,9.053999900817871 -179.08399963378906,9.434000015258789 -172.50399780273438,11.984000205993652 C-172.50399780273438,11.984000205993652 -169.12399291992188,28.413999557495117 -159.6739959716797,44.86399841308594 C-158.23399353027344,47.38399887084961 -156.6439971923828,49.90399932861328 -154.9040069580078,52.36399841308594 C-154.9040069580078,52.36399841308594 -156.00399780273438,5.093999862670898 -156.00399780273438,5.093999862670898 C-156.00399780273438,5.093999862670898 -141.51400756835938,5.894000053405762 -141.51400756835938,5.894000053405762 C-141.51400756835938,5.894000053405762 -123.6240005493164,24.714000701904297 -123.6240005493164,24.714000701904297 C-123.6240005493164,24.714000701904297 -112.65399932861328,22.763999938964844 -112.65399932861328,22.763999938964844 C-112.65399932861328,22.763999938964844 -106.80500030517578,29.214000701904297 -106.80500030517578,29.214000701904297 C-106.80500030517578,29.214000701904297 -76.2040023803711,-5.906000137329102 -76.2040023803711,-5.906000137329102 C-76.2040023803711,-5.906000137329102 -59.28499984741211,-5.906000137329102 -59.28499984741211,-5.906000137329102 C-59.28499984741211,-5.906000137329102 -48.00400161743164,8.204000473022461 -48.00400161743164,8.204000473022461 C-48.00400161743164,8.204000473022461 -38.683998107910156,9.52400016784668 -38.683998107910156,9.52400016784668 C-38.683998107910156,9.52400016784668 -28.013999938964844,31.253999710083008 -28.013999938964844,31.253999710083008 C-28.013999938964844,31.253999710083008 -17.694000244140625,25.233999252319336 -17.694000244140625,25.233999252319336 C-17.694000244140625,25.233999252319336 -0.49399998784065247,32.9739990234375 -0.49399998784065247,32.9739990234375 C-0.49399998784065247,32.9739990234375 10.515999794006348,17.52400016784668 10.515999794006348,17.52400016784668 C10.515999794006348,17.52400016784668 30.46500015258789,22.763999938964844 30.46500015258789,22.763999938964844 C30.46500015258789,22.763999938964844 77.08599853515625,-10.22599983215332 77.08599853515625,-10.22599983215332 C77.08599853515625,-10.22599983215332 89.65599822998047,-4.645999908447266 89.65599822998047,-4.645999908447266 C89.65599822998047,-4.645999908447266 101.35600280761719,-14.706000328063965 101.35600280761719,-14.706000328063965 C101.35600280761719,-14.706000328063965 118.14600372314453,1.5140000581741333 118.14600372314453,1.5140000581741333 C118.14600372314453,1.5140000581741333 130.406005859375,-10.736000061035156 130.406005859375,-10.736000061035156 C130.406005859375,-10.736000061035156 172.73599243164062,8.473999977111816 172.73599243164062,8.473999977111816 C172.73599243164062,8.473999977111816 192.44500732421875,-7.455999851226807 192.44500732421875,-7.455999851226807 C192.9550018310547,-1.8559999465942383 193.20599365234375,3.803999900817871 193.20599365234375,9.52400016784668z"></path></g></g><g style="display: block;" transform="matrix(1,0,0,1,256.25,253.49899291992188)" opacity="1"><g opacity="1" transform="matrix(1,0,0,1,0,0)"><g opacity="1" transform="matrix(1,0,0,1,0,0)"><path fill="rgb(255,225,156)" fill-opacity="1" d=" M-46.095001220703125,50.86199951171875 C-46.095001220703125,68.72000122070312 -56.73899841308594,83.19599914550781 -69.86699676513672,83.19599914550781 C-82.99600219726562,83.19599914550781 -93.63800048828125,68.72000122070312 -93.63800048828125,50.86199951171875 C-93.63800048828125,33.00400161743164 -82.99600219726562,18.527000427246094 -69.86699676513672,18.527000427246094 C-56.73899841308594,18.527000427246094 -46.095001220703125,33.00400161743164 -46.095001220703125,50.86199951171875z"></path></g><g opacity="1" transform="matrix(1,0,0,1,0,0)"><path fill="rgb(255,173,0)" fill-opacity="1" d=" M-46.095001220703125,46.53300094604492 C-46.095001220703125,62.553001403808594 -56.73899841308594,75.53900146484375 -69.86699676513672,75.53900146484375 C-82.99600219726562,75.53900146484375 -93.63800048828125,62.553001403808594 -93.63800048828125,46.53300094604492 C-93.63800048828125,30.51300048828125 -82.99600219726562,17.527000427246094 -69.86699676513672,17.527000427246094 C-56.73899841308594,17.527000427246094 -46.095001220703125,30.51300048828125 -46.095001220703125,46.53300094604492z"></path></g><g opacity="1" transform="matrix(1,0,0,1,0,0)"><path fill="rgb(143,58,0)" fill-opacity="1" d=" M-48.0099983215332,49.71900177001953 C-48.0099983215332,64.81600189208984 -57.79600143432617,77.05400085449219 -69.86699676513672,77.05400085449219 C-81.93800354003906,77.05400085449219 -91.7239990234375,64.81600189208984 -91.7239990234375,49.71900177001953 C-91.7239990234375,34.62200164794922 -81.93800354003906,22.384000778198242 -69.86699676513672,22.384000778198242 C-57.79600143432617,22.384000778198242 -48.0099983215332,34.62200164794922 -48.0099983215332,49.71900177001953z"></path></g><g opacity="1" transform="matrix(1,0,0,1,0,0)"><path fill="rgb(107,32,0)" fill-opacity="1" d=" M-48.00699996948242,49.7239990234375 C-48.00699996948242,50.92399978637695 -48.06700134277344,52.10300064086914 -48.196998596191406,53.26300048828125 C-49.57699966430664,39.83300018310547 -58.75699996948242,29.45400047302246 -69.86699676513672,29.45400047302246 C-80.97699737548828,29.45400047302246 -90.15699768066406,39.83300018310547 -91.53700256347656,53.26300048828125 C-91.66699981689453,52.10300064086914 -91.72699737548828,50.92399978637695 -91.72699737548828,49.7239990234375 C-91.72699737548828,34.624000549316406 -81.93699645996094,22.384000778198242 -69.86699676513672,22.384000778198242 C-57.797000885009766,22.384000778198242 -48.00699996948242,34.624000549316406 -48.00699996948242,49.7239990234375z"></path></g></g><g opacity="1" transform="matrix(1,0,0,1,0,0)"><g opacity="1" transform="matrix(1,0,0,1,0,0)"><path fill="rgb(255,225,156)" fill-opacity="1" d=" M103.38999938964844,50.86199951171875 C103.38999938964844,68.72000122070312 92.74800109863281,83.19599914550781 79.61900329589844,83.19599914550781 C66.48999786376953,83.19599914550781 55.84700012207031,68.72000122070312 55.84700012207031,50.86199951171875 C55.84700012207031,33.00400161743164 66.48999786376953,18.527000427246094 79.61900329589844,18.527000427246094 C92.74800109863281,18.527000427246094 103.38999938964844,33.00400161743164 103.38999938964844,50.86199951171875z"></path></g><g opacity="1" transform="matrix(1,0,0,1,0,0)"><path fill="rgb(255,173,0)" fill-opacity="1" d=" M103.38999938964844,46.53300094604492 C103.38999938964844,62.553001403808594 92.74800109863281,75.53900146484375 79.61900329589844,75.53900146484375 C66.48999786376953,75.53900146484375 55.84700012207031,62.553001403808594 55.84700012207031,46.53300094604492 C55.84700012207031,30.51300048828125 66.48999786376953,17.527000427246094 79.61900329589844,17.527000427246094 C92.74800109863281,17.527000427246094 103.38999938964844,30.51300048828125 103.38999938964844,46.53300094604492z"></path></g><g opacity="1" transform="matrix(1,0,0,1,0,0)"><path fill="rgb(143,58,0)" fill-opacity="1" d=" M101.47599792480469,49.71900177001953 C101.47599792480469,64.81600189208984 91.69000244140625,77.05400085449219 79.61900329589844,77.05400085449219 C67.5479965209961,77.05400085449219 57.762001037597656,64.81600189208984 57.762001037597656,49.71900177001953 C57.762001037597656,34.62200164794922 67.5479965209961,22.384000778198242 79.61900329589844,22.384000778198242 C91.69000244140625,22.384000778198242 101.47599792480469,34.62200164794922 101.47599792480469,49.71900177001953z"></path></g><g opacity="1" transform="matrix(1,0,0,1,0,0)"><path fill="rgb(107,32,0)" fill-opacity="1" d=" M101.47899627685547,49.7239990234375 C101.47899627685547,50.92399978637695 101.41899871826172,52.10300064086914 101.28900146484375,53.26300048828125 C99.90899658203125,39.83300018310547 90.72899627685547,29.45400047302246 79.61900329589844,29.45400047302246 C68.50900268554688,29.45400047302246 59.32899856567383,39.83300018310547 57.94900131225586,53.26300048828125 C57.819000244140625,52.10300064086914 57.75899887084961,50.92399978637695 57.75899887084961,49.7239990234375 C57.75899887084961,34.624000549316406 67.54900360107422,22.384000778198242 79.61900329589844,22.384000778198242 C91.68900299072266,22.384000778198242 101.47899627685547,34.624000549316406 101.47899627685547,49.7239990234375z"></path></g></g></g><g style="display: block;" transform="matrix(1,0,0,1,256.25,253.5)" opacity="1"><g opacity="1" transform="matrix(1,0,0,1,0,0)"><path fill="rgb(255,173,0)" fill-opacity="1" d=" M68.44499969482422,134.61099243164062 C57.9010009765625,111.21900177001953 35.262001037597656,93.10099792480469 4.710000038146973,93.10099792480469 C-26.933000564575195,93.10099792480469 -48.183998107910156,111.29499816894531 -58.69300079345703,134.61099243164062 C-67.02999877929688,153.10699462890625 -52.737998962402344,166.9550018310547 -38.31399917602539,162.718994140625 C-23.94700050354004,158.5 -10.524999618530273,155.97300720214844 4.875999927520752,155.97300720214844 C20.277000427246094,155.97300720214844 33.69900131225586,158.5 48.066001892089844,162.718994140625 C62.4900016784668,166.9550018310547 76.78199768066406,153.10699462890625 68.44499969482422,134.61099243164062z"></path></g><g opacity="1" transform="matrix(1,0,0,1,0,0)"><path fill="rgb(255,225,156)" fill-opacity="1" d=" M68.44499969482422,139.52999877929688 C57.9010009765625,118.22899627685547 35.262001037597656,101.7300033569336 4.710000038146973,101.7300033569336 C-26.933000564575195,101.7300033569336 -48.183998107910156,118.2979965209961 -58.69300079345703,139.52999877929688 C-67.02999877929688,156.3730010986328 -52.737998962402344,170.07200622558594 -38.31399917602539,166.21499633789062 C-23.94700050354004,162.3730010986328 -10.524999618530273,160.072998046875 4.875999927520752,160.072998046875 C20.277000427246094,160.072998046875 33.69900131225586,162.3730010986328 48.066001892089844,166.21499633789062 C62.4900016784668,170.07200622558594 76.78199768066406,156.3730010986328 68.44499969482422,139.52999877929688z"></path></g><g opacity="1" transform="matrix(1,0,0,1,0,0)"><path fill="rgb(143,58,0)" fill-opacity="1" d=" M66.63899993896484,136.52999877929688 C56.39500045776367,115.22899627685547 34.39899826049805,98.7300033569336 4.715000152587891,98.7300033569336 C-26.030000686645508,98.7300033569336 -46.67599868774414,115.2979965209961 -56.887001037597656,136.52999877929688 C-64.98699951171875,153.3730010986328 -51.10100173950195,165.07200622558594 -37.08700180053711,161.21499633789062 C-23.128000259399414,157.3730010986328 -10.086999893188477,155.072998046875 4.875999927520752,155.072998046875 C19.839000701904297,155.072998046875 32.880001068115234,157.3730010986328 46.8390007019043,161.21499633789062 C60.85300064086914,165.07200622558594 74.73899841308594,153.3730010986328 66.63899993896484,136.52999877929688z"></path></g><g opacity="1" transform="matrix(1,0,0,1,0,0)"><path fill="rgb(107,32,0)" fill-opacity="1" d=" M65,156.66400146484375 C65.80000305175781,152.88400268554688 65.33999633789062,148.3939971923828 63.11000061035156,143.4739990234375 C53.45000076293945,122.17400360107422 32.709999084472656,107.67400360107422 4.71999979019165,107.67400360107422 C-24.260000228881836,107.67400360107422 -43.72999954223633,122.24400329589844 -53.36000061035156,143.4739990234375 C-55.59000015258789,148.3939971923828 -56.04999923706055,152.88400268554688 -55.25,156.66400146484375 C-59.4900016784668,152.11399841308594 -60.95000076293945,144.9739990234375 -56.88999938964844,136.53399658203125 C-46.68000030517578,115.29399871826172 -26.030000686645508,98.73400115966797 4.710000038146973,98.73400115966797 C34.400001525878906,98.73400115966797 56.400001525878906,115.2239990234375 66.63999938964844,136.53399658203125 C70.69999694824219,144.9739990234375 69.23999786376953,152.11399841308594 65,156.66400146484375z"></path></g></g><g style="display: block;" transform="matrix(1.0000014305114746,0,0,0.9999963641166687,256.0010986328125,255.99896240234375)" opacity="1"><g opacity="1" transform="matrix(1,0,0,1,0,0)"><g opacity="1" transform="matrix(1,0,0,1,0,0)"><path fill="rgb(255,173,0)" fill-opacity="1" d=" M208.24899291992188,-106.46399688720703 C208.24899291992188,-106.46399688720703 194.48500061035156,-106.46399688720703 194.48500061035156,-106.46399688720703 C194.48500061035156,-106.46399688720703 177.85499572753906,-78.59700012207031 166.38400268554688,-66.86599731445312 C166.38400268554688,-66.86599731445312 137.56100463867188,-55.1349983215332 137.56100463867188,-55.1349983215332 C137.56100463867188,-55.1349983215332 136.56100463867188,-42.665000915527344 136.56100463867188,-42.665000915527344 C136.56100463867188,-42.665000915527344 156.92100524902344,-44.14400100708008 156.92100524902344,-44.14400100708008 C156.92100524902344,-44.14400100708008 166.6699981689453,-38.9370002746582 166.6699981689453,-38.9370002746582 C166.6699981689453,-38.9370002746582 184.74200439453125,-49.400001525878906 184.74200439453125,-49.400001525878906 C184.74200439453125,-49.400001525878906 198.21299743652344,-50.83300018310547 198.21299743652344,-50.83300018310547 C198.21299743652344,-50.83300018310547 215.41799926757812,-77.50199890136719 215.41799926757812,-77.50199890136719 C215.41799926757812,-77.50199890136719 208.24899291992188,-106.46399688720703 208.24899291992188,-106.46399688720703z"></path><path stroke-linecap="round" stroke-linejoin="round" fill-opacity="0" stroke="rgb(255,118,42)" stroke-opacity="1" stroke-width="8" d=" M208.24899291992188,-106.46399688720703 C208.24899291992188,-106.46399688720703 194.48500061035156,-106.46399688720703 194.48500061035156,-106.46399688720703 C194.48500061035156,-106.46399688720703 177.85499572753906,-78.59700012207031 166.38400268554688,-66.86599731445312 C166.38400268554688,-66.86599731445312 137.56100463867188,-55.1349983215332 137.56100463867188,-55.1349983215332 C137.56100463867188,-55.1349983215332 136.56100463867188,-42.665000915527344 136.56100463867188,-42.665000915527344 C136.56100463867188,-42.665000915527344 156.92100524902344,-44.14400100708008 156.92100524902344,-44.14400100708008 C156.92100524902344,-44.14400100708008 166.6699981689453,-38.9370002746582 166.6699981689453,-38.9370002746582 C166.6699981689453,-38.9370002746582 184.74200439453125,-49.400001525878906 184.74200439453125,-49.400001525878906 C184.74200439453125,-49.400001525878906 198.21299743652344,-50.83300018310547 198.21299743652344,-50.83300018310547 C198.21299743652344,-50.83300018310547 215.41799926757812,-77.50199890136719 215.41799926757812,-77.50199890136719 C215.41799926757812,-77.50199890136719 208.24899291992188,-106.46399688720703 208.24899291992188,-106.46399688720703z"></path></g></g></g><g style="display: block;" transform="matrix(0.9887609481811523,0,0,1.0113773345947266,254.69578552246094,256.2994689941406)" opacity="1"><g opacity="1" transform="matrix(1,0,0,1,0,0)"><g opacity="1" transform="matrix(1,0,0,1,0,0)"><path fill="rgb(255,173,0)" fill-opacity="1" d=" M-103.00499725341797,-44.52399826049805 C-103.00499725341797,-44.52399826049805 -84.36100006103516,-30.009000778198242 -84.36100006103516,-30.009000778198242 C-84.36100006103516,-30.009000778198242 -106.40799713134766,-6.178999900817871 -106.40799713134766,-6.178999900817871 C-106.40799713134766,-6.178999900817871 -114.98600006103516,-14.57800006866455 -114.98600006103516,-14.57800006866455 C-114.98600006103516,-14.57800006866455 -122.56500244140625,-9.847999572753906 -122.56500244140625,-9.847999572753906 C-122.56500244140625,-9.847999572753906 -147.68800354003906,-33.95800018310547 -147.68800354003906,-33.95800018310547 C-147.68800354003906,-33.95800018310547 -129.3520050048828,-46.55799865722656 -129.3520050048828,-46.55799865722656 C-129.3520050048828,-46.55799865722656 -113.447998046875,-35.499000549316406 -113.447998046875,-35.499000549316406 C-113.447998046875,-35.499000549316406 -103.00499725341797,-44.52399826049805 -103.00499725341797,-44.52399826049805z"></path><path stroke-linecap="round" stroke-linejoin="round" fill-opacity="0" stroke="rgb(255,118,42)" stroke-opacity="1" stroke-width="8" d=" M-103.00499725341797,-44.52399826049805 C-103.00499725341797,-44.52399826049805 -84.36100006103516,-30.009000778198242 -84.36100006103516,-30.009000778198242 C-84.36100006103516,-30.009000778198242 -106.40799713134766,-6.178999900817871 -106.40799713134766,-6.178999900817871 C-106.40799713134766,-6.178999900817871 -114.98600006103516,-14.57800006866455 -114.98600006103516,-14.57800006866455 C-114.98600006103516,-14.57800006866455 -122.56500244140625,-9.847999572753906 -122.56500244140625,-9.847999572753906 C-122.56500244140625,-9.847999572753906 -147.68800354003906,-33.95800018310547 -147.68800354003906,-33.95800018310547 C-147.68800354003906,-33.95800018310547 -129.3520050048828,-46.55799865722656 -129.3520050048828,-46.55799865722656 C-129.3520050048828,-46.55799865722656 -113.447998046875,-35.499000549316406 -113.447998046875,-35.499000549316406 C-113.447998046875,-35.499000549316406 -103.00499725341797,-44.52399826049805 -103.00499725341797,-44.52399826049805z"></path></g></g></g><g style="display: block;" transform="matrix(0.9586586952209473,0,0,1.0431349277496338,247.700927734375,259.1966247558594)" opacity="1"><g opacity="1" transform="matrix(1,0,0,1,0,0)"><g opacity="1" transform="matrix(1,0,0,1,0,0)"><path fill="rgb(255,207,0)" fill-opacity="1" d=" M-189.82200622558594,-47.946998596191406 C-189.82200622558594,-47.946998596191406 -186.06300354003906,-79.80000305175781 -186.06300354003906,-79.80000305175781 C-186.06300354003906,-79.80000305175781 -197.677001953125,-100.30000305175781 -197.677001953125,-100.30000305175781 C-197.677001953125,-100.30000305175781 -215.41799926757812,-88.625 -215.41799926757812,-88.625 C-215.41799926757812,-88.625 -189.82200622558594,-47.946998596191406 -189.82200622558594,-47.946998596191406z"></path><path stroke-linecap="round" stroke-linejoin="round" fill-opacity="0" stroke="rgb(255,118,42)" stroke-opacity="1" stroke-width="8" d=" M-189.82200622558594,-47.946998596191406 C-189.82200622558594,-47.946998596191406 -186.06300354003906,-79.80000305175781 -186.06300354003906,-79.80000305175781 C-186.06300354003906,-79.80000305175781 -197.677001953125,-100.30000305175781 -197.677001953125,-100.30000305175781 C-197.677001953125,-100.30000305175781 -215.41799926757812,-88.625 -215.41799926757812,-88.625 C-215.41799926757812,-88.625 -189.82200622558594,-47.946998596191406 -189.82200622558594,-47.946998596191406z"></path></g></g></g><g style="display: block;" transform="matrix(0.9586586952209473,0,0,1.0431349277496338,255.327880859375,256.9346008300781)" opacity="1"><g opacity="1" transform="matrix(1,0,0,1,0,0)"><g opacity="1" transform="matrix(1,0,0,1,0,0)"><path fill="rgb(255,173,0)" fill-opacity="1" d=" M-19.1299991607666,-46.17499923706055 C-19.1299991607666,-46.17499923706055 -38.0629997253418,-15.539999961853027 -38.0629997253418,-15.539999961853027 C-38.0629997253418,-15.539999961853027 -20.437999725341797,-13.902000427246094 -20.437999725341797,-13.902000427246094 C-20.437999725341797,-13.902000427246094 -8.10099983215332,2.812000036239624 -8.10099983215332,2.812000036239624 C-8.10099983215332,2.812000036239624 5.515999794006348,-15.916999816894531 5.515999794006348,-15.916999816894531 C5.515999794006348,-15.916999816894531 -19.1299991607666,-46.17499923706055 -19.1299991607666,-46.17499923706055z"></path><path stroke-linecap="round" stroke-linejoin="round" fill-opacity="0" stroke="rgb(255,118,42)" stroke-opacity="1" stroke-width="8" d=" M-19.1299991607666,-46.17499923706055 C-19.1299991607666,-46.17499923706055 -38.0629997253418,-15.539999961853027 -38.0629997253418,-15.539999961853027 C-38.0629997253418,-15.539999961853027 -20.437999725341797,-13.902000427246094 -20.437999725341797,-13.902000427246094 C-20.437999725341797,-13.902000427246094 -8.10099983215332,2.812000036239624 -8.10099983215332,2.812000036239624 C-8.10099983215332,2.812000036239624 5.515999794006348,-15.916999816894531 5.515999794006348,-15.916999816894531 C5.515999794006348,-15.916999816894531 -19.1299991607666,-46.17499923706055 -19.1299991607666,-46.17499923706055z"></path></g></g></g><g style="display: block;" transform="matrix(0.9199230074882507,0,0,1.087051272392273,266.5987854003906,264.3917541503906)" opacity="1"><g opacity="1" transform="matrix(1,0,0,1,0,0)"><g opacity="1" transform="matrix(1,0,0,1,0,0)"><path fill="rgb(255,173,0)" fill-opacity="1" d=" M161.79600524902344,-126.88800048828125 C161.79600524902344,-126.88800048828125 142.86399841308594,-120.44000244140625 142.86399841308594,-120.44000244140625 C142.86399841308594,-120.44000244140625 113.0770034790039,-135.00799560546875 113.0770034790039,-135.00799560546875 C113.0770034790039,-135.00799560546875 102.89700317382812,-79.52200317382812 102.89700317382812,-79.52200317382812 C102.89700317382812,-79.52200317382812 113.75299835205078,-76.28399658203125 113.75299835205078,-76.28399658203125 C113.75299835205078,-76.28399658203125 122.0260009765625,-57.80400085449219 122.0260009765625,-57.80400085449219 C122.0260009765625,-57.80400085449219 135.59300231933594,-72.60600280761719 135.59300231933594,-72.60600280761719 C135.59300231933594,-72.60600280761719 146.7429962158203,-76.28399658203125 146.7429962158203,-76.28399658203125 C146.7429962158203,-76.28399658203125 161.79600524902344,-126.88800048828125 161.79600524902344,-126.88800048828125z"></path><path stroke-linecap="round" stroke-linejoin="round" fill-opacity="0" stroke="rgb(255,118,42)" stroke-opacity="1" stroke-width="8" d=" M161.79600524902344,-126.88800048828125 C161.79600524902344,-126.88800048828125 142.86399841308594,-120.44000244140625 142.86399841308594,-120.44000244140625 C142.86399841308594,-120.44000244140625 113.0770034790039,-135.00799560546875 113.0770034790039,-135.00799560546875 C113.0770034790039,-135.00799560546875 102.89700317382812,-79.52200317382812 102.89700317382812,-79.52200317382812 C102.89700317382812,-79.52200317382812 113.75299835205078,-76.28399658203125 113.75299835205078,-76.28399658203125 C113.75299835205078,-76.28399658203125 122.0260009765625,-57.80400085449219 122.0260009765625,-57.80400085449219 C122.0260009765625,-57.80400085449219 135.59300231933594,-72.60600280761719 135.59300231933594,-72.60600280761719 C135.59300231933594,-72.60600280761719 146.7429962158203,-76.28399658203125 146.7429962158203,-76.28399658203125 C146.7429962158203,-76.28399658203125 161.79600524902344,-126.88800048828125 161.79600524902344,-126.88800048828125z"></path></g></g></g><g style="display: block;" transform="matrix(0.9382594227790833,0,0,1.0658024549484253,267.3823547363281,269.2027587890625)" opacity="1"><g opacity="1" transform="matrix(1,0,0,1,0,0)"><g opacity="1" transform="matrix(1,0,0,1,0,0)"><path fill="rgb(255,207,0)" fill-opacity="1" d=" M176.35000610351562,-204.7010040283203 C176.35000610351562,-204.7010040283203 177.3820037841797,-191.63699340820312 177.3820037841797,-191.63699340820312 C177.3820037841797,-191.63699340820312 192.33599853515625,-196.96600341796875 192.33599853515625,-196.96600341796875 C192.33599853515625,-196.96600341796875 191.30499267578125,-209.68499755859375 191.30499267578125,-209.68499755859375 C191.30499267578125,-209.68499755859375 176.35000610351562,-204.7010040283203 176.35000610351562,-204.7010040283203z"></path><path stroke-linecap="round" stroke-linejoin="round" fill-opacity="0" stroke="rgb(255,118,42)" stroke-opacity="1" stroke-width="8" d=" M176.35000610351562,-204.7010040283203 C176.35000610351562,-204.7010040283203 177.3820037841797,-191.63699340820312 177.3820037841797,-191.63699340820312 C177.3820037841797,-191.63699340820312 192.33599853515625,-196.96600341796875 192.33599853515625,-196.96600341796875 C192.33599853515625,-196.96600341796875 191.30499267578125,-209.68499755859375 191.30499267578125,-209.68499755859375 C191.30499267578125,-209.68499755859375 176.35000610351562,-204.7010040283203 176.35000610351562,-204.7010040283203z"></path></g></g></g><g style="display: block;" transform="matrix(0.9831262826919556,0,0,1.0171676874160767,257.80767822265625,259.3172302246094)" opacity="1"><g opacity="1" transform="matrix(1,0,0,1,0,0)"><g opacity="1" transform="matrix(1,0,0,1,0,0)"><path fill="rgb(255,207,0)" fill-opacity="1" d=" M108.7300033569336,-199.15499877929688 C108.7300033569336,-199.15499877929688 99.2300033569336,-202.52000427246094 99.2300033569336,-202.52000427246094 C99.2300033569336,-202.52000427246094 93.48999786376953,-195.59300231933594 93.48999786376953,-195.59300231933594 C93.48999786376953,-195.59300231933594 107.34400177001953,-182.7969970703125 107.34400177001953,-182.7969970703125 C107.34400177001953,-182.7969970703125 116.84400177001953,-185.10299682617188 116.84400177001953,-185.10299682617188 C116.84400177001953,-185.10299682617188 120.6050033569336,-203.70700073242188 120.6050033569336,-203.70700073242188 C120.6050033569336,-203.70700073242188 108.7300033569336,-199.15499877929688 108.7300033569336,-199.15499877929688z"></path><path stroke-linecap="round" stroke-linejoin="round" fill-opacity="0" stroke="rgb(255,118,42)" stroke-opacity="1" stroke-width="8" d=" M108.7300033569336,-199.15499877929688 C108.7300033569336,-199.15499877929688 99.2300033569336,-202.52000427246094 99.2300033569336,-202.52000427246094 C99.2300033569336,-202.52000427246094 93.48999786376953,-195.59300231933594 93.48999786376953,-195.59300231933594 C93.48999786376953,-195.59300231933594 107.34400177001953,-182.7969970703125 107.34400177001953,-182.7969970703125 C107.34400177001953,-182.7969970703125 116.84400177001953,-185.10299682617188 116.84400177001953,-185.10299682617188 C116.84400177001953,-185.10299682617188 120.6050033569336,-203.70700073242188 120.6050033569336,-203.70700073242188 C120.6050033569336,-203.70700073242188 108.7300033569336,-199.15499877929688 108.7300033569336,-199.15499877929688z"></path></g></g></g><g style="display: block;" transform="matrix(0.9459664225578308,0,0,1.0571327209472656,246.02745056152344,265.87823486328125)" opacity="1"><g opacity="1" transform="matrix(1,0,0,1,0,0)"><g opacity="1" transform="matrix(1,0,0,1,0,0)"><path fill="rgb(255,207,0)" fill-opacity="1" d=" M-184.29100036621094,-200.10899353027344 C-184.29100036621094,-200.10899353027344 -200.74099731445312,-166.11300659179688 -200.74099731445312,-166.11300659179688 C-200.74099731445312,-166.11300659179688 -199.76499938964844,-145.71499633789062 -199.76499938964844,-145.71499633789062 C-199.76499938964844,-145.71499633789062 -168.34800720214844,-148.9980010986328 -168.34800720214844,-148.9980010986328 C-168.34800720214844,-148.9980010986328 -168.34800720214844,-160.7209930419922 -168.34800720214844,-160.7209930419922 C-168.34800720214844,-160.7209930419922 -183.35299682617188,-175.2570037841797 -183.35299682617188,-175.2570037841797 C-183.35299682617188,-175.2570037841797 -171.86500549316406,-183.35899353027344 -171.86500549316406,-183.35899353027344 C-171.86500549316406,-183.35899353027344 -184.29100036621094,-200.10899353027344 -184.29100036621094,-200.10899353027344z"></path><path stroke-linecap="round" stroke-linejoin="round" fill-opacity="0" stroke="rgb(255,118,42)" stroke-opacity="1" stroke-width="8" d=" M-184.29100036621094,-200.10899353027344 C-184.29100036621094,-200.10899353027344 -200.74099731445312,-166.11300659179688 -200.74099731445312,-166.11300659179688 C-200.74099731445312,-166.11300659179688 -199.76499938964844,-145.71499633789062 -199.76499938964844,-145.71499633789062 C-199.76499938964844,-145.71499633789062 -168.34800720214844,-148.9980010986328 -168.34800720214844,-148.9980010986328 C-168.34800720214844,-148.9980010986328 -168.34800720214844,-160.7209930419922 -168.34800720214844,-160.7209930419922 C-168.34800720214844,-160.7209930419922 -183.35299682617188,-175.2570037841797 -183.35299682617188,-175.2570037841797 C-183.35299682617188,-175.2570037841797 -171.86500549316406,-183.35899353027344 -171.86500549316406,-183.35899353027344 C-171.86500549316406,-183.35899353027344 -184.29100036621094,-200.10899353027344 -184.29100036621094,-200.10899353027344z"></path></g></g></g><g style="display: block;" transform="matrix(0.9973751902580261,0,0,1.002634048461914,255.65208435058594,256.524658203125)" opacity="1"><g opacity="1" transform="matrix(1,0,0,1,0,0)"><g opacity="1" transform="matrix(1,0,0,1,0,0)"><path fill="rgb(255,207,0)" fill-opacity="1" d=" M-140.0800018310547,-186.80999755859375 C-140.0800018310547,-186.80999755859375 -129.18699645996094,-198.75100708007812 -117.45600128173828,-203.14999389648438 C-117.45600128173828,-203.14999389648438 -120.67900085449219,-212.14100646972656 -120.67900085449219,-212.14100646972656 C-120.67900085449219,-212.14100646972656 -136.10000610351562,-206.9199981689453 -147.41200256347656,-192.25599670410156 C-147.41200256347656,-192.25599670410156 -140.0800018310547,-186.80999755859375 -140.0800018310547,-186.80999755859375z"></path><path stroke-linecap="round" stroke-linejoin="round" fill-opacity="0" stroke="rgb(255,118,42)" stroke-opacity="1" stroke-width="8" d=" M-140.0800018310547,-186.80999755859375 C-140.0800018310547,-186.80999755859375 -129.18699645996094,-198.75100708007812 -117.45600128173828,-203.14999389648438 C-117.45600128173828,-203.14999389648438 -120.67900085449219,-212.14100646972656 -120.67900085449219,-212.14100646972656 C-120.67900085449219,-212.14100646972656 -136.10000610351562,-206.9199981689453 -147.41200256347656,-192.25599670410156 C-147.41200256347656,-192.25599670410156 -140.0800018310547,-186.80999755859375 -140.0800018310547,-186.80999755859375z"></path></g></g></g></g></svg>