<svg xmlns="http://www.w3.org/2000/svg" viewBox="0 0 512 512" width="512" height="512" style="width: 100%; height: 100%; transform: translate3d(0,0,0);" preserveAspectRatio="xMidYMid meet"><defs><clipPath id="__lottie_element_23049"><rect width="512" height="512" x="0" y="0"></rect></clipPath><linearGradient id="__lottie_element_23055" spreadMethod="pad" gradientUnits="userSpaceOnUse" x1="-39.29999923706055" y1="93.302001953125" x2="149.51400756835938" y2="69.62000274658203"><stop offset="0%" stop-color="rgb(147,18,149)"></stop><stop offset="40%" stop-color="rgb(110,11,116)"></stop><stop offset="86%" stop-color="rgb(73,5,83)"></stop></linearGradient><linearGradient id="__lottie_element_23065" spreadMethod="pad" gradientUnits="userSpaceOnUse" x1="132.6999969482422" y1="163.302001953125" x2="147.04200744628906" y2="24.097999572753906"><stop offset="0%" stop-color="rgb(79,2,89)"></stop><stop offset="50%" stop-color="rgb(113,10,119)"></stop><stop offset="100%" stop-color="rgb(147,18,149)"></stop></linearGradient><linearGradient id="__lottie_element_23087" spreadMethod="pad" gradientUnits="userSpaceOnUse" x1="-52.92100143432617" y1="-71.44300079345703" x2="-41.529998779296875" y2="-56.167999267578125"><stop offset="0%" stop-color="rgb(55,10,0)"></stop><stop offset="38%" stop-color="rgb(104,48,2)"></stop><stop offset="100%" stop-color="rgb(153,87,4)"></stop></linearGradient><linearGradient id="__lottie_element_23091" spreadMethod="pad" gradientUnits="userSpaceOnUse" x1="36.52299880981445" y1="-79.30799865722656" x2="47.2140007019043" y2="-65.3030014038086"><stop offset="0%" stop-color="rgb(55,10,0)"></stop><stop offset="38%" stop-color="rgb(104,48,2)"></stop><stop offset="100%" stop-color="rgb(153,87,4)"></stop></linearGradient></defs><g clip-path="url(#__lottie_element_23049)"><g style="display: block;" transform="matrix(0.9648172855377197,0.018778121098876,-0.018778121098876,0.9648172855377197,254.71881103515625,263.4071350097656)" opacity="1"><g opacity="1" transform="matrix(1,0,0,1,0,0)"><path fill="rgb(247,173,0)" fill-opacity="1" d=" M76.40799713134766,-148.16000366210938 C44.00400161743164,-190.3730010986328 -75.3270034790039,-180.08200073242188 -100.0260009765625,-132.94500732421875 C-124.7249984741211,-85.80799865722656 -123.40499877929688,-1.9600000381469727 -120.20899963378906,29.472000122070312 C-116.41100311279297,66.81700134277344 129.97900390625,44.35200119018555 128.95799255371094,7.986000061035156 C127.44000244140625,-46.0890007019043 108.81199645996094,-105.947998046875 76.40799713134766,-148.16000366210938z"></path></g><g opacity="0.6" transform="matrix(1,0,0,1,0,0)"><path fill="rgb(207,114,0)" fill-opacity="1" d=" M125.6729965209961,-23.729999542236328 C125.6729965209961,-23.729999542236328 112.37200164794922,-49.465999603271484 94.38400268554688,-35.691001892089844 C88.64099884033203,-31.292999267578125 84.62699890136719,-15.753000259399414 80.63800048828125,-4.1620001792907715 C73.98899841308594,15.156000137329102 68.96700286865234,32.39500045776367 84.2040023803711,33.98899841308594 C86.06400299072266,34.18899917602539 4.323999881744385,46.52899932861328 4.323999881744385,46.52899932861328 C4.323999881744385,46.52899932861328 15.173999786376953,-149.697998046875 107.89399719238281,-91.53099822998047 C114.23400115966797,-75.5510025024414 125.9530029296875,-24.690000534057617 125.6729965209961,-23.729999542236328z"></path></g><g opacity="0.6" transform="matrix(1,0,0,1,0,0)"><path fill="rgb(207,114,0)" fill-opacity="1" d=" M-123.52999877929688,17.51300048828125 C-123.55999755859375,16.80500030517578 -124.53800201416016,-29.89299964904785 -105.0479965209961,-26.48699951171875 C-95.3280029296875,-24.788000106811523 -90.8290023803711,-6.230000019073486 -68.25599670410156,14.612000465393066 C-46.32699966430664,34.85900115966797 -52.915000915527344,45.58399963378906 -72.02999877929688,47.231998443603516 C-54.483001708984375,45.71900177001953 -17.79800033569336,49.262001037597656 5.261000156402588,47.27399826049805 C5.261000156402588,47.27399826049805 -95.2770004272461,-140.88400268554688 -99.41300201416016,-132.9980010986328 C-122.26799774169922,-89.375 -132.98500061035156,-38.73400115966797 -123.52999877929688,17.51300048828125z"></path></g><g opacity="1" transform="matrix(1,0,0,1,0,0)"><path stroke-linecap="round" stroke-linejoin="round" fill-opacity="0" stroke="rgb(185,96,0)" stroke-opacity="1" stroke-width="8" d=" M76.40799713134766,-148.16000366210938 C44.00400161743164,-190.3730010986328 -75.3270034790039,-180.08200073242188 -100.0260009765625,-132.94500732421875 C-124.7249984741211,-85.80799865722656 -129.58999633789062,-0.6970000267028809 -120.20899963378906,29.472000122070312 C-117.04399871826172,39.652000427246094 -105.9739990234375,42.6879997253418 -85.79100036621094,46.00600051879883 C-52.05500030517578,51.551998138427734 54.340999603271484,44.72999954223633 97.87799835205078,30.167999267578125 C115.41699981689453,24.302000045776367 129.3800048828125,18.638999938964844 128.95799255371094,7.986000061035156 C126.81600189208984,-46.06700134277344 108.81199645996094,-105.947998046875 76.40799713134766,-148.16000366210938z"></path></g></g><g style="display: block;" transform="matrix(0.9649632573127747,0.00842110626399517,-0.00842110626399517,0.9649632573127747,254.72837829589844,263.4033508300781)" opacity="1"><g opacity="1" transform="matrix(1,0,0,1,0,0)"><path fill="url(#__lottie_element_23055)" fill-opacity="1" d=" M80.10099792480469,73.01300048828125 C110.02799987792969,-36.915000915527344 -127.06099700927734,-49.50899887084961 -90.6240005493164,73.01300048828125 C-90.6240005493164,73.01300048828125 -84.03600311279297,128.25100708007812 -83.02100372314453,193.01499938964844 C-29.1299991607666,215.1540069580078 28.06399917602539,214.9290008544922 88.38200378417969,193.54200744628906 C89.39700317382812,128.77699279785156 80.10099792480469,73.01300048828125 80.10099792480469,73.01300048828125z"></path></g><g opacity="0.25" transform="matrix(1,0,0,1,0,0)"><path fill="rgb(82,0,84)" fill-opacity="1" d=" M88.37999725341797,193.5449981689453 C35.22100067138672,217.58700561523438 -22.400999069213867,214.42999267578125 -83.0199966430664,193.01499938964844 C-83.86000061035156,139.98500061035156 -88.41999816894531,93.33499908447266 -90.04000091552734,78.18499755859375 C-80.72799682617188,147.35000610351562 85.3290023803711,153.0959930419922 80.80999755859375,77.59500122070312 C82.95999908447266,92.18499755859375 89.2300033569336,139.7550048828125 88.37999725341797,193.5449981689453z"></path></g><g opacity="0.6" transform="matrix(1,0,0,1,0,0)"><path fill="rgb(82,0,84)" fill-opacity="1" d=" M88.37699890136719,194.5449981689453 C88.36799621582031,203.96400451660156 5.63700008392334,217.23899841308594 -32.862998962402344,207.64500427246094 C93.48699951171875,216.64500427246094 77.75199890136719,91.44100189208984 76.33300018310547,74.61599731445312 C84.27999877929688,90.79499816894531 89.13700103759766,146.5050048828125 88.37699890136719,194.5449981689453z"></path></g><g opacity="1" transform="matrix(1,0,0,1,0,0)"><path fill="rgb(204,35,204)" fill-opacity="1" d=" M-11.032999992370605,209.9250030517578 C-57.042999267578125,207.2550048828125 -83.02300262451172,194.01499938964844 -83.02300262451172,194.01499938964844 C-88.60099792480469,139.0850067138672 -87.4530029296875,74.01499938964844 -87.4530029296875,74.01499938964844 C-83.0469970703125,95.50299835205078 -72.81300354003906,187.2050018310547 -72.81300354003906,187.2050018310547 C-56.17300033569336,201.80499267578125 -12.333000183105469,209.68499755859375 -11.032999992370605,209.9250030517578z"></path></g><g opacity="1" transform="matrix(1,0,0,1,0,0)"><path stroke-linecap="round" stroke-linejoin="round" fill-opacity="0" stroke="rgb(82,0,84)" stroke-opacity="1" stroke-width="8" d=" M-0.5199999809265137,209.5989990234375 C-55.099998474121094,209.5989990234375 -83.02100372314453,194.01600646972656 -83.02100372314453,194.01600646972656 C-87.6240005493164,137.08999633789062 -90.6240005493164,74.01300048828125 -90.6240005493164,74.01300048828125"></path></g><g opacity="1" transform="matrix(1,0,0,1,0,0)"><path stroke-linecap="round" stroke-linejoin="round" fill-opacity="0" stroke="rgb(56,0,60)" stroke-opacity="1" stroke-width="8" d=" M80.10099792480469,74.01300048828125 C85.91899871826172,117.99700164794922 90.24800109863281,155.3350067138672 88.38200378417969,194.54200744628906 C88.38200378417969,194.54200744628906 60.875,209.5989990234375 -0.5199999809265137,209.5989990234375"></path></g></g><g style="display: block;" transform="matrix(0.9649632573127747,-0.00842110626399517,0.00842110626399517,0.9649632573127747,255.5760040283203,263.5810241699219)" opacity="1"><g opacity="1" transform="matrix(1,0,0,1,0,0)"><path fill="rgb(86,9,97)" fill-opacity="1" d=" M21.155000686645508,-16.7549991607666 C21.155000686645508,-16.7549991607666 77.91500091552734,-21.007999420166016 90.96900177001953,-9.857999801635742 C104.02300262451172,1.2920000553131104 116.9990005493164,40.141998291015625 122.2020034790039,75.05899810791016 C124.31500244140625,89.24099731445312 149.61099243164062,116.91300201416016 150.09800720214844,131.29600524902344 C150.81100463867188,152.3249969482422 126.08899688720703,157.85899353027344 126.08899688720703,157.85899353027344 C126.08899688720703,157.85899353027344 95.91400146484375,158.7519989013672 77.10099792480469,74.01300048828125 C72.75700378417969,40.89699935913086 60.86800003051758,16.434999465942383 24.099000930786133,21.409000396728516 C-3.322999954223633,25.118000030517578 21.155000686645508,-16.7549991607666 21.155000686645508,-16.7549991607666z"></path></g><g opacity="0.6" transform="matrix(1,0,0,1,0,0)"><path fill="rgb(70,0,74)" fill-opacity="1" d=" M76.89600372314453,72.97000122070312 C73.08899688720703,56.93600082397461 77.43199920654297,48.72100067138672 80.09700012207031,55.625 C87.19599914550781,74.01499938964844 105.6760025024414,123.58699798583984 122.0469970703125,134.44500732421875 C143.2519989013672,148.50999450683594 160.6999969482422,140.63499450683594 132.96600341796875,156.7429962158203 C126.625,160.42599487304688 98.93399810791016,165.781005859375 76.89600372314453,72.97000122070312z"></path></g><g opacity="1" transform="matrix(1,0,0,1,0,0)"><path stroke-linecap="round" stroke-linejoin="round" fill-opacity="0" stroke="rgb(56,0,60)" stroke-opacity="1" stroke-width="8" d=" M80.10099792480469,74.01300048828125 C80.10099792480469,74.01300048828125 93.88300323486328,157.9600067138672 126.08899688720703,157.85899353027344 C131.40899658203125,157.8419952392578 137.2010040283203,156.61300659179688 144.61599731445312,147.38600158691406"></path></g><g opacity="1" transform="matrix(1,0,0,1,0,0)"><path stroke-linecap="round" stroke-linejoin="round" fill-opacity="0" stroke="rgb(56,0,60)" stroke-opacity="1" stroke-width="8" d=" M17.31399917602539,-15.670999526977539 C17.31399917602539,-15.670999526977539 77.99600219726562,-22.05699920654297 93.56400299072266,-7.934000015258789 C113.79299926757812,10.416999816894531 119.72200012207031,69.69499969482422 119.72200012207031,69.69499969482422"></path></g><g opacity="1" transform="matrix(1,0,0,1,0,0)"><g opacity="1" transform="matrix(1,0,0,1,0,0)"><path fill="rgb(147,18,149)" fill-opacity="1" d=" M-28.67799949645996,-16.7549991607666 C-28.67799949645996,-16.7549991607666 -85.43800354003906,-21.007999420166016 -98.49199676513672,-9.857999801635742 C-111.5459976196289,1.2920000553131104 -135.1750030517578,40.12900161743164 -140.3780059814453,75.0459976196289 C-145.58099365234375,109.96299743652344 -151.4239959716797,147.8800048828125 -151.4239959716797,147.8800048828125 C-151.4239959716797,147.8800048828125 -118.19599914550781,153.85499572753906 -90.6240005493164,74.01300048828125 C-61.55099868774414,-10.173999786376953 -28.67799949645996,-16.7549991607666 -28.67799949645996,-16.7549991607666z"></path></g><g opacity="0.5" transform="matrix(1,0,0,1,0,0)"><path fill="rgb(82,0,84)" fill-opacity="1" d=" M-86.85700225830078,77.1520004272461 C-88.177001953125,80.63200378417969 -89.31300354003906,70.2249984741211 -90.62300109863281,74.01499938964844 C-118.19300079345703,153.85499572753906 -151.42300415039062,147.875 -151.42300415039062,147.875 C-151.42300415039062,147.875 -150.51199340820312,141.98500061035156 -149.0919952392578,132.7050018310547 C-142.83200073242188,130.15499877929688 -135.4340057373047,125.12300109863281 -127.91300201416016,115.8550033569336 C-102.32599639892578,84.32499694824219 -99.44400024414062,69.62000274658203 -92.68399810791016,56.650001525878906 C-89.02400207519531,49.63999938964844 -85.1729965209961,55.28099822998047 -86.85700225830078,77.1520004272461z"></path></g><g opacity="1" transform="matrix(1,0,0,1,0,0)"><path stroke-linecap="round" stroke-linejoin="round" fill-opacity="0" stroke="rgb(82,0,84)" stroke-opacity="1" stroke-width="8" d=" M-90.6240005493164,74.01300048828125 C-90.6240005493164,74.01300048828125 -113.55400085449219,150.47900390625 -151.4239959716797,147.8800048828125"></path></g><g opacity="1" transform="matrix(1,0,0,1,0,0)"><path fill="rgb(204,35,204)" fill-opacity="1" d=" M-137.11000061035156,59.92900085449219 C-135.88999938964844,74.6989974975586 -135.24000549316406,77.1520004272461 -135.24000549316406,77.1520004272461 C-135.24000549316406,77.1520004272461 -109.00900268554688,13.454999923706055 -92.68099975585938,1.1749999523162842 C-83.50299835205078,-5.728000164031982 -40.090999603271484,-3.9049999713897705 -40.090999603271484,-3.9049999713897705 C-40.090999603271484,-3.9049999713897705 -40.090999603271484,-16.7549991607666 -40.090999603271484,-16.7549991607666 C-40.090999603271484,-16.7549991607666 -90.18099975585938,-16.954999923706055 -98.49099731445312,-9.854999542236328 C-110.1510009765625,0.0949999988079071 -131.07000732421875,28.32900047302246 -137.11000061035156,59.92900085449219z"></path></g><g opacity="1" transform="matrix(1,0,0,1,0,0)"><path stroke-linecap="round" stroke-linejoin="round" fill-opacity="0" stroke="rgb(82,0,84)" stroke-opacity="1" stroke-width="8" d=" M-24.836999893188477,-15.670999526977539 C-24.836999893188477,-15.670999526977539 -85.51899719238281,-22.05699920654297 -101.08699798583984,-7.934000015258789 C-121.31500244140625,10.416999816894531 -137.11000061035156,59.92900085449219 -137.11000061035156,59.92900085449219"></path></g></g></g><g style="display: block;" transform="matrix(0.9649632573127747,-0.00842110626399517,0.00842110626399517,0.9649632573127747,255.5760040283203,263.5810241699219)" opacity="1"><g opacity="0.8" transform="matrix(1,0,0,1,0,0)"><path fill="rgb(56,0,60)" fill-opacity="1" d=" M-76.73999786376953,-15.699999809265137 C-76.73999786376953,-15.699999809265137 -52.52899932861328,42.60300064086914 5.699999809265137,44.6349983215332 C74.40899658203125,47.03300094604492 95.70899963378906,2.9670000076293945 93.56400299072266,-7.934000015258789 C93.56400299072266,-7.934000015258789 77.54399871826172,-14.951000213623047 61.20000076293945,-15.699999809265137 C23.809999465942383,-17.413999557495117 -40.43899917602539,-15.680000305175781 -76.73999786376953,-15.699999809265137z"></path></g></g><g style="display: block;" transform="matrix(0.9648172855377197,0.018778121098876,-0.018778121098876,0.9648172855377197,254.71881103515625,263.4071350097656)" opacity="1"><g opacity="1" transform="matrix(1,0,0,1,0,0)"><path fill="rgb(253,205,0)" fill-opacity="1" d=" M56.470001220703125,-154.593994140625 C38.492000579833984,-175.50799560546875 -67.35099792480469,-166.38099670410156 -81.48300170898438,-142.697998046875 C-95.61499786376953,-119.01499938964844 -104.51100158691406,-65.86199951171875 -79.78099822998047,-23.964000701904297 C-55.051998138427734,17.93400001525879 -18.447999954223633,28.70400047302246 2.630000114440918,26.88599967956543 C23.70800018310547,25.06800079345703 57.926998138427734,8.1899995803833 75.11900329589844,-37.321998596191406 C92.30999755859375,-82.83499908447266 74.447998046875,-133.67999267578125 56.470001220703125,-154.593994140625z"></path></g><g opacity="1" transform="matrix(1,0,0,1,0,0)"><path fill="rgb(246,173,0)" fill-opacity="1" d=" M79.68299865722656,-71.76499938964844 C78.31600189208984,-86.29000091552734 71.60099792480469,-89.41000366210938 65.99400329589844,-90.06099700927734 C1.8040000200271606,-97.53099822998047 -50.79600143432617,-132.9010009765625 -50.79600143432617,-132.9010009765625 C-52.2859992980957,-109.43099975585938 -65.3280029296875,-95.14800262451172 -81.57499694824219,-78.59100341796875 C-91.39700317382812,-68.58100128173828 -91.20500183105469,-53.6510009765625 -89.26499938964844,-45.020999908447266 C-101.48500061035156,-82.29100036621094 -93.32599639892578,-122.84100341796875 -81.48600006103516,-142.7010040283203 C-67.35600280761719,-166.38099670410156 38.49399948120117,-175.51100158691406 56.4739990234375,-154.59100341796875 C73.29399871826172,-135.02099609375 87.82499694824219,-95.447998046875 79.68299865722656,-71.76499938964844z"></path></g><g opacity="1" transform="matrix(1,0,0,1,0,0)"><path stroke-linecap="round" stroke-linejoin="round" fill-opacity="0" stroke="rgb(205,113,0)" stroke-opacity="1" stroke-width="8" d=" M56.470001220703125,-154.593994140625 C38.492000579833984,-175.50799560546875 -67.35099792480469,-166.38099670410156 -81.48300170898438,-142.697998046875 C-95.61499786376953,-119.01499938964844 -104.51100158691406,-65.86199951171875 -79.78099822998047,-23.964000701904297 C-55.051998138427734,17.93400001525879 -18.447999954223633,28.70400047302246 2.630000114440918,26.88599967956543 C23.70800018310547,25.06800079345703 57.926998138427734,8.1899995803833 75.11900329589844,-37.321998596191406 C92.30999755859375,-82.83499908447266 74.447998046875,-133.67999267578125 56.470001220703125,-154.593994140625z"></path></g></g><g style="display: block;" transform="matrix(0.9648172855377197,0.018778121098876,-0.018778121098876,0.9648172855377197,254.7197265625,263.40740966796875)" opacity="1"><g opacity="1" transform="matrix(1,0,0,1,0,0)"><path fill="rgb(246,173,0)" fill-opacity="1" d=" M10.715999603271484,-30.816999435424805 C10.911999702453613,-25.58300018310547 5.72599983215332,-20.868999481201172 -1.434999942779541,-20.250999450683594 C-8.595999717712402,-19.634000778198242 -15.015000343322754,-23.347000122070312 -15.21500015258789,-28.58099937438965 C-15.666000366210938,-40.387001037597656 10.265000343322754,-42.862998962402344 10.715999603271484,-30.816999435424805z"></path></g><g opacity="1" transform="matrix(1,0,0,1,0,0)"><path fill="rgb(255,207,0)" fill-opacity="1" d=" M8.708999633789062,-33.64899826049805 C9.14799976348877,-29.77400016784668 4.295000076293945,-26.180999755859375 -1.899999976158142,-25.64699935913086 C-8.095000267028809,-25.113000869750977 -13.28499984741211,-27.839000701904297 -13.722999572753906,-31.714000701904297 C-14.61299991607666,-39.58399963378906 7.808000087738037,-41.595001220703125 8.708999633789062,-33.64899826049805z"></path></g><g opacity="1" transform="matrix(1,0,0,1,0,0)"><path fill="rgb(255,225,129)" fill-opacity="1" d=" M2.986999988555908,-36.479000091552734 C3.1389999389648438,-34.71799850463867 0.6949999928474426,-32.8380012512207 -2.496999979019165,-32.5629997253418 C-5.689000129699707,-32.28799819946289 -8.418000221252441,-33.72200012207031 -8.569999694824219,-35.483001708984375 C-8.722000122070312,-37.24399948120117 -6.210999965667725,-38.35100173950195 -3.0190000534057617,-38.625999450683594 C0.17299999296665192,-38.9010009765625 2.8350000381469727,-38.2400016784668 2.986999988555908,-36.479000091552734z"></path></g></g><g style="display: block;" transform="matrix(0.9648172855377197,0.018778121098876,-0.018778121098876,0.9648172855377197,254.71852111816406,263.407958984375)" opacity="1"><g opacity="1" transform="matrix(1,0,0,1,0,0)"><path fill="rgb(255,246,207)" fill-opacity="1" d=" M15.175000190734863,-61.03499984741211 C15.175000190734863,-61.03499984741211 15.107999801635742,-88.57099914550781 37.6510009765625,-92.81600189208984 C58.35499954223633,-96.71399688720703 69.7249984741211,-76.99400329589844 69.7249984741211,-76.99400329589844 C69.7249984741211,-76.99400329589844 62.9379997253418,-57.941001892089844 44.82899856567383,-54.36000061035156 C24.639999389648438,-50.367000579833984 15.175000190734863,-61.03499984741211 15.175000190734863,-61.03499984741211z"></path></g><g opacity="1" transform="matrix(1,0,0,1,0.5,-0.004999999888241291)"><g opacity="1" transform="matrix(1,0,0,1,0,0)"><path fill="url(#__lottie_element_23091)" fill-opacity="1" d=" M54.27899932861328,-75.63600158691406 C55.01900100708008,-67.05799865722656 49.055999755859375,-59.53799819946289 40.96200180053711,-58.84000015258789 C32.86800003051758,-58.141998291015625 25.70599937438965,-64.52999877929688 24.965999603271484,-73.10800170898438 C24.22599983215332,-81.68599700927734 30.18899917602539,-89.20500183105469 38.28300094604492,-89.90299987792969 C46.37699890136719,-90.60099792480469 53.53900146484375,-84.21399688720703 54.27899932861328,-75.63600158691406z"></path></g><g opacity="1" transform="matrix(1,0,0,1,0,0)"><path fill="rgb(23,19,10)" fill-opacity="1" d=" M48.8849983215332,-75.16999816894531 C49.35200119018555,-69.7490005493164 45.584999084472656,-64.99700164794922 40.46900177001953,-64.55599975585938 C35.35300064086914,-64.11499786376953 30.82699966430664,-68.1520004272461 30.360000610351562,-73.572998046875 C29.89299964904785,-78.99400329589844 33.65999984741211,-83.74700164794922 38.7760009765625,-84.18800354003906 C43.891998291015625,-84.62899780273438 48.417999267578125,-80.59100341796875 48.8849983215332,-75.16999816894531z"></path></g><g opacity="1" transform="matrix(1,0,0,1,0,0)"><path fill="rgb(245,245,245)" fill-opacity="1" d=" M38.071998596191406,-82.76499938964844 C38.25,-80.70600128173828 36.819000244140625,-78.9010009765625 34.875999450683594,-78.73400115966797 C32.93299865722656,-78.56600189208984 31.21500015258789,-80.0989990234375 31.03700065612793,-82.15799713134766 C30.858999252319336,-84.21700286865234 32.290000915527344,-86.02200317382812 34.233001708984375,-86.18900299072266 C36.17599868774414,-86.35600280761719 37.89400100708008,-84.8239974975586 38.071998596191406,-82.76499938964844z"></path></g><g opacity="1" transform="matrix(1,0,0,1,0,0)"><path stroke-linecap="round" stroke-linejoin="round" fill-opacity="0" stroke="rgb(235,147,0)" stroke-opacity="1" stroke-width="3.5" d=" M50.84600067138672,-70.91999816894531 C50.05400085449219,-67.38600158691406 47.68000030517578,-64.45899963378906 44.492000579833984,-63.10300064086914"></path></g></g><g opacity="1" transform="matrix(1,0,0,1,0,0)"><path fill="rgb(253,205,0)" fill-opacity="1" d=" M14.855999946594238,-60.37300109863281 C19.707000732421875,-54.18299865722656 57.28099822998047,-40.79199981689453 70.06300354003906,-76.96900177001953 C70.06300354003906,-76.96900177001953 70.24099731445312,-53.87099838256836 47.57699966430664,-48.72200012207031 C33.53200149536133,-45.53099822998047 20.05900001525879,-49.39699935913086 14.855999946594238,-60.37300109863281z"></path></g><g opacity="1" transform="matrix(-0.9903432130813599,-0.13863728940486908,0.13863728940486908,-0.9903432130813599,91.05445098876953,-138.4006805419922)"><path fill="rgb(253,205,0)" fill-opacity="1" d=" M13.3100004196167,-63.37300109863281 C13.541999816894531,-62.196998596191406 25.606000900268555,-47.74599838256836 46.207000732421875,-53.04499816894531 C61.382999420166016,-56.94900131225586 65.76399993896484,-72.20999908447266 64.93199920654297,-87.11699676513672 C64.93199920654297,-87.11699676513672 67.59500122070312,-59.12300109863281 46.858001708984375,-53.066001892089844 C33.03200149536133,-49.02799987792969 21.014999389648438,-51.80699920654297 13.3100004196167,-63.37300109863281z"></path></g><g opacity="1" transform="matrix(1,0,0,1,0,0)"><path fill="rgb(126,51,0)" fill-opacity="1" d=" M15.175000190734863,-61.03499984741211 C15.175000190734863,-61.03499984741211 13.642999649047852,-90.48999786376953 38.930999755859375,-93.77400207519531 C61.45000076293945,-96.697998046875 69.7249984741211,-76.99400329589844 69.7249984741211,-76.99400329589844 C69.7249984741211,-76.99400329589844 61.20000076293945,-94.06999969482422 39.94599914550781,-91.52400207519531 C15.194000244140625,-88.55899810791016 15.175000190734863,-61.03499984741211 15.175000190734863,-61.03499984741211z"></path><path stroke-linecap="round" stroke-linejoin="round" fill-opacity="0" stroke="rgb(126,51,0)" stroke-opacity="1" stroke-width="2" d=" M15.175000190734863,-61.03499984741211 C15.175000190734863,-61.03499984741211 13.642999649047852,-90.48999786376953 38.930999755859375,-93.77400207519531 C61.45000076293945,-96.697998046875 69.7249984741211,-76.99400329589844 69.7249984741211,-76.99400329589844 C69.7249984741211,-76.99400329589844 61.20000076293945,-94.06999969482422 39.94599914550781,-91.52400207519531 C15.194000244140625,-88.55899810791016 15.175000190734863,-61.03499984741211 15.175000190734863,-61.03499984741211z"></path></g></g><g style="display: block;" transform="matrix(0.9648172855377197,0.018778121098876,-0.018778121098876,0.9648172855377197,254.7190399169922,263.4070739746094)" opacity="1"><g opacity="1" transform="matrix(1,0,0,1,0,0)"><path fill="rgb(255,246,207)" fill-opacity="1" d=" M-23.847999572753906,-57.66999816894531 C-23.847999572753906,-57.66999816894531 -28.4950008392334,-84.81099700927734 -51.43299865722656,-85.13400268554688 C-72.49800109863281,-85.43000030517578 -80.26200103759766,-60.62099838256836 -80.26200103759766,-60.62099838256836 C-80.26200103759766,-60.62099838256836 -70.37699890136719,-46.44499969482422 -51.922000885009766,-46.016998291015625 C-31.347999572753906,-45.540000915527344 -23.847999572753906,-57.66999816894531 -23.847999572753906,-57.66999816894531z"></path></g><g opacity="1" transform="matrix(1,0,0,1,0,0)"><g opacity="1" transform="matrix(1,0,0,1,0,0)"><path fill="url(#__lottie_element_23087)" fill-opacity="1" d=" M-34.60300064086914,-67.802001953125 C-33.862998962402344,-59.2239990234375 -39.82600021362305,-51.70399856567383 -47.91999816894531,-51.00600051879883 C-56.013999938964844,-50.30799865722656 -63.17599868774414,-56.69599914550781 -63.91600036621094,-65.27400207519531 C-64.65599822998047,-73.85199737548828 -58.69300079345703,-81.37100219726562 -50.5989990234375,-82.06900024414062 C-42.505001068115234,-82.76699829101562 -35.34299850463867,-76.37999725341797 -34.60300064086914,-67.802001953125z"></path></g><g opacity="1" transform="matrix(1,0,0,1,0,0)"><path fill="rgb(23,19,10)" fill-opacity="1" d=" M-39.99700164794922,-67.33599853515625 C-39.529998779296875,-61.915000915527344 -43.297000885009766,-57.16299819946289 -48.41299819946289,-56.72200012207031 C-53.52899932861328,-56.28099822998047 -58.05500030517578,-60.31800079345703 -58.52199935913086,-65.73899841308594 C-58.98899841308594,-71.16000366210938 -55.22200012207031,-75.91300201416016 -50.10599899291992,-76.35399627685547 C-44.9900016784668,-76.79499816894531 -40.4640007019043,-72.75700378417969 -39.99700164794922,-67.33599853515625z"></path></g><g opacity="1" transform="matrix(1,0,0,1,0,0)"><path fill="rgb(245,245,245)" fill-opacity="1" d=" M-50.810001373291016,-74.93000030517578 C-50.63199996948242,-72.87100219726562 -52.0629997253418,-71.06700134277344 -54.00600051879883,-70.9000015258789 C-55.94900131225586,-70.73300170898438 -57.667999267578125,-72.26499938964844 -57.845001220703125,-74.3239974975586 C-58.02299880981445,-76.38300323486328 -56.59199905395508,-78.18800354003906 -54.64899826049805,-78.3550033569336 C-52.70600128173828,-78.52200317382812 -50.987998962402344,-76.98899841308594 -50.810001373291016,-74.93000030517578z"></path></g><g opacity="1" transform="matrix(1,0,0,1,0,0)"><path stroke-linecap="round" stroke-linejoin="round" fill-opacity="0" stroke="rgb(235,147,0)" stroke-opacity="1" stroke-width="3.5" d=" M-38.0359992980957,-63.08599853515625 C-38.82899856567383,-59.551998138427734 -41.20100021362305,-56.624000549316406 -44.38999938964844,-55.26900100708008"></path></g></g><g opacity="1" transform="matrix(1,0,0,1,0,0)"><path fill="rgb(253,205,0)" fill-opacity="1" d=" M-23.323999404907227,-57.45800018310547 C-24.291000366210938,-51.513999938964844 -57.31100082397461,-30.659000396728516 -80.92500305175781,-60.08599853515625 C-80.92500305175781,-60.08599853515625 -79.49500274658203,-36.89899826049805 -48.88999938964844,-35.89899826049805 C-33.85200119018555,-35.40800094604492 -23.785999298095703,-45.56399917602539 -23.323999404907227,-57.45800018310547z"></path></g><g opacity="1" transform="matrix(-1,0,0,-1,-103.93599700927734,-123.89600372314453)"><path fill="rgb(253,205,0)" fill-opacity="1" d=" M-23.506999969482422,-63.53799819946289 C-24.427000045776367,-53.93199920654297 -36.21900177001953,-38.03200149536133 -51.96799850463867,-37.481998443603516 C-60.96799850463867,-37.167999267578125 -75.94400024414062,-42.354000091552734 -80.58000183105469,-66.18699645996094 C-80.58000183105469,-66.18699645996094 -79.64800262451172,-35.64500045776367 -52.32099914550781,-36.07699966430664 C-40.012001037597656,-36.27199935913086 -23.54800033569336,-45.46799850463867 -23.506999969482422,-63.53799819946289z"></path></g><g opacity="1" transform="matrix(1,0,0,1,0,0)"><path fill="rgb(126,51,0)" fill-opacity="1" d=" M-23.847999572753906,-57.66999816894531 C-23.847999572753906,-57.66999816894531 -27.368000030517578,-86.56800079345703 -52.858001708984375,-85.85900115966797 C-78.80000305175781,-85.13700103759766 -80.26200103759766,-60.62099838256836 -80.26200103759766,-60.62099838256836 C-80.26200103759766,-60.62099838256836 -76.73999786376953,-82.12100219726562 -53.472999572753906,-83.46800231933594 C-28.586000442504883,-84.90899658203125 -23.847999572753906,-57.66999816894531 -23.847999572753906,-57.66999816894531z"></path><path stroke-linecap="round" stroke-linejoin="round" fill-opacity="0" stroke="rgb(126,51,0)" stroke-opacity="1" stroke-width="2" d=" M-23.847999572753906,-57.66999816894531 C-23.847999572753906,-57.66999816894531 -27.368000030517578,-86.56800079345703 -52.858001708984375,-85.85900115966797 C-78.80000305175781,-85.13700103759766 -80.26200103759766,-60.62099838256836 -80.26200103759766,-60.62099838256836 C-80.26200103759766,-60.62099838256836 -76.73999786376953,-82.12100219726562 -53.472999572753906,-83.46800231933594 C-28.586000442504883,-84.90899658203125 -23.847999572753906,-57.66999816894531 -23.847999572753906,-57.66999816894531z"></path></g></g><g style="display: block;" transform="matrix(0.9648172855377197,0.018778121098876,-0.018778121098876,0.9648172855377197,254.7200164794922,263.4062805175781)" opacity="1"><g opacity="1" transform="matrix(1,0,0,1,0,0)"><path fill="rgb(126,51,0)" fill-opacity="1" d=" M-73.55400085449219,-95.04399871826172 C-61.29999923706055,-103.947998046875 -50.27399826049805,-104.60099792480469 -39.099998474121094,-99.69999694824219 C-49.92499923706055,-110.697998046875 -64.36299896240234,-106.46399688720703 -73.55400085449219,-95.04399871826172z"></path><path stroke-linecap="round" stroke-linejoin="round" fill-opacity="0" stroke="rgb(126,51,0)" stroke-opacity="1" stroke-width="2" d=" M-73.55400085449219,-95.04399871826172 C-61.29999923706055,-103.947998046875 -50.27399826049805,-104.60099792480469 -39.099998474121094,-99.69999694824219 C-49.92499923706055,-110.697998046875 -64.36299896240234,-106.46399688720703 -73.55400085449219,-95.04399871826172z"></path></g><g opacity="1" transform="matrix(1,0,0,1,0,0)"><path fill="rgb(126,51,0)" fill-opacity="1" d=" M56.74700164794922,-106.27999877929688 C40.78900146484375,-114.052001953125 31.88800048828125,-111.63600158691406 22.0049991607666,-104.96900177001953 C31.88800048828125,-117.822998046875 44.07500076293945,-116.01000213623047 56.74700164794922,-106.27999877929688z"></path><path stroke-linecap="round" stroke-linejoin="round" fill-opacity="0" stroke="rgb(126,51,0)" stroke-opacity="1" stroke-width="2" d=" M56.74700164794922,-106.27999877929688 C40.78900146484375,-114.052001953125 31.88800048828125,-111.63600158691406 22.0049991607666,-104.96900177001953 C31.88800048828125,-117.822998046875 44.07500076293945,-116.01000213623047 56.74700164794922,-106.27999877929688z"></path></g></g><g style="display: block;" transform="matrix(0.9648172855377197,0.018778121098876,-0.018778121098876,0.9648172855377197,254.71914672851562,263.40643310546875)" opacity="1"><g opacity="1" transform="matrix(1,0,0,1,0,0)"><path fill="rgb(126,51,0)" fill-opacity="1" d=" M27.482999801635742,-8.619000434875488 C23.680999755859375,-8.942999839782715 19.38599967956543,-11.144000053405762 12.218000411987305,-13.147000312805176 C5.392000198364258,-15.053999900817871 2.618000030517578,-10.57699966430664 0.38999998569488525,-10.277000427246094 C-1.8380000591278076,-9.97700023651123 -5.738999843597412,-13.772000312805176 -11.802000045776367,-10.10200023651123 C-19.009000778198242,-5.738999843597412 -20.051000595092773,-3.2899999618530273 -25.29800033569336,-1.50600004196167 C-27.641000747680664,-0.7089999914169312 -12.255000114440918,11.284000396728516 3.2090001106262207,9.199999809265137 C18.492000579833984,7.140999794006348 29.947999954223633,-8.409000396728516 27.482999801635742,-8.619000434875488z"></path></g><g opacity="1" transform="matrix(1,0,0,1,0,0)"><path fill="rgb(23,19,10)" fill-opacity="1" d=" M-19.416000366210938,-0.9800000190734863 C-16.323999404907227,-1.6059999465942383 -11.336999893188477,-3.312999963760376 -6.745999813079834,-3.931999921798706 C-3.628999948501587,-4.3520002365112305 -1.9290000200271606,-3.1730000972747803 0.9980000257492065,-3.566999912261963 C3.811000108718872,-3.946000099182129 5.170000076293945,-5.730000019073486 8.121000289916992,-6.127999782562256 C14.164999961853027,-6.941999912261963 18.224000930786133,-5.7170000076293945 21.636999130249023,-6.070000171661377 C21.636999130249023,-6.070000171661377 15.64900016784668,-6.639999866485596 8.61400032043457,-3.4079999923706055 C6.117000102996826,-2.260999917984009 4.290999889373779,-1.218000054359436 1.5429999828338623,-0.8040000200271606 C-1.4010000228881836,-0.36000001430511475 -2.9809999465942383,-0.6240000128746033 -6.138999938964844,-1.2669999599456787 C-13.12399959564209,-2.688999891281128 -19.416000366210938,-0.9800000190734863 -19.416000366210938,-0.9800000190734863z"></path><path stroke-linecap="round" stroke-linejoin="round" fill-opacity="0" stroke="rgb(23,19,10)" stroke-opacity="1" stroke-width="1" d=" M-19.416000366210938,-0.9800000190734863 C-16.323999404907227,-1.6059999465942383 -11.336999893188477,-3.312999963760376 -6.745999813079834,-3.931999921798706 C-3.628999948501587,-4.3520002365112305 -1.9290000200271606,-3.1730000972747803 0.9980000257492065,-3.566999912261963 C3.811000108718872,-3.946000099182129 5.170000076293945,-5.730000019073486 8.121000289916992,-6.127999782562256 C14.164999961853027,-6.941999912261963 18.224000930786133,-5.7170000076293945 21.636999130249023,-6.070000171661377 C21.636999130249023,-6.070000171661377 15.64900016784668,-6.639999866485596 8.61400032043457,-3.4079999923706055 C6.117000102996826,-2.260999917984009 4.290999889373779,-1.218000054359436 1.5429999828338623,-0.8040000200271606 C-1.4010000228881836,-0.36000001430511475 -2.9809999465942383,-0.6240000128746033 -6.138999938964844,-1.2669999599456787 C-13.12399959564209,-2.688999891281128 -19.416000366210938,-0.9800000190734863 -19.416000366210938,-0.9800000190734863z"></path></g></g><g style="display: block;" transform="matrix(0.9648172855377197,0.018778121098876,-0.018778121098876,0.9648172855377197,254.71881103515625,263.4071350097656)" opacity="1"><g opacity="1" transform="matrix(1,0,0,1,0,0)"><path fill="rgb(253,205,0)" fill-opacity="1" d=" M-60.83700180053711,-158.29800415039062 C-62.05099868774414,-122.00800323486328 -77.80999755859375,-92.2239990234375 -112.77899932861328,-71.03399658203125 C-122.46700286865234,-56.262001037597656 -124.59100341796875,-32.52899932861328 -126.65599822998047,-8.204999923706055 C-128.80099487304688,-31.39299964904785 -132.8000030517578,-175.197998046875 -68.83999633789062,-190.44400024414062 C-68.83999633789062,-190.44400024414062 -59.78300094604492,-214.06100463867188 -6.447000026702881,-209.406005859375 C70.4219970703125,-202.697998046875 108.69999694824219,-145.697998046875 126.31199645996094,-31.086000442504883 C119.72200012207031,-55.26900100708008 103.99199676513672,-87.16999816894531 71.94300079345703,-99.4530029296875 C71.94300079345703,-99.4530029296875 -9.13599967956543,-109.552001953125 -60.83700180053711,-158.29800415039062z"></path></g><g opacity="1" transform="matrix(1,0,0,1,0,0)"><path fill="rgb(235,157,0)" fill-opacity="1" d=" M102.46299743652344,-98.53399658203125 C102.46299743652344,-98.53399658203125 88.11199951171875,-100.51399993896484 71.94499969482422,-99.4489974975586 C71.94499969482422,-99.4489974975586 -9.135000228881836,-109.55000305175781 -60.8390007019043,-158.30099487304688 C-58.340999603271484,-122.90799713134766 -77.46299743652344,-94.3949966430664 -112.7760009765625,-71.03700256347656 C-112.7760009765625,-71.03700256347656 -126.73100280761719,-24.902000427246094 -126.73100280761719,-24.902000427246094 C-127.60800170898438,-35.132999420166016 -129.3000030517578,-66.53700256347656 -117.67400360107422,-77.13500213623047 C-117.67400360107422,-77.13500213623047 -94.18900299072266,-92.84100341796875 -82.41000366210938,-111.41000366210938 C-67.31600189208984,-135.2050018310547 -71.13099670410156,-164.61099243164062 -74.13600158691406,-172.4499969482422 C-78.51100158691406,-183.86199951171875 -103.1050033569336,-168.64599609375 -115.59400177001953,-130.74600219726562 C-100.31300354003906,-182.15499877929688 -75.63400268554688,-192.47000122070312 -68.83899688720703,-190.44200134277344 C-59.79999923706055,-213.947998046875 25.950000762939453,-223.447998046875 61.808998107910156,-182.86599731445312 C61.808998107910156,-182.86599731445312 25.187000274658203,-211.802001953125 -29.261999130249023,-200.94900512695312 C-65.9530029296875,-193.63499450683594 -59.1619987487793,-175.9149932861328 -54.444000244140625,-169.33999633789062 C-47.75299835205078,-160.01499938964844 -15.15999984741211,-131.6929931640625 28.825000762939453,-119.22100067138672 C66.45999908447266,-108.55000305175781 87.63099670410156,-106.71800231933594 102.46299743652344,-98.53399658203125z"></path></g><g opacity="1" transform="matrix(1,0,0,1,0,0)"><path stroke-linecap="round" stroke-linejoin="round" fill-opacity="0" stroke="rgb(185,96,0)" stroke-opacity="1" stroke-width="8" d=" M71.94300079345703,-99.4530029296875 C71.94300079345703,-99.4530029296875 -9.135000228881836,-109.552001953125 -60.83700180053711,-158.29800415039062 C-60.83700180053711,-158.29800415039062 -58.14400100708008,-124.97200012207031 -80.56400299072266,-98.91500091552734 C-95.58599853515625,-81.45600128173828 -112.77899932861328,-71.03399658203125 -112.77899932861328,-71.03399658203125 C-121.26899719238281,-60.027000427246094 -121.05000305175781,-30.697999954223633 -124.59200286865234,-0.5099999904632568 C-127.40899658203125,-23.832000732421875 -129.94900512695312,-59.46200180053711 -121.90799713134766,-103.87100219726562 C-108.36399841308594,-178.6719970703125 -76.68099975585938,-192.78599548339844 -68.83999633789062,-190.44400024414062 C-68.83999633789062,-190.44400024414062 -59.930999755859375,-211.83700561523438 -6.447000026702881,-209.406005859375 C47.0369987487793,-206.9759979248047 83.8949966430664,-170.41400146484375 102.83599853515625,-125.76699829101562 C116.59200286865234,-93.34400177001953 122.52300262451172,-55.63199996948242 125.6729965209961,-24.202999114990234 C125.6729965209961,-24.202999114990234 109.36699676513672,-89.95500183105469 71.94300079345703,-99.4530029296875z"></path></g><g opacity="1" transform="matrix(1,0,0,1,0,0)"><path fill="rgb(253,224,127)" fill-opacity="1" d=" M-75.49099731445312,-160.34500122070312 C-76.16000366210938,-168.10299682617188 -79.84500122070312,-174.1529998779297 -87.9000015258789,-168.87600708007812 C-92.75199890136719,-165.69700622558594 -97.93900299072266,-159.4250030517578 -95.24600219726562,-155.0469970703125 C-93.46900177001953,-152.15699768066406 -84.48500061035156,-153.2550048828125 -83.1520004272461,-145.34500122070312 C-81.08499908447266,-133.07699584960938 -74.27100372314453,-146.1999969482422 -75.49099731445312,-160.34500122070312z"></path></g><g opacity="1" transform="matrix(1,0,0,1,0,0)"><path fill="rgb(253,224,127)" fill-opacity="1" d=" M-1.659999966621399,-160.52099609375 C-30.30699920654297,-163.15699768066406 -45.71200180053711,-169.36500549316406 -50.479000091552734,-174.18800354003906 C-54.323001861572266,-178.0780029296875 -53.28300094604492,-183.0709991455078 -49.220001220703125,-186.71600341796875 C-46.00600051879883,-189.60000610351562 -32.194000244140625,-199.99000549316406 2.9509999752044678,-197.2830047607422 C22.96500015258789,-195.7429962158203 38.29600143432617,-189.35400390625 49.01900100708008,-179.7989959716797 C49.025001525878906,-179.79200744628906 49.025001525878906,-179.79200744628906 49.03099822998047,-179.78500366210938 C63.82699966430664,-165.2100067138672 46.207000732421875,-156.11700439453125 -1.659999966621399,-160.52099609375z"></path></g><g opacity="1" transform="matrix(1,0,0,1,0,0)"><g opacity="1" transform="matrix(1,0,0,1,0,0)"><path stroke-linecap="round" stroke-linejoin="round" fill-opacity="0" stroke="rgb(255,255,255)" stroke-opacity="1" stroke-width="6" d=" M9.590999603271484,-195.78500366210938 C10.762999534606934,-195.62899780273438 11.979999542236328,-195.4510040283203 13.236000061035156,-195.2480010986328"></path></g><g opacity="1" transform="matrix(1,0,0,1,0,0)"><path stroke-linecap="round" stroke-linejoin="round" fill-opacity="0" stroke="rgb(255,255,255)" stroke-opacity="1" stroke-width="6" d=" M-6.593999862670898,-196.87899780273438 C-6.593999862670898,-196.87899780273438 -2.934999942779541,-196.98399353027344 2.9260001182556152,-196.5030059814453"></path></g></g></g><g style="display: block;" transform="matrix(0.9649632573127747,0.008421107195317745,-0.008421107195317745,0.9649632573127747,256.2828674316406,255.781982421875)" opacity="1"><g opacity="1" transform="matrix(1,0,0,1,0,0)"><path fill="rgb(253,205,0)" fill-opacity="1" d=" M139.7220001220703,-28.559999465942383 C139.7220001220703,-28.559999465942383 139.7220001220703,-15.145999908447266 139.7220001220703,-15.145999908447266 C139.7220001220703,-15.145999908447266 164.23800659179688,-11.510000228881836 164.23800659179688,-11.510000228881836 C164.23800659179688,-11.510000228881836 167.0659942626953,-26.402000427246094 167.0659942626953,-26.402000427246094 C182.01800537109375,-30.697999954223633 232.7760009765625,-66.06400299072266 227.60800170898438,-76.31700134277344 C225.54100036621094,-80.41899871826172 222.39599609375,-82.2770004272461 222.39599609375,-82.2770004272461 C222.39599609375,-82.2770004272461 225.58200073242188,-87.08799743652344 222.4810028076172,-89.63899993896484 C218.87100219726562,-92.60800170898438 213.7100067138672,-89.25 210.23500061035156,-85.7750015258789 C210.23500061035156,-85.7750015258789 203.6439971923828,-91.3239974975586 197.03199768066406,-84.38500213623047 C191.39300537109375,-78.46700286865234 187.43099975585938,-72.65899658203125 174.0989990234375,-60.98899841308594 C174.0989990234375,-60.98899841308594 184.4759979248047,-80.93599700927734 177.53199768066406,-83.2770004272461 C172.5989990234375,-84.94000244140625 169.3699951171875,-81.67900085449219 164.0229949951172,-72.63099670410156 C155.96099853515625,-58.987998962402344 138.83700561523438,-58.67300033569336 135.01499938964844,-46.512001037597656 C131.1929931640625,-34.35100173950195 139.7220001220703,-28.559999465942383 139.7220001220703,-28.559999465942383z"></path></g><g opacity="1" transform="matrix(1,0,0,1,0,0)"><path fill="rgb(246,173,0)" fill-opacity="1" d=" M227.60699462890625,-76.31800079345703 C227.60699462890625,-76.31800079345703 212.63900756835938,-39.11000061035156 167.06700134277344,-26.398000717163086 C167.06700134277344,-26.398000717163086 164.23699951171875,-11.508000373840332 164.23699951171875,-11.508000373840332 C164.23699951171875,-11.508000373840332 139.7270050048828,-15.14799976348877 139.7270050048828,-15.14799976348877 C139.7270050048828,-15.14799976348877 139.7270050048828,-28.558000564575195 139.7270050048828,-28.558000564575195 C139.7270050048828,-28.558000564575195 131.3769989013672,-34.22800064086914 134.90699768066406,-46.13800048828125 C136.1269989013672,-40.86800003051758 143.61099243164062,-30.788999557495117 168.64700317382812,-38.077999114990234 C210.0989990234375,-50.145999908447266 227.60699462890625,-76.31800079345703 227.60699462890625,-76.31800079345703z"></path></g><g opacity="1" transform="matrix(1,0,0,1,0,0)"><path stroke-linecap="round" stroke-linejoin="round" fill-opacity="0" stroke="rgb(205,113,0)" stroke-opacity="1" stroke-width="8" d=" M139.7220001220703,-28.559999465942383 C139.7220001220703,-28.559999465942383 139.7220001220703,-15.145999908447266 139.7220001220703,-15.145999908447266 C139.7220001220703,-15.145999908447266 164.23800659179688,-11.510000228881836 164.23800659179688,-11.510000228881836 C164.23800659179688,-11.510000228881836 167.0659942626953,-26.402000427246094 167.0659942626953,-26.402000427246094 C167.0659942626953,-26.402000427246094 182.75900268554688,-31.882999420166016 201.5489959716797,-45.512001037597656 C217.59300231933594,-57.14899826049805 227.60800170898438,-71.7239990234375 227.60800170898438,-76.31700134277344 C227.60800170898438,-80.91000366210938 223.39599609375,-82.2770004272461 223.39599609375,-82.2770004272461 C223.39599609375,-82.2770004272461 224.10299682617188,-85.79900360107422 221.4810028076172,-88.63899993896484 C218.30999755859375,-92.0739974975586 213.7100067138672,-91.25 210.23500061035156,-87.7750015258789 C210.23500061035156,-87.7750015258789 204.6439971923828,-90.3239974975586 198.03199768066406,-83.38500213623047 C192.39300537109375,-77.46700286865234 185.36300659179688,-70.0510025024414 173.0989990234375,-61.98899841308594 C173.0989990234375,-61.98899841308594 184.4759979248047,-80.93599700927734 177.53199768066406,-83.2770004272461 C172.5989990234375,-84.94000244140625 168.3699951171875,-81.67900085449219 163.0229949951172,-72.63099670410156 C154.96099853515625,-58.987998962402344 138.83700561523438,-58.67300033569336 135.01499938964844,-46.512001037597656 C131.1929931640625,-34.35100173950195 139.7220001220703,-28.559999465942383 139.7220001220703,-28.559999465942383z"></path></g><g opacity="0.5" transform="matrix(1,0,0,1,0,0)"><path stroke-linecap="round" stroke-linejoin="round" fill-opacity="0" stroke="rgb(205,113,0)" stroke-opacity="1" stroke-width="4" d=" M212.63900756835938,-87.08799743652344 C212.63900756835938,-87.08799743652344 202.9499969482422,-73.75800323486328 191.59800720214844,-65.00700378417969"></path></g><g opacity="0.5" transform="matrix(1,0,0,1,0,0)"><path stroke-linecap="round" stroke-linejoin="round" fill-opacity="0" stroke="rgb(205,113,0)" stroke-opacity="1" stroke-width="4" d=" M225.14500427246094,-74.02100372314453 C227.2779998779297,-78.20500183105469 221.23500061035156,-84.63500213623047 214.94700622558594,-75.65599822998047 C211.25599670410156,-70.38500213623047 204.80999755859375,-64.05000305175781 196.6929931640625,-57.14899826049805"></path></g><g opacity="1" transform="matrix(1,0,0,1,0,0)"><path fill="rgb(253,224,127)" fill-opacity="1" d=" M150.6219940185547,-53.31100082397461 C147.76699829101562,-54.33700180053711 138.9600067138672,-47.25899887084961 140.6060028076172,-42.49300003051758 C142.48899841308594,-37.04199981689453 149.9810028076172,-38.79999923706055 149.3990020751953,-43.37300109863281 C148.55999755859375,-49.9630012512207 153.04100036621094,-52.44200134277344 150.6219940185547,-53.31100082397461z"></path></g></g><g style="display: block;" transform="matrix(0.9649632573127747,-0.00842110626399517,0.00842110626399517,0.9649632573127747,253.69961547851562,259.318115234375)" opacity="1"><g opacity="1" transform="matrix(1,0,0,1,0,0)"><path fill="rgb(253,205,0)" fill-opacity="1" d=" M-146.33900451660156,-38.92599868774414 C-146.33900451660156,-38.92599868774414 -147.5500030517578,-25.566999435424805 -147.5500030517578,-25.566999435424805 C-147.5500030517578,-25.566999435424805 -172.29400634765625,-24.160999298095703 -172.29400634765625,-24.160999298095703 C-172.29400634765625,-24.160999298095703 -173.76499938964844,-39.24599838256836 -173.76499938964844,-39.24599838256836 C-188.23300170898438,-42.698001861572266 -233.83599853515625,-81.2490005493164 -226.55099487304688,-92.4260025024414 C-224.04299926757812,-96.27400207519531 -220.822998046875,-97.88999938964844 -220.822998046875,-97.88999938964844 C-220.822998046875,-97.88999938964844 -223.6699981689453,-102.052001953125 -220.24200439453125,-105.2300033569336 C-216.81399536132812,-108.40799713134766 -211.54100036621094,-104.05000305175781 -208.39500427246094,-100.2760009765625 C-208.39500427246094,-100.2760009765625 -202.32899475097656,-105.20700073242188 -196.37100219726562,-97.6989974975586 C-191.2899932861328,-91.2959976196289 -189.86900329589844,-87.15299987792969 -177.64599609375,-74.3270034790039 C-177.64599609375,-74.3270034790039 -186.17799377441406,-95.12999725341797 -179.05099487304688,-96.83399963378906 C-173.98800659179688,-98.04499816894531 -171.06700134277344,-94.50599670410156 -166.5590057373047,-85.01200103759766 C-159.76300048828125,-70.6969985961914 -142.73699951171875,-68.83599853515625 -140.0290069580078,-56.37900161743164 C-137.3209991455078,-43.92300033569336 -146.33900451660156,-38.92599868774414 -146.33900451660156,-38.92599868774414z"></path></g><g opacity="1" transform="matrix(1,0,0,1,0,0)"><path fill="rgb(246,173,0)" fill-opacity="1" d=" M-146.34300231933594,-38.928001403808594 C-146.34300231933594,-38.928001403808594 -147.55299377441406,-25.56800079345703 -147.55299377441406,-25.56800079345703 C-147.55299377441406,-25.56800079345703 -172.29299926757812,-24.158000946044922 -172.29299926757812,-24.158000946044922 C-172.29299926757812,-24.158000946044922 -173.76300048828125,-39.24800109863281 -173.76300048828125,-39.24800109863281 C-217.48300170898438,-57.448001861572266 -226.55299377441406,-92.4280014038086 -226.55299377441406,-92.4280014038086 C-226.55299377441406,-92.4280014038086 -197.73500061035156,-51.500999450683594 -163.31300354003906,-49.428001403808594 C-139.7259979248047,-48.00699996948242 -146.60299682617188,-66.15799713134766 -146.60299682617188,-66.15799713134766 C-131.23300170898438,-53.3650016784668 -146.34300231933594,-38.928001403808594 -146.34300231933594,-38.928001403808594z"></path></g><g opacity="0.5" transform="matrix(1,0,0,1,0,0)"><path stroke-linecap="round" stroke-linejoin="round" fill-opacity="0" stroke="rgb(205,113,0)" stroke-opacity="1" stroke-width="4" d=" M-223.68499755859375,-86.68099975585938 C-227.6909942626953,-93.13200378417969 -220.77499389648438,-98.15899658203125 -216.13499450683594,-94.16799926757812 C-210.7790069580078,-89.56099700927734 -206.427001953125,-78.27999877929688 -197.73500061035156,-71.10299682617188"></path></g><g opacity="0.5" transform="matrix(1,0,0,1,0,0)"><path stroke-linecap="round" stroke-linejoin="round" fill-opacity="0" stroke="rgb(205,113,0)" stroke-opacity="1" stroke-width="4" d=" M-210.39500427246094,-102.2760009765625 C-210.39500427246094,-102.2760009765625 -203.23899841308594,-89.1510009765625 -191.53799438476562,-77.0270004272461"></path></g><g opacity="1" transform="matrix(1,0,0,1,0,0)"><path fill="rgb(253,224,127)" fill-opacity="1" d=" M-157.38400268554688,-60.99300003051758 C-161.47999572753906,-53.55400085449219 -173.62899780273438,-58.680999755859375 -173.63299560546875,-53.9379997253418 C-173.63600158691406,-50.16899871826172 -153.08399963378906,-48.19900131225586 -149.71299743652344,-54.5369987487793 C-146.46200561523438,-60.6510009765625 -155.61599731445312,-64.2040023803711 -157.38400268554688,-60.99300003051758z"></path></g><g opacity="1" transform="matrix(1,0,0,1,0,0)"><path stroke-linecap="round" stroke-linejoin="round" fill-opacity="0" stroke="rgb(205,113,0)" stroke-opacity="1" stroke-width="8" d=" M-146.33900451660156,-38.92599868774414 C-146.33900451660156,-38.92599868774414 -147.5500030517578,-25.566999435424805 -147.5500030517578,-25.566999435424805 C-147.5500030517578,-25.566999435424805 -172.29400634765625,-24.160999298095703 -172.29400634765625,-24.160999298095703 C-172.29400634765625,-24.160999298095703 -173.76499938964844,-39.24599838256836 -173.76499938964844,-39.24599838256836 C-173.76499938964844,-39.24599838256836 -189.6580047607422,-45.29499816894531 -206.38099670410156,-61.393001556396484 C-219.7519989013672,-74.26399993896484 -226.96600341796875,-87.85199737548828 -226.55099487304688,-92.4260025024414 C-226.13600158691406,-97 -221.822998046875,-97.88999938964844 -221.822998046875,-97.88999938964844 C-221.822998046875,-97.88999938964844 -223.21299743652344,-102.76399993896484 -219.24200439453125,-105.2300033569336 C-215.67999267578125,-107.44200134277344 -211.54100036621094,-106.05000305175781 -208.39500427246094,-102.2760009765625 C-208.39500427246094,-102.2760009765625 -200.08799743652344,-106.04299926757812 -195.37100219726562,-97.6989974975586 C-192.2689971923828,-92.21299743652344 -187.08900451660156,-83.84600067138672 -176.64599609375,-75.3270034790039 C-176.64599609375,-75.3270034790039 -186.17799377441406,-95.12999725341797 -179.05099487304688,-96.83399963378906 C-173.98800659179688,-98.04499816894531 -170.06700134277344,-94.50599670410156 -165.5590057373047,-85.01200103759766 C-158.76300048828125,-70.6969985961914 -144.04400634765625,-68.927001953125 -141.33599853515625,-56.470001220703125 C-138.6280059814453,-44.013999938964844 -146.33900451660156,-38.92599868774414 -146.33900451660156,-38.92599868774414z"></path></g></g><g style="display: block;" transform="matrix(0.964853048324585,-0.016841569915413857,0.016841569915413857,0.964853048324585,254.31494140625,262.32159423828125)" opacity="1"><g opacity="1" transform="matrix(1,0,0,1,0,0)"><path fill="rgb(84,0,95)" fill-opacity="1" d=" M-144.76800537109375,-13.897000312805176 C-144.76800537109375,-13.897000312805176 -144.81300354003906,-25.56800079345703 -146.35400390625,-34.012001037597656 C-146.35400390625,-34.012001037597656 -161.68600463867188,-36.87699890136719 -175.00999450683594,-33.44900131225586 C-175.00999450683594,-33.44900131225586 -176.33999633789062,-27.312000274658203 -175.88099670410156,-12.770000457763672 C-175.88099670410156,-12.770000457763672 -144.76800537109375,-13.897000312805176 -144.76800537109375,-13.897000312805176z"></path><path stroke-linecap="round" stroke-linejoin="round" fill-opacity="0" stroke="rgb(47,0,58)" stroke-opacity="1" stroke-width="8" d=" M-144.76800537109375,-13.897000312805176 C-144.76800537109375,-13.897000312805176 -144.81300354003906,-25.56800079345703 -146.35400390625,-34.012001037597656 C-146.35400390625,-34.012001037597656 -161.68600463867188,-36.87699890136719 -175.00999450683594,-33.44900131225586 C-175.00999450683594,-33.44900131225586 -176.33999633789062,-27.312000274658203 -175.88099670410156,-12.770000457763672 C-175.88099670410156,-12.770000457763672 -144.76800537109375,-13.897000312805176 -144.76800537109375,-13.897000312805176z"></path></g><g opacity="1" transform="matrix(1,0,0,1,0,0)"><g opacity="1" transform="matrix(1,0,0,1,0,0)"><path fill="rgb(147,18,149)" fill-opacity="1" d=" M-142.27499389648438,-12.6899995803833 C-142.27499389648438,-12.6899995803833 -158.55999755859375,-19.240999221801758 -178.91400146484375,-13.00100040435791 C-183.031005859375,-11.73900032043457 -203.24000549316406,147.8800048828125 -151.4239959716797,147.8800048828125 C-151.4239959716797,147.8800048828125 -137.24600219726562,81.79399871826172 -137.24600219726562,81.79399871826172 C-137.24600219726562,81.79399871826172 -135.84500122070312,0.10400000214576721 -142.27499389648438,-12.6899995803833z"></path></g><g opacity="0.5" transform="matrix(1,0,0,1,0,0)"><path fill="rgb(82,0,84)" fill-opacity="1" d=" M-147.81300354003906,132.27999877929688 C-147.81300354003906,132.27999877929688 -151.09800720214844,147.8159942626953 -151.09800720214844,147.8159942626953 C-167.3979949951172,147.8159942626953 -176.89300537109375,132.0850067138672 -181.67300415039062,110.3949966430664 C-178.13299560546875,125.29499816894531 -166.26300048828125,140.57000732421875 -147.81300354003906,132.27999877929688z"></path></g><g opacity="1" transform="matrix(1,0,0,1,0,0)"><path fill="rgb(204,35,204)" fill-opacity="1" d=" M-168.51199340820312,-3.7149999141693115 C-172.0399932861328,-0.3009999990463257 -183.92100524902344,77.33000183105469 -176.76499938964844,118.34600067138672 C-195.5050048828125,89.6500015258789 -181.1750030517578,-6.465000152587891 -178.91299438476562,-13.005000114440918 C-158.56300354003906,-19.2450008392334 -141.64300537109375,-11.234999656677246 -141.36300659179688,-10.255000114440918 C-141.36300659179688,-10.255000114440918 -163.86000061035156,-8.215999603271484 -168.51199340820312,-3.7149999141693115z"></path></g><g opacity="1" transform="matrix(1,0,0,1,0,0)"><path stroke-linecap="round" stroke-linejoin="round" fill-opacity="0" stroke="rgb(82,0,84)" stroke-opacity="1" stroke-width="8" d=" M-137.24000549316406,75.1520004272461 C-137.24000549316406,75.1520004272461 -136.81500244140625,-8.32699966430664 -142.27499389648438,-12.6899995803833 C-147.73500061035156,-17.05299949645996 -175.08900451660156,-15.4399995803833 -179.00399780273438,-12.005000114440918 C-180.96200561523438,-10.286999702453613 -185.47799682617188,29.667999267578125 -185.47799682617188,69.22599792480469 C-185.47799682617188,126.78299713134766 -168.5749969482422,147.8800048828125 -151.4239959716797,147.8800048828125"></path></g></g></g><g style="display: block;" transform="matrix(0.9649999737739563,0,0,0.9649999737739563,256.816162109375,262.3584899902344)" opacity="1"><g opacity="1" transform="matrix(1,0,0,1,0,0)"><path fill="rgb(84,0,95)" fill-opacity="1" d=" M134.07200622558594,-3.8580000400543213 C134.07200622558594,-3.8580000400543213 135.1719970703125,-15.47700023651123 137.468994140625,-23.746999740600586 C137.468994140625,-23.746999740600586 152.9969940185547,-25.21500015258789 165.95700073242188,-20.597999572753906 C165.95700073242188,-20.597999572753906 166.72799682617188,-14.366000175476074 164.95700073242188,0.07500000298023224 C164.95700073242188,0.07500000298023224 134.07200622558594,-3.8580000400543213 134.07200622558594,-3.8580000400543213z"></path><path stroke-linecap="round" stroke-linejoin="round" fill-opacity="0" stroke="rgb(47,0,58)" stroke-opacity="1" stroke-width="8" d=" M134.07200622558594,-3.8580000400543213 C134.07200622558594,-3.8580000400543213 135.1719970703125,-15.47700023651123 137.468994140625,-23.746999740600586 C137.468994140625,-23.746999740600586 152.9969940185547,-25.21500015258789 165.95700073242188,-20.597999572753906 C165.95700073242188,-20.597999572753906 166.72799682617188,-14.366000175476074 164.95700073242188,0.07500000298023224 C164.95700073242188,0.07500000298023224 134.07200622558594,-3.8580000400543213 134.07200622558594,-3.8580000400543213z"></path></g><g opacity="1" transform="matrix(1,0,0,1,0,0)"><path fill="url(#__lottie_element_23065)" fill-opacity="1" d=" M150.09800720214844,138.68099975585938 C150.09800720214844,138.68099975585938 152.1929931640625,134.35899353027344 150.09800720214844,138.68099975585938 C139.76100158691406,160.00599670410156 113.5,141.80599975585938 118.81600189208984,80.53800201416016 C118.91600036621094,79.39199829101562 118.84600067138672,81.697998046875 118.81600189208984,80.53800201416016 C119.70600128173828,68.99800109863281 124.5469970703125,8.255000114440918 131.4770050048828,-2.884999990463257 C131.4770050048828,-2.884999990463257 148.28700256347656,-7.934999942779541 167.9969940185547,0.11500000208616257 C171.4969940185547,1.5449999570846558 171.9290008544922,96.8239974975586 150.09800720214844,138.68099975585938z"></path></g><g opacity="0.5" transform="matrix(1,0,0,1,0,0)"><path fill="rgb(82,0,84)" fill-opacity="1" d=" M164.95700073242188,3.075000047683716 C164.95700073242188,3.075000047683716 145.593994140625,2.250999927520752 140.26699829101562,6.974999904632568 C134.50900268554688,12.081000328063965 121.66699981689453,84.32499694824219 121.66699981689453,84.32499694824219 C121.66699981689453,84.32499694824219 119.72200012207031,32.75199890136719 131.4770050048828,-2.884999990463257 C147.91299438476562,-4.854000091552734 158.42100524902344,-2.378999948501587 164.95700073242188,3.075000047683716z"></path></g><g opacity="1" transform="matrix(1,0,0,1,0,0)"><path stroke-linecap="round" stroke-linejoin="round" fill-opacity="0" stroke="rgb(70,0,74)" stroke-opacity="1" stroke-width="8" d=" M118.53199768066406,84.14700317382812 C118.53199768066406,84.14700317382812 125.64900207519531,0.9710000157356262 131.4810028076172,-2.88100004196167 C137.31300354003906,-6.732999801635742 164.40899658203125,-2.6559998989105225 167.9980010986328,1.11899995803833 C171.01400756835938,4.290999889373779 171.5780029296875,112.80699920654297 144.61599731445312,147.38600158691406"></path></g></g></g></svg>