<svg xmlns="http://www.w3.org/2000/svg" viewBox="0 0 512 512" width="512" height="512" style="width: 100%; height: 100%; transform: translate3d(0,0,0);" preserveAspectRatio="xMidYMid meet"><defs><clipPath id="__lottie_element_23220"><rect width="512" height="512" x="0" y="0"></rect></clipPath><linearGradient id="__lottie_element_23226" spreadMethod="pad" gradientUnits="userSpaceOnUse" x1="-36.233001708984375" y1="103.302001953125" x2="157.31100463867188" y2="79.0270004272461"><stop offset="0%" stop-color="rgb(51,142,218)"></stop><stop offset="40%" stop-color="rgb(26,105,166)"></stop><stop offset="86%" stop-color="rgb(0,67,114)"></stop></linearGradient><linearGradient id="__lottie_element_23246" spreadMethod="pad" gradientUnits="userSpaceOnUse" x1="-48.43000030517578" y1="-66.38500213623047" x2="-40.10100173950195" y2="-54.5099983215332"><stop offset="0%" stop-color="rgb(55,10,0)"></stop><stop offset="38%" stop-color="rgb(104,48,2)"></stop><stop offset="100%" stop-color="rgb(153,87,4)"></stop></linearGradient><linearGradient id="__lottie_element_23250" spreadMethod="pad" gradientUnits="userSpaceOnUse" x1="25.760000228881836" y1="-71.33000183105469" x2="35.52799987792969" y2="-58.70600128173828"><stop offset="0%" stop-color="rgb(55,10,0)"></stop><stop offset="38%" stop-color="rgb(104,48,2)"></stop><stop offset="100%" stop-color="rgb(153,87,4)"></stop></linearGradient><linearGradient id="__lottie_element_23260" spreadMethod="pad" gradientUnits="userSpaceOnUse" x1="133.76699829101562" y1="168.302001953125" x2="148.10899353027344" y2="29.097999572753906"><stop offset="0%" stop-color="rgb(6,89,143)"></stop><stop offset="50%" stop-color="rgb(29,116,181)"></stop><stop offset="100%" stop-color="rgb(51,142,218)"></stop></linearGradient></defs><g clip-path="url(#__lottie_element_23220)"><g style="display: block;" transform="matrix(0.9649632573127747,0.00842110626399517,-0.00842110626399517,0.9649632573127747,255.48573303222656,256.01531982421875)" opacity="1"><g opacity="1" transform="matrix(1,0,0,1,0,0)"><path fill="url(#__lottie_element_23226)" fill-opacity="1" d=" M80.62100219726562,77.7300033569336 C80.62100219726562,55.66999816894531 95.31700134277344,-3.3889999389648438 32.11199951171875,-3.3889999389648438 C16.02199935913086,-3.3889999389648438 -23.232999801635742,-5.769000053405762 -39.323001861572266,-5.769000053405762 C-102.52799987792969,-5.769000053405762 -90.10399627685547,55.66999816894531 -90.10399627685547,77.7300033569336 C-90.10399627685547,77.7300033569336 -83.51599884033203,132.96800231933594 -82.5009994506836,197.73199462890625 C-28.610000610351562,219.87100219726562 28.58300018310547,219.64599609375 88.9010009765625,198.25900268554688 C89.91600036621094,133.49400329589844 80.62100219726562,77.7300033569336 80.62100219726562,77.7300033569336z"></path></g><g opacity="0.15" transform="matrix(1,0,0,1,0,0)"><path fill="rgb(0,50,87)" fill-opacity="1" d=" M88.9000015258789,198.26199340820312 C35.74100112915039,222.3040008544922 -21.881000518798828,219.14700317382812 -82.5,197.73199462890625 C-83.33999633789062,144.70199584960938 -87.9000015258789,98.052001953125 -89.5199966430664,82.9020004272461 C-89.0999984741211,84.35199737548828 -75.05999755859375,130.74200439453125 0,130.74200439453125 C62.04999923706055,130.74200439453125 77.66000366210938,95.4520034790039 81.33000183105469,82.31199645996094 C83.4800033569336,96.9020004272461 89.75,144.4720001220703 88.9000015258789,198.26199340820312z"></path></g><g opacity="0.3" transform="matrix(1,0,0,1,0,0)"><path fill="rgb(0,50,87)" fill-opacity="1" d=" M88.89700317382812,199.26199340820312 C88.88800048828125,208.68099975585938 -17.170000076293945,222.05099487304688 -33.823001861572266,212.2519989013672 C-33.34299850463867,212.29200744628906 -32.84299850463867,212.32200622558594 -32.34299850463867,212.36199951171875 C94.00700378417969,221.36199951171875 78.27200317382812,96.15799713134766 76.85299682617188,79.33300018310547 C84.80000305175781,95.51200103759766 89.65699768066406,151.2220001220703 88.89700317382812,199.26199340820312z"></path></g><g opacity="1" transform="matrix(1,0,0,1,0,0)"><path fill="rgb(96,194,255)" fill-opacity="1" d=" M-10.512999534606934,214.64199829101562 C-56.52299880981445,211.9720001220703 -82.50299835205078,198.73199462890625 -82.50299835205078,198.73199462890625 C-88.08100128173828,143.802001953125 -86.93299865722656,78.73200225830078 -86.93299865722656,78.73200225830078 C-82.5270004272461,100.22000122070312 -72.29299926757812,191.9219970703125 -72.29299926757812,191.9219970703125 C-55.65299987792969,206.52200317382812 -11.812999725341797,214.40199279785156 -10.512999534606934,214.64199829101562z"></path></g><g opacity="1" transform="matrix(1,0,0,1,0,0)"><path stroke-linecap="round" stroke-linejoin="round" fill-opacity="0" stroke="rgb(0,93,170)" stroke-opacity="1" stroke-width="8" d=" M0,214.3159942626953 C-54.58000183105469,214.3159942626953 -82.5009994506836,198.73199462890625 -82.5009994506836,198.73199462890625 C-87.10399627685547,141.80599975585938 -90.10399627685547,78.7300033569336 -90.10399627685547,78.7300033569336"></path></g><g opacity="1" transform="matrix(1,0,0,1,0,0)"><path stroke-linecap="round" stroke-linejoin="round" fill-opacity="0" stroke="rgb(0,50,87)" stroke-opacity="1" stroke-width="8" d=" M80.62100219726562,78.7300033569336 C86.43900299072266,122.71399688720703 90.76699829101562,160.052001953125 88.9010009765625,199.25900268554688 C88.9010009765625,199.25900268554688 61.39500045776367,214.3159942626953 0,214.3159942626953"></path></g></g><g style="display: block;" transform="matrix(0.9649999737739563,0,0,0.9649999737739563,255.48513793945312,255.00909423828125)" opacity="1"><g opacity="1" transform="matrix(1,0,0,1,0,0)"><path fill="rgb(253,205,0)" fill-opacity="1" d=" M-146.33900451660156,-38.92599868774414 C-146.33900451660156,-38.92599868774414 -147.5500030517578,-25.566999435424805 -147.5500030517578,-25.566999435424805 C-147.5500030517578,-25.566999435424805 -172.29400634765625,-24.160999298095703 -172.29400634765625,-24.160999298095703 C-172.29400634765625,-24.160999298095703 -173.76499938964844,-39.24599838256836 -173.76499938964844,-39.24599838256836 C-188.23300170898438,-42.698001861572266 -233.83599853515625,-81.2490005493164 -226.55099487304688,-92.4260025024414 C-224.04299926757812,-96.27400207519531 -220.822998046875,-97.88999938964844 -220.822998046875,-97.88999938964844 C-220.822998046875,-97.88999938964844 -223.6699981689453,-102.052001953125 -220.24200439453125,-105.2300033569336 C-216.81399536132812,-108.40799713134766 -211.54100036621094,-104.05000305175781 -208.39500427246094,-100.2760009765625 C-208.39500427246094,-100.2760009765625 -202.32899475097656,-105.20700073242188 -196.37100219726562,-97.6989974975586 C-191.2899932861328,-91.2959976196289 -189.86900329589844,-87.15299987792969 -177.64599609375,-74.3270034790039 C-177.64599609375,-74.3270034790039 -186.17799377441406,-95.12999725341797 -179.05099487304688,-96.83399963378906 C-173.98800659179688,-98.04499816894531 -171.06700134277344,-94.50599670410156 -166.5590057373047,-85.01200103759766 C-159.76300048828125,-70.6969985961914 -142.73699951171875,-68.83599853515625 -140.0290069580078,-56.37900161743164 C-137.3209991455078,-43.92300033569336 -146.33900451660156,-38.92599868774414 -146.33900451660156,-38.92599868774414z"></path></g><g opacity="1" transform="matrix(1,0,0,1,0,0)"><path fill="rgb(246,173,0)" fill-opacity="1" d=" M-146.34300231933594,-38.928001403808594 C-146.34300231933594,-38.928001403808594 -147.55299377441406,-25.56800079345703 -147.55299377441406,-25.56800079345703 C-147.55299377441406,-25.56800079345703 -172.29299926757812,-24.158000946044922 -172.29299926757812,-24.158000946044922 C-172.29299926757812,-24.158000946044922 -173.76300048828125,-39.24800109863281 -173.76300048828125,-39.24800109863281 C-217.48300170898438,-57.448001861572266 -226.55299377441406,-92.4280014038086 -226.55299377441406,-92.4280014038086 C-226.55299377441406,-92.4280014038086 -197.73500061035156,-51.500999450683594 -163.31300354003906,-49.428001403808594 C-139.7259979248047,-48.00699996948242 -146.60299682617188,-66.15799713134766 -146.60299682617188,-66.15799713134766 C-131.23300170898438,-53.3650016784668 -146.34300231933594,-38.928001403808594 -146.34300231933594,-38.928001403808594z"></path></g><g opacity="0.5" transform="matrix(1,0,0,1,0,0)"><path stroke-linecap="round" stroke-linejoin="round" fill-opacity="0" stroke="rgb(205,113,0)" stroke-opacity="1" stroke-width="4" d=" M-223.68499755859375,-86.68099975585938 C-227.6909942626953,-93.13200378417969 -220.77499389648438,-98.15899658203125 -216.13499450683594,-94.16799926757812 C-210.7790069580078,-89.56099700927734 -206.427001953125,-78.27999877929688 -197.73500061035156,-71.10299682617188"></path></g><g opacity="0.5" transform="matrix(1,0,0,1,0,0)"><path stroke-linecap="round" stroke-linejoin="round" fill-opacity="0" stroke="rgb(205,113,0)" stroke-opacity="1" stroke-width="4" d=" M-210.39500427246094,-102.2760009765625 C-210.39500427246094,-102.2760009765625 -203.23899841308594,-89.1510009765625 -191.53799438476562,-77.0270004272461"></path></g><g opacity="1" transform="matrix(1,0,0,1,0,0)"><path fill="rgb(253,224,127)" fill-opacity="1" d=" M-157.38400268554688,-60.99300003051758 C-161.47999572753906,-53.55400085449219 -173.62899780273438,-58.680999755859375 -173.63299560546875,-53.9379997253418 C-173.63600158691406,-50.16899871826172 -153.08399963378906,-48.19900131225586 -149.71299743652344,-54.5369987487793 C-146.46200561523438,-60.6510009765625 -155.61599731445312,-64.2040023803711 -157.38400268554688,-60.99300003051758z"></path></g><g opacity="1" transform="matrix(1,0,0,1,0,0)"><path stroke-linecap="round" stroke-linejoin="round" fill-opacity="0" stroke="rgb(205,113,0)" stroke-opacity="1" stroke-width="8" d=" M-146.33900451660156,-38.92599868774414 C-146.33900451660156,-38.92599868774414 -147.5500030517578,-25.566999435424805 -147.5500030517578,-25.566999435424805 C-147.5500030517578,-25.566999435424805 -172.29400634765625,-24.160999298095703 -172.29400634765625,-24.160999298095703 C-172.29400634765625,-24.160999298095703 -173.76499938964844,-39.24599838256836 -173.76499938964844,-39.24599838256836 C-173.76499938964844,-39.24599838256836 -189.6580047607422,-45.29499816894531 -206.38099670410156,-61.393001556396484 C-219.7519989013672,-74.26399993896484 -226.96600341796875,-87.85199737548828 -226.55099487304688,-92.4260025024414 C-226.13600158691406,-97 -221.822998046875,-97.88999938964844 -221.822998046875,-97.88999938964844 C-221.822998046875,-97.88999938964844 -223.21299743652344,-102.76399993896484 -219.24200439453125,-105.2300033569336 C-215.67999267578125,-107.44200134277344 -211.54100036621094,-106.05000305175781 -208.39500427246094,-102.2760009765625 C-208.39500427246094,-102.2760009765625 -200.08799743652344,-106.04299926757812 -195.37100219726562,-97.6989974975586 C-192.2689971923828,-92.21299743652344 -187.08900451660156,-83.84600067138672 -176.64599609375,-75.3270034790039 C-176.64599609375,-75.3270034790039 -186.17799377441406,-95.12999725341797 -179.05099487304688,-96.83399963378906 C-173.98800659179688,-98.04499816894531 -170.06700134277344,-94.50599670410156 -165.5590057373047,-85.01200103759766 C-158.76300048828125,-70.6969985961914 -144.04400634765625,-68.927001953125 -141.33599853515625,-56.470001220703125 C-138.6280059814453,-44.013999938964844 -146.33900451660156,-38.92599868774414 -146.33900451660156,-38.92599868774414z"></path></g></g><g style="display: block;" transform="matrix(0.9649999737739563,0,0,0.9649999737739563,255.48513793945312,255.00909423828125)" opacity="1"><g opacity="1" transform="matrix(1,0,0,1,0,0)"><path fill="rgb(253,205,0)" fill-opacity="1" d=" M139.7220001220703,-28.559999465942383 C139.7220001220703,-28.559999465942383 139.7220001220703,-15.145999908447266 139.7220001220703,-15.145999908447266 C139.7220001220703,-15.145999908447266 164.23800659179688,-11.510000228881836 164.23800659179688,-11.510000228881836 C164.23800659179688,-11.510000228881836 167.0659942626953,-26.402000427246094 167.0659942626953,-26.402000427246094 C182.01800537109375,-30.697999954223633 232.7760009765625,-66.06400299072266 227.60800170898438,-76.31700134277344 C225.54100036621094,-80.41899871826172 222.39599609375,-82.2770004272461 222.39599609375,-82.2770004272461 C222.39599609375,-82.2770004272461 225.58200073242188,-87.08799743652344 222.4810028076172,-89.63899993896484 C218.87100219726562,-92.60800170898438 213.7100067138672,-89.25 210.23500061035156,-85.7750015258789 C210.23500061035156,-85.7750015258789 203.6439971923828,-91.3239974975586 197.03199768066406,-84.38500213623047 C191.39300537109375,-78.46700286865234 187.43099975585938,-72.65899658203125 174.0989990234375,-60.98899841308594 C174.0989990234375,-60.98899841308594 184.4759979248047,-80.93599700927734 177.53199768066406,-83.2770004272461 C172.5989990234375,-84.94000244140625 169.3699951171875,-81.67900085449219 164.0229949951172,-72.63099670410156 C155.96099853515625,-58.987998962402344 138.83700561523438,-58.67300033569336 135.01499938964844,-46.512001037597656 C131.1929931640625,-34.35100173950195 139.7220001220703,-28.559999465942383 139.7220001220703,-28.559999465942383z"></path></g><g opacity="1" transform="matrix(1,0,0,1,0,0)"><path fill="rgb(246,173,0)" fill-opacity="1" d=" M227.60699462890625,-76.31800079345703 C227.60699462890625,-76.31800079345703 212.63900756835938,-39.11000061035156 167.06700134277344,-26.398000717163086 C167.06700134277344,-26.398000717163086 164.23699951171875,-11.508000373840332 164.23699951171875,-11.508000373840332 C164.23699951171875,-11.508000373840332 139.7270050048828,-15.14799976348877 139.7270050048828,-15.14799976348877 C139.7270050048828,-15.14799976348877 139.7270050048828,-28.558000564575195 139.7270050048828,-28.558000564575195 C139.7270050048828,-28.558000564575195 131.3769989013672,-34.22800064086914 134.90699768066406,-46.13800048828125 C136.1269989013672,-40.86800003051758 143.61099243164062,-30.788999557495117 168.64700317382812,-38.077999114990234 C210.0989990234375,-50.145999908447266 227.60699462890625,-76.31800079345703 227.60699462890625,-76.31800079345703z"></path></g><g opacity="0.5" transform="matrix(1,0,0,1,0,0)"><path stroke-linecap="round" stroke-linejoin="round" fill-opacity="0" stroke="rgb(205,113,0)" stroke-opacity="1" stroke-width="4" d=" M212.63900756835938,-87.08799743652344 C212.63900756835938,-87.08799743652344 202.9499969482422,-73.75800323486328 191.59800720214844,-65.00700378417969"></path></g><g opacity="0.5" transform="matrix(1,0,0,1,0,0)"><path stroke-linecap="round" stroke-linejoin="round" fill-opacity="0" stroke="rgb(205,113,0)" stroke-opacity="1" stroke-width="4" d=" M225.14500427246094,-74.02100372314453 C227.2779998779297,-78.20500183105469 221.23500061035156,-84.63500213623047 214.94700622558594,-75.65599822998047 C211.25599670410156,-70.38500213623047 204.80999755859375,-64.05000305175781 196.6929931640625,-57.14899826049805"></path></g><g opacity="1" transform="matrix(1,0,0,1,0,0)"><path stroke-linecap="round" stroke-linejoin="round" fill-opacity="0" stroke="rgb(205,113,0)" stroke-opacity="1" stroke-width="8" d=" M139.7220001220703,-28.559999465942383 C139.7220001220703,-28.559999465942383 139.7220001220703,-15.145999908447266 139.7220001220703,-15.145999908447266 C139.7220001220703,-15.145999908447266 164.23800659179688,-11.510000228881836 164.23800659179688,-11.510000228881836 C164.23800659179688,-11.510000228881836 167.0659942626953,-26.402000427246094 167.0659942626953,-26.402000427246094 C167.0659942626953,-26.402000427246094 182.75900268554688,-31.882999420166016 201.5489959716797,-45.512001037597656 C217.59300231933594,-57.14899826049805 227.60800170898438,-71.7239990234375 227.60800170898438,-76.31700134277344 C227.60800170898438,-80.91000366210938 223.39599609375,-82.2770004272461 223.39599609375,-82.2770004272461 C223.39599609375,-82.2770004272461 224.10299682617188,-85.79900360107422 221.4810028076172,-88.63899993896484 C218.30999755859375,-92.0739974975586 213.7100067138672,-91.25 210.23500061035156,-87.7750015258789 C210.23500061035156,-87.7750015258789 204.6439971923828,-90.3239974975586 198.03199768066406,-83.38500213623047 C192.39300537109375,-77.46700286865234 185.36300659179688,-70.0510025024414 173.0989990234375,-61.98899841308594 C173.0989990234375,-61.98899841308594 184.4759979248047,-80.93599700927734 177.53199768066406,-83.2770004272461 C172.5989990234375,-84.94000244140625 168.3699951171875,-81.67900085449219 163.0229949951172,-72.63099670410156 C154.96099853515625,-58.987998962402344 138.83700561523438,-58.67300033569336 135.01499938964844,-46.512001037597656 C131.1929931640625,-34.35100173950195 139.7220001220703,-28.559999465942383 139.7220001220703,-28.559999465942383z"></path></g><g opacity="1" transform="matrix(1,0,0,1,0,0)"><path fill="rgb(253,224,127)" fill-opacity="1" d=" M151.10400390625,-53.12699890136719 C148.24899291992188,-54.15299987792969 139.89599609375,-47.180999755859375 141.54200744628906,-42.415000915527344 C143.4250030517578,-36.9640007019043 151.11099243164062,-38.507999420166016 150.5290069580078,-43.08100128173828 C149.69000244140625,-49.67100143432617 153.5229949951172,-52.257999420166016 151.10400390625,-53.12699890136719z"></path></g></g><g style="display: block;" transform="matrix(0.9649999737739563,0,0,0.9649999737739563,255.48573303222656,255.00938415527344)" opacity="1"><g opacity="1" transform="matrix(1,0,0,1,0,0)"><g opacity="1" transform="matrix(1,0,0,1,0,0)"><path fill="rgb(2,87,141)" fill-opacity="1" d=" M21.673999786376953,-12.038000106811523 C21.673999786376953,-12.038000106811523 78.43399810791016,-16.291000366210938 91.48799896240234,-5.140999794006348 C104.54199981689453,6.008999824523926 117.51899719238281,44.85900115966797 122.72200012207031,79.7760009765625 C124.83499908447266,93.95800018310547 150.13099670410156,121.62899780273438 150.6179962158203,136.01199340820312 C151.33099365234375,157.04100036621094 126.60900115966797,162.5760040283203 126.60900115966797,162.5760040283203 C126.60900115966797,162.5760040283203 96.43399810791016,163.468994140625 77.62100219726562,78.7300033569336 C73.2770004272461,45.61399841308594 61.38800048828125,21.152000427246094 24.618999481201172,26.125999450683594 C-2.802999973297119,29.834999084472656 21.673999786376953,-12.038000106811523 21.673999786376953,-12.038000106811523z"></path></g><g opacity="0.3" transform="matrix(1,0,0,1,0,0)"><path fill="rgb(0,50,87)" fill-opacity="1" d=" M157.6009979248047,104.73400115966797 C155.3260040283203,158.59300231933594 126.60700225830078,162.57200622558594 126.60700225830078,162.57200622558594 C126.60700225830078,162.57200622558594 99.552001953125,170.38499450683594 77.41500091552734,77.68699645996094 C73.58699798583984,61.65800094604492 77.9520034790039,53.4379997253418 80.61699676513672,60.34199905395508 C87.71600341796875,78.73200225830078 105.20500183105469,129.9709930419922 122.56700134277344,139.16200256347656 C145.26100158691406,151.17599487304688 156.80999755859375,112.13099670410156 157.6009979248047,104.73400115966797z"></path></g><g opacity="1" transform="matrix(1,0,0,1,0,0)"><path stroke-linecap="round" stroke-linejoin="round" fill-opacity="0" stroke="rgb(0,50,87)" stroke-opacity="1" stroke-width="8" d=" M80.62100219726562,78.7300033569336 C80.62100219726562,78.7300033569336 94.40299987792969,162.677001953125 126.60900115966797,162.5760040283203 C131.9290008544922,162.5590057373047 137.7209930419922,161.3300018310547 145.13600158691406,152.10299682617188"></path></g><g opacity="1" transform="matrix(1,0,0,1,0,0)"><path stroke-linecap="round" stroke-linejoin="round" fill-opacity="0" stroke="rgb(0,50,87)" stroke-opacity="1" stroke-width="8" d=" M17.83300018310547,-10.954999923706055 C17.83300018310547,-10.954999923706055 78.51499938964844,-17.34000015258789 94.08300018310547,-3.2170000076293945 C114.31199645996094,15.133999824523926 120.24199676513672,74.41200256347656 120.24199676513672,74.41200256347656"></path></g></g></g><g style="display: block;" transform="matrix(0.9649999737739563,0,0,0.9649999737739563,255.48513793945312,255.00897216796875)" opacity="1"><g opacity="1" transform="matrix(1,0,0,1,0,0)"><g opacity="1" transform="matrix(1,0,0,1,0,0)"><path fill="rgb(51,142,218)" fill-opacity="1" d=" M-28.158000946044922,-12.038000106811523 C-28.158000946044922,-12.038000106811523 -84.91799926757812,-16.291000366210938 -97.97200012207031,-5.140999794006348 C-111.0260009765625,6.008999824523926 -134.656005859375,44.84600067138672 -139.85899353027344,79.76300048828125 C-145.06199645996094,114.68000030517578 -150.9040069580078,152.5970001220703 -150.9040069580078,152.5970001220703 C-150.9040069580078,152.5970001220703 -117.6760025024414,158.57200622558594 -90.10399627685547,78.7300033569336 C-61.03099822998047,-5.456999778747559 -28.158000946044922,-12.038000106811523 -28.158000946044922,-12.038000106811523z"></path></g><g opacity="0.5" transform="matrix(1,0,0,1,0,0)"><path fill="rgb(0,93,170)" fill-opacity="1" d=" M-86.33699798583984,81.86799621582031 C-87.65699768066406,85.3479995727539 -88.79299926757812,74.94200134277344 -90.10299682617188,78.73200225830078 C-117.6729965209961,158.57200622558594 -150.9029998779297,152.5919952392578 -150.9029998779297,152.5919952392578 C-150.9029998779297,152.5919952392578 -149.9929962158203,146.70199584960938 -148.572998046875,137.4219970703125 C-142.31300354003906,134.8719940185547 -134.91400146484375,129.83999633789062 -127.39299774169922,120.5719985961914 C-101.80599975585938,89.04199981689453 -98.92500305175781,74.33699798583984 -92.16500091552734,61.367000579833984 C-88.50499725341797,54.356998443603516 -84.65299987792969,59.99700164794922 -86.33699798583984,81.86799621582031z"></path></g><g opacity="1" transform="matrix(1,0,0,1,0,0)"><path stroke-linecap="round" stroke-linejoin="round" fill-opacity="0" stroke="rgb(0,93,170)" stroke-opacity="1" stroke-width="8" d=" M-90.10399627685547,78.7300033569336 C-90.10399627685547,78.7300033569336 -113.03399658203125,155.1959991455078 -150.9040069580078,152.5970001220703"></path></g><g opacity="1" transform="matrix(1,0,0,1,0,0)"><path fill="rgb(96,194,255)" fill-opacity="1" d=" M-136.58999633789062,64.64600372314453 C-135.3699951171875,79.41600036621094 -134.72000122070312,81.86799621582031 -134.72000122070312,81.86799621582031 C-134.72000122070312,81.86799621582031 -108.48899841308594,18.172000885009766 -92.16100311279297,5.892000198364258 C-82.98300170898438,-1.0110000371932983 -39.57099914550781,0.8119999766349792 -39.57099914550781,0.8119999766349792 C-39.57099914550781,0.8119999766349792 -39.57099914550781,-12.038000106811523 -39.57099914550781,-12.038000106811523 C-39.57099914550781,-12.038000106811523 -89.66100311279297,-12.23799991607666 -97.97100067138672,-5.138000011444092 C-109.63099670410156,4.811999797821045 -130.5500030517578,33.04600143432617 -136.58999633789062,64.64600372314453z"></path></g><g opacity="1" transform="matrix(1,0,0,1,0,0)"><path stroke-linecap="round" stroke-linejoin="round" fill-opacity="0" stroke="rgb(0,93,170)" stroke-opacity="1" stroke-width="8" d=" M-24.316999435424805,-10.954999923706055 C-24.316999435424805,-10.954999923706055 -84.9990005493164,-17.34000015258789 -100.56700134277344,-3.2170000076293945 C-120.79499816894531,15.133999824523926 -136.58999633789062,64.64600372314453 -136.58999633789062,64.64600372314453"></path></g></g></g><g style="display: block;" transform="matrix(0.9649632573127747,0.00842110626399517,-0.00842110626399517,0.9649632573127747,255.48573303222656,256.01531982421875)" opacity="1"><g opacity="0.8" transform="matrix(1,0,0,1,0,0)"><path fill="rgb(0,50,87)" fill-opacity="1" d=" M-75.44499969482422,-8.114999771118164 C-75.44499969482422,-8.114999771118164 -52.608001708984375,44.65399932861328 5.656000137329102,44.65399932861328 C59.393001556396484,44.65399932861328 79.25,1.6990000009536743 76.1050033569336,-8.35200023651123 C58.74100112915039,-14.779000282287598 -23.275999069213867,-8.086000442504883 -75.44499969482422,-8.114999771118164z"></path></g></g><g style="display: block;" transform="matrix(0.9649999737739563,0,0,0.9649999737739563,255.48513793945312,255.00909423828125)" opacity="1"><g opacity="1" transform="matrix(1,0,0,1,0,0)"><path fill="rgb(0,53,108)" fill-opacity="1" d=" M-144.2480010986328,-9.180000305175781 C-144.2480010986328,-9.180000305175781 -144.29400634765625,-20.85099983215332 -145.8350067138672,-29.295000076293945 C-145.8350067138672,-29.295000076293945 -161.16600036621094,-32.15999984741211 -174.49000549316406,-28.73200035095215 C-174.49000549316406,-28.73200035095215 -175.82000732421875,-22.594999313354492 -175.36099243164062,-8.053000450134277 C-175.36099243164062,-8.053000450134277 -144.2480010986328,-9.180000305175781 -144.2480010986328,-9.180000305175781z"></path><path stroke-linecap="round" stroke-linejoin="round" fill-opacity="0" stroke="rgb(0,24,50)" stroke-opacity="1" stroke-width="8" d=" M-144.2480010986328,-9.180000305175781 C-144.2480010986328,-9.180000305175781 -144.29400634765625,-20.85099983215332 -145.8350067138672,-29.295000076293945 C-145.8350067138672,-29.295000076293945 -161.16600036621094,-32.15999984741211 -174.49000549316406,-28.73200035095215 C-174.49000549316406,-28.73200035095215 -175.82000732421875,-22.594999313354492 -175.36099243164062,-8.053000450134277 C-175.36099243164062,-8.053000450134277 -144.2480010986328,-9.180000305175781 -144.2480010986328,-9.180000305175781z"></path></g><g opacity="1" transform="matrix(1,0,0,1,0,0)"><g opacity="1" transform="matrix(1,0,0,1,0,0)"><path fill="rgb(51,142,218)" fill-opacity="1" d=" M-141.7550048828125,-7.973999977111816 C-141.7550048828125,-7.973999977111816 -158.0399932861328,-14.52400016784668 -178.3939971923828,-8.284000396728516 C-182.51100158691406,-7.021999835968018 -202.72000122070312,152.5970001220703 -150.9040069580078,152.5970001220703 C-150.9040069580078,152.5970001220703 -136.7270050048828,86.51000213623047 -136.7270050048828,86.51000213623047 C-136.7270050048828,86.51000213623047 -135.3249969482422,4.820000171661377 -141.7550048828125,-7.973999977111816z"></path></g><g opacity="0.5" transform="matrix(1,0,0,1,0,0)"><path fill="rgb(0,93,170)" fill-opacity="1" d=" M-147.55299377441406,136.99200439453125 C-147.55299377441406,136.99200439453125 -150.9029998779297,152.5919952392578 -150.9029998779297,152.5919952392578 C-167.2030029296875,152.5919952392578 -176.3730010986328,136.802001953125 -181.1529998779297,115.11199951171875 C-177.61300659179688,130.01199340820312 -166.0030059814453,145.28199768066406 -147.55299377441406,136.99200439453125z"></path></g><g opacity="1" transform="matrix(1,0,0,1,0,0)"><path fill="rgb(96,194,255)" fill-opacity="1" d=" M-167.9929962158203,1.0019999742507935 C-171.18800354003906,4.0929999351501465 -182.3820037841797,66.2770004272461 -178.78700256347656,109.7979965209961 C-189.3820037841797,76.0270004272461 -180.16200256347656,-3.6500000953674316 -178.39300537109375,-8.288000106811523 C-158.04299926757812,-14.527999877929688 -141.1230010986328,-6.51800012588501 -140.84300231933594,-5.538000106811523 C-140.84300231933594,-5.538000106811523 -163.34100341796875,-3.499000072479248 -167.9929962158203,1.0019999742507935z"></path></g><g opacity="1" transform="matrix(1,0,0,1,0,0)"><path stroke-linecap="round" stroke-linejoin="round" fill-opacity="0" stroke="rgb(0,93,170)" stroke-opacity="1" stroke-width="8" d=" M-136.72000122070312,79.86799621582031 C-136.72000122070312,79.86799621582031 -136.2949981689453,-3.6110000610351562 -141.7550048828125,-7.973999977111816 C-147.21499633789062,-12.336999893188477 -174.56900024414062,-10.722999572753906 -178.48399353027344,-7.288000106811523 C-180.44200134277344,-5.570000171661377 -184.95799255371094,34.38399887084961 -184.95799255371094,73.94200134277344 C-184.95799255371094,131.49899291992188 -168.05499267578125,152.5970001220703 -150.9040069580078,152.5970001220703"></path></g></g></g><g style="display: block;" transform="matrix(0.9649999737739563,0,0,0.9649999737739563,255.48513793945312,255.00909423828125)" opacity="1"><g opacity="1" transform="matrix(1,0,0,1,0,0)"><path fill="rgb(0,53,108)" fill-opacity="1" d=" M134.5919952392578,0.859000027179718 C134.5919952392578,0.859000027179718 135.69200134277344,-10.760000228881836 137.98899841308594,-19.030000686645508 C137.98899841308594,-19.030000686645508 153.51699829101562,-20.49799919128418 166.4770050048828,-15.880999565124512 C166.4770050048828,-15.880999565124512 167.2480010986328,-9.64900016784668 165.4770050048828,4.791999816894531 C165.4770050048828,4.791999816894531 134.5919952392578,0.859000027179718 134.5919952392578,0.859000027179718z"></path><path stroke-linecap="round" stroke-linejoin="round" fill-opacity="0" stroke="rgb(0,24,50)" stroke-opacity="1" stroke-width="8" d=" M134.5919952392578,0.859000027179718 C134.5919952392578,0.859000027179718 135.69200134277344,-10.760000228881836 137.98899841308594,-19.030000686645508 C137.98899841308594,-19.030000686645508 153.51699829101562,-20.49799919128418 166.4770050048828,-15.880999565124512 C166.4770050048828,-15.880999565124512 167.2480010986328,-9.64900016784668 165.4770050048828,4.791999816894531 C165.4770050048828,4.791999816894531 134.5919952392578,0.859000027179718 134.5919952392578,0.859000027179718z"></path></g><g opacity="1" transform="matrix(1,0,0,1,0,0)"><path fill="url(#__lottie_element_23260)" fill-opacity="1" d=" M150.6179962158203,143.3979949951172 C150.6179962158203,143.3979949951172 152.71299743652344,139.0760040283203 150.6179962158203,143.3979949951172 C140.281005859375,164.72300720214844 114.0199966430664,146.5229949951172 119.33599853515625,85.25499725341797 C119.43599700927734,84.10900115966797 119.36599731445312,86.41500091552734 119.33599853515625,85.25499725341797 C120.22599792480469,73.71499633789062 125.06700134277344,12.972000122070312 131.9969940185547,1.8320000171661377 C131.9969940185547,1.8320000171661377 148.8070068359375,-3.2179999351501465 168.51699829101562,4.831999778747559 C172.01699829101562,6.26200008392334 172.44900512695312,101.54100036621094 150.6179962158203,143.3979949951172z"></path></g><g opacity="0.5" transform="matrix(1,0,0,1,0,0)"><path fill="rgb(0,93,170)" fill-opacity="1" d=" M165.4770050048828,7.791999816894531 C165.4770050048828,7.791999816894531 146.11399841308594,6.9679999351501465 140.78700256347656,11.692000389099121 C135.0290069580078,16.79800033569336 122.18699645996094,89.04199981689453 122.18699645996094,89.04199981689453 C122.18699645996094,89.04199981689453 120.24199676513672,37.46900177001953 131.9969940185547,1.8320000171661377 C148.43299865722656,-0.13699999451637268 158.9409942626953,2.3380000591278076 165.4770050048828,7.791999816894531z"></path></g><g opacity="1" transform="matrix(1,0,0,1,0,0)"><path stroke-linecap="round" stroke-linejoin="round" fill-opacity="0" stroke="rgb(0,61,105)" stroke-opacity="1" stroke-width="8" d=" M119.052001953125,88.86399841308594 C119.052001953125,88.86399841308594 126.16899871826172,5.686999797821045 132.00100708007812,1.8350000381469727 C137.83299255371094,-2.0169999599456787 164.9290008544922,2.059999942779541 168.51800537109375,5.835000038146973 C171.53399658203125,9.006999969482422 172.09800720214844,117.52400207519531 145.13600158691406,152.10299682617188"></path></g></g><g style="display: block;" transform="matrix(0.9648172855377197,0.018778121098876,-0.018778121098876,0.9648172855377197,255.4973907470703,256.0452880859375)" opacity="1"><g opacity="1" transform="matrix(1,0,0,1,0,0)"><path fill="rgb(246,173,0)" fill-opacity="1" d=" M-85.5739974975586,-76.27400207519531 C-85.5739974975586,-76.27400207519531 -93.31500244140625,-80.62100219726562 -96.59100341796875,-73.62899780273438 C-99.58799743652344,-67.23300170898438 -90.1709976196289,-36.29800033569336 -83.52400207519531,-31.7189998626709 C-79.43499755859375,-28.902000427246094 -75.63099670410156,-33.132999420166016 -75.63099670410156,-33.132999420166016 C-73.25900268554688,-35.071998596191406 -80.39199829101562,-70.3499984741211 -85.5739974975586,-76.27400207519531z"></path><path stroke-linecap="round" stroke-linejoin="round" fill-opacity="0" stroke="rgb(205,113,0)" stroke-opacity="1" stroke-width="8" d=" M-85.5739974975586,-76.27400207519531 C-85.5739974975586,-76.27400207519531 -93.31500244140625,-80.62100219726562 -96.59100341796875,-73.62899780273438 C-99.58799743652344,-67.23300170898438 -90.1709976196289,-36.29800033569336 -83.52400207519531,-31.7189998626709 C-79.43499755859375,-28.902000427246094 -75.63099670410156,-33.132999420166016 -75.63099670410156,-33.132999420166016 C-73.25900268554688,-35.071998596191406 -80.39199829101562,-70.3499984741211 -85.5739974975586,-76.27400207519531z"></path></g></g><g style="display: block;" transform="matrix(0.9648172855377197,0.018778121098876,-0.018778121098876,0.9648172855377197,255.4973907470703,256.0452880859375)" opacity="1"><g opacity="1" transform="matrix(1,0,0,1,0,0)"><path fill="rgb(246,173,0)" fill-opacity="1" d=" M68.29199981689453,-89.427001953125 C68.29199981689453,-89.427001953125 75.18299865722656,-95.0250015258789 79.5979995727539,-88.69000244140625 C83.63700103759766,-82.8949966430664 79.60800170898438,-50.81100082397461 73.83399963378906,-45.16999816894531 C70.28299713134766,-41.70000076293945 65.81500244140625,-45.2239990234375 65.81500244140625,-45.2239990234375 C63.14799880981445,-46.731998443603516 64.19100189208984,-82.70899963378906 68.29199981689453,-89.427001953125z"></path><path stroke-linecap="round" stroke-linejoin="round" fill-opacity="0" stroke="rgb(205,113,0)" stroke-opacity="1" stroke-width="8" d=" M68.29199981689453,-89.427001953125 C68.29199981689453,-89.427001953125 75.18299865722656,-95.0250015258789 79.5979995727539,-88.69000244140625 C83.63700103759766,-82.8949966430664 79.60800170898438,-50.81100082397461 73.83399963378906,-45.16999816894531 C70.28299713134766,-41.70000076293945 65.81500244140625,-45.2239990234375 65.81500244140625,-45.2239990234375 C63.14799880981445,-46.731998443603516 64.19100189208984,-82.70899963378906 68.29199981689453,-89.427001953125z"></path></g></g><g style="display: block;" transform="matrix(0.9648172855377197,0.018778121098876,-0.018778121098876,0.9648172855377197,255.4973907470703,256.0452880859375)" opacity="1"><g opacity="1" transform="matrix(1,0,0,1,0,0)"><path fill="rgb(253,205,0)" fill-opacity="1" d=" M69.16999816894531,-68.51699829101562 C73.30400085449219,-20.1560001373291 42.452999114990234,23.56100082397461 1.0499999523162842,27.100000381469727 C-40.35300064086914,30.638999938964844 -78.177001953125,-7.206999778747559 -82.31099700927734,-55.56800079345703 C-82.4209976196289,-56.85900115966797 -83.8740005493164,-73.9010009765625 -83.9729995727539,-75.16300201416016 C-92.66300201416016,-185.8090057373047 -57.14400100708008,-171.28799438476562 -16.20800018310547,-174.78700256347656 C23.655000686645508,-178.19500732421875 56.20899963378906,-189.91600036621094 67.35399627685547,-88.0989990234375 C67.78500366210938,-84.16400146484375 68.80599975585938,-72.7750015258789 69.16999816894531,-68.51699829101562z"></path><path stroke-linecap="round" stroke-linejoin="miter" fill-opacity="0" stroke-miterlimit="10" stroke="rgb(205,113,0)" stroke-opacity="1" stroke-width="8" d=" M69.16999816894531,-68.51699829101562 C73.30400085449219,-20.1560001373291 42.452999114990234,23.56100082397461 1.0499999523162842,27.100000381469727 C-40.35300064086914,30.638999938964844 -78.177001953125,-7.206999778747559 -82.31099700927734,-55.56800079345703 C-82.4209976196289,-56.85900115966797 -83.8740005493164,-73.9010009765625 -83.9729995727539,-75.16300201416016 C-92.66300201416016,-185.8090057373047 -57.14400100708008,-171.28799438476562 -16.20800018310547,-174.78700256347656 C23.655000686645508,-178.19500732421875 56.20899963378906,-189.91600036621094 67.35399627685547,-88.0989990234375 C67.78500366210938,-84.16400146484375 68.80599975585938,-72.7750015258789 69.16999816894531,-68.51699829101562z"></path></g></g><g style="display: block;" transform="matrix(0.9648172855377197,0.018778121098876,-0.018778121098876,0.9648172855377197,254.64862060546875,256.106201171875)" opacity="1"><g opacity="1" transform="matrix(1,0,0,1,0,0)"><path fill="rgb(255,247,212)" fill-opacity="1" d=" M11.477999687194824,-59.694000244140625 C11.477999687194824,-59.694000244140625 9.359999656677246,-71.89399719238281 17.395000457763672,-80.6259994506836 C24.29800033569336,-88.12799835205078 38.457000732421875,-88.66000366210938 46.275001525878906,-80.47200012207031 C52.641998291015625,-73.80500030517578 51.98500061035156,-65.34200286865234 51.98500061035156,-65.34200286865234 C51.98500061035156,-65.34200286865234 46.768001556396484,-58.67300033569336 35.03300094604492,-56.992000579833984 C20.10300064086914,-54.85300064086914 11.477999687194824,-59.694000244140625 11.477999687194824,-59.694000244140625z"></path></g><g opacity="1" transform="matrix(1,0,0,1,0.5,-0.004999999888241291)"><g opacity="1" transform="matrix(1,0,0,1,0,0)"><path fill="url(#__lottie_element_23250)" fill-opacity="1" d=" M42.917999267578125,-72.5250015258789 C43.52399826049805,-65.43099975585938 38.26499938964844,-59.18899917602539 31.17099952697754,-58.582000732421875 C24.07699966430664,-57.97600173950195 17.833999633789062,-63.23500061035156 17.22800064086914,-70.3290023803711 C16.621999740600586,-77.4229965209961 21.881000518798828,-83.66600036621094 28.975000381469727,-84.27200317382812 C36.069000244140625,-84.87899780273438 42.31100082397461,-79.61900329589844 42.917999267578125,-72.5250015258789z"></path></g><g opacity="1" transform="matrix(1,0,0,1,0,0)"><path fill="rgb(23,19,10)" fill-opacity="1" d=" M38.191001892089844,-72.12100219726562 C38.57400131225586,-67.63800048828125 35.25,-63.69200134277344 30.767000198364258,-63.308998107910156 C26.284000396728516,-62.92599868774414 22.33799934387207,-66.25 21.954999923706055,-70.73300170898438 C21.57200050354004,-75.21600341796875 24.895000457763672,-79.16200256347656 29.378999710083008,-79.54499816894531 C33.86199951171875,-79.9280014038086 37.80799865722656,-76.60399627685547 38.191001892089844,-72.12100219726562z"></path></g><g opacity="1" transform="matrix(1,0,0,1,0,0)"><path fill="rgb(253,247,209)" fill-opacity="1" d=" M28.7549991607666,-78.36499786376953 C28.900999069213867,-76.66300201416016 27.638999938964844,-75.16500091552734 25.93600082397461,-75.01899719238281 C24.233999252319336,-74.8740005493164 22.735000610351562,-76.13600158691406 22.59000015258789,-77.83799743652344 C22.444000244140625,-79.54100036621094 23.707000732421875,-81.03800201416016 25.409000396728516,-81.18399810791016 C27.11199951171875,-81.3290023803711 28.610000610351562,-80.06800079345703 28.7549991607666,-78.36499786376953z"></path></g><g opacity="1" transform="matrix(1,0,0,1,0,0)"><path stroke-linecap="round" stroke-linejoin="round" fill-opacity="0" stroke="rgb(235,147,0)" stroke-opacity="1" stroke-width="3.5" d=" M39.88800048828125,-68.61100006103516 C39.176998138427734,-65.68399810791016 37.08399963378906,-63.25400161743164 34.284000396728516,-62.12099838256836"></path></g></g><g opacity="1" transform="matrix(1,0,0,1,75.69599914550781,-6.827000141143799)"><path fill="rgb(253,205,0)" fill-opacity="1" d=" M-47.422000885009766,-82.51000213623047 C-62.9630012512207,-79.36299896240234 -68.78199768066406,-71.69000244140625 -64.31300354003906,-52.40299987792969 C-65.6259994506836,-88.62100219726562 -26.823999404907227,-85.54499816894531 -22.677000045776367,-57.20800018310547 C-18.986000061035156,-71.5479965209961 -31.881000518798828,-85.65699768066406 -47.422000885009766,-82.51000213623047z"></path></g><g opacity="1" transform="matrix(1,0,0,1,75.69599914550781,-6.827000141143799)"><path fill="rgb(253,205,0)" fill-opacity="1" d=" M-19.351999282836914,-58.75199890136719 C-44.88999938964844,-39.6609992980957 -67.20999908447266,-53.470001220703125 -67.20999908447266,-53.470001220703125 C-67.20999908447266,-53.470001220703125 -69.14800262451172,-40.7760009765625 -44.34000015258789,-40.849998474121094 C-35.79199981689453,-40.875999450683594 -16.125999450683594,-46.069000244140625 -19.351999282836914,-58.75199890136719z"></path></g><g opacity="1" transform="matrix(1,0,0,1,0,0)"><path fill="rgb(133,63,0)" fill-opacity="1" d=" M11.477999687194824,-59.694000244140625 C8.710000038146973,-72.52999877929688 15.961999893188477,-86.5459976196289 29.950000762939453,-87.54399871826172 C42.527000427246094,-88.44100189208984 53.39899826049805,-78.15599822998047 51.98500061035156,-65.34200286865234 C51.25699996948242,-77.06500244140625 41.76300048828125,-86.3010025024414 29.780000686645508,-85.13200378417969 C16.909000396728516,-83.87699890136719 10.954999923706055,-71.50299835205078 11.477999687194824,-59.694000244140625z"></path><path stroke-linecap="round" stroke-linejoin="round" fill-opacity="0" stroke="rgb(133,63,0)" stroke-opacity="1" stroke-width="2" d=" M11.477999687194824,-59.694000244140625 C8.710000038146973,-72.52999877929688 15.961999893188477,-86.5459976196289 29.950000762939453,-87.54399871826172 C42.527000427246094,-88.44100189208984 53.39899826049805,-78.15599822998047 51.98500061035156,-65.34200286865234 C51.25699996948242,-77.06500244140625 41.76300048828125,-86.3010025024414 29.780000686645508,-85.13200378417969 C16.909000396728516,-83.87699890136719 10.954999923706055,-71.50299835205078 11.477999687194824,-59.694000244140625z"></path></g></g><g style="display: block;" transform="matrix(0.9648172855377197,0.018778121098876,-0.018778121098876,0.9648172855377197,254.6491241455078,256.1055908203125)" opacity="1"><g opacity="1" transform="matrix(1,0,0,1,0,0)"><path fill="rgb(253,247,209)" fill-opacity="1" d=" M-23.660999298095703,-56.689998626708984 C-23.660999298095703,-56.689998626708984 -23.64299964904785,-69.0719985961914 -33.04399871826172,-76.31400299072266 C-41.12099838256836,-82.53600311279297 -55.16400146484375,-80.65699768066406 -61.47999954223633,-71.26100158691406 C-66.62300109863281,-63.61000061035156 -64.53900146484375,-55.38100051879883 -64.53900146484375,-55.38100051879883 C-64.53900146484375,-55.38100051879883 -58.26599884033203,-49.694000244140625 -46.41600036621094,-50.02899932861328 C-31.34000015258789,-50.45500183105469 -23.660999298095703,-56.689998626708984 -23.660999298095703,-56.689998626708984z"></path></g><g opacity="1" transform="matrix(1,0,0,1,0,0)"><g opacity="1" transform="matrix(1,0,0,1,0,0)"><path fill="url(#__lottie_element_23246)" fill-opacity="1" d=" M-31.132999420166016,-66.19499969482422 C-30.525999069213867,-59.10100173950195 -35.7859992980957,-52.85900115966797 -42.880001068115234,-52.25199890136719 C-49.9739990234375,-51.645999908447266 -56.215999603271484,-56.904998779296875 -56.821998596191406,-63.999000549316406 C-57.428001403808594,-71.09300231933594 -52.16999816894531,-77.33499908447266 -45.07600021362305,-77.94100189208984 C-37.981998443603516,-78.5469970703125 -31.73900032043457,-73.28900146484375 -31.132999420166016,-66.19499969482422z"></path></g><g opacity="1" transform="matrix(1,0,0,1,0,0)"><path fill="rgb(23,19,10)" fill-opacity="1" d=" M-35.86000061035156,-65.79100036621094 C-35.47700119018555,-61.30799865722656 -38.79999923706055,-57.36199951171875 -43.284000396728516,-56.979000091552734 C-47.766998291015625,-56.59600067138672 -51.7130012512207,-59.91999816894531 -52.09600067138672,-64.40299987792969 C-52.479000091552734,-68.88600158691406 -49.15399932861328,-72.83100128173828 -44.67100143432617,-73.21399688720703 C-40.1879997253418,-73.59700012207031 -36.24300003051758,-70.27400207519531 -35.86000061035156,-65.79100036621094z"></path></g><g opacity="1" transform="matrix(1,0,0,1,0,0)"><path fill="rgb(245,245,245)" fill-opacity="1" d=" M-45.29499816894531,-72.03500366210938 C-45.150001525878906,-70.33300018310547 -46.41299819946289,-68.83499908447266 -48.1150016784668,-68.68900299072266 C-49.81800079345703,-68.54399871826172 -51.316001892089844,-69.80599975585938 -51.46099853515625,-71.50800323486328 C-51.60599899291992,-73.21099853515625 -50.34400177001953,-74.70800018310547 -48.64099884033203,-74.85399627685547 C-46.93899917602539,-74.9990005493164 -45.441001892089844,-73.73799896240234 -45.29499816894531,-72.03500366210938z"></path></g><g opacity="1" transform="matrix(1,0,0,1,0,0)"><path stroke-linecap="round" stroke-linejoin="round" fill-opacity="0" stroke="rgb(235,147,0)" stroke-opacity="1" stroke-width="3.5" d=" M-34.1619987487793,-62.28099822998047 C-34.874000549316406,-59.354000091552734 -36.965999603271484,-56.92399978637695 -39.76599884033203,-55.79100036621094"></path></g></g><g opacity="1" transform="matrix(1,0,0,1,0,0)"><path fill="rgb(253,205,0)" fill-opacity="1" d=" M-47.60599899291992,-80.11199951171875 C-63.14699935913086,-76.96499633789062 -66.52999877929688,-67.53700256347656 -65.89399719238281,-54.90999984741211 C-60.402000427246094,-89.61900329589844 -26.823999404907227,-85.54499816894531 -22.677000045776367,-57.20800018310547 C-22.702999114990234,-72.06800079345703 -32.064998626708984,-83.25900268554688 -47.60599899291992,-80.11199951171875z"></path></g><g opacity="1" transform="matrix(1,0,0,1,0,0)"><path fill="rgb(253,205,0)" fill-opacity="1" d=" M-19.351999282836914,-58.75199890136719 C-44.88999938964844,-39.6609992980957 -67.87000274658203,-54.67100143432617 -67.87000274658203,-54.67100143432617 C-67.87000274658203,-54.67100143432617 -67.50700378417969,-39.09000015258789 -42.69900131225586,-39.16400146484375 C-34.1510009765625,-39.189998626708984 -14.956999778747559,-44.03799819946289 -19.351999282836914,-58.75199890136719z"></path></g><g opacity="1" transform="matrix(1,0,0,1,0,0)"><path fill="rgb(133,63,0)" fill-opacity="1" d=" M-23.660999298095703,-56.689998626708984 C-23.11199951171875,-69.80999755859375 -32.63800048828125,-82.39199829101562 -46.59199905395508,-81.0009994506836 C-59.138999938964844,-79.75 -68.10800170898438,-67.76899719238281 -64.53900146484375,-55.38100051879883 C-65.81099700927734,-67.05699920654297 -58.02199935913086,-77.77100372314453 -46.01499938964844,-78.65299987792969 C-33.11800003051758,-79.5999984741211 -25.149999618530273,-68.41600036621094 -23.660999298095703,-56.689998626708984z"></path><path stroke-linecap="round" stroke-linejoin="round" fill-opacity="0" stroke="rgb(133,63,0)" stroke-opacity="1" stroke-width="2" d=" M-23.660999298095703,-56.689998626708984 C-23.11199951171875,-69.80999755859375 -32.63800048828125,-82.39199829101562 -46.59199905395508,-81.0009994506836 C-59.138999938964844,-79.75 -68.10800170898438,-67.76899719238281 -64.53900146484375,-55.38100051879883 C-65.81099700927734,-67.05699920654297 -58.02199935913086,-77.77100372314453 -46.01499938964844,-78.65299987792969 C-33.11800003051758,-79.5999984741211 -25.149999618530273,-68.41600036621094 -23.660999298095703,-56.689998626708984z"></path></g></g><g style="display: block;" transform="matrix(0.9648172855377197,0.018778121098876,-0.018778121098876,0.9648172855377197,254.64886474609375,256.10614013671875)" opacity="1"><g opacity="1" transform="matrix(1,0,0,1,0,0)"><path stroke-linecap="round" stroke-linejoin="round" fill-opacity="0" stroke="rgb(133,63,0)" stroke-opacity="1" stroke-width="9" d=" M17.586000442504883,-98.83699798583984 C17.586000442504883,-98.83699798583984 29.371999740600586,-102.63899993896484 40.7140007019043,-98.30599975585938"></path></g><g opacity="1" transform="matrix(1,0,0,1,0,0)"><path stroke-linecap="round" stroke-linejoin="round" fill-opacity="0" stroke="rgb(133,63,0)" stroke-opacity="1" stroke-width="9" d=" M-36.32400131225586,-94.22799682617188 C-36.32400131225586,-94.22799682617188 -48.58399963378906,-95.9749984741211 -59.0260009765625,-89.77999877929688"></path></g></g><g style="display: block;" transform="matrix(0.9648172855377197,0.018778121098876,-0.018778121098876,0.9648172855377197,255.4973907470703,256.0452880859375)" opacity="1"><g opacity="1" transform="matrix(1,0,0,1,0,0)"><path fill="rgb(245,171,0)" fill-opacity="1" d=" M57.20500183105469,-85.91500091552734 C56.10300064086914,-91.84400177001953 54.23899841308594,-95.63200378417969 50.50600051879883,-99.07499694824219 C43.30799865722656,-105.71499633789062 40.33100128173828,-114.90899658203125 39.45800018310547,-118.16999816894531 C39.28099822998047,-118.83100128173828 38.597999572753906,-119.1969985961914 37.93000030517578,-119.02999877929688 C-13.96399974822998,-106.072998046875 -50.895999908447266,-114.51399993896484 -57.667999267578125,-118.59400177001953 C-58.45399856567383,-119.06700134277344 -59.45899963378906,-118.54299926757812 -59.52899932861328,-117.63300323486328 C-60.356998443603516,-106.91200256347656 -63.47600173950195,-98.78500366210938 -70.38500213623047,-90.20600128173828 C-73.95999908447266,-85.76699829101562 -78.0989990234375,-79.47100067138672 -78.08499908447266,-78.90599822998047 C-117.50499725341797,-189.447998046875 94.86100006103516,-182.197998046875 57.20500183105469,-85.91500091552734z"></path></g><g opacity="1" transform="matrix(1,0,0,1,0,0)"><path fill="rgb(253,205,0)" fill-opacity="1" d=" M-71.06999969482422,-136.42799377441406 C-71.04900360107422,-137.14500427246094 -70.27899932861328,-137.5919952392578 -69.6510009765625,-137.23899841308594 C-64.38099670410156,-134.27499389648438 -44.10200119018555,-124.43000030517578 -9.472000122070312,-125.9520034790039 C24.361000061035156,-127.43900299072266 43.31700134277344,-133.2429962158203 47.816001892089844,-134.78199768066406 C48.3650016784668,-134.97000122070312 48.948001861572266,-134.63400268554688 49.05500030517578,-134.06700134277344 C49.74399948120117,-130.43499755859375 52.57099914550781,-118.2959976196289 61.3380012512207,-106.12899780273438 C62.12900161743164,-105.03099822998047 62.595001220703125,-103.73300170898438 62.71099853515625,-102.38700103759766 C62.71099853515625,-102.38700103759766 65.39800262451172,-71.15399932861328 65.39800262451172,-71.15399932861328 C65.48999786376953,-70.08699798583984 66.61900329589844,-69.38300323486328 67.59600067138672,-69.83499908447266 C69.54299926757812,-70.73600006103516 72.26599884033203,-73.76399993896484 72.94000244140625,-83.50599670410156 C74.01899719238281,-99.09200286865234 77.18900299072266,-124.74099731445312 70.46800231933594,-146.61099243164062 C63.74599838256836,-168.4810028076172 45.02799987792969,-189.4199981689453 8.21399974822998,-192.28199768066406 C-31.871000289916992,-195.3979949951172 -68.50800323486328,-183.69500732421875 -83.40599822998047,-158.08799743652344 C-83.77999877929688,-157.44500732421875 -84.23699951171875,-156.86000061035156 -84.8489990234375,-156.4340057373047 C-87.68900299072266,-154.45700073242188 -96.45600128173828,-147.05299377441406 -98.55899810791016,-129.8280029296875 C-100.76699829101562,-111.74099731445312 -96.0989990234375,-92.1240005493164 -93.29499816894531,-81.40899658203125 C-90.93299865722656,-72.38400268554688 -88.40899658203125,-61.2869987487793 -83.74800109863281,-57.22700119018555 C-82.68099975585938,-56.29800033569336 -80.48200225830078,-55.611000061035156 -80.60299682617188,-57.01599884033203 C-80.60299682617188,-57.01599884033203 -83.80799865722656,-89.64299774169922 -83.80799865722656,-89.64299774169922 C-83.9520034790039,-91.31600189208984 -83.53099822998047,-92.98500061035156 -82.62899780273438,-94.40499877929688 C-79.40399932861328,-99.48300170898438 -71.7249984741211,-113.85700225830078 -71.06999969482422,-136.42799377441406z"></path></g><g opacity="1" transform="matrix(1,0,0,1,0,0)"><path fill="rgb(253,224,127)" fill-opacity="1" d=" M-12.423999786376953,-145.28900146484375 C-43.577999114990234,-142.7449951171875 -61.22999954223633,-146.4709930419922 -67.23799896240234,-150.7100067138672 C-72.08300018310547,-154.12899780273438 -71.90799713134766,-159.63299560546875 -68.24400329589844,-164.26699829101562 C-65.34600067138672,-167.93299865722656 -52.51599884033203,-181.5590057373047 -14.395000457763672,-185.24000549316406 C7.313000202178955,-187.33700561523438 24.92300033569336,-183.406005859375 38.19300079345703,-175.2469940185547 C38.20000076293945,-175.24099731445312 38.20000076293945,-175.24099731445312 38.20800018310547,-175.23399353027344 C56.78099822998047,-162.4969940185547 39.63199996948242,-149.5399932861328 -12.423999786376953,-145.28900146484375z"></path></g><g opacity="1" transform="matrix(1,0,0,1,0,0)"><path fill="rgb(235,157,0)" fill-opacity="1" d=" M65.00700378417969,-70.49299621582031 C65.00700378417969,-70.49299621582031 58.97999954223633,-103.9990005493164 58.19499969482422,-105.10099792480469 C49.42300033569336,-117.26699829101562 46.31800079345703,-129.57400512695312 45.816001892089844,-129.28599548339844 C33.21500015258789,-122.072998046875 -50.323001861572266,-117.447998046875 -64.4469985961914,-132.01600646972656 C-64.94599914550781,-132.531005859375 -73.68399810791016,-99.75700378417969 -76.90899658203125,-94.67500305175781 C-77.80599975585938,-93.25900268554688 -76.16799926757812,-56.46699905395508 -76.16799926757812,-56.46699905395508 C-89.70099639892578,-58.292999267578125 -86.31900024414062,-94.78099822998047 -86.31900024414062,-94.78099822998047 C-86.87000274658203,-94.52300262451172 -88.16200256347656,-94.51899719238281 -88.16200256347656,-94.51899719238281 C-75.4520034790039,-113.41200256347656 -75.80799865722656,-128.73899841308594 -76.91000366210938,-137.8769989013672 C-77.75900268554688,-144.9239959716797 -79.48200225830078,-148.26300048828125 -81.82599639892578,-149.9949951171875 C-82.90899658203125,-150.79600524902344 -85.02999877929688,-150.7449951171875 -86.1050033569336,-149.9340057373047 C-97.65599822998047,-141.21400451660156 -99.09200286865234,-122.56800079345703 -99.09200286865234,-122.56800079345703 C-99.01899719238281,-124.99800109863281 -101.90499877929688,-199.197998046875 7.40500020980835,-195.531005859375 C44.31100082397461,-194.29299926757812 48.5629997253418,-179.531005859375 53.2869987487793,-174.36900329589844 C26.923999786376953,-203.697998046875 -61.64400100708008,-187.21200561523438 -74.98200225830078,-162.447998046875 C-76.31800079345703,-159.96800231933594 -77.4209976196289,-156.13800048828125 -74.85600280761719,-152.822998046875 C-63.76300048828125,-138.48500061035156 -43.01300048828125,-131.8730010986328 -4.986000061035156,-132.8979949951172 C35.75899887084961,-133.99600219726562 63.06399917602539,-143.30599975585938 63.678001403808594,-143.55299377441406 C59.612998962402344,-139.2030029296875 53.97100067138672,-135.1929931640625 53.97100067138672,-135.1929931640625 C56.90800094604492,-116.3489990234375 69.02799987792969,-104.072998046875 69.02799987792969,-104.072998046875 C67.62100219726562,-103.59700012207031 66.3949966430664,-103.80000305175781 66.3949966430664,-103.80000305175781 C68.3270034790039,-74.43099975585938 72.27799987792969,-72.822998046875 65.00700378417969,-70.49299621582031z"></path></g><g opacity="1" transform="matrix(1,0,0,1,0,0)"><path fill="rgb(253,224,127)" fill-opacity="1" d=" M-80.36499786376953,-132.36700439453125 C-79.87000274658203,-141.02000427246094 -83.58799743652344,-149.88600158691406 -87.50700378417969,-143.66700744628906 C-92.25299835205078,-136.13699340820312 -93.7979965209961,-124.06999969482422 -92.67900085449219,-113.61499786376953 C-92.24400329589844,-109.5479965209961 -87.72599792480469,-117.51799774169922 -83.39800262451172,-127.03099822998047 C-79.14800262451172,-136.3719940185547 -80.56700134277344,-128.83999633789062 -80.36499786376953,-132.36700439453125z"></path></g><g opacity="1" transform="matrix(1,0,0,1,0,0)"><path stroke-linecap="round" stroke-linejoin="round" fill-opacity="0" stroke="rgb(185,96,0)" stroke-opacity="1" stroke-width="8" d=" M-66.60600280761719,-131.072998046875 C-66.58499908447266,-131.7899932861328 -65.81500244140625,-132.23699951171875 -65.18699645996094,-131.88400268554688 C-59.91699981689453,-128.9199981689453 -43.6879997253418,-121.0510025024414 -9.057999610900879,-122.572998046875 C24.774999618530273,-124.05999755859375 40.34700012207031,-128.29100036621094 44.84600067138672,-129.8300018310547 C45.39500045776367,-130.01800537109375 45.97700119018555,-129.6820068359375 46.08399963378906,-129.11500549316406 C46.77299880981445,-125.48300170898438 48.90700149536133,-118.10700225830078 57.67399978637695,-105.94000244140625 C58.46500015258789,-104.84200286865234 58.93000030517578,-103.54399871826172 59.04600143432617,-102.197998046875 C59.04600143432617,-102.197998046875 62.67900085449219,-74.83399963378906 62.67900085449219,-74.83399963378906 C63.073001861572266,-70.78099822998047 65.39700317382812,-70.36199951171875 65.39700317382812,-70.36199951171875 C67.34400177001953,-71.26300048828125 71.37699890136719,-70.36499786376953 72.94000244140625,-83.50599670410156 C74.73600006103516,-98.5999984741211 79.46099853515625,-124.3280029296875 72.73999786376953,-146.197998046875 C66.01799774169922,-168.0679931640625 45.875999450683594,-191.58599853515625 9.062000274658203,-194.447998046875 C-31.023000717163086,-197.56399536132812 -70.02400207519531,-185.08200073242188 -84.9219970703125,-159.47500610351562 C-85.2959976196289,-158.83200073242188 -85.75299835205078,-158.2469940185547 -86.36499786376953,-157.8209991455078 C-89.20500183105469,-155.843994140625 -96.24099731445312,-148.62600708007812 -98.34400177001953,-131.4010009765625 C-100.552001953125,-113.31400299072266 -95.31500244140625,-94.06099700927734 -92.51100158691406,-83.34600067138672 C-90.14900207519531,-74.32099914550781 -86.9010009765625,-61.60300064086914 -82.40399932861328,-57.3650016784668 C-80.68499755859375,-55.744998931884766 -75.69499969482422,-56.03200149536133 -75.61100006103516,-60.6150016784668 C-75.61100006103516,-60.6150016784668 -78.08300018310547,-89.91500091552734 -78.08300018310547,-89.91500091552734 C-78.22699737548828,-91.58799743652344 -77.80599975585938,-93.25700378417969 -76.90399932861328,-94.677001953125 C-73.67900085449219,-99.75499725341797 -67.26100158691406,-108.50199890136719 -66.60600280761719,-131.072998046875z"></path></g><g opacity="1" transform="matrix(1,0,0,1,0,0)"><g opacity="1" transform="matrix(1,0,0,1,0,0)"><path stroke-linecap="round" stroke-linejoin="round" fill-opacity="0" stroke="rgb(255,255,255)" stroke-opacity="1" stroke-width="6" d=" M7.40500020980835,-184.77999877929688 C8.470000267028809,-184.63800048828125 9.576000213623047,-184.4770050048828 10.718000411987305,-184.29299926757812"></path></g><g opacity="1" transform="matrix(1,0,0,1,0,0)"><path stroke-linecap="round" stroke-linejoin="round" fill-opacity="0" stroke="rgb(255,255,255)" stroke-opacity="1" stroke-width="6" d=" M-7.307000160217285,-185.7790069580078 C-7.307000160217285,-185.7790069580078 -3.9800000190734863,-185.8719940185547 1.347000002861023,-185.4340057373047"></path></g></g></g><g style="display: block;" transform="matrix(0.9648172855377197,0.018778121098876,-0.018778121098876,0.9648172855377197,254.6494140625,256.1054382324219)" opacity="1"><g opacity="0.5" transform="matrix(1,0,0,1,0,0)"><path fill="rgb(207,114,0)" fill-opacity="1" d=" M10.201000213623047,-35.566001892089844 C10.74899959564209,-29.158000946044922 5.51800012588501,-23.47800064086914 -3.2750000953674316,-22.72599983215332 C-12.067999839782715,-21.974000930786133 -18.187000274658203,-26.68400001525879 -18.735000610351562,-33.09199905395508 C-19.283000946044922,-39.5 9.652999877929688,-41.9739990234375 10.201000213623047,-35.566001892089844z"></path></g><g opacity="1" transform="matrix(1,0,0,1,0,0)"><g opacity="1" transform="matrix(1,0,0,1,0,0)"><path fill="rgb(208,123,0)" fill-opacity="1" d=" M10.317999839782715,-37.770999908447266 C10.826000213623047,-31.826000213623047 4.625,-26.44099998474121 -3.5329999923706055,-25.743999481201172 C-11.690999984741211,-25.047000885009766 -18.715999603271484,-29.301000595092773 -19.224000930786133,-35.24599838256836 C-19.73200035095215,-41.191001892089844 -13.510000228881836,-46.323001861572266 -5.3520002365112305,-47.02000045776367 C2.805999994277954,-47.71699905395508 9.8100004196167,-43.715999603271484 10.317999839782715,-37.770999908447266z"></path></g><g opacity="1" transform="matrix(1,0,0,1,0,0)"><path fill="rgb(255,207,0)" fill-opacity="1" d=" M8.746999740600586,-40.50299835205078 C9.125,-36.07699966430664 3.1029999256134033,-31.277999877929688 -3.9539999961853027,-30.674999237060547 C-11.01099967956543,-30.07200050354004 -17.76099967956543,-33.77799987792969 -18.138999938964844,-38.20399856567383 C-18.517000198364258,-42.630001068115234 -12.409000396728516,-46.41699981689453 -5.3520002365112305,-47.02000045776367 C1.7050000429153442,-47.62300109863281 8.369000434875488,-44.92900085449219 8.746999740600586,-40.50299835205078z"></path></g><g opacity="1" transform="matrix(1,0,0,1,0,0)"><path fill="rgb(255,225,129)" fill-opacity="1" d=" M2.693000078201294,-43.847999572753906 C2.8940000534057617,-41.49599838256836 -0.3720000088214874,-38.987998962402344 -4.633999824523926,-38.624000549316406 C-8.895999908447266,-38.2599983215332 -12.538999557495117,-40.176998138427734 -12.739999771118164,-42.52899932861328 C-12.940999984741211,-44.88100051879883 -9.588000297546387,-46.35599899291992 -5.326000213623047,-46.720001220703125 C-1.0640000104904175,-47.08399963378906 2.492000102996826,-46.20000076293945 2.693000078201294,-43.847999572753906z"></path></g></g></g><g style="display: block;" transform="matrix(0.9648172855377197,0.018778121098876,-0.018778121098876,0.9648172855377197,254.6488800048828,256.1060485839844)" opacity="1"><g opacity="1" transform="matrix(1,0,0,1,0,0)"><path fill="rgb(246,173,0)" fill-opacity="1" d=" M18.006000518798828,0.07100000232458115 C18.27199935913086,3.187999963760376 10.793000221252441,9.109999656677246 1.0140000581741333,9.946000099182129 C-8.765000343322754,10.781999588012695 -17.142000198364258,6.215000152587891 -17.408000946044922,3.0980000495910645 C-17.673999786376953,-0.01899999938905239 -9.416999816894531,3.1519999504089355 0.3619999885559082,2.315999984741211 C10.140999794006348,1.4800000190734863 17.739999771118164,-3.0460000038146973 18.006000518798828,0.07100000232458115z"></path></g><g opacity="1" transform="matrix(1,0,0,1,0,0)"><g opacity="1" transform="matrix(1,0,0,1,0,0)"><path fill="rgb(136,24,4)" fill-opacity="1" d=" M23.43400001525879,-15.697999954223633 C20.312000274658203,-11.057999610900879 12.517999649047852,-2.8440001010894775 -0.09300000220537186,-1.847000002861023 C-12.54699993133545,-0.875 -22.615999221801758,-7.309999942779541 -26.95199966430664,-11.322999954223633 C-27.125999450683594,-11.482999801635742 -14.281999588012695,-12.685999870300293 -1.5199999809265137,-13.793000221252441 C11.062000274658203,-14.885000228881836 23.565000534057617,-15.883999824523926 23.43400001525879,-15.697999954223633z"></path></g></g><g opacity="1" transform="matrix(1,0,0,1,0,0)"><path stroke-linecap="round" stroke-linejoin="round" fill-opacity="0" stroke="rgb(56,2,4)" stroke-opacity="1" stroke-width="4" d=" M-25.73200035095215,-12.835000038146973 C-25.73200035095215,-12.835000038146973 21.93400001525879,-16.864999771118164 21.93400001525879,-16.864999771118164"></path></g></g></g></svg>