<svg xmlns="http://www.w3.org/2000/svg" viewBox="0 0 512 512" width="512" height="512" style="width: 100%; height: 100%; transform: translate3d(0,0,0);" preserveAspectRatio="xMidYMid meet"><defs><clipPath id="__lottie_element_2999"><rect width="512" height="512" x="0" y="0"></rect></clipPath></defs><g clip-path="url(#__lottie_element_2999)"><g style="display: block;" transform="matrix(-0.9499720335006714,-0.31233492493629456,-0.31233492493629456,0.9499720335006714,140.71322631835938,295.81610107421875)" opacity="1"><g opacity="1" transform="matrix(1,0,0,1,0,0)"><path fill="rgb(255,177,57)" fill-opacity="1" d=" M94.6989974975586,-6.910999774932861 C94.80899810791016,-26.224000930786133 1.7510000467300415,41.525001525878906 15.612000465393066,56.2859992980957 C38.26300048828125,80.40699768066406 75.57599639892578,79.77899932861328 82.52899932861328,51.19599914550781 C87.83000183105469,29.40399932861328 94.58899688720703,12.343999862670898 94.6989974975586,-6.910999774932861z"></path><path stroke-linecap="round" stroke-linejoin="miter" fill-opacity="0" stroke-miterlimit="4" stroke="rgb(247,126,65)" stroke-opacity="1" stroke-width="8" d=" M94.6989974975586,-6.910999774932861 C94.80899810791016,-26.224000930786133 1.7510000467300415,41.525001525878906 15.612000465393066,56.2859992980957 C38.26300048828125,80.40699768066406 75.57599639892578,79.77899932861328 82.52899932861328,51.19599914550781 C87.83000183105469,29.40399932861328 94.58899688720703,12.343999862670898 94.6989974975586,-6.910999774932861z"></path></g></g><g style="display: block;" transform="matrix(-1,0,0,1,251.69522094726562,240.78785705566406)" opacity="1"><g opacity="1" transform="matrix(1,0,0,1,0,0)"><path fill="rgb(255,209,64)" fill-opacity="1" d=" M158.87100219726562,-91.44400024414062 C176.85400390625,-85.06300354003906 194.6009979248047,-63.96900177001953 195.1929931640625,-49.28799819946289 C196.69400024414062,-12.038000106811523 205.25100708007812,45.70000076293945 205.9949951171875,66.9749984741211 C206.69400024414062,86.96199798583984 208.69400024414062,101.96199798583984 188.78399658203125,109.00700378417969 C146.13600158691406,124.0979995727539 125.09300231933594,87.4469985961914 96.21399688720703,64.28800201416016 C82.47699737548828,53.270999908447266 62.34600067138672,47.020999908447266 42.60900115966797,58.430999755859375 C22.87299919128418,69.84200286865234 -10.166000366210938,111.92400360107422 -23.07699966430664,111.16500091552734 C-47.805999755859375,109.71199798583984 -69.4209976196289,78.85700225830078 -78.11900329589844,65.21600341796875 C-93.34500122070312,41.3390007019043 -116.30599975585938,22.211999893188477 -129.85299682617188,19.225000381469727 C-151.19900512695312,14.519000053405762 -130.52699279785156,-102.61199951171875 -97.08899688720703,-99.46199798583984 C-57.4370002746582,-95.72699737548828 18.55500030517578,-95.76100158691406 42.60900115966797,-96.06999969482422 C97.26000213623047,-96.7699966430664 140.88699340820312,-97.82499694824219 158.87100219726562,-91.44400024414062z"></path></g></g><g style="display: block;" transform="matrix(-1,0,0,1,251.69522094726562,240.78785705566406)" opacity="1"><g opacity="1" transform="matrix(1,0,0,1,0,0)"><path fill="rgb(255,209,64)" fill-opacity="1" d=" M-128.85299682617188,17.725000381469727 C-149.822998046875,11.557000160217285 -184.97799682617188,11.557000160217285 -198.23899841308594,1.996999979019165 C-214.71299743652344,-9.880000114440918 -202.5570068359375,-108.09700012207031 -177.5780029296875,-111.18099975585938 C-152.5989990234375,-114.26399993896484 -130.52699279785156,-102.61199951171875 -97.08899688720703,-99.46199798583984 C-57.4370002746582,-95.72699737548828 -116.0260009765625,21.496999740600586 -128.85299682617188,17.725000381469727z"></path></g></g><g style="display: block;" transform="matrix(-1,0,0,1,211.60748291015625,326.5697326660156)" opacity="1"><g opacity="1" transform="matrix(1,0,0,1,0,0)"><path fill="rgb(255,209,64)" fill-opacity="1" d=" M32.43600082397461,-72.375 C37.678001403808594,-50.78799819946289 45.678001403808594,-33.69200134277344 55.87300109863281,-20.725000381469727 C72.5250015258789,0.4560000002384186 109.45099639892578,15.984999656677246 112.33999633789062,31.985000610351562 C118.10700225830078,63.93000030517578 91.60700225830078,83.93000030517578 64.42400360107422,76.41699981689453 C42.79399871826172,70.43900299072266 -0.6809999942779541,45.566001892089844 -26.381999969482422,39.71900177001953 C-91.39299774169922,24.93000030517578 -99.39299774169922,6.429999828338623 -114.87699890136719,-22.836000442504883 C-121.10099792480469,-34.5989990234375 27.19300079345703,-93.96199798583984 32.43600082397461,-72.375z"></path></g></g><g style="display: block;" transform="matrix(-1,0,0,1,276.24676513671875,307.2673645019531)" opacity="1"><g opacity="1" transform="matrix(1,0,0,1,0,0)"><path fill="rgb(255,177,57)" fill-opacity="1" d=" M-177.90199279785156,-91.72200012207031 C-164.64999389648438,-90.76399993896484 -141.13699340820312,-90.87000274658203 -123.94499969482422,-95.9540023803711 C-104.41000366210938,-101.7300033569336 -86.79100036621094,-75.65499877929688 -68.76000213623047,-54.61899948120117 C-49.74599838256836,-32.43600082397461 -28.226999282836914,12.779999732971191 -3.0260000228881836,21.375 C20.687999725341797,29.464000701904297 51.32600021362305,41.064998626708984 63.97700119018555,45.81399917602539 C83.20500183105469,53.03099822998047 103.70999908447266,61.52399826049805 123.53099822998047,68.93099975585938 C138.68800354003906,74.59600067138672 154.9219970703125,62.36899948120117 155.4530029296875,44.30500030517578 C155.6280059814453,38.358001708984375 153.66200256347656,33.194000244140625 142.3509979248047,22.882999420166016 C147.66400146484375,23.958999633789062 158.7689971923828,31.5049991607666 163.08900451660156,34.43299865722656 C183.30999755859375,48.14099884033203 178.73899841308594,62.775001525878906 173.2449951171875,74.73100280761719 C164.4709930419922,93.8280029296875 147.76400756835938,101.46099853515625 127.5469970703125,93.86799621582031 C104.78199768066406,85.31900024414062 46.34400177001953,58.6150016784668 -1.49399995803833,45.6150016784668 C-32.479000091552734,37.194000244140625 -63.810001373291016,-23.409000396728516 -90.7509994506836,-40.880001068115234 C-118.03600311279297,-58.57500076293945 -146.8939971923828,-53.41699981689453 -161.5189971923828,-56.823001861572266 C-176.1439971923828,-60.229000091552734 -178.2010040283203,-74.26899719238281 -177.90199279785156,-91.72200012207031z"></path></g></g><g style="display: block;" transform="matrix(-1,0,0,1,245.48789978027344,234.81680297851562)" opacity="1"><g opacity="1" transform="matrix(1,0,0,1,0,0)"><path fill="rgb(255,223,121)" fill-opacity="1" d=" M190.03799438476562,104.51200103759766 C192.281005859375,89.55000305175781 195.26800537109375,83.13800048828125 190.73899841308594,56.68600082397461 C181.8820037841797,4.955999851226807 183.5540008544922,-4.158999919891357 178.36399841308594,-37.37300109863281 C172.20799255371094,-76.77400207519531 133.9949951171875,-76.53700256347656 109.50299835205078,-76.63600158691406 C60.36000061035156,-76.83499908447266 -47.053001403808594,-75.83000183105469 -95.91400146484375,-80.47899627685547 C-126.26399993896484,-83.36599731445312 -154.0850067138672,-87.94400024414062 -175.10899353027344,-91.97000122070312 C-188.1529998779297,-94.46700286865234 -195.42300415039062,-77.45600128173828 -201.9409942626953,-61.79899978637695 C-201.63099670410156,-76.23200225830078 -190.99000549316406,-108.05599975585938 -177.85800170898438,-105.90399932861328 C-164.7259979248047,-103.7509994506836 -133.50100708007812,-95.21700286865234 -95.61799621582031,-93.66000366210938 C-50.76300048828125,-91.81700134277344 43.237998962402344,-91.31700134277344 111.6449966430664,-92.33499908447266 C137.83099365234375,-92.7249984741211 169.96099853515625,-85.42400360107422 181.83299255371094,-63.77000045776367 C193.7050018310547,-42.11600112915039 186.5540008544922,-12.414999961853027 198.78700256347656,47.32899856567383 C200.55299377441406,55.952999114990234 204.66099548339844,98.47000122070312 190.03799438476562,104.51200103759766z"></path></g><g opacity="1" transform="matrix(1,0,0,1,0,0)"><path stroke-linecap="round" stroke-linejoin="round" fill-opacity="0" stroke="rgb(255,255,255)" stroke-opacity="1" stroke-width="6" d=" M85.0469970703125,-76.66799926757812 C73.45700073242188,-76.66699981689453 60.48500061035156,-76.65799713134766 46.840999603271484,-76.68399810791016"></path></g><g opacity="1" transform="matrix(1,0,0,1,0,0)"><path stroke-linecap="round" stroke-linejoin="round" fill-opacity="0" stroke="rgb(255,255,255)" stroke-opacity="1" stroke-width="6" d=" M107.04499816894531,-76.6449966430664 C105.18800354003906,-76.6510009765625 103.25599670410156,-76.65499877929688 101.25499725341797,-76.65799713134766"></path></g></g><g style="display: block;" transform="matrix(-1,0,0,1,148.78118896484375,268.3363037109375)" opacity="1"><g opacity="1" transform="matrix(1,0,0,1,0,0)"><path fill="rgb(255,177,57)" fill-opacity="1" d=" M6.9730000495910645,-33.15700149536133 C-20.724000930786133,-29.104000091552734 -21.065000534057617,-39.41600036621094 -33.75199890136719,-37.724998474121094 C-37.481998443603516,-37.22700119018555 -46.54399871826172,-30.982999801635742 -45.540000915527344,-17.937999725341797 C-43.36199951171875,10.383999824523926 -22.37700080871582,34.71799850463867 -1.937999963760376,47.737998962402344 C-10.96500015258789,29.684999465942383 -24.113000869750977,0.7129999995231628 -24.7549991607666,-9.22700023651123 C-6.90500020980835,-8.692999839782715 38.5629997253418,-22.22100067138672 45.617000579833984,-43.16999816894531 C41.00899887084961,-56.444000244140625 32.79399871826172,-36.93600082397461 6.9730000495910645,-33.15700149536133z"></path></g></g><g style="display: block;" transform="matrix(-1,0,0,1,111.49501037597656,298.9129333496094)" opacity="1"><g opacity="1" transform="matrix(1,0,0,1,0,0)"><path fill="rgb(255,177,57)" fill-opacity="1" d=" M2.4059998989105225,-9.440999984741211 C-4.105999946594238,-18.851999282836914 -8.67300033569336,-19.847999572753906 -12.793999671936035,-27.402999877929688 C-13.87399959564209,-29.382999420166016 -8.571000099182129,-35.98500061035156 -13.994999885559082,-51.095001220703125 C-28.589000701904297,-43.54100036621094 -53.64500045776367,-35.542999267578125 -64.98100280761719,-42.28200149536133 C-65.08699798583984,-11.595999717712402 -42.981998443603516,12.684000015258789 4.355999946594238,45.770999908447266 C13.1899995803833,51.94599914550781 63.60200119018555,60.71200180053711 64.86299896240234,20.04400062561035 C64.93199920654297,17.80699920654297 65.86900329589844,-1.3389999866485596 61.11199951171875,-13.152000427246094 C60.481998443603516,8.692999839782715 59.5369987487793,23.711000442504883 53.066001892089844,30.177000045776367 C37.749000549316406,45.48400115966797 12.965999603271484,35.24100112915039 7.543000221252441,33.58100128173828 C-2.111999988555908,30.625 -41.404998779296875,3.989000082015991 -26.910999298095703,-12.234999656677246 C-17.99799919128418,-22.21299934387207 -6.359000205993652,-12.470999717712402 2.4059998989105225,-9.440999984741211z"></path></g></g><g style="display: block;" transform="matrix(-1,0,0,1,149.64089965820312,270.1478576660156)" opacity="1"><g opacity="1" transform="matrix(1,0,0,1,0,0)"><path fill="rgb(255,209,64)" fill-opacity="1" d=" M-10.807000160217285,0.32199999690055847 C-9.725000381469727,9.71500015258789 -1.3389999866485596,16.902000427246094 5.708000183105469,12.647000312805176 C10.105999946594238,9.991999626159668 11.946000099182129,3.9159998893737793 10.935999870300293,-3.700000047683716 C9.574999809265137,-13.951000213623047 1.3680000305175781,-14.420999526977539 -3.005000114440918,-13.657999992370605 C-12.739999771118164,-11.960000038146973 -11.359999656677246,-4.4720001220703125 -10.807000160217285,0.32199999690055847z"></path></g></g><g style="display: block;" transform="matrix(-1,0,0,1,109.65475463867188,261.97265625)" opacity="1"><g opacity="1" transform="matrix(1,0,0,1,0,0)"><path fill="rgb(255,177,57)" fill-opacity="1" d=" M6.041999816894531,-34.29999923706055 C-4.232999801635742,-16.638999938964844 0.5910000205039978,18.55699920654297 11.130000114440918,34.29999923706055 C2.305999994277954,31.45400047302246 -10.894000053405762,17.093000411987305 -11.093999862670898,5.318999767303467 C-11.26099967956543,-4.473999977111816 -10.805000305175781,-11.46500015258789 -10.284000396728516,-15.456000328063965 C-9.795999526977539,-19.197999954223633 -2.806999921798706,-28.562999725341797 6.041999816894531,-34.29999923706055z"></path></g></g><g style="display: block;" transform="matrix(-1,0,0,1,266.8250427246094,326.9721984863281)" opacity="1"><g opacity="1" transform="matrix(1,0,0,1,0,0)"><path stroke-linecap="round" stroke-linejoin="round" fill-opacity="0" stroke="rgb(247,126,65)" stroke-opacity="1" stroke-width="8" d=" M86.06099700927734,-74.4010009765625 C91.84200286865234,-46.845001220703125 101.697998046875,-29.090999603271484 118.40799713134766,-14.114999771118164 C131.7100067138672,-2.193000078201294 139.53199768066406,4.013999938964844 157.02200317382812,17.33300018310547 C162.24899291992188,20.847999572753906 164.91900634765625,24.249000549316406 166.31700134277344,28.198999404907227 C167.39199829101562,31.236000061035156 167.71499633789062,34.59600067138672 167.8699951171875,38.582000732421875 C168.33099365234375,50.41699981689453 161.64199829101562,65.93599700927734 148.4409942626953,73.1719970703125 C143.56700134277344,75.84400177001953 137.8040008544922,77.38600158691406 131.18600463867188,77.19599914550781 C126.59100341796875,77.06400299072266 121.58200073242188,76.0979995727539 116.1719970703125,74.09500122070312 C96.13400268554688,66.67500305175781 51.66299819946289,43.551998138427734 -3.1389999389648438,29.118000030517578 C-53.152000427246094,15.944000244140625 -65.93499755859375,-42.40800094604492 -103.78099822998047,-62.90800094604492"></path></g></g><g style="display: block;" transform="matrix(-1,0,0,1,141.18582153320312,241.26828002929688)" opacity="1"><g opacity="1" transform="matrix(1,0,0,1,0,0)"><path stroke-linecap="round" stroke-linejoin="round" fill-opacity="0" stroke="rgb(247,126,65)" stroke-opacity="1" stroke-width="8" d=" M34.24399948120117,-15.6899995803833 C25.89299964904785,-6.413000106811523 19.086000442504883,2.000999927520752 16.308000564575195,3.9159998893737793 C5.882999897003174,11.10200023651123 -14.321999549865723,16.284000396728516 -34.24399948120117,15.63599967956543"></path></g></g><g style="display: block;" transform="matrix(-1,0,0,1,133.14776611328125,277.5546569824219)" opacity="1"><g opacity="1" transform="matrix(1,0,0,1,0,0)"><path stroke-linecap="round" stroke-linejoin="round" fill-opacity="0" stroke="rgb(247,126,65)" stroke-opacity="1" stroke-width="8" d=" M8.635000228881836,-8.12600040435791 C2.561000108718872,-4.3379998207092285 -3.3429999351501465,2.8940000534057617 -8.635000228881836,8.12600040435791"></path></g></g><g style="display: block;" transform="matrix(-1,0,0,1,112.75675964355469,272.024658203125)" opacity="1"><g opacity="1" transform="matrix(1,0,0,1,0,0)"><path stroke-linecap="round" stroke-linejoin="round" fill-opacity="0" stroke="rgb(247,126,65)" stroke-opacity="1" stroke-width="8" d=" M10.85099983215332,26.108999252319336 C2.950000047683716,15.866000175476074 -4.909999847412109,5.535999774932861 -9.39799976348877,-0.4050000011920929 C-11.73900032043457,-3.503999948501587 -10.54800033569336,-17.820999145507812 -10.54800033569336,-26.108999252319336"></path></g></g><g style="display: block;" transform="matrix(-1,0,0,1,250.71910095214844,240.48777770996094)" opacity="1"><g opacity="1" transform="matrix(1,0,0,1,0,0)"><path stroke-linecap="round" stroke-linejoin="round" fill-opacity="0" stroke="rgb(247,126,65)" stroke-opacity="1" stroke-width="8" d=" M-121.03099822998047,22.761999130249023 C-133.031005859375,16.511999130249023 -164.77999877929688,11.26200008392334 -185.51300048828125,9.128000259399414 C-215.22799682617188,6.068999767303467 -205.24400329589844,-69.09600067138672 -191.38400268554688,-96.71199798583984 C-181.61900329589844,-116.16799926757812 -170.91000366210938,-112.09200286865234 -157.05299377441406,-109.36799621582031 C-140.1790008544922,-106.04900360107422 -121.81099700927734,-102.45800018310547 -97.55000305175781,-100.2760009765625"></path></g></g><g style="display: block;" transform="matrix(-1,0,0,1,250.71910095214844,240.48777770996094)" opacity="1"><g opacity="1" transform="matrix(1,0,0,1,0,0)"><path stroke-linecap="round" stroke-linejoin="round" fill-opacity="0" stroke="rgb(247,126,65)" stroke-opacity="1" stroke-width="8" d=" M-97.55000305175781,-100.2760009765625 C-85.21600341796875,-99.16699981689453 -71.35900115966797,-98.4219970703125 -55.4010009765625,-98.26200103759766 C-11.470999717712402,-97.822998046875 25.410999298095703,-96.1050033569336 92.22899627685547,-97.17400360107422 C127.76100158691406,-97.74299621582031 160.34100341796875,-99.58899688720703 180.1820068359375,-77.00399780273438 C195.36199951171875,-59.7239990234375 194.69700622558594,-41.05699920654297 195.947998046875,-18.349000930786133 C197.36599731445312,7.4070000648498535 207.2310028076172,48.9109992980957 204.3679962158203,86.33499908447266 C202.50900268554688,110.63899993896484 167.98399353027344,119.05999755859375 142.23500061035156,104.61100006103516"></path></g></g><g style="display: block;" transform="matrix(0.9788674116134644,-0.20449605584144592,0.20449605584144592,0.9788674116134644,138.774169921875,251.3726043701172)" opacity="1"><g opacity="1" transform="matrix(1,0,0,1,0,0)"><path stroke-linecap="round" stroke-linejoin="miter" fill-opacity="0" stroke-miterlimit="4" stroke="rgb(247,126,65)" stroke-opacity="1" stroke-width="8" d=" M-41.76499938964844,100.73200225830078 C-42.000999450683594,106.79499816894531 -38.73400115966797,120.50199890136719 -31.701000213623047,123.36799621582031"></path></g></g></g></svg>