<svg xmlns="http://www.w3.org/2000/svg" viewBox="0 0 512 512" width="512" height="512" style="width: 100%; height: 100%; transform: translate3d(0,0,0);" preserveAspectRatio="xMidYMid meet"><defs><clipPath id="__lottie_element_23409"><rect width="512" height="512" x="0" y="0"></rect></clipPath><clipPath id="__lottie_element_23411"><path d="M0,0 L512,0 L512,512 L0,512z"></path></clipPath><radialGradient id="__lottie_element_23417" spreadMethod="pad" gradientUnits="userSpaceOnUse"><stop></stop><stop></stop><stop></stop></radialGradient><radialGradient id="__lottie_element_23418" spreadMethod="pad" gradientUnits="userSpaceOnUse"><stop></stop><stop></stop><stop></stop></radialGradient><radialGradient id="__lottie_element_23419" spreadMethod="pad" gradientUnits="userSpaceOnUse"><stop></stop><stop></stop><stop></stop></radialGradient><clipPath id="__lottie_element_23421"><path d="M0,0 L512,0 L512,512 L0,512z"></path></clipPath><radialGradient id="__lottie_element_23427" spreadMethod="pad" gradientUnits="userSpaceOnUse"><stop></stop><stop></stop><stop></stop></radialGradient><radialGradient id="__lottie_element_23428" spreadMethod="pad" gradientUnits="userSpaceOnUse"><stop></stop><stop></stop><stop></stop></radialGradient><radialGradient id="__lottie_element_23429" spreadMethod="pad" gradientUnits="userSpaceOnUse"><stop></stop><stop></stop><stop></stop></radialGradient><clipPath id="__lottie_element_23431"><path d="M0,0 L512,0 L512,512 L0,512z"></path></clipPath><radialGradient id="__lottie_element_23437" spreadMethod="pad" gradientUnits="userSpaceOnUse"><stop></stop><stop></stop><stop></stop></radialGradient><radialGradient id="__lottie_element_23438" spreadMethod="pad" gradientUnits="userSpaceOnUse"><stop></stop><stop></stop><stop></stop></radialGradient><radialGradient id="__lottie_element_23439" spreadMethod="pad" gradientUnits="userSpaceOnUse"><stop></stop><stop></stop><stop></stop></radialGradient><clipPath id="__lottie_element_23442"><path d="M0,0 L512,0 L512,512 L0,512z"></path></clipPath><radialGradient id="__lottie_element_23448" spreadMethod="pad" gradientUnits="userSpaceOnUse"><stop></stop><stop></stop><stop></stop></radialGradient><radialGradient id="__lottie_element_23449" spreadMethod="pad" gradientUnits="userSpaceOnUse"><stop></stop><stop></stop><stop></stop></radialGradient><radialGradient id="__lottie_element_23450" spreadMethod="pad" gradientUnits="userSpaceOnUse"><stop></stop><stop></stop><stop></stop></radialGradient><clipPath id="__lottie_element_23453"><path d="M0,0 L512,0 L512,512 L0,512z"></path></clipPath><radialGradient id="__lottie_element_23459" spreadMethod="pad" gradientUnits="userSpaceOnUse"><stop></stop><stop></stop><stop></stop></radialGradient><radialGradient id="__lottie_element_23460" spreadMethod="pad" gradientUnits="userSpaceOnUse"><stop></stop><stop></stop><stop></stop></radialGradient><radialGradient id="__lottie_element_23461" spreadMethod="pad" gradientUnits="userSpaceOnUse"><stop></stop><stop></stop><stop></stop></radialGradient><linearGradient id="__lottie_element_23465" spreadMethod="pad" gradientUnits="userSpaceOnUse"><stop></stop><stop></stop><stop></stop></linearGradient><mask id="__lottie_element_23467"><path fill="url(#__lottie_element_23466)"></path></mask><linearGradient id="__lottie_element_23466" spreadMethod="pad" gradientUnits="userSpaceOnUse"><stop stop-color="rgb(255,255,255)"></stop><stop stop-color="rgb(255,255,255)"></stop><stop stop-color="rgb(255,255,255)"></stop><stop stop-color="rgb(255,255,255)"></stop><stop stop-color="rgb(255,255,255)"></stop><stop stop-color="rgb(255,255,255)"></stop><stop stop-color="rgb(255,255,255)"></stop></linearGradient><linearGradient id="__lottie_element_23471" spreadMethod="pad" gradientUnits="userSpaceOnUse"><stop></stop><stop></stop><stop></stop></linearGradient><mask id="__lottie_element_23473"><path fill="url(#__lottie_element_23472)"></path></mask><linearGradient id="__lottie_element_23472" spreadMethod="pad" gradientUnits="userSpaceOnUse"><stop stop-color="rgb(255,255,255)"></stop><stop stop-color="rgb(255,255,255)"></stop><stop stop-color="rgb(255,255,255)"></stop><stop stop-color="rgb(255,255,255)"></stop><stop stop-color="rgb(255,255,255)"></stop><stop stop-color="rgb(255,255,255)"></stop><stop stop-color="rgb(255,255,255)"></stop></linearGradient><linearGradient id="__lottie_element_23477" spreadMethod="pad" gradientUnits="userSpaceOnUse"><stop></stop><stop></stop><stop></stop></linearGradient><mask id="__lottie_element_23479"><path fill="url(#__lottie_element_23478)"></path></mask><linearGradient id="__lottie_element_23478" spreadMethod="pad" gradientUnits="userSpaceOnUse"><stop stop-color="rgb(255,255,255)"></stop><stop stop-color="rgb(255,255,255)"></stop><stop stop-color="rgb(255,255,255)"></stop><stop stop-color="rgb(255,255,255)"></stop><stop stop-color="rgb(255,255,255)"></stop><stop stop-color="rgb(255,255,255)"></stop><stop stop-color="rgb(255,255,255)"></stop></linearGradient><clipPath id="__lottie_element_23482"><path d="M0,0 L512,0 L512,512 L0,512z"></path></clipPath><radialGradient id="__lottie_element_23488" spreadMethod="pad" gradientUnits="userSpaceOnUse"><stop></stop><stop></stop><stop></stop></radialGradient><radialGradient id="__lottie_element_23489" spreadMethod="pad" gradientUnits="userSpaceOnUse"><stop></stop><stop></stop><stop></stop></radialGradient><radialGradient id="__lottie_element_23490" spreadMethod="pad" gradientUnits="userSpaceOnUse"><stop></stop><stop></stop><stop></stop></radialGradient><clipPath id="__lottie_element_23493"><path d="M0,0 L512,0 L512,512 L0,512z"></path></clipPath><radialGradient id="__lottie_element_23499" spreadMethod="pad" gradientUnits="userSpaceOnUse"><stop></stop><stop></stop><stop></stop></radialGradient><radialGradient id="__lottie_element_23500" spreadMethod="pad" gradientUnits="userSpaceOnUse"><stop></stop><stop></stop><stop></stop></radialGradient><radialGradient id="__lottie_element_23501" spreadMethod="pad" gradientUnits="userSpaceOnUse"><stop></stop><stop></stop><stop></stop></radialGradient><clipPath id="__lottie_element_23504"><path d="M0,0 L512,0 L512,512 L0,512z"></path></clipPath><radialGradient id="__lottie_element_23510" spreadMethod="pad" gradientUnits="userSpaceOnUse"><stop></stop><stop></stop><stop></stop></radialGradient><radialGradient id="__lottie_element_23511" spreadMethod="pad" gradientUnits="userSpaceOnUse"><stop></stop><stop></stop><stop></stop></radialGradient><radialGradient id="__lottie_element_23512" spreadMethod="pad" gradientUnits="userSpaceOnUse"><stop></stop><stop></stop><stop></stop></radialGradient><linearGradient id="__lottie_element_23516" spreadMethod="pad" gradientUnits="userSpaceOnUse"><stop></stop><stop></stop><stop></stop></linearGradient><mask id="__lottie_element_23518"><path fill="url(#__lottie_element_23517)"></path></mask><linearGradient id="__lottie_element_23517" spreadMethod="pad" gradientUnits="userSpaceOnUse"><stop stop-color="rgb(255,255,255)"></stop><stop stop-color="rgb(255,255,255)"></stop><stop stop-color="rgb(255,255,255)"></stop><stop stop-color="rgb(255,255,255)"></stop><stop stop-color="rgb(255,255,255)"></stop><stop stop-color="rgb(255,255,255)"></stop><stop stop-color="rgb(255,255,255)"></stop></linearGradient><linearGradient id="__lottie_element_23522" spreadMethod="pad" gradientUnits="userSpaceOnUse"><stop></stop><stop></stop><stop></stop></linearGradient><mask id="__lottie_element_23524"><path fill="url(#__lottie_element_23523)"></path></mask><linearGradient id="__lottie_element_23523" spreadMethod="pad" gradientUnits="userSpaceOnUse"><stop stop-color="rgb(255,255,255)"></stop><stop stop-color="rgb(255,255,255)"></stop><stop stop-color="rgb(255,255,255)"></stop><stop stop-color="rgb(255,255,255)"></stop><stop stop-color="rgb(255,255,255)"></stop><stop stop-color="rgb(255,255,255)"></stop><stop stop-color="rgb(255,255,255)"></stop></linearGradient><linearGradient id="__lottie_element_23528" spreadMethod="pad" gradientUnits="userSpaceOnUse"><stop></stop><stop></stop><stop></stop></linearGradient><mask id="__lottie_element_23530"><path fill="url(#__lottie_element_23529)"></path></mask><linearGradient id="__lottie_element_23529" spreadMethod="pad" gradientUnits="userSpaceOnUse"><stop stop-color="rgb(255,255,255)"></stop><stop stop-color="rgb(255,255,255)"></stop><stop stop-color="rgb(255,255,255)"></stop><stop stop-color="rgb(255,255,255)"></stop><stop stop-color="rgb(255,255,255)"></stop><stop stop-color="rgb(255,255,255)"></stop><stop stop-color="rgb(255,255,255)"></stop></linearGradient><linearGradient id="__lottie_element_23534" spreadMethod="pad" gradientUnits="userSpaceOnUse"><stop></stop><stop></stop><stop></stop></linearGradient><mask id="__lottie_element_23536"><path fill="url(#__lottie_element_23535)"></path></mask><linearGradient id="__lottie_element_23535" spreadMethod="pad" gradientUnits="userSpaceOnUse"><stop stop-color="rgb(255,255,255)"></stop><stop stop-color="rgb(255,255,255)"></stop><stop stop-color="rgb(255,255,255)"></stop><stop stop-color="rgb(255,255,255)"></stop><stop stop-color="rgb(255,255,255)"></stop><stop stop-color="rgb(255,255,255)"></stop><stop stop-color="rgb(255,255,255)"></stop></linearGradient><clipPath id="__lottie_element_23539"><path d="M0,0 L512,0 L512,512 L0,512z"></path></clipPath><clipPath id="__lottie_element_23637"><path d="M0,0 L512,0 L512,512 L0,512z"></path></clipPath></defs><g clip-path="url(#__lottie_element_23409)"><g clip-path="url(#__lottie_element_23637)" style="display: block;" transform="matrix(1,0,0,1,0,0)" opacity="1"><g style="display: block;" transform="matrix(0.9999025464057922,-0.013962180353701115,0.013962180353701115,0.9999025464057922,158.9134063720703,352.43780517578125)" opacity="1"><g opacity="1" transform="matrix(1,0,0,1,0,0)"><path fill="rgb(255,209,64)" fill-opacity="1" d=" M97.34400177001953,-19.680999755859375 C98.01699829101562,-10.152999877929688 99.0260009765625,-0.4189999997615814 99.71600341796875,9.303000450134277 C101.78700256347656,38.46900177001953 100.98899841308594,67.51899719238281 79.64099884033203,90.50900268554688 C50.92399978637695,121.43599700927734 19.299999237060547,120.23999786376953 -10.128999710083008,115.96299743652344 C-62.76300048828125,108.31300354003906 -87.14600372314453,72.94999694824219 -94.9739990234375,43.435001373291016 C-100.75800323486328,21.624000549316406 -99.83799743652344,-9.520999908447266 -92.7249984741211,-45.22999954223633 C-89.94300079345703,-59.19499969482422 -56.47800064086914,-83.36499786376953 -50.25600051879883,-88.47000122070312"></path></g></g><g style="display: block;" transform="matrix(0.9999025464057922,-0.013962180353701115,0.013962180353701115,0.9999025464057922,158.95091247558594,352.40228271484375)" opacity="1"><g opacity="1" transform="matrix(1,0,0,1,0,0)"><path fill="rgb(255,209,64)" fill-opacity="1" d=" M-94.9739990234375,43.435001373291016 C-103.46800231933594,11.402999877929688 -100.1449966430664,-17.325000762939453 -99.7229995727539,-42.70800018310547 C-99.2750015258789,-69.6969985961914 -106.64199829101562,-80.00399780273438 -97.09300231933594,-86.63800048828125 C-89.41400146484375,-91.9729995727539 -71.78199768066406,-90.50499725341797 -63.16999816894531,-73.80699920654297 C-55.82400131225586,-59.566001892089844 -58.54999923706055,-43.18299865722656 -58.21500015258789,-30.579999923706055 C-58.034000396728516,-23.756999969482422 -57.369998931884766,-18.52400016784668 -56.263999938964844,-14.128000259399414"></path></g></g><g style="display: block;" transform="matrix(0.9999025464057922,-0.013962180353701115,0.013962180353701115,0.9999025464057922,158.9134063720703,352.43780517578125)" opacity="1"><g opacity="1" transform="matrix(1,0,0,1,0,0)"><path fill="rgb(255,209,64)" fill-opacity="1" d=" M58.5620002746582,-35.94499969482422 C58.5620002746582,-48.88100051879883 60.22100067138672,-62.862998962402344 61.729000091552734,-74.3280029296875 C63.36899948120117,-86.79299926757812 66.21399688720703,-96.81400299072266 68.8270034790039,-106.1760025024414 C74.10600280761719,-125.08899688720703 106.69000244140625,-120.77799987792969 101.4800033569336,-94.61799621582031 C99.53299713134766,-84.84300231933594 98.23699951171875,-76.28500366210938 97.41100311279297,-68.60299682617188 C97.02400207519531,-65 96.73999786376953,-61.5890007019043 96.54000091552734,-58.33599853515625 C95.61299896240234,-43.23500061035156 96.89800262451172,-23.768999099731445 97.73500061035156,-11.925000190734863"></path></g></g><g style="display: block;" transform="matrix(1,0,0,1,160.83604431152344,381.0477600097656)" opacity="1"><g opacity="1" transform="matrix(1,0,0,1,0,0)"><path fill="rgb(255,177,57)" fill-opacity="1" d=" M-99.61100006103516,-42.029998779296875 C-95.03099822998047,-26.06599998474121 -91.23100280761719,-18.253000259399414 -86.4530029296875,1.3380000591278076 C-80.1240005493164,27.285999298095703 -50.47999954223633,54.22600173950195 -21.740999221801758,58.04600143432617 C-12.409000396728516,59.2869987487793 -3.947000026702881,59.84000015258789 2.3469998836517334,56.375999450683594 C5.607999801635742,54.58100128173828 8.288000106811523,51.70600128173828 10.204999923706055,47.29100036621094 C11.67300033569336,43.909000396728516 19.920000076293945,48.263999938964844 22.708999633789062,55.58300018310547 C24.780000686645508,61.01599884033203 33.402000427246094,62.816001892089844 42.71699905395508,60.56800079345703 C52.59000015258789,58.185001373291016 67.54199981689453,53.941001892089844 79.1500015258789,34.63600158691406 C90.88099670410156,15.126999855041504 90.86599731445312,-9.895000457763672 87.35800170898438,-42.928001403808594 C86.21399688720703,-53.698001861572266 84.86299896240234,-84.40799713134766 90.83899688720703,-89.62000274658203 C94.6719970703125,-92.96199798583984 96.2699966430664,-60.354000091552734 96.6709976196289,-46.55699920654297 C111.90899658203125,39.50899887084961 78.54000091552734,76.01100158691406 34.51900100708008,87.69400024414062 C20.916000366210938,91.30400085449219 -10.729999542236328,91.67500305175781 -39.332000732421875,78.60900115966797 C-80.08999633789062,59.9900016784668 -91.802001953125,29.85700035095215 -97.69999694824219,10.513999938964844 C-100.95899963378906,-0.17499999701976776 -100.85600280761719,-33.03200149536133 -99.61100006103516,-42.029998779296875z"></path></g></g><g style="display: block;" transform="matrix(0.9999025464057922,-0.013962180353701115,0.013962180353701115,0.9999025464057922,254.47714233398438,293.09375)" opacity="1"><g opacity="1" transform="matrix(1,0,0,1,0,0)"><path fill="rgb(255,177,57)" fill-opacity="1" d=" M4.822999954223633,-21.618000030517578 C0.05900000035762787,0.7749999761581421 1.4329999685287476,32.67499923706055 2.678999900817871,56.518001556396484 C-0.6359999775886536,53.89400100708008 -6.677999973297119,36.04499816894531 -7.185999870300293,24.757999420166016 C-8.043000221252441,5.683000087738037 -5.501999855041504,-9.914999961853027 -3.882999897003174,-23.149999618530273 C-1.8619999885559082,-39.676998138427734 4.000999927520752,-47.28300094604492 -4.943999767303467,-56.518001556396484 C7.801000118255615,-55.80400085449219 9.850000381469727,-45.24100112915039 4.822999954223633,-21.618000030517578z"></path></g></g><g style="display: block;" transform="matrix(0.9999025464057922,-0.013962180353701115,0.013962180353701115,0.9999025464057922,158.9134063720703,352.43780517578125)" opacity="1"><g opacity="1" transform="matrix(1,0,0,1,0,0)"><path stroke-linecap="round" stroke-linejoin="round" fill-opacity="0" stroke="rgb(247,126,65)" stroke-opacity="1" stroke-width="8" d=" M97.34400177001953,-19.680999755859375 C98.01699829101562,-10.152999877929688 99.0260009765625,-0.4189999997615814 99.71600341796875,9.303000450134277 C101.78700256347656,38.46900177001953 100.98899841308594,67.51899719238281 79.64099884033203,90.50900268554688 C50.92399978637695,121.43599700927734 19.299999237060547,120.23999786376953 -10.128999710083008,115.96299743652344 C-62.76300048828125,108.31300354003906 -87.14600372314453,72.94999694824219 -94.9739990234375,43.435001373291016"></path></g></g><g style="display: block;" transform="matrix(0.9999025464057922,-0.013962180353701115,0.013962180353701115,0.9999025464057922,238.83645629882812,275.3904113769531)" opacity="1"><g opacity="1" transform="matrix(1,0,0,1,0,0)"><path fill="rgb(255,223,121)" fill-opacity="1" d=" M19.500999450683594,-29.55900001525879 C15.598999977111816,-35.70500183105469 -2.069999933242798,-38.1609992980957 -5.127999782562256,-20.964000701904297 C-6.994999885559082,-10.461999893188477 -8.970000267028809,-1.9589999914169312 -10.376999855041504,5.574999809265137 C-12.640999794006348,17.707000732421875 -15.496000289916992,25.865999221801758 -19.106000900268555,41.00899887084961 C-21.35700035095215,36.55500030517578 -13.350000381469727,-8.355999946594238 -11.668000221252441,-21.96500015258789 C-8.722000122070312,-45.81399917602539 14.520000457763672,-45.992000579833984 19.500999450683594,-29.55900001525879z"></path></g></g><g style="display: block;" transform="matrix(0.9999025464057922,-0.013962180353701115,0.013962180353701115,0.9999025464057922,220.90452575683594,250.95437622070312)" opacity="1"><g opacity="1" transform="matrix(1,0,0,1,0,0)"><path fill="rgb(255,177,57)" fill-opacity="1" d=" M-0.13899999856948853,23.027999877929688 C-3.6549999713897705,45.13399887084961 -4.130000114440918,60.86899948120117 -4.111000061035156,69.06099700927734 C-0.23499999940395355,69.50199890136719 10.286999702453613,69.54000091552734 6.383999824523926,63.94599914550781 C3.5439999103546143,59.875 8.642000198364258,26.375 12.102999687194824,7.882999897003174 C15.01099967956543,-7.6570000648498535 16.844999313354492,-14.704000473022461 7.870999813079834,-15.340999603271484 C3.6540000438690186,-4.1529998779296875 2.8550000190734863,4.197000026702881 -0.13899999856948853,23.027999877929688z"></path></g></g><g style="display: block;" transform="matrix(0.9999025464057922,-0.013962180353701115,0.013962180353701115,0.9999025464057922,158.9134063720703,352.43780517578125)" opacity="1"><g opacity="1" transform="matrix(1,0,0,1,0,0)"><path stroke-linecap="round" stroke-linejoin="round" fill-opacity="0" stroke="rgb(247,126,65)" stroke-opacity="1" stroke-width="8" d=" M58.5620002746582,-35.94499969482422 C58.5620002746582,-48.88100051879883 60.22100067138672,-62.862998962402344 61.729000091552734,-74.3280029296875 C63.36899948120117,-86.79299926757812 66.21399688720703,-96.81400299072266 68.8270034790039,-106.1760025024414 C74.10600280761719,-125.08899688720703 106.69000244140625,-120.77799987792969 101.4800033569336,-94.61799621582031 C99.53299713134766,-84.84300231933594 98.23699951171875,-76.28500366210938 97.41100311279297,-68.60299682617188 C97.02400207519531,-65 96.73999786376953,-61.5890007019043 96.54000091552734,-58.33599853515625 C95.61299896240234,-43.23500061035156 96.50700378417969,-31.524999618530273 97.34400177001953,-19.680999755859375"></path></g></g><g style="display: block;" transform="matrix(0.9999025464057922,-0.013962180353701115,0.013962180353701115,0.9999025464057922,215.73394775390625,246.4371337890625)" opacity="1"><g opacity="1" transform="matrix(1,0,0,1,0,0)"><path fill="rgb(255,209,64)" fill-opacity="1" d=" M-38.23500061035156,52.99300003051758 C-34.23500061035156,13.993000030517578 -31.23900032043457,-30.49799919128418 -18.448999404907227,-58.86000061035156 C-10.055000305175781,-77.4749984741211 23.884000778198242,-70.59200286865234 17.739999771118164,-43.222999572753906 C15.35099983215332,-32.58000183105469 13.232999801635742,-22.448999404907227 11.371999740600586,-12.927000045776367 C8.430999755859375,2.117000102996826 6.131999969482422,15.638999938964844 4.414999961853027,27.2549991607666 C1.2569999694824219,48.624000549316406 0.0729999989271164,63.542999267578125 0.5059999823570251,69.61000061035156"></path></g></g><g style="display: block;" transform="matrix(0.9999025464057922,-0.013962180353701115,0.013962180353701115,0.9999025464057922,207.5631561279297,236.91229248046875)" opacity="1"><g opacity="1" transform="matrix(1,0,0,1,0,0)"><path fill="rgb(255,223,121)" fill-opacity="1" d=" M-24.812999725341797,60.319000244140625 C-21.0049991607666,44.9900016784668 -15.795999526977539,23.114999771118164 -12.12600040435791,4.322000026702881 C-9.661999702453613,-8.295000076293945 -6.388000011444092,-20.700000762939453 -3.263000011444092,-34.68000030517578 C-0.3240000009536743,-47.83100128173828 9.708000183105469,-58.986000061035156 24.812999725341797,-45.930999755859375 C23.476999282836914,-64.03600311279297 -3.9010000228881836,-65.76000213623047 -7.9629998207092285,-47.0620002746582 C-10.940999984741211,-33.35300064086914 -23.753999710083008,30.91200065612793 -24.812999725341797,60.319000244140625z"></path></g></g><g style="display: block;" transform="matrix(0.9999025464057922,-0.013962180353701115,0.013962180353701115,0.9999025464057922,220.90452575683594,250.95437622070312)" opacity="1"><g opacity="1" transform="matrix(1,0,0,1,0,0)"><path fill="rgb(255,223,121)" fill-opacity="1" d=" M5.203000068664551,-45.117000579833984 C-0.6349999904632568,-19.36199951171875 -2.7160000801086426,-8.631999969482422 -5.710000038146973,10.199000358581543 C-9.22599983215332,32.30500030517578 -9.972999572753906,43.31399917602539 -10.505999565124512,50.45500183105469 C-11.166999816894531,59.301998138427734 -13.583999633789062,57.7599983215332 -14.826000213623047,60.77000045776367 C-16.233999252319336,64.18000030517578 -7.291999816894531,68.63800048828125 -2.23799991607666,69.21299743652344 C-2.617000102996826,51.01499938964844 -0.1979999989271164,21.045000076293945 6.333000183105469,-12.61299991607666 C7.8429999351501465,-21.003000259399414 11.144000053405762,-33.4379997253418 13.39799976348877,-46.72200012207031 C16.67099952697754,-66.01000213623047 7.2129998207092285,-68.45700073242188 1.0950000286102295,-69.37100219726562 C6.315000057220459,-66.58200073242188 9.152999877929688,-62.54499816894531 5.203000068664551,-45.117000579833984z"></path><path fill="rgb(255,177,57)" fill-opacity="1" d=" M5.203000068664551,-45.117000579833984 C-0.6349999904632568,-19.36199951171875 -2.7160000801086426,-8.631999969482422 -5.710000038146973,10.199000358581543 C-9.22599983215332,32.30500030517578 -9.972999572753906,43.31399917602539 -10.505999565124512,50.45500183105469 C-11.166999816894531,59.301998138427734 -13.583999633789062,57.7599983215332 -14.826000213623047,60.77000045776367 C-16.233999252319336,64.18000030517578 -7.291999816894531,68.63800048828125 -2.23799991607666,69.21299743652344 C-2.617000102996826,51.01499938964844 -0.1979999989271164,21.045000076293945 6.333000183105469,-12.61299991607666 C7.8429999351501465,-21.003000259399414 11.144000053405762,-33.4379997253418 13.39799976348877,-46.72200012207031 C16.67099952697754,-66.01000213623047 7.2129998207092285,-68.45700073242188 1.0950000286102295,-69.37100219726562 C6.315000057220459,-66.58200073242188 9.152999877929688,-62.54499816894531 5.203000068664551,-45.117000579833984z"></path></g></g><g style="display: block;" transform="matrix(0.9999025464057922,-0.013962180353701115,0.013962180353701115,0.9999025464057922,186.95443725585938,231.34649658203125)" opacity="1"><g opacity="1" transform="matrix(1,0,0,1,0,0)"><path fill="rgb(255,177,57)" fill-opacity="1" d=" M9.680000305175781,-47.79399871826172 C7.7820000648498535,-43.742000579833984 2.489000082015991,-18.968000411987305 0.4090000092983246,-5.861999988555908 C-3.197000026702881,16.86199951171875 -8.430999755859375,52.04100036621094 -7.703999996185303,74.90399932861328 C-4.26200008392334,75.87999725341797 -0.3880000114440918,76.09500122070312 1.2580000162124634,74.89800262451172 C2.3299999237060547,74.11799621582031 2.132999897003174,72.94000244140625 0.9020000100135803,70.58300018310547 C-0.8920000195503235,67.14800262451172 3.2760000228881836,37.20399856567383 6.443999767303467,17.922000885009766 C8.406999588012695,5.974999904632568 12.133000373840332,-10.324999809265137 16.315000534057617,-26.947999954223633 C20.400999069213867,-43.191001892089844 12.699000358581543,-46.67399978637695 9.680000305175781,-47.79399871826172z"></path></g></g><g style="display: block;" transform="matrix(0.9999025464057922,-0.013962180353701115,0.013962180353701115,0.9999025464057922,215.73394775390625,246.4371337890625)" opacity="1"><g opacity="1" transform="matrix(1,0,0,1,0,0)"><path stroke-linecap="round" stroke-linejoin="round" fill-opacity="0" stroke="rgb(247,126,65)" stroke-opacity="1" stroke-width="8" d=" M-38.23500061035156,52.99300003051758 C-34.23500061035156,13.993000030517578 -31.23900032043457,-30.49799919128418 -18.448999404907227,-58.86000061035156 C-10.055000305175781,-77.4749984741211 23.884000778198242,-70.59200286865234 17.739999771118164,-43.222999572753906 C15.35099983215332,-32.58000183105469 13.232999801635742,-22.448999404907227 11.371999740600586,-12.927000045776367 C8.430999755859375,2.117000102996826 6.131999969482422,15.638999938964844 4.414999961853027,27.2549991607666 C1.2569999694824219,48.624000549316406 0.0729999989271164,63.542999267578125 0.5059999823570251,69.61000061035156"></path></g></g><g style="display: block;" transform="matrix(0.9999025464057922,-0.013962180353701115,0.013962180353701115,0.9999025464057922,174.85191345214844,227.16705322265625)" opacity="1"><g opacity="1" transform="matrix(1,0,0,1,0,0)"><path fill="rgb(255,209,64)" fill-opacity="1" d=" M-40.62900161743164,61.340999603271484 C-39.12900161743164,30.340999603271484 -29.128999710083008,-27.159000396728516 -23.90399932861328,-48.542999267578125 C-18.885000228881836,-69.08499908447266 -7.314000129699707,-77.72000122070312 7.117000102996826,-74.23300170898438 C20.871000289916992,-70.91000366210938 27.121000289916992,-62.909000396728516 17.538999557495117,-22.50200080871582 C15.074000358581543,-12.109000205993652 11.621000289916992,8.590999603271484 10.29699993133545,16.81100082397461 C6.697999954223633,39.1510009765625 3.6530001163482666,61.637001037597656 4.063000202178955,74.8030014038086"></path></g></g><g style="display: block;" transform="matrix(0.9999025464057922,-0.013962180353701115,0.013962180353701115,0.9999025464057922,168.169921875,223.2760009765625)" opacity="1"><g opacity="1" transform="matrix(1,0,0,1,-0.2759999930858612,-0.22100000083446503)"><path fill="rgb(255,223,121)" fill-opacity="1" d=" M-30.474000930786133,70.56900024414062 C-29.920000076293945,45.4739990234375 -20.058000564575195,-10.848999977111816 -16.9689998626709,-39.9640007019043 C-13.170000076293945,-75.7760009765625 15.579999923706055,-80.2760009765625 26.974000930786133,-58.3849983215332 C0.8989999890327454,-76.52100372314453 -5.9770002365112305,-42.52399826049805 -7.994999885559082,-32.354000091552734 C-12.538000106811523,-9.45199966430664 -16.018999099731445,7.875999927520752 -22.016000747680664,36.95600128173828 C-23.670000076293945,44.9739990234375 -27.170000076293945,59.9739990234375 -30.474000930786133,70.56900024414062z"></path></g></g><g style="display: block;" transform="matrix(0.9999025464057922,-0.013962180353701115,0.013962180353701115,0.9999025464057922,186.95443725585938,231.34649658203125)" opacity="1"><g opacity="1" transform="matrix(1,0,0,1,0,0)"><path fill="rgb(255,223,121)" fill-opacity="1" d=" M9.055000305175781,-47.801998138427734 C12.552000045776367,-67.32499694824219 2.625999927520752,-74.197998046875 -2.4030001163482666,-75.71800231933594 C5.2729997634887695,-68.1240005493164 3.7290000915527344,-55.82899856567383 0.7509999871253967,-42.07400131225586 C-3.7070000171661377,-21.486000061035156 -8.78600025177002,0.6269999742507935 -10.866000175476074,13.732999801635742 C-14.472000122070312,36.457000732421875 -15.395999908447266,56.00899887084961 -15.704000473022461,61.73699951171875 C-16.049999237060547,68.18800354003906 -18.006000518798828,65.34300231933594 -18.849000930786133,67.37799835205078 C-20.572999954223633,71.53500366210938 -11.8149995803833,73.73799896240234 -7.703999996185303,74.90399932861328 C-8.206999778747559,71.7959976196289 -4.864999771118164,29.339000701904297 -2.7769999504089355,15.793000221252441 C-0.9330000281333923,3.8269999027252197 8.072999954223633,-37.73699951171875 9.055000305175781,-47.801998138427734z"></path><path fill="rgb(255,177,57)" fill-opacity="1" d=" M9.055000305175781,-47.801998138427734 C12.552000045776367,-67.32499694824219 2.625999927520752,-74.197998046875 -2.4030001163482666,-75.71800231933594 C5.2729997634887695,-68.1240005493164 3.7290000915527344,-55.82899856567383 0.7509999871253967,-42.07400131225586 C-3.7070000171661377,-21.486000061035156 -8.78600025177002,0.6269999742507935 -10.866000175476074,13.732999801635742 C-14.472000122070312,36.457000732421875 -15.395999908447266,56.00899887084961 -15.704000473022461,61.73699951171875 C-16.049999237060547,68.18800354003906 -18.006000518798828,65.34300231933594 -18.849000930786133,67.37799835205078 C-20.572999954223633,71.53500366210938 -11.8149995803833,73.73799896240234 -7.703999996185303,74.90399932861328 C-8.206999778747559,71.7959976196289 -4.864999771118164,29.339000701904297 -2.7769999504089355,15.793000221252441 C-0.9330000281333923,3.8269999027252197 8.072999954223633,-37.73699951171875 9.055000305175781,-47.801998138427734z"></path></g></g><g style="display: block;" transform="matrix(0.9999025464057922,-0.013962180353701115,0.013962180353701115,0.9999025464057922,142.76583862304688,232.32855224609375)" opacity="1"><g opacity="1" transform="matrix(1,0,0,1,0,0)"><path fill="rgb(255,177,57)" fill-opacity="1" d=" M6.84499979019165,-59.034000396728516 C6.984000205993652,-47.32899856567383 9.168000221252441,-51.59000015258789 5.849999904632568,-34.069000244140625 C3.369999885559082,-20.97800064086914 0.26499998569488525,-4.709000110626221 -1.628000020980835,5.333000183105469 C-3.5250000953674316,15.397000312805176 -7.889999866485596,56.547000885009766 -8.692000389099121,62.847999572753906 C-4.11899995803833,64.09200286865234 0.675000011920929,64.7979965209961 1.9800000190734863,63.926998138427734 C4.7769999504089355,60.66699981689453 0.8740000128746033,59.76900100708008 1.0679999589920044,52.91899871826172 C1.305999994277954,44.53099822998047 5.2789998054504395,21.780000686645508 8.454999923706055,6.015999794006348 C10.857000350952148,-5.9070000648498535 13.394000053405762,-19.583999633789062 16.57900047302246,-35.0989990234375 C18.31800079345703,-43.569000244140625 20.233999252319336,-55.32899856567383 6.84499979019165,-59.034000396728516z"></path></g></g><g style="display: block;" transform="matrix(0.9999025464057922,-0.013962180353701115,0.013962180353701115,0.9999025464057922,174.85191345214844,227.16705322265625)" opacity="1"><g opacity="1" transform="matrix(1,0,0,1,0,0)"><path stroke-linecap="round" stroke-linejoin="round" fill-opacity="0" stroke="rgb(247,126,65)" stroke-opacity="1" stroke-width="8" d=" M-40.62900161743164,61.340999603271484 C-39.12900161743164,30.340999603271484 -29.128999710083008,-27.159000396728516 -23.90399932861328,-48.542999267578125 C-18.885000228881836,-69.08499908447266 -7.314000129699707,-77.72000122070312 7.117000102996826,-74.23300170898438 C20.871000289916992,-70.91000366210938 27.121000289916992,-62.909000396728516 17.538999557495117,-22.50200080871582 C15.074000358581543,-12.109000205993652 11.621000289916992,8.590999603271484 10.29699993133545,16.81100082397461 C6.697999954223633,39.1510009765625 3.6530001163482666,61.637001037597656 4.063000202178955,74.8030014038086"></path></g></g><g style="display: block;" transform="matrix(0.9999025464057922,-0.013962180353701115,0.013962180353701115,0.9999025464057922,121.544189453125,228.9205322265625)" opacity="1"><g opacity="1" transform="matrix(1,0,0,1,0,0)"><path fill="rgb(255,209,64)" fill-opacity="1" d=" M-30.13599967956543,45.48500061035156 C-28.020000457763672,28.25200080871582 -23.822999954223633,5.238999843597412 -19.367000579833984,-14.305999755859375 C-16.802000045776367,-25.555999755859375 -14.152000427246094,-35.65700149536133 -11.762999534606934,-42.84600067138672 C-5.74399995803833,-60.95800018310547 5.703000068664551,-64.50599670410156 15.092000007629395,-62.19900131225586 C28.44700050354004,-58.917999267578125 35.196998596191406,-55.167999267578125 26.045000076293945,-14.939000129699707 C24.312999725341797,-7.324999809265137 21.85700035095215,7.40500020980835 18.60700035095215,26.759000778198242 C16.31800079345703,40.39099884033203 14.425000190734863,53.071998596191406 13.529000282287598,62.749000549316406"></path></g></g><g style="display: block;" transform="matrix(0.9999025464057922,-0.013962180353701115,0.013962180353701115,0.9999025464057922,122.36076354980469,233.03851318359375)" opacity="1"><g opacity="1" transform="matrix(1,0,0,1,0,0)"><path fill="rgb(255,223,121)" fill-opacity="1" d=" M28.076000213623047,-59.1879997253418 C20.099000930786133,-71.65799713134766 -2.11899995803833,-69.56199645996094 -8.718000411987305,-52.042999267578125 C-15.86400032043457,-33.073001861572266 -24.150999069213867,1.3819999694824219 -28.076000213623047,38.12699890136719 C-24.479000091552734,42.965999603271484 -22.76799964904785,50.316001892089844 -20.152999877929688,67.12899780273438 C-19.902999877929688,63.683998107910156 -19.507999420166016,59.72700119018555 -19,55.4010009765625 C-18.148000717163086,48.15399932861328 -16.97599983215332,39.87200164794922 -15.621000289916992,31.219999313354492 C-10.640999794006348,-0.5839999914169312 -3.194999933242798,-37.374000549316406 -0.14399999380111694,-46.01900100708008 C4.23199987411499,-58.41899871826172 12.565999984741211,-66.59300231933594 28.076000213623047,-59.1879997253418z"></path></g></g><g style="display: block;" transform="matrix(0.9999025464057922,-0.013962180353701115,0.013962180353701115,0.9999025464057922,142.51583862304688,231.82901000976562)" opacity="1"><g opacity="1" transform="matrix(1,0,0,1,0,0)"><path fill="rgb(255,223,121)" fill-opacity="1" d=" M-7.117000102996826,-63.1879997253418 C0.3269999921321869,-61.05799865722656 3.4179999828338623,-53.84000015258789 0.10000000149011612,-36.319000244140625 C-2.380000114440918,-23.22800064086914 -4.985000133514404,-8.708999633789062 -6.877999782562256,1.3329999446868896 C-8.774999618530273,11.397000312805176 -11.298999786376953,26.68899917602539 -12.772000312805176,37.31999969482422 C-13.5,42.582000732421875 -13.968000411987305,47.722999572753906 -14.321000099182129,50.79499816894531 C-14.944000244140625,56.224998474121094 -16.881000518798828,54.8650016784668 -17.625999450683594,56.736000061035156 C-18.586999893188477,58.946998596191406 -13.788000106811523,61.35900115966797 -8.657999992370605,62.858001708984375 C-8.390000343322754,60.797000885009766 -8.140000343322754,54.17100143432617 -7.682000160217285,50.79399871826172 C-6.552999973297119,42.479000091552734 3.5369999408721924,-20.856000900268555 6.828999996185303,-36.3489990234375 C11.234000205993652,-57.07899856567383 -1.5390000343322754,-65.90499877929688 -7.117000102996826,-63.1879997253418z"></path><path fill="rgb(255,177,57)" fill-opacity="1" d=" M-7.117000102996826,-63.1879997253418 C0.3269999921321869,-61.05799865722656 3.4179999828338623,-53.84000015258789 0.10000000149011612,-36.319000244140625 C-2.380000114440918,-23.22800064086914 -4.985000133514404,-8.708999633789062 -6.877999782562256,1.3329999446868896 C-8.774999618530273,11.397000312805176 -11.298999786376953,26.68899917602539 -12.772000312805176,37.31999969482422 C-13.5,42.582000732421875 -13.968000411987305,47.722999572753906 -14.321000099182129,50.79499816894531 C-14.944000244140625,56.224998474121094 -16.881000518798828,54.8650016784668 -17.625999450683594,56.736000061035156 C-18.586999893188477,58.946998596191406 -13.788000106811523,61.35900115966797 -8.657999992370605,62.858001708984375 C-8.390000343322754,60.797000885009766 -8.140000343322754,54.17100143432617 -7.682000160217285,50.79399871826172 C-6.552999973297119,42.479000091552734 3.5369999408721924,-20.856000900268555 6.828999996185303,-36.3489990234375 C11.234000205993652,-57.07899856567383 -1.5390000343322754,-65.90499877929688 -7.117000102996826,-63.1879997253418z"></path></g></g><g style="display: block;" transform="matrix(0.9999025464057922,-0.013962180353701115,0.013962180353701115,0.9999025464057922,121.544189453125,228.9205322265625)" opacity="1"><g opacity="1" transform="matrix(1,0,0,1,0,0)"><path stroke-linecap="round" stroke-linejoin="round" fill-opacity="0" stroke="rgb(247,126,65)" stroke-opacity="1" stroke-width="8" d=" M-30.13599967956543,45.48500061035156 C-28.020000457763672,28.25200080871582 -23.822999954223633,5.238999843597412 -19.367000579833984,-14.305999755859375 C-16.802000045776367,-25.555999755859375 -14.152000427246094,-35.65700149536133 -11.762999534606934,-42.84600067138672 C-5.74399995803833,-60.95800018310547 5.703000068664551,-64.50599670410156 15.092000007629395,-62.19900131225586 C28.44700050354004,-58.917999267578125 35.196998596191406,-55.167999267578125 26.045000076293945,-14.939000129699707 C24.312999725341797,-7.324999809265137 21.85700035095215,7.40500020980835 18.60700035095215,26.759000778198242 C16.31800079345703,40.39099884033203 14.425000190734863,53.071998596191406 13.529000282287598,62.749000549316406"></path></g></g><g style="display: block;" transform="matrix(1,0,0,1,256.05450439453125,256.01568603515625)" opacity="1"><g opacity="1" transform="matrix(1,0,0,1,0,0)"><path stroke-linecap="round" stroke-linejoin="miter" fill-opacity="0" stroke-miterlimit="4" stroke="rgb(255,255,255)" stroke-opacity="1" stroke-width="6" d=" M-131.375,-74.125 C-131.66600036621094,-73.62999725341797 -132.07899475097656,-72.62000274658203 -132.5780029296875,-71.21099853515625"></path></g></g><g style="display: block;" transform="matrix(0.9884939193725586,-0.15126082301139832,0.15126082301139832,0.9884939193725586,233.86972045898438,248.37210083007812)" opacity="1"><g opacity="1" transform="matrix(1,0,0,1,0,0)"><path fill="rgb(255,223,121)" fill-opacity="0" d=" M-134.7480010986328,66.38800048828125 C-145.99400329589844,63.55500030517578 -151.33200073242188,62.55099868774414 -138.28700256347656,72.74099731445312 C-128.73300170898438,80.2040023803711 -101.65399932861328,96.61399841308594 -90.37100219726562,131.86399841308594 C-82.55500030517578,156.28199768066406 -72.81800079345703,144.52699279785156 -62.573001861572266,139.27699279785156 C-55.95800018310547,135.88699340820312 -48.87200164794922,133.43699645996094 -41.3120002746582,132.64700317382812 C-34.47200012207031,131.9320068359375 -33.659000396728516,126.61900329589844 -39.96900177001953,125.23100280761719 C-46.737998962402344,123.74199676513672 -54.16299819946289,123.87300109863281 -63.27000045776367,124.22899627685547 C-73.18699645996094,124.61699676513672 -85.33599853515625,117.28099822998047 -87.62699890136719,112.66400146484375 C-97.13200378417969,93.51200103759766 -113.04000091552734,71.85600280761719 -134.7480010986328,66.38800048828125z"></path></g></g><g style="display: block;" transform="matrix(0.9999025464057922,-0.013962180353701115,0.013962180353701115,0.9999025464057922,124.6219482421875,371.26641845703125)" opacity="1"><g opacity="1" transform="matrix(1,0,0,1,0,0)"><path fill="rgb(255,223,121)" fill-opacity="1" d=" M4.489999771118164,36.08700180053711 C-8.395000457763672,26.39900016784668 -23.452999114990234,7.561999797821045 -27.06100082397461,-7.4120001792907715 C-30.80500030517578,-22.948999404907227 -27.16200065612793,-26.101999282836914 -15.378999710083008,-17.302000045776367 C-5.730999946594238,-10.097000122070312 15.940999984741211,15.710000038146973 20.839000701904297,24.8439998626709 C29.31399917602539,40.64699935913086 27.138999938964844,53.11800003051758 4.489999771118164,36.08700180053711z"></path></g></g><g style="display: none;"><g><path></path></g></g><g style="display: block;" transform="matrix(0.9999025464057922,-0.013962180353701115,0.013962180353701115,0.9999025464057922,158.95091247558594,352.40228271484375)" opacity="1"><g opacity="1" transform="matrix(1,0,0,1,-31.75,-19)"><path fill="rgb(255,177,57)" fill-opacity="1" d=" M-25.426000595092773,5.6529998779296875 C-43.737998962402344,-0.7450000047683716 -29.18600082397461,-42.42300033569336 -39.1870002746582,-60.696998596191406 C-6.440000057220459,-53.606998443603516 -18.461999893188477,-18.350000381469727 -13.673999786376953,-9.772000312805176 C-4.080999851226807,7.413000106811523 -23.742000579833984,6.241000175476074 -25.426000595092773,5.6529998779296875z"></path></g><g opacity="1" transform="matrix(1,0,0,1,-31.75,-19)"><path fill="rgb(255,177,57)" fill-opacity="1" d=" M-25.426000595092773,5.6529998779296875 C-43.737998962402344,-0.7450000047683716 -18.461999893188477,-18.350000381469727 -13.673999786376953,-9.772000312805176 C-4.080999851226807,7.413000106811523 40.04399871826172,16.652000427246094 39.17499923706055,55.862998962402344 C39.11199951171875,58.685001373291016 37.880001068115234,63.20500183105469 36.36000061035156,58.96099853515625 C32.8650016784668,49.20600128173828 22.572999954223633,35.402000427246094 11.086999893188477,26.35700035095215 C-9.189000129699707,10.387999534606934 -23.742000579833984,6.241000175476074 -25.426000595092773,5.6529998779296875z"></path></g><g opacity="1" transform="matrix(1,0,0,1,-31.75,-19)"><path fill="rgb(255,223,121)" fill-opacity="1" d=" M-25.426000595092773,5.6529998779296875 C-43.737998962402344,-0.7450000047683716 -29.18600082397461,-42.42300033569336 -39.1870002746582,-60.696998596191406 C-21.29800033569336,-55.025001525878906 -28.617000579833984,-5.372000217437744 -25.426000595092773,5.6529998779296875z"></path><path fill="rgb(255,177,57)" fill-opacity="1" d=" M-25.426000595092773,5.6529998779296875 C-43.737998962402344,-0.7450000047683716 -29.18600082397461,-42.42300033569336 -39.1870002746582,-60.696998596191406 C-21.29800033569336,-55.025001525878906 -28.617000579833984,-5.372000217437744 -25.426000595092773,5.6529998779296875z"></path></g><g opacity="1" transform="matrix(1,0,0,1,-85.75,-31.5)"><path fill="rgb(255,223,121)" fill-opacity="1" d=" M-10.6899995803833,58.04199981689453 C-10.439000129699707,25.527000427246094 -4.1620001792907715,10.83899974822998 -4.413000106811523,-11.005000114440918 C-4.664000034332275,-32.8489990234375 -7.632999897003174,-39.196998596191406 -5.184999942779541,-45.09700012207031 C-2.5269999504089355,-51.50299835205078 8.62600040435791,-52.492000579833984 16.093000411987305,-46.64099884033203 C14.866999626159668,-52.32500076293945 5.840000152587891,-58.00899887084961 -1.9620000123977661,-58.00899887084961 C-5.421999931335449,-58.00899887084961 -20.402000427246094,-60.053001403808594 -14.88700008392334,-32.20100021362305 C-10.303000450134277,-9.050000190734863 -17.4689998626709,31.302000045776367 -10.6899995803833,58.04199981689453z"></path></g><g opacity="1" transform="matrix(1,0,0,1,0,0)"><path stroke-linecap="round" stroke-linejoin="round" fill-opacity="0" stroke="rgb(247,126,65)" stroke-opacity="1" stroke-width="8" d=" M-94.9739990234375,43.435001373291016 C-103.46800231933594,11.402999877929688 -100.1449966430664,-17.325000762939453 -99.7229995727539,-42.70800018310547 C-99.2750015258789,-69.6969985961914 -106.64199829101562,-80.00399780273438 -97.09300231933594,-86.63800048828125 C-89.41400146484375,-91.9729995727539 -71.78199768066406,-90.50499725341797 -63.16999816894531,-73.80699920654297 C-55.82400131225586,-59.566001892089844 -58.54999923706055,-43.18299865722656 -58.21500015258789,-30.579999923706055 C-58.0880012512207,-25.808000564575195 -57.724998474121094,-21.812999725341797 -57.13999938964844,-18.339000701904297"></path></g></g><g style="display: block;" transform="matrix(0.9999025464057922,-0.013962180353701115,0.013962180353701115,0.9999025464057922,206.2947235107422,389.659912109375)" opacity="1"><g opacity="1" transform="matrix(1,0,0,1,0,0)"><path fill="rgb(255,223,121)" fill-opacity="1" d=" M15.013999938964844,-12.9350004196167 C8.967000007629395,-0.7850000262260437 -9.420999526977539,8.958999633789062 -17.266000747680664,19.305999755859375 C-26.97800064086914,32.11399841308594 -27.288000106811523,11.065999984741211 -23.18899917602539,0.7580000162124634 C-20.72100067138672,-5.449999809265137 -12.88700008392334,-11.340999603271484 -2.7239999771118164,-15.13700008392334 C3.7899999618530273,-17.56999969482422 17.29599952697754,-17.518999099731445 15.013999938964844,-12.9350004196167z"></path></g></g><g style="display: none;"><g><path></path></g></g></g><g clip-path="url(#__lottie_element_23539)" style="display: block;" transform="matrix(-1,0,0,1,521.60595703125,0)" opacity="1"><g style="display: block;" transform="matrix(0.9999025464057922,-0.013962180353701115,0.013962180353701115,0.9999025464057922,158.9134063720703,352.43780517578125)" opacity="1"><g opacity="1" transform="matrix(1,0,0,1,0,0)"><path fill="rgb(255,209,64)" fill-opacity="1" d=" M97.34400177001953,-19.680999755859375 C98.01699829101562,-10.152999877929688 99.0260009765625,-0.4189999997615814 99.71600341796875,9.303000450134277 C101.78700256347656,38.46900177001953 100.98899841308594,67.51899719238281 79.64099884033203,90.50900268554688 C50.92399978637695,121.43599700927734 19.299999237060547,120.23999786376953 -10.128999710083008,115.96299743652344 C-62.76300048828125,108.31300354003906 -87.14600372314453,72.94999694824219 -94.9739990234375,43.435001373291016 C-100.75800323486328,21.624000549316406 -99.83799743652344,-9.520999908447266 -92.7249984741211,-45.22999954223633 C-89.94300079345703,-59.19499969482422 -56.47800064086914,-83.36499786376953 -50.25600051879883,-88.47000122070312"></path></g></g><g style="display: block;" transform="matrix(0.9999025464057922,-0.013962180353701115,0.013962180353701115,0.9999025464057922,158.95091247558594,352.40228271484375)" opacity="1"><g opacity="1" transform="matrix(1,0,0,1,0,0)"><path fill="rgb(255,209,64)" fill-opacity="1" d=" M-94.9739990234375,43.435001373291016 C-103.46800231933594,11.402999877929688 -100.1449966430664,-17.325000762939453 -99.7229995727539,-42.70800018310547 C-99.2750015258789,-69.6969985961914 -106.64199829101562,-80.00399780273438 -97.09300231933594,-86.63800048828125 C-89.41400146484375,-91.9729995727539 -71.78199768066406,-90.50499725341797 -63.16999816894531,-73.80699920654297 C-55.82400131225586,-59.566001892089844 -58.54999923706055,-43.18299865722656 -58.21500015258789,-30.579999923706055 C-58.034000396728516,-23.756999969482422 -57.369998931884766,-18.52400016784668 -56.263999938964844,-14.128000259399414"></path></g></g><g style="display: block;" transform="matrix(0.9999025464057922,-0.013962180353701115,0.013962180353701115,0.9999025464057922,158.9134063720703,352.43780517578125)" opacity="1"><g opacity="1" transform="matrix(1,0,0,1,0,0)"><path fill="rgb(255,209,64)" fill-opacity="1" d=" M58.5620002746582,-35.94499969482422 C58.5620002746582,-48.88100051879883 60.22100067138672,-62.862998962402344 61.729000091552734,-74.3280029296875 C63.36899948120117,-86.79299926757812 66.21399688720703,-96.81400299072266 68.8270034790039,-106.1760025024414 C74.10600280761719,-125.08899688720703 106.69000244140625,-120.77799987792969 101.4800033569336,-94.61799621582031 C99.53299713134766,-84.84300231933594 98.23699951171875,-76.28500366210938 97.41100311279297,-68.60299682617188 C97.02400207519531,-65 96.73999786376953,-61.5890007019043 96.54000091552734,-58.33599853515625 C95.61299896240234,-43.23500061035156 96.6969985961914,-27.27199935913086 97.53399658203125,-15.428000450134277"></path></g></g><g style="display: block;" transform="matrix(1,0,0,1,160.83604431152344,381.0477600097656)" opacity="1"><g opacity="1" transform="matrix(1,0,0,1,0,0)"><path fill="rgb(255,177,57)" fill-opacity="1" d=" M-99.61100006103516,-42.029998779296875 C-95.03099822998047,-26.06599998474121 -91.23100280761719,-18.253000259399414 -86.4530029296875,1.3380000591278076 C-80.1240005493164,27.285999298095703 -50.47999954223633,54.22600173950195 -21.740999221801758,58.04600143432617 C-12.409000396728516,59.2869987487793 -3.947000026702881,59.84000015258789 2.3469998836517334,56.375999450683594 C5.607999801635742,54.58100128173828 8.288000106811523,51.70600128173828 10.204999923706055,47.29100036621094 C11.67300033569336,43.909000396728516 19.920000076293945,48.263999938964844 22.708999633789062,55.58300018310547 C24.780000686645508,61.01599884033203 33.402000427246094,62.816001892089844 42.71699905395508,60.56800079345703 C52.59000015258789,58.185001373291016 67.54199981689453,53.941001892089844 79.1500015258789,34.63600158691406 C90.88099670410156,15.126999855041504 90.86599731445312,-9.895000457763672 87.35800170898438,-42.928001403808594 C86.21399688720703,-53.698001861572266 84.86299896240234,-84.40799713134766 90.83899688720703,-89.62000274658203 C94.6719970703125,-92.96199798583984 96.2699966430664,-60.354000091552734 96.6709976196289,-46.55699920654297 C111.90899658203125,39.50899887084961 78.54000091552734,76.01100158691406 34.51900100708008,87.69400024414062 C20.916000366210938,91.30400085449219 -10.729999542236328,91.67500305175781 -39.332000732421875,78.60900115966797 C-80.08999633789062,59.9900016784668 -91.802001953125,29.85700035095215 -97.69999694824219,10.513999938964844 C-100.95899963378906,-0.17499999701976776 -100.85600280761719,-33.03200149536133 -99.61100006103516,-42.029998779296875z"></path></g></g><g style="display: block;" transform="matrix(0.9999025464057922,-0.013962180353701115,0.013962180353701115,0.9999025464057922,254.47714233398438,293.09375)" opacity="1"><g opacity="1" transform="matrix(1,0,0,1,0,0)"><path fill="rgb(255,177,57)" fill-opacity="1" d=" M4.822999954223633,-21.618000030517578 C0.05900000035762787,0.7749999761581421 1.4329999685287476,32.67499923706055 2.678999900817871,56.518001556396484 C-0.6359999775886536,53.89400100708008 -6.677999973297119,36.04499816894531 -7.185999870300293,24.757999420166016 C-8.043000221252441,5.683000087738037 -5.501999855041504,-9.914999961853027 -3.882999897003174,-23.149999618530273 C-1.8619999885559082,-39.676998138427734 4.000999927520752,-47.28300094604492 -4.943999767303467,-56.518001556396484 C7.801000118255615,-55.80400085449219 9.850000381469727,-45.24100112915039 4.822999954223633,-21.618000030517578z"></path></g></g><g style="display: block;" transform="matrix(0.9999025464057922,-0.013962180353701115,0.013962180353701115,0.9999025464057922,158.9134063720703,352.43780517578125)" opacity="1"><g opacity="1" transform="matrix(1,0,0,1,0,0)"><path stroke-linecap="round" stroke-linejoin="round" fill-opacity="0" stroke="rgb(247,126,65)" stroke-opacity="1" stroke-width="8" d=" M97.34400177001953,-19.680999755859375 C98.01699829101562,-10.152999877929688 99.0260009765625,-0.4189999997615814 99.71600341796875,9.303000450134277 C101.78700256347656,38.46900177001953 100.98899841308594,67.51899719238281 79.64099884033203,90.50900268554688 C50.92399978637695,121.43599700927734 19.299999237060547,120.23999786376953 -10.128999710083008,115.96299743652344 C-62.76300048828125,108.31300354003906 -87.14600372314453,72.94999694824219 -94.9739990234375,43.435001373291016"></path></g></g><g style="display: block;" transform="matrix(0.9999025464057922,-0.013962180353701115,0.013962180353701115,0.9999025464057922,238.83645629882812,275.3904113769531)" opacity="1"><g opacity="1" transform="matrix(1,0,0,1,0,0)"><path fill="rgb(255,223,121)" fill-opacity="1" d=" M19.500999450683594,-29.55900001525879 C15.598999977111816,-35.70500183105469 -2.069999933242798,-38.1609992980957 -5.127999782562256,-20.964000701904297 C-6.994999885559082,-10.461999893188477 -8.970000267028809,-1.9589999914169312 -10.376999855041504,5.574999809265137 C-12.640999794006348,17.707000732421875 -15.496000289916992,25.865999221801758 -19.106000900268555,41.00899887084961 C-21.35700035095215,36.55500030517578 -13.350000381469727,-8.355999946594238 -11.668000221252441,-21.96500015258789 C-8.722000122070312,-45.81399917602539 14.520000457763672,-45.992000579833984 19.500999450683594,-29.55900001525879z"></path></g></g><g style="display: block;" transform="matrix(0.9999025464057922,-0.013962180353701115,0.013962180353701115,0.9999025464057922,220.90452575683594,250.95437622070312)" opacity="1"><g opacity="1" transform="matrix(1,0,0,1,0,0)"><path fill="rgb(255,177,57)" fill-opacity="1" d=" M-0.13899999856948853,23.027999877929688 C-3.6549999713897705,45.13399887084961 -4.130000114440918,60.86899948120117 -4.111000061035156,69.06099700927734 C-0.23499999940395355,69.50199890136719 10.286999702453613,69.54000091552734 6.383999824523926,63.94599914550781 C3.5439999103546143,59.875 8.642000198364258,26.375 12.102999687194824,7.882999897003174 C15.01099967956543,-7.6570000648498535 16.844999313354492,-14.704000473022461 7.870999813079834,-15.340999603271484 C3.6540000438690186,-4.1529998779296875 2.8550000190734863,4.197000026702881 -0.13899999856948853,23.027999877929688z"></path></g></g><g style="display: block;" transform="matrix(0.9999025464057922,-0.013962180353701115,0.013962180353701115,0.9999025464057922,158.9134063720703,352.43780517578125)" opacity="1"><g opacity="1" transform="matrix(1,0,0,1,0,0)"><path stroke-linecap="round" stroke-linejoin="round" fill-opacity="0" stroke="rgb(247,126,65)" stroke-opacity="1" stroke-width="8" d=" M58.5620002746582,-35.94499969482422 C58.5620002746582,-48.88100051879883 60.22100067138672,-62.862998962402344 61.729000091552734,-74.3280029296875 C63.36899948120117,-86.79299926757812 66.21399688720703,-96.81400299072266 68.8270034790039,-106.1760025024414 C74.10600280761719,-125.08899688720703 106.69000244140625,-120.77799987792969 101.4800033569336,-94.61799621582031 C99.53299713134766,-84.84300231933594 98.23699951171875,-76.28500366210938 97.41100311279297,-68.60299682617188 C97.02400207519531,-65 96.73999786376953,-61.5890007019043 96.54000091552734,-58.33599853515625 C95.61299896240234,-43.23500061035156 96.50700378417969,-31.524999618530273 97.34400177001953,-19.680999755859375"></path></g></g><g style="display: block;" transform="matrix(0.9999025464057922,-0.013962180353701115,0.013962180353701115,0.9999025464057922,215.73394775390625,246.4371337890625)" opacity="1"><g opacity="1" transform="matrix(1,0,0,1,0,0)"><path fill="rgb(255,209,64)" fill-opacity="1" d=" M-38.23500061035156,52.99300003051758 C-34.23500061035156,13.993000030517578 -31.23900032043457,-30.49799919128418 -18.448999404907227,-58.86000061035156 C-10.055000305175781,-77.4749984741211 23.884000778198242,-70.59200286865234 17.739999771118164,-43.222999572753906 C15.35099983215332,-32.58000183105469 13.232999801635742,-22.448999404907227 11.371999740600586,-12.927000045776367 C8.430999755859375,2.117000102996826 6.131999969482422,15.638999938964844 4.414999961853027,27.2549991607666 C1.2569999694824219,48.624000549316406 0.0729999989271164,63.542999267578125 0.5059999823570251,69.61000061035156"></path></g></g><g style="display: block;" transform="matrix(0.9999025464057922,-0.013962180353701115,0.013962180353701115,0.9999025464057922,207.5631561279297,236.91229248046875)" opacity="1"><g opacity="1" transform="matrix(1,0,0,1,0,0)"><path fill="rgb(255,223,121)" fill-opacity="1" d=" M-24.812999725341797,60.319000244140625 C-21.0049991607666,44.9900016784668 -17.19700050354004,27.350000381469727 -13.383000373840332,4.803999900817871 C-11.23900032043457,-7.870999813079834 -8.387999534606934,-20.72800064086914 -5.263000011444092,-34.70800018310547 C-2.3239998817443848,-47.85900115966797 9.229999542236328,-56.78799819946289 24.812999725341797,-45.930999755859375 C23.476999282836914,-64.03600311279297 -4.995999813079834,-65.0009994506836 -10.220000267028809,-46.59400177001953 C-14.895000457763672,-30.12299919128418 -24.827999114990234,18.743999481201172 -24.812999725341797,60.319000244140625z"></path></g></g><g style="display: block;" transform="matrix(0.9999025464057922,-0.013962180353701115,0.013962180353701115,0.9999025464057922,220.90452575683594,250.95437622070312)" opacity="1"><g opacity="1" transform="matrix(1,0,0,1,0,0)"><path fill="rgb(255,223,121)" fill-opacity="1" d=" M5.203000068664551,-45.117000579833984 C-0.6349999904632568,-19.36199951171875 -2.7160000801086426,-8.631999969482422 -5.710000038146973,10.199000358581543 C-9.22599983215332,32.30500030517578 -9.972999572753906,43.31399917602539 -10.505999565124512,50.45500183105469 C-11.166999816894531,59.301998138427734 -13.583999633789062,57.7599983215332 -14.826000213623047,60.77000045776367 C-16.233999252319336,64.18000030517578 -7.291999816894531,68.63800048828125 -2.23799991607666,69.21299743652344 C-2.617000102996826,51.01499938964844 -0.1979999989271164,21.045000076293945 6.333000183105469,-12.61299991607666 C7.8429999351501465,-21.003000259399414 11.144000053405762,-33.4379997253418 13.39799976348877,-46.72200012207031 C16.67099952697754,-66.01000213623047 7.2129998207092285,-68.45700073242188 1.0950000286102295,-69.37100219726562 C6.315000057220459,-66.58200073242188 9.152999877929688,-62.54499816894531 5.203000068664551,-45.117000579833984z"></path><path fill="rgb(255,177,57)" fill-opacity="1" d=" M5.203000068664551,-45.117000579833984 C-0.6349999904632568,-19.36199951171875 -2.7160000801086426,-8.631999969482422 -5.710000038146973,10.199000358581543 C-9.22599983215332,32.30500030517578 -9.972999572753906,43.31399917602539 -10.505999565124512,50.45500183105469 C-11.166999816894531,59.301998138427734 -13.583999633789062,57.7599983215332 -14.826000213623047,60.77000045776367 C-16.233999252319336,64.18000030517578 -7.291999816894531,68.63800048828125 -2.23799991607666,69.21299743652344 C-2.617000102996826,51.01499938964844 -0.1979999989271164,21.045000076293945 6.333000183105469,-12.61299991607666 C7.8429999351501465,-21.003000259399414 11.144000053405762,-33.4379997253418 13.39799976348877,-46.72200012207031 C16.67099952697754,-66.01000213623047 7.2129998207092285,-68.45700073242188 1.0950000286102295,-69.37100219726562 C6.315000057220459,-66.58200073242188 9.152999877929688,-62.54499816894531 5.203000068664551,-45.117000579833984z"></path></g></g><g style="display: block;" transform="matrix(0.9999025464057922,-0.013962180353701115,0.013962180353701115,0.9999025464057922,186.95443725585938,231.34649658203125)" opacity="1"><g opacity="1" transform="matrix(1,0,0,1,0,0)"><path fill="rgb(255,177,57)" fill-opacity="1" d=" M10.083000183105469,-49.78799819946289 C8.1850004196167,-45.736000061035156 2.489000082015991,-18.968000411987305 0.4090000092983246,-5.861999988555908 C-3.197000026702881,16.86199951171875 -8.430999755859375,52.04100036621094 -7.703999996185303,74.90399932861328 C-4.26200008392334,75.87999725341797 -0.39500001072883606,76.59500122070312 1.2510000467300415,75.39800262451172 C2.322999954223633,74.61799621582031 1.906999945640564,73.04499816894531 0.9020000100135803,70.58300018310547 C-0.3959999978542328,67.40499877929688 2.181999921798706,43.93899917602539 5.940999984741211,18.165000915527344 C7.688000202178955,6.184999942779541 11.47700023651123,-12.937000274658203 15.607999801635742,-30.08300018310547 C18.72100067138672,-43.00299835205078 14.487000465393066,-49.39799880981445 10.083000183105469,-49.78799819946289z"></path></g></g><g style="display: block;" transform="matrix(0.9999025464057922,-0.013962180353701115,0.013962180353701115,0.9999025464057922,215.73394775390625,246.4371337890625)" opacity="1"><g opacity="1" transform="matrix(1,0,0,1,0,0)"><path stroke-linecap="round" stroke-linejoin="round" fill-opacity="0" stroke="rgb(247,126,65)" stroke-opacity="1" stroke-width="8" d=" M-38.23500061035156,52.99300003051758 C-34.23500061035156,13.993000030517578 -31.23900032043457,-30.49799919128418 -18.448999404907227,-58.86000061035156 C-10.055000305175781,-77.4749984741211 23.884000778198242,-70.59200286865234 17.739999771118164,-43.222999572753906 C15.35099983215332,-32.58000183105469 13.232999801635742,-22.448999404907227 11.371999740600586,-12.927000045776367 C8.430999755859375,2.117000102996826 6.131999969482422,15.638999938964844 4.414999961853027,27.2549991607666 C1.2569999694824219,48.624000549316406 0.0729999989271164,63.542999267578125 0.5059999823570251,69.61000061035156"></path></g></g><g style="display: block;" transform="matrix(0.9999025464057922,-0.013962180353701115,0.013962180353701115,0.9999025464057922,174.85191345214844,227.16705322265625)" opacity="1"><g opacity="1" transform="matrix(1,0,0,1,0,0)"><path fill="rgb(255,209,64)" fill-opacity="1" d=" M-40.62900161743164,61.340999603271484 C-39.12900161743164,30.340999603271484 -29.128999710083008,-27.159000396728516 -23.90399932861328,-48.542999267578125 C-18.885000228881836,-69.08499908447266 -7.314000129699707,-77.72000122070312 7.117000102996826,-74.23300170898438 C20.871000289916992,-70.91000366210938 27.121000289916992,-62.909000396728516 17.538999557495117,-22.50200080871582 C15.074000358581543,-12.109000205993652 11.621000289916992,8.590999603271484 10.29699993133545,16.81100082397461 C6.697999954223633,39.1510009765625 3.6530001163482666,61.637001037597656 4.063000202178955,74.8030014038086"></path></g></g><g style="display: block;" transform="matrix(0.9999025464057922,-0.013962180353701115,0.013962180353701115,0.9999025464057922,168.169921875,223.2760009765625)" opacity="1"><g opacity="1" transform="matrix(1,0,0,1,-0.2759999930858612,-0.22100000083446503)"><path fill="rgb(255,223,121)" fill-opacity="1" d=" M-30.474000930786133,70.56900024414062 C-29.920000076293945,45.4739990234375 -20.058000564575195,-10.848999977111816 -16.9689998626709,-39.9640007019043 C-13.170000076293945,-75.7760009765625 15.579999923706055,-80.2760009765625 26.974000930786133,-58.3849983215332 C0.8989999890327454,-76.52100372314453 -5.9770002365112305,-42.52399826049805 -7.994999885559082,-32.354000091552734 C-12.538000106811523,-9.45199966430664 -16.018999099731445,7.875999927520752 -22.016000747680664,36.95600128173828 C-23.670000076293945,44.9739990234375 -27.170000076293945,59.9739990234375 -30.474000930786133,70.56900024414062z"></path></g></g><g style="display: block;" transform="matrix(0.9999025464057922,-0.013962180353701115,0.013962180353701115,0.9999025464057922,186.95443725585938,231.34649658203125)" opacity="1"><g opacity="1" transform="matrix(1,0,0,1,0,0)"><path fill="rgb(255,223,121)" fill-opacity="1" d=" M9.055000305175781,-47.801998138427734 C12.552000045776367,-67.32499694824219 2.625999927520752,-74.197998046875 -2.4030001163482666,-75.71800231933594 C5.2729997634887695,-68.1240005493164 3.7290000915527344,-55.82899856567383 0.7509999871253967,-42.07400131225586 C-3.7070000171661377,-21.486000061035156 -8.78600025177002,0.6269999742507935 -10.866000175476074,13.732999801635742 C-14.472000122070312,36.457000732421875 -15.395999908447266,56.00899887084961 -15.704000473022461,61.73699951171875 C-16.049999237060547,68.18800354003906 -18.006000518798828,65.34300231933594 -18.849000930786133,67.37799835205078 C-20.572999954223633,71.53500366210938 -11.8149995803833,73.73799896240234 -7.703999996185303,74.90399932861328 C-8.206999778747559,71.7959976196289 -4.864999771118164,29.339000701904297 -2.7769999504089355,15.793000221252441 C-0.9330000281333923,3.8269999027252197 8.072999954223633,-37.73699951171875 9.055000305175781,-47.801998138427734z"></path><path fill="rgb(255,177,57)" fill-opacity="1" d=" M9.055000305175781,-47.801998138427734 C12.552000045776367,-67.32499694824219 2.625999927520752,-74.197998046875 -2.4030001163482666,-75.71800231933594 C5.2729997634887695,-68.1240005493164 3.7290000915527344,-55.82899856567383 0.7509999871253967,-42.07400131225586 C-3.7070000171661377,-21.486000061035156 -8.78600025177002,0.6269999742507935 -10.866000175476074,13.732999801635742 C-14.472000122070312,36.457000732421875 -15.395999908447266,56.00899887084961 -15.704000473022461,61.73699951171875 C-16.049999237060547,68.18800354003906 -18.006000518798828,65.34300231933594 -18.849000930786133,67.37799835205078 C-20.572999954223633,71.53500366210938 -11.8149995803833,73.73799896240234 -7.703999996185303,74.90399932861328 C-8.206999778747559,71.7959976196289 -4.864999771118164,29.339000701904297 -2.7769999504089355,15.793000221252441 C-0.9330000281333923,3.8269999027252197 8.072999954223633,-37.73699951171875 9.055000305175781,-47.801998138427734z"></path></g></g><g style="display: block;" transform="matrix(0.9999025464057922,-0.013962180353701115,0.013962180353701115,0.9999025464057922,142.76583862304688,232.32855224609375)" opacity="1"><g opacity="1" transform="matrix(1,0,0,1,0,0)"><path fill="rgb(255,177,57)" fill-opacity="1" d=" M6.84499979019165,-59.034000396728516 C6.984000205993652,-47.32899856567383 9.168000221252441,-51.59000015258789 5.849999904632568,-34.069000244140625 C3.369999885559082,-20.97800064086914 0.26499998569488525,-4.709000110626221 -1.628000020980835,5.333000183105469 C-3.5250000953674316,15.397000312805176 -7.889999866485596,56.547000885009766 -8.692000389099121,62.847999572753906 C-4.11899995803833,64.09200286865234 0.675000011920929,64.7979965209961 1.9800000190734863,63.926998138427734 C4.7769999504089355,60.66699981689453 0.8740000128746033,59.76900100708008 1.0679999589920044,52.91899871826172 C1.305999994277954,44.53099822998047 5.2789998054504395,21.780000686645508 8.454999923706055,6.015999794006348 C10.857000350952148,-5.9070000648498535 13.394000053405762,-19.583999633789062 16.57900047302246,-35.0989990234375 C18.31800079345703,-43.569000244140625 20.233999252319336,-55.32899856567383 6.84499979019165,-59.034000396728516z"></path></g></g><g style="display: block;" transform="matrix(0.9999025464057922,-0.013962180353701115,0.013962180353701115,0.9999025464057922,174.85191345214844,227.16705322265625)" opacity="1"><g opacity="1" transform="matrix(1,0,0,1,0,0)"><path stroke-linecap="round" stroke-linejoin="round" fill-opacity="0" stroke="rgb(247,126,65)" stroke-opacity="1" stroke-width="8" d=" M-40.62900161743164,61.340999603271484 C-39.12900161743164,30.340999603271484 -29.128999710083008,-27.159000396728516 -23.90399932861328,-48.542999267578125 C-18.885000228881836,-69.08499908447266 -7.314000129699707,-77.72000122070312 7.117000102996826,-74.23300170898438 C20.871000289916992,-70.91000366210938 27.121000289916992,-62.909000396728516 17.538999557495117,-22.50200080871582 C15.074000358581543,-12.109000205993652 11.621000289916992,8.590999603271484 10.29699993133545,16.81100082397461 C6.697999954223633,39.1510009765625 3.6530001163482666,61.637001037597656 4.063000202178955,74.8030014038086"></path></g></g><g style="display: block;" transform="matrix(0.9999025464057922,-0.013962180353701115,0.013962180353701115,0.9999025464057922,121.544189453125,228.9205322265625)" opacity="1"><g opacity="1" transform="matrix(1,0,0,1,0,0)"><path fill="rgb(255,209,64)" fill-opacity="1" d=" M-30.13599967956543,45.48500061035156 C-28.020000457763672,28.25200080871582 -23.822999954223633,5.238999843597412 -19.367000579833984,-14.305999755859375 C-16.802000045776367,-25.555999755859375 -14.152000427246094,-35.65700149536133 -11.762999534606934,-42.84600067138672 C-5.74399995803833,-60.95800018310547 5.703000068664551,-64.50599670410156 15.092000007629395,-62.19900131225586 C28.44700050354004,-58.917999267578125 35.196998596191406,-55.167999267578125 26.045000076293945,-14.939000129699707 C24.312999725341797,-7.324999809265137 21.85700035095215,7.40500020980835 18.60700035095215,26.759000778198242 C16.31800079345703,40.39099884033203 14.425000190734863,53.071998596191406 13.529000282287598,62.749000549316406"></path></g></g><g style="display: block;" transform="matrix(0.9999025464057922,-0.013962180353701115,0.013962180353701115,0.9999025464057922,122.36076354980469,233.03851318359375)" opacity="1"><g opacity="1" transform="matrix(1,0,0,1,0,0)"><path fill="rgb(255,223,121)" fill-opacity="1" d=" M28.076000213623047,-59.1879997253418 C20.099000930786133,-71.65799713134766 -2.11899995803833,-69.56199645996094 -8.718000411987305,-52.042999267578125 C-15.86400032043457,-33.073001861572266 -24.150999069213867,1.3819999694824219 -28.076000213623047,38.12699890136719 C-24.479000091552734,42.965999603271484 -22.76799964904785,50.316001892089844 -20.152999877929688,67.12899780273438 C-19.902999877929688,63.683998107910156 -19.507999420166016,59.72700119018555 -19,55.4010009765625 C-18.148000717163086,48.15399932861328 -16.97599983215332,39.87200164794922 -15.621000289916992,31.219999313354492 C-10.640999794006348,-0.5839999914169312 -3.194999933242798,-37.374000549316406 -0.14399999380111694,-46.01900100708008 C4.23199987411499,-58.41899871826172 12.565999984741211,-66.59300231933594 28.076000213623047,-59.1879997253418z"></path></g></g><g style="display: block;" transform="matrix(0.9999025464057922,-0.013962180353701115,0.013962180353701115,0.9999025464057922,142.51583862304688,231.82901000976562)" opacity="1"><g opacity="1" transform="matrix(1,0,0,1,0,0)"><path fill="rgb(255,223,121)" fill-opacity="1" d=" M-7.117000102996826,-63.1879997253418 C0.3269999921321869,-61.05799865722656 3.4179999828338623,-53.84000015258789 0.10000000149011612,-36.319000244140625 C-2.380000114440918,-23.22800064086914 -4.985000133514404,-8.708999633789062 -6.877999782562256,1.3329999446868896 C-8.774999618530273,11.397000312805176 -11.298999786376953,26.68899917602539 -12.772000312805176,37.31999969482422 C-13.5,42.582000732421875 -13.968000411987305,47.722999572753906 -14.321000099182129,50.79499816894531 C-14.944000244140625,56.224998474121094 -16.881000518798828,54.8650016784668 -17.625999450683594,56.736000061035156 C-18.586999893188477,58.946998596191406 -13.788000106811523,61.35900115966797 -8.657999992370605,62.858001708984375 C-8.390000343322754,60.797000885009766 -8.140000343322754,54.17100143432617 -7.682000160217285,50.79399871826172 C-6.552999973297119,42.479000091552734 3.5369999408721924,-20.856000900268555 6.828999996185303,-36.3489990234375 C11.234000205993652,-57.07899856567383 -1.5390000343322754,-65.90499877929688 -7.117000102996826,-63.1879997253418z"></path><path fill="rgb(255,177,57)" fill-opacity="1" d=" M-7.117000102996826,-63.1879997253418 C0.3269999921321869,-61.05799865722656 3.4179999828338623,-53.84000015258789 0.10000000149011612,-36.319000244140625 C-2.380000114440918,-23.22800064086914 -4.985000133514404,-8.708999633789062 -6.877999782562256,1.3329999446868896 C-8.774999618530273,11.397000312805176 -11.298999786376953,26.68899917602539 -12.772000312805176,37.31999969482422 C-13.5,42.582000732421875 -13.968000411987305,47.722999572753906 -14.321000099182129,50.79499816894531 C-14.944000244140625,56.224998474121094 -16.881000518798828,54.8650016784668 -17.625999450683594,56.736000061035156 C-18.586999893188477,58.946998596191406 -13.788000106811523,61.35900115966797 -8.657999992370605,62.858001708984375 C-8.390000343322754,60.797000885009766 -8.140000343322754,54.17100143432617 -7.682000160217285,50.79399871826172 C-6.552999973297119,42.479000091552734 3.5369999408721924,-20.856000900268555 6.828999996185303,-36.3489990234375 C11.234000205993652,-57.07899856567383 -1.5390000343322754,-65.90499877929688 -7.117000102996826,-63.1879997253418z"></path></g></g><g style="display: block;" transform="matrix(0.9999025464057922,-0.013962180353701115,0.013962180353701115,0.9999025464057922,121.544189453125,228.9205322265625)" opacity="1"><g opacity="1" transform="matrix(1,0,0,1,0,0)"><path stroke-linecap="round" stroke-linejoin="round" fill-opacity="0" stroke="rgb(247,126,65)" stroke-opacity="1" stroke-width="8" d=" M-30.13599967956543,45.48500061035156 C-28.020000457763672,28.25200080871582 -23.822999954223633,5.238999843597412 -19.367000579833984,-14.305999755859375 C-16.802000045776367,-25.555999755859375 -14.152000427246094,-35.65700149536133 -11.762999534606934,-42.84600067138672 C-5.74399995803833,-60.95800018310547 5.703000068664551,-64.50599670410156 15.092000007629395,-62.19900131225586 C28.44700050354004,-58.917999267578125 35.196998596191406,-55.167999267578125 26.045000076293945,-14.939000129699707 C24.312999725341797,-7.324999809265137 21.85700035095215,7.40500020980835 18.60700035095215,26.759000778198242 C16.31800079345703,40.39099884033203 14.425000190734863,53.071998596191406 13.529000282287598,62.749000549316406"></path></g></g><g style="display: block;" transform="matrix(0.9884939193725586,-0.15126082301139832,0.15126082301139832,0.9884939193725586,233.86972045898438,248.37210083007812)" opacity="1"><g opacity="1" transform="matrix(1,0,0,1,0,0)"><path fill="rgb(255,223,121)" fill-opacity="0" d=" M-134.7480010986328,66.38800048828125 C-145.99400329589844,63.55500030517578 -151.33200073242188,62.55099868774414 -138.28700256347656,72.74099731445312 C-128.73300170898438,80.2040023803711 -101.65399932861328,96.61399841308594 -90.37100219726562,131.86399841308594 C-82.55500030517578,156.28199768066406 -72.81800079345703,144.52699279785156 -62.573001861572266,139.27699279785156 C-55.95800018310547,135.88699340820312 -48.87200164794922,133.43699645996094 -41.3120002746582,132.64700317382812 C-34.47200012207031,131.9320068359375 -33.659000396728516,126.61900329589844 -39.96900177001953,125.23100280761719 C-46.737998962402344,123.74199676513672 -54.16299819946289,123.87300109863281 -63.27000045776367,124.22899627685547 C-73.18699645996094,124.61699676513672 -85.33599853515625,117.28099822998047 -87.62699890136719,112.66400146484375 C-97.13200378417969,93.51200103759766 -113.04000091552734,71.85600280761719 -134.7480010986328,66.38800048828125z"></path></g></g><g style="display: block;" transform="matrix(0.9999025464057922,-0.013962180353701115,0.013962180353701115,0.9999025464057922,124.6219482421875,371.26641845703125)" opacity="1"><g opacity="1" transform="matrix(1,0,0,1,0,0)"><path fill="rgb(255,223,121)" fill-opacity="1" d=" M17.500999450683594,31.700000762939453 C4.185999870300293,13.793999671936035 -3.687999963760376,4.683000087738037 -10.319999694824219,-5.0229997634887695 C-19.03700065612793,-17.77899932861328 -18.250999450683594,-20.69300079345703 -4.348999977111816,-15.895999908447266 C16.999000549316406,-8.529999732971191 33.89799880981445,16.708999633789062 35.17100143432617,31.55699920654297 C37.3120002746582,56.520999908447266 30.583999633789062,49.29399871826172 17.500999450683594,31.700000762939453z"></path></g></g><g style="display: none;"><g><path></path></g></g><g style="display: block;" transform="matrix(0.9999025464057922,-0.013962180353701115,0.013962180353701115,0.9999025464057922,158.95091247558594,352.40228271484375)" opacity="1"><g opacity="1" transform="matrix(1,0,0,1,-31.75,-19)"><path fill="rgb(255,177,57)" fill-opacity="1" d=" M-25.426000595092773,5.6529998779296875 C-43.737998962402344,-0.7450000047683716 -29.18600082397461,-42.42300033569336 -39.1870002746582,-60.696998596191406 C-6.440000057220459,-53.606998443603516 -18.461999893188477,-18.350000381469727 -13.673999786376953,-9.772000312805176 C-4.080999851226807,7.413000106811523 -23.742000579833984,6.241000175476074 -25.426000595092773,5.6529998779296875z"></path></g><g opacity="1" transform="matrix(1,0,0,1,-31.75,-19)"><path fill="rgb(255,177,57)" fill-opacity="1" d=" M-25.426000595092773,5.6529998779296875 C-43.737998962402344,-0.7450000047683716 -18.461999893188477,-18.350000381469727 -13.673999786376953,-9.772000312805176 C-4.080999851226807,7.413000106811523 40.04399871826172,16.652000427246094 39.17499923706055,55.862998962402344 C39.11199951171875,58.685001373291016 37.880001068115234,63.20500183105469 36.36000061035156,58.96099853515625 C32.8650016784668,49.20600128173828 22.572999954223633,35.402000427246094 11.086999893188477,26.35700035095215 C-9.189000129699707,10.387999534606934 -23.742000579833984,6.241000175476074 -25.426000595092773,5.6529998779296875z"></path></g><g opacity="1" transform="matrix(1,0,0,1,-31.75,-19)"><path fill="rgb(255,223,121)" fill-opacity="1" d=" M-25.426000595092773,5.6529998779296875 C-43.737998962402344,-0.7450000047683716 -29.18600082397461,-42.42300033569336 -39.1870002746582,-60.696998596191406 C-21.29800033569336,-55.025001525878906 -28.617000579833984,-5.372000217437744 -25.426000595092773,5.6529998779296875z"></path><path fill="rgb(255,177,57)" fill-opacity="1" d=" M-25.426000595092773,5.6529998779296875 C-43.737998962402344,-0.7450000047683716 -29.18600082397461,-42.42300033569336 -39.1870002746582,-60.696998596191406 C-21.29800033569336,-55.025001525878906 -28.617000579833984,-5.372000217437744 -25.426000595092773,5.6529998779296875z"></path></g><g opacity="1" transform="matrix(1,0,0,1,-85.75,-31.5)"><path fill="rgb(255,223,121)" fill-opacity="1" d=" M-10.6899995803833,58.04199981689453 C-10.439000129699707,25.527000427246094 -4.1620001792907715,10.83899974822998 -4.413000106811523,-11.005000114440918 C-4.664000034332275,-32.8489990234375 -7.632999897003174,-39.196998596191406 -5.184999942779541,-45.09700012207031 C-2.5269999504089355,-51.50299835205078 8.62600040435791,-52.492000579833984 16.093000411987305,-46.64099884033203 C14.866999626159668,-52.32500076293945 5.840000152587891,-58.00899887084961 -1.9620000123977661,-58.00899887084961 C-5.421999931335449,-58.00899887084961 -20.402000427246094,-60.053001403808594 -14.88700008392334,-32.20100021362305 C-10.303000450134277,-9.050000190734863 -17.4689998626709,31.302000045776367 -10.6899995803833,58.04199981689453z"></path></g><g opacity="1" transform="matrix(1,0,0,1,0,0)"><path stroke-linecap="round" stroke-linejoin="round" fill-opacity="0" stroke="rgb(247,126,65)" stroke-opacity="1" stroke-width="8" d=" M-94.9739990234375,43.435001373291016 C-103.46800231933594,11.402999877929688 -100.1449966430664,-17.325000762939453 -99.7229995727539,-42.70800018310547 C-99.2750015258789,-69.6969985961914 -106.64199829101562,-80.00399780273438 -97.09300231933594,-86.63800048828125 C-89.41400146484375,-91.9729995727539 -71.78199768066406,-90.50499725341797 -63.16999816894531,-73.80699920654297 C-55.82400131225586,-59.566001892089844 -58.54999923706055,-43.18299865722656 -58.21500015258789,-30.579999923706055 C-58.0880012512207,-25.808000564575195 -57.724998474121094,-21.812999725341797 -57.13999938964844,-18.339000701904297"></path></g></g><g style="display: block;" transform="matrix(0.9999025464057922,-0.013962180353701115,0.013962180353701115,0.9999025464057922,206.2947235107422,389.659912109375)" opacity="1"><g opacity="1" transform="matrix(1,0,0,1,0,0)"><path fill="rgb(255,223,121)" fill-opacity="1" d=" M34.77299880981445,-13.741000175476074 C34.374000549316406,5.590000152587891 25.415000915527344,20.94700050354004 9.151000022888184,25.0939998626709 C-5.36899995803833,28.79599952697754 -13.8100004196167,18.89900016784668 1.7070000171661377,8.024999618530273 C9.708000183105469,2.4179999828338623 14.53600025177002,-5.708000183105469 18.815000534057617,-18.167999267578125 C22.715999603271484,-29.527999877929688 35.16899871826172,-32.922000885009766 34.77299880981445,-13.741000175476074z"></path></g></g><g style="display: none;"><g><path></path></g></g><g style="display: block;" transform="matrix(1,0,0,1,256,256)" opacity="1"><g opacity="1" transform="matrix(1,0,0,1,0,0)"><path stroke-linecap="round" stroke-linejoin="miter" fill-opacity="0" stroke-miterlimit="4" stroke="rgb(255,255,255)" stroke-opacity="1" stroke-width="6" d=" M-118.57599639892578,116.2249984741211 C-114.04499816894531,120.59100341796875 -110.08599853515625,125.39099884033203 -106.99299621582031,130.24899291992188"></path></g><g opacity="1" transform="matrix(1,0,0,1,0,0)"><path stroke-linecap="round" stroke-linejoin="miter" fill-opacity="0" stroke-miterlimit="4" stroke="rgb(255,255,255)" stroke-opacity="1" stroke-width="6" d=" M-130.50599670410156,106.697998046875 C-129.85000610351562,107.125 -129.19900512695312,107.56300354003906 -128.55499267578125,108.01200103759766"></path></g></g></g><g style="display: none;"><g><path fill="url(#__lottie_element_23534)" mask="url(#__lottie_element_23536)"></path></g></g><g style="display: none;"><g><path fill="url(#__lottie_element_23528)" mask="url(#__lottie_element_23530)"></path></g></g><g style="display: none;"><g><path fill="url(#__lottie_element_23522)" mask="url(#__lottie_element_23524)"></path></g></g><g style="display: none;"><g><path fill="url(#__lottie_element_23516)" mask="url(#__lottie_element_23518)"></path></g></g><g clip-path="url(#__lottie_element_23504)" style="display: none;"><g style="display: none;"><g><path fill="url(#__lottie_element_23510)"></path></g><g><path fill="url(#__lottie_element_23511)"></path></g><g><path fill="url(#__lottie_element_23512)"></path><path stroke-linecap="butt" stroke-linejoin="miter" fill-opacity="0" stroke-miterlimit="4"></path></g></g></g><g clip-path="url(#__lottie_element_23493)" style="display: none;"><g style="display: none;"><g><path fill="url(#__lottie_element_23499)"></path></g><g><path fill="url(#__lottie_element_23500)"></path></g><g><path fill="url(#__lottie_element_23501)"></path><path stroke-linecap="butt" stroke-linejoin="miter" fill-opacity="0" stroke-miterlimit="4"></path></g></g></g><g clip-path="url(#__lottie_element_23482)" style="display: none;"><g style="display: none;"><g><path fill="url(#__lottie_element_23488)"></path></g><g><path fill="url(#__lottie_element_23489)"></path></g><g><path fill="url(#__lottie_element_23490)"></path><path stroke-linecap="butt" stroke-linejoin="miter" fill-opacity="0" stroke-miterlimit="4"></path></g></g></g><g style="display: none;"><g><path fill="url(#__lottie_element_23477)" mask="url(#__lottie_element_23479)"></path></g></g><g style="display: none;"><g><path fill="url(#__lottie_element_23471)" mask="url(#__lottie_element_23473)"></path></g></g><g style="display: none;"><g><path fill="url(#__lottie_element_23465)" mask="url(#__lottie_element_23467)"></path></g></g><g clip-path="url(#__lottie_element_23453)" style="display: none;"><g style="display: none;"><g><path fill="url(#__lottie_element_23459)"></path></g><g><path fill="url(#__lottie_element_23460)"></path></g><g><path fill="url(#__lottie_element_23461)"></path><path stroke-linecap="butt" stroke-linejoin="miter" fill-opacity="0" stroke-miterlimit="4"></path></g></g></g><g clip-path="url(#__lottie_element_23442)" style="display: none;"><g style="display: none;"><g><path fill="url(#__lottie_element_23448)"></path></g><g><path fill="url(#__lottie_element_23449)"></path></g><g><path fill="url(#__lottie_element_23450)"></path><path stroke-linecap="butt" stroke-linejoin="miter" fill-opacity="0" stroke-miterlimit="4"></path></g></g></g><g clip-path="url(#__lottie_element_23431)" style="display: none;"><g style="display: none;"><g><path fill="url(#__lottie_element_23437)"></path></g><g><path fill="url(#__lottie_element_23438)"></path></g><g><path fill="url(#__lottie_element_23439)"></path><path stroke-linecap="butt" stroke-linejoin="miter" fill-opacity="0" stroke-miterlimit="4"></path></g></g></g><g clip-path="url(#__lottie_element_23421)" style="display: none;"><g style="display: none;"><g><path fill="url(#__lottie_element_23427)"></path></g><g><path fill="url(#__lottie_element_23428)"></path></g><g><path fill="url(#__lottie_element_23429)"></path><path stroke-linecap="butt" stroke-linejoin="miter" fill-opacity="0" stroke-miterlimit="4"></path></g></g></g><g clip-path="url(#__lottie_element_23411)" style="display: none;"><g style="display: none;"><g><path fill="url(#__lottie_element_23417)"></path></g><g><path fill="url(#__lottie_element_23418)"></path></g><g><path fill="url(#__lottie_element_23419)"></path><path stroke-linecap="butt" stroke-linejoin="miter" fill-opacity="0" stroke-miterlimit="4"></path></g></g></g></g></svg>