<svg xmlns="http://www.w3.org/2000/svg" viewBox="0 0 512 512" width="512" height="512" style="width: 100%; height: 100%; transform: translate3d(0,0,0);" preserveAspectRatio="xMidYMid meet"><defs><clipPath id="__lottie_element_23789"><rect width="512" height="512" x="0" y="0"></rect></clipPath></defs><g clip-path="url(#__lottie_element_23789)"><g style="display: block;" transform="matrix(1,0,0,1,-14,42.999969482421875)" opacity="1"><g opacity="1" transform="matrix(1,0,0,1,203.35000610351562,251.64300537109375)"><path fill="rgb(255,209,64)" fill-opacity="1" d=" M-41.007999420166016,-36.29999923706055 C-55.222999572753906,-26.145999908447266 -56.35100173950195,-9.220999717712402 -43.92300033569336,4.617000102996826 C-31.4950008392334,18.454999923706055 -7.459000110626221,37.59000015258789 7.906000137329102,38.6510009765625 C21.577999114990234,39.595001220703125 37.08599853515625,30.253999710083008 55.262001037597656,17.3799991607666 C71.99800109863281,5.526000022888184 69.89099884033203,-29.792999267578125 31.184999465942383,-19.81800079345703 C27.854000091552734,-18.959999084472656 24.25200080871582,-17.766000747680664 20.368000030517578,-16.19300079345703 C27.71500015258789,-23.708999633789062 31.847000122070312,-32.007999420166016 32.65700149536133,-39.94200134277344 C33.375999450683594,-46.98400115966797 40.39699935913086,-73.2760009765625 31.016000747680664,-71.25199890136719 C-3.558000087738037,-63.792999267578125 -29.444000244140625,-44.560001373291016 -41.007999420166016,-36.29999923706055z"></path></g><g opacity="1" transform="matrix(1,0,0,1,203.35000610351562,251.64300537109375)"><path fill="rgb(255,177,57)" fill-opacity="0.5" d=" M-41.007999420166016,-36.29999923706055 C-55.222999572753906,-26.145999908447266 -56.35100173950195,-9.220999717712402 -43.92300033569336,4.617000102996826 C-31.4950008392334,18.454999923706055 -7.459000110626221,37.59000015258789 7.906000137329102,38.6510009765625 C21.577999114990234,39.595001220703125 37.08599853515625,30.253999710083008 55.262001037597656,17.3799991607666 C71.99800109863281,5.526000022888184 69.89099884033203,-29.792999267578125 31.184999465942383,-19.81800079345703 C27.854000091552734,-18.959999084472656 24.25200080871582,-17.766000747680664 20.368000030517578,-16.19300079345703 C27.71500015258789,-23.708999633789062 31.847000122070312,-32.007999420166016 32.65700149536133,-39.94200134277344 C33.375999450683594,-46.98400115966797 40.39699935913086,-73.2760009765625 31.016000747680664,-71.25199890136719 C-3.558000087738037,-63.792999267578125 -29.444000244140625,-44.560001373291016 -41.007999420166016,-36.29999923706055z"></path></g><g opacity="1" transform="matrix(1,0,0,1,206.1649932861328,251.4810028076172)"><path fill="rgb(255,177,57)" fill-opacity="1" d=" M10.996000289916992,-2.7070000171661377 C12.394000053405762,-1.8530000448226929 13.194000244140625,-1.9179999828338623 14.21500015258789,-0.8029999732971191 C22.969999313354492,8.767000198364258 19.584999084472656,23.018999099731445 -3.385999917984009,21.606000900268555 C13.835000038146973,25.268999099731445 37.2869987487793,26.65999984741211 47.801998138427734,18.95199966430664 C70.0260009765625,2.6619999408721924 64.06099700927734,-28.531999588012695 23.121000289916992,-16.847000122070312 C20.249000549316406,-16.027000427246094 17.204999923706055,-14.996000289916992 13.987000465393066,-13.734999656677246 C19.44300079345703,-20.35099983215332 25.160999298095703,-33.972999572753906 28.398000717163086,-46.12300109863281 C31.152000427246094,-56.46200180053711 32.10900115966797,-65.73500061035156 29.57699966430664,-68.71600341796875 C11.335000038146973,-66.73100280761719 -36.915000915527344,-43.48099899291992 -47.65700149536133,-28.34600067138672 C-56.025001525878906,-13.211999893188477 -2.5889999866485596,4.390999794006348 10.996000289916992,-2.7070000171661377z"></path></g></g><g style="display: block;" transform="matrix(1,0,0,1,242,298.9999694824219)" opacity="1"><g opacity="1" transform="matrix(1,0,0,1,0,0)"><path stroke-linecap="round" stroke-linejoin="round" fill-opacity="0" stroke="rgb(247,126,65)" stroke-opacity="1" stroke-width="8" d=" M-1,-84.5 C-35,-76.5 -76.15599822998047,-53.23400115966797 -90.5,-43.5 C-104.5,-34 -110,-16 -95.5,0 C-75.67900085449219,21.871999740600586 -62.47999954223633,26.83799934387207 -52.5,32 C-38,39.5 -13,25.5 5.5,10 C18.909000396728516,-1.2339999675750732 11.986000061035156,-23.841999053955078 -6,-25.5 C-23.625,-27.125 -30,-21.875 -35.720001220703125,-17.73699951171875 C-35.5,-12.5 -36.04600143432617,0.07800000160932541 -42.5,5.5"></path></g><g opacity="1" transform="matrix(1,0,0,1,0,0)"><path stroke-linecap="round" stroke-linejoin="miter" fill-opacity="0" stroke-miterlimit="4" stroke="rgb(247,126,65)" stroke-opacity="1" stroke-width="8" d=" M-65.5,-25.25 C-51.25,-20.25 -41.25,-18.75 -36.5,-18"></path></g><g opacity="1" transform="matrix(1,0,0,1,0,0)"><path stroke-linecap="round" stroke-linejoin="miter" fill-opacity="0" stroke-miterlimit="4" stroke="rgb(247,126,65)" stroke-opacity="1" stroke-width="8" d=" M-19.29599952697754,-40.505001068115234 C-19.29599952697754,-33.255001068115234 -25.569000244140625,-25.638999938964844 -28.099000930786133,-22.85700035095215"></path></g></g><g style="display: block;" transform="matrix(1,0,0,1,-22.5,43)" opacity="1"><g opacity="1" transform="matrix(1,0,0,1,391.4490051269531,369.4330139160156)"><path fill="rgb(255,209,64)" fill-opacity="1" d=" M7.053999900817871,-59.058998107910156 C21.51799964904785,-45.51100158691406 38.0620002746582,-29.854000091552734 58.92599868774414,-12.569000244140625 C66.9749984741211,-7.691999912261963 52.49800109863281,17.57900047302246 36.0099983215332,37.28200149536133 C20.777000427246094,55.48400115966797 -1.1150000095367432,64.26100158691406 -10.538000106811523,55.84199905395508 C-20.003000259399414,47.3849983215332 -45.41899871826172,22.233999252319336 -61.21699905395508,16.295000076293945"></path></g></g><g style="display: block;" transform="matrix(1,0,0,1,-22.5,42.999969482421875)" opacity="1"><g opacity="1" transform="matrix(1,0,0,1,201.09500122070312,314.7460021972656)"><path fill="rgb(255,209,64)" fill-opacity="1" d=" M53.91400146484375,-46.58399963378906 C46.7760009765625,-37.071998596191406 23.128000259399414,-37.94200134277344 8.159000396728516,-39.108001708984375 C-4.879000186920166,-40.125 -16.783000946044922,-46.75400161743164 -30.24799919128418,-52.861000061035156 C-42.71500015258789,-58.51499938964844 -56.52199935913086,-63.742000579833984 -73.79399871826172,-63.62200164794922 C-106.10900115966797,-63.402000427246094 -113.23500061035156,-46.10200119018555 -104.60900115966797,-32.76100158691406 C-97.93599700927734,-22.44099998474121 -78.73799896240234,-21.11400032043457 -62.650001525878906,-15.913999557495117 C-47.34000015258789,-10.965999603271484 -31.283000946044922,-0.9120000004768372 -10.480999946594238,14.711000442504883 C7.183000087738037,27.97100067138672 14.479999542236328,38.444000244140625 45.40800094604492,56.8380012512207 C71.98799896240234,72.64700317382812 107.31199645996094,61.92900085449219 128.3520050048828,70.68299865722656"></path></g></g><g style="display: block;" transform="matrix(1,0,0,1,-22.5,42.999969482421875)" opacity="1"><g opacity="1" transform="matrix(1,0,0,1,181.7010040283203,201.93299865722656)"><path fill="rgb(255,209,64)" fill-opacity="1" d=" M68.59500122070312,35.35900115966797 C39.35100173950195,39.4640007019043 12.142000198364258,31.368000030517578 -6.053999900817871,23.55900001525879 C-25.549999237060547,27.149999618530273 -45.301998138427734,20.73699951171875 -56.07600021362305,17.916000366210938 C-65.56800079345703,18.429000854492188 -92.24600219726562,22.020000457763672 -107.89399719238281,9.194000244140625 C-117.74600219726562,1.1180000305175781 -122.21900177001953,-23.423999786376953 -90.44999694824219,-20.81999969482422 C-81.6449966430664,-20.097999572753906 -70.52200317382812,-20.121999740600586 -58.11399841308594,-20.628000259399414 C-41.51499938964844,-21.304000854492188 -22.617000579833984,-22.841999053955078 -3.8970000743865967,-24.610000610351562 C13.128000259399414,-26.216999053955078 30.006999969482422,-28.014999389648438 44.875,-29.525999069213867 C67.36499786376953,-31.81100082397461 95.16899871826172,-43.41899871826172 115.17500305175781,-30.360000610351562"></path></g></g><g style="display: block;" transform="matrix(1,0,0,1,237.18600463867188,340.9559631347656)" opacity="1"><g opacity="1" transform="matrix(1,0,0,1,0,0)"><path fill="rgb(255,209,64)" fill-opacity="1" d=" M-6.482999801635742,-27.749000549316406 C-17.990999221801758,-17.86400032043457 -44.90800094604492,55.39500045776367 -11.954999923706055,74.98100280761719 C14.625,90.77799987792969 49.981998443603516,79.99600219726562 71.0459976196289,88.77200317382812 C86.84400177001953,94.71099853515625 153.781005859375,26.965999603271484 139.31700134277344,13.418000221252441 C120.23100280761719,-4.059999942779541 101.82499694824219,-43.60300064086914 75.76899719238281,-81.43699645996094 C64.2249984741211,-98.1989974975586 50.512001037597656,-116.93800354003906 37.82500076293945,-125.43099975585938 C17.81800079345703,-138.49000549316406 -43.507999420166016,-54.9119987487793 -14.263999938964844,-59.01599884033203 C-14.263999938964844,-59.01599884033203 -6.482999801635742,-27.749000549316406 -6.482999801635742,-27.749000549316406z"></path></g></g><g style="display: block;" transform="matrix(1,0,0,1,-22.5,43)" opacity="1"><g opacity="1" transform="matrix(1,0,0,1,362.24200439453125,283.85400390625)"><path fill="rgb(255,223,121)" fill-opacity="1" d=" M23.89699935913086,12.746000289916992 C36.446998596191406,27.674999237060547 77.625,64.28099822998047 87.0790023803711,71.07099914550781 C94.68399810791016,76.53299713134766 80.6969985961914,101.95700073242188 67.7969970703125,117.86399841308594 C76.62999725341797,100.92400360107422 83.34100341796875,85.41000366210938 78.20500183105469,79.4020004272461 C74.83000183105469,75.4530029296875 54.83399963378906,59.016998291015625 38.87200164794922,46.391998291015625 C25.88599967956543,36.119998931884766 11.444000244140625,34.16899871826172 8.206999778747559,25.68600082397461 C4.757999897003174,16.645999908447266 17.507999420166016,5.145999908447266 23.89699935913086,12.746000289916992z"></path></g></g><g style="display: block;" transform="matrix(1,0,0,1,-22.5,42.999969482421875)" opacity="1"><g opacity="1" transform="matrix(1,0,0,1,362.24200439453125,283.85400390625)"><path fill="rgb(255,223,121)" fill-opacity="1" d=" M-49.09000015258789,-97.20899963378906 C-30.80299949645996,-77.58499908447266 -3.700000047683716,-29.950000762939453 19.14699935913086,7.495999813079834 C29.30500030517578,24.145000457763672 14.758000373840332,40.145999908447266 8.206999778747559,25.68600082397461 C-9.616999626159668,-13.657999992370605 -27.913999557495117,-45.435001373291016 -53.65700149536133,-83.2229995727539 C-61.17100143432617,-94.25299835205078 -68.16999816894531,-105.02100372314453 -89.23400115966797,-114.87799835205078 C-78.01000213623047,-123.822998046875 -62.05699920654297,-111.12300109863281 -49.09000015258789,-97.20899963378906z"></path></g></g><g style="display: block;" transform="matrix(1,0,0,1,-22.5,42.999969482421875)" opacity="1"><g opacity="1" transform="matrix(1,0,0,1,185.79600524902344,187.218994140625)"><path fill="rgb(255,223,121)" fill-opacity="1" d=" M-115.61599731445312,21.27899932861328 C-127.36599731445312,6.677999973297119 -113.11699676513672,-6.546000003814697 -103.2020034790039,-6.054999828338623 C-80.63300323486328,-4.939000129699707 -47.512001037597656,-6.447999954223633 -17.9689998626709,-8.644000053405762 C1.3569999933242798,-10.079999923706055 19.152999877929688,-11.810999870300293 31.461000442504883,-13.291999816894531 C59.57699966430664,-16.676000595092773 79.2249984741211,-23.416000366210938 98.22100067138672,-20.613000869750977 C115.35900115966797,-18.083999633789062 118.78299713134766,-7.355000019073486 120.04499816894531,-6.073999881744385 C97.84200286865234,-8.045999526977539 100.64199829101562,-16.17099952697754 60.77399826049805,-7.919000148773193 C34.74700164794922,-2.5320000648498535 4.974999904632568,-1.6089999675750732 -21.496000289916992,0.7850000262260437 C-45.667999267578125,2.9719998836517334 -79.71800231933594,4.550000190734863 -95.00199890136719,3.322999954223633 C-106.13999938964844,2.427999973297119 -115.06900024414062,4.107999801635742 -115.61599731445312,21.27899932861328z"></path></g></g><g style="display: block;" transform="matrix(1,0,0,1,-23.75,42.5)" opacity="1"><g opacity="1" transform="matrix(1,0,0,1,253.88900756835938,340.3349914550781)"><path fill="rgb(255,177,57)" fill-opacity="1" d=" M76.29499816894531,25.527999877929688 C96.36100006103516,32.165000915527344 137.11900329589844,64.27899932861328 145.69900512695312,72.19999694824219 C154.2779998779297,80.12200164794922 164.531005859375,70.79399871826172 180.89599609375,56.18899917602539 C162.80099487304688,85.80899810791016 137.33900451660156,91.90799713134766 130.06700134277344,86.67500305175781 C110.34500122070312,72.48300170898438 93.86100006103516,50.915000915527344 73.697998046875,43.542999267578125 C67.99500274658203,41.45800018310547 65.66799926757812,22.01300048828125 76.29499816894531,25.527999877929688z"></path></g></g><g style="display: block;" transform="matrix(1,0,0,1,-22.5,42.999969482421875)" opacity="1"><g opacity="1" transform="matrix(1,0,0,1,175.20799255371094,266.0329895019531)"><path fill="rgb(255,223,121)" fill-opacity="1" d=" M99.16300201416016,-15.581999778747559 C109.91799926757812,-2.2699999809265137 73.84600067138672,18.867000579833984 61.88199996948242,20.847999572753906 C43.04199981689453,23.966999053955078 21.79199981689453,20.466999053955078 2.1730000972747803,10.173999786376953 C-15.12399959564209,1.0989999771118164 -31.20800018310547,-6.7829999923706055 -49.21200180053711,-6.2769999504089355 C-68.24500274658203,-5.742000102996826 -75.60700225830078,-1.090999960899353 -78.97100067138672,13.074000358581543 C-83.79499816894531,-1.75 -72.77899932861328,-11.071000099182129 -62.507999420166016,-13.625 C-31.70800018310547,-21.283000946044922 -4.815999984741211,-3.6610000133514404 13.072999954223633,3.7709999084472656 C29.79199981689453,10.717000007629395 48.04199981689453,14.717000007629395 68.56099700927734,8.829999923706055 C76.71600341796875,6.489999771118164 82.79199981689453,2.2170000076293945 99.16300201416016,-15.581999778747559z"></path></g><g opacity="1" transform="matrix(1,0,0,1,253.88900756835938,340.3349914550781)"><path fill="rgb(255,177,57)" fill-opacity="1" d=" M-147.81300354003906,-82.60900115966797 C-166.13900756835938,-57.334999084472656 -124.25399780273438,-58.207000732421875 -98.3290023803711,-47.50600051879883 C-79.13899993896484,-39.584999084472656 -55.888999938964844,-24.834999084472656 -39.24700164794922,-12.065999984741211 C-25.382999420166016,-1.4279999732971191 -16.641000747680664,10.848999977111816 15.581000328063965,18.87299919128418 C24.12700080871582,21.000999450683594 61.861000061035156,22.163999557495117 80.04199981689453,15.451000213623047 C84.7020034790039,13.730999946594238 87.72000122070312,16.73200035095215 84.71800231933594,20.77899932861328 C79.61100006103516,27.663999557495117 84.73400115966797,27.808000564575195 91.29499816894531,32.02799987792969 C108.61100006103516,43.165000915527344 87.11100006103516,47.915000915527344 72.697998046875,43.792999267578125 C57.90999984741211,39.56399917602539 39.35599899291992,41.768001556396484 18.32699966430664,39.132999420166016 C-6.572000026702881,36.01300048828125 -36.78799819946289,11.692999839782715 -53.83700180053711,-2.490000009536743 C-70.4749984741211,-16.329999923706055 -80.76499938964844,-23.312000274658203 -102.25199890136719,-35.3380012512207 C-117.08899688720703,-43.641998291015625 -142.46400451660156,-43.45100021362305 -152.01100158691406,-51.722999572753906 C-169.03700256347656,-66.47599792480469 -154.1320037841797,-81.56099700927734 -147.81300354003906,-82.60900115966797z"></path></g><g opacity="1" transform="matrix(1,0,0,1,175.20799255371094,266.0329895019531)"><path fill="rgb(255,177,57)" fill-opacity="1" d=" M99.16300201416016,-15.581999778747559 C109.91799926757812,-2.2699999809265137 73.84600067138672,18.867000579833984 61.88199996948242,20.847999572753906 C43.04199981689453,23.966999053955078 21.79199981689453,20.466999053955078 2.1730000972747803,10.173999786376953 C-15.12399959564209,1.0989999771118164 -31.20800018310547,-6.7829999923706055 -49.21200180053711,-6.2769999504089355 C-68.24500274658203,-5.742000102996826 -75.60700225830078,-1.090999960899353 -78.97100067138672,13.074000358581543 C-83.79499816894531,-1.75 -72.77899932861328,-11.071000099182129 -62.507999420166016,-13.625 C-31.70800018310547,-21.283000946044922 -4.815999984741211,-3.6610000133514404 13.072999954223633,3.7709999084472656 C29.79199981689453,10.717000007629395 48.04199981689453,14.717000007629395 68.56099700927734,8.829999923706055 C76.71600341796875,6.489999771118164 82.79199981689453,2.2170000076293945 99.16300201416016,-15.581999778747559z"></path></g></g><g style="display: block;" transform="matrix(1,0,0,1,-22.5,42.999969482421875)" opacity="1"><g opacity="1" transform="matrix(1,0,0,1,171.36500549316406,229.25399780273438)"><path fill="rgb(255,177,57)" fill-opacity="1" d=" M82.50800323486328,40.80500030517578 C81.90899658203125,34.19200134277344 79.75499725341797,18.658000946044922 70.8740005493164,8.935999870300293 C43.37699890136719,14.031000137329102 17.301000595092773,3.127000093460083 3.372999906539917,-3.5199999809265137 C-14.722999572753906,-1.9709999561309814 -29.608999252319336,-2.2880001068115234 -46.19300079345703,-8.583999633789062 C-59.65999984741211,-6.797999858856201 -74.45999908447266,-8.156000137329102 -84.21499633789062,-10.47599983215332 C-101.22899627685547,-14.522000312805176 -107.62999725341797,-20.229999542236328 -104.12100219726562,-40.80500030517578 C-99.05699920654297,-11.281000137329102 -54.323001861572266,-21.464000701904297 -48.483001708984375,-21.597000122070312 C-38.11899948120117,-21.832000732421875 -14.039999961853027,-14.9350004196167 6.289000034332275,-19.781999588012695 C22.218000411987305,-15.444000244140625 51.10300064086914,-5.829999923706055 84.88300323486328,-17.621999740600586 C95.40399932861328,-21.295000076293945 100.53500366210938,8.062000274658203 104.64299774169922,22.69099998474121 C107.85199737548828,34.1150016784668 91.28199768066406,39.03200149536133 82.50800323486328,40.80500030517578z"></path></g></g><g style="display: block;" transform="matrix(1,0,0,1,-22.5,42.999969482421875)" opacity="1"><g opacity="1" transform="matrix(1,0,0,1,248.16600036621094,253.40899658203125)"><path stroke-linecap="round" stroke-linejoin="round" fill-opacity="0" stroke="rgb(247,126,65)" stroke-opacity="1" stroke-width="8" d=" M-4.640999794006348,-15.07699966430664 C0.9990000128746033,-6.117000102996826 5.789000034332275,5.7230000495910645 4.396999835968018,15.076000213623047"></path></g></g><g style="display: block;" transform="matrix(1,0,0,1,-22.5,43)" opacity="1"><g opacity="1" transform="matrix(1,0,0,1,391.4490051269531,369.4330139160156)"><path stroke-linecap="round" stroke-linejoin="round" fill-opacity="0" stroke="rgb(247,126,65)" stroke-opacity="1" stroke-width="8" d=" M7.053999900817871,-59.058998107910156 C21.51799964904785,-45.51100158691406 38.0620002746582,-29.854000091552734 58.92599868774414,-12.569000244140625 C66.9749984741211,-7.691999912261963 52.49800109863281,17.57900047302246 36.0099983215332,37.28200149536133 C20.777000427246094,55.48400115966797 -1.1150000095367432,64.26100158691406 -10.538000106811523,55.84199905395508 C-20.003000259399414,47.3849983215332 -45.41899871826172,22.233999252319336 -61.21699905395508,16.295000076293945"></path></g></g><g style="display: block;" transform="matrix(1,0,0,1,-22.5,42.999969482421875)" opacity="1"><g opacity="1" transform="matrix(1,0,0,1,201.09500122070312,314.7460021972656)"><path stroke-linecap="round" stroke-linejoin="round" fill-opacity="0" stroke="rgb(247,126,65)" stroke-opacity="1" stroke-width="8" d=" M53.91400146484375,-46.58399963378906 C46.7760009765625,-37.071998596191406 23.128000259399414,-37.94200134277344 8.159000396728516,-39.108001708984375 C-4.879000186920166,-40.125 -16.783000946044922,-46.75400161743164 -30.24799919128418,-52.861000061035156 C-42.71500015258789,-58.51499938964844 -56.52199935913086,-63.742000579833984 -73.79399871826172,-63.62200164794922 C-106.10900115966797,-63.402000427246094 -113.23500061035156,-46.10200119018555 -104.60900115966797,-32.76100158691406 C-97.93599700927734,-22.44099998474121 -78.73799896240234,-21.11400032043457 -62.650001525878906,-15.913999557495117 C-47.34000015258789,-10.965999603271484 -31.283000946044922,-0.9120000004768372 -10.480999946594238,14.711000442504883 C7.183000087738037,27.97100067138672 14.479999542236328,38.444000244140625 45.40800094604492,56.8380012512207 C71.98799896240234,72.64700317382812 107.31199645996094,61.92900085449219 128.3520050048828,70.68299865722656"></path></g></g><g style="display: block;" transform="matrix(1,0,0,1,-22.5,42.999969482421875)" opacity="1"><g opacity="1" transform="matrix(1,0,0,1,348.1189880371094,241.3939971923828)"><path stroke-linecap="round" stroke-linejoin="round" fill-opacity="0" stroke="rgb(247,126,65)" stroke-opacity="1" stroke-width="8" d=" M-50.92300033569336,-69.62999725341797 C-38.72600173950195,-60.44599914550781 -29.077999114990234,-46.51300048828125 -16.95800018310547,-30.163000106811523 C9.083999633789062,4.9679999351501465 20.94499969482422,38.518001556396484 50.92300033569336,69.62999725341797"></path></g></g><g style="display: block;" transform="matrix(1,0,0,1,-22.5,42.999969482421875)" opacity="1"><g opacity="1" transform="matrix(1,0,0,1,181.7010040283203,201.93299865722656)"><path stroke-linecap="round" stroke-linejoin="round" fill-opacity="0" stroke="rgb(247,126,65)" stroke-opacity="1" stroke-width="8" d=" M68.59500122070312,35.35900115966797 C39.35100173950195,39.4640007019043 12.142000198364258,31.368000030517578 -6.053999900817871,23.55900001525879 C-25.549999237060547,27.149999618530273 -45.301998138427734,20.73699951171875 -56.07600021362305,17.916000366210938 C-65.56800079345703,18.429000854492188 -92.24600219726562,22.020000457763672 -107.89399719238281,9.194000244140625 C-117.74600219726562,1.1180000305175781 -122.21900177001953,-23.423999786376953 -90.44999694824219,-20.81999969482422 C-81.6449966430664,-20.097999572753906 -70.52200317382812,-20.121999740600586 -58.11399841308594,-20.628000259399414 C-41.51499938964844,-21.304000854492188 -22.617000579833984,-22.841999053955078 -3.8970000743865967,-24.610000610351562 C13.128000259399414,-26.216999053955078 30.006999969482422,-28.014999389648438 44.875,-29.525999069213867 C67.36499786376953,-31.81100082397461 95.16899871826172,-43.41899871826172 115.17500305175781,-30.360000610351562"></path></g></g><g style="display: block;" transform="matrix(1,0,0,1,-22.5,42.999969482421875)" opacity="1"><g opacity="1" transform="matrix(1,0,0,1,362.24200439453125,283.85400390625)"><path stroke-linecap="round" stroke-linejoin="round" fill-opacity="0" stroke="rgb(255,255,255)" stroke-opacity="1" stroke-width="6" d=" M-46.0620002746582,-71.91999816894531 C-48.52199935913086,-75.63600158691406 -51.051998138427734,-79.39900207519531 -53.65700149536133,-83.2229995727539 C-56.125999450683594,-86.8479995727539 -58.540000915527344,-90.44400024414062 -61.415000915527344,-93.98899841308594"></path></g><g opacity="1" transform="matrix(1,0,0,1,362.24200439453125,283.85400390625)"><path stroke-linecap="round" stroke-linejoin="round" fill-opacity="0" stroke="rgb(255,255,255)" stroke-opacity="1" stroke-width="6" d=" M-68.51499938964844,-101.53800201416016 C-69.43599700927734,-102.375 -70.40599822998047,-103.20800018310547 -71.43199920654297,-104.03700256347656"></path></g></g><g style="display: block;" transform="matrix(1,0,0,1,-22.5,42.999969482421875)" opacity="1"><g opacity="1" transform="matrix(1,0,0,1,185.79600524902344,187.218994140625)"><path stroke-linecap="round" stroke-linejoin="round" fill-opacity="0" stroke="rgb(255,255,255)" stroke-opacity="0" stroke-width="6" d=" M91.33399963378906,-11.473999977111816 C86.0469970703125,-11.75100040435791 79.16100311279297,-11.291999816894531 68.74099731445312,-9.454000473022461"></path></g><g opacity="1" transform="matrix(1,0,0,1,185.79600524902344,187.218994140625)"><path stroke-linecap="round" stroke-linejoin="round" fill-opacity="0" stroke="rgb(255,255,255)" stroke-opacity="0" stroke-width="6" d=" M59.10599899291992,-7.580999851226807 C58.263999938964844,-7.414000034332275 57.41899871826172,-7.250999927520752 56.56999969482422,-7.0929999351501465"></path></g></g></g></svg>