<svg xmlns="http://www.w3.org/2000/svg" viewBox="0 0 512 512" width="512" height="512" style="width: 100%; height: 100%; transform: translate3d(0,0,0);" preserveAspectRatio="xMidYMid meet"><defs><clipPath id="__lottie_element_23850"><rect width="512" height="512" x="0" y="0"></rect></clipPath><radialGradient id="__lottie_element_23859" spreadMethod="pad" gradientUnits="userSpaceOnUse" cx="-10.625" cy="120.75" r="23.42708101748914" fx="-10.625" fy="120.75"><stop offset="50%" stop-color="rgb(253,79,91)"></stop><stop offset="50%" stop-color="rgb(234,42,56)"></stop><stop offset="50%" stop-color="rgb(214,5,21)"></stop></radialGradient><radialGradient id="__lottie_element_23862" spreadMethod="pad" gradientUnits="userSpaceOnUse" cx="-10.625" cy="120.75" r="23.42708101748914" fx="-10.625" fy="120.75"><stop offset="50%" stop-color="rgb(253,79,91)"></stop><stop offset="50%" stop-color="rgb(234,42,56)"></stop><stop offset="50%" stop-color="rgb(214,5,21)"></stop></radialGradient><linearGradient id="__lottie_element_23878" spreadMethod="pad" gradientUnits="userSpaceOnUse" x1="52.369998931884766" y1="-173.99899291992188" x2="-74.5780029296875" y2="49.92599868774414"><stop offset="0%" stop-color="rgb(253,78,91)"></stop><stop offset="30%" stop-color="rgb(235,50,65)"></stop><stop offset="59%" stop-color="rgb(217,23,38)"></stop><stop offset="80%" stop-color="rgb(188,11,19)"></stop><stop offset="100%" stop-color="rgb(160,0,0)"></stop></linearGradient><radialGradient id="__lottie_element_23881" spreadMethod="pad" gradientUnits="userSpaceOnUse" cx="-18.016000747680664" cy="-122.95600128173828" r="229.21563138329165" fx="-18.016000747680664" fy="-122.95600128173828"><stop offset="0%" stop-color="rgb(253,137,140)"></stop><stop offset="33%" stop-color="rgb(251,87,94)"></stop><stop offset="55%" stop-color="rgb(250,38,48)"></stop><stop offset="77%" stop-color="rgb(210,23,24)"></stop><stop offset="100%" stop-color="rgb(171,8,0)"></stop></radialGradient></defs><g clip-path="url(#__lottie_element_23850)"><g style="display: block;" transform="matrix(0.5530716776847839,-0.8331336975097656,0.8331336975097656,0.5530716776847839,338.9586181640625,190.26358032226562)" opacity="1"><g opacity="1" transform="matrix(1,0,0,1,0,0)"><path stroke-linecap="round" stroke-linejoin="round" fill-opacity="0" stroke="rgb(51,51,51)" stroke-opacity="1" stroke-width="6" d=" M-189.85000610351562,25.577999114990234 C-233,96.2239990234375 -221.8979949951172,162.67300415039062 -191.1820068359375,201.8470001220703"></path></g></g><g style="display: block;" transform="matrix(0.982352614402771,-0.18703842163085938,0.18703842163085938,0.982352614402771,234.00291442871094,253.5734405517578)" opacity="1"><g opacity="1" transform="matrix(1,0,0,1,0,0)"><path fill="url(#__lottie_element_23859)" fill-opacity="1" d=" M1.2079999446868896,109.60600280761719 C8.237000465393066,119.70800018310547 15.633000373840332,126.21299743652344 17.454999923706055,128.83200073242188 C18.10099983215332,129.76100158691406 13.77400016784668,135.38600158691406 5.574999809265137,133.5679931640625 C-2.556999921798706,131.76499938964844 -3.8259999752044678,134.4149932861328 -8.829000473022461,133.46200561523438 C-13.319000244140625,132.6060028076172 -18.527000427246094,130.0489959716797 -14.57800006866455,126.86100006103516 C-2.4800000190734863,117.09300231933594 1.2079999446868896,109.60600280761719 1.2079999446868896,109.60600280761719z"></path><path stroke-linecap="round" stroke-linejoin="round" fill-opacity="0" stroke="rgb(147,0,25)" stroke-opacity="1" stroke-width="8" d=" M1.2079999446868896,109.60600280761719 C8.237000465393066,119.70800018310547 15.633000373840332,126.21299743652344 17.454999923706055,128.83200073242188 C18.10099983215332,129.76100158691406 13.77400016784668,135.38600158691406 5.574999809265137,133.5679931640625 C-2.556999921798706,131.76499938964844 -3.8259999752044678,134.4149932861328 -8.829000473022461,133.46200561523438 C-13.319000244140625,132.6060028076172 -18.527000427246094,130.0489959716797 -14.57800006866455,126.86100006103516 C-2.4800000190734863,117.09300231933594 1.2079999446868896,109.60600280761719 1.2079999446868896,109.60600280761719z"></path><path stroke-linecap="round" stroke-linejoin="round" fill-opacity="0" stroke-dasharray=" 40 64" stroke-dashoffset="0" stroke="rgb(109,0,18)" stroke-opacity="1" stroke-width="8" d=" M1.2079999446868896,109.60600280761719 C8.237000465393066,119.70800018310547 15.633000373840332,126.21299743652344 17.454999923706055,128.83200073242188 C18.10099983215332,129.76100158691406 13.77400016784668,135.38600158691406 5.574999809265137,133.5679931640625 C-2.556999921798706,131.76499938964844 -3.8259999752044678,134.4149932861328 -8.829000473022461,133.46200561523438 C-13.319000244140625,132.6060028076172 -18.527000427246094,130.0489959716797 -14.57800006866455,126.86100006103516 C-2.4800000190734863,117.09300231933594 1.2079999446868896,109.60600280761719 1.2079999446868896,109.60600280761719z"></path></g><g opacity="1" transform="matrix(1,0,0,1,0,0)"><path stroke-linecap="round" stroke-linejoin="round" fill-opacity="0" stroke="rgb(0,0,0)" stroke-opacity="1" stroke-width="8" d=" M-3.2160000801086426,109.06900024414062 C-3.2160000801086426,109.06900024414062 0.7789999842643738,110.43099975585938 5.164000034332275,108.88099670410156"></path></g></g><g style="display: block;" transform="matrix(1,0,0,1,219.037109375,250.43826293945312)" opacity="1"><g opacity="1" transform="matrix(0.9800000190734863,0,0,1.0199999809265137,0.0035399943590164185,1.7130584716796875)"><path fill="url(#__lottie_element_23878)" fill-opacity="1" d=" M31.52,103 C-80.83,70.13 -133.03,5.19 -145.09,-58.11 C-160.05,-136.65 -108.62,-215.81 -27.3,-231.3 C54.02,-246.8 130.94,-192.05 145.89,-113.51 C157.94,-50.2 133.25,29.37 40.84,101.22 C36.63,104.49 36.64,104.49 31.52,103z"></path><g opacity="1" transform="matrix(0.982352614402771,-0.18703842163085938,0.18703842163085938,0.982352614402771,16.02482795715332,-1.47064208984375)"><path stroke-linecap="round" stroke-linejoin="round" fill-opacity="0" stroke="rgb(142,0,37)" stroke-opacity="1" stroke-width="8" d=" M-4.321000099182129,105.52200317382812 C-108.53299713134766,52.22100067138672 -147.66900634765625,-21.332000732421875 -147.6750030517578,-85.77200317382812 C-147.6820068359375,-165.7220001220703 -82.35399627685547,-233.8679962158203 0.4259999990463257,-233.88099670410156 C83.20600128173828,-233.8939971923828 148.53599548339844,-165.7220001220703 148.5290069580078,-85.77200317382812 C148.5229949951172,-21.33099937438965 109.38600158691406,52.22100067138672 5.172999858856201,105.52200317382812 C0.4259999990463257,107.94999694824219 0.4269999861717224,107.94999694824219 -4.321000099182129,105.52200317382812z"></path></g></g><g opacity="1" transform="matrix(0.9800000190734863,0,0,1.0199999809265137,0.0035399943590164185,1.7130584716796875)"><g opacity="1" transform="matrix(0.982352614402771,-0.18703842163085938,0.18703842163085938,0.982352614402771,16.02482795715332,-1.47064208984375)"><path stroke-linecap="round" stroke-linejoin="round" fill-opacity="0" stroke="rgb(121,0,20)" stroke-opacity="1" stroke-width="8" d=" M-4.321000099182129,105.52200317382812 C-108.53299713134766,52.22100067138672 -147.66900634765625,-21.332000732421875 -147.6750030517578,-85.77200317382812 C-147.67599487304688,-98.33200073242188 -146.06500244140625,-110.5999984741211 -143.02699279785156,-122.35900115966797"></path></g></g></g><g style="display: block;" transform="matrix(1,0,0,1,219.037109375,250.43826293945312)" opacity="1"><path fill="url(#__lottie_element_23881)" fill-opacity="1" d=" M29.98,70.88 C-14.39,79.33 -112.26,26.72 -129.14,-59.46 C-142.75,-128.92 -99.5,-204.89 -25.21,-219.01 C49.06,-233.18 117.2,-178.42 130.08,-108.81 C146.04,-22.46 74.35,62.43 29.98,70.88z"></path><g opacity="1" transform="matrix(0.9627055525779724,-0.18329764902591705,0.1907791793346405,1.0019996166229248,16.34954833984375,0.21142578125)"></g></g><g style="display: block;" transform="matrix(0.8571673035621643,-0.5150380730628967,0.5150380730628967,0.8571673035621643,263.1623229980469,238.31663513183594)" opacity="1"><g opacity="1" transform="matrix(1,0,0,1,0,0)"><g opacity="0.1" transform="matrix(1,0,0,1,0,0)"><path fill="rgb(255,255,255)" fill-opacity="1" d=" M87.21299743652344,-166.73399353027344 C87.21299743652344,-138.00799560546875 48.2599983215332,-114.72000122070312 0.20800000429153442,-114.72000122070312 C-47.84400177001953,-114.72000122070312 -86.7969970703125,-138.00799560546875 -86.7969970703125,-166.73399353027344 C-86.7969970703125,-195.4600067138672 -47.84400177001953,-218.7480010986328 0.20800000429153442,-218.7480010986328 C48.2599983215332,-218.7480010986328 87.21299743652344,-195.4600067138672 87.21299743652344,-166.73399353027344z"></path></g></g></g><g style="display: block;" transform="matrix(0.8571673035621643,-0.5150380730628967,0.5150380730628967,0.8571673035621643,263.1623229980469,238.31663513183594)" opacity="1"><g opacity="1" transform="matrix(1,0,0,1,0,0)"><g opacity="1" transform="matrix(-0.12186934053897858,-0.9925461411476135,0.9925461411476135,-0.12186934053897858,85.21562957763672,-95.85758209228516)"><path stroke-linecap="round" stroke-linejoin="round" fill-opacity="0" stroke-dasharray=" 14 13 23" stroke-dashoffset="0" stroke="rgb(255,255,255)" stroke-opacity="1" stroke-width="6" d=" M129.4290008544922,-100.44200134277344 C130.0970001220703,-95.09400177001953 130.44200134277344,-89.6449966430664 130.44200134277344,-84.11599731445312 C130.44200134277344,-78.58699798583984 130.0970001220703,-73.13800048828125 129.42799377441406,-67.78900146484375"></path></g></g></g><g style="display: block;" transform="matrix(0.5530716776847839,-0.8331336975097656,0.8331336975097656,0.5530716776847839,338.9586181640625,190.26358032226562)" opacity="1"><g opacity="1" transform="matrix(1,0,0,1,0,0)"><path stroke-linecap="round" stroke-linejoin="round" fill-opacity="0" stroke="rgb(51,51,51)" stroke-opacity="1" stroke-width="6" d=" M-189.85000610351562,25.577999114990234 C-233,96.2239990234375 -221.8979949951172,162.67300415039062 -191.1820068359375,201.8470001220703"></path></g></g><g style="display: block;" transform="matrix(0.982352614402771,-0.18703842163085938,0.18703842163085938,0.982352614402771,234.00291442871094,253.5734405517578)" opacity="1"><g opacity="1" transform="matrix(1,0,0,1,0,0)"><path fill="url(#__lottie_element_23862)" fill-opacity="1" d=" M1.2079999446868896,109.60600280761719 C8.237000465393066,119.70800018310547 15.633000373840332,126.21299743652344 17.454999923706055,128.83200073242188 C18.10099983215332,129.76100158691406 13.77400016784668,135.38600158691406 5.574999809265137,133.5679931640625 C-2.556999921798706,131.76499938964844 -3.8259999752044678,134.4149932861328 -8.829000473022461,133.46200561523438 C-13.319000244140625,132.6060028076172 -18.527000427246094,130.0489959716797 -14.57800006866455,126.86100006103516 C-2.4800000190734863,117.09300231933594 1.2079999446868896,109.60600280761719 1.2079999446868896,109.60600280761719z"></path><path stroke-linecap="round" stroke-linejoin="round" fill-opacity="0" stroke="rgb(147,0,25)" stroke-opacity="1" stroke-width="8" d=" M1.2079999446868896,109.60600280761719 C8.237000465393066,119.70800018310547 15.633000373840332,126.21299743652344 17.454999923706055,128.83200073242188 C18.10099983215332,129.76100158691406 13.77400016784668,135.38600158691406 5.574999809265137,133.5679931640625 C-2.556999921798706,131.76499938964844 -3.8259999752044678,134.4149932861328 -8.829000473022461,133.46200561523438 C-13.319000244140625,132.6060028076172 -18.527000427246094,130.0489959716797 -14.57800006866455,126.86100006103516 C-2.4800000190734863,117.09300231933594 1.2079999446868896,109.60600280761719 1.2079999446868896,109.60600280761719z"></path><path stroke-linecap="round" stroke-linejoin="round" fill-opacity="0" stroke-dasharray=" 40 64" stroke-dashoffset="0" stroke="rgb(109,0,18)" stroke-opacity="1" stroke-width="8" d=" M1.2079999446868896,109.60600280761719 C8.237000465393066,119.70800018310547 15.633000373840332,126.21299743652344 17.454999923706055,128.83200073242188 C18.10099983215332,129.76100158691406 13.77400016784668,135.38600158691406 5.574999809265137,133.5679931640625 C-2.556999921798706,131.76499938964844 -3.8259999752044678,134.4149932861328 -8.829000473022461,133.46200561523438 C-13.319000244140625,132.6060028076172 -18.527000427246094,130.0489959716797 -14.57800006866455,126.86100006103516 C-2.4800000190734863,117.09300231933594 1.2079999446868896,109.60600280761719 1.2079999446868896,109.60600280761719z"></path></g><g opacity="1" transform="matrix(1,0,0,1,0,0)"><path stroke-linecap="round" stroke-linejoin="round" fill-opacity="0" stroke="rgb(0,0,0)" stroke-opacity="1" stroke-width="8" d=" M-3.2160000801086426,109.06900024414062 C-3.2160000801086426,109.06900024414062 0.7789999842643738,110.43099975585938 5.164000034332275,108.88099670410156"></path></g></g><g style="display: none;"><g><path></path><path stroke-linecap="round" stroke-linejoin="round" fill-opacity="0"></path></g></g></g></svg>