<svg xmlns="http://www.w3.org/2000/svg" viewBox="0 0 512 512" width="512" height="512" style="width: 100%; height: 100%; transform: translate3d(0,0,0);" preserveAspectRatio="xMidYMid meet"><defs><clipPath id="__lottie_element_23953"><rect width="512" height="512" x="0" y="0"></rect></clipPath></defs><g clip-path="url(#__lottie_element_23953)"><g style="display: block;" transform="matrix(1,0,0,1,291.9329833984375,354.9859924316406)" opacity="1"><g opacity="1" transform="matrix(1,0,0,1,0,0)"><path fill="rgb(255,209,64)" fill-opacity="1" d=" M33.5359992980957,-87.80400085449219 C60.262001037597656,46.915000915527344 47.27899932861328,116.12899780273438 -59.58100128173828,113.2750015258789 C-121.88200378417969,111.61100006103516 -150.22999572753906,77.29000091552734 -159.8939971923828,50.516998291015625 C-170.61599731445312,20.80900001525879 -178.92599487304688,-28.899999618530273 -176.16299438476562,-64.80699920654297 C-150.79100036621094,-90.62699890136719 -137.43299865722656,-109.98500061035156 -74.63099670410156,-103.58599853515625 C-27.933000564575195,-146.98500061035156 27.98699951171875,-115.77400207519531 33.5359992980957,-87.80400085449219z"></path></g></g><g style="display: block;" transform="matrix(1,0,0,1,287.44598388671875,363.1240234375)" opacity="1"><g opacity="1" transform="matrix(1,0,0,1,0,0)"><path fill="rgb(255,209,64)" fill-opacity="1" d=" M39.93000030517578,-88.01799774169922 C40.92900085449219,-80.2490005493164 44.93899917602539,-68.91600036621094 55.39500045776367,-67.30400085449219 C85.44499969482422,-62.67300033569336 89.23999786376953,-97.73799896240234 121.09400177001953,-103.96900177001953 C146.93899536132812,-109.0260009765625 174.06900024414062,-98.42900085449219 176.4929962158203,-74.88500213623047 C178.76300048828125,-52.83100128173828 134.93800354003906,-60.24100112915039 102.13400268554688,-17.402999877929688 C82.76200103759766,7.895999908447266 67.37100219726562,52.95600128173828 29.969999313354492,80.83799743652344"></path></g></g><g style="display: block;" transform="matrix(1,0,0,1,410.39398193359375,279.31500244140625)" opacity="1"><g opacity="1" transform="matrix(1,0,0,1,0,0)"><path fill="rgb(255,223,121)" fill-opacity="1" d=" M-10.498000144958496,-5.432000160217285 C-4.519000053405762,-1.065000057220459 6.025000095367432,-2.50600004196167 13.35099983215332,-2.184000015258789 C24.606000900268555,-1.690000057220459 32.85599899291992,4.809999942779541 38.7130012512207,-0.36500000953674316 C42.62699890136719,-3.8239998817443848 29.231000900268555,-12.3149995803833 16.236000061035156,-13.517999649047852 C-1.9390000104904175,-15.201000213623047 -14.836000442504883,-8.600000381469727 -10.498000144958496,-5.432000160217285z"></path></g></g><g style="display: block;" transform="matrix(1,0,0,1,290.0530090332031,313.3999938964844)" opacity="1"><g opacity="1" transform="matrix(1,0,0,1,0,0)"><path fill="rgb(255,177,57)" fill-opacity="1" d=" M34.03799819946289,124.70500183105469 C54.20100021362305,109.76300048828125 72.697998046875,74.64600372314453 95.66000366210938,37.277000427246094 C111.36299896240234,11.718999862670898 149.1490020751953,-3.558000087738037 159.13800048828125,-7.97599983215332 C169.1280059814453,-12.395000457763672 183.39700317382812,-25.889999389648438 158.28599548339844,-46.986000061035156 C170.7100067138672,-30.23900032043457 169.91600036621094,-19.253000259399414 145.37600708007812,-12.163000106811523 C119.69400024414062,-4.74399995803833 88.18399810791016,15.552000045776367 73.46199798583984,40.05500030517578 C58.625,64.74800109863281 23.82699966430664,113.9540023803711 -8.539999961853027,114.34600067138672 C-57.78900146484375,114.94100189208984 5.142000198364258,146.11900329589844 34.03799819946289,124.70500183105469z"></path></g></g><g style="display: block;" transform="matrix(1,0,0,1,332.5559997558594,191.2130126953125)" opacity="1"><g opacity="1" transform="matrix(1,0,0,1,0,0)"><path fill="rgb(255,223,121)" fill-opacity="1" d=" M-1.4079999923706055,110.96800231933594 C1.819000005722046,113.28700256347656 6.314000129699707,115.01599884033203 11.5649995803833,114.56700134277344 C22.479999542236328,113.63400268554688 35.972999572753906,106.13600158691406 44.28900146484375,89.93299865722656 C26.025999069213867,104.58699798583984 17.694000244140625,107.78700256347656 7.48799991607666,103.33899688720703 C-6.998000144958496,97.0260009765625 -10.925000190734863,75.99700164794922 -11.220999717712402,67.13600158691406 C-12.567999839782715,77.46399688720703 -13.435999870300293,87.68299865722656 -11.246999740600586,96.30699920654297 C-10.565999984741211,98.98899841308594 -9.663000106811523,101.4800033569336 -8.503000259399414,103.71299743652344 C-6.927999973297119,106.74600219726562 -4.0289998054504395,109.08399963378906 -1.4079999923706055,110.96800231933594z"></path><path fill="rgb(255,177,57)" fill-opacity="0" d=" M-1.4079999923706055,110.96800231933594 C1.819000005722046,113.28700256347656 6.314000129699707,115.01599884033203 11.5649995803833,114.56700134277344 C22.479999542236328,113.63400268554688 35.972999572753906,106.13600158691406 44.28900146484375,89.93299865722656 C26.025999069213867,104.58699798583984 17.694000244140625,107.78700256347656 7.48799991607666,103.33899688720703 C-6.998000144958496,97.0260009765625 -10.925000190734863,75.99700164794922 -11.220999717712402,67.13600158691406 C-12.567999839782715,77.46399688720703 -13.435999870300293,87.68299865722656 -11.246999740600586,96.30699920654297 C-10.565999984741211,98.98899841308594 -9.663000106811523,101.4800033569336 -8.503000259399414,103.71299743652344 C-6.927999973297119,106.74600219726562 -4.0289998054504395,109.08399963378906 -1.4079999923706055,110.96800231933594z"></path></g></g><g style="display: block;" transform="matrix(1,0,0,1,290.0530090332031,313.3999938964844)" opacity="1"><g opacity="1" transform="matrix(1,0,0,1,0,0)"><path fill="rgb(255,177,57)" fill-opacity="1" d=" M-176.41299438476562,-5.783999919891357 C-173.80299377441406,28.350000381469727 -169.2519989013672,55.92900085449219 -159.67300415039062,85.56999969482422 C-145.8470001220703,128.3520050048828 -111.87000274658203,155.08299255371094 -45.2599983215332,154.7830047607422 C-16.08099937438965,154.6529998779297 5.142000198364258,146.11900329589844 34.03799819946289,124.70500183105469 C54.20100021362305,109.76300048828125 23.797000885009766,112.9010009765625 -8.539999961853027,114.34600067138672 C-47.803001403808594,116.0999984741211 -43.053001403808594,86.3499984741211 -55.957000732421875,103.0780029296875 C-60.95600128173828,109.55799865722656 -53.0260009765625,117.24800109863281 -56.97200012207031,122.54000091552734 C-62.143001556396484,129.4770050048828 -90.93499755859375,129.1300048828125 -108.95500183105469,121.06400299072266 C-153.55299377441406,101.0999984741211 -160.80299377441406,34.599998474121094 -166.36300659179688,-5.446000099182129 C-169.98199462890625,-31.510000228881836 -175.63299560546875,-21.565000534057617 -176.41299438476562,-5.783999919891357z"></path></g></g><g style="display: block;" transform="matrix(1,0,0,1,188.23699951171875,364.83599853515625)" opacity="1"><g opacity="1" transform="matrix(1,0,0,1,0,0)"><path fill="rgb(255,223,121)" fill-opacity="1" d=" M23.263999938964844,21.95800018310547 C19.476999282836914,37.45100021362305 -0.10000000149011612,7.88100004196167 -6.642000198364258,0.3720000088214874 C-13.182999610900879,-7.13700008392334 -27.260000228881836,-14.059000015258789 -22.902999877929688,-22.138999938964844 C-17.687999725341797,-31.80900001525879 -1.7730000019073486,-23.406999588012695 10.692999839782715,-12.420000076293945 C16.833999633789062,-7.007999897003174 25.868000030517578,11.305000305175781 23.263999938964844,21.95800018310547z"></path></g></g><g style="display: block;" transform="matrix(1,0,0,1,294.15399169921875,347.8809814453125)" opacity="1"><g opacity="1" transform="matrix(1,0,0,1,0,0)"><path fill="rgb(255,223,121)" fill-opacity="1" d=" M-38.277000427246094,18.70599937438965 C-33.28099822998047,-2.7799999713897705 -15.654000282287598,-11.791999816894531 -7.303999900817871,-16.802000045776367 C1.0460000038146973,-21.812000274658203 30.56800079345703,-33.69300079345703 37.06999969482422,-26.10700035095215 C45.659000396728516,-16.086999893188477 20.836999893188477,-3.312999963760376 3.9089999198913574,9.20199966430664 C-13.019000053405762,21.716999053955078 -43.27299880981445,40.19200134277344 -38.277000427246094,18.70599937438965z"></path></g></g><g style="display: block;" transform="matrix(1,0,0,1,223.302001953125,295.8800048828125)" opacity="1"><g opacity="1" transform="matrix(1,0,0,1,0,0)"><path fill="rgb(255,223,121)" fill-opacity="1" d=" M-64.84300231933594,6.546000003814697 C-64.52400207519531,2.062999963760376 -54.257999420166016,-0.5659999847412109 -41.625,-2.4730000495910645 C-29.58300018310547,-4.290999889373779 -15.390000343322754,-5.453000068664551 -5.614999771118164,-6.936999797821045 C4.366000175476074,-8.45199966430664 17.27899932861328,-12.145000457763672 29.368000030517578,-14.814000129699707 C44.875,-18.23699951171875 59.025001525878906,-19.972999572753906 63.88999938964844,-13.258999824523926 C72.5479965209961,-1.3109999895095825 21.308000564575195,15.324999809265137 -0.33799999952316284,16.53700065612793 C-35.0359992980957,18.479999542236328 -65.81300354003906,20.163000106811523 -64.84300231933594,6.546000003814697z"></path></g></g><g style="display: block;" transform="matrix(1,0,0,1,257.0790100097656,150.45199584960938)" opacity="1"><g opacity="1" transform="matrix(1,0,0,1,0,0)"><path fill="rgb(255,209,64)" fill-opacity="1" d=" M21.200000762939453,93.2959976196289 C23.30299949645996,67.55799865722656 39.099998474121094,-41.58100128173828 40.65800094604492,-56.1150016784668 C42.50400161743164,-73.34500122070312 43.4109992980957,-99.71499633789062 20.104999542236328,-101.77400207519531 C-2.4690001010894775,-103.76799774169922 -6.8460001945495605,-81.71399688720703 -9.916000366210938,-62.16400146484375 C-13.35099983215332,-40.29199981689453 -23.586000442504883,42.566001892089844 -26.408000946044922,61.88600158691406 C-29.827999114990234,85.2979965209961 -32.51599884033203,91.89099884033203 -40.784000396728516,92.93099975585938"></path></g><g opacity="1" transform="matrix(1,0,0,1,0,0)"><path fill="rgb(255,177,57)" fill-opacity="0" d=" M12.604999542236328,-32.40999984741211 C-9.968999862670898,-34.40399932861328 -8.531000137329102,-65.74099731445312 -11.60099983215332,-46.191001892089844 C-15.03600025177002,-24.319000244140625 -23.757999420166016,41.834999084472656 -26.642000198364258,61.14500045776367 C-29.665000915527344,81.38600158691406 -30.930999755859375,91.36799621582031 -31.613000869750977,97.36100006103516 C-27.156999588012695,104.37899780273438 20.368999481201172,104.59700012207031 21.70800018310547,96.71399688720703 C24.070999145507812,82.80000305175781 37.40700149536133,-27.4689998626709 38.96500015258789,-42.00299835205078 C40.81100082397461,-59.233001708984375 35.9109992980957,-30.35099983215332 12.604999542236328,-32.40999984741211z"></path></g></g><g style="display: block;" transform="matrix(0.9931400418281555,0.11693074554204941,-0.11693074554204941,0.9931400418281555,268.2879943847656,143.0360107421875)" opacity="1"><g opacity="1" transform="matrix(1,0,0,1,0,0)"><path fill="rgb(255,223,121)" fill-opacity="1" d=" M12.98799991607666,-63.2239990234375 C14.609999656677246,-49.797000885009766 15.838000297546387,-33.926998138427734 17.729999542236328,-7.834000110626221 C19.44300079345703,15.798999786376953 19.39299964904785,40.70100021362305 21.554000854492188,51.56700134277344 C23.851999282836914,22.61400032043457 23.235000610351562,-41.78900146484375 22.632999420166016,-64.83999633789062 C21.698999404907227,-100.5780029296875 -12.829999923706055,-102.23600006103516 -20.6200008392334,-82.49299621582031 C-9.053999900817871,-85.55500030517578 9.809000015258789,-89.5469970703125 12.98799991607666,-63.2239990234375z"></path></g></g><g style="display: block;" transform="matrix(0.9931400418281555,0.11693074554204941,-0.11693074554204941,0.9931400418281555,255.47900390625,144.49200439453125)" opacity="1"><g opacity="1" transform="matrix(1,0,0,1,0,0)"><path fill="rgb(255,223,121)" fill-opacity="1" d=" M17.81800079345703,-94.96399688720703 C7.675000190734863,-92.4990005493164 -0.9639999866485596,-86.98699951171875 -4.508999824523926,-62.64099884033203 C-5.2779998779296875,-57.36000061035156 -5.807000160217285,-51.191001892089844 -6.059999942779541,-43.97600173950195 C-6.2270002365112305,-39.220001220703125 -6.349999904632568,-33.2140007019043 -6.447999954223633,-26.4060001373291 C-6.810999870300293,-1.2630000114440918 -6.828000068664551,34.81700134277344 -7.381999969482422,59.28499984741211 C-7.742000102996826,75.1780014038086 -7.809000015258789,92.38400268554688 -10.767999649047852,100.75599670410156 C-15.11299991607666,113.0510025024414 -32.069000244140625,120.83599853515625 -41.55099868774414,103.58899688720703 C-29.01099967956543,107.26000213623047 -17.18899917602539,103.98100280761719 -16.759000778198242,89.1719970703125 C-15.90999984741211,59.91999816894531 -14.765999794006348,-25.204999923706055 -14.631999969482422,-40.64500045776367 C-14.428000450134277,-64.06700134277344 -13.963000297546387,-82.42500305175781 -6.4629998207092285,-90.48400115966797 C0.5090000033378601,-97.97599792480469 11.185999870300293,-99.73500061035156 17.81800079345703,-94.96399688720703z"></path><path fill="rgb(255,177,57)" fill-opacity="0" d=" M17.81800079345703,-94.96399688720703 C7.675000190734863,-92.4990005493164 -0.9639999866485596,-86.98699951171875 -4.508999824523926,-62.64099884033203 C-5.2779998779296875,-57.36000061035156 -5.807000160217285,-51.191001892089844 -6.059999942779541,-43.97600173950195 C-6.2270002365112305,-39.220001220703125 -6.349999904632568,-33.2140007019043 -6.447999954223633,-26.4060001373291 C-6.810999870300293,-1.2630000114440918 -6.828000068664551,34.81700134277344 -7.381999969482422,59.28499984741211 C-7.742000102996826,75.1780014038086 -7.809000015258789,92.38400268554688 -10.767999649047852,100.75599670410156 C-15.11299991607666,113.0510025024414 -32.069000244140625,120.83599853515625 -41.55099868774414,103.58899688720703 C-29.01099967956543,107.26000213623047 -17.18899917602539,103.98100280761719 -16.759000778198242,89.1719970703125 C-15.90999984741211,59.91999816894531 -14.765999794006348,-25.204999923706055 -14.631999969482422,-40.64500045776367 C-14.428000450134277,-64.06700134277344 -13.963000297546387,-82.42500305175781 -6.4629998207092285,-90.48400115966797 C0.5090000033378601,-97.97599792480469 11.185999870300293,-99.73500061035156 17.81800079345703,-94.96399688720703z"></path></g><g opacity="1" transform="matrix(1,0,0,1,0,0)"><path fill="rgb(255,177,57)" fill-opacity="1" d=" M40.02299880981445,-14.005000114440918 C37.09000015258789,-14.210000038146973 32.95399856567383,-4.13700008392334 32.32899856567383,17.9950008392334 C32.124000549316406,25.2450008392334 31.5,39.314998626708984 31.891000747680664,72.70099639892578 C37.444000244140625,88.97100067138672 42.95600128173828,-13.800000190734863 40.02299880981445,-14.005000114440918z"></path></g></g><g style="display: block;" transform="matrix(1,0,0,1,257.0790100097656,150.45199584960938)" opacity="1"><g opacity="1" transform="matrix(1,0,0,1,0,0)"><path stroke-linecap="round" stroke-linejoin="round" fill-opacity="0" stroke="rgb(247,126,65)" stroke-opacity="1" stroke-width="8" d=" M21.200000762939453,93.2959976196289 C23.30299949645996,67.55799865722656 39.099998474121094,-41.58100128173828 40.65800094604492,-56.1150016784668 C42.50400161743164,-73.34500122070312 43.4109992980957,-99.71499633789062 20.104999542236328,-101.77400207519531 C-2.4690001010894775,-103.76799774169922 -6.8460001945495605,-81.71399688720703 -9.916000366210938,-62.16400146484375 C-13.35099983215332,-40.29199981689453 -23.586000442504883,42.566001892089844 -26.408000946044922,61.88600158691406 C-29.827999114990234,85.2979965209961 -32.51599884033203,91.89099884033203 -40.784000396728516,92.93099975585938"></path></g></g><g style="display: block;" transform="matrix(1,0,0,1,167.3389892578125,184.135009765625)" opacity="1"><g opacity="1" transform="matrix(1,0,0,1,0,0)"><path fill="rgb(255,209,64)" fill-opacity="1" d=" M-9.638999938964844,93.73899841308594 C-14.793999671936035,73.04199981689453 -39.6349983215332,-26.763999938964844 -45.145999908447266,-49.632999420166016 C-49.87200164794922,-69.24099731445312 -49.58000183105469,-88.48999786376953 -31.958999633789062,-92.8740005493164 C-13.795000076293945,-97.39399719238281 -4.052000045776367,-83.73100280761719 1.5460000038146973,-63.16699981689453 C8.168000221252441,-38.840999603271484 24.55500030517578,18.062000274658203 28.826000213623047,33.784000396728516 C33.41999816894531,50.69200134277344 39.15999984741211,60.3650016784668 48.99300003051758,59.22999954223633"></path></g><g opacity="1" transform="matrix(0.9335803985595703,-0.3583679497241974,0.3583679497241974,0.9335803985595703,-16.368999481201172,-10.333999633789062)"><path fill="rgb(255,177,57)" fill-opacity="0" d=" M21.200000762939453,93.2959976196289 C23.30299949645996,67.55799865722656 39.099998474121094,-41.58100128173828 40.65800094604492,-56.1150016784668 C42.50400161743164,-73.34500122070312 43.4109992980957,-99.71499633789062 20.104999542236328,-101.77400207519531 C-2.4690001010894775,-103.76799774169922 -6.8460001945495605,-81.71399688720703 -9.916000366210938,-62.16400146484375 C-13.35099983215332,-40.29199981689453 -23.586000442504883,42.566001892089844 -26.408000946044922,61.88600158691406 C-29.827999114990234,85.2979965209961 -32.51599884033203,91.89099884033203 -40.784000396728516,92.93099975585938"></path></g></g><g style="display: block;" transform="matrix(0.9851992130279541,-0.17141327261924744,0.17141327261924744,0.9851992130279541,160.156005859375,170.88900756835938)" opacity="1"><g opacity="1" transform="matrix(1,0,0,1,0,0)"><path fill="rgb(255,223,121)" fill-opacity="1" d=" M-27.753000259399414,-55.77399826049805 C-25.687000274658203,-61.84299850463867 -22.12700080871582,-75.46900177001953 -4.945000171661377,-68.6500015258789 C0.41600000858306885,-66.52300262451172 3.9769999980926514,-62.369998931884766 5.756999969482422,-46.11199951171875 C8.138999938964844,-24.354000091552734 11.871999740600586,9.54699993133545 14.989999771118164,40.37300109863281 C16.913000106811523,59.38999938964844 20.948999404907227,93.08000183105469 40.858001708984375,91.04499816894531 C29.04599952697754,75.71099853515625 26.79800033569336,61.11899948120117 25.249000549316406,40.125 C23.608999252319336,17.89900016784668 19.24799919128418,-24.084999084472656 17.63800048828125,-40.75600051879883 C16.150999069213867,-56.15399932861328 13.015999794006348,-84.25900268554688 -6.60699987411499,-83.87699890136719 C-25.60300064086914,-83.50800323486328 -32.020999908447266,-66.13700103759766 -27.753000259399414,-55.77399826049805z"></path></g></g><g style="display: block;" transform="matrix(0.9851992130279541,-0.17141327261924744,0.17141327261924744,0.9851992130279541,144.1929931640625,187.4580078125)" opacity="1"><g opacity="1" transform="matrix(1,0,0,1,0,0)"><path fill="rgb(255,177,57)" fill-opacity="1" d=" M-2.2739999294281006,-55.856998443603516 C-2.1649999618530273,-53.31399917602539 -2.0439999103546143,-50.70000076293945 -1.9129999876022339,-48.027000427246094 C-1.7309999465942383,-44.327999114990234 -1.5299999713897705,-40.516998291015625 -1.315000057220459,-36.62699890136719 C-0.2199999988079071,-16.833999633789062 1.2489999532699585,5.00600004196167 2.4519999027252197,24.479000091552734 C3.944999933242798,48.630001068115234 8.786999702453613,92.51699829101562 -1.093999981880188,95.0739974975586 C-2.6470000743865967,75.18800354003906 -10.88599967956543,-34.8390007019043 -12.390999794006348,-54.71099853515625 C-15.579000473022461,-96.81199645996094 3.375,-97.8280029296875 11.269000053405762,-94.75299835205078 C3.674999952316284,-87.87899780273438 -3.359999895095825,-81.13200378417969 -2.2739999294281006,-55.856998443603516z"></path></g></g><g style="display: block;" transform="matrix(1,0,0,1,167.3389892578125,184.135009765625)" opacity="1"><g opacity="1" transform="matrix(1,0,0,1,0,0)"><path stroke-linecap="round" stroke-linejoin="round" fill-opacity="0" stroke="rgb(247,126,65)" stroke-opacity="1" stroke-width="8" d=" M-9.638999938964844,93.73899841308594 C-14.793999671936035,73.04199981689453 -39.6349983215332,-26.763999938964844 -45.145999908447266,-49.632999420166016 C-49.87200164794922,-69.24099731445312 -49.58000183105469,-88.48999786376953 -31.958999633789062,-92.8740005493164 C-13.795000076293945,-97.39399719238281 -4.052000045776367,-83.73100280761719 1.5460000038146973,-63.16699981689453 C8.168000221252441,-38.840999603271484 24.55500030517578,18.062000274658203 28.826000213623047,33.784000396728516 C33.41999816894531,50.69200134277344 39.15999984741211,60.3650016784668 48.99300003051758,59.22999954223633"></path></g></g><g style="display: block;" transform="matrix(1,0,0,1,122.54400634765625,229.12200927734375)" opacity="1"><g opacity="1" transform="matrix(1,0,0,1,0,0)"><path fill="rgb(255,209,64)" fill-opacity="1" d=" M-11.61299991607666,62.051998138427734 C-15.71399974822998,42.77799987792969 -30.582000732421875,-7.848999977111816 -35.10900115966797,-27.368000030517578 C-44.38199996948242,-67.35600280761719 -1.4199999570846558,-76.88999938964844 10.28499984741211,-39.762001037597656 C17.96500015258789,-15.402999877929688 27.457000732421875,15.378000259399414 34.650001525878906,46.707000732421875"></path></g><g opacity="1" transform="matrix(0.9335803985595703,-0.3583679497241974,0.3583679497241974,0.9335803985595703,-8.270000457763672,2.5250000953674316)"><path fill="rgb(255,177,57)" fill-opacity="0" d=" M21.200000762939453,93.2959976196289 C23.30299949645996,67.55799865722656 39.099998474121094,-41.58100128173828 40.65800094604492,-56.1150016784668 C42.50400161743164,-73.34500122070312 43.4109992980957,-99.71499633789062 20.104999542236328,-101.77400207519531 C-2.4690001010894775,-103.76799774169922 -6.8460001945495605,-81.71399688720703 -9.916000366210938,-62.16400146484375 C-13.35099983215332,-40.29199981689453 -23.586000442504883,42.566001892089844 -26.408000946044922,61.88600158691406 C-29.827999114990234,85.2979965209961 -32.51599884033203,91.89099884033203 -40.784000396728516,92.93099975585938"></path></g></g><g style="display: block;" transform="matrix(0.9851992130279541,-0.17141327261924744,0.17141327261924744,0.9851992130279541,117.66000366210938,215.73199462890625)" opacity="1"><g opacity="1" transform="matrix(1,0,0,1,0,0)"><path fill="rgb(255,223,121)" fill-opacity="1" d=" M-23.91200065612793,-21.4689998626709 C-20.17300033569336,-29.375 -16.224000930786133,-42.70000076293945 -2.872999906539917,-39.30099868774414 C5.033999919891357,-37.28799819946289 9.093999862670898,-29.006000518798828 10.61400032043457,-21.95400047302246 C12.906000137329102,-11.319000244140625 21.062000274658203,26.774999618530273 25.525999069213867,52.391998291015625 C25.483999252319336,34.90299987792969 22.445999145507812,-5.9730000495910645 18.96500015258789,-24.466999053955078 C16.68000030517578,-36.606998443603516 9.170000076293945,-52.18199920654297 -5.704999923706055,-50.926998138427734 C-24.63800048828125,-49.33000183105469 -25.645000457763672,-34.387001037597656 -23.91200065612793,-21.4689998626709z"></path></g></g><g style="display: block;" transform="matrix(0.9851992130279541,-0.17141327261924744,0.17141327261924744,0.9851992130279541,289.80499267578125,293.7250061035156)" opacity="1"><g opacity="1" transform="matrix(1,0,0,1,0,0)"><path fill="rgb(255,177,57)" fill-opacity="1" d=" M-183.21499633789062,-117.6259994506836 C-181.76499938964844,-90.98300170898438 -175.41799926757812,-39.999000549316406 -175.0469970703125,-28.23900032043457 C-174.67599487304688,-16.479000091552734 -175.55299377441406,-1.649999976158142 -174.39999389648438,11.10099983215332 C-168.80299377441406,3.0999999046325684 -167.38699340820312,-4.672999858856201 -166.09500122070312,-26.96500015258789 C-165.30599975585938,-40.58399963378906 -169.69900512695312,-79.04499816894531 -171.91099548339844,-107.38099670410156 C-172.25,-111.7239990234375 -172.53799438476562,-115.8290023803711 -172.7480010986328,-119.57099914550781 C-172.906005859375,-122.38500213623047 -173.00399780273438,-125.16300201416016 -172.96099853515625,-127.8759994506836 C-172.78500366210938,-139.09300231933594 -170.20799255371094,-149.20399475097656 -159.56399536132812,-156.2220001220703 C-182.63400268554688,-157.93499755859375 -184.39500427246094,-139.30499267578125 -183.21499633789062,-117.6259994506836z"></path></g></g><g style="display: block;" transform="matrix(1,0,0,1,122.54400634765625,229.12200927734375)" opacity="1"><g opacity="1" transform="matrix(1,0,0,1,0,0)"><path stroke-linecap="round" stroke-linejoin="round" fill-opacity="0" stroke="rgb(247,126,65)" stroke-opacity="1" stroke-width="8" d=" M-11.61299991607666,62.051998138427734 C-15.71399974822998,42.77799987792969 -30.582000732421875,-7.848999977111816 -35.10900115966797,-27.368000030517578 C-44.38199996948242,-67.35600280761719 -1.4199999570846558,-76.88999938964844 10.28499984741211,-39.762001037597656 C17.96500015258789,-15.402999877929688 27.457000732421875,15.378000259399414 34.650001525878906,46.707000732421875"></path></g></g><g style="display: block;" transform="matrix(1,0,0,1,312.3110046386719,176.35000610351562)" opacity="1"><g opacity="1" transform="matrix(1,0,0,1,0,0)"><path fill="rgb(255,209,64)" fill-opacity="1" d=" M15.0649995803833,97.4489974975586 C11.850000381469727,78.78800201416016 30.02400016784668,-35.564998626708984 33.46500015258789,-59.31700134277344 C36.90599822998047,-83.06900024414062 28.655000686645508,-95.51799774169922 14.098999977111816,-97.29000091552734 C0.22200000286102295,-98.97899627685547 -10.720000267028809,-87.0510025024414 -14.001999855041504,-68.30400085449219 C-18.013999938964844,-45.382999420166016 -34.24300003051758,66.30000305175781 -34.24300003051758,66.30000305175781"></path></g><g opacity="1" transform="matrix(1,0,0,1,-5.116000175476074,-10.894000053405762)"><path fill="rgb(255,177,57)" fill-opacity="0" d=" M21.200000762939453,93.2959976196289 C23.30299949645996,67.55799865722656 39.099998474121094,-41.58100128173828 40.65800094604492,-56.1150016784668 C42.50400161743164,-73.34500122070312 43.4109992980957,-99.71499633789062 20.104999542236328,-101.77400207519531 C-2.4690001010894775,-103.76799774169922 -6.8460001945495605,-81.71399688720703 -9.916000366210938,-62.16400146484375 C-13.35099983215332,-40.29199981689453 -23.586000442504883,42.566001892089844 -26.408000946044922,61.88600158691406 C-29.827999114990234,85.2979965209961 -32.51599884033203,91.89099884033203 -40.784000396728516,92.93099975585938"></path></g></g><g style="display: block;" transform="matrix(0.9953458905220032,0.09636692702770233,-0.09636692702770233,0.9953458905220032,343.2149963378906,193.08599853515625)" opacity="1"><g opacity="1" transform="matrix(1,0,0,1,0,0)"><path fill="rgb(255,223,121)" fill-opacity="1" d=" M-15.333000183105469,-74.3280029296875 C-14.996999740600586,-54.83399963378906 -18.503000259399414,34.42100143432617 -17.888999938964844,63.24300003051758 C-17.516000747680664,80.72799682617188 -12.956999778747559,109.6729965209961 0.5080000162124634,101.94599914550781 C-4.014999866485596,91.63999938964844 -8.342000007629395,82.0999984741211 -9.28499984741211,62.96699905395508 C-10.600000381469727,36.29499816894531 -6.15500020980835,-47.15599822998047 -4.47599983215332,-73.36399841308594 C-2.196000099182129,-108.947998046875 -23.475000381469727,-121.2509994506836 -44.698001861572266,-102.16400146484375 C-25.757999420166016,-105.87000274658203 -15.793999671936035,-101.12300109863281 -15.333000183105469,-74.3280029296875z"></path></g><g opacity="1" transform="matrix(1,0,0,1,0,0)"><path stroke-linecap="round" stroke-linejoin="round" fill-opacity="0" stroke="rgb(255,255,255)" stroke-opacity="1" stroke-width="6" d=" M-20.90999984741211,-97.43699645996094 C-19.982999801635742,-96.25399780273438 -19.17099952697754,-94.87100219726562 -18.474000930786133,-93.26799774169922"></path></g></g><g style="display: block;" transform="matrix(0.9939225912094116,0.1100812628865242,-0.1100812628865242,0.9939225912094116,304.61700439453125,161.66900634765625)" opacity="1"><g opacity="1" transform="matrix(1,0,0,1,0,0)"><path fill="rgb(255,177,57)" fill-opacity="1" d=" M-2.305000066757202,-37.5629997253418 C-2.7850000858306885,-30.636999130249023 -3.197999954223633,-23.738000869750977 -3.565999984741211,-16.94099998474121 C-6.60099983215332,39.11399841308594 -6.59499979019165,88.20999908447266 -16.1299991607666,88.16200256347656 C-15.892999649047852,60.06800079345703 -13.680999755859375,-33.61600112915039 -13.072999954223633,-50.0880012512207 C-12.178999900817871,-74.33999633789062 2.7890000343322754,-88.12000274658203 18.334999084472656,-82.72100067138672 C11.704000473022461,-81.44599914550781 5.182000160217285,-76.34700012207031 1.1510000228881836,-60.94599914550781 C-0.4359999895095825,-54.88100051879883 -1.6360000371932983,-47.21799850463867 -2.305000066757202,-37.5629997253418z"></path></g></g><g style="display: block;" transform="matrix(1,0,0,1,312.3110046386719,176.35000610351562)" opacity="1"><g opacity="1" transform="matrix(1,0,0,1,0,0)"><path stroke-linecap="round" stroke-linejoin="round" fill-opacity="0" stroke="rgb(247,126,65)" stroke-opacity="1" stroke-width="8" d=" M15.0649995803833,97.4489974975586 C11.850000381469727,78.78800201416016 30.02400016784668,-35.564998626708984 33.46500015258789,-59.31700134277344 C36.90599822998047,-83.06900024414062 28.655000686645508,-95.51799774169922 14.098999977111816,-97.29000091552734 C0.22200000286102295,-98.97899627685547 -10.720000267028809,-87.0510025024414 -14.001999855041504,-68.30400085449219 C-18.013999938964844,-45.382999420166016 -34.24300003051758,66.30000305175781 -34.24300003051758,66.30000305175781"></path></g></g><g style="display: block;" transform="matrix(1,0,0,1,287.44598388671875,363.1240234375)" opacity="1"><g opacity="1" transform="matrix(1,0,0,1,0,0)"><path stroke-linecap="round" stroke-linejoin="round" fill-opacity="0" stroke="rgb(247,126,65)" stroke-opacity="1" stroke-width="8" d=" M39.93000030517578,-88.01799774169922 C40.92900085449219,-80.2490005493164 44.93899917602539,-68.91600036621094 55.39500045776367,-67.30400085449219 C85.44499969482422,-62.67300033569336 89.23999786376953,-97.73799896240234 121.09400177001953,-103.96900177001953 C146.93899536132812,-109.0260009765625 174.06900024414062,-98.42900085449219 176.4929962158203,-74.88500213623047 C178.76300048828125,-52.83100128173828 134.93800354003906,-60.24100112915039 102.13400268554688,-17.402999877929688 C82.76200103759766,7.895999908447266 67.37100219726562,52.95600128173828 29.969999313354492,80.83799743652344"></path></g></g><g style="display: block;" transform="matrix(1,0,0,1,287.44598388671875,363.1239929199219)" opacity="1"><g opacity="1" transform="matrix(1,0,0,1,0,0)"><path stroke-linecap="round" stroke-linejoin="round" fill-opacity="0" stroke="rgb(247,126,65)" stroke-opacity="1" stroke-width="8" d=" M29.969999313354492,80.83799743652344 C9.569999694824219,96.0459976196289 -17.378999710083008,106.14399719238281 -55.09400177001953,105.13600158691406 C-117.3949966430664,103.47200012207031 -145.7429962158203,69.1510009765625 -155.40699768066406,42.37799835205078 C-166.12899780273438,12.670000076293945 -170.66799926757812,-29.81399917602539 -176.5780029296875,-72.47000122070312"></path></g></g><g style="display: none;"><g><path stroke-linecap="round" stroke-linejoin="miter" fill-opacity="0" stroke-miterlimit="4"></path></g></g></g></svg>