<svg xmlns="http://www.w3.org/2000/svg" viewBox="0 0 512 512" width="512" height="512" style="width: 100%; height: 100%; transform: translate3d(0,0,0);" preserveAspectRatio="xMidYMid meet"><defs><clipPath id="__lottie_element_3054"><rect width="512" height="512" x="0" y="0"></rect></clipPath><linearGradient id="__lottie_element_3069" spreadMethod="pad" gradientUnits="userSpaceOnUse" x1="17.21299934387207" y1="-62.16699981689453" x2="-2.7809998989105225" y2="-32.0369987487793"><stop offset="0%" stop-color="rgb(50,13,3)"></stop><stop offset="38%" stop-color="rgb(96,52,17)"></stop><stop offset="100%" stop-color="rgb(143,90,31)"></stop></linearGradient></defs><g clip-path="url(#__lottie_element_3054)"><g style="display: block;" transform="matrix(0.35370999574661255,0,0,0.35370999574661255,237.389892578125,377.9876403808594)" opacity="1"><g opacity="1" transform="matrix(1,0,0,1,0,0)"><path stroke-linecap="round" stroke-linejoin="round" fill-opacity="0" stroke="rgb(35,102,255)" stroke-opacity="1" stroke-width="17" d="M0 0"></path></g><g opacity="1" transform="matrix(1,0,0,1,0,0)"><path stroke-linecap="round" stroke-linejoin="round" fill-opacity="0" stroke="rgb(35,102,255)" stroke-opacity="1" stroke-width="17" d="M0 0"></path></g><g opacity="1" transform="matrix(1,0,0,1,0,0)"><path stroke-linecap="round" stroke-linejoin="round" fill-opacity="0" stroke="rgb(35,102,255)" stroke-opacity="1" stroke-width="17" d="M0 0"></path></g><g opacity="1" transform="matrix(1,0,0,1,0,0)"><path stroke-linecap="round" stroke-linejoin="round" fill-opacity="0" stroke="rgb(35,102,255)" stroke-opacity="1" stroke-width="17" d="M0 0"></path></g></g><g style="display: block;" transform="matrix(0.7237280011177063,0,0,0.7237280011177063,288.876953125,314.0723571777344)" opacity="1"><g opacity="1" transform="matrix(1,0,0,1,0,0)"><path fill="rgb(5,81,218)" fill-opacity="1" d=" M0.0820000022649765,50.38600158691406 C0.7450000047683716,50.38600158691406 9.942999839782715,50.38600158691406 10.708999633789062,50.38600158691406 C10.708999633789062,51.00400161743164 10.760000228881836,52.33000183105469 10.760000228881836,53.20500183105469 C10.223999977111816,53.74599838256836 4.177000045776367,60.98899841308594 3.5390000343322754,61.632999420166016 C4.508999824523926,61.632999420166016 10.045000076293945,61.632999420166016 10.760000228881836,61.632999420166016 C10.760000228881836,62.340999603271484 10.760000228881836,64.33899688720703 10.760000228881836,64.61000061035156 C10.045000076293945,64.61000061035156 0.28600001335144043,64.66100311279297 -0.47999998927116394,64.66100311279297 C-0.47999998927116394,63.992000579833984 -0.47999998927116394,62.560001373291016 -0.47999998927116394,61.632999420166016 C0.18299999833106995,60.9640007019043 6.052999973297119,53.720001220703125 6.563000202178955,53.20500183105469 C6.052999973297119,53.20500183105469 0.8479999899864197,53.20500183105469 0.0820000022649765,53.20500183105469 C0.0820000022649765,52.58700180053711 0.0820000022649765,50.38600158691406 0.0820000022649765,50.38600158691406z"></path></g><g opacity="1" transform="matrix(1,0,0,1,1,-1)"><path fill="rgb(47,154,248)" fill-opacity="1" d=" M-0.2460000067949295,64.29100036621094 C0.6980000138282776,64.29100036621094 9.28600025177002,64.29100036621094 9.923999786376953,64.29100036621094 C9.923999786376953,64.66799926757812 9.923999786376953,65.2959976196289 9.923999786376953,65.44599914550781 C9.210000038146973,65.44599914550781 -0.5490000247955322,65.49700164794922 -1.315000057220459,65.49700164794922 C-1.315000057220459,64.8280029296875 -1.315000057220459,63.395999908447266 -1.315000057220459,62.46900177001953 C-1.2079999446868896,62.361000061035156 -0.5809999704360962,62.00600051879883 -0.2460000067949295,61.61000061035156 C-0.2460000067949295,62.95199966430664 -0.2460000067949295,63.930999755859375 -0.2460000067949295,64.29100036621094z"></path></g><g opacity="1" transform="matrix(1,0,0,1,3,-2)"><path fill="rgb(47,154,248)" fill-opacity="1" d=" M-2.4260001182556152,52.05699920654297 C-2.3239998817443848,52.05699920654297 -1.843000054359436,52.05699920654297 -1.4190000295639038,52.05699920654297 C-1.4190000295639038,52.571998596191406 -1.4190000295639038,53.553001403808594 -1.4190000295639038,53.96500015258789 C-0.5509999990463257,53.96500015258789 3.4179999828338623,53.96500015258789 4.388000011444092,53.96500015258789 C4.873000144958496,53.96500015258789 5.007999897003174,54.44599914550781 4.359000205993652,55.10100173950195 C3.8489999771118164,55.10100173950195 -1.659999966621399,54.875999450683594 -2.4260001182556152,54.875999450683594 C-2.4260001182556152,54.257999420166016 -2.4260001182556152,52.05699920654297 -2.4260001182556152,52.05699920654297z"></path></g><g opacity="1" transform="matrix(1,0,0,1,0,0)"><path stroke-linecap="round" stroke-linejoin="round" fill-opacity="0" stroke="rgb(8,40,139)" stroke-opacity="1" stroke-width="8" d=" M0.0820000022649765,50.38600158691406 C0.7450000047683716,50.38600158691406 9.942999839782715,50.38600158691406 10.708999633789062,50.38600158691406 C10.708999633789062,51.00400161743164 10.760000228881836,52.33000183105469 10.760000228881836,53.20500183105469 C10.223999977111816,53.74599838256836 4.177000045776367,60.98899841308594 3.5390000343322754,61.632999420166016 C4.508999824523926,61.632999420166016 10.045000076293945,61.632999420166016 10.760000228881836,61.632999420166016 C10.760000228881836,62.340999603271484 10.760000228881836,64.33899688720703 10.760000228881836,64.61000061035156 C10.045000076293945,64.61000061035156 0.28600001335144043,64.66100311279297 -0.47999998927116394,64.66100311279297 C-0.47999998927116394,63.992000579833984 -0.47999998927116394,62.560001373291016 -0.47999998927116394,61.632999420166016 C0.18299999833106995,60.9640007019043 6.052999973297119,53.720001220703125 6.563000202178955,53.20500183105469 C6.052999973297119,53.20500183105469 0.8479999899864197,53.20500183105469 0.0820000022649765,53.20500183105469 C0.0820000022649765,52.58700180053711 0.0820000022649765,50.38600158691406 0.0820000022649765,50.38600158691406z"></path></g></g><g style="display: block;" transform="matrix(0.4075399935245514,0,0,0.4075399935245514,233.41647338867188,309.4425048828125)" opacity="1"><g opacity="1" transform="matrix(1,0,0,1,0,0)"><path stroke-linecap="round" stroke-linejoin="round" fill-opacity="0" stroke="rgb(36,83,225)" stroke-opacity="1" stroke-width="17" d="M0 0"></path></g><g opacity="1" transform="matrix(1,0,0,1,0,0)"><path stroke-linecap="round" stroke-linejoin="round" fill-opacity="0" stroke="rgb(36,83,225)" stroke-opacity="1" stroke-width="17" d="M0 0"></path></g><g opacity="1" transform="matrix(1,0,0,1,0,0)"><path stroke-linecap="round" stroke-linejoin="round" fill-opacity="0" stroke="rgb(36,83,225)" stroke-opacity="1" stroke-width="17" d="M0 0"></path></g><g opacity="1" transform="matrix(1,0,0,1,0,0)"><path stroke-linecap="round" stroke-linejoin="round" fill-opacity="0" stroke="rgb(36,83,225)" stroke-opacity="1" stroke-width="17" d="M0 0"></path></g></g><g style="display: block;" transform="matrix(0.7237280011177063,0,0,0.7237280011177063,349.343017578125,364.0577392578125)" opacity="1"><g opacity="1" transform="matrix(1,0,0,1,0,0)"><path fill="rgb(5,81,218)" fill-opacity="1" d=" M-89.88500213623047,-22.209999084472656 C-89.1050033569336,-22.209999084472656 -78.28600311279297,-22.209999084472656 -77.38500213623047,-22.209999084472656 C-77.38500213623047,-21.489999771118164 -77.32499694824219,-19.94499969482422 -77.32499694824219,-18.923999786376953 C-77.95500183105469,-18.29400062561035 -85.06900024414062,-9.847999572753906 -85.81900024414062,-9.097999572753906 C-84.6780014038086,-9.097999572753906 -78.16500091552734,-9.097999572753906 -77.32499694824219,-9.097999572753906 C-77.32499694824219,-8.27299976348877 -77.32499694824219,-5.942999839782715 -77.32499694824219,-5.626999855041504 C-78.16500091552734,-5.626999855041504 -89.6449966430664,-5.566999912261963 -90.5459976196289,-5.566999912261963 C-90.5459976196289,-6.3470001220703125 -90.5459976196289,-8.017000198364258 -90.5459976196289,-9.097999572753906 C-89.76599884033203,-9.878000259399414 -82.86100006103516,-18.323999404907227 -82.26100158691406,-18.923999786376953 C-82.86100006103516,-18.923999786376953 -88.98400115966797,-18.923999786376953 -89.88500213623047,-18.923999786376953 C-89.88500213623047,-19.643999099731445 -89.88500213623047,-22.209999084472656 -89.88500213623047,-22.209999084472656z"></path></g><g opacity="1" transform="matrix(1,0,0,1,1,-1)"><path fill="rgb(47,154,248)" fill-opacity="1" d=" M-90.31600189208984,-5.947000026702881 C-89.20500183105469,-5.947000026702881 -78.91000366210938,-5.947000026702881 -78.16000366210938,-5.947000026702881 C-78.16000366210938,-5.506999969482422 -78.16000366210938,-4.966000080108643 -78.16000366210938,-4.790999889373779 C-79,-4.790999889373779 -90.4800033569336,-4.730999946594238 -91.38099670410156,-4.730999946594238 C-91.38099670410156,-5.511000156402588 -91.38099670410156,-7.181000232696533 -91.38099670410156,-8.26200008392334 C-91.25499725341797,-8.387999534606934 -90.70999908447266,-8.802000045776367 -90.31600189208984,-9.262999534606934 C-90.31600189208984,-7.698999881744385 -90.31600189208984,-6.367000102996826 -90.31600189208984,-5.947000026702881z"></path></g><g opacity="1" transform="matrix(1,0,0,1,2,-1)"><path fill="rgb(47,154,248)" fill-opacity="1" d=" M-91.55599975585938,-21.375 C-91.43699645996094,-21.375 -91.06400299072266,-21.375 -90.56600189208984,-21.375 C-90.56600189208984,-20.774999618530273 -90.56600189208984,-19.60300064086914 -90.56600189208984,-19.12299919128418 C-89.54499816894531,-19.12299919128418 -84.68299865722656,-19.12299919128418 -83.54199981689453,-19.12299919128418 C-82.97200012207031,-19.12299919128418 -82.81099700927734,-18.59000015258789 -83.57499694824219,-17.826000213623047 C-84.17500305175781,-17.826000213623047 -90.65499877929688,-18.08799934387207 -91.55599975585938,-18.08799934387207 C-91.55599975585938,-18.808000564575195 -91.55599975585938,-21.375 -91.55599975585938,-21.375z"></path></g><g opacity="1" transform="matrix(1,0,0,1,0,0)"><path stroke-linecap="round" stroke-linejoin="round" fill-opacity="0" stroke="rgb(8,40,139)" stroke-opacity="1" stroke-width="8" d=" M-89.88500213623047,-22.209999084472656 C-89.1050033569336,-22.209999084472656 -78.28600311279297,-22.209999084472656 -77.38500213623047,-22.209999084472656 C-77.38500213623047,-21.489999771118164 -77.32499694824219,-19.94499969482422 -77.32499694824219,-18.923999786376953 C-77.95500183105469,-18.29400062561035 -85.06900024414062,-9.847999572753906 -85.81900024414062,-9.097999572753906 C-84.6780014038086,-9.097999572753906 -78.16500091552734,-9.097999572753906 -77.32499694824219,-9.097999572753906 C-77.32499694824219,-8.27299976348877 -77.32499694824219,-5.942999839782715 -77.32499694824219,-5.626999855041504 C-78.16500091552734,-5.626999855041504 -89.6449966430664,-5.566999912261963 -90.5459976196289,-5.566999912261963 C-90.5459976196289,-6.3470001220703125 -90.5459976196289,-8.017000198364258 -90.5459976196289,-9.097999572753906 C-89.76599884033203,-9.878000259399414 -82.86100006103516,-18.323999404907227 -82.26100158691406,-18.923999786376953 C-82.86100006103516,-18.923999786376953 -88.98400115966797,-18.923999786376953 -89.88500213623047,-18.923999786376953 C-89.88500213623047,-19.643999099731445 -89.88500213623047,-22.209999084472656 -89.88500213623047,-22.209999084472656z"></path></g></g><g style="display: block;" transform="matrix(0.39547500014305115,0,0,0.39547500014305115,196.72962951660156,196.9441375732422)" opacity="1"><g opacity="1" transform="matrix(1,0,0,1,0,0)"><path stroke-linecap="round" stroke-linejoin="round" fill-opacity="0" stroke="rgb(25,77,241)" stroke-opacity="1" stroke-width="18" d="M0 0"></path></g><g opacity="1" transform="matrix(1,0,0,1,0,0)"><path stroke-linecap="round" stroke-linejoin="round" fill-opacity="0" stroke="rgb(25,77,241)" stroke-opacity="1" stroke-width="18" d="M0 0"></path></g><g opacity="1" transform="matrix(1,0,0,1,0,0)"><path stroke-linecap="round" stroke-linejoin="round" fill-opacity="0" stroke="rgb(25,77,241)" stroke-opacity="1" stroke-width="18" d="M0 0"></path></g><g opacity="1" transform="matrix(1,0,0,1,0,0)"><path stroke-linecap="round" stroke-linejoin="round" fill-opacity="0" stroke="rgb(25,77,241)" stroke-opacity="1" stroke-width="18" d="M0 0"></path></g></g><g style="display: block;" transform="matrix(0.7237280011177063,0,0,0.7237280011177063,414.59320068359375,421.6589050292969)" opacity="1"><g opacity="1" transform="matrix(1,0,0,1,0,0)"><path fill="rgb(5,81,218)" fill-opacity="1" d=" M-191.1269989013672,-103.97599792480469 C-190.38099670410156,-103.97599792480469 -180.51699829101562,-103.97599792480469 -179.65699768066406,-103.97599792480469 C-179.65699768066406,-103.28800201416016 -179.5989990234375,-101.96900177001953 -179.5989990234375,-100.99400329589844 C-180.2010040283203,-100.39199829101562 -186.6820068359375,-92.32499694824219 -187.3990020751953,-91.60800170898438 C-186.3090057373047,-91.60800170898438 -180.40199279785156,-91.60800170898438 -179.5989990234375,-91.60800170898438 C-179.5989990234375,-90.97699737548828 -179.5989990234375,-89.06500244140625 -179.5989990234375,-88.60600280761719 C-180.40199279785156,-88.60600280761719 -190.8979949951172,-88.54900360107422 -191.75799560546875,-88.54900360107422 C-191.75799560546875,-89.29499816894531 -191.75799560546875,-90.57599639892578 -191.75799560546875,-91.60800170898438 C-191.01199340820312,-92.35399627685547 -184.41700744628906,-100.41999816894531 -183.84300231933594,-100.99400329589844 C-184.41700744628906,-100.99400329589844 -190.26699829101562,-100.99400329589844 -191.1269989013672,-100.99400329589844 C-191.1269989013672,-101.68199920654297 -191.1269989013672,-103.97599792480469 -191.1269989013672,-103.97599792480469z"></path></g><g opacity="1" transform="matrix(1,0,0,1,1,-1)"><path fill="rgb(47,154,248)" fill-opacity="1" d=" M-191.7760009765625,-88.67400360107422 C-190.71499633789062,-88.67400360107422 -181.19500732421875,-88.67400360107422 -180.47799682617188,-88.67400360107422 C-180.47799682617188,-88.25399780273438 -180.47799682617188,-87.8949966430664 -180.47799682617188,-87.72799682617188 C-181.281005859375,-87.72799682617188 -191.7760009765625,-87.6709976196289 -192.63600158691406,-87.6709976196289 C-192.63600158691406,-88.41699981689453 -192.63600158691406,-89.6969985961914 -192.63600158691406,-90.72899627685547 C-192.51499938964844,-90.8499984741211 -192.15199279785156,-91.24400329589844 -191.7760009765625,-91.68499755859375 C-191.7760009765625,-90.19000244140625 -191.7760009765625,-89.07499694824219 -191.7760009765625,-88.67400360107422z"></path></g><g opacity="1" transform="matrix(1,0,0,1,1,-1)"><path fill="rgb(47,154,248)" fill-opacity="1" d=" M-192.0050048828125,-103.0979995727539 C-191.89100646972656,-103.0979995727539 -191.53500366210938,-103.0979995727539 -191.0590057373047,-103.0979995727539 C-191.0590057373047,-102.52400207519531 -191.0590057373047,-101.40699768066406 -191.0590057373047,-100.947998046875 C-190.08399963378906,-100.947998046875 -185.43899536132812,-100.947998046875 -184.3489990234375,-100.947998046875 C-183.8040008544922,-100.947998046875 -183.65199279785156,-100.59400177001953 -184.38099670410156,-99.86499786376953 C-184.9550018310547,-99.86499786376953 -191.14500427246094,-100.11599731445312 -192.0050048828125,-100.11599731445312 C-192.0050048828125,-100.80400085449219 -192.0050048828125,-103.0979995727539 -192.0050048828125,-103.0979995727539z"></path></g><g opacity="1" transform="matrix(1,0,0,1,0,0)"><path stroke-linecap="round" stroke-linejoin="round" fill-opacity="0" stroke="rgb(255,255,255)" stroke-opacity="1" stroke-width="4" d=" M-185.9010009765625,-101.93299865722656 C-185.9010009765625,-101.93299865722656 -185.59300231933594,-101.93299865722656 -185.59300231933594,-101.93299865722656"></path></g><g opacity="1" transform="matrix(1,0,0,1,0,0)"><path stroke-linecap="round" stroke-linejoin="round" fill-opacity="0" stroke="rgb(255,255,255)" stroke-opacity="1" stroke-width="4" d=" M-187.59300231933594,-101.93299865722656 C-187.59300231933594,-101.93299865722656 -186.69700622558594,-101.93299865722656 -186.69700622558594,-101.93299865722656"></path></g><g opacity="1" transform="matrix(1,0,0,1,0,0)"><path stroke-linecap="round" stroke-linejoin="round" fill-opacity="0" stroke="rgb(8,40,139)" stroke-opacity="1" stroke-width="8" d=" M-191.1269989013672,-103.97599792480469 C-190.38099670410156,-103.97599792480469 -180.51699829101562,-103.97599792480469 -179.65699768066406,-103.97599792480469 C-179.65699768066406,-103.28800201416016 -179.5989990234375,-101.96900177001953 -179.5989990234375,-100.99400329589844 C-180.2010040283203,-100.39199829101562 -186.6820068359375,-92.32499694824219 -187.3990020751953,-91.60800170898438 C-186.3090057373047,-91.60800170898438 -180.40199279785156,-91.60800170898438 -179.5989990234375,-91.60800170898438 C-179.5989990234375,-90.97699737548828 -179.5989990234375,-89.06500244140625 -179.5989990234375,-88.60600280761719 C-180.40199279785156,-88.60600280761719 -190.8979949951172,-88.54900360107422 -191.75799560546875,-88.54900360107422 C-191.75799560546875,-89.29499816894531 -191.75799560546875,-90.57599639892578 -191.75799560546875,-91.60800170898438 C-191.01199340820312,-92.35399627685547 -184.41700744628906,-100.41999816894531 -183.84300231933594,-100.99400329589844 C-184.41700744628906,-100.99400329589844 -190.26699829101562,-100.99400329589844 -191.1269989013672,-100.99400329589844 C-191.1269989013672,-101.68199920654297 -191.1269989013672,-103.97599792480469 -191.1269989013672,-103.97599792480469z"></path></g></g><g style="display: block;" transform="matrix(1.0800000429153442,0,0,1.0800000429153442,276.99981689453125,263.999755859375)" opacity="1"><g opacity="1" transform="matrix(1,0,0,1,0,0)"><path fill="rgb(255,255,253)" fill-opacity="1" d=" M73.04399871826172,-30.90999984741211 C73.04399871826172,-30.90999984741211 75.72799682617188,-89.71199798583984 30.076000213623047,-105.12899780273438 C-5.683000087738037,-117.20500183105469 -41.15700149536133,-71.47799682617188 -36.33100128173828,-48.31100082397461 C-31.5049991607666,-25.143999099731445 -7.109000205993652,10.907999992370605 24.31999969482422,10.59000015258789 C64.35099792480469,10.185999870300293 73.04399871826172,-30.90999984741211 73.04399871826172,-30.90999984741211z"></path></g></g><g style="display: block;" transform="matrix(1.0800000429153442,0,0,1.0800000429153442,276.99981689453125,263.999755859375)" opacity="1"><g opacity="1" transform="matrix(1,0,0,1,0,0)"><g opacity="1" transform="matrix(1,0,0,1,0,0)"><g opacity="1" transform="matrix(1,0,0,1,0,0)"><path fill="url(#__lottie_element_3069)" fill-opacity="1" d=" M-21.03700065612793,-55.4630012512207 C-21.03700065612793,-38.8129997253418 -10.050999641418457,-25.315000534057617 3.5,-25.315000534057617 C17.051000595092773,-25.315000534057617 28.03700065612793,-38.8129997253418 28.03700065612793,-55.4630012512207 C28.03700065612793,-72.11299896240234 17.052000045776367,-85.61100006103516 3.5,-85.61100006103516 C-10.052000045776367,-85.61100006103516 -21.03700065612793,-72.11299896240234 -21.03700065612793,-55.4630012512207z"></path></g><g opacity="1" transform="matrix(1,0,0,1,0,0)"><path fill="rgb(23,19,11)" fill-opacity="1" d=" M-12.006999969482422,-55.4630012512207 C-12.006999969482422,-44.939998626708984 -5.064000129699707,-36.409000396728516 3.5,-36.409000396728516 C12.064000129699707,-36.409000396728516 19.006999969482422,-44.939998626708984 19.006999969482422,-55.4630012512207 C19.006999969482422,-65.98600006103516 12.0649995803833,-74.51599884033203 3.5,-74.51599884033203 C-5.065000057220459,-74.51599884033203 -12.006999969482422,-65.98600006103516 -12.006999969482422,-55.4630012512207z"></path></g><g opacity="1" transform="matrix(1,0,0,1,0,0)"><path fill="rgb(243,243,243)" fill-opacity="1" d=" M10.229000091552734,-50.43899917602539 C10.229000091552734,-46.832000732421875 12.609000205993652,-43.90800094604492 15.545000076293945,-43.90800094604492 C18.481000900268555,-43.90800094604492 20.861000061035156,-46.832000732421875 20.861000061035156,-50.43899917602539 C20.861000061035156,-54.04600143432617 18.481000900268555,-56.97100067138672 15.545000076293945,-56.97100067138672 C12.609000205993652,-56.97100067138672 10.229000091552734,-54.04600143432617 10.229000091552734,-50.43899917602539z"></path></g><g opacity="1" transform="matrix(1,0,0,1,0,0)"><path stroke-linecap="round" stroke-linejoin="round" fill-opacity="0" stroke="rgb(222,149,8)" stroke-opacity="1" stroke-width="3.5" d=" M-14.656999588012695,-46.946998596191406 C-12.833000183105469,-40.26900100708008 -8.470999717712402,-35.02299880981445 -2.9779999256134033,-32.941001892089844"></path></g></g></g></g><g style="display: block;" transform="matrix(1.0800000429153442,0,0,1.0800000429153442,276.99981689453125,263.999755859375)" opacity="1"><g opacity="1" transform="matrix(1,0,0,1,0,0)"><path fill="rgb(253,224,97)" fill-opacity="1" d=" M-74.3949966430664,-205.59500122070312 C-84.9800033569336,-205.59500122070312 -95.37899780273438,-204.802001953125 -105.52899932861328,-203.2570037841797 C-105.52899932861328,-203.2570037841797 -62.92900085449219,-162.28900146484375 -51.66999816894531,-98.94400024414062 C-45.50199890136719,-64.31800079345703 -65.9530029296875,-25.058000564575195 -82.44499969482422,-7.739999771118164 C-95.78199768066406,6.260000228881836 -102.6240005493164,8.708999633789062 -100.49199676513672,16.17099952697754 C-99.01300048828125,21.32699966430664 -88.44999694824219,26.516000747680664 -72.39399719238281,26.875 C-57.784000396728516,27.201000213623047 -51.99700164794922,30.47599983215332 -51.99700164794922,30.47599983215332 C-51.99700164794922,30.47599983215332 -50.31100082397461,41.637001037597656 -55.91299819946289,49.5890007019043 C-61.51499938964844,57.54100036621094 -65.52899932861328,56.040000915527344 -65.3550033569336,62.24100112915039 C-65.13700103759766,69.44200134277344 -57.54499816894531,74.3479995727539 -57.54499816894531,74.3479995727539 C-57.54499816894531,74.3479995727539 -64.24600219726562,77.50299835205078 -64.59400177001953,82.11499786376953 C-65.0510025024414,88.28299713134766 -58.80699920654297,89.70899963378906 -57.71900177001953,93.86399841308594 C-56.641998291015625,98.02999877929688 -60.91699981689453,124.56300354003906 -80.06300354003906,154.76100158691406 C-102.08100128173828,189.48500061035156 -121.00900268554688,200.0260009765625 -121.00900268554688,200.0260009765625 C-106.02999877929688,203.49600219726562 -90.43000030517578,205.33399963378906 -74.3949966430664,205.33399963378906 C39.07699966430664,205.33399963378906 131.06399536132812,113.33599853515625 131.06399536132812,-0.13600000739097595 C131.06399536132812,-113.60800170898438 39.07699966430664,-205.59500122070312 -74.3949966430664,-205.59500122070312z M14.368000030517578,-24.395999908447266 C-5.51800012588501,-23.16699981689453 -13.642999649047852,-34.52299880981445 -16.700000762939453,-49.20899963378906 C-19.756999969482422,-63.89500045776367 -14.35099983215332,-83.11799621582031 8.309000015258789,-75.47000122070312 C37.244998931884766,-65.70099639892578 52.040000915527344,-39.941001892089844 52.040000915527344,-39.941001892089844 C52.040000915527344,-39.941001892089844 34.25400161743164,-25.61400032043457 14.368000030517578,-24.395999908447266z"></path></g><g opacity="1" transform="matrix(1,0,0,1,0,0)"><path fill="rgb(240,194,68)" fill-opacity="1" d=" M131.52699279785156,-0.13600000739097595 C131.52699279785156,113.33599853515625 39.540000915527344,205.33399963378906 -73.93199920654297,205.33399963378906 C-89.96700286865234,205.33399963378906 -105.56700134277344,203.49600219726562 -120.5459976196289,200.0260009765625 C-120.5459976196289,200.0260009765625 -119.88200378417969,199.656005859375 -118.66400146484375,198.83999633789062 C-113.25700378417969,199.26400756835938 -107.80699920654297,199.4709930419922 -102.29199981689453,199.4709930419922 C11.180000305175781,199.4709930419922 106.43099975585938,110.09400177001953 106.43099975585938,-0.13600000739097595 C106.43099975585938,-110.16000366210938 11.517000198364258,-199.39500427246094 -101.66100311279297,-199.73199462890625 C-103.81500244140625,-202.0489959716797 -105.06600189208984,-203.2570037841797 -105.06600189208984,-203.2570037841797 C-94.91600036621094,-204.802001953125 -84.51699829101562,-205.59500122070312 -73.93199920654297,-205.59500122070312 C39.540000915527344,-205.59500122070312 131.52699279785156,-113.60800170898438 131.52699279785156,-0.13600000739097595z"></path></g><g opacity="1" transform="matrix(1,0,0,1,0,0)"><path fill="rgb(255,233,131)" fill-opacity="1" d=" M-65.88999938964844,133.25 C-65.88999938964844,133.25 -46.13399887084961,136.9499969482422 -40.70399856567383,135.49600219726562 C-23.70400047302246,130.94400024414062 -45.21200180053711,187.0749969482422 -98.40299987792969,186.99400329589844 C-98.40299987792969,186.99400329589844 -65.88999938964844,133.25 -65.88999938964844,133.25z"></path></g><g opacity="0.6" transform="matrix(1,0,0,1,0,0)"><path fill="rgb(230,181,46)" fill-opacity="1" d=" M-8.553000450134277,86.69499969482422 C-7.519999980926514,88.34300231933594 -21.400999069213867,100.26499938964844 -36.33399963378906,107.84400177001953 C-42.74700164794922,111.0989990234375 -51.28799819946289,113.20800018310547 -60.49700164794922,112.49099731445312 C-58.625999450683594,105.91000366210938 -57.64799880981445,103.44599914550781 -55.99300003051758,94.27899932861328 C-35.185001373291016,98.61100006103516 -9.210000038146973,85.64700317382812 -8.553000450134277,86.69499969482422z"></path></g><g opacity="1" transform="matrix(1,0,0,1,0,0)"><path fill="rgb(255,237,158)" fill-opacity="1" d=" M-60.31999969482422,77.58899688720703 C-60.31999969482422,77.58899688720703 -74.61399841308594,90.97899627685547 -55.99300003051758,94.27899932861328 C-33.54899978637695,98.25700378417969 -11.574000358581543,84.25900268554688 -2.1080000400543213,73.16699981689453 C-2.1080000400543213,73.16699981689453 -36.29499816894531,83.55000305175781 -60.31999969482422,77.58899688720703z"></path></g><g opacity="1" transform="matrix(1,0,0,1,0,0)"><path fill="rgb(255,233,131)" fill-opacity="1" d=" M54.8129997253418,-93.2030029296875 C12.461000442504883,-153.15899658203125 -70.85900115966797,-162.78599548339844 -57.915000915527344,-125.83300018310547 C-51.83700180053711,-108.48100280761719 -52.016998291015625,-100.89199829101562 -51.66999816894531,-98.94400024414062 C-45.50199890136719,-64.31800079345703 -65.94999694824219,-25.05500030517578 -82.44499969482422,-7.739999771118164 C-95.78199768066406,6.260000228881836 -102.63200378417969,8.711000442504883 -100.49199676513672,16.17099952697754 C-99.01300048828125,21.32699966430664 -88.44999694824219,26.516000747680664 -72.39399719238281,26.875 C-57.784000396728516,27.201000213623047 -51.99700164794922,30.47599983215332 -51.99700164794922,30.47599983215332 C-51.99700164794922,30.47599983215332 -51.986000061035156,30.530000686645508 -51.974998474121094,30.638999938964844 C-51.9640007019043,30.683000564575195 -51.9640007019043,30.74799919128418 -51.952999114990234,30.812999725341797 C-51.930999755859375,30.94300079345703 -51.92100143432617,31.106000900268555 -51.89899826049805,31.312999725341797 C-51.87699890136719,31.44300079345703 -51.86600112915039,31.60700035095215 -51.85499954223633,31.770000457763672 C-47.819000244140625,32.4010009765625 -40.04199981689453,33.12799835205078 -35.21099853515625,30.530000686645508 C-23.799999237060547,24.395000457763672 -29.118999481201172,8.229999542236328 -29.336999893188477,7.76200008392334 C1.1490000486373901,49.066001892089844 58.303001403808594,43.04600143432617 72.33200073242188,4.215000152587891 C82.01200103759766,-22.57699966430664 75.42900085449219,-64.01699829101562 54.8129997253418,-93.2030029296875z M14.368000030517578,-24.395999908447266 C-5.51800012588501,-23.16699981689453 -13.642999649047852,-34.52299880981445 -16.700000762939453,-49.20899963378906 C-19.756999969482422,-63.89500045776367 -14.35099983215332,-83.11799621582031 8.309000015258789,-75.47000122070312 C37.244998931884766,-65.70099639892578 52.040000915527344,-39.941001892089844 52.040000915527344,-39.941001892089844 C52.040000915527344,-39.941001892089844 34.25400161743164,-25.61400032043457 14.368000030517578,-24.395999908447266z"></path></g><g opacity="0.6" transform="matrix(1,0,0,1,0,0)"><path fill="rgb(230,181,46)" fill-opacity="1" d=" M-53.84400177001953,62.05500030517578 C-52.47700119018555,52.529998779296875 -50.16999816894531,38.22200012207031 -52.099998474121094,31.374000549316406 C-49.67399978637695,31.461000442504883 -48.332000732421875,31.378000259399414 -45.2859992980957,32.22700119018555 C-28.761999130249023,36.77399826049805 -26.26799964904785,16.83300018310547 -41.279998779296875,14.538000106811523 C-55.62900161743164,12.35099983215332 -72.71499633789062,11.102999687194824 -65.94100189208984,-0.6050000190734863 C-59.08700180053711,-12.451000213623047 -43.595001220703125,-41.0260009765625 -42.731998443603516,-72.62699890136719 C-41.81800079345703,-106.0719985961914 -1.7869999408721924,-129.6699981689453 45.02799987792969,-83.75599670410156 C35.4010009765625,-90.90699768066406 19.565000534057617,-98.49600219726562 13.6899995803833,-94.73799896240234 C9.312000274658203,-91.93800354003906 30.327999114990234,-83.40399932861328 38.492000579833984,-74.677001953125 C35.55500030517578,-76.95099639892578 -11.647000312805176,-107.6259994506836 -14.954000473022461,-69.10600280761719 C-17.891000747680664,-63.50400161743164 -18.250999450683594,-55.88800048828125 -16.857999801635742,-49.20899963378906 C-13.800999641418457,-34.52299880981445 -5.675000190734863,-23.16699981689453 14.211000442504883,-24.395999908447266 C28.232999801635742,-25.2549991607666 41.21099853515625,-32.63100051879883 47.63999938964844,-36.90599822998047 C36.46799850463867,-22.98200035095215 13.66100025177002,-17.606000900268555 -0.35499998927116394,-20.795000076293945 C-15.77299976348877,-24.30299949645996 -21.132999420166016,-34.38199996948242 -21.132999420166016,-34.38199996948242 C-24.93000030517578,-27.996000289916992 -29.009000778198242,-18.16200065612793 -28.44300079345703,-5.836999893188477 C-27.159000396728516,22.33799934387207 -6.366000175476074,29.617000579833984 2.0920000076293945,39.38399887084961 C19.966999053955078,60.0260009765625 9.78499984741211,86.34200286865234 5.4720001220703125,88.58599853515625 C1.5069999694824219,90.64900207519531 5.228000164031982,70.47000122070312 1.6990000009536743,68.52899932861328 C-4.4770002365112305,70.11699676513672 -55.13999938964844,71.08899688720703 -53.84400177001953,62.05500030517578z"></path></g><g opacity="1" transform="matrix(1,0,0,1,0,0)"><path stroke-linecap="round" stroke-linejoin="round" fill-opacity="0" stroke="rgb(218,164,35)" stroke-opacity="1" stroke-width="8" d=" M-49.44200134277344,9.15999984741211 C-49.44200134277344,9.15999984741211 -35.981998443603516,8.998000144958496 -32.974998474121094,17.78700065612793 C-29.398000717163086,28.240999221801758 -35.64799880981445,35.41600036621094 -51.99700164794922,30.93400001525879"></path></g><g opacity="1" transform="matrix(1,0,0,1,0,0)"><path stroke-linecap="round" stroke-linejoin="round" fill-opacity="0" stroke="rgb(186,122,0)" stroke-opacity="1" stroke-width="8" d=" M-32.87900161743164,27.579999923706055 C-35.64799880981445,32.638999938964844 -43.018001556396484,33.59700012207031 -52.691001892089844,30.239999771118164"></path></g><g opacity="1" transform="matrix(1,0,0,1,0,0)"><path stroke-linecap="round" stroke-linejoin="round" fill-opacity="0" stroke="rgb(218,164,35)" stroke-opacity="1" stroke-width="8" d=" M-56.79899978637695,96.18599700927734 C-56.79899978637695,96.18599700927734 -47.685001373291016,99.0739974975586 -37.3489990234375,97.35900115966797"></path></g><g opacity="1" transform="matrix(1,0,0,1,0,0)"><path stroke-linecap="round" stroke-linejoin="round" fill-opacity="0" stroke="rgb(196,133,0)" stroke-opacity="1" stroke-width="8" d=" M-59.39400100708008,74.3479995727539 C-59.39400100708008,74.3479995727539 -24.099000930786133,80.87699890136719 4.677999973297119,65.69000244140625"></path></g><g opacity="1" transform="matrix(1,0,0,1,3.009000062942505,-3.125)"><path stroke-linecap="round" stroke-linejoin="round" fill-opacity="0" stroke="rgb(186,122,0)" stroke-opacity="1" stroke-width="8" d=" M-123.78800201416016,203.26199340820312 C-108.81199645996094,206.73599243164062 -93.20700073242188,208.57200622558594 -77.17400360107422,208.57200622558594 C36.30099868774414,208.57200622558594 128.29100036621094,116.58200073242188 128.29100036621094,3.1070001125335693 C128.29100036621094,-110.36799621582031 36.30099868774414,-202.35899353027344 -77.17400360107422,-202.35899353027344 C-87.75700378417969,-202.35899353027344 -98.15299987792969,-201.5590057373047 -108.30500030517578,-200.01600646972656 C-108.30500030517578,-200.01600646972656 -65.70999908447266,-159.0469970703125 -54.44300079345703,-95.70600128173828 C-48.28300094604492,-61.073001861572266 -68.7300033569336,-21.819000244140625 -85.2249984741211,-4.5 C-98.55599975585938,9.496999740600586 -104.72599792480469,10.994999885559082 -103.26899719238281,19.416000366210938 C-102.3550033569336,24.698999404907227 -91.22899627685547,29.76099967956543 -75.1760025024414,30.118000030517578 C-60.564998626708984,30.44300079345703 -54.775001525878906,33.71200180053711 -54.775001525878906,33.71200180053711 C-54.775001525878906,33.71200180053711 -52.762001037597656,43.970001220703125 -58.3650016784668,51.922000885009766 C-63.96799850463867,59.875 -69.42500305175781,57.92599868774414 -68.86000061035156,64.0979995727539 C-68.0009994506836,73.4729995727539 -62.064998626708984,78.0469970703125 -62.064998626708984,78.0469970703125 C-62.064998626708984,78.0469970703125 -68.31400299072266,84.13300323486328 -68.65699768066406,88.75 C-69.11499786376953,94.91600036621094 -63.50299835205078,96.01799774169922 -61.097999572753906,98.3479995727539 C-58.012001037597656,101.33699798583984 -61.85200119018555,125.5199966430664 -80.99800109863281,155.71200561523438 C-103.01699829101562,190.43499755859375 -123.78800201416016,203.26199340820312 -123.78800201416016,203.26199340820312z"></path></g><g opacity="0" transform="matrix(1,0,0,1,0,0)"><path fill="rgb(255,233,131)" fill-opacity="1" d=" M13.555000305175781,-85.69999694824219 C-4.646999835968018,-89.16999816894531 -15.11400032043457,-67.40899658203125 -13.881999969482422,-54.9010009765625 C-11.628999710083008,-67.76000213623047 -4.881999969482422,-83.97599792480469 12.579000473022461,-80.95700073242188 C41.21200180053711,-76.00700378417969 53.92499923706055,-46.64500045776367 57.047000885009766,-41.68199920654297 C53.540000915527344,-55.87300109863281 45.72800064086914,-79.56600189208984 13.555000305175781,-85.69999694824219z"></path></g></g><g style="display: block;" transform="matrix(1.0800000429153442,0,0,1.0800000429153442,276.99981689453125,263.999755859375)" opacity="1"><g opacity="1" transform="matrix(1,0,0,1,0,0)"><path stroke-linecap="round" stroke-linejoin="round" fill-opacity="0" stroke="rgb(218,164,35)" stroke-opacity="1" stroke-width="8" d=" M-39.31100082397461,-72.62699890136719 C-39.31100082397461,-72.62699890136719 -37.020999908447266,-97.06199645996094 -23.81800079345703,-105.63099670410156 C-9.133999824523926,-115.16100311279297 21.472000122070312,-112.43099975585938 53.12300109863281,-81.24199676513672"></path></g><g opacity="1" transform="matrix(1,0,0,1,0,0)"><path stroke-linecap="round" stroke-linejoin="round" fill-opacity="0" stroke="rgb(143,109,33)" stroke-opacity="1" stroke-width="4" d=" M-17.094999313354492,-67.3479995727539 C-17.094999313354492,-67.3479995727539 -13.04800033569336,-79.58899688720703 1.1640000343322754,-78.04399871826172 C15.677000045776367,-76.46600341796875 36.13800048828125,-64.44499969482422 52.03499984741211,-41.0260009765625"></path></g><g opacity="1" transform="matrix(1,0,0,1,0,0)"><path stroke-linecap="round" stroke-linejoin="round" fill-opacity="0" stroke="rgb(218,164,35)" stroke-opacity="1" stroke-width="8" d=" M-17.094999313354492,-81.46399688720703 C-17.094999313354492,-81.46399688720703 -1.3509999513626099,-105.43000030517578 41.22700119018555,-68.25299835205078"></path></g></g><g style="display: block;" transform="matrix(1.0800000429153442,0,0,1.0800000429153442,276.99981689453125,257.999267578125)" opacity="1"><g opacity="1" transform="matrix(1,0,0,1,0,0)"><path stroke-linecap="round" stroke-linejoin="round" fill-opacity="0" stroke="rgb(255,255,255)" stroke-opacity="1" stroke-width="6" d=" M-11.21399974822998,-172.94500732421875 C-9.661999702453613,-172.2220001220703 -8.057000160217285,-171.44900512695312 -6.408999919891357,-170.625"></path></g><g opacity="1" transform="matrix(1,0,0,1,0,0)"><path stroke-linecap="round" stroke-linejoin="round" fill-opacity="0" stroke="rgb(255,255,255)" stroke-opacity="1" stroke-width="6" d=" M-33.108001708984375,-181.46200561523438 C-33.108001708984375,-181.46200561523438 -28.0049991607666,-180.0229949951172 -20.11400032043457,-176.82200622558594"></path></g></g></g></svg>