<svg xmlns="http://www.w3.org/2000/svg" viewBox="0 0 512 512" width="512" height="512" style="width: 100%; height: 100%; transform: translate3d(0,0,0);" preserveAspectRatio="xMidYMid meet"><defs><clipPath id="__lottie_element_24327"><rect width="512" height="512" x="0" y="0"></rect></clipPath><linearGradient id="__lottie_element_24347" spreadMethod="pad" gradientUnits="userSpaceOnUse" x1="-0.012000000104308128" y1="-179.2169952392578" x2="-0.5" y2="-76"><stop offset="0%" stop-color="rgb(0,208,255)" stop-opacity="1"></stop><stop offset="50%" stop-color="rgb(0,208,255)" stop-opacity="0.5"></stop><stop offset="100%" stop-color="rgb(0,208,255)" stop-opacity="0"></stop></linearGradient><linearGradient id="__lottie_element_24348" spreadMethod="pad" gradientUnits="userSpaceOnUse" x1="0.32199999690055847" y1="-108.4729995727539" x2="0.32199999690055847" y2="-201.25900268554688"><stop offset="0%" stop-color="rgb(170,255,255)"></stop><stop offset="24%" stop-color="rgb(115,205,255)"></stop><stop offset="48%" stop-color="rgb(60,154,255)"></stop><stop offset="74%" stop-color="rgb(42,106,243)"></stop><stop offset="100%" stop-color="rgb(24,57,231)"></stop></linearGradient><linearGradient id="__lottie_element_24349" spreadMethod="pad" gradientUnits="userSpaceOnUse" x1="-0.6779999732971191" y1="-193.47300720214844" x2="-0.6779999732971191" y2="-131.76800537109375"><stop offset="0%" stop-color="rgb(0,74,255)"></stop><stop offset="50%" stop-color="rgb(16,107,255)"></stop><stop offset="100%" stop-color="rgb(32,140,255)"></stop></linearGradient><linearGradient id="__lottie_element_24350" spreadMethod="pad" gradientUnits="userSpaceOnUse" x1="-0.6779999732971191" y1="-108.4729995727539" x2="-0.6779999732971191" y2="-209.4029998779297"><stop offset="0%" stop-color="rgb(0,74,255)"></stop><stop offset="50%" stop-color="rgb(5,50,206)"></stop><stop offset="100%" stop-color="rgb(10,27,157)"></stop></linearGradient><linearGradient id="__lottie_element_24363" spreadMethod="pad" gradientUnits="userSpaceOnUse" x1="-0.6779999732971191" y1="-108.4729995727539" x2="-0.6779999732971191" y2="-201.25900268554688"><stop offset="0%" stop-color="rgb(170,255,255)"></stop><stop offset="24%" stop-color="rgb(115,205,255)"></stop><stop offset="48%" stop-color="rgb(60,154,255)"></stop><stop offset="74%" stop-color="rgb(42,106,243)"></stop><stop offset="100%" stop-color="rgb(24,57,231)"></stop></linearGradient><linearGradient id="__lottie_element_24364" spreadMethod="pad" gradientUnits="userSpaceOnUse" x1="-0.6779999732971191" y1="-193.47300720214844" x2="-0.6779999732971191" y2="-131.76800537109375"><stop offset="0%" stop-color="rgb(0,74,255)"></stop><stop offset="50%" stop-color="rgb(16,107,255)"></stop><stop offset="100%" stop-color="rgb(32,140,255)"></stop></linearGradient><linearGradient id="__lottie_element_24365" spreadMethod="pad" gradientUnits="userSpaceOnUse" x1="-0.6779999732971191" y1="-108.4729995727539" x2="-0.6779999732971191" y2="-209.4029998779297"><stop offset="0%" stop-color="rgb(0,74,255)"></stop><stop offset="50%" stop-color="rgb(5,50,206)"></stop><stop offset="100%" stop-color="rgb(10,27,157)"></stop></linearGradient><radialGradient id="__lottie_element_24369" spreadMethod="pad" gradientUnits="userSpaceOnUse"><stop></stop><stop></stop><stop></stop></radialGradient><mask id="__lottie_element_24371"><path fill="url(#__lottie_element_24370)"></path></mask><radialGradient id="__lottie_element_24370" spreadMethod="pad" gradientUnits="userSpaceOnUse"><stop stop-color="rgb(255,255,255)"></stop><stop stop-color="rgb(255,255,255)"></stop><stop stop-color="rgb(255,255,255)"></stop></radialGradient><linearGradient id="__lottie_element_24375" spreadMethod="pad" gradientUnits="userSpaceOnUse"><stop></stop><stop></stop><stop></stop></linearGradient><mask id="__lottie_element_24377"><path fill="url(#__lottie_element_24376)"></path></mask><linearGradient id="__lottie_element_24376" spreadMethod="pad" gradientUnits="userSpaceOnUse"><stop stop-color="rgb(255,255,255)"></stop><stop stop-color="rgb(255,255,255)"></stop><stop stop-color="rgb(255,255,255)"></stop></linearGradient><linearGradient id="__lottie_element_24378" spreadMethod="pad" gradientUnits="userSpaceOnUse"><stop></stop><stop></stop><stop></stop></linearGradient><mask id="__lottie_element_24380"><path fill="url(#__lottie_element_24379)"></path></mask><linearGradient id="__lottie_element_24379" spreadMethod="pad" gradientUnits="userSpaceOnUse"><stop stop-color="rgb(255,255,255)"></stop><stop stop-color="rgb(255,255,255)"></stop><stop stop-color="rgb(255,255,255)"></stop></linearGradient><linearGradient id="__lottie_element_24381" spreadMethod="pad" gradientUnits="userSpaceOnUse"><stop></stop><stop></stop><stop></stop></linearGradient><mask id="__lottie_element_24383"><path fill="url(#__lottie_element_24382)"></path></mask><linearGradient id="__lottie_element_24382" spreadMethod="pad" gradientUnits="userSpaceOnUse"><stop stop-color="rgb(255,255,255)"></stop><stop stop-color="rgb(255,255,255)"></stop><stop stop-color="rgb(255,255,255)"></stop></linearGradient><linearGradient id="__lottie_element_24384" spreadMethod="pad" gradientUnits="userSpaceOnUse"><stop></stop><stop></stop><stop></stop></linearGradient><mask id="__lottie_element_24386"><path fill="url(#__lottie_element_24385)"></path></mask><linearGradient id="__lottie_element_24385" spreadMethod="pad" gradientUnits="userSpaceOnUse"><stop stop-color="rgb(255,255,255)"></stop><stop stop-color="rgb(255,255,255)"></stop><stop stop-color="rgb(255,255,255)"></stop></linearGradient><linearGradient id="__lottie_element_24387" spreadMethod="pad" gradientUnits="userSpaceOnUse"><stop></stop><stop></stop><stop></stop></linearGradient><mask id="__lottie_element_24389"><path fill="url(#__lottie_element_24388)"></path></mask><linearGradient id="__lottie_element_24388" spreadMethod="pad" gradientUnits="userSpaceOnUse"><stop stop-color="rgb(255,255,255)"></stop><stop stop-color="rgb(255,255,255)"></stop><stop stop-color="rgb(255,255,255)"></stop></linearGradient><linearGradient id="__lottie_element_24390" spreadMethod="pad" gradientUnits="userSpaceOnUse"><stop></stop><stop></stop><stop></stop></linearGradient><mask id="__lottie_element_24392"><path fill="url(#__lottie_element_24391)"></path></mask><linearGradient id="__lottie_element_24391" spreadMethod="pad" gradientUnits="userSpaceOnUse"><stop stop-color="rgb(255,255,255)"></stop><stop stop-color="rgb(255,255,255)"></stop><stop stop-color="rgb(255,255,255)"></stop></linearGradient><linearGradient id="__lottie_element_24393" spreadMethod="pad" gradientUnits="userSpaceOnUse"><stop></stop><stop></stop><stop></stop></linearGradient><mask id="__lottie_element_24395"><path fill="url(#__lottie_element_24394)"></path></mask><linearGradient id="__lottie_element_24394" spreadMethod="pad" gradientUnits="userSpaceOnUse"><stop stop-color="rgb(255,255,255)"></stop><stop stop-color="rgb(255,255,255)"></stop><stop stop-color="rgb(255,255,255)"></stop></linearGradient><linearGradient id="__lottie_element_24396" spreadMethod="pad" gradientUnits="userSpaceOnUse"><stop></stop><stop></stop><stop></stop></linearGradient><mask id="__lottie_element_24398"><path fill="url(#__lottie_element_24397)"></path></mask><linearGradient id="__lottie_element_24397" spreadMethod="pad" gradientUnits="userSpaceOnUse"><stop stop-color="rgb(255,255,255)"></stop><stop stop-color="rgb(255,255,255)"></stop><stop stop-color="rgb(255,255,255)"></stop></linearGradient></defs><g clip-path="url(#__lottie_element_24327)"><g style="display: none;"><g><path fill="url(#__lottie_element_24375)" mask="url(#__lottie_element_24377)"></path></g><g><path fill="url(#__lottie_element_24378)" mask="url(#__lottie_element_24380)"></path></g><g><path fill="url(#__lottie_element_24381)" mask="url(#__lottie_element_24383)"></path></g><g><path fill="url(#__lottie_element_24384)" mask="url(#__lottie_element_24386)"></path></g><g><path fill="url(#__lottie_element_24387)" mask="url(#__lottie_element_24389)"></path></g><g><path fill="url(#__lottie_element_24390)" mask="url(#__lottie_element_24392)"></path></g><g><path fill="url(#__lottie_element_24393)" mask="url(#__lottie_element_24395)"></path></g><g><path fill="url(#__lottie_element_24396)" mask="url(#__lottie_element_24398)"></path></g></g><g style="display: none;"><g><path fill="url(#__lottie_element_24369)" mask="url(#__lottie_element_24371)"></path></g></g><g style="display: block;" transform="matrix(1,0,0,1,256,256.25)" opacity="1"><g opacity="1" transform="matrix(1,0,0,1,0,0)"><path fill="url(#__lottie_element_24363)" fill-opacity="1" d=" M-0.004999999888241291,-203.99400329589844 C-78.71499633789062,-203.99400329589844 -159.68499755859375,-190.51400756835938 -184.375,-167.2239990234375 C-184.375,-167.2239990234375 -138.39500427246094,-167.2239990234375 -138.39500427246094,-167.2239990234375 C-69.6780014038086,-207.99400329589844 98.447998046875,-190.49099731445312 138.22500610351562,-167.2239990234375 C138.22500610351562,-167.2239990234375 184.375,-167.2239990234375 184.375,-167.2239990234375 C159.68499755859375,-190.51400756835938 78.70500183105469,-203.99400329589844 -0.004999999888241291,-203.99400329589844z"></path></g><g opacity="0.4" transform="matrix(1,0,0,1,0,0)"><path fill="rgb(68,255,246)" fill-opacity="1" d=" M143.78500366210938,-167.2239990234375 C143.78500366210938,-167.2239990234375 138.22500610351562,-167.2239990234375 138.22500610351562,-167.2239990234375 C75.8219985961914,-206.72300720214844 -86.53399658203125,-194.5189971923828 -138.39500427246094,-167.2239990234375 C-138.39500427246094,-167.2239990234375 -143.78500366210938,-167.2239990234375 -143.78500366210938,-167.2239990234375 C-143.78500366210938,-167.2239990234375 -128.3350067138672,-199.7239990234375 -0.004999999888241291,-199.7239990234375 C129.9149932861328,-199.7239990234375 143.78500366210938,-167.2239990234375 143.78500366210938,-167.2239990234375z"></path></g><g opacity="1" transform="matrix(1,0,0,1,0,0)"><path fill="url(#__lottie_element_24364)" fill-opacity="1" d=" M-0.004999999888241291,-195.51400756835938 C-71.8949966430664,-195.51400756835938 -131.64500427246094,-183.3040008544922 -143.78500366210938,-167.2239990234375 C-143.78500366210938,-167.2239990234375 -131.2550048828125,-167.2239990234375 -131.2550048828125,-167.2239990234375 C-125.90499877929688,-170.29400634765625 -116.71499633789062,-174.08399963378906 -101.43499755859375,-177.6739959716797 C-74.43499755859375,-184.01400756835938 -38.415000915527344,-187.51400756835938 -0.004999999888241291,-187.51400756835938 C38.404998779296875,-187.51400756835938 74.43499755859375,-184.01400756835938 101.43499755859375,-177.6739959716797 C116.71499633789062,-174.08399963378906 125.92500305175781,-170.28399658203125 131.26499938964844,-167.2239990234375 C131.26499938964844,-167.2239990234375 143.78500366210938,-167.2239990234375 143.78500366210938,-167.2239990234375 C131.64500427246094,-183.3040008544922 71.8949966430664,-195.51400756835938 -0.004999999888241291,-195.51400756835938z"></path></g><g opacity="1" transform="matrix(1,0,0,1,0,0)"><path fill="url(#__lottie_element_24365)" fill-opacity="1" d=" M134.69500732421875,-193.57400512695312 C98.28500366210938,-202.87399291992188 50.44499969482422,-207.99400329589844 -0.004999999888241291,-207.99400329589844 C-50.45500183105469,-207.99400329589844 -98.28500366210938,-202.87399291992188 -134.69500732421875,-193.57400512695312 C-162.69500732421875,-186.4239959716797 -181.18499755859375,-177.593994140625 -189.98500061035156,-167.2239990234375 C-189.98500061035156,-167.2239990234375 -178.2050018310547,-167.2239990234375 -178.2050018310547,-167.2239990234375 C-153.11500549316406,-186.04400634765625 -82.48500061035156,-199.99400329589844 -0.004999999888241291,-199.99400329589844 C82.48500061035156,-199.99400329589844 153.11500549316406,-186.04400634765625 178.2050018310547,-167.2239990234375 C178.2050018310547,-167.2239990234375 189.98500061035156,-167.2239990234375 189.98500061035156,-167.2239990234375 C181.18499755859375,-177.593994140625 162.69500732421875,-186.4239959716797 134.69500732421875,-193.57400512695312z"></path></g></g><g style="display: block;" transform="matrix(1,0,0,1,256,256)" opacity="1"><g opacity="0.1" transform="matrix(1,0,0,1,0,0)"><path fill="rgb(0,0,0)" fill-opacity="1" d=" M195.92300415039062,11.968999862670898 C195.92300415039062,120.2300033569336 108.15899658203125,207.99400329589844 -0.10199999809265137,207.99400329589844 C-108.36299896240234,207.99400329589844 -196.12600708007812,120.2300033569336 -196.12600708007812,11.968999862670898 C-196.12600708007812,-96.29199981689453 -108.36299896240234,-184.05499267578125 -0.10199999809265137,-184.05499267578125 C108.15899658203125,-184.05499267578125 195.92300415039062,-96.29199981689453 195.92300415039062,11.968999862670898z"></path></g><g opacity="1" transform="matrix(1,0,0,1,0,0)"><path fill="rgb(255,173,0)" fill-opacity="1" d=" M188.7740020751953,-3.0309998989105225 C188.7740020751953,101.28199768066406 104.21099853515625,185.84500122070312 -0.10199999809265137,185.84500122070312 C-104.41500091552734,185.84500122070312 -188.9770050048828,101.28199768066406 -188.9770050048828,-3.0309998989105225 C-188.9770050048828,-107.34400177001953 -104.41500091552734,-191.906005859375 -0.10199999809265137,-191.906005859375 C104.21099853515625,-191.906005859375 188.7740020751953,-107.34400177001953 188.7740020751953,-3.0309998989105225z"></path><path stroke-linecap="butt" stroke-linejoin="miter" fill-opacity="0" stroke-miterlimit="10" stroke="rgb(255,118,42)" stroke-opacity="1" stroke-width="8" d=" M188.7740020751953,-3.0309998989105225 C188.7740020751953,101.28199768066406 104.21099853515625,185.84500122070312 -0.10199999809265137,185.84500122070312 C-104.41500091552734,185.84500122070312 -188.9770050048828,101.28199768066406 -188.9770050048828,-3.0309998989105225 C-188.9770050048828,-107.34400177001953 -104.41500091552734,-191.906005859375 -0.10199999809265137,-191.906005859375 C104.21099853515625,-191.906005859375 188.7740020751953,-107.34400177001953 188.7740020751953,-3.0309998989105225z"></path></g><g opacity="1" transform="matrix(1,0,0,1,0,0)"><path fill="rgb(255,207,0)" fill-opacity="1" d=" M168.30499267578125,-2.318000078201294 C166.84800720214844,92.71099853515625 90.29499816894531,168.59100341796875 -2.683000087738037,167.16600036621094 C-95.66100311279297,165.74099731445312 -169.85400390625,87.55000305175781 -168.3979949951172,-7.479000091552734 C-166.9409942626953,-102.50800323486328 -90.38700103759766,-178.38800048828125 2.5910000801086426,-176.96299743652344 C95.56900024414062,-175.53799438476562 169.76199340820312,-97.34700012207031 168.30499267578125,-2.318000078201294z"></path></g><g opacity="0.9" transform="matrix(1,0,0,1,0,0)"><path fill="rgb(255,222,102)" fill-opacity="1" d=" M149.16600036621094,-45.45899963378906 C149.16600036621094,27.18400001525879 82.33599853515625,-30.2810001373291 -0.10199999809265137,-30.2810001373291 C-82.54000091552734,-30.2810001373291 -149.36900329589844,27.18400001525879 -149.36900329589844,-45.45899963378906 C-149.36900329589844,-118.10199737548828 -82.54000091552734,-176.99200439453125 -0.10199999809265137,-176.99200439453125 C82.33599853515625,-176.99200439453125 149.16600036621094,-118.10199737548828 149.16600036621094,-45.45899963378906z"></path></g><g opacity="1" transform="matrix(1,0,0,1,0,0)"><g opacity="1" transform="matrix(1,0,0,1,0,0)"><path stroke-linecap="round" stroke-linejoin="round" fill-opacity="0" stroke="rgb(255,255,255)" stroke-opacity="1" stroke-width="6" d=" M36.270999908447266,-172.77200317382812 C37.808998107910156,-172.43699645996094 39.40299987792969,-172.0679931640625 41.04800033569336,-171.66200256347656"></path></g><g opacity="1" transform="matrix(1,0,0,1,0,0)"><path stroke-linecap="round" stroke-linejoin="round" fill-opacity="0" stroke="rgb(255,255,255)" stroke-opacity="1" stroke-width="6" d=" M14.916000366210938,-175.99200439453125 C14.916000366210938,-175.99200439453125 19.783000946044922,-175.7310028076172 27.506000518798828,-174.4530029296875"></path></g></g></g><g style="display: block;" transform="matrix(1,0,0,1,256.0010070800781,256)" opacity="1"><g opacity="1" transform="matrix(1,0,0,1,0,0)"><g opacity="0.6" transform="matrix(1,0,0,1,0,0)"><path fill="rgb(255,173,0)" fill-opacity="1" d=" M-26.38800048828125,-50.63999938964844 C-34.85499954223633,-71.2959976196289 -51.70199966430664,-71.46900177001953 -54.61600112915039,-71.46900177001953 C-57.35900115966797,-71.46900177001953 -74.37799835205078,-71.2959976196289 -82.84500122070312,-50.63999938964844 C-93.24500274658203,-25.26799964904785 -80.6729965209961,2.247999906539917 -76.6729965209961,-9.496999740600586 C-68.61599731445312,-33.15399932861328 -57.058998107910156,-32.89799880981445 -54.61600112915039,-32.89799880981445 C-52.040000915527344,-32.89799880981445 -40.61600112915039,-33.15399932861328 -32.558998107910156,-9.496999740600586 C-28.55900001525879,2.247999906539917 -15.98799991607666,-25.26799964904785 -26.38800048828125,-50.63999938964844z"></path></g><g opacity="1" transform="matrix(1,0,0,1,0,0)"><path fill="rgb(255,225,156)" fill-opacity="1" d=" M-26.38800048828125,-39.63999938964844 C-34.85499954223633,-60.29600143432617 -74.37799835205078,-60.29600143432617 -82.84500122070312,-39.63999938964844 C-93.24500274658203,-14.267999649047852 -80.6729965209961,13.248000144958496 -76.6729965209961,1.503000020980835 C-68.61599731445312,-22.15399932861328 -57.058998107910156,-21.898000717163086 -54.61600112915039,-21.898000717163086 C-52.040000915527344,-21.898000717163086 -40.61600112915039,-22.15399932861328 -32.558998107910156,1.503000020980835 C-28.55900001525879,13.248000144958496 -15.98799991607666,-14.267999649047852 -26.38800048828125,-39.63999938964844z"></path></g><g opacity="1" transform="matrix(1,0,0,1,0,0)"><path fill="rgb(143,58,0)" fill-opacity="1" d=" M-27.38800048828125,-44.63999938964844 C-35.85499954223633,-65.2959976196289 -51.70199966430664,-65.46900177001953 -54.61600112915039,-65.46900177001953 C-57.35900115966797,-65.46900177001953 -73.37799835205078,-65.2959976196289 -81.84500122070312,-44.63999938964844 C-92.24500274658203,-19.26799964904785 -82.6729965209961,8.248000144958496 -78.6729965209961,-3.496999979019165 C-70.61599731445312,-27.15399932861328 -57.058998107910156,-26.898000717163086 -54.61600112915039,-26.898000717163086 C-52.040000915527344,-26.898000717163086 -38.61600112915039,-27.15399932861328 -30.55900001525879,-3.496999979019165 C-26.55900001525879,8.248000144958496 -16.988000869750977,-19.26799964904785 -27.38800048828125,-44.63999938964844z"></path></g><g opacity="1" transform="matrix(1,0,0,1,0,0)"><path fill="rgb(107,32,0)" fill-opacity="1" d=" M-24.249000549316406,-7.183000087738037 C-23.409000396728516,-15.413000106811523 -24.16900062561035,-25.44300079345703 -28.448999404907227,-36.08300018310547 C-36.5890007019043,-56.33300018310547 -51.819000244140625,-56.49300003051758 -54.61899948120117,-56.49300003051758 C-57.249000549316406,-56.49300003051758 -72.63899993896484,-56.33300018310547 -80.77899932861328,-36.08300018310547 C-85.04900360107422,-25.44300079345703 -85.81900024414062,-15.42300033569336 -84.98899841308594,-7.192999839782715 C-87.22899627685547,-15.45300006866455 -87.68900299072266,-30.39299964904785 -81.8489990234375,-44.643001556396484 C-73.37899780273438,-65.29299926757812 -57.35900115966797,-65.4729995727539 -54.61899948120117,-65.4729995727539 C-51.69900131225586,-65.4729995727539 -35.85900115966797,-65.29299926757812 -27.388999938964844,-44.643001556396484 C-21.538999557495117,-30.382999420166016 -22.009000778198242,-15.442999839782715 -24.249000549316406,-7.183000087738037z"></path></g></g><g opacity="1" transform="matrix(1,0,0,1,0,0)"><g opacity="0.6" transform="matrix(1,0,0,1,0,0)"><path fill="rgb(255,173,0)" fill-opacity="1" d=" M26.18400001525879,-50.63999938964844 C34.6510009765625,-71.2959976196289 51.499000549316406,-71.46900177001953 54.41299819946289,-71.46900177001953 C57.15599822998047,-71.46900177001953 74.17400360107422,-71.2959976196289 82.64099884033203,-50.63999938964844 C93.04100036621094,-25.26799964904785 80.47000122070312,2.247999906539917 76.47000122070312,-9.496999740600586 C68.41300201416016,-33.15399932861328 56.85599899291992,-32.89799880981445 54.41299819946289,-32.89799880981445 C51.83700180053711,-32.89799880981445 40.4119987487793,-33.15399932861328 32.35499954223633,-9.496999740600586 C28.354999542236328,2.247999906539917 15.784000396728516,-25.26799964904785 26.18400001525879,-50.63999938964844z"></path></g><g opacity="1" transform="matrix(1,0,0,1,0,0)"><path fill="rgb(255,225,156)" fill-opacity="1" d=" M26.18400001525879,-39.63999938964844 C34.6510009765625,-60.29600143432617 74.17400360107422,-60.29600143432617 82.64099884033203,-39.63999938964844 C93.04100036621094,-14.267999649047852 80.47000122070312,13.248000144958496 76.47000122070312,1.503000020980835 C68.41300201416016,-22.15399932861328 56.85599899291992,-21.898000717163086 54.41299819946289,-21.898000717163086 C51.83700180053711,-21.898000717163086 40.4119987487793,-22.15399932861328 32.35499954223633,1.503000020980835 C28.354999542236328,13.248000144958496 15.784000396728516,-14.267999649047852 26.18400001525879,-39.63999938964844z"></path></g><g opacity="1" transform="matrix(1,0,0,1,0,0)"><path fill="rgb(143,58,0)" fill-opacity="1" d=" M27.18400001525879,-44.63999938964844 C35.6510009765625,-65.2959976196289 51.499000549316406,-65.46900177001953 54.41299819946289,-65.46900177001953 C57.15599822998047,-65.46900177001953 73.17400360107422,-65.2959976196289 81.64099884033203,-44.63999938964844 C92.04100036621094,-19.26799964904785 82.47000122070312,8.248000144958496 78.47000122070312,-3.496999979019165 C70.41300201416016,-27.15399932861328 56.85599899291992,-26.898000717163086 54.41299819946289,-26.898000717163086 C51.83700180053711,-26.898000717163086 38.4119987487793,-27.15399932861328 30.354999542236328,-3.496999979019165 C26.354999542236328,8.248000144958496 16.784000396728516,-19.26799964904785 27.18400001525879,-44.63999938964844z"></path></g><g opacity="1" transform="matrix(1,0,0,1,0,0)"><path fill="rgb(107,32,0)" fill-opacity="1" d=" M24.045000076293945,-7.183000087738037 C23.204999923706055,-15.413000106811523 23.96500015258789,-25.44300079345703 28.2450008392334,-36.08300018310547 C36.3849983215332,-56.33300018310547 51.6150016784668,-56.49300003051758 54.415000915527344,-56.49300003051758 C57.04499816894531,-56.49300003051758 72.43499755859375,-56.33300018310547 80.57499694824219,-36.08300018310547 C84.84500122070312,-25.44300079345703 85.61499786376953,-15.42300033569336 84.78500366210938,-7.192999839782715 C87.0250015258789,-15.45300006866455 87.48500061035156,-30.39299964904785 81.6449966430664,-44.643001556396484 C73.17500305175781,-65.29299926757812 57.154998779296875,-65.4729995727539 54.415000915527344,-65.4729995727539 C51.494998931884766,-65.4729995727539 35.654998779296875,-65.29299926757812 27.184999465942383,-44.643001556396484 C21.334999084472656,-30.382999420166016 21.80500030517578,-15.442999839782715 24.045000076293945,-7.183000087738037z"></path></g></g></g><g style="display: block;" transform="matrix(1,0,0,1,256,256)" opacity="1"><g opacity="0.6" transform="matrix(1,0,0,1,0,0)"><path fill="rgb(255,173,0)" fill-opacity="1" d=" M89.24700164794922,48.731998443603516 C61.28099822998047,67.24199676513672 39.0620002746582,76.81199645996094 -0.12099999934434891,76.97200012207031 C-39.30400085449219,76.81199645996094 -61.52199935913086,67.24199676513672 -89.48799896240234,48.731998443603516 C-91.26200103759766,47.551998138427734 -97.18299865722656,49.25199890136719 -95.25900268554688,55.4370002746582 C-91.88800048828125,66.2699966430664 -59.590999603271484,100.5719985961914 -0.12099999934434891,100.94200134277344 C59.3489990234375,100.5719985961914 92.13099670410156,66.0270004272461 95.0469970703125,55.0629997253418 C96.66400146484375,48.981998443603516 91.02100372314453,47.551998138427734 89.24700164794922,48.731998443603516z"></path></g><g opacity="1" transform="matrix(1,0,0,1,0,0)"><path fill="rgb(255,225,156)" fill-opacity="1" d=" M89.60600280761719,52.92499923706055 C61.483001708984375,74.49600219726562 39.979000091552734,85.03700256347656 -0.12099999934434891,85.21800231933594 C-40.22100067138672,85.03700256347656 -62.08399963378906,74.43699645996094 -90.15599822998047,52.79899978637695 C-93.13700103759766,50.500999450683594 -95.96700286865234,53.066001892089844 -95.16000366210938,55.9010009765625 C-91.66999816894531,68.12200164794922 -60.981998443603516,110.61499786376953 -0.12099999934434891,111.03299713134766 C60.7400016784668,110.61499786376953 91.4280014038086,68.12200164794922 94.91799926757812,55.9010009765625 C95.7249984741211,53.066001892089844 92.8949966430664,50.402000427246094 89.60600280761719,52.92499923706055z"></path></g><g opacity="1" transform="matrix(1,0,0,1,0,0)"><path fill="rgb(143,58,0)" fill-opacity="1" d=" M89.24700164794922,53.12799835205078 C61.28099822998047,71.63800048828125 39.0620002746582,82.20800018310547 -0.12099999934434891,82.36799621582031 C-39.30400085449219,82.20800018310547 -61.52199935913086,71.63800048828125 -89.48799896240234,53.12799835205078 C-91.26200103759766,51.948001861572266 -93.7770004272461,53.018001556396484 -92.98799896240234,55.52799987792969 C-89.5770034790039,66.3479995727539 -59.590999603271484,103.96800231933594 -0.12099999934434891,104.33799743652344 C59.3489990234375,103.96800231933594 89.33499908447266,66.3479995727539 92.74600219726562,55.52799987792969 C93.53500366210938,53.018001556396484 91.02100372314453,51.948001861572266 89.24700164794922,53.12799835205078z"></path></g><g opacity="1" transform="matrix(1,0,0,1,0,0)"><path fill="rgb(107,32,0)" fill-opacity="1" d=" M91.83200073242188,57.76499938964844 C91.09200286865234,57.404998779296875 90.08200073242188,58.45500183105469 89.24199676513672,59.01499938964844 C61.28200149536133,77.5250015258789 39.0620002746582,89.09500122070312 -0.11800000071525574,89.25499725341797 C-39.30799865722656,89.09500122070312 -61.518001556396484,77.5250015258789 -89.48799896240234,59.01499938964844 C-90.3280029296875,58.45500183105469 -91.33799743652344,57.404998779296875 -92.0780029296875,57.775001525878906 C-94.9280014038086,52.64899826049805 -91.25800323486328,51.94499969482422 -89.48799896240234,53.125 C-61.518001556396484,71.63500213623047 -39.30799865722656,82.20500183105469 -0.11800000071525574,82.36499786376953 C39.0620002746582,82.20500183105469 61.28200149536133,71.63500213623047 89.24199676513672,53.125 C91.02200317382812,51.94499969482422 94.78099822998047,52.64500045776367 91.83200073242188,57.76499938964844z"></path></g></g><g style="display: none;"><g><path></path></g></g><g style="display: block;" transform="matrix(1,0,0,1,256,256)" opacity="1"><g opacity="0.7000000000000001" transform="matrix(1,0,0,1,0,0)"><path fill="url(#__lottie_element_24347)" fill-opacity="1" d=" M129.572998046875,-95.75199890136719 C92.88400268554688,-83.57099914550781 51.91600036621094,-77.2229995727539 0.4950000047683716,-77.2229995727539 C-50.91600036621094,-77.2229995727539 -92.0199966430664,-81.8280029296875 -128.072998046875,-95.75199890136719 C-180.5,-116 -182.76300048828125,-148.75599670410156 -177.7469940185547,-155.0989990234375 C-177.7469940185547,-155.0989990234375 -140.02000427246094,-139.5989990234375 -140.02000427246094,-139.5989990234375 C-62,-126.5 152.5,-120.5 141.3459930419922,-166.5989990234375 C141.3459930419922,-166.5989990234375 171.8719940185547,-156.0989990234375 171.8719940185547,-156.0989990234375 C176.88800048828125,-149.75599670410156 175.5,-111 129.572998046875,-95.75199890136719z"></path></g><g opacity="1" transform="matrix(1,0,0,1,0,0)"><path fill="url(#__lottie_element_24348)" fill-opacity="1" d=" M-0.004999999888241291,-101.30400085449219 C-50.32500076293945,-101.30400085449219 -227.42799377441406,-113.2229995727539 -184.375,-167.2239990234375 C-184.375,-167.2239990234375 -166.6280059814453,-167.2239990234375 -166.6280059814453,-167.2239990234375 C-166.6280059814453,-167.2239990234375 -138.39500427246094,-167.2239990234375 -138.39500427246094,-167.2239990234375 C-154.67799377441406,-148.13999938964844 -91.45500183105469,-131.81399536132812 -0.004999999888241291,-131.81399536132812 C91.45500183105469,-131.81399536132812 155.73899841308594,-150.05599975585938 138.22500610351562,-167.2239990234375 C138.22500610351562,-167.2239990234375 171.71099853515625,-167.2239990234375 171.71099853515625,-167.2239990234375 C171.71099853515625,-167.2239990234375 184.375,-167.2239990234375 184.375,-167.2239990234375 C230.32200622558594,-112.7229995727539 50.32500076293945,-101.30400085449219 -0.004999999888241291,-101.30400085449219z"></path></g><g opacity="0.5" transform="matrix(1,0,0,1,0,0)"><path fill="rgb(193,255,255)" fill-opacity="1" d=" M187.8249969482422,-150.4239959716797 C184.02499389648438,-125.34400177001953 100.88500213623047,-101.30400085449219 -0.004999999888241291,-101.30400085449219 C-100.90499877929688,-101.30400085449219 -184.0749969482422,-125.35399627685547 -187.8249969482422,-150.44400024414062 C-156.42799377441406,-119.2229995727539 -50.32500076293945,-111.74400329589844 -0.004999999888241291,-111.74400329589844 C50.32500076293945,-111.74400329589844 160.01800537109375,-119.0270004272461 187.8249969482422,-150.4239959716797z"></path></g><g opacity="1" transform="matrix(1,0,0,1,0,0)"><path fill="url(#__lottie_element_24349)" fill-opacity="1" d=" M146.03500366210938,-161.1840057373047 C146.03500366210938,-142.23399353027344 80.65499877929688,-127.81400299072266 -0.004999999888241291,-127.81400299072266 C-80.65499877929688,-127.81400299072266 -146.03500366210938,-142.23399353027344 -146.03500366210938,-161.1840057373047 C-146.03500366210938,-161.20599365234375 -146.03500366210938,-161.2270050048828 -146.03500366210938,-161.24899291992188 C-146.0189971923828,-163.28599548339844 -145.24899291992188,-165.28500366210938 -143.78500366210938,-167.2239990234375 C-143.78500366210938,-167.2239990234375 -131.2550048828125,-167.2239990234375 -131.2550048828125,-167.2239990234375 C-136.4550018310547,-164.25399780273438 -138.03500366210938,-161.95399475097656 -138.03500366210938,-161.1840057373047 C-138.03500366210938,-159.6540069580078 -131.53500366210938,-151.98399353027344 -101.49500274658203,-145.19400024414062 C-74.73500061035156,-139.1439971923828 -38.69499969482422,-135.81399536132812 -0.004999999888241291,-135.81399536132812 C38.685001373291016,-135.81399536132812 74.73500061035156,-139.1439971923828 101.49500274658203,-145.19400024414062 C131.53500366210938,-151.98399353027344 138.03500366210938,-159.6540069580078 138.03500366210938,-161.1840057373047 C138.03500366210938,-161.95399475097656 136.4550018310547,-164.25399780273438 131.26499938964844,-167.2239990234375 C131.26499938964844,-167.2239990234375 143.78500366210938,-167.2239990234375 143.78500366210938,-167.2239990234375 C145.26499938964844,-165.26400756835938 146.03500366210938,-163.24400329589844 146.03500366210938,-161.1840057373047z"></path></g><g opacity="1" transform="matrix(1,0,0,1,0,0)"><path fill="url(#__lottie_element_24350)" fill-opacity="1" d=" M195.96499633789062,-152.21400451660156 C195.96499633789062,-135.1840057373047 175.3350067138672,-121.41400146484375 134.64500427246094,-111.27400207519531 C98.45500183105469,-102.26399993896484 50.6349983215332,-97.30400085449219 -0.004999999888241291,-97.30400085449219 C-50.64500045776367,-97.30400085449219 -98.45500183105469,-102.26399993896484 -134.64500427246094,-111.27400207519531 C-175.3350067138672,-121.41400146484375 -195.96499633789062,-135.1840057373047 -195.96499633789062,-152.21400451660156 C-195.96499633789062,-157.5240020751953 -193.96499633789062,-162.53399658203125 -189.98500061035156,-167.2239990234375 C-189.98500061035156,-167.2239990234375 -178.2050018310547,-167.2239990234375 -178.2050018310547,-167.2239990234375 C-184.53500366210938,-162.48399353027344 -187.96499633789062,-157.4239959716797 -187.96499633789062,-152.21400451660156 C-187.96499633789062,-126.30400085449219 -103.2750015258789,-105.30400085449219 -0.004999999888241291,-105.30400085449219 C103.2750015258789,-105.30400085449219 187.96499633789062,-126.30400085449219 187.96499633789062,-152.21400451660156 C187.96499633789062,-157.4239959716797 184.53500366210938,-162.48399353027344 178.2050018310547,-167.2239990234375 C178.2050018310547,-167.2239990234375 189.98500061035156,-167.2239990234375 189.98500061035156,-167.2239990234375 C193.96499633789062,-162.53399658203125 195.96499633789062,-157.5240020751953 195.96499633789062,-152.21400451660156z"></path></g></g><g style="display: none;"><g><path></path></g></g><g style="display: none;"><g><path></path></g></g><g style="display: none;"><g><path></path></g></g><g style="display: none;"><g><path></path></g></g></g></svg>