<svg xmlns="http://www.w3.org/2000/svg" viewBox="0 0 512 512" width="512" height="512" style="width: 100%; height: 100%; transform: translate3d(0,0,0);" preserveAspectRatio="xMidYMid meet"><defs><clipPath id="__lottie_element_24400"><rect width="512" height="512" x="0" y="0"></rect></clipPath></defs><g clip-path="url(#__lottie_element_24400)"><g style="display: block;" transform="matrix(1,0,0,1,0,0)" opacity="1"><g opacity="1" transform="matrix(0.9200000166893005,0,0,0.9200000166893005,53.834503173828125,44.133514404296875)"><g opacity="1" transform="matrix(1,0,0,1,0,0)"><g opacity="0.1" transform="matrix(1.0210000276565552,0,0,1,219.74400329589844,245.83099365234375)"><path fill="rgb(0,0,0)" fill-opacity="1" d=" M219.49400329589844,-0.0010000000474974513 C219.49400329589844,121.2239990234375 121.2229995727539,219.49400329589844 0,219.49400329589844 C-121.22200012207031,219.49400329589844 -219.49400329589844,121.2239990234375 -219.49400329589844,-0.0010000000474974513 C-219.49400329589844,-121.2229995727539 -121.22200012207031,-219.49400329589844 0,-219.49400329589844 C121.2229995727539,-219.49400329589844 219.49400329589844,-121.2229995727539 219.49400329589844,-0.0010000000474974513z"></path></g><g opacity="1" transform="matrix(1,0,0,1,219.74400329589844,219.74400329589844)"><path fill="rgb(255,172,0)" fill-opacity="1" d=" M219.49400329589844,-0.0010000000474974513 C219.49400329589844,121.2239990234375 121.2229995727539,219.49400329589844 0,219.49400329589844 C-121.22200012207031,219.49400329589844 -219.49400329589844,121.2239990234375 -219.49400329589844,-0.0010000000474974513 C-219.49400329589844,-121.2229995727539 -121.22200012207031,-219.49400329589844 0,-219.49400329589844 C121.2229995727539,-219.49400329589844 219.49400329589844,-121.2229995727539 219.49400329589844,-0.0010000000474974513z"></path></g><g opacity="1" transform="matrix(1,0,0,1,219.80799865722656,217.57400512695312)"><path fill="rgb(255,207,0)" fill-opacity="1" d=" M195.64300537109375,2.997999906539917 C193.9510040283203,113.43199920654297 104.98699951171875,201.61300659179688 -3.063999891281128,199.95799255371094 C-111.11399841308594,198.30099487304688 -197.33599853515625,107.43499755859375 -195.6439971923828,-3 C-193.9499969482422,-113.43199920654297 -104.98600006103516,-201.61300659179688 3.065999984741211,-199.95700073242188 C111.11499786376953,-198.30099487304688 197.33599853515625,-107.43499755859375 195.64300537109375,2.997999906539917z"></path></g><g opacity="1" transform="matrix(1,0,0,1,219.74400329589844,115.37100219726562)"><path fill="rgb(255,222,102)" fill-opacity="1" d=" M141.97799682617188,97.7760009765625 C110.58899688720703,97.7760009765625 58.70100021362305,72.70500183105469 -0.0010000000474974513,72.70500183105469 C-58.69499969482422,72.70500183105469 -110.58899688720703,97.77300262451172 -141.97799682617188,97.7760009765625 C-161.82200622558594,97.77799987792969 -173.46499633789062,87.76499938964844 -173.46499633789062,55.06700134277344 C-173.46499633789062,8.168000221252441 -149.49600219726562,-33.79899978637695 -111.76300048828125,-61.8380012512207 C-80.00700378417969,-84.50299835205078 -41.39699935913086,-97.77799987792969 0.13600000739097595,-97.77799987792969 C1.1360000371932983,-97.77799987792969 2.127000093460083,-97.77100372314453 3.130000114440918,-97.75399780273438 C38.89400100708008,-97.20700073242188 72.27100372314453,-86.88200378417969 100.8550033569336,-69.31199645996094 C144.81700134277344,-41.58300018310547 173.46499633789062,3.7929999828338623 173.46499633789062,55.06700134277344 C173.46499633789062,87.75900268554688 161.81500244140625,97.7760009765625 141.97799682617188,97.7760009765625z"></path></g><g opacity="1" transform="matrix(1,0,0,1,214.2899932861328,35.55699920654297)"><path fill="rgb(255,209,98)" fill-opacity="1" d=" M-106.30899810791016,17.975000381469727 C-76.12200164794922,-4.456999778747559 -37.125999450683594,-17.975000381469727 5.453999996185303,-17.975000381469727 C43.06999969482422,-17.975000381469727 77.88899993896484,-7.425000190734863 106.30899810791016,10.50100040435791 C77.7249984741211,-7.067999839782715 44.347999572753906,-17.39299964904785 8.585000038146973,-17.940000534057617 C7.581999778747559,-17.957000732421875 6.590000152587891,-17.964000701904297 5.590000152587891,-17.964000701904297 C-35.94300079345703,-17.964000701904297 -74.5530014038086,-4.690000057220459 -106.30899810791016,17.975000381469727z"></path></g><g opacity="1" transform="matrix(1,0,0,1,264.8039855957031,23.145999908447266)"><path fill="rgb(255,255,255)" fill-opacity="1" d=" M-3.5329999923706055,2.746000051498413 C-1.774999976158142,3.128999948501587 0.04600000008940697,3.5510001182556152 1.9249999523162842,4.015999794006348 C3.7939999103546143,4.4770002365112305 5.684000015258789,3.3350000381469727 6.145999908447266,1.465999960899353 C6.60699987411499,-0.40299999713897705 5.4670000076293945,-2.2929999828338623 3.5969998836517334,-2.753999948501587 C1.6540000438690186,-3.2339999675750732 -0.23100000619888306,-3.6689999103546143 -2.0490000247955322,-4.065000057220459 C-3.930000066757202,-4.47599983215332 -5.7870001792907715,-3.2820000648498535 -6.197000026702881,-1.4010000228881836 C-6.60699987411499,0.48100000619888306 -5.414000034332275,2.3369998931884766 -3.5329999923706055,2.746000051498413z"></path></g><g opacity="1" transform="matrix(1,0,0,1,244.5970001220703,19.722000122070312)"><path fill="rgb(255,255,255)" fill-opacity="1" d=" M-7.585999965667725,2.503000020980835 C-7.585999965667725,2.503000020980835 -7.539999961853027,2.505000114440918 -7.539999961853027,2.505000114440918 C-6.984000205993652,2.5390000343322754 -1.6050000190734863,2.881999969482422 6.660999774932861,4.248000144958496 C8.560999870300293,4.563000202178955 10.355999946594238,3.2780001163482666 10.670999526977539,1.378000020980835 C10.984999656677246,-0.5210000276565552 9.699000358581543,-2.315999984741211 7.798999786376953,-2.630000114440918 C-1.3329999446868896,-4.140999794006348 -7.110000133514404,-4.453999996185303 -7.214000225067139,-4.459000110626221 C-9.13599967956543,-4.563000202178955 -10.777999877929688,-3.0880000591278076 -10.881999969482422,-1.1649999618530273 C-10.984999656677246,0.7580000162124634 -9.508000373840332,2.3989999294281006 -7.585999965667725,2.503000020980835z"></path></g></g></g><g opacity="1" transform="matrix(0.9200000166893005,0,0,0.9200000166893005,120.79752349853516,292.7996520996094)"><g opacity="1" transform="matrix(1,0,0,1,100.75499725341797,84.30000305175781)"><path fill="rgb(255,172,0)" fill-opacity="1" d=" M21.479999542236328,-10.996999740600586 C-3.617000102996826,-4.341000080108643 -28.250999450683594,4.441999912261963 -47.45100021362305,-6.453999996185303 C-62.7239990234375,-15.121000289916992 -62.6349983215332,-26.420000076293945 -64.27899932861328,-49.02899932861328 C-65.60399627685547,-67.24700164794922 -76.8499984741211,-84.05000305175781 -86.12100219726562,-78.9990005493164 C-95.75299835205078,-73.75199890136719 -91.40299987792969,-50.40599822998047 -93.24099731445312,-26.141000747680664 C-94.427001953125,-10.487000465393066 -100.03199768066406,1.0240000486373901 -100.50499725341797,28.402999877929688 C-65.38600158691406,59.98400115966797 -20.027999877929688,80.39900207519531 29.988000869750977,84.0510025024414 C28.395999908447266,81.49400329589844 26.388999938964844,80.01499938964844 26.388999938964844,80.01499938964844 C26.388999938964844,80.01499938964844 37.80699920654297,75.8759994506836 38.327999114990234,65.02400207519531 C38.83700180053711,54.43000030517578 27.017000198364258,50.03200149536133 27.017000198364258,50.03200149536133 C27.017000198364258,50.03200149536133 44.7130012512207,40.893001556396484 33.09700012207031,22.886999130249023 C72.0510025024414,1.0420000553131104 100.50499725341797,-4.383999824523926 95.76599884033203,-19.016000747680664 C91.14399719238281,-33.2869987487793 66.36199951171875,-22.900999069213867 21.479999542236328,-10.996999740600586z"></path></g></g><g opacity="1" transform="matrix(0.9200000166893005,0,0,0.9200000166893005,49.557525634765625,39.85459899902344)"><g opacity="1" transform="matrix(1,0,0,1,224.39500427246094,224.39500427246094)"><path fill="rgb(255,118,42)" fill-opacity="1" d=" M158.49200439453125,-158.4929962158203 C117.94499969482422,-199.0469970703125 61.880001068115234,-224.14500427246094 -0.0010000000474974513,-224.14300537109375 C-61.88100051879883,-224.14500427246094 -117.94599914550781,-199.0469970703125 -158.4929962158203,-158.4929962158203 C-199.0469970703125,-117.94499969482422 -224.14500427246094,-61.88100051879883 -224.14300537109375,0 C-224.14500427246094,61.880001068115234 -199.0469970703125,117.94499969482422 -158.4929962158203,158.49200439453125 C-117.94599914550781,199.04800415039062 -61.88100051879883,224.14500427246094 -0.0010000000474974513,224.14300537109375 C61.880001068115234,224.14500427246094 117.94499969482422,199.04800415039062 158.49200439453125,158.49200439453125 C199.0469970703125,117.94499969482422 224.14500427246094,61.880001068115234 224.14199829101562,0 C224.14500427246094,-61.88100051879883 199.0469970703125,-117.94499969482422 158.49200439453125,-158.4929962158203z M151.91799926757812,151.91900634765625 C113.02400207519531,190.80599975585938 59.34199905395508,214.84300231933594 -0.0010000000474974513,214.84500122070312 C-59.34299850463867,214.84300231933594 -113.0250015258789,190.80599975585938 -151.91900634765625,151.91900634765625 C-190.80599975585938,113.02400207519531 -214.843994140625,59.34299850463867 -214.8459930419922,0 C-214.843994140625,-59.34299850463867 -190.80599975585938,-113.02400207519531 -151.91900634765625,-151.91799926757812 C-113.0250015258789,-190.80499267578125 -59.34299850463867,-214.84300231933594 -0.0010000000474974513,-214.8459930419922 C59.34199905395508,-214.84300231933594 113.02400207519531,-190.80499267578125 151.91799926757812,-151.91799926757812 C190.80499267578125,-113.02400207519531 214.84300231933594,-59.34299850463867 214.84500122070312,0 C214.84300231933594,59.34299850463867 190.80499267578125,113.02400207519531 151.91799926757812,151.91900634765625z"></path></g></g></g><g style="display: none;"><g><path></path></g></g><g style="display: block;" transform="matrix(0.9200000166893005,0,0,0.9200000166893005,192.0117645263672,285.48016357421875)" opacity="1"><g opacity="1" transform="matrix(1,0,0,1,64.57099914550781,18.687000274658203)"><path fill="rgb(255,172,0)" fill-opacity="1" d=" M57.178001403808594,16.110000610351562 C56.270999908447266,16.110000610351562 55.382999420166016,15.934000015258789 54.53799819946289,15.58899974822998 C36.27399826049805,8.090999603271484 11.262999534606934,-2.1730000972747803 -21.577999114990234,-2.1730000972747803 C-32.63800048828125,-2.1730000972747803 -43.9900016784668,-0.9819999933242798 -55.31800079345703,1.3680000305175781 C-55.7859992980957,1.4639999866485596 -56.26100158691406,1.5119999647140503 -56.731998443603516,1.5119999647140503 C-60.012001037597656,1.5130000114440918 -62.87699890136719,-0.8190000057220459 -63.54199981689453,-4.0320000648498535 C-64.32099914550781,-7.784999847412109 -61.89899826049805,-11.473999977111816 -58.143001556396484,-12.253999710083008 C-45.80500030517578,-14.812999725341797 -33.452999114990234,-16.110000610351562 -21.42799949645996,-16.110000610351562 C13.942000389099121,-16.110000610351562 40.45500183105469,-5.229000091552734 59.8129997253418,2.7149999141693115 C61.540000915527344,3.4240000247955322 62.88100051879883,4.75600004196167 63.597999572753906,6.46999979019165 C64.31500244140625,8.1850004196167 64.32099914550781,10.076000213623047 63.6150016784668,11.793999671936035 C62.53799819946289,14.416000366210938 60.01300048828125,16.110000610351562 57.178001403808594,16.110000610351562z"></path></g><g opacity="1" transform="matrix(1,0,0,1,64.55699920654297,23.70199966430664)"><path fill="rgb(255,223,156)" fill-opacity="1" d=" M55.69599914550781,15.692999839782715 C54.8120002746582,15.692999839782715 53.948001861572266,15.520999908447266 53.125999450683594,15.184000015258789 C35.33399963378906,7.881999969482422 10.970999717712402,-2.117000102996826 -21.018999099731445,-2.117000102996826 C-31.79199981689453,-2.117000102996826 -42.8489990234375,-0.9559999704360962 -53.88399887084961,1.3329999446868896 C-54.34000015258789,1.4259999990463257 -54.801998138427734,1.4730000495910645 -55.26100158691406,1.4730000495910645 C-58.45600128173828,1.4739999771118164 -61.244998931884766,-0.796999990940094 -61.893001556396484,-3.927000045776367 C-62.652000427246094,-7.583000183105469 -60.29399871826172,-11.177000045776367 -56.63600158691406,-11.937000274658203 C-44.617000579833984,-14.428999900817871 -32.584999084472656,-15.692999839782715 -20.871000289916992,-15.692999839782715 C13.581999778747559,-15.692999839782715 39.40700149536133,-5.0929999351501465 58.262001037597656,2.6449999809265137 C59.94499969482422,3.3359999656677246 61.25199890136719,4.632999897003174 61.94900131225586,6.302000045776367 C62.64799880981445,7.9720001220703125 62.65299987792969,9.814000129699707 61.96699905395508,11.48799991607666 C60.917999267578125,14.043000221252441 58.45800018310547,15.692999839782715 55.69599914550781,15.692999839782715z"></path></g><g opacity="1" transform="matrix(1,0,0,1,64.37999725341797,17.107999801635742)"><path fill="rgb(143,57,0)" fill-opacity="1" d=" M57.22800064086914,16.857999801635742 C56.72200012207031,16.857999801635742 56.20800018310547,16.76099967956543 55.71099853515625,16.55699920654297 C31.371999740600586,6.567999839782715 -5.4120001792907715,-8.531000137329102 -56.590999603271484,2.0850000381469727 C-58.75699996948242,2.5309998989105225 -60.87200164794922,1.1419999599456787 -61.31999969482422,-1.0199999809265137 C-61.76900100708008,-3.183000087738037 -60.37799835205078,-5.300000190734863 -58.21500015258789,-5.749000072479248 C-4.638000011444092,-16.857999801635742 33.50600051879883,-1.2029999494552612 58.749000549316406,9.156999588012695 C60.79199981689453,9.996000289916992 61.76900100708008,12.331999778747559 60.93000030517578,14.37600040435791 C60.29499816894531,15.92199993133545 58.803001403808594,16.857999801635742 57.22800064086914,16.857999801635742z"></path></g></g><g style="display: block;" transform="matrix(0.9200000166893005,0,0,0.9200000166893005,166.533447265625,147.56793212890625)" opacity="1"><g opacity="1" transform="matrix(1,0,0,1,28.155000686645508,33.74399948120117)"><path fill="rgb(255,172,0)" fill-opacity="1" d=" M23.219999313354492,3.5940001010894775 C20.525999069213867,20.996999740600586 7.945000171661377,33.49399948120117 -4.879000186920166,31.510000228881836 C-17.701000213623047,29.524999618530273 -25.913000106811523,13.809000015258789 -23.2189998626709,-3.5940001010894775 C-20.525999069213867,-20.996000289916992 -7.945000171661377,-33.49399948120117 4.876999855041504,-31.510000228881836 C17.701000213623047,-29.524999618530273 25.913000106811523,-13.807999610900879 23.219999313354492,3.5940001010894775z"></path></g><g opacity="1" transform="matrix(1,0,0,1,26.163000106811523,46.768001556396484)"><path fill="rgb(255,223,156)" fill-opacity="1" d=" M23.2189998626709,3.5940001010894775 C20.524999618530273,20.996999740600586 7.945000171661377,33.49399948120117 -4.877999782562256,31.509000778198242 C-17.701000213623047,29.52400016784668 -25.913000106811523,13.807999610900879 -23.2189998626709,-3.5940001010894775 C-20.524999618530273,-20.996000289916992 -7.946000099182129,-33.49399948120117 4.876999855041504,-31.509000778198242 C17.700000762939453,-29.52400016784668 25.913000106811523,-13.807999610900879 23.2189998626709,3.5940001010894775z"></path></g><g opacity="1" transform="matrix(1,0,0,1,27.322999954223633,40.21799850463867)"><path fill="rgb(143,57,0)" fill-opacity="1" d=" M21.76799964904785,3.36899995803833 C19.073999404907227,20.77199935913086 7.144000053405762,33.37099838256836 -4.877999782562256,31.510000228881836 C-16.899999618530273,29.64900016784668 -24.461000442504883,14.034000396728516 -21.76799964904785,-3.36899995803833 C-19.073999404907227,-20.770999908447266 -7.144000053405762,-33.37099838256836 4.877999782562256,-31.510000228881836 C16.899999618530273,-29.64900016784668 24.461000442504883,-14.032999992370605 21.76799964904785,3.36899995803833z"></path></g><g opacity="1" transform="matrix(1,0,0,1,28.450000762939453,27.24799919128418)"><path fill="rgb(116,23,0)" fill-opacity="1" d=" M20.639999389648438,16.343000411987305 C20.426000595092773,17.726999282836914 20.152000427246094,19.082000732421875 19.81800079345703,20.395999908447266 C20.850000381469727,4.696000099182129 13.557999610900879,-8.670999526977539 2.490000009536743,-10.383999824523926 C-8.57800006866455,-12.097000122070312 -19.570999145507812,-1.5609999895095825 -23.333999633789062,13.717000007629395 C-23.253999710083008,12.36299991607666 -23.106000900268555,10.98900032043457 -22.892000198364258,9.604999542236328 C-20.19700050354004,-7.802000045776367 -8.269000053405762,-20.395999908447266 3.750999927520752,-18.535999298095703 C15.772000312805176,-16.674999237060547 23.333999633789062,-1.0640000104904175 20.639999389648438,16.343000411987305z"></path></g></g><g style="display: block;" transform="matrix(0.9200000166893005,0,0,0.9200000166893005,286.8235168457031,159.75747680664062)" opacity="1"><g opacity="1" transform="matrix(1,0,0,1,28.155000686645508,33.74399948120117)"><path fill="rgb(255,172,0)" fill-opacity="1" d=" M23.219999313354492,3.5940001010894775 C20.525999069213867,20.996999740600586 7.945000171661377,33.49399948120117 -4.879000186920166,31.510000228881836 C-17.701000213623047,29.524999618530273 -25.913000106811523,13.809000015258789 -23.2189998626709,-3.5940001010894775 C-20.525999069213867,-20.996000289916992 -7.945000171661377,-33.49399948120117 4.876999855041504,-31.510000228881836 C17.701000213623047,-29.524999618530273 25.913000106811523,-13.807999610900879 23.219999313354492,3.5940001010894775z"></path></g><g opacity="1" transform="matrix(1,0,0,1,26.163000106811523,46.768001556396484)"><path fill="rgb(255,223,156)" fill-opacity="1" d=" M23.2189998626709,3.5940001010894775 C20.524999618530273,20.996999740600586 7.945000171661377,33.49399948120117 -4.877999782562256,31.509000778198242 C-17.701000213623047,29.52400016784668 -25.913000106811523,13.807999610900879 -23.2189998626709,-3.5940001010894775 C-20.524999618530273,-20.996000289916992 -7.946000099182129,-33.49399948120117 4.876999855041504,-31.509000778198242 C17.700000762939453,-29.52400016784668 25.913000106811523,-13.807999610900879 23.2189998626709,3.5940001010894775z"></path></g><g opacity="1" transform="matrix(1,0,0,1,27.322999954223633,40.21799850463867)"><path fill="rgb(143,57,0)" fill-opacity="1" d=" M21.76799964904785,3.36899995803833 C19.073999404907227,20.77199935913086 7.144000053405762,33.37099838256836 -4.877999782562256,31.510000228881836 C-16.899999618530273,29.64900016784668 -24.461000442504883,14.034000396728516 -21.76799964904785,-3.36899995803833 C-19.073999404907227,-20.770999908447266 -7.144000053405762,-33.37099838256836 4.877999782562256,-31.510000228881836 C16.899999618530273,-29.64900016784668 24.461000442504883,-14.032999992370605 21.76799964904785,3.36899995803833z"></path></g><g opacity="1" transform="matrix(1,0,0,1,28.450000762939453,27.24799919128418)"><path fill="rgb(116,23,0)" fill-opacity="1" d=" M20.639999389648438,16.343000411987305 C20.426000595092773,17.726999282836914 20.152000427246094,19.082000732421875 19.81800079345703,20.395999908447266 C20.850000381469727,4.696000099182129 13.557999610900879,-8.670999526977539 2.490000009536743,-10.383999824523926 C-8.57800006866455,-12.097000122070312 -19.570999145507812,-1.5609999895095825 -23.333999633789062,13.717000007629395 C-23.253999710083008,12.36299991607666 -23.106000900268555,10.98900032043457 -22.892000198364258,9.604999542236328 C-20.19700050354004,-7.802000045776367 -8.269000053405762,-20.395999908447266 3.750999927520752,-18.535999298095703 C15.772000312805176,-16.674999237060547 23.333999633789062,-1.0640000104904175 20.639999389648438,16.343000411987305z"></path></g></g><g style="display: block;" transform="matrix(0.9200000166893005,0,0,0.9200000166893005,289.9949951171875,137.07403564453125)" opacity="1"><g opacity="1" transform="matrix(1,0,0,1,48.80699920654297,14.369999885559082)"><path fill="rgb(255,223,156)" fill-opacity="1" d=" M-46.24399948120117,6.764999866485596 C-48.55699920654297,-1.0110000371932983 -34.4739990234375,-11.550000190734863 -5.546999931335449,-12.574000358581543 C38.11899948120117,-14.119999885559082 48.55699920654297,-0.8980000019073486 47.33700180053711,4.489999771118164 C46.3120002746582,9.015000343322754 28.67799949645996,3.882999897003174 0.4740000069141388,5.809000015258789 C-27.099000930786133,7.691999912261963 -44.055999755859375,14.119000434875488 -46.24399948120117,6.764999866485596z"></path></g><g opacity="1" transform="matrix(1,0,0,1,48.9630012512207,10.78600025177002)"><path fill="rgb(143,57,0)" fill-opacity="1" d=" M-44.604000091552734,4.895999908447266 C-46.834999084472656,-0.9120000004768372 -30.06999969482422,-8.968000411987305 -5.349999904632568,-9.548999786376953 C30.382999420166016,-10.388999938964844 46.83599853515625,-0.8289999961853027 45.659000396728516,3.196000099182129 C44.66999816894531,6.576000213623047 27.215999603271484,2.0190000534057617 0.012000000104308128,3.4570000171661377 C-26.583999633789062,4.863999843597412 -42.49399948120117,10.388999938964844 -44.604000091552734,4.895999908447266z"></path></g><g opacity="1" transform="matrix(1,0,0,1,48.9640007019043,8.65999984741211)"><path fill="rgb(116,23,0)" fill-opacity="1" d=" M-43.67900085449219,8.262999534606934 C-39.64899826049805,3.2320001125335693 -25.025999069213867,-1.965000033378601 -5.35099983215332,-2.427000045776367 C21.426000595092773,-3.056999921798706 37.375,2.1540000438690186 43.19300079345703,6.499000072479248 C44.617000579833984,6.3429999351501465 45.4630012512207,5.98799991607666 45.65700149536133,5.322000026702881 C46.834999084472656,1.2970000505447388 30.382999420166016,-8.262999534606934 -5.35099983215332,-7.422999858856201 C-30.070999145507812,-6.8420000076293945 -46.83599853515625,1.2139999866485596 -44.60599899291992,7.021999835968018 C-44.4119987487793,7.525000095367432 -44.10100173950195,7.933000087738037 -43.67900085449219,8.262999534606934z"></path></g></g><g style="display: block;" transform="matrix(0.9200000166893005,0,0,0.9200000166893005,124.80555725097656,110.30508422851562)" opacity="1"><g opacity="1" transform="matrix(1,0,0,1,53.79499816894531,23.594999313354492)"><path fill="rgb(255,223,156)" fill-opacity="1" d=" M48.02199935913086,11.317000389099121 C53.54600143432617,6.389999866485596 35.85499954223633,-16.527999877929688 4.590000152587891,-18.636999130249023 C-33.22700119018555,-21.18899917602539 -53.54499816894531,10.609999656677246 -46.763999938964844,16.26099967956543 C-40.85100173950195,21.18899917602539 -26.437999725341797,-0.4339999854564667 3.509000062942505,-0.5759999752044678 C31.488000869750977,-0.7070000171661377 42.79499816894531,15.979000091552734 48.02199935913086,11.317000389099121z"></path></g><g opacity="1" transform="matrix(1,0,0,1,54.21799850463867,20.051000595092773)"><path fill="rgb(143,57,0)" fill-opacity="1" d=" M46.834999084472656,10.17300033569336 C52.222999572753906,5.367000102996826 29.33799934387207,-15.864999771118164 4.401000022888184,-17.51799964904785 C-30.01300048828125,-19.799999237060547 -52.222999572753906,9.484999656677246 -45.61000061035156,14.996000289916992 C-39.84299850463867,19.801000595092773 -26.05699920654297,-3.25 3.1510000228881836,-3.388000011444092 C30.437999725341797,-3.5160000324249268 41.73699951171875,14.718999862670898 46.834999084472656,10.17300033569336z"></path></g><g opacity="1" transform="matrix(1,0,0,1,54.5369987487793,17.53499984741211)"><path fill="rgb(116,23,0)" fill-opacity="1" d=" M4.210000038146973,-8.78499984741211 C23.138999938964844,-7.53000020980835 40.87300109863281,5.002999782562256 45.96799850463867,13.071999549865723 C46.15800094604492,12.968000411987305 46.34199905395508,12.845000267028809 46.516998291015625,12.689000129699707 C51.90399932861328,7.882999897003174 29.020000457763672,-13.350000381469727 4.083000183105469,-15.003000259399414 C-29.854999542236328,-17.253000259399414 -51.90399932861328,11.180000305175781 -46.165000915527344,17.253000259399414 C-42.07899856567383,6.88700008392334 -22.652999877929688,-10.565999984741211 4.210000038146973,-8.78499984741211z"></path></g></g><g style="display: block;" transform="matrix(1,0,0,1,0,0)" opacity="1"><g opacity="1" transform="matrix(0.9200000166893005,0,0,0.9200000166893005,49.557525634765625,39.85459899902344)"><g opacity="1" transform="matrix(1,0,0,1,224.39500427246094,224.39500427246094)"><path fill="rgb(255,118,42)" fill-opacity="1" d=" M158.49200439453125,-158.4929962158203 C117.94499969482422,-199.0469970703125 61.880001068115234,-224.14500427246094 -0.0010000000474974513,-224.14300537109375 C-61.88100051879883,-224.14500427246094 -117.94599914550781,-199.0469970703125 -158.4929962158203,-158.4929962158203 C-199.0469970703125,-117.94499969482422 -224.14500427246094,-61.88100051879883 -224.14300537109375,0 C-224.14500427246094,61.880001068115234 -199.0469970703125,117.94499969482422 -158.4929962158203,158.49200439453125 C-117.94599914550781,199.04800415039062 -61.88100051879883,224.14500427246094 -0.0010000000474974513,224.14300537109375 C61.880001068115234,224.14500427246094 117.94499969482422,199.04800415039062 158.49200439453125,158.49200439453125 C199.0469970703125,117.94499969482422 224.14500427246094,61.880001068115234 224.14199829101562,0 C224.14500427246094,-61.88100051879883 199.0469970703125,-117.94499969482422 158.49200439453125,-158.4929962158203z M151.91799926757812,151.91900634765625 C113.02400207519531,190.80599975585938 59.34199905395508,214.84300231933594 -0.0010000000474974513,214.84500122070312 C-59.34299850463867,214.84300231933594 -113.0250015258789,190.80599975585938 -151.91900634765625,151.91900634765625 C-190.80599975585938,113.02400207519531 -214.843994140625,59.34299850463867 -214.8459930419922,0 C-214.843994140625,-59.34299850463867 -190.80599975585938,-113.02400207519531 -151.91900634765625,-151.91799926757812 C-113.0250015258789,-190.80499267578125 -59.34299850463867,-214.84300231933594 -0.0010000000474974513,-214.8459930419922 C59.34199905395508,-214.84300231933594 113.02400207519531,-190.80499267578125 151.91799926757812,-151.91799926757812 C190.80499267578125,-113.02400207519531 214.84300231933594,-59.34299850463867 214.84500122070312,0 C214.84300231933594,59.34299850463867 190.80499267578125,113.02400207519531 151.91799926757812,151.91900634765625z"></path></g></g></g><g style="display: block;" transform="matrix(0.9200000166893005,0,0,0.9200000166893005,83.33836364746094,271.4263610839844)" opacity="1"><g opacity="1" transform="matrix(1,0,0,1,128.48500061035156,118.51699829101562)"><path fill="rgb(255,207,0)" fill-opacity="1" d=" M-24.79599952697754,95.27400207519531 C-69.23200225830078,95.27400207519531 -98.66899871826172,91.29199981689453 -102.81800079345703,38.0629997253418 C-105.24299621582031,6.941999912261963 -99.56600189208984,-9.470999717712402 -95.00499725341797,-22.65999984741211 C-92.65699768066406,-29.447999954223633 -90.63099670410156,-35.31100082397461 -90.12999725341797,-41.91699981689453 C-89.4540023803711,-50.8489990234375 -90.03199768066406,-59.38100051879883 -90.54399871826172,-66.91000366210938 C-91.4209976196289,-79.8270034790039 -92.11299896240234,-90.02899932861328 -85.43399810791016,-93.66699981689453 C-83.50399780273438,-94.71800231933594 -81.24600219726562,-95.27400207519531 -78.9020004272461,-95.27400207519531 C-68.60900115966797,-95.27400207519531 -57.90299987792969,-85.35600280761719 -57.356998443603516,-66.39900207519531 C-57.22600173950195,-61.8650016784668 -57.356998443603516,-57.66999816894531 -57.472999572753906,-53.970001220703125 C-57.89699935913086,-40.481998443603516 -58.152000427246094,-32.34000015258789 -46.70399856567383,-26.12299919128418 C-43.01100158691406,-24.118000030517578 -37.525001525878906,-23.10099983215332 -30.398000717163086,-23.10099983215332 C-30.398000717163086,-23.10099983215332 -30.39299964904785,-23.10099983215332 -30.39299964904785,-23.10099983215332 C-11.640000343322754,-23.101999282836914 14.305999755859375,-29.9060001373291 33.250999450683594,-34.87200164794922 C33.250999450683594,-34.87200164794922 35.87200164794922,-35.560001373291016 35.87200164794922,-35.560001373291016 C61.948001861572266,-42.38100051879883 78.4990005493164,-46.52299880981445 88.44499969482422,-46.52299880981445 C95.93599700927734,-46.52299880981445 99.98799896240234,-44.145999908447266 101.58499908447266,-38.814998626708984 C105.24199676513672,-26.60700035095215 89.69200134277344,-21.110000610351562 58.71099853515625,-10.15999984741211 C48.20600128173828,-6.446000099182129 36.404998779296875,-2.2750000953674316 22.851999282836914,2.997999906539917 C27.913999557495117,4.431000232696533 36.38999938964844,8.300999641418457 37.15399932861328,18.226999282836914 C37.904998779296875,27.96500015258789 31.298999786376953,32.61800003051758 27.617000579833984,34.43600082397461 C31.04599952697754,36.41299819946289 37.165000915527344,41.082000732421875 37.36800003051758,49.301998138427734 C37.59199905395508,58.323001861572266 30.333999633789062,63.15800094604492 27.121999740600586,64.85099792480469 C28.916000366210938,66.88800048828125 32.00899887084961,71.45999908447266 30.94700050354004,77.90899658203125 C28.916000366210938,90.24299621582031 12.767000198364258,95.27400207519531 -24.79599952697754,95.27400207519531z"></path></g><g opacity="1" transform="matrix(1,0,0,1,52.3380012512207,36.404998779296875)"><path fill="rgb(255,222,102)" fill-opacity="1" d=" M-5.241000175476074,-6.103000164031982 C0.29499998688697815,-9.696000099182129 10.281000137329102,3.118000030517578 3.6489999294281006,6.4770002365112305 C-2.7009999752044678,9.694999694824219 -10.281000137329102,-2.8310000896453857 -5.241000175476074,-6.103000164031982z"></path></g><g opacity="1" transform="matrix(1,0,0,1,125.9260025024414,119.41999816894531)"><path fill="rgb(255,172,0)" fill-opacity="1" d=" M32.209999084472656,75.47899627685547 C32.84000015258789,67.79199981689453 26.8799991607666,63.41699981689453 26.8799991607666,63.41699981689453 C26.8799991607666,63.41699981689453 39.0880012512207,59.28900146484375 38.819000244140625,48.42599868774414 C38.55699920654297,37.83300018310547 27.507999420166016,33.433998107910156 27.507999420166016,33.433998107910156 C27.507999420166016,33.433998107910156 39.89699935913086,29.982999801635742 38.606998443603516,17.409000396728516 C37.361000061035156,5.260000228881836 21.55299949645996,2.4149999618530273 21.55299949645996,2.4149999618530273 C69.20999908447266,-18 106.30599975585938,-21.613000869750977 102.85900115966797,-36.7130012512207 C102.5270004272461,-38.167999267578125 101.93900299072266,-39.367000579833984 101.11499786376953,-40.3489990234375 C95.90699768066406,-28.628000259399414 55.35100173950195,-20.336000442504883 7.926000118255615,-1.9049999713897705 C7.926000118255615,-1.9049999713897705 20.756000518798828,6.36299991607666 20.972000122070312,17.695999145507812 C21.187999725341797,29.02199935913086 13.173999786376953,33.94499969482422 13.173999786376953,33.94499969482422 C13.173999786376953,33.94499969482422 19.09600067138672,41.516998291015625 17.30500030517578,49.84000015258789 C14.934000015258789,60.85599899291992 0.4269999861717224,70.08699798583984 -48.290000915527344,60.435001373291016 C-106.30500030517578,48.939998626708984 -82.71099853515625,-21.768999099731445 -80.68099975585938,-41.494998931884766 C-78.13099670410156,-66.25900268554688 -86.49500274658203,-85.08000183105469 -82.87799835205078,-93.26000213623047 C-91.68099975585938,-87.50299835205078 -84.66100311279297,-66.52999877929688 -86.46299743652344,-42.737998962402344 C-87.96099853515625,-22.96500015258789 -102.80599975585938,-9.829000473022461 -99.1510009765625,37.07400131225586 C-95.09100341796875,89.177001953125 -66.43900299072266,93.26000213623047 -22.238000869750977,93.26000213623047 C21.299999237060547,93.26000213623047 31.503000259399414,84.08899688720703 32.209999084472656,75.47899627685547z"></path></g><g opacity="1" transform="matrix(1,0,0,1,130.9530029296875,100.4469985961914)"><path fill="rgb(255,222,102)" fill-opacity="1" d=" M-78.52999877929688,-19.82200050354004 C-67.88999938964844,-22.149999618530273 -64.96399688720703,-1.690000057220459 -44.47700119018555,2.055999994277954 C-29.81399917602539,4.736999988555908 -5.73199987411499,1.3969999551773071 31.267000198364258,-8.54699993133545 C55.62699890136719,-15.093000411987305 83.64099884033203,-22.382999420166016 84.79199981689453,-19.138999938964844 C86.99700164794922,-12.928999900817871 30.43600082397461,-1.1820000410079956 -9.991000175476074,12.104000091552734 C-41.270999908447266,22.382999420166016 -56.31399917602539,22.030000686645508 -71.38700103759766,12.83899974822998 C-86.99700164794922,3.321000099182129 -86.89299774169922,-17.993000030517578 -78.52999877929688,-19.82200050354004z"></path></g><g opacity="1" transform="matrix(1,0,0,1,128.48500061035156,118.51699829101562)"><path stroke-linecap="round" stroke-linejoin="round" fill-opacity="0" stroke="rgb(255,118,42)" stroke-opacity="1" stroke-width="9.297" d=" M-24.79599952697754,95.27400207519531 C-69.23200225830078,95.27400207519531 -98.66899871826172,91.29199981689453 -102.81800079345703,38.0629997253418 C-105.24299621582031,6.941999912261963 -99.56600189208984,-9.470999717712402 -95.00499725341797,-22.65999984741211 C-92.65699768066406,-29.447999954223633 -90.63099670410156,-35.31100082397461 -90.12999725341797,-41.91699981689453 C-89.4540023803711,-50.8489990234375 -90.03199768066406,-59.38100051879883 -90.54399871826172,-66.91000366210938 C-91.4209976196289,-79.8270034790039 -92.11299896240234,-90.02899932861328 -85.43399810791016,-93.66699981689453 C-83.50399780273438,-94.71800231933594 -81.24600219726562,-95.27400207519531 -78.9020004272461,-95.27400207519531 C-68.60900115966797,-95.27400207519531 -57.90299987792969,-85.35600280761719 -57.356998443603516,-66.39900207519531 C-57.22600173950195,-61.8650016784668 -57.356998443603516,-57.66999816894531 -57.472999572753906,-53.970001220703125 C-57.89699935913086,-40.481998443603516 -58.152000427246094,-32.34000015258789 -46.70399856567383,-26.12299919128418 C-43.01100158691406,-24.118000030517578 -37.525001525878906,-23.10099983215332 -30.398000717163086,-23.10099983215332 C-30.398000717163086,-23.10099983215332 -30.39299964904785,-23.10099983215332 -30.39299964904785,-23.10099983215332 C-11.640000343322754,-23.101999282836914 14.305999755859375,-29.9060001373291 33.250999450683594,-34.87200164794922 C33.250999450683594,-34.87200164794922 78.4990005493164,-46.52299880981445 88.44499969482422,-46.52299880981445 C95.93599700927734,-46.52299880981445 99.98799896240234,-44.145999908447266 101.58499908447266,-38.814998626708984 C105.24199676513672,-26.60700035095215 89.69200134277344,-21.110000610351562 58.71099853515625,-10.15999984741211 C48.20600128173828,-6.446000099182129 36.404998779296875,-2.2750000953674316 22.851999282836914,2.997999906539917 C27.913999557495117,4.431000232696533 36.38999938964844,8.300999641418457 37.15399932861328,18.226999282836914 C37.904998779296875,27.96500015258789 31.298999786376953,32.61800003051758 27.617000579833984,34.43600082397461 C31.04599952697754,36.41299819946289 37.165000915527344,41.082000732421875 37.36800003051758,49.301998138427734 C37.59199905395508,58.323001861572266 30.333999633789062,63.15800094604492 27.121999740600586,64.85099792480469 C28.916000366210938,66.88800048828125 32.00899887084961,71.45999908447266 30.94700050354004,77.90899658203125 C28.916000366210938,90.24299621582031 12.767000198364258,95.27400207519531 -24.79599952697754,95.27400207519531z"></path></g><g opacity="1" transform="matrix(1,0,0,1,87.5999984741211,110.75399780273438)"><path stroke-linecap="round" stroke-linejoin="round" fill-opacity="0" stroke="rgb(255,255,255)" stroke-opacity="1" stroke-width="6.972" d=" M5.857999801635742,-0.5899999737739563 C5.857999801635742,-0.5899999737739563 -0.6919999718666077,0.5889999866485596 -5.857999801635742,-0.5770000219345093"></path></g></g></g></svg>