<svg xmlns="http://www.w3.org/2000/svg" viewBox="0 0 512 512" width="512" height="512" style="width: 100%; height: 100%; transform: translate3d(0,0,0);" preserveAspectRatio="xMidYMid meet"><defs><clipPath id="__lottie_element_24432"><rect width="512" height="512" x="0" y="0"></rect></clipPath></defs><g clip-path="url(#__lottie_element_24432)"><g style="display: block;" transform="matrix(1,0,0,1,47.02400207519531,42.906005859375)" opacity="1"><g opacity="0.1" transform="matrix(1,0,0,1,207.96400451660156,226.56399536132812)"><path fill="rgb(0,0,0)" fill-opacity="1" d=" M193.02200317382812,-0.0010000000474974513 C193.02200317382812,106.60299682617188 106.60299682617188,193.02200317382812 0,193.02200317382812 C-106.60299682617188,193.02200317382812 -193.02200317382812,106.60299682617188 -193.02200317382812,-0.0010000000474974513 C-193.02200317382812,-106.60399627685547 -106.60299682617188,-193.02099609375 0,-193.02099609375 C106.60299682617188,-193.02099609375 193.02200317382812,-106.60399627685547 193.02200317382812,-0.0010000000474974513z"></path></g><g opacity="1" transform="matrix(1,0,0,1,208.87600708007812,208.875)"><path fill="rgb(255,176,57)" fill-opacity="1" d=" M188.87600708007812,0 C188.87600708007812,104.31300354003906 104.31199645996094,188.875 -0.0010000000474974513,188.875 C-104.31400299072266,188.875 -188.87600708007812,104.31300354003906 -188.87600708007812,0 C-188.87600708007812,-104.31300354003906 -104.31400299072266,-188.875 -0.0010000000474974513,-188.875 C104.31199645996094,-188.875 188.87600708007812,-104.31300354003906 188.87600708007812,0z"></path></g><g opacity="1" transform="matrix(1,0,0,1,208.87600708007812,208.875)"><path stroke-linecap="butt" stroke-linejoin="miter" fill-opacity="0" stroke-miterlimit="10" stroke="rgb(247,125,65)" stroke-opacity="1" stroke-width="8" d=" M188.87600708007812,0 C188.87600708007812,104.31300354003906 104.31199645996094,188.875 -0.0010000000474974513,188.875 C-104.31400299072266,188.875 -188.87600708007812,104.31300354003906 -188.87600708007812,0 C-188.87600708007812,-104.31300354003906 -104.31400299072266,-188.875 -0.0010000000474974513,-188.875 C104.31199645996094,-188.875 188.87600708007812,-104.31300354003906 188.87600708007812,0z"></path></g><g opacity="1" transform="matrix(1,0,0,1,208.92999267578125,207.0070037841797)"><path fill="rgb(255,209,64)" fill-opacity="1" d=" M168.3520050048828,2.5810000896453857 C166.89500427246094,97.60900115966797 90.34100341796875,173.49000549316406 -2.63700008392334,172.06500244140625 C-95.61499786376953,170.63900756835938 -169.80799865722656,92.4489974975586 -168.3509979248047,-2.5799999237060547 C-166.89500427246094,-97.60800170898438 -90.33999633789062,-173.48899841308594 2.638000011444092,-172.06399536132812 C95.61599731445312,-170.63900756835938 169.80799865722656,-92.447998046875 168.3520050048828,2.5810000896453857z"></path></g><g opacity="1" transform="matrix(1,0,0,1,208.875,119.05599975585938)"><path fill="rgb(255,223,121)" fill-opacity="1" d=" M149.26699829101562,47.38999938964844 C149.26699829101562,120.03299713134766 82.43800354003906,62.569000244140625 -0.0010000000474974513,62.569000244140625 C-82.43900299072266,62.569000244140625 -149.26800537109375,120.03299713134766 -149.26800537109375,47.38999938964844 C-149.26800537109375,-25.253999710083008 -82.43900299072266,-84.14199829101562 -0.0010000000474974513,-84.14199829101562 C82.43800354003906,-84.14199829101562 149.26699829101562,-25.253999710083008 149.26699829101562,47.38999938964844z"></path></g><g opacity="1" transform="matrix(1,0,0,1,247.63699340820312,39.6879997253418)"><path stroke-linecap="round" stroke-linejoin="round" fill-opacity="0" stroke="rgb(255,255,255)" stroke-opacity="1" stroke-width="6" d=" M-2.388000011444092,-0.5550000071525574 C-0.8510000109672546,-0.2199999988079071 0.7440000176429749,0.15000000596046448 2.388000011444092,0.5550000071525574"></path></g><g opacity="1" transform="matrix(1,0,0,1,230.18899536132812,36.68299865722656)"><path stroke-linecap="round" stroke-linejoin="round" fill-opacity="0" stroke="rgb(255,255,255)" stroke-opacity="1" stroke-width="6" d=" M-6.295000076293945,-0.7689999938011169 C-6.295000076293945,-0.7689999938011169 -1.4279999732971191,-0.5090000033378601 6.295000076293945,0.7689999938011169"></path></g></g><g style="display: block;" transform="matrix(1,0,0,1,157.6840057373047,215.74900817871094)" opacity="1"><g opacity="1" transform="matrix(1,0,0,1,173.5070037841797,32.584999084472656)"><path fill="rgb(255,225,166)" fill-opacity="1" d=" M23.770999908447266,0 C23.770999908447266,17.857999801635742 13.128000259399414,32.334999084472656 0,32.334999084472656 C-13.128000259399414,32.334999084472656 -23.770999908447266,17.857999801635742 -23.770999908447266,0 C-23.770999908447266,-17.857999801635742 -13.128000259399414,-32.334999084472656 0,-32.334999084472656 C13.128000259399414,-32.334999084472656 23.770999908447266,-17.857999801635742 23.770999908447266,0z"></path></g><g opacity="1" transform="matrix(1,0,0,1,173.5070037841797,29.256000518798828)"><path fill="rgb(255,176,57)" fill-opacity="1" d=" M23.770999908447266,0 C23.770999908447266,16.020000457763672 13.128000259399414,29.006000518798828 0,29.006000518798828 C-13.128000259399414,29.006000518798828 -23.770999908447266,16.020000457763672 -23.770999908447266,0 C-23.770999908447266,-16.020000457763672 -13.128000259399414,-29.006000518798828 0,-29.006000518798828 C13.128000259399414,-29.006000518798828 23.770999908447266,-16.020000457763672 23.770999908447266,0z"></path></g><g opacity="1" transform="matrix(1,0,0,1,173.5070037841797,32.44200134277344)"><path fill="rgb(133,62,19)" fill-opacity="1" d=" M21.85700035095215,-0.0010000000474974513 C21.85700035095215,15.095999717712402 12.071000099182129,27.334999084472656 0,27.334999084472656 C-12.071999549865723,27.334999084472656 -21.85700035095215,15.095999717712402 -21.85700035095215,-0.0010000000474974513 C-21.85700035095215,-15.097999572753906 -12.071999549865723,-27.334999084472656 0,-27.334999084472656 C12.071000099182129,-27.334999084472656 21.85700035095215,-15.097999572753906 21.85700035095215,-0.0010000000474974513z"></path></g><g opacity="1" transform="matrix(1,0,0,1,173.5070037841797,20.547000885009766)"><path fill="rgb(98,36,11)" fill-opacity="1" d=" M21.860000610351562,11.899999618530273 C21.860000610351562,13.100000381469727 21.799999237060547,14.279999732971191 21.670000076293945,15.4399995803833 C20.290000915527344,2.009999990463257 11.109999656677246,-8.369999885559082 0,-8.369999885559082 C-11.109999656677246,-8.369999885559082 -20.290000915527344,2.009999990463257 -21.670000076293945,15.4399995803833 C-21.799999237060547,14.279999732971191 -21.860000610351562,13.100000381469727 -21.860000610351562,11.899999618530273 C-21.860000610351562,-3.200000047683716 -12.069999694824219,-15.4399995803833 0,-15.4399995803833 C12.069999694824219,-15.4399995803833 21.860000610351562,-3.200000047683716 21.860000610351562,11.899999618530273z"></path></g></g><g style="display: block;" transform="matrix(-1,0,0,1,355.2130126953125,215.74900817871094)" opacity="1"><g opacity="1" transform="matrix(1,0,0,1,173.5070037841797,32.584999084472656)"><path fill="rgb(255,225,166)" fill-opacity="1" d=" M23.770999908447266,0 C23.770999908447266,17.857999801635742 13.128000259399414,32.334999084472656 0,32.334999084472656 C-13.128000259399414,32.334999084472656 -23.770999908447266,17.857999801635742 -23.770999908447266,0 C-23.770999908447266,-17.857999801635742 -13.128000259399414,-32.334999084472656 0,-32.334999084472656 C13.128000259399414,-32.334999084472656 23.770999908447266,-17.857999801635742 23.770999908447266,0z"></path></g><g opacity="1" transform="matrix(1,0,0,1,173.5070037841797,29.256000518798828)"><path fill="rgb(255,176,57)" fill-opacity="1" d=" M23.770999908447266,0 C23.770999908447266,16.020000457763672 13.128000259399414,29.006000518798828 0,29.006000518798828 C-13.128000259399414,29.006000518798828 -23.770999908447266,16.020000457763672 -23.770999908447266,0 C-23.770999908447266,-16.020000457763672 -13.128000259399414,-29.006000518798828 0,-29.006000518798828 C13.128000259399414,-29.006000518798828 23.770999908447266,-16.020000457763672 23.770999908447266,0z"></path></g><g opacity="1" transform="matrix(1,0,0,1,173.5070037841797,32.44200134277344)"><path fill="rgb(133,62,19)" fill-opacity="1" d=" M21.85700035095215,-0.0010000000474974513 C21.85700035095215,15.095999717712402 12.071000099182129,27.334999084472656 0,27.334999084472656 C-12.071999549865723,27.334999084472656 -21.85700035095215,15.095999717712402 -21.85700035095215,-0.0010000000474974513 C-21.85700035095215,-15.097999572753906 -12.071999549865723,-27.334999084472656 0,-27.334999084472656 C12.071000099182129,-27.334999084472656 21.85700035095215,-15.097999572753906 21.85700035095215,-0.0010000000474974513z"></path></g><g opacity="1" transform="matrix(1,0,0,1,173.5070037841797,20.547000885009766)"><path fill="rgb(98,36,11)" fill-opacity="1" d=" M21.860000610351562,11.899999618530273 C21.860000610351562,13.100000381469727 21.799999237060547,14.279999732971191 21.670000076293945,15.4399995803833 C20.290000915527344,2.009999990463257 11.109999656677246,-8.369999885559082 0,-8.369999885559082 C-11.109999656677246,-8.369999885559082 -20.290000915527344,2.009999990463257 -21.670000076293945,15.4399995803833 C-21.799999237060547,14.279999732971191 -21.860000610351562,13.100000381469727 -21.860000610351562,11.899999618530273 C-21.860000610351562,-3.200000047683716 -12.069999694824219,-15.4399995803833 0,-15.4399995803833 C12.069999694824219,-15.4399995803833 21.860000610351562,-3.200000047683716 21.860000610351562,11.899999618530273z"></path></g></g><g style="display: block;" transform="matrix(1,0,0,1,187.68101501464844,313.6020202636719)" opacity="1"><g opacity="1" transform="matrix(1,0,0,1,72.15499877929688,37.176998138427734)"><path fill="rgb(255,176,57)" fill-opacity="1" d=" M63.569000244140625,4.581999778747559 C53.0260009765625,-18.809999465942383 30.38599967956543,-36.92599868774414 -0.16500000655651093,-36.92599868774414 C-31.80900001525879,-36.92599868774414 -53.058998107910156,-18.732999801635742 -63.56800079345703,4.581999778747559 C-71.90499877929688,23.077999114990234 -57.61399841308594,36.92599868774414 -43.18899917602539,32.689998626708984 C-28.822999954223633,28.472000122070312 -15.401000022888184,25.945999145507812 0,25.945999145507812 C15.399999618530273,25.945999145507812 28.822999954223633,28.472000122070312 43.18899917602539,32.689998626708984 C57.612998962402344,36.92599868774414 71.90599822998047,23.077999114990234 63.569000244140625,4.581999778747559z"></path></g><g opacity="1" transform="matrix(1,0,0,1,72.15499877929688,43.04999923706055)"><path fill="rgb(255,225,166)" fill-opacity="1" d=" M63.569000244140625,3.628000020980835 C53.0260009765625,-17.67300033569336 30.38599967956543,-34.17100143432617 -0.16500000655651093,-34.17100143432617 C-31.80900001525879,-34.17100143432617 -53.058998107910156,-17.60300064086914 -63.56800079345703,3.628000020980835 C-71.90499877929688,20.472000122070312 -57.61399841308594,34.172000885009766 -43.18899917602539,30.31599998474121 C-28.822999954223633,26.474000930786133 -15.401000022888184,24.17099952697754 0,24.17099952697754 C15.399999618530273,24.17099952697754 28.822999954223633,26.474000930786133 43.18899917602539,30.31599998474121 C57.612998962402344,34.172000885009766 71.90599822998047,20.472000122070312 63.569000244140625,3.628000020980835z"></path></g><g opacity="1" transform="matrix(1,0,0,1,72.15599822998047,39.04999923706055)"><path fill="rgb(133,62,19)" fill-opacity="1" d=" M61.76300048828125,4.627999782562256 C51.51900100708008,-16.67300033569336 29.523000717163086,-33.17100143432617 -0.16099999845027924,-33.17100143432617 C-30.9060001373291,-33.17100143432617 -51.551998138427734,-16.60300064086914 -61.76300048828125,4.627999782562256 C-69.86299896240234,21.472000122070312 -55.97700119018555,33.172000885009766 -41.9630012512207,29.31599998474121 C-28.0049991607666,25.474000930786133 -14.963000297546387,23.17099952697754 0,23.17099952697754 C14.963000297546387,23.17099952697754 28.003000259399414,25.474000930786133 41.96200180053711,29.31599998474121 C55.97600173950195,33.172000885009766 69.86399841308594,21.472000122070312 61.76300048828125,4.627999782562256z"></path></g><g opacity="1" transform="matrix(1,0,0,1,72.15499877929688,34.847999572753906)"><path fill="rgb(98,36,11)" fill-opacity="1" d=" M60.125,28.96500015258789 C60.92499923706055,25.184999465942383 60.46500015258789,20.694000244140625 58.23500061035156,15.774999618530273 C48.57500076293945,-5.525000095367432 27.834999084472656,-20.024999618530273 -0.1550000011920929,-20.024999618530273 C-29.135000228881836,-20.024999618530273 -48.60499954223633,-5.454999923706055 -58.23500061035156,15.774999618530273 C-60.46500015258789,20.694000244140625 -60.92499923706055,25.184999465942383 -60.125,28.96500015258789 C-64.36499786376953,24.415000915527344 -65.82499694824219,17.274999618530273 -61.76499938964844,8.835000038146973 C-51.55500030517578,-12.404999732971191 -30.905000686645508,-28.96500015258789 -0.16500000655651093,-28.96500015258789 C29.52400016784668,-28.96500015258789 51.52399826049805,-12.475000381469727 61.76499938964844,8.835000038146973 C65.82499694824219,17.274999618530273 64.36399841308594,24.415000915527344 60.125,28.96500015258789z"></path></g></g><g style="display: none;"><g><path></path></g><g><path></path></g><g><path></path></g><g><path></path></g></g></g></svg>