<svg xmlns="http://www.w3.org/2000/svg" viewBox="0 0 512 512" width="512" height="512" style="width: 100%; height: 100%; transform: translate3d(0,0,0);" preserveAspectRatio="xMidYMid meet"><defs><clipPath id="__lottie_element_24451"><rect width="512" height="512" x="0" y="0"></rect></clipPath></defs><g clip-path="url(#__lottie_element_24451)"><g style="display: block;" transform="matrix(1.0499999523162842,0,0,1.0499999523162842,36.34526824951172,32.05237579345703)" opacity="1"><g opacity="0.1" transform="matrix(1,0,0,1,208.63099670410156,226.56399536132812)"><path fill="rgb(0,0,0)" fill-opacity="1" d=" M193.02099609375,-0.0010000000474974513 C193.02099609375,106.60299682617188 106.60299682617188,193.02200317382812 0.0010000000474974513,193.02200317382812 C-106.60299682617188,193.02200317382812 -193.02099609375,106.60299682617188 -193.02099609375,-0.0010000000474974513 C-193.02099609375,-106.60399627685547 -106.60299682617188,-193.02099609375 0.0010000000474974513,-193.02099609375 C106.60299682617188,-193.02099609375 193.02099609375,-106.60399627685547 193.02099609375,-0.0010000000474974513z"></path></g><g opacity="1" transform="matrix(1,0,0,1,208.875,208.875)"><path fill="rgb(255,176,57)" fill-opacity="1" d=" M188.875,0 C188.875,104.31300354003906 104.31199645996094,188.875 0,188.875 C-104.31300354003906,188.875 -188.875,104.31300354003906 -188.875,0 C-188.875,-104.31300354003906 -104.31300354003906,-188.875 0,-188.875 C104.31199645996094,-188.875 188.875,-104.31300354003906 188.875,0z"></path></g><g opacity="1" transform="matrix(1,0,0,1,208.875,208.875)"><path stroke-linecap="butt" stroke-linejoin="miter" fill-opacity="0" stroke-miterlimit="10" stroke="rgb(247,125,65)" stroke-opacity="1" stroke-width="8" d=" M188.875,0 C188.875,104.31300354003906 104.31199645996094,188.875 0,188.875 C-104.31300354003906,188.875 -188.875,104.31300354003906 -188.875,0 C-188.875,-104.31300354003906 -104.31300354003906,-188.875 0,-188.875 C104.31199645996094,-188.875 188.875,-104.31300354003906 188.875,0z"></path></g><g opacity="1" transform="matrix(1,0,0,1,208.92999267578125,207.0070037841797)"><path fill="rgb(255,209,64)" fill-opacity="1" d=" M168.3520050048828,2.5810000896453857 C166.89500427246094,97.60900115966797 90.34100341796875,173.49000549316406 -2.63700008392334,172.06500244140625 C-95.61499786376953,170.63900756835938 -169.80799865722656,92.4489974975586 -168.3509979248047,-2.5799999237060547 C-166.89500427246094,-97.60800170898438 -90.33999633789062,-173.48899841308594 2.63700008392334,-172.06399536132812 C95.61599731445312,-170.63900756835938 169.80799865722656,-92.447998046875 168.3520050048828,2.5810000896453857z"></path></g><g opacity="1" transform="matrix(1,0,0,1,208.875,119.05599975585938)"><path fill="rgb(255,223,121)" fill-opacity="1" d=" M149.26800537109375,47.38999938964844 C149.26800537109375,120.03299713134766 82.43800354003906,62.569000244140625 0,62.569000244140625 C-82.43800354003906,62.569000244140625 -149.26699829101562,120.03299713134766 -149.26699829101562,47.38999938964844 C-149.26699829101562,-25.253999710083008 -82.43800354003906,-84.14199829101562 0,-84.14199829101562 C82.43800354003906,-84.14199829101562 149.26800537109375,-25.253999710083008 149.26800537109375,47.38999938964844z"></path></g><g opacity="1" transform="matrix(1,0,0,1,247.63600158691406,39.6879997253418)"><path stroke-linecap="round" stroke-linejoin="round" fill-opacity="0" stroke="rgb(255,255,255)" stroke-opacity="1" stroke-width="6" d=" M-2.3889999389648438,-0.5550000071525574 C-0.8510000109672546,-0.2199999988079071 0.7450000047683716,0.15000000596046448 2.3889999389648438,0.5550000071525574"></path></g><g opacity="1" transform="matrix(1,0,0,1,230.18800354003906,36.68299865722656)"><path stroke-linecap="round" stroke-linejoin="round" fill-opacity="0" stroke="rgb(255,255,255)" stroke-opacity="1" stroke-width="6" d=" M-6.295000076293945,-0.7689999938011169 C-6.295000076293945,-0.7689999938011169 -1.4290000200271606,-0.5090000033378601 6.295000076293945,0.7689999938011169"></path></g></g><g style="display: block;" transform="matrix(1.0499999523162842,0,0,1.0499999523162842,221.61041259765625,313.438720703125)" opacity="1"><g opacity="1" transform="matrix(1,0,0,1,32.430999755859375,37.95100021362305)"><path fill="rgb(255,225,166)" fill-opacity="1" d=" M32.180999755859375,-0.5 C32.180999755859375,17.590999603271484 17.22100067138672,33.25600051879883 0,33.25600051879883 C-17.219999313354492,33.25600051879883 -32.180999755859375,17.590999603271484 -32.180999755859375,-0.5 C-32.180999755859375,-18.59000015258789 -17.219999313354492,-33.25600051879883 0,-33.25600051879883 C17.22100067138672,-33.25600051879883 32.180999755859375,-18.59000015258789 32.180999755859375,-0.5z"></path></g><g opacity="1" transform="matrix(1,0,0,1,32.430999755859375,33.01300048828125)"><path fill="rgb(255,176,57)" fill-opacity="1" d=" M31.180999755859375,0.5009999871253967 C31.180999755859375,18.319000244140625 17.22100067138672,32.763999938964844 0,32.763999938964844 C-17.219999313354492,32.763999938964844 -31.180999755859375,18.319000244140625 -31.180999755859375,0.5009999871253967 C-31.180999755859375,-17.31800079345703 -17.219999313354492,-32.763999938964844 0,-32.763999938964844 C17.22100067138672,-32.763999938964844 31.180999755859375,-17.31800079345703 31.180999755859375,0.5009999871253967z"></path></g><g opacity="1" transform="matrix(1,0,0,1,32.430999755859375,36.073001861572266)"><path fill="rgb(133,62,19)" fill-opacity="1" d=" M30,0 C30,16.56800079345703 16.56800079345703,30 -0.0010000000474974513,30 C-16.56800079345703,30 -30,16.56800079345703 -30,0 C-30,-16.56800079345703 -16.56800079345703,-30 -0.0010000000474974513,-30 C16.56800079345703,-30 30,-16.56800079345703 30,0z"></path></g><g opacity="1" transform="matrix(1,0,0,1,32.43299865722656,25.951000213623047)"><path fill="rgb(98,36,11)" fill-opacity="1" d=" M28.375,19.875999450683594 C28.513999938964844,18.69099998474121 28.58099937438965,17.486000061035156 28.58099937438965,16.267000198364258 C28.58099937438965,-0.30300000309944153 15.781000137329102,-13.73799991607666 -0.003000000026077032,-13.73799991607666 C-15.786999702453613,-13.73799991607666 -28.582000732421875,-0.30300000309944153 -28.582000732421875,16.267000198364258 C-28.582000732421875,17.486000061035156 -28.51300048828125,18.69099998474121 -28.375,19.875999450683594 C-29.429000854492188,16.816999435424805 -30.000999450683594,13.536999702453613 -30.000999450683594,10.119999885559082 C-30.000999450683594,-6.448999881744385 -16.572999954223633,-19.875999450683594 -0.003000000026077032,-19.875999450683594 C16.56599998474121,-19.875999450683594 30.000999450683594,-6.448999881744385 30.000999450683594,10.119999885559082 C30.000999450683594,13.536999702453613 29.43000030517578,16.816999435424805 28.375,19.875999450683594z"></path></g></g><g style="display: none;"><g><path></path></g><g><path></path></g><g><path></path></g><g><path></path></g></g><g style="display: block;" transform="matrix(1.0499999523162842,0,0,1.0499999523162842,105.54027557373047,134.7875213623047)" opacity="1"><g opacity="1" transform="matrix(1,0,0,1,45.23400115966797,24.416000366210938)"><path fill="rgb(250,236,193)" fill-opacity="1" d=" M42.222999572753906,-14.711999893188477 C41.21699905395508,-16.042999267578125 37.816001892089844,-17.785999298095703 35.06999969482422,-18.773000717163086 C23.16699981689453,-23.049999237060547 -1.3609999418258667,-19.509000778198242 -19.35700035095215,-6.914000034332275 C-44.98500061035156,11.022000312805176 -38.470001220703125,23.049999237060547 -32.869998931884766,19.479999542236328 C-27.270000457763672,15.909000396728516 -7.892000198364258,-0.04699999839067459 20.891000747680664,-2.4010000228881836 C28.60300064086914,-3.0320000648498535 34.125,-2.628000020980835 38.3650016784668,-3.3540000915527344 C43.96500015258789,-4.313000202178955 44.98500061035156,-11.0600004196167 42.222999572753906,-14.711999893188477z"></path></g><g opacity="1" transform="matrix(1,0,0,1,46.28900146484375,21.68899917602539)"><path fill="rgb(133,62,19)" fill-opacity="1" d=" M40.70800018310547,-12.647000312805176 C39.70199966430664,-13.977999687194824 36.65999984741211,-15.970999717712402 33.91299819946289,-16.95800018310547 C22.01099967956543,-21.235000610351562 0.15299999713897705,-21.43899917602539 -17.843000411987305,-8.845000267028809 C-43.470001220703125,9.090999603271484 -39.9109992980957,21.43899917602539 -34.31100082397461,17.868999481201172 C-28.711000442504883,14.298999786376953 -9.331999778747559,-1.6579999923706055 19.450000762939453,-4.01200008392334 C27.163000106811523,-4.64300012588501 32.68600082397461,-4.238999843597412 36.92499923706055,-4.964000225067139 C42.525001525878906,-5.922999858856201 43.470001220703125,-8.994999885559082 40.70800018310547,-12.647000312805176z"></path></g><g opacity="1" transform="matrix(1,0,0,1,47.54899978637695,20.07900047302246)"><path fill="rgb(98,36,11)" fill-opacity="1" d=" M40.125999450683594,-5.326000213623047 C40.11399841308594,-5.3520002365112305 40.090999603271484,-5.386000156402588 40.069000244140625,-5.410999774932861 C39.0629997253418,-6.738999843597412 36.025001525878906,-8.73799991607666 33.2760009765625,-9.71500015258789 C21.3799991607666,-13.996999740600586 -0.48399999737739563,-14.199000358581543 -18.472999572753906,-1.6109999418258667 C-31.29599952697754,7.366000175476074 -36.805999755859375,14.947999954223633 -38.415000915527344,19.826000213623047 C-41.441001892089844,18.01099967956543 -39.71699905395508,7.193999767303467 -19.097999572753906,-7.23799991607666 C-1.1089999675750732,-19.825000762939453 20.7549991607666,-19.624000549316406 32.650001525878906,-15.35099983215332 C35.400001525878906,-14.36400032043457 38.4379997253418,-12.366000175476074 39.444000244140625,-11.036999702453613 C41.143001556396484,-8.79800033569336 41.44200134277344,-6.77400016784668 40.125999450683594,-5.326000213623047z"></path></g></g><g style="display: block;" transform="matrix(-1.0499999523162842,0,0,1.0499999523162842,406.5647888183594,134.7875213623047)" opacity="1"><g opacity="1" transform="matrix(1,0,0,1,45.23400115966797,24.416000366210938)"><path fill="rgb(250,236,193)" fill-opacity="1" d=" M42.222999572753906,-14.711999893188477 C41.21699905395508,-16.042999267578125 37.816001892089844,-17.785999298095703 35.06999969482422,-18.773000717163086 C23.16699981689453,-23.049999237060547 -1.3609999418258667,-19.509000778198242 -19.35700035095215,-6.914000034332275 C-44.98500061035156,11.022000312805176 -38.470001220703125,23.049999237060547 -32.869998931884766,19.479999542236328 C-27.270000457763672,15.909000396728516 -7.892000198364258,-0.04699999839067459 20.891000747680664,-2.4010000228881836 C28.60300064086914,-3.0320000648498535 34.125,-2.628000020980835 38.3650016784668,-3.3540000915527344 C43.96500015258789,-4.313000202178955 44.98500061035156,-11.0600004196167 42.222999572753906,-14.711999893188477z"></path></g><g opacity="1" transform="matrix(1,0,0,1,46.28900146484375,21.68899917602539)"><path fill="rgb(133,62,19)" fill-opacity="1" d=" M40.70800018310547,-12.647000312805176 C39.70199966430664,-13.977999687194824 36.65999984741211,-15.970999717712402 33.91299819946289,-16.95800018310547 C22.01099967956543,-21.235000610351562 0.15299999713897705,-21.43899917602539 -17.843000411987305,-8.845000267028809 C-43.470001220703125,9.090999603271484 -39.9109992980957,21.43899917602539 -34.31100082397461,17.868999481201172 C-28.711000442504883,14.298999786376953 -9.331999778747559,-1.6579999923706055 19.450000762939453,-4.01200008392334 C27.163000106811523,-4.64300012588501 32.68600082397461,-4.238999843597412 36.92499923706055,-4.964000225067139 C42.525001525878906,-5.922999858856201 43.470001220703125,-8.994999885559082 40.70800018310547,-12.647000312805176z"></path></g><g opacity="1" transform="matrix(1,0,0,1,47.54899978637695,20.07900047302246)"><path fill="rgb(98,36,11)" fill-opacity="1" d=" M40.125999450683594,-5.326000213623047 C40.11399841308594,-5.3520002365112305 40.090999603271484,-5.386000156402588 40.069000244140625,-5.410999774932861 C39.0629997253418,-6.738999843597412 36.025001525878906,-8.73799991607666 33.2760009765625,-9.71500015258789 C21.3799991607666,-13.996999740600586 -0.48399999737739563,-14.199000358581543 -18.472999572753906,-1.6109999418258667 C-31.29599952697754,7.366000175476074 -36.805999755859375,14.947999954223633 -38.415000915527344,19.826000213623047 C-41.441001892089844,18.01099967956543 -39.71699905395508,7.193999767303467 -19.097999572753906,-7.23799991607666 C-1.1089999675750732,-19.825000762939453 20.7549991607666,-19.624000549316406 32.650001525878906,-15.35099983215332 C35.400001525878906,-14.36400032043457 38.4379997253418,-12.366000175476074 39.444000244140625,-11.036999702453613 C41.143001556396484,-8.79800033569336 41.44200134277344,-6.77400016784668 40.125999450683594,-5.326000213623047z"></path></g></g><g style="display: block;" transform="matrix(1.0499999523162842,0,0,1.0499999523162842,152.52041625976562,213.80001831054688)" opacity="1"><g opacity="1" transform="matrix(1,0,0,1,173.5070037841797,32.584999084472656)"><path fill="rgb(255,225,166)" fill-opacity="1" d=" M23.770999908447266,0 C23.770999908447266,17.857999801635742 13.128000259399414,32.334999084472656 0,32.334999084472656 C-13.128000259399414,32.334999084472656 -23.770999908447266,17.857999801635742 -23.770999908447266,0 C-23.770999908447266,-17.857999801635742 -13.128000259399414,-32.334999084472656 0,-32.334999084472656 C13.128000259399414,-32.334999084472656 23.770999908447266,-17.857999801635742 23.770999908447266,0z"></path></g><g opacity="1" transform="matrix(1,0,0,1,173.5070037841797,29.256000518798828)"><path fill="rgb(255,176,57)" fill-opacity="1" d=" M23.770999908447266,0 C23.770999908447266,16.020000457763672 13.128000259399414,29.006000518798828 0,29.006000518798828 C-13.128000259399414,29.006000518798828 -23.770999908447266,16.020000457763672 -23.770999908447266,0 C-23.770999908447266,-16.020000457763672 -13.128000259399414,-29.006000518798828 0,-29.006000518798828 C13.128000259399414,-29.006000518798828 23.770999908447266,-16.020000457763672 23.770999908447266,0z"></path></g><g opacity="1" transform="matrix(1,0,0,1,173.5070037841797,32.44200134277344)"><path fill="rgb(133,62,19)" fill-opacity="1" d=" M21.85700035095215,-0.0010000000474974513 C21.85700035095215,15.095999717712402 12.071000099182129,27.334999084472656 0,27.334999084472656 C-12.071999549865723,27.334999084472656 -21.85700035095215,15.095999717712402 -21.85700035095215,-0.0010000000474974513 C-21.85700035095215,-15.097999572753906 -12.071999549865723,-27.334999084472656 0,-27.334999084472656 C12.071000099182129,-27.334999084472656 21.85700035095215,-15.097999572753906 21.85700035095215,-0.0010000000474974513z"></path></g><g opacity="1" transform="matrix(1,0,0,1,173.5070037841797,20.547000885009766)"><path fill="rgb(98,36,11)" fill-opacity="1" d=" M21.860000610351562,11.899999618530273 C21.860000610351562,13.100000381469727 21.799999237060547,14.279999732971191 21.670000076293945,15.4399995803833 C20.290000915527344,2.009999990463257 11.109999656677246,-8.369999885559082 0,-8.369999885559082 C-11.109999656677246,-8.369999885559082 -20.290000915527344,2.009999990463257 -21.670000076293945,15.4399995803833 C-21.799999237060547,14.279999732971191 -21.860000610351562,13.100000381469727 -21.860000610351562,11.899999618530273 C-21.860000610351562,-3.200000047683716 -12.069999694824219,-15.4399995803833 0,-15.4399995803833 C12.069999694824219,-15.4399995803833 21.860000610351562,-3.200000047683716 21.860000610351562,11.899999618530273z"></path></g></g><g style="display: block;" transform="matrix(-1.0499999523162842,0,0,1.0499999523162842,359.9101257324219,213.80001831054688)" opacity="1"><g opacity="1" transform="matrix(1,0,0,1,173.5070037841797,32.584999084472656)"><path fill="rgb(255,225,166)" fill-opacity="1" d=" M23.770999908447266,0 C23.770999908447266,17.857999801635742 13.128000259399414,32.334999084472656 0,32.334999084472656 C-13.128000259399414,32.334999084472656 -23.770999908447266,17.857999801635742 -23.770999908447266,0 C-23.770999908447266,-17.857999801635742 -13.128000259399414,-32.334999084472656 0,-32.334999084472656 C13.128000259399414,-32.334999084472656 23.770999908447266,-17.857999801635742 23.770999908447266,0z"></path></g><g opacity="1" transform="matrix(1,0,0,1,173.5070037841797,29.256000518798828)"><path fill="rgb(255,176,57)" fill-opacity="1" d=" M23.770999908447266,0 C23.770999908447266,16.020000457763672 13.128000259399414,29.006000518798828 0,29.006000518798828 C-13.128000259399414,29.006000518798828 -23.770999908447266,16.020000457763672 -23.770999908447266,0 C-23.770999908447266,-16.020000457763672 -13.128000259399414,-29.006000518798828 0,-29.006000518798828 C13.128000259399414,-29.006000518798828 23.770999908447266,-16.020000457763672 23.770999908447266,0z"></path></g><g opacity="1" transform="matrix(1,0,0,1,173.5070037841797,32.44200134277344)"><path fill="rgb(133,62,19)" fill-opacity="1" d=" M21.85700035095215,-0.0010000000474974513 C21.85700035095215,15.095999717712402 12.071000099182129,27.334999084472656 0,27.334999084472656 C-12.071999549865723,27.334999084472656 -21.85700035095215,15.095999717712402 -21.85700035095215,-0.0010000000474974513 C-21.85700035095215,-15.097999572753906 -12.071999549865723,-27.334999084472656 0,-27.334999084472656 C12.071000099182129,-27.334999084472656 21.85700035095215,-15.097999572753906 21.85700035095215,-0.0010000000474974513z"></path></g><g opacity="1" transform="matrix(1,0,0,1,173.5070037841797,20.547000885009766)"><path fill="rgb(98,36,11)" fill-opacity="1" d=" M21.860000610351562,11.899999618530273 C21.860000610351562,13.100000381469727 21.799999237060547,14.279999732971191 21.670000076293945,15.4399995803833 C20.290000915527344,2.009999990463257 11.109999656677246,-8.369999885559082 0,-8.369999885559082 C-11.109999656677246,-8.369999885559082 -20.290000915527344,2.009999990463257 -21.670000076293945,15.4399995803833 C-21.799999237060547,14.279999732971191 -21.860000610351562,13.100000381469727 -21.860000610351562,11.899999618530273 C-21.860000610351562,-3.200000047683716 -12.069999694824219,-15.4399995803833 0,-15.4399995803833 C12.069999694824219,-15.4399995803833 21.860000610351562,-3.200000047683716 21.860000610351562,11.899999618530273z"></path></g></g></g></svg>