<svg xmlns="http://www.w3.org/2000/svg" viewBox="0 0 512 512" width="512" height="512" style="width: 100%; height: 100%; transform: translate3d(0,0,0);" preserveAspectRatio="xMidYMid meet"><defs><clipPath id="__lottie_element_24498"><rect width="512" height="512" x="0" y="0"></rect></clipPath></defs><g clip-path="url(#__lottie_element_24498)"><g style="display: block;" transform="matrix(1,0,0,1,48.02299499511719,41.906982421875)" opacity="1"><g opacity="0.1" transform="matrix(1,0,0,1,207.93099975585938,226.0449981689453)"><path fill="rgb(0,0,0)" fill-opacity="1" d=" M192.96499633789062,0 C192.96499633789062,106.57099914550781 106.57099914550781,192.96499633789062 0,192.96499633789062 C-106.5719985961914,192.96499633789062 -192.96499633789062,106.57099914550781 -192.96499633789062,0 C-192.96499633789062,-106.5719985961914 -106.5719985961914,-192.96499633789062 0,-192.96499633789062 C106.57099914550781,-192.96499633789062 192.96499633789062,-106.5719985961914 192.96499633789062,0z"></path></g><g opacity="1" transform="matrix(1,0,0,1,208.87600708007812,208.875)"><path fill="rgb(255,176,57)" fill-opacity="1" d=" M188.87600708007812,0 C188.87600708007812,104.31300354003906 104.31199645996094,188.875 -0.0010000000474974513,188.875 C-104.31400299072266,188.875 -188.87600708007812,104.31300354003906 -188.87600708007812,0 C-188.87600708007812,-104.31300354003906 -104.31400299072266,-188.875 -0.0010000000474974513,-188.875 C104.31199645996094,-188.875 188.87600708007812,-104.31300354003906 188.87600708007812,0z"></path></g><g opacity="1" transform="matrix(1,0,0,1,208.92999267578125,207.0070037841797)"><path fill="rgb(255,209,64)" fill-opacity="1" d=" M168.3520050048828,2.5810000896453857 C166.89500427246094,97.60900115966797 90.34100341796875,173.49000549316406 -2.63700008392334,172.06500244140625 C-95.61499786376953,170.63900756835938 -169.80799865722656,92.4489974975586 -168.3509979248047,-2.5799999237060547 C-166.89500427246094,-97.60800170898438 -90.33999633789062,-173.48899841308594 2.638000011444092,-172.06399536132812 C95.61599731445312,-170.63900756835938 169.80799865722656,-92.447998046875 168.3520050048828,2.5810000896453857z"></path></g><g opacity="1" transform="matrix(1,0,0,1,208.87600708007812,208.875)"><path stroke-linecap="butt" stroke-linejoin="miter" fill-opacity="0" stroke-miterlimit="10" stroke="rgb(247,125,65)" stroke-opacity="1" stroke-width="8" d=" M188.87600708007812,0 C188.87600708007812,104.31300354003906 104.31199645996094,188.875 -0.0010000000474974513,188.875 C-104.31400299072266,188.875 -188.87600708007812,104.31300354003906 -188.87600708007812,0 C-188.87600708007812,-104.31300354003906 -104.31400299072266,-188.875 -0.0010000000474974513,-188.875 C104.31199645996094,-188.875 188.87600708007812,-104.31300354003906 188.87600708007812,0z"></path></g><g opacity="1" transform="matrix(1,0,0,1,208.875,119.05599975585938)"><path fill="rgb(255,223,121)" fill-opacity="1" d=" M149.26699829101562,47.38999938964844 C149.26699829101562,120.03299713134766 82.43800354003906,62.569000244140625 -0.0010000000474974513,62.569000244140625 C-82.43900299072266,62.569000244140625 -149.26800537109375,120.03299713134766 -149.26800537109375,47.38999938964844 C-149.26800537109375,-25.253999710083008 -82.43900299072266,-84.14199829101562 -0.0010000000474974513,-84.14199829101562 C82.43800354003906,-84.14199829101562 149.26699829101562,-25.253999710083008 149.26699829101562,47.38999938964844z"></path></g><g opacity="1" transform="matrix(1,0,0,1,247.63699340820312,39.6879997253418)"><path stroke-linecap="round" stroke-linejoin="round" fill-opacity="0" stroke="rgb(255,255,255)" stroke-opacity="1" stroke-width="6" d=" M-2.388000011444092,-0.5550000071525574 C-0.8510000109672546,-0.2199999988079071 0.7440000176429749,0.15000000596046448 2.388000011444092,0.5550000071525574"></path></g><g opacity="1" transform="matrix(1,0,0,1,230.18899536132812,36.68299865722656)"><path stroke-linecap="round" stroke-linejoin="round" fill-opacity="0" stroke="rgb(255,255,255)" stroke-opacity="1" stroke-width="6" d=" M-6.295000076293945,-0.7689999938011169 C-6.295000076293945,-0.7689999938011169 -1.4279999732971191,-0.5090000033378601 6.295000076293945,0.7689999938011169"></path></g></g><g style="display: block;" transform="matrix(1,0,0,1,158.67800903320312,233.24197387695312)" opacity="1"><g opacity="1" transform="matrix(1,0,0,1,97.70600128173828,94.38500213623047)"><path fill="rgb(255,225,166)" fill-opacity="1" d=" M97.45600128173828,0 C97.45600128173828,50.53499984741211 53.821998596191406,91.50199890136719 -0.0010000000474974513,91.50199890136719 C-53.82400131225586,91.50199890136719 -97.45600128173828,50.53499984741211 -97.45600128173828,0 C-97.45600128173828,-50.5359992980957 -53.82400131225586,-91.50199890136719 -0.0010000000474974513,-91.50199890136719 C53.821998596191406,-91.50199890136719 97.45600128173828,-50.5359992980957 97.45600128173828,0z"></path></g><g opacity="1" transform="matrix(1,0,0,1,97.70600128173828,89.5)"><path fill="rgb(255,176,57)" fill-opacity="1" d=" M97.45600128173828,0.0010000000474974513 C97.45600128173828,49.29199981689453 53.821998596191406,89.2490005493164 -0.0010000000474974513,89.2490005493164 C-53.82400131225586,89.2490005493164 -97.45600128173828,49.29199981689453 -97.45600128173828,0.0010000000474974513 C-97.45600128173828,-49.290000915527344 -53.82400131225586,-89.2490005493164 -0.0010000000474974513,-89.2490005493164 C53.821998596191406,-89.2490005493164 97.45600128173828,-49.290000915527344 97.45600128173828,0.0010000000474974513z"></path></g><g opacity="1" transform="matrix(1,0,0,1,97.70600128173828,94.73799896240234)"><path fill="rgb(133,62,19)" fill-opacity="1" d=" M93.76399993896484,-0.0010000000474974513 C93.76399993896484,47.974998474121094 51.78499984741211,86.86499786376953 0,86.86499786376953 C-51.78499984741211,86.86499786376953 -93.76399993896484,47.974998474121094 -93.76399993896484,-0.0010000000474974513 C-93.76399993896484,-47.974998474121094 -51.78499984741211,-86.86499786376953 0,-86.86499786376953 C51.78499984741211,-86.86499786376953 93.76399993896484,-47.974998474121094 93.76399993896484,-0.0010000000474974513z"></path></g><g opacity="1" transform="matrix(1,0,0,1,97.70700073242188,51.00600051879883)"><path fill="rgb(98,36,11)" fill-opacity="1" d=" M93.76499938964844,41.729000091552734 C93.76499938964844,42.869998931884766 93.74500274658203,44.000999450683594 93.68499755859375,45.130001068115234 C91.76499938964844,-1.2799999713897705 50.55500030517578,-36.34000015258789 -0.004999999888241291,-36.34000015258789 C-50.55500030517578,-36.34000015258789 -91.76499938964844,-1.2799999713897705 -93.68499755859375,45.130001068115234 C-93.74500274658203,44.000999450683594 -93.76499938964844,42.869998931884766 -93.76499938964844,41.729000091552734 C-93.76499938964844,-6.241000175476074 -51.78499984741211,-45.130001068115234 -0.004999999888241291,-45.130001068115234 C51.7859992980957,-45.130001068115234 93.76499938964844,-6.241000175476074 93.76499938964844,41.729000091552734z"></path></g></g><g style="display: block;" transform="matrix(1,0,0,1,135.67300415039062,149.06898498535156)" opacity="1"><g opacity="1" transform="matrix(1,0,0,1,42.972999572753906,31.448999404907227)"><path fill="rgb(255,176,57)" fill-opacity="1" d=" M41.98899841308594,-13.241000175476074 C42.722999572753906,-28.222000122070312 13.012999534606934,-31.198999404907227 -13.732000350952148,-15.359999656677246 C-39.95100021362305,0.16599999368190765 -42.722999572753906,15.765999794006348 -34.24300003051758,23.48200035095215 C-25.763999938964844,31.197999954223633 -14.545000076293945,12.630000114440918 1.6970000267028809,4.048999786376953 C24.479999542236328,-7.98799991607666 41.29600143432617,0.8880000114440918 41.98899841308594,-13.241000175476074z"></path></g><g opacity="1" transform="matrix(1,0,0,1,44.18199920654297,35.28300094604492)"><path fill="rgb(250,236,193)" fill-opacity="1" d=" M40.779998779296875,-11.281999588012695 C42.4119987487793,-30.31399917602539 9.427000045776367,-24.81800079345703 -13.291999816894531,-12.559000015258789 C-36.895999908447266,0.17599999904632568 -42.4119987487793,16.527000427246094 -33.98699951171875,23.420000076293945 C-25.56100082397461,30.31399917602539 -13.413999557495117,14.619000434875488 2.7249999046325684,6.952000141143799 C25.363000869750977,-3.802000045776367 39.79399871826172,0.20999999344348907 40.779998779296875,-11.281999588012695z"></path></g><g opacity="1" transform="matrix(1,0,0,1,42.72999954223633,33.60599899291992)"><path fill="rgb(133,62,19)" fill-opacity="1" d=" M40.231998443603516,-13.605999946594238 C40.96099853515625,-26.990999221801758 13.54699993133545,-26.864999771118164 -9.17300033569336,-14.605999946594238 C-32.777000427246094,-1.8700000047683716 -40.959999084472656,13.204000473022461 -32.53499984741211,20.097000122070312 C-24.108999252319336,26.990999221801758 -12.963000297546387,11.295000076293945 3.1760001182556152,3.628000020980835 C25.81399917602539,-7.125999927520752 39.54399871826172,-0.9829999804496765 40.231998443603516,-13.605999946594238z"></path></g><g opacity="1" transform="matrix(1,0,0,1,44.17900085449219,28.295000076293945)"><path fill="rgb(98,36,11)" fill-opacity="1" d=" M38.78499984741211,-8.295000076293945 C38.724998474121094,-7.175000190734863 38.55500030517578,-6.204999923706055 38.28499984741211,-5.355000019073486 C34.474998474121094,-15.234999656677246 9.984999656677246,-14.104999542236328 -10.625,-2.984999895095825 C-25.795000076293945,5.204999923706055 -34.584999084472656,14.354999542236328 -36.69499969482422,21.674999237060547 C-39.51499938964844,13.925000190734863 -30.584999084472656,1.4850000143051147 -10.625,-9.295000076293945 C12.095000267028809,-21.55500030517578 39.51499938964844,-21.674999237060547 38.78499984741211,-8.295000076293945z"></path></g></g><g style="display: block;" transform="matrix(-1,0,0,1,376.04901123046875,149.06898498535156)" opacity="1"><g opacity="1" transform="matrix(1,0,0,1,42.972999572753906,31.448999404907227)"><path fill="rgb(255,176,57)" fill-opacity="1" d=" M41.98899841308594,-13.241000175476074 C42.722999572753906,-28.222000122070312 13.012999534606934,-31.198999404907227 -13.732000350952148,-15.359999656677246 C-39.95100021362305,0.16599999368190765 -42.722999572753906,15.765999794006348 -34.24300003051758,23.48200035095215 C-25.763999938964844,31.197999954223633 -14.545000076293945,12.630000114440918 1.6970000267028809,4.048999786376953 C24.479999542236328,-7.98799991607666 41.29600143432617,0.8880000114440918 41.98899841308594,-13.241000175476074z"></path></g><g opacity="1" transform="matrix(1,0,0,1,44.18199920654297,35.28300094604492)"><path fill="rgb(250,236,193)" fill-opacity="1" d=" M40.779998779296875,-11.281999588012695 C42.4119987487793,-30.31399917602539 9.427000045776367,-24.81800079345703 -13.291999816894531,-12.559000015258789 C-36.895999908447266,0.17599999904632568 -42.4119987487793,16.527000427246094 -33.98699951171875,23.420000076293945 C-25.56100082397461,30.31399917602539 -13.413999557495117,14.619000434875488 2.7249999046325684,6.952000141143799 C25.363000869750977,-3.802000045776367 39.79399871826172,0.20999999344348907 40.779998779296875,-11.281999588012695z"></path></g><g opacity="1" transform="matrix(1,0,0,1,42.72999954223633,33.60599899291992)"><path fill="rgb(133,62,19)" fill-opacity="1" d=" M40.231998443603516,-13.605999946594238 C40.96099853515625,-26.990999221801758 13.54699993133545,-26.864999771118164 -9.17300033569336,-14.605999946594238 C-32.777000427246094,-1.8700000047683716 -40.959999084472656,13.204000473022461 -32.53499984741211,20.097000122070312 C-24.108999252319336,26.990999221801758 -12.963000297546387,11.295000076293945 3.1760001182556152,3.628000020980835 C25.81399917602539,-7.125999927520752 39.54399871826172,-0.9829999804496765 40.231998443603516,-13.605999946594238z"></path></g><g opacity="1" transform="matrix(1,0,0,1,44.17900085449219,28.295000076293945)"><path fill="rgb(98,36,11)" fill-opacity="1" d=" M38.78499984741211,-8.295000076293945 C38.724998474121094,-7.175000190734863 38.55500030517578,-6.204999923706055 38.28499984741211,-5.355000019073486 C34.474998474121094,-15.234999656677246 9.984999656677246,-14.104999542236328 -10.625,-2.984999895095825 C-25.795000076293945,5.204999923706055 -34.584999084472656,14.354999542236328 -36.69499969482422,21.674999237060547 C-39.51499938964844,13.925000190734863 -30.584999084472656,1.4850000143051147 -10.625,-9.295000076293945 C12.095000267028809,-21.55500030517578 39.51499938964844,-21.674999237060547 38.78499984741211,-8.295000076293945z"></path></g></g><g style="display: block;" transform="matrix(1,0,0,1,136.06700134277344,220.4969940185547)" opacity="1"><g opacity="1" transform="matrix(1,0,0,1,139.47799682617188,62.016998291015625)"><path fill="rgb(255,209,64)" fill-opacity="1" d=" M-45.08399963378906,34.5989990234375 C-38.64699935913086,28.39699935913086 -21.04400062561035,7.796999931335449 -14.550999641418457,0.8550000190734863 C5.070000171661377,-20.1200008392334 20.406999588012695,-41.959999084472656 32.939998626708984,-33.24399948120117 C45.08399963378906,-24.79800033569336 27.76099967956543,-9.248000144958496 12.805999755859375,7.995999813079834 C-2.3550000190734863,25.479000091552734 -15.791000366210938,36.86600112915039 -12.52299976348877,41.959999084472656 C-12.52299976348877,41.959999084472656 -45.08399963378906,34.5989990234375 -45.08399963378906,34.5989990234375z"></path></g><g opacity="1" transform="matrix(1,0,0,1,172.87600708007812,86.22699737548828)"><path fill="rgb(255,209,64)" fill-opacity="1" d=" M-29.875999450683594,46.52000045776367 C-31.131999969482422,44.30500030517578 -16.29400062561035,31.847000122070312 5.3420000076293945,12.317000389099121 C29.246000289916992,-9.260000228881836 45.97800064086914,-26.895000457763672 37.24800109863281,-35.861000061035156 C26.868000030517578,-46.51900100708008 15.142999649047852,-33.777000427246094 -6.275000095367432,-13.98900032043457 C-23.711999893188477,2.122999906539917 -43.35599899291992,23.26300048828125 -45.97700119018555,19.607999801635742"></path></g><g opacity="1" transform="matrix(1,0,0,1,188.96400451660156,123.12699890136719)"><path fill="rgb(255,209,64)" fill-opacity="1" d=" M-44.46500015258789,7.761000156402588 C-41.74399948120117,12.604999542236328 -29.006999969482422,3.5460000038146973 -4.581999778747559,-15.07699966430664 C14.138999938964844,-29.351999282836914 30.202999114990234,-40.03200149536133 36.72600173950195,-31.218000411987305 C44.46500015258789,-20.76099967956543 25.624000549316406,-6.2170000076293945 2.1510000228881836,10.279000282287598 C-21.320999145507812,26.77400016784668 -38.683998107910156,35.777000427246094 -36.492000579833984,40.03200149536133"></path></g><g opacity="1" transform="matrix(1,0,0,1,207.26600646972656,98.01300048828125)"><path fill="rgb(255,223,121)" fill-opacity="1" d=" M14.135000228881836,10.973999977111816 C14.135000228881836,10.973999977111816 16.12700080871582,-3.680999994277954 4.574999809265137,-1.277999997138977 C-5.861999988555908,0.8930000066757202 -9.378999710083008,4.269000053405762 -19.863000869750977,8.555999755859375 C-19.863000869750977,8.555999755859375 2.4600000381469727,-11.215999603271484 9.888999938964844,-10.972000122070312 C22.165000915527344,-10.569999694824219 22.53499984741211,3.203000068664551 14.135000228881836,10.973999977111816z"></path></g><g opacity="1" transform="matrix(1,0,0,1,188.4929962158203,168.70799255371094)"><path fill="rgb(255,209,64)" fill-opacity="1" d=" M-32.38199996948242,-4.067999839782715 C-31.07200050354004,-1.3990000486373901 -17.841999053955078,-9.918999671936035 -4.13100004196167,-17.211999893188477 C13.821000099182129,-26.760000228881836 23.378999710083008,-30.834999084472656 28.70400047302246,-23.392000198364258 C36.604000091552734,-12.35200023651123 20.81399917602539,-2.4200000762939453 -1.7690000534057617,10.067000389099121 C-14.432999610900879,17.069000244140625 -28.618999481201172,25.90999984741211 -36.604000091552734,30.834999084472656 C-36.604000091552734,30.834999084472656 -32.38199996948242,-4.067999839782715 -32.38199996948242,-4.067999839782715z"></path></g><g opacity="1" transform="matrix(1,0,0,1,202.3280029296875,152.2570037841797)"><path fill="rgb(255,223,121)" fill-opacity="1" d=" M9.376999855041504,9.887999534606934 C9.376999855041504,9.887999534606934 12.800000190734863,-1.3730000257492065 6.295000076293945,-3.5139999389648438 C-0.14900000393390656,-5.636000156402588 -9.78600025177002,-0.289000004529953 -17.222999572753906,1.8049999475479126 C-17.222999572753906,1.8049999475479126 4.255000114440918,-16.96500015258789 14.868000030517578,-6.940999984741211 C22.423999786376953,0.19499999284744263 9.376999855041504,9.887999534606934 9.376999855041504,9.887999534606934z"></path></g><g opacity="1" transform="matrix(1,0,0,1,92.61100006103516,134.00999450683594)"><path fill="rgb(255,209,64)" fill-opacity="1" d=" M1.975000023841858,-36.56100082397461 C-6.960000038146973,-27.069000244140625 -15.196999549865723,-20.131000518798828 -19.981000900268555,-28.95800018310547 C-24.764999389648438,-37.7859992980957 -17.940000534057617,-57.67100143432617 -19.09000015258789,-67.66100311279297 C-20.92099952697754,-83.55000305175781 -31.28700065612793,-99.79000091552734 -42.111000061035156,-94.26599884033203 C-52.935001373291016,-88.74199676513672 -49.39099884033203,-70.99800109863281 -49.007999420166016,-56.619998931884766 C-48.74700164794922,-46.81700134277344 -51.6879997253418,-32.66600036621094 -56.27399826049805,-21.15999984741211 C-61.66699981689453,-7.630000114440918 -62.665000915527344,-4.869999885559082 -67.63800048828125,13.835000038146973 C-72.61100006103516,32.53799819946289 -68.09100341796875,50.96699905395508 -59.229000091552734,64.54299926757812 C-50.564998626708984,77.81600189208984 -33.222999572753906,94.68599700927734 -11.359999656677246,97.01599884033203 C14.663000106811523,99.79100036621094 49.584999084472656,73.0459976196289 59.80500030517578,65.50800323486328 C59.80500030517578,65.50800323486328 72.61100006103516,42.31800079345703 61.62099838256836,29.04599952697754 C61.62099838256836,29.04599952697754 66.96600341796875,9.020000457763672 52.064998626708984,-2.4509999752044678 C52.064998626708984,-2.4509999752044678 52.25600051879883,-22.483999252319336 34.38600158691406,-29.07900047302246 C34.38600158691406,-29.07900047302246 19.202999114990234,-54.8650016784668 1.975000023841858,-36.56100082397461z"></path></g><g opacity="1" transform="matrix(1,0,0,1,114.02100372314453,180.48500061035156)"><path fill="rgb(255,176,57)" fill-opacity="1" d=" M-78.5250015258789,-54.21900177001953 C-78.5250015258789,-54.21900177001953 -91.85199737548828,-8.039999961853027 -50.05699920654297,17.80299949645996 C-5.389999866485596,45.42300033569336 24.34600067138672,7.322999954223633 96.82099914550781,-19.364999771118164 C96.82099914550781,-19.364999771118164 4.198999881744385,46.81700134277344 -19.364999771118164,50.518001556396484 C-42.92900085449219,54.21900177001953 -69.8290023803711,39.957000732421875 -80.63999938964844,18.069000244140625 C-91.44999694824219,-3.819000005722046 -96.82099914550781,-30.12299919128418 -78.5250015258789,-54.21900177001953z"></path></g><g opacity="1" transform="matrix(1,0,0,1,58.71200180053711,72.23799896240234)"><path fill="rgb(255,223,121)" fill-opacity="1" d=" M14.86299991607666,38.02000045776367 C-1.0880000591278076,29.636999130249023 15.29800033569336,-11.581000328063965 -2.0959999561309814,-21.777000427246094 C-9.901000022888184,-26.35300064086914 -15.604999542236328,-13.402000427246094 -15.604999542236328,-13.402000427246094 C-15.604999542236328,-13.402000427246094 -15.956000328063965,-14.142000198364258 -15.956000328063965,-14.142000198364258 C-15.864999771118164,-22.297000885009766 -14.343000411987305,-29.361000061035156 -8.21500015258789,-32.49700164794922 C2.6110000610351562,-38.02000045776367 12.979999542236328,-21.781999588012695 14.807999610900879,-5.885000228881836 C15.956000328063965,4.0980000495910645 10.083999633789062,29.195999145507812 14.86299991607666,38.02000045776367z"></path></g><g opacity="1" transform="matrix(1,0,0,1,168.5030059814453,78.88500213623047)"><path fill="rgb(255,223,121)" fill-opacity="1" d=" M39.209999084472656,-11.427000045776367 C39.209999084472656,-11.427000045776367 38.34700012207031,-24.30699920654297 27.834999084472656,-19.827999114990234 C20.253999710083008,-16.599000930786133 7.611000061035156,-3.055000066757202 -7.439000129699707,11.310999870300293 C-18.64299964904785,22.006000518798828 -36.18899917602539,40.27199935913086 -43.86800003051758,27.339000701904297 C-43.86800003051758,27.339000701904297 -36.66299819946289,26.341999053955078 -29.479000091552734,19.9689998626709 C-11.385000228881836,3.9170000553131104 19.613000869750977,-27.775999069213867 27.250999450683594,-30.799999237060547 C37.922000885009766,-35.025001525878906 51.0099983215332,-25.295000076293945 39.209999084472656,-11.427000045776367z"></path></g><g opacity="1" transform="matrix(1,0,0,1,128.1219940185547,69.67500305175781)"><path fill="rgb(255,223,121)" fill-opacity="1" d=" M-48.01300048828125,39.77399826049805 C-45.77799987792969,47.99100112915039 -33.37699890136719,40.013999938964844 -16.358999252319336,21.499000549316406 C-4.215000152587891,8.28600025177002 20.959999084472656,-22.277999877929688 30.413999557495117,-28.759000778198242 C40.32400131225586,-35.551998138427734 46.26499938964844,-26.579999923706055 46.26499938964844,-26.579999923706055 C48.891998291015625,-29.21500015258789 48.37900161743164,-35.86000061035156 45.91600036621094,-39.54499816894531 C45.430999755859375,-40.00299835205078 44.89400100708008,-40.45500183105469 44.29399871826172,-40.89899826049805 C32.04899978637695,-50.013999938964844 16.42799949645996,-27.77899932861328 -3.196000099182129,-6.801000118255615 C-9.690999984741211,0.13899999856948853 -48.01300048828125,39.77399826049805 -48.01300048828125,39.77399826049805z"></path></g><g opacity="1" transform="matrix(1,0,0,1,139.6280059814453,62.917999267578125)"><path stroke-linecap="round" stroke-linejoin="miter" fill-opacity="0" stroke-miterlimit="10" stroke="rgb(247,125,65)" stroke-opacity="1" stroke-width="8" d=" M-45.04199981689453,34.53200149536133 C-38.60499954223633,28.329999923706055 -21.19499969482422,6.895999908447266 -14.701000213623047,-0.04600000008940697 C4.920000076293945,-21.020999908447266 20.297000885009766,-42.917999267578125 32.790000915527344,-34.14500045776367 C45.042999267578125,-25.540000915527344 27.608999252319336,-10.14900016784668 12.654000282287598,7.09499979019165 C-2.506999969482422,24.577999114990234 -17.740999221801758,38.78200149536133 -12.729999542236328,42.91699981689453"></path></g><g opacity="1" transform="matrix(1,0,0,1,173.42300415039062,85.28399658203125)"><path stroke-linecap="round" stroke-linejoin="miter" fill-opacity="0" stroke-miterlimit="10" stroke="rgb(247,125,65)" stroke-opacity="1" stroke-width="8" d=" M-28.92300033569336,45.604000091552734 C-32.54499816894531,40.415000915527344 -19.56100082397461,34.87900161743164 3.681999921798706,13.138999938964844 C24.093000411987305,-5.952000141143799 46.525001525878906,-24.819000244140625 36.70100021362305,-34.91699981689453 C26.30500030517578,-45.60300064086914 14.595000267028809,-32.83399963378906 -6.822999954223633,-13.045000076293945 C-24.260000228881836,3.065999984741211 -42.861000061035156,24.812000274658203 -46.525001525878906,20.551000595092773"></path></g><g opacity="1" transform="matrix(1,0,0,1,189.1230010986328,123.07599639892578)"><path stroke-linecap="round" stroke-linejoin="miter" fill-opacity="0" stroke-miterlimit="10" stroke="rgb(247,125,65)" stroke-opacity="1" stroke-width="8" d=" M-44.62300109863281,7.811999797821045 C-41.98500061035156,12.734000205993652 -22.108999252319336,-2.9579999446868896 -5.390999794006348,-14.57699966430664 C15.715999603271484,-29.243999481201172 29.697999954223633,-41.29399871826172 36.56700134277344,-31.16699981689453 C44.62300109863281,-19.290000915527344 25.465999603271484,-6.836999893188477 0.8930000066757202,10.128999710083008 C-24.013999938964844,27.326000213623047 -38.900001525878906,36.34400177001953 -35.875999450683594,41.29399871826172"></path></g><g opacity="1" transform="matrix(1,0,0,1,188.7570037841797,168.6959991455078)"><path stroke-linecap="round" stroke-linejoin="miter" fill-opacity="0" stroke-miterlimit="10" stroke="rgb(247,125,65)" stroke-opacity="1" stroke-width="8" d=" M-35.50899887084961,-4.326000213623047 C-33.869998931884766,-0.41200000047683716 -17.44300079345703,-10.340999603271484 -3.7320001125335693,-17.634000778198242 C14.220000267028809,-27.18199920654297 23.11400032043457,-30.822999954223633 28.43899917602539,-23.381000518798828 C36.34000015258789,-12.340999603271484 18.31800079345703,-2.490000009536743 -1.9170000553131104,9.529999732971191 C-14.359000205993652,16.922000885009766 -25.937999725341797,22.663999557495117 -36.34000015258789,30.822999954223633"></path></g><g opacity="1" transform="matrix(1,0,0,1,86.20800018310547,134.52099609375)"><path stroke-linecap="round" stroke-linejoin="miter" fill-opacity="0" stroke-miterlimit="10" stroke="rgb(247,125,65)" stroke-opacity="1" stroke-width="8" d=" M8.378000259399414,-37.07099914550781 C-2.0309998989105225,-26.631999969482422 -4.960999965667725,-23.982999801635742 -9.864999771118164,-24.999000549316406 C-18.80500030517578,-26.849000930786133 -11.857999801635742,-58.1510009765625 -12.687000274658203,-68.1719970703125 C-14.041999816894531,-84.5479965209961 -24.42099952697754,-99.28099822998047 -35.70800018310547,-94.7770004272461 C-42.709999084472656,-91.98200225830078 -43.75,-82.66000366210938 -42.79800033569336,-68.0250015258789 C-41.90700149536133,-54.308998107910156 -43.143001556396484,-41.42900085449219 -49.87099838256836,-21.67099952697754 C-53.86399841308594,-9.946000099182129 -56.262001037597656,-5.380000114440918 -61.23500061035156,13.324999809265137 C-66.20800018310547,32.02799987792969 -61.6879997253418,50.457000732421875 -52.82600021362305,64.03299713134766 C-44.1619987487793,77.30599975585938 -26.81999969482422,94.17500305175781 -4.956999778747559,96.50499725341797 C21.06599998474121,99.27999877929688 53.46500015258789,74.15799713134766 66.20800018310547,64.99800109863281"></path></g></g></g></svg>