<svg xmlns="http://www.w3.org/2000/svg" viewBox="0 0 512 512" width="512" height="512" style="width: 100%; height: 100%; transform: translate3d(0,0,0);" preserveAspectRatio="xMidYMid meet"><defs><clipPath id="__lottie_element_24706"><rect width="512" height="512" x="0" y="0"></rect></clipPath><linearGradient id="__lottie_element_24725" spreadMethod="pad" gradientUnits="userSpaceOnUse" x1="1026.4219970703125" y1="-284.7359924316406" x2="1090.2750244140625" y2="-223.64500427246094"><stop offset="10%" stop-color="rgb(105,98,110)" stop-opacity="0.5"></stop><stop offset="65%" stop-color="rgb(92,87,99)" stop-opacity="0.75"></stop><stop offset="100%" stop-color="rgb(78,77,88)" stop-opacity="1"></stop></linearGradient><linearGradient id="__lottie_element_24726" spreadMethod="pad" gradientUnits="userSpaceOnUse" x1="58" y1="216" x2="45.67100143432617" y2="35.178001403808594"><stop offset="10%" stop-color="rgb(255,255,255)" stop-opacity="0"></stop><stop offset="65%" stop-color="rgb(255,255,255)" stop-opacity="0.5"></stop><stop offset="100%" stop-color="rgb(255,255,255)" stop-opacity="1"></stop></linearGradient><linearGradient id="__lottie_element_24741" spreadMethod="pad" gradientUnits="userSpaceOnUse" x1="-63.75" y1="-25.5" x2="-51.94300079345703" y2="-8.769000053405762"><stop offset="0%" stop-color="rgb(55,10,0)"></stop><stop offset="38%" stop-color="rgb(104,48,2)"></stop><stop offset="100%" stop-color="rgb(153,87,4)"></stop></linearGradient><linearGradient id="__lottie_element_24742" spreadMethod="pad" gradientUnits="userSpaceOnUse" x1="56.5" y1="-25.5" x2="67.55699920654297" y2="-8.519000053405762"><stop offset="0%" stop-color="rgb(55,10,0)"></stop><stop offset="38%" stop-color="rgb(104,48,2)"></stop><stop offset="100%" stop-color="rgb(153,87,4)"></stop></linearGradient></defs><g clip-path="url(#__lottie_element_24706)"><g style="display: block;" transform="matrix(1,0,0,1,256,255.99998474121094)" opacity="1"><g opacity="1" transform="matrix(1,0,0,1,0,0)"><g opacity="1" transform="matrix(1,0,0,1,0,0)"><path fill="rgb(234,157,1)" fill-opacity="1" d=" M54.19499969482422,165.63499450683594 C54.52299880981445,163.26100158691406 48.082000732421875,91.53299713134766 48.082000732421875,90.61799621582031 C48.082000732421875,90.61799621582031 45.965999603271484,90.61799621582031 45.965999603271484,90.61799621582031 C45.965999603271484,90.61799621582031 -34.26599884033203,90.61799621582031 -34.26599884033203,90.61799621582031 C-34.26599884033203,90.61799621582031 -39.01499938964844,165.6179962158203 -38.637001037597656,168.24099731445312"></path><path stroke-linecap="round" stroke-linejoin="round" fill-opacity="0" stroke="rgb(206,115,0)" stroke-opacity="1" stroke-width="9" d=" M54.19499969482422,165.63499450683594 C54.52299880981445,163.26100158691406 48.082000732421875,91.53299713134766 48.082000732421875,90.61799621582031 C48.082000732421875,90.61799621582031 45.965999603271484,90.61799621582031 45.965999603271484,90.61799621582031 C45.965999603271484,90.61799621582031 -34.26599884033203,90.61799621582031 -34.26599884033203,90.61799621582031 C-34.26599884033203,90.61799621582031 -39.01499938964844,165.6179962158203 -38.637001037597656,168.24099731445312"></path></g></g><g opacity="1" transform="matrix(1,0,0,1,0,0)"><g opacity="1" transform="matrix(1,0,0,1,0,0)"><path fill="rgb(51,55,213)" fill-opacity="1" d=" M168.45799255371094,168.98899841308594 C121.82099914550781,140.1269989013672 75.22200012207031,126.20600128173828 41.983001708984375,119.50199890136719 C34.33300018310547,145.33299255371094 -2.2219998836517334,149.5 -2.2219998836517334,149.5 C-13.753999710083008,149.32000732421875 -37.33300018310547,140.83299255371094 -43.37900161743164,117.40899658203125 C-102.21099853515625,129.41200256347656 -92.34200286865234,236.08399963378906 -7.479000091552734,236.10899353027344 C81.02400207519531,236.13499450683594 171.36099243164062,235.7689971923828 174.81399536132812,234.97799682617188 C187.0279998779297,232.18600463867188 190.8179931640625,228.2530059814453 190.8179931640625,228.2530059814453 C188.74899291992188,213.41400146484375 188.11500549316406,181.1540069580078 168.45799255371094,168.98899841308594z"></path></g><g opacity="1" transform="matrix(1,0,0,1,0,0)"><path fill="rgb(78,100,255)" fill-opacity="1" d=" M36.5629997253418,135.2270050048828 C38.92100143432617,136.75 105.67400360107422,148.16600036621094 155.74899291992188,182.73399353027344 C168.4720001220703,191.51699829101562 172.8070068359375,220.83399963378906 174.81399536132812,234.97799682617188 C187.0279998779297,232.18600463867188 190.8179931640625,228.2530059814453 190.8179931640625,228.2530059814453 C190.8179931640625,228.2530059814453 190.8179931640625,228.2530059814453 190.8179931640625,228.2530059814453 C188.74899291992188,213.41400146484375 183.6219940185547,186.43800354003906 168.45899963378906,168.98899841308594 C164.31300354003906,164.22300720214844 96.03700256347656,131.1909942626953 42.137001037597656,116.81300354003906 C31,154.33299255371094 11.46500015258789,154.41600036621094 36.5629997253418,135.2270050048828z"></path></g><g opacity="1" transform="matrix(1,0,0,1,0,0)"><g opacity="1" transform="matrix(1,0,0,1,0,0)"><path fill="rgb(36,37,152)" fill-opacity="1" d=" M187.55299377441406,220.11599731445312 C187.55299377441406,220.11599731445312 187.76300048828125,226.23500061035156 186.9929962158203,230.781005859375 C186.9929962158203,230.781005859375 196.4219970703125,227.2530059814453 195.58599853515625,220.86399841308594 C195.58599853515625,220.86399841308594 187.55299377441406,220.11599731445312 187.55299377441406,220.11599731445312z"></path></g></g></g><g opacity="1" transform="matrix(1,0,0,1,0,0)"><path stroke-linecap="round" stroke-linejoin="round" fill-opacity="0" stroke="rgb(36,37,152)" stroke-opacity="1" stroke-width="8" d=" M-1.6019999980926514,148.60499572753906 C17.94099998474121,148.60499572753906 39.49800109863281,134.87600708007812 42.137001037597656,116.81300354003906 C42.137001037597656,116.81300354003906 144.3419952392578,149.09100341796875 168.45700073242188,168.98899841308594 C179.42599487304688,178.0399932861328 190.81900024414062,201.83999633789062 191.625,221.2790069580078"></path></g></g><g style="display: block;" transform="matrix(1,0,0,1,256,255.99998474121094)" opacity="1"><g opacity="1" transform="matrix(1,0,0,1,0,0)"><g opacity="1" transform="matrix(1,0,0,1,0,0)"><path fill="rgb(51,55,213)" fill-opacity="1" d=" M-2.2219998836517334,149.5 C-13.753999710083008,149.32000732421875 -37.33300018310547,140.83299255371094 -43.37900161743164,117.40899658203125 C-102.21099853515625,129.41200256347656 -170.31300354003906,163.80599975585938 -174.822998046875,168.98899841308594 C-189.58900451660156,185.9709930419922 -195.48399353027344,210.91000366210938 -197.71400451660156,226.1820068359375 C-197.71400451660156,226.1820068359375 -191.5590057373047,232.16299438476562 -178.7989959716797,234.97799682617188 C-175.4810028076172,235.70599365234375 -90.41799926757812,236.09300231933594 -4.551000118255615,236.11000061035156 C83.00599670410156,236.1269989013672 -2.2219998836517334,149.5 -2.2219998836517334,149.5z"></path></g><g opacity="1" transform="matrix(1,0,0,1,0,0)"><path fill="rgb(78,100,255)" fill-opacity="1" d=" M-44.65700149536133,117.23400115966797 C-95.12999725341797,130.1009979248047 -168.447998046875,164.22300720214844 -172.593994140625,168.98899841308594 C-187.7570037841797,186.43800354003906 -192.88499450683594,213.41400146484375 -194.95399475097656,228.2530059814453 C-194.95399475097656,228.2530059814453 -194.95399475097656,228.2530059814453 -194.95399475097656,228.2530059814453 C-194.95399475097656,228.2530059814453 -191.16299438476562,232.18600463867188 -178.94900512695312,234.97799682617188 C-176.94200134277344,220.83399963378906 -172.60800170898438,191.51699829101562 -159.88499450683594,182.73399353027344 C-109.80999755859375,148.16600036621094 -42.47700119018555,135.54100036621094 -40.69900131225586,135.2270050048828 C-14.321000099182129,153.4810028076172 -29,161.33299255371094 -44.65700149536133,117.23400115966797z"></path></g><g opacity="1" transform="matrix(1,0,0,1,0,0)"><g opacity="1" transform="matrix(1,0,0,1,0,0)"><path fill="rgb(36,37,152)" fill-opacity="1" d=" M-191.52699279785156,219.92799377441406 C-191.52699279785156,219.92799377441406 -191.96299743652344,225.86300659179688 -191.8780059814453,230.3179931640625 C-191.8780059814453,230.3179931640625 -200.4550018310547,227.18099975585938 -199.5919952392578,220.86399841308594 C-199.5919952392578,220.86399841308594 -191.52699279785156,219.92799377441406 -191.52699279785156,219.92799377441406z"></path></g></g></g><g opacity="1" transform="matrix(1,0,0,1,0,0)"><path stroke-linecap="round" stroke-linejoin="round" fill-opacity="0" stroke="rgb(36,37,152)" stroke-opacity="1" stroke-width="8" d=" M-195.61000061035156,221.2790069580078 C-194.8040008544922,201.83999633789062 -183.36399841308594,178.0970001220703 -172.44200134277344,168.98899841308594 C-150.42999267578125,150.6320037841797 -43.67599868774414,115.81700134277344 -43.67599868774414,115.81700134277344 C-40.999000549316406,132.2429962158203 -26.61400032043457,148.60499572753906 -1.6019999980926514,148.60499572753906"></path></g></g><g style="display: block;" transform="matrix(1,0,0,1,255.95399475097656,249.76296997070312)" opacity="1"><g opacity="1" transform="matrix(1,0,0,1,0,0)"><path fill="rgb(234,157,1)" fill-opacity="1" d=" M103.7239990234375,66.36799621582031 C111.70500183105469,70.5250015258789 118.68900299072266,70.50499725341797 118.68900299072266,70.50499725341797 C112.2040023803711,52.402000427246094 114.53500366210938,29.023000717163086 114.53500366210938,29.023000717163086 C104.06300354003906,27.92300033569336 -111.2490005493164,28.93600082397461 -118.5719985961914,32.77000045776367 C-118.5719985961914,32.77000045776367 -116.18199920654297,50.68299865722656 -124.06500244140625,69.33499908447266 C-124.06500244140625,69.33499908447266 -118.19400024414062,68.0009994506836 -110.6989974975586,66.33499908447266 C-110.6989974975586,66.33499908447266 -112.36499786376953,73.93299865722656 -114.03099822998047,78.12899780273438 C-114.03099822998047,78.12899780273438 -105.57599639892578,78.28099822998047 -99.70600128173828,74.89700317382812 C-99.70600128173828,74.89700317382812 -99.11900329589844,79.12899780273438 -99.70600128173828,84.822998046875 C-99.70600128173828,84.822998046875 -88.63099670410156,81.5459976196289 -80.9280014038086,69.50499725341797 C-79.38800048828125,67.09700012207031 76.90599822998047,71.7020034790039 78.62100219726562,73.89700317382812 C87.10099792480469,84.75 92.41699981689453,85.55999755859375 92.41699981689453,85.55999755859375 C92.02799987792969,79.77999877929688 93.41500091552734,74.68399810791016 93.41500091552734,74.68399810791016 C98.12999725341797,79.26699829101562 106.5510025024414,80.50399780273438 106.5510025024414,80.50399780273438 C103.55799865722656,74.01899719238281 103.7239990234375,66.36799621582031 103.7239990234375,66.36799621582031z"></path><path stroke-linecap="round" stroke-linejoin="round" fill-opacity="0" stroke="rgb(185,97,0)" stroke-opacity="1" stroke-width="8" d=" M103.7239990234375,66.36799621582031 C111.70500183105469,70.5250015258789 118.68900299072266,70.50499725341797 118.68900299072266,70.50499725341797 C112.2040023803711,52.402000427246094 114.53500366210938,29.023000717163086 114.53500366210938,29.023000717163086 C104.06300354003906,27.92300033569336 -111.2490005493164,28.93600082397461 -118.5719985961914,32.77000045776367 C-118.5719985961914,32.77000045776367 -116.18199920654297,50.68299865722656 -124.06500244140625,69.33499908447266 C-124.06500244140625,69.33499908447266 -118.19400024414062,68.0009994506836 -110.6989974975586,66.33499908447266 C-110.6989974975586,66.33499908447266 -112.36499786376953,73.93299865722656 -114.03099822998047,78.12899780273438 C-114.03099822998047,78.12899780273438 -105.57599639892578,78.28099822998047 -99.70600128173828,74.89700317382812 C-99.70600128173828,74.89700317382812 -99.11900329589844,79.12899780273438 -99.70600128173828,84.822998046875 C-99.70600128173828,84.822998046875 -88.63099670410156,81.5459976196289 -80.9280014038086,69.50499725341797 C-79.38800048828125,67.09700012207031 76.90599822998047,71.7020034790039 78.62100219726562,73.89700317382812 C87.10099792480469,84.75 92.41699981689453,85.55999755859375 92.41699981689453,85.55999755859375 C92.02799987792969,79.77999877929688 93.41500091552734,74.68399810791016 93.41500091552734,74.68399810791016 C98.12999725341797,79.26699829101562 106.5510025024414,80.50399780273438 106.5510025024414,80.50399780273438 C103.55799865722656,74.01899719238281 103.7239990234375,66.36799621582031 103.7239990234375,66.36799621582031z"></path></g></g><g style="display: block;" transform="matrix(1,0,0,1,255.95399475097656,249.76296997070312)" opacity="1"><g opacity="1" transform="matrix(1,0,0,1,0,0)"><path fill="rgb(244,172,0)" fill-opacity="1" d=" M-126.81800079345703,-31.42799949645996 C-135.13600158691406,-32.86199951171875 -135.71800231933594,-14.211999893188477 -132.26499938964844,2.309000015258789 C-129.0679931640625,17.604999542236328 -122.70899963378906,36.23699951171875 -111.27799987792969,32.77000045776367 C-99.84700012207031,29.302000045776367 -98.31199645996094,-26.514999389648438 -126.81800079345703,-31.42799949645996z"></path><path stroke-linecap="round" stroke-linejoin="round" fill-opacity="0" stroke="rgb(206,115,0)" stroke-opacity="1" stroke-width="8" d=" M-126.81800079345703,-31.42799949645996 C-135.13600158691406,-32.86199951171875 -135.71800231933594,-14.211999893188477 -132.26499938964844,2.309000015258789 C-129.0679931640625,17.604999542236328 -122.70899963378906,36.23699951171875 -111.27799987792969,32.77000045776367 C-99.84700012207031,29.302000045776367 -98.31199645996094,-26.514999389648438 -126.81800079345703,-31.42799949645996z"></path></g><g opacity="1" transform="matrix(1,0,0,1,0,0)"><path fill="rgb(244,172,0)" fill-opacity="1" d=" M125.43399810791016,-31.42799949645996 C133.7519989013672,-32.86199951171875 134.3350067138672,-14.211999893188477 130.8820037841797,2.309000015258789 C127.68499755859375,17.604999542236328 121.32599639892578,36.23699951171875 109.8949966430664,32.77000045776367 C98.46399688720703,29.302000045776367 96.9280014038086,-26.514999389648438 125.43399810791016,-31.42799949645996z"></path><path stroke-linecap="round" stroke-linejoin="round" fill-opacity="0" stroke="rgb(206,115,0)" stroke-opacity="1" stroke-width="8" d=" M125.43399810791016,-31.42799949645996 C133.7519989013672,-32.86199951171875 134.3350067138672,-14.211999893188477 130.8820037841797,2.309000015258789 C127.68499755859375,17.604999542236328 121.32599639892578,36.23699951171875 109.8949966430664,32.77000045776367 C98.46399688720703,29.302000045776367 96.9280014038086,-26.514999389648438 125.43399810791016,-31.42799949645996z"></path></g></g><g style="display: block;" transform="matrix(1,0,0,1,255.95399475097656,249.76296997070312)" opacity="1"><g opacity="1" transform="matrix(1,0,0,1,0,0)"><g opacity="1" transform="matrix(1,0,0,1,0,0)"><path fill="rgb(244,172,0)" fill-opacity="1" d=" M90.90699768066406,-125.3010025024414 C69.2030029296875,-154.2899932861328 41.88600158691406,-171.97000122070312 0,-171.97000122070312 C-41.88600158691406,-171.97000122070312 -68.51699829101562,-153.76199340820312 -90.90699768066406,-125.3010025024414 C-116.96499633789062,-92.1780014038086 -130.69900512695312,-5.38100004196167 -103.0739974975586,52.220001220703125 C-75.44999694824219,109.82099914550781 -27.780000686645508,126.04000091552734 0,126.04000091552734 C27.780000686645508,126.04000091552734 75.44999694824219,109.82099914550781 103.07499694824219,52.220001220703125 C130.69900512695312,-5.38100004196167 116.96399688720703,-90.49700164794922 90.90699768066406,-125.3010025024414z"></path><path stroke-linecap="round" stroke-linejoin="round" fill-opacity="0" stroke="rgb(206,115,0)" stroke-opacity="1" stroke-width="8" d=" M90.90699768066406,-125.3010025024414 C69.2030029296875,-154.2899932861328 41.88600158691406,-171.97000122070312 0,-171.97000122070312 C-41.88600158691406,-171.97000122070312 -68.51699829101562,-153.76199340820312 -90.90699768066406,-125.3010025024414 C-116.96499633789062,-92.1780014038086 -130.69900512695312,-5.38100004196167 -103.0739974975586,52.220001220703125 C-75.44999694824219,109.82099914550781 -27.780000686645508,126.04000091552734 0,126.04000091552734 C27.780000686645508,126.04000091552734 75.44999694824219,109.82099914550781 103.07499694824219,52.220001220703125 C130.69900512695312,-5.38100004196167 116.96399688720703,-90.49700164794922 90.90699768066406,-125.3010025024414z"></path></g><g opacity="1" transform="matrix(1,0,0,1,0,0)"><path fill="rgb(255,207,0)" fill-opacity="1" d=" M-1.8509999513626099,106.0260009765625 C-54.17300033569336,104.8270034790039 -112.01699829101562,51.50299835205078 -102.59700012207031,-40.87799835205078 C-102.59700012207031,-40.87799835205078 -93.39099884033203,-51.45800018310547 -88.22699737548828,-64.74600219726562 C-88.22699737548828,-64.74600219726562 -75.80500030517578,-57.06999969482422 -77.12799835205078,-77.37699890136719 C-77.12799835205078,-77.37699890136719 -65.76300048828125,-69.8740005493164 -67.75299835205078,-79.99199676513672 C-68.61699676513672,-84.38800048828125 -73.28800201416016,-97.13800048828125 -71.21700286865234,-112.6500015258789 C-71.21700286865234,-112.6500015258789 -47.84000015258789,-85.13300323486328 -2,-81.64900207519531 C39.540000915527344,-78.49099731445312 49.189998626708984,-75.21600341796875 60.93299865722656,-62.481998443603516 C64.26899719238281,-58.86399841308594 68.76699829101562,-56.625999450683594 70.45700073242188,-63.26100158691406 C70.45700073242188,-63.26100158691406 84,-44 86.65699768066406,-52.492000579833984 C86.65699768066406,-52.492000579833984 98.72799682617188,-36.95399856567383 101.7040023803711,-24.43199920654297 C105.85399627685547,-6.973999977111816 100.21399688720703,24.57200050354004 85.56999969482422,50.94200134277344 C67.2959976196289,83.8499984741211 36.1609992980957,106.89700317382812 -1.8509999513626099,106.0260009765625z"></path></g></g></g><g style="display: block;" transform="matrix(1,0,0,1,255.93600463867188,249.88697814941406)" opacity="1"><g opacity="1" transform="matrix(1,0,0,1,0,0)"><path fill="rgb(244,172,0)" fill-opacity="1" d=" M18.051000595092773,38.1349983215332 C18.051000595092773,45.21099853515625 9.071999549865723,51.50199890136719 -0.7049999833106995,51.50199890136719 C-10.482000350952148,51.50199890136719 -19.461999893188477,45.21099853515625 -19.461999893188477,38.1349983215332 C-19.461999893188477,31.05900001525879 -10.482000350952148,24.57200050354004 -0.7049999833106995,24.57200050354004 C9.071999549865723,24.57200050354004 18.051000595092773,31.05900001525879 18.051000595092773,38.1349983215332z"></path></g><g opacity="1" transform="matrix(1,0,0,1,0,0)"><path fill="rgb(208,123,0)" fill-opacity="1" d=" M16.99799919128418,32.86800003051758 C16.99799919128418,39.944000244140625 9.071999549865723,45.18199920654297 -0.7049999833106995,45.18199920654297 C-10.482000350952148,45.18199920654297 -18.408000946044922,39.944000244140625 -18.408000946044922,32.86800003051758 C-18.408000946044922,25.79199981689453 -10.482000350952148,20.357999801635742 -0.7049999833106995,20.357999801635742 C9.071999549865723,20.357999801635742 16.99799919128418,25.79199981689453 16.99799919128418,32.86800003051758z"></path></g><g opacity="1" transform="matrix(1,0,0,1,0,0)"><path fill="rgb(255,207,0)" fill-opacity="1" d=" M15.26099967956543,29.590999603271484 C15.26099967956543,34.85900115966797 9.821999549865723,39.89500045776367 -0.7049999833106995,39.89500045776367 C-11.37600040435791,39.89500045776367 -16.672000885009766,34.85900115966797 -16.672000885009766,29.590999603271484 C-16.672000885009766,24.322999954223633 -9.163000106811523,20.150999069213867 -0.7049999833106995,20.150999069213867 C7.752999782562256,20.150999069213867 15.26099967956543,24.322999954223633 15.26099967956543,29.590999603271484z"></path></g><g opacity="1" transform="matrix(1,0,0,1,0,0)"><path fill="rgb(255,225,129)" fill-opacity="1" d=" M8.454999923706055,25.517000198364258 C8.454999923706055,28.290000915527344 4.354000091552734,30.898000717163086 -0.7049999833106995,30.898000717163086 C-5.763999938964844,30.898000717163086 -9.866000175476074,28.290000915527344 -9.866000175476074,25.517000198364258 C-9.866000175476074,22.743999481201172 -5.763999938964844,21.35300064086914 -0.7049999833106995,21.35300064086914 C4.354000091552734,21.35300064086914 8.454999923706055,22.743999481201172 8.454999923706055,25.517000198364258z"></path></g></g><g style="display: block;" transform="matrix(1,0,0,1,255.93600463867188,249.88697814941406)" opacity="1"><g opacity="1" transform="matrix(1,0,0,1,0,0)"><g opacity="1" transform="matrix(1,0,0,1,0,0)"><path fill="rgb(255,255,255)" fill-opacity="1" d=" M-27.152000427246094,-10.84000015258789 C-27.152000427246094,-10.84000015258789 -32.06999969482422,-43.452999114990234 -58.6510009765625,-43.45000076293945 C-83.4520034790039,-43.448001861572266 -94.36199951171875,-19.8439998626709 -94.36199951171875,-13.218000411987305 C-94.36199951171875,-13.218000411987305 -84.38099670410156,4.058000087738037 -60.30400085449219,4.0370001792907715 C-33.178001403808594,4.013000011444092 -27.152000427246094,-10.84000015258789 -27.152000427246094,-10.84000015258789z"></path></g><g opacity="1" transform="matrix(1,0,0,1,-0.00299835205078125,-0.034000396728515625)"><g opacity="1" transform="matrix(1,0,0,1,0,0)"><path fill="url(#__lottie_element_24741)" fill-opacity="1" d=" M-40.2760009765625,-19.70599937438965 C-40.2760009765625,-8.579000473022461 -49.3380012512207,0.4399999976158142 -60.51599884033203,0.4399999976158142 C-71.69400024414062,0.4399999976158142 -80.75599670410156,-8.579000473022461 -80.75599670410156,-19.70599937438965 C-80.75599670410156,-30.83300018310547 -71.69400024414062,-39.85300064086914 -60.51599884033203,-39.85300064086914 C-49.3380012512207,-39.85300064086914 -40.2760009765625,-30.83300018310547 -40.2760009765625,-19.70599937438965z"></path></g><g opacity="1" transform="matrix(1,0,0,1,0,0)"><path fill="rgb(23,19,10)" fill-opacity="1" d=" M-47.7239990234375,-19.70599937438965 C-47.7239990234375,-12.673999786376953 -53.45100021362305,-6.973999977111816 -60.51599884033203,-6.973999977111816 C-67.58100128173828,-6.973999977111816 -73.30699920654297,-12.673999786376953 -73.30699920654297,-19.70599937438965 C-73.30699920654297,-26.738000869750977 -67.58100128173828,-32.43899917602539 -60.51599884033203,-32.43899917602539 C-53.45100021362305,-32.43899917602539 -47.7239990234375,-26.738000869750977 -47.7239990234375,-19.70599937438965z"></path></g><g opacity="1" transform="matrix(1,0,0,1,0,0)"><path fill="rgb(244,244,244)" fill-opacity="1" d=" M-61.64899826049805,-29.691999435424805 C-61.64899826049805,-27.02199935913086 -63.82400131225586,-24.856000900268555 -66.50700378417969,-24.856000900268555 C-69.19000244140625,-24.856000900268555 -71.36499786376953,-27.02199935913086 -71.36499786376953,-29.691999435424805 C-71.36499786376953,-32.36199951171875 -69.19000244140625,-34.527000427246094 -66.50700378417969,-34.527000427246094 C-63.82400131225586,-34.527000427246094 -61.64899826049805,-32.36199951171875 -61.64899826049805,-29.691999435424805z"></path></g><g opacity="1" transform="matrix(1,0,0,1,0,0)"><path stroke-linecap="round" stroke-linejoin="round" fill-opacity="0" stroke="rgb(224,151,5)" stroke-opacity="1" stroke-width="3.5" d=" M-45.53799819946289,-14.015999794006348 C-47.04199981689453,-9.553999900817871 -50.641998291015625,-6.046999931335449 -55.17300033569336,-4.656000137329102"></path></g></g><g opacity="1" transform="matrix(1,0,0,1,0,0)"><g opacity="1" transform="matrix(1,0,0,1,0,0)"><path fill="rgb(255,207,0)" fill-opacity="1" d=" M-95,-12 C-95,-12 -91.10900115966797,-43.57099914550781 -60.03499984741211,-42.744998931884766 C-32,-42 -27,-13 -27,-13 C-21.423999786376953,-18.086999893188477 -19.562000274658203,-51.284000396728516 -59,-51 C-94.53500366210938,-50.74399948120117 -101,-28 -95,-12z"></path></g><g opacity="1" transform="matrix(1,0,0,1,0,0)"><path fill="rgb(255,207,0)" fill-opacity="1" d=" M-95,-12 C-95,-12 -84.08100128173828,7.448999881744385 -61,7 C-33.43000030517578,6.464000225067139 -26,-11 -26,-11 C-22.381999969482422,-6.5289998054504395 -38.43299865722656,12 -62,12 C-84.55799865722656,12 -98.54100036621094,-3.4509999752044678 -95,-12z"></path></g></g><g opacity="1" transform="matrix(1,0,0,1,0,0)"><path fill="rgb(133,63,0)" fill-opacity="1" d=" M-27.416000366210938,-15.428999900817871 C-27.416000366210938,-15.428999900817871 -35.47200012207031,-45.67900085449219 -61.50600051879883,-45.40599822998047 C-87.54000091552734,-45.132999420166016 -93.31600189208984,-20.56599998474121 -94.36199951171875,-13.218000411987305 C-94.36199951171875,-13.218000411987305 -90.17400360107422,-42.775001525878906 -60.50600051879883,-43.108001708984375 C-35.93600082397461,-43.382999420166016 -27.416000366210938,-15.428999900817871 -27.416000366210938,-15.428999900817871z"></path><path stroke-linecap="round" stroke-linejoin="round" fill-opacity="0" stroke="rgb(133,63,0)" stroke-opacity="1" stroke-width="2" d=" M-27.416000366210938,-15.428999900817871 C-27.416000366210938,-15.428999900817871 -35.47200012207031,-45.67900085449219 -61.50600051879883,-45.40599822998047 C-87.54000091552734,-45.132999420166016 -93.31600189208984,-20.56599998474121 -94.36199951171875,-13.218000411987305 C-94.36199951171875,-13.218000411987305 -90.17400360107422,-42.775001525878906 -60.50600051879883,-43.108001708984375 C-35.93600082397461,-43.382999420166016 -27.416000366210938,-15.428999900817871 -27.416000366210938,-15.428999900817871z"></path></g></g><g opacity="1" transform="matrix(1,0,0,1,0,0)"><g opacity="1" transform="matrix(1,0,0,1,0,0)"><path fill="rgb(255,255,255)" fill-opacity="1" d=" M25.31999969482422,-10.84000015258789 C25.31999969482422,-10.84000015258789 30.238000869750977,-43.452999114990234 56.819000244140625,-43.45000076293945 C81.62000274658203,-43.448001861572266 92.52899932861328,-19.8439998626709 92.52899932861328,-13.218000411987305 C92.52899932861328,-13.218000411987305 82.54900360107422,4.058000087738037 58.47200012207031,4.0370001792907715 C31.34600067138672,4.013000011444092 25.31999969482422,-10.84000015258789 25.31999969482422,-10.84000015258789z"></path></g><g opacity="1" transform="matrix(1,0,0,1,0.009998321533203125,-0.034000396728515625)"><g opacity="1" transform="matrix(1,0,0,1,0,0)"><path fill="url(#__lottie_element_24742)" fill-opacity="1" d=" M78.92400360107422,-19.70599937438965 C78.92400360107422,-8.579000473022461 69.86199951171875,0.4399999976158142 58.683998107910156,0.4399999976158142 C47.50600051879883,0.4399999976158142 38.444000244140625,-8.579000473022461 38.444000244140625,-19.70599937438965 C38.444000244140625,-30.83300018310547 47.50600051879883,-39.85300064086914 58.683998107910156,-39.85300064086914 C69.86199951171875,-39.85300064086914 78.92400360107422,-30.83300018310547 78.92400360107422,-19.70599937438965z"></path></g><g opacity="1" transform="matrix(1,0,0,1,0,0)"><path fill="rgb(23,19,10)" fill-opacity="1" d=" M71.4749984741211,-19.70599937438965 C71.4749984741211,-12.673999786376953 65.7490005493164,-6.973999977111816 58.683998107910156,-6.973999977111816 C51.61899948120117,-6.973999977111816 45.891998291015625,-12.673999786376953 45.891998291015625,-19.70599937438965 C45.891998291015625,-26.738000869750977 51.61899948120117,-32.43899917602539 58.683998107910156,-32.43899917602539 C65.7490005493164,-32.43899917602539 71.4749984741211,-26.738000869750977 71.4749984741211,-19.70599937438965z"></path></g><g opacity="1" transform="matrix(1,0,0,1,0,0)"><path fill="rgb(244,244,244)" fill-opacity="1" d=" M57.54999923706055,-29.691999435424805 C57.54999923706055,-27.02199935913086 55.375999450683594,-24.856000900268555 52.69300079345703,-24.856000900268555 C50.0099983215332,-24.856000900268555 47.834999084472656,-27.02199935913086 47.834999084472656,-29.691999435424805 C47.834999084472656,-32.36199951171875 50.0099983215332,-34.527000427246094 52.69300079345703,-34.527000427246094 C55.375999450683594,-34.527000427246094 57.54999923706055,-32.36199951171875 57.54999923706055,-29.691999435424805z"></path></g><g opacity="1" transform="matrix(1,0,0,1,0,0)"><path stroke-linecap="round" stroke-linejoin="round" fill-opacity="0" stroke="rgb(224,151,5)" stroke-opacity="1" stroke-width="3.5" d=" M73.66100311279297,-14.015999794006348 C72.15699768066406,-9.553999900817871 68.55799865722656,-6.046999931335449 64.0270004272461,-4.656000137329102"></path></g></g><g opacity="1" transform="matrix(1,0,0,1,0,0)"><g opacity="1" transform="matrix(1,0,0,1,0,0)"><path fill="rgb(255,207,0)" fill-opacity="1" d=" M93.02400207519531,-13 C93.02400207519531,-13 89.13300323486328,-44.57099914550781 58.058998107910156,-43.744998931884766 C30.02400016784668,-43 25.02400016784668,-14 25.02400016784668,-14 C19.447999954223633,-19.086999893188477 17.586000442504883,-52.284000396728516 57.02399826049805,-52 C92.55899810791016,-51.74399948120117 99.02400207519531,-29 93.02400207519531,-13z"></path></g><g opacity="1" transform="matrix(1,0,0,1,0,0)"><path fill="rgb(255,207,0)" fill-opacity="1" d=" M93.02400207519531,-13 C93.02400207519531,-13 82.1050033569336,6.448999881744385 59.02399826049805,6 C31.45400047302246,5.464000225067139 24.02400016784668,-12 24.02400016784668,-12 C20.4060001373291,-7.5289998054504395 36.457000732421875,11 60.02399826049805,11 C82.58200073242188,11 96.56500244140625,-4.451000213623047 93.02400207519531,-13z"></path></g></g><g opacity="1" transform="matrix(1,0,0,1,0,0)"><path fill="rgb(133,63,0)" fill-opacity="1" d=" M25.583999633789062,-15.428999900817871 C25.583999633789062,-15.428999900817871 33.63999938964844,-45.67900085449219 59.67399978637695,-45.40599822998047 C85.70800018310547,-45.132999420166016 91.48300170898438,-20.56599998474121 92.52899932861328,-13.218000411987305 C92.52899932861328,-13.218000411987305 88.34200286865234,-42.775001525878906 58.67399978637695,-43.108001708984375 C34.104000091552734,-43.382999420166016 25.583999633789062,-15.428999900817871 25.583999633789062,-15.428999900817871z"></path><path stroke-linecap="round" stroke-linejoin="round" fill-opacity="0" stroke="rgb(133,63,0)" stroke-opacity="1" stroke-width="2" d=" M25.583999633789062,-15.428999900817871 C25.583999633789062,-15.428999900817871 33.63999938964844,-45.67900085449219 59.67399978637695,-45.40599822998047 C85.70800018310547,-45.132999420166016 91.48300170898438,-20.56599998474121 92.52899932861328,-13.218000411987305 C92.52899932861328,-13.218000411987305 88.34200286865234,-42.775001525878906 58.67399978637695,-43.108001708984375 C34.104000091552734,-43.382999420166016 25.583999633789062,-15.428999900817871 25.583999633789062,-15.428999900817871z"></path></g></g></g><g style="display: block;" transform="matrix(1,0,0,1,255.93600463867188,249.88697814941406)" opacity="1"><g opacity="1" transform="matrix(1,0,0,1,0,0)"><path fill="rgb(133,63,0)" fill-opacity="1" d=" M-88.84600067138672,-54.04199981689453 C-90.44400024414062,-56.94300079345703 -75.82499694824219,-66.75900268554688 -57.96799850463867,-67.13899993896484 C-43.263999938964844,-67.4520034790039 -41.266998291015625,-63.130001068115234 -42.0890007019043,-61.624000549316406 C-42.90999984741211,-60.11800003051758 -52.03300094604492,-63.652000427246094 -68.51799774169922,-60.422000885009766 C-85.33999633789062,-57.125999450683594 -88.06400299072266,-52.62200164794922 -88.84600067138672,-54.04199981689453z"></path><path stroke-linecap="round" stroke-linejoin="round" fill-opacity="0" stroke="rgb(133,63,0)" stroke-opacity="1" stroke-width="2" d=" M-88.84600067138672,-54.04199981689453 C-90.44400024414062,-56.94300079345703 -75.82499694824219,-66.75900268554688 -57.96799850463867,-67.13899993896484 C-43.263999938964844,-67.4520034790039 -41.266998291015625,-63.130001068115234 -42.0890007019043,-61.624000549316406 C-42.90999984741211,-60.11800003051758 -52.03300094604492,-63.652000427246094 -68.51799774169922,-60.422000885009766 C-85.33999633789062,-57.125999450683594 -88.06400299072266,-52.62200164794922 -88.84600067138672,-54.04199981689453z"></path></g><g opacity="1" transform="matrix(1,0,0,1,0,0)"><path fill="rgb(133,63,0)" fill-opacity="1" d=" M83.01399993896484,-54.04199981689453 C84.61199951171875,-56.94300079345703 69.99299621582031,-66.75900268554688 52.13600158691406,-67.13899993896484 C37.43199920654297,-67.4520034790039 35.43600082397461,-63.130001068115234 36.25699996948242,-61.624000549316406 C37.077999114990234,-60.11800003051758 46.20100021362305,-63.652000427246094 62.68600082397461,-60.422000885009766 C79.50800323486328,-57.125999450683594 82.23200225830078,-52.62200164794922 83.01399993896484,-54.04199981689453z"></path><path stroke-linecap="round" stroke-linejoin="round" fill-opacity="0" stroke="rgb(133,63,0)" stroke-opacity="1" stroke-width="2" d=" M83.01399993896484,-54.04199981689453 C84.61199951171875,-56.94300079345703 69.99299621582031,-66.75900268554688 52.13600158691406,-67.13899993896484 C37.43199920654297,-67.4520034790039 35.43600082397461,-63.130001068115234 36.25699996948242,-61.624000549316406 C37.077999114990234,-60.11800003051758 46.20100021362305,-63.652000427246094 62.68600082397461,-60.422000885009766 C79.50800323486328,-57.125999450683594 82.23200225830078,-52.62200164794922 83.01399993896484,-54.04199981689453z"></path></g></g><g style="display: block;" transform="matrix(1,0,0,1,255.89199829101562,249.88697814941406)" opacity="1"><g opacity="1" transform="matrix(1,0,0,1,0,0)"><path fill="rgb(244,172,0)" fill-opacity="1" d=" M31.885000228881836,65.20899963378906 C29.716999053955078,63.19300079345703 26.22599983215332,62.742000579833984 -0.5770000219345093,62.742000579833984 C-26.733999252319336,62.742000579833984 -30.52199935913086,63.19300079345703 -33.040000915527344,65.20899963378906 C-35.02899932861328,66.802001953125 -34.37200164794922,80.71700286865234 -0.5839999914169312,80.71700286865234 C32.6619987487793,80.71700286865234 33.632999420166016,66.83399963378906 31.885000228881836,65.20899963378906z"></path></g><g opacity="1" transform="matrix(1,0,0,1,0,0)"><path fill="rgb(255,225,129)" fill-opacity="1" d=" M31.677000045776367,69.91100311279297 C30.930999755859375,65.76200103759766 26.22599983215332,67.12799835205078 -0.5770000219345093,67.12799835205078 C-26.733999252319336,67.12799835205078 -31.635000228881836,65.5009994506836 -32.832000732421875,69.91100311279297 C-33.31100082397461,71.67500305175781 -22.64900016784668,84.55999755859375 -0.5839999914169312,84.55999755859375 C21.10700035095215,84.55999755859375 32.012001037597656,71.77200317382812 31.677000045776367,69.91100311279297z"></path></g><g opacity="1" transform="matrix(1,0,0,1,0,0)"><path fill="rgb(126,35,18)" fill-opacity="1" d=" M30.850000381469727,68.02899932861328 C29.61199951171875,66.20600128173828 26.22599983215332,66.5009994506836 -0.5770000219345093,66.5009994506836 C-26.733999252319336,66.5009994506836 -30.618000030517578,66.26899719238281 -32.00600051879883,68.02899932861328 C-33.2239990234375,69.5739974975586 -22.64900016784668,80.71700286865234 -0.5839999914169312,80.71700286865234 C21.10700035095215,80.71700286865234 31.983999252319336,69.697998046875 30.850000381469727,68.02899932861328z"></path></g><g opacity="1" transform="matrix(1,0,0,1,0,0)"><path fill="rgb(81,19,18)" fill-opacity="1" d=" M29.790000915527344,70.3499984741211 C27.524999618530273,69.44599914550781 21.225000381469727,70.34500122070312 -0.5759999752044678,70.34500122070312 C-22.136999130249023,70.34500122070312 -28.559999465942383,69.48400115966797 -30.933000564575195,70.41300201416016 C-31.933000564575195,69.27100372314453 -32.28900146484375,68.38600158691406 -32.007999420166016,68.02799987792969 C-30.618999481201172,66.27100372314453 -26.733999252319336,66.50299835205078 -0.5759999752044678,66.50299835205078 C26.226999282836914,66.50299835205078 29.607999801635742,66.20800018310547 30.847999572753906,68.02799987792969 C31.104000091552734,68.40499877929688 30.749000549316406,69.25800323486328 29.790000915527344,70.3499984741211z"></path></g><g opacity="1" transform="matrix(1,0,0,1,0,0)"><path fill="rgb(244,172,0)" fill-opacity="1" d=" M18.618000030517578,87.4530029296875 C18.618000030517578,91.71299743652344 12.781999588012695,97.88200378417969 -0.5839999914169312,97.88200378417969 C-13.949999809265137,97.88200378417969 -19.78499984741211,91.71299743652344 -19.78499984741211,87.4530029296875 C-19.78499984741211,83.19300079345703 -13.949999809265137,87.4530029296875 -0.5839999914169312,87.4530029296875 C12.781999588012695,87.4530029296875 18.618000030517578,83.19300079345703 18.618000030517578,87.4530029296875z"></path></g></g><g style="display: block;" transform="matrix(1,0,0,1,255.95399475097656,249.76296997070312)" opacity="1"><g opacity="1" transform="matrix(1,0,0,1,0,0)"><path fill="rgb(255,207,0)" fill-opacity="1" d=" M-77.4540023803711,-143.11099243164062 C-77.4540023803711,-143.11099243164062 -64.18099975585938,-105.69999694824219 -12.998000144958496,-96.30500030517578 C19.591999053955078,-90.322998046875 50.180999755859375,-92.80599975585938 62.46099853515625,-76.27200317382812 C62.46099853515625,-76.27200317382812 63.20399856567383,-86.0989990234375 61.83300018310547,-98.16699981689453 C65.38899993896484,-85.66899871826172 74.71399688720703,-75.3290023803711 82.28299713134766,-63.4640007019043 C82.28299713134766,-63.4640007019043 88.1780014038086,-74.74800109863281 85.13800048828125,-87.55000305175781 C90,-67 113,-52 114.81800079345703,-4.5929999351501465 C114.81800079345703,-4.5929999351501465 120.03800201416016,-10.239999771118164 123.24500274658203,-30.716999053955078 C123.24500274658203,-30.716999053955078 161,-71 127.84300231933594,-140.5469970703125 C120.6780014038086,-155.5749969482422 97.55000305175781,-188.03399658203125 39.500999450683594,-203.6020050048828 C-15.211000442504883,-218.27499389648438 -82.62999725341797,-203.68899536132812 -87.64700317382812,-171.97000122070312 C-87.64700317382812,-171.97000122070312 -134,-170 -140.18699645996094,-85.23799896240234 C-142.35400390625,-55.54600143432617 -135.62100219726562,-29.444000244140625 -128.8179931640625,-31.42799949645996 C-128.8179931640625,-31.42799949645996 -124.69599914550781,-25.743000030517578 -120.80400085449219,-14.694999694824219 C-120.80400085449219,-14.694999694824219 -118.28900146484375,-25.753000259399414 -118.3290023803711,-41.632999420166016 C-118.3290023803711,-41.632999420166016 -98.88400268554688,-65.35700225830078 -96.9000015258789,-82.93199920654297 C-96.9000015258789,-82.93199920654297 -91.7239990234375,-75.4729995727539 -84.74800109863281,-72.38300323486328 C-84.74800109863281,-72.38300323486328 -84.8740005493164,-81.10600280761719 -82.94300079345703,-94.76399993896484 C-82.94300079345703,-94.76399993896484 -80.05599975585938,-88.26699829101562 -71.75299835205078,-85.01799774169922 C-71.75299835205078,-85.01799774169922 -74.61399841308594,-126.76499938964844 -77.4540023803711,-143.11099243164062z"></path></g><g opacity="1" transform="matrix(1,0,0,1,0,0)"><path fill="rgb(234,157,1)" fill-opacity="1" d=" M139.53900146484375,-98.33000183105469 C136.50999450683594,-125.1510009765625 126.3479995727539,-136.3990020751953 127.68900299072266,-132.5019989013672 C143.63299560546875,-86.16600036621094 122.76100158691406,-44.49700164794922 118.74199676513672,-51.80099868774414 C102.83599853515625,-80.70800018310547 88.5,-90.25 83.13400268554688,-89 C82.74500274658203,-80.56199645996094 69.91699981689453,-93.01000213623047 60.150001525878906,-97.78900146484375 C54.768001556396484,-109.03299713134766 44.659000396728516,-112.6500015258789 44.659000396728516,-112.6500015258789 C49.58599853515625,-106.00700378417969 50.178001403808594,-95.23100280761719 50.178001403808594,-95.23100280761719 C50.178001403808594,-95.23100280761719 50.183998107910156,-95.2239990234375 50.183998107910156,-95.2239990234375 C38.42599868774414,-102.36799621582031 19.718000411987305,-106.45999908447266 -6.866000175476074,-111.96099853515625 C-54.9119987487793,-121.90399932861328 -79.74400329589844,-164.58599853515625 -63.17300033569336,-183.17999267578125 C-36.263999938964844,-213.375 49.37300109863281,-205.26800537109375 70.31600189208984,-188.5679931640625 C17.104000091552734,-231 -82.63099670410156,-203.69000244140625 -87.6510009765625,-171.97000122070312 C-87.6510009765625,-171.97000122070312 -101.2300033569336,-173.5399932861328 -117.08000183105469,-156.83999633789062 C-117.26100158691406,-156.6490020751953 -100.16300201416016,-163.4340057373047 -92.47599792480469,-158.48800659179688 C-85.5,-154 -80.75499725341797,-100.75 -90.73400115966797,-111.41500091552734 C-92,-108 -93.03099822998047,-105.96900177001953 -93.11699676513672,-94.66899871826172 C-93.13500213623047,-92.3219985961914 -104.2249984741211,-107.96099853515625 -104.2249984741211,-107.96099853515625 C-110.88099670410156,-61.78099822998047 -134.5,-65.70500183105469 -136,-42 C-136,-42 -130,-28 -120.80000305175781,-14.699999809265137 C-120.80000305175781,-14.699999809265137 -118.29000091552734,-25.75 -118.33000183105469,-41.630001068115234 C-118.33000183105469,-41.630001068115234 -98.88099670410156,-65.36000061035156 -96.9010009765625,-82.93000030517578 C-96.9010009765625,-82.93000030517578 -91.72000122070312,-75.47000122070312 -84.75,-72.37999725341797 C-84.75,-72.37999725341797 -84.87000274658203,-81.11000061035156 -82.94000244140625,-94.76000213623047 C-82.94000244140625,-94.76000213623047 -80.05999755859375,-88.2699966430664 -71.75,-85.0199966430664 C-71.75,-85.0199966430664 -74.61000061035156,-126.76000213623047 -77.44000244140625,-143.0800018310547 C-77.02999877929688,-141.9499969482422 -63.380001068115234,-105.55000305175781 -13,-96.30000305175781 C19.59000015258789,-90.31999969482422 47.053001403808594,-91.96099853515625 63.37699890136719,-80.06999969482422 C63.57500076293945,-84.052001953125 63.25299835205078,-87.58399963378906 62.569000244140625,-90.71199798583984 C65.96299743652344,-85.47599792480469 81.20899963378906,-65.12100219726562 81.20899963378906,-65.12100219726562 C81.20899963378906,-65.12100219726562 87.90699768066406,-74.87300109863281 88,-75 C93.5780029296875,-69.27999877929688 113.08999633789062,-17.18000030517578 114.81999969482422,-4.590000152587891 C114.81999969482422,-4.590000152587891 120.04000091552734,-10.239999771118164 123.25,-30.719999313354492 C123.25,-30.719999313354492 132.82000732421875,-22.6200008392334 138.32000732421875,-61.619998931884766 C140.16000366210938,-74.68000030517578 140.468994140625,-87.05999755859375 139.53900146484375,-98.33000183105469z"></path></g><g opacity="1" transform="matrix(1,0,0,1,0,0)"><path fill="rgb(255,225,129)" fill-opacity="1" d=" M-97.69300079345703,-153.62100219726562 C-103.13099670410156,-160.13400268554688 -119.95999908447266,-145.03700256347656 -123.36199951171875,-123.04199981689453 C-126.43399810791016,-103.18399810791016 -113.54100036621094,-130.1840057373047 -104.38899993896484,-127.9520034790039 C-95.23699951171875,-125.72000122070312 -93.25700378417969,-148.30799865722656 -97.69300079345703,-153.62100219726562z"></path></g><g opacity="1" transform="matrix(1,0,0,1,0,0)"><path fill="rgb(255,225,129)" fill-opacity="1" d=" M10.602999687194824,-144.56100463867188 C-31.523000717163086,-148.08200073242188 -51.06999969482422,-156.70599365234375 -58.10900115966797,-163.45199584960938 C-63.78499984741211,-168.89199829101562 -63.33599853515625,-175.91299438476562 -57.38800048828125,-181.05999755859375 C-52.68199920654297,-185.1320037841797 -34.54199981689453,-199.8159942626953 17.135000228881836,-196.23699951171875 C46.5629997253418,-194.1999969482422 69.14299774169922,-185.32200622558594 84.96800231933594,-171.9669952392578 C84.97599792480469,-171.95700073242188 84.97599792480469,-171.95700073242188 84.98500061035156,-171.94700622558594 C106.83100128173828,-151.56500244140625 80.99299621582031,-138.677001953125 10.602999687194824,-144.56100463867188z"></path></g><g opacity="1" transform="matrix(1,0,0,1,0,0)"><path stroke-linecap="round" stroke-linejoin="round" fill-opacity="0" stroke="rgb(185,97,0)" stroke-opacity="1" stroke-width="8" d=" M-77.4540023803711,-143.11099243164062 C-77.4540023803711,-143.11099243164062 -64.18099975585938,-105.69999694824219 -12.998000144958496,-96.30500030517578 C19.591999053955078,-90.322998046875 50.180999755859375,-92.80599975585938 62.46099853515625,-76.27200317382812 C62.46099853515625,-76.27200317382812 65.02100372314453,-83.54499816894531 60.465999603271484,-97.11399841308594 C60.465999603271484,-97.11399841308594 82.28299713134766,-63.4640007019043 82.28299713134766,-63.4640007019043 C82.28299713134766,-63.4640007019043 88.1780014038086,-74.74800109863281 85.13800048828125,-87.55000305175781 C85.13800048828125,-87.55000305175781 93.22100067138672,-65.90799713134766 102.75199890136719,-51.50600051879883 C112.28299713134766,-37.104000091552734 113.08899688720703,-17.180999755859375 114.81800079345703,-4.5929999351501465 C114.81800079345703,-4.5929999351501465 120.03800201416016,-10.239999771118164 123.24500274658203,-30.716999053955078 C123.24500274658203,-30.716999053955078 132.81700134277344,-22.624000549316406 138.31700134277344,-61.624000549316406 C142.947998046875,-94.46600341796875 137.8780059814453,-123.00800323486328 127.84300231933594,-140.5469970703125 C119.57499694824219,-154.9980010986328 97.5510025024414,-188.03399658203125 39.50199890136719,-203.6020050048828 C-15.210000038146973,-218.27499389648438 -82.62999725341797,-203.68899536132812 -87.64700317382812,-171.97000122070312 C-87.64700317382812,-171.97000122070312 -137,-170 -140.18699645996094,-85.23799896240234 C-141.30599975585938,-55.48899841308594 -135.62100219726562,-29.444000244140625 -128.8179931640625,-31.42799949645996 C-128.8179931640625,-31.42799949645996 -124.69599914550781,-25.743000030517578 -120.80400085449219,-14.694999694824219 C-120.80400085449219,-14.694999694824219 -118.28900146484375,-25.753000259399414 -118.3290023803711,-41.632999420166016 C-118.3290023803711,-41.632999420166016 -98.88400268554688,-65.35700225830078 -96.9000015258789,-82.93199920654297 C-96.9000015258789,-82.93199920654297 -91.7239990234375,-75.4729995727539 -84.74800109863281,-72.38300323486328 C-84.74800109863281,-72.38300323486328 -84.8740005493164,-81.10600280761719 -82.94300079345703,-94.76399993896484 C-82.94300079345703,-94.76399993896484 -80.05599975585938,-88.26699829101562 -71.75299835205078,-85.01799774169922 C-71.75299835205078,-85.01799774169922 -77,-121 -77.4540023803711,-143.11099243164062z"></path></g></g><g style="display: block;" transform="matrix(0.7547096014022827,0.6560590267181396,-0.6560590267181396,0.7547096014022827,301.03173828125,414.0294189453125)" opacity="1"><g opacity="1" transform="matrix(1,0,0,1,0,0)"><path fill="rgb(244,172,0)" fill-opacity="1" d=" M-88.54000091552734,25.33799934387207 C-88.54000091552734,25.33799934387207 -56.845001220703125,20.490999221801758 -51.720001220703125,22.76099967956543 C-43.237998962402344,26.517000198364258 -39.80699920654297,47.6619987487793 -51.48400115966797,50.77299880981445 C-60.22800064086914,53.10300064086914 -82.7030029296875,57.566001892089844 -82.7030029296875,57.566001892089844"></path><path stroke-linecap="round" stroke-linejoin="round" fill-opacity="0" stroke="rgb(206,115,0)" stroke-opacity="1" stroke-width="8" d=" M-88.54000091552734,25.33799934387207 C-88.54000091552734,25.33799934387207 -56.845001220703125,20.490999221801758 -51.720001220703125,22.76099967956543 C-43.237998962402344,26.517000198364258 -39.80699920654297,47.6619987487793 -51.48400115966797,50.77299880981445 C-60.22800064086914,53.10300064086914 -82.7030029296875,57.566001892089844 -82.7030029296875,57.566001892089844"></path></g><g opacity="1" transform="matrix(1,0,0,1,0,0)"><path fill="rgb(255,207,0)" fill-opacity="1" d=" M-79.47200012207031,29.892000198364258 C-74.90599822998047,4.310999870300293 -94.552001953125,9.61400032043457 -99.67900085449219,9.012999534606934 C-104.80599975585938,8.411999702453613 -107.02200317382812,7.185999870300293 -111.36199951171875,7.185999870300293 C-117.99800109863281,7.185999870300293 -120.59100341796875,7.690000057220459 -126.50700378417969,6.089000225067139 C-132.42300415039062,4.48799991607666 -135.65499877929688,4.310999870300293 -140.72900390625,3.493000030517578 C-143.62600708007812,3.0260000228881836 -148.16600036621094,2.2019999027252197 -153.49000549316406,5.40500020980835 C-158.81399536132812,8.607999801635742 -168.3470001220703,32.665000915527344 -167.7550048828125,33.26599884033203 C-167.7550048828125,33.26599884033203 -172.68099975585938,67.96399688720703 -158.2969970703125,83.5270004272461 C-143.70399475097656,99.31600189208984 -92.08599853515625,109.12799835205078 -82.48500061035156,56.827999114990234"></path><path stroke-linecap="round" stroke-linejoin="round" fill-opacity="0" stroke="rgb(206,115,0)" stroke-opacity="1" stroke-width="8" d=" M-79.47200012207031,29.892000198364258 C-74.90599822998047,4.310999870300293 -94.552001953125,9.61400032043457 -99.67900085449219,9.012999534606934 C-104.80599975585938,8.411999702453613 -107.02200317382812,7.185999870300293 -111.36199951171875,7.185999870300293 C-117.99800109863281,7.185999870300293 -120.59100341796875,7.690000057220459 -126.50700378417969,6.089000225067139 C-132.42300415039062,4.48799991607666 -135.65499877929688,4.310999870300293 -140.72900390625,3.493000030517578 C-143.62600708007812,3.0260000228881836 -148.16600036621094,2.2019999027252197 -153.49000549316406,5.40500020980835 C-158.81399536132812,8.607999801635742 -168.3470001220703,32.665000915527344 -167.7550048828125,33.26599884033203 C-167.7550048828125,33.26599884033203 -172.68099975585938,67.96399688720703 -158.2969970703125,83.5270004272461 C-143.70399475097656,99.31600189208984 -92.08599853515625,109.12799835205078 -82.48500061035156,56.827999114990234"></path></g><g opacity="1" transform="matrix(0.8731300234794617,0,0,0.8731300234794617,-16.0399169921875,6.403255462646484)"><path fill="rgb(244,172,0)" fill-opacity="1" d=" M-79.47200012207031,29.892000198364258 C-74.90599822998047,4.310999870300293 -139.59300231933594,9.376999855041504 -148.74600219726562,14.246000289916992 C-157.8990020751953,19.114999771118164 -175.09500122070312,41.75699996948242 -153.0469970703125,77.54900360107422 C-141.77099609375,95.8550033569336 -92.08599853515625,109.12799835205078 -82.48500061035156,56.827999114990234"></path></g></g><g style="display: none;"><g><path></path><path stroke-linecap="round" stroke-linejoin="round" fill-opacity="0"></path></g><g><path></path><path stroke-linecap="round" stroke-linejoin="round" fill-opacity="0"></path></g><g><path></path><path stroke-linecap="round" stroke-linejoin="round" fill-opacity="0"></path></g><g><path></path><path stroke-linecap="round" stroke-linejoin="round" fill-opacity="0"></path></g><g><path stroke-linecap="round" stroke-linejoin="round" fill-opacity="0"></path></g><g><path stroke-linecap="round" stroke-linejoin="round" fill-opacity="0"></path></g><g><path stroke-linecap="round" stroke-linejoin="round" fill-opacity="0"></path></g></g><g style="display: block;" transform="matrix(1,0,0,1,256,256)" opacity="1"><g opacity="1" transform="matrix(1,0,0,1,0,0)"><path fill="rgb(146,144,147)" fill-opacity="1" d=" M156.27999877929688,34.108001708984375 C156.27999877929688,34.108001708984375 -156.50999450683594,34.108001708984375 -156.50999450683594,34.108001708984375 C-162.6529998779297,34.108001708984375 -167.5189971923828,39.301998138427734 -167.11700439453125,45.43199920654297 C-167.11700439453125,45.43199920654297 -155.21400451660156,227.1219940185547 -155.21400451660156,227.1219940185547 C-154.96099853515625,230.97900390625 -151.75999450683594,233.97799682617188 -147.89500427246094,233.97799682617188 C-147.89500427246094,233.97799682617188 147.66400146484375,233.97799682617188 147.66400146484375,233.97799682617188 C151.5290069580078,233.97799682617188 154.72999572753906,230.97900390625 154.98300170898438,227.1219940185547 C154.98300170898438,227.1219940185547 166.88600158691406,45.43199920654297 166.88600158691406,45.43199920654297 C167.28799438476562,39.301998138427734 162.42300415039062,34.108001708984375 156.27999877929688,34.108001708984375z"></path><path stroke-linecap="round" stroke-linejoin="round" fill-opacity="0" stroke="rgb(68,65,71)" stroke-opacity="1" stroke-width="8" d=" M156.27999877929688,34.108001708984375 C156.27999877929688,34.108001708984375 -156.50999450683594,34.108001708984375 -156.50999450683594,34.108001708984375 C-162.6529998779297,34.108001708984375 -167.5189971923828,39.301998138427734 -167.11700439453125,45.43199920654297 C-167.11700439453125,45.43199920654297 -155.21400451660156,227.1219940185547 -155.21400451660156,227.1219940185547 C-154.96099853515625,230.97900390625 -151.75999450683594,233.97799682617188 -147.89500427246094,233.97799682617188 C-147.89500427246094,233.97799682617188 147.66400146484375,233.97799682617188 147.66400146484375,233.97799682617188 C151.5290069580078,233.97799682617188 154.72999572753906,230.97900390625 154.98300170898438,227.1219940185547 C154.98300170898438,227.1219940185547 166.88600158691406,45.43199920654297 166.88600158691406,45.43199920654297 C167.28799438476562,39.301998138427734 162.42300415039062,34.108001708984375 156.27999877929688,34.108001708984375z"></path></g><g opacity="1" transform="matrix(1,0,0,1,0,0)"><path fill="url(#__lottie_element_24725)" fill-opacity="1" d=" M-0.6110000014305115,116 C-20.82699966430664,116 -37.22100067138672,128.83099365234375 -37.22100067138672,144.65499877929688 C-37.22100067138672,160.47900390625 -20.82699966430664,173.3000030517578 -0.6110000014305115,173.3000030517578 C19.604999542236328,173.3000030517578 36,160.47900390625 36,144.65499877929688 C36,128.83099365234375 19.604999542236328,116 -0.6110000014305115,116z M15.156000137329102,158.0749969482422 C14.696999549865723,159.58599853515625 14.934000015258789,161.3939971923828 13.512999534606934,162.60899353027344 C11.173999786376953,164.19400024414062 7.931000232696533,162.3769989013672 5.791999816894531,161.33900451660156 C1.4919999837875366,159.05799865722656 -2.99399995803833,156.94400024414062 -7.034999847412109,154.36599731445312 C-9.937000274658203,152.3260040283203 -5.510000228881836,150.4810028076172 -3.8369998931884766,149.07200622558594 C-1.5049999952316284,147.3470001220703 7.0279998779296875,141.4320068359375 7.835000038146973,139.62399291992188 C8.109000205993652,137.38999938964844 -6.991000175476074,146.0590057373047 -9.722000122070312,147.5050048828125 C-13.378999710083008,149.32200622558594 -15.694999694824219,151.53799438476562 -20.417999267578125,150.26800537109375 C-22.660999298095703,149.72999572753906 -30.180999755859375,147.9040069580078 -29.618000030517578,146.67999267578125 C-29,144 3.0980000495910645,135.46099853515625 10.758999824523926,132.92100524902344 C13.394000053405762,132.3179931640625 19.634000778198242,128.99000549316406 20.070999145507812,132.92100524902344 C18.708999633789062,141.3489990234375 16.80699920654297,149.6840057373047 15.156000137329102,158.0749969482422z"></path></g><g opacity="0.2" transform="matrix(1,0,0,1,0,0)"><path fill="url(#__lottie_element_24726)" fill-opacity="1" d=" M166.88999938964844,45.43000030517578 C166.88999938964844,45.43000030517578 154,233 154,233 C151,238 -60.529998779296875,233.97999572753906 -60.529998779296875,233.97999572753906 C-60.529998779296875,233.97999572753906 106.66999816894531,34.11000061035156 106.66999816894531,34.11000061035156 C106.66999816894531,34.11000061035156 169,26 166.88999938964844,45.43000030517578z"></path></g><g opacity="1" transform="matrix(1,0,0,1,0,0)"><path stroke-linecap="round" stroke-linejoin="round" fill-opacity="0" stroke="rgb(116,113,119)" stroke-opacity="1" stroke-width="8" d=" M154.98300170898438,227.1219940185547 C154.98300170898438,227.1219940185547 166.88600158691406,45.43199920654297 166.88600158691406,45.43199920654297 C167.28799438476562,39.301998138427734 162.42300415039062,34.108001708984375 156.27999877929688,34.108001708984375 C156.27999877929688,34.108001708984375 -0.14000000059604645,34.108001708984375 -0.14000000059604645,34.108001708984375 C-0.14000000059604645,34.108001708984375 -156.50999450683594,34.108001708984375 -156.50999450683594,34.108001708984375 C-162.6529998779297,34.108001708984375 -167.5189971923828,39.301998138427734 -167.11700439453125,45.43199920654297 C-167.11700439453125,45.43199920654297 -155.21400451660156,227.1219940185547 -155.21400451660156,227.1219940185547"></path></g><g opacity="1" transform="matrix(1,0,0,1,0,0)"><path stroke-linecap="round" stroke-linejoin="round" fill-opacity="0" stroke="rgb(200,199,201)" stroke-opacity="1" stroke-width="8" d=" M166.88600158691406,45.43199920654297 C167.28799438476562,39.301998138427734 162.42300415039062,34.108001708984375 156.27999877929688,34.108001708984375 C156.27999877929688,34.108001708984375 -0.14000000059604645,34.108001708984375 -0.14000000059604645,34.108001708984375 C-0.14000000059604645,34.108001708984375 -156.50999450683594,34.108001708984375 -156.50999450683594,34.108001708984375 C-162.6529998779297,34.108001708984375 -167.5189971923828,39.301998138427734 -167.11700439453125,45.43199920654297"></path></g></g><g style="display: none;"><g><path></path><path stroke-linecap="round" stroke-linejoin="round" fill-opacity="0"></path></g><g><path></path><path stroke-linecap="round" stroke-linejoin="round" fill-opacity="0"></path></g><g><path></path><path stroke-linecap="round" stroke-linejoin="round" fill-opacity="0"></path></g><g><path></path><path stroke-linecap="round" stroke-linejoin="round" fill-opacity="0"></path></g><g><path stroke-linecap="round" stroke-linejoin="round" fill-opacity="0"></path></g><g><path stroke-linecap="round" stroke-linejoin="round" fill-opacity="0"></path></g><g><path stroke-linecap="round" stroke-linejoin="round" fill-opacity="0"></path></g></g><g style="display: block;" transform="matrix(1,0,0,1,255.95399475097656,249.76296997070312)" opacity="1"><g opacity="1" transform="matrix(1,0,0,1,0,0)"><path stroke-linecap="round" stroke-linejoin="round" fill-opacity="0" stroke="rgb(255,255,255)" stroke-opacity="1" stroke-width="6" d=" M26.9060001373291,-194.1750030517578 C28.628999710083008,-193.96299743652344 30.420000076293945,-193.7209930419922 32.268001556396484,-193.44400024414062"></path></g><g opacity="1" transform="matrix(1,0,0,1,0,0)"><path stroke-linecap="round" stroke-linejoin="round" fill-opacity="0" stroke="rgb(255,255,255)" stroke-opacity="1" stroke-width="6" d=" M3.1070001125335693,-195.60899353027344 C3.1070001125335693,-195.60899353027344 8.486000061035156,-195.7790069580078 17.104000091552734,-195.14100646972656"></path></g></g></g></svg>