<svg xmlns="http://www.w3.org/2000/svg" viewBox="0 0 512 512" width="512" height="512" style="width: 100%; height: 100%; transform: translate3d(0,0,0);" preserveAspectRatio="xMidYMid meet"><defs><clipPath id="__lottie_element_24758"><rect width="512" height="512" x="0" y="0"></rect></clipPath><clipPath id="__lottie_element_24761"><path d="M0,0 L512,0 L512,512 L0,512z"></path></clipPath><clipPath id="__lottie_element_25235"><path d="M0,0 L512,0 L512,512 L0,512z"></path></clipPath></defs><g clip-path="url(#__lottie_element_24758)"><g clip-path="url(#__lottie_element_24761)" style="display: none;"><g style="display: none;"><g><path></path><g></g></g><g><path stroke-linecap="round" stroke-linejoin="round" fill-opacity="0"></path></g></g><g style="display: none;"><g><path></path><g></g></g></g><g style="display: none;"><g><path></path><g></g></g></g><g style="display: none;"><g><path stroke-linecap="round" stroke-linejoin="round" fill-opacity="0"></path></g></g><g style="display: none;"><g><path stroke-linecap="butt" stroke-linejoin="miter" fill-opacity="0" stroke-miterlimit="10"></path></g></g><g style="display: none;"><g><path></path><g></g></g></g><g style="display: none;"><g><path></path><g></g></g></g><g style="display: none;"><g><path stroke-linecap="round" stroke-linejoin="round" fill-opacity="0"></path></g></g><g style="display: none;"><g><path stroke-linecap="butt" stroke-linejoin="miter" fill-opacity="0" stroke-miterlimit="10"></path></g></g><g style="display: none;"><g><path></path><g></g></g></g><g style="display: none;"><g><path></path><g></g></g></g><g style="display: none;"><g><path></path><g></g></g></g><g style="display: none;"><g><path stroke-linecap="butt" stroke-linejoin="miter" fill-opacity="0" stroke-miterlimit="10"></path></g></g><g style="display: none;"><g><path></path><g></g></g></g><g style="display: none;"><g><path></path><g></g></g></g><g style="display: none;"><g><path></path><g></g></g></g><g style="display: none;"><g><path stroke-linecap="round" stroke-linejoin="round" fill-opacity="0"></path></g></g><g style="display: none;"><g><path stroke-linecap="round" stroke-linejoin="round" fill-opacity="0"></path></g><g><path stroke-linecap="round" stroke-linejoin="round" fill-opacity="0"></path></g></g><g style="display: none;"><g><path></path><g></g></g></g><g style="display: none;"><g><path></path><g></g></g></g><g style="display: none;"><g><path></path><g></g></g></g><g style="display: none;"><g><path></path><g></g></g></g><g style="display: none;"><g><path></path><g></g></g></g><g style="display: none;"><g><path></path><g></g></g></g><g style="display: none;"><g><path></path><g></g></g></g><g style="display: none;"><g><path></path><g></g></g></g><g style="display: none;"><g><path></path><path stroke-linecap="butt" stroke-linejoin="miter" fill-opacity="0" stroke-miterlimit="4"></path></g></g><g style="display: none;"><g><path></path><g></g></g><g><path></path><g></g></g></g><g style="display: none;"><g><path></path><g></g></g></g><g style="display: none;"><g><path></path><g></g></g></g><g style="display: none;"><g><path></path><g></g></g></g><g style="display: none;"><g><path></path><g></g></g></g><g style="display: none;"><g><path></path></g></g><g style="display: none;"><g><path></path><g></g></g></g><g style="display: none;"><g><path stroke-linecap="round" stroke-linejoin="round" fill-opacity="0"></path></g></g><g style="display: none;"><g><path></path><g></g></g></g><g style="display: none;"><g><path></path><g></g></g></g><g style="display: none;"><g><path stroke-linecap="round" stroke-linejoin="round" fill-opacity="0"></path></g></g><g style="display: none;"><g><path stroke-linecap="round" stroke-linejoin="round" fill-opacity="0"></path></g></g><g style="display: none;"><g><path></path><g></g></g></g><g style="display: none;"><path></path><g></g></g><g style="display: none;"><path></path><g></g></g><g style="display: none;"><path></path><g></g></g><g style="display: none;"><path></path><g></g></g><g style="display: none;"><path></path><g></g></g><g style="display: none;"><path></path><g></g></g><g style="display: none;"><path></path><g></g></g><g style="display: none;"><path></path><g></g></g><g style="display: none;"><path></path><g></g></g><g style="display: none;"><path></path><g></g></g><g style="display: none;"><path></path><g></g></g><g style="display: none;"><path></path><g></g></g><g style="display: none;"><path></path><g></g></g><g style="display: none;"><path></path><g></g></g><g style="display: none;"><path></path><g></g></g><g style="display: none;"><path></path><g></g></g><g style="display: none;"><path></path><g></g></g><g style="display: none;"><path></path><g></g></g><g style="display: none;"><path></path><g></g></g><g style="display: none;"><path></path><g></g></g><g style="display: none;"><path></path><g></g></g><g style="display: none;"><path></path><g></g></g><g style="display: none;"><path></path><g></g></g><g style="display: none;"><g><path></path></g></g><g style="display: none;"><g><path></path><g></g></g></g><g style="display: none;"><g><path></path></g></g><g style="display: none;"><g><path></path><g></g></g></g><g style="display: none;"><g><path stroke-linecap="round" stroke-linejoin="round" fill-opacity="0"></path></g></g><g style="display: none;"><g><path stroke-linecap="round" stroke-linejoin="round" fill-opacity="0"></path></g></g><g style="display: none;"><g><path stroke-linecap="round" stroke-linejoin="round" fill-opacity="0"></path></g></g><g style="display: none;"><g><path stroke-linecap="round" stroke-linejoin="round" fill-opacity="0"></path></g></g><g style="display: none;"><g><path stroke-linecap="round" stroke-linejoin="round" fill-opacity="0"></path></g></g><g style="display: none;"><g><path></path><g></g></g></g><g style="display: none;"><g><path></path><g></g></g></g><g style="display: none;"><g><path></path><g></g></g></g><g style="display: none;"><g><path></path><g></g></g></g><g style="display: none;"><g><path></path><g></g></g></g><g style="display: none;"><g><path></path><g></g></g></g><g style="display: none;"><g><path></path><g></g></g></g><g style="display: none;"><g><path></path><g></g></g></g><g style="display: none;"><g><path></path><g></g></g></g><g style="display: none;"><g><path></path><g></g></g></g><g style="display: none;"><g><path></path><g></g></g></g><g style="display: none;"><g><path></path><g></g></g></g><g style="display: none;"><g><path></path><g></g></g></g><g style="display: none;"><g><path></path><g></g></g></g><g style="display: none;"><g><path></path><g></g></g></g><g style="display: none;"><g><path></path><g></g></g></g><g style="display: none;"><g><path></path><g></g></g></g><g style="display: none;"><g><path></path><g></g></g></g><g style="display: none;"><g><path></path><g></g></g></g><g style="display: none;"><g><path></path><g></g></g></g><g style="display: none;"><g><path></path><g></g></g></g><g style="display: none;"><g><path></path><g></g></g></g><g style="display: none;"><g><path></path><g></g></g></g><g style="display: none;"><g><path></path><g></g></g></g><g style="display: none;"><g><path></path><g></g></g></g><g style="display: none;"><g><path></path><g></g></g></g><g style="display: none;"><g><path></path><g></g></g></g><g style="display: none;"><g><path></path><g></g></g></g><g style="display: none;"><g><path></path><g></g></g></g><g style="display: none;"><g><path></path><g></g></g></g><g style="display: none;"><g><path></path><g></g></g></g><g style="display: none;"><g><path></path><g></g></g></g><g style="display: none;"><g><path></path><g></g></g></g><g style="display: none;"><g><path></path><g></g></g></g><g style="display: none;"><g><path></path><g></g></g></g><g style="display: none;"><g><path></path><g></g></g></g><g style="display: none;"><g><path></path><g></g></g></g><g style="display: none;"><g><path></path><g></g></g></g><g style="display: none;"><g><path></path><g></g></g></g><g style="display: none;"><g><path></path><g></g></g></g><g style="display: none;"><g><path></path><g></g></g></g><g style="display: none;"><g><path></path><g></g></g></g><g style="display: none;"><g><path></path><g></g></g></g><g style="display: none;"><g><path></path></g></g><g style="display: none;"><g><path></path></g></g><g style="display: none;"><g><path></path><g></g></g></g><g style="display: none;"><g><path></path><g></g></g></g><g style="display: none;"><g><path></path><g></g></g></g><g style="display: none;"><g><path></path><g></g></g></g><g style="display: none;"><g><path></path><g></g></g></g><g style="display: none;"><g><path></path><g></g></g></g><g style="display: none;"><g><path></path><g></g></g></g><g style="display: none;"><g><path></path><g></g></g><g><path></path><g></g></g></g><g style="display: none;"><g><path></path><g></g></g><g><path></path><g></g></g></g><g style="display: none;"><g><path></path><g></g></g><g><path></path><g></g></g></g><g style="display: none;"><g><path stroke-linecap="round" stroke-linejoin="round" fill-opacity="0"></path></g></g><g style="display: none;"><g><path stroke-linecap="round" stroke-linejoin="round" fill-opacity="0"></path></g></g><g style="display: none;"><g><path stroke-linecap="round" stroke-linejoin="round" fill-opacity="0"></path></g></g><g style="display: none;"><g><path stroke-linecap="round" stroke-linejoin="round" fill-opacity="0"></path></g></g><g style="display: none;"><g><path stroke-linecap="round" stroke-linejoin="round" fill-opacity="0"></path></g></g><g style="display: none;"><g><path stroke-linecap="round" stroke-linejoin="round" fill-opacity="0"></path></g></g><g style="display: none;"><g><path stroke-linecap="round" stroke-linejoin="round" fill-opacity="0"></path></g></g><g style="display: none;"><g><path stroke-linecap="round" stroke-linejoin="round" fill-opacity="0"></path></g></g><g style="display: none;"><g><path stroke-linecap="round" stroke-linejoin="round" fill-opacity="0"></path></g></g><g style="display: none;"><g><path stroke-linecap="round" stroke-linejoin="round" fill-opacity="0"></path></g></g><g style="display: none;"><g><path stroke-linecap="round" stroke-linejoin="round" fill-opacity="0"></path></g></g><g style="display: none;"><g><path stroke-linecap="round" stroke-linejoin="round" fill-opacity="0"></path></g></g><g style="display: none;"><g><path stroke-linecap="round" stroke-linejoin="round" fill-opacity="0"></path></g></g><g style="display: none;"><g><path stroke-linecap="round" stroke-linejoin="round" fill-opacity="0"></path></g></g><g style="display: none;"><g><path stroke-linecap="round" stroke-linejoin="round" fill-opacity="0"></path></g></g><g style="display: none;"><g><path stroke-linecap="round" stroke-linejoin="round" fill-opacity="0"></path></g></g><g style="display: none;"><g><path stroke-linecap="round" stroke-linejoin="round" fill-opacity="0"></path></g></g><g style="display: none;"><g><path stroke-linecap="round" stroke-linejoin="round" fill-opacity="0"></path></g></g><g style="display: none;"><g><path stroke-linecap="round" stroke-linejoin="round" fill-opacity="0"></path></g></g><g style="display: none;"><g><path stroke-linecap="round" stroke-linejoin="round" fill-opacity="0"></path></g></g><g style="display: none;"><g><path stroke-linecap="round" stroke-linejoin="round" fill-opacity="0"></path></g></g><g style="display: none;"><g><path stroke-linecap="round" stroke-linejoin="round" fill-opacity="0"></path></g></g><g style="display: none;"><g><path stroke-linecap="round" stroke-linejoin="round" fill-opacity="0"></path></g></g><g style="display: none;"><g><path stroke-linecap="round" stroke-linejoin="round" fill-opacity="0"></path></g></g><g style="display: none;"><g><path stroke-linecap="round" stroke-linejoin="round" fill-opacity="0"></path></g></g><g style="display: none;"><g><path stroke-linecap="round" stroke-linejoin="round" fill-opacity="0"></path></g></g><g style="display: none;"><g><path stroke-linecap="round" stroke-linejoin="round" fill-opacity="0"></path></g></g><g style="display: none;"><g><path stroke-linecap="round" stroke-linejoin="round" fill-opacity="0"></path></g></g></g><g clip-path="url(#__lottie_element_25235)" style="display: block;" transform="matrix(-1,0,0,1,512,0)" opacity="1"><g style="display: block;" transform="matrix(0.9900000095367432,0,0,1,48.046142578125,262.083984375)" opacity="1"><g opacity="1" transform="matrix(1,0,0,1,204.21400451660156,88.40299987792969)"><path fill="rgb(150,116,57)" fill-opacity="1" d=" M184.4029998779297,-53.32500076293945 C184.4029998779297,-53.32500076293945 176.4429931640625,-42.625 176.4429931640625,-42.625 C176.4429931640625,-42.625 166.10000610351562,-57.98699951171875 166.10000610351562,-57.98699951171875 C166.10000610351562,-57.98699951171875 153.25999450683594,-40.297000885009766 153.25999450683594,-40.297000885009766 C153.25999450683594,-40.297000885009766 130.5290069580078,-68.40299987792969 130.5290069580078,-68.40299987792969 C130.5290069580078,-68.40299987792969 97.4749984741211,-34.64899826049805 97.4749984741211,-34.64899826049805 C97.4749984741211,-34.64899826049805 34.52899932861328,-47.145999908447266 34.52899932861328,-47.145999908447266 C34.52899932861328,-47.145999908447266 -17.351999282836914,-34.64899826049805 -17.351999282836914,-34.64899826049805 C-17.351999282836914,-34.64899826049805 -48.44300079345703,-51.5260009765625 -48.44300079345703,-51.5260009765625 C-48.44300079345703,-51.5260009765625 -107.59200286865234,-41.41400146484375 -107.59200286865234,-41.41400146484375 C-107.59200286865234,-41.41400146484375 -143.41400146484375,-60.9900016784668 -143.41400146484375,-60.9900016784668 C-143.41400146484375,-60.9900016784668 -162.61300659179688,-47.145999908447266 -162.61300659179688,-47.145999908447266 C-162.61300659179688,-47.145999908447266 -178.78599548339844,-52.84000015258789 -178.78599548339844,-52.84000015258789 C-178.78599548339844,-52.84000015258789 -184.21299743652344,12.854000091552734 -130.38499450683594,40.28300094604492 C-76.55599975585938,67.71099853515625 181.51600646972656,70.27799987792969 184.4029998779297,-53.32500076293945z"></path><g opacity="1" transform="matrix(1,0,0,1,0,0)"></g></g><g opacity="1" transform="matrix(1,0,0,1,204.21400451660156,88.40299987792969)"><path stroke-linecap="round" stroke-linejoin="round" fill-opacity="0" stroke="rgb(104,80,44)" stroke-opacity="1" stroke-width="8" d=" M184.4029998779297,-53.32500076293945 C184.4029998779297,-53.32500076293945 176.4429931640625,-42.625 176.4429931640625,-42.625 C176.4429931640625,-42.625 166.10000610351562,-57.98699951171875 166.10000610351562,-57.98699951171875 C166.10000610351562,-57.98699951171875 153.25999450683594,-40.297000885009766 153.25999450683594,-40.297000885009766 C153.25999450683594,-40.297000885009766 130.5290069580078,-68.40299987792969 130.5290069580078,-68.40299987792969 C130.5290069580078,-68.40299987792969 97.4749984741211,-34.64899826049805 97.4749984741211,-34.64899826049805 C97.4749984741211,-34.64899826049805 34.52899932861328,-47.145999908447266 34.52899932861328,-47.145999908447266 C34.52899932861328,-47.145999908447266 -17.351999282836914,-34.64899826049805 -17.351999282836914,-34.64899826049805 C-17.351999282836914,-34.64899826049805 -48.44300079345703,-51.5260009765625 -48.44300079345703,-51.5260009765625 C-48.44300079345703,-51.5260009765625 -107.59200286865234,-41.41400146484375 -107.59200286865234,-41.41400146484375 C-107.59200286865234,-41.41400146484375 -143.41400146484375,-60.9900016784668 -143.41400146484375,-60.9900016784668 C-143.41400146484375,-60.9900016784668 -162.61300659179688,-47.145999908447266 -162.61300659179688,-47.145999908447266 C-162.61300659179688,-47.145999908447266 -178.78599548339844,-52.84000015258789 -178.78599548339844,-52.84000015258789 C-178.78599548339844,-52.84000015258789 -184.21299743652344,12.854000091552734 -130.38499450683594,40.28300094604492 C-76.55599975585938,67.71099853515625 181.51600646972656,70.27799987792969 184.4029998779297,-53.32500076293945z"></path></g></g><g style="display: block;" transform="matrix(0.9794240593910217,0.20181302726268768,-0.20181302726268768,0.9794240593910217,72.12203979492188,211.8840789794922)" opacity="1"><g opacity="1" transform="matrix(1,0,0,1,68.45999908447266,47.55500030517578)"><path fill="rgb(255,170,18)" fill-opacity="1" d=" M43.7140007019043,-31.00200080871582 C43.7140007019043,-31.00200080871582 22.700000762939453,-47.30400085449219 -5.4670000076293945,-33.85100173950195 C-45.582000732421875,-14.692999839782715 -68.20999908447266,26.79199981689453 -63.75299835205078,37.7130012512207 C-59.8390007019043,47.30400085449219 -17.054000854492188,26.535999298095703 17.024999618530273,31.635000228881836 C51.104000091552734,36.73500061035156 68.20999908447266,-15.767000198364258 43.7140007019043,-31.00200080871582z"></path><g opacity="1" transform="matrix(1,0,0,1,0,0)"></g></g></g><g style="display: block;" transform="matrix(0.9794240593910217,0.20181302726268768,-0.20181302726268768,0.9794240593910217,72.1214599609375,211.8819122314453)" opacity="1"><g opacity="1" transform="matrix(1,0,0,1,63.42499923706055,44.20500183105469)"><path fill="rgb(251,202,29)" fill-opacity="1" d=" M54.03499984741211,18.21500015258789 C57.084999084472656,6.625 54.775001525878906,-5.864999771118164 45.17499923706055,-11.835000038146973 C45.17499923706055,-11.835000038146973 26.763999938964844,-26.125 2.075000047683716,-14.335000038146973 C-28.55500030517578,0.29499998688697815 -47.55500030517578,29.78499984741211 -49.345001220703125,43.45500183105469 C-54.375,43.95500183105469 -57.744998931884766,43.44499969482422 -58.71500015258789,41.064998626708984 C-63.17499923706055,30.145000457763672 -40.54499816894531,-11.345000267028809 -0.4350000023841858,-30.5049991607666 C27.735000610351562,-43.95500183105469 48.755001068115234,-27.655000686645508 48.755001068115234,-27.655000686645508 C63.03499984741211,-18.764999389648438 63.17499923706055,2.805000066757202 54.03499984741211,18.21500015258789z"></path><g opacity="1" transform="matrix(1,0,0,1,0,0)"></g></g></g><g style="display: block;" transform="matrix(0.9794240593910217,0.20181302726268768,-0.20181302726268768,0.9794240593910217,92.04481506347656,203.72384643554688)" opacity="1"><g opacity="1" transform="matrix(1,0,0,1,49.356998443603516,37.6150016784668)"><path stroke-linecap="round" stroke-linejoin="round" fill-opacity="0" stroke="rgb(253,230,59)" stroke-opacity="1" stroke-width="11" d=" M-21.85700035095215,10.11400032043457 C-21.85700035095215,10.11400032043457 1.1139999628067017,-10.114999771118164 21.85700035095215,-6.3429999351501465"></path></g></g><g style="display: block;" transform="matrix(0.9794240593910217,0.20181302726268768,-0.20181302726268768,0.9794240593910217,56.76422119140625,188.5546417236328)" opacity="1"><g opacity="1" transform="matrix(1,0,0,1,88.20999908447266,67.30500030517578)"><path stroke-linecap="butt" stroke-linejoin="miter" fill-opacity="0" stroke-miterlimit="10" stroke="rgb(206,117,0)" stroke-opacity="1" stroke-width="8" d=" M43.7140007019043,-31.00200080871582 C43.7140007019043,-31.00200080871582 22.700000762939453,-47.30400085449219 -5.4670000076293945,-33.85100173950195 C-45.582000732421875,-14.692999839782715 -68.20999908447266,26.79199981689453 -63.75299835205078,37.7130012512207 C-59.8390007019043,47.30400085449219 -17.054000854492188,26.535999298095703 17.024999618530273,31.635000228881836 C51.104000091552734,36.73500061035156 68.20999908447266,-15.767000198364258 43.7140007019043,-31.00200080871582z"></path></g></g><g style="display: block;" transform="matrix(0.9976173043251038,0.06899038702249527,-0.06899038702249527,0.9976173043251038,328.747314453125,213.42103576660156)" opacity="1"><g opacity="1" transform="matrix(1,0,0,1,70.47100067138672,43.63600158691406)"><path fill="rgb(255,170,18)" fill-opacity="1" d=" M-47.6619987487793,-24.750999450683594 C-47.6619987487793,-24.750999450683594 -28.684999465942383,-43.38600158691406 0.8550000190734863,-33.29899978637695 C42.92399978637695,-18.93199920654297 70.22100067138672,19.642000198364258 67.06300354003906,31.006999969482422 C64.29000091552734,40.987998962402344 19.381000518798828,25.333999633789062 -13.87399959564209,34.36000061035156 C-47.12900161743164,43.38600158691406 -70.22100067138672,-6.771999835968018 -47.6619987487793,-24.750999450683594z"></path><g opacity="1" transform="matrix(1,0,0,1,0,0)"></g></g></g><g style="display: block;" transform="matrix(0.9976173043251038,0.06899038702249527,-0.06899038702249527,0.9976173043251038,338.1290283203125,214.0678253173828)" opacity="1"><g opacity="1" transform="matrix(1,0,0,1,65.7699966430664,39.18000030517578)"><path fill="rgb(251,202,29)" fill-opacity="1" d=" M-52.28300094604492,25.875999450683594 C-56.659000396728516,14.718999862670898 -55.81700134277344,2.0460000038146973 -46.974998474121094,-4.999000072479248 C-46.974998474121094,-4.999000072479248 -30.35099983215332,-21.332000732421875 -4.458000183105469,-12.491999626159668 C27.665000915527344,-1.5210000276565552 49.9640007019043,25.559999465942383 53.33000183105469,38.93000030517578 C58.38399887084961,38.84199905395508 61.672000885009766,37.944000244140625 62.35900115966797,35.46699905395508 C65.5199966430664,24.10300064086914 38.220001220703125,-14.47599983215332 -3.8450000286102295,-28.8439998626709 C-33.387001037597656,-38.92900085449219 -52.369998931884766,-20.29599952697754 -52.369998931884766,-20.29599952697754 C-65.5199966430664,-9.805999755859375 -63.152000427246094,11.633000373840332 -52.28300094604492,25.875999450683594z"></path><g opacity="1" transform="matrix(1,0,0,1,0,0)"></g></g></g><g style="display: block;" transform="matrix(0.9976173043251038,0.06899038702249527,-0.06899038702249527,0.9976173043251038,363.4991149902344,206.66647338867188)" opacity="1"><g opacity="1" transform="matrix(1,0,0,1,50.513999938964844,39.922000885009766)"><path stroke-linecap="round" stroke-linejoin="round" fill-opacity="0" stroke="rgb(253,230,59)" stroke-opacity="1" stroke-width="11" d=" M-23.013999938964844,-12.42199993133545 C-23.013999938964844,-12.42199993133545 1.156000018119812,-8.914999961853027 23.013999938964844,12.42199993133545"></path></g></g><g style="display: block;" transform="matrix(0.9976173043251038,0.06899038702249527,-0.06899038702249527,0.9976173043251038,327.315673828125,214.94589233398438)" opacity="1"><g opacity="1" transform="matrix(1,0,0,1,90.22100067138672,63.38600158691406)"><path stroke-linecap="butt" stroke-linejoin="miter" fill-opacity="0" stroke-miterlimit="10" stroke="rgb(206,117,0)" stroke-opacity="1" stroke-width="8" d=" M-67.41200256347656,-44.500999450683594 C-67.41200256347656,-44.500999450683594 -48.435001373291016,-63.13600158691406 -18.895000457763672,-53.04899978637695 C23.173999786376953,-38.68199920654297 50.47100067138672,-0.1080000028014183 47.3129997253418,11.256999969482422 C44.540000915527344,21.238000869750977 -0.36899998784065247,5.584000110626221 -33.624000549316406,14.609999656677246 C-66.87899780273438,23.63599967956543 -89.97100067138672,-26.52199935913086 -67.41200256347656,-44.500999450683594z"></path></g></g><g style="display: block;" transform="matrix(1,0,0,1,139.0830078125,197.92198181152344)" opacity="1"><g opacity="1" transform="matrix(1,0,0,1,122.65399932861328,122.2229995727539)"><path fill="rgb(251,202,29)" fill-opacity="1" d=" M122.40399932861328,24.54199981689453 C122.40399932861328,73.9800033569336 67.60199737548828,121.9729995727539 0,121.9729995727539 C-67.60199737548828,121.9729995727539 -122.40399932861328,73.9800033569336 -122.40399932861328,24.54199981689453 C-122.40399932861328,-42.99399948120117 -81.25299835205078,-121.9729995727539 0,-121.9729995727539 C80.23300170898438,-121.9729995727539 122.40399932861328,-41.994998931884766 122.40399932861328,24.54199981689453z"></path><g opacity="1" transform="matrix(1,0,0,1,0,0)"></g></g></g><g style="display: block;" transform="matrix(1,0,0,1,174.33700561523438,231.24197387695312)" opacity="1"><g opacity="1" transform="matrix(1,0,0,1,87.4000015258789,49.02899932861328)"><path fill="rgb(251,223,57)" fill-opacity="1" d=" M87.1500015258789,5.751999855041504 C87.1500015258789,31.165000915527344 50.82500076293945,48.77899932861328 -0.0010000000474974513,48.77899932861328 C-50.82600021362305,48.77899932861328 -87.1500015258789,31.165000915527344 -87.1500015258789,5.751999855041504 C-87.1500015258789,-22.812999725341797 -47.99700164794922,-48.77899932861328 -0.0010000000474974513,-48.77899932861328 C47.92599868774414,-48.77899932861328 87.1500015258789,-23.927000045776367 87.1500015258789,5.751999855041504z"></path><g opacity="1" transform="matrix(1,0,0,1,0,0)"></g></g></g><g style="display: block;" transform="matrix(1,0,0,1,167.48098754882812,211.97998046875)" opacity="1"><g opacity="1" transform="matrix(1,0,0,1,92.3280029296875,39.36399841308594)"><path fill="rgb(255,169,18)" fill-opacity="1" d=" M92.0790023803711,-6.394999980926514 C80.13800048828125,17.893999099731445 46.630001068115234,39.11399841308594 1.9709999561309814,39.11399841308594 C-42.986000061035156,39.11399841308594 -80.40499877929688,22.618000030517578 -92.0790023803711,-1.909999966621399 C-66.46900177001953,-39.11399841308594 -39.250999450683594,-39.11399841308594 1.9709999561309814,-39.11399841308594 C42.78799819946289,-39.11399841308594 67.14099884033203,-31.638999938964844 92.0790023803711,-6.394999980926514z"></path><g opacity="1" transform="matrix(1,0,0,1,0,0)"></g></g></g><g style="display: block;" transform="matrix(1,0,0,1,119.33299255371094,178.17196655273438)" opacity="1"><g opacity="1" transform="matrix(1,0,0,1,142.4040069580078,141.97300720214844)"><path stroke-linecap="butt" stroke-linejoin="miter" fill-opacity="0" stroke-miterlimit="10" stroke="rgb(206,117,0)" stroke-opacity="1" stroke-width="8" d=" M122.40399932861328,24.54199981689453 C122.40399932861328,73.9800033569336 67.60199737548828,121.9729995727539 0,121.9729995727539 C-67.60199737548828,121.9729995727539 -122.40399932861328,73.9800033569336 -122.40399932861328,24.54199981689453 C-122.40399932861328,-42.99399948120117 -81.25299835205078,-121.97200012207031 0,-121.97200012207031 C80.23300170898438,-121.97200012207031 122.40399932861328,-41.994998931884766 122.40399932861328,24.54199981689453z"></path></g></g><g style="display: block;" transform="matrix(0.935591995716095,-0.3530829846858978,0.3530829846858978,0.935591995716095,120.35747528076172,126.75421142578125)" opacity="1"><g opacity="1" transform="matrix(1,0,0,1,100.78199768066406,102.25499725341797)"><path fill="rgb(251,202,29)" fill-opacity="1" d=" M87.26000213623047,43.459999084472656 C77.39900207519531,80.4530029296875 28.992000579833984,102.00499725341797 -20.142000198364258,88.90699768066406 C-69.2760009765625,75.80999755859375 -100.53199768066406,33.020999908447266 -90.6709976196289,-3.9719998836517334 C-77.19999694824219,-54.50699996948242 -32.50400161743164,-102.00399780273438 26.55299949645996,-86.26200103759766 C84.86699676513672,-70.71700286865234 100.53199768066406,-6.328000068664551 87.26000213623047,43.459999084472656z"></path><g opacity="1" transform="matrix(1,0,0,1,0,0)"></g></g></g><g style="display: block;" transform="matrix(0.935591995716095,-0.3530829846858978,0.3530829846858978,0.935591995716095,144.55062866210938,131.44407653808594)" opacity="1"><g opacity="1" transform="matrix(1,0,0,1,82.5479965209961,74.91799926757812)"><path fill="rgb(253,230,59)" fill-opacity="1" d=" M73.12100219726562,40.486000061035156 C66.302001953125,66.06700134277344 24.944000244140625,74.66799926757812 -14.26200008392334,64.96399688720703 C-63.96500015258789,52.6609992980957 -82.2979965209961,25.180999755859375 -75.47899627685547,-0.4000000059604645 C-66.16400146484375,-35.34400177001953 -25.8799991607666,-74.66799926757812 21.027000427246094,-62.16400146484375 C67.34500122070312,-49.81700134277344 82.2979965209961,6.058000087738037 73.12100219726562,40.486000061035156z"></path><g opacity="1" transform="matrix(1,0,0,1,0,0)"></g></g></g><g style="display: block;" transform="matrix(0.935591995716095,-0.3530829846858978,0.3530829846858978,0.935591995716095,176.22311401367188,124.2999267578125)" opacity="1"><g opacity="1" transform="matrix(1,0,0,1,60.7239990234375,41.94599914550781)"><path fill="rgb(252,252,157)" fill-opacity="1" d=" M56.257999420166016,19.770999908447266 C52.04199981689453,35.5880012512207 23.43600082397461,41.69599914550781 -7.633999824523926,33.41400146484375 C-38.70399856567383,25.131000518798828 -60.4739990234375,5.59499979019165 -56.25699996948242,-10.222000122070312 C-52.04100036621094,-26.038999557495117 -20.422000885009766,-41.69599914550781 10.60099983215332,-33.23899841308594 C42.5629997253418,-24.527000427246094 60.4739990234375,3.9539999961853027 56.257999420166016,19.770999908447266z"></path><g opacity="1" transform="matrix(1,0,0,1,0,0)"></g></g></g><g style="display: block;" transform="matrix(0.935591995716095,-0.3530829846858978,0.3530829846858978,0.935591995716095,100.89954376220703,112.98779296875)" opacity="1"><g opacity="1" transform="matrix(1,0,0,1,117.3290023803711,111.24600219726562)"><path stroke-linecap="round" stroke-linejoin="round" fill-opacity="0" stroke="rgb(206,117,0)" stroke-opacity="1" stroke-width="8" d=" M52.7869987487793,91.24600219726562 C67.77799987792969,83.98100280761719 80.36100006103516,68.08499908447266 84.05699920654297,54.21799850463867 C97.3290023803711,4.429999828338623 81.66400146484375,-59.95899963378906 23.350000381469727,-75.50399780273438 C-35.70600128173828,-91.24600219726562 -80.4020004272461,-43.74800109863281 -93.87300109863281,6.7870001792907715 C-97.3290023803711,19.75 -95.73600006103516,33.42399978637695 -90.09400177001953,46.28300094604492 C-90.09400177001953,46.28300094604492 -89.38200378417969,47.99300003051758 -88.00599670410156,50.65599822998047"></path></g></g><g style="display: block;" transform="matrix(0.9697826504707336,-0.24397048354148865,0.24397048354148865,0.9697826504707336,244.7608642578125,98.94233703613281)" opacity="1"><g opacity="1" transform="matrix(1,0,0,1,34.659000396728516,25.70400047302246)"><path stroke-linecap="round" stroke-linejoin="round" fill-opacity="0" stroke="rgb(255,255,255)" stroke-opacity="1" stroke-width="6" d=" M-1.9190000295639038,-1.2580000162124634 C-0.6759999990463257,-0.47099998593330383 0.6060000061988831,0.367000013589859 1.9190000295639038,1.2580000162124634"></path></g><g opacity="1" transform="matrix(1,0,0,1,20.290000915527344,17.599000930786133)"><path stroke-linecap="round" stroke-linejoin="round" fill-opacity="0" stroke="rgb(255,255,255)" stroke-opacity="1" stroke-width="6" d=" M-5.289999961853027,-2.5989999771118164 C-5.289999961853027,-2.5989999771118164 -1.0880000591278076,-0.9350000023841858 5.289999961853027,2.5989999771118164"></path></g></g><g style="display: block;" transform="matrix(0.9355919361114502,-0.35308295488357544,0.35308295488357544,0.9355919361114502,274.0462951660156,177.17584228515625)" opacity="1"><g opacity="1" transform="matrix(1,0,0,1,18.31999969482422,22.440000534057617)"><path fill="rgb(17,17,17)" fill-opacity="1" d=" M15.131999969482422,4.0329999923706055 C12.192999839782715,15.057999610900879 3.0360000133514404,22.190000534057617 -5.321000099182129,19.961999893188477 C-13.677000045776367,17.735000610351562 -18.06999969482422,6.991000175476074 -15.130999565124512,-4.0329999923706055 C-12.192000389099121,-15.057999610900879 -3.0360000133514404,-22.190000534057617 5.321000099182129,-19.961999893188477 C13.678000450134277,-17.735000610351562 18.070999145507812,-6.992000102996826 15.131999969482422,4.0329999923706055z"></path><g opacity="1" transform="matrix(1,0,0,1,0,0)"></g></g></g><g style="display: block;" transform="matrix(0.9355919361114502,-0.35308295488357544,0.35308295488357544,0.9355919361114502,285.00335693359375,191.5445556640625)" opacity="1"><g opacity="1" transform="matrix(1,0,0,1,12.335000038146973,11.569999694824219)"><path fill="rgb(71,72,72)" fill-opacity="1" d=" M10.29800033569336,0.777999997138977 C9.232000350952148,4.7769999504089355 2.744999885559082,11.319000244140625 -3.4860000610351562,9.657999992370605 C-9.717000007629395,7.997000217437744 -12.086000442504883,-0.9049999713897705 -11.020000457763672,-4.9029998779296875 C-9.3100004196167,-11.319000244140625 -6.49399995803833,-4.090000152587891 -0.2630000114440918,-2.428999900817871 C5.9679999351501465,-0.7680000066757202 12.086000442504883,-5.927999973297119 10.29800033569336,0.777999997138977z"></path><g opacity="1" transform="matrix(1,0,0,1,0,0)"></g></g></g><g style="display: block;" transform="matrix(0.9355919361114502,-0.35308295488357544,0.35308295488357544,0.9355919361114502,286.58697509765625,177.81298828125)" opacity="1"><g opacity="1" transform="matrix(1,0,0,1,9.27400016784668,6.623000144958496)"><path fill="rgb(245,245,245)" fill-opacity="1" d=" M8.479000091552734,3.1530001163482666 C7.620999813079834,6.373000144958496 4.584000110626221,2.805999994277954 -0.007000000216066837,1.5820000171661377 C-4.5980000495910645,0.3580000102519989 -9.02400016784668,2.013000011444092 -8.147000312805176,-1.2790000438690186 C-7.599999904632568,-3.3299999237060547 -2.802000045776367,-6.373000144958496 1.7890000343322754,-5.14900016784668 C6.380000114440918,-3.924999952316284 9.024999618530273,1.1030000448226929 8.479000091552734,3.1530001163482666z"></path><g opacity="1" transform="matrix(1,0,0,1,0,0)"></g></g></g><g style="display: block;" transform="matrix(0.9355919361114502,-0.35308295488357544,0.35308295488357544,0.9355919361114502,194.04335021972656,185.2303009033203)" opacity="1"><g opacity="1" transform="matrix(1,0,0,1,18.31999969482422,22.440000534057617)"><path fill="rgb(17,17,17)" fill-opacity="1" d=" M15.131999969482422,4.0329999923706055 C12.192999839782715,15.057999610900879 3.0350000858306885,22.190000534057617 -5.322000026702881,19.961999893188477 C-13.678000450134277,17.735000610351562 -18.070999145507812,6.991000175476074 -15.131999969482422,-4.0329999923706055 C-12.192999839782715,-15.057999610900879 -3.0350000858306885,-22.190000534057617 5.322000026702881,-19.961999893188477 C13.678999900817871,-17.735000610351562 18.070999145507812,-6.992000102996826 15.131999969482422,4.0329999923706055z"></path><g opacity="1" transform="matrix(1,0,0,1,0,0)"></g></g></g><g style="display: block;" transform="matrix(0.9355919361114502,-0.35308295488357544,0.35308295488357544,0.9355919361114502,205.001708984375,199.59959411621094)" opacity="1"><g opacity="1" transform="matrix(1,0,0,1,12.335000038146973,11.569999694824219)"><path fill="rgb(71,72,72)" fill-opacity="1" d=" M10.29800033569336,0.777999997138977 C9.232000350952148,4.7769999504089355 2.744999885559082,11.319000244140625 -3.4860000610351562,9.657999992370605 C-9.717000007629395,7.997000217437744 -12.086000442504883,-0.9049999713897705 -11.020000457763672,-4.9029998779296875 C-9.3100004196167,-11.319000244140625 -6.494999885559082,-4.090000152587891 -0.2639999985694885,-2.428999900817871 C5.9670000076293945,-0.7680000066757202 12.086000442504883,-5.927999973297119 10.29800033569336,0.777999997138977z"></path><g opacity="1" transform="matrix(1,0,0,1,0,0)"></g></g></g><g style="display: block;" transform="matrix(0.9355919361114502,-0.35308295488357544,0.35308295488357544,0.9355919361114502,206.5840301513672,185.867431640625)" opacity="1"><g opacity="1" transform="matrix(1,0,0,1,9.27400016784668,6.623000144958496)"><path fill="rgb(245,245,245)" fill-opacity="1" d=" M8.479000091552734,3.1530001163482666 C7.620999813079834,6.373000144958496 4.584000110626221,2.805999994277954 -0.007000000216066837,1.5820000171661377 C-4.5980000495910645,0.3580000102519989 -9.024999618530273,2.013000011444092 -8.14799976348877,-1.2790000438690186 C-7.60099983215332,-3.3299999237060547 -2.802000045776367,-6.373000144958496 1.7890000343322754,-5.14900016784668 C6.380000114440918,-3.924999952316284 9.024999618530273,1.1030000448226929 8.479000091552734,3.1530001163482666z"></path><g opacity="1" transform="matrix(1,0,0,1,0,0)"></g></g></g><g style="display: block;" transform="matrix(0.9355919361114502,-0.35308295488357544,0.35308295488357544,0.9355919361114502,238.80020141601562,219.4322967529297)" opacity="1"><g opacity="1" transform="matrix(1,0,0,1,22.316999435424805,28.42799949645996)"><path fill="rgb(251,202,29)" fill-opacity="1" d=" M-15.173999786376953,-28.17799949645996 C-15.173999786376953,-28.17799949645996 -21.461000442504883,-20.64299964904785 -21.785999298095703,-7.822000026702881 C-22.06800079345703,3.321000099182129 -19.63599967956543,22.777999877929688 -5.875999927520752,25.091999053955078 C12.467000007629395,28.17799949645996 22.066999435424805,2.634999990463257 13.491999626159668,-26.52400016784668 C13.491999626159668,-26.52400016784668 -15.173999786376953,-28.17799949645996 -15.173999786376953,-28.17799949645996z"></path><g opacity="1" transform="matrix(1,0,0,1,0,0)"></g></g></g><g style="display: block;" transform="matrix(0.9355919361114502,-0.35308295488357544,0.35308295488357544,0.9355919361114502,233.918212890625,208.72222900390625)" opacity="1"><g opacity="1" transform="matrix(1,0,0,1,19.915000915527344,25.96299934387207)"><path fill="rgb(148,57,3)" fill-opacity="1" d=" M17.91200065612793,5.604000091552734 C16.506000518798828,11.177000045776367 11.36400032043457,21.731000900268555 6.790999889373779,25.37299919128418 C2.5859999656677246,28.722000122070312 -3.0840001106262207,33.393001556396484 -6.375,32.465999603271484 C-9.461999893188477,31.59600067138672 -12.713000297546387,27.893999099731445 -15.833000183105469,18.159000396728516 C-17.74799919128418,12.182999610900879 -17.243000030517578,2.065999984741211 -15.758000373840332,-3.822000026702881 C-13.062999725341797,-14.51099967956543 -1.3990000486373901,-24.98200035095215 7.574999809265137,-22.452999114990234 C15.8100004196167,-20.131999969482422 19.9060001373291,-7.447000026702881 18.43400001525879,2.8889999389648438 C18.30500030517578,3.815999984741211 18.134000778198242,4.7220001220703125 17.91200065612793,5.604000091552734z"></path><g opacity="1" transform="matrix(1,0,0,1,0,0)"></g></g></g><g style="display: block;" transform="matrix(0.9994179010391235,0.0341145358979702,-0.0341145358979702,0.9994179010391235,187.3640594482422,251.99053955078125)" opacity="1"><g opacity="1" transform="matrix(1,0,0,1,0,0)"><path fill="rgb(155,11,11)" fill-opacity="1" d=" M90.63999938964844,-32.737998962402344 C78.76499938964844,-28.363000869750977 69.375,-31.125 66.25,-32 C66.625,-29.5 54.93600082397461,-31.64699935913086 58.68600082397461,-24.64699935913086 C62.43600082397461,-17.64699935913086 72.99800109863281,-8.123000144958496 75.98500061035156,-4.506999969482422 C78.72100067138672,-1.1950000524520874 79.98500061035156,-1.7239999771118164 81.23699951171875,-5.335000038146973 C81.93299865722656,-7.3429999351501465 92.63999938964844,-29.363000869750977 90.63999938964844,-32.737998962402344z"></path><path stroke-linecap="butt" stroke-linejoin="miter" fill-opacity="0" stroke-miterlimit="4" stroke="rgb(206,117,0)" stroke-opacity="1" stroke-width="3" d=" M90.63999938964844,-32.737998962402344 C78.76499938964844,-28.363000869750977 69.375,-31.125 66.25,-32 C66.625,-29.5 54.93600082397461,-31.64699935913086 58.68600082397461,-24.64699935913086 C62.43600082397461,-17.64699935913086 72.99800109863281,-8.123000144958496 75.98500061035156,-4.506999969482422 C78.72100067138672,-1.1950000524520874 79.98500061035156,-1.7239999771118164 81.23699951171875,-5.335000038146973 C81.93299865722656,-7.3429999351501465 92.63999938964844,-29.363000869750977 90.63999938964844,-32.737998962402344z"></path></g></g><g style="display: block;" transform="matrix(0.9355919361114502,-0.35308295488357544,0.35308295488357544,0.9355919361114502,236.89869689941406,207.33876037597656)" opacity="1"><g opacity="1" transform="matrix(1,0,0,1,18.371000289916992,20.9689998626709)"><path fill="rgb(247,141,21)" fill-opacity="1" d=" M13.576000213623047,11.312999725341797 C13.576000213623047,11.312999725341797 -0.15000000596046448,9.484000205993652 -0.15000000596046448,9.484000205993652 C-1.996993899345398,9.312909126281738 -3.160156726837158,8.959007263183594 -5.210000038146973,8.13599967956543 C-5.210000038146973,8.13599967956543 -17.065000534057617,3.1559998989105225 -17.065000534057617,3.1559998989105225 C-17.972000122070312,1.3769999742507935 -18.097000122070312,-0.6349999904632568 -17.371999740600586,-2.4140000343322754 C-13.467000007629395,-12.005999565124512 -3.5369999408721924,-20.611000061035156 5.061999797821045,-18.319000244140625 C13.767999649047852,-15.99899959564209 18.097000122070312,-3.313999891281128 16.54199981689453,7.0229997634887695 C16.187000274658203,8.769000053405762 15.128999710083008,10.298999786376953 13.576000213623047,11.312999725341797z"></path><g opacity="1" transform="matrix(1,0,0,1,0,0)"></g></g><g opacity="1" transform="matrix(1,0,0,1,20.615999221801758,21.638999938964844)"><path fill="rgb(241,182,35)" fill-opacity="1" d=" M9.640000343322754,-14.263999938964844 C9.640000343322754,-14.263999938964844 9.640000343322754,-14.263999938964844 9.640000343322754,-14.263999938964844 C3.7179999351501465,-4.952000141143799 0.7110000252723694,-1.687999963760376 -2.4260001182556152,8.701000213623047 C-2.4260001182556152,8.701000213623047 -2.438999891281128,8.71500015258789 -2.438999891281128,8.71500015258789 C-3.7770371437072754,8.613319396972656 -5.74416446685791,8.184663772583008 -7.480000019073486,7.353000164031982 C-6.526000022888184,-4.585999965667725 -6.429999828338623,-7.6529998779296875 -5.552000045776367,-18.30500030517578 C-2.7950000762939453,-19.458999633789062 0.06400000303983688,-19.825000762939453 2.7939999103546143,-19.097999572753906 C5.5229997634887695,-18.3700008392334 7.811999797821045,-16.631999969482422 9.640000343322754,-14.263999938964844z"></path><g opacity="1" transform="matrix(1,0,0,1,0,0)"></g></g></g><g style="display: block;" transform="matrix(1,0,0,1,70.18099975585938,289.7469787597656)" opacity="1"><g opacity="1" transform="matrix(1,0,0,1,181.75,105.62000274658203)"><path fill="rgb(235,233,224)" fill-opacity="1" d=" M181.5,-99.58000183105469 C181.5,28.389999389648438 99.12999725341797,105.37000274658203 -0.009999999776482582,105.37000274658203 C-98.54000091552734,105.37000274658203 -180.5,29.34000015258789 -181.5,-97.22000122070312 C-181.5,-97.22000122070312 -160.6999969482422,-77.12000274658203 -160.6999969482422,-77.12000274658203 C-160.6999969482422,-77.12000274658203 -148.36000061035156,-92.5 -148.36000061035156,-92.5 C-148.36000061035156,-92.5 -136.00999450683594,-66.2699966430664 -136.00999450683594,-66.2699966430664 C-136.00999450683594,-66.2699966430664 -121.11000061035156,-48.27000045776367 -121.11000061035156,-48.27000045776367 C-121.11000061035156,-48.27000045776367 -102.06999969482422,-72.75 -102.06999969482422,-72.75 C-102.06999969482422,-72.75 -94.70999908447266,-66.2699966430664 -94.70999908447266,-66.2699966430664 C-94.70999908447266,-66.2699966430664 -69.37000274658203,-87.3499984741211 -69.37000274658203,-87.3499984741211 C-69.37000274658203,-87.3499984741211 -52.70000076293945,-90.94999694824219 -52.70000076293945,-90.94999694824219 C-52.70000076293945,-90.94999694824219 -43.150001525878906,-72.75 -43.150001525878906,-72.75 C-43.150001525878906,-72.75 -43.150001525878906,-52.900001525878906 -43.150001525878906,-52.900001525878906 C-43.150001525878906,-52.900001525878906 -25.440000534057617,-63.70000076293945 -25.440000534057617,-63.70000076293945 C-25.440000534057617,-63.70000076293945 -13.100000381469727,-52.380001068115234 -13.100000381469727,-52.380001068115234 C-13.100000381469727,-52.380001068115234 -8.979999542236328,-37.97999954223633 -8.979999542236328,-37.97999954223633 C-8.979999542236328,-37.97999954223633 24.959999084472656,-79.69000244140625 24.959999084472656,-79.69000244140625 C24.959999084472656,-79.69000244140625 45.47999954223633,-67.5999984741211 45.47999954223633,-67.5999984741211 C45.47999954223633,-67.5999984741211 48.099998474121094,-88.41000366210938 61.470001220703125,-105.37000274658203 C61.470001220703125,-105.37000274658203 95.93000030517578,-93.52999877929688 95.93000030517578,-93.52999877929688 C95.93000030517578,-93.52999877929688 105.19000244140625,-68.83999633789062 105.19000244140625,-68.83999633789062 C105.19000244140625,-68.83999633789062 126.2699966430664,-51.869998931884766 126.2699966430664,-51.869998931884766 C126.2699966430664,-51.869998931884766 138.02999877929688,-82.7300033569336 138.02999877929688,-82.7300033569336 C138.02999877929688,-82.7300033569336 148.89999389648438,-74.91999816894531 148.89999389648438,-74.91999816894531 C148.89999389648438,-74.91999816894531 154.55999755859375,-55.97999954223633 154.55999755859375,-55.97999954223633 C154.55999755859375,-55.97999954223633 181.5,-99.58000183105469 181.5,-99.58000183105469z"></path><g opacity="1" transform="matrix(1,0,0,1,0,0)"></g></g></g><g style="display: block;" transform="matrix(1,0,0,1,70.18099975585938,295.5369873046875)" opacity="1"><g opacity="1" transform="matrix(1,0,0,1,181.75,102.7249984741211)"><path fill="rgb(251,245,230)" fill-opacity="1" d=" M181.5,-102.4749984741211 C181.5,25.4950008392334 99.12999725341797,102.4749984741211 -0.009999999776482582,102.4749984741211 C-98.54000091552734,102.4749984741211 -180.5,26.44499969482422 -181.5,-100.11499786376953 C-181.5,-100.11499786376953 -171.2899932861328,-88.31500244140625 -171.2899932861328,-88.31500244140625 C-161.11000061035156,23.2549991607666 -86.33000183105469,85.38500213623047 -0.009999999776482582,85.38500213623047 C84.55000305175781,85.38500213623047 158.1300048828125,25.915000915527344 170.5800018310547,-81.56500244140625 C170.5800018310547,-81.56500244140625 181.5,-102.4749984741211 181.5,-102.4749984741211z"></path><g opacity="1" transform="matrix(1,0,0,1,0,0)"></g></g></g><g style="display: block;" transform="matrix(1,0,0,1,72.63101196289062,295.7869873046875)" opacity="0.32"><g opacity="1" transform="matrix(1,0,0,1,180.39999389648438,102.4749984741211)"><path fill="rgb(183,180,158)" fill-opacity="1" d=" M180.39999389648438,-102.4749984741211 C180.39999389648438,25.4950008392334 98.02999877929688,102.4749984741211 -1.1100000143051147,102.4749984741211 C-99.9530029296875,102.4749984741211 -168.91099548339844,28.635000228881836 -180.39999389648438,-69.98500061035156 C-153.86000061035156,-8.21500015258789 -98.16999816894531,26.915000915527344 -34.81999969482422,26.915000915527344 C27.6200008392334,26.915000915527344 82.61000061035156,-7.204999923706055 109.58999633789062,-67.30500030517578 C109.58999633789062,-67.30500030517578 125.16999816894531,-54.76499938964844 125.16999816894531,-54.76499938964844 C125.16999816894531,-54.76499938964844 136.92999267578125,-85.625 136.92999267578125,-85.625 C136.92999267578125,-85.625 147.8000030517578,-77.81500244140625 147.8000030517578,-77.81500244140625 C147.8000030517578,-77.81500244140625 153.4600067138672,-58.875 153.4600067138672,-58.875 C153.4600067138672,-58.875 180.39999389648438,-102.4749984741211 180.39999389648438,-102.4749984741211z"></path><g opacity="1" transform="matrix(1,0,0,1,0,0)"></g></g></g><g style="display: none;"><g><path></path><g></g></g></g><g style="display: none;"><g><path></path></g></g><g style="display: none;"><g><path></path><g></g></g></g><g style="display: none;"><g><path stroke-linecap="round" stroke-linejoin="round" fill-opacity="0"></path></g></g><g style="display: block;" transform="matrix(1,0,0,1,70.18101501464844,294.7469787597656)" opacity="1"><g opacity="1" transform="matrix(1,0,0,1,181.75,43.88999938964844)"><path fill="rgb(251,245,230)" fill-opacity="1" d=" M67.12999725341797,-29.90999984741211 C53.400001525878906,-12.949999809265137 50.93000030517578,9.949999809265137 50.93000030517578,9.949999809265137 C50.93000030517578,9.949999809265137 27.639999389648438,-3.799999952316284 27.639999389648438,-3.799999952316284 C27.639999389648438,-3.799999952316284 -12.960000038146973,43.63999938964844 -12.960000038146973,43.63999938964844 C-12.960000038146973,43.63999938964844 -19.950000762939453,19.84000015258789 -19.950000762939453,19.84000015258789 C-19.950000762939453,19.84000015258789 -28.56999969482422,12.010000228881836 -28.56999969482422,12.010000228881836 C-28.56999969482422,12.010000228881836 -52.18000030517578,24.200000762939453 -52.18000030517578,24.200000762939453 C-52.18000030517578,24.200000762939453 -52.18000030517578,-6.449999809265137 -52.18000030517578,-6.449999809265137 C-52.18000030517578,-6.449999809265137 -59.13999938964844,-17.059999465942383 -59.13999938964844,-17.059999465942383 C-59.13999938964844,-17.059999465942383 -70.26000213623047,-12.460000038146973 -70.26000213623047,-12.460000038146973 C-70.26000213623047,-12.460000038146973 -69.37000274658203,-25.6200008392334 -69.37000274658203,-25.6200008392334 C-69.37000274658203,-25.6200008392334 -52.70000076293945,-29.219999313354492 -52.70000076293945,-29.219999313354492 C-52.70000076293945,-29.219999313354492 -43.150001525878906,-11.020000457763672 -43.150001525878906,-11.020000457763672 C-43.150001525878906,-11.020000457763672 -43.150001525878906,8.829999923706055 -43.150001525878906,8.829999923706055 C-43.150001525878906,8.829999923706055 -25.440000534057617,-1.9700000286102295 -25.440000534057617,-1.9700000286102295 C-25.440000534057617,-1.9700000286102295 -13.100000381469727,9.350000381469727 -13.100000381469727,9.350000381469727 C-13.100000381469727,9.350000381469727 -8.979999542236328,23.75 -8.979999542236328,23.75 C-8.979999542236328,23.75 24.959999084472656,-17.959999084472656 24.959999084472656,-17.959999084472656 C24.959999084472656,-17.959999084472656 45.47999954223633,-5.869999885559082 45.47999954223633,-5.869999885559082 C45.47999954223633,-5.869999885559082 48.099998474121094,-26.68000030517578 61.470001220703125,-43.63999938964844 C61.470001220703125,-43.63999938964844 67.12999725341797,-29.90999984741211 67.12999725341797,-29.90999984741211z"></path><g opacity="1" transform="matrix(1,0,0,1,0,0)"></g></g></g><g style="display: block;" transform="matrix(1,0,0,1,70.18101501464844,294.7469787597656)" opacity="1"><g opacity="1" transform="matrix(1,0,0,1,181.75,43.88999938964844)"><path fill="rgb(251,245,230)" fill-opacity="1" d=" M181.5,-37.849998474121094 C181.5,-30.229999542236328 181.2100067138672,-22.790000915527344 180.6300048828125,-15.539999961853027 C180.6300048828125,-15.539999961853027 158.77000427246094,18.90999984741211 158.77000427246094,18.90999984741211 C158.77000427246094,18.90999984741211 148.38999938964844,15.350000381469727 148.38999938964844,15.350000381469727 C148.38999938964844,15.350000381469727 141.7899932861328,-4.840000152587891 141.7899932861328,-4.840000152587891 C141.7899932861328,-4.840000152587891 129.7100067138672,26.020000457763672 129.7100067138672,26.020000457763672 C129.7100067138672,26.020000457763672 99.5199966430664,4.71999979019165 99.5199966430664,4.71999979019165 C99.5199966430664,4.71999979019165 90.01000213623047,-19.969999313354492 90.01000213623047,-19.969999313354492 C90.01000213623047,-19.969999313354492 67.12999725341797,-29.90999984741211 67.12999725341797,-29.90999984741211 C53.400001525878906,-12.949999809265137 50.93000030517578,9.949999809265137 50.93000030517578,9.949999809265137 C50.93000030517578,9.949999809265137 27.639999389648438,-3.799999952316284 27.639999389648438,-3.799999952316284 C27.639999389648438,-3.799999952316284 -12.960000038146973,43.63999938964844 -12.960000038146973,43.63999938964844 C-12.960000038146973,43.63999938964844 -19.950000762939453,19.84000015258789 -19.950000762939453,19.84000015258789 C-19.950000762939453,19.84000015258789 -28.56999969482422,12.010000228881836 -28.56999969482422,12.010000228881836 C-28.56999969482422,12.010000228881836 -52.18000030517578,24.200000762939453 -52.18000030517578,24.200000762939453 C-52.18000030517578,24.200000762939453 -52.18000030517578,-6.449999809265137 -52.18000030517578,-6.449999809265137 C-52.18000030517578,-6.449999809265137 -59.13999938964844,-17.059999465942383 -59.13999938964844,-17.059999465942383 C-59.13999938964844,-17.059999465942383 -70.26000213623047,-12.460000038146973 -70.26000213623047,-12.460000038146973 C-70.26000213623047,-12.460000038146973 -94.29000091552734,7.619999885559082 -94.29000091552734,7.619999885559082 C-94.29000091552734,7.619999885559082 -100.8499984741211,2.140000104904175 -100.8499984741211,2.140000104904175 C-100.8499984741211,2.140000104904175 -120.41000366210938,26.6200008392334 -120.41000366210938,26.6200008392334 C-120.41000366210938,26.6200008392334 -141.72000122070312,3.619999885559082 -141.72000122070312,3.619999885559082 C-141.72000122070312,3.619999885559082 -150.39999389648438,-14.609999656677246 -150.39999389648438,-14.609999656677246 C-150.39999389648438,-14.609999656677246 -159.8699951171875,-2.109999895095825 -159.8699951171875,-2.109999895095825 C-159.8699951171875,-2.109999895095825 -180.97999572753906,-20.260000228881836 -180.97999572753906,-20.260000228881836 C-181.27999877929688,-25.25 -181.4600067138672,-30.329999923706055 -181.5,-35.4900016784668 C-181.5,-35.4900016784668 -160.6999969482422,-15.390000343322754 -160.6999969482422,-15.390000343322754 C-160.6999969482422,-15.390000343322754 -148.36000061035156,-30.770000457763672 -148.36000061035156,-30.770000457763672 C-148.36000061035156,-30.770000457763672 -136.00999450683594,-4.539999961853027 -136.00999450683594,-4.539999961853027 C-136.00999450683594,-4.539999961853027 -121.11000061035156,13.460000038146973 -121.11000061035156,13.460000038146973 C-121.11000061035156,13.460000038146973 -102.06999969482422,-11.020000457763672 -102.06999969482422,-11.020000457763672 C-102.06999969482422,-11.020000457763672 -94.70999908447266,-4.539999961853027 -94.70999908447266,-4.539999961853027 C-94.70999908447266,-4.539999961853027 -69.37000274658203,-25.6200008392334 -69.37000274658203,-25.6200008392334 C-69.37000274658203,-25.6200008392334 -52.70000076293945,-29.219999313354492 -52.70000076293945,-29.219999313354492 C-52.70000076293945,-29.219999313354492 -43.150001525878906,-11.020000457763672 -43.150001525878906,-11.020000457763672 C-43.150001525878906,-11.020000457763672 -43.150001525878906,8.829999923706055 -43.150001525878906,8.829999923706055 C-43.150001525878906,8.829999923706055 -25.440000534057617,-1.9700000286102295 -25.440000534057617,-1.9700000286102295 C-25.440000534057617,-1.9700000286102295 -13.100000381469727,9.350000381469727 -13.100000381469727,9.350000381469727 C-13.100000381469727,9.350000381469727 -8.979999542236328,23.75 -8.979999542236328,23.75 C-8.979999542236328,23.75 24.959999084472656,-17.959999084472656 24.959999084472656,-17.959999084472656 C24.959999084472656,-17.959999084472656 45.47999954223633,-5.869999885559082 45.47999954223633,-5.869999885559082 C45.47999954223633,-5.869999885559082 48.099998474121094,-26.68000030517578 61.470001220703125,-43.63999938964844 C61.470001220703125,-43.63999938964844 95.93000030517578,-31.799999237060547 95.93000030517578,-31.799999237060547 C95.93000030517578,-31.799999237060547 105.19000244140625,-7.110000133514404 105.19000244140625,-7.110000133514404 C105.19000244140625,-7.110000133514404 126.2699966430664,9.859999656677246 126.2699966430664,9.859999656677246 C126.2699966430664,9.859999656677246 138.02999877929688,-21 138.02999877929688,-21 C138.02999877929688,-21 148.89999389648438,-13.1899995803833 148.89999389648438,-13.1899995803833 C148.89999389648438,-13.1899995803833 154.55999755859375,5.75 154.55999755859375,5.75 C154.55999755859375,5.75 181.5,-37.849998474121094 181.5,-37.849998474121094z"></path><g opacity="1" transform="matrix(1,0,0,1,0,0)"></g></g></g><g style="display: block;" transform="matrix(1,0,0,1,50.41300964355469,18.327972412109375)" opacity="1"><g opacity="1" transform="matrix(1,0,0,1,201.50999450683594,251.20399475097656)"><path stroke-linecap="round" stroke-linejoin="round" fill-opacity="0" stroke="rgb(183,180,158)" stroke-opacity="1" stroke-width="8" d=" M181.50999450683594,26.256999969482422 C181.50999450683594,154.2239990234375 99.14099884033203,233.20399475097656 0,233.20399475097656 C-99.13999938964844,233.20399475097656 -181.50999450683594,154.2239990234375 -181.50999450683594,26.256999969482422"></path></g></g><g style="display: block;" transform="matrix(1,0,0,1,50.41400146484375,20.327972412109375)" opacity="1"><g opacity="1" transform="matrix(1,0,0,1,201.50900268554688,179.52999877929688)"><path stroke-linecap="round" stroke-linejoin="round" fill-opacity="0" stroke="rgb(183,180,158)" stroke-opacity="1" stroke-width="8" d=" M-181.25900268554688,94.68099975585938 C-181.25900268554688,95.4739990234375 -160.44200134277344,117.13999938964844 -160.44200134277344,117.13999938964844 C-160.44200134277344,117.13999938964844 -148.1020050048828,101.76000213623047 -148.1020050048828,101.76000213623047 C-148.1020050048828,101.76000213623047 -135.7519989013672,127.98999786376953 -135.7519989013672,127.98999786376953 C-135.7519989013672,127.98999786376953 -120.85199737548828,145.99000549316406 -120.85199737548828,145.99000549316406 C-120.85199737548828,145.99000549316406 -101.81199645996094,121.51000213623047 -101.81199645996094,121.51000213623047 C-101.81199645996094,121.51000213623047 -94.4520034790039,127.98999786376953 -94.4520034790039,127.98999786376953 C-94.4520034790039,127.98999786376953 -69.11199951171875,106.91000366210938 -69.11199951171875,106.91000366210938 C-69.11199951171875,106.91000366210938 -52.44200134277344,103.30999755859375 -52.44200134277344,103.30999755859375 C-52.44200134277344,103.30999755859375 -42.891998291015625,121.51000213623047 -42.891998291015625,121.51000213623047 C-42.891998291015625,121.51000213623047 -42.891998291015625,141.36000061035156 -42.891998291015625,141.36000061035156 C-42.891998291015625,141.36000061035156 -25.18199920654297,130.55999755859375 -25.18199920654297,130.55999755859375 C-25.18199920654297,130.55999755859375 -12.842000007629395,141.8800048828125 -12.842000007629395,141.8800048828125 C-12.842000007629395,141.8800048828125 -8.722000122070312,156.27999877929688 -8.722000122070312,156.27999877929688 C-8.722000122070312,156.27999877929688 25.216999053955078,114.56999969482422 25.216999053955078,114.56999969482422 C25.216999053955078,114.56999969482422 45.73699951171875,126.66000366210938 45.73699951171875,126.66000366210938 C45.73699951171875,126.66000366210938 48.356998443603516,105.8499984741211 61.72800064086914,88.88999938964844 C61.72800064086914,88.88999938964844 96.18800354003906,100.7300033569336 96.18800354003906,100.7300033569336 C96.18800354003906,100.7300033569336 105.447998046875,125.41999816894531 105.447998046875,125.41999816894531 C105.447998046875,125.41999816894531 126.5270004272461,142.38999938964844 126.5270004272461,142.38999938964844 C126.5270004272461,142.38999938964844 138.28799438476562,111.52999877929688 138.28799438476562,111.52999877929688 C138.28799438476562,111.52999877929688 149.1580047607422,119.33999633789062 149.1580047607422,119.33999633789062 C149.1580047607422,119.33999633789062 154.8179931640625,138.27999877929688 154.8179931640625,138.27999877929688 C154.8179931640625,138.27999877929688 181.75900268554688,94.6780014038086 181.75900268554688,94.6780014038086"></path></g></g><g style="display: none;"><g><path></path><g></g></g></g><g style="display: none;"><path></path><g></g></g><g style="display: none;"><path></path><g></g></g><g style="display: none;"><path></path><g></g></g><g style="display: none;"><path></path><g></g></g><g style="display: none;"><path></path><g></g></g><g style="display: none;"><path></path><g></g></g><g style="display: none;"><path></path><g></g></g><g style="display: none;"><path></path><g></g></g><g style="display: none;"><path></path><g></g></g><g style="display: none;"><path></path><g></g></g><g style="display: none;"><path></path><g></g></g><g style="display: none;"><path></path><g></g></g><g style="display: none;"><path></path><g></g></g><g style="display: none;"><path></path><g></g></g><g style="display: none;"><path></path><g></g></g><g style="display: none;"><path></path><g></g></g><g style="display: none;"><path></path><g></g></g><g style="display: none;"><path></path><g></g></g><g style="display: none;"><path></path><g></g></g><g style="display: none;"><path></path><g></g></g><g style="display: none;"><path></path><g></g></g><g style="display: none;"><path></path><g></g></g><g style="display: none;"><path></path><g></g></g><g style="display: block;" transform="matrix(0.7041017413139343,-0.08311164379119873,0.08311164379119873,0.7041017413139343,230.265380859375,284.309814453125)" opacity="1"><g opacity="1" transform="matrix(1,0,0,1,0,0)"><path fill="rgb(252,245,230)" fill-opacity="1" d=" M13.25,104.25 C13.25,104.25 -11.75,144.5 -11.75,144.5 C-11.75,144.5 -31.5,149 -31.5,149 C-31.5,149 -52,163.25 -52,163.25 C-52,163.25 -51.84299850463867,172.0290069580078 -51.84299850463867,172.0290069580078 C-51.84299850463867,172.0290069580078 -44.5,174.25 -44.5,174.25 C-44.5,174.25 -26.5,158.75 -26.5,158.75 C-26.5,158.75 -17.75,155.75 -17.75,155.75 C-17.75,155.75 -15.75,174.25 -15.75,174.25 C-15.75,174.25 -9,184.75 -9,184.75 C-9,184.75 -1.5,188.75 -1.5,188.75 C-1.5,188.75 0,176.75 0,176.75 C0,176.75 -3.9519999027252197,165.1280059814453 -3.9519999027252197,165.1280059814453 C-3.9519999027252197,165.1280059814453 -3.953000068664551,148.3780059814453 -3.953000068664551,148.3780059814453 C-3.953000068664551,148.3780059814453 22,107.75 22,107.75 C22,107.75 13.25,104.25 13.25,104.25z"></path></g></g><g style="display: none;"><g><path></path><g></g></g></g><g style="display: none;"><g><path></path></g></g><g style="display: none;"><g><path></path><g></g></g></g><g style="display: none;"><g><path stroke-linecap="round" stroke-linejoin="round" fill-opacity="0"></path></g></g><g style="display: block;" transform="matrix(0.800000011920929,0,0,0.800000011920929,221.73220825195312,353.68695068359375)" opacity="1"><g opacity="1" transform="matrix(1,0,0,1,18.229999542236328,46.77000045776367)"><path stroke-linecap="round" stroke-linejoin="round" fill-opacity="0" stroke="rgb(183,180,158)" stroke-opacity="1" stroke-width="7.799561266565533" d=" M6.418000221252441,-47.14500045776367 C6.418000221252441,-47.14500045776367 -8.230999946594238,-7.616000175476074 -8.230999946594238,-7.616000175476074 C-8.230999946594238,-7.616000175476074 -0.7580000162124634,16.555999755859375 -0.7580000162124634,16.555999755859375 C-0.7580000162124634,16.555999755859375 5.140999794006348,24.270000457763672 5.140999794006348,24.270000457763672"></path></g></g><g style="display: block;" transform="matrix(0.800000011920929,0,0,0.800000011920929,221.73220825195312,353.68695068359375)" opacity="1"><g opacity="1" transform="matrix(1,0,0,1,18.229999542236328,46.77000045776367)"><path stroke-linecap="round" stroke-linejoin="round" fill-opacity="0" stroke="rgb(183,180,158)" stroke-opacity="1" stroke-width="7.799561266565533" d=" M13.697999954223633,-49.097999572753906 C13.697999954223633,-49.097999572753906 -4.388000011444092,-8.319000244140625 -4.388000011444092,-8.319000244140625 C-4.388000011444092,-8.319000244140625 -0.7570000290870667,16.555999755859375 -0.7570000290870667,16.555999755859375 C-0.7570000290870667,16.555999755859375 4.372000217437744,24.410999298095703 4.372000217437744,24.410999298095703"></path></g></g><g style="display: block;" transform="matrix(0.64000004529953,0,0,0.64000004529953,202.41236877441406,378.61016845703125)" opacity="1"><g opacity="1" transform="matrix(1,0,0,1,26.343000411987305,22.486000061035156)"><path stroke-linecap="round" stroke-linejoin="round" fill-opacity="0" stroke="rgb(183,180,158)" stroke-opacity="1" stroke-width="8" d=" M16.343000411987305,-12.486000061035156 C16.343000411987305,-12.486000061035156 -1.3650000095367432,-5.284999847412109 -1.3650000095367432,-5.284999847412109 C-1.3650000095367432,-5.284999847412109 -16.343000411987305,12.486000061035156 -16.343000411987305,12.486000061035156"></path></g></g><g style="display: block;" transform="matrix(0.64000004529953,0,0,0.64000004529953,202.41236877441406,378.61016845703125)" opacity="1"><g opacity="1" transform="matrix(1,0,0,1,26.343000411987305,22.486000061035156)"><path stroke-linecap="round" stroke-linejoin="round" fill-opacity="0" stroke="rgb(183,180,158)" stroke-opacity="1" stroke-width="8" d=" M15.640000343322754,-16.327999114990234 C15.640000343322754,-16.327999114990234 -2.068000078201294,-9.128000259399414 -2.068000078201294,-9.128000259399414 C-2.068000078201294,-9.128000259399414 -16.343000411987305,12.486000061035156 -16.343000411987305,12.486000061035156"></path></g></g><g style="display: none;"><g><path></path><g></g></g></g><g style="display: none;"><g><path></path><g></g></g></g><g style="display: none;"><g><path></path><g></g></g></g><g style="display: none;"><g><path></path><g></g></g></g><g style="display: none;"><g><path></path><g></g></g></g><g style="display: none;"><g><path></path><g></g></g></g><g style="display: none;"><g><path></path><g></g></g></g><g style="display: none;"><g><path></path><g></g></g></g><g style="display: none;"><g><path></path><g></g></g></g><g style="display: none;"><g><path></path><g></g></g></g><g style="display: none;"><g><path></path><g></g></g></g><g style="display: none;"><g><path></path><g></g></g></g><g style="display: none;"><g><path></path><g></g></g></g><g style="display: none;"><g><path></path><g></g></g></g><g style="display: none;"><g><path></path><g></g></g></g><g style="display: none;"><g><path></path><g></g></g></g><g style="display: none;"><g><path></path><g></g></g></g><g style="display: none;"><g><path></path><g></g></g></g><g style="display: none;"><g><path></path><g></g></g></g><g style="display: none;"><g><path></path><g></g></g></g><g style="display: none;"><g><path></path><g></g></g></g><g style="display: none;"><g><path></path><g></g></g></g><g style="display: none;"><g><path></path><g></g></g></g><g style="display: none;"><g><path></path><g></g></g></g><g style="display: none;"><g><path></path><g></g></g></g><g style="display: none;"><g><path></path><g></g></g></g><g style="display: none;"><g><path></path><g></g></g></g><g style="display: none;"><g><path></path><g></g></g></g><g style="display: none;"><g><path></path><g></g></g></g><g style="display: none;"><g><path></path><g></g></g></g><g style="display: none;"><g><path></path><g></g></g></g><g style="display: none;"><g><path></path><g></g></g></g><g style="display: none;"><g><path></path><g></g></g></g><g style="display: none;"><g><path></path><g></g></g></g><g style="display: none;"><g><path></path><g></g></g></g><g style="display: none;"><g><path></path><g></g></g></g><g style="display: none;"><g><path></path><g></g></g></g><g style="display: none;"><g><path></path><g></g></g></g><g style="display: none;"><g><path></path><g></g></g></g><g style="display: none;"><g><path></path><g></g></g></g><g style="display: none;"><g><path></path><g></g></g></g><g style="display: none;"><g><path></path><g></g></g></g><g style="display: none;"><g><path></path><g></g></g></g><g style="display: none;"><g><path></path></g></g><g style="display: none;"><g><path></path></g></g><g style="display: none;"><g><path></path><g></g></g></g><g style="display: none;"><g><path></path><g></g></g></g><g style="display: none;"><g><path></path><g></g></g></g><g style="display: none;"><g><path></path><g></g></g></g><g style="display: none;"><g><path></path><g></g></g></g><g style="display: none;"><g><path></path><g></g></g></g><g style="display: none;"><g><path></path><g></g></g></g><g style="display: none;"><g><path></path><g></g></g><g><path></path><g></g></g></g><g style="display: none;"><g><path></path><g></g></g><g><path></path><g></g></g></g><g style="display: none;"><g><path></path><g></g></g><g><path></path><g></g></g></g><g style="display: none;"><g><path stroke-linecap="round" stroke-linejoin="round" fill-opacity="0"></path></g></g><g style="display: none;"><g><path stroke-linecap="round" stroke-linejoin="round" fill-opacity="0"></path></g></g><g style="display: none;"><g><path stroke-linecap="round" stroke-linejoin="round" fill-opacity="0"></path></g></g><g style="display: none;"><g><path stroke-linecap="round" stroke-linejoin="round" fill-opacity="0"></path></g></g><g style="display: none;"><g><path stroke-linecap="round" stroke-linejoin="round" fill-opacity="0"></path></g></g><g style="display: none;"><g><path stroke-linecap="round" stroke-linejoin="round" fill-opacity="0"></path></g></g><g style="display: none;"><g><path stroke-linecap="round" stroke-linejoin="round" fill-opacity="0"></path></g></g><g style="display: none;"><g><path stroke-linecap="round" stroke-linejoin="round" fill-opacity="0"></path></g></g><g style="display: none;"><g><path stroke-linecap="round" stroke-linejoin="round" fill-opacity="0"></path></g></g><g style="display: none;"><g><path stroke-linecap="round" stroke-linejoin="round" fill-opacity="0"></path></g></g><g style="display: none;"><g><path stroke-linecap="round" stroke-linejoin="round" fill-opacity="0"></path></g></g><g style="display: none;"><g><path stroke-linecap="round" stroke-linejoin="round" fill-opacity="0"></path></g></g><g style="display: none;"><g><path stroke-linecap="round" stroke-linejoin="round" fill-opacity="0"></path></g></g><g style="display: none;"><g><path stroke-linecap="round" stroke-linejoin="round" fill-opacity="0"></path></g></g><g style="display: none;"><g><path stroke-linecap="round" stroke-linejoin="round" fill-opacity="0"></path></g></g><g style="display: none;"><g><path stroke-linecap="round" stroke-linejoin="round" fill-opacity="0"></path></g></g><g style="display: none;"><g><path stroke-linecap="round" stroke-linejoin="round" fill-opacity="0"></path></g></g><g style="display: none;"><g><path stroke-linecap="round" stroke-linejoin="round" fill-opacity="0"></path></g></g><g style="display: none;"><g><path stroke-linecap="round" stroke-linejoin="round" fill-opacity="0"></path></g></g><g style="display: none;"><g><path stroke-linecap="round" stroke-linejoin="round" fill-opacity="0"></path></g></g><g style="display: none;"><g><path stroke-linecap="round" stroke-linejoin="round" fill-opacity="0"></path></g></g><g style="display: none;"><g><path stroke-linecap="round" stroke-linejoin="round" fill-opacity="0"></path></g></g><g style="display: none;"><g><path stroke-linecap="round" stroke-linejoin="round" fill-opacity="0"></path></g></g><g style="display: none;"><g><path stroke-linecap="round" stroke-linejoin="round" fill-opacity="0"></path></g></g><g style="display: none;"><g><path stroke-linecap="round" stroke-linejoin="round" fill-opacity="0"></path></g></g><g style="display: none;"><g><path stroke-linecap="round" stroke-linejoin="round" fill-opacity="0"></path></g></g><g style="display: none;"><g><path stroke-linecap="round" stroke-linejoin="round" fill-opacity="0"></path></g></g><g style="display: none;"><g><path stroke-linecap="round" stroke-linejoin="round" fill-opacity="0"></path></g></g></g></g></svg>