<svg xmlns="http://www.w3.org/2000/svg" viewBox="0 0 512 512" width="512" height="512" style="width: 100%; height: 100%; transform: translate3d(0,0,0);" preserveAspectRatio="xMidYMid meet"><defs><clipPath id="__lottie_element_25710"><rect width="512" height="512" x="0" y="0"></rect></clipPath></defs><g clip-path="url(#__lottie_element_25710)"><g style="display: block;" transform="matrix(1,0,0,1,47.02299499511719,38.907012939453125)" opacity="1"><g opacity="0.1" transform="matrix(1,0,0,1,208.9770050048828,226.56399536132812)"><path fill="rgb(0,0,0)" fill-opacity="1" d=" M193.02099609375,-0.0010000000474974513 C193.02099609375,106.60299682617188 106.60299682617188,193.02200317382812 0.0010000000474974513,193.02200317382812 C-106.60299682617188,193.02200317382812 -193.02099609375,106.60299682617188 -193.02099609375,-0.0010000000474974513 C-193.02099609375,-106.60399627685547 -106.60299682617188,-193.02099609375 0.0010000000474974513,-193.02099609375 C106.60299682617188,-193.02099609375 193.02099609375,-106.60399627685547 193.02099609375,-0.0010000000474974513z"></path></g><g opacity="1" transform="matrix(1,0,0,1,208.87600708007812,208.875)"><path fill="rgb(255,176,57)" fill-opacity="1" d=" M188.87600708007812,0 C188.87600708007812,104.31300354003906 104.31199645996094,188.875 -0.0010000000474974513,188.875 C-104.31400299072266,188.875 -188.87600708007812,104.31300354003906 -188.87600708007812,0 C-188.87600708007812,-104.31300354003906 -104.31400299072266,-188.875 -0.0010000000474974513,-188.875 C104.31199645996094,-188.875 188.87600708007812,-104.31300354003906 188.87600708007812,0z"></path></g><g opacity="1" transform="matrix(1,0,0,1,208.87600708007812,208.875)"><path stroke-linecap="butt" stroke-linejoin="miter" fill-opacity="0" stroke-miterlimit="10" stroke="rgb(247,125,65)" stroke-opacity="1" stroke-width="8" d=" M188.87600708007812,0 C188.87600708007812,104.31300354003906 104.31199645996094,188.875 -0.0010000000474974513,188.875 C-104.31400299072266,188.875 -188.87600708007812,104.31300354003906 -188.87600708007812,0 C-188.87600708007812,-104.31300354003906 -104.31400299072266,-188.875 -0.0010000000474974513,-188.875 C104.31199645996094,-188.875 188.87600708007812,-104.31300354003906 188.87600708007812,0z"></path></g><g opacity="1" transform="matrix(1,0,0,1,208.92999267578125,207.0070037841797)"><path fill="rgb(255,209,64)" fill-opacity="1" d=" M168.3520050048828,2.5810000896453857 C166.89500427246094,97.60900115966797 90.34100341796875,173.49000549316406 -2.63700008392334,172.06500244140625 C-95.61499786376953,170.63900756835938 -169.80799865722656,92.4489974975586 -168.3509979248047,-2.5799999237060547 C-166.89500427246094,-97.60800170898438 -90.33999633789062,-173.48899841308594 2.638000011444092,-172.06399536132812 C95.61599731445312,-170.63900756835938 169.80799865722656,-92.447998046875 168.3520050048828,2.5810000896453857z"></path></g><g opacity="1" transform="matrix(1,0,0,1,208.875,119.05599975585938)"><path fill="rgb(255,223,121)" fill-opacity="1" d=" M149.26699829101562,47.38999938964844 C149.26699829101562,120.03299713134766 82.43800354003906,62.569000244140625 -0.0010000000474974513,62.569000244140625 C-82.43900299072266,62.569000244140625 -149.26800537109375,120.03299713134766 -149.26800537109375,47.38999938964844 C-149.26800537109375,-25.253999710083008 -82.43900299072266,-84.14199829101562 -0.0010000000474974513,-84.14199829101562 C82.43800354003906,-84.14199829101562 149.26699829101562,-25.253999710083008 149.26699829101562,47.38999938964844z"></path></g><g opacity="1" transform="matrix(1,0,0,1,247.63699340820312,39.6879997253418)"><path stroke-linecap="round" stroke-linejoin="round" fill-opacity="0" stroke="rgb(255,255,255)" stroke-opacity="1" stroke-width="6" d=" M-2.388000011444092,-0.5550000071525574 C-0.8510000109672546,-0.2199999988079071 0.7440000176429749,0.15000000596046448 2.388000011444092,0.5550000071525574"></path></g><g opacity="1" transform="matrix(1,0,0,1,230.18899536132812,36.68299865722656)"><path stroke-linecap="round" stroke-linejoin="round" fill-opacity="0" stroke="rgb(255,255,255)" stroke-opacity="1" stroke-width="6" d=" M-6.295000076293945,-0.7689999938011169 C-6.295000076293945,-0.7689999938011169 -1.4279999732971191,-0.5090000033378601 6.295000076293945,0.7689999938011169"></path></g></g><g style="display: block;" transform="matrix(1,0,0,1,214.49200439453125,282.10601806640625)" opacity="1"><g opacity="1" transform="matrix(1,0,0,1,41.63999938964844,52.53499984741211)"><path fill="rgb(255,176,57)" fill-opacity="1" d=" M0,52.2859992980957 C0,52.2859992980957 0,52.2859992980957 0,52.2859992980957 C-22.764999389648438,52.2859992980957 -41.38999938964844,33.6609992980957 -41.38999938964844,10.895999908447266 C-41.38999938964844,10.895999908447266 -41.38999938964844,-10.895999908447266 -41.38999938964844,-10.895999908447266 C-41.38999938964844,-33.65999984741211 -22.764999389648438,-52.2859992980957 0,-52.2859992980957 C22.764999389648438,-52.2859992980957 41.38999938964844,-33.65999984741211 41.38999938964844,-10.895999908447266 C41.38999938964844,-10.895999908447266 41.38999938964844,10.895999908447266 41.38999938964844,10.895999908447266 C41.38999938964844,33.6609992980957 22.764999389648438,52.2859992980957 0,52.2859992980957z"></path></g><g opacity="1" transform="matrix(1,0,0,1,41.63999938964844,65.62100219726562)"><path fill="rgb(255,225,166)" fill-opacity="1" d=" M0,52.2859992980957 C0,52.2859992980957 0,52.2859992980957 0,52.2859992980957 C-22.764999389648438,52.2859992980957 -41.38999938964844,33.65999984741211 -41.38999938964844,10.895999908447266 C-41.38999938964844,10.895999908447266 -41.38999938964844,-10.895999908447266 -41.38999938964844,-10.895999908447266 C-41.38999938964844,-33.65999984741211 -22.764999389648438,-52.28499984741211 0,-52.28499984741211 C22.764999389648438,-52.28499984741211 41.38999938964844,-33.65999984741211 41.38999938964844,-10.895999908447266 C41.38999938964844,-10.895999908447266 41.38999938964844,10.895999908447266 41.38999938964844,10.895999908447266 C41.38999938964844,33.65999984741211 22.764999389648438,52.2859992980957 0,52.2859992980957z"></path></g><g opacity="1" transform="matrix(1,0,0,1,41.63999938964844,58.53499984741211)"><path fill="rgb(133,62,19)" fill-opacity="1" d=" M0,52.2859992980957 C0,52.2859992980957 0,52.2859992980957 0,52.2859992980957 C-22.764999389648438,52.2859992980957 -41.38999938964844,33.6609992980957 -41.38999938964844,10.895999908447266 C-41.38999938964844,10.895999908447266 -41.38999938964844,-10.895999908447266 -41.38999938964844,-10.895999908447266 C-41.38999938964844,-33.65999984741211 -22.764999389648438,-52.2859992980957 0,-52.2859992980957 C22.764999389648438,-52.2859992980957 41.38999938964844,-33.65999984741211 41.38999938964844,-10.895999908447266 C41.38999938964844,-10.895999908447266 41.38999938964844,10.895999908447266 41.38999938964844,10.895999908447266 C41.38999938964844,33.6609992980957 22.764999389648438,52.2859992980957 0,52.2859992980957z"></path></g><g opacity="1" transform="matrix(1,0,0,1,41.643001556396484,47.76599884033203)"><path fill="rgb(98,36,11)" fill-opacity="1" d=" M41.38999938964844,-0.125 C41.38999938964844,-0.125 41.38999938964844,21.666000366210938 41.38999938964844,21.666000366210938 C41.38999938964844,28.84600067138672 39.540000915527344,35.61600112915039 36.28099822998047,41.51599884033203 C36.439998626708984,40.145999908447266 36.52000045776367,38.74599838256836 36.52000045776367,37.33599853515625 C36.52000045776367,37.33599853515625 36.52000045776367,20.016000747680664 36.52000045776367,20.016000747680664 C36.52000045776367,9.965999603271484 32.4109992980957,0.8450000286102295 25.790000915527344,-5.775000095367432 C19.170000076293945,-12.395999908447266 10.050000190734863,-16.5049991607666 0,-16.5049991607666 C-20.09000015258789,-16.5049991607666 -36.529998779296875,-0.07400000095367432 -36.529998779296875,20.016000747680664 C-36.529998779296875,20.016000747680664 -36.529998779296875,37.33599853515625 -36.529998779296875,37.33599853515625 C-36.529998779296875,38.74599838256836 -36.45000076293945,40.13600158691406 -36.290000915527344,41.49599838256836 C-39.540000915527344,35.59600067138672 -41.38999938964844,28.836000442504883 -41.38999938964844,21.666000366210938 C-41.38999938964844,21.666000366210938 -41.38999938964844,-0.125 -41.38999938964844,-0.125 C-41.38999938964844,-22.895999908447266 -22.770000457763672,-41.51599884033203 0,-41.51599884033203 C11.380000114440918,-41.51599884033203 21.729999542236328,-36.8650016784668 29.229999542236328,-29.354999542236328 C36.72999954223633,-21.854999542236328 41.38999938964844,-11.505000114440918 41.38999938964844,-0.125z"></path></g><g opacity="0" transform="matrix(1,0,0,1,-214.74998474121094,-275.5)"><g opacity="1" transform="matrix(1,0,0,1,256.1319885253906,325.92401123046875)"><path fill="rgb(239,52,123)" fill-opacity="1" d=" M-22.445999145507812,5.385000228881836 C-28.60099983215332,6.15500020980835 -32.43299865722656,7.236999988555908 -32.43299865722656,8.4350004196167 C-32.43299865722656,8.437999725341797 -32.43299865722656,8.439000129699707 -32.43299865722656,8.442000389099121 C-32.426998138427734,8.881999969482422 -29.53499984741211,9.26099967956543 -25.617000579833984,9.348999977111816 C-18.624000549316406,9.505000114440918 -10.071999549865723,9.609000205993652 0.164000004529953,9.609000205993652 C10.399999618530273,9.609000205993652 18.95199966430664,9.505000114440918 25.94499969482422,9.348999977111816 C29.863000869750977,9.26099967956543 32.755001068115234,8.881999969482422 32.76100158691406,8.442000389099121 C32.76100158691406,8.439000129699707 32.76100158691406,8.437999725341797 32.76100158691406,8.4350004196167 C32.76100158691406,7.236999988555908 28.929000854492188,6.15500020980835 22.77400016784668,5.385000228881836 C15.897000312805176,5.339000225067139 8.371000289916992,5.313000202178955 0.16300000250339508,5.313000202178955 C-8.043999671936035,5.313000202178955 -15.569999694824219,5.339000225067139 -22.445999145507812,5.385000228881836z"></path></g><g opacity="1" transform="matrix(1,0,0,1,256.1319885253906,323.5480041503906)"><path fill="rgb(252,81,155)" fill-opacity="1" d=" M-19.143999099731445,7.802999973297119 C-24.399999618530273,8.461000442504883 -27.672000885009766,9.383999824523926 -27.672000885009766,10.406999588012695 C-27.672000885009766,10.409000396728516 -27.672000885009766,10.411999702453613 -27.672000885009766,10.413999557495117 C-27.66699981689453,10.789999961853027 -25.197999954223633,11.11299991607666 -21.851999282836914,11.187999725341797 C-15.880000114440918,11.321999549865723 -8.57699966430664,11.40999984741211 0.164000004529953,11.40999984741211 C8.904999732971191,11.40999984741211 16.208999633789062,11.321999549865723 22.18000030517578,11.187999725341797 C25.525999069213867,11.11299991607666 27.9950008392334,10.789999961853027 28,10.413999557495117 C28,10.411999702453613 28,10.409000396728516 28,10.406999588012695 C28,9.383999824523926 24.72800064086914,8.461000442504883 19.472000122070312,7.802999973297119 C13.598999977111816,7.763999938964844 7.171999931335449,7.741000175476074 0.16300000250339508,7.741000175476074 C-6.84499979019165,7.741000175476074 -13.272000312805176,7.763999938964844 -19.143999099731445,7.802999973297119z"></path></g><g opacity="0.5" transform="matrix(1,0,0,1,256.1319885253906,318.01300048828125)"><path fill="rgb(212,41,97)" fill-opacity="1" d=" M-31.763999938964844,15.491000175476074 C-23.687000274658203,15.654999732971191 -13.043999671936035,15.779000282287598 0.164000004529953,15.779000282287598 C13.371999740600586,15.779000282287598 24.014999389648438,15.654000282287598 32.09199905395508,15.491000175476074 C30.986000061035156,14.789999961853027 28.54599952697754,14.154000282287598 25.135000228881836,13.62600040435791 C22.31999969482422,13.480999946594238 19.427000045776367,13.357999801635742 16.490999221801758,13.26099967956543 C11.37600040435791,13.237000465393066 5.941999912261963,13.223999977111816 0.16300000250339508,13.223999977111816 C-5.614999771118164,13.223999977111816 -11.048999786376953,13.237000465393066 -16.163000106811523,13.26099967956543 C-19.099000930786133,13.357999801635742 -21.992000579833984,13.480999946594238 -24.808000564575195,13.62600040435791 C-28.2189998626709,14.154000282287598 -30.658000946044922,14.789999961853027 -31.763999938964844,15.491000175476074z"></path></g><g opacity="0.5" transform="matrix(1,0,0,1,256.1340026855469,330.3689880371094)"><path fill="rgb(188,46,104)" fill-opacity="1" d=" M2.1070001125335693,5.1620001792907715 C2.3489999771118164,3.7100000381469727 1.5069999694824219,1.847000002861023 0.164000004529953,1.847000002861023 C-1.1790000200271606,1.847000002861023 -2.0209999084472656,3.7100000381469727 -1.7790000438690186,5.1620001792907715 C-1.1330000162124634,5.163000106811523 -0.49799999594688416,5.164000034332275 0.16200000047683716,5.164000034332275 C0.8240000009536743,5.164000034332275 1.4589999914169312,5.163000106811523 2.1070001125335693,5.1620001792907715z"></path></g></g><g opacity="0" transform="matrix(1,0,0,1,-214.49998474121094,-267)"><g opacity="1" transform="matrix(1,0,0,1,256.1289978027344,334.0140075683594)"><path fill="rgb(244,244,244)" fill-opacity="1" d=" M23.493000030517578,32.555999755859375 C23.493000030517578,32.53900146484375 23.48900032043457,32.52199935913086 23.48200035095215,32.50299835205078 C23.357999801635742,32.191001892089844 22.235000610351562,31.98699951171875 21.134000778198242,32.058998107910156 C16.28700065612793,32.37699890136719 9.241000175476074,38.275001525878906 0.006000000052154064,38.275001525878906 C-9.232000350952148,38.275001525878906 -16.28700065612793,32.37699890136719 -21.134000778198242,32.05799865722656 C-22.23200035095215,31.986000061035156 -23.36199951171875,32.1879997253418 -23.479999542236328,32.499000549316406 C-23.486000061035156,32.51499938964844 -23.489999771118164,32.529998779296875 -23.489999771118164,32.54499816894531 C-23.197999954223633,33.03300094604492 -15.302000045776367,40.268001556396484 0.006000000052154064,40.268001556396484 C15.314000129699707,40.268001556396484 23.20400047302246,33.034000396728516 23.493000030517578,32.555999755859375z"></path></g><g opacity="1" transform="matrix(1,0,0,1,215.71600341796875,330.364990234375)"><path fill="rgb(201,214,215)" fill-opacity="1" d=" M16.933000564575195,36.14799880981445 C16.927000045776367,36.16400146484375 16.923999786376953,36.18000030517578 16.923999786376953,36.19499969482422 C17.062999725341797,36.426998138427734 17.40399932861328,38.7239990234375 20.952999114990234,39.16899871826172 C19.007999420166016,38.92399978637695 19.256999969482422,36.56999969482422 19.900999069213867,36.26900100708008 C20.58099937438965,35.95100021362305 23.50200080871582,36.7599983215332 25.33799934387207,37.56800079345703 C25.33799934387207,37.56800079345703 25.18000030517578,37.56800079345703 25.18000030517578,37.56800079345703 C23.27400016784668,36.698001861572266 21.312999725341797,35.840999603271484 19.280000686645508,35.707000732421875 C18.18199920654297,35.6349983215332 17.051000595092773,35.83700180053711 16.933000564575195,36.14799880981445z"></path></g><g opacity="1" transform="matrix(1,0,0,1,296.54901123046875,330.364990234375)"><path fill="rgb(201,214,215)" fill-opacity="1" d=" M-16.933000564575195,36.14799880981445 C-16.927000045776367,36.16400146484375 -16.923999786376953,36.18000030517578 -16.923999786376953,36.19499969482422 C-17.062999725341797,36.426998138427734 -18.516000747680664,38.321998596191406 -21.711000442504883,39.16899871826172 C-19.766000747680664,38.92399978637695 -19.256999969482422,36.56999969482422 -19.900999069213867,36.26900100708008 C-20.58099937438965,35.95100021362305 -22.45800018310547,35.823001861572266 -25.33799934387207,37.63100051879883 C-25.33799934387207,37.63100051879883 -25.332000732421875,37.630001068115234 -25.332000732421875,37.630001068115234 C-22.761999130249023,36.198001861572266 -21.312999725341797,35.840999603271484 -19.280000686645508,35.707000732421875 C-18.18199920654297,35.6349983215332 -17.051000595092773,35.83700180053711 -16.933000564575195,36.14799880981445z"></path></g></g><g opacity="1" transform="matrix(1,0,0,1,0,0)"><g opacity="1" transform="matrix(1,0,0,1,41.64799880981445,32.20199966430664)"><path fill="rgb(244,244,244)" fill-opacity="1" d=" M-0.007000000216066837,18.134000778198242 C-10.440999984741211,18.134000778198242 -19.976999282836914,17.07900047302246 -26.216999053955078,15.873000144958496 C-30.832000732421875,14.982000350952148 -33.79100036621094,10.487000465393066 -32.5890007019043,5.942999839782715 C-28.79800033569336,-8.380000114440918 -15.595000267028809,-18.134000778198242 -0.007000000216066837,-18.134000778198242 C15.435999870300293,-18.134000778198242 28.538000106811523,-8.562000274658203 32.46699905395508,5.540999889373779 C33.79100036621094,10.293000221252441 30.98900032043457,14.923999786376953 26.14299964904785,15.845000267028809 C19.770000457763672,17.055999755859375 10.081000328063965,18.134000778198242 -0.007000000216066837,18.134000778198242z"></path></g><g opacity="1" transform="matrix(1,0,0,1,58.981998443603516,31.72100067138672)"><path fill="rgb(200,213,214)" fill-opacity="1" d=" M8.810999870300293,16.329999923706055 C6.310999870300293,16.80900001525879 3.299999952316284,17.260000228881836 -0.03999999910593033,17.6299991607666 C1.9509999752044678,16.93899917602539 6.170000076293945,14.010000228881836 6.210000038146973,7.099999904632568 C6.241000175476074,1.2790000438690186 3.7309999465942383,-15.109999656677246 -16.459999084472656,-17.6299991607666 C-9.079999923706055,-17.459999084472656 -2.2690000534057617,-15.10099983215332 3.2100000381469727,-11.10099983215332 C8.91100025177002,-6.949999809265137 13.170000076293945,-1.0299999713897705 15.130000114440918,6.019000053405762 C16.459999084472656,10.769000053405762 13.651000022888184,15.39900016784668 8.810999870300293,16.329999923706055z"></path></g><g opacity="1" transform="matrix(1,0,0,1,24.74799919128418,31.79599952697754)"><path fill="rgb(200,213,214)" fill-opacity="1" d=" M0.8650000095367432,17.725000381469727 C-3.055000066757202,17.325000762939453 -6.514999866485596,16.825000762939453 -9.3149995803833,16.274999618530273 C-13.9350004196167,15.385000228881836 -16.895000457763672,10.895000457763672 -15.6850004196167,6.34499979019165 C-11.895000457763672,-7.974999904632568 1.3049999475479126,-17.725000381469727 16.895000457763672,-17.725000381469727 C-3.4119999408721924,-15.260000228881836 -6.72599983215332,1.1970000267028809 -6.695000171661377,7.025000095367432 C-6.6519999504089355,15.086000442504883 0.8650000095367432,17.725000381469727 0.8650000095367432,17.725000381469727z"></path></g></g></g><g style="display: block;" transform="matrix(-1,0,0,1.1699999570846558,369.2120361328125,169.7105712890625)" opacity="1"><g opacity="1" transform="matrix(1,0,0,1,173.5070037841797,32.584999084472656)"><path fill="rgb(255,225,166)" fill-opacity="1" d=" M23.770999908447266,0 C23.770999908447266,17.857999801635742 13.128000259399414,32.334999084472656 0,32.334999084472656 C-13.128000259399414,32.334999084472656 -23.770999908447266,17.857999801635742 -23.770999908447266,0 C-23.770999908447266,-17.857999801635742 -13.128000259399414,-32.334999084472656 0,-32.334999084472656 C13.128000259399414,-32.334999084472656 23.770999908447266,-17.857999801635742 23.770999908447266,0z"></path></g><g opacity="1" transform="matrix(1,0,0,1,173.5070037841797,29.256000518798828)"><path fill="rgb(255,176,57)" fill-opacity="1" d=" M23.770999908447266,0 C23.770999908447266,16.020000457763672 13.128000259399414,29.006000518798828 0,29.006000518798828 C-13.128000259399414,29.006000518798828 -23.770999908447266,16.020000457763672 -23.770999908447266,0 C-23.770999908447266,-16.020000457763672 -13.128000259399414,-29.006000518798828 0,-29.006000518798828 C13.128000259399414,-29.006000518798828 23.770999908447266,-16.020000457763672 23.770999908447266,0z"></path></g><g opacity="1" transform="matrix(1,0,0,1,173.5070037841797,32.44200134277344)"><path fill="rgb(133,62,19)" fill-opacity="1" d=" M21.85700035095215,-0.0010000000474974513 C21.85700035095215,15.095999717712402 12.071000099182129,27.334999084472656 0,27.334999084472656 C-12.071999549865723,27.334999084472656 -21.85700035095215,15.095999717712402 -21.85700035095215,-0.0010000000474974513 C-21.85700035095215,-15.097999572753906 -12.071999549865723,-27.334999084472656 0,-27.334999084472656 C12.071000099182129,-27.334999084472656 21.85700035095215,-15.097999572753906 21.85700035095215,-0.0010000000474974513z"></path></g><g opacity="1" transform="matrix(1,0,0,1,173.5070037841797,20.547000885009766)"><path fill="rgb(98,36,11)" fill-opacity="1" d=" M21.860000610351562,11.899999618530273 C21.860000610351562,13.100000381469727 21.799999237060547,14.279999732971191 21.670000076293945,15.4399995803833 C20.290000915527344,2.009999990463257 11.109999656677246,-8.369999885559082 0,-8.369999885559082 C-11.109999656677246,-8.369999885559082 -20.290000915527344,2.009999990463257 -21.670000076293945,15.4399995803833 C-21.799999237060547,14.279999732971191 -21.860000610351562,13.100000381469727 -21.860000610351562,11.899999618530273 C-21.860000610351562,-3.200000047683716 -12.069999694824219,-15.4399995803833 0,-15.4399995803833 C12.069999694824219,-15.4399995803833 21.860000610351562,-3.200000047683716 21.860000610351562,11.899999618530273z"></path></g></g><g style="display: block;" transform="matrix(1,0,0,1.1699999570846558,142.697998046875,169.7105712890625)" opacity="1"><g opacity="1" transform="matrix(1,0,0,1,173.5070037841797,32.584999084472656)"><path fill="rgb(255,225,166)" fill-opacity="1" d=" M23.770999908447266,0 C23.770999908447266,17.857999801635742 13.128000259399414,32.334999084472656 0,32.334999084472656 C-13.128000259399414,32.334999084472656 -23.770999908447266,17.857999801635742 -23.770999908447266,0 C-23.770999908447266,-17.857999801635742 -13.128000259399414,-32.334999084472656 0,-32.334999084472656 C13.128000259399414,-32.334999084472656 23.770999908447266,-17.857999801635742 23.770999908447266,0z"></path></g><g opacity="1" transform="matrix(1,0,0,1,173.5070037841797,29.256000518798828)"><path fill="rgb(255,176,57)" fill-opacity="1" d=" M23.770999908447266,0 C23.770999908447266,16.020000457763672 13.128000259399414,29.006000518798828 0,29.006000518798828 C-13.128000259399414,29.006000518798828 -23.770999908447266,16.020000457763672 -23.770999908447266,0 C-23.770999908447266,-16.020000457763672 -13.128000259399414,-29.006000518798828 0,-29.006000518798828 C13.128000259399414,-29.006000518798828 23.770999908447266,-16.020000457763672 23.770999908447266,0z"></path></g><g opacity="1" transform="matrix(1,0,0,1,173.5070037841797,32.44200134277344)"><path fill="rgb(133,62,19)" fill-opacity="1" d=" M21.85700035095215,-0.0010000000474974513 C21.85700035095215,15.095999717712402 12.071000099182129,27.334999084472656 0,27.334999084472656 C-12.071999549865723,27.334999084472656 -21.85700035095215,15.095999717712402 -21.85700035095215,-0.0010000000474974513 C-21.85700035095215,-15.097999572753906 -12.071999549865723,-27.334999084472656 0,-27.334999084472656 C12.071000099182129,-27.334999084472656 21.85700035095215,-15.097999572753906 21.85700035095215,-0.0010000000474974513z"></path></g><g opacity="1" transform="matrix(1,0,0,1,173.5070037841797,20.547000885009766)"><path fill="rgb(98,36,11)" fill-opacity="1" d=" M21.860000610351562,11.899999618530273 C21.860000610351562,13.100000381469727 21.799999237060547,14.279999732971191 21.670000076293945,15.4399995803833 C20.290000915527344,2.009999990463257 11.109999656677246,-8.369999885559082 0,-8.369999885559082 C-11.109999656677246,-8.369999885559082 -20.290000915527344,2.009999990463257 -21.670000076293945,15.4399995803833 C-21.799999237060547,14.279999732971191 -21.860000610351562,13.100000381469727 -21.860000610351562,11.899999618530273 C-21.860000610351562,-3.200000047683716 -12.069999694824219,-15.4399995803833 0,-15.4399995803833 C12.069999694824219,-15.4399995803833 21.860000610351562,-3.200000047683716 21.860000610351562,11.899999618530273z"></path></g></g><g style="display: block;" transform="matrix(1,0,0,1,294.864013671875,111.72001647949219)" opacity="1"><g opacity="1" transform="matrix(1,0,0,1,49.96900177001953,25.882999420166016)"><path fill="rgb(250,236,193)" fill-opacity="1" d=" M-46.981998443603516,-12.366000175476074 C-45.98500061035156,-13.88700008392334 -42.415000915527344,-16.02899932861328 -39.5,-17.302000045776367 C-26.868999481201172,-22.820999145507812 0.061000000685453415,-20.7549991607666 20.547000885009766,-8.369999885559082 C49.720001220703125,9.267000198364258 43.512001037597656,22.820999145507812 37.16400146484375,19.34600067138672 C30.81399917602539,15.871999740600586 8.581000328063965,-0.0689999982714653 -22.888999938964844,-0.5329999923706055 C-31.32200050354004,-0.6570000052452087 -37.29800033569336,0.1850000023841858 -41.96099853515625,-0.29600000381469727 C-48.12099838256836,-0.9300000071525574 -49.71900177001953,-8.194000244140625 -46.981998443603516,-12.366000175476074z"></path></g><g opacity="1" transform="matrix(1,0,0,1,48.62900161743164,22.104999542236328)"><path fill="rgb(133,62,19)" fill-opacity="1" d=" M-45.191001892089844,-9.340999603271484 C-44.19300079345703,-10.861000061035156 -41.03099822998047,-13.24899959564209 -38.11600112915039,-14.52299976348877 C-25.485000610351562,-20.041000366210938 -1.7319999933242798,-21.854999542236328 18.753999710083008,-9.470000267028809 C47.928001403808594,8.166999816894531 44.95500183105469,21.854000091552734 38.606998443603516,18.3799991607666 C32.25699996948242,14.904999732971191 10.02400016784668,-1.034999966621399 -21.445999145507812,-1.4989999532699585 C-29.878000259399414,-1.6230000257492065 -35.85499954223633,-0.7820000052452087 -40.516998291015625,-1.2619999647140503 C-46.676998138427734,-1.8969999551773071 -47.928001403808594,-5.169000148773193 -45.191001892089844,-9.340999603271484z"></path></g><g opacity="1" transform="matrix(1,0,0,1,47.547000885009766,20.45400047302246)"><path fill="rgb(98,36,11)" fill-opacity="1" d=" M-44.42900085449219,-1.4299999475479126 C-44.41699981689453,-1.4589999914169312 -44.395999908447266,-1.496999979019165 -44.374000549316406,-1.5269999504089355 C-43.37699890136719,-3.0450000762939453 -40.21900177001953,-5.439000129699707 -37.30099868774414,-6.702000141143799 C-24.677000045776367,-12.223999977111816 -0.9150000214576721,-14.03600025177002 19.562000274658203,-1.6579999923706055 C34.15999984741211,7.170000076293945 40.702999114990234,15.013999938964844 42.80699920654297,20.201000213623047 C45.96699905395508,18.007999420166016 43.303001403808594,6.369999885559082 19.83300018310547,-7.822000026702881 C-0.6449999809265137,-20.200000762939453 -24.409000396728516,-18.38800048828125 -37.03200149536133,-12.87600040435791 C-39.95100021362305,-11.602999687194824 -43.108001708984375,-9.208000183105469 -44.10599899291992,-7.690999984741211 C-45.78900146484375,-5.131999969482422 -45.965999603271484,-2.9089999198913574 -44.42900085449219,-1.4299999475479126z"></path></g></g><g style="display: block;" transform="matrix(1,0,0,1,117.19700622558594,111.72001647949219)" opacity="1"><g opacity="1" transform="matrix(1,0,0,1,49.970001220703125,25.882999420166016)"><path fill="rgb(250,236,193)" fill-opacity="1" d=" M46.983001708984375,-12.366000175476074 C45.98500061035156,-13.88700008392334 42.415000915527344,-16.02899932861328 39.5,-17.302000045776367 C26.868999481201172,-22.820999145507812 -0.05999999865889549,-20.7549991607666 -20.54599952697754,-8.369999885559082 C-49.720001220703125,9.267000198364258 -43.512001037597656,22.820999145507812 -37.16299819946289,19.34600067138672 C-30.81399917602539,15.871999740600586 -8.579999923706055,-0.0689999982714653 22.889999389648438,-0.5329999923706055 C31.32200050354004,-0.6570000052452087 37.29800033569336,0.1850000023841858 41.96200180053711,-0.29600000381469727 C48.12099838256836,-0.9300000071525574 49.720001220703125,-8.194000244140625 46.983001708984375,-12.366000175476074z"></path></g><g opacity="1" transform="matrix(1,0,0,1,51.310001373291016,22.104999542236328)"><path fill="rgb(133,62,19)" fill-opacity="1" d=" M45.191001892089844,-9.340999603271484 C44.19300079345703,-10.861000061035156 41.03099822998047,-13.24899959564209 38.11600112915039,-14.52299976348877 C25.485000610351562,-20.041000366210938 1.7319999933242798,-21.854999542236328 -18.753999710083008,-9.470000267028809 C-47.928001403808594,8.166999816894531 -44.95600128173828,21.854000091552734 -38.606998443603516,18.3799991607666 C-32.257999420166016,14.904999732971191 -10.02299976348877,-1.034999966621399 21.445999145507812,-1.4989999532699585 C29.878000259399414,-1.6230000257492065 35.85499954223633,-0.7820000052452087 40.518001556396484,-1.2619999647140503 C46.676998138427734,-1.8969999551773071 47.928001403808594,-5.169000148773193 45.191001892089844,-9.340999603271484z"></path></g><g opacity="1" transform="matrix(1,0,0,1,52.391998291015625,20.45400047302246)"><path fill="rgb(98,36,11)" fill-opacity="1" d=" M44.43000030517578,-1.4299999475479126 C44.41899871826172,-1.4589999914169312 44.39699935913086,-1.496999979019165 44.375999450683594,-1.5269999504089355 C43.37799835205078,-3.0450000762939453 40.220001220703125,-5.439000129699707 37.30099868774414,-6.702000141143799 C24.67799949645996,-12.223999977111816 0.9150000214576721,-14.03600025177002 -19.562000274658203,-1.6579999923706055 C-34.15999984741211,7.170000076293945 -40.70199966430664,15.013999938964844 -42.805999755859375,20.201000213623047 C-45.965999603271484,18.007999420166016 -43.301998138427734,6.369999885559082 -19.83099937438965,-7.822000026702881 C0.6460000276565552,-20.200000762939453 24.406999588012695,-18.38800048828125 37.03099822998047,-12.87600040435791 C39.94900131225586,-11.602999687194824 43.106998443603516,-9.208000183105469 44.10499954223633,-7.690999984741211 C45.78799819946289,-5.131999969482422 45.96699905395508,-2.9089999198913574 44.43000030517578,-1.4299999475479126z"></path></g></g></g></svg>