<svg xmlns="http://www.w3.org/2000/svg" viewBox="0 0 512 512" width="512" height="512" style="width: 100%; height: 100%; transform: translate3d(0,0,0);" preserveAspectRatio="xMidYMid meet"><defs><clipPath id="__lottie_element_25732"><rect width="512" height="512" x="0" y="0"></rect></clipPath></defs><g clip-path="url(#__lottie_element_25732)"><g style="display: block;" transform="matrix(1.055999994277954,0,0,1.055999994277954,35.24742126464844,25.895771026611328)" opacity="1"><g opacity="0.1" transform="matrix(1,0,0,1,208.875,223.875)"><path fill="rgb(0,0,0)" fill-opacity="1" d=" M196.0240020751953,0 C196.0240020751953,108.26200103759766 108.26100158691406,196.02499389648438 0,196.02499389648438 C-108.26200103759766,196.02499389648438 -196.02499389648438,108.26200103759766 -196.02499389648438,0 C-196.02499389648438,-108.26100158691406 -108.26200103759766,-196.0240020751953 0,-196.0240020751953 C108.26100158691406,-196.0240020751953 196.0240020751953,-108.26100158691406 196.0240020751953,0z"></path></g><g opacity="1" transform="matrix(1,0,0,1,208.87600708007812,208.875)"><path fill="rgb(255,176,57)" fill-opacity="1" d=" M188.87600708007812,0 C188.87600708007812,104.31300354003906 104.31199645996094,188.875 0,188.875 C-104.31300354003906,188.875 -188.87600708007812,104.31300354003906 -188.87600708007812,0 C-188.87600708007812,-104.31300354003906 -104.31300354003906,-188.875 0,-188.875 C104.31199645996094,-188.875 188.87600708007812,-104.31300354003906 188.87600708007812,0z"></path></g><g opacity="1" transform="matrix(1,0,0,1,208.87600708007812,208.875)"><path stroke-linecap="butt" stroke-linejoin="miter" fill-opacity="0" stroke-miterlimit="10" stroke="rgb(247,125,65)" stroke-opacity="1" stroke-width="8" d=" M188.87600708007812,0 C188.87600708007812,104.31300354003906 104.31199645996094,188.875 0,188.875 C-104.31300354003906,188.875 -188.87600708007812,104.31300354003906 -188.87600708007812,0 C-188.87600708007812,-104.31300354003906 -104.31300354003906,-188.875 0,-188.875 C104.31199645996094,-188.875 188.87600708007812,-104.31300354003906 188.87600708007812,0z"></path></g><g opacity="1" transform="matrix(1,0,0,1,208.93099975585938,207.0070037841797)"><path fill="rgb(255,209,64)" fill-opacity="1" d=" M168.3509979248047,2.5810000896453857 C166.89500427246094,97.60900115966797 90.33999633789062,173.49000549316406 -2.638000011444092,172.06500244140625 C-95.61499786376953,170.63900756835938 -169.80799865722656,92.4489974975586 -168.3520050048828,-2.5799999237060547 C-166.89500427246094,-97.60800170898438 -90.34100341796875,-173.48899841308594 2.63700008392334,-172.06399536132812 C95.61499786376953,-170.63900756835938 169.80799865722656,-92.447998046875 168.3509979248047,2.5810000896453857z"></path></g><g opacity="1" transform="matrix(1,0,0,1,208.875,119.05599975585938)"><path fill="rgb(255,223,121)" fill-opacity="1" d=" M149.26800537109375,47.38999938964844 C149.26800537109375,120.03299713134766 82.43900299072266,62.569000244140625 0.0010000000474974513,62.569000244140625 C-82.43800354003906,62.569000244140625 -149.26699829101562,120.03299713134766 -149.26699829101562,47.38999938964844 C-149.26699829101562,-25.253999710083008 -82.43800354003906,-84.14199829101562 0.0010000000474974513,-84.14199829101562 C82.43900299072266,-84.14199829101562 149.26800537109375,-25.253999710083008 149.26800537109375,47.38999938964844z"></path></g><g opacity="1" transform="matrix(0.9991943836212158,-0.040131792426109314,0.040131792426109314,0.9991943836212158,0.70050048828125,9.010250091552734)"><g opacity="1" transform="matrix(1,0,0,1,238.69000244140625,39.6879997253418)"><path stroke-linecap="round" stroke-linejoin="round" fill-opacity="0" stroke="rgb(255,255,255)" stroke-opacity="1" stroke-width="6" d=" M-2.388000011444092,-0.5550000071525574 C-0.8500000238418579,-0.2199999988079071 0.7440000176429749,0.15000000596046448 2.388000011444092,0.5550000071525574"></path></g><g opacity="1" transform="matrix(1,0,0,1,221.24200439453125,36.68299865722656)"><path stroke-linecap="round" stroke-linejoin="round" fill-opacity="0" stroke="rgb(255,255,255)" stroke-opacity="1" stroke-width="6" d=" M-6.295000076293945,-0.7689999938011169 C-6.295000076293945,-0.7689999938011169 -1.4279999732971191,-0.5090000033378601 6.295000076293945,0.7689999938011169"></path></g></g></g><g style="display: block;" transform="matrix(1.0559989213943481,0,0,1.0559957027435303,172.4623565673828,172.0860137939453)" opacity="1"><g opacity="1" transform="matrix(1,0,0,1,21.75,35.25)"><path fill="rgb(255,225,166)" fill-opacity="1" d=" M21.5,0 C21.5,19.329999923706055 11.87399959564209,35 0,35 C-11.87399959564209,35 -21.5,19.329999923706055 -21.5,0 C-21.5,-19.329999923706055 -11.87399959564209,-35 0,-35 C11.87399959564209,-35 21.5,-19.329999923706055 21.5,0z"></path></g><g opacity="1" transform="matrix(1,0,0,1,21.75,31.64699935913086)"><path fill="rgb(255,176,57)" fill-opacity="1" d=" M21.5,0 C21.5,17.34000015258789 11.87399959564209,31.39699935913086 0,31.39699935913086 C-11.87399959564209,31.39699935913086 -21.5,17.34000015258789 -21.5,0 C-21.5,-17.34000015258789 -11.87399959564209,-31.39699935913086 0,-31.39699935913086 C11.87399959564209,-31.39699935913086 21.5,-17.34000015258789 21.5,0z"></path></g><g opacity="1" transform="matrix(1,0,0,1,21.75,35.095001220703125)"><path fill="rgb(133,62,19)" fill-opacity="1" d=" M19.768999099731445,0 C19.768999099731445,16.340999603271484 10.916999816894531,29.58799934387207 -0.0010000000474974513,29.58799934387207 C-10.918999671936035,29.58799934387207 -19.768999099731445,16.340999603271484 -19.768999099731445,0 C-19.768999099731445,-16.340999603271484 -10.918999671936035,-29.58799934387207 -0.0010000000474974513,-29.58799934387207 C10.916999816894531,-29.58799934387207 19.768999099731445,-16.340999603271484 19.768999099731445,0z"></path></g><g opacity="1" transform="matrix(1,0,0,1,21.75,22.219999313354492)"><path fill="rgb(107,31,0)" fill-opacity="1" d=" M19.770999908447266,12.880000114440918 C19.770999908447266,14.178999900817871 19.716999053955078,15.456000328063965 19.600000381469727,16.711999893188477 C18.351999282836914,2.174999952316284 10.04800033569336,-9.0600004196167 0,-9.0600004196167 C-10.04800033569336,-9.0600004196167 -18.35099983215332,2.174999952316284 -19.599000930786133,16.711999893188477 C-19.716999053955078,15.456000328063965 -19.770999908447266,14.178999900817871 -19.770999908447266,12.880000114440918 C-19.770999908447266,-3.4649999141693115 -10.916000366210938,-16.711999893188477 0,-16.711999893188477 C10.916999816894531,-16.711999893188477 19.770999908447266,-3.4649999141693115 19.770999908447266,12.880000114440918z"></path></g><g opacity="1" transform="matrix(1,0,0,1,136.23599243164062,35.25)"><path fill="rgb(255,225,166)" fill-opacity="1" d=" M21.5,0 C21.5,19.329999923706055 11.87399959564209,35 0,35 C-11.87399959564209,35 -21.5,19.329999923706055 -21.5,0 C-21.5,-19.329999923706055 -11.87399959564209,-35 0,-35 C11.87399959564209,-35 21.5,-19.329999923706055 21.5,0z"></path></g><g opacity="1" transform="matrix(1,0,0,1,136.23599243164062,31.64699935913086)"><path fill="rgb(255,176,57)" fill-opacity="1" d=" M21.5,0 C21.5,17.34000015258789 11.87399959564209,31.39699935913086 0,31.39699935913086 C-11.87399959564209,31.39699935913086 -21.5,17.34000015258789 -21.5,0 C-21.5,-17.34000015258789 -11.87399959564209,-31.39699935913086 0,-31.39699935913086 C11.87399959564209,-31.39699935913086 21.5,-17.34000015258789 21.5,0z"></path></g><g opacity="1" transform="matrix(1,0,0,1,136.23599243164062,35.095001220703125)"><path fill="rgb(133,62,19)" fill-opacity="1" d=" M19.768999099731445,0 C19.768999099731445,16.340999603271484 10.916999816894531,29.58799934387207 -0.0010000000474974513,29.58799934387207 C-10.918999671936035,29.58799934387207 -19.768999099731445,16.340999603271484 -19.768999099731445,0 C-19.768999099731445,-16.340999603271484 -10.918999671936035,-29.58799934387207 -0.0010000000474974513,-29.58799934387207 C10.916999816894531,-29.58799934387207 19.768999099731445,-16.340999603271484 19.768999099731445,0z"></path></g><g opacity="1" transform="matrix(1,0,0,1,136.23599243164062,22.219999313354492)"><path fill="rgb(107,31,0)" fill-opacity="1" d=" M19.770999908447266,12.880000114440918 C19.770999908447266,14.178999900817871 19.715999603271484,15.456000328063965 19.599000930786133,16.711999893188477 C18.35099983215332,2.174999952316284 10.04699993133545,-9.0600004196167 0,-9.0600004196167 C-10.048999786376953,-9.0600004196167 -18.351999282836914,2.174999952316284 -19.600000381469727,16.711999893188477 C-19.716999053955078,15.456000328063965 -19.770999908447266,14.178999900817871 -19.770999908447266,12.880000114440918 C-19.770999908447266,-3.4649999141693115 -10.916999816894531,-16.711999893188477 0,-16.711999893188477 C10.916999816894531,-16.711999893188477 19.770999908447266,-3.4649999141693115 19.770999908447266,12.880000114440918z"></path></g></g><g style="display: block;" transform="matrix(1.0559989213943481,0,0,1.0559957027435303,172.0417938232422,307.9462585449219)" opacity="1"><g opacity="1" transform="matrix(1,0,0,1,80.02200317382812,18.87700080871582)"><path fill="rgb(255,176,57)" fill-opacity="1" d=" M74.43099975585938,-18.604999542236328 C51.14799880981445,-5.315999984741211 32.64899826049805,4.554999828338623 0.026000000536441803,4.669000148773193 C-32.59700012207031,4.554999828338623 -51.095001220703125,-5.315999984741211 -74.37899780273438,-18.604999542236328 C-75.85600280761719,-19.452999114990234 -80.78500366210938,-18.23200035095215 -79.18299865722656,-13.791999816894531 C-76.37699890136719,-6.014999866485596 -49.486000061035156,18.61199951171875 0.026000000536441803,18.87700080871582 C49.53900146484375,18.61199951171875 76.83300018310547,-6.189000129699707 79.26100158691406,-14.0600004196167 C80.60700225830078,-18.426000595092773 75.90899658203125,-19.452999114990234 74.43099975585938,-18.604999542236328z"></path></g><g opacity="1" transform="matrix(1,0,0,1,80.04900360107422,23.235000610351562)"><path fill="rgb(255,225,166)" fill-opacity="1" d=" M74.7030029296875,-19.952999114990234 C51.28900146484375,-4.4670000076293945 33.38600158691406,6.1020002365112305 -0.0010000000474974513,6.23199987411499 C-33.38600158691406,6.1020002365112305 -51.5890007019043,-4.508999824523926 -74.96099853515625,-20.042999267578125 C-77.44300079345703,-21.691999435424805 -79.79900360107422,-19.85099983215332 -79.12799835205078,-17.81599998474121 C-76.22100067138672,-9.041999816894531 -50.672000885009766,21.46500015258789 -0.0010000000474974513,21.764999389648438 C50.67100143432617,21.46500015258789 76.22100067138672,-9.041999816894531 79.1259994506836,-17.81599998474121 C79.79900360107422,-19.85099983215332 77.44200134277344,-21.764999389648438 74.7030029296875,-19.952999114990234z"></path></g><g opacity="1" transform="matrix(1,0,0,1,80.0479965209961,21.386999130249023)"><path fill="rgb(133,62,19)" fill-opacity="1" d=" M74.40499877929688,-17.958999633789062 C51.12200164794922,-4.670000076293945 32.62300109863281,5.920000076293945 0,6.033999919891357 C-32.62300109863281,5.920000076293945 -51.12099838256836,-4.670000076293945 -74.40499877929688,-17.958999633789062 C-75.88200378417969,-18.80699920654297 -77.9749984741211,-18.038000106811523 -77.31800079345703,-16.236000061035156 C-74.47899627685547,-8.468000411987305 -49.512001037597656,18.541000366210938 0,18.80699920654297 C49.51300048828125,18.541000366210938 74.47899627685547,-8.468000411987305 77.31900024414062,-16.236000061035156 C77.9749984741211,-18.038000106811523 75.88300323486328,-18.80699920654297 74.40499877929688,-17.958999633789062z"></path></g><g opacity="1" transform="matrix(1,0,0,1,80.0459976196289,17.472000122070312)"><path fill="rgb(98,36,11)" fill-opacity="1" d=" M77.31700134277344,-12.324000358581543 C77.14199829101562,-11.857000350952148 76.89199829101562,-11.317999839782715 76.55899810791016,-10.715999603271484 C75.94300079345703,-10.972999572753906 75.10199737548828,-10.220000267028809 74.40299987792969,-9.817999839782715 C51.125,3.4709999561309814 32.625,14.777999877929688 0.004000000189989805,14.892999649047852 C-32.624000549316406,14.777999877929688 -51.11600112915039,3.4709999561309814 -74.40299987792969,-9.817999839782715 C-75.10199737548828,-10.220000267028809 -75.94300079345703,-10.972999572753906 -76.55899810791016,-10.708000183105469 C-76.89199829101562,-11.310999870300293 -77.14099884033203,-11.848999977111816 -77.31700134277344,-12.324000358581543 C-77.9749984741211,-14.12600040435791 -75.8759994506836,-14.892999649047852 -74.40299987792969,-14.04699993133545 C-51.11600112915039,-0.7580000162124634 -32.624000549316406,9.831000328063965 0.004000000189989805,9.946999549865723 C32.625,9.831000328063965 51.125,-0.7580000162124634 74.40299987792969,-14.04699993133545 C75.88500213623047,-14.892999649047852 77.9749984741211,-14.12600040435791 77.31700134277344,-12.324000358581543z"></path></g></g></g></svg>