<svg xmlns="http://www.w3.org/2000/svg" viewBox="0 0 512 512" width="512" height="512" style="width: 100%; height: 100%; transform: translate3d(0,0,0);" preserveAspectRatio="xMidYMid meet"><defs><clipPath id="__lottie_element_25745"><rect width="512" height="512" x="0" y="0"></rect></clipPath></defs><g clip-path="url(#__lottie_element_25745)"><g style="display: block;" transform="matrix(1,0,0,1,256,255.99998474121094)" opacity="1"><g opacity="0.1" transform="matrix(1,0,0,1,0,0)"><path fill="rgb(0,0,0)" fill-opacity="1" d=" M195.92300415039062,10.781999588012695 C195.92300415039062,119.04299926757812 108.16000366210938,206.80599975585938 -0.10100000351667404,206.80599975585938 C-108.36199951171875,206.80599975585938 -196.12600708007812,119.04299926757812 -196.12600708007812,10.781999588012695 C-196.12600708007812,-97.47899627685547 -108.36199951171875,-185.2429962158203 -0.10100000351667404,-185.2429962158203 C108.16000366210938,-185.2429962158203 195.92300415039062,-97.47899627685547 195.92300415039062,10.781999588012695z"></path></g><g opacity="1" transform="matrix(1,0,0,1,0,0)"><path fill="rgb(255,173,0)" fill-opacity="1" d=" M188.7740020751953,-4.2179999351501465 C188.7740020751953,100.09500122070312 104.21199798583984,184.65699768066406 -0.10100000351667404,184.65699768066406 C-104.41400146484375,184.65699768066406 -188.9770050048828,100.09500122070312 -188.9770050048828,-4.2179999351501465 C-188.9770050048828,-108.53099822998047 -104.41400146484375,-193.093994140625 -0.10100000351667404,-193.093994140625 C104.21199798583984,-193.093994140625 188.7740020751953,-108.53099822998047 188.7740020751953,-4.2179999351501465z"></path></g><g opacity="1" transform="matrix(1,0,0,1,0,0)"><path fill="rgb(255,207,0)" fill-opacity="1" d=" M168.30599975585938,-3.50600004196167 C166.8489990234375,91.52200317382812 90.29499816894531,167.4029998779297 -2.683000087738037,165.97799682617188 C-95.66100311279297,164.55299377441406 -169.85299682617188,86.36199951171875 -168.39700317382812,-8.666999816894531 C-166.94000244140625,-103.69599914550781 -90.38700103759766,-179.5749969482422 2.5910000801086426,-178.14999389648438 C95.56900024414062,-176.72500610351562 169.76300048828125,-98.53500366210938 168.30599975585938,-3.50600004196167z"></path></g><g opacity="0.9" transform="matrix(1,0,0,1,0,0)"><path fill="rgb(255,222,102)" fill-opacity="1" d=" M149.16600036621094,-46.64699935913086 C149.16600036621094,25.996000289916992 82.33699798583984,-31.468000411987305 -0.10100000351667404,-31.468000411987305 C-82.53900146484375,-31.468000411987305 -149.36900329589844,25.996000289916992 -149.36900329589844,-46.64699935913086 C-149.36900329589844,-119.29000091552734 -82.53900146484375,-178.1790008544922 -0.10100000351667404,-178.1790008544922 C82.33699798583984,-178.1790008544922 149.16600036621094,-119.29000091552734 149.16600036621094,-46.64699935913086z"></path></g><g opacity="1" transform="matrix(1,0,0,1,0,0)"><g opacity="1" transform="matrix(1,0,0,1,0,0)"><path stroke-linecap="round" stroke-linejoin="round" fill-opacity="0" stroke="rgb(255,255,255)" stroke-opacity="1" stroke-width="6" d=" M36.270999908447266,-173.9600067138672 C37.808998107910156,-173.625 39.404998779296875,-173.2550048828125 41.04899978637695,-172.8489990234375"></path></g><g opacity="1" transform="matrix(1,0,0,1,0,0)"><path stroke-linecap="round" stroke-linejoin="round" fill-opacity="0" stroke="rgb(255,255,255)" stroke-opacity="1" stroke-width="6" d=" M14.916999816894531,-177.1790008544922 C14.916999816894531,-177.1790008544922 19.784000396728516,-176.91900634765625 27.506999969482422,-175.64100646972656"></path></g></g><g opacity="1" transform="matrix(1,0,0,1,0,0)"><path stroke-linecap="butt" stroke-linejoin="miter" fill-opacity="0" stroke-miterlimit="10" stroke="rgb(255,118,42)" stroke-opacity="1" stroke-width="8" d=" M188.7740020751953,-4.2179999351501465 C188.7740020751953,100.09500122070312 104.21199798583984,184.65699768066406 -0.10100000351667404,184.65699768066406 C-104.41400146484375,184.65699768066406 -188.9770050048828,100.09500122070312 -188.9770050048828,-4.2179999351501465 C-188.9770050048828,-108.53099822998047 -104.41400146484375,-193.093994140625 -0.10100000351667404,-193.093994140625 C104.21199798583984,-193.093994140625 188.7740020751953,-108.53099822998047 188.7740020751953,-4.2179999351501465z"></path></g></g><g style="display: block;" transform="matrix(1,0,0,1,256,255.99998474121094)" opacity="0.7000000000000001"><g opacity="1" transform="matrix(1,0,0,1,0,0)"><path fill="rgb(255,173,0)" fill-opacity="1" d=" M-25.33799934387207,115.73500061035156 C-30.231000900268555,147.52200317382812 -53.137001037597656,162.125 -74.51699829101562,162.125 C-92.96099853515625,145.4250030517578 -118.7760009765625,130.81399536132812 -131.4720001220703,117.83799743652344 C-133.1280059814453,87.3030014038086 -108.2760009765625,42.499000549316406 -86.94499969482422,18.405000686645508 C-54.974998474121094,44.20500183105469 -35.167999267578125,74.46499633789062 -25.33799934387207,115.73500061035156z"></path></g></g><g style="display: block;" transform="matrix(1,0,0,1,256,255.99998474121094)" opacity="1"><g opacity="1" transform="matrix(1,0,0,1,0,0)"><path fill="rgb(255,173,0)" fill-opacity="1" d=" M44.624000549316406,97.98300170898438 C33.29899978637695,110.15699768066406 14.602999687194824,119.86799621582031 -0.10700000077486038,119.86799621582031 C-14.84000015258789,119.86799621582031 -33.47200012207031,110.15699768066406 -44.797000885009766,97.98300170898438 C-55.08300018310547,86.9260025024414 -55.87799835205078,76.6969985961914 -52.53499984741211,75.41100311279297 C-48.33700180053711,73.7959976196289 -30.0049991607666,91.5459976196289 -0.10700000077486038,91.86799621582031 C29.791000366210938,91.5459976196289 48.124000549316406,73.7959976196289 52.321998596191406,75.41100311279297 C55.665000915527344,76.6969985961914 54.90999984741211,86.9260025024414 44.624000549316406,97.98300170898438z"></path></g><g opacity="1" transform="matrix(1,0,0,1,0,0)"><path fill="rgb(255,225,156)" fill-opacity="1" d=" M41.54999923706055,108.06800079345703 C30.225000381469727,120.24199676513672 14.602999687194824,129.95399475097656 -0.10700000077486038,129.95399475097656 C-14.84000015258789,129.95399475097656 -30.43899917602539,120.24199676513672 -41.763999938964844,108.06800079345703 C-52.04999923706055,97.01100158691406 -55.9010009765625,80.9530029296875 -52.55799865722656,79.66699981689453 C-48.36000061035156,78.052001953125 -30.0049991607666,101.63200378417969 -0.10700000077486038,101.9540023803711 C29.791000366210938,101.63200378417969 48.03499984741211,78.03099822998047 52.233001708984375,79.64600372314453 C55.57600021362305,80.93199920654297 51.83599853515625,97.01100158691406 41.54999923706055,108.06800079345703z"></path></g><g opacity="1" transform="matrix(1,0,0,1,0,0)"><path fill="rgb(143,58,0)" fill-opacity="1" d=" M41.54999923706055,102.06800079345703 C30.225000381469727,114.24199676513672 14.602999687194824,123.9540023803711 -0.10700000077486038,123.9540023803711 C-14.84000015258789,123.9540023803711 -30.43899917602539,114.24199676513672 -41.763999938964844,102.06800079345703 C-52.04999923706055,91.01100158691406 -55.87799835205078,80.78299713134766 -52.53499984741211,79.49700164794922 C-48.33700180053711,77.88200378417969 -30.0049991607666,96.63200378417969 -0.10700000077486038,96.9540023803711 C29.791000366210938,96.63200378417969 48.124000549316406,77.88200378417969 52.321998596191406,79.49700164794922 C55.665000915527344,80.78299713134766 51.83599853515625,91.01100158691406 41.54999923706055,102.06800079345703z"></path></g><g opacity="1" transform="matrix(1,0,0,1,0,0)"><path fill="rgb(107,32,0)" fill-opacity="1" d=" M52.6870002746582,85.54100036621094 C48.48699951171875,83.93099975585938 29.792999267578125,102.63700103759766 -0.10700000077486038,102.95700073242188 C-30.006999969482422,102.63700103759766 -48.720001220703125,83.87899780273438 -52.91999816894531,85.48899841308594 C-54.00600051879883,82.81199645996094 -54.00699996948242,80.06700134277344 -52.5369987487793,79.49700164794922 C-48.33700180053711,77.88700103759766 -30.006999969482422,96.63700103759766 -0.10700000077486038,96.95700073242188 C29.792999267578125,96.63700103759766 48.12300109863281,77.88600158691406 52.323001861572266,79.49700164794922 C54.06999969482422,80.16699981689453 53.499000549316406,83.34700012207031 52.6870002746582,85.54100036621094z"></path></g></g><g style="display: block;" transform="matrix(1,0,0,1,256,255.99998474121094)" opacity="1"><g opacity="1" transform="matrix(1,0,0,1,0,0)"><g opacity="1" transform="matrix(1,0,0,1,0,0)"><path fill="rgb(255,225,156)" fill-opacity="1" d=" M76.78500366210938,-26.023000717163086 C76.78500366210938,-6.545000076293945 66.9010009765625,9.246000289916992 54.70800018310547,9.246000289916992 C42.51499938964844,9.246000289916992 32.63100051879883,-6.545000076293945 32.63100051879883,-26.023000717163086 C32.63100051879883,-45.500999450683594 42.51499938964844,-61.29199981689453 54.70800018310547,-61.29199981689453 C66.9010009765625,-61.29199981689453 76.78500366210938,-45.500999450683594 76.78500366210938,-26.023000717163086z"></path></g><g opacity="1" transform="matrix(1,0,0,1,0,0)"><path fill="rgb(255,173,0)" fill-opacity="1" d=" M76.78500366210938,-29.65399932861328 C76.78500366210938,-12.180999755859375 66.9010009765625,1.9850000143051147 54.70800018310547,1.9850000143051147 C42.51499938964844,1.9850000143051147 32.63100051879883,-12.180999755859375 32.63100051879883,-29.65399932861328 C32.63100051879883,-47.12699890136719 42.51499938964844,-61.29199981689453 54.70800018310547,-61.29199981689453 C66.9010009765625,-61.29199981689453 76.78500366210938,-47.12699890136719 76.78500366210938,-29.65399932861328z"></path></g><g opacity="1" transform="matrix(1,0,0,1,0,0)"><path fill="rgb(143,58,0)" fill-opacity="1" d=" M75.00700378417969,-26.179000854492188 C75.00700378417969,-9.713000297546387 65.91899871826172,3.635999917984009 54.70800018310547,3.635999917984009 C43.49700164794922,3.635999917984009 34.409000396728516,-9.713000297546387 34.409000396728516,-26.179000854492188 C34.409000396728516,-42.64500045776367 43.49700164794922,-55.99399948120117 54.70800018310547,-55.99399948120117 C65.91899871826172,-55.99399948120117 75.00700378417969,-42.64500045776367 75.00700378417969,-26.179000854492188z"></path></g><g opacity="1" transform="matrix(1,0,0,1,0,0)"><path fill="rgb(107,32,0)" fill-opacity="1" d=" M74.83300018310547,-22.312000274658203 C73.552001953125,-36.959999084472656 65.0260009765625,-48.28300094604492 54.70800018310547,-48.28300094604492 C44.38999938964844,-48.28300094604492 35.8650016784668,-36.959999084472656 34.58300018310547,-22.312000274658203 C33.29600143432617,-42.125 43.49800109863281,-55.99399948120117 54.70800018310547,-55.99399948120117 C65.91799926757812,-55.99399948120117 76.35800170898438,-41.625 74.83300018310547,-22.312000274658203z"></path></g></g><g opacity="1" transform="matrix(1,0,0,1,0,0)"><g opacity="1" transform="matrix(1,0,0,1,0,0)"><path fill="rgb(255,225,156)" fill-opacity="1" d=" M-31.929000854492188,-26.023000717163086 C-31.929000854492188,-6.545000076293945 -41.8120002746582,9.246000289916992 -54.005001068115234,9.246000289916992 C-66.197998046875,9.246000289916992 -76.08200073242188,-6.545000076293945 -76.08200073242188,-26.023000717163086 C-76.08200073242188,-45.500999450683594 -66.197998046875,-61.29199981689453 -54.005001068115234,-61.29199981689453 C-41.8120002746582,-61.29199981689453 -31.929000854492188,-45.500999450683594 -31.929000854492188,-26.023000717163086z"></path></g><g opacity="1" transform="matrix(1,0,0,1,0,0)"><path fill="rgb(255,173,0)" fill-opacity="1" d=" M-31.929000854492188,-29.65399932861328 C-31.929000854492188,-12.180999755859375 -41.8120002746582,1.9850000143051147 -54.005001068115234,1.9850000143051147 C-66.197998046875,1.9850000143051147 -76.08200073242188,-12.180999755859375 -76.08200073242188,-29.65399932861328 C-76.08200073242188,-47.12699890136719 -66.197998046875,-61.29199981689453 -54.005001068115234,-61.29199981689453 C-41.8120002746582,-61.29199981689453 -31.929000854492188,-47.12699890136719 -31.929000854492188,-29.65399932861328z"></path></g><g opacity="1" transform="matrix(1,0,0,1,0,0)"><path fill="rgb(143,58,0)" fill-opacity="1" d=" M-33.70600128173828,-26.179000854492188 C-33.70600128173828,-9.713000297546387 -42.79399871826172,3.635999917984009 -54.005001068115234,3.635999917984009 C-65.21600341796875,3.635999917984009 -74.30400085449219,-9.713000297546387 -74.30400085449219,-26.179000854492188 C-74.30400085449219,-42.64500045776367 -65.21600341796875,-55.99399948120117 -54.005001068115234,-55.99399948120117 C-42.79399871826172,-55.99399948120117 -33.70600128173828,-42.64500045776367 -33.70600128173828,-26.179000854492188z"></path></g><g opacity="1" transform="matrix(1,0,0,1,0,0)"><path fill="rgb(107,32,0)" fill-opacity="1" d=" M-33.880001068115234,-22.312000274658203 C-35.1609992980957,-36.959999084472656 -43.6870002746582,-48.28300094604492 -54.005001068115234,-48.28300094604492 C-64.322998046875,-48.28300094604492 -72.8489990234375,-36.959999084472656 -74.13099670410156,-22.312000274658203 C-75.41799926757812,-42.125 -65.21499633789062,-55.99399948120117 -54.005001068115234,-55.99399948120117 C-42.79499816894531,-55.99399948120117 -32.35499954223633,-41.625 -33.880001068115234,-22.312000274658203z"></path></g></g></g><g style="display: none;"><g><path></path><path stroke-linecap="butt" stroke-linejoin="round" fill-opacity="0"></path></g><g><path></path></g></g><g style="display: block;" transform="matrix(1,0,0,1,256,255.99998474121094)" opacity="1"><g opacity="1" transform="matrix(1,0,0,1,0,0)"><path fill="rgb(58,162,222)" fill-opacity="1" d=" M-118.7760009765625,108.8550033569336 C-118.69499969482422,131.33799743652344 -100.40299987792969,149.4969940185547 -77.9209976196289,149.41600036621094 C-55.43899917602539,149.3350067138672 -37.27799987792969,131.04400634765625 -37.35900115966797,108.56099700927734 C-37.439998626708984,86.0790023803711 -78.61199951171875,16.33300018310547 -78.61199951171875,16.33300018310547 C-78.61199951171875,16.33300018310547 -118.85700225830078,86.37300109863281 -118.7760009765625,108.8550033569336z"></path></g><g opacity="0.61" transform="matrix(1,0,0,1,0,0)"><g opacity="0.3" transform="matrix(1,0,0,1,0,0)"><path fill="rgb(144,243,253)" fill-opacity="1" d=" M-44.60200119018555,124.32499694824219 C-42.77399826049805,102.48500061035156 -61.02399826049805,84.927001953125 -80.4280014038086,85.27100372314453 C-93.08899688720703,85.49299621582031 -104.02899932861328,93.24700164794922 -110.01000213623047,104.68599700927734 C-113.86399841308594,115.13800048828125 -114.33599853515625,120.9530029296875 -110.89199829101562,130.88699340820312 C-100.64099884033203,154.5 -47.308998107910156,156.66700744628906 -44.60200119018555,124.32499694824219z"></path></g><g opacity="0.4" transform="matrix(1,0,0,1,0,0)"><path fill="rgb(144,243,253)" fill-opacity="1" d=" M-49.483001708984375,125.87899780273438 C-49.483001708984375,107.53099822998047 -63.22700119018555,92.9000015258789 -79.45600128173828,93.18800354003906 C-95.6969985961914,93.4729995727539 -109.3949966430664,108.60800170898438 -108.2699966430664,126.91000366210938 C-106.48300170898438,155.96800231933594 -49.483001708984375,153 -49.483001708984375,125.87899780273438z"></path></g><g opacity="0.4" transform="matrix(1,0,0,1,0,0)"><path fill="rgb(144,243,253)" fill-opacity="1" d=" M-79.64700317382812,100.51599884033203 C-92.86199951171875,100.74800109863281 -103.36299896240234,113.03600311279297 -103.10099792480469,127.96199798583984 C-102.83899688720703,142.88800048828125 -92.04499816894531,148.86700439453125 -78.83000183105469,148.63499450683594 C-65.61499786376953,148.4029998779297 -54.981998443603516,142.04600524902344 -55.24399948120117,127.12000274658203 C-55.50600051879883,112.19400024414062 -66.43199920654297,100.28399658203125 -79.64700317382812,100.51599884033203z"></path></g><g opacity="0.4" transform="matrix(1,0,0,1,0,0)"><path fill="rgb(144,243,253)" fill-opacity="1" d=" M-78.96299743652344,110.13099670410156 C-88.74400329589844,110.3030014038086 -96.51599884033203,119.39800262451172 -96.3219985961914,130.44500732421875 C-96.12799835205078,141.49200439453125 -88.17400360107422,144.3780059814453 -78.39299774169922,144.20599365234375 C-68.61199951171875,144.03399658203125 -60.707000732421875,140.8699951171875 -60.9010009765625,129.822998046875 C-61.095001220703125,118.7760009765625 -69.18199920654297,109.95899963378906 -78.96299743652344,110.13099670410156z"></path></g><g opacity="0.4" transform="matrix(1,0,0,1,0,0)"><path fill="rgb(144,243,253)" fill-opacity="1" d=" M-79.60399627685547,122.76499938964844 C-84.95700073242188,122.85900115966797 -89.20999908447266,127.83699798583984 -89.10399627685547,133.8820037841797 C-88.99800109863281,139.927001953125 -84.70500183105469,138.8209991455078 -79.35199737548828,138.7270050048828 C-73.9990005493164,138.63299560546875 -69.61399841308594,139.58599853515625 -69.72000122070312,133.54100036621094 C-69.82599639892578,127.49600219726562 -74.2509994506836,122.6709976196289 -79.60399627685547,122.76499938964844z"></path></g></g><g opacity="0.55" transform="matrix(1,0,0,1,0,0)"><path fill="rgb(255,255,255)" fill-opacity="1" d=" M-102.25,92.6969985961914 C-102.2040023803711,105.46700286865234 -90.81400299072266,115.78099822998047 -78.04399871826172,115.73500061035156 C-65.27400207519531,115.68900299072266 -53.959999084472656,105.30000305175781 -54.00600051879883,92.52999877929688 C-54.04499816894531,81.69300079345703 -71.50900268554688,35.41899871826172 -76.7959976196289,21.658000946044922 C-77.3219985961914,20.288000106811523 -79.25599670410156,20.29199981689453 -79.7760009765625,21.663999557495117 C-85.00599670410156,35.457000732421875 -102.28900146484375,81.85900115966797 -102.25,92.6969985961914z"></path></g><g opacity="1" transform="matrix(1,0,0,1,0,0)"><path stroke-linecap="round" stroke-linejoin="round" fill-opacity="0" stroke="rgb(0,109,196)" stroke-opacity="1" stroke-width="8" d=" M-118.7760009765625,108.8550033569336 C-118.7760009765625,131.33799743652344 -100.40299987792969,149.4969940185547 -77.9209976196289,149.41600036621094 C-55.43899917602539,149.3350067138672 -37.35900115966797,131.04400634765625 -37.35900115966797,108.56099700927734 C-37.35900115966797,82.50299835205078 -65.63600158691406,32.641998291015625 -75.2249984741211,16.483999252319336 C-76.65499877929688,14.074000358581543 -80.12699890136719,14.041000366210938 -81.5979995727539,16.426000595092773 C-91.18599700927734,31.972000122070312 -118.7760009765625,79.27400207519531 -118.7760009765625,108.8550033569336z"></path></g><g opacity="1" transform="matrix(1,0,0,1,0,0)"><g opacity="1" transform="matrix(1,0,0,1,0,0)"><path stroke-linecap="round" stroke-linejoin="round" fill-opacity="0" stroke="rgb(255,255,255)" stroke-opacity="1" stroke-width="6" d=" M-59.31700134277344,73.70800018310547 C-59.31700134277344,73.70800018310547 -58.933998107910156,74.85399627685547 -58.933998107910156,74.85399627685547"></path></g><g opacity="1" transform="matrix(1,0,0,1,0,0)"><path stroke-linecap="round" stroke-linejoin="round" fill-opacity="0" stroke="rgb(255,255,255)" stroke-opacity="1" stroke-width="6" d=" M-63.948001861572266,59.86000061035156 C-63.948001861572266,59.86000061035156 -62.007999420166016,65.66100311279297 -62.007999420166016,65.66100311279297"></path></g></g></g></g></svg>