<svg xmlns="http://www.w3.org/2000/svg" viewBox="0 0 512 512" width="512" height="512" style="width: 100%; height: 100%; transform: translate3d(0,0,0);" preserveAspectRatio="xMidYMid meet"><defs><clipPath id="__lottie_element_25766"><rect width="512" height="512" x="0" y="0"></rect></clipPath></defs><g clip-path="url(#__lottie_element_25766)"><g style="display: block;" transform="matrix(-1.0499999523162842,0,0,1.0499999523162842,475.5161437988281,58.5979118347168)" opacity="1"><g opacity="0.1" transform="matrix(1,0,0,1,208.875,223.875)"><path fill="rgb(0,0,0)" fill-opacity="1" d=" M196.0240020751953,0 C196.0240020751953,108.26200103759766 108.26100158691406,196.02499389648438 0,196.02499389648438 C-108.26200103759766,196.02499389648438 -196.02499389648438,108.26200103759766 -196.02499389648438,0 C-196.02499389648438,-108.26100158691406 -108.26200103759766,-196.0240020751953 0,-196.0240020751953 C108.26100158691406,-196.0240020751953 196.0240020751953,-108.26100158691406 196.0240020751953,0z"></path></g><g opacity="1" transform="matrix(1,0,0,1,208.87600708007812,208.875)"><path fill="rgb(255,176,57)" fill-opacity="1" d=" M188.87600708007812,0 C188.87600708007812,104.31300354003906 104.31199645996094,188.875 0,188.875 C-104.31300354003906,188.875 -188.87600708007812,104.31300354003906 -188.87600708007812,0 C-188.87600708007812,-104.31300354003906 -104.31300354003906,-188.875 0,-188.875 C104.31199645996094,-188.875 188.87600708007812,-104.31300354003906 188.87600708007812,0z"></path></g><g opacity="1" transform="matrix(1,0,0,1,208.87600708007812,208.875)"><path stroke-linecap="butt" stroke-linejoin="miter" fill-opacity="0" stroke-miterlimit="10" stroke="rgb(247,125,65)" stroke-opacity="1" stroke-width="8" d=" M188.87600708007812,0 C188.87600708007812,104.31300354003906 104.31199645996094,188.875 0,188.875 C-104.31300354003906,188.875 -188.87600708007812,104.31300354003906 -188.87600708007812,0 C-188.87600708007812,-104.31300354003906 -104.31300354003906,-188.875 0,-188.875 C104.31199645996094,-188.875 188.87600708007812,-104.31300354003906 188.87600708007812,0z"></path></g><g opacity="1" transform="matrix(1,0,0,1,208.93099975585938,207.0070037841797)"><path fill="rgb(255,209,64)" fill-opacity="1" d=" M168.3509979248047,2.5810000896453857 C166.89500427246094,97.60900115966797 90.33999633789062,173.49000549316406 -2.638000011444092,172.06500244140625 C-95.61499786376953,170.63900756835938 -169.80799865722656,92.4489974975586 -168.3520050048828,-2.5799999237060547 C-166.89500427246094,-97.60800170898438 -90.34100341796875,-173.48899841308594 2.63700008392334,-172.06399536132812 C95.61499786376953,-170.63900756835938 169.80799865722656,-92.447998046875 168.3509979248047,2.5810000896453857z"></path></g><g opacity="1" transform="matrix(1,0,0,1,208.875,119.05599975585938)"><path fill="rgb(255,223,121)" fill-opacity="1" d=" M149.26800537109375,47.38999938964844 C149.26800537109375,120.03299713134766 82.43900299072266,62.569000244140625 0.0010000000474974513,62.569000244140625 C-82.43800354003906,62.569000244140625 -149.26699829101562,120.03299713134766 -149.26699829101562,47.38999938964844 C-149.26699829101562,-25.253999710083008 -82.43800354003906,-84.14199829101562 0.0010000000474974513,-84.14199829101562 C82.43900299072266,-84.14199829101562 149.26800537109375,-25.253999710083008 149.26800537109375,47.38999938964844z"></path></g><g opacity="1" transform="matrix(-0.9999451637268066,-0.010471784509718418,-0.010471784509718418,0.9999451637268066,409.6622314453125,4.514789581298828)"><g opacity="1" transform="matrix(1,0,0,1,238.69000244140625,39.6879997253418)"><path stroke-linecap="round" stroke-linejoin="round" fill-opacity="0" stroke="rgb(255,255,255)" stroke-opacity="1" stroke-width="6" d=" M-2.388000011444092,-0.5550000071525574 C-0.8500000238418579,-0.2199999988079071 0.7440000176429749,0.15000000596046448 2.388000011444092,0.5550000071525574"></path></g><g opacity="1" transform="matrix(1,0,0,1,221.24200439453125,36.68299865722656)"><path stroke-linecap="round" stroke-linejoin="round" fill-opacity="0" stroke="rgb(255,255,255)" stroke-opacity="1" stroke-width="6" d=" M-6.295000076293945,-0.7689999938011169 C-6.295000076293945,-0.7689999938011169 -1.4279999732971191,-0.5090000033378601 6.295000076293945,0.7689999938011169"></path></g></g></g><g style="display: block;" transform="matrix(-1.0499988794326782,0,0,1.0499988794326782,337.7549133300781,284.1837158203125)" opacity="1"><g opacity="1" transform="matrix(1,0,0,1,0,0)"><g opacity="1" transform="matrix(1,0,0,1,21.75,35.25)"><path fill="rgb(255,225,166)" fill-opacity="1" d=" M-21.5,0 C-21.5,19.329999923706055 -11.87399959564209,35 0,35 C11.87399959564209,35 21.5,19.329999923706055 21.5,0 C21.5,-19.329999923706055 11.87399959564209,-35 0,-35 C-11.87399959564209,-35 -21.5,-19.329999923706055 -21.5,0z"></path></g><g opacity="1" transform="matrix(1,0,0,1,21.75,31.64699935913086)"><path fill="rgb(255,176,57)" fill-opacity="1" d=" M-21.5,0 C-21.5,17.34000015258789 -11.87399959564209,31.395999908447266 0,31.395999908447266 C11.87399959564209,31.395999908447266 21.5,17.34000015258789 21.5,0 C21.5,-17.340999603271484 11.87399959564209,-31.395999908447266 0,-31.395999908447266 C-11.87399959564209,-31.395999908447266 -21.5,-17.340999603271484 -21.5,0z"></path></g><g opacity="1" transform="matrix(1,0,0,1,21.75,35.09600067138672)"><path fill="rgb(133,62,19)" fill-opacity="1" d=" M-19.76799964904785,0 C-19.76799964904785,16.340999603271484 -10.916999816894531,29.58799934387207 0.0010000000474974513,29.58799934387207 C10.918999671936035,29.58799934387207 19.76799964904785,16.340999603271484 19.76799964904785,0 C19.76799964904785,-16.340999603271484 10.918999671936035,-29.58799934387207 0.0010000000474974513,-29.58799934387207 C-10.916999816894531,-29.58799934387207 -19.76799964904785,-16.340999603271484 -19.76799964904785,0z"></path></g><g opacity="1" transform="matrix(1,0,0,1,21.75,22.219999313354492)"><path fill="rgb(107,31,0)" fill-opacity="1" d=" M-19.770999908447266,12.880000114440918 C-19.770999908447266,14.178999900817871 -19.716999053955078,15.456000328063965 -19.599000930786133,16.711999893188477 C-18.35099983215332,2.174999952316284 -10.04800033569336,-9.059000015258789 0,-9.059000015258789 C10.04800033569336,-9.059000015258789 18.35099983215332,2.174999952316284 19.599000930786133,16.711999893188477 C19.716999053955078,15.456000328063965 19.770999908447266,14.178999900817871 19.770999908447266,12.880000114440918 C19.770999908447266,-3.4649999141693115 10.916999816894531,-16.711999893188477 0,-16.711999893188477 C-10.916999816894531,-16.711999893188477 -19.770999908447266,-3.4649999141693115 -19.770999908447266,12.880000114440918z"></path></g></g><g opacity="1" transform="matrix(1,0,0,1,0,0)"><g opacity="1" transform="matrix(1,0,0,1,136.23500061035156,35.25)"><path fill="rgb(255,225,166)" fill-opacity="1" d=" M-21.5,0 C-21.5,19.329999923706055 -11.87399959564209,35 0,35 C11.875,35 21.5,19.329999923706055 21.5,0 C21.5,-19.329999923706055 11.875,-35 0,-35 C-11.87399959564209,-35 -21.5,-19.329999923706055 -21.5,0z"></path></g><g opacity="1" transform="matrix(1,0,0,1,136.23500061035156,31.64699935913086)"><path fill="rgb(255,176,57)" fill-opacity="1" d=" M-21.5,0 C-21.5,17.34000015258789 -11.87399959564209,31.395999908447266 0,31.395999908447266 C11.875,31.395999908447266 21.5,17.34000015258789 21.5,0 C21.5,-17.340999603271484 11.875,-31.395999908447266 0,-31.395999908447266 C-11.87399959564209,-31.395999908447266 -21.5,-17.340999603271484 -21.5,0z"></path></g><g opacity="1" transform="matrix(1,0,0,1,136.23599243164062,35.09600067138672)"><path fill="rgb(133,62,19)" fill-opacity="1" d=" M-19.768999099731445,0 C-19.768999099731445,16.340999603271484 -10.918000221252441,29.58799934387207 0,29.58799934387207 C10.918000221252441,29.58799934387207 19.768999099731445,16.340999603271484 19.768999099731445,0 C19.768999099731445,-16.340999603271484 10.918000221252441,-29.58799934387207 0,-29.58799934387207 C-10.918000221252441,-29.58799934387207 -19.768999099731445,-16.340999603271484 -19.768999099731445,0z"></path></g><g opacity="1" transform="matrix(1,0,0,1,136.23599243164062,22.219999313354492)"><path fill="rgb(107,31,0)" fill-opacity="1" d=" M-19.770999908447266,12.880000114440918 C-19.770999908447266,14.178999900817871 -19.716999053955078,15.456000328063965 -19.599000930786133,16.711999893188477 C-18.35099983215332,2.174999952316284 -10.04800033569336,-9.059000015258789 0,-9.059000015258789 C10.04800033569336,-9.059000015258789 18.35099983215332,2.174999952316284 19.599000930786133,16.711999893188477 C19.716999053955078,15.456000328063965 19.770999908447266,14.178999900817871 19.770999908447266,12.880000114440918 C19.770999908447266,-3.4649999141693115 10.916000366210938,-16.711999893188477 0,-16.711999893188477 C-10.916999816894531,-16.711999893188477 -19.770999908447266,-3.4649999141693115 -19.770999908447266,12.880000114440918z"></path></g></g></g><g style="display: block;" transform="matrix(-1.0499988794326782,0,0,1.0499988794326782,340.3755187988281,175.87060546875)" opacity="1"><g opacity="1" transform="matrix(1,0,0,1,80.94599914550781,26.40999984741211)"><path fill="rgb(255,225,166)" fill-opacity="1" d=" M-74.5199966430664,18.31800079345703 C-51.23699951171875,5.0289998054504395 -32.737998962402344,-4.8420000076293945 -0.11500000208616257,-4.956999778747559 C32.50699996948242,-4.8420000076293945 51.00600051879883,5.0289998054504395 74.29000091552734,18.31800079345703 C75.76699829101562,19.165000915527344 80.6969985961914,17.94499969482422 79.09400177001953,13.505000114440918 C76.28800201416016,5.728000164031982 49.39799880981445,-18.89900016784668 -0.11500000208616257,-19.165000915527344 C-49.62799835205078,-18.89900016784668 -76.9219970703125,5.901000022888184 -79.3499984741211,13.77299976348877 C-80.69599914550781,18.138999938964844 -75.99800109863281,19.165000915527344 -74.5199966430664,18.31800079345703z"></path></g><g opacity="1" transform="matrix(1,0,0,1,80.83100128173828,21.222999572753906)"><path fill="rgb(255,176,57)" fill-opacity="1" d=" M-74.7040023803711,20.493999481201172 C-51.28900146484375,5.007999897003174 -33.38600158691406,-5.560999870300293 0,-5.690999984741211 C33.38600158691406,-5.560999870300293 51.5890007019043,5.050000190734863 74.96099853515625,20.583999633789062 C77.44300079345703,22.233999252319336 79.79900360107422,20.39299964904785 79.12699890136719,18.35700035095215 C76.22100067138672,9.583000183105469 50.67100143432617,-20.92300033569336 0,-21.222999572753906 C-50.67100143432617,-20.92300033569336 -76.22100067138672,9.583000183105469 -79.12699890136719,18.35700035095215 C-79.79900360107422,20.39299964904785 -77.44200134277344,22.305999755859375 -74.7040023803711,20.493999481201172z"></path></g><g opacity="1" transform="matrix(1,0,0,1,80.83100128173828,23.613000869750977)"><path fill="rgb(133,62,19)" fill-opacity="1" d=" M-74.40499877929688,17.958999633789062 C-51.12200164794922,4.670000076293945 -32.62300109863281,-5.919000148773193 0,-6.033999919891357 C32.62200164794922,-5.919000148773193 51.12099838256836,4.670000076293945 74.40499877929688,17.958999633789062 C75.88200378417969,18.805999755859375 77.9749984741211,18.038000106811523 77.31800079345703,16.236000061035156 C74.47899627685547,8.468000411987305 49.51300048828125,-18.540000915527344 0,-18.805999755859375 C-49.51300048828125,-18.540000915527344 -74.47899627685547,8.468000411987305 -77.31900024414062,16.236000061035156 C-77.9749984741211,18.038000106811523 -75.88300323486328,18.805999755859375 -74.40499877929688,17.958999633789062z"></path></g><g opacity="1" transform="matrix(1,0,0,1,80.83200073242188,27.527999877929688)"><path fill="rgb(98,36,11)" fill-opacity="1" d=" M-77.31600189208984,12.322999954223633 C-77.14099884033203,11.855999946594238 -76.89199829101562,11.317999839782715 -76.55899810791016,10.71500015258789 C-75.94300079345703,10.972999572753906 -75.10199737548828,10.218999862670898 -74.40299987792969,9.817000389099121 C-51.124000549316406,-3.4709999561309814 -32.624000549316406,-14.779000282287598 -0.003000000026077032,-14.892999649047852 C32.625,-14.779000282287598 51.11600112915039,-3.4709999561309814 74.40299987792969,9.817000389099121 C75.10199737548828,10.218999862670898 75.94300079345703,10.972999572753906 76.55899810791016,10.708000183105469 C76.89199829101562,11.310999870300293 77.14199829101562,11.848999977111816 77.31700134277344,12.322999954223633 C77.9739990234375,14.125 75.8759994506836,14.892999649047852 74.40299987792969,14.045999526977539 C51.11600112915039,0.7570000290870667 32.625,-9.831999778747559 -0.003000000026077032,-9.946999549865723 C-32.624000549316406,-9.831999778747559 -51.124000549316406,0.7570000290870667 -74.40299987792969,14.045999526977539 C-75.88500213623047,14.892999649047852 -77.9739990234375,14.125 -77.31600189208984,12.322999954223633z"></path></g></g></g></svg>