<svg xmlns="http://www.w3.org/2000/svg" viewBox="0 0 512 512" width="512" height="512" style="width: 100%; height: 100%; transform: translate3d(0,0,0);" preserveAspectRatio="xMidYMid meet"><defs><clipPath id="__lottie_element_25781"><rect width="512" height="512" x="0" y="0"></rect></clipPath><linearGradient id="__lottie_element_25790" spreadMethod="pad" gradientUnits="userSpaceOnUse" x1="-179" y1="87" x2="-93.41300201416016" y2="87"><stop offset="61%" stop-color="rgb(240,240,240)"></stop><stop offset="86%" stop-color="rgb(228,228,228)"></stop><stop offset="95%" stop-color="rgb(217,217,217)"></stop></linearGradient><linearGradient id="__lottie_element_25791" spreadMethod="pad" gradientUnits="userSpaceOnUse" x1="-163" y1="4" x2="-90.24099731445312" y2="42.071998596191406"><stop offset="61%" stop-color="rgb(240,240,240)"></stop><stop offset="86%" stop-color="rgb(228,228,228)"></stop><stop offset="95%" stop-color="rgb(217,217,217)"></stop></linearGradient><linearGradient id="__lottie_element_25792" spreadMethod="pad" gradientUnits="userSpaceOnUse" x1="-179" y1="87" x2="-93.41300201416016" y2="87"><stop offset="61%" stop-color="rgb(240,240,240)"></stop><stop offset="86%" stop-color="rgb(228,228,228)"></stop><stop offset="95%" stop-color="rgb(217,217,217)"></stop></linearGradient><linearGradient id="__lottie_element_25793" spreadMethod="pad" gradientUnits="userSpaceOnUse" x1="-163" y1="4" x2="-90.24099731445312" y2="42.071998596191406"><stop offset="61%" stop-color="rgb(240,240,240)"></stop><stop offset="86%" stop-color="rgb(228,228,228)"></stop><stop offset="95%" stop-color="rgb(217,217,217)"></stop></linearGradient><linearGradient id="__lottie_element_25794" spreadMethod="pad" gradientUnits="userSpaceOnUse" x1="0" y1="44" x2="0" y2="153.91700744628906"><stop offset="27%" stop-color="rgb(240,240,240)"></stop><stop offset="90%" stop-color="rgb(221,221,221)"></stop><stop offset="100%" stop-color="rgb(201,201,201)"></stop></linearGradient></defs><g clip-path="url(#__lottie_element_25781)"><g style="display: block;" transform="matrix(1.0700000524520874,0,0,1.0700000524520874,256,237.99998474121094)" opacity="1"><g opacity="0.1" transform="matrix(1,0,0,1,0,0)"><path fill="rgb(0,0,0)" fill-opacity="1" d=" M195.92300415039062,11.781999588012695 C195.92300415039062,120.04299926757812 108.16000366210938,207.80599975585938 -0.10100000351667404,207.80599975585938 C-108.36199951171875,207.80599975585938 -196.12600708007812,120.04299926757812 -196.12600708007812,11.781999588012695 C-196.12600708007812,-96.47899627685547 -108.36199951171875,-184.2429962158203 -0.10100000351667404,-184.2429962158203 C108.16000366210938,-184.2429962158203 195.92300415039062,-96.47899627685547 195.92300415039062,11.781999588012695z"></path></g><g opacity="1" transform="matrix(1,0,0,1,0,0)"><path fill="rgb(255,177,57)" fill-opacity="1" d=" M188.7740020751953,-3.2179999351501465 C188.7740020751953,101.09500122070312 104.21199798583984,185.65699768066406 -0.10100000351667404,185.65699768066406 C-104.41400146484375,185.65699768066406 -188.9770050048828,101.09500122070312 -188.9770050048828,-3.2179999351501465 C-188.9770050048828,-107.53099822998047 -104.41400146484375,-192.093994140625 -0.10100000351667404,-192.093994140625 C104.21199798583984,-192.093994140625 188.7740020751953,-107.53099822998047 188.7740020751953,-3.2179999351501465z"></path><path stroke-linecap="butt" stroke-linejoin="miter" fill-opacity="0" stroke-miterlimit="10" stroke="rgb(247,126,65)" stroke-opacity="1" stroke-width="8" d=" M188.7740020751953,-3.2179999351501465 C188.7740020751953,101.09500122070312 104.21199798583984,185.65699768066406 -0.10100000351667404,185.65699768066406 C-104.41400146484375,185.65699768066406 -188.9770050048828,101.09500122070312 -188.9770050048828,-3.2179999351501465 C-188.9770050048828,-107.53099822998047 -104.41400146484375,-192.093994140625 -0.10100000351667404,-192.093994140625 C104.21199798583984,-192.093994140625 188.7740020751953,-107.53099822998047 188.7740020751953,-3.2179999351501465z"></path></g><g opacity="1" transform="matrix(1,0,0,1,0,0)"><path fill="rgb(255,209,64)" fill-opacity="1" d=" M168.30599975585938,-2.50600004196167 C166.8489990234375,92.52200317382812 90.29499816894531,168.4029998779297 -2.683000087738037,166.97799682617188 C-95.66100311279297,165.55299377441406 -169.85299682617188,87.36199951171875 -168.39700317382812,-7.666999816894531 C-166.94000244140625,-102.69599914550781 -90.38600158691406,-178.5749969482422 2.5920000076293945,-177.14999389648438 C95.56999969482422,-175.72500610351562 169.76300048828125,-97.53500366210938 168.30599975585938,-2.50600004196167z"></path></g><g opacity="0.9" transform="matrix(1,0,0,1,0,0)"><path fill="rgb(255,223,121)" fill-opacity="1" d=" M149.16600036621094,-45.64699935913086 C149.16600036621094,26.996000289916992 82.33699798583984,-30.468000411987305 -0.10100000351667404,-30.468000411987305 C-82.53900146484375,-30.468000411987305 -149.36900329589844,26.996000289916992 -149.36900329589844,-45.64699935913086 C-149.36900329589844,-118.29000091552734 -82.53900146484375,-177.1790008544922 -0.10100000351667404,-177.1790008544922 C82.33699798583984,-177.1790008544922 149.16600036621094,-118.29000091552734 149.16600036621094,-45.64699935913086z"></path></g><g opacity="1" transform="matrix(1,0,0,1,0,0)"><g opacity="1" transform="matrix(1,0,0,1,0,0)"><path stroke-linecap="round" stroke-linejoin="round" fill-opacity="0" stroke="rgb(255,255,255)" stroke-opacity="1" stroke-width="6" d=" M36.270999908447266,-172.9600067138672 C37.808998107910156,-172.625 39.40399932861328,-172.2550048828125 41.04899978637695,-171.8489990234375"></path></g><g opacity="1" transform="matrix(1,0,0,1,0,0)"><path stroke-linecap="round" stroke-linejoin="round" fill-opacity="0" stroke="rgb(255,255,255)" stroke-opacity="1" stroke-width="6" d=" M14.916999816894531,-176.1790008544922 C14.916999816894531,-176.1790008544922 19.784000396728516,-175.91900634765625 27.506999969482422,-174.64100646972656"></path></g></g></g><g style="display: block;" transform="matrix(1.0700000524520874,0,0,1.0700000524520874,256,237.99998474121094)" opacity="1"><g opacity="1" transform="matrix(1,0,0,1,0,0)"><path fill="rgb(255,177,57)" fill-opacity="1" d=" M103.12200164794922,138.73199462890625 C103.12200164794922,144.0989990234375 99.19200134277344,148.72999572753906 93.70899963378906,149.79800415039062 C78.10399627685547,152.83900451660156 44.16699981689453,158.24099731445312 0,158.24099731445312 C-46.150001525878906,158.24099731445312 -78.75599670410156,152.96499633789062 -93.78299713134766,149.906005859375 C-99.22799682617188,148.7969970703125 -103.12200164794922,144.19500732421875 -103.12200164794922,138.85499572753906 C-103.12200164794922,138.85499572753906 -103.12200164794922,28.628999710083008 -103.12200164794922,28.628999710083008 C-103.12200164794922,22.006000518798828 -97.21399688720703,16.801000595092773 -90.33599853515625,17.375 C-72.1500015258789,18.89299964904785 -36.902000427246094,21.363000869750977 0,21.363000869750977 C39.27799987792969,21.363000869750977 72.8290023803711,18.98200035095215 90.27400207519531,17.45800018310547 C97.1729965209961,16.856000900268555 103.12200164794922,22.059999465942383 103.12200164794922,28.70599937438965 C103.12200164794922,28.70599937438965 103.12200164794922,138.73199462890625 103.12200164794922,138.73199462890625z"></path></g></g><g style="display: block;" transform="matrix(1.0000007152557373,0,0,1.0000007152557373,-67.74992370605469,420.00042724609375)" opacity="1"><g opacity="1" transform="matrix(1,0,0,1,0,0)"><g opacity="0.04" transform="matrix(1,0,0,1,0,0)"><path fill="rgb(226,6,19)" fill-opacity="1" d=" M255.88499450683594,-139.6230010986328 C255.88499450683594,-110.13099670410156 231.9770050048828,-86.2229995727539 202.48500061035156,-86.2229995727539 C172.9929962158203,-86.2229995727539 149.0850067138672,-110.13099670410156 149.0850067138672,-139.6230010986328 C149.0850067138672,-169.11500549316406 172.9929962158203,-193.0229949951172 202.48500061035156,-193.0229949951172 C231.9770050048828,-193.0229949951172 255.88499450683594,-169.11500549316406 255.88499450683594,-139.6230010986328z"></path></g><g opacity="0.04" transform="matrix(1,0,0,1,0,0)"><path fill="rgb(226,6,19)" fill-opacity="1" d=" M251.3719940185547,-139.6230010986328 C251.3719940185547,-112.6240005493164 229.48399353027344,-90.73600006103516 202.48500061035156,-90.73600006103516 C175.48500061035156,-90.73600006103516 153.59800720214844,-112.6240005493164 153.59800720214844,-139.6230010986328 C153.59800720214844,-166.6230010986328 175.48500061035156,-188.50999450683594 202.48500061035156,-188.50999450683594 C229.48399353027344,-188.50999450683594 251.3719940185547,-166.6230010986328 251.3719940185547,-139.6230010986328z"></path></g><g opacity="0.04" transform="matrix(1,0,0,1,0,0)"><path fill="rgb(226,6,19)" fill-opacity="1" d=" M246.91000366210938,-139.6230010986328 C246.91000366210938,-115.08699798583984 227.02099609375,-95.1969985961914 202.48500061035156,-95.1969985961914 C177.94900512695312,-95.1969985961914 158.0590057373047,-115.08699798583984 158.0590057373047,-139.6230010986328 C158.0590057373047,-164.15899658203125 177.94900512695312,-184.04800415039062 202.48500061035156,-184.04800415039062 C227.02099609375,-184.04800415039062 246.91000366210938,-164.15899658203125 246.91000366210938,-139.6230010986328z"></path></g><g opacity="0.04" transform="matrix(1,0,0,1,0,0)"><path fill="rgb(226,6,19)" fill-opacity="1" d=" M242.1580047607422,-139.6230010986328 C242.1580047607422,-117.71199798583984 224.39599609375,-99.9489974975586 202.48500061035156,-99.9489974975586 C180.57400512695312,-99.9489974975586 162.81100463867188,-117.71199798583984 162.81100463867188,-139.6230010986328 C162.81100463867188,-161.53399658203125 180.57400512695312,-179.29600524902344 202.48500061035156,-179.29600524902344 C224.39599609375,-179.29600524902344 242.1580047607422,-161.53399658203125 242.1580047607422,-139.6230010986328z"></path></g><g opacity="0.04" transform="matrix(1,0,0,1,0,0)"><path fill="rgb(226,6,19)" fill-opacity="1" d=" M237.53199768066406,-139.6230010986328 C237.53199768066406,-120.26699829101562 221.84100341796875,-104.57599639892578 202.48500061035156,-104.57599639892578 C183.12899780273438,-104.57599639892578 167.43800354003906,-120.26699829101562 167.43800354003906,-139.6230010986328 C167.43800354003906,-158.97900390625 183.12899780273438,-174.66900634765625 202.48500061035156,-174.66900634765625 C221.84100341796875,-174.66900634765625 237.53199768066406,-158.97900390625 237.53199768066406,-139.6230010986328z"></path></g><g opacity="0.04" transform="matrix(1,0,0,1,0,0)"><path fill="rgb(226,6,19)" fill-opacity="1" d=" M232.7790069580078,-139.6230010986328 C232.7790069580078,-122.89199829101562 219.21600341796875,-109.3280029296875 202.48500061035156,-109.3280029296875 C185.75399780273438,-109.3280029296875 172.19000244140625,-122.89199829101562 172.19000244140625,-139.6230010986328 C172.19000244140625,-156.35400390625 185.75399780273438,-169.91700744628906 202.48500061035156,-169.91700744628906 C219.21600341796875,-169.91700744628906 232.7790069580078,-156.35400390625 232.7790069580078,-139.6230010986328z"></path></g><g opacity="0.04" transform="matrix(1,0,0,1,0,0)"><path fill="rgb(226,6,19)" fill-opacity="1" d=" M227.81300354003906,-139.6230010986328 C227.81300354003906,-125.63500213623047 216.47300720214844,-114.29399871826172 202.48500061035156,-114.29399871826172 C188.4969940185547,-114.29399871826172 177.156005859375,-125.63500213623047 177.156005859375,-139.6230010986328 C177.156005859375,-153.61099243164062 188.4969940185547,-164.9510040283203 202.48500061035156,-164.9510040283203 C216.47300720214844,-164.9510040283203 227.81300354003906,-153.61099243164062 227.81300354003906,-139.6230010986328z"></path></g><g opacity="0.04" transform="matrix(1,0,0,1,0,0)"><path fill="rgb(226,6,19)" fill-opacity="1" d=" M222.26499938964844,-139.6230010986328 C222.26499938964844,-128.69900512695312 213.40899658203125,-119.84300231933594 202.48500061035156,-119.84300231933594 C191.56100463867188,-119.84300231933594 182.7050018310547,-128.69900512695312 182.7050018310547,-139.6230010986328 C182.7050018310547,-150.5469970703125 191.56100463867188,-159.4029998779297 202.48500061035156,-159.4029998779297 C213.40899658203125,-159.4029998779297 222.26499938964844,-150.5469970703125 222.26499938964844,-139.6230010986328z"></path></g><g opacity="0.04" transform="matrix(1,0,0,1,0,0)"><path fill="rgb(226,6,19)" fill-opacity="1" d=" M215.86700439453125,-139.6230010986328 C215.86700439453125,-132.23199462890625 209.87600708007812,-126.23999786376953 202.48500061035156,-126.23999786376953 C195.093994140625,-126.23999786376953 189.1020050048828,-132.23199462890625 189.1020050048828,-139.6230010986328 C189.1020050048828,-147.01400756835938 195.093994140625,-153.0050048828125 202.48500061035156,-153.0050048828125 C209.87600708007812,-153.0050048828125 215.86700439453125,-147.01400756835938 215.86700439453125,-139.6230010986328z"></path></g><g opacity="0.04" transform="matrix(1,0,0,1,0,0)"><path fill="rgb(226,6,19)" fill-opacity="1" d=" M209.93299865722656,-139.6230010986328 C209.93299865722656,-135.50900268554688 206.5989990234375,-132.1739959716797 202.48500061035156,-132.1739959716797 C198.37100219726562,-132.1739959716797 195.03599548339844,-135.50900268554688 195.03599548339844,-139.6230010986328 C195.03599548339844,-143.73699951171875 198.37100219726562,-147.0709991455078 202.48500061035156,-147.0709991455078 C206.5989990234375,-147.0709991455078 209.93299865722656,-143.73699951171875 209.93299865722656,-139.6230010986328z"></path></g></g><g opacity="1" transform="matrix(1,0,0,1,0,0)"><g opacity="0.04" transform="matrix(1,0,0,1,0,0)"><path fill="rgb(226,6,19)" fill-opacity="1" d=" M501.0840148925781,-139.6230010986328 C501.0840148925781,-110.13099670410156 477.1759948730469,-86.2229995727539 447.6839904785156,-86.2229995727539 C418.1919860839844,-86.2229995727539 394.28399658203125,-110.13099670410156 394.28399658203125,-139.6230010986328 C394.28399658203125,-169.11500549316406 418.1919860839844,-193.0229949951172 447.6839904785156,-193.0229949951172 C477.1759948730469,-193.0229949951172 501.0840148925781,-169.11500549316406 501.0840148925781,-139.6230010986328z"></path></g><g opacity="0.04" transform="matrix(1,0,0,1,0,0)"><path fill="rgb(226,6,19)" fill-opacity="1" d=" M496.5710144042969,-139.6230010986328 C496.5710144042969,-112.6240005493164 474.6839904785156,-90.73600006103516 447.6839904785156,-90.73600006103516 C420.6839904785156,-90.73600006103516 398.7969970703125,-112.6240005493164 398.7969970703125,-139.6230010986328 C398.7969970703125,-166.6230010986328 420.6839904785156,-188.50999450683594 447.6839904785156,-188.50999450683594 C474.6839904785156,-188.50999450683594 496.5710144042969,-166.6230010986328 496.5710144042969,-139.6230010986328z"></path></g><g opacity="0.04" transform="matrix(1,0,0,1,0,0)"><path fill="rgb(226,6,19)" fill-opacity="1" d=" M492.1099853515625,-139.6230010986328 C492.1099853515625,-115.08699798583984 472.2200012207031,-95.1969985961914 447.6839904785156,-95.1969985961914 C423.14801025390625,-95.1969985961914 403.25799560546875,-115.08699798583984 403.25799560546875,-139.6230010986328 C403.25799560546875,-164.15899658203125 423.14801025390625,-184.04800415039062 447.6839904785156,-184.04800415039062 C472.2200012207031,-184.04800415039062 492.1099853515625,-164.15899658203125 492.1099853515625,-139.6230010986328z"></path></g><g opacity="0.04" transform="matrix(1,0,0,1,0,0)"><path fill="rgb(226,6,19)" fill-opacity="1" d=" M487.3580017089844,-139.6230010986328 C487.3580017089844,-117.71199798583984 469.5950012207031,-99.9489974975586 447.6839904785156,-99.9489974975586 C425.77301025390625,-99.9489974975586 408.010986328125,-117.71199798583984 408.010986328125,-139.6230010986328 C408.010986328125,-161.53399658203125 425.77301025390625,-179.29600524902344 447.6839904785156,-179.29600524902344 C469.5950012207031,-179.29600524902344 487.3580017089844,-161.53399658203125 487.3580017089844,-139.6230010986328z"></path></g><g opacity="0.04" transform="matrix(1,0,0,1,0,0)"><path fill="rgb(226,6,19)" fill-opacity="1" d=" M482.7309875488281,-139.6230010986328 C482.7309875488281,-120.26699829101562 467.0400085449219,-104.57599639892578 447.6839904785156,-104.57599639892578 C428.3280029296875,-104.57599639892578 412.6369934082031,-120.26699829101562 412.6369934082031,-139.6230010986328 C412.6369934082031,-158.97900390625 428.3280029296875,-174.66900634765625 447.6839904785156,-174.66900634765625 C467.0400085449219,-174.66900634765625 482.7309875488281,-158.97900390625 482.7309875488281,-139.6230010986328z"></path></g><g opacity="0.04" transform="matrix(1,0,0,1,0,0)"><path fill="rgb(226,6,19)" fill-opacity="1" d=" M477.97900390625,-139.6230010986328 C477.97900390625,-122.89199829101562 464.4150085449219,-109.3280029296875 447.6839904785156,-109.3280029296875 C430.9530029296875,-109.3280029296875 417.3900146484375,-122.89199829101562 417.3900146484375,-139.6230010986328 C417.3900146484375,-156.35400390625 430.9530029296875,-169.91700744628906 447.6839904785156,-169.91700744628906 C464.4150085449219,-169.91700744628906 477.97900390625,-156.35400390625 477.97900390625,-139.6230010986328z"></path></g><g opacity="0.04" transform="matrix(1,0,0,1,0,0)"><path fill="rgb(226,6,19)" fill-opacity="1" d=" M473.01300048828125,-139.6230010986328 C473.01300048828125,-125.63500213623047 461.6719970703125,-114.29399871826172 447.6839904785156,-114.29399871826172 C433.6960144042969,-114.29399871826172 422.3559875488281,-125.63500213623047 422.3559875488281,-139.6230010986328 C422.3559875488281,-153.61099243164062 433.6960144042969,-164.9510040283203 447.6839904785156,-164.9510040283203 C461.6719970703125,-164.9510040283203 473.01300048828125,-153.61099243164062 473.01300048828125,-139.6230010986328z"></path></g><g opacity="0.04" transform="matrix(1,0,0,1,0,0)"><path fill="rgb(226,6,19)" fill-opacity="1" d=" M467.4639892578125,-139.6230010986328 C467.4639892578125,-128.69900512695312 458.6080017089844,-119.84300231933594 447.6839904785156,-119.84300231933594 C436.760009765625,-119.84300231933594 427.90399169921875,-128.69900512695312 427.90399169921875,-139.6230010986328 C427.90399169921875,-150.5469970703125 436.760009765625,-159.4029998779297 447.6839904785156,-159.4029998779297 C458.6080017089844,-159.4029998779297 467.4639892578125,-150.5469970703125 467.4639892578125,-139.6230010986328z"></path></g><g opacity="0.04" transform="matrix(1,0,0,1,0,0)"><path fill="rgb(226,6,19)" fill-opacity="1" d=" M461.0669860839844,-139.6230010986328 C461.0669860839844,-132.23199462890625 455.07501220703125,-126.23999786376953 447.6839904785156,-126.23999786376953 C440.2929992675781,-126.23999786376953 434.302001953125,-132.23199462890625 434.302001953125,-139.6230010986328 C434.302001953125,-147.01400756835938 440.2929992675781,-153.0050048828125 447.6839904785156,-153.0050048828125 C455.07501220703125,-153.0050048828125 461.0669860839844,-147.01400756835938 461.0669860839844,-139.6230010986328z"></path></g><g opacity="0.04" transform="matrix(1,0,0,1,0,0)"><path fill="rgb(226,6,19)" fill-opacity="1" d=" M455.13299560546875,-139.6230010986328 C455.13299560546875,-135.50900268554688 451.7980041503906,-132.1739959716797 447.6839904785156,-132.1739959716797 C443.57000732421875,-132.1739959716797 440.2359924316406,-135.50900268554688 440.2359924316406,-139.6230010986328 C440.2359924316406,-143.73699951171875 443.57000732421875,-147.0709991455078 447.6839904785156,-147.0709991455078 C451.7980041503906,-147.0709991455078 455.13299560546875,-143.73699951171875 455.13299560546875,-139.6230010986328z"></path></g></g></g><g style="display: block;" transform="matrix(1.0700000524520874,0,0,1.0700000524520874,250.5825958251953,234.73434448242188)" opacity="1"><g opacity="1" transform="matrix(1,0,0,1,0,0)"><path fill="rgb(255,226,166)" fill-opacity="1" d=" M96.96900177001953,-4.703000068664551 C86.84200286865234,-13.979000091552734 66.43499755859375,-21.829999923706055 45.71200180053711,-17.95599937438965 C20.195999145507812,-13.185999870300293 22.996999740600586,8.456000328063965 33.92100143432617,11.699999809265137 C46.04100036621094,15.298999786376953 56.95399856567383,3.4800000190734863 83.01699829101562,13.395000457763672 C102.48600006103516,20.802000045776367 107.39399719238281,4.8460001945495605 96.96900177001953,-4.703000068664551z"></path></g><g opacity="1" transform="matrix(1,0,0,1,0,0)"><path fill="rgb(134,63,20)" fill-opacity="1" d=" M95.71700286865234,-6.943999767303467 C85.5510025024414,-15.657999992370605 67.43199920654297,-22.00200080871582 46.733001708984375,-18.476999282836914 C21.24799919128418,-14.13700008392334 24.714000701904297,3.6570000648498535 33.95199966430664,6.260000228881836 C46.084999084472656,9.678000450134277 56.939998626708984,-1.315999984741211 83.04000091552734,8.069999694824219 C102.53700256347656,15.081000328063965 106.18299865722656,2.0269999504089355 95.71700286865234,-6.943999767303467z"></path></g><g opacity="1" transform="matrix(1,0,0,1,0,0)"><path fill="rgb(107,32,0)" fill-opacity="1" d=" M100.8219985961914,6.159999847412109 C99.97200012207031,3.8399999141693115 98.26200103759766,1.409999966621399 95.72200012207031,-0.7699999809265137 C85.552001953125,-9.489999771118164 67.43199920654297,-15.829999923706055 46.731998443603516,-12.3100004196167 C34.69200134277344,-10.260000228881836 29.11199951171875,-5.199999809265137 27.562000274658203,-0.1599999964237213 C25.54199981689453,-6.53000020980835 29.57200050354004,-15.5600004196167 46.731998443603516,-18.479999542236328 C67.43199920654297,-22 85.552001953125,-15.65999984741211 95.72200012207031,-6.940000057220459 C100.76200103759766,-2.619999885559082 102.53199768066406,2.6500000953674316 100.8219985961914,6.159999847412109z"></path></g></g><g style="display: block;" transform="matrix(-1.0700000524520874,0,0,1.0700000524520874,257.6103515625,234.73434448242188)" opacity="1"><g opacity="1" transform="matrix(1,0,0,1,0,0)"><path fill="rgb(255,226,166)" fill-opacity="1" d=" M96.96900177001953,-4.703000068664551 C86.84200286865234,-13.979000091552734 66.43499755859375,-21.829999923706055 45.71200180053711,-17.95599937438965 C20.195999145507812,-13.185999870300293 22.996999740600586,8.456000328063965 33.92100143432617,11.699999809265137 C46.04100036621094,15.298999786376953 56.95399856567383,3.4800000190734863 83.01699829101562,13.395000457763672 C102.48600006103516,20.802000045776367 107.39399719238281,4.8460001945495605 96.96900177001953,-4.703000068664551z"></path></g><g opacity="1" transform="matrix(1,0,0,1,0,0)"><path fill="rgb(134,63,20)" fill-opacity="1" d=" M95.71700286865234,-6.943999767303467 C85.5510025024414,-15.657999992370605 67.43199920654297,-22.00200080871582 46.733001708984375,-18.476999282836914 C21.24799919128418,-14.13700008392334 24.714000701904297,3.6570000648498535 33.95199966430664,6.260000228881836 C46.084999084472656,9.678000450134277 56.939998626708984,-1.315999984741211 83.04000091552734,8.069999694824219 C102.53700256347656,15.081000328063965 106.18299865722656,2.0269999504089355 95.71700286865234,-6.943999767303467z"></path></g><g opacity="1" transform="matrix(1,0,0,1,0,0)"><path fill="rgb(107,32,0)" fill-opacity="1" d=" M100.8219985961914,6.159999847412109 C99.97200012207031,3.8399999141693115 98.26200103759766,1.409999966621399 95.72200012207031,-0.7699999809265137 C85.552001953125,-9.489999771118164 67.43199920654297,-15.829999923706055 46.731998443603516,-12.3100004196167 C34.69200134277344,-10.260000228881836 29.11199951171875,-5.199999809265137 27.562000274658203,-0.1599999964237213 C25.54199981689453,-6.53000020980835 29.57200050354004,-15.5600004196167 46.731998443603516,-18.479999542236328 C67.43199920654297,-22 85.552001953125,-15.65999984741211 95.72200012207031,-6.940000057220459 C100.76200103759766,-2.619999885559082 102.53199768066406,2.6500000953674316 100.8219985961914,6.159999847412109z"></path></g></g><g style="display: block;" transform="matrix(-1.026380181312561,-0.26482850313186646,-0.26482850313186646,1.026380181312561,247.03543090820312,268.8985290527344)" opacity="1"><g opacity="1" transform="matrix(1,0,0,1,0,0)"><g opacity="1" transform="matrix(1,0,0,1,0,0)"><path fill="rgb(255,238,189)" fill-opacity="1" d=" M58.393001556396484,-96.3270034790039 C59.63399887084961,-97.65599822998047 63.516998291015625,-99.16200256347656 66.60600280761719,-99.9209976196289 C79.99099731445312,-103.21099853515625 106.1780014038086,-96.59700012207031 124.26000213623047,-80.90899658203125 C150.00999450683594,-58.569000244140625 141.58799743652344,-46.268001556396484 135.9219970703125,-50.770999908447266 C130.25599670410156,-55.27399826049805 111.05599975585938,-74.76300048828125 80.12300109863281,-80.56999969482422 C71.83499908447266,-82.1259994506836 65.802001953125,-82.31300354003906 61.28900146484375,-83.5790023803711 C55.32699966430664,-85.25199890136719 54.986000061035156,-92.68099975585938 58.393001556396484,-96.3270034790039z"></path></g><g opacity="1" transform="matrix(1,0,0,1,0,0)"><path fill="rgb(134,63,20)" fill-opacity="1" d=" M58.965999603271484,-96.99299621582031 C60.207000732421875,-98.3219985961914 63.72999954223633,-100.13899993896484 66.81900024414062,-100.89800262451172 C80.2040023803711,-104.18800354003906 103.91999816894531,-101.93800354003906 122.00199890136719,-86.25 C147.7530059814453,-63.90999984741211 142.4969940185547,-50.926998138427734 136.83099365234375,-55.43000030517578 C131.1649932861328,-59.933998107910156 111.96499633789062,-79.4219970703125 81.03199768066406,-85.22899627685547 C72.74400329589844,-86.78500366210938 66.71099853515625,-86.97200012207031 62.198001861572266,-88.23799896240234 C56.236000061035156,-89.91100311279297 55.558998107910156,-93.34700012207031 58.965999603271484,-96.99299621582031z"></path></g></g><g opacity="1" transform="matrix(1,0,0,1,0,0)"><path fill="rgb(107,32,0)" fill-opacity="1" d=" M57.58599853515625,-90.87799835205078 C57.60200119018555,-90.90499877929688 57.630001068115234,-90.94000244140625 57.65599822998047,-90.96499633789062 C58.89699935913086,-92.29100036621094 62.41600036621094,-94.11399841308594 65.50599670410156,-94.86299896240234 C78.88500213623047,-98.15899658203125 102.61000061035156,-95.90399932861328 120.68499755859375,-80.2239990234375 C133.56900024414062,-69.04299926757812 138.68299865722656,-60.20100021362305 139.875,-54.731998443603516 C143.36099243164062,-56.356998443603516 142.71600341796875,-68.27799987792969 121.9990005493164,-86.25299835205078 C103.92400360107422,-101.93299865722656 80.19999694824219,-104.18699645996094 66.822998046875,-100.9010009765625 C63.72999954223633,-100.14199829101562 60.21099853515625,-98.31999969482422 58.970001220703125,-96.99400329589844 C56.875999450683594,-94.75900268554688 56.323001861572266,-92.59600067138672 57.58599853515625,-90.87799835205078z"></path></g></g><g style="display: block;" transform="matrix(1.026380181312561,-0.26482850313186646,0.26482850313186646,1.026380181312561,264.9645690917969,268.8985290527344)" opacity="1"><g opacity="1" transform="matrix(1,0,0,1,0,0)"><g opacity="1" transform="matrix(1,0,0,1,0,0)"><path fill="rgb(255,238,189)" fill-opacity="1" d=" M58.393001556396484,-96.3270034790039 C59.63399887084961,-97.65599822998047 63.516998291015625,-99.16200256347656 66.60600280761719,-99.9209976196289 C79.99099731445312,-103.21099853515625 106.1780014038086,-96.59700012207031 124.26000213623047,-80.90899658203125 C150.00999450683594,-58.569000244140625 141.58799743652344,-46.268001556396484 135.9219970703125,-50.770999908447266 C130.25599670410156,-55.27399826049805 111.05599975585938,-74.76300048828125 80.12300109863281,-80.56999969482422 C71.83499908447266,-82.1259994506836 65.802001953125,-82.31300354003906 61.28900146484375,-83.5790023803711 C55.32699966430664,-85.25199890136719 54.986000061035156,-92.68099975585938 58.393001556396484,-96.3270034790039z"></path></g><g opacity="1" transform="matrix(1,0,0,1,0,0)"><path fill="rgb(134,63,20)" fill-opacity="1" d=" M58.965999603271484,-96.99299621582031 C60.207000732421875,-98.3219985961914 63.72999954223633,-100.13899993896484 66.81900024414062,-100.89800262451172 C80.2040023803711,-104.18800354003906 103.91999816894531,-101.93800354003906 122.00199890136719,-86.25 C147.7530059814453,-63.90999984741211 142.4969940185547,-50.926998138427734 136.83099365234375,-55.43000030517578 C131.1649932861328,-59.933998107910156 111.96499633789062,-79.4219970703125 81.03199768066406,-85.22899627685547 C72.74400329589844,-86.78500366210938 66.71099853515625,-86.97200012207031 62.198001861572266,-88.23799896240234 C56.236000061035156,-89.91100311279297 55.558998107910156,-93.34700012207031 58.965999603271484,-96.99299621582031z"></path></g></g><g opacity="1" transform="matrix(1,0,0,1,0,0)"><path fill="rgb(107,32,0)" fill-opacity="1" d=" M57.58599853515625,-90.87799835205078 C57.60200119018555,-90.90499877929688 57.630001068115234,-90.94000244140625 57.65599822998047,-90.96499633789062 C58.89699935913086,-92.29100036621094 62.41600036621094,-94.11399841308594 65.50599670410156,-94.86299896240234 C78.88500213623047,-98.15899658203125 102.61000061035156,-95.90399932861328 120.68499755859375,-80.2239990234375 C133.56900024414062,-69.04299926757812 138.68299865722656,-60.20100021362305 139.875,-54.731998443603516 C143.36099243164062,-56.356998443603516 142.71600341796875,-68.27799987792969 121.9990005493164,-86.25299835205078 C103.92400360107422,-101.93299865722656 80.19999694824219,-104.18699645996094 66.822998046875,-100.9010009765625 C63.72999954223633,-100.14199829101562 60.21099853515625,-98.31999969482422 58.970001220703125,-96.99400329589844 C56.875999450683594,-94.75900268554688 56.323001861572266,-92.59600067138672 57.58599853515625,-90.87799835205078z"></path></g></g><g style="display: none;"><g><path></path></g><g><path></path></g><g><path></path></g><g><path></path></g></g><g style="display: block;" transform="matrix(1.0700000524520874,0,0,1.0700000524520874,256,237.99998474121094)" opacity="1"><g opacity="1" transform="matrix(1,0,0,1,0,0)"><g opacity="1" transform="matrix(1,0,0,1,0,0)"><g opacity="1" transform="matrix(1,0,0,1,0,0)"><path fill="rgb(255,177,57)" fill-opacity="1" d=" M-141.5850067138672,105.06199645996094 C-141.5850067138672,105.06199645996094 -108.72100067138672,107.91899871826172 -90.91100311279297,113.65799713134766 C-90.91100311279297,113.65799713134766 -90.91100311279297,99.69999694824219 -90.91100311279297,99.69999694824219 C-90.91100311279297,99.69999694824219 -143.5959930419922,92.79100036621094 -143.5959930419922,92.79100036621094 C-143.5959930419922,92.79100036621094 -141.5850067138672,105.06199645996094 -141.5850067138672,105.06199645996094z"></path></g><g opacity="1" transform="matrix(1,0,0,1,0,0)"><g opacity="1" transform="matrix(1,0,0,1,0,0)"><path fill="url(#__lottie_element_25790)" fill-opacity="1" d=" M-92.80500030517578,102.91999816894531 C-92.80500030517578,102.91999816894531 -137.54800415039062,94.26000213623047 -167.74400329589844,92.96199798583984 C-169.7570037841797,92.875 -171.8470001220703,90.86100006103516 -175.04600524902344,85.38700103759766 C-178.2310028076172,79.93900299072266 -179.3939971923828,76.34600067138672 -177.4290008544922,72.66100311279297 C-177.4290008544922,72.66100311279297 -176.51199340820312,75.23600006103516 -176.19400024414062,75.11900329589844 C-176.19400024414062,75.11900329589844 -132.0800018310547,76.00299835205078 -92.80500030517578,83.57099914550781 C-92.80500030517578,83.57099914550781 -92.80500030517578,102.91999816894531 -92.80500030517578,102.91999816894531z"></path></g><g opacity="0.3" transform="matrix(1,0,0,1,0,0)"><path fill="rgb(177,175,188)" fill-opacity="1" d=" M-136.44500732421875,95.91699981689453 C-147.0749969482422,94.5270004272461 -158.14500427246094,93.36699676513672 -167.7449951171875,92.95700073242188 C-169.7550048828125,92.87699890136719 -171.84500122070312,90.85700225830078 -175.0449981689453,85.38700103759766 C-178.23500061035156,79.93699645996094 -179.39500427246094,76.34700012207031 -177.4250030517578,72.65699768066406 C-177.4250030517578,72.65699768066406 -176.51499938964844,75.23699951171875 -176.19500732421875,75.11699676513672 C-176.19500732421875,75.11699676513672 -164.7550048828125,75.34700012207031 -148.34500122070312,76.56700134277344 C-144.7949981689453,83.2969970703125 -140.81500244140625,89.75700378417969 -136.44500732421875,95.91699981689453z"></path></g><g opacity="1" transform="matrix(1,0,0,1,0,0)"><path stroke-linecap="round" stroke-linejoin="round" fill-opacity="0" stroke="rgb(177,175,188)" stroke-opacity="1" stroke-width="5" d=" M-93.80500030517578,102.91999816894531 C-93.80500030517578,102.91999816894531 -137.54800415039062,94.26000213623047 -167.74400329589844,92.96199798583984 C-169.7570037841797,92.875 -171.8470001220703,90.86100006103516 -175.04600524902344,85.38700103759766 C-178.2310028076172,79.93900299072266 -179.3939971923828,76.34600067138672 -177.4290008544922,72.66100311279297 C-177.4290008544922,72.66100311279297 -176.51199340820312,75.23600006103516 -176.19400024414062,75.11900329589844 C-176.19400024414062,75.11900329589844 -133.0800018310547,76.00299835205078 -93.80500030517578,83.57099914550781 C-93.80500030517578,83.57099914550781 -93.80500030517578,102.91999816894531 -93.80500030517578,102.91999816894531z"></path></g></g></g><g opacity="1" transform="matrix(1,0,0,1,0,0)"><g opacity="1" transform="matrix(1,0,0,1,0,0)"><path fill="rgb(255,177,57)" fill-opacity="1" d=" M-98.99199676513672,69.25199890136719 C-98.99199676513672,69.25199890136719 -160.26499938964844,38.132999420166016 -180.46499633789062,17.332000732421875 C-180.46499633789062,17.332000732421875 -177.0989990234375,5 -177.0989990234375,5 C-177.0989990234375,5 -90.91100311279297,52.755001068115234 -90.91100311279297,52.755001068115234 C-90.91100311279297,52.755001068115234 -98.99199676513672,69.25199890136719 -98.99199676513672,69.25199890136719z"></path></g><g opacity="1" transform="matrix(1,0,0,1,0,0)"><g opacity="1" transform="matrix(1,0,0,1,0,0)"><path fill="url(#__lottie_element_25791)" fill-opacity="1" d=" M-93.80500030517578,36.766998291015625 C-93.80500030517578,36.766998291015625 -163.57200622558594,2.5280001163482666 -191.20399475097656,-28.049999237060547 C-191.20399475097656,-28.049999237060547 -191.25900268554688,-29.141000747680664 -191.0030059814453,-31.165000915527344 C-191.0030059814453,-31.165000915527344 -192.77200317382812,-30.56800079345703 -193.6300048828125,-29.6200008392334 C-196.06700134277344,-26.926000595092773 -197.01600646972656,-10.954000473022461 -195.91799926757812,-8.08899974822998 C-194.26100158691406,-3.7669999599456787 -160.7270050048828,28.47599983215332 -93.58200073242188,60.18600082397461 C-93.58200073242188,60.18600082397461 -93.80500030517578,36.766998291015625 -93.80500030517578,36.766998291015625z"></path></g><g opacity="1" transform="matrix(1,0,0,1,0,0)"><path stroke-linecap="round" stroke-linejoin="round" fill-opacity="0" stroke="rgb(177,175,188)" stroke-opacity="1" stroke-width="5" d=" M-93.80500030517578,36.766998291015625 C-93.80500030517578,36.766998291015625 -163.57200622558594,2.5280001163482666 -191.20399475097656,-28.049999237060547 C-191.20399475097656,-28.049999237060547 -191.25900268554688,-29.141000747680664 -191.0030059814453,-31.165000915527344 C-191.0030059814453,-31.165000915527344 -192.77200317382812,-30.56800079345703 -193.6300048828125,-29.6200008392334 C-196.06700134277344,-26.926000595092773 -197.01600646972656,-10.954000473022461 -195.91799926757812,-8.08899974822998 C-194.26100158691406,-3.7669999599456787 -160.7270050048828,28.47599983215332 -93.58200073242188,60.18600082397461 C-93.58200073242188,60.18600082397461 -93.80500030517578,36.766998291015625 -93.80500030517578,36.766998291015625z"></path></g><g opacity="0.3" transform="matrix(1,0,0,1,0,0)"><path fill="rgb(177,175,188)" fill-opacity="1" d=" M-166.9949951171875,17.466999053955078 C-185.4949951171875,4.0370001792907715 -195.05499267578125,-5.833000183105469 -195.9149932861328,-8.093000411987305 C-197.01499938964844,-10.95300006866455 -196.06500244140625,-26.92300033569336 -193.63499450683594,-29.62299919128418 C-192.77499389648438,-30.572999954223633 -191.0050048828125,-31.163000106811523 -191.0050048828125,-31.163000106811523 C-191.2550048828125,-29.14299964904785 -191.2050018310547,-28.05299949645996 -191.2050018310547,-28.05299949645996 C-185.2050018310547,-21.413000106811523 -177.21499633789062,-14.593000411987305 -168.38499450683594,-7.993000030517578 C-168.39500427246094,-7.882999897003174 -168.39500427246094,-7.7729997634887695 -168.39500427246094,-7.663000106811523 C-168.52499389648438,0.8669999837875366 -168.0449981689453,9.256999969482422 -166.9949951171875,17.466999053955078z"></path></g></g></g></g><g opacity="1" transform="matrix(1,0,0,1,0,0)"><g opacity="1" transform="matrix(-1,0,0,1,-0.7840003967285156,0)"><g opacity="1" transform="matrix(1,0,0,1,0,0)"><g opacity="1" transform="matrix(1,0,0,1,0,0)"><path fill="rgb(255,177,57)" fill-opacity="1" d=" M-141.5850067138672,105.06199645996094 C-141.5850067138672,105.06199645996094 -108.72100067138672,107.91899871826172 -90.91100311279297,113.65799713134766 C-90.91100311279297,113.65799713134766 -90.91100311279297,99.69999694824219 -90.91100311279297,99.69999694824219 C-90.91100311279297,99.69999694824219 -143.5959930419922,92.79100036621094 -143.5959930419922,92.79100036621094 C-143.5959930419922,92.79100036621094 -141.5850067138672,105.06199645996094 -141.5850067138672,105.06199645996094z"></path></g><g opacity="1" transform="matrix(1,0,0,1,0,0)"><g opacity="1" transform="matrix(1,0,0,1,0,0)"><path fill="url(#__lottie_element_25792)" fill-opacity="1" d=" M-92.80500030517578,102.91999816894531 C-92.80500030517578,102.91999816894531 -137.54800415039062,94.26000213623047 -167.74400329589844,92.96199798583984 C-169.7570037841797,92.875 -171.8470001220703,90.86100006103516 -175.04600524902344,85.38700103759766 C-178.2310028076172,79.93900299072266 -179.3939971923828,76.34600067138672 -177.4290008544922,72.66100311279297 C-177.4290008544922,72.66100311279297 -176.51199340820312,75.23600006103516 -176.19400024414062,75.11900329589844 C-176.19400024414062,75.11900329589844 -132.0800018310547,76.00299835205078 -92.80500030517578,83.57099914550781 C-92.80500030517578,83.57099914550781 -92.80500030517578,102.91999816894531 -92.80500030517578,102.91999816894531z"></path></g><g opacity="0.3" transform="matrix(1,0,0,1,0,0)"><path fill="rgb(177,175,188)" fill-opacity="1" d=" M-136.44500732421875,95.91699981689453 C-147.0749969482422,94.5270004272461 -158.14500427246094,93.36699676513672 -167.7449951171875,92.95700073242188 C-169.7550048828125,92.87699890136719 -171.84500122070312,90.85700225830078 -175.0449981689453,85.38700103759766 C-178.23500061035156,79.93699645996094 -179.39500427246094,76.34700012207031 -177.4250030517578,72.65699768066406 C-177.4250030517578,72.65699768066406 -176.51499938964844,75.23699951171875 -176.19500732421875,75.11699676513672 C-176.19500732421875,75.11699676513672 -164.7550048828125,75.34700012207031 -148.34500122070312,76.56700134277344 C-144.7949981689453,83.2969970703125 -140.81500244140625,89.75700378417969 -136.44500732421875,95.91699981689453z"></path></g><g opacity="1" transform="matrix(1,0,0,1,0,0)"><path stroke-linecap="round" stroke-linejoin="round" fill-opacity="0" stroke="rgb(177,175,188)" stroke-opacity="1" stroke-width="5" d=" M-93.80500030517578,102.91999816894531 C-93.80500030517578,102.91999816894531 -137.54800415039062,94.26000213623047 -167.74400329589844,92.96199798583984 C-169.7570037841797,92.875 -171.8470001220703,90.86100006103516 -175.04600524902344,85.38700103759766 C-178.2310028076172,79.93900299072266 -179.3939971923828,76.34600067138672 -177.4290008544922,72.66100311279297 C-177.4290008544922,72.66100311279297 -176.51199340820312,75.23600006103516 -176.19400024414062,75.11900329589844 C-176.19400024414062,75.11900329589844 -133.0800018310547,76.00299835205078 -93.80500030517578,83.57099914550781 C-93.80500030517578,83.57099914550781 -93.80500030517578,102.91999816894531 -93.80500030517578,102.91999816894531z"></path></g></g></g><g opacity="1" transform="matrix(1,0,0,1,0,0)"><g opacity="1" transform="matrix(1,0,0,1,0,0)"><path fill="rgb(255,177,57)" fill-opacity="1" d=" M-98.99199676513672,69.25199890136719 C-98.99199676513672,69.25199890136719 -160.26499938964844,38.132999420166016 -180.46499633789062,17.332000732421875 C-180.46499633789062,17.332000732421875 -177.0989990234375,5 -177.0989990234375,5 C-177.0989990234375,5 -90.91100311279297,52.755001068115234 -90.91100311279297,52.755001068115234 C-90.91100311279297,52.755001068115234 -98.99199676513672,69.25199890136719 -98.99199676513672,69.25199890136719z"></path></g><g opacity="1" transform="matrix(1,0,0,1,0,0)"><g opacity="1" transform="matrix(1,0,0,1,0,0)"><path fill="url(#__lottie_element_25793)" fill-opacity="1" d=" M-93.80500030517578,36.766998291015625 C-93.80500030517578,36.766998291015625 -163.57200622558594,2.5280001163482666 -191.20399475097656,-28.049999237060547 C-191.20399475097656,-28.049999237060547 -191.25900268554688,-29.141000747680664 -191.0030059814453,-31.165000915527344 C-191.0030059814453,-31.165000915527344 -192.77200317382812,-30.56800079345703 -193.6300048828125,-29.6200008392334 C-196.06700134277344,-26.926000595092773 -197.01600646972656,-10.954000473022461 -195.91799926757812,-8.08899974822998 C-194.26100158691406,-3.7669999599456787 -160.7270050048828,28.47599983215332 -93.58200073242188,60.18600082397461 C-93.58200073242188,60.18600082397461 -93.80500030517578,36.766998291015625 -93.80500030517578,36.766998291015625z"></path></g><g opacity="1" transform="matrix(1,0,0,1,0,0)"><path stroke-linecap="round" stroke-linejoin="round" fill-opacity="0" stroke="rgb(177,175,188)" stroke-opacity="1" stroke-width="5" d=" M-93.80500030517578,36.766998291015625 C-93.80500030517578,36.766998291015625 -163.57200622558594,2.5280001163482666 -191.20399475097656,-28.049999237060547 C-191.20399475097656,-28.049999237060547 -191.25900268554688,-29.141000747680664 -191.0030059814453,-31.165000915527344 C-191.0030059814453,-31.165000915527344 -192.77200317382812,-30.56800079345703 -193.6300048828125,-29.6200008392334 C-196.06700134277344,-26.926000595092773 -197.01600646972656,-10.954000473022461 -195.91799926757812,-8.08899974822998 C-194.26100158691406,-3.7669999599456787 -160.7270050048828,28.47599983215332 -93.58200073242188,60.18600082397461 C-93.58200073242188,60.18600082397461 -93.80500030517578,36.766998291015625 -93.80500030517578,36.766998291015625z"></path></g><g opacity="0.3" transform="matrix(1,0,0,1,0,0)"><path fill="rgb(177,175,188)" fill-opacity="1" d=" M-166.9949951171875,17.466999053955078 C-185.4949951171875,4.0370001792907715 -195.05499267578125,-5.833000183105469 -195.9149932861328,-8.093000411987305 C-197.01499938964844,-10.95300006866455 -196.06500244140625,-26.92300033569336 -193.63499450683594,-29.62299919128418 C-192.77499389648438,-30.572999954223633 -191.0050048828125,-31.163000106811523 -191.0050048828125,-31.163000106811523 C-191.2550048828125,-29.14299964904785 -191.2050018310547,-28.05299949645996 -191.2050018310547,-28.05299949645996 C-185.2050018310547,-21.413000106811523 -177.21499633789062,-14.593000411987305 -168.38499450683594,-7.993000030517578 C-168.39500427246094,-7.882999897003174 -168.39500427246094,-7.7729997634887695 -168.39500427246094,-7.663000106811523 C-168.52499389648438,0.8669999837875366 -168.0449981689453,9.256999969482422 -166.9949951171875,17.466999053955078z"></path></g></g></g></g></g><g opacity="1" transform="matrix(1,0,0,1,0,0)"><g opacity="1" transform="matrix(1,0,0,1,0,0)"><path fill="url(#__lottie_element_25794)" fill-opacity="1" d=" M94.88700103759766,129.29800415039062 C94.88700103759766,134.4459991455078 91.2699966430664,138.88800048828125 86.2249984741211,139.91299438476562 C71.86599731445312,142.8300018310547 40.63999938964844,148.01100158691406 0,148.01100158691406 C-42.4640007019043,148.01100158691406 -72.46600341796875,142.9510040283203 -86.29299926757812,140.01699829101562 C-91.3030014038086,138.95399475097656 -94.88700103759766,134.53799438476562 -94.88700103759766,129.41600036621094 C-94.88700103759766,129.41600036621094 -94.88700103759766,23.690000534057617 -94.88700103759766,23.690000534057617 C-94.88700103759766,17.336999893188477 -89.45099639892578,12.343999862670898 -83.12200164794922,12.895000457763672 C-66.38800048828125,14.35099983215332 -33.95500183105469,16.719999313354492 0,16.719999313354492 C36.14099884033203,16.719999313354492 67.01200103759766,14.435999870300293 83.06400299072266,12.973999977111816 C89.41200256347656,12.395999908447266 94.88700103759766,17.388999938964844 94.88700103759766,23.763999938964844 C94.88700103759766,23.763999938964844 94.88700103759766,129.29800415039062 94.88700103759766,129.29800415039062z"></path></g><g opacity="1" transform="matrix(1,0,0,1,0,0)"><path stroke-linecap="round" stroke-linejoin="round" fill-opacity="0" stroke="rgb(177,175,188)" stroke-opacity="1" stroke-width="8" d=" M94.88700103759766,129.29800415039062 C94.88700103759766,134.4459991455078 91.2699966430664,138.88800048828125 86.2249984741211,139.91299438476562 C71.86599731445312,142.8300018310547 40.63999938964844,148.01100158691406 0,148.01100158691406 C-42.4640007019043,148.01100158691406 -72.46600341796875,142.9510040283203 -86.29299926757812,140.01699829101562 C-91.3030014038086,138.95399475097656 -94.88700103759766,134.53799438476562 -94.88700103759766,129.41600036621094 C-94.88700103759766,129.41600036621094 -94.88700103759766,23.690000534057617 -94.88700103759766,23.690000534057617 C-94.88700103759766,17.336999893188477 -89.45099639892578,12.343999862670898 -83.12200164794922,12.895000457763672 C-66.38800048828125,14.35099983215332 -33.95500183105469,16.719999313354492 0,16.719999313354492 C36.14099884033203,16.719999313354492 67.01200103759766,14.435999870300293 83.06400299072266,12.973999977111816 C89.41200256347656,12.395999908447266 94.88700103759766,17.388999938964844 94.88700103759766,23.763999938964844 C94.88700103759766,23.763999938964844 94.88700103759766,129.29800415039062 94.88700103759766,129.29800415039062z"></path></g></g></g></g></svg>