<svg xmlns="http://www.w3.org/2000/svg" viewBox="0 0 512 512" width="512" height="512" style="width: 100%; height: 100%; transform: translate3d(0,0,0);" preserveAspectRatio="xMidYMid meet"><defs><clipPath id="__lottie_element_25818"><rect width="512" height="512" x="0" y="0"></rect></clipPath><clipPath id="__lottie_element_25886"><path d="M0,0 L512,0 L512,512 L0,512z"></path></clipPath><clipPath id="__lottie_element_25895"><path d="M0,0 L512,0 L512,512 L0,512z"></path></clipPath><clipPath id="__lottie_element_25904"><path d="M0,0 L512,0 L512,512 L0,512z"></path></clipPath><clipPath id="__lottie_element_25913"><path d="M0,0 L512,0 L512,512 L0,512z"></path></clipPath><clipPath id="__lottie_element_25922"><path d="M0,0 L512,0 L512,512 L0,512z"></path></clipPath><clipPath id="__lottie_element_25931"><path d="M0,0 L512,0 L512,512 L0,512z"></path></clipPath><clipPath id="__lottie_element_25940"><path d="M0,0 L512,0 L512,512 L0,512z"></path></clipPath><clipPath id="__lottie_element_25949"><path d="M0,0 L512,0 L512,512 L0,512z"></path></clipPath><clipPath id="__lottie_element_25958"><path d="M0,0 L512,0 L512,512 L0,512z"></path></clipPath></defs><g clip-path="url(#__lottie_element_25818)"><g style="display: block;" transform="matrix(-1,0,0,1,256,256)" opacity="1"><g opacity="1" transform="matrix(1,0,0,1,0,0)"><path stroke-linecap="round" stroke-linejoin="round" fill-opacity="0" stroke="rgb(0,75,183)" stroke-opacity="1" stroke-width="15" d=" M162.99200439453125,-11.152999877929688 C165.7429962158203,-9.604999542236328 168.41700744628906,-7.9079999923706055 170.8679962158203,-6.01200008392334 C195.08399963378906,12.722999572753906 224.3280029296875,48.45600128173828 162.30999755859375,117.34300231933594 C133.89700317382812,148.9029998779297 132.3520050048828,171.69900512695312 139.87100219726562,189.2239990234375"></path></g><g opacity="1" transform="matrix(1,0,0,1,0,0)"><path stroke-linecap="round" stroke-linejoin="round" fill-opacity="0" stroke="rgb(35,93,253)" stroke-opacity="1" stroke-width="15" d=" M155.7449951171875,-8.637999534606934 C159.3070068359375,-6.585999965667725 162.77999877929688,-4.401000022888184 165.8679962158203,-2.01200008392334 C190.08399963378906,16.722999572753906 224.3280029296875,46.45600128173828 162.30999755859375,115.34300231933594 C137.74899291992188,142.62399291992188 133.26499938964844,163.7239990234375 137.35699462890625,180.58399963378906"></path></g></g><g style="display: block;" transform="matrix(-0.5716800093650818,0,0,0.9939000010490417,360,258)" opacity="1"><g opacity="1" transform="matrix(1,0,0,1,0,0)"><path stroke-linecap="round" stroke-linejoin="round" fill-opacity="0" stroke="rgb(188,188,66)" stroke-opacity="1" stroke-width="15" d=" M228.08700561523438,-158.35299682617188 C236.18800354003906,-131.0760040283203 225.33799743652344,-107.15299987792969 160.13800048828125,-109.29299926757812 C107.86900329589844,-111.00900268554688 224.88400268554688,-72.7249984741211 174.02099609375,-52.880001068115234 C172.62100219726562,-52.33399963378906 171.26400756835938,-51.79800033569336 169.9499969482422,-51.27299880981445"></path></g><g opacity="1" transform="matrix(1,0,0,1,0,0)"><path stroke-linecap="round" stroke-linejoin="round" fill-opacity="0" stroke="rgb(248,247,74)" stroke-opacity="1" stroke-width="15" d=" M223.12600708007812,-155.79299926757812 C226.35499572753906,-131.50100708007812 211.27200317382812,-111.28600311279297 150.13800048828125,-113.29299926757812 C97.86900329589844,-115.00900268554688 217.88400268554688,-75.7249984741211 167.02099609375,-55.880001068115234 C164.83200073242188,-55.0260009765625 162.75100708007812,-54.19200134277344 160.77200317382812,-53.37699890136719"></path></g></g><g style="display: block;" transform="matrix(0.6874678134918213,-0.7262148261070251,0.7262148261070251,0.6874678134918213,210.5207061767578,268.09039306640625)" opacity="1"><g opacity="1" transform="matrix(1,0,0,1,0,0)"><path fill="rgb(236,157,33)" fill-opacity="1" d=" M60.50899887084961,172.46499633789062 C60.50899887084961,172.46499633789062 51.98699951171875,169.4759979248047 51.98699951171875,169.4759979248047 C51.97999954223633,169.46800231933594 51.97999954223633,169.468994140625 51.972999572753906,169.46099853515625 C33.957000732421875,156.29200744628906 19.562999725341797,101.4020004272461 18.24799919128418,35.41999816894531 C16.93199920654297,-30.58300018310547 29.1299991607666,-86.01799774169922 46.625,-99.8759994506836 C46.625,-99.8759994506836 55.02000045776367,-103.20999908447266 55.02000045776367,-103.20999908447266 C76.85099792480469,-103.64099884033203 95.77400207519531,-42.27799987792969 97.28800201416016,33.84400177001953 C98.802001953125,109.96600341796875 82.33999633789062,172.03399658203125 60.50899887084961,172.46499633789062z"></path></g><g opacity="1" transform="matrix(1,0,0,1,0,0)"><path fill="rgb(250,137,17)" fill-opacity="1" d=" M33.26300048828125,135.968994140625 C33.26300048828125,135.968994140625 80.61499786376953,152.0850067138672 80.61499786376953,152.0850067138672 C80.61499786376953,152.0850067138672 74.84700012207031,167.34300231933594 65.83499908447266,171.09800720214844 C56.823001861572266,174.85299682617188 45.73099899291992,173.73199462890625 33.26300048828125,135.968994140625z"></path></g><g opacity="0.4" transform="matrix(1,0,0,1,0,0)"><path fill="rgb(248,247,74)" fill-opacity="1" d=" M95.57499694824219,88.9489974975586 C95.57499694824219,88.9489974975586 20.73200035095215,73.53500366210938 20.73200035095215,73.53500366210938 C19.34600067138672,58.404998779296875 17.941999435424805,28.78499984741211 18.179000854492188,21.04599952697754 C18.179000854492188,21.04599952697754 95.85299682617188,9.770999908447266 95.85299682617188,9.770999908447266 C95.85299682617188,9.770999908447266 99.98500061035156,56.82699966430664 95.57499694824219,88.9489974975586z"></path></g><g opacity="0.2" transform="matrix(1,0,0,1,0,0)"><path fill="rgb(48,31,3)" fill-opacity="1" d=" M87.16300201416016,-48.611000061035156 C87.16300201416016,-48.611000061035156 23.979999542236328,-30.768999099731445 23.979999542236328,-30.768999099731445 C23.979999542236328,-30.768999099731445 22.20199966430664,-40.03200149536133 28.121999740600586,-63.16400146484375 C37.55099868774414,-100.00599670410156 56.00400161743164,-108.7490005493164 68.41400146484375,-95.53199768066406 C68.41400146484375,-95.53199768066406 68.56400299072266,-95.37100219726562 68.56400299072266,-95.37100219726562 C70.29900360107422,-93.48799896240234 71.927001953125,-91.22100067138672 73.44599914550781,-88.68800354003906 C80.31700134277344,-77.23300170898438 84.97000122070312,-60.30400085449219 87.16300201416016,-48.611000061035156z"></path></g><g opacity="0" transform="matrix(0.7296421527862549,0.7884385585784912,-0.7884385585784912,0.7296421527862549,30.155197143554688,-323.1529846191406)"><g opacity="1" transform="matrix(1.0720800161361694,0,0,1.0659199953079224,264.3179931640625,211.24899291992188)"><path fill="rgb(177,105,0)" fill-opacity="1" d=" M72.42500305175781,79.25199890136719 C72.42500305175781,79.25199890136719 72.21800231933594,75.75399780273438 72.21800231933594,75.75399780273438 C72.21499633789062,75.74800109863281 72.21499633789062,75.7490005493164 72.21199798583984,75.74299621582031 C67.60399627685547,64.46399688720703 42.551998138427734,35.13600158691406 2.624000072479248,-2.568000078201294 C-37.31700134277344,-40.284000396728516 -73.38099670410156,-69.14700317382812 -85.13200378417969,-73.30899810791016 C-85.13200378417969,-73.30899810791016 -88.75199890136719,-73.42500305175781 -88.75199890136719,-73.42500305175781 C-93.14800262451172,-69.0530014038086 -59.367000579833984,-30.24799919128418 -13.302000045776367,13.25 C32.76300048828125,56.74800109863281 68.02899932861328,83.6240005493164 72.42500305175781,79.25199890136719z"></path></g><g opacity="1" transform="matrix(1,0,0,1,255.26800537109375,223.5449981689453)"><path fill="rgb(214,129,18)" fill-opacity="1" d=" M85.77100372314453,64.55899810791016 C85.77100372314453,64.55899810791016 85.5780029296875,61.08599853515625 85.5780029296875,61.08599853515625 C85.57499694824219,61.08000183105469 85.5739974975586,61.08100128173828 85.57099914550781,61.07500076293945 C80.97699737548828,49.86600112915039 55.861000061035156,20.680999755859375 15.793000221252441,-16.864999771118164 C-24.288000106811523,-54.42300033569336 -60.50199890136719,-83.18299865722656 -72.3239974975586,-87.3499984741211 C-72.3239974975586,-87.3499984741211 -75.97100067138672,-87.47599792480469 -75.97100067138672,-87.47599792480469 C-80.41899871826172,-83.1510009765625 -46.54899978637695,-44.53099822998047 -0.32199999690055847,-1.215999960899353 C45.904998779296875,42.0989990234375 81.322998046875,68.88400268554688 85.77100372314453,64.55899810791016z"></path></g><g opacity="0.14" transform="matrix(1,0,0,1,278.802001953125,242.76300048828125)"><path fill="rgb(255,255,255)" fill-opacity="1" d=" M33.117000579833984,29.16699981689453 C33.117000579833984,29.16699981689453 -2.118000030517578,-26.30900001525879 -2.118000030517578,-26.30900001525879 C-2.118000030517578,-26.30900001525879 -24.36400032043457,-46.72600173950195 -24.36400032043457,-46.72600173950195 C-24.36400032043457,-46.72600173950195 13.51200008392334,13.039999961853027 13.51200008392334,13.039999961853027 C20.503000259399414,18.9950008392334 27.079999923706055,24.4060001373291 33.084999084472656,29.145000457763672 C33.084999084472656,29.145000457763672 33.117000579833984,29.16699981689453 33.117000579833984,29.16699981689453z"></path></g><g opacity="0.14" transform="matrix(1,0,0,1,232.26800537109375,185.14300537109375)"><path fill="rgb(255,255,255)" fill-opacity="1" d=" M41.00400161743164,53.99700164794922 C41.00400161743164,53.99700164794922 0.36399999260902405,-9.210000038146973 0.36399999260902405,-9.210000038146973 C0.36399999260902405,-9.210000038146973 -43.229000091552734,-43.426998138427734 -43.229000091552734,-43.426998138427734 C-43.229000091552734,-43.426998138427734 -12.350000381469727,2.8910000324249268 -12.350000381469727,2.8910000324249268 C-1.9919999837875366,13.541999816894531 9.869999885559082,25.187000274658203 22.680999755859375,37.18899917602539 C28.91200065612793,43.0260009765625 35.042999267578125,48.64899826049805 41.00400161743164,53.99700164794922z"></path></g></g><g opacity="1" transform="matrix(1,0,0,1,0,0)"><path stroke-linecap="round" stroke-linejoin="round" fill-opacity="0" stroke="rgb(155,92,0)" stroke-opacity="1" stroke-width="8" d=" M60.50899887084961,172.46499633789062 C60.50899887084961,172.46499633789062 51.98699951171875,169.4759979248047 51.98699951171875,169.4759979248047 C51.97999954223633,169.46800231933594 51.97999954223633,169.468994140625 51.972999572753906,169.46099853515625 C33.957000732421875,156.29200744628906 19.562999725341797,101.4020004272461 18.24799919128418,35.41999816894531 C16.93199920654297,-30.58300018310547 29.1299991607666,-86.01799774169922 46.625,-99.8759994506836 C46.625,-99.8759994506836 55.02000045776367,-103.20999908447266 55.02000045776367,-103.20999908447266 C76.85099792480469,-103.64099884033203 95.77400207519531,-42.27799987792969 97.28800201416016,33.84400177001953 C98.802001953125,109.96600341796875 82.33999633789062,172.03399658203125 60.50899887084961,172.46499633789062z"></path></g><g opacity="1" transform="matrix(1,0,0,1,0,0)"><path fill="rgb(242,189,55)" fill-opacity="1" d=" M51.972999572753906,169.46099853515625 C51.972999572753906,169.46099853515625 -208.80799865722656,77.8030014038086 -208.80799865722656,77.8030014038086 C-244.0760040283203,65.41000366210938 -245.05999755859375,15.89900016784668 -210.3159942626953,2.0989999771118164 C-210.3159942626953,2.0989999771118164 46.625,-99.8759994506836 46.625,-99.8759994506836 C29.1299991607666,-86.01799774169922 16.937999725341797,-30.58300018310547 18.24799919128418,35.41999816894531 C19.55699920654297,101.4020004272461 33.957000732421875,156.29200744628906 51.972999572753906,169.46099853515625z"></path></g><g opacity="0.6" transform="matrix(1,0,0,1,0,0)"><path fill="rgb(248,247,74)" fill-opacity="1" d=" M20.753000259399414,75.5459976196289 C20.753000259399414,75.5459976196289 -232.2310028076172,55.57899856567383 -232.2310028076172,55.57899856567383 C-232.2310028076172,55.57899856567383 -227.26499938964844,64.98200225830078 -227.26499938964844,64.98200225830078 C-227.26499938964844,64.98200225830078 29.707000732421875,125.51699829101562 29.707000732421875,125.51699829101562 C29.707000732421875,125.51699829101562 20.753000259399414,75.5459976196289 20.753000259399414,75.5459976196289z"></path></g><g opacity="1" transform="matrix(1,0,0,1,0,0)"><path fill="rgb(146,56,204)" fill-opacity="1" d=" M-4.730999946594238,149.53199768066406 C-4.730999946594238,149.53199768066406 -34.21799850463867,139.73399353027344 -34.21799850463867,139.73399353027344 C-50.417999267578125,110.38600158691406 -55.95000076293945,78.39900207519531 -56.76599884033203,37.21500015258789 C-57.59000015258789,-4.394000053405762 -49.941001892089844,-42.20800018310547 -40.59000015258789,-65.26200103759766 C-40.59000015258789,-65.26200103759766 -5.690999984741211,-79.11900329589844 -5.690999984741211,-79.11900329589844 C-19.988000869750977,-60.46500015258789 -29.472999572753906,-14.843000411987305 -28.402000427246094,38.26499938964844 C-27.42099952697754,86.91999816894531 -17.8799991607666,128.93600463867188 -4.730999946594238,149.53199768066406z"></path></g><g opacity="1" transform="matrix(1,0,0,1,0,0)"><path fill="rgb(196,104,195)" fill-opacity="1" d=" M-18.832000732421875,114.08300018310547 C-18.832000732421875,114.08300018310547 -47.67399978637695,107.28199768066406 -47.67399978637695,107.28199768066406 C-51.138999938964844,95.44000244140625 -53.37699890136719,83.12899780273438 -54.77899932861328,69.58300018310547 C-54.77899932861328,69.58300018310547 -26.297000885009766,71.83300018310547 -26.297000885009766,71.83300018310547 C-24.628000259399414,87.35600280761719 -22.07200050354004,101.64399719238281 -18.832000732421875,114.08300018310547z"></path></g><g opacity="1" transform="matrix(1,0,0,1,0,0)"><path fill="rgb(146,56,204)" fill-opacity="1" d=" M-110.32499694824219,112.41799926757812 C-110.32499694824219,112.41799926757812 -140.23500061035156,101.9000015258789 -140.23500061035156,101.9000015258789 C-142.281005859375,96.58100128173828 -144.16400146484375,90.62300109863281 -145.82000732421875,84.17400360107422 C-147.58299255371094,77.30899810791016 -149.04200744628906,69.87999725341797 -150.0970001220703,62.066001892089844 C-151.08599853515625,54.74100112915039 -151.71099853515625,47.08300018310547 -151.8699951171875,39.215999603271484 C-152.3679962158203,14.623000144958496 -149.01300048828125,-7.686999797821045 -142.36700439453125,-24.868000030517578 C-142.36700439453125,-24.868000030517578 -115.13500213623047,-35.67499923706055 -115.13500213623047,-35.67499923706055 C-121.85700225830078,-19.416000366210938 -125.91000366210938,6.960999965667725 -125.32499694824219,36.65999984741211 C-125.13600158691406,46.26900100708008 -124.4729995727539,55.520999908447266 -123.40599822998047,64.16500091552734 C-123.33000183105469,64.7760009765625 -123.25199890136719,65.37899780273438 -123.1760025024414,65.97000122070312 C-122.94499969482422,67.76200103759766 -122.67500305175781,69.53099822998047 -122.42400360107422,71.26300048828125 C-122.25499725341797,72.43000030517578 -122.06400299072266,73.57599639892578 -121.87200164794922,74.70800018310547 C-121.37200164794922,77.65599822998047 -120.81999969482422,80.51399993896484 -120.22799682617188,83.26699829101562 C-120.06600189208984,84.05899810791016 -119.88400268554688,84.84300231933594 -119.70700073242188,85.62100219726562 C-119.31800079345703,87.33399963378906 -118.91000366210938,88.98899841308594 -118.48400115966797,90.61199951171875 C-116.19499969482422,99.3219985961914 -113.4260025024414,106.74199676513672 -110.32499694824219,112.41799926757812z"></path></g><g opacity="1" transform="matrix(1,0,0,1,0,0)"><path fill="rgb(146,56,204)" fill-opacity="1" d=" M-192.83999633789062,83.41799926757812 C-192.83999633789062,83.41799926757812 -195.86399841308594,82.35099792480469 -195.86399841308594,82.35099792480469 C-195.86399841308594,82.35099792480469 -208.80799865722656,77.8030014038086 -208.80799865722656,77.8030014038086 C-212.10499572753906,76.64800262451172 -214.02999877929688,75.30999755859375 -216.72500610351562,73.56900024414062 C-217.7519989013672,71.47899627685547 -218.64599609375,69.2249984741211 -219.41200256347656,66.83999633789062 C-220.46499633789062,63.560001373291016 -221.28599548339844,60.04800033569336 -221.906005859375,56.39500045776367 C-222.81199645996094,51.05500030517578 -223.28199768066406,45.404998779296875 -223.39300537109375,39.80400085449219 C-223.65899658203125,26.336000442504883 -222.23800659179688,16.049999237060547 -217.7449951171875,5.914000034332275 C-215.30599975585938,4.263000011444092 -213.26800537109375,3.2699999809265137 -210.3159942626953,2.0989999771118164 C-210.3159942626953,2.0989999771118164 -198.41000366210938,-2.625999927520752 -198.41000366210938,-2.625999927520752 C-198.41000366210938,-2.625999927520752 -195.25,-3.881999969482422 -195.25,-3.881999969482422 C-195.8560028076172,-2.5950000286102295 -196.427001953125,-1.156999945640564 -196.96499633789062,0.39899998903274536 C-200.2220001220703,9.824000358581543 -202.11399841308594,23.763999938964844 -201.81399536132812,39.27899932861328 C-201.68499755859375,45.94200134277344 -201.1300048828125,52.284000396728516 -200.302001953125,58.099998474121094 C-200.01499938964844,60.112998962402344 -199.68499755859375,62.071998596191406 -199.322998046875,63.94599914550781 C-199.2519989013672,64.31700134277344 -199.1739959716797,64.68099975585938 -199.1009979248047,65.03700256347656 C-198.59100341796875,67.51100158691406 -198.01499938964844,69.84400177001953 -197.39300537109375,72.0199966430664 C-196.60400390625,74.78099822998047 -195.72500610351562,77.28600311279297 -194.78199768066406,79.48999786376953 C-194.16299438476562,80.93499755859375 -193.51800537109375,82.24700164794922 -192.83999633789062,83.41799926757812z"></path></g><g opacity="1" transform="matrix(1,0,0,1,0,0)"><path stroke-linecap="round" stroke-linejoin="round" fill-opacity="0" stroke="rgb(255,255,255)" stroke-opacity="1" stroke-width="6" d=" M-52.09600067138672,69.7959976196289 C-52.09600067138672,69.7959976196289 -73.51200103759766,68.10600280761719 -73.51200103759766,68.10600280761719"></path></g><g opacity="1" transform="matrix(1,0,0,1,0,0)"><path stroke-linecap="round" stroke-linejoin="round" fill-opacity="0" stroke="rgb(255,255,255)" stroke-opacity="1" stroke-width="6" d=" M-33.63600158691406,71.25299835205078 C-33.63600158691406,71.25299835205078 -37.792999267578125,70.92500305175781 -37.792999267578125,70.92500305175781"></path></g><g opacity="0.2" transform="matrix(1,0,0,1,0,0)"><path fill="rgb(48,31,3)" fill-opacity="1" d=" M33.183998107910156,-78.75499725341797 C33.183998107910156,-78.75499725341797 -229.24000549316406,16.410999298095703 -229.24000549316406,16.410999298095703 C-229.24000549316406,16.410999298095703 -235.6959991455078,22.4060001373291 -234.98800659179688,31.341999053955078 C-234.98800659179688,31.341999053955078 19.024999618530273,-18.992000579833984 19.024999618530273,-18.992000579833984 C19.024999618530273,-18.992000579833984 27.604999542236328,-60.356998443603516 33.183998107910156,-78.75499725341797z"></path></g><g opacity="0.3" transform="matrix(1,0,0,1,0,0)"><path fill="rgb(48,31,3)" fill-opacity="1" d=" M29.707000732421875,125.51699829101562 C29.707000732421875,125.51699829101562 -227.26499938964844,64.98200225830078 -227.26499938964844,64.98200225830078 C-227.26499938964844,64.98200225830078 -217.78799438476562,73.42400360107422 -217.78799438476562,73.42400360107422 C-217.78799438476562,73.42400360107422 51.972999572753906,169.46099853515625 51.972999572753906,169.46099853515625 C51.972999572753906,169.46099853515625 31.329999923706055,155.11900329589844 29.707000732421875,125.51699829101562z"></path></g><g opacity="1" transform="matrix(1,0,0,1,0,0)"><path stroke-linecap="round" stroke-linejoin="round" fill-opacity="0" stroke="rgb(155,92,0)" stroke-opacity="1" stroke-width="8" d=" M51.972999572753906,169.46099853515625 C51.972999572753906,169.46099853515625 -208.80799865722656,77.8030014038086 -208.80799865722656,77.8030014038086 C-214.21299743652344,75.90399932861328 -220.71600341796875,73.2959976196289 -225.06100463867188,70.43099975585938 C-239.30799865722656,61.034000396728516 -241.44500732421875,24.389999389648438 -227.86199951171875,11.791000366210938 C-223.9720001220703,8.182999610900879 -215.8979949951172,4.315999984741211 -210.3159942626953,2.0989999771118164 C-210.3159942626953,2.0989999771118164 46.625,-99.8759994506836 46.625,-99.8759994506836 C29.1299991607666,-86.01799774169922 16.937999725341797,-30.58300018310547 18.24799919128418,35.41999816894531 C19.55699920654297,101.4020004272461 33.957000732421875,156.29200744628906 51.972999572753906,169.46099853515625z"></path></g><g opacity="1" transform="matrix(1,0,0,1,0,0)"><path fill="rgb(196,104,195)" fill-opacity="1" d=" M-197.39300537109375,72.0199966430664 C-197.39300537109375,72.0199966430664 -219.41200256347656,66.83999633789062 -219.41200256347656,66.83999633789062 C-220.46499633789062,63.560001373291016 -221.28399658203125,60.04800033569336 -221.906005859375,56.39500045776367 C-221.906005859375,56.39500045776367 -200.302001953125,58.099998474121094 -200.302001953125,58.099998474121094 C-200.01499938964844,60.112998962402344 -199.68499755859375,62.071998596191406 -199.322998046875,63.94599914550781 C-199.2519989013672,64.31700134277344 -199.1739959716797,64.68099975585938 -199.1009979248047,65.03700256347656 C-198.59100341796875,67.51100158691406 -198.02000427246094,69.84600067138672 -197.39300537109375,72.0199966430664z"></path></g><g opacity="1" transform="matrix(1,0,0,1,0,0)"><path fill="rgb(196,104,195)" fill-opacity="1" d=" M-118.48400115966797,90.61199951171875 C-118.48400115966797,90.61199951171875 -145.82000732421875,84.17400360107422 -145.82000732421875,84.17400360107422 C-147.58299255371094,77.30899810791016 -149.0489959716797,69.88099670410156 -150.0970001220703,62.066001892089844 C-150.0970001220703,62.066001892089844 -123.40599822998047,64.16500091552734 -123.40599822998047,64.16500091552734 C-123.33599853515625,64.76899719238281 -123.25399780273438,65.36499786376953 -123.1760025024414,65.97000122070312 C-122.94499969482422,67.76200103759766 -122.67500305175781,69.53099822998047 -122.42400360107422,71.26300048828125 C-122.25499725341797,72.43000030517578 -122.06400299072266,73.57599639892578 -121.87200164794922,74.70800018310547 C-121.37200164794922,77.65599822998047 -120.81999969482422,80.51399993896484 -120.22799682617188,83.26699829101562 C-120.05899810791016,84.06600189208984 -119.88400268554688,84.84300231933594 -119.70700073242188,85.62100219726562 C-119.31800079345703,87.33399963378906 -118.91200256347656,88.98999786376953 -118.48400115966797,90.61199951171875z"></path></g><g opacity="1" transform="matrix(1,0,0,1,0,0)"><g opacity="1" transform="matrix(1,0,0,1,0,0)"><path fill="rgb(79,0,130)" fill-opacity="1" d=" M-42.534000396728516,-60.1870002746582 C-42.534000396728516,-60.1870002746582 -37.904998779296875,-70.63099670410156 -37.904998779296875,-70.63099670410156 C-37.904998779296875,-70.63099670410156 -4.328999996185303,-83.95700073242188 -4.328999996185303,-83.95700073242188 C-4.328999996185303,-83.95700073242188 -9.291999816894531,-73.37999725341797 -9.291999816894531,-73.37999725341797 C-9.291999816894531,-73.37999725341797 -42.534000396728516,-60.1870002746582 -42.534000396728516,-60.1870002746582z"></path></g></g><g opacity="1" transform="matrix(1,0,0,1,0,0)"><g opacity="1" transform="matrix(1,0,0,1,0,0)"><path fill="rgb(79,0,130)" fill-opacity="1" d=" M-144.16600036621094,-19.85099983215332 C-144.16600036621094,-19.85099983215332 -141.6020050048828,-27.417999267578125 -139.21299743652344,-30.42300033569336 C-139.21299743652344,-30.42300033569336 -114.08200073242188,-40.39799880981445 -114.08200073242188,-40.39799880981445 C-114.08200073242188,-40.39799880981445 -117.2030029296875,-30.552000045776367 -117.2030029296875,-30.552000045776367 C-117.2030029296875,-30.552000045776367 -144.16600036621094,-19.85099983215332 -144.16600036621094,-19.85099983215332z"></path></g></g><g opacity="1" transform="matrix(1,0,0,1,0,0)"><g opacity="1" transform="matrix(1,0,0,1,0,0)"><path fill="rgb(79,0,130)" fill-opacity="1" d=" M-219.73300170898438,10.979999542236328 C-217.20700073242188,2.8459999561309814 -215.12100219726562,-0.2150000035762787 -215.12100219726562,-0.2150000035762787 C-215.12100219726562,-0.2150000035762787 -215.14999389648438,-0.2849999964237213 -211.79299926757812,-1.6180000305175781 C-211.79299926757812,-1.6180000305175781 -193.5679931640625,-8.902000427246094 -193.5679931640625,-8.902000427246094 C-193.5679931640625,-8.902000427246094 -197.23899841308594,1.2120000123977661 -197.23899841308594,1.2120000123977661 C-197.23899841308594,1.2120000123977661 -208.8419952392578,5.816999912261963 -208.8419952392578,5.816999912261963 C-211.6219940185547,6.921000003814697 -219.73300170898438,10.979999542236328 -219.73300170898438,10.979999542236328z"></path></g></g><g opacity="1" transform="matrix(1,0,0,1,0,0)"><g opacity="1" transform="matrix(1,0,0,1,0,0)"><path fill="rgb(68,0,107)" fill-opacity="1" d=" M-212.2740020751953,80.7969970703125 C-212.2740020751953,80.7969970703125 -216.11900329589844,76.25900268554688 -218.45799255371094,69.56300354003906 C-218.5070037841797,69.42400360107422 -210.06399536132812,73.12300109863281 -207.48199462890625,74.02999877929688 C-207.48199462890625,74.02999877929688 -195.26699829101562,78.32099914550781 -195.26699829101562,78.32099914550781 C-195.26699829101562,78.32099914550781 -190.94700622558594,88.2969970703125 -190.94700622558594,88.2969970703125 C-190.94700622558594,88.2969970703125 -210.13400268554688,81.5770034790039 -210.13400268554688,81.5770034790039 C-211.4320068359375,81.11799621582031 -212.2740020751953,80.7969970703125 -212.2740020751953,80.7969970703125z"></path></g></g><g opacity="1" transform="matrix(1,0,0,1,0,0)"><g opacity="1" transform="matrix(1,0,0,1,0,0)"><path fill="rgb(68,0,107)" fill-opacity="1" d=" M-135.7830047607422,107.70999908447266 C-139.58700561523438,102.5979995727539 -141.9969940185547,97.0459976196289 -141.9969940185547,97.0459976196289 C-141.9969940185547,97.0459976196289 -112.8219985961914,107.30000305175781 -112.8219985961914,107.30000305175781 C-112.8219985961914,107.30000305175781 -109.05999755859375,117.10199737548828 -109.05999755859375,117.10199737548828 C-109.05999755859375,117.10199737548828 -135.7830047607422,107.70999908447266 -135.7830047607422,107.70999908447266z"></path></g></g><g opacity="1" transform="matrix(1,0,0,1,0,0)"><g opacity="1" transform="matrix(1,0,0,1,0,0)"><path fill="rgb(68,0,107)" fill-opacity="1" d=" M-30.086999893188477,144.85800170898438 C-33.9119987487793,140.06399536132812 -37.3120002746582,133.83900451660156 -37.3120002746582,133.83900451660156 C-37.3120002746582,133.83900451660156 -7.801000118255615,144.21200561523438 -7.801000118255615,144.21200561523438 C-7.801000118255615,144.21200561523438 -2.5910000801086426,154.55099487304688 -2.5910000801086426,154.55099487304688 C-2.5910000801086426,154.55099487304688 -30.086999893188477,144.85800170898438 -30.086999893188477,144.85800170898438z"></path></g></g></g><g style="display: none;"><g><path></path></g><g><path></path></g><g><path stroke-linecap="round" stroke-linejoin="round" fill-opacity="0"></path></g><g><path stroke-linecap="round" stroke-linejoin="round" fill-opacity="0"></path></g></g><g style="display: none;"><g><path></path></g><g><path></path></g><g><path stroke-linecap="round" stroke-linejoin="round" fill-opacity="0"></path></g><g><path stroke-linecap="round" stroke-linejoin="round" fill-opacity="0"></path></g></g><g style="display: none;"><g><g><path></path></g><g><path></path></g></g></g><g style="display: none;"><g><g><path></path></g><g><path></path></g></g></g><g clip-path="url(#__lottie_element_25958)" style="display: block;" transform="matrix(1,0,0,1,0,0)" opacity="1"><g style="display: block;" transform="matrix(0.3869507610797882,-0.9221003651618958,0.9221003651618958,0.3869507610797882,323.38958740234375,286.1202392578125)" opacity="1"><g opacity="1" transform="matrix(1,0,0,1,0,0)"><g opacity="1" transform="matrix(1,0,0,1,0,0)"><path fill="rgb(24,77,155)" fill-opacity="1" d=" M27.089000701904297,-157.71499633789062 C27.089000701904297,-157.71499633789062 9.33899974822998,-148.3209991455078 9.33899974822998,-148.3209991455078 C7.797999858856201,-147.50599670410156 5.888000011444092,-148.09300231933594 5.072999954223633,-149.63400268554688 C5.072999954223633,-149.63400268554688 -4.321000099182129,-167.38400268554688 -4.321000099182129,-167.38400268554688 C-5.136000156402588,-168.9250030517578 -4.548999786376953,-170.8350067138672 -3.007999897003174,-171.64999389648438 C-3.007999897003174,-171.64999389648438 14.741999626159668,-181.04400634765625 14.741999626159668,-181.04400634765625 C16.283000946044922,-181.85899353027344 18.19300079345703,-181.27200317382812 19.007999420166016,-179.7310028076172 C19.007999420166016,-179.7310028076172 28.402000427246094,-161.9810028076172 28.402000427246094,-161.9810028076172 C29.216999053955078,-160.44000244140625 28.6299991607666,-158.52999877929688 27.089000701904297,-157.71499633789062z"></path></g><g opacity="1" transform="matrix(1,0,0,1,0,0)"><path fill="rgb(44,103,234)" fill-opacity="1" d=" M27.089000701904297,-157.71499633789062 C27.089000701904297,-157.71499633789062 11.592000007629395,-149.51300048828125 11.592000007629395,-149.51300048828125 C10.050999641418457,-148.697998046875 8.140999794006348,-149.28599548339844 7.326000213623047,-150.82699584960938 C7.326000213623047,-150.82699584960938 -0.8759999871253967,-166.32400512695312 -0.8759999871253967,-166.32400512695312 C-1.690999984741211,-167.86500549316406 -1.1039999723434448,-169.7740020751953 0.43700000643730164,-170.58900451660156 C0.43700000643730164,-170.58900451660156 15.934000015258789,-178.79100036621094 15.934000015258789,-178.79100036621094 C17.475000381469727,-179.6060028076172 19.385000228881836,-179.0189971923828 20.200000762939453,-177.47799682617188 C20.200000762939453,-177.47799682617188 28.402000427246094,-161.9810028076172 28.402000427246094,-161.9810028076172 C29.216999053955078,-160.44000244140625 28.6299991607666,-158.52999877929688 27.089000701904297,-157.71499633789062z"></path></g></g></g></g><g clip-path="url(#__lottie_element_25949)" style="display: block;" transform="matrix(1,0,0,1,-100,0)" opacity="1"><g style="display: block;" transform="matrix(0.7923786044120789,-0.1797008365392685,0.1797008365392685,0.7923786044120789,375.7962341308594,23.255970001220703)" opacity="1"><g opacity="1" transform="matrix(1,0,0,1,0,0)"><g opacity="1" transform="matrix(1,0,0,1,0,0)"><path fill="rgb(206,25,77)" fill-opacity="1" d=" M-142.17999267578125,14.800000190734863 C-142.17999267578125,14.800000190734863 -154.34100341796875,30.783000946044922 -154.34100341796875,30.783000946044922 C-155.39599609375,32.16999816894531 -157.37600708007812,32.4379997253418 -158.76300048828125,31.382999420166016 C-158.76300048828125,31.382999420166016 -174.7449951171875,19.222000122070312 -174.7449951171875,19.222000122070312 C-176.1320037841797,18.16699981689453 -176.4010009765625,16.187000274658203 -175.3459930419922,14.800000190734863 C-175.3459930419922,14.800000190734863 -163.18499755859375,-1.1829999685287476 -163.18499755859375,-1.1829999685287476 C-162.1300048828125,-2.569999933242798 -160.1490020751953,-2.8380000591278076 -158.76199340820312,-1.7829999923706055 C-158.76199340820312,-1.7829999923706055 -142.77999877929688,10.378000259399414 -142.77999877929688,10.378000259399414 C-141.39300537109375,11.432999610900879 -141.125,13.413000106811523 -142.17999267578125,14.800000190734863z"></path></g><g opacity="1" transform="matrix(1,0,0,1,0,0)"><path fill="rgb(214,47,88)" fill-opacity="1" d=" M-142.17999267578125,14.800000190734863 C-142.17999267578125,14.800000190734863 -152.7969970703125,28.753999710083008 -152.7969970703125,28.753999710083008 C-153.8520050048828,30.141000747680664 -155.83299255371094,30.40999984741211 -157.22000122070312,29.354999542236328 C-157.22000122070312,29.354999542236328 -171.17300415039062,18.73699951171875 -171.17300415039062,18.73699951171875 C-172.55999755859375,17.68199920654297 -172.82899475097656,15.70199966430664 -171.7740020751953,14.3149995803833 C-171.7740020751953,14.3149995803833 -161.15699768066406,0.3610000014305115 -161.15699768066406,0.3610000014305115 C-160.1020050048828,-1.0260000228881836 -158.12100219726562,-1.2949999570846558 -156.73399353027344,-0.23999999463558197 C-156.73399353027344,-0.23999999463558197 -142.77999877929688,10.378000259399414 -142.77999877929688,10.378000259399414 C-141.39300537109375,11.432999610900879 -141.125,13.413000106811523 -142.17999267578125,14.800000190734863z"></path></g></g></g></g><g clip-path="url(#__lottie_element_25940)" style="display: block;" transform="matrix(1,0,0,1,60,0)" opacity="1"><g style="display: block;" transform="matrix(-0.970840573310852,-0.2397260218858719,0.2397260218858719,-0.970840573310852,447.3110656738281,268.9224548339844)" opacity="1"><g opacity="1" transform="matrix(1,0,0,1,0,0)"><g opacity="1" transform="matrix(1,0,0,1,0,0)"><path fill="rgb(188,188,66)" fill-opacity="1" d=" M166.802001953125,39.757999420166016 C166.802001953125,39.757999420166016 175.57699584960938,57.821998596191406 175.57699584960938,57.821998596191406 C176.33900451660156,59.38999938964844 175.68499755859375,61.27799987792969 174.11700439453125,62.040000915527344 C174.11700439453125,62.040000915527344 156.05299377441406,70.81500244140625 156.05299377441406,70.81500244140625 C154.48500061035156,71.5770034790039 152.5970001220703,70.92400360107422 151.8350067138672,69.35600280761719 C151.8350067138672,69.35600280761719 143.05999755859375,51.29100036621094 143.05999755859375,51.29100036621094 C142.29800415039062,49.722999572753906 142.95199584960938,47.83599853515625 144.52000427246094,47.07400131225586 C144.52000427246094,47.07400131225586 162.58399963378906,38.29899978637695 162.58399963378906,38.29899978637695 C164.15199279785156,37.5369987487793 166.0399932861328,38.189998626708984 166.802001953125,39.757999420166016z"></path></g><g opacity="1" transform="matrix(1,0,0,1,0,0)"><path fill="rgb(248,247,74)" fill-opacity="1" d=" M166.802001953125,39.757999420166016 C166.802001953125,39.757999420166016 174.46299743652344,55.529998779296875 174.46299743652344,55.529998779296875 C175.22500610351562,57.097999572753906 174.5709991455078,58.986000061035156 173.0030059814453,59.74800109863281 C173.0030059814453,59.74800109863281 157.23199462890625,67.40899658203125 157.23199462890625,67.40899658203125 C155.66400146484375,68.1709976196289 153.7760009765625,67.51699829101562 153.01400756835938,65.9489974975586 C153.01400756835938,65.9489974975586 145.35299682617188,50.178001403808594 145.35299682617188,50.178001403808594 C144.59100341796875,48.61000061035156 145.2449951171875,46.72200012207031 146.81300354003906,45.959999084472656 C146.81300354003906,45.959999084472656 162.58399963378906,38.29899978637695 162.58399963378906,38.29899978637695 C164.15199279785156,37.5369987487793 166.0399932861328,38.189998626708984 166.802001953125,39.757999420166016z"></path></g></g></g></g><g clip-path="url(#__lottie_element_25931)" style="display: block;" transform="matrix(1,0,0,1,-60,0)" opacity="1"><g style="display: block;" transform="matrix(-0.3572630286216736,-0.9340038299560547,0.9340038299560547,-0.3572630286216736,271.0425720214844,52.45697784423828)" opacity="1"><g opacity="1" transform="matrix(1,0,0,1,0,0)"><g opacity="1" transform="matrix(1,0,0,1,0,0)"><path fill="rgb(206,25,77)" fill-opacity="1" d=" M-61.834999084472656,-162.2469940185547 C-61.834999084472656,-162.2469940185547 -43.86899948120117,-153.2729949951172 -43.86899948120117,-153.2729949951172 C-42.310001373291016,-152.49400329589844 -41.67599868774414,-150.59800720214844 -42.45500183105469,-149.03900146484375 C-42.45500183105469,-149.03900146484375 -51.43000030517578,-131.072998046875 -51.43000030517578,-131.072998046875 C-52.20899963378906,-129.51400756835938 -54.104000091552734,-128.88099670410156 -55.66299819946289,-129.66000366210938 C-55.66299819946289,-129.66000366210938 -73.62899780273438,-138.63499450683594 -73.62899780273438,-138.63499450683594 C-75.18800354003906,-139.41400146484375 -75.82099914550781,-141.3090057373047 -75.04199981689453,-142.8679962158203 C-75.04199981689453,-142.8679962158203 -66.06800079345703,-160.83399963378906 -66.06800079345703,-160.83399963378906 C-65.28900146484375,-162.39300537109375 -63.39400100708008,-163.0260009765625 -61.834999084472656,-162.2469940185547z"></path></g><g opacity="1" transform="matrix(1,0,0,1,0,0)"><path fill="rgb(249,88,144)" fill-opacity="1" d=" M-61.834999084472656,-162.2469940185547 C-61.834999084472656,-162.2469940185547 -46.14899826049805,-154.41200256347656 -46.14899826049805,-154.41200256347656 C-44.59000015258789,-153.63299560546875 -43.957000732421875,-151.73699951171875 -44.736000061035156,-150.17799377441406 C-44.736000061035156,-150.17799377441406 -52.57099914550781,-134.4929962158203 -52.57099914550781,-134.4929962158203 C-53.349998474121094,-132.9340057373047 -55.24599838256836,-132.30099487304688 -56.80500030517578,-133.0800018310547 C-56.80500030517578,-133.0800018310547 -72.48999786376953,-140.9149932861328 -72.48999786376953,-140.9149932861328 C-74.04900360107422,-141.69400024414062 -74.68199920654297,-143.58999633789062 -73.90299987792969,-145.1490020751953 C-73.90299987792969,-145.1490020751953 -66.06800079345703,-160.83399963378906 -66.06800079345703,-160.83399963378906 C-65.28900146484375,-162.39300537109375 -63.39400100708008,-163.0260009765625 -61.834999084472656,-162.2469940185547z"></path></g></g></g></g><g clip-path="url(#__lottie_element_25922)" style="display: block;" transform="matrix(1,0,0,1,120,0)" opacity="1"><g style="display: block;" transform="matrix(0.5340676307678223,0.8454417586326599,-0.8454417586326599,0.5340676307678223,253.64773559570312,-72.07627868652344)" opacity="1"><g opacity="1" transform="matrix(1,0,0,1,0,0)"><g opacity="1" transform="matrix(1,0,0,1,0,0)"><path fill="rgb(209,137,39)" fill-opacity="1" d=" M182.0709991455078,116.38600158691406 C182.0709991455078,116.38600158691406 173.33700561523438,134.468994140625 173.33700561523438,134.468994140625 C172.57899475097656,136.03900146484375 170.69200134277344,136.69700622558594 169.1219940185547,135.93899536132812 C169.1219940185547,135.93899536132812 151.03799438476562,127.20500183105469 151.03799438476562,127.20500183105469 C149.46800231933594,126.4469985961914 148.81100463867188,124.55999755859375 149.56900024414062,122.98999786376953 C149.56900024414062,122.98999786376953 158.30299377441406,104.90599822998047 158.30299377441406,104.90599822998047 C159.06100463867188,103.33599853515625 160.947998046875,102.67900085449219 162.51800537109375,103.43699645996094 C162.51800537109375,103.43699645996094 180.6009979248047,112.1709976196289 180.6009979248047,112.1709976196289 C182.17100524902344,112.92900085449219 182.82899475097656,114.81600189208984 182.0709991455078,116.38600158691406z"></path></g><g opacity="1" transform="matrix(1,0,0,1,0,0)"><path fill="rgb(252,152,38)" fill-opacity="1" d=" M182.0709991455078,116.38600158691406 C182.0709991455078,116.38600158691406 174.44500732421875,132.1739959716797 174.44500732421875,132.1739959716797 C173.68699645996094,133.74400329589844 171.80099487304688,134.4010009765625 170.2310028076172,133.64300537109375 C170.2310028076172,133.64300537109375 154.44200134277344,126.01799774169922 154.44200134277344,126.01799774169922 C152.8719940185547,125.26000213623047 152.21499633789062,123.37300109863281 152.97300720214844,121.8030014038086 C152.97300720214844,121.8030014038086 160.59800720214844,106.01499938964844 160.59800720214844,106.01499938964844 C161.3560028076172,104.44499969482422 163.2429962158203,103.78700256347656 164.81300354003906,104.54499816894531 C164.81300354003906,104.54499816894531 180.6009979248047,112.1709976196289 180.6009979248047,112.1709976196289 C182.17100524902344,112.92900085449219 182.82899475097656,114.81600189208984 182.0709991455078,116.38600158691406z"></path></g></g></g></g><g clip-path="url(#__lottie_element_25913)" style="display: block;" transform="matrix(-1,0,0,1,512,0)" opacity="1"><g style="display: block;" transform="matrix(0.952998697757721,-0.3029744625091553,0.3029744625091553,0.952998697757721,279.03216552734375,238.0499725341797)" opacity="1"><g opacity="1" transform="matrix(1,0,0,1,0,0)"><g opacity="1" transform="matrix(1,0,0,1,0,0)"><path fill="rgb(24,77,155)" fill-opacity="1" d=" M27.089000701904297,-157.71499633789062 C27.089000701904297,-157.71499633789062 9.33899974822998,-148.3209991455078 9.33899974822998,-148.3209991455078 C7.797999858856201,-147.50599670410156 5.888000011444092,-148.09300231933594 5.072999954223633,-149.63400268554688 C5.072999954223633,-149.63400268554688 -4.321000099182129,-167.38400268554688 -4.321000099182129,-167.38400268554688 C-5.136000156402588,-168.9250030517578 -4.548999786376953,-170.8350067138672 -3.007999897003174,-171.64999389648438 C-3.007999897003174,-171.64999389648438 14.741999626159668,-181.04400634765625 14.741999626159668,-181.04400634765625 C16.283000946044922,-181.85899353027344 18.19300079345703,-181.27200317382812 19.007999420166016,-179.7310028076172 C19.007999420166016,-179.7310028076172 28.402000427246094,-161.9810028076172 28.402000427246094,-161.9810028076172 C29.216999053955078,-160.44000244140625 28.6299991607666,-158.52999877929688 27.089000701904297,-157.71499633789062z"></path></g><g opacity="1" transform="matrix(1,0,0,1,0,0)"><path fill="rgb(44,103,234)" fill-opacity="1" d=" M27.089000701904297,-157.71499633789062 C27.089000701904297,-157.71499633789062 11.592000007629395,-149.51300048828125 11.592000007629395,-149.51300048828125 C10.050999641418457,-148.697998046875 8.140999794006348,-149.28599548339844 7.326000213623047,-150.82699584960938 C7.326000213623047,-150.82699584960938 -0.8759999871253967,-166.32400512695312 -0.8759999871253967,-166.32400512695312 C-1.690999984741211,-167.86500549316406 -1.1039999723434448,-169.7740020751953 0.43700000643730164,-170.58900451660156 C0.43700000643730164,-170.58900451660156 15.934000015258789,-178.79100036621094 15.934000015258789,-178.79100036621094 C17.475000381469727,-179.6060028076172 19.385000228881836,-179.0189971923828 20.200000762939453,-177.47799682617188 C20.200000762939453,-177.47799682617188 28.402000427246094,-161.9810028076172 28.402000427246094,-161.9810028076172 C29.216999053955078,-160.44000244140625 28.6299991607666,-158.52999877929688 27.089000701904297,-157.71499633789062z"></path></g></g></g></g><g clip-path="url(#__lottie_element_25904)" style="display: block;" transform="matrix(-1,0,0,1,412,0)" opacity="1"><g style="display: block;" transform="matrix(0.8868385553359985,-0.46207937598228455,0.46207937598228455,0.8868385553359985,375.3837890625,45.83464050292969)" opacity="1"><g opacity="1" transform="matrix(1,0,0,1,0,0)"><g opacity="1" transform="matrix(1,0,0,1,0,0)"><path fill="rgb(206,25,77)" fill-opacity="1" d=" M-142.17999267578125,14.800000190734863 C-142.17999267578125,14.800000190734863 -154.34100341796875,30.783000946044922 -154.34100341796875,30.783000946044922 C-155.39599609375,32.16999816894531 -157.37600708007812,32.4379997253418 -158.76300048828125,31.382999420166016 C-158.76300048828125,31.382999420166016 -174.7449951171875,19.222000122070312 -174.7449951171875,19.222000122070312 C-176.1320037841797,18.16699981689453 -176.4010009765625,16.187000274658203 -175.3459930419922,14.800000190734863 C-175.3459930419922,14.800000190734863 -163.18499755859375,-1.1829999685287476 -163.18499755859375,-1.1829999685287476 C-162.1300048828125,-2.569999933242798 -160.1490020751953,-2.8380000591278076 -158.76199340820312,-1.7829999923706055 C-158.76199340820312,-1.7829999923706055 -142.77999877929688,10.378000259399414 -142.77999877929688,10.378000259399414 C-141.39300537109375,11.432999610900879 -141.125,13.413000106811523 -142.17999267578125,14.800000190734863z"></path></g><g opacity="1" transform="matrix(1,0,0,1,0,0)"><path fill="rgb(214,47,88)" fill-opacity="1" d=" M-142.17999267578125,14.800000190734863 C-142.17999267578125,14.800000190734863 -152.7969970703125,28.753999710083008 -152.7969970703125,28.753999710083008 C-153.8520050048828,30.141000747680664 -155.83299255371094,30.40999984741211 -157.22000122070312,29.354999542236328 C-157.22000122070312,29.354999542236328 -171.17300415039062,18.73699951171875 -171.17300415039062,18.73699951171875 C-172.55999755859375,17.68199920654297 -172.82899475097656,15.70199966430664 -171.7740020751953,14.3149995803833 C-171.7740020751953,14.3149995803833 -161.15699768066406,0.3610000014305115 -161.15699768066406,0.3610000014305115 C-160.1020050048828,-1.0260000228881836 -158.12100219726562,-1.2949999570846558 -156.73399353027344,-0.23999999463558197 C-156.73399353027344,-0.23999999463558197 -142.77999877929688,10.378000259399414 -142.77999877929688,10.378000259399414 C-141.39300537109375,11.432999610900879 -141.125,13.413000106811523 -142.17999267578125,14.800000190734863z"></path></g></g></g></g><g clip-path="url(#__lottie_element_25895)" style="display: block;" transform="matrix(-1,0,0,1,572,0)" opacity="1"><g style="display: block;" transform="matrix(-0.29468899965286255,0.9555932283401489,-0.9555932283401489,-0.29468899965286255,373.7330627441406,-36.138572692871094)" opacity="1"><g opacity="1" transform="matrix(1,0,0,1,0,0)"><g opacity="1" transform="matrix(1,0,0,1,0,0)"><path fill="rgb(188,188,66)" fill-opacity="1" d=" M166.802001953125,39.757999420166016 C166.802001953125,39.757999420166016 175.57699584960938,57.821998596191406 175.57699584960938,57.821998596191406 C176.33900451660156,59.38999938964844 175.68499755859375,61.27799987792969 174.11700439453125,62.040000915527344 C174.11700439453125,62.040000915527344 156.05299377441406,70.81500244140625 156.05299377441406,70.81500244140625 C154.48500061035156,71.5770034790039 152.5970001220703,70.92400360107422 151.8350067138672,69.35600280761719 C151.8350067138672,69.35600280761719 143.05999755859375,51.29100036621094 143.05999755859375,51.29100036621094 C142.29800415039062,49.722999572753906 142.95199584960938,47.83599853515625 144.52000427246094,47.07400131225586 C144.52000427246094,47.07400131225586 162.58399963378906,38.29899978637695 162.58399963378906,38.29899978637695 C164.15199279785156,37.5369987487793 166.0399932861328,38.189998626708984 166.802001953125,39.757999420166016z"></path></g><g opacity="1" transform="matrix(1,0,0,1,0,0)"><path fill="rgb(248,247,74)" fill-opacity="1" d=" M166.802001953125,39.757999420166016 C166.802001953125,39.757999420166016 174.46299743652344,55.529998779296875 174.46299743652344,55.529998779296875 C175.22500610351562,57.097999572753906 174.5709991455078,58.986000061035156 173.0030059814453,59.74800109863281 C173.0030059814453,59.74800109863281 157.23199462890625,67.40899658203125 157.23199462890625,67.40899658203125 C155.66400146484375,68.1709976196289 153.7760009765625,67.51699829101562 153.01400756835938,65.9489974975586 C153.01400756835938,65.9489974975586 145.35299682617188,50.178001403808594 145.35299682617188,50.178001403808594 C144.59100341796875,48.61000061035156 145.2449951171875,46.72200012207031 146.81300354003906,45.959999084472656 C146.81300354003906,45.959999084472656 162.58399963378906,38.29899978637695 162.58399963378906,38.29899978637695 C164.15199279785156,37.5369987487793 166.0399932861328,38.189998626708984 166.802001953125,39.757999420166016z"></path></g></g></g></g><g clip-path="url(#__lottie_element_25886)" style="display: block;" transform="matrix(-1,0,0,1,452,0)" opacity="1"><g style="display: block;" transform="matrix(0.6113541722297668,-0.6259961128234863,0.6259961128234863,0.6113541722297668,298.8978576660156,120.47111511230469)" opacity="1"><g opacity="1" transform="matrix(1,0,0,1,0,0)"><g opacity="1" transform="matrix(1,0,0,1,0,0)"><path fill="rgb(206,25,77)" fill-opacity="1" d=" M-61.834999084472656,-162.2469940185547 C-61.834999084472656,-162.2469940185547 -43.86899948120117,-153.2729949951172 -43.86899948120117,-153.2729949951172 C-42.310001373291016,-152.49400329589844 -41.67599868774414,-150.59800720214844 -42.45500183105469,-149.03900146484375 C-42.45500183105469,-149.03900146484375 -51.43000030517578,-131.072998046875 -51.43000030517578,-131.072998046875 C-52.20899963378906,-129.51400756835938 -54.104000091552734,-128.88099670410156 -55.66299819946289,-129.66000366210938 C-55.66299819946289,-129.66000366210938 -73.62899780273438,-138.63499450683594 -73.62899780273438,-138.63499450683594 C-75.18800354003906,-139.41400146484375 -75.82099914550781,-141.3090057373047 -75.04199981689453,-142.8679962158203 C-75.04199981689453,-142.8679962158203 -66.06800079345703,-160.83399963378906 -66.06800079345703,-160.83399963378906 C-65.28900146484375,-162.39300537109375 -63.39400100708008,-163.0260009765625 -61.834999084472656,-162.2469940185547z"></path></g><g opacity="1" transform="matrix(1,0,0,1,0,0)"><path fill="rgb(249,88,144)" fill-opacity="1" d=" M-61.834999084472656,-162.2469940185547 C-61.834999084472656,-162.2469940185547 -46.14899826049805,-154.41200256347656 -46.14899826049805,-154.41200256347656 C-44.59000015258789,-153.63299560546875 -43.957000732421875,-151.73699951171875 -44.736000061035156,-150.17799377441406 C-44.736000061035156,-150.17799377441406 -52.57099914550781,-134.4929962158203 -52.57099914550781,-134.4929962158203 C-53.349998474121094,-132.9340057373047 -55.24599838256836,-132.30099487304688 -56.80500030517578,-133.0800018310547 C-56.80500030517578,-133.0800018310547 -72.48999786376953,-140.9149932861328 -72.48999786376953,-140.9149932861328 C-74.04900360107422,-141.69400024414062 -74.68199920654297,-143.58999633789062 -73.90299987792969,-145.1490020751953 C-73.90299987792969,-145.1490020751953 -66.06800079345703,-160.83399963378906 -66.06800079345703,-160.83399963378906 C-65.28900146484375,-162.39300537109375 -63.39400100708008,-163.0260009765625 -61.834999084472656,-162.2469940185547z"></path></g></g></g></g><g style="display: none;"><g><g><path></path></g><g><path></path></g></g></g><g style="display: none;"><g><g><path></path></g><g><path></path></g></g></g><g style="display: none;"><g><g><path></path></g><g><path></path></g></g></g><g style="display: none;"><g><g><path></path></g><g><path></path></g></g></g><g style="display: none;"><g><g><path></path></g><g><path></path></g></g></g><g style="display: none;"><g><g><path></path></g><g><path></path></g></g></g><g style="display: none;"><g><g><path></path></g><g><path></path></g></g></g><g style="display: none;"><g><g><path></path></g><g><path></path></g></g></g><g style="display: none;"><g><g><path></path></g><g><path></path></g></g></g><g style="display: none;"><g><g><path></path></g><g><path></path></g></g></g><g style="display: none;"><g><path stroke-linecap="round" stroke-linejoin="round" fill-opacity="0"></path></g><g><path stroke-linecap="round" stroke-linejoin="round" fill-opacity="0"></path></g></g><g style="display: none;"><g><path stroke-linecap="round" stroke-linejoin="round" fill-opacity="0"></path></g><g><path stroke-linecap="round" stroke-linejoin="round" fill-opacity="0"></path></g></g><g style="display: block;" transform="matrix(1,0,0,1,256,256)" opacity="1"><g opacity="1" transform="matrix(1,0,0,1,0,0)"><path stroke-linecap="round" stroke-linejoin="round" fill-opacity="0" stroke="rgb(193,33,74)" stroke-opacity="1" stroke-width="15" d=" M162.8679962158203,-109.21800231933594 C161.968994140625,-109.23799896240234 161.0590057373047,-109.26300048828125 160.13800048828125,-109.29299926757812 C107.86900329589844,-111.00900268554688 224.88400268554688,-72.7249984741211 174.02099609375,-52.880001068115234 C100,-24 146.46600341796875,-24.891000747680664 170.8679962158203,-6.01200008392334 C171.2969970703125,-5.679999828338623 171.7270050048828,-5.3429999351501465 172.15899658203125,-5.000999927520752"></path></g><g opacity="1" transform="matrix(1,0,0,1,0,0)"><path stroke-linecap="round" stroke-linejoin="round" fill-opacity="0" stroke="rgb(251,73,132)" stroke-opacity="1" stroke-width="15" d=" M158.72000122070312,-113.15599822998047 C155.96600341796875,-113.1510009765625 153.1060028076172,-113.19599914550781 150.13800048828125,-113.29299926757812 C97.86900329589844,-115.00900268554688 217.88400268554688,-75.7249984741211 167.02099609375,-55.880001068115234 C93.84600067138672,-27.329999923706055 140.37399291992188,-21.034000396728516 165.02200317382812,-2.6549999713897705"></path></g></g><g style="display: none;"><g><g><path></path></g><g><path></path></g></g></g><g style="display: none;"><g><g><path></path></g><g><path></path></g></g></g><g style="display: none;"><g><g><path></path></g><g><path></path></g></g></g><g style="display: none;"><g><g><path></path></g><g><path></path></g></g></g><g style="display: none;"><g><g><path></path></g><g><path></path></g></g></g><g style="display: none;"><g><g><path></path></g><g><path></path></g></g></g><g style="display: none;"><g><g><path></path></g><g><path></path></g></g></g></g></svg>