<svg xmlns="http://www.w3.org/2000/svg" viewBox="0 0 512 512" width="512" height="512" style="width: 100%; height: 100%; transform: translate3d(0,0,0);" preserveAspectRatio="xMidYMid meet"><defs><clipPath id="__lottie_element_25985"><rect width="512" height="512" x="0" y="0"></rect></clipPath></defs><g clip-path="url(#__lottie_element_25985)"><g style="display: block;" transform="matrix(1,0,0,1,241,258)" opacity="1"><g opacity="0.1" transform="matrix(1,0,0,1,0,0)"><path fill="rgb(0,0,0)" fill-opacity="1" d=" M211.50999450683594,3.924999952316284 C211.50999450683594,112.18599700927734 123.74700164794922,199.9499969482422 15.486000061035156,199.9499969482422 C-92.7750015258789,199.9499969482422 -180.53900146484375,112.18599700927734 -180.53900146484375,3.924999952316284 C-180.53900146484375,-104.33599853515625 -92.7750015258789,-192.0989990234375 15.486000061035156,-192.0989990234375 C123.74700164794922,-192.0989990234375 211.50999450683594,-104.33599853515625 211.50999450683594,3.924999952316284z"></path></g><g opacity="1" transform="matrix(1,0,0,1,0,0)"><g opacity="1" transform="matrix(1,0,0,1,0,0)"><path fill="rgb(255,173,0)" fill-opacity="1" d=" M204.36099243164062,-11.074999809265137 C204.36099243164062,93.23799896240234 119.79900360107422,177.80099487304688 15.486000061035156,177.80099487304688 C-88.8270034790039,177.80099487304688 -173.38999938964844,93.23799896240234 -173.38999938964844,-11.074999809265137 C-173.38999938964844,-115.38800048828125 -88.8270034790039,-199.9499969482422 15.486000061035156,-199.9499969482422 C119.79900360107422,-199.9499969482422 204.36099243164062,-115.38800048828125 204.36099243164062,-11.074999809265137z"></path><path stroke-linecap="round" stroke-linejoin="round" fill-opacity="0" stroke="rgb(255,118,42)" stroke-opacity="1" stroke-width="8" d=" M204.36099243164062,-11.074999809265137 C204.36099243164062,93.23799896240234 119.79900360107422,177.80099487304688 15.486000061035156,177.80099487304688 C-88.8270034790039,177.80099487304688 -173.38999938964844,93.23799896240234 -173.38999938964844,-11.074999809265137 C-173.38999938964844,-115.38800048828125 -88.8270034790039,-199.9499969482422 15.486000061035156,-199.9499969482422 C119.79900360107422,-199.9499969482422 204.36099243164062,-115.38800048828125 204.36099243164062,-11.074999809265137z"></path></g><g opacity="1" transform="matrix(1,0,0,1,0,0)"><path fill="rgb(255,207,0)" fill-opacity="1" d=" M183.89300537109375,-10.362000465393066 C182.43600463867188,84.66699981689453 105.88200378417969,160.5469970703125 12.904000282287598,159.1219940185547 C-80.0739974975586,157.69700622558594 -154.26600646972656,79.50599670410156 -152.80999755859375,-15.52299976348877 C-151.35299682617188,-110.5510025024414 -74.79900360107422,-186.4320068359375 18.179000854492188,-185.0070037841797 C111.15699768066406,-183.58200073242188 185.35000610351562,-105.39099884033203 183.89300537109375,-10.362000465393066z"></path></g><g opacity="0.9" transform="matrix(1,0,0,1,0,0)"><path fill="rgb(255,222,102)" fill-opacity="1" d=" M164.7530059814453,-53.50299835205078 C164.7530059814453,19.139999389648438 97.92400360107422,-38.32500076293945 15.486000061035156,-38.32500076293945 C-66.9520034790039,-38.32500076293945 -133.78199768066406,19.139999389648438 -133.78199768066406,-53.50299835205078 C-133.78199768066406,-126.14600372314453 -66.9520034790039,-185.03599548339844 15.486000061035156,-185.03599548339844 C97.92400360107422,-185.03599548339844 164.7530059814453,-126.14600372314453 164.7530059814453,-53.50299835205078z"></path></g><g opacity="1" transform="matrix(1,0,0,1,0,0)"><g opacity="1" transform="matrix(1,0,0,1,0,0)"><path stroke-linecap="round" stroke-linejoin="round" fill-opacity="0" stroke="rgb(255,255,255)" stroke-opacity="1" stroke-width="6" d=" M51.858001708984375,-180.8159942626953 C53.395999908447266,-180.4810028076172 54.992000579833984,-180.11199951171875 56.63600158691406,-179.70599365234375"></path></g><g opacity="1" transform="matrix(1,0,0,1,0,0)"><path stroke-linecap="round" stroke-linejoin="round" fill-opacity="0" stroke="rgb(255,255,255)" stroke-opacity="1" stroke-width="6" d=" M30.503999710083008,-184.03599548339844 C30.503999710083008,-184.03599548339844 35.37099838256836,-183.77499389648438 43.09400177001953,-182.4969940185547"></path></g></g></g></g><g style="display: block;" transform="matrix(1,0,0,1,241,258)" opacity="1"><g opacity="1" transform="matrix(1,0,0,1,0,0)"><path fill="rgb(255,225,156)" fill-opacity="1" d=" M60.21099853515625,100.46600341796875 C48.88600158691406,88.29199981689453 -17.885000228881836,88.29199981689453 -29.209999084472656,100.46600341796875 C-39.49599838256836,111.52300262451172 -40.29100036621094,121.75199890136719 -36.948001861572266,123.03800201416016 C-32.75,124.65299987792969 -14.418000221252441,105.90299987792969 15.479999542236328,105.58100128173828 C45.37799835205078,105.90299987792969 63.71099853515625,124.65299987792969 67.90899658203125,123.03800201416016 C71.25199890136719,121.75199890136719 70.49700164794922,111.52300262451172 60.21099853515625,100.46600341796875z"></path></g><g opacity="1" transform="matrix(1,0,0,1,0,0)"><path fill="rgb(255,173,0)" fill-opacity="1" d=" M57.13800048828125,90.38099670410156 C45.8129997253418,78.20700073242188 30.190000534057617,68.49500274658203 15.479999542236328,68.49500274658203 C0.746999979019165,68.49500274658203 -14.85200023651123,78.20700073242188 -26.177000045776367,90.38099670410156 C-36.4630012512207,101.43800354003906 -40.29100036621094,117.76499938964844 -36.948001861572266,119.0510025024414 C-32.75,120.66600036621094 -14.418000221252441,96.81700134277344 15.479999542236328,96.49500274658203 C45.37799835205078,96.81700134277344 63.71099853515625,120.66600036621094 67.90899658203125,119.0510025024414 C71.25199890136719,117.76499938964844 67.42400360107422,101.43800354003906 57.13800048828125,90.38099670410156z"></path></g><g opacity="1" transform="matrix(1,0,0,1,0,0)"><path fill="rgb(143,58,0)" fill-opacity="1" d=" M57.13800048828125,96.38099670410156 C45.8129997253418,84.20700073242188 30.190000534057617,74.49500274658203 15.479999542236328,74.49500274658203 C0.746999979019165,74.49500274658203 -14.85200023651123,84.20700073242188 -26.177000045776367,96.38099670410156 C-36.4630012512207,107.43800354003906 -40.29100036621094,117.66600036621094 -36.948001861572266,118.9520034790039 C-32.75,120.56700134277344 -14.418000221252441,101.81700134277344 15.479999542236328,101.49500274658203 C45.37799835205078,101.81700134277344 63.71099853515625,120.56700134277344 67.90899658203125,118.9520034790039 C71.25199890136719,117.66600036621094 67.42400360107422,107.43800354003906 57.13800048828125,96.38099670410156z"></path></g><g opacity="1" transform="matrix(1,0,0,1,0,0)"><path fill="rgb(107,32,0)" fill-opacity="1" d=" M68.29299926757812,118.73600006103516 C66.75299835205078,114.47599792480469 62.99300003051758,108.45600128173828 57.132999420166016,102.16600036621094 C45.8129997253418,89.99600219726562 30.19300079345703,81.2760009765625 15.482999801635742,81.2760009765625 C0.7429999709129333,81.2760009765625 -14.847000122070312,89.99600219726562 -26.177000045776367,102.16600036621094 C-32.027000427246094,108.45600128173828 -35.7869987487793,114.47599792480469 -37.32699966430664,118.73600006103516 C-39.957000732421875,116.80599975585938 -36.0369987487793,106.97599792480469 -26.177000045776367,96.3759994506836 C-14.847000122070312,84.20600128173828 0.7429999709129333,74.49600219726562 15.482999801635742,74.49600219726562 C30.19300079345703,74.49600219726562 45.8129997253418,84.20600128173828 57.132999420166016,96.3759994506836 C66.99299621582031,106.97599792480469 70.9229965209961,116.80599975585938 68.29299926757812,118.73600006103516z"></path></g></g><g style="display: block;" transform="matrix(1,0,0,1,241,258)" opacity="0.8"><g opacity="1" transform="matrix(1,0,0,1,20,10)"><path fill="rgb(255,173,0)" fill-opacity="1" d=" M-171.6820068359375,-82.322998046875 C-170.5,-42.5 -137,-31 -101.5,-34.04100036621094 C-70.97000122070312,-36.65599822998047 -48.069000244140625,-61.10200119018555 -49.21799850463867,-91.7229995727539 C-51,-139.22500610351562 -85.41600036621094,-183.16700744628906 -85.41600036621094,-183.16700744628906 C-85.41600036621094,-183.16700744628906 -173.32899475097656,-137.83599853515625 -171.6820068359375,-82.322998046875z"></path></g></g><g style="display: none;"><g><g><path></path></g><g><path></path></g><g><path></path></g><g><path></path></g></g><g><g><path></path></g><g><path></path></g><g><path></path></g><g><path></path></g></g></g><g style="display: block;" transform="matrix(1,0,0,1,241,258)" opacity="1"><g opacity="1" transform="matrix(1,0,0,1,0,0)"><g opacity="1" transform="matrix(1,0,0,1,0,0)"><path fill="rgb(255,173,0)" fill-opacity="1" d=" M40.619998931884766,16.80299949645996 C39.07699966430664,12.003000259399414 48.590999603271484,-5.482999801635742 71.1050033569336,-13.083000183105469 C102.18900299072266,-23.576000213623047 140.4530029296875,-5.7829999923706055 143.4770050048828,16.076000213623047 C145.79100036621094,32.803001403808594 127.2770004272461,8.65999984741211 91.45600128173828,8.946000099182129 C53.185001373291016,9.251999855041504 43.34400177001953,25.277000427246094 40.619998931884766,16.80299949645996z"></path></g><g opacity="1" transform="matrix(1,0,0,1,0,0)"><path fill="rgb(255,225,156)" fill-opacity="1" d=" M40.619998931884766,16.80299949645996 C39.07699966430664,12.003000259399414 48.590999603271484,-5.482999801635742 71.1050033569336,-13.083000183105469 C102.18900299072266,-23.576000213623047 140.4530029296875,-5.7829999923706055 143.4770050048828,16.076000213623047 C145.79100036621094,32.803001403808594 127.2770004272461,8.65999984741211 91.45600128173828,8.946000099182129 C53.185001373291016,9.251999855041504 43.34400177001953,25.277000427246094 40.619998931884766,16.80299949645996z"></path></g><g opacity="1" transform="matrix(1,0,0,1,0,0)"><path fill="rgb(143,58,0)" fill-opacity="1" d=" M40.619998931884766,11.003000259399414 C39.07699966430664,6.203000068664551 48.590999603271484,-11.282999992370605 71.1050033569336,-18.882999420166016 C102.18900299072266,-29.375999450683594 140.4530029296875,-11.583000183105469 143.4770050048828,10.276000022888184 C145.79100036621094,27.003000259399414 127.2770004272461,2.859999895095825 91.45600128173828,3.1459999084472656 C53.185001373291016,3.4519999027252197 43.34400177001953,19.476999282836914 40.619998931884766,11.003000259399414z"></path></g><g opacity="1" transform="matrix(1,0,0,1,0,0)"><path fill="rgb(107,32,0)" fill-opacity="1" d=" M142.91400146484375,15.522000312805176 C137.2740020751953,-5.058000087738037 100.89399719238281,-20.97800064086914 71.10399627685547,-10.928000450134277 C54.534000396728516,-5.3379998207092285 45.00400161743164,5.623000144958496 41.75400161743164,12.92300033569336 C41.284000396728516,12.52299976348877 40.91400146484375,11.902999877929688 40.624000549316406,11.003000259399414 C39.07400131225586,6.203000068664551 48.59400177001953,-11.286999702453613 71.10399627685547,-18.886999130249023 C102.19400024414062,-29.37700080871582 140.45399475097656,-11.588000297546387 143.4739990234375,10.272000312805176 C143.86399841308594,13.052000045776367 143.6739959716797,14.70199966430664 142.91400146484375,15.522000312805176z"></path></g></g><g opacity="1" transform="matrix(1,0,0,1,0,0)"><g opacity="1" transform="matrix(1,0,0,1,0,0)"><path fill="rgb(255,173,0)" fill-opacity="1" d=" M-9.64900016784668,16.80299949645996 C-8.105999946594238,12.003000259399414 -17.621000289916992,-5.482999801635742 -40.1349983215332,-13.083000183105469 C-71.21900177001953,-23.576000213623047 -109.48200225830078,-5.7829999923706055 -112.50599670410156,16.076000213623047 C-114.81999969482422,32.803001403808594 -96.30599975585938,8.65999984741211 -60.48500061035156,8.946000099182129 C-22.214000701904297,9.251999855041504 -12.373000144958496,25.277000427246094 -9.64900016784668,16.80299949645996z"></path></g><g opacity="1" transform="matrix(1,0,0,1,0,0)"><path fill="rgb(255,225,156)" fill-opacity="1" d=" M-9.64900016784668,16.80299949645996 C-8.105999946594238,12.003000259399414 -17.621000289916992,-5.482999801635742 -40.1349983215332,-13.083000183105469 C-71.21900177001953,-23.576000213623047 -109.48200225830078,-5.7829999923706055 -112.50599670410156,16.076000213623047 C-114.81999969482422,32.803001403808594 -96.30599975585938,8.65999984741211 -60.48500061035156,8.946000099182129 C-22.214000701904297,9.251999855041504 -12.373000144958496,25.277000427246094 -9.64900016784668,16.80299949645996z"></path></g><g opacity="1" transform="matrix(1,0,0,1,0,0)"><path fill="rgb(143,58,0)" fill-opacity="1" d=" M-9.64900016784668,11.003000259399414 C-8.105999946594238,6.203000068664551 -17.621000289916992,-11.282999992370605 -40.1349983215332,-18.882999420166016 C-71.21900177001953,-29.375999450683594 -109.48200225830078,-11.583000183105469 -112.50599670410156,10.276000022888184 C-114.81999969482422,27.003000259399414 -96.30599975585938,2.859999895095825 -60.48500061035156,3.1459999084472656 C-22.214000701904297,3.4519999027252197 -12.373000144958496,19.476999282836914 -9.64900016784668,11.003000259399414z"></path></g><g opacity="1" transform="matrix(1,0,0,1,0,0)"><path fill="rgb(107,32,0)" fill-opacity="1" d=" M-9.645999908447266,11.003000259399414 C-9.935999870300293,11.902999877929688 -10.305999755859375,12.52299976348877 -10.776000022888184,12.92300033569336 C-14.03600025177002,5.61299991607666 -23.56599998474121,-5.3379998207092285 -40.13600158691406,-10.928000450134277 C-69.91600036621094,-20.97800064086914 -106.30599975585938,-5.058000087738037 -111.94599914550781,15.522000312805176 C-112.69599914550781,14.70199966430664 -112.88600158691406,13.052000045776367 -112.50599670410156,10.272000312805176 C-109.48600006103516,-11.588000297546387 -71.21600341796875,-29.37700080871582 -40.13600158691406,-18.886999130249023 C-17.615999221801758,-11.286999702453613 -8.105999946594238,6.203000068664551 -9.645999908447266,11.003000259399414z"></path></g></g></g><g style="display: block;" transform="matrix(1,0,0,1,241,258)" opacity="1"><g opacity="1" transform="matrix(1,0,0,1,0,0)"><path fill="rgb(58,162,222)" fill-opacity="1" d=" M-157.1820068359375,-89.322998046875 C-159.0749969482422,-58.73899841308594 -132.14199829101562,-33.93000030517578 -101.5,-34.04100036621094 C-70.85800170898438,-34.152000427246094 -45.069000244140625,-59.10200119018555 -46.21799850463867,-89.7229995727539 C-48,-137.22500610351562 -101.91600036621094,-218.66700744628906 -101.91600036621094,-218.66700744628906 C-101.91600036621094,-218.66700744628906 -153.75,-144.75399780273438 -157.1820068359375,-89.322998046875z"></path></g><g opacity="0.61" transform="matrix(1,0,0,1,0,0)"><g opacity="0.3" transform="matrix(1,0,0,1,0,0)"><path fill="rgb(144,243,253)" fill-opacity="1" d=" M-68.90499877929688,-44.36399841308594 C-56.0880012512207,-53.20399856567383 -55.99300003051758,-62.48899841308594 -56.0890007019043,-68.23899841308594 C-56.61600112915039,-98.1050033569336 -78.47100067138672,-121.93499755859375 -104.91699981689453,-121.46600341796875 C-122.1719970703125,-121.16300201416016 -154.69500732421875,-98.70999908447266 -146.43699645996094,-59.29499816894531 C-146.42100524902344,-59.29100036621094 -146.4250030517578,-59.2760009765625 -146.4290008544922,-59.2599983215332 C-118.06600189208984,-22.518999099731445 -81.72200012207031,-35.52399826049805 -68.90499877929688,-44.36399841308594z"></path></g><g opacity="0.4" transform="matrix(1,0,0,1,0,0)"><path fill="rgb(144,243,253)" fill-opacity="1" d=" M-62.74100112915039,-66.12100219726562 C-64.45500183105469,-91.06800079345703 -81.4729995727539,-111.06800079345703 -103.59200286865234,-110.6760025024414 C-125.72699737548828,-110.28800201416016 -142.86300659179688,-89.70600128173828 -142.86300659179688,-64.71499633789062 C-142.86300659179688,-27.83799934387207 -59.97200012207031,-25.801000595092773 -62.74100112915039,-66.12100219726562z"></path></g><g opacity="0.4" transform="matrix(1,0,0,1,0,0)"><path fill="rgb(144,243,253)" fill-opacity="1" d=" M-103.85299682617188,-100.68900299072266 C-121.86399841308594,-100.37200164794922 -135.81500244140625,-83.62799835205078 -135.8179931640625,-63.28200149536133 C-135.8249969482422,-23.25 -67.48400115966797,-20.229999542236328 -70.59300231933594,-64.42900085449219 C-72.02100372314453,-84.7239990234375 -85.84200286865234,-101.00599670410156 -103.85299682617188,-100.68900299072266z"></path></g><g opacity="0.4" transform="matrix(1,0,0,1,0,0)"><path fill="rgb(144,243,253)" fill-opacity="1" d=" M-102.9209976196289,-87.58300018310547 C-116.25199890136719,-87.3489990234375 -126.84500122070312,-74.9530029296875 -126.58000183105469,-59.89699935913086 C-126.31500244140625,-44.840999603271484 -115.4739990234375,-40.90800094604492 -102.14299774169922,-41.141998291015625 C-88.81199645996094,-41.375999450683594 -78.03800201416016,-45.6879997253418 -78.3030014038086,-60.744998931884766 C-78.56800079345703,-75.8010025024414 -89.58999633789062,-87.81700134277344 -102.9209976196289,-87.58300018310547z"></path></g></g><g opacity="0.55" transform="matrix(1,0,0,1,0,0)"><path fill="rgb(255,255,255)" fill-opacity="1" d=" M-134.65899658203125,-111.34500122070312 C-134.5959930419922,-93.94100189208984 -119.0719985961914,-79.88200378417969 -101.66799926757812,-79.94499969482422 C-84.26300048828125,-80.00800323486328 -68.84200286865234,-94.16899871826172 -68.90499877929688,-111.572998046875 C-68.95800018310547,-126.34300231933594 -92.76200103759766,-189.41000366210938 -99.96700286865234,-208.1649932861328 C-100.68399810791016,-210.03199768066406 -103.31999969482422,-210.02699279785156 -104.02899932861328,-208.15699768066406 C-111.15699768066406,-189.35899353027344 -134.71200561523438,-126.11599731445312 -134.65899658203125,-111.34500122070312z"></path></g><g opacity="1" transform="matrix(1,0,0,1,0,0)"><path stroke-linecap="round" stroke-linejoin="round" fill-opacity="0" stroke="rgb(0,109,196)" stroke-opacity="1" stroke-width="8" d=" M-157.1820068359375,-89.322998046875 C-157.1820068359375,-58.680999755859375 -132.14199829101562,-33.93000030517578 -101.5,-34.04100036621094 C-70.85800170898438,-34.152000427246094 -46.21799850463867,-59.08100128173828 -46.21799850463867,-89.7229995727539 C-46.21799850463867,-125.23799896240234 -84.75800323486328,-193.19400024414062 -97.82599639892578,-215.21600341796875 C-99.7750015258789,-218.50100708007812 -104.50700378417969,-218.5469970703125 -106.51200103759766,-215.29600524902344 C-119.58000183105469,-194.10800170898438 -157.1820068359375,-129.63999938964844 -157.1820068359375,-89.322998046875z"></path></g><g opacity="1" transform="matrix(1,0,0,1,0,0)"><g opacity="1" transform="matrix(1,0,0,1,0,0)"><path stroke-linecap="round" stroke-linejoin="round" fill-opacity="0" stroke="rgb(255,255,255)" stroke-opacity="1" stroke-width="6" d=" M-76.1449966430664,-137.22500610351562 C-76.1449966430664,-137.22500610351562 -75.62200164794922,-135.66400146484375 -75.62200164794922,-135.66400146484375"></path></g><g opacity="1" transform="matrix(1,0,0,1,0,0)"><path stroke-linecap="round" stroke-linejoin="round" fill-opacity="0" stroke="rgb(255,255,255)" stroke-opacity="1" stroke-width="6" d=" M-82.45600128173828,-156.0989990234375 C-82.45600128173828,-156.0989990234375 -79.81199645996094,-148.19200134277344 -79.81199645996094,-148.19200134277344"></path></g></g></g></g></svg>