<svg xmlns="http://www.w3.org/2000/svg" viewBox="0 0 512 512" width="512" height="512" style="width: 100%; height: 100%; transform: translate3d(0,0,0);" preserveAspectRatio="xMidYMid meet"><defs><clipPath id="__lottie_element_26006"><rect width="512" height="512" x="0" y="0"></rect></clipPath><linearGradient id="__lottie_element_26019" spreadMethod="pad" gradientUnits="userSpaceOnUse" x1="0.9990000128746033" y1="-172.1020050048828" x2="0.9990000128746033" y2="120.12799835205078"><stop offset="0%" stop-color="rgb(99,107,124)"></stop><stop offset="62%" stop-color="rgb(108,117,134)"></stop><stop offset="100%" stop-color="rgb(116,126,143)"></stop></linearGradient><linearGradient id="__lottie_element_26035" spreadMethod="pad" gradientUnits="userSpaceOnUse" x1="-126.88300323486328" y1="-90.10199737548828" x2="-175.0279998779297" y2="-26.493000030517578"><stop offset="0%" stop-color="rgb(50,13,3)"></stop><stop offset="38%" stop-color="rgb(96,52,17)"></stop><stop offset="100%" stop-color="rgb(143,90,31)"></stop></linearGradient><linearGradient id="__lottie_element_26042" spreadMethod="pad" gradientUnits="userSpaceOnUse" x1="215.31199645996094" y1="-85.10199737548828" x2="168.16600036621094" y2="-24.493000030517578"><stop offset="0%" stop-color="rgb(50,13,3)"></stop><stop offset="38%" stop-color="rgb(96,52,17)"></stop><stop offset="100%" stop-color="rgb(143,90,31)"></stop></linearGradient></defs><g clip-path="url(#__lottie_element_26006)"><g style="display: block;" transform="matrix(0.5200110077857971,0,0,0.5200110077857971,275.5205078125,253.71844482421875)" opacity="1"><g opacity="1" transform="matrix(1,0,0,1,0,0)"><path fill="rgb(61,68,87)" fill-opacity="1" d=" M433.84100341796875,-4.2179999351501465 C433.84100341796875,235.44200134277344 239.5590057373047,429.7239990234375 -0.10100000351667404,429.7239990234375 C-239.76100158691406,429.7239990234375 -434.0429992675781,235.44200134277344 -434.0429992675781,-4.2179999351501465 C-434.0429992675781,-243.8780059814453 -239.76100158691406,-438.1600036621094 -0.10100000351667404,-438.1600036621094 C239.5590057373047,-438.1600036621094 433.84100341796875,-243.8780059814453 433.84100341796875,-4.2179999351501465z"></path><path stroke-linecap="butt" stroke-linejoin="miter" fill-opacity="0" stroke-miterlimit="10" stroke="rgb(17,20,33)" stroke-opacity="1" stroke-width="18.38" d=" M433.84100341796875,-4.2179999351501465 C433.84100341796875,235.44200134277344 239.5590057373047,429.7239990234375 -0.10100000351667404,429.7239990234375 C-239.76100158691406,429.7239990234375 -434.0429992675781,235.44200134277344 -434.0429992675781,-4.2179999351501465 C-434.0429992675781,-243.8780059814453 -239.76100158691406,-438.1600036621094 -0.10100000351667404,-438.1600036621094 C239.5590057373047,-438.1600036621094 433.84100341796875,-243.8780059814453 433.84100341796875,-4.2179999351501465z"></path></g><g opacity="1" transform="matrix(1,0,0,1,0,0)"><path fill="rgb(76,83,102)" fill-opacity="1" d=" M390.593994140625,-4.22599983215332 C390.593994140625,211.55599975585938 215.68499755859375,386.4880065917969 -0.09700000286102295,386.4880065917969 C-215.87899780273438,386.4880065917969 -390.80999755859375,211.55599975585938 -390.80999755859375,-4.22599983215332 C-390.80999755859375,-70.9000015258789 -374.1080017089844,-133.69000244140625 -344.65399169921875,-188.60000610351562 C-344.5849914550781,-188.76100158691406 -344.4930114746094,-188.9219970703125 -344.42401123046875,-189.05999755859375 C-278.4630126953125,-311.6090087890625 -149.02099609375,-394.9159851074219 -0.09700000286102295,-394.9159851074219 C149.37899780273438,-394.9159851074219 279.2330017089844,-310.9880065917969 344.91900634765625,-187.68099975585938 C374.0740051269531,-132.9770050048828 390.593994140625,-70.53199768066406 390.593994140625,-4.22599983215332z"></path></g><g opacity="1" transform="matrix(1,0,0,1,0,0)"><path fill="rgb(48,54,71)" fill-opacity="0" d=" M410.4150085449219,-27.31100082397461 C410.4150085449219,182.0469970703125 226.63299560546875,351.7720031738281 -0.09600000083446503,351.7720031738281 C-226.8249969482422,351.7720031738281 -410.6310119628906,182.0469970703125 -410.6310119628906,-27.31100082397461 C-410.6310119628906,-92 -393.08099365234375,-152.92100524902344 -362.13299560546875,-206.19700622558594 C-362.0610046386719,-206.35299682617188 -361.9639892578125,-206.50900268554688 -361.8919982910156,-206.64300537109375 C-292.5840148925781,-325.54400634765625 -156.5749969482422,-406.3710021972656 -0.09600000083446503,-406.3710021972656 C156.96299743652344,-406.3710021972656 293.3789978027344,-324.9259948730469 362.4230041503906,-205.30499267578125 C393.0570068359375,-152.22999572753906 410.4150085449219,-91.64299774169922 410.4150085449219,-27.31100082397461z"></path></g><g opacity="1" transform="matrix(1,0,0,1,0,0)"><path fill="rgb(89,96,116)" fill-opacity="1" d=" M390.593994140625,-4.22599983215332 C390.593994140625,211.55599975585938 215.68499755859375,386.4880065917969 -0.09700000286102295,386.4880065917969 C-215.87899780273438,386.4880065917969 -390.80999755859375,211.55599975585938 -390.80999755859375,-4.22599983215332 C-390.80999755859375,-70.9000015258789 -374.1080017089844,-133.69000244140625 -344.65399169921875,-188.60000610351562 C-344.5849914550781,-188.76100158691406 -344.4930114746094,-188.9219970703125 -344.42401123046875,-189.05999755859375 C-278.4630126953125,-311.6090087890625 -149.02099609375,-394.9159851074219 -0.09700000286102295,-394.9159851074219 C149.37899780273438,-394.9159851074219 279.2330017089844,-310.9880065917969 344.91900634765625,-187.68099975585938 C374.0740051269531,-132.9770050048828 390.593994140625,-70.53199768066406 390.593994140625,-4.22599983215332z"></path></g></g><g style="display: block;" transform="matrix(0.5200110077857971,0,0,0.5200110077857971,275.5205078125,253.71844482421875)" opacity="1"><g opacity="1" transform="matrix(1,0,0,1,0,0)"><path fill="rgb(255,255,254)" fill-opacity="1" d=" M66.62000274658203,-56.25199890136719 C66.62000274658203,-86.82099914550781 100.97799682617188,-152.5 171.80999755859375,-152.5 C242.64199829101562,-152.5 277,-86.82099914550781 277,-56.25199890136719 C277,-25.683000564575195 234.1840057373047,22.360000610351562 171.80999755859375,22.360000610351562 C109.43599700927734,22.360000610351562 66.62000274658203,-25.683000564575195 66.62000274658203,-56.25199890136719z"></path></g></g><g style="display: block;" transform="matrix(0.5200110077857971,0,0,0.5200110077857971,275.5205078125,253.71844482421875)" opacity="1"><g opacity="1" transform="matrix(1,0,0,1,0,0)"><path fill="url(#__lottie_element_26042)" fill-opacity="1" d=" M149.3560028076172,-67.23600006103516 C149.3560028076172,-38.35200119018555 172.77200317382812,-14.935999870300293 201.656005859375,-14.935999870300293 C230.5399932861328,-14.935999870300293 253.9550018310547,-38.35200119018555 253.9550018310547,-67.23600006103516 C253.9550018310547,-96.12000274658203 230.5399932861328,-119.53600311279297 201.656005859375,-119.53600311279297 C172.77200317382812,-119.53600311279297 149.3560028076172,-96.12000274658203 149.3560028076172,-67.23600006103516z"></path></g><g opacity="1" transform="matrix(1,0,0,1,0,0)"><path fill="rgb(22,19,12)" fill-opacity="1" d=" M168.6020050048828,-67.23600006103516 C168.6020050048828,-48.98099899291992 183.4010009765625,-34.18199920654297 201.656005859375,-34.18199920654297 C219.91099548339844,-34.18199920654297 234.70899963378906,-48.98099899291992 234.70899963378906,-67.23600006103516 C234.70899963378906,-85.49099731445312 219.91099548339844,-100.28900146484375 201.656005859375,-100.28900146484375 C183.4010009765625,-100.28900146484375 168.6020050048828,-85.49099731445312 168.6020050048828,-67.23600006103516z"></path></g><g opacity="1" transform="matrix(1,0,0,1,0,0)"><path fill="rgb(244,244,244)" fill-opacity="1" d=" M163.58399963378906,-81.40499877929688 C163.58399963378906,-73.5790023803711 169.927001953125,-67.23600006103516 177.7530059814453,-67.23600006103516 C185.57899475097656,-67.23600006103516 191.9219970703125,-73.5790023803711 191.9219970703125,-81.40499877929688 C191.9219970703125,-89.23100280761719 185.57899475097656,-95.5739974975586 177.7530059814453,-95.5739974975586 C169.927001953125,-95.5739974975586 163.58399963378906,-89.23100280761719 163.58399963378906,-81.40499877929688z"></path></g><g opacity="1" transform="matrix(1,0,0,1,0,0)"><path stroke-linecap="round" stroke-linejoin="round" fill-opacity="0" stroke="rgb(213,152,54)" stroke-opacity="1" stroke-width="8.041" d=" M162.95399475097656,-52.4630012512207 C166.84100341796875,-40.87900161743164 176.13999938964844,-31.777000427246094 187.84800720214844,-28.166000366210938"></path></g></g><g style="display: block;" transform="matrix(0.5200110077857971,0,0,0.5200110077857971,275.5205078125,253.71844482421875)" opacity="1"><g opacity="1" transform="matrix(1,0,0,1,0,0)"><path fill="rgb(255,255,254)" fill-opacity="1" d=" M-67,-55.24300003051758 C-67,-89.30799865722656 -101.38999938964844,-162.5 -172.28700256347656,-162.5 C-243.1840057373047,-162.5 -277.57501220703125,-89.30799865722656 -277.57501220703125,-55.24300003051758 C-277.57501220703125,-21.17799949645996 -234.718994140625,32.36000061035156 -172.28700256347656,32.36000061035156 C-109.8550033569336,32.36000061035156 -67,-21.17799949645996 -67,-55.24300003051758z"></path></g></g><g style="display: block;" transform="matrix(0.5200110077857971,0,0,0.5200110077857971,275.5205078125,253.71844482421875)" opacity="1"><g opacity="1" transform="matrix(1,0,0,1,0,0)"><path fill="url(#__lottie_element_26035)" fill-opacity="1" d=" M-194.74200439453125,-67.23600006103516 C-194.74200439453125,-38.35200119018555 -171.3260040283203,-14.935999870300293 -142.44200134277344,-14.935999870300293 C-113.55799865722656,-14.935999870300293 -90.14199829101562,-38.35200119018555 -90.14199829101562,-67.23600006103516 C-90.14199829101562,-96.12000274658203 -113.55799865722656,-119.53600311279297 -142.44200134277344,-119.53600311279297 C-171.3260040283203,-119.53600311279297 -194.74200439453125,-96.12000274658203 -194.74200439453125,-67.23600006103516z"></path></g><g opacity="1" transform="matrix(1,0,0,1,0,0)"><path fill="rgb(22,19,12)" fill-opacity="1" d=" M-175.4949951171875,-67.23600006103516 C-175.4949951171875,-48.98099899291992 -160.69700622558594,-34.18199920654297 -142.44200134277344,-34.18199920654297 C-124.18699645996094,-34.18199920654297 -109.38800048828125,-48.98099899291992 -109.38800048828125,-67.23600006103516 C-109.38800048828125,-85.49099731445312 -124.18699645996094,-100.28900146484375 -142.44200134277344,-100.28900146484375 C-160.69700622558594,-100.28900146484375 -175.4949951171875,-85.49099731445312 -175.4949951171875,-67.23600006103516z"></path></g><g opacity="1" transform="matrix(1,0,0,1,0,0)"><path fill="rgb(244,244,244)" fill-opacity="1" d=" M-178.8459930419922,-81.40499877929688 C-178.8459930419922,-73.5790023803711 -172.5030059814453,-67.23600006103516 -164.677001953125,-67.23600006103516 C-156.8509979248047,-67.23600006103516 -150.50799560546875,-73.5790023803711 -150.50799560546875,-81.40499877929688 C-150.50799560546875,-89.23100280761719 -156.8509979248047,-95.5739974975586 -164.677001953125,-95.5739974975586 C-172.5030059814453,-95.5739974975586 -178.8459930419922,-89.23100280761719 -178.8459930419922,-81.40499877929688z"></path></g><g opacity="1" transform="matrix(1,0,0,1,0,0)"><path stroke-linecap="round" stroke-linejoin="round" fill-opacity="0" stroke="rgb(213,152,54)" stroke-opacity="1" stroke-width="8.041" d=" M-181.1439971923828,-52.4630012512207 C-177.2570037841797,-40.87900161743164 -167.95700073242188,-31.777000427246094 -156.24899291992188,-28.166000366210938"></path></g></g><g style="display: block;" transform="matrix(0.5200110077857971,0,0,0.5200110077857971,275.72955322265625,253.71844482421875)" opacity="1"><g opacity="1" transform="matrix(1,0,0,1,0,0)"><path fill="rgb(99,107,124)" fill-opacity="1" d=" M344.91900634765625,-187.68099975585938 C331.8840026855469,-212.1529998779297 316.30999755859375,-235.07400512695312 298.5480041503906,-256.09600830078125 C226.81300354003906,-340.99700927734375 119.40799713134766,-394.9159851074219 -0.4020000100135803,-394.9159851074219 C-117.7750015258789,-394.9159851074219 -223.24099731445312,-343.16900634765625 -294.9289855957031,-261.239013671875 C-314.5360107421875,-238.83099365234375 -331.61700439453125,-214.16400146484375 -345.7229919433594,-187.68099975585938 C-374.9200134277344,-132.86599731445312 -423.6629943847656,13.032999992370605 -346.3320007324219,78.89800262451172 C-243.97900390625,166.07400512695312 -126.8030014038086,73.55599975585938 -0.4020000100135803,73.55599975585938 C125.9990005493164,73.55599975585938 243.17599487304688,166.07400512695312 345.52899169921875,78.89800262451172 C422.8599853515625,13.032999992370605 374.1159973144531,-132.86599731445312 344.91900634765625,-187.68099975585938z M-172.6060028076172,-8.706000328063965 C-217.33799743652344,-8.706000328063965 -248.0330047607422,-39.67599868774414 -248.0330047607422,-59.388999938964844 C-248.0330047607422,-79.10199737548828 -223.4040069580078,-121.44400024414062 -172.6060028076172,-121.44400024414062 C-121.83100128173828,-121.44400024414062 -97.17900085449219,-79.10199737548828 -97.17900085449219,-59.388999938964844 C-97.17900085449219,-39.67599868774414 -127.89700317382812,-8.706000328063965 -172.6060028076172,-8.706000328063965z M171.802001953125,-8.706000328063965 C127.09300231933594,-8.706000328063965 96.375,-39.67599868774414 96.375,-59.388999938964844 C96.375,-79.10199737548828 121.0270004272461,-121.44400024414062 171.802001953125,-121.44400024414062 C222.60000610351562,-121.44400024414062 247.22999572753906,-79.10199737548828 247.22999572753906,-59.388999938964844 C247.22999572753906,-39.67599868774414 216.53399658203125,-8.706000328063965 171.802001953125,-8.706000328063965z"></path></g></g><g style="display: block;" transform="matrix(0.5200110077857971,0,0,0.5200110077857971,275.5205078125,253.71844482421875)" opacity="1"><g opacity="0.5" transform="matrix(1,0,0,1,0,0)"><path fill="rgb(61,68,87)" fill-opacity="1" d=" M238.0850067138672,-38.090999603271484 C217.66000366210938,-2.8929998874664307 159.41900634765625,18.381999969482422 91.43599700927734,-23.111000061035156 C41.02899932861328,-53.89799880981445 35.30799865722656,36.1870002746582 35.23899841308594,23.43600082397461 C35.00899887084961,-25.225000381469727 36.893001556396484,-74.13899993896484 37.62799835205078,-87.16600036621094 C40.845001220703125,-145.10899353027344 125.73799896240234,-246.54299926757812 256.07501220703125,-183.3159942626953 C256.07501220703125,-183.3159942626953 220.0500030517578,-192.80499267578125 201.89999389648438,-173.22999572753906 C188.73500061035156,-159.0540008544922 199.46400451660156,-150.96800231933594 215.4550018310547,-144.0749969482422 C211.7790069580078,-144.5800018310547 99.84500122070312,-159.62899780273438 91.64299774169922,-65.06400299072266 C91.50499725341797,-63.479000091552734 96.375,-62.26100158691406 96.375,-59.388999938964844 C96.375,-39.67599868774414 127.09300231933594,-8.706000328063965 171.802001953125,-8.706000328063965 C202.01400756835938,-8.706000328063965 225.83900451660156,-22.836000442504883 238.0850067138672,-38.090999603271484z"></path></g><g opacity="1" transform="matrix(1,0,0,1,0,0)"><path stroke-linecap="round" stroke-linejoin="round" fill-opacity="0" stroke="rgb(51,59,76)" stroke-opacity="1" stroke-width="18.38" d=" M84.00599670410156,-91.70700073242188 C84.00599670410156,-91.70700073242188 106.3550033569336,-143.25900268554688 165.16700744628906,-150.12899780273438 C231.31300354003906,-157.8560028076172 264.95001220703125,-102.7509994506836 264.95001220703125,-102.7509994506836"></path></g><g opacity="1" transform="matrix(1,0,0,1,0,0)"><path stroke-linecap="round" stroke-linejoin="round" fill-opacity="0" stroke="rgb(32,35,51)" stroke-opacity="1" stroke-width="9.19" d=" M94.08799743652344,-59.3849983215332 C95.9020004272461,-84.53099822998047 122.58200073242188,-124.31400299072266 171.80999755859375,-124.31400299072266 C220.10499572753906,-124.31400299072266 247.20199584960938,-85.93399810791016 249.53199768066406,-59.3849983215332"></path></g></g><g style="display: block;" transform="matrix(0.5200110077857971,0,0,0.5200110077857971,275.5205078125,253.71844482421875)" opacity="1"><g opacity="0.5" transform="matrix(1,0,0,1,0,0)"><path fill="rgb(61,68,87)" fill-opacity="1" d=" M-35.86899948120117,23.43600082397461 C-35.9379997253418,36.1870002746582 -41.63600158691406,-53.89799880981445 -92.06600189208984,-23.111000061035156 C-160.3939971923828,18.589000701904297 -218.86500549316406,-3.122999906539917 -239.03700256347656,-38.641998291015625 C-226.88299560546875,-23.18000030517578 -202.875,-8.706000328063965 -172.2949981689453,-8.706000328063965 C-127.56300354003906,-8.706000328063965 -96.86799621582031,-39.67599868774414 -96.86799621582031,-59.388999938964844 C-96.86799621582031,-62.21500015258789 -92.13500213623047,-63.50199890136719 -92.27300262451172,-65.06400299072266 C-100.61299896240234,-161.21499633789062 -216.177001953125,-144.052001953125 -216.177001953125,-144.052001953125 C-200.13999938964844,-150.94500732421875 -189.3419952392578,-159.031005859375 -202.52999877929688,-173.22999572753906 C-220.67999267578125,-192.80499267578125 -256.7049865722656,-183.3159942626953 -256.7049865722656,-183.3159942626953 C-126.36799621582031,-246.54299926757812 -41.4739990234375,-145.10899353027344 -38.23500061035156,-87.16600036621094 C-37.52299880981445,-74.13899993896484 -35.638999938964844,-25.225000381469727 -35.86899948120117,23.43600082397461z"></path></g><g opacity="1" transform="matrix(1,0,0,1,0,0)"><path stroke-linecap="round" stroke-linejoin="round" fill-opacity="0" stroke="rgb(51,59,76)" stroke-opacity="1" stroke-width="18.38" d=" M-83.85600280761719,-91.70700073242188 C-83.85600280761719,-91.70700073242188 -106.20600128173828,-143.25900268554688 -165.01800537109375,-150.12899780273438 C-231.16400146484375,-157.8560028076172 -264.79998779296875,-102.7509994506836 -264.79998779296875,-102.7509994506836"></path></g><g opacity="1" transform="matrix(1,0,0,1,0,0)"><path stroke-linecap="round" stroke-linejoin="round" fill-opacity="0" stroke="rgb(32,35,51)" stroke-opacity="1" stroke-width="9.19" d=" M-250.00999450683594,-59.3849983215332 C-248.1959991455078,-84.53099822998047 -221.51499938964844,-124.31400299072266 -172.28700256347656,-124.31400299072266 C-123.99199676513672,-124.31400299072266 -96.8949966430664,-85.93399810791016 -94.56500244140625,-59.3849983215332"></path></g></g><g style="display: block;" transform="matrix(0.5200110077857971,0,0,0.5200110077857971,275.5205078125,253.71844482421875)" opacity="1"><g opacity="1" transform="matrix(1,0,0,1,0,0)"><path fill="rgb(106,113,132)" fill-opacity="1" d=" M82.5999984741211,345.20599365234375 C82.5999984741211,362.927001953125 53.220001220703125,386.4830017089844 2.808000087738037,386.4830017089844 C-47.604000091552734,386.4830017089844 -76.98300170898438,362.927001953125 -76.98300170898438,345.20599365234375 C-76.98300170898438,327.4849853515625 -47.604000091552734,322.3089904785156 2.808000087738037,322.3089904785156 C53.220001220703125,322.3089904785156 82.5999984741211,327.4849853515625 82.5999984741211,345.20599365234375z"></path></g><g opacity="0.5" transform="matrix(1,0,0,1,0,0)"><path fill="rgb(61,68,87)" fill-opacity="1" d=" M-141.13400268554688,187.43499755859375 C-129.66099548339844,171.2899932861328 -113.11399841308594,151.33299255371094 -140.69200134277344,148.73199462890625 C-152.6719970703125,147.6020050048828 -170.34100341796875,155.95399475097656 -180.9199981689453,175.54100036621094 C-190.3350067138672,192.97300720214844 -189.67100524902344,215.07699584960938 -180.32000732421875,222.51100158691406 C-162.4720001220703,236.6999969482422 -155.38999938964844,207.4969940185547 -141.13400268554688,187.43499755859375z"></path></g><g opacity="0.5" transform="matrix(1,0,0,1,0,0)"><path fill="rgb(61,68,87)" fill-opacity="1" d=" M145.39100646972656,187.43499755859375 C133.91900634765625,171.2899932861328 117.37100219726562,151.33299255371094 144.94900512695312,148.73199462890625 C156.9290008544922,147.6020050048828 174.59800720214844,155.95399475097656 185.177001953125,175.54100036621094 C194.5919952392578,192.97300720214844 193.92799377441406,215.07699584960938 184.57699584960938,222.51100158691406 C166.72900390625,236.6999969482422 159.64700317382812,207.4969940185547 145.39100646972656,187.43499755859375z"></path></g><g opacity="1" transform="matrix(1,0,0,1,0,0)"><path fill="rgb(106,113,132)" fill-opacity="1" d=" M0.13199999928474426,279.45098876953125 C-63.83599853515625,279.2749938964844 -83.3740005493164,218.3780059814453 -128.86900329589844,202.74899291992188 C-128.86900329589844,202.74899291992188 -51.77399826049805,229.4550018310547 3.809999942779541,229.27999877929688 C64.37699890136719,229.08900451660156 134.48500061035156,202.74899291992188 134.48500061035156,202.74899291992188 C80.98400115966797,218.6790008544922 72.12100219726562,279.64898681640625 0.13199999928474426,279.45098876953125z"></path></g><g opacity="0.5" transform="matrix(1,0,0,1,0,0)"><path fill="rgb(61,68,87)" fill-opacity="1" d=" M134.48500061035156,190.1649932861328 C134.48500061035156,190.1649932861328 115.69200134277344,207.3300018310547 60.15599822998047,194.54800415039062 C32.8129997253418,188.2550048828125 24.138999938964844,202.66900634765625 6.999000072479248,202.28199768066406 C-10.097000122070312,201.89599609375 -16.11199951171875,187.9759979248047 -47.483001708984375,195.53500366210938 C-110.70099639892578,210.76699829101562 -133.33999633789062,187.75 -133.33999633789062,187.75 C-133.33999633789062,187.75 -82.89800262451172,229.45599365234375 0.13199999928474426,229.45599365234375 C83.16200256347656,229.45599365234375 134.48500061035156,190.1649932861328 134.48500061035156,190.1649932861328z"></path></g><g opacity="1" transform="matrix(1,0,0,1,0,0)"><path stroke-linecap="round" stroke-linejoin="round" fill-opacity="0" stroke="rgb(37,44,58)" stroke-opacity="1" stroke-width="18.38" d=" M-141.81399536132812,191.1300048828125 C-141.81399536132812,191.1300048828125 -80.13800048828125,229.45599365234375 0.13199999928474426,229.45599365234375 C82.11000061035156,229.45599365234375 145.6649932861328,191.1300048828125 145.6649932861328,191.1300048828125"></path></g><g opacity="0.5" transform="matrix(1,0,0,1,0,0)"><path fill="rgb(61,68,87)" fill-opacity="1" d=" M0.13199999928474426,281.7489929199219 C-27.614999771118164,281.7489929199219 -64.2239990234375,252.23599243164062 -64.2239990234375,271 C-64.2239990234375,285.27301025390625 -38.178001403808594,313.1189880371094 1.9249999523162842,313.1189880371094 C43.46500015258789,313.1189880371094 70.75299835205078,280.2489929199219 67.92500305175781,267.3710021972656 C64.7229995727539,252.78900146484375 34.801998138427734,281.7489929199219 0.13199999928474426,281.7489929199219z"></path></g><g opacity="1" transform="matrix(1,0,0,1,0,0)"><path stroke-linecap="round" stroke-linejoin="round" fill-opacity="0" stroke="rgb(51,59,76)" stroke-opacity="1" stroke-width="18.38" d=" M-56.30500030517578,265.072998046875 C-56.30500030517578,265.072998046875 1.9259999990463257,297.4230041503906 60.15599822998047,265.072998046875"></path></g><g opacity="1" transform="matrix(1,0,0,1,0,0)"><path stroke-linecap="round" stroke-linejoin="round" fill-opacity="0" stroke="rgb(37,44,58)" stroke-opacity="1" stroke-width="18.38" d=" M-135.63699340820312,180.3300018310547 C-135.63699340820312,180.3300018310547 -147.6269989013672,189.81199645996094 -150.32400512695312,205.61500549316406"></path></g><g opacity="1" transform="matrix(1,0,0,1,0,0)"><path stroke-linecap="round" stroke-linejoin="round" fill-opacity="0" stroke="rgb(37,44,58)" stroke-opacity="1" stroke-width="18.38" d=" M139.0800018310547,180.3300018310547 C139.0800018310547,180.3300018310547 151.82000732421875,194.1999969482422 153.76800537109375,205.61500549316406"></path></g></g><g style="display: block;" transform="matrix(0.5200110077857971,0,0,0.5200110077857971,275.5205078125,253.71844482421875)" opacity="1"><g opacity="1" transform="matrix(1,0,0,1,0,0)"><path fill="url(#__lottie_element_26019)" fill-opacity="1" d=" M-149.7050018310547,-199.8179931640625 C-149.7050018310547,-199.8179931640625 -80.7229995727539,-187.51600646972656 -57.862998962402344,-145.2480010986328 C-24.28700065612793,-83.16600036621094 -53.30400085449219,-40.612998962402344 -38.599998474121094,5.4730000495910645 C-23.895999908447266,51.558998107910156 -33.979000091552734,95.03700256347656 -33.979000091552734,95.03700256347656 C-33.979000091552734,95.03700256347656 -72.89700317382812,77.28800201416016 -81.71499633789062,115.15299987792969 C-90.53299713134766,153.01800537109375 -57.04600143432617,144.9459991455078 -44.965999603271484,144.9459991455078 C-32.88600158691406,144.9459991455078 -21.413999557495117,160.5 0.2630000114440918,160.5 C21.940000534057617,160.5 33.4119987487793,144.9459991455078 45.492000579833984,144.9459991455078 C57.571998596191406,144.9459991455078 91.05999755859375,153.01800537109375 82.24199676513672,115.15299987792969 C73.42400360107422,77.28800201416016 34.505001068115234,95.03700256347656 34.505001068115234,95.03700256347656 C34.505001068115234,95.03700256347656 24.159000396728516,51.558998107910156 38.862998962402344,5.4730000495910645 C53.56700134277344,-40.612998962402344 25.277999877929688,-83.66999816894531 58.125999450683594,-145.2480010986328 C80.74299621582031,-187.64700317382812 149.96800231933594,-200.79800415039062 149.96800231933594,-200.79800415039062"></path></g><g opacity="0.5" transform="matrix(1,0,0,1,0,0)"><path fill="rgb(61,68,87)" fill-opacity="1" d=" M25.62700080871582,97.47100067138672 C28.07200050354004,111.40699768066406 41.37300109863281,133.21400451660156 17.746000289916992,147.15699768066406 C17.746000289916992,147.15699768066406 62.61399841308594,135.23500061035156 53.34400177001953,135.93899536132812 C40.42399978637695,136.92100524902344 42.10100173950195,104.19599914550781 53.42399978637695,100.0790023803711 C53.42399978637695,100.0790023803711 24.607999801635742,91.66300201416016 25.62700080871582,97.47100067138672z"></path></g><g opacity="0.5" transform="matrix(1,0,0,1,0,0)"><path fill="rgb(61,68,87)" fill-opacity="1" d=" M-25.201000213623047,97.47100067138672 C-27.645999908447266,111.40699768066406 -40.94599914550781,133.21400451660156 -17.319000244140625,147.15699768066406 C-17.319000244140625,147.15699768066406 -62.1870002746582,135.23500061035156 -52.91699981689453,135.93899536132812 C-39.99700164794922,136.92100524902344 -41.67399978637695,104.19599914550781 -52.99700164794922,100.0790023803711 C-52.99700164794922,100.0790023803711 -24.18199920654297,91.66300201416016 -25.201000213623047,97.47100067138672z"></path></g><g opacity="1" transform="matrix(1,0,0,1,0,0)"><path stroke-linecap="round" stroke-linejoin="round" fill-opacity="0" stroke="rgb(51,59,76)" stroke-opacity="1" stroke-width="18.38" d=" M-257.4590148925781,-183.31399536132812 C-201.1230010986328,-218.69400024414062 -99.6259994506836,-205.968994140625 -60.1609992980957,-145.2480010986328 C-26.224000930786133,-93.03199768066406 -46.334999084472656,-61.33100128173828 -34.005001068115234,3.1760001182556152 C-23.6560001373291,57.31999969482422 -33.979000091552734,95.03700256347656 -33.979000091552734,95.03700256347656 C-33.979000091552734,95.03700256347656 -67.86299896240234,78.88500213623047 -81.00900268554688,106.49299621582031 C-85.9489974975586,116.86699676513672 -83.09500122070312,134.33200073242188 -79.53199768066406,138.84100341796875 C-71.69400024414062,148.76100158691406 -53.270999908447266,144.9459991455078 -44.965999603271484,144.9459991455078 C-32.88600158691406,144.9459991455078 -21.413999557495117,160.5 0.2630000114440918,160.5 C21.940000534057617,160.5 33.4119987487793,144.9459991455078 45.492000579833984,144.9459991455078 C53.70500183105469,144.9459991455078 71.81300354003906,148.677001953125 79.79399871826172,139.16700744628906 C83.552001953125,134.68899536132812 85.73999786376953,118.46800231933594 80.60399627685547,107.20800018310547 C67.18000030517578,77.7760009765625 34.505001068115234,95.03700256347656 34.505001068115234,95.03700256347656 C34.505001068115234,95.03700256347656 25.104999542236328,61.69599914550781 34.268001556396484,3.1760001182556152 C44.36899948120117,-61.33100128173828 23.937999725341797,-90.28299713134766 60.42399978637695,-145.2480010986328 C106.58999633789062,-214.79600524902344 212.8730010986328,-215.6009979248047 257.57501220703125,-183.31399536132812"></path></g><g opacity="1" transform="matrix(1,0,0,1,0,0)"><path stroke-linecap="round" stroke-linejoin="round" fill-opacity="0" stroke="rgb(37,44,58)" stroke-opacity="1" stroke-width="18.38" d=" M-74.3499984741211,142.98599243164062 C-65.3479995727539,147.5030059814453 -51.76599884033203,144.9459991455078 -44.965999603271484,144.9459991455078 C-32.88600158691406,144.9459991455078 -21.413999557495117,160.5 0.2630000114440918,160.5 C21.940000534057617,160.5 33.4119987487793,144.9459991455078 45.492000579833984,144.9459991455078 C52.652000427246094,144.9459991455078 67.33300018310547,147.78199768066406 76.26799774169922,142.20700073242188"></path></g></g><g style="display: block;" transform="matrix(0.5200110077857971,0,0,0.5200110077857971,275.5205078125,253.71844482421875)" opacity="1"><g opacity="1" transform="matrix(1,0,0,1,0,0)"><path stroke-linecap="round" stroke-linejoin="round" fill-opacity="0" stroke="rgb(255,255,255)" stroke-opacity="1" stroke-width="13.785" d=" M83.46499633789062,-385.010009765625 C86.99800109863281,-384.239990234375 90.66300201416016,-383.3919982910156 94.44100189208984,-382.4590148925781"></path></g><g opacity="1" transform="matrix(1,0,0,1,0,0)"><path stroke-linecap="round" stroke-linejoin="round" fill-opacity="0" stroke="rgb(255,255,255)" stroke-opacity="1" stroke-width="13.785" d=" M34.40299987792969,-392.4070129394531 C34.40299987792969,-392.4070129394531 45.58599853515625,-391.8089904785156 63.32899856567383,-388.87298583984375"></path></g></g></g></svg>