<svg xmlns="http://www.w3.org/2000/svg" viewBox="0 0 512 512" width="512" height="512" style="width: 100%; height: 100%; transform: translate3d(0,0,0);" preserveAspectRatio="xMidYMid meet"><defs><clipPath id="__lottie_element_26079"><rect width="512" height="512" x="0" y="0"></rect></clipPath><clipPath id="__lottie_element_26081"><path d="M0,0 L512,0 L512,512 L0,512z"></path></clipPath><clipPath id="__lottie_element_26128"><path d="M0,0 L512,0 L512,512 L0,512z"></path></clipPath><clipPath id="__lottie_element_26175"><path d="M0,0 L512,0 L512,512 L0,512z"></path></clipPath></defs><g clip-path="url(#__lottie_element_26079)"><g clip-path="url(#__lottie_element_26175)" style="display: none;"><g style="display: none;"><g><g><path></path></g></g><g><g><path></path></g></g><g><g><path></path></g></g><g><g><path stroke-linecap="round" stroke-linejoin="round" fill-opacity="0"></path></g></g><g><g><path stroke-linecap="round" stroke-linejoin="round" fill-opacity="0"></path></g></g></g><g style="display: none;"><g><g><path></path></g></g><g><g><path></path></g></g><g><g><path></path></g></g><g><g><path></path></g></g><g><g><path stroke-linecap="round" stroke-linejoin="round" fill-opacity="0"></path></g></g><g><g><path stroke-linecap="round" stroke-linejoin="round" fill-opacity="0"></path></g></g></g><g style="display: none;"><g><g><path></path></g></g><g><g><path></path></g></g><g><g><path></path></g></g><g><g><path></path></g></g><g><g><path stroke-linecap="round" stroke-linejoin="round" fill-opacity="0"></path></g></g><g><g><path stroke-linecap="round" stroke-linejoin="round" fill-opacity="0"></path></g></g></g><g style="display: none;"><g><g><path></path></g></g><g><g><path></path></g></g><g><g><path></path></g></g><g><g><path stroke-linecap="round" stroke-linejoin="round" fill-opacity="0"></path></g></g><g><g><path stroke-linecap="round" stroke-linejoin="round" fill-opacity="0"></path></g></g></g><g style="display: none;"><g><g><path></path></g></g><g><g><path></path></g></g><g><g><path></path></g></g><g><g><path stroke-linecap="round" stroke-linejoin="round" fill-opacity="0"></path></g></g><g><g><path stroke-linecap="round" stroke-linejoin="round" fill-opacity="0"></path></g></g></g><g style="display: none;"><g><g><path></path></g></g><g><g><path></path></g></g><g><g><path></path></g></g><g><g><path></path></g></g><g><g><path stroke-linecap="round" stroke-linejoin="round" fill-opacity="0"></path></g></g><g><g><path stroke-linecap="round" stroke-linejoin="round" fill-opacity="0"></path></g></g></g><g style="display: none;"><g><g><path></path></g></g><g><g><path></path></g></g><g><g><path></path></g></g><g><g><path></path></g></g><g><g><path stroke-linecap="round" stroke-linejoin="round" fill-opacity="0"></path></g></g><g><g><path stroke-linecap="round" stroke-linejoin="round" fill-opacity="0"></path></g></g></g><g style="display: none;"><g><g><path></path></g></g><g><g><path></path></g></g><g><g><path></path></g></g><g><g><path stroke-linecap="round" stroke-linejoin="round" fill-opacity="0"></path></g></g><g><g><path stroke-linecap="round" stroke-linejoin="round" fill-opacity="0"></path></g></g></g><g style="display: none;"><g><g><path></path></g></g><g><g><path></path></g></g><g><g><path></path></g></g><g><g><path stroke-linecap="round" stroke-linejoin="round" fill-opacity="0"></path></g></g><g><g><path stroke-linecap="round" stroke-linejoin="round" fill-opacity="0"></path></g></g></g><g style="display: none;"><g><g><path></path></g></g><g><g><path></path></g></g><g><g><path></path></g></g><g><g><path></path></g></g><g><g><path stroke-linecap="round" stroke-linejoin="round" fill-opacity="0"></path></g></g><g><g><path stroke-linecap="round" stroke-linejoin="round" fill-opacity="0"></path></g></g></g><g style="display: none;"><g><g><path></path></g></g><g><g><path></path></g></g><g><g><path></path></g></g><g><g><path></path></g></g><g><g><path stroke-linecap="round" stroke-linejoin="round" fill-opacity="0"></path></g></g><g><g><path stroke-linecap="round" stroke-linejoin="round" fill-opacity="0"></path></g></g></g><g style="display: none;"><g><g><path></path></g></g><g><g><path></path></g></g><g><g><path></path></g></g><g><g><path stroke-linecap="round" stroke-linejoin="round" fill-opacity="0"></path></g></g><g><g><path stroke-linecap="round" stroke-linejoin="round" fill-opacity="0"></path></g></g></g><g style="display: none;"><g><path stroke-linecap="round" stroke-linejoin="round" fill-opacity="0"></path></g></g><g style="display: none;"><g><path stroke-linecap="round" stroke-linejoin="round" fill-opacity="0"></path></g></g></g><g clip-path="url(#__lottie_element_26128)" style="display: block;" transform="matrix(1,0,0,1,0,0)" opacity="1"><g style="display: none;"><g><g><path></path></g></g><g><g><path></path></g></g><g><g><path></path></g></g><g><g><path stroke-linecap="round" stroke-linejoin="round" fill-opacity="0"></path></g></g><g><g><path stroke-linecap="round" stroke-linejoin="round" fill-opacity="0"></path></g></g></g><g style="display: none;"><g><g><path></path></g></g><g><g><path></path></g></g><g><g><path></path></g></g><g><g><path></path></g></g><g><g><path stroke-linecap="round" stroke-linejoin="round" fill-opacity="0"></path></g></g><g><g><path stroke-linecap="round" stroke-linejoin="round" fill-opacity="0"></path></g></g></g><g style="display: none;"><g><g><path></path></g></g><g><g><path></path></g></g><g><g><path></path></g></g><g><g><path></path></g></g><g><g><path stroke-linecap="round" stroke-linejoin="round" fill-opacity="0"></path></g></g><g><g><path stroke-linecap="round" stroke-linejoin="round" fill-opacity="0"></path></g></g></g><g style="display: none;"><g><g><path></path></g></g><g><g><path></path></g></g><g><g><path></path></g></g><g><g><path stroke-linecap="round" stroke-linejoin="round" fill-opacity="0"></path></g></g><g><g><path stroke-linecap="round" stroke-linejoin="round" fill-opacity="0"></path></g></g></g><g style="display: none;"><g><g><path></path></g></g><g><g><path></path></g></g><g><g><path></path></g></g><g><g><path stroke-linecap="round" stroke-linejoin="round" fill-opacity="0"></path></g></g><g><g><path stroke-linecap="round" stroke-linejoin="round" fill-opacity="0"></path></g></g></g><g style="display: none;"><g><g><path></path></g></g><g><g><path></path></g></g><g><g><path></path></g></g><g><g><path></path></g></g><g><g><path stroke-linecap="round" stroke-linejoin="round" fill-opacity="0"></path></g></g><g><g><path stroke-linecap="round" stroke-linejoin="round" fill-opacity="0"></path></g></g></g><g style="display: none;"><g><g><path></path></g></g><g><g><path></path></g></g><g><g><path></path></g></g><g><g><path></path></g></g><g><g><path stroke-linecap="round" stroke-linejoin="round" fill-opacity="0"></path></g></g><g><g><path stroke-linecap="round" stroke-linejoin="round" fill-opacity="0"></path></g></g></g><g style="display: none;"><g><g><path></path></g></g><g><g><path></path></g></g><g><g><path></path></g></g><g><g><path stroke-linecap="round" stroke-linejoin="round" fill-opacity="0"></path></g></g><g><g><path stroke-linecap="round" stroke-linejoin="round" fill-opacity="0"></path></g></g></g><g style="display: block;" transform="matrix(0.8456568121910095,0,0,0.8456568121910095,39.5118522644043,39.5118522644043)" opacity="0.9963327142373544"><g opacity="1" transform="matrix(1,0,0,1,0,0)"><g opacity="1" transform="matrix(1,0,0,1,255.9969940185547,410.1289978027344)"><path fill="rgb(253,6,17)" fill-opacity="1" d=" M-137.0679931640625,48.231998443603516 C-131.16299438476562,53.9739990234375 -123.57499694824219,43.52399826049805 -102.93599700927734,31.242000579833984 C-80.63899993896484,17.974000930786133 -48.91699981689453,0.7710000276565552 -0.0010000000474974513,0.7710000276565552 C48.915000915527344,0.7710000276565552 80.63899993896484,17.974000930786133 102.93499755859375,31.242000579833984 C123.57599639892578,43.52399826049805 131.16200256347656,53.9739990234375 137.0679931640625,48.231998443603516 C142.6840057373047,42.77199935913086 110.88400268554688,-53.9739990234375 -0.0010000000474974513,-53.9739990234375 C-110.36499786376953,-53.9739990234375 -142.6840057373047,42.77199935913086 -137.0679931640625,48.231998443603516z"></path></g></g><g opacity="1" transform="matrix(1,0,0,1,0,0)"><g opacity="1" transform="matrix(1,0,0,1,255.9980010986328,407.6570129394531)"><path fill="rgb(248,83,104)" fill-opacity="1" d=" M137.07000732421875,50.702999114990234 C136.7550048828125,51.007999420166016 136.43099975585938,51.275001525878906 136.10699462890625,51.48500061035156 C128.2779998779297,24.79400062561035 90.4489974975586,-42.435001373291016 0,-42.435001373291016 C-90.0479965209961,-42.435001373291016 -128.1439971923828,24.832000732421875 -136.06900024414062,51.50400161743164 C-136.40199279785156,51.29399871826172 -136.74600219726562,51.027000427246094 -137.07000732421875,50.702999114990234 C-142.68600463867188,45.24800109863281 -110.36900329589844,-51.50400161743164 0,-51.50400161743164 C110.88400268554688,-51.50400161743164 142.68600463867188,45.24800109863281 137.07000732421875,50.702999114990234z"></path></g></g><g opacity="1" transform="matrix(1,0,0,1,0,0)"><g opacity="1" transform="matrix(1,0,0,1,256.0050048828125,431.1679992675781)"><path fill="rgb(164,0,0)" fill-opacity="1" d=" M137.06300354003906,30.052000045776367 C131.1510009765625,35.792999267578125 123.56999969482422,25.340999603271484 102.92400360107422,13.059000015258789 C80.62899780273438,-0.20600000023841858 48.91299819946289,-17.408000946044922 -0.007000000216066837,-17.408000946044922 C-48.92599868774414,-17.408000946044922 -80.65299987792969,-0.20600000023841858 -102.947998046875,13.059000015258789 C-123.58300018310547,25.340999603271484 -131.1739959716797,35.792999267578125 -137.07699584960938,30.052000045776367 C-138.0970001220703,29.06100082397461 -138.82200622558594,25.083999633789062 -137.11500549316406,19.2189998626709 C-131.31700134277344,23.138999938964844 -122.5250015258789,11.227999687194824 -102.947998046875,-0.42500001192092896 C-80.65299987792969,-13.699000358581543 -48.92599868774414,-31.67099952697754 -0.007000000216066837,-31.67099952697754 C48.91299819946289,-31.67099952697754 80.62899780273438,-13.699000358581543 102.92400360107422,-0.42500001192092896 C122.55899810791016,11.256999969482422 131.33200073242188,23.187000274658203 137.13900756835938,19.200000762939453 C138.82699584960938,25.073999404907227 138.08399963378906,29.06100082397461 137.06300354003906,30.052000045776367z"></path></g></g><g opacity="1" transform="matrix(1,0,0,1,0,0)"><g opacity="1" transform="matrix(1,0,0,1,255.9969940185547,410.1289978027344)"><path stroke-linecap="round" stroke-linejoin="round" fill-opacity="0" stroke="rgb(164,0,0)" stroke-opacity="1" stroke-width="8" d=" M-137.0679931640625,48.231998443603516 C-131.16299438476562,53.9739990234375 -123.57499694824219,43.52399826049805 -102.93599700927734,31.242000579833984 C-80.63899993896484,17.974000930786133 -48.91699981689453,0.7710000276565552 -0.0010000000474974513,0.7710000276565552 C48.915000915527344,0.7710000276565552 80.63899993896484,17.974000930786133 102.93499755859375,31.242000579833984 C123.57599639892578,43.52399826049805 131.16200256347656,53.9739990234375 137.0679931640625,48.231998443603516 C142.6840057373047,42.77199935913086 110.88400268554688,-53.9739990234375 -0.0010000000474974513,-53.9739990234375 C-110.36499786376953,-53.9739990234375 -142.6840057373047,42.77199935913086 -137.0679931640625,48.231998443603516z"></path></g></g><g opacity="1" transform="matrix(1,0,0,1,0,0)"><g opacity="1" transform="matrix(1,0,0,1,255.9969940185547,437.50201416015625)"><path stroke-linecap="round" stroke-linejoin="round" fill-opacity="0" stroke="rgb(134,0,1)" stroke-opacity="1" stroke-width="8" d=" M-137.0679931640625,20.858999252319336 C-131.16299438476562,26.60099983215332 -123.57499694824219,16.152000427246094 -102.93599700927734,3.869999885559082 C-80.63899993896484,-9.39799976348877 -48.91699981689453,-26.601999282836914 -0.0010000000474974513,-26.601999282836914 C48.915000915527344,-26.601999282836914 80.63899993896484,-9.39799976348877 102.93499755859375,3.869999885559082 C123.57599639892578,16.152000427246094 131.16200256347656,26.60099983215332 137.0679931640625,20.858999252319336"></path></g></g></g><g style="display: block;" transform="matrix(0.844355046749115,0,0,0.844355046749115,39.84511184692383,39.84511184692383)" opacity="0.9963327142373544"><g opacity="1" transform="matrix(1,0,0,1,0,0)"><g opacity="1" transform="matrix(1,0,0,1,409.5589904785156,256.57501220703125)"><path fill="rgb(253,6,17)" fill-opacity="1" d=" M48.231998443603516,137.06900024414062 C53.9739990234375,131.16400146484375 43.52399826049805,123.57599639892578 31.242000579833984,102.93599700927734 C17.974000930786133,80.63899993896484 0.7710000276565552,48.91699981689453 0.7710000276565552,0.0010000000474974513 C0.7710000276565552,-48.915000915527344 17.974000930786133,-80.63899993896484 31.242000579833984,-102.93499755859375 C43.52399826049805,-123.57499694824219 53.9739990234375,-131.16299438476562 48.231998443603516,-137.0679931640625 C42.77199935913086,-142.68299865722656 -53.9739990234375,-110.88400268554688 -53.9739990234375,0.0010000000474974513 C-53.9739990234375,110.36499786376953 42.77199935913086,142.6840057373047 48.231998443603516,137.06900024414062z"></path></g></g><g opacity="1" transform="matrix(1,0,0,1,0,0)"><g opacity="1" transform="matrix(1,0,0,1,412.80999755859375,162.92599487304688)"><path fill="rgb(248,83,104)" fill-opacity="1" d=" M42.279998779296875,-30.43899917602539 C42.02299880981445,-30.964000701904297 41.650001525878906,-31.47800064086914 41.16400146484375,-31.974000930786133 C36.7869987487793,-36.474998474121094 -23.284000396728516,-16.926000595092773 -48.106998443603516,48.17599868774414 C-26.764999389648438,-26.079999923706055 40.35300064086914,-48.17499923706055 44.97800064086914,-43.41699981689453 C48.10599899291992,-40.202999114990234 46.428001403808594,-36.48500061035156 42.279998779296875,-30.43899917602539z"></path></g></g><g opacity="1" transform="matrix(1,0,0,1,0,0)"><g opacity="1" transform="matrix(1,0,0,1,434.0220031738281,299.1860046386719)"><path fill="rgb(248,83,104)" fill-opacity="1" d=" M23.76799964904785,94.4540023803711 C23.13800048828125,95.10199737548828 22.240999221801758,95.24500274658203 19.465999603271484,94.81600189208984 C16.079999923706055,89.56199645996094 9.246000289916992,82.39099884033203 2.9230000972747803,71.76699829101562 C-10.350000381469727,49.472999572753906 -29.507999420166016,17.746999740600586 -29.507999420166016,-31.163000106811523 C-29.507999420166016,-56.90999984741211 -22.73900032043457,-77.89900207519531 -16.292999267578125,-95.24500274658203 C-20.716999053955078,-80.302001953125 -23.69300079345703,-62.9370002746582 -23.69300079345703,-42.606998443603516 C-23.69300079345703,6.303999900817871 -6.489999771118164,38.02899932861328 6.784999847412109,60.32500076293945 C19.066999435424805,80.97000122070312 29.507999420166016,88.5510025024414 23.76799964904785,94.4540023803711z"></path></g></g><g opacity="1" transform="matrix(1,0,0,1,0,0)"><g opacity="1" transform="matrix(1,0,0,1,408.4490051269531,314.6470031738281)"><path fill="rgb(164,0,0)" fill-opacity="1" d=" M50.292999267578125,78.99199676513672 C44.8390007019043,84.60800170898438 -51.91299819946289,52.29100036621094 -51.91299819946289,-58.069000244140625 C-51.91299819946289,-65.61199951171875 -51.46500015258789,-72.78199768066406 -50.625999450683594,-79.60099792480469 C-50.84600067138672,-76.00599670410156 -50.959999084472656,-72.33399963378906 -50.959999084472656,-68.55799865722656 C-50.959999084472656,35.832000732421875 35.5989990234375,69.43699645996094 49.58700180053711,68.12100219726562 C52.191001892089844,72.44000244140625 52.858001708984375,76.36000061035156 50.292999267578125,78.99199676513672z"></path></g></g><g opacity="1" transform="matrix(1,0,0,1,0,0)"><g opacity="1" transform="matrix(1,0,0,1,409.5589904785156,256.57501220703125)"><path stroke-linecap="round" stroke-linejoin="round" fill-opacity="0" stroke="rgb(164,0,0)" stroke-opacity="1" stroke-width="8" d=" M48.231998443603516,137.06900024414062 C53.9739990234375,131.16400146484375 43.52399826049805,123.57599639892578 31.242000579833984,102.93599700927734 C17.974000930786133,80.63899993896484 0.7710000276565552,48.91699981689453 0.7710000276565552,0.0010000000474974513 C0.7710000276565552,-48.915000915527344 17.974000930786133,-80.63899993896484 31.242000579833984,-102.93499755859375 C43.52399826049805,-123.57499694824219 53.9739990234375,-131.16299438476562 48.231998443603516,-137.0679931640625 C42.77199935913086,-142.68299865722656 -53.9739990234375,-110.88400268554688 -53.9739990234375,0.0010000000474974513 C-53.9739990234375,110.36499786376953 42.77199935913086,142.6840057373047 48.231998443603516,137.06900024414062z"></path></g></g><g opacity="1" transform="matrix(1,0,0,1,0,0)"><g opacity="1" transform="matrix(1,0,0,1,407.8840026855469,342.15301513671875)"><path stroke-linecap="round" stroke-linejoin="round" fill-opacity="0" stroke="rgb(134,0,1)" stroke-opacity="1" stroke-width="8" d=" M-49.90599822998047,-56.58100128173828 C-34.97200012207031,30.510000228881836 44.95800018310547,56.58100128173828 49.90599822998047,51.49100112915039"></path></g></g></g><g style="display: block;" transform="matrix(0.8448957800865173,0,0,0.8448957800865173,39.70667266845703,39.70667266845703)" opacity="0.9963327142373544"><g opacity="1" transform="matrix(1,0,0,1,0,0)"><g opacity="1" transform="matrix(1,0,0,1,102.44300079345703,256.5679931640625)"><path fill="rgb(253,6,17)" fill-opacity="1" d=" M-48.231998443603516,-137.06900024414062 C-53.9739990234375,-131.16299438476562 -43.52399826049805,-123.57599639892578 -31.242000579833984,-102.93599700927734 C-17.974000930786133,-80.63999938964844 -0.7710000276565552,-48.91600036621094 -0.7710000276565552,-0.0010000000474974513 C-0.7710000276565552,48.915000915527344 -17.974000930786133,80.63899993896484 -31.242000579833984,102.93599700927734 C-43.52399826049805,123.57599639892578 -53.9739990234375,131.16299438476562 -48.231998443603516,137.06900024414062 C-42.77199935913086,142.6840057373047 53.9739990234375,110.88400268554688 53.9739990234375,-0.0010000000474974513 C53.9739990234375,-110.36499786376953 -42.77199935913086,-142.6840057373047 -48.231998443603516,-137.06900024414062z"></path></g></g><g opacity="1" transform="matrix(1,0,0,1,0,0)"><g opacity="1" transform="matrix(1,0,0,1,99.20999908447266,163.07899475097656)"><path fill="rgb(248,83,104)" fill-opacity="1" d=" M48.130001068115234,48.3380012512207 C23.34600067138672,-16.72599983215332 -36.80099868774414,-36.64699935913086 -41.1870002746582,-32.13600158691406 C-41.67399978637695,-31.641000747680664 -42.0359992980957,-31.135000228881836 -42.29399871826172,-30.610000610351562 C-46.45199966430664,-36.65599822998047 -48.130001068115234,-40.36600112915039 -45.00199890136719,-43.57899856567383 C-40.36800003051758,-48.3380012512207 26.84600067138672,-25.841999053955078 48.130001068115234,48.3380012512207z"></path></g></g><g opacity="1" transform="matrix(1,0,0,1,0,0)"><g opacity="1" transform="matrix(1,0,0,1,77.9749984741211,299.1669921875)"><path fill="rgb(248,83,104)" fill-opacity="1" d=" M29.507999420166016,-31.15399932861328 C29.507999420166016,17.756000518798828 10.35099983215332,49.481998443603516 -2.9130001068115234,71.77799987792969 C-9.244999885559082,82.42900085449219 -16.100000381469727,89.5999984741211 -19.486000061035156,94.86399841308594 C-22.250999450683594,95.27400207519531 -23.13800048828125,95.12100219726562 -23.767000198364258,94.4729995727539 C-29.507999420166016,88.56099700927734 -19.055999755859375,80.9800033569336 -6.77400016784668,60.33399963378906 C6.489999771118164,38.03900146484375 23.694000244140625,6.313000202178955 23.694000244140625,-42.59700012207031 C23.694000244140625,-62.946998596191406 20.718000411987305,-80.31199645996094 16.284000396728516,-95.27400207519531 C22.739999771118164,-77.90899658203125 29.507999420166016,-56.91999816894531 29.507999420166016,-31.15399932861328z"></path></g></g><g opacity="1" transform="matrix(1,0,0,1,0,0)"><g opacity="1" transform="matrix(1,0,0,1,103.54900360107422,314.7170104980469)"><path fill="rgb(164,0,0)" fill-opacity="1" d=" M51.9109992980957,-58.14799880981445 C51.9109992980957,52.736000061035156 -44.83100128173828,84.53800201416016 -50.29499816894531,78.9219970703125 C-52.85100173950195,76.29000091552734 -52.19300079345703,72.37000274658203 -49.5989990234375,68.05999755859375 C-49.5989990234375,68.05999755859375 -49.5890007019043,68.05999755859375 -49.5890007019043,68.05999755859375 C-35.599998474121094,69.42400360107422 50.957000732421875,36.24800109863281 50.957000732421875,-68.63800048828125 C50.957000732421875,-72.35700225830078 50.84299850463867,-75.98999786376953 50.63399887084961,-79.53800201416016 C51.4630012512207,-72.75700378417969 51.9109992980957,-65.63400268554688 51.9109992980957,-58.14799880981445z"></path></g></g><g opacity="1" transform="matrix(1,0,0,1,0,0)"><g opacity="1" transform="matrix(1,0,0,1,102.44300079345703,256.5679931640625)"><path stroke-linecap="round" stroke-linejoin="round" fill-opacity="0" stroke="rgb(164,0,0)" stroke-opacity="1" stroke-width="8" d=" M-48.231998443603516,-137.06900024414062 C-53.9739990234375,-131.16299438476562 -43.52399826049805,-123.57599639892578 -31.242000579833984,-102.93599700927734 C-17.974000930786133,-80.63999938964844 -0.7710000276565552,-48.91600036621094 -0.7710000276565552,-0.0010000000474974513 C-0.7710000276565552,48.915000915527344 -17.974000930786133,80.63899993896484 -31.242000579833984,102.93599700927734 C-43.52399826049805,123.57599639892578 -53.9739990234375,131.16299438476562 -48.231998443603516,137.06900024414062 C-42.77199935913086,142.6840057373047 53.9739990234375,110.88400268554688 53.9739990234375,-0.0010000000474974513 C53.9739990234375,-110.36499786376953 -42.77199935913086,-142.6840057373047 -48.231998443603516,-137.06900024414062z"></path></g></g><g opacity="1" transform="matrix(1,0,0,1,0,0)"><g opacity="1" transform="matrix(1,0,0,1,104.11599731445312,342.2139892578125)"><path stroke-linecap="round" stroke-linejoin="round" fill-opacity="0" stroke="rgb(134,0,1)" stroke-opacity="1" stroke-width="8" d=" M-49.904998779296875,51.42300033569336 C-44.957000732421875,56.512001037597656 34.9640007019043,30.871000289916992 49.904998779296875,-56.512001037597656"></path></g></g></g><g style="display: block;" transform="matrix(0.844084620475769,0,0,0.844084620475769,39.914329528808594,39.914329528808594)" opacity="0.9963327142373544"><g opacity="1" transform="matrix(1,0,0,1,0,0)"><g opacity="1" transform="matrix(1,0,0,1,256.0050048828125,103.01399993896484)"><path fill="rgb(253,6,17)" fill-opacity="1" d=" M137.06900024414062,-48.233001708984375 C131.16400146484375,-53.974998474121094 123.57499694824219,-43.52399826049805 102.93499755859375,-31.242000579833984 C80.63899993896484,-17.974000930786133 48.91699981689453,-0.7720000147819519 0.0010000000474974513,-0.7720000147819519 C-48.915000915527344,-0.7720000147819519 -80.63899993896484,-17.974000930786133 -102.93499755859375,-31.242000579833984 C-123.57599639892578,-43.52399826049805 -131.16299438476562,-53.974998474121094 -137.0679931640625,-48.233001708984375 C-142.68299865722656,-42.77299880981445 -110.88400268554688,53.9739990234375 0.0010000000474974513,53.9739990234375 C110.36499786376953,53.9739990234375 142.6840057373047,-42.77299880981445 137.06900024414062,-48.233001708984375z"></path></g></g><g opacity="1" transform="matrix(1,0,0,1,0,0)"><g opacity="1" transform="matrix(1,0,0,1,256.00299072265625,80.6500015258789)"><path fill="rgb(248,83,104)" fill-opacity="1" d=" M136.07400512695312,-15.706000328063965 C130.2760009765625,-19.46299934387207 122.427001953125,-10.45199966430664 102.93599700927734,1.1440000534057617 C80.63999938964844,14.409000396728516 48.91600036621094,31.611000061035156 0.006000000052154064,31.611000061035156 C-48.91400146484375,31.611000061035156 -80.63999938964844,14.409000396728516 -102.93499755859375,1.1440000534057617 C-122.46499633789062,-10.479999542236328 -130.31300354003906,-19.510000228881836 -136.1009979248047,-15.675999641418457 C-137.86500549316406,-21.711999893188477 -138.10400390625,-24.858999252319336 -137.06399536132812,-25.8700008392334 C-131.16099548339844,-31.611000061035156 -123.57099914550781,-21.160999298095703 -102.93499755859375,-8.878000259399414 C-80.63999938964844,4.386000156402588 -48.91400146484375,21.589000701904297 0.006000000052154064,21.589000701904297 C48.91600036621094,21.589000701904297 80.63999938964844,4.386000156402588 102.93599700927734,-8.878000259399414 C123.58200073242188,-21.160999298095703 131.16299438476562,-31.611000061035156 137.0760040283203,-25.8700008392334 C138.10499572753906,-24.868999481201172 137.85699462890625,-21.722999572753906 136.07400512695312,-15.706000328063965z"></path></g></g><g opacity="1" transform="matrix(1,0,0,1,0,0)"><g opacity="1" transform="matrix(1,0,0,1,256.00299072265625,105.59100341796875)"><path fill="rgb(164,0,0)" fill-opacity="1" d=" M0.004999999888241291,51.39400100708008 C-110.87899780273438,51.39400100708008 -142.6820068359375,-45.3489990234375 -137.06500244140625,-50.8129997253418 C-136.8459930419922,-51.02299880981445 -136.63600158691406,-51.2130012512207 -136.41600036621094,-51.375999450683594 C-129.36000061035156,-25.42799949645996 -91.75,40.81800079345703 0.004999999888241291,40.81800079345703 C91.3499984741211,40.81800079345703 129.2270050048828,-25.457000732421875 136.38900756835938,-51.39500045776367 C136.61700439453125,-51.231998443603516 136.8459930419922,-51.03200149536133 137.0749969482422,-50.8129997253418 C142.6820068359375,-45.3489990234375 110.36399841308594,51.39400100708008 0.004999999888241291,51.39400100708008z"></path></g></g><g opacity="1" transform="matrix(1,0,0,1,0,0)"><g opacity="1" transform="matrix(1,0,0,1,256.0050048828125,103.01399993896484)"><path stroke-linecap="round" stroke-linejoin="round" fill-opacity="0" stroke="rgb(164,0,0)" stroke-opacity="1" stroke-width="8" d=" M137.06900024414062,-48.233001708984375 C131.16400146484375,-53.974998474121094 123.57499694824219,-43.52399826049805 102.93499755859375,-31.242000579833984 C80.63899993896484,-17.974000930786133 48.91699981689453,-0.7720000147819519 0.0010000000474974513,-0.7720000147819519 C-48.915000915527344,-0.7720000147819519 -80.63899993896484,-17.974000930786133 -102.93499755859375,-31.242000579833984 C-123.57599639892578,-43.52399826049805 -131.16299438476562,-53.974998474121094 -137.0679931640625,-48.233001708984375 C-142.68299865722656,-42.77299880981445 -110.88400268554688,53.9739990234375 0.0010000000474974513,53.9739990234375 C110.36499786376953,53.9739990234375 142.6840057373047,-42.77299880981445 137.06900024414062,-48.233001708984375z"></path></g></g><g opacity="1" transform="matrix(1,0,0,1,0,0)"><g opacity="1" transform="matrix(1,0,0,1,256.0039978027344,105.88500213623047)"><path stroke-linecap="round" stroke-linejoin="round" fill-opacity="0" stroke="rgb(134,0,1)" stroke-opacity="1" stroke-width="8" d=" M-137.0679931640625,-51.104000091552734 C-142.68299865722656,-45.64400100708008 -110.88500213623047,51.104000091552734 0,51.104000091552734 C110.36399841308594,51.104000091552734 142.68299865722656,-45.64400100708008 137.0679931640625,-51.104000091552734"></path></g></g></g><g style="display: block;" transform="matrix(0.8409446477890015,0,0,0.8409446477890015,40.71798324584961,40.71760177612305)" opacity="0.9963327142373544"><g opacity="1" transform="matrix(1,0,0,1,201.37100219726562,104.74199676513672)"><path stroke-linecap="round" stroke-linejoin="round" fill-opacity="0" stroke="rgb(254,254,254)" stroke-opacity="1" stroke-width="6" d=" M-4.982999801635742,-1.496999979019165 C-2.0829999446868896,-0.4909999966621399 1.2979999780654907,0.5649999976158142 4.982999801635742,1.496999979019165"></path></g></g><g style="display: block;" transform="matrix(0.8409446477890015,0,0,0.8409446477890015,40.71816635131836,40.7181510925293)" opacity="0.9963327142373544"><g opacity="1" transform="matrix(1,0,0,1,185.5189971923828,98.87000274658203)"><path stroke-linecap="round" stroke-linejoin="round" fill-opacity="0" stroke="rgb(254,254,254)" stroke-opacity="1" stroke-width="6" d=" M0.5730000138282776,0.25 C0.5730000138282776,0.25 -0.5730000138282776,-0.25099998712539673 0.5730000138282776,0.25z"></path></g></g></g><g clip-path="url(#__lottie_element_26081)" style="display: none;"><g style="display: none;"><g><g><path></path></g></g><g><g><path></path></g></g><g><g><path></path></g></g><g><g><path stroke-linecap="round" stroke-linejoin="round" fill-opacity="0"></path></g></g><g><g><path stroke-linecap="round" stroke-linejoin="round" fill-opacity="0"></path></g></g></g><g style="display: none;"><g><g><path></path></g></g><g><g><path></path></g></g><g><g><path></path></g></g><g><g><path></path></g></g><g><g><path stroke-linecap="round" stroke-linejoin="round" fill-opacity="0"></path></g></g><g><g><path stroke-linecap="round" stroke-linejoin="round" fill-opacity="0"></path></g></g></g><g style="display: none;"><g><g><path></path></g></g><g><g><path></path></g></g><g><g><path></path></g></g><g><g><path></path></g></g><g><g><path stroke-linecap="round" stroke-linejoin="round" fill-opacity="0"></path></g></g><g><g><path stroke-linecap="round" stroke-linejoin="round" fill-opacity="0"></path></g></g></g><g style="display: none;"><g><g><path></path></g></g><g><g><path></path></g></g><g><g><path></path></g></g><g><g><path stroke-linecap="round" stroke-linejoin="round" fill-opacity="0"></path></g></g><g><g><path stroke-linecap="round" stroke-linejoin="round" fill-opacity="0"></path></g></g></g><g style="display: none;"><g><g><path></path></g></g><g><g><path></path></g></g><g><g><path></path></g></g><g><g><path stroke-linecap="round" stroke-linejoin="round" fill-opacity="0"></path></g></g><g><g><path stroke-linecap="round" stroke-linejoin="round" fill-opacity="0"></path></g></g></g><g style="display: none;"><g><g><path></path></g></g><g><g><path></path></g></g><g><g><path></path></g></g><g><g><path></path></g></g><g><g><path stroke-linecap="round" stroke-linejoin="round" fill-opacity="0"></path></g></g><g><g><path stroke-linecap="round" stroke-linejoin="round" fill-opacity="0"></path></g></g></g><g style="display: none;"><g><g><path></path></g></g><g><g><path></path></g></g><g><g><path></path></g></g><g><g><path></path></g></g><g><g><path stroke-linecap="round" stroke-linejoin="round" fill-opacity="0"></path></g></g><g><g><path stroke-linecap="round" stroke-linejoin="round" fill-opacity="0"></path></g></g></g><g style="display: none;"><g><g><path></path></g></g><g><g><path></path></g></g><g><g><path></path></g></g><g><g><path stroke-linecap="round" stroke-linejoin="round" fill-opacity="0"></path></g></g><g><g><path stroke-linecap="round" stroke-linejoin="round" fill-opacity="0"></path></g></g></g><g style="display: none;"><g><g><path></path></g></g><g><g><path></path></g></g><g><g><path></path></g></g><g><g><path stroke-linecap="round" stroke-linejoin="round" fill-opacity="0"></path></g></g><g><g><path stroke-linecap="round" stroke-linejoin="round" fill-opacity="0"></path></g></g></g><g style="display: none;"><g><g><path></path></g></g><g><g><path></path></g></g><g><g><path></path></g></g><g><g><path></path></g></g><g><g><path stroke-linecap="round" stroke-linejoin="round" fill-opacity="0"></path></g></g><g><g><path stroke-linecap="round" stroke-linejoin="round" fill-opacity="0"></path></g></g></g><g style="display: none;"><g><g><path></path></g></g><g><g><path></path></g></g><g><g><path></path></g></g><g><g><path></path></g></g><g><g><path stroke-linecap="round" stroke-linejoin="round" fill-opacity="0"></path></g></g><g><g><path stroke-linecap="round" stroke-linejoin="round" fill-opacity="0"></path></g></g></g><g style="display: none;"><g><g><path></path></g></g><g><g><path></path></g></g><g><g><path></path></g></g><g><g><path stroke-linecap="round" stroke-linejoin="round" fill-opacity="0"></path></g></g><g><g><path stroke-linecap="round" stroke-linejoin="round" fill-opacity="0"></path></g></g></g><g style="display: none;"><g><path stroke-linecap="round" stroke-linejoin="round" fill-opacity="0"></path></g></g><g style="display: none;"><g><path stroke-linecap="round" stroke-linejoin="round" fill-opacity="0"></path></g></g></g></g></svg>