<svg xmlns="http://www.w3.org/2000/svg" viewBox="0 0 512 512" width="512" height="512" style="width: 100%; height: 100%; transform: translate3d(0,0,0);" preserveAspectRatio="xMidYMid meet"><defs><clipPath id="__lottie_element_26222"><rect width="512" height="512" x="0" y="0"></rect></clipPath><radialGradient id="__lottie_element_26227" spreadMethod="pad" gradientUnits="userSpaceOnUse"><stop></stop><stop></stop><stop></stop></radialGradient><linearGradient id="__lottie_element_26233" spreadMethod="pad" gradientUnits="userSpaceOnUse" x1="125.05899810791016" y1="199.35299682617188" x2="-43.599998474121094" y2="249.3260040283203"><stop offset="0%" stop-color="rgb(132,226,34)"></stop><stop offset="50%" stop-color="rgb(108,184,24)"></stop><stop offset="100%" stop-color="rgb(83,142,14)"></stop></linearGradient><linearGradient id="__lottie_element_26242" spreadMethod="pad" gradientUnits="userSpaceOnUse" x1="339.0589904785156" y1="-332.6470031738281" x2="78.55599975585938" y2="-64.30899810791016"><stop offset="0%" stop-color="rgb(132,226,34)"></stop><stop offset="50%" stop-color="rgb(108,184,24)"></stop><stop offset="100%" stop-color="rgb(83,142,14)"></stop></linearGradient><linearGradient id="__lottie_element_26252" spreadMethod="pad" gradientUnits="userSpaceOnUse" x1="-13.940999984741211" y1="-135.64700317382812" x2="-416.4100036621094" y2="159.11900329589844"><stop offset="14%" stop-color="rgb(132,226,34)"></stop><stop offset="53%" stop-color="rgb(108,184,24)"></stop><stop offset="91%" stop-color="rgb(83,142,14)"></stop></linearGradient></defs><g clip-path="url(#__lottie_element_26222)"><g style="display: block;" transform="matrix(0.42239999771118164,0,0,0.42239999771118164,259.16015625,249.00003051757812)" opacity="1"><g opacity="1" transform="matrix(1,0,0,1,0,0)"><path fill="url(#__lottie_element_26233)" fill-opacity="1" d=" M29.208999633789062,-58.933998107910156 C15.706000328063965,-56.21799850463867 75.40699768066406,30.5 75.4729995727539,178.11500549316406 C75.55699920654297,365.3500061035156 22.7189998626709,466.1409912109375 34.03900146484375,488.38299560546875 C40.279998779296875,500.64599609375 83.70500183105469,506.0820007324219 98.62200164794922,494.6080017089844 C113.53900146484375,483.1340026855469 146.2100067138672,324.2239990234375 131.68600463867188,184.28799438476562 C119.49600219726562,66.83399963378906 53.11199951171875,-63.74100112915039 29.208999633789062,-58.933998107910156z"></path></g><g opacity="0.5" transform="matrix(1,0,0,1,0,0)"><path fill="rgb(50,127,0)" fill-opacity="1" d=" M129.2729949951172,363.31298828125 C121.25299835205078,434.239990234375 107.08899688720703,488.08599853515625 98.63200378417969,494.6059875488281 C83.6969985961914,506.0830078125 40.2859992980957,500.6470031738281 34.0369987487793,488.37799072265625 C22.72599983215332,466.1310119628906 75.5510025024414,365.35400390625 75.46800231933594,178.11099243164062 C75.40499877929688,30.507999420166016 15.706000328063965,-56.20800018310547 29.20400047302246,-58.9370002746582 C29.20400047302246,-58.9370002746582 102.2770004272461,39.361000061035156 103.19300079345703,244.76800537109375 C103.5260009765625,322.5899963378906 75.51000213623047,399.0159912109375 88.13300323486328,425.4289855957031 C99.46499633789062,449.1130065917969 121.66999816894531,415.4930114746094 129.2729949951172,363.31298828125z"></path></g><g opacity="1" transform="matrix(1,0,0,1,0,0)"><path stroke-linecap="round" stroke-linejoin="round" fill-opacity="0" stroke="rgb(50,127,0)" stroke-opacity="1" stroke-width="18.885" d=" M29.208999633789062,-58.933998107910156 C15.706000328063965,-56.21799850463867 75.40699768066406,30.5 75.4729995727539,178.11500549316406 C75.55699920654297,365.3500061035156 22.7189998626709,466.1409912109375 34.03900146484375,488.38299560546875 C40.279998779296875,500.64599609375 83.70500183105469,506.0820007324219 98.62200164794922,494.6080017089844 C113.53900146484375,483.1340026855469 146.2100067138672,324.2239990234375 131.68600463867188,184.28799438476562 C119.49600219726562,66.83399963378906 53.11199951171875,-63.74100112915039 29.208999633789062,-58.933998107910156z"></path></g><g opacity="1" transform="matrix(1,0,0,1,0,0)"><path stroke-linecap="round" stroke-linejoin="round" fill-opacity="0" stroke="rgb(36,91,1)" stroke-opacity="1" stroke-width="18.885" d=" M44.81800079345703,-2.0490000247955322 C58.59199905395508,38.534000396728516 75.43800354003906,99.74099731445312 75.4729995727539,178.11500549316406 C75.55699920654297,365.3500061035156 22.7189998626709,466.1409912109375 34.03900146484375,488.38299560546875 C40.02299880981445,500.1400146484375 80.18699645996094,505.62200927734375 96.63600158691406,495.9419860839844"></path></g></g><g style="display: block;" transform="matrix(0.4223986566066742,0,0,0.4223986566066742,259.1604919433594,249.00018310546875)" opacity="1"><g opacity="1" transform="matrix(1,0,0,1,0,0)"><path fill="url(#__lottie_element_26252)" fill-opacity="1" d=" M45.268001556396484,-0.7110000252723694 C45.268001556396484,-0.7110000252723694 1.6080000400543213,-22.09000015258789 -64.09100341796875,7.296000003814697 C-86.13500213623047,17.1560001373291 -142.74200439453125,53.09299850463867 -207.48199462890625,110.5260009765625 C-261.3219909667969,158.28900146484375 -323.5790100097656,174.8520050048828 -382.9519958496094,167.28900146484375 C-430.239013671875,161.26600646972656 -443.7950134277344,159.24899291992188 -484.6159973144531,200.17999267578125 C-484.6159973144531,200.17999267578125 -476.0360107421875,160.86900329589844 -458.9169921875,114.86199951171875 C-441.7980041503906,68.8550033569336 -428.90301513671875,-2.8940000534057617 -356.1470031738281,-61.145999908447266 C-283.3909912109375,-119.39800262451172 -199.99200439453125,-124.80400085449219 -147.56500244140625,-119.4540023803711 C-95.13800048828125,-114.10399627685547 19.83300018310547,-60.64799880981445 45.268001556396484,-0.7110000252723694z"></path></g><g opacity="0.5" transform="matrix(1,0,0,1,0,0)"><path fill="rgb(50,127,0)" fill-opacity="1" d=" M45.222999572753906,-0.7369999885559082 C28.95800018310547,-16.18899917602539 -54.472999572753906,-10.694000244140625 -129.7830047607422,39.56399917602539 C-129.7830047607422,39.56399917602539 -57.98500061035156,-0.9549999833106995 -61.099998474121094,-19.266000747680664 C-63.000999450683594,-30.43899917602539 -126.66400146484375,-52.73400115966797 -153.8560028076172,-9.281999588012695 C-153.8560028076172,-9.281999588012695 -153.49099731445312,-23.219999313354492 -146.69700622558594,-30.131999969482422 C-137.15499877929688,-39.84000015258789 -231.69400024414062,-31.68600082397461 -295.48199462890625,10.932000160217285 C-411.5539855957031,88.48200225830078 -471.875,167.61399841308594 -484.614990234375,200.17100524902344 C-454.5459899902344,96.02300262451172 -428.8940124511719,-2.9040000438690186 -356.1549987792969,-61.14500045776367 C-283.3949890136719,-119.40699768066406 -218.99600219726562,-118.46700286865234 -147.56100463867188,-119.4489974975586 C-76.1259994506836,-120.43099975585938 35.22700119018555,-29.545000076293945 45.222999572753906,-0.7369999885559082z"></path></g><g opacity="0.2" transform="matrix(1,0,0,1,0,0)"><path fill="rgb(168,255,0)" fill-opacity="1" d=" M-166.11300659179688,-25.54800033569336 C-178.95599365234375,-34.91699981689453 -237.3730010986328,-15.673999786376953 -264.3869934082031,43.75699996948242 C-291.4010009765625,103.18800354003906 -278.8999938964844,104.6729965209961 -266.5610046386719,102.87200164794922 C-254.2220001220703,101.07099914550781 -236.07899475097656,81.58899688720703 -210.9949951171875,42.12300109863281 C-181.7310028076172,-3.9189999103546143 -157.1699981689453,-19.02400016784668 -166.11300659179688,-25.54800033569336z"></path></g><g opacity="0.2" transform="matrix(1,0,0,1,0,0)"><path fill="rgb(168,255,0)" fill-opacity="1" d=" M-315.77099609375,34.36899948120117 C-332.70098876953125,40.08599853515625 -393.98199462890625,96.60900115966797 -387.59698486328125,131.14500427246094 C-381.21099853515625,165.68099975585938 -338.0899963378906,100.36699676513672 -328.6570129394531,78.83599853515625 C-317.14300537109375,52.55699920654297 -301.2959899902344,29.481000900268555 -315.77099609375,34.36899948120117z"></path></g><g opacity="0.2" transform="matrix(1,0,0,1,0,0)"><path fill="rgb(168,255,0)" fill-opacity="1" d=" M-157.77499389648438,-72.5999984741211 C-166.40199279785156,-84.63500213623047 -229.22900390625,-94.99700164794922 -266.1449890136719,-76.37799835205078 C-303.0610046386719,-57.75899887084961 -272.0140075683594,-42.28900146484375 -219.6739959716797,-52.099998474121094 C-206.79600524902344,-54.513999938964844 -149.86099243164062,-61.558998107910156 -157.77499389648438,-72.5999984741211z"></path></g><g opacity="0.2" transform="matrix(1,0,0,1,0,0)"><path fill="rgb(168,255,0)" fill-opacity="1" d=" M-305.843994140625,-54.071998596191406 C-322.9469909667969,-60.11800003051758 -341.81500244140625,-41.6879997253418 -332.7909851074219,-42.04399871826172 C-319.9630126953125,-42.54999923706055 -311.9809875488281,-43.29399871826172 -302.27301025390625,-44.053001403808594 C-293.6650085449219,-44.72600173950195 -293.0769958496094,-49.558998107910156 -305.843994140625,-54.071998596191406z"></path></g><g opacity="0.3" transform="matrix(1,0,0,1,0,0)"><path fill="rgb(168,255,0)" fill-opacity="1" d=" M-287.4280090332031,-27.570999145507812 C-294.9800109863281,-32.49300003051758 -331.0769958496094,-38.72800064086914 -369.2179870605469,-18.599000930786133 C-408.7179870605469,2.246999979019165 -434.37200927734375,65.53700256347656 -416.0480041503906,70.54299926757812 C-406.9670104980469,73.02400207519531 -366.09100341796875,19.7810001373291 -325.9209899902344,-2.135999917984009 C-289.093994140625,-22.22800064086914 -278.44000244140625,-21.714000701904297 -287.4280090332031,-27.570999145507812z"></path></g><g opacity="0.5" transform="matrix(1,0,0,1,0,0)"><path fill="rgb(168,255,0)" fill-opacity="1" d=" M28.392000198364258,-10.562000274658203 C-5.682000160217285,-5.682000160217285 -22.725000381469727,-11.192999839782715 -64.09400177001953,7.303999900817871 C-86.13200378417969,17.1560001373291 -142.74899291992188,53.0880012512207 -207.48899841308594,110.51699829101562 C-261.3139953613281,158.281005859375 -338.9169921875,170.3159942626953 -398.2829895019531,162.73399353027344 C-344.885986328125,150.5679931640625 -295.4549865722656,164.2050018310547 -236.88400268554688,110.86000061035156 C-182.29800415039062,61.14500045776367 -56.81800079345703,-44.31800079345703 28.392000198364258,-10.562000274658203z"></path></g></g><g style="display: block;" transform="matrix(0.4223986566066742,0,0,0.4223986566066742,259.1604919433594,249.00018310546875)" opacity="0.63"><g opacity="1" transform="matrix(1,0,0,1,0,0)"><path fill="rgb(176,221,67)" fill-opacity="1" d=" M32.81399917602539,-21.51799964904785 C32.81399917602539,-21.51799964904785 -15.934000015258789,-49.45899963378906 -120.99299621582031,-48.64699935913086 C-263.1419982910156,-47.54899978637695 -352.9119873046875,22.4060001373291 -425.7799987792969,113.22000122070312 C-425.7799987792969,113.22000122070312 -323.27099609375,-30.388999938964844 -166.91200256347656,-42.250999450683594 C-7.116000175476074,-54.374000549316406 27.22100067138672,-6.251999855041504 27.22100067138672,-6.251999855041504"></path><path stroke-linecap="round" stroke-linejoin="round" fill-opacity="0" stroke="rgb(176,221,67)" stroke-opacity="1" stroke-width="4.721" d=" M32.81399917602539,-21.51799964904785 C32.81399917602539,-21.51799964904785 -15.934000015258789,-49.45899963378906 -120.99299621582031,-48.64699935913086 C-263.1419982910156,-47.54899978637695 -352.9119873046875,22.4060001373291 -425.7799987792969,113.22000122070312 C-425.7799987792969,113.22000122070312 -323.27099609375,-30.388999938964844 -166.91200256347656,-42.250999450683594 C-7.116000175476074,-54.374000549316406 27.22100067138672,-6.251999855041504 27.22100067138672,-6.251999855041504"></path></g><g opacity="1" transform="matrix(1,0,0,1,0,0)"><path stroke-linecap="round" stroke-linejoin="round" fill-opacity="0" stroke="rgb(176,221,67)" stroke-opacity="1" stroke-width="4.721" d=" M-248.4409942626953,-25.54800033569336 C-315.01800537109375,23.341999053955078 -326.5050048828125,86.65499877929688 -326.5050048828125,86.65499877929688"></path></g><g opacity="1" transform="matrix(1,0,0,1,0,0)"><path stroke-linecap="round" stroke-linejoin="round" fill-opacity="0" stroke="rgb(176,221,67)" stroke-opacity="1" stroke-width="4.721" d=" M-107.10399627685547,-48.071998596191406 C-107.10399627685547,-48.071998596191406 -162.3719940185547,-37.685001373291016 -210.57000732421875,47.54800033569336"></path></g><g class="1" opacity="1" transform="matrix(1,0,0,1,0,0)"><path stroke-linecap="round" stroke-linejoin="round" fill-opacity="0" stroke="rgb(176,221,67)" stroke-opacity="1" stroke-width="4.721" d=" M-162.49899291992188,34.36899948120117 C-162.49899291992188,34.36899948120117 -160.48199462890625,-7.826000213623047 -141.56300354003906,-31.68600082397461"></path></g><g opacity="1" transform="matrix(1,0,0,1,0,0)"><path stroke-linecap="round" stroke-linejoin="round" fill-opacity="0" stroke="rgb(176,221,67)" stroke-opacity="1" stroke-width="4.721" d=" M-344.05999755859375,-29.875999450683594 C-344.05999755859375,-29.875999450683594 -289.2030029296875,-35.29100036621094 -219.6750030517578,-35.29100036621094"></path></g><g class="1" opacity="1" transform="matrix(1,0,0,1,0,0)"><path stroke-linecap="round" stroke-linejoin="round" fill-opacity="0" stroke="rgb(176,221,67)" stroke-opacity="1" stroke-width="4.721" d=" M-295.48199462890625,-60.08000183105469 C-295.48199462890625,-60.08000183105469 -281.8680114746094,-39.00400161743164 -266.1449890136719,-34.520999908447266"></path></g><g opacity="1" transform="matrix(1,0,0,1,0,0)"><path stroke-linecap="round" stroke-linejoin="round" fill-opacity="0" stroke="rgb(176,221,67)" stroke-opacity="1" stroke-width="4.721" d=" M-193.86599731445312,-88.4209976196289 C-193.86599731445312,-88.4209976196289 -138.4290008544922,-81.0999984741211 -78.08399963378906,-45.9900016784668"></path></g><g class="1" opacity="1" transform="matrix(1,0,0,1,0,0)"><path stroke-linecap="round" stroke-linejoin="round" fill-opacity="0" stroke="rgb(176,221,67)" stroke-opacity="1" stroke-width="4.721" d=" M-148.3280029296875,-101.21700286865234 C-148.3280029296875,-101.21700286865234 -138.6540069580078,-79.86299896240234 -126.66400146484375,-69.45600128173828"></path></g></g><g style="display: block;" transform="matrix(0.4223986566066742,0,0,0.4223986566066742,259.1604919433594,249.00018310546875)" opacity="1"><g opacity="0.7000000000000001" transform="matrix(1,0,0,1,0,0)"><path fill="rgb(168,255,0)" fill-opacity="1" d=" M-373.91400146484375,15.359000205993652 C-388.7179870605469,17.131000518798828 -420.302001953125,50.35200119018555 -417.2820129394531,69.41999816894531 C-415.6470031738281,79.74400329589844 -346.5039978027344,12.07800006866455 -373.91400146484375,15.359000205993652z"></path></g><g opacity="0.7000000000000001" transform="matrix(1,0,0,1,0,0)"><path fill="rgb(168,255,0)" fill-opacity="1" d=" M-342.4620056152344,-9.229000091552734 C-351.4429931640625,-9.918999671936035 -363.6050109863281,-3.867000102996826 -362.0459899902344,5.139999866485596 C-360.48699951171875,14.147000312805176 -328.427001953125,-8.151000022888184 -342.4620056152344,-9.229000091552734z"></path></g><g opacity="1" transform="matrix(0.9999924898147583,0.0038746213540434837,-0.0038746213540434837,0.9999924898147583,0,0)"><path stroke-linecap="round" stroke-linejoin="round" fill-opacity="0" stroke="rgb(50,127,0)" stroke-opacity="1" stroke-width="18.885" d=" M45.268001556396484,-0.7110000252723694 C45.268001556396484,-0.7110000252723694 1.6080000400543213,-22.09000015258789 -64.09100341796875,7.296000003814697 C-86.13500213623047,17.1560001373291 -142.74200439453125,53.09299850463867 -207.48199462890625,110.5260009765625 C-261.3219909667969,158.28900146484375 -323.5790100097656,174.8520050048828 -382.9519958496094,167.28900146484375 C-430.239013671875,161.26600646972656 -443.7950134277344,159.24899291992188 -484.6159973144531,200.17999267578125 C-484.6159973144531,200.17999267578125 -476.0360107421875,160.86900329589844 -458.9169921875,114.86199951171875 C-441.7980041503906,68.8550033569336 -428.90301513671875,-2.8940000534057617 -356.1470031738281,-61.145999908447266 C-283.3909912109375,-119.39800262451172 -199.99200439453125,-124.80400085449219 -147.56500244140625,-119.4540023803711 C-95.13800048828125,-114.10399627685547 19.83300018310547,-60.64799880981445 45.268001556396484,-0.7110000252723694z"></path></g><g opacity="1" transform="matrix(0.9999924898147583,0.0038746213540434837,-0.0038746213540434837,0.9999924898147583,0,0)"><path stroke-linecap="round" stroke-linejoin="round" fill-opacity="0" stroke="rgb(36,91,1)" stroke-opacity="1" stroke-width="18.885" d=" M45.268001556396484,-0.7110000252723694 C45.268001556396484,-0.7110000252723694 1.6080000400543213,-22.09000015258789 -64.09100341796875,7.296000003814697 C-86.13500213623047,17.1560001373291 -142.74200439453125,53.09299850463867 -207.48199462890625,110.5260009765625 C-261.3219909667969,158.28900146484375 -323.5790100097656,174.8520050048828 -382.9519958496094,167.28900146484375 C-430.22900390625,161.26699829101562 -443.78900146484375,159.25 -484.59100341796875,200.1540069580078"></path></g></g><g style="display: block;" transform="matrix(0.4223986566066742,0,0,0.4223986566066742,259.1601867675781,249.00025939941406)" opacity="1"><g opacity="1" transform="matrix(1,0,0,1,0,0)"><path fill="url(#__lottie_element_26242)" fill-opacity="1" d=" M71.3010025024414,-10.70199966430664 C71.3010025024414,-10.70199966430664 98.07599639892578,-55.01300048828125 135.322998046875,-74.052001953125 C165.38900756835938,-89.41999816894531 220.60299682617188,-95.97799682617188 264.66400146484375,-111.8550033569336 C325.1759948730469,-133.66000366210938 381.0299987792969,-169.5189971923828 415.99798583984375,-221.7100067138672 C447.06500244140625,-268.0780029296875 443.69500732421875,-325.635009765625 446.6369934082031,-341.3580017089844 C449.42401123046875,-356.2539978027344 467.8110046386719,-369.1029968261719 484.614990234375,-375.8030090332031 C484.614990234375,-375.8030090332031 418.9519958496094,-393.3599853515625 306.0849914550781,-389.5979919433594 C193.21800231933594,-385.83599853515625 103.375,-307.2139892578125 71.3010025024414,-230.3300018310547 C49.99599838256836,-179.26199340820312 53.06100082397461,-40.1870002746582 71.3010025024414,-10.70199966430664z"></path></g><g opacity="0.4" transform="matrix(1,0,0,1,0,-1.1360000371932983)"><path fill="rgb(50,127,0)" fill-opacity="1" d=" M484.6159973144531,-375.8059997558594 C484.6159973144531,-375.8059997558594 319.3179931640625,-340.90899658203125 253.8249969482422,-270.8819885253906 C245.70700073242188,-262.2019958496094 257.1210021972656,-263.614990234375 257.1210021972656,-263.614990234375 C239.6179962158203,-256.99700927734375 175.29600524902344,-198.0019989013672 177.98699951171875,-183.18099975585938 C180.55599975585938,-169.03199768066406 207.9720001220703,-178.58399963378906 215.1699981689453,-180.8699951171875 C215.1699981689453,-180.8699951171875 159.76600646972656,-149.57200622558594 169.00999450683594,-152.2760009765625 C189.37600708007812,-158.23199462890625 279.1300048828125,-173.58399963378906 277.9580078125,-173.26400756835938 C148.1490020751953,-137.84500122070312 146.6959991455078,-115.52200317382812 148.21099853515625,-111.13899993896484 C156.38499450683594,-87.49199676513672 309.9630126953125,-131.41900634765625 309.9630126953125,-131.41900634765625 C241.41400146484375,-86.27999877929688 127.9520034790039,-109.82599639892578 71.322998046875,-10.736000061035156 C71.302001953125,-10.71500015258789 49.99300003051758,-179.2519989013672 71.302001953125,-230.3280029296875 C103.37999725341797,-307.2120056152344 193.2220001220703,-385.82598876953125 306.0799865722656,-389.59600830078125 C418.9590148925781,-393.3659973144531 484.6159973144531,-375.8059997558594 484.6159973144531,-375.8059997558594z"></path></g><g opacity="0.2" transform="matrix(1,0,0,1,0,0)"><path fill="rgb(168,255,0)" fill-opacity="1" d=" M299.47100830078125,-163.88499450683594 C291.63299560546875,-180.08200073242188 214.8090057373047,-159.84100341796875 186.9600067138672,-140.26699829101562 C159.11099243164062,-120.69300079345703 314.9230041503906,-131.9510040283203 299.47100830078125,-163.88499450683594z"></path></g><g opacity="0.2" transform="matrix(1,0,0,1,0,0)"><path fill="rgb(168,255,0)" fill-opacity="1" d=" M328.1159973144531,-224.37899780273438 C326.1510009765625,-242.4250030517578 242.0850067138672,-250.9459991455078 186.68099975585938,-196.31700134277344 C164.5229949951172,-174.468994140625 190.95399475097656,-173.91700744628906 202.10699462890625,-175.7100067138672 C233.5469970703125,-180.76499938964844 237.73800659179688,-184.26699829101562 257.06298828125,-189.38299560546875 C317.4259948730469,-205.36399841308594 329.35400390625,-213.01100158691406 328.1159973144531,-224.37899780273438z"></path></g><g opacity="0.2" transform="matrix(1,0,0,1,0,0)"><path fill="rgb(168,255,0)" fill-opacity="1" d=" M412.7550048828125,-333.9219970703125 C398.2340087890625,-347.1199951171875 310.1659851074219,-322.7049865722656 280.781005859375,-291.0450134277344 C261.885986328125,-270.68701171875 313.0299987792969,-289.46099853515625 363.760986328125,-301.02301025390625 C396.91900634765625,-308.5799865722656 421.51800537109375,-325.9570007324219 412.7550048828125,-333.9219970703125z"></path></g><g opacity="0.2" transform="matrix(1,0,0,1,0,0)"><path fill="rgb(168,255,0)" fill-opacity="1" d=" M275.22100830078125,-363.15399169921875 C247.69900512695312,-366.87298583984375 228.52099609375,-312.0610046386719 235.69500732421875,-287.8810119628906 C239.58099365234375,-274.78399658203125 265.5459899902344,-312.239013671875 277.9580078125,-331.239013671875 C287.39300537109375,-345.6820068359375 291.6390075683594,-360.93499755859375 275.22100830078125,-363.15399169921875z"></path></g><g opacity="0.2" transform="matrix(1,0,0,1,0,0)"><path fill="rgb(168,255,0)" fill-opacity="1" d=" M172.7899932861328,-324.3039855957031 C151.80599975585938,-320.760009765625 125.35399627685547,-269.22601318359375 144.1009979248047,-217.7830047607422 C153.57000732421875,-191.80099487304688 170.0760040283203,-234.86900329589844 178.7530059814453,-265.6029968261719 C186.86700439453125,-294.3420104980469 194.4409942626953,-327.96099853515625 172.7899932861328,-324.3039855957031z"></path></g><g opacity="0.5" transform="matrix(1,0,0,1,0,0)"><path fill="rgb(168,255,0)" fill-opacity="1" d=" M484.6159973144531,-375.8059997558594 C467.8059997558594,-369.0989990234375 449.4330139160156,-356.2460021972656 446.6419982910156,-341.3529968261719 C443.7049865722656,-325.6260070800781 447.0589904785156,-268.0719909667969 416.0010070800781,-221.70399475097656 C381.0270080566406,-169.5240020751953 325.1809997558594,-133.6540069580078 264.66900634765625,-111.84500122070312 C236.65199279785156,-101.76300048828125 176.2239990234375,-88.41200256347656 176.2239990234375,-88.41200256347656 C357.03900146484375,-149.46099853515625 416.0010070800781,-221.70399475097656 418.50201416015625,-301.72698974609375 C420.14898681640625,-354.4429931640625 431.5429992675781,-364.0719909667969 431.5429992675781,-364.0719909667969 C370.4200134277344,-367.47100830078125 236.6179962158203,-407.56500244140625 117.70999908447266,-289.07598876953125 C222.84500122070312,-453.0190124511719 484.6159973144531,-375.8059997558594 484.6159973144531,-375.8059997558594z"></path></g></g><g style="display: block;" transform="matrix(0.4223986566066742,0,0,0.4223986566066742,259.1601867675781,249.00025939941406)" opacity="0.63"><g opacity="1" transform="matrix(1,0,0,1,0,0)"><path fill="rgb(176,221,67)" fill-opacity="1" d=" M67.01399993896484,-20.38599967956543 C67.01399993896484,-20.38599967956543 95.68699645996094,-128.36300659179688 207.78799438476562,-244.27499389648438 C277.9580078125,-316.8299865722656 367.72100830078125,-345.7449951171875 367.72100830078125,-345.7449951171875 C367.72100830078125,-345.7449951171875 170.2310028076172,-291.0459899902344 71.3010025024414,-10.70199966430664"></path><path stroke-linecap="round" stroke-linejoin="round" fill-opacity="0" stroke="rgb(176,221,67)" stroke-opacity="1" stroke-width="4.721" d=" M67.01399993896484,-20.38599967956543 C67.01399993896484,-20.38599967956543 95.68699645996094,-128.36300659179688 207.78799438476562,-244.27499389648438 C277.9580078125,-316.8299865722656 367.72100830078125,-345.7449951171875 367.72100830078125,-345.7449951171875 C367.72100830078125,-345.7449951171875 170.2310028076172,-291.0459899902344 71.3010025024414,-10.70199966430664"></path></g><g opacity="1" transform="matrix(1,0,0,1,0,0)"><path stroke-linecap="round" stroke-linejoin="round" fill-opacity="0" stroke="rgb(176,221,67)" stroke-opacity="1" stroke-width="4.721" d=" M108.35700225830078,-239.6020050048828 C108.35700225830078,-239.6020050048828 127.12999725341797,-178.91799926757812 117.70999908447266,-125.65799713134766"></path></g><g opacity="1" transform="matrix(1,0,0,1,0,0)"><path stroke-linecap="round" stroke-linejoin="round" fill-opacity="0" stroke="rgb(176,221,67)" stroke-opacity="1" stroke-width="4.721" d=" M126.23899841308594,-229.12600708007812 C126.23899841308594,-229.12600708007812 122.25800323486328,-216.5780029296875 116.91000366210938,-200.41000366210938"></path></g><g opacity="1" transform="matrix(1,0,0,1,0,0)"><path stroke-linecap="round" stroke-linejoin="round" fill-opacity="0" stroke="rgb(176,221,67)" stroke-opacity="1" stroke-width="4.721" d=" M93.00900268554688,-196.31700134277344 C93.00900268554688,-196.31700134277344 106.0199966430664,-178.78700256347656 119.02999877929688,-169.7830047607422"></path></g><g opacity="1" transform="matrix(1,0,0,1,0,0)"><path stroke-linecap="round" stroke-linejoin="round" fill-opacity="0" stroke="rgb(176,221,67)" stroke-opacity="1" stroke-width="4.7" d=" M117.70999908447266,-125.65799713134766 C117.70999908447266,-125.65799713134766 151.8070068359375,-157.13299560546875 277.9580078125,-173.26400756835938"></path></g><g opacity="1" transform="matrix(1,0,0,1,0,0)"><path stroke-linecap="round" stroke-linejoin="round" fill-opacity="0" stroke="rgb(176,221,67)" stroke-opacity="1" stroke-width="4.721" d=" M158.1909942626953,-146.39199829101562 C158.1909942626953,-146.39199829101562 187.18299865722656,-164.13600158691406 215.1699981689453,-178.78700256347656"></path></g><g opacity="1" transform="matrix(1,0,0,1,0,0)"><path stroke-linecap="round" stroke-linejoin="round" fill-opacity="0" stroke="rgb(176,221,67)" stroke-opacity="1" stroke-width="4.721" d=" M207.78799438476562,-244.27499389648438 C207.78799438476562,-244.27499389648438 255.46600341796875,-271.83599853515625 381.4469909667969,-291.0450134277344"></path></g><g opacity="1" transform="matrix(1,0,0,1,0,0)"><path stroke-linecap="round" stroke-linejoin="round" fill-opacity="0" stroke="rgb(176,221,67)" stroke-opacity="1" stroke-width="4.721" d=" M266.2590026855469,-265.6029968261719 C266.2590026855469,-265.6029968261719 311.5979919433594,-263.01800537109375 367.72100830078125,-224.36199951171875"></path></g><g opacity="1" transform="matrix(1,0,0,1,0,0)"><path stroke-linecap="round" stroke-linejoin="round" fill-opacity="0" stroke="rgb(176,221,67)" stroke-opacity="1" stroke-width="4.721" d=" M222.84500122070312,-337.81500244140625 C222.84500122070312,-337.81500244140625 220.63999938964844,-287.75299072265625 207.78799438476562,-244.27499389648438"></path></g><g opacity="1" transform="matrix(1,0,0,1,0,0)"><path stroke-linecap="round" stroke-linejoin="round" fill-opacity="0" stroke="rgb(176,221,67)" stroke-opacity="1" stroke-width="4.721" d=" M198.21600341796875,-312.0610046386719 C198.21600341796875,-312.0610046386719 209.73699951171875,-303.1449890136719 216.572998046875,-283.7090148925781"></path></g><g opacity="1" transform="matrix(1,0,0,1,0,0)"><path stroke-linecap="round" stroke-linejoin="round" fill-opacity="0" stroke="rgb(176,221,67)" stroke-opacity="1" stroke-width="4.721" d=" M285.9880065917969,-306.6260070800781 C301.1629943847656,-332.7030029296875 315.77899169921875,-346.87298583984375 315.77899169921875,-346.87298583984375"></path></g><g opacity="1" transform="matrix(1,0,0,1,0,0)"><path stroke-linecap="round" stroke-linejoin="round" fill-opacity="0" stroke="rgb(176,221,67)" stroke-opacity="1" stroke-width="4.721" d=" M332.63299560546875,-244.98199462890625 C332.63299560546875,-244.98199462890625 364.5260009765625,-251.78599548339844 381.4469909667969,-250.85899353027344"></path></g></g><g style="display: block;" transform="matrix(0.4223986566066742,0,0,0.4223986566066742,259.1601867675781,249.00025939941406)" opacity="1"><g opacity="1" transform="matrix(1,0,0,0.99795001745224,0,0)"><path stroke-linecap="round" stroke-linejoin="round" fill-opacity="0" stroke="rgb(255,255,255)" stroke-opacity="1" stroke-width="14.164" d=" M341.2869873046875,-369.9679870605469 C347.5090026855469,-369.9490051269531 354.0060119628906,-369.7380065917969 359.6889953613281,-369.1619873046875"></path></g><g opacity="1" transform="matrix(1,0,0,0.99795001745224,0,0)"><path stroke-linecap="round" stroke-linejoin="round" fill-opacity="0" stroke="rgb(255,255,255)" stroke-opacity="1" stroke-width="14.164" d=" M315.77899169921875,-369.1619873046875 C315.77899169921875,-369.1619873046875 317.6570129394531,-369.2929992675781 320.7510070800781,-369.45001220703125"></path></g><g opacity="1" transform="matrix(1,0,0,1,0,0)"><path stroke-linecap="round" stroke-linejoin="round" fill-opacity="0" stroke="rgb(50,127,0)" stroke-opacity="1" stroke-width="18.885" d=" M71.3010025024414,-10.70199966430664 C71.3010025024414,-10.70199966430664 98.07599639892578,-55.01300048828125 135.322998046875,-74.052001953125 C165.38900756835938,-89.41999816894531 220.60299682617188,-95.97799682617188 264.66400146484375,-111.8550033569336 C325.1759948730469,-133.66000366210938 381.0299987792969,-169.5189971923828 415.99798583984375,-221.7100067138672 C447.06500244140625,-268.0780029296875 443.69500732421875,-325.635009765625 446.6369934082031,-341.3580017089844 C449.42401123046875,-356.2539978027344 467.8110046386719,-369.1029968261719 484.614990234375,-375.8030090332031 C484.614990234375,-375.8030090332031 418.9519958496094,-393.3599853515625 306.0849914550781,-389.5979919433594 C193.21800231933594,-385.83599853515625 103.375,-307.2139892578125 71.3010025024414,-230.3300018310547 C49.99599838256836,-179.26199340820312 53.06100082397461,-40.1870002746582 71.3010025024414,-10.70199966430664z"></path></g><g opacity="1" transform="matrix(1,0,0,1,0,0)"><path stroke-linecap="round" stroke-linejoin="round" fill-opacity="0" stroke="rgb(36,91,1)" stroke-opacity="1" stroke-width="18.885" d=" M71.3010025024414,-10.70199966430664 C71.3010025024414,-10.70199966430664 98.07599639892578,-55.01300048828125 135.322998046875,-74.052001953125 C165.38900756835938,-89.41999816894531 220.60299682617188,-95.97799682617188 264.66400146484375,-111.8550033569336 C325.1759948730469,-133.66000366210938 381.0299987792969,-169.5189971923828 415.99798583984375,-221.7100067138672 C447.06500244140625,-268.0780029296875 443.69500732421875,-325.635009765625 446.6369934082031,-341.3580017089844 C449.42401123046875,-356.2539978027344 467.8110046386719,-369.1029968261719 484.614990234375,-375.8030090332031 C484.614990234375,-375.8030090332031 484.614990234375,-375.8030090332031 484.614990234375,-375.8030090332031"></path></g></g><g style="display: none;"><g><path fill="url(#__lottie_element_26227)"></path><path stroke-linecap="butt" stroke-linejoin="miter" fill-opacity="0" stroke-miterlimit="4"></path></g><g><path></path></g></g></g></svg>