<svg xmlns="http://www.w3.org/2000/svg" viewBox="0 0 512 512" width="512" height="512" style="width: 100%; height: 100%; transform: translate3d(0,0,0);" preserveAspectRatio="xMidYMid meet"><defs><clipPath id="__lottie_element_26254"><rect width="512" height="512" x="0" y="0"></rect></clipPath></defs><g clip-path="url(#__lottie_element_26254)"><g style="display: block;" transform="matrix(1,0,0,1,374.64599609375,306.41900634765625)" opacity="1"><g opacity="1" transform="matrix(1,0,0,1,0,0)"><path fill="rgb(255,209,64)" fill-opacity="1" d=" M25.1560001373291,-57.65800094604492 C40.86199951171875,-53.43299865722656 49.16899871826172,-53.01499938964844 68.76799774169922,-52.61899948120117 C83.57099914550781,-51.452999114990234 85.83300018310547,-21.89900016784668 83.32499694824219,17.48200035095215 C81.4540023803711,46.858001708984375 74.01100158691406,84.20899963378906 62.12200164794922,83.14600372314453 C35.95199966430664,80.80500030517578 15.914999961853027,81.197998046875 4.770999908447266,82.08200073242188 C4.770999908447266,82.08200073242188 -151.3699951171875,42.80699920654297 -146.5229949951172,-16.645999908447266 C-143.13299560546875,-58.236000061035156 -138.58999633789062,-84.20500183105469 -85.28099822998047,-96.69599914550781 C-50.58100128173828,-89.83999633789062 3.2279999256134033,-64.50299835205078 25.1560001373291,-57.65800094604492z"></path></g></g><g style="display: block;" transform="matrix(1,0,0,1,279.7409973144531,312.3320007324219)" opacity="1"><g opacity="1" transform="matrix(1,0,0,1,0,0)"><path fill="rgb(255,177,57)" fill-opacity="1" d=" M-21.177000045776367,82.6510009765625 C-4.586999893188477,90.30699920654297 19.584999084472656,94.21600341796875 42.49700164794922,90.4489974975586 C62.52299880981445,87.15699768066406 84.1510009765625,78.64900207519531 100.64399719238281,75.15699768066406 C106.9260025024414,73.16799926757812 157.0189971923828,79.16100311279297 162.14199829101562,75.83300018310547 C167.26400756835938,72.50499725341797 181.96499633789062,44.055999755859375 176.406005859375,4.992000102996826 C169.75900268554688,29.167999267578125 165.75900268554688,37.167999267578125 147.4669952392578,35.33399963378906 C113.60700225830078,31.93899917602539 110.75800323486328,35.167999267578125 80.92500305175781,54.667999267578125 C54.29499816894531,72.0739974975586 22.523000717163086,62.95199966430664 -19.395999908447266,24.44700050354004 C-45.194000244140625,0.7509999871253967 -25.888999938964844,-59.823001861572266 -43.05500030517578,-73.5739974975586 C-61.448001861572266,-88.30799865722656 -74.9209976196289,-96.27200317382812 -99.49700164794922,-95.302001953125 C-120.38099670410156,-94.47799682617188 -139.4239959716797,-80.52200317382812 -155.5780029296875,-67.26200103759766 C-170.0240020751953,-55.40399932861328 -174.24099731445312,-34.332000732421875 -176.17300415039062,-16.420000076293945 C-131.24099731445312,31.667999267578125 -48.74100112915039,69.16799926757812 -21.177000045776367,82.6510009765625z"></path></g></g><g style="display: block;" transform="matrix(1,0,0,1,234.96200561523438,264.28900146484375)" opacity="1"><g opacity="1" transform="matrix(1,0,0,1,0,0)"><path fill="rgb(255,209,64)" fill-opacity="1" d=" M164.11399841308594,-15.75 C133.406005859375,-22.94700050354004 105.92500305175781,-43.02000045776367 75.12000274658203,-60.194000244140625 C40.17100143432617,-79.67900085449219 21.573999404907227,-89.33499908447266 7.289000034332275,-96.98200225830078 C-10.659000396728516,-106.58999633789062 -25.80699920654297,-107.77300262451172 -38.19900131225586,-104.87999725341797 C-46.30799865722656,-102.98600006103516 -53.23699951171875,-99.34700012207031 -58.99599838256836,-95.18199920654297 C-112.08399963378906,-56.79100036621094 -155.2740020751953,-52.891998291015625 -157.0019989013672,-17.632999420166016 C-159.48899841308594,33.10300064086914 -162.46600341796875,46.32500076293945 -164.072998046875,82 C-165.6490020751953,116.99800109863281 -120.91500091552734,111.38999938964844 -115.38300323486328,82.677001953125 C-109.08499908447266,49.98400115966797 -100.98600006103516,26.59000015258789 -93.18800354003906,-5.802999973297119 C-79.38500213623047,-10.255999565124512 -71.29299926757812,-15.10099983215332 -54.797000885009766,-24.698999404907227"></path></g></g><g style="display: block;" transform="matrix(1,0,0,1,265.30902099609375,243.4499969482422)" opacity="1"><g opacity="1" transform="matrix(1,0,0,1,0,0)"><path fill="rgb(255,223,121)" fill-opacity="1" d=" M167.97500610351562,25.917999267578125 C179.5749969482422,21.965999603271484 186.95399475097656,29.283000946044922 191.1199951171875,64.83399963378906 C192.2209930419922,30.634000778198242 192.55599975585938,9.20300006866455 175.30299377441406,10.083999633789062 C158.0489959716797,10.965999603271484 133.76699829101562,5.089000225067139 133.76699829101562,5.089000225067139 C103.05899810791016,-2.1080000400543213 75.5780029296875,-22.180999755859375 44.77299880981445,-39.35499954223633 C9.824000358581543,-58.84000015258789 -8.77299976348877,-68.49600219726562 -23.058000564575195,-76.14299774169922 C-41.00600051879883,-85.7509994506836 -56.15399932861328,-86.93399810791016 -68.5459976196289,-84.04100036621094 C-76.65499877929688,-82.14700317382812 -83.58399963378906,-78.50800323486328 -89.34300231933594,-74.34300231933594 C-142.43099975585938,-35.95199966430664 -188.10899353027344,-26.200000762939453 -187.3489990234375,3.2060000896453857 C-186.48800659179688,36.54199981689453 -189.10899353027344,57.79999923706055 -191.52099609375,85.427001953125 C-183.25100708007812,56.92100143432617 -180.2469940185547,15.61299991607666 -173.92599487304688,-3.1410000324249268 C-167.11900329589844,-23.336999893188477 -118.33999633789062,-39.439998626708984 -78.56400299072266,-67.66899871826172 C-52.86800003051758,-85.90499877929688 -5.4730000495910645,-55.35599899291992 44.555999755859375,-27.423999786376953 C102.947998046875,5.177999973297119 103.9219970703125,6.4770002365112305 125.03199768066406,22.06599998474121 C138.20599365234375,31.795000076293945 157.8820037841797,29.357999801635742 167.97500610351562,25.917999267578125z"></path></g></g><g style="display: block;" transform="matrix(1,0,0,1,419.1340026855469,319.17401123046875)" opacity="1"><g opacity="1" transform="matrix(1,0,0,1,0,0)"><path stroke-linecap="round" stroke-linejoin="round" fill-opacity="0" stroke="rgb(247,126,65)" stroke-opacity="1" stroke-width="8" d=" M-19.332000732421875,-70.41300201416016 C-7.974999904632568,-67.60900115966797 4.681000232696533,-65.7699966430664 24.280000686645508,-65.3740005493164 C39.08300018310547,-64.20800018310547 41.345001220703125,-34.65399932861328 38.83700180053711,4.7270002365112305 C36.965999603271484,34.10300064086914 29.523000717163086,71.4540023803711 17.634000778198242,70.39099884033203 C-8.53600025177002,68.05000305175781 -28.572999954223633,68.44300079345703 -39.71699905395508,69.3270034790039"></path></g></g><g style="display: block;" transform="matrix(1,0,0,1,174.78900146484375,273.5)" opacity="1"><g opacity="1" transform="matrix(1,0,0,1,0,0)"><path fill="rgb(255,177,57)" fill-opacity="1" d=" M64.43099975585938,-46.35499954223633 C71.12200164794922,-48.8390007019043 38.61399841308594,-62.42499923706055 17.891000747680664,-52.91299819946289 C-17.099000930786133,-34.90800094604492 -45.04800033569336,-42.082000732421875 -50.99300003051758,-20.08300018310547 C-54.39099884033203,-7.513000011444092 -57.340999603271484,22.886999130249023 -68.54399871826172,38.56399917602539 C-77.23400115966797,50.7239990234375 -81.55999755859375,44.50299835205078 -89.14099884033203,59.83100128173828 C-94.35600280761719,70.375 -93.02799987792969,86.97200012207031 -102.4489974975586,81.6729965209961 C-92.47799682617188,107.8489990234375 -63.724998474121094,106.79399871826172 -55.209999084472656,73.46600341796875 C-46.96900177001953,41.20800018310547 -40.8129997253418,17.378999710083008 -33.01499938964844,-15.013999938964844 C-19.211999893188477,-19.466999053955078 60.770999908447266,-44.99599838256836 64.43099975585938,-46.35499954223633z"></path></g></g><g style="display: block;" transform="matrix(1,0,0,1,174.78900146484375,273.5)" opacity="1"><g opacity="1" transform="matrix(1,0,0,1,0,0)"><path fill="rgb(255,177,57)" fill-opacity="1" d=" M64.43099975585938,-46.35499954223633 C71.12200164794922,-48.8390007019043 82.89299774169922,-73.53700256347656 102.4489974975586,-88.18099975585938 C91.6780014038086,-93.71900177001953 85.9520034790039,-96.5780029296875 79.04199981689453,-100.01899719238281 C36.98699951171875,-65.33200073242188 9.211000442504883,-38 5.375999927520752,-33.90999984741211 C4.8480000495910645,-26.06399917602539 13.6899995803833,-19.242000579833984 24.229999542236328,-22.445999145507812 C41.81100082397461,-27.790000915527344 60.770999908447266,-44.99599838256836 64.43099975585938,-46.35499954223633z"></path></g></g><g style="display: block;" transform="matrix(1,0,0,1,234.96200561523438,264.28900146484375)" opacity="1"><g opacity="1" transform="matrix(1,0,0,1,0,0)"><path stroke-linecap="round" stroke-linejoin="round" fill-opacity="0" stroke="rgb(247,126,65)" stroke-opacity="1" stroke-width="8" d=" M164.11399841308594,-15.75 C133.406005859375,-22.94700050354004 105.92500305175781,-43.02000045776367 75.12000274658203,-60.194000244140625 C40.17100143432617,-79.67900085449219 21.573999404907227,-89.33499908447266 7.289000034332275,-96.98200225830078 C-10.659000396728516,-106.58999633789062 -25.80699920654297,-107.77300262451172 -38.19900131225586,-104.87999725341797 C-46.30799865722656,-102.98600006103516 -53.23699951171875,-99.34700012207031 -58.99599838256836,-95.18199920654297 C-112.08399963378906,-56.79100036621094 -155.2740020751953,-52.891998291015625 -157.0019989013672,-17.632999420166016 C-159.48899841308594,33.10300064086914 -162.46600341796875,46.32500076293945 -164.072998046875,82 C-165.6490020751953,116.99800109863281 -120.91500091552734,111.38999938964844 -115.38300323486328,82.677001953125 C-109.08499908447266,49.98400115966797 -100.98600006103516,26.59000015258789 -93.18800354003906,-5.802999973297119 C-79.38500213623047,-10.255999565124512 -71.29299926757812,-15.10099983215332 -54.797000885009766,-24.698999404907227"></path></g></g><g style="display: block;" transform="matrix(1,0,0,1,322.06500244140625,396.28399658203125)" opacity="1"><g opacity="1" transform="matrix(1,0,0,1,0,0)"><path stroke-linecap="round" stroke-linejoin="round" fill-opacity="0" stroke="rgb(247,126,65)" stroke-opacity="1" stroke-width="8" d=" M-118.4229965209961,-36.11899948120117 C-96.31600189208984,-20.034000396728516 -81.80400085449219,-10.116999626159668 -63.880001068115234,-1.5989999771118164 C-50.064998626708984,4.966000080108643 -31.17300033569336,8.621999740600586 -13.956000328063965,7.809000015258789 C12.866999626159668,6.544000148773193 45.499000549316406,-7.5289998054504395 60.92300033569336,-7.994999885559082"></path></g></g><g style="display: block;" transform="matrix(1,0,0,1,229.76699829101562,373.6289978027344)" opacity="1"><g opacity="1" transform="matrix(1,0,0,1,0,0)"><path fill="rgb(255,177,57)" fill-opacity="1" d=" M-64.74299621582031,-16.81999969482422 C-36.266998291015625,17.371000289916992 -11.307999610900879,25.229000091552734 -2.1429998874664307,27.19300079345703 C7.020999908447266,29.156999588012695 26.277999877929688,31.447999954223633 28.490999221801758,16.9060001373291 C30.608999252319336,2.986999988555908 12.942000389099121,-2.818000078201294 -0.1720000058412552,-7.947000026702881 C-10.605999946594238,-12.027999877929688 -17.406999588012695,-16.138999938964844 -28.663999557495117,-28.641000747680664"></path><path stroke-linecap="round" stroke-linejoin="round" fill-opacity="0" stroke="rgb(247,126,65)" stroke-opacity="1" stroke-width="8" d=" M-64.74299621582031,-16.81999969482422 C-36.266998291015625,17.371000289916992 -11.307999610900879,25.229000091552734 -2.1429998874664307,27.19300079345703 C7.020999908447266,29.156999588012695 26.277999877929688,31.447999954223633 28.490999221801758,16.9060001373291 C30.608999252319336,2.986999988555908 12.942000389099121,-2.818000078201294 -0.1720000058412552,-7.947000026702881 C-10.605999946594238,-12.027999877929688 -17.406999588012695,-16.138999938964844 -28.663999557495117,-28.641000747680664"></path></g></g><g style="display: block;" transform="matrix(1,0,0,1,183.51202392578125,378.39599609375)" opacity="1"><g opacity="1" transform="matrix(1,0,0,1,0,0)"><path fill="rgb(255,177,57)" fill-opacity="1" d=" M-42.14500045776367,-27.871000289916992 C-30.46500015258789,-5.9679999351501465 -20.00200080871582,10.043000221252441 -11.461999893188477,18.302000045776367 C0.7509999871253967,30.113000869750977 10.053000450134277,30.672000885009766 17.29800033569336,27.700000762939453 C24.426000595092773,24.774999618530273 25.503000259399414,12.920000076293945 20.770999908447266,5.400000095367432 C15.51099967956543,-2.9570000171661377 4.270999908447266,-15.649999618530273 -3.437000036239624,-29.215999603271484"></path><path stroke-linecap="round" stroke-linejoin="round" fill-opacity="0" stroke="rgb(247,126,65)" stroke-opacity="1" stroke-width="8" d=" M-42.14500045776367,-27.871000289916992 C-30.46500015258789,-5.9679999351501465 -20.00200080871582,10.043000221252441 -11.461999893188477,18.302000045776367 C0.7509999871253967,30.113000869750977 10.053000450134277,30.672000885009766 17.29800033569336,27.700000762939453 C24.426000595092773,24.774999618530273 25.503000259399414,12.920000076293945 20.770999908447266,5.400000095367432 C15.51099967956543,-2.9570000171661377 4.270999908447266,-15.649999618530273 -3.437000036239624,-29.215999603271484"></path></g></g><g style="display: block;" transform="matrix(1,0,0,1,144.3909912109375,384.57098388671875)" opacity="1"><g opacity="1" transform="matrix(1,0,0,1,0,0)"><path fill="rgb(255,177,57)" fill-opacity="1" d=" M-23.724000930786133,-27.027999877929688 C-23.64299964904785,-26.583999633789062 -14.9350004196167,1.8860000371932983 -13.333000183105469,5.15500020980835 C-6.552999973297119,18.986000061035156 2.364000082015991,21.788999557495117 9.07800006866455,20.42799949645996 C19.072999954223633,18.402000427246094 19.291000366210938,8.225000381469727 16.334999084472656,-2.242000102996826 C12.359000205993652,-16.320999145507812 2.7339999675750732,-32.3849983215332 2.5439999103546143,-32.698001861572266"></path><path stroke-linecap="round" stroke-linejoin="round" fill-opacity="0" stroke="rgb(247,126,65)" stroke-opacity="1" stroke-width="8" d=" M-23.724000930786133,-27.027999877929688 C-23.64299964904785,-26.583999633789062 -14.9350004196167,1.8860000371932983 -13.333000183105469,5.15500020980835 C-6.552999973297119,18.986000061035156 2.364000082015991,21.788999557495117 9.07800006866455,20.42799949645996 C19.072999954223633,18.402000427246094 19.291000366210938,8.225000381469727 16.334999084472656,-2.242000102996826 C12.359000205993652,-16.320999145507812 2.7339999675750732,-32.3849983215332 2.5439999103546143,-32.698001861572266"></path></g></g><g style="display: block;" transform="matrix(1,0,0,1,0,0)" opacity="1"><g opacity="1" transform="matrix(1,0,0,1,194.99099731445312,245.33900451660156)"><path fill="rgb(82,82,82)" fill-opacity="1" d=" M-137.9340057373047,192.99899291992188 C-137.9340057373047,192.99899291992188 -118.02799987792969,128.4929962158203 -118.02799987792969,128.4929962158203 C-118.02799987792969,128.4929962158203 105.47599792480469,-192.68299865722656 105.47599792480469,-192.68299865722656 C105.47599792480469,-192.68299865722656 107.72000122070312,-195.57699584960938 124.14600372314453,-183.8470001220703 C139.26400756835938,-173.0500030517578 137.9029998779297,-168.91099548339844 137.9029998779297,-168.91099548339844 C137.9029998779297,-168.91099548339844 -83.83200073242188,150.08700561523438 -83.83200073242188,150.08700561523438 C-83.83200073242188,150.08700561523438 -137.9340057373047,192.99899291992188 -137.9340057373047,192.99899291992188z"></path></g><g opacity="1" transform="matrix(1,0,0,1,197.04200744628906,248.86000061035156)"><path fill="rgb(66,65,65)" fill-opacity="1" d=" M-136.6790008544922,183.09500122070312 C-136.6790008544922,183.09500122070312 -96.9749984741211,136.08399963378906 -96.9749984741211,136.08399963378906 C-96.9749984741211,136.08399963378906 126.5250015258789,-183.09500122070312 126.5250015258789,-183.09500122070312 C126.5250015258789,-183.09500122070312 136.6790008544922,-173.26400756835938 136.6790008544922,-173.26400756835938 C136.6790008544922,-173.26400756835938 -85.88300323486328,146.5659942626953 -85.88300323486328,146.5659942626953 C-85.88300323486328,146.5659942626953 -136.6790008544922,183.09500122070312 -136.6790008544922,183.09500122070312z"></path></g><g opacity="1" transform="matrix(1,0,0,1,188.93800354003906,245.4969940185547)"><path fill="rgb(132,130,124)" fill-opacity="1" d=" M-131.8820037841797,192.84100341796875 C-131.8820037841797,192.84100341796875 -111.9749984741211,128.3350067138672 -111.9749984741211,128.3350067138672 C-111.9749984741211,128.3350067138672 111.52899932861328,-192.84100341796875 111.52899932861328,-192.84100341796875 C111.52899932861328,-192.84100341796875 125.38700103759766,-185.2480010986328 132.0070037841797,-179.0260009765625 C127.02300262451172,-181.61099243164062 118.81600189208984,-183.7209930419922 116.02300262451172,-179.8419952392578 C114.90699768066406,-178.29299926757812 112.26300048828125,-174.72000122070312 112.26300048828125,-174.72000122070312 C112.26300048828125,-174.72000122070312 -102.95600128173828,134.00799560546875 -102.95600128173828,134.00799560546875 C-102.95600128173828,134.00799560546875 -131.8820037841797,192.84100341796875 -131.8820037841797,192.84100341796875z"></path></g><g opacity="1" transform="matrix(1,0,0,1,189.43800354003906,245.9969940185547)"><path stroke-linecap="round" stroke-linejoin="round" fill-opacity="0" stroke="rgb(178,178,178)" stroke-opacity="1" stroke-width="6" d=" M43.51499938964844,-76.10299682617188 C43.15399932861328,-75.58499908447266 42.792999267578125,-75.06600189208984 42.43000030517578,-74.5459976196289"></path></g><g opacity="1" transform="matrix(1,0,0,1,189.43800354003906,245.9969940185547)"><path stroke-linecap="round" stroke-linejoin="round" fill-opacity="0" stroke="rgb(178,178,178)" stroke-opacity="1" stroke-width="6" d=" M62.5099983215332,-103.3499984741211 C58.321998596191406,-97.34200286865234 53.965999603271484,-91.09500122070312 49.48500061035156,-84.66600036621094"></path></g><g opacity="1" transform="matrix(0.8480480909347534,0.5299192667007446,-0.5299192667007446,0.8480480909347534,307.3970031738281,85.85199737548828)"><path fill="rgb(132,130,124)" fill-opacity="1" d=" M-4.0920000076293945,-25.628000259399414 C6.021999835968018,-25.628000259399414 16.035999298095703,-23.101999282836914 15.718000411987305,-21.371999740600586 C15.456000328063965,-19.947999954223633 5.810999870300293,-23.663000106811523 -4.302999973297119,-23.663000106811523 C-14.416999816894531,-23.663000106811523 -24.042999267578125,-22.535999298095703 -23.79599952697754,-23.399999618530273 C-23.389999389648438,-25.506000518798828 -14.206000328063965,-25.628000259399414 -4.0920000076293945,-25.628000259399414z"></path></g><g opacity="1" transform="matrix(1,0,0,1,194.99099731445312,245.33900451660156)"><path stroke-linecap="round" stroke-linejoin="round" fill-opacity="0" stroke="rgb(54,53,53)" stroke-opacity="1" stroke-width="8" d=" M-137.9340057373047,192.99899291992188 C-137.9340057373047,192.99899291992188 -118.02799987792969,128.4929962158203 -118.02799987792969,128.4929962158203 C-118.02799987792969,128.4929962158203 105.47599792480469,-192.68299865722656 105.47599792480469,-192.68299865722656 C105.47599792480469,-192.68299865722656 107.72000122070312,-195.57699584960938 124.14600372314453,-183.8470001220703 C139.26400756835938,-173.0500030517578 137.9029998779297,-168.91099548339844 137.9029998779297,-168.91099548339844 C137.9029998779297,-168.91099548339844 -83.83200073242188,150.08700561523438 -83.83200073242188,150.08700561523438 C-83.83200073242188,150.08700561523438 -137.9340057373047,192.99899291992188 -137.9340057373047,192.99899291992188z"></path></g><g opacity="1" transform="matrix(1,0,0,1,0,0)"><path fill="rgb(45,45,45)" fill-opacity="0.5" d=" M91.12200164794922,356.68701171875 C91.125,360.06201171875 93.18699645996094,368.18798828125 93.19999694824219,370.31298828125 C96.125,373.625 101.375,378.125 103.80799865722656,379.1969909667969 C106.875,381.125 112.5,385.625 114.43099975585938,390.6199951171875 C117.25,387 134.5,361.56298828125 134.5,361.56298828125 C134.5,361.56298828125 112.7770004272461,343.1189880371094 99.13099670410156,343.2720031738281 C95.5,347.875 92.50199890136719,354.4460144042969 91.12200164794922,356.68701171875z"></path></g></g><g style="display: block;" transform="matrix(1,0,0,1,0,0)" opacity="1"><g opacity="1" transform="matrix(1,0,0,1,234.11599731445312,303.60101318359375)"><path fill="rgb(255,209,64)" fill-opacity="1" d=" M2.9690001010894775,-74.12300109863281 C-21.615999221801758,-46.97600173950195 -51.097999572753906,-49.22100067138672 -76.72100067138672,-27.663000106811523 C-92.1760025024414,-14.659000396728516 -90.15499877929688,-12.682000160217285 -130.78500366210938,20.490999221801758 C-159.78399658203125,44.16899871826172 -128.55499267578125,76.34300231933594 -97.4010009765625,64.23799896240234 C-65.38200378417969,51.79800033569336 -48.11000061035156,34.8120002746582 -5.39300012588501,36.71900177001953 C28.22100067138672,38.220001220703125 31.72599983215332,66.77400207519531 68.79299926757812,75.63700103759766 C98.25800323486328,82.68299865722656 117.89600372314453,77.13300323486328 142.302001953125,65.31999969482422"></path></g><g opacity="1" transform="matrix(1,0,0,1,180.3090057373047,294.7439880371094)"><path fill="rgb(255,223,121)" fill-opacity="1" d=" M59.150001525878906,-66.33200073242188 C37.691001892089844,-42.99399948120117 2.7100000381469727,-40.36399841308594 -22.913000106811523,-18.805999755859375 C-38.36800003051758,-5.802000045776367 -55.520999908447266,12.623000144958496 -76.97799682617188,29.347999572753906 C-94.21099853515625,42.78099822998047 -98.77100372314453,72.9489974975586 -54.882999420166016,70.71499633789062 C-77.38500213623047,59.2239990234375 -83.52999877929688,48.75299835205078 -59.82400131225586,32.611000061035156 C-42.79999923706055,21.018999099731445 -28.33099937438965,4.9770002365112305 -11.519000053405762,-8.585000038146973 C3.802000045776367,-20.94300079345703 11.251999855041504,-19.392000198364258 45.37200164794922,-30.788999557495117 C130.73300170898438,-59.303001403808594 60.691001892089844,-67.24400329589844 59.150001525878906,-66.33200073242188z"></path></g><g opacity="1" transform="matrix(1,0,0,1,180.3090057373047,294.7439880371094)"><path stroke-linecap="round" stroke-linejoin="round" fill-opacity="0" stroke="rgb(255,255,255)" stroke-opacity="1" stroke-width="6" d=" M11.062000274658203,-20.422000885009766 C16.847000122070312,-22.222999572753906 23.881000518798828,-24.045000076293945 33.63600158691406,-27.031999588012695"></path></g><g opacity="1" transform="matrix(1,0,0,1,180.3090057373047,294.7439880371094)"><path stroke-linecap="round" stroke-linejoin="round" fill-opacity="0" stroke="rgb(255,255,255)" stroke-opacity="1" stroke-width="6" d=" M-1.899999976158142,-15.163999557495117 C-1.309999942779541,-15.48799991607666 -0.7200000286102295,-15.79699993133545 -0.12700000405311584,-16.093000411987305"></path></g><g opacity="1" transform="matrix(1,0,0,1,253.38699340820312,351.7539978027344)"><path fill="rgb(255,177,57)" fill-opacity="1" d=" M159.94700622558594,8.913000106811523 C125.9469985961914,-10.253999710083008 125.74199676513672,-1.2269999980926514 98.1449966430664,11.064000129699707 C70.69999694824219,23.28700065612793 33.68199920654297,5.931000232696533 9.875,-12.076000213623047 C-5.551000118255615,-23.743000030517578 -17.29800033569336,-32.13600158691406 -43.54899978637695,-30.358999252319336 C-53.04199981689453,-29.716999053955078 -62.95100021362305,-27.35300064086914 -73.98400115966797,-23.16900062561035 C-84.88700103759766,-19.034000396728516 -96.88700103759766,-13.121000289916992 -110.66600036621094,-5.333000183105469 C-125.58799743652344,3.1019999980926514 -153.2899932861328,9.741000175476074 -160.11900329589844,-3.7170000076293945 C-156.90499877929688,20.989999771118164 -133.56199645996094,22.648000717163086 -116.6719970703125,16.084999084472656 C-84.65299987792969,3.6449999809265137 -67.38099670410156,-13.340999603271484 -24.663999557495117,-11.434000015258789 C8.949999809265137,-9.932999610900879 12.454999923706055,18.621000289916992 49.52199935913086,27.483999252319336 C78.98699951171875,34.529998779296875 98.625,28.979999542236328 123.03099822998047,17.16699981689453 C131.85699462890625,12.895000457763672 162.69200134277344,11.538999557495117 159.94700622558594,8.913000106811523z"></path></g><g opacity="1" transform="matrix(1,0,0,1,253.38699340820312,351.7539978027344)"><path fill="rgb(255,177,57)" fill-opacity="1" d=" M147.32200622558594,-9.711999893188477 C147.28700256347656,-14.253999710083008 147.36300659179688,-26.003999710083008 144.11599731445312,-25.538000106811523 C134.83200073242188,-24.207000732421875 136.36300659179688,-0.004000000189989805 96.1449966430664,6.564000129699707 C65.072998046875,11.637999534606934 36.612998962402344,0.2460000067949295 10.875,-14.076000213623047 C-6.026000022888184,-23.479999542236328 -17.29800033569336,-32.13600158691406 -43.54899978637695,-30.358999252319336 C-53.04199981689453,-29.716999053955078 -67.38099670410156,-13.340999603271484 -24.663999557495117,-11.434000015258789 C8.949999809265137,-9.932999610900879 12.454999923706055,18.621000289916992 49.52199935913086,27.483999252319336 C78.98699951171875,34.529998779296875 98.625,28.979999542236328 123.03099822998047,17.16699981689453 C130.4949951171875,13.553999900817871 151.48800659179688,4.495999813079834 151.1580047607422,-3.0450000762939453 C147.9550018310547,-3.4089999198913574 147.36399841308594,-4.254000186920166 147.32200622558594,-9.711999893188477z"></path></g><g opacity="1" transform="matrix(1,0,0,1,234.11599731445312,303.60101318359375)"><path stroke-linecap="round" stroke-linejoin="round" fill-opacity="0" stroke="rgb(247,126,65)" stroke-opacity="1" stroke-width="8" d=" M2.9690001010894775,-74.12300109863281 C-21.615999221801758,-46.47600173950195 -51.097999572753906,-49.22100067138672 -76.72100067138672,-27.663000106811523 C-92.1760025024414,-14.659000396728516 -90.15499877929688,-12.682000160217285 -130.78500366210938,20.490999221801758 C-159.78399658203125,44.16899871826172 -128.55499267578125,76.34300231933594 -97.4010009765625,64.23799896240234 C-65.38200378417969,51.79800033569336 -48.11000061035156,34.8120002746582 -5.39300012588501,36.71900177001953 C28.22100067138672,38.220001220703125 31.72599983215332,66.77400207519531 68.79299926757812,75.63700103759766 C98.25800323486328,82.68299865722656 117.89600372314453,77.13300323486328 142.302001953125,65.31999969482422"></path></g></g></g></svg>