<svg xmlns="http://www.w3.org/2000/svg" viewBox="0 0 512 512" width="512" height="512" style="width: 100%; height: 100%; transform: translate3d(0,0,0);" preserveAspectRatio="xMidYMid meet"><defs><clipPath id="__lottie_element_26301"><rect width="512" height="512" x="0" y="0"></rect></clipPath><linearGradient id="__lottie_element_26314" spreadMethod="pad" gradientUnits="userSpaceOnUse" x1="1026.4219970703125" y1="-284.7359924316406" x2="1090.2750244140625" y2="-223.64500427246094"><stop offset="10%" stop-color="rgb(105,98,110)" stop-opacity="0.5"></stop><stop offset="65%" stop-color="rgb(92,87,99)" stop-opacity="0.75"></stop><stop offset="100%" stop-color="rgb(78,77,88)" stop-opacity="1"></stop></linearGradient><linearGradient id="__lottie_element_26315" spreadMethod="pad" gradientUnits="userSpaceOnUse" x1="58" y1="216" x2="45.67100143432617" y2="35.178001403808594"><stop offset="10%" stop-color="rgb(255,255,255)" stop-opacity="0"></stop><stop offset="65%" stop-color="rgb(255,255,255)" stop-opacity="0.5"></stop><stop offset="100%" stop-color="rgb(255,255,255)" stop-opacity="1"></stop></linearGradient><linearGradient id="__lottie_element_26339" spreadMethod="pad" gradientUnits="userSpaceOnUse" x1="49" y1="-29" x2="61.70000076293945" y2="-9.345000267028809"><stop offset="0%" stop-color="rgb(60,5,0)"></stop><stop offset="38%" stop-color="rgb(110,45,0)"></stop><stop offset="100%" stop-color="rgb(160,84,0)"></stop></linearGradient><linearGradient id="__lottie_element_26340" spreadMethod="pad" gradientUnits="userSpaceOnUse" x1="-60.25" y1="-31.75" x2="-49.29999923706055" y2="-12.595000267028809"><stop offset="0%" stop-color="rgb(60,5,0)"></stop><stop offset="38%" stop-color="rgb(110,45,0)"></stop><stop offset="100%" stop-color="rgb(160,84,0)"></stop></linearGradient></defs><g clip-path="url(#__lottie_element_26301)"><g style="display: block;" transform="matrix(1,0,0,1,256,255.99998474121094)" opacity="1"><g opacity="1" transform="matrix(1,0,0,1,0,0)"><g opacity="1" transform="matrix(1,0,0,1,0,0)"><path fill="rgb(255,207,0)" fill-opacity="1" d=" M48.70899963378906,165.63499450683594 C48.99800109863281,163.26100158691406 43.31800079345703,91.53299713134766 43.31800079345703,90.61799621582031 C43.31800079345703,90.61799621582031 41.45100021362305,90.61799621582031 41.45100021362305,90.61799621582031 C41.45100021362305,90.61799621582031 -29.301000595092773,90.61799621582031 -29.301000595092773,90.61799621582031 C-29.301000595092773,90.61799621582031 -51.152000427246094,170.03500366210938 -50.819000244140625,172.6580047607422"></path><path stroke-linecap="round" stroke-linejoin="round" fill-opacity="0" stroke="rgb(206,115,0)" stroke-opacity="1" stroke-width="11" d=" M48.70899963378906,165.63499450683594 C48.99800109863281,163.26100158691406 43.31800079345703,91.53299713134766 43.31800079345703,90.61799621582031 C43.31800079345703,90.61799621582031 41.45100021362305,90.61799621582031 41.45100021362305,90.61799621582031 C41.45100021362305,90.61799621582031 -29.301000595092773,90.61799621582031 -29.301000595092773,90.61799621582031 C-29.301000595092773,90.61799621582031 -51.152000427246094,170.03500366210938 -50.819000244140625,172.6580047607422"></path></g><g opacity="1" transform="matrix(1,0,0,1,0,0)"><path fill="rgb(232,163,0)" fill-opacity="1" d=" M42.540000915527344,121.13600158691406 C10.895000457763672,143.49099731445312 -27.87299919128418,131.72500610351562 -38.02799987792969,120.20800018310547 C-40.04999923706055,117.072998046875 -26.07900047302246,93.09400177001953 -26.07900047302246,93.09400177001953 C-26.07900047302246,93.09400177001953 39.91299819946289,94.03700256347656 39.91299819946289,94.03700256347656 C39.91299819946289,94.03700256347656 44.68000030517578,117.88600158691406 42.540000915527344,121.13600158691406z"></path></g></g><g opacity="1" transform="matrix(1,0,0,1,0,0)"><g opacity="1" transform="matrix(1,0,0,1,0,0)"><path fill="rgb(51,55,213)" fill-opacity="1" d=" M168.45799255371094,168.98899841308594 C121.82099914550781,140.1269989013672 75.22200012207031,126.20600128173828 41.983001708984375,119.50199890136719 C34.33300018310547,145.33299255371094 -2.2219998836517334,149.5 -2.2219998836517334,149.5 C-13.753999710083008,149.32000732421875 -37.33300018310547,140.83299255371094 -43.37900161743164,117.40899658203125 C-102.21099853515625,129.41200256347656 -92.34200286865234,236.08399963378906 -7.479000091552734,236.10899353027344 C81.02400207519531,236.13499450683594 171.36099243164062,235.7689971923828 174.81399536132812,234.97799682617188 C187.0279998779297,232.18600463867188 190.8179931640625,228.2530059814453 190.8179931640625,228.2530059814453 C188.74899291992188,213.41400146484375 188.11500549316406,181.1540069580078 168.45799255371094,168.98899841308594z"></path></g><g opacity="1" transform="matrix(1,0,0,1,0,0)"><path fill="rgb(78,100,255)" fill-opacity="1" d=" M36.5629997253418,135.2270050048828 C38.92100143432617,136.75 105.67400360107422,148.16600036621094 155.74899291992188,182.73399353027344 C168.4720001220703,191.51699829101562 172.8070068359375,220.83399963378906 174.81399536132812,234.97799682617188 C187.0279998779297,232.18600463867188 190.8179931640625,228.2530059814453 190.8179931640625,228.2530059814453 C190.8179931640625,228.2530059814453 190.8179931640625,228.2530059814453 190.8179931640625,228.2530059814453 C188.74899291992188,213.41400146484375 183.6219940185547,186.43800354003906 168.45899963378906,168.98899841308594 C164.31300354003906,164.22300720214844 96.03700256347656,131.1909942626953 42.137001037597656,116.81300354003906 C31,154.33299255371094 11.46500015258789,154.41600036621094 36.5629997253418,135.2270050048828z"></path></g><g opacity="1" transform="matrix(1,0,0,1,0,0)"><g opacity="1" transform="matrix(1,0,0,1,0,0)"><path fill="rgb(36,37,152)" fill-opacity="1" d=" M187.55299377441406,220.11599731445312 C187.55299377441406,220.11599731445312 187.76300048828125,226.23500061035156 186.9929962158203,230.781005859375 C186.9929962158203,230.781005859375 196.4219970703125,227.2530059814453 195.58599853515625,220.86399841308594 C195.58599853515625,220.86399841308594 187.55299377441406,220.11599731445312 187.55299377441406,220.11599731445312z"></path></g></g></g><g opacity="1" transform="matrix(1,0,0,1,0,0)"><path stroke-linecap="round" stroke-linejoin="round" fill-opacity="0" stroke="rgb(36,37,152)" stroke-opacity="1" stroke-width="8" d=" M-1.6019999980926514,148.60499572753906 C17.94099998474121,148.60499572753906 39.49800109863281,134.87600708007812 42.137001037597656,116.81300354003906 C42.137001037597656,116.81300354003906 144.3419952392578,149.09100341796875 168.45700073242188,168.98899841308594 C179.42599487304688,178.0399932861328 190.81900024414062,201.83999633789062 191.625,221.2790069580078"></path></g></g><g style="display: block;" transform="matrix(1,0,0,1,256,255.99998474121094)" opacity="1"><g opacity="1" transform="matrix(1,0,0,1,0,0)"><g opacity="1" transform="matrix(1,0,0,1,0,0)"><path fill="rgb(51,55,213)" fill-opacity="1" d=" M41.983001708984375,119.50199890136719 C34.33300018310547,145.33299255371094 -2.2219998836517334,149.5 -2.2219998836517334,149.5 C-13.753999710083008,149.32000732421875 -37.33300018310547,140.83299255371094 -43.37900161743164,117.40899658203125 C-102.21099853515625,129.41200256347656 -170.31300354003906,163.80599975585938 -174.822998046875,168.98899841308594 C-189.58900451660156,185.9709930419922 -195.48399353027344,210.91000366210938 -197.71400451660156,226.1820068359375 C-197.71400451660156,226.1820068359375 -191.5590057373047,232.16299438476562 -178.7989959716797,234.97799682617188 C-175.4810028076172,235.70599365234375 -90.41799926757812,236.09300231933594 -4.551000118255615,236.11000061035156 C83.00599670410156,236.1269989013672 75.22200012207031,126.20600128173828 41.983001708984375,119.50199890136719z"></path></g><g opacity="1" transform="matrix(1,0,0,1,0,0)"><path fill="rgb(78,100,255)" fill-opacity="1" d=" M-44.65700149536133,117.23400115966797 C-95.12999725341797,130.1009979248047 -168.447998046875,164.22300720214844 -172.593994140625,168.98899841308594 C-187.7570037841797,186.43800354003906 -192.88499450683594,213.41400146484375 -194.95399475097656,228.2530059814453 C-194.95399475097656,228.2530059814453 -194.95399475097656,228.2530059814453 -194.95399475097656,228.2530059814453 C-194.95399475097656,228.2530059814453 -191.16299438476562,232.18600463867188 -178.94900512695312,234.97799682617188 C-176.94200134277344,220.83399963378906 -172.60800170898438,191.51699829101562 -159.88499450683594,182.73399353027344 C-109.80999755859375,148.16600036621094 -42.47700119018555,135.54100036621094 -40.69900131225586,135.2270050048828 C-14.321000099182129,153.4810028076172 -29,161.33299255371094 -44.65700149536133,117.23400115966797z"></path></g><g opacity="1" transform="matrix(1,0,0,1,0,0)"><g opacity="1" transform="matrix(1,0,0,1,0,0)"><path fill="rgb(36,37,152)" fill-opacity="1" d=" M-191.52699279785156,219.92799377441406 C-191.52699279785156,219.92799377441406 -191.96299743652344,225.86300659179688 -191.8780059814453,230.3179931640625 C-191.8780059814453,230.3179931640625 -200.4550018310547,227.18099975585938 -199.5919952392578,220.86399841308594 C-199.5919952392578,220.86399841308594 -191.52699279785156,219.92799377441406 -191.52699279785156,219.92799377441406z"></path></g></g></g><g opacity="1" transform="matrix(1,0,0,1,0,0)"><path stroke-linecap="round" stroke-linejoin="round" fill-opacity="0" stroke="rgb(36,37,152)" stroke-opacity="1" stroke-width="8" d=" M-195.61000061035156,221.2790069580078 C-194.8040008544922,201.83999633789062 -183.36399841308594,178.0970001220703 -172.44200134277344,168.98899841308594 C-150.42999267578125,150.6320037841797 -43.67599868774414,115.81700134277344 -43.67599868774414,115.81700134277344 C-40.999000549316406,132.2429962158203 -26.61400032043457,148.60499572753906 -1.6019999980926514,148.60499572753906"></path></g></g><g style="display: block;" transform="matrix(1,0,0,1,256,255.99998474121094)" opacity="1"><g opacity="1" transform="matrix(1,0,0,1,0,0)"><path fill="rgb(244,172,0)" fill-opacity="1" d=" M-119.1729965209961,-37.95399856567383 C-119.1729965209961,-37.95399856567383 -130.29400634765625,-45.513999938964844 -136.13999938964844,-35.38399887084961 C-141.48800659179688,-26.118000030517578 -131.26800537109375,21.783000946044922 -121.8270034790039,29.551000595092773 C-116.0199966430664,34.33000183105469 -109.73200225830078,28.434999465942383 -109.73200225830078,28.434999465942383 C-105.9020004272461,25.81399917602539 -112.11799621582031,-28.344999313354492 -119.1729965209961,-37.95399856567383z"></path><path stroke-linecap="round" stroke-linejoin="round" fill-opacity="0" stroke="rgb(206,115,0)" stroke-opacity="1" stroke-width="8" d=" M-119.1729965209961,-37.95399856567383 C-119.1729965209961,-37.95399856567383 -130.29400634765625,-45.513999938964844 -136.13999938964844,-35.38399887084961 C-141.48800659179688,-26.118000030517578 -131.26800537109375,21.783000946044922 -121.8270034790039,29.551000595092773 C-116.0199966430664,34.33000183105469 -109.73200225830078,28.434999465942383 -109.73200225830078,28.434999465942383 C-105.9020004272461,25.81399917602539 -112.11799621582031,-28.344999313354492 -119.1729965209961,-37.95399856567383z"></path></g><g opacity="1" transform="matrix(1,0,0,1,0,0)"><path fill="rgb(244,172,0)" fill-opacity="1" d=" M114.7300033569336,-37.95399856567383 C114.7300033569336,-37.95399856567383 125.85099792480469,-45.513999938964844 131.69700622558594,-35.38399887084961 C137.0449981689453,-26.118000030517578 126.82499694824219,21.783000946044922 117.38400268554688,29.551000595092773 C111.5770034790039,34.33000183105469 105.28900146484375,28.434999465942383 105.28900146484375,28.434999465942383 C101.45899963378906,25.81399917602539 107.67400360107422,-28.344999313354492 114.7300033569336,-37.95399856567383z"></path><path stroke-linecap="round" stroke-linejoin="round" fill-opacity="0" stroke="rgb(206,115,0)" stroke-opacity="1" stroke-width="8" d=" M114.7300033569336,-37.95399856567383 C114.7300033569336,-37.95399856567383 125.85099792480469,-45.513999938964844 131.69700622558594,-35.38399887084961 C137.0449981689453,-26.118000030517578 126.82499694824219,21.783000946044922 117.38400268554688,29.551000595092773 C111.5770034790039,34.33000183105469 105.28900146484375,28.434999465942383 105.28900146484375,28.434999465942383 C101.45899963378906,25.81399917602539 107.67400360107422,-28.344999313354492 114.7300033569336,-37.95399856567383z"></path></g></g><g style="display: block;" transform="matrix(1,0,0,1,256,255.99998474121094)" opacity="1"><g opacity="1" transform="matrix(1,0,0,1,0,0)"><path fill="rgb(244,172,0)" fill-opacity="1" d=" M113.35800170898438,-6.283999919891357 C113.35800170898438,67.23300170898438 61.159000396728516,129.2270050048828 -1.781000018119812,129.2270050048828 C-64.72100067138672,129.2270050048828 -116.91899871826172,67.23300170898438 -116.91899871826172,-6.283999919891357 C-128.5,-128.5 -64.01100158691406,-177.67599487304688 -1.781000018119812,-177.67599487304688 C58.81700134277344,-177.67599487304688 113.35800170898438,-158.5 113.35800170898438,-6.283999919891357z"></path><path stroke-linecap="round" stroke-linejoin="round" fill-opacity="0" stroke="rgb(206,115,0)" stroke-opacity="1" stroke-width="8" d=" M113.35800170898438,-6.283999919891357 C113.35800170898438,67.23300170898438 61.159000396728516,129.2270050048828 -1.781000018119812,129.2270050048828 C-64.72100067138672,129.2270050048828 -116.91899871826172,67.23300170898438 -116.91899871826172,-6.283999919891357 C-128.5,-128.5 -64.01100158691406,-177.67599487304688 -1.781000018119812,-177.67599487304688 C58.81700134277344,-177.67599487304688 113.35800170898438,-158.5 113.35800170898438,-6.283999919891357z"></path></g><g opacity="1" transform="matrix(1,0,0,1,0,0)"><g opacity="1" transform="matrix(1,0,0,1,0,0)"><path fill="rgb(255,207,0)" fill-opacity="1" d=" M102.49600219726562,-46.52399826049805 C82.75,-66.5790023803711 82.58000183105469,-84.98600006103516 81.6259994506836,-90.39399719238281 C81.43199920654297,-91.48999786376953 80.375,-92.21600341796875 79.28299713134766,-91.99800109863281 C-6.7729997634887695,-74.8499984741211 -64.46199798583984,-96.90799713134766 -74.80799865722656,-104.45800018310547 C-76.00800323486328,-105.33399963378906 -77.99500274658203,-104.64099884033203 -77.93900299072266,-103.15599822998047 C-77,-78.25 -104.98600006103516,-51.69200134277344 -106.27200317382812,-48.02799987792969 C-106.29100036621094,-46.57600021362305 -106.33599853515625,-18.53700065612793 -106.33599853515625,-16.767000198364258 C-106.33599853515625,49.53200149536133 -58.93600082397461,105.44000244140625 -1.781000018119812,105.44000244140625 C55.374000549316406,105.44000244140625 102.7750015258789,49.53200149536133 102.7750015258789,-16.767000198364258 C102.7750015258789,-22.604999542236328 102.52400207519531,-45.55699920654297 102.49600219726562,-46.52399826049805z"></path></g></g></g><g style="display: block;" transform="matrix(1,0,0,1,256.0010070800781,255.99998474121094)" opacity="1"><g opacity="1" transform="matrix(1,0,0,1,0,0)"><g opacity="1" transform="matrix(1,0,0,1,0,0)"><path fill="rgb(255,255,255)" fill-opacity="1" d=" M24.291000366210938,-9.093999862670898 C24.291000366210938,-9.093999862670898 22.7189998626709,-27.177000045776367 35.54600143432617,-38.928001403808594 C46.566001892089844,-49.02399826049805 67.31300354003906,-48.03300094604492 77.71099853515625,-35.097999572753906 C86.1780014038086,-24.565000534057617 84.16200256347656,-12.28499984741211 84.16200256347656,-12.28499984741211 C84.16200256347656,-12.28499984741211 75.70899963378906,-3.196000099182129 58.35900115966797,-2.2060000896453857 C36.28499984741211,-0.9459999799728394 24.291000366210938,-9.093999862670898 24.291000366210938,-9.093999862670898z"></path></g><g opacity="1" transform="matrix(1,0,0,1,0,0)"><g opacity="1" transform="matrix(1,0,0,1,0,0)"><path fill="url(#__lottie_element_26339)" fill-opacity="1" d=" M71.81500244140625,-23.909000396728516 C71.81500244140625,-13.472000122070312 63.354000091552734,-5.011000156402588 52.91600036621094,-5.011000156402588 C42.479000091552734,-5.011000156402588 34.018001556396484,-13.472000122070312 34.018001556396484,-23.909000396728516 C34.018001556396484,-34.34700012207031 42.479000091552734,-42.80799865722656 52.91600036621094,-42.80799865722656 C63.354000091552734,-42.80799865722656 71.81500244140625,-34.34700012207031 71.81500244140625,-23.909000396728516z"></path></g><g opacity="1" transform="matrix(1,0,0,1,0,0)"><path fill="rgb(23,19,10)" fill-opacity="1" d=" M64.86000061035156,-23.909000396728516 C64.86000061035156,-17.312999725341797 59.512001037597656,-11.96500015258789 52.91600036621094,-11.96500015258789 C46.31999969482422,-11.96500015258789 40.97200012207031,-17.312999725341797 40.97200012207031,-23.909000396728516 C40.97200012207031,-30.5049991607666 46.31999969482422,-35.85300064086914 52.91600036621094,-35.85300064086914 C59.512001037597656,-35.85300064086914 64.86000061035156,-30.5049991607666 64.86000061035156,-23.909000396728516z"></path></g><g opacity="1" transform="matrix(1,0,0,1,0,0)"><path fill="rgb(242,242,242)" fill-opacity="1" d=" M51.858001708984375,-34.20800018310547 C51.858001708984375,-31.702999114990234 49.82699966430664,-29.672000885009766 47.321998596191406,-29.672000885009766 C44.81700134277344,-29.672000885009766 42.7869987487793,-31.702999114990234 42.7869987487793,-34.20800018310547 C42.7869987487793,-36.7130012512207 44.81700134277344,-38.74399948120117 47.321998596191406,-38.74399948120117 C49.82699966430664,-38.74399948120117 51.858001708984375,-36.7130012512207 51.858001708984375,-34.20800018310547z"></path></g><g opacity="1" transform="matrix(1,0,0,1,0,0)"><path stroke-linecap="round" stroke-linejoin="round" fill-opacity="0" stroke="rgb(233,145,3)" stroke-opacity="1" stroke-width="3.5" d=" M66.9010009765625,-18.570999145507812 C65.49700164794922,-14.385000228881836 62.137001037597656,-11.095999717712402 57.90599822998047,-9.791000366210938"></path></g></g><g opacity="1" transform="matrix(1,0,0,1,0,0)"><g opacity="1" transform="matrix(1,0,0,1,0,0)"><path fill="rgb(255,207,0)" fill-opacity="1" d=" M84.6709976196289,-12.28499984741211 C84.6709976196289,-12.28499984741211 84.5009994506836,-46.494998931884766 53.42499923706055,-45.744998931884766 C22.349000930786133,-44.994998931884766 24.799999237060547,-9.093999862670898 24.799999237060547,-9.093999862670898 C19.224000930786133,-14.180999755859375 13.987000465393066,-55.875 53.42499923706055,-55.590999603271484 C88.95999908447266,-55.334999084472656 94.39099884033203,-29.672000885009766 84.6709976196289,-12.28499984741211z"></path></g><g opacity="1" transform="matrix(1,0,0,1,0,0)"><path fill="rgb(255,207,0)" fill-opacity="1" d=" M84.6709976196289,-12.28499984741211 C84.6709976196289,-12.28499984741211 78.03800201416016,0.9490000009536743 54.957000732421875,0.5 C27.386999130249023,-0.035999998450279236 24.016000747680664,-9.093999862670898 24.016000747680664,-9.093999862670898 C20.398000717163086,-4.623000144958496 31.389999389648438,10.5 54.957000732421875,10.5 C77.51499938964844,10.5 88.21199798583984,-3.7360000610351562 84.6709976196289,-12.28499984741211z"></path></g></g><g opacity="1" transform="matrix(1,0,0,1,0,0)"><path fill="rgb(133,63,0)" fill-opacity="1" d=" M24.291000366210938,-9.093999862670898 C21.85099983215332,-28.187999725341797 34.19300079345703,-47.75600051879883 54.749000549316406,-47.46699905395508 C73.23100280761719,-47.207000732421875 87.8280029296875,-30.825000762939453 84.16200256347656,-12.28499984741211 C84.56199645996094,-29.499000549316406 71.8479995727539,-44.17599868774414 54.20000076293945,-43.96500015258789 C35.24399948120117,-43.737998962402344 25.000999450683594,-26.406999588012695 24.291000366210938,-9.093999862670898z"></path><path stroke-linecap="round" stroke-linejoin="round" fill-opacity="0" stroke="rgb(133,63,0)" stroke-opacity="1" stroke-width="2" d=" M24.291000366210938,-9.093999862670898 C21.85099983215332,-28.187999725341797 34.19300079345703,-47.75600051879883 54.749000549316406,-47.46699905395508 C73.23100280761719,-47.207000732421875 87.8280029296875,-30.825000762939453 84.16200256347656,-12.28499984741211 C84.56199645996094,-29.499000549316406 71.8479995727539,-44.17599868774414 54.20000076293945,-43.96500015258789 C35.24399948120117,-43.737998962402344 25.000999450683594,-26.406999588012695 24.291000366210938,-9.093999862670898z"></path></g></g><g opacity="1" transform="matrix(1,0,0,1,0,0)"><g opacity="1" transform="matrix(1,0,0,1,0,0)"><path fill="rgb(255,255,255)" fill-opacity="1" d=" M-27.40999984741211,-9.093999862670898 C-27.40999984741211,-9.093999862670898 -25.83799934387207,-27.177000045776367 -38.665000915527344,-38.928001403808594 C-49.685001373291016,-49.02399826049805 -70.43199920654297,-48.03300094604492 -80.83000183105469,-35.097999572753906 C-89.2969970703125,-24.565000534057617 -87.27999877929688,-12.28499984741211 -87.27999877929688,-12.28499984741211 C-87.27999877929688,-12.28499984741211 -78.8280029296875,-3.196000099182129 -61.47800064086914,-2.2060000896453857 C-39.40399932861328,-0.9459999799728394 -27.40999984741211,-9.093999862670898 -27.40999984741211,-9.093999862670898z"></path></g><g opacity="1" transform="matrix(1,0,0,1,0,0)"><g opacity="1" transform="matrix(1,0,0,1,0,0)"><path fill="url(#__lottie_element_26340)" fill-opacity="1" d=" M-37.13600158691406,-23.909000396728516 C-37.13600158691406,-13.472000122070312 -45.597999572753906,-5.011000156402588 -56.03499984741211,-5.011000156402588 C-66.4729995727539,-5.011000156402588 -74.93299865722656,-13.472000122070312 -74.93299865722656,-23.909000396728516 C-74.93299865722656,-34.34700012207031 -66.4729995727539,-42.80799865722656 -56.03499984741211,-42.80799865722656 C-45.597999572753906,-42.80799865722656 -37.13600158691406,-34.34700012207031 -37.13600158691406,-23.909000396728516z"></path></g><g opacity="1" transform="matrix(1,0,0,1,0,0)"><path fill="rgb(23,19,10)" fill-opacity="1" d=" M-44.090999603271484,-23.909000396728516 C-44.090999603271484,-17.312999725341797 -49.43899917602539,-11.96500015258789 -56.03499984741211,-11.96500015258789 C-62.63100051879883,-11.96500015258789 -67.97899627685547,-17.312999725341797 -67.97899627685547,-23.909000396728516 C-67.97899627685547,-30.5049991607666 -62.63100051879883,-35.85300064086914 -56.03499984741211,-35.85300064086914 C-49.43899917602539,-35.85300064086914 -44.090999603271484,-30.5049991607666 -44.090999603271484,-23.909000396728516z"></path></g><g opacity="1" transform="matrix(1,0,0,1,0,0)"><path fill="rgb(242,242,242)" fill-opacity="1" d=" M-57.09299850463867,-34.20800018310547 C-57.09299850463867,-31.702999114990234 -59.124000549316406,-29.672000885009766 -61.62900161743164,-29.672000885009766 C-64.13400268554688,-29.672000885009766 -66.16400146484375,-31.702999114990234 -66.16400146484375,-34.20800018310547 C-66.16400146484375,-36.7130012512207 -64.13400268554688,-38.74399948120117 -61.62900161743164,-38.74399948120117 C-59.124000549316406,-38.74399948120117 -57.09299850463867,-36.7130012512207 -57.09299850463867,-34.20800018310547z"></path></g><g opacity="1" transform="matrix(1,0,0,1,0,0)"><path stroke-linecap="round" stroke-linejoin="round" fill-opacity="0" stroke="rgb(233,145,3)" stroke-opacity="1" stroke-width="3.5" d=" M-42.04999923706055,-18.570999145507812 C-43.45500183105469,-14.385000228881836 -46.814998626708984,-11.095999717712402 -51.04600143432617,-9.791000366210938"></path></g></g><g opacity="1" transform="matrix(1,0,0,1,0,0)"><g opacity="1" transform="matrix(1,0,0,1,0,0)"><path fill="rgb(255,207,0)" fill-opacity="1" d=" M-87.27999877929688,-12.28499984741211 C-87.27999877929688,-12.28499984741211 -87.11100006103516,-46.494998931884766 -56.03499984741211,-45.744998931884766 C-24.958999633789062,-44.994998931884766 -27.40999984741211,-9.093999862670898 -27.40999984741211,-9.093999862670898 C-21.833999633789062,-14.180999755859375 -16.597000122070312,-55.875 -56.03499984741211,-55.590999603271484 C-91.56999969482422,-55.334999084472656 -97,-29.672000885009766 -87.27999877929688,-12.28499984741211z"></path></g><g opacity="1" transform="matrix(1,0,0,1,0,0)"><path fill="rgb(255,207,0)" fill-opacity="1" d=" M-87.27999877929688,-12.28499984741211 C-87.27999877929688,-12.28499984741211 -80.64800262451172,0.9490000009536743 -57.56700134277344,0.5 C-29.996999740600586,-0.035999998450279236 -26.625,-9.093999862670898 -26.625,-9.093999862670898 C-23.006999969482422,-4.623000144958496 -34,10.5 -57.56700134277344,10.5 C-80.125,10.5 -90.82099914550781,-3.7360000610351562 -87.27999877929688,-12.28499984741211z"></path></g></g><g opacity="1" transform="matrix(1,0,0,1,0,0)"><path fill="rgb(133,63,0)" fill-opacity="1" d=" M-27.40999984741211,-9.093999862670898 C-24.969999313354492,-28.187999725341797 -37.3120002746582,-47.75600051879883 -57.86800003051758,-47.46699905395508 C-76.35099792480469,-47.207000732421875 -90.94599914550781,-30.825000762939453 -87.27999877929688,-12.28499984741211 C-87.68000030517578,-29.499000549316406 -74.96700286865234,-44.17599868774414 -57.319000244140625,-43.96500015258789 C-38.362998962402344,-43.737998962402344 -28.1200008392334,-26.406999588012695 -27.40999984741211,-9.093999862670898z"></path><path stroke-linecap="round" stroke-linejoin="round" fill-opacity="0" stroke="rgb(133,63,0)" stroke-opacity="1" stroke-width="2" d=" M-27.40999984741211,-9.093999862670898 C-24.969999313354492,-28.187999725341797 -37.3120002746582,-47.75600051879883 -57.86800003051758,-47.46699905395508 C-76.35099792480469,-47.207000732421875 -90.94599914550781,-30.825000762939453 -87.27999877929688,-12.28499984741211 C-87.68000030517578,-29.499000549316406 -74.96700286865234,-44.17599868774414 -57.319000244140625,-43.96500015258789 C-38.362998962402344,-43.737998962402344 -28.1200008392334,-26.406999588012695 -27.40999984741211,-9.093999862670898z"></path></g></g></g><g style="display: block;" transform="matrix(1,0,0,1,256.0010070800781,255.99998474121094)" opacity="1"><g opacity="1" transform="matrix(1,0,0,1,0,0)"><path stroke-linecap="round" stroke-linejoin="round" fill-opacity="0" stroke="rgb(133,63,0)" stroke-opacity="1" stroke-width="12" d=" M38.099998474121094,-65.50399780273438 C38.099998474121094,-65.50399780273438 55.78900146484375,-69.58599853515625 71.81500244140625,-61.84199905395508"></path></g><g opacity="1" transform="matrix(1,0,0,1,0,0)"><path stroke-linecap="round" stroke-linejoin="round" fill-opacity="0" stroke="rgb(133,63,0)" stroke-opacity="1" stroke-width="12" d=" M-41.21799850463867,-65.50399780273438 C-41.21799850463867,-65.50399780273438 -58.90700149536133,-69.58599853515625 -74.93299865722656,-61.84199905395508"></path></g></g><g style="display: block;" transform="matrix(1,0,0,1,256,255.99998474121094)" opacity="1"><g opacity="1" transform="matrix(1,0,0,1,0,0)"><path fill="rgb(255,207,0)" fill-opacity="1" d=" M0.2879999876022339,-204.04400634765625 C62.40299987792969,-202.66700744628906 109,-185 125.48899841308594,-123.95899963378906 C132.74600219726562,-90.09300231933594 128.41700744628906,-21.75 108.10600280761719,-9.5649995803833 C108.12899780273438,-9.689000129699707 108.42500305175781,-59.83700180053711 105.33300018310547,-64.21099853515625 C92.59100341796875,-81.83699798583984 90.4540023803711,-92.83300018310547 89.99600219726562,-109.01599884033203 C26.85300064086914,-93.47699737548828 -61.62900161743164,-106.0790023803711 -85.8219985961914,-127.77999877929688 C-85.19999694824219,-100.5 -100.58999633789062,-73.57599639892578 -108.56300354003906,-64.21099853515625 C-112.88099670410156,-58.409000396728516 -112.90799713134766,-8.116000175476074 -113.18099975585938,-8.116000175476074 C-134.5,-33.25 -136.302001953125,-93.32099914550781 -130.6580047607422,-120.33300018310547 C-125.28199768066406,-146.05799865722656 -113.58399963378906,-155.5 -103.75700378417969,-161.00799560546875 C-83.62000274658203,-189.8560028076172 -44.499000549316406,-204.04600524902344 0.2879999876022339,-204.04400634765625"></path></g><g opacity="1" transform="matrix(1,0,0,1,0,0)"><path fill="rgb(234,157,1)" fill-opacity="1" d=" M120.00900268554688,-22.982999801635742 C117.58699798583984,-12.704999923706055 107.47899627685547,-8.168000221252441 107.47899627685547,-9.791000366210938 C107.47899627685547,-9.791000366210938 108.15599822998047,-58.2130012512207 108.15599822998047,-58.2130012512207 C108.15599822998047,-60.25899887084961 88,-82.66699981689453 90,-109.01300048828125 C5.673999786376953,-85.83599853515625 -78.2969970703125,-122.62999725341797 -85.822998046875,-127.77999877929688 C-86,-93.47699737548828 -113.18699645996094,-60.305999755859375 -113.18699645996094,-57.76599884033203 C-113.18699645996094,-57.76599884033203 -113.18699645996094,-15.25 -113.18699645996094,-15.25 C-125.08000183105469,-22.5 -120.572998046875,-59.2140007019043 -120.572998046875,-59.2140007019043 C-121.43199920654297,-58.89500045776367 -123.37000274658203,-59.055999755859375 -123.37000274658203,-59.055999755859375 C-101.875,-85.93900299072266 -98.43199920654297,-115.85099792480469 -96.6240005493164,-129.6739959716797 C-94.75,-144 -104.97599792480469,-160.3070068359375 -120.25,-137.375 C-117.75,-147 -104.1510009765625,-170.44500732421875 -89.875,-172.375 C-96,-164.125 -96.55400085449219,-157.38400268554688 -93.13600158691406,-152.052001953125 C-78.35299682617188,-128.99200439453125 -46.573001861572266,-116.26799774169922 10.57800006866455,-112.94000244140625 C71.81500244140625,-109.3740005493164 113.95899963378906,-119.9260025024414 114.91100311279297,-120.22000122070312 C108.25499725341797,-114.1760025024414 99.27799987792969,-108.8479995727539 99.27799987792969,-108.8479995727539 C101.2509994506836,-80.03399658203125 118.64600372314453,-58.290000915527344 118.64600372314453,-58.290000915527344 C116.4749984741211,-57.75199890136719 114.66100311279297,-58.21500015258789 114.66100311279297,-58.21500015258789 C113.76899719238281,-13.645999908447266 120.00900268554688,-22.982999801635742 120.00900268554688,-22.982999801635742z"></path></g><g opacity="1" transform="matrix(1,0,0,1,0,0)"><path fill="rgb(255,225,129)" fill-opacity="1" d=" M1.024999976158142,-132.593994140625 C-46.016998291015625,-132.7480010986328 -72.00499725341797,-140.63400268554688 -80.46600341796875,-147.80099487304688 C-87.28900146484375,-153.58099365234375 -86.31700134277344,-161.86500549316406 -80.22599792480469,-168.38900756835938 C-75.40699768066406,-173.55099487304688 -54.4119987487793,-192.468994140625 3.2230000495910645,-193.13800048828125 C36.04399871826172,-193.52099609375 61.939998626708984,-185.33099365234375 80.78600311279297,-171.31700134277344 C80.7959976196289,-171.30599975585938 80.7959976196289,-171.30599975585938 80.80699920654297,-171.2949981689453 C107.01300048828125,-149.6929931640625 79.62799835205078,-132.33599853515625 1.024999976158142,-132.593994140625z"></path></g><g opacity="1" transform="matrix(1,0,0,1,0,0)"><path fill="rgb(255,225,129)" fill-opacity="1" d=" M-102.51499938964844,-121.802001953125 C-100.65699768066406,-134.79800415039062 -105.08799743652344,-148.65199279785156 -111.76699829101562,-139.77000427246094 C-119.85399627685547,-129.01499938964844 -125.39399719238281,-110.98999786376953 -125.06500244140625,-95.06900024414062 C-124.93699645996094,-88.8759994506836 -123.37999725341797,-101.81400299072266 -115.66300201416016,-115.61599731445312 C-108.08599853515625,-129.16799926757812 -103.27200317382812,-116.50599670410156 -102.51499938964844,-121.802001953125z"></path></g><g opacity="1" transform="matrix(1,0,0,1,0,0)"><path stroke-linecap="round" stroke-linejoin="round" fill-opacity="0" stroke="rgb(185,97,0)" stroke-opacity="1" stroke-width="8" d=" M0.2879999876022339,-204.04400634765625 C62.40299987792969,-202.66700744628906 109,-185 125.48899841308594,-123.95899963378906 C132.74600219726562,-90.09300231933594 128.41700744628906,-21.75 108.10600280761719,-9.5649995803833 C108.12899780273438,-9.689000129699707 108.42500305175781,-59.83700180053711 105.33300018310547,-64.21099853515625 C92.59100341796875,-81.83699798583984 90.4540023803711,-92.83300018310547 89.99600219726562,-109.01599884033203 C26.85300064086914,-93.47699737548828 -61.62900161743164,-106.0790023803711 -85.8219985961914,-127.77999877929688 C-85.19999694824219,-100.5 -100.58999633789062,-73.57599639892578 -108.56300354003906,-64.21099853515625 C-112.88099670410156,-58.409000396728516 -112.90799713134766,-8.116000175476074 -113.18099975585938,-8.116000175476074 C-134.5,-33.25 -136.302001953125,-93.32099914550781 -130.6580047607422,-120.33300018310547 C-125.28199768066406,-146.05799865722656 -113.58399963378906,-155.5 -103.75700378417969,-161.00799560546875 C-83.62000274658203,-189.8560028076172 -44.499000549316406,-204.04600524902344 0.2879999876022339,-204.04400634765625"></path></g></g><g style="display: block;" transform="matrix(1,0,0,1,256,255.99998474121094)" opacity="1"><g opacity="1" transform="matrix(1,0,0,1,0,0)"><path fill="rgb(244,172,0)" fill-opacity="1" d=" M24.229999542236328,80.49500274658203 C24.229999542236328,85.08100128173828 12.565999984741211,92.7969970703125 -1.8220000267028809,92.7969970703125 C-16.209999084472656,92.7969970703125 -27.874000549316406,85.08100128173828 -27.874000549316406,80.49500274658203 C-27.874000549316406,75.90899658203125 -16.209999084472656,81.57099914550781 -1.8220000267028809,81.57099914550781 C12.565999984741211,81.57099914550781 24.229999542236328,75.90899658203125 24.229999542236328,80.49500274658203z"></path></g><g opacity="1" transform="matrix(1,0,0,1,0,0)"><path fill="rgb(255,225,129)" fill-opacity="1" d=" M32.141998291015625,63.56800079345703 C32.141998291015625,72.1780014038086 16.757999420166016,81.49099731445312 -2.2209999561309814,81.49099731445312 C-21.200000762939453,81.49099731445312 -36.584999084472656,72.1780014038086 -36.584999084472656,63.56800079345703 C-36.584999084472656,54.95800018310547 32.141998291015625,54.95800018310547 32.141998291015625,63.56800079345703z"></path></g><g opacity="1" transform="matrix(1,0,0,1,0,0)"><path fill="rgb(126,35,18)" fill-opacity="1" d=" M27.722999572753906,62.875 C27.722999572753906,64.45099639892578 27.07699966430664,65.95600128173828 25.864999771118164,67.34300231933594 C21.655000686645508,72.2699966430664 10.67199993133545,75.7750015258789 -2.2279999256134033,75.7750015258789 C-15.116000175476074,75.7750015258789 -26.097999572753906,72.2699966430664 -30.308000564575195,67.34300231933594 C-31.518999099731445,65.95600128173828 -32.16600036621094,64.45099639892578 -32.16600036621094,62.875 C-32.16600036621094,55.749000549316406 27.722999572753906,55.749000549316406 27.722999572753906,62.875z"></path></g><g opacity="1" transform="matrix(1,0,0,0.9900000095367432,0,0.4025001525878906)"><path fill="rgb(244,172,0)" fill-opacity="1" d=" M32.13399887084961,40.332000732421875 C32.13399887084961,40.332000732421875 -36.57699966430664,40.332000732421875 -36.57699966430664,40.332000732421875 C-50.04199981689453,40.332000732421875 -66.00599670410156,49.974998474121094 -66.00599670410156,64.71700286865234 C-66.00599670410156,66.13500213623047 -64.9520034790039,67.34500122070312 -63.452999114990234,67.34500122070312 C-63.452999114990234,67.34500122070312 59.0099983215332,67.34500122070312 59.0099983215332,67.34500122070312 C60.50899887084961,67.34500122070312 61.5629997253418,66.13500213623047 61.5629997253418,64.71700286865234 C61.5629997253418,51.604000091552734 45.5989990234375,40.332000732421875 32.13399887084961,40.332000732421875z"></path></g><g opacity="1" transform="matrix(1,0,0,1,0,0)"><path fill="rgb(81,19,18)" fill-opacity="1" d=" M27.722999572753906,62.875 C27.722999572753906,64.45099639892578 27.07699966430664,65.95600128173828 25.864999771118164,67.34300231933594 C25.864999771118164,67.34300231933594 -30.308000564575195,67.34300231933594 -30.308000564575195,67.34300231933594 C-31.518999099731445,65.95600128173828 -32.16600036621094,64.45099639892578 -32.16600036621094,62.875 C-32.16600036621094,55.749000549316406 27.722999572753906,55.749000549316406 27.722999572753906,62.875z"></path></g><g opacity="1" transform="matrix(1,0,0,1,0,0)"><path fill="rgb(255,207,0)" fill-opacity="1" d=" M30.174999237060547,40.332000732421875 C30.174999237060547,40.332000732421875 -34.61800003051758,40.332000732421875 -34.61800003051758,40.332000732421875 C-47.314998626708984,40.332000732421875 -60.117000579833984,49.15299987792969 -61.42499923706055,60.4739990234375 C-61.57400131225586,61.762001037597656 -60.430999755859375,62.875999450683594 -59.018001556396484,62.875999450683594 C-59.018001556396484,62.875999450683594 54.57500076293945,62.875999450683594 54.57500076293945,62.875999450683594 C55.987998962402344,62.875999450683594 57.13100051879883,61.762001037597656 56.981998443603516,60.4739990234375 C55.67399978637695,49.15299987792969 42.87200164794922,40.332000732421875 30.174999237060547,40.332000732421875z"></path></g><g opacity="1" transform="matrix(1,0,0,1,0,0)"><path fill="rgb(206,115,0)" fill-opacity="1" d=" M56.97999954223633,60.47600173950195 C57.132999420166016,61.757999420166016 55.992000579833984,62.875 54.58100128173828,62.875 C54.58100128173828,62.875 -59.02399826049805,62.875 -59.02399826049805,62.875 C-60.435001373291016,62.875 -61.57500076293945,61.757999420166016 -61.42300033569336,60.47600173950195 C-60.97600173950195,56.58399963378906 -59.165000915527344,52.986000061035156 -56.47200012207031,49.939998626708984 C-57.28300094604492,51.62200164794922 -58.979000091552734,57.5 -55.77799987792969,57.52399826049805 C-55.77799987792969,57.52399826049805 51.33599853515625,57.52399826049805 51.33599853515625,57.52399826049805 C55.125,57.5620002746582 52.85300064086914,51.62200164794922 52.02899932861328,49.939998626708984 C54.733001708984375,52.986000061035156 56.53300094604492,56.58399963378906 56.97999954223633,60.47600173950195z"></path></g></g><g style="display: block;" transform="matrix(1,0,0,1,0,-0.0000152587890625)" opacity="1"><g opacity="1" transform="matrix(1,0,0,1,256,256)"><g opacity="1" transform="matrix(1,0,0,1,0,0)"><path fill="rgb(244,172,0)" fill-opacity="1" d=" M21.634000778198242,29.19499969482422 C21.634000778198242,39.564998626708984 12.449999809265137,47.97200012207031 -1.7799999713897705,47.97200012207031 C-16.010000228881836,47.97200012207031 -25.19499969482422,39.564998626708984 -25.19499969482422,29.19499969482422 C-25.19499969482422,18.825000762939453 21.634000778198242,18.825000762939453 21.634000778198242,29.19499969482422z"></path></g></g><g opacity="1" transform="matrix(1,0,0,1,256,256)"><g opacity="1" transform="matrix(1,0,0,1,0,0)"><path fill="rgb(208,123,0)" fill-opacity="1" d=" M22.124000549316406,25.66699981689453 C22.124000549316406,35.28799819946289 11.42199993133545,43.08700180053711 -1.7799999713897705,43.08700180053711 C-14.982000350952148,43.08700180053711 -25.684999465942383,35.28799819946289 -25.684999465942383,25.66699981689453 C-25.684999465942383,16.04599952697754 -14.982000350952148,8.656999588012695 -1.7799999713897705,8.656999588012695 C11.42199993133545,8.656999588012695 22.124000549316406,16.04599952697754 22.124000549316406,25.66699981689453z"></path></g><g opacity="1" transform="matrix(1,0,0,1,0,0)"><path fill="rgb(255,207,0)" fill-opacity="1" d=" M19.975000381469727,21.062999725341797 C19.975000381469727,28.225000381469727 9.640999794006348,35.108001708984375 -1.7799999713897705,35.108001708984375 C-13.201000213623047,35.108001708984375 -23.535999298095703,28.225000381469727 -23.535999298095703,21.062999725341797 C-23.535999298095703,13.901000022888184 -13.138999938964844,7.96999979019165 -1.718000054359436,7.96999979019165 C9.70300006866455,7.96999979019165 19.975000381469727,13.901000022888184 19.975000381469727,21.062999725341797z"></path></g><g opacity="1" transform="matrix(1,0,0,1,0,0)"><path fill="rgb(255,225,129)" fill-opacity="1" d=" M10.708000183105469,14.857999801635742 C10.708000183105469,18.663999557495117 5.117000102996826,22.243999481201172 -1.7799999713897705,22.243999481201172 C-8.677000045776367,22.243999481201172 -14.267999649047852,18.663999557495117 -14.267999649047852,14.857999801635742 C-14.267999649047852,11.052000045776367 -8.677000045776367,9.140999794006348 -1.7799999713897705,9.140999794006348 C5.117000102996826,9.140999794006348 10.708000183105469,11.052000045776367 10.708000183105469,14.857999801635742z"></path></g></g></g><g style="display: block;" transform="matrix(0.7547096014022827,0.6560590267181396,-0.6560590267181396,0.7547096014022827,301.03173828125,414.0294189453125)" opacity="1"><g opacity="1" transform="matrix(1,0,0,1,0,0)"><path fill="rgb(244,172,0)" fill-opacity="1" d=" M-88.54000091552734,25.33799934387207 C-88.54000091552734,25.33799934387207 -56.845001220703125,20.490999221801758 -51.720001220703125,22.76099967956543 C-43.237998962402344,26.517000198364258 -39.80699920654297,47.6619987487793 -51.48400115966797,50.77299880981445 C-60.22800064086914,53.10300064086914 -82.7030029296875,57.566001892089844 -82.7030029296875,57.566001892089844"></path><path stroke-linecap="round" stroke-linejoin="round" fill-opacity="0" stroke="rgb(206,115,0)" stroke-opacity="1" stroke-width="8" d=" M-88.54000091552734,25.33799934387207 C-88.54000091552734,25.33799934387207 -56.845001220703125,20.490999221801758 -51.720001220703125,22.76099967956543 C-43.237998962402344,26.517000198364258 -39.80699920654297,47.6619987487793 -51.48400115966797,50.77299880981445 C-60.22800064086914,53.10300064086914 -82.7030029296875,57.566001892089844 -82.7030029296875,57.566001892089844"></path></g><g opacity="1" transform="matrix(1,0,0,1,0,0)"><path fill="rgb(255,207,0)" fill-opacity="1" d=" M-79.47200012207031,29.892000198364258 C-74.90599822998047,4.310999870300293 -94.552001953125,9.61400032043457 -99.67900085449219,9.012999534606934 C-104.80599975585938,8.411999702453613 -107.02200317382812,7.185999870300293 -111.36199951171875,7.185999870300293 C-117.99800109863281,7.185999870300293 -120.59100341796875,7.690000057220459 -126.50700378417969,6.089000225067139 C-132.42300415039062,4.48799991607666 -135.65499877929688,4.310999870300293 -140.72900390625,3.493000030517578 C-143.62600708007812,3.0260000228881836 -148.16600036621094,2.2019999027252197 -153.49000549316406,5.40500020980835 C-158.81399536132812,8.607999801635742 -168.3470001220703,32.665000915527344 -167.7550048828125,33.26599884033203 C-167.7550048828125,33.26599884033203 -172.68099975585938,67.96399688720703 -158.2969970703125,83.5270004272461 C-143.70399475097656,99.31600189208984 -92.08599853515625,109.12799835205078 -82.48500061035156,56.827999114990234"></path><path stroke-linecap="round" stroke-linejoin="round" fill-opacity="0" stroke="rgb(206,115,0)" stroke-opacity="1" stroke-width="8" d=" M-79.47200012207031,29.892000198364258 C-74.90599822998047,4.310999870300293 -94.552001953125,9.61400032043457 -99.67900085449219,9.012999534606934 C-104.80599975585938,8.411999702453613 -107.02200317382812,7.185999870300293 -111.36199951171875,7.185999870300293 C-117.99800109863281,7.185999870300293 -120.59100341796875,7.690000057220459 -126.50700378417969,6.089000225067139 C-132.42300415039062,4.48799991607666 -135.65499877929688,4.310999870300293 -140.72900390625,3.493000030517578 C-143.62600708007812,3.0260000228881836 -148.16600036621094,2.2019999027252197 -153.49000549316406,5.40500020980835 C-158.81399536132812,8.607999801635742 -168.3470001220703,32.665000915527344 -167.7550048828125,33.26599884033203 C-167.7550048828125,33.26599884033203 -172.68099975585938,67.96399688720703 -158.2969970703125,83.5270004272461 C-143.70399475097656,99.31600189208984 -92.08599853515625,109.12799835205078 -82.48500061035156,56.827999114990234"></path></g><g opacity="1" transform="matrix(0.8731300234794617,0,0,0.8731300234794617,-16.0399169921875,6.403255462646484)"><path fill="rgb(244,172,0)" fill-opacity="1" d=" M-79.47200012207031,29.892000198364258 C-74.90599822998047,4.310999870300293 -139.59300231933594,9.376999855041504 -148.74600219726562,14.246000289916992 C-157.8990020751953,19.114999771118164 -175.09500122070312,41.75699996948242 -153.0469970703125,77.54900360107422 C-141.77099609375,95.8550033569336 -92.08599853515625,109.12799835205078 -82.48500061035156,56.827999114990234"></path></g></g><g style="display: none;"><g><path></path><path stroke-linecap="round" stroke-linejoin="round" fill-opacity="0"></path></g><g><path></path><path stroke-linecap="round" stroke-linejoin="round" fill-opacity="0"></path></g><g><path></path><path stroke-linecap="round" stroke-linejoin="round" fill-opacity="0"></path></g><g><path></path><path stroke-linecap="round" stroke-linejoin="round" fill-opacity="0"></path></g><g><path stroke-linecap="round" stroke-linejoin="round" fill-opacity="0"></path></g><g><path stroke-linecap="round" stroke-linejoin="round" fill-opacity="0"></path></g><g><path stroke-linecap="round" stroke-linejoin="round" fill-opacity="0"></path></g></g><g style="display: block;" transform="matrix(1,0,0,1,256,256)" opacity="1"><g opacity="1" transform="matrix(1,0,0,1,0,0)"><path fill="rgb(146,144,147)" fill-opacity="1" d=" M156.27999877929688,34.108001708984375 C156.27999877929688,34.108001708984375 -156.50999450683594,34.108001708984375 -156.50999450683594,34.108001708984375 C-162.6529998779297,34.108001708984375 -167.5189971923828,39.301998138427734 -167.11700439453125,45.43199920654297 C-167.11700439453125,45.43199920654297 -155.21400451660156,227.1219940185547 -155.21400451660156,227.1219940185547 C-154.96099853515625,230.97900390625 -151.75999450683594,233.97799682617188 -147.89500427246094,233.97799682617188 C-147.89500427246094,233.97799682617188 147.66400146484375,233.97799682617188 147.66400146484375,233.97799682617188 C151.5290069580078,233.97799682617188 154.72999572753906,230.97900390625 154.98300170898438,227.1219940185547 C154.98300170898438,227.1219940185547 166.88600158691406,45.43199920654297 166.88600158691406,45.43199920654297 C167.28799438476562,39.301998138427734 162.42300415039062,34.108001708984375 156.27999877929688,34.108001708984375z"></path><path stroke-linecap="round" stroke-linejoin="round" fill-opacity="0" stroke="rgb(68,65,71)" stroke-opacity="1" stroke-width="8" d=" M156.27999877929688,34.108001708984375 C156.27999877929688,34.108001708984375 -156.50999450683594,34.108001708984375 -156.50999450683594,34.108001708984375 C-162.6529998779297,34.108001708984375 -167.5189971923828,39.301998138427734 -167.11700439453125,45.43199920654297 C-167.11700439453125,45.43199920654297 -155.21400451660156,227.1219940185547 -155.21400451660156,227.1219940185547 C-154.96099853515625,230.97900390625 -151.75999450683594,233.97799682617188 -147.89500427246094,233.97799682617188 C-147.89500427246094,233.97799682617188 147.66400146484375,233.97799682617188 147.66400146484375,233.97799682617188 C151.5290069580078,233.97799682617188 154.72999572753906,230.97900390625 154.98300170898438,227.1219940185547 C154.98300170898438,227.1219940185547 166.88600158691406,45.43199920654297 166.88600158691406,45.43199920654297 C167.28799438476562,39.301998138427734 162.42300415039062,34.108001708984375 156.27999877929688,34.108001708984375z"></path></g><g opacity="1" transform="matrix(1,0,0,1,0,0)"><path fill="url(#__lottie_element_26314)" fill-opacity="1" d=" M-0.6110000014305115,116 C-20.82699966430664,116 -37.22100067138672,128.83099365234375 -37.22100067138672,144.65499877929688 C-37.22100067138672,160.47900390625 -20.82699966430664,173.3000030517578 -0.6110000014305115,173.3000030517578 C19.604999542236328,173.3000030517578 36,160.47900390625 36,144.65499877929688 C36,128.83099365234375 19.604999542236328,116 -0.6110000014305115,116z M15.156000137329102,158.0749969482422 C14.696999549865723,159.58599853515625 14.934000015258789,161.3939971923828 13.512999534606934,162.60899353027344 C11.173999786376953,164.19400024414062 7.931000232696533,162.3769989013672 5.791999816894531,161.33900451660156 C1.4919999837875366,159.05799865722656 -2.99399995803833,156.94400024414062 -7.034999847412109,154.36599731445312 C-9.937000274658203,152.3260040283203 -5.510000228881836,150.4810028076172 -3.8369998931884766,149.07200622558594 C-1.5049999952316284,147.3470001220703 7.0279998779296875,141.4320068359375 7.835000038146973,139.62399291992188 C8.109000205993652,137.38999938964844 -6.991000175476074,146.0590057373047 -9.722000122070312,147.5050048828125 C-13.378999710083008,149.32200622558594 -15.694999694824219,151.53799438476562 -20.417999267578125,150.26800537109375 C-22.660999298095703,149.72999572753906 -30.180999755859375,147.9040069580078 -29.618000030517578,146.67999267578125 C-29,144 3.0980000495910645,135.46099853515625 10.758999824523926,132.92100524902344 C13.394000053405762,132.3179931640625 19.634000778198242,128.99000549316406 20.070999145507812,132.92100524902344 C18.708999633789062,141.3489990234375 16.80699920654297,149.6840057373047 15.156000137329102,158.0749969482422z"></path></g><g opacity="0.2" transform="matrix(1,0,0,1,0,0)"><path fill="url(#__lottie_element_26315)" fill-opacity="1" d=" M166.88999938964844,45.43000030517578 C166.88999938964844,45.43000030517578 154,233 154,233 C151,238 -60.529998779296875,233.97999572753906 -60.529998779296875,233.97999572753906 C-60.529998779296875,233.97999572753906 106.66999816894531,34.11000061035156 106.66999816894531,34.11000061035156 C106.66999816894531,34.11000061035156 169,26 166.88999938964844,45.43000030517578z"></path></g><g opacity="1" transform="matrix(1,0,0,1,0,0)"><path stroke-linecap="round" stroke-linejoin="round" fill-opacity="0" stroke="rgb(116,113,119)" stroke-opacity="1" stroke-width="8" d=" M154.98300170898438,227.1219940185547 C154.98300170898438,227.1219940185547 166.88600158691406,45.43199920654297 166.88600158691406,45.43199920654297 C167.28799438476562,39.301998138427734 162.42300415039062,34.108001708984375 156.27999877929688,34.108001708984375 C156.27999877929688,34.108001708984375 -0.14000000059604645,34.108001708984375 -0.14000000059604645,34.108001708984375 C-0.14000000059604645,34.108001708984375 -156.50999450683594,34.108001708984375 -156.50999450683594,34.108001708984375 C-162.6529998779297,34.108001708984375 -167.5189971923828,39.301998138427734 -167.11700439453125,45.43199920654297 C-167.11700439453125,45.43199920654297 -155.21400451660156,227.1219940185547 -155.21400451660156,227.1219940185547"></path></g><g opacity="1" transform="matrix(1,0,0,1,0,0)"><path stroke-linecap="round" stroke-linejoin="round" fill-opacity="0" stroke="rgb(200,199,201)" stroke-opacity="1" stroke-width="8" d=" M166.88600158691406,45.43199920654297 C167.28799438476562,39.301998138427734 162.42300415039062,34.108001708984375 156.27999877929688,34.108001708984375 C156.27999877929688,34.108001708984375 -0.14000000059604645,34.108001708984375 -0.14000000059604645,34.108001708984375 C-0.14000000059604645,34.108001708984375 -156.50999450683594,34.108001708984375 -156.50999450683594,34.108001708984375 C-162.6529998779297,34.108001708984375 -167.5189971923828,39.301998138427734 -167.11700439453125,45.43199920654297"></path></g></g><g style="display: block;" transform="matrix(1,0,0,1,256,255.99998474121094)" opacity="1"><g opacity="1" transform="matrix(1,0,0,1,0,0)"><path stroke-linecap="round" stroke-linejoin="round" fill-opacity="0" stroke="rgb(255,255,255)" stroke-opacity="1" stroke-width="6" d=" M35.85200119018555,-189.6510009765625 C37.430999755859375,-189.3000030517578 39.069000244140625,-188.91400146484375 40.75699996948242,-188.49000549316406"></path></g><g opacity="1" transform="matrix(1,0,0,1,0,0)"><path stroke-linecap="round" stroke-linejoin="round" fill-opacity="0" stroke="rgb(255,255,255)" stroke-opacity="1" stroke-width="6" d=" M13.920999526977539,-193.04400634765625 C13.920999526977539,-193.04400634765625 18.92099952697754,-192.7570037841797 26.851999282836914,-191.41299438476562"></path></g></g><g style="display: none;"><g><path></path><path stroke-linecap="round" stroke-linejoin="round" fill-opacity="0"></path></g><g><path></path><path stroke-linecap="round" stroke-linejoin="round" fill-opacity="0"></path></g><g><path></path><path stroke-linecap="round" stroke-linejoin="round" fill-opacity="0"></path></g><g><path></path><path stroke-linecap="round" stroke-linejoin="round" fill-opacity="0"></path></g><g><path stroke-linecap="round" stroke-linejoin="round" fill-opacity="0"></path></g><g><path stroke-linecap="round" stroke-linejoin="round" fill-opacity="0"></path></g><g><path stroke-linecap="round" stroke-linejoin="round" fill-opacity="0"></path></g></g></g></svg>