<svg xmlns="http://www.w3.org/2000/svg" viewBox="0 0 432 448" width="432" height="448" style="width: 100%; height: 100%; transform: translate3d(0,0,0);" preserveAspectRatio="xMidYMid meet"><defs><clipPath id="__lottie_element_26958"><rect width="432" height="448" x="0" y="0"></rect></clipPath></defs><g clip-path="url(#__lottie_element_26958)"><g style="display: block;" transform="matrix(1,0,0,1,216,233)" opacity="1"><g opacity="0.1" transform="matrix(1,0,0,1,0,0)"><path fill="rgb(0,0,0)" fill-opacity="1" d=" M195.92300415039062,7.98199987411499 C195.92300415039062,116.24299621582031 108.16000366210938,204.00599670410156 -0.10100000351667404,204.00599670410156 C-108.36199951171875,204.00599670410156 -196.12600708007812,116.24299621582031 -196.12600708007812,7.98199987411499 C-196.12600708007812,-100.27899932861328 -108.36199951171875,-188.04299926757812 -0.10100000351667404,-188.04299926757812 C108.16000366210938,-188.04299926757812 195.92300415039062,-100.27899932861328 195.92300415039062,7.98199987411499z"></path></g><g opacity="1" transform="matrix(1,0,0,1,0,0)"><path fill="rgb(255,177,57)" fill-opacity="1" d=" M188.7740020751953,-7.01800012588501 C188.7740020751953,97.29499816894531 104.21199798583984,181.85699462890625 -0.10100000351667404,181.85699462890625 C-104.41400146484375,181.85699462890625 -188.9770050048828,97.29499816894531 -188.9770050048828,-7.01800012588501 C-188.9770050048828,-111.33100128173828 -104.41400146484375,-195.8939971923828 -0.10100000351667404,-195.8939971923828 C104.21199798583984,-195.8939971923828 188.7740020751953,-111.33100128173828 188.7740020751953,-7.01800012588501z"></path><path stroke-linecap="butt" stroke-linejoin="miter" fill-opacity="0" stroke-miterlimit="10" stroke="rgb(247,126,65)" stroke-opacity="1" stroke-width="8" d=" M188.7740020751953,-7.01800012588501 C188.7740020751953,97.29499816894531 104.21199798583984,181.85699462890625 -0.10100000351667404,181.85699462890625 C-104.41400146484375,181.85699462890625 -188.9770050048828,97.29499816894531 -188.9770050048828,-7.01800012588501 C-188.9770050048828,-111.33100128173828 -104.41400146484375,-195.8939971923828 -0.10100000351667404,-195.8939971923828 C104.21199798583984,-195.8939971923828 188.7740020751953,-111.33100128173828 188.7740020751953,-7.01800012588501z"></path></g><g opacity="1" transform="matrix(1,0,0,1,0,0)"><path fill="rgb(255,209,64)" fill-opacity="1" d=" M168.30599975585938,-6.306000232696533 C166.8489990234375,88.7229995727539 90.29499816894531,164.60299682617188 -2.683000087738037,163.17799377441406 C-95.66100311279297,161.7530059814453 -169.85400390625,83.56300354003906 -168.39700317382812,-11.465999603271484 C-166.94000244140625,-106.49500274658203 -90.38700103759766,-182.375 2.5910000801086426,-180.9499969482422 C95.56900024414062,-179.52499389648438 169.76300048828125,-101.33499908447266 168.30599975585938,-6.306000232696533z"></path></g><g opacity="0.9" transform="matrix(1,0,0,1,0,0)"><path fill="rgb(255,223,121)" fill-opacity="1" d=" M149.16600036621094,-49.446998596191406 C149.16600036621094,23.195999145507812 82.33699798583984,-34.268001556396484 -0.10100000351667404,-34.268001556396484 C-82.53900146484375,-34.268001556396484 -149.36900329589844,23.195999145507812 -149.36900329589844,-49.446998596191406 C-149.36900329589844,-122.08999633789062 -82.53900146484375,-180.97900390625 -0.10100000351667404,-180.97900390625 C82.33699798583984,-180.97900390625 149.16600036621094,-122.08999633789062 149.16600036621094,-49.446998596191406z"></path></g><g opacity="1" transform="matrix(1,0,0,1,0,0)"><g opacity="1" transform="matrix(1,0,0,1,0,0)"><path stroke-linecap="round" stroke-linejoin="round" fill-opacity="0" stroke="rgb(255,255,255)" stroke-opacity="1" stroke-width="6" d=" M36.270999908447266,-176.75999450683594 C37.808998107910156,-176.4250030517578 39.404998779296875,-176.05499267578125 41.04899978637695,-175.6490020751953"></path></g><g opacity="1" transform="matrix(1,0,0,1,0,0)"><path stroke-linecap="round" stroke-linejoin="round" fill-opacity="0" stroke="rgb(255,255,255)" stroke-opacity="1" stroke-width="6" d=" M14.916999816894531,-179.97900390625 C14.916999816894531,-179.97900390625 19.784000396728516,-179.718994140625 27.506999969482422,-178.4409942626953"></path></g></g></g><g style="display: block;" transform="matrix(1,0,0,1,216,233)" opacity="1"><g opacity="1" transform="matrix(1,0,0,1,0,0)"><path fill="rgb(255,226,166)" fill-opacity="1" d=" M80.09200286865234,17.697999954223633 C79.56099700927734,15.954999923706055 78.1050033569336,14.666000366210938 76.28299713134766,14.607000350952148 C71.38500213623047,14.449999809265137 65.43499755859375,14.206000328063965 54.1510009765625,17.179000854492188 C48.59000015258789,18.643999099731445 45.72100067138672,18.4060001373291 44.435001373291016,16.30299949645996 C43.4630012512207,14.71399974822998 42.935001373291016,9.569000244140625 48.935001373291016,6.064000129699707 C63.37699890136719,-2.371000051498413 97.79199981689453,-13.545999526977539 115.7490005493164,-3.378000020980835 C121.7760009765625,0.03500000014901161 124.88800048828125,5.409999847412109 125.822998046875,11.11299991607666 C127.4000015258789,20.729000091552734 122.79000091552734,31.277999877929688 115.53700256347656,34.933998107910156 C104.4990005493164,40.49700164794922 86.09200286865234,37.38199996948242 80.09200286865234,17.697999954223633z"></path></g><g opacity="1" transform="matrix(1,0,0,1,0,0)"><path fill="rgb(134,63,20)" fill-opacity="1" d=" M82.69100189208984,13.074999809265137 C82.28900146484375,11.35200023651123 80.76200103759766,10.130999565124512 78.99400329589844,10.074000358581543 C74.23899841308594,9.920999526977539 64.69100189208984,10.107000350952148 54.37799835205078,13.092000007629395 C49.01599884033203,14.644000053405762 45.904998779296875,14.378999710083008 45.28900146484375,12.28499984741211 C44.77899932861328,10.550999641418457 45.724998474121094,7.750999927520752 51.54899978637695,4.348999977111816 C65.56700134277344,-3.8389999866485596 97.86199951171875,-14.248000144958496 115.29199981689453,-4.377999782562256 C121.48500061035156,-0.8709999918937683 124.62300109863281,4.302000045776367 125.46600341796875,9.630000114440918 C125.5719985961914,10.303000450134277 125.64199829101562,10.979000091552734 125.677001953125,11.654000282287598 C126.06500244140625,19.194000244140625 122.072998046875,26.66200065612793 115.83499908447266,29.805999755859375 C105.12100219726562,35.20600128173828 87.13099670410156,32.119998931884766 82.69100189208984,13.074999809265137z"></path></g><g opacity="1" transform="matrix(1,0,0,1,0,0)"><path fill="rgb(107,32,0)" fill-opacity="1" d=" M123.5250015258789,21.819000244140625 C124.77400207519531,17.496000289916992 124.62000274658203,12.979999542236328 122.56199645996094,8.904000282287598 C120.96299743652344,5.73799991607666 118.21600341796875,2.8380000591278076 114.08499908447266,0.49900001287460327 C96.95500183105469,-9.201000213623047 65.21499633789062,1.0290000438690186 51.435001373291016,9.069000244140625 C48.20500183105469,10.958999633789062 46.494998931884766,11.668999671936035 45.71500015258789,13.08899974822998 C45.51499938964844,12.859000205993652 45.375,12.58899974822998 45.28499984741211,12.288999557495117 C44.775001525878906,10.548999786376953 45.724998474121094,7.749000072479248 51.54499816894531,4.348999977111816 C65.56500244140625,-3.8410000801086426 97.86499786376953,-14.25100040435791 115.29499816894531,-4.38100004196167 C123.07599639892578,0.02500000037252903 126.03199768066406,7.070000171661377 125.6709976196289,13.741000175476074 C125.51699829101562,16.577999114990234 124.76300048828125,19.347999572753906 123.5250015258789,21.819000244140625z"></path></g></g><g style="display: block;" transform="matrix(1,0,0,1,43,233)" opacity="1"><g opacity="1" transform="matrix(1,0,0,1,0,0)"><path fill="rgb(255,226,166)" fill-opacity="1" d=" M80.09200286865234,17.697999954223633 C79.56099700927734,15.954999923706055 78.1050033569336,14.666000366210938 76.28299713134766,14.607000350952148 C71.38500213623047,14.449999809265137 65.43499755859375,14.206000328063965 54.1510009765625,17.179000854492188 C48.59000015258789,18.643999099731445 45.72100067138672,18.4060001373291 44.435001373291016,16.30299949645996 C43.4630012512207,14.71399974822998 42.935001373291016,9.569000244140625 48.935001373291016,6.064000129699707 C63.37699890136719,-2.371000051498413 97.79199981689453,-13.545999526977539 115.7490005493164,-3.378000020980835 C121.7760009765625,0.03500000014901161 124.88800048828125,5.409999847412109 125.822998046875,11.11299991607666 C127.4000015258789,20.729000091552734 122.79000091552734,31.277999877929688 115.53700256347656,34.933998107910156 C104.4990005493164,40.49700164794922 86.09200286865234,37.38199996948242 80.09200286865234,17.697999954223633z"></path></g><g opacity="1" transform="matrix(1,0,0,1,0,0)"><path fill="rgb(134,63,20)" fill-opacity="1" d=" M82.69100189208984,13.074999809265137 C82.28900146484375,11.35200023651123 80.76200103759766,10.130999565124512 78.99400329589844,10.074000358581543 C74.23899841308594,9.920999526977539 64.69100189208984,10.107000350952148 54.37799835205078,13.092000007629395 C49.01599884033203,14.644000053405762 45.904998779296875,14.378999710083008 45.28900146484375,12.28499984741211 C44.77899932861328,10.550999641418457 45.724998474121094,7.750999927520752 51.54899978637695,4.348999977111816 C65.56700134277344,-3.8389999866485596 97.86199951171875,-14.248000144958496 115.29199981689453,-4.377999782562256 C121.48500061035156,-0.8709999918937683 124.62300109863281,4.302000045776367 125.46600341796875,9.630000114440918 C125.5719985961914,10.303000450134277 125.64199829101562,10.979000091552734 125.677001953125,11.654000282287598 C126.06500244140625,19.194000244140625 122.072998046875,26.66200065612793 115.83499908447266,29.805999755859375 C105.12100219726562,35.20600128173828 87.13099670410156,32.119998931884766 82.69100189208984,13.074999809265137z"></path></g><g opacity="1" transform="matrix(1,0,0,1,0,0)"><path fill="rgb(107,32,0)" fill-opacity="1" d=" M123.5250015258789,21.819000244140625 C124.77400207519531,17.496000289916992 124.62000274658203,12.979999542236328 122.56199645996094,8.904000282287598 C120.96299743652344,5.73799991607666 118.21600341796875,2.8380000591278076 114.08499908447266,0.49900001287460327 C96.95500183105469,-9.201000213623047 65.21499633789062,1.0290000438690186 51.435001373291016,9.069000244140625 C48.20500183105469,10.958999633789062 46.494998931884766,11.668999671936035 45.71500015258789,13.08899974822998 C45.51499938964844,12.859000205993652 45.375,12.58899974822998 45.28499984741211,12.288999557495117 C44.775001525878906,10.548999786376953 45.724998474121094,7.749000072479248 51.54499816894531,4.348999977111816 C65.56500244140625,-3.8410000801086426 97.86499786376953,-14.25100040435791 115.29499816894531,-4.38100004196167 C123.07599639892578,0.02500000037252903 126.03199768066406,7.070000171661377 125.6709976196289,13.741000175476074 C125.51699829101562,16.577999114990234 124.76300048828125,19.347999572753906 123.5250015258789,21.819000244140625z"></path></g></g><g style="display: block;" transform="matrix(1,0,0,1,216,233)" opacity="1"><g opacity="1" transform="matrix(1,0,0,1,0,0)"><path fill="rgb(255,226,166)" fill-opacity="1" d=" M44.624000549316406,107.5270004272461 C33.29899978637695,95.35299682617188 14.602999687194824,85.64099884033203 -0.10700000077486038,85.64099884033203 C-14.84000015258789,85.64099884033203 -33.47200012207031,95.35299682617188 -44.797000885009766,107.5270004272461 C-55.08300018310547,118.58399963378906 -55.87799835205078,128.81199645996094 -52.53499984741211,130.09800720214844 C-48.33700180053711,131.71299743652344 -30.0049991607666,112.96299743652344 -0.10700000077486038,112.64099884033203 C29.791000366210938,112.96299743652344 48.124000549316406,131.71299743652344 52.321998596191406,130.09800720214844 C55.665000915527344,128.81199645996094 54.90999984741211,118.58399963378906 44.624000549316406,107.5270004272461z"></path></g><g opacity="0.6" transform="matrix(1,0,0,1,0,0)"><path fill="rgb(255,177,57)" fill-opacity="1" d=" M41.54999923706055,97.44100189208984 C30.225000381469727,85.26699829101562 14.602999687194824,75.55500030517578 -0.10700000077486038,75.55500030517578 C-14.84000015258789,75.55500030517578 -30.43899917602539,85.26699829101562 -41.763999938964844,97.44100189208984 C-52.04999923706055,108.49800109863281 -55.87799835205078,124.82499694824219 -52.53499984741211,126.11100006103516 C-48.33700180053711,127.72599792480469 -30.0049991607666,103.87699890136719 -0.10700000077486038,103.55500030517578 C29.791000366210938,103.87699890136719 48.124000549316406,127.72599792480469 52.321998596191406,126.11100006103516 C55.665000915527344,124.82499694824219 51.83599853515625,108.49800109863281 41.54999923706055,97.44100189208984z"></path></g><g opacity="1" transform="matrix(1,0,0,1,0,0)"><path fill="rgb(134,63,20)" fill-opacity="1" d=" M41.54999923706055,103.44100189208984 C30.225000381469727,91.26699829101562 14.602999687194824,81.55500030517578 -0.10700000077486038,81.55500030517578 C-14.84000015258789,81.55500030517578 -30.43899917602539,91.26699829101562 -41.763999938964844,103.44100189208984 C-52.04999923706055,114.49800109863281 -55.87799835205078,124.72699737548828 -52.53499984741211,126.01300048828125 C-48.33700180053711,127.62799835205078 -30.0049991607666,108.87699890136719 -0.10700000077486038,108.55500030517578 C29.791000366210938,108.87699890136719 48.124000549316406,127.62799835205078 52.321998596191406,126.01300048828125 C55.665000915527344,124.72699737548828 51.83599853515625,114.49800109863281 41.54999923706055,103.44100189208984z"></path></g><g opacity="1" transform="matrix(1,0,0,1,0,0)"><path fill="rgb(107,32,0)" fill-opacity="1" d=" M52.70600128173828,125.7969970703125 C51.16600036621094,121.53700256347656 47.40599822998047,115.51699829101562 41.54600143432617,109.22699737548828 C30.22599983215332,97.05699920654297 14.605999946594238,88.33699798583984 -0.10400000214576721,88.33699798583984 C-14.843999862670898,88.33699798583984 -30.43400001525879,97.05699920654297 -41.763999938964844,109.22699737548828 C-47.61399841308594,115.51699829101562 -51.374000549316406,121.53700256347656 -52.91400146484375,125.7969970703125 C-55.54399871826172,123.86699676513672 -51.624000549316406,114.03700256347656 -41.763999938964844,103.43699645996094 C-30.43400001525879,91.26699829101562 -14.843999862670898,81.55699920654297 -0.10400000214576721,81.55699920654297 C14.605999946594238,81.55699920654297 30.22599983215332,91.26699829101562 41.54600143432617,103.43699645996094 C51.40599822998047,114.03700256347656 55.33599853515625,123.86699676513672 52.70600128173828,125.7969970703125z"></path></g></g><g style="display: block;" transform="matrix(1,0,0,1,216,233)" opacity="1"><g opacity="1" transform="matrix(1,0,0,1,0,0)"><path fill="rgb(255,226,166)" fill-opacity="1" d=" M134.7220001220703,-57.816001892089844 C122.31600189208984,-66.08599853515625 102.88899993896484,-73.7040023803711 81.91799926757812,-66.92900085449219 C62.46500015258789,-60.64400100708008 70.36299896240234,-46.66899871826172 79.72200012207031,-50.41600036621094 C95.63600158691406,-56.7869987487793 118.52300262451172,-59.10200119018555 137.29400634765625,-44.215999603271484 C155.98399353027344,-29.395000457763672 155.7530059814453,-19.219999313354492 159.9219970703125,-17.829999923706055 C166.86500549316406,-15.515999794006348 154.00799560546875,-44.95899963378906 134.7220001220703,-57.816001892089844z"></path></g><g opacity="1" transform="matrix(1,0,0,1,0,0)"><path fill="rgb(134,63,20)" fill-opacity="1" d=" M134.7220001220703,-60.902000427246094 C122.31600189208984,-69.1719970703125 103.86499786376953,-74.52999877929688 83.03600311279297,-67.33000183105469 C62.207000732421875,-60.130001068115234 70.36299896240234,-49.755001068115234 79.72200012207031,-53.50199890136719 C95.63600158691406,-59.87300109863281 118.52300262451172,-62.1879997253418 137.29400634765625,-47.301998138427734 C155.98399353027344,-32.48099899291992 156.80799865722656,-20.50200080871582 160.9219970703125,-18.958999633789062 C165.03599548339844,-17.416000366210938 154.00799560546875,-48.04499816894531 134.7220001220703,-60.902000427246094z"></path></g><g opacity="1" transform="matrix(1,0,0,1,0,0)"><path fill="rgb(107,32,0)" fill-opacity="1" d=" M160.9250030517578,-18.96299934387207 C160.7949981689453,-19.01300048828125 160.6750030517578,-19.072999954223633 160.5449981689453,-19.132999420166016 C158.53500366210938,-27.402999877929688 148.61500549316406,-47.632999420166016 133.86500549316406,-57.472999572753906 C121.45500183105469,-65.74299621582031 103.00499725341797,-71.10299682617188 82.17500305175781,-63.90299987792969 C75.32499694824219,-61.53300094604492 71.6050033569336,-58.8129997253418 70.04499816894531,-56.37300109863281 C69.49500274658203,-59.393001556396484 72.68499755859375,-63.75299835205078 83.03500366210938,-67.33300018310547 C103.86499786376953,-74.53299713134766 122.31500244140625,-69.1729965209961 134.72500610351562,-60.90299987792969 C154.0050048828125,-48.042999267578125 165.03500366210938,-17.413000106811523 160.9250030517578,-18.96299934387207z"></path></g></g><g style="display: block;" transform="matrix(1,0,0,1,216,233)" opacity="1"><g opacity="1" transform="matrix(1,0,0,1,0,0)"><path fill="rgb(255,226,166)" fill-opacity="1" d=" M-134.9250030517578,-57.816001892089844 C-122.51899719238281,-66.08599853515625 -103.09100341796875,-73.7040023803711 -82.12000274658203,-66.92900085449219 C-62.66699981689453,-60.64400100708008 -70.56600189208984,-46.66899871826172 -79.92500305175781,-50.41600036621094 C-95.83899688720703,-56.7869987487793 -118.7249984741211,-59.10200119018555 -137.49600219726562,-44.215999603271484 C-156.18600463867188,-29.395000457763672 -155.95599365234375,-19.219999313354492 -160.125,-17.829999923706055 C-167.0679931640625,-15.515999794006348 -154.21099853515625,-44.95899963378906 -134.9250030517578,-57.816001892089844z"></path></g><g opacity="1" transform="matrix(1,0,0,1,0,0)"><path fill="rgb(134,63,20)" fill-opacity="1" d=" M-134.9250030517578,-60.902000427246094 C-122.51899719238281,-69.1719970703125 -104.06800079345703,-74.52999877929688 -83.23899841308594,-67.33000183105469 C-62.40999984741211,-60.130001068115234 -70.56600189208984,-49.755001068115234 -79.92500305175781,-53.50199890136719 C-95.83899688720703,-59.87300109863281 -118.7249984741211,-62.1879997253418 -137.49600219726562,-47.301998138427734 C-156.18600463867188,-32.48099899291992 -157.01100158691406,-20.50200080871582 -161.125,-18.958999633789062 C-165.23899841308594,-17.416000366210938 -154.21099853515625,-48.04499816894531 -134.9250030517578,-60.902000427246094z"></path></g><g opacity="1" transform="matrix(1,0,0,1,0,0)"><path fill="rgb(107,32,0)" fill-opacity="1" d=" M-161.1280059814453,-18.96299934387207 C-160.9980010986328,-19.01300048828125 -160.8780059814453,-19.072999954223633 -160.7480010986328,-19.132999420166016 C-158.73800659179688,-27.402999877929688 -148.8179931640625,-47.632999420166016 -134.0679931640625,-57.472999572753906 C-121.65799713134766,-65.74299621582031 -103.20800018310547,-71.10299682617188 -82.37799835205078,-63.90299987792969 C-75.52799987792969,-61.53300094604492 -71.80799865722656,-58.8129997253418 -70.24800109863281,-56.37300109863281 C-69.697998046875,-59.393001556396484 -72.88800048828125,-63.75299835205078 -83.23799896240234,-67.33300018310547 C-104.06800079345703,-74.53299713134766 -122.51799774169922,-69.1729965209961 -134.92799377441406,-60.90299987792969 C-154.20799255371094,-48.042999267578125 -165.23800659179688,-17.413000106811523 -161.1280059814453,-18.96299934387207z"></path></g></g></g></svg>