<svg xmlns="http://www.w3.org/2000/svg" viewBox="0 0 512 512" width="512" height="512" style="width: 100%; height: 100%; transform: translate3d(0,0,0);" preserveAspectRatio="xMidYMid meet"><defs><clipPath id="__lottie_element_3159"><rect width="512" height="512" x="0" y="0"></rect></clipPath></defs><g clip-path="url(#__lottie_element_3159)"><g style="display: block;" transform="matrix(1,0,0,1,214.42100524902344,267.7720031738281)" opacity="1"><g opacity="1" transform="matrix(1,0,0,1,0,0)"><path fill="rgb(255,177,57)" fill-opacity="1" d=" M123,9.5 C66.5510025024414,-3.246999979019165 -96.5,-79.5 -83.5,39.5 C-79.9020004272461,72.44000244140625 -9.5,103 42.5,86 C62.07899856567383,78.22799682617188 75.42400360107422,97.86000061035156 101.84200286865234,109.94200134277344 C133.07899475097656,124.22899627685547 200.57899475097656,156.22799682617188 229.9720001220703,120.43499755859375 C239.4290008544922,108.91899871826172 238.57899475097656,65.72799682617188 225.3090057373047,46.832000732421875 C209.64500427246094,24.527000427246094 166.07899475097656,19.22800064086914 123,9.5z"></path><path stroke-linecap="butt" stroke-linejoin="miter" fill-opacity="0" stroke-miterlimit="4" stroke="rgb(247,126,65)" stroke-opacity="1" stroke-width="8" d=" M123,9.5 C66.5510025024414,-3.246999979019165 -96.5,-79.5 -83.5,39.5 C-79.9020004272461,72.44000244140625 -9.5,103 42.5,86 C62.07899856567383,78.22799682617188 75.42400360107422,97.86000061035156 101.84200286865234,109.94200134277344 C133.07899475097656,124.22899627685547 200.57899475097656,156.22799682617188 229.9720001220703,120.43499755859375 C239.4290008544922,108.91899871826172 238.57899475097656,65.72799682617188 225.3090057373047,46.832000732421875 C209.64500427246094,24.527000427246094 166.07899475097656,19.22800064086914 123,9.5z"></path></g></g><g style="display: block;" transform="matrix(1,0,0,1,259.5039978027344,264.62799072265625)" opacity="1"><g opacity="1" transform="matrix(1,0,0,1,0,0)"><path fill="rgb(255,209,64)" fill-opacity="1" d=" M-41.88399887084961,97.95600128173828 C-55.00600051879883,105.41100311279297 -67.91100311279297,111.86499786376953 -88.70999908447266,109.9990005493164 C-103.3239974975586,108.68800354003906 -121.79900360107422,101.11799621582031 -127.89900207519531,89.86399841308594 C-146.41200256347656,101.62100219726562 -164.44400024414062,98.61199951171875 -179.80599975585938,91.96199798583984 C-198.32400512695312,83.94599914550781 -201.59300231933594,48.46500015258789 -202.43699645996094,35.83100128173828 C-205.1320037841797,-4.494999885559082 -204.45799255371094,-60.37699890136719 -195.82899475097656,-79.31500244140625 C-177.4250030517578,-119.7040023803711 -143.2239990234375,-101.85900115966797 -141.093994140625,-105.18000030517578 C-106.86499786376953,-158.53900146484375 -68.93199920654297,-133.06199645996094 -56.63199996948242,-135.60899353027344 C-49.013999938964844,-137.18600463867188 -33.499000549316406,-168.05599975585938 -6.951000213623047,-170.7729949951172 C32.13999938964844,-174.77499389648438 43.194000244140625,-151.51499938964844 58.69499969482422,-148.93099975585938 C74.58699798583984,-146.2830047607422 84.71600341796875,-168.15499877929688 120.25800323486328,-160.2270050048828 C152.16200256347656,-153.11099243164062 160.5330047607422,-116.24400329589844 169.031005859375,-85.71499633789062 C177.5279998779297,-55.18600082397461 178.79100036621094,-27.170000076293945 179.05599975585938,-14.986000061035156 C179.32000732421875,-2.802000045776367 210.98899841308594,39.130001068115234 202.3459930419922,73.94100189208984 C196.26600646972656,98.43000030517578 179.5850067138672,144.4669952392578 157.6009979248047,163.53799438476562 C135.31300354003906,182.8719940185547 88.677001953125,159.3679962158203 51.44200134277344,161.9459991455078 C26.69700050354004,163.66000366210938 -2.1630001068115234,170.0229949951172 -10.034000396728516,159.39700317382812 C-21.608999252319336,143.77099609375 -15.28600025177002,126.63300323486328 -0.09200000017881393,113.81999969482422 C-17.67799949645996,114.96199798583984 -38.237998962402344,106.61499786376953 -41.88399887084961,97.95600128173828z"></path></g></g><g style="display: block;" transform="matrix(1,0,0,1,288.9070129394531,370.9809875488281)" opacity="1"><g opacity="1" transform="matrix(1,0,0,1,0,0)"><path fill="rgb(255,177,57)" fill-opacity="1" d=" M36.6879997253418,-13.864999771118164 C35.422000885009766,2.696000099182129 9.746000289916992,14.402999877929688 -10.88700008392334,16.288999557495117 C-24.58300018310547,17.541000366210938 -36.055999755859375,14.465999603271484 -36.69300079345703,5.61299991607666 C-37.47999954223633,-5.307000160217285 37.78799819946289,-23.417999267578125 36.6879997253418,-13.864999771118164z"></path></g></g><g style="display: block;" transform="matrix(1,0,0,1,352.1400146484375,341.5119934082031)" opacity="1"><g opacity="1" transform="matrix(1,0,0,1,0,0)"><path fill="rgb(255,177,57)" fill-opacity="1" d=" M61.41600036621094,-7.40500020980835 C70.86000061035156,11.98799991607666 71.77100372314453,30.29599952697754 70.51899719238281,43.22800064086914 C68.74800109863281,61.507999420166016 58.12300109863281,76.1780014038086 39.52299880981445,75.53600311279297 C19.458999633789062,74.84400177001953 12.626999855041504,70.58200073242188 -35.28900146484375,70.43499755859375 C-57.229000091552734,70.36799621582031 -89.58499908447266,80.11699676513672 -94.4749984741211,64.83699798583984 C-96.00700378417969,60.04899978637695 -95.69000244140625,49.39699935913086 -84.96399688720703,41.279998779296875 C-71.822998046875,32.917999267578125 -89.53099822998047,31.981000900268555 -93.0270004272461,33.560001373291016 C-111.66000366210938,59.375 -111.15699768066406,75.98699951171875 -102.2969970703125,83.43199920654297 C-89.13999938964844,94.48799896240234 -54.63999938964844,84.98799896240234 -31.045000076293945,86.1780014038086 C-11.163000106811523,87.18099975585938 36.86000061035156,98.98799896240234 60.5890007019043,91.10299682617188 C75.68900299072266,86.08499908447266 103.86000061035156,37.487998962402344 112.01300048828125,-9.503999710083008 C116.54100036621094,-35.60300064086914 98.36000061035156,-62.012001037597656 87.01000213623047,-85.11900329589844 C85.13200378417969,-88.94200134277344 86.86000061035156,-165.51199340820312 61.012001037597656,-203.2030029296875 C64.86000061035156,-166.51199340820312 66.36000061035156,-50.512001037597656 61.41600036621094,-7.40500020980835z"></path></g></g><g style="display: block;" transform="matrix(1,0,0,1,237.41900634765625,219.2860107421875)" opacity="1"><g opacity="1" transform="matrix(1,0,0,1,0,0)"><path fill="rgb(255,223,121)" fill-opacity="1" d=" M-158.59800720214844,133.7729949951172 C-182.2519989013672,130.10400390625 -185.16400146484375,49.56700134277344 -178.4669952392578,-2.569999933242798 C-175.697998046875,-24.128000259399414 -171.28700256347656,-40.83000183105469 -166.0189971923828,-45.23500061035156 C-141.11300659179688,-66.06300354003906 -126.5790023803711,-58.70899963378906 -117.88300323486328,-60.46200180053711 C-109.50399780273438,-62.1510009765625 -108.98500061035156,-83.7959976196289 -79.38899993896484,-92.72000122070312 C-59.96500015258789,-98.5770034790039 -46.18299865722656,-88.01699829101562 -35.577999114990234,-90.99500274658203 C-25.718000411987305,-93.76399993896484 -11.906999588012695,-123.55500030517578 11.458999633789062,-125.18099975585938 C63.356998443603516,-128.79100036621094 61.941001892089844,-102.84400177001953 83.73200225830078,-102.87000274658203 C100.94999694824219,-102.88999938964844 105.98400115966797,-117.7509994506836 127.52200317382812,-117.26300048828125 C159.36399841308594,-116.54199981689453 173.30599975585938,-94.71800231933594 181.0240020751953,-65.08999633789062 C176.36599731445312,-70.58399963378906 153.5260009765625,-100.16000366210938 131.07200622558594,-97.79199981689453 C98.65299987792969,-94.37200164794922 104.11699676513672,-81.69300079345703 75.72699737548828,-81.16200256347656 C51.97999954223633,-80.71900177001953 48.7140007019043,-108.6969985961914 11.810999870300293,-101.802001953125 C-19.336999893188477,-95.98300170898438 -24.378999710083008,-68.47100067138672 -41.340999603271484,-66.8010025024414 C-54.41400146484375,-65.51300048828125 -56.07699966430664,-80.81800079345703 -81.30699920654297,-72.51000213623047 C-99.62999725341797,-66.47599792480469 -102.58699798583984,-45.00199890136719 -113.31300354003906,-43.097999572753906 C-121.35199737548828,-41.672000885009766 -126.28900146484375,-46.731998443603516 -143.26199340820312,-42.9739990234375 C-148.34300231933594,-41.8489990234375 -155.28900146484375,-40.332000732421875 -163.3040008544922,-23.815000534057617 C-164.7239990234375,-20.888999938964844 -166.1490020751953,-12.668000221252441 -167.2899932861328,-1.347000002861023 C-171.08599853515625,36.316001892089844 -171.74000549316406,108.29299926757812 -158.59800720214844,133.7729949951172z"></path></g></g><g style="display: block;" transform="matrix(1,0,0,1,134.34100341796875,297.6409912109375)" opacity="1"><g opacity="1" transform="matrix(1,0,0,1,0,0)"><path fill="rgb(255,223,121)" fill-opacity="1" d=" M-14.267999649047852,4.247000217437744 C-11.871999740600586,31.91699981689453 -7.949999809265137,65.47000122070312 22.117000579833984,72.00599670410156 C5.3470001220703125,59.16999816894531 2.7070000171661377,42.54800033569336 1.2079999446868896,8.206999778747559 C0.1899999976158142,-15.11400032043457 1.024999976158142,-50.14699935913086 0.9459999799728394,-59.28799819946289 C0.8050000071525574,-75.51599884033203 -20.21500015258789,-75.54399871826172 -22.117000579833984,-63.18199920654297 C-19.672000885009766,-34.654998779296875 -16.665000915527344,-23.423999786376953 -14.267999649047852,4.247000217437744z"></path></g></g><g style="display: block;" transform="matrix(1,0,0,1,94.27099609375,295.01800537109375)" opacity="1"><g opacity="1" transform="matrix(1,0,0,1,0,0)"><path fill="rgb(255,177,57)" fill-opacity="1" d=" M29.441999435424805,-43.814998626708984 C29.3700008392334,-38.72600173950195 28.843000411987305,39.93199920654297 36.667999267578125,55.18199920654297 C22.229000091552734,75.99700164794922 -4.9629998207092285,68.76000213623047 -16.29800033569336,63.36399841308594 C-40.60100173950195,51.797000885009766 -36.13199996948242,11.77299976348877 -36.63800048828125,-8.79800033569336 C-34.680999755859375,12.286999702453613 -32.143001556396484,40.882999420166016 -16.152999877929688,49.404998779296875 C-12.704000473022461,51.24300003051758 -8.628999710083008,52.14699935913086 -3.7990000247955322,51.84000015258789 C20.201000213623047,50.31700134277344 20.000999450683594,47.215999603271484 17.635000228881836,25.86400032043457 C15.190999984741211,3.802999973297119 14.666000366210938,-36.21699905395508 14.937000274658203,-52.99300003051758 C15.244000434875488,-72.02200317382812 37.54399871826172,-75.48300170898438 29.34600067138672,-56.4119987487793 C26.016000747680664,-48.66600036621094 29.562000274658203,-52.400001525878906 29.441999435424805,-43.814998626708984z"></path></g></g><g style="display: block;" transform="matrix(1,0,0,1,310.53900146484375,287.04498291015625)" opacity="1"><g opacity="1" transform="matrix(1,0,0,1,0,0)"><path fill="rgb(255,209,64)" fill-opacity="1" d=" M-107.52899932861328,-62.082000732421875 C-107.33899688720703,-12.312999725341797 -104.17400360107422,68.22699737548828 -86.16500091552734,84.80400085449219 C-73.93299865722656,96.06099700927734 -32.85200119018555,98.58100128173828 -11.687000274658203,84.00499725341797 C7.388999938964844,70.86799621582031 5.197999954223633,56.487998962402344 7.281000137329102,60.24399948120117 C23.454999923706055,89.39600372314453 74.12999725341797,82.68399810791016 92.94000244140625,69.62899780273438 C107.59500122070312,59.457000732421875 110.11199951171875,-16.82900047302246 105.31999969482422,-94.10199737548828"></path></g></g><g style="display: block;" transform="matrix(1,0,0,1,217.7729949951172,293.33001708984375)" opacity="1"><g opacity="1" transform="matrix(1,0,0,1,0,0)"><path fill="rgb(255,223,121)" fill-opacity="1" d=" M-12.833000183105469,15.512999534606934 C-11.961999893188477,30.916000366210938 -10.420999526977539,86.4520034790039 24.363000869750977,82.51799774169922 C7.5920000076293945,69.68099975585938 4.28000020980835,52.49599838256836 2.2090001106262207,17.090999603271484 C1.2339999675750732,0.4230000078678131 -0.8339999914169312,-49.94300079345703 -1.0110000371932983,-70.3239974975586 C-1.1519999504089355,-86.5510025024414 -22.461000442504883,-85.98300170898438 -24.363000869750977,-73.62100219726562 C-21.917999267578125,-45.09400177001953 -14.812999725341797,-19.52199935913086 -12.833000183105469,15.512999534606934z"></path></g></g><g style="display: block;" transform="matrix(1,0,0,1,322.5140075683594,282.20599365234375)" opacity="1"><g opacity="1" transform="matrix(1,0,0,1,0,0)"><path fill="rgb(255,223,121)" fill-opacity="1" d=" M-9.39900016784668,16.451000213623047 C-8.527999877929688,31.854000091552734 -10.420999526977539,86.4520034790039 24.363000869750977,82.51799774169922 C7.5920000076293945,69.68099975585938 1.7330000400543213,65.48100280761719 0.08500000089406967,19.464000701904297 C-0.5130000114440918,2.7780001163482666 -3.7060000896453857,-50.9109992980957 -3.882999897003174,-71.29199981689453 C-4.02400016784668,-87.51899719238281 -12.079000473022461,-86.83899688720703 -13.980999946594238,-74.47699737548828 C-11.53600025177002,-45.95000076293945 -11.378999710083008,-18.583999633789062 -9.39900016784668,16.451000213623047z"></path></g></g><g style="display: block;" transform="matrix(1,0,0,1,172.16600036621094,292.27398681640625)" opacity="1"><g opacity="1" transform="matrix(1,0,0,1,0,0)"><path fill="rgb(255,177,57)" fill-opacity="1" d=" M32.24100112915039,-56.279998779296875 C31.26300048828125,-51.28499984741211 29.145000457763672,46.37900161743164 44.584999084472656,63.319000244140625 C24.670000076293945,90.56800079345703 -13.190999984741211,80.57599639892578 -24.525999069213867,75.18099975585938 C-48.82899856567383,63.612998962402344 -43.99700164794922,42.54600143432617 -44.50299835205078,21.975000381469727 C-42.82600021362305,35.59000015258789 -42.1150016784668,46.99100112915039 -34.49599838256836,53.584999084472656 C-29.867000579833984,57.590999603271484 -22.687999725341797,59.823001861572266 -11.192000389099121,59.696998596191406 C13.038999557495117,59.430999755859375 21.631000518798828,50.84000015258789 19.464000701904297,11.883999824523926 C18.033000946044922,-13.847000122070312 17.982999801635742,-45.111000061035156 19.093000411987305,-70.3270034790039 C19.68000030517578,-83.66000366210938 43.70399856567383,-87.8479995727539 33.090999603271484,-67.13600158691406 C28.81999969482422,-58.801998138427734 33.78200149536133,-64.1510009765625 32.24100112915039,-56.279998779296875z"></path></g></g><g style="display: block;" transform="matrix(1,0,0,1,264.6910095214844,287.40899658203125)" opacity="1"><g opacity="1" transform="matrix(1,0,0,1,0,0)"><path fill="rgb(255,177,57)" fill-opacity="1" d=" M54.888999938964844,-80.80000305175781 C53.92499923706055,-32.98099899291992 56.198001861572266,48 47.189998626708984,67.11499786376953 C32.14500045776367,99.04000091552734 -14.04800033569336,93.24199676513672 -29.503999710083008,88.39800262451172 C-56.80799865722656,79.84200286865234 -55.779998779296875,28.30500030517578 -56.444000244140625,5.4770002365112305 C-54.56399917602539,22.597000122070312 -52.70100021362305,41.316001892089844 -44.0620002746582,54.4379997253418 C-34.38399887084961,69.13800048828125 -20.363000869750977,68.32599639892578 -12.22599983215332,68.375 C31.143999099731445,68.63999938964844 26.4689998626709,49.50299835205078 27.13599967956543,12.100000381469727 C27.565000534057617,-11.960000038146973 23.80900001525879,-45.909000396728516 33.448001861572266,-73.47100067138672 C40.308998107910156,-93.09100341796875 63.19300079345703,-96.83699798583984 54.888999938964844,-80.80000305175781z"></path></g></g><g style="display: block;" transform="matrix(1,0,0,1,371.39398193359375,242.56100463867188)" opacity="1"><g opacity="1" transform="matrix(1,0,0,1,0,0)"><path fill="rgb(255,177,57)" fill-opacity="1" d=" M11.515000343322754,-42.77000045776367 C11.732999801635742,-18.68400001525879 29.606000900268555,-45.56100082397461 25.724000930786133,53.4109992980957 C24.722999572753906,78.94400024414062 20.540000915527344,99.69100189208984 -7.728000164031982,100.33699798583984 C-23.684999465942383,100.7020034790039 -33.58300018310547,96.56999969482422 -37.715999603271484,83.62200164794922 C-39.007999420166016,79.572998046875 -39.73699951171875,74.66200256347656 -39.9109992980957,68.75700378417969 C-40.696998596191406,42.05400085449219 -43.393001556396484,-13.25 -45.099998474121094,-33.06800079345703 C-46.89500045776367,-53.89699935913086 -66.96399688720703,-49.590999603271484 -65.70600128173828,-34.21200180053711 C-66.21199798583984,-11.946000099182129 -62.79899978637695,73.51100158691406 -62.97999954223633,81.00199890136719 C-64.35399627685547,137.67799377441406 -20.05900001525879,133.677001953125 5.745999813079834,132.87100219726562 C42.05400085449219,131.73599243164062 55.92100143432617,113.22000122070312 55.62799835205078,62.520999908447266 C55.4630012512207,33.84600067138672 54.630001068115234,-15.095000267028809 52.354000091552734,-46.52299880981445 C50.10599899291992,-77.56099700927734 48.422000885009766,-119.88600158691406 16.142000198364258,-133.2449951171875 C46.220001220703125,-93.99400329589844 11.270999908447266,-69.68099975585938 11.515000343322754,-42.77000045776367z"></path></g></g><g style="display: block;" transform="matrix(1,0,0,1,260.8760070800781,264.3900146484375)" opacity="1"><g opacity="1" transform="matrix(1,0,0,1,0,0)"><path stroke-linecap="round" stroke-linejoin="round" fill-opacity="0" stroke="rgb(247,126,65)" stroke-opacity="1" stroke-width="8" d=" M-203.2760009765625,-42.62900161743164 C-202.99600219726562,-51.314998626708984 -202.25999450683594,-79.41899871826172 -182.9770050048828,-96.6719970703125 C-165.03799438476562,-112.72200012207031 -142.8249969482422,-100.43499755859375 -138.70399475097656,-107.26599884033203 C-131.99400329589844,-118.38700103759766 -119.09100341796875,-136.3260040283203 -96.74600219726562,-139.1580047607422 C-72.9540023803711,-142.1739959716797 -62.82500076293945,-131.1959991455078 -56.26300048828125,-136.8730010986328 C-48.03200149536133,-143.99400329589844 -34.84000015258789,-167.6699981689453 -7.105000019073486,-169.9250030517578 C31.628000259399414,-173.07400512695312 43.409000396728516,-149.63499450683594 53.35599899291992,-148.51199340820312 C75.17500305175781,-146.0469970703125 74.90599822998047,-159.8179931640625 104.16999816894531,-161.41400146484375 C136.06500244140625,-163.1540069580078 152.53500366210938,-134.5500030517578 163.27200317382812,-100.72799682617188 C171.4929962158203,-74.83300018310547 175.38299560546875,-62.263999938964844 176.82899475097656,-20.826000213623047"></path></g></g><g style="display: block;" transform="matrix(1,0,0,1,258.822998046875,292.7489929199219)" opacity="1"><g opacity="1" transform="matrix(1,0,0,1,0,0)"><path stroke-linecap="round" stroke-linejoin="round" fill-opacity="0" stroke="rgb(247,126,65)" stroke-opacity="1" stroke-width="8" d=" M-56.470001220703125,-70.8219985961914 C-55.24100112915039,-11.545999526977539 -57.73099899291992,49.632999420166016 -38.31999969482422,73.06099700927734 C-32.04199981689453,80.63800048828125 -19.542999267578125,84.677001953125 -5.761000156402588,85.64199829101562"></path></g></g><g style="display: block;" transform="matrix(1,0,0,1,366.14898681640625,280.05499267578125)" opacity="1"><g opacity="1" transform="matrix(1,0,0,1,0,0)"><path stroke-linecap="round" stroke-linejoin="round" fill-opacity="0" stroke="rgb(247,126,65)" stroke-opacity="1" stroke-width="8" d=" M47.41600036621094,40.92399978637695 C48.79399871826172,31.700000762939453 49.736000061035156,21.229000091552734 50.334999084472656,10.180999755859375 C51.540000915527344,-12.03499984741211 51.35499954223633,-36.582000732421875 50.529998779296875,-58.005001068115234 C50.10900115966797,-68.94400024414062 49.52000045776367,-79.06900024414062 48.86399841308594,-87.6520004272461 M-54.66600036621094,-73.7030029296875 C-54.766998291015625,-44.69300079345703 -52.23899841308594,26.136999130249023 -51.194000244140625,42.472999572753906 C-50.14899826049805,58.808998107910156 -47.095001220703125,72.5 -37.733001708984375,79.19599914550781 C-19.82900047302246,92.00299835205078 28.81599998474121,91.92400360107422 40.53499984741211,67.3290023803711 C43.54100036621094,61.02000045776367 45.784000396728516,51.84700012207031 47.41600036621094,40.92399978637695"></path></g></g><g style="display: block;" transform="matrix(1.6382287740707397,-0.3065861761569977,0.3065861761569977,1.6382287740707397,116.35699462890625,273.35400390625)" opacity="1"><g opacity="1" transform="matrix(1,0,0,1,0,0)"><path fill="rgb(255,177,57)" fill-opacity="1" d=" M76.28800201416016,77.4520034790039 C61.87300109863281,80.61599731445312 54.983001708984375,92.75 61.8390007019043,104.11699676513672 C63.987998962402344,107.68000030517578 71.99700164794922,109.6729965209961 81.66400146484375,110.41000366210938 C98.15599822998047,111.66799926757812 109.81300354003906,113.6989974975586 118.8010025024414,117.33300018310547 C127.81099700927734,120.9749984741211 142.7740020751953,128.34300231933594 154.4510040283203,126.12799835205078 C168.9510040283203,123.37799835205078 187.28599548339844,77.30799865722656 173.86599731445312,74.86599731445312 C149.7030029296875,92.50700378417969 114.01499938964844,80.18699645996094 109.96299743652344,66.18599700927734 C105.30000305175781,72.5780029296875 95.31099700927734,83.87799835205078 76.28800201416016,77.4520034790039z"></path></g><g opacity="1" transform="matrix(1,0,0,1,0,0)"><path fill="rgb(255,209,64)" fill-opacity="1" d=" M74.69100189208984,83.10399627685547 C71.83899688720703,82.3479995727539 67.12000274658203,91.0979995727539 68.56400299072266,95.12999725341797 C70.51899719238281,100.58899688720703 76.13300323486328,101.06199645996094 81.7509994506836,101.91000366210938 C97.45600128173828,104.28099822998047 105.33799743652344,104.55999755859375 113.39099884033203,106.072998046875 C123.83499908447266,108.03500366210938 143.23199462890625,117.1240005493164 153.28500366210938,115.72799682617188 C164.41600036621094,114.18199920654297 171.74099731445312,99.80999755859375 170.4720001220703,79.4990005493164 C160.64599609375,98.7030029296875 114.96800231933594,85.93099975585938 111.76499938964844,76.96199798583984 C102.77300262451172,86.7239990234375 84.88300323486328,85.80500030517578 74.69100189208984,83.10399627685547z"></path></g><g opacity="0" transform="matrix(1,0,0,1,0,0)"><path fill="rgb(255,177,57)" fill-opacity="1" d=" M74.57499694824219,84.5989990234375 C72.10199737548828,101.66500091552734 142.6699981689453,106.68599700927734 147.1219940185547,107.74700164794922 C152.69200134277344,109.0739974975586 161.90699768066406,106.91799926757812 172.55499267578125,86.93299865722656 C173.9199981689453,84.37100219726562 100.90899658203125,78.57599639892578 74.57499694824219,84.5989990234375z"></path></g></g><g style="display: block;" transform="matrix(1,0,0,1,260.8760070800781,264.3900146484375)" opacity="1"><g opacity="1" transform="matrix(1,0,0,1,0,0)"><path stroke-linecap="round" stroke-linejoin="round" fill-opacity="0" stroke="rgb(247,126,65)" stroke-opacity="1" stroke-width="8" d=" M176.82899475097656,-20.826000213623047 C177.86500549316406,8.87600040435791 212.20399475097656,37.130001068115234 201.05099487304688,76.26899719238281 C195.46200561523438,95.88700103759766 186.09500122070312,124.9219970703125 172.5,145.3990020751953 M172.5,145.3990020751953 C164.79800415039062,157 155.73800659179688,165.85400390625 145.23800659179688,168.69200134277344 C123.03199768066406,174.6929931640625 90.3239974975586,160.88999938964844 48.61399841308594,162.99099731445312 C15.859999656677246,164.63999938964844 -6.2220001220703125,170.59800720214844 -14.701000213623047,155.18899536132812 C-21.722000122070312,142.4290008544922 -14.61299991607666,125.28099822998047 -3.5429999828338623,114.28700256347656 C13.87399959564209,114.36000061035156 54.874000549316406,114.86000061035156 54.7400016784668,70.88400268554688 C57.874000549316406,95.86000061035156 76.61599731445312,102.55500030517578 96.29000091552734,103.24199676513672 C121.1240005493164,104.10900115966797 144.62399291992188,95.61000061035156 148.41600036621094,76.91300201416016"></path></g></g><g style="display: block;" transform="matrix(1,0,0,1,168.23001098632812,305.4840087890625)" opacity="1"><g opacity="1" transform="matrix(1,0,0,1,0,0)"><path stroke-linecap="round" stroke-linejoin="round" fill-opacity="0" stroke="rgb(247,126,65)" stroke-opacity="1" stroke-width="8" d=" M-47.60300064086914,-69.0530014038086 C-48.040000915527344,-18.222999572753906 -44.3390007019043,25.541000366210938 -37.582000732421875,43.6619987487793 C-27.158000946044922,71.61699676513672 25.215999603271484,77.37899780273438 47.637001037597656,56.49399948120117"></path></g></g><g style="display: block;" transform="matrix(1,0,0,1,93.24299621582031,291.60101318359375)" opacity="1"><g opacity="1" transform="matrix(1,0,0,1,0,0)"><path stroke-linecap="round" stroke-linejoin="round" fill-opacity="0" stroke="rgb(247,126,65)" stroke-opacity="1" stroke-width="8" d=" M-35.64799880981445,-71.0719985961914 C-37.05699920654297,-55.72800064086914 -37.68299865722656,-15.744000434875488 -35.49100112915039,8.937000274658203 C-33,36.992000579833984 -31.364999771118164,49.189998626708984 -20.24799919128418,60.106998443603516 C-5.519000053405762,74.57099914550781 23.017000198364258,73.85099792480469 36.92499923706055,63.060001373291016"></path></g></g><g style="display: none;"><g><path></path></g></g><g style="display: none;"><g><path></path></g></g><g style="display: none;"><g><path></path></g></g><g style="display: none;"><g><path stroke-linecap="round" stroke-linejoin="miter" fill-opacity="0" stroke-miterlimit="4"></path></g></g><g style="display: block;" transform="matrix(1,0,0,1,237.41900634765625,219.2860107421875)" opacity="1"><g opacity="1" transform="matrix(1,0,0,1,0,0)"><path stroke-linecap="round" stroke-linejoin="round" fill-opacity="0" stroke="rgb(255,255,255)" stroke-opacity="1" stroke-width="6" d=" M18.968000411987305,-102.6780014038086 C16.729999542236328,-102.53299713134766 14.350000381469727,-102.24800109863281 11.810999870300293,-101.802001953125 C0.12600000202655792,-99.7490005493164 -6.322000026702881,-94.16699981689453 -11.47700023651123,-88.04499816894531"></path></g><g opacity="1" transform="matrix(1,0,0,1,0,0)"><path stroke-linecap="round" stroke-linejoin="round" fill-opacity="0" stroke="rgb(255,255,255)" stroke-opacity="1" stroke-width="6" d=" M-23.959999084472656,-77.10900115966797 C-25.591999053955078,-75.45099639892578 -27.297000885009766,-73.88500213623047 -29.166000366210938,-72.47699737548828"></path></g></g><g style="display: block;" transform="matrix(1,0,0,1,72.44000244140625,324.9880065917969)" opacity="1"><g opacity="1" transform="matrix(1,0,0,1,0,0)"><path stroke-linecap="round" stroke-linejoin="round" fill-opacity="0" stroke="rgb(255,255,255)" stroke-opacity="1" stroke-width="6" d=" M0.7310000061988831,2.7360000610351562 C0.14900000393390656,1.1660000085830688 -0.453000009059906,-0.7799999713897705 -0.7310000061988831,-2.7360000610351562"></path></g></g><g style="display: block;" transform="matrix(1,0,0,1,137.1999969482422,322.4339904785156)" opacity="1"><g opacity="1" transform="matrix(1,0,0,1,0,0)"><path stroke-linecap="round" stroke-linejoin="round" fill-opacity="0" stroke="rgb(255,255,255)" stroke-opacity="1" stroke-width="0" d=" M1.281000018119812,9.925999641418457 C0.9879999756813049,8.33899974822998 0.652999997138977,6.453999996185303 0.3630000054836273,4.5"></path></g></g><g style="display: block;" transform="matrix(1,0,0,1,221.6999969482422,320.4339904785156)" opacity="1"><g opacity="1" transform="matrix(1,0,0,1,0,0)"><path stroke-linecap="round" stroke-linejoin="round" fill-opacity="0" stroke="rgb(255,255,255)" stroke-opacity="1" stroke-width="0" d=" M1.319000005722046,9.649999618530273 C1.0700000524520874,7.8460001945495605 0.8029999732971191,6.160999774932861 0.574999988079071,4.197999954223633"></path></g></g></g></svg>