<svg xmlns="http://www.w3.org/2000/svg" viewBox="0 0 512 512" width="512" height="512" style="width: 100%; height: 100%; transform: translate3d(0,0,0);" preserveAspectRatio="xMidYMid meet"><defs><clipPath id="__lottie_element_27014"><rect width="512" height="512" x="0" y="0"></rect></clipPath><clipPath id="__lottie_element_27020"><path d="M0,0 L512,0 L512,512 L0,512z"></path></clipPath></defs><g clip-path="url(#__lottie_element_27014)"><g clip-path="url(#__lottie_element_27020)" style="display: block;" transform="matrix(1.149999976158142,0,0,1.149999976158142,-38.399993896484375,-42.09999465942383)" opacity="1"><g style="display: block;" transform="matrix(1,0,0,1,256,256)" opacity="1"><g opacity="1" transform="matrix(1,0,0,1,0,0)"><path stroke-linecap="round" stroke-linejoin="round" fill-opacity="0" stroke="rgb(155,0,22)" stroke-opacity="1" stroke-width="16" d=" M184.2429962158203,-89.86599731445312 C181.85699462890625,-127.55999755859375 151.79800415039062,-177.66000366210938 91.6780014038086,-176.22799682617188 C40.176998138427734,-175.0019989013672 8.166999816894531,-128.95700073242188 0.04800000041723251,-115.78099822998047 C-0.8930000066757202,-114.25399780273438 -3.1080000400543213,-114.25399780273438 -4.048999786376953,-115.78099822998047 C-12.168000221252441,-128.95700073242188 -44.178001403808594,-175.0019989013672 -95.67900085449219,-176.22799682617188 C-155.7989959716797,-177.66000366210938 -185.85800170898438,-127.55999755859375 -188.24400329589844,-89.86599731445312 C-190.6300048828125,-52.172000885009766 -181.56500244140625,-9.706000328063965 -130.98800659179688,56.138999938964844 C-91.9990005493164,106.89800262451172 -36.46900177001953,163.0449981689453 -13.071000099182129,186.10800170898438 C-6.927999973297119,192.16299438476562 2.9260001182556152,192.16299438476562 9.069000244140625,186.10800170898438 C32.46699905395508,163.0449981689453 87.99700164794922,106.89800262451172 126.98600006103516,56.138999938964844 C177.56300354003906,-9.706000328063965 186.62899780273438,-52.172000885009766 184.2429962158203,-89.86599731445312z"></path></g><g opacity="1" transform="matrix(1,0,0,1,0,0)"><path fill="rgb(211,0,26)" fill-opacity="1" d=" M184.2429962158203,-89.86599731445312 C181.85699462890625,-127.55999755859375 151.79800415039062,-177.66000366210938 91.6780014038086,-176.22799682617188 C40.176998138427734,-175.0019989013672 8.166999816894531,-128.95700073242188 0.04800000041723251,-115.78099822998047 C-0.8930000066757202,-114.25399780273438 -3.1080000400543213,-114.25399780273438 -4.048999786376953,-115.78099822998047 C-12.168000221252441,-128.95700073242188 -44.178001403808594,-175.0019989013672 -95.67900085449219,-176.22799682617188 C-155.7989959716797,-177.66000366210938 -185.85800170898438,-127.55999755859375 -188.24400329589844,-89.86599731445312 C-190.6300048828125,-52.172000885009766 -181.56500244140625,-9.706000328063965 -130.98800659179688,56.138999938964844 C-91.9990005493164,106.89800262451172 -36.46900177001953,163.0449981689453 -13.071000099182129,186.10800170898438 C-6.927999973297119,192.16299438476562 2.9260001182556152,192.16299438476562 9.069000244140625,186.10800170898438 C32.46699905395508,163.0449981689453 87.99700164794922,106.89800262451172 126.98600006103516,56.138999938964844 C177.56300354003906,-9.706000328063965 186.62899780273438,-52.172000885009766 184.2429962158203,-89.86599731445312z"></path></g><g opacity="1" transform="matrix(1,0,0,1,0,0)"><g opacity="1" transform="matrix(1,0,0,1,0,0)"><path fill="rgb(221,18,33)" fill-opacity="1" d=" M184.2429962158203,-89.86599731445312 C181.85699462890625,-127.55999755859375 151.79800415039062,-177.66000366210938 91.6780014038086,-176.22799682617188 C31.558000564575195,-174.7969970703125 -2.000999927520752,-112.29199981689453 -2.000999927520752,-112.29199981689453 C-2.000999927520752,-112.29199981689453 -35.560001373291016,-174.7969970703125 -95.67900085449219,-176.22799682617188 C-155.7989959716797,-177.66000366210938 -185.85800170898438,-127.55999755859375 -188.24400329589844,-89.86599731445312 C-190.6300048828125,-52.172000885009766 -181.56500244140625,-9.706000328063965 -130.98800659179688,56.138999938964844 C-106.11599731445312,88.5199966430664 -74.51200103759766,123.09300231933594 -48.8129997253418,149.87100219726562 C-23.27199935913086,176.48399353027344 19.270999908447266,176.48399353027344 44.8120002746582,149.87100219726562 C70.51100158691406,123.09300231933594 102.11399841308594,88.5199966430664 126.98600006103516,56.138999938964844 C177.56300354003906,-9.706000328063965 186.62899780273438,-52.172000885009766 184.2429962158203,-89.86599731445312z"></path></g><g opacity="1" transform="matrix(1,0,0,1,0,0)"><path fill="rgb(254,21,18)" fill-opacity="1" d=" M166.9720001220703,-80.3280029296875 C164.80799865722656,-111.54199981689453 141.3419952392578,-156.50100708007812 86.7969970703125,-155.3159942626953 C32.25199890136719,-154.13099670410156 -2.000999927520752,-86.73999786376953 -2.000999927520752,-86.73999786376953 C-2.000999927520752,-86.73999786376953 -36.25299835205078,-154.13099670410156 -90.7979965209961,-155.3159942626953 C-145.34300231933594,-156.50100708007812 -168.80999755859375,-111.54199981689453 -170.9739990234375,-80.3280029296875 C-173.13800048828125,-49.11399841308594 -164.91299438476562,-9.607999801635742 -119.0260009765625,44.91699981689453 C-105.48600006103516,61.00600051879883 -89.74800109863281,78.31700134277344 -74.28700256347656,94.72799682617188 C-35.06399917602539,136.36199951171875 31.062999725341797,136.36199951171875 70.28600311279297,94.72799682617188 C85.74700164794922,78.31700134277344 101.48500061035156,61.00600051879883 115.0250015258789,44.91699981689453 C160.91200256347656,-9.607999801635742 169.13600158691406,-49.11399841308594 166.9720001220703,-80.3280029296875z"></path></g></g><g opacity="1" transform="matrix(-1,0,0,1,-3.5,0)"><g opacity="1" transform="matrix(1,0,0,1,0,0)"><path fill="rgb(254,33,30)" fill-opacity="1" d=" M-90.7979965209961,-155.3159942626953 C-145.34300231933594,-156.50100708007812 -168.80999755859375,-111.54199981689453 -170.9739990234375,-80.3280029296875 C-172.5189971923828,-58.04100036621094 -168.7570037841797,-31.52199935913086 -149.78199768066406,1.6690000295639038 C-150.552001953125,-0.16599999368190765 -170.89599609375,-54.79499816894531 -121.00199890136719,-90.91400146484375 C-79.02799987792969,-121.2979965209961 -17.58799934387207,-101.94999694824219 -2.0139999389648438,-86.7490005493164 C-2.0139999389648438,-86.75 -2.013000011444092,-86.76000213623047 -2.013000011444092,-86.76399993896484 C-2.5390000343322754,-87.79199981689453 -36.67599868774414,-154.13999938964844 -90.7979965209961,-155.3159942626953z"></path></g><g opacity="1" transform="matrix(1,0,0,1,0,0)"><path fill="rgb(254,44,41)" fill-opacity="1" d=" M-90.7979965209961,-155.3159942626953 C-145.34300231933594,-156.50100708007812 -168.80999755859375,-111.54199981689453 -170.9739990234375,-80.3280029296875 C-172.5189971923828,-58.04100036621094 -168.7570037841797,-31.52199935913086 -149.78199768066406,1.6690000295639038 C-149.8300018310547,1.5540000200271606 -149.95399475097656,1.2330000400543213 -150.13400268554688,0.722000002861023 C-153.16799926757812,-4.638999938964844 -155.8159942626953,-9.831999778747559 -158.08099365234375,-14.85099983215332 C-160.88299560546875,-34.750999450683594 -159.1719970703125,-68.5989990234375 -124.44499969482422,-93.73200225830078 C-83.65599822998047,-123.25499725341797 -25.042999267578125,-107.20700073242188 -5.035999774932861,-92.14099884033203 C-5.038000106811523,-92.14399719238281 -5.038000106811523,-92.15399932861328 -5.039000034332275,-92.15699768066406 C-14.534000396728516,-108.18499755859375 -45.74100112915039,-154.33700561523438 -90.7979965209961,-155.3159942626953z"></path></g><g opacity="1" transform="matrix(1,0,0,1,0,0)"><path fill="rgb(254,55,52)" fill-opacity="1" d=" M-90.7979965209961,-155.3159942626953 C-145.34300231933594,-156.50100708007812 -168.80999755859375,-111.54199981689453 -170.9739990234375,-80.3280029296875 C-171.9969940185547,-65.5770034790039 -170.69200134277344,-48.96900177001953 -164.19500732421875,-29.80299949645996 C-163.947998046875,-50.020999908447266 -156.947998046875,-76.22899627685547 -128.54400634765625,-96.78399658203125 C-88.2030029296875,-125.98899841308594 -30.950000762939453,-111.98500061035156 -8.079999923706055,-97.08300018310547 C-8.079000473022461,-97.08399963378906 -8.07699966430664,-97.08499908447266 -8.076000213623047,-97.08599853515625 C-20.184999465942383,-116.02400207519531 -49.74100112915039,-154.4239959716797 -90.7979965209961,-155.3159942626953z"></path></g><g opacity="1" transform="matrix(1,0,0,1,0,0)"><path fill="rgb(254,65,62)" fill-opacity="1" d=" M-90.7979965209961,-155.3159942626953 C-145.34300231933594,-156.50100708007812 -168.80999755859375,-111.54199981689453 -170.9739990234375,-80.3280029296875 C-171.76600646972656,-68.91300201416016 -171.15499877929688,-56.38199996948242 -167.83299255371094,-42.41899871826172 C-167.83299255371094,-42.41899871826172 -167.83299255371094,-42.417999267578125 -167.83299255371094,-42.417999267578125 C-165.18800354003906,-60.97100067138672 -156.03399658203125,-82.20899963378906 -132.08299255371094,-99.53500366210938 C-92.16400146484375,-128.44000244140625 -36.150001525878906,-116.18800354003906 -11.038999557495117,-101.56700134277344 C-11.041000366210938,-101.56999969482422 -11.041000366210938,-101.5739974975586 -11.043000221252441,-101.5770034790039 C-24.61400032043457,-121.49099731445312 -52.77299880981445,-154.49000549316406 -90.7979965209961,-155.3159942626953z"></path></g><g opacity="1" transform="matrix(1,0,0,1,0,0)"><path fill="rgb(254,75,72)" fill-opacity="1" d=" M-90.7979965209961,-155.3159942626953 C-145.34300231933594,-156.50100708007812 -168.80999755859375,-111.54199981689453 -170.9739990234375,-80.3280029296875 C-171.43600463867188,-73.6719970703125 -171.41799926757812,-66.63500213623047 -170.6699981689453,-59.159000396728516 C-165.6540069580078,-74.27200317382812 -155.65499877929688,-89.98200225830078 -137.0780029296875,-103.41999816894531 C-97.6510009765625,-131.968994140625 -43.09299850463867,-121.85099792480469 -15.425000190734863,-107.72599792480469 C-15.428000450134277,-107.7300033569336 -15.428000450134277,-107.73699951171875 -15.430999755859375,-107.74099731445312 C-30.20800018310547,-127.62799835205078 -56.486000061035156,-154.57000732421875 -90.7979965209961,-155.3159942626953z"></path></g><g opacity="1" transform="matrix(1,0,0,1,0,0)"><path fill="rgb(254,84,81)" fill-opacity="1" d=" M-90.7979965209961,-155.3159942626953 C-145.34300231933594,-156.50100708007812 -168.80999755859375,-111.54199981689453 -170.9739990234375,-80.3280029296875 C-171.10400390625,-78.45999908447266 -171.1929931640625,-76.56099700927734 -171.24200439453125,-74.63200378417969 C-171.24099731445312,-74.6240005493164 -171.23500061035156,-74.61599731445312 -171.23500061035156,-74.60800170898438 C-165.197998046875,-85.98100280761719 -155.93600463867188,-97.2509994506836 -142.05299377441406,-107.29499816894531 C-103.08799743652344,-135.4980010986328 -49.88600158691406,-127.2979965209961 -20.143999099731445,-113.79100036621094 C-20.149999618530273,-113.7979965209961 -20.149999618530273,-113.81400299072266 -20.155000686645508,-113.8219985961914 C-35.49100112915039,-132.70599365234375 -59.882999420166016,-154.6439971923828 -90.7979965209961,-155.3159942626953z"></path></g><g opacity="1" transform="matrix(1,0,0,1,0,0)"><path fill="rgb(254,93,90)" fill-opacity="1" d=" M-90.7979965209961,-155.3159942626953 C-140.0709991455078,-156.38699340820312 -163.9810028076172,-119.802001953125 -169.73800659179688,-89.70999908447266 C-164.01600646972656,-97.25299835205078 -156.67300415039062,-104.58200073242188 -147.29400634765625,-111.36699676513672 C-108.8499984741211,-139.18600463867188 -57.07400131225586,-132.8679962158203 -25.552000045776367,-120.12799835205078 C-25.555999755859375,-120.13200378417969 -25.55699920654297,-120.14700317382812 -25.559999465942383,-120.1520004272461 C-40.95500183105469,-137.28799438476562 -63.29499816894531,-154.71800231933594 -90.7979965209961,-155.3159942626953z"></path></g><g opacity="1" transform="matrix(1,0,0,1,0,0)"><path fill="rgb(254,101,98)" fill-opacity="1" d=" M-30.958999633789062,-125.85700225830078 C-30.96299934387207,-125.86100006103516 -30.965999603271484,-125.86900329589844 -30.969999313354492,-125.87300109863281 C-46.005001068115234,-140.96600341796875 -66.36299896240234,-154.78500366210938 -90.7979965209961,-155.3159942626953 C-132.88999938964844,-156.2310028076172 -156.4709930419922,-129.66400146484375 -166.0399932861328,-103.14199829101562 C-161.9409942626953,-107.24099731445312 -157.29100036621094,-111.21800231933594 -152.01300048828125,-115.03600311279297 C-114.15899658203125,-142.4340057373047 -63.76900100708008,-137.76300048828125 -30.958999633789062,-125.85700225830078z"></path></g><g opacity="1" transform="matrix(1,0,0,1,0,0)"><path fill="rgb(254,109,106)" fill-opacity="1" d=" M-38.117000579833984,-132.5590057373047 C-38.117000579833984,-132.5590057373047 -38.11800003051758,-132.55999755859375 -38.11800003051758,-132.55999755859375 C-52.22800064086914,-144.82400512695312 -70.04100036621094,-154.86500549316406 -90.7979965209961,-155.3159942626953 C-124.76599884033203,-156.0540008544922 -146.67999267578125,-138.89500427246094 -158.9029998779297,-118.30500030517578 C-121.9540023803711,-145.0540008544922 -72.03700256347656,-143.2760009765625 -38.117000579833984,-132.5590057373047z"></path></g><g opacity="1" transform="matrix(1,0,0,1,0,0)"><path fill="rgb(254,116,114)" fill-opacity="1" d=" M-44.685001373291016,-137.87600708007812 C-44.6879997253418,-137.8780059814453 -44.6879997253418,-137.88299560546875 -44.691001892089844,-137.88499450683594 C-57.619998931884766,-147.61000061035156 -73.14399719238281,-154.9320068359375 -90.7979965209961,-155.3159942626953 C-118.43800354003906,-155.91700744628906 -138.09300231933594,-144.66600036621094 -151.04400634765625,-129.36099243164062 C-116.87799835205078,-148.32200622558594 -75.81199645996094,-146.52499389648438 -44.685001373291016,-137.87600708007812z"></path></g><g opacity="1" transform="matrix(1,0,0,1,0,0)"><path fill="rgb(254,123,121)" fill-opacity="1" d=" M-51.24300003051758,-142.44400024414062 C-51.24300003051758,-142.44400024414062 -51.24399948120117,-142.44400024414062 -51.24399948120117,-142.44400024414062 C-62.75899887084961,-149.8179931640625 -76.03299713134766,-154.9949951171875 -90.7979965209961,-155.3159942626953 C-112.89600372314453,-155.79600524902344 -129.89100646972656,-148.70199584960938 -142.43699645996094,-138.01699829101562 C-142.4409942626953,-138.01400756835938 -142.44200134277344,-138.00999450683594 -142.4459991455078,-138.0070037841797 C-112.3010025024414,-150.3249969482422 -78.60600280761719,-149.08999633789062 -51.24300003051758,-142.44400024414062z"></path></g><g opacity="1" transform="matrix(1,0,0,1,0,0)"><path fill="rgb(254,130,128)" fill-opacity="1" d=" M-58.891998291015625,-146.8560028076172 C-68.52200317382812,-151.81100463867188 -79.1989974975586,-155.06399536132812 -90.7979965209961,-155.3159942626953 C-107.30500030517578,-155.6750030517578 -120.96099853515625,-151.80299377441406 -132.04600524902344,-145.36900329589844 C-107.40899658203125,-152.26100158691406 -81.41799926757812,-151.4290008544922 -58.891998291015625,-146.8560028076172z"></path></g><g opacity="1" transform="matrix(1,0,0,1,0,0)"><path fill="rgb(254,136,134)" fill-opacity="1" d=" M-67.8499984741211,-150.83099365234375 C-84.1709976196289,-153.40499877929688 -101.90799713134766,-153.947998046875 -119.4489974975586,-151.12100219726562 C-111.052001953125,-153.9949951171875 -101.5250015258789,-155.54800415039062 -90.7979965209961,-155.31399536132812 C-82.677001953125,-155.13600158691406 -75.01799774169922,-153.49899291992188 -67.8499984741211,-150.83099365234375z"></path></g></g><g opacity="1" transform="matrix(1,0,0,1,0,0)"><path fill="rgb(221,18,33)" fill-opacity="1" d=" M-26.430999755859375,-137.71099853515625 C-82.26399993896484,-174.21099853515625 -55.00299835205078,-97.70600128173828 -55.00299835205078,-97.70600128173828 C-55.00299835205078,-97.70600128173828 -2.390000104904175,-87.08699798583984 -2.390000104904175,-87.08699798583984 C-2.390000104904175,-87.08699798583984 2,-119.125 -26.430999755859375,-137.71099853515625z"></path></g><g opacity="1" transform="matrix(1,0,0,1,0,0)"><path fill="rgb(254,21,18)" fill-opacity="1" d=" M-90.68099975585938,-155.58599853515625 C-157,-162.75 -156.7530059814453,-20.08099937438965 -156.7530059814453,-20.08099937438965 C-156.7530059814453,-20.08099937438965 -2.515000104904175,-86.83699798583984 -2.515000104904175,-86.83699798583984 C-2.515000104904175,-86.83699798583984 -24.76799964904785,-148.46600341796875 -90.68099975585938,-155.58599853515625z"></path></g><g opacity="1" transform="matrix(1,0,0,1,0,0)"><g opacity="1" transform="matrix(1,0,0,1,0,0)"><path fill="rgb(254,33,30)" fill-opacity="1" d=" M-90.7979965209961,-155.3159942626953 C-145.34300231933594,-156.50100708007812 -168.80999755859375,-111.54199981689453 -170.9739990234375,-80.3280029296875 C-172.5189971923828,-58.04100036621094 -168.7570037841797,-31.52199935913086 -149.78199768066406,1.6690000295639038 C-150.552001953125,-0.16599999368190765 -170.89599609375,-54.79499816894531 -121.00199890136719,-90.91400146484375 C-79.02799987792969,-121.2979965209961 -17.58799934387207,-101.94999694824219 -2.0139999389648438,-86.7490005493164 C-2.0139999389648438,-86.75 -2.013000011444092,-86.76000213623047 -2.013000011444092,-86.76399993896484 C-2.5390000343322754,-87.79199981689453 -36.67599868774414,-154.13999938964844 -90.7979965209961,-155.3159942626953z"></path></g><g opacity="1" transform="matrix(1,0,0,1,0,0)"><path fill="rgb(254,44,41)" fill-opacity="1" d=" M-90.7979965209961,-155.3159942626953 C-145.34300231933594,-156.50100708007812 -168.80999755859375,-111.54199981689453 -170.9739990234375,-80.3280029296875 C-172.5189971923828,-58.04100036621094 -168.7570037841797,-31.52199935913086 -149.78199768066406,1.6690000295639038 C-149.8300018310547,1.5540000200271606 -149.95399475097656,1.2330000400543213 -150.13400268554688,0.722000002861023 C-153.16799926757812,-4.638999938964844 -155.8159942626953,-9.831999778747559 -158.08099365234375,-14.85099983215332 C-160.88299560546875,-34.750999450683594 -159.1719970703125,-68.5989990234375 -124.44499969482422,-93.73200225830078 C-83.65599822998047,-123.25499725341797 -25.042999267578125,-107.20700073242188 -5.035999774932861,-92.14099884033203 C-5.038000106811523,-92.14399719238281 -5.038000106811523,-92.15399932861328 -5.039000034332275,-92.15699768066406 C-14.534000396728516,-108.18499755859375 -45.74100112915039,-154.33700561523438 -90.7979965209961,-155.3159942626953z"></path></g><g opacity="1" transform="matrix(1,0,0,1,0,0)"><path fill="rgb(254,55,52)" fill-opacity="1" d=" M-90.7979965209961,-155.3159942626953 C-145.34300231933594,-156.50100708007812 -168.80999755859375,-111.54199981689453 -170.9739990234375,-80.3280029296875 C-171.9969940185547,-65.5770034790039 -170.69200134277344,-48.96900177001953 -164.19500732421875,-29.80299949645996 C-163.947998046875,-50.020999908447266 -156.947998046875,-76.22899627685547 -128.54400634765625,-96.78399658203125 C-88.2030029296875,-125.98899841308594 -30.950000762939453,-111.98500061035156 -8.079999923706055,-97.08300018310547 C-8.079000473022461,-97.08399963378906 -8.07699966430664,-97.08499908447266 -8.076000213623047,-97.08599853515625 C-20.184999465942383,-116.02400207519531 -49.74100112915039,-154.4239959716797 -90.7979965209961,-155.3159942626953z"></path></g><g opacity="1" transform="matrix(1,0,0,1,0,0)"><path fill="rgb(254,65,62)" fill-opacity="1" d=" M-90.7979965209961,-155.3159942626953 C-145.34300231933594,-156.50100708007812 -168.80999755859375,-111.54199981689453 -170.9739990234375,-80.3280029296875 C-171.76600646972656,-68.91300201416016 -171.15499877929688,-56.38199996948242 -167.83299255371094,-42.41899871826172 C-167.83299255371094,-42.41899871826172 -167.83299255371094,-42.417999267578125 -167.83299255371094,-42.417999267578125 C-165.18800354003906,-60.97100067138672 -156.03399658203125,-82.20899963378906 -132.08299255371094,-99.53500366210938 C-92.16400146484375,-128.44000244140625 -36.150001525878906,-116.18800354003906 -11.038999557495117,-101.56700134277344 C-11.041000366210938,-101.56999969482422 -11.041000366210938,-101.5739974975586 -11.043000221252441,-101.5770034790039 C-24.61400032043457,-121.49099731445312 -52.77299880981445,-154.49000549316406 -90.7979965209961,-155.3159942626953z"></path></g><g opacity="1" transform="matrix(1,0,0,1,0,0)"><path fill="rgb(254,75,72)" fill-opacity="1" d=" M-90.7979965209961,-155.3159942626953 C-145.34300231933594,-156.50100708007812 -168.80999755859375,-111.54199981689453 -170.9739990234375,-80.3280029296875 C-171.43600463867188,-73.6719970703125 -171.41799926757812,-66.63500213623047 -170.6699981689453,-59.159000396728516 C-165.6540069580078,-74.27200317382812 -155.65499877929688,-89.98200225830078 -137.0780029296875,-103.41999816894531 C-97.6510009765625,-131.968994140625 -43.09299850463867,-121.85099792480469 -15.425000190734863,-107.72599792480469 C-15.428000450134277,-107.7300033569336 -15.428000450134277,-107.73699951171875 -15.430999755859375,-107.74099731445312 C-30.20800018310547,-127.62799835205078 -56.486000061035156,-154.57000732421875 -90.7979965209961,-155.3159942626953z"></path></g><g opacity="1" transform="matrix(1,0,0,1,0,0)"><path fill="rgb(254,84,81)" fill-opacity="1" d=" M-90.7979965209961,-155.3159942626953 C-145.34300231933594,-156.50100708007812 -168.80999755859375,-111.54199981689453 -170.9739990234375,-80.3280029296875 C-171.10400390625,-78.45999908447266 -171.1929931640625,-76.56099700927734 -171.24200439453125,-74.63200378417969 C-171.24099731445312,-74.6240005493164 -171.23500061035156,-74.61599731445312 -171.23500061035156,-74.60800170898438 C-165.197998046875,-85.98100280761719 -155.93600463867188,-97.2509994506836 -142.05299377441406,-107.29499816894531 C-103.08799743652344,-135.4980010986328 -49.88600158691406,-127.2979965209961 -20.143999099731445,-113.79100036621094 C-20.149999618530273,-113.7979965209961 -20.149999618530273,-113.81400299072266 -20.155000686645508,-113.8219985961914 C-35.49100112915039,-132.70599365234375 -59.882999420166016,-154.6439971923828 -90.7979965209961,-155.3159942626953z"></path></g><g opacity="1" transform="matrix(1,0,0,1,0,0)"><path fill="rgb(254,93,90)" fill-opacity="1" d=" M-90.7979965209961,-155.3159942626953 C-140.0709991455078,-156.38699340820312 -163.9810028076172,-119.802001953125 -169.73800659179688,-89.70999908447266 C-164.01600646972656,-97.25299835205078 -156.67300415039062,-104.58200073242188 -147.29400634765625,-111.36699676513672 C-108.8499984741211,-139.18600463867188 -57.07400131225586,-132.8679962158203 -25.552000045776367,-120.12799835205078 C-25.555999755859375,-120.13200378417969 -25.55699920654297,-120.14700317382812 -25.559999465942383,-120.1520004272461 C-40.95500183105469,-137.28799438476562 -63.29499816894531,-154.71800231933594 -90.7979965209961,-155.3159942626953z"></path></g><g opacity="1" transform="matrix(1,0,0,1,0,0)"><path fill="rgb(254,101,98)" fill-opacity="1" d=" M-30.958999633789062,-125.85700225830078 C-30.96299934387207,-125.86100006103516 -30.965999603271484,-125.86900329589844 -30.969999313354492,-125.87300109863281 C-46.005001068115234,-140.96600341796875 -66.36299896240234,-154.78500366210938 -90.7979965209961,-155.3159942626953 C-132.88999938964844,-156.2310028076172 -156.4709930419922,-129.66400146484375 -166.0399932861328,-103.14199829101562 C-161.9409942626953,-107.24099731445312 -157.29100036621094,-111.21800231933594 -152.01300048828125,-115.03600311279297 C-114.15899658203125,-142.4340057373047 -63.76900100708008,-137.76300048828125 -30.958999633789062,-125.85700225830078z"></path></g><g opacity="1" transform="matrix(1,0,0,1,0,0)"><path fill="rgb(254,109,106)" fill-opacity="1" d=" M-38.117000579833984,-132.5590057373047 C-38.117000579833984,-132.5590057373047 -38.11800003051758,-132.55999755859375 -38.11800003051758,-132.55999755859375 C-52.22800064086914,-144.82400512695312 -70.04100036621094,-154.86500549316406 -90.7979965209961,-155.3159942626953 C-124.76599884033203,-156.0540008544922 -146.67999267578125,-138.89500427246094 -158.9029998779297,-118.30500030517578 C-121.9540023803711,-145.0540008544922 -72.03700256347656,-143.2760009765625 -38.117000579833984,-132.5590057373047z"></path></g><g opacity="1" transform="matrix(1,0,0,1,0,0)"><path fill="rgb(254,116,114)" fill-opacity="1" d=" M-44.685001373291016,-137.87600708007812 C-44.6879997253418,-137.8780059814453 -44.6879997253418,-137.88299560546875 -44.691001892089844,-137.88499450683594 C-57.619998931884766,-147.61000061035156 -73.14399719238281,-154.9320068359375 -90.7979965209961,-155.3159942626953 C-118.43800354003906,-155.91700744628906 -138.09300231933594,-144.66600036621094 -151.04400634765625,-129.36099243164062 C-116.87799835205078,-148.32200622558594 -75.81199645996094,-146.52499389648438 -44.685001373291016,-137.87600708007812z"></path></g><g opacity="1" transform="matrix(1,0,0,1,0,0)"><path fill="rgb(254,123,121)" fill-opacity="1" d=" M-51.24300003051758,-142.44400024414062 C-51.24300003051758,-142.44400024414062 -51.24399948120117,-142.44400024414062 -51.24399948120117,-142.44400024414062 C-62.75899887084961,-149.8179931640625 -76.03299713134766,-154.9949951171875 -90.7979965209961,-155.3159942626953 C-112.89600372314453,-155.79600524902344 -129.89100646972656,-148.70199584960938 -142.43699645996094,-138.01699829101562 C-142.4409942626953,-138.01400756835938 -142.44200134277344,-138.00999450683594 -142.4459991455078,-138.0070037841797 C-112.3010025024414,-150.3249969482422 -78.60600280761719,-149.08999633789062 -51.24300003051758,-142.44400024414062z"></path></g><g opacity="1" transform="matrix(1,0,0,1,0,0)"><path fill="rgb(254,130,128)" fill-opacity="1" d=" M-58.891998291015625,-146.8560028076172 C-68.52200317382812,-151.81100463867188 -79.1989974975586,-155.06399536132812 -90.7979965209961,-155.3159942626953 C-107.30500030517578,-155.6750030517578 -120.96099853515625,-151.80299377441406 -132.04600524902344,-145.36900329589844 C-107.40899658203125,-152.26100158691406 -81.41799926757812,-151.4290008544922 -58.891998291015625,-146.8560028076172z"></path></g><g opacity="1" transform="matrix(1,0,0,1,0,0)"><path fill="rgb(254,136,134)" fill-opacity="1" d=" M-67.8499984741211,-150.83099365234375 C-84.1709976196289,-153.40499877929688 -101.90799713134766,-153.947998046875 -119.4489974975586,-151.12100219726562 C-111.052001953125,-153.9949951171875 -101.5250015258789,-155.54800415039062 -90.7979965209961,-155.31399536132812 C-82.677001953125,-155.13600158691406 -75.01799774169922,-153.49899291992188 -67.8499984741211,-150.83099365234375z"></path></g></g><g opacity="1" transform="matrix(1,0,0,1,0,0)"><path stroke-linecap="round" stroke-linejoin="round" fill-opacity="0" stroke="rgb(155,0,22)" stroke-opacity="1" stroke-width="0" d=" M-10.687999725341797,-133.25 C-8.291999816894531,-130.08299255371094 -3.875,-123.75 -1.75,-119.625"></path></g></g><g style="display: none;"><g><path stroke-linecap="round" stroke-linejoin="round" fill-opacity="0"></path></g><g><path></path></g><g><g><path></path></g><g><path></path></g></g><g><g><path></path></g><g><path></path></g><g><path></path></g><g><path></path></g><g><path></path></g><g><path></path></g><g><path></path></g><g><path></path></g><g><path></path></g><g><path></path></g><g><path></path></g><g><path></path></g><g><path></path></g></g><g><path></path></g><g><path></path></g><g><g><path></path></g><g><path></path></g><g><path></path></g><g><path></path></g><g><path></path></g><g><path></path></g><g><path></path></g><g><path></path></g><g><path></path></g><g><path></path></g><g><path></path></g><g><path></path></g><g><path></path></g></g><g><path stroke-linecap="round" stroke-linejoin="round" fill-opacity="0"></path></g></g><g style="display: block;" transform="matrix(1,0,0,1,256,256)" opacity="1"><g opacity="1" transform="matrix(1,0,0,1,0,0)"><g opacity="1" transform="matrix(1,0,0,1,0,0)"><path stroke-linecap="round" stroke-linejoin="round" fill-opacity="0" stroke="rgb(255,255,255)" stroke-opacity="1" stroke-width="6" d=" M123.29399871826172,-141.21600341796875 C124.36299896240234,-140.5659942626953 125.43000030517578,-139.86099243164062 126.48100280761719,-139.0970001220703"></path></g><g opacity="1" transform="matrix(1,0,0,1,0,0)"><path stroke-linecap="round" stroke-linejoin="round" fill-opacity="0" stroke="rgb(255,255,255)" stroke-opacity="1" stroke-width="6" d=" M104.36199951171875,-148.38800048828125 C104.36199951171875,-148.38800048828125 108.39399719238281,-148.04200744628906 114.83100128173828,-145.3730010986328"></path></g></g></g></g></g></svg>