<svg xmlns="http://www.w3.org/2000/svg" viewBox="0 0 480 608" width="480" height="608" style="width: 100%; height: 100%; transform: translate3d(0,0,0);" preserveAspectRatio="xMidYMid meet"><defs><clipPath id="__lottie_element_27033"><rect width="480" height="608" x="0" y="0"></rect></clipPath></defs><g clip-path="url(#__lottie_element_27033)"><g style="display: block;" transform="matrix(1,0,0,1,257.41259765625,283.6444091796875)" opacity="1"><g opacity="1" transform="matrix(1,0,0,1,0,0)"><g opacity="1" transform="matrix(1,0,0,1,0,0)"><path fill="rgb(255,177,57)" fill-opacity="1" d=" M-92.41400146484375,-38.029998779296875 C-92.41400146484375,-38.029998779296875 -105.68699645996094,-18.358999252319336 -145.14700317382812,-21.773000717163086 C-177.30099487304688,-24.55500030517578 -199.71299743652344,53.124000549316406 -182.98500061035156,111.84400177001953 C-170.78199768066406,154.67999267578125 -145.25799560546875,169.4499969482422 -123.48500061035156,163.9810028076172 C-111.23500061035156,160.9040069580078 -93.58100128173828,157.12399291992188 -85.17500305175781,158.54200744628906 C-19.225000381469727,169.6649932861328 2.86299991607666,-81.9000015258789 -92.41400146484375,-38.029998779296875z"></path></g><g opacity="1" transform="matrix(1,0,0,1,0,0)"><path stroke-linecap="round" stroke-linejoin="round" fill-opacity="0" stroke="rgb(247,126,65)" stroke-opacity="1" stroke-width="8" d=" M-92.41400146484375,-38.029998779296875 C-92.41400146484375,-38.029998779296875 -105.68699645996094,-18.358999252319336 -145.14700317382812,-21.773000717163086 C-177.30099487304688,-24.55500030517578 -199.71299743652344,53.124000549316406 -182.98500061035156,111.84400177001953 C-170.78199768066406,154.67999267578125 -145.25799560546875,169.4499969482422 -123.48500061035156,163.9810028076172 C-111.23500061035156,160.9040069580078 -93.58100128173828,157.12399291992188 -85.17500305175781,158.54200744628906 C-19.225000381469727,169.6649932861328 2.86299991607666,-81.9000015258789 -92.41400146484375,-38.029998779296875z"></path></g><g opacity="1" transform="matrix(1,0,0,1,0,0)"><path fill="rgb(255,209,64)" fill-opacity="1" d=" M-122.73200225830078,-5.302999973297119 C-126.06300354003906,-6.993000030517578 -143.26499938964844,-9.901000022888184 -150.76100158691406,0.4779999852180481 C-158.2570037841797,10.857000350952148 -164.88900756835938,23.83099937438965 -168.05999755859375,42.85900115966797 C-171.2310028076172,61.887001037597656 -172.23699951171875,84.48600006103516 -164.88900756835938,92.4469985961914 C-157.97000122070312,99.94300079345703 -124.23699951171875,99.65499877929688 -117.60600280761719,92.4469985961914 C-110.9749984741211,85.23899841308594 -119.47799682617188,63.24599838256836 -121.64299774169922,44.59199905395508 C-125.39099884033203,12.29800033569336 -116.10099792480469,-1.9390000104904175 -122.73200225830078,-5.302999973297119z"></path></g></g></g><g style="display: block;" transform="matrix(1,0,0,1,257.41259765625,283.6444091796875)" opacity="1"><g opacity="1" transform="matrix(1,0,0,1,0,0)"><path fill="rgb(255,209,64)" fill-opacity="1" d=" M-105.47100067138672,55.31399917602539 C-105.47100067138672,55.31399917602539 -122.14299774169922,5.840000152587891 -86.80799865722656,-47.1619987487793 C-51.472999572753906,-100.16400146484375 -18.819000244140625,-110.71499633789062 -13.251999855041504,-133.19400024414062 C-4.302000045776367,-169.3350067138672 -23.211000442504883,-202.58299255371094 -1.4179999828338623,-214.61700439453125 C23.136999130249023,-228.17599487304688 54.35100173950195,-200.52499389648438 57.83100128173828,-158.31500244140625 C61.35900115966797,-115.5270004272461 35.54899978637695,-90.09200286865234 38.89500045776367,-67.0479965209961 C42.24100112915039,-44.00400161743164 79.53900146484375,-53.33399963378906 112.39700317382812,-49.97800064086914 C152.51100158691406,-45.88100051879883 177.26199340820312,-39.053001403808594 170.60499572753906,37.76100158691406 C163.947998046875,114.57499694824219 138.51400756835938,175.75900268554688 67.33300018310547,182.41600036621094 C-3.8480000495910645,189.072998046875 -53.21799850463867,183.45599365234375 -85.17500305175781,158.54200744628906 C-85.17500305175781,158.54200744628906 -105.47100067138672,55.31399917602539 -105.47100067138672,55.31399917602539z"></path></g><g opacity="1" transform="matrix(1,0,0,1,0,0)"><path fill="rgb(255,223,121)" fill-opacity="1" d=" M170.0500030517578,-7.21999979019165 C168.44700622558594,-10.20199966430664 166.47300720214844,-13.307999610900879 164.07400512695312,-16.54800033569336 C155.74400329589844,-27.770999908447266 142.3679962158203,-30.00200080871582 128.20700073242188,-32.89500045776367 C109.48300170898438,-36.71799850463867 90.3219985961914,-32.21200180053711 73.53800201416016,-36.71900177001953 C54.220001220703125,-41.89899826049805 65.13999938964844,-51.09199905395508 65.13999938964844,-51.09199905395508 C65.13999938964844,-51.09199905395508 65.1510009765625,-51.09199905395508 65.1510009765625,-51.09199905395508 C65.16200256347656,-51.09199905395508 65.16300201416016,-51.09199905395508 65.17400360107422,-51.09199905395508 C66.30599975585938,-51.013999938964844 67.46099853515625,-50.95800018310547 68.63800048828125,-50.92399978637695 C74.52400207519531,-50.68899917602539 80.9489974975586,-50.78900146484375 87.58599853515625,-50.823001861572266 C92.21600341796875,-50.845001220703125 96.9489974975586,-50.834999084472656 101.68000030517578,-50.678001403808594 C103.10399627685547,-50.62200164794922 104.51599884033203,-50.566001892089844 105.94000244140625,-50.47600173950195 C106.64600372314453,-50.44200134277344 107.35299682617188,-50.38600158691406 108.05899810791016,-50.340999603271484 C108.06999969482422,-50.340999603271484 108.07099914550781,-50.340999603271484 108.08200073242188,-50.340999603271484 C109.52799987792969,-50.250999450683594 110.96299743652344,-50.12799835205078 112.39800262451172,-49.981998443603516 C142.6479949951172,-46.88800048828125 164.1529998779297,-42.24599838256836 170.0500030517578,-7.21999979019165z"></path></g><g opacity="1" transform="matrix(1,0,0,1,0,0)"><path fill="rgb(255,177,57)" fill-opacity="1" d=" M170.61000061035156,37.762001037597656 C163.9499969482422,114.57499694824219 138.50999450683594,175.75799560546875 67.33699798583984,182.41799926757812 C-3.8469998836517334,189.0780029296875 -53.2130012512207,183.46099853515625 -85.1780014038086,158.53700256347656 C-85.1780014038086,158.53700256347656 -105.47200012207031,55.31999969482422 -105.47200012207031,55.31999969482422 C-105.47200012207031,55.31999969482422 -122.14399719238281,5.8420000076293945 -86.80400085449219,-47.15700149536133 C-51.474998474121094,-100.16699981689453 -18.815000534057617,-110.71700286865234 -13.253999710083008,-133.19700622558594 C-4.307000160217285,-169.33299255371094 -23.209999084472656,-202.58799743652344 -1.4140000343322754,-214.6179962158203 C1.4110000133514404,-216.17599487304688 9.15999984741211,-217.95700073242188 14.72599983215332,-218.0919952392578 C14.72599983215332,-218.0919952392578 -4.558000087738037,-218.0919952392578 -1.0980000495910645,-178.3040008544922 C1.4739999771118164,-148.7259979248047 7.281000137329102,-132.49600219726562 -12.088000297546387,-106.35600280761719 C-27.742000579833984,-85.2300033569336 -72.02200317382812,-58.88199996948242 -88.93399810791016,-10.258999824523926 C-101.83999633789062,26.844999313354492 -94.68299865722656,59.67399978637695 -85.50299835205078,74.31300354003906 C-78.10800170898438,86.1050033569336 -95.50499725341797,98.09300231933594 -71.66799926757812,119.8219985961914 C-47.83100128173828,141.55099487304688 1.2430000305175781,140.6649932861328 4.191999912261963,133.80299377441406 C7.130000114440918,126.9530029296875 -4.590000152587891,119.8270034790039 0.3109999895095825,92.73600006103516 C3.2829999923706055,76.31099700927734 -33.99599838256836,93.14900207519531 -51.676998138427734,88.9219970703125 C-69.35800170898438,84.69499969482422 -21.882999420166016,84.52899932861328 6.918000221252441,46.5989990234375 C17.128000259399414,33.152000427246094 7.116000175476074,29.70599937438965 27.892000198364258,-4.9120001792907715 C45.189998626708984,-33.73500061035156 20.118000030517578,-69.76899719238281 42.16899871826172,-90.51100158691406 C40.93600082397461,-85.52200317382812 38.220001220703125,-71.72200012207031 38.893001556396484,-67.0469970703125 C40.194000244140625,-58.111000061035156 46.59600067138672,-54.04100036621094 55.87900161743164,-52.224998474121094 C55.87900161743164,-52.2140007019043 55.87900161743164,-52.2140007019043 55.87900161743164,-52.2140007019043 C55.87900161743164,-52.2140007019043 45.57600021362305,-42.51499938964844 57.97600173950195,-33.57899856567383 C70.36499786376953,-24.631999969482422 115.9219970703125,-28.738000869750977 138.79100036621094,-26.718000411987305 C147.1300048828125,-25.98200035095215 159.58900451660156,-14.956999778747559 171.11500549316406,1.277999997138977 C172.00100708007812,11.244999885559082 171.86599731445312,23.253999710083008 170.61000061035156,37.762001037597656z"></path></g><g opacity="1" transform="matrix(1,0,0,1,0,0)"><path fill="rgb(255,223,121)" fill-opacity="1" d=" M32.75600051879883,-210.2259979248047 C32.75600051879883,-210.2259979248047 18.761999130249023,-220.07699584960938 11.843000411987305,-208.25599670410156 C4.923999786376953,-196.43499755859375 5.500999927520752,-166.45199584960938 16.167999267578125,-139.06300354003906 C26.834999084472656,-111.67400360107422 47.51900100708008,-103.7030029296875 54.042999267578125,-121.81500244140625 C60.56700134277344,-139.927001953125 64.33599853515625,-183.5189971923828 32.75600051879883,-210.2259979248047z"></path></g><g opacity="1" transform="matrix(1,0,0,1,0,0)"><path stroke-linecap="round" stroke-linejoin="round" fill-opacity="0" stroke="rgb(247,126,65)" stroke-opacity="1" stroke-width="8" d=" M-105.47100067138672,55.31399917602539 C-105.47100067138672,55.31399917602539 -122.14299774169922,5.840000152587891 -86.80799865722656,-47.1619987487793 C-51.472999572753906,-100.16400146484375 -18.819000244140625,-110.71499633789062 -13.251999855041504,-133.19400024414062 C-4.302000045776367,-169.3350067138672 -23.211000442504883,-202.58299255371094 -1.4179999828338623,-214.61700439453125 C23.136999130249023,-228.17599487304688 54.35100173950195,-200.52499389648438 57.83100128173828,-158.31500244140625 C61.35900115966797,-115.5270004272461 35.54899978637695,-88.97100067138672 38.89500045776367,-65.927001953125 C42.24100112915039,-42.882999420166016 79.53900146484375,-53.33399963378906 112.39700317382812,-49.97800064086914 C152.51100158691406,-45.88100051879883 177.26199340820312,-39.053001403808594 170.60499572753906,37.76100158691406 C163.947998046875,114.57499694824219 138.51400756835938,175.75900268554688 67.33300018310547,182.41600036621094 C-3.8480000495910645,189.072998046875 -53.21799850463867,183.45599365234375 -85.17500305175781,158.54200744628906"></path></g><g opacity="1" transform="matrix(1,0,0,1,0,0)"><path fill="rgb(255,223,121)" fill-opacity="1" d=" M3.194000005722046,15.821999549865723 C10.081999778747559,1.7610000371932983 10.017000198364258,-11.055000305175781 7.9029998779296875,-12.97700023651123 C4.826000213623047,-15.77400016784668 -4.855999946594238,11.538999557495117 -29.768999099731445,36.22800064086914 C-51.104000091552734,57.369998931884766 -60.13999938964844,60.638999938964844 -60.52399826049805,64.5780029296875 C-60.90800094604492,68.51699829101562 -20.735000610351562,64.67400360107422 3.194000005722046,15.821999549865723z"></path></g><g opacity="1" transform="matrix(1,0,0,1,0,0)"><g opacity="1" transform="matrix(1,0,0,1,0,0)"><path stroke-linecap="round" stroke-linejoin="round" fill-opacity="0" stroke="rgb(255,255,255)" stroke-opacity="1" stroke-width="6" d=" M34.89500045776367,-182.53500366210938 C37.095001220703125,-177.8280029296875 39.00699996948242,-171.90699768066406 39.981998443603516,-164.593994140625"></path></g><g opacity="1" transform="matrix(1,0,0,1,0,0)"><path stroke-linecap="round" stroke-linejoin="round" fill-opacity="0" stroke="rgb(255,255,255)" stroke-opacity="1" stroke-width="6" d=" M23.016000747680664,-197.9199981689453 C23.016000747680664,-197.9199981689453 24.94300079345703,-196.66900634765625 27.524999618530273,-193.8159942626953"></path></g></g></g><g style="display: block;" transform="matrix(1,0,0,1,257.41259765625,283.6444091796875)" opacity="1"><g opacity="1" transform="matrix(1,0,0,1,0,0)"><path fill="rgb(255,209,64)" fill-opacity="1" d=" M42.92300033569336,134.31900024414062 C34.7859992980957,131.8070068359375 26.364999771118164,138.6439971923828 25.336999893188477,151.4459991455078 C24.608999252319336,160.51600646972656 30.87700080871582,170.177001953125 35.58100128173828,174.61500549316406 C40.28499984741211,179.05299377441406 53.685001373291016,189.26699829101562 66.9990005493164,191.9980010986328 C80.31300354003906,194.72900390625 109.49500274658203,197.56399536132812 132.7100067138672,187.66299438476562 C155.9250030517578,177.76199340820312 159.67999267578125,150.76400756835938 152.51100158691406,139.83900451660156 C145.3419952392578,128.91400146484375 117.00599670410156,157.1929931640625 42.92300033569336,134.31900024414062z"></path></g><g opacity="1" transform="matrix(1,0,0,1,0,0)"><path fill="rgb(255,223,121)" fill-opacity="1" d=" M132.71400451660156,187.6649932861328 C127.93800354003906,189.70599365234375 122.90299987792969,191.19700622558594 117.802001953125,192.26199340820312 C146.1790008544922,175.30999755859375 143.89199829101562,143.77099609375 143.89199829101562,143.77099609375 C144.01499938964844,141.46099853515625 144.21800231933594,139.3300018310547 144.4980010986328,137.35699462890625 C148.35499572753906,136.93099975585938 150.94400024414062,137.44700622558594 152.51400756835938,139.8350067138672 C159.67799377441406,150.76699829101562 155.92300415039062,177.76499938964844 132.71400451660156,187.6649932861328z"></path></g><g opacity="1" transform="matrix(1,0,0,1,0,0)"><path fill="rgb(255,177,57)" fill-opacity="1" d=" M155.13800048828125,146.4499969482422 C155.13800048828125,146.4499969482422 151.38400268554688,160.19900512695312 128.99200439453125,165.072998046875 C103.39299774169922,170.64500427246094 80.0770034790039,163.0749969482422 75.55599975585938,176.1510009765625 C72.0999984741211,186.14700317382812 81.63200378417969,191.58999633789062 91.55500030517578,194.56100463867188 C81.56500244140625,194.39300537109375 72.78600311279297,193.18099975585938 67.0009994506836,191.9929962158203 C53.680999755859375,189.26800537109375 40.28300094604492,179.05499267578125 35.584999084472656,174.61500549316406 C30.875999450683594,170.1750030517578 24.608999252319336,160.52099609375 25.33799934387207,151.4510040283203 C26.368999481201172,138.64700317382812 34.78900146484375,131.8070068359375 42.917999267578125,134.31900024414062 C117.00599670410156,157.1909942626953 145.33799743652344,128.9149932861328 152.51400756835938,139.8350067138672 C153.67999267578125,141.6179962158203 154.55499267578125,143.8159942626953 155.10400390625,146.30499267578125 C155.11500549316406,146.35000610351562 155.1269989013672,146.40499877929688 155.13800048828125,146.4499969482422z"></path></g><g opacity="1" transform="matrix(1,0,0,1,0,0)"><path stroke-linecap="round" stroke-linejoin="round" fill-opacity="0" stroke="rgb(247,126,65)" stroke-opacity="1" stroke-width="8" d=" M42.92300033569336,134.31900024414062 C34.7859992980957,131.8070068359375 26.364999771118164,138.6439971923828 25.336999893188477,151.4459991455078 C24.608999252319336,160.51600646972656 30.87700080871582,170.177001953125 35.58100128173828,174.61500549316406 C40.28499984741211,179.05299377441406 53.685001373291016,189.26699829101562 66.9990005493164,191.9980010986328 C80.31300354003906,194.72900390625 109.49500274658203,197.56399536132812 132.7100067138672,187.66299438476562 C155.9250030517578,177.76199340820312 159.67999267578125,150.76400756835938 152.51100158691406,139.83900451660156 C145.3419952392578,128.91400146484375 117.00599670410156,157.1929931640625 42.92300033569336,134.31900024414062z"></path></g></g><g style="display: block;" transform="matrix(1,0,0,1,257.41259765625,283.6444091796875)" opacity="1"><g opacity="1" transform="matrix(1,0,0,1,0,0)"><path fill="rgb(255,209,64)" fill-opacity="1" d=" M49.06800079345703,84.8740005493164 C40.63199996948242,83.22100067138672 26.445999145507812,87.12799835205078 23.80500030517578,103.99199676513672 C21.586000442504883,118.16000366210938 28.17099952697754,128.11099243164062 41.82699966430664,138.86500549316406 C58.00199890136719,151.60299682617188 75.69200134277344,154.1820068359375 86.25199890136719,154.88900756835938 C100.9739990234375,155.875 132.03199768066406,153.88099670410156 152.51100158691406,147.3780059814453 C171.68299865722656,141.2899932861328 177.88800048828125,125.85299682617188 178.4290008544922,117.16400146484375 C179.48199462890625,100.26499938964844 174.70199584960938,86.23999786376953 155.58399963378906,84.8740005493164 C127.59200286865234,82.875 117.00599670410156,98.18800354003906 49.06800079345703,84.8740005493164z"></path></g><g opacity="1" transform="matrix(1,0,0,1,0,0)"><path fill="rgb(255,223,121)" fill-opacity="1" d=" M178.4250030517578,117.16500091552734 C177.9429931640625,124.91200256347656 172.96499633789062,138.031005859375 158.3000030517578,145.08299255371094 C173.8730010986328,118.14099884033203 158.3000030517578,93.21600341796875 158.3000030517578,93.21600341796875 C158.3000030517578,93.21600341796875 156.60699462890625,84.96399688720703 156.60699462890625,84.96399688720703 C174.87100219726562,86.74700164794922 179.45599365234375,100.57099914550781 178.4250030517578,117.16500091552734z"></path></g><g opacity="1" transform="matrix(1,0,0,1,0,0)"><path fill="rgb(255,177,57)" fill-opacity="1" d=" M171.1820068359375,90.95099639892578 C169.9149932861328,96.80400085449219 165.4290008544922,107.47899627685547 150.89999389648438,112.75900268554688 C121.11199951171875,123.58499908447266 91.7040023803711,111.76399993896484 79.79199981689453,124.19100189208984 C69.43099975585938,135 76.34400177001953,153.7550048828125 90.53500366210938,155.08399963378906 C88.98799896240234,155.03900146484375 87.56400299072266,154.98300170898438 86.25199890136719,154.89300537109375 C75.69000244140625,154.18699645996094 57.99800109863281,151.60800170898438 41.83000183105469,138.86000061035156 C28.173999786376953,128.10800170898438 21.582000732421875,118.16300201416016 23.802000045776367,103.99099731445312 C26.447999954223633,87.12799835205078 40.630001068115234,83.21499633789062 49.073001861572266,84.8740005493164 C117.00599670410156,98.18299865722656 127.58999633789062,82.87799835205078 155.58599853515625,84.8740005493164 C162.55999755859375,85.37899780273438 167.61700439453125,87.55400085449219 171.1820068359375,90.95099639892578z"></path></g><g opacity="1" transform="matrix(1,0,0,1,0,0)"><path stroke-linecap="round" stroke-linejoin="round" fill-opacity="0" stroke="rgb(247,126,65)" stroke-opacity="1" stroke-width="8" d=" M49.06800079345703,84.8740005493164 C40.63199996948242,83.22100067138672 26.445999145507812,87.12799835205078 23.80500030517578,103.99199676513672 C21.586000442504883,118.16000366210938 28.17099952697754,128.11099243164062 41.82699966430664,138.86500549316406 C58.00199890136719,151.60299682617188 75.69200134277344,154.1820068359375 86.25199890136719,154.88900756835938 C100.9739990234375,155.875 132.03199768066406,153.88099670410156 152.51100158691406,147.3780059814453 C171.68299865722656,141.2899932861328 177.88800048828125,125.85299682617188 178.4290008544922,117.16400146484375 C179.48199462890625,100.26499938964844 174.70199584960938,86.23999786376953 155.58399963378906,84.8740005493164 C127.59200286865234,82.875 117.00599670410156,98.18800354003906 49.06800079345703,84.8740005493164z"></path></g></g><g style="display: block;" transform="matrix(1,0,0,1,257.41259765625,283.6444091796875)" opacity="1"><g opacity="1" transform="matrix(1,0,0,1,0,0)"><path fill="rgb(255,209,64)" fill-opacity="1" d=" M67.84500122070312,33.323001861572266 C52.81399917602539,32.44499969482422 27.68600082397461,37.41699981689453 25.511999130249023,61.68600082397461 C23.334999084472656,85.98400115966797 52.82400131225586,97.84700012207031 67.84500122070312,102.28500366210938 C82.86599731445312,106.7229995727539 115.64099884033203,106.7229995727539 130.66200256347656,104.67500305175781 C145.68299865722656,102.62699890136719 176.0679931640625,95.48500061035156 186.30999755859375,82.1709976196289 C196.552001953125,68.85700225830078 200.3070068359375,35.05799865722656 167.5330047607422,24.475000381469727 C134.75900268554688,13.892000198364258 120.41999816894531,36.395999908447266 67.84500122070312,33.323001861572266z"></path></g><g opacity="1" transform="matrix(1,0,0,1,0,0)"><path fill="rgb(255,223,121)" fill-opacity="1" d=" M186.3070068359375,82.1719970703125 C182.98800659179688,86.48899841308594 171.59500122070312,92.7490005493164 165.23800659179688,95.80999755859375 C191.71400451660156,71.19000244140625 167.52699279785156,40.52000045776367 167.52699279785156,40.52000045776367 C167.52699279785156,40.52000045776367 160.50900268554688,22.648000717163086 160.50900268554688,22.648000717163086 C162.76300048828125,23.084999084472656 165.10499572753906,23.69099998474121 167.53799438476562,24.47599983215332 C200.30999755859375,35.060001373291016 196.55499267578125,68.85199737548828 186.3070068359375,82.1719970703125z"></path></g><g opacity="1" transform="matrix(1,0,0,1,0,0)"><path fill="rgb(255,177,57)" fill-opacity="1" d=" M178.5709991455078,31.079999923706055 C178.5709991455078,31.079999923706055 175.50999450683594,54.17599868774414 138.98199462890625,59.82699966430664 C102.46499633789062,65.47799682617188 94.77999877929688,63.80799865722656 88.24800109863281,77.74400329589844 C83.90699768066406,87.00599670410156 84.78500366210938,105.99700164794922 110.61599731445312,105.9530029296875 C95.43499755859375,106.21099853515625 77.76499938964844,105.2249984741211 67.84200286865234,102.28700256347656 C52.81800079345703,97.84700012207031 23.33099937438965,85.98400115966797 25.517000198364258,61.6879997253418 C27.680999755859375,37.41400146484375 52.81800079345703,32.446998596191406 67.84200286865234,33.321998596191406 C120.41500091552734,36.39400100708008 134.75399780273438,13.892000198364258 167.53799438476562,24.47599983215332 C171.76499938964844,25.8439998626709 175.37600708007812,27.591999053955078 178.447998046875,29.632999420166016 C178.51499938964844,30.104000091552734 178.55999755859375,30.586999893188477 178.5709991455078,31.079999923706055z"></path></g><g opacity="1" transform="matrix(1,0,0,1,0,0)"><path stroke-linecap="round" stroke-linejoin="round" fill-opacity="0" stroke="rgb(247,126,65)" stroke-opacity="1" stroke-width="8" d=" M67.84500122070312,33.323001861572266 C52.81399917602539,32.44499969482422 27.68600082397461,37.41699981689453 25.511999130249023,61.68600082397461 C23.334999084472656,85.98400115966797 52.82400131225586,97.84700012207031 67.84500122070312,102.28500366210938 C82.86599731445312,106.7229995727539 115.64099884033203,106.7229995727539 130.66200256347656,104.67500305175781 C145.68299865722656,102.62699890136719 176.0679931640625,95.48500061035156 186.30999755859375,82.1709976196289 C196.552001953125,68.85700225830078 200.3070068359375,35.05799865722656 167.5330047607422,24.475000381469727 C134.75900268554688,13.892000198364258 120.41999816894531,36.395999908447266 67.84500122070312,33.323001861572266z"></path></g></g><g style="display: block;" transform="matrix(1,0,0,1,257.41259765625,283.6444091796875)" opacity="1"><g opacity="1" transform="matrix(1,0,0,1,0,0)"><path fill="rgb(255,209,64)" fill-opacity="1" d=" M107.55500030517578,-50.35900115966797 C140.5240020751953,-49.303001403808594 182.5050048828125,-38.676998138427734 187.30499267578125,-8.440999984741211 C192.5399932861328,24.531999588012695 179.93600463867188,34.69599914550781 157.29100036621094,41.858001708984375 C132.36900329589844,49.7400016784668 89.09300231933594,52.801998138427734 58.96900177001953,46.32400131225586 C27.2189998626709,39.49599838256836 26.87700080871582,7.320000171661377 44.28799819946289,-4.629000186920166 C61.69900131225586,-16.577999114990234 89.43900299072266,-14.538999557495117 98.31500244140625,-14.472999572753906 C109.83699798583984,-14.387999534606934 124.68699645996094,-23.0939998626709 143.72000122070312,-23.69099998474121 C143.72000122070312,-23.69099998474121 107.55500030517578,-50.35900115966797 107.55500030517578,-50.35900115966797z"></path></g><g opacity="1" transform="matrix(1,0,0,1,0,0)"><path fill="rgb(255,223,121)" fill-opacity="1" d=" M168.72500610351562,37.47200012207031 C168.72500610351562,37.47200012207031 155.3459930419922,40.516998291015625 155.3459930419922,40.516998291015625 C178.5659942626953,33.055999755859375 177.68299865722656,0.5090000033378601 168.16900634765625,-12.175999641418457 C159.7830047607422,-23.357999801635742 142.47999572753906,-30.641000747680664 128.20700073242188,-32.89500045776367 C108.38400268554688,-36.02299880981445 108.05899810791016,-50.340999603271484 108.05899810791016,-50.340999603271484 C140.9550018310547,-49.18600082397461 182.5290069580078,-38.52399826049805 187.30499267578125,-8.442000389099121 C191.38600158691406,17.256000518798828 182.6280059814453,30.106000900268555 168.72500610351562,37.47200012207031z"></path></g><g opacity="1" transform="matrix(1,0,0,1,0,0)"><path fill="rgb(255,177,57)" fill-opacity="1" d=" M126.8280029296875,48.020999908447266 C104.5270004272461,50.71200180053711 78.8740005493164,50.599998474121094 58.972999572753906,46.327999114990234 C27.22100067138672,39.5 26.874000549316406,7.322000026702881 44.2859992980957,-4.630000114440918 C61.698001861572266,-16.582000732421875 93.10600280761719,-14.779000282287598 101.98600006103516,-14.711999893188477 C101.98600006103516,-14.711999893188477 86.84500122070312,-0.9959999918937683 89.1780014038086,22.45800018310547 C91.66200256347656,47.428001403808594 121.9729995727539,48.50299835205078 126.8280029296875,48.020999908447266z"></path></g><g opacity="1" transform="matrix(1,0,0,1,0,0)"><path stroke-linecap="round" stroke-linejoin="round" fill-opacity="0" stroke="rgb(247,126,65)" stroke-opacity="1" stroke-width="8" d=" M107.55500030517578,-50.35900115966797 C140.5240020751953,-49.303001403808594 182.5050048828125,-38.676998138427734 187.30499267578125,-8.440999984741211 C192.5399932861328,24.531999588012695 179.93600463867188,34.69599914550781 157.29100036621094,41.858001708984375 C132.36900329589844,49.7400016784668 89.09300231933594,52.801998138427734 58.96900177001953,46.32400131225586 C27.2189998626709,39.49599838256836 26.87700080871582,7.320000171661377 44.28799819946289,-4.629000186920166 C61.69900131225586,-16.577999114990234 89.43900299072266,-14.538999557495117 98.31500244140625,-14.472999572753906 C109.83699798583984,-14.387999534606934 124.68699645996094,-23.0939998626709 143.72000122070312,-23.69099998474121"></path></g></g></g></svg>