<svg xmlns="http://www.w3.org/2000/svg" viewBox="0 0 512 512" width="512" height="512" style="width: 100%; height: 100%; transform: translate3d(0,0,0);" preserveAspectRatio="xMidYMid meet"><defs><clipPath id="__lottie_element_27056"><rect width="512" height="512" x="0" y="0"></rect></clipPath></defs><g clip-path="url(#__lottie_element_27056)"><g style="display: block;" transform="matrix(1,0,0,1,113.83799743652344,304.1629943847656)" opacity="1"><g opacity="1" transform="matrix(1,0,0,1,0,0)"><path fill="rgb(255,209,64)" fill-opacity="1" d=" M-26.533000946044922,-85.2979965209961 C-15.932000160217285,-94.4280014038086 1.4019999504089355,-82.01899719238281 30.33799934387207,-77.43299865722656 C62.92900085449219,-57.16299819946289 61.595001220703125,66.50399780273438 43.042999267578125,76.64199829101562 C34.25899887084961,76.5510025024414 -6.98799991607666,87.91999816894531 -19.160999298095703,88.56700134277344 C-66.0719985961914,54.16999816894531 -68.0719985961914,-38.83000183105469 -26.533000946044922,-85.2979965209961z"></path></g></g><g style="display: block;" transform="matrix(1,0,0,1,237.86898803710938,296.4909973144531)" opacity="1"><g opacity="1" transform="matrix(1,0,0,1,0,0)"><path fill="rgb(255,209,64)" fill-opacity="1" d=" M-90.19300079345703,-33.76100158691406 C-78.05599975585938,-55.9640007019043 -19.101999282836914,-99.49099731445312 15.381999969482422,-101.43099975585938 C79.73600006103516,-107.70999908447266 104.89800262451172,-77.15799713134766 89.49400329589844,-49.48899841308594 C92.63500213623047,-41.33000183105469 102.74600219726562,-33.301998138427734 100.51699829101562,-17.94099998474121 C98.28800201416016,-2.5799999237060547 87.8499984741211,0.11599999666213989 88.35399627685547,6.574999809265137 C88.85800170898438,13.032999992370605 94.6259994506836,18.547000885009766 92.2750015258789,32.03300094604492 C89.77200317382812,46.400001525878906 78.37699890136719,53.810001373291016 78.37699890136719,53.810001373291016 C78.37699890136719,53.810001373291016 82.0739974975586,70.24299621582031 67.27899932861328,85.65299987792969 C57.233001708984375,96.11799621582031 34.21699905395508,104.25199890136719 -5.480999946594238,101.83100128173828 C-42.48099899291992,99.57499694824219 -67.21499633789062,84.45500183105469 -80.98799896240234,84.31400299072266 C-99.10199737548828,74.1760025024414 -104.60199737548828,-8.157999992370605 -90.19300079345703,-33.76100158691406z"></path></g></g><g style="display: block;" transform="matrix(1,0,0,1,244.89498901367188,170.67901611328125)" opacity="1"><g opacity="1" transform="matrix(1,0,0,1,0,0)"><path fill="rgb(255,209,64)" fill-opacity="1" d=" M-100.71800231933594,56.051998138427734 C-88.58100128173828,33.8489990234375 -73.73999786376953,6.440000057220459 -41.53200149536133,-6.960000038146973 C-12.413999557495117,-19.075000762939453 13.298999786376953,-18.57200050354004 29.701000213623047,-25.062999725341797 C73.66400146484375,-42.459999084472656 69.4469985961914,-57.94599914550781 82.69999694824219,-55.99100112915039 C104.52400207519531,-53.7760009765625 104.55899810791016,-18.160999298095703 93.23200225830078,-4.520999908447266 C81.90599822998047,9.119000434875488 72.54100036621094,12.371999740600586 63.20399856567383,15.616000175476074 C47.222999572753906,21.167999267578125 24.926000595092773,20.965999603271484 8.357000350952148,24.381999969482422 C-7.693999767303467,68.8219985961914 -104.69400024414062,125.8219985961914 -100.71800231933594,56.051998138427734z"></path></g></g><g style="display: block;" transform="matrix(1,0,0,1,204.47499084472656,192.17001342773438)" opacity="1"><g opacity="1" transform="matrix(1,0,0,1,0,0)"><path fill="rgb(255,223,121)" fill-opacity="1" d=" M-140.5970001220703,78.4000015258789 C-129.7790069580078,47.012001037597656 -121.10399627685547,47.21099853515625 -94.36900329589844,52.31399917602539 C-81.1520004272461,54.83599853515625 -60.374000549316406,64.08000183105469 -49.91899871826172,40.10100173950195 C-44.823001861572266,28.41200065612793 -54.13399887084961,25.242000579833984 -60.60200119018555,34.388999938964844 C-79.15399932861328,32.39400100708008 -106.3499984741211,20.934999465942383 -114.63099670410156,24.55900001525879 C-123.01100158691406,28.225000381469727 -135.86500549316406,57.104000091552734 -140.5970001220703,78.4000015258789z"></path></g></g><g style="display: block;" transform="matrix(1,0,0,1,204.47499084472656,192.17001342773438)" opacity="1"><g opacity="1" transform="matrix(1,0,0,1,0,0)"><path fill="rgb(255,223,121)" fill-opacity="1" d=" M-49.91899871826172,40.10100173950195 C-44.823001861572266,28.41200065612793 -29.624000549316406,-4.920000076293945 16.219999313354492,-20.882999420166016 C41.733001708984375,-29.767000198364258 88.6520004272461,-29.222999572753906 110.8759994506836,-52.415000915527344 C126.80000305175781,-69.03299713134766 134.2570037841797,-63.305999755859375 139.0989990234375,-37.15800094604492 C147.81500244140625,-88.48500061035156 115.81300354003906,-79.4800033569336 112.04199981689453,-74.3239974975586 C104.88200378417969,-64.53500366210938 95.9739990234375,-59.50699996948242 80.69999694824219,-50.37799835205078 C65.4260025024414,-41.249000549316406 31.000999450683594,-41.952999114990234 -4.182000160217285,-27.86400032043457 C-41.279998779296875,-13.006999969482422 -54.13399887084961,25.242000579833984 -60.60200119018555,34.388999938964844 C-91.27400207519531,43.08000183105469 -60.374000549316406,64.08000183105469 -49.91899871826172,40.10100173950195z"></path></g><g opacity="1" transform="matrix(1,0,0,1,0,0)"><path stroke-linecap="round" stroke-linejoin="round" fill-opacity="0" stroke="rgb(255,255,255)" stroke-opacity="1" stroke-width="6" d=" M-0.09300000220537186,-13.892000198364258 C4.672999858856201,-16.360000610351562 9.873000144958496,-18.636999130249023 15.54699993133545,-20.64699935913086"></path></g><g opacity="1" transform="matrix(1,0,0,1,0,0)"><path stroke-linecap="round" stroke-linejoin="round" fill-opacity="0" stroke="rgb(255,255,255)" stroke-opacity="1" stroke-width="6" d=" M-13.663999557495117,-5.610000133514404 C-12.600000381469727,-6.36899995803833 -11.508000373840332,-7.119999885559082 -10.385000228881836,-7.861000061035156"></path></g></g><g style="display: block;" transform="matrix(1,0,0,1,294.8760070800781,166.99398803710938)" opacity="1"><g opacity="1" transform="matrix(1,0,0,1,0,0)"><path fill="rgb(255,177,57)" fill-opacity="1" d=" M47.702999114990234,-29.03499984741211 C43.52299880981445,-15.63599967956543 37.85900115966797,-8.595000267028809 19.822999954223633,3.309000015258789 C-0.7680000066757202,16.89900016784668 -53.34199905395508,21.840999603271484 -48.32099914550781,29.03499984741211 C-31.049999237060547,25.993000030517578 -18.659000396728516,27.920000076293945 -0.460999995470047,23.42099952697754 C11.54800033569336,20.451000213623047 29.895999908447266,18.29400062561035 40.2760009765625,2.4860000610351562 C49.198001861572266,-11.104000091552734 49.68199920654297,-14.192999839782715 47.702999114990234,-29.03499984741211z"></path></g></g><g style="display: block;" transform="matrix(1,0,0,1,245.25999450683594,169.6199951171875)" opacity="1"><g opacity="1" transform="matrix(1,0,0,1,0,0)"><path stroke-linecap="round" stroke-linejoin="round" fill-opacity="0" stroke="rgb(247,126,65)" stroke-opacity="1" stroke-width="8" d=" M-100.73999786376953,55.7130012512207 C-89.42500305175781,38.194000244140625 -84.19400024414062,18.961999893188477 -60.071998596191406,3.678999900817871 C-23.5310001373291,-19.472999572753906 2.736999988555908,-15.173999786376953 28.131000518798828,-23.757999420166016 C67.35199737548828,-37.01599884033203 63.59600067138672,-47.10599899291992 76.51100158691406,-54.20000076293945 C82.82499694824219,-57.66899871826172 89.38400268554688,-54.89099884033203 94.08300018310547,-48.71699905395508 C101.81900024414062,-38.551998138427734 104.51200103759766,-19.179000854492188 92.76399993896484,-3.319000005722046 C81.71499633789062,11.597000122070312 57.61800003051758,20.59000015258789 31.176000595092773,23.361000061035156"></path></g></g><g style="display: block;" transform="matrix(1,0,0,1,368.3580017089844,218.48800659179688)" opacity="1"><g opacity="1" transform="matrix(1,0,0,1,0,0)"><path fill="rgb(255,209,64)" fill-opacity="1" d=" M-116.10700225830078,-23.427000045776367 C-51.75299835205078,-29.70599937438965 -15.12399959564209,-28.73900032043457 0.7419999837875366,-28.48699951171875 C13.326000213623047,-29.14699935913086 61.35900115966797,-27.736000061035156 85.33599853515625,-26.788000106811523 C118.9729995727539,-25.457000732421875 124.19400024414062,-10.51099967956543 122.77400207519531,1.5290000438690186 C121.3550033569336,13.569000244140625 112.40899658203125,21.68000030517578 95.02799987792969,23.003999710083008 C79.24199676513672,24.34600067138672 42.42100143432617,25.854000091552734 30.031999588012695,25.854999542236328 C7.485000133514404,25.856000900268555 -20.87700080871582,28.09600067138672 -41.994998931884766,28.514999389648438 C-74.25800323486328,31.84600067138672 -145.25799560546875,-12.487000465393066 -116.10700225830078,-23.427000045776367z"></path></g></g><g style="display: block;" transform="matrix(1,0,0,1,371.8280029296875,215.13601684570312)" opacity="1"><g opacity="1" transform="matrix(1,0,0,1,0,0)"><path fill="rgb(255,223,121)" fill-opacity="1" d=" M-119.35700225830078,-19.141000747680664 C-118.33599853515625,-12.888999938964844 -59.875999450683594,-15.690999984741211 -32.141998291015625,-15.161999702453613 C24.23900032043457,-14.086000442504883 44.9010009765625,-13.387999534606934 74.79299926757812,-11.125 C86.01100158691406,-10.276000022888184 93.65599822998047,-8.956000328063965 98.18599700927734,-5.960999965667725 C108.49700164794922,0.859000027179718 102.8219985961914,13.371000289916992 87.61000061035156,25.368000030517578 C113.24400329589844,24.121999740600586 120.0989990234375,10.88599967956543 119.2959976196289,-1.690000057220459 C118.22799682617188,-18.423999786376953 98.5510025024414,-23.829999923706055 75.51100158691406,-24.375999450683594 C26.194000244140625,-25.54400062561035 -6.533999919891357,-25.356000900268555 -34.97100067138672,-25.356000900268555 C-62.59199905395508,-25.356000900268555 -100.75900268554688,-22.54800033569336 -119.35700225830078,-19.141000747680664z"></path></g></g><g style="display: block;" transform="matrix(1,0,0,1,371.8280029296875,215.13601684570312)" opacity="1"><g opacity="1" transform="matrix(1,0,0,1,0,0)"><path stroke-linecap="round" stroke-linejoin="round" fill-opacity="0" stroke="rgb(255,255,255)" stroke-opacity="1" stroke-width="6" d=" M97.66000366210938,-6.293000221252441 C97.83999633789062,-6.184999942779541 98.01499938964844,-6.073999881744385 98.18599700927734,-5.960999965667725 C99.52400207519531,-5.076000213623047 100.59300231933594,-4.09499979019165 101.40699768066406,-3.0320000648498535"></path></g></g><g style="display: block;" transform="matrix(1,0,0,1,198.77099609375,322.47100830078125)" opacity="1"><g opacity="1" transform="matrix(1,0,0,1,0,0)"><path fill="rgb(255,177,57)" fill-opacity="1" d=" M124.72100067138672,-76.35600280761719 C124.13300323486328,-69.99199676513672 130.95399475097656,-66.13099670410156 130.24400329589844,-52.42599868774414 C129.57899475097656,-39.59600067138672 121.80599975585938,-34.78499984741211 117.17400360107422,-29.761999130249023 C112.35199737548828,-24.5310001373291 121.5780029296875,-17.868000030517578 121.53600311279297,-7.755000114440918 C121.4540023803711,11.904000282287598 102.84400177001953,12.444999694824219 103.35299682617188,21.283000946044922 C105.0790023803711,51.27899932861328 74.49199676513672,63.904998779296875 14.755999565124512,53.104000091552734 C-32.67100143432617,44.52899932861328 -44.994998931884766,22.52400016784668 -65.99299621582031,24.320999145507812 C-82.05500030517578,25.695999145507812 -108.03199768066406,32.481998443603516 -118.53099822998047,25.131999969482422 C-135.28799438476562,13.402000427246094 -140.17100524902344,-39.97100067138672 -126.27999877929688,-75.29499816894531 C-159.92300415039062,-8.355999946594238 -128.64700317382812,54.53499984741211 -101.93499755859375,70.25700378417969 C-93.98899841308594,71.44100189208984 -44.27799987792969,56.89799880981445 -37.23099899291992,58.49599838256836 C-14.291000366210938,63.69499969482422 11.015000343322754,75.0530014038086 39.724998474121094,76.00299835205078 C62.96900177001953,76.77100372314453 85.48400115966797,74.99600219726562 103.31600189208984,63.63100051879883 C123.83799743652344,50.553001403808594 115.04100036621094,27.082000732421875 115.04100036621094,27.082000732421875 C115.04100036621094,27.082000732421875 130.2570037841797,22.511999130249023 132.302001953125,-0.5680000185966492 C133.03500366210938,-8.845000267028809 126.31300354003906,-22.479999542236328 126.31300354003906,-22.479999542236328 C126.31300354003906,-22.479999542236328 140.6280059814453,-29.490999221801758 140.9199981689453,-51.69499969482422 C140.94500732421875,-53.599998474121094 136.6790008544922,-70.22100067138672 131.2570037841797,-75.56500244140625 C137.4290008544922,-79.9530029296875 184.42300415039062,-80.42900085449219 220.4080047607422,-80.5530014038086 C239.8560028076172,-80.62000274658203 256.0880126953125,-80.58399963378906 260.92401123046875,-81.00599670410156 C283.4289855957031,-82.97100067138672 292.42999267578125,-89.97100067138672 292.3689880371094,-109.86699676513672 C285.92999267578125,-93.97100067138672 258.72900390625,-92.40399932861328 248.67799377441406,-91.9520034790039 C232.42999267578125,-91.22100067138672 206.42999267578125,-90.47100067138672 187.968994140625,-89.72799682617188 C157.20399475097656,-88.48999786376953 125.67900085449219,-86.72100067138672 124.72100067138672,-76.35600280761719z"></path></g></g><g style="display: block;" transform="matrix(1,0,0,1,370.1300048828125,218.33401489257812)" opacity="1"><g opacity="1" transform="matrix(1,0,0,1,0,0)"><path stroke-linecap="round" stroke-linejoin="round" fill-opacity="0" stroke="rgb(247,126,65)" stroke-opacity="1" stroke-width="8" d=" M-121.89099884033203,-22.843000411987305 C-57.933998107910156,-28.8799991607666 -10.031000137329102,-27.891000747680664 11.920000076293945,-28.128000259399414 C30.969999313354492,-28.333999633789062 73.97000122070312,-27.333999633789062 92.98600006103516,-26.040000915527344 C131.98199462890625,-23.38599967956543 129.97000122070312,20.916000366210938 92.82099914550781,23.10300064086914 C83.68599700927734,23.641000747680664 55.446998596191406,24.854999542236328 26.702999114990234,26.018999099731445 C-3.0390000343322754,27.222999572753906 -33.31999969482422,28.374000549316406 -43.529998779296875,28.666000366210938"></path></g></g><g style="display: block;" transform="matrix(1,0,0,1,246.552001953125,322.9880065917969)" opacity="1"><g opacity="1" transform="matrix(1,0,0,1,0,0)"><path stroke-linecap="round" stroke-linejoin="round" fill-opacity="0" stroke="rgb(247,126,65)" stroke-opacity="1" stroke-width="8" d=" M-91.99500274658203,57.6150016784668 C-77.7030029296875,55.26900100708008 -59.007999420166016,68.7760009765625 -32.90700149536133,72.76100158691406 C-4.9629998207092285,77.0270004272461 11.468000411987305,76.48500061035156 32.73699951171875,72.25700378417969 C43.62099838256836,70.09300231933594 51.323001861572266,66.42500305175781 56.736000061035156,62.01599884033203 C69.052001953125,51.983001708984375 69.51399993896484,38.111000061035156 68.62899780273438,29.371999740600586 C68.56400299072266,28.73200035095215 68.49199676513672,28.118999481201172 68.41699981689453,27.538000106811523 C71.26599884033203,25.523000717163086 73.69000244140625,23.274999618530273 75.71199798583984,20.860000610351562 C80.23100280761719,15.46399974822998 82.74700164794922,9.230999946594238 83.53299713134766,2.872999906539917 C84.56999969482422,-5.517000198364258 82.59500122070312,-14.12399959564209 78.2300033569336,-21.31100082397461 C79.17500305175781,-21.743000030517578 80.197998046875,-22.97100067138672 82.02200317382812,-24.825000762939453 C88.44200134277344,-31.351999282836914 91.76100158691406,-42.388999938964844 91.97100067138672,-48.27899932861328 C92.39199829101562,-60.08399963378906 87.2229995727539,-71.0770034790039 80.57599639892578,-75.70600128173828"></path></g></g><g style="display: block;" transform="matrix(1,0,0,1,106.06900024414062,303.9049987792969)" opacity="1"><g opacity="1" transform="matrix(1,0,0,1,0,0)"><path stroke-linecap="round" stroke-linejoin="round" fill-opacity="0" stroke="rgb(247,126,65)" stroke-opacity="1" stroke-width="8" d=" M37.78099822998047,-77.52999877929688 C30.854000091552734,-77.16999816894531 12.118000030517578,-83.37899780273438 4.026000022888184,-85.44499969482422 C-3.4749999046325684,-87.36100006103516 -13.687999725341797,-91.82099914550781 -19.44499969482422,-84.7239990234375 C-56.49399948120117,-39.04899978637695 -61.270999908447266,50.034000396728516 -11.416999816894531,87.76000213623047 C-10.279999732971191,88.62100219726562 -8.60099983215332,88.73200225830078 -7.197999954223633,88.4749984741211 C10.60099983215332,85.21800231933594 30.32699966430664,80.4990005493164 48.03099822998047,76.76200103759766"></path></g></g></g></svg>