<svg xmlns="http://www.w3.org/2000/svg" viewBox="0 0 512 512" width="512" height="512" style="width: 100%; height: 100%; transform: translate3d(0,0,0);" preserveAspectRatio="xMidYMid meet"><defs><clipPath id="__lottie_element_27162"><rect width="512" height="512" x="0" y="0"></rect></clipPath><clipPath id="__lottie_element_27164"><path d="M0,0 L512,0 L512,512 L0,512z"></path></clipPath><radialGradient id="__lottie_element_27278" spreadMethod="pad" gradientUnits="userSpaceOnUse" cx="-0.4189999997615814" cy="-8.732000350952148" r="32.76300176978111" fx="-0.4189999997615814" fy="-8.732000350952148"><stop offset="0%" stop-color="rgb(252,252,252)"></stop><stop offset="77%" stop-color="rgb(203,203,203)"></stop><stop offset="100%" stop-color="rgb(154,154,154)"></stop></radialGradient><clipPath id="__lottie_element_27291"><path d="M0,0 L512,0 L512,512 L0,512z"></path></clipPath><radialGradient id="__lottie_element_27405" spreadMethod="pad" gradientUnits="userSpaceOnUse"><stop></stop><stop></stop><stop></stop></radialGradient></defs><g clip-path="url(#__lottie_element_27162)"><g clip-path="url(#__lottie_element_27291)" style="display: none;"><g style="display: none;"><g><path fill="url(#__lottie_element_27405)"></path></g></g><g style="display: none;"><g><path></path></g></g><g style="display: none;"><g><path></path></g></g><g style="display: none;"><g><path stroke-linecap="round" stroke-linejoin="round" fill-opacity="0"></path></g></g><g style="display: none;"><g><path stroke-linecap="round" stroke-linejoin="round" fill-opacity="0"></path></g></g><g style="display: none;"><g><path></path></g></g><g style="display: none;"><g><path stroke-linecap="round" stroke-linejoin="round" fill-opacity="0"></path></g></g><g style="display: none;"><g><path></path></g></g><g style="display: none;"><g><path></path></g></g><g style="display: none;"><g><path></path></g></g><g style="display: none;"><g><path stroke-linecap="round" stroke-linejoin="round" fill-opacity="0"></path></g></g><g style="display: none;"><g><path></path></g></g><g style="display: none;"><g><path></path></g></g><g style="display: none;"><g><path></path></g></g><g style="display: none;"><g><path stroke-linecap="round" stroke-linejoin="round" fill-opacity="0"></path></g></g><g style="display: none;"><g><path></path></g></g><g style="display: none;"><g><path></path></g></g><g style="display: none;"><g><path stroke-linecap="round" stroke-linejoin="round" fill-opacity="0"></path></g></g><g style="display: none;"><g><path></path></g></g><g style="display: none;"><g><path></path></g></g><g style="display: none;"><g><path stroke-linecap="round" stroke-linejoin="round" fill-opacity="0"></path></g></g><g style="display: none;"><g><path></path></g></g><g style="display: none;"><g><path></path></g></g><g style="display: none;"><g><path></path></g></g><g style="display: none;"><g><path stroke-linecap="round" stroke-linejoin="round" fill-opacity="0"></path></g></g><g style="display: none;"><g><path></path></g></g><g style="display: none;"><g><path></path></g></g><g style="display: none;"><g><path></path></g></g><g style="display: none;"><g><path stroke-linecap="round" stroke-linejoin="round" fill-opacity="0"></path></g></g><g style="display: none;"><g><path></path></g></g><g style="display: none;"><g><path></path></g></g><g style="display: none;"><g><path stroke-linecap="round" stroke-linejoin="round" fill-opacity="0"></path></g></g><g style="display: none;"><g><path stroke-linecap="round" stroke-linejoin="round" fill-opacity="0"></path></g></g><g style="display: none;"><g><path></path></g></g><g style="display: none;"><g><path></path></g></g><g style="display: none;"><g><path stroke-linecap="round" stroke-linejoin="round" fill-opacity="0"></path></g></g><g style="display: none;"><g><path></path></g></g><g style="display: none;"><g><path></path></g></g><g style="display: none;"><g><path stroke-linecap="round" stroke-linejoin="round" fill-opacity="0"></path></g></g><g style="display: none;"><g><path stroke-linecap="round" stroke-linejoin="round" fill-opacity="0"></path></g></g></g><g clip-path="url(#__lottie_element_27164)" style="display: block;" transform="matrix(1,0,0,1,0,0)" opacity="1"><g style="display: block;" transform="matrix(1,0,0,1,71.83100128173828,448.73199462890625)" opacity="1"><g opacity="1" transform="matrix(1,0,0,1,0,0)"><path fill="url(#__lottie_element_27278)" fill-opacity="1" d=" M34.15800094604492,0 C34.15800094604492,19.81399917602539 18.864999771118164,35.87699890136719 0,35.87699890136719 C-18.864999771118164,35.87699890136719 -34.15800094604492,19.81399917602539 -34.15800094604492,0 C-34.15800094604492,-19.81399917602539 -18.864999771118164,-35.87699890136719 0,-35.87699890136719 C18.864999771118164,-35.87699890136719 34.15800094604492,-19.81399917602539 34.15800094604492,0z"></path></g></g><g style="display: block;" transform="matrix(1,0,0,1,-278.99798583984375,256)" opacity="1"><g opacity="1" transform="matrix(1,0,0,1,0,0)"><path fill="rgb(255,255,255)" fill-opacity="1" d=" M350.8290100097656,156.8509979248047 C331.96099853515625,156.8509979248047 316.67498779296875,172.91700744628906 316.67498779296875,192.73699951171875 C316.67498779296875,212.54600524902344 331.96099853515625,228.61199951171875 350.8290100097656,228.61199951171875 C369.6969909667969,228.61199951171875 384.9849853515625,212.54600524902344 384.9849853515625,192.73699951171875 C384.9849853515625,172.91700744628906 369.6969909667969,156.8509979248047 350.8290100097656,156.8509979248047z M350.8290100097656,226.79400634765625 C335.1960144042969,226.79400634765625 322.5169982910156,213.48699951171875 322.5169982910156,197.06399536132812 C322.5169982910156,180.6300048828125 335.1960144042969,167.32400512695312 350.8290100097656,167.32400512695312 C366.4620056152344,167.32400512695312 379.1419982910156,180.6300048828125 379.1419982910156,197.06399536132812 C379.1419982910156,213.48699951171875 366.4620056152344,226.79400634765625 350.8290100097656,226.79400634765625z"></path></g></g><g style="display: block;" transform="matrix(1,0,0,1,71.83200073242188,460.38299560546875)" opacity="0.2"><g opacity="1" transform="matrix(1,0,0,1,0,0)"><path fill="rgb(137,137,137)" fill-opacity="1" d=" M34.154998779296875,-11.645999908447266 C34.154998779296875,8.163000106811523 18.868000030517578,24.229000091552734 0,24.229000091552734 C-18.868000030517578,24.229000091552734 -34.154998779296875,8.163000106811523 -34.154998779296875,-11.645999908447266 C-34.154998779296875,-16.070999145507812 -33.39799880981445,-20.312999725341797 -31.990999221801758,-24.229000091552734 C-31.9689998626709,-23.61199951171875 -31.724000930786133,0.30300000309944153 -2.1500000953674316,2.4649999141693115 C25.46500015258789,4.484000205993652 32.834999084472656,-21.53499984741211 32.834999084472656,-21.53499984741211 C33.70000076293945,-18.398000717163086 34.154998779296875,-15.076000213623047 34.154998779296875,-11.645999908447266z"></path></g></g><g style="display: block;" transform="matrix(1,0,0,1,71.83100128173828,448.73199462890625)" opacity="1"><g opacity="1" transform="matrix(1,0,0,1,0,0)"><path stroke-linecap="round" stroke-linejoin="round" fill-opacity="0" stroke="rgb(175,175,175)" stroke-opacity="1" stroke-width="7" d=" M34.15800094604492,0 C34.15800094604492,19.81399917602539 18.864999771118164,35.87699890136719 0,35.87699890136719 C-18.864999771118164,35.87699890136719 -34.15800094604492,19.81399917602539 -34.15800094604492,0 C-34.15800094604492,-19.81399917602539 -18.864999771118164,-35.87699890136719 0,-35.87699890136719 C18.864999771118164,-35.87699890136719 34.15800094604492,-19.81399917602539 34.15800094604492,0z"></path></g></g><g style="display: block;" transform="matrix(1,0,0,1,71.83100128173828,466.66998291015625)" opacity="1"><g opacity="1" transform="matrix(1,0,0,1,0,0)"><path stroke-linecap="round" stroke-linejoin="round" fill-opacity="0" stroke="rgb(127,127,127)" stroke-opacity="1" stroke-width="7" d=" M34.15800094604492,-17.937999725341797 C34.15800094604492,1.8760000467300415 18.864999771118164,17.937999725341797 0,17.937999725341797 C-18.864999771118164,17.937999725341797 -34.15800094604492,1.8760000467300415 -34.15800094604492,-17.937999725341797"></path></g></g><g style="display: block;" transform="matrix(1,0,0,1,278.2799987792969,225.5)" opacity="1"><g opacity="1" transform="matrix(1,0,0,1,-7,19)"><path fill="rgb(242,242,242)" fill-opacity="1" d=" M0,-102 C56.293800354003906,-102 102,-56.293800354003906 102,0 C102,56.293800354003906 56.293800354003906,102 0,102 C-56.293800354003906,102 -102,56.293800354003906 -102,0 C-102,-56.293800354003906 -56.293800354003906,-102 0,-102z"></path></g></g><g style="display: block;" transform="matrix(1,0,0,1,278.2799987792969,225.5)" opacity="1"><g opacity="1" transform="matrix(1,0,0,1,-7,19)"><path stroke-linecap="round" stroke-linejoin="round" fill-opacity="0" stroke="rgb(175,175,175)" stroke-opacity="1" stroke-width="7" d="M0 0"></path></g></g><g style="display: block;" transform="matrix(1,0,0,1,240.77999877929688,92)" opacity="1"><g opacity="1" transform="matrix(1,0,0,1,-7,19)"><path fill="rgb(242,242,242)" fill-opacity="1" d=" M0,-66 C36.42539978027344,-66 66,-36.42539978027344 66,0 C66,36.42539978027344 36.42539978027344,66 0,66 C-36.42539978027344,66 -66,36.42539978027344 -66,0 C-66,-36.42539978027344 -36.42539978027344,-66 0,-66z"></path></g></g><g style="display: block;" transform="matrix(1,0,0,1,240.80398559570312,92.00799560546875)" opacity="1"><g opacity="1" transform="matrix(1,0,0,1,-7,19)"><path fill="rgb(215,215,215)" fill-opacity="1" d=" M18.13599967956543,-64.33100128173828 C27.000999450683594,-61.012001037597656 39.9640007019043,-53.34000015258789 46.54899978637695,-46.78900146484375 C44.722999572753906,-45.26499938964844 42.979000091552734,-43.82400131225586 41.3120002746582,-42.452999114990234 C38.638999938964844,-40.255001068115234 36.159000396728516,-38.23500061035156 33.8380012512207,-36.33599853515625 C30.422000885009766,-33.54199981689453 27.35099983215332,-31.007999420166016 24.51300048828125,-28.549999237060547 C31.982999801635742,-49.229000091552734 26.979999542236328,-55.231998443603516 18.13599967956543,-64.33100128173828z"></path></g></g><g style="display: block;" transform="matrix(1,0,0,1,240.80398559570312,92.00799560546875)" opacity="1"><g opacity="1" transform="matrix(1,0,0,1,-7,19)"><path fill="rgb(255,255,255)" fill-opacity="1" d=" M0,-66 C18.381000518798828,-66 47.51599884033203,-46.345001220703125 46.974998474121094,-46.361000061035156 C46.433998107910156,-46.37699890136719 24.16200065612793,-52.14500045776367 -1.9809999465942383,-49.42599868774414 C-30.2549991607666,-46.48500061035156 -42.24100112915039,-41.24100112915039 -60.54100036621094,-23.917999267578125 C-49.70600128173828,-45.55099868774414 -25.840999603271484,-66 0,-66z"></path></g></g><g style="display: block;" transform="matrix(1,0,0,1,240.80398559570312,92.00799560546875)" opacity="1"><g opacity="1" transform="matrix(1,0,0,1,-7,19)"><path stroke-linecap="round" stroke-linejoin="round" fill-opacity="0" stroke="rgb(175,175,175)" stroke-opacity="1" stroke-width="7" d=" M-54.064998626708984,-37.84299850463867 C-42.12300109863281,-54.86399841308594 -22.35099983215332,-66 0,-66 C0,-66 0,-66 0,-66 C20.030000686645508,-66 37.98899841308594,-57.05699920654297 50.097999572753906,-42.94900131225586"></path></g></g><g style="display: block;" transform="matrix(1,0,0,1,161.77999877929688,136)" opacity="1"><g opacity="1" transform="matrix(1,0,0,1,-7,19)"><path fill="rgb(242,242,242)" fill-opacity="1" d=" M0,-84.5 C46.63555145263672,-84.5 84.5,-46.63555145263672 84.5,0 C84.5,46.63555145263672 46.63555145263672,84.5 0,84.5 C-46.63555145263672,84.5 -84.5,46.63555145263672 -84.5,0 C-84.5,-46.63555145263672 -46.63555145263672,-84.5 0,-84.5z"></path></g></g><g style="display: block;" transform="matrix(1,0,0,1,161.76400756835938,136.031982421875)" opacity="1"><g opacity="1" transform="matrix(1,0,0,1,-7,19)"><path fill="rgb(215,215,215)" fill-opacity="1" d=" M-23.011999130249023,15.463000297546387 C-35.62900161743164,15.463000297546387 -47.24100112915039,23.29599952697754 -55.98899841308594,31.235000610351562 C-62.38600158691406,37.040000915527344 -67.25,42.902000427246094 -69.85600280761719,45.79800033569336 C-80.69499969482422,31.937000274658203 -84.5,24.825000762939453 -84.5,0 C-84.5,-16.238000869750977 -79.9209976196289,-31.405000686645508 -71.98200225830078,-44.28200149536133 C-72.19100189208984,-24.591999053955078 -77.69400024414062,14.428000450134277 -23.011999130249023,15.463000297546387z"></path></g></g><g style="display: block;" transform="matrix(1,0,0,1,161.76400756835938,136.031982421875)" opacity="1"><g opacity="1" transform="matrix(1,0,0,1,-7,19)"><path fill="rgb(255,255,255)" fill-opacity="1" d=" M0,-84.5 C22.87299919128418,-84.5 43.624000549316406,-75.41100311279297 58.8380012512207,-60.64899826049805 C24.118999481201172,-72.19599914550781 -13.581000328063965,-71.40599822998047 -41.020999908447266,-50.86000061035156 C-74.54399871826172,-25.759000778198242 -78.88400268554688,-1.2879999876022339 -77.33799743652344,34.0989990234375 C-81.94300079345703,23.670000076293945 -84.5,12.133999824523926 -84.5,0 C-84.5,-46.667999267578125 -46.667999267578125,-84.5 0,-84.5z"></path></g></g><g style="display: block;" transform="matrix(1,0,0,1,161.76400756835938,136.031982421875)" opacity="1"><g opacity="1" transform="matrix(1,0,0,1,-7,19)"><path stroke-linecap="round" stroke-linejoin="round" fill-opacity="0" stroke="rgb(175,175,175)" stroke-opacity="1" stroke-width="7" d=" M-77.1989974975586,34.387001037597656 C-81.89099884033203,23.8799991607666 -84.5,12.241999626159668 -84.5,0 C-84.5,-46.63555145263672 -46.63555145263672,-84.5 0,-84.5 C0,-84.5 0,-84.5 0,-84.5 C19.256000518798828,-84.5 37.016998291015625,-78.04399871826172 51.23500061035156,-67.18099975585938"></path></g></g><g style="display: block;" transform="matrix(1,0,0,1,153.27999877929688,334)" opacity="1"><g opacity="1" transform="matrix(1,0,0,1,-7,19)"><path fill="rgb(242,242,242)" fill-opacity="1" d=" M0,-48 C26.491199493408203,-48 48,-26.491199493408203 48,0 C48,26.491199493408203 26.491199493408203,48 0,48 C-26.491199493408203,48 -48,26.491199493408203 -48,0 C-48,-26.491199493408203 -26.491199493408203,-48 0,-48z"></path></g></g><g style="display: block;" transform="matrix(1,0,0,1,153.20999145507812,334.01800537109375)" opacity="1"><g opacity="1" transform="matrix(1,0,0,1,-7,19)"><path fill="rgb(215,215,215)" fill-opacity="1" d=" M0,-48 C26.491199493408203,-48 48,-26.491199493408203 48,0 C48,26.491199493408203 26.491199493408203,48 0,48 C-26.491199493408203,48 -48,26.491199493408203 -48,0 C-48,-26.491199493408203 -26.491199493408203,-48 0,-48z"></path></g></g><g style="display: block;" transform="matrix(1,0,0,1,153.20999145507812,334.01800537109375)" opacity="1"><g opacity="1" transform="matrix(1,0,0,1,-7,19)"><path stroke-linecap="round" stroke-linejoin="round" fill-opacity="0" stroke="rgb(127,127,127)" stroke-opacity="1" stroke-width="7" d=" M24.716999053955078,41.145999908447266 C17.4950008392334,45.49700164794922 9.038000106811523,48 0,48 C-26.491199493408203,48 -48,26.491199493408203 -48,0 C-48,-0.6060000061988831 -47.98899841308594,-1.2089999914169312 -47.965999603271484,-1.809000015258789"></path></g></g><g style="display: block;" transform="matrix(1,0,0,1,341.2799987792969,340)" opacity="1"><g opacity="1" transform="matrix(1,0,0,1,-7,19)"><path fill="rgb(242,242,242)" fill-opacity="1" d=" M0,-62.5 C34.493751525878906,-62.5 62.5,-34.493751525878906 62.5,0 C62.5,34.493751525878906 34.493751525878906,62.5 0,62.5 C-34.493751525878906,62.5 -62.5,34.493751525878906 -62.5,0 C-62.5,-34.493751525878906 -34.493751525878906,-62.5 0,-62.5z"></path></g></g><g style="display: block;" transform="matrix(1,0,0,1,341.33099365234375,339.9440002441406)" opacity="1"><g opacity="1" transform="matrix(1,0,0,1,-7,19)"><path fill="rgb(215,215,215)" fill-opacity="1" d=" M-12.70199966430664,-29.04599952697754 C17.299999237060547,-26.35300064086914 26.430999755859375,-13.432000160217285 62,-7.501999855041504 C62,27.016000747680664 40.720001220703125,62.27399826049805 0,62.5 C-34.516998291015625,62.691001892089844 -55.6150016784668,40.28200149536133 -54.994998931884766,18.759000778198242 C-35.641998291015625,-5.0370001792907715 -21.072999954223633,-11.807000160217285 -12.70199966430664,-29.04599952697754z"></path></g></g><g style="display: block;" transform="matrix(1,0,0,1,341.33099365234375,339.9440002441406)" opacity="1"><g opacity="1" transform="matrix(1,0,0,1,-7,19)"><path stroke-linecap="round" stroke-linejoin="round" fill-opacity="0" stroke="rgb(127,127,127)" stroke-opacity="1" stroke-width="7" d=" M61.14699935913086,-12.982999801635742 C62.034000396728516,-8.793999671936035 62.5,-4.451000213623047 62.5,0 C62.5,34.493751525878906 34.493751525878906,62.5 0,62.5 C-14.918999671936035,62.5 -28.625,57.26100158691406 -39.375999450683594,48.52299880981445"></path></g></g><g style="display: block;" transform="matrix(1,0,0,1,407.2799987792969,163.5)" opacity="1"><g opacity="1" transform="matrix(1,0,0,1,-7,19)"><path fill="rgb(242,242,242)" fill-opacity="1" d=" M0,-56.5 C31.182350158691406,-56.5 56.5,-31.182350158691406 56.5,0 C56.5,31.182350158691406 31.182350158691406,56.5 0,56.5 C-31.182350158691406,56.5 -56.5,31.182350158691406 -56.5,0 C-56.5,-31.182350158691406 -31.182350158691406,-56.5 0,-56.5z"></path></g></g><g style="display: block;" transform="matrix(1,0,0,1,407.26800537109375,163.50799560546875)" opacity="1"><g opacity="1" transform="matrix(1,0,0,1,-7,19)"><path fill="rgb(215,215,215)" fill-opacity="1" d=" M56.52577590942383,10.692222595214844 C53.59977722167969,22.951221466064453 45.11000061035156,36.13399887084961 35.645999908447266,43.8390007019043 C24.988000869750977,42.51499938964844 12.641888618469238,47.31855392456055 -8.81944465637207,30.02777862548828 C28.796777725219727,37.099998474121094 41.81922149658203,23.168222427368164 56.52577590942383,10.692222595214844z"></path></g></g><g style="display: block;" transform="matrix(1,0,0,1,407.26800537109375,163.50799560546875)" opacity="0.5"><g opacity="1" transform="matrix(1,0,0,1,-7,19)"><path fill="rgb(255,255,255)" fill-opacity="1" d=" M0,-56.5 C31.20400047302246,-56.5 56.5,-31.20400047302246 56.5,0 C56.5,18.777999877929688 47.3390007019043,35.41699981689453 33.242000579833984,45.691001892089844 C46.66899871826172,22.167999267578125 43.77199935913086,6.533999919891357 40.027000427246094,-8.581000328063965 C34.41899871826172,-31.21500015258789 25.023000717163086,-46.874000549316406 0,-56.5z"></path></g></g><g style="display: block;" transform="matrix(1,0,0,1,407.26800537109375,163.50799560546875)" opacity="1"><g opacity="1" transform="matrix(1,0,0,1,-7,19)"><path stroke-linecap="round" stroke-linejoin="round" fill-opacity="0" stroke="rgb(175,175,175)" stroke-opacity="1" stroke-width="7" d=" M-11.737000465393066,-55.277000427246094 C-7.949999809265137,-56.077999114990234 -4.02400016784668,-56.5 0,-56.5 C0,-56.5 0,-56.5 0,-56.5 C31.182350158691406,-56.5 56.5,-31.182350158691406 56.5,0 C56.5,20.988000869750977 45.029998779296875,39.319000244140625 28.023000717163086,49.0620002746582"></path></g></g><g style="display: block;" transform="matrix(1,0,0,1,327.7799987792969,110)" opacity="1"><g opacity="1" transform="matrix(1,0,0,1,-3,31)"><path fill="rgb(242,242,242)" fill-opacity="1" d=" M0,-82 C45.25579833984375,-82 82,-45.25579833984375 82,0 C82,45.25579833984375 45.25579833984375,82 0,82 C-45.25579833984375,82 -82,45.25579833984375 -82,0 C-82,-45.25579833984375 -45.25579833984375,-82 0,-82z"></path></g></g><g style="display: block;" transform="matrix(1,-0.00004129031367483549,0.00004129031367483549,1,327.7787170410156,109.9998779296875)" opacity="1"><g opacity="1" transform="matrix(1,0,0,1,-3,31)"><path fill="rgb(215,215,215)" fill-opacity="1" d=" M63.5989990234375,-51.76499938964844 C75.10299682617188,-37.64899826049805 87.5250015258789,-16.2189998626709 80.15399932861328,20.45199966430664 C74.38983154296875,32.791500091552734 60.31283187866211,51.28233337402344 2.439666748046875,49.67266845703125 C66.23899841308594,17.066667556762695 75.34300231933594,-12.215999603271484 63.5989990234375,-51.76499938964844z"></path></g></g><g style="display: block;" transform="matrix(1,-0.00004129031367483549,0.00004129031367483549,1,327.7787170410156,109.9998779296875)" opacity="1"><g opacity="1" transform="matrix(1,0,0,1,-3,31)"><path fill="rgb(255,255,255)" fill-opacity="1" d=" M0,-82 C45.2869987487793,-82 82,-45.2869987487793 82,0 C82,7.771999835968018 80.91899871826172,15.291999816894531 78.89800262451172,22.41699981689453 C77.4729995727539,-7.425000190734863 68.87699890136719,-39.733001708984375 24.94499969482422,-58.138999938964844 C-5.366000175476074,-70.83799743652344 -33.34000015258789,-70.54100036621094 -58.5989990234375,-57.36000061035156 C-43.7140007019043,-72.56400299072266 -22.958999633789062,-82 0,-82z"></path></g></g><g style="display: block;" transform="matrix(1,-0.00004129031367483549,0.00004129031367483549,1,327.7787170410156,109.9998779296875)" opacity="1"><g opacity="1" transform="matrix(1,0,0,1,-3,31)"><path stroke-linecap="round" stroke-linejoin="round" fill-opacity="0" stroke="rgb(175,175,175)" stroke-opacity="1" stroke-width="7" d=" M-67.78800201416016,-46.12699890136719 C-53.02000045776367,-67.7760009765625 -28.158000946044922,-82 0,-82 C0,-82 0,-82 0,-82 C45.25579833984375,-82 82,-45.25579833984375 82,0 C82,2.619999885559082 81.87699890136719,5.210999965667725 81.63600158691406,7.769000053405762"></path></g></g><g style="display: block;" transform="matrix(1,0,0,1,151.77999877929688,240)" opacity="1"><g opacity="1" transform="matrix(1,0,0,1,-7,19)"><path fill="rgb(242,242,242)" fill-opacity="1" d=" M0,-96.5 C53.25835037231445,-96.5 96.5,-53.25835037231445 96.5,0 C96.5,53.25835037231445 53.25835037231445,96.5 0,96.5 C-53.25835037231445,96.5 -96.5,53.25835037231445 -96.5,0 C-96.5,-53.25835037231445 -53.25835037231445,-96.5 0,-96.5z"></path></g></g><g style="display: block;" transform="matrix(1,0,0,1,151.77999877929688,240)" opacity="1"><g opacity="1" transform="matrix(1,0,0,1,-7,19)"><path fill="rgb(215,215,215)" fill-opacity="1" d=" M13.777000427246094,45.516998291015625 C1.128000020980835,77.33599853515625 4.234000205993652,81.4739990234375 3.502000093460083,96.5 C-52.946998596191406,97.85299682617188 -96.5,53.29499816894531 -96.5,0 C-96.5,-24.95400047302246 -87.02899932861328,-47.69599914550781 -71.48400115966797,-64.8270034790039 C-86.21499633789062,-34.46799850463867 -82.27999877929688,75.5 13.777000427246094,45.516998291015625z"></path></g></g><g style="display: block;" transform="matrix(1,0.000030967734346631914,-0.000030967734346631914,1,151.78057861328125,240.00021362304688)" opacity="1"><g opacity="1" transform="matrix(1,0,0,1,-7,19)"><path stroke-linecap="round" stroke-linejoin="round" fill-opacity="0" stroke="rgb(175,175,175)" stroke-opacity="1" stroke-width="7" d=" M-23.59000015258789,93.58999633789062 C-65.46199798583984,83.0530014038086 -96.5,45.12200164794922 -96.5,0 C-96.5,-40.566001892089844 -71.41300201416016,-75.31999969482422 -35.92100143432617,-89.58200073242188"></path></g></g><g style="display: block;" transform="matrix(1,0.000030967734346631914,-0.000030967734346631914,1,151.78057861328125,240.00021362304688)" opacity="1"><g opacity="1" transform="matrix(1,0,0,1,-7,19)"><path stroke-linecap="round" stroke-linejoin="round" fill-opacity="0" stroke="rgb(127,127,127)" stroke-opacity="1" stroke-width="7" d=" M-23.354999542236328,93.64900207519531 C-65.34600067138672,83.19499969482422 -96.5,45.20600128173828 -96.5,0 C-96.5,-1.809999942779541 -96.44999694824219,-3.6080000400543213 -96.35099792480469,-5.394000053405762"></path></g></g><g style="display: block;" transform="matrix(1,0,0,1,234.27999877929688,327)" opacity="1"><g opacity="1" transform="matrix(1,0,0,1,-7,19)"><path fill="rgb(242,242,242)" fill-opacity="1" d=" M0,-80.5 C44.42795181274414,-80.5 80.5,-44.42795181274414 80.5,0 C80.5,44.42795181274414 44.42795181274414,80.5 0,80.5 C-44.42795181274414,80.5 -80.5,44.42795181274414 -80.5,0 C-80.5,-44.42795181274414 -44.42795181274414,-80.5 0,-80.5z"></path></g></g><g style="display: block;" transform="matrix(1,0,0,1,234.27999877929688,327)" opacity="1"><g opacity="1" transform="matrix(1,0,0,1,-7,19)"><path fill="rgb(215,215,215)" fill-opacity="1" d=" M-9.005000114440918,37.0620002746582 C26,42.45000076293945 77.94591522216797,16.28830909729004 96.92691040039062,-22.159690856933594 C93.84490966796875,19.592308044433594 53.682132720947266,81.60828399658203 0,80.5 C-44.449058532714844,79.58354949951172 -80.5,44.45899963378906 -80.5,0 C-80.5,-15.89900016784668 -75.89099884033203,-30.72100067138672 -67.93599700927734,-43.20399856567383 C-74.5530014038086,7.932000160217285 -43.58300018310547,31.73900032043457 -9.005000114440918,37.0620002746582z"></path></g></g><g style="display: block;" transform="matrix(1,-0.0000722580443834886,0.0000722580443834886,1,234.27862548828125,326.99951171875)" opacity="1"><g opacity="1" transform="matrix(1,0,0,1,-7,19)"><path stroke-linecap="round" stroke-linejoin="round" fill-opacity="0" stroke="rgb(127,127,127)" stroke-opacity="1" stroke-width="7" d=" M77.30500030517578,22.510000228881836 C67.55599975585938,55.99800109863281 36.61600112915039,80.5 0,80.5 C-44.42795181274414,80.5 -80.5,44.42795181274414 -80.5,0 C-80.5,-7.7769999504089355 -79.3949966430664,-15.29699993133545 -77.33300018310547,-22.413000106811523"></path></g></g><g style="display: block;" transform="matrix(1,0,0,1,396.2799987792969,264)" opacity="1"><g opacity="1" transform="matrix(1,0,0,1,-7,19)"><path fill="rgb(242,242,242)" fill-opacity="1" d=" M0,-73.5 C40.56465148925781,-73.5 73.5,-40.56465148925781 73.5,0 C73.5,40.56465148925781 40.56465148925781,73.5 0,73.5 C-40.56465148925781,73.5 -73.5,40.56465148925781 -73.5,0 C-73.5,-40.56465148925781 -40.56465148925781,-73.5 0,-73.5z"></path></g></g><g style="display: block;" transform="matrix(1,0,0,1,396.2799987792969,264)" opacity="1"><g opacity="1" transform="matrix(1,0,0,1,-7,19)"><path fill="rgb(215,215,215)" fill-opacity="1" d=" M45.02399826049805,26.55299949645996 C55.70600128173828,16.948999404907227 69.36199951171875,-14.390000343322754 36.08700180053711,-64.25700378417969 C56.7599983215332,-51.25 73.5,-26.229000091552734 73.5,0 C73.5,40.59299850463867 40.54199981689453,75.53800201416016 0,73.5 C-36.694000244140625,71.65499877929688 -35.990745544433594,59.05928421020508 -70.41974639892578,46.00828552246094 C-2.3027467727661133,54.57228469848633 14.333000183105469,54.145999908447266 45.02399826049805,26.55299949645996z"></path></g></g><g style="display: block;" transform="matrix(1,0.000051612889365060255,-0.000051612889365060255,1,396.2809753417969,264.0003662109375)" opacity="1"><g opacity="1" transform="matrix(1,0,0,1,-7,19)"><path stroke-linecap="round" stroke-linejoin="round" fill-opacity="0" stroke="rgb(175,175,175)" stroke-opacity="1" stroke-width="7" d=" M31.378999710083008,-66.4739990234375 C56.266998291015625,-54.69300079345703 73.5,-29.341999053955078 73.5,0 C73.5,40.56465148925781 40.56465148925781,73.5 0,73.5 C-8.055999755859375,73.5 -15.810999870300293,72.20099639892578 -23.066999435424805,69.8010025024414"></path></g></g><g style="display: block;" transform="matrix(1,0.000051612889365060255,-0.000051612889365060255,1,396.2809753417969,264.0003662109375)" opacity="1"><g opacity="1" transform="matrix(1,0,0,1,-7,19)"><path stroke-linecap="round" stroke-linejoin="round" fill-opacity="0" stroke="rgb(127,127,127)" stroke-opacity="1" stroke-width="7" d=" M73.35700225830078,4.616000175476074 C70.97200012207031,43.034000396728516 39.01499938964844,73.5 0,73.5 C-8.088000297546387,73.5 -15.873000144958496,72.19100189208984 -23.15399932861328,69.77200317382812"></path></g></g></g></g></svg>