<svg xmlns="http://www.w3.org/2000/svg" viewBox="0 0 512 512" width="512" height="512" style="width: 100%; height: 100%; transform: translate3d(0,0,0);" preserveAspectRatio="xMidYMid meet"><defs><clipPath id="__lottie_element_3294"><rect width="512" height="512" x="0" y="0"></rect></clipPath><linearGradient id="__lottie_element_3320" spreadMethod="pad" gradientUnits="userSpaceOnUse" x1="-56" y1="-21" x2="-42.46799850463867" y2="-0.05700000002980232"><stop offset="0%" stop-color="rgb(51,1,4)"></stop><stop offset="38%" stop-color="rgb(123,1,2)"></stop><stop offset="100%" stop-color="rgb(195,0,0)"></stop></linearGradient><linearGradient id="__lottie_element_3324" spreadMethod="pad" gradientUnits="userSpaceOnUse" x1="55" y1="-22" x2="68.53199768066406" y2="-1.0570000410079956"><stop offset="0%" stop-color="rgb(51,1,4)"></stop><stop offset="38%" stop-color="rgb(123,1,2)"></stop><stop offset="100%" stop-color="rgb(195,0,0)"></stop></linearGradient></defs><g clip-path="url(#__lottie_element_3294)"><g style="display: block;" transform="matrix(1,0,0,1,264,256)" opacity="1"><g opacity="1" transform="matrix(1,0,0,1,0,0)"><path fill="rgb(45,45,45)" fill-opacity="1" d=" M50.2400016784668,128.072998046875 C97.0199966430664,136.072998046875 128.77999877929688,152.0030059814453 141.77999877929688,168.2429962158203 C154.02000427246094,183.55299377441406 158.16099548339844,209.92300415039062 159.83099365234375,222.9429931640625 C159.83099365234375,222.9429931640625 159.83099365234375,222.9429931640625 159.83099365234375,222.9429931640625 C159.83099365234375,222.9429931640625 156.77099609375,226.39300537109375 146.91099548339844,228.84300231933594 C141.4510040283203,230.2030029296875 133.91000366210938,231.26300048828125 123.6500015258789,231.26300048828125 C123.6500015258789,231.26300048828125 -117.77899932861328,231.26300048828125 -117.77899932861328,231.26300048828125 C-127.6989974975586,231.26300048828125 -135.07899475097656,230.2729949951172 -140.48899841308594,228.98300170898438 C-150.78900146484375,226.51300048828125 -153.9600067138672,222.9429931640625 -153.9600067138672,222.9429931640625 C-152.16000366210938,209.54299926757812 -147.25900268554688,183.14300537109375 -135.33900451660156,168.2429962158203 C-122.33899688720703,152.0030059814453 -90.5790023803711,136.072998046875 -43.79899978637695,128.072998046875 C-12.444000244140625,125.96600341796875 18.902000427246094,125.98300170898438 50.2400016784668,128.072998046875z"></path></g><g opacity="0.6" transform="matrix(1,0,0,1,0,0)"><path stroke-linecap="round" stroke-linejoin="round" fill-opacity="0" stroke="rgb(0,0,0)" stroke-opacity="1" stroke-width="5" d=" M-128.73699951171875,188.8990020751953 C-126.76599884033203,199.66099548339844 -123.65599822998047,212.91799926757812 -118.5250015258789,228.06500244140625"></path></g><g opacity="0.2" transform="matrix(1,0,0,1,0,0)"><path fill="rgb(0,0,0)" fill-opacity="1" d=" M50.2400016784668,130.75 C49.981998443603516,196.2519989013672 97.94100189208984,239.97900390625 129.13499450683594,212.7100067138672 C129.13499450683594,212.7100067138672 123.23200225830078,231.25999450683594 123.23200225830078,231.25999450683594 C123.23200225830078,231.25999450683594 -117.72799682617188,231.25999450683594 -117.72799682617188,231.25999450683594 C-117.72799682617188,231.25999450683594 -123.63099670410156,212.7100067138672 -123.63099670410156,212.7100067138672 C-92.43699645996094,239.97900390625 -43.54100036621094,198.1219940185547 -43.79899978637695,132.6199951171875 C-43.79899978637695,132.6199951171875 50.2400016784668,130.75 50.2400016784668,130.75z"></path></g><g opacity="1" transform="matrix(1,0,0,1,0,0)"><path fill="rgb(61,61,61)" fill-opacity="1" d=" M50.2400016784668,128.072998046875 C97.0199966430664,136.072998046875 128.77999877929688,152.0030059814453 141.77999877929688,168.2429962158203 C154.02000427246094,183.55299377441406 161.83299255371094,222.5 161.83299255371094,222.5 C161.83299255371094,222.5 156.77099609375,226.39300537109375 146.91099548339844,228.84300231933594 C145.29100036621094,216.43299865722656 140.1699981689453,191.04299926757812 131.52000427246094,180.30299377441406 C108.61000061035156,151.84300231933594 50.2400016784668,145.67300415039062 50.2400016784668,145.67300415039062 C18.933000564575195,142.84500122070312 -12.413000106811523,142.8520050048828 -43.79899978637695,145.67300415039062 C-43.79899978637695,145.67300415039062 -102.16999816894531,151.84300231933594 -125.08000183105469,180.30299377441406 C-133.75999450683594,191.08299255371094 -138.88900756835938,216.6230010986328 -140.48899841308594,228.98300170898438 C-150.78900146484375,226.51300048828125 -156.33299255371094,221.66700744628906 -156.33299255371094,221.66700744628906 C-154.5330047607422,208.26699829101562 -147.25900268554688,183.14300537109375 -135.33900451660156,168.2429962158203 C-122.33899688720703,152.0030059814453 -90.5790023803711,136.072998046875 -43.79899978637695,128.072998046875 C-13.776000022888184,125.88899993896484 17.673999786376953,126.05999755859375 50.2400016784668,128.072998046875z"></path></g><g opacity="1" transform="matrix(1,0,0,1,0,0)"><g opacity="1" transform="matrix(1,0,0,1,0,0)"><path stroke-linecap="round" stroke-linejoin="round" fill-opacity="0" stroke="rgb(0,0,0)" stroke-opacity="1" stroke-width="8" d=" M160.4810028076172,219 C159.8300018310547,210.625 156.23899841308594,186.32400512695312 141.7790069580078,168.2429962158203 C128.7790069580078,152.0030059814453 97.01899719238281,136.072998046875 50.23899841308594,128.072998046875 C17.976999282836914,126.07099914550781 -13.456000328063965,125.87899780273438 -43.79899978637695,128.072998046875 C-90.5790023803711,136.072998046875 -122.33899688720703,152.0030059814453 -135.33900451660156,168.2429962158203 C-149.1959991455078,185.57000732421875 -152.9239959716797,210.23699951171875 -153.9600067138672,218.375"></path></g></g><g opacity="0.6" transform="matrix(1,0,0,1,0,0)"><path stroke-linecap="round" stroke-linejoin="round" fill-opacity="0" stroke="rgb(0,0,0)" stroke-opacity="1" stroke-width="5" d=" M134.73800659179688,189.11199951171875 C132.62399291992188,199.8350067138672 129.33900451660156,213.35800170898438 124.29000091552734,228.26499938964844"></path></g></g><g style="display: block;" transform="matrix(1,0,0,1,264,256)" opacity="1"><g opacity="1" transform="matrix(1,0,0,1,0,0)"><path fill="rgb(235,235,236)" fill-opacity="1" d=" M-39.659000396728516,110.572998046875 C-43.79999923706055,137.05999755859375 -20.926000595092773,206.5 5.0370001792907715,208.75 C31,211 50.2400016784668,134.94900512695312 45.22100067138672,110.01399993896484 C45.22100067138672,110.01399993896484 -39.659000396728516,110.572998046875 -39.659000396728516,110.572998046875z"></path></g><g opacity="1" transform="matrix(1,0,0,1,0,0)"><g opacity="1" transform="matrix(1,0,0,1,0,0)"><g opacity="0.3" transform="matrix(1,0,0,1,0,0)"><path fill="rgb(144,155,157)" fill-opacity="1" d=" M3.944999933242798,143.39100646972656 C3.944999933242798,143.39100646972656 -3.7899999618530273,160.3820037841797 -3.7899999618530273,160.3820037841797 C-4.4629998207092285,161.86000061035156 -6.142000198364258,162.4600067138672 -7.683000087738037,161.94900512695312 C-36.16699981689453,152.5 -33.06700134277344,117.9530029296875 -33.06700134277344,117.9530029296875 C-9.126999855041504,114.22000122070312 15.293000221252441,114.25399780273438 40.18000030517578,117.9530029296875 C40.18000030517578,117.9530029296875 50.2400016784668,150.0540008544922 17.267000198364258,161.56300354003906 C15.6850004196167,162.11500549316406 13.946000099182129,161.80499267578125 13.145999908447266,160.33299255371094 C13.145999908447266,160.33299255371094 3.944999933242798,143.39100646972656 3.944999933242798,143.39100646972656z"></path></g><g opacity="1" transform="matrix(1,0,0,1,0,0)"><path fill="rgb(231,230,231)" fill-opacity="1" d=" M3.944999933242798,122.49600219726562 C3.944999933242798,122.49600219726562 -8.958000183105469,150.0540008544922 -8.958000183105469,150.0540008544922 C-8.958000183105469,150.0540008544922 -26.586000442504883,142.74600219726562 -37.18199920654297,124.31600189208984 C-37.18199920654297,124.31600189208984 -33.06700134277344,100.05899810791016 -33.06700134277344,100.05899810791016 C-33.06700134277344,100.05899810791016 40.18000030517578,100.05899810791016 40.18000030517578,100.05899810791016 C40.18000030517578,100.05899810791016 43.255001068115234,124.21900177001953 43.255001068115234,124.21900177001953 C43.255001068115234,124.21900177001953 35.79600143432617,140.67300415039062 16.56800079345703,150.0540008544922 C16.56800079345703,150.0540008544922 3.944999933242798,122.49600219726562 3.944999933242798,122.49600219726562z"></path><path stroke-linecap="round" stroke-linejoin="round" fill-opacity="0" stroke="rgb(151,163,164)" stroke-opacity="1" stroke-width="8" d=" M3.944999933242798,122.49600219726562 C3.944999933242798,122.49600219726562 -8.958000183105469,150.0540008544922 -8.958000183105469,150.0540008544922 C-8.958000183105469,150.0540008544922 -26.586000442504883,142.74600219726562 -37.18199920654297,124.31600189208984 C-37.18199920654297,124.31600189208984 -33.06700134277344,100.05899810791016 -33.06700134277344,100.05899810791016 C-33.06700134277344,100.05899810791016 40.18000030517578,100.05899810791016 40.18000030517578,100.05899810791016 C40.18000030517578,100.05899810791016 43.255001068115234,124.21900177001953 43.255001068115234,124.21900177001953 C43.255001068115234,124.21900177001953 35.79600143432617,140.67300415039062 16.56800079345703,150.0540008544922 C16.56800079345703,150.0540008544922 3.944999933242798,122.49600219726562 3.944999933242798,122.49600219726562z"></path></g></g><g opacity="0.3" transform="matrix(1,0,0,1,0,0)"><path fill="rgb(144,155,157)" fill-opacity="1" d=" M40.95000076293945,100.06300354003906 C40.95000076293945,100.06300354003906 3.940000057220459,100.06300354003906 3.940000057220459,100.06300354003906 C3.940000057220459,100.06300354003906 -33.06999969482422,100.06300354003906 -33.06999969482422,100.06300354003906 C-33.06999969482422,100.06300354003906 -37.18000030517578,124.31300354003906 -37.18000030517578,124.31300354003906 C-32.720001220703125,132.06300354003906 -25.030000686645508,134.84300231933594 -19.920000076293945,138.93299865722656 C-20.190000534057617,138.2830047607422 -27.368999481201172,128.38400268554688 -21.799999237060547,122.00299835205078 C-16.110000610351562,115.48300170898438 -10.859999656677246,120.49299621582031 3.940000057220459,120.49299621582031 C18.739999771118164,120.49299621582031 23.98900032043457,115.48400115966797 29.68000030517578,122.00299835205078 C35.25,128.38299560546875 28.06999969482422,138.2830047607422 27.799999237060547,138.93299865722656 C32.90999984741211,134.84300231933594 40.599998474121094,132.06300354003906 45.060001373291016,124.31300354003906 C45.060001373291016,124.31300354003906 40.95000076293945,100.06300354003906 40.95000076293945,100.06300354003906z"></path></g></g><g opacity="1" transform="matrix(1,0,0,1,0,0)"><g opacity="1" transform="matrix(1,0,0,1,0,0)"><path fill="rgb(208,0,96)" fill-opacity="1" d=" M50.2400016784668,128.07000732421875 C50.2400016784668,128.07000732421875 50.2400016784668,231.25999450683594 50.2400016784668,231.25999450683594 C50.2400016784668,231.25999450683594 -43.79999923706055,231.25999450683594 -43.79999923706055,231.25999450683594 C-43.79999923706055,231.25999450683594 -43.79999923706055,128.07000732421875 -43.79999923706055,128.07000732421875 C-42.22999954223633,127.80000305175781 -40.650001525878906,127.54000091552734 -39.04999923706055,127.30000305175781 C-32.779998779296875,146 4.539999961853027,205.6699981689453 4.539999961853027,205.6699981689453 C4.539999961853027,205.6699981689453 38.4900016784668,146.97000122070312 44.599998474121094,127.44000244140625 C44.599998474121094,127.44000244140625 50.2400016784668,128.07000732421875 50.2400016784668,128.07000732421875z"></path></g><g opacity="1" transform="matrix(1,0,0,1,0,0)"><path stroke-linecap="round" stroke-linejoin="round" fill-opacity="0" stroke="rgb(0,0,0)" stroke-opacity="1" stroke-width="8" d=" M50.2400016784668,226.98300170898438 C50.2400016784668,226.98300170898438 50.2400016784668,125.24400329589844 50.2400016784668,125.24400329589844"></path></g><g opacity="1" transform="matrix(1,0,0,1,0,0)"><path stroke-linecap="round" stroke-linejoin="round" fill-opacity="0" stroke="rgb(0,0,0)" stroke-opacity="1" stroke-width="8" d=" M-43.79999923706055,226.98300170898438 C-43.79999923706055,226.98300170898438 -43.79999923706055,125.24400329589844 -43.79999923706055,125.24400329589844"></path></g><g opacity="1" transform="matrix(1,0,0,1,0,0)"><path stroke-linecap="round" stroke-linejoin="round" fill-opacity="0" stroke="rgb(135,0,72)" stroke-opacity="1" stroke-width="8" d=" M45.22100067138672,125.24400329589844 C41.34199905395508,142.052001953125 4.540999889373779,205.66799926757812 4.540999889373779,205.66799926757812 C4.540999889373779,205.66799926757812 -35.85599899291992,141.08099365234375 -39.659000396728516,125.24400329589844"></path></g></g></g><g style="display: block;" transform="matrix(1,0,0,1,264,256)" opacity="1"><g opacity="1" transform="matrix(1,0,0,1,0,0)"><path fill="rgb(208,0,0)" fill-opacity="1" d=" M197.67100524902344,-135.4409942626953 C159.37899780273438,-104.33300018310547 85.81700134277344,-80.18900299072266 1.7990000247955322,-77.28900146484375 C-78.24099731445312,-74.5270004272461 -153,-108 -190.5,-135.4409942626953 C-190.5,-135.4409942626953 -194.86199951171875,-73.177001953125 -185,-29.780000686645508 C-177.82699584960938,1.7879999876022339 -156.28399658203125,77.91699981689453 -47.02899932861328,154.55999755859375 C-47.02899932861328,154.55999755859375 -41.15999984741211,92.18900299072266 -15.701000213623047,53.4640007019043 C-5.492000102996826,37.935001373291016 11.557000160217285,37.935001373291016 21.766000747680664,53.4640007019043 C47.224998474121094,92.18900299072266 53.09400177001953,154.55999755859375 53.09400177001953,154.55999755859375 C162.3489990234375,77.91699981689453 181.32699584960938,-2.308000087738037 188.5,-33.875999450683594 C198.36199951171875,-77.27300262451172 197.67100524902344,-135.4409942626953 197.67100524902344,-135.4409942626953z"></path><path stroke-linecap="round" stroke-linejoin="round" fill-opacity="0" stroke="rgb(87,0,0)" stroke-opacity="1" stroke-width="8" d=" M197.67100524902344,-135.4409942626953 C159.37899780273438,-104.33300018310547 85.81700134277344,-80.18900299072266 1.7990000247955322,-77.28900146484375 C-78.24099731445312,-74.5270004272461 -153,-108 -190.5,-135.4409942626953 C-190.5,-135.4409942626953 -194.86199951171875,-73.177001953125 -185,-29.780000686645508 C-177.82699584960938,1.7879999876022339 -156.28399658203125,77.91699981689453 -47.02899932861328,154.55999755859375 C-47.02899932861328,154.55999755859375 -41.15999984741211,92.18900299072266 -15.701000213623047,53.4640007019043 C-5.492000102996826,37.935001373291016 11.557000160217285,37.935001373291016 21.766000747680664,53.4640007019043 C47.224998474121094,92.18900299072266 53.09400177001953,154.55999755859375 53.09400177001953,154.55999755859375 C162.3489990234375,77.91699981689453 181.32699584960938,-2.308000087738037 188.5,-33.875999450683594 C198.36199951171875,-77.27300262451172 197.67100524902344,-135.4409942626953 197.67100524902344,-135.4409942626953z"></path></g><g opacity="0.4" transform="matrix(1,0,0,1,0,0)"><path fill="rgb(99,0,0)" fill-opacity="1" d=" M-28.950000762939453,79.37000274658203 C-28.950000762939453,79.37999725341797 -28.950000762939453,79.37999725341797 -28.950000762939453,79.37999725341797 C-43.310001373291016,115.04000091552734 -48.5620002746582,143.625 -48.6619987487793,143.55499267578125 C-46.0099983215332,128.36500549316406 -60.68600082397461,126.86499786376953 -78.20999908447266,108.33999633789062 C-121.86599731445312,62.189998626708984 -96.82599639892578,13.317000389099121 -96.82599639892578,13.317000389099121 C-54.16600036621094,-1.0529999732971191 -40.36000061035156,40.9900016784668 -28.950000762939453,79.37000274658203z"></path></g><g opacity="0.4" transform="matrix(1,0,0,1,0,0)"><path fill="rgb(99,0,0)" fill-opacity="1" d=" M-98.87999725341797,-56.111000061035156 C-166.7100067138672,-88.41799926757812 -176.2949981689453,-43.67900085449219 -180.375,-34.202999114990234 C-186.98500061035156,-76.3270034790039 -197.69000244140625,-126.17400360107422 -197.69000244140625,-126.17400360107422 C-169.7100067138672,-103.44999694824219 -123.4000015258789,-79.74199676513672 -65.94000244140625,-69.06700134277344 C-63.43000030517578,-49.8129997253418 -70.33000183105469,-42.50199890136719 -98.87999725341797,-56.111000061035156z"></path></g><g opacity="0.4" transform="matrix(1,0,0,1,0,0)"><path fill="rgb(99,0,0)" fill-opacity="1" d=" M34.8390007019043,79.37000274658203 C34.8390007019043,79.37999725341797 34.8390007019043,79.37999725341797 34.8390007019043,79.37999725341797 C49.19900131225586,115.04000091552734 54.45199966430664,144.625 54.551998138427734,144.55499267578125 C51.900001525878906,129.36500549316406 66.57499694824219,126.86499786376953 84.0989990234375,108.33999633789062 C127.75499725341797,62.189998626708984 102.71499633789062,13.317000389099121 102.71499633789062,13.317000389099121 C60.05500030517578,-1.0529999732971191 46.249000549316406,40.9900016784668 34.8390007019043,79.37000274658203z"></path></g><g opacity="0.4" transform="matrix(1,0,0,1,0,0)"><path fill="rgb(99,0,0)" fill-opacity="1" d=" M104.94499969482422,-56.111000061035156 C172.77499389648438,-88.41799926757812 182.36000061035156,-43.67900085449219 186.44000244140625,-34.202999114990234 C193.0500030517578,-76.3270034790039 203.7550048828125,-126.17400360107422 203.7550048828125,-126.17400360107422 C175.77499389648438,-103.44999694824219 129.46499633789062,-79.74199676513672 72.00499725341797,-69.06700134277344 C69.49500274658203,-49.8129997253418 76.3949966430664,-42.50199890136719 104.94499969482422,-56.111000061035156z"></path></g><g opacity="1" transform="matrix(1,0,0,1,0,0)"><path fill="rgb(45,45,45)" fill-opacity="1" d=" M-47.02899932861328,154.55999755859375 C-157.20899963378906,81.01200103759766 -185.09800720214844,-0.5450000166893005 -192.21299743652344,-31.805999755859375 C-202.07699584960938,-75.20800018310547 -197.68699645996094,-140.17799377441406 -197.68699645996094,-140.17799377441406 C-190.12600708007812,-152.5399932861328 -174.92100524902344,-160.50799560546875 -174.92100524902344,-160.50799560546875 C-174.92100524902344,-160.50799560546875 -180,-58.48500061035156 -165.5959930419922,-10.25 C-135.21499633789062,91.48600006103516 -62.97800064086914,143.57000732421875 -47.02899932861328,154.55999755859375z"></path><path stroke-linecap="round" stroke-linejoin="round" fill-opacity="0" stroke="rgb(0,0,0)" stroke-opacity="1" stroke-width="8" d=" M-47.02899932861328,154.55999755859375 C-157.20899963378906,81.01200103759766 -185.09800720214844,-0.5450000166893005 -192.21299743652344,-31.805999755859375 C-202.07699584960938,-75.20800018310547 -197.68699645996094,-140.17799377441406 -197.68699645996094,-140.17799377441406 C-190.12600708007812,-152.5399932861328 -174.92100524902344,-160.50799560546875 -174.92100524902344,-160.50799560546875 C-174.92100524902344,-160.50799560546875 -180,-58.48500061035156 -165.5959930419922,-10.25 C-135.21499633789062,91.48600006103516 -62.97800064086914,143.57000732421875 -47.02899932861328,154.55999755859375z"></path></g><g opacity="1" transform="matrix(1,0,0,1,0,0)"><path fill="rgb(45,45,45)" fill-opacity="1" d=" M53.09400177001953,154.55999755859375 C163.2740020751953,81.01200103759766 191.16299438476562,-0.5450000166893005 198.2779998779297,-31.805999755859375 C208.14199829101562,-75.20800018310547 203.7519989013672,-140.17799377441406 203.7519989013672,-140.17799377441406 C196.1909942626953,-152.5399932861328 180.98599243164062,-160.50799560546875 180.98599243164062,-160.50799560546875 C180.98599243164062,-160.50799560546875 185.5,-48.20000076293945 171.66099548339844,-10.25 C135.28700256347656,89.5 69.04299926757812,143.57000732421875 53.09400177001953,154.55999755859375z"></path><path stroke-linecap="round" stroke-linejoin="round" fill-opacity="0" stroke="rgb(0,0,0)" stroke-opacity="1" stroke-width="8" d=" M53.09400177001953,154.55999755859375 C163.2740020751953,81.01200103759766 191.16299438476562,-0.5450000166893005 198.2779998779297,-31.805999755859375 C208.14199829101562,-75.20800018310547 203.7519989013672,-140.17799377441406 203.7519989013672,-140.17799377441406 C196.1909942626953,-152.5399932861328 180.98599243164062,-160.50799560546875 180.98599243164062,-160.50799560546875 C180.98599243164062,-160.50799560546875 185.5,-48.20000076293945 171.66099548339844,-10.25 C135.28700256347656,89.5 69.04299926757812,143.57000732421875 53.09400177001953,154.55999755859375z"></path></g></g><g style="display: block;" transform="matrix(1,0,0,1,263.25,254.25)" opacity="1"><g opacity="1" transform="matrix(1,0,0,1,0,0)"><path fill="rgb(179,145,0)" fill-opacity="1" d=" M-39.10100173950195,152.4499969482422 C-39.10100173950195,156.8679962158203 -42.933998107910156,160.4499969482422 -47.6619987487793,160.4499969482422 C-52.38999938964844,160.4499969482422 -56.222999572753906,156.8679962158203 -56.222999572753906,152.4499969482422 C-56.222999572753906,148.03199768066406 -52.38999938964844,144.4499969482422 -47.6619987487793,144.4499969482422 C-42.933998107910156,144.4499969482422 -39.10100173950195,148.03199768066406 -39.10100173950195,152.4499969482422z"></path><path stroke-linecap="round" stroke-linejoin="round" fill-opacity="0" stroke="rgb(207,194,63)" stroke-opacity="1" stroke-width="5" d=" M-39.10100173950195,152.4499969482422 C-39.10100173950195,156.8679962158203 -42.933998107910156,160.4499969482422 -47.6619987487793,160.4499969482422 C-52.38999938964844,160.4499969482422 -56.222999572753906,156.8679962158203 -56.222999572753906,152.4499969482422 C-56.222999572753906,148.03199768066406 -52.38999938964844,144.4499969482422 -47.6619987487793,144.4499969482422 C-42.933998107910156,144.4499969482422 -39.10100173950195,148.03199768066406 -39.10100173950195,152.4499969482422z"></path></g><g opacity="1" transform="matrix(1,0,0,1,0,0)"><path fill="rgb(179,145,0)" fill-opacity="1" d=" M63.02199935913086,152.4499969482422 C63.02199935913086,156.8679962158203 59.18899917602539,160.4499969482422 54.46099853515625,160.4499969482422 C49.733001708984375,160.4499969482422 45.900001525878906,156.8679962158203 45.900001525878906,152.4499969482422 C45.900001525878906,148.03199768066406 49.733001708984375,144.4499969482422 54.46099853515625,144.4499969482422 C59.18899917602539,144.4499969482422 63.02199935913086,148.03199768066406 63.02199935913086,152.4499969482422z"></path><path stroke-linecap="round" stroke-linejoin="round" fill-opacity="0" stroke="rgb(207,194,63)" stroke-opacity="1" stroke-width="5" d=" M63.02199935913086,152.4499969482422 C63.02199935913086,156.8679962158203 59.18899917602539,160.4499969482422 54.46099853515625,160.4499969482422 C49.733001708984375,160.4499969482422 45.900001525878906,156.8679962158203 45.900001525878906,152.4499969482422 C45.900001525878906,148.03199768066406 49.733001708984375,144.4499969482422 54.46099853515625,144.4499969482422 C59.18899917602539,144.4499969482422 63.02199935913086,148.03199768066406 63.02199935913086,152.4499969482422z"></path></g></g><g style="display: block;" transform="matrix(1,0,0,1,262.8789978027344,253.96798706054688)" opacity="1"><g opacity="1" transform="matrix(1,0,0,1,0,0)"><path fill="rgb(0,0,0)" fill-opacity="1" d=" M101.15399932861328,43.91899871826172 C118.66000366210938,43.91899871826172 93.43399810791016,97.56600189208984 93.43399810791016,97.56600189208984 C93.43399810791016,97.56600189208984 93.06099700927734,72.74299621582031 54.1150016784668,80.08000183105469 C54.1150016784668,80.08000183105469 -37.42900085449219,86.11100006103516 -37.42900085449219,86.11100006103516 C-76.63899993896484,74.3290023803711 -80.76200103759766,98.56600189208984 -80.76200103759766,98.56600189208984 C-80.76200103759766,98.56600189208984 -97.70899963378906,40.507999420166016 -87.81500244140625,41.84600067138672 C-87.81500244140625,41.84600067138672 101.15399932861328,43.91899871826172 101.15399932861328,43.91899871826172z"></path><path stroke-linecap="round" stroke-linejoin="round" fill-opacity="0" stroke="rgb(0,0,0)" stroke-opacity="1" stroke-width="8" d=" M101.15399932861328,43.91899871826172 C118.66000366210938,43.91899871826172 93.43399810791016,97.56600189208984 93.43399810791016,97.56600189208984 C93.43399810791016,97.56600189208984 93.06099700927734,72.74299621582031 54.1150016784668,80.08000183105469 C54.1150016784668,80.08000183105469 -37.42900085449219,86.11100006103516 -37.42900085449219,86.11100006103516 C-76.63899993896484,74.3290023803711 -80.76200103759766,98.56600189208984 -80.76200103759766,98.56600189208984 C-80.76200103759766,98.56600189208984 -97.70899963378906,40.507999420166016 -87.81500244140625,41.84600067138672 C-87.81500244140625,41.84600067138672 101.15399932861328,43.91899871826172 101.15399932861328,43.91899871826172z"></path></g></g><g style="display: block;" transform="matrix(1,0,0,1,261.67999267578125,253.41799926757812)" opacity="1"><g opacity="1" transform="matrix(1,0,0,1,0,0)"><path fill="rgb(255,205,0)" fill-opacity="1" d=" M-103.2979965209961,-23.143999099731445 C-120.91400146484375,-52.95600128173828 -151.31100463867188,-51.777000427246094 -151.31100463867188,-51.777000427246094 C-151.31100463867188,-34.44900131225586 -127.51699829101562,26.00200080871582 -99.87899780273438,16.315000534057617"></path><path stroke-linecap="round" stroke-linejoin="round" fill-opacity="0" stroke="rgb(220,109,0)" stroke-opacity="1" stroke-width="8" d=" M-103.2979965209961,-23.143999099731445 C-120.91400146484375,-52.95600128173828 -151.31100463867188,-51.777000427246094 -151.31100463867188,-51.777000427246094 C-151.31100463867188,-34.44900131225586 -127.51699829101562,26.00200080871582 -99.87899780273438,16.315000534057617"></path></g></g><g style="display: block;" transform="matrix(1,0,0,1,262.7690124511719,253.3209991455078)" opacity="1"><g opacity="1" transform="matrix(1,0,0,1,0,0)"><path fill="rgb(255,205,0)" fill-opacity="1" d=" M111.46900177001953,-23.143999099731445 C129.0850067138672,-52.95600128173828 159.4810028076172,-51.777000427246094 159.4810028076172,-51.777000427246094 C159.4810028076172,-34.44900131225586 135.68800354003906,26.00200080871582 108.05000305175781,16.315000534057617"></path><path stroke-linecap="round" stroke-linejoin="round" fill-opacity="0" stroke="rgb(220,109,0)" stroke-opacity="1" stroke-width="8" d=" M111.46900177001953,-23.143999099731445 C129.0850067138672,-52.95600128173828 159.4810028076172,-51.777000427246094 159.4810028076172,-51.777000427246094 C159.4810028076172,-34.44900131225586 135.68800354003906,26.00200080871582 108.05000305175781,16.315000534057617"></path></g></g><g style="display: block;" transform="matrix(1,0,0,1,262.8789978027344,253.96798706054688)" opacity="1"><g opacity="1" transform="matrix(1,0,0,1,0,0)"><path fill="rgb(255,205,0)" fill-opacity="1" d=" M94.2020034790039,-122.3010025024414 C73.04199981689453,-151.68899536132812 45.180999755859375,-168.9709930419922 3.2950000762939453,-168.9709930419922 C-38.590999603271484,-168.9709930419922 -66.4530029296875,-151.68899536132812 -87.61199951171875,-122.3010025024414 C-108.77200317382812,-92.91300201416016 -126.40399932861328,-24.381000518798828 -98.77899932861328,33.220001220703125 C-71.15499877929688,90.82099914550781 -24.485000610351562,109.04000091552734 3.2950000762939453,109.04000091552734 C31.075000762939453,109.04000091552734 77.74400329589844,90.82099914550781 105.36900329589844,33.220001220703125 C132.9929962158203,-24.381000518798828 115.36100006103516,-92.91300201416016 94.2020034790039,-122.3010025024414z"></path><path stroke-linecap="round" stroke-linejoin="round" fill-opacity="0" stroke="rgb(220,109,0)" stroke-opacity="1" stroke-width="8" d=" M94.2020034790039,-122.3010025024414 C73.04199981689453,-151.68899536132812 45.180999755859375,-168.9709930419922 3.2950000762939453,-168.9709930419922 C-38.590999603271484,-168.9709930419922 -66.4530029296875,-151.68899536132812 -87.61199951171875,-122.3010025024414 C-108.77200317382812,-92.91300201416016 -126.40399932861328,-24.381000518798828 -98.77899932861328,33.220001220703125 C-71.15499877929688,90.82099914550781 -24.485000610351562,109.04000091552734 3.2950000762939453,109.04000091552734 C31.075000762939453,109.04000091552734 77.74400329589844,90.82099914550781 105.36900329589844,33.220001220703125 C132.9929962158203,-24.381000518798828 115.36100006103516,-92.91300201416016 94.2020034790039,-122.3010025024414z"></path></g><g opacity="1" transform="matrix(1,0,0,1,0,0)"><path fill="rgb(255,170,0)" fill-opacity="1" d=" M94.6050033569336,-122.30000305175781 C85.66699981689453,-138 -76.5,-140.25 -88.01499938964844,-122.30000305175781 C-100.9219970703125,-102.18000030517578 -114.41100311279297,-66.4489974975586 -113.30400085449219,-27.343000411987305 C-112.73400115966797,-7.203000068664551 -75.5,-11.25 -66.625,-61.38999938964844 C-64.28399658203125,-74.61799621582031 -46.314998626708984,-61.38999938964844 3.2950000762939453,-61.38999938964844 C52.904998779296875,-61.38999938964844 72.4260025024414,-74.53099822998047 75.21499633789062,-61.38999938964844 C85.75,-11.75 119.6760025024414,-9.017999649047852 119.947998046875,-29.96500015258789 C120.44300079345703,-68.0719985961914 106.16699981689453,-101.99099731445312 94.6050033569336,-122.30000305175781z"></path></g></g><g style="display: block;" transform="matrix(1,0,0,1,262.9360046386719,254.02999877929688)" opacity="1"><g opacity="1" transform="matrix(1,0,0,1,0,0)"><path fill="rgb(255,170,0)" fill-opacity="1" d=" M18.07699966430664,37.22700119018555 C18.07699966430664,43.176998138427734 11.458999633789062,47.999000549316406 3.2950000762939453,47.999000549316406 C-4.86899995803833,47.999000549316406 -11.48799991607666,43.176998138427734 -11.48799991607666,37.22700119018555 C-11.48799991607666,31.277000427246094 -4.86899995803833,26.70800018310547 3.2950000762939453,26.70800018310547 C11.458999633789062,26.70800018310547 18.07699966430664,31.277000427246094 18.07699966430664,37.22700119018555z"></path></g><g opacity="1" transform="matrix(1,0,0,1,0,0)"><path fill="rgb(255,205,0)" fill-opacity="1" d=" M16.08300018310547,33.82600021362305 C16.08300018310547,38.255001068115234 10.357999801635742,41.84600067138672 3.2950000762939453,41.84600067138672 C-3.7679998874664307,41.84600067138672 -9.493000030517578,38.255001068115234 -9.493000030517578,33.82600021362305 C-9.493000030517578,29.39699935913086 -3.7679998874664307,26.534000396728516 3.2950000762939453,26.534000396728516 C10.357999801635742,26.534000396728516 16.08300018310547,29.39699935913086 16.08300018310547,33.82600021362305z"></path></g><g opacity="1" transform="matrix(1,0,0,1,0,0)"><path fill="rgb(255,224,112)" fill-opacity="1" d=" M9.883000373840332,30.065000534057617 C9.883000373840332,32.073001861572266 6.934000015258789,33.96200180053711 3.2950000762939453,33.96200180053711 C-0.3440000116825104,33.96200180053711 -3.2939999103546143,32.073001861572266 -3.2939999103546143,30.065000534057617 C-3.2939999103546143,28.05699920654297 -0.3440000116825104,27.048999786376953 3.2950000762939453,27.048999786376953 C6.934000015258789,27.048999786376953 9.883000373840332,28.05699920654297 9.883000373840332,30.065000534057617z"></path></g></g><g style="display: block;" transform="matrix(1,0,0,1,262.9360046386719,254.02999877929688)" opacity="1"><g opacity="1" transform="matrix(1,0,0,1,0,0)"><path fill="rgb(255,245,201)" fill-opacity="1" d=" M26.999000549316406,-0.42399999499320984 C26.999000549316406,-0.42399999499320984 28.500999450683594,-34.1609992980957 55.16600036621094,-39.61199951171875 C80.84600067138672,-44.861000061035156 93.06099700927734,-17.940000534057617 93.06099700927734,-17.940000534057617 C93.06099700927734,-17.940000534057617 91.46099853515625,1.3270000219345093 69.52899932861328,7.895999908447266 C44.89799880981445,15.27299976348877 26.999000549316406,-0.42399999499320984 26.999000549316406,-0.42399999499320984z"></path></g><g opacity="1" transform="matrix(1,0,0,1,0,0)"><g opacity="1" transform="matrix(1,0,0,1,0,0)"><path fill="url(#__lottie_element_3324)" fill-opacity="1" d=" M79.14800262451172,-15.361000061035156 C79.14800262451172,-4.056000232696533 70.5,5.109000205993652 59.832000732421875,5.109000205993652 C49.16400146484375,5.109000205993652 40.51599884033203,-4.056000232696533 40.51599884033203,-15.361000061035156 C40.51599884033203,-26.666000366210938 49.16400146484375,-35.83000183105469 59.832000732421875,-35.83000183105469 C70.5,-35.83000183105469 79.14800262451172,-26.666000366210938 79.14800262451172,-15.361000061035156z"></path></g><g opacity="1" transform="matrix(1,0,0,1,0,0)"><path fill="rgb(24,19,9)" fill-opacity="1" d=" M72.04000091552734,-15.361000061035156 C72.04000091552734,-8.215999603271484 66.5739974975586,-2.4240000247955322 59.832000732421875,-2.4240000247955322 C53.09000015258789,-2.4240000247955322 47.624000549316406,-8.215999603271484 47.624000549316406,-15.361000061035156 C47.624000549316406,-22.506000518798828 53.09000015258789,-28.29800033569336 59.832000732421875,-28.29800033569336 C66.5739974975586,-28.29800033569336 72.04000091552734,-22.506000518798828 72.04000091552734,-15.361000061035156z"></path></g><g opacity="1" transform="matrix(1,0,0,1,0,0)"><path fill="rgb(243,243,243)" fill-opacity="1" d=" M58.75,-26.514999389648438 C58.75,-23.802000045776367 56.67499923706055,-21.60300064086914 54.1150016784668,-21.60300064086914 C51.55500030517578,-21.60300064086914 49.479000091552734,-23.802000045776367 49.479000091552734,-26.514999389648438 C49.479000091552734,-29.22800064086914 51.55500030517578,-31.42799949645996 54.1150016784668,-31.42799949645996 C56.67499923706055,-31.42799949645996 58.75,-29.22800064086914 58.75,-26.514999389648438z"></path></g><g opacity="1" transform="matrix(1,0,0,1,0,0)"><path stroke-linecap="round" stroke-linejoin="round" fill-opacity="0" stroke="rgb(255,0,0)" stroke-opacity="1" stroke-width="3.5" d=" M74.1259994506836,-9.579000473022461 C72.69000244140625,-5.045000076293945 69.25599670410156,-1.4830000400543213 64.93199920654297,-0.0689999982714653"></path></g></g><g opacity="1" transform="matrix(1,0,0,1,0,0)"><path fill="rgb(255,205,0)" fill-opacity="1" d=" M93.66699981689453,-20.60300064086914 C93.66699981689453,-20.60300064086914 93.06099700927734,4.75 62.83300018310547,9.868000030517578 C39.242000579833984,13.862000465393066 20.125,-5.375 20.125,-5.375 C20.125,-5.375 18.268999099731445,38.85900115966797 62.358001708984375,27.18899917602539 C106.4469985961914,15.519000053405762 102.95600128173828,-12.102999687194824 93.66699981689453,-20.60300064086914z"></path></g><g opacity="1" transform="matrix(1,0,0,1,0,0)"><path fill="rgb(255,205,0)" fill-opacity="1" d=" M22.211000442504883,-1.25 C22.211000442504883,-1.25 34,-38.44599914550781 57.75,-41.347999572753906 C81.5,-44.25 96.75,-13.361000061035156 96.75,-13.361000061035156 C96.75,-13.361000061035156 88.57499694824219,-47.17499923706055 55.9900016784668,-44.38600158691406 C32.084999084472656,-42.34000015258789 12.92199993133545,-9.75 22.211000442504883,-1.25z"></path></g><g opacity="1" transform="matrix(1,0,0,1,0,0)"><path fill="rgb(0,0,0)" fill-opacity="1" d=" M29.451000213623047,-13.361000061035156 C29.451000213623047,-13.361000061035156 36.702999114990234,-37.84400177001953 58.582000732421875,-39.3849983215332 C81.23799896240234,-40.98099899291992 91.22799682617188,-21.295000076293945 91.22799682617188,-21.295000076293945 C91.22799682617188,-21.295000076293945 79.7030029296875,-44.667999267578125 56.54199981689453,-40.946998596191406 C36.143001556396484,-37.66999816894531 29.451000213623047,-13.361000061035156 29.451000213623047,-13.361000061035156z"></path><path stroke-linecap="round" stroke-linejoin="round" fill-opacity="0" stroke="rgb(0,0,0)" stroke-opacity="1" stroke-width="2" d=" M29.451000213623047,-13.361000061035156 C29.451000213623047,-13.361000061035156 36.702999114990234,-37.84400177001953 58.582000732421875,-39.3849983215332 C81.23799896240234,-40.98099899291992 91.22799682617188,-21.295000076293945 91.22799682617188,-21.295000076293945 C91.22799682617188,-21.295000076293945 79.7030029296875,-44.667999267578125 56.54199981689453,-40.946998596191406 C36.143001556396484,-37.66999816894531 29.451000213623047,-13.361000061035156 29.451000213623047,-13.361000061035156z"></path></g></g><g style="display: block;" transform="matrix(1,0,0,1,262.9360046386719,254.02999877929688)" opacity="1"><g opacity="1" transform="matrix(1,0,0,1,0,0)"><path fill="rgb(255,245,201)" fill-opacity="1" d=" M-20.69099998474121,-0.42399999499320984 C-20.69099998474121,-0.42399999499320984 -22.19300079345703,-34.1609992980957 -48.858001708984375,-39.61199951171875 C-74.53800201416016,-44.861000061035156 -86.75299835205078,-17.940000534057617 -86.75299835205078,-17.940000534057617 C-86.75299835205078,-17.940000534057617 -85.15299987792969,1.3270000219345093 -63.22100067138672,7.895999908447266 C-38.5890007019043,15.27299976348877 -20.69099998474121,-0.42399999499320984 -20.69099998474121,-0.42399999499320984z"></path></g><g opacity="1" transform="matrix(1,0,0,1,-0.5329999923706055,0.17599999904632568)"><g opacity="1" transform="matrix(1,0,0,1,0,0)"><path fill="url(#__lottie_element_3320)" fill-opacity="1" d=" M-32.40599822998047,-14.361000061035156 C-32.40599822998047,-3.055999994277954 -41.05400085449219,6.109000205993652 -51.72200012207031,6.109000205993652 C-62.38999938964844,6.109000205993652 -71.03800201416016,-3.055999994277954 -71.03800201416016,-14.361000061035156 C-71.03800201416016,-25.666000366210938 -62.38999938964844,-34.83000183105469 -51.72200012207031,-34.83000183105469 C-41.05400085449219,-34.83000183105469 -32.40599822998047,-25.666000366210938 -32.40599822998047,-14.361000061035156z"></path></g><g opacity="1" transform="matrix(1,0,0,1,0,0)"><path fill="rgb(24,19,9)" fill-opacity="1" d=" M-39.51499938964844,-14.361000061035156 C-39.51499938964844,-7.216000080108643 -44.97999954223633,-1.4240000247955322 -51.72200012207031,-1.4240000247955322 C-58.4640007019043,-1.4240000247955322 -63.93000030517578,-7.216000080108643 -63.93000030517578,-14.361000061035156 C-63.93000030517578,-21.506000518798828 -58.4640007019043,-27.29800033569336 -51.72200012207031,-27.29800033569336 C-44.97999954223633,-27.29800033569336 -39.51499938964844,-21.506000518798828 -39.51499938964844,-14.361000061035156z"></path></g><g opacity="1" transform="matrix(1,0,0,1,0,0)"><path fill="rgb(243,243,243)" fill-opacity="1" d=" M-52.80400085449219,-25.514999389648438 C-52.80400085449219,-22.802000045776367 -54.880001068115234,-20.60300064086914 -57.439998626708984,-20.60300064086914 C-60,-20.60300064086914 -62.07600021362305,-22.802000045776367 -62.07600021362305,-25.514999389648438 C-62.07600021362305,-28.22800064086914 -60,-30.42799949645996 -57.439998626708984,-30.42799949645996 C-54.880001068115234,-30.42799949645996 -52.80400085449219,-28.22800064086914 -52.80400085449219,-25.514999389648438z"></path></g><g opacity="1" transform="matrix(1,0,0,1,0,0)"><path stroke-linecap="round" stroke-linejoin="round" fill-opacity="0" stroke="rgb(255,0,0)" stroke-opacity="1" stroke-width="3.5" d=" M-37.42900085449219,-8.579000473022461 C-38.8650016784668,-4.045000076293945 -42.29899978637695,-0.4830000102519989 -46.62300109863281,0.9309999942779541"></path></g></g><g opacity="1" transform="matrix(1,0,0,1,0,0)"><path fill="rgb(255,205,0)" fill-opacity="1" d=" M-87.33300018310547,-20.60300064086914 C-87.33300018310547,-20.60300064086914 -86.08399963378906,4.916999816894531 -56.91699981689453,9.868000030517578 C-33.327999114990234,13.871999740600586 -14.144000053405762,-5.375 -14.144000053405762,-5.375 C-14.144000053405762,-5.375 -12.288000106811523,38.85900115966797 -56.37699890136719,27.18899917602539 C-100.46600341796875,15.519000053405762 -96.62200164794922,-12.102999687194824 -87.33300018310547,-20.60300064086914z"></path></g><g opacity="1" transform="matrix(1,0,0,1,0,0)"><path fill="rgb(255,205,0)" fill-opacity="1" d=" M-19.327999114990234,-1.0230000019073486 C-19.327999114990234,-1.0230000019073486 -23.14299964904785,-36.5 -50.43000030517578,-40.29100036621094 C-79.27899932861328,-44.29899978637695 -90.76899719238281,-13.361000061035156 -90.76899719238281,-13.361000061035156 C-90.76899719238281,-13.361000061035156 -79.7239990234375,-48.85100173950195 -46.62300109863281,-42.5 C-17.95599937438965,-37 -15.494999885559082,-8.579000473022461 -19.327999114990234,-1.0230000019073486z"></path></g><g opacity="1" transform="matrix(1,0,0,1,0,0)"><path fill="rgb(0,0,0)" fill-opacity="1" d=" M-23.14299964904785,-13.361000061035156 C-23.14299964904785,-13.361000061035156 -30.395000457763672,-37.84400177001953 -52.27399826049805,-39.3849983215332 C-74.93000030517578,-40.98099899291992 -84.91999816894531,-21.295000076293945 -84.91999816894531,-21.295000076293945 C-84.91999816894531,-21.295000076293945 -73.3949966430664,-44.667999267578125 -50.23400115966797,-40.946998596191406 C-29.834999084472656,-37.66999816894531 -23.14299964904785,-13.361000061035156 -23.14299964904785,-13.361000061035156z"></path><path stroke-linecap="round" stroke-linejoin="round" fill-opacity="0" stroke="rgb(0,0,0)" stroke-opacity="1" stroke-width="2" d=" M-23.14299964904785,-13.361000061035156 C-23.14299964904785,-13.361000061035156 -30.395000457763672,-37.84400177001953 -52.27399826049805,-39.3849983215332 C-74.93000030517578,-40.98099899291992 -84.91999816894531,-21.295000076293945 -84.91999816894531,-21.295000076293945 C-84.91999816894531,-21.295000076293945 -73.3949966430664,-44.667999267578125 -50.23400115966797,-40.946998596191406 C-29.834999084472656,-37.66999816894531 -23.14299964904785,-13.361000061035156 -23.14299964904785,-13.361000061035156z"></path></g></g><g style="display: block;" transform="matrix(1,0,0,1,262.8789978027344,253.96798706054688)" opacity="1"><g opacity="1" transform="matrix(1,0,0,1,0,0)"><path fill="rgb(45,45,45)" fill-opacity="1" d=" M90.27799987792969,-86.4520034790039 C90.27799987792969,-56.316001892089844 93.43399810791016,98.56600189208984 93.43399810791016,98.56600189208984 C107.81700134277344,88.25700378417969 118.02799987792969,78.61299896240234 125.20999908447266,69.4749984741211 C125.20999908447266,69.4749984741211 128.5399932861328,24.395000457763672 128.5399932861328,24.395000457763672 C128.5399932861328,24.395000457763672 135.11300659179688,53.5359992980957 135.11300659179688,53.5359992980957 C140.4949951171875,41.858001708984375 141.5500030517578,30.93400001525879 141.15199279785156,20.358999252319336 C139.99200439453125,-10.482000350952148 135.85000610351562,-39.077999114990234 127.8949966430664,-89.14099884033203 C119.57599639892578,-141.49000549316406 92.46499633789062,-190.17999267578125 3.986999988555908,-190.17999267578125 C-84.49099731445312,-190.17999267578125 -108.51300048828125,-139.36700439453125 -119.76799774169922,-87.55500030517578 C-131.0229949951172,-35.74300003051758 -132.1529998779297,28.687999725341797 -132.68899536132812,33.35300064086914 C-133.81300354003906,43.137001037597656 -130.71200561523438,52.375999450683594 -125.54199981689453,60.67399978637695 C-125.54199981689453,60.67399978637695 -119.96099853515625,43.14400100708008 -119.96099853515625,43.14400100708008 C-119.96099853515625,43.14400100708008 -115.81999969482422,73.10099792480469 -115.81999969482422,73.10099792480469 C-100.61199951171875,89.24500274658203 -80.76200103759766,99.56600189208984 -80.76200103759766,99.56600189208984 C-80.76200103759766,99.56600189208984 -80.76200103759766,-30.295000076293945 -80.76200103759766,-86.27999877929688 C-80.76200103759766,-86.27999877929688 -68.77200317382812,-83.4530029296875 -47.577999114990234,-81.23200225830078 C-45.06700134277344,-80.96900177001953 -37.430999755859375,-124.47699737548828 -37.430999755859375,-124.47699737548828 C-37.430999755859375,-124.47699737548828 -34.45500183105469,-80.10800170898438 -31.70400047302246,-79.8499984741211 C-3.2939999103546143,-77.18800354003906 29.381000518798828,-79.1050033569336 39.90599822998047,-79.83999633789062 C43.152000427246094,-80.06700134277344 49.23400115966797,-97.70999908447266 49.23400115966797,-97.70999908447266 C49.23400115966797,-97.70999908447266 54.459999084472656,-81.0739974975586 56.89699935913086,-81.33399963378906 C78.1050033569336,-83.5979995727539 90.27799987792969,-86.4520034790039 90.27799987792969,-86.4520034790039z"></path></g><g opacity="0.1" transform="matrix(1,0,0,1,0,0)"><path fill="rgb(255,255,255)" fill-opacity="1" d=" M6.7270002365112305,-123.10700225830078 C-26.07200050354004,-122.56400299072266 -56.35300064086914,-133.64300537109375 -63.34700012207031,-140.1999969482422 C-77,-153 -46.76599884033203,-182.9499969482422 3.9649999141693115,-180.35400390625 C31.96500015258789,-178.92100524902344 56.4370002746582,-173.10400390625 68.24800109863281,-162.11599731445312 C68.25599670410156,-162.1060028076172 68.25700378417969,-162.1060028076172 68.26599884033203,-162.0959930419922 C89.64099884033203,-142.03900146484375 66.7229995727539,-124.0999984741211 6.7270002365112305,-123.10700225830078z"></path></g><g opacity="1" transform="matrix(1,0,0,1,0,0)"><path fill="rgb(144,144,144)" fill-opacity="1" d=" M-42.00400161743164,-173.10400390625 C-42.00400161743164,-173.10400390625 -71.01799774169922,-158.26199340820312 -79.0739974975586,-113.28600311279297 C-87.13099670410156,-68.30999755859375 -82.66999816894531,70.14399719238281 -82.66999816894531,70.14399719238281 C-82.66999816894531,70.14399719238281 -92.24400329589844,-23.952999114990234 -92.43399810791016,-66.91999816894531 C-92.66400146484375,-118.91799926757812 -82.9219970703125,-155.78700256347656 -42.00400161743164,-173.10400390625z"></path></g><g opacity="0.3" transform="matrix(1,0,0,1,0,0)"><path fill="rgb(9,9,9)" fill-opacity="1" d=" M-80.76000213623047,-40.290000915527344 C-80.76000213623047,20.969999313354492 -80.76000213623047,99.56999969482422 -80.76000213623047,99.56999969482422 C-80.76000213623047,99.56999969482422 -100.61000061035156,89.23999786376953 -115.81999969482422,73.0999984741211 C-115.81999969482422,73.0999984741211 -119.95999908447266,43.13999938964844 -119.95999908447266,43.13999938964844 C-119.95999908447266,43.13999938964844 -125.54000091552734,60.66999816894531 -125.54000091552734,60.66999816894531 C-140.33299255371094,37.354000091552734 -128.16000366210938,-34.84000015258789 -118.77999877929688,-84.5999984741211 C-118.8499984741211,-83.05000305175781 -123.94999694824219,-4.184999942779541 -104.97000122070312,10.484999656677246 C-85.80999755859375,25.28499984741211 -80.76000213623047,-40.290000915527344 -80.76000213623047,-40.290000915527344z"></path></g><g opacity="0.3" transform="matrix(1,0,0,1,0,0)"><path fill="rgb(9,9,9)" fill-opacity="1" d=" M135.11000061035156,53.540000915527344 C135.11000061035156,53.540000915527344 128.5399932861328,24.399999618530273 128.5399932861328,24.399999618530273 C128.5399932861328,24.399999618530273 125.20999908447266,69.47000122070312 125.20999908447266,69.47000122070312 C118.02999877929688,78.61000061035156 107.81999969482422,88.26000213623047 93.43000030517578,98.56999969482422 C93.43000030517578,98.56999969482422 92.12999725341797,34.86000061035156 91.20999908447266,-18.799999237060547 C94.76000213623047,4.400000095367432 102.12999725341797,21.2450008392334 114.7699966430664,11.484999656677246 C133.9199981689453,-3.315000057220459 126.58000183105469,-84.62000274658203 126.58000183105469,-84.62000274658203 C126.58000183105469,-84.62000274658203 129.80999755859375,-80.01000213623047 129.80999755859375,-80.01000213623047 C129.80999755859375,-80.01000213623047 129.80999755859375,-80.98999786376953 129.80999755859375,-80.98999786376953 C136.52000427246094,-38.27000045776367 150,30.5049991607666 135.11000061035156,53.540000915527344z"></path></g><g opacity="0.3" transform="matrix(1,0,0,1,0,0)"><path fill="rgb(9,9,9)" fill-opacity="1" d=" M-42.22999954223633,-101.52999877929688 C-44.279998779296875,-91.87000274658203 -46.45000076293945,-80.11000061035156 -47.58000183105469,-80.2300033569336 C-66.30999755859375,-82.19000244140625 -77.8499984741211,-84.62999725341797 -80.27999877929688,-85.16999816894531 C-81.37999725341797,-92.80999755859375 -80.44000244140625,-107.30000305175781 -73.75,-124.0999984741211 C-73.75,-124.0999984741211 -70.16000366210938,-109.62999725341797 -42.22999954223633,-101.52999877929688z"></path></g><g opacity="0.3" transform="matrix(1,0,0,1,0,0)"><path fill="rgb(9,9,9)" fill-opacity="1" d=" M89.1500015258789,-85.19999694824219 C85.68000030517578,-84.45999908447266 74.3499984741211,-82.19999694824219 56.900001525878906,-80.33000183105469 C54.459999084472656,-80.06999969482422 49.479000091552734,-102.16500091552734 49.479000091552734,-102.16500091552734 C49.479000091552734,-102.16500091552734 43.150001525878906,-79.06999969482422 39.90999984741211,-78.83999633789062 C29.3799991607666,-78.11000061035156 -21.139999389648438,-78.11000061035156 -31.700000762939453,-78.8499984741211 C-32.88999938964844,-78.93000030517578 -34.119998931884766,-90.2699966430664 -35.13999938964844,-99.7300033569336 C30.812999725341797,-89.25 84.93000030517578,-124.0999984741211 84.93000030517578,-124.0999984741211 C84.93000030517578,-124.0999984741211 90.94000244140625,-100.75 89.1500015258789,-85.19999694824219z"></path></g><g opacity="1" transform="matrix(1,0,0,1,0,0)"><path stroke-linecap="round" stroke-linejoin="round" fill-opacity="0" stroke="rgb(0,0,0)" stroke-opacity="1" stroke-width="8" d=" M-67.28900146484375,-137.51300048828125 C-74.0260009765625,-124.39199829101562 -80.76200103759766,-104.27300262451172 -80.76200103759766,-76.27999877929688 C-80.76200103759766,-20.295000076293945 -80.76200103759766,98.56600189208984 -80.76200103759766,98.56600189208984 C-80.76200103759766,98.56600189208984 -100.61199951171875,88.24500274658203 -115.81999969482422,72.10099792480469 C-115.81999969482422,72.10099792480469 -119.96099853515625,41.14400100708008 -119.96099853515625,41.14400100708008 C-119.96099853515625,41.14400100708008 -125.54199981689453,59.67399978637695 -125.54199981689453,59.67399978637695 C-130.71200561523438,51.375999450683594 -133.81300354003906,42.13800048828125 -132.68899536132812,32.354000091552734 C-132.1529998779297,27.68899917602539 -131.0229949951172,-35.74300003051758 -119.76799774169922,-87.55500030517578 C-108.51300048828125,-139.36700439453125 -84.49099731445312,-190.17999267578125 3.986999988555908,-190.17999267578125 C92.46499633789062,-190.17999267578125 119.57599639892578,-141.49000549316406 127.8949966430664,-89.14099884033203 C135.85000610351562,-39.077999114990234 139.99200439453125,-11.482000350952148 141.15199279785156,19.358999252319336 C141.5500030517578,29.934999465942383 140.4949951171875,40.858001708984375 135.11300659179688,52.5359992980957 C135.11300659179688,52.5359992980957 129.5399932861328,26.395000457763672 129.5399932861328,26.395000457763672 C129.5399932861328,26.395000457763672 125.20999908447266,68.4749984741211 125.20999908447266,68.4749984741211 C118.02799987792969,77.61299896240234 107.81700134277344,87.25700378417969 93.43399810791016,97.56600189208984 C93.43399810791016,97.56600189208984 90.27799987792969,-49.31700134277344 90.27799987792969,-79.4530029296875 C90.27799987792969,-109.58899688720703 83.10399627685547,-136.66700744628906 71.43800354003906,-149.88400268554688"></path></g><g opacity="1" transform="matrix(1,0,0,1,0,0)"><path stroke-linecap="round" stroke-linejoin="round" fill-opacity="0" stroke="rgb(0,0,0)" stroke-opacity="1" stroke-width="8" d=" M-80.30999755859375,-85.66799926757812 C-80.30999755859375,-85.66799926757812 -69.45899963378906,-82.38200378417969 -46.30500030517578,-79.98200225830078 C-44.35499954223633,-94.24400329589844 -39.82099914550781,-112.05799865722656 -34.540000915527344,-130.8979949951172 C-35.27799987792969,-110.63200378417969 -33.5,-91 -31.893999099731445,-78.75299835205078 C-17.92300033569336,-77.13200378417969 23.17099952697754,-75.4749984741211 43.505001068115234,-78.75800323486328 C44.513999938964844,-78.9209976196289 47.30099868774414,-128.92799377441406 47.30099868774414,-128.92799377441406 C47.30099868774414,-128.92799377441406 55.33300018310547,-93.33300018310547 54.3120002746582,-79.50299835205078 C77.91799926757812,-81.36599731445312 90.197998046875,-83.93699645996094 90.197998046875,-83.93699645996094"></path></g></g><g style="display: block;" transform="matrix(1,0,0,1,262.9360046386719,254.02999877929688)" opacity="1"><g opacity="1" transform="matrix(1,0,0,1,0,0)"><path fill="rgb(0,0,0)" fill-opacity="1" d=" M-81.61499786376953,-52.064998626708984 C-81.61499786376953,-52.064998626708984 -69.59700012207031,-60.30799865722656 -55.33300018310547,-59.862998962402344 C-41.665000915527344,-59.43600082397461 -36.016998291015625,-54.26900100708008 -36.016998291015625,-54.26900100708008 C-36.016998291015625,-54.26900100708008 -40.569000244140625,-64.19200134277344 -55.33300018310547,-63.762001037597656 C-71.59700012207031,-63.28799819946289 -81.61499786376953,-52.064998626708984 -81.61499786376953,-52.064998626708984z"></path><path stroke-linecap="round" stroke-linejoin="round" fill-opacity="0" stroke="rgb(0,0,0)" stroke-opacity="1" stroke-width="2" d=" M-81.61499786376953,-52.064998626708984 C-81.61499786376953,-52.064998626708984 -69.59700012207031,-60.30799865722656 -55.33300018310547,-59.862998962402344 C-41.665000915527344,-59.43600082397461 -36.016998291015625,-54.26900100708008 -36.016998291015625,-54.26900100708008 C-36.016998291015625,-54.26900100708008 -40.569000244140625,-64.19200134277344 -55.33300018310547,-63.762001037597656 C-71.59700012207031,-63.28799819946289 -81.61499786376953,-52.064998626708984 -81.61499786376953,-52.064998626708984z"></path></g><g opacity="1" transform="matrix(1,0,0,1,0,0)"><path fill="rgb(0,0,0)" fill-opacity="1" d=" M87.11399841308594,-52.064998626708984 C87.11399841308594,-52.064998626708984 75.09600067138672,-60.30799865722656 60.832000732421875,-59.862998962402344 C47.16400146484375,-59.43600082397461 41.51599884033203,-54.26900100708008 41.51599884033203,-54.26900100708008 C41.51599884033203,-54.26900100708008 46.06800079345703,-64.19200134277344 60.832000732421875,-63.762001037597656 C77.09600067138672,-63.28799819946289 87.11399841308594,-52.064998626708984 87.11399841308594,-52.064998626708984z"></path><path stroke-linecap="round" stroke-linejoin="round" fill-opacity="0" stroke="rgb(0,0,0)" stroke-opacity="1" stroke-width="2" d=" M87.11399841308594,-52.064998626708984 C87.11399841308594,-52.064998626708984 75.09600067138672,-60.30799865722656 60.832000732421875,-59.862998962402344 C47.16400146484375,-59.43600082397461 41.51599884033203,-54.26900100708008 41.51599884033203,-54.26900100708008 C41.51599884033203,-54.26900100708008 46.06800079345703,-64.19200134277344 60.832000732421875,-63.762001037597656 C77.09600067138672,-63.28799819946289 87.11399841308594,-52.064998626708984 87.11399841308594,-52.064998626708984z"></path></g></g><g style="display: block;" transform="matrix(1,0,0,1,263.32501220703125,253.33798217773438)" opacity="1"><g opacity="1" transform="matrix(1,0,0,1,0,0)"><path stroke-linecap="round" stroke-linejoin="round" fill-opacity="0" stroke="rgb(255,255,255)" stroke-opacity="1" stroke-width="6" d=" M39.45199966430664,-175.1060028076172 C40.96699905395508,-174.7689971923828 42.540000915527344,-174.3990020751953 44.15999984741211,-173.99200439453125"></path></g><g opacity="1" transform="matrix(1,0,0,1,0,0)"><path stroke-linecap="round" stroke-linejoin="round" fill-opacity="0" stroke="rgb(255,255,255)" stroke-opacity="1" stroke-width="6" d=" M18.400999069213867,-178.36300659179688 C18.400999069213867,-178.36300659179688 23.200000762939453,-178.08799743652344 30.812999725341797,-176.79800415039062"></path></g></g><g style="display: none;"><g><path stroke-linecap="round" stroke-linejoin="round" fill-opacity="0"></path></g><g><g><path stroke-linecap="round" stroke-linejoin="round" fill-opacity="0"></path></g><g><path stroke-linecap="round" stroke-linejoin="round" fill-opacity="0"></path></g></g></g><g style="display: block;" transform="matrix(1,0,0,1,262.9360046386719,254.02999877929688)" opacity="1"><g opacity="0" transform="matrix(1,0,0,1,1.6749999523162842,2.7980000972747803)"><path fill="rgb(221,4,4)" fill-opacity="1" d=" M22.834999084472656,69.29499816894531 C22.05500030517578,74 25.756999969482422,63.573001861572266 29.906999588012695,67.45600128173828 C32.266998291015625,69.66400146484375 33.8849983215332,69.23300170898438 36.6870002746582,66.72799682617188 C39.446998596191406,64.26000213623047 42.4119987487793,64.71700286865234 42.40700149536133,61.79199981689453 C42.395999908447266,55.46099853515625 44.75199890136719,54.777000427246094 41.667999267578125,55.41299819946289 C40.33100128173828,55.68899917602539 23.17099952697754,67.26799774169922 22.834999084472656,69.29499816894531z"></path></g><g opacity="1" transform="matrix(1,0,0,1,0,0)"><path fill="rgb(255,170,0)" fill-opacity="1" d=" M27.216999053955078,73.0999984741211 C27.216999053955078,73.0999984741211 3.2950000762939453,73.0999984741211 3.2950000762939453,73.0999984741211 C3.2950000762939453,73.0999984741211 -20.628000259399414,73.0999984741211 -20.628000259399414,73.0999984741211 C-20.628000259399414,73.0999984741211 -21.95199966430664,74.56400299072266 -21.90999984741211,80.64299774169922 C-21.891000747680664,83.39399719238281 -20.53499984741211,93.86799621582031 -16.43199920654297,91.3479995727539 C-10.02299976348877,87.41100311279297 -7.0289998054504395,95.02899932861328 3.2950000762939453,95.02899932861328 C13.093999862670898,95.02899932861328 16.613000869750977,87.41100311279297 23.02199935913086,91.3479995727539 C27.125,93.86799621582031 28.479999542236328,83.39399719238281 28.499000549316406,80.64299774169922 C28.541000366210938,74.56400299072266 27.216999053955078,73.0999984741211 27.216999053955078,73.0999984741211z"></path></g><g opacity="1" transform="matrix(1,0,0,1,0,0)"><path fill="rgb(75,0,7)" fill-opacity="1" d=" M-26.68600082397461,66.23300170898438 C-25.56100082397461,68.34400177001953 -19.41900062561035,73.39600372314453 -12.234000205993652,75.16999816894531 C-3.936000108718872,77.21900177001953 16.249000549316406,79.56600189208984 28.545000076293945,72.05599975585938 C30.93899917602539,70.59400177001953 36.06399917602539,67.71800231933594 32.94300079345703,65.22200012207031 C26.9060001373291,67.4749984741211 16.26300048828125,67.61799621582031 4.539000034332275,67.25800323486328 C-5.8379998207092285,66.93900299072266 -17.06100082397461,66.22599792480469 -26.68600082397461,66.23300170898438z"></path></g><g opacity="1" transform="matrix(1,0,0,1,0,0)"><path fill="rgb(0,0,0)" fill-opacity="1" d=" M3.746999979019165,74.45600128173828 C-14.057000160217285,74.84600067138672 -15.74899959564209,75.90599822998047 4.105000019073486,75.86900329589844 C26.631999969482422,75.8270034790039 23.12700080871582,74.03099822998047 3.746999979019165,74.45600128173828z"></path></g><g opacity="1" transform="matrix(1,0,0,1,0,0)"><path fill="rgb(255,100,156)" fill-opacity="1" d=" M25.506000518798828,74.13600158691406 C23.81399917602539,75.96900177001953 13.317999839782715,77.91300201416016 4.821000099182129,78.49700164794922 C-5.686999797821045,79.21900177001953 -9.185999870300293,75.96900177001953 -16.2189998626709,74.46399688720703 C-6.185999870300293,77.21900177001953 3.421999931335449,78.10199737548828 3.421999931335449,78.10199737548828 C13.314000129699707,77.21900177001953 18.81399917602539,77.34400177001953 25.506000518798828,74.13600158691406z"></path><path stroke-linecap="round" stroke-linejoin="round" fill-opacity="0" stroke="rgb(213,0,87)" stroke-opacity="1" stroke-width="6" d=" M25.506000518798828,74.13600158691406 C23.81399917602539,75.96900177001953 13.317999839782715,77.91300201416016 4.821000099182129,78.49700164794922 C-5.686999797821045,79.21900177001953 -9.185999870300293,75.96900177001953 -16.2189998626709,74.46399688720703 C-6.185999870300293,77.21900177001953 3.421999931335449,78.10199737548828 3.421999931335449,78.10199737548828 C13.314000129699707,77.21900177001953 18.81399917602539,77.34400177001953 25.506000518798828,74.13600158691406z"></path></g><g opacity="1" transform="matrix(1,0,0,1,0,0)"><g opacity="1" transform="matrix(1,0,0,1,0,0)"><g opacity="1" transform="matrix(1,0,0,1,0,0)"><path fill="rgb(229,239,249)" fill-opacity="1" d=" M-5.328999996185303,78.18199920654297 C-7.568999767303467,77.99500274658203 -11.133999824523926,77.49400329589844 -13.315999984741211,77.16699981689453 C-13.156999588012695,76.85299682617188 -11.079999923706055,74.13300323486328 -11.064000129699707,74.12300109863281 C-10.758000373840332,73.96800231933594 -10.031000137329102,74.02100372314453 -9.91100025177002,74.06600189208984 C-9.8149995803833,74.10099792480469 -5.710999965667725,77.65299987792969 -5.328999996185303,78.18199920654297z"></path><path stroke-linecap="round" stroke-linejoin="round" fill-opacity="0" stroke="rgb(180,184,193)" stroke-opacity="1" stroke-width="2" d=" M-5.328999996185303,78.18199920654297 C-7.568999767303467,77.99500274658203 -11.133999824523926,77.49400329589844 -13.315999984741211,77.16699981689453 C-13.156999588012695,76.85299682617188 -11.079999923706055,74.13300323486328 -11.064000129699707,74.12300109863281 C-10.758000373840332,73.96800231933594 -10.031000137329102,74.02100372314453 -9.91100025177002,74.06600189208984 C-9.8149995803833,74.10099792480469 -5.710999965667725,77.65299987792969 -5.328999996185303,78.18199920654297z"></path></g></g></g><g opacity="1" transform="matrix(1,0,0,1,0,0)"><g opacity="1" transform="matrix(1,0,0,1,0,0)"><g opacity="1" transform="matrix(1,0,0,1,0,0)"><path fill="rgb(229,239,249)" fill-opacity="1" d=" M14.456999778747559,78.21900177001953 C16.7189998626709,78.04100036621094 20.343000411987305,77.5530014038086 22.56399917602539,77.23400115966797 C22.44300079345703,76.91999816894531 20.69300079345703,74.19300079345703 20.67799949645996,74.18299865722656 C20.5,73.98100280761719 19.6560001373291,74.07599639892578 19.5310001373291,74.12100219726562 C19.430999755859375,74.15599822998047 14.902999877929688,77.69200134277344 14.456999778747559,78.21900177001953z"></path><path stroke-linecap="round" stroke-linejoin="round" fill-opacity="0" stroke="rgb(180,184,193)" stroke-opacity="1" stroke-width="2" d=" M14.456999778747559,78.21900177001953 C16.7189998626709,78.04100036621094 20.343000411987305,77.5530014038086 22.56399917602539,77.23400115966797 C22.44300079345703,76.91999816894531 20.69300079345703,74.19300079345703 20.67799949645996,74.18299865722656 C20.5,73.98100280761719 19.6560001373291,74.07599639892578 19.5310001373291,74.12100219726562 C19.430999755859375,74.15599822998047 14.902999877929688,77.69200134277344 14.456999778747559,78.21900177001953z"></path></g></g></g><g opacity="1" transform="matrix(1,0,0,1,0,0)"><path stroke-linecap="round" stroke-linejoin="round" fill-opacity="0" stroke="rgb(156,0,4)" stroke-opacity="1" stroke-width="6" d=" M-24.749000549316406,66.91999816894531 C-24.937000274658203,67.84300231933594 -20.39699935913086,72.072998046875 -13.609000205993652,75.04499816894531 C-0.9359999895095825,80.59400177001953 17.43899917602539,76.34400177001953 20.670000076293945,75.30599975585938 C23.871000289916992,74.27799987792969 34.18899917602539,68.96800231933594 33.06800079345703,66.22200012207031 C25.996999740600586,65.54399871826172 15.859999656677246,65.45600128173828 5.434999942779541,65.66300201416016 C-5.341000080108643,65.87699890136719 -16.426000595092773,66.40499877929688 -24.749000549316406,66.91999816894531z"></path></g><g opacity="1" transform="matrix(1,0,0,1,0,0)"><path fill="rgb(156,0,4)" fill-opacity="1" d=" M-31.033000946044922,65.71099853515625 C-31.033000946044922,65.71099853515625 -20.43600082397461,82.59400177001953 2.8540000915527344,82.61900329589844 C26.43899917602539,82.64399719238281 37.31399917602539,71.53099822998047 39.30799865722656,64.99099731445312 C26.84600067138672,69.96800231933594 16.500999450683594,72.94300079345703 3.812000036239624,73.0739974975586 C-8.746000289916992,73.2040023803711 -18.62299919128418,69.15599822998047 -31.033000946044922,65.71099853515625z"></path></g><g opacity="0" transform="matrix(1,0,0,1,-1.0970001220703125,-11.16400146484375)"><g opacity="1" transform="matrix(1,0,0,1,0,0)"><path fill="rgb(255,100,156)" fill-opacity="1" d=" M29.77400016784668,76.65599822998047 C27.92799949645996,79.90699768066406 18.667999267578125,82.7509994506836 3.256999969482422,82.73600006103516 C-0.7009999752044678,82.73200225830078 -11.206000328063965,81.82599639892578 -12.553999900817871,76.76899719238281 C-3.010999917984009,78.91300201416016 3.1540000438690186,79.06600189208984 3.1540000438690186,79.06600189208984 C15.045000076293945,78.7760009765625 22.784000396728516,75.1500015258789 29.77400016784668,76.65599822998047z"></path><path stroke-linecap="round" stroke-linejoin="round" fill-opacity="0" stroke="rgb(213,0,87)" stroke-opacity="1" stroke-width="6" d=" M29.77400016784668,76.65599822998047 C27.92799949645996,79.90699768066406 18.667999267578125,82.7509994506836 3.256999969482422,82.73600006103516 C-0.7009999752044678,82.73200225830078 -11.206000328063965,81.82599639892578 -12.553999900817871,76.76899719238281 C-3.010999917984009,78.91300201416016 3.1540000438690186,79.06600189208984 3.1540000438690186,79.06600189208984 C15.045000076293945,78.7760009765625 22.784000396728516,75.1500015258789 29.77400016784668,76.65599822998047z"></path></g><g opacity="1" transform="matrix(1,0,0,1,0,0)"><path stroke-linecap="round" stroke-linejoin="round" fill-opacity="0" stroke="rgb(213,0,87)" stroke-opacity="1" stroke-width="6" d=" M3.631999969482422,79.96900177001953 C3.631999969482422,79.96900177001953 3.7860000133514404,81.71900177001953 3.7860000133514404,81.71900177001953"></path></g></g><g opacity="1" transform="matrix(1,0,0,1,0,0)"><g opacity="1" transform="matrix(1,0,0,1,0,0)"><g opacity="1" transform="matrix(1,0,0,1,0,0)"><path fill="rgb(229,239,249)" fill-opacity="1" d=" M31.836999893188477,66.41300201416016 C30.06399917602539,62.84299850463867 -20.56100082397461,63.34400177001953 -23.54599952697754,65.94300079345703 C-23.59000015258789,65.98100280761719 -19.773000717163086,89.92900085449219 -19.7549991607666,90.00299835205078 C-19.458999633789062,91.21299743652344 -18.139999389648438,90.70899963378906 -17.94300079345703,90.41100311279297 C-17.714000701904297,90.06700134277344 -12.501999855041504,68.37899780273438 -12.177000045776367,65.4739990234375 C-11.628000259399414,66.5989990234375 -9.765999794006348,66.3270034790039 -7.210999965667725,66.36299896240234 C-4.605000019073486,66.4000015258789 -2.6679999828338623,63.84199905395508 -2.6679999828338623,63.84199905395508 C-2.6679999828338623,63.84199905395508 1.5390000343322754,66.40899658203125 4.428999900817871,66.4990005493164 C7.491000175476074,66.59500122070312 9.269000053405762,64.53299713134766 9.269000053405762,64.53299713134766 C9.269000053405762,64.53299713134766 12.70199966430664,65.8949966430664 15.065999984741211,65.89099884033203 C17.937999725341797,65.88600158691406 20.875999450683594,67.02100372314453 20.875999450683594,67.02100372314453 C20.875999450683594,67.02100372314453 24.750999450683594,90.1729965209961 24.89299964904785,90.4260025024414 C25.08099937438965,90.75800323486328 26.21500015258789,91.30899810791016 26.746999740600586,90.08200073242188 C26.777999877929688,90.01000213623047 31.863000869750977,66.46499633789062 31.836999893188477,66.41300201416016z"></path><path stroke-linecap="round" stroke-linejoin="round" fill-opacity="0" stroke="rgb(180,184,193)" stroke-opacity="1" stroke-width="2" d=" M31.836999893188477,66.41300201416016 C30.06399917602539,62.84299850463867 -20.56100082397461,63.34400177001953 -23.54599952697754,65.94300079345703 C-23.59000015258789,65.98100280761719 -19.773000717163086,89.92900085449219 -19.7549991607666,90.00299835205078 C-19.458999633789062,91.21299743652344 -18.139999389648438,90.70899963378906 -17.94300079345703,90.41100311279297 C-17.714000701904297,90.06700134277344 -12.501999855041504,68.37899780273438 -12.177000045776367,65.4739990234375 C-11.628000259399414,66.5989990234375 -9.765999794006348,66.3270034790039 -7.210999965667725,66.36299896240234 C-4.605000019073486,66.4000015258789 -2.6679999828338623,63.84199905395508 -2.6679999828338623,63.84199905395508 C-2.6679999828338623,63.84199905395508 1.5390000343322754,66.40899658203125 4.428999900817871,66.4990005493164 C7.491000175476074,66.59500122070312 9.269000053405762,64.53299713134766 9.269000053405762,64.53299713134766 C9.269000053405762,64.53299713134766 12.70199966430664,65.8949966430664 15.065999984741211,65.89099884033203 C17.937999725341797,65.88600158691406 20.875999450683594,67.02100372314453 20.875999450683594,67.02100372314453 C20.875999450683594,67.02100372314453 24.750999450683594,90.1729965209961 24.89299964904785,90.4260025024414 C25.08099937438965,90.75800323486328 26.21500015258789,91.30899810791016 26.746999740600586,90.08200073242188 C26.777999877929688,90.01000213623047 31.863000869750977,66.46499633789062 31.836999893188477,66.41300201416016z"></path></g></g></g><g opacity="1" transform="matrix(1,0,0,1,0,0)"><path fill="rgb(156,0,4)" fill-opacity="1" d=" M1.5540000200271606,62.33000183105469 C-0.29499998688697815,61.641998291015625 -3.203000068664551,58.43199920654297 -11.763999938964844,61.5369987487793 C-17.43600082397461,63.59400177001953 -26.155000686645508,63.875 -31.18600082397461,64.16100311279297 C-32.154998779296875,64.90599822998047 -30.437000274658203,66.96900177001953 -27.59600067138672,66.8550033569336 C-12.87399959564209,67.40599822998047 -7.540999889373779,70.09100341796875 3.687000036239624,69.92400360107422 C15.013999938964844,69.75599670410156 21.783000946044922,67.46900177001953 37.861000061035156,65.83399963378906 C39.40800094604492,65.46900177001953 40.56399917602539,63.125 38.917999267578125,63.185001373291016 C38.917999267578125,63.185001373291016 34.43000030517578,63.742000579833984 27.11199951171875,62.77399826049805 C20.31399917602539,61.875 15.480999946594238,58.36000061035156 9.800000190734863,60.5880012512207 C6.09499979019165,62.04100036621094 5.548999786376953,63.816001892089844 1.5540000200271606,62.33000183105469z"></path></g></g></g></svg>