<svg xmlns="http://www.w3.org/2000/svg" viewBox="0 0 512 512" width="512" height="512" style="width: 100%; height: 100%; transform: translate3d(0,0,0);" preserveAspectRatio="xMidYMid meet"><defs><clipPath id="__lottie_element_229"><rect width="512" height="512" x="0" y="0"></rect></clipPath></defs><g clip-path="url(#__lottie_element_229)"><g style="display: block;" transform="matrix(1.0149991512298584,0.015005762688815594,-0.01499925833195448,1.0145591497421265,249.86500549316406,249.86500549316406)" opacity="1"><g opacity="1" transform="matrix(1,0,0,1,0,0)"><path stroke-linecap="butt" stroke-linejoin="miter" fill-opacity="0" stroke-miterlimit="10" stroke="rgb(112,112,112)" stroke-opacity="1" stroke-width="10" d=" M-121.98400115966797,171.12600708007812 C-121.98400115966797,171.12600708007812 -168.73399353027344,149.427001953125 -192.95899963378906,97.58899688720703"></path></g></g><g style="display: block;" transform="matrix(1.0149991512298584,0.015005762688815594,-0.01499925833195448,1.0145591497421265,249.86500549316406,249.86500549316406)" opacity="1"><g opacity="1" transform="matrix(1,0,0,1,0,0)"><path stroke-linecap="butt" stroke-linejoin="miter" fill-opacity="0" stroke-miterlimit="10" stroke="rgb(112,112,112)" stroke-opacity="1" stroke-width="10" d=" M-108.35299682617188,145.09300231933594 C-108.35299682617188,145.09300231933594 -146.1280059814453,127.55999755859375 -165.70199584960938,85.67400360107422"></path></g></g><g style="display: none;"><g><path stroke-linecap="butt" stroke-linejoin="miter" fill-opacity="0" stroke-miterlimit="10"></path></g></g><g style="display: none;"><g><path stroke-linecap="butt" stroke-linejoin="miter" fill-opacity="0" stroke-miterlimit="10"></path></g></g><g style="display: none;"><g><path stroke-linecap="butt" stroke-linejoin="miter" fill-opacity="0" stroke-miterlimit="10"></path></g></g><g style="display: none;"><g><path stroke-linecap="butt" stroke-linejoin="miter" fill-opacity="0" stroke-miterlimit="10"></path></g></g><g style="display: none;"><g><path stroke-linecap="butt" stroke-linejoin="miter" fill-opacity="0" stroke-miterlimit="10"></path></g></g><g style="display: none;"><g><path stroke-linecap="butt" stroke-linejoin="miter" fill-opacity="0" stroke-miterlimit="10"></path></g></g><g style="display: none;"><g><path stroke-linecap="butt" stroke-linejoin="miter" fill-opacity="0" stroke-miterlimit="10"></path></g></g><g style="display: none;"><g><path stroke-linecap="butt" stroke-linejoin="miter" fill-opacity="0" stroke-miterlimit="10"></path></g></g><g style="display: none;"><g><path stroke-linecap="butt" stroke-linejoin="miter" fill-opacity="0" stroke-miterlimit="10"></path></g></g><g style="display: block;" transform="matrix(-0.9881033301353455,-0.23259463906288147,0.2324938178062439,-0.9876750111579895,144.86500549316406,199.86500549316406)" opacity="1"><g opacity="1" transform="matrix(1,0,0,1,0,0)"><path stroke-linecap="butt" stroke-linejoin="miter" fill-opacity="0" stroke-miterlimit="10" stroke="rgb(112,112,112)" stroke-opacity="1" stroke-width="10" d=" M-121.98400115966797,171.12600708007812 C-121.98400115966797,171.12600708007812 -168.73399353027344,149.427001953125 -192.95899963378906,97.58899688720703"></path></g></g><g style="display: block;" transform="matrix(-0.9881033301353455,-0.23259463906288147,0.2324938178062439,-0.9876750111579895,144.86500549316406,199.86500549316406)" opacity="1"><g opacity="1" transform="matrix(1,0,0,1,0,0)"><path stroke-linecap="butt" stroke-linejoin="miter" fill-opacity="0" stroke-miterlimit="10" stroke="rgb(112,112,112)" stroke-opacity="1" stroke-width="10" d=" M-108.35299682617188,145.09300231933594 C-108.35299682617188,145.09300231933594 -146.1280059814453,127.55999755859375 -165.70199584960938,85.67400360107422"></path></g></g><g style="display: none;"><g><path stroke-linecap="butt" stroke-linejoin="miter" fill-opacity="0" stroke-miterlimit="10"></path></g></g><g style="display: none;"><g><path stroke-linecap="butt" stroke-linejoin="miter" fill-opacity="0" stroke-miterlimit="10"></path></g></g><g style="display: none;"><g><path stroke-linecap="butt" stroke-linejoin="miter" fill-opacity="0" stroke-miterlimit="10"></path></g></g><g style="display: none;"><g><path stroke-linecap="butt" stroke-linejoin="miter" fill-opacity="0" stroke-miterlimit="10"></path></g></g><g style="display: none;"><g><path stroke-linecap="butt" stroke-linejoin="miter" fill-opacity="0" stroke-miterlimit="10"></path></g></g><g style="display: none;"><g><path stroke-linecap="butt" stroke-linejoin="miter" fill-opacity="0" stroke-miterlimit="10"></path></g></g><g style="display: none;"><g><path stroke-linecap="butt" stroke-linejoin="miter" fill-opacity="0" stroke-miterlimit="10"></path></g></g><g style="display: none;"><g><path stroke-linecap="butt" stroke-linejoin="miter" fill-opacity="0" stroke-miterlimit="10"></path></g></g><g style="display: none;"><g><path stroke-linecap="butt" stroke-linejoin="miter" fill-opacity="0" stroke-miterlimit="10"></path></g></g><g style="display: block;" transform="matrix(1.0149999856948853,0.014999979175627232,0.014999979175627232,1.0149999856948853,241.17996215820312,148.59873962402344)" opacity="1"><g opacity="1" transform="matrix(1,0,0,1,0,0)"><path fill="rgb(255,209,64)" fill-opacity="1" d=" M69.03199768066406,62.915000915527344 C58.41299819946289,50.96900177001953 29.875,11.812000274658203 19.256000518798828,-1.4620000123977661 C-12.82800006866455,-41.56700134277344 -37.15599822998047,-82.62200164794922 -60.70500183105469,-68.81300354003906 C-83.52200317382812,-55.43299865722656 -54.784000396728516,-25.316999435424805 -30.503000259399414,7.493000030517578 C-5.888000011444092,40.75600051879883 16.493999481201172,62.9109992980957 9.96399974822998,71.54299926757812 C9.96399974822998,71.54299926757812 69.03199768066406,62.915000915527344 69.03199768066406,62.915000915527344z"></path></g></g><g style="display: block;" transform="matrix(1.0149999856948853,0.014999979175627232,0.014999979175627232,1.0149999856948853,179.44644165039062,182.00521850585938)" opacity="1"><g opacity="1" transform="matrix(1,0,0,1,0,0)"><path fill="rgb(255,209,64)" fill-opacity="1" d=" M37.435001373291016,82.43499755859375 C40.097999572753906,78.74199676513672 16.14299964904785,53.7140007019043 -18.52400016784668,14.793000221252441 C-56.82400131225586,-28.207000732421875 -83.14199829101562,-62.80699920654297 -65.87999725341797,-77.0469970703125 C-45.358001708984375,-93.97599792480469 -26.989999771118164,-69.0479965209961 7.23799991607666,-29.711000442504883 C35.10499954223633,2.315999984741211 65.91699981689453,43.7130012512207 71.28399658203125,37.724998474121094"></path></g></g><g style="display: block;" transform="matrix(1.0149999856948853,0.014999979175627232,0.014999979175627232,1.0149999856948853,149.63987731933594,242.81063842773438)" opacity="1"><g opacity="1" transform="matrix(1,0,0,1,0,0)"><path fill="rgb(255,209,64)" fill-opacity="1" d=" M67.69400024414062,22.08099937438965 C61.35599899291992,29.731000900268555 41.84700012207031,9.715999603271484 4.840000152587891,-30.868999481201172 C-23.525999069213867,-61.97800064086914 -48.367000579833984,-85.91000366210938 -62.665000915527344,-72.49199676513672 C-79.62799835205078,-56.57400131225586 -51.138999938964844,-24.95199966430664 -15.125,11.583999633789062 C20.888999938964844,48.119998931884766 48.55099868774414,69.51899719238281 43.332000732421875,76.30400085449219"></path></g></g><g style="display: block;" transform="matrix(1.0149999856948853,0.014999979175627232,0.014999979175627232,1.0149999856948853,118.21304321289062,184.98080444335938)" opacity="1"><g opacity="1" transform="matrix(1,0,0,1,0,0)"><path fill="rgb(255,223,121)" fill-opacity="1" d=" M-21.15999984741211,7.732999801635742 C-21.15999984741211,7.732999801635742 -23.08300018310547,-1.8980000019073486 -9.180999755859375,0 C6.164000034332275,2.0950000286102295 13.055000305175781,11.190999984741211 30.12700080871582,22.089000701904297 C30.12700080871582,22.089000701904297 -2.815000057220459,-19.841999053955078 -15.963000297546387,-21.792999267578125 C-37.689998626708984,-25.016000747680664 -30.23200035095215,-1.0889999866485596 -21.15999984741211,7.732999801635742z"></path></g></g><g style="display: block;" transform="matrix(1.0149999856948853,0.014999979175627232,0.014999979175627232,1.0149999856948853,141.01974487304688,321.1864929199219)" opacity="1"><g opacity="1" transform="matrix(1,0,0,1,0,0)"><path fill="rgb(255,209,64)" fill-opacity="1" d=" M52.96799850463867,-1.0549999475479126 C49.70100021362305,3.1389999389648438 29.648000717163086,-16.604000091552734 8.307999610900879,-34.375 C-19.631999969482422,-57.643001556396484 -34.875999450683594,-68.26300048828125 -46.91400146484375,-57.17900085449219 C-64.77300262451172,-40.736000061035156 -40.757999420166016,-17.586000442504883 -5.7829999923706055,12.515000343322754 C13.829999923706055,29.395000457763672 35.4370002746582,50.04999923706055 47.61600112915039,61.5880012512207 C47.61600112915039,61.5880012512207 52.96799850463867,-1.0549999475479126 52.96799850463867,-1.0549999475479126z"></path></g></g><g style="display: block;" transform="matrix(1.0149999856948853,0.014999979175627232,0.014999979175627232,1.0149999856948853,116.67374420166016,274.04949951171875)" opacity="1"><g opacity="1" transform="matrix(1,0,0,1,0,0)"><path fill="rgb(255,223,121)" fill-opacity="1" d=" M-10.812000274658203,14.704999923706055 C-10.812000274658203,14.704999923706055 -18.441999435424805,1.2200000286102295 -9.85200023651123,-1.9550000429153442 C-1.2619999647140503,-5.130000114440918 20.81800079345703,7.125 30.613000869750977,10.720999717712402 C30.613000869750977,10.720999717712402 -2.3010001182556152,-26.163999557495117 -23.608999252319336,-11.083000183105469 C-44.91699981689453,3.997999906539917 -10.812000274658203,14.704999923706055 -10.812000274658203,14.704999923706055z"></path></g></g><g style="display: block;" transform="matrix(1.0149999856948853,0.014999979175627232,0.014999979175627232,1.0149999856948853,315.1046142578125,305.1643981933594)" opacity="1"><g opacity="1" transform="matrix(1,0,0,1,0,0)"><path fill="rgb(255,209,64)" fill-opacity="1" d=" M-1.5360000133514404,-90.29299926757812 C29.76799964904785,-53.29199981689453 42.94900131225586,-51.62300109863281 53.167999267578125,-66.38500213623047 C63.38800048828125,-81.14700317382812 59.07500076293945,-102.625 65.31999969482422,-119.48600006103516 C71.56500244140625,-136.3470001220703 102.76599884033203,-158.26400756835938 120.93399810791016,-146.34100341796875 C139.1020050048828,-134.41799926757812 129.4499969482422,-121.36000061035156 120.93399810791016,-106.03099822998047 C112.41799926757812,-90.7020034790039 108.44300079345703,-72.53299713134766 107.875,-50.39099884033203 C107.30699920654297,-28.249000549316406 107.21299743652344,-21.399999618530273 112.41899871826172,12.814000129699707 C117.625,47.02799987792969 106.00900268554688,78.91200256347656 87.61799621582031,101.322998046875 C69.63800048828125,123.23300170898438 35.53300094604492,149.85000610351562 -3.7839999198913574,149.7449951171875 C-50.582000732421875,149.6199951171875 -107.46399688720703,95.2959976196289 -124.16699981689453,79.91200256347656 C-124.16699981689453,79.91200256347656 -142.4239959716797,36.196998596191406 -120.30899810791016,14.741999626159668 C-120.30899810791016,14.741999626159668 -125.9209976196289,-21.89699935913086 -97.2040023803711,-39.39099884033203 C-97.2040023803711,-39.39099884033203 -93.6520004272461,-75.04000091552734 -60.604000091552734,-83.29199981689453 C-60.604000091552734,-83.29199981689453 -30.56800079345703,-124.60800170898438 -1.5360000133514404,-90.29299926757812z"></path></g></g><g style="display: block;" transform="matrix(1.0149999856948853,0.014999979175627232,0.014999979175627232,1.0149999856948853,185.13372802734375,163.6334991455078)" opacity="1"><g opacity="1" transform="matrix(1,0,0,1,0,0)"><path fill="rgb(255,223,121)" fill-opacity="1" d=" M-62.24300003051758,-33.14699935913086 C-62.24300003051758,-33.14699935913086 -60.729000091552734,-44.56100082397461 -48.935001373291016,-40.73500061035156 C-34.91999816894531,-36.1879997253418 -8.392000198364258,-0.4129999876022339 8.20199966430664,17.929000854492188 C26.781999588012695,38.46799850463867 53.19900131225586,78.54000091552734 69.36100006103516,57.04100036621094 C69.36100006103516,57.04100036621094 56.74700164794922,53.869998931884766 45.21500015258789,41.14500045776367 C16.170000076293945,9.095999717712402 -32.7760009765625,-53.263999938964844 -45.76599884033203,-60.124000549316406 C-63.91400146484375,-69.70700073242188 -78.6729965209961,-55.85300064086914 -62.24300003051758,-33.14699935913086z"></path></g></g><g style="display: block;" transform="matrix(1.0149999856948853,0.014999979175627232,0.014999979175627232,1.0149999856948853,363.49951171875,253.1923065185547)" opacity="1"><g opacity="1" transform="matrix(1,0,0,1,0,0)"><path fill="rgb(255,177,57)" fill-opacity="1" d=" M52.01599884033203,-93.46700286865234 C10.62600040435791,-77.30699920654297 30.32699966430664,-26.694000244140625 9.479999542236328,-8.12600040435791 C-2.9769999980926514,2.9700000286102295 -12.756999969482422,3.4019999504089355 -29.798999786376953,32.88800048828125 C-46.04999923706055,61.005001068115234 -33.85900115966797,92.6780014038086 -38.41899871826172,93.43800354003906 C-42.979000091552734,94.197998046875 -50.457000732421875,80.12100219726562 -51.8390007019043,59.99800109863281 C-53.643001556396484,33.73500061035156 -41.19900131225586,9.57800006866455 -35.23899841308594,-1.3220000267028809 C-29.27899932861328,-12.211999893188477 -35.23899841308594,-21.082000732421875 -35.23899841308594,-21.082000732421875 C-35.23899841308594,-21.082000732421875 -35.23899841308594,-21.082000732421875 -35.23899841308594,-21.082000732421875 C-17.70599937438965,0 -3.559000015258789,-2.51200008392334 4.7210001945495605,-14.461999893188477 C14.940999984741211,-29.222000122070312 10.630999565124512,-50.70199966430664 16.871000289916992,-67.56199645996094 C20.951000213623047,-78.56199645996094 35.29499816894531,-92.16999816894531 52.01599884033203,-93.46700286865234z"></path></g></g><g style="display: block;" transform="matrix(1.0149999856948853,0.014999979175627232,0.014999979175627232,1.0149999856948853,253.49635314941406,157.2521209716797)" opacity="1"><g opacity="1" transform="matrix(1,0,0,1,0,0)"><path fill="rgb(255,223,121)" fill-opacity="1" d=" M75.79299926757812,74.82099914550781 C70.6729965209961,89.16200256347656 55.987998962402344,73.21099853515625 30.54800033569336,41.058998107910156 C10.635000228881836,15.892999649047852 -32.10900115966797,-45.946998596191406 -49.27199935913086,-57.152000427246094 C-66.21099853515625,-68.21099853515625 -69.572998046875,-56.07600021362305 -69.572998046875,-56.07600021362305 C-73.89299774169922,-61.13600158691406 -75.56300354003906,-67.94599914550781 -75.79299926757812,-74.96600341796875 C-74.86299896240234,-75.71600341796875 -73.84300231933594,-76.44599914550781 -72.71299743652344,-77.15599822998047 C-49.62300109863281,-91.71600341796875 -24.843000411987305,-49.91600036621094 7.247000217437744,-9.805999755859375 C17.867000579833984,3.4639999866485596 75.79299926757812,74.82099914550781 75.79299926757812,74.82099914550781z"></path></g></g><g style="display: block;" transform="matrix(1.0149999856948853,0.014999979175627232,0.014999979175627232,1.0149999856948853,141.7015380859375,244.95730590820312)" opacity="1"><g opacity="1" transform="matrix(1,0,0,1,0,0)"><path fill="rgb(255,177,57)" fill-opacity="1" d=" M-42.64400100708008,-75.9540023803711 C-42.64400100708008,-75.9540023803711 -58.86600112915039,-72.63099670410156 -35.040000915527344,-41.99800109863281 C-28.229999542236328,-33.24300003051758 18.42799949645996,11.843000411987305 46.40800094604492,39.823001861572266 C74.38800048828125,67.8030014038086 52.527000427246094,77.73300170898438 52.527000427246094,77.73300170898438 C52.527000427246094,77.73300170898438 54.88999938964844,69.51599884033203 32.040000915527344,47.582000732421875 C9.1899995803833,25.648000717163086 -27.354999542236328,-10.562000274658203 -40.19599914550781,-24.861000061035156 C-53.0369987487793,-39.15999984741211 -66.4219970703125,-59.20399856567383 -58.053001403808594,-70.79399871826172 C-49.683998107910156,-82.38400268554688 -42.64400100708008,-75.9540023803711 -42.64400100708008,-75.9540023803711z"></path></g></g><g style="display: block;" transform="matrix(1.0149999856948853,0.014999979175627232,0.014999979175627232,1.0149999856948853,166.76260375976562,185.3613739013672)" opacity="1"><g opacity="1" transform="matrix(1,0,0,1,0,0)"><path fill="rgb(255,177,57)" fill-opacity="1" d=" M-38.4370002746582,-82.83899688720703 C-38.4370002746582,-82.83899688720703 -56.882999420166016,-78.375 -39.31100082397461,-52.86899948120117 C-23.402000427246094,-29.775999069213867 -9.378999710083008,-15.088000297546387 22.966999053955078,20.13599967956543 C55.3129997253418,55.36000061035156 70.26899719238281,71.01100158691406 49.98400115966797,82.83899688720703 C49.98400115966797,82.83899688720703 57.01499938964844,73.61799621582031 32.91999816894531,49.50899887084961 C13.866000175476074,30.444000244140625 -34.933998107910156,-24.493000030517578 -45.01900100708008,-37.42599868774414 C-55.104000091552734,-50.35900115966797 -74.19499969482422,-80.75299835205078 -38.4370002746582,-82.83899688720703z"></path></g></g><g style="display: block;" transform="matrix(1.0149999856948853,0.014999979175627232,0.014999979175627232,1.0149999856948853,215.51925659179688,150.9330291748047)" opacity="1"><g opacity="1" transform="matrix(1,0,0,1,0,0)"><path fill="rgb(255,177,57)" fill-opacity="1" d=" M-22.027000427246094,-71.58799743652344 C-22.027000427246094,-71.58799743652344 -38.73400115966797,-69.63200378417969 -25.972000122070312,-47.2760009765625 C-11.9399995803833,-22.69499969482422 9.416999816894531,1.7319999933242798 27.226999282836914,26.211000442504883 C45.82099914550781,51.76900100708008 52.09400177001953,63.70899963378906 35.28499984741211,73.0739974975586 C35.28499984741211,73.0739974975586 41.814998626708984,65.61100006103516 27.944000244140625,46.944000244140625 C18.108999252319336,33.70800018310547 -26.631999969482422,-20.541000366210938 -35.35900115966797,-34.249000549316406 C-44.08599853515625,-47.957000732421875 -51.92300033569336,-62.784000396728516 -35.38399887084961,-71.48699951171875 C-28.709999084472656,-74.9990005493164 -22.027000427246094,-71.58799743652344 -22.027000427246094,-71.58799743652344z"></path></g></g><g style="display: block;" transform="matrix(1.0149999856948853,0.014999979175627232,0.014999979175627232,1.0149999856948853,241.133056640625,148.58181762695312)" opacity="1"><g opacity="1" transform="matrix(1,0,0,1,0,0)"><path stroke-linecap="round" stroke-linejoin="round" fill-opacity="0" stroke="rgb(247,126,65)" stroke-opacity="1" stroke-width="8" d=" M69.0780029296875,62.93199920654297 C58.45899963378906,50.986000061035156 29.92099952697754,11.82800006866455 19.302000045776367,-1.4459999799728394 C-12.781999588012695,-41.55099868774414 -37.17399978637695,-82.71299743652344 -60.659000396728516,-68.7969970703125 C-83.69200134277344,-55.14899826049805 -54.737998962402344,-25.301000595092773 -30.457000732421875,7.508999824523926 C-5.8420000076293945,40.77199935913086 19.514999389648438,64.87899780273438 10.010000228881836,71.55999755859375"></path></g></g><g style="display: block;" transform="matrix(1.0149999856948853,0.014999979175627232,0.014999979175627232,1.0149999856948853,179.419921875,181.99569702148438)" opacity="1"><g opacity="1" transform="matrix(1,0,0,1,0,0)"><path stroke-linecap="round" stroke-linejoin="round" fill-opacity="0" stroke="rgb(247,126,65)" stroke-opacity="1" stroke-width="8" d=" M37.46200180053711,82.44400024414062 C44.90700149536133,73.92400360107422 20.594999313354492,57.9640007019043 -16.49799919128418,14.802000045776367 C-49.06999969482422,-23.099000930786133 -85.27999877929688,-60.99599838256836 -65.85299682617188,-77.03800201416016 C-45.29600143432617,-94.01300048828125 -26.964000701904297,-69.03900146484375 7.263999938964844,-29.70199966430664 C35.13100051879883,2.325000047683716 63.970001220703125,44.595001220703125 71.31099700927734,37.73400115966797"></path></g></g><g style="display: block;" transform="matrix(1.0149999856948853,0.014999979175627232,0.014999979175627232,1.0149999856948853,149.45361328125,242.36038208007812)" opacity="1"><g opacity="1" transform="matrix(1,0,0,1,0,0)"><path stroke-linecap="round" stroke-linejoin="round" fill-opacity="0" stroke="rgb(247,126,65)" stroke-opacity="1" stroke-width="8" d=" M67.87100219726562,22.52199935913086 C61.65299987792969,30.336999893188477 31.711000442504883,-3.632999897003174 6.01800012588501,-29.427000045776367 C-26.417999267578125,-61.9900016784668 -47.1619987487793,-87.66799926757812 -62.487998962402344,-72.0510025024414 C-80.46299743652344,-53.73500061035156 -50.74599838256836,-25.69300079345703 -12.946999549865723,12.024999618530273 C25.36400032043457,50.25400161743164 50.41600036621094,69.00399780273438 43.5099983215332,76.74600219726562"></path></g></g><g style="display: block;" transform="matrix(1.0149999856948853,0.014999979175627232,0.014999979175627232,1.0149999856948853,267.65350341796875,304.47125244140625)" opacity="1"><g opacity="1" transform="matrix(1,0,0,1,0,0)"><path fill="rgb(255,177,57)" fill-opacity="1" d=" M154.6280059814453,-50.400001525878906 C154.05799865722656,-28.260000228881836 153.95799255371094,-21.40999984741211 159.16799926757812,12.8100004196167 C164.3780059814453,47.02000045776367 152.75799560546875,78.9000015258789 134.3679962158203,101.31999969482422 C116.38800048828125,123.2300033569336 82.28800201416016,149.83999633789062 42.96799850463867,149.74000549316406 C-3.8320000171661377,149.61000061035156 -60.71200180053711,95.29000091552734 -77.41200256347656,79.9000015258789 C-77.41200256347656,79.9000015258789 -77.41200256347656,79.9000015258789 -77.4219970703125,79.88999938964844 C-89.60199737548828,68.36000061035156 -111.21199798583984,47.709999084472656 -130.81199645996094,30.829999923706055 C-165.79200744628906,0.7300000190734863 -189.802001953125,-22.420000076293945 -171.94200134277344,-38.86000061035156 C-171.3719940185547,-39.38999938964844 -170.79200744628906,-39.86000061035156 -170.20199584960938,-40.290000915527344 C-170.20199584960938,-40.290000915527344 -163.8520050048828,-43.04999923706055 -163.8520050048828,-43.04999923706055 C-163.8520050048828,-43.04999923706055 -163.3419952392578,-43.27000045776367 -163.3419952392578,-43.27000045776367 C-163.3419952392578,-43.27000045776367 -163.40199279785156,-43.220001220703125 -163.49200439453125,-43.11000061035156 C-164.27200317382812,-42.22999954223633 -167.64199829101562,-37.630001068115234 -164.14199829101562,-27.780000686645508 C-160.21200561523438,-16.729999542236328 -132.70599365234375,7.998000144958496 -119.83200073242188,19.31999969482422 C-96.73100280761719,39.63600158691406 -44.63199996948242,86.08999633789062 -39.731998443603516,90.72000122070312 C-29.312000274658203,100.55999755859375 -7.26200008392334,116.62000274658203 27.408000946044922,121.62999725341797 C62.06800079345703,126.62999725341797 81.36799621582031,109.05000305175781 80.64800262451172,100.47000122070312 C79.93800354003906,91.88999938964844 68.64700317382812,86.40799713134766 65.64800262451172,76.73999786376953 C62.37200164794922,66.1780014038086 65.64800262451172,66.58999633789062 72.0780029296875,71.94999694824219 C78.50800323486328,77.30999755859375 114.41200256347656,88.49299621582031 128.8979949951172,59.79999923706055 C147.21299743652344,23.523000717163086 135.98699951171875,-30.575000762939453 141.9949951171875,-62.96099853515625 C149.76100158691406,-104.82099914550781 163.52000427246094,-112.72200012207031 167.0679931640625,-128.25 C169.86099243164062,-140.4739990234375 156.55799865722656,-149.4499969482422 156.0780029296875,-149.74000549316406 C160.25799560546875,-149.6699981689453 164.20799255371094,-148.6300048828125 167.68800354003906,-146.35000610351562 C185.84800720214844,-134.42999267578125 176.197998046875,-121.37000274658203 167.68800354003906,-106.04000091552734 C159.16799926757812,-90.70999908447266 155.197998046875,-72.54000091552734 154.6280059814453,-50.400001525878906z"></path></g></g><g style="display: block;" transform="matrix(1.0149999856948853,0.014999979175627232,0.014999979175627232,1.0149999856948853,141.25381469726562,321.0945739746094)" opacity="1"><g opacity="1" transform="matrix(1,0,0,1,0,0)"><path stroke-linecap="round" stroke-linejoin="round" fill-opacity="0" stroke="rgb(247,126,65)" stroke-opacity="1" stroke-width="8" d=" M52.736000061035156,-0.9620000123977661 C48.439998626708984,5.290999889373779 28.416000366210938,-17.51099967956543 7.076000213623047,-35.28200149536133 C-20.86400032043457,-58.54999923706055 -35.106998443603516,-68.16899871826172 -47.14500045776367,-57.084999084472656 C-65.00399780273438,-40.641998291015625 -37.05099868774414,-16.81999969482422 -6.014999866485596,11.609000205993652 C13.065999984741211,29.08799934387207 35.20500183105469,50.143001556396484 47.38399887084961,61.680999755859375"></path></g></g><g style="display: block;" transform="matrix(1.0149999856948853,0.014999979175627232,0.014999979175627232,1.0149999856948853,318.69873046875,305.2174987792969)" opacity="1"><g opacity="1" transform="matrix(1,0,0,1,0,0)"><path stroke-linecap="round" stroke-linejoin="round" fill-opacity="0" stroke="rgb(247,126,65)" stroke-opacity="1" stroke-width="8" d=" M-5.077000141143799,-90.29299926757812 C11.39799976348877,-69.71399688720703 25.365999221801758,-57.87799835205078 34.31700134277344,-58.15700149536133 C40.15599822998047,-58.3390007019043 45.59199905395508,-60.55699920654297 49.62699890136719,-66.38500213623047 C59.84700012207031,-81.14700317382812 55.534000396728516,-102.625 61.77899932861328,-119.48600006103516 C68.02400207519531,-136.3470001220703 99.2249984741211,-158.26400756835938 117.39299774169922,-146.34100341796875 C135.56100463867188,-134.41799926757812 125.90899658203125,-121.36000061035156 117.39299774169922,-106.03099822998047 C108.87699890136719,-90.7020034790039 104.90299987792969,-72.53299713134766 104.33499908447266,-50.39099884033203 C103.76699829101562,-28.249000549316406 103.6719970703125,-21.399999618530273 108.87799835205078,12.814000129699707 C114.08399963378906,47.02799987792969 102.46800231933594,78.91200256347656 84.0770034790039,101.322998046875 C66.09700012207031,123.23300170898438 31.993000030517578,149.85000610351562 -7.323999881744385,149.7449951171875 C-54.12200164794922,149.6199951171875 -106.83499908447266,98.66799926757812 -127.70800018310547,79.91200256347656"></path></g></g><g style="display: block;" transform="matrix(1.0149999856948853,0.014999979175627232,0.014999979175627232,1.0149999856948853,215.39990234375,110.17066192626953)" opacity="1"><g opacity="1" transform="matrix(1,0,0,1,0,0)"><path stroke-linecap="round" stroke-linejoin="round" fill-opacity="0" stroke="rgb(255,255,255)" stroke-opacity="1" stroke-width="6" d=" M-3.2179999351501465,-3.256999969482422 C-1.0360000133514404,-1.2079999446868896 1.2319999933242798,1.0420000553131104 3.2179999351501465,3.256999969482422"></path></g></g><g style="display: block;" transform="matrix(1.0149999856948853,0.014999979175627232,0.014999979175627232,1.0149999856948853,203.47149658203125,99.20425415039062)" opacity="1"><g opacity="1" transform="matrix(1,0,0,1,0,0)"><path stroke-linecap="round" stroke-linejoin="round" fill-opacity="0" stroke="rgb(255,255,255)" stroke-opacity="1" stroke-width="6" d=" M-0.8209999799728394,-0.6779999732971191 C-0.8209999799728394,-0.6779999732971191 -0.20399999618530273,-0.1809999942779541 0.8209999799728394,0.6779999732971191"></path></g></g><g style="display: block;" transform="matrix(1.0149999856948853,0.014999979175627232,0.014999979175627232,1.0149999856948853,249.86520385742188,249.86495971679688)" opacity="1"><g opacity="1" transform="matrix(1,0,0,1,0,0)"><path stroke-linecap="butt" stroke-linejoin="miter" fill-opacity="0" stroke-miterlimit="10" stroke="rgb(112,112,112)" stroke-opacity="1" stroke-width="10" d="M0 0"></path></g><g opacity="1" transform="matrix(1,0,0,1,0,0)"><path stroke-linecap="butt" stroke-linejoin="miter" fill-opacity="0" stroke-miterlimit="10" stroke="rgb(112,112,112)" stroke-opacity="1" stroke-width="10" d="M0 0"></path></g><g opacity="1" transform="matrix(1,0,0,1,0,0)"><path stroke-linecap="butt" stroke-linejoin="miter" fill-opacity="0" stroke-miterlimit="10" stroke="rgb(112,112,112)" stroke-opacity="1" stroke-width="10" d="M0 0"></path></g><g opacity="1" transform="matrix(1,0,0,1,0,0)"><path stroke-linecap="butt" stroke-linejoin="miter" fill-opacity="0" stroke-miterlimit="10" stroke="rgb(112,112,112)" stroke-opacity="1" stroke-width="10" d="M0 0"></path></g><g opacity="1" transform="matrix(1,0,0,1,0,0)"><path fill="rgb(255,223,121)" fill-opacity="1" d=" M136.36500549316406,-7.2729997634887695 C130.625,-12.135000228881836 112.3489990234375,-3.6010000705718994 94.32499694824219,16.589000701904297 C70.41000366210938,43.37799835205078 70.36799621582031,73.37300109863281 80.34100341796875,90.45700073242188 C91.99400329589844,110.41799926757812 118.30000305175781,107.81199645996094 122.29499816894531,87.46099853515625 C126.45999908447266,66.24500274658203 127.2760009765625,45.2400016784668 133.86500549316406,29.04599952697754 C139.63099670410156,14.87399959564209 143.3520050048828,-1.3550000190734863 136.36500549316406,-7.2729997634887695z"></path></g><g opacity="1" transform="matrix(1,0,0,1,0,0)"><path fill="rgb(255,223,121)" fill-opacity="1" d=" M161.80299377441406,-88.5739974975586 C149.74400329589844,-86.65899658203125 141.50900268554688,-74.75 137.33399963378906,-61.91600036621094 C133.7550048828125,-50.91400146484375 130.6479949951172,-32.702999114990234 140.3730010986328,-31.441999435424805 C148.54800415039062,-30.381999969482422 151.9770050048828,-43.16999816894531 163.0449981689453,-55.6609992980957 C178.24000549316406,-72.80799865722656 179.91600036621094,-91.45099639892578 161.80299377441406,-88.5739974975586z"></path></g><g opacity="1" transform="matrix(1,0,0,1,0,0)"><path fill="rgb(255,223,121)" fill-opacity="1" d=" M48.534000396728516,-17.381000518798828 C44.53300094604492,-25.384000778198242 16.996999740600586,-21.13800048828125 -7.130000114440918,10.279000282287598 C-31.256999969482422,41.69599914550781 -48.137001037597656,90.79900360107422 -35.861000061035156,99.23799896240234 C-23.584999084472656,107.677001953125 -17.298999786376953,77.94000244140625 -4.020999908447266,55.12200164794922 C9.40999984741211,32.04100036621094 21.827999114990234,19.83099937438965 31.658000946044922,10.093000411987305 C42.89400100708008,-1.0369999408721924 52.75400161743164,-8.942000389099121 48.534000396728516,-17.381000518798828z"></path></g><g opacity="1" transform="matrix(1,0,0,1,0,0)"><path fill="rgb(255,223,121)" fill-opacity="1" d=" M32.516998291015625,131.4929962158203 C14.541999816894531,128.34800720214844 7.645999908447266,122.56600189208984 -1.6799999475479126,118.05400085449219 C-11.005999565124512,113.54199981689453 -20.93199920654297,119.25700378417969 -14.012999534606934,132.4929962158203 C-7.093999862670898,145.72900390625 16.09600067138672,158.1320037841797 29.906999588012695,159.8679962158203 C52.79999923706055,162.74600219726562 77.66500091552734,156.14199829101562 76.06400299072266,141.7209930419922 C74.90899658203125,131.32000732421875 59.02399826049805,136.1300048828125 32.516998291015625,131.4929962158203z"></path></g></g></g></svg>