<svg xmlns="http://www.w3.org/2000/svg" viewBox="0 0 512 512" width="512" height="512" style="width: 100%; height: 100%; transform: translate3d(0,0,0);" preserveAspectRatio="xMidYMid meet"><defs><clipPath id="__lottie_element_3347"><rect width="512" height="512" x="0" y="0"></rect></clipPath></defs><g clip-path="url(#__lottie_element_3347)"><g style="display: block;" transform="matrix(1,0,0,1,0,8)" opacity="1"><g opacity="0.1" transform="matrix(1.0700000524520874,0,0,0.9700000286102295,256.24200439453125,306.1780090332031)"><path fill="rgb(0,0,0)" fill-opacity="1" d=" M192.96499633789062,0 C192.96499633789062,106.57099914550781 106.57099914550781,192.96499633789062 0,192.96499633789062 C-106.5719985961914,192.96499633789062 -192.96499633789062,106.57099914550781 -192.96499633789062,0 C-192.96499633789062,-106.5719985961914 -106.5719985961914,-192.96499633789062 0,-192.96499633789062 C106.57099914550781,-192.96499633789062 192.96499633789062,-106.5719985961914 192.96499633789062,0z"></path></g><g opacity="1" transform="matrix(1,0,0,1,255.8990020751953,255.78199768066406)"><path fill="rgb(255,177,57)" fill-opacity="1" d=" M216.21800231933594,0 C216.21800231933594,119.41400146484375 119.41400146484375,216.21800231933594 0,216.21800231933594 C-119.41400146484375,216.21800231933594 -216.21800231933594,119.41400146484375 -216.21800231933594,0 C-216.21800231933594,-119.41400146484375 -119.41400146484375,-216.21800231933594 0,-216.21800231933594 C119.41400146484375,-216.21800231933594 216.21800231933594,-119.41400146484375 216.21800231933594,0z"></path></g><g opacity="1" transform="matrix(1,0,0,1,255.96200561523438,253.6439971923828)"><path fill="rgb(254,205,0)" fill-opacity="1" d=" M192.72300720214844,2.9539999961853027 C191.05599975585938,111.73999786376953 103.41899871826172,198.60499572753906 -3.0190000534057617,196.9739990234375 C-109.45700073242188,195.3419952392578 -194.38999938964844,105.83100128173828 -192.72300720214844,-2.9539999961853027 C-191.05599975585938,-111.73899841308594 -103.41899871826172,-198.60499572753906 3.0190000534057617,-196.9739990234375 C109.45700073242188,-195.3419952392578 194.38999938964844,-105.83100128173828 192.72300720214844,2.9539999961853027z"></path></g><g opacity="1" transform="matrix(1,0,0,1,0,0)"><g opacity="0.9" transform="matrix(1,0,0,1,255.8990020751953,152.9600067138672)"><path fill="rgb(254,220,90)" fill-opacity="1" d=" M170.87600708007812,54.250999450683594 C170.87600708007812,137.41099548339844 94.37200164794922,71.62699890136719 0,71.62699890136719 C-94.37300109863281,71.62699890136719 -170.87600708007812,137.41099548339844 -170.87600708007812,54.250999450683594 C-170.87600708007812,-28.909000396728516 -94.37300109863281,-96.322998046875 0,-96.322998046875 C94.37200164794922,-96.322998046875 170.87600708007812,-28.909000396728516 170.87600708007812,54.250999450683594z"></path></g><g opacity="1" transform="matrix(1,0,0,1,0,0)"><g opacity="1" transform="matrix(1,0,0,1,300.27099609375,62.10300064086914)"><path stroke-linecap="round" stroke-linejoin="round" fill-opacity="0" stroke="rgb(255,255,255)" stroke-opacity="1" stroke-width="6" d=" M-2.734999895095825,-0.6359999775886536 C-0.9750000238418579,-0.25200000405311584 0.8519999980926514,0.17100000381469727 2.734999895095825,0.6359999775886536"></path></g><g opacity="1" transform="matrix(1,0,0,1,280.2969970703125,58.6619987487793)"><path stroke-linecap="round" stroke-linejoin="round" fill-opacity="0" stroke="rgb(255,255,255)" stroke-opacity="1" stroke-width="6" d=" M-7.205999851226807,-0.8809999823570251 C-7.205999851226807,-0.8809999823570251 -1.6349999904632568,-0.5820000171661377 7.205999851226807,0.8809999823570251"></path></g></g></g><g opacity="1" transform="matrix(1,0,0,1,255.8990020751953,255.78199768066406)"><path stroke-linecap="butt" stroke-linejoin="miter" fill-opacity="0" stroke-miterlimit="10" stroke="rgb(247,126,65)" stroke-opacity="1" stroke-width="8" d=" M216.21800231933594,0 C216.21800231933594,119.41400146484375 119.41400146484375,216.21800231933594 0,216.21800231933594 C-119.41400146484375,216.21800231933594 -216.21800231933594,119.41400146484375 -216.21800231933594,0 C-216.21800231933594,-119.41400146484375 -119.41400146484375,-216.21800231933594 0,-216.21800231933594 C119.41400146484375,-216.21800231933594 216.21800231933594,-119.41400146484375 216.21800231933594,0z"></path></g></g><g style="display: block;" transform="matrix(1,0,0,1,0,8)" opacity="1"><g opacity="1" transform="matrix(1,0,0,1,255.66900634765625,339.2449951171875)"><path fill="rgb(255,226,166)" fill-opacity="1" d=" M-130.552001953125,52.444000244140625 C-130.552001953125,-9.586999893188477 -70.38899993896484,-60.685001373291016 0.01600000075995922,-60.685001373291016 C71.00900268554688,-60.66299819946289 131.71299743652344,-8.699999809265137 130.53599548339844,54.15999984741211 C129.36599731445312,72.9260025024414 103.66400146484375,44.95100021362305 0.01600000075995922,42.68000030517578 C-104.86299896240234,44.41999816894531 -130.09800720214844,74.9469985961914 -130.552001953125,52.444000244140625z"></path></g><g opacity="1" transform="matrix(1,0,0,1,255.66900634765625,324.8370056152344)"><path fill="rgb(255,177,57)" fill-opacity="1" d=" M-129.4080047607422,53.1150016784668 C-129.4080047607422,-8.916000366210938 -70.38899993896484,-61.159000396728516 0.01600000075995922,-61.159000396728516 C71.00900268554688,-61.137001037597656 130.56900024414062,-8.029000282287598 129.39100646972656,54.83100128173828 C128.2209930419922,73.59700012207031 103.66400146484375,44.47700119018555 0.01600000075995922,42.20600128173828 C-104.86299896240234,43.94599914550781 -128.95399475097656,75.61799621582031 -129.4080047607422,53.1150016784668z"></path></g><g opacity="1" transform="matrix(1,0,0,1,255.66900634765625,331.70599365234375)"><path fill="rgb(141,56,0)" fill-opacity="1" d=" M-129.4080047607422,53.1150016784668 C-129.4080047607422,-8.916000366210938 -70.38899993896484,-61.159000396728516 0.01600000075995922,-61.159000396728516 C71.00900268554688,-61.137001037597656 130.5679931640625,-8.029000282287598 129.39100646972656,54.83100128173828 C128.2209930419922,73.59700012207031 103.66400146484375,44.47700119018555 0.01600000075995922,42.20600128173828 C-104.86299896240234,43.94599914550781 -128.95399475097656,75.61799621582031 -129.4080047607422,53.1150016784668z"></path></g><g opacity="1" transform="matrix(1,0,0,1,255.6719970703125,329.73699951171875)"><path fill="rgb(106,31,0)" fill-opacity="1" d=" M129.38999938964844,56.79800033569336 C129.33299255371094,57.70199966430664 129.218994140625,58.50299835205078 129.0469970703125,59.189998626708984 C124.03299713134766,0.8870000243186951 67.13700103759766,-46.57500076293945 0.00800000037997961,-46.597999572753906 C-67.02899932861328,-46.597999572753906 -123.72899627685547,0.7609999775886536 -128.9949951171875,58.834999084472656 C-129.2469940185547,57.80500030517578 -129.3730010986328,56.55699920654297 -129.40699768066406,55.08000183105469 C-129.40699768066406,-6.942999839782715 -70.3949966430664,-59.189998626708984 0.00800000037997961,-59.189998626708984 C71.00700378417969,-59.16699981689453 130.56900024414062,-6.060999870300293 129.38999938964844,56.79800033569336z"></path></g><g opacity="1" transform="matrix(1,0,0,1,256.0150146484375,300.5849914550781)"><path fill="rgb(244,244,244)" fill-opacity="1" d=" M80.02400207519531,12.157999992370605 C58.28900146484375,-10.47700023651123 26.229999542236328,-18.52899932861328 0,-18.52899932861328 C-26.229999542236328,-18.52899932861328 -58.28900146484375,-10.47700023651123 -80.02400207519531,12.157999992370605 C-85.3290023803711,17.683000564575195 -83.99700164794922,20.07200050354004 -76.67900085449219,17.486000061035156 C-64.48200225830078,13.175000190734863 -36.84299850463867,2.503999948501587 0,2.503999948501587 C36.84299850463867,2.503999948501587 64.48200225830078,13.175000190734863 76.67900085449219,17.486000061035156 C83.99700164794922,20.07200050354004 85.33000183105469,17.683000564575195 80.02400207519531,12.157999992370605z"></path></g><g opacity="1" transform="matrix(1,0,0,1,189.37600708007812,305.6419982910156)"><path fill="rgb(201,214,215)" fill-opacity="1" d=" M10.003999710083008,5.750999927520752 C10.003999710083008,5.750999927520752 9.993000030517578,5.76200008392334 9.993000030517578,5.76200008392334 C1.3380000591278076,8.279999732971191 -5.449999809265137,10.798999786376953 -10.041000366210938,12.425000190734863 C-17.356000900268555,15.01200008392334 -18.69499969482422,12.630999565124512 -13.383000373840332,7.1020002365112305 C-4.693999767303467,-1.9420000314712524 5.642000198364258,-8.661999702453613 16.608999252319336,-13.470000267028809 C2.562999963760376,-5.593999862670898 3.5929999351501465,5.876999855041504 10.003999710083008,5.750999927520752z"></path></g><g opacity="1" transform="matrix(1,0,0,1,322.7130126953125,305.6419982910156)"><path fill="rgb(201,214,215)" fill-opacity="1" d=" M-10.003999710083008,5.750999927520752 C-10.003999710083008,5.750999927520752 -9.993000030517578,5.76200008392334 -9.993000030517578,5.76200008392334 C-1.3380000591278076,8.279999732971191 5.449999809265137,10.798999786376953 10.041000366210938,12.425000190734863 C17.356000900268555,15.01200008392334 18.69499969482422,12.630999565124512 13.383000373840332,7.1020002365112305 C4.693999767303467,-1.9420000314712524 -5.642000198364258,-8.661999702453613 -16.608999252319336,-13.470000267028809 C-2.562999963760376,-5.593999862670898 -3.5929999351501465,5.876999855041504 -10.003999710083008,5.750999927520752z"></path></g></g><g style="display: block;" transform="matrix(1,0,0,1,0,8)" opacity="1"><g opacity="1" transform="matrix(1,0,0,1,0,0)"><g opacity="1" transform="matrix(1,0,0,1,178.1179962158203,210.29299926757812)"><path fill="rgb(255,226,166)" fill-opacity="1" d=" M49.138999938964844,-1.3459999561309814 C49.138999938964844,-19.417999267578125 24.21299934387207,-24.14900016784668 -0.9430000185966492,-36.18199920654297 C-28.708999633789062,-49.4630012512207 -49.87200164794922,-64.83399963378906 -49.119998931884766,-51.75299835205078 C-48.64699935913086,-43.52000045776367 11.329000473022461,-12.59000015258789 11.20300006866455,-0.20100000500679016 C11.086999893188477,11.142999649047852 -42.904998779296875,45.49700164794922 -36.090999603271484,55.89799880981445 C-35.73400115966797,56.44200134277344 -35.15800094604492,56.77000045776367 -34.03900146484375,56.722999572753906 C-20.958999633789062,56.17599868774414 49.138999938964844,16.172000885009766 49.138999938964844,-1.3459999561309814z"></path></g><g opacity="1" transform="matrix(1,0,0,1,178.1269989013672,207.96299743652344)"><path fill="rgb(141,56,0)" fill-opacity="1" d=" M47.98500061035156,-3.5959999561309814 C47.98500061035156,-14.987000465393066 24.202999114990234,-26.39900016784668 -0.953000009059906,-38.43199920654297 C-28.7189998626709,-51.7130012512207 -47.944000244140625,-57.59000015258789 -47.98500061035156,-52.858001708984375 C-48.055999755859375,-44.61199951171875 11.319000244140625,-14.84000015258789 11.192999839782715,-2.4509999752044678 C11.07699966430664,8.892999649047852 -38.643001556396484,46.680999755859375 -36.10100173950195,53.64799880981445 C-35.87799835205078,54.25899887084961 -35.167999267578125,54.52000045776367 -34.04899978637695,54.472999572753906 C-20.9689998626709,53.92599868774414 47.98500061035156,11.366000175476074 47.98500061035156,-3.5959999561309814z"></path></g><g opacity="1" transform="matrix(1,0,0,1,178.12899780273438,181.8179931640625)"><path fill="rgb(106,31,0)" fill-opacity="1" d=" M-47.983001708984375,-26.70800018310547 C-47.994998931884766,-25.666000366210938 -47.04399871826172,-24.270000457763672 -45.37300109863281,-22.599000930786133 C-39.2140007019043,-22.827999114990234 -22.69499969482422,-16.966999053955078 -0.9559999704360962,-6.560999870300293 C24.207000732421875,5.46999979019165 45.69300079345703,16.885000228881836 45.69300079345703,28.274999618530273 C45.69300079345703,28.274999618530273 45.69300079345703,28.332000732421875 45.69300079345703,28.332000732421875 C47.16999816894531,26.134000778198242 47.983001708984375,24.177000045776367 47.983001708984375,22.551000595092773 C47.983001708984375,11.16100025177002 24.207000732421875,-0.2529999911785126 -0.9559999704360962,-12.284000396728516 C-28.716999053955078,-25.562999725341797 -47.94900131225586,-31.44700050354004 -47.983001708984375,-26.70800018310547z"></path></g><g opacity="1" transform="matrix(1,0,0,1,166.77200317382812,231.7259979248047)"><path fill="rgb(106,31,0)" fill-opacity="1" d=" M-24.743000030517578,29.881999969482422 C-24.525999069213867,30.48900032043457 -23.81599998474121,30.75200080871582 -22.694000244140625,30.70599937438965 C-13.043000221252441,17.66699981689453 24.836000442504883,-13.069999694824219 24.836999893188477,-22.777999877929688 C24.836999893188477,-25.892000198364258 24.000999450683594,-27.711999893188477 20.70400047302246,-30.711000442504883 C21.895000457763672,-29.051000595092773 22.55900001525879,-27.527999877929688 22.54800033569336,-26.211999893188477 C22.433000564575195,-14.866999626159668 -27.28499984741211,22.922000885009766 -24.743000030517578,29.881999969482422z"></path></g></g><g opacity="1" transform="matrix(-1,0,0,1,513.2360229492188,0)"><g opacity="1" transform="matrix(1,0,0,1,178.1179962158203,210.29299926757812)"><path fill="rgb(255,226,166)" fill-opacity="1" d=" M49.138999938964844,-1.3459999561309814 C49.138999938964844,-19.417999267578125 24.21299934387207,-24.14900016784668 -0.9430000185966492,-36.18199920654297 C-28.708999633789062,-49.4630012512207 -49.87200164794922,-64.83399963378906 -49.119998931884766,-51.75299835205078 C-48.64699935913086,-43.52000045776367 11.329000473022461,-12.59000015258789 11.20300006866455,-0.20100000500679016 C11.086999893188477,11.142999649047852 -42.904998779296875,45.49700164794922 -36.090999603271484,55.89799880981445 C-35.73400115966797,56.44200134277344 -35.15800094604492,56.77000045776367 -34.03900146484375,56.722999572753906 C-20.958999633789062,56.17599868774414 49.138999938964844,16.172000885009766 49.138999938964844,-1.3459999561309814z"></path></g><g opacity="1" transform="matrix(1,0,0,1,178.1269989013672,207.96299743652344)"><path fill="rgb(141,56,0)" fill-opacity="1" d=" M47.98500061035156,-3.5959999561309814 C47.98500061035156,-14.987000465393066 24.202999114990234,-26.39900016784668 -0.953000009059906,-38.43199920654297 C-28.7189998626709,-51.7130012512207 -47.944000244140625,-57.59000015258789 -47.98500061035156,-52.858001708984375 C-48.055999755859375,-44.61199951171875 11.319000244140625,-14.84000015258789 11.192999839782715,-2.4509999752044678 C11.07699966430664,8.892999649047852 -38.643001556396484,46.680999755859375 -36.10100173950195,53.64799880981445 C-35.87799835205078,54.25899887084961 -35.167999267578125,54.52000045776367 -34.04899978637695,54.472999572753906 C-20.9689998626709,53.92599868774414 47.98500061035156,11.366000175476074 47.98500061035156,-3.5959999561309814z"></path></g><g opacity="1" transform="matrix(1,0,0,1,178.12899780273438,181.8179931640625)"><path fill="rgb(106,31,0)" fill-opacity="1" d=" M-47.983001708984375,-26.70800018310547 C-47.994998931884766,-25.666000366210938 -47.04399871826172,-24.270000457763672 -45.37300109863281,-22.599000930786133 C-39.2140007019043,-22.827999114990234 -22.69499969482422,-16.966999053955078 -0.9559999704360962,-6.560999870300293 C24.207000732421875,5.46999979019165 45.69300079345703,16.885000228881836 45.69300079345703,28.274999618530273 C45.69300079345703,28.274999618530273 45.69300079345703,28.332000732421875 45.69300079345703,28.332000732421875 C47.16999816894531,26.134000778198242 47.983001708984375,24.177000045776367 47.983001708984375,22.551000595092773 C47.983001708984375,11.16100025177002 24.207000732421875,-0.2529999911785126 -0.9559999704360962,-12.284000396728516 C-28.716999053955078,-25.562999725341797 -47.94900131225586,-31.44700050354004 -47.983001708984375,-26.70800018310547z"></path></g><g opacity="1" transform="matrix(1,0,0,1,166.77200317382812,231.7259979248047)"><path fill="rgb(106,31,0)" fill-opacity="1" d=" M-24.743000030517578,29.881999969482422 C-24.525999069213867,30.48900032043457 -23.81599998474121,30.75200080871582 -22.694000244140625,30.70599937438965 C-13.043000221252441,17.66699981689453 24.836000442504883,-13.069999694824219 24.836999893188477,-22.777999877929688 C24.836999893188477,-25.892000198364258 24.000999450683594,-27.711999893188477 20.70400047302246,-30.711000442504883 C21.895000457763672,-29.051000595092773 22.55900001525879,-27.527999877929688 22.54800033569336,-26.211999893188477 C22.433000564575195,-14.866999626159668 -27.28499984741211,22.922000885009766 -24.743000030517578,29.881999969482422z"></path></g></g></g><g style="display: block;" transform="matrix(1,0,0,1,0,8)" opacity="1"><g opacity="1" transform="matrix(1,0,0,1,177.99200439453125,107.76899719238281)"><path fill="rgb(255,226,166)" fill-opacity="1" d=" M-43.22600173950195,25.799999237060547 C-41.71799850463867,27.128999710083008 -37.43199920654297,28.687999725341797 -33.98400115966797,29.3799991607666 C-19.045000076293945,32.380001068115234 9.562999725341797,27.150999069213867 28.79199981689453,8.968999862670898 C56.17499923706055,-16.923999786376953 46.40999984741211,-34.48899841308594 40.3650016784668,-29.246999740600586 C34.31999969482422,-24.0049991607666 13.916999816894531,1.7000000476837158 -19.972000122070312,9.57800006866455 C-29.05299949645996,11.689000129699707 -37.02199935913086,9.449999809265137 -41.946998596191406,11.062000274658203 C-48.45199966430664,13.192000389099121 -48.76499938964844,20.920000076293945 -43.22600173950195,25.799999237060547z"></path></g><g opacity="1" transform="matrix(1,0,0,1,177.7530059814453,105.21700286865234)"><path fill="rgb(141,56,0)" fill-opacity="1" d=" M-43.428001403808594,22.895999908447266 C-41.99399948120117,24.30500030517578 -38.016998291015625,26.145000457763672 -34.569000244140625,26.836999893188477 C-19.6299991607666,29.836999893188477 6.455999851226807,26.22800064086914 25.684999465942383,8.045999526977539 C53.06800079345703,-17.847000122070312 46.64899826049805,-31.937000274658203 40.604000091552734,-26.69499969482422 C34.558998107910156,-21.452999114990234 14.274999618530273,0.9800000190734863 -19.61400032043457,8.857999801635742 C-28.69499969482422,10.968999862670898 -35.347999572753906,11.461000442504883 -40.27299880981445,13.072999954223633 C-46.77799987792969,15.20300006866455 -47.362998962402344,19.030000686645508 -43.428001403808594,22.895999908447266z"></path></g><g opacity="1" transform="matrix(1,0,0,1,177.75599670410156,102.12799835205078)"><path fill="rgb(106,31,0)" fill-opacity="1" d=" M-44.569000244140625,24.691999435424805 C-43.6619987487793,23.797000885009766 -42.23699951171875,23 -40.279998779296875,22.358999252319336 C-35.349998474121094,20.7450008392334 -28.69499969482422,20.246999740600586 -19.618999481201172,18.13599967956543 C14.274999618530273,10.265000343322754 34.56100082397461,-12.175999641418457 40.59700012207031,-17.416000366210938 C42.55400085449219,-19.10700035095215 44.542999267578125,-18.785999298095703 45.426998138427734,-16.69700050354004 C47.12900161743164,-23.716999053955078 43.81399917602539,-26.39299964904785 40.59700012207031,-23.60700035095215 C34.56100082397461,-18.367000579833984 14.274999618530273,4.074999809265137 -19.618999481201172,11.946000099182129 C-28.69499969482422,14.057999610900879 -35.349998474121094,14.553999900817871 -40.279998779296875,16.156999588012695 C-46.05099868774414,18.047000885009766 -47.15599822998047,21.275999069213867 -44.569000244140625,24.691999435424805z"></path></g></g><g style="display: block;" transform="matrix(-1,0,0,1,511.4840087890625,8)" opacity="1"><g opacity="1" transform="matrix(1,0,0,1,177.99200439453125,107.76899719238281)"><path fill="rgb(255,226,166)" fill-opacity="1" d=" M-43.22600173950195,25.799999237060547 C-41.71799850463867,27.128999710083008 -37.43199920654297,28.687999725341797 -33.98400115966797,29.3799991607666 C-19.045000076293945,32.380001068115234 9.562999725341797,27.150999069213867 28.79199981689453,8.968999862670898 C56.17499923706055,-16.923999786376953 46.40999984741211,-34.48899841308594 40.3650016784668,-29.246999740600586 C34.31999969482422,-24.0049991607666 13.916999816894531,1.7000000476837158 -19.972000122070312,9.57800006866455 C-29.05299949645996,11.689000129699707 -37.02199935913086,9.449999809265137 -41.946998596191406,11.062000274658203 C-48.45199966430664,13.192000389099121 -48.76499938964844,20.920000076293945 -43.22600173950195,25.799999237060547z"></path></g><g opacity="1" transform="matrix(1,0,0,1,177.7530059814453,105.21700286865234)"><path fill="rgb(141,56,0)" fill-opacity="1" d=" M-43.428001403808594,22.895999908447266 C-41.99399948120117,24.30500030517578 -38.016998291015625,26.145000457763672 -34.569000244140625,26.836999893188477 C-19.6299991607666,29.836999893188477 6.455999851226807,26.22800064086914 25.684999465942383,8.045999526977539 C53.06800079345703,-17.847000122070312 46.64899826049805,-31.937000274658203 40.604000091552734,-26.69499969482422 C34.558998107910156,-21.452999114990234 14.274999618530273,0.9800000190734863 -19.61400032043457,8.857999801635742 C-28.69499969482422,10.968999862670898 -35.347999572753906,11.461000442504883 -40.27299880981445,13.072999954223633 C-46.77799987792969,15.20300006866455 -47.362998962402344,19.030000686645508 -43.428001403808594,22.895999908447266z"></path></g><g opacity="1" transform="matrix(1,0,0,1,177.75599670410156,102.12799835205078)"><path fill="rgb(106,31,0)" fill-opacity="1" d=" M-44.569000244140625,24.691999435424805 C-43.6619987487793,23.797000885009766 -42.23699951171875,23 -40.279998779296875,22.358999252319336 C-35.349998474121094,20.7450008392334 -28.69499969482422,20.246999740600586 -19.618999481201172,18.13599967956543 C14.274999618530273,10.265000343322754 34.56100082397461,-12.175999641418457 40.59700012207031,-17.416000366210938 C42.55400085449219,-19.10700035095215 44.542999267578125,-18.785999298095703 45.426998138427734,-16.69700050354004 C47.12900161743164,-23.716999053955078 43.81399917602539,-26.39299964904785 40.59700012207031,-23.60700035095215 C34.56100082397461,-18.367000579833984 14.274999618530273,4.074999809265137 -19.618999481201172,11.946000099182129 C-28.69499969482422,14.057999610900879 -35.349998474121094,14.553999900817871 -40.279998779296875,16.156999588012695 C-46.05099868774414,18.047000885009766 -47.15599822998047,21.275999069213867 -44.569000244140625,24.691999435424805z"></path></g></g></g></svg>