<svg xmlns="http://www.w3.org/2000/svg" viewBox="0 0 512 512" width="512" height="512" style="width: 100%; height: 100%; transform: translate3d(0,0,0);" preserveAspectRatio="xMidYMid meet"><defs><clipPath id="__lottie_element_3368"><rect width="512" height="512" x="0" y="0"></rect></clipPath><linearGradient id="__lottie_element_3403" spreadMethod="pad" gradientUnits="userSpaceOnUse" x1="55" y1="-12" x2="67.9000015258789" y2="7.964000225067139"><stop offset="0%" stop-color="rgb(51,1,4)"></stop><stop offset="38%" stop-color="rgb(123,1,2)"></stop><stop offset="100%" stop-color="rgb(195,0,0)"></stop></linearGradient><linearGradient id="__lottie_element_3407" spreadMethod="pad" gradientUnits="userSpaceOnUse" x1="-55" y1="-12" x2="-42.099998474121094" y2="7.964000225067139"><stop offset="0%" stop-color="rgb(51,1,4)"></stop><stop offset="38%" stop-color="rgb(123,1,2)"></stop><stop offset="100%" stop-color="rgb(195,0,0)"></stop></linearGradient></defs><g clip-path="url(#__lottie_element_3368)"><g style="display: block;" transform="matrix(1,0,0,1,264,256)" opacity="1"><g opacity="1" transform="matrix(1,0,0,1,0,0)"><path fill="rgb(45,45,45)" fill-opacity="1" d=" M50.2400016784668,128.072998046875 C97.0199966430664,136.072998046875 128.77999877929688,152.0030059814453 141.77999877929688,168.2429962158203 C154.02000427246094,183.55299377441406 158.16099548339844,209.92300415039062 159.83099365234375,222.9429931640625 C159.83099365234375,222.9429931640625 159.83099365234375,222.9429931640625 159.83099365234375,222.9429931640625 C159.83099365234375,222.9429931640625 156.77099609375,226.39300537109375 146.91099548339844,228.84300231933594 C141.4510040283203,230.2030029296875 133.91000366210938,231.26300048828125 123.6500015258789,231.26300048828125 C123.6500015258789,231.26300048828125 -117.77899932861328,231.26300048828125 -117.77899932861328,231.26300048828125 C-127.6989974975586,231.26300048828125 -135.07899475097656,230.2729949951172 -140.48899841308594,228.98300170898438 C-150.78900146484375,226.51300048828125 -153.9600067138672,222.9429931640625 -153.9600067138672,222.9429931640625 C-152.16000366210938,209.54299926757812 -147.25900268554688,183.14300537109375 -135.33900451660156,168.2429962158203 C-122.33899688720703,152.0030059814453 -90.5790023803711,136.072998046875 -43.79899978637695,128.072998046875 C-12.444000244140625,125.96600341796875 18.902000427246094,125.98300170898438 50.2400016784668,128.072998046875z"></path></g><g opacity="0.6" transform="matrix(1,0,0,1,0,0)"><path stroke-linecap="round" stroke-linejoin="round" fill-opacity="0" stroke="rgb(0,0,0)" stroke-opacity="1" stroke-width="5" d=" M-128.73699951171875,188.8990020751953 C-126.76599884033203,199.66099548339844 -123.65599822998047,212.91799926757812 -118.5250015258789,228.06500244140625"></path></g><g opacity="0.2" transform="matrix(1,0,0,1,0,0)"><path fill="rgb(0,0,0)" fill-opacity="1" d=" M50.2400016784668,130.75 C49.981998443603516,196.2519989013672 97.94100189208984,239.97900390625 129.13499450683594,212.7100067138672 C129.13499450683594,212.7100067138672 123.23200225830078,231.25999450683594 123.23200225830078,231.25999450683594 C123.23200225830078,231.25999450683594 -117.72799682617188,231.25999450683594 -117.72799682617188,231.25999450683594 C-117.72799682617188,231.25999450683594 -123.63099670410156,212.7100067138672 -123.63099670410156,212.7100067138672 C-92.43699645996094,239.97900390625 -43.54100036621094,198.1219940185547 -43.79899978637695,132.6199951171875 C-43.79899978637695,132.6199951171875 50.2400016784668,130.75 50.2400016784668,130.75z"></path></g><g opacity="1" transform="matrix(1,0,0,1,0,0)"><path fill="rgb(61,61,61)" fill-opacity="1" d=" M50.2400016784668,128.072998046875 C97.0199966430664,136.072998046875 128.77999877929688,152.0030059814453 141.77999877929688,168.2429962158203 C154.02000427246094,183.55299377441406 161.83299255371094,222.5 161.83299255371094,222.5 C161.83299255371094,222.5 156.77099609375,226.39300537109375 146.91099548339844,228.84300231933594 C145.29100036621094,216.43299865722656 140.1699981689453,191.04299926757812 131.52000427246094,180.30299377441406 C108.61000061035156,151.84300231933594 50.2400016784668,145.67300415039062 50.2400016784668,145.67300415039062 C18.933000564575195,142.84500122070312 -12.413000106811523,142.8520050048828 -43.79899978637695,145.67300415039062 C-43.79899978637695,145.67300415039062 -102.16999816894531,151.84300231933594 -125.08000183105469,180.30299377441406 C-133.75999450683594,191.08299255371094 -138.88900756835938,216.6230010986328 -140.48899841308594,228.98300170898438 C-150.78900146484375,226.51300048828125 -156.33299255371094,221.66700744628906 -156.33299255371094,221.66700744628906 C-154.5330047607422,208.26699829101562 -147.25900268554688,183.14300537109375 -135.33900451660156,168.2429962158203 C-122.33899688720703,152.0030059814453 -90.5790023803711,136.072998046875 -43.79899978637695,128.072998046875 C-13.776000022888184,125.88899993896484 17.673999786376953,126.05999755859375 50.2400016784668,128.072998046875z"></path></g><g opacity="1" transform="matrix(1,0,0,1,0,0)"><g opacity="1" transform="matrix(1,0,0,1,0,0)"><path stroke-linecap="round" stroke-linejoin="round" fill-opacity="0" stroke="rgb(0,0,0)" stroke-opacity="1" stroke-width="8" d=" M160.4810028076172,219 C159.8300018310547,210.625 156.23899841308594,186.32400512695312 141.7790069580078,168.2429962158203 C128.7790069580078,152.0030059814453 97.01899719238281,136.072998046875 50.23899841308594,128.072998046875 C17.976999282836914,126.07099914550781 -13.456000328063965,125.87899780273438 -43.79899978637695,128.072998046875 C-90.5790023803711,136.072998046875 -122.33899688720703,152.0030059814453 -135.33900451660156,168.2429962158203 C-149.1959991455078,185.57000732421875 -152.9239959716797,210.23699951171875 -153.9600067138672,218.375"></path></g></g><g opacity="0.6" transform="matrix(1,0,0,1,0,0)"><path stroke-linecap="round" stroke-linejoin="round" fill-opacity="0" stroke="rgb(0,0,0)" stroke-opacity="1" stroke-width="5" d=" M134.73800659179688,189.11199951171875 C132.62399291992188,199.8350067138672 129.33900451660156,213.35800170898438 124.29000091552734,228.26499938964844"></path></g></g><g style="display: block;" transform="matrix(1,0,0,1,264,256)" opacity="1"><g opacity="1" transform="matrix(1,0,0,1,0,0)"><path fill="rgb(213,214,218)" fill-opacity="1" d=" M-39.659000396728516,128.072998046875 C-43.79999923706055,154.55999755859375 -21.926000595092773,212.75 4.0370001792907715,215 C30,217.25 50.2400016784668,152.44900512695312 45.22100067138672,127.51399993896484 C45.22100067138672,127.51399993896484 -39.659000396728516,128.072998046875 -39.659000396728516,128.072998046875z"></path></g><g opacity="1" transform="matrix(1,0,0,1,0,0)"><g opacity="1" transform="matrix(1,0,0,1,0,0)"><g opacity="0.3" transform="matrix(1,0,0,1,0,0)"><path fill="rgb(144,155,157)" fill-opacity="1" d=" M3.944999933242798,160.89100646972656 C3.944999933242798,160.89100646972656 -3.7899999618530273,177.8820037841797 -3.7899999618530273,177.8820037841797 C-4.4629998207092285,179.36000061035156 -6.142000198364258,179.9600067138672 -7.683000087738037,179.44900512695312 C-36.16699981689453,170 -33.06700134277344,135.4530029296875 -33.06700134277344,135.4530029296875 C-9.126999855041504,131.72000122070312 15.293000221252441,131.75399780273438 40.18000030517578,135.4530029296875 C40.18000030517578,135.4530029296875 50.2400016784668,167.5540008544922 17.267000198364258,179.06300354003906 C15.6850004196167,179.61500549316406 13.946000099182129,179.30499267578125 13.145999908447266,177.83299255371094 C13.145999908447266,177.83299255371094 3.944999933242798,160.89100646972656 3.944999933242798,160.89100646972656z"></path></g><g opacity="1" transform="matrix(1,0,0,1,0,0)"><path fill="rgb(231,230,231)" fill-opacity="1" d=" M3.944999933242798,139.99600219726562 C3.944999933242798,139.99600219726562 -8.958000183105469,167.5540008544922 -8.958000183105469,167.5540008544922 C-8.958000183105469,167.5540008544922 -26.586000442504883,160.24600219726562 -37.18199920654297,141.8159942626953 C-37.18199920654297,141.8159942626953 -33.06700134277344,117.55899810791016 -33.06700134277344,117.55899810791016 C-33.06700134277344,117.55899810791016 40.18000030517578,117.55899810791016 40.18000030517578,117.55899810791016 C40.18000030517578,117.55899810791016 43.255001068115234,141.718994140625 43.255001068115234,141.718994140625 C43.255001068115234,141.718994140625 35.79600143432617,158.17300415039062 16.56800079345703,167.5540008544922 C16.56800079345703,167.5540008544922 3.944999933242798,139.99600219726562 3.944999933242798,139.99600219726562z"></path><path stroke-linecap="round" stroke-linejoin="round" fill-opacity="0" stroke="rgb(151,163,164)" stroke-opacity="1" stroke-width="8" d=" M3.944999933242798,139.99600219726562 C3.944999933242798,139.99600219726562 -8.958000183105469,167.5540008544922 -8.958000183105469,167.5540008544922 C-8.958000183105469,167.5540008544922 -26.586000442504883,160.24600219726562 -37.18199920654297,141.8159942626953 C-37.18199920654297,141.8159942626953 -33.06700134277344,117.55899810791016 -33.06700134277344,117.55899810791016 C-33.06700134277344,117.55899810791016 40.18000030517578,117.55899810791016 40.18000030517578,117.55899810791016 C40.18000030517578,117.55899810791016 43.255001068115234,141.718994140625 43.255001068115234,141.718994140625 C43.255001068115234,141.718994140625 35.79600143432617,158.17300415039062 16.56800079345703,167.5540008544922 C16.56800079345703,167.5540008544922 3.944999933242798,139.99600219726562 3.944999933242798,139.99600219726562z"></path></g></g><g opacity="0.3" transform="matrix(1,0,0,1,0,0)"><path fill="rgb(144,155,157)" fill-opacity="1" d=" M40.95000076293945,117.56300354003906 C40.95000076293945,117.56300354003906 3.940000057220459,117.56300354003906 3.940000057220459,117.56300354003906 C3.940000057220459,117.56300354003906 -33.06999969482422,117.56300354003906 -33.06999969482422,117.56300354003906 C-33.06999969482422,117.56300354003906 -37.18000030517578,141.81300354003906 -37.18000030517578,141.81300354003906 C-32.720001220703125,149.56300354003906 -25.030000686645508,152.34300231933594 -19.920000076293945,156.43299865722656 C-20.190000534057617,155.7830047607422 -27.3700008392334,145.88299560546875 -21.799999237060547,139.5030059814453 C-16.110000610351562,132.98300170898438 -10.859999656677246,137.9929962158203 3.940000057220459,137.9929962158203 C18.739999771118164,137.9929962158203 23.989999771118164,132.98300170898438 29.68000030517578,139.5030059814453 C35.25,145.88299560546875 28.06999969482422,155.7830047607422 27.799999237060547,156.43299865722656 C32.90999984741211,152.34300231933594 40.599998474121094,149.56300354003906 45.060001373291016,141.81300354003906 C45.060001373291016,141.81300354003906 40.95000076293945,117.56300354003906 40.95000076293945,117.56300354003906z"></path></g></g><g opacity="1" transform="matrix(1,0,0,1,0,0)"><g opacity="1" transform="matrix(1,0,0,1,0,0)"><path fill="rgb(157,157,157)" fill-opacity="1" d=" M50.2400016784668,128.07000732421875 C50.2400016784668,128.07000732421875 50.2400016784668,231.25999450683594 50.2400016784668,231.25999450683594 C50.2400016784668,231.25999450683594 -43.79999923706055,231.25999450683594 -43.79999923706055,231.25999450683594 C-43.79999923706055,231.25999450683594 -43.79999923706055,128.07000732421875 -43.79999923706055,128.07000732421875 C-42.22999954223633,127.80000305175781 -40.650001525878906,127.54000091552734 -39.04999923706055,127.30000305175781 C-32.779998779296875,146 4.539999961853027,205.6699981689453 4.539999961853027,205.6699981689453 C4.539999961853027,205.6699981689453 38.4900016784668,146.97000122070312 44.599998474121094,127.44000244140625 C44.599998474121094,127.44000244140625 50.2400016784668,128.07000732421875 50.2400016784668,128.07000732421875z"></path></g><g opacity="1" transform="matrix(1,0,0,1,0,0)"><path stroke-linecap="round" stroke-linejoin="round" fill-opacity="0" stroke="rgb(0,0,0)" stroke-opacity="1" stroke-width="8" d=" M50.2400016784668,226.98300170898438 C50.2400016784668,226.98300170898438 50.2400016784668,125.24400329589844 50.2400016784668,125.24400329589844"></path></g><g opacity="1" transform="matrix(1,0,0,1,0,0)"><path stroke-linecap="round" stroke-linejoin="round" fill-opacity="0" stroke="rgb(0,0,0)" stroke-opacity="1" stroke-width="8" d=" M-43.79999923706055,226.98300170898438 C-43.79999923706055,226.98300170898438 -43.79999923706055,125.24400329589844 -43.79999923706055,125.24400329589844"></path></g><g opacity="1" transform="matrix(1,0,0,1,0,0)"><path stroke-linecap="round" stroke-linejoin="round" fill-opacity="0" stroke="rgb(99,111,114)" stroke-opacity="1" stroke-width="8" d=" M45.22100067138672,125.24400329589844 C41.34199905395508,142.052001953125 4.540999889373779,205.66799926757812 4.540999889373779,205.66799926757812 C4.540999889373779,205.66799926757812 -35.85599899291992,141.08099365234375 -39.659000396728516,125.24400329589844"></path></g></g></g><g style="display: block;" transform="matrix(1,0,0,1,264,256)" opacity="1"><g opacity="1" transform="matrix(1,0,0,1,0,0)"><path fill="rgb(208,0,0)" fill-opacity="1" d=" M197.67100524902344,-135.4409942626953 C159.37899780273438,-104.33300018310547 85.81700134277344,-80.18900299072266 1.7990000247955322,-77.28900146484375 C-78.24099731445312,-74.5270004272461 -153,-108 -190.5,-135.4409942626953 C-190.5,-135.4409942626953 -194.86199951171875,-73.177001953125 -185,-29.780000686645508 C-177.82699584960938,1.7879999876022339 -156.28399658203125,77.91699981689453 -47.02899932861328,154.55999755859375 C-47.02899932861328,154.55999755859375 -41.15999984741211,92.18900299072266 -15.701000213623047,53.4640007019043 C-5.492000102996826,37.935001373291016 11.557000160217285,37.935001373291016 21.766000747680664,53.4640007019043 C47.224998474121094,92.18900299072266 53.09400177001953,154.55999755859375 53.09400177001953,154.55999755859375 C162.3489990234375,77.91699981689453 181.32699584960938,-2.308000087738037 188.5,-33.875999450683594 C198.36199951171875,-77.27300262451172 197.67100524902344,-135.4409942626953 197.67100524902344,-135.4409942626953z"></path><path stroke-linecap="round" stroke-linejoin="round" fill-opacity="0" stroke="rgb(87,0,0)" stroke-opacity="1" stroke-width="8" d=" M197.67100524902344,-135.4409942626953 C159.37899780273438,-104.33300018310547 85.81700134277344,-80.18900299072266 1.7990000247955322,-77.28900146484375 C-78.24099731445312,-74.5270004272461 -153,-108 -190.5,-135.4409942626953 C-190.5,-135.4409942626953 -194.86199951171875,-73.177001953125 -185,-29.780000686645508 C-177.82699584960938,1.7879999876022339 -156.28399658203125,77.91699981689453 -47.02899932861328,154.55999755859375 C-47.02899932861328,154.55999755859375 -41.15999984741211,92.18900299072266 -15.701000213623047,53.4640007019043 C-5.492000102996826,37.935001373291016 11.557000160217285,37.935001373291016 21.766000747680664,53.4640007019043 C47.224998474121094,92.18900299072266 53.09400177001953,154.55999755859375 53.09400177001953,154.55999755859375 C162.3489990234375,77.91699981689453 181.32699584960938,-2.308000087738037 188.5,-33.875999450683594 C198.36199951171875,-77.27300262451172 197.67100524902344,-135.4409942626953 197.67100524902344,-135.4409942626953z"></path></g><g opacity="0.4" transform="matrix(1,0,0,1,0,0)"><path fill="rgb(99,0,0)" fill-opacity="1" d=" M-28.950000762939453,79.37000274658203 C-28.950000762939453,79.37999725341797 -28.950000762939453,79.37999725341797 -28.950000762939453,79.37999725341797 C-43.310001373291016,115.04000091552734 -48.5620002746582,143.625 -48.6619987487793,143.55499267578125 C-46.0099983215332,128.36500549316406 -60.68600082397461,126.86499786376953 -78.20999908447266,108.33999633789062 C-121.86599731445312,62.189998626708984 -96.82599639892578,13.317000389099121 -96.82599639892578,13.317000389099121 C-54.16600036621094,-1.0529999732971191 -40.36000061035156,40.9900016784668 -28.950000762939453,79.37000274658203z"></path></g><g opacity="0.4" transform="matrix(1,0,0,1,0,0)"><path fill="rgb(99,0,0)" fill-opacity="1" d=" M-98.87999725341797,-56.111000061035156 C-166.7100067138672,-88.41799926757812 -176.2949981689453,-43.67900085449219 -180.375,-34.202999114990234 C-186.98500061035156,-76.3270034790039 -197.69000244140625,-126.17400360107422 -197.69000244140625,-126.17400360107422 C-169.7100067138672,-103.44999694824219 -123.4000015258789,-79.74199676513672 -65.94000244140625,-69.06700134277344 C-63.43000030517578,-49.8129997253418 -70.33000183105469,-42.50199890136719 -98.87999725341797,-56.111000061035156z"></path></g><g opacity="0.4" transform="matrix(1,0,0,1,0,0)"><path fill="rgb(99,0,0)" fill-opacity="1" d=" M34.8390007019043,79.37000274658203 C34.8390007019043,79.37999725341797 34.8390007019043,79.37999725341797 34.8390007019043,79.37999725341797 C49.19900131225586,115.04000091552734 54.45199966430664,144.625 54.551998138427734,144.55499267578125 C51.900001525878906,129.36500549316406 66.57499694824219,126.86499786376953 84.0989990234375,108.33999633789062 C127.75499725341797,62.189998626708984 102.71499633789062,13.317000389099121 102.71499633789062,13.317000389099121 C60.05500030517578,-1.0529999732971191 46.249000549316406,40.9900016784668 34.8390007019043,79.37000274658203z"></path></g><g opacity="0.4" transform="matrix(1,0,0,1,0,0)"><path fill="rgb(99,0,0)" fill-opacity="1" d=" M104.94499969482422,-56.111000061035156 C172.77499389648438,-88.41799926757812 182.36000061035156,-43.67900085449219 186.44000244140625,-34.202999114990234 C193.0500030517578,-76.3270034790039 203.7550048828125,-126.17400360107422 203.7550048828125,-126.17400360107422 C175.77499389648438,-103.44999694824219 129.46499633789062,-79.74199676513672 72.00499725341797,-69.06700134277344 C69.49500274658203,-49.8129997253418 76.3949966430664,-42.50199890136719 104.94499969482422,-56.111000061035156z"></path></g><g opacity="1" transform="matrix(1,0,0,1,0,0)"><path fill="rgb(45,45,45)" fill-opacity="1" d=" M-47.02899932861328,154.55999755859375 C-157.20899963378906,81.01200103759766 -185.09800720214844,-0.5450000166893005 -192.21299743652344,-31.805999755859375 C-202.07699584960938,-75.20800018310547 -197.68699645996094,-140.17799377441406 -197.68699645996094,-140.17799377441406 C-190.12600708007812,-152.5399932861328 -174.92100524902344,-160.50799560546875 -174.92100524902344,-160.50799560546875 C-174.92100524902344,-160.50799560546875 -180,-58.48500061035156 -165.5959930419922,-10.25 C-135.21499633789062,91.48600006103516 -62.97800064086914,143.57000732421875 -47.02899932861328,154.55999755859375z"></path><path stroke-linecap="round" stroke-linejoin="round" fill-opacity="0" stroke="rgb(0,0,0)" stroke-opacity="1" stroke-width="8" d=" M-47.02899932861328,154.55999755859375 C-157.20899963378906,81.01200103759766 -185.09800720214844,-0.5450000166893005 -192.21299743652344,-31.805999755859375 C-202.07699584960938,-75.20800018310547 -197.68699645996094,-140.17799377441406 -197.68699645996094,-140.17799377441406 C-190.12600708007812,-152.5399932861328 -174.92100524902344,-160.50799560546875 -174.92100524902344,-160.50799560546875 C-174.92100524902344,-160.50799560546875 -180,-58.48500061035156 -165.5959930419922,-10.25 C-135.21499633789062,91.48600006103516 -62.97800064086914,143.57000732421875 -47.02899932861328,154.55999755859375z"></path></g><g opacity="1" transform="matrix(1,0,0,1,0,0)"><path fill="rgb(45,45,45)" fill-opacity="1" d=" M53.09400177001953,154.55999755859375 C163.2740020751953,81.01200103759766 191.16299438476562,-0.5450000166893005 198.2779998779297,-31.805999755859375 C208.14199829101562,-75.20800018310547 203.7519989013672,-140.17799377441406 203.7519989013672,-140.17799377441406 C196.1909942626953,-152.5399932861328 180.98599243164062,-160.50799560546875 180.98599243164062,-160.50799560546875 C180.98599243164062,-160.50799560546875 185.5,-48.20000076293945 171.66099548339844,-10.25 C135.28700256347656,89.5 69.04299926757812,143.57000732421875 53.09400177001953,154.55999755859375z"></path><path stroke-linecap="round" stroke-linejoin="round" fill-opacity="0" stroke="rgb(0,0,0)" stroke-opacity="1" stroke-width="8" d=" M53.09400177001953,154.55999755859375 C163.2740020751953,81.01200103759766 191.16299438476562,-0.5450000166893005 198.2779998779297,-31.805999755859375 C208.14199829101562,-75.20800018310547 203.7519989013672,-140.17799377441406 203.7519989013672,-140.17799377441406 C196.1909942626953,-152.5399932861328 180.98599243164062,-160.50799560546875 180.98599243164062,-160.50799560546875 C180.98599243164062,-160.50799560546875 185.5,-48.20000076293945 171.66099548339844,-10.25 C135.28700256347656,89.5 69.04299926757812,143.57000732421875 53.09400177001953,154.55999755859375z"></path></g></g><g style="display: block;" transform="matrix(1,0,0,1,263.4800109863281,256.0329895019531)" opacity="1"><g opacity="1" transform="matrix(1,0,0,1,0,0)"><path fill="rgb(0,0,0)" fill-opacity="1" d=" M-102.88400268554688,39.08599853515625 C-102.88400268554688,39.08599853515625 -103.11299896240234,60.018001556396484 -107.75199890136719,73.53800201416016 C-107.75199890136719,73.53800201416016 -98.87899780273438,69.37799835205078 -98.87899780273438,69.37799835205078 C-98.87899780273438,69.37799835205078 -96.87899780273438,82.74700164794922 -96.87899780273438,82.74700164794922 C-96.87899780273438,82.74700164794922 -87.72100067138672,77.59700012207031 -87.72100067138672,77.59700012207031 C-87.72100067138672,77.59700012207031 -83.51399993896484,86.65599822998047 -83.51399993896484,86.65599822998047 C-83.51399993896484,86.65599822998047 -64.98999786376953,53.72999954223633 -102.88400268554688,39.08599853515625z"></path><path stroke-linecap="round" stroke-linejoin="round" fill-opacity="0" stroke="rgb(0,0,0)" stroke-opacity="1" stroke-width="8" d=" M-102.88400268554688,39.08599853515625 C-102.88400268554688,39.08599853515625 -103.11299896240234,60.018001556396484 -107.75199890136719,73.53800201416016 C-107.75199890136719,73.53800201416016 -98.87899780273438,69.37799835205078 -98.87899780273438,69.37799835205078 C-98.87899780273438,69.37799835205078 -96.87899780273438,82.74700164794922 -96.87899780273438,82.74700164794922 C-96.87899780273438,82.74700164794922 -87.72100067138672,77.59700012207031 -87.72100067138672,77.59700012207031 C-87.72100067138672,77.59700012207031 -83.51399993896484,86.65599822998047 -83.51399993896484,86.65599822998047 C-83.51399993896484,86.65599822998047 -64.98999786376953,53.72999954223633 -102.88400268554688,39.08599853515625z"></path></g><g opacity="1" transform="matrix(1,0,0,1,0,0)"><path fill="rgb(0,0,0)" fill-opacity="1" d=" M108.84600067138672,39.08599853515625 C108.84600067138672,39.08599853515625 109.07499694824219,60.018001556396484 113.71399688720703,73.53800201416016 C113.71399688720703,73.53800201416016 104.84100341796875,69.37799835205078 104.84100341796875,69.37799835205078 C104.84100341796875,69.37799835205078 102.84100341796875,82.74700164794922 102.84100341796875,82.74700164794922 C102.84100341796875,82.74700164794922 93.68199920654297,77.59700012207031 93.68199920654297,77.59700012207031 C93.68199920654297,77.59700012207031 89.4749984741211,86.65599822998047 89.4749984741211,86.65599822998047 C89.4749984741211,86.65599822998047 70.9520034790039,53.72999954223633 108.84600067138672,39.08599853515625z"></path><path stroke-linecap="round" stroke-linejoin="round" fill-opacity="0" stroke="rgb(0,0,0)" stroke-opacity="1" stroke-width="8" d=" M108.84600067138672,39.08599853515625 C108.84600067138672,39.08599853515625 109.07499694824219,60.018001556396484 113.71399688720703,73.53800201416016 C113.71399688720703,73.53800201416016 104.84100341796875,69.37799835205078 104.84100341796875,69.37799835205078 C104.84100341796875,69.37799835205078 102.84100341796875,82.74700164794922 102.84100341796875,82.74700164794922 C102.84100341796875,82.74700164794922 93.68199920654297,77.59700012207031 93.68199920654297,77.59700012207031 C93.68199920654297,77.59700012207031 89.4749984741211,86.65599822998047 89.4749984741211,86.65599822998047 C89.4749984741211,86.65599822998047 70.9520034790039,53.72999954223633 108.84600067138672,39.08599853515625z"></path></g></g><g style="display: block;" transform="matrix(1,0,0,1,263.5,283.958984375)" opacity="1"><g opacity="1" transform="matrix(1,0,0,1,0,0)"><g opacity="1" transform="matrix(1,0,0,1,0,0)"><path fill="rgb(255,205,0)" fill-opacity="1" d=" M-103.29900360107422,-27.18600082397461 C-120.91500091552734,-56.99800109863281 -151.31100463867188,-55.81800079345703 -151.31100463867188,-55.81800079345703 C-151.31100463867188,-38.4900016784668 -127.51699829101562,21.959999084472656 -99.87899780273438,12.27299976348877"></path></g><g opacity="1" transform="matrix(1,0,0,1,0,0)"><path fill="rgb(255,170,0)" fill-opacity="1" d=" M-99.87999725341797,12.269000053405762 C-106.05000305175781,14.428999900817871 -114.0199966430664,11.098999977111816 -119.58999633789062,7.5289998054504395 C-103.83599853515625,-51.32400131225586 -151.30999755859375,-52.82099914550781 -151.30999755859375,-52.82099914550781 C-151.30999755859375,-52.82099914550781 -120.91000366210938,-57.000999450683594 -103.30000305175781,-27.19099998474121 C-96.34300231933594,-14.572999954223633 -95.28500366210938,-1.4119999408721924 -99.87999725341797,12.269000053405762z"></path></g><g opacity="1" transform="matrix(1,0,0,1,0,0)"><path stroke-linecap="round" stroke-linejoin="round" fill-opacity="0" stroke="rgb(220,109,0)" stroke-opacity="1" stroke-width="8" d=" M-103.29900360107422,-27.18600082397461 C-120.91500091552734,-56.99800109863281 -151.31100463867188,-55.81800079345703 -151.31100463867188,-55.81800079345703 C-151.31100463867188,-38.4900016784668 -127.51699829101562,21.959999084472656 -99.87899780273438,12.27299976348877"></path></g></g></g><g style="display: block;" transform="matrix(1,0,0,1,262.7489929199219,284.29498291015625)" opacity="1"><g opacity="1" transform="matrix(1,0,0,1,0,0)"><g opacity="1" transform="matrix(1,0,0,1,0,0)"><path fill="rgb(255,205,0)" fill-opacity="1" d=" M111.46900177001953,-27.18600082397461 C129.0850067138672,-56.99800109863281 159.4810028076172,-55.81800079345703 159.4810028076172,-55.81800079345703 C159.4810028076172,-38.4900016784668 135.68800354003906,21.959999084472656 108.05000305175781,12.27299976348877"></path></g><g opacity="1" transform="matrix(1,0,0,1,0,0)"><path fill="rgb(255,170,0)" fill-opacity="1" d=" M106.87699890136719,12.692999839782715 C113.0469970703125,14.852999687194824 121.01699829101562,12.52299976348877 126.58699798583984,8.95300006866455 C110.83300018310547,-49.900001525878906 158.3070068359375,-52.39699935913086 158.3070068359375,-52.39699935913086 C158.3070068359375,-52.39699935913086 127.90699768066406,-56.57699966430664 110.2969970703125,-26.767000198364258 C100.26399993896484,-14.428000450134277 102.0009994506836,-1.0110000371932983 106.87699890136719,12.692999839782715z"></path></g><g opacity="1" transform="matrix(1,0,0,1,0,0)"><path stroke-linecap="round" stroke-linejoin="round" fill-opacity="0" stroke="rgb(220,109,0)" stroke-opacity="1" stroke-width="8" d=" M111.46900177001953,-27.18600082397461 C129.0850067138672,-56.99800109863281 159.4810028076172,-55.81800079345703 159.4810028076172,-55.81800079345703 C159.4810028076172,-38.4900016784668 135.68800354003906,21.959999084472656 108.05000305175781,12.27299976348877"></path></g></g></g><g style="display: block;" transform="matrix(1,0,0,1,263.4800109863281,256.0329895019531)" opacity="1"><g opacity="1" transform="matrix(1,0,0,1,0,0)"><path fill="rgb(255,185,0)" fill-opacity="1" d=" M91.1969985961914,-98.77300262451172 C70.73699951171875,-127.95899963378906 -64.14700317382812,-127.95899963378906 -84.60700225830078,-98.77300262451172 C-105.06700134277344,-69.58799743652344 -122.11699676513672,-1.5299999713897705 -95.40499877929688,55.67399978637695 C-68.69400024414062,112.87799835205078 -23.56599998474121,130.9720001220703 3.2950000762939453,130.9720001220703 C30.1560001373291,130.9720001220703 75.28299713134766,112.87799835205078 101.99500274658203,55.67399978637695 C128.70599365234375,-1.5299999713897705 111.65699768066406,-69.58799743652344 91.1969985961914,-98.77300262451172z"></path></g><g opacity="1" transform="matrix(1,0,0,1,0,0)"><path fill="rgb(255,205,0)" fill-opacity="1" d=" M88.06700134277344,-101.83999633789062 C68.33499908447266,-129.093994140625 -61.74599838256836,-129.093994140625 -81.47699737548828,-101.83999633789062 C-101.20899963378906,-74.58599853515625 -117.6520004272461,-11.031000137329102 -91.89099884033203,42.38800048828125 C-66.13099670410156,95.80599975585938 -22.610000610351562,112.7030029296875 3.2950000762939453,112.7030029296875 C29.200000762939453,112.7030029296875 72.72000122070312,95.80599975585938 98.48100280761719,42.38800048828125 C124.24099731445312,-11.031000137329102 107.7979965209961,-74.58599853515625 88.06700134277344,-101.83999633789062z"></path></g><g opacity="1" transform="matrix(1,0,0,1,0,0)"><path stroke-linecap="round" stroke-linejoin="round" fill-opacity="0" stroke="rgb(220,109,0)" stroke-opacity="1" stroke-width="8" d=" M91.1969985961914,-98.77300262451172 C70.73699951171875,-127.95899963378906 -64.14700317382812,-127.95899963378906 -84.60700225830078,-98.77300262451172 C-105.06700134277344,-69.58799743652344 -122.11699676513672,-1.5299999713897705 -95.40499877929688,55.67399978637695 C-68.69400024414062,112.87799835205078 -23.56599998474121,129.9720001220703 3.2950000762939453,129.9720001220703 C30.1560001373291,129.9720001220703 75.28299713134766,112.87799835205078 101.99500274658203,55.67399978637695 C128.70599365234375,-1.5299999713897705 111.65699768066406,-69.58799743652344 91.1969985961914,-98.77300262451172z"></path></g></g><g style="display: block;" transform="matrix(1,0,0,1,263.3240051269531,256.0329895019531)" opacity="1"><g opacity="1" transform="matrix(1,0,0,1,0,0)"><path fill="rgb(255,170,0)" fill-opacity="1" d=" M21.802000045776367,43.17100143432617 C21.802000045776367,50.61399841308594 13.522000312805176,56.64699935913086 3.309000015258789,56.64699935913086 C-6.9039998054504395,56.64699935913086 -15.182999610900879,50.61399841308594 -15.182999610900879,43.17100143432617 C-15.182999610900879,35.72800064086914 -6.9039998054504395,30.011999130249023 3.309000015258789,30.011999130249023 C13.522000312805176,30.011999130249023 21.802000045776367,35.72800064086914 21.802000045776367,43.17100143432617z"></path></g><g opacity="1" transform="matrix(1,0,0,1,0,0)"><path fill="rgb(255,205,0)" fill-opacity="1" d=" M19.30699920654297,38.91699981689453 C19.30699920654297,44.45800018310547 12.144000053405762,48.94900131225586 3.309000015258789,48.94900131225586 C-5.526000022888184,48.94900131225586 -12.687999725341797,44.45800018310547 -12.687999725341797,38.91699981689453 C-12.687999725341797,33.375999450683594 -5.526000022888184,29.79400062561035 3.309000015258789,29.79400062561035 C12.144000053405762,29.79400062561035 19.30699920654297,33.375999450683594 19.30699920654297,38.91699981689453z"></path></g><g opacity="1" transform="matrix(1,0,0,1,0,0)"><path fill="rgb(255,224,112)" fill-opacity="1" d=" M11.550999641418457,34.21099853515625 C11.550999641418457,36.722999572753906 7.861000061035156,39.08599853515625 3.309000015258789,39.08599853515625 C-1.2430000305175781,39.08599853515625 -4.933000087738037,36.722999572753906 -4.933000087738037,34.21099853515625 C-4.933000087738037,31.698999404907227 -1.2430000305175781,30.437999725341797 3.309000015258789,30.437999725341797 C7.861000061035156,30.437999725341797 11.550999641418457,31.698999404907227 11.550999641418457,34.21099853515625z"></path></g></g><g style="display: block;" transform="matrix(1,0,0,1,263.666015625,256.5679931640625)" opacity="1"><g opacity="1" transform="matrix(1,0,0,1,0,0)"><path fill="rgb(255,245,201)" fill-opacity="1" d=" M-20.55500030517578,5.343999862670898 C-24.83300018310547,-36 -71.51200103759766,-43.051998138427734 -84.9739990234375,-3.9030001163482666 C-84.9739990234375,-3.9030001163482666 -81.125,12.425999641418457 -59.6870002746582,17.21299934387207 C-35.61000061035156,22.589000701904297 -20.55500030517578,5.343999862670898 -20.55500030517578,5.343999862670898z"></path></g><g opacity="1" transform="matrix(1,0,0,1,-1.0329999923706055,0.17599999904632568)"><g opacity="1" transform="matrix(1,0,0,1,0,0)"><path fill="url(#__lottie_element_3407)" fill-opacity="1" d=" M-32.35100173950195,-6.117000102996826 C-32.35100173950195,4.659999847412109 -40.595001220703125,13.395999908447266 -50.763999938964844,13.395999908447266 C-60.93299865722656,13.395999908447266 -69.1780014038086,4.659999847412109 -69.1780014038086,-6.117000102996826 C-69.1780014038086,-16.893999099731445 -60.93299865722656,-25.628999710083008 -50.763999938964844,-25.628999710083008 C-40.595001220703125,-25.628999710083008 -32.35100173950195,-16.893999099731445 -32.35100173950195,-6.117000102996826z"></path></g><g opacity="1" transform="matrix(1,0,0,1,0,0)"><path fill="rgb(24,19,9)" fill-opacity="1" d=" M-39.12699890136719,-6.117000102996826 C-39.12699890136719,0.6940000057220459 -44.33700180053711,6.216000080108643 -50.763999938964844,6.216000080108643 C-57.191001892089844,6.216000080108643 -62.402000427246094,0.6940000057220459 -62.402000427246094,-6.117000102996826 C-62.402000427246094,-12.928000450134277 -57.191001892089844,-18.448999404907227 -50.763999938964844,-18.448999404907227 C-44.33700180053711,-18.448999404907227 -39.12699890136719,-12.928000450134277 -39.12699890136719,-6.117000102996826z"></path></g><g opacity="1" transform="matrix(1,0,0,1,0,0)"><path fill="rgb(243,243,243)" fill-opacity="1" d=" M-51.79600143432617,-16.75 C-51.79600143432617,-14.163999557495117 -53.77399826049805,-12.067000389099121 -56.21500015258789,-12.067000389099121 C-58.65599822998047,-12.067000389099121 -60.63399887084961,-14.163999557495117 -60.63399887084961,-16.75 C-60.63399887084961,-19.336000442504883 -58.65599822998047,-21.433000564575195 -56.21500015258789,-21.433000564575195 C-53.77399826049805,-21.433000564575195 -51.79600143432617,-19.336000442504883 -51.79600143432617,-16.75z"></path></g><g opacity="1" transform="matrix(1,0,0,1,0,0)"><path stroke-linecap="round" stroke-linejoin="round" fill-opacity="0" stroke="rgb(255,0,0)" stroke-opacity="1" stroke-width="3.5" d=" M-37.138999938964844,-0.6050000190734863 C-38.50699996948242,3.7170000076293945 -41.78099822998047,7.111999988555908 -45.90299987792969,8.460000038146973"></path></g></g><g opacity="1" transform="matrix(1,0,0,1,0,0)"><path fill="rgb(255,205,0)" fill-opacity="1" d=" M-20.7549991607666,4.249000072479248 C-20.7549991607666,4.249000072479248 -21.84000015258789,-28.027999877929688 -50.763999938964844,-28.733999252319336 C-78.75,-29.41699981689453 -85.1729965209961,-4.309000015258789 -85.1729965209961,-4.309000015258789 C-85.1729965209961,-4.309000015258789 -81.48999786376953,-36.7869987487793 -51.111000061035156,-36.78099822998047 C-12.986000061035156,-36.77399826049805 -20.7549991607666,4.249000072479248 -20.7549991607666,4.249000072479248z"></path></g><g opacity="1" transform="matrix(1,0,0,1,0,0)"><path fill="rgb(255,205,0)" fill-opacity="1" d=" M-85.68800354003906,-4.375 C-85.68800354003906,-4.375 -79.20800018310547,18.250999450683594 -50.763999938964844,18.45800018310547 C-28.952999114990234,18.615999221801758 -19.54199981689453,4.083000183105469 -19.54199981689453,4.083000183105469 C-19.54199981689453,4.083000183105469 -20.48900032043457,28.429000854492188 -50.763999938964844,25.91699981689453 C-87.2770004272461,22.886999130249023 -85.68800354003906,-4.375 -85.68800354003906,-4.375z"></path></g><g opacity="1" transform="matrix(1,0,0,1,0,0)"><path fill="rgb(142,58,0)" fill-opacity="1" d=" M-22.785999298095703,-5.86899995803833 C-22.785999298095703,-5.86899995803833 -31.399999618530273,-28.80299949645996 -52.44300079345703,-28.783000946044922 C-74.23400115966797,-28.761999130249023 -82.4489974975586,-9.23900032043457 -82.4489974975586,-9.23900032043457 C-82.4489974975586,-9.23900032043457 -73.01699829101562,-32.39500045776367 -50.59700012207031,-30.41699981689453 C-30.85099983215332,-28.674999237060547 -22.785999298095703,-5.86899995803833 -22.785999298095703,-5.86899995803833z"></path><path stroke-linecap="round" stroke-linejoin="round" fill-opacity="0" stroke="rgb(142,58,0)" stroke-opacity="1" stroke-width="2" d=" M-22.785999298095703,-5.86899995803833 C-22.785999298095703,-5.86899995803833 -31.399999618530273,-28.80299949645996 -52.44300079345703,-28.783000946044922 C-74.23400115966797,-28.761999130249023 -82.4489974975586,-9.23900032043457 -82.4489974975586,-9.23900032043457 C-82.4489974975586,-9.23900032043457 -73.01699829101562,-32.39500045776367 -50.59700012207031,-30.41699981689453 C-30.85099983215332,-28.674999237060547 -22.785999298095703,-5.86899995803833 -22.785999298095703,-5.86899995803833z"></path></g></g><g style="display: block;" transform="matrix(1,0,0,1,263.2980041503906,255.8719940185547)" opacity="1"><g opacity="1" transform="matrix(1,0,0,1,0,0)"><path fill="rgb(255,245,201)" fill-opacity="1" d=" M28.389999389648438,5.343999862670898 C32.875,-34.202999114990234 77.15899658203125,-43.22700119018555 92.80799865722656,-3.9030001163482666 C92.80799865722656,-3.9030001163482666 88.95999908447266,12.425999641418457 67.52200317382812,17.21299934387207 C43.44499969482422,22.589000701904297 28.389999389648438,5.343999862670898 28.389999389648438,5.343999862670898z"></path></g><g opacity="1" transform="matrix(1,0,0,1,0,0)"><g opacity="1" transform="matrix(1,0,0,1,0,0)"><path fill="url(#__lottie_element_3403)" fill-opacity="1" d=" M77.15899658203125,-6.117000102996826 C77.15899658203125,4.659999847412109 68.91500091552734,13.395999908447266 58.74599838256836,13.395999908447266 C48.57699966430664,13.395999908447266 40.33300018310547,4.659999847412109 40.33300018310547,-6.117000102996826 C40.33300018310547,-16.893999099731445 48.57699966430664,-25.628999710083008 58.74599838256836,-25.628999710083008 C68.91500091552734,-25.628999710083008 77.15899658203125,-16.893999099731445 77.15899658203125,-6.117000102996826z"></path></g><g opacity="1" transform="matrix(1,0,0,1,0,0)"><path fill="rgb(24,19,9)" fill-opacity="1" d=" M70.38300323486328,-6.117000102996826 C70.38300323486328,0.6940000057220459 65.1729965209961,6.216000080108643 58.74599838256836,6.216000080108643 C52.319000244140625,6.216000080108643 47.10900115966797,0.6940000057220459 47.10900115966797,-6.117000102996826 C47.10900115966797,-12.928000450134277 52.319000244140625,-18.448999404907227 58.74599838256836,-18.448999404907227 C65.1729965209961,-18.448999404907227 70.38300323486328,-12.928000450134277 70.38300323486328,-6.117000102996826z"></path></g><g opacity="1" transform="matrix(1,0,0,1,0,0)"><path fill="rgb(243,243,243)" fill-opacity="1" d=" M57.71500015258789,-16.75 C57.71500015258789,-14.163999557495117 55.73699951171875,-12.067000389099121 53.29600143432617,-12.067000389099121 C50.85499954223633,-12.067000389099121 48.87699890136719,-14.163999557495117 48.87699890136719,-16.75 C48.87699890136719,-19.336000442504883 50.85499954223633,-21.433000564575195 53.29600143432617,-21.433000564575195 C55.73699951171875,-21.433000564575195 57.71500015258789,-19.336000442504883 57.71500015258789,-16.75z"></path></g><g opacity="1" transform="matrix(1,0,0,1,0,0)"><path stroke-linecap="round" stroke-linejoin="round" fill-opacity="0" stroke="rgb(255,0,0)" stroke-opacity="1" stroke-width="3.5" d=" M72.37200164794922,-0.6050000190734863 C71.00399780273438,3.7170000076293945 67.72899627685547,7.111999988555908 63.606998443603516,8.460000038146973"></path></g></g><g opacity="1" transform="matrix(1,0,0,1,0,0)"><path fill="rgb(255,205,0)" fill-opacity="1" d=" M93.5,-4.789000034332275 C93.5,-4.789000034332275 87.4749984741211,18.065000534057617 58.41699981689453,18.54199981689453 C38.125,18.875 27.474000930786133,3.25 27.474000930786133,3.25 C27.474000930786133,3.25 28.47100067138672,29.511999130249023 58.74599838256836,27 C95.25900268554688,23.969999313354492 93.5,-4.789000034332275 93.5,-4.789000034332275z"></path></g><g opacity="1" transform="matrix(1,0,0,1,0,0)"><path fill="rgb(255,205,0)" fill-opacity="1" d=" M28.389999389648438,4.65500020980835 C28.389999389648438,4.65500020980835 29.66699981689453,-26 58.41699981689453,-29.249000549316406 C87.40899658203125,-32.5260009765625 92.80799865722656,-3.9030001163482666 92.80799865722656,-3.9030001163482666 C92.80799865722656,-3.9030001163482666 89.125,-36.38100051879883 58.74599838256836,-36.375 C20.621000289916992,-36.36800003051758 28.389999389648438,4.65500020980835 28.389999389648438,4.65500020980835z"></path></g><g opacity="1" transform="matrix(1,0,0,1,0,0)"><path fill="rgb(142,58,0)" fill-opacity="1" d=" M30.6200008392334,-5.86899995803833 C30.6200008392334,-5.86899995803833 39.23500061035156,-28.80299949645996 60.27799987792969,-28.783000946044922 C82.06900024414062,-28.761999130249023 90.28299713134766,-9.23900032043457 90.28299713134766,-9.23900032043457 C90.28299713134766,-9.23900032043457 80.85199737548828,-32.39500045776367 58.43199920654297,-30.41699981689453 C38.68600082397461,-28.674999237060547 30.6200008392334,-5.86899995803833 30.6200008392334,-5.86899995803833z"></path><path stroke-linecap="round" stroke-linejoin="round" fill-opacity="0" stroke="rgb(142,58,0)" stroke-opacity="1" stroke-width="2" d=" M30.6200008392334,-5.86899995803833 C30.6200008392334,-5.86899995803833 39.23500061035156,-28.80299949645996 60.27799987792969,-28.783000946044922 C82.06900024414062,-28.761999130249023 90.28299713134766,-9.23900032043457 90.28299713134766,-9.23900032043457 C90.28299713134766,-9.23900032043457 80.85199737548828,-32.39500045776367 58.43199920654297,-30.41699981689453 C38.68600082397461,-28.674999237060547 30.6200008392334,-5.86899995803833 30.6200008392334,-5.86899995803833z"></path></g></g><g style="display: block;" transform="matrix(1,0,0,1,263.46600341796875,256)" opacity="1"><g opacity="1" transform="matrix(1,0,0,1,0,0)"><path fill="rgb(179,145,0)" fill-opacity="1" d=" M-39.10100173950195,152.4499969482422 C-39.10100173950195,156.8679962158203 -42.933998107910156,160.4499969482422 -47.6619987487793,160.4499969482422 C-52.38999938964844,160.4499969482422 -56.222999572753906,156.8679962158203 -56.222999572753906,152.4499969482422 C-56.222999572753906,148.03199768066406 -52.38999938964844,144.4499969482422 -47.6619987487793,144.4499969482422 C-42.933998107910156,144.4499969482422 -39.10100173950195,148.03199768066406 -39.10100173950195,152.4499969482422z"></path><path stroke-linecap="round" stroke-linejoin="round" fill-opacity="0" stroke="rgb(207,194,63)" stroke-opacity="1" stroke-width="5" d=" M-39.10100173950195,152.4499969482422 C-39.10100173950195,156.8679962158203 -42.933998107910156,160.4499969482422 -47.6619987487793,160.4499969482422 C-52.38999938964844,160.4499969482422 -56.222999572753906,156.8679962158203 -56.222999572753906,152.4499969482422 C-56.222999572753906,148.03199768066406 -52.38999938964844,144.4499969482422 -47.6619987487793,144.4499969482422 C-42.933998107910156,144.4499969482422 -39.10100173950195,148.03199768066406 -39.10100173950195,152.4499969482422z"></path></g><g opacity="1" transform="matrix(1,0,0,1,0,0)"><path fill="rgb(179,145,0)" fill-opacity="1" d=" M63.02199935913086,152.4499969482422 C63.02199935913086,156.8679962158203 59.18899917602539,160.4499969482422 54.46099853515625,160.4499969482422 C49.733001708984375,160.4499969482422 45.900001525878906,156.8679962158203 45.900001525878906,152.4499969482422 C45.900001525878906,148.03199768066406 49.733001708984375,144.4499969482422 54.46099853515625,144.4499969482422 C59.18899917602539,144.4499969482422 63.02199935913086,148.03199768066406 63.02199935913086,152.4499969482422z"></path><path stroke-linecap="round" stroke-linejoin="round" fill-opacity="0" stroke="rgb(207,194,63)" stroke-opacity="1" stroke-width="5" d=" M63.02199935913086,152.4499969482422 C63.02199935913086,156.8679962158203 59.18899917602539,160.4499969482422 54.46099853515625,160.4499969482422 C49.733001708984375,160.4499969482422 45.900001525878906,156.8679962158203 45.900001525878906,152.4499969482422 C45.900001525878906,148.03199768066406 49.733001708984375,144.4499969482422 54.46099853515625,144.4499969482422 C59.18899917602539,144.4499969482422 63.02199935913086,148.03199768066406 63.02199935913086,152.4499969482422z"></path></g></g><g style="display: block;" transform="matrix(1,0,0,1,263.3240051269531,256.0329895019531)" opacity="1"><g opacity="1" transform="matrix(1,0,0,1,0,0)"><path stroke-linecap="round" stroke-linejoin="round" fill-opacity="0" stroke="rgb(0,0,0)" stroke-opacity="1" stroke-width="6" d=" M-36.27199935913086,-49.21500015258789 C-36.27199935913086,-49.21500015258789 -58.5629997253418,-53.00299835205078 -74.15699768066406,-41.2400016784668"></path></g><g opacity="1" transform="matrix(1,0,0,1,0,0)"><path stroke-linecap="round" stroke-linejoin="round" fill-opacity="0" stroke="rgb(0,0,0)" stroke-opacity="1" stroke-width="6" d=" M42.20399856567383,-49.21500015258789 C42.20399856567383,-49.21500015258789 64.49400329589844,-53.00299835205078 80.08799743652344,-41.2400016784668"></path></g></g><g style="display: none;"><g><path stroke-linecap="round" stroke-linejoin="round" fill-opacity="0"></path></g><g><g><path stroke-linecap="round" stroke-linejoin="round" fill-opacity="0"></path></g><g><path stroke-linecap="round" stroke-linejoin="round" fill-opacity="0"></path></g></g></g><g style="display: block;" transform="matrix(0.8299999833106995,0,0,0.8299999833106995,264.6803283691406,284.6748046875)" opacity="1"><g opacity="0" transform="matrix(1,0,0,1,0,0)"><path fill="rgb(221,4,4)" fill-opacity="1" d=" M23.753999710083008,78.30500030517578 C23.738000869750977,85.32599639892578 26.115999221801758,69.45600128173828 31.797000885009766,74.5 C35.027000427246094,77.36799621582031 36.867000579833984,76.48200225830078 39.709999084472656,72.36900329589844 C42.5099983215332,68.31800079345703 45.23899841308594,68.55000305175781 45.54899978637695,64.23400115966797 C46.00299835205078,57.90999984741211 44.21799850463867,52.417999267578125 40.678001403808594,53.83399963378906 C39.143001556396484,54.448001861572266 23.76099967956543,75.27899932861328 23.753999710083008,78.30500030517578z"></path></g><g opacity="1" transform="matrix(1,0,0,1,0,0)"><path fill="rgb(255,170,0)" fill-opacity="1" d=" M2.7330000400543213,81.55400085449219 C-7.980999946594238,81.55400085449219 -15.515000343322754,76.8489990234375 -19.565000534057617,73.447998046875 C-19.565000534057617,73.447998046875 -19.34000015258789,85.08000183105469 -19.34000015258789,85.08000183105469 C-12.508999824523926,85.08000183105469 -7.504000186920166,90.3740005493164 3.2950000762939453,90.3740005493164 C13.545000076293945,90.3740005493164 19.44499969482422,85.08000183105469 25.93000030517578,85.08000183105469 C25.93000030517578,85.08000183105469 26.232999801635742,73.447998046875 26.232999801635742,73.447998046875 C22.174999237060547,76.8489990234375 14.447999954223633,81.55400085449219 2.7330000400543213,81.55400085449219z"></path></g><g opacity="1" transform="matrix(1,0,0,1,0,0)"><path fill="rgb(38,13,4)" fill-opacity="1" d=" M39.26300048828125,56.777000427246094 C38.935001373291016,55.5369987487793 27.493000030517578,54.231998443603516 15.369999885559082,53.409000396728516 C10.463000297546387,53.07600021362305 6.408999919891357,53.25299835205078 2.8499999046325684,55.643001556396484 C-5.186999797821045,51.74700164794922 -13.168999671936035,53.55400085449219 -20.94700050354004,54.60300064086914 C-28.235000610351562,55.58599853515625 -33.57099914550781,55.933998107910156 -33.63800048828125,57.60499954223633 C-33.7130012512207,59.4900016784668 -19.385000228881836,70.30400085449219 2.315999984741211,70.30400085449219 C24.017000198364258,70.30400085449219 39.744998931884766,58.60100173950195 39.26300048828125,56.777000427246094z"></path></g><g opacity="0" transform="matrix(1,0,0,1,-1.0970001220703125,-11.16400146484375)"><g opacity="1" transform="matrix(1,0,0,1,0,0)"><path fill="rgb(255,100,156)" fill-opacity="1" d=" M29.77400016784668,74.15599822998047 C27.92799949645996,77.40699768066406 18.667999267578125,80.2509994506836 3.256999969482422,80.23600006103516 C-0.7009999752044678,80.23200225830078 -11.206000328063965,79.32599639892578 -12.553999900817871,74.26899719238281 C-3.010999917984009,76.41300201416016 3.1540000438690186,76.56600189208984 3.1540000438690186,76.56600189208984 C15.045000076293945,76.2760009765625 22.784000396728516,72.6500015258789 29.77400016784668,74.15599822998047z"></path><path stroke-linecap="round" stroke-linejoin="round" fill-opacity="0" stroke="rgb(213,0,87)" stroke-opacity="1" stroke-width="6" d=" M29.77400016784668,74.15599822998047 C27.92799949645996,77.40699768066406 18.667999267578125,80.2509994506836 3.256999969482422,80.23600006103516 C-0.7009999752044678,80.23200225830078 -11.206000328063965,79.32599639892578 -12.553999900817871,74.26899719238281 C-3.010999917984009,76.41300201416016 3.1540000438690186,76.56600189208984 3.1540000438690186,76.56600189208984 C15.045000076293945,76.2760009765625 22.784000396728516,72.6500015258789 29.77400016784668,74.15599822998047z"></path></g><g opacity="1" transform="matrix(1,0,0,1,0,0)"><path stroke-linecap="round" stroke-linejoin="round" fill-opacity="0" stroke="rgb(213,0,87)" stroke-opacity="1" stroke-width="6" d=" M3.631999969482422,77.46900177001953 C3.631999969482422,77.46900177001953 3.7860000133514404,79.21900177001953 3.7860000133514404,79.21900177001953"></path></g></g><g opacity="1" transform="matrix(1,0,0,1,0,0)"><g opacity="1" transform="matrix(1,0,0,1,0,0)"><g opacity="1" transform="matrix(1,0,0,1,0,0)"><path fill="rgb(229,239,249)" fill-opacity="1" d=" M-20.29800033569336,85.98799896240234 C-21.562999725341797,81.92400360107422 -24.863000869750977,61.17499923706055 -24.863000869750977,61.125 C-24.863000869750977,57.375 -13.937000274658203,56.0359992980957 -13.621000289916992,59.75 C-13.614999771118164,59.82400131225586 -16.843000411987305,82.9000015258789 -18.52400016784668,86.33799743652344 C-18.749000549316406,86.7969970703125 -19.94700050354004,87.11599731445312 -20.29800033569336,85.98799896240234z"></path><path stroke-linecap="butt" stroke-linejoin="miter" fill-opacity="0" stroke-miterlimit="10" stroke="rgb(180,184,193)" stroke-opacity="1" stroke-width="2.8" d=" M-20.29800033569336,85.98799896240234 C-21.562999725341797,81.92400360107422 -24.863000869750977,61.17499923706055 -24.863000869750977,61.125 C-24.863000869750977,57.375 -13.937000274658203,56.0359992980957 -13.621000289916992,59.75 C-13.614999771118164,59.82400131225586 -16.843000411987305,82.9000015258789 -18.52400016784668,86.33799743652344 C-18.749000549316406,86.7969970703125 -19.94700050354004,87.11599731445312 -20.29800033569336,85.98799896240234z"></path></g></g><g opacity="1" transform="matrix(1,0,0,1,0,0)"><g opacity="1" transform="matrix(1,0,0,1,0,0)"><path fill="rgb(229,239,249)" fill-opacity="1" d=" M26.051000595092773,85.98799896240234 C27.31599998474121,81.92400360107422 30.617000579833984,61.17499923706055 30.617000579833984,61.125 C30.617000579833984,57.375 19.69099998474121,56.0359992980957 19.375,59.75 C19.368999481201172,59.82400131225586 22.597000122070312,82.9000015258789 24.277999877929688,86.33799743652344 C24.503000259399414,86.7969970703125 25.700000762939453,87.11599731445312 26.051000595092773,85.98799896240234z"></path><path stroke-linecap="butt" stroke-linejoin="miter" fill-opacity="0" stroke-miterlimit="10" stroke="rgb(180,184,193)" stroke-opacity="1" stroke-width="2.8" d=" M26.051000595092773,85.98799896240234 C27.31599998474121,81.92400360107422 30.617000579833984,61.17499923706055 30.617000579833984,61.125 C30.617000579833984,57.375 19.69099998474121,56.0359992980957 19.375,59.75 C19.368999481201172,59.82400131225586 22.597000122070312,82.9000015258789 24.277999877929688,86.33799743652344 C24.503000259399414,86.7969970703125 25.700000762939453,87.11599731445312 26.051000595092773,85.98799896240234z"></path></g></g></g></g><g style="display: none;"><g><path></path></g><g><path></path></g><g><g><path></path><path stroke-linecap="round" stroke-linejoin="round" fill-opacity="0"></path></g><g><path stroke-linecap="round" stroke-linejoin="round" fill-opacity="0"></path></g></g><g><g><g><path></path><path stroke-linecap="round" stroke-linejoin="round" fill-opacity="0"></path></g></g></g><g><g><g><path></path><path stroke-linecap="round" stroke-linejoin="round" fill-opacity="0"></path></g></g></g><g><path stroke-linecap="round" stroke-linejoin="round" fill-opacity="0"></path></g><g><g><g><path></path><path stroke-linecap="round" stroke-linejoin="round" fill-opacity="0"></path></g></g></g></g><g style="display: block;" transform="matrix(1,0,0,1,263.4800109863281,256.0329895019531)" opacity="1"><g opacity="1" transform="matrix(1,0,0,1,0,0)"><path fill="rgb(255,170,0)" fill-opacity="1" d=" M115.70999908447266,9.640000343322754 C103.65799713134766,8.215999603271484 99.93000030517578,-19.43000030517578 99.93000030517578,-19.43000030517578 C86.06700134277344,-31.959999084472656 80.66699981689453,-50.75 80.66699981689453,-50.75 C76.60600280761719,-46.619998931884766 65.75,-58.83300018310547 63.22999954223633,-68.19000244140625 C64.16000366210938,-61.45000076293945 67.09600067138672,-52.441001892089844 53.16999816894531,-57.84000015258789 C28.923999786376953,-67.23999786376953 7.0879998207092285,-61.279998779296875 -20.790000915527344,-68.45999908447266 C-46.237998962402344,-75.01399993896484 -55.209999084472656,-86.37000274658203 -55.209999084472656,-86.37000274658203 C-49.97999954223633,-73.78299713134766 -51.709999084472656,-63.79999923706055 -51.709999084472656,-63.79999923706055 C-57.13399887084961,-51.6349983215332 -73.41000366210938,-60.380001068115234 -73.41000366210938,-60.380001068115234 C-66.68299865722656,-38.2400016784668 -81.98999786376953,-46.20000076293945 -81.98999786376953,-46.20000076293945 C-84.75,-33.599998474121094 -95.2699966430664,-23.6299991607666 -95.2699966430664,-23.6299991607666 C-98.63300323486328,-1.9709999561309814 -105.4000015258789,4.159999847412109 -107.55000305175781,5.659999847412109 C-110.51000213623047,-36.11000061035156 -116.18399810791016,-143.95899963378906 3.2899999618530273,-143.1199951171875 C131.5919952392578,-142.218994140625 115.70999908447266,9.640000343322754 115.70999908447266,9.640000343322754z"></path></g><g opacity="1" transform="matrix(1,0,0,1,0,0)"><path fill="rgb(45,45,45)" fill-opacity="1" d=" M-65.46399688720703,-122.39700317382812 C-65.46399688720703,-122.39700317382812 -53.608001708984375,-90.62899780273438 -15.182999610900879,-81.66100311279297 C23.242000579833984,-72.69300079345703 43.8120002746582,-79.04499816894531 63.606998443603516,-63.724998474121094 C63.606998443603516,-63.724998474121094 68.4739990234375,-74.56199645996094 63.606998443603516,-86.89299774169922 C63.606998443603516,-86.89299774169922 67.70700073242188,-67.08899688720703 84.89600372314453,-55.505001068115234 C84.89600372314453,-55.505001068115234 84.14900207519531,-67.46199798583984 84.89600372314453,-74.18800354003906 C84.89600372314453,-74.18800354003906 89.62300109863281,-46.547000885009766 107.05000305175781,-25.628999710083008 C110.8010025024414,-21.12700080871582 106.80999755859375,-1.4500000476837158 115.71399688720703,6.63700008392334 C115.71399688720703,6.63700008392334 117.55999755859375,-12.067000389099121 124,-21.433000564575195 C131.8300018310547,-32.82099914550781 139.38299560546875,-68.57599639892578 131.76600646972656,-100.68699645996094 C122.00399780273438,-141.83999633789062 79.08799743652344,-174.6529998779297 21.677000045776367,-180.2449951171875 C-19.211000442504883,-184.2270050048828 -64.96499633789062,-175.91600036621094 -74.15699768066406,-147.4929962158203 C-114,-153.33399963378906 -142.66600036621094,-61.66699981689453 -119.2509994506836,-21.433000564575195 C-114.08000183105469,-12.54800033569336 -109.97000122070312,3.927999973297119 -109.97000122070312,3.927999973297119 C-104.13999938964844,1.9190000295639038 -103.09500122070312,-29.511999130249023 -103.09500122070312,-29.511999130249023 C-103.09500122070312,-29.511999130249023 -90.38899993896484,-43.51599884033203 -83.9739990234375,-67.48999786376953 C-83.9739990234375,-67.48999786376953 -76.93800354003906,-56.02299880981445 -73.15699768066406,-56.02299880981445 C-73.15699768066406,-56.02299880981445 -74.15599822998047,-66.52999877929688 -72.24500274658203,-75.4260025024414 C-72.24500274658203,-75.4260025024414 -64.74800109863281,-66.7770004272461 -57.21500015258789,-65.86900329589844 C-57.21500015258789,-65.86900329589844 -68.37000274658203,-85.96399688720703 -65.46399688720703,-122.39700317382812z"></path></g><g opacity="0.3" transform="matrix(1,0,0,1,0,0)"><path fill="rgb(9,9,9)" fill-opacity="1" d=" M126.89800262451172,-23.44300079345703 C116.19499969482422,-9.32800006866455 114.70999908447266,6.639999866485596 114.70999908447266,6.639999866485596 C105.80999755859375,-1.4500000476837158 110.80000305175781,-21.1299991607666 107.05000305175781,-25.6299991607666 C94.55999755859375,-40.619998931884766 86.30699920654297,-58.426998138427734 88.41600036621094,-73.38400268554688 C88.41600036621094,-73.38400268554688 97.51100158691406,-46.40599822998047 114.29100036621094,-49.79600143432617 C131.83299255371094,-53.34000015258789 132.9499969482422,-108.44999694824219 115.93000030517578,-133.1999969482422 C146.25,-101.5 133.76600646972656,-32.5 126.89800262451172,-23.44300079345703z"></path></g><g opacity="0.3" transform="matrix(1,0,0,1,0,0)"><path fill="rgb(9,9,9)" fill-opacity="1" d=" M63.61000061035156,-63.72999954223633 C43.810001373291016,-79.05000305175781 23.239999771118164,-72.69000244140625 -15.180000305175781,-81.66000366210938 C-53.61000061035156,-90.62999725341797 -65.45999908447266,-122.4000015258789 -65.45999908447266,-122.4000015258789 C-68.37000274658203,-85.95999908447266 -57.209999084472656,-65.87000274658203 -57.209999084472656,-65.87000274658203 C-64.75,-66.77999877929688 -72.25,-75.43000030517578 -72.25,-75.43000030517578 C-74.16000366210938,-66.52999877929688 -73.16000366210938,-56.02000045776367 -73.16000366210938,-56.02000045776367 C-76.94000244140625,-56.02000045776367 -83.97000122070312,-67.48999786376953 -83.97000122070312,-67.48999786376953 C-90.38999938964844,-43.52000045776367 -103.0999984741211,-29.510000228881836 -103.0999984741211,-29.510000228881836 C-103.0999984741211,-29.510000228881836 -103.13999938964844,1.9199999570846558 -108.97000122070312,3.930000066757202 C-108.97000122070312,3.930000066757202 -115.78900146484375,-11.74899959564209 -119.25,-21.43000030517578 C-145.27000427246094,-94.20600128173828 -110.25,-145.1219940185547 -74.16000366210938,-147.49000549316406 C-68.69999694824219,-164.35000610351562 -50.38999938964844,-174.1300048828125 -27.8700008392334,-178.47999572753906 C-27.8700008392334,-178.47999572753906 -27.860000610351562,-178.47000122070312 -27.860000610351562,-178.47000122070312 C-27.860000610351562,-178.47000122070312 -60.75699996948242,-172.01499938964844 -60.75,-141.94000244140625 C-60.744998931884766,-119.74500274658203 -26.833999633789062,-97.01300048828125 4.460000038146973,-92.6780014038086 C28.472999572753906,-89.35099792480469 50.560001373291016,-92.6500015258789 63.61000061035156,-63.72999954223633z"></path></g><g opacity="1" transform="matrix(1,0,0,1,0,0)"><path stroke-linecap="round" stroke-linejoin="round" fill-opacity="0" stroke="rgb(0,0,0)" stroke-opacity="1" stroke-width="8" d=" M-65.46399688720703,-122.39700317382812 C-65.46399688720703,-122.39700317382812 -53.608001708984375,-90.62899780273438 -15.182999610900879,-81.66100311279297 C23.242000579833984,-72.69300079345703 43.8120002746582,-79.04499816894531 63.606998443603516,-63.724998474121094 C63.606998443603516,-63.724998474121094 68.4739990234375,-74.56199645996094 63.606998443603516,-86.89299774169922 C63.606998443603516,-86.89299774169922 67.70700073242188,-67.08899688720703 84.89600372314453,-55.505001068115234 C84.89600372314453,-55.505001068115234 84.14900207519531,-67.46199798583984 84.89600372314453,-74.18800354003906 C84.89600372314453,-74.18800354003906 89.62300109863281,-46.547000885009766 107.05000305175781,-25.628999710083008 C110.8010025024414,-21.12700080871582 110.46600341796875,-10.13700008392334 114.71399688720703,6.63700008392334 C114.71399688720703,6.63700008392334 116.21900177001953,-13.196000099182129 126,-22.433000564575195 C133.8090057373047,-29.808000564575195 138.38299560546875,-68.57599639892578 130.76600646972656,-100.68699645996094 C121.00399780273438,-141.83999633789062 79.08799743652344,-174.6529998779297 21.677000045776367,-180.2449951171875 C-19.211000442504883,-184.2270050048828 -64.96499633789062,-175.91600036621094 -74.15699768066406,-147.4929962158203 C-134,-142.218994140625 -134.33299255371094,-41.2400016784668 -119.2509994506836,-22.433000564575195 C-111.6520004272461,-12.956999778747559 -108.97000122070312,3.927999973297119 -108.97000122070312,3.927999973297119 C-106.14399719238281,-7.548999786376953 -104.09500122070312,-29.511999130249023 -104.09500122070312,-29.511999130249023 C-104.09500122070312,-29.511999130249023 -90.38899993896484,-43.51599884033203 -83.9739990234375,-67.48999786376953 C-83.9739990234375,-67.48999786376953 -76.93800354003906,-56.02299880981445 -73.15699768066406,-56.02299880981445 C-73.15699768066406,-56.02299880981445 -74.15599822998047,-66.52999877929688 -72.24500274658203,-75.4260025024414 C-72.24500274658203,-75.4260025024414 -64.74800109863281,-66.7770004272461 -57.21500015258789,-65.86900329589844 C-57.21500015258789,-65.86900329589844 -68.37000274658203,-85.96399688720703 -65.46399688720703,-122.39700317382812z"></path></g><g opacity="0.1" transform="matrix(1,0,0,1,0,0)"><path fill="rgb(255,255,255)" fill-opacity="1" d=" M15.77400016784668,-115.53299713134766 C-55.2140007019043,-122.66699981689453 -56.2140007019043,-147.25 -49.058998107910156,-155.31300354003906 C-40.16299819946289,-165.33700561523438 -15.472999572753906,-171.50900268554688 13.89799976348877,-169.8800048828125 C41.97999954223633,-168.32200622558594 67.20600128173828,-162.33299255371094 80.29199981689453,-147.93600463867188 C92.0199966430664,-135.0330047607422 76.20700073242188,-109.45999908447266 15.77400016784668,-115.53299713134766z"></path></g><g opacity="0.1" transform="matrix(1,0,0,1,0,0)"><path fill="rgb(255,255,255)" fill-opacity="1" d=" M-83.9739990234375,-110.25399780273438 C-81.4530029296875,-122.18599700927734 -88.51699829101562,-134.49400329589844 -96.49299621582031,-127.60700225830078 C-105.95500183105469,-119.43699645996094 -110.8949966430664,-101.76699829101562 -111.56800079345703,-86.98899841308594 C-111.83000183105469,-81.24099731445312 -109.59200286865234,-93.13700103759766 -101.58999633789062,-105.45700073242188 C-93.73300170898438,-117.5530014038086 -85.00199890136719,-105.39099884033203 -83.9739990234375,-110.25399780273438z"></path></g><g opacity="0.1" transform="matrix(1,0,0,1,0,0)"><path fill="rgb(255,255,255)" fill-opacity="1" d=" M-82.39099884033203,-89.98100280761719 C-92.875,-63.25 -104.2300033569336,-50.784000396728516 -114.60600280761719,-54.909000396728516 C-123.90799713134766,-58.606998443603516 -125.7770004272461,-85.76000213623047 -117.552001953125,-105.98899841308594 C-109.3270034790039,-126.21800231933594 -95.13700103759766,-139.5749969482422 -85.87000274658203,-135.7899932861328 C-72,-130.125 -74.41799926757812,-110.30999755859375 -82.39099884033203,-89.98100280761719z"></path></g></g><g style="display: block;" transform="matrix(0.9961947202682495,-0.08715574443340302,0.08715574443340302,0.9961947202682495,293.7442626953125,290.59283447265625)" opacity="1"><g opacity="1" transform="matrix(1,0,0,1,0,0)"><path stroke-linecap="round" stroke-linejoin="round" fill-opacity="0" stroke="rgb(255,255,255)" stroke-opacity="1" stroke-width="6" d=" M38.0880012512207,-194.35899353027344 C39.62099838256836,-193.81500244140625 41.20800018310547,-193.22900390625 42.840999603271484,-192.60000610351562"></path></g><g opacity="1" transform="matrix(1,0,0,1,0,0)"><path stroke-linecap="round" stroke-linejoin="round" fill-opacity="0" stroke="rgb(255,255,255)" stroke-opacity="1" stroke-width="6" d=" M16.610000610351562,-200.51600646972656 C16.610000610351562,-200.51600646972656 21.56999969482422,-199.5749969482422 29.32200050354004,-197.23699951171875"></path></g></g></g></svg>