<svg xmlns="http://www.w3.org/2000/svg" viewBox="0 0 512 512" width="512" height="512" style="width: 100%; height: 100%; transform: translate3d(0,0,0);" preserveAspectRatio="xMidYMid meet"><defs><clipPath id="__lottie_element_3424"><rect width="512" height="512" x="0" y="0"></rect></clipPath><linearGradient id="__lottie_element_3453" spreadMethod="pad" gradientUnits="userSpaceOnUse" x1="53" y1="-28" x2="65.98300170898438" y2="-7.9079999923706055"><stop offset="0%" stop-color="rgb(51,1,4)"></stop><stop offset="38%" stop-color="rgb(123,1,2)"></stop><stop offset="100%" stop-color="rgb(195,0,0)"></stop></linearGradient><linearGradient id="__lottie_element_3457" spreadMethod="pad" gradientUnits="userSpaceOnUse" x1="-53" y1="-28" x2="-40.016998291015625" y2="-7.9079999923706055"><stop offset="0%" stop-color="rgb(51,1,4)"></stop><stop offset="38%" stop-color="rgb(123,1,2)"></stop><stop offset="100%" stop-color="rgb(195,0,0)"></stop></linearGradient></defs><g clip-path="url(#__lottie_element_3424)"><g style="display: block;" transform="matrix(1,0,0,1,264,256)" opacity="1"><g opacity="1" transform="matrix(1,0,0,1,0,0)"><path fill="rgb(45,45,45)" fill-opacity="1" d=" M50.2400016784668,128.072998046875 C97.0199966430664,136.072998046875 128.77999877929688,152.0030059814453 141.77999877929688,168.2429962158203 C154.02000427246094,183.55299377441406 158.16099548339844,209.92300415039062 159.83099365234375,222.9429931640625 C159.83099365234375,222.9429931640625 159.83099365234375,222.9429931640625 159.83099365234375,222.9429931640625 C159.83099365234375,222.9429931640625 156.77099609375,226.39300537109375 146.91099548339844,228.84300231933594 C141.4510040283203,230.2030029296875 133.91000366210938,231.26300048828125 123.6500015258789,231.26300048828125 C123.6500015258789,231.26300048828125 -117.77899932861328,231.26300048828125 -117.77899932861328,231.26300048828125 C-127.6989974975586,231.26300048828125 -135.07899475097656,230.2729949951172 -140.48899841308594,228.98300170898438 C-150.78900146484375,226.51300048828125 -153.9600067138672,222.9429931640625 -153.9600067138672,222.9429931640625 C-152.16000366210938,209.54299926757812 -147.25900268554688,183.14300537109375 -135.33900451660156,168.2429962158203 C-122.33899688720703,152.0030059814453 -90.5790023803711,136.072998046875 -43.79899978637695,128.072998046875 C-12.444000244140625,125.96600341796875 18.902000427246094,125.98300170898438 50.2400016784668,128.072998046875z"></path></g><g opacity="0.6" transform="matrix(1,0,0,1,0,0)"><path stroke-linecap="round" stroke-linejoin="round" fill-opacity="0" stroke="rgb(0,0,0)" stroke-opacity="1" stroke-width="5" d=" M-128.73699951171875,188.8990020751953 C-126.76599884033203,199.66099548339844 -123.65599822998047,212.91799926757812 -118.5250015258789,228.06500244140625"></path></g><g opacity="0.2" transform="matrix(1,0,0,1,0,0)"><path fill="rgb(0,0,0)" fill-opacity="1" d=" M50.2400016784668,130.75 C49.981998443603516,196.2519989013672 97.94100189208984,239.97900390625 129.13499450683594,212.7100067138672 C129.13499450683594,212.7100067138672 123.23200225830078,231.25999450683594 123.23200225830078,231.25999450683594 C123.23200225830078,231.25999450683594 -117.72799682617188,231.25999450683594 -117.72799682617188,231.25999450683594 C-117.72799682617188,231.25999450683594 -123.63099670410156,212.7100067138672 -123.63099670410156,212.7100067138672 C-92.43699645996094,239.97900390625 -43.54100036621094,198.1219940185547 -43.79899978637695,132.6199951171875 C-43.79899978637695,132.6199951171875 50.2400016784668,130.75 50.2400016784668,130.75z"></path></g><g opacity="1" transform="matrix(1,0,0,1,0,0)"><path fill="rgb(61,61,61)" fill-opacity="1" d=" M50.2400016784668,128.072998046875 C97.0199966430664,136.072998046875 128.77999877929688,152.0030059814453 141.77999877929688,168.2429962158203 C154.02000427246094,183.55299377441406 161.83299255371094,222.5 161.83299255371094,222.5 C161.83299255371094,222.5 156.77099609375,226.39300537109375 146.91099548339844,228.84300231933594 C145.29100036621094,216.43299865722656 140.1699981689453,191.04299926757812 131.52000427246094,180.30299377441406 C108.61000061035156,151.84300231933594 50.2400016784668,145.67300415039062 50.2400016784668,145.67300415039062 C18.933000564575195,142.84500122070312 -12.413000106811523,142.8520050048828 -43.79899978637695,145.67300415039062 C-43.79899978637695,145.67300415039062 -102.16999816894531,151.84300231933594 -125.08000183105469,180.30299377441406 C-133.75999450683594,191.08299255371094 -138.88900756835938,216.6230010986328 -140.48899841308594,228.98300170898438 C-150.78900146484375,226.51300048828125 -156.33299255371094,221.66700744628906 -156.33299255371094,221.66700744628906 C-154.5330047607422,208.26699829101562 -147.25900268554688,183.14300537109375 -135.33900451660156,168.2429962158203 C-122.33899688720703,152.0030059814453 -90.5790023803711,136.072998046875 -43.79899978637695,128.072998046875 C-13.776000022888184,125.88899993896484 17.673999786376953,126.05999755859375 50.2400016784668,128.072998046875z"></path></g><g opacity="1" transform="matrix(1,0,0,1,0,0)"><g opacity="1" transform="matrix(1,0,0,1,0,0)"><path stroke-linecap="round" stroke-linejoin="round" fill-opacity="0" stroke="rgb(0,0,0)" stroke-opacity="1" stroke-width="8" d=" M160.4810028076172,219 C159.8300018310547,210.625 156.23899841308594,186.32400512695312 141.7790069580078,168.2429962158203 C128.7790069580078,152.0030059814453 97.01899719238281,136.072998046875 50.23899841308594,128.072998046875 C17.976999282836914,126.07099914550781 -13.456000328063965,125.87899780273438 -43.79899978637695,128.072998046875 C-90.5790023803711,136.072998046875 -122.33899688720703,152.0030059814453 -135.33900451660156,168.2429962158203 C-149.1959991455078,185.57000732421875 -152.9239959716797,210.23699951171875 -153.9600067138672,218.375"></path></g></g><g opacity="0.6" transform="matrix(1,0,0,1,0,0)"><path stroke-linecap="round" stroke-linejoin="round" fill-opacity="0" stroke="rgb(0,0,0)" stroke-opacity="1" stroke-width="5" d=" M134.73800659179688,189.11199951171875 C132.62399291992188,199.8350067138672 129.33900451660156,213.35800170898438 124.29000091552734,228.26499938964844"></path></g></g><g style="display: block;" transform="matrix(1,0,0,1,264,256)" opacity="1"><g opacity="1" transform="matrix(1,0,0,1,0,0)"><path fill="rgb(213,214,218)" fill-opacity="1" d=" M-39.659000396728516,128.072998046875 C-43.79999923706055,154.55999755859375 -21.926000595092773,212.75 4.0370001792907715,215 C30,217.25 50.2400016784668,152.44900512695312 45.22100067138672,127.51399993896484 C45.22100067138672,127.51399993896484 -39.659000396728516,128.072998046875 -39.659000396728516,128.072998046875z"></path></g><g opacity="1" transform="matrix(1,0,0,1,0,0)"><g opacity="1" transform="matrix(1,0,0,1,0,0)"><g opacity="0.3" transform="matrix(1,0,0,1,0,0)"><path fill="rgb(144,155,157)" fill-opacity="1" d=" M3.944999933242798,160.89100646972656 C3.944999933242798,160.89100646972656 -3.7899999618530273,177.8820037841797 -3.7899999618530273,177.8820037841797 C-4.4629998207092285,179.36000061035156 -6.142000198364258,179.9600067138672 -7.683000087738037,179.44900512695312 C-36.16699981689453,170 -33.06700134277344,135.4530029296875 -33.06700134277344,135.4530029296875 C-9.126999855041504,131.72000122070312 15.293000221252441,131.75399780273438 40.18000030517578,135.4530029296875 C40.18000030517578,135.4530029296875 50.2400016784668,167.5540008544922 17.267000198364258,179.06300354003906 C15.6850004196167,179.61500549316406 13.946000099182129,179.30499267578125 13.145999908447266,177.83299255371094 C13.145999908447266,177.83299255371094 3.944999933242798,160.89100646972656 3.944999933242798,160.89100646972656z"></path></g><g opacity="1" transform="matrix(1,0,0,1,0,0)"><path fill="rgb(231,230,231)" fill-opacity="1" d=" M3.944999933242798,139.99600219726562 C3.944999933242798,139.99600219726562 -8.958000183105469,167.5540008544922 -8.958000183105469,167.5540008544922 C-8.958000183105469,167.5540008544922 -26.586000442504883,160.24600219726562 -37.18199920654297,141.8159942626953 C-37.18199920654297,141.8159942626953 -33.06700134277344,117.55899810791016 -33.06700134277344,117.55899810791016 C-33.06700134277344,117.55899810791016 40.18000030517578,117.55899810791016 40.18000030517578,117.55899810791016 C40.18000030517578,117.55899810791016 43.255001068115234,141.718994140625 43.255001068115234,141.718994140625 C43.255001068115234,141.718994140625 35.79600143432617,158.17300415039062 16.56800079345703,167.5540008544922 C16.56800079345703,167.5540008544922 3.944999933242798,139.99600219726562 3.944999933242798,139.99600219726562z"></path><path stroke-linecap="round" stroke-linejoin="round" fill-opacity="0" stroke="rgb(151,163,164)" stroke-opacity="1" stroke-width="8" d=" M3.944999933242798,139.99600219726562 C3.944999933242798,139.99600219726562 -8.958000183105469,167.5540008544922 -8.958000183105469,167.5540008544922 C-8.958000183105469,167.5540008544922 -26.586000442504883,160.24600219726562 -37.18199920654297,141.8159942626953 C-37.18199920654297,141.8159942626953 -33.06700134277344,117.55899810791016 -33.06700134277344,117.55899810791016 C-33.06700134277344,117.55899810791016 40.18000030517578,117.55899810791016 40.18000030517578,117.55899810791016 C40.18000030517578,117.55899810791016 43.255001068115234,141.718994140625 43.255001068115234,141.718994140625 C43.255001068115234,141.718994140625 35.79600143432617,158.17300415039062 16.56800079345703,167.5540008544922 C16.56800079345703,167.5540008544922 3.944999933242798,139.99600219726562 3.944999933242798,139.99600219726562z"></path></g></g><g opacity="0.3" transform="matrix(1,0,0,1,0,0)"><path fill="rgb(144,155,157)" fill-opacity="1" d=" M40.95000076293945,117.56300354003906 C40.95000076293945,117.56300354003906 3.940000057220459,117.56300354003906 3.940000057220459,117.56300354003906 C3.940000057220459,117.56300354003906 -33.06999969482422,117.56300354003906 -33.06999969482422,117.56300354003906 C-33.06999969482422,117.56300354003906 -37.18000030517578,141.81300354003906 -37.18000030517578,141.81300354003906 C-32.720001220703125,149.56300354003906 -25.030000686645508,152.34300231933594 -19.920000076293945,156.43299865722656 C-20.190000534057617,155.7830047607422 -27.3700008392334,145.88299560546875 -21.799999237060547,139.5030059814453 C-16.110000610351562,132.98300170898438 -10.859999656677246,137.9929962158203 3.940000057220459,137.9929962158203 C18.739999771118164,137.9929962158203 23.989999771118164,132.98300170898438 29.68000030517578,139.5030059814453 C35.25,145.88299560546875 28.06999969482422,155.7830047607422 27.799999237060547,156.43299865722656 C32.90999984741211,152.34300231933594 40.599998474121094,149.56300354003906 45.060001373291016,141.81300354003906 C45.060001373291016,141.81300354003906 40.95000076293945,117.56300354003906 40.95000076293945,117.56300354003906z"></path></g></g><g opacity="1" transform="matrix(1,0,0,1,0,0)"><g opacity="1" transform="matrix(1,0,0,1,0,0)"><path fill="rgb(104,26,168)" fill-opacity="1" d=" M50.2400016784668,128.07000732421875 C50.2400016784668,128.07000732421875 50.2400016784668,231.25999450683594 50.2400016784668,231.25999450683594 C50.2400016784668,231.25999450683594 -43.79999923706055,231.25999450683594 -43.79999923706055,231.25999450683594 C-43.79999923706055,231.25999450683594 -43.79999923706055,128.07000732421875 -43.79999923706055,128.07000732421875 C-42.22999954223633,127.80000305175781 -40.650001525878906,127.54000091552734 -39.04999923706055,127.30000305175781 C-32.779998779296875,146 4.539999961853027,205.6699981689453 4.539999961853027,205.6699981689453 C4.539999961853027,205.6699981689453 38.4900016784668,146.97000122070312 44.599998474121094,127.44000244140625 C44.599998474121094,127.44000244140625 50.2400016784668,128.07000732421875 50.2400016784668,128.07000732421875z"></path></g><g opacity="1" transform="matrix(1,0,0,1,0,0)"><path stroke-linecap="round" stroke-linejoin="round" fill-opacity="0" stroke="rgb(0,0,0)" stroke-opacity="1" stroke-width="8" d=" M50.2400016784668,226.98300170898438 C50.2400016784668,226.98300170898438 50.2400016784668,125.24400329589844 50.2400016784668,125.24400329589844"></path></g><g opacity="1" transform="matrix(1,0,0,1,0,0)"><path stroke-linecap="round" stroke-linejoin="round" fill-opacity="0" stroke="rgb(0,0,0)" stroke-opacity="1" stroke-width="8" d=" M-43.79999923706055,226.98300170898438 C-43.79999923706055,226.98300170898438 -43.79999923706055,125.24400329589844 -43.79999923706055,125.24400329589844"></path></g><g opacity="1" transform="matrix(1,0,0,1,0,0)"><path stroke-linecap="round" stroke-linejoin="round" fill-opacity="0" stroke="rgb(45,0,95)" stroke-opacity="1" stroke-width="8" d=" M45.22100067138672,125.24400329589844 C41.34199905395508,142.052001953125 4.540999889373779,205.66799926757812 4.540999889373779,205.66799926757812 C4.540999889373779,205.66799926757812 -35.85599899291992,141.08099365234375 -39.659000396728516,125.24400329589844"></path></g></g></g><g style="display: block;" transform="matrix(1,0,0,1,264,256)" opacity="1"><g opacity="1" transform="matrix(1,0,0,1,0,0)"><path fill="rgb(208,0,0)" fill-opacity="1" d=" M197.67100524902344,-135.4409942626953 C159.37899780273438,-104.33300018310547 85.81700134277344,-80.18900299072266 1.7990000247955322,-77.28900146484375 C-78.24099731445312,-74.5270004272461 -153,-108 -190.5,-135.4409942626953 C-190.5,-135.4409942626953 -194.86199951171875,-73.177001953125 -185,-29.780000686645508 C-177.82699584960938,1.7879999876022339 -156.28399658203125,77.91699981689453 -47.02899932861328,154.55999755859375 C-47.02899932861328,154.55999755859375 -41.15999984741211,92.18900299072266 -15.701000213623047,53.4640007019043 C-5.492000102996826,37.935001373291016 11.557000160217285,37.935001373291016 21.766000747680664,53.4640007019043 C47.224998474121094,92.18900299072266 53.09400177001953,154.55999755859375 53.09400177001953,154.55999755859375 C162.3489990234375,77.91699981689453 181.32699584960938,-2.308000087738037 188.5,-33.875999450683594 C198.36199951171875,-77.27300262451172 197.67100524902344,-135.4409942626953 197.67100524902344,-135.4409942626953z"></path><path stroke-linecap="round" stroke-linejoin="round" fill-opacity="0" stroke="rgb(87,0,0)" stroke-opacity="1" stroke-width="8" d=" M197.67100524902344,-135.4409942626953 C159.37899780273438,-104.33300018310547 85.81700134277344,-80.18900299072266 1.7990000247955322,-77.28900146484375 C-78.24099731445312,-74.5270004272461 -153,-108 -190.5,-135.4409942626953 C-190.5,-135.4409942626953 -194.86199951171875,-73.177001953125 -185,-29.780000686645508 C-177.82699584960938,1.7879999876022339 -156.28399658203125,77.91699981689453 -47.02899932861328,154.55999755859375 C-47.02899932861328,154.55999755859375 -41.15999984741211,92.18900299072266 -15.701000213623047,53.4640007019043 C-5.492000102996826,37.935001373291016 11.557000160217285,37.935001373291016 21.766000747680664,53.4640007019043 C47.224998474121094,92.18900299072266 53.09400177001953,154.55999755859375 53.09400177001953,154.55999755859375 C162.3489990234375,77.91699981689453 181.32699584960938,-2.308000087738037 188.5,-33.875999450683594 C198.36199951171875,-77.27300262451172 197.67100524902344,-135.4409942626953 197.67100524902344,-135.4409942626953z"></path></g><g opacity="0.4" transform="matrix(1,0,0,1,0,0)"><path fill="rgb(99,0,0)" fill-opacity="1" d=" M-28.950000762939453,79.37000274658203 C-28.950000762939453,79.37999725341797 -28.950000762939453,79.37999725341797 -28.950000762939453,79.37999725341797 C-43.310001373291016,115.04000091552734 -48.5620002746582,143.625 -48.6619987487793,143.55499267578125 C-46.0099983215332,128.36500549316406 -60.68600082397461,126.86499786376953 -78.20999908447266,108.33999633789062 C-121.86599731445312,62.189998626708984 -96.82599639892578,13.317000389099121 -96.82599639892578,13.317000389099121 C-54.16600036621094,-1.0529999732971191 -40.36000061035156,40.9900016784668 -28.950000762939453,79.37000274658203z"></path></g><g opacity="0.4" transform="matrix(1,0,0,1,0,0)"><path fill="rgb(99,0,0)" fill-opacity="1" d=" M-98.87999725341797,-56.111000061035156 C-166.7100067138672,-88.41799926757812 -176.2949981689453,-43.67900085449219 -180.375,-34.202999114990234 C-186.98500061035156,-76.3270034790039 -197.69000244140625,-126.17400360107422 -197.69000244140625,-126.17400360107422 C-169.7100067138672,-103.44999694824219 -123.4000015258789,-79.74199676513672 -65.94000244140625,-69.06700134277344 C-63.43000030517578,-49.8129997253418 -70.33000183105469,-42.50199890136719 -98.87999725341797,-56.111000061035156z"></path></g><g opacity="0.4" transform="matrix(1,0,0,1,0,0)"><path fill="rgb(99,0,0)" fill-opacity="1" d=" M34.8390007019043,79.37000274658203 C34.8390007019043,79.37999725341797 34.8390007019043,79.37999725341797 34.8390007019043,79.37999725341797 C49.19900131225586,115.04000091552734 54.45199966430664,144.625 54.551998138427734,144.55499267578125 C51.900001525878906,129.36500549316406 66.57499694824219,126.86499786376953 84.0989990234375,108.33999633789062 C127.75499725341797,62.189998626708984 102.71499633789062,13.317000389099121 102.71499633789062,13.317000389099121 C60.05500030517578,-1.0529999732971191 46.249000549316406,40.9900016784668 34.8390007019043,79.37000274658203z"></path></g><g opacity="0.4" transform="matrix(1,0,0,1,0,0)"><path fill="rgb(99,0,0)" fill-opacity="1" d=" M104.94499969482422,-56.111000061035156 C172.77499389648438,-88.41799926757812 182.36000061035156,-43.67900085449219 186.44000244140625,-34.202999114990234 C193.0500030517578,-76.3270034790039 203.7550048828125,-126.17400360107422 203.7550048828125,-126.17400360107422 C175.77499389648438,-103.44999694824219 129.46499633789062,-79.74199676513672 72.00499725341797,-69.06700134277344 C69.49500274658203,-49.8129997253418 76.3949966430664,-42.50199890136719 104.94499969482422,-56.111000061035156z"></path></g><g opacity="1" transform="matrix(1,0,0,1,0,0)"><path fill="rgb(45,45,45)" fill-opacity="1" d=" M-47.02899932861328,154.55999755859375 C-157.20899963378906,81.01200103759766 -185.09800720214844,-0.5450000166893005 -192.21299743652344,-31.805999755859375 C-202.07699584960938,-75.20800018310547 -197.68699645996094,-140.17799377441406 -197.68699645996094,-140.17799377441406 C-190.12600708007812,-152.5399932861328 -174.92100524902344,-160.50799560546875 -174.92100524902344,-160.50799560546875 C-174.92100524902344,-160.50799560546875 -180,-58.48500061035156 -165.5959930419922,-10.25 C-135.21499633789062,91.48600006103516 -62.97800064086914,143.57000732421875 -47.02899932861328,154.55999755859375z"></path><path stroke-linecap="round" stroke-linejoin="round" fill-opacity="0" stroke="rgb(0,0,0)" stroke-opacity="1" stroke-width="8" d=" M-47.02899932861328,154.55999755859375 C-157.20899963378906,81.01200103759766 -185.09800720214844,-0.5450000166893005 -192.21299743652344,-31.805999755859375 C-202.07699584960938,-75.20800018310547 -197.68699645996094,-140.17799377441406 -197.68699645996094,-140.17799377441406 C-190.12600708007812,-152.5399932861328 -174.92100524902344,-160.50799560546875 -174.92100524902344,-160.50799560546875 C-174.92100524902344,-160.50799560546875 -180,-58.48500061035156 -165.5959930419922,-10.25 C-135.21499633789062,91.48600006103516 -62.97800064086914,143.57000732421875 -47.02899932861328,154.55999755859375z"></path></g><g opacity="1" transform="matrix(1,0,0,1,0,0)"><path fill="rgb(45,45,45)" fill-opacity="1" d=" M53.09400177001953,154.55999755859375 C163.2740020751953,81.01200103759766 191.16299438476562,-0.5450000166893005 198.2779998779297,-31.805999755859375 C208.14199829101562,-75.20800018310547 203.7519989013672,-140.17799377441406 203.7519989013672,-140.17799377441406 C196.1909942626953,-152.5399932861328 180.98599243164062,-160.50799560546875 180.98599243164062,-160.50799560546875 C180.98599243164062,-160.50799560546875 185.5,-48.20000076293945 171.66099548339844,-10.25 C135.28700256347656,89.5 69.04299926757812,143.57000732421875 53.09400177001953,154.55999755859375z"></path><path stroke-linecap="round" stroke-linejoin="round" fill-opacity="0" stroke="rgb(0,0,0)" stroke-opacity="1" stroke-width="8" d=" M53.09400177001953,154.55999755859375 C163.2740020751953,81.01200103759766 191.16299438476562,-0.5450000166893005 198.2779998779297,-31.805999755859375 C208.14199829101562,-75.20800018310547 203.7519989013672,-140.17799377441406 203.7519989013672,-140.17799377441406 C196.1909942626953,-152.5399932861328 180.98599243164062,-160.50799560546875 180.98599243164062,-160.50799560546875 C180.98599243164062,-160.50799560546875 185.5,-48.20000076293945 171.66099548339844,-10.25 C135.28700256347656,89.5 69.04299926757812,143.57000732421875 53.09400177001953,154.55999755859375z"></path></g></g><g style="display: block;" transform="matrix(1,0,0,1,264,256)" opacity="1"><g opacity="1" transform="matrix(1,0,0,1,0,0)"><path fill="rgb(179,145,0)" fill-opacity="1" d=" M-39.10100173950195,152.4499969482422 C-39.10100173950195,156.8679962158203 -42.933998107910156,160.4499969482422 -47.6619987487793,160.4499969482422 C-52.38999938964844,160.4499969482422 -56.222999572753906,156.8679962158203 -56.222999572753906,152.4499969482422 C-56.222999572753906,148.03199768066406 -52.38999938964844,144.4499969482422 -47.6619987487793,144.4499969482422 C-42.933998107910156,144.4499969482422 -39.10100173950195,148.03199768066406 -39.10100173950195,152.4499969482422z"></path><path stroke-linecap="round" stroke-linejoin="round" fill-opacity="0" stroke="rgb(207,194,63)" stroke-opacity="1" stroke-width="5" d=" M-39.10100173950195,152.4499969482422 C-39.10100173950195,156.8679962158203 -42.933998107910156,160.4499969482422 -47.6619987487793,160.4499969482422 C-52.38999938964844,160.4499969482422 -56.222999572753906,156.8679962158203 -56.222999572753906,152.4499969482422 C-56.222999572753906,148.03199768066406 -52.38999938964844,144.4499969482422 -47.6619987487793,144.4499969482422 C-42.933998107910156,144.4499969482422 -39.10100173950195,148.03199768066406 -39.10100173950195,152.4499969482422z"></path></g><g opacity="1" transform="matrix(1,0,0,1,0,0)"><path fill="rgb(179,145,0)" fill-opacity="1" d=" M63.02199935913086,152.4499969482422 C63.02199935913086,156.8679962158203 59.18899917602539,160.4499969482422 54.46099853515625,160.4499969482422 C49.733001708984375,160.4499969482422 45.900001525878906,156.8679962158203 45.900001525878906,152.4499969482422 C45.900001525878906,148.03199768066406 49.733001708984375,144.4499969482422 54.46099853515625,144.4499969482422 C59.18899917602539,144.4499969482422 63.02199935913086,148.03199768066406 63.02199935913086,152.4499969482422z"></path><path stroke-linecap="round" stroke-linejoin="round" fill-opacity="0" stroke="rgb(207,194,63)" stroke-opacity="1" stroke-width="5" d=" M63.02199935913086,152.4499969482422 C63.02199935913086,156.8679962158203 59.18899917602539,160.4499969482422 54.46099853515625,160.4499969482422 C49.733001708984375,160.4499969482422 45.900001525878906,156.8679962158203 45.900001525878906,152.4499969482422 C45.900001525878906,148.03199768066406 49.733001708984375,144.4499969482422 54.46099853515625,144.4499969482422 C59.18899917602539,144.4499969482422 63.02199935913086,148.03199768066406 63.02199935913086,152.4499969482422z"></path></g></g><g style="display: block;" transform="matrix(1,0,0,1,264,256)" opacity="1"><g opacity="1" transform="matrix(1,0,0,1,0,0)"><g opacity="1" transform="matrix(1,0,0,1,0,0)"><path fill="rgb(255,205,0)" fill-opacity="1" d=" M-103.29900360107422,-27.18600082397461 C-120.91500091552734,-56.99800109863281 -151.31100463867188,-55.81800079345703 -151.31100463867188,-55.81800079345703 C-151.31100463867188,-38.4900016784668 -127.51699829101562,21.959999084472656 -99.87899780273438,12.27299976348877"></path></g><g opacity="1" transform="matrix(1,0,0,1,0,0)"><path fill="rgb(255,170,0)" fill-opacity="1" d=" M-99.87999725341797,12.269000053405762 C-106.05000305175781,14.428999900817871 -114.0199966430664,11.098999977111816 -119.58999633789062,7.5289998054504395 C-103.83599853515625,-51.32400131225586 -151.30999755859375,-52.82099914550781 -151.30999755859375,-52.82099914550781 C-151.30999755859375,-52.82099914550781 -120.91000366210938,-57.000999450683594 -103.30000305175781,-27.19099998474121 C-96.34300231933594,-14.572999954223633 -95.28500366210938,-1.4119999408721924 -99.87999725341797,12.269000053405762z"></path></g><g opacity="1" transform="matrix(1,0,0,1,0,0)"><path stroke-linecap="round" stroke-linejoin="round" fill-opacity="0" stroke="rgb(220,109,0)" stroke-opacity="1" stroke-width="8" d=" M-103.29900360107422,-27.18600082397461 C-120.91500091552734,-56.99800109863281 -151.31100463867188,-55.81800079345703 -151.31100463867188,-55.81800079345703 C-151.31100463867188,-38.4900016784668 -127.51699829101562,21.959999084472656 -99.87899780273438,12.27299976348877"></path></g></g></g><g style="display: block;" transform="matrix(1,0,0,1,264,256)" opacity="1"><g opacity="1" transform="matrix(1,0,0,1,0,0)"><g opacity="1" transform="matrix(1,0,0,1,0,0)"><path fill="rgb(255,205,0)" fill-opacity="1" d=" M111.46900177001953,-27.18600082397461 C129.0850067138672,-56.99800109863281 159.4810028076172,-55.81800079345703 159.4810028076172,-55.81800079345703 C159.4810028076172,-38.4900016784668 135.68800354003906,21.959999084472656 108.05000305175781,12.27299976348877"></path></g><g opacity="1" transform="matrix(1,0,0,1,0,0)"><path fill="rgb(255,170,0)" fill-opacity="1" d=" M106.87699890136719,12.692999839782715 C113.0469970703125,14.852999687194824 121.01699829101562,12.52299976348877 126.58699798583984,8.95300006866455 C110.83300018310547,-49.900001525878906 158.3070068359375,-52.39699935913086 158.3070068359375,-52.39699935913086 C158.3070068359375,-52.39699935913086 127.90699768066406,-56.57699966430664 110.2969970703125,-26.767000198364258 C100.26399993896484,-14.428000450134277 102.0009994506836,-1.0110000371932983 106.87699890136719,12.692999839782715z"></path></g><g opacity="1" transform="matrix(1,0,0,1,0,0)"><path stroke-linecap="round" stroke-linejoin="round" fill-opacity="0" stroke="rgb(220,109,0)" stroke-opacity="1" stroke-width="8" d=" M111.46900177001953,-27.18600082397461 C129.0850067138672,-56.99800109863281 159.4810028076172,-55.81800079345703 159.4810028076172,-55.81800079345703 C159.4810028076172,-38.4900016784668 135.68800354003906,21.959999084472656 108.05000305175781,12.27299976348877"></path></g></g></g><g style="display: block;" transform="matrix(1,0,0,1,264,256)" opacity="1"><g opacity="1" transform="matrix(1,0,0,1,0,0)"><path fill="rgb(255,185,0)" fill-opacity="1" d=" M91.1969985961914,-145.1219940185547 C70.73699951171875,-174.30799865722656 -64.14700317382812,-174.30799865722656 -84.60700225830078,-145.1219940185547 C-105.06700134277344,-115.93699645996094 -122.11699676513672,-1.5299999713897705 -95.40499877929688,55.67399978637695 C-68.69400024414062,112.87799835205078 -23.56599998474121,128.9720001220703 3.2950000762939453,128.9720001220703 C30.1560001373291,128.9720001220703 75.28299713134766,112.87799835205078 101.99500274658203,55.67399978637695 C128.70599365234375,-1.5299999713897705 111.65699768066406,-115.93699645996094 91.1969985961914,-145.1219940185547z"></path></g><g opacity="1" transform="matrix(1,0,0,1,0,0)"><path fill="rgb(255,205,0)" fill-opacity="1" d=" M85.45899963378906,-147.72000122070312 C66.33399963378906,-174.80299377441406 -59.744998931884766,-174.80299377441406 -78.86900329589844,-147.72000122070312 C-97.99400329589844,-120.63700103759766 -113.93099975585938,-14.472000122070312 -88.96299743652344,38.611000061035156 C-63.994998931884766,91.69300079345703 -21.812999725341797,107.62300109863281 3.2950000762939453,107.62300109863281 C28.402999877929688,107.62300109863281 70.58499908447266,91.69300079345703 95.5530014038086,38.611000061035156 C120.52100372314453,-14.472000122070312 104.58300018310547,-120.63700103759766 85.45899963378906,-147.72000122070312z"></path></g><g opacity="1" transform="matrix(1,0,0,1,0,0)"><path stroke-linecap="round" stroke-linejoin="round" fill-opacity="0" stroke="rgb(220,109,0)" stroke-opacity="1" stroke-width="8" d=" M91.1969985961914,-145.1219940185547 C70.73699951171875,-174.30799865722656 -64.14700317382812,-174.30799865722656 -84.60700225830078,-145.1219940185547 C-105.06700134277344,-115.93699645996094 -122.11699676513672,-1.5299999713897705 -95.40499877929688,55.67399978637695 C-68.69400024414062,112.87799835205078 -23.56599998474121,127.97200012207031 3.2950000762939453,127.97200012207031 C30.1560001373291,127.97200012207031 75.28299713134766,112.87799835205078 101.99500274658203,55.67399978637695 C128.70599365234375,-1.5299999713897705 111.65699768066406,-115.93699645996094 91.1969985961914,-145.1219940185547z"></path></g></g><g style="display: block;" transform="matrix(1,0,0,1,264,256)" opacity="1"><g opacity="1" transform="matrix(1,0,0,1,0,0)"><path fill="rgb(220,119,0)" fill-opacity="1" d=" M21.802000045776367,30.38800048828125 C21.802000045776367,37.83100128173828 13.522000312805176,43.8650016784668 3.309000015258789,43.8650016784668 C-6.9039998054504395,43.8650016784668 -15.182999610900879,37.83100128173828 -15.182999610900879,30.38800048828125 C-15.182999610900879,22.94499969482422 -6.9039998054504395,17.229000091552734 3.309000015258789,17.229000091552734 C13.522000312805176,17.229000091552734 21.802000045776367,22.94499969482422 21.802000045776367,30.38800048828125z"></path></g><g opacity="1" transform="matrix(1,0,0,1,0,0)"><path fill="rgb(255,205,0)" fill-opacity="1" d=" M19.30699920654297,26.135000228881836 C19.30699920654297,31.676000595092773 12.144000053405762,36.16699981689453 3.309000015258789,36.16699981689453 C-5.526000022888184,36.16699981689453 -12.687999725341797,31.676000595092773 -12.687999725341797,26.135000228881836 C-12.687999725341797,20.5939998626709 -5.526000022888184,17.011999130249023 3.309000015258789,17.011999130249023 C12.144000053405762,17.011999130249023 19.30699920654297,20.5939998626709 19.30699920654297,26.135000228881836z"></path></g><g opacity="1" transform="matrix(1,0,0,1,0,0)"><path fill="rgb(255,224,112)" fill-opacity="1" d=" M11.550999641418457,21.429000854492188 C11.550999641418457,23.94099998474121 7.861000061035156,26.304000854492188 3.309000015258789,26.304000854492188 C-1.2430000305175781,26.304000854492188 -4.933000087738037,23.94099998474121 -4.933000087738037,21.429000854492188 C-4.933000087738037,18.91699981689453 -1.2430000305175781,17.6560001373291 3.309000015258789,17.6560001373291 C7.861000061035156,17.6560001373291 11.550999641418457,18.91699981689453 11.550999641418457,21.429000854492188z"></path></g></g><g style="display: block;" transform="matrix(1.000029444694519,0.0010472288122400641,-0.0010471659479662776,0.999969482421875,263.9696960449219,256.04962158203125)" opacity="1"><g opacity="1" transform="matrix(1,0,0,1,0,0)"><g opacity="1" transform="matrix(1,0,0,1,0,0)"><path fill="rgb(255,245,201)" fill-opacity="1" d=" M-20.84600067138672,-9.645000457763672 C-20.84600067138672,-9.645000457763672 -20.836000442504883,-41.36000061035156 -46.922000885009766,-44.54899978637695 C-76.80899810791016,-48.20199966430664 -80.68299865722656,-13.741999626159668 -80.68299865722656,-13.741999626159668 C-80.68299865722656,-13.741999626159668 -73.03500366210938,-1.6419999599456787 -55.63600158691406,0.39500001072883606 C-32.020999908447266,3.1600000858306885 -20.84600067138672,-9.645000457763672 -20.84600067138672,-9.645000457763672z"></path></g><g opacity="1" transform="matrix(1,0,0,1,0.9670000076293945,0.17599999904632568)"><g opacity="1" transform="matrix(1,0,0,1,0,0)"><path fill="url(#__lottie_element_3457)" fill-opacity="1" d=" M-30.422000885009766,-21.464000701904297 C-30.422000885009766,-10.618000030517578 -38.71900177001953,-1.8259999752044678 -48.95399856567383,-1.8259999752044678 C-59.18899917602539,-1.8259999752044678 -67.48600006103516,-10.618000030517578 -67.48600006103516,-21.464000701904297 C-67.48600006103516,-32.310001373291016 -59.18899917602539,-41.10300064086914 -48.95399856567383,-41.10300064086914 C-38.71900177001953,-41.10300064086914 -30.422000885009766,-32.310001373291016 -30.422000885009766,-21.464000701904297z"></path></g><g opacity="1" transform="matrix(1,0,0,1,0,0)"><path fill="rgb(24,19,9)" fill-opacity="1" d=" M-37.242000579833984,-21.464000701904297 C-37.242000579833984,-14.609000205993652 -42.486000061035156,-9.053000450134277 -48.95399856567383,-9.053000450134277 C-55.422000885009766,-9.053000450134277 -60.66600036621094,-14.609000205993652 -60.66600036621094,-21.464000701904297 C-60.66600036621094,-28.319000244140625 -55.422000885009766,-33.875999450683594 -48.95399856567383,-33.875999450683594 C-42.486000061035156,-33.875999450683594 -37.242000579833984,-28.319000244140625 -37.242000579833984,-21.464000701904297z"></path></g><g opacity="1" transform="matrix(1,0,0,1,0,0)"><path fill="rgb(243,243,243)" fill-opacity="1" d=" M-49.992000579833984,-32.16600036621094 C-49.992000579833984,-29.562999725341797 -51.98400115966797,-27.452999114990234 -54.439998626708984,-27.452999114990234 C-56.895999908447266,-27.452999114990234 -58.887001037597656,-29.562999725341797 -58.887001037597656,-32.16600036621094 C-58.887001037597656,-34.76900100708008 -56.895999908447266,-36.880001068115234 -54.439998626708984,-36.880001068115234 C-51.98400115966797,-36.880001068115234 -49.992000579833984,-34.76900100708008 -49.992000579833984,-32.16600036621094z"></path></g><g opacity="1" transform="matrix(1,0,0,1,0,0)"><path stroke-linecap="round" stroke-linejoin="round" fill-opacity="0" stroke="rgb(255,0,0)" stroke-opacity="1" stroke-width="3.5" d=" M-35.24100112915039,-15.916999816894531 C-36.61800003051758,-11.567000389099121 -39.91299819946289,-8.149999618530273 -44.0620002746582,-6.794000148773193"></path></g></g><g opacity="1" transform="matrix(1,0,0,1,0,0)"><path fill="rgb(255,205,0)" fill-opacity="1" d=" M-80.68299865722656,-15.916999816894531 C-80.68299865722656,-15.916999816894531 -79.02799987792969,-43.96500015258789 -50.763999938964844,-44.816001892089844 C-22.5,-45.66699981689453 -20,-10.166999816894531 -20,-10.166999816894531 C-20,-10.166999816894531 4.083000183105469,-56.555999755859375 -45.16699981689453,-61.104000091552734 C-94.41699981689453,-65.6520004272461 -80.68299865722656,-15.916999816894531 -80.68299865722656,-15.916999816894531z"></path></g><g opacity="1" transform="matrix(-1,0,0,-1,-102.19999694824219,-42.290000915527344)"><path fill="rgb(255,205,0)" fill-opacity="1" d=" M-84.52200317382812,-27.674999237060547 C-84.52200317382812,-27.674999237060547 -79.45999908447266,-44.64500045776367 -51.194000244140625,-43.840999603271484 C-20.591999053955078,-42.97100067138672 -15.303000450134277,-16.684999465942383 -15.303000450134277,-16.684999465942383 C-15.303000450134277,-16.684999465942383 -7.250999927520752,-58.45000076293945 -45.16699981689453,-61.104000091552734 C-82.95899963378906,-63.75 -84.52200317382812,-27.674999237060547 -84.52200317382812,-27.674999237060547z"></path></g><g opacity="1" transform="matrix(1,0,0,1,0,0)"><path fill="rgb(142,58,0)" fill-opacity="1" d=" M-22.115999221801758,-19.378999710083008 C-22.115999221801758,-19.378999710083008 -27.972999572753906,-43.97700119018555 -50.11199951171875,-44.24100112915039 C-71.2969970703125,-44.49399948120117 -78.27200317382812,-24.400999069213867 -78.27200317382812,-24.400999069213867 C-78.27200317382812,-24.400999069213867 -71.26899719238281,-46.7869987487793 -48.35900115966797,-45.5620002746582 C-28.243000030517578,-44.486000061035156 -22.115999221801758,-19.378999710083008 -22.115999221801758,-19.378999710083008z"></path><path stroke-linecap="round" stroke-linejoin="round" fill-opacity="0" stroke="rgb(142,58,0)" stroke-opacity="1" stroke-width="2" d=" M-22.115999221801758,-19.378999710083008 C-22.115999221801758,-19.378999710083008 -27.972999572753906,-43.97700119018555 -50.11199951171875,-44.24100112915039 C-71.2969970703125,-44.49399948120117 -78.27200317382812,-24.400999069213867 -78.27200317382812,-24.400999069213867 C-78.27200317382812,-24.400999069213867 -71.26899719238281,-46.7869987487793 -48.35900115966797,-45.5620002746582 C-28.243000030517578,-44.486000061035156 -22.115999221801758,-19.378999710083008 -22.115999221801758,-19.378999710083008z"></path></g></g></g><g style="display: block;" transform="matrix(1.000029444694519,0.0010472288122400641,-0.0010471659479662776,0.999969482421875,263.9665832519531,255.93759155273438)" opacity="1"><g opacity="1" transform="matrix(1,0,0,1,0,0)"><g opacity="1" transform="matrix(1,0,0,1,0,0)"><path fill="rgb(255,245,201)" fill-opacity="1" d=" M28.389999389648438,-9.645000457763672 C28.389999389648438,-9.645000457763672 28.3799991607666,-41.36000061035156 54.465999603271484,-44.54899978637695 C84.35299682617188,-48.20199966430664 88.22799682617188,-13.741999626159668 88.22799682617188,-13.741999626159668 C88.22799682617188,-13.741999626159668 80.5790023803711,-1.6419999599456787 63.18000030517578,0.39500001072883606 C39.564998626708984,3.1600000858306885 28.389999389648438,-9.645000457763672 28.389999389648438,-9.645000457763672z"></path></g><g opacity="1" transform="matrix(1,0,0,1,0,0)"><g opacity="1" transform="matrix(1,0,0,1,0,0)"><path fill="url(#__lottie_element_3453)" fill-opacity="1" d=" M75.2699966430664,-21.464000701904297 C75.2699966430664,-10.618000030517578 66.9729995727539,-1.8259999752044678 56.737998962402344,-1.8259999752044678 C46.50299835205078,-1.8259999752044678 38.207000732421875,-10.618000030517578 38.207000732421875,-21.464000701904297 C38.207000732421875,-32.310001373291016 46.50299835205078,-41.10300064086914 56.737998962402344,-41.10300064086914 C66.9729995727539,-41.10300064086914 75.2699966430664,-32.310001373291016 75.2699966430664,-21.464000701904297z"></path></g><g opacity="1" transform="matrix(1,0,0,1,0,0)"><path fill="rgb(24,19,9)" fill-opacity="1" d=" M68.44999694824219,-21.464000701904297 C68.44999694824219,-14.609000205993652 63.20600128173828,-9.053000450134277 56.737998962402344,-9.053000450134277 C50.27000045776367,-9.053000450134277 45.0260009765625,-14.609000205993652 45.0260009765625,-21.464000701904297 C45.0260009765625,-28.319000244140625 50.27000045776367,-33.875999450683594 56.737998962402344,-33.875999450683594 C63.20600128173828,-33.875999450683594 68.44999694824219,-28.319000244140625 68.44999694824219,-21.464000701904297z"></path></g><g opacity="1" transform="matrix(1,0,0,1,0,0)"><path fill="rgb(243,243,243)" fill-opacity="1" d=" M55.70000076293945,-32.16600036621094 C55.70000076293945,-29.562999725341797 53.70899963378906,-27.452999114990234 51.25299835205078,-27.452999114990234 C48.797000885009766,-27.452999114990234 46.80500030517578,-29.562999725341797 46.80500030517578,-32.16600036621094 C46.80500030517578,-34.76900100708008 48.797000885009766,-36.880001068115234 51.25299835205078,-36.880001068115234 C53.70899963378906,-36.880001068115234 55.70000076293945,-34.76900100708008 55.70000076293945,-32.16600036621094z"></path></g><g opacity="1" transform="matrix(1,0,0,1,0,0)"><path stroke-linecap="round" stroke-linejoin="round" fill-opacity="0" stroke="rgb(255,0,0)" stroke-opacity="1" stroke-width="3.5" d=" M70.4520034790039,-15.916999816894531 C69.07499694824219,-11.567000389099121 65.77899932861328,-8.149999618530273 61.63100051879883,-6.794000148773193"></path></g></g><g opacity="1" transform="matrix(1,0,0,1,0,0)"><path fill="rgb(255,205,0)" fill-opacity="1" d=" M28.395999908447266,-12.331000328063965 C28.395999908447266,-12.331000328063965 26.82200050354004,-40.38399887084961 54.801998138427734,-44.47100067138672 C82.78199768066406,-48.55799865722656 89.33899688720703,-13.579999923706055 89.33899688720703,-13.579999923706055 C89.33899688720703,-13.579999923706055 107.94200134277344,-62.42499923706055 58.494998931884766,-61.29399871826172 C9.04800033569336,-60.16299819946289 28.395999908447266,-12.331000328063965 28.395999908447266,-12.331000328063965z"></path></g><g opacity="1" transform="matrix(-1,0,0,-1,115.95600128173828,-38.12300109863281)"><path fill="rgb(255,205,0)" fill-opacity="1" d=" M24.690000534057617,-18.007999420166016 C24.690000534057617,-18.007999420166016 28.540000915527344,-36.87699890136719 55.36399841308594,-39.36600112915039 C83.65899658203125,-41.992000579833984 95.34600067138672,-19.06999969482422 95.34600067138672,-19.06999969482422 C95.34600067138672,-19.06999969482422 96.64199829101562,-60.959999084472656 54.60200119018555,-57.78900146484375 C11.60200023651123,-54.54600143432617 24.690000534057617,-18.007999420166016 24.690000534057617,-18.007999420166016z"></path></g><g opacity="1" transform="matrix(1,0,0,1,0,0)"><path fill="rgb(142,58,0)" fill-opacity="1" d=" M29.65999984741211,-19.378999710083008 C29.65999984741211,-19.378999710083008 35.518001556396484,-43.97700119018555 57.65700149536133,-44.24100112915039 C78.84200286865234,-44.49399948120117 85.81700134277344,-24.400999069213867 85.81700134277344,-24.400999069213867 C85.81700134277344,-24.400999069213867 78.81300354003906,-46.7869987487793 55.90299987792969,-45.5620002746582 C35.7869987487793,-44.486000061035156 29.65999984741211,-19.378999710083008 29.65999984741211,-19.378999710083008z"></path><path stroke-linecap="round" stroke-linejoin="round" fill-opacity="0" stroke="rgb(142,58,0)" stroke-opacity="1" stroke-width="2" d=" M29.65999984741211,-19.378999710083008 C29.65999984741211,-19.378999710083008 35.518001556396484,-43.97700119018555 57.65700149536133,-44.24100112915039 C78.84200286865234,-44.49399948120117 85.81700134277344,-24.400999069213867 85.81700134277344,-24.400999069213867 C85.81700134277344,-24.400999069213867 78.81300354003906,-46.7869987487793 55.90299987792969,-45.5620002746582 C35.7869987487793,-44.486000061035156 29.65999984741211,-19.378999710083008 29.65999984741211,-19.378999710083008z"></path></g></g></g><g style="display: block;" transform="matrix(1,0,0,1,264,256)" opacity="1"><g opacity="1" transform="matrix(1,0,0,1,0,0)"><path stroke-linecap="round" stroke-linejoin="round" fill-opacity="0" stroke="rgb(0,0,0)" stroke-opacity="1" stroke-width="13" d=" M-35.65399932861328,-63.26100158691406 C-35.65399932861328,-63.26100158691406 -54.323001861572266,-65.91899871826172 -68.1050033569336,-58.48500061035156"></path></g><g opacity="1" transform="matrix(1,0,0,1,0,0)"><path stroke-linecap="round" stroke-linejoin="round" fill-opacity="0" stroke="rgb(0,0,0)" stroke-opacity="1" stroke-width="13" d=" M44.08300018310547,-63.26100158691406 C44.08300018310547,-63.26100158691406 62.75199890136719,-65.91899871826172 76.53399658203125,-58.48500061035156"></path></g></g><g style="display: block;" transform="matrix(1,0,0,1,264,256)" opacity="1"><g opacity="0" transform="matrix(1,0,0,1,0,0)"><path fill="rgb(221,4,4)" fill-opacity="1" d=" M22.834999084472656,69.29499816894531 C22.05500030517578,74 25.756999969482422,63.573001861572266 29.906999588012695,67.45600128173828 C32.266998291015625,69.66400146484375 33.8849983215332,69.23300170898438 36.6870002746582,66.72799682617188 C39.446998596191406,64.26000213623047 42.4119987487793,64.71700286865234 42.40700149536133,61.79199981689453 C42.395999908447266,55.46099853515625 44.75199890136719,54.777000427246094 41.667999267578125,55.41299819946289 C40.33100128173828,55.68899917602539 23.17099952697754,67.26799774169922 22.834999084472656,69.29499816894531z"></path></g><g opacity="1" transform="matrix(1,0,0,1,0,0)"><path fill="rgb(255,170,0)" fill-opacity="1" d=" M2.7330000400543213,81.55400085449219 C-7.980999946594238,81.55400085449219 -15.515000343322754,76.8489990234375 -19.565000534057617,73.447998046875 C-19.565000534057617,73.447998046875 -19.34000015258789,85.08000183105469 -19.34000015258789,85.08000183105469 C-12.508999824523926,85.08000183105469 -7.504000186920166,90.3740005493164 3.2950000762939453,90.3740005493164 C13.545000076293945,90.3740005493164 19.44499969482422,85.08000183105469 25.93000030517578,85.08000183105469 C25.93000030517578,85.08000183105469 26.232999801635742,73.447998046875 26.232999801635742,73.447998046875 C22.174999237060547,76.8489990234375 14.447999954223633,81.55400085449219 2.7330000400543213,81.55400085449219z"></path></g><g opacity="1" transform="matrix(1,0,0,1,0,0)"><path fill="rgb(38,13,4)" fill-opacity="1" d=" M40.31700134277344,58.05699920654297 C40.31700134277344,54.78900146484375 29.674999237060547,55.1150016784668 3.302000045776367,55.11600112915039 C-23.07200050354004,55.1150016784668 -33.7130012512207,54.78900146484375 -33.7130012512207,58.05699920654297 C-33.7130012512207,59.94300079345703 -18.4060001373291,75.27400207519531 3.2950000762939453,75.27400207519531 C24.996000289916992,75.27400207519531 40.31700134277344,59.944000244140625 40.31700134277344,58.05699920654297z"></path></g><g opacity="0" transform="matrix(1,0,0,1,-1.0970001220703125,-11.16400146484375)"><g opacity="1" transform="matrix(1,0,0,1,0,0)"><path fill="rgb(255,100,156)" fill-opacity="1" d=" M29.77400016784668,76.65599822998047 C27.92799949645996,79.90699768066406 18.667999267578125,82.7509994506836 3.256999969482422,82.73600006103516 C-0.7009999752044678,82.73200225830078 -11.206000328063965,81.82599639892578 -12.553999900817871,76.76899719238281 C-3.010999917984009,78.91300201416016 3.1540000438690186,79.06600189208984 3.1540000438690186,79.06600189208984 C15.045000076293945,78.7760009765625 22.784000396728516,75.1500015258789 29.77400016784668,76.65599822998047z"></path><path stroke-linecap="round" stroke-linejoin="round" fill-opacity="0" stroke="rgb(213,0,87)" stroke-opacity="1" stroke-width="6" d=" M29.77400016784668,76.65599822998047 C27.92799949645996,79.90699768066406 18.667999267578125,82.7509994506836 3.256999969482422,82.73600006103516 C-0.7009999752044678,82.73200225830078 -11.206000328063965,81.82599639892578 -12.553999900817871,76.76899719238281 C-3.010999917984009,78.91300201416016 3.1540000438690186,79.06600189208984 3.1540000438690186,79.06600189208984 C15.045000076293945,78.7760009765625 22.784000396728516,75.1500015258789 29.77400016784668,76.65599822998047z"></path></g><g opacity="1" transform="matrix(1,0,0,1,0,0)"><path stroke-linecap="round" stroke-linejoin="round" fill-opacity="0" stroke="rgb(213,0,87)" stroke-opacity="1" stroke-width="6" d=" M3.631999969482422,79.96900177001953 C3.631999969482422,79.96900177001953 3.7860000133514404,81.71900177001953 3.7860000133514404,81.71900177001953"></path></g></g><g opacity="1" transform="matrix(1,0,0,1,0,0)"><g opacity="1" transform="matrix(1,0,0,1,0,0)"><g opacity="1" transform="matrix(1,0,0,1,0,0)"><path fill="rgb(229,239,249)" fill-opacity="1" d=" M-19.42300033569336,85.98799896240234 C-20.687999725341797,81.92400360107422 -23.988000869750977,61.17499923706055 -23.988000869750977,61.125 C-23.988000869750977,57.375 -13.062000274658203,56.0359992980957 -12.746000289916992,59.75 C-12.739999771118164,59.82400131225586 -15.968000411987305,82.9000015258789 -17.64900016784668,86.33799743652344 C-17.874000549316406,86.7969970703125 -19.07200050354004,87.11599731445312 -19.42300033569336,85.98799896240234z"></path><path stroke-linecap="butt" stroke-linejoin="miter" fill-opacity="0" stroke-miterlimit="10" stroke="rgb(180,184,193)" stroke-opacity="1" stroke-width="2" d=" M-19.42300033569336,85.98799896240234 C-20.687999725341797,81.92400360107422 -23.988000869750977,61.17499923706055 -23.988000869750977,61.125 C-23.988000869750977,57.375 -13.062000274658203,56.0359992980957 -12.746000289916992,59.75 C-12.739999771118164,59.82400131225586 -15.968000411987305,82.9000015258789 -17.64900016784668,86.33799743652344 C-17.874000549316406,86.7969970703125 -19.07200050354004,87.11599731445312 -19.42300033569336,85.98799896240234z"></path></g></g><g opacity="1" transform="matrix(1,0,0,1,0,0)"><g opacity="1" transform="matrix(1,0,0,1,0,0)"><path fill="rgb(229,239,249)" fill-opacity="1" d=" M26.051000595092773,85.98799896240234 C27.31599998474121,81.92400360107422 30.617000579833984,61.17499923706055 30.617000579833984,61.125 C30.617000579833984,57.375 19.69099998474121,56.0359992980957 19.375,59.75 C19.368999481201172,59.82400131225586 22.597000122070312,82.9000015258789 24.277999877929688,86.33799743652344 C24.503000259399414,86.7969970703125 25.700000762939453,87.11599731445312 26.051000595092773,85.98799896240234z"></path><path stroke-linecap="butt" stroke-linejoin="miter" fill-opacity="0" stroke-miterlimit="10" stroke="rgb(180,184,193)" stroke-opacity="1" stroke-width="2" d=" M26.051000595092773,85.98799896240234 C27.31599998474121,81.92400360107422 30.617000579833984,61.17499923706055 30.617000579833984,61.125 C30.617000579833984,57.375 19.69099998474121,56.0359992980957 19.375,59.75 C19.368999481201172,59.82400131225586 22.597000122070312,82.9000015258789 24.277999877929688,86.33799743652344 C24.503000259399414,86.7969970703125 25.700000762939453,87.11599731445312 26.051000595092773,85.98799896240234z"></path></g></g></g></g><g style="display: block;" transform="matrix(1,0,0,1,264,256)" opacity="1"><g opacity="1" transform="matrix(1,0,0,1,0,0)"><path fill="rgb(255,170,0)" fill-opacity="1" d=" M92.76799774169922,-147 C73.64800262451172,-174.0800018310547 24.107999801635742,-180.1699981689453 5.710000038146973,-180.1699981689453 C-12.687999725341797,-180.1699981689453 -63.32400131225586,-175.7469940185547 -82.44400024414062,-148.66700744628906 C-96.29399871826172,-129.0570068359375 -104.9000015258789,-66 -101.08000183105469,-13.640000343322754 C-96.22000122070312,-32.290000915527344 -71.87000274658203,-124.33000183105469 -63.380001068115234,-129.02000427246094 C-53.93000030517578,-134.22999572753906 -15.239999771118164,-112.5199966430664 5.210000038146973,-112.5199966430664 C25.65999984741211,-112.5199966430664 65.3499984741211,-134.22999572753906 74.80000305175781,-129.02000427246094 C83.29000091552734,-124.33000183105469 107.63999938964844,-32.290000915527344 112.5,-13.640000343322754 C116.31999969482422,-66 106.61799621582031,-127.38999938964844 92.76799774169922,-147z"></path></g><g opacity="1" transform="matrix(1,0,0,1,0,0)"><path fill="rgb(41,42,42)" fill-opacity="1" d=" M125.59600067138672,-106.45899963378906 C123.05000305175781,-138.48199462890625 108.80699920654297,-152.73800659179688 103.36199951171875,-157.093994140625 C97.91699981689453,-161.4499969482422 98.20800018310547,-170.99899291992188 85.39399719238281,-181.1820068359375 C65.89199829101562,-196.6790008544922 26.613000869750977,-211.63099670410156 5.715000152587891,-211.63099670410156 C-15.182999610900879,-211.63099670410156 -54.4630012512207,-196.6790008544922 -73.96499633789062,-181.1820068359375 C-86.77899932861328,-170.99899291992188 -86.48799896240234,-161.4499969482422 -91.93299865722656,-157.093994140625 C-97.37799835205078,-152.73800659179688 -111.62100219726562,-138.48199462890625 -114.16699981689453,-106.45899963378906 C-116.072998046875,-82.48400115966797 -97.9219970703125,-54.1510009765625 -88.66600036621094,-94.18900299072266 C-79.41000366210938,-134.2270050048828 -73.13500213623047,-144.57200622558594 -68.1050033569336,-146.2050018310547 C-63.07600021362305,-147.83799743652344 -9.887999534606934,-120.61499786376953 5.715000152587891,-120.61499786376953 C21.31800079345703,-120.61499786376953 74.50499725341797,-147.83799743652344 79.53399658203125,-146.2050018310547 C84.56400299072266,-144.57200622558594 90.83899688720703,-134.2270050048828 100.09500122070312,-94.18900299072266 C109.35099792480469,-54.1510009765625 127.50199890136719,-82.48400115966797 125.59600067138672,-106.45899963378906z"></path></g><g opacity="1" transform="matrix(1,0,0,1,0,0)"><path fill="rgb(56,55,54)" fill-opacity="1" d=" M-83.23999786376953,-115.56999969482422 C-84.93000030517578,-109.61000061035156 -86.73999786376953,-102.55000305175781 -88.66999816894531,-94.19000244140625 C-97.91999816894531,-54.150001525878906 -116.53299713134766,-74.68699645996094 -114.63300323486328,-98.66699981689453 C-114.24299621582031,-103.58699798583984 -113.11000061035156,-115.87000274658203 -112.25,-119.9800033569336 C-112.25,-119.9800033569336 -102.38999938964844,-112.63999938964844 -83.23999786376953,-115.56999969482422z"></path></g><g opacity="1" transform="matrix(1,0,0,1,0,0)"><path fill="rgb(110,108,105)" fill-opacity="1" d=" M-89.16000366210938,-92.0199966430664 C-98.05999755859375,-52.619998931884766 -101.93000030517578,-11.359999656677246 -101.93000030517578,-11.359999656677246 C-110.69999694824219,-34.7400016784668 -114.76000213623047,-69.5199966430664 -114.62999725341797,-94.19000244140625 C-114.23999786376953,-94.02999877929688 -104.1500015258789,-90.05999755859375 -89.16000366210938,-92.0199966430664z"></path></g><g opacity="1" transform="matrix(1,0,0,1,0,0)"><path fill="rgb(166,161,155)" fill-opacity="1" d=" M-97.3239974975586,-47.77199935913086 C-96.33300018310547,-54.36199951171875 -95.1760025024414,-61.49599838256836 -93.83999633789062,-68.87999725341797 C-104.41999816894531,-66.29000091552734 -113.19999694824219,-69.72000122070312 -113.5999984741211,-69.87000274658203 C-112.99099731445312,-62.64699935913086 -112.10399627685547,-55.194000244140625 -110.94100189208984,-47.8489990234375 C-107.5250015258789,-47.61000061035156 -102.36100006103516,-47.4010009765625 -97.3239974975586,-47.77199935913086z"></path></g><g opacity="1" transform="matrix(1,0,0,1,0,0)"><path fill="rgb(56,55,54)" fill-opacity="1" d=" M94.3479995727539,-115.56999969482422 C96.03800201416016,-109.61000061035156 97.78099822998047,-102.53399658203125 99.77799987792969,-94.19000244140625 C106.16600036621094,-67.5 127.31700134277344,-74.52999877929688 125.41699981689453,-98.51000213623047 C125.0270004272461,-103.43000030517578 123.3479995727539,-119.9800033569336 123.3479995727539,-119.9800033569336 C123.3479995727539,-119.9800033569336 113.49800109863281,-112.63999938964844 94.3479995727539,-115.56999969482422z"></path></g><g opacity="1" transform="matrix(1,0,0,1,0,0)"><path fill="rgb(110,108,105)" fill-opacity="1" d=" M100.26799774169922,-92.0199966430664 C109.16799926757812,-52.619998931884766 113.03800201416016,-11.359999656677246 113.03800201416016,-11.359999656677246 C121.80799865722656,-34.7400016784668 125.86799621582031,-69.5199966430664 125.73799896240234,-94.19000244140625 C125.3479995727539,-94.02999877929688 115.25800323486328,-90.05999755859375 100.26799774169922,-92.0199966430664z"></path></g><g opacity="1" transform="matrix(1,0,0,1,0,0)"><path fill="rgb(166,161,155)" fill-opacity="1" d=" M122.04900360107422,-47.847999572753906 C123.21299743652344,-55.19300079345703 124.0999984741211,-62.645999908447266 124.70899963378906,-69.87000274658203 C124.30899810791016,-69.72000122070312 115.52899932861328,-66.29000091552734 104.9489974975586,-68.87999725341797 C106.28500366210938,-61.49399948120117 107.44200134277344,-54.36000061035156 108.43299865722656,-47.768001556396484 C113.4800033569336,-47.35900115966797 118.68099975585938,-47.59299850463867 122.04900360107422,-47.847999572753906z"></path></g><g opacity="1" transform="matrix(1,0,0,1,0,0)"><path fill="rgb(65,65,65)" fill-opacity="1" d=" M81.05400085449219,-171.8040008544922 C71.6780014038086,-182.5189971923828 29.424999237060547,-202.843994140625 5.715000152587891,-202.843994140625 C5.715000152587891,-202.843994140625 5.715000152587891,-202.843994140625 5.715000152587891,-202.843994140625 C5.715000152587891,-202.843994140625 5.715000152587891,-202.843994140625 5.715000152587891,-202.843994140625 C5.715000152587891,-202.843994140625 5.715000152587891,-202.843994140625 5.715000152587891,-202.843994140625 C5.715000152587891,-202.843994140625 5.715000152587891,-202.843994140625 5.715000152587891,-202.843994140625 C-17.996000289916992,-202.843994140625 -60.249000549316406,-182.5189971923828 -69.625,-171.8040008544922 C-79.0009994506836,-161.08900451660156 -28.547000885009766,-150.26600646972656 5.715000152587891,-150.26600646972656 C36.65700149536133,-150.26600646972656 90.43000030517578,-161.08900451660156 81.05400085449219,-171.8040008544922z"></path></g><g opacity="0.3" transform="matrix(1,0,0,1,0,0)"><path fill="rgb(9,9,9)" fill-opacity="1" d=" M-67.14800262451172,-150.26600646972656 C-67.14800262451172,-150.26600646972656 -12.524999618530273,-134.47799682617188 5.715000152587891,-134.47799682617188 C23.954999923706055,-134.47799682617188 78.05400085449219,-150.26600646972656 78.05400085449219,-150.26600646972656 C78.05400085449219,-150.26600646972656 29.3439998626709,-120.61499786376953 5.715000152587891,-120.61499786376953 C-17.913999557495117,-120.61499786376953 -67.14800262451172,-150.26600646972656 -67.14800262451172,-150.26600646972656z"></path></g><g opacity="1" transform="matrix(1,0,0,1,0,0)"><path stroke-linecap="round" stroke-linejoin="round" fill-opacity="0" stroke="rgb(0,0,0)" stroke-opacity="1" stroke-width="8" d=" M124.59600067138672,-106.45899963378906 C122.05000305175781,-138.48199462890625 108.80699920654297,-152.73800659179688 103.36199951171875,-157.093994140625 C97.91699981689453,-161.4499969482422 98.20800018310547,-170.99899291992188 85.39399719238281,-181.1820068359375 C65.89199829101562,-196.6790008544922 26.613000869750977,-211.63099670410156 5.715000152587891,-211.63099670410156 C-15.182999610900879,-211.63099670410156 -54.4630012512207,-196.6790008544922 -73.96499633789062,-181.1820068359375 C-86.77899932861328,-170.99899291992188 -86.48799896240234,-161.4499969482422 -91.93299865722656,-157.093994140625 C-97.37799835205078,-152.73800659179688 -110.62100219726562,-138.48199462890625 -113.16699981689453,-106.45899963378906 C-115.072998046875,-82.48400115966797 -112.29000091552734,-38.972999572753906 -101.9280014038086,-11.354999542236328 C-101.9280014038086,-11.354999542236328 -97.9219970703125,-54.1510009765625 -88.66600036621094,-94.18900299072266 C-79.41000366210938,-134.2270050048828 -73.13500213623047,-144.57200622558594 -68.1050033569336,-146.2050018310547 C-63.07600021362305,-147.83799743652344 -9.887999534606934,-120.61499786376953 5.715000152587891,-120.61499786376953 C21.31800079345703,-120.61499786376953 74.50499725341797,-147.83799743652344 79.53399658203125,-146.2050018310547 C84.56400299072266,-144.57200622558594 90.83899688720703,-134.2270050048828 100.09500122070312,-94.18900299072266 C109.35099792480469,-54.1510009765625 113.35700225830078,-11.354999542236328 113.35700225830078,-11.354999542236328 C123.71900177001953,-38.972999572753906 126.50199890136719,-82.48400115966797 124.59600067138672,-106.45899963378906z"></path></g></g><g style="display: block;" transform="matrix(1,0,0,1,264,256)" opacity="1"><g opacity="1" transform="matrix(1,0,0,1,0,0)"><path stroke-linecap="round" stroke-linejoin="round" fill-opacity="0" stroke="rgb(255,255,255)" stroke-opacity="1" stroke-width="6" d=" M38.0880012512207,-194.35899353027344 C39.62099838256836,-193.81500244140625 41.20800018310547,-193.22900390625 42.840999603271484,-192.60000610351562"></path></g><g opacity="1" transform="matrix(1,0,0,1,0,0)"><path stroke-linecap="round" stroke-linejoin="round" fill-opacity="0" stroke="rgb(255,255,255)" stroke-opacity="1" stroke-width="6" d=" M16.610000610351562,-200.51600646972656 C16.610000610351562,-200.51600646972656 21.56999969482422,-199.5749969482422 29.32200050354004,-197.23699951171875"></path></g></g><g style="display: none;"><g><path stroke-linecap="round" stroke-linejoin="round" fill-opacity="0"></path></g><g><g><path stroke-linecap="round" stroke-linejoin="round" fill-opacity="0"></path></g><g><path stroke-linecap="round" stroke-linejoin="round" fill-opacity="0"></path></g></g></g><g style="display: none;"><g><path></path></g><g><path></path></g><g><g><path></path><path stroke-linecap="round" stroke-linejoin="round" fill-opacity="0"></path></g><g><path stroke-linecap="round" stroke-linejoin="round" fill-opacity="0"></path></g></g><g><g><g><path></path><path stroke-linecap="round" stroke-linejoin="round" fill-opacity="0"></path></g></g></g><g><g><g><path></path><path stroke-linecap="round" stroke-linejoin="round" fill-opacity="0"></path></g></g></g><g><path stroke-linecap="round" stroke-linejoin="round" fill-opacity="0"></path></g><g><g><g><path></path><path stroke-linecap="round" stroke-linejoin="round" fill-opacity="0"></path></g></g></g></g></g></svg>