<svg xmlns="http://www.w3.org/2000/svg" viewBox="0 0 512 512" width="512" height="512" style="width: 100%; height: 100%; transform: translate3d(0,0,0);" preserveAspectRatio="xMidYMid meet"><defs><clipPath id="__lottie_element_3616"><rect width="512" height="512" x="0" y="0"></rect></clipPath></defs><g clip-path="url(#__lottie_element_3616)"><g style="display: block;" transform="matrix(1,0,0,1,284,238)" opacity="1"><g opacity="1" transform="matrix(1,0,0,1,0,0)"><path stroke-linecap="round" stroke-linejoin="round" fill-opacity="0" stroke="rgb(91,51,50)" stroke-opacity="1" stroke-width="8" d=" M-156.2169952392578,-122.68599700927734 C-156.2169952392578,-122.68599700927734 -147.77000427246094,-119.51599884033203 -145.906005859375,-113.0250015258789"></path></g><g opacity="1" transform="matrix(1,0,0,1,0,0)"><path fill="rgb(128,102,77)" fill-opacity="1" d=" M-105.02200317382812,14.173999786376953 C-105.02200317382812,14.173999786376953 -106.0260009765625,-7.965000152587891 -116.47200012207031,-23.132999420166016 C-132.68600463867188,-46.67599868774414 -147.6179962158203,-89.05400085449219 -145.906005859375,-113.0250015258789 C-144.19400024414062,-136.99600219726562 -109.18900299072266,-170.83599853515625 -83.10299682617188,-171.02200317382812 C-73.86100006103516,-171.08799743652344 -66.61499786376953,-87.61799621582031 -73.72799682617188,-57.37799835205078 C-73.72799682617188,-57.37799835205078 -48.736000061035156,-4.997000217437744 -67.57099914550781,44.83000183105469 C-67.57099914550781,44.83000183105469 -105.02200317382812,14.173999786376953 -105.02200317382812,14.173999786376953z"></path></g><g opacity="1" transform="matrix(1,0,0,1,0,0)"><path fill="rgb(111,84,62)" fill-opacity="1" d=" M-143.22900390625,-108.54399871826172 C-143.22900390625,-108.54399871826172 -73.72799682617188,-64.3479995727539 -63.55400085449219,-12.246999740600586 C-63.55400085449219,-12.246999740600586 -60.448001861572266,11.175000190734863 -64.94300079345703,19.95800018310547 C-64.94300079345703,19.95800018310547 -80.5479965209961,-38.66899871826172 -143.22900390625,-108.54399871826172z"></path></g><g opacity="1" transform="matrix(1,0,0,1,0,0)"><path fill="rgb(111,84,62)" fill-opacity="1" d=" M-70.86000061035156,-92.81099700927734 C-70.86000061035156,-92.81099700927734 -78.78800201416016,-115.85600280761719 -143.22900390625,-120.51699829101562 C-143.22900390625,-120.51699829101562 -91.71399688720703,-93.55899810791016 -73.0459976196289,-60.6879997253418 C-73.0459976196289,-60.6879997253418 -70.69100189208984,-82.04499816894531 -70.86000061035156,-92.81099700927734z"></path></g><g opacity="1" transform="matrix(1,0,0,1,0,0)"><path stroke-linecap="round" stroke-linejoin="round" fill-opacity="0" stroke="rgb(98,72,57)" stroke-opacity="1" stroke-width="8" d=" M-144.71499633789062,-117.51699829101562 C-144.71499633789062,-117.51699829101562 -105.02100372314453,-108.54399871826172 -73.72799682617188,-57.37799835205078"></path></g><g opacity="1" transform="matrix(1,0,0,1,0,0)"><path stroke-linecap="round" stroke-linejoin="round" fill-opacity="0" stroke="rgb(98,72,57)" stroke-opacity="1" stroke-width="8" d=" M-145.906005859375,-108.54399871826172 C-145.906005859375,-108.54399871826172 -78.78800201416016,-41.91699981689453 -62.94300079345703,28.784000396728516"></path></g><g opacity="0.1" transform="matrix(1,0,0,1,0,0)"><path fill="rgb(255,255,255)" fill-opacity="1" d=" M-67.56800079345703,44.83300018310547 C-67.56800079345703,44.83300018310547 -69.28800201416016,43.42300033569336 -69.28800201416016,43.42300033569336 C-69.24800109863281,42.472999572753906 -69.30799865722656,41.49700164794922 -69.11799621582031,40.52299880981445 C-58.47600173950195,-14.027000427246094 -82.88800048828125,-59.09700012207031 -82.88800048828125,-59.09700012207031 C-76.77799987792969,-132.01400756835938 -87.43800354003906,-160.11700439453125 -87.43800354003906,-160.11700439453125 C-116.0719985961914,-153.76600646972656 -154.8820037841797,-113.0260009765625 -138.18800354003906,-68.75700378417969 C-138.18800354003906,-68.75700378417969 -146.7480010986328,-101.24700164794922 -145.9080047607422,-113.0270004272461 C-144.197998046875,-136.9969940185547 -109.18800354003906,-170.83700561523438 -83.0979995727539,-171.02699279785156 C-73.85800170898438,-171.08700561523438 -66.61799621582031,-87.61699676513672 -73.72799682617188,-57.37699890136719 C-73.72799682617188,-57.37699890136719 -48.737998962402344,-4.997000217437744 -67.56800079345703,44.83300018310547z"></path></g><g opacity="1" transform="matrix(1,0,0,1,0,0)"><path stroke-linecap="round" stroke-linejoin="round" fill-opacity="0" stroke="rgb(71,50,42)" stroke-opacity="1" stroke-width="8" d=" M-105.02200317382812,14.173999786376953 C-105.02200317382812,14.173999786376953 -106.0260009765625,-7.965000152587891 -116.47200012207031,-23.132999420166016 C-132.68600463867188,-46.67599868774414 -147.6179962158203,-89.05400085449219 -145.906005859375,-113.0250015258789 C-144.19400024414062,-136.99600219726562 -109.18900299072266,-170.83599853515625 -83.10299682617188,-171.02200317382812 C-73.86100006103516,-171.08799743652344 -66.61499786376953,-87.61799621582031 -73.72799682617188,-57.37799835205078 C-73.72799682617188,-57.37799835205078 -48.736000061035156,-4.997000217437744 -67.57099914550781,44.83000183105469"></path></g><g opacity="1" transform="matrix(1,0,0,1,0,0)"><g opacity="1" transform="matrix(1,0,0,1,0,0)"><path stroke-linecap="round" stroke-linejoin="round" fill-opacity="0" stroke="rgb(255,255,255)" stroke-opacity="1" stroke-width="6" d=" M-109.79000091552734,-148.302001953125 C-109.43699645996094,-148.5919952392578 -109.07599639892578,-148.88400268554688 -108.70999908447266,-149.17799377441406"></path></g><g opacity="1" transform="matrix(1,0,0,1,0,0)"><path stroke-linecap="round" stroke-linejoin="round" fill-opacity="0" stroke="rgb(255,255,255)" stroke-opacity="1" stroke-width="6" d=" M-121.43099975585938,-137.4320068359375 C-120.45899963378906,-138.4810028076172 -118.92400360107422,-140.08099365234375 -116.88700103759766,-142.0240020751953"></path></g></g></g><g style="display: none;"><g><path></path></g><g><path></path></g><g><path></path></g><g><g><path stroke-linecap="round" stroke-linejoin="round" fill-opacity="0"></path></g><g><path stroke-linecap="round" stroke-linejoin="round" fill-opacity="0"></path></g></g><g><path></path></g><g><path></path></g><g><path></path></g><g><path></path></g><g><path stroke-linecap="round" stroke-linejoin="round" fill-opacity="0"></path></g><g><path stroke-linecap="round" stroke-linejoin="round" fill-opacity="0"></path></g><g><path></path></g><g><path stroke-linecap="round" stroke-linejoin="round" fill-opacity="0"></path></g><g><path stroke-linecap="round" stroke-linejoin="round" fill-opacity="0"></path></g><g><path stroke-linecap="round" stroke-linejoin="round" fill-opacity="0"></path></g><g><path stroke-linecap="round" stroke-linejoin="round" fill-opacity="0"></path></g><g><path stroke-linecap="round" stroke-linejoin="round" fill-opacity="0"></path></g></g><g style="display: block;" transform="matrix(1,0,0,1,284,238)" opacity="1"><g opacity="1" transform="matrix(1,0,0,1,0,0)"><path fill="rgb(100,75,56)" fill-opacity="1" d=" M-122.81500244140625,6.839000225067139 C-122.81500244140625,6.839000225067139 -117.47200012207031,-7.928999900817871 -130.80999755859375,-21.202999114990234 C-141.9040069580078,-32.24399948120117 -144.947998046875,-38.66899871826172 -144.947998046875,-38.66899871826172 C-144.947998046875,-38.66899871826172 -154.99899291992188,-4.01200008392334 -137.1649932861328,14.173999786376953"></path></g><g opacity="1" transform="matrix(1,0,0,1,0,0)"><path fill="rgb(83,28,6)" fill-opacity="1" d=" M-132.68800354003906,10.913000106811523 C-134.21800231933594,11.852999687194824 -135.697998046875,12.942999839782715 -137.16799926757812,14.17300033569336 C-154.9980010986328,-4.017000198364258 -144.947998046875,-38.66699981689453 -144.947998046875,-38.66699981689453 C-144.947998046875,-38.66699981689453 -144.91799926757812,-38.62699890136719 -144.8679962158203,-38.55699920654297 C-151.52999877929688,-14.732000350952148 -141.4739990234375,1.4620000123977661 -132.68800354003906,10.913000106811523z"></path><path stroke-linecap="round" stroke-linejoin="round" fill-opacity="0" stroke="rgb(83,28,6)" stroke-opacity="1" stroke-width="8" d=" M-132.68800354003906,10.913000106811523 C-134.21800231933594,11.852999687194824 -135.697998046875,12.942999839782715 -137.16799926757812,14.17300033569336 C-154.9980010986328,-4.017000198364258 -144.947998046875,-38.66699981689453 -144.947998046875,-38.66699981689453 C-144.947998046875,-38.66699981689453 -144.91799926757812,-38.62699890136719 -144.8679962158203,-38.55699920654297 C-151.52999877929688,-14.732000350952148 -141.4739990234375,1.4620000123977661 -132.68800354003906,10.913000106811523z"></path></g><g opacity="1" transform="matrix(1,0,0,1,0,0)"><path stroke-linecap="round" stroke-linejoin="round" fill-opacity="0" stroke="rgb(55,38,32)" stroke-opacity="1" stroke-width="8" d=" M-122.81500244140625,6.839000225067139 C-122.81500244140625,6.839000225067139 -114.88400268554688,-8.07800006866455 -130.58099365234375,-20.059999465942383 C-143.78700256347656,-30.139999389648438 -144.947998046875,-38.66899871826172 -144.947998046875,-38.66899871826172"></path></g></g><g style="display: block;" transform="matrix(1,0,0,1,284,238)" opacity="1"><g opacity="1" transform="matrix(1,0,0,1,0,0)"><path fill="rgb(125,47,26)" fill-opacity="1" d=" M-87.4489974975586,20.95800018310547 C-92.33899688720703,13.567999839782715 -102.197998046875,7.2829999923706055 -113.02799987792969,6.2230000495910645 C-113.02799987792969,6.2230000495910645 -123.81800079345703,-23.996999740600586 -95.0979995727539,-43.91699981689453 C-95.0979995727539,-43.91699981689453 -69.51100158691406,-18.847000122070312 -87.4489974975586,20.95800018310547z"></path></g><g opacity="0.3" transform="matrix(1,0,0,1,0,0)"><path fill="rgb(63,16,0)" fill-opacity="1" d=" M-94.0979995727539,-38.91699981689453 C-94.0979995727539,-38.91699981689453 -108.76000213623047,-17.476999282836914 -99.06800079345703,7.683000087738037 C-98.63700103759766,8.803000450134277 -98.3479995727539,9.852999687194824 -98.1780014038086,10.843000411987305 C-101.93800354003906,8.262999534606934 -106.60800170898438,6.853000164031982 -113.02799987792969,6.2230000495910645 C-113.02799987792969,6.2230000495910645 -123.81800079345703,-23.996999740600586 -95.0979995727539,-43.91699981689453 C-95.0979995727539,-43.91699981689453 -94.50800323486328,-43.236000061035156 -93.60800170898438,-41.95600128173828 C-93.60800170898438,-41.95600128173828 -94.0979995727539,-38.91699981689453 -94.0979995727539,-38.91699981689453z"></path></g><g opacity="0.3" transform="matrix(1,0,0,1,0,0)"><path stroke-linecap="round" stroke-linejoin="round" fill-opacity="0" stroke="rgb(63,16,0)" stroke-opacity="1" stroke-width="6" d=" M-109.7509994506836,-27.895000457763672 C-109.7509994506836,-27.895000457763672 -92.18499755859375,-36.17900085449219 -82.447998046875,-20.926000595092773"></path></g><g opacity="0.3" transform="matrix(1,0,0,1,0,0)"><path stroke-linecap="round" stroke-linejoin="round" fill-opacity="0" stroke="rgb(63,16,0)" stroke-opacity="1" stroke-width="6" d=" M-113.947998046875,-14.248000144958496 C-113.947998046875,-14.248000144958496 -93.02799987792969,-21.926000595092773 -82.447998046875,-5.7270002365112305"></path></g><g opacity="0.3" transform="matrix(1,0,0,1,0,0)"><path stroke-linecap="round" stroke-linejoin="round" fill-opacity="0" stroke="rgb(63,16,0)" stroke-opacity="1" stroke-width="6" d=" M-113.947998046875,-0.5569999814033508 C-113.947998046875,-0.5569999814033508 -95.0979995727539,-8.487000465393066 -85.90899658203125,8.843000411987305"></path></g><g opacity="1" transform="matrix(1,0,0,1,0,0)"><path stroke-linecap="round" stroke-linejoin="round" fill-opacity="0" stroke="rgb(67,18,5)" stroke-opacity="1" stroke-width="8" d=" M-95.0979995727539,-43.91699981689453 C-123.81800079345703,-23.996999740600586 -113.02799987792969,6.2230000495910645 -113.02799987792969,6.2230000495910645"></path></g><g opacity="1" transform="matrix(1,0,0,1,0,0)"><path stroke-linecap="round" stroke-linejoin="round" fill-opacity="0" stroke="rgb(55,38,32)" stroke-opacity="1" stroke-width="8" d=" M-88.20500183105469,18.95800018310547 C-88.20500183105469,18.95800018310547 -80.5479965209961,8.843999862670898 -80.5479965209961,-11.095999717712402 C-80.5479965209961,-32.97999954223633 -95.0979995727539,-43.91699981689453 -95.0979995727539,-43.91699981689453 C-95.0979995727539,-43.91699981689453 -63.63800048828125,-20.011999130249023 -86.20500183105469,20.95800018310547"></path></g></g><g style="display: block;" transform="matrix(1,0,0,1,284,238)" opacity="1"><g opacity="1" transform="matrix(1,0,0,1,0,0)"><path fill="rgb(128,102,79)" fill-opacity="1" d=" M-114.40699768066406,73.13600158691406 C-114.40699768066406,73.13600158691406 -136.36500549316406,73.79299926757812 -145.0469970703125,68.06800079345703 C-152.8249969482422,62.93899917602539 -153.593994140625,54.88100051879883 -153.593994140625,54.88100051879883 C-158.0469970703125,50.97600173950195 -162.36599731445312,37.59400177001953 -159.66900634765625,33.32099914550781 C-156.9720001220703,29.04800033569336 -151.18099975585938,29.832000732421875 -145.35800170898438,22.663000106811523 C-138.33599853515625,14.017999649047852 -131.0500030517578,8.135000228881836 -122.60800170898438,6.289999961853027 C-99.83799743652344,1.3140000104904175 -81.68499755859375,17.95800018310547 -78.78299713134766,36.24599838256836 C-78.78299713134766,36.24599838256836 -72.08599853515625,70.25399780273438 -114.40699768066406,73.13600158691406z"></path></g><g opacity="1" transform="matrix(1,0,0,1,0,0)"><path fill="rgb(186,119,101)" fill-opacity="1" d=" M-145.05799865722656,68.06400299072266 C-152.83799743652344,62.933998107910156 -153.59800720214844,54.87300109863281 -153.59800720214844,54.87300109863281 C-158.05799865722656,50.972999572753906 -162.3679962158203,37.58399963378906 -159.67799377441406,33.31399917602539 C-157.97799682617188,30.624000549316406 -152.08399963378906,27.804000854492188 -148.2100067138672,28.263999938964844 C-140.05999755859375,29.23200035095215 -135.4199981689453,27.60099983215332 -131.45199584960938,30.365999221801758 C-124.37000274658203,35.301998138427734 -130.39700317382812,41.96500015258789 -117.46800231933594,51.4630012512207 C-107.6259994506836,58.69300079345703 -119.79399871826172,68.48500061035156 -129.27699279785156,70.45600128173828 C-138.76300048828125,72.427001953125 -144.58200073242188,68.37999725341797 -145.05799865722656,68.06400299072266z"></path></g><g opacity="1" transform="matrix(1,0,0,1,0,0)"><path stroke-linecap="round" stroke-linejoin="round" fill-opacity="0" stroke="rgb(116,66,58)" stroke-opacity="1" stroke-width="6" d=" M-153.6020050048828,54.875 C-153.6020050048828,54.875 -149.1199951171875,53.43299865722656 -142.6529998779297,54.2859992980957 C-134.29600524902344,55.38800048828125 -130.82000732421875,57.9370002746582 -124.76599884033203,56.67100143432617"></path></g><g opacity="1" transform="matrix(1,0,0,1,0,0)"><path stroke-linecap="round" stroke-linejoin="round" fill-opacity="0" stroke="rgb(55,38,32)" stroke-opacity="1" stroke-width="8" d=" M-78.78299713134766,36.24599838256836 C-81.68499755859375,17.95800018310547 -99.83799743652344,1.3140000104904175 -122.60800170898438,6.289999961853027 C-131.0500030517578,8.135000228881836 -138.33599853515625,14.017999649047852 -145.35800170898438,22.663000106811523 C-151.18099975585938,29.832000732421875 -156.9720001220703,29.04800033569336 -159.66900634765625,33.32099914550781 C-162.36599731445312,37.59400177001953 -158.0469970703125,50.97600173950195 -153.593994140625,54.88100051879883 C-153.593994140625,54.88100051879883 -152.8249969482422,62.93899917602539 -145.0469970703125,68.06800079345703 C-136.36500549316406,73.79299926757812 -114.40699768066406,73.13600158691406 -114.40699768066406,73.13600158691406"></path></g><g opacity="1" transform="matrix(1,0,0,1,0,0)"><path stroke-linecap="round" stroke-linejoin="round" fill-opacity="0" stroke="rgb(100,49,47)" stroke-opacity="1" stroke-width="8" d=" M-159.66900634765625,33.32099914550781 C-162.36599731445312,37.59400177001953 -158.0469970703125,50.97600173950195 -153.593994140625,54.88100051879883 C-153.593994140625,54.88100051879883 -152.8249969482422,62.93899917602539 -145.0469970703125,68.06800079345703"></path></g><g opacity="1" transform="matrix(1,0,0,1,0,0)"><path fill="rgb(0,0,0)" fill-opacity="1" d=" M-137.39700317382812,34.30799865722656 C-144.8419952392578,35.2140007019043 -141.00399780273438,47.0260009765625 -134.5659942626953,46.77899932861328 C-128.1280059814453,46.53200149536133 -130.04400634765625,33.41299819946289 -137.39700317382812,34.30799865722656z"></path></g><g opacity="1" transform="matrix(1,0,0,1,0,0)"><path fill="rgb(50,40,33)" fill-opacity="1" d=" M-134.5679931640625,46.78300094604492 C-136.05799865722656,46.84299850463867 -137.4080047607422,46.25299835205078 -138.50799560546875,45.303001403808594 C-138.50799560546875,45.303001403808594 -138.5279998779297,45.28300094604492 -138.5279998779297,45.28300094604492 C-138.5279998779297,45.28300094604492 -141,41.402000427246094 -137.80099487304688,39.00299835205078 C-134.68899536132812,36.66899871826172 -130.93800354003906,40.76300048828125 -130.697998046875,41.01300048828125 C-130.68800354003906,41.02299880981445 -130.68800354003906,41.02299880981445 -130.68800354003906,41.02299880981445 C-130.447998046875,43.92300033569336 -131.6580047607422,46.67300033569336 -134.5679931640625,46.78300094604492z"></path></g><g opacity="1" transform="matrix(1,0,0,1,0,0)"><g opacity="1" transform="matrix(1,0,0,1,0,0)"><path fill="rgb(88,70,54)" fill-opacity="1" d=" M-121.81800079345703,40.52399826049805 C-123.11299896240234,40.36600112915039 -125.91799926757812,34.266998291015625 -123.47899627685547,29.618000030517578 C-117.74500274658203,18.690000534057617 -105.42500305175781,26.006999969482422 -99.4739990234375,29.01099967956543 C-87.65899658203125,34.974998474121094 -103.22699737548828,35.801998138427734 -108.15399932861328,42.893001556396484 C-111.74299621582031,48.058998107910156 -121.81800079345703,40.52399826049805 -121.81800079345703,40.52399826049805z"></path></g><g opacity="1" transform="matrix(1,0,0,1,0,0)"><path fill="rgb(0,0,0)" fill-opacity="1" d=" M-104.08599853515625,37.5260009765625 C-104.68800354003906,42.55799865722656 -109.25499725341797,46.150001525878906 -114.28700256347656,45.54800033569336 C-119.31900024414062,44.94599914550781 -122.91100311279297,40.37900161743164 -122.30899810791016,35.34700012207031 C-121.70700073242188,30.315000534057617 -117.13999938964844,26.722999572753906 -112.10800170898438,27.325000762939453 C-107.07599639892578,27.927000045776367 -103.48400115966797,32.49399948120117 -104.08599853515625,37.5260009765625z"></path></g><g opacity="1" transform="matrix(1,0,0,1,0,0)"><path fill="rgb(255,255,255)" fill-opacity="1" d=" M-108.60800170898438,33.069000244140625 C-108.60800170898438,34.698001861572266 -109.9280014038086,36.018001556396484 -111.55699920654297,36.018001556396484 C-113.18599700927734,36.018001556396484 -114.50599670410156,34.698001861572266 -114.50599670410156,33.069000244140625 C-114.50599670410156,31.440000534057617 -113.18599700927734,30.1200008392334 -111.55699920654297,30.1200008392334 C-109.9280014038086,30.1200008392334 -108.60800170898438,31.440000534057617 -108.60800170898438,33.069000244140625z"></path></g></g><g opacity="1" transform="matrix(1,0,0,1,0,0)"><path fill="rgb(255,255,255)" fill-opacity="1" d=" M-133.6999969482422,53.0880012512207 C-135.21400451660156,52.65999984741211 -138.18800354003906,52.01100158691406 -138.18800354003906,52.01100158691406 C-138.18800354003906,52.01100158691406 -137.18800354003906,58.784000396728516 -135.76800537109375,59.172000885009766 C-134.3249969482422,59.566001892089844 -133.6999969482422,53.0880012512207 -133.6999969482422,53.0880012512207z"></path></g><g opacity="1" transform="matrix(1,0,0,1,0,0)"><path fill="rgb(100,49,47)" fill-opacity="1" d=" M-162.6280059814453,30.5939998626709 C-162.6280059814453,30.5939998626709 -160.82000732421875,28.145000457763672 -158.30999755859375,27.000999450683594 C-155.6280059814453,25.77899932861328 -151.8679962158203,27.972000122070312 -145.4459991455078,28.51099967956543 C-145.4459991455078,28.51099967956543 -148.4409942626953,31.131999969482422 -153.28700256347656,33.32099914550781 C-158.13299560546875,35.5099983215332 -156.83299255371094,38.03099822998047 -156.83299255371094,38.03099822998047 C-156.83299255371094,38.03099822998047 -162.6280059814453,30.5939998626709 -162.6280059814453,30.5939998626709z"></path></g><g opacity="1" transform="matrix(1,0,0,1,0,0)"><path fill="rgb(100,49,47)" fill-opacity="1" d=" M-143.13099670410156,64.5510025024414 C-143.13099670410156,64.5510025024414 -139.3780059814453,67.8290023803711 -124.43099975585938,68.89900207519531 C-124.43099975585938,68.89900207519531 -138.7209930419922,76.64199829101562 -146.7480010986328,71.73500061035156 C-146.7480010986328,71.73500061035156 -143.13099670410156,64.5510025024414 -143.13099670410156,64.5510025024414z"></path></g></g><g style="display: block;" transform="matrix(1,0,0,1,284,238)" opacity="1"><g opacity="1" transform="matrix(1,0,0,1,0,0)"><path fill="rgb(128,102,77)" fill-opacity="1" d=" M-24.23900032043457,177.27699279785156 C-24.23900032043457,177.27699279785156 -23.24799919128418,166.31500244140625 -17.030000686645508,165.13699340820312 C-9.14900016784668,163.6439971923828 18.535999298095703,198.5919952392578 18.535999298095703,198.5919952392578 C18.535999298095703,198.5919952392578 9.739999771118164,170.71200561523438 15.944999694824219,168.54100036621094 C20.566999435424805,166.9239959716797 24.115999221801758,179.11099243164062 24.115999221801758,179.11099243164062 C24.115999221801758,179.11099243164062 13.04800033569336,145.33900451660156 36.617000579833984,115.98600006103516 C58.27000045776367,89.01899719238281 95.11399841308594,100.62699890136719 95.11399841308594,100.62699890136719 C98.13999938964844,-12.595000267028809 158.67100524902344,-31.60099983215332 158.67100524902344,-31.60099983215332 C141.5229949951172,-123.70999908447266 188.93299865722656,-174.5229949951172 188.93299865722656,-174.5229949951172 C61.834999084472656,-209.8280029296875 -31.792999267578125,-138.6439971923828 -36.46500015258789,-119.51799774169922 C-39.02399826049805,-109.04100036621094 -30.875999450683594,-74.73899841308594 -36.46500015258789,-30.823999404907227 C-42.05400085449219,13.090999603271484 -78.78299713134766,36.24599838256836 -78.78299713134766,36.24599838256836 C-78.78299713134766,36.24599838256836 -88.75499725341797,68.4489974975586 -78.39600372314453,98.68099975585938 C-62.94300079345703,143.77999877929688 -27.840999603271484,153.76300048828125 -24.23900032043457,177.27699279785156z"></path></g><g opacity="1" transform="matrix(1,0,0,1,0,0)"><path fill="rgb(100,75,56)" fill-opacity="1" d=" M188.9320068359375,-174.52699279785156 C188.9320068359375,-174.52699279785156 163.11199951171875,-146.85699462890625 156.48199462890625,-95.33699798583984 C132.42300415039062,-193.61199951171875 9.517999649047852,-138.24000549316406 -11.142000198364258,-121.51499938964844 C-15.232999801635742,-118.2030029296875 -31.058000564575195,-128.3470001220703 -31.058000564575195,-128.3470001220703 C-31.058000564575195,-128.3470001220703 -31.058000564575195,-128.35699462890625 -31.058000564575195,-128.35699462890625 C-8.887999534606934,-154.177001953125 77.06199645996094,-205.5970001220703 188.9320068359375,-174.52699279785156z"></path></g><g opacity="1" transform="matrix(1,0,0,1,0,0)"><path fill="rgb(100,75,56)" fill-opacity="1" d=" M158.6719970703125,-31.597000122070312 C158.6719970703125,-31.597000122070312 124.38200378417969,-20.836999893188477 106.13200378417969,32.76300048828125 C105.84600067138672,-79.5790023803711 -27.65999984741211,-114.87200164794922 -27.65999984741211,-114.87200164794922 C-27.65999984741211,-114.87200164794922 -33.847999572753906,-105.3239974975586 -36.4379997253418,-102.62699890136719 C-36.737998962402344,-106.73699951171875 -24.58799934387207,-117.97699737548828 -24.607999801635742,-120.90699768066406 C67.03199768066406,-110.0270004272461 136.20199584960938,-54.40700149536133 158.3820037841797,-33.15700149536133 C158.48199462890625,-32.637001037597656 158.57200622558594,-32.117000579833984 158.6719970703125,-31.597000122070312z"></path></g><g opacity="1" transform="matrix(1,0,0,1,0,0)"><g opacity="1" transform="matrix(1,0,0,1,0,0)"><path stroke-linecap="round" stroke-linejoin="round" fill-opacity="0" stroke="rgb(157,104,99)" stroke-opacity="1" stroke-width="8" d=" M-31.840999603271484,-121.51699829101562 C-31.840999603271484,-121.51699829101562 53.6150016784668,-129.93699645996094 139.0709991455078,-47.9640007019043"></path></g><g opacity="1" transform="matrix(1,0,0,1,0,0)"><path stroke-linecap="round" stroke-linejoin="round" fill-opacity="0" stroke="rgb(157,104,99)" stroke-opacity="1" stroke-width="8" d=" M-31.840999603271484,-121.51699829101562 C-31.840999603271484,-121.51699829101562 37.46699905395508,-71.75900268554688 88.13500213623047,79.29199981689453"></path></g></g><g opacity="1" transform="matrix(1,0,0,1,0,0)"><path fill="rgb(89,67,53)" fill-opacity="1" d=" M95.14199829101562,99.5739974975586 C95.13200378417969,99.92400360107422 95.12200164794922,100.27300262451172 95.11199951171875,100.62300109863281 C95.11199951171875,100.62300109863281 58.27199935913086,89.02300262451172 36.61199951171875,115.98300170898438 C14.831999778747559,143.1230010986328 22.631999969482422,174.0330047607422 23.941999435424805,178.55299377441406 C23.172000885009766,176.1929931640625 19.961999893188477,167.13400268554688 15.942000389099121,168.54400634765625 C9.741999626159668,170.71400451660156 18.531999588012695,198.59300231933594 18.531999588012695,198.59300231933594 C18.531999588012695,198.59300231933594 -9.14799976348877,163.64300537109375 -17.027999877929688,165.13299560546875 C-23.24799919128418,166.31300354003906 -24.238000869750977,177.2729949951172 -24.238000869750977,177.2729949951172 C-27.83799934387207,153.76300048828125 -62.9379997253418,143.7830047607422 -78.39800262451172,98.68299865722656 C-88.75800323486328,68.4530029296875 -78.78800201416016,36.24300003051758 -78.78800201416016,36.24300003051758 C-78.78800201416016,36.24300003051758 -42.05799865722656,13.093000411987305 -36.46799850463867,-30.82699966430664 C-31.408000946044922,-70.59700012207031 -29.520999908447266,-108.06700134277344 -28.840999603271484,-121.51699829101562 C38.3390007019043,-58.33700180053711 83.7020034790039,71.69400024414062 95.14199829101562,99.5739974975586z"></path></g><g opacity="1" transform="matrix(1,0,0,1,0,0)"><path fill="rgb(76,57,46)" fill-opacity="1" d=" M88.64199829101562,99.1729965209961 C77.10199737548828,97.2030029296875 52.68199920654297,95.98300170898438 36.61199951171875,115.98300170898438 C15.161999702453613,142.71299743652344 22.402000427246094,173.10299682617188 23.871999740600586,178.33299255371094 C22.98200035095215,175.67300415039062 19.841999053955078,167.1739959716797 15.942000389099121,168.54400634765625 C9.741999626159668,170.71400451660156 18.531999588012695,198.59300231933594 18.531999588012695,198.59300231933594 C18.531999588012695,198.59300231933594 -9.14799976348877,163.64300537109375 -17.027999877929688,165.13299560546875 C-23.24799919128418,166.31300354003906 -24.238000869750977,177.2729949951172 -24.238000869750977,177.2729949951172 C-27.83799934387207,153.76300048828125 -62.9379997253418,143.7830047607422 -78.39800262451172,98.68299865722656 C-79.24800109863281,96.2030029296875 -79.95800018310547,93.7030029296875 -80.5479965209961,91.21299743652344 C-80.5479965209961,91.21299743652344 -62.9379997253418,28.783000946044922 -62.9379997253418,28.783000946044922 C-62.9379997253418,28.783000946044922 -20.31800079345703,7.192999839782715 -20.31800079345703,7.192999839782715 C-20.31800079345703,7.192999839782715 40.6619987487793,6.14300012588501 88.64199829101562,99.1729965209961z"></path></g><g opacity="0.1" transform="matrix(1,0,0,1,0,0)"><path fill="rgb(255,255,255)" fill-opacity="1" d=" M158.6719970703125,-31.597000122070312 C158.6719970703125,-31.597000122070312 98.14199829101562,-12.597000122070312 95.11199951171875,100.62300109863281 C95.11199951171875,100.62300109863281 58.27199935913086,89.02300262451172 36.61199951171875,115.98300170898438 C21.32200050354004,135.0330047607422 20.61199951171875,155.9429931640625 22.00200080871582,168.2729949951172 C22.00200080871582,168.2729949951172 21.992000579833984,168.2729949951172 21.992000579833984,168.2729949951172 C6.01800012588501,75.88500213623047 88.93499755859375,88.80699920654297 88.93499755859375,88.80699920654297 C78.93800354003906,3.2920000553131104 147.39300537109375,-41.91600036621094 147.39300537109375,-41.91600036621094 C128.22000122070312,-101.90599822998047 165.6219940185547,-166.5070037841797 165.6219940185547,-166.5070037841797 C136.3419952392578,-182.20700073242188 74.28199768066406,-180.0570068359375 74.28199768066406,-180.0570068359375 C107.31199645996094,-186.2270050048828 146.23199462890625,-186.38699340820312 188.9320068359375,-174.52699279785156 C188.9320068359375,-174.52699279785156 141.52200317382812,-123.70700073242188 158.6719970703125,-31.597000122070312z"></path></g><g opacity="1" transform="matrix(1,0,0,1,0,0)"><path stroke-linecap="round" stroke-linejoin="round" fill-opacity="0" stroke="rgb(42,29,24)" stroke-opacity="1" stroke-width="8" d=" M-24.979000091552734,179.11099243164062 C-24.979000091552734,179.11099243164062 -25.042999267578125,165.64300537109375 -17.030000686645508,165.13699340820312 C-6.943999767303467,164.5 18.535999298095703,198.5919952392578 18.535999298095703,198.5919952392578 C18.535999298095703,198.5919952392578 9.739999771118164,168.71600341796875 15.944999694824219,168.54100036621094 C18.93199920654297,168.45599365234375 24.115999221801758,179.11099243164062 24.115999221801758,179.11099243164062 C24.115999221801758,179.11099243164062 13.04800033569336,145.33900451660156 36.617000579833984,115.98600006103516 C58.27000045776367,89.01899719238281 95.11399841308594,100.62699890136719 95.11399841308594,100.62699890136719 C98.13999938964844,-12.595000267028809 158.67100524902344,-31.60099983215332 158.67100524902344,-31.60099983215332 C141.5229949951172,-123.70999908447266 188.93299865722656,-174.5229949951172 188.93299865722656,-174.5229949951172 C61.834999084472656,-209.8280029296875 -31.792999267578125,-138.6439971923828 -36.46500015258789,-119.51799774169922 C-39.02399826049805,-109.04100036621094 -30.875999450683594,-74.73899841308594 -36.46500015258789,-30.823999404907227 C-42.05400085449219,13.090999603271484 -78.78299713134766,36.24599838256836 -78.78299713134766,36.24599838256836"></path></g><g opacity="1" transform="matrix(1,0,0,1,0,0)"><path stroke-linecap="round" stroke-linejoin="round" fill-opacity="0" stroke="rgb(71,50,42)" stroke-opacity="1" stroke-width="8" d=" M95.11399841308594,100.62699890136719 C98.13999938964844,-12.595000267028809 158.67100524902344,-31.60099983215332 158.67100524902344,-31.60099983215332 C141.5229949951172,-123.70999908447266 188.93299865722656,-174.5229949951172 188.93299865722656,-174.5229949951172"></path></g><g opacity="0.4" transform="matrix(1,0,0,1,0,0)"><path fill="rgb(37,28,19)" fill-opacity="1" d=" M-29.058000564575195,46.78300094604492 C-27.51799964904785,53.16299819946289 26.47800064086914,100.62699890136719 -0.8059999942779541,146.3350067138672 C-4.872000217437744,153.14599609375 -13.708000183105469,158.69200134277344 -22.67300033569336,159.5330047607422 C-22.67300033569336,159.5330047607422 -17.92300033569336,168.2740020751953 -23.974000930786133,172.197998046875 C-26.246000289916992,173.67100524902344 -34.525001525878906,157.68299865722656 -36.862998962402344,156.03900146484375 C-49.202999114990234,141.6790008544922 -67.15799713134766,131.47300720214844 -78.39800262451172,98.68299865722656 C-88.75800323486328,68.4530029296875 -78.78800201416016,36.24300003051758 -78.78800201416016,36.24300003051758 C-78.78800201416016,36.24300003051758 -20.31800079345703,7.192999839782715 -22.481000900268555,-9.300999641418457 C-28.238000869750977,-53.18899917602539 -39.02799987792969,-109.03700256347656 -36.46799850463867,-119.51699829101562 C-36.018001556396484,-121.36699676513672 -29.450000762939453,-125.37999725341797 -24.607999801635742,-119.90699768066406 C46.19900131225586,-39.880001068115234 95.14199829101562,99.572998046875 95.14199829101562,99.572998046875 C55.07500076293945,-2.260999917984009 -11.97599983215332,-86.62300109863281 -11.225000381469727,-80.16500091552734 C-9.133000373840332,-62.194000244140625 1.7790000438690186,-15.798999786376953 -2.1480000019073486,-0.4169999957084656 C-7.050000190734863,18.781999588012695 -30.597999572753906,40.40299987792969 -29.058000564575195,46.78300094604492z"></path></g><g opacity="1" transform="matrix(1,0,0,1,0,0)"><path fill="rgb(133,82,73)" fill-opacity="1" d=" M-14.368000030517578,-1.715000033378601 C-10.317999839782715,-14.505000114440918 -32.65999984741211,-87.447998046875 -27.607999801635742,-119.90699768066406 C-27.607999801635742,-119.90699768066406 37.63199996948242,-211.39700317382812 188.9320068359375,-174.52699279785156 C61.832000732421875,-209.82699584960938 -31.79800033569336,-138.64700317382812 -36.46799850463867,-119.51699829101562 C-38.428001403808594,-109.51699829101562 -32.71799850463867,-58.457000732421875 -27.777999877929688,-17.476999282836914 C-27.777999877929688,-17.476999282836914 -30.12700080871582,-6.863999843597412 -24.04199981689453,-0.4819999933242798 C-19.79800033569336,3.9690001010894775 -14.368000030517578,-1.715000033378601 -14.368000030517578,-1.715000033378601z"></path></g><g opacity="1" transform="matrix(1,0,0,1,0,0)"><path stroke-linecap="round" stroke-linejoin="round" fill-opacity="0" stroke="rgb(73,36,37)" stroke-opacity="1" stroke-width="8" d=" M-46.61800003051758,-132.01400756835938 C-46.61800003051758,-132.01400756835938 -37.48099899291992,-128.53900146484375 -36.46799850463867,-119.51699829101562"></path></g><g opacity="1" transform="matrix(1,0,0,1,0,0)"><path stroke-linecap="round" stroke-linejoin="round" fill-opacity="0" stroke="rgb(73,36,37)" stroke-opacity="1" stroke-width="8" d=" M-78.78800201416016,36.24300003051758 C-53.499000549316406,11.371000289916992 -25.618000030517578,0.4129999876022339 -27.777999877929688,-17.476999282836914 C-32.71799850463867,-58.457000732421875 -38.428001403808594,-109.51699829101562 -36.46799850463867,-119.51699829101562 C-31.79800033569336,-138.64700317382812 61.832000732421875,-209.82699584960938 188.9320068359375,-174.52699279785156 C37.63199996948242,-211.39700317382812 -30.607999801635742,-122.90699768066406 -30.607999801635742,-122.90699768066406 C-30.607999801635742,-122.90699768066406 -29.841999053955078,-111.86799621582031 -24.746999740600586,-84.37300109863281 C-17.99799919128418,-47.952999114990234 -10.458000183105469,-16.517000198364258 -14.508000373840332,-3.7269999980926514 C-17.868000030517578,6.9029998779296875 -53.1879997253418,54.27299880981445 -53.1879997253418,54.27299880981445"></path></g><g opacity="1" transform="matrix(1,0,0,1,0,0)"><path stroke-linecap="round" stroke-linejoin="round" fill-opacity="0" stroke="rgb(73,36,37)" stroke-opacity="1" stroke-width="8" d=" M158.67100524902344,-31.60099983215332 C59.262001037597656,-119.63700103759766 -31.840999603271484,-121.51699829101562 -31.840999603271484,-121.51699829101562 C-31.840999603271484,-121.51699829101562 52.915000915527344,-30.979999542236328 95.14199829101562,99.5739974975586"></path></g></g><g style="display: block;" transform="matrix(1,0,0,1,284,238)" opacity="1"><g opacity="1" transform="matrix(1,0,0,1,0,0)"><path stroke-linecap="round" stroke-linejoin="round" fill-opacity="0" stroke="rgb(126,77,76)" stroke-opacity="1" stroke-width="8" d=" M-7.151000022888184,141.35400390625 C-7.151000022888184,141.35400390625 13.472999572753906,155.5970001220703 24.115999221801758,179.11099243164062 C24.115999221801758,179.11099243164062 31.790000915527344,190.0019989013672 40.20500183105469,195.1999969482422"></path></g><g opacity="1" transform="matrix(1,0,0,1,0,0)"><path stroke-linecap="round" stroke-linejoin="round" fill-opacity="0" stroke="rgb(126,77,76)" stroke-opacity="1" stroke-width="8" d=" M44.165000915527344,188.27000427246094 C31.29400062561035,188.27000427246094 24.115999221801758,179.11099243164062 24.115999221801758,179.11099243164062"></path></g><g opacity="1" transform="matrix(1,0,0,1,0,0)"><path stroke-linecap="round" stroke-linejoin="round" fill-opacity="0" stroke="rgb(173,107,96)" stroke-opacity="1" stroke-width="4" d=" M43.832000732421875,186.21800231933594 C35.095001220703125,186.41900634765625 28.658000946044922,180.7469940185547 28.658000946044922,180.7469940185547 C28.148000717163086,180.33599853515625 27.409000396728516,179.65899658203125 26.507999420166016,178.48399353027344"></path></g></g><g style="display: block;" transform="matrix(1,0,0,1,284,238)" opacity="1"><g opacity="1" transform="matrix(1,0,0,1,0,0)"><path stroke-linecap="round" stroke-linejoin="round" fill-opacity="0" stroke="rgb(126,77,76)" stroke-opacity="1" stroke-width="8" d=" M-43.263999938964844,151.27099609375 C-43.263999938964844,151.27099609375 -24.924999237060547,158.76699829101562 -24.924999237060547,181.5070037841797 C-24.924999237060547,181.5070037841797 -24.923999786376953,187.85299682617188 -28.19700050354004,193.12399291992188"></path></g><g opacity="1" transform="matrix(1,0,0,1,0,0)"><path stroke-linecap="round" stroke-linejoin="round" fill-opacity="0" stroke="rgb(126,77,76)" stroke-opacity="1" stroke-width="8" d=" M-24.924999237060547,181.5070037841797 C-24.924999237060547,181.5070037841797 -23.089000701904297,187.31500244140625 -20.422000885009766,193.12399291992188"></path></g><g opacity="1" transform="matrix(1,0,0,1,0,0)"><path stroke-linecap="round" stroke-linejoin="round" fill-opacity="0" stroke="rgb(152,90,87)" stroke-opacity="1" stroke-width="4" d=" M-21.5939998626709,185.05099487304688 C-21.5939998626709,185.05099487304688 -19.96299934387207,189.30799865722656 -19.016000747680664,191.30799865722656"></path></g></g><g style="display: block;" transform="matrix(1,0,0,1,284,238)" opacity="1"><g opacity="1" transform="matrix(1,0,0,1,0,0)"><path fill="rgb(128,102,79)" fill-opacity="1" d=" M-97.65599822998047,45.56100082397461 C-108.60600280761719,55.8849983215332 -116.77100372314453,61.05500030517578 -113.0250015258789,78.69200134277344 C-109.27899932861328,96.3290023803711 -98.53500366210938,133.9669952392578 -70.71600341796875,148.64100646972656 C-58.46099853515625,155.10499572753906 -41.375999450683594,153.76300048828125 -30.229000091552734,147.83900451660156 C-30.229000091552734,147.83900451660156 -7.151000022888184,148.0659942626953 -5.423999786376953,124.33499908447266 C-3.2249999046325684,94.1240005493164 -32.314998626708984,53.85100173950195 -57.13199996948242,45.56100082397461 C-81.9489974975586,37.270999908447266 -77.94400024414062,26.97599983215332 -97.65599822998047,45.56100082397461z"></path></g><g opacity="0.35000000000000003" transform="matrix(1,0,0,1,0,0)"><path fill="rgb(37,28,19)" fill-opacity="1" d=" M-6.1579999923706055,125.25299835205078 C-8.444000244140625,144.427001953125 -30.229000091552734,147.83900451660156 -30.229000091552734,147.83900451660156 C-30.229000091552734,147.83900451660156 -45.895999908447266,161.7779998779297 -70.71600341796875,148.64100646972656 C-84.23699951171875,141.48399353027344 -94.36599731445312,124.10900115966797 -100.76799774169922,112.56400299072266 C-112.51200103759766,91.38400268554688 -112.51200103759766,72.25399780273438 -112.51200103759766,72.25399780273438 C-112.51200103759766,72.25399780273438 -140.76199340820312,75.65499877929688 -148.17799377441406,59.73699951171875 C-148.17799377441406,59.73699951171875 -142.37600708007812,66.88500213623047 -122.2490005493164,64.76300048828125 C-109.12899780273438,63.380001068115234 -98.25199890136719,55.76300048828125 -98.16600036621094,59.599998474121094 C-97.60199737548828,84.73899841308594 -82.66699981689453,112.13600158691406 -62.94300079345703,111.66999816894531 C-62.94300079345703,111.66999816894531 -49.6349983215332,127.15499877929688 -33.09299850463867,118.87699890136719 C-16.986000061035156,110.81700134277344 -25.47800064086914,75.08300018310547 -53.1879997253418,57.01300048828125 C-53.1879997253418,57.01300048828125 -52.57500076293945,48.39500045776367 -49.808998107910156,49.69900131225586 C-29.68199920654297,59.18899917602539 -2.571000099182129,95.1719970703125 -6.1579999923706055,125.25299835205078z"></path></g><g opacity="0.1" transform="matrix(1,0,0,1,0,0)"><path fill="rgb(255,255,255)" fill-opacity="1" d=" M-31.840999603271484,150.14100646972656 C-43.36000061035156,154.2790069580078 -57.74800109863281,156.49200439453125 -70.71600341796875,148.64100646972656 C-97.947998046875,132.15499877929688 -109.27799987792969,96.33300018310547 -113.02799987792969,78.69300079345703 C-113.08799743652344,78.40299987792969 -113.14800262451172,78.11299896240234 -113.197998046875,77.83300018310547 C-113.197998046875,77.83300018310547 -110.65899658203125,72.25299835205078 -110.65899658203125,72.25299835205078 C-110.65899658203125,72.25299835205078 -97.35900115966797,136.58099365234375 -51.54199981689453,141.1510009765625 C-51.54199981689453,141.1510009765625 -31.840999603271484,150.14100646972656 -31.840999603271484,150.14100646972656z"></path></g><g opacity="1" transform="matrix(1,0,0,1,0,0)"><path stroke-linecap="round" stroke-linejoin="round" fill-opacity="0" stroke="rgb(76,53,47)" stroke-opacity="1" stroke-width="8" d=" M-30.229000091552734,147.83900451660156 C-38.029998779296875,149.9250030517578 -61.79999923706055,137.60000610351562 -62.94300079345703,112.66999816894531"></path></g><g opacity="1" transform="matrix(1,0,0,1,0,0)"><path stroke-linecap="round" stroke-linejoin="round" fill-opacity="0" stroke="rgb(42,29,24)" stroke-opacity="1" stroke-width="8" d=" M-114.41899871826172,73.13899993896484 C-114.41899871826172,73.13899993896484 -107.11799621582031,113.0719985961914 -83.10600280761719,137.56100463867188 C-66.20600128173828,154.7969970703125 -45.108001708984375,157.85299682617188 -30.229000091552734,147.83900451660156 C-30.229000091552734,147.83900451660156 11.043000221252441,147.4080047607422 -10.314000129699707,93.18800354003906 C-21.5939998626709,64.5510025024414 -49.808998107910156,49.69900131225586 -49.808998107910156,49.69900131225586"></path></g></g><g style="display: block;" transform="matrix(1,0,0,1,284,238)" opacity="1"><g opacity="1" transform="matrix(1,0,0,1,0,0)"><path fill="rgb(128,102,79)" fill-opacity="1" d=" M-83.61000061035156,39.27899932861328 C-76.86599731445312,30.816999435424805 -47.31999969482422,10.90999984741211 -41.34700012207031,5.3979997634887695 C-35.374000549316406,-0.11400000005960464 -29.398000717163086,-10.42300033569336 -22.481000900268555,-9.300999641418457 C-15.564000129699707,-8.178999900817871 -13.0649995803833,-3.946000099182129 -20.31800079345703,7.192999839782715 C-27.570999145507812,18.332000732421875 -52.018001556396484,57.0629997253418 -57.625999450683594,60.05400085449219 C-63.23400115966797,63.04499816894531 -98.19100189208984,57.57400131225586 -83.61000061035156,39.27899932861328z"></path></g><g opacity="0.2" transform="matrix(1,0,0,1,0,0)"><path fill="rgb(37,28,19)" fill-opacity="1" d=" M-55.29899978637695,55.51599884033203 C-59.974998474121094,59.619998931884766 -70.37999725341797,53.44300079345703 -66.11799621582031,43.52299880981445 C-61.507999420166016,32.79399871826172 -43.263999938964844,25.273000717163086 -19.599000930786133,-0.10300000011920929 C-19.599000930786133,-0.10300000011920929 -34.915000915527344,37.62699890136719 -55.29899978637695,55.51599884033203z"></path></g><g opacity="1" transform="matrix(1,0,0,1,0,0)"><path stroke-linecap="round" stroke-linejoin="round" fill-opacity="0" stroke="rgb(42,29,24)" stroke-opacity="1" stroke-width="8" d=" M-14.508000373840332,-3.7269999980926514 C-17.868000030517578,6.9029998779296875 -53.1879997253418,54.27299880981445 -53.1879997253418,54.27299880981445"></path></g><g opacity="1" transform="matrix(1,0,0,1,0,0)"><path stroke-linecap="round" stroke-linejoin="round" fill-opacity="0" stroke="rgb(55,38,32)" stroke-opacity="1" stroke-width="8" d=" M-78.78800201416016,36.24300003051758 C-53.499000549316406,11.371000289916992 -25.618000030517578,0.4129999876022339 -27.777999877929688,-17.476999282836914"></path></g><g opacity="1" transform="matrix(1,0,0,1,0,0)"><path fill="rgb(73,36,37)" fill-opacity="1" d=" M-18.1200008392334,-5.613999843597412 C-18.1200008392334,-5.613999843597412 -18.6560001373291,-3.3380000591278076 -21.39699935913086,1.2039999961853027 C-21.39699935913086,1.2039999961853027 -14.286999702453613,4.067999839782715 -11.322999954223633,-0.8709999918937683 C-10.810999870300293,-1.725000023841858 -10.342000007629395,-3.7760000228881836 -9.96500015258789,-5.548999786376953 C-9.588000297546387,-7.322000026702881 -11.814000129699707,-9.133999824523926 -14.114999771118164,-9.095999717712402 C-16.416000366210938,-9.057999610900879 -17.343000411987305,-7.566999912261963 -18.1200008392334,-5.613999843597412z"></path></g><g opacity="1" transform="matrix(1,0,0,1,0,0)"><path fill="rgb(73,36,37)" fill-opacity="1" d=" M-31.854999542236328,-17.878999710083008 C-31.854999542236328,-17.878999710083008 -31.496000289916992,-15.718000411987305 -31.735000610351562,-14.123000144958496 C-31.735000610351562,-14.123000144958496 -32.5260009765625,-7.105999946594238 -26.759000778198242,-4.711999893188477 C-26.759000778198242,-4.711999893188477 -24.608999252319336,-7.901000022888184 -23.944000244140625,-12.234999656677246 C-23.27899932861328,-16.569000244140625 -23.97100067138672,-18.80299949645996 -24.3700008392334,-22.711000442504883 C-24.3700008392334,-22.711000442504883 -31.31100082397461,-25.437000274658203 -31.854999542236328,-17.878999710083008z"></path></g></g><g style="display: none;"><g><path></path></g><g><path stroke-linecap="round" stroke-linejoin="round" fill-opacity="0"></path></g><g><path stroke-linecap="round" stroke-linejoin="round" fill-opacity="0"></path></g><g><path stroke-linecap="round" stroke-linejoin="round" fill-opacity="0"></path></g><g><path></path></g><g><path stroke-linecap="round" stroke-linejoin="round" fill-opacity="0"></path></g><g><g><path stroke-linecap="round" stroke-linejoin="round" fill-opacity="0"></path></g><g><path stroke-linecap="round" stroke-linejoin="round" fill-opacity="0"></path></g></g></g><g style="display: none;"><g><path stroke-linecap="round" stroke-linejoin="round" fill-opacity="0"></path></g></g><g style="display: none;"><g><path stroke-linecap="round" stroke-linejoin="round" fill-opacity="0"></path></g></g><g style="display: none;"><g><path stroke-linecap="round" stroke-linejoin="round" fill-opacity="0"></path></g></g><g style="display: none;"><g><path stroke-linecap="round" stroke-linejoin="round" fill-opacity="0"></path></g></g><g style="display: none;"><g><path stroke-linecap="round" stroke-linejoin="round" fill-opacity="0"></path></g></g><g style="display: none;"><g><path stroke-linecap="round" stroke-linejoin="round" fill-opacity="0"></path></g></g><g style="display: none;"><g><path stroke-linecap="round" stroke-linejoin="round" fill-opacity="0"></path></g></g><g style="display: none;"><g><path stroke-linecap="round" stroke-linejoin="round" fill-opacity="0"></path></g></g><g style="display: none;"><g><path stroke-linecap="round" stroke-linejoin="round" fill-opacity="0"></path></g></g><g style="display: none;"><g><path stroke-linecap="round" stroke-linejoin="round" fill-opacity="0"></path></g></g><g style="display: none;"><g><path stroke-linecap="round" stroke-linejoin="round" fill-opacity="0"></path></g></g><g style="display: none;"><g><path stroke-linecap="round" stroke-linejoin="round" fill-opacity="0"></path></g></g></g></svg>