<svg xmlns="http://www.w3.org/2000/svg" viewBox="0 0 512 512" width="512" height="512" style="width: 100%; height: 100%; transform: translate3d(0,0,0);" preserveAspectRatio="xMidYMid meet"><defs><clipPath id="__lottie_element_3690"><rect width="512" height="512" x="0" y="0"></rect></clipPath><clipPath id="__lottie_element_3695"><path d="M0,0 L512,0 L512,512 L0,512z"></path></clipPath><clipPath id="__lottie_element_3708"><path d="M0,0 L512,0 L512,512 L0,512z"></path></clipPath><clipPath id="__lottie_element_3721"><path d="M0,0 L512,0 L512,512 L0,512z"></path></clipPath><clipPath id="__lottie_element_3734"><path d="M0,0 L512,0 L512,512 L0,512z"></path></clipPath><clipPath id="__lottie_element_3747"><path d="M0,0 L512,0 L512,512 L0,512z"></path></clipPath><clipPath id="__lottie_element_3760"><path d="M0,0 L512,0 L512,512 L0,512z"></path></clipPath><clipPath id="__lottie_element_3773"><path d="M0,0 L512,0 L512,512 L0,512z"></path></clipPath><clipPath id="__lottie_element_3786"><path d="M0,0 L512,0 L512,512 L0,512z"></path></clipPath><clipPath id="__lottie_element_3799"><path d="M0,0 L512,0 L512,512 L0,512z"></path></clipPath><clipPath id="__lottie_element_3812"><path d="M0,0 L512,0 L512,512 L0,512z"></path></clipPath><linearGradient id="__lottie_element_3828" spreadMethod="pad" gradientUnits="userSpaceOnUse" x1="1" y1="-178" x2="1" y2="130.1490020751953"><stop offset="0%" stop-color="rgb(202,213,218)"></stop><stop offset="49%" stop-color="rgb(192,198,201)"></stop><stop offset="98%" stop-color="rgb(182,184,185)"></stop></linearGradient><linearGradient id="__lottie_element_3829" spreadMethod="pad" gradientUnits="userSpaceOnUse" x1="1" y1="-177" x2="1" y2="134.6219940185547"><stop offset="0%" stop-color="rgb(240,243,248)"></stop><stop offset="62%" stop-color="rgb(226,227,232)"></stop><stop offset="98%" stop-color="rgb(213,212,215)"></stop></linearGradient><radialGradient id="__lottie_element_3833" spreadMethod="pad" gradientUnits="userSpaceOnUse" cx="122" cy="69" r="90.77836763812655" fx="122" fy="69"><stop offset="0%" stop-color="rgb(198,198,197)"></stop><stop offset="50%" stop-color="rgb(99,99,98)"></stop><stop offset="100%" stop-color="rgb(0,0,0)"></stop></radialGradient><radialGradient id="__lottie_element_3837" spreadMethod="pad" gradientUnits="userSpaceOnUse" cx="-119" cy="80" r="114.9260647045506" fx="-119" fy="80"><stop offset="0%" stop-color="rgb(198,198,197)"></stop><stop offset="50%" stop-color="rgb(99,99,98)"></stop><stop offset="100%" stop-color="rgb(0,0,0)"></stop></radialGradient><linearGradient id="__lottie_element_3844" spreadMethod="pad" gradientUnits="userSpaceOnUse" x1="1" y1="56" x2="1" y2="86.85700225830078"><stop offset="30%" stop-color="rgb(0,0,0)"></stop><stop offset="65%" stop-color="rgb(88,88,88)"></stop><stop offset="100%" stop-color="rgb(177,177,177)"></stop></linearGradient><linearGradient id="__lottie_element_3848" spreadMethod="pad" gradientUnits="userSpaceOnUse" x1="1" y1="-178" x2="1" y2="130.1490020751953"><stop offset="0%" stop-color="rgb(202,213,218)"></stop><stop offset="49%" stop-color="rgb(192,198,201)"></stop><stop offset="98%" stop-color="rgb(182,184,185)"></stop></linearGradient><linearGradient id="__lottie_element_3849" spreadMethod="pad" gradientUnits="userSpaceOnUse" x1="1" y1="-177" x2="1" y2="134.6219940185547"><stop offset="0%" stop-color="rgb(240,243,248)"></stop><stop offset="62%" stop-color="rgb(226,227,232)"></stop><stop offset="98%" stop-color="rgb(213,212,215)"></stop></linearGradient></defs><g clip-path="url(#__lottie_element_3690)"><g style="display: block;" transform="matrix(0.9600029587745667,0,0,0.9600029587745667,256,242.06471252441406)" opacity="1"><g opacity="1" transform="matrix(1,0,0,1,0,0)"><path fill="rgb(217,217,217)" fill-opacity="1" d=" M49.2869987487793,175.18099975585938 C49.2869987487793,175.18099975585938 52.165000915527344,175.4149932861328 55.61199951171875,174.802001953125 C61.70500183105469,173.71800231933594 66.1709976196289,165.34300231933594 66.1709976196289,159.15499877929688 C66.1709976196289,159.15499877929688 66.1709976196289,145.91000366210938 66.1709976196289,145.91000366210938 C66.1709976196289,145.91000366210938 55.999000549316406,146.8780059814453 55.999000549316406,146.8780059814453 C55.999000549316406,146.8780059814453 44.26599884033203,154.27000427246094 44.26599884033203,154.27000427246094 C44.26599884033203,154.27000427246094 49.2869987487793,156.56700134277344 49.2869987487793,156.56700134277344 C49.2869987487793,156.56700134277344 49.2869987487793,175.18099975585938 49.2869987487793,175.18099975585938z"></path><path stroke-linecap="round" stroke-linejoin="round" fill-opacity="0" stroke="rgb(146,158,160)" stroke-opacity="1" stroke-width="5" d=" M49.2869987487793,175.18099975585938 C49.2869987487793,175.18099975585938 52.165000915527344,175.4149932861328 55.61199951171875,174.802001953125 C61.70500183105469,173.71800231933594 66.1709976196289,165.34300231933594 66.1709976196289,159.15499877929688 C66.1709976196289,159.15499877929688 66.1709976196289,145.91000366210938 66.1709976196289,145.91000366210938 C66.1709976196289,145.91000366210938 55.999000549316406,146.8780059814453 55.999000549316406,146.8780059814453 C55.999000549316406,146.8780059814453 44.26599884033203,154.27000427246094 44.26599884033203,154.27000427246094 C44.26599884033203,154.27000427246094 49.2869987487793,156.56700134277344 49.2869987487793,156.56700134277344 C49.2869987487793,156.56700134277344 49.2869987487793,175.18099975585938 49.2869987487793,175.18099975585938z"></path></g><g opacity="1" transform="matrix(1,0,0,1,0,0)"><path fill="rgb(245,245,245)" fill-opacity="1" d=" M27.17300033569336,162.78799438476562 C27.17300033569336,162.78799438476562 27.233999252319336,158.86599731445312 27.233999252319336,158.86599731445312 C27.233999252319336,158.86599731445312 44.81100082397461,154.0540008544922 44.81100082397461,154.0540008544922 C44.81100082397461,154.0540008544922 46.06700134277344,155.4669952392578 49.2869987487793,156.56700134277344 C49.2869987487793,156.56700134277344 49.2869987487793,176.18099975585938 49.2869987487793,176.18099975585938 C49.2869987487793,176.18099975585938 44.402000427246094,190.04600524902344 27.17300033569336,186.31700134277344 C27.17300033569336,186.31700134277344 27.17300033569336,162.78799438476562 27.17300033569336,162.78799438476562z"></path><path stroke-linecap="round" stroke-linejoin="round" fill-opacity="0" stroke="rgb(169,178,181)" stroke-opacity="1" stroke-width="5" d=" M27.17300033569336,162.78799438476562 C27.17300033569336,162.78799438476562 27.233999252319336,158.86599731445312 27.233999252319336,158.86599731445312 C27.233999252319336,158.86599731445312 44.81100082397461,154.0540008544922 44.81100082397461,154.0540008544922 C44.81100082397461,154.0540008544922 46.06700134277344,155.4669952392578 49.2869987487793,156.56700134277344 C49.2869987487793,156.56700134277344 49.2869987487793,176.18099975585938 49.2869987487793,176.18099975585938 C49.2869987487793,176.18099975585938 44.402000427246094,190.04600524902344 27.17300033569336,186.31700134277344 C27.17300033569336,186.31700134277344 27.17300033569336,162.78799438476562 27.17300033569336,162.78799438476562z"></path></g><g opacity="1" transform="matrix(1,0,0,1,0,0)"><path fill="rgb(255,255,255)" fill-opacity="1" d=" M1.218000054359436,161.73500061035156 C1.218000054359436,161.73500061035156 1.2339999675750732,188.48800659179688 1.2339999675750732,188.48800659179688 C1.2339999675750732,188.48800659179688 15.9350004196167,193.9029998779297 27.17300033569336,186.31700134277344 C27.17300033569336,186.31700134277344 27.17300033569336,162.78799438476562 27.17300033569336,162.78799438476562 C27.17300033569336,162.78799438476562 27.128999710083008,158.79800415039062 27.128999710083008,158.79800415039062 C27.128999710083008,158.79800415039062 1.628999948501587,161.30799865722656 1.628999948501587,161.30799865722656 C1.628999948501587,161.30799865722656 0.984000027179718,160.14100646972656 1.218000054359436,161.73500061035156z"></path><path stroke-linecap="round" stroke-linejoin="round" fill-opacity="0" stroke="rgb(184,191,193)" stroke-opacity="1" stroke-width="5" d=" M1.218000054359436,161.73500061035156 C1.218000054359436,161.73500061035156 1.2339999675750732,188.48800659179688 1.2339999675750732,188.48800659179688 C1.2339999675750732,188.48800659179688 15.9350004196167,193.9029998779297 27.17300033569336,186.31700134277344 C27.17300033569336,186.31700134277344 27.17300033569336,162.78799438476562 27.17300033569336,162.78799438476562 C27.17300033569336,162.78799438476562 27.128999710083008,158.79800415039062 27.128999710083008,158.79800415039062 C27.128999710083008,158.79800415039062 1.628999948501587,161.30799865722656 1.628999948501587,161.30799865722656 C1.628999948501587,161.30799865722656 0.984000027179718,160.14100646972656 1.218000054359436,161.73500061035156z"></path></g><g opacity="1" transform="matrix(1,0,0,1,0,0)"><path fill="rgb(217,217,217)" fill-opacity="1" d=" M-46.94200134277344,175.18099975585938 C-46.94200134277344,175.18099975585938 -49.82099914550781,175.4149932861328 -53.268001556396484,174.802001953125 C-59.361000061035156,173.71800231933594 -63.68600082397461,165.34300231933594 -63.68600082397461,159.15499877929688 C-63.68600082397461,159.15499877929688 -63.68600082397461,145.91000366210938 -63.68600082397461,145.91000366210938 C-63.68600082397461,145.91000366210938 -52.11600112915039,147.2550048828125 -52.11600112915039,147.2550048828125 C-52.11600112915039,147.2550048828125 -42.13399887084961,153.50399780273438 -42.13399887084961,153.50399780273438 C-42.13399887084961,153.50399780273438 -44,155.51600646972656 -46.94200134277344,156.56700134277344 C-46.94200134277344,156.56700134277344 -46.94200134277344,175.18099975585938 -46.94200134277344,175.18099975585938z"></path><path stroke-linecap="round" stroke-linejoin="round" fill-opacity="0" stroke="rgb(146,158,160)" stroke-opacity="1" stroke-width="5" d=" M-46.94200134277344,175.18099975585938 C-46.94200134277344,175.18099975585938 -49.82099914550781,175.4149932861328 -53.268001556396484,174.802001953125 C-59.361000061035156,173.71800231933594 -63.68600082397461,165.34300231933594 -63.68600082397461,159.15499877929688 C-63.68600082397461,159.15499877929688 -63.68600082397461,145.91000366210938 -63.68600082397461,145.91000366210938 C-63.68600082397461,145.91000366210938 -52.11600112915039,147.2550048828125 -52.11600112915039,147.2550048828125 C-52.11600112915039,147.2550048828125 -42.13399887084961,153.50399780273438 -42.13399887084961,153.50399780273438 C-42.13399887084961,153.50399780273438 -44,155.51600646972656 -46.94200134277344,156.56700134277344 C-46.94200134277344,156.56700134277344 -46.94200134277344,175.18099975585938 -46.94200134277344,175.18099975585938z"></path></g><g opacity="1" transform="matrix(1,0,0,1,0,0)"><path fill="rgb(245,245,245)" fill-opacity="1" d=" M-24.768999099731445,162.78799438476562 C-24.768999099731445,162.78799438476562 -23.22800064086914,157.60800170898438 -23.22800064086914,157.60800170898438 C-23.22800064086914,157.60800170898438 -42.1349983215332,153.71400451660156 -42.1349983215332,153.71400451660156 C-42.1349983215332,153.71400451660156 -43.75,155.51600646972656 -46.94200134277344,156.56700134277344 C-46.94200134277344,156.56700134277344 -46.94200134277344,176.18099975585938 -46.94200134277344,176.18099975585938 C-46.94200134277344,176.18099975585938 -41.99800109863281,190.04600524902344 -24.768999099731445,186.31700134277344 C-24.768999099731445,186.31700134277344 -24.768999099731445,162.78799438476562 -24.768999099731445,162.78799438476562z"></path><path stroke-linecap="round" stroke-linejoin="round" fill-opacity="0" stroke="rgb(169,178,181)" stroke-opacity="1" stroke-width="5" d=" M-24.768999099731445,162.78799438476562 C-24.768999099731445,162.78799438476562 -23.22800064086914,157.60800170898438 -23.22800064086914,157.60800170898438 C-23.22800064086914,157.60800170898438 -42.1349983215332,153.71400451660156 -42.1349983215332,153.71400451660156 C-42.1349983215332,153.71400451660156 -43.75,155.51600646972656 -46.94200134277344,156.56700134277344 C-46.94200134277344,156.56700134277344 -46.94200134277344,176.18099975585938 -46.94200134277344,176.18099975585938 C-46.94200134277344,176.18099975585938 -41.99800109863281,190.04600524902344 -24.768999099731445,186.31700134277344 C-24.768999099731445,186.31700134277344 -24.768999099731445,162.78799438476562 -24.768999099731445,162.78799438476562z"></path></g><g opacity="1" transform="matrix(1,0,0,1,0,0)"><path fill="rgb(255,255,255)" fill-opacity="1" d=" M1.218000054359436,161.73500061035156 C1.218000054359436,161.73500061035156 1.2339999675750732,188.48800659179688 1.2339999675750732,188.48800659179688 C1.2339999675750732,188.48800659179688 -13.531000137329102,193.9029998779297 -24.768999099731445,186.31700134277344 C-24.768999099731445,186.31700134277344 -24.768999099731445,162.78799438476562 -24.768999099731445,162.78799438476562 C-24.768999099731445,162.78799438476562 -22.895999908447266,157.74000549316406 -22.895999908447266,157.74000549316406 C-22.895999908447266,157.74000549316406 1.190000057220459,161.48300170898438 1.190000057220459,161.48300170898438 C1.190000057220459,161.48300170898438 1.1089999675750732,160.20399475097656 1.218000054359436,161.73500061035156z"></path><path stroke-linecap="round" stroke-linejoin="round" fill-opacity="0" stroke="rgb(184,191,193)" stroke-opacity="1" stroke-width="5" d=" M1.218000054359436,161.73500061035156 C1.218000054359436,161.73500061035156 1.2339999675750732,188.48800659179688 1.2339999675750732,188.48800659179688 C1.2339999675750732,188.48800659179688 -13.531000137329102,193.9029998779297 -24.768999099731445,186.31700134277344 C-24.768999099731445,186.31700134277344 -24.768999099731445,162.78799438476562 -24.768999099731445,162.78799438476562 C-24.768999099731445,162.78799438476562 -22.895999908447266,157.74000549316406 -22.895999908447266,157.74000549316406 C-22.895999908447266,157.74000549316406 1.190000057220459,161.48300170898438 1.190000057220459,161.48300170898438 C1.190000057220459,161.48300170898438 1.1089999675750732,160.20399475097656 1.218000054359436,161.73500061035156z"></path></g></g><g style="display: block;" transform="matrix(0.9600029587745667,0,0,0.9600029587745667,256,244.0000762939453)" opacity="1"><g opacity="1" transform="matrix(1,0,0,1,0,0)"><path fill="rgb(190,192,194)" fill-opacity="1" d=" M68.78800201416016,160.1999969482422 C69.87200164794922,166.9340057373047 70.13400268554688,182.49099731445312 59.970001220703125,194.3489990234375 C49.15399932861328,206.97500610351562 27.775999069213867,216.61300659179688 1.2300000190734863,216.61300659179688 C-27.599000930786133,216.61300659179688 -46.69499969482422,206.97500610351562 -57.51100158691406,194.3489990234375 C-67.68499755859375,182.49099731445312 -67.4219970703125,166.9340057373047 -66.3280029296875,160.1999969482422 C-66.3280029296875,160.1999969482422 -57.64400100708008,176.697998046875 1.2419999837875366,178.4980010986328 C60.12799835205078,180.29800415039062 68.78800201416016,160.1999969482422 68.78800201416016,160.1999969482422z"></path></g><g opacity="1" transform="matrix(1,0,0,1,0,0)"><path fill="rgb(217,217,217)" fill-opacity="1" d=" M49.35599899291992,172.18099975585938 C49.35599899291992,172.18099975585938 52.23500061035156,172.4149932861328 55.68199920654297,171.802001953125 C61.775001525878906,170.71800231933594 66.1709976196289,165.34300231933594 66.1709976196289,159.15499877929688 C66.1709976196289,159.15499877929688 66.1709976196289,145.91000366210938 66.1709976196289,145.91000366210938 C66.1709976196289,145.91000366210938 57.76300048828125,152.56700134277344 49.35599899291992,153.56700134277344 C49.35599899291992,153.56700134277344 49.35599899291992,172.18099975585938 49.35599899291992,172.18099975585938z"></path><path stroke-linecap="round" stroke-linejoin="round" fill-opacity="0" stroke="rgb(146,158,160)" stroke-opacity="1" stroke-width="5" d=" M49.35599899291992,172.18099975585938 C49.35599899291992,172.18099975585938 52.23500061035156,172.4149932861328 55.68199920654297,171.802001953125 C61.775001525878906,170.71800231933594 66.1709976196289,165.34300231933594 66.1709976196289,159.15499877929688 C66.1709976196289,159.15499877929688 66.1709976196289,145.91000366210938 66.1709976196289,145.91000366210938 C66.1709976196289,145.91000366210938 57.76300048828125,152.56700134277344 49.35599899291992,153.56700134277344 C49.35599899291992,153.56700134277344 49.35599899291992,172.18099975585938 49.35599899291992,172.18099975585938z"></path></g><g opacity="1" transform="matrix(1,0,0,1,0,0)"><path fill="rgb(245,245,245)" fill-opacity="1" d=" M27.214000701904297,159.03799438476562 C27.214000701904297,159.03799438476562 39.51300048828125,158.2989959716797 49.35599899291992,153.56700134277344 C49.35599899291992,153.56700134277344 49.35599899291992,173.18099975585938 49.35599899291992,173.18099975585938 C49.35599899291992,173.18099975585938 44.44300079345703,186.29600524902344 27.214000701904297,182.56700134277344 C27.214000701904297,182.56700134277344 27.214000701904297,159.03799438476562 27.214000701904297,159.03799438476562z"></path><path stroke-linecap="round" stroke-linejoin="round" fill-opacity="0" stroke="rgb(169,178,181)" stroke-opacity="1" stroke-width="5" d=" M27.214000701904297,159.03799438476562 C27.214000701904297,159.03799438476562 39.51300048828125,158.2989959716797 49.35599899291992,153.56700134277344 C49.35599899291992,153.56700134277344 49.35599899291992,173.18099975585938 49.35599899291992,173.18099975585938 C49.35599899291992,173.18099975585938 44.44300079345703,186.29600524902344 27.214000701904297,182.56700134277344 C27.214000701904297,182.56700134277344 27.214000701904297,159.03799438476562 27.214000701904297,159.03799438476562z"></path></g><g opacity="1" transform="matrix(1,0,0,1,0,0)"><path fill="rgb(255,255,255)" fill-opacity="1" d=" M1.2419999837875366,162.61000061035156 C1.2419999837875366,162.61000061035156 1.2419999837875366,184.23800659179688 1.2419999837875366,184.23800659179688 C1.2419999837875366,184.23800659179688 15.97599983215332,190.1529998779297 27.214000701904297,182.56700134277344 C27.214000701904297,182.56700134277344 27.214000701904297,159.03799438476562 27.214000701904297,159.03799438476562 C27.214000701904297,159.03799438476562 14.227999687194824,163.27000427246094 1.2419999837875366,162.61000061035156z"></path><path stroke-linecap="round" stroke-linejoin="round" fill-opacity="0" stroke="rgb(184,191,193)" stroke-opacity="1" stroke-width="5" d=" M1.2419999837875366,162.61000061035156 C1.2419999837875366,162.61000061035156 1.2419999837875366,184.23800659179688 1.2419999837875366,184.23800659179688 C1.2419999837875366,184.23800659179688 15.97599983215332,190.1529998779297 27.214000701904297,182.56700134277344 C27.214000701904297,182.56700134277344 27.214000701904297,159.03799438476562 27.214000701904297,159.03799438476562 C27.214000701904297,159.03799438476562 14.227999687194824,163.27000427246094 1.2419999837875366,162.61000061035156z"></path></g><g opacity="1" transform="matrix(1,0,0,1,0,0)"><path fill="rgb(217,217,217)" fill-opacity="1" d=" M-46.87200164794922,172.18099975585938 C-46.87200164794922,172.18099975585938 -49.750999450683594,172.4149932861328 -53.198001861572266,171.802001953125 C-59.29100036621094,170.71800231933594 -63.68600082397461,165.34300231933594 -63.68600082397461,159.15499877929688 C-63.68600082397461,159.15499877929688 -63.68600082397461,145.91000366210938 -63.68600082397461,145.91000366210938 C-63.68600082397461,145.91000366210938 -55.27899932861328,152.56700134277344 -46.87200164794922,153.56700134277344 C-46.87200164794922,153.56700134277344 -46.87200164794922,172.18099975585938 -46.87200164794922,172.18099975585938z"></path><path stroke-linecap="round" stroke-linejoin="round" fill-opacity="0" stroke="rgb(146,158,160)" stroke-opacity="1" stroke-width="5" d=" M-46.87200164794922,172.18099975585938 C-46.87200164794922,172.18099975585938 -49.750999450683594,172.4149932861328 -53.198001861572266,171.802001953125 C-59.29100036621094,170.71800231933594 -63.68600082397461,165.34300231933594 -63.68600082397461,159.15499877929688 C-63.68600082397461,159.15499877929688 -63.68600082397461,145.91000366210938 -63.68600082397461,145.91000366210938 C-63.68600082397461,145.91000366210938 -55.27899932861328,152.56700134277344 -46.87200164794922,153.56700134277344 C-46.87200164794922,153.56700134277344 -46.87200164794922,172.18099975585938 -46.87200164794922,172.18099975585938z"></path></g><g opacity="1" transform="matrix(1,0,0,1,0,0)"><path fill="rgb(245,245,245)" fill-opacity="1" d=" M-24.729000091552734,159.03799438476562 C-24.729000091552734,159.03799438476562 -35.80099868774414,159.03799438476562 -46.87200164794922,153.56700134277344 C-46.87200164794922,153.56700134277344 -46.87200164794922,173.18099975585938 -46.87200164794922,173.18099975585938 C-46.87200164794922,173.18099975585938 -41.95800018310547,186.29600524902344 -24.729000091552734,182.56700134277344 C-24.729000091552734,182.56700134277344 -24.729000091552734,159.03799438476562 -24.729000091552734,159.03799438476562z"></path><path stroke-linecap="round" stroke-linejoin="round" fill-opacity="0" stroke="rgb(169,178,181)" stroke-opacity="1" stroke-width="5" d=" M-24.729000091552734,159.03799438476562 C-24.729000091552734,159.03799438476562 -35.80099868774414,159.03799438476562 -46.87200164794922,153.56700134277344 C-46.87200164794922,153.56700134277344 -46.87200164794922,173.18099975585938 -46.87200164794922,173.18099975585938 C-46.87200164794922,173.18099975585938 -41.95800018310547,186.29600524902344 -24.729000091552734,182.56700134277344 C-24.729000091552734,182.56700134277344 -24.729000091552734,159.03799438476562 -24.729000091552734,159.03799438476562z"></path></g><g opacity="1" transform="matrix(1,0,0,1,0,0)"><path fill="rgb(255,255,255)" fill-opacity="1" d=" M1.2419999837875366,162.61000061035156 C1.2419999837875366,162.61000061035156 1.2419999837875366,184.23800659179688 1.2419999837875366,184.23800659179688 C1.2419999837875366,184.23800659179688 -13.491000175476074,190.1529998779297 -24.729000091552734,182.56700134277344 C-24.729000091552734,182.56700134277344 -24.729000091552734,159.03799438476562 -24.729000091552734,159.03799438476562 C-24.729000091552734,159.03799438476562 -14.958000183105469,162.6269989013672 1.2419999837875366,162.61000061035156z"></path><path stroke-linecap="round" stroke-linejoin="round" fill-opacity="0" stroke="rgb(184,191,193)" stroke-opacity="1" stroke-width="5" d=" M1.2419999837875366,162.61000061035156 C1.2419999837875366,162.61000061035156 1.2419999837875366,184.23800659179688 1.2419999837875366,184.23800659179688 C1.2419999837875366,184.23800659179688 -13.491000175476074,190.1529998779297 -24.729000091552734,182.56700134277344 C-24.729000091552734,182.56700134277344 -24.729000091552734,159.03799438476562 -24.729000091552734,159.03799438476562 C-24.729000091552734,159.03799438476562 -14.958000183105469,162.6269989013672 1.2419999837875366,162.61000061035156z"></path></g><g opacity="1" transform="matrix(1,0,0,1,0,0)"><path fill="rgb(197,200,201)" fill-opacity="1" d=" M26.29199981689453,184.1230010986328"></path><path stroke-linecap="round" stroke-linejoin="round" fill-opacity="0" stroke="rgb(128,131,132)" stroke-opacity="1" stroke-width="8" d=" M26.29199981689453,184.1230010986328"></path></g><g opacity="1" transform="matrix(1,0,0,1,0,0)"><path fill="rgb(158,161,164)" fill-opacity="1" d=" M66.16999816894531,155.16000366210938 C66.16999816894531,155.16000366210938 66.16999816894531,164.16000366210938 66.16999816894531,164.16000366210938 C66.16999816894531,170.33999633789062 63.779998779296875,173.72000122070312 57.68000030517578,174.8000030517578 C54.22999954223633,175.4199981689453 51.36000061035156,175.17999267578125 51.36000061035156,175.17999267578125 C51.36000061035156,175.17999267578125 44.439998626708984,189.3000030517578 27.209999084472656,185.57000732421875 C15.979999542236328,193.14999389648438 1.2400000095367432,187.24000549316406 1.2400000095367432,187.24000549316406 C1.2400000095367432,187.24000549316406 -13.489999771118164,193.14999389648438 -24.729999542236328,185.57000732421875 C-41.959999084472656,189.3000030517578 -47.869998931884766,176.17999267578125 -47.869998931884766,176.17999267578125 C-47.869998931884766,176.17999267578125 -50.75,176.4199981689453 -54.20000076293945,175.8000030517578 C-60.290000915527344,174.72000122070312 -63.689998626708984,170.33999633789062 -63.689998626708984,164.16000366210938 C-63.689998626708984,164.16000366210938 -63.689998626708984,155.16000366210938 -63.689998626708984,155.16000366210938 C-63.689998626708984,161.33999633789062 -59.290000915527344,166.72000122070312 -53.20000076293945,167.8000030517578 C-49.75,168.4199981689453 -46.869998931884766,168.17999267578125 -46.869998931884766,168.17999267578125 C-46.869998931884766,168.17999267578125 -41.959999084472656,182.3000030517578 -24.729999542236328,178.57000732421875 C-13.489999771118164,186.14999389648438 1.2400000095367432,180.24000549316406 1.2400000095367432,180.24000549316406 C1.2400000095367432,180.24000549316406 15.979999542236328,186.14999389648438 27.209999084472656,178.57000732421875 C44.439998626708984,182.3000030517578 49.36000061035156,168.17999267578125 49.36000061035156,168.17999267578125 C49.36000061035156,168.17999267578125 52.22999954223633,168.4199981689453 55.68000030517578,167.8000030517578 C61.779998779296875,166.72000122070312 66.16999816894531,161.33999633789062 66.16999816894531,155.16000366210938z"></path></g><g opacity="1" transform="matrix(1,0,0,1,0,0)"><path stroke-linecap="round" stroke-linejoin="round" fill-opacity="0" stroke="rgb(114,123,124)" stroke-opacity="1" stroke-width="8" d=" M68.78800201416016,160.1999969482422 C69.87200164794922,166.9340057373047 70.13400268554688,182.49099731445312 59.970001220703125,194.3489990234375 C49.15399932861328,206.97500610351562 27.775999069213867,216.61300659179688 1.2300000190734863,216.61300659179688 C-27.599000930786133,216.61300659179688 -46.69499969482422,206.97500610351562 -57.51100158691406,194.3489990234375 C-67.68499755859375,182.49099731445312 -67.4219970703125,166.9340057373047 -66.3280029296875,160.1999969482422"></path></g></g><g style="display: block;" transform="matrix(0.9600029587745667,0,0,0.9600029587745667,256,244.0000762939453)" opacity="1"><g opacity="1" transform="matrix(1,0,0,1,0,0)"><path fill="url(#__lottie_element_3848)" fill-opacity="1" d=" M-154.2449951171875,36.6150016784668 C-154.20700073242188,40.09400177001953 -125.33899688720703,103.82099914550781 2.128000020980835,103.82099914550781 C113.69599914550781,103.82099914550781 156.65899658203125,40.11800003051758 156.70199584960938,36.63800048828125 C156.73199462890625,34.242000579833984 -154.27099609375,34.229000091552734 -154.2449951171875,36.6150016784668z"></path></g><g opacity="1" transform="matrix(1,0,0,1,0,0)"><path fill="url(#__lottie_element_3849)" fill-opacity="1" d=" M-141.28700256347656,36.68199920654297 C-141.2530059814453,43.263999938964844 -89.7030029296875,92.88600158691406 1.409999966621399,92.88600158691406 C95.05599975585938,92.88600158691406 143.0709991455078,43.38399887084961 143.11000061035156,36.79999923706055 C143.13699340820312,32.266998291015625 -141.30999755859375,32.16400146484375 -141.28700256347656,36.68199920654297z"></path></g><g opacity="1" transform="matrix(1,0,0,1,0,0)"><g opacity="1" transform="matrix(1,0,0,1,0,0)"><path stroke-linecap="round" stroke-linejoin="miter" fill-opacity="0" stroke-miterlimit="10" stroke="rgb(114,123,124)" stroke-opacity="1" stroke-width="8" d=" M156.70199584960938,36.63800048828125 C156.73199462890625,34.242000579833984 128.22500610351562,103.81400299072266 1.8890000581741333,103.81400299072266 C-131.09500122070312,103.81400299072266 -154.27099609375,34.229000091552734 -154.2449951171875,36.617000579833984"></path></g></g><g opacity="1" transform="matrix(1,0,0,1,0,0)"><g opacity="1" transform="matrix(1,0,0,1,0,0)"><path fill="rgb(217,217,217)" fill-opacity="1" d=" M-63.637001037597656,147.1510009765625 C-63.637001037597656,147.1510009765625 -71.02100372314453,139.73300170898438 -71.02100372314453,139.73300170898438 C-71.02100372314453,139.73300170898438 -63.145999908447266,137.197998046875 -63.145999908447266,137.197998046875 C-63.145999908447266,137.197998046875 -50.42300033569336,139.90199279785156 -50.42300033569336,139.90199279785156 C-50.42300033569336,139.90199279785156 -63.637001037597656,147.1510009765625 -63.637001037597656,147.1510009765625z"></path><path stroke-linecap="round" stroke-linejoin="round" fill-opacity="0" stroke="rgb(127,139,143)" stroke-opacity="1" stroke-width="5" d=" M-63.637001037597656,147.1510009765625 C-63.637001037597656,147.1510009765625 -71.02100372314453,139.73300170898438 -71.02100372314453,139.73300170898438 C-71.02100372314453,139.73300170898438 -63.145999908447266,137.197998046875 -63.145999908447266,137.197998046875 C-63.145999908447266,137.197998046875 -50.42300033569336,139.90199279785156 -50.42300033569336,139.90199279785156 C-50.42300033569336,139.90199279785156 -63.637001037597656,147.1510009765625 -63.637001037597656,147.1510009765625z"></path></g><g opacity="1" transform="matrix(1,0,0,1,0,0)"><path fill="rgb(217,217,217)" fill-opacity="1" d=" M66.0770034790039,147.73599243164062 C66.0770034790039,147.73599243164062 73.48799896240234,140.31700134277344 73.48799896240234,140.31700134277344 C73.48799896240234,140.31700134277344 67.95600128173828,135.46200561523438 67.95600128173828,135.46200561523438 C67.95600128173828,135.46200561523438 54.176998138427734,138.45599365234375 54.176998138427734,138.45599365234375 C54.176998138427734,138.45599365234375 66.0770034790039,147.73599243164062 66.0770034790039,147.73599243164062z"></path><path stroke-linecap="round" stroke-linejoin="round" fill-opacity="0" stroke="rgb(127,139,143)" stroke-opacity="1" stroke-width="5" d=" M66.0770034790039,147.73599243164062 C66.0770034790039,147.73599243164062 73.48799896240234,140.31700134277344 73.48799896240234,140.31700134277344 C73.48799896240234,140.31700134277344 67.95600128173828,135.46200561523438 67.95600128173828,135.46200561523438 C67.95600128173828,135.46200561523438 54.176998138427734,138.45599365234375 54.176998138427734,138.45599365234375 C54.176998138427734,138.45599365234375 66.0770034790039,147.73599243164062 66.0770034790039,147.73599243164062z"></path></g><g opacity="1" transform="matrix(1,0,0,1,0,0)"><path fill="rgb(217,217,217)" fill-opacity="1" d=" M-47.125999450683594,153.60699462890625 C-47.125999450683594,153.60699462890625 -63.637001037597656,147.1510009765625 -63.637001037597656,147.1510009765625 C-63.637001037597656,147.1510009765625 -50.42300033569336,139.90199279785156 -50.42300033569336,139.90199279785156 C-50.42300033569336,139.90199279785156 -36.250999450683594,145.49000549316406 -36.250999450683594,145.49000549316406 C-36.250999450683594,145.49000549316406 -47.125999450683594,153.60699462890625 -47.125999450683594,153.60699462890625z"></path><path stroke-linecap="round" stroke-linejoin="round" fill-opacity="0" stroke="rgb(146,158,160)" stroke-opacity="1" stroke-width="5" d=" M-47.125999450683594,153.60699462890625 C-47.125999450683594,153.60699462890625 -63.637001037597656,147.1510009765625 -63.637001037597656,147.1510009765625 C-63.637001037597656,147.1510009765625 -50.42300033569336,139.90199279785156 -50.42300033569336,139.90199279785156 C-50.42300033569336,139.90199279785156 -36.250999450683594,145.49000549316406 -36.250999450683594,145.49000549316406 C-36.250999450683594,145.49000549316406 -47.125999450683594,153.60699462890625 -47.125999450683594,153.60699462890625z"></path></g><g opacity="1" transform="matrix(1,0,0,1,0,0)"><path fill="rgb(217,217,217)" fill-opacity="1" d=" M49.16600036621094,151.28599548339844 C49.16600036621094,151.28599548339844 66.0770034790039,147.73599243164062 66.0770034790039,147.73599243164062 C66.0770034790039,147.73599243164062 54.176998138427734,138.45599365234375 54.176998138427734,138.45599365234375 C54.176998138427734,138.45599365234375 38.321998596191406,145.05499267578125 38.321998596191406,145.05499267578125 C38.321998596191406,145.05499267578125 49.16600036621094,151.28599548339844 49.16600036621094,151.28599548339844z"></path><path stroke-linecap="round" stroke-linejoin="round" fill-opacity="0" stroke="rgb(146,158,160)" stroke-opacity="1" stroke-width="5" d=" M49.16600036621094,151.28599548339844 C49.16600036621094,151.28599548339844 66.0770034790039,147.73599243164062 66.0770034790039,147.73599243164062 C66.0770034790039,147.73599243164062 54.176998138427734,138.45599365234375 54.176998138427734,138.45599365234375 C54.176998138427734,138.45599365234375 38.321998596191406,145.05499267578125 38.321998596191406,145.05499267578125 C38.321998596191406,145.05499267578125 49.16600036621094,151.28599548339844 49.16600036621094,151.28599548339844z"></path></g><g opacity="1" transform="matrix(1,0,0,1,0,0)"><path fill="rgb(245,245,245)" fill-opacity="1" d=" M-22.599000930786133,156.73500061035156 C-22.599000930786133,156.73500061035156 -36.250999450683594,145.49000549316406 -36.250999450683594,145.49000549316406 C-36.250999450683594,145.49000549316406 -47.125999450683594,153.60699462890625 -47.125999450683594,153.60699462890625 C-47.125999450683594,153.60699462890625 -25.349000930786133,162.5760040283203 -25.349000930786133,162.5760040283203 C-25.349000930786133,162.5760040283203 -22.599000930786133,156.73500061035156 -22.599000930786133,156.73500061035156z"></path><path stroke-linecap="round" stroke-linejoin="round" fill-opacity="0" stroke="rgb(169,178,181)" stroke-opacity="1" stroke-width="5" d=" M-22.599000930786133,156.73500061035156 C-22.599000930786133,156.73500061035156 -36.250999450683594,145.49000549316406 -36.250999450683594,145.49000549316406 C-36.250999450683594,145.49000549316406 -47.125999450683594,153.60699462890625 -47.125999450683594,153.60699462890625 C-47.125999450683594,153.60699462890625 -25.349000930786133,162.5760040283203 -25.349000930786133,162.5760040283203 C-25.349000930786133,162.5760040283203 -22.599000930786133,156.73500061035156 -22.599000930786133,156.73500061035156z"></path></g><g opacity="1" transform="matrix(1,0,0,1,0,0)"><path fill="rgb(245,245,245)" fill-opacity="1" d=" M26.503999710083008,155.27999877929688 C26.503999710083008,155.27999877929688 38.321998596191406,145.05499267578125 38.321998596191406,145.05499267578125 C38.321998596191406,145.05499267578125 49.16600036621094,151.28599548339844 49.16600036621094,151.28599548339844 C49.16600036621094,151.28599548339844 46.417999267578125,157.69200134277344 29.18899917602539,162.05299377441406 C29.18899917602539,162.05299377441406 26.503999710083008,155.27999877929688 26.503999710083008,155.27999877929688z"></path><path stroke-linecap="round" stroke-linejoin="round" fill-opacity="0" stroke="rgb(169,178,181)" stroke-opacity="1" stroke-width="5" d=" M26.503999710083008,155.27999877929688 C26.503999710083008,155.27999877929688 38.321998596191406,145.05499267578125 38.321998596191406,145.05499267578125 C38.321998596191406,145.05499267578125 49.16600036621094,151.28599548339844 49.16600036621094,151.28599548339844 C49.16600036621094,151.28599548339844 46.417999267578125,157.69200134277344 29.18899917602539,162.05299377441406 C29.18899917602539,162.05299377441406 26.503999710083008,155.27999877929688 26.503999710083008,155.27999877929688z"></path></g><g opacity="1" transform="matrix(1,0,0,1,0,0)"><path fill="rgb(255,255,255)" fill-opacity="1" d=" M1.2369999885559082,155.49400329589844 C1.2369999885559082,155.49400329589844 1.2660000324249268,162.67799377441406 1.2660000324249268,162.67799377441406 C1.2660000324249268,162.67799377441406 -25.349000930786133,162.5760040283203 -25.349000930786133,162.5760040283203 C-25.349000930786133,162.5760040283203 -22.599000930786133,156.73500061035156 -22.599000930786133,156.73500061035156 C-22.599000930786133,156.73500061035156 1.2369999885559082,155.49400329589844 1.2369999885559082,155.49400329589844z"></path><path stroke-linecap="round" stroke-linejoin="round" fill-opacity="0" stroke="rgb(184,191,193)" stroke-opacity="1" stroke-width="5" d=" M1.2369999885559082,155.49400329589844 C1.2369999885559082,155.49400329589844 1.2660000324249268,162.67799377441406 1.2660000324249268,162.67799377441406 C1.2660000324249268,162.67799377441406 -25.349000930786133,162.5760040283203 -25.349000930786133,162.5760040283203 C-25.349000930786133,162.5760040283203 -22.599000930786133,156.73500061035156 -22.599000930786133,156.73500061035156 C-22.599000930786133,156.73500061035156 1.2369999885559082,155.49400329589844 1.2369999885559082,155.49400329589844z"></path></g><g opacity="1" transform="matrix(1,0,0,1,0,0)"><path fill="rgb(255,255,255)" fill-opacity="1" d=" M1.2369999885559082,155.49400329589844 C1.2369999885559082,155.49400329589844 1.2660000324249268,162.67799377441406 1.2660000324249268,162.67799377441406 C1.2660000324249268,162.67799377441406 29.18899917602539,162.05299377441406 29.18899917602539,162.05299377441406 C29.18899917602539,162.05299377441406 26.503999710083008,155.27999877929688 26.503999710083008,155.27999877929688 C26.503999710083008,155.27999877929688 1.2369999885559082,155.49400329589844 1.2369999885559082,155.49400329589844z"></path><path stroke-linecap="round" stroke-linejoin="round" fill-opacity="0" stroke="rgb(184,191,193)" stroke-opacity="1" stroke-width="5" d=" M1.2369999885559082,155.49400329589844 C1.2369999885559082,155.49400329589844 1.2660000324249268,162.67799377441406 1.2660000324249268,162.67799377441406 C1.2660000324249268,162.67799377441406 29.18899917602539,162.05299377441406 29.18899917602539,162.05299377441406 C29.18899917602539,162.05299377441406 26.503999710083008,155.27999877929688 26.503999710083008,155.27999877929688 C26.503999710083008,155.27999877929688 1.2369999885559082,155.49400329589844 1.2369999885559082,155.49400329589844z"></path></g></g></g><g style="display: block;" transform="matrix(0.9600029587745667,0,0,0.9600029587745667,256,244.0000762939453)" opacity="1"><g opacity="1" transform="matrix(1,0,0,1,0,0)"><g opacity="1" transform="matrix(1,0,0,1,0,0)"><path fill="rgb(217,217,217)" fill-opacity="1" d=" M-63.68600082397461,145.1719970703125 C-63.68600082397461,145.1719970703125 -69.4729995727539,144.88699340820312 -72.04399871826172,138.45799255371094 C-74.61499786376953,132.0290069580078 -74.61499786376953,124.31500244140625 -74.61499786376953,124.31500244140625 C-74.61499786376953,124.31500244140625 -66.38600158691406,123.15799713134766 -63.68600082397461,129.07200622558594 C-63.68600082397461,129.07200622558594 -63.68600082397461,145.1719970703125 -63.68600082397461,145.1719970703125z"></path><path stroke-linecap="round" stroke-linejoin="round" fill-opacity="0" stroke="rgb(127,139,143)" stroke-opacity="1" stroke-width="5" d=" M-63.68600082397461,145.1719970703125 C-63.68600082397461,145.1719970703125 -69.4729995727539,144.88699340820312 -72.04399871826172,138.45799255371094 C-74.61499786376953,132.0290069580078 -74.61499786376953,124.31500244140625 -74.61499786376953,124.31500244140625 C-74.61499786376953,124.31500244140625 -66.38600158691406,123.15799713134766 -63.68600082397461,129.07200622558594 C-63.68600082397461,129.07200622558594 -63.68600082397461,145.1719970703125 -63.68600082397461,145.1719970703125z"></path></g><g opacity="1" transform="matrix(1,0,0,1,0,0)"><path fill="rgb(217,217,217)" fill-opacity="1" d=" M66.1709976196289,145.1719970703125 C66.1709976196289,145.1719970703125 71.95700073242188,144.88699340820312 74.52799987792969,138.45799255371094 C77.0989990234375,132.0290069580078 77.0989990234375,124.31500244140625 77.0989990234375,124.31500244140625 C77.0989990234375,124.31500244140625 68.87100219726562,123.15799713134766 66.1709976196289,129.07200622558594 C66.1709976196289,129.07200622558594 66.1709976196289,145.1719970703125 66.1709976196289,145.1719970703125z"></path><path stroke-linecap="round" stroke-linejoin="round" fill-opacity="0" stroke="rgb(127,139,143)" stroke-opacity="1" stroke-width="5" d=" M66.1709976196289,145.1719970703125 C66.1709976196289,145.1719970703125 71.95700073242188,144.88699340820312 74.52799987792969,138.45799255371094 C77.0989990234375,132.0290069580078 77.0989990234375,124.31500244140625 77.0989990234375,124.31500244140625 C77.0989990234375,124.31500244140625 68.87100219726562,123.15799713134766 66.1709976196289,129.07200622558594 C66.1709976196289,129.07200622558594 66.1709976196289,145.1719970703125 66.1709976196289,145.1719970703125z"></path></g><g opacity="1" transform="matrix(1,0,0,1,0,0)"><path fill="rgb(217,217,217)" fill-opacity="1" d=" M-46.87200164794922,152.34300231933594 C-46.87200164794922,152.34300231933594 -59.82899856567383,153.4010009765625 -63.68600082397461,145.1719970703125 C-63.68600082397461,145.1719970703125 -63.68600082397461,129.07200622558594 -63.68600082397461,129.07200622558594 C-63.68600082397461,129.07200622558594 -52.55799865722656,126.75800323486328 -46.87200164794922,134.72900390625 C-46.87200164794922,134.72900390625 -46.87200164794922,152.34300231933594 -46.87200164794922,152.34300231933594z"></path><path stroke-linecap="round" stroke-linejoin="round" fill-opacity="0" stroke="rgb(146,158,160)" stroke-opacity="1" stroke-width="5" d=" M-46.87200164794922,152.34300231933594 C-46.87200164794922,152.34300231933594 -59.82899856567383,153.4010009765625 -63.68600082397461,145.1719970703125 C-63.68600082397461,145.1719970703125 -63.68600082397461,129.07200622558594 -63.68600082397461,129.07200622558594 C-63.68600082397461,129.07200622558594 -52.55799865722656,126.75800323486328 -46.87200164794922,134.72900390625 C-46.87200164794922,134.72900390625 -46.87200164794922,152.34300231933594 -46.87200164794922,152.34300231933594z"></path></g><g opacity="1" transform="matrix(1,0,0,1,0,0)"><path fill="rgb(217,217,217)" fill-opacity="1" d=" M49.35599899291992,152.34300231933594 C49.35599899291992,152.34300231933594 62.31399917602539,153.4010009765625 66.1709976196289,145.1719970703125 C66.1709976196289,145.1719970703125 66.1709976196289,129.07200622558594 66.1709976196289,129.07200622558594 C66.1709976196289,129.07200622558594 55.04199981689453,126.75800323486328 49.35599899291992,134.72900390625 C49.35599899291992,134.72900390625 49.35599899291992,152.34300231933594 49.35599899291992,152.34300231933594z"></path><path stroke-linecap="round" stroke-linejoin="round" fill-opacity="0" stroke="rgb(146,158,160)" stroke-opacity="1" stroke-width="5" d=" M49.35599899291992,152.34300231933594 C49.35599899291992,152.34300231933594 62.31399917602539,153.4010009765625 66.1709976196289,145.1719970703125 C66.1709976196289,145.1719970703125 66.1709976196289,129.07200622558594 66.1709976196289,129.07200622558594 C66.1709976196289,129.07200622558594 55.04199981689453,126.75800323486328 49.35599899291992,134.72900390625 C49.35599899291992,134.72900390625 49.35599899291992,152.34300231933594 49.35599899291992,152.34300231933594z"></path></g><g opacity="1" transform="matrix(1,0,0,1,0,0)"><path fill="rgb(245,245,245)" fill-opacity="1" d=" M-24.729000091552734,138.1999969482422 C-24.729000091552734,138.1999969482422 -35.30099868774414,125.85800170898438 -46.87200164794922,134.72900390625 C-46.87200164794922,134.72900390625 -46.87200164794922,152.34300231933594 -46.87200164794922,152.34300231933594 C-46.87200164794922,152.34300231933594 -41.95800018310547,165.45799255371094 -24.729000091552734,161.72900390625 C-24.729000091552734,161.72900390625 -24.729000091552734,138.1999969482422 -24.729000091552734,138.1999969482422z"></path><path stroke-linecap="round" stroke-linejoin="round" fill-opacity="0" stroke="rgb(169,178,181)" stroke-opacity="1" stroke-width="5" d=" M-24.729000091552734,138.1999969482422 C-24.729000091552734,138.1999969482422 -35.30099868774414,125.85800170898438 -46.87200164794922,134.72900390625 C-46.87200164794922,134.72900390625 -46.87200164794922,152.34300231933594 -46.87200164794922,152.34300231933594 C-46.87200164794922,152.34300231933594 -41.95800018310547,165.45799255371094 -24.729000091552734,161.72900390625 C-24.729000091552734,161.72900390625 -24.729000091552734,138.1999969482422 -24.729000091552734,138.1999969482422z"></path></g><g opacity="1" transform="matrix(1,0,0,1,0,0)"><path fill="rgb(245,245,245)" fill-opacity="1" d=" M27.214000701904297,138.1999969482422 C27.214000701904297,138.1999969482422 37.78499984741211,125.85800170898438 49.35599899291992,134.72900390625 C49.35599899291992,134.72900390625 49.35599899291992,152.34300231933594 49.35599899291992,152.34300231933594 C49.35599899291992,152.34300231933594 44.44300079345703,165.45799255371094 27.214000701904297,161.72900390625 C27.214000701904297,161.72900390625 27.214000701904297,138.1999969482422 27.214000701904297,138.1999969482422z"></path><path stroke-linecap="round" stroke-linejoin="round" fill-opacity="0" stroke="rgb(169,178,181)" stroke-opacity="1" stroke-width="5" d=" M27.214000701904297,138.1999969482422 C27.214000701904297,138.1999969482422 37.78499984741211,125.85800170898438 49.35599899291992,134.72900390625 C49.35599899291992,134.72900390625 49.35599899291992,152.34300231933594 49.35599899291992,152.34300231933594 C49.35599899291992,152.34300231933594 44.44300079345703,165.45799255371094 27.214000701904297,161.72900390625 C27.214000701904297,161.72900390625 27.214000701904297,138.1999969482422 27.214000701904297,138.1999969482422z"></path></g><g opacity="1" transform="matrix(1,0,0,1,0,0)"><path fill="rgb(255,255,255)" fill-opacity="1" d=" M1.2419999837875366,140.77200317382812 C1.2419999837875366,140.77200317382812 1.2419999837875366,163.39999389648438 1.2419999837875366,163.39999389648438 C1.2419999837875366,163.39999389648438 -13.491000175476074,169.31500244140625 -24.729000091552734,161.72900390625 C-24.729000091552734,161.72900390625 -24.729000091552734,138.1999969482422 -24.729000091552734,138.1999969482422 C-24.729000091552734,138.1999969482422 -10.369999885559082,127.65799713134766 1.2419999837875366,140.77200317382812z"></path><path stroke-linecap="round" stroke-linejoin="round" fill-opacity="0" stroke="rgb(184,191,193)" stroke-opacity="1" stroke-width="5" d=" M1.2419999837875366,140.77200317382812 C1.2419999837875366,140.77200317382812 1.2419999837875366,163.39999389648438 1.2419999837875366,163.39999389648438 C1.2419999837875366,163.39999389648438 -13.491000175476074,169.31500244140625 -24.729000091552734,161.72900390625 C-24.729000091552734,161.72900390625 -24.729000091552734,138.1999969482422 -24.729000091552734,138.1999969482422 C-24.729000091552734,138.1999969482422 -10.369999885559082,127.65799713134766 1.2419999837875366,140.77200317382812z"></path></g><g opacity="1" transform="matrix(1,0,0,1,0,0)"><path fill="rgb(255,255,255)" fill-opacity="1" d=" M1.2419999837875366,140.77200317382812 C1.2419999837875366,140.77200317382812 1.2419999837875366,163.39999389648438 1.2419999837875366,163.39999389648438 C1.2419999837875366,163.39999389648438 15.97599983215332,169.31500244140625 27.214000701904297,161.72900390625 C27.214000701904297,161.72900390625 27.214000701904297,138.1999969482422 27.214000701904297,138.1999969482422 C27.214000701904297,138.1999969482422 12.854000091552734,127.65799713134766 1.2419999837875366,140.77200317382812z"></path><path stroke-linecap="round" stroke-linejoin="round" fill-opacity="0" stroke="rgb(184,191,193)" stroke-opacity="1" stroke-width="5" d=" M1.2419999837875366,140.77200317382812 C1.2419999837875366,140.77200317382812 1.2419999837875366,163.39999389648438 1.2419999837875366,163.39999389648438 C1.2419999837875366,163.39999389648438 15.97599983215332,169.31500244140625 27.214000701904297,161.72900390625 C27.214000701904297,161.72900390625 27.214000701904297,138.1999969482422 27.214000701904297,138.1999969482422 C27.214000701904297,138.1999969482422 12.854000091552734,127.65799713134766 1.2419999837875366,140.77200317382812z"></path></g></g><g opacity="1" transform="matrix(1,0,0,1,0,0)"><path fill="url(#__lottie_element_3828)" fill-opacity="1" d=" M172.63600158691406,-123.10099792480469 C137.2830047607422,-192.54299926757812 55.941001892089844,-215.6300048828125 1.2630000114440918,-215.6300048828125 C-53.415000915527344,-215.6300048828125 -134.8249969482422,-192.54299926757812 -170.17799377441406,-123.10099792480469 C-198.68099975585938,-67.11199951171875 -170.63900756835938,-5.635000228881836 -158.50900268554688,21.29800033569336 C-155.71299743652344,27.506999969482422 -154.27099609375,34.229000091552734 -154.2449951171875,41.03900146484375 C-154.20700073242188,50.96799850463867 -152.93099975585938,66.5739974975586 -145.8280029296875,73.3219985961914 C-136.11199951171875,82.552001953125 -117.23799896240234,90.91000366210938 -96.25299835205078,95.26300048828125 C-92.01899719238281,96.14099884033203 -85.74099731445312,99.47599792480469 -84.9219970703125,103.72200012207031 C-83.41699981689453,111.52899932861328 -83.05899810791016,123.95999908447266 -76.11499786376953,131.67599487304688 C-75.13800048828125,132.76100158691406 -73.50399780273438,132.95399475097656 -72.26100158691406,132.18800354003906 C-71.73300170898438,131.86300659179688 -71.02200317382812,131.21400451660156 -70.0739974975586,131.27200317382812 C-68.34200286865234,131.3769989013672 -67.27300262451172,132.92100524902344 -66.37300109863281,134.45599365234375 C-65.83699798583984,135.3699951171875 -64.5979995727539,135.552001953125 -63.823001861572266,134.82899475097656 C-62.39699935913086,133.49899291992188 -60.28200149536133,131.8699951171875 -58.79499816894531,132.23500061035156 C-55.395999908447266,133.07000732421875 -53.560001373291016,135.5050048828125 -51.24300003051758,138.7689971923828 C-50.215999603271484,140.21600341796875 -48.21699905395508,140.53199768066406 -46.80699920654297,139.4550018310547 C-44.500999450683594,137.69400024414062 -37.777000427246094,131.53399658203125 -27.726999282836914,143.56500244140625 C-26.583999633789062,144.93299865722656 -24.54599952697754,145.09300231933594 -23.22599983215332,143.89500427246094 C-18.92300033569336,139.98899841308594 -11.319000244140625,133.89599609375 -1.055999994277954,144.75900268554688 C0.17800000309944153,146.06500244140625 2.2799999713897705,146.06500244140625 3.5139999389648438,144.75900268554688 C13.777000427246094,133.89599609375 21.381000518798828,139.98899841308594 25.68400001525879,143.89500427246094 C27.003999710083008,145.09300231933594 29.04199981689453,144.93299865722656 30.184999465942383,143.56500244140625 C40.23500061035156,131.53399658203125 46.959999084472656,137.69400024414062 49.26599884033203,139.4550018310547 C50.67599868774414,140.53199768066406 52.67399978637695,140.21600341796875 53.70100021362305,138.7689971923828 C55.47800064086914,136.26600646972656 57.196998596191406,133.97000122070312 59.42900085449219,133.22799682617188 C61.915000915527344,132.4010009765625 64.68000030517578,134.11300659179688 66.30999755859375,135.41200256347656 C67.05899810791016,136.00900268554688 68.16100311279297,135.8419952392578 68.66000366210938,135.02499389648438 C69.57599639892578,133.5240020751953 71.04499816894531,131.51400756835938 72.47100067138672,131.25399780273438 C73.9020004272461,130.9929962158203 74.17900085449219,131.8560028076172 74.71900177001953,132.18800354003906 C75.96199798583984,132.95399475097656 77.59500122070312,132.76100158691406 78.5719985961914,131.67599487304688 C85.51200103759766,123.96299743652344 85.87200164794922,111.54100036621094 87.37799835205078,103.73300170898438 C88.19599914550781,99.49199676513672 94.45500183105469,96.1449966430664 98.68399810791016,95.26799774169922 C119.68000030517578,90.91600036621094 138.5659942626953,82.55599975585938 148.28599548339844,73.3219985961914 C155.3730010986328,66.58899688720703 156.65899658203125,51.03799819946289 156.70199584960938,41.10599899291992 C156.73199462890625,34.268001556396484 158.16400146484375,27.520999908447266 160.9720001220703,21.285999298095703 C173.10499572753906,-5.6539998054504395 201.13499450683594,-67.12000274658203 172.63600158691406,-123.10099792480469z"></path></g><g opacity="1" transform="matrix(1,0,0,1,0,0)"><path fill="rgb(158,161,164)" fill-opacity="1" d=" M82.19999694824219,126.94999694824219 C80.77999877929688,129.66000366210938 80.52999877929688,129.5 78.56999969482422,131.67999267578125 C77.5999984741211,132.75999450683594 75.95999908447266,132.9499969482422 74.72000122070312,132.19000244140625 C74.18000030517578,131.86000061035156 73.9000015258789,130.99000549316406 72.47000122070312,131.25 C71.04000091552734,131.50999450683594 69.58000183105469,133.52000427246094 68.66000366210938,135.02999877929688 C68.15499877929688,135.85899353027344 67.10299682617188,136.04600524902344 66.34600067138672,135.43899536132812 C64.72100067138672,134.13499450683594 61.9379997253418,132.3939971923828 59.43000030517578,133.22999572753906 C57.20000076293945,133.97000122070312 55.47999954223633,136.27000427246094 53.70000076293945,138.77000427246094 C52.66999816894531,140.22000122070312 50.68000030517578,140.52999877929688 49.27000045776367,139.4600067138672 C46.959999084472656,137.69000244140625 40.22999954223633,131.52999877929688 30.18000030517578,143.55999755859375 C29.040000915527344,144.92999267578125 27,145.08999633789062 25.68000030517578,143.88999938964844 C21.3799991607666,139.99000549316406 13.779999732971191,133.89999389648438 3.509999990463257,144.75999450683594 C2.2799999713897705,146.05999755859375 0.18000000715255737,146.05999755859375 -1.059999942779541,144.75999450683594 C-11.319999694824219,133.89999389648438 -18.920000076293945,139.99000549316406 -23.229999542236328,143.89999389648438 C-24.549999237060547,145.08999633789062 -26.579999923706055,144.92999267578125 -27.729999542236328,143.55999755859375 C-37.779998779296875,131.52999877929688 -44.5,137.69000244140625 -46.810001373291016,139.4600067138672 C-48.220001220703125,140.52999877929688 -50.220001220703125,140.22000122070312 -51.2400016784668,138.77000427246094 C-53.560001373291016,135.50999450683594 -55.400001525878906,133.07000732421875 -58.790000915527344,132.22999572753906 C-60.279998779296875,131.8699951171875 -62.400001525878906,133.5 -63.81999969482422,134.8300018310547 C-64.5999984741211,135.5500030517578 -65.83999633789062,135.3699951171875 -66.37000274658203,134.4600067138672 C-67.2699966430664,132.9199981689453 -68.34100341796875,131.3800048828125 -70.06999969482422,131.27000427246094 C-71.0199966430664,131.2100067138672 -71.7300033569336,131.86000061035156 -72.26000213623047,132.19000244140625 C-73.5,132.9499969482422 -75.13999938964844,132.75999450683594 -76.11000061035156,131.67999267578125 C-78.0199966430664,129.55999755859375 -78.25,129.72999572753906 -79.6500015258789,127.08999633789062 C-75.56700134277344,124.94100189208984 -72.90299987792969,123.76300048828125 -70.90599822998047,124.06400299072266 C-68.98999786376953,124.35199737548828 -67.36100006103516,126.97200012207031 -66.16799926757812,128.09100341796875 C-65.60800170898438,128.61700439453125 -64.76499938964844,128.68800354003906 -64.09200286865234,128.31700134277344 C-62.67300033569336,127.53500366210938 -60.415000915527344,126.87699890136719 -58.790000915527344,127.06999969482422 C-55.54600143432617,127.45600128173828 -53.560001373291016,128.33999633789062 -51.2400016784668,131.61000061035156 C-50.220001220703125,133.0500030517578 -48.220001220703125,133.3699951171875 -46.810001373291016,132.2899932861328 C-44.41999816894531,130.47000122070312 -36.367000579833984,125.72699737548828 -26.65999984741211,136.72999572753906 C-26.10300064086914,137.36099243164062 -25.170000076293945,137.49000549316406 -24.540000915527344,136.9199981689453 C-20.450000762939453,133.27000427246094 -11.743000030517578,126.98400115966797 0.07000000029802322,138.83999633789062 C0.7310000061988831,139.5030059814453 1.7259999513626099,139.5 2.390000104904175,138.83999633789062 C14.227999687194824,127.06999969482422 22.90999984741211,133.27000427246094 26.989999771118164,136.9199981689453 C27.6299991607666,137.49000549316406 28.599000930786133,137.3990020751953 29.1200008392334,136.72999572753906 C38.28499984741211,124.95600128173828 46.880001068115234,130.47000122070312 49.27000045776367,132.2899932861328 C50.68000030517578,133.3699951171875 52.66999816894531,133.0500030517578 53.70000076293945,131.61000061035156 C55.47999954223633,129.10000610351562 57.20000076293945,127.80999755859375 59.43000030517578,127.05999755859375 C62.104000091552734,126.1709976196289 65.10600280761719,128.24600219726562 66.66699981689453,128.9720001220703 C67.32599639892578,129.2779998779297 68.0979995727539,129.18099975585938 68.64600372314453,128.70399475097656 C69.75399780273438,127.74099731445312 71.66699981689453,125.22599792480469 73.1760025024414,124.80899810791016 C76.26200103759766,123.95600128173828 78.36199951171875,123.927001953125 82.19999694824219,126.94999694824219z"></path></g><g opacity="1" transform="matrix(1,0,0,1,0,0)"><path fill="url(#__lottie_element_3829)" fill-opacity="1" d=" M159.52699279785156,-116.81600189208984 C127.90899658203125,-178.9219970703125 50.15999984741211,-200.57000732421875 1.2589999437332153,-200.57000732421875 C-47.641998291015625,-200.57000732421875 -125.45099639892578,-178.9219970703125 -157.06900024414062,-116.81600189208984 C-174.5850067138672,-82.40899658203125 -164.8419952392578,-46.89400100708008 -159.06900024414062,-21.475000381469727 C-156.4409942626953,-9.902999877929688 -156.67799377441406,-0.00800000037997961 -153.28399658203125,7.5279998779296875 C-150.781005859375,13.085000038146973 -149.49099731445312,21.038999557495117 -149.46800231933594,27.134000778198242 C-149.4340057373047,36.013999938964844 -146.76199340820312,46.68600082397461 -141.94000244140625,54.000999450683594 C-131.8520050048828,69.30400085449219 -99.95600128173828,75.14199829101562 -80.92500305175781,77.51300048828125 C-73.42400360107422,78.447998046875 -70.23300170898438,84.28800201416016 -69.50199890136719,88.0780029296875 C-68.36399841308594,93.97699737548828 -65.28700256347656,106.50399780273438 -57.608001708984375,111.85600280761719 C-36.025001525878906,126.89800262451172 50.09000015258789,124.39299774169922 61.064998626708984,111.85700225830078 C67.22899627685547,104.81600189208984 70.64800262451172,96.51499938964844 72.95999908447266,88.08200073242188 C73.98100280761719,84.35700225830078 77.11799621582031,78.447998046875 84.38800048828125,77.51200103759766 C103.40799713134766,75.06400299072266 133.7760009765625,67.78099822998047 144.3990020751953,54.000999450683594 C149.73699951171875,47.07699966430664 151.88600158691406,36.071998596191406 151.9250030517578,27.18899917602539 C151.95199584960938,21.073999404907227 153.23300170898438,13.097999572753906 155.74400329589844,7.521999835968018 C159.1909942626953,-0.13099999725818634 159.01400756835938,-10.21500015258789 161.64999389648438,-22.016000747680664 C167.31300354003906,-47.36899948120117 176.91900634765625,-82.6520004272461 159.52699279785156,-116.81600189208984z"></path></g><g opacity="0.5" transform="matrix(1,0,0,1,0,0)"><path fill="rgb(255,255,255)" fill-opacity="1" d=" M111.93499755859375,-149.72900390625 C111.93499755859375,-121.6500015258789 62.369998931884766,-98.88899993896484 1.2289999723434448,-98.88899993896484 C-59.9119987487793,-98.88899993896484 -109.47599792480469,-121.6500015258789 -109.47599792480469,-149.72900390625 C-109.47599792480469,-177.80799865722656 -59.9119987487793,-200.57000732421875 1.2289999723434448,-200.57000732421875 C62.369998931884766,-200.57000732421875 111.93499755859375,-177.80799865722656 111.93499755859375,-149.72900390625z"></path></g><g opacity="1" transform="matrix(1,0,0,1,0,0)"><g opacity="1" transform="matrix(1,0,0,1,0,0)"><path stroke-linecap="round" stroke-linejoin="miter" fill-opacity="0" stroke-miterlimit="10" stroke="rgb(114,123,124)" stroke-opacity="1" stroke-width="8" d=" M77.5719985961914,129.67599487304688 C82.19499969482422,119.68599700927734 83.41300201416016,111.54100036621094 84.91899871826172,103.73300170898438 C85.73699951171875,99.49199676513672 94.45500183105469,96.1449966430664 98.68399810791016,95.26799774169922 C119.68000030517578,90.91600036621094 138.5659942626953,82.55599975585938 148.28599548339844,73.3219985961914 C155.3730010986328,66.58899688720703 156.65899658203125,51.03799819946289 156.70199584960938,41.10599899291992 C156.73199462890625,34.268001556396484 158.16400146484375,27.520999908447266 160.9720001220703,21.285999298095703 C173.10499572753906,-5.6539998054504395 201.13499450683594,-67.12000274658203 172.63600158691406,-123.10099792480469 C137.2830047607422,-192.54299926757812 55.941001892089844,-215.6300048828125 1.2630000114440918,-215.6300048828125 C-53.415000915527344,-215.6300048828125 -134.8249969482422,-192.54299926757812 -170.17799377441406,-123.10099792480469 C-198.67999267578125,-67.11499786376953 -170.64199829101562,-5.64300012588501 -158.51100158691406,21.292999267578125 C-155.71299743652344,27.506999969482422 -154.27099609375,34.229000091552734 -154.2449951171875,41.04399871826172 C-154.20700073242188,50.972999572753906 -152.92999267578125,66.57499694824219 -145.8280029296875,73.3219985961914 C-136.10699462890625,82.55699920654297 -117.21800231933594,90.91799926757812 -96.22000122070312,95.26899719238281 C-91.99400329589844,96.1449966430664 -83.81300354003906,99.48999786376953 -82.99600219726562,103.72799682617188 C-81.48999786376953,111.53500366210938 -79.43599700927734,121.51300048828125 -75.11499786376953,129.67599487304688"></path></g><g opacity="1" transform="matrix(1,0,0,1,0,0)"><path stroke-linecap="round" stroke-linejoin="round" fill-opacity="0" stroke="rgb(114,123,124)" stroke-opacity="1" stroke-width="8" d=" M-154.7259979248047,34.39699935913086 C-154.7259979248047,34.39699935913086 -153.9010009765625,11.753999710083008 -156.48800659179688,-16.163000106811523"></path></g><g opacity="1" transform="matrix(1,0,0,1,0,0)"><path stroke-linecap="round" stroke-linejoin="round" fill-opacity="0" stroke="rgb(114,123,124)" stroke-opacity="1" stroke-width="8" d=" M157.00599670410156,34.39699935913086 C157.00599670410156,34.39699935913086 156.64500427246094,11.916999816894531 159.39300537109375,-15.859999656677246"></path></g></g><g opacity="1" transform="matrix(1,0,0,1,0,0)"><g opacity="1" transform="matrix(1,0,0,1,0,0)"><path stroke-linecap="round" stroke-linejoin="round" fill-opacity="0" stroke="rgb(255,255,255)" stroke-opacity="1" stroke-width="6" d=" M62.055999755859375,-190.9759979248047 C63.52299880981445,-190.4969940185547 65.04299926757812,-189.9770050048828 66.60700225830078,-189.41799926757812"></path></g><g opacity="1" transform="matrix(1,0,0,1,0,0)"><path stroke-linecap="round" stroke-linejoin="round" fill-opacity="0" stroke="rgb(255,255,255)" stroke-opacity="1" stroke-width="6" d=" M41.5369987487793,-196.23300170898438 C41.5369987487793,-196.23300170898438 46.2599983215332,-195.4980010986328 53.66999816894531,-193.48500061035156"></path></g></g></g><g style="display: block;" transform="matrix(0.9600029587745667,0,0,0.9600029587745667,256,244.0000762939453)" opacity="1"><g opacity="1" transform="matrix(1,0,0,1,0,0)"><path fill="rgb(236,236,236)" fill-opacity="1" d=" M-25.093000411987305,81.21299743652344 C-25.093000411987305,81.21299743652344 -25.738000869750977,68.95500183105469 -16.739999771118164,48.638999938964844 C-8.859000205993652,30.844999313354492 -4.821000099182129,26.347999572753906 0.9070000052452087,25.884000778198242 C6.635000228881836,25.420000076293945 12.362000465393066,31.14699935913086 19.79199981689453,48.79399871826172 C27.222000122070312,66.44100189208984 27.652000427246094,78.29900360107422 27.55299949645996,81.21299743652344 C27.55299949645996,81.21299743652344 -25.093000411987305,81.21299743652344 -25.093000411987305,81.21299743652344z"></path></g><g opacity="1" transform="matrix(1,0,0,1,0,0)"><path fill="rgb(255,255,255)" fill-opacity="1" d=" M25.572999954223633,74.2030029296875 C20.972000122070312,65.35099792480469 8.09000015258789,57.22200012207031 3.171999931335449,54.35100173950195 C1.975000023841858,53.652000427246094 0.48399999737739563,53.652000427246094 -0.7129999995231628,54.35100173950195 C-5.63100004196167,57.22200012207031 -18.511999130249023,65.35099792480469 -23.113000869750977,74.2030029296875 C-28.849000930786133,85.23899841308594 -21.30699920654297,94.09700012207031 -10.942000389099121,90.66300201416016 C-6.593999862670898,89.2229995727539 -3.3469998836517334,86.87699890136719 -1.3049999475479126,85.05799865722656 C0.12399999797344208,83.78500366210938 2.3350000381469727,83.78500366210938 3.7639999389648438,85.05799865722656 C5.806000232696533,86.87699890136719 9.053000450134277,89.2229995727539 13.401000022888184,90.66300201416016 C23.766000747680664,94.09700012207031 31.30900001525879,85.23899841308594 25.572999954223633,74.2030029296875z"></path></g><g opacity="1" transform="matrix(1,0,0,1,0,0)"><path fill="url(#__lottie_element_3844)" fill-opacity="1" d=" M24.194000244140625,68.99299621582031 C20.386999130249023,61.50600051879883 10.571000099182129,54.55500030517578 5.085000038146973,51.090999603271484 C2.7260000705718994,49.60200119018555 -0.26600000262260437,49.60300064086914 -2.625,51.09199905395508 C-8.111000061035156,54.555999755859375 -17.927000045776367,61.50600051879883 -21.733999252319336,68.99299621582031 C-27.145000457763672,79.63500213623047 -20.030000686645508,88.1760025024414 -10.251999855041504,84.86499786376953 C-6.151000022888184,83.47599792480469 -3.0869998931884766,81.21399688720703 -1.1610000133514404,79.45999908447266 C0.18700000643730164,78.23200225830078 2.2730000019073486,78.23200225830078 3.621000051498413,79.45999908447266 C5.546999931335449,81.21399688720703 8.611000061035156,83.47599792480469 12.711999893188477,84.86499786376953 C22.489999771118164,88.1760025024414 29.604999542236328,79.63500213623047 24.194000244140625,68.99299621582031z"></path></g><g opacity="1" transform="matrix(1,0,0,1,0,0)"><path fill="rgb(45,48,48)" fill-opacity="1" d=" M12.713000297546387,84.86699676513672 C8.607000350952148,83.47899627685547 5.548999786376953,81.21800231933594 3.618000030517578,79.46099853515625 C2.2690000534057617,78.22799682617188 0.19099999964237213,78.22799682617188 -1.1579999923706055,79.46099853515625 C-3.0899999141693115,81.21800231933594 -6.1479997634887695,83.47899627685547 -10.253999710083008,84.86699676513672 C-19.329999923706055,87.94400024414062 -26.114999771118164,80.79100036621094 -22.697999954223633,71.22899627685547 C-20.767000198364258,75.4520034790039 -15.972000122070312,77.55799865722656 -10.253999710083008,75.6259994506836 C-6.1479997634887695,74.23799896240234 -3.0899999141693115,71.97599792480469 -1.1579999923706055,70.22899627685547 C0.19099999964237213,68.99600219726562 2.2690000534057617,68.99600219726562 3.618000030517578,70.22899627685547 C5.548999786376953,71.97599792480469 8.607000350952148,74.23799896240234 12.713000297546387,75.6259994506836 C18.430999755859375,77.55799865722656 23.22599983215332,75.4520034790039 25.158000946044922,71.22899627685547 C28.575000762939453,80.79100036621094 21.788999557495117,87.94400024414062 12.713000297546387,84.86699676513672z"></path></g></g><g style="display: block;" transform="matrix(0.9600029587745667,0,0,0.9600029587745667,256,244.0000762939453)" opacity="1"><g opacity="1" transform="matrix(1,0,0,1,0,0)"><path fill="rgb(197,200,201)" fill-opacity="1" d=" M137.02499389648438,-24.77400016784668 C142.17100524902344,-14.979999542236328 157.00100708007812,28.84000015258789 120.66100311279297,25.857999801635742 C120.66100311279297,25.857999801635742 68.6449966430664,81.52999877929688 19.948999404907227,10.12399959564209 C10.829000473022461,-3.25 -8.906999588012695,-3.190999984741211 -18.040000915527344,10.173999786376953 C-71.09400177001953,87.81099700927734 -120.27999877929688,24.64699935913086 -120.27999877929688,24.64699935913086 C-149.46800231933594,27.132999420166016 -141.91400146484375,-7.289999961853027 -135.5030059814453,-22.58300018310547 C-127.73899841308594,-41.10200119018555 -113.45500183105469,-55.20199966430664 -84.09700012207031,-62.948001861572266 C-56.766998291015625,-70.15899658203125 -26.93899917602539,-60.902000427246094 1.0959999561309814,-60.902000427246094 C28.604999542236328,-60.902000427246094 58.17499923706055,-70.15899658203125 86.39099884033203,-62.42599868774414 C110.81900024414062,-55.73099899291992 126.80599975585938,-44.22200012207031 137.02499389648438,-24.77400016784668z"></path></g></g><g style="display: block;" transform="matrix(0.9600029587745667,0,0,0.9600029587745667,256,244.0000762939453)" opacity="1"><g opacity="1" transform="matrix(1,0,0,1,0,0)"><path fill="rgb(255,255,255)" fill-opacity="1" d=" M-19.290000915527344,7.372000217437744 C-13.982999801635742,-19.149999618530273 -20.375999450683594,-51.04199981689453 -72.0780029296875,-42.9379997253418 C-123.86100006103516,-34.82099914550781 -126.45999908447266,3.055999994277954 -122.6719970703125,20.913000106811523 C-118.88400268554688,38.77000045776367 -109.61699676513672,68.68900299072266 -70.98200225830078,60.41400146484375 C-38.98099899291992,53.560001373291016 -24.15999984741211,31.708999633789062 -19.290000915527344,7.372000217437744z"></path></g><g opacity="1" transform="matrix(1,0,0,1,0,0)"><path fill="url(#__lottie_element_3837)" fill-opacity="1" d=" M-20.26099967956543,-1.3650000095367432 C-14.954000473022461,-27.886999130249023 -21.347000122070312,-59.77799987792969 -73.04900360107422,-51.67399978637695 C-124.83200073242188,-43.55699920654297 -127.43099975585938,-5.681000232696533 -123.64299774169922,12.175999641418457 C-119.8550033569336,30.033000946044922 -110.58799743652344,59.95199966430664 -71.9530029296875,51.676998138427734 C-39.95199966430664,44.823001861572266 -25.131000518798828,22.972000122070312 -20.26099967956543,-1.3650000095367432z"></path></g><g opacity="1" transform="matrix(1,0,0,1,0,0)"><path fill="rgb(45,48,48)" fill-opacity="1" d=" M-19.902000427246094,-3.253999948501587 C-20.018999099731445,-2.622999906539917 -20.13599967956543,-1.9919999837875366 -20.261999130249023,-1.3609999418258667 C-25.135000228881836,22.975000381469727 -39.948001861572266,44.82600021362305 -71.9520034790039,51.67900085449219 C-110.58599853515625,59.95000076293945 -119.85700225830078,30.0310001373291 -123.64299774169922,12.180000305175781 C-125.29299926757812,4.4039998054504395 -125.7300033569336,-7.176000118255615 -121.41999816894531,-18.43600082397461 C-122.37100219726562,-11.253000259399414 -121.80799865722656,-4.535999774932861 -120.73100280761719,0.5509999990463257 C-116.94499969482422,18.41200065612793 -107.67400360107422,48.33000183105469 -69.04000091552734,40.04999923706055 C-41.375,34.12900161743164 -26.56100082397461,16.9950008392334 -19.902000427246094,-3.253999948501587z"></path></g></g><g style="display: block;" transform="matrix(0.9600029587745667,0,0,0.9600029587745667,256,244.0000762939453)" opacity="1"><g opacity="1" transform="matrix(1,0,0,1,0,0)"><path fill="rgb(255,255,255)" fill-opacity="1" d=" M21.277999877929688,7.372000217437744 C15.970999717712402,-19.149999618530273 22.36400032043457,-51.04199981689453 74.06600189208984,-42.9379997253418 C125.8489990234375,-34.82099914550781 128.447998046875,3.055999994277954 124.66000366210938,20.913000106811523 C120.87200164794922,38.77000045776367 111.6050033569336,68.68900299072266 72.97000122070312,60.41400146484375 C40.96900177001953,53.560001373291016 26.148000717163086,31.708999633789062 21.277999877929688,7.372000217437744z"></path></g><g opacity="1" transform="matrix(1,0,0,1,0,0)"><path fill="url(#__lottie_element_3833)" fill-opacity="1" d=" M22.249000549316406,-1.3650000095367432 C16.941999435424805,-27.886999130249023 23.334999084472656,-59.77799987792969 75.03700256347656,-51.67399978637695 C126.81999969482422,-43.55699920654297 129.41799926757812,-5.681000232696533 125.62999725341797,12.175999641418457 C121.84200286865234,30.033000946044922 112.57499694824219,59.95199966430664 73.94000244140625,51.676998138427734 C41.93899917602539,44.823001861572266 27.118999481201172,22.972000122070312 22.249000549316406,-1.3650000095367432z"></path></g><g opacity="1" transform="matrix(1,0,0,1,0,0)"><path fill="rgb(45,48,48)" fill-opacity="1" d=" M125.62699890136719,12.180000305175781 C121.84100341796875,30.0310001373291 112.57099914550781,59.95000076293945 73.93699645996094,51.67900085449219 C41.94200134277344,44.82600021362305 27.118999481201172,22.975000381469727 22.246000289916992,-1.3609999418258667 C22.1200008392334,-1.9919999837875366 22.003999710083008,-2.622999906539917 21.886999130249023,-3.253999948501587 C28.54599952697754,16.9950008392334 43.36800003051758,34.12900161743164 71.02400207519531,40.04999923706055 C109.65799713134766,48.33000183105469 118.92900085449219,18.41200065612793 122.71499633789062,0.5509999990463257 C123.79199981689453,-4.535999774932861 124.3550033569336,-11.253000259399414 123.40399932861328,-18.445999145507812 C127.7239990234375,-7.185999870300293 127.2770004272461,4.394999980926514 125.62699890136719,12.180000305175781z"></path></g></g><g clip-path="url(#__lottie_element_3812)" style="display: none;"><g style="display: none;"><g><path stroke-linecap="round" stroke-linejoin="round" fill-opacity="0"></path></g></g><g style="display: none;"><g><path stroke-linecap="round" stroke-linejoin="round" fill-opacity="0"></path></g></g><g style="display: none;"><g><path stroke-linecap="round" stroke-linejoin="round" fill-opacity="0"></path></g></g></g><g clip-path="url(#__lottie_element_3799)" style="display: none;"><g style="display: none;"><g><path stroke-linecap="round" stroke-linejoin="round" fill-opacity="0"></path></g></g><g style="display: none;"><g><path stroke-linecap="round" stroke-linejoin="round" fill-opacity="0"></path></g></g><g style="display: none;"><g><path stroke-linecap="round" stroke-linejoin="round" fill-opacity="0"></path></g></g></g><g clip-path="url(#__lottie_element_3786)" style="display: none;"><g style="display: none;"><g><path stroke-linecap="round" stroke-linejoin="round" fill-opacity="0"></path></g></g><g style="display: none;"><g><path stroke-linecap="round" stroke-linejoin="round" fill-opacity="0"></path></g></g><g style="display: none;"><g><path stroke-linecap="round" stroke-linejoin="round" fill-opacity="0"></path></g></g></g><g clip-path="url(#__lottie_element_3773)" style="display: none;"><g style="display: none;"><g><path stroke-linecap="round" stroke-linejoin="round" fill-opacity="0"></path></g></g><g style="display: none;"><g><path stroke-linecap="round" stroke-linejoin="round" fill-opacity="0"></path></g></g><g style="display: none;"><g><path stroke-linecap="round" stroke-linejoin="round" fill-opacity="0"></path></g></g></g><g clip-path="url(#__lottie_element_3760)" style="display: none;"><g style="display: none;"><g><path stroke-linecap="round" stroke-linejoin="round" fill-opacity="0"></path></g></g><g style="display: none;"><g><path stroke-linecap="round" stroke-linejoin="round" fill-opacity="0"></path></g></g><g style="display: none;"><g><path stroke-linecap="round" stroke-linejoin="round" fill-opacity="0"></path></g></g></g><g clip-path="url(#__lottie_element_3747)" style="display: none;"><g style="display: none;"><g><path stroke-linecap="round" stroke-linejoin="round" fill-opacity="0"></path></g></g><g style="display: none;"><g><path stroke-linecap="round" stroke-linejoin="round" fill-opacity="0"></path></g></g><g style="display: none;"><g><path stroke-linecap="round" stroke-linejoin="round" fill-opacity="0"></path></g></g></g><g clip-path="url(#__lottie_element_3734)" style="display: none;"><g style="display: none;"><g><path stroke-linecap="round" stroke-linejoin="round" fill-opacity="0"></path></g></g><g style="display: none;"><g><path stroke-linecap="round" stroke-linejoin="round" fill-opacity="0"></path></g></g><g style="display: none;"><g><path stroke-linecap="round" stroke-linejoin="round" fill-opacity="0"></path></g></g></g><g clip-path="url(#__lottie_element_3721)" style="display: none;"><g style="display: none;"><g><path stroke-linecap="round" stroke-linejoin="round" fill-opacity="0"></path></g></g><g style="display: none;"><g><path stroke-linecap="round" stroke-linejoin="round" fill-opacity="0"></path></g></g><g style="display: none;"><g><path stroke-linecap="round" stroke-linejoin="round" fill-opacity="0"></path></g></g></g><g clip-path="url(#__lottie_element_3708)" style="display: none;"><g style="display: none;"><g><path stroke-linecap="round" stroke-linejoin="round" fill-opacity="0"></path></g></g><g style="display: none;"><g><path stroke-linecap="round" stroke-linejoin="round" fill-opacity="0"></path></g></g><g style="display: none;"><g><path stroke-linecap="round" stroke-linejoin="round" fill-opacity="0"></path></g></g></g><g clip-path="url(#__lottie_element_3695)" style="display: none;"><g style="display: none;"><g><path stroke-linecap="round" stroke-linejoin="round" fill-opacity="0"></path></g></g><g style="display: none;"><g><path stroke-linecap="round" stroke-linejoin="round" fill-opacity="0"></path></g></g><g style="display: none;"><g><path stroke-linecap="round" stroke-linejoin="round" fill-opacity="0"></path></g></g></g></g></svg>