<svg xmlns="http://www.w3.org/2000/svg" viewBox="0 0 512 512" width="512" height="512" style="width: 100%; height: 100%; transform: translate3d(0,0,0);" preserveAspectRatio="xMidYMid meet"><defs><clipPath id="__lottie_element_4031"><rect width="512" height="512" x="0" y="0"></rect></clipPath><linearGradient id="__lottie_element_4037" spreadMethod="pad" gradientUnits="userSpaceOnUse" x1="160.85800170898438" y1="101.55999755859375" x2="-93.05699920654297" y2="-76.03399658203125"><stop offset="0%" stop-color="rgb(94,44,18)"></stop><stop offset="50%" stop-color="rgb(113,61,32)"></stop><stop offset="100%" stop-color="rgb(133,78,47)"></stop></linearGradient><linearGradient id="__lottie_element_4038" spreadMethod="pad" gradientUnits="userSpaceOnUse" x1="126.85800170898438" y1="116.89099884033203" x2="-134.60400390625" y2="-126.43599700927734"><stop offset="13%" stop-color="rgb(133,78,47)"></stop><stop offset="72%" stop-color="rgb(171,114,78)"></stop><stop offset="100%" stop-color="rgb(209,151,109)"></stop></linearGradient><linearGradient id="__lottie_element_4047" spreadMethod="pad" gradientUnits="userSpaceOnUse"><stop></stop><stop></stop><stop></stop></linearGradient><linearGradient id="__lottie_element_4052" spreadMethod="pad" gradientUnits="userSpaceOnUse" x1="167.01100158691406" y1="-43.77399826049805" x2="-186.3520050048828" y2="8.236000061035156"><stop offset="13%" stop-color="rgb(133,78,47)"></stop><stop offset="72%" stop-color="rgb(171,114,78)"></stop><stop offset="100%" stop-color="rgb(209,151,109)"></stop></linearGradient></defs><g clip-path="url(#__lottie_element_4031)"><g style="display: block;" transform="matrix(1,0,0,1,0.00043764355359598994,0.00016920058988034725)" opacity="1"><g opacity="1" transform="matrix(1,0,0,1,0,0)"><g opacity="1" transform="matrix(1,0,0,1,234.14199829101562,318.4570007324219)"><path fill="url(#__lottie_element_4037)" fill-opacity="1" d=" M-181.0469970703125,-155.60800170898438 C-181.0469970703125,-155.60800170898438 -181.0469970703125,-93.5510025024414 -181.0469970703125,-93.5510025024414 C-181.0469970703125,-93.5510025024414 -152.1540069580078,4.958000183105469 -152.1540069580078,4.958000183105469 C-152.1540069580078,4.958000183105469 97.77899932861328,188.8419952392578 97.77899932861328,188.8419952392578 C97.77899932861328,188.8419952392578 181.0469970703125,131.44200134277344 181.0469970703125,131.44200134277344 C181.0469970703125,131.44200134277344 181.0469970703125,75.57499694824219 181.0469970703125,75.57499694824219 C181.0469970703125,75.57499694824219 14.458000183105469,-132.0260009765625 14.458000183105469,-132.0260009765625 C14.458000183105469,-132.0260009765625 -103.89800262451172,-188.8419952392578 -103.89800262451172,-188.8419952392578 C-103.89800262451172,-188.8419952392578 -181.0469970703125,-155.60800170898438 -181.0469970703125,-155.60800170898438z"></path></g><g opacity="0.15" transform="matrix(1,0,0,1,94.70800018310547,302.7049865722656)"><path fill="rgb(255,255,255)" fill-opacity="1" d=" M-4.401000022888184,-32.45600128173828 C-4.401000022888184,-32.45600128173828 -4.401000022888184,16.566999435424805 -4.401000022888184,16.566999435424805 C-4.401000022888184,16.566999435424805 12.720000267028809,39.426998138427734 12.720000267028809,39.426998138427734 C12.720000267028809,39.426998138427734 -12.720000267028809,20.709999084472656 -12.720000267028809,20.709999084472656 C-12.720000267028809,20.709999084472656 -12.720000267028809,-39.426998138427734 -12.720000267028809,-39.426998138427734 C-12.720000267028809,-39.426998138427734 -4.401000022888184,-32.45600128173828 -4.401000022888184,-32.45600128173828z"></path></g><g opacity="0.1" transform="matrix(1,0,0,1,319.5039978027344,475.9010009765625)"><path fill="rgb(255,255,255)" fill-opacity="1" d=" M3.055999994277954,-31.398000717163086 C3.055999994277954,-31.398000717163086 3.055999994277954,14.848999977111816 3.055999994277954,14.848999977111816 C3.055999994277954,14.848999977111816 -12.416999816894531,13.126999855041504 -12.416999816894531,13.126999855041504 C-12.416999816894531,13.126999855041504 3.055999994277954,24.51099967956543 3.055999994277954,24.51099967956543 C3.055999994277954,24.51099967956543 12.416999816894531,31.398000717163086 12.416999816894531,31.398000717163086 C12.416999816894531,31.398000717163086 12.416999816894531,-25.26300048828125 12.416999816894531,-25.26300048828125 C12.416999816894531,-25.26300048828125 3.055999994277954,-31.398000717163086 3.055999994277954,-31.398000717163086z"></path></g><g opacity="1" transform="matrix(1,0,0,1,234.14199829101562,318.4570007324219)"><path stroke-linecap="round" stroke-linejoin="round" fill-opacity="0" stroke="rgb(53,13,2)" stroke-opacity="1" stroke-width="8" d=" M-181.0469970703125,-155.60800170898438 C-181.0469970703125,-155.60800170898438 -181.0469970703125,-93.5510025024414 -181.0469970703125,-93.5510025024414 C-181.0469970703125,-93.5510025024414 -152.1540069580078,4.958000183105469 -152.1540069580078,4.958000183105469 C-152.1540069580078,4.958000183105469 97.77899932861328,188.8419952392578 97.77899932861328,188.8419952392578 C97.77899932861328,188.8419952392578 181.0469970703125,131.44200134277344 181.0469970703125,131.44200134277344 C181.0469970703125,131.44200134277344 181.0469970703125,75.57499694824219 181.0469970703125,75.57499694824219 C181.0469970703125,75.57499694824219 14.458000183105469,-132.0260009765625 14.458000183105469,-132.0260009765625 C14.458000183105469,-132.0260009765625 -103.89800262451172,-188.8419952392578 -103.89800262451172,-188.8419952392578 C-103.89800262451172,-188.8419952392578 -181.0469970703125,-155.60800170898438 -181.0469970703125,-155.60800170898438z"></path></g><g opacity="1" transform="matrix(1,0,0,1,67.54199981689453,243.13299560546875)"><path fill="rgb(128,87,71)" fill-opacity="1" d=" M14.446000099182129,80.28299713134766 C14.446000099182129,80.28299713134766 14.446000099182129,20.145999908447266 14.446000099182129,20.145999908447266 C14.446000099182129,20.145999908447266 -14.446000099182129,-80.28299713134766 -14.446000099182129,-80.28299713134766 C-14.446000099182129,-80.28299713134766 -14.446000099182129,-18.226999282836914 -14.446000099182129,-18.226999282836914 C-14.446000099182129,-18.226999282836914 14.446000099182129,80.28299713134766 14.446000099182129,80.28299713134766z"></path></g><g opacity="1" transform="matrix(1,0,0,1,67.54199981689453,243.13299560546875)"><path fill="rgb(142,76,50)" fill-opacity="1" d=" M14.446000099182129,80.28299713134766 C14.446000099182129,80.28299713134766 14.446000099182129,20.145999908447266 14.446000099182129,20.145999908447266 C14.446000099182129,20.145999908447266 -14.446000099182129,-80.28299713134766 -14.446000099182129,-80.28299713134766 C-14.446000099182129,-80.28299713134766 -14.446000099182129,-18.226999282836914 -14.446000099182129,-18.226999282836914 C-14.446000099182129,-18.226999282836914 14.446000099182129,80.28299713134766 14.446000099182129,80.28299713134766z"></path></g><g opacity="0.15" transform="matrix(1,0,0,1,60.64699935913086,217.49899291992188)"><path fill="rgb(255,255,255)" fill-opacity="1" d=" M0.7390000224113464,-25.961000442504883 C0.7390000224113464,-25.961000442504883 0.7390000224113464,10.956000328063965 0.7390000224113464,10.956000328063965 C0.7390000224113464,10.956000328063965 6.669000148773193,53.768001556396484 6.669000148773193,53.768001556396484 C6.669000148773193,53.768001556396484 -6.669000148773193,8.288999557495117 -6.669000148773193,8.288999557495117 C-6.669000148773193,8.288999557495117 -6.669000148773193,-53.768001556396484 -6.669000148773193,-53.768001556396484 C-6.669000148773193,-53.768001556396484 0.7390000224113464,-25.961000442504883 0.7390000224113464,-25.961000442504883z"></path></g><g opacity="1" transform="matrix(1,0,0,1,67.54199981689453,243.13299560546875)"><path stroke-linecap="round" stroke-linejoin="round" fill-opacity="0" stroke="rgb(96,46,30)" stroke-opacity="1" stroke-width="8" d=" M14.446000099182129,80.28299713134766 C14.446000099182129,80.28299713134766 14.446000099182129,20.145999908447266 14.446000099182129,20.145999908447266 C14.446000099182129,20.145999908447266 -14.446000099182129,-80.28299713134766 -14.446000099182129,-80.28299713134766 C-14.446000099182129,-80.28299713134766 -14.446000099182129,-18.226999282836914 -14.446000099182129,-18.226999282836914 C-14.446000099182129,-18.226999282836914 14.446000099182129,80.28299713134766 14.446000099182129,80.28299713134766z"></path></g><g opacity="1" transform="matrix(1,0,0,1,373.55499267578125,450.6659851074219)"><path fill="rgb(38,10,3)" fill-opacity="1" d=" M-41.63399887084961,56.632999420166016 C-41.63399887084961,56.632999420166016 -41.63399887084961,-0.02800000086426735 -41.63399887084961,-0.02800000086426735 C-41.63399887084961,-0.02800000086426735 41.63399887084961,-56.632999420166016 41.63399887084961,-56.632999420166016 C41.63399887084961,-56.632999420166016 41.63399887084961,-0.7670000195503235 41.63399887084961,-0.7670000195503235 C41.63399887084961,-0.7670000195503235 -41.63399887084961,56.632999420166016 -41.63399887084961,56.632999420166016z"></path></g><g opacity="0.1" transform="matrix(1,0,0,1,397.4119873046875,433.9159851074219)"><path fill="rgb(255,255,255)" fill-opacity="1" d=" M17.780000686645508,-39.88600158691406 C17.780000686645508,-39.88600158691406 17.780000686645508,15.982000350952148 17.780000686645508,15.982000350952148 C17.780000686645508,15.982000350952148 7.502999782562256,23.06599998474121 7.502999782562256,23.06599998474121 C7.502999782562256,23.06599998474121 -17.780000686645508,39.88600158691406 -17.780000686645508,39.88600158691406 C-17.780000686645508,39.88600158691406 9.267999649047852,11.920999526977539 9.267999649047852,11.920999526977539 C9.267999649047852,11.920999526977539 9.267999649047852,-33.78200149536133 9.267999649047852,-33.78200149536133 C9.267999649047852,-33.78200149536133 17.780000686645508,-39.88600158691406 17.780000686645508,-39.88600158691406z"></path></g><g opacity="1" transform="matrix(1,0,0,1,373.55499267578125,450.6659851074219)"><path stroke-linecap="round" stroke-linejoin="round" fill-opacity="0" stroke="rgb(15,4,1)" stroke-opacity="1" stroke-width="8" d=" M-41.63399887084961,56.632999420166016 C-41.63399887084961,56.632999420166016 -41.63399887084961,-0.02800000086426735 -41.63399887084961,-0.02800000086426735 C-41.63399887084961,-0.02800000086426735 41.63399887084961,-56.632999420166016 41.63399887084961,-56.632999420166016 C41.63399887084961,-56.632999420166016 41.63399887084961,-0.7670000195503235 41.63399887084961,-0.7670000195503235 C41.63399887084961,-0.7670000195503235 -41.63399887084961,56.632999420166016 -41.63399887084961,56.632999420166016z"></path></g><g opacity="1" transform="matrix(1,0,0,1,116.71299743652344,329.8599853515625)"><path stroke-linecap="round" stroke-linejoin="round" fill-opacity="0" stroke="rgb(96,46,30)" stroke-opacity="1" stroke-width="5" d=" M-14.805999755859375,-9.704999923706055 C-14.805999755859375,-9.704999923706055 -3.933000087738037,6.090000152587891 14.805999755859375,9.704999923706055"></path></g><g opacity="0.6" transform="matrix(1,0,0,1,276.3590087890625,446.22698974609375)"><path stroke-linecap="round" stroke-linejoin="round" fill-opacity="0" stroke="rgb(15,4,1)" stroke-opacity="1" stroke-width="5" d=" M-14.805999755859375,-9.704999923706055 C-14.805999755859375,-9.704999923706055 -3.933000087738037,6.090000152587891 14.805999755859375,9.704999923706055"></path></g><g opacity="1" transform="matrix(1,0,0,1,117.59600067138672,326.33099365234375)"><path stroke-linecap="round" stroke-linejoin="round" fill-opacity="0" stroke="rgb(191,148,90)" stroke-opacity="1" stroke-width="5" d=" M-14.805999755859375,-9.704999923706055 C-14.805999755859375,-9.704999923706055 -3.933000087738037,6.090000152587891 14.805999755859375,9.704999923706055"></path></g><g opacity="1" transform="matrix(1,0,0,1,277.2409973144531,442.697998046875)"><path stroke-linecap="round" stroke-linejoin="round" fill-opacity="0" stroke="rgb(191,148,90)" stroke-opacity="1" stroke-width="5" d=" M-14.805999755859375,-9.704999923706055 C-14.805999755859375,-9.704999923706055 -3.933000087738037,6.090000152587891 14.805999755859375,9.704999923706055"></path></g><g opacity="1" transform="matrix(1,0,0,1,304.9939880371094,487.489013671875)"><path stroke-linecap="round" stroke-linejoin="round" fill-opacity="0" stroke="rgb(15,4,1)" stroke-opacity="1" stroke-width="8" d=" M26.927000045776367,19.81100082397461 C26.927000045776367,19.81100082397461 -26.927000045776367,-19.81100082397461 -26.927000045776367,-19.81100082397461"></path></g><g opacity="1" transform="matrix(1,0,0,1,239.29800415039062,442.4289855957031)"><path fill="rgb(15,4,1)" fill-opacity="1" d=" M40.83399963378906,22.39900016784668 C21.013999938964844,9.477999687194824 -40.83399963378906,-29.017000198364258 -40.83399963378906,-29.017000198364258 C-40.83399963378906,-29.017000198364258 37.94300079345703,29.017000198364258 37.94300079345703,29.017000198364258 C37.94300079345703,29.017000198364258 40.83399963378906,22.39900016784668 40.83399963378906,22.39900016784668z"></path></g></g><g opacity="1" transform="matrix(1,0,0,1,0,0)"><g opacity="1" transform="matrix(1,0,0,1,234.14199829101562,290.1260070800781)"><path fill="url(#__lottie_element_4038)" fill-opacity="1" d=" M-103.89800262451172,-160.51199340820312 C-103.89800262451172,-160.51199340820312 -181.0469970703125,-127.2770004272461 -181.0469970703125,-127.2770004272461 C-181.0469970703125,-127.2770004272461 -152.1540069580078,-26.847999572753906 -152.1540069580078,-26.847999572753906 C-152.1540069580078,-26.847999572753906 97.77899932861328,160.51199340820312 97.77899932861328,160.51199340820312 C97.77899932861328,160.51199340820312 181.0469970703125,103.90599822998047 181.0469970703125,103.90599822998047 C181.0469970703125,103.90599822998047 14.458000183105469,-103.69599914550781 14.458000183105469,-103.69599914550781 C14.458000183105469,-103.69599914550781 -103.89800262451172,-160.51199340820312 -103.89800262451172,-160.51199340820312z"></path></g><g opacity="1" transform="matrix(1,0,0,1,231.2270050048828,286.7179870605469)"><path fill="rgb(255,255,255)" fill-opacity="1" d=" M159.6179962158203,100.77200317382812 C159.6179962158203,100.77200317382812 99.81500244140625,141.71400451660156 99.81500244140625,141.71400451660156 C99.81500244140625,141.71400451660156 -133.81399536132812,-33.619998931884766 -133.81399536132812,-33.619998931884766 C-133.81399536132812,-33.619998931884766 -159.6179962158203,-115.9280014038086 -159.6179962158203,-115.9280014038086 C-159.6179962158203,-115.9280014038086 -99.39099884033203,-141.71400451660156 -99.39099884033203,-141.71400451660156 C-99.39099884033203,-141.71400451660156 4.679999828338623,-91.39399719238281 4.679999828338623,-91.39399719238281 C4.679999828338623,-91.39399719238281 159.6179962158203,100.77200317382812 159.6179962158203,100.77200317382812z"></path></g><g opacity="1" transform="matrix(1,0,0,1,226.0919952392578,307.84698486328125)"><path fill="rgb(234,220,211)" fill-opacity="1" d=" M142.80299377441406,94.6760025024414 C142.80299377441406,94.6760025024414 104.9489974975586,120.58599853515625 104.9489974975586,120.58599853515625 C104.9489974975586,120.58599853515625 -128.67999267578125,-54.74800109863281 -128.67999267578125,-54.74800109863281 C-128.67999267578125,-54.74800109863281 -142.80299377441406,-99.8010025024414 -142.80299377441406,-99.8010025024414 C-142.80299377441406,-99.8010025024414 -94.25700378417969,-120.58599853515625 -94.25700378417969,-120.58599853515625 C-94.25700378417969,-120.58599853515625 9.814000129699707,-70.26599884033203 9.814000129699707,-70.26599884033203 C9.814000129699707,-70.26599884033203 142.80299377441406,94.6760025024414 142.80299377441406,94.6760025024414z"></path><path stroke-linecap="round" stroke-linejoin="round" fill-opacity="0" stroke="rgb(201,171,151)" stroke-opacity="1" stroke-width="8" d=" M142.80299377441406,94.6760025024414 C142.80299377441406,94.6760025024414 104.9489974975586,120.58599853515625 104.9489974975586,120.58599853515625 C104.9489974975586,120.58599853515625 -128.67999267578125,-54.74800109863281 -128.67999267578125,-54.74800109863281 C-128.67999267578125,-54.74800109863281 -142.80299377441406,-99.8010025024414 -142.80299377441406,-99.8010025024414 C-142.80299377441406,-99.8010025024414 -94.25700378417969,-120.58599853515625 -94.25700378417969,-120.58599853515625 C-94.25700378417969,-120.58599853515625 9.814000129699707,-70.26599884033203 9.814000129699707,-70.26599884033203 C9.814000129699707,-70.26599884033203 142.80299377441406,94.6760025024414 142.80299377441406,94.6760025024414z"></path></g><g opacity="1" transform="matrix(1,0,0,1,313.3760070800781,311.87799072265625)"><path fill="rgb(221,207,195)" fill-opacity="1" d=" M-77.46900177001953,-74.2969970703125 C-77.46900177001953,-74.2969970703125 -8.380999565124512,97.00599670410156 -8.380999565124512,97.00599670410156 C-8.380999565124512,97.00599670410156 17.666000366210938,116.55400085449219 17.666000366210938,116.55400085449219 C17.666000366210938,116.55400085449219 77.46900177001953,75.61199951171875 77.46900177001953,75.61199951171875 C77.46900177001953,75.61199951171875 -77.46900177001953,-116.55400085449219 -77.46900177001953,-116.55400085449219 C-77.46900177001953,-116.55400085449219 -77.46900177001953,-74.2969970703125 -77.46900177001953,-74.2969970703125z"></path></g><g opacity="1" transform="matrix(1,0,0,1,101.72200012207031,176.52499389648438)"><path fill="rgb(221,207,195)" fill-opacity="1" d=" M30.113000869750977,-31.520000457763672 C30.113000869750977,-31.520000457763672 30.113000869750977,10.736000061035156 30.113000869750977,10.736000061035156 C30.113000869750977,10.736000061035156 18.996000289916992,18.304000854492188 2.1040000915527344,25.06599998474121 C-11.920999526977539,30.68000030517578 -18.433000564575195,31.520000457763672 -18.433000564575195,31.520000457763672 C-18.433000564575195,31.520000457763672 -30.113000869750977,-5.734000205993652 -30.113000869750977,-5.734000205993652 C-30.113000869750977,-5.734000205993652 30.113000869750977,-31.520000457763672 30.113000869750977,-31.520000457763672z"></path></g><g opacity="0.3" transform="matrix(1,0,0,1,112.16500091552734,173.7729949951172)"><path fill="rgb(255,255,255)" fill-opacity="1" d=" M11.529000282287598,-25.281999588012695 C11.529000282287598,-25.281999588012695 11.529000282287598,9.621000289916992 11.529000282287598,9.621000289916992 C11.529000282287598,9.621000289916992 5.961999893188477,16.04800033569336 -19.67099952697754,28.76799964904785 C-19.67099952697754,28.76799964904785 3.2109999656677246,25.0310001373291 19.67099952697754,13.48799991607666 C19.67099952697754,13.48799991607666 19.67099952697754,-28.76799964904785 19.67099952697754,-28.76799964904785 C19.67099952697754,-28.76799964904785 11.529000282287598,-25.281999588012695 11.529000282287598,-25.281999588012695z"></path></g><g opacity="1" transform="matrix(1,0,0,1,101.72200012207031,176.52499389648438)"><path stroke-linecap="round" stroke-linejoin="round" fill-opacity="0" stroke="rgb(196,173,157)" stroke-opacity="1" stroke-width="8" d=" M30.113000869750977,-31.520000457763672 C30.113000869750977,-31.520000457763672 30.113000869750977,10.736000061035156 30.113000869750977,10.736000061035156 C30.113000869750977,10.736000061035156 18.996000289916992,18.304000854492188 2.1040000915527344,25.06599998474121 C-11.920999526977539,30.68000030517578 -18.433000564575195,31.520000457763672 -18.433000564575195,31.520000457763672 C-18.433000564575195,31.520000457763672 -30.113000869750977,-5.734000205993652 -30.113000869750977,-5.734000205993652 C-30.113000869750977,-5.734000205993652 30.113000869750977,-31.520000457763672 30.113000869750977,-31.520000457763672z"></path></g><g opacity="0.6" transform="matrix(1,0,0,1,231.2270050048828,286.7179870605469)"><path stroke-linecap="round" stroke-linejoin="round" fill-opacity="0" stroke="rgb(243,224,175)" stroke-opacity="1" stroke-width="5" d=" M159.6179962158203,100.77200317382812 C159.6179962158203,100.77200317382812 99.81500244140625,141.71400451660156 99.81500244140625,141.71400451660156 C99.81500244140625,141.71400451660156 -133.81399536132812,-33.619998931884766 -133.81399536132812,-33.619998931884766 C-133.81399536132812,-33.619998931884766 -159.6179962158203,-115.9280014038086 -159.6179962158203,-115.9280014038086 C-159.6179962158203,-115.9280014038086 -99.39099884033203,-141.71400451660156 -99.39099884033203,-141.71400451660156 C-99.39099884033203,-141.71400451660156 4.679999828338623,-91.39399719238281 4.679999828338623,-91.39399719238281 C4.679999828338623,-91.39399719238281 159.6179962158203,100.77200317382812 159.6179962158203,100.77200317382812z"></path></g><g opacity="1" transform="matrix(1,0,0,1,234.14199829101562,290.1239929199219)"><path stroke-linecap="round" stroke-linejoin="round" fill-opacity="0" stroke="rgb(107,50,21)" stroke-opacity="1" stroke-width="8" d=" M14.458999633789062,-103.69200134277344 C14.458999633789062,-103.69200134277344 -103.8949966430664,-160.51300048828125 -103.8949966430664,-160.51300048828125 C-103.8949966430664,-160.51300048828125 -181.0500030517578,-127.27300262451172 -181.0500030517578,-127.27300262451172 C-181.0500030517578,-127.27300262451172 -152.14999389648438,-26.844999313354492 -152.14999389648438,-26.844999313354492 C-152.14999389648438,-26.844999313354492 97.78099822998047,160.51300048828125 97.78099822998047,160.51300048828125 C97.78099822998047,160.51300048828125 181.0500030517578,103.91200256347656 181.0500030517578,103.91200256347656 C181.0500030517578,103.91200256347656 14.458999633789062,-103.69200134277344 14.458999633789062,-103.69200134277344z M96.89900207519531,138.3090057373047 C96.89900207519531,138.3090057373047 -136.72999572753906,-37.025001525878906 -136.72999572753906,-37.025001525878906 C-136.72999572753906,-37.025001525878906 -162.5330047607422,-119.33300018310547 -162.5330047607422,-119.33300018310547 C-162.5330047607422,-119.33300018310547 -102.30699920654297,-145.11900329589844 -102.30699920654297,-145.11900329589844 C-102.30699920654297,-145.11900329589844 1.7640000581741333,-94.79900360107422 1.7640000581741333,-94.79900360107422 C1.7640000581741333,-94.79900360107422 156.70199584960938,97.36699676513672 156.70199584960938,97.36699676513672 C156.70199584960938,97.36699676513672 96.89900207519531,138.3090057373047 96.89900207519531,138.3090057373047z"></path></g><g opacity="1" transform="matrix(1,0,0,1,183.87100219726562,191.29299926757812)"><path fill="rgb(221,207,195)" fill-opacity="1" d=" M52.0359992980957,46.28799819946289 C52.0359992980957,46.28799819946289 52.0359992980957,4.0320000648498535 52.0359992980957,4.0320000648498535 C52.0359992980957,4.0320000648498535 -52.0359992980957,-46.28799819946289 -52.0359992980957,-46.28799819946289 C-52.0359992980957,-46.28799819946289 -52.0359992980957,-4.0320000648498535 -52.0359992980957,-4.0320000648498535 C-52.0359992980957,-4.0320000648498535 -33.702999114990234,9.522000312805176 -8.970999717712402,21.73900032043457 C17.145999908447266,34.63999938964844 52.0359992980957,46.28799819946289 52.0359992980957,46.28799819946289z"></path></g><g opacity="0.3" transform="matrix(1,0,0,1,199.33200073242188,214.43699645996094)"><path fill="rgb(255,255,255)" fill-opacity="1" d=" M28.23699951171875,-23.143999099731445 C28.23699951171875,-23.143999099731445 28.23699951171875,12.317000389099121 28.23699951171875,12.317000389099121 C28.23699951171875,12.317000389099121 3.8480000495910645,10.925000190734863 -36.57500076293945,-10.920000076293945 C-36.57500076293945,-10.920000076293945 -5.869999885559082,12.756999969482422 36.57500076293945,23.143999099731445 C36.57500076293945,23.143999099731445 36.57500076293945,-19.11199951171875 36.57500076293945,-19.11199951171875 C36.57500076293945,-19.11199951171875 28.23699951171875,-23.143999099731445 28.23699951171875,-23.143999099731445z"></path></g><g opacity="1" transform="matrix(1,0,0,1,183.87100219726562,191.29299926757812)"><path stroke-linecap="round" stroke-linejoin="round" fill-opacity="0" stroke="rgb(196,173,157)" stroke-opacity="1" stroke-width="8" d=" M52.0359992980957,46.28799819946289 C52.0359992980957,46.28799819946289 52.0359992980957,4.0320000648498535 52.0359992980957,4.0320000648498535 C52.0359992980957,4.0320000648498535 -52.0359992980957,-46.28799819946289 -52.0359992980957,-46.28799819946289 C-52.0359992980957,-46.28799819946289 -52.0359992980957,-4.0320000648498535 -52.0359992980957,-4.0320000648498535 C-52.0359992980957,-4.0320000648498535 -33.702999114990234,9.522000312805176 -8.970999717712402,21.73900032043457 C17.145999908447266,34.63999938964844 52.0359992980957,46.28799819946289 52.0359992980957,46.28799819946289z"></path></g><g opacity="0.3" transform="matrix(1,0,0,1,145.32200622558594,232.26100158691406)"><path fill="rgb(196,173,157)" fill-opacity="1" d=" M49.577999114990234,-10.182000160217285 C49.577999114990234,-10.182000160217285 6.53000020980835,16.566999435424805 -33.15700149536133,31.01799964904785 C-33.15700149536133,31.01799964904785 -48.13100051879883,22.2810001373291 -49.56100082397461,15.128999710083008 C-50.99100112915039,7.9770002365112305 36.09000015258789,-66.3219985961914 49.577999114990234,-10.182000160217285z"></path></g><g opacity="1" transform="matrix(1,0,0,1,313.3760070800781,298.9230041503906)"><path fill="rgb(204,188,176)" fill-opacity="1" d=" M55.52000045776367,103.5989990234375 C55.52000045776367,103.5989990234375 77.46900177001953,88.56700134277344 77.46900177001953,88.56700134277344 C77.46900177001953,88.56700134277344 -77.46900177001953,-103.5989990234375 -77.46900177001953,-103.5989990234375 C-77.46900177001953,-103.5989990234375 -77.46900177001953,-61.34299850463867 -77.46900177001953,-61.34299850463867 C-77.46900177001953,-61.34299850463867 -61.16600036621094,-33.41299819946289 -17.895999908447266,19.774999618530273 C24.757999420166016,72.20600128173828 55.52000045776367,103.5989990234375 55.52000045776367,103.5989990234375z"></path></g><g opacity="0.3" transform="matrix(1,0,0,1,254.4739990234375,240.44900512695312)"><path fill="rgb(178,157,142)" fill-opacity="1" d=" M-9.192999839782715,-32.40399932861328 C-9.192999839782715,-32.40399932861328 -9.192999839782715,-4.02400016784668 -9.192999839782715,-4.02400016784668 C-9.192999839782715,-4.02400016784668 -2.496000051498413,19.94499969482422 18.56800079345703,45.125 C18.56800079345703,45.125 -7.764999866485596,20.804000854492188 -18.56800079345703,-2.868000030517578 C-18.56800079345703,-2.868000030517578 -18.56800079345703,-45.125 -18.56800079345703,-45.125 C-18.56800079345703,-45.125 -9.192999839782715,-32.40399932861328 -9.192999839782715,-32.40399932861328z"></path></g><g opacity="1" transform="matrix(1,0,0,1,313.3760070800781,298.9230041503906)"><path stroke-linecap="round" stroke-linejoin="round" fill-opacity="0" stroke="rgb(178,157,142)" stroke-opacity="1" stroke-width="8" d=" M55.52000045776367,103.5989990234375 C55.52000045776367,103.5989990234375 77.46900177001953,88.56700134277344 77.46900177001953,88.56700134277344 C77.46900177001953,88.56700134277344 -77.46900177001953,-103.5989990234375 -77.46900177001953,-103.5989990234375 C-77.46900177001953,-103.5989990234375 -77.46900177001953,-61.34299850463867 -77.46900177001953,-61.34299850463867 C-77.46900177001953,-61.34299850463867 -61.16600036621094,-33.41299819946289 -17.895999908447266,19.774999618530273 C24.757999420166016,72.20600128173828 55.52000045776367,103.5989990234375 55.52000045776367,103.5989990234375z"></path></g><g opacity="1" transform="matrix(1,0,0,1,133.91600036621094,211.15199279785156)"><path fill="rgb(234,220,211)" fill-opacity="1" d=" M-54.058998107910156,-12.218000411987305 C-42.632999420166016,-19.590999603271484 -11.685999870300293,-35.5369987487793 11.574999809265137,-40.361000061035156 C11.574999809265137,-40.361000061035156 34.314998626708984,-35.77299880981445 54.058998107910156,-1.2829999923706055 C54.058998107910156,-1.2829999923706055 18.381000518798828,27.034000396728516 -30.597000122070312,40.361000061035156 C-30.597000122070312,40.361000061035156 -34.0260009765625,37.59299850463867 -38.816001892089844,32.972999572753906 C-38.816001892089844,32.972999572753906 -54.058998107910156,-12.218000411987305 -54.058998107910156,-12.218000411987305z"></path></g><g opacity="0.3" transform="matrix(1,0,0,1,151.8520050048828,202.9459991455078)"><path fill="rgb(255,255,255)" fill-opacity="1" d=" M-7.864999771118164,-24.719999313354492 C-7.864999771118164,-24.719999313354492 19.238000869750977,-15.769000053405762 32.01900100708008,8.206000328063965 C32.01900100708008,8.206000328063965 17.599000930786133,18.364999771118164 -5.443999767303467,32.154998779296875 C-5.443999767303467,32.154998779296875 20.673999786376953,19.746999740600586 36.12300109863281,6.922999858856201 C36.12300109863281,6.922999858856201 22.86400032043457,-21.850000381469727 -6.361000061035156,-32.154998779296875 C-6.361000061035156,-32.154998779296875 -29.729000091552734,-24.920000076293945 -29.729000091552734,-24.920000076293945 C-29.729000091552734,-24.920000076293945 -36.9379997253418,-18.277999877929688 -36.04600143432617,-18.59600067138672 C-21.863000869750977,-23.648000717163086 -7.864999771118164,-24.719999313354492 -7.864999771118164,-24.719999313354492z"></path></g><g opacity="0.3" transform="matrix(1,0,0,1,133.91799926757812,224.16299438476562)"><path fill="rgb(196,173,157)" fill-opacity="1" d=" M54.060001373291016,-14.291000366210938 C54.060001373291016,-14.291000366210938 18.375999450683594,14.027000427246094 -30.5939998626709,27.347999572753906 C-30.5939998626709,27.347999572753906 -34.0260009765625,24.586999893188477 -38.816001892089844,19.964000701904297 C-38.816001892089844,19.964000701904297 -54.060001373291016,-25.229999542236328 -54.060001373291016,-25.229999542236328 C-53.0629997253418,-25.874000549316406 -51.92499923706055,-26.579999923706055 -50.645999908447266,-27.347999572753906 C-50.637001037597656,-27.347999572753906 -50.637001037597656,-27.347999572753906 -50.62799835205078,-27.347999572753906 C-50.62799835205078,-27.347999572753906 -47.22700119018555,-4.386000156402588 -25.132999420166016,11.177000045776367 C-25.132999420166016,11.177000045776367 -10.871999740600586,8.704000473022461 3.503000020980835,2.625999927520752 C21.915000915527344,-5.158999919891357 42.6619987487793,-15.526000022888184 47.81399917602539,-22.78700065612793 C49.683998107910156,-20.07900047302246 52.224998474121094,-17.493000030517578 54.060001373291016,-14.291000366210938z"></path></g><g opacity="0.3" transform="matrix(1,0,0,1,111.73500061035156,181.3769989013672)"><path fill="rgb(196,173,157)" fill-opacity="1" d=" M-34.20100021362305,5.164999961853027 C-34.20100021362305,5.164999961853027 -3.257999897003174,-9.041000366210938 20.18899917602539,-15.437999725341797 C20.18899917602539,-15.437999725341797 34.20100021362305,-13.751999855041504 34.20100021362305,-13.751999855041504 C34.20100021362305,-13.751999855041504 22.180999755859375,-8.904999732971191 22.180999755859375,-8.904999732971191 C22.180999755859375,-8.904999732971191 -3.634999990463257,2.5920000076293945 -3.634999990463257,2.5920000076293945 C-3.634999990463257,2.5920000076293945 -30.10300064086914,15.437999725341797 -30.10300064086914,15.437999725341797 C-30.10300064086914,15.437999725341797 -34.20100021362305,5.164999961853027 -34.20100021362305,5.164999961853027z"></path></g><g opacity="1" transform="matrix(1,0,0,1,133.91600036621094,211.15199279785156)"><path stroke-linecap="round" stroke-linejoin="round" fill-opacity="0" stroke="rgb(196,173,157)" stroke-opacity="1" stroke-width="8" d=" M-54.058998107910156,-13.22700023651123 C-42.632999420166016,-20.600000381469727 -11.685999870300293,-35.5369987487793 11.574999809265137,-40.361000061035156 C11.574999809265137,-40.361000061035156 34.314998626708984,-35.77299880981445 54.058998107910156,-1.2829999923706055 C54.058998107910156,-1.2829999923706055 18.381000518798828,27.034000396728516 -30.597000122070312,40.361000061035156 C-30.597000122070312,40.361000061035156 -34.0260009765625,37.59299850463867 -38.816001892089844,32.972999572753906"></path></g><g opacity="1" transform="matrix(1,0,0,1,231.2270050048828,286.7179870605469)"><path stroke-linecap="round" stroke-linejoin="round" fill-opacity="0" stroke="rgb(107,50,21)" stroke-opacity="1" stroke-width="8" d=" M159.6179962158203,100.77200317382812 C159.6179962158203,100.77200317382812 99.81500244140625,141.71400451660156 99.81500244140625,141.71400451660156 C99.81500244140625,141.71400451660156 -133.81399536132812,-33.619998931884766 -133.81399536132812,-33.619998931884766 C-133.81399536132812,-33.619998931884766 -159.6179962158203,-115.9280014038086 -159.6179962158203,-115.9280014038086 C-159.6179962158203,-115.9280014038086 -99.39099884033203,-141.71400451660156 -99.39099884033203,-141.71400451660156 C-99.39099884033203,-141.71400451660156 4.679999828338623,-91.39399719238281 4.679999828338623,-91.39399719238281 C4.679999828338623,-91.39399719238281 159.6179962158203,100.77200317382812 159.6179962158203,100.77200317382812z"></path></g><g opacity="0.6" transform="matrix(1,0,0,1,331.48199462890625,439.53399658203125)"><path stroke-linecap="round" stroke-linejoin="round" fill-opacity="0" stroke="rgb(107,50,21)" stroke-opacity="1" stroke-width="8" d=" M-0.4410000145435333,-11.10200023651123 C-0.4410000145435333,-11.10200023651123 0.4410000145435333,11.10200023651123 0.4410000145435333,11.10200023651123"></path></g><g opacity="0.6" transform="matrix(1,0,0,1,403.0190124511719,390.76300048828125)"><path stroke-linecap="round" stroke-linejoin="round" fill-opacity="0" stroke="rgb(107,50,21)" stroke-opacity="1" stroke-width="8" d=" M-12.173999786376953,-3.2730000019073486 C-12.173999786376953,-3.2730000019073486 12.173999786376953,3.2730000019073486 12.173999786376953,3.2730000019073486"></path></g><g opacity="0.4" transform="matrix(1,0,0,1,242.25399780273438,190.8780059814453)"><path stroke-linecap="round" stroke-linejoin="round" fill-opacity="0" stroke="rgb(107,50,21)" stroke-opacity="1" stroke-width="8" d=" M-6.3470001220703125,4.446000099182129 C-6.3470001220703125,4.446000099182129 6.3470001220703125,-4.446000099182129 6.3470001220703125,-4.446000099182129"></path></g><g opacity="0.4" transform="matrix(1,0,0,1,131.04200744628906,137.30799865722656)"><path stroke-linecap="round" stroke-linejoin="round" fill-opacity="0" stroke="rgb(107,50,21)" stroke-opacity="1" stroke-width="8" d=" M-0.7940000295639038,-7.697000026702881 C-0.7940000295639038,-7.697000026702881 0.7940000295639038,7.697000026702881 0.7940000295639038,7.697000026702881"></path></g><g opacity="0.4" transform="matrix(1,0,0,1,62.35100173950195,166.8209991455078)"><path stroke-linecap="round" stroke-linejoin="round" fill-opacity="0" stroke="rgb(107,50,21)" stroke-opacity="1" stroke-width="8" d=" M-9.258999824523926,-3.9700000286102295 C-9.258999824523926,-3.9700000286102295 9.258999824523926,3.9700000286102295 9.258999824523926,3.9700000286102295"></path></g><g opacity="0.4" transform="matrix(1,0,0,1,89.7030029296875,258.1889953613281)"><path stroke-linecap="round" stroke-linejoin="round" fill-opacity="0" stroke="rgb(107,50,21)" stroke-opacity="1" stroke-width="8" d=" M7.710000038146973,-5.090000152587891 C7.710000038146973,-5.090000152587891 -7.710000038146973,5.090000152587891 -7.710000038146973,5.090000152587891"></path></g></g><g opacity="1" transform="matrix(1,0,0,1,0,0)"><g opacity="1" transform="matrix(1,0,0,1,138.3719940185547,181.05499267578125)"><path stroke-linecap="round" stroke-linejoin="round" fill-opacity="0" stroke="rgb(255,255,255)" stroke-opacity="1" stroke-width="6" d=" M-0.49799999594688416,0.1940000057220459 C-0.49799999594688416,0.1940000057220459 0.49799999594688416,-0.1940000057220459 0.49799999594688416,-0.1940000057220459"></path></g><g opacity="1" transform="matrix(1,0,0,1,127.13099670410156,185.42300415039062)"><path stroke-linecap="round" stroke-linejoin="round" fill-opacity="0" stroke="rgb(255,255,255)" stroke-opacity="1" stroke-width="6" d=" M-3.742000102996826,1.4539999961853027 C-3.742000102996826,1.4539999961853027 3.742000102996826,-1.4539999961853027 3.742000102996826,-1.4539999961853027"></path></g></g></g><g style="display: block;" transform="matrix(0.623879611492157,0.7815204858779907,-0.7815204858779907,0.623879611492157,312.77294921875,-75.21571350097656)" opacity="1"><g opacity="1" transform="matrix(1,0,0,1,222.4429931640625,298.0090026855469)"><path fill="url(#__lottie_element_4052)" fill-opacity="1" d=" M-181.11300659179688,-32.02799987792969 C-181.11300659179688,-32.02799987792969 -203.39100646972656,48.96699905395508 -203.39100646972656,48.96699905395508 C-203.39100646972656,48.96699905395508 -106.93699645996094,89.18499755859375 -106.93699645996094,89.18499755859375 C-106.93699645996094,89.18499755859375 195.53199768066406,11.194000244140625 195.53199768066406,11.194000244140625 C195.53199768066406,11.194000244140625 203.39100646972656,-89.18499755859375 203.39100646972656,-89.18499755859375 C203.39100646972656,-89.18499755859375 -62.7859992980957,-88.90399932861328 -62.7859992980957,-88.90399932861328 C-62.7859992980957,-88.90399932861328 -181.11300659179688,-32.02799987792969 -181.11300659179688,-32.02799987792969z"></path></g><g opacity="0.1" transform="matrix(1,0,0,1,0,0)"><g opacity="1" transform="matrix(1,0,0,1,147.22000122070312,306.15899658203125)"><path stroke-linecap="round" stroke-linejoin="round" fill-opacity="0" stroke="rgb(77,34,18)" stroke-opacity="1" stroke-width="8" d=" M-26.643999099731445,3.0840001106262207 C-26.643999099731445,3.0840001106262207 26.643999099731445,-3.0840001106262207 26.643999099731445,-3.0840001106262207"></path></g><g opacity="1" transform="matrix(1,0,0,1,105.45600128173828,251.6060028076172)"><path stroke-linecap="round" stroke-linejoin="round" fill-opacity="0" stroke="rgb(77,34,18)" stroke-opacity="1" stroke-width="8" d=" M-26.643999099731445,3.0840001106262207 C-26.643999099731445,3.0840001106262207 26.643999099731445,-3.0840001106262207 26.643999099731445,-3.0840001106262207"></path></g><g opacity="1" transform="matrix(1,0,0,1,329.05499267578125,306.9930114746094)"><path stroke-linecap="round" stroke-linejoin="round" fill-opacity="0" stroke="rgb(77,34,18)" stroke-opacity="1" stroke-width="8" d=" M-26.643999099731445,3.0840001106262207 C-26.643999099731445,3.0840001106262207 26.643999099731445,-3.0840001106262207 26.643999099731445,-3.0840001106262207"></path></g><g opacity="1" transform="matrix(1,0,0,1,170.7779998779297,244.04600524902344)"><path stroke-linecap="round" stroke-linejoin="round" fill-opacity="0" stroke="rgb(77,34,18)" stroke-opacity="1" stroke-width="8" d=" M-9.842000007629395,1.1390000581741333 C-9.842000007629395,1.1390000581741333 9.842000007629395,-1.1390000581741333 9.842000007629395,-1.1390000581741333"></path></g><g opacity="1" transform="matrix(1,0,0,1,82.30500030517578,315.37298583984375)"><path stroke-linecap="round" stroke-linejoin="round" fill-opacity="0" stroke="rgb(77,34,18)" stroke-opacity="1" stroke-width="8" d=" M-9.842000007629395,1.1390000581741333 C-9.842000007629395,1.1390000581741333 9.842000007629395,-1.1390000581741333 9.842000007629395,-1.1390000581741333"></path></g><g opacity="1" transform="matrix(1,0,0,1,146.1750030517578,370.1409912109375)"><path stroke-linecap="round" stroke-linejoin="round" fill-opacity="0" stroke="rgb(77,34,18)" stroke-opacity="1" stroke-width="8" d=" M-9.842000007629395,1.1390000581741333 C-9.842000007629395,1.1390000581741333 9.842000007629395,-1.1390000581741333 9.842000007629395,-1.1390000581741333"></path></g><g opacity="1" transform="matrix(1,0,0,1,394.7439880371094,299.69000244140625)"><path stroke-linecap="round" stroke-linejoin="round" fill-opacity="0" stroke="rgb(77,34,18)" stroke-opacity="1" stroke-width="8" d=" M-9.842000007629395,1.1390000581741333 C-9.842000007629395,1.1390000581741333 9.842000007629395,-1.1390000581741333 9.842000007629395,-1.1390000581741333"></path></g><g opacity="1" transform="matrix(1,0,0,1,315.2309875488281,249.1959991455078)"><path stroke-linecap="round" stroke-linejoin="round" fill-opacity="0" stroke="rgb(77,34,18)" stroke-opacity="1" stroke-width="8" d=" M-26.643999099731445,3.0840001106262207 C-26.643999099731445,3.0840001106262207 26.643999099731445,-3.0840001106262207 26.643999099731445,-3.0840001106262207"></path></g><g opacity="1" transform="matrix(1,0,0,1,380.5530090332031,241.63600158691406)"><path stroke-linecap="round" stroke-linejoin="round" fill-opacity="0" stroke="rgb(77,34,18)" stroke-opacity="1" stroke-width="8" d=" M-9.842000007629395,1.1390000581741333 C-9.842000007629395,1.1390000581741333 9.842000007629395,-1.1390000581741333 9.842000007629395,-1.1390000581741333"></path></g><g opacity="1" transform="matrix(1,0,0,1,374.8059997558594,283.72601318359375)"><path stroke-linecap="round" stroke-linejoin="round" fill-opacity="0" stroke="rgb(77,34,18)" stroke-opacity="1" stroke-width="8" d=" M-9.842000007629395,1.1390000581741333 C-9.842000007629395,1.1390000581741333 9.842000007629395,-1.1390000581741333 9.842000007629395,-1.1390000581741333"></path></g><g opacity="1" transform="matrix(1,0,0,1,37.111000061035156,324.4230041503906)"><path stroke-linecap="round" stroke-linejoin="round" fill-opacity="0" stroke="rgb(77,34,18)" stroke-opacity="1" stroke-width="8" d=" M-9.842000007629395,1.1390000581741333 C-9.842000007629395,1.1390000581741333 9.842000007629395,-1.1390000581741333 9.842000007629395,-1.1390000581741333"></path></g><g opacity="1" transform="matrix(1,0,0,1,272.4460144042969,274.9360046386719)"><path stroke-linecap="round" stroke-linejoin="round" fill-opacity="0" stroke="rgb(77,34,18)" stroke-opacity="1" stroke-width="8" d=" M-9.842000007629395,1.1390000581741333 C-9.842000007629395,1.1390000581741333 9.842000007629395,-1.1390000581741333 9.842000007629395,-1.1390000581741333"></path></g><g opacity="1" transform="matrix(1,0,0,1,395.3059997558594,216.43299865722656)"><path stroke-linecap="round" stroke-linejoin="round" fill-opacity="0" stroke="rgb(77,34,18)" stroke-opacity="1" stroke-width="8" d=" M-30.204999923706055,3.496000051498413 C-30.204999923706055,3.496000051498413 30.204999923706055,-3.496000051498413 30.204999923706055,-3.496000051498413"></path></g><g opacity="1" transform="matrix(1,0,0,1,283.12200927734375,333.29998779296875)"><path stroke-linecap="round" stroke-linejoin="round" fill-opacity="0" stroke="rgb(77,34,18)" stroke-opacity="1" stroke-width="8" d=" M-26.643999099731445,3.0840001106262207 C-26.643999099731445,3.0840001106262207 26.643999099731445,-3.0840001106262207 26.643999099731445,-3.0840001106262207"></path></g><g opacity="1" transform="matrix(1,0,0,1,211.92599487304688,281.9410095214844)"><path stroke-linecap="round" stroke-linejoin="round" fill-opacity="0" stroke="rgb(77,34,18)" stroke-opacity="1" stroke-width="8" d=" M-26.643999099731445,3.0840001106262207 C-26.643999099731445,3.0840001106262207 26.643999099731445,-3.0840001106262207 26.643999099731445,-3.0840001106262207"></path></g><g opacity="1" transform="matrix(1,0,0,1,104.3219985961914,333.00299072265625)"><path stroke-linecap="round" stroke-linejoin="round" fill-opacity="0" stroke="rgb(77,34,18)" stroke-opacity="1" stroke-width="8" d=" M-51.97600173950195,6.014999866485596 C-51.97600173950195,6.014999866485596 51.97600173950195,-6.014999866485596 51.97600173950195,-6.014999866485596"></path></g><g opacity="1" transform="matrix(1,0,0,1,95.2959976196289,295.4389953613281)"><path stroke-linecap="round" stroke-linejoin="round" fill-opacity="0" stroke="rgb(77,34,18)" stroke-opacity="1" stroke-width="8" d=" M-64.11000061035156,7.420000076293945 C-64.11000061035156,7.420000076293945 64.11000061035156,-7.420000076293945 64.11000061035156,-7.420000076293945"></path></g><g opacity="1" transform="matrix(1,0,0,1,191.24400329589844,263.5459899902344)"><path stroke-linecap="round" stroke-linejoin="round" fill-opacity="0" stroke="rgb(77,34,18)" stroke-opacity="1" stroke-width="8" d=" M-67.73699951171875,7.839000225067139 C-67.73699951171875,7.839000225067139 67.73699951171875,-7.839000225067139 67.73699951171875,-7.839000225067139"></path></g><g opacity="1" transform="matrix(1,0,0,1,274.7919921875,232.00799560546875)"><path stroke-linecap="round" stroke-linejoin="round" fill-opacity="0" stroke="rgb(77,34,18)" stroke-opacity="1" stroke-width="8" d=" M-67.73699951171875,7.839000225067139 C-67.73699951171875,7.839000225067139 67.73699951171875,-7.839000225067139 67.73699951171875,-7.839000225067139"></path></g><g opacity="1" transform="matrix(1,0,0,1,205.46099853515625,363.27899169921875)"><path stroke-linecap="round" stroke-linejoin="round" fill-opacity="0" stroke="rgb(77,34,18)" stroke-opacity="1" stroke-width="8" d=" M-24.72100067138672,2.8610000610351562 C-24.72100067138672,2.8610000610351562 24.72100067138672,-2.8610000610351562 24.72100067138672,-2.8610000610351562"></path></g><g opacity="1" transform="matrix(1,0,0,1,143.7779998779297,349.427001953125)"><path stroke-linecap="round" stroke-linejoin="round" fill-opacity="0" stroke="rgb(77,34,18)" stroke-opacity="1" stroke-width="8" d=" M-67.73699951171875,7.840000152587891 C-67.73699951171875,7.840000152587891 67.73699951171875,-7.840000152587891 67.73699951171875,-7.840000152587891"></path></g><g opacity="1" transform="matrix(1,0,0,1,225.9320068359375,318.9280090332031)"><path stroke-linecap="round" stroke-linejoin="round" fill-opacity="0" stroke="rgb(77,34,18)" stroke-opacity="1" stroke-width="8" d=" M-49.986000061035156,5.784999847412109 C-49.986000061035156,5.784999847412109 49.986000061035156,-5.784999847412109 49.986000061035156,-5.784999847412109"></path></g><g opacity="1" transform="matrix(1,0,0,1,351.28900146484375,265.81201171875)"><path stroke-linecap="round" stroke-linejoin="round" fill-opacity="0" stroke="rgb(77,34,18)" stroke-opacity="1" stroke-width="8" d=" M-49.986000061035156,5.784999847412109 C-49.986000061035156,5.784999847412109 49.986000061035156,-5.784999847412109 49.986000061035156,-5.784999847412109"></path></g><g opacity="1" transform="matrix(1,0,0,1,269.8890075683594,295.8689880371094)"><path stroke-linecap="round" stroke-linejoin="round" fill-opacity="0" stroke="rgb(77,34,18)" stroke-opacity="1" stroke-width="8" d=" M-49.986000061035156,5.784999847412109 C-49.986000061035156,5.784999847412109 49.986000061035156,-5.784999847412109 49.986000061035156,-5.784999847412109"></path></g><g opacity="1" transform="matrix(1,0,0,1,65.36599731445312,277.6289978027344)"><path stroke-linecap="round" stroke-linejoin="round" fill-opacity="0" stroke="rgb(77,34,18)" stroke-opacity="1" stroke-width="8" d=" M-26.643999099731445,3.0840001106262207 C-26.643999099731445,3.0840001106262207 26.643999099731445,-3.0840001106262207 26.643999099731445,-3.0840001106262207"></path></g><g opacity="1" transform="matrix(1,0,0,1,221.83200073242188,216.8820037841797)"><path stroke-linecap="round" stroke-linejoin="round" fill-opacity="0" stroke="rgb(77,34,18)" stroke-opacity="1" stroke-width="8" d=" M-66.85900115966797,7.73799991607666 C-66.85900115966797,7.73799991607666 66.85900115966797,-7.73799991607666 66.85900115966797,-7.73799991607666"></path></g></g><g opacity="0.6" transform="matrix(1,0,0,1,221.16900634765625,296.2640075683594)"><path stroke-linecap="round" stroke-linejoin="round" fill-opacity="0" stroke="rgb(243,224,175)" stroke-opacity="1" stroke-width="5" d=" M-166.83099365234375,-21.906999588012695 C-166.83099365234375,-21.906999588012695 -184.3459930419922,41.21799850463867 -184.3459930419922,41.21799850463867 C-184.3459930419922,41.21799850463867 -103.96800231933594,72.52799987792969 -103.96800231933594,72.52799987792969 C-103.96800231933594,72.52799987792969 178.9219970703125,-0.25099998712539673 178.9219970703125,-0.25099998712539673 C178.9219970703125,-0.25099998712539673 184.3459930419922,-72.52799987792969 184.3459930419922,-72.52799987792969 C184.3459930419922,-72.52799987792969 -62.50400161743164,-71.69200134277344 -62.50400161743164,-71.69200134277344 C-62.50400161743164,-71.69200134277344 -166.83099365234375,-21.906999588012695 -166.83099365234375,-21.906999588012695z"></path></g><g opacity="1" transform="matrix(1,0,0,1,222.4429931640625,298.0090026855469)"><path stroke-linecap="round" stroke-linejoin="round" fill-opacity="0" stroke="rgb(107,50,21)" stroke-opacity="1" stroke-width="8" d=" M-181.11300659179688,-32.02799987792969 C-181.11300659179688,-32.02799987792969 -203.39100646972656,48.96699905395508 -203.39100646972656,48.96699905395508 C-203.39100646972656,48.96699905395508 -106.93699645996094,89.18499755859375 -106.93699645996094,89.18499755859375 C-106.93699645996094,89.18499755859375 195.53199768066406,11.194000244140625 195.53199768066406,11.194000244140625 C195.53199768066406,11.194000244140625 203.39100646972656,-89.18499755859375 203.39100646972656,-89.18499755859375 C203.39100646972656,-89.18499755859375 -62.7859992980957,-88.90399932861328 -62.7859992980957,-88.90399932861328 C-62.7859992980957,-88.90399932861328 -181.11300659179688,-32.02799987792969 -181.11300659179688,-32.02799987792969z"></path></g><g opacity="1" transform="matrix(1,0,0,1,0,0)"><g opacity="1" transform="matrix(1,0,0,1,107.69499969482422,248.76199340820312)"><path stroke-linecap="round" stroke-linejoin="round" fill-opacity="0" stroke="rgb(255,255,255)" stroke-opacity="1" stroke-width="6" d=" M-0.47699999809265137,0.2409999966621399 C-0.47699999809265137,0.2409999966621399 0.47699999809265137,-0.2409999966621399 0.47699999809265137,-0.2409999966621399"></path></g><g opacity="1" transform="matrix(1,0,0,1,96.93399810791016,254.2050018310547)"><path stroke-linecap="round" stroke-linejoin="round" fill-opacity="0" stroke="rgb(255,255,255)" stroke-opacity="1" stroke-width="6" d=" M-3.5820000171661377,1.812000036239624 C-3.5820000171661377,1.812000036239624 3.5820000171661377,-1.812000036239624 3.5820000171661377,-1.812000036239624"></path></g></g><g opacity="1" transform="matrix(1,0,0,1,424.6549987792969,261.10198974609375)"><path fill="rgb(66,28,18)" fill-opacity="1" d=" M-1.4639999866485596,52.27799987792969 C-1.4639999866485596,52.27799987792969 6.679999828338623,-47.87300109863281 6.679999828338623,-47.87300109863281 C6.679999828338623,-47.87300109863281 1.1790000200271606,-52.27799987792969 1.1790000200271606,-52.27799987792969 C1.1790000200271606,-52.27799987792969 -6.679999828338623,48.10100173950195 -6.679999828338623,48.10100173950195 C-6.679999828338623,48.10100173950195 -1.4639999866485596,52.27799987792969 -1.4639999866485596,52.27799987792969z"></path><path stroke-linecap="round" stroke-linejoin="round" fill-opacity="0" stroke="rgb(66,28,18)" stroke-opacity="1" stroke-width="8" d=" M-1.4639999866485596,52.27799987792969 C-1.4639999866485596,52.27799987792969 6.679999828338623,-47.87300109863281 6.679999828338623,-47.87300109863281 C6.679999828338623,-47.87300109863281 1.1790000200271606,-52.27799987792969 1.1790000200271606,-52.27799987792969 C1.1790000200271606,-52.27799987792969 -6.679999828338623,48.10100173950195 -6.679999828338623,48.10100173950195 C-6.679999828338623,48.10100173950195 -1.4639999866485596,52.27799987792969 -1.4639999866485596,52.27799987792969z"></path></g><g opacity="1" transform="matrix(1,0,0,1,69.65499877929688,368.9880065917969)"><path fill="rgb(96,46,30)" fill-opacity="1" d=" M-50.60300064086914,-22.011999130249023 C-50.60300064086914,-22.011999130249023 -45.45500183105469,-17.889999389648438 -45.45500183105469,-17.889999389648438 C-45.45500183105469,-17.889999389648438 50.60300064086914,22.011999130249023 50.60300064086914,22.011999130249023 C50.60300064086914,22.011999130249023 45.849998474121094,18.20599937438965 45.849998474121094,18.20599937438965 C45.849998474121094,18.20599937438965 -50.60300064086914,-22.011999130249023 -50.60300064086914,-22.011999130249023z"></path><path stroke-linecap="round" stroke-linejoin="round" fill-opacity="0" stroke="rgb(96,46,30)" stroke-opacity="1" stroke-width="8" d=" M-50.60300064086914,-22.011999130249023 C-50.60300064086914,-22.011999130249023 -45.45500183105469,-17.889999389648438 -45.45500183105469,-17.889999389648438 C-45.45500183105469,-17.889999389648438 50.60300064086914,22.011999130249023 50.60300064086914,22.011999130249023 C50.60300064086914,22.011999130249023 45.849998474121094,18.20599937438965 45.849998474121094,18.20599937438965 C45.849998474121094,18.20599937438965 -50.60300064086914,-22.011999130249023 -50.60300064086914,-22.011999130249023z"></path></g><g opacity="1" transform="matrix(1,0,0,1,269.3479919433594,350.10101318359375)"><path fill="rgb(81,33,20)" fill-opacity="1" d=" M148.6269989013672,-40.89799880981445 C148.6269989013672,-40.89799880981445 153.84300231933594,-36.72200012207031 153.84300231933594,-36.72200012207031 C153.84300231933594,-36.72200012207031 -149.08999633789062,40.89799880981445 -149.08999633789062,40.89799880981445 C-149.08999633789062,40.89799880981445 -153.84300231933594,37.09299850463867 -153.84300231933594,37.09299850463867 C-153.84300231933594,37.09299850463867 148.6269989013672,-40.89799880981445 148.6269989013672,-40.89799880981445z"></path><path stroke-linecap="round" stroke-linejoin="round" fill-opacity="0" stroke="rgb(81,33,20)" stroke-opacity="1" stroke-width="8" d=" M148.6269989013672,-40.89799880981445 C148.6269989013672,-40.89799880981445 153.84300231933594,-36.72200012207031 153.84300231933594,-36.72200012207031 C153.84300231933594,-36.72200012207031 -149.08999633789062,40.89799880981445 -149.08999633789062,40.89799880981445 C-149.08999633789062,40.89799880981445 -153.84300231933594,37.09299850463867 -153.84300231933594,37.09299850463867 C-153.84300231933594,37.09299850463867 148.6269989013672,-40.89799880981445 148.6269989013672,-40.89799880981445z"></path></g></g><g style="display: block;" transform="matrix(0.623879611492157,0.7815204858779907,-0.7815204858779907,0.623879611492157,313.2734069824219,-71.7164306640625)" opacity="1"><g opacity="1" transform="matrix(1,0,0,1,166.1909942626953,282.9339904785156)"><path stroke-linecap="round" stroke-linejoin="round" fill-opacity="0" stroke="rgb(96,46,30)" stroke-opacity="1" stroke-width="5" d=" M36.64699935913086,-23.76099967956543 C36.64699935913086,-23.76099967956543 -3.2990000247955322,-9.347000122070312 -36.64699935913086,23.76099967956543"></path></g></g><g style="display: block;" transform="matrix(0.7501110434532166,0.6613118648529053,-0.6613118648529053,0.7501110434532166,258.6429443359375,-85.67375946044922)" opacity="1"><g opacity="1" transform="matrix(1,0,0,1,160.97000122070312,277.9939880371094)"><path stroke-linecap="round" stroke-linejoin="round" fill-opacity="0" stroke="rgb(96,46,30)" stroke-opacity="1" stroke-width="5" d=" M27.513999938964844,-8.178000450134277 C27.513999938964844,-8.178000450134277 -5.802999973297119,-0.47699999809265137 -27.513999938964844,8.178000450134277"></path></g></g><g style="display: block;" transform="matrix(0.623879611492157,0.7815204858779907,-0.7815204858779907,0.623879611492157,313.2734069824219,-71.7164306640625)" opacity="1"><g opacity="1" transform="matrix(1,0,0,1,170.80599975585938,283.4110107421875)"><path stroke-linecap="round" stroke-linejoin="round" fill-opacity="0" stroke="rgb(96,46,30)" stroke-opacity="1" stroke-width="5" d=" M-30.32900047302246,31.07200050354004 C-30.32900047302246,31.07200050354004 -6.050000190734863,-10.961000442504883 30.32900047302246,-31.07200050354004"></path></g></g><g style="display: block;" transform="matrix(0.623879611492157,0.7815204858779907,-0.7815204858779907,0.623879611492157,313.2734069824219,-71.7164306640625)" opacity="1"><g opacity="1" transform="matrix(1,0,0,1,123.63999938964844,310.9339904785156)"><path fill="rgb(96,46,30)" fill-opacity="1" d=" M-9.602999687194824,-13.036999702453613 C-11.869000434875488,-11.168999671936035 -4.495999813079834,-4.322000026702881 -4.495999813079834,-4.322000026702881 C-4.495999813079834,-4.322000026702881 -14.100000381469727,1.8040000200271606 -15.038999557495117,5.802999973297119 C-15.977999687194824,9.800999641418457 -2.4649999141693115,2.7320001125335693 -2.4649999141693115,2.7320001125335693 C-2.4649999141693115,2.7320001125335693 -6.5980000495910645,13.631999969482422 -3.9739999771118164,14.66100025177002 C-1.350000023841858,15.690999984741211 4.2870001792907715,4.230999946594238 4.4770002365112305,1.4809999465942383 C4.4770002365112305,1.4809999465942383 11.819000244140625,5.999000072479248 14.845999717712402,2.9649999141693115 C16.718000411987305,1.0880000591278076 7.020999908447266,-4.486000061035156 7.020999908447266,-4.486000061035156 C7.020999908447266,-4.486000061035156 12.965999603271484,-12.157999992370605 11.32699966430664,-14.362000465393066 C9.755999565124512,-16.474000930786133 1.378999948501587,-8.696999549865723 1.378999948501587,-8.696999549865723 C1.378999948501587,-8.696999549865723 -7.293000221252441,-14.940999984741211 -9.602999687194824,-13.036999702453613z"></path></g></g><g style="display: block;" transform="matrix(0.623879611492157,0.7815204858779907,-0.7815204858779907,0.623879611492157,313.2734069824219,-71.7164306640625)" opacity="1"><g opacity="1" transform="matrix(1,0,0,1,135.76499938964844,320.6189880371094)"><path fill="rgb(96,46,30)" fill-opacity="1" d=" M-2.2720000743865967,-10.095000267028809 C-2.2720000743865967,-10.095000267028809 -14.635000228881836,-18.538999557495117 -17.256000518798828,-15.496000289916992 C-19.87700080871582,-12.45300006866455 -7.208000183105469,-3.8589999675750732 -7.208000183105469,-3.8589999675750732 C-7.208000183105469,-3.8589999675750732 -15.505000114440918,3.5969998836517334 -18.125,12.399999618530273 C-20.7450008392334,21.202999114990234 -5.6020002365112305,6.184000015258789 -1.4930000305175781,1.9110000133514404 C-1.4930000305175781,1.9110000133514404 -0.22699999809265137,18.900999069213867 3.624000072479248,20.226999282836914 C7.474999904632568,21.55299949645996 9.73799991607666,6.4070000648498535 6.565000057220459,-0.6150000095367432 C6.565000057220459,-0.6150000095367432 16.792999267578125,2.1760001182556152 18.280000686645508,-0.8550000190734863 C19.767000198364258,-3.885999917984009 9.572999954223633,-7.735000133514404 4.6539998054504395,-7.927999973297119 C4.6539998054504395,-7.927999973297119 6.625,-18.575000762939453 2.936000108718872,-20.15999984741211 C-0.7540000081062317,-21.7450008392334 -2.2720000743865967,-10.095000267028809 -2.2720000743865967,-10.095000267028809z"></path></g></g><g style="display: block;" transform="matrix(0.7501110434532166,0.6613118648529053,-0.6613118648529053,0.7501110434532166,258.6429443359375,-85.67375946044922)" opacity="1"><g opacity="1" transform="matrix(1,0,0,1,128.96099853515625,286.2080078125)"><path fill="rgb(96,46,30)" fill-opacity="1" d=" M3.546999931335449,-7.133999824523926 C1.0299999713897705,-10.319000244140625 -6.38700008392334,-13.904000282287598 -8.027000427246094,-12.098999977111816 C-9.666999816894531,-10.293999671936035 -2.3540000915527344,-2.8929998874664307 -2.3540000915527344,-2.8929998874664307 C-2.3540000915527344,-2.8929998874664307 -11.935999870300293,-3.5490000247955322 -14.645999908447266,0.3230000138282776 C-17.356000900268555,4.195000171661377 -1.8020000457763672,3.9809999465942383 -1.8020000457763672,3.9809999465942383 C-1.8020000457763672,3.9809999465942383 -3.882999897003174,13.062999725341797 -0.8420000076293945,14.133999824523926 C2.1989998817443848,15.204999923706055 5.248000144958496,4.183000087738037 5.248000144958496,4.183000087738037 C5.248000144958496,4.183000087738037 13.206000328063965,8.604999542236328 14.774999618530273,7.132999897003174 C16.3439998626709,5.659999847412109 7.613999843597412,-1.9550000429153442 7.613999843597412,-1.9550000429153442 C7.613999843597412,-1.9550000429153442 15.258999824523926,-11.972000122070312 12.647000312805176,-14.060999870300293 C10.977999687194824,-15.397000312805176 3.546999931335449,-7.133999824523926 3.546999931335449,-7.133999824523926z"></path></g></g><g style="display: block;" transform="matrix(0.623879611492157,0.7815204858779907,-0.7815204858779907,0.623879611492157,313.2734069824219,-71.7164306640625)" opacity="1"><g opacity="1" transform="matrix(1,0,0,1,171.572998046875,273.2539978027344)"><path stroke-linecap="round" stroke-linejoin="round" fill-opacity="0" stroke="rgb(96,46,30)" stroke-opacity="1" stroke-width="5" d=" M0.3190000057220459,-3.8289999961853027 C0.3190000057220459,-3.8289999961853027 -2.746999979019165,-1.034999966621399 0.8889999985694885,3.8289999961853027"></path></g></g><g style="display: block;" transform="matrix(0.623879611492157,0.7815204858779907,-0.7815204858779907,0.623879611492157,312.77294921875,-75.21571350097656)" opacity="1"><g opacity="1" transform="matrix(1,0,0,1,166.1909942626953,282.9339904785156)"><path stroke-linecap="round" stroke-linejoin="round" fill-opacity="0" stroke="rgb(50,91,46)" stroke-opacity="1" stroke-width="5" d=" M36.64699935913086,-23.76099967956543 C36.64699935913086,-23.76099967956543 -3.2990000247955322,-9.347000122070312 -36.64699935913086,23.76099967956543"></path></g></g><g style="display: block;" transform="matrix(0.7501110434532166,0.6613118648529053,-0.6613118648529053,0.7501110434532166,258.1424865722656,-89.17304992675781)" opacity="1"><g opacity="1" transform="matrix(1,0,0,1,160.97000122070312,277.9939880371094)"><path stroke-linecap="round" stroke-linejoin="round" fill-opacity="0" stroke="rgb(59,104,52)" stroke-opacity="1" stroke-width="5" d=" M27.513999938964844,-8.178000450134277 C27.513999938964844,-8.178000450134277 -5.802999973297119,-0.47699999809265137 -27.513999938964844,8.178000450134277"></path></g></g><g style="display: block;" transform="matrix(0.623879611492157,0.7815204858779907,-0.7815204858779907,0.623879611492157,312.77294921875,-75.21571350097656)" opacity="1"><g opacity="1" transform="matrix(1,0,0,1,170.80599975585938,283.4110107421875)"><path stroke-linecap="round" stroke-linejoin="round" fill-opacity="0" stroke="rgb(67,114,63)" stroke-opacity="1" stroke-width="5" d=" M-30.32900047302246,31.07200050354004 C-30.32900047302246,31.07200050354004 -6.050000190734863,-10.961000442504883 30.32900047302246,-31.07200050354004"></path></g></g><g style="display: block;" transform="matrix(0.623879611492157,0.7815204858779907,-0.7815204858779907,0.623879611492157,312.77294921875,-75.21571350097656)" opacity="1"><g opacity="1" transform="matrix(1,0,0,1,123.63999938964844,310.9339904785156)"><path fill="rgb(201,191,147)" fill-opacity="1" d=" M-9.602999687194824,-13.036999702453613 C-11.869000434875488,-11.168999671936035 -4.495999813079834,-4.322000026702881 -4.495999813079834,-4.322000026702881 C-4.495999813079834,-4.322000026702881 -14.100000381469727,1.8040000200271606 -15.038999557495117,5.802999973297119 C-15.977999687194824,9.800999641418457 -2.4649999141693115,2.7320001125335693 -2.4649999141693115,2.7320001125335693 C-2.4649999141693115,2.7320001125335693 -6.5980000495910645,13.631999969482422 -3.9739999771118164,14.66100025177002 C-1.350000023841858,15.690999984741211 4.2870001792907715,4.230999946594238 4.4770002365112305,1.4809999465942383 C4.4770002365112305,1.4809999465942383 11.819000244140625,5.999000072479248 14.845999717712402,2.9649999141693115 C16.718000411987305,1.0880000591278076 7.020999908447266,-4.486000061035156 7.020999908447266,-4.486000061035156 C7.020999908447266,-4.486000061035156 12.965999603271484,-12.157999992370605 11.32699966430664,-14.362000465393066 C9.755999565124512,-16.474000930786133 1.378999948501587,-8.696999549865723 1.378999948501587,-8.696999549865723 C1.378999948501587,-8.696999549865723 -7.293000221252441,-14.940999984741211 -9.602999687194824,-13.036999702453613z"></path></g></g><g style="display: block;" transform="matrix(0.623879611492157,0.7815204858779907,-0.7815204858779907,0.623879611492157,312.77294921875,-75.21571350097656)" opacity="1"><g opacity="1" transform="matrix(1,0,0,1,135.76499938964844,320.6189880371094)"><path fill="rgb(234,226,190)" fill-opacity="1" d=" M-2.2720000743865967,-10.095000267028809 C-2.2720000743865967,-10.095000267028809 -14.635000228881836,-18.538999557495117 -17.256000518798828,-15.496000289916992 C-19.87700080871582,-12.45300006866455 -7.208000183105469,-3.8589999675750732 -7.208000183105469,-3.8589999675750732 C-7.208000183105469,-3.8589999675750732 -15.505000114440918,3.5969998836517334 -18.125,12.399999618530273 C-20.7450008392334,21.202999114990234 -5.6020002365112305,6.184000015258789 -1.4930000305175781,1.9110000133514404 C-1.4930000305175781,1.9110000133514404 -0.22699999809265137,18.900999069213867 3.624000072479248,20.226999282836914 C7.474999904632568,21.55299949645996 9.73799991607666,6.4070000648498535 6.565000057220459,-0.6150000095367432 C6.565000057220459,-0.6150000095367432 16.792999267578125,2.1760001182556152 18.280000686645508,-0.8550000190734863 C19.767000198364258,-3.885999917984009 9.572999954223633,-7.735000133514404 4.6539998054504395,-7.927999973297119 C4.6539998054504395,-7.927999973297119 6.625,-18.575000762939453 2.936000108718872,-20.15999984741211 C-0.7540000081062317,-21.7450008392334 -2.2720000743865967,-10.095000267028809 -2.2720000743865967,-10.095000267028809z"></path></g></g><g style="display: block;" transform="matrix(0.7501110434532166,0.6613118648529053,-0.6613118648529053,0.7501110434532166,258.1424865722656,-89.17304992675781)" opacity="1"><g opacity="1" transform="matrix(1,0,0,1,128.96099853515625,286.2080078125)"><path fill="rgb(239,231,194)" fill-opacity="1" d=" M3.546999931335449,-7.133999824523926 C1.0299999713897705,-10.319000244140625 -6.38700008392334,-13.904000282287598 -8.027000427246094,-12.098999977111816 C-9.666999816894531,-10.293999671936035 -2.3540000915527344,-2.8929998874664307 -2.3540000915527344,-2.8929998874664307 C-2.3540000915527344,-2.8929998874664307 -11.935999870300293,-3.5490000247955322 -14.645999908447266,0.3230000138282776 C-17.356000900268555,4.195000171661377 -1.8020000457763672,3.9809999465942383 -1.8020000457763672,3.9809999465942383 C-1.8020000457763672,3.9809999465942383 -3.882999897003174,13.062999725341797 -0.8420000076293945,14.133999824523926 C2.1989998817443848,15.204999923706055 5.248000144958496,4.183000087738037 5.248000144958496,4.183000087738037 C5.248000144958496,4.183000087738037 13.206000328063965,8.604999542236328 14.774999618530273,7.132999897003174 C16.3439998626709,5.659999847412109 7.613999843597412,-1.9550000429153442 7.613999843597412,-1.9550000429153442 C7.613999843597412,-1.9550000429153442 15.258999824523926,-11.972000122070312 12.647000312805176,-14.060999870300293 C10.977999687194824,-15.397000312805176 3.546999931335449,-7.133999824523926 3.546999931335449,-7.133999824523926z"></path></g></g><g style="display: block;" transform="matrix(0.623879611492157,0.7815204858779907,-0.7815204858779907,0.623879611492157,312.77294921875,-75.21571350097656)" opacity="1"><g opacity="1" transform="matrix(1,0,0,1,171.572998046875,273.2539978027344)"><path stroke-linecap="round" stroke-linejoin="round" fill-opacity="0" stroke="rgb(211,206,201)" stroke-opacity="1" stroke-width="5" d=" M0.3190000057220459,-3.8289999961853027 C0.3190000057220459,-3.8289999961853027 -2.746999979019165,-1.034999966621399 0.8889999985694885,3.8289999961853027"></path></g></g><g style="display: none;"><g><path fill="url(#__lottie_element_4047)"></path></g><g><path></path></g><g><g><path stroke-linecap="round" stroke-linejoin="round" fill-opacity="0"></path></g><g><path stroke-linecap="round" stroke-linejoin="round" fill-opacity="0"></path></g><g><path stroke-linecap="round" stroke-linejoin="round" fill-opacity="0"></path></g><g><path stroke-linecap="round" stroke-linejoin="round" fill-opacity="0"></path></g><g><path stroke-linecap="round" stroke-linejoin="round" fill-opacity="0"></path></g><g><path stroke-linecap="round" stroke-linejoin="round" fill-opacity="0"></path></g><g><path stroke-linecap="round" stroke-linejoin="round" fill-opacity="0"></path></g><g><path stroke-linecap="round" stroke-linejoin="round" fill-opacity="0"></path></g><g><path stroke-linecap="round" stroke-linejoin="round" fill-opacity="0"></path></g><g><path stroke-linecap="round" stroke-linejoin="round" fill-opacity="0"></path></g><g><path stroke-linecap="round" stroke-linejoin="round" fill-opacity="0"></path></g><g><path stroke-linecap="round" stroke-linejoin="round" fill-opacity="0"></path></g><g><path stroke-linecap="round" stroke-linejoin="round" fill-opacity="0"></path></g><g><path stroke-linecap="round" stroke-linejoin="round" fill-opacity="0"></path></g><g><path stroke-linecap="round" stroke-linejoin="round" fill-opacity="0"></path></g><g><path stroke-linecap="round" stroke-linejoin="round" fill-opacity="0"></path></g><g><path stroke-linecap="round" stroke-linejoin="round" fill-opacity="0"></path></g><g><path stroke-linecap="round" stroke-linejoin="round" fill-opacity="0"></path></g><g><path stroke-linecap="round" stroke-linejoin="round" fill-opacity="0"></path></g><g><path stroke-linecap="round" stroke-linejoin="round" fill-opacity="0"></path></g><g><path stroke-linecap="round" stroke-linejoin="round" fill-opacity="0"></path></g><g><path stroke-linecap="round" stroke-linejoin="round" fill-opacity="0"></path></g><g><path stroke-linecap="round" stroke-linejoin="round" fill-opacity="0"></path></g></g><g><path></path><path stroke-linecap="round" stroke-linejoin="round" fill-opacity="0"></path></g><g><g><path></path><path stroke-linecap="round" stroke-linejoin="round" fill-opacity="0"></path></g><g><path></path><path stroke-linecap="round" stroke-linejoin="round" fill-opacity="0"></path></g></g><g><path stroke-linecap="round" stroke-linejoin="round" fill-opacity="0"></path></g></g><g style="display: block;" transform="matrix(1.25,0,0,1.25,256.00042724609375,256.00018310546875)" opacity="1"><g opacity="1" transform="matrix(1,0,0,1,0,0)"><path fill="rgb(255,255,255)" fill-opacity="1" d="M0 0"></path><path stroke-linecap="round" stroke-linejoin="miter" fill-opacity="0" stroke-miterlimit="4" stroke="rgb(255,255,255)" stroke-opacity="1" stroke-width="6" d="M0 0"></path></g><g opacity="1" transform="matrix(1,0,0,1,0,0)"><path fill="rgb(255,255,255)" fill-opacity="1" d="M0 0"></path><path stroke-linecap="round" stroke-linejoin="miter" fill-opacity="0" stroke-miterlimit="4" stroke="rgb(255,255,255)" stroke-opacity="1" stroke-width="6" d="M0 0"></path></g><g opacity="1" transform="matrix(1,0,0,1,0,0)"><path fill="rgb(255,255,255)" fill-opacity="1" d="M0 0"></path><path stroke-linecap="round" stroke-linejoin="miter" fill-opacity="0" stroke-miterlimit="4" stroke="rgb(255,255,255)" stroke-opacity="1" stroke-width="6" d="M0 0"></path></g></g><g style="display: block;" transform="matrix(1.217962622642517,-0.2811887860298157,0.2811887860298157,1.217962622642517,263.3243103027344,238.0101776123047)" opacity="1"><g opacity="1" transform="matrix(1,0,0,1,0,0)"><path fill="rgb(255,255,255)" fill-opacity="1" d="M0 0"></path><path stroke-linecap="round" stroke-linejoin="miter" fill-opacity="0" stroke-miterlimit="4" stroke="rgb(255,255,255)" stroke-opacity="1" stroke-width="6" d="M0 0"></path></g><g opacity="1" transform="matrix(1,0,0,1,0,0)"><path fill="rgb(255,255,255)" fill-opacity="1" d="M0 0"></path><path stroke-linecap="round" stroke-linejoin="miter" fill-opacity="0" stroke-miterlimit="4" stroke="rgb(255,255,255)" stroke-opacity="1" stroke-width="6" d="M0 0"></path></g><g opacity="1" transform="matrix(1,0,0,1,0,0)"><path fill="rgb(255,255,255)" fill-opacity="1" d="M0 0"></path><path stroke-linecap="round" stroke-linejoin="miter" fill-opacity="0" stroke-miterlimit="4" stroke="rgb(255,255,255)" stroke-opacity="1" stroke-width="6" d="M0 0"></path></g></g></g></svg>