<svg xmlns="http://www.w3.org/2000/svg" viewBox="0 0 512 512" width="512" height="512" style="width: 100%; height: 100%; transform: translate3d(0,0,0);" preserveAspectRatio="xMidYMid meet"><defs><clipPath id="__lottie_element_4095"><rect width="512" height="512" x="0" y="0"></rect></clipPath><radialGradient id="__lottie_element_4116" spreadMethod="pad" gradientUnits="userSpaceOnUse" cx="-4.495999813079834" cy="-199.95399475097656" r="9.195851224151866" fx="-4.495999813079834" fy="-199.95399475097656"><stop offset="0%" stop-color="rgb(255,255,255)" stop-opacity="1"></stop><stop offset="59%" stop-color="rgb(255,255,255)" stop-opacity="0.5"></stop><stop offset="100%" stop-color="rgb(255,255,255)" stop-opacity="0"></stop></radialGradient><radialGradient id="__lottie_element_4119" spreadMethod="pad" gradientUnits="userSpaceOnUse" cx="0.0430000014603138" cy="-0.6019999980926514" r="19.24947667477712" fx="0.0430000014603138" fy="-0.6019999980926514"><stop offset="0%" stop-color="rgb(255,255,255)" stop-opacity="1"></stop><stop offset="59%" stop-color="rgb(255,255,255)" stop-opacity="0.5"></stop><stop offset="100%" stop-color="rgb(255,255,255)" stop-opacity="0"></stop></radialGradient></defs><g clip-path="url(#__lottie_element_4095)"><g style="display: block;" transform="matrix(1,0,0,1,370.31201171875,-63.15700149536133)" opacity="1"><g opacity="1" transform="matrix(1,0,0,1,0,0)"><path stroke-linecap="butt" stroke-linejoin="miter" fill-opacity="0" stroke-miterlimit="10" stroke="rgb(200,200,200)" stroke-opacity="1" stroke-width="3" d=" M7.5,20.687000274658203 C7.5,20.687000274658203 7.5,7.5 7.5,7.5"></path></g></g><g style="display: block;" transform="matrix(1,0,0,1,316.95098876953125,-321.552001953125)" opacity="1"><g opacity="1" transform="matrix(1,0,0,1,19.715999603271484,34.56399917602539)"><path fill="rgb(88,88,88)" fill-opacity="1" d=" M2.246999979019165,14.559000015258789 C1.718000054359436,9.508999824523926 0.29899999499320984,-2.244999885559082 1.465000033378601,-19.56399917602539 C1.465000033378601,-19.56399917602539 -2.7709999084472656,-4.400000095367432 -2.7709999084472656,14.559000015258789 C-2.7709999084472656,19.20599937438965 2.7709999084472656,19.56399917602539 2.246999979019165,14.559000015258789z"></path><path stroke-linecap="round" stroke-linejoin="round" fill-opacity="0" stroke="rgb(51,51,51)" stroke-opacity="1" stroke-width="6" d=" M2.246999979019165,14.559000015258789 C1.718000054359436,9.508999824523926 0.29899999499320984,-2.244999885559082 1.465000033378601,-19.56399917602539 C1.465000033378601,-19.56399917602539 -2.7709999084472656,-4.400000095367432 -2.7709999084472656,14.559000015258789 C-2.7709999084472656,19.20599937438965 2.7709999084472656,19.56399917602539 2.246999979019165,14.559000015258789z"></path></g></g><g style="display: block;" transform="matrix(1,0,0,1,316.95098876953125,-321.552001953125)" opacity="1"><g opacity="1" transform="matrix(1,0,0,1,22.207000732421875,71.89299774169922)"><path fill="rgb(88,88,88)" fill-opacity="1" d=" M3.684000015258789,22.05500030517578 C7.208000183105469,20.51799964904785 4.158999919891357,7.307000160217285 3.0190000534057617,0.029999999329447746 C0.30399999022483826,-17.29800033569336 2.0980000495910645,-23.972000122070312 -2.118000030517578,-24.895000457763672 C-7.208000183105469,-26.009000778198242 -5.611000061035156,-17.33300018310547 -4.49399995803833,-6.264999866485596 C-2.867000102996826,9.838000297546387 -5.379000186920166,26.009000778198242 3.684000015258789,22.05500030517578z"></path><path stroke-linecap="round" stroke-linejoin="round" fill-opacity="0" stroke="rgb(51,51,51)" stroke-opacity="1" stroke-width="6" d=" M3.684000015258789,22.05500030517578 C7.208000183105469,20.51799964904785 4.158999919891357,7.307000160217285 3.0190000534057617,0.029999999329447746 C0.30399999022483826,-17.29800033569336 2.0980000495910645,-23.972000122070312 -2.118000030517578,-24.895000457763672 C-7.208000183105469,-26.009000778198242 -5.611000061035156,-17.33300018310547 -4.49399995803833,-6.264999866485596 C-2.867000102996826,9.838000297546387 -5.379000186920166,26.009000778198242 3.684000015258789,22.05500030517578z"></path></g></g><g style="display: block;" transform="matrix(1,0,0,1,316.95098876953125,-321.552001953125)" opacity="1"><g opacity="1" transform="matrix(1,0,0,1,31.683000564575195,106.80400085449219)"><path fill="rgb(88,88,88)" fill-opacity="1" d=" M7.932000160217285,14.810999870300293 C13.843000411987305,12.53499984741211 10.067999839782715,5.738999843597412 5.861000061035156,0.9620000123977661 C-2.250999927520752,-8.246999740600586 -2.0850000381469727,-17.08799934387207 -7.460999965667725,-15.305000305175781 C-13.843000411987305,-13.187999725341797 -7.747000217437744,-7.414000034332275 -5.004000186920166,-1.2890000343322754 C-1.6369999647140503,6.229000091552734 2.0209999084472656,17.08799934387207 7.932000160217285,14.810999870300293z"></path><path stroke-linecap="round" stroke-linejoin="round" fill-opacity="0" stroke="rgb(51,51,51)" stroke-opacity="1" stroke-width="6" d=" M7.932000160217285,14.810999870300293 C13.843000411987305,12.53499984741211 10.067999839782715,5.738999843597412 5.861000061035156,0.9620000123977661 C-2.250999927520752,-8.246999740600586 -2.0850000381469727,-17.08799934387207 -7.460999965667725,-15.305000305175781 C-13.843000411987305,-13.187999725341797 -7.747000217437744,-7.414000034332275 -5.004000186920166,-1.2890000343322754 C-1.6369999647140503,6.229000091552734 2.0209999084472656,17.08799934387207 7.932000160217285,14.810999870300293z"></path></g></g><g style="display: block;" transform="matrix(1,0,0,1,316.95098876953125,-321.552001953125)" opacity="1"><g opacity="1" transform="matrix(1,0,0,1,49.33000183105469,125.5009994506836)"><path fill="rgb(88,88,88)" fill-opacity="1" d=" M5.994999885559082,-0.014999999664723873 C-0.8949999809265137,-3.947000026702881 -1.5540000200271606,-9.217000007629395 -7.051000118255615,-9.16100025177002 C-9.107999801635742,-9.140000343322754 -14.54800033569336,-5.708000183105469 -11.265999794006348,-1.378000020980835 C-3.2339999675750732,9.217000007629395 14.54800033569336,4.866000175476074 5.994999885559082,-0.014999999664723873z"></path><path stroke-linecap="round" stroke-linejoin="round" fill-opacity="0" stroke="rgb(51,51,51)" stroke-opacity="1" stroke-width="6" d=" M5.994999885559082,-0.014999999664723873 C-0.8949999809265137,-3.947000026702881 -1.5540000200271606,-9.217000007629395 -7.051000118255615,-9.16100025177002 C-9.107999801635742,-9.140000343322754 -14.54800033569336,-5.708000183105469 -11.265999794006348,-1.378000020980835 C-3.2339999675750732,9.217000007629395 14.54800033569336,4.866000175476074 5.994999885559082,-0.014999999664723873z"></path></g></g><g style="display: block;" transform="matrix(1,0,0,1,278.2049865722656,-293.09600830078125)" opacity="1"><g opacity="1" transform="matrix(1,0,0,1,20.90399932861328,33.516998291015625)"><path fill="rgb(88,88,88)" fill-opacity="1" d=" M4.525000095367432,13.838000297546387 C1.8969999551773071,7.166999816894531 -4.494999885559082,-6.26800012588501 -5.9039998054504395,-18.517000198364258 C-5.9039998054504395,-18.517000198364258 -3.861999988555908,6.074999809265137 0.6110000014305115,15.168999671936035 C2.257999897003174,18.517000198364258 5.90500020980835,17.343000411987305 4.525000095367432,13.838000297546387z"></path><path stroke-linecap="round" stroke-linejoin="round" fill-opacity="0" stroke="rgb(51,51,51)" stroke-opacity="1" stroke-width="6" d=" M4.525000095367432,13.838000297546387 C1.8969999551773071,7.166999816894531 -4.494999885559082,-6.26800012588501 -5.9039998054504395,-18.517000198364258 C-5.9039998054504395,-18.517000198364258 -3.861999988555908,6.074999809265137 0.6110000014305115,15.168999671936035 C2.257999897003174,18.517000198364258 5.90500020980835,17.343000411987305 4.525000095367432,13.838000297546387z"></path></g></g><g style="display: block;" transform="matrix(1,0,0,1,278.2049865722656,-293.09600830078125)" opacity="1"><g opacity="1" transform="matrix(1,0,0,1,35.029998779296875,69.77799987792969)"><path fill="rgb(88,88,88)" fill-opacity="1" d=" M11.963000297546387,17.260000228881836 C15.10099983215332,14.25 8.140999794006348,7.185999870300293 1.5460000038146973,-3.5920000076293945 C-4.564000129699707,-13.57800006866455 -6.901000022888184,-22.750999450683594 -11.154999732971191,-21.351999282836914 C-15.10099983215332,-20.055999755859375 -9.685999870300293,-10.458999633789062 -6,-3.98799991607666 C1.7489999532699585,9.61299991607666 6.239999771118164,22.75 11.963000297546387,17.260000228881836z"></path><path stroke-linecap="round" stroke-linejoin="round" fill-opacity="0" stroke="rgb(51,51,51)" stroke-opacity="1" stroke-width="6" d=" M11.963000297546387,17.260000228881836 C15.10099983215332,14.25 8.140999794006348,7.185999870300293 1.5460000038146973,-3.5920000076293945 C-4.564000129699707,-13.57800006866455 -6.901000022888184,-22.750999450683594 -11.154999732971191,-21.351999282836914 C-15.10099983215332,-20.055999755859375 -9.685999870300293,-10.458999633789062 -6,-3.98799991607666 C1.7489999532699585,9.61299991607666 6.239999771118164,22.75 11.963000297546387,17.260000228881836z"></path></g></g><g style="display: block;" transform="matrix(1,0,0,1,278.2049865722656,-293.09600830078125)" opacity="1"><g opacity="1" transform="matrix(1,0,0,1,60.071998596191406,99.33399963378906)"><path fill="rgb(88,88,88)" fill-opacity="1" d=" M16.31100082397461,9.300000190734863 C18.384000778198242,6.269999980926514 14.220000267028809,1.1920000314712524 6.02400016784668,-2.806999921798706 C-6.879000186920166,-9.104000091552734 -10.876999855041504,-16.381999969482422 -14.41100025177002,-13.675999641418457 C-18.384000778198242,-10.633000373840332 -13.147000312805176,-6.567999839782715 -7.433000087738037,-2.13700008392334 C3.38700008392334,6.254000186920166 11.46500015258789,16.381999969482422 16.31100082397461,9.300000190734863z"></path><path stroke-linecap="round" stroke-linejoin="round" fill-opacity="0" stroke="rgb(51,51,51)" stroke-opacity="1" stroke-width="6" d=" M16.31100082397461,9.300000190734863 C18.384000778198242,6.269999980926514 14.220000267028809,1.1920000314712524 6.02400016784668,-2.806999921798706 C-6.879000186920166,-9.104000091552734 -10.876999855041504,-16.381999969482422 -14.41100025177002,-13.675999641418457 C-18.384000778198242,-10.633000373840332 -13.147000312805176,-6.567999839782715 -7.433000087738037,-2.13700008392334 C3.38700008392334,6.254000186920166 11.46500015258789,16.381999969482422 16.31100082397461,9.300000190734863z"></path></g></g><g style="display: block;" transform="matrix(1,0,0,1,278.2049865722656,-293.09600830078125)" opacity="1"><g opacity="1" transform="matrix(1,0,0,1,86.02400207519531,112.70600128173828)"><path fill="rgb(88,88,88)" fill-opacity="1" d=" M5.834000110626221,-2.569999933242798 C-1.9259999990463257,-4.216000080108643 -4.158999919891357,-9.03499984741211 -9.378000259399414,-7.307000160217285 C-11.331999778747559,-6.660999774932861 -15.467000007629395,-1.7339999675750732 -11.020999908447266,1.3899999856948853 C-0.14399999380111694,9.03499984741211 15.468000411987305,-0.5260000228881836 5.834000110626221,-2.569999933242798z"></path><path stroke-linecap="round" stroke-linejoin="round" fill-opacity="0" stroke="rgb(51,51,51)" stroke-opacity="1" stroke-width="6" d=" M5.834000110626221,-2.569999933242798 C-1.9259999990463257,-4.216000080108643 -4.158999919891357,-9.03499984741211 -9.378000259399414,-7.307000160217285 C-11.331999778747559,-6.660999774932861 -15.467000007629395,-1.7339999675750732 -11.020999908447266,1.3899999856948853 C-0.14399999380111694,9.03499984741211 15.468000411987305,-0.5260000228881836 5.834000110626221,-2.569999933242798z"></path></g></g><g style="display: block;" transform="matrix(0.882947564125061,-0.4694715440273285,0.4694715440273285,0.882947564125061,243.65487670898438,-157.2549591064453)" opacity="1"><g opacity="1" transform="matrix(1,0,0,1,28.280000686645508,66.83100128173828)"><path fill="rgb(88,88,88)" fill-opacity="1" d=" M8.583999633789062,-22.02400016784668 C5.486000061035156,-23.72599983215332 0.8270000219345093,-17.81599998474121 -4.948999881744385,-3.303999900817871 C-11.789999961853027,13.88599967956543 -13.281000137329102,23.72599983215332 -13.281000137329102,23.72599983215332 C-13.281000137329102,23.72599983215332 -9.468999862670898,13.770000457763672 -0.27300000190734863,-1.1920000314712524 C6.334000110626221,-11.944999694824219 13.281000137329102,-19.44499969482422 8.583999633789062,-22.02400016784668z"></path><path stroke-linecap="round" stroke-linejoin="round" fill-opacity="0" stroke="rgb(51,51,51)" stroke-opacity="1" stroke-width="6" d=" M8.583999633789062,-22.02400016784668 C5.486000061035156,-23.72599983215332 0.8270000219345093,-17.81599998474121 -4.948999881744385,-3.303999900817871 C-11.789999961853027,13.88599967956543 -13.281000137329102,23.72599983215332 -13.281000137329102,23.72599983215332 C-13.281000137329102,23.72599983215332 -9.468999862670898,13.770000457763672 -0.27300000190734863,-1.1920000314712524 C6.334000110626221,-11.944999694824219 13.281000137329102,-19.44499969482422 8.583999633789062,-22.02400016784668z"></path></g></g><g style="display: block;" transform="matrix(0.9335803985595703,-0.3583679497241974,0.3583679497241974,0.9335803985595703,247.22732543945312,-163.5325469970703)" opacity="1"><g opacity="1" transform="matrix(1,0,0,1,52.14400100708008,33.64400100708008)"><path fill="rgb(88,88,88)" fill-opacity="1" d=" M18.44700050354004,-17.38800048828125 C13.852999687194824,-18.643999099731445 9.958000183105469,-12.901000022888184 -0.4129999876022339,-4.448999881744385 C-10.635000228881836,3.881999969482422 -16.327999114990234,5.9629998207092285 -18.993000030517578,10.036999702453613 C-21.483999252319336,13.843999862670898 -16.67300033569336,18.643999099731445 -12.574999809265137,14.994999885559082 C-7.51800012588501,10.491999626159668 -2.1549999713897705,5.193999767303467 5.663000106811523,-0.7760000228881836 C11.99899959564209,-5.613999843597412 17.829999923706055,-8.663999557495117 19.95400047302246,-11.574000358581543 C21.483999252319336,-13.668999671936035 21.05299949645996,-16.676000595092773 18.44700050354004,-17.38800048828125z"></path><path stroke-linecap="round" stroke-linejoin="round" fill-opacity="0" stroke="rgb(51,51,51)" stroke-opacity="1" stroke-width="6" d=" M18.44700050354004,-17.38800048828125 C13.852999687194824,-18.643999099731445 9.958000183105469,-12.901000022888184 -0.4129999876022339,-4.448999881744385 C-10.635000228881836,3.881999969482422 -16.327999114990234,5.9629998207092285 -18.993000030517578,10.036999702453613 C-21.483999252319336,13.843999862670898 -16.67300033569336,18.643999099731445 -12.574999809265137,14.994999885559082 C-7.51800012588501,10.491999626159668 -2.1549999713897705,5.193999767303467 5.663000106811523,-0.7760000228881836 C11.99899959564209,-5.613999843597412 17.829999923706055,-8.663999557495117 19.95400047302246,-11.574000358581543 C21.483999252319336,-13.668999671936035 21.05299949645996,-16.676000595092773 18.44700050354004,-17.38800048828125z"></path></g></g><g style="display: block;" transform="matrix(0.9702957272529602,-0.24192188680171967,0.24192188680171967,0.9702957272529602,246.945556640625,-172.3649444580078)" opacity="1"><g opacity="1" transform="matrix(1,0,0,1,83.16600036621094,24.534000396728516)"><path fill="rgb(88,88,88)" fill-opacity="1" d=" M16.06999969482422,1.4529999494552612 C16.520999908447266,-2.4590001106262207 11.493000030517578,-5.7270002365112305 4.410999774932861,-5.926000118255615 C-6.067999839782715,-6.2210001945495605 -8.105999946594238,-9.128000259399414 -12.54800033569336,-7.769999980926514 C-16.520999908447266,-6.556000232696533 -16.47100067138672,-1.031999945640564 -11.824000358581543,-0.5080000162124634 C-7.423999786376953,-0.013000000268220901 -4.1479997634887695,0.004000000189989805 -0.31200000643730164,1.4529999494552612 C6.328999996185303,3.9630000591278076 15.1850004196167,9.128000259399414 16.06999969482422,1.4529999494552612z"></path><path stroke-linecap="round" stroke-linejoin="round" fill-opacity="0" stroke="rgb(51,51,51)" stroke-opacity="1" stroke-width="6" d=" M16.06999969482422,1.4529999494552612 C16.520999908447266,-2.4590001106262207 11.493000030517578,-5.7270002365112305 4.410999774932861,-5.926000118255615 C-6.067999839782715,-6.2210001945495605 -8.105999946594238,-9.128000259399414 -12.54800033569336,-7.769999980926514 C-16.520999908447266,-6.556000232696533 -16.47100067138672,-1.031999945640564 -11.824000358581543,-0.5080000162124634 C-7.423999786376953,-0.013000000268220901 -4.1479997634887695,0.004000000189989805 -0.31200000643730164,1.4529999494552612 C6.328999996185303,3.9630000591278076 15.1850004196167,9.128000259399414 16.06999969482422,1.4529999494552612z"></path></g></g><g style="display: block;" transform="matrix(0.9925461411476135,-0.12186934053897858,0.12186934053897858,0.9925461411476135,247.8829345703125,-184.37953186035156)" opacity="1"><g opacity="1" transform="matrix(1,0,0,1,107.61199951171875,29.554000854492188)"><path fill="rgb(88,88,88)" fill-opacity="1" d=" M5.834000110626221,-2.569000005722046 C-1.9259999990463257,-4.215000152587891 -4.158999919891357,-9.03600025177002 -9.378000259399414,-7.307000160217285 C-11.331000328063965,-6.660999774932861 -15.467000007629395,-1.7330000400543213 -11.020999908447266,1.3910000324249268 C-0.14399999380111694,9.03600025177002 15.468000411987305,-0.5260000228881836 5.834000110626221,-2.569000005722046z"></path><path stroke-linecap="round" stroke-linejoin="round" fill-opacity="0" stroke="rgb(51,51,51)" stroke-opacity="1" stroke-width="6" d=" M5.834000110626221,-2.569000005722046 C-1.9259999990463257,-4.215000152587891 -4.158999919891357,-9.03600025177002 -9.378000259399414,-7.307000160217285 C-11.331000328063965,-6.660999774932861 -15.467000007629395,-1.7330000400543213 -11.020999908447266,1.3910000324249268 C-0.14399999380111694,9.03600025177002 15.468000411987305,-0.5260000228881836 5.834000110626221,-2.569000005722046z"></path></g></g><g style="display: block;" transform="matrix(0.9335803985595703,-0.3583679497241974,0.3583679497241974,0.9335803985595703,277.00146484375,-164.2800750732422)" opacity="1"><g opacity="1" transform="matrix(1,0,0,1,20.297000885009766,110.99600219726562)"><path fill="rgb(88,88,88)" fill-opacity="1" d=" M0.9200000166893005,25.010000228881836 C0.9200000166893005,25.010000228881836 0.41100001335144043,4.7769999504089355 4.533999919891357,-19.714000701904297 C5.296999931335449,-24.2450008392334 -2.989000082015991,-25.010000228881836 -3.377000093460083,-21.809999465942383 C-5.296999931335449,-6.008999824523926 0.9200000166893005,25.010000228881836 0.9200000166893005,25.010000228881836z"></path><path stroke-linecap="round" stroke-linejoin="round" fill-opacity="0" stroke="rgb(51,51,51)" stroke-opacity="1" stroke-width="6" d=" M0.9200000166893005,25.010000228881836 C0.9200000166893005,25.010000228881836 0.41100001335144043,4.7769999504089355 4.533999919891357,-19.714000701904297 C5.296999931335449,-24.2450008392334 -2.989000082015991,-25.010000228881836 -3.377000093460083,-21.809999465942383 C-5.296999931335449,-6.008999824523926 0.9200000166893005,25.010000228881836 0.9200000166893005,25.010000228881836z"></path></g></g><g style="display: block;" transform="matrix(0.9702957272529602,-0.24192188680171967,0.24192188680171967,0.9702957272529602,286.8741455078125,-169.96910095214844)" opacity="1"><g opacity="1" transform="matrix(1,0,0,1,30.309999465942383,63.57400131225586)"><path fill="rgb(88,88,88)" fill-opacity="1" d=" M4.2820000648498535,-30.143999099731445 C-1.3200000524520874,-30.143999099731445 -0.8479999899864197,-20.96500015258789 -5.479000091552734,-4.078999996185303 C-11.218000411987305,16.847000122070312 -14.03600025177002,18.091999053955078 -13.949999809265137,23.43600082397461 C-13.855999946594238,29.332000732421875 -6.073999881744385,30.143999099731445 -4.019999980926514,23.790000915527344 C-3.049999952316284,20.785999298095703 -1.3049999475479126,10.890999794006348 1.781000018119812,-0.6729999780654907 C6.151000022888184,-17.054000854492188 14.03600025177002,-30.143999099731445 4.2820000648498535,-30.143999099731445z"></path><path stroke-linecap="round" stroke-linejoin="round" fill-opacity="0" stroke="rgb(51,51,51)" stroke-opacity="1" stroke-width="6" d=" M4.2820000648498535,-30.143999099731445 C-1.3200000524520874,-30.143999099731445 -0.8479999899864197,-20.96500015258789 -5.479000091552734,-4.078999996185303 C-11.218000411987305,16.847000122070312 -14.03600025177002,18.091999053955078 -13.949999809265137,23.43600082397461 C-13.855999946594238,29.332000732421875 -6.073999881744385,30.143999099731445 -4.019999980926514,23.790000915527344 C-3.049999952316284,20.785999298095703 -1.3049999475479126,10.890999794006348 1.781000018119812,-0.6729999780654907 C6.151000022888184,-17.054000854492188 14.03600025177002,-30.143999099731445 4.2820000648498535,-30.143999099731445z"></path></g></g><g style="display: block;" transform="matrix(0.9925461411476135,-0.12186934053897858,0.12186934053897858,0.9925461411476135,290.5787353515625,-174.9737091064453)" opacity="1"><g opacity="1" transform="matrix(1,0,0,1,52.83300018310547,29.586999893188477)"><path fill="rgb(88,88,88)" fill-opacity="1" d=" M-18.163000106811523,10.600000381469727 C-21.760000228881836,7.961999893188477 -22.788999557495117,0.9549999833106995 -9.645999908447266,-3.8949999809265137 C4.692999839782715,-9.185999870300293 8.293000221252441,-14.586000442504883 15.541000366210938,-13.861000061035156 C22.788999557495117,-13.13599967956543 20.775999069213867,-3.3519999980926514 14.444000244140625,-2.447000026702881 C8.111000061035156,-1.5410000085830688 2.2320001125335693,1.0080000162124634 -2.4800000190734863,3.556999921798706 C-9.520999908447266,7.367000102996826 -12.72700023651123,14.586000442504883 -18.163000106811523,10.600000381469727z"></path><path stroke-linecap="round" stroke-linejoin="round" fill-opacity="0" stroke="rgb(51,51,51)" stroke-opacity="1" stroke-width="6" d=" M-18.163000106811523,10.600000381469727 C-21.760000228881836,7.961999893188477 -22.788999557495117,0.9549999833106995 -9.645999908447266,-3.8949999809265137 C4.692999839782715,-9.185999870300293 8.293000221252441,-14.586000442504883 15.541000366210938,-13.861000061035156 C22.788999557495117,-13.13599967956543 20.775999069213867,-3.3519999980926514 14.444000244140625,-2.447000026702881 C8.111000061035156,-1.5410000085830688 2.2320001125335693,1.0080000162124634 -2.4800000190734863,3.556999921798706 C-9.520999908447266,7.367000102996826 -12.72700023651123,14.586000442504883 -18.163000106811523,10.600000381469727z"></path></g></g><g style="display: block;" transform="matrix(1,0,0,1,359.5299987792969,-321.5509948730469)" opacity="1"><g opacity="1" transform="matrix(1,0,0,1,59.16299819946289,34.56399917602539)"><path fill="rgb(88,88,88)" fill-opacity="1" d=" M-2.246999979019165,14.559000015258789 C-1.718000054359436,9.508999824523926 -0.29899999499320984,-2.244999885559082 -1.465000033378601,-19.56399917602539 C-1.465000033378601,-19.56399917602539 2.7709999084472656,-4.400000095367432 2.7709999084472656,14.559000015258789 C2.7709999084472656,19.20599937438965 -2.7709999084472656,19.56399917602539 -2.246999979019165,14.559000015258789z"></path><path stroke-linecap="round" stroke-linejoin="round" fill-opacity="0" stroke="rgb(51,51,51)" stroke-opacity="1" stroke-width="6" d=" M-2.246999979019165,14.559000015258789 C-1.718000054359436,9.508999824523926 -0.29899999499320984,-2.244999885559082 -1.465000033378601,-19.56399917602539 C-1.465000033378601,-19.56399917602539 2.7709999084472656,-4.400000095367432 2.7709999084472656,14.559000015258789 C2.7709999084472656,19.20599937438965 -2.7709999084472656,19.56399917602539 -2.246999979019165,14.559000015258789z"></path></g></g><g style="display: block;" transform="matrix(1,0,0,1,359.5299987792969,-321.5509948730469)" opacity="1"><g opacity="1" transform="matrix(1,0,0,1,56.672000885009766,71.89299774169922)"><path fill="rgb(88,88,88)" fill-opacity="1" d=" M-3.683000087738037,22.05500030517578 C-7.206999778747559,20.51799964904785 -4.158999919891357,7.307000160217285 -3.0190000534057617,0.029999999329447746 C-0.30399999022483826,-17.29800033569336 -2.0980000495910645,-23.972000122070312 2.118000030517578,-24.895000457763672 C7.208000183105469,-26.009000778198242 5.611000061035156,-17.33300018310547 4.49399995803833,-6.264999866485596 C2.867000102996826,9.838000297546387 5.380000114440918,26.009000778198242 -3.683000087738037,22.05500030517578z"></path><path stroke-linecap="round" stroke-linejoin="round" fill-opacity="0" stroke="rgb(51,51,51)" stroke-opacity="1" stroke-width="6" d=" M-3.683000087738037,22.05500030517578 C-7.206999778747559,20.51799964904785 -4.158999919891357,7.307000160217285 -3.0190000534057617,0.029999999329447746 C-0.30399999022483826,-17.29800033569336 -2.0980000495910645,-23.972000122070312 2.118000030517578,-24.895000457763672 C7.208000183105469,-26.009000778198242 5.611000061035156,-17.33300018310547 4.49399995803833,-6.264999866485596 C2.867000102996826,9.838000297546387 5.380000114440918,26.009000778198242 -3.683000087738037,22.05500030517578z"></path></g></g><g style="display: block;" transform="matrix(1,0,0,1,359.5299987792969,-321.5509948730469)" opacity="1"><g opacity="1" transform="matrix(1,0,0,1,47.19599914550781,106.80400085449219)"><path fill="rgb(88,88,88)" fill-opacity="1" d=" M-7.931000232696533,14.810999870300293 C-13.842000007629395,12.53499984741211 -10.067999839782715,5.738999843597412 -5.861000061035156,0.9620000123977661 C2.250999927520752,-8.246999740600586 2.0850000381469727,-17.08799934387207 7.460999965667725,-15.305000305175781 C13.843000411987305,-13.187999725341797 7.747000217437744,-7.414000034332275 5.004000186920166,-1.2890000343322754 C1.6369999647140503,6.229000091552734 -2.0199999809265137,17.08799934387207 -7.931000232696533,14.810999870300293z"></path><path stroke-linecap="round" stroke-linejoin="round" fill-opacity="0" stroke="rgb(51,51,51)" stroke-opacity="1" stroke-width="6" d=" M-7.931000232696533,14.810999870300293 C-13.842000007629395,12.53499984741211 -10.067999839782715,5.738999843597412 -5.861000061035156,0.9620000123977661 C2.250999927520752,-8.246999740600586 2.0850000381469727,-17.08799934387207 7.460999965667725,-15.305000305175781 C13.843000411987305,-13.187999725341797 7.747000217437744,-7.414000034332275 5.004000186920166,-1.2890000343322754 C1.6369999647140503,6.229000091552734 -2.0199999809265137,17.08799934387207 -7.931000232696533,14.810999870300293z"></path></g></g><g style="display: block;" transform="matrix(1,0,0,1,359.5299987792969,-321.5509948730469)" opacity="1"><g opacity="1" transform="matrix(1,0,0,1,29.54800033569336,125.5009994506836)"><path fill="rgb(88,88,88)" fill-opacity="1" d=" M-5.99399995803833,-0.014999999664723873 C0.8949999809265137,-3.947000026702881 1.5540000200271606,-9.217000007629395 7.051000118255615,-9.16100025177002 C9.109000205993652,-9.140000343322754 14.54800033569336,-5.708000183105469 11.265999794006348,-1.378000020980835 C3.234999895095825,9.217000007629395 -14.54800033569336,4.866000175476074 -5.99399995803833,-0.014999999664723873z"></path><path stroke-linecap="round" stroke-linejoin="round" fill-opacity="0" stroke="rgb(51,51,51)" stroke-opacity="1" stroke-width="6" d=" M-5.99399995803833,-0.014999999664723873 C0.8949999809265137,-3.947000026702881 1.5540000200271606,-9.217000007629395 7.051000118255615,-9.16100025177002 C9.109000205993652,-9.140000343322754 14.54800033569336,-5.708000183105469 11.265999794006348,-1.378000020980835 C3.234999895095825,9.217000007629395 -14.54800033569336,4.866000175476074 -5.99399995803833,-0.014999999664723873z"></path></g></g><g style="display: block;" transform="matrix(1,0,0,1,360.6629943847656,-293.09600830078125)" opacity="1"><g opacity="1" transform="matrix(1,0,0,1,95.58699798583984,33.516998291015625)"><path fill="rgb(88,88,88)" fill-opacity="1" d=" M-4.52400016784668,13.838000297546387 C-1.8960000276565552,7.166999816894531 4.494999885559082,-6.26800012588501 5.9039998054504395,-18.517000198364258 C5.9039998054504395,-18.517000198364258 3.861999988555908,6.074999809265137 -0.6110000014305115,15.168999671936035 C-2.256999969482422,18.517000198364258 -5.9039998054504395,17.343000411987305 -4.52400016784668,13.838000297546387z"></path><path stroke-linecap="round" stroke-linejoin="round" fill-opacity="0" stroke="rgb(51,51,51)" stroke-opacity="1" stroke-width="6" d=" M-4.52400016784668,13.838000297546387 C-1.8960000276565552,7.166999816894531 4.494999885559082,-6.26800012588501 5.9039998054504395,-18.517000198364258 C5.9039998054504395,-18.517000198364258 3.861999988555908,6.074999809265137 -0.6110000014305115,15.168999671936035 C-2.256999969482422,18.517000198364258 -5.9039998054504395,17.343000411987305 -4.52400016784668,13.838000297546387z"></path></g></g><g style="display: block;" transform="matrix(1,0,0,1,360.6629943847656,-293.09600830078125)" opacity="1"><g opacity="1" transform="matrix(1,0,0,1,81.46099853515625,69.77799987792969)"><path fill="rgb(88,88,88)" fill-opacity="1" d=" M-11.963000297546387,17.260000228881836 C-15.10099983215332,14.25 -8.140999794006348,7.185999870300293 -1.5460000038146973,-3.5920000076293945 C4.564000129699707,-13.57800006866455 6.901000022888184,-22.750999450683594 11.154999732971191,-21.351999282836914 C15.10099983215332,-20.055999755859375 9.685999870300293,-10.458999633789062 6,-3.98799991607666 C-1.7480000257492065,9.61299991607666 -6.239999771118164,22.75 -11.963000297546387,17.260000228881836z"></path><path stroke-linecap="round" stroke-linejoin="round" fill-opacity="0" stroke="rgb(51,51,51)" stroke-opacity="1" stroke-width="6" d=" M-11.963000297546387,17.260000228881836 C-15.10099983215332,14.25 -8.140999794006348,7.185999870300293 -1.5460000038146973,-3.5920000076293945 C4.564000129699707,-13.57800006866455 6.901000022888184,-22.750999450683594 11.154999732971191,-21.351999282836914 C15.10099983215332,-20.055999755859375 9.685999870300293,-10.458999633789062 6,-3.98799991607666 C-1.7480000257492065,9.61299991607666 -6.239999771118164,22.75 -11.963000297546387,17.260000228881836z"></path></g></g><g style="display: block;" transform="matrix(1,0,0,1,360.6629943847656,-293.09600830078125)" opacity="1"><g opacity="1" transform="matrix(1,0,0,1,56.41899871826172,99.33399963378906)"><path fill="rgb(88,88,88)" fill-opacity="1" d=" M-16.309999465942383,9.300000190734863 C-18.384000778198242,6.269999980926514 -14.220000267028809,1.1920000314712524 -6.0229997634887695,-2.806999921798706 C6.880000114440918,-9.104000091552734 10.87600040435791,-16.381999969482422 14.40999984741211,-13.675999641418457 C18.384000778198242,-10.633000373840332 13.14799976348877,-6.567999839782715 7.434000015258789,-2.13700008392334 C-3.38700008392334,6.254000186920166 -11.46399974822998,16.381999969482422 -16.309999465942383,9.300000190734863z"></path><path stroke-linecap="round" stroke-linejoin="round" fill-opacity="0" stroke="rgb(51,51,51)" stroke-opacity="1" stroke-width="6" d=" M-16.309999465942383,9.300000190734863 C-18.384000778198242,6.269999980926514 -14.220000267028809,1.1920000314712524 -6.0229997634887695,-2.806999921798706 C6.880000114440918,-9.104000091552734 10.87600040435791,-16.381999969482422 14.40999984741211,-13.675999641418457 C18.384000778198242,-10.633000373840332 13.14799976348877,-6.567999839782715 7.434000015258789,-2.13700008392334 C-3.38700008392334,6.254000186920166 -11.46399974822998,16.381999969482422 -16.309999465942383,9.300000190734863z"></path></g></g><g style="display: block;" transform="matrix(1,0,0,1,360.6629943847656,-293.09600830078125)" opacity="1"><g opacity="1" transform="matrix(1,0,0,1,30.466999053955078,112.70600128173828)"><path fill="rgb(88,88,88)" fill-opacity="1" d=" M-5.833000183105469,-2.569999933242798 C1.9270000457763672,-4.216000080108643 4.158999919891357,-9.03499984741211 9.378000259399414,-7.307000160217285 C11.331000328063965,-6.660999774932861 15.467000007629395,-1.7339999675750732 11.020999908447266,1.3899999856948853 C0.14399999380111694,9.03499984741211 -15.467000007629395,-0.5260000228881836 -5.833000183105469,-2.569999933242798z"></path><path stroke-linecap="round" stroke-linejoin="round" fill-opacity="0" stroke="rgb(51,51,51)" stroke-opacity="1" stroke-width="6" d=" M-5.833000183105469,-2.569999933242798 C1.9270000457763672,-4.216000080108643 4.158999919891357,-9.03499984741211 9.378000259399414,-7.307000160217285 C11.331000328063965,-6.660999774932861 15.467000007629395,-1.7339999675750732 11.020999908447266,1.3899999856948853 C0.14399999380111694,9.03499984741211 -15.467000007629395,-0.5260000228881836 -5.833000183105469,-2.569999933242798z"></path></g></g><g style="display: block;" transform="matrix(0.882947564125061,0.4694715440273285,-0.4694715440273285,0.882947564125061,389.86932373046875,-221.9496612548828)" opacity="1"><g opacity="1" transform="matrix(1,0,0,1,109.79900360107422,66.83100128173828)"><path fill="rgb(88,88,88)" fill-opacity="1" d=" M-8.583000183105469,-22.02400016784668 C-5.485000133514404,-23.72599983215332 -0.8270000219345093,-17.81599998474121 4.948999881744385,-3.303999900817871 C11.789999961853027,13.88599967956543 13.281000137329102,23.72599983215332 13.281000137329102,23.72599983215332 C13.281000137329102,23.72599983215332 9.470000267028809,13.770000457763672 0.27399998903274536,-1.1920000314712524 C-6.333000183105469,-11.944999694824219 -13.281000137329102,-19.44499969482422 -8.583000183105469,-22.02400016784668z"></path><path stroke-linecap="round" stroke-linejoin="round" fill-opacity="0" stroke="rgb(51,51,51)" stroke-opacity="1" stroke-width="6" d=" M-8.583000183105469,-22.02400016784668 C-5.485000133514404,-23.72599983215332 -0.8270000219345093,-17.81599998474121 4.948999881744385,-3.303999900817871 C11.789999961853027,13.88599967956543 13.281000137329102,23.72599983215332 13.281000137329102,23.72599983215332 C13.281000137329102,23.72599983215332 9.470000267028809,13.770000457763672 0.27399998903274536,-1.1920000314712524 C-6.333000183105469,-11.944999694824219 -13.281000137329102,-19.44499969482422 -8.583000183105469,-22.02400016784668z"></path></g></g><g style="display: block;" transform="matrix(0.9335803985595703,0.3583679497241974,-0.3583679497241974,0.9335803985595703,379.2712097167969,-213.01373291015625)" opacity="1"><g opacity="1" transform="matrix(1,0,0,1,85.93599700927734,33.64400100708008)"><path fill="rgb(88,88,88)" fill-opacity="1" d=" M-18.445999145507812,-17.38800048828125 C-13.85200023651123,-18.643999099731445 -9.958000183105469,-12.901000022888184 0.4129999876022339,-4.448999881744385 C10.635000228881836,3.881999969482422 16.327999114990234,5.9629998207092285 18.993000030517578,10.036999702453613 C21.483999252319336,13.843999862670898 16.67300033569336,18.643999099731445 12.574999809265137,14.994999885559082 C7.51800012588501,10.491999626159668 2.1549999713897705,5.193999767303467 -5.663000106811523,-0.7760000228881836 C-11.99899959564209,-5.613999843597412 -17.829999923706055,-8.663999557495117 -19.95400047302246,-11.574000358581543 C-21.483999252319336,-13.668999671936035 -21.052000045776367,-16.676000595092773 -18.445999145507812,-17.38800048828125z"></path><path stroke-linecap="round" stroke-linejoin="round" fill-opacity="0" stroke="rgb(51,51,51)" stroke-opacity="1" stroke-width="6" d=" M-18.445999145507812,-17.38800048828125 C-13.85200023651123,-18.643999099731445 -9.958000183105469,-12.901000022888184 0.4129999876022339,-4.448999881744385 C10.635000228881836,3.881999969482422 16.327999114990234,5.9629998207092285 18.993000030517578,10.036999702453613 C21.483999252319336,13.843999862670898 16.67300033569336,18.643999099731445 12.574999809265137,14.994999885559082 C7.51800012588501,10.491999626159668 2.1549999713897705,5.193999767303467 -5.663000106811523,-0.7760000228881836 C-11.99899959564209,-5.613999843597412 -17.829999923706055,-8.663999557495117 -19.95400047302246,-11.574000358581543 C-21.483999252319336,-13.668999671936035 -21.052000045776367,-16.676000595092773 -18.445999145507812,-17.38800048828125z"></path></g></g><g style="display: block;" transform="matrix(0.9702957272529602,0.24192188680171967,-0.24192188680171967,0.9702957272529602,374.43206787109375,-205.7630615234375)" opacity="1"><g opacity="1" transform="matrix(1,0,0,1,54.91400146484375,24.534000396728516)"><path fill="rgb(88,88,88)" fill-opacity="1" d=" M-16.069000244140625,1.4529999494552612 C-16.520999908447266,-2.4590001106262207 -11.491999626159668,-5.7270002365112305 -4.409999847412109,-5.926000118255615 C6.068999767303467,-6.2210001945495605 8.107000350952148,-9.128000259399414 12.548999786376953,-7.769999980926514 C16.52199935913086,-6.556000232696533 16.47100067138672,-1.031999945640564 11.824999809265137,-0.5080000162124634 C7.425000190734863,-0.013000000268220901 4.14900016784668,0.004000000189989805 0.31299999356269836,1.4529999494552612 C-6.328000068664551,3.9630000591278076 -15.182999610900879,9.128000259399414 -16.069000244140625,1.4529999494552612z"></path><path stroke-linecap="round" stroke-linejoin="round" fill-opacity="0" stroke="rgb(51,51,51)" stroke-opacity="1" stroke-width="6" d=" M-16.069000244140625,1.4529999494552612 C-16.520999908447266,-2.4590001106262207 -11.491999626159668,-5.7270002365112305 -4.409999847412109,-5.926000118255615 C6.068999767303467,-6.2210001945495605 8.107000350952148,-9.128000259399414 12.548999786376953,-7.769999980926514 C16.52199935913086,-6.556000232696533 16.47100067138672,-1.031999945640564 11.824999809265137,-0.5080000162124634 C7.425000190734863,-0.013000000268220901 4.14900016784668,0.004000000189989805 0.31299999356269836,1.4529999494552612 C-6.328000068664551,3.9630000591278076 -15.182999610900879,9.128000259399414 -16.069000244140625,1.4529999494552612z"></path></g></g><g style="display: block;" transform="matrix(0.9925461411476135,0.12186934053897858,-0.12186934053897858,0.9925461411476135,370.4222106933594,-201.17784118652344)" opacity="1"><g opacity="1" transform="matrix(1,0,0,1,30.466999053955078,29.554000854492188)"><path fill="rgb(88,88,88)" fill-opacity="1" d=" M-5.833000183105469,-2.569000005722046 C1.9270000457763672,-4.215000152587891 4.158999919891357,-9.03600025177002 9.378000259399414,-7.307000160217285 C11.331000328063965,-6.660999774932861 15.467000007629395,-1.7330000400543213 11.020999908447266,1.3910000324249268 C0.14399999380111694,9.03600025177002 -15.467000007629395,-0.5260000228881836 -5.833000183105469,-2.569000005722046z"></path><path stroke-linecap="round" stroke-linejoin="round" fill-opacity="0" stroke="rgb(51,51,51)" stroke-opacity="1" stroke-width="6" d=" M-5.833000183105469,-2.569000005722046 C1.9270000457763672,-4.215000152587891 4.158999919891357,-9.03600025177002 9.378000259399414,-7.307000160217285 C11.331000328063965,-6.660999774932861 15.467000007629395,-1.7330000400543213 11.020999908447266,1.3910000324249268 C0.14399999380111694,9.03600025177002 -15.467000007629395,-0.5260000228881836 -5.833000183105469,-2.569000005722046z"></path></g></g><g style="display: block;" transform="matrix(0.9335803985595703,0.3583679497241974,-0.3583679497241974,0.9335803985595703,393.7593078613281,-196.61953735351562)" opacity="1"><g opacity="1" transform="matrix(1,0,0,1,70.32499694824219,110.99600219726562)"><path fill="rgb(88,88,88)" fill-opacity="1" d=" M-0.9200000166893005,25.010000228881836 C-0.9200000166893005,25.010000228881836 -0.41100001335144043,4.7769999504089355 -4.533999919891357,-19.714000701904297 C-5.296999931335449,-24.2450008392334 2.989000082015991,-25.010000228881836 3.377000093460083,-21.809999465942383 C5.296999931335449,-6.008999824523926 -0.9200000166893005,25.010000228881836 -0.9200000166893005,25.010000228881836z"></path><path stroke-linecap="round" stroke-linejoin="round" fill-opacity="0" stroke="rgb(51,51,51)" stroke-opacity="1" stroke-width="6" d=" M-0.9200000166893005,25.010000228881836 C-0.9200000166893005,25.010000228881836 -0.41100001335144043,4.7769999504089355 -4.533999919891357,-19.714000701904297 C-5.296999931335449,-24.2450008392334 2.989000082015991,-25.010000228881836 3.377000093460083,-21.809999465942383 C5.296999931335449,-6.008999824523926 -0.9200000166893005,25.010000228881836 -0.9200000166893005,25.010000228881836z"></path></g></g><g style="display: block;" transform="matrix(0.9702957272529602,0.24192188680171967,-0.24192188680171967,0.9702957272529602,380.62451171875,-191.85684204101562)" opacity="1"><g opacity="1" transform="matrix(1,0,0,1,60.3120002746582,63.57400131225586)"><path fill="rgb(88,88,88)" fill-opacity="1" d=" M-4.281000137329102,-30.143999099731445 C1.3209999799728394,-30.143999099731445 0.8479999899864197,-20.96500015258789 5.479000091552734,-4.078999996185303 C11.218000411987305,16.847000122070312 14.03600025177002,18.091999053955078 13.949999809265137,23.43600082397461 C13.855999946594238,29.332000732421875 6.073999881744385,30.143999099731445 4.019999980926514,23.790000915527344 C3.049999952316284,20.785999298095703 1.3049999475479126,10.890999794006348 -1.781000018119812,-0.6729999780654907 C-6.151000022888184,-17.054000854492188 -14.03499984741211,-30.143999099731445 -4.281000137329102,-30.143999099731445z"></path><path stroke-linecap="round" stroke-linejoin="round" fill-opacity="0" stroke="rgb(51,51,51)" stroke-opacity="1" stroke-width="6" d=" M-4.281000137329102,-30.143999099731445 C1.3209999799728394,-30.143999099731445 0.8479999899864197,-20.96500015258789 5.479000091552734,-4.078999996185303 C11.218000411987305,16.847000122070312 14.03600025177002,18.091999053955078 13.949999809265137,23.43600082397461 C13.855999946594238,29.332000732421875 6.073999881744385,30.143999099731445 4.019999980926514,23.790000915527344 C3.049999952316284,20.785999298095703 1.3049999475479126,10.890999794006348 -1.781000018119812,-0.6729999780654907 C-6.151000022888184,-17.054000854492188 -14.03499984741211,-30.143999099731445 -4.281000137329102,-30.143999099731445z"></path></g></g><g style="display: block;" transform="matrix(0.9925461411476135,0.12186934053897858,-0.12186934053897858,0.9925461411476135,374.8097839355469,-186.03640747070312)" opacity="1"><g opacity="1" transform="matrix(1,0,0,1,37.78900146484375,29.586999893188477)"><path fill="rgb(88,88,88)" fill-opacity="1" d=" M18.163000106811523,10.600000381469727 C21.760000228881836,7.961999893188477 22.788999557495117,0.9549999833106995 9.645999908447266,-3.8949999809265137 C-4.692999839782715,-9.185999870300293 -8.293000221252441,-14.586000442504883 -15.541000366210938,-13.861000061035156 C-22.788999557495117,-13.13599967956543 -20.775999069213867,-3.3519999980926514 -14.442999839782715,-2.447000026702881 C-8.111000061035156,-1.5410000085830688 -2.2320001125335693,1.0080000162124634 2.4800000190734863,3.556999921798706 C9.520999908447266,7.367000102996826 12.72700023651123,14.586000442504883 18.163000106811523,10.600000381469727z"></path><path stroke-linecap="round" stroke-linejoin="round" fill-opacity="0" stroke="rgb(51,51,51)" stroke-opacity="1" stroke-width="6" d=" M18.163000106811523,10.600000381469727 C21.760000228881836,7.961999893188477 22.788999557495117,0.9549999833106995 9.645999908447266,-3.8949999809265137 C-4.692999839782715,-9.185999870300293 -8.293000221252441,-14.586000442504883 -15.541000366210938,-13.861000061035156 C-22.788999557495117,-13.13599967956543 -20.775999069213867,-3.3519999980926514 -14.442999839782715,-2.447000026702881 C-8.111000061035156,-1.5410000085830688 -2.2320001125335693,1.0080000162124634 2.4800000190734863,3.556999921798706 C9.520999908447266,7.367000102996826 12.72700023651123,14.586000442504883 18.163000106811523,10.600000381469727z"></path></g></g><g style="display: block;" transform="matrix(1,0,0,1,50,-437.0010070800781)" opacity="1"><g opacity="1" transform="matrix(1,0,0,1,320.79901123046875,217.52999877929688)"><path fill="rgb(25,25,25)" fill-opacity="1" d=" M1.7300000190734863,3.140000104904175 C-1.5509999990463257,-0.6909999847412109 1.7300000190734863,-4.521999835968018 1.7300000190734863,-4.521999835968018 C1.7300000190734863,-4.521999835968018 -2.7929999828338623,-1.5959999561309814 -1.4950000047683716,4.521999835968018 C-1.4950000047683716,4.521999835968018 1.7300000190734863,3.140000104904175 1.7300000190734863,3.140000104904175z"></path><path stroke-linecap="round" stroke-linejoin="round" fill-opacity="0" stroke="rgb(43,43,43)" stroke-opacity="1" stroke-width="3" d=" M1.7300000190734863,3.140000104904175 C-1.5509999990463257,-0.6909999847412109 1.7300000190734863,-4.521999835968018 1.7300000190734863,-4.521999835968018 C1.7300000190734863,-4.521999835968018 -2.7929999828338623,-1.5959999561309814 -1.4950000047683716,4.521999835968018 C-1.4950000047683716,4.521999835968018 1.7300000190734863,3.140000104904175 1.7300000190734863,3.140000104904175z"></path></g><g opacity="1" transform="matrix(1,0,0,1,334.85101318359375,217.52999877929688)"><path fill="rgb(25,25,25)" fill-opacity="1" d=" M-1.7300000190734863,3.140000104904175 C1.5509999990463257,-0.6909999847412109 -1.7300000190734863,-4.521999835968018 -1.7300000190734863,-4.521999835968018 C-1.7300000190734863,-4.521999835968018 2.7929999828338623,-1.5959999561309814 1.4950000047683716,4.521999835968018 C1.4950000047683716,4.521999835968018 -1.7300000190734863,3.140000104904175 -1.7300000190734863,3.140000104904175z"></path><path stroke-linecap="round" stroke-linejoin="round" fill-opacity="0" stroke="rgb(43,43,43)" stroke-opacity="1" stroke-width="3" d=" M-1.7300000190734863,3.140000104904175 C1.5509999990463257,-0.6909999847412109 -1.7300000190734863,-4.521999835968018 -1.7300000190734863,-4.521999835968018 C-1.7300000190734863,-4.521999835968018 2.7929999828338623,-1.5959999561309814 1.4950000047683716,4.521999835968018 C1.4950000047683716,4.521999835968018 -1.7300000190734863,3.140000104904175 -1.7300000190734863,3.140000104904175z"></path></g><g opacity="1" transform="matrix(1,0,0,1,327.885009765625,241.40199279785156)"><path fill="rgb(86,86,86)" fill-opacity="1" d=" M18.632999420166016,1.8389999866485596 C18.632999420166016,-7.381999969482422 12.192999839782715,-19.586000442504883 0.0010000000474974513,-19.586000442504883 C0.0010000000474974513,-19.586000442504883 -0.0010000000474974513,-19.586000442504883 -0.0010000000474974513,-19.586000442504883 C-12.192999839782715,-19.586000442504883 -18.632999420166016,-7.381999969482422 -18.632999420166016,1.8389999866485596 C-18.632999420166016,11.60200023651123 -10.213000297546387,19.584999084472656 -0.0010000000474974513,19.586000442504883 C-0.0010000000474974513,19.586000442504883 -0.0010000000474974513,19.586000442504883 -0.0010000000474974513,19.586000442504883 C-0.0010000000474974513,19.586000442504883 0,19.586000442504883 0,19.586000442504883 C0,19.586000442504883 0.0010000000474974513,19.586000442504883 0.0010000000474974513,19.586000442504883 C0.0010000000474974513,19.586000442504883 0.0010000000474974513,19.586000442504883 0.0010000000474974513,19.586000442504883 C10.213000297546387,19.584999084472656 18.632999420166016,11.60200023651123 18.632999420166016,1.8389999866485596z"></path></g><g opacity="0.3" transform="matrix(1,0,0,1,333.1210021972656,236.52999877929688)"><path fill="url(#__lottie_element_4116)" fill-opacity="1" d=" M9.354999542236328,-1.9830000400543213 C10.663000106811523,4.190000057220459 7.534999847412109,10.081999778747559 2.368000030517578,11.177000045776367 C-2.7990000247955322,12.272000312805176 -8.04699993133545,8.156000137329102 -9.354999542236328,1.9830000400543213 C-10.663000106811523,-4.190000057220459 -7.534999847412109,-10.081999778747559 -2.368000030517578,-11.177000045776367 C2.7990000247955322,-12.272000312805176 8.04699993133545,-8.156000137329102 9.354999542236328,-1.9830000400543213z"></path></g><g opacity="0.5" transform="matrix(1,0,0,1,318.5690002441406,241.40199279785156)"><path fill="rgb(66,66,66)" fill-opacity="1" d=" M9.3149995803833,-19.586000442504883 C-2.877000093460083,-19.586000442504883 -9.317000389099121,-7.381999969482422 -9.317000389099121,1.8389999866485596 C-9.317000389099121,11.60200023651123 -0.8960000276565552,19.586000442504883 9.317000389099121,19.586000442504883 C9.317000389099121,19.586000442504883 9.3149995803833,-19.586000442504883 9.3149995803833,-19.586000442504883z"></path></g><g opacity="0.1" transform="matrix(1,0,0,1,327.53399658203125,238.21499633789062)"><path fill="rgb(255,255,255)" fill-opacity="1" d=" M18.284000396728516,-0.4860000014305115 C18.284000396728516,-0.4860000014305115 15.982000350952148,-0.13300000131130219 15.982000350952148,-0.13300000131130219 C15.982000350952148,-0.13300000131130219 12.904000282287598,-10.666999816894531 0.3490000069141388,-10.666999816894531 C-11.706000328063965,-10.666999816894531 -18.2810001373291,7.894999980926514 -11.911999702453613,16.402000427246094 C-11.911999702453613,16.402000427246094 -13.979999542236328,16.32200050354004 -13.979999542236328,16.32200050354004 C-16.66699981689453,13.24899959564209 -18.284000396728516,9.310999870300293 -18.284000396728516,5.0279998779296875 C-18.284000396728516,0.41200000047683716 -16.673999786376953,-4.940999984741211 -13.53499984741211,-9.145000457763672 C-10.402000427246094,-13.347999572753906 -5.739999771118164,-16.402000427246094 0.35199999809265137,-16.402000427246094 C10.21500015258789,-16.402000427246094 16.30900001525879,-8.413999557495117 18.284000396728516,-0.4860000014305115z"></path></g><g opacity="0.3" transform="matrix(1,0,0,1,327.88299560546875,246.94500732421875)"><path fill="rgb(43,43,43)" fill-opacity="1" d=" M18.632999420166016,-3.7009999752044678 C18.632999420166016,1.180999994277954 16.524999618530273,5.617000102996826 13.145999908447266,8.829000473022461 C9.767000198364258,12.04800033569336 5.111000061035156,14.043999671936035 0.003000000026077032,14.043999671936035 C-10.213000297546387,14.043999671936035 -18.632999420166016,6.063000202178955 -18.632999420166016,-3.7009999752044678 C-18.632999420166016,-7 -17.808000564575195,-10.678999900817871 -16.191999435424805,-14.043999671936035 C-16.191999435424805,-14.043999671936035 -15.513999938964844,-12.062000274658203 -15.513999938964844,-12.062000274658203 C-15.513999938964844,-12.062000274658203 -13.968999862670898,1.1269999742507935 0.003000000026077032,1.1269999742507935 C13.892000198364258,1.1269999742507935 15.553000450134277,-11.696000099182129 15.520000457763672,-12.055000305175781 C17.14299964904785,-8.6899995803833 18.632999420166016,-7.006999969482422 18.632999420166016,-3.7009999752044678z"></path></g><g opacity="1" transform="matrix(1,0,0,1,327.885009765625,241.40199279785156)"><path stroke-linecap="round" stroke-linejoin="round" fill-opacity="0" stroke="rgb(43,43,43)" stroke-opacity="1" stroke-width="8" d=" M18.632999420166016,1.8389999866485596 C18.632999420166016,-7.381999969482422 12.192999839782715,-19.586000442504883 0.0010000000474974513,-19.586000442504883 C0.0010000000474974513,-19.586000442504883 -0.0010000000474974513,-19.586000442504883 -0.0010000000474974513,-19.586000442504883 C-12.192999839782715,-19.586000442504883 -18.632999420166016,-7.381999969482422 -18.632999420166016,1.8389999866485596 C-18.632999420166016,11.60200023651123 -10.213000297546387,19.584999084472656 -0.0010000000474974513,19.586000442504883 C-0.0010000000474974513,19.586000442504883 -0.0010000000474974513,19.586000442504883 -0.0010000000474974513,19.586000442504883 C-0.0010000000474974513,19.586000442504883 0,19.586000442504883 0,19.586000442504883 C0,19.586000442504883 0.0010000000474974513,19.586000442504883 0.0010000000474974513,19.586000442504883 C0.0010000000474974513,19.586000442504883 0.0010000000474974513,19.586000442504883 0.0010000000474974513,19.586000442504883 C10.213000297546387,19.584999084472656 18.632999420166016,11.60200023651123 18.632999420166016,1.8389999866485596z"></path></g></g><g style="display: block;" transform="matrix(1,0,0,1,50,-437.0010070800781)" opacity="1"><g opacity="1" transform="matrix(1,0,0,1,327.885009765625,301.28399658203125)"><path fill="rgb(86,86,86)" fill-opacity="1" d=" M0.0010000000474974513,40.29499816894531 C-18.229999542236328,40.29499816894531 -39.82500076293945,11.809000015258789 -35.33599853515625,-12.473999977111816 C-31.358999252319336,-34.0099983215332 -15.102999687194824,-40.29499816894531 0.0010000000474974513,-40.29499816894531 C14.300999641418457,-40.29499816894531 31.361000061035156,-34.0099983215332 35.3380012512207,-12.473999977111816 C39.82099914550781,11.809000015258789 18.231000900268555,40.29499816894531 0.0010000000474974513,40.29499816894531z"></path></g><g opacity="0.3" transform="matrix(1,0,0,1,339.6969909667969,289.5169982910156)"><path fill="url(#__lottie_element_4119)" fill-opacity="1" d=" M19.775999069213867,-3.1040000915527344 C21.823999404907227,9.944000244140625 14.630000114440918,21.91200065612793 3.7079999446868896,23.625999450683594 C-7.214000225067139,25.34000015258789 -17.72800064086914,16.152000427246094 -19.775999069213867,3.1040000915527344 C-21.823999404907227,-9.944000244140625 -14.630000114440918,-21.91200065612793 -3.7079999446868896,-23.625999450683594 C7.214000225067139,-25.34000015258789 17.72800064086914,-16.152999877929688 19.775999069213867,-3.1040000915527344z"></path></g><g opacity="0.5" transform="matrix(1,0,0,1,309.9179992675781,301.28399658203125)"><path fill="rgb(66,66,66)" fill-opacity="1" d=" M17.968000411987305,-40.29499816894531 C17.968000411987305,-40.29499816894531 17.968000411987305,40.29499816894531 17.968000411987305,40.29499816894531 C-0.2630000114440918,40.29499816894531 -21.857999801635742,11.809000015258789 -17.368999481201172,-12.473999977111816 C-13.392000198364258,-34.0099983215332 2.864000082015991,-40.29499816894531 17.968000411987305,-40.29499816894531z"></path></g><g opacity="0.1" transform="matrix(1,0,0,1,327.677001953125,290.14300537109375)"><path fill="rgb(255,255,255)" fill-opacity="1" d=" M35.31999969482422,1.840000033378601 C35.31999969482422,1.840000033378601 33.31800079345703,-2.1510000228881836 33.31800079345703,-2.1510000228881836 C33.31800079345703,-2.1510000228881836 26.985000610351562,-23.1200008392334 -0.25699999928474426,-22.93600082397461 C-26.454999923706055,-22.759000778198242 -38.880001068115234,4.749000072479248 -26.57900047302246,29.15399932861328 C-38.28300094604492,21.69099998474121 -35.29399871826172,-0.4350000023841858 -35.12799835205078,-1.3329999446868896 C-31.150999069213867,-22.868999481201172 -14.895999908447266,-29.15399932861328 0.20900000631809235,-29.15399932861328 C14.508999824523926,-29.15399932861328 31.569000244140625,-22.868999481201172 35.54600143432617,-1.3329999446868896 C35.73899841308594,-0.28200000524520874 35.220001220703125,0.7760000228881836 35.31999969482422,1.840000033378601z"></path></g><g opacity="0.3" transform="matrix(1,0,0,1,327.885009765625,311.802001953125)"><path fill="rgb(43,43,43)" fill-opacity="1" d=" M0.0010000000474974513,29.777000427246094 C-18.229999542236328,29.777000427246094 -39.82500076293945,1.2899999618530273 -35.33599853515625,-22.993000030517578 C-34.88399887084961,-25.44700050354004 -32.16600036621094,-27.70800018310547 -31.408000946044922,-29.777000427246094 C-35.89099884033203,-22.993000030517578 -24.32200050354004,1.934999942779541 -0.006000000052154064,1.934999942779541 C25.113000869750977,1.934999942779541 35.89099884033203,-22.993000030517578 31.381999969482422,-29.777000427246094 C32.15399932861328,-27.70800018310547 34.88600158691406,-25.44700050354004 35.3380012512207,-22.993000030517578 C39.82099914550781,1.2899999618530273 18.231000900268555,29.777000427246094 0.0010000000474974513,29.777000427246094z"></path></g><g opacity="1" transform="matrix(1,0,0,1,327.885009765625,301.28399658203125)"><path stroke-linecap="round" stroke-linejoin="round" fill-opacity="0" stroke="rgb(43,43,43)" stroke-opacity="1" stroke-width="8" d=" M0.0010000000474974513,40.29499816894531 C-18.229999542236328,40.29499816894531 -39.82500076293945,11.809000015258789 -35.33599853515625,-12.473999977111816 C-31.358999252319336,-34.0099983215332 -15.102999687194824,-40.29499816894531 0.0010000000474974513,-40.29499816894531 C14.300999641418457,-40.29499816894531 31.361000061035156,-34.0099983215332 35.3380012512207,-12.473999977111816 C39.82099914550781,11.809000015258789 18.231000900268555,40.29499816894531 0.0010000000474974513,40.29499816894531z"></path></g></g><g style="display: block;" transform="matrix(1,0,0,1,4.378997802734375,7.4010162353515625)" opacity="1"><g opacity="1" transform="matrix(1,0,0,1,249.9770050048828,253.20799255371094)"><path stroke-linecap="round" stroke-linejoin="round" fill-opacity="0" stroke="rgb(104,103,103)" stroke-opacity="1" stroke-width="6" d=" M0,-234.9759979248047 C0,-234.9759979248047 27.584999084472656,-204.38499450683594 65.87699890136719,-186.85400390625 C104.16899871826172,-169.322998046875 166.1529998779297,-166.1529998779297 166.1529998779297,-166.1529998779297 C166.1529998779297,-166.1529998779297 162.83299255371094,-117.26399993896484 182.29200744628906,-73.05699920654297 C197.64700317382812,-38.17300033569336 231.9759979248047,-0.23199999332427979 231.9759979248047,-0.23199999332427979 C231.9759979248047,-0.23199999332427979 201.06199645996094,28.722000122070312 181.6790008544922,72.88600158691406 C164.76600646972656,111.41999816894531 166.1529998779297,166.1540069580078 166.1529998779297,166.1540069580078 C166.1529998779297,166.1540069580078 114.88600158691406,161.46299743652344 69.56800079345703,182.6909942626953 C31.58300018310547,200.48199462890625 0,234.9759979248047 0,234.9759979248047 C0,234.9759979248047 -34.35499954223633,199.92100524902344 -78.98699951171875,182.6909942626953 C-117.40699768066406,167.85699462890625 -166.1529998779297,166.1540069580078 -166.1529998779297,166.1540069580078 C-166.1529998779297,166.1540069580078 -165.94200134277344,106.33599853515625 -183.4510040283203,68.66400146484375 C-199.66600036621094,33.777000427246094 -231.9759979248047,-0.23199999332427979 -231.9759979248047,-0.23199999332427979 C-231.9759979248047,-0.23199999332427979 -194.78599548339844,-34.007999420166016 -180.13099670410156,-77.9020004272461 C-167.6909942626953,-115.16300201416016 -166.1529998779297,-166.1529998779297 -166.1529998779297,-166.1529998779297 C-166.1529998779297,-166.1529998779297 -115.75399780273438,-164.75799560546875 -70.68299865722656,-184.85800170898438 C-36.54199981689453,-200.08200073242188 0,-234.9759979248047 0,-234.9759979248047z"></path></g><g opacity="1" transform="matrix(1,0,0,1,249.9770050048828,253.20799255371094)"><path stroke-linecap="round" stroke-linejoin="round" fill-opacity="0" stroke="rgb(104,103,103)" stroke-opacity="1" stroke-width="6" d=" M0,-152.8520050048828 C0,-152.8520050048828 17.944000244140625,-132.9530029296875 42.85300064086914,-121.5479965209961 C67.76200103759766,-110.14399719238281 108.08300018310547,-108.08200073242188 108.08300018310547,-108.08200073242188 C108.08300018310547,-108.08200073242188 105.9229965209961,-76.27999877929688 118.58100128173828,-47.52399826049805 C128.56900024414062,-24.83099937438965 152.8520050048828,-0.23199999332427979 152.8520050048828,-0.23199999332427979 C152.8520050048828,-0.23199999332427979 130.79200744628906,18.68400001525879 118.18199920654297,47.41299819946289 C107.18000030517578,72.47899627685547 108.08300018310547,108.08300018310547 108.08300018310547,108.08300018310547 C108.08300018310547,108.08300018310547 74.73300170898438,105.03199768066406 45.25400161743164,118.83999633789062 C20.545000076293945,130.41400146484375 0,152.8520050048828 0,152.8520050048828 C0,152.8520050048828 -22.347999572753906,130.0489959716797 -51.38100051879883,118.83999633789062 C-76.3740005493164,109.19100189208984 -108.08300018310547,108.08300018310547 -108.08300018310547,108.08300018310547 C-108.08300018310547,108.08300018310547 -107.94499969482422,69.1709976196289 -119.33499908447266,44.66600036621094 C-129.88299560546875,21.972000122070312 -152.8520050048828,0.0010000000474974513 -152.8520050048828,0.0010000000474974513 C-152.8520050048828,0.0010000000474974513 -126.70800018310547,-22.12299919128418 -117.17500305175781,-50.67499923706055 C-109.08300018310547,-74.91400146484375 -108.08300018310547,-108.08200073242188 -108.08300018310547,-108.08200073242188 C-108.08300018310547,-108.08200073242188 -75.2979965209961,-107.17500305175781 -45.979000091552734,-120.25 C-23.770999908447266,-130.1540069580078 0,-152.8520050048828 0,-152.8520050048828z"></path></g><g opacity="1" transform="matrix(1,0,0,1,249.9759979248047,253.20799255371094)"><path stroke-linecap="round" stroke-linejoin="round" fill-opacity="0" stroke="rgb(104,103,103)" stroke-opacity="1" stroke-width="6" d=" M0,-79.78500366210938 C0,-79.78500366210938 9.366000175476074,-69.39700317382812 22.368000030517578,-63.444000244140625 C35.369998931884766,-57.492000579833984 56.41699981689453,-56.41600036621094 56.41699981689453,-56.41600036621094 C56.41699981689453,-56.41600036621094 55.28900146484375,-39.814998626708984 61.895999908447266,-24.80500030517578 C67.11000061035156,-12.961000442504883 79.78500366210938,-0.11500000208616257 79.78500366210938,-0.11500000208616257 C79.78500366210938,-0.11500000208616257 68.2699966430664,9.753000259399414 61.6879997253418,24.749000549316406 C55.94499969482422,37.83300018310547 56.41699981689453,56.41699981689453 56.41699981689453,56.41699981689453 C56.41699981689453,56.41699981689453 39.00899887084961,54.823001861572266 23.621999740600586,62.03099822998047 C10.723999977111816,68.0719985961914 0,79.78399658203125 0,79.78399658203125 C0,79.78399658203125 -11.664999961853027,67.88200378417969 -26.819000244140625,62.03099822998047 C-39.8650016784668,56.99399948120117 -56.41699981689453,56.41699981689453 -56.41699981689453,56.41699981689453 C-56.41699981689453,56.41699981689453 -56.345001220703125,36.10599899291992 -62.290000915527344,23.315000534057617 C-67.79499816894531,11.468999862670898 -79.78500366210938,-0.23100000619888306 -79.78500366210938,-0.23100000619888306 C-79.78500366210938,-0.23100000619888306 -66.13800048828125,-11.54699993133545 -61.16299819946289,-26.450000762939453 C-56.93899917602539,-39.10200119018555 -56.41699981689453,-56.41600036621094 -56.41699981689453,-56.41600036621094 C-56.41699981689453,-56.41600036621094 -39.30400085449219,-55.94200134277344 -24,-62.76599884033203 C-12.407999992370605,-67.93599700927734 0,-79.78500366210938 0,-79.78500366210938z"></path></g><g opacity="1" transform="matrix(1,0,0,1,249.9759979248047,253.20799255371094)"><path stroke-linecap="round" stroke-linejoin="round" fill-opacity="0" stroke="rgb(104,103,103)" stroke-opacity="1" stroke-width="6" d=" M-24.29199981689453,-24.29199981689453 C-24.29199981689453,-24.29199981689453 -25.65999984741211,-8.335000038146973 -34.35499954223633,0.0010000000474974513 C-34.35499954223633,0.0010000000474974513 -24.98900032043457,10.02400016784668 -24.29199981689453,24.292999267578125 C-24.29199981689453,24.292999267578125 -8.324000358581543,25.941999435424805 0.0010000000474974513,34.35499954223633 C0.0010000000474974513,34.35499954223633 10.428000450134277,24.292999267578125 24.292999267578125,24.292999267578125 C24.292999267578125,24.292999267578125 24.292999267578125,6.7129998207092285 34.35499954223633,0.0010000000474974513 C34.35499954223633,0.0010000000474974513 24.292999267578125,-10.838000297546387 24.292999267578125,-24.29199981689453 C24.292999267578125,-24.29199981689453 7.034999847412109,-24.29199981689453 0.0010000000474974513,-34.35499954223633 C0.0010000000474974513,-34.35499954223633 -8.590999603271484,-24.29199981689453 -24.29199981689453,-24.29199981689453z"></path></g><g opacity="1" transform="matrix(1,0,0,1,0,0)"><g opacity="1" transform="matrix(1,0,0,1,0,0)"><path stroke-linecap="round" stroke-linejoin="round" fill-opacity="0" stroke="rgb(104,103,103)" stroke-opacity="1" stroke-width="6" d=" M249.9770050048828,18.23200035095215 C249.9770050048828,18.23200035095215 249.9770050048828,218.85299682617188 249.9770050048828,218.85299682617188"></path></g><g opacity="1" transform="matrix(1,0,0,1,0,0)"><path stroke-linecap="round" stroke-linejoin="round" fill-opacity="0" stroke="rgb(104,103,103)" stroke-opacity="1" stroke-width="6" d=" M249.9770050048828,287.5639953613281 C249.9770050048828,287.5639953613281 249.9770050048828,488.1839904785156 249.9770050048828,488.1839904785156"></path></g><g opacity="1" transform="matrix(1,0,0,1,345.20001220703125,157.98500061035156)"><path stroke-linecap="round" stroke-linejoin="round" fill-opacity="0" stroke="rgb(104,103,103)" stroke-opacity="1" stroke-width="6" d=" M70.93000030517578,-70.93000030517578 C70.93000030517578,-70.93000030517578 -70.93000030517578,70.93000030517578 -70.93000030517578,70.93000030517578"></path></g><g opacity="1" transform="matrix(1,0,0,1,154.75399780273438,157.98500061035156)"><path stroke-linecap="round" stroke-linejoin="round" fill-opacity="0" stroke="rgb(104,103,103)" stroke-opacity="1" stroke-width="6" d=" M70.93000030517578,70.93000030517578 C70.93000030517578,70.93000030517578 -70.93000030517578,-70.93000030517578 -70.93000030517578,-70.93000030517578"></path></g><g opacity="1" transform="matrix(1,0,0,1,383.1419982910156,253.0919952392578)"><path stroke-linecap="round" stroke-linejoin="round" fill-opacity="0" stroke="rgb(104,103,103)" stroke-opacity="1" stroke-width="6" d=" M98.80999755859375,-0.11599999666213989 C98.80999755859375,-0.11599999666213989 -98.80999755859375,0.11599999666213989 -98.80999755859375,0.11599999666213989"></path></g><g opacity="1" transform="matrix(1,0,0,1,116.81099700927734,253.0919952392578)"><path stroke-linecap="round" stroke-linejoin="round" fill-opacity="0" stroke="rgb(104,103,103)" stroke-opacity="1" stroke-width="6" d=" M98.81099700927734,0.11599999666213989 C98.81099700927734,0.11599999666213989 -98.81099700927734,-0.11599999666213989 -98.81099700927734,-0.11599999666213989"></path></g><g opacity="1" transform="matrix(1,0,0,1,154.75399780273438,348.4309997558594)"><path stroke-linecap="round" stroke-linejoin="round" fill-opacity="0" stroke="rgb(104,103,103)" stroke-opacity="1" stroke-width="6" d=" M70.93000030517578,-70.93000030517578 C70.93000030517578,-70.93000030517578 -70.93000030517578,70.93000030517578 -70.93000030517578,70.93000030517578"></path></g><g opacity="1" transform="matrix(1,0,0,1,345.20001220703125,348.4320068359375)"><path stroke-linecap="round" stroke-linejoin="round" fill-opacity="0" stroke="rgb(104,103,103)" stroke-opacity="1" stroke-width="6" d=" M70.93000030517578,70.93000030517578 C70.93000030517578,70.93000030517578 -70.93000030517578,-70.93000030517578 -70.93000030517578,-70.93000030517578"></path></g></g></g><g style="display: block;" transform="matrix(1,0,0,1,4.378997802734375,2.4010009765625)" opacity="1"><g opacity="1" transform="matrix(1,0,0,1,249.9770050048828,253.20799255371094)"><path stroke-linecap="round" stroke-linejoin="round" fill-opacity="0" stroke="rgb(165,165,165)" stroke-opacity="1" stroke-width="6" d=" M0,-234.9759979248047 C0,-234.9759979248047 27.584999084472656,-204.38499450683594 65.87699890136719,-186.85400390625 C104.16899871826172,-169.322998046875 166.1529998779297,-166.1529998779297 166.1529998779297,-166.1529998779297 C166.1529998779297,-166.1529998779297 162.83299255371094,-117.26399993896484 182.29200744628906,-73.05699920654297 C197.64700317382812,-38.17300033569336 231.9759979248047,-0.23199999332427979 231.9759979248047,-0.23199999332427979 C231.9759979248047,-0.23199999332427979 201.06199645996094,28.722000122070312 181.6790008544922,72.88600158691406 C164.76600646972656,111.41999816894531 166.1529998779297,166.1540069580078 166.1529998779297,166.1540069580078 C166.1529998779297,166.1540069580078 114.88600158691406,161.46299743652344 69.56800079345703,182.6909942626953 C31.58300018310547,200.48199462890625 0,234.9759979248047 0,234.9759979248047 C0,234.9759979248047 -34.35499954223633,199.92100524902344 -78.98699951171875,182.6909942626953 C-117.40699768066406,167.85699462890625 -166.1529998779297,166.1540069580078 -166.1529998779297,166.1540069580078 C-166.1529998779297,166.1540069580078 -165.94200134277344,106.33599853515625 -183.4510040283203,68.66400146484375 C-199.66600036621094,33.777000427246094 -231.9759979248047,-0.23199999332427979 -231.9759979248047,-0.23199999332427979 C-231.9759979248047,-0.23199999332427979 -194.78599548339844,-34.007999420166016 -180.13099670410156,-77.9020004272461 C-167.6909942626953,-115.16300201416016 -166.1529998779297,-166.1529998779297 -166.1529998779297,-166.1529998779297 C-166.1529998779297,-166.1529998779297 -115.75399780273438,-164.75799560546875 -70.68299865722656,-184.85800170898438 C-36.54199981689453,-200.08200073242188 0,-234.9759979248047 0,-234.9759979248047z"></path></g><g opacity="1" transform="matrix(1,0,0,1,249.9770050048828,253.20799255371094)"><path stroke-linecap="round" stroke-linejoin="round" fill-opacity="0" stroke="rgb(165,165,165)" stroke-opacity="1" stroke-width="6" d=" M0,-152.8520050048828 C0,-152.8520050048828 17.944000244140625,-132.9530029296875 42.85300064086914,-121.5479965209961 C67.76200103759766,-110.14399719238281 108.08300018310547,-108.08200073242188 108.08300018310547,-108.08200073242188 C108.08300018310547,-108.08200073242188 105.9229965209961,-76.27999877929688 118.58100128173828,-47.52399826049805 C128.56900024414062,-24.83099937438965 152.8520050048828,-0.23199999332427979 152.8520050048828,-0.23199999332427979 C152.8520050048828,-0.23199999332427979 130.79200744628906,18.68400001525879 118.18199920654297,47.41299819946289 C107.18000030517578,72.47899627685547 108.08300018310547,108.08300018310547 108.08300018310547,108.08300018310547 C108.08300018310547,108.08300018310547 74.73300170898438,105.03199768066406 45.25400161743164,118.83999633789062 C20.545000076293945,130.41400146484375 0,152.8520050048828 0,152.8520050048828 C0,152.8520050048828 -22.347999572753906,130.0489959716797 -51.38100051879883,118.83999633789062 C-76.3740005493164,109.19100189208984 -108.08300018310547,108.08300018310547 -108.08300018310547,108.08300018310547 C-108.08300018310547,108.08300018310547 -107.94499969482422,69.1709976196289 -119.33499908447266,44.66600036621094 C-129.88299560546875,21.972000122070312 -152.8520050048828,0.0010000000474974513 -152.8520050048828,0.0010000000474974513 C-152.8520050048828,0.0010000000474974513 -126.70800018310547,-22.12299919128418 -117.17500305175781,-50.67499923706055 C-109.08300018310547,-74.91400146484375 -108.08300018310547,-108.08200073242188 -108.08300018310547,-108.08200073242188 C-108.08300018310547,-108.08200073242188 -75.2979965209961,-107.17500305175781 -45.979000091552734,-120.25 C-23.770999908447266,-130.1540069580078 0,-152.8520050048828 0,-152.8520050048828z"></path></g><g opacity="1" transform="matrix(1,0,0,1,249.9759979248047,253.20799255371094)"><path stroke-linecap="round" stroke-linejoin="round" fill-opacity="0" stroke="rgb(165,165,165)" stroke-opacity="1" stroke-width="6" d=" M0,-79.78500366210938 C0,-79.78500366210938 9.366000175476074,-69.39700317382812 22.368000030517578,-63.444000244140625 C35.369998931884766,-57.492000579833984 56.41699981689453,-56.41600036621094 56.41699981689453,-56.41600036621094 C56.41699981689453,-56.41600036621094 55.28900146484375,-39.814998626708984 61.895999908447266,-24.80500030517578 C67.11000061035156,-12.961000442504883 79.78500366210938,-0.11500000208616257 79.78500366210938,-0.11500000208616257 C79.78500366210938,-0.11500000208616257 68.2699966430664,9.753000259399414 61.6879997253418,24.749000549316406 C55.94499969482422,37.83300018310547 56.41699981689453,56.41699981689453 56.41699981689453,56.41699981689453 C56.41699981689453,56.41699981689453 39.00899887084961,54.823001861572266 23.621999740600586,62.03099822998047 C10.723999977111816,68.0719985961914 0,79.78399658203125 0,79.78399658203125 C0,79.78399658203125 -11.664999961853027,67.88200378417969 -26.819000244140625,62.03099822998047 C-39.8650016784668,56.99399948120117 -56.41699981689453,56.41699981689453 -56.41699981689453,56.41699981689453 C-56.41699981689453,56.41699981689453 -56.345001220703125,36.10599899291992 -62.290000915527344,23.315000534057617 C-67.79499816894531,11.468999862670898 -79.78500366210938,-0.23100000619888306 -79.78500366210938,-0.23100000619888306 C-79.78500366210938,-0.23100000619888306 -66.13800048828125,-11.54699993133545 -61.16299819946289,-26.450000762939453 C-56.93899917602539,-39.10200119018555 -56.41699981689453,-56.41600036621094 -56.41699981689453,-56.41600036621094 C-56.41699981689453,-56.41600036621094 -39.30400085449219,-55.94200134277344 -24,-62.76599884033203 C-12.407999992370605,-67.93599700927734 0,-79.78500366210938 0,-79.78500366210938z"></path></g><g opacity="1" transform="matrix(1,0,0,1,249.9759979248047,253.20799255371094)"><path stroke-linecap="round" stroke-linejoin="round" fill-opacity="0" stroke="rgb(165,165,165)" stroke-opacity="1" stroke-width="6" d=" M-24.29199981689453,-24.29199981689453 C-24.29199981689453,-24.29199981689453 -25.65999984741211,-8.335000038146973 -34.35499954223633,0.0010000000474974513 C-34.35499954223633,0.0010000000474974513 -24.98900032043457,10.02400016784668 -24.29199981689453,24.292999267578125 C-24.29199981689453,24.292999267578125 -8.324000358581543,25.941999435424805 0.0010000000474974513,34.35499954223633 C0.0010000000474974513,34.35499954223633 10.428000450134277,24.292999267578125 24.292999267578125,24.292999267578125 C24.292999267578125,24.292999267578125 24.292999267578125,6.7129998207092285 34.35499954223633,0.0010000000474974513 C34.35499954223633,0.0010000000474974513 24.292999267578125,-10.838000297546387 24.292999267578125,-24.29199981689453 C24.292999267578125,-24.29199981689453 7.034999847412109,-24.29199981689453 0.0010000000474974513,-34.35499954223633 C0.0010000000474974513,-34.35499954223633 -8.590999603271484,-24.29199981689453 -24.29199981689453,-24.29199981689453z"></path></g><g opacity="1" transform="matrix(1,0,0,1,0,0)"><g opacity="1" transform="matrix(1,0,0,1,0,0)"><path stroke-linecap="round" stroke-linejoin="round" fill-opacity="0" stroke="rgb(198,198,198)" stroke-opacity="1" stroke-width="6" d=" M249.9770050048828,18.23200035095215 C249.9770050048828,18.23200035095215 249.9770050048828,218.85299682617188 249.9770050048828,218.85299682617188"></path></g><g opacity="1" transform="matrix(1,0,0,1,0,0)"><path stroke-linecap="round" stroke-linejoin="round" fill-opacity="0" stroke="rgb(137,137,137)" stroke-opacity="1" stroke-width="6" d=" M249.9770050048828,287.5639953613281 C249.9770050048828,287.5639953613281 249.9770050048828,488.1839904785156 249.9770050048828,488.1839904785156"></path></g><g opacity="1" transform="matrix(1,0,0,1,345.20001220703125,157.98500061035156)"><path stroke-linecap="round" stroke-linejoin="round" fill-opacity="0" stroke="rgb(198,198,198)" stroke-opacity="1" stroke-width="6" d=" M70.93000030517578,-70.93000030517578 C70.93000030517578,-70.93000030517578 -70.93000030517578,70.93000030517578 -70.93000030517578,70.93000030517578"></path></g><g opacity="1" transform="matrix(1,0,0,1,154.75399780273438,157.98500061035156)"><path stroke-linecap="round" stroke-linejoin="round" fill-opacity="0" stroke="rgb(198,198,198)" stroke-opacity="1" stroke-width="6" d=" M70.93000030517578,70.93000030517578 C70.93000030517578,70.93000030517578 -70.93000030517578,-70.93000030517578 -70.93000030517578,-70.93000030517578"></path></g><g opacity="1" transform="matrix(1,0,0,1,383.1419982910156,253.0919952392578)"><path stroke-linecap="round" stroke-linejoin="round" fill-opacity="0" stroke="rgb(165,165,165)" stroke-opacity="1" stroke-width="6" d=" M98.80999755859375,-0.11599999666213989 C98.80999755859375,-0.11599999666213989 -98.80999755859375,0.11599999666213989 -98.80999755859375,0.11599999666213989"></path></g><g opacity="1" transform="matrix(1,0,0,1,116.81099700927734,253.0919952392578)"><path stroke-linecap="round" stroke-linejoin="round" fill-opacity="0" stroke="rgb(165,165,165)" stroke-opacity="1" stroke-width="6" d=" M98.81099700927734,0.11599999666213989 C98.81099700927734,0.11599999666213989 -98.81099700927734,-0.11599999666213989 -98.81099700927734,-0.11599999666213989"></path></g><g opacity="1" transform="matrix(1,0,0,1,154.75399780273438,348.4309997558594)"><path stroke-linecap="round" stroke-linejoin="round" fill-opacity="0" stroke="rgb(137,137,137)" stroke-opacity="1" stroke-width="6" d=" M70.93000030517578,-70.93000030517578 C70.93000030517578,-70.93000030517578 -70.93000030517578,70.93000030517578 -70.93000030517578,70.93000030517578"></path></g><g opacity="1" transform="matrix(1,0,0,1,345.20001220703125,348.4320068359375)"><path stroke-linecap="round" stroke-linejoin="round" fill-opacity="0" stroke="rgb(137,137,137)" stroke-opacity="1" stroke-width="6" d=" M70.93000030517578,70.93000030517578 C70.93000030517578,70.93000030517578 -70.93000030517578,-70.93000030517578 -70.93000030517578,-70.93000030517578"></path></g></g></g><g style="display: block;" transform="matrix(1,0,0,1,4.378997802734375,2.4010009765625)" opacity="1"><g opacity="1" transform="matrix(1,0,0,1,249.9770050048828,253.20799255371094)"><path stroke-linecap="round" stroke-linejoin="round" fill-opacity="0" stroke="rgb(198,198,198)" stroke-opacity="1" stroke-width="6" d=" M-176.43299865722656,-90.51599884033203 C-167.3730010986328,-125.69200134277344 -166.1529998779297,-166.1529998779297 -166.1529998779297,-166.1529998779297 C-166.1529998779297,-166.1529998779297 -115.75399780273438,-164.75799560546875 -70.68299865722656,-184.85800170898438 C-36.54199981689453,-200.08200073242188 0,-234.9759979248047 0,-234.9759979248047 C0,-234.9759979248047 0,-234.9759979248047 0,-234.9759979248047 C0,-234.9759979248047 27.584999084472656,-204.38499450683594 65.87699890136719,-186.85400390625 C104.16899871826172,-169.322998046875 166.1529998779297,-166.1529998779297 166.1529998779297,-166.1529998779297 C166.1529998779297,-166.1529998779297 163.77000427246094,-131.06100463867188 174.875,-93.45600128173828"></path></g><g opacity="1" transform="matrix(1,0,0,1,249.9770050048828,253.20799255371094)"><path stroke-linecap="round" stroke-linejoin="round" fill-opacity="0" stroke="rgb(198,198,198)" stroke-opacity="1" stroke-width="6" d=" M-114.98500061035156,-58.055999755859375 C-108.89600372314453,-81.1259994506836 -108.08300018310547,-108.08200073242188 -108.08300018310547,-108.08200073242188 C-108.08300018310547,-108.08200073242188 -75.2979965209961,-107.17500305175781 -45.979000091552734,-120.25 C-23.770999908447266,-130.1540069580078 0,-152.8520050048828 0,-152.8520050048828 C0,-152.8520050048828 0,-152.8520050048828 0,-152.8520050048828 C0,-152.8520050048828 17.944000244140625,-132.9530029296875 42.85300064086914,-121.5479965209961 C67.76200103759766,-110.14399719238281 108.08300018310547,-108.08200073242188 108.08300018310547,-108.08200073242188 C108.08300018310547,-108.08200073242188 106.49800109863281,-84.7509994506836 113.99800109863281,-59.986000061035156"></path></g><g opacity="1" transform="matrix(1,0,0,1,249.9759979248047,253.20799255371094)"><path stroke-linecap="round" stroke-linejoin="round" fill-opacity="0" stroke="rgb(198,198,198)" stroke-opacity="1" stroke-width="6" d=" M-62.03799819946289,-24.076000213623047 C-61.7239990234375,-24.856000900268555 -61.430999755859375,-25.648000717163086 -61.16299819946289,-26.450000762939453 C-56.93899917602539,-39.10200119018555 -56.41699981689453,-56.41600036621094 -56.41699981689453,-56.41600036621094 C-56.41699981689453,-56.41600036621094 -39.30400085449219,-55.94200134277344 -24,-62.76599884033203 C-12.407999992370605,-67.93599700927734 0,-79.78500366210938 0,-79.78500366210938 C0,-79.78500366210938 0,-79.78500366210938 0,-79.78500366210938 C0,-79.78500366210938 9.366000175476074,-69.39700317382812 22.368000030517578,-63.444000244140625 C35.369998931884766,-57.492000579833984 56.41699981689453,-56.41600036621094 56.41699981689453,-56.41600036621094 C56.41699981689453,-56.41600036621094 55.4630012512207,-42.37200164794922 60.45000076293945,-28.440000534057617"></path></g><g opacity="1" transform="matrix(1,0,0,1,249.9759979248047,253.20799255371094)"><path stroke-linecap="round" stroke-linejoin="round" fill-opacity="0" stroke="rgb(198,198,198)" stroke-opacity="1" stroke-width="6" d=" M23.288999557495117,-24.322999954223633 C19.5049991607666,-24.503000259399414 6.014999866485596,-25.750999450683594 0.0010000000474974513,-34.35499954223633 C0.0010000000474974513,-34.35499954223633 -8.51200008392334,-24.384000778198242 -24.076000213623047,-24.292999267578125"></path></g><g opacity="1" transform="matrix(1,0,0,1,249.9770050048828,253.20799255371094)"><path stroke-linecap="round" stroke-linejoin="round" fill-opacity="0" stroke="rgb(137,137,137)" stroke-opacity="1" stroke-width="6" d=" M175.281005859375,90.92500305175781 C165.1479949951172,126.49400329589844 166.1529998779297,166.1540069580078 166.1529998779297,166.1540069580078 C166.1529998779297,166.1540069580078 114.88600158691406,161.46299743652344 69.56800079345703,182.6909942626953 C31.58300018310547,200.48199462890625 0,234.9759979248047 0,234.9759979248047 C0,234.9759979248047 -34.35499954223633,199.92100524902344 -78.98699951171875,182.6909942626953 C-117.40699768066406,167.85699462890625 -166.1529998779297,166.1540069580078 -166.1529998779297,166.1540069580078 C-166.1529998779297,166.1540069580078 -166.0189971923828,128.25999450683594 -174.79299926757812,93.79900360107422"></path></g><g opacity="1" transform="matrix(1,0,0,1,249.9770050048828,253.20799255371094)"><path stroke-linecap="round" stroke-linejoin="round" fill-opacity="0" stroke="rgb(137,137,137)" stroke-opacity="1" stroke-width="6" d=" M114.25399780273438,58.33700180053711 C107.41300201416016,81.677001953125 108.08300018310547,108.08300018310547 108.08300018310547,108.08300018310547 C108.08300018310547,108.08300018310547 74.73300170898438,105.03199768066406 45.25400161743164,118.83999633789062 C20.545000076293945,130.41400146484375 0,152.8520050048828 0,152.8520050048828 C0,152.8520050048828 -22.347999572753906,130.0489959716797 -51.38100051879883,118.83999633789062 C-76.3740005493164,109.19100189208984 -108.08300018310547,108.08300018310547 -108.08300018310547,108.08300018310547 C-108.08300018310547,108.08300018310547 -107.99299621582031,82.82499694824219 -113.91500091552734,60.19300079345703"></path></g><g opacity="1" transform="matrix(1,0,0,1,249.9759979248047,253.20799255371094)"><path stroke-linecap="round" stroke-linejoin="round" fill-opacity="0" stroke="rgb(137,137,137)" stroke-opacity="1" stroke-width="6" d=" M61.88600158691406,24.302000045776367 C61.81999969482422,24.450000762939453 61.75400161743164,24.599000930786133 61.6879997253418,24.749000549316406 C55.94499969482422,37.83300018310547 56.41699981689453,56.41699981689453 56.41699981689453,56.41699981689453 C56.41699981689453,56.41699981689453 39.00899887084961,54.823001861572266 23.621999740600586,62.03099822998047 C10.723999977111816,68.0719985961914 0,79.78399658203125 0,79.78399658203125 C0,79.78399658203125 -11.664999961853027,67.88200378417969 -26.819000244140625,62.03099822998047 C-39.8650016784668,56.99399948120117 -56.41699981689453,56.41699981689453 -56.41699981689453,56.41699981689453 C-56.41699981689453,56.41699981689453 -56.36199951171875,40.95199966430664 -60.29800033569336,28.51300048828125"></path></g><g opacity="1" transform="matrix(1,0,0,1,249.9759979248047,253.20799255371094)"><path stroke-linecap="round" stroke-linejoin="round" fill-opacity="0" stroke="rgb(137,137,137)" stroke-opacity="1" stroke-width="6" d=" M-23.3439998626709,24.413999557495117 C-19.791000366210938,24.91900062561035 -7.107999801635742,27.17099952697754 0.0010000000474974513,34.35499954223633 C0.0010000000474974513,34.35499954223633 10.428000450134277,24.292999267578125 24.292999267578125,24.292999267578125 C24.292999267578125,24.292999267578125 24.292999267578125,24.170000076293945 24.298999786376953,23.940000534057617"></path></g><g opacity="1" transform="matrix(1,0,0,1,249.9770050048828,253.20799255371094)"><path stroke-linecap="round" stroke-linejoin="round" fill-opacity="0" stroke="rgb(255,255,255)" stroke-opacity="1" stroke-width="6" d=" M25.125,-212.16400146484375 C26.99799919128418,-210.6929931640625 28.958999633789062,-209.19700622558594 31.00200080871582,-207.69200134277344"></path></g><g opacity="1" transform="matrix(1,0,0,1,249.9770050048828,253.20799255371094)"><path stroke-linecap="round" stroke-linejoin="round" fill-opacity="0" stroke="rgb(255,255,255)" stroke-opacity="1" stroke-width="6" d=" M39.459999084472656,-201.7480010986328 C40.67499923706055,-200.93600463867188 41.9109992980957,-200.1269989013672 43.167999267578125,-199.322998046875"></path></g></g><g style="display: block;" transform="matrix(1.5055439472198486,1.672075867652893,-1.672075867652893,1.5055439472198486,33.19481658935547,36.819549560546875)" opacity="1"><g opacity="1" transform="matrix(1,0,0,1,189.7689971923828,250.72500610351562)"><path stroke-linecap="round" stroke-linejoin="round" fill-opacity="0" stroke="rgb(37,46,51)" stroke-opacity="1" stroke-width="3" d=" M7.370999813079834,-5.425000190734863 C7.370999813079834,-5.425000190734863 -1.4240000247955322,-5.88100004196167 -1.4240000247955322,-5.88100004196167 C-1.4240000247955322,-5.88100004196167 -5.715000152587891,8.168000221252441 -5.715000152587891,8.168000221252441"></path></g><g opacity="1" transform="matrix(1,0,0,1,192.66600036621094,227.86099243164062)"><path stroke-linecap="round" stroke-linejoin="round" fill-opacity="0" stroke="rgb(37,46,51)" stroke-opacity="1" stroke-width="3" d=" M4.698999881744385,5.7170000076293945 C4.698999881744385,5.7170000076293945 -4.447999954223633,-0.03099999949336052 -3.2760000228881836,0.9210000038146973 C-2.1040000915527344,1.8730000257492065 10.656999588012695,5.3460001945495605 10.656999588012695,5.3460001945495605"></path></g><g opacity="1" transform="matrix(1,0,0,1,197.4029998779297,214.26300048828125)"><path stroke-linecap="round" stroke-linejoin="round" fill-opacity="0" stroke="rgb(37,46,51)" stroke-opacity="1" stroke-width="3" d=" M8.121000289916992,14.862000465393066 C8.121000289916992,14.862000465393066 -2.005000114440918,4.718999862670898 -1.6710000038146973,6.191999912261963 C-1.3370000123977661,7.664999961853027 5.077000141143799,10.788000106811523 5.077000141143799,10.788000106811523"></path></g><g opacity="1" transform="matrix(1,0,0,1,208.29400634765625,257.50799560546875)"><path stroke-linecap="round" stroke-linejoin="round" fill-opacity="0" stroke="rgb(37,46,51)" stroke-opacity="1" stroke-width="3" d=" M-0.6669999957084656,8.482999801635742 C-0.6669999957084656,8.482999801635742 8.302000045776367,-5.802000045776367 8.302000045776367,-5.802000045776367 C8.302000045776367,-5.802000045776367 0.7929999828338623,-10.682000160217285 0.7929999828338623,-10.682000160217285"></path></g><g opacity="1" transform="matrix(1,0,0,1,221.5780029296875,238.10800170898438)"><path stroke-linecap="round" stroke-linejoin="round" fill-opacity="0" stroke="rgb(37,46,51)" stroke-opacity="1" stroke-width="3" d=" M-6.6020002365112305,2.7009999752044678 C-6.6020002365112305,2.7009999752044678 3.500999927520752,2.5869998931884766 1.9910000562667847,2.6029999256134033 C0.48100000619888306,2.61899995803833 -11.668999671936035,-2.6029999256134033 -11.668999671936035,-2.6029999256134033"></path></g><g opacity="1" transform="matrix(1,0,0,1,225.91700744628906,224.21499633789062)"><path stroke-linecap="round" stroke-linejoin="round" fill-opacity="0" stroke="rgb(37,46,51)" stroke-opacity="1" stroke-width="3" d=" M-11.571000099182129,12.3100004196167 C-11.571000099182129,12.3100004196167 -2.680000066757202,5.874000072479248 -3.8580000400543213,6.818999767303467 C-5.035999774932861,7.763999938964844 -10.687000274658203,5.285999774932861 -10.687000274658203,5.285999774932861"></path></g><g opacity="1" transform="matrix(1,0,0,1,0,0)"><g opacity="1" transform="matrix(1,0,0,1,220.66799926757812,215.9459991455078)"><path fill="rgb(206,55,44)" fill-opacity="1" d=" M4.809000015258789,1.6790000200271606 C3.881999969482422,4.335000038146973 0.9769999980926514,5.736000061035156 -1.6790000200271606,4.809000015258789 C-4.335000038146973,3.881999969482422 -5.736000061035156,0.9769999980926514 -4.809000015258789,-1.6790000200271606 C-3.881999969482422,-4.335000038146973 -0.9769999980926514,-5.736000061035156 1.6790000200271606,-4.809000015258789 C4.335000038146973,-3.881999969482422 5.736000061035156,-0.9769999980926514 4.809000015258789,1.6790000200271606z"></path><path stroke-linecap="round" stroke-linejoin="round" fill-opacity="0" stroke="rgb(127,32,19)" stroke-opacity="1" stroke-width="3" d=" M4.809000015258789,1.6790000200271606 C3.881999969482422,4.335000038146973 0.9769999980926514,5.736000061035156 -1.6790000200271606,4.809000015258789 C-4.335000038146973,3.881999969482422 -5.736000061035156,0.9769999980926514 -4.809000015258789,-1.6790000200271606 C-3.881999969482422,-4.335000038146973 -0.9769999980926514,-5.736000061035156 1.6790000200271606,-4.809000015258789 C4.335000038146973,-3.881999969482422 5.736000061035156,-0.9769999980926514 4.809000015258789,1.6790000200271606z"></path></g><g opacity="1" transform="matrix(1,0,0,1,206.91600036621094,211.14599609375)"><path fill="rgb(206,55,44)" fill-opacity="1" d=" M4.809000015258789,1.6790000200271606 C3.881999969482422,4.335000038146973 0.9769999980926514,5.736000061035156 -1.6790000200271606,4.809000015258789 C-4.335000038146973,3.881999969482422 -5.736000061035156,0.9769999980926514 -4.809000015258789,-1.6790000200271606 C-3.881999969482422,-4.335000038146973 -0.9769999980926514,-5.736000061035156 1.6790000200271606,-4.809000015258789 C4.335000038146973,-3.881999969482422 5.736000061035156,-0.9769999980926514 4.809000015258789,1.6790000200271606z"></path><path stroke-linecap="round" stroke-linejoin="round" fill-opacity="0" stroke="rgb(127,32,19)" stroke-opacity="1" stroke-width="3" d=" M4.809000015258789,1.6790000200271606 C3.881999969482422,4.335000038146973 0.9769999980926514,5.736000061035156 -1.6790000200271606,4.809000015258789 C-4.335000038146973,3.881999969482422 -5.736000061035156,0.9769999980926514 -4.809000015258789,-1.6790000200271606 C-3.881999969482422,-4.335000038146973 -0.9769999980926514,-5.736000061035156 1.6790000200271606,-4.809000015258789 C4.335000038146973,-3.881999969482422 5.736000061035156,-0.9769999980926514 4.809000015258789,1.6790000200271606z"></path></g><g opacity="1" transform="matrix(1,0,0,1,206.2239990234375,239.33900451660156)"><path fill="rgb(67,76,84)" fill-opacity="1" d=" M-7.440999984741211,17.461999893188477 C-14.395000457763672,15.03499984741211 -15.33899974822998,-23.683000564575195 4.425000190734863,-16.78499984741211 C24.18899917602539,-9.88700008392334 -0.3490000069141388,19.937000274658203 -7.440999984741211,17.461999893188477z"></path><path stroke-linecap="round" stroke-linejoin="round" fill-opacity="0" stroke="rgb(37,46,51)" stroke-opacity="1" stroke-width="3" d=" M-7.440999984741211,17.461999893188477 C-14.395000457763672,15.03499984741211 -15.33899974822998,-23.683000564575195 4.425000190734863,-16.78499984741211 C24.18899917602539,-9.88700008392334 -0.3490000069141388,19.937000274658203 -7.440999984741211,17.461999893188477z"></path></g><g opacity="0.7000000000000001" transform="matrix(1,0,0,1,216.7530059814453,246.13400268554688)"><path fill="rgb(172,220,249)" fill-opacity="1" d=" M-1.6260000467300415,-20.69099998474121 C3.6679999828338623,-21.722000122070312 14.17300033569336,8.260000228881836 8.392000198364258,17.7549991607666 C2.6110000610351562,27.25 -11.208000183105469,11.595999717712402 -10.005000114440918,3.315999984741211 C-8.781999588012695,-5.0970001220703125 -5.409999847412109,-19.95400047302246 -1.6260000467300415,-20.69099998474121z"></path><path stroke-linecap="round" stroke-linejoin="round" fill-opacity="0" stroke="rgb(75,136,163)" stroke-opacity="1" stroke-width="3" d=" M-1.6260000467300415,-20.69099998474121 C3.6679999828338623,-21.722000122070312 14.17300033569336,8.260000228881836 8.392000198364258,17.7549991607666 C2.6110000610351562,27.25 -11.208000183105469,11.595999717712402 -10.005000114440918,3.315999984741211 C-8.781999588012695,-5.0970001220703125 -5.409999847412109,-19.95400047302246 -1.6260000467300415,-20.69099998474121z"></path></g><g opacity="0.7000000000000001" transform="matrix(1,0,0,1,189.70401000976562,237.13800048828125)"><path fill="rgb(172,220,249)" fill-opacity="1" d=" M15.640999794006348,-15.109000205993652 C12.137999534606934,-19.209999084472656 -14.741999626159668,-2.2760000228881836 -16.125,8.753999710083008 C-17.507999420166016,19.784000396728516 3.052000045776367,16.128000259399414 7.26200008392334,8.89799976348877 C11.539999961853027,1.5509999990463257 18.145000457763672,-12.178000450134277 15.640999794006348,-15.109000205993652z"></path><path stroke-linecap="round" stroke-linejoin="round" fill-opacity="0" stroke="rgb(75,136,163)" stroke-opacity="1" stroke-width="3" d=" M15.640999794006348,-15.109000205993652 C12.137999534606934,-19.209999084472656 -14.741999626159668,-2.2760000228881836 -16.125,8.753999710083008 C-17.507999420166016,19.784000396728516 3.052000045776367,16.128000259399414 7.26200008392334,8.89799976348877 C11.539999961853027,1.5509999990463257 18.145000457763672,-12.178000450134277 15.640999794006348,-15.109000205993652z"></path></g><g opacity="1" transform="matrix(1,0,0,1,211.16900634765625,222.3939971923828)"><path fill="rgb(67,76,84)" fill-opacity="1" d=" M2.622999906539917,-8.847999572753906 C-9.815999984741211,-13.1899995803833 -11.71399974822998,6.357999801635742 -3.6649999618530273,9.166999816894531 C4.146999835968018,11.894000053405762 15.628999710083008,-4.309000015258789 2.622999906539917,-8.847999572753906z"></path><path stroke-linecap="round" stroke-linejoin="round" fill-opacity="0" stroke="rgb(37,46,51)" stroke-opacity="1" stroke-width="3" d=" M2.622999906539917,-8.847999572753906 C-9.815999984741211,-13.1899995803833 -11.71399974822998,6.357999801635742 -3.6649999618530273,9.166999816894531 C4.146999835968018,11.894000053405762 15.628999710083008,-4.309000015258789 2.622999906539917,-8.847999572753906z"></path></g></g></g></g></svg>