<svg xmlns="http://www.w3.org/2000/svg" viewBox="0 0 512 512" width="512" height="512" style="width: 100%; height: 100%; transform: translate3d(0,0,0);" preserveAspectRatio="xMidYMid meet"><defs><clipPath id="__lottie_element_4211"><rect width="512" height="512" x="0" y="0"></rect></clipPath></defs><g clip-path="url(#__lottie_element_4211)"><g style="display: block;" transform="matrix(1,0,0,1,256,256)" opacity="1"><g opacity="0.1" transform="matrix(1,0,0,1,0,0)"><path fill="rgb(0,0,0)" fill-opacity="1" d=" M195.23699951171875,6.7820000648498535 C195.23699951171875,115.04299926757812 107.4739990234375,202.80599975585938 -0.7870000004768372,202.80599975585938 C-109.0479965209961,202.80599975585938 -196.81199645996094,115.04299926757812 -196.81199645996094,6.7820000648498535 C-196.81199645996094,-101.47899627685547 -109.0479965209961,-189.2429962158203 -0.7870000004768372,-189.2429962158203 C107.4739990234375,-189.2429962158203 195.23699951171875,-101.47899627685547 195.23699951171875,6.7820000648498535z"></path></g><g opacity="1" transform="matrix(1,0,0,1,0,0)"><path fill="rgb(255,177,57)" fill-opacity="1" d=" M188.08799743652344,-8.218000411987305 C188.08799743652344,96.09500122070312 103.5260009765625,180.65699768066406 -0.7870000004768372,180.65699768066406 C-105.0999984741211,180.65699768066406 -189.66299438476562,96.09500122070312 -189.66299438476562,-8.218000411987305 C-189.66299438476562,-112.53099822998047 -105.0999984741211,-197.093994140625 -0.7870000004768372,-197.093994140625 C103.5260009765625,-197.093994140625 188.08799743652344,-112.53099822998047 188.08799743652344,-8.218000411987305z"></path><path stroke-linecap="butt" stroke-linejoin="miter" fill-opacity="0" stroke-miterlimit="10" stroke="rgb(247,126,65)" stroke-opacity="1" stroke-width="8" d=" M188.08799743652344,-8.218000411987305 C188.08799743652344,96.09500122070312 103.5260009765625,180.65699768066406 -0.7870000004768372,180.65699768066406 C-105.0999984741211,180.65699768066406 -189.66299438476562,96.09500122070312 -189.66299438476562,-8.218000411987305 C-189.66299438476562,-112.53099822998047 -105.0999984741211,-197.093994140625 -0.7870000004768372,-197.093994140625 C103.5260009765625,-197.093994140625 188.08799743652344,-112.53099822998047 188.08799743652344,-8.218000411987305z"></path></g><g opacity="1" transform="matrix(1,0,0,1,0,0)"><path fill="rgb(255,209,64)" fill-opacity="1" d=" M167.6199951171875,-7.50600004196167 C166.16299438476562,87.52300262451172 89.60900115966797,163.4029998779297 -3.36899995803833,161.97799682617188 C-96.34700012207031,160.55299377441406 -170.5399932861328,82.36199951171875 -169.08299255371094,-12.666000366210938 C-167.62600708007812,-107.69499969482422 -91.0719985961914,-183.5749969482422 1.906000018119812,-182.14999389648438 C94.88400268554688,-180.72500610351562 169.07699584960938,-102.53500366210938 167.6199951171875,-7.50600004196167z"></path></g><g opacity="0.9" transform="matrix(1,0,0,1,0,0)"><path fill="rgb(255,223,121)" fill-opacity="1" d=" M148.47999572753906,-50.64699935913086 C148.47999572753906,21.996000289916992 81.6510009765625,-35.46799850463867 -0.7870000004768372,-35.46799850463867 C-83.2249984741211,-35.46799850463867 -150.05499267578125,21.996000289916992 -150.05499267578125,-50.64699935913086 C-150.05499267578125,-123.29000091552734 -83.2249984741211,-182.1790008544922 -0.7870000004768372,-182.1790008544922 C81.6510009765625,-182.1790008544922 148.47999572753906,-123.29000091552734 148.47999572753906,-50.64699935913086z"></path></g><g opacity="1" transform="matrix(1,0,0,1,0,0)"><g opacity="1" transform="matrix(1,0,0,1,0,0)"><path stroke-linecap="round" stroke-linejoin="round" fill-opacity="0" stroke="rgb(255,255,255)" stroke-opacity="1" stroke-width="6" d=" M35.58599853515625,-177.9600067138672 C37.124000549316406,-177.625 38.71900177001953,-177.2550048828125 40.362998962402344,-176.8489990234375"></path></g><g opacity="1" transform="matrix(1,0,0,1,0,0)"><path stroke-linecap="round" stroke-linejoin="round" fill-opacity="0" stroke="rgb(255,255,255)" stroke-opacity="1" stroke-width="6" d=" M14.230999946594238,-181.1790008544922 C14.230999946594238,-181.1790008544922 19.097999572753906,-180.91900634765625 26.820999145507812,-179.64100646972656"></path></g></g></g><g style="display: block;" transform="matrix(1,0,0,1,256,256)" opacity="1"><g opacity="1" transform="matrix(1,0,0,1,0,0)"><g opacity="0.8" transform="matrix(1,0,0,1,0,0)"><g opacity="1" transform="matrix(1,0,0,1,0,0)"><path fill="rgb(255,226,166)" fill-opacity="1" d=" M92.39700317382812,-60.08300018310547 C91.6729965209961,-59.33000183105469 90.41899871826172,-59.56399917602539 90.03500366210938,-60.53499984741211 C87.0510025024414,-68.0739974975586 75.38999938964844,-92.43599700927734 49.59199905395508,-91.44999694824219 C18.275999069213867,-90.25299835205078 7.017000198364258,-57.369998931884766 15.256999969482422,-31.621999740600586 C23.795000076293945,-4.942999839782715 39.79899978637695,14.61400032043457 61.11800003051758,37.58700180053711 C62.375,38.94200134277344 64.29000091552734,39.472999572753906 66.06700134277344,38.9640007019043 C77.13700103759766,35.79100036621094 117.03600311279297,23.44499969482422 138.53700256347656,4.673999786376953 C163.6649932861328,-17.26300048828125 163.26499938964844,-49.970001220703125 146.39199829101562,-62.733001708984375 C131.02699279785156,-74.35600280761719 106.4469985961914,-74.68900299072266 92.39700317382812,-60.08300018310547z"></path></g></g><g opacity="0.8" transform="matrix(1,0,0,1,0,0)"><g opacity="1" transform="matrix(1,0,0,1,0,0)"><path fill="rgb(255,177,57)" fill-opacity="1" d=" M95.53500366210938,-72.21800231933594 C94.74099731445312,-71.58000183105469 93.60800170898438,-71.71199798583984 93.23300170898438,-72.65899658203125 C90.3239974975586,-80.00800323486328 77.8740005493164,-99.42500305175781 52.72700119018555,-98.46399688720703 C22.201000213623047,-97.2979965209961 11.225000381469727,-67.40699768066406 19.257999420166016,-42.308998107910156 C27.58099937438965,-16.30299949645996 43.180999755859375,2.76200008392334 63.96200180053711,25.155000686645508 C65.18699645996094,26.475000381469727 67.05500030517578,26.993000030517578 68.78700256347656,26.496999740600586 C79.5780029296875,23.40399932861328 118.47000122070312,11.369000434875488 139.4290008544922,-6.927999973297119 C163.92300415039062,-28.312000274658203 161.56700134277344,-55.78499984741211 147.08700561523438,-70.47000122070312 C135.44200134277344,-82.27999877929688 111.89900207519531,-85.36199951171875 95.53500366210938,-72.21800231933594z"></path></g></g><g opacity="1" transform="matrix(1,0,0,1,0,0)"><g opacity="1" transform="matrix(1,0,0,1,0,0)"><path fill="rgb(232,5,5)" fill-opacity="1" d=" M88.27999877929688,-60.04100036621094 C88.47699737548828,-59.165000915527344 89.50299835205078,-58.77799987792969 90.21800231933594,-59.32099914550781 C95.77100372314453,-63.53300094604492 115.197998046875,-76.24500274658203 133.72300720214844,-64.0250015258789 C156.2100067138672,-49.191001892089844 149.83299255371094,-20.00200080871582 132.30299377441406,-4.747000217437744 C114.13899993896484,11.0600004196167 93.66100311279297,18.305999755859375 67.75299835205078,25.694000244140625 C66.2249984741211,26.1299991607666 64.58000183105469,25.666000366210938 63.500999450683594,24.5 C56.777000427246094,17.235000610351562 32.94900131225586,-9.618000030517578 25.507999420166016,-32.99700164794922 C16.81100082397461,-60.31999969482422 31.67799949645996,-84.18399810791016 49.76900100708008,-86.0479965209961 C66.24299621582031,-87.74500274658203 84.45999908447266,-77.03900146484375 88.27999877929688,-60.04100036621094z"></path></g><g opacity="1" transform="matrix(1,0,0,1,0,0)"><path fill="rgb(254,21,18)" fill-opacity="1" d=" M84.45600128173828,-62.06700134277344 C86.8949966430664,-57.99599838256836 91.97699737548828,-56.479000091552734 96.23400115966797,-58.57699966430664 C103.52999877929688,-62.17399978637695 114.51300048828125,-65.04199981689453 125.13800048828125,-58.034000396728516 C143.80999755859375,-45.71699905395508 137.322998046875,-23.3700008392334 122.76699829101562,-10.70300006866455 C122.4020004272461,-10.38599967956543 122.03700256347656,-10.072999954223633 121.66999816894531,-9.763999938964844 C92.552001953125,14.765000343322754 49.97600173950195,4.978000164031982 37.23099899291992,-30.898000717163086 C37.02799987792969,-31.469999313354492 36.83599853515625,-32.040000915527344 36.654998779296875,-32.606998443603516 C29.43400001525879,-55.29399871826172 40.40399932861328,-74.77300262451172 55.42599868774414,-76.32099914550781 C66.54499816894531,-77.46700286865234 78.62200164794922,-71.80599975585938 84.45600128173828,-62.06700134277344z"></path></g><g opacity="0.4" transform="matrix(1,0,0,1,0,0)"><g opacity="0.3" transform="matrix(1,0,0,1,0,0)"><path fill="rgb(255,171,171)" fill-opacity="1" d=" M95.10299682617188,-63.768001556396484 C95.10299682617188,-63.768001556396484 95.0979995727539,-63.75899887084961 95.0979995727539,-63.75899887084961 C93.25599670410156,-60.98400115966797 93.2490005493164,-62.64099884033203 92.16600036621094,-59.25299835205078 C86.55799865722656,-41.65299987792969 94.63899993896484,-23.364999771118164 110.2239990234375,-18.399999618530273 C120.39199829101562,-15.159000396728516 131.2209930419922,-18.395000457763672 139.0850067138672,-25.913000106811523 C144.98399353027344,-33.21699905395508 146.93099975585938,-37.731998443603516 146.86399841308594,-46.59299850463867 C146.8560028076172,-46.597999572753906 146.86099243164062,-46.606998443603516 146.86599731445312,-46.6150016784668 C146.05999755859375,-49.7400016784668 144.73800659179688,-52.749000549316406 142.83999633789062,-55.57099914550781 C140.72999572753906,-58.74599838256836 137.88999938964844,-61.68000030517578 134.26199340820312,-64.24400329589844 C124.71299743652344,-70.98400115966797 114.68499755859375,-70.8290023803711 106.50599670410156,-68.56400299072266 C102.0260009765625,-67.3270034790039 98.09600067138672,-65.47100067138672 95.10299682617188,-63.768001556396484z"></path></g><g opacity="0.4" transform="matrix(1,0,0,1,0,0)"><path fill="rgb(255,171,171)" fill-opacity="1" d=" M96.48300170898438,-59.17599868774414 C91.78600311279297,-44.44300079345703 98.5510025024414,-29.13599967956543 111.58599853515625,-24.982999801635742 C124.62899780273438,-20.825000762939453 139.0050048828125,-29.400999069213867 143.6959991455078,-44.125999450683594 C145.62100219726562,-50.16299819946289 144.12100219726562,-51.52799987792969 142.5469970703125,-56.95500183105469 C140.43699645996094,-60.130001068115234 137.59800720214844,-63.06399917602539 133.97000122070312,-65.62799835205078 C124.4209976196289,-72.36799621582031 114.39199829101562,-72.21299743652344 106.21299743652344,-69.947998046875 C101.1709976196289,-66.41699981689453 98.59300231933594,-65.80899810791016 96.48300170898438,-59.17599868774414z"></path></g><g opacity="0.4" transform="matrix(1,0,0,1,0,0)"><path fill="rgb(255,171,171)" fill-opacity="1" d=" M113.71700286865234,-30.781999588012695 C124.33100128173828,-27.39900016784668 136.03199768066406,-34.374000549316406 139.85299682617188,-46.361000061035156 C143.6739959716797,-58.347999572753906 136.6719970703125,-66.03700256347656 126.05799865722656,-69.41999816894531 C115.44400024414062,-72.8030014038086 105.23899841308594,-70.5989990234375 101.41799926757812,-58.61199951171875 C97.59700012207031,-46.625 103.10299682617188,-34.165000915527344 113.71700286865234,-30.781999588012695z"></path></g><g opacity="0.4" transform="matrix(1,0,0,1,0,0)"><path fill="rgb(255,171,171)" fill-opacity="1" d=" M115.76799774169922,-38.643001556396484 C123.6240005493164,-36.138999938964844 132.28399658203125,-41.303001403808594 135.11199951171875,-50.17499923706055 C137.94000244140625,-59.047000885009766 132.36900329589844,-63.49800109863281 124.51300048828125,-66.00199890136719 C116.65699768066406,-68.50599670410156 109.49199676513672,-68.11399841308594 106.66400146484375,-59.242000579833984 C103.83599853515625,-50.369998931884766 107.91200256347656,-41.14699935913086 115.76799774169922,-38.643001556396484z"></path></g><g opacity="0.4" transform="matrix(1,0,0,1,0,0)"><path fill="rgb(255,171,171)" fill-opacity="1" d=" M119.69100189208984,-48.55699920654297 C123.98999786376953,-47.1870002746582 128.72900390625,-50.012001037597656 130.27699279785156,-54.867000579833984 C131.8249969482422,-59.72200012207031 128.09800720214844,-59.99800109863281 123.79900360107422,-61.36800003051758 C119.5,-62.737998962402344 116.25700378417969,-64.68399810791016 114.70899963378906,-59.82899856567383 C113.16100311279297,-54.9739990234375 115.39199829101562,-49.926998138427734 119.69100189208984,-48.55699920654297z"></path></g></g><g opacity="0.4" transform="matrix(1,0,0,1,0,0)"><g opacity="0.3" transform="matrix(1,0,0,1,0,0)"><path fill="rgb(255,171,171)" fill-opacity="1" d=" M36.025001525878906,-81.97100067138672 C34.98899841308594,-80.34300231933594 31.500999450683594,-80.14800262451172 30.700000762939453,-78.29499816894531 C30.68899917602539,-78.27799987792969 30.672000885009766,-78.25299835205078 30.663999557495117,-78.22200012207031 C30.461999893188477,-77.6729965209961 30.26300048828125,-77.11100006103516 30.086000442504883,-76.5459976196289 C24.47800064086914,-58.94599914550781 32.558998107910156,-40.65700149536133 48.14400100708008,-35.69200134277344 C63.722999572753906,-30.7189998626709 80.90499877929688,-40.965999603271484 86.51300048828125,-58.566001892089844 C87.11599731445312,-60.4640007019043 87.56600189208984,-62.36600112915039 87.85299682617188,-64.25499725341797 C87.8270034790039,-64.30699920654297 87.80699920654297,-64.36799621582031 87.8010025024414,-64.43199920654297 C86.9530029296875,-68.88600158691406 83.61799621582031,-68.16400146484375 81.06900024414062,-71.70800018310547 C73.83200073242188,-81.79900360107422 60.87200164794922,-87.75299835205078 48.64400100708008,-86.89399719238281 C47.483001708984375,-86.81500244140625 46.33300018310547,-86.64299774169922 45.209999084472656,-86.38400268554688 C45.209999084472656,-86.38400268554688 45.20199966430664,-86.38899993896484 45.196998596191406,-86.38099670410156 C40.349998474121094,-85.2760009765625 39.862998962402344,-85.83300018310547 36.025001525878906,-81.97100067138672z"></path></g><g opacity="0.4" transform="matrix(1,0,0,1,0,0)"><path fill="rgb(255,171,171)" fill-opacity="1" d=" M35.236000061035156,-75.91500091552734 C30.545000076293945,-61.191001892089844 37.308998107910156,-45.882999420166016 50.34400177001953,-41.72999954223633 C63.387001037597656,-37.571998596191406 77.75700378417969,-46.13999938964844 82.4540023803711,-60.87300109863281 C84.24500274658203,-66.48500061035156 82.86699676513672,-67.41200256347656 81.61499786376953,-72.5459976196289 C74.37799835205078,-82.63700103759766 61.417999267578125,-88.59100341796875 49.189998626708984,-87.73200225830078 C48.02899932861328,-87.65299987792969 46.87900161743164,-87.48100280761719 45.75600051879883,-87.22200012207031 C45.75600051879883,-87.22200012207031 45.74700164794922,-87.22799682617188 45.742000579833984,-87.22000122070312 C40.35499954223633,-83.70999908447266 37.46099853515625,-82.88999938964844 35.236000061035156,-75.91500091552734z"></path></g><g opacity="0.4" transform="matrix(1,0,0,1,0,0)"><path fill="rgb(255,171,171)" fill-opacity="1" d=" M52.4739990234375,-47.5260009765625 C63.0880012512207,-44.143001556396484 74.78800201416016,-51.11899948120117 78.60900115966797,-63.10599899291992 C82.43000030517578,-75.09300231933594 75.4280014038086,-82.78199768066406 64.81400299072266,-86.16500091552734 C54.20000076293945,-89.5479965209961 43.994998931884766,-87.34400177001953 40.17399978637695,-75.35700225830078 C36.35300064086914,-63.369998931884766 41.86000061035156,-50.909000396728516 52.4739990234375,-47.5260009765625z"></path></g><g opacity="0.4" transform="matrix(1,0,0,1,0,0)"><path fill="rgb(255,171,171)" fill-opacity="1" d=" M54.81700134277344,-54.005001068115234 C62.67300033569336,-51.500999450683594 71.33300018310547,-56.66400146484375 74.16100311279297,-65.53600311279297 C76.98899841308594,-74.40799713134766 71.41799926757812,-78.85900115966797 63.5620002746582,-81.36299896240234 C55.70600128173828,-83.86699676513672 48.54100036621094,-83.4749984741211 45.7130012512207,-74.60299682617188 C42.8849983215332,-65.73100280761719 46.96099853515625,-56.50899887084961 54.81700134277344,-54.005001068115234z"></path></g><g opacity="0.4" transform="matrix(1,0,0,1,0,0)"><path fill="rgb(255,171,171)" fill-opacity="1" d=" M57.801998138427734,-63.659000396728516 C62.10100173950195,-62.28900146484375 66.83999633789062,-65.11399841308594 68.38800048828125,-69.96900177001953 C69.93599700927734,-74.8239974975586 66.20899963378906,-75.0999984741211 61.90999984741211,-76.47000122070312 C57.611000061035156,-77.83999633789062 54.36800003051758,-79.78600311279297 52.81999969482422,-74.93099975585938 C51.27199935913086,-70.07599639892578 53.50299835205078,-65.02899932861328 57.801998138427734,-63.659000396728516z"></path></g></g><g opacity="1" transform="matrix(1,0,0,1,0,0)"><path stroke-linecap="butt" stroke-linejoin="miter" fill-opacity="0" stroke-miterlimit="10" stroke="rgb(178,0,26)" stroke-opacity="1" stroke-width="8" d=" M88.27999877929688,-60.04100036621094 C88.47699737548828,-59.165000915527344 89.50299835205078,-58.77799987792969 90.21800231933594,-59.32099914550781 C95.77100372314453,-63.53300094604492 115.197998046875,-76.24500274658203 133.72300720214844,-64.0250015258789 C156.2100067138672,-49.191001892089844 149.83299255371094,-20.00200080871582 132.30299377441406,-4.747000217437744 C114.13899993896484,11.0600004196167 93.66100311279297,18.305999755859375 67.75299835205078,25.694000244140625 C66.2249984741211,26.1299991607666 64.58000183105469,25.666000366210938 63.500999450683594,24.5 C56.777000427246094,17.235000610351562 32.94900131225586,-9.618000030517578 25.507999420166016,-32.99700164794922 C16.81100082397461,-60.31999969482422 31.67799949645996,-84.18399810791016 49.76900100708008,-86.0479965209961 C66.24299621582031,-87.74500274658203 84.45999908447266,-77.03900146484375 88.27999877929688,-60.04100036621094z"></path></g><g opacity="1" transform="matrix(1,0,0,1,0,0)"><path stroke-linecap="round" stroke-linejoin="round" fill-opacity="0" stroke="rgb(255,255,255)" stroke-opacity="1" stroke-width="6" d=" M57.22600173950195,-75.38700103759766 C57.22600173950195,-75.38700103759766 55.922000885009766,-75.61900329589844 53.90700149536133,-75.39700317382812"></path></g></g></g></g><g style="display: block;" transform="matrix(1,0,0,1,256,256)" opacity="1"><g opacity="1" transform="matrix(1,0,0,1,0,0)"><g opacity="0.8" transform="matrix(1,0,0,1,0,0)"><g opacity="1" transform="matrix(1,0,0,1,0,0)"><path fill="rgb(255,226,166)" fill-opacity="1" d=" M-93.98200225830078,-60.132999420166016 C-93.25700378417969,-59.37900161743164 -92.00199890136719,-59.612998962402344 -91.61699676513672,-60.58599853515625 C-88.62799835205078,-68.13700103759766 -76.9469985961914,-92.54000091552734 -51.10599899291992,-91.5530014038086 C-19.738000869750977,-90.35399627685547 -8.460000038146973,-57.415000915527344 -16.714000701904297,-31.624000549316406 C-25.267000198364258,-4.901000022888184 -41.297000885009766,14.689000129699707 -62.6510009765625,37.70000076293945 C-63.90999984741211,39.05699920654297 -65.8290023803711,39.5890007019043 -67.60900115966797,39.07899856567383 C-78.697998046875,35.9010009765625 -118.66200256347656,23.534000396728516 -140.19900512695312,4.73199987411499 C-165.36900329589844,-17.242000579833984 -164.97000122070312,-50.00199890136719 -148.0679931640625,-62.7869987487793 C-132.677001953125,-74.42900085449219 -108.05599975585938,-74.76399993896484 -93.98200225830078,-60.132999420166016z"></path></g></g><g opacity="0.8" transform="matrix(1,0,0,1,0,0)"><g opacity="1" transform="matrix(1,0,0,1,0,0)"><path fill="rgb(255,177,57)" fill-opacity="1" d=" M-97.12699890136719,-72.29000091552734 C-96.33200073242188,-71.6510009765625 -95.1969985961914,-71.78399658203125 -94.8219985961914,-72.73200225830078 C-91.90899658203125,-80.09300231933594 -79.43699645996094,-99.54100036621094 -54.24800109863281,-98.5790023803711 C-23.67099952697754,-97.41100311279297 -12.675999641418457,-67.47100067138672 -20.722000122070312,-42.33100128173828 C-29.05900001525879,-16.2810001373291 -44.68600082397461,2.815000057220459 -65.50199890136719,25.246000289916992 C-66.72899627685547,26.569000244140625 -68.5999984741211,27.086999893188477 -70.33499908447266,26.59000015258789 C-81.14399719238281,23.492000579833984 -120.10099792480469,11.437000274658203 -141.09500122070312,-6.890999794006348 C-165.6300048828125,-28.31100082397461 -163.27000427246094,-55.82899856567383 -148.76499938964844,-70.53900146484375 C-137.10000610351562,-82.36799621582031 -113.51899719238281,-85.45600128173828 -97.12699890136719,-72.29000091552734z"></path></g></g><g opacity="1" transform="matrix(1,0,0,1,0,0)"><g opacity="1" transform="matrix(1,0,0,1,0,0)"><path fill="rgb(232,5,5)" fill-opacity="1" d=" M-89.8550033569336,-60.04100036621094 C-90.052001953125,-59.165000915527344 -91.0770034790039,-58.77799987792969 -91.79199981689453,-59.32099914550781 C-97.34500122070312,-63.53300094604492 -116.77200317382812,-76.24500274658203 -135.2969970703125,-64.0250015258789 C-157.78399658203125,-49.191001892089844 -151.4080047607422,-20.00200080871582 -133.8780059814453,-4.747000217437744 C-115.71399688720703,11.0600004196167 -95.23500061035156,18.305999755859375 -69.3270034790039,25.694000244140625 C-67.79900360107422,26.1299991607666 -66.15399932861328,25.666000366210938 -65.07499694824219,24.5 C-58.35100173950195,17.235000610351562 -34.52299880981445,-9.618000030517578 -27.082000732421875,-32.99700164794922 C-18.385000228881836,-60.31999969482422 -33.25199890136719,-84.18399810791016 -51.34299850463867,-86.0479965209961 C-67.81700134277344,-87.74500274658203 -86.03500366210938,-77.03900146484375 -89.8550033569336,-60.04100036621094z"></path></g><g opacity="1" transform="matrix(1,0,0,1,0,0)"><path fill="rgb(254,21,18)" fill-opacity="1" d=" M-86.02999877929688,-62.06700134277344 C-88.46900177001953,-57.99599838256836 -93.552001953125,-56.479000091552734 -97.80899810791016,-58.57699966430664 C-105.1050033569336,-62.17399978637695 -116.08699798583984,-65.04199981689453 -126.71199798583984,-58.034000396728516 C-145.38400268554688,-45.71699905395508 -138.8979949951172,-23.3700008392334 -124.34200286865234,-10.70300006866455 C-123.97699737548828,-10.38599967956543 -123.61100006103516,-10.072999954223633 -123.24400329589844,-9.763999938964844 C-94.1259994506836,14.765000343322754 -51.54999923706055,4.978000164031982 -38.80500030517578,-30.898000717163086 C-38.60200119018555,-31.469999313354492 -38.40999984741211,-32.040000915527344 -38.229000091552734,-32.606998443603516 C-31.007999420166016,-55.29399871826172 -41.979000091552734,-74.77300262451172 -57.000999450683594,-76.32099914550781 C-68.12000274658203,-77.46700286865234 -80.19599914550781,-71.80599975585938 -86.02999877929688,-62.06700134277344z"></path></g><g opacity="0.4" transform="matrix(1,0,0,1,0,0)"><g opacity="0.3" transform="matrix(1,0,0,1,0,0)"><path fill="rgb(255,171,171)" fill-opacity="1" d=" M-96.6780014038086,-63.768001556396484 C-96.6780014038086,-63.768001556396484 -96.6719970703125,-63.75899887084961 -96.6719970703125,-63.75899887084961 C-94.83000183105469,-60.98400115966797 -94.8239974975586,-62.64099884033203 -93.74099731445312,-59.25299835205078 C-88.13300323486328,-41.65299987792969 -96.21399688720703,-23.364999771118164 -111.79900360107422,-18.399999618530273 C-121.96700286865234,-15.159000396728516 -132.7949981689453,-18.395000457763672 -140.65899658203125,-25.913000106811523 C-146.55799865722656,-33.21699905395508 -148.5050048828125,-37.731998443603516 -148.43800354003906,-46.59299850463867 C-148.42999267578125,-46.597999572753906 -148.43600463867188,-46.606998443603516 -148.4409942626953,-46.6150016784668 C-147.63499450683594,-49.7400016784668 -146.31199645996094,-52.749000549316406 -144.41400146484375,-55.57099914550781 C-142.3040008544922,-58.74599838256836 -139.46499633789062,-61.68000030517578 -135.83700561523438,-64.24400329589844 C-126.28800201416016,-70.98400115966797 -116.25900268554688,-70.8290023803711 -108.08000183105469,-68.56400299072266 C-103.5999984741211,-67.3270034790039 -99.6709976196289,-65.47100067138672 -96.6780014038086,-63.768001556396484z"></path></g><g opacity="0.4" transform="matrix(1,0,0,1,0,0)"><path fill="rgb(255,171,171)" fill-opacity="1" d=" M-98.05799865722656,-59.17599868774414 C-93.36100006103516,-44.44300079345703 -100.125,-29.13599967956543 -113.16000366210938,-24.982999801635742 C-126.2030029296875,-20.825000762939453 -140.5800018310547,-29.400999069213867 -145.27099609375,-44.125999450683594 C-147.1959991455078,-50.16299819946289 -145.6959991455078,-51.52799987792969 -144.1219940185547,-56.95500183105469 C-142.01199340820312,-60.130001068115234 -139.1719970703125,-63.06399917602539 -135.54400634765625,-65.62799835205078 C-125.99500274658203,-72.36799621582031 -115.96600341796875,-72.21299743652344 -107.78700256347656,-69.947998046875 C-102.74500274658203,-66.41699981689453 -100.16799926757812,-65.80899810791016 -98.05799865722656,-59.17599868774414z"></path></g><g opacity="0.4" transform="matrix(1,0,0,1,0,0)"><path fill="rgb(255,171,171)" fill-opacity="1" d=" M-115.29199981689453,-30.781999588012695 C-125.90599822998047,-27.39900016784668 -137.6060028076172,-34.374000549316406 -141.427001953125,-46.361000061035156 C-145.2480010986328,-58.347999572753906 -138.24600219726562,-66.03700256347656 -127.63200378417969,-69.41999816894531 C-117.01799774169922,-72.8030014038086 -106.81300354003906,-70.5989990234375 -102.99199676513672,-58.61199951171875 C-99.1709976196289,-46.625 -104.6780014038086,-34.165000915527344 -115.29199981689453,-30.781999588012695z"></path></g><g opacity="0.4" transform="matrix(1,0,0,1,0,0)"><path fill="rgb(255,171,171)" fill-opacity="1" d=" M-117.34200286865234,-38.643001556396484 C-125.197998046875,-36.138999938964844 -133.85899353027344,-41.303001403808594 -136.68699645996094,-50.17499923706055 C-139.51499938964844,-59.047000885009766 -133.9429931640625,-63.49800109863281 -126.08699798583984,-66.00199890136719 C-118.23100280761719,-68.50599670410156 -111.06600189208984,-68.11399841308594 -108.23799896240234,-59.242000579833984 C-105.41000366210938,-50.369998931884766 -109.48600006103516,-41.14699935913086 -117.34200286865234,-38.643001556396484z"></path></g><g opacity="0.4" transform="matrix(1,0,0,1,0,0)"><path fill="rgb(255,171,171)" fill-opacity="1" d=" M-121.26499938964844,-48.55699920654297 C-125.56400299072266,-47.1870002746582 -130.30299377441406,-50.012001037597656 -131.8509979248047,-54.867000579833984 C-133.3990020751953,-59.72200012207031 -129.67300415039062,-59.99800109863281 -125.3740005493164,-61.36800003051758 C-121.07499694824219,-62.737998962402344 -117.83100128173828,-64.68399810791016 -116.28299713134766,-59.82899856567383 C-114.73500061035156,-54.9739990234375 -116.96600341796875,-49.926998138427734 -121.26499938964844,-48.55699920654297z"></path></g></g><g opacity="0.4" transform="matrix(1,0,0,1,0,0)"><g opacity="0.3" transform="matrix(1,0,0,1,0,0)"><path fill="rgb(255,171,171)" fill-opacity="1" d=" M-37.599998474121094,-81.97100067138672 C-36.56399917602539,-80.34300231933594 -33.07500076293945,-80.14800262451172 -32.27399826049805,-78.29499816894531 C-32.26300048828125,-78.27799987792969 -32.24700164794922,-78.25299835205078 -32.23899841308594,-78.22200012207031 C-32.0369987487793,-77.6729965209961 -31.83799934387207,-77.11100006103516 -31.660999298095703,-76.5459976196289 C-26.05299949645996,-58.94599914550781 -34.13399887084961,-40.65700149536133 -49.71900177001953,-35.69200134277344 C-65.2979965209961,-30.7189998626709 -82.47899627685547,-40.965999603271484 -88.08699798583984,-58.566001892089844 C-88.69000244140625,-60.4640007019043 -89.14099884033203,-62.36600112915039 -89.4280014038086,-64.25499725341797 C-89.4020004272461,-64.30699920654297 -89.38200378417969,-64.36799621582031 -89.3759994506836,-64.43199920654297 C-88.52799987792969,-68.88600158691406 -85.19300079345703,-68.16400146484375 -82.64399719238281,-71.70800018310547 C-75.40699768066406,-81.79900360107422 -62.44599914550781,-87.75299835205078 -50.21799850463867,-86.89399719238281 C-49.05699920654297,-86.81500244140625 -47.90800094604492,-86.64299774169922 -46.78499984741211,-86.38400268554688 C-46.78499984741211,-86.38400268554688 -46.7760009765625,-86.38899993896484 -46.770999908447266,-86.38099670410156 C-41.92399978637695,-85.2760009765625 -41.4379997253418,-85.83300018310547 -37.599998474121094,-81.97100067138672z"></path></g><g opacity="0.4" transform="matrix(1,0,0,1,0,0)"><path fill="rgb(255,171,171)" fill-opacity="1" d=" M-36.810001373291016,-75.91500091552734 C-32.11899948120117,-61.191001892089844 -38.882999420166016,-45.882999420166016 -51.917999267578125,-41.72999954223633 C-64.96099853515625,-37.571998596191406 -79.33200073242188,-46.13999938964844 -84.02899932861328,-60.87300109863281 C-85.81999969482422,-66.48500061035156 -84.44100189208984,-67.41200256347656 -83.18900299072266,-72.5459976196289 C-75.9520034790039,-82.63700103759766 -62.992000579833984,-88.59100341796875 -50.763999938964844,-87.73200225830078 C-49.60300064086914,-87.65299987792969 -48.452999114990234,-87.48100280761719 -47.33000183105469,-87.22200012207031 C-47.33000183105469,-87.22200012207031 -47.32099914550781,-87.22799682617188 -47.316001892089844,-87.22000122070312 C-41.92900085449219,-83.70999908447266 -39.03499984741211,-82.88999938964844 -36.810001373291016,-75.91500091552734z"></path></g><g opacity="0.4" transform="matrix(1,0,0,1,0,0)"><path fill="rgb(255,171,171)" fill-opacity="1" d=" M-54.04800033569336,-47.5260009765625 C-64.66200256347656,-44.143001556396484 -76.36299896240234,-51.11899948120117 -80.18399810791016,-63.10599899291992 C-84.00499725341797,-75.09300231933594 -77.00299835205078,-82.78199768066406 -66.38899993896484,-86.16500091552734 C-55.775001525878906,-89.5479965209961 -45.569000244140625,-87.34400177001953 -41.74800109863281,-75.35700225830078 C-37.926998138427734,-63.369998931884766 -43.433998107910156,-50.909000396728516 -54.04800033569336,-47.5260009765625z"></path></g><g opacity="0.4" transform="matrix(1,0,0,1,0,0)"><path fill="rgb(255,171,171)" fill-opacity="1" d=" M-56.39099884033203,-54.005001068115234 C-64.24700164794922,-51.500999450683594 -72.90799713134766,-56.66400146484375 -75.73600006103516,-65.53600311279297 C-78.56400299072266,-74.40799713134766 -72.99199676513672,-78.85900115966797 -65.13600158691406,-81.36299896240234 C-57.279998779296875,-83.86699676513672 -50.1150016784668,-83.4749984741211 -47.2869987487793,-74.60299682617188 C-44.45899963378906,-65.73100280761719 -48.53499984741211,-56.50899887084961 -56.39099884033203,-54.005001068115234z"></path></g><g opacity="0.4" transform="matrix(1,0,0,1,0,0)"><path fill="rgb(255,171,171)" fill-opacity="1" d=" M-59.375999450683594,-63.659000396728516 C-63.67499923706055,-62.28900146484375 -68.41400146484375,-65.11399841308594 -69.96199798583984,-69.96900177001953 C-71.51000213623047,-74.8239974975586 -67.78399658203125,-75.0999984741211 -63.48500061035156,-76.47000122070312 C-59.18600082397461,-77.83999633789062 -55.94200134277344,-79.78600311279297 -54.39400100708008,-74.93099975585938 C-52.84600067138672,-70.07599639892578 -55.07699966430664,-65.02899932861328 -59.375999450683594,-63.659000396728516z"></path></g></g><g opacity="1" transform="matrix(1,0,0,1,0,0)"><path stroke-linecap="butt" stroke-linejoin="miter" fill-opacity="0" stroke-miterlimit="10" stroke="rgb(178,0,26)" stroke-opacity="1" stroke-width="8" d=" M-89.8550033569336,-60.04100036621094 C-90.052001953125,-59.165000915527344 -91.0770034790039,-58.77799987792969 -91.79199981689453,-59.32099914550781 C-97.34500122070312,-63.53300094604492 -116.77200317382812,-76.24500274658203 -135.2969970703125,-64.0250015258789 C-157.78399658203125,-49.191001892089844 -151.4080047607422,-20.00200080871582 -133.8780059814453,-4.747000217437744 C-115.71399688720703,11.0600004196167 -95.23500061035156,18.305999755859375 -69.3270034790039,25.694000244140625 C-67.79900360107422,26.1299991607666 -66.15399932861328,25.666000366210938 -65.07499694824219,24.5 C-58.35100173950195,17.235000610351562 -34.52299880981445,-9.618000030517578 -27.082000732421875,-32.99700164794922 C-18.385000228881836,-60.31999969482422 -33.25199890136719,-84.18399810791016 -51.34299850463867,-86.0479965209961 C-67.81700134277344,-87.74500274658203 -86.03500366210938,-77.03900146484375 -89.8550033569336,-60.04100036621094z"></path></g><g opacity="1" transform="matrix(1,0,0,1,0,0)"><path stroke-linecap="round" stroke-linejoin="round" fill-opacity="0" stroke="rgb(255,255,255)" stroke-opacity="1" stroke-width="6" d=" M-58.79999923706055,-75.38700103759766 C-58.79999923706055,-75.38700103759766 -57.49599838256836,-75.61900329589844 -55.48099899291992,-75.39700317382812"></path></g></g></g></g><g style="display: block;" transform="matrix(1,0,0,1,256,256)" opacity="1"><g opacity="1" transform="matrix(1,0,0,1,0,0)"><g opacity="1" transform="matrix(1,0,0,1,0,0)"><path fill="rgb(255,177,57)" fill-opacity="1" d=" M101.03500366210938,70.90599822998047 C96.10700225830078,103.5999984741211 54.64899826049805,146.6699981689453 -0.6859999895095825,146.6699981689453 C-56.020999908447266,146.6699981689453 -95.60099792480469,109.04900360107422 -102.2770004272461,71.60900115966797 C-102.33999633789062,71.25599670410156 -102.36499786376953,70.21900177001953 -102.36900329589844,69.90499877929688 C-102.43099975585938,65.41300201416016 -100.99600219726562,62.130001068115234 -96.8010025024414,62.45500183105469 C-86.16999816894531,63.27899932861328 -59.099998474121094,74.7760009765625 -0.6859999895095825,75.72699737548828 C60.4109992980957,74.73200225830078 86.36599731445312,62.553001403808594 96.0009994506836,62.486000061035156 C99.21299743652344,62.4640007019043 101.05400085449219,65.15599822998047 100.99600219726562,69.90499877929688 C100.99199676513672,70.21900177001953 101.08799743652344,70.5510025024414 101.03500366210938,70.90599822998047z"></path></g></g><g opacity="1" transform="matrix(1,0,0,1,0,0)"><g opacity="1" transform="matrix(1,0,0,1,0,0)"><path fill="rgb(255,226,166)" fill-opacity="1" d=" M100.03500366210938,77.0780029296875 C95.10700225830078,109.77200317382812 54.64899826049805,149.76300048828125 -0.6859999895095825,149.76300048828125 C-56.020999908447266,149.76300048828125 -94.60099792480469,115.22100067138672 -101.2770004272461,77.78099822998047 C-101.33999633789062,77.4280014038086 -101.36499786376953,76.38999938964844 -101.36900329589844,76.07599639892578 C-101.43099975585938,71.58399963378906 -100.99600219726562,68.3010025024414 -96.8010025024414,68.6259994506836 C-86.16999816894531,69.44999694824219 -59.099998474121094,81.9469985961914 -0.6859999895095825,82.89800262451172 C60.4109992980957,81.90299987792969 86.36599731445312,68.7249984741211 96.0009994506836,68.65799713134766 C99.21299743652344,68.63600158691406 100.05400085449219,71.3270034790039 99.99600219726562,76.07599639892578 C99.99199676513672,76.38999938964844 100.08799743652344,76.7229995727539 100.03500366210938,77.0780029296875z"></path></g></g><g opacity="1" transform="matrix(1,0,0,1,0,0)"><g opacity="1" transform="matrix(1,0,0,1,0,0)"><path fill="rgb(134,63,20)" fill-opacity="1" d=" M98.83799743652344,72.5469970703125 C98.83799743652344,72.62699890136719 98.8280029296875,72.71700286865234 98.80799865722656,72.80699920654297 C97.3280029296875,82.63700103759766 92.46800231933594,93.0469970703125 84.87799835205078,102.75700378417969 C67.77799987792969,124.63700103759766 36.80799865722656,142.94700622558594 -0.6819999814033508,142.94700622558594 C-37.87200164794922,142.94700622558594 -67.84200286865234,127.12699890136719 -85.08200073242188,105.33699798583984 C-85.09200286865234,105.3270034790039 -85.10299682617188,105.31700134277344 -85.11299896240234,105.2969970703125 C-92.5530014038086,95.88700103759766 -97.61199951171875,85.35700225830078 -99.85199737548828,74.51699829101562 C-99.97200012207031,73.9469985961914 -100.08200073242188,73.37699890136719 -100.18199920654297,72.80699920654297 C-100.22200012207031,72.5770034790039 -100.2020034790039,72.36699676513672 -100.18199920654297,72.15699768066406 C-100.1719970703125,72.10700225830078 -100.1719970703125,72.0469970703125 -100.16200256347656,71.98699951171875 C-100.1520004272461,71.93699645996094 -100.14199829101562,71.87699890136719 -100.14199829101562,71.8270034790039 C-100.13200378417969,71.68699645996094 -100.11199951171875,71.5469970703125 -100.10199737548828,71.41699981689453 C-100.04199981689453,71.01699829101562 -99.96299743652344,70.66699981689453 -99.84300231933594,70.36699676513672 C-99.8030014038086,70.25700378417969 -99.76200103759766,70.15699768066406 -99.71199798583984,70.06700134277344 C-99.61199951171875,69.88700103759766 -99.50199890136719,69.71700286865234 -99.38200378417969,69.5770034790039 C-99.3219985961914,69.50700378417969 -99.25199890136719,69.43699645996094 -99.18199920654297,69.36699676513672 C-94.47200012207031,65.09700012207031 -71.79199981689453,80.75700378417969 -0.6819999814033508,81.91699981689453 C78.99800109863281,80.61699676513672 97.87799835205078,61.106998443603516 98.77799987792969,71.8270034790039 C98.78800201416016,71.9469985961914 98.7979965209961,72.0770034790039 98.80799865722656,72.1969985961914 C98.8280029296875,72.31700134277344 98.83799743652344,72.427001953125 98.83799743652344,72.5469970703125z"></path></g></g><g opacity="1" transform="matrix(1,0,0,1,0,0)"><path fill="rgb(107,32,0)" fill-opacity="1" d=" M98.83799743652344,72.5469970703125 C98.83799743652344,72.62699890136719 98.8280029296875,72.71700286865234 98.80799865722656,72.80699920654297 C97.3280029296875,82.63700103759766 92.46800231933594,93.0469970703125 84.87799835205078,102.75700378417969 C88.33799743652344,96.66699981689453 90.95800018310547,90.0770034790039 91.8280029296875,84.30699920654297 C91.88800048828125,83.98699951171875 91.81800079345703,83.68699645996094 91.7979965209961,83.41699981689453 C90.98799896240234,73.66699981689453 71.80799865722656,91.41699981689453 -0.6819999814033508,92.59700012207031 C-73.18199920654297,91.41699981689453 -92.36199951171875,73.66699981689453 -93.1719970703125,83.41699981689453 C-93.2020034790039,83.68699645996094 -93.27200317382812,83.98699951171875 -93.21199798583984,84.30699920654297 C-91.98200225830078,91.18699645996094 -88.9229965209961,98.677001953125 -85.11299896240234,105.2969970703125 C-92.5530014038086,95.88700103759766 -97.61199951171875,85.35700225830078 -99.85199737548828,74.51699829101562 C-99.97200012207031,73.9469985961914 -100.08200073242188,73.37699890136719 -100.18199920654297,72.80699920654297 C-100.22200012207031,72.5770034790039 -100.2020034790039,72.36699676513672 -100.18199920654297,72.15699768066406 C-100.1719970703125,72.10700225830078 -100.1719970703125,72.0469970703125 -100.16200256347656,71.98699951171875 C-100.1520004272461,71.927001953125 -100.1520004272461,71.87699890136719 -100.1520004272461,71.8270034790039 C-100.14199829101562,71.68699645996094 -100.12200164794922,71.5469970703125 -100.10199737548828,71.41699981689453 C-100.052001953125,71.01699829101562 -99.96299743652344,70.66699981689453 -99.84300231933594,70.36699676513672 C-99.8030014038086,70.25700378417969 -99.76200103759766,70.15699768066406 -99.71199798583984,70.06700134277344 C-99.61199951171875,69.88700103759766 -99.50199890136719,69.71700286865234 -99.38200378417969,69.5770034790039 C-99.3219985961914,69.50700378417969 -99.25199890136719,69.43699645996094 -99.18199920654297,69.36699676513672 C-94.47200012207031,65.09700012207031 -71.79199981689453,80.75700378417969 -0.6819999814033508,81.91699981689453 C78.99800109863281,80.61699676513672 97.87799835205078,61.106998443603516 98.77799987792969,71.8270034790039 C98.78800201416016,71.9469985961914 98.7979965209961,72.0770034790039 98.80799865722656,72.1969985961914 C98.8280029296875,72.31700134277344 98.83799743652344,72.427001953125 98.83799743652344,72.5469970703125z"></path></g></g></g></svg>