<svg xmlns="http://www.w3.org/2000/svg" viewBox="0 0 512 512" width="512" height="512" style="width: 100%; height: 100%; transform: translate3d(0,0,0);" preserveAspectRatio="xMidYMid meet"><defs><clipPath id="__lottie_element_4227"><rect width="512" height="512" x="0" y="0"></rect></clipPath><clipPath id="__lottie_element_4229"><path d="M0,0 L512,0 L512,512 L0,512z"></path></clipPath><linearGradient id="__lottie_element_4239" spreadMethod="pad" gradientUnits="userSpaceOnUse" x1="0" y1="-175" x2="0" y2="153.27499389648438"><stop offset="1%" stop-color="rgb(203,211,238)"></stop><stop offset="46%" stop-color="rgb(195,203,231)"></stop><stop offset="91%" stop-color="rgb(187,196,223)"></stop><stop offset="96%" stop-color="rgb(171,183,211)"></stop><stop offset="100%" stop-color="rgb(154,169,199)"></stop></linearGradient><radialGradient id="__lottie_element_4243" spreadMethod="pad" gradientUnits="userSpaceOnUse" cx="40" cy="-61" r="36.051578193545325" fx="40" fy="-61"><stop offset="0%" stop-color="rgb(134,134,137)"></stop><stop offset="31%" stop-color="rgb(70,70,72)"></stop><stop offset="93%" stop-color="rgb(7,7,7)"></stop></radialGradient><radialGradient id="__lottie_element_4247" spreadMethod="pad" gradientUnits="userSpaceOnUse" cx="-63" cy="-72" r="19.790000915527344" fx="-63" fy="-72"><stop offset="0%" stop-color="rgb(157,157,157)"></stop><stop offset="26%" stop-color="rgb(83,83,83)"></stop><stop offset="88%" stop-color="rgb(9,9,9)"></stop></radialGradient><linearGradient id="__lottie_element_4251" spreadMethod="pad" gradientUnits="userSpaceOnUse" x1="1" y1="25" x2="1" y2="77.8759994506836"><stop offset="0%" stop-color="rgb(251,68,144)"></stop><stop offset="27%" stop-color="rgb(251,108,182)"></stop><stop offset="53%" stop-color="rgb(252,147,219)"></stop><stop offset="65%" stop-color="rgb(252,145,217)"></stop><stop offset="79%" stop-color="rgb(252,143,215)"></stop><stop offset="90%" stop-color="rgb(251,106,180)"></stop><stop offset="100%" stop-color="rgb(251,68,144)"></stop></linearGradient><clipPath id="__lottie_element_4262"><path d="M0,0 L512,0 L512,512 L0,512z"></path></clipPath><mask id="__lottie_element_4265" mask-type="alpha"><g style="display: none;"><g><g><path></path></g></g></g></mask><mask id="__lottie_element_4271" mask-type="alpha"><g style="display: none;"><g><g><path></path></g></g></g></mask><clipPath id="__lottie_element_4278"><path d="M0,0 L512,0 L512,512 L0,512z"></path></clipPath><mask id="__lottie_element_4281" mask-type="alpha"><g style="display: none;"><g><g><path></path></g></g></g></mask><mask id="__lottie_element_4287" mask-type="alpha"><g style="display: block;" transform="matrix(1,0,0,1,256,260)" opacity="1"><g opacity="1" transform="matrix(1,0,0,1,0,0)"><g opacity="1" transform="matrix(1,0,0,1,0,0)"><path fill="rgb(255,255,255)" fill-opacity="1" d=" M148.5659942626953,157.71099853515625 C119.48699951171875,171.22900390625 92.95600128173828,221.5030059814453 0.8700000047683716,221.5030059814453 C-102.83399963378906,221.5030059814453 -108.28099822998047,166.6719970703125 -146.29100036621094,155.52499389648438 C-163.53399658203125,150.46800231933594 -148.75900268554688,130.8769989013672 -147.11099243164062,125.96800231933594 C-141.37899780273438,109.00800323486328 -127.8550033569336,87.75800323486328 -115.625,40.9379997253418 C-98.98500061035156,-22.711999893188477 -116.18800354003906,-48.8129997253418 -103.18800354003906,-103.06300354003906 C-90.18800354003906,-157.31300354003906 -46,-181.125 -0.31200000643730164,-181.125 C44.9379997253418,-181.125 83.68800354003906,-163.625 101.75,-112.25 C119.81199645996094,-60.875 101.85600280761719,-35.00199890136719 114.875,34.4379997253418 C124.625,86.40799713134766 127.49500274658203,84.53500366210938 134.76499938964844,101.90699768066406 C141.5,118 163,151 148.5659942626953,157.71099853515625z"></path></g></g></g></mask><linearGradient id="__lottie_element_4299" spreadMethod="pad" gradientUnits="userSpaceOnUse" x1="-15349.6865234375" y1="-83" x2="-15403.474609375" y2="-189.61500549316406"><stop offset="1%" stop-color="rgb(203,211,238)"></stop><stop offset="41%" stop-color="rgb(195,203,231)"></stop><stop offset="81%" stop-color="rgb(187,196,223)"></stop><stop offset="91%" stop-color="rgb(171,183,211)"></stop><stop offset="100%" stop-color="rgb(154,169,199)"></stop></linearGradient><linearGradient id="__lottie_element_4306" spreadMethod="pad" gradientUnits="userSpaceOnUse" x1="-169" y1="-83" x2="-115.21199798583984" y2="23.614999771118164"><stop offset="0%" stop-color="rgb(154,169,199)"></stop><stop offset="9%" stop-color="rgb(171,183,211)"></stop><stop offset="19%" stop-color="rgb(187,196,223)"></stop><stop offset="61%" stop-color="rgb(195,203,231)"></stop><stop offset="100%" stop-color="rgb(203,211,238)"></stop></linearGradient></defs><g clip-path="url(#__lottie_element_4227)"><g clip-path="url(#__lottie_element_4229)" style="display: block;" transform="matrix(1,0,0,1,0,0)" opacity="1"><g style="display: block;" transform="matrix(0.9997121691703796,-0.023821797221899033,0.02382121980190277,0.9997219443321228,255.7192840576172,257.486083984375)" opacity="1"><g opacity="1" transform="matrix(-1,0,0,1,-2.7949981689453125,0.7399997711181641)"><g opacity="1" transform="matrix(1,0,0,1,0,0)"><path fill="url(#__lottie_element_4306)" fill-opacity="1" d=" M132.2259979248047,41.667999267578125 C203.81199645996094,-35.99300003051758 247.66000366210938,-71.75 222.55799865722656,-89.03399658203125 C210.4929962158203,-97.34200286865234 195.31900024414062,-91.73799896240234 176.1739959716797,-78.59500122070312 C159.0540008544922,-66.84200286865234 135.2779998779297,-49.92499923706055 124.41100311279297,-45.590999603271484 C91.51399993896484,-32.470001220703125 77.13500213623047,-12.508999824523926 83.5270004272461,17.76799964904785 C89.50299835205078,46.07400131225586 116.83799743652344,58.36199951171875 132.2259979248047,41.667999267578125z"></path></g><g opacity="1" transform="matrix(1,0,0,1,0,0)"><path fill="rgb(241,243,248)" fill-opacity="1" d=" M158.27999877929688,-50.069000244140625 C182.0780029296875,-67.23300170898438 205.07200622558594,-83.14099884033203 214.53799438476562,-77.69000244140625 C222.70599365234375,-72.98600006103516 207.55099487304688,-61.152000427246094 186.62100219726562,-32.91699981689453 C166.01699829101562,-5.120999813079834 152.24400329589844,-0.0430000014603138 141.76499938964844,0.012000000104308128 C131.28599548339844,0.06700000166893005 125.0979995727539,-5.942999839782715 124.13999938964844,-24.260000228881836 C123.53600311279297,-35.80400085449219 136.49600219726562,-34.356998443603516 158.27999877929688,-50.069000244140625z"></path></g><g opacity="1" transform="matrix(1,0,0,1,0,0)"><path stroke-linecap="butt" stroke-linejoin="miter" fill-opacity="0" stroke-miterlimit="10" stroke="rgb(112,121,140)" stroke-opacity="1" stroke-width="8" d=" M132.2259979248047,41.667999267578125 C202.33799743652344,-35.42100143432617 247.66000366210938,-71.75 222.55799865722656,-89.03399658203125 C210.4929962158203,-97.34200286865234 198.08399963378906,-92.33100128173828 178.93899536132812,-79.18800354003906 C161.81900024414062,-67.43499755859375 135.2779998779297,-49.92499923706055 124.41100311279297,-45.590999603271484 C91.51399993896484,-32.470001220703125 77.13500213623047,-12.508999824523926 83.5270004272461,17.76799964904785 C89.50299835205078,46.07400131225586 116.94999694824219,58.46500015258789 132.2259979248047,41.667999267578125z"></path></g><g opacity="1" transform="matrix(1,0,0,1,0,0)"><path stroke-linecap="round" stroke-linejoin="round" fill-opacity="0" stroke="rgb(255,255,255)" stroke-opacity="1" stroke-width="11" d=" M199.84800720214844,-70.3290023803711 C199.84800720214844,-70.3290023803711 183.51400756835938,-62.108001708984375 172.4969940185547,-52.04100036621094"></path></g></g></g><g style="display: block;" transform="matrix(-0.9999959468841553,0,0,1.0000057220458984,256.0000915527344,240.49920654296875)" opacity="1"><g opacity="1" transform="matrix(1,0,0,1,0,0)"><path fill="rgb(203,211,238)" fill-opacity="1" d=" M137.38699340820312,-20.417999267578125 C130.13699340820312,-17.417999267578125 106,24.75 106,24.75 C106,24.75 160.07400512695312,34.777000427246094 148.8350067138672,33.6609992980957 C129.44000244140625,31.73900032043457 133.38699340820312,-6.668000221252441 139.88699340820312,-17.417999267578125 C142.95399475097656,-22.489999771118164 144.63699340820312,-23.417999267578125 137.38699340820312,-20.417999267578125z"></path></g></g><g style="display: block;" transform="matrix(0.9998000264167786,0.019790682941675186,-0.019790831953287125,0.9998098611831665,256.2482604980469,257.97979736328125)" opacity="1"><g opacity="1" transform="matrix(1,0,0,1,0,0)"><path fill="url(#__lottie_element_4299)" fill-opacity="1" d=" M132.2259979248047,41.667999267578125 C203.81199645996094,-35.99300003051758 247.66000366210938,-71.75 222.55799865722656,-89.03399658203125 C210.4929962158203,-97.34200286865234 195.31900024414062,-91.73799896240234 176.1739959716797,-78.59500122070312 C159.0540008544922,-66.84200286865234 135.2779998779297,-49.92499923706055 124.41100311279297,-45.590999603271484 C91.51399993896484,-32.470001220703125 77.13500213623047,-12.508999824523926 83.5270004272461,17.76799964904785 C89.50299835205078,46.07400131225586 116.83799743652344,58.36199951171875 132.2259979248047,41.667999267578125z"></path></g><g opacity="1" transform="matrix(1,0,0,1,0,0)"><path fill="rgb(241,243,248)" fill-opacity="1" d=" M158.27999877929688,-50.069000244140625 C182.0780029296875,-67.23300170898438 205.07200622558594,-83.14099884033203 214.53799438476562,-77.69000244140625 C222.70599365234375,-72.98600006103516 207.55099487304688,-61.152000427246094 186.62100219726562,-32.91699981689453 C166.01699829101562,-5.120999813079834 152.24400329589844,-0.0430000014603138 141.76499938964844,0.012000000104308128 C131.28599548339844,0.06700000166893005 125.0979995727539,-5.942999839782715 124.13999938964844,-24.260000228881836 C123.53600311279297,-35.80400085449219 136.49600219726562,-34.356998443603516 158.27999877929688,-50.069000244140625z"></path></g><g opacity="1" transform="matrix(1,0,0,1,0,0)"><path stroke-linecap="butt" stroke-linejoin="miter" fill-opacity="0" stroke-miterlimit="10" stroke="rgb(112,121,140)" stroke-opacity="1" stroke-width="8" d=" M132.2259979248047,41.667999267578125 C202.33799743652344,-35.42100143432617 247.66000366210938,-71.75 222.55799865722656,-89.03399658203125 C210.4929962158203,-97.34200286865234 198.08399963378906,-92.33100128173828 178.93899536132812,-79.18800354003906 C161.81900024414062,-67.43499755859375 135.2779998779297,-49.92499923706055 124.41100311279297,-45.590999603271484 C91.51399993896484,-32.470001220703125 77.13500213623047,-12.508999824523926 83.5270004272461,17.76799964904785 C89.50299835205078,46.07400131225586 116.94999694824219,58.46500015258789 132.2259979248047,41.667999267578125z"></path></g><g opacity="1" transform="matrix(1,0,0,1,0,0)"><path stroke-linecap="round" stroke-linejoin="round" fill-opacity="0" stroke="rgb(255,255,255)" stroke-opacity="1" stroke-width="11" d=" M199.84800720214844,-70.3290023803711 C199.84800720214844,-70.3290023803711 183.51400756835938,-62.108001708984375 172.4969940185547,-52.04100036621094"></path></g></g><g style="display: block;" transform="matrix(0.9999959468841553,0,0,1.0000057220458984,256.0000915527344,235.99917602539062)" opacity="1"><g opacity="1" transform="matrix(1,0,0,1,0,0)"><path fill="rgb(203,211,238)" fill-opacity="1" d=" M137.38699340820312,-20.417999267578125 C130.13699340820312,-17.417999267578125 106,24.75 106,24.75 C106,24.75 160.07400512695312,34.777000427246094 148.8350067138672,33.6609992980957 C129.44000244140625,31.73900032043457 133.38699340820312,-6.668000221252441 139.88699340820312,-17.417999267578125 C142.95399475097656,-22.489999771118164 144.63699340820312,-23.417999267578125 137.38699340820312,-20.417999267578125z"></path></g></g><g style="display: block;" transform="matrix(0.9999959468841553,0,0,1.0000057220458984,256.00006103515625,259.99932861328125)" opacity="1"><g opacity="1" transform="matrix(1,0,0,1,0,0)"><path fill="url(#__lottie_element_4239)" fill-opacity="1" d=" M-0.43799999356269836,-197.06300354003906 C-50.85900115966797,-197.06300354003906 -101.93699645996094,-168.58900451660156 -116.31300354003906,-108.68800354003906 C-130.68899536132812,-48.7869987487793 -113.94300079345703,-22.159000396728516 -132.31300354003906,48.125 C-144.84500122070312,96.07499694824219 -169.93899536132812,144.4739990234375 -182.3939971923828,161.36500549316406 C-192.2830047607422,175.05799865722656 -192.7760009765625,177.5070037841797 -173.83700561523438,180.61599731445312 C-149.2050018310547,185.71800231933594 -134.30999755859375,148.11399841308594 -92.06300354003906,158.5 C-51.9739990234375,168.35699462890625 -43.64400100708008,187.34100341796875 4.125,181.93800354003906 C50.62900161743164,176.73300170898438 51.12900161743164,152.8719940185547 85.75,157 C115.5989990234375,160.59100341796875 138.5919952392578,175.5540008544922 176.75,176.06300354003906 C186.82000732421875,176.18600463867188 193.92999267578125,171.31100463867188 182.68800354003906,159.75 C168.2570037841797,142.3459930419922 140.98300170898438,92.8499984741211 131.25,40.9379997253418 C116.8740005493164,-35.736000061035156 134.4669952392578,-62.10599899291992 114.5,-118.81300354003906 C94.53299713134766,-175.52000427246094 49.50899887084961,-197.06300354003906 -0.43799999356269836,-197.06300354003906z"></path><path stroke-linecap="round" stroke-linejoin="round" fill-opacity="0" stroke="rgb(112,121,140)" stroke-opacity="1" stroke-width="8" d=" M-0.43799999356269836,-197.06300354003906 C-50.85900115966797,-197.06300354003906 -101.93699645996094,-168.58900451660156 -116.31300354003906,-108.68800354003906 C-130.68899536132812,-48.7869987487793 -113.94300079345703,-22.159000396728516 -132.31300354003906,48.125 C-144.84500122070312,96.07499694824219 -169.93899536132812,144.4739990234375 -182.3939971923828,161.36500549316406 C-192.2830047607422,175.05799865722656 -192.7760009765625,177.5070037841797 -173.83700561523438,180.61599731445312 C-149.2050018310547,185.71800231933594 -134.30999755859375,148.11399841308594 -92.06300354003906,158.5 C-51.9739990234375,168.35699462890625 -43.64400100708008,187.34100341796875 4.125,181.93800354003906 C50.62900161743164,176.73300170898438 51.12900161743164,152.8719940185547 85.75,157 C115.5989990234375,160.59100341796875 138.5919952392578,175.5540008544922 176.75,176.06300354003906 C186.82000732421875,176.18600463867188 193.92999267578125,171.31100463867188 182.68800354003906,159.75 C168.2570037841797,142.3459930419922 140.98300170898438,92.8499984741211 131.25,40.9379997253418 C116.8740005493164,-35.736000061035156 134.4669952392578,-62.10599899291992 114.5,-118.81300354003906 C94.53299713134766,-175.52000427246094 49.50899887084961,-197.06300354003906 -0.43799999356269836,-197.06300354003906z"></path></g></g><g clip-path="url(#__lottie_element_4278)" style="display: block;" transform="matrix(0.9999959468841553,0,0,1.0000057220458984,0.00115966796875,-0.00213623046875)" opacity="1"><g style="display: block;" mask="url(#__lottie_element_4287)"><g transform="matrix(1,0,0,1,414.16668701171875,262)" opacity="1"><g opacity="1" transform="matrix(1,0,0,1,0,0)"><path fill="rgb(238,240,251)" fill-opacity="1" d=" M372.8529968261719,34.4370002746582 C359.8330078125,-35.00299835205078 377.8030090332031,-60.92300033569336 359.7229919433594,-112.27300262451172 C330.572998046875,-195.01800537109375 233.61300659179688,-274.1499938964844 189,-238.68800354003906 C162.78500366210938,-260.4739990234375 -615.5599975585938,-264.1080017089844 -647.4819946289062,-239.10000610351562 C-691.9219970703125,-275.48699951171875 -799.43798828125,-193.78799438476562 -821.2069702148438,-103.08300018310547 C-834.2269897460938,-48.83300018310547 -816.9869995117188,-22.702999114990234 -833.6270141601562,40.946998596191406 C-845.8569946289062,87.76699829101562 -863.7969970703125,127.55699920654297 -872.43701171875,143.23699951171875 C-875.969970703125,149.67799377441406 -869.4130249023438,157.2530059814453 -849.7869873046875,151.61700439453125 C-848.7860107421875,151.61700439453125 -814.7080078125,142.04600524902344 -791.0670166015625,101.35700225830078 C-778.1519775390625,79.125 -776.6480102539062,154.9969940185547 -726.197021484375,164.8070068359375 C-659.5989990234375,177.9770050048828 -655.2860107421875,68.62699890136719 -640.8870239257812,104.09700012207031 C-633.697021484375,121.80699920654297 -620.677001953125,158.2969970703125 -587.197021484375,164.8070068359375 C-532.7479858398438,175.5749969482422 -519.1840209960938,103.1520004272461 -509.843994140625,98.64399719238281 C-496.3800048828125,94.21600341796875 -493.9809875488281,163.75399780273438 -439.7669982910156,165.77699279785156 C-383.05499267578125,167.9600067138672 -375.0419921875,71.68800354003906 -361.8869934082031,104.09700012207031 C-354.16900634765625,123.10800170898438 -355.98828125,152.49049377441406 -323.5174865722656,154.01988220214844 C-277.23876953125,156.20289611816406 -253.44972229003906,68.05538940429688 -240.2947235107422,100.46438598632812 C-232.57672119140625,119.47538757324219 -196.11643981933594,162.28599548339844 -161.39744567871094,163.8179931640625 C-119.57344818115234,165.66400146484375 -86.4742202758789,100.13983154296875 -77.42322540283203,95.77183532714844 C-64.53622436523438,91.5338363647461 -44.856998443603516,154.76895141601562 2.7590556144714355,156.1833953857422 C69.72744750976562,158.38600158691406 34.27199935913086,62.356998443603516 52.95500183105469,94.26100158691406 C63.323001861572266,111.96600341796875 85.88899993896484,153.21299743652344 125.68299865722656,154.697998046875 C182.39500427246094,156.88099670410156 182.95799255371094,71.68800354003906 196.11300659179688,104.09700012207031 C203.30299377441406,121.80699920654297 216.322998046875,158.2969970703125 249.80299377441406,164.8070068359375 C295.84600830078125,173.91299438476562 313.24200439453125,123.0469970703125 323.1730041503906,102.99700164794922 C335.8489990234375,77.33599853515625 349.9159851074219,159.67799377441406 408.9930114746094,154.76699829101562 C429.5360107421875,153.0590057373047 389.94500732421875,125.54000091552734 372.8529968261719,34.4370002746582z"></path></g><g opacity="0.3" transform="matrix(1,0,0,1,0,0)"><path fill="rgb(170,182,210)" fill-opacity="1" d=" M115.38800048828125,153.33900451660156 C69.31300354003906,141.2259979248047 64.74299621582031,64.64700317382812 49.75,64.64700317382812 C34.888999938964844,64.64700317382812 65.33577728271484,146.5330047607422 12.74494457244873,155.63072204589844 C68.5437240600586,147.37550354003906 35.26100158691406,64.0479965209961 52.95399856567383,94.26100158691406 C62.374000549316406,110.3479995727539 83.27799987792969,145.86399841308594 115.38800048828125,153.33900451660156z"></path></g><g opacity="0.3" transform="matrix(1,0,0,1,0,0)"><path fill="rgb(170,182,210)" fill-opacity="1" d=" M0.425944447517395,156.17166137695312 C-47.10616683959961,153.24217224121094 -61.273223876953125,61.77488708496094 -76.26622009277344,61.77488708496094 C-91.1272201538086,61.77488708496094 -113.86944580078125,163.9530029296875 -160.4554443359375,163.91700744628906 C-109.63300323486328,160.5938262939453 -85.4756088256836,82.24910736083984 -69.62166595458984,100.09183502197266 C-59.957942962646484,110.79966735839844 -33.47100067138672,154.0828399658203 0.425944447517395,156.17166137695312z"></path></g><g opacity="0.3" transform="matrix(1,0,0,1,0,0)"><path fill="rgb(170,182,210)" fill-opacity="1" d=" M-170.03839111328125,162.54600524902344 C-209.6683349609375,151.8878936767578 -231.11972045898438,67.35844421386719 -246.0947265625,67.35844421386719 C-259.69873046875,67.35844421386719 -278.93426513671875,134.46188354492188 -311.77783203125,152.3118896484375 C-272.9454345703125,140.0806121826172 -252.24478149414062,71.0213851928711 -240.2937774658203,100.46438598632812 C-233.25277709960938,117.80738830566406 -198.306396484375,155.27000427246094 -170.03839111328125,162.54600524902344z"></path></g><g opacity="0.3" transform="matrix(1,0,0,1,0,0)"><path fill="rgb(170,182,210)" fill-opacity="1" d=" M-367.18798828125,63.39699935913086 C-380.6600036621094,63.39699935913086 -384.54901123046875,144.625 -423.70599365234375,163.54200744628906 C-381.3529968261719,149.43899536132812 -373.6839904785156,75.03399658203125 -361.8869934082031,104.09700012207031 C-355.02899169921875,120.98899841308594 -358.57745361328125,143.62493896484375 -333.630615234375,152.12594604492188 C-332.78338623046875,152.32794189453125 -331.9240417480469,152.5469512939453 -331.05145263671875,152.7909393310547 C-368.9571228027344,142.21295166015625 -352.19500732421875,63.39699935913086 -367.18798828125,63.39699935913086z"></path></g><g opacity="0.3" transform="matrix(1,0,0,1,0,0)"><path fill="rgb(170,182,210)" fill-opacity="1" d=" M-456.96099853515625,162.43699645996094 C-496.6719970703125,145.322998046875 -494.4280090332031,63.39699935913086 -508.68798828125,63.39699935913086 C-522.676025390625,63.39699935913086 -526.3400268554688,150.9600067138672 -569.8720092773438,165.4239959716797 C-529.6690063476562,159.69700622558594 -518.1019897460938,102.62999725341797 -509.843994140625,98.64399719238281 C-497.97601318359375,94.74099731445312 -494.6969909667969,148.29600524902344 -456.96099853515625,162.43699645996094z"></path></g><g opacity="0.3" transform="matrix(1,0,0,1,0,0)"><path fill="rgb(170,182,210)" fill-opacity="1" d=" M-645.68798828125,63.39699935913086 C-659.4749755859375,63.39699935913086 -663.2340087890625,148.46600341796875 -705.0260009765625,164.7550048828125 C-658.4439697265625,154.07000732421875 -653.5789794921875,72.83200073242188 -640.8870239257812,104.09700012207031 C-634.0289916992188,120.98899841308594 -621.85400390625,154.94400024414062 -591.6950073242188,163.69700622558594 C-590.3209838867188,163.94900512695312 -588.9290161132812,164.22300720214844 -587.4990234375,164.5489959716797 C-633.9500122070312,153.9709930419922 -630.6950073242188,63.39699935913086 -645.68798828125,63.39699935913086z"></path></g><g opacity="1" transform="matrix(1,0,0,1,0,0)"><g opacity="0.3" transform="matrix(1,0,0,1,0,0)"><path fill="rgb(170,182,210)" fill-opacity="1" d=" M246.2259979248047,163.96499633789062 C202.11099243164062,151.03599548339844 205.0189971923828,63.39699935913086 190.27099609375,63.39699935913086 C176.66000366210938,63.39699935913086 180.27099609375,135.22500610351562 139.96600341796875,153.01800537109375 C183.88699340820312,140.4459991455078 184.1529998779297,74.63200378417969 196.11300659179688,104.09700012207031 C203.0399932861328,121.16100311279297 215.38900756835938,155.64599609375 246.2259979248047,163.96499633789062z"></path></g><g opacity="0.3" transform="matrix(1,0,0,1,0,0)"><path fill="rgb(170,182,210)" fill-opacity="1" d=" M247.04800415039062,164.1840057373047 C246.8350067138672,164.1269989013672 246.61500549316406,164.07899475097656 246.4040069580078,164.01800537109375 C246.6179962158203,164.0749969482422 246.83299255371094,164.1300048828125 247.04800415039062,164.1840057373047z"></path></g></g><g opacity="0.3" transform="matrix(1,0,0,1,0,0)"><path fill="rgb(170,182,210)" fill-opacity="1" d=" M354.16400146484375,128.07899475097656 C342.3949890136719,98.9260025024414 340.1619873046875,63.39699935913086 330.77099609375,63.39699935913086 C317.12701416015625,63.39699935913086 313.30499267578125,146.70599365234375 272.72698974609375,164.2270050048828 C302.0790100097656,155.9969940185547 315.0950012207031,119.30500030517578 323.1730041503906,102.99700164794922 C330.3800048828125,88.40799713134766 338.0409851074219,108.7300033569336 354.16400146484375,128.07899475097656z"></path></g><g opacity="0.3" transform="matrix(1,0,0,1,0,0)"><path fill="rgb(170,182,210)" fill-opacity="1" d=" M-732.3930053710938,163.1929931640625 C-774.0789794921875,147.91400146484375 -771.5369873046875,63.39699935913086 -786.02099609375,63.39699935913086 C-800.8820190429688,63.39699935913086 -809.7360229492188,148.58099365234375 -861.4860229492188,153.58099365234375 C-859.0369873046875,153.343994140625 -856.6900024414062,153.06500244140625 -854.427001953125,152.75399780273438 C-852.968017578125,152.45899963378906 -851.427001953125,152.08799743652344 -849.7869873046875,151.61700439453125 C-848.7860107421875,151.61700439453125 -814.7080078125,142.04600524902344 -791.0670166015625,101.35700225830078 C-778.7039794921875,80.0739974975586 -776.791015625,148.68600463867188 -732.3930053710938,163.1929931640625z"></path></g><g opacity="0.3" transform="matrix(1,0,0,1,0,0)"><path stroke-linecap="round" stroke-linejoin="round" fill-opacity="0" stroke="rgb(255,255,255)" stroke-opacity="1" stroke-width="11" d=" M-21.677221298217773,144.32278442382812 C-21.677221298217773,144.32278442382812 17.080778121948242,163.72439575195312 40.74433517456055,130.7897186279297"></path></g><g opacity="0.3" transform="matrix(1,0,0,1,0,0)"><path stroke-linecap="round" stroke-linejoin="round" fill-opacity="0" stroke="rgb(255,255,255)" stroke-opacity="1" stroke-width="11" d=" M96.54299926757812,136.5570068359375 C96.54299926757812,136.5570068359375 131.85499572753906,162.0570068359375 160.54200744628906,133.3699951171875"></path></g><g opacity="0.3" transform="matrix(1,0,0,1,0,0)"><path stroke-linecap="round" stroke-linejoin="round" fill-opacity="0" stroke="rgb(255,255,255)" stroke-opacity="1" stroke-width="11" d=" M-348.42681884765625,137.38888549804688 C-348.42681884765625,137.38888549804688 -319.6107177734375,162.88888549804688 -296.2012634277344,134.20188903808594"></path></g><g opacity="0.3" transform="matrix(1,0,0,1,0,0)"><path stroke-linecap="round" stroke-linejoin="round" fill-opacity="0" stroke="rgb(255,255,255)" stroke-opacity="1" stroke-width="11" d=" M-182.85716247558594,150.19944763183594 C-182.85716247558594,150.19944763183594 -157.9546661376953,172.7399444580078 -132.92466735839844,144.05294799804688"></path></g><g opacity="0.3" transform="matrix(1,0,0,1,0,0)"><path stroke-linecap="round" stroke-linejoin="round" fill-opacity="0" stroke="rgb(255,255,255)" stroke-opacity="1" stroke-width="11" d=" M-468.5719909667969,149.14599609375 C-468.5719909667969,149.14599609375 -433.260009765625,174.64599609375 -404.572998046875,145.95899963378906"></path></g><g opacity="0.3" transform="matrix(1,0,0,1,0,0)"><path stroke-linecap="round" stroke-linejoin="round" fill-opacity="0" stroke="rgb(255,255,255)" stroke-opacity="1" stroke-width="11" d=" M-747.4609985351562,149.14599609375 C-747.4609985351562,149.14599609375 -712.1489868164062,174.64599609375 -683.4619750976562,145.95899963378906"></path></g><g opacity="0.3" transform="matrix(1,0,0,1,0,0)"><path stroke-linecap="round" stroke-linejoin="round" fill-opacity="0" stroke="rgb(255,255,255)" stroke-opacity="1" stroke-width="11" d=" M-608.4609985351562,149.14599609375 C-608.4609985351562,149.14599609375 -573.1489868164062,174.64599609375 -544.4619750976562,145.95899963378906"></path></g><g opacity="0.3" transform="matrix(1,0,0,1,0,0)"><path stroke-linecap="round" stroke-linejoin="round" fill-opacity="0" stroke="rgb(255,255,255)" stroke-opacity="1" stroke-width="11" d=" M227.0189971923828,149.14599609375 C227.0189971923828,149.14599609375 262.33099365234375,174.64599609375 291.01800537109375,145.95899963378906"></path></g></g></g><g style="display: none;" mask="url(#__lottie_element_4281)"><g><g><path></path></g><g><path></path></g><g><path></path></g><g><path></path></g><g><path></path></g><g><path></path></g><g><path></path></g><g><g><path></path></g><g><path></path></g></g><g><path></path></g><g><path></path></g><g><path stroke-linecap="round" stroke-linejoin="round" fill-opacity="0"></path></g><g><path stroke-linecap="round" stroke-linejoin="round" fill-opacity="0"></path></g><g><path stroke-linecap="round" stroke-linejoin="round" fill-opacity="0"></path></g><g><path stroke-linecap="round" stroke-linejoin="round" fill-opacity="0"></path></g><g><path stroke-linecap="round" stroke-linejoin="round" fill-opacity="0"></path></g><g><path stroke-linecap="round" stroke-linejoin="round" fill-opacity="0"></path></g><g><path stroke-linecap="round" stroke-linejoin="round" fill-opacity="0"></path></g><g><path stroke-linecap="round" stroke-linejoin="round" fill-opacity="0"></path></g></g></g></g><g clip-path="url(#__lottie_element_4262)" style="display: none;"><g style="display: none;" mask="url(#__lottie_element_4271)"><g><g><path></path></g><g><path></path></g><g><path></path></g><g><path></path></g><g><path></path></g><g><path></path></g><g><path></path></g><g><g><path></path></g><g><path></path></g></g><g><path></path></g><g><path></path></g><g><path stroke-linecap="round" stroke-linejoin="round" fill-opacity="0"></path></g><g><path stroke-linecap="round" stroke-linejoin="round" fill-opacity="0"></path></g><g><path stroke-linecap="round" stroke-linejoin="round" fill-opacity="0"></path></g><g><path stroke-linecap="round" stroke-linejoin="round" fill-opacity="0"></path></g><g><path stroke-linecap="round" stroke-linejoin="round" fill-opacity="0"></path></g><g><path stroke-linecap="round" stroke-linejoin="round" fill-opacity="0"></path></g><g><path stroke-linecap="round" stroke-linejoin="round" fill-opacity="0"></path></g><g><path stroke-linecap="round" stroke-linejoin="round" fill-opacity="0"></path></g></g></g><g style="display: none;" mask="url(#__lottie_element_4265)"><g><g><path></path></g><g><path></path></g><g><path></path></g><g><path></path></g><g><path></path></g><g><path></path></g><g><path></path></g><g><g><path></path></g><g><path></path></g></g><g><path></path></g><g><path></path></g><g><path stroke-linecap="round" stroke-linejoin="round" fill-opacity="0"></path></g><g><path stroke-linecap="round" stroke-linejoin="round" fill-opacity="0"></path></g><g><path stroke-linecap="round" stroke-linejoin="round" fill-opacity="0"></path></g><g><path stroke-linecap="round" stroke-linejoin="round" fill-opacity="0"></path></g><g><path stroke-linecap="round" stroke-linejoin="round" fill-opacity="0"></path></g><g><path stroke-linecap="round" stroke-linejoin="round" fill-opacity="0"></path></g><g><path stroke-linecap="round" stroke-linejoin="round" fill-opacity="0"></path></g><g><path stroke-linecap="round" stroke-linejoin="round" fill-opacity="0"></path></g></g></g></g><g style="display: block;" transform="matrix(0.9999959468841553,0,0,1.0000057220458984,256.00006103515625,259.99932861328125)" opacity="1"><g opacity="0.7000000000000001" transform="matrix(1,0,0,1,0,0)"><path fill="rgb(255,255,255)" fill-opacity="1" d=" M76.48600006103516,-143.0030059814453 C76.48600006103516,-121.79399871826172 43.03200149536133,-104.5999984741211 1.7649999856948853,-104.5999984741211 C-39.50199890136719,-104.5999984741211 -72.95500183105469,-121.79399871826172 -72.95500183105469,-143.0030059814453 C-72.95500183105469,-164.21200561523438 -39.50199890136719,-181.406005859375 1.7649999856948853,-181.406005859375 C43.03200149536133,-181.406005859375 76.48600006103516,-164.21200561523438 76.48600006103516,-143.0030059814453z"></path></g><g opacity="1" transform="matrix(1,0,0,1,0,0)"><g opacity="1" transform="matrix(1,0,0,1,0,0)"><path stroke-linecap="round" stroke-linejoin="round" fill-opacity="0" stroke="rgb(255,255,255)" stroke-opacity="1" stroke-width="6" d=" M44.65999984741211,-174.1320037841797 C45.98400115966797,-173.69900512695312 47.35499954223633,-173.23199462890625 48.76599884033203,-172.7270050048828"></path></g><g opacity="1" transform="matrix(1,0,0,1,0,0)"><path stroke-linecap="round" stroke-linejoin="round" fill-opacity="0" stroke="rgb(255,255,255)" stroke-opacity="1" stroke-width="6" d=" M26.149999618530273,-178.875 C26.149999618530273,-178.875 30.410999298095703,-178.2100067138672 37.095001220703125,-176.39500427246094"></path></g></g><g opacity="1" transform="matrix(1,0,0,1,0,0)"><g opacity="1" transform="matrix(1,0,0,1,0,0)"><path stroke-linecap="round" stroke-linejoin="round" fill-opacity="0" stroke="rgb(255,255,255)" stroke-opacity="1" stroke-width="6" d=" M44.65999984741211,-174.1320037841797 C45.98400115966797,-173.69900512695312 47.35499954223633,-173.23199462890625 48.76599884033203,-172.7270050048828"></path></g><g opacity="1" transform="matrix(1,0,0,1,0,0)"><path stroke-linecap="round" stroke-linejoin="round" fill-opacity="0" stroke="rgb(255,255,255)" stroke-opacity="1" stroke-width="6" d=" M26.149999618530273,-178.875 C26.149999618530273,-178.875 30.410999298095703,-178.2100067138672 37.095001220703125,-176.39500427246094"></path></g></g></g><g style="display: block;" transform="matrix(1.0049149990081787,-0.0013156163040548563,0.0013023794163018465,0.9950848817825317,256.22723388671875,259.8880615234375)" opacity="1"><g opacity="1" transform="matrix(1,0,0,1,0,0)"><path fill="rgb(180,191,219)" fill-opacity="1" d=" M-5.750999927520752,108.18399810791016 C-46.44599914550781,103.38600158691406 -45.3120002746582,68.21299743652344 -44.12300109863281,58.13100051879883 C-41.301998138427734,34.20199966430664 -40.948001861572266,18.486000061035156 -40.948001861572266,18.486000061035156 C-40.948001861572266,8.152999877929688 -35.05699920654297,-0.3019999861717224 -24.483999252319336,-0.3019999861717224 C-24.483999252319336,-0.3019999861717224 -9.27400016784668,-0.3019999861717224 -9.27400016784668,-0.3019999861717224 C-5.879000186920166,-0.3019999861717224 -2.6549999713897705,1.152999997138977 -0.45399999618530273,3.678999900817871 C-0.45399999618530273,3.678999900817871 0.11999999731779099,4.336999893188477 0.11999999731779099,4.336999893188477 C0.9679999947547913,5.309999942779541 2.5199999809265137,5.26200008392334 3.302999973297119,4.238999843597412 C3.302999973297119,4.238999843597412 3.302999973297119,4.238999843597412 3.302999973297119,4.238999843597412 C5.491000175476074,1.38100004196167 8.928000450134277,-0.3019999861717224 12.579999923706055,-0.3019999861717224 C12.579999923706055,-0.3019999861717224 28.033000946044922,-0.3019999861717224 28.033000946044922,-0.3019999861717224 C38.60599899291992,-0.3019999861717224 45.277000427246094,8.152999877929688 45.277000427246094,18.486000061035156 C45.277000427246094,18.486000061035156 46.87699890136719,43.40800094604492 43.91600036621094,68.52300262451172 C42.72700119018555,78.6050033569336 32.262001037597656,112.66600036621094 -5.750999927520752,108.18399810791016z"></path></g></g><g style="display: block;" transform="matrix(1.0049149990081787,-0.0013156163040548563,0.0013023794163018465,0.9950848817825317,256.22723388671875,259.8880615234375)" opacity="1"><g opacity="1" transform="matrix(1,0,0,1,0,0)"><g opacity="1" transform="matrix(1,0,0,1,0,0)"><path fill="rgb(255,255,255)" fill-opacity="1" d=" M81.38500213623047,-8.545999526977539 C77.96900177001953,9.133999824523926 44.82699966430664,32.262001037597656 0.6439999938011169,32.262001037597656 C-43.53900146484375,32.262001037597656 -74.81099700927734,12.192000389099121 -79.91300201416016,-8.107999801635742 C-79.96099853515625,-8.300000190734863 -79.9749984741211,-8.859999656677246 -79.97699737548828,-9.029999732971191 C-80,-11.460000038146973 -79.63200378417969,-13.232000350952148 -76.28800201416016,-13.02400016784668 C-67.81199645996094,-12.496000289916992 -45.97700119018555,-5.077000141143799 0.6639999747276306,-4.565999984741211 C49.446998596191406,-5.099999904632568 70.40899658203125,-12.767999649047852 78.05599975585938,-12.994000434875488 C80.6050033569336,-13.069000244140625 81.31300354003906,-11.638999938964844 81.33899688720703,-9.083999633789062 C81.34100341796875,-8.914999961853027 81.4219970703125,-8.73799991607666 81.38500213623047,-8.545999526977539z"></path></g></g><g opacity="0.7000000000000001" transform="matrix(1,0,0,1,0,0)"><g opacity="1" transform="matrix(1,0,0,1,0,0)"><path fill="rgb(180,191,219)" fill-opacity="1" d=" M82.08300018310547,-11.970999717712402 C78.63200378417969,4.4770002365112305 44.82699966430664,27.628999710083008 0.6439999938011169,27.628999710083008 C-43.53900146484375,27.628999710083008 -75.55500030517578,7.315000057220459 -80.6729965209961,-11.567000389099121 C-80.72100067138672,-11.744999885559082 -80.73500061035156,-12.267000198364258 -80.73699951171875,-12.425000190734863 C-80.76200103759766,-14.6850004196167 -79.58599853515625,-17.33099937438965 -76.24199676513672,-17.135000228881836 C-67.76599884033203,-16.63800048828125 -45.97700119018555,-12.16100025177002 0.6639999747276306,-11.685999870300293 C49.446998596191406,-12.182999610900879 70.29299926757812,-16.860000610351562 77.94000244140625,-17.083999633789062 C80.48899841308594,-17.159000396728516 82.01699829101562,-14.847000122070312 82.03800201416016,-12.470999717712402 C82.03900146484375,-12.314000129699707 82.12000274658203,-12.14900016784668 82.08300018310547,-11.970999717712402z"></path></g></g><g opacity="1" transform="matrix(1,0,0,1,0,0)"><g opacity="1" transform="matrix(1,0,0,1,0,0)"><path fill="rgb(29,29,27)" fill-opacity="1" d=" M80.36199951171875,-11.107000350952148 C80.36299896240234,-11.067000389099121 80.35700225830078,-11.020999908447266 80.34200286865234,-10.97599983215332 C79.30599975585938,-6.03000020980835 75.05500030517578,-0.1770000010728836 68.99500274658203,4.710999965667725 C55.340999603271484,15.72599983215332 30.58099937438965,25.753999710083008 0.6470000147819519,25.753999710083008 C-29.04800033569336,25.753999710083008 -52.94599914550781,16.979000091552734 -66.71099853515625,6.008999824523926 C-66.71900177001953,6.004000186920166 -66.72699737548828,5.999000072479248 -66.73500061035156,5.988999843597412 C-72.67500305175781,1.2519999742507935 -77.02799987792969,-4.617000102996826 -78.75499725341797,-10.086000442504883 C-78.8479995727539,-10.37399959564209 -78.93199920654297,-10.65999984741211 -79.00900268554688,-10.947999954223633 C-79.04000091552734,-11.064000129699707 -79.02200317382812,-11.170000076293945 -79.00499725341797,-11.274999618530273 C-78.99700164794922,-11.300000190734863 -78.99600219726562,-11.331000328063965 -78.98799896240234,-11.361000061035156 C-78.9800033569336,-11.38599967956543 -78.97100067138672,-11.416000366210938 -78.97100067138672,-11.440999984741211 C-78.96199798583984,-11.51099967956543 -78.94599914550781,-11.581999778747559 -78.93699645996094,-11.647000312805176 C-78.88700103759766,-11.847999572753906 -78.82099914550781,-12.02299976348877 -78.7239990234375,-12.17300033569336 C-78.69100189208984,-12.227999687194824 -78.65799713134766,-12.277999877929688 -78.61799621582031,-12.322999954223633 C-78.53700256347656,-12.413000106811523 -78.4489974975586,-12.498000144958496 -78.35199737548828,-12.567000389099121 C-78.30400085449219,-12.60200023651123 -78.24800109863281,-12.63700008392334 -78.19200134277344,-12.670999526977539 C-74.41100311279297,-14.781999588012695 -56.111000061035156,-8.17300033569336 0.6669999957084656,-7.593999862670898 C64.28800201416016,-8.243000030517578 79.43900299072266,-16.809999465942383 80.30400085449219,-11.465999603271484 C80.31400299072266,-11.406000137329102 80.322998046875,-11.340999603271484 80.33300018310547,-11.281000137329102 C80.35099792480469,-11.220999717712402 80.36000061035156,-11.166999816894531 80.36199951171875,-11.107000350952148z"></path></g></g></g><g style="display: block;" transform="matrix(1.0049149990081787,-0.0013156163040548563,0.0013023794163018465,0.9950848817825317,256.2541198730469,260.4741516113281)" opacity="1"><g opacity="1" transform="matrix(1,0,0,1,0,0)"><g opacity="1" transform="matrix(1,0,0,1,0,0)"><path fill="rgb(251,68,144)" fill-opacity="1" d=" M-5.482999801635742,94.85700225830078 C-35.91999816894531,91.03800201416016 -40.45199966430664,67.89299774169922 -39.17499923706055,57.71699905395508 C-39.17499923706055,57.71699905395508 -37.05500030517578,25.11400032043457 -37.05500030517578,25.11400032043457 C-37.05500030517578,16.948999404907227 -31.9689998626709,7.968999862670898 -22.94300079345703,7.968999862670898 C-22.94300079345703,7.968999862670898 -9.958000183105469,7.968999862670898 -9.958000183105469,7.968999862670898 C-7.059999942779541,7.968999862670898 -2.006999969482422,11.418999671936035 -0.12800000607967377,13.414999961853027 C-0.12800000607967377,13.414999961853027 0.3619999885559082,13.934000015258789 0.3619999885559082,13.934000015258789 C1.0859999656677246,14.70199966430664 2.4100000858306885,14.664999961853027 3.0789999961853027,13.857000350952148 C3.0789999961853027,13.857000350952148 3.0789999961853027,13.857000350952148 3.0789999961853027,13.857000350952148 C4.947000026702881,11.598999977111816 7.881999969482422,7.968999862670898 11,7.968999862670898 C11,7.968999862670898 24.191999435424805,7.968999862670898 24.191999435424805,7.968999862670898 C33.21799850463867,7.968999862670898 40.60300064086914,16.948999404907227 40.60300064086914,25.11400032043457 C40.60300064086914,25.11400032043457 40.255001068115234,61.3380012512207 36.340999603271484,67.19300079345703 C34.07099914550781,78.82099914550781 23.966999053955078,98.5530014038086 -5.482999801635742,94.85700225830078z"></path></g><g opacity="1" transform="matrix(1,0,0,1,0,0)"><path fill="url(#__lottie_element_4251)" fill-opacity="1" d=" M-4.230000019073486,84.87200164794922 C-26.725000381469727,82.04900360107422 -29.323999404907227,58.96799850463867 -28.204999923706055,50.047000885009766 C-28.204999923706055,50.047000885009766 -26.92300033569336,23.283000946044922 -26.92300033569336,23.283000946044922 C-26.92300033569336,16.125 -21.46500015258789,10.269000053405762 -14.793999671936035,10.269000053405762 C-14.793999671936035,10.269000053405762 -5.197000026702881,10.269000053405762 -5.197000026702881,10.269000053405762 C-3.055000066757202,10.269000053405762 -1.0210000276565552,11.277999877929688 0.36800000071525574,13.027000427246094 C0.36800000071525574,13.027000427246094 0.7300000190734863,13.482000350952148 0.7300000190734863,13.482000350952148 C1.2649999856948853,14.156000137329102 2.244999885559082,14.123000144958496 2.739000082015991,13.413999557495117 C2.739000082015991,13.413999557495117 2.739000082015991,13.413999557495117 2.739000082015991,13.413999557495117 C4.11899995803833,11.434000015258789 6.288000106811523,10.269000053405762 8.592000007629395,10.269000053405762 C8.592000007629395,10.269000053405762 18.341999053955078,10.269000053405762 18.341999053955078,10.269000053405762 C25.01300048828125,10.269000053405762 30.47100067138672,16.125 30.47100067138672,23.283000946044922 C30.47100067138672,23.283000946044922 29.520999908447266,54.356998443603516 27.606000900268555,57.04999923706055 C25.69099998474121,66.95999908447266 17.53499984741211,87.60299682617188 -4.230000019073486,84.87200164794922z"></path></g><g opacity="0.5" transform="matrix(1,0,0,1,0,0)"><path fill="rgb(150,15,35)" fill-opacity="1" d=" M40.60300064086914,14.230999946594238 C36.78900146484375,18.66900062561035 20.85700035095215,20.990999221801758 1.7790000438690186,20.990999221801758 C-17.298999786376953,20.990999221801758 -33.24300003051758,18.66900062561035 -37.055999755859375,14.230999946594238 C-33.880001068115234,10.583000183105469 -28.46299934387207,8.17199993133545 -22.354999542236328,8.17199993133545 C-22.354999542236328,8.17199993133545 -8.37600040435791,8.17199993133545 -8.37600040435791,8.17199993133545 C-5.252999782562256,8.17199993133545 -2.3010001182556152,9.222000122070312 -0.2720000147819519,11.038000106811523 C-0.2720000147819519,11.038000106811523 0.24899999797344208,11.51099967956543 0.24899999797344208,11.51099967956543 C1.034999966621399,12.218999862670898 2.4590001106262207,12.178999900817871 3.180999994277954,11.446000099182129 C4.190000057220459,10.411999702453613 5.47599983215332,9.597000122070312 6.931000232696533,9.03499984741211 C8.397000312805176,8.472999572753906 10.022000312805176,8.17199993133545 11.699999809265137,8.17199993133545 C11.699999809265137,8.17199993133545 25.902000427246094,8.17199993133545 25.902000427246094,8.17199993133545 C32.020999908447266,8.17199993133545 37.426998138427734,10.583000183105469 40.60300064086914,14.230999946594238z"></path></g><g opacity="1" transform="matrix(1,0,0,1,0,0)"><path stroke-linecap="round" stroke-linejoin="round" fill-opacity="0" stroke="rgb(177,5,70)" stroke-opacity="1" stroke-width="8" d=" M-5.482999801635742,94.85700225830078 C-35.91999816894531,91.03800201416016 -40.270999908447266,66.45099639892578 -39.2400016784668,58.233001708984375 C-39.2400016784668,58.233001708984375 -37.05500030517578,23.635000228881836 -37.05500030517578,23.635000228881836 C-37.05500030517578,15.184000015258789 -29.44499969482422,9.269000053405762 -20.64299964904785,7.269000053405762 C-10,4.85099983215332 -2.006999969482422,9.458999633789062 -0.12800000607967377,11.524999618530273 C-0.12800000607967377,11.524999618530273 0.3619999885559082,12.062999725341797 0.3619999885559082,12.062999725341797 C1.0859999656677246,12.857999801635742 2.4100000858306885,12.819999694824219 3.0789999961853027,11.982999801635742 C3.0789999961853027,11.982999801635742 3.0789999961853027,11.982999801635742 3.0789999961853027,11.982999801635742 C6.810999870300293,8.25100040435791 15.388999938964844,5.908999919891357 24.191999435424805,7.269000053405762 C33.64400100708008,8.729000091552734 40.60300064086914,15.184000015258789 40.60300064086914,23.635000228881836 C40.60300064086914,23.635000228881836 40.64500045776367,61.04399871826172 36.2760009765625,67.70899963378906 C34.56399917602539,76.3740005493164 23.966999053955078,98.5530014038086 -5.482999801635742,94.85700225830078z"></path></g></g><g opacity="1" transform="matrix(1,0,0,1,0,0)"><path stroke-linecap="round" stroke-linejoin="round" fill-opacity="0" stroke="rgb(177,5,70)" stroke-opacity="1" stroke-width="8" d=" M1.9040000438690186,12.734000205993652 C1.9040000438690186,12.734000205993652 3.0929999351501465,42 0.703000009059906,46.57899856567383"></path></g></g><g style="display: block;" transform="matrix(1.0049149990081787,-0.0013156163040548563,0.0013023794163018465,0.9950848817825317,256.22723388671875,259.8880615234375)" opacity="1"><g opacity="1" transform="matrix(1,0,0,1,0,0)"><path fill="rgb(255,255,255)" fill-opacity="1" d=" M-40.75699996948242,-67.51000213623047 C-40.75699996948242,-55.58000183105469 -50.426998138427734,-45.909000396728516 -62.356998443603516,-45.909000396728516 C-74.28700256347656,-45.909000396728516 -83.95700073242188,-55.58000183105469 -83.95700073242188,-67.51000213623047 C-83.95700073242188,-79.44000244140625 -74.28700256347656,-89.11000061035156 -62.356998443603516,-89.11000061035156 C-50.426998138427734,-89.11000061035156 -40.75699996948242,-79.44000244140625 -40.75699996948242,-67.51000213623047z"></path></g><g opacity="1" transform="matrix(1,0,0,1,0,0)"><path fill="url(#__lottie_element_4247)" fill-opacity="1" d=" M-42.56800079345703,-71.1520004272461 C-42.56800079345703,-60.222999572753906 -51.428001403808594,-51.362998962402344 -62.356998443603516,-51.362998962402344 C-73.28600311279297,-51.362998962402344 -82.14700317382812,-60.222999572753906 -82.14700317382812,-71.1520004272461 C-82.14700317382812,-82.08100128173828 -73.28600311279297,-90.94200134277344 -62.356998443603516,-90.94200134277344 C-51.428001403808594,-90.94200134277344 -42.56800079345703,-82.08100128173828 -42.56800079345703,-71.1520004272461z"></path></g></g><g style="display: block;" transform="matrix(1.0049149990081787,-0.0013156163040548563,0.0013023794163018465,0.9950848817825317,256.22723388671875,259.8880615234375)" opacity="1"><g opacity="1" transform="matrix(1,0,0,1,0,0)"><path fill="rgb(255,255,255)" fill-opacity="1" d=" M87.0780029296875,-66.5989990234375 C87.0780029296875,-41.983001708984375 67.12300109863281,-22.027999877929688 42.50699996948242,-22.027999877929688 C17.891000747680664,-22.027999877929688 -2.063999891281128,-41.983001708984375 -2.063999891281128,-66.5989990234375 C-2.063999891281128,-91.21499633789062 17.891000747680664,-111.16999816894531 42.50699996948242,-111.16999816894531 C67.12300109863281,-111.16999816894531 87.0780029296875,-91.21499633789062 87.0780029296875,-66.5989990234375z"></path></g><g opacity="1" transform="matrix(1,0,0,1,0,0)"><path fill="url(#__lottie_element_4243)" fill-opacity="1" d=" M85.19200134277344,-71.1520004272461 C85.19200134277344,-47.577999114990234 66.08100128173828,-28.466999053955078 42.50699996948242,-28.466999053955078 C18.933000564575195,-28.466999053955078 -0.17800000309944153,-47.577999114990234 -0.17800000309944153,-71.1520004272461 C-0.17800000309944153,-94.72599792480469 18.933000564575195,-113.83699798583984 42.50699996948242,-113.83699798583984 C66.08100128173828,-113.83699798583984 85.19200134277344,-94.72599792480469 85.19200134277344,-71.1520004272461z"></path></g></g></g></g></svg>