<svg xmlns="http://www.w3.org/2000/svg" viewBox="0 0 512 512" width="512" height="512" style="width: 100%; height: 100%; transform: translate3d(0,0,0);" preserveAspectRatio="xMidYMid meet"><defs><clipPath id="__lottie_element_4308"><rect width="512" height="512" x="0" y="0"></rect></clipPath><clipPath id="__lottie_element_4310"><path d="M0,0 L512,0 L512,512 L0,512z"></path></clipPath><clipPath id="__lottie_element_4346"><path d="M0,0 L512,0 L512,512 L0,512z"></path></clipPath></defs><g clip-path="url(#__lottie_element_4308)"><g clip-path="url(#__lottie_element_4346)" style="display: none;"><g style="display: none;"><g><path></path></g><g><path></path><path stroke-linecap="butt" stroke-linejoin="miter" fill-opacity="0" stroke-miterlimit="10"></path></g><g><path></path></g><g><path></path></g><g><path stroke-linecap="round" stroke-linejoin="round" fill-opacity="0"></path></g><g><path stroke-linecap="round" stroke-linejoin="round" fill-opacity="0"></path></g></g><g style="display: none;"><g><path></path></g><g><path></path></g><g><path></path></g><g><path></path></g></g><g style="display: none;"><g><path></path></g><g><path stroke-linecap="round" stroke-linejoin="round" fill-opacity="0"></path></g></g><g style="display: none;"><g><path></path></g><g><path stroke-linecap="butt" stroke-linejoin="round" fill-opacity="0"></path></g></g><g style="display: none;"><g><path></path></g><g><path></path></g><g><path></path></g><g><path></path></g></g><g style="display: none;"><g><path></path></g><g><path stroke-linecap="round" stroke-linejoin="round" fill-opacity="0"></path></g></g><g style="display: none;"><g><path></path></g><g><path stroke-linecap="butt" stroke-linejoin="round" fill-opacity="0"></path></g></g><g style="display: none;"><g><path></path></g><g><path></path></g><g><path></path></g><g><path></path></g></g></g><g clip-path="url(#__lottie_element_4310)" style="display: block;" transform="matrix(1,0,0,1,0,12)" opacity="1"><g style="display: block;" transform="matrix(1,0,0,1,256,256)" opacity="1"><g opacity="0.1" transform="matrix(1,0,0,1,0,0)"><path fill="rgb(0,0,0)" fill-opacity="1" d=" M196.5229949951172,6.724999904632568 C196.5229949951172,114.98600006103516 108.76000213623047,202.74899291992188 0.49900001287460327,202.74899291992188 C-107.76200103759766,202.74899291992188 -195.5260009765625,114.98600006103516 -195.5260009765625,6.724999904632568 C-195.5260009765625,-101.53600311279297 -107.76200103759766,-189.3000030517578 0.49900001287460327,-189.3000030517578 C108.76000213623047,-189.3000030517578 196.5229949951172,-101.53600311279297 196.5229949951172,6.724999904632568z"></path></g><g opacity="1" transform="matrix(1,0,0,1,0,0)"><path fill="rgb(255,177,57)" fill-opacity="1" d=" M189.37399291992188,-8.274999618530273 C189.37399291992188,96.03800201416016 104.81199645996094,180.60000610351562 0.49900001287460327,180.60000610351562 C-103.81400299072266,180.60000610351562 -188.3769989013672,96.03800201416016 -188.3769989013672,-8.274999618530273 C-188.3769989013672,-112.58799743652344 -103.81400299072266,-197.1510009765625 0.49900001287460327,-197.1510009765625 C104.81199645996094,-197.1510009765625 189.37399291992188,-112.58799743652344 189.37399291992188,-8.274999618530273z"></path><path stroke-linecap="butt" stroke-linejoin="miter" fill-opacity="0" stroke-miterlimit="10" stroke="rgb(247,126,65)" stroke-opacity="1" stroke-width="8" d=" M189.37399291992188,-8.274999618530273 C189.37399291992188,96.03800201416016 104.81199645996094,180.60000610351562 0.49900001287460327,180.60000610351562 C-103.81400299072266,180.60000610351562 -188.3769989013672,96.03800201416016 -188.3769989013672,-8.274999618530273 C-188.3769989013672,-112.58799743652344 -103.81400299072266,-197.1510009765625 0.49900001287460327,-197.1510009765625 C104.81199645996094,-197.1510009765625 189.37399291992188,-112.58799743652344 189.37399291992188,-8.274999618530273z"></path></g><g opacity="1" transform="matrix(1,0,0,1,0,0)"><path fill="rgb(255,209,64)" fill-opacity="1" d=" M168.906005859375,-7.563000202178955 C167.44900512695312,87.46600341796875 90.8949966430664,163.3459930419922 -2.0829999446868896,161.92100524902344 C-95.06099700927734,160.49600219726562 -169.25399780273438,82.30400085449219 -167.7969970703125,-12.723999977111816 C-166.33999633789062,-107.75299835205078 -89.78700256347656,-183.6320037841797 3.190999984741211,-182.20700073242188 C96.16899871826172,-180.78199768066406 170.36300659179688,-102.59200286865234 168.906005859375,-7.563000202178955z"></path></g><g opacity="1" transform="matrix(1,0,0,1,0,0)"><path fill="rgb(255,223,121)" fill-opacity="1" d=" M149.76600646972656,-50.70399856567383 C149.76600646972656,21.93899917602539 82.93699645996094,-35.525001525878906 0.49900001287460327,-35.525001525878906 C-81.93900299072266,-35.525001525878906 -148.7689971923828,21.93899917602539 -148.7689971923828,-50.70399856567383 C-148.7689971923828,-123.34700012207031 -81.93900299072266,-182.23699951171875 0.49900001287460327,-182.23699951171875 C82.93699645996094,-182.23699951171875 149.76600646972656,-123.34700012207031 149.76600646972656,-50.70399856567383z"></path></g><g opacity="1" transform="matrix(1,0,0,1,0,0)"><path stroke-linecap="round" stroke-linejoin="round" fill-opacity="0" stroke="rgb(255,255,255)" stroke-opacity="1" stroke-width="6" d=" M36.87099838256836,-178.01699829101562 C38.409000396728516,-177.6820068359375 40.005001068115234,-177.31199645996094 41.64899826049805,-176.906005859375"></path></g><g opacity="1" transform="matrix(1,0,0,1,0,0)"><path stroke-linecap="round" stroke-linejoin="round" fill-opacity="0" stroke="rgb(255,255,255)" stroke-opacity="1" stroke-width="6" d=" M15.517000198364258,-181.23699951171875 C15.517000198364258,-181.23699951171875 20.384000778198242,-180.9759979248047 28.10700035095215,-179.697998046875"></path></g></g><g style="display: block;" transform="matrix(1,0,0,1,256,256)" opacity="1"><g opacity="1" transform="matrix(1,0,0,1,0,0)"><path fill="rgb(255,226,166)" fill-opacity="1" d=" M155.8209991455078,0.48500001430511475 C155.8209991455078,36.06800079345703 125.5,64.91400146484375 88.09600067138672,64.91400146484375 C50.69200134277344,64.91400146484375 20.3700008392334,36.06800079345703 20.3700008392334,0.48500001430511475 C20.3700008392334,-35.097999572753906 50.69200134277344,-63.944000244140625 88.09600067138672,-63.944000244140625 C125.5,-63.944000244140625 155.8209991455078,-35.097999572753906 155.8209991455078,0.48500001430511475z"></path></g><g opacity="1" transform="matrix(1,0,0,1,0,0)"><path fill="rgb(255,177,57)" fill-opacity="1" d=" M155.8209991455078,-21.514999389648438 C155.8209991455078,14.067999839782715 125.5,42.91400146484375 88.09600067138672,42.91400146484375 C50.69200134277344,42.91400146484375 20.3700008392334,14.067999839782715 20.3700008392334,-21.514999389648438 C20.3700008392334,-57.097999572753906 50.69200134277344,-85.94400024414062 88.09600067138672,-85.94400024414062 C125.5,-85.94400024414062 155.8209991455078,-57.097999572753906 155.8209991455078,-21.514999389648438z"></path></g><g opacity="1" transform="matrix(1,0,0,1,0,0)"><path fill="rgb(211,211,211)" fill-opacity="1" d=" M152.52499389648438,-10.515000343322754 C152.52499389648438,25.06800079345703 123.67900085449219,53.91400146484375 88.09600067138672,53.91400146484375 C52.51300048828125,53.91400146484375 23.66699981689453,25.06800079345703 23.66699981689453,-10.515000343322754 C23.66699981689453,-46.097999572753906 52.51300048828125,-74.94400024414062 88.09600067138672,-74.94400024414062 C123.67900085449219,-74.94400024414062 152.52499389648438,-46.097999572753906 152.52499389648438,-10.515000343322754z"></path></g><g opacity="1" transform="matrix(1,0,0,1,0,0)"><path fill="rgb(238,238,239)" fill-opacity="1" d=" M141.43299865722656,-18.07900047302246 C141.43299865722656,11.378000259399414 117.5530014038086,35.25899887084961 88.09600067138672,35.25899887084961 C58.638999938964844,35.25899887084961 34.757999420166016,11.378000259399414 34.757999420166016,-18.07900047302246 C34.757999420166016,-47.5359992980957 58.638999938964844,-71.41600036621094 88.09600067138672,-71.41600036621094 C117.5530014038086,-71.41600036621094 141.43299865722656,-47.5359992980957 141.43299865722656,-18.07900047302246z"></path></g></g><g style="display: block;" transform="matrix(1,0,0,1,255.99945068359375,256.5)" opacity="1"><g opacity="1" transform="matrix(1,0,0,1,0,0)"><path fill="rgb(1,1,1)" fill-opacity="1" d=" M109.6510009765625,-51.28300094604492 C109.6510009765625,-38.82699966430664 100,-28.729000091552734 88.09600067138672,-28.729000091552734 C76.19200134277344,-28.729000091552734 66.54100036621094,-38.82699966430664 66.54100036621094,-51.28300094604492 C66.54100036621094,-63.73899841308594 76.19200134277344,-73.83699798583984 88.09600067138672,-73.83699798583984 C100,-73.83699798583984 109.6510009765625,-63.73899841308594 109.6510009765625,-51.28300094604492z"></path></g><g opacity="1" transform="matrix(1,0,0,1,0,0)"><path stroke-linecap="round" stroke-linejoin="round" fill-opacity="0" stroke="rgb(255,255,255)" stroke-opacity="1" stroke-width="6" d=" M106.92900085449219,-52.75899887084961 C108.43599700927734,-52.305999755859375 109.99800109863281,-51.814998626708984 111.60600280761719,-51.28300094604492"></path></g></g><g style="display: block;" transform="matrix(1,0,0,1,256,256)" opacity="1"><g opacity="0.35000000000000003" transform="matrix(1,0,0,1,0,0)"><path fill="rgb(255,255,255)" fill-opacity="1" d=" M152.5260009765625,-10.510000228881836 C152.5260009765625,-7.25 152.28599548339844,-4.050000190734863 151.8159942626953,-0.9300000071525574 C147.18600463867188,-31.969999313354492 120.41600036621094,-55.779998779296875 88.09600067138672,-55.779998779296875 C55.76599884033203,-55.779998779296875 28.996000289916992,-31.969999313354492 24.375999450683594,-0.9300000071525574 C23.9060001373291,-4.050000190734863 23.666000366210938,-7.25 23.666000366210938,-10.510000228881836 C23.666000366210938,-46.099998474121094 52.50600051879883,-74.94000244140625 88.09600067138672,-74.94000244140625 C123.6760025024414,-74.94000244140625 152.5260009765625,-46.099998474121094 152.5260009765625,-10.510000228881836z"></path></g><g opacity="1" transform="matrix(1,0,0,1,0,0)"><path stroke-linecap="butt" stroke-linejoin="round" fill-opacity="0" stroke="rgb(145,129,89)" stroke-opacity="1" stroke-width="6" d=" M152.52499389648438,-10.515000343322754 C152.52499389648438,25.06800079345703 123.67900085449219,53.91400146484375 88.09600067138672,53.91400146484375 C52.51300048828125,53.91400146484375 23.66699981689453,25.06800079345703 23.66699981689453,-10.515000343322754 C23.66699981689453,-46.097999572753906 52.51300048828125,-74.94400024414062 88.09600067138672,-74.94400024414062 C123.67900085449219,-74.94400024414062 152.52499389648438,-46.097999572753906 152.52499389648438,-10.515000343322754z"></path></g></g><g style="display: block;" transform="matrix(1,0,0,1,256,256)" opacity="1"><g opacity="1" transform="matrix(1,0,0,1,0,0)"><path fill="rgb(255,226,166)" fill-opacity="1" d=" M-19.57200050354004,0.48500001430511475 C-19.57200050354004,36.06800079345703 -49.80500030517578,64.91400146484375 -87.0989990234375,64.91400146484375 C-124.39299774169922,64.91400146484375 -154.625,36.06800079345703 -154.625,0.48500001430511475 C-154.625,-35.097999572753906 -124.39299774169922,-63.944000244140625 -87.0989990234375,-63.944000244140625 C-49.80500030517578,-63.944000244140625 -19.57200050354004,-35.097999572753906 -19.57200050354004,0.48500001430511475z"></path></g><g opacity="1" transform="matrix(1,0,0,1,0,0)"><path fill="rgb(255,177,57)" fill-opacity="1" d=" M-19.57200050354004,-21.514999389648438 C-19.57200050354004,14.067999839782715 -49.80500030517578,42.91400146484375 -87.0989990234375,42.91400146484375 C-124.39299774169922,42.91400146484375 -154.625,14.067999839782715 -154.625,-21.514999389648438 C-154.625,-57.097999572753906 -124.39299774169922,-85.94400024414062 -87.0989990234375,-85.94400024414062 C-49.80500030517578,-85.94400024414062 -19.57200050354004,-57.097999572753906 -19.57200050354004,-21.514999389648438z"></path></g><g opacity="1" transform="matrix(1,0,0,1,0,0)"><path fill="rgb(211,211,211)" fill-opacity="1" d=" M-22.670000076293945,-10.515000343322754 C-22.670000076293945,25.06800079345703 -51.51599884033203,53.91400146484375 -87.0989990234375,53.91400146484375 C-122.68199920654297,53.91400146484375 -151.5279998779297,25.06800079345703 -151.5279998779297,-10.515000343322754 C-151.5279998779297,-46.097999572753906 -122.68199920654297,-74.94400024414062 -87.0989990234375,-74.94400024414062 C-51.51599884033203,-74.94400024414062 -22.670000076293945,-46.097999572753906 -22.670000076293945,-10.515000343322754z"></path></g><g opacity="1" transform="matrix(1,0,0,1,0,0)"><path fill="rgb(238,238,239)" fill-opacity="1" d=" M-33.76100158691406,-18.07900047302246 C-33.76100158691406,11.378000259399414 -57.641998291015625,35.25899887084961 -87.0989990234375,35.25899887084961 C-116.55599975585938,35.25899887084961 -140.43600463867188,11.378000259399414 -140.43600463867188,-18.07900047302246 C-140.43600463867188,-47.5359992980957 -116.55599975585938,-71.41600036621094 -87.0989990234375,-71.41600036621094 C-57.641998291015625,-71.41600036621094 -33.76100158691406,-47.5359992980957 -33.76100158691406,-18.07900047302246z"></path></g></g><g style="display: block;" transform="matrix(1,0,0,1,255.99945068359375,256.5)" opacity="1"><g opacity="1" transform="matrix(1,0,0,1,0,0)"><path fill="rgb(1,1,1)" fill-opacity="1" d=" M-65.54399871826172,-51.28300094604492 C-65.54399871826172,-38.82699966430664 -75.19499969482422,-28.729000091552734 -87.0989990234375,-28.729000091552734 C-99.00299835205078,-28.729000091552734 -108.65399932861328,-38.82699966430664 -108.65399932861328,-51.28300094604492 C-108.65399932861328,-63.73899841308594 -99.00299835205078,-73.83699798583984 -87.0989990234375,-73.83699798583984 C-75.19499969482422,-73.83699798583984 -65.54399871826172,-63.73899841308594 -65.54399871826172,-51.28300094604492z"></path></g><g opacity="1" transform="matrix(1,0,0,1,0,0)"><path stroke-linecap="round" stroke-linejoin="round" fill-opacity="0" stroke="rgb(255,255,255)" stroke-opacity="1" stroke-width="6" d=" M-69.27100372314453,-53.57600021362305 C-67.76399993896484,-53.12300109863281 -66.2020034790039,-52.63199996948242 -64.59400177001953,-52.099998474121094"></path></g></g><g style="display: block;" transform="matrix(1,0,0,1,256,256)" opacity="1"><g opacity="0.35000000000000003" transform="matrix(1,0,0,1,0,0)"><path fill="rgb(255,255,255)" fill-opacity="1" d=" M-22.665000915527344,-10.510000228881836 C-22.665000915527344,-7.25 -22.905000686645508,-4.050000190734863 -23.375,-0.9300000071525574 C-28.0049991607666,-31.969999313354492 -54.775001525878906,-55.779998779296875 -87.09500122070312,-55.779998779296875 C-119.42500305175781,-55.779998779296875 -146.19500732421875,-31.969999313354492 -150.81500244140625,-0.9300000071525574 C-151.28500366210938,-4.050000190734863 -151.52499389648438,-7.25 -151.52499389648438,-10.510000228881836 C-151.52499389648438,-46.099998474121094 -122.68499755859375,-74.94000244140625 -87.09500122070312,-74.94000244140625 C-51.51499938964844,-74.94000244140625 -22.665000915527344,-46.099998474121094 -22.665000915527344,-10.510000228881836z"></path></g><g opacity="1" transform="matrix(1,0,0,1,0,0)"><path stroke-linecap="butt" stroke-linejoin="round" fill-opacity="0" stroke="rgb(145,129,89)" stroke-opacity="1" stroke-width="6" d=" M-22.670000076293945,-10.515000343322754 C-22.670000076293945,25.06800079345703 -51.51599884033203,53.91400146484375 -87.0989990234375,53.91400146484375 C-122.68199920654297,53.91400146484375 -151.5279998779297,25.06800079345703 -151.5279998779297,-10.515000343322754 C-151.5279998779297,-46.097999572753906 -122.68199920654297,-74.94400024414062 -87.0989990234375,-74.94400024414062 C-51.51599884033203,-74.94400024414062 -22.670000076293945,-46.097999572753906 -22.670000076293945,-10.515000343322754z"></path></g></g><g style="display: block;" transform="matrix(1,0,0,1,256,256)" opacity="1"><g opacity="1" transform="matrix(1,0,0,1,0,0)"><path fill="rgb(255,177,57)" fill-opacity="1" d=" M31.113000869750977,118.26799774169922 C31.113000869750977,118.26799774169922 -30.115999221801758,118.26799774169922 -30.115999221801758,118.26799774169922 C-35.55400085449219,118.26799774169922 -40.00299835205078,114.2040023803711 -40.00299835205078,109.23799896240234 C-40.00299835205078,109.23799896240234 -40.00299835205078,105.61399841308594 -40.00299835205078,105.61399841308594 C-40.00299835205078,100.64800262451172 -35.55400085449219,96.58399963378906 -30.115999221801758,96.58399963378906 C-30.115999221801758,96.58399963378906 31.113000869750977,96.58399963378906 31.113000869750977,96.58399963378906 C36.55099868774414,96.58399963378906 41,100.64800262451172 41,105.61399841308594 C41,105.61399841308594 41,109.23799896240234 41,109.23799896240234 C41,114.2040023803711 36.55099868774414,118.26799774169922 31.113000869750977,118.26799774169922z"></path></g><g opacity="1" transform="matrix(1,0,0,1,0,0)"><path fill="rgb(255,226,166)" fill-opacity="1" d=" M31.113000869750977,123.5 C31.113000869750977,123.5 -30.115999221801758,123.5 -30.115999221801758,123.5 C-35.55400085449219,123.5 -40.00299835205078,119.43599700927734 -40.00299835205078,114.47000122070312 C-40.00299835205078,114.47000122070312 -40.00299835205078,110.84600067138672 -40.00299835205078,110.84600067138672 C-40.00299835205078,105.87999725341797 -35.55400085449219,101.81700134277344 -30.115999221801758,101.81700134277344 C-30.115999221801758,101.81700134277344 31.113000869750977,101.81700134277344 31.113000869750977,101.81700134277344 C36.55099868774414,101.81700134277344 41,105.87999725341797 41,110.84600067138672 C41,110.84600067138672 41,114.47000122070312 41,114.47000122070312 C41,119.43599700927734 36.55099868774414,123.5 31.113000869750977,123.5z"></path></g><g opacity="1" transform="matrix(1,0,0,1,0,0)"><path fill="rgb(134,63,20)" fill-opacity="1" d=" M29.808000564575195,118.40899658203125 C29.808000564575195,118.40899658203125 -28.81100082397461,118.40899658203125 -28.81100082397461,118.40899658203125 C-34.249000549316406,118.40899658203125 -38.69900131225586,114.34600067138672 -38.69900131225586,109.37999725341797 C-38.69900131225586,109.37999725341797 -38.69900131225586,109.37999725341797 -38.69900131225586,109.37999725341797 C-38.69900131225586,104.41400146484375 -34.249000549316406,100.3499984741211 -28.81100082397461,100.3499984741211 C-28.81100082397461,100.3499984741211 29.808000564575195,100.3499984741211 29.808000564575195,100.3499984741211 C35.24599838256836,100.3499984741211 39.69599914550781,104.41400146484375 39.69599914550781,109.37999725341797 C39.69599914550781,109.37999725341797 39.69599914550781,109.37999725341797 39.69599914550781,109.37999725341797 C39.69599914550781,114.34600067138672 35.24599838256836,118.40899658203125 29.808000564575195,118.40899658203125z"></path></g><g opacity="1" transform="matrix(1,0,0,1,0,0)"><path fill="rgb(107,32,0)" fill-opacity="1" d=" M39.69300079345703,109.38200378417969 C39.69300079345703,110.39399719238281 39.512001037597656,111.37100219726562 39.167999267578125,112.27799987792969 C37.840999603271484,108.71099853515625 34.13600158691406,106.12999725341797 29.809999465942383,106.12999725341797 C29.809999465942383,106.12999725341797 -28.81100082397461,106.12999725341797 -28.81100082397461,106.12999725341797 C-31.533000946044922,106.12999725341797 -33.99800109863281,107.14399719238281 -35.79100036621094,108.78099822998047 C-36.86000061035156,109.75800323486328 -37.68199920654297,110.94400024414062 -38.16899871826172,112.27799987792969 C-38.51300048828125,111.37100219726562 -38.694000244140625,110.39399719238281 -38.694000244140625,109.38200378417969 C-38.694000244140625,106.89700317382812 -37.58599853515625,104.63800048828125 -35.79100036621094,102.9990005493164 C-34.005001068115234,101.36799621582031 -31.533000946044922,100.3479995727539 -28.81100082397461,100.3479995727539 C-28.81100082397461,100.3479995727539 29.809999465942383,100.3479995727539 29.809999465942383,100.3479995727539 C35.24300003051758,100.3479995727539 39.69300079345703,104.41100311279297 39.69300079345703,109.38200378417969z"></path></g></g></g></g></svg>