<svg xmlns="http://www.w3.org/2000/svg" viewBox="0 0 512 512" width="512" height="512" style="width: 100%; height: 100%; transform: translate3d(0,0,0);" preserveAspectRatio="xMidYMid meet"><defs><clipPath id="__lottie_element_4382"><rect width="512" height="512" x="0" y="0"></rect></clipPath><linearGradient id="__lottie_element_4395" spreadMethod="pad" gradientUnits="userSpaceOnUse" x1="55.018001556396484" y1="168" x2="52.5099983215332" y2="118.85299682617188"><stop offset="6%" stop-color="rgb(135,227,255)"></stop><stop offset="64%" stop-color="rgb(195,241,255)"></stop><stop offset="100%" stop-color="rgb(255,255,255)"></stop></linearGradient></defs><g clip-path="url(#__lottie_element_4382)"><g style="display: block;" transform="matrix(1,0,0,1,256,256)" opacity="1"><g opacity="0.1" transform="matrix(1,0,0,1,0,0)"><path fill="rgb(0,0,0)" fill-opacity="1" d=" M195.92300415039062,10.781999588012695 C195.92300415039062,119.04299926757812 108.15899658203125,206.80599975585938 -0.10199999809265137,206.80599975585938 C-108.36299896240234,206.80599975585938 -196.12600708007812,119.04299926757812 -196.12600708007812,10.781999588012695 C-196.12600708007812,-97.47899627685547 -108.36299896240234,-185.2429962158203 -0.10199999809265137,-185.2429962158203 C108.15899658203125,-185.2429962158203 195.92300415039062,-97.47899627685547 195.92300415039062,10.781999588012695z"></path></g><g opacity="1" transform="matrix(1,0,0,1,0,0)"><path fill="rgb(255,173,0)" fill-opacity="1" d=" M188.7740020751953,-4.2179999351501465 C188.7740020751953,100.09500122070312 104.21199798583984,184.65699768066406 -0.10100000351667404,184.65699768066406 C-104.41400146484375,184.65699768066406 -188.9770050048828,100.09500122070312 -188.9770050048828,-4.2179999351501465 C-188.9770050048828,-108.53099822998047 -104.41400146484375,-193.093994140625 -0.10100000351667404,-193.093994140625 C104.21199798583984,-193.093994140625 188.7740020751953,-108.53099822998047 188.7740020751953,-4.2179999351501465z"></path></g><g opacity="1" transform="matrix(1,0,0,1,0,0)"><path fill="rgb(255,207,0)" fill-opacity="1" d=" M168.30599975585938,-3.50600004196167 C166.8489990234375,91.52200317382812 90.29499816894531,167.4029998779297 -2.683000087738037,165.97799682617188 C-95.66100311279297,164.55299377441406 -169.85299682617188,86.36199951171875 -168.39700317382812,-8.666999816894531 C-166.94000244140625,-103.69599914550781 -90.38600158691406,-179.5749969482422 2.5920000076293945,-178.14999389648438 C95.56999969482422,-176.72500610351562 169.76300048828125,-98.53500366210938 168.30599975585938,-3.50600004196167z"></path></g><g opacity="0.9" transform="matrix(1,0,0,1,0,0)"><path fill="rgb(255,222,102)" fill-opacity="1" d=" M149.16600036621094,-46.64699935913086 C149.16600036621094,25.996000289916992 82.33699798583984,-31.468000411987305 -0.10100000351667404,-31.468000411987305 C-82.53900146484375,-31.468000411987305 -149.36900329589844,25.996000289916992 -149.36900329589844,-46.64699935913086 C-149.36900329589844,-119.29000091552734 -82.53900146484375,-178.1790008544922 -0.10100000351667404,-178.1790008544922 C82.33699798583984,-178.1790008544922 149.16600036621094,-119.29000091552734 149.16600036621094,-46.64699935913086z"></path></g><g opacity="1" transform="matrix(1,0,0,1,0,0)"><g opacity="1" transform="matrix(1,0,0,1,0,0)"><path stroke-linecap="round" stroke-linejoin="round" fill-opacity="0" stroke="rgb(255,255,255)" stroke-opacity="1" stroke-width="6" d=" M36.270999908447266,-173.9600067138672 C37.808998107910156,-173.625 39.40399932861328,-173.2550048828125 41.04899978637695,-172.8489990234375"></path></g><g opacity="1" transform="matrix(1,0,0,1,0,0)"><path stroke-linecap="round" stroke-linejoin="round" fill-opacity="0" stroke="rgb(255,255,255)" stroke-opacity="1" stroke-width="6" d=" M14.916999816894531,-177.1790008544922 C14.916999816894531,-177.1790008544922 19.784000396728516,-176.91900634765625 27.506999969482422,-175.64100646972656"></path></g></g><g opacity="1" transform="matrix(1,0,0,1,0,0)"><path stroke-linecap="butt" stroke-linejoin="miter" fill-opacity="0" stroke-miterlimit="10" stroke="rgb(255,118,42)" stroke-opacity="1" stroke-width="8" d=" M188.7740020751953,-4.2179999351501465 C188.7740020751953,100.09500122070312 104.21199798583984,184.65699768066406 -0.10100000351667404,184.65699768066406 C-104.41400146484375,184.65699768066406 -188.9770050048828,100.09500122070312 -188.9770050048828,-4.2179999351501465 C-188.9770050048828,-108.53099822998047 -104.41400146484375,-193.093994140625 -0.10100000351667404,-193.093994140625 C104.21199798583984,-193.093994140625 188.7740020751953,-108.53099822998047 188.7740020751953,-4.2179999351501465z"></path></g></g><g style="display: block;" transform="matrix(1,0,0,1,256,255.99899291992188)" opacity="1"><g opacity="1" transform="matrix(1,0,0,1,0,0)"><path fill="rgb(255,237,182)" fill-opacity="1" d=" M-49.33300018310547,-84.31400299072266 C-48.24399948120117,-101.16000366210938 -75.46499633789062,-98.48200225830078 -100.98100280761719,-84.78600311279297 C-125.66699981689453,-71.53500366210938 -142.2779998779297,-47.9370002746582 -137.13499450683594,-43.17399978637695 C-132.8990020751953,-39.250999450683594 -128.41200256347656,-52.30400085449219 -97.99400329589844,-68.98899841308594 C-74.45700073242188,-81.9000015258789 -49.8390007019043,-76.48699951171875 -49.33300018310547,-84.31400299072266z"></path></g><g opacity="1" transform="matrix(1,0,0,1,0,0)"><path fill="rgb(143,58,0)" fill-opacity="1" d=" M-50.5369987487793,-88.00599670410156 C-49.900001525878906,-98.20500183105469 -75.46499633789062,-102.48200225830078 -100.98100280761719,-88.78600311279297 C-125.66699981689453,-75.53500366210938 -140.55999755859375,-50.11000061035156 -137.13499450683594,-47.17399978637695 C-132.7519989013672,-43.41699981689453 -128.41200256347656,-57.30400085449219 -97.99400329589844,-73.98899841308594 C-74.45700073242188,-86.9000015258789 -51.0260009765625,-80.1780014038086 -50.5369987487793,-88.00599670410156z"></path></g><g opacity="1" transform="matrix(1,0,0,1,0,0)"><path fill="rgb(107,32,0)" fill-opacity="1" d=" M-51.09199905395508,-86.38999938964844 C-54.94200134277344,-94.43000030517578 -77.98200225830078,-96.68000030517578 -100.98200225830078,-84.33999633789062 C-120.61199951171875,-73.80000305175781 -134.052001953125,-55.560001373291016 -137.0019989013672,-47.060001373291016 C-137.04200744628906,-47.099998474121094 -137.0919952392578,-47.130001068115234 -137.1320037841797,-47.16999816894531 C-140.56199645996094,-50.11000061035156 -125.66200256347656,-75.54000091552734 -100.98200225830078,-88.79000091552734 C-75.46199798583984,-102.4800033569336 -46.91899871826172,-98.75 -51.09199905395508,-86.38999938964844z"></path></g></g><g style="display: block;" transform="matrix(1,0,0,1,256,255.99899291992188)" opacity="1"><g opacity="1" transform="matrix(1,0,0,1,0,0)"><path fill="rgb(255,237,182)" fill-opacity="1" d=" M47.87099838256836,-105.64399719238281 C47.435001373291016,-122.51899719238281 74.53199768066406,-118.78900146484375 99.4990005493164,-104.11499786376953 C123.65299987792969,-89.91799926757812 139.33799743652344,-65.69400024414062 134.01400756835938,-61.13399887084961 C129.62899780273438,-57.37799835205078 125.6510009765625,-70.59500122070312 95.9020004272461,-88.44599914550781 C72.88300323486328,-102.25800323486328 48.07400131225586,-97.8030014038086 47.87099838256836,-105.64399719238281z"></path></g><g opacity="1" transform="matrix(1,0,0,1,0,0)"><path fill="rgb(143,58,0)" fill-opacity="1" d=" M49.21699905395508,-109.28600311279297 C48.974998474121094,-119.50199890136719 74.68699645996094,-122.78600311279297 99.65399932861328,-108.11199951171875 C123.80799865722656,-93.91500091552734 137.70399475097656,-67.93199920654297 134.16799926757812,-65.13099670410156 C129.64199829101562,-61.54600143432617 125.84500122070312,-75.59100341796875 96.09600067138672,-93.44200134277344 C73.0770034790039,-107.25399780273438 49.40299987792969,-101.44499969482422 49.21699905395508,-109.28600311279297z"></path></g><g opacity="1" transform="matrix(1,0,0,1,0,0)"><path fill="rgb(107,32,0)" fill-opacity="1" d=" M49.70899963378906,-107.6500015258789 C53.867000579833984,-115.53500366210938 76.97699737548828,-116.89099884033203 99.48200225830078,-103.66899871826172 C118.68900299072266,-92.37699890136719 131.41299438476562,-73.62999725341797 134.031005859375,-65.02200317382812 C134.072998046875,-65.05999755859375 134.12399291992188,-65.08899688720703 134.16600036621094,-65.12699890136719 C137.70700073242188,-67.93199920654297 123.8030014038086,-93.91999816894531 99.65499877929688,-108.11599731445312 C74.68399810791016,-122.78399658203125 46.143001556396484,-120.125 49.70899963378906,-107.6500015258789z"></path></g></g><g style="display: block;" transform="matrix(1,0,0,1,255.99899291992188,256)" opacity="1"><g opacity="1" transform="matrix(1,0,0,1,0,0)"><g opacity="1" transform="matrix(1,0,0,1,0,0)"><path fill="rgb(255,225,156)" fill-opacity="1" d=" M-41.53499984741211,-34.84000015258789 C-44.88600158691406,-47.07699966430664 -67.73300170898438,-42.191001892089844 -83.37300109863281,-30.895999908447266 C-99.01300048828125,-19.60099983215332 -109.99199676513672,-5.498000144958496 -102.08599853515625,-0.1720000058412552 C-95.4520034790039,4.296999931335449 -89.125,-4.695000171661377 -76.12100219726562,-10.597999572753906 C-59.2130012512207,-18.27400016784668 -36.82400131225586,-17.636999130249023 -41.53499984741211,-34.84000015258789z"></path></g><g opacity="1" transform="matrix(1,0,0,1,0,0)"><path fill="rgb(255,173,0)" fill-opacity="1" d=" M-42.994998931884766,-38.617000579833984 C-46.65599822998047,-52.652000427246094 -67.73300170898438,-51.191001892089844 -83.37300109863281,-39.895999908447266 C-99.01300048828125,-28.60099983215332 -112.49400329589844,-12.487000465393066 -103.75599670410156,-3.984999895095825 C-98.85299682617188,0.7860000133514404 -90.125,-14.694999694824219 -77.12100219726562,-20.597999572753906 C-60.2130012512207,-28.27400016784668 -39.145999908447266,-23.858999252319336 -42.994998931884766,-38.617000579833984z"></path></g><g opacity="1" transform="matrix(1,0,0,1,0,0)"><path fill="rgb(143,58,0)" fill-opacity="1" d=" M-43.98400115966797,-37.2130012512207 C-48.595001220703125,-48.11000061035156 -67.73300170898438,-46.191001892089844 -83.37300109863281,-34.895999908447266 C-99.01300048828125,-23.60099983215332 -109.88600158691406,-8.574000358581543 -102.77799987792969,-3.006999969482422 C-97.39199829101562,1.2109999656677246 -90.125,-9.694999694824219 -77.12100219726562,-15.597999572753906 C-60.2130012512207,-23.27400016784668 -38.040000915527344,-23.16699981689453 -43.98400115966797,-37.2130012512207z"></path></g><g opacity="1" transform="matrix(1,0,0,1,0,0)"><path fill="rgb(107,32,0)" fill-opacity="1" d=" M-43.36800003051758,-30.71299934387207 C-47.97800064086914,-41.612998962402344 -67.73100280761719,-40.78799819946289 -83.37100219726562,-29.488000869750977 C-94.07099914550781,-21.76799964904785 -102.53099822998047,-12.29800033569336 -104.54100036621094,-5.297999858856201 C-107.3010025024414,-12.008000373840332 -97.20099639892578,-24.908000946044922 -83.37100219726562,-34.89799880981445 C-67.73100280761719,-46.1879997253418 -48.590999603271484,-48.108001708984375 -43.98099899291992,-37.20800018310547 C-42.82099914550781,-34.45800018310547 -42.77899932861328,-32.5 -43.36800003051758,-30.71299934387207z"></path></g></g><g opacity="1" transform="matrix(1,0,0,1,0,0)"><g opacity="1" transform="matrix(1,0,0,1,0,0)"><path fill="rgb(255,225,156)" fill-opacity="1" d=" M41.332000732421875,-34.84000015258789 C44.68299865722656,-47.07699966430664 67.52999877929688,-42.191001892089844 83.16999816894531,-30.895999908447266 C98.80999755859375,-19.60099983215332 109.78900146484375,-5.498000144958496 101.88300323486328,-0.1720000058412552 C95.2490005493164,4.296999931335449 88.9219970703125,-4.695000171661377 75.91799926757812,-10.597999572753906 C59.0099983215332,-18.27400016784668 36.62099838256836,-17.636999130249023 41.332000732421875,-34.84000015258789z"></path></g><g opacity="1" transform="matrix(1,0,0,1,0,0)"><path fill="rgb(255,173,0)" fill-opacity="1" d=" M42.792999267578125,-38.617000579833984 C46.45399856567383,-52.652000427246094 67.52999877929688,-51.191001892089844 83.16999816894531,-39.895999908447266 C98.80999755859375,-28.60099983215332 112.29100036621094,-12.487000465393066 103.5530014038086,-3.984999895095825 C98.6500015258789,0.7860000133514404 89.9219970703125,-14.694999694824219 76.91799926757812,-20.597999572753906 C60.0099983215332,-28.27400016784668 38.944000244140625,-23.858999252319336 42.792999267578125,-38.617000579833984z"></path></g><g opacity="1" transform="matrix(1,0,0,1,0,0)"><path fill="rgb(143,58,0)" fill-opacity="1" d=" M43.78099822998047,-37.2130012512207 C48.391998291015625,-48.11000061035156 67.52999877929688,-46.191001892089844 83.16999816894531,-34.895999908447266 C98.80999755859375,-23.60099983215332 109.68299865722656,-8.574000358581543 102.57499694824219,-3.006999969482422 C97.18900299072266,1.2109999656677246 89.9219970703125,-9.694999694824219 76.91799926757812,-15.597999572753906 C60.0099983215332,-23.27400016784668 37.83700180053711,-23.16699981689453 43.78099822998047,-37.2130012512207z"></path></g><g opacity="1" transform="matrix(1,0,0,1,0,0)"><path fill="rgb(107,32,0)" fill-opacity="1" d=" M43.11399841308594,-30.867000579833984 C47.7239990234375,-41.766998291015625 67.52799987792969,-40.78799819946289 83.16799926757812,-29.488000869750977 C93.86799621582031,-21.76799964904785 102.3280029296875,-12.29800033569336 104.33799743652344,-5.297999858856201 C107.0979995727539,-12.008000373840332 96.99800109863281,-24.908000946044922 83.16799926757812,-34.89799880981445 C67.52799987792969,-46.1879997253418 48.38800048828125,-48.108001708984375 43.77799987792969,-37.20800018310547 C42.61800003051758,-34.45800018310547 42.79600143432617,-32.731998443603516 43.11399841308594,-30.867000579833984z"></path></g></g></g><g style="display: block;" transform="matrix(1,0,0,1,256,255.99899291992188)" opacity="1"><g opacity="1" transform="matrix(1,0,0,1,0,0)"><path fill="rgb(255,225,156)" fill-opacity="1" d=" M-2.25,94.50499725341797 C-43.24800109863281,93.5790023803711 -71.0469970703125,76.61199951171875 -84.94300079345703,71.2750015258789 C-94.40899658203125,67.63999938964844 -93.7699966430664,83.9260025024414 -83.35600280761719,92.80799865722656 C-72.94200134277344,101.69000244140625 -49.33700180053711,121.90699768066406 -0.5649999976158142,124.25700378417969 C52.303001403808594,126.80400085449219 98.0260009765625,101.87000274658203 90.05699920654297,81.08300018310547 C86.74800109863281,72.4520034790039 78.43800354003906,96.3280029296875 -2.25,94.50499725341797z"></path></g><g opacity="1" transform="matrix(1,0,0,1,0,0)"><path fill="rgb(255,173,0)" fill-opacity="1" d=" M-2,83.37999725341797 C-42.99800109863281,82.4540023803711 -67.72100067138672,72.38899993896484 -81.61699676513672,67.052001953125 C-91.08300018310547,63.41699981689453 -95.40699768066406,76.41500091552734 -84.99299621582031,85.2969970703125 C-74.5790023803711,94.17900085449219 -49.33700180053711,110.90699768066406 -0.5649999976158142,113.25700378417969 C35.11899948120117,114.97599792480469 69.72599792480469,106.41500091552734 83.66699981689453,94.53099822998047 C91.37100219726562,87.96399688720703 91.59200286865234,79.36799621582031 87.45099639892578,75.85299682617188 C80.40399932861328,69.87100219726562 78.68800354003906,85.2030029296875 -2,83.37999725341797z"></path></g><g opacity="1" transform="matrix(1,0,0,1,0,0)"><path fill="rgb(143,58,0)" fill-opacity="1" d=" M-2,89.00499725341797 C-42.99800109863281,88.0790023803711 -67.72100067138672,77.38899993896484 -81.61699676513672,72.052001953125 C-91.08300018310547,68.41699981689453 -93.7699966430664,77.9260025024414 -83.35600280761719,86.80799865722656 C-72.94200134277344,95.69000244140625 -49.33700180053711,115.90699768066406 -0.5649999976158142,118.25700378417969 C52.303001403808594,120.80400085449219 100.19100189208984,91.66799926757812 87.45099639892578,80.85299682617188 C80.40399932861328,74.87100219726562 78.68800354003906,90.8280029296875 -2,89.00499725341797z"></path></g><g opacity="1" transform="matrix(1,0,0,1,0,0)"><path fill="rgb(107,32,0)" fill-opacity="1" d=" M88.53800201416016,88.63999938964844 C83.92400360107422,79.90599822998047 78.43800354003906,97.68000030517578 -2.252000093460083,95.86000061035156 C-43.25199890136719,94.93000030517578 -67.72200012207031,83.98999786376953 -81.62200164794922,78.66000366210938 C-85.25199890136719,77.26000213623047 -87.89199829101562,77.80000305175781 -89.16200256347656,79.51000213623047 C-91.73200225830078,73.62999725341797 -88.43199920654297,69.44000244140625 -81.62200164794922,72.05000305175781 C-67.72200012207031,77.38999938964844 -42.87699890136719,88.08000183105469 -1.8769999742507935,89.01000213623047 C78.81300354003906,90.83000183105469 80.40799713134766,74.87000274658203 87.447998046875,80.8499984741211 C89.85800170898438,82.9000015258789 90.0979995727539,85.61000061035156 88.53800201416016,88.63999938964844z"></path></g></g><g style="display: block;" transform="matrix(1,0,0,1,255.27999877929688,255.2429962158203)" opacity="1"><g opacity="1" transform="matrix(1,0,0,1,0,0)"><path fill="rgb(0,202,255)" fill-opacity="1" d=" M78.68299865722656,167.13600158691406 C83.22699737548828,177.52099609375 78.75800323486328,187.8470001220703 68.6510009765625,187.99000549316406 C60.8129997253418,188.1009979248047 54.58399963378906,180.98300170898438 57.069000244140625,169.45700073242188 C60.19599914550781,154.9550018310547 64.0479965209961,147.39700317382812 59.957000732421875,129.8769989013672 C57.650001525878906,119.99400329589844 45.91999816894531,123.75900268554688 46.25699996948242,130.45399475097656 C46.37099838256836,132.71800231933594 51.49399948120117,150.4219970703125 37.75600051879883,149.5749969482422 C16.26799964904785,148.25 40.893001556396484,122.125 22.17799949645996,116.26300048828125 C34.10599899291992,115.8030014038086 45.64699935913086,113.68099975585938 56.154998779296875,109.65599822998047 C66.2699966430664,105.78199768066406 75.427001953125,100.1449966430664 83.05400085449219,92.53099822998047 C84.9749984741211,102.63300323486328 61.85100173950195,128.66600036621094 78.68299865722656,167.13600158691406z"></path></g><g opacity="0.9" transform="matrix(1,0,0,1,0,0)"><path fill="url(#__lottie_element_4395)" fill-opacity="1" d=" M33.382999420166016,133.83200073242188 C33.53499984741211,136.56500244140625 35.01300048828125,139.47900390625 38.98500061035156,139.10000610351562 C42.08000183105469,138.80499267578125 43.130001068115234,136.82699584960938 43.40999984741211,133.83200073242188 C44.518001556396484,122 58.11000061035156,118.54399871826172 59.957000732421875,129.8769989013672 C61.80400085449219,141.2100067138672 64.60399627685547,152.6580047607422 62.000999450683594,164.1959991455078 C58.73400115966797,178.67999267578125 77.72000122070312,176.43899536132812 74.01699829101562,164.78700256347656 C70.79199981689453,154.63699340820312 71.81999969482422,129.1199951171875 75.41699981689453,119.22599792480469 C79.01399993896484,109.33200073242188 83.31099700927734,94.4520034790039 83.31099700927734,94.4520034790039 C83.31099700927734,94.4520034790039 77.66200256347656,98.99600219726562 67.31199645996094,103.98400115966797 C56.79199981689453,109.05400085449219 41.41600036621094,114.58300018310547 22.17799949645996,116.26300048828125 C22.17799949645996,116.26300048828125 32.683998107910156,121.25 33.382999420166016,133.83200073242188z"></path></g><g opacity="1" transform="matrix(1,0,0,1,0,0)"><path fill="rgb(255,255,255)" fill-opacity="1" d=" M70.30799865722656,169.06199645996094 C70.30799865722656,170.718994140625 68.96499633789062,172.06199645996094 67.30799865722656,172.06199645996094 C65.6510009765625,172.06199645996094 64.30799865722656,170.718994140625 64.30799865722656,169.06199645996094 C64.30799865722656,167.40499877929688 65.6510009765625,166.06199645996094 67.30799865722656,166.06199645996094 C68.96499633789062,166.06199645996094 70.30799865722656,167.40499877929688 70.30799865722656,169.06199645996094z"></path></g><g opacity="1" transform="matrix(1,0,0,1,0,0)"><path stroke-linecap="round" stroke-linejoin="round" fill-opacity="0" stroke="rgb(0,155,229)" stroke-opacity="1" stroke-width="6" d=" M77.8280029296875,166.63600158691406 C82.2760009765625,177.06300354003906 78.75800323486328,187.8470001220703 68.6510009765625,187.99000549316406 C60.8129997253418,188.1009979248047 55.430999755859375,180.03199768066406 57.91600036621094,168.50599670410156 C61.042999267578125,154.00399780273438 64.98400115966797,146.125 59.957000732421875,129.8769989013672 C56.95800018310547,120.18199920654297 45.395999908447266,122.66100311279297 46.25699996948242,130.45399475097656 C46.50600051879883,132.70700073242188 47.48899841308594,136.40899658203125 47.37200164794922,139.93699645996094 C47.20000076293945,145.13099670410156 44.888999938964844,149.77999877929688 37.75600051879883,149.5749969482422 C33.72999954223633,149.45899963378906 29.201000213623047,146.12100219726562 29.11199951171875,140.31500244140625 C29.06999969482422,137.5919952392578 32.60100173950195,123.5 22.17799949645996,116.26300048828125 C32.249000549316406,115.875 40.37900161743164,113.8479995727539 49.50899887084961,110.94499969482422 C61.60200119018555,107.0999984741211 69.42900085449219,99.79900360107422 83.05400085449219,92.53099822998047 C84.9749984741211,102.63300323486328 77.3280029296875,105.31500244140625 73.39900207519531,125.67400360107422 C70.51200103759766,140.63400268554688 73.38999938964844,156.218994140625 77.8280029296875,166.63600158691406z"></path></g></g><g style="display: none;"><g><path></path><path stroke-linecap="round" stroke-linejoin="round" fill-opacity="0"></path></g><g><path></path></g></g></g></svg>