<svg xmlns="http://www.w3.org/2000/svg" viewBox="0 0 512 512" width="512" height="512" style="width: 100%; height: 100%; transform: translate3d(0,0,0);" preserveAspectRatio="xMidYMid meet"><defs><clipPath id="__lottie_element_4408"><rect width="512" height="512" x="0" y="0"></rect></clipPath></defs><g clip-path="url(#__lottie_element_4408)"><g style="display: block;" transform="matrix(1.149999976158142,0,0,1.149999976158142,256,262)" opacity="1"><g opacity="0.1" transform="matrix(1,0,0,1,0,0)"><path fill="rgb(0,0,0)" fill-opacity="1" d=" M194.0659942626953,4.7820000648498535 C194.0659942626953,113.04299926757812 106.302001953125,200.80599975585938 -1.9589999914169312,200.80599975585938 C-110.22000122070312,200.80599975585938 -197.98300170898438,113.04299926757812 -197.98300170898438,4.7820000648498535 C-197.98300170898438,-103.47899627685547 -110.22000122070312,-191.2429962158203 -1.9589999914169312,-191.2429962158203 C106.302001953125,-191.2429962158203 194.0659942626953,-103.47899627685547 194.0659942626953,4.7820000648498535z"></path></g><g opacity="1" transform="matrix(1,0,0,1,0,0)"><path fill="rgb(255,177,57)" fill-opacity="1" d=" M186.91700744628906,-10.218000411987305 C186.91700744628906,94.09500122070312 102.35399627685547,178.65699768066406 -1.9589999914169312,178.65699768066406 C-106.27200317382812,178.65699768066406 -190.83399963378906,94.09500122070312 -190.83399963378906,-10.218000411987305 C-190.83399963378906,-114.53099822998047 -106.27200317382812,-199.093994140625 -1.9589999914169312,-199.093994140625 C102.35399627685547,-199.093994140625 186.91700744628906,-114.53099822998047 186.91700744628906,-10.218000411987305z"></path><path stroke-linecap="butt" stroke-linejoin="miter" fill-opacity="0" stroke-miterlimit="10" stroke="rgb(247,126,65)" stroke-opacity="1" stroke-width="8" d=" M186.91700744628906,-10.218000411987305 C186.91700744628906,94.09500122070312 102.35399627685547,178.65699768066406 -1.9589999914169312,178.65699768066406 C-106.27200317382812,178.65699768066406 -190.83399963378906,94.09500122070312 -190.83399963378906,-10.218000411987305 C-190.83399963378906,-114.53099822998047 -106.27200317382812,-199.093994140625 -1.9589999914169312,-199.093994140625 C102.35399627685547,-199.093994140625 186.91700744628906,-114.53099822998047 186.91700744628906,-10.218000411987305z"></path></g><g opacity="1" transform="matrix(1,0,0,1,0,0)"><path fill="rgb(255,209,64)" fill-opacity="1" d=" M166.447998046875,-9.505999565124512 C164.99099731445312,85.52300262451172 88.43800354003906,161.4029998779297 -4.539999961853027,159.97799682617188 C-97.51799774169922,158.55299377441406 -171.71099853515625,80.36199951171875 -170.25399780273438,-14.666000366210938 C-168.7969970703125,-109.69499969482422 -92.24400329589844,-185.5749969482422 0.734000027179718,-184.14999389648438 C93.71199798583984,-182.72500610351562 167.90499877929688,-104.53500366210938 166.447998046875,-9.505999565124512z"></path></g><g opacity="0.9" transform="matrix(1,0,0,1,0,0)"><path fill="rgb(255,223,121)" fill-opacity="1" d=" M147.3090057373047,-52.64699935913086 C147.3090057373047,19.996000289916992 80.47899627685547,-37.46799850463867 -1.9589999914169312,-37.46799850463867 C-84.39700317382812,-37.46799850463867 -151.2259979248047,19.996000289916992 -151.2259979248047,-52.64699935913086 C-151.2259979248047,-125.29000091552734 -84.39700317382812,-184.1790008544922 -1.9589999914169312,-184.1790008544922 C80.47899627685547,-184.1790008544922 147.3090057373047,-125.29000091552734 147.3090057373047,-52.64699935913086z"></path></g><g opacity="1" transform="matrix(1,0,0,1,0,0)"><g opacity="1" transform="matrix(1,0,0,1,0,0)"><path stroke-linecap="round" stroke-linejoin="round" fill-opacity="0" stroke="rgb(255,255,255)" stroke-opacity="1" stroke-width="6" d=" M34.41400146484375,-179.9600067138672 C35.95199966430664,-179.625 37.54800033569336,-179.2550048828125 39.19200134277344,-178.8489990234375"></path></g><g opacity="1" transform="matrix(1,0,0,1,0,0)"><path stroke-linecap="round" stroke-linejoin="round" fill-opacity="0" stroke="rgb(255,255,255)" stroke-opacity="1" stroke-width="6" d=" M13.0600004196167,-183.1790008544922 C13.0600004196167,-183.1790008544922 17.927000045776367,-182.91900634765625 25.649999618530273,-181.64100646972656"></path></g></g></g><g style="display: block;" transform="matrix(1.149999976158142,0,0,1.149999976158142,256,262)" opacity="1"><g opacity="1" transform="matrix(1,0,0,1,122,0)"><g opacity="1" transform="matrix(1,0,0,1,0,0)"><path fill="rgb(255,177,57)" fill-opacity="1" d=" M-39.67300033569336,-54.67599868774414 C-39.67300033569336,-36.23899841308594 -50.1879997253418,-21.292999267578125 -63.159000396728516,-21.292999267578125 C-76.12999725341797,-21.292999267578125 -86.64399719238281,-36.23899841308594 -86.64399719238281,-54.67599868774414 C-86.64399719238281,-73.11299896240234 -76.12999725341797,-88.05799865722656 -63.159000396728516,-88.05799865722656 C-50.1879997253418,-88.05799865722656 -39.67300033569336,-73.11299896240234 -39.67300033569336,-54.67599868774414z"></path></g><g opacity="1" transform="matrix(1,0,0,1,0,0)"><g opacity="1" transform="matrix(1,0,0,1,0,0)"><path fill="rgb(255,226,166)" fill-opacity="1" d=" M-39.67300033569336,-42.67599868774414 C-39.67300033569336,-24.23900032043457 -50.1879997253418,-9.293000221252441 -63.159000396728516,-9.293000221252441 C-76.12999725341797,-9.293000221252441 -86.64399719238281,-24.23900032043457 -86.64399719238281,-42.67599868774414 C-86.64399719238281,-61.112998962402344 -76.12999725341797,-76.05799865722656 -63.159000396728516,-76.05799865722656 C-50.1879997253418,-76.05799865722656 -39.67300033569336,-61.112998962402344 -39.67300033569336,-42.67599868774414z"></path></g><g opacity="1" transform="matrix(1,0,0,1,0,0)"><path fill="rgb(134,63,20)" fill-opacity="1" d=" M-41.14099884033203,-49.097999572753906 C-41.14099884033203,-30.660999298095703 -50.999000549316406,-15.71500015258789 -63.159000396728516,-15.71500015258789 C-75.31900024414062,-15.71500015258789 -85.1760025024414,-30.660999298095703 -85.1760025024414,-49.097999572753906 C-85.1760025024414,-67.53500366210938 -75.31900024414062,-82.4800033569336 -63.159000396728516,-82.4800033569336 C-50.999000549316406,-82.4800033569336 -41.14099884033203,-67.53500366210938 -41.14099884033203,-49.097999572753906z"></path></g><g opacity="1" transform="matrix(1,0,0,1,0,0)"><path fill="rgb(107,32,0)" fill-opacity="1" d=" M-41.14099884033203,-49.09400177001953 C-41.14099884033203,-47.62799835205078 -41.20500183105469,-46.18299865722656 -41.33300018310547,-44.77000045776367 C-42.7140007019043,-61.178001403808594 -51.96200180053711,-73.83899688720703 -63.15700149536133,-73.83899688720703 C-74.35199737548828,-73.83899688720703 -83.5999984741211,-61.178001403808594 -84.98100280761719,-44.77000045776367 C-85.10900115966797,-46.18299865722656 -85.1729965209961,-47.62799835205078 -85.1729965209961,-49.09400177001953 C-85.1729965209961,-67.53500366210938 -75.31600189208984,-82.47699737548828 -63.15700149536133,-82.47699737548828 C-50.99800109863281,-82.47699737548828 -41.14099884033203,-67.53500366210938 -41.14099884033203,-49.09400177001953z"></path></g></g></g></g><g style="display: block;" transform="matrix(1.149999976158142,0,0,1.149999976158142,256,262)" opacity="1"><g opacity="1" transform="matrix(1,0,0,1,0,0)"><path fill="rgb(255,177,57)" fill-opacity="1" d=" M-39.67300033569336,-54.67599868774414 C-39.67300033569336,-36.23899841308594 -50.1879997253418,-21.292999267578125 -63.159000396728516,-21.292999267578125 C-76.12999725341797,-21.292999267578125 -86.64399719238281,-36.23899841308594 -86.64399719238281,-54.67599868774414 C-86.64399719238281,-73.11299896240234 -76.12999725341797,-88.05799865722656 -63.159000396728516,-88.05799865722656 C-50.1879997253418,-88.05799865722656 -39.67300033569336,-73.11299896240234 -39.67300033569336,-54.67599868774414z"></path></g><g opacity="1" transform="matrix(1,0,0,1,0,0)"><path fill="rgb(255,226,166)" fill-opacity="1" d=" M-39.67300033569336,-42.67599868774414 C-39.67300033569336,-24.23900032043457 -50.1879997253418,-9.293000221252441 -63.159000396728516,-9.293000221252441 C-76.12999725341797,-9.293000221252441 -86.64399719238281,-24.23900032043457 -86.64399719238281,-42.67599868774414 C-86.64399719238281,-61.112998962402344 -76.12999725341797,-76.05799865722656 -63.159000396728516,-76.05799865722656 C-50.1879997253418,-76.05799865722656 -39.67300033569336,-61.112998962402344 -39.67300033569336,-42.67599868774414z"></path></g><g opacity="1" transform="matrix(1,0,0,1,0,0)"><path fill="rgb(134,63,20)" fill-opacity="1" d=" M-41.14099884033203,-49.097999572753906 C-41.14099884033203,-30.660999298095703 -50.999000549316406,-15.71500015258789 -63.159000396728516,-15.71500015258789 C-75.31900024414062,-15.71500015258789 -85.1760025024414,-30.660999298095703 -85.1760025024414,-49.097999572753906 C-85.1760025024414,-67.53500366210938 -75.31900024414062,-82.4800033569336 -63.159000396728516,-82.4800033569336 C-50.999000549316406,-82.4800033569336 -41.14099884033203,-67.53500366210938 -41.14099884033203,-49.097999572753906z"></path></g><g opacity="1" transform="matrix(1,0,0,1,0,0)"><path fill="rgb(107,32,0)" fill-opacity="1" d=" M-41.14099884033203,-49.09400177001953 C-41.14099884033203,-47.62799835205078 -41.20500183105469,-46.18299865722656 -41.33300018310547,-44.77000045776367 C-42.7140007019043,-61.178001403808594 -51.96200180053711,-73.83899688720703 -63.15700149536133,-73.83899688720703 C-74.35199737548828,-73.83899688720703 -83.5999984741211,-61.178001403808594 -84.98100280761719,-44.77000045776367 C-85.10900115966797,-46.18299865722656 -85.1729965209961,-47.62799835205078 -85.1729965209961,-49.09400177001953 C-85.1729965209961,-67.53500366210938 -75.31600189208984,-82.47699737548828 -63.15700149536133,-82.47699737548828 C-50.99800109863281,-82.47699737548828 -41.14099884033203,-67.53500366210938 -41.14099884033203,-49.09400177001953z"></path></g></g><g style="display: block;" transform="matrix(1.149999976158142,0,0,1.149999976158142,256,262)" opacity="1"><g opacity="1" transform="matrix(1,0,0,1,0,0)"><path fill="rgb(255,177,57)" fill-opacity="1" d=" M87.15399932861328,59.99700164794922 C87.15399932861328,59.99700164794922 -90.9469985961914,59.99700164794922 -90.9469985961914,59.99700164794922 C-96.64199829101562,59.99700164794922 -101.302001953125,55.3380012512207 -101.302001953125,49.643001556396484 C-101.302001953125,49.643001556396484 -101.302001953125,45.48699951171875 -101.302001953125,45.48699951171875 C-101.302001953125,39.79199981689453 -96.64199829101562,35.132999420166016 -90.9469985961914,35.132999420166016 C-90.9469985961914,35.132999420166016 87.15399932861328,35.132999420166016 87.15399932861328,35.132999420166016 C92.8489990234375,35.132999420166016 97.50900268554688,39.79199981689453 97.50900268554688,45.48699951171875 C97.50900268554688,45.48699951171875 97.50900268554688,49.643001556396484 97.50900268554688,49.643001556396484 C97.50900268554688,55.3380012512207 92.8489990234375,59.99700164794922 87.15399932861328,59.99700164794922z"></path></g><g opacity="1" transform="matrix(1,0,0,1,0,0)"><path fill="rgb(255,226,166)" fill-opacity="1" d=" M87.15399932861328,66.83499908447266 C87.15399932861328,66.83499908447266 -90.9469985961914,66.83499908447266 -90.9469985961914,66.83499908447266 C-96.64199829101562,66.83499908447266 -101.302001953125,62.17499923706055 -101.302001953125,56.47999954223633 C-101.302001953125,56.47999954223633 -101.302001953125,52.32500076293945 -101.302001953125,52.32500076293945 C-101.302001953125,46.630001068115234 -96.64199829101562,41.970001220703125 -90.9469985961914,41.970001220703125 C-90.9469985961914,41.970001220703125 87.15399932861328,41.970001220703125 87.15399932861328,41.970001220703125 C92.8489990234375,41.970001220703125 97.50900268554688,46.630001068115234 97.50900268554688,52.32500076293945 C97.50900268554688,52.32500076293945 97.50900268554688,56.47999954223633 97.50900268554688,56.47999954223633 C97.50900268554688,62.17499923706055 92.8489990234375,66.83499908447266 87.15399932861328,66.83499908447266z"></path></g><g opacity="1" transform="matrix(1,0,0,1,0,0)"><path fill="rgb(134,63,20)" fill-opacity="1" d=" M85.78800201416016,60.99700164794922 C85.78800201416016,60.99700164794922 -89.58100128173828,60.99700164794922 -89.58100128173828,60.99700164794922 C-95.2760009765625,60.99700164794922 -99.93599700927734,56.3380012512207 -99.93599700927734,50.643001556396484 C-99.93599700927734,50.643001556396484 -99.93599700927734,50.643001556396484 -99.93599700927734,50.643001556396484 C-99.93599700927734,44.948001861572266 -95.2760009765625,40.28900146484375 -89.58100128173828,40.28900146484375 C-89.58100128173828,40.28900146484375 85.78800201416016,40.28900146484375 85.78800201416016,40.28900146484375 C91.48300170898438,40.28900146484375 96.14299774169922,44.948001861572266 96.14299774169922,50.643001556396484 C96.14299774169922,50.643001556396484 96.14299774169922,50.643001556396484 96.14299774169922,50.643001556396484 C96.14299774169922,56.3380012512207 91.48300170898438,60.99700164794922 85.78800201416016,60.99700164794922z"></path></g><g opacity="1" transform="matrix(1,0,0,1,0,0)"><path fill="rgb(107,32,0)" fill-opacity="1" d=" M96.13999938964844,50.645999908447266 C96.13999938964844,51.805999755859375 95.94999694824219,52.92599868774414 95.58999633789062,53.965999603271484 C94.19999694824219,49.875999450683594 90.31999969482422,46.91600036621094 85.79000091552734,46.91600036621094 C85.79000091552734,46.91600036621094 -89.58100128173828,46.91600036621094 -89.58100128173828,46.91600036621094 C-92.43099975585938,46.91600036621094 -95.02100372314453,48.07600021362305 -96.89099884033203,49.95600128173828 C-98.01100158691406,51.07600021362305 -98.87100219726562,52.43600082397461 -99.38099670410156,53.965999603271484 C-99.74099731445312,52.92599868774414 -99.93099975585938,51.805999755859375 -99.93099975585938,50.645999908447266 C-99.93099975585938,47.79600143432617 -98.77100372314453,45.20600128173828 -96.89099884033203,43.32600021362305 C-95.02100372314453,41.45600128173828 -92.43099975585938,40.2859992980957 -89.58100128173828,40.2859992980957 C-89.58100128173828,40.2859992980957 85.79000091552734,40.2859992980957 85.79000091552734,40.2859992980957 C91.4800033569336,40.2859992980957 96.13999938964844,44.94599914550781 96.13999938964844,50.645999908447266z"></path></g></g></g></svg>