<svg xmlns="http://www.w3.org/2000/svg" viewBox="0 0 512 512" width="512" height="512" style="width: 100%; height: 100%; transform: translate3d(0,0,0);" preserveAspectRatio="xMidYMid meet"><defs><clipPath id="__lottie_element_4510"><rect width="512" height="512" x="0" y="0"></rect></clipPath><linearGradient id="__lottie_element_4543" spreadMethod="pad" gradientUnits="userSpaceOnUse" x1="-149" y1="21" x2="-91.0770034790039" y2="-114.56400299072266"><stop offset="0%" stop-color="rgb(185,184,166)"></stop><stop offset="29%" stop-color="rgb(161,160,147)"></stop><stop offset="58%" stop-color="rgb(138,137,128)"></stop></linearGradient></defs><g clip-path="url(#__lottie_element_4510)"><g style="display: block;" transform="matrix(0.5199999809265137,0,0,0.5199999809265137,253.27999877929688,239.32000732421875)" opacity="1"><g opacity="1" transform="matrix(1,0,0,1,0,0)"><path fill="rgb(153,153,145)" fill-opacity="1" d=" M195.01499938964844,-376.7489929199219 C178.26600646972656,-408.15399169921875 119.64399719238281,-418.6210021972656 75.6780014038086,-420.7149963378906 C31.711999893188477,-422.8089904785156 -85.53299713134766,-420.71600341796875 -98.09500122070312,-412.34100341796875 C-114.52899932861328,-401.385009765625 -204.8699951171875,-276.2539978027344 -198.58900451660156,-255.3179931640625 C-191.86300659179688,-232.8979949951172 -160.9040069580078,-221.82000732421875 -158.80999755859375,-215.53900146484375 C-156.71600341796875,-209.25799560546875 -213.2449951171875,-39.67300033569336 -225.8070068359375,14.76200008392334 C-238.36900329589844,69.1969985961914 -238.36900329589844,111.06900024414062 -255.1179962158203,138.28599548339844 C-271.86700439453125,165.5030059814453 -273.9599914550781,173.87899780273438 -269.77301025390625,188.53399658203125 C-265.58599853515625,203.18899536132812 -250.93099975585938,230.40699768066406 -248.83700561523438,268.0920104980469 C-246.7429962158203,305.77801513671875 -250.92999267578125,330.9010009765625 -234.18099975585938,353.9309997558594 C-217.4320068359375,376.96099853515625 -202.7760009765625,404.1789855957031 -123.21800231933594,414.6470031738281 C-43.65999984741211,425.114990234375 128.01800537109375,437.677001953125 186.63999938964844,425.114990234375 C245.26199340820312,412.5530090332031 272.4800109863281,381.14898681640625 285.0419921875,328.8080139160156 C297.60400390625,276.4670104980469 291.322998046875,117.3499984741211 285.0419921875,69.19599914550781 C278.760986328125,21.04199981689453 234.7949981689453,-169.47799682617188 232.7010040283203,-188.3209991455078 C224.52699279785156,-261.8900146484375 217.04600524902344,-335.4419860839844 195.01499938964844,-376.7489929199219z"></path></g><g opacity="1" transform="matrix(1,0,0,1,0,0)"><path fill="rgb(156,153,128)" fill-opacity="1" d=" M-103.85199737548828,-188.1750030517578 C-104.83399963378906,-181.781005859375 -193.4080047607422,141.03700256347656 -206.3040008544922,157.4980010986328 C-225.5,182 -258.5,170.5 -270.6679992675781,158.20799255371094 C-231,126 -203.5,-85 -158.80999755859375,-215.53900146484375 C-160.9040069580078,-221.82000732421875 -191.8679962158203,-232.89500427246094 -198.58900451660156,-255.3179931640625 C-198.63099670410156,-255.42300415039062 -198.65199279785156,-255.54800415039062 -198.69400024414062,-255.6739959716797 C-198.69400024414062,-255.6739959716797 -127.40599822998047,-257.1809997558594 -127.40599822998047,-257.1809997558594 C-127.40599822998047,-257.1809997558594 -101.36100006103516,-204.4429931640625 -103.85199737548828,-188.1750030517578z"></path></g><g opacity="1" transform="matrix(1,0,0,1,0,0)"><path fill="rgb(131,132,119)" fill-opacity="1" d=" M285.0419921875,328.8080139160156 C272.4800109863281,381.14898681640625 245.26199340820312,412.5530090332031 186.63999938964844,425.114990234375 C128.01800537109375,437.677001953125 -43.65999984741211,425.114990234375 -123.21800231933594,414.6470031738281 C-202.7760009765625,404.1789855957031 -217.4320068359375,376.96099853515625 -234.18099975585938,353.9309997558594 C-250.92999267578125,330.9010009765625 -246.7429962158203,305.7770080566406 -248.83700561523438,268.0920104980469 C-250.93099975585938,230.406005859375 -263.3590087890625,204.16400146484375 -271.2799987792969,181.85499572753906 C-239.5189971923828,182.3780059814453 -143.5290069580078,187.70199584960938 -116.73600006103516,191.572998046875 C-76.06099700927734,197.44900512695312 -68.80000305175781,204.23300170898438 -33.95500183105469,200.77099609375 C8.694000244140625,196.53399658203125 84.9489974975586,153.83200073242188 88.75700378417969,25.041000366210938 C90.7239990234375,-41.48899841308594 178.7469940185547,-35.73699951171875 266.63800048828125,-26.775999069213867 C275.2430114746094,14.092000007629395 282.7179870605469,51.37900161743164 285.0419921875,69.19599914550781 C291.322998046875,117.3499984741211 297.60400390625,276.4670104980469 285.0419921875,328.8080139160156z"></path></g><g opacity="0.5" transform="matrix(1,0,0,1,0,0)"><path fill="rgb(61,61,59)" fill-opacity="1" d=" M-24.71299934387207,425.114990234375 C-39.22100067138672,424.1650085449219 -95.7490005493164,418.2690124511719 -123.21800231933594,414.6470031738281 C-202.7760009765625,404.1789855957031 -217.4320068359375,376.96099853515625 -234.18099975585938,353.9309997558594 C-250.92999267578125,330.9010009765625 -246.7429962158203,305.77801513671875 -248.83700561523438,268.0920104980469 C-250.93099975585938,230.406005859375 -265.58599853515625,203.18899536132812 -269.77301025390625,188.53399658203125 C-270.90399169921875,184.55599975585938 -260.77099609375,177.62600708007812 -254.9499969482422,178.23300170898438 C-178.0540008544922,180.9149932861328 -108.69499969482422,195.5760040283203 -97.75599670410156,200.91700744628906 C-23.0049991607666,237.41600036621094 -76.3949966430664,275.44000244140625 -93.68800354003906,312.63800048828125 C-108.13999938964844,343.7250061035156 -60.599998474121094,402.09600830078125 -24.71299934387207,425.114990234375z"></path></g><g opacity="1" transform="matrix(1,0,0,1,0,0)"><path fill="rgb(185,184,166)" fill-opacity="1" d=" M73.5530014038086,-183.875 C62.30500030517578,-201.91000366210938 13.576000213623047,-178.0489959716797 -5.267000198364258,-154.447998046875 C-20.740999221801758,-135.06700134277344 1.0369999408721924,-63.520999908447266 28.867000579833984,-63.520999908447266 C61.16899871826172,-63.520999908447266 88.10900115966797,-160.53599548339844 73.5530014038086,-183.875z"></path></g></g><g style="display: block;" transform="matrix(0.5199999809265137,0,0,0.5199999809265137,253.27999877929688,239.32000732421875)" opacity="1"><g opacity="1" transform="matrix(1,0,0,1,0,0)"><path fill="rgb(99,102,88)" fill-opacity="1" d=" M-136.322998046875,289.2640075683594 C-160.56700134277344,282.2019958496094 -156.88600158691406,300.2690124511719 -154.4669952392578,312.1730041503906 C-152.04800415039062,324.0769958496094 -166.48399353027344,338.2130126953125 -146.56500244140625,341.1889953613281 C-126.64600372314453,344.1650085449219 -100.03399658203125,299.8340148925781 -136.322998046875,289.2640075683594z"></path></g><g opacity="1" transform="matrix(1,0,0,1,0,0)"><path fill="rgb(99,102,88)" fill-opacity="1" d=" M-243.8820037841797,311.3070068359375 C-243.0749969482422,299.281005859375 -251.21299743652344,296.7309875488281 -251.00999450683594,307.6889953613281 C-250.89700317382812,313.7770080566406 -254.0260009765625,329.1210021972656 -245.6199951171875,332.3559875488281 C-238.58200073242188,335.06500244140625 -244.3780059814453,318.70098876953125 -243.8820037841797,311.3070068359375z"></path></g><g opacity="1" transform="matrix(1,0,0,1,0,0)"><path fill="rgb(99,102,88)" fill-opacity="1" d=" M-201.48500061035156,358.29998779296875 C-211.88099670410156,357.6499938964844 -215.62100219726562,364.9960021972656 -201.48500061035156,373.17999267578125 C-187.3489990234375,381.364013671875 -177.67799377441406,359.7879943847656 -201.48500061035156,358.29998779296875z"></path></g><g opacity="1" transform="matrix(1,0,0,1,0,0)"><path fill="rgb(99,102,88)" fill-opacity="1" d=" M-174.09800720214844,304.8349914550781 C-183.04299926757812,300.3630065917969 -181.3419952392578,323.4330139160156 -174.09800720214844,328.6210021972656 C-166.85499572753906,333.8089904785156 -157.8000030517578,312.9840087890625 -174.09800720214844,304.8349914550781z"></path></g></g><g style="display: block;" transform="matrix(0.5199999809265137,0,0,0.5199999809265137,253.27999877929688,239.32000732421875)" opacity="1"><g opacity="1" transform="matrix(1,0,0,1,0,0)"><path fill="rgb(185,184,166)" fill-opacity="1" d=" M-46.1510009765625,-256.0719909667969 C-85.13500213623047,-258.0190124511719 -193.44500732421875,-255.23399353027344 -198.58900451660156,-255.3179931640625 C-204.8699951171875,-276.2539978027344 -114.52999877929688,-401.3909912109375 -98.09500122070312,-412.34100341796875 C-85.53299713134766,-420.71600341796875 31.711999893188477,-422.8089904785156 75.6780014038086,-420.7149963378906 C119.64399719238281,-418.6210021972656 178.26600646972656,-408.15399169921875 195.01499938964844,-376.7489929199219 C217.0399932861328,-335.4419860839844 147.97500610351562,-197.93299865722656 79.4010009765625,-219.97500610351562 C40.779998779296875,-232.38900756835938 -21.840999603271484,-254.8489990234375 -46.1510009765625,-256.0719909667969z"></path></g><g opacity="1" transform="matrix(1,0,0,1,0,0)"><g opacity="1" transform="matrix(1,0,0,1,0,0)"><path fill="rgb(198,196,172)" fill-opacity="1" d=" M-69.13999938964844,-365.3169860839844 C-74.10600280761719,-366.0820007324219 -76.17400360107422,-354.6629943847656 -79.4489974975586,-352.74798583984375 C-82.7239990234375,-350.8330078125 -72.54399871826172,-340.2430114746094 -66.72100067138672,-348.5580139160156 C-60.89799880981445,-356.87298583984375 -61.5880012512207,-364.15399169921875 -69.13999938964844,-365.3169860839844z"></path></g><g opacity="1" transform="matrix(1,0,0,1,0,0)"><path fill="rgb(198,196,172)" fill-opacity="1" d=" M-102.52200317382812,-341.5639953613281 C-109.7030029296875,-342.6700134277344 -115.18299865722656,-342.4630126953125 -116.35299682617188,-334.12799072265625 C-117.52300262451172,-325.7929992675781 -109.97899627685547,-322.218994140625 -105.2300033569336,-321.7460021972656 C-100.48100280761719,-321.27301025390625 -98.14199829101562,-327.8349914550781 -95.4800033569336,-328.7430114746094 C-92.81800079345703,-329.6510009765625 -90.072998046875,-339.64599609375 -102.52200317382812,-341.5639953613281z"></path></g><g opacity="1" transform="matrix(1,0,0,1,0,0)"><path fill="rgb(198,196,172)" fill-opacity="1" d=" M-77.63300323486328,-320.50299072265625 C-84.26000213623047,-322.6839904785156 -82.63899993896484,-319.1340026855469 -88.125,-313.32000732421875 C-93.61100006103516,-307.5060119628906 -85.24700164794922,-303.56201171875 -78.9469985961914,-307.8380126953125 C-72.64700317382812,-312.114013671875 -69.22599792480469,-317.7349853515625 -77.63300323486328,-320.50299072265625z"></path></g><g opacity="1" transform="matrix(1,0,0,1,0,0)"><path fill="rgb(198,196,172)" fill-opacity="1" d=" M-118.31700134277344,-315.5320129394531 C-123.90299987792969,-321.5580139160156 -124.32099914550781,-327.5249938964844 -133.11000061035156,-330.1659851074219 C-141.8990020751953,-332.8070068359375 -141.28799438476562,-319.0849914550781 -148.52699279785156,-318.0870056152344 C-155.76600646972656,-317.0899963378906 -160.2550048828125,-309.8739929199219 -152.11199951171875,-307.1940002441406 C-143.968994140625,-304.51300048828125 -138.63699340820312,-305.656005859375 -133.375,-299.0950012207031 C-128.11300659179688,-292.53399658203125 -110.01499938964844,-306.57598876953125 -118.31700134277344,-315.5320129394531z"></path></g></g><g opacity="1" transform="matrix(1,0,0,1,0,0)"><g opacity="1" transform="matrix(1,0,0,1,0,0)"><path fill="rgb(198,196,172)" fill-opacity="1" d=" M78.5989990234375,-353.1940002441406 C63.99300003051758,-352.7510070800781 77.3280029296875,-343.66400146484375 75.4219970703125,-332.2279968261719 C73.51599884033203,-320.7919921875 77.68099975585938,-306.8139953613281 91.48200225830078,-309.9909973144531 C105.28199768066406,-313.1679992675781 97.02300262451172,-325.8739929199219 102.74099731445312,-335.40399169921875 C108.45899963378906,-344.9339904785156 99.56500244140625,-353.8290100097656 78.5989990234375,-353.1940002441406z"></path></g><g opacity="1" transform="matrix(1,0,0,1,0,0)"><path fill="rgb(198,196,172)" fill-opacity="1" d=" M44.888999938964844,-366.3760070800781 C32.4379997253418,-363.7080078125 44.888999938964844,-358.40301513671875 44.888999938964844,-351.5690002441406 C44.888999938964844,-344.7349853515625 59.69499969482422,-350.4309997558594 59.125999450683594,-358.9729919433594 C58.55699920654297,-367.5150146484375 52.86199951171875,-368.0840148925781 44.888999938964844,-366.3760070800781z"></path></g><g opacity="1" transform="matrix(1,0,0,1,0,0)"><path fill="rgb(198,196,172)" fill-opacity="1" d=" M50.64899826049805,-323.0889892578125 C38.518001556396484,-323.4909973144531 35.50600051879883,-305.656005859375 43.32099914550781,-296.6390075683594 C51.13600158691406,-287.62200927734375 55.94499969482422,-310.4649963378906 65.56300354003906,-309.864013671875 C75.18099975585938,-309.26300048828125 68.7979965209961,-322.4880065917969 50.64899826049805,-323.0889892578125z"></path></g><g opacity="1" transform="matrix(1,0,0,1,0,0)"><path fill="rgb(198,196,172)" fill-opacity="1" d=" M5.49399995803833,-361.4339904785156 C-3.8459999561309814,-359.9830017089844 -7.7170000076293945,-355.72198486328125 -4.366000175476074,-343.49798583984375 C-1.0149999856948853,-331.27398681640625 2.367000102996826,-349.3190002441406 9.612000465393066,-352.5840148925781 C16.85700035095215,-355.8489990234375 12.819999694824219,-362.5719909667969 5.49399995803833,-361.4339904785156z"></path></g></g><g opacity="0.3" transform="matrix(1,0,0,1,0,0)"><path fill="rgb(255,255,255)" fill-opacity="1" d=" M-107.52300262451172,-261.656005859375 C-107.52300262451172,-261.656005859375 -59.82400131225586,-267.3059997558594 -41.70800018310547,-312.11700439453125 C-23.591999053955078,-356.9280090332031 1.8940000534057617,-421.47100830078125 1.8940000534057617,-421.47100830078125 C1.8940000534057617,-421.47100830078125 53.0260009765625,-421.47100830078125 53.0260009765625,-421.47100830078125 C53.0260009765625,-421.47100830078125 18.243999481201172,-371.9110107421875 14.892999649047852,-306.57000732421875 C13.005999565124512,-269.7820129394531 37.737998962402344,-248.177001953125 70.02200317382812,-222.5330047607422 C70.02200317382812,-222.5330047607422 6.586999893188477,-250.01800537109375 -26.437000274658203,-257.1789855957031 C-57.17100143432617,-263.8429870605469 -107.52300262451172,-261.656005859375 -107.52300262451172,-261.656005859375z"></path></g></g><g style="display: block;" transform="matrix(0.5199999809265137,0,0,0.5199999809265137,253.27999877929688,239.32000732421875)" opacity="1"><g opacity="1" transform="matrix(1,0,0,1,0,0)"><path fill="rgb(135,134,126)" fill-opacity="1" d=" M88.78700256347656,50.60100173950195 C90.02999877929688,-27.86400032043457 100.81800079345703,-91.822998046875 98.70800018310547,-117.13800048828125 C94.52100372314453,-167.38499450683594 88.16200256347656,-191.00900268554688 84.052001953125,-215.53900146484375 C70.02100372314453,-299.281005859375 168.42599487304688,-367.3070068359375 113.36299896240234,-416.9259948730469 C113.35900115966797,-416.92999267578125 182.78799438476562,-399.67498779296875 195.01499938964844,-376.7489929199219 C217.0399932861328,-335.4419860839844 224.53599548339844,-261.8919982910156 232.7010040283203,-188.3209991455078 C234.7949981689453,-169.47799682617188 278.760986328125,21.04199981689453 285.0419921875,69.19599914550781 C291.322998046875,117.3499984741211 87.4469985961914,135.197998046875 88.78700256347656,50.60100173950195z"></path></g><g opacity="1" transform="matrix(1,0,0,1,0,0)"><path fill="rgb(117,115,108)" fill-opacity="1" d=" M285.0419921875,328.8080139160156 C272.4800109863281,381.14898681640625 245.26199340820312,412.5530090332031 186.63999938964844,425.114990234375 C168.1320037841797,429.0719909667969 89.18800354003906,432.3479919433594 79.46700286865234,376.87701416015625 C69.74600219726562,321.406005859375 121.69000244140625,237.56300354003906 100.8010025024414,152.94200134277344 C79.05599975585938,64.85399627685547 83.43900299072266,-89.74199676513672 147.9340057373047,-94.59100341796875 C186.48300170898438,-97.48899841308594 244.59300231933594,-84.14199829101562 285.0419921875,69.19599914550781 C291.322998046875,117.3499984741211 297.60400390625,276.4670104980469 285.0419921875,328.8080139160156z"></path></g></g><g style="display: block;" transform="matrix(0.5199999809265137,0,0,0.5199999809265137,253.27999877929688,239.32000732421875)" opacity="1"><g opacity="1" transform="matrix(1,0,0,1,0,0)"><path fill="rgb(142,139,126)" fill-opacity="1" d=" M175.01100158691406,-192.3000030517578 C165.02499389648438,-193.2550048828125 172.69000244140625,-184.10899353027344 177.10499572753906,-177.16299438476562 C181.52099609375,-170.21600341796875 189.82000732421875,-173.69700622558594 188.01600646972656,-183.68499755859375 C186.21200561523438,-193.67300415039062 181.05999755859375,-191.7209930419922 175.01100158691406,-192.3000030517578z"></path></g><g opacity="1" transform="matrix(1,0,0,1,0,0)"><path fill="rgb(142,139,126)" fill-opacity="1" d=" M185.55799865722656,-152.5489959716797 C179.10400390625,-154.79100036621094 175.32699584960938,-160.8560028076172 164.75399780273438,-157.8350067138672 C154.18099975585938,-154.81399536132812 166.64199829101562,-146.1300048828125 158.71200561523438,-139.7100067138672 C150.78199768066406,-133.2899932861328 151.53700256347656,-119.69599914550781 166.64199829101562,-117.80799865722656 C181.7469940185547,-115.91999816894531 185.89999389648438,-125.7249984741211 194.96299743652344,-126.86399841308594 C204.0260009765625,-128.0030059814453 202.6219940185547,-146.6199951171875 185.55799865722656,-152.5489959716797z"></path></g><g opacity="1" transform="matrix(1,0,0,1,0,0)"><path fill="rgb(142,139,126)" fill-opacity="1" d=" M140.48699951171875,-204.09300231933594 C129.427001953125,-208.42100524902344 132.5240020751953,-193.85400390625 131.38600158691406,-184.7530059814453 C130.2480010986328,-175.65199279785156 115.45899963378906,-160.29400634765625 131.38600158691406,-150.62399291992188 C147.31300354003906,-140.95399475097656 166.6529998779297,-193.85400390625 140.48699951171875,-204.09300231933594z"></path></g><g opacity="1" transform="matrix(1,0,0,1,0,0)"><path fill="rgb(142,139,126)" fill-opacity="1" d=" M142.89300537109375,-248.37100219726562 C135.5679931640625,-250.6999969482422 137.47799682617188,-264.1029968261719 118.74199676513672,-261.89898681640625 C100.00599670410156,-259.69500732421875 119.16100311279297,-250.68800354003906 117.76799774169922,-242.81700134277344 C116.375,-234.9459991455078 111.59200286865234,-227.18699645996094 123.3239974975586,-222.83799743652344 C135.05599975585938,-218.48899841308594 134.8699951171875,-223.1320037841797 146.86199951171875,-216.3990020751953 C158.85400390625,-209.66600036621094 172.82200622558594,-215.16299438476562 164.28399658203125,-225.1909942626953 C155.74600219726562,-235.218994140625 164.55099487304688,-241.48599243164062 142.89300537109375,-248.37100219726562z"></path></g></g><g style="display: block;" transform="matrix(0.5199999809265137,0,0,0.5199999809265137,253.27999877929688,239.32000732421875)" opacity="1"><g opacity="1" transform="matrix(1,0,0,1,0,0)"><path fill="rgb(124,123,116)" fill-opacity="1" d=" M148.1479949951172,359.09698486328125 C140.66200256347656,359.78900146484375 140.572998046875,366.4200134277344 146.8249969482422,372.0459899902344 C153.07699584960938,377.6719970703125 155.88999938964844,381.7359924316406 159.64100646972656,374.2340087890625 C163.39199829101562,366.73199462890625 156.34800720214844,358.3389892578125 148.1479949951172,359.09698486328125z"></path></g><g opacity="1" transform="matrix(1,0,0,1,0,0)"><path fill="rgb(124,123,116)" fill-opacity="1" d=" M231.62899780273438,292.0880126953125 C222.53700256347656,292.5010070800781 225.8800048828125,300.71099853515625 221.08999633789062,312.2080078125 C216.3000030517578,323.7049865722656 234.5030059814453,319.87298583984375 236.8979949951172,312.2080078125 C239.29299926757812,304.5429992675781 242.16799926757812,291.6090087890625 231.62899780273438,292.0880126953125z"></path></g><g opacity="1" transform="matrix(1,0,0,1,0,0)"><path fill="rgb(124,123,116)" fill-opacity="1" d=" M200.97000122070312,271.9679870605469 C192.45599365234375,270.6059875488281 192.3470001220703,282.50799560546875 200.97000122070312,285.8609924316406 C209.59300231933594,289.2139892578125 212.9459991455078,273.8840026855469 200.97000122070312,271.9679870605469z"></path></g><g opacity="1" transform="matrix(1,0,0,1,0,0)"><path fill="rgb(124,123,116)" fill-opacity="1" d=" M250.947998046875,237.23599243164062 C238.01699829101562,237.51699829101562 244.7209930419922,254.0030059814453 238.01400756835938,257.3559875488281 C231.3070068359375,260.7090148925781 234.66099548339844,276.9960021972656 244.4810028076172,275.5589904785156 C254.30099487304688,274.12200927734375 259.6300048828125,266.44500732421875 270.1099853515625,262.14599609375 C280.5889892578125,257.84698486328125 272.9840087890625,236.7570037841797 250.947998046875,237.23599243164062z"></path></g><g opacity="1" transform="matrix(1,0,0,1,0,0)"><path fill="rgb(124,123,116)" fill-opacity="1" d=" M163.1060028076172,168.88699340820312 C151.63299560546875,173.06399536132812 140.19500732421875,168.08700561523438 128.6529998779297,173.63499450683594 C117.11000061035156,179.18299865722656 127.66699981689453,190.1739959716797 139.7310028076172,192.5959930419922 C151.79600524902344,195.01699829101562 146.51699829101562,206.3280029296875 163.1060028076172,204.82000732421875 C179.69500732421875,203.31199645996094 183.36900329589844,187.4770050048828 189.07200622558594,183.70700073242188 C194.77499389648438,179.93699645996094 195.5290069580078,157.08299255371094 163.1060028076172,168.88699340820312z"></path></g><g opacity="1" transform="matrix(1,0,0,1,0,0)"><path fill="rgb(124,123,116)" fill-opacity="1" d=" M136.9290008544922,125.93399810791016 C126.70700073242188,121.1500015258789 124.5479965209961,137.6320037841797 136.9290008544922,145.67999267578125 C149.30999755859375,153.72799682617188 154.26199340820312,134.0449981689453 136.9290008544922,125.93399810791016z"></path></g></g><g style="display: block;" transform="matrix(-0.5199999809265137,0,0,-0.5199999809265137,282.17535400390625,368.6398620605469)" opacity="1"><g opacity="1" transform="matrix(1,0,0,1,0,0)"><path fill="rgb(168,165,142)" fill-opacity="1" d=" M238.29299926757812,308.4230041503906 C232.54200744628906,308.07598876953125 233.55599975585938,316.4930114746094 229.04100036621094,327.4909973144531 C224.5260009765625,338.489013671875 236.43499755859375,336.2049865722656 238.94500732421875,328.8059997558594 C241.4550018310547,321.4070129394531 244.95899963378906,308.82501220703125 238.29299926757812,308.4230041503906z"></path></g><g opacity="1" transform="matrix(1,0,0,1,0,0)"><path fill="rgb(168,165,142)" fill-opacity="1" d=" M256.3330078125,237.73599243164062 C248.16000366210938,238.01699829101562 252.39700317382812,254.5030059814453 248.1580047607422,257.8559875488281 C243.91900634765625,261.2090148925781 246.03799438476562,277.4960021972656 252.2449951171875,276.0589904785156 C258.4519958496094,274.62200927734375 261.82000732421875,266.94500732421875 268.4440002441406,262.64599609375 C275.0679931640625,258.34698486328125 270.260986328125,237.2570037841797 256.3330078125,237.73599243164062z"></path></g></g><g style="display: block;" transform="matrix(0.5199999809265137,0,0,0.5199999809265137,253.27999877929688,239.32000732421875)" opacity="1"><g opacity="0.75" transform="matrix(1,0,0,1,0,0)"><path fill="rgb(61,61,59)" fill-opacity="1" d=" M287.9519958496094,312.5400085449219 C274.5740051269531,381.177001953125 245.26199340820312,412.5530090332031 186.63999938964844,425.114990234375 C128.01800537109375,437.677001953125 -43.65999984741211,425.114990234375 -123.21800231933594,414.6470031738281 C-186.57200622558594,406.3139953613281 -220.91000366210938,378.40899658203125 -227.03700256347656,359.5679931640625 C-203.73199462890625,371.8179931640625 -97.86900329589844,387.28399658203125 61.02199935913086,383.24200439453125 C159.3699951171875,380.739990234375 274.02899169921875,342.3320007324219 287.9519958496094,312.5400085449219z"></path></g></g><g style="display: block;" transform="matrix(0.5199999809265137,0,0,0.5199999809265137,253.27999877929688,239.32000732421875)" opacity="1"><g opacity="0.9" transform="matrix(1,0,0,1,0,0)"><path fill="rgb(61,61,59)" fill-opacity="1" d=" M-109.56600189208984,193.82000732421875 C-87.66600036621094,207.83599853515625 -86.07599639892578,247.8260040283203 -106.2239990234375,259.7980041503906 C-122.74800109863281,269.61700439453125 -144.1739959716797,279.51300048828125 -197.4239959716797,274.91900634765625 C-233.42100524902344,271.8139953613281 -249.4600067138672,264.1510009765625 -249.4600067138672,264.1510009765625 C-257.1629943847656,198.125 -273.9599914550781,181.2760009765625 -273.9599914550781,181.2760009765625 C-273.9599914550781,181.2760009765625 -130.94500732421875,187.61300659179688 -109.56600189208984,193.82000732421875z"></path></g><g opacity="1" transform="matrix(1,0,0,1,0,0)"><path fill="rgb(185,184,166)" fill-opacity="1" d=" M-37.840999603271484,104.85399627685547 C-62.66899871826172,109.68199920654297 -213.01499938964844,102.78500366210938 -240.6009979248047,100.0260009765625 C-247.4980010986328,131.06100463867188 -263.3599853515625,144.16400146484375 -273.0150146484375,180.0260009765625 C-255.08399963378906,185.54299926757812 -157.15199279785156,184.85400390625 -100.96800231933594,192.88699340820312 C-20.850000381469727,220.86500549316406 37.39500045776367,176.54600524902344 48.790000915527344,144.06900024414062 C60.75899887084961,109.95700073242188 -2.2139999866485596,76.57599639892578 -37.840999603271484,104.85399627685547z"></path></g><g opacity="1" transform="matrix(1,0,0,1,0,0)"><path fill="rgb(61,61,59)" fill-opacity="1" d=" M-29.003999710083008,108.9749984741211 C-29.003999710083008,108.9749984741211 -77.18399810791016,144.48399353027344 -98.09500122070312,150.84800720214844 C-146.24899291992188,165.5030059814453 -217.14100646972656,148.24400329589844 -264.11700439453125,162.12600708007812 C-264.11700439453125,162.12600708007812 -240.50399780273438,99.12300109863281 -240.50399780273438,99.12300109863281 C-240.50399780273438,99.12300109863281 -209.0570068359375,104.78800201416016 -29.003999710083008,108.9749984741211z"></path></g><g opacity="1" transform="matrix(1,0,0,1,0,0)"><path stroke-linecap="round" stroke-linejoin="round" fill-opacity="0" stroke="rgb(45,45,44)" stroke-opacity="1" stroke-width="16.749" d=" M-271.2340087890625,181.4770050048828 C-271.2340087890625,181.4770050048828 -186.39500427246094,182.3509979248047 -147.375,187.53700256347656 C-128.41900634765625,190.05599975585938 -104.24099731445312,193.468994140625 -104.24099731445312,193.468994140625"></path></g><g opacity="1" transform="matrix(1,0,0,1,0,0)"><path stroke-linecap="round" stroke-linejoin="round" fill-opacity="0" stroke="rgb(255,255,255)" stroke-opacity="1" stroke-width="12.562" d=" M-183.24099731445312,166.8820037841797 C-183.24099731445312,166.8820037841797 -181.6540069580078,166.91000366210938 -174.0189971923828,167.5019989013672"></path></g></g><g style="display: block;" transform="matrix(0.5199999809265137,0,0,0.5199999809265137,253.27999877929688,239.32000732421875)" opacity="1"><g opacity="0.15" transform="matrix(1,0,0,1,0,0)"><path fill="rgb(255,255,255)" fill-opacity="1" d=" M285.0419921875,328.8080139160156 C274.447998046875,372.9630126953125 253.40699768066406,402.23199462890625 211.88999938964844,417.8290100097656 C250.12600708007812,389.7330017089844 261.94000244140625,321.27301025390625 264.58099365234375,248.69200134277344 C267.79901123046875,160.23699951171875 256.3760070800781,63.56800079345703 249.76400756835938,28.475000381469727 C236.3090057373047,-42.93199920654297 212.36399841308594,-140.36199951171875 206.843994140625,-181.7469940185547 C198.81100463867188,-241.97500610351562 192.0469970703125,-338.2170104980469 168.42599487304688,-367.3070068359375 C152.9340057373047,-386.385986328125 97.37699890136719,-392.22698974609375 43.41600036621094,-394.08599853515625 C-16.433000564575195,-396.14801025390625 -75.9260025024414,-395.07501220703125 -89.00800323486328,-384.2019958496094 C-131.92599487304688,-348.531005859375 -171.41400146484375,-256.0509948730469 -171.41400146484375,-256.0509948730469 C-171.41400146484375,-256.0509948730469 -192.32400512695312,-254.45799255371094 -198.58900451660156,-255.3179931640625 C-204.8699951171875,-276.2539978027344 -114.52999877929688,-401.3909912109375 -98.09500122070312,-412.34100341796875 C-85.53299713134766,-420.71600341796875 31.711999893188477,-422.8089904785156 75.6780014038086,-420.7149963378906 C119.64399719238281,-418.6210021972656 178.26600646972656,-408.15399169921875 195.01499938964844,-376.7489929199219 C217.0399932861328,-335.4419860839844 224.53599548339844,-261.8919982910156 232.7010040283203,-188.3209991455078 C234.7949981689453,-169.47799682617188 278.760986328125,21.04199981689453 285.0419921875,69.19599914550781 C291.322998046875,117.3499984741211 297.60400390625,276.4670104980469 285.0419921875,328.8080139160156z"></path></g><g opacity="1" transform="matrix(1,0,0,1,0,0)"><path stroke-linecap="round" stroke-linejoin="round" fill-opacity="0" stroke="rgb(109,108,103)" stroke-opacity="1" stroke-width="16.749" d=" M195.01499938964844,-376.7489929199219 C178.26600646972656,-408.15399169921875 119.64399719238281,-418.6210021972656 75.6780014038086,-420.7149963378906 C31.711999893188477,-422.8089904785156 -85.53299713134766,-420.71600341796875 -98.09500122070312,-412.34100341796875 C-114.52899932861328,-401.385009765625 -204.8699951171875,-276.2539978027344 -198.58900451660156,-255.3179931640625 C-191.86300659179688,-232.8979949951172 -160.9040069580078,-221.82000732421875 -158.80999755859375,-215.53900146484375 C-156.71600341796875,-209.25799560546875 -213.2449951171875,-39.67300033569336 -225.8070068359375,14.76200008392334 C-238.36900329589844,69.1969985961914 -238.36900329589844,111.06900024414062 -255.1179962158203,138.28599548339844 C-271.86700439453125,165.5030059814453 -273.9599914550781,173.87899780273438 -269.77301025390625,188.53399658203125 C-265.58599853515625,203.18899536132812 -250.93099975585938,230.40699768066406 -248.83700561523438,268.0920104980469 C-246.7429962158203,305.77801513671875 -250.92999267578125,330.9010009765625 -234.18099975585938,353.9309997558594 C-217.4320068359375,376.96099853515625 -202.7760009765625,404.1789855957031 -123.21800231933594,414.6470031738281 C-43.65999984741211,425.114990234375 128.01800537109375,437.677001953125 186.63999938964844,425.114990234375 C245.26199340820312,412.5530090332031 272.4800109863281,381.14898681640625 285.0419921875,328.8080139160156 C297.60400390625,276.4670104980469 291.322998046875,117.3499984741211 285.0419921875,69.19599914550781 C278.760986328125,21.04199981689453 234.7949981689453,-169.47799682617188 232.7010040283203,-188.3209991455078 C224.52699279785156,-261.8900146484375 217.04600524902344,-335.4419860839844 195.01499938964844,-376.7489929199219z"></path></g><g opacity="1" transform="matrix(1,0,0,1,0,0)"><path stroke-linecap="round" stroke-linejoin="round" fill-opacity="0" stroke="rgb(89,88,85)" stroke-opacity="1" stroke-width="16.749" d=" M158.218994140625,428.8210144042969 C169.32699584960938,427.97698974609375 178.9550018310547,426.7619934082031 186.63999938964844,425.114990234375 C245.26199340820312,412.5530090332031 272.4800109863281,381.14898681640625 285.0419921875,328.8080139160156 C297.60400390625,276.4670104980469 291.322998046875,117.3499984741211 285.0419921875,69.19599914550781 C278.760986328125,21.04199981689453 234.7949981689453,-169.47799682617188 232.7010040283203,-188.3209991455078 C224.52699279785156,-261.8900146484375 217.04600524902344,-335.4419860839844 195.01499938964844,-376.7489929199219 C195.01499938964844,-376.7489929199219 195.01499938964844,-376.7489929199219 195.01499938964844,-376.7489929199219 C183.41700744628906,-398.4960021972656 151.74099731445312,-410.2030029296875 118.75599670410156,-416.0419921875"></path></g><g opacity="1" transform="matrix(1,0,0,1,0,0)"><path stroke-linecap="round" stroke-linejoin="round" fill-opacity="0" stroke="rgb(45,45,44)" stroke-opacity="1" stroke-width="16.749" d=" M-236.16700744628906,70.47699737548828 C-240.71400451660156,98.47799682617188 -244.63600158691406,121.25199890136719 -255.1179962158203,138.28599548339844 C-271.86700439453125,165.5030059814453 -273.9599914550781,173.87899780273438 -269.77301025390625,188.53399658203125 C-265.58599853515625,203.18899536132812 -250.93099975585938,230.40699768066406 -248.83700561523438,268.0920104980469 C-246.7429962158203,305.77801513671875 -250.92999267578125,330.9010009765625 -234.18099975585938,353.9309997558594 C-217.4320068359375,376.96099853515625 -202.7760009765625,404.1789855957031 -123.21800231933594,414.6470031738281 C-43.65999984741211,425.114990234375 128.01800537109375,437.677001953125 186.63999938964844,425.114990234375 C245.26199340820312,412.5530090332031 272.4800109863281,381.14898681640625 285.0419921875,328.8080139160156 C285.0419921875,328.8080139160156 285.0419921875,328.8080139160156 285.0419921875,328.8080139160156"></path></g><g opacity="1" transform="matrix(1,0,0,1,0,0)"><path stroke-linecap="round" stroke-linejoin="round" fill-opacity="0" stroke="rgb(45,45,44)" stroke-opacity="1" stroke-width="16.749" d=" M-223.0189971923828,369.135986328125 C-208.14700317382812,387.8760070800781 -185.69500732421875,406.4259948730469 -123.21800231933594,414.6470031738281 C-43.65999984741211,425.114990234375 128.01800537109375,437.677001953125 186.63999938964844,425.114990234375 C245.26199340820312,412.5530090332031 272.4800109863281,381.14898681640625 285.0419921875,328.8080139160156 C285.0419921875,328.8080139160156 285.0419921875,328.8080139160156 285.0419921875,328.8080139160156"></path></g></g><g style="display: block;" transform="matrix(0.5199999809265137,0,0,0.5199999809265137,253.27999877929688,239.32000732421875)" opacity="1"><g opacity="1" transform="matrix(1,0,0,1,0,0)"><path fill="rgb(185,184,166)" fill-opacity="1" d=" M-125.31199645996094,4.294000148773193 C-104.37200164794922,6.3470001220703125 -24.37700080871582,28.20199966430664 -16.00200080871582,95.197998046875 C-16.00200080871582,95.197998046875 -154.05999755859375,116.59600067138672 -227.33700561523438,87.28500366210938 C-300.614013671875,57.9739990234375 -232.08799743652344,-6.173999786376953 -125.31199645996094,4.294000148773193z"></path></g><g opacity="1" transform="matrix(1,0,0,1,0,0)"><path fill="url(#__lottie_element_4543)" fill-opacity="1" d=" M-46.632999420166016,-166.63099670410156 C-46.632999420166016,-166.63099670410156 -56.832000732421875,-116.78700256347656 -70.87699890136719,-60.60900115966797 C-83.43900299072266,-10.362000465393066 -83.44000244140625,12.493000030517578 -93.90699768066406,12.668000221252441 C-121.4749984741211,13.128000259399414 -148.60699462890625,21.493000030517578 -168.1020050048828,27.134000778198242 C-200.69400024414062,36.564998626708984 -207.23500061035156,27.694000244140625 -203.5290069580078,20.167999267578125 C-201.30499267578125,15.651000022888184 -195.11399841308594,8.918999671936035 -188.302001953125,1.1030000448226929 C-166.13800048828125,-24.32900047302246 -121.48200225830078,-75.05500030517578 -72.427001953125,-132.48399353027344 C-60.698001861572266,-146.21499633789062 -52.013999938964844,-158.61199951171875 -46.632999420166016,-166.63099670410156z"></path></g><g opacity="1" transform="matrix(1,0,0,1,0,0)"><path fill="rgb(165,165,154)" fill-opacity="1" d=" M-47.84700012207031,-169.47900390625 C-49.34600067138672,-164.68099975585938 -61.433998107910156,-147.89300537109375 -78.70700073242188,-126.2030029296875 C-120.89399719238281,-73.2969970703125 -188.0019989013672,-22.35099983215332 -215.35899353027344,7.307000160217285 C-230.44900512695312,23.666000366210938 -262.0690002441406,54.71699905395508 -243.75,63.34299850463867 C-232.75799560546875,68.51399993896484 -282.2099914550781,77.72699737548828 -294.8970031738281,69.19599914550781 C-301.1780090332031,54.54100036621094 -293.09698486328125,43.79999923706055 -242.55599975585938,-10.362000465393066 C-183.9340057373047,-73.1709976196289 -151.29400634765625,-116.06999969482422 -131.59300231933594,-140.16799926757812 C-112.75,-163.197998046875 -106.46900177001953,-175.75900268554688 -104.375,-188.3209991455078 C-103.91500091552734,-191.1479949951172 -127.40599822998047,-251.13099670410156 -127.40599822998047,-251.13099670410156 C-127.40599822998047,-251.13099670410156 -77.15799713134766,-251.13099670410156 -77.15799713134766,-251.13099670410156 C-77.15799713134766,-251.13099670410156 -37.37900161743164,-202.9770050048828 -47.84700012207031,-169.47900390625z"></path></g><g opacity="1" transform="matrix(1,0,0,1,0,0)"><path fill="rgb(61,61,59)" fill-opacity="1" d=" M-167.74099731445312,-176.25999450683594 C-167.74099731445312,-176.25999450683594 -131.51699829101562,-171.91200256347656 -98.57499694824219,-177.5659942626953 C-98.21700286865234,-177.6280059814453 -94.9540023803711,-181.70599365234375 -84.7249984741211,-182.68299865722656 C-67.89399719238281,-184.2899932861328 -52.86800003051758,-176.84500122070312 -44.42900085449219,-176.83299255371094 C-8.522000312805176,-176.7830047607422 -0.75,-181.25799560546875 21.738000869750977,-191.97300720214844 C44.57500076293945,-202.85499572753906 61.400001525878906,-209.56399536132812 81.95800018310547,-213.44500732421875 C81.95800018310547,-213.44500732421875 74.9540023803711,-217.5540008544922 74.9540023803711,-217.5540008544922 C74.9540023803711,-217.5540008544922 -52.768001556396484,-216.3459930419922 -52.768001556396484,-216.3459930419922 C-52.768001556396484,-216.3459930419922 -81.1259994506836,-252.0290069580078 -81.1259994506836,-252.0290069580078 C-81.1259994506836,-252.0290069580078 -127.40599822998047,-251.13099670410156 -127.40599822998047,-251.13099670410156 C-127.40599822998047,-251.13099670410156 -108.302001953125,-216.0659942626953 -108.302001953125,-216.0659942626953 C-108.302001953125,-216.0659942626953 -158.80999755859375,-215.53900146484375 -158.80999755859375,-215.53900146484375 C-158.80999755859375,-215.53900146484375 -167.74099731445312,-176.25999450683594 -167.74099731445312,-176.25999450683594z"></path></g><g opacity="0.93" transform="matrix(1,0,0,1,0,0)"><path fill="rgb(61,61,59)" fill-opacity="1" d=" M-158.80999755859375,-215.53900146484375 C-158.80999755859375,-215.53900146484375 -110.71499633789062,-195.3780059814453 -72.09400177001953,-197.2169952392578 C-33.472999572753906,-199.05599975585938 84.052001953125,-217.6320037841797 84.052001953125,-217.6320037841797 C84.052001953125,-217.6320037841797 -14.348999977111816,-251.13099670410156 -39.472999572753906,-255.3179931640625 C-64.59700012207031,-259.5050048828125 -198.58900451660156,-255.3179931640625 -198.58900451660156,-255.3179931640625 C-198.58900451660156,-255.3179931640625 -181.83999633789062,-226.0070037841797 -158.80999755859375,-215.53900146484375z"></path></g><g opacity="1" transform="matrix(1,0,0,1,0,0)"><path fill="rgb(71,71,69)" fill-opacity="1" d=" M-35.28499984741211,94.31999969482422 C-108.56199645996094,113.16300201416016 -234.18099975585938,102.69499969482422 -241.3000030517578,99.26100158691406 C-248.41799926757812,95.8479995727539 -288.6159973144531,83.85099792480469 -294.8970031738281,69.19599914550781 C-294.8970031738281,69.19599914550781 -301.0580139160156,67.98999786376953 -288.32598876953125,60.435001373291016 C-271.2909851074219,50.32600021362305 -237.00900268554688,61.01599884033203 -181.83999633789062,73.38400268554688 C-96.43800354003906,92.52999877929688 -35.28499984741211,94.31999969482422 -35.28499984741211,94.31999969482422z"></path></g><g opacity="1" transform="matrix(1,0,0,1,0,0)"><path stroke-linecap="round" stroke-linejoin="round" fill-opacity="0" stroke="rgb(53,53,53)" stroke-opacity="1" stroke-width="16.749" d=" M-88.0199966430664,-256.2449951171875 C-88.0199966430664,-256.2449951171875 -64.88800048828125,-236.7169952392578 -51.97700119018555,-212.50900268554688 C-44.62799835205078,-198.72900390625 -43.91400146484375,-185.77099609375 -44.6619987487793,-177.1649932861328"></path></g><g opacity="1" transform="matrix(1,0,0,1,0,0)"><path stroke-linecap="round" stroke-linejoin="round" fill-opacity="0" stroke="rgb(185,184,166)" stroke-opacity="1" stroke-width="16.749" d=" M-46.0880012512207,-168.52000427246094 C-46.4010009765625,-167.2949981689453 -46.632999420166016,-166.63099670410156 -46.632999420166016,-166.63099670410156 C-46.632999420166016,-166.63099670410156 -86,-1 -91.5,16"></path></g><g opacity="1" transform="matrix(1,0,0,1,0,0)"><path stroke-linecap="round" stroke-linejoin="round" fill-opacity="0" stroke="rgb(185,184,166)" stroke-opacity="1" stroke-width="16.749" d=" M-46.632999420166016,-166.63099670410156 C-46.632999420166016,-166.63099670410156 -192.26400756835938,-8.097000122070312 -220.34800720214844,25.041000366210938"></path></g><g opacity="1" transform="matrix(1,0,0,1,0,0)"><path stroke-linecap="round" stroke-linejoin="round" fill-opacity="0" stroke="rgb(109,108,103)" stroke-opacity="1" stroke-width="16.749" d=" M-106.66100311279297,-179.3090057373047 C-110.1240005493164,-169.26199340820312 -117.18800354003906,-157.7740020751953 -131.59300231933594,-140.16799926757812 C-151.302001953125,-116.0790023803711 -183.9340057373047,-73.1709976196289 -242.55599975585938,-10.362000465393066 C-293.1029968261719,43.79499816894531 -301.1780090332031,54.54100036621094 -294.8970031738281,69.19599914550781 C-288.6159973144531,83.85099792480469 -248.41799926757812,95.83799743652344 -241.3000030517578,99.26599884033203 C-234.1820068359375,102.69400024414062 -138.531005859375,108.99199676513672 -35.28499984741211,102.69499969482422 C-26.10099983215332,102.13500213623047 20.780000686645508,97.61199951171875 -55.77199935913086,27.61199951171875"></path></g><g opacity="1" transform="matrix(1,0,0,1,0,0)"><path fill="rgb(45,45,44)" fill-opacity="1" d=" M-288.32598876953125,60.435001373291016 C-288.32598876953125,60.435001373291016 -295.4859924316406,64.02300262451172 -298.6419982910156,68.8030014038086 C-298.6419982910156,68.8030014038086 -285.4679870605469,68.30899810791016 -285.4679870605469,68.30899810791016 C-285.4679870605469,68.30899810791016 -288.61700439453125,65.15899658203125 -288.32598876953125,60.435001373291016z"></path></g><g opacity="1" transform="matrix(1,0,0,1,0,0)"><path stroke-linecap="round" stroke-linejoin="round" fill-opacity="0" stroke="rgb(53,53,53)" stroke-opacity="1" stroke-width="16.749" d=" M-127.40599822998047,-251.13099670410156 C-127.40599822998047,-251.13099670410156 -101.94100189208984,-202.9239959716797 -104.375,-188.3209991455078 C-104.46399688720703,-187.78599548339844 -104.56099700927734,-187.25100708007812 -104.66600036621094,-186.71600341796875"></path></g><g opacity="1" transform="matrix(1,0,0,1,0,0)"><path stroke-linecap="round" stroke-linejoin="round" fill-opacity="0" stroke="rgb(45,45,44)" stroke-opacity="1" stroke-width="16.749" d=" M-291.635009765625,73.97899627685547 C-280.0840148925781,86.41200256347656 -247.62600708007812,96.21900177001953 -241.3000030517578,99.26599884033203 C-234.1820068359375,102.69400024414062 -138.531005859375,108.99199676513672 -35.28499984741211,102.69499969482422 C-35.28499984741211,102.69499969482422 -35.28499984741211,102.69499969482422 -35.28499984741211,102.69499969482422"></path></g><g opacity="1" transform="matrix(1,0,0,1,0,0)"><path fill="rgb(185,184,166)" fill-opacity="1" d=" M-52.974998474121094,-178.2429962158203 C-52.974998474121094,-178.2429962158203 -48.2400016784668,-176.82000732421875 -44.42900085449219,-176.83299255371094 C-40.61800003051758,-176.8459930419922 -36.24599838256836,-176.91099548339844 -36.24599838256836,-176.91099548339844 C-36.24599838256836,-176.91099548339844 -36.641998291015625,-170.67999267578125 -38.54999923706055,-164.24200439453125 C-38.54999923706055,-164.24200439453125 -54.36800003051758,-170.6009979248047 -54.36800003051758,-170.6009979248047 C-54.36800003051758,-170.6009979248047 -53.48699951171875,-172.4459991455078 -52.974998474121094,-178.2429962158203z"></path></g><g opacity="1" transform="matrix(1,0,0,1,0,0)"><path fill="rgb(53,53,53)" fill-opacity="1" d=" M-117.41600036621094,-175.3300018310547 C-117.41600036621094,-175.3300018310547 -103.42400360107422,-175.7550048828125 -98.37300109863281,-177.677001953125 C-98.37300109863281,-177.677001953125 -96.64299774169922,-182.3159942626953 -96.03199768066406,-187.63400268554688 C-96.03199768066406,-187.63400268554688 -112.4800033569336,-190.8159942626953 -112.4800033569336,-190.8159942626953 C-112.4800033569336,-190.8159942626953 -113.5790023803711,-183.13099670410156 -117.41600036621094,-175.3300018310547z"></path></g><g opacity="1" transform="matrix(1,0,0,1,0,0)"><path stroke-linecap="round" stroke-linejoin="miter" fill-opacity="0" stroke-miterlimit="10" stroke="rgb(45,45,44)" stroke-opacity="1" stroke-width="16.749" d=" M-198.58900451660156,-255.3179931640625 C-198.58900451660156,-255.3179931640625 -71.68599700927734,-256.8160095214844 -46.15800094604492,-256.0669860839844 C-20.6299991607666,-255.31700134277344 79.1259994506836,-219.2989959716797 79.1259994506836,-219.2989959716797"></path></g></g><g style="display: block;" transform="matrix(0.5199999809265137,0,0,0.5199999809265137,253.27999877929688,239.32000732421875)" opacity="1"><g opacity="0.7000000000000001" transform="matrix(1,0,0,1,0,0)"><path fill="rgb(61,61,59)" fill-opacity="1" d=" M140.6959991455078,103.93099975585938 C140.6959991455078,103.93099975585938 157.822998046875,162.27099609375 221.91600036621094,167.21800231933594 C302.9419860839844,173.4720001220703 266.6570129394531,84.0719985961914 266.6570129394531,84.0719985961914 C266.6570129394531,84.0719985961914 140.6959991455078,103.93099975585938 140.6959991455078,103.93099975585938z"></path></g><g opacity="1" transform="matrix(1,0,0,1,0,0)"><path fill="rgb(117,115,108)" fill-opacity="1" d=" M164.55599975585938,-93.43599700927734 C143.8780059814453,-88.94100189208984 128.91299438476562,-61.92399978637695 127.95899963378906,-35.34400177001953 C127.00499725341797,-8.763999938964844 135.33700561523438,79.55799865722656 147.9340057373047,102.51699829101562 C160.531005859375,125.47599792480469 247.87399291992188,134.20399475097656 256.93798828125,110.41300201416016 C265.4049987792969,88.18900299072266 244.10699462890625,-12.868000030517578 237.2550048828125,-35.625999450683594 C230.4029998779297,-58.38399887084961 205.13600158691406,-102.25700378417969 164.55599975585938,-93.43599700927734z"></path></g><g opacity="0.2" transform="matrix(1,0,0,1,0,0)"><path fill="rgb(255,255,255)" fill-opacity="1" d=" M230.07400512695312,-52.95000076293945 C211.84100341796875,-75.40899658203125 195.15499877929688,-77.83399963378906 181.05599975585938,-72.38800048828125 C171.3350067138672,-68.63300323486328 151.6719970703125,-54.987998962402344 157.2030029296875,4.573999881744385 C161.9409942626953,55.60200119018555 176.98699951171875,116.23300170898438 176.98699951171875,116.23300170898438 C176.98699951171875,116.23300170898438 151.38900756835938,108.81999969482422 147.9340057373047,102.51699829101562 C135.33700561523438,79.55799865722656 127.00499725341797,-8.763999938964844 127.95899963378906,-35.34400177001953 C128.91299438476562,-61.92399978637695 143.87899780273438,-88.93699645996094 164.55599975585938,-93.43599700927734 C196.18899536132812,-100.31700134277344 218.5240020751953,-75.15599822998047 230.07400512695312,-52.95000076293945z"></path></g><g opacity="1" transform="matrix(1,0,0,1,0,0)"><path stroke-linecap="round" stroke-linejoin="round" fill-opacity="0" stroke="rgb(89,88,85)" stroke-opacity="1" stroke-width="16.749" d=" M164.55599975585938,-93.43599700927734 C143.8780059814453,-88.94100189208984 128.91299438476562,-61.92399978637695 127.95899963378906,-35.34400177001953 C127.00499725341797,-8.763999938964844 135.33700561523438,79.55799865722656 147.9340057373047,102.51699829101562 C160.531005859375,125.47599792480469 247.87399291992188,134.20399475097656 256.93798828125,110.41300201416016 C265.4049987792969,88.18900299072266 244.10699462890625,-12.868000030517578 237.2550048828125,-35.625999450683594 C230.4029998779297,-58.38399887084961 205.13600158691406,-102.25700378417969 164.55599975585938,-93.43599700927734z"></path></g><g opacity="1" transform="matrix(1,0,0,1,0,0)"><path stroke-linecap="round" stroke-linejoin="round" fill-opacity="0" stroke="rgb(61,61,59)" stroke-opacity="1" stroke-width="16.749" d=" M149.21299743652344,104.47599792480469 C165.52499389648438,125.9540023803711 248.13699340820312,133.51499938964844 256.93798828125,110.41300201416016 C258.7040100097656,105.77799987792969 259.17498779296875,97.71399688720703 258.75299072265625,87.64700317382812"></path></g><g opacity="1" transform="matrix(1,0,0,1,0,0)"><path fill="rgb(122,122,110)" fill-opacity="1" d=" M200.48300170898438,25.92799949645996 C192.62399291992188,24.548999786376953 192.7480010986328,36.689998626708984 200.48300170898438,37.17900085449219 C208.21800231933594,37.667999267578125 217.20799255371094,28.863000869750977 200.48300170898438,25.92799949645996z"></path></g><g opacity="1" transform="matrix(1,0,0,1,0,0)"><path fill="rgb(122,122,110)" fill-opacity="1" d=" M190.1179962158203,-19.72599983215332 C178.86399841308594,-19.54199981689453 183.1699981689453,-8.805000305175781 177.10499572753906,-4.4019999504089355 C171.0399932861328,0.0010000000474974513 173.1750030517578,11.741000175476074 185.55999755859375,8.805999755859375 C197.94500732421875,5.870999813079834 203.50599670410156,6.630000114440918 203.41600036621094,-1.8209999799728394 C203.3260040283203,-10.272000312805176 199.90199279785156,-19.88599967956543 190.1179962158203,-19.72599983215332z"></path></g></g><g style="display: block;" transform="matrix(0.5199999809265137,0,0,0.5199999809265137,253.27999877929688,239.32000732421875)" opacity="1"><g opacity="1" transform="matrix(1,0,0,1,0,0)"><path stroke-linecap="round" stroke-linejoin="round" fill-opacity="0" stroke="rgb(45,45,44)" stroke-opacity="1" stroke-width="16.749" d=" M-198.58900451660156,-255.3179931640625 C-191.86300659179688,-232.8979949951172 -160.9040069580078,-221.82000732421875 -158.80999755859375,-215.53900146484375 C-158.28700256347656,-213.968994140625 -161.42799377441406,-202.19200134277344 -166.62899780273438,-184.55999755859375"></path></g></g><g style="display: block;" transform="matrix(0.5199999809265137,0,0,0.5199999809265137,253.27999877929688,239.32000732421875)" opacity="1"><g opacity="1" transform="matrix(1,0,0,1,0,0)"><path stroke-linecap="round" stroke-linejoin="round" fill-opacity="0" stroke="rgb(255,255,255)" stroke-opacity="1" stroke-width="12.562" d=" M16.57699966430664,-395.1090087890625 C18.985000610351562,-394.99200439453125 21.458999633789062,-394.8550109863281 23.990999221801758,-394.6960144042969"></path></g><g opacity="1" transform="matrix(1,0,0,1,0,0)"><path stroke-linecap="round" stroke-linejoin="round" fill-opacity="0" stroke="rgb(255,255,255)" stroke-opacity="1" stroke-width="12.562" d=" M-30.67300033569336,-394.1929931640625 C-30.67300033569336,-394.1929931640625 -18.68400001525879,-394.51800537109375 -8.451000213623047,-394.593994140625"></path></g></g><g style="display: block;" transform="matrix(0.5199999809265137,0,0,0.5199999809265137,253.27999877929688,239.32000732421875)" opacity="0.9"><g opacity="1" transform="matrix(1,0,0,1,0,0)"><path fill="rgb(71,71,56)" fill-opacity="1" d=" M-196.17599487304688,257.2250061035156 C-180.81500244140625,253.718994140625 -195.94200134277344,248.0919952392578 -199.88900756835938,239.12600708007812 C-203.83599853515625,230.16000366210938 -208.07200622558594,220.0489959716797 -220.9510040283203,227.49200439453125 C-233.8300018310547,234.93499755859375 -214.68099975585938,261.447998046875 -196.17599487304688,257.2250061035156z"></path></g><g opacity="1" transform="matrix(1,0,0,1,0,0)"><path fill="rgb(71,71,56)" fill-opacity="1" d=" M-176.34300231933594,237.02499389648438 C-167.25999450683594,238.8939971923828 -176.80599975585938,222.35299682617188 -184.8990020751953,222.36399841308594 C-192.99200439453125,222.375 -187.42999267578125,234.74400329589844 -176.34300231933594,237.02499389648438z"></path></g></g><g style="display: block;" transform="matrix(0.5199999809265137,0,0,0.5199999809265137,253.27999877929688,239.32000732421875)" opacity="1"><g opacity="1" transform="matrix(1,0,0,1,0,0)"><path fill="rgb(134,140,115)" fill-opacity="1" d=" M57.33399963378906,286.81298828125 C42.233001708984375,284.79998779296875 45.38199996948242,273.5320129394531 32.34600067138672,275.5710144042969 C19.309999465942383,277.6099853515625 31.43600082397461,287.3840026855469 23.31100082397461,301.0950012207031 C15.185999870300293,314.8059997558594 18.23200035095215,314.3089904785156 26.864999771118164,324.6199951171875 C35.49800109863281,334.9309997558594 34.917999267578125,344.51800537109375 42.50899887084961,343.50201416015625 C50.099998474121094,342.4859924316406 52.935001373291016,335.3500061035156 63.33300018310547,326.7139892578125 C68.64600372314453,322.3009948730469 53.27199935913086,310.2359924316406 59.874000549316406,306.1730041503906 C66.47599792480469,302.1099853515625 72.56900024414062,288.843994140625 57.33399963378906,286.81298828125z"></path></g><g opacity="1" transform="matrix(1,0,0,1,0,0)"><path fill="rgb(134,140,115)" fill-opacity="1" d=" M-12.23900032043457,320.55499267578125 C-19.378999710083008,318.0469970703125 -20.722999572753906,327.15301513671875 -12.23900032043457,333.75201416015625 C-3.755000114440918,340.35101318359375 -0.6129999756813049,324.6400146484375 -12.23900032043457,320.55499267578125z"></path></g><g opacity="1" transform="matrix(1,0,0,1,0,0)"><path fill="rgb(134,140,115)" fill-opacity="1" d=" M-4.070000171661377,273.2669982910156 C-13.494999885559082,270.68499755859375 -8.468999862670898,279.0790100097656 -8.468999862670898,286.6199951171875 C-8.468999862670898,294.1610107421875 -9.725000381469727,299.8169860839844 0.9580000042915344,297.3030090332031 C11.640999794006348,294.78900146484375 9.126999855041504,276.8819885253906 -4.070000171661377,273.2669982910156z"></path></g><g opacity="1" transform="matrix(1,0,0,1,0,0)"><path fill="rgb(134,140,115)" fill-opacity="1" d=" M50.20800018310547,203.97500610351562 C39.624000549316406,201.34300231933594 36.21500015258789,213.6999969482422 50.20800018310547,224.3090057373047 C64.20099639892578,234.91799926757812 78.6520004272461,211.04800415039062 50.20800018310547,203.97500610351562z"></path></g><g opacity="0" transform="matrix(1,0,0,1,-332,44)"><path fill="rgb(134,140,115)" fill-opacity="1" d=" M97.8479995727539,167.01499938964844 C96.2699966430664,181.2899932861328 92.99400329589844,170.84100341796875 93.75299835205078,190.0050048828125 C94.1259994506836,199.4149932861328 100.9739990234375,192.8509979248047 101.14299774169922,184.0030059814453 C101.28600311279297,176.49899291992188 98.96099853515625,156.947998046875 97.8479995727539,167.01499938964844z"></path></g><g opacity="0" transform="matrix(1,0,0,1,-332,44)"><path fill="rgb(134,140,115)" fill-opacity="1" d=" M102.77100372314453,200.0570068359375 C101.28900146484375,194.218994140625 98.24600219726562,198.02999877929688 98.82099914550781,208.8209991455078 C99.07099914550781,213.50399780273438 100.84100341796875,214.31700134277344 102.16400146484375,213.7100067138672 C103.88999938964844,212.91900634765625 105.0260009765625,208.93600463867188 102.77100372314453,200.0570068359375z"></path></g></g><g style="display: block;" transform="matrix(0.5199999809265137,0,0,0.5199999809265137,253.27999877929688,239.32000732421875)" opacity="1"><g opacity="1" transform="matrix(1,0,0,1,0,0)"><path fill="rgb(198,196,172)" fill-opacity="1" d=" M-98.46499633789062,43.09299850463867 C-111.56900024414062,40.52399826049805 -119.03299713134766,46.23400115966797 -114.7040023803711,62.340999603271484 C-110.375,78.447998046875 -104.60299682617188,76.53800201416016 -87.28600311279297,62.340999603271484 C-69.96900177001953,48.14400100708008 -80.06099700927734,46.70100021362305 -98.46499633789062,43.09299850463867z"></path></g><g opacity="1" transform="matrix(1,0,0,1,0,0)"><path fill="rgb(198,196,172)" fill-opacity="1" d=" M-138.51600646972656,33.446998596191406 C-147.3979949951172,32.106998443603516 -152.947998046875,46.77399826049805 -149.60499572753906,51.69900131225586 C-146.26199340820312,56.624000549316406 -134.36399841308594,46.00199890136719 -128.77999877929688,45.569000244140625 C-123.19599914550781,45.13600158691406 -123.48400115966797,35.7140007019043 -138.51600646972656,33.446998596191406z"></path></g></g><g style="display: block;" transform="matrix(0.5199999809265137,0,0,0.5199999809265137,253.27999877929688,239.32000732421875)" opacity="1"><g opacity="1" transform="matrix(1,0,0,1,0,0)"><path fill="rgb(160,159,152)" fill-opacity="1" d=" M27.7450008392334,-1.8209999799728394 C17.31100082397461,-4.690999984741211 10.74899959564209,-10.85200023651123 -1.093000054359436,-8.267999649047852 C-12.9350004196167,-5.684999942779541 -9.324000358581543,15.291999816894531 7.620999813079834,14.973999977111816 C24.56599998474121,14.656000137329102 20.117000579833984,13.032999992370605 30.28700065612793,11.619000434875488 C40.457000732421875,10.204999923706055 41.172000885009766,1.8730000257492065 27.7450008392334,-1.8209999799728394z"></path></g><g opacity="1" transform="matrix(1,0,0,1,0,0)"><path fill="rgb(160,159,152)" fill-opacity="1" d=" M25.732999801635742,-25.73699951171875 C17.434999465942383,-23.316999435424805 16.37299919128418,-13.008000373840332 25.732999801635742,-13.008000373840332 C35.09299850463867,-13.008000373840332 30.600000381469727,-15.628000259399414 36.215999603271484,-19.371999740600586 C41.832000732421875,-23.115999221801758 34.71799850463867,-28.357999801635742 25.732999801635742,-25.73699951171875z"></path></g></g><g style="display: block;" transform="matrix(0.5199999809265137,0,0,0.5199999809265137,253.27999877929688,239.32000732421875)" opacity="1"><g opacity="1" transform="matrix(1,0,0,1,0,0)"><path fill="rgb(198,196,172)" fill-opacity="1" d=" M-9.451000213623047,151.26499938964844 C-15.505999565124512,148.23699951171875 -23.40399932861328,146.06399536132812 -30.613000869750977,151.26499938964844 C-37.821998596191406,156.46600341796875 -30.256999969482422,169.23300170898438 -23.163999557495117,167.3419952392578 C-16.070999145507812,165.4510040283203 9.463000297546387,160.7220001220703 -9.451000213623047,151.26499938964844z"></path></g><g opacity="1" transform="matrix(1,0,0,1,0,0)"><path fill="rgb(198,196,172)" fill-opacity="1" d=" M-18.06800079345703,125.25800323486328 C-23.948999404907227,126.63800048828125 -23.520999908447266,134.71499633789062 -14.831000328063965,137.552001953125 C-6.140999794006348,140.38900756835938 -10.482999801635742,135.43899536132812 -7.5879998207092285,131.4040069580078 C-4.692999839782715,127.36900329589844 -8.038999557495117,122.90399932861328 -18.06800079345703,125.25800323486328z"></path></g></g></g></svg>