<svg xmlns="http://www.w3.org/2000/svg" viewBox="0 0 512 512" width="512" height="512" style="width: 100%; height: 100%; transform: translate3d(0,0,0);" preserveAspectRatio="xMidYMid meet"><defs><clipPath id="__lottie_element_683"><rect width="512" height="512" x="0" y="0"></rect></clipPath></defs><g clip-path="url(#__lottie_element_683)"><g style="display: none;"><g><path stroke-linecap="butt" stroke-linejoin="miter" fill-opacity="0" stroke-miterlimit="4"></path></g><g><path stroke-linecap="butt" stroke-linejoin="miter" fill-opacity="0" stroke-miterlimit="4"></path></g></g><g style="display: none;"><g><path stroke-linecap="butt" stroke-linejoin="miter" fill-opacity="0" stroke-miterlimit="4"></path></g><g><path stroke-linecap="butt" stroke-linejoin="miter" fill-opacity="0" stroke-miterlimit="4"></path></g></g><g style="display: none;"><g><path stroke-linecap="butt" stroke-linejoin="miter" fill-opacity="0" stroke-miterlimit="4"></path></g></g><g style="display: none;"><g><path stroke-linecap="butt" stroke-linejoin="miter" fill-opacity="0" stroke-miterlimit="4"></path></g></g><g style="display: block;" transform="matrix(1,0,0,1,256.69598388671875,255.9040069580078)" opacity="1"><g opacity="1" transform="matrix(1,0,0,1,0,0)"><path stroke-linecap="round" stroke-linejoin="round" fill-opacity="0" stroke="rgb(0,44,131)" stroke-opacity="1" stroke-width="16" d=" M61.29499816894531,-5.184000015258789 C101.68499755859375,-5.184000015258789 120.90499877929688,-33.178001403808594 114.30799865722656,-33.178001403808594 C109.72899627685547,-33.178001403808594 107.22799682617188,-38.518001556396484 110.16000366210938,-42.03499984741211 C110.16000366210938,-42.03499984741211 167.4290008544922,-110.73799896240234 167.4290008544922,-110.73799896240234 C174.79299926757812,-119.5719985961914 170.10000610351562,-123.3280029296875 161.41900634765625,-123.677001953125 C161.28599548339844,-123.68199920654297 161.1510009765625,-123.68699645996094 161.01600646972656,-123.69100189208984 C149.35299682617188,-124.01499938964844 130.90499877929688,-118.4010009765625 124.4540023803711,-110.73799896240234 C124.4540023803711,-110.73799896240234 61.29499816894531,-35.71500015258789 61.29499816894531,-35.71500015258789 C61.29499816894531,-35.71500015258789 61.29499816894531,-5.184000015258789 61.29499816894531,-5.184000015258789z"></path></g><g opacity="1" transform="matrix(1,0,0,1,0,0)"><path stroke-linecap="round" stroke-linejoin="round" fill-opacity="0" stroke="rgb(0,44,131)" stroke-opacity="1" stroke-width="16" d=" M61.29499816894531,-5.184000015258789 C61.29499816894531,-5.184000015258789 204.5709991455078,-5.184000015258789 204.5709991455078,-5.184000015258789 C204.5709991455078,-5.184000015258789 204.5709991455078,-33.178001403808594 204.5709991455078,-33.178001403808594 C204.5709991455078,-33.178001403808594 114.30799865722656,-33.178001403808594 114.30799865722656,-33.178001403808594 C104.7249984741211,-33.178001403808594 61.29499816894531,-24.37299919128418 61.29499816894531,-5.184000015258789z"></path></g><g opacity="1" transform="matrix(1,0,0,1,0,0)"><path stroke-linecap="round" stroke-linejoin="round" fill-opacity="0" stroke="rgb(0,44,131)" stroke-opacity="1" stroke-width="16" d=" M204.5709991455078,-186.48399353027344 C180.08399963378906,-186.48399353027344 148.05799865722656,-157.843994140625 152.5050048828125,-157.843994140625 C157.0959930419922,-157.843994140625 159.59300231933594,-152.47799682617188 156.63600158691406,-148.96600341796875 C156.63600158691406,-148.96600341796875 124.4540023803711,-110.73799896240234 124.4540023803711,-110.73799896240234 C121.4280014038086,-107.2699966430664 126.82599639892578,-104.7030029296875 134.8159942626953,-103.73300170898438 C135.05099487304688,-103.7040023803711 135.28700256347656,-103.6780014038086 135.5260009765625,-103.6520004272461 C146.55099487304688,-102.46600341796875 162.02000427246094,-104.2490005493164 167.4290008544922,-110.73799896240234 C167.4290008544922,-110.73799896240234 204.5709991455078,-155.29600524902344 204.5709991455078,-155.29600524902344 C204.5709991455078,-155.29600524902344 204.5709991455078,-186.48399353027344 204.5709991455078,-186.48399353027344z"></path></g><g opacity="1" transform="matrix(1,0,0,1,0,0)"><path stroke-linecap="round" stroke-linejoin="round" fill-opacity="0" stroke="rgb(0,44,131)" stroke-opacity="1" stroke-width="16" d=" M204.5709991455078,-186.48399353027344 C204.5709991455078,-186.48399353027344 69.41799926757812,-186.48399353027344 69.41799926757812,-186.48399353027344 C69.41799926757812,-186.48399353027344 69.41799926757812,-157.843994140625 69.41799926757812,-157.843994140625 C69.41799926757812,-157.843994140625 146.9810028076172,-157.843994140625 152.5050048828125,-157.843994140625 C158.0279998779297,-157.843994140625 204.5709991455078,-155.29600524902344 204.5709991455078,-155.29600524902344 C204.5709991455078,-155.29600524902344 204.5709991455078,-186.48399353027344 204.5709991455078,-186.48399353027344z"></path></g></g><g style="display: none;"><g><path stroke-linecap="round" stroke-linejoin="round" fill-opacity="0"></path></g><g><path stroke-linecap="round" stroke-linejoin="round" fill-opacity="0"></path></g><g><path stroke-linecap="round" stroke-linejoin="round" fill-opacity="0"></path></g><g><path stroke-linecap="round" stroke-linejoin="round" fill-opacity="0"></path></g></g><g style="display: block;" transform="matrix(0.800000011920929,0,0,0.800000011920929,125.98760223388672,361.8402099609375)" opacity="1"><g opacity="1" transform="matrix(1,0,0,1,0,0)"><path stroke-linecap="round" stroke-linejoin="round" fill-opacity="0" stroke="rgb(0,44,131)" stroke-opacity="1" stroke-width="20" d=" M61.29499816894531,-5.184000015258789 C101.68499755859375,-5.184000015258789 120.90499877929688,-33.178001403808594 114.30799865722656,-33.178001403808594 C109.72899627685547,-33.178001403808594 107.22799682617188,-38.518001556396484 110.16000366210938,-42.03499984741211 C110.16000366210938,-42.03499984741211 167.4290008544922,-110.73799896240234 167.4290008544922,-110.73799896240234 C174.79299926757812,-119.5719985961914 170.10000610351562,-123.3280029296875 161.41900634765625,-123.677001953125 C161.28599548339844,-123.68199920654297 161.1510009765625,-123.68699645996094 161.01600646972656,-123.69100189208984 C149.35299682617188,-124.01499938964844 130.90499877929688,-118.4010009765625 124.4540023803711,-110.73799896240234 C124.4540023803711,-110.73799896240234 61.29499816894531,-35.71500015258789 61.29499816894531,-35.71500015258789 C61.29499816894531,-35.71500015258789 61.29499816894531,-5.184000015258789 61.29499816894531,-5.184000015258789z"></path></g><g opacity="1" transform="matrix(1,0,0,1,0,0)"><path stroke-linecap="round" stroke-linejoin="round" fill-opacity="0" stroke="rgb(0,44,131)" stroke-opacity="1" stroke-width="20" d=" M61.29499816894531,-5.184000015258789 C61.29499816894531,-5.184000015258789 204.5709991455078,-5.184000015258789 204.5709991455078,-5.184000015258789 C204.5709991455078,-5.184000015258789 204.5709991455078,-33.178001403808594 204.5709991455078,-33.178001403808594 C204.5709991455078,-33.178001403808594 114.30799865722656,-33.178001403808594 114.30799865722656,-33.178001403808594 C104.7249984741211,-33.178001403808594 61.29499816894531,-24.37299919128418 61.29499816894531,-5.184000015258789z"></path></g><g opacity="1" transform="matrix(1,0,0,1,0,0)"><path stroke-linecap="round" stroke-linejoin="round" fill-opacity="0" stroke="rgb(0,44,131)" stroke-opacity="1" stroke-width="20" d=" M204.5709991455078,-186.48399353027344 C180.08399963378906,-186.48399353027344 148.05799865722656,-157.843994140625 152.5050048828125,-157.843994140625 C157.0959930419922,-157.843994140625 159.59300231933594,-152.47799682617188 156.63600158691406,-148.96600341796875 C156.63600158691406,-148.96600341796875 124.4540023803711,-110.73799896240234 124.4540023803711,-110.73799896240234 C121.4280014038086,-107.2699966430664 126.82599639892578,-104.7030029296875 134.8159942626953,-103.73300170898438 C135.05099487304688,-103.7040023803711 135.28700256347656,-103.6780014038086 135.5260009765625,-103.6520004272461 C146.55099487304688,-102.46600341796875 162.02000427246094,-104.2490005493164 167.4290008544922,-110.73799896240234 C167.4290008544922,-110.73799896240234 204.5709991455078,-155.29600524902344 204.5709991455078,-155.29600524902344 C204.5709991455078,-155.29600524902344 204.5709991455078,-186.48399353027344 204.5709991455078,-186.48399353027344z"></path></g><g opacity="1" transform="matrix(1,0,0,1,0,0)"><path stroke-linecap="round" stroke-linejoin="round" fill-opacity="0" stroke="rgb(0,44,131)" stroke-opacity="1" stroke-width="20" d=" M204.5709991455078,-186.48399353027344 C204.5709991455078,-186.48399353027344 69.41799926757812,-186.48399353027344 69.41799926757812,-186.48399353027344 C69.41799926757812,-186.48399353027344 69.41799926757812,-157.843994140625 69.41799926757812,-157.843994140625 C69.41799926757812,-157.843994140625 146.9810028076172,-157.843994140625 152.5050048828125,-157.843994140625 C158.0279998779297,-157.843994140625 204.5709991455078,-155.29600524902344 204.5709991455078,-155.29600524902344 C204.5709991455078,-155.29600524902344 204.5709991455078,-186.48399353027344 204.5709991455078,-186.48399353027344z"></path></g></g><g style="display: none;"><g><path stroke-linecap="round" stroke-linejoin="round" fill-opacity="0"></path></g><g><path stroke-linecap="round" stroke-linejoin="round" fill-opacity="0"></path></g><g><path stroke-linecap="round" stroke-linejoin="round" fill-opacity="0"></path></g><g><path stroke-linecap="round" stroke-linejoin="round" fill-opacity="0"></path></g></g><g style="display: block;" transform="matrix(0.6399999856948853,0,0,0.6399999856948853,14.772881507873535,452.186767578125)" opacity="1"><g opacity="1" transform="matrix(1,0,0,1,0,0)"><path stroke-linecap="round" stroke-linejoin="round" fill-opacity="0" stroke="rgb(0,44,131)" stroke-opacity="1" stroke-width="25" d=" M204.5709991455078,-186.48399353027344 C204.5709991455078,-186.48399353027344 69.41799926757812,-186.48399353027344 69.41799926757812,-186.48399353027344 C69.41799926757812,-186.48399353027344 69.41799926757812,-157.843994140625 69.41799926757812,-157.843994140625 C69.41799926757812,-157.843994140625 146.9810028076172,-157.843994140625 152.5050048828125,-157.843994140625 C158.0279998779297,-157.843994140625 204.5709991455078,-155.29600524902344 204.5709991455078,-155.29600524902344 C204.5709991455078,-155.29600524902344 204.5709991455078,-186.48399353027344 204.5709991455078,-186.48399353027344z"></path></g><g opacity="1" transform="matrix(1,0,0,1,0,0)"><path stroke-linecap="round" stroke-linejoin="round" fill-opacity="0" stroke="rgb(0,44,131)" stroke-opacity="1" stroke-width="25" d=" M61.29499816894531,-5.184000015258789 C61.29499816894531,-5.184000015258789 204.5709991455078,-5.184000015258789 204.5709991455078,-5.184000015258789 C204.5709991455078,-5.184000015258789 204.5709991455078,-33.178001403808594 204.5709991455078,-33.178001403808594 C204.5709991455078,-33.178001403808594 114.30799865722656,-33.178001403808594 114.30799865722656,-33.178001403808594 C104.7249984741211,-33.178001403808594 61.29499816894531,-24.37299919128418 61.29499816894531,-5.184000015258789z"></path></g><g opacity="1" transform="matrix(1,0,0,1,0,0)"><path stroke-linecap="round" stroke-linejoin="round" fill-opacity="0" stroke="rgb(0,44,131)" stroke-opacity="1" stroke-width="25" d=" M204.5709991455078,-186.48399353027344 C180.08399963378906,-186.48399353027344 148.05799865722656,-157.843994140625 152.5050048828125,-157.843994140625 C157.0959930419922,-157.843994140625 159.59300231933594,-152.47799682617188 156.63600158691406,-148.96600341796875 C156.63600158691406,-148.96600341796875 124.4540023803711,-110.73799896240234 124.4540023803711,-110.73799896240234 C121.4280014038086,-107.2699966430664 126.82599639892578,-104.7030029296875 134.8159942626953,-103.73300170898438 C135.05099487304688,-103.7040023803711 135.28700256347656,-103.6780014038086 135.5260009765625,-103.6520004272461 C146.55099487304688,-102.46600341796875 162.02000427246094,-104.2490005493164 167.4290008544922,-110.73799896240234 C167.4290008544922,-110.73799896240234 204.5709991455078,-155.29600524902344 204.5709991455078,-155.29600524902344 C204.5709991455078,-155.29600524902344 204.5709991455078,-186.48399353027344 204.5709991455078,-186.48399353027344z"></path></g><g opacity="1" transform="matrix(1,0,0,1,0,0)"><path stroke-linecap="round" stroke-linejoin="round" fill-opacity="0" stroke="rgb(0,44,131)" stroke-opacity="1" stroke-width="25" d=" M61.29499816894531,-5.184000015258789 C101.68499755859375,-5.184000015258789 120.90499877929688,-33.178001403808594 114.30799865722656,-33.178001403808594 C109.72899627685547,-33.178001403808594 107.22799682617188,-38.518001556396484 110.16000366210938,-42.03499984741211 C110.16000366210938,-42.03499984741211 167.4290008544922,-110.73799896240234 167.4290008544922,-110.73799896240234 C174.79299926757812,-119.5719985961914 170.10000610351562,-123.3280029296875 161.41900634765625,-123.677001953125 C161.28599548339844,-123.68199920654297 161.1510009765625,-123.68699645996094 161.01600646972656,-123.69100189208984 C149.35299682617188,-124.01499938964844 130.90499877929688,-118.4010009765625 124.4540023803711,-110.73799896240234 C124.4540023803711,-110.73799896240234 61.29499816894531,-35.71500015258789 61.29499816894531,-35.71500015258789 C61.29499816894531,-35.71500015258789 61.29499816894531,-5.184000015258789 61.29499816894531,-5.184000015258789z"></path></g></g><g style="display: none;"><g><path stroke-linecap="round" stroke-linejoin="round" fill-opacity="0"></path></g><g><path stroke-linecap="round" stroke-linejoin="round" fill-opacity="0"></path></g><g><path stroke-linecap="round" stroke-linejoin="round" fill-opacity="0"></path></g><g><path stroke-linecap="round" stroke-linejoin="round" fill-opacity="0"></path></g></g><g style="display: none;"><g><path stroke-linecap="round" stroke-linejoin="round" fill-opacity="0"></path><path></path></g></g><g style="display: none;"><g><path stroke-linecap="round" stroke-linejoin="round" fill-opacity="0"></path><path></path></g></g><g style="display: none;"><g><path stroke-linecap="round" stroke-linejoin="round" fill-opacity="0"></path><path></path></g></g><g style="display: none;"><g><path stroke-linecap="round" stroke-linejoin="round" fill-opacity="0"></path><path></path></g></g><g style="display: none;"><g><path stroke-linecap="round" stroke-linejoin="round" fill-opacity="0"></path><path></path></g></g><g style="display: none;"><g><path stroke-linecap="round" stroke-linejoin="round" fill-opacity="0"></path><path></path></g></g><g style="display: none;"><g><path stroke-linecap="round" stroke-linejoin="round" fill-opacity="0"></path><path></path></g></g><g style="display: none;"><g><path stroke-linecap="round" stroke-linejoin="round" fill-opacity="0"></path><path></path></g></g><g style="display: none;"><g><path stroke-linecap="round" stroke-linejoin="round" fill-opacity="0"></path><path></path></g></g><g style="display: block;" transform="matrix(0.6399999856948853,0,0,0.6399999856948853,14.772881507873535,452.186767578125)" opacity="1"><g opacity="1" transform="matrix(1,0,0,1,0,0)"><path fill="rgb(43,157,255)" fill-opacity="1" d=" M61.29499816894531,-5.184000015258789 C101.68499755859375,-5.184000015258789 120.90499877929688,-33.178001403808594 114.30799865722656,-33.178001403808594 C109.72899627685547,-33.178001403808594 107.22799682617188,-38.518001556396484 110.16000366210938,-42.03499984741211 C110.16000366210938,-42.03499984741211 167.4290008544922,-110.73799896240234 167.4290008544922,-110.73799896240234 C174.79299926757812,-119.5719985961914 170.10000610351562,-123.3280029296875 161.41900634765625,-123.677001953125 C161.28599548339844,-123.68199920654297 161.1510009765625,-123.68699645996094 161.01600646972656,-123.69100189208984 C149.35299682617188,-124.01499938964844 130.90499877929688,-118.4010009765625 124.4540023803711,-110.73799896240234 C124.4540023803711,-110.73799896240234 61.29499816894531,-35.71500015258789 61.29499816894531,-35.71500015258789 C61.29499816894531,-35.71500015258789 61.29499816894531,-5.184000015258789 61.29499816894531,-5.184000015258789z M61.29499816894531,-5.184000015258789 C61.29499816894531,-5.184000015258789 204.5709991455078,-5.184000015258789 204.5709991455078,-5.184000015258789 C204.5709991455078,-5.184000015258789 204.5709991455078,-33.178001403808594 204.5709991455078,-33.178001403808594 C204.5709991455078,-33.178001403808594 114.30799865722656,-33.178001403808594 114.30799865722656,-33.178001403808594 C104.7249984741211,-33.178001403808594 61.29499816894531,-24.37299919128418 61.29499816894531,-5.184000015258789z M204.5709991455078,-186.48399353027344 C180.08399963378906,-186.48399353027344 148.05799865722656,-157.843994140625 152.5050048828125,-157.843994140625 C157.0959930419922,-157.843994140625 159.59300231933594,-152.47799682617188 156.63600158691406,-148.96600341796875 C156.63600158691406,-148.96600341796875 124.4540023803711,-110.73799896240234 124.4540023803711,-110.73799896240234 C121.4280014038086,-107.2699966430664 126.82599639892578,-104.7030029296875 134.8159942626953,-103.73300170898438 C135.05099487304688,-103.7040023803711 135.28700256347656,-103.6780014038086 135.5260009765625,-103.6520004272461 C146.55099487304688,-102.46600341796875 162.02000427246094,-104.2490005493164 167.4290008544922,-110.73799896240234 C167.4290008544922,-110.73799896240234 204.5709991455078,-155.29600524902344 204.5709991455078,-155.29600524902344 C204.5709991455078,-155.29600524902344 204.5709991455078,-186.48399353027344 204.5709991455078,-186.48399353027344z M204.5709991455078,-186.48399353027344 C204.5709991455078,-186.48399353027344 69.41799926757812,-186.48399353027344 69.41799926757812,-186.48399353027344 C69.41799926757812,-186.48399353027344 69.41799926757812,-157.843994140625 69.41799926757812,-157.843994140625 C69.41799926757812,-157.843994140625 146.9810028076172,-157.843994140625 152.5050048828125,-157.843994140625 C158.0279998779297,-157.843994140625 204.5709991455078,-155.29600524902344 204.5709991455078,-155.29600524902344 C204.5709991455078,-155.29600524902344 204.5709991455078,-186.48399353027344 204.5709991455078,-186.48399353027344z"></path></g></g><g style="display: none;"><g><path></path></g></g><g style="display: block;" transform="matrix(0.800000011920929,0,0,0.800000011920929,125.98760223388672,361.8402099609375)" opacity="1"><g opacity="1" transform="matrix(1,0,0,1,0,0)"><path fill="rgb(43,157,255)" fill-opacity="1" d=" M61.29499816894531,-5.184000015258789 C101.68499755859375,-5.184000015258789 120.90499877929688,-33.178001403808594 114.30799865722656,-33.178001403808594 C109.72899627685547,-33.178001403808594 107.22799682617188,-38.518001556396484 110.16000366210938,-42.03499984741211 C110.16000366210938,-42.03499984741211 167.4290008544922,-110.73799896240234 167.4290008544922,-110.73799896240234 C174.79299926757812,-119.5719985961914 170.10000610351562,-123.3280029296875 161.41900634765625,-123.677001953125 C161.28599548339844,-123.68199920654297 161.1510009765625,-123.68699645996094 161.01600646972656,-123.69100189208984 C149.35299682617188,-124.01499938964844 130.90499877929688,-118.4010009765625 124.4540023803711,-110.73799896240234 C124.4540023803711,-110.73799896240234 61.29499816894531,-35.71500015258789 61.29499816894531,-35.71500015258789 C61.29499816894531,-35.71500015258789 61.29499816894531,-5.184000015258789 61.29499816894531,-5.184000015258789z M61.29499816894531,-5.184000015258789 C61.29499816894531,-5.184000015258789 204.5709991455078,-5.184000015258789 204.5709991455078,-5.184000015258789 C204.5709991455078,-5.184000015258789 204.5709991455078,-33.178001403808594 204.5709991455078,-33.178001403808594 C204.5709991455078,-33.178001403808594 114.30799865722656,-33.178001403808594 114.30799865722656,-33.178001403808594 C104.7249984741211,-33.178001403808594 61.29499816894531,-24.37299919128418 61.29499816894531,-5.184000015258789z M204.5709991455078,-186.48399353027344 C180.08399963378906,-186.48399353027344 148.05799865722656,-157.843994140625 152.5050048828125,-157.843994140625 C157.0959930419922,-157.843994140625 159.59300231933594,-152.47799682617188 156.63600158691406,-148.96600341796875 C156.63600158691406,-148.96600341796875 124.4540023803711,-110.73799896240234 124.4540023803711,-110.73799896240234 C121.4280014038086,-107.2699966430664 126.82599639892578,-104.7030029296875 134.8159942626953,-103.73300170898438 C135.05099487304688,-103.7040023803711 135.28700256347656,-103.6780014038086 135.5260009765625,-103.6520004272461 C146.55099487304688,-102.46600341796875 162.02000427246094,-104.2490005493164 167.4290008544922,-110.73799896240234 C167.4290008544922,-110.73799896240234 204.5709991455078,-155.29600524902344 204.5709991455078,-155.29600524902344 C204.5709991455078,-155.29600524902344 204.5709991455078,-186.48399353027344 204.5709991455078,-186.48399353027344z M204.5709991455078,-186.48399353027344 C204.5709991455078,-186.48399353027344 69.41799926757812,-186.48399353027344 69.41799926757812,-186.48399353027344 C69.41799926757812,-186.48399353027344 69.41799926757812,-157.843994140625 69.41799926757812,-157.843994140625 C69.41799926757812,-157.843994140625 146.9810028076172,-157.843994140625 152.5050048828125,-157.843994140625 C158.0279998779297,-157.843994140625 204.5709991455078,-155.29600524902344 204.5709991455078,-155.29600524902344 C204.5709991455078,-155.29600524902344 204.5709991455078,-186.48399353027344 204.5709991455078,-186.48399353027344z"></path></g></g><g style="display: none;"><g><path></path></g></g><g style="display: block;" transform="matrix(1,0,0,1,256.69598388671875,255.9040069580078)" opacity="1"><g opacity="1" transform="matrix(1,0,0,1,0,0)"><path fill="rgb(43,157,255)" fill-opacity="1" d=" M61.29499816894531,-5.184000015258789 C101.68499755859375,-5.184000015258789 120.90499877929688,-33.178001403808594 114.30799865722656,-33.178001403808594 C109.72899627685547,-33.178001403808594 107.22799682617188,-38.518001556396484 110.16000366210938,-42.03499984741211 C110.16000366210938,-42.03499984741211 167.4290008544922,-110.73799896240234 167.4290008544922,-110.73799896240234 C174.79299926757812,-119.5719985961914 170.10000610351562,-123.3280029296875 161.41900634765625,-123.677001953125 C161.28599548339844,-123.68199920654297 161.1510009765625,-123.68699645996094 161.01600646972656,-123.69100189208984 C149.35299682617188,-124.01499938964844 130.90499877929688,-118.4010009765625 124.4540023803711,-110.73799896240234 C124.4540023803711,-110.73799896240234 61.29499816894531,-35.71500015258789 61.29499816894531,-35.71500015258789 C61.29499816894531,-35.71500015258789 61.29499816894531,-5.184000015258789 61.29499816894531,-5.184000015258789z M61.29499816894531,-5.184000015258789 C61.29499816894531,-5.184000015258789 204.5709991455078,-5.184000015258789 204.5709991455078,-5.184000015258789 C204.5709991455078,-5.184000015258789 204.5709991455078,-33.178001403808594 204.5709991455078,-33.178001403808594 C204.5709991455078,-33.178001403808594 114.30799865722656,-33.178001403808594 114.30799865722656,-33.178001403808594 C104.7249984741211,-33.178001403808594 61.29499816894531,-24.37299919128418 61.29499816894531,-5.184000015258789z M204.5709991455078,-186.48399353027344 C180.08399963378906,-186.48399353027344 148.05799865722656,-157.843994140625 152.5050048828125,-157.843994140625 C157.0959930419922,-157.843994140625 159.59300231933594,-152.47799682617188 156.63600158691406,-148.96600341796875 C156.63600158691406,-148.96600341796875 124.4540023803711,-110.73799896240234 124.4540023803711,-110.73799896240234 C121.4280014038086,-107.2699966430664 126.82599639892578,-104.7030029296875 134.8159942626953,-103.73300170898438 C135.05099487304688,-103.7040023803711 135.28700256347656,-103.6780014038086 135.5260009765625,-103.6520004272461 C146.55099487304688,-102.46600341796875 162.02000427246094,-104.2490005493164 167.4290008544922,-110.73799896240234 C167.4290008544922,-110.73799896240234 204.5709991455078,-155.29600524902344 204.5709991455078,-155.29600524902344 C204.5709991455078,-155.29600524902344 204.5709991455078,-186.48399353027344 204.5709991455078,-186.48399353027344z M204.5709991455078,-186.48399353027344 C204.5709991455078,-186.48399353027344 69.41799926757812,-186.48399353027344 69.41799926757812,-186.48399353027344 C69.41799926757812,-186.48399353027344 69.41799926757812,-157.843994140625 69.41799926757812,-157.843994140625 C69.41799926757812,-157.843994140625 146.9810028076172,-157.843994140625 152.5050048828125,-157.843994140625 C158.0279998779297,-157.843994140625 204.5709991455078,-155.29600524902344 204.5709991455078,-155.29600524902344 C204.5709991455078,-155.29600524902344 204.5709991455078,-186.48399353027344 204.5709991455078,-186.48399353027344z"></path></g></g><g style="display: none;"><g><path></path></g></g><g style="display: block;" transform="matrix(1,0,0,1,256.69598388671875,255.9040069580078)" opacity="1"><g opacity="1" transform="matrix(1,0,0,1,0,0)"><path fill="rgb(0,84,221)" fill-opacity="1" d=" M67.03600311279297,-11.96500015258789 C67.03600311279297,-11.96500015258789 204.56199645996094,-11.934000015258789 204.56199645996094,-11.934000015258789 C204.56199645996094,-11.934000015258789 204.5709991455078,-33.178001403808594 204.5709991455078,-33.178001403808594 C204.5709991455078,-33.178001403808594 114.30799865722656,-33.178001403808594 114.30799865722656,-33.178001403808594 C104.7249984741211,-33.178001403808594 67.03600311279297,-31.15399932861328 67.03600311279297,-11.96500015258789z M67.03600311279297,-11.96500015258789 C107.4260025024414,-11.96500015258789 120.90499877929688,-33.178001403808594 114.30799865722656,-33.178001403808594 C109.72899627685547,-33.178001403808594 107.22799682617188,-38.518001556396484 110.16000366210938,-42.03499984741211 C110.16000366210938,-42.03499984741211 167.4290008544922,-110.73799896240234 167.4290008544922,-110.73799896240234 C174.79299926757812,-119.5719985961914 170.10000610351562,-123.3280029296875 161.41900634765625,-123.677001953125 C161.28599548339844,-123.68199920654297 161.1510009765625,-123.68699645996094 161.01600646972656,-123.69100189208984 C149.35299682617188,-124.01499938964844 130.90499877929688,-118.4010009765625 124.4540023803711,-110.73799896240234 C124.4540023803711,-110.73799896240234 67.03600311279297,-42.494998931884766 67.03600311279297,-42.494998931884766 C67.03600311279297,-42.494998931884766 67.03600311279297,-11.96500015258789 67.03600311279297,-11.96500015258789z M204.5709991455078,-186.48399353027344 C180.08399963378906,-186.48399353027344 154.25999450683594,-165.28399658203125 158.70700073242188,-165.28399658203125 C163.29800415039062,-165.28399658203125 165.7949981689453,-159.91900634765625 162.83799743652344,-156.40699768066406 C162.83799743652344,-156.40699768066406 124.4540023803711,-110.73799896240234 124.4540023803711,-110.73799896240234 C121.4280014038086,-107.2699966430664 126.82599639892578,-104.7030029296875 134.8159942626953,-103.73300170898438 C135.05099487304688,-103.7040023803711 135.28700256347656,-103.6780014038086 135.5260009765625,-103.6520004272461 C146.55099487304688,-102.46600341796875 162.02000427246094,-104.2490005493164 167.4290008544922,-110.73799896240234 C167.4290008544922,-110.73799896240234 204.5709991455078,-155.29600524902344 204.5709991455078,-155.29600524902344 C204.5709991455078,-155.29600524902344 204.5709991455078,-186.48399353027344 204.5709991455078,-186.48399353027344z M204.5709991455078,-186.48399353027344 C204.5709991455078,-186.48399353027344 75.41799926757812,-186.4250030517578 75.41799926757812,-186.4250030517578 C75.41799926757812,-186.4250030517578 75.61900329589844,-165.28399658203125 75.61900329589844,-165.28399658203125 C75.61900329589844,-165.28399658203125 153.1840057373047,-165.28399658203125 158.70700073242188,-165.28399658203125 C164.2310028076172,-165.28399658203125 204.5709991455078,-155.29600524902344 204.5709991455078,-155.29600524902344 C204.5709991455078,-155.29600524902344 204.5709991455078,-186.48399353027344 204.5709991455078,-186.48399353027344z"></path></g></g><g style="display: none;"><g><path></path></g></g><g style="display: block;" transform="matrix(0.800000011920929,0,0,0.800000011920929,125.98760223388672,361.8402099609375)" opacity="1"><g opacity="1" transform="matrix(1,0,0,1,0,0)"><path fill="rgb(0,84,221)" fill-opacity="1" d=" M70.2249984741211,-13.692999839782715 C110.61499786376953,-13.692999839782715 120.90499877929688,-33.178001403808594 114.30799865722656,-33.178001403808594 C109.72899627685547,-33.178001403808594 107.22799682617188,-38.518001556396484 110.16000366210938,-42.03499984741211 C110.16000366210938,-42.03499984741211 167.4290008544922,-110.73799896240234 167.4290008544922,-110.73799896240234 C174.79299926757812,-119.5719985961914 170.10000610351562,-123.3280029296875 161.41900634765625,-123.677001953125 C161.28599548339844,-123.68199920654297 161.1510009765625,-123.68699645996094 161.01600646972656,-123.69100189208984 C149.35299682617188,-124.01499938964844 130.90499877929688,-118.4010009765625 124.4540023803711,-110.73799896240234 C124.4540023803711,-110.73799896240234 70.38600158691406,-46.40999984741211 70.38600158691406,-46.40999984741211 C70.38600158691406,-46.40999984741211 70.2249984741211,-13.692999839782715 70.2249984741211,-13.692999839782715z M70.2249984741211,-13.692999839782715 C70.2249984741211,-13.692999839782715 204.43899536132812,-13.621999740600586 204.43899536132812,-13.621999740600586 C204.43899536132812,-13.621999740600586 204.5709991455078,-33.178001403808594 204.5709991455078,-33.178001403808594 C204.5709991455078,-33.178001403808594 114.30799865722656,-33.178001403808594 114.30799865722656,-33.178001403808594 C104.7249984741211,-33.178001403808594 70.2249984741211,-32.88199996948242 70.2249984741211,-13.692999839782715z M204.5709991455078,-186.48399353027344 C180.08399963378906,-186.48399353027344 154.3350067138672,-166.0709991455078 158.78199768066406,-166.0709991455078 C163.3730010986328,-166.0709991455078 165.8699951171875,-160.7050018310547 162.91299438476562,-157.1929931640625 C162.91299438476562,-157.1929931640625 124.4540023803711,-110.73799896240234 124.4540023803711,-110.73799896240234 C121.4280014038086,-107.2699966430664 126.82599639892578,-104.7030029296875 134.8159942626953,-103.73300170898438 C135.05099487304688,-103.7040023803711 135.28700256347656,-103.6780014038086 135.5260009765625,-103.6520004272461 C146.55099487304688,-102.46600341796875 162.02000427246094,-104.2490005493164 167.4290008544922,-110.73799896240234 C167.4290008544922,-110.73799896240234 204.5709991455078,-155.29600524902344 204.5709991455078,-155.29600524902344 C204.5709991455078,-155.29600524902344 204.5709991455078,-186.48399353027344 204.5709991455078,-186.48399353027344z M204.5709991455078,-186.48399353027344 C204.5709991455078,-186.48399353027344 78.79299926757812,-186.40199279785156 78.79299926757812,-186.40199279785156 C78.79299926757812,-186.40199279785156 78.81999969482422,-165.88600158691406 78.81999969482422,-165.88600158691406 C78.81999969482422,-165.88600158691406 153.25799560546875,-166.0709991455078 158.78199768066406,-166.0709991455078 C164.30499267578125,-166.0709991455078 204.5709991455078,-155.29600524902344 204.5709991455078,-155.29600524902344 C204.5709991455078,-155.29600524902344 204.5709991455078,-186.48399353027344 204.5709991455078,-186.48399353027344z"></path></g></g><g style="display: none;"><g><path></path></g></g><g style="display: block;" transform="matrix(0.6399999856948853,0,0,0.6399999856948853,14.772881507873535,452.186767578125)" opacity="1"><g opacity="1" transform="matrix(1,0,0,1,0,0)"><path fill="rgb(0,84,221)" fill-opacity="1" d=" M71.76200103759766,-14.373000144958496 C112.1520004272461,-14.373000144958496 120.90499877929688,-33.178001403808594 114.30799865722656,-33.178001403808594 C109.72899627685547,-33.178001403808594 107.22799682617188,-38.518001556396484 110.16000366210938,-42.03499984741211 C110.16000366210938,-42.03499984741211 167.4290008544922,-110.73799896240234 167.4290008544922,-110.73799896240234 C174.79299926757812,-119.5719985961914 170.10000610351562,-123.3280029296875 161.41900634765625,-123.677001953125 C161.28599548339844,-123.68199920654297 161.1510009765625,-123.68699645996094 161.01600646972656,-123.69100189208984 C149.35299682617188,-124.01499938964844 130.90499877929688,-118.4010009765625 124.4540023803711,-110.73799896240234 C124.4540023803711,-110.73799896240234 71.84500122070312,-48.02799987792969 71.84500122070312,-48.02799987792969 C71.84500122070312,-48.02799987792969 71.76200103759766,-14.373000144958496 71.76200103759766,-14.373000144958496z M71.76200103759766,-14.373000144958496 C71.76200103759766,-14.373000144958496 204.49099731445312,-14.559000015258789 204.49099731445312,-14.559000015258789 C204.49099731445312,-14.559000015258789 204.5709991455078,-33.178001403808594 204.5709991455078,-33.178001403808594 C204.5709991455078,-33.178001403808594 114.30799865722656,-33.178001403808594 114.30799865722656,-33.178001403808594 C104.7249984741211,-33.178001403808594 71.76200103759766,-33.5620002746582 71.76200103759766,-14.373000144958496z M204.5709991455078,-186.48399353027344 C180.08399963378906,-186.48399353027344 155.28799438476562,-167.06399536132812 159.73500061035156,-167.06399536132812 C164.3260040283203,-167.06399536132812 166.822998046875,-161.697998046875 163.86599731445312,-158.18600463867188 C163.86599731445312,-158.18600463867188 124.4540023803711,-110.73799896240234 124.4540023803711,-110.73799896240234 C121.4280014038086,-107.2699966430664 126.82599639892578,-104.7030029296875 134.8159942626953,-103.73300170898438 C135.05099487304688,-103.7040023803711 135.28700256347656,-103.6780014038086 135.5260009765625,-103.6520004272461 C146.55099487304688,-102.46600341796875 162.02000427246094,-104.2490005493164 167.4290008544922,-110.73799896240234 C167.4290008544922,-110.73799896240234 204.5709991455078,-155.29600524902344 204.5709991455078,-155.29600524902344 C204.5709991455078,-155.29600524902344 204.5709991455078,-186.48399353027344 204.5709991455078,-186.48399353027344z M204.5709991455078,-186.48399353027344 C204.5709991455078,-186.48399353027344 81.5270004272461,-186.61300659179688 81.5270004272461,-186.61300659179688 C81.5270004272461,-186.61300659179688 81.33499908447266,-167.34800720214844 81.33499908447266,-167.34800720214844 C81.33499908447266,-167.34800720214844 154.21099853515625,-167.06399536132812 159.73500061035156,-167.06399536132812 C165.25799560546875,-167.06399536132812 204.5709991455078,-155.29600524902344 204.5709991455078,-155.29600524902344 C204.5709991455078,-155.29600524902344 204.5709991455078,-186.48399353027344 204.5709991455078,-186.48399353027344z"></path></g></g><g style="display: none;"><g><path></path></g></g><g style="display: none;"><g><path></path></g></g><g style="display: none;"><g><path></path></g><g><path></path></g></g><g style="display: none;"><g><path></path></g><g><path></path></g></g><g style="display: none;"><g><path></path></g></g><g style="display: block;" transform="matrix(1,0,0,1,256,255)" opacity="1"><g opacity="1" transform="matrix(1,0,0,1,0,0)"><path stroke-linecap="round" stroke-linejoin="round" fill-opacity="0" stroke="rgb(255,255,255)" stroke-opacity="1" stroke-width="6" d=" M108.375,-165 C108.375,-165 117.625,-165 117.625,-165 M127.625,-165 C127.625,-165 128.875,-165 128.875,-165"></path></g></g><g style="display: none;"><g><path stroke-linecap="round" stroke-linejoin="round" fill-opacity="0"></path></g></g></g></svg>