<svg xmlns="http://www.w3.org/2000/svg" viewBox="0 0 512 512" width="512" height="512" style="width: 100%; height: 100%; transform: translate3d(0,0,0);" preserveAspectRatio="xMidYMid meet"><defs><clipPath id="__lottie_element_4883"><rect width="512" height="512" x="0" y="0"></rect></clipPath><radialGradient id="__lottie_element_4892" spreadMethod="pad" gradientUnits="userSpaceOnUse"><stop></stop><stop></stop><stop></stop><stop></stop><stop></stop></radialGradient><radialGradient id="__lottie_element_4895" spreadMethod="pad" gradientUnits="userSpaceOnUse" cx="35.2239990234375" cy="-76.51799774169922" r="126.00994448239324" fx="35.2239990234375" fy="-76.51799774169922"><stop offset="0%" stop-color="rgb(255,248,168)"></stop><stop offset="50%" stop-color="rgb(254,245,118)"></stop><stop offset="100%" stop-color="rgb(253,241,67)"></stop></radialGradient><radialGradient id="__lottie_element_4896" spreadMethod="pad" gradientUnits="userSpaceOnUse" cx="-36.46200180053711" cy="-76.74199676513672" r="106.091694158103" fx="-36.46200180053711" fy="-76.74199676513672"><stop offset="0%" stop-color="rgb(255,248,168)"></stop><stop offset="50%" stop-color="rgb(254,245,118)"></stop><stop offset="100%" stop-color="rgb(253,241,67)"></stop></radialGradient><radialGradient id="__lottie_element_4957" spreadMethod="pad" gradientUnits="userSpaceOnUse" cx="1" cy="20" r="169.32699584960938" fx="1" fy="20"><stop offset="31%" stop-color="rgb(255,248,168)"></stop><stop offset="53%" stop-color="rgb(254,245,120)"></stop><stop offset="75%" stop-color="rgb(253,241,72)"></stop><stop offset="84%" stop-color="rgb(253,241,70)"></stop><stop offset="92%" stop-color="rgb(253,241,67)"></stop></radialGradient><clipPath id="__lottie_element_4959"><path d="M0,0 L512,0 L512,512 L0,512z"></path></clipPath><clipPath id="__lottie_element_4987"><path d="M0,0 L512,0 L512,512 L0,512z"></path></clipPath><clipPath id="__lottie_element_5015"><path d="M0,0 L512,0 L512,512 L0,512z"></path></clipPath><clipPath id="__lottie_element_5043"><path d="M0,0 L512,0 L512,512 L0,512z"></path></clipPath><clipPath id="__lottie_element_5071"><path d="M0,0 L512,0 L512,512 L0,512z"></path></clipPath><clipPath id="__lottie_element_5099"><path d="M0,0 L512,0 L512,512 L0,512z"></path></clipPath></defs><g clip-path="url(#__lottie_element_4883)"><g style="display: block;" transform="matrix(0.9539999961853027,0,0,0.9539999961853027,48.67669677734375,133.815185546875)" opacity="0.15"><g opacity="1" transform="matrix(1,0,0,1,219.32000732421875,371.9169921875)"><path fill="rgb(0,0,0)" fill-opacity="1" d=" M131.02000427246094,-0.0010000000474974513 C131.02000427246094,8.968000411987305 72.36000061035156,16.238000869750977 -0.0010000000474974513,16.238000869750977 C-72.36100006103516,16.238000869750977 -131.02000427246094,8.968000411987305 -131.02000427246094,-0.0010000000474974513 C-131.02000427246094,-8.968999862670898 -72.36100006103516,-16.23900032043457 -0.0010000000474974513,-16.23900032043457 C72.36000061035156,-16.23900032043457 131.02000427246094,-8.968999862670898 131.02000427246094,-0.0010000000474974513z"></path></g></g><g clip-path="url(#__lottie_element_5099)" style="display: none;"><g style="display: none;"><g><g><path></path><path stroke-linecap="round" stroke-linejoin="round" fill-opacity="0"></path></g><g><path></path><path stroke-linecap="round" stroke-linejoin="round" fill-opacity="0"></path></g><g><path></path><path stroke-linecap="round" stroke-linejoin="round" fill-opacity="0"></path></g><g><path></path><path stroke-linecap="round" stroke-linejoin="round" fill-opacity="0"></path></g><g><path></path><path stroke-linecap="round" stroke-linejoin="round" fill-opacity="0"></path></g><g><path></path><path stroke-linecap="round" stroke-linejoin="round" fill-opacity="0"></path></g></g><g><path></path></g><g><path></path></g></g><g style="display: none;"><g><g><path></path><path stroke-linecap="round" stroke-linejoin="round" fill-opacity="0"></path></g><g><path></path><path stroke-linecap="round" stroke-linejoin="round" fill-opacity="0"></path></g><g><path></path><path stroke-linecap="round" stroke-linejoin="round" fill-opacity="0"></path></g><g><path></path><path stroke-linecap="round" stroke-linejoin="round" fill-opacity="0"></path></g></g><g><path></path></g><g><path></path></g><g><path></path></g></g><g style="display: none;"><g><g><path></path><path stroke-linecap="round" stroke-linejoin="round" fill-opacity="0"></path></g><g><path></path><path stroke-linecap="round" stroke-linejoin="round" fill-opacity="0"></path></g><g><path></path><path stroke-linecap="round" stroke-linejoin="round" fill-opacity="0"></path></g></g><g><path></path></g><g><path></path></g></g><g style="display: none;"><g><g><path></path><path stroke-linecap="round" stroke-linejoin="round" fill-opacity="0"></path></g><g><path></path><path stroke-linecap="round" stroke-linejoin="round" fill-opacity="0"></path></g></g><g><path></path></g><g><path></path></g><g><path></path></g><g><path></path></g><g><path></path></g></g><g style="display: none;"><g><g><path></path><path stroke-linecap="round" stroke-linejoin="round" fill-opacity="0"></path></g><g><path></path><path stroke-linecap="round" stroke-linejoin="round" fill-opacity="0"></path></g></g><g><path></path></g><g><path></path></g><g><path></path></g></g><g style="display: none;"><g><g><path></path><path stroke-linecap="round" stroke-linejoin="round" fill-opacity="0"></path></g><g><path></path><path stroke-linecap="round" stroke-linejoin="round" fill-opacity="0"></path></g><g><path></path><path stroke-linecap="round" stroke-linejoin="round" fill-opacity="0"></path></g><g><path></path><path stroke-linecap="round" stroke-linejoin="round" fill-opacity="0"></path></g><g><path></path><path stroke-linecap="round" stroke-linejoin="round" fill-opacity="0"></path></g></g><g><path></path></g><g><path></path></g><g><path></path></g><g><path></path></g></g><g style="display: none;"><g><g><path></path><path stroke-linecap="round" stroke-linejoin="round" fill-opacity="0"></path></g><g><path></path><path stroke-linecap="round" stroke-linejoin="round" fill-opacity="0"></path></g><g><path></path><path stroke-linecap="round" stroke-linejoin="round" fill-opacity="0"></path></g><g><path></path><path stroke-linecap="round" stroke-linejoin="round" fill-opacity="0"></path></g></g><g><path></path></g><g><path></path></g></g><g style="display: none;"><g><g><path></path><path stroke-linecap="round" stroke-linejoin="round" fill-opacity="0"></path></g><g><path></path><path stroke-linecap="round" stroke-linejoin="round" fill-opacity="0"></path></g><g><path></path><path stroke-linecap="round" stroke-linejoin="round" fill-opacity="0"></path></g><g><path></path><path stroke-linecap="round" stroke-linejoin="round" fill-opacity="0"></path></g><g><path></path><path stroke-linecap="round" stroke-linejoin="round" fill-opacity="0"></path></g><g><path></path><path stroke-linecap="round" stroke-linejoin="round" fill-opacity="0"></path></g></g><g><g><path></path></g></g></g></g><g clip-path="url(#__lottie_element_5071)" style="display: none;"><g style="display: none;"><g><g><path></path><path stroke-linecap="round" stroke-linejoin="round" fill-opacity="0"></path></g><g><path></path><path stroke-linecap="round" stroke-linejoin="round" fill-opacity="0"></path></g><g><path></path><path stroke-linecap="round" stroke-linejoin="round" fill-opacity="0"></path></g><g><path></path><path stroke-linecap="round" stroke-linejoin="round" fill-opacity="0"></path></g><g><path></path><path stroke-linecap="round" stroke-linejoin="round" fill-opacity="0"></path></g><g><path></path><path stroke-linecap="round" stroke-linejoin="round" fill-opacity="0"></path></g></g><g><path></path></g><g><path></path></g></g><g style="display: none;"><g><g><path></path><path stroke-linecap="round" stroke-linejoin="round" fill-opacity="0"></path></g><g><path></path><path stroke-linecap="round" stroke-linejoin="round" fill-opacity="0"></path></g><g><path></path><path stroke-linecap="round" stroke-linejoin="round" fill-opacity="0"></path></g><g><path></path><path stroke-linecap="round" stroke-linejoin="round" fill-opacity="0"></path></g></g><g><path></path></g><g><path></path></g><g><path></path></g></g><g style="display: none;"><g><g><path></path><path stroke-linecap="round" stroke-linejoin="round" fill-opacity="0"></path></g><g><path></path><path stroke-linecap="round" stroke-linejoin="round" fill-opacity="0"></path></g><g><path></path><path stroke-linecap="round" stroke-linejoin="round" fill-opacity="0"></path></g></g><g><path></path></g><g><path></path></g></g><g style="display: none;"><g><g><path></path><path stroke-linecap="round" stroke-linejoin="round" fill-opacity="0"></path></g><g><path></path><path stroke-linecap="round" stroke-linejoin="round" fill-opacity="0"></path></g></g><g><path></path></g><g><path></path></g><g><path></path></g><g><path></path></g><g><path></path></g></g><g style="display: none;"><g><g><path></path><path stroke-linecap="round" stroke-linejoin="round" fill-opacity="0"></path></g><g><path></path><path stroke-linecap="round" stroke-linejoin="round" fill-opacity="0"></path></g></g><g><path></path></g><g><path></path></g><g><path></path></g></g><g style="display: none;"><g><g><path></path><path stroke-linecap="round" stroke-linejoin="round" fill-opacity="0"></path></g><g><path></path><path stroke-linecap="round" stroke-linejoin="round" fill-opacity="0"></path></g><g><path></path><path stroke-linecap="round" stroke-linejoin="round" fill-opacity="0"></path></g><g><path></path><path stroke-linecap="round" stroke-linejoin="round" fill-opacity="0"></path></g><g><path></path><path stroke-linecap="round" stroke-linejoin="round" fill-opacity="0"></path></g></g><g><path></path></g><g><path></path></g><g><path></path></g><g><path></path></g></g><g style="display: none;"><g><g><path></path><path stroke-linecap="round" stroke-linejoin="round" fill-opacity="0"></path></g><g><path></path><path stroke-linecap="round" stroke-linejoin="round" fill-opacity="0"></path></g><g><path></path><path stroke-linecap="round" stroke-linejoin="round" fill-opacity="0"></path></g><g><path></path><path stroke-linecap="round" stroke-linejoin="round" fill-opacity="0"></path></g></g><g><path></path></g><g><path></path></g></g><g style="display: none;"><g><g><path></path><path stroke-linecap="round" stroke-linejoin="round" fill-opacity="0"></path></g><g><path></path><path stroke-linecap="round" stroke-linejoin="round" fill-opacity="0"></path></g><g><path></path><path stroke-linecap="round" stroke-linejoin="round" fill-opacity="0"></path></g><g><path></path><path stroke-linecap="round" stroke-linejoin="round" fill-opacity="0"></path></g><g><path></path><path stroke-linecap="round" stroke-linejoin="round" fill-opacity="0"></path></g><g><path></path><path stroke-linecap="round" stroke-linejoin="round" fill-opacity="0"></path></g></g><g><g><path></path></g></g></g></g><g clip-path="url(#__lottie_element_5043)" style="display: none;"><g style="display: none;"><g><g><path></path><path stroke-linecap="round" stroke-linejoin="round" fill-opacity="0"></path></g><g><path></path><path stroke-linecap="round" stroke-linejoin="round" fill-opacity="0"></path></g><g><path></path><path stroke-linecap="round" stroke-linejoin="round" fill-opacity="0"></path></g><g><path></path><path stroke-linecap="round" stroke-linejoin="round" fill-opacity="0"></path></g><g><path></path><path stroke-linecap="round" stroke-linejoin="round" fill-opacity="0"></path></g><g><path></path><path stroke-linecap="round" stroke-linejoin="round" fill-opacity="0"></path></g></g><g><path></path></g><g><path></path></g></g><g style="display: none;"><g><g><path></path><path stroke-linecap="round" stroke-linejoin="round" fill-opacity="0"></path></g><g><path></path><path stroke-linecap="round" stroke-linejoin="round" fill-opacity="0"></path></g><g><path></path><path stroke-linecap="round" stroke-linejoin="round" fill-opacity="0"></path></g><g><path></path><path stroke-linecap="round" stroke-linejoin="round" fill-opacity="0"></path></g></g><g><path></path></g><g><path></path></g><g><path></path></g></g><g style="display: none;"><g><g><path></path><path stroke-linecap="round" stroke-linejoin="round" fill-opacity="0"></path></g><g><path></path><path stroke-linecap="round" stroke-linejoin="round" fill-opacity="0"></path></g><g><path></path><path stroke-linecap="round" stroke-linejoin="round" fill-opacity="0"></path></g></g><g><path></path></g><g><path></path></g></g><g style="display: none;"><g><g><path></path><path stroke-linecap="round" stroke-linejoin="round" fill-opacity="0"></path></g><g><path></path><path stroke-linecap="round" stroke-linejoin="round" fill-opacity="0"></path></g></g><g><path></path></g><g><path></path></g><g><path></path></g><g><path></path></g><g><path></path></g></g><g style="display: none;"><g><g><path></path><path stroke-linecap="round" stroke-linejoin="round" fill-opacity="0"></path></g><g><path></path><path stroke-linecap="round" stroke-linejoin="round" fill-opacity="0"></path></g></g><g><path></path></g><g><path></path></g><g><path></path></g></g><g style="display: none;"><g><g><path></path><path stroke-linecap="round" stroke-linejoin="round" fill-opacity="0"></path></g><g><path></path><path stroke-linecap="round" stroke-linejoin="round" fill-opacity="0"></path></g><g><path></path><path stroke-linecap="round" stroke-linejoin="round" fill-opacity="0"></path></g><g><path></path><path stroke-linecap="round" stroke-linejoin="round" fill-opacity="0"></path></g><g><path></path><path stroke-linecap="round" stroke-linejoin="round" fill-opacity="0"></path></g></g><g><path></path></g><g><path></path></g><g><path></path></g><g><path></path></g></g><g style="display: none;"><g><g><path></path><path stroke-linecap="round" stroke-linejoin="round" fill-opacity="0"></path></g><g><path></path><path stroke-linecap="round" stroke-linejoin="round" fill-opacity="0"></path></g><g><path></path><path stroke-linecap="round" stroke-linejoin="round" fill-opacity="0"></path></g><g><path></path><path stroke-linecap="round" stroke-linejoin="round" fill-opacity="0"></path></g></g><g><path></path></g><g><path></path></g></g><g style="display: none;"><g><g><path></path><path stroke-linecap="round" stroke-linejoin="round" fill-opacity="0"></path></g><g><path></path><path stroke-linecap="round" stroke-linejoin="round" fill-opacity="0"></path></g><g><path></path><path stroke-linecap="round" stroke-linejoin="round" fill-opacity="0"></path></g><g><path></path><path stroke-linecap="round" stroke-linejoin="round" fill-opacity="0"></path></g><g><path></path><path stroke-linecap="round" stroke-linejoin="round" fill-opacity="0"></path></g><g><path></path><path stroke-linecap="round" stroke-linejoin="round" fill-opacity="0"></path></g></g><g><g><path></path></g></g></g></g><g clip-path="url(#__lottie_element_5015)" style="display: none;"><g style="display: none;"><g><g><path></path><path stroke-linecap="round" stroke-linejoin="round" fill-opacity="0"></path></g><g><path></path><path stroke-linecap="round" stroke-linejoin="round" fill-opacity="0"></path></g><g><path></path><path stroke-linecap="round" stroke-linejoin="round" fill-opacity="0"></path></g><g><path></path><path stroke-linecap="round" stroke-linejoin="round" fill-opacity="0"></path></g><g><path></path><path stroke-linecap="round" stroke-linejoin="round" fill-opacity="0"></path></g><g><path></path><path stroke-linecap="round" stroke-linejoin="round" fill-opacity="0"></path></g></g><g><path></path></g><g><path></path></g></g><g style="display: none;"><g><g><path></path><path stroke-linecap="round" stroke-linejoin="round" fill-opacity="0"></path></g><g><path></path><path stroke-linecap="round" stroke-linejoin="round" fill-opacity="0"></path></g><g><path></path><path stroke-linecap="round" stroke-linejoin="round" fill-opacity="0"></path></g><g><path></path><path stroke-linecap="round" stroke-linejoin="round" fill-opacity="0"></path></g></g><g><path></path></g><g><path></path></g><g><path></path></g></g><g style="display: none;"><g><g><path></path><path stroke-linecap="round" stroke-linejoin="round" fill-opacity="0"></path></g><g><path></path><path stroke-linecap="round" stroke-linejoin="round" fill-opacity="0"></path></g><g><path></path><path stroke-linecap="round" stroke-linejoin="round" fill-opacity="0"></path></g></g><g><path></path></g><g><path></path></g></g><g style="display: none;"><g><g><path></path><path stroke-linecap="round" stroke-linejoin="round" fill-opacity="0"></path></g><g><path></path><path stroke-linecap="round" stroke-linejoin="round" fill-opacity="0"></path></g></g><g><path></path></g><g><path></path></g><g><path></path></g><g><path></path></g><g><path></path></g></g><g style="display: none;"><g><g><path></path><path stroke-linecap="round" stroke-linejoin="round" fill-opacity="0"></path></g><g><path></path><path stroke-linecap="round" stroke-linejoin="round" fill-opacity="0"></path></g></g><g><path></path></g><g><path></path></g><g><path></path></g></g><g style="display: none;"><g><g><path></path><path stroke-linecap="round" stroke-linejoin="round" fill-opacity="0"></path></g><g><path></path><path stroke-linecap="round" stroke-linejoin="round" fill-opacity="0"></path></g><g><path></path><path stroke-linecap="round" stroke-linejoin="round" fill-opacity="0"></path></g><g><path></path><path stroke-linecap="round" stroke-linejoin="round" fill-opacity="0"></path></g><g><path></path><path stroke-linecap="round" stroke-linejoin="round" fill-opacity="0"></path></g></g><g><path></path></g><g><path></path></g><g><path></path></g><g><path></path></g></g><g style="display: none;"><g><g><path></path><path stroke-linecap="round" stroke-linejoin="round" fill-opacity="0"></path></g><g><path></path><path stroke-linecap="round" stroke-linejoin="round" fill-opacity="0"></path></g><g><path></path><path stroke-linecap="round" stroke-linejoin="round" fill-opacity="0"></path></g><g><path></path><path stroke-linecap="round" stroke-linejoin="round" fill-opacity="0"></path></g></g><g><path></path></g><g><path></path></g></g><g style="display: none;"><g><g><path></path><path stroke-linecap="round" stroke-linejoin="round" fill-opacity="0"></path></g><g><path></path><path stroke-linecap="round" stroke-linejoin="round" fill-opacity="0"></path></g><g><path></path><path stroke-linecap="round" stroke-linejoin="round" fill-opacity="0"></path></g><g><path></path><path stroke-linecap="round" stroke-linejoin="round" fill-opacity="0"></path></g><g><path></path><path stroke-linecap="round" stroke-linejoin="round" fill-opacity="0"></path></g><g><path></path><path stroke-linecap="round" stroke-linejoin="round" fill-opacity="0"></path></g></g><g><g><path></path></g></g></g></g><g clip-path="url(#__lottie_element_4987)" style="display: none;"><g style="display: none;"><g><g><path></path><path stroke-linecap="round" stroke-linejoin="round" fill-opacity="0"></path></g><g><path></path><path stroke-linecap="round" stroke-linejoin="round" fill-opacity="0"></path></g><g><path></path><path stroke-linecap="round" stroke-linejoin="round" fill-opacity="0"></path></g><g><path></path><path stroke-linecap="round" stroke-linejoin="round" fill-opacity="0"></path></g><g><path></path><path stroke-linecap="round" stroke-linejoin="round" fill-opacity="0"></path></g><g><path></path><path stroke-linecap="round" stroke-linejoin="round" fill-opacity="0"></path></g></g><g><path></path></g><g><path></path></g></g><g style="display: none;"><g><g><path></path><path stroke-linecap="round" stroke-linejoin="round" fill-opacity="0"></path></g><g><path></path><path stroke-linecap="round" stroke-linejoin="round" fill-opacity="0"></path></g><g><path></path><path stroke-linecap="round" stroke-linejoin="round" fill-opacity="0"></path></g><g><path></path><path stroke-linecap="round" stroke-linejoin="round" fill-opacity="0"></path></g></g><g><path></path></g><g><path></path></g><g><path></path></g></g><g style="display: none;"><g><g><path></path><path stroke-linecap="round" stroke-linejoin="round" fill-opacity="0"></path></g><g><path></path><path stroke-linecap="round" stroke-linejoin="round" fill-opacity="0"></path></g><g><path></path><path stroke-linecap="round" stroke-linejoin="round" fill-opacity="0"></path></g></g><g><path></path></g><g><path></path></g></g><g style="display: none;"><g><g><path></path><path stroke-linecap="round" stroke-linejoin="round" fill-opacity="0"></path></g><g><path></path><path stroke-linecap="round" stroke-linejoin="round" fill-opacity="0"></path></g></g><g><path></path></g><g><path></path></g><g><path></path></g><g><path></path></g><g><path></path></g></g><g style="display: none;"><g><g><path></path><path stroke-linecap="round" stroke-linejoin="round" fill-opacity="0"></path></g><g><path></path><path stroke-linecap="round" stroke-linejoin="round" fill-opacity="0"></path></g></g><g><path></path></g><g><path></path></g><g><path></path></g></g><g style="display: none;"><g><g><path></path><path stroke-linecap="round" stroke-linejoin="round" fill-opacity="0"></path></g><g><path></path><path stroke-linecap="round" stroke-linejoin="round" fill-opacity="0"></path></g><g><path></path><path stroke-linecap="round" stroke-linejoin="round" fill-opacity="0"></path></g><g><path></path><path stroke-linecap="round" stroke-linejoin="round" fill-opacity="0"></path></g><g><path></path><path stroke-linecap="round" stroke-linejoin="round" fill-opacity="0"></path></g></g><g><path></path></g><g><path></path></g><g><path></path></g><g><path></path></g></g><g style="display: none;"><g><g><path></path><path stroke-linecap="round" stroke-linejoin="round" fill-opacity="0"></path></g><g><path></path><path stroke-linecap="round" stroke-linejoin="round" fill-opacity="0"></path></g><g><path></path><path stroke-linecap="round" stroke-linejoin="round" fill-opacity="0"></path></g><g><path></path><path stroke-linecap="round" stroke-linejoin="round" fill-opacity="0"></path></g></g><g><path></path></g><g><path></path></g></g><g style="display: none;"><g><g><path></path><path stroke-linecap="round" stroke-linejoin="round" fill-opacity="0"></path></g><g><path></path><path stroke-linecap="round" stroke-linejoin="round" fill-opacity="0"></path></g><g><path></path><path stroke-linecap="round" stroke-linejoin="round" fill-opacity="0"></path></g><g><path></path><path stroke-linecap="round" stroke-linejoin="round" fill-opacity="0"></path></g><g><path></path><path stroke-linecap="round" stroke-linejoin="round" fill-opacity="0"></path></g><g><path></path><path stroke-linecap="round" stroke-linejoin="round" fill-opacity="0"></path></g></g><g><g><path></path></g></g></g></g><g clip-path="url(#__lottie_element_4959)" style="display: none;"><g style="display: none;"><g><g><path></path><path stroke-linecap="round" stroke-linejoin="round" fill-opacity="0"></path></g><g><path></path><path stroke-linecap="round" stroke-linejoin="round" fill-opacity="0"></path></g><g><path></path><path stroke-linecap="round" stroke-linejoin="round" fill-opacity="0"></path></g><g><path></path><path stroke-linecap="round" stroke-linejoin="round" fill-opacity="0"></path></g><g><path></path><path stroke-linecap="round" stroke-linejoin="round" fill-opacity="0"></path></g><g><path></path><path stroke-linecap="round" stroke-linejoin="round" fill-opacity="0"></path></g></g><g><path></path></g><g><path></path></g></g><g style="display: none;"><g><g><path></path><path stroke-linecap="round" stroke-linejoin="round" fill-opacity="0"></path></g><g><path></path><path stroke-linecap="round" stroke-linejoin="round" fill-opacity="0"></path></g><g><path></path><path stroke-linecap="round" stroke-linejoin="round" fill-opacity="0"></path></g><g><path></path><path stroke-linecap="round" stroke-linejoin="round" fill-opacity="0"></path></g></g><g><path></path></g><g><path></path></g><g><path></path></g></g><g style="display: none;"><g><g><path></path><path stroke-linecap="round" stroke-linejoin="round" fill-opacity="0"></path></g><g><path></path><path stroke-linecap="round" stroke-linejoin="round" fill-opacity="0"></path></g><g><path></path><path stroke-linecap="round" stroke-linejoin="round" fill-opacity="0"></path></g></g><g><path></path></g><g><path></path></g></g><g style="display: none;"><g><g><path></path><path stroke-linecap="round" stroke-linejoin="round" fill-opacity="0"></path></g><g><path></path><path stroke-linecap="round" stroke-linejoin="round" fill-opacity="0"></path></g></g><g><path></path></g><g><path></path></g><g><path></path></g><g><path></path></g><g><path></path></g></g><g style="display: none;"><g><g><path></path><path stroke-linecap="round" stroke-linejoin="round" fill-opacity="0"></path></g><g><path></path><path stroke-linecap="round" stroke-linejoin="round" fill-opacity="0"></path></g></g><g><path></path></g><g><path></path></g><g><path></path></g></g><g style="display: none;"><g><g><path></path><path stroke-linecap="round" stroke-linejoin="round" fill-opacity="0"></path></g><g><path></path><path stroke-linecap="round" stroke-linejoin="round" fill-opacity="0"></path></g><g><path></path><path stroke-linecap="round" stroke-linejoin="round" fill-opacity="0"></path></g><g><path></path><path stroke-linecap="round" stroke-linejoin="round" fill-opacity="0"></path></g><g><path></path><path stroke-linecap="round" stroke-linejoin="round" fill-opacity="0"></path></g></g><g><path></path></g><g><path></path></g><g><path></path></g><g><path></path></g></g><g style="display: none;"><g><g><path></path><path stroke-linecap="round" stroke-linejoin="round" fill-opacity="0"></path></g><g><path></path><path stroke-linecap="round" stroke-linejoin="round" fill-opacity="0"></path></g><g><path></path><path stroke-linecap="round" stroke-linejoin="round" fill-opacity="0"></path></g><g><path></path><path stroke-linecap="round" stroke-linejoin="round" fill-opacity="0"></path></g></g><g><path></path></g><g><path></path></g></g><g style="display: none;"><g><g><path></path><path stroke-linecap="round" stroke-linejoin="round" fill-opacity="0"></path></g><g><path></path><path stroke-linecap="round" stroke-linejoin="round" fill-opacity="0"></path></g><g><path></path><path stroke-linecap="round" stroke-linejoin="round" fill-opacity="0"></path></g><g><path></path><path stroke-linecap="round" stroke-linejoin="round" fill-opacity="0"></path></g><g><path></path><path stroke-linecap="round" stroke-linejoin="round" fill-opacity="0"></path></g><g><path></path><path stroke-linecap="round" stroke-linejoin="round" fill-opacity="0"></path></g></g><g><g><path></path></g></g></g></g><g style="display: block;" transform="matrix(1.000309944152832,0,0,1.000309944152832,257.6669921875,305.7961730957031)" opacity="1"><g opacity="1" transform="matrix(1,0,0,1,0,0)"><path fill="url(#__lottie_element_4957)" fill-opacity="1" d=" M5.019999980926514,-157.4429931640625 C4.53000020980835,-157.4530029296875 4.039999961853027,-157.4530029296875 3.549999952316284,-157.46299743652344 C2.7009999752044678,-157.47300720214844 1.850000023841858,-157.47300720214844 1,-157.47300720214844 C-109,-158.5 -197.1300048828125,-72.56300354003906 -197.1300048828125,27.636999130249023 C-197.1300048828125,100.71700286865234 -158.27000427246094,140.2469940185547 -103.66000366210938,169.2469940185547 C-94.0999984741211,172.95700073242188 -38.27000045776367,183.61700439453125 -21.760000228881836,178.94700622558594 C-21.469999313354492,179.11700439453125 -21.1200008392334,179.3070068359375 -20.719999313354492,179.51699829101562 C-16.8700008392334,181.58700561523438 -7.949999809265137,185.56700134277344 3.869999885559082,186.07699584960938 C4.679999828338623,186.10699462890625 5.510000228881836,186.1269989013672 6.349999904632568,186.1269989013672 C23.799999237060547,186.1269989013672 32.70000076293945,179.3070068359375 32.70000076293945,179.3070068359375 C32.77000045776367,179.32699584960938 32.83000183105469,179.33700561523438 32.900001525878906,179.35699462890625 C51,183.927001953125 107.82099914550781,171.06700134277344 117.76000213623047,166.82699584960938 C170.97000122070312,137.23699951171875 201.55799865722656,88.49800109863281 198.6300048828125,16.636999130249023 C194,-97 92.06999969482422,-155.61300659179688 5.019999980926514,-157.4429931640625z"></path></g></g><g style="display: block;" transform="matrix(1.000309944152832,0,0,1.000309944152832,257.6669921875,305.7961730957031)" opacity="1"><g opacity="1" transform="matrix(1,0,0,1,0,0)"><path fill="rgb(145,49,11)" fill-opacity="1" d=" M45.31999969482422,135.3209991455078 C45.130001068115234,134.80099487304688 1,134.06100463867188 -0.2199999988079071,139.781005859375 C-0.2199999988079071,139.781005859375 -0.18000000715255737,131.01100158691406 1,127.28099822998047 C2.180000066757202,123.56099700927734 5.78000020980835,121.5009994506836 13.109999656677246,120.21099853515625 C20.440000534057617,118.93099975585938 31.760000228881836,118.03099822998047 36.63999938964844,119.70099639892578 C41.529998779296875,121.37100219726562 42.68000030517578,126.60099792480469 45.31999969482422,135.3209991455078z"></path></g><g opacity="1" transform="matrix(1,0,0,1,0,0)"><path fill="rgb(145,49,11)" fill-opacity="1" d=" M-0.7900000214576721,143.21099853515625 C-1.3300000429153442,146.75100708007812 8.355999946594238,163.01499938964844 7.110000133514404,163.11099243164062 C-108.75,172 -131.27000427246094,62.37099838256836 -133.3800048828125,55.53099822998047 C-133.64999389648438,54.64099884033203 -116.5,50.5 -106.25,73.84100341796875 C-106.25,73.84100341796875 -106.25,73.84100341796875 -106.25,73.85099792480469 C-106.01000213623047,74.36100006103516 -95.70099639892578,103.88500213623047 -61.06999969482422,126.51100158691406 C-31.235000610351562,146.0030059814453 -3.2899999618530273,147.55099487304688 -0.7900000214576721,143.21099853515625z"></path></g><g opacity="1" transform="matrix(1,0,0,1,0,0)"><path fill="rgb(145,49,11)" fill-opacity="1" d=" M133.7899932861328,61.861000061035156 C137.26699829101562,77.13600158691406 112.375,147.375 45.974998474121094,153.76100158691406 C44.3489990234375,153.91700744628906 46.83000183105469,139.79100036621094 45.68000030517578,136.37100219726562 C45.83000183105469,136.46099853515625 48.59299850463867,137.86500549316406 65.05999755859375,126.64099884033203 C95.39099884033203,105.96700286865234 111.81999969482422,71.71099853515625 111.81999969482422,71.71099853515625 C119.125,62 131.375,51.25 133.7899932861328,61.861000061035156z"></path></g><g opacity="1" transform="matrix(1,0,0,1,0,0)"><path fill="rgb(145,49,11)" fill-opacity="1" d=" M-15.649999618530273,90.51100158691406 C-15.670000076293945,91.1510009765625 -16.299999237060547,106.01599884033203 -17.510000228881836,109.01599884033203 C-19.299999237060547,113.44599914550781 -25.239999771118164,114.8010025024414 -25.6200008392334,114.87100219726562 C-25.6200008392334,114.86100006103516 -25.610000610351562,114.86100006103516 -25.610000610351562,114.86100006103516 C-20.959999084472656,113.0510025024414 -21.225000381469727,87.1709976196289 -20.954999923706055,82.99099731445312 C-20.864999771118164,81.58100128173828 -15.649999618530273,90.51100158691406 -15.649999618530273,90.51100158691406z"></path></g></g><g style="display: block;" transform="matrix(1.000309944152832,0,0,1.000309944152832,257.6659851074219,305.79718017578125)" opacity="1"><g opacity="1" transform="matrix(1,0,0,1,0,0)"><path fill="rgb(140,48,11)" fill-opacity="1" d=" M33.150001525878906,54.930999755859375 C14.869999885559082,59.32099914550781 -17.191999435424805,55.108001708984375 -26.84000015258789,52.39099884033203 C-42.875,47.875 -28.329999923706055,35.62099838256836 -27.469999313354492,33.441001892089844 C-27.579999923706055,33.82099914550781 -26.90999984741211,42.51100158691406 -23.34000015258789,43.82099914550781 C-14.8100004196167,46.96099853515625 6.619999885559082,48.6510009765625 23.139999389648438,44.56100082397461 C28.670000076293945,43.191001892089844 29.639999389648438,33.82099914550781 29.559999465942383,33.53099822998047 C30.350000381469727,35.56100082397461 39.279998779296875,53.46099853515625 33.150001525878906,54.930999755859375z"></path></g></g><g style="display: block;" transform="matrix(1.000309944152832,0,0,1.000309944152832,40.27962875366211,128.27317810058594)" opacity="1"><g opacity="1" transform="matrix(1,0,0,1,319.79901123046875,193.69400024414062)"><path fill="rgb(243,108,6)" fill-opacity="1" d=" M-102.34100341796875,-173.76100158691406 C-224.97900390625,-172.47500610351562 -300.99700927734375,-89.83200073242188 -299.8489990234375,9.354999542236328 C-298.47900390625,127.7750015258789 -213.22900390625,171.52499389648438 -182.2689971923828,165.64199829101562 C-191.85400390625,157.39999389648438 -260.4800109863281,106.7750015258789 -260.15899658203125,8.362000465393066 C-259.8030090332031,-100.9209976196289 -182.47900390625,-171.97500610351562 -102.34100341796875,-173.76100158691406z"></path><path stroke-linecap="round" stroke-linejoin="round" fill-opacity="0" stroke="rgb(198,85,0)" stroke-opacity="1" stroke-width="8" d=" M-102.34100341796875,-173.76100158691406 C-224.97900390625,-172.47500610351562 -300.99700927734375,-89.83200073242188 -299.8489990234375,9.354999542236328 C-298.47900390625,127.7750015258789 -213.22900390625,171.52499389648438 -182.2689971923828,165.64199829101562 C-191.85400390625,157.39999389648438 -260.4800109863281,106.7750015258789 -260.15899658203125,8.362000465393066 C-259.8030090332031,-100.9209976196289 -182.47900390625,-171.97500610351562 -102.34100341796875,-173.76100158691406z"></path></g></g><g style="display: none;"><g><path></path><path stroke-linecap="round" stroke-linejoin="round" fill-opacity="0"></path></g></g><g style="display: none;"><g><path></path><path stroke-linecap="round" stroke-linejoin="round" fill-opacity="0"></path></g></g><g style="display: block;" transform="matrix(1.000309944152832,0,0,1.000309944152832,40.27962875366211,128.27317810058594)" opacity="1"><g opacity="1" transform="matrix(1,0,0,1,319.79901123046875,193.69400024414062)"><path fill="rgb(233,101,9)" fill-opacity="1" d=" M-96.84100341796875,-173.64599609375 C14.020999908447266,-169.72500610351562 101.98100280761719,-90.69599914550781 96.6510009765625,8.354999542236328 C88.77100372314453,154.77499389648438 -2.0190000534057617,161.76699829101562 -2.0190000534057617,161.76699829101562 C39.020999908447266,160.77499389648438 96.84100341796875,101.03500366210938 96.84100341796875,8.914999961853027 C96.84100341796875,-100.36900329589844 10.09000015258789,-171.64199829101562 -96.84100341796875,-173.64599609375z"></path><path stroke-linecap="round" stroke-linejoin="round" fill-opacity="0" stroke="rgb(189,71,2)" stroke-opacity="1" stroke-width="8" d=" M-96.84100341796875,-173.64599609375 C14.020999908447266,-169.72500610351562 101.98100280761719,-90.69599914550781 96.6510009765625,8.354999542236328 C88.77100372314453,154.77499389648438 -2.0190000534057617,161.76699829101562 -2.0190000534057617,161.76699829101562 C39.020999908447266,160.77499389648438 96.84100341796875,101.03500366210938 96.84100341796875,8.914999961853027 C96.84100341796875,-100.36900329589844 10.09000015258789,-171.64199829101562 -96.84100341796875,-173.64599609375z"></path></g></g><g style="display: block;" transform="matrix(1.000309944152832,0,0,1.000309944152832,40.27962875366211,128.27317810058594)" opacity="1"><g opacity="1" transform="matrix(1,0,0,1,319.79901123046875,193.69400024414062)"><path fill="rgb(243,108,6)" fill-opacity="1" d=" M-96.84100341796875,-173.64599609375 C-10.07800006866455,-171.44700622558594 62.487998962402344,-90.74199676513672 59.6510009765625,8.41100025177002 C56.020999908447266,135.2740020751953 -18.018999099731445,165.26699829101562 -18.018999099731445,165.26699829101562 C34.301998138427734,168.91600036621094 96.84100341796875,101.03500366210938 96.84100341796875,8.914999961853027 C96.84100341796875,-100.36900329589844 10.09000015258789,-171.64199829101562 -96.84100341796875,-173.64599609375z"></path><path stroke-linecap="round" stroke-linejoin="round" fill-opacity="0" stroke="rgb(198,85,0)" stroke-opacity="1" stroke-width="8" d=" M-96.84100341796875,-173.64599609375 C-10.07800006866455,-171.44700622558594 62.487998962402344,-90.74199676513672 59.6510009765625,8.41100025177002 C56.020999908447266,135.2740020751953 -18.018999099731445,165.26699829101562 -18.018999099731445,165.26699829101562 C34.301998138427734,168.91600036621094 96.84100341796875,101.03500366210938 96.84100341796875,8.914999961853027 C96.84100341796875,-100.36900329589844 10.09000015258789,-171.64199829101562 -96.84100341796875,-173.64599609375z"></path></g></g><g style="display: block;" transform="matrix(1.000309944152832,0,0,1.000309944152832,40.27962875366211,128.27317810058594)" opacity="1"><g opacity="1" transform="matrix(1,0,0,1,219.32000732421875,198.0449981689453)"><path fill="rgb(251,131,16)" fill-opacity="1" d=" M3.0190000534057617,-178.02000427246094 C2.5299999713897705,-178.02999877929688 -0.1509999930858612,-178.0500030517578 -1,-178.0500030517578 C-88.9800033569336,-177.42999267578125 -160.1300048828125,-96.13999938964844 -160.1300048828125,4.059999942779541 C-160.1300048828125,77.13999938964844 -122.2699966430664,140.1699981689453 -67.66000366210938,169.1699981689453 C-58.099998474121094,172.8800048828125 -41.51300048828125,174.7010040283203 -27.760000228881836,170.8699951171875 C-0.8939999938011169,187.2729949951172 26.875,171.17300415039062 26.700000762939453,171.22999572753906 C47.75,177.54800415039062 60.31999969482422,171.98899841308594 70.26000213623047,167.75 C123.47000122070312,138.16000366210938 160.1300048828125,75.9800033569336 160.1300048828125,4.059999942779541 C160.1300048828125,-95.37000274658203 90.06999969482422,-176.19000244140625 3.0190000534057617,-178.02000427246094z M-31.780000686645508,19.6200008392334 C-31.100000381469727,17.290000915527344 -11.609999656677246,-15.819999694824219 -6.460000038146973,-19.739999771118164 C-3.5299999713897705,-21.969999313354492 1.2200000286102295,-22.520000457763672 4.820000171661377,-19.75 C13.098999977111816,-13.369999885559082 29.018999099731445,16.889999389648438 29.549999237060547,18.6299991607666 C29.6299991607666,18.899999618530273 29.709999084472656,19.170000076293945 29.790000915527344,19.43000030517578 C31.049999237060547,23.709999084472656 28.530000686645508,28.8799991607666 22.39900016784668,30.350000381469727 C4.119999885559082,34.73899841308594 -17.399999618530273,32.93000030517578 -26.84000015258789,29.559999465942383 C-30.790000915527344,28.149999618530273 -32.970001220703125,23.760000228881836 -31.780000686645508,19.6200008392334z M90.47699737548828,95.2959976196289 C87.69200134277344,98.50399780273438 83.69999694824219,102.0979995727539 79.25800323486328,105.69599914550781 C74.81600189208984,109.29399871826172 69.92400360107422,112.89600372314453 65.33899688720703,116.12000274658203 C60.75400161743164,119.34400177001953 56.47600173950195,122.18900299072266 53.26100158691406,124.27300262451172 C50.04600143432617,126.35700225830078 47.89400100708008,127.68000030517578 47.5629997253418,127.86000061035156 C47.209999084472656,128.0540008544922 46.619998931884766,127.46800231933594 45.91699981689453,126.42500305175781 C45.2140007019043,125.38200378417969 44.39899826049805,123.88099670410156 43.595001220703125,122.24099731445312 C42.79100036621094,120.60099792480469 41.999000549316406,118.822998046875 41.34299850463867,117.22799682617188 C40.6870002746582,115.63300323486328 40.16699981689453,114.22100067138672 39.90599822998047,113.31099700927734 C39.01100158691406,110.18499755859375 34.31800079345703,108.38500213623047 28.273000717163086,107.83899688720703 C22.22800064086914,107.29299926757812 14.829999923706055,108.00199890136719 8.52299976348877,109.89299774169922 C2.2160000801086426,111.78399658203125 -2.999000072479248,114.85700225830078 -4.677000045776367,119.04199981689453 C-5.081999778747559,120.0530014038086 -5.894999980926514,124.30799865722656 -6.761000156402588,128.3090057373047 C-7.626999855041504,132.30999755859375 -8.545999526977539,136.05499267578125 -9.163000106811523,136.04400634765625 C-29.033000946044922,135.69400024414062 -47.04600143432617,129.2740020751953 -61.55400085449219,121.45800018310547 C-76.06199645996094,113.64199829101562 -87.06600189208984,104.42900085449219 -92.91999816894531,98.49500274658203 C-104.53399658203125,86.72599792480469 -112.27400207519531,75.75199890136719 -117.37200164794922,66.86599731445312 C-122.47000122070312,57.97999954223633 -124.927001953125,51.18299865722656 -125.9729995727539,47.76499938964844 C-126.10700225830078,47.31999969482422 -115.58399963378906,50.53799819946289 -104.22799682617188,54.10200119018555 C-92.87200164794922,57.66600036621094 -80.68099975585938,61.577999114990234 -77.48100280761719,62.52399826049805 C-75.4229965209961,63.13199996948242 -75.5,68.3219985961914 -74.81600189208984,73.9530029296875 C-74.13200378417969,79.58399963378906 -72.68699645996094,85.65699768066406 -67.58599853515625,88.03099822998047 C-65.41799926757812,89.04000091552734 -58.56100082397461,91.3550033569336 -51.005001068115234,93.01100158691406 C-43.44900131225586,94.66699981689453 -35.19300079345703,95.66600036621094 -30.226999282836914,94.04299926757812 C-28.375,93.43800354003906 -26.910999298095703,88.79399871826172 -25.878999710083008,83.77999877929688 C-24.847000122070312,78.76599884033203 -24.246000289916992,73.38099670410156 -24.118999481201172,71.29399871826172 C-24.07699966430664,70.58999633789062 -9.373000144958496,70.95700073242188 9.491000175476074,70.49700164794922 C28.354999542236328,70.03700256347656 51.38100051879883,68.7509994506836 68.06700134277344,64.74299621582031 C81.86100006103516,61.42900085449219 94.93900299072266,56.516998291015625 104.53900146484375,52.54499816894531 C114.13899993896484,48.573001861572266 120.26200103759766,45.540000915527344 120.14600372314453,45.98400115966797 C118.16200256347656,53.53499984741211 114.66400146484375,61.356998443603516 109.7020034790039,69.54399871826172 C104.73999786376953,77.73100280761719 98.31500244140625,86.28299713134766 90.47699737548828,95.2959976196289z"></path></g><g opacity="1" transform="matrix(1,0,0,1,219.32000732421875,159.7550048828125)"><path fill="rgb(253,155,19)" fill-opacity="1" d=" M0,-133.75999450683594 C-68.29900360107422,-127.45500183105469 -74.9800033569336,34.59000015258789 -74.9800033569336,43.790000915527344 C-74.9800033569336,73.33000183105469 -71.93000030517578,101.18000030517578 -66.54000091552734,125.68000030517578 C-66.22000122070312,125.99099731445312 -55.48699951171875,134.83099365234375 -27.621000289916992,132.5800018310547 C-27.621000289916992,132.57000732421875 -27.610000610351562,132.57000732421875 -27.610000610351562,132.57000732421875 C-22.959999084472656,130.75999450683594 -21.108999252319336,115.48799896240234 -21.378000259399414,108.83799743652344 C-21.434999465942383,107.42500305175781 27.37299919128418,113.23300170898438 70.83899688720703,102.12000274658203 C77.95800018310547,-20.190000534057617 56.45199966430664,-138.9709930419922 0,-133.75999450683594z M22.39900016784668,68.63999938964844 C4.119999885559082,73.02999877929688 -17.399999618530273,71.22000122070312 -26.84000015258789,67.8499984741211 C-30.790000915527344,66.44000244140625 -32.970001220703125,62.04999923706055 -31.780000686645508,57.9109992980957 C-31.10099983215332,55.58000183105469 -11.609999656677246,22.469999313354492 -6.460000038146973,18.549999237060547 C-3.5299999713897705,16.31999969482422 1.218999981880188,15.770000457763672 4.820000171661377,18.540000915527344 C13.098999977111816,24.920000076293945 29.018999099731445,55.18000030517578 29.548999786376953,56.91999816894531 C29.628999710083008,57.189998626708984 29.709999084472656,57.459999084472656 29.790000915527344,57.720001220703125 C31.048999786376953,62 28.530000686645508,67.16999816894531 22.39900016784668,68.63999938964844z"></path></g><g opacity="1" transform="matrix(1,0,0,1,0,0)"><g opacity="1" transform="matrix(1,0,0,1,219.32000732421875,198.0489959716797)"><path stroke-linecap="round" stroke-linejoin="round" fill-opacity="0" stroke="rgb(198,85,0)" stroke-opacity="1" stroke-width="8" d=" M160.1300048828125,4.059000015258789 C160.1300048828125,75.9800033569336 123.47000122070312,138.16099548339844 70.26000213623047,167.75 C60.31999969482422,171.99099731445312 45,175.8489990234375 26.900999069213867,171.27999877929688 C26.829999923706055,171.25900268554688 26.770000457763672,171.24899291992188 26.700000762939453,171.22999572753906 C26.700000762939453,171.22999572753906 17.799999237060547,178.0500030517578 0.3499999940395355,178.0500030517578 C-13.979999542236328,178.0500030517578 -24.510000228881836,172.75900268554688 -27.760000228881836,170.8699951171875 C-44.27000045776367,175.53900146484375 -58.099998474121094,172.8800048828125 -67.66000366210938,169.1699981689453 C-122.2699966430664,140.1699981689453 -160.1300048828125,77.13899993896484 -160.1300048828125,4.059000015258789 C-160.1300048828125,-96.14099884033203 -88.9800033569336,-177.42999267578125 -1,-178.0489959716797 C-0.15000000596046448,-178.0489959716797 0.699999988079071,-178.0500030517578 1.5499999523162842,-178.04100036621094 C2.0399999618530273,-178.02999877929688 2.5299999713897705,-178.0290069580078 3.0199999809265137,-178.02000427246094 C90.06999969482422,-176.19000244140625 160.1300048828125,-95.37100219726562 160.1300048828125,4.059000015258789z"></path></g><g opacity="1" transform="matrix(1,0,0,1,219.39599609375,53.73699951171875)"><path stroke-linecap="round" stroke-linejoin="round" fill-opacity="0" stroke="rgb(225,108,0)" stroke-opacity="1" stroke-width="8" d=" M-54.369998931884766,27.358999252319336 C-40.7130012512207,-6.585000038146973 -21.437999725341797,-27.738000869750977 -0.07699999958276749,-27.738000869750977 C21.364999771118164,-27.738000869750977 40.70399856567383,-6.427000045776367 54.369998931884766,27.738000869750977"></path></g><g opacity="1" transform="matrix(1,0,0,1,145.81399536132812,222.34800720214844)"><path stroke-linecap="round" stroke-linejoin="round" fill-opacity="0" stroke="rgb(225,108,0)" stroke-opacity="1" stroke-width="8" d=" M1.475000023841858,30.663999557495117 C-0.4449999928474426,14.96399974822998 -1.475000023841858,-1.6330000162124634 -1.475000023841858,-18.798999786376953 C-1.475000023841858,-22.785999298095703 -1.4190000295639038,-26.742000579833984 -1.309999942779541,-30.663999557495117"></path></g><g opacity="1" transform="matrix(1,0,0,1,219.8300018310547,356.1910095214844)"><path stroke-linecap="round" stroke-linejoin="round" fill-opacity="0" stroke="rgb(225,108,0)" stroke-opacity="1" stroke-width="8" d=" M49.28900146484375,-19.906999588012695 C42.6150016784668,-5.855000019073486 34.874000549316406,5.414999961853027 26.391000747680664,13.138999938964844 C26.31999969482422,13.118000030517578 17.290000915527344,19.908000946044922 -0.1599999964237213,19.908000946044922 C-14.489999771118164,19.908000946044922 -23.700000762939453,15.447999954223633 -26.950000762939453,13.559000015258789 C-35.18299865722656,6.206999778747559 -42.72800064086914,-4.47599983215332 -49.28900146484375,-17.79800033569336"></path></g><g opacity="1" transform="matrix(1,0,0,1,292.7049865722656,223.33099365234375)"><path stroke-linecap="round" stroke-linejoin="round" fill-opacity="0" stroke="rgb(225,108,0)" stroke-opacity="1" stroke-width="7.772" d=" M1.430999994277954,-31.617000579833984 C1.5390000343322754,-27.70599937438965 1.5950000286102295,-23.757999420166016 1.5950000286102295,-19.7810001373291 C1.5950000286102295,-1.909000039100647 0.4790000021457672,15.347000122070312 -1.5950000286102295,31.617000579833984"></path></g></g></g><g style="display: none;"><g><path></path><path stroke-linecap="round" stroke-linejoin="round" fill-opacity="0"></path></g></g><g style="display: block;" transform="matrix(1.000309944152832,0,0,1.000309944152832,257.6669921875,305.79718017578125)" opacity="0.5"><g opacity="1" transform="matrix(1,0,0,1,0,0)"><path fill="rgb(255,201,105)" fill-opacity="1" d=" M124.18099975585938,66.43599700927734 C125.43000030517578,113.35700225830078 54.98699951171875,154.2449951171875 50.73699951171875,155.85499572753906 C46.49700164794922,157.47500610351562 44.36399841308594,137.52999877929688 38.060001373291016,136.5469970703125 C32.224998474121094,135.63699340820312 3.4519999027252197,140.9739990234375 2.7820000648498535,144.32400512695312 C2.111999988555908,147.66400146484375 0.10000000149011612,160.7169952392578 -0.6700000166893005,163.02699279785156 C-1.440000057220459,165.3470001220703 -56.01100158691406,168.88499450683594 -97.83999633789062,118.78700256347656 C-119.75800323486328,92.53700256347656 -122.62999725341797,68.5270004272461 -122.62999725341797,68.5270004272461 C-120.5199966430664,75.36699676513672 -112.7300033569336,95.72699737548828 -89.36000061035156,119.30699920654297 C-61.33000183105469,147.5970001220703 -32.90800094604492,156.67599487304688 -6.208000183105469,156.906005859375 C-4.958000183105469,156.91600036621094 -2.8010001182556152,141.75100708007812 -2.6010000705718994,139.572998046875 C-1.7619999647140503,130.44900512695312 33.553001403808594,120.31900024414062 42.92499923706055,133.92599487304688 C45.07099914550781,137.04100036621094 49.58399963378906,148.75999450683594 51.013999938964844,147.97000122070312 C58.83399963378906,143.66000366210938 80.62300109863281,130.17300415039062 94.29299926757812,114.7229995727539 C110.27300262451172,96.6729965209961 118.29499816894531,78.0989990234375 124.18099975585938,66.43599700927734z"></path></g></g><g style="display: block;" transform="matrix(1.000309944152832,0,0,1.000309944152832,257.6659851074219,305.79718017578125)" opacity="0.5"><g opacity="1" transform="matrix(1,0,0,1,0,0)"><path fill="rgb(255,201,105)" fill-opacity="1" d=" M24.399999618530273,58.96699905395508 C6.119999885559082,63.676998138427734 -15.399999618530273,61.73699951171875 -24.84000015258789,58.12699890136719 C-28.790000915527344,56.606998443603516 -32.94900131225586,50.715999603271484 -30.909000396728516,43.22600173950195 C-30.229000091552734,40.72600173950195 -28.790000915527344,48.72700119018555 -24.84000015258789,50.137001037597656 C-15.399999618530273,53.50699996948242 6.119999885559082,55.31700134277344 24.399999618530273,50.926998138427734 C30.530000686645508,49.457000732421875 31.531999588012695,43.305999755859375 31.61199951171875,43.58599853515625 C33.6619987487793,51.125999450683594 30.530000686645508,57.39699935913086 24.399999618530273,58.96699905395508z"></path></g></g><g style="display: block;" transform="matrix(1.000309944152832,0,0,1.000309944152832,257.6669921875,305.79718017578125)" opacity="0.5"><g opacity="1" transform="matrix(1,0,0,1,0,0)"><path fill="rgb(255,201,105)" fill-opacity="1" d=" M-40.220001220703125,-37.17300033569336 C-41.810001373291016,-21.80299949645996 -52.31999969482422,8.88700008392334 -76.7300033569336,6.7870001792907715 C-98.41999816894531,4.916999816894531 -106.2300033569336,-14.583000183105469 -104.95999908447266,-35.92300033569336 C-103.8499984741211,-17.843000411987305 -94.7300033569336,-2.683000087738037 -75.7300033569336,-1.0429999828338623 C-53.75,0.847000002861023 -40.119998931884766,-38.12300109863281 -40.220001220703125,-37.17300033569336z"></path></g></g><g style="display: block;" transform="matrix(1.000309944152832,0,0,1.000309944152832,257.6669921875,305.79718017578125)" opacity="0.5"><g opacity="1" transform="matrix(1,0,0,1,0,0)"><path fill="rgb(255,201,105)" fill-opacity="1" d=" M42.28300094604492,-37.17300033569336 C43.87300109863281,-21.80299949645996 54.38399887084961,8.88700008392334 78.79399871826172,6.7870001792907715 C100.48400115966797,4.916999816894531 108.29399871826172,-14.583000183105469 107.02400207519531,-35.92300033569336 C105.91400146484375,-17.843000411987305 96.79000091552734,-2.7309999465942383 77.79399871826172,-1.0429999828338623 C50.801998138427734,1.3550000190734863 42.18299865722656,-38.12300109863281 42.28300094604492,-37.17300033569336z"></path></g></g><g style="display: block;" transform="matrix(1.000309944152832,0,0,1.000309944152832,257.6669921875,305.7961730957031)" opacity="0.25"><g opacity="1" transform="matrix(1,0,0,1,0,0)"><path fill="rgb(147,21,0)" fill-opacity="1" d=" M1,-157.468994140625 C-108.05000305175781,-157.468994140625 -197.32000732421875,-84.68900299072266 -197.32000732421875,25.141000747680664 C-197.32000732421875,115.88099670410156 -134.7899932861328,186.51100158691406 -80.0199966430664,181.74099731445312 C-80.0199966430664,181.74099731445312 -57.9900016784668,200.5709991455078 -25.760000228881836,191.4510040283203 C-22.510000228881836,193.34100341796875 -11.979999542236328,198.63099670410156 2.3499999046325684,198.63099670410156 C19.799999237060547,198.63099670410156 28.700000762939453,191.81100463867188 28.700000762939453,191.81100463867188 C28.770000457763672,191.83099365234375 28.829999923706055,191.84100341796875 28.899999618530273,191.86099243164062 C61.08000183105469,199.9810028076172 84.45999908447266,181.49099731445312 84.45999908447266,181.49099731445312 C136.77999877929688,185.14100646972656 199.32000732421875,117.26100158691406 199.32000732421875,25.141000747680664 C199.32000732421875,-85.71900177001953 110.05000305175781,-157.468994140625 1,-157.468994140625z M128.64700317382812,136.08799743652344 C85.44200134277344,170.52999877929688 49.59000015258789,163.281005859375 49.59000015258789,163.281005859375 C-2.7249999046325684,186.69400024414062 -45.63999938964844,163.281005859375 -45.63999938964844,163.281005859375 C-87.26899719238281,169.09800720214844 -126.14900207519531,136.08799743652344 -126.14900207519531,136.08799743652344 C-126.14900207519531,136.08799743652344 -153.6439971923828,122.4000015258789 -167.07000732421875,88.1709976196289 C-179.53799438476562,56.38399887084961 -188.2729949951172,4.36899995803833 -159.843994140625,-49.76100158691406 C-128.26800537109375,-109.88300323486328 -77.79000091552734,-132.93899536132812 -77.79000091552734,-132.93899536132812 C-51.81999969482422,-143.99899291992188 -21.207000732421875,-108.06500244140625 0.6010000109672546,-108.93599700927734 C20.73900032043457,-109.74099731445312 60.35599899291992,-143.1580047607422 81.9000015258789,-132.93899536132812 C107.4530029296875,-120.81800079345703 139.24000549316406,-89.48899841308594 157.24000549316406,-60.68899917602539 C175.24000549316406,-31.888999938964844 189.927001953125,12.798999786376953 177.3300018310547,67.19100189208984 C164.01400756835938,124.68699645996094 128.64700317382812,136.08799743652344 128.64700317382812,136.08799743652344z"></path></g></g><g style="display: none;"><g><g><path></path></g></g><g><path></path></g><g><path></path></g><g><path></path></g><g><path stroke-linecap="round" stroke-linejoin="round" fill-opacity="0"></path></g><g><path stroke-linecap="round" stroke-linejoin="round" fill-opacity="0"></path></g><g><path stroke-linecap="round" stroke-linejoin="round" fill-opacity="0"></path></g><g><path stroke-linecap="round" stroke-linejoin="round" fill-opacity="0"></path></g><g><path stroke-linecap="round" stroke-linejoin="round" fill-opacity="0"></path></g><g><path stroke-linecap="round" stroke-linejoin="round" fill-opacity="0"></path></g></g><g style="display: block;" transform="matrix(1.000309944152832,0,0,1.000309944152832,257.6669616699219,305.7961730957031)" opacity="1"><g opacity="1" transform="matrix(1,0,0,1,0,0)"><path fill="rgb(120,173,10)" fill-opacity="1" d=" M41.95199966430664,-174.12399291992188 C38.334999084472656,-162.25 71.86699676513672,-154.9080047607422 68.63899993896484,-149.7729949951172 C43.810001373291016,-153.49899291992188 9.61400032043457,-119.83100128173828 0.48100000619888306,-121.24199676513672 C-8.652000427246094,-122.65299987792969 -38.611000061035156,-151.57400512695312 -68.29199981689453,-149.8939971923828 C-70.70999908447266,-155.94000244140625 -42.51599884033203,-162.7209930419922 -39.715999603271484,-171.9770050048828 C-39.595001220703125,-175.70700073242188 -40.20600128173828,-191.2449951171875 -37.395999908447266,-193.70199584960938 C-9.21500015258789,-218.33700561523438 30.94499969482422,-200.88400268554688 40.32699966430664,-193.38800048828125 C43.26900100708008,-191.03700256347656 43.042999267578125,-177.7310028076172 41.95199966430664,-174.12399291992188z"></path></g></g><g style="display: block;" transform="matrix(1.000309944152832,0,0,1.000309944152832,257.6669616699219,305.7961730957031)" opacity="1"><g opacity="1" transform="matrix(1,0,0,1,0,0)"><g opacity="1" transform="matrix(1,0,0,1,0,0)"><path stroke-linecap="round" stroke-linejoin="round" fill-opacity="0" stroke="rgb(102,146,11)" stroke-opacity="1" stroke-width="8" d=" M43.15599822998047,-151.9600067138672 C43.15599822998047,-151.9600067138672 37.027000427246094,-167.0189971923828 16.50200080871582,-163.9499969482422"></path></g><g opacity="1" transform="matrix(1,0,0,1,-12.5,5.556000232696533)"><path stroke-linecap="round" stroke-linejoin="round" fill-opacity="0" stroke="rgb(102,146,11)" stroke-opacity="1" stroke-width="8" d=" M40.9739990234375,-149.91700744628906 C40.9739990234375,-149.91700744628906 36.944000244140625,-160 29.695999145507812,-166.72799682617188"></path></g><g opacity="1" transform="matrix(1,0,0,1,0,0)"><path stroke-linecap="round" stroke-linejoin="round" fill-opacity="0" stroke="rgb(102,146,11)" stroke-opacity="1" stroke-width="8" d=" M1.027999997138977,-126.90499877929688 C1.059000015258789,-143.45700073242188 0.2770000100135803,-150.41700744628906 1.0390000343322754,-157.3280029296875"></path></g><g opacity="1" transform="matrix(1,0,0,1,0,0)"><path stroke-linecap="round" stroke-linejoin="round" fill-opacity="0" stroke="rgb(102,146,11)" stroke-opacity="1" stroke-width="8" d=" M-22.8439998626709,-141.3820037841797 C-21.89699935913086,-151.06300354003906 -19.722000122070312,-154.7220001220703 -16.173999786376953,-160.5800018310547"></path></g><g opacity="1" transform="matrix(1,0,0,1,0,0)"><path stroke-linecap="round" stroke-linejoin="round" fill-opacity="0" stroke="rgb(102,146,11)" stroke-opacity="1" stroke-width="8" d=" M-41.18899917602539,-150.31300354003906 C-41.18899917602539,-150.31300354003906 -38.194000244140625,-159.30499267578125 -27.910999298095703,-164.22799682617188"></path></g></g><g opacity="1" transform="matrix(1,0,0,1,0,0)"><g opacity="1" transform="matrix(1,0,0,1,0,0)"><path stroke-linecap="round" stroke-linejoin="round" fill-opacity="0" stroke="rgb(102,146,11)" stroke-opacity="1" stroke-width="8" d=" M32.25899887084961,-190.4010009765625 C32.25899887084961,-190.4010009765625 26.392000198364258,-181.49000549316406 31.516000747680664,-165.02000427246094"></path></g><g opacity="1" transform="matrix(1,0,0,1,0,0)"><path stroke-linecap="round" stroke-linejoin="round" fill-opacity="0" stroke="rgb(102,146,11)" stroke-opacity="1" stroke-width="8" d=" M18.95400047302246,-164.70599365234375 C18.95400047302246,-164.70599365234375 13.28499984741211,-173.82200622558594 18.398000717163086,-196.70399475097656"></path></g><g opacity="1" transform="matrix(1,0,0,1,0,0)"><path stroke-linecap="round" stroke-linejoin="round" fill-opacity="0" stroke="rgb(102,146,11)" stroke-opacity="1" stroke-width="8" d=" M0.6449999809265137,-160.74000549316406 C0.6449999809265137,-160.74000549316406 0.46299999952316284,-198.85499572753906 0.46299999952316284,-198.85499572753906"></path></g><g opacity="1" transform="matrix(1,0,0,1,0,0)"><path stroke-linecap="round" stroke-linejoin="round" fill-opacity="0" stroke="rgb(102,146,11)" stroke-opacity="1" stroke-width="8" d=" M-17.30699920654297,-164.70599365234375 C-17.30699920654297,-164.70599365234375 -11.685999870300293,-173.70199584960938 -16.798999786376953,-196.58399963378906"></path></g><g opacity="1" transform="matrix(1,0,0,1,0,0)"><path stroke-linecap="round" stroke-linejoin="round" fill-opacity="0" stroke="rgb(102,146,11)" stroke-opacity="1" stroke-width="8" d=" M-30.638999938964844,-194.3520050048828 C-30.638999938964844,-194.3520050048828 -24.697999954223633,-182.03599548339844 -30.06100082397461,-165.02000427246094"></path></g></g><g opacity="1" transform="matrix(1,0,0,1,78.28499603271484,-3.031005859375)"><g opacity="0" transform="matrix(1,0,0,1,0,0)"><path stroke-linecap="round" stroke-linejoin="round" fill-opacity="0" stroke="rgb(102,146,11)" stroke-opacity="1" stroke-width="8" d=" M0.6449999809265137,-160.74000549316406 C0.6449999809265137,-160.74000549316406 -0.04100000113248825,-195.81100463867188 -0.04100000113248825,-195.81100463867188"></path></g><g opacity="0" transform="matrix(1,0,0,1,0,0)"><path stroke-linecap="round" stroke-linejoin="round" fill-opacity="0" stroke="rgb(102,146,11)" stroke-opacity="1" stroke-width="8" d=" M-15.62399959564209,-164.4600067138672 C-15.62399959564209,-164.4600067138672 -14.041000366210938,-174.8800048828125 -15.960000038146973,-196.5989990234375"></path></g><g opacity="0" transform="matrix(1,0,0,1,0,0)"><path stroke-linecap="round" stroke-linejoin="round" fill-opacity="0" stroke="rgb(102,146,11)" stroke-opacity="1" stroke-width="8" d=" M-30.947999954223633,-196.00100708007812 C-30.947999954223633,-196.00100708007812 -30.363000869750977,-180.11099243164062 -30.06100082397461,-165.02000427246094"></path></g></g><g opacity="1" transform="matrix(1,0,0,1,0,0)"><g opacity="1" transform="matrix(1,0,0,1,16.66699981689453,-0.27799999713897705)"><path stroke-linecap="round" stroke-linejoin="round" fill-opacity="0" stroke="rgb(57,98,15)" stroke-opacity="1" stroke-width="8" d=" M33.4119987487793,-162.30799865722656 C29.238000869750977,-165.04200744628906 23.71500015258789,-166.27200317382812 16.50200080871582,-163.9499969482422"></path></g><g opacity="1" transform="matrix(1,0,0,1,0,0)"><path stroke-linecap="round" stroke-linejoin="round" fill-opacity="0" stroke="rgb(57,98,15)" stroke-opacity="1" stroke-width="8" d=" M33.4119987487793,-162.30799865722656 C29.238000869750977,-165.04200744628906 23.71500015258789,-166.27200317382812 16.50200080871582,-163.9499969482422"></path></g><g opacity="1" transform="matrix(1,0,0,1,0,0)"><path stroke-linecap="round" stroke-linejoin="round" fill-opacity="0" stroke="rgb(57,98,15)" stroke-opacity="1" stroke-width="8" d=" M0.8849999904632568,-157.6199951171875 C0.8849999904632568,-157.6199951171875 1.6480000019073486,-159.87600708007812 2.2839999198913574,-161.23300170898438 C5.901000022888184,-168.94700622558594 14.001999855041504,-167.18800354003906 18.961000442504883,-159.9669952392578"></path></g><g opacity="1" transform="matrix(1,0,0,1,0,0)"><path stroke-linecap="round" stroke-linejoin="round" fill-opacity="0" stroke="rgb(57,98,15)" stroke-opacity="1" stroke-width="8" d=" M-17.30900001525879,-160.4510040283203 C-16.222000122070312,-161.94900512695312 -14.991999626159668,-163.2169952392578 -13.696999549865723,-164.20399475097656 C-9.072999954223633,-167.72900390625 -3.619999885559082,-167.67599487304688 -0.8989999890327454,-161.75799560546875 C-0.20600000023841858,-160.25100708007812 0.6940000057220459,-157.88099670410156 0.6940000057220459,-157.88099670410156"></path></g><g opacity="1" transform="matrix(1,0,0,1,0,0)"><path stroke-linecap="round" stroke-linejoin="round" fill-opacity="0" stroke="rgb(57,98,15)" stroke-opacity="1" stroke-width="8" d=" M-31.631000518798828,-162.30499267578125 C-27.457000732421875,-165.04100036621094 -21.93199920654297,-166.2729949951172 -14.717000007629395,-163.9499969482422"></path></g><g opacity="1" transform="matrix(1,0,0,1,0,0)"><path stroke-linecap="round" stroke-linejoin="round" fill-opacity="0" stroke="rgb(57,98,15)" stroke-opacity="1" stroke-width="8" d=" M-28.472000122070312,-163.9499969482422 C-33.801998138427734,-168.76300048828125 -46.12200164794922,-163.9499969482422 -46.12200164794922,-163.9499969482422"></path></g></g><g opacity="1" transform="matrix(1,0,0,1,98.73400115966797,-2.0320000648498535)"><g opacity="0" transform="matrix(1,0,0,1,16.66699981689453,-0.27799999713897705)"><path stroke-linecap="round" stroke-linejoin="round" fill-opacity="0" stroke="rgb(57,98,15)" stroke-opacity="1" stroke-width="8" d=" M34.77799987792969,-162.83099365234375 C30.604000091552734,-165.56500244140625 24.00200080871582,-166.1009979248047 17.586000442504883,-162.81399536132812"></path></g><g opacity="0" transform="matrix(1,0,0,1,0,0)"><path stroke-linecap="round" stroke-linejoin="round" fill-opacity="0" stroke="rgb(57,98,15)" stroke-opacity="1" stroke-width="8" d=" M34.61600112915039,-163.4669952392578 C30.441999435424805,-166.2010040283203 24.191999435424805,-166.21499633789062 17.746000289916992,-162.30599975585938"></path></g><g opacity="0" transform="matrix(1,0,0,1,0,0)"><path stroke-linecap="round" stroke-linejoin="round" fill-opacity="0" stroke="rgb(57,98,15)" stroke-opacity="1" stroke-width="8" d=" M1.6670000553131104,-161.73699951171875 C3.7290000915527344,-167.41299438476562 15.048999786376953,-165.35899353027344 18.485000610351562,-161.23699951171875"></path></g><g opacity="0" transform="matrix(1,0,0,1,0,0)"><path stroke-linecap="round" stroke-linejoin="round" fill-opacity="0" stroke="rgb(57,98,15)" stroke-opacity="1" stroke-width="8" d=" M-15.508000373840332,-162.78399658203125 C-10.883999824523926,-166.3090057373047 -4.188000202178955,-166.18699645996094 -0.2939999997615814,-162.14700317382812"></path></g><g opacity="0" transform="matrix(1,0,0,1,0,0)"><path stroke-linecap="round" stroke-linejoin="round" fill-opacity="0" stroke="rgb(57,98,15)" stroke-opacity="1" stroke-width="8" d=" M-32.542999267578125,-162.04100036621094 C-28.368999481201172,-164.77699279785156 -21.579999923706055,-166.01300048828125 -16.832000732421875,-162.52699279785156"></path></g><g opacity="0" transform="matrix(1,0,0,1,0,0)"><path stroke-linecap="round" stroke-linejoin="round" fill-opacity="0" stroke="rgb(57,98,15)" stroke-opacity="1" stroke-width="8" d=" M-32.42599868774414,-163.0189971923828 C-38.071998596191406,-166.86900329589844 -46.099998474121094,-162.42100524902344 -46.099998474121094,-162.42100524902344"></path></g></g><g opacity="1" transform="matrix(1,0,0,1,197.46800231933594,-4.065000057220459)"><g opacity="0" transform="matrix(1,0,0,1,0,0)"><path stroke-linecap="round" stroke-linejoin="round" fill-opacity="0" stroke="rgb(57,98,15)" stroke-opacity="1" stroke-width="8" d=" M34.7869987487793,-162.19400024414062 C30.613000869750977,-164.92799377441406 23.375999450683594,-167.07000732421875 18.211000442504883,-161.80099487304688"></path></g><g opacity="0" transform="matrix(1,0,0,1,0,0)"><path stroke-linecap="round" stroke-linejoin="round" fill-opacity="0" stroke="rgb(57,98,15)" stroke-opacity="1" stroke-width="8" d=" M2.2839999198913574,-161.23300170898438 C7.357999801635742,-166.7830047607422 14.857999801635742,-165.1999969482422 18.79400062561035,-160.98500061035156"></path></g><g opacity="0" transform="matrix(1,0,0,1,0,0)"><path stroke-linecap="round" stroke-linejoin="round" fill-opacity="0" stroke="rgb(57,98,15)" stroke-opacity="1" stroke-width="8" d=" M-13.67199993133545,-162.4199981689453 C-10.9350004196167,-165.58099365234375 -1.9459999799728394,-166.56300354003906 2.3010001182556152,-162.0449981689453"></path></g><g opacity="0" transform="matrix(1,0,0,1,0,0)"><path stroke-linecap="round" stroke-linejoin="round" fill-opacity="0" stroke="rgb(57,98,15)" stroke-opacity="1" stroke-width="8" d=" M-30.559999465942383,-162.06100463867188 C-28.47599983215332,-165.1510009765625 -17.961999893188477,-166.1479949951172 -14.229999542236328,-161.91600036621094"></path></g><g opacity="0" transform="matrix(1,0,0,1,0,0)"><path stroke-linecap="round" stroke-linejoin="round" fill-opacity="0" stroke="rgb(57,98,15)" stroke-opacity="1" stroke-width="8" d=" M-30.118999481201172,-161.76699829101562 C-37.81999969482422,-167.73500061035156 -46.090999603271484,-161.78399658203125 -46.090999603271484,-161.78399658203125"></path></g></g></g><g style="display: block;" transform="matrix(1.000309944152832,0,0,1.000309944152832,257.6669616699219,305.7961730957031)" opacity="1"><g opacity="1" transform="matrix(1,0,0,1,0,0)"><path stroke-linecap="round" stroke-linejoin="round" fill-opacity="0" stroke="rgb(57,98,15)" stroke-opacity="1" stroke-width="8" d=" M43.4630012512207,-165.6060028076172 C43.4630012512207,-165.6060028076172 39.02299880981445,-171.30299377441406 43.0260009765625,-184.4530029296875 C44.12300109863281,-188.05599975585938 42.939998626708984,-193.10299682617188 39.21699905395508,-193.66799926757812 C28.472000122070312,-195.29800415039062 30.108999252319336,-203.11300659179688 24.465999603271484,-202.61900329589844 C15.861000061035156,-201.86500549316406 11.930000305175781,-205.91299438476562 8.833000183105469,-206.50100708007812 C4.306000232696533,-207.36099243164062 -0.4399999976158142,-203.5449981689453 -9.394000053405762,-206.29200744628906 C-13.333000183105469,-207.5 -15.694000244140625,-202.49200439453125 -23.902000427246094,-201.97799682617188 C-31.016000747680664,-201.5330047607422 -28.22800064086914,-194.28799438476562 -37.393001556396484,-193.70199584960938 C-41.12200164794922,-193.46400451660156 -42.22800064086914,-188.09500122070312 -41.13600158691406,-184.52099609375 C-37.10599899291992,-171.3350067138672 -41.551998138427734,-165.6060028076172 -41.551998138427734,-165.6060028076172 C-60.90800094604492,-159.3730010986328 -69.18800354003906,-149.25599670410156 -69.18800354003906,-149.25599670410156 C-43.472999572753906,-151.18699645996094 -21.58799934387207,-135.4709930419922 -9.395000457763672,-125.60700225830078 C-3.3519999980926514,-120.71900177001953 5.263000011444092,-120.71900177001953 11.305999755859375,-125.60700225830078 C23.499000549316406,-135.4709930419922 45.38399887084961,-151.18699645996094 71.0989990234375,-149.25599670410156 C71.0989990234375,-149.25599670410156 62.819000244140625,-159.3730010986328 43.4630012512207,-165.6060028076172z"></path></g></g><g style="display: none;"><g><path></path></g><g><path></path></g><g><path stroke-linecap="round" stroke-linejoin="round" fill-opacity="0"></path></g><g><path></path></g><g><path></path></g><g><path></path></g><g><path></path></g><g><path></path></g><g><path></path></g><g><g><path stroke-linecap="round" stroke-linejoin="round" fill-opacity="0"></path></g><g><path stroke-linecap="round" stroke-linejoin="round" fill-opacity="0"></path></g><g><path stroke-linecap="round" stroke-linejoin="round" fill-opacity="0"></path></g><g><path stroke-linecap="round" stroke-linejoin="round" fill-opacity="0"></path></g><g><path stroke-linecap="round" stroke-linejoin="round" fill-opacity="0"></path></g><g><path stroke-linecap="round" stroke-linejoin="round" fill-opacity="0"></path></g><g><path stroke-linecap="round" stroke-linejoin="round" fill-opacity="0"></path></g><g><path stroke-linecap="round" stroke-linejoin="round" fill-opacity="0"></path></g><g><path stroke-linecap="round" stroke-linejoin="round" fill-opacity="0"></path></g></g><g><path stroke-linecap="round" stroke-linejoin="round" fill-opacity="0"></path></g><g><g><path stroke-linecap="round" stroke-linejoin="round" fill-opacity="0"></path></g><g><path stroke-linecap="round" stroke-linejoin="round" fill-opacity="0"></path></g></g></g><g style="display: block;" transform="matrix(1.000309944152832,0,0,1.000309944152832,257.6669921875,253.78005981445312)" opacity="1"><g opacity="1" transform="matrix(1,0,0,1,0,0)"><path stroke-linecap="round" stroke-linejoin="round" fill-opacity="0" stroke="rgb(255,255,255)" stroke-opacity="1" stroke-width="6" d=" M142.73699951171875,-27.55699920654297 C146.18800354003906,-22.9060001373291 149.7760009765625,-17.750999450683594 153.42999267578125,-12.062999725341797"></path></g><g opacity="1" transform="matrix(1,0,0,1,0,0)"><path stroke-linecap="round" stroke-linejoin="round" fill-opacity="0" stroke="rgb(255,255,255)" stroke-opacity="1" stroke-width="6" d=" M158.67799377441406,-3.5889999866485596 C159.0540008544922,-2.9600000381469727 159.43099975585938,-2.3239998817443848 159.8070068359375,-1.684000015258789"></path></g></g><g style="display: none;"><g><g><path></path></g><g><path></path></g></g><g><g><path fill="url(#__lottie_element_4892)"></path></g><g><path></path></g></g></g><g style="display: block;" transform="matrix(0.940931499004364,0,0,1.093328833580017,257.8807067871094,345.40130615234375)" opacity="1"><g opacity="1" transform="matrix(1,0,0,1,0,9)"><g opacity="1" transform="matrix(1,0,0,1,0,0)"><g opacity="1" transform="matrix(1,0,0,1,0,0)"><path fill="url(#__lottie_element_4895)" fill-opacity="1" d=" M94.23899841308594,-47.63199996948242 C93.60399627685547,-47.3380012512207 92.58100128173828,-47.04999923706055 91.88099670410156,-46.880001068115234 C59.361000061035156,-38.96200180053711 44.22999954223633,-69.177001953125 42.97200012207031,-90.92500305175781 C42.97200012207031,-90.92500305175781 39.97100067138672,-123.4260025024414 65.63899993896484,-128.8179931640625 C72.03900146484375,-130.16200256347656 79.95600128173828,-129.22500610351562 84.4749984741211,-127.91400146484375 C91.38300323486328,-125.91000366210938 106.62300109863281,-116.88400268554688 110.5790023803711,-98.77899932861328 C114.93900299072266,-78.8270034790039 112.0199966430664,-55.854000091552734 94.23899841308594,-47.63199996948242z"></path></g><g opacity="1" transform="matrix(1,0,0,1,0,0)"><path fill="rgb(140,48,11)" fill-opacity="1" d=" M79.75800323486328,-45.8380012512207 C130.1699981689453,-69.06900024414062 87.16799926757812,-147.26699829101562 47.61800003051758,-115.8499984741211 C65.91100311279297,-144.43600463867188 105.52799987792969,-125.697998046875 112.22000122070312,-96.23200225830078 C117.68099975585938,-72.18699645996094 106.60199737548828,-43.869998931884766 79.75800323486328,-45.8380012512207z"></path></g></g><g opacity="1" transform="matrix(1,0,0,1,0,0)"><g opacity="1" transform="matrix(1,0,0,1,0,0)"><path fill="url(#__lottie_element_4896)" fill-opacity="1" d=" M-86.51100158691406,-47.20100021362305 C-85.84200286865234,-47.09700012207031 -82.10900115966797,-46.527000427246094 -81.41699981689453,-46.45800018310547 C-57.89500045776367,-44.0989990234375 -43.47999954223633,-68.01200103759766 -40.845001220703125,-91.01899719238281 C-40.845001220703125,-91.01899719238281 -40.50600051879883,-123.16100311279297 -60.66999816894531,-128.2259979248047 C-67.54499816894531,-130.73899841308594 -74.63200378417969,-130.3459930419922 -81.26799774169922,-128.6479949951172 C-89.68499755859375,-126.38099670410156 -104.42900085449219,-116.69999694824219 -109.28099822998047,-99.99700164794922 C-116.79499816894531,-74.12999725341797 -106.0479965209961,-50.24300003051758 -86.51100158691406,-47.20100021362305z"></path></g><g opacity="1" transform="matrix(1,0,0,1,0,0)"><path fill="rgb(140,48,11)" fill-opacity="1" d=" M-77.20700073242188,-46.327999114990234 C-131.19000244140625,-66.84600067138672 -81.75700378417969,-146.2169952392578 -47.108001708984375,-117.16200256347656 C-64.03299713134766,-144.72300720214844 -101.78900146484375,-124.3280029296875 -108.98799896240234,-101.77300262451172 C-116.47699737548828,-78.30999755859375 -112.24400329589844,-47.56399917602539 -77.20700073242188,-46.327999114990234z"></path></g></g></g></g></g></svg>