<svg xmlns="http://www.w3.org/2000/svg" viewBox="0 0 512 512" width="512" height="512" style="width: 100%; height: 100%; transform: translate3d(0,0,0);" preserveAspectRatio="xMidYMid meet"><defs><clipPath id="__lottie_element_5130"><rect width="512" height="512" x="0" y="0"></rect></clipPath></defs><g clip-path="url(#__lottie_element_5130)"><g style="display: none;"><g><path></path></g><g><path></path></g><g><g><path></path></g><g><path></path></g></g><g><path></path></g><g><path stroke-linecap="butt" stroke-linejoin="miter" fill-opacity="0" stroke-miterlimit="10"></path></g><g><g><g><path></path></g></g><g><g><path></path></g></g><g><g><g><path></path></g></g><g><g><path></path></g></g></g></g><g><path stroke-linecap="round" stroke-linejoin="round" fill-opacity="0"></path></g><g><g><path stroke-linecap="round" stroke-linejoin="round" fill-opacity="0"></path></g><g><path stroke-linecap="round" stroke-linejoin="round" fill-opacity="0"></path></g></g><g><g><path stroke-linecap="round" stroke-linejoin="round" fill-opacity="0"></path></g><g><path stroke-linecap="round" stroke-linejoin="round" fill-opacity="0"></path></g></g></g><g style="display: none;"><g><path></path><path stroke-linecap="round" stroke-linejoin="round" fill-opacity="0"></path></g></g><g style="display: block;" transform="matrix(1,0,0,1,0,0)" opacity="1"><g opacity="1" transform="matrix(1,0,0,1,215.23899841308594,335.0249938964844)"><path fill="rgb(195,188,120)" fill-opacity="1" d=" M140.06300354003906,100.81199645996094 C140.06300354003906,100.81199645996094 -140.06300354003906,100.81199645996094 -140.06300354003906,100.81199645996094 C-145.17599487304688,100.81199645996094 -149.3209991455078,96.66799926757812 -149.3209991455078,91.55500030517578 C-149.3209991455078,91.55500030517578 -149.3209991455078,-91.55500030517578 -149.3209991455078,-91.55500030517578 C-149.3209991455078,-96.66799926757812 -145.17599487304688,-100.81199645996094 -140.06300354003906,-100.81199645996094 C-140.06300354003906,-100.81199645996094 140.06300354003906,-100.81199645996094 140.06300354003906,-100.81199645996094 C145.17599487304688,-100.81199645996094 149.3209991455078,-96.66799926757812 149.3209991455078,-91.55500030517578 C149.3209991455078,-91.55500030517578 149.3209991455078,91.55500030517578 149.3209991455078,91.55500030517578 C149.3209991455078,96.66799926757812 145.17599487304688,100.81199645996094 140.06300354003906,100.81199645996094z"></path></g><g opacity="0.2" transform="matrix(1,0,0,1,215.23699951171875,276.2919921875)"><path stroke-linecap="round" stroke-linejoin="round" fill-opacity="0" stroke="rgb(102,88,46)" stroke-opacity="1" stroke-width="9" d=" M147.77000427246094,-3.3380000591278076 C147.77000427246094,-3.3380000591278076 142.11000061035156,3.3380000591278076 122.4800033569336,3.3380000591278076 C122.4800033569336,3.3380000591278076 -122.47000122070312,3.3380000591278076 -122.47000122070312,3.3380000591278076 C-140.06199645996094,3.3380000591278076 -147.77000427246094,-3.3380000591278076 -147.77000427246094,-3.3380000591278076"></path></g><g opacity="1" transform="matrix(1,0,0,1,215.23699951171875,246.03199768066406)"><path fill="rgb(244,233,171)" fill-opacity="1" d=" M147.77000427246094,-4.684999942779541 C142.30999755859375,3.4549999237060547 133.02000427246094,8.8149995803833 122.4800033569336,8.8149995803833 C122.4800033569336,8.8149995803833 -122.47000122070312,8.8149995803833 -122.47000122070312,8.8149995803833 C-133.02000427246094,8.8149995803833 -142.30999755859375,3.4549999237060547 -147.77000427246094,-4.684999942779541 C-146.11000061035156,-7.175000190734863 -143.27999877929688,-8.8149995803833 -140.05999755859375,-8.8149995803833 C-140.05999755859375,-8.8149995803833 140.07000732421875,-8.8149995803833 140.07000732421875,-8.8149995803833 C143.2899932861328,-8.8149995803833 146.1199951171875,-7.175000190734863 147.77000427246094,-4.684999942779541z"></path></g><g opacity="1" transform="matrix(1,0,0,1,215.23699951171875,248.0970001220703)"><path stroke-linecap="round" stroke-linejoin="round" fill-opacity="0" stroke="rgb(234,226,167)" stroke-opacity="1" stroke-width="6" d=" M147.77000427246094,-6.75 C142.30999755859375,1.3899999856948853 133.02000427246094,6.75 122.4800033569336,6.75 C122.4800033569336,6.75 -122.47000122070312,6.75 -122.47000122070312,6.75 C-133.02000427246094,6.75 -142.30999755859375,1.3899999856948853 -147.77000427246094,-6.75"></path></g><g opacity="1" transform="matrix(1,0,0,1,215.23699951171875,279.5010070800781)"><path stroke-linecap="round" stroke-linejoin="round" fill-opacity="0" stroke="rgb(216,209,147)" stroke-opacity="1" stroke-width="6" d=" M147.77000427246094,-3.3380000591278076 C147.77000427246094,-3.3380000591278076 142.11000061035156,3.3380000591278076 122.4800033569336,3.3380000591278076 C122.4800033569336,3.3380000591278076 -122.47000122070312,3.3380000591278076 -122.47000122070312,3.3380000591278076 C-140.06199645996094,3.3380000591278076 -147.77000427246094,-3.3380000591278076 -147.77000427246094,-3.3380000591278076"></path></g><g opacity="0.2" transform="matrix(1,0,0,1,215.23699951171875,335.1210021972656)"><path stroke-linecap="round" stroke-linejoin="round" fill-opacity="0" stroke="rgb(102,88,46)" stroke-opacity="1" stroke-width="9" d=" M147.77000427246094,-3.3380000591278076 C147.77000427246094,-3.3380000591278076 142.11000061035156,3.3380000591278076 122.4800033569336,3.3380000591278076 C122.4800033569336,3.3380000591278076 -122.47000122070312,3.3380000591278076 -122.47000122070312,3.3380000591278076 C-140.06199645996094,3.3380000591278076 -147.77000427246094,-3.3380000591278076 -147.77000427246094,-3.3380000591278076"></path></g><g opacity="0.2" transform="matrix(1,0,0,1,215.23699951171875,393.1369934082031)"><path stroke-linecap="round" stroke-linejoin="round" fill-opacity="0" stroke="rgb(102,88,46)" stroke-opacity="1" stroke-width="9" d=" M147.77000427246094,-3.3380000591278076 C147.77000427246094,-3.3380000591278076 142.11000061035156,3.3380000591278076 122.4800033569336,3.3380000591278076 C122.4800033569336,3.3380000591278076 -122.47000122070312,3.3380000591278076 -122.47000122070312,3.3380000591278076 C-140.06199645996094,3.3380000591278076 -147.77000427246094,-3.3380000591278076 -147.77000427246094,-3.3380000591278076"></path></g><g opacity="1" transform="matrix(1,0,0,1,215.23699951171875,338.1210021972656)"><path stroke-linecap="round" stroke-linejoin="round" fill-opacity="0" stroke="rgb(216,209,147)" stroke-opacity="1" stroke-width="6" d=" M147.77000427246094,-3.3380000591278076 C147.77000427246094,-3.3380000591278076 142.11000061035156,3.3380000591278076 122.4800033569336,3.3380000591278076 C122.4800033569336,3.3380000591278076 -122.47000122070312,3.3380000591278076 -122.47000122070312,3.3380000591278076 C-140.06199645996094,3.3380000591278076 -147.77000427246094,-3.3380000591278076 -147.77000427246094,-3.3380000591278076"></path></g><g opacity="1" transform="matrix(1,0,0,1,215.23699951171875,396.4750061035156)"><path stroke-linecap="round" stroke-linejoin="round" fill-opacity="0" stroke="rgb(216,209,147)" stroke-opacity="1" stroke-width="6" d=" M147.77000427246094,-3.3380000591278076 C147.77000427246094,-3.3380000591278076 142.11000061035156,3.3380000591278076 122.4800033569336,3.3380000591278076 C122.4800033569336,3.3380000591278076 -122.47000122070312,3.3380000591278076 -122.47000122070312,3.3380000591278076 C-140.06199645996094,3.3380000591278076 -147.77000427246094,-3.3380000591278076 -147.77000427246094,-3.3380000591278076"></path></g><g opacity="1" transform="matrix(1,0,0,1,215.23699951171875,311.94500732421875)"><path stroke-linecap="round" stroke-linejoin="round" fill-opacity="0" stroke="rgb(216,209,147)" stroke-opacity="1" stroke-width="6" d=" M147.77000427246094,-3.3380000591278076 C147.77000427246094,-3.3380000591278076 142.11000061035156,3.3380000591278076 122.4800033569336,3.3380000591278076 C122.4800033569336,3.3380000591278076 -122.47000122070312,3.3380000591278076 -122.47000122070312,3.3380000591278076 C-140.06199645996094,3.3380000591278076 -147.77000427246094,-3.3380000591278076 -147.77000427246094,-3.3380000591278076"></path></g><g opacity="1" transform="matrix(1,0,0,1,215.23699951171875,370.2980041503906)"><path stroke-linecap="round" stroke-linejoin="round" fill-opacity="0" stroke="rgb(216,209,147)" stroke-opacity="1" stroke-width="6" d=" M147.77000427246094,-3.3380000591278076 C147.77000427246094,-3.3380000591278076 142.11000061035156,3.3380000591278076 122.4800033569336,3.3380000591278076 C122.4800033569336,3.3380000591278076 -122.47000122070312,3.3380000591278076 -122.47000122070312,3.3380000591278076 C-140.06199645996094,3.3380000591278076 -147.77000427246094,-3.3380000591278076 -147.77000427246094,-3.3380000591278076"></path></g><g opacity="1" transform="matrix(1,0,0,1,215.23699951171875,308.94500732421875)"><path stroke-linecap="round" stroke-linejoin="round" fill-opacity="0" stroke="rgb(155,145,87)" stroke-opacity="1" stroke-width="6" d=" M147.77000427246094,-3.3380000591278076 C147.77000427246094,-3.3380000591278076 142.11000061035156,3.3380000591278076 122.4800033569336,3.3380000591278076 C122.4800033569336,3.3380000591278076 -122.47000122070312,3.3380000591278076 -122.47000122070312,3.3380000591278076 C-140.06199645996094,3.3380000591278076 -147.77000427246094,-3.3380000591278076 -147.77000427246094,-3.3380000591278076"></path></g><g opacity="1" transform="matrix(1,0,0,1,215.23699951171875,367.2980041503906)"><path stroke-linecap="round" stroke-linejoin="round" fill-opacity="0" stroke="rgb(155,145,87)" stroke-opacity="1" stroke-width="6" d=" M147.77000427246094,-3.3380000591278076 C147.77000427246094,-3.3380000591278076 142.11000061035156,3.3380000591278076 122.4800033569336,3.3380000591278076 C122.4800033569336,3.3380000591278076 -122.47000122070312,3.3380000591278076 -122.47000122070312,3.3380000591278076 C-140.06199645996094,3.3380000591278076 -147.77000427246094,-3.3380000591278076 -147.77000427246094,-3.3380000591278076"></path></g><g opacity="1" transform="matrix(1,0,0,1,215.23699951171875,428.36700439453125)"><path fill="rgb(81,69,35)" fill-opacity="1" d=" M-147.77000427246094,3.9700000286102295 C-142.30999755859375,-2.927000045776367 -133.02000427246094,-7.468999862670898 -122.4800033569336,-7.468999862670898 C-122.4800033569336,-7.468999862670898 122.47000122070312,-7.468999862670898 122.47000122070312,-7.468999862670898 C133.02000427246094,-7.468999862670898 142.30999755859375,-2.927000045776367 147.77000427246094,3.9700000286102295 C146.11000061035156,6.079999923706055 143.27999877929688,7.468999862670898 140.05999755859375,7.468999862670898 C140.05999755859375,7.468999862670898 -140.07000732421875,7.468999862670898 -140.07000732421875,7.468999862670898 C-143.2899932861328,7.468999862670898 -146.1199951171875,6.079999923706055 -147.77000427246094,3.9700000286102295z"></path></g><g opacity="0.3" transform="matrix(1,0,0,1,283.0419921875,335.0270080566406)"><path fill="rgb(124,112,56)" fill-opacity="1" d=" M81.51499938964844,-91.55999755859375 C81.51499938964844,-91.55999755859375 81.51499938964844,91.55000305175781 81.51499938964844,91.55000305175781 C81.51499938964844,96.66999816894531 77.375,100.80999755859375 72.26499938964844,100.80999755859375 C72.26499938964844,100.80999755859375 -81.3550033569336,100.80999755859375 -81.3550033569336,100.80999755859375 C-81.3550033569336,100.80999755859375 -59.65399932861328,90.66300201416016 -59.65399932861328,90.66300201416016 C-53.4010009765625,87.73899841308594 -49.404998779296875,81.45899963378906 -49.404998779296875,74.55599975585938 C-49.404998779296875,74.55599975585938 -49.404998779296875,-70.39099884033203 -49.404998779296875,-70.39099884033203 C-49.404998779296875,-76.48600006103516 -52.527000427246094,-82.15599822998047 -57.676998138427734,-85.41500091552734 C-57.676998138427734,-85.41500091552734 -81.3550033569336,-100.4000015258789 -81.3550033569336,-100.4000015258789 C-81.3550033569336,-100.4000015258789 -81.51499938964844,-100.80999755859375 -81.51499938964844,-100.80999755859375 C-81.51499938964844,-100.80999755859375 72.26499938964844,-100.80999755859375 72.26499938964844,-100.80999755859375 C77.3740005493164,-100.80999755859375 81.51499938964844,-96.66899871826172 81.51499938964844,-91.55999755859375z"></path></g><g opacity="0.3" transform="matrix(1,0,0,1,325.72698974609375,335.0270080566406)"><path fill="rgb(124,112,56)" fill-opacity="1" d=" M29.579999923706055,-100.80999755859375 C29.579999923706055,-100.80999755859375 14.579999923706055,-100.80999755859375 14.579999923706055,-100.80999755859375 C14.579999923706055,-100.80999755859375 -26.420000076293945,-100.80999755859375 -26.420000076293945,-100.80999755859375 C-26.420000076293945,-100.80999755859375 -38.83000183105469,-100.80999755859375 -38.83000183105469,-100.80999755859375 C-37.849998474121094,-99.29000091552734 -37.33000183105469,-97.5 -37.380001068115234,-95.6500015258789 C-37.380001068115234,-95.6500015258789 -37.4900016784668,-91.66000366210938 -37.4900016784668,-91.66000366210938 C-37.4900016784668,-85.83999633789062 -33.95000076293945,-80.61000061035156 -28.549999237060547,-78.44000244140625 C-28.549999237060547,-78.44000244140625 -3.2799999713897705,-59.9900016784668 -6.039999961853027,-55.810001373291016 C-6.039999961853027,-55.810001373291016 -22.649999618530273,-38.099998474121094 -22.649999618530273,-38.099998474121094 C-23.899999618530273,-36.7599983215332 -24.600000381469727,-34.9900016784668 -24.600000381469727,-33.15999984741211 C-24.600000381469727,-33.15999984741211 -24.600000381469727,-17.100000381469727 -24.600000381469727,-17.100000381469727 C-24.600000381469727,-14.960000038146973 -23.649999618530273,-12.9399995803833 -22.020000457763672,-11.569999694824219 C-22.020000457763672,-11.569999694824219 -2.619999885559082,6.349999904632568 -2.619999885559082,6.349999904632568 C-0.800000011920929,7.880000114440918 -0.7599999904632568,10.65999984741211 -2.5399999618530273,12.229999542236328 C-2.5399999618530273,12.229999542236328 -22.010000228881836,31.290000915527344 -22.010000228881836,31.290000915527344 C-23.389999389648438,32.5099983215332 -23.389999389648438,34.65999984741211 -22.010000228881836,35.88999938964844 C-22.010000228881836,35.88999938964844 -2.4700000286102295,53.31999969482422 -2.4700000286102295,53.31999969482422 C-0.7400000095367432,54.86000061035156 -0.7400000095367432,57.56999969482422 -2.4700000286102295,59.11000061035156 C-2.4700000286102295,59.11000061035156 -22.200000762939453,76.69999694824219 -22.200000762939453,76.69999694824219 C-23.510000228881836,77.87000274658203 -23.579999923706055,79.88999938964844 -22.360000610351562,81.1500015258789 C-22.360000610351562,81.1500015258789 -3.25,100.80999755859375 -3.25,100.80999755859375 C-3.25,100.80999755859375 26.040000915527344,100.80999755859375 26.040000915527344,100.80999755859375 C26.040000915527344,100.80999755859375 38.83000183105469,87.63999938964844 38.83000183105469,87.63999938964844 C38.83000183105469,87.63999938964844 38.83000183105469,-91.55999755859375 38.83000183105469,-91.55999755859375 C38.83000183105469,-96.66999816894531 34.689998626708984,-100.80999755859375 29.579999923706055,-100.80999755859375z"></path></g><g opacity="0.3" transform="matrix(1,0,0,1,215.23699951171875,335.0270080566406)"><path fill="rgb(124,112,56)" fill-opacity="1" d=" M138.61599731445312,-99.76399993896484 C138.61599731445312,-99.76399993896484 -138.6060028076172,-99.76399993896484 -138.6060028076172,-99.76399993896484 C-143.66299438476562,-99.76399993896484 -147.77000427246094,-95.66699981689453 -147.77000427246094,-90.61000061035156 C-147.77000427246094,-90.61000061035156 -147.77000427246094,90.5999984741211 -147.77000427246094,90.5999984741211 C-147.77000427246094,95.66699981689453 -143.66299438476562,99.76399993896484 -138.6060028076172,99.76399993896484 C-138.6060028076172,99.76399993896484 138.61599731445312,99.76399993896484 138.61599731445312,99.76399993896484 C143.67300415039062,99.76399993896484 147.77000427246094,95.66699981689453 147.77000427246094,90.5999984741211 C147.77000427246094,90.5999984741211 147.77000427246094,-90.61000061035156 147.77000427246094,-90.61000061035156 C147.77000427246094,-95.66699981689453 143.67300415039062,-99.76399993896484 138.61599731445312,-99.76399993896484z M134.1529998779297,76.86399841308594 C134.1529998779297,81.9209976196289 130.05599975585938,86.02799987792969 124.9990005493164,86.02799987792969 C124.9990005493164,86.02799987792969 -124.98899841308594,86.02799987792969 -124.98899841308594,86.02799987792969 C-130.05599975585938,86.02799987792969 -134.1529998779297,81.9209976196289 -134.1529998779297,76.86399841308594 C-134.1529998779297,76.86399841308594 -134.1529998779297,-74.26100158691406 -134.1529998779297,-74.26100158691406 C-134.1529998779297,-79.3280029296875 -130.05599975585938,-83.42500305175781 -124.98899841308594,-83.42500305175781 C-124.98899841308594,-83.42500305175781 124.9990005493164,-83.42500305175781 124.9990005493164,-83.42500305175781 C130.05599975585938,-83.42500305175781 134.1529998779297,-79.3280029296875 134.1529998779297,-74.26100158691406 C134.1529998779297,-74.26100158691406 134.1529998779297,76.86399841308594 134.1529998779297,76.86399841308594z"></path></g><g opacity="1" transform="matrix(1,0,0,1,215.23899841308594,335.0249938964844)"><path stroke-linecap="butt" stroke-linejoin="miter" fill-opacity="0" stroke-miterlimit="10" stroke="rgb(142,131,66)" stroke-opacity="1" stroke-width="8" d=" M140.06300354003906,100.81199645996094 C140.06300354003906,100.81199645996094 -140.06300354003906,100.81199645996094 -140.06300354003906,100.81199645996094 C-145.17599487304688,100.81199645996094 -149.3209991455078,96.66799926757812 -149.3209991455078,91.55500030517578 C-149.3209991455078,91.55500030517578 -149.3209991455078,-91.55500030517578 -149.3209991455078,-91.55500030517578 C-149.3209991455078,-96.66799926757812 -145.17599487304688,-100.81199645996094 -140.06300354003906,-100.81199645996094 C-140.06300354003906,-100.81199645996094 140.06300354003906,-100.81199645996094 140.06300354003906,-100.81199645996094 C145.17599487304688,-100.81199645996094 149.3209991455078,-96.66799926757812 149.3209991455078,-91.55500030517578 C149.3209991455078,-91.55500030517578 149.3209991455078,91.55500030517578 149.3209991455078,91.55500030517578 C149.3209991455078,96.66799926757812 145.17599487304688,100.81199645996094 140.06300354003906,100.81199645996094z"></path></g><g opacity="1" transform="matrix(1,0,0,1,129.8040008544922,252.04100036621094)"><path stroke-linecap="round" stroke-linejoin="round" fill-opacity="0" stroke="rgb(255,255,255)" stroke-opacity="1" stroke-width="6" d=" M-4.571000099182129,0 C-4.571000099182129,0 4.571000099182129,0 4.571000099182129,0"></path></g><g opacity="1" transform="matrix(1,0,0,1,113.93299865722656,252.04100036621094)"><path stroke-linecap="round" stroke-linejoin="round" fill-opacity="0" stroke="rgb(255,255,255)" stroke-opacity="1" stroke-width="6" d=" M-1.3860000371932983,0 C-1.3860000371932983,0 1.3860000371932983,0 1.3860000371932983,0"></path></g><g opacity="1" transform="matrix(1,0,0,1,215.27499389648438,433.5060119628906)"><path stroke-linecap="butt" stroke-linejoin="miter" fill-opacity="0" stroke-miterlimit="10" stroke="rgb(58,50,17)" stroke-opacity="1" stroke-width="8" d=" M148.06199645996094,-2.3310000896453857 C146.43699645996094,0.3330000042915344 143.37600708007812,2.3310000896453857 140.02699279785156,2.3310000896453857 C140.02699279785156,2.3310000896453857 -140.0989990234375,2.3310000896453857 -140.0989990234375,2.3310000896453857 C-143.29400634765625,2.3310000896453857 -146.3979949951172,0.26100000739097595 -148.06199645996094,-2.2009999752044678"></path></g></g><g style="display: block;" transform="matrix(1,0,0,1,0,0)" opacity="1"><g opacity="1" transform="matrix(1,0,0,1,217.96200561523438,157.61199951171875)"><g opacity="1" transform="matrix(1,0,0,1,0,0)"><path fill="rgb(186,217,247)" fill-opacity="1" d=" M122.34500122070312,45.744998931884766 C122.34500122070312,45.744998931884766 122.34500122070312,76.6050033569336 122.34500122070312,76.6050033569336 C122.34500122070312,76.6050033569336 81.34500122070312,76.6050033569336 81.34500122070312,76.6050033569336 C81.34500122070312,76.6050033569336 81.34500122070312,45.744998931884766 81.34500122070312,45.744998931884766 C81.34500122070312,28.434999465942383 75.91500091552734,12.375 66.65499877929688,-0.824999988079071 C59.244998931884766,-11.414999961853027 49.3650016784668,-20.165000915527344 37.8650016784668,-26.2450008392334 C27.975000381469727,-31.46500015258789 16.875,-34.71500015258789 5.114999771118164,-35.435001373291016 C5.09499979019165,-35.44499969482422 5.065000057220459,-35.44499969482422 5.045000076293945,-35.44499969482422 C3.375,-35.55500030517578 1.6950000524520874,-35.60499954223633 0.004999999888241291,-35.60499954223633 C-44.85499954223633,-35.60499954223633 -81.34500122070312,0.8849999904632568 -81.34500122070312,45.744998931884766 C-81.34500122070312,45.744998931884766 -81.34500122070312,76.6050033569336 -81.34500122070312,76.6050033569336 C-81.34500122070312,76.6050033569336 -122.34500122070312,76.6050033569336 -122.34500122070312,76.6050033569336 C-122.34500122070312,76.6050033569336 -122.34500122070312,45.744998931884766 -122.34500122070312,45.744998931884766 C-122.34500122070312,14.385000228881836 -110.48500061035156,-14.255000114440918 -91.01499938964844,-35.92499923706055 C-91.01499938964844,-35.935001373291016 -91.00499725341797,-35.935001373291016 -90.99500274658203,-35.94499969482422 C-81.28500366210938,-46.755001068115234 -69.67500305175781,-55.834999084472656 -56.70500183105469,-62.64500045776367 C-40.04499816894531,-71.40499877929688 -21.135000228881836,-76.42500305175781 -1.0850000381469727,-76.59500122070312 C-0.7250000238418579,-76.6050033569336 -0.35499998927116394,-76.6050033569336 0.004999999888241291,-76.6050033569336 C67.46499633789062,-76.6050033569336 122.34500122070312,-21.71500015258789 122.34500122070312,45.744998931884766z"></path></g></g><g opacity="0.4" transform="matrix(1,0,0,1,217.9669952392578,170.26199340820312)"><path fill="rgb(94,78,65)" fill-opacity="1" d=" M94.56999969482422,33.60499954223633 C94.56999969482422,33.60499954223633 94.56999969482422,63.95500183105469 94.56999969482422,63.95500183105469 C94.56999969482422,63.95500183105469 81.33999633789062,63.95500183105469 81.33999633789062,63.95500183105469 C81.33999633789062,63.95500183105469 81.33999633789062,33.095001220703125 81.33999633789062,33.095001220703125 C81.33999633789062,15.78499984741211 75.91000366210938,-0.2750000059604645 66.6500015258789,-13.475000381469727 C59.2400016784668,-24.065000534057617 49.36000061035156,-32.814998626708984 37.86000061035156,-38.89500045776367 C27.969999313354492,-44.1150016784668 16.8700008392334,-47.3650016784668 5.110000133514404,-48.084999084472656 C5.090000152587891,-48.095001220703125 5.059999942779541,-48.095001220703125 5.039999961853027,-48.095001220703125 C3.369999885559082,-48.20500183105469 1.690000057220459,-48.255001068115234 0,-48.255001068115234 C-44.86000061035156,-48.255001068115234 -81.3499984741211,-11.765000343322754 -81.3499984741211,33.095001220703125 C-81.3499984741211,33.095001220703125 -81.3499984741211,63.95500183105469 -81.3499984741211,63.95500183105469 C-81.3499984741211,63.95500183105469 -94.56999969482422,63.95500183105469 -94.56999969482422,63.95500183105469 C-94.56999969482422,63.95500183105469 -94.56999969482422,33.60499954223633 -94.56999969482422,33.60499954223633 C-94.56999969482422,-18.53499984741211 -52.150001525878906,-63.95500183105469 0,-63.95500183105469 C8.050000190734863,-63.95500183105469 15.880000114440918,-62.875 23.34000015258789,-60.845001220703125 C64.23999786376953,-49.76499938964844 94.56999969482422,-10.484999656677246 94.56999969482422,33.60499954223633z"></path></g><g opacity="0.5" transform="matrix(1,0,0,1,233.63699340820312,157.61199951171875)"><path fill="rgb(112,163,214)" fill-opacity="1" d=" M106.66999816894531,45.744998931884766 C106.66999816894531,45.744998931884766 106.66999816894531,76.6050033569336 106.66999816894531,76.6050033569336 C106.66999816894531,76.6050033569336 78.66999816894531,76.6050033569336 78.66999816894531,76.6050033569336 C78.66999816894531,76.6050033569336 78.66999816894531,45.744998931884766 78.66999816894531,45.744998931884766 C77.93000030517578,32.415000915527344 71.93800354003906,-23.055999755859375 28.224000930786133,-51.30500030517578 C18.10099983215332,-57.84700012207031 -9.833000183105469,-72.7750015258789 -49.946998596191406,-64.18499755859375 C-75.7770004272461,-58.65399932861328 -105.79000091552734,-36.625 -106.66999816894531,-35.94499969482422 C-98.23999786376953,-47.474998474121094 -85.77999877929688,-56.255001068115234 -72.37999725341797,-62.64500045776367 C-68.9000015258789,-64.31500244140625 -65.36000061035156,-65.81500244140625 -61.810001373291016,-67.16500091552734 C-45.119998931884766,-73.50499725341797 -28.229999542236328,-76.42500305175781 -16.760000228881836,-76.59500122070312 C-16.399999618530273,-76.6050033569336 -16.030000686645508,-76.6050033569336 -15.670000076293945,-76.6050033569336 C51.790000915527344,-76.6050033569336 106.66999816894531,-21.71500015258789 106.66999816894531,45.744998931884766z"></path></g><g opacity="1" transform="matrix(1,0,0,1,217.96200561523438,157.61199951171875)"><g opacity="1" transform="matrix(1,0,0,1,0,0)"><path stroke-linecap="butt" stroke-linejoin="miter" fill-opacity="0" stroke-miterlimit="10" stroke="rgb(106,125,158)" stroke-opacity="1" stroke-width="8" d=" M122.34500122070312,45.744998931884766 C122.34500122070312,45.744998931884766 122.34500122070312,72.50900268554688 122.34500122070312,72.50900268554688 C122.34500122070312,74.77100372314453 120.51100158691406,76.6050033569336 118.2490005493164,76.6050033569336 C118.2490005493164,76.6050033569336 85.44100189208984,76.6050033569336 85.44100189208984,76.6050033569336 C83.17900085449219,76.6050033569336 81.34500122070312,74.77100372314453 81.34500122070312,72.50900268554688 C81.34500122070312,72.50900268554688 81.34500122070312,45.744998931884766 81.34500122070312,45.744998931884766 C81.34500122070312,28.434999465942383 75.91500091552734,12.375 66.65499877929688,-0.824999988079071 C59.244998931884766,-11.414999961853027 49.3650016784668,-20.165000915527344 37.8650016784668,-26.2450008392334 C27.975000381469727,-31.46500015258789 16.875,-34.71500015258789 5.114999771118164,-35.435001373291016 C5.09499979019165,-35.44499969482422 5.065000057220459,-35.44499969482422 5.045000076293945,-35.44499969482422 C3.4630000591278076,-35.54899978637695 1.871000051498413,-35.599998474121094 0.2709999978542328,-35.60499954223633 C-44.61800003051758,-35.744998931884766 -81.34500122070312,1.6699999570846558 -81.34500122070312,46.558998107910156 C-81.34500122070312,46.558998107910156 -81.34500122070312,72.50900268554688 -81.34500122070312,72.50900268554688 C-81.34500122070312,74.77100372314453 -83.17900085449219,76.6050033569336 -85.44100189208984,76.6050033569336 C-85.44100189208984,76.6050033569336 -118.2490005493164,76.6050033569336 -118.2490005493164,76.6050033569336 C-120.51100158691406,76.6050033569336 -122.34500122070312,74.77100372314453 -122.34500122070312,72.50900268554688 C-122.34500122070312,72.50900268554688 -122.34500122070312,45.744998931884766 -122.34500122070312,45.744998931884766 C-122.34500122070312,14.385000228881836 -110.48500061035156,-14.255000114440918 -91.01499938964844,-35.92499923706055 C-91.01499938964844,-35.935001373291016 -91.00499725341797,-35.935001373291016 -90.99500274658203,-35.94499969482422 C-81.28500366210938,-46.755001068115234 -69.67500305175781,-55.834999084472656 -56.70500183105469,-62.64500045776367 C-40.04499816894531,-71.40499877929688 -21.135000228881836,-76.42500305175781 -1.0850000381469727,-76.59500122070312 C-0.7250000238418579,-76.6050033569336 -0.35499998927116394,-76.6050033569336 0.004999999888241291,-76.6050033569336 C67.46499633789062,-76.6050033569336 122.34500122070312,-21.71500015258789 122.34500122070312,45.744998931884766z"></path></g></g><g opacity="1" transform="matrix(1,0,0,1,139.43800354003906,125.25700378417969)"><path stroke-linecap="round" stroke-linejoin="round" fill-opacity="0" stroke="rgb(233,246,255)" stroke-opacity="1" stroke-width="14" d=" M-2.188999891281128,1.9709999561309814 C-0.210999995470047,-0.12999999523162842 -0.0729999989271164,-0.05299999937415123 2.188999891281128,-1.9709999561309814"></path></g><g opacity="1" transform="matrix(1,0,0,1,115.23500061035156,170.3419952392578)"><path stroke-linecap="round" stroke-linejoin="round" fill-opacity="0" stroke="rgb(233,246,255)" stroke-opacity="1" stroke-width="14" d=" M-7.373000144958496,22.756000518798828 C-7.373000144958496,22.756000518798828 -6.77400016784668,-1.6720000505447388 7.373000144958496,-22.756000518798828"></path></g></g><g style="display: block;" transform="matrix(1,0,0,1,0,0)" opacity="1"><g opacity="1" transform="matrix(1,0,0,1,365.1780090332031,260.9070129394531)"><path fill="rgb(237,184,36)" fill-opacity="1" d=" M-0.004999999888241291,-188.64999389648438 C-48.255001068115234,-188.64999389648438 -87.375,-149.52999877929688 -87.375,-101.27999877929688 C-87.375,-73.41999816894531 -74.125,-46.40999984741211 -53.80500030517578,-28.700000762939453 C-51.73500061035156,-26.889999389648438 -50.54499816894531,-24.280000686645508 -50.625,-21.530000686645508 C-50.625,-21.530000686645508 -50.73500061035156,-17.540000915527344 -50.73500061035156,-17.540000915527344 C-50.73500061035156,-11.720000267028809 -47.19499969482422,-6.489999771118164 -41.79499816894531,-4.320000171661377 C-41.79499816894531,-4.320000171661377 -16.52199935913086,14.126999855041504 -19.28499984741211,18.309999465942383 C-19.28499984741211,18.309999465942383 -35.89500045776367,36.02000045776367 -35.89500045776367,36.02000045776367 C-37.14500045776367,37.36000061035156 -37.845001220703125,39.130001068115234 -37.845001220703125,40.959999084472656 C-37.845001220703125,40.959999084472656 -37.845001220703125,57.02000045776367 -37.845001220703125,57.02000045776367 C-37.845001220703125,59.15999984741211 -36.89500045776367,61.18000030517578 -35.26499938964844,62.54999923706055 C-35.26499938964844,62.54999923706055 -15.864999771118164,80.47000122070312 -15.864999771118164,80.47000122070312 C-14.045000076293945,82 -14.005000114440918,84.77999877929688 -15.78499984741211,86.3499984741211 C-15.78499984741211,86.3499984741211 -35.255001068115234,105.41000366210938 -35.255001068115234,105.41000366210938 C-36.6349983215332,106.62999725341797 -36.6349983215332,108.77999877929688 -35.255001068115234,110.01000213623047 C-35.255001068115234,110.01000213623047 -15.71500015258789,127.44000244140625 -15.71500015258789,127.44000244140625 C-13.984999656677246,128.97999572753906 -13.984999656677246,131.69000244140625 -15.71500015258789,133.22999572753906 C-15.71500015258789,133.22999572753906 -35.44499969482422,150.82000732421875 -35.44499969482422,150.82000732421875 C-36.755001068115234,151.99000549316406 -36.82500076293945,154.00999450683594 -35.60499954223633,155.27000427246094 C-35.60499954223633,155.27000427246094 -4.054999828338623,187.72000122070312 -4.054999828338623,187.72000122070312 C-2.8450000286102295,188.9600067138672 -0.8450000286102295,188.9600067138672 0.36500000953674316,187.72000122070312 C0.36500000953674316,187.72000122070312 32.26499938964844,154.88999938964844 32.26499938964844,154.88999938964844 C32.82500076293945,154.30999755859375 33.1349983215332,153.5399932861328 33.1349983215332,152.74000549316406 C33.1349983215332,152.74000549316406 33.1349983215332,2.359999895095825 33.1349983215332,2.359999895095825 C33.1349983215332,0.28999999165534973 34.28499984741211,-1.6100000143051147 36.1150016784668,-2.5799999237060547 C36.1150016784668,-2.5799999237060547 38.584999084472656,-3.890000104904175 38.584999084472656,-3.890000104904175 C43.244998931884766,-6.360000133514404 46.154998779296875,-11.210000038146973 46.154998779296875,-16.479999542236328 C46.154998779296875,-16.479999542236328 46.154998779296875,-18.18000030517578 46.154998779296875,-18.18000030517578 C46.154998779296875,-21.030000686645508 47.505001068115234,-23.690000534057617 49.76499938964844,-25.43000030517578 C72.48500061035156,-42.959999084472656 87.375,-71.5199966430664 87.375,-101.27999877929688 C87.375,-149.52999877929688 48.255001068115234,-188.64999389648438 -0.004999999888241291,-188.64999389648438z M-0.004999999888241291,-111.87000274658203 C-14.255000114440918,-111.87000274658203 -25.80500030517578,-123.41999816894531 -25.80500030517578,-137.67999267578125 C-25.80500030517578,-151.92999267578125 -14.255000114440918,-163.47999572753906 -0.004999999888241291,-163.47999572753906 C14.255000114440918,-163.47999572753906 25.80500030517578,-151.92999267578125 25.80500030517578,-137.67999267578125 C25.80500030517578,-123.41999816894531 14.255000114440918,-111.87000274658203 -0.004999999888241291,-111.87000274658203z"></path></g><g opacity="1" transform="matrix(1,0,0,1,365.1780090332031,159.6269989013672)"><path fill="rgb(247,199,89)" fill-opacity="1" d=" M-0.004999999888241291,-63.310001373291016 C-34.96500015258789,-63.310001373291016 -63.30500030517578,-34.959999084472656 -63.30500030517578,0 C-63.30500030517578,34.959999084472656 -34.96500015258789,63.310001373291016 -0.004999999888241291,63.310001373291016 C34.96500015258789,63.310001373291016 63.30500030517578,34.959999084472656 63.30500030517578,0 C63.30500030517578,-34.959999084472656 34.96500015258789,-63.310001373291016 -0.004999999888241291,-63.310001373291016z M-0.004999999888241291,-10.59000015258789 C-14.255000114440918,-10.59000015258789 -25.80500030517578,-22.139999389648438 -25.80500030517578,-36.400001525878906 C-25.80500030517578,-50.650001525878906 -14.255000114440918,-62.20000076293945 -0.004999999888241291,-62.20000076293945 C14.255000114440918,-62.20000076293945 25.80500030517578,-50.650001525878906 25.80500030517578,-36.400001525878906 C25.80500030517578,-22.139999389648438 14.255000114440918,-10.59000015258789 -0.004999999888241291,-10.59000015258789z"></path></g><g opacity="1" transform="matrix(1,0,0,1,0,0)"><g opacity="1" transform="matrix(1,0,0,1,361.0379943847656,156.63699340820312)"><path fill="rgb(255,233,179)" fill-opacity="1" d=" M67.44499969482422,-57.22999954223633 C67.44499969482422,-57.22999954223633 -57.584999084472656,67.80000305175781 -57.584999084472656,67.80000305175781 C-61.20500183105469,63.83000183105469 -64.50499725341797,59.529998779296875 -67.44499969482422,54.97999954223633 C-67.44499969482422,54.97999954223633 -3.6549999713897705,-8.800000190734863 -3.6549999713897705,-8.800000190734863 C-3.6549999713897705,-8.800000190734863 11.961999893188477,-3.38700008392334 22.07200050354004,-14.527000427246094 C34.19200134277344,-27.881000518798828 28.69700050354004,-41.152000427246094 28.69700050354004,-41.152000427246094 C28.69700050354004,-41.152000427246094 55.345001220703125,-67.80000305175781 55.345001220703125,-67.80000305175781 C59.69499969482422,-64.66000366210938 63.744998931884766,-61.11000061035156 67.44499969482422,-57.22999954223633z"></path></g><g opacity="1" transform="matrix(1,0,0,1,380.8080139160156,183.49200439453125)"><path fill="rgb(255,233,179)" fill-opacity="1" d=" M68.76499938964844,-46.564998626708984 C68.76499938964844,-46.564998626708984 -52.584999084472656,74.7750015258789 -52.584999084472656,74.7750015258789 C-52.584999084472656,74.7750015258789 -57.42499923706055,73.09500122070312 -57.42499923706055,73.09500122070312 C-62.82500076293945,70.92500305175781 -66.36499786376953,65.69499969482422 -66.36499786376953,59.875 C-66.36499786376953,59.875 -66.25499725341797,55.8849983215332 -66.25499725341797,55.8849983215332 C-66.18499755859375,53.44499969482422 -67.1050033569336,51.125 -68.76499938964844,49.3650016784668 C-68.76499938964844,49.3650016784668 55.375,-74.7750015258789 55.375,-74.7750015258789 C61.42499923706055,-66.36499786376953 66.00499725341797,-56.834999084472656 68.76499938964844,-46.564998626708984z"></path></g></g><g opacity="0.14" transform="matrix(1,0,0,1,364.3760070800781,158.8249969482422)"><path fill="rgb(175,123,18)" fill-opacity="1" d=" M-0.006000000052154064,-89.30799865722656 C-49.323001861572266,-89.30799865722656 -89.302001953125,-49.31800079345703 -89.302001953125,0 C-89.302001953125,49.31700134277344 -49.323001861572266,89.30799865722656 -0.006000000052154064,89.30799865722656 C49.32400131225586,89.30799865722656 89.302001953125,49.31700134277344 89.302001953125,0 C89.302001953125,-49.31800079345703 49.32400131225586,-89.30799865722656 -0.006000000052154064,-89.30799865722656z M-0.006000000052154064,75.802001953125 C-41.86399841308594,75.802001953125 -75.7959976196289,41.858001708984375 -75.7959976196289,0 C-75.7959976196289,-41.858001708984375 -41.86399841308594,-75.802001953125 -0.006000000052154064,-75.802001953125 C41.86399841308594,-75.802001953125 75.7959976196289,-41.858001708984375 75.7959976196289,0 C75.7959976196289,41.858001708984375 41.86399841308594,75.802001953125 -0.006000000052154064,75.802001953125z"></path></g><g opacity="0.8" transform="matrix(1,0,0,1,365.1780090332031,159.6269989013672)"><path stroke-linecap="butt" stroke-linejoin="miter" fill-opacity="0" stroke-miterlimit="10" stroke="rgb(175,123,18)" stroke-opacity="1" stroke-width="3" d=" M74.58599853515625,0 C74.58599853515625,41.19300079345703 41.19300079345703,74.58599853515625 0,74.58599853515625 C-41.19300079345703,74.58599853515625 -74.58599853515625,41.19300079345703 -74.58599853515625,0 C-74.58599853515625,-41.19300079345703 -41.19300079345703,-74.58599853515625 0,-74.58599853515625 C41.19300079345703,-74.58599853515625 74.58599853515625,-41.19300079345703 74.58599853515625,0z"></path></g><g opacity="1" transform="matrix(1,0,0,1,0,0)"><g opacity="1" transform="matrix(1,0,0,1,378.4729919433594,351.177001953125)"><g opacity="1" transform="matrix(1,0,0,1,0,0)"><path fill="rgb(255,219,69)" fill-opacity="1" d=" M6.5,-84.18000030517578 C6.5,-84.18000030517578 6.5,77.44999694824219 6.5,77.44999694824219 C6.5,77.44999694824219 -0.5,84.66000366210938 -0.5,84.66000366210938 C-0.5,84.66000366210938 -6.349999904632568,90.68000030517578 -6.349999904632568,90.68000030517578 C-6.449999809265137,90.2300033569336 -6.5,89.7699966430664 -6.5,89.29000091552734 C-6.5,89.29000091552734 -6.5,-84.18000030517578 -6.5,-84.18000030517578 C-6.5,-87.7699966430664 -3.5899999141693115,-90.68000030517578 0,-90.68000030517578 C3.4700000286102295,-90.68000030517578 6.300000190734863,-87.97000122070312 6.480000019073486,-84.54000091552734 C6.489999771118164,-84.41999816894531 6.5,-84.30000305175781 6.5,-84.18000030517578z"></path></g></g><g opacity="1" transform="matrix(1,0,0,1,381.4729919433594,349.6669921875)"><g opacity="1" transform="matrix(1,0,0,1,0,0)"><path fill="rgb(135,92,30)" fill-opacity="1" d=" M3.5,-82.66999816894531 C3.5,-82.66999816894531 3.5,78.95999908447266 3.5,78.95999908447266 C3.5,78.95999908447266 -3.5,86.16999816894531 -3.5,86.16999816894531 C-3.5,86.16999816894531 -3.5,-82.66999816894531 -3.5,-82.66999816894531 C-3.5,-84.5999984741211 -1.9299999475479126,-86.16999816894531 0,-86.16999816894531 C1.8200000524520874,-86.16999816894531 3.299999952316284,-84.79000091552734 3.4800000190734863,-83.02999877929688 C3.490000009536743,-82.91000366210938 3.5,-82.79000091552734 3.5,-82.66999816894531z"></path></g></g><g opacity="1" transform="matrix(1,0,0,1,0,0)"><g opacity="1" transform="matrix(1,0,0,1,344.4729919433594,357.3999938964844)"><g opacity="1" transform="matrix(1,0,0,1,0,0)"><path fill="rgb(255,219,69)" fill-opacity="1" d=" M6.271999835968018,-80.77999877929688 C6.271999835968018,-80.77999877929688 6.5,80.78700256347656 6.5,80.78700256347656 C6.5,80.78700256347656 -0.5,73.58699798583984 -0.5,73.58699798583984 C-0.5,73.58699798583984 -6.5,67.41699981689453 -6.5,67.41699981689453 C-6.5,67.41699981689453 -6.5,46.97700119018555 -6.5,46.97700119018555 C-6.5,46.97700119018555 -0.5,41.62699890136719 -0.5,41.62699890136719 C-0.5,41.62699890136719 4.989999771118164,36.73699951171875 4.989999771118164,36.73699951171875 C6.71999979019165,35.196998596191406 6.71999979019165,32.48699951171875 4.989999771118164,30.94700050354004 C4.989999771118164,30.94700050354004 -0.5,26.047000885009766 -0.5,26.047000885009766 C-0.5,26.047000885009766 -6.5,20.69700050354004 -6.5,20.69700050354004 C-6.5,20.69700050354004 -6.5,1.0369999408721924 -6.5,1.0369999408721924 C-6.5,1.0369999408721924 -0.5,-4.833000183105469 -0.5,-4.833000183105469 C-0.5,-4.833000183105469 4.920000076293945,-10.142999649047852 4.920000076293945,-10.142999649047852 C6.699999809265137,-11.713000297546387 6.659999847412109,-14.493000030517578 4.840000152587891,-16.023000717163086 C4.840000152587891,-16.023000717163086 -0.5,-20.952999114990234 -0.5,-20.952999114990234 C-0.5,-20.952999114990234 -6.5,-26.493000030517578 -6.5,-26.493000030517578 C-6.5,-26.493000030517578 -6.5,-69.74299621582031 -6.5,-69.74299621582031 C-6.5,-69.74299621582031 -0.5,-76.13300323486328 -0.5,-76.13300323486328 C-0.5,-76.13300323486328 1.4199999570846558,-78.18299865722656 1.4199999570846558,-78.18299865722656 C2.609999895095825,-79.4530029296875 6.271999835968018,-80.9000015258789 6.271999835968018,-80.77999877929688z"></path></g></g><g opacity="1" transform="matrix(1,0,0,1,347.4729919433594,356.92498779296875)"><g opacity="1" transform="matrix(1,0,0,1,0,0)"><path fill="rgb(135,92,30)" fill-opacity="1" d=" M3.2720000743865967,-80.64700317382812 C3.2720000743865967,-39.17599868774414 3.5,81.26200103759766 3.5,81.26200103759766 C3.5,81.26200103759766 -3.5,74.06199645996094 -3.5,74.06199645996094 C-3.5,74.06199645996094 -3.5,42.10200119018555 -3.5,42.10200119018555 C-3.5,42.10200119018555 1.9900000095367432,37.21200180053711 1.9900000095367432,37.21200180053711 C3.7200000286102295,35.672000885009766 3.7200000286102295,32.96200180053711 1.9900000095367432,31.422000885009766 C1.9900000095367432,31.422000885009766 -3.5,26.52199935913086 -3.5,26.52199935913086 C-3.5,26.52199935913086 -3.5,-4.357999801635742 -3.5,-4.357999801635742 C-3.5,-4.357999801635742 1.9199999570846558,-9.668000221252441 1.9199999570846558,-9.668000221252441 C3.700000047683716,-11.23799991607666 3.6600000858306885,-14.017999649047852 1.840000033378601,-15.54800033569336 C1.840000033378601,-15.54800033569336 -3.5,-20.47800064086914 -3.5,-20.47800064086914 C-3.5,-20.47800064086914 -3.5,-75.65799713134766 -3.5,-75.65799713134766 C-3.5,-75.65799713134766 0.49000000953674316,-80.30500030517578 0.49000000953674316,-80.30500030517578 C0.49000000953674316,-82.23500061035156 3.2720000743865967,-80.64700317382812 3.2720000743865967,-80.64700317382812z"></path></g></g></g></g><g opacity="1" transform="matrix(1,0,0,1,365.1780090332031,260.9070129394531)"><path stroke-linecap="round" stroke-linejoin="round" fill-opacity="0" stroke="rgb(170,111,7)" stroke-opacity="1" stroke-width="8" d=" M-0.004999999888241291,-188.64999389648438 C-48.255001068115234,-188.64999389648438 -87.375,-149.52999877929688 -87.375,-101.27999877929688 C-87.375,-73.41999816894531 -74.125,-46.40999984741211 -53.80500030517578,-28.700000762939453 C-51.73500061035156,-26.889999389648438 -50.54499816894531,-24.280000686645508 -50.625,-21.530000686645508 C-50.625,-21.530000686645508 -50.73500061035156,-17.540000915527344 -50.73500061035156,-17.540000915527344 C-50.73500061035156,-12.64900016784668 -48.23500061035156,-8.175000190734863 -44.231998443603516,-5.583000183105469 C-42.09400177001953,-4.198999881744385 -26.101999282836914,7.796000003814697 -20.826000213623047,11.586999893188477 C-17.816999435424805,13.74899959564209 -17.496999740600586,18.101999282836914 -20.150999069213867,20.687000274658203 C-20.150999069213867,20.687000274658203 -35.89500045776367,36.02000045776367 -35.89500045776367,36.02000045776367 C-37.14500045776367,37.36000061035156 -37.845001220703125,39.130001068115234 -37.845001220703125,40.959999084472656 C-37.845001220703125,40.959999084472656 -37.845001220703125,57.02000045776367 -37.845001220703125,57.02000045776367 C-37.845001220703125,59.15999984741211 -36.89500045776367,61.18000030517578 -35.26499938964844,62.54999923706055 C-35.26499938964844,62.54999923706055 -15.864999771118164,80.47000122070312 -15.864999771118164,80.47000122070312 C-14.045000076293945,82 -14.005000114440918,84.77999877929688 -15.78499984741211,86.3499984741211 C-15.78499984741211,86.3499984741211 -35.255001068115234,105.41000366210938 -35.255001068115234,105.41000366210938 C-36.6349983215332,106.62999725341797 -36.6349983215332,108.77999877929688 -35.255001068115234,110.01000213623047 C-35.255001068115234,110.01000213623047 -15.71500015258789,127.44000244140625 -15.71500015258789,127.44000244140625 C-13.984999656677246,128.97999572753906 -13.984999656677246,131.69000244140625 -15.71500015258789,133.22999572753906 C-15.71500015258789,133.22999572753906 -35.44499969482422,150.82000732421875 -35.44499969482422,150.82000732421875 C-36.755001068115234,151.99000549316406 -36.82500076293945,154.00999450683594 -35.60499954223633,155.27000427246094 C-35.60499954223633,155.27000427246094 -4.054999828338623,187.72000122070312 -4.054999828338623,187.72000122070312 C-2.8450000286102295,188.9600067138672 -0.8450000286102295,188.9600067138672 0.36500000953674316,187.72000122070312 C0.36500000953674316,187.72000122070312 32.26499938964844,154.88999938964844 32.26499938964844,154.88999938964844 C32.82500076293945,154.30999755859375 33.1349983215332,153.5399932861328 33.1349983215332,152.74000549316406 C33.1349983215332,152.74000549316406 33.1349983215332,2.359999895095825 33.1349983215332,2.359999895095825 C33.1349983215332,0.2930000126361847 34.277000427246094,-1.6039999723434448 36.10300064086914,-2.572999954223633 C36.10300064086914,-2.572999954223633 38.58100128173828,-3.888000011444092 38.58100128173828,-3.888000011444092 C43.242000579833984,-6.360000133514404 46.154998779296875,-11.204000473022461 46.154998779296875,-16.479999542236328 C46.154998779296875,-16.479999542236328 46.154998779296875,-18.18000030517578 46.154998779296875,-18.18000030517578 C46.154998779296875,-21.030000686645508 47.505001068115234,-23.690000534057617 49.76499938964844,-25.43000030517578 C72.48500061035156,-42.959999084472656 87.375,-71.5199966430664 87.375,-101.27999877929688 C87.375,-149.52999877929688 48.255001068115234,-188.64999389648438 -0.004999999888241291,-188.64999389648438z M-0.004999999888241291,-111.87000274658203 C-14.255000114440918,-111.87000274658203 -25.80500030517578,-123.41999816894531 -25.80500030517578,-137.67999267578125 C-25.80500030517578,-151.92999267578125 -14.255000114440918,-163.47999572753906 -0.004999999888241291,-163.47999572753906 C14.255000114440918,-163.47999572753906 25.80500030517578,-151.92999267578125 25.80500030517578,-137.67999267578125 C25.80500030517578,-123.41999816894531 14.255000114440918,-111.87000274658203 -0.004999999888241291,-111.87000274658203z"></path></g><g opacity="1" transform="matrix(1,0,0,1,0,0)"><g opacity="1" transform="matrix(1,0,0,1,318.1730041503906,95.01699829101562)"><path stroke-linecap="round" stroke-linejoin="round" fill-opacity="0" stroke="rgb(255,219,69)" stroke-opacity="1" stroke-width="7" d=" M-3.2829999923706055,2.4049999713897705 C-1.1799999475479126,0.6949999928474426 1.0110000371932983,-0.9110000133514404 3.2829999923706055,-2.4049999713897705"></path></g><g opacity="1" transform="matrix(1,0,0,1,297.5880126953125,164.94700622558594)"><path stroke-linecap="round" stroke-linejoin="round" fill-opacity="0" stroke="rgb(255,219,69)" stroke-opacity="1" stroke-width="7" d=" M12.404999732971191,52.9370002746582 C-2.884000062942505,38.30699920654297 -12.404999732971191,17.697999954223633 -12.404999732971191,-5.133999824523926 C-12.404999732971191,-23.038999557495117 -6.550000190734863,-39.57699966430664 3.3510000705718994,-52.9370002746582"></path></g></g><g opacity="1" transform="matrix(1,0,0,1,0,0)"><g opacity="1" transform="matrix(1,0,0,1,285.27899169921875,160.96299743652344)"><path stroke-linecap="round" stroke-linejoin="round" fill-opacity="0" stroke="rgb(255,255,255)" stroke-opacity="1" stroke-width="6" d=" M0.003000000026077032,-5.309999942779541 C-0.3230000138282776,-2.5169999599456787 -0.3370000123977661,1.121000051498413 0.2240000069141388,5.309999942779541"></path></g><g opacity="1" transform="matrix(1,0,0,1,286.6919860839844,144.91299438476562)"><path stroke-linecap="round" stroke-linejoin="round" fill-opacity="0" stroke="rgb(255,255,255)" stroke-opacity="1" stroke-width="6" d=" M0.26100000739097595,-1.1790000200271606 C0.26100000739097595,-1.1790000200271606 0.03400000184774399,-0.29499998688697815 -0.26100000739097595,1.1790000200271606"></path></g></g></g><g style="display: none;"><g><path></path><path stroke-linecap="round" stroke-linejoin="round" fill-opacity="0"></path></g></g><g style="display: none;"><g><path></path></g><g><path></path></g><g><g><path></path></g><g><path></path></g></g><g><path></path></g><g><path stroke-linecap="butt" stroke-linejoin="miter" fill-opacity="0" stroke-miterlimit="10"></path></g><g><g><g><path></path></g></g><g><g><path></path></g></g><g><g><g><path></path></g></g><g><g><path></path></g></g></g></g><g><path stroke-linecap="round" stroke-linejoin="round" fill-opacity="0"></path></g><g><g><path stroke-linecap="round" stroke-linejoin="round" fill-opacity="0"></path></g><g><path stroke-linecap="round" stroke-linejoin="round" fill-opacity="0"></path></g></g><g><g><path stroke-linecap="round" stroke-linejoin="round" fill-opacity="0"></path></g><g><path stroke-linecap="round" stroke-linejoin="round" fill-opacity="0"></path></g></g></g><g style="display: none;"><g><path></path><path stroke-linecap="round" stroke-linejoin="round" fill-opacity="0"></path></g></g><g style="display: none;"><g><path stroke-linecap="round" stroke-linejoin="round" fill-opacity="0"></path></g><g><path stroke-linecap="round" stroke-linejoin="round" fill-opacity="0"></path></g><g><path stroke-linecap="round" stroke-linejoin="round" fill-opacity="0"></path></g><g><path stroke-linecap="round" stroke-linejoin="round" fill-opacity="0"></path></g><g><path stroke-linecap="round" stroke-linejoin="round" fill-opacity="0"></path></g></g></g></svg>