<svg xmlns="http://www.w3.org/2000/svg" viewBox="0 0 512 512" width="512" height="512" style="width: 100%; height: 100%; transform: translate3d(0,0,0);" preserveAspectRatio="xMidYMid meet"><defs><clipPath id="__lottie_element_6272"><rect width="512" height="512" x="0" y="0"></rect></clipPath></defs><g clip-path="url(#__lottie_element_6272)"><g style="display: block;" transform="matrix(1,0,0,1,256,255.99998474121094)" opacity="1"><g opacity="0.1" transform="matrix(1,0,0,1,0,0)"><path fill="rgb(0,0,0)" fill-opacity="1" d=" M195.70399475097656,10.781999588012695 C195.70399475097656,119.04299926757812 107.94100189208984,206.80599975585938 -0.3199999928474426,206.80599975585938 C-108.58100128173828,206.80599975585938 -196.34500122070312,119.04299926757812 -196.34500122070312,10.781999588012695 C-196.34500122070312,-97.47899627685547 -108.58100128173828,-185.2429962158203 -0.3199999928474426,-185.2429962158203 C107.94100189208984,-185.2429962158203 195.70399475097656,-97.47899627685547 195.70399475097656,10.781999588012695z"></path></g><g opacity="1" transform="matrix(1,0,0,1,0,0)"><path fill="rgb(255,173,0)" fill-opacity="1" d=" M188.7740020751953,-4.2179999351501465 C188.7740020751953,100.09500122070312 104.21199798583984,184.65699768066406 -0.10100000351667404,184.65699768066406 C-104.41400146484375,184.65699768066406 -188.9770050048828,100.09500122070312 -188.9770050048828,-4.2179999351501465 C-188.9770050048828,-108.53099822998047 -104.41400146484375,-193.093994140625 -0.10100000351667404,-193.093994140625 C104.21199798583984,-193.093994140625 188.7740020751953,-108.53099822998047 188.7740020751953,-4.2179999351501465z"></path></g><g opacity="1" transform="matrix(1,0,0,1,0,0)"><path fill="rgb(255,207,0)" fill-opacity="1" d=" M168.30599975585938,-3.50600004196167 C166.8489990234375,91.52200317382812 90.29499816894531,167.4029998779297 -2.683000087738037,165.97799682617188 C-95.66100311279297,164.55299377441406 -169.85299682617188,86.36199951171875 -168.39700317382812,-8.666999816894531 C-166.94000244140625,-103.69599914550781 -90.38600158691406,-179.5749969482422 2.5920000076293945,-178.14999389648438 C95.56999969482422,-176.72500610351562 169.76300048828125,-98.53500366210938 168.30599975585938,-3.50600004196167z"></path></g><g opacity="1" transform="matrix(1,0,0,1,0,0)"><path stroke-linecap="butt" stroke-linejoin="miter" fill-opacity="0" stroke-miterlimit="10" stroke="rgb(255,118,42)" stroke-opacity="1" stroke-width="8" d=" M188.7740020751953,-4.2179999351501465 C188.7740020751953,100.09500122070312 104.21199798583984,184.65699768066406 -0.10100000351667404,184.65699768066406 C-104.41400146484375,184.65699768066406 -188.9770050048828,100.09500122070312 -188.9770050048828,-4.2179999351501465 C-188.9770050048828,-108.53099822998047 -104.41400146484375,-193.093994140625 -0.10100000351667404,-193.093994140625 C104.21199798583984,-193.093994140625 188.7740020751953,-108.53099822998047 188.7740020751953,-4.2179999351501465z"></path></g><g opacity="0.9" transform="matrix(1,0,0,1,0,0)"><path fill="rgb(255,222,102)" fill-opacity="1" d=" M149.16600036621094,-46.64699935913086 C149.16600036621094,25.996000289916992 82.33699798583984,-31.468000411987305 -0.10100000351667404,-31.468000411987305 C-82.53900146484375,-31.468000411987305 -149.36900329589844,25.996000289916992 -149.36900329589844,-46.64699935913086 C-149.36900329589844,-119.29000091552734 -82.53900146484375,-178.1790008544922 -0.10100000351667404,-178.1790008544922 C82.33699798583984,-178.1790008544922 149.16600036621094,-119.29000091552734 149.16600036621094,-46.64699935913086z"></path></g><g opacity="1" transform="matrix(1,0,0,1,0,0)"><g opacity="1" transform="matrix(1,0,0,1,0,0)"><path stroke-linecap="round" stroke-linejoin="round" fill-opacity="0" stroke="rgb(255,255,255)" stroke-opacity="1" stroke-width="6" d=" M36.270999908447266,-173.9600067138672 C37.808998107910156,-173.625 39.40399932861328,-173.2550048828125 41.04899978637695,-172.8489990234375"></path></g><g opacity="1" transform="matrix(1,0,0,1,0,0)"><path stroke-linecap="round" stroke-linejoin="round" fill-opacity="0" stroke="rgb(255,255,255)" stroke-opacity="1" stroke-width="6" d=" M14.916999816894531,-177.1790008544922 C14.916999816894531,-177.1790008544922 19.784000396728516,-176.91900634765625 27.506999969482422,-175.64100646972656"></path></g></g></g><g style="display: block;" transform="matrix(1,0,0,1,256,256.0009765625)" opacity="1"><g opacity="1" transform="matrix(1,0,0,1,0,0)"><path fill="rgb(253,175,58)" fill-opacity="1" d=" M128.10000610351562,-2.9830000400543213 C128.10000610351562,29.518999099731445 13.244999885559082,29.518999099731445 13.244999885559082,-2.9830000400543213 C13.244999885559082,-35.48500061035156 38.95600128173828,-61.832000732421875 70.6719970703125,-61.832000732421875 C102.38800048828125,-61.832000732421875 128.10000610351562,-35.48500061035156 128.10000610351562,-2.9830000400543213z"></path></g><g opacity="1" transform="matrix(1,0,0,1,0,0)"><path fill="rgb(236,236,237)" fill-opacity="1" d=" M124.83899688720703,1.7000000476837158 C124.83899688720703,31.614999771118164 100.58699798583984,55.867000579833984 70.6719970703125,55.867000579833984 C40.75699996948242,55.867000579833984 16.506000518798828,31.614999771118164 16.506000518798828,1.7000000476837158 C16.506000518798828,-28.215999603271484 40.75699996948242,-52.46699905395508 70.6719970703125,-52.46699905395508 C100.58699798583984,-52.46699905395508 124.83899688720703,-28.215999603271484 124.83899688720703,1.7000000476837158z"></path><path stroke-linecap="butt" stroke-linejoin="miter" fill-opacity="0" stroke-miterlimit="10" stroke="rgb(184,186,195)" stroke-opacity="1" stroke-width="6" d=" M124.83899688720703,1.7000000476837158 C124.83899688720703,31.614999771118164 100.58699798583984,55.867000579833984 70.6719970703125,55.867000579833984 C40.75699996948242,55.867000579833984 16.506000518798828,31.614999771118164 16.506000518798828,1.7000000476837158 C16.506000518798828,-28.215999603271484 40.75699996948242,-52.46699905395508 70.6719970703125,-52.46699905395508 C100.58699798583984,-52.46699905395508 124.83899688720703,-28.215999603271484 124.83899688720703,1.7000000476837158z"></path></g><g opacity="1" transform="matrix(1,0,0,1,0,0)"><path fill="rgb(1,1,1)" fill-opacity="1" d=" M122.0510025024414,-3.9049999713897705 C122.0510025024414,22.85300064086914 99.07099914550781,44.54399871826172 70.7229995727539,44.54399871826172 C42.375,44.54399871826172 19.395000457763672,22.85300064086914 19.395000457763672,-3.9049999713897705 C19.395000457763672,-30.663000106811523 42.375,-52.35499954223633 70.7229995727539,-52.35499954223633 C99.07099914550781,-52.35499954223633 122.0510025024414,-30.663000106811523 122.0510025024414,-3.9049999713897705z"></path></g><g opacity="0" transform="matrix(1,0,0,1,0,0)"><path fill="rgb(255,255,255)" fill-opacity="1" d=" M107.5979995727539,6.789000034332275 C114.81900024414062,15.817000389099121 96.43000030517578,45.59600067138672 65.27400207519531,40.29199981689453 C34.11800003051758,34.987998962402344 31.27199935913086,14.312000274658203 35.48899841308594,10.52299976348877 C42.58000183105469,4.1519999504089355 49.108001708984375,24.43899917602539 76.98500061035156,20.159000396728516 C89.23100280761719,18.27899932861328 100.37699890136719,-2.239000082015991 107.5979995727539,6.789000034332275z"></path></g><g opacity="0.35000000000000003" transform="matrix(1,0,0,1,0,0)"><path fill="rgb(255,255,255)" fill-opacity="1" d=" M121.49099731445312,3.26200008392334 C117.83100128173828,-20.097999572753906 96.49099731445312,-38.02799987792969 70.72100067138672,-38.02799987792969 C44.95100021362305,-38.02799987792969 23.611000061035156,-20.097999572753906 19.951000213623047,3.26200008392334 C14.222000122070312,-30.31800079345703 42.37099838256836,-52.358001708984375 70.72100067138672,-52.358001708984375 C99.07099914550781,-52.358001708984375 124.97200012207031,-28.81800079345703 121.49099731445312,3.26200008392334z"></path></g><g opacity="1" transform="matrix(1,0,0,1,0,0)"><path stroke-linecap="butt" stroke-linejoin="miter" fill-opacity="0" stroke-miterlimit="10" stroke="rgb(1,1,1)" stroke-opacity="1" stroke-width="6" d=" M122.0510025024414,-3.9049999713897705 C122.0510025024414,22.85300064086914 99.07099914550781,44.54399871826172 70.7229995727539,44.54399871826172 C42.375,44.54399871826172 19.395000457763672,22.85300064086914 19.395000457763672,-3.9049999713897705 C19.395000457763672,-30.663000106811523 42.375,-52.35499954223633 70.7229995727539,-52.35499954223633 C99.07099914550781,-52.35499954223633 122.0510025024414,-30.663000106811523 122.0510025024414,-3.9049999713897705z"></path></g><g opacity="1" transform="matrix(1,0,0,1,-0.1150054931640625,1.321000099182129)"><g opacity="1" transform="matrix(1,0,0,1,0,0)"><path fill="rgb(255,255,255)" fill-opacity="1" d=" M73.36699676513672,-3.997999906539917 C59.99599838256836,6.3979997634887695 42.91400146484375,6.795000076293945 35.21200180053711,-3.1110000610351562 C27.510000228881836,-13.017000198364258 32.10499954223633,-29.47599983215332 45.47600173950195,-39.87200164794922 C58.84700012207031,-50.268001556396484 75.93000030517578,-50.66400146484375 83.63200378417969,-40.757999420166016 C91.33399963378906,-30.851999282836914 86.73799896240234,-14.394000053405762 73.36699676513672,-3.997999906539917z"></path></g><g opacity="1" transform="matrix(1,0,0,1,0,0)"><path fill="rgb(255,255,255)" fill-opacity="1" d=" M91.15699768066406,22.29800033569336 C85.87100219726562,26.408000946044922 79.11799621582031,26.56399917602539 76.072998046875,22.648000717163086 C73.02799987792969,18.73200035095215 74.84500122070312,12.22599983215332 80.13099670410156,8.116000175476074 C85.41699981689453,4.00600004196167 92.16999816894531,3.8499999046325684 95.21499633789062,7.765999794006348 C98.26000213623047,11.682000160217285 96.44300079345703,18.187999725341797 91.15699768066406,22.29800033569336z"></path></g></g></g><g style="display: block;" transform="matrix(1,0,0,1,255.99899291992188,256.0009765625)" opacity="1"><g opacity="1" transform="matrix(1,0,0,1,0,0)"><path fill="rgb(253,175,58)" fill-opacity="1" d=" M-13.244999885559082,-2.9830000400543213 C-13.244999885559082,29.518999099731445 -128.10000610351562,29.518999099731445 -128.10000610351562,-2.9830000400543213 C-128.10000610351562,-35.48500061035156 -102.38800048828125,-61.832000732421875 -70.6719970703125,-61.832000732421875 C-38.95600128173828,-61.832000732421875 -13.244999885559082,-35.48500061035156 -13.244999885559082,-2.9830000400543213z"></path></g><g opacity="1" transform="matrix(1,0,0,1,0,0)"><path fill="rgb(236,236,237)" fill-opacity="1" d=" M-16.5049991607666,1.7000000476837158 C-16.5049991607666,31.614999771118164 -40.75699996948242,55.867000579833984 -70.6719970703125,55.867000579833984 C-100.58699798583984,55.867000579833984 -124.83899688720703,31.614999771118164 -124.83899688720703,1.7000000476837158 C-124.83899688720703,-28.215999603271484 -100.58699798583984,-52.46699905395508 -70.6719970703125,-52.46699905395508 C-40.75699996948242,-52.46699905395508 -16.5049991607666,-28.215999603271484 -16.5049991607666,1.7000000476837158z"></path><path stroke-linecap="butt" stroke-linejoin="miter" fill-opacity="0" stroke-miterlimit="10" stroke="rgb(184,186,195)" stroke-opacity="1" stroke-width="6" d=" M-16.5049991607666,1.7000000476837158 C-16.5049991607666,31.614999771118164 -40.75699996948242,55.867000579833984 -70.6719970703125,55.867000579833984 C-100.58699798583984,55.867000579833984 -124.83899688720703,31.614999771118164 -124.83899688720703,1.7000000476837158 C-124.83899688720703,-28.215999603271484 -100.58699798583984,-52.46699905395508 -70.6719970703125,-52.46699905395508 C-40.75699996948242,-52.46699905395508 -16.5049991607666,-28.215999603271484 -16.5049991607666,1.7000000476837158z"></path></g><g opacity="1" transform="matrix(1,0,0,1,0,0)"><path fill="rgb(1,1,1)" fill-opacity="1" d=" M-19.29400062561035,-3.9049999713897705 C-19.29400062561035,22.85300064086914 -42.27399826049805,44.54399871826172 -70.62200164794922,44.54399871826172 C-98.97000122070312,44.54399871826172 -121.94999694824219,22.85300064086914 -121.94999694824219,-3.9049999713897705 C-121.94999694824219,-30.663000106811523 -98.97000122070312,-52.35499954223633 -70.62200164794922,-52.35499954223633 C-42.27399826049805,-52.35499954223633 -19.29400062561035,-30.663000106811523 -19.29400062561035,-3.9049999713897705z"></path></g><g opacity="0.35000000000000003" transform="matrix(1,0,0,1,0,0)"><path fill="rgb(255,255,255)" fill-opacity="1" d=" M-19.854000091552734,3.26200008392334 C-23.513999938964844,-20.097999572753906 -44.854000091552734,-38.02799987792969 -70.6240005493164,-38.02799987792969 C-96.39399719238281,-38.02799987792969 -117.73400115966797,-20.097999572753906 -121.39399719238281,3.26200008392334 C-129.5290069580078,-28.94300079345703 -98.9739990234375,-52.358001708984375 -70.6240005493164,-52.358001708984375 C-42.27399826049805,-52.358001708984375 -14.029000282287598,-28.56800079345703 -19.854000091552734,3.26200008392334z"></path></g><g opacity="0" transform="matrix(1,0,0,1,0,0)"><path fill="rgb(255,255,255)" fill-opacity="1" d=" M-107.8239974975586,6.789000034332275 C-115.04499816894531,15.817000389099121 -96.65599822998047,45.59600067138672 -65.5,40.29199981689453 C-34.34400177001953,34.987998962402344 -31.496999740600586,14.312000274658203 -35.7140007019043,10.52299976348877 C-42.80500030517578,4.1519999504089355 -49.33300018310547,24.43899917602539 -77.20999908447266,20.159000396728516 C-89.45600128173828,18.27899932861328 -100.60299682617188,-2.239000082015991 -107.8239974975586,6.789000034332275z"></path></g><g opacity="1" transform="matrix(1,0,0,1,0,0)"><path stroke-linecap="butt" stroke-linejoin="miter" fill-opacity="0" stroke-miterlimit="10" stroke="rgb(1,1,1)" stroke-opacity="1" stroke-width="6" d=" M-19.29400062561035,-3.9049999713897705 C-19.29400062561035,22.85300064086914 -42.27399826049805,44.54399871826172 -70.62200164794922,44.54399871826172 C-98.97000122070312,44.54399871826172 -121.94999694824219,22.85300064086914 -121.94999694824219,-3.9049999713897705 C-121.94999694824219,-30.663000106811523 -98.97000122070312,-52.35499954223633 -70.62200164794922,-52.35499954223633 C-42.27399826049805,-52.35499954223633 -19.29400062561035,-30.663000106811523 -19.29400062561035,-3.9049999713897705z"></path></g><g opacity="1" transform="matrix(1,0,0,1,-0.0709991455078125,0.20800018310546875)"><g opacity="1" transform="matrix(1,0,0,1,0,0)"><path fill="rgb(255,255,255)" fill-opacity="1" d=" M-67.97699737548828,-3.997999906539917 C-81.3479995727539,6.3979997634887695 -98.43099975585938,6.795000076293945 -106.13300323486328,-3.1110000610351562 C-113.83499908447266,-13.017000198364258 -109.23999786376953,-29.47599983215332 -95.86900329589844,-39.87200164794922 C-82.49800109863281,-50.268001556396484 -65.41500091552734,-50.66400146484375 -57.7130012512207,-40.757999420166016 C-50.01100158691406,-30.851999282836914 -54.60599899291992,-14.394000053405762 -67.97699737548828,-3.997999906539917z"></path></g><g opacity="1" transform="matrix(1,0,0,1,0,0)"><path fill="rgb(255,255,255)" fill-opacity="1" d=" M-50.1870002746582,22.29800033569336 C-55.472999572753906,26.408000946044922 -62.22600173950195,26.56399917602539 -65.27100372314453,22.648000717163086 C-68.31600189208984,18.73200035095215 -66.5,12.22599983215332 -61.2140007019043,8.116000175476074 C-55.928001403808594,4.00600004196167 -49.17499923706055,3.8499999046325684 -46.130001068115234,7.765999794006348 C-43.084999084472656,11.682000160217285 -44.9010009765625,18.187999725341797 -50.1870002746582,22.29800033569336z"></path></g></g></g><g style="display: block;" transform="matrix(1,0,0,1,256,255.99996948242188)" opacity="1"><g opacity="1" transform="matrix(1,0,0,1,0,0)"><g opacity="1" transform="matrix(1,0,0,1,0,0)"><path fill="rgb(255,225,156)" fill-opacity="1" d=" M0,108.02400207519531 C-20.44300079345703,108.02400207519531 -34.66299819946289,124.32499694824219 -26.375999450683594,132.57400512695312 C-20.62299919128418,138.30099487304688 -13.027000427246094,130.28799438476562 0,130.28799438476562 C13.027000427246094,130.28799438476562 20.474000930786133,138.14599609375 26.375999450683594,132.57400512695312 C35.275001525878906,124.1729965209961 20.44300079345703,108.02400207519531 0,108.02400207519531z"></path></g><g opacity="1" transform="matrix(1,0,0,1,0,0)"><path fill="rgb(255,173,0)" fill-opacity="1" d=" M0,104.02400207519531 C-20.44300079345703,104.02400207519531 -33.349998474121094,119.93199920654297 -27.47100067138672,127.59200286865234 C-22.52899932861328,134.031005859375 -13.027000427246094,122.28800201416016 0,122.28800201416016 C13.027000427246094,122.28800201416016 22.527000427246094,134.031005859375 27.4689998626709,127.59200286865234 C33.347999572753906,119.93199920654297 20.44300079345703,104.02400207519531 0,104.02400207519531z"></path></g><g opacity="1" transform="matrix(1,0,0,1,0,0)"><path fill="rgb(143,58,0)" fill-opacity="1" d=" M0,108.02400207519531 C-20.44300079345703,108.02400207519531 -32.255001068115234,121.91400146484375 -26.375999450683594,129.57400512695312 C-21.43400001525879,136.01300048828125 -13.027000427246094,126.28800201416016 0,126.28800201416016 C13.027000427246094,126.28800201416016 21.43400001525879,136.01300048828125 26.375999450683594,129.57400512695312 C32.255001068115234,121.91400146484375 20.44300079345703,108.02400207519531 0,108.02400207519531z"></path></g><g opacity="1" transform="matrix(1,0,0,1,0,0)"><path fill="rgb(107,32,0)" fill-opacity="1" d=" M27.4689998626709,127.59200286865234 C25.32900047302246,120.58200073242188 14.98900032043457,113.12200164794922 -0.0010000000474974513,113.12200164794922 C-14.991000175476074,113.12200164794922 -25.33099937438965,120.58200073242188 -27.47100067138672,127.59200286865234 C-30.270999908447266,119.74199676513672 -18.7810001373291,108.02200317382812 -0.0010000000474974513,108.02200317382812 C18.77899932861328,108.02200317382812 30.27899932861328,119.74199676513672 27.4689998626709,127.59200286865234z"></path></g></g></g><g style="display: block;" transform="matrix(1,0,0,1,256,255.99998474121094)" opacity="1"><g opacity="1" transform="matrix(1,0,0,1,0,0)"><g opacity="1" transform="matrix(1,0,0,1,0,0)"><path fill="rgb(255,237,182)" fill-opacity="1" d=" M-68.76100158691406,-107.94599914550781 C-74.81099700927734,-110.88099670410156 -79.9229965209961,-91.23500061035156 -95.61000061035156,-79.0009994506836 C-111.2969970703125,-66.76699829101562 -124.41400146484375,-64.5250015258789 -137.66700744628906,-58.691001892089844 C-140.96600341796875,-57.23899841308594 -139.1510009765625,-47.0620002746582 -124.22799682617188,-49.05799865722656 C-112.09100341796875,-50.680999755859375 -94.2699966430664,-55.770999908447266 -79.93800354003906,-70.22799682617188 C-65.60600280761719,-84.68499755859375 -60.40299987792969,-103.89099884033203 -68.76100158691406,-107.94599914550781z"></path></g><g opacity="1" transform="matrix(1,0,0,1,0,0)"><path fill="rgb(143,58,0)" fill-opacity="1" d=" M-70.0999984741211,-108.60900115966797 C-76.51799774169922,-110.61499786376953 -81.61100006103516,-94.78600311279297 -97.2979965209961,-82.552001953125 C-112.98500061035156,-70.31800079345703 -120.60199737548828,-67.35399627685547 -133.94200134277344,-61.72100067138672 C-141.13999938964844,-58.68199920654297 -139.44900512695312,-50.85100173950195 -125.91600036621094,-52.60900115966797 C-113.77300262451172,-54.1870002746582 -96.14600372314453,-60.25699996948242 -81.81400299072266,-74.71399688720703 C-67.48200225830078,-89.1709976196289 -62.59400177001953,-106.26300048828125 -70.0999984741211,-108.60900115966797z"></path></g><g opacity="1" transform="matrix(1,0,0,1,0,0)"><path fill="rgb(107,32,0)" fill-opacity="1" d=" M-66.62100219726562,-101.83599853515625 C-67.2020034790039,-102.73999786376953 -68.03399658203125,-103.39099884033203 -69.11299896240234,-103.72799682617188 C-75.53800201416016,-105.73200225830078 -80.88700103759766,-90.23400115966797 -96.31700134277344,-77.677001953125 C-113.65299987792969,-63.56800079345703 -134.98599243164062,-58.98500061035156 -136.5229949951172,-54.07600021362305 C-139.41900634765625,-56.236000061035156 -138.33200073242188,-59.86899948120117 -133.94000244140625,-61.72600173950195 C-120.5999984741211,-67.35900115966797 -112.98500061035156,-70.31300354003906 -97.2979965209961,-82.5469970703125 C-81.61100006103516,-94.78099822998047 -76.5199966430664,-110.61100006103516 -70.09500122070312,-108.60700225830078 C-67.5530014038086,-107.81600189208984 -66.44100189208984,-105.33499908447266 -66.62100219726562,-101.83599853515625z"></path></g></g><g opacity="1" transform="matrix(1,0,0,1,0,0)"><g opacity="1" transform="matrix(1,0,0,1,0,0)"><path fill="rgb(255,237,182)" fill-opacity="1" d=" M70.89700317382812,-107.94599914550781 C76.9469985961914,-110.88099670410156 82.05899810791016,-91.23500061035156 97.74600219726562,-79.0009994506836 C113.43299865722656,-66.76699829101562 126.55000305175781,-64.5250015258789 139.80299377441406,-58.691001892089844 C143.1020050048828,-57.23899841308594 141.28799438476562,-47.0620002746582 126.36499786376953,-49.05799865722656 C114.22799682617188,-50.680999755859375 96.40599822998047,-55.770999908447266 82.0739974975586,-70.22799682617188 C67.74199676513672,-84.68499755859375 62.53900146484375,-103.89099884033203 70.89700317382812,-107.94599914550781z"></path></g><g opacity="1" transform="matrix(1,0,0,1,0,0)"><path fill="rgb(143,58,0)" fill-opacity="1" d=" M72.23600006103516,-108.60900115966797 C78.65399932861328,-110.61499786376953 83.74700164794922,-94.78600311279297 99.43399810791016,-82.552001953125 C115.12100219726562,-70.31800079345703 122.73899841308594,-67.35399627685547 136.07899475097656,-61.72100067138672 C143.27699279785156,-58.68199920654297 141.58599853515625,-50.85100173950195 128.05299377441406,-52.60900115966797 C115.91000366210938,-54.1870002746582 98.28199768066406,-60.25699996948242 83.94999694824219,-74.71399688720703 C69.61799621582031,-89.1709976196289 64.7300033569336,-106.26300048828125 72.23600006103516,-108.60900115966797z"></path></g><g opacity="1" transform="matrix(1,0,0,1,0,0)"><path fill="rgb(107,32,0)" fill-opacity="1" d=" M68.75700378417969,-101.83599853515625 C69.33799743652344,-102.73999786376953 70.16999816894531,-103.39099884033203 71.2490005493164,-103.72799682617188 C77.67400360107422,-105.73200225830078 82.55400085449219,-89.63600158691406 98.4530029296875,-77.677001953125 C118.09600067138672,-62.9010009765625 136.53399658203125,-59.06800079345703 138.66000366210938,-54.07600021362305 C141.55599975585938,-56.236000061035156 140.46800231933594,-59.86899948120117 136.0760040283203,-61.72600173950195 C122.73600006103516,-67.35900115966797 115.12100219726562,-70.31300354003906 99.43399810791016,-82.5469970703125 C83.74700164794922,-94.78099822998047 78.65699768066406,-110.61100006103516 72.23200225830078,-108.60700225830078 C69.69000244140625,-107.81600189208984 68.57599639892578,-105.33499908447266 68.75700378417969,-101.83599853515625z"></path></g></g></g><g style="display: none;"><g><path></path><path stroke-linecap="butt" stroke-linejoin="miter" fill-opacity="0" stroke-miterlimit="10"></path></g><g><path></path></g></g><g style="display: none;"><g><path></path><path stroke-linecap="butt" stroke-linejoin="miter" fill-opacity="0" stroke-miterlimit="10"></path></g><g><path></path></g></g></g></svg>