<svg xmlns="http://www.w3.org/2000/svg" viewBox="0 0 512 512" width="512" height="512" style="width: 100%; height: 100%; transform: translate3d(0,0,0);" preserveAspectRatio="xMidYMid meet"><defs><clipPath id="__lottie_element_6296"><rect width="512" height="512" x="0" y="0"></rect></clipPath><clipPath id="__lottie_element_6298"><path d="M0,0 L744,0 L744,744 L0,744z"></path></clipPath><clipPath id="__lottie_element_6366"><path d="M0,0 L744,0 L744,744 L0,744z"></path></clipPath></defs><g clip-path="url(#__lottie_element_6296)"><g clip-path="url(#__lottie_element_6366)" style="display: none;"><g style="display: none;"><g><path stroke-linecap="round" stroke-linejoin="round" fill-opacity="0"></path></g><g><path></path><path stroke-linecap="butt" stroke-linejoin="miter" fill-opacity="0" stroke-miterlimit="4"></path></g></g><g style="display: none;"><g><path stroke-linecap="round" stroke-linejoin="round" fill-opacity="0"></path></g><g><path></path><path stroke-linecap="butt" stroke-linejoin="miter" fill-opacity="0" stroke-miterlimit="4"></path></g></g><g style="display: none;"><g><path stroke-linecap="round" stroke-linejoin="round" fill-opacity="0"></path></g><g><path></path><path stroke-linecap="butt" stroke-linejoin="miter" fill-opacity="0" stroke-miterlimit="4"></path></g></g><g style="display: none;"><g><path stroke-linecap="round" stroke-linejoin="round" fill-opacity="0"></path></g><g><path></path><path stroke-linecap="butt" stroke-linejoin="miter" fill-opacity="0" stroke-miterlimit="4"></path></g></g><g style="display: none;"><g><path stroke-linecap="round" stroke-linejoin="round" fill-opacity="0"></path></g><g><path></path><path stroke-linecap="butt" stroke-linejoin="miter" fill-opacity="0" stroke-miterlimit="4"></path></g></g><g style="display: none;"><g><path></path></g><g><path></path></g><g><g><path stroke-linecap="round" stroke-linejoin="round" fill-opacity="0"></path></g><g><path stroke-linecap="round" stroke-linejoin="round" fill-opacity="0"></path></g><g><path stroke-linecap="round" stroke-linejoin="round" fill-opacity="0"></path></g><g><path stroke-linecap="round" stroke-linejoin="round" fill-opacity="0"></path></g><g><path stroke-linecap="round" stroke-linejoin="round" fill-opacity="0"></path></g><g><path stroke-linecap="round" stroke-linejoin="round" fill-opacity="0"></path></g></g><g><path stroke-linecap="round" stroke-linejoin="round" fill-opacity="0"></path></g><g><path stroke-linecap="round" stroke-linejoin="round" fill-opacity="0"></path></g><g><path stroke-linecap="round" stroke-linejoin="round" fill-opacity="0"></path></g><g><path stroke-linecap="round" stroke-linejoin="round" fill-opacity="0"></path></g><g><path stroke-linecap="round" stroke-linejoin="round" fill-opacity="0"></path></g><g><path stroke-linecap="round" stroke-linejoin="round" fill-opacity="0"></path></g></g><g style="display: none;"><g><g><path></path></g><g><path stroke-linecap="round" stroke-linejoin="round" fill-opacity="0"></path></g></g><g><g><path></path></g><g><path></path></g><g><path stroke-linecap="round" stroke-linejoin="round" fill-opacity="0"></path></g><g><path stroke-linecap="round" stroke-linejoin="round" fill-opacity="0"></path></g><g><path stroke-linecap="round" stroke-linejoin="round" fill-opacity="0"></path></g><g><path stroke-linecap="round" stroke-linejoin="round" fill-opacity="0"></path></g></g><g><path stroke-linecap="round" stroke-linejoin="round" fill-opacity="0"></path></g><g><g><path></path></g><g><g><path></path></g><g><path></path></g><g><path stroke-linecap="round" stroke-linejoin="round" fill-opacity="0"></path></g><g><path stroke-linecap="round" stroke-linejoin="round" fill-opacity="0"></path></g><g><path stroke-linecap="round" stroke-linejoin="round" fill-opacity="0"></path></g><g><path stroke-linecap="round" stroke-linejoin="round" fill-opacity="0"></path></g><g><path stroke-linecap="round" stroke-linejoin="round" fill-opacity="0"></path></g><g><path stroke-linecap="butt" stroke-linejoin="miter" fill-opacity="0" stroke-miterlimit="10"></path></g><g><path></path></g><g><path stroke-linecap="butt" stroke-linejoin="miter" fill-opacity="0" stroke-miterlimit="10"></path></g><g><path></path></g></g><g><path></path></g><g><path></path></g><g><path></path></g><g><path></path></g><g><path stroke-linecap="round" stroke-linejoin="round" fill-opacity="0"></path></g></g><g><g><path></path></g><g><path></path></g><g><path></path></g><g><path></path></g><g><path></path></g><g><path></path></g><g><path></path></g><g><path stroke-linecap="round" stroke-linejoin="round" fill-opacity="0"></path></g><g><path stroke-linecap="round" stroke-linejoin="round" fill-opacity="0"></path></g><g><path stroke-linecap="butt" stroke-linejoin="miter" fill-opacity="0" stroke-miterlimit="10"></path></g><g><g><path stroke-linecap="round" stroke-linejoin="round" fill-opacity="0"></path></g><g><path stroke-linecap="round" stroke-linejoin="round" fill-opacity="0"></path></g></g><g><path stroke-linecap="butt" stroke-linejoin="miter" fill-opacity="0" stroke-miterlimit="10"></path></g><g><path stroke-linecap="butt" stroke-linejoin="miter" fill-opacity="0" stroke-miterlimit="10"></path></g></g></g><g style="display: none;"><g><path></path></g><g><path></path></g><g><g><path stroke-linecap="round" stroke-linejoin="round" fill-opacity="0"></path></g><g><path stroke-linecap="round" stroke-linejoin="round" fill-opacity="0"></path></g><g><path stroke-linecap="round" stroke-linejoin="round" fill-opacity="0"></path></g><g><path stroke-linecap="round" stroke-linejoin="round" fill-opacity="0"></path></g><g><path stroke-linecap="round" stroke-linejoin="round" fill-opacity="0"></path></g><g><path stroke-linecap="round" stroke-linejoin="round" fill-opacity="0"></path></g></g><g><path stroke-linecap="round" stroke-linejoin="round" fill-opacity="0"></path></g><g><path stroke-linecap="round" stroke-linejoin="round" fill-opacity="0"></path></g><g><path stroke-linecap="round" stroke-linejoin="round" fill-opacity="0"></path></g><g><path stroke-linecap="round" stroke-linejoin="round" fill-opacity="0"></path></g><g><path stroke-linecap="round" stroke-linejoin="round" fill-opacity="0"></path></g><g><path stroke-linecap="round" stroke-linejoin="round" fill-opacity="0"></path></g></g><g style="display: none;"><g><path stroke-linecap="round" stroke-linejoin="round" fill-opacity="0"></path></g><g><path></path><path stroke-linecap="butt" stroke-linejoin="miter" fill-opacity="0" stroke-miterlimit="4"></path></g></g><g style="display: none;"><g><path stroke-linecap="round" stroke-linejoin="round" fill-opacity="0"></path></g><g><path></path><path stroke-linecap="butt" stroke-linejoin="miter" fill-opacity="0" stroke-miterlimit="4"></path></g></g><g style="display: none;"><g><path stroke-linecap="round" stroke-linejoin="round" fill-opacity="0"></path></g><g><path></path><path stroke-linecap="butt" stroke-linejoin="miter" fill-opacity="0" stroke-miterlimit="4"></path></g></g><g style="display: none;"><g><path stroke-linecap="round" stroke-linejoin="round" fill-opacity="0"></path></g><g><path></path><path stroke-linecap="butt" stroke-linejoin="miter" fill-opacity="0" stroke-miterlimit="4"></path></g></g><g style="display: none;"><g><path stroke-linecap="round" stroke-linejoin="round" fill-opacity="0"></path></g><g><path></path><path stroke-linecap="butt" stroke-linejoin="miter" fill-opacity="0" stroke-miterlimit="4"></path></g></g><g style="display: none;"><g><path stroke-linecap="round" stroke-linejoin="round" fill-opacity="0"></path></g><g><path></path><path stroke-linecap="butt" stroke-linejoin="miter" fill-opacity="0" stroke-miterlimit="4"></path></g></g><g style="display: none;"><g><path stroke-linecap="round" stroke-linejoin="round" fill-opacity="0"></path></g><g><path></path><path stroke-linecap="butt" stroke-linejoin="miter" fill-opacity="0" stroke-miterlimit="4"></path></g></g><g style="display: none;"><g><path stroke-linecap="round" stroke-linejoin="round" fill-opacity="0"></path></g><g><path></path><path stroke-linecap="butt" stroke-linejoin="miter" fill-opacity="0" stroke-miterlimit="4"></path></g></g><g style="display: none;"><g><path stroke-linecap="round" stroke-linejoin="round" fill-opacity="0"></path></g><g><path></path><path stroke-linecap="butt" stroke-linejoin="miter" fill-opacity="0" stroke-miterlimit="4"></path></g></g><g style="display: none;"><g><path stroke-linecap="round" stroke-linejoin="round" fill-opacity="0"></path></g><g><path></path><path stroke-linecap="butt" stroke-linejoin="miter" fill-opacity="0" stroke-miterlimit="4"></path></g></g><g style="display: none;"><g><path stroke-linecap="round" stroke-linejoin="round" fill-opacity="0"></path></g><g><path></path><path stroke-linecap="butt" stroke-linejoin="miter" fill-opacity="0" stroke-miterlimit="4"></path></g></g><g style="display: none;"><g><path stroke-linecap="round" stroke-linejoin="round" fill-opacity="0"></path></g><g><path></path><path stroke-linecap="butt" stroke-linejoin="miter" fill-opacity="0" stroke-miterlimit="4"></path></g></g></g><g clip-path="url(#__lottie_element_6298)" style="display: block;" transform="matrix(0.9599999785423279,0,0,0.9599999785423279,-95.1199951171875,-101.1199951171875)" opacity="1"><g style="display: none;"><g><path stroke-linecap="round" stroke-linejoin="round" fill-opacity="0"></path></g><g><path></path><path stroke-linecap="butt" stroke-linejoin="miter" fill-opacity="0" stroke-miterlimit="4"></path></g></g><g style="display: none;"><g><path stroke-linecap="round" stroke-linejoin="round" fill-opacity="0"></path></g><g><path></path><path stroke-linecap="butt" stroke-linejoin="miter" fill-opacity="0" stroke-miterlimit="4"></path></g></g><g style="display: none;"><g><path stroke-linecap="round" stroke-linejoin="round" fill-opacity="0"></path></g><g><path></path><path stroke-linecap="butt" stroke-linejoin="miter" fill-opacity="0" stroke-miterlimit="4"></path></g></g><g style="display: none;"><g><path stroke-linecap="round" stroke-linejoin="round" fill-opacity="0"></path></g><g><path></path><path stroke-linecap="butt" stroke-linejoin="miter" fill-opacity="0" stroke-miterlimit="4"></path></g></g><g style="display: none;"><g><path stroke-linecap="round" stroke-linejoin="round" fill-opacity="0"></path></g><g><path></path><path stroke-linecap="butt" stroke-linejoin="miter" fill-opacity="0" stroke-miterlimit="4"></path></g></g><g style="display: block;" transform="matrix(0.03761718049645424,-0.8682922124862671,-0.8075873851776123,-0.035318341106176376,313.0247497558594,418.05322265625)" opacity="1"><g opacity="1" transform="matrix(1,0,0,1,0,0)"><path fill="rgb(237,236,225)" fill-opacity="1" d=" M74.23552703857422,68.25992584228516 C74.23552703857422,68.25992584228516 57.96828079223633,63.74542999267578 57.849281311035156,54.242431640625 C57.73627853393555,45.1804313659668 67.83000183105469,39.902000427246094 67.83000183105469,39.902000427246094 C67.83000183105469,39.902000427246094 57.30099868774414,34.19200134277344 61.055999755859375,22.506000518798828 C64.70800018310547,11.140999794006348 75.99600219726562,6.739999771118164 88.5,6.611000061035156 C102.08399963378906,6.4710001945495605 119.59200286865234,6.473999977111816 137.58299255371094,2.5320000648498535 C155.57400512695312,-1.409999966621399 181.1898956298828,-5.9987006187438965 195.5626983642578,15.186742782592773 C209.9355010986328,36.37218475341797 209.37933349609375,60.647701263427734 215.51109313964844,80.59950256347656 C221.64285278320312,100.55130767822266 227.33335876464844,137.9422149658203 219.55892944335938,160.92007446289062 C211.7845001220703,183.89793395996094 193.20506286621094,192.3451385498047 174.71115112304688,154.1423797607422 C174.71115112304688,154.1423797607422 163.06015014648438,182.20896911621094 146.74249267578125,179.9248809814453 C132.2788543701172,177.89990234375 128.80242919921875,157.50416564941406 129.04241943359375,149.95716857910156 C129.04241943359375,149.95716857910156 119.8849868774414,164.15113830566406 109.94486999511719,162.6522674560547 C99.6250991821289,161.0966796875 97.1135482788086,144.7696075439453 100.73355102539062,133.60659790039062 C100.73355102539062,133.60659790039062 91.2815170288086,144.1148223876953 82.16972351074219,141.31982421875 C67.92823028564453,136.95083618164062 75.30596923828125,116.7137451171875 75.30596923828125,116.7137451171875 C75.30596923828125,116.7137451171875 63.64006042480469,121.26737213134766 58.53105926513672,115.50736999511719 C50.2210578918457,106.13836669921875 59.23252487182617,81.49392700195312 74.23552703857422,68.25992584228516z"></path></g><g opacity="1" transform="matrix(1,0,0,1,0,0)"><path fill="rgb(253,251,242)" fill-opacity="1" d=" M219.558837890625,160.9151153564453 C213.6271209716797,178.4508056640625 201.52227783203125,187.195556640625 188.1643829345703,174.16989135742188 C196.01824951171875,174.81451416015625 202.6348876953125,167.64747619628906 206.48126220703125,156.6284637451172 C213.7121124267578,135.93043518066406 208.4735107421875,102.25594329833984 202.80233764648438,84.2901840209961 C197.1302032470703,66.32443237304688 197.66635131835938,44.464778900146484 184.3554229736328,25.398948669433594 C171.0444793701172,6.333118915557861 147.03399658203125,10.303000450134277 130.34100341796875,13.859999656677246 C113.65799713134766,17.41699981689453 97.41600036621094,17.41900062561035 84.81700134277344,17.549999237060547 C74.21800231933594,17.65399932861328 64.56199645996094,20.985000610351562 60.38600158691406,29.37299919128418 C60.0890007019043,27.37700080871582 60.22800064086914,25.086000442504883 61.053001403808594,22.503999710083008 C64.70899963378906,11.142999649047852 76,6.738999843597412 88.4990005493164,6.609000205993652 C102.08899688720703,6.473999977111816 119.58999633789062,6.47599983215332 137.58799743652344,2.5309998989105225 C155.5760040283203,-1.4140000343322754 181.19366455078125,-6.003512382507324 195.562744140625,15.189743041992188 C209.9305419921875,36.3723258972168 209.37661743164062,60.644466400146484 215.51304626464844,80.59750366210938 C221.63986206054688,100.55139923095703 227.33131408691406,137.9363555908203 219.558837890625,160.9151153564453z"></path></g><g opacity="1" transform="matrix(1,0,0,1,0,0)"><g opacity="1" transform="matrix(1,0,0,1,0,0)"><path stroke-linecap="round" stroke-linejoin="round" fill-opacity="0" stroke="rgb(189,192,180)" stroke-opacity="1" stroke-width="8" d=" M174.71115112304688,154.1423797607422 C174.71115112304688,154.1423797607422 163.83888244628906,118.35514068603516 169.70849609375,75.11189270019531"></path></g><g opacity="1" transform="matrix(1,0,0,1,0,0)"><path stroke-linecap="round" stroke-linejoin="round" fill-opacity="0" stroke="rgb(189,192,180)" stroke-opacity="1" stroke-width="8" d=" M129.04241943359375,149.95716857910156 C129.04241943359375,149.95716857910156 132.08026123046875,114.34626770019531 153.39813232421875,77.69042205810547"></path></g><g opacity="1" transform="matrix(1,0,0,1,0,0)"><path stroke-linecap="round" stroke-linejoin="round" fill-opacity="0" stroke="rgb(189,192,180)" stroke-opacity="1" stroke-width="8" d=" M100.73355102539062,133.60659790039062 C100.73355102539062,133.60659790039062 110.34889221191406,91.93362426757812 143.7691192626953,63.6938362121582"></path></g><g opacity="1" transform="matrix(1,0,0,1,0,0)"><path stroke-linecap="round" stroke-linejoin="round" fill-opacity="0" stroke="rgb(189,192,180)" stroke-opacity="1" stroke-width="8" d=" M75.30596923828125,116.7137451171875 C75.30596923828125,116.7137451171875 90.00283813476562,76.5405044555664 125.99083709716797,56.50650405883789"></path></g><g opacity="1" transform="matrix(1,0,0,1,0,0)"><path stroke-linecap="round" stroke-linejoin="round" fill-opacity="0" stroke="rgb(189,192,180)" stroke-opacity="1" stroke-width="8" d=" M74.23552703857422,68.25992584228516 C74.23552703857422,68.25992584228516 91.7011947631836,50.05697250366211 120.51713562011719,47.012901306152344"></path></g><g opacity="1" transform="matrix(1,0,0,1,0,0)"><path stroke-linecap="round" stroke-linejoin="round" fill-opacity="0" stroke="rgb(189,192,180)" stroke-opacity="1" stroke-width="8" d=" M67.83000183105469,39.902000427246094 C67.83000183105469,39.902000427246094 80.4271240234375,31.27949333190918 106.49812316894531,32.14649200439453"></path></g></g><g opacity="1" transform="matrix(1,0,0,1,0,0)"><path stroke-linecap="round" stroke-linejoin="round" fill-opacity="0" stroke="rgb(140,146,132)" stroke-opacity="1" stroke-width="8" d=" M74.23552703857422,68.25992584228516 C74.23552703857422,68.25992584228516 58.00428009033203,65.65743255615234 57.849281311035156,54.242431640625 C57.726280212402344,45.1804313659668 67.83000183105469,39.902000427246094 67.83000183105469,39.902000427246094 C67.83000183105469,39.902000427246094 58.90599822998047,34.16699981689453 62.117000579833984,22.31999969482422 C65.05599975585938,11.479000091552734 76.77100372314453,5.486999988555908 90.89700317382812,6.75600004196167 C103.3239974975586,7.873000144958496 119.59200286865234,6.473999977111816 137.58299255371094,2.5320000648498535 C155.57400512695312,-1.409999966621399 181.1898956298828,-5.9987006187438965 195.5626983642578,15.186742782592773 C209.9355010986328,36.37218475341797 209.37933349609375,60.647701263427734 215.51109313964844,80.59950256347656 C221.64285278320312,100.55130767822266 227.33335876464844,137.9422149658203 219.55892944335938,160.92007446289062 C211.7845001220703,183.89793395996094 193.2151336669922,192.24859619140625 174.71115112304688,154.1423797607422 C174.71115112304688,154.1423797607422 163.06015014648438,182.20896911621094 146.74249267578125,179.9248809814453 C132.2788543701172,177.89990234375 128.8185272216797,157.45994567871094 129.05853271484375,149.91294860839844 C129.05853271484375,149.91294860839844 119.8849868774414,164.15113830566406 109.94486999511719,162.6522674560547 C99.6250991821289,161.0966796875 97.1135482788086,144.7696075439453 100.73355102539062,133.60659790039062 C100.73355102539062,133.60659790039062 91.2815170288086,144.1148223876953 82.16972351074219,141.31982421875 C67.92823028564453,136.95083618164062 75.30596923828125,116.7137451171875 75.30596923828125,116.7137451171875 C75.30596923828125,116.7137451171875 63.64006042480469,121.26737213134766 58.53105926513672,115.50736999511719 C50.2210578918457,106.13836669921875 59.23252487182617,81.49392700195312 74.23552703857422,68.25992584228516z"></path></g><g opacity="1" transform="matrix(1,0,0,1,0,0)"><path stroke-linecap="round" stroke-linejoin="round" fill-opacity="0" stroke="rgb(189,192,180)" stroke-opacity="1" stroke-width="8" d=" M176.94837951660156,66.51306915283203 C176.94837951660156,66.51306915283203 175.02821350097656,55.038330078125 182.43524169921875,43.25273513793945"></path></g><g opacity="1" transform="matrix(1,0,0,1,0,0)"><path stroke-linecap="round" stroke-linejoin="round" fill-opacity="0" stroke="rgb(189,192,180)" stroke-opacity="1" stroke-width="8" d=" M150.5439453125,62.46735382080078 C150.5439453125,62.46735382080078 152.91835021972656,49.56672286987305 163.07147216796875,42.61883544921875"></path></g><g opacity="1" transform="matrix(1,0,0,1,0,0)"><path stroke-linecap="round" stroke-linejoin="round" fill-opacity="0" stroke="rgb(189,192,180)" stroke-opacity="1" stroke-width="8" d=" M136.50686645507812,54.0669059753418 C136.50686645507812,54.0669059753418 137.17190551757812,41.27711486816406 148.02035522460938,36.000492095947266"></path></g><g opacity="1" transform="matrix(1,0,0,1,0,0)"><path stroke-linecap="round" stroke-linejoin="round" fill-opacity="0" stroke="rgb(189,192,180)" stroke-opacity="1" stroke-width="8" d=" M122.57341003417969,37.378597259521484 C122.57341003417969,37.378597259521484 126.5983657836914,30.711597442626953 136.82235717773438,28.229598999023438"></path></g><g opacity="1" transform="matrix(1,0,0,1,0,0)"><path stroke-linecap="round" stroke-linejoin="round" fill-opacity="0" stroke="rgb(140,146,132)" stroke-opacity="1" stroke-width="8" d=" M212.4701385498047,68.20362091064453 C212.4701385498047,68.20362091064453 208.3196258544922,85.19511413574219 195.24049377441406,84.86292266845703 C182.161376953125,84.53072357177734 176.94837951660156,66.51306915283203 176.94837951660156,66.51306915283203 C176.94837951660156,66.51306915283203 169.20431518554688,80.09528350830078 159.9213409423828,78.35533905029297 C150.63836669921875,76.61540222167969 150.5439453125,62.46735382080078 150.5439453125,62.46735382080078 C150.5439453125,62.46735382080078 138.15684509277344,69.57691955566406 136.50686645507812,54.0669059753418 C136.50686645507812,54.0669059753418 132.43983459472656,57.96150588989258 125.99083709716797,56.50650405883789 C119.54183959960938,55.05150604248047 119.04940795898438,43.010597229003906 122.57341003417969,37.378597259521484 C122.57341003417969,37.378597259521484 111.06539916992188,42.76715850830078 109.59140014648438,28.90015983581543"></path></g></g><g style="display: block;" transform="matrix(0.8767287731170654,-0.0076257591135799885,0.004921598359942436,0.8832426071166992,353.1591491699219,395.6301574707031)" opacity="1"><g opacity="1" transform="matrix(1,0,0,1,0,0)"><g opacity="1" transform="matrix(1,0,0,1,0,0)"><path fill="rgb(97,102,50)" fill-opacity="1" d=" M-213.02227783203125,58.559776306152344 C-213.02227783203125,58.559776306152344 -212.90126037597656,66.57689666748047 -209.57177734375,76.8403091430664 C-209.57177734375,76.8403091430664 -194.82574462890625,84.69763946533203 -194.82574462890625,84.69763946533203 C-194.82574462890625,84.69763946533203 -202.870849609375,91.49275970458984 -202.870849609375,91.49275970458984 C-200.54534912109375,95.27690887451172 -197.68719482421875,99.02104187011719 -194.1752166748047,102.4978256225586 C-194.1752166748047,102.4978256225586 -132.81671142578125,131.65086364746094 -69.00917053222656,203.7692108154297 C-69.00917053222656,203.7692108154297 -49.77199935913086,93.58399963378906 -86.8010025024414,74.72699737548828 C-123.83000183105469,55.869998931884766 -174.20819091796875,47.57453918457031 -213.02227783203125,58.559776306152344z"></path></g><g opacity="1" transform="matrix(1,0,0,1,0,0)"><path stroke-linecap="round" stroke-linejoin="round" fill-opacity="0" stroke="rgb(63,68,26)" stroke-opacity="1" stroke-width="8" d=" M-213.02227783203125,58.559776306152344 C-213.02227783203125,58.559776306152344 -212.90126037597656,66.57689666748047 -209.57177734375,76.8403091430664 C-209.57177734375,76.8403091430664 -194.82574462890625,84.69763946533203 -194.82574462890625,84.69763946533203 C-194.82574462890625,84.69763946533203 -202.870849609375,91.49275970458984 -202.870849609375,91.49275970458984 C-200.54534912109375,95.27690887451172 -197.68719482421875,99.02104187011719 -194.1752166748047,102.4978256225586 C-194.1752166748047,102.4978256225586 -132.81671142578125,131.65086364746094 -69.00917053222656,203.7692108154297 C-69.00917053222656,203.7692108154297 -49.77199935913086,93.58399963378906 -86.8010025024414,74.72699737548828 C-123.83000183105469,55.869998931884766 -174.20819091796875,47.57453918457031 -213.02227783203125,58.559776306152344z"></path></g></g><g opacity="1" transform="matrix(1,0,0,1,0,0)"><g opacity="1" transform="matrix(1,0,0,1,0,0)"><path fill="rgb(127,133,80)" fill-opacity="1" d=" M181.59642028808594,-70.70512390136719 C181.59642028808594,-70.70512390136719 194.53570556640625,-63.51721954345703 194.53570556640625,-63.51721954345703 C194.47288513183594,-63.11067581176758 191.75633239746094,-50.03398132324219 191.7104034423828,-49.82627868652344 C191.6881103515625,-49.757415771484375 191.66677856445312,-49.68853759765625 191.65554809570312,-49.638614654541016 C191.64332580566406,-49.58967590332031 191.63314819335938,-49.549774169921875 191.6220245361328,-49.519832611083984 C191.62197875976562,-49.50983428955078 191.6199188232422,-49.4908332824707 191.60987854003906,-49.480892181396484 C191.5874786376953,-49.392032623291016 191.57626342773438,-49.34210968017578 191.5751190185547,-49.312129974365234 C191.56507873535156,-49.30316925048828 191.5650177001953,-49.29220962524414 191.5650177001953,-49.29220962524414 C93.83089447021484,-46.6422233581543 77.33899688720703,41.30699920654297 36.68899917602539,101.28700256347656 C-9.081000328063965,168.7969970703125 -69.00517272949219,203.76918029785156 -69.00517272949219,203.76918029785156 C-88.17288208007812,183.71963500976562 -87.34539794921875,158.00027465820312 -87.34539794921875,158.00027465820312 C-11.895770072937012,-113.53463745117188 187.1894989013672,-117.6092758178711 194.12950134277344,-100.01927185058594 C194.52951049804688,-99.01927185058594 194.8083953857422,-98.22334289550781 195.0830841064453,-97.11856842041016 C195.34796142578125,-96.02385711669922 196.44314575195312,-82.39098358154297 196.32342529296875,-79.81269073486328 C196.32342529296875,-79.81269073486328 181.59642028808594,-70.70512390136719 181.59642028808594,-70.70512390136719z"></path></g><g opacity="1" transform="matrix(1,0,0,1,0,0)"><path fill="rgb(162,167,115)" fill-opacity="1" d=" M183.27999877929688,-97.28496551513672 C186.1409454345703,-99.5130615234375 188.75048828125,-101.04927062988281 191.35047912597656,-102.6492691040039 C192.8004913330078,-101.8792724609375 193.74949645996094,-100.98927307128906 194.12950134277344,-100.01927185058594 C194.52951049804688,-99.01927185058594 194.8083953857422,-98.22334289550781 195.0830841064453,-97.11856842041016 C195.34796142578125,-96.02385711669922 196.44314575195312,-82.39098358154297 196.32342529296875,-79.81269073486328 C196.32342529296875,-79.81269073486328 183.99610900878906,-72.18948364257812 183.99610900878906,-72.18948364257812 C183.99610900878906,-72.18948364257812 193.95645141601562,-63.83871841430664 193.95645141601562,-63.83871841430664 C193.95645141601562,-63.83871841430664 191.5751190185547,-49.312129974365234 191.5751190185547,-49.312129974365234 C191.5751190185547,-49.312129974365234 180.4892578125,-48.692100524902344 180.4892578125,-48.692100524902344 C180.4892578125,-48.692100524902344 182.36656188964844,-65.99974060058594 182.36656188964844,-65.99974060058594 C182.36656188964844,-65.99974060058594 176.68014526367188,-68.85044860839844 175.29530334472656,-71.37364959716797 C172.5216522216797,-76.42803955078125 183.68280029296875,-81.49872589111328 183.6271209716797,-83.74797821044922 C183.4177703857422,-92.18511962890625 183.27999877929688,-97.28496551513672 183.27999877929688,-97.28496551513672z"></path></g><g opacity="1" transform="matrix(1,0,0,1,0,0)"><path stroke-linecap="round" stroke-linejoin="round" fill-opacity="0" stroke="rgb(97,102,50)" stroke-opacity="1" stroke-width="6" d=" M151.3643341064453,-64.65809631347656 C154.38925170898438,-65.70712280273438 157.2154083251953,-66.52851867675781 160.23226928710938,-67.07571411132812"></path></g><g opacity="1" transform="matrix(1,0,0,1,0,0)"><path stroke-linecap="round" stroke-linejoin="round" fill-opacity="0" stroke="rgb(97,102,50)" stroke-opacity="1" stroke-width="6" d=" M5.041103839874268,120.97483825683594 C18.813690185546875,106.9189453125 32.25699996948242,90.81500244140625 41.084999084472656,71.47000122070312 C63.40999984741211,22.548999786376953 95.9294204711914,-33.124755859375 133.91778564453125,-55.93160629272461"></path></g><g opacity="1" transform="matrix(1,0,0,1,0,0)"><path stroke-linecap="round" stroke-linejoin="round" fill-opacity="0" stroke="rgb(97,102,50)" stroke-opacity="1" stroke-width="6" d=" M-69.47797393798828,174.1067352294922 C-69.47797393798828,174.1067352294922 -44.707496643066406,161.56053161621094 -18.44080352783203,141.37405395507812"></path></g><g opacity="1" transform="matrix(1,0,0,1,0,0)"><path stroke-linecap="round" stroke-linejoin="round" fill-opacity="0" stroke="rgb(88,92,46)" stroke-opacity="1" stroke-width="8" d=" M196.32342529296875,-79.81269073486328 C196.32342529296875,-79.81269073486328 181.59642028808594,-70.70512390136719 181.59642028808594,-70.70512390136719 C181.59642028808594,-70.70512390136719 194.53570556640625,-63.51721954345703 194.53570556640625,-63.51721954345703 C194.47288513183594,-63.11067581176758 194.40110778808594,-62.71321105957031 194.3383331298828,-62.31666564941406 C194.21849060058594,-61.682498931884766 194.11070251464844,-61.06825256347656 194.00303649902344,-60.47300720214844 C193.75071716308594,-59.06481170654297 193.4908447265625,-57.75757598876953 193.24452209472656,-56.56824493408203 C193.18515014648438,-56.260658264160156 193.1158905029297,-55.97409439086914 193.05760192871094,-55.686492919921875 C192.9993438720703,-55.40888977050781 192.9411163330078,-55.14228439331055 192.88294982910156,-54.874664306640625 C192.59080505371094,-53.49762725830078 192.31655883789062,-52.33039093017578 192.0995330810547,-51.429779052734375 C192.03021240234375,-51.133216857910156 191.9620819091797,-50.87565231323242 191.905029296875,-50.638031005859375 C191.8245849609375,-50.311546325683594 191.75633239746094,-50.03398132324219 191.7104034423828,-49.82627868652344 C191.6881103515625,-49.757415771484375 191.6668243408203,-49.69853591918945 191.65554809570312,-49.638614654541016 C191.6443634033203,-49.59869384765625 191.63320922851562,-49.558773040771484 191.6220245361328,-49.519832611083984 C191.62197875976562,-49.50983428955078 191.6199188232422,-49.4908332824707 191.60987854003906,-49.480892181396484 C191.5874786376953,-49.392032623291016 191.57620239257812,-49.33211135864258 191.5751190185547,-49.312129974365234 C191.56507873535156,-49.30316925048828 191.5650177001953,-49.29220962524414 191.5650177001953,-49.29220962524414 C93.83089447021484,-46.6422233581543 77.33899688720703,41.30699920654297 36.68899917602539,101.28700256347656 C-9.081000328063965,168.7969970703125 -69.00517272949219,203.76918029785156 -69.00517272949219,203.76918029785156 C-88.17288208007812,183.71963500976562 -87.34539794921875,158.00027465820312 -87.34539794921875,158.00027465820312 C-11.895770072937012,-113.53463745117188 187.1894989013672,-117.6092758178711 194.12950134277344,-100.01927185058594 C194.52951049804688,-99.01927185058594 194.8083953857422,-98.22334289550781 195.0830841064453,-97.11856842041016 C195.34796142578125,-96.02385711669922 195.5716094970703,-94.8703384399414 195.75514221191406,-93.69804382324219 C195.9386444091797,-92.5157470703125 196.08004760742188,-91.30464172363281 196.181396484375,-90.07572174072266 C196.25547790527344,-89.22576141357422 196.30958557128906,-88.36690521240234 196.3515167236328,-87.49812316894531 C196.46298217773438,-84.98273468017578 196.45318603515625,-82.39994812011719 196.33346557617188,-79.82164764404297 C196.33346557617188,-79.82164764404297 196.32342529296875,-79.81269073486328 196.32342529296875,-79.81269073486328z"></path></g></g><g opacity="1" transform="matrix(1,0,0,1,0,0)"><path stroke-linecap="round" stroke-linejoin="round" fill-opacity="0" stroke="rgb(63,68,26)" stroke-opacity="1" stroke-width="6" d=" M-196.00201416015625,83.22309875488281 C-196.00201416015625,83.22309875488281 -182.14462280273438,89.35771179199219 -171.11875915527344,97.22120666503906"></path></g><g opacity="1" transform="matrix(1,0,0,1,0,0)"><g opacity="1" transform="matrix(1,0,0,1,0,0)"><path fill="rgb(223,228,178)" fill-opacity="1" d=" M194.12950134277344,-100.01927185058594 C194.12950134277344,-100.01927185058594 193.69393920898438,-99.98492431640625 192.7703857421875,-99.7672119140625 C192.6803741455078,-99.75082397460938 192.58029174804688,-99.72552490234375 192.46922302246094,-99.70125579833984 C192.0679931640625,-99.60997009277344 191.58575439453125,-99.50126647949219 191.05335998535156,-99.36589050292969 C190.92233276367188,-99.34176635742188 190.7811737060547,-99.29873657226562 190.631103515625,-99.2657470703125 C190.0487060546875,-99.12271881103516 189.41525268554688,-98.9620361328125 188.72271728515625,-98.78376007080078 C188.39047241210938,-98.69902038574219 188.04920959472656,-98.61322021484375 187.68690490722656,-98.5108413696289 C185.7764129638672,-98.00887298583984 183.4923095703125,-97.3644790649414 180.89356994628906,-96.57532501220703 C157.84930419921875,-89.5844497680664 111.663818359375,-71.2501220703125 82.83993530273438,-29.51972007751465 C40.1685676574707,32.262290954589844 39.29573059082031,72.20127868652344 -13.524269104003906,113.88127899169922 C-59.80426788330078,150.41127014160156 -87.34539794921875,158.00027465820312 -87.34539794921875,158.00027465820312 C-87.34539794921875,158.00027465820312 -154.54302978515625,79.43081665039062 -213.02528381347656,58.557796478271484 C-213.02528381347656,58.557796478271484 -133.47479248046875,23.849576950073242 -104.03252410888672,-14.714068412780762 C-84.91265869140625,-39.76264953613281 -73.59588623046875,-83.45805358886719 -41.435890197753906,-123.19805145263672 C-41.435890197753906,-123.19805145263672 -41.2921142578125,-123.10723876953125 -41.2921142578125,-123.10723876953125 C-23.18211555480957,-145.47723388671875 0.6684836745262146,-164.82839965820312 38.507286071777344,-178.67494201660156 C40.158973693847656,-179.27383422851562 41.94695281982422,-179.83773803710938 43.6485595703125,-180.4154510498047 C44.413291931152344,-180.67660522460938 45.27134323120117,-180.97198486328125 46.05613708496094,-181.24081420898438 C47.887760162353516,-181.83505249023438 49.6815299987793,-182.3107147216797 51.57204055786133,-182.8849334716797 C53.251426696777344,-183.40277099609375 54.960777282714844,-183.77764892578125 56.689083099365234,-184.27430725097656 C57.64377975463867,-184.54078674316406 58.62900161743164,-184.7107391357422 59.5989990234375,-185.000732421875 C59.5989990234375,-185.000732421875 62.03900146484375,-184.60073852539062 66.39900207519531,-183.53073120117188 C86.03900146484375,-178.6807403564453 144.88951110839844,-158.21926879882812 194.12950134277344,-100.01927185058594z"></path></g><g opacity="1" transform="matrix(1,0,0,1,0,0)"><g opacity="1" transform="matrix(1,0,0,1,0,0)"><path fill="rgb(107,117,99)" fill-opacity="1" d=" M-179.1189727783203,57.03627014160156 C-179.1189727783203,57.03627014160156 -97.43000030517578,27.7549991607666 -60.4010009765625,-63.10200119018555 C-20.145000457763672,-161.87899780273438 59.79645538330078,-170.8171844482422 59.79645538330078,-170.8171844482422 C59.79645538330078,-170.8171844482422 117.91554260253906,-158.32493591308594 166.5535430908203,-108.09793090820312 C166.5535430908203,-108.09793090820312 94.21556854248047,-96.291015625 55.297000885009766,-12.70199966430664 C15.736228942871094,72.15393829345703 -23.352529525756836,109.24652099609375 -81.69894409179688,134.40748596191406 C-81.69894409179688,134.40748596191406 -148.09783935546875,68.23023223876953 -179.1189727783203,57.03627014160156z"></path></g><g opacity="1" transform="matrix(1,0,0,1,0,0)"><path fill="rgb(224,227,181)" fill-opacity="1" d=" M123.52716064453125,-102.52530670166016 C123.52716064453125,-102.52530670166016 108.40913391113281,-118.9033203125 128.68905639648438,-127.55257415771484 C128.68905639648438,-127.55257415771484 104.36519622802734,-149.1522674560547 70.49919128417969,-158.12374877929688 C70.49919128417969,-158.12374877929688 59.538631439208984,-148.60537719726562 41.34735107421875,-156.3779754638672 C41.34735107421875,-156.3779754638672 -10.21500015258789,-144.01600646972656 -37.60100173950195,-81.81600189208984 C-60.42499923706055,-29.976999282836914 -104.24955749511719,27.746583938598633 -140.35733032226562,46.325252532958984 C-140.35733032226562,46.325252532958984 -129.90444946289062,57.21099853515625 -144.09666442871094,65.73700714111328 C-144.09666442871094,65.73700714111328 -116.20112609863281,85.53343200683594 -93.80450439453125,107.43974304199219 C-93.80450439453125,107.43974304199219 -76.0910873413086,93.74232482910156 -60.86157989501953,112.43218994140625 C-60.86157989501953,112.43218994140625 -16.516000747680664,85.87000274658203 3.9700000286102295,51.847999572753906 C30.347999572753906,8.041000366210938 52.96183395385742,-65.6639175415039 123.52716064453125,-102.52530670166016z"></path></g><g opacity="0.6" transform="matrix(1,0,0,1,0,0)"><path stroke-linecap="round" stroke-linejoin="round" fill-opacity="0" stroke="rgb(109,114,102)" stroke-opacity="1" stroke-width="6" d=" M65.66181945800781,-77.8869400024414 C65.66181945800781,-77.8869400024414 79.62223052978516,-101.0286865234375 109.42608642578125,-109.829833984375"></path></g><g opacity="0.6" transform="matrix(1,0,0,1,0,0)"><path stroke-linecap="round" stroke-linejoin="round" fill-opacity="0" stroke="rgb(109,114,102)" stroke-opacity="1" stroke-width="6" d=" M14.465632438659668,-107.28495025634766 C14.465632438659668,-107.28495025634766 28.186742782592773,-130.6436309814453 57.988243103027344,-139.5352020263672"></path></g><g opacity="0.6" transform="matrix(1,0,0,1,0,0)"><path stroke-linecap="round" stroke-linejoin="round" fill-opacity="0" stroke="rgb(109,114,102)" stroke-opacity="1" stroke-width="6" d=" M0.6546322107315063,-114.751953125 C0.6546322107315063,-114.751953125 14.996565818786621,-138.30783081054688 44.798065185546875,-147.19940185546875"></path></g><g opacity="0.6" transform="matrix(1,0,0,1,0,0)"><path stroke-linecap="round" stroke-linejoin="round" fill-opacity="0" stroke="rgb(109,114,102)" stroke-opacity="1" stroke-width="6" d=" M-37.89421844482422,60.17611312866211 C-37.89421844482422,60.17611312866211 -57.338680267333984,82.06129455566406 -83.15123748779297,92.2700424194336"></path></g><g opacity="0.6" transform="matrix(1,0,0,1,0,0)"><path stroke-linecap="round" stroke-linejoin="round" fill-opacity="0" stroke="rgb(109,114,102)" stroke-opacity="1" stroke-width="6" d=" M-48.67021942138672,49.40011215209961 C-48.67021942138672,49.40011215209961 -68.58892822265625,71.61270904541016 -94.12789154052734,81.62781524658203"></path></g><g opacity="1" transform="matrix(1,0,0,1,0,0)"><path stroke-linecap="butt" stroke-linejoin="miter" fill-opacity="0" stroke-miterlimit="10" stroke="rgb(145,176,130)" stroke-opacity="1" stroke-width="4" d=" M79.72108459472656,-112.21199798583984 C79.64363861083984,-105.78890991210938 70.64042663574219,-100.72348022460938 59.61142349243164,-100.89948272705078 C48.582420349121094,-101.07548522949219 39.705726623535156,-106.42507934570312 39.78316879272461,-112.8481674194336 C39.86061477661133,-119.27124786376953 48.86286926269531,-124.33570098876953 59.89187240600586,-124.15969848632812 C70.9208755493164,-123.98370361328125 79.79853057861328,-118.63508605957031 79.72108459472656,-112.21199798583984z"></path></g><g opacity="1" transform="matrix(1,0,0,1,0,0)"><path fill="rgb(145,176,130)" fill-opacity="1" d=" M72.8252182006836,-112.3212661743164 C72.77471923828125,-108.116455078125 66.88128662109375,-104.8002700805664 59.660560607910156,-104.915283203125 C52.43983459472656,-105.0302963256836 46.627559661865234,-108.53309631347656 46.67805862426758,-112.73789978027344 C46.728553771972656,-116.94271087646484 52.622962951660156,-120.25889587402344 59.843692779541016,-120.14388275146484 C67.06442260742188,-120.02886962890625 72.87571716308594,-116.52606964111328 72.8252182006836,-112.3212661743164z"></path></g><g opacity="1" transform="matrix(1,0,0,1,0,0)"><path stroke-linecap="butt" stroke-linejoin="miter" fill-opacity="0" stroke-miterlimit="10" stroke="rgb(107,118,97)" stroke-opacity="1" stroke-width="4" d=" M-76.85556030273438,50.22380447387695 C-76.84373474121094,56.980072021484375 -85.75428771972656,62.422550201416016 -96.75868225097656,62.38146209716797 C-107.76307678222656,62.34037399291992 -116.69355773925781,56.830020904541016 -116.70538330078125,50.07374954223633 C-116.71720886230469,43.31747817993164 -107.8076400756836,37.875 -96.8032455444336,37.91611099243164 C-85.7988510131836,37.95719909667969 -76.86738586425781,43.467533111572266 -76.85556030273438,50.22380447387695z"></path></g><g opacity="1" transform="matrix(1,0,0,1,0,0)"><path fill="rgb(107,117,99)" fill-opacity="1" d=" M-83.73616790771484,50.197994232177734 C-83.72797393798828,54.621009826660156 -89.56146240234375,58.18388748168945 -96.76583099365234,58.15690231323242 C-103.97019958496094,58.12991714477539 -109.81656646728516,54.5225715637207 -109.82476043701172,50.09955596923828 C-109.83294677734375,45.67654037475586 -103.99948120117188,42.11366271972656 -96.79511260986328,42.140647888183594 C-89.59074401855469,42.16763687133789 -83.74435424804688,45.77497863769531 -83.73616790771484,50.197994232177734z"></path></g></g><g opacity="1" transform="matrix(1,0,0,1,0,0)"><path fill="rgb(255,255,217)" fill-opacity="1" d=" M194.12950134277344,-100.01927185058594 C194.12950134277344,-100.01927185058594 193.69393920898438,-99.98492431640625 192.7703857421875,-99.7672119140625 C192.6803741455078,-99.75082397460938 192.58029174804688,-99.72552490234375 192.46922302246094,-99.70125579833984 C192.0679931640625,-99.60997009277344 191.58575439453125,-99.50126647949219 191.05335998535156,-99.36589050292969 C190.92233276367188,-99.34178924560547 190.7812042236328,-99.29873657226562 190.63111877441406,-99.2657470703125 C190.04872131347656,-99.12271881103516 189.41525268554688,-98.9620361328125 188.72271728515625,-98.78376007080078 C188.39144897460938,-98.69902038574219 188.04920959472656,-98.61322021484375 187.68690490722656,-98.5108413696289 C185.7764129638672,-98.00887298583984 183.4923095703125,-97.3644790649414 180.89356994628906,-96.57532501220703 C158.9974822998047,-89.93157958984375 116.36383056640625,-73.18220520019531 87.3102035522461,-35.618385314941406 C106.96202087402344,-79.90459442138672 171.66949462890625,-106.42085266113281 171.66949462890625,-106.42085266113281 C144.37750244140625,-148.47885131835938 58.79899978637695,-181.3307342529297 57.5989990234375,-182.000732421875 C56.23500061035156,-179.96173095703125 57.5989990234375,-182.000732421875 57.5989990234375,-182.000732421875 C57.5989990234375,-182.000732421875 59.62900161743164,-184.99073791503906 59.62900161743164,-184.99073791503906 C59.62900161743164,-184.99073791503906 57.5989990234375,-182.000732421875 57.5989990234375,-182.000732421875 C58.32899856567383,-181.8707275390625 62.85900115966797,-184.40074157714844 66.39900207519531,-183.53073120117188 C86.03900146484375,-178.6807403564453 144.88951110839844,-158.21926879882812 194.12950134277344,-100.01927185058594z"></path></g><g opacity="0.25" transform="matrix(1,0,0,1,0,0)"><path fill="rgb(255,255,217)" fill-opacity="1" d=" M-23.599735260009766,-141.63345336914062 C-23.599735260009766,-141.63345336914062 54.73500061035156,-112.82099914550781 106.88099670410156,-58.47600173950195 C106.88099670410156,-58.47600173950195 134.2557373046875,-78.21073913574219 134.2557373046875,-78.21073913574219 C134.2557373046875,-78.21073913574219 70.42810821533203,-145.7923583984375 -1.8318933248519897,-158.0873565673828 C-1.8318933248519897,-158.0873565673828 -23.599735260009766,-141.63345336914062 -23.599735260009766,-141.63345336914062z"></path></g><g opacity="0.25" transform="matrix(1,0,0,1,0,0)"><path fill="rgb(255,255,217)" fill-opacity="1" d=" M-169.45697021484375,35.919429779052734 C-169.45697021484375,35.919429779052734 -85.69786071777344,75.22915649414062 -48.30186080932617,138.21615600585938 C-48.30186080932617,138.21615600585938 -19.648454666137695,118.61238098144531 -19.648454666137695,118.61238098144531 C-19.648454666137695,118.61238098144531 -90.02459716796875,40.66579818725586 -145.6865997314453,21.219797134399414 C-145.6865997314453,21.219797134399414 -169.45697021484375,35.919429779052734 -169.45697021484375,35.919429779052734z"></path></g><g opacity="0.4" transform="matrix(1,0,0,1,0,0)"><path fill="rgb(88,92,46)" fill-opacity="1" d=" M-117.68522644042969,-0.11274809390306473 C-117.68522644042969,-0.11274809390306473 13.946999549865723,90.26000213623047 13.946999549865723,90.26000213623047 C13.946999549865723,90.26000213623047 31.315000534057617,114.52899932861328 31.315000534057617,114.52899932861328 C31.315000534057617,114.52899932861328 36.68899917602539,101.28700256347656 36.68899917602539,101.28700256347656 C36.68899917602539,101.28700256347656 21.190000534057617,77.95600128173828 21.190000534057617,77.95600128173828 C21.190000534057617,77.95600128173828 -108.8845443725586,-8.873577117919922 -108.8845443725586,-8.873577117919922 C-108.8845443725586,-8.873577117919922 -117.68522644042969,-0.11274809390306473 -117.68522644042969,-0.11274809390306473z"></path></g><g opacity="1" transform="matrix(1,0,0,1,0,0)"><path stroke-linecap="round" stroke-linejoin="round" fill-opacity="0" stroke="rgb(145,150,92)" stroke-opacity="1" stroke-width="8" d=" M59.5989990234375,-185.0037384033203 C59.5989990234375,-185.0037384033203 133.95750427246094,-171.14227294921875 194.12850952148438,-100.01927185058594 C194.12850952148438,-100.01927185058594 121.93933868408203,-86.12529754638672 82.84293365478516,-29.51972007751465 C40.16954803466797,32.2642707824707 39.268428802490234,71.55258178710938 -13.519289016723633,113.88027954101562 C-59.52244186401367,150.74403381347656 -87.34237670898438,158.00323486328125 -87.34237670898438,158.00323486328125 C-87.34237670898438,158.00323486328125 -154.4073028564453,79.96395111083984 -213.02227783203125,58.559776306152344 C-213.02227783203125,58.559776306152344 -133.473876953125,23.84853744506836 -104.0355224609375,-14.719048500061035 C-72.2717514038086,-56.331809997558594 -60.737648010253906,-153.86965942382812 59.5989990234375,-185.0037384033203z"></path></g></g><g opacity="1" transform="matrix(1,0,0,1,0,0)"><g opacity="1" transform="matrix(1,0,0,1,0,0)"><path fill="rgb(197,191,149)" fill-opacity="1" d=" M107.79198455810547,-13.297698974609375 C76.6175308227539,18.477048873901367 61.10900115966797,65.25700378417969 36.68899917602539,101.28700256347656 C36.68899917602539,101.28700256347656 19.679000854492188,79.96700286865234 19.679000854492188,79.96700286865234 C43.23899841308594,49.15700149536133 51.623870849609375,15.683785438537598 82.83993530273438,-29.51972007751465 C84.75912475585938,-32.30335235595703 86.76486206054688,-34.97370529174805 88.83826446533203,-37.56380081176758 C88.83826446533203,-37.56380081176758 107.79198455810547,-13.297698974609375 107.79198455810547,-13.297698974609375z"></path></g><g opacity="1" transform="matrix(1,0,0,1,0,0)"><path fill="rgb(211,204,160)" fill-opacity="1" d=" M88.83826446533203,-37.56380081176758 C86.76486206054688,-34.97370529174805 84.75917053222656,-32.302330017089844 82.83993530273438,-29.51972007751465 C51.62031555175781,15.68021011352539 43.23899841308594,49.15700149536133 19.679000854492188,79.96700286865234 C19.679000854492188,79.96700286865234 -39.26100158691406,39.23699951171875 -39.26100158691406,39.23699951171875 C-39.26100158691406,39.23699951171875 -108.8845443725586,-8.873577117919922 -108.8845443725586,-8.873577117919922 C-107.10397338867188,-10.782846450805664 -105.5296630859375,-12.751736640930176 -104.03252410888672,-14.714068412780762 C-85.67620086669922,-38.77096176147461 -74.57598114013672,-80.23167419433594 -45.11594009399414,-118.57139587402344 C-45.11594009399414,-118.57139587402344 48.68849563598633,-61.87545394897461 48.68849563598633,-61.87545394897461 C48.68849563598633,-61.87545394897461 88.83826446533203,-37.56380081176758 88.83826446533203,-37.56380081176758z"></path></g><g opacity="1" transform="matrix(1,0,0,1,0,0)"><path fill="rgb(216,160,24)" fill-opacity="1" d=" M-55.68642044067383,-105.10824584960938 C-55.68642044067383,-105.10824584960938 77.36583709716797,-22.86518096923828 77.36583709716797,-22.86518096923828 C77.36583709716797,-22.86518096923828 96.25129699707031,0.14129267632961273 96.25129699707031,0.14129267632961273 C96.25129699707031,0.14129267632961273 107.79198455810547,-13.297698974609375 107.79198455810547,-13.297698974609375 C107.79198455810547,-13.297698974609375 88.83826446533203,-37.56380081176758 88.83826446533203,-37.56380081176758 C88.83826446533203,-37.56380081176758 -45.11594009399414,-118.57139587402344 -45.11594009399414,-118.57139587402344 C-45.11594009399414,-118.57139587402344 -55.68642044067383,-105.10824584960938 -55.68642044067383,-105.10824584960938z"></path></g><g opacity="1" transform="matrix(1,0,0,1,0,0)"><path fill="rgb(216,160,24)" fill-opacity="1" d=" M-99.46994018554688,-21.385271072387695 C-99.46994018554688,-21.385271072387695 30.3035831451416,64.4305419921875 30.3035831451416,64.4305419921875 C30.3035831451416,64.4305419921875 47.016998291015625,84.71700286865234 47.016998291015625,84.71700286865234 C47.016998291015625,84.71700286865234 36.68899917602539,101.28700256347656 36.68899917602539,101.28700256347656 C36.68899917602539,101.28700256347656 19.679000854492188,79.96700286865234 19.679000854492188,79.96700286865234 C19.679000854492188,79.96700286865234 -108.8845443725586,-8.873577117919922 -108.8845443725586,-8.873577117919922 C-108.8845443725586,-8.873577117919922 -99.46994018554688,-21.385271072387695 -99.46994018554688,-21.385271072387695z"></path></g><g opacity="0.3" transform="matrix(1,0,0,1,0,0)"><path fill="rgb(78,86,66)" fill-opacity="1" d=" M107.79198455810547,-13.297698974609375 C76.6175308227539,18.477048873901367 61.10900115966797,65.25700378417969 36.68899917602539,101.28700256347656 C36.68899917602539,101.28700256347656 19.679000854492188,79.96700286865234 19.679000854492188,79.96700286865234 C43.23899841308594,49.15700149536133 51.623870849609375,15.683785438537598 82.83993530273438,-29.51972007751465 C84.75912475585938,-32.30335235595703 86.76486206054688,-34.97370529174805 88.83826446533203,-37.56380081176758 C88.83826446533203,-37.56380081176758 107.79198455810547,-13.297698974609375 107.79198455810547,-13.297698974609375z"></path></g><g opacity="1" transform="matrix(1,0,0,1,0,0)"><path fill="rgb(83,65,29)" fill-opacity="1" d=" M-24.73203468322754,-53.665618896484375 C-25.04092788696289,-53.21629333496094 -25.55042266845703,-52.95736312866211 -26.09536361694336,-52.95947265625 C-29.118066787719727,-52.970680236816406 -39.606998443603516,-51.62900161743164 -45.974998474121094,-37.04399871826172 C-53.492000579833984,-19.82900047302246 -41.71799850463867,-16.60700035095215 -35.659000396728516,-20.902000427246094 C-29.600000381469727,-25.19700050354004 -15.13089656829834,-53.01616668701172 0.554103672504425,-54.09016418457031 C16.239103317260742,-55.16416549682617 29.22313690185547,-45.36212921142578 27.564416885375977,-23.599294662475586 C25.853883743286133,-1.4387729167938232 12.429706573486328,16.53074836730957 -1.3952938318252563,22.436748504638672 C-7.681293964385986,25.121747970581055 -16.071504592895508,23.77728843688965 -19.82050323486328,22.934288024902344 C-20.862503051757812,22.700288772583008 -21.408504486083984,21.554288864135742 -20.925504684448242,20.601289749145508 C-20.925504684448242,20.601289749145508 -13.000503540039062,4.966289043426514 -13.000503540039062,4.966289043426514 C-12.68950366973877,4.352288722991943 -12.024503707885742,3.991288900375366 -11.342503547668457,4.084289073944092 C-7.812503814697266,4.566288948059082 3.3643925189971924,4.870227336883545 9.628392219543457,-9.223773002624512 C17.14539337158203,-26.135772705078125 6.104000091552734,-37.81399917602539 -1.277999997138977,-32.981998443603516 C-8.65999984741211,-28.149999618530273 -20.20400047302246,-1.3049999475479126 -37.922000885009766,2.0789999961853027 C-53.3380012512207,5.02400016784668 -70.82862091064453,-15.711999893188477 -57.942623138427734,-42.82600021362305 C-45.984622955322266,-67.98699951171875 -28.30514144897461,-70.00548553466797 -17.837932586669922,-67.64718627929688 C-16.706567764282227,-67.39189147949219 -16.190284729003906,-66.08094024658203 -16.84718894958496,-65.12538146972656 C-16.84718894958496,-65.12538146972656 -24.73203468322754,-53.665618896484375 -24.73203468322754,-53.665618896484375z"></path></g><g opacity="1" transform="matrix(1,0,0,1,0,0)"><path fill="rgb(83,65,29)" fill-opacity="1" d=" M-56.818912506103516,-55.92218017578125 C-56.818912506103516,-55.92218017578125 30.432207107543945,-2.4004790782928467 30.432207107543945,-2.4004790782928467 C31.184207916259766,-1.940479040145874 31.408227920532227,-0.9514790177345276 30.929227828979492,-0.21247904002666473 C30.929227828979492,-0.21247904002666473 26.404226303100586,6.768520832061768 26.404226303100586,6.768520832061768 C25.941226959228516,7.483520984649658 24.99222755432129,7.695540904998779 24.267227172851562,7.248540878295898 C24.267227172851562,7.248540878295898 -62.651145935058594,-46.61049270629883 -62.651145935058594,-46.61049270629883 C-63.37833023071289,-47.070682525634766 -63.597686767578125,-48.03200149536133 -63.14149475097656,-48.76218795776367 C-63.14149475097656,-48.76218795776367 -58.978607177734375,-55.425811767578125 -58.978607177734375,-55.425811767578125 C-58.5203971862793,-56.159996032714844 -57.552101135253906,-56.38138961791992 -56.818912506103516,-55.92218017578125z"></path></g><g opacity="1" transform="matrix(1,0,0,1,0,0)"><path stroke-linecap="round" stroke-linejoin="round" fill-opacity="0" stroke="rgb(126,83,11)" stroke-opacity="1" stroke-width="8" d=" M107.79198455810547,-13.297698974609375 C76.8251953125,18.578022003173828 61.10900115966797,65.25700378417969 36.68899917602539,101.28700256347656 C36.68899917602539,101.28700256347656 19.679000854492188,79.96700286865234 19.679000854492188,79.96700286865234 C43.23899841308594,49.15700149536133 51.623870849609375,15.683785438537598 82.83993530273438,-29.51972007751465 C84.75912475585938,-32.30335235595703 86.76486206054688,-34.97370529174805 88.83826446533203,-37.56380081176758 C88.83826446533203,-37.56380081176758 107.79198455810547,-13.297698974609375 107.79198455810547,-13.297698974609375z"></path></g><g opacity="1" transform="matrix(1,0,0,1,0,0)"><path stroke-linecap="round" stroke-linejoin="round" fill-opacity="0" stroke="rgb(138,101,20)" stroke-opacity="1" stroke-width="8" d=" M88.83826446533203,-37.56380081176758 C86.76486206054688,-34.97370529174805 84.75917053222656,-32.302330017089844 82.83993530273438,-29.51972007751465 C51.62031555175781,15.68021011352539 43.23899841308594,49.15700149536133 19.679000854492188,79.96700286865234 C19.679000854492188,79.96700286865234 -39.26100158691406,39.23699951171875 -39.26100158691406,39.23699951171875 C-39.26100158691406,39.23699951171875 -108.8845443725586,-8.873577117919922 -108.8845443725586,-8.873577117919922 C-107.10397338867188,-10.782846450805664 -105.5296630859375,-12.751736640930176 -104.03252410888672,-14.714068412780762 C-85.67620086669922,-38.77096176147461 -74.57598114013672,-80.23167419433594 -45.11594009399414,-118.57139587402344 C-45.11594009399414,-118.57139587402344 49.0558967590332,-61.67478561401367 49.0558967590332,-61.67478561401367 C49.0558967590332,-61.67478561401367 88.83826446533203,-37.56380081176758 88.83826446533203,-37.56380081176758z"></path></g><g opacity="1" transform="matrix(1,0,0,1,0,0)"><path stroke-linecap="butt" stroke-linejoin="miter" fill-opacity="0" stroke-miterlimit="10" stroke="rgb(149,141,90)" stroke-opacity="1" stroke-width="8" d=" M77.51397705078125,-21.627023696899414 C55.504722595214844,11.931154251098633 45.53253936767578,39.82283401489258 30.306583404541016,64.43351745605469"></path></g><g opacity="1" transform="matrix(1,0,0,1,0,0)"><g opacity="1" transform="matrix(1,0,0,1,0,0)"><path stroke-linecap="round" stroke-linejoin="round" fill-opacity="0" stroke="rgb(255,255,255)" stroke-opacity="1" stroke-width="6" d=" M52.85499954223633,-46.237998962402344 C52.85499954223633,-46.237998962402344 55.11000061035156,-44.59400177001953 55.11000061035156,-44.59400177001953"></path></g><g opacity="1" transform="matrix(1,0,0,1,0,0)"><path stroke-linecap="round" stroke-linejoin="round" fill-opacity="0" stroke="rgb(255,255,255)" stroke-opacity="1" stroke-width="6" d=" M38.768001556396484,-56.507999420166016 C38.768001556396484,-56.507999420166016 45.683998107910156,-51.465999603271484 45.683998107910156,-51.465999603271484"></path></g></g><g opacity="1" transform="matrix(1,0,0,1,0,0)"><path stroke-linecap="butt" stroke-linejoin="miter" fill-opacity="0" stroke-miterlimit="10" stroke="rgb(149,141,90)" stroke-opacity="1" stroke-width="8" d=" M-99.43000030517578,-21.32262420654297 C-85.66282653808594,-42.63750076293945 -75.02438354492188,-73.7929458618164 -54.974754333496094,-104.66573333740234"></path></g><g opacity="1" transform="matrix(1,0,0,1,0,0)"><path stroke-linecap="butt" stroke-linejoin="miter" fill-opacity="0" stroke-miterlimit="10" stroke="rgb(122,113,61)" stroke-opacity="1" stroke-width="8" d=" M96.16072845458984,0.06985636055469513 C76.2501220703125,26.10561180114746 63.198001861572266,56.819000244140625 47.01900100708008,84.71700286865234"></path></g></g></g><g style="display: block;" transform="matrix(0.8315690755844116,-0.2828429043292999,0.281514048576355,0.8354944586753845,349.94415283203125,410.00506591796875)" opacity="1"><g opacity="1" transform="matrix(1,0,0,1,0,0)"><path fill="rgb(237,236,225)" fill-opacity="1" d=" M74.23552703857422,68.25992584228516 C74.23552703857422,68.25992584228516 57.96828079223633,63.74542999267578 57.849281311035156,54.242431640625 C57.73627853393555,45.1804313659668 67.83000183105469,39.902000427246094 67.83000183105469,39.902000427246094 C67.83000183105469,39.902000427246094 57.30099868774414,34.19200134277344 61.055999755859375,22.506000518798828 C64.70800018310547,11.140999794006348 75.99600219726562,6.739999771118164 88.5,6.611000061035156 C102.08399963378906,6.4710001945495605 119.59200286865234,6.473999977111816 137.58299255371094,2.5320000648498535 C155.57400512695312,-1.409999966621399 181.1898956298828,-5.9987006187438965 195.5626983642578,15.186742782592773 C209.9355010986328,36.37218475341797 209.37933349609375,60.647701263427734 215.51109313964844,80.59950256347656 C221.64285278320312,100.55130767822266 227.33335876464844,137.9422149658203 219.55892944335938,160.92007446289062 C211.7845001220703,183.89793395996094 193.20506286621094,192.3451385498047 174.71115112304688,154.1423797607422 C174.71115112304688,154.1423797607422 163.06015014648438,182.20896911621094 146.74249267578125,179.9248809814453 C132.2788543701172,177.89990234375 128.80242919921875,157.50416564941406 129.04241943359375,149.95716857910156 C129.04241943359375,149.95716857910156 119.8849868774414,164.15113830566406 109.94486999511719,162.6522674560547 C99.6250991821289,161.0966796875 97.1135482788086,144.7696075439453 100.73355102539062,133.60659790039062 C100.73355102539062,133.60659790039062 91.2815170288086,144.1148223876953 82.16972351074219,141.31982421875 C67.92823028564453,136.95083618164062 75.30596923828125,116.7137451171875 75.30596923828125,116.7137451171875 C75.30596923828125,116.7137451171875 63.64006042480469,121.26737213134766 58.53105926513672,115.50736999511719 C50.2210578918457,106.13836669921875 59.23252487182617,81.49392700195312 74.23552703857422,68.25992584228516z"></path></g><g opacity="1" transform="matrix(1,0,0,1,0,0)"><path fill="rgb(253,251,242)" fill-opacity="1" d=" M219.558837890625,160.9151153564453 C213.6271209716797,178.4508056640625 201.52227783203125,187.195556640625 188.1643829345703,174.16989135742188 C196.01824951171875,174.81451416015625 202.6348876953125,167.64747619628906 206.48126220703125,156.6284637451172 C213.7121124267578,135.93043518066406 208.4735107421875,102.25594329833984 202.80233764648438,84.2901840209961 C197.1302032470703,66.32443237304688 197.66635131835938,44.464778900146484 184.3554229736328,25.398948669433594 C171.0444793701172,6.333118915557861 147.03399658203125,10.303000450134277 130.34100341796875,13.859999656677246 C113.65799713134766,17.41699981689453 97.41600036621094,17.41900062561035 84.81700134277344,17.549999237060547 C74.21800231933594,17.65399932861328 64.56199645996094,20.985000610351562 60.38600158691406,29.37299919128418 C60.0890007019043,27.37700080871582 60.22800064086914,25.086000442504883 61.053001403808594,22.503999710083008 C64.70899963378906,11.142999649047852 76,6.738999843597412 88.4990005493164,6.609000205993652 C102.08899688720703,6.473999977111816 119.58999633789062,6.47599983215332 137.58799743652344,2.5309998989105225 C155.5760040283203,-1.4140000343322754 181.19366455078125,-6.003512382507324 195.562744140625,15.189743041992188 C209.9305419921875,36.3723258972168 209.37661743164062,60.644466400146484 215.51304626464844,80.59750366210938 C221.63986206054688,100.55139923095703 227.33131408691406,137.9363555908203 219.558837890625,160.9151153564453z"></path></g><g opacity="1" transform="matrix(1,0,0,1,0,0)"><g opacity="1" transform="matrix(1,0,0,1,0,0)"><path stroke-linecap="round" stroke-linejoin="round" fill-opacity="0" stroke="rgb(189,192,180)" stroke-opacity="1" stroke-width="8" d=" M174.71115112304688,154.1423797607422 C174.71115112304688,154.1423797607422 163.83888244628906,118.35514068603516 169.70849609375,75.11189270019531"></path></g><g opacity="1" transform="matrix(1,0,0,1,0,0)"><path stroke-linecap="round" stroke-linejoin="round" fill-opacity="0" stroke="rgb(189,192,180)" stroke-opacity="1" stroke-width="8" d=" M129.04241943359375,149.95716857910156 C129.04241943359375,149.95716857910156 132.08026123046875,114.34626770019531 153.39813232421875,77.69042205810547"></path></g><g opacity="1" transform="matrix(1,0,0,1,0,0)"><path stroke-linecap="round" stroke-linejoin="round" fill-opacity="0" stroke="rgb(189,192,180)" stroke-opacity="1" stroke-width="8" d=" M100.73355102539062,133.60659790039062 C100.73355102539062,133.60659790039062 110.34889221191406,91.93362426757812 143.7691192626953,63.6938362121582"></path></g><g opacity="1" transform="matrix(1,0,0,1,0,0)"><path stroke-linecap="round" stroke-linejoin="round" fill-opacity="0" stroke="rgb(189,192,180)" stroke-opacity="1" stroke-width="8" d=" M75.30596923828125,116.7137451171875 C75.30596923828125,116.7137451171875 90.00283813476562,76.5405044555664 125.99083709716797,56.50650405883789"></path></g><g opacity="1" transform="matrix(1,0,0,1,0,0)"><path stroke-linecap="round" stroke-linejoin="round" fill-opacity="0" stroke="rgb(189,192,180)" stroke-opacity="1" stroke-width="8" d=" M74.23552703857422,68.25992584228516 C74.23552703857422,68.25992584228516 91.7011947631836,50.05697250366211 120.51713562011719,47.012901306152344"></path></g><g opacity="1" transform="matrix(1,0,0,1,0,0)"><path stroke-linecap="round" stroke-linejoin="round" fill-opacity="0" stroke="rgb(189,192,180)" stroke-opacity="1" stroke-width="8" d=" M67.83000183105469,39.902000427246094 C67.83000183105469,39.902000427246094 80.4271240234375,31.27949333190918 106.49812316894531,32.14649200439453"></path></g></g><g opacity="1" transform="matrix(1,0,0,1,0,0)"><path stroke-linecap="round" stroke-linejoin="round" fill-opacity="0" stroke="rgb(140,146,132)" stroke-opacity="1" stroke-width="8" d=" M74.23552703857422,68.25992584228516 C74.23552703857422,68.25992584228516 58.00428009033203,65.65743255615234 57.849281311035156,54.242431640625 C57.726280212402344,45.1804313659668 67.83000183105469,39.902000427246094 67.83000183105469,39.902000427246094 C67.83000183105469,39.902000427246094 58.90599822998047,34.16699981689453 62.117000579833984,22.31999969482422 C65.05599975585938,11.479000091552734 76.77100372314453,5.486999988555908 90.89700317382812,6.75600004196167 C103.3239974975586,7.873000144958496 119.59200286865234,6.473999977111816 137.58299255371094,2.5320000648498535 C155.57400512695312,-1.409999966621399 181.1898956298828,-5.9987006187438965 195.5626983642578,15.186742782592773 C209.9355010986328,36.37218475341797 209.37933349609375,60.647701263427734 215.51109313964844,80.59950256347656 C221.64285278320312,100.55130767822266 227.33335876464844,137.9422149658203 219.55892944335938,160.92007446289062 C211.7845001220703,183.89793395996094 193.2151336669922,192.24859619140625 174.71115112304688,154.1423797607422 C174.71115112304688,154.1423797607422 163.06015014648438,182.20896911621094 146.74249267578125,179.9248809814453 C132.2788543701172,177.89990234375 128.8185272216797,157.45994567871094 129.05853271484375,149.91294860839844 C129.05853271484375,149.91294860839844 119.8849868774414,164.15113830566406 109.94486999511719,162.6522674560547 C99.6250991821289,161.0966796875 97.1135482788086,144.7696075439453 100.73355102539062,133.60659790039062 C100.73355102539062,133.60659790039062 91.2815170288086,144.1148223876953 82.16972351074219,141.31982421875 C67.92823028564453,136.95083618164062 75.30596923828125,116.7137451171875 75.30596923828125,116.7137451171875 C75.30596923828125,116.7137451171875 63.64006042480469,121.26737213134766 58.53105926513672,115.50736999511719 C50.2210578918457,106.13836669921875 59.23252487182617,81.49392700195312 74.23552703857422,68.25992584228516z"></path></g><g opacity="1" transform="matrix(1,0,0,1,0,0)"><path stroke-linecap="round" stroke-linejoin="round" fill-opacity="0" stroke="rgb(189,192,180)" stroke-opacity="1" stroke-width="8" d=" M176.94837951660156,66.51306915283203 C176.94837951660156,66.51306915283203 175.02821350097656,55.038330078125 182.43524169921875,43.25273513793945"></path></g><g opacity="1" transform="matrix(1,0,0,1,0,0)"><path stroke-linecap="round" stroke-linejoin="round" fill-opacity="0" stroke="rgb(189,192,180)" stroke-opacity="1" stroke-width="8" d=" M150.5439453125,62.46735382080078 C150.5439453125,62.46735382080078 152.91835021972656,49.56672286987305 163.07147216796875,42.61883544921875"></path></g><g opacity="1" transform="matrix(1,0,0,1,0,0)"><path stroke-linecap="round" stroke-linejoin="round" fill-opacity="0" stroke="rgb(189,192,180)" stroke-opacity="1" stroke-width="8" d=" M136.50686645507812,54.0669059753418 C136.50686645507812,54.0669059753418 137.17190551757812,41.27711486816406 148.02035522460938,36.000492095947266"></path></g><g opacity="1" transform="matrix(1,0,0,1,0,0)"><path stroke-linecap="round" stroke-linejoin="round" fill-opacity="0" stroke="rgb(189,192,180)" stroke-opacity="1" stroke-width="8" d=" M122.57341003417969,37.378597259521484 C122.57341003417969,37.378597259521484 126.5983657836914,30.711597442626953 136.82235717773438,28.229598999023438"></path></g><g opacity="1" transform="matrix(1,0,0,1,0,0)"><path stroke-linecap="round" stroke-linejoin="round" fill-opacity="0" stroke="rgb(140,146,132)" stroke-opacity="1" stroke-width="8" d=" M212.4701385498047,68.20362091064453 C212.4701385498047,68.20362091064453 208.3196258544922,85.19511413574219 195.24049377441406,84.86292266845703 C182.161376953125,84.53072357177734 176.94837951660156,66.51306915283203 176.94837951660156,66.51306915283203 C176.94837951660156,66.51306915283203 169.20431518554688,80.09528350830078 159.9213409423828,78.35533905029297 C150.63836669921875,76.61540222167969 150.5439453125,62.46735382080078 150.5439453125,62.46735382080078 C150.5439453125,62.46735382080078 138.15684509277344,69.57691955566406 136.50686645507812,54.0669059753418 C136.50686645507812,54.0669059753418 132.43983459472656,57.96150588989258 125.99083709716797,56.50650405883789 C119.54183959960938,55.05150604248047 119.04940795898438,43.010597229003906 122.57341003417969,37.378597259521484 C122.57341003417969,37.378597259521484 111.06539916992188,42.76715850830078 109.59140014648438,28.90015983581543"></path></g></g><g style="display: none;"><g><path stroke-linecap="round" stroke-linejoin="round" fill-opacity="0"></path></g><g><path></path><path stroke-linecap="butt" stroke-linejoin="miter" fill-opacity="0" stroke-miterlimit="4"></path></g></g><g style="display: none;"><g><path stroke-linecap="round" stroke-linejoin="round" fill-opacity="0"></path></g><g><path></path><path stroke-linecap="butt" stroke-linejoin="miter" fill-opacity="0" stroke-miterlimit="4"></path></g></g><g style="display: none;"><g><path stroke-linecap="round" stroke-linejoin="round" fill-opacity="0"></path></g><g><path></path><path stroke-linecap="butt" stroke-linejoin="miter" fill-opacity="0" stroke-miterlimit="4"></path></g></g><g style="display: none;"><g><path stroke-linecap="round" stroke-linejoin="round" fill-opacity="0"></path></g><g><path></path><path stroke-linecap="butt" stroke-linejoin="miter" fill-opacity="0" stroke-miterlimit="4"></path></g></g><g style="display: none;"><g><path stroke-linecap="round" stroke-linejoin="round" fill-opacity="0"></path></g><g><path></path><path stroke-linecap="butt" stroke-linejoin="miter" fill-opacity="0" stroke-miterlimit="4"></path></g></g><g style="display: none;"><g><path stroke-linecap="round" stroke-linejoin="round" fill-opacity="0"></path></g><g><path></path><path stroke-linecap="butt" stroke-linejoin="miter" fill-opacity="0" stroke-miterlimit="4"></path></g></g><g style="display: block;" transform="matrix(0.9215932488441467,-0.9310024976730347,0.6673369407653809,0.6605924367904663,340.85736083984375,431.8514404296875)" opacity="0.55"><g opacity="1" transform="matrix(1,0,0,1,0,0)"><path stroke-linecap="round" stroke-linejoin="round" fill-opacity="0" stroke="rgb(243,247,255)" stroke-opacity="1" stroke-width="0" d="M0 0"></path></g><g opacity="1" transform="matrix(1,0,0,1,0,0)"><path fill="rgb(175,175,175)" fill-opacity="1" d="M0 0"></path><path stroke-linecap="butt" stroke-linejoin="miter" fill-opacity="0" stroke-miterlimit="4" stroke="rgb(243,247,255)" stroke-opacity="1" stroke-width="18" d="M0 0"></path></g></g><g style="display: none;"><g><path stroke-linecap="round" stroke-linejoin="round" fill-opacity="0"></path></g><g><path></path><path stroke-linecap="butt" stroke-linejoin="miter" fill-opacity="0" stroke-miterlimit="4"></path></g></g><g style="display: none;"><g><path stroke-linecap="round" stroke-linejoin="round" fill-opacity="0"></path></g><g><path></path><path stroke-linecap="butt" stroke-linejoin="miter" fill-opacity="0" stroke-miterlimit="4"></path></g></g><g style="display: none;"><g><path stroke-linecap="round" stroke-linejoin="round" fill-opacity="0"></path></g><g><path></path><path stroke-linecap="butt" stroke-linejoin="miter" fill-opacity="0" stroke-miterlimit="4"></path></g></g><g style="display: none;"><g><path stroke-linecap="round" stroke-linejoin="round" fill-opacity="0"></path></g><g><path></path><path stroke-linecap="butt" stroke-linejoin="miter" fill-opacity="0" stroke-miterlimit="4"></path></g></g><g style="display: none;"><g><path stroke-linecap="round" stroke-linejoin="round" fill-opacity="0"></path></g><g><path></path><path stroke-linecap="butt" stroke-linejoin="miter" fill-opacity="0" stroke-miterlimit="4"></path></g></g></g></g></svg>