<svg xmlns="http://www.w3.org/2000/svg" viewBox="0 0 512 512" width="512" height="512" style="width: 100%; height: 100%; transform: translate3d(0,0,0);" preserveAspectRatio="xMidYMid meet"><defs><clipPath id="__lottie_element_6460"><rect width="512" height="512" x="0" y="0"></rect></clipPath><clipPath id="__lottie_element_6462"><path d="M0,0 L512,0 L512,512 L0,512z"></path></clipPath><linearGradient id="__lottie_element_6481" spreadMethod="pad" gradientUnits="userSpaceOnUse" x1="-32" y1="-180" x2="34.34299850463867" y2="352.2860107421875"><stop offset="0%" stop-color="rgb(253,253,253)"></stop><stop offset="58%" stop-color="rgb(232,232,231)"></stop><stop offset="100%" stop-color="rgb(211,210,209)"></stop></linearGradient><linearGradient id="__lottie_element_6484" spreadMethod="pad" gradientUnits="userSpaceOnUse"><stop></stop><stop></stop><stop></stop></linearGradient><clipPath id="__lottie_element_6494"><path d="M0,0 L512,0 L512,512 L0,512z"></path></clipPath><linearGradient id="__lottie_element_6513" spreadMethod="pad" gradientUnits="userSpaceOnUse"><stop></stop><stop></stop><stop></stop></linearGradient><linearGradient id="__lottie_element_6516" spreadMethod="pad" gradientUnits="userSpaceOnUse"><stop></stop><stop></stop><stop></stop></linearGradient></defs><g clip-path="url(#__lottie_element_6460)"><g clip-path="url(#__lottie_element_6494)" style="display: none;"><g style="display: none;"><g><path fill="url(#__lottie_element_6513)"></path></g><g><path stroke-linecap="round" stroke-linejoin="round" fill-opacity="0"></path></g></g><g style="display: none;"><g><g><path></path></g><g><path></path></g><g><path></path></g><g><path></path></g><g><path></path></g><g><path></path></g></g><g><g><path></path></g><g><path></path></g><g><path></path></g><g><path></path></g><g><path></path></g><g><path></path></g></g></g><g style="display: none;"><g><path></path><path stroke-linecap="round" stroke-linejoin="round" fill-opacity="0"></path></g></g><g style="display: none;"><g><path fill="url(#__lottie_element_6516)"></path></g><g><path stroke-linecap="round" stroke-linejoin="round" fill-opacity="0"></path></g></g><g style="display: none;"><g><path></path><path stroke-linecap="round" stroke-linejoin="round" fill-opacity="0"></path></g></g><g style="display: none;"><g><path></path></g></g><g style="display: none;"><g><g><path></path></g><g><path></path></g><g><path></path></g><g><path stroke-linecap="butt" stroke-linejoin="miter" fill-opacity="0" stroke-miterlimit="10"></path></g><g><path></path></g><g><path></path></g><g><g><g><path></path></g><g><path></path></g><g><path></path></g><g><path></path></g><g><path></path></g></g><g><path stroke-linecap="round" stroke-linejoin="round" fill-opacity="0"></path></g></g><g><path></path><path stroke-linecap="round" stroke-linejoin="round" fill-opacity="0"></path></g><g><path></path></g><g><path></path></g><g><path></path></g><g><path></path></g><g><path></path></g><g><path stroke-linecap="round" stroke-linejoin="round" fill-opacity="0"></path></g><g><path stroke-linecap="round" stroke-linejoin="round" fill-opacity="0"></path></g><g><path stroke-linecap="round" stroke-linejoin="round" fill-opacity="0"></path></g><g><path stroke-linecap="round" stroke-linejoin="round" fill-opacity="0"></path></g><g><path stroke-linecap="round" stroke-linejoin="round" fill-opacity="0"></path></g><g><path stroke-linecap="round" stroke-linejoin="miter" fill-opacity="0" stroke-miterlimit="10"></path></g></g><g><path stroke-linecap="round" stroke-linejoin="round" fill-opacity="0"></path></g><g><path stroke-linecap="round" stroke-linejoin="round" fill-opacity="0"></path></g><g><path stroke-linecap="round" stroke-linejoin="round" fill-opacity="0"></path></g></g></g><g clip-path="url(#__lottie_element_6462)" style="display: block;" transform="matrix(1,0,0,1,0,0)" opacity="1"><g style="display: block;" transform="matrix(1,0,0,1,216,237.57701110839844)" opacity="1"><g opacity="1" transform="matrix(1,0,0,1,0,0)"><path fill="url(#__lottie_element_6481)" fill-opacity="1" d=" M149.15699768066406,-185.89300537109375 C149.15699768066406,-185.89300537109375 149.15699768066406,187.2169952392578 149.15699768066406,187.2169952392578 C149.15699768066406,187.2169952392578 -167.822998046875,187.2169952392578 -167.822998046875,187.2169952392578 C-167.822998046875,187.2169952392578 -167.822998046875,-132.5229949951172 -167.822998046875,-132.5229949951172 C-167.822998046875,-132.5229949951172 -132.31300354003906,-164.9929962158203 -87.0530014038086,-185.7830047607422 C-86.98300170898438,-185.81300354003906 149.15699768066406,-185.89300537109375 149.15699768066406,-185.89300537109375z"></path></g><g opacity="1" transform="matrix(1,0,0,1,0,0)"><path stroke-linecap="round" stroke-linejoin="round" fill-opacity="0" stroke="rgb(198,198,197)" stroke-opacity="1" stroke-width="8" d=" M149.15699768066406,-185.89300537109375 C149.15699768066406,-185.89300537109375 149.15699768066406,187.2169952392578 149.15699768066406,187.2169952392578 C149.15699768066406,187.2169952392578 -167.822998046875,187.2169952392578 -167.822998046875,187.2169952392578 C-167.822998046875,187.2169952392578 -167.822998046875,-132.5229949951172 -167.822998046875,-132.5229949951172 C-167.822998046875,-132.5229949951172 -132.31300354003906,-164.9929962158203 -87.0530014038086,-185.7830047607422 C-86.98300170898438,-185.81300354003906 149.15699768066406,-185.89300537109375 149.15699768066406,-185.89300537109375z"></path></g></g><g style="display: block;" transform="matrix(1,0,0,1,216,237.57701110839844)" opacity="1"><g opacity="1" transform="matrix(1,0,0,1,0,0)"><g opacity="1" transform="matrix(1,0,0,1,0,0)"><path fill="rgb(176,176,176)" fill-opacity="1" d=" M-127.61699676513672,-68.69300079345703 C-127.61699676513672,-68.69300079345703 -35.38399887084961,-68.69300079345703 -35.38399887084961,-68.69300079345703 C-35.38399887084961,-68.69300079345703 -35.38399887084961,-54.61199951171875 -35.38399887084961,-54.61199951171875 C-35.38399887084961,-54.61199951171875 -127.61699676513672,-54.61199951171875 -127.61699676513672,-54.61199951171875 C-127.61699676513672,-54.61199951171875 -127.61699676513672,-68.69300079345703 -127.61699676513672,-68.69300079345703z"></path></g><g opacity="1" transform="matrix(1,0,0,1,0,0)"><path fill="rgb(176,176,176)" fill-opacity="1" d=" M-127.61699676513672,-22.718000411987305 C-127.61699676513672,-22.718000411987305 -48.257999420166016,-22.718000411987305 -48.257999420166016,-22.718000411987305 C-48.257999420166016,-22.718000411987305 -48.257999420166016,-8.63700008392334 -48.257999420166016,-8.63700008392334 C-48.257999420166016,-8.63700008392334 -127.61699676513672,-8.63700008392334 -127.61699676513672,-8.63700008392334 C-127.61699676513672,-8.63700008392334 -127.61699676513672,-22.718000411987305 -127.61699676513672,-22.718000411987305z"></path></g><g opacity="1" transform="matrix(1,0,0,1,0,0)"><path fill="rgb(176,176,176)" fill-opacity="1" d=" M-127.61699676513672,22.445999145507812 C-127.61699676513672,22.445999145507812 -24.354000091552734,22.445999145507812 -24.354000091552734,22.445999145507812 C-24.354000091552734,22.445999145507812 -24.354000091552734,36.527000427246094 -24.354000091552734,36.527000427246094 C-24.354000091552734,36.527000427246094 -127.61699676513672,36.527000427246094 -127.61699676513672,36.527000427246094 C-127.61699676513672,36.527000427246094 -127.61699676513672,22.445999145507812 -127.61699676513672,22.445999145507812z"></path></g><g opacity="1" transform="matrix(1,0,0,1,0,0)"><path fill="rgb(176,176,176)" fill-opacity="1" d=" M-127.61699676513672,67.43399810791016 C-127.61699676513672,67.43399810791016 -48.257999420166016,67.43399810791016 -48.257999420166016,67.43399810791016 C-48.257999420166016,67.43399810791016 -48.257999420166016,81.51499938964844 -48.257999420166016,81.51499938964844 C-48.257999420166016,81.51499938964844 -127.61699676513672,81.51499938964844 -127.61699676513672,81.51499938964844 C-127.61699676513672,81.51499938964844 -127.61699676513672,67.43399810791016 -127.61699676513672,67.43399810791016z"></path></g><g opacity="1" transform="matrix(1,0,0,1,0,0)"><path fill="rgb(176,176,176)" fill-opacity="1" d=" M-127.61699676513672,112.44599914550781 C-127.61699676513672,112.44599914550781 -29.163999557495117,112.44599914550781 -29.163999557495117,112.44599914550781 C-29.163999557495117,112.44599914550781 -29.163999557495117,126.5270004272461 -29.163999557495117,126.5270004272461 C-29.163999557495117,126.5270004272461 -127.61699676513672,126.5270004272461 -127.61699676513672,126.5270004272461 C-127.61699676513672,126.5270004272461 -127.61699676513672,112.44599914550781 -127.61699676513672,112.44599914550781z"></path></g><g opacity="1" transform="matrix(1,0,0,1,0,0)"><path fill="rgb(176,176,176)" fill-opacity="1" d=" M-127.61699676513672,-113.89299774169922 C-127.61699676513672,-113.89299774169922 -42.58399963378906,-113.89299774169922 -42.58399963378906,-113.89299774169922 C-42.58399963378906,-113.89299774169922 -42.58399963378906,-99.81300354003906 -42.58399963378906,-99.81300354003906 C-42.58399963378906,-99.81300354003906 -127.61699676513672,-99.81300354003906 -127.61699676513672,-99.81300354003906 C-127.61699676513672,-99.81300354003906 -127.61699676513672,-113.89299774169922 -127.61699676513672,-113.89299774169922z"></path></g></g><g opacity="1" transform="matrix(1,0,0,1,0,0)"><g opacity="1" transform="matrix(1,0,0,1,0,0)"><path fill="rgb(176,176,176)" fill-opacity="1" d=" M7.526000022888184,-68.69300079345703 C7.526000022888184,-68.69300079345703 107.072998046875,-68.69300079345703 107.072998046875,-68.69300079345703 C107.072998046875,-68.69300079345703 107.072998046875,-54.61199951171875 107.072998046875,-54.61199951171875 C107.072998046875,-54.61199951171875 7.526000022888184,-54.61199951171875 7.526000022888184,-54.61199951171875 C7.526000022888184,-54.61199951171875 7.526000022888184,-68.69300079345703 7.526000022888184,-68.69300079345703z"></path></g><g opacity="1" transform="matrix(1,0,0,1,0,0)"><path fill="rgb(176,176,176)" fill-opacity="1" d=" M7.908999919891357,-22.718000411987305 C7.908999919891357,-22.718000411987305 92.5719985961914,-22.718000411987305 92.5719985961914,-22.718000411987305 C92.5719985961914,-22.718000411987305 92.5719985961914,-8.63700008392334 92.5719985961914,-8.63700008392334 C92.5719985961914,-8.63700008392334 7.908999919891357,-8.63700008392334 7.908999919891357,-8.63700008392334 C7.908999919891357,-8.63700008392334 7.908999919891357,-22.718000411987305 7.908999919891357,-22.718000411987305z"></path></g><g opacity="1" transform="matrix(1,0,0,1,0,0)"><path fill="rgb(176,176,176)" fill-opacity="1" d=" M7.908999919891357,22.445999145507812 C7.908999919891357,22.445999145507812 88.94400024414062,22.445999145507812 88.94400024414062,22.445999145507812 C88.94400024414062,22.445999145507812 88.94400024414062,36.527000427246094 88.94400024414062,36.527000427246094 C88.94400024414062,36.527000427246094 7.908999919891357,36.527000427246094 7.908999919891357,36.527000427246094 C7.908999919891357,36.527000427246094 7.908999919891357,22.445999145507812 7.908999919891357,22.445999145507812z"></path></g><g opacity="1" transform="matrix(1,0,0,1,0,0)"><path fill="rgb(176,176,176)" fill-opacity="1" d=" M8.175000190734863,67.43399810791016 C8.175000190734863,67.43399810791016 87.53399658203125,67.43399810791016 87.53399658203125,67.43399810791016 C87.53399658203125,67.43399810791016 87.53399658203125,81.51499938964844 87.53399658203125,81.51499938964844 C87.53399658203125,81.51499938964844 8.175000190734863,81.51499938964844 8.175000190734863,81.51499938964844 C8.175000190734863,81.51499938964844 8.175000190734863,67.43399810791016 8.175000190734863,67.43399810791016z"></path></g><g opacity="1" transform="matrix(1,0,0,1,0,0)"><path fill="rgb(176,176,176)" fill-opacity="1" d=" M7.908999919891357,112.44599914550781 C7.908999919891357,112.44599914550781 102.94200134277344,112.44599914550781 102.94200134277344,112.44599914550781 C102.94200134277344,112.44599914550781 102.94200134277344,126.5270004272461 102.94200134277344,126.5270004272461 C102.94200134277344,126.5270004272461 7.908999919891357,126.5270004272461 7.908999919891357,126.5270004272461 C7.908999919891357,126.5270004272461 7.908999919891357,112.44599914550781 7.908999919891357,112.44599914550781z"></path></g><g opacity="1" transform="matrix(1,0,0,1,0,0)"><path fill="rgb(176,176,176)" fill-opacity="1" d=" M7.908999919891357,-113.89299774169922 C7.908999919891357,-113.89299774169922 93.97599792480469,-113.89299774169922 93.97599792480469,-113.89299774169922 C93.97599792480469,-113.89299774169922 93.97599792480469,-99.81300354003906 93.97599792480469,-99.81300354003906 C93.97599792480469,-99.81300354003906 7.908999919891357,-99.81300354003906 7.908999919891357,-99.81300354003906 C7.908999919891357,-99.81300354003906 7.908999919891357,-113.89299774169922 7.908999919891357,-113.89299774169922z"></path></g></g></g><g style="display: block;" transform="matrix(1,0,0,1,216,237.57701110839844)" opacity="1"><g opacity="1" transform="matrix(1,0,0,1,0,0)"><path fill="rgb(255,255,255)" fill-opacity="1" d=" M-123.00299835205078,-132.5229949951172 C-123.00299835205078,-132.5229949951172 -167.822998046875,-132.5229949951172 -167.822998046875,-132.5229949951172 C-167.822998046875,-132.5229949951172 -167.82200622558594,-132.5229949951172 -167.8209991455078,-132.5240020751953 C-167.56399536132812,-132.75799560546875 -132.6529998779297,-164.60800170898438 -88.0199966430664,-185.33599853515625 C-87.697998046875,-185.48500061035156 -87.3759994506836,-185.63499450683594 -87.0530014038086,-185.7830047607422 C-87.0739974975586,-185.7729949951172 -87.0979995727539,-185.76100158691406 -87.12200164794922,-185.74899291992188 C-90.82099914550781,-183.927001953125 -127.09600067138672,-165.16900634765625 -123.00299835205078,-132.5229949951172z"></path><path stroke-linecap="round" stroke-linejoin="round" fill-opacity="0" stroke="rgb(198,198,197)" stroke-opacity="1" stroke-width="8" d=" M-123.00299835205078,-132.5229949951172 C-123.00299835205078,-132.5229949951172 -167.822998046875,-132.5229949951172 -167.822998046875,-132.5229949951172 C-167.822998046875,-132.5229949951172 -167.82200622558594,-132.5229949951172 -167.8209991455078,-132.5240020751953 C-167.56399536132812,-132.75799560546875 -132.6529998779297,-164.60800170898438 -88.0199966430664,-185.33599853515625 C-87.697998046875,-185.48500061035156 -87.3759994506836,-185.63499450683594 -87.0530014038086,-185.7830047607422 C-87.0739974975586,-185.7729949951172 -87.0979995727539,-185.76100158691406 -87.12200164794922,-185.74899291992188 C-90.82099914550781,-183.927001953125 -127.09600067138672,-165.16900634765625 -123.00299835205078,-132.5229949951172z"></path></g></g><g style="display: none;"><g><path fill="url(#__lottie_element_6484)"></path></g><g><path stroke-linecap="round" stroke-linejoin="round" fill-opacity="0"></path></g></g><g style="display: none;"><g><path></path><path stroke-linecap="round" stroke-linejoin="round" fill-opacity="0"></path></g></g><g style="display: block;" transform="matrix(0.7728332281112671,-0.20670974254608154,0.20670974254608154,0.7728332281112671,365.8590393066406,258.7061767578125)" opacity="0.55"><g opacity="1" transform="matrix(1,0,0,1,0,0)"><path fill="rgb(198,198,197)" fill-opacity="1" d=" M-72.72200012207031,175.5760040283203 C-58.55799865722656,187.375 -53.38100051879883,186.03199768066406 -51.54999923706055,187.3249969482422 C-51.104000091552734,187.63999938964844 -51.30400085449219,187.99899291992188 -51.02399826049805,188.1280059814453 C-50.426998138427734,188.4029998779297 -51.18899917602539,187.8350067138672 -50.31399917602539,188.30099487304688 C-50.32099914550781,188.2429962158203 -49.95399856567383,184.5500030517578 -49.858001708984375,183.51199340820312 C-49.512001037597656,179.74899291992188 -49.20500183105469,176.16200256347656 -49.066001892089844,174.56700134277344 C-48.867000579833984,172.27200317382812 -48.58399963378906,169.33900451660156 -48.66600036621094,169.197998046875 C-48.67499923706055,169.10499572753906 -48.59199905395508,168.58599853515625 -48.57400131225586,168.5489959716797 C-48.73699951171875,168.3730010986328 -48.61600112915039,168.3780059814453 -48.91699981689453,168.6719970703125 C-49.50899887084961,169.25 -64.37999725341797,160.0709991455078 -70.58499908447266,163.21800231933594 C-76.28500366210938,166.10899353027344 -75.06500244140625,173.62399291992188 -72.72200012207031,175.5760040283203z"></path></g></g><g style="display: block;" transform="matrix(0.7639987468719482,-0.2372887134552002,0.2372887134552002,0.7639987468719482,359.6042175292969,264.0862121582031)" opacity="1"><g opacity="1" transform="matrix(1,0,0,1,0,0)"><g opacity="1" transform="matrix(1,0,0,1,0,0)"><path fill="rgb(240,209,146)" fill-opacity="1" d=" M13.375,137.81300354003906 C12.645999908447266,138.2010040283203 11.887999534606934,138.531005859375 11.109999656677246,138.81300354003906 C11.109999656677246,138.81300354003906 -63.87200164794922,165.3520050048828 -63.87200164794922,165.3520050048828 C-68.14600372314453,166.85699462890625 -72.26799774169922,162.7469940185547 -70.76100158691406,158.46499633789062 C-70.76100158691406,158.46499633789062 -44.250999450683594,83.28600311279297 -44.250999450683594,83.28600311279297 C-43.39799880981445,80.8550033569336 -42.000999450683594,78.6449966430664 -40.18000030517578,76.83100128173828 C-40.18000030517578,76.83100128173828 -36.46500015258789,75.45899963378906 -36.46500015258789,75.45899963378906 C-34.51900100708008,74.73400115966797 -32.54199981689453,76.43599700927734 -32.94200134277344,78.47100067138672 C-32.94200134277344,78.47100067138672 -34.9119987487793,88.28199768066406 -34.9119987487793,88.28199768066406 C-35.51900100708008,91.30000305175781 -33.20500183105469,94.11799621582031 -30.121999740600586,94.09600067138672 C-30.121999740600586,94.09600067138672 -16.424999237060547,94.02999877929688 -16.424999237060547,94.02999877929688 C-13.864999771118164,94.0199966430664 -11.741000175476074,95.99800109863281 -11.54800033569336,98.54399871826172 C-11.54800033569336,98.54399871826172 -10.272000312805176,115.77799987792969 -10.272000312805176,115.77799987792969 C-10.086000442504883,118.35900115966797 -7.205999851226807,121.052001953125 -4.611000061035156,120.99299621582031 C-4.611000061035156,120.99299621582031 8.777000427246094,119.99299621582031 8.777000427246094,119.99299621582031 C11.555999755859375,119.93499755859375 13.821000099182129,122.20800018310547 13.73799991607666,124.98699951171875 C13.73799991607666,124.98699951171875 13.375,137.81300354003906 13.375,137.81300354003906z"></path></g><g opacity="1" transform="matrix(1,0,0,1,0,0)"><path fill="rgb(232,190,116)" fill-opacity="1" d=" M-67.16999816894531,163.1320037841797 C-67.16999816894531,163.1320037841797 -69.06700134277344,164.45799255371094 -69.06700134277344,164.45799255371094 C-70.71900177001953,163.11099243164062 -71.58599853515625,160.81100463867188 -70.76100158691406,158.46499633789062 C-70.76100158691406,158.46499633789062 -44.250999450683594,83.28600311279297 -44.250999450683594,83.28600311279297 C-43.39799880981445,80.8550033569336 -42.000999450683594,78.6449966430664 -40.18000030517578,76.83100128173828 C-40.18000030517578,76.83100128173828 -36.46500015258789,75.45899963378906 -36.46500015258789,75.45899963378906 C-34.51900100708008,74.73400115966797 -32.54199981689453,76.43599700927734 -32.94200134277344,78.47100067138672 C-32.94200134277344,78.47100067138672 -34.9119987487793,88.28199768066406 -34.9119987487793,88.28199768066406 C-35.22600173950195,89.85099792480469 -34.75600051879883,91.35800170898438 -33.78200149536133,92.4489974975586 C-33.78200149536133,92.4489974975586 -67.16999816894531,163.1320037841797 -67.16999816894531,163.1320037841797z"></path></g><g opacity="0.49" transform="matrix(1,0,0,1,0,0)"><path fill="rgb(201,147,67)" fill-opacity="1" d=" M13.375,137.81300354003906 C12.645999908447266,138.2010040283203 11.887999534606934,138.531005859375 11.109999656677246,138.81300354003906 C11.109999656677246,138.81300354003906 -63.87200164794922,165.3520050048828 -63.87200164794922,165.3520050048828 C-66.22100067138672,166.1820068359375 -68.5250015258789,165.31399536132812 -69.87200164794922,163.64999389648438 C-69.87200164794922,163.64999389648438 -69.9010009765625,163.60800170898438 -69.9010009765625,163.60800170898438 C-69.9010009765625,163.60800170898438 -10.272000312805176,115.77799987792969 -10.272000312805176,115.77799987792969 C-10.086000442504883,118.35900115966797 -7.205999851226807,121.052001953125 -4.611000061035156,120.99299621582031 C-4.611000061035156,120.99299621582031 8.777000427246094,119.99299621582031 8.777000427246094,119.99299621582031 C11.555999755859375,119.93499755859375 13.821000099182129,122.20800018310547 13.73799991607666,124.98699951171875 C13.73799991607666,124.98699951171875 13.375,137.81300354003906 13.375,137.81300354003906z"></path></g><g opacity="1" transform="matrix(1,0,0,1,0,0)"><path stroke-linecap="butt" stroke-linejoin="miter" fill-opacity="0" stroke-miterlimit="10" stroke="rgb(178,139,77)" stroke-opacity="1" stroke-width="8" d=" M13.375,137.81300354003906 C12.645999908447266,138.2010040283203 11.887999534606934,138.531005859375 11.109999656677246,138.81300354003906 C11.109999656677246,138.81300354003906 -63.87200164794922,165.3520050048828 -63.87200164794922,165.3520050048828 C-68.14600372314453,166.85699462890625 -72.26799774169922,162.7469940185547 -70.76100158691406,158.46499633789062 C-70.76100158691406,158.46499633789062 -44.250999450683594,83.28600311279297 -44.250999450683594,83.28600311279297 C-43.39799880981445,80.8550033569336 -42.000999450683594,78.6449966430664 -40.18000030517578,76.83100128173828 C-40.18000030517578,76.83100128173828 -36.46500015258789,75.45899963378906 -36.46500015258789,75.45899963378906 C-34.51900100708008,74.73400115966797 -32.54199981689453,76.43599700927734 -32.94200134277344,78.47100067138672 C-32.94200134277344,78.47100067138672 -34.9119987487793,88.28199768066406 -34.9119987487793,88.28199768066406 C-35.51900100708008,91.30000305175781 -33.20500183105469,94.11799621582031 -30.121999740600586,94.09600067138672 C-30.121999740600586,94.09600067138672 -16.424999237060547,94.02999877929688 -16.424999237060547,94.02999877929688 C-13.864999771118164,94.0199966430664 -11.741000175476074,95.99800109863281 -11.54800033569336,98.54399871826172 C-11.54800033569336,98.54399871826172 -10.272000312805176,115.77799987792969 -10.272000312805176,115.77799987792969 C-10.086000442504883,118.35900115966797 -7.205999851226807,121.052001953125 -4.611000061035156,120.99299621582031 C-4.611000061035156,120.99299621582031 8.777000427246094,119.99299621582031 8.777000427246094,119.99299621582031 C11.555999755859375,119.93499755859375 13.821000099182129,122.20800018310547 13.73799991607666,124.98699951171875 C13.73799991607666,124.98699951171875 13.375,137.81300354003906 13.375,137.81300354003906z"></path></g><g opacity="1" transform="matrix(1,0,0,1,0,0)"><path fill="rgb(71,71,70)" fill-opacity="1" d=" M-39.02899932861328,156.552001953125 C-39.02899932861328,156.552001953125 -63.87200164794922,165.3520050048828 -63.87200164794922,165.3520050048828 C-68.14600372314453,166.85699462890625 -72.26799774169922,162.7469940185547 -70.76100158691406,158.46499633789062 C-70.76100158691406,158.46499633789062 -63.58000183105469,138.08599853515625 -63.58000183105469,138.08599853515625 C-63.58000183105469,138.08599853515625 -47.04999923706055,143.05999755859375 -39.02899932861328,156.552001953125z"></path></g><g opacity="0.2" transform="matrix(1,0,0,1,0,0)"><path fill="rgb(233,232,232)" fill-opacity="1" d=" M-48.25299835205078,147.09800720214844 C-48.25299835205078,147.09800720214844 -67.16999816894531,163.1320037841797 -67.16999816894531,163.1320037841797 C-69.53299713134766,163.96200561523438 -66.61900329589844,165.1510009765625 -67.96700286865234,163.45799255371094 C-67.96700286865234,163.45799255371094 -57.3489990234375,142.34100341796875 -57.3489990234375,142.34100341796875 C-53.17499923706055,144.99200439453125 -47.595001220703125,146.9409942626953 -47.63100051879883,146.8070068359375 C-48.57500076293945,143.3350067138672 -48.244998931884766,147.0919952392578 -48.25299835205078,147.09800720214844z"></path></g><g opacity="1" transform="matrix(1,0,0,1,0,0)"><g opacity="1" transform="matrix(1,0,0,1,0,0)"><g opacity="1" transform="matrix(1,0,0,1,0,0)"><path fill="rgb(255,190,20)" fill-opacity="1" d=" M128.43699645996094,24.270000457763672 C128.43699645996094,24.270000457763672 17.503000259399414,134.78799438476562 17.503000259399414,134.78799438476562 C16.28499984741211,136.0019989013672 14.897000312805176,137.01699829101562 13.375,137.81300354003906 C13.375,137.81300354003906 13.73799991607666,124.98699951171875 13.73799991607666,124.98699951171875 C13.821000099182129,122.20800018310547 11.555999755859375,119.93499755859375 8.777000427246094,119.99299621582031 C8.777000427246094,119.99299621582031 -4.611000061035156,120.99299621582031 -4.611000061035156,120.99299621582031 C-7.205999851226807,121.052001953125 -10.086000442504883,118.35900115966797 -10.272000312805176,115.77799987792969 C-10.272000312805176,115.77799987792969 -11.54800033569336,98.54399871826172 -11.54800033569336,98.54399871826172 C-11.741000175476074,95.99800109863281 -13.864999771118164,94.0199966430664 -16.424999237060547,94.02999877929688 C-16.424999237060547,94.02999877929688 -30.121999740600586,94.09600067138672 -30.121999740600586,94.09600067138672 C-33.20500183105469,94.11799621582031 -35.51900100708008,91.30000305175781 -34.9119987487793,88.28199768066406 C-34.9119987487793,88.28199768066406 -32.94200134277344,78.47100067138672 -32.94200134277344,78.47100067138672 C-32.54199981689453,76.43599700927734 -34.51900100708008,74.73400115966797 -36.46500015258789,75.45899963378906 C-36.46500015258789,75.45899963378906 -40.18000030517578,76.83100128173828 -40.18000030517578,76.83100128173828 C-40.18000030517578,76.83100128173828 70.72599792480469,-33.65800094604492 70.72599792480469,-33.65800094604492 C70.72599792480469,-33.65800094604492 128.43699645996094,24.270000457763672 128.43699645996094,24.270000457763672z"></path></g><g opacity="1" transform="matrix(1,0,0,1,0,0)"><path fill="rgb(239,167,7)" fill-opacity="1" d=" M-34.9119987487793,88.28199768066406 C-34.9119987487793,88.28199768066406 -32.94200134277344,78.47100067138672 -32.94200134277344,78.47100067138672 C-32.54199981689453,76.43599700927734 -34.51900100708008,74.73400115966797 -36.46500015258789,75.45899963378906 C-36.46500015258789,75.45899963378906 -40.18000030517578,76.83100128173828 -40.18000030517578,76.83100128173828 C-40.18000030517578,76.83100128173828 70.72599792480469,-33.65800094604492 70.72599792480469,-33.65800094604492 C70.72599792480469,-33.65800094604492 78.80000305175781,-25.554000854492188 78.80000305175781,-25.554000854492188 C78.80000305175781,-25.554000854492188 -34.9119987487793,88.28199768066406 -34.9119987487793,88.28199768066406z"></path></g><g opacity="1" transform="matrix(1,0,0,1,0,0)"><path fill="rgb(255,203,37)" fill-opacity="1" d=" M84.36799621582031,-19.964000701904297 C84.36799621582031,-19.964000701904297 -30.121999740600586,94.09600067138672 -30.121999740600586,94.09600067138672 C-33.20500183105469,94.11799621582031 -35.51900100708008,91.30000305175781 -34.9119987487793,88.28199768066406 C-34.9119987487793,88.28199768066406 78.80000305175781,-25.554000854492188 78.80000305175781,-25.554000854492188 C78.80000305175781,-25.554000854492188 84.36799621582031,-19.964000701904297 84.36799621582031,-19.964000701904297z"></path></g><g opacity="1" transform="matrix(1,0,0,1,0,0)"><path fill="rgb(214,144,18)" fill-opacity="1" d=" M128.43699645996094,24.270000457763672 C128.43699645996094,24.270000457763672 17.503000259399414,134.78799438476562 17.503000259399414,134.78799438476562 C16.28499984741211,136.0019989013672 14.897000312805176,137.01699829101562 13.375,137.81300354003906 C13.375,137.81300354003906 13.73799991607666,124.98699951171875 13.73799991607666,124.98699951171875 C13.821000099182129,122.20800018310547 11.555999755859375,119.93499755859375 8.777000427246094,119.99299621582031 C8.777000427246094,119.99299621582031 -4.611000061035156,120.99299621582031 -4.611000061035156,120.99299621582031 C-4.611000061035156,120.99299621582031 110.52400207519531,6.289999961853027 110.52400207519531,6.289999961853027 C110.52400207519531,6.289999961853027 128.43699645996094,24.270000457763672 128.43699645996094,24.270000457763672z"></path></g><g opacity="1" transform="matrix(1,0,0,1,0,0)"><path fill="rgb(255,203,37)" fill-opacity="1" d=" M110.52400207519531,6.289999961853027 C110.52400207519531,6.289999961853027 -4.611000061035156,120.99299621582031 -4.611000061035156,120.99299621582031 C-7.205999851226807,121.052001953125 -10.086000442504883,118.35900115966797 -10.272000312805176,115.77799987792969 C-10.272000312805176,115.77799987792969 105.09700012207031,0.8429999947547913 105.09700012207031,0.8429999947547913 C105.09700012207031,0.8429999947547913 110.52400207519531,6.289999961853027 110.52400207519531,6.289999961853027z"></path></g></g><g opacity="1" transform="matrix(1,0,0,1,0,0)"><path stroke-linecap="round" stroke-linejoin="round" fill-opacity="0" stroke="rgb(178,117,8)" stroke-opacity="1" stroke-width="8" d=" M128.43699645996094,24.270000457763672 C128.43699645996094,24.270000457763672 17.503000259399414,134.78799438476562 17.503000259399414,134.78799438476562 C16.28499984741211,136.0019989013672 14.897000312805176,137.01699829101562 13.375,137.81300354003906 C13.375,137.81300354003906 13.73799991607666,124.98699951171875 13.73799991607666,124.98699951171875 C13.821000099182129,122.20800018310547 11.555999755859375,119.93499755859375 8.777000427246094,119.99299621582031 C8.777000427246094,119.99299621582031 -4.611000061035156,120.99299621582031 -4.611000061035156,120.99299621582031 C-7.205999851226807,121.052001953125 -10.086000442504883,118.35900115966797 -10.272000312805176,115.77799987792969 C-10.272000312805176,115.77799987792969 -11.54800033569336,98.54399871826172 -11.54800033569336,98.54399871826172 C-11.741000175476074,95.99800109863281 -13.864999771118164,94.0199966430664 -16.424999237060547,94.02999877929688 C-16.424999237060547,94.02999877929688 -30.121999740600586,94.09600067138672 -30.121999740600586,94.09600067138672 C-33.20500183105469,94.11799621582031 -35.51900100708008,91.30000305175781 -34.9119987487793,88.28199768066406 C-34.9119987487793,88.28199768066406 -32.94200134277344,78.47100067138672 -32.94200134277344,78.47100067138672 C-32.54199981689453,76.43599700927734 -34.51900100708008,74.73400115966797 -36.46500015258789,75.45899963378906 C-36.46500015258789,75.45899963378906 -40.18000030517578,76.83100128173828 -40.18000030517578,76.83100128173828 C-40.18000030517578,76.83100128173828 70.72599792480469,-33.65800094604492 70.72599792480469,-33.65800094604492 C70.72599792480469,-33.65800094604492 128.43699645996094,24.270000457763672 128.43699645996094,24.270000457763672z"></path></g></g><g opacity="1" transform="matrix(1,0,0,1,0,0)"><path fill="rgb(190,202,217)" fill-opacity="1" d=" M149.66900634765625,1.503999948501587 C149.66900634765625,1.503999948501587 93.5719985961914,-54.80500030517578 93.5719985961914,-54.80500030517578 C93.5719985961914,-54.80500030517578 71.73799896240234,-33.053001403808594 71.73799896240234,-33.053001403808594 C71.73799896240234,-33.053001403808594 127.83499908447266,23.2549991607666 127.83499908447266,23.2549991607666 C127.83499908447266,23.2549991607666 149.66900634765625,1.503999948501587 149.66900634765625,1.503999948501587z"></path><path stroke-linecap="round" stroke-linejoin="round" fill-opacity="0" stroke="rgb(128,125,123)" stroke-opacity="1" stroke-width="8" d=" M149.66900634765625,1.503999948501587 C149.66900634765625,1.503999948501587 93.5719985961914,-54.80500030517578 93.5719985961914,-54.80500030517578 C93.5719985961914,-54.80500030517578 71.73799896240234,-33.053001403808594 71.73799896240234,-33.053001403808594 C71.73799896240234,-33.053001403808594 127.83499908447266,23.2549991607666 127.83499908447266,23.2549991607666 C127.83499908447266,23.2549991607666 149.66900634765625,1.503999948501587 149.66900634765625,1.503999948501587z"></path></g><g opacity="0.51" transform="matrix(1,0,0,1,0,0)"><path fill="rgb(128,125,123)" fill-opacity="1" d=" M148.93699645996094,0.7680000066757202 C148.93699645996094,0.7680000066757202 132.56399536132812,-15.666000366210938 132.56399536132812,-15.666000366210938 C132.56399536132812,-15.666000366210938 110.52100372314453,6.294000148773193 110.52100372314453,6.294000148773193 C110.52100372314453,6.294000148773193 126.89399719238281,22.72800064086914 126.89399719238281,22.72800064086914 C126.89399719238281,22.72800064086914 148.93699645996094,0.7680000066757202 148.93699645996094,0.7680000066757202z"></path></g><g opacity="0.51" transform="matrix(1,0,0,1,0,0)"><path fill="rgb(230,242,255)" fill-opacity="1" d=" M106.40799713134766,-41.92100143432617 C106.40799713134766,-41.92100143432617 96.52400207519531,-51.90700149536133 96.52400207519531,-51.90700149536133 C96.52400207519531,-51.90700149536133 74.09200286865234,-30.27199935913086 74.09200286865234,-30.27199935913086 C74.09200286865234,-30.27199935913086 84.36499786376953,-19.961000442504883 84.36499786376953,-19.961000442504883 C84.36499786376953,-19.961000442504883 106.40799713134766,-41.92100143432617 106.40799713134766,-41.92100143432617z"></path></g><g opacity="1" transform="matrix(1,0,0,1,0,0)"><path fill="rgb(239,143,143)" fill-opacity="1" d=" M160.70599365234375,-50.08399963378906 C160.70599365234375,-50.08399963378906 145.20199584960938,-65.64700317382812 145.20199584960938,-65.64700317382812 C133.9929962158203,-76.89800262451172 115.78399658203125,-76.93299865722656 104.53299713134766,-65.7239990234375 C104.53299713134766,-65.7239990234375 93.5719985961914,-54.80500030517578 93.5719985961914,-54.80500030517578 C93.5719985961914,-54.80500030517578 149.66900634765625,1.503999948501587 149.66900634765625,1.503999948501587 C149.66900634765625,1.503999948501587 160.6300048828125,-9.416000366210938 160.6300048828125,-9.416000366210938 C171.88099670410156,-20.625 171.9149932861328,-38.83300018310547 160.70599365234375,-50.08399963378906z"></path></g><g opacity="1" transform="matrix(1,0,0,1,0,0)"><path fill="rgb(221,115,115)" fill-opacity="1" d=" M152.51300048828125,-45.39799880981445 C152.51300048828125,-45.39799880981445 140.48399353027344,-57.47200012207031 140.48399353027344,-57.47200012207031 C131.9709930419922,-66.01699829101562 118.1449966430664,-66.04299926757812 109.5999984741211,-57.529998779296875 C109.5999984741211,-57.529998779296875 99.56400299072266,-47.53200149536133 99.56400299072266,-47.53200149536133 C99.56400299072266,-47.53200149536133 142.41900634765625,-4.514999866485596 142.41900634765625,-4.514999866485596 C142.41900634765625,-4.514999866485596 152.4550018310547,-14.512999534606934 152.4550018310547,-14.512999534606934 C161,-23.025999069213867 161.0260009765625,-36.85300064086914 152.51300048828125,-45.39799880981445z"></path></g><g opacity="0.21" transform="matrix(1,0,0,1,0,0)"><path fill="rgb(140,60,60)" fill-opacity="1" d=" M159.91799926757812,-8.711999893188477 C159.91799926757812,-8.711999893188477 151.08299255371094,0.08900000154972076 151.08299255371094,0.08900000154972076 C151.08299255371094,0.08900000154972076 134.77200317382812,-16.284000396728516 134.77200317382812,-16.284000396728516 C134.77200317382812,-16.284000396728516 139.75100708007812,-21.243999481201172 139.75100708007812,-21.243999481201172 C152.03399658203125,-33.47999954223633 150.98699951171875,-47.0890007019043 138.7209930419922,-59.402000427246094 C138.7209930419922,-59.402000427246094 123.45600128173828,-74.7249984741211 123.45600128173828,-74.7249984741211 C131.50399780273438,-75.31800079345703 138.34800720214844,-71.11100006103516 144.4949951171875,-64.94100189208984 C144.4949951171875,-64.94100189208984 160.00100708007812,-49.37699890136719 160.00100708007812,-49.37699890136719 C171.20899963378906,-38.12699890136719 171.16799926757812,-19.920000076293945 159.91799926757812,-8.711999893188477z"></path></g><g opacity="1" transform="matrix(1,0,0,1,0,0)"><path stroke-linecap="round" stroke-linejoin="round" fill-opacity="0" stroke="rgb(147,76,76)" stroke-opacity="1" stroke-width="8" d=" M160.70599365234375,-50.08399963378906 C160.70599365234375,-50.08399963378906 145.20199584960938,-65.64700317382812 145.20199584960938,-65.64700317382812 C133.9929962158203,-76.89800262451172 115.78399658203125,-76.93299865722656 104.53299713134766,-65.7239990234375 C104.53299713134766,-65.7239990234375 93.5719985961914,-54.80500030517578 93.5719985961914,-54.80500030517578 C93.5719985961914,-54.80500030517578 149.66900634765625,1.503999948501587 149.66900634765625,1.503999948501587 C149.66900634765625,1.503999948501587 160.6300048828125,-9.416000366210938 160.6300048828125,-9.416000366210938 C171.88099670410156,-20.625 171.9149932861328,-38.83300018310547 160.70599365234375,-50.08399963378906z"></path></g><g opacity="1" transform="matrix(1,0,0,1,0,0)"><path stroke-linecap="round" stroke-linejoin="round" fill-opacity="0" stroke="rgb(128,125,123)" stroke-opacity="1" stroke-width="8" d=" M131.25599670410156,27.093000411987305 C131.25599670410156,27.093000411987305 67.91300201416016,-36.487998962402344 67.91300201416016,-36.487998962402344 C67.91300201416016,-36.487998962402344 67.90599822998047,-36.48099899291992 67.90599822998047,-36.48099899291992 C67.90599822998047,-36.48099899291992 131.24899291992188,27.100000381469727 131.24899291992188,27.100000381469727 C131.24899291992188,27.100000381469727 131.25599670410156,27.093000411987305 131.25599670410156,27.093000411987305z"></path></g><g opacity="1" transform="matrix(1,0,0,1,0,0)"><path stroke-linecap="round" stroke-linejoin="round" fill-opacity="0" stroke="rgb(128,125,123)" stroke-opacity="1" stroke-width="8" d=" M153.29600524902344,5.13700008392334 C153.29600524902344,5.13700008392334 89.9530029296875,-58.44499969482422 89.9530029296875,-58.44499969482422 C89.9530029296875,-58.44499969482422 89.94599914550781,-58.4379997253418 89.94599914550781,-58.4379997253418 C89.94599914550781,-58.4379997253418 153.28900146484375,5.144000053405762 153.28900146484375,5.144000053405762 C153.28900146484375,5.144000053405762 153.29600524902344,5.13700008392334 153.29600524902344,5.13700008392334z"></path></g><g opacity="1" transform="matrix(1,0,0,1,0,0)"><path stroke-linecap="round" stroke-linejoin="round" fill-opacity="0" stroke="rgb(128,125,123)" stroke-opacity="1" stroke-width="5" d=" M88.0739974975586,-44.20100021362305 C88.0739974975586,-44.20100021362305 139.0449981689453,6.961999893188477 139.0449981689453,6.961999893188477"></path></g><g opacity="1" transform="matrix(1,0,0,1,0,0)"><path stroke-linecap="round" stroke-linejoin="round" fill-opacity="0" stroke="rgb(128,125,123)" stroke-opacity="1" stroke-width="5" d=" M81.94999694824219,-38.10100173950195 C81.94999694824219,-38.10100173950195 132.92100524902344,13.062999725341797 132.92100524902344,13.062999725341797"></path></g><g opacity="1" transform="matrix(1,0,0,1,0,0)"><path stroke-linecap="round" stroke-linejoin="miter" fill-opacity="0" stroke-miterlimit="10" stroke="rgb(48,51,53)" stroke-opacity="1" stroke-width="8" d=" M-39.02899932861328,156.552001953125 C-39.02899932861328,156.552001953125 -63.87200164794922,165.3520050048828 -63.87200164794922,165.3520050048828 C-68.14600372314453,166.85699462890625 -72.26799774169922,162.7469940185547 -70.76100158691406,158.46499633789062 C-70.76100158691406,158.46499633789062 -63.58000183105469,138.08599853515625 -63.58000183105469,138.08599853515625 C-63.58000183105469,138.08599853515625 -47.04999923706055,143.05999755859375 -39.02899932861328,156.552001953125z"></path></g></g><g opacity="1" transform="matrix(1,0,0,1,0,0)"><path stroke-linecap="round" stroke-linejoin="round" fill-opacity="0" stroke="rgb(255,255,255)" stroke-opacity="1" stroke-width="6" d=" M49.367000579833984,14.833000183105469 C49.367000579833984,14.833000183105469 53.46200180053711,10.737000465393066 53.46200180053711,10.737000465393066"></path></g><g opacity="1" transform="matrix(1,0,0,1,0,0)"><path stroke-linecap="round" stroke-linejoin="round" fill-opacity="0" stroke="rgb(255,255,255)" stroke-opacity="1" stroke-width="6" d=" M93.31999969482422,-29.121000289916992 C93.31999969482422,-29.121000289916992 97.41500091552734,-33.215999603271484 97.41500091552734,-33.215999603271484"></path></g><g opacity="1" transform="matrix(1,0,0,1,0,0)"><path stroke-linecap="round" stroke-linejoin="round" fill-opacity="0" stroke="rgb(255,255,255)" stroke-opacity="1" stroke-width="6" d=" M29.92799949645996,34.270999908447266 C29.92799949645996,34.270999908447266 41.71699905395508,22.48200035095215 41.71699905395508,22.48200035095215"></path></g></g></g></g></svg>