<svg xmlns="http://www.w3.org/2000/svg" viewBox="0 0 512 512" width="512" height="512" style="width: 100%; height: 100%; transform: translate3d(0,0,0);" preserveAspectRatio="xMidYMid meet"><defs><clipPath id="__lottie_element_6526"><rect width="512" height="512" x="0" y="0"></rect></clipPath><radialGradient id="__lottie_element_6579" spreadMethod="pad" gradientUnits="userSpaceOnUse" cx="122" cy="28.18199920654297" r="62.65199279785156" fx="122" fy="28.18199920654297"><stop offset="0%" stop-color="rgb(224,6,20)" stop-opacity="1"></stop><stop offset="59%" stop-color="rgb(224,6,20)" stop-opacity="0.5"></stop><stop offset="100%" stop-color="rgb(224,6,20)" stop-opacity="0"></stop></radialGradient><radialGradient id="__lottie_element_6580" spreadMethod="pad" gradientUnits="userSpaceOnUse" cx="-122" cy="28.18199920654297" r="62.652000427246094" fx="-122" fy="28.18199920654297"><stop offset="0%" stop-color="rgb(224,6,20)" stop-opacity="1"></stop><stop offset="59%" stop-color="rgb(224,6,20)" stop-opacity="0.5"></stop><stop offset="100%" stop-color="rgb(224,6,20)" stop-opacity="0"></stop></radialGradient></defs><g clip-path="url(#__lottie_element_6526)"><g style="display: block;" transform="matrix(1,0,0,1,256,255.99998474121094)" opacity="1"><g opacity="0.1" transform="matrix(1,0,0,1,0,0)"><path fill="rgb(0,0,0)" fill-opacity="1" d=" M195.70399475097656,10.781999588012695 C195.70399475097656,119.04299926757812 107.94000244140625,206.80599975585938 -0.32100000977516174,206.80599975585938 C-108.58200073242188,206.80599975585938 -196.34500122070312,119.04299926757812 -196.34500122070312,10.781999588012695 C-196.34500122070312,-97.47899627685547 -108.58200073242188,-185.2429962158203 -0.32100000977516174,-185.2429962158203 C107.94000244140625,-185.2429962158203 195.70399475097656,-97.47899627685547 195.70399475097656,10.781999588012695z"></path></g><g opacity="1" transform="matrix(1,0,0,1,0,0)"><path fill="rgb(255,173,0)" fill-opacity="1" d=" M188.7740020751953,-4.2179999351501465 C188.7740020751953,100.09500122070312 104.21199798583984,184.65699768066406 -0.10100000351667404,184.65699768066406 C-104.41400146484375,184.65699768066406 -188.9770050048828,100.09500122070312 -188.9770050048828,-4.2179999351501465 C-188.9770050048828,-108.53099822998047 -104.41400146484375,-193.093994140625 -0.10100000351667404,-193.093994140625 C104.21199798583984,-193.093994140625 188.7740020751953,-108.53099822998047 188.7740020751953,-4.2179999351501465z"></path></g><g opacity="1" transform="matrix(1,0,0,1,0,0)"><path fill="rgb(255,207,0)" fill-opacity="1" d=" M168.30599975585938,-3.50600004196167 C166.8489990234375,91.52200317382812 90.29499816894531,167.4029998779297 -2.683000087738037,165.97799682617188 C-95.66100311279297,164.55299377441406 -169.85299682617188,86.36199951171875 -168.39700317382812,-8.666999816894531 C-166.94000244140625,-103.69599914550781 -90.38700103759766,-179.5749969482422 2.5910000801086426,-178.14999389648438 C95.56900024414062,-176.72500610351562 169.76300048828125,-98.53500366210938 168.30599975585938,-3.50600004196167z"></path></g><g opacity="1" transform="matrix(1,0,0,1,0,0)"><path stroke-linecap="butt" stroke-linejoin="miter" fill-opacity="0" stroke-miterlimit="10" stroke="rgb(255,118,42)" stroke-opacity="1" stroke-width="8" d=" M188.7740020751953,-4.2179999351501465 C188.7740020751953,100.09500122070312 104.21199798583984,184.65699768066406 -0.10100000351667404,184.65699768066406 C-104.41400146484375,184.65699768066406 -188.9770050048828,100.09500122070312 -188.9770050048828,-4.2179999351501465 C-188.9770050048828,-108.53099822998047 -104.41400146484375,-193.093994140625 -0.10100000351667404,-193.093994140625 C104.21199798583984,-193.093994140625 188.7740020751953,-108.53099822998047 188.7740020751953,-4.2179999351501465z"></path></g><g opacity="0.9" transform="matrix(1,0,0,1,0,0)"><path fill="rgb(255,222,102)" fill-opacity="1" d=" M149.16600036621094,-45.73699951171875 C149.16600036621094,25.084999084472656 82.33699798583984,-30.93899917602539 -0.10100000351667404,-30.93899917602539 C-82.53900146484375,-30.93899917602539 -149.36900329589844,25.084999084472656 -149.36900329589844,-45.73699951171875 C-149.36900329589844,-116.55899810791016 -82.53900146484375,-173.9709930419922 -0.10100000351667404,-173.9709930419922 C82.33699798583984,-173.9709930419922 149.16600036621094,-116.55899810791016 149.16600036621094,-45.73699951171875z"></path></g><g opacity="1" transform="matrix(1,0,0,1,0,0)"><g opacity="1" transform="matrix(1,0,0,1,0,0)"><path stroke-linecap="round" stroke-linejoin="round" fill-opacity="0" stroke="rgb(255,255,255)" stroke-opacity="1" stroke-width="6" d=" M36.270999908447266,-173.9600067138672 C37.808998107910156,-173.625 39.40399932861328,-173.2550048828125 41.04899978637695,-172.8489990234375"></path></g><g opacity="1" transform="matrix(1,0,0,1,0,0)"><path stroke-linecap="round" stroke-linejoin="round" fill-opacity="0" stroke="rgb(255,255,255)" stroke-opacity="1" stroke-width="6" d=" M14.916999816894531,-177.1790008544922 C14.916999816894531,-177.1790008544922 19.784000396728516,-176.91900634765625 27.506999969482422,-175.64100646972656"></path></g></g></g><g style="display: block;" transform="matrix(1,0,0,1,255.99899291992188,255.99899291992188)" opacity="1"><g opacity="0.5" transform="matrix(1,0,0,1,0,0)"><path fill="url(#__lottie_element_6579)" fill-opacity="1" d=" M185.2519989013672,28.525999069213867 C185.2519989013672,63.12799835205078 157.20199584960938,91.1780014038086 122.5999984741211,91.1780014038086 C87.99800109863281,91.1780014038086 59.948001861572266,63.12799835205078 59.948001861572266,28.525999069213867 C59.948001861572266,-6.076000213623047 87.99800109863281,-34.125999450683594 122.5999984741211,-34.125999450683594 C157.20199584960938,-34.125999450683594 185.2519989013672,-6.076000213623047 185.2519989013672,28.525999069213867z"></path></g><g opacity="0.5" transform="matrix(1,0,0,1,0,0)"><path fill="url(#__lottie_element_6580)" fill-opacity="1" d=" M-58.98699951171875,28.525999069213867 C-58.98699951171875,63.12799835205078 -87.03700256347656,91.1780014038086 -121.63899993896484,91.1780014038086 C-156.24099731445312,91.1780014038086 -184.29100036621094,63.12799835205078 -184.29100036621094,28.525999069213867 C-184.29100036621094,-6.076000213623047 -156.24099731445312,-34.125999450683594 -121.63899993896484,-34.125999450683594 C-87.03700256347656,-34.125999450683594 -58.98699951171875,-6.076000213623047 -58.98699951171875,28.525999069213867z"></path></g></g><g style="display: block;" transform="matrix(1,0,0,1,256,255.99998474121094)" opacity="1"><g opacity="1" transform="matrix(1,0,0,1,0,0)"><path fill="rgb(255,225,156)" fill-opacity="1" d=" M-30.92300033569336,81.01200103759766 C-99.75,110.93299865722656 -114.39099884033203,66.6449966430664 -117.3489990234375,59.11399841308594 C-120.30699920654297,51.58300018310547 -124.74500274658203,57.28799819946289 -120.7300033569336,71.44599914550781 C-116.71499633789062,85.60399627685547 -104.22000122070312,102.32099914550781 -76.98899841308594,104.41000366210938 C-56.3380012512207,105.99500274658203 -45.22800064086914,101.06800079345703 -24.218000411987305,92.78800201416016 C-5.045000076293945,85.23200225830078 13.91100025177002,86.05400085449219 26.340999603271484,89.40799713134766 C50.14799880981445,95.83100128173828 69.45899963378906,104.58300018310547 91.63600158691406,98.60700225830078 C118.95700073242188,91.24500274658203 123.39399719238281,68.82099914550781 123.86699676513672,59.95600128173828 C59.21500015258789,82.18000030517578 -2.203000068664551,68.5270004272461 -30.92300033569336,81.01200103759766z"></path></g><g opacity="1" transform="matrix(1,0,0,1,0,0)"><path fill="rgb(143,58,0)" fill-opacity="1" d=" M111.70999908447266,16.895999908447266 C106.96199798583984,18.22100067138672 110.56800079345703,34.529998779296875 95.6510009765625,50.86600112915039 C81.46299743652344,66.40399932861328 59.130001068115234,70.31099700927734 37.9630012512207,66.71399688720703 C14.96500015258789,62.805999755859375 -2.809000015258789,61.215999603271484 -30.92300033569336,75.01200103759766 C-55.95000076293945,87.29299926757812 -71.08999633789062,90.01000213623047 -89.51200103759766,84.30899810791016 C-108.23200225830078,78.51499938964844 -114.39099884033203,60.64500045776367 -117.3489990234375,53.11399841308594 C-120.30699920654297,45.58300018310547 -124.74500274658203,51.28799819946289 -120.7300033569336,65.44599914550781 C-116.71499633789062,79.60399627685547 -104.22000122070312,96.32099914550781 -76.98899841308594,98.41000366210938 C-56.3380012512207,99.99500274658203 -45.22800064086914,95.06800079345703 -24.218000411987305,86.78800201416016 C-5.045000076293945,79.23200225830078 13.91100025177002,80.05400085449219 26.340999603271484,83.40799713134766 C50.14799880981445,89.83100128173828 69.45899963378906,98.58300018310547 91.63600158691406,92.60700225830078 C118.95700073242188,85.24500274658203 124.12699890136719,63.323001861572266 124.5999984741211,54.45800018310547 C125.49700164794922,37.63999938964844 119.87899780273438,14.616999626159668 111.70999908447266,16.895999908447266z"></path></g><g opacity="1" transform="matrix(1,0,0,1,0,0)"><path fill="rgb(107,32,0)" fill-opacity="1" d=" M119.33999633789062,22.77199935913086 C117.61399841308594,21.3439998626709 116.2969970703125,20.798999786376953 115.23699951171875,20.954999923706055 C109.7969970703125,21.757999420166016 111.13800048828125,41.08399963378906 98.6500015258789,54.75199890136719 C84.45999908447266,70.29199981689453 59.130001068115234,75.2020034790039 37.959999084472656,71.60199737548828 C14.970000267028809,67.69200134277344 -2.809999942779541,66.10199737548828 -30.920000076293945,79.9020004272461 C-55.95000076293945,92.18199920654297 -71.11900329589844,94.99500274658203 -89.51000213623047,89.19200134277344 C-114.5,81.30699920654297 -118.125,50.86899948120117 -122.30000305175781,54.43199920654297 C-122,48.97200012207031 -119.33999633789062,48.04199981689453 -117.3499984741211,53.11199951171875 C-114.38999938964844,60.641998291015625 -108.2300033569336,78.51200103759766 -89.51000213623047,84.31199645996094 C-71.08999633789062,90.01200103759766 -55.95000076293945,87.29199981689453 -30.920000076293945,75.01200103759766 C-2.809999942779541,61.21200180053711 14.970000267028809,62.801998138427734 37.959999084472656,66.71199798583984 C59.130001068115234,70.31199645996094 81.45999908447266,66.4020004272461 95.6500015258789,50.86199951171875 C110.56999969482422,34.53200149536133 106.95999908447266,18.222000122070312 111.70999908447266,16.892000198364258 C114.63999938964844,16.07200050354004 117.25,18.52199935913086 119.33999633789062,22.77199935913086z"></path></g></g><g style="display: block;" transform="matrix(1,0,0,1,258.9989929199219,255.99899291992188)" opacity="1"><g opacity="1" transform="matrix(1,0,0,1,0,0)"><path fill="rgb(255,225,156)" fill-opacity="1" d=" M59.426998138427734,8.831000328063965 C51.21699905395508,19.667999267578125 39.72800064086914,17.033000946044922 34.88399887084961,12.406000137329102 C15.875,-5.75 22.481000900268555,-31.43400001525879 32.26499938964844,-32.15299987792969 C45.11399841308594,-33.09700012207031 62.75,-38.875 65.24099731445312,-34.02899932861328 C67.99099731445312,-28.68000030517578 73.125,-9.25 59.426998138427734,8.831000328063965z"></path></g><g opacity="1" transform="matrix(1,0,0,1,0,0)"><path fill="rgb(255,173,0)" fill-opacity="1" d=" M25.076000213623047,-10.970000267028809 C25.75,-15.625 25.45400047302246,-32.33100128173828 29.2810001373291,-39.347999572753906 C34.75,-49.375 47.202999114990234,-55.08599853515625 56.595001220703125,-45.8120002746582 C64,-38.5 64.625,-18 65.88099670410156,-12.420999526977539 C69,-20.375 71.5,-37.5 61.566001892089844,-56.07899856567383 C54.292999267578125,-69.68000030517578 39.27299880981445,-68.32499694824219 30.87700080871582,-58.10499954223633 C23.5,-49.125 17.5,-25.25 25.076000213623047,-10.970000267028809z"></path></g><g opacity="1" transform="matrix(1,0,0,1,0,0)"><path fill="rgb(143,58,0)" fill-opacity="1" d=" M61.862998962402344,-0.8700000047683716 C59.375,4.625 43.625,19.75 31.31999969482422,2.3299999237060547 C18.21299934387207,-16.225000381469727 23.840999603271484,-36.34600067138672 28.000999450683594,-45.22999954223633 C37.375,-65.25 54.87900161743164,-62.305999755859375 63.0620002746582,-44.70199966430664 C71,-27.625 67.64900207519531,-13.649999618530273 61.862998962402344,-0.8700000047683716z"></path></g><g opacity="1" transform="matrix(1,0,0,1,0,0)"><path fill="rgb(107,32,0)" fill-opacity="1" d=" M23.451000213623047,-22.469999313354492 C24.125,-27.125 25.45400047302246,-32.33100128173828 29.2810001373291,-39.347999572753906 C34.75,-49.375 47.202999114990234,-55.08599853515625 56.595001220703125,-45.8120002746582 C64,-38.5 66,-28.625 67.25599670410156,-23.04599952697754 C67.625,-28.625 68.15599822998047,-39.858001708984375 59.441001892089844,-51.57899856567383 C52.25,-61.25 40.23899841308594,-62.21799850463867 32.50199890136719,-53.10499954223633 C27,-46.625 22.375,-35.375 23.451000213623047,-22.469999313354492z"></path></g></g><g style="display: block;" transform="matrix(1,0,0,1,258.9989929199219,255.99899291992188)" opacity="0.96"><g opacity="1" transform="matrix(1,0,0,1,0,0)"><path fill="rgb(255,225,156)" fill-opacity="1" d=" M-33.02299880981445,1.784000039100647 C-31.5,19.5 -50.672000885009766,26.774999618530273 -63.959999084472656,28.145999908447266 C-75.875,29.375 -109.75,29.25 -110.39800262451172,8.784000396728516 C-110,-8.5 -70,12.125 -33.02299880981445,1.784000039100647z"></path></g><g opacity="1" transform="matrix(1,0,0,1,0,0)"><path fill="rgb(255,173,0)" fill-opacity="1" d=" M-35.02299880981445,2.5260000228881836 C-35.21500015258789,13.27299976348877 -49.37200164794922,20.395000457763672 -62.709999084472656,21.1299991607666 C-78.5,22 -107.91999816894531,24.288999557495117 -107.14800262451172,6.776000022888184 C-106.75,-2.25 -85.81800079345703,6.671999931335449 -72.45999908447266,6.671999931335449 C-59.10200119018555,6.671999931335449 -34.75,-12.75 -35.02299880981445,2.5260000228881836z"></path></g><g opacity="1" transform="matrix(1,0,0,1,0,0)"><path fill="rgb(143,58,0)" fill-opacity="1" d=" M-33.720001220703125,1.3509999513626099 C-32.52199935913086,14.456000328063965 -51.000999450683594,21.222999572753906 -63.209999084472656,22.566999435424805 C-78.5,24.25 -108.24600219726562,23.75 -107.94999694824219,6.60099983215332 C-107.75,-5 -83.24299621582031,1.8849999904632568 -70.95999908447266,1.8849999904632568 C-58.676998138427734,1.8849999904632568 -35.375,-16.75 -33.720001220703125,1.3509999513626099z"></path></g><g opacity="1" transform="matrix(1,0,0,1,0,0)"><path fill="rgb(107,32,0)" fill-opacity="1" d=" M-33.9109992980957,3.885999917984009 C-39.125,-10.375 -48.5,4.25 -72.20999908447266,6.427999973297119 C-87.84500122070312,7.864999771118164 -106.5,1.125 -107.63500213623047,10.51099967956543 C-111.125,-5.25 -89.70500183105469,2.1619999408721924 -71.58499908447266,0.8849999904632568 C-57.25,-0.125 -34.875,-20 -33.9109992980957,3.885999917984009z"></path></g></g><g style="display: block;" transform="matrix(1,0,0,1,255.99899291992188,255.99899291992188)" opacity="1"><g opacity="1" transform="matrix(1,0,0,1,0,0)"><path fill="rgb(255,237,182)" fill-opacity="1" d=" M4.3480000495910645,-106.42500305175781 C5.025000095367432,-108.01399993896484 48.082000732421875,-122.66500091552734 70.12200164794922,-114.86399841308594 C101.50900268554688,-103.75499725341797 98.06300354003906,-90.06999969482422 91.30000305175781,-92.1500015258789 C84.53700256347656,-94.2300033569336 60.150001525878906,-105.01300048828125 29.759000778198242,-99.78399658203125 C21.615999221801758,-98.38300323486328 16.01799964904785,-96.52799987792969 11.437999725341797,-96.13500213623047 C5.388000011444092,-95.61599731445312 2.490999937057495,-102.06400299072266 4.3480000495910645,-106.42500305175781z"></path></g><g opacity="1" transform="matrix(1,0,0,1,0,0)"><path fill="rgb(143,58,0)" fill-opacity="1" d=" M4.642000198364258,-107.20500183105469 C10.375,-115.31800079345703 44.154998779296875,-126.6259994506836 66.19499969482422,-118.82499694824219 C97.58200073242188,-107.71600341796875 97.2760009765625,-94.48899841308594 90.51300048828125,-96.56900024414062 C83.75,-98.64900207519531 59.362998962402344,-109.43199920654297 28.972000122070312,-104.2030029296875 C20.82900047302246,-102.802001953125 15.230999946594238,-100.9469985961914 10.651000022888184,-100.55400085449219 C4.60099983215332,-100.03500366210938 1.906999945640564,-103.33399963378906 4.642000198364258,-107.20500183105469z"></path></g><g opacity="1" transform="matrix(1,0,0,1,0,0)"><path fill="rgb(107,32,0)" fill-opacity="1" d=" M5.502999782562256,-101.34200286865234 C5.507999897003174,-101.37100219726562 20.125,-124.56800079345703 67.08200073242188,-113.06199645996094 C83.26399993896484,-109.09700012207031 90.552001953125,-101.40399932861328 93.5479965209961,-96.97200012207031 C96.18000030517578,-99.5739974975586 91.44300079345703,-109.88700103759766 66.19100189208984,-118.82599639892578 C44.15999984741211,-126.62200164794922 21.615999221801758,-120.66899871826172 10.489999771118164,-113.28700256347656 C7.916999816894531,-111.58100128173828 0,-105.06800079345703 5.502999782562256,-101.34200286865234z"></path></g></g><g style="display: block;" transform="matrix(1,0,0,1,258.9989929199219,255.99899291992188)" opacity="1"><g opacity="1" transform="matrix(1,0,0,1,0,0)"><path fill="rgb(255,237,182)" fill-opacity="1" d=" M-42.915000915527344,-66.97200012207031 C-48.527000427246094,-71.24199676513672 -58,-41.44300079345703 -123.94999694824219,-30.600000381469727 C-127.67900085449219,-29.98699951171875 -127.88300323486328,-18.95199966430664 -112.12899780273438,-17.913999557495117 C-99.31600189208984,-17.06999969482422 -79.94100189208984,-18.613000869750977 -62.2140007019043,-30.509000778198242 C-44.48699951171875,-42.404998779296875 -35.1619987487793,-61.073001861572266 -42.915000915527344,-66.97200012207031z"></path></g><g opacity="1" transform="matrix(1,0,0,1,0,0)"><path fill="rgb(143,58,0)" fill-opacity="1" d=" M-44.154998779296875,-67.93099975585938 C-50.3380012512207,-71.3219985961914 -57.33300018310547,-43.6510009765625 -119.49299621582031,-32.944000244140625 C-127.56800079345703,-31.55299949645996 -127.40599822998047,-22.908000946044922 -113.12899780273438,-21.913999557495117 C-100.31900024414062,-21.02199935913086 -80.94100189208984,-23.613000869750977 -63.2140007019043,-35.50899887084961 C-45.48699951171875,-47.404998779296875 -36.92399978637695,-63.965999603271484 -44.154998779296875,-67.93099975585938z"></path></g><g opacity="1" transform="matrix(1,0,0,1,0,0)"><path fill="rgb(107,32,0)" fill-opacity="1" d=" M-41.97999954223633,-60.24800109863281 C-46,-69.06800079345703 -56.875,-51.31800079345703 -77.51000213623047,-41.55799865722656 C-100.7490005493164,-30.56599998474121 -120.25,-29.81800079345703 -123.7300033569336,-25.618000030517578 C-126.26000213623047,-28.437999725341797 -124.38999938964844,-31.947999954223633 -119.48999786376953,-32.948001861572266 C-104.61000061035156,-35.97800064086914 -96.16999816894531,-37.4379997253418 -77.51000213623047,-46.768001556396484 C-58.849998474121094,-56.097999572753906 -50.34000015258789,-71.31800079345703 -44.150001525878906,-67.9280014038086 C-41.70000076293945,-66.58799743652344 -41.06999969482422,-63.80799865722656 -41.97999954223633,-60.24800109863281z"></path></g></g><g style="display: none;"><g><path stroke-linecap="butt" stroke-linejoin="miter" fill-opacity="0" stroke-miterlimit="10"></path></g></g><g style="display: none;"><g><path stroke-linecap="butt" stroke-linejoin="miter" fill-opacity="0" stroke-miterlimit="10"></path></g></g><g style="display: none;"><g><path stroke-linecap="butt" stroke-linejoin="miter" fill-opacity="0" stroke-miterlimit="10"></path></g></g><g style="display: none;"><g><path stroke-linecap="butt" stroke-linejoin="miter" fill-opacity="0" stroke-miterlimit="10"></path></g></g><g style="display: none;"><g><path stroke-linecap="butt" stroke-linejoin="miter" fill-opacity="0" stroke-miterlimit="10"></path></g></g><g style="display: none;"><g><path stroke-linecap="butt" stroke-linejoin="miter" fill-opacity="0" stroke-miterlimit="10"></path></g></g><g style="display: none;"><g><g><path stroke-linecap="round" stroke-linejoin="round" fill-opacity="0"></path></g><g><path stroke-linecap="round" stroke-linejoin="round" fill-opacity="0"></path></g><g><path stroke-linecap="round" stroke-linejoin="round" fill-opacity="0"></path></g><g><path stroke-linecap="round" stroke-linejoin="round" fill-opacity="0"></path></g></g></g><g style="display: none;"><g><g><path stroke-linecap="round" stroke-linejoin="round" fill-opacity="0"></path></g><g><path stroke-linecap="round" stroke-linejoin="round" fill-opacity="0"></path></g><g><path stroke-linecap="round" stroke-linejoin="round" fill-opacity="0"></path></g><g><path stroke-linecap="round" stroke-linejoin="round" fill-opacity="0"></path></g></g></g><g style="display: none;"><g><g><path stroke-linecap="round" stroke-linejoin="round" fill-opacity="0"></path></g><g><path stroke-linecap="round" stroke-linejoin="round" fill-opacity="0"></path></g><g><path stroke-linecap="round" stroke-linejoin="round" fill-opacity="0"></path></g><g><path stroke-linecap="round" stroke-linejoin="round" fill-opacity="0"></path></g></g></g><g style="display: none;"><g><g><path stroke-linecap="round" stroke-linejoin="round" fill-opacity="0"></path></g><g><path stroke-linecap="round" stroke-linejoin="round" fill-opacity="0"></path></g><g><path stroke-linecap="round" stroke-linejoin="round" fill-opacity="0"></path></g><g><path stroke-linecap="round" stroke-linejoin="round" fill-opacity="0"></path></g></g></g></g></svg>