<svg xmlns="http://www.w3.org/2000/svg" viewBox="0 0 512 512" width="512" height="512" style="width: 100%; height: 100%; transform: translate3d(0,0,0);" preserveAspectRatio="xMidYMid meet"><defs><clipPath id="__lottie_element_6582"><rect width="512" height="512" x="0" y="0"></rect></clipPath><clipPath id="__lottie_element_6590"><path d="M0,0 L512,0 L512,512 L0,512z"></path></clipPath><mask id="__lottie_element_6593" mask-type="alpha"><g style="display: block;" transform="matrix(1,0,0,1,256,256)" opacity="1"><g opacity="1" transform="matrix(1,0,0,1,0,0)"><path fill="rgb(255,255,255)" fill-opacity="1" d=" M26,-214 C26,-214 -258,-214 -258,-214 C-258,-214 -251.5,189 -251.5,189 C-251.5,189 -219,170.5 -219,170.5 C-219,170.5 -160.5,225.5 -83,188.5 C-79,188.5 26,195 26,195 C26,195 26,-214 26,-214z"></path></g></g></mask><clipPath id="__lottie_element_6600"><path d="M0,0 L512,0 L512,512 L0,512z"></path></clipPath><mask id="__lottie_element_6603" mask-type="alpha"><g style="display: block;" transform="matrix(1,0,0,1,256,256)" opacity="1"><g opacity="1" transform="matrix(1,0,0,1,0,0)"><path fill="rgb(255,255,255)" fill-opacity="1" d=" M26,-214 C26,-214 -258,-214 -258,-214 C-258,-214 -251.5,189 -251.5,189 C-251.5,189 -219,170.5 -219,170.5 C-219,170.5 -160.5,225.5 -83,188.5 C-79,188.5 26,195 26,195 C26,195 26,-214 26,-214z"></path></g></g></mask></defs><g clip-path="url(#__lottie_element_6582)"><g style="display: block;" transform="matrix(0.949999988079071,0,0,0.949999988079071,252,255.99905395507812)" opacity="1"><g opacity="1" transform="matrix(1,0,0,1,0,0)"><path fill="rgb(158,118,61)" fill-opacity="1" d=" M125.7300033569336,-143.02099609375 C145.4949951171875,-144.3260040283203 174.75,-145.4459991455078 196.9219970703125,-118.0780029296875 C221.3939971923828,-87.87000274658203 221.86500549316406,-28.43899917602539 174.57699584960938,10.795000076293945 C125.04900360107422,51.887001037597656 70.64700317382812,-139.38299560546875 125.7300033569336,-143.02099609375z"></path></g><g opacity="1" transform="matrix(1,0,0,1,0,0)"><path fill="rgb(237,172,170)" fill-opacity="1" d=" M136.64300537109375,-115.86599731445312 C136.64300537109375,-115.86599731445312 165.7429962158203,-124.37100219726562 182.61300659179688,-95.85700225830078 C196.36000061035156,-72.62200164794922 187.91400146484375,-33.54800033569336 166.29100036621094,-15.92199993133545 C140.5749969482422,5.039999961853027 118.91500091552734,-117.81500244140625 136.64300537109375,-115.86599731445312z"></path></g><g opacity="1" transform="matrix(1,0,0,1,0,0)"><path stroke-linecap="round" stroke-linejoin="round" fill-opacity="0" stroke="rgb(188,146,89)" stroke-opacity="1" stroke-width="10" d=" M203.90499877929688,-80.40599822998047 C203.90499877929688,-80.40599822998047 199.0709991455078,-120.1520004272461 162.7519989013672,-130.33399963378906"></path></g><g opacity="1" transform="matrix(1,0,0,1,0,0)"><path stroke-linecap="butt" stroke-linejoin="miter" fill-opacity="0" stroke-miterlimit="10" stroke="rgb(94,66,31)" stroke-opacity="1" stroke-width="8" d=" M125.7300033569336,-143.02099609375 C145.4949951171875,-144.3260040283203 174.75,-145.4459991455078 196.9219970703125,-118.0780029296875 C221.3939971923828,-87.87000274658203 221.86500549316406,-28.43899917602539 174.57699584960938,10.795000076293945 C125.04900360107422,51.887001037597656 70.64700317382812,-139.38299560546875 125.7300033569336,-143.02099609375z"></path></g><g opacity="1" transform="matrix(1,0,0,1,0,0)"><path fill="rgb(219,152,151)" fill-opacity="1" d=" M130.91700744628906,-89.29100036621094 C173.55299377441406,-111.447998046875 189.31900024414062,-61.42399978637695 189.31900024414062,-61.42399978637695 C189.32899475097656,-61.42399978637695 189.3300018310547,-61.433998107910156 189.33999633789062,-61.433998107910156 C190.6230010986328,-73.86199951171875 188.73300170898438,-86.21900177001953 183.03399658203125,-95.85900115966797 C166.1699981689453,-124.37300109863281 137.07000732421875,-115.86499786376953 137.07000732421875,-115.86499786376953 C131.5229949951172,-116.47100067138672 129.83599853515625,-104.88200378417969 130.91700744628906,-89.29100036621094z"></path></g></g><g style="display: block;" transform="matrix(0.949999988079071,0,0,0.949999988079071,252,255.99905395507812)" opacity="1"><g opacity="1" transform="matrix(1,0,0,1,0,0)"><path fill="rgb(158,118,61)" fill-opacity="1" d=" M-115.7979965209961,-143.02099609375 C-135.56300354003906,-144.3260040283203 -164.8179931640625,-145.4459991455078 -186.99000549316406,-118.0780029296875 C-211.46200561523438,-87.87000274658203 -211.93299865722656,-28.43899917602539 -164.64500427246094,10.795000076293945 C-115.11699676513672,51.887001037597656 -60.71500015258789,-139.38299560546875 -115.7979965209961,-143.02099609375z"></path><path stroke-linecap="butt" stroke-linejoin="miter" fill-opacity="0" stroke-miterlimit="10" stroke="rgb(94,66,31)" stroke-opacity="1" stroke-width="8" d=" M-115.7979965209961,-143.02099609375 C-135.56300354003906,-144.3260040283203 -164.8179931640625,-145.4459991455078 -186.99000549316406,-118.0780029296875 C-211.46200561523438,-87.87000274658203 -211.93299865722656,-28.43899917602539 -164.64500427246094,10.795000076293945 C-115.11699676513672,51.887001037597656 -60.71500015258789,-139.38299560546875 -115.7979965209961,-143.02099609375z"></path></g><g opacity="1" transform="matrix(1,0,0,1,0,0)"><path stroke-linecap="round" stroke-linejoin="round" fill-opacity="0" stroke="rgb(188,146,89)" stroke-opacity="1" stroke-width="10" d=" M-194.12600708007812,-81.40599822998047 C-194.12600708007812,-81.40599822998047 -189.29100036621094,-121.1520004272461 -152.9720001220703,-131.33399963378906"></path></g><g opacity="1" transform="matrix(1,0,0,1,0,0)"><path stroke-linecap="butt" stroke-linejoin="miter" fill-opacity="0" stroke-miterlimit="10" stroke="rgb(94,66,31)" stroke-opacity="1" stroke-width="8" d=" M-115.7979965209961,-143.02099609375 C-135.56300354003906,-144.3260040283203 -164.8179931640625,-145.4459991455078 -186.99000549316406,-118.0780029296875 C-211.46200561523438,-87.87000274658203 -211.93299865722656,-28.43899917602539 -164.64500427246094,10.795000076293945 C-115.11699676513672,51.887001037597656 -60.71500015258789,-139.38299560546875 -115.7979965209961,-143.02099609375z"></path></g><g opacity="1" transform="matrix(1,0,0,1,0,0)"><path fill="rgb(237,172,170)" fill-opacity="1" d=" M-126.71099853515625,-115.86599731445312 C-126.71099853515625,-115.86599731445312 -155.81199645996094,-124.37100219726562 -172.6820068359375,-95.85700225830078 C-186.4290008544922,-72.62200164794922 -177.98300170898438,-33.54800033569336 -156.36000061035156,-15.92199993133545 C-130.6439971923828,5.039999961853027 -108.98300170898438,-117.81500244140625 -126.71099853515625,-115.86599731445312z"></path></g><g opacity="1" transform="matrix(1,0,0,1,0,0)"><path fill="rgb(219,152,151)" fill-opacity="1" d=" M-120.55999755859375,-89.29100036621094 C-163.1959991455078,-111.447998046875 -178.96299743652344,-61.42399978637695 -178.96299743652344,-61.42399978637695 C-178.97300720214844,-61.42399978637695 -178.97300720214844,-61.433998107910156 -178.98300170898438,-61.433998107910156 C-180.26600646972656,-73.86199951171875 -178.3769989013672,-86.21900177001953 -172.67799377441406,-95.85900115966797 C-155.81399536132812,-124.37300109863281 -126.71399688720703,-115.86499786376953 -126.71399688720703,-115.86499786376953 C-121.16699981689453,-116.47100067138672 -119.47899627685547,-104.88200378417969 -120.55999755859375,-89.29100036621094z"></path></g></g><g style="display: block;" transform="matrix(0.949999988079071,0,0,0.949999988079071,252,255.99905395507812)" opacity="1"><g opacity="1" transform="matrix(1,0,0,1,0,0)"><path fill="rgb(158,118,61)" fill-opacity="1" d=" M169.58700561523438,-20.913000106811523 C147.58799743652344,-64.90799713134766 159.22900390625,-66.9280014038086 146.0260009765625,-110.81300354003906 C130.8209991455078,-161.3520050048828 82.5510025024414,-207.09300231933594 5.302999973297119,-207.09300231933594 C-72.7770004272461,-207.09300231933594 -120.21499633789062,-161.3520050048828 -135.4199981689453,-110.81300354003906 C-148.6230010986328,-66.9280014038086 -136.98199462890625,-64.90799713134766 -158.9810028076172,-20.913000106811523 C-183.13499450683594,27.392000198364258 -193.3350067138672,159.08700561523438 5.302999973297119,159.08700561523438 C203.9409942626953,159.08700561523438 193.74099731445312,27.392000198364258 169.58700561523438,-20.913000106811523z"></path></g><g opacity="1" transform="matrix(1,0,0,1,0,0)"><path fill="rgb(188,146,89)" fill-opacity="1" d=" M156.11000061035156,-21.166000366210938 C135.91600036621094,-61.55099868774414 146.6020050048828,-63.40700149536133 134.48199462890625,-103.69200134277344 C120.5250015258789,-150.0850067138672 76.21399688720703,-192.072998046875 5.302999973297119,-192.072998046875 C-66.37200164794922,-192.072998046875 -109.91799926757812,-150.0850067138672 -123.8759994506836,-103.69200134277344 C-135.99600219726562,-63.40700149536133 -125.30999755859375,-61.55099868774414 -145.50399780273438,-21.166000366210938 C-167.677001953125,23.176000595092773 -177.0399932861328,144.06700134277344 5.302999973297119,144.06700134277344 C187.64599609375,144.06700134277344 178.2830047607422,23.176000595092773 156.11000061035156,-21.166000366210938z"></path></g><g opacity="1" transform="matrix(1,0,0,1,0,0)"><path fill="rgb(199,159,107)" fill-opacity="1" d=" M96.85900115966797,-148.6060028076172 C96.85900115966797,-125.06999969482422 56.14400100708008,-105.98999786376953 5.921000003814697,-105.98999786376953 C-44.301998138427734,-105.98999786376953 -85.01599884033203,-125.06999969482422 -85.01599884033203,-148.6060028076172 C-85.01599884033203,-172.14199829101562 -44.301998138427734,-191.2220001220703 5.921000003814697,-191.2220001220703 C56.14400100708008,-191.2220001220703 96.85900115966797,-172.14199829101562 96.85900115966797,-148.6060028076172z"></path></g><g opacity="1" transform="matrix(1,0,0,1,0,0)"><g opacity="1" transform="matrix(1,0,0,1,0,0)"><path stroke-linecap="round" stroke-linejoin="round" fill-opacity="0" stroke="rgb(255,255,255)" stroke-opacity="1" stroke-width="6" d=" M62.71699905395508,-181.0240020751953 C64.22799682617188,-180.52999877929688 65.79499816894531,-179.99600219726562 67.40699768066406,-179.4199981689453"></path></g><g opacity="1" transform="matrix(1,0,0,1,0,0)"><path stroke-linecap="round" stroke-linejoin="round" fill-opacity="0" stroke="rgb(255,255,255)" stroke-opacity="1" stroke-width="6" d=" M41.57899856567383,-186.44000244140625 C41.57899856567383,-186.44000244140625 46.44499969482422,-185.68099975585938 54.077999114990234,-183.60800170898438"></path></g></g><g opacity="1" transform="matrix(1,0,0,1,0,0)"><path stroke-linecap="butt" stroke-linejoin="miter" fill-opacity="0" stroke-miterlimit="10" stroke="rgb(94,66,31)" stroke-opacity="1" stroke-width="8" d=" M169.58700561523438,-20.913000106811523 C147.58799743652344,-64.90799713134766 159.22900390625,-66.9280014038086 146.0260009765625,-110.81300354003906 C130.8209991455078,-161.3520050048828 82.5510025024414,-207.09300231933594 5.302999973297119,-207.09300231933594 C-72.7770004272461,-207.09300231933594 -120.21499633789062,-161.3520050048828 -135.4199981689453,-110.81300354003906 C-148.6230010986328,-66.9280014038086 -136.98199462890625,-64.90799713134766 -158.9810028076172,-20.913000106811523 C-183.13499450683594,27.392000198364258 -193.3350067138672,159.08700561523438 5.302999973297119,159.08700561523438 C203.9409942626953,159.08700561523438 193.74099731445312,27.392000198364258 169.58700561523438,-20.913000106811523z"></path></g><g opacity="1" transform="matrix(1,0,0,1,0,0)"><path fill="rgb(240,216,179)" fill-opacity="1" d=" M88.5790023803711,-75.9489974975586 C49.77799987792969,-85.3550033569336 22.13599967956543,-59.290000915527344 10.890999794006348,-45.909000396728516 C7.968999862670898,-42.43199920654297 2.63700008392334,-42.43199920654297 -0.2849999964237213,-45.909000396728516 C-11.529999732971191,-59.290000915527344 -39.17300033569336,-85.3550033569336 -77.9729995727539,-75.9489974975586 C-129.41799926757812,-63.47700119018555 -137.21299743652344,-18.78700065612793 -132.01699829101562,4.5970001220703125 C-127.16300201416016,26.437999725341797 -109.16300201416016,47.37300109863281 -80.55599975585938,57.6619987487793 C-77.10399627685547,58.90399932861328 -75.08999633789062,62.487998962402344 -75.875,66.07099914550781 C-79.34500122070312,81.91600036621094 -86.2750015258789,123.41999816894531 -70.07499694824219,146.8769989013672 C-67.26300048828125,150.94900512695312 -62.845001220703125,153.64199829101562 -57.94300079345703,154.3159942626953 C-50.56100082397461,155.33099365234375 -37.7859992980957,158.09300231933594 -27.04800033569336,165.54400634765625 C-10.072999954223633,177.322998046875 5.302999973297119,176.6009979248047 5.302999973297119,176.6009979248047 C5.302999973297119,176.6009979248047 20.679000854492188,177.322998046875 37.65399932861328,165.54400634765625 C48.39099884033203,158.09300231933594 61.16600036621094,155.33099365234375 68.5479965209961,154.3159942626953 C73.44999694824219,153.64199829101562 77.86799621582031,150.94900512695312 80.68000030517578,146.8769989013672 C96.87999725341797,123.41999816894531 89.95099639892578,81.91600036621094 86.48100280761719,66.07099914550781 C85.69599914550781,62.487998962402344 87.70999908447266,58.90399932861328 91.16200256347656,57.6619987487793 C119.76899719238281,47.37300109863281 137.77000427246094,26.437999725341797 142.6230010986328,4.5970001220703125 C147.82000732421875,-18.78700065612793 140.0240020751953,-63.47700119018555 88.5790023803711,-75.9489974975586z"></path></g><g opacity="1" transform="matrix(1,0,0,1,0,0)"><path fill="rgb(219,191,151)" fill-opacity="1" d=" M134.09300231933594,-35.97100067138672 C136.63900756835938,-29.917999267578125 134.2050018310547,-22.881999969482422 128.45799255371094,-19.70400047302246 C88.75800323486328,2.25 37.06700134277344,-7.056000232696533 14.574000358581543,-11.647000312805176 C7.900000095367432,-13.008999824523926 1.0099999904632568,-12.951000213623047 -5.620999813079834,-11.395999908447266 C-61.74800109863281,1.7669999599456787 -99.51300048828125,-12.489999771118164 -116.49600219726562,-21.256000518798828 C-122.73999786376953,-24.479000091552734 -125.33599853515625,-32.125999450683594 -122.19200134277344,-38.40999984741211 C-116.70600128173828,-49.375 -105.01100158691406,-65.37899780273438 -76.31500244140625,-72.75900268554688 C-37.6510009765625,-82.7030029296875 -11.531999588012695,-59.292999267578125 -0.28200000524520874,-45.91299819946289 C2.638000011444092,-42.43299865722656 7.9670000076293945,-42.43299865722656 10.88700008392334,-45.91299819946289 C22.136999130249023,-59.292999267578125 48.99100112915039,-81.6449966430664 87.79100036621094,-72.24500274658203 C114.5770034790039,-65.74600219726562 127.39800262451172,-51.891998291015625 134.09300231933594,-35.97100067138672z"></path></g><g opacity="1" transform="matrix(1,0,0,1,0,0)"><path stroke-linecap="butt" stroke-linejoin="miter" fill-opacity="0" stroke-miterlimit="10" stroke="rgb(240,216,179)" stroke-opacity="1" stroke-width="8" d=" M88.5790023803711,-75.9489974975586 C49.77799987792969,-85.3550033569336 22.13599967956543,-59.290000915527344 10.890999794006348,-45.909000396728516 C7.968999862670898,-42.43199920654297 2.63700008392334,-42.43199920654297 -0.2849999964237213,-45.909000396728516 C-11.529999732971191,-59.290000915527344 -39.17300033569336,-85.3550033569336 -77.9729995727539,-75.9489974975586 C-129.41799926757812,-63.47700119018555 -137.21299743652344,-18.78700065612793 -132.01699829101562,4.5970001220703125 C-127.16300201416016,26.437999725341797 -109.16300201416016,47.37300109863281 -80.55599975585938,57.6619987487793 C-77.10399627685547,58.90399932861328 -75.08999633789062,62.487998962402344 -75.875,66.07099914550781 C-79.34500122070312,81.91600036621094 -86.2750015258789,123.41999816894531 -70.07499694824219,146.8769989013672 C-67.26300048828125,150.94900512695312 -62.845001220703125,153.64199829101562 -57.94300079345703,154.3159942626953 C-50.56100082397461,155.33099365234375 -37.7859992980957,158.09300231933594 -27.04800033569336,165.54400634765625 C-10.072999954223633,177.322998046875 5.302999973297119,176.6009979248047 5.302999973297119,176.6009979248047 C5.302999973297119,176.6009979248047 20.679000854492188,177.322998046875 37.65399932861328,165.54400634765625 C48.39099884033203,158.09300231933594 61.16600036621094,154.33099365234375 68.5479965209961,153.3159942626953 C73.44999694824219,152.64199829101562 77.86799621582031,150.94900512695312 80.68000030517578,146.8769989013672 C96.87999725341797,123.41999816894531 89.95099639892578,81.91600036621094 86.48100280761719,66.07099914550781 C85.69599914550781,62.487998962402344 87.70999908447266,58.90399932861328 91.16200256347656,57.6619987487793 C119.76899719238281,47.37300109863281 137.77000427246094,26.437999725341797 142.6230010986328,4.5970001220703125 C147.82000732421875,-18.78700065612793 140.0240020751953,-63.47700119018555 88.5790023803711,-75.9489974975586z"></path></g><g opacity="0.11" transform="matrix(1,0,0,1,0,0)"><path fill="rgb(158,118,61)" fill-opacity="1" d=" M91.85600280761719,131.6269989013672 C90.18499755859375,138.2270050048828 86.60900115966797,145.51400756835938 83.79900360107422,149.58399963378906 C80.98899841308594,153.6540069580078 73.4489974975586,153.64700317382812 68.54900360107422,154.31700134277344 C61.16899871826172,155.32699584960938 48.388999938964844,158.0970001220703 37.64899826049805,165.5469970703125 C20.679000854492188,177.32699584960938 5.298999786376953,176.5970001220703 5.298999786376953,176.5970001220703 C5.298999786376953,176.5970001220703 -10.071000099182129,177.32699584960938 -27.051000595092773,165.5469970703125 C-37.78099822998047,158.0970001220703 -50.56100082397461,155.32699584960938 -57.941001892089844,154.31700134277344 C-62.840999603271484,153.64700317382812 -69.05000305175781,153.6959991455078 -72.45700073242188,150.11099243164062 C-76.2979965209961,146.07000732421875 -79.63099670410156,136.77000427246094 -81.20099639892578,131.6699981689453 C-68.89099884033203,135.0800018310547 -31.520999908447266,145.76699829101562 -17.10099983215332,154.03700256347656 C0.8289999961853027,164.32699584960938 20.548999786376953,159.69700622558594 28.948999404907227,154.03700256347656 C36.8390007019043,148.7169952392578 67.00599670410156,135.63699340820312 91.85600280761719,131.6269989013672z"></path></g><g opacity="1" transform="matrix(1,0,0,1,0,0)"><path stroke-linecap="round" stroke-linejoin="round" fill-opacity="0" stroke="rgb(178,149,114)" stroke-opacity="1" stroke-width="8" d=" M-70.98600006103516,150.9080047607422 C-53.775001525878906,156.03399658203125 -38.8390007019043,158.78399658203125 -27.847000122070312,165.74400329589844 C-9.237000465393066,177.5260009765625 5.302999973297119,176.6009979248047 5.302999973297119,176.6009979248047 C5.302999973297119,176.6009979248047 20.67799949645996,177.322998046875 37.65399932861328,165.54400634765625 C47.83599853515625,158.47900390625 62.65599822998047,155.68800354003906 81.31300354003906,150.9080047607422"></path></g></g><g style="display: block;" transform="matrix(0.949999988079071,0,0,0.949999988079071,252,255.99905395507812)" opacity="1"><g opacity="1" transform="matrix(1,0,0,1,0,0)"><g opacity="1" transform="matrix(1,0,0,1,0,0)"><path fill="rgb(219,191,151)" fill-opacity="1" d=" M61.47200012207031,82.08399963378906 C58.75,80.89299774169922 49.167999267578125,83.78600311279297 36.95600128173828,85.25800323486328 C32.016998291015625,85.85299682617188 18.94099998474121,87.16200256347656 5.863999843597412,87.16200256347656 C-7.2129998207092285,87.16200256347656 -20.290000915527344,85.85299682617188 -25.229000091552734,85.25800323486328 C-37.441001892089844,83.78600311279297 -47.02199935913086,80.89299774169922 -49.74399948120117,82.08399963378906 C-53.433998107910156,83.6989974975586 -50.45500183105469,90.58999633789062 -45.84199905395508,97.55599975585938 C-39.303001403808594,107.42900085449219 -15.204999923706055,122.47000122070312 5.86299991607666,122.47000122070312 C26.930999755859375,122.47000122070312 51.029998779296875,107.42900085449219 57.569000244140625,97.55599975585938 C62.18299865722656,90.58999633789062 65.16200256347656,83.6989974975586 61.47200012207031,82.08399963378906z"></path></g></g><g opacity="1" transform="matrix(1,0,0,1,0,0)"><path fill="rgb(255,244,233)" fill-opacity="1" d=" M58.441001892089844,86.1259994506836 C55.39899826049805,85.73400115966797 50.8129997253418,91.86900329589844 38.137001037597656,93.34100341796875 C33.01100158691406,93.93599700927734 19.437000274658203,95.24500274658203 5.863999843597412,95.24500274658203 C-7.710000038146973,95.24500274658203 -21.283000946044922,93.93599700927734 -26.40999984741211,93.34100341796875 C-39.08599853515625,91.86900329589844 -43.766998291015625,85.2750015258789 -46.7130012512207,86.1259994506836 C-52.33700180053711,87.7509994506836 -48.4370002746582,99.68399810791016 -43.64899826049805,106.6500015258789 C-36.86199951171875,116.52300262451172 -16.0049991607666,132.5749969482422 5.86299991607666,132.5749969482422 C27.731000900268555,132.5749969482422 48.5890007019043,116.52300262451172 55.375999450683594,106.6500015258789 C60.165000915527344,99.68399810791016 64.3239974975586,86.88500213623047 58.441001892089844,86.1259994506836z"></path></g><g opacity="1" transform="matrix(1,0,0,1,0,0)"><path fill="rgb(63,10,36)" fill-opacity="1" d=" M58.441001892089844,86.1259994506836 C55.71900177001953,84.93499755859375 49.167999267578125,87.8280029296875 36.95600128173828,89.30000305175781 C32.016998291015625,89.8949966430664 18.94099998474121,91.2030029296875 5.863999843597412,91.2030029296875 C-7.2129998207092285,91.2030029296875 -20.290000915527344,89.8949966430664 -25.229000091552734,89.30000305175781 C-37.441001892089844,87.8280029296875 -43.99100112915039,84.93499755859375 -46.7130012512207,86.1259994506836 C-50.40299987792969,87.74099731445312 -47.42399978637695,94.63200378417969 -42.81100082397461,101.5979995727539 C-36.27199935913086,111.47100067138672 -15.204999923706055,126.51200103759766 5.86299991607666,126.51200103759766 C26.930999755859375,126.51200103759766 47.999000549316406,111.47100067138672 54.53799819946289,101.5979995727539 C59.152000427246094,94.63200378417969 62.13100051879883,87.74099731445312 58.441001892089844,86.1259994506836z"></path></g><g opacity="1" transform="matrix(1,0,0,1,0,0)"><path fill="rgb(178,70,96)" fill-opacity="1" d=" M37.73899841308594,116.51699829101562 C28.64900016784668,122.11699676513672 17.249000549316406,126.51699829101562 5.859000205993652,126.51699829101562 C-5.85099983215332,126.51699829101562 -17.56100082397461,121.86699676513672 -26.770999908447266,116.0469970703125 C-28.541000366210938,110.7969970703125 -25.701000213623047,103.91699981689453 -19.7810001373291,101.61699676513672 C-8.781000137329102,97.3270034790039 5.508999824523926,103.26699829101562 5.508999824523926,103.26699829101562 C5.508999824523926,103.26699829101562 20.298999786376953,97.927001953125 31.208999633789062,102.0770034790039 C37.02899932861328,104.28700256347656 39.60900115966797,111.26699829101562 37.73899841308594,116.51699829101562z"></path></g><g opacity="1" transform="matrix(1,0,0,1,0,0)"><path fill="rgb(4,0,1)" fill-opacity="1" d=" M58.154998779296875,95.40399932861328 C58.85200119018555,92.8270034790039 58.60900115966797,90.87699890136719 56.9119987487793,90.10900115966797 C54.26499938964844,88.91699981689453 47.909000396728516,91.80699920654297 36.04600143432617,93.28199768066406 C31.256999969482422,93.87799835205078 18.555999755859375,95.19200134277344 5.864999771118164,95.19200134277344 C-6.835999965667725,95.19200134277344 -19.527000427246094,93.87799835205078 -24.32699966430664,93.28199768066406 C-36.17900085449219,91.80699920654297 -42.53499984741211,88.91699981689453 -45.18199920654297,90.10900115966797 C-46.87900161743164,90.87699890136719 -47.12200164794922,92.81700134277344 -46.435001373291016,95.39399719238281 C-48.62799835205078,90.91799926757812 -49.28499984741211,87.25 -46.71799850463867,86.12799835205078 C-43.9900016784668,84.93599700927734 -37.44200134277344,87.82599639892578 -25.22599983215332,89.3010025024414 C-20.28499984741211,89.89700317382812 -7.210000038146973,91.20099639892578 5.864999771118164,91.20099639892578 C18.940000534057617,91.20099639892578 32.01499938964844,89.89700317382812 36.95600128173828,89.3010025024414 C49.172000885009766,87.82599639892578 55.71900177001953,84.93599700927734 58.4370002746582,86.12799835205078 C61.01300048828125,87.25 60.347999572753906,90.9280014038086 58.154998779296875,95.40399932861328z"></path></g></g><g style="display: block;" transform="matrix(0.949999988079071,0,0,0.949999988079071,252,255.99905395507812)" opacity="1"><g opacity="1" transform="matrix(1,0,0,1,0,0)"><path fill="rgb(219,191,151)" fill-opacity="1" d=" M23.93400001525879,29.849000930786133 C20.305999755859375,29.7549991607666 14.897000312805176,31.46299934387207 11.848999977111816,32.81399917602539 C8.696000099182129,34.21200180053711 3.0320000648498535,34.21200180053711 -0.12099999934434891,32.81399917602539 C-3.1689999103546143,31.46299934387207 -8.57800006866455,29.7549991607666 -12.206000328063965,29.849000930786133 C-23.493000030517578,30.141000747680664 -28.729999542236328,36.57500076293945 -28.625,47.04199981689453 C-28.54599952697754,54.944000244140625 -23.96500015258789,70.65599822998047 5.863999843597412,70.65599822998047 C35.395999908447266,70.65599822998047 39.90800094604492,55.20199966430664 40.35300064086914,47.04199981689453 C40.922000885009766,36.59000015258789 35.22100067138672,30.141000747680664 23.93400001525879,29.849000930786133z"></path></g><g opacity="1" transform="matrix(1,0,0,1,0,0)"><g opacity="1" transform="matrix(1,0,0,1,0,0)"><path fill="rgb(240,216,180)" fill-opacity="1" d=" M-0.26899999380111694,46.986000061035156 C2.240000009536743,51.900001525878906 0.22300000488758087,57.952999114990234 -3.7249999046325684,59.96799850463867 C-7.672999858856201,61.983001708984375 -12.515000343322754,59.790000915527344 -15.32699966430664,55.042999267578125 C-19.552000045776367,47.909000396728516 -17.766000747680664,42.2140007019043 -13.817999839782715,40.19900131225586 C-9.869999885559082,38.183998107910156 -4.198999881744385,39.2869987487793 -0.26899999380111694,46.986000061035156z"></path></g><g opacity="1" transform="matrix(1,0,0,1,0,0)"><path fill="rgb(103,68,48)" fill-opacity="1" d=" M-1.4839999675750732,44.757999420166016 C1.024999976158142,49.672000885009766 -0.14100000262260437,55.290000915527344 -4.089000225067139,57.30500030517578 C-8.036999702453613,59.31999969482422 -13.270000457763672,56.970001220703125 -15.779000282287598,52.055999755859375 C-18.288000106811523,47.141998291015625 -17.121999740600586,41.52399826049805 -13.173999786376953,39.50899887084961 C-9.22599983215332,37.49399948120117 -3.993000030517578,39.84400177001953 -1.4839999675750732,44.757999420166016z"></path></g><g opacity="1" transform="matrix(1,0,0,1,0,0)"><path fill="rgb(54,22,9)" fill-opacity="1" d=" M-1.4850000143051147,44.757999420166016 C-1.0160000324249268,45.676998138427734 -0.6700000166893005,46.62799835205078 -0.4569999873638153,47.56999969482422 C-2.9760000705718994,42.720001220703125 -8.538000106811523,41.297000885009766 -12.281999588012695,43.20800018310547 C-16.025999069213867,45.11899948120117 -16.555999755859375,49.67399978637695 -14.079999923706055,54.56700134277344 C-14.722999572753906,53.83300018310547 -15.302000045776367,52.992000579833984 -15.779999732971191,52.055999755859375 C-18.291000366210938,47.13800048828125 -17.125,41.52299880981445 -13.177000045776367,39.50699996948242 C-9.229000091552734,37.49100112915039 -3.996000051498413,39.84000015258789 -1.4850000143051147,44.757999420166016z"></path></g></g><g opacity="1" transform="matrix(1,0,0,1,0,0)"><g opacity="1" transform="matrix(1,0,0,1,0,0)"><path fill="rgb(240,216,180)" fill-opacity="1" d=" M12.111000061035156,46.986000061035156 C9.60200023651123,51.900001525878906 11.619000434875488,57.952999114990234 15.567000389099121,59.96799850463867 C19.514999389648438,61.983001708984375 24.35700035095215,59.790000915527344 27.16900062561035,55.042999267578125 C31.393999099731445,47.909000396728516 29.608999252319336,42.2140007019043 25.660999298095703,40.19900131225586 C21.71299934387207,38.183998107910156 16.041000366210938,39.2869987487793 12.111000061035156,46.986000061035156z"></path></g><g opacity="1" transform="matrix(1,0,0,1,0,0)"><path fill="rgb(103,68,48)" fill-opacity="1" d=" M13.326000213623047,44.757999420166016 C10.817000389099121,49.672000885009766 11.982999801635742,55.290000915527344 15.930999755859375,57.30500030517578 C19.878999710083008,59.31999969482422 25.11199951171875,56.970001220703125 27.621000289916992,52.055999755859375 C30.1299991607666,47.141998291015625 28.964000701904297,41.52399826049805 25.016000747680664,39.50899887084961 C21.06800079345703,37.49399948120117 15.835000038146973,39.84400177001953 13.326000213623047,44.757999420166016z"></path></g><g opacity="1" transform="matrix(1,0,0,1,0,0)"><path fill="rgb(54,22,9)" fill-opacity="1" d=" M13.32699966430664,44.757999420166016 C12.857999801635742,45.676998138427734 12.512999534606934,46.62799835205078 12.300000190734863,47.56999969482422 C14.819000244140625,42.720001220703125 20.381000518798828,41.297000885009766 24.125,43.20800018310547 C27.868999481201172,45.11899948120117 28.398000717163086,49.67399978637695 25.922000885009766,54.56700134277344 C26.565000534057617,53.83300018310547 27.145000457763672,52.992000579833984 27.62299919128418,52.055999755859375 C30.134000778198242,47.13800048828125 28.966999053955078,41.52299880981445 25.018999099731445,39.50699996948242 C21.070999145507812,37.49100112915039 15.838000297546387,39.84000015258789 13.32699966430664,44.757999420166016z"></path></g></g></g><g style="display: block;" transform="matrix(0.949999988079071,0,0,0.949999988079071,252,255.99905395507812)" opacity="1"><g opacity="1" transform="matrix(1,0,0,1,0,0)"><path fill="rgb(219,191,151)" fill-opacity="1" d=" M-38.54499816894531,7.822000026702881 C-38.54499816894531,14.593000411987305 -50.42300033569336,19.658000946044922 -63.816001892089844,19.658000946044922 C-77.20899963378906,19.658000946044922 -89.08799743652344,12.468000411987305 -89.08799743652344,8.321999549865723 C-89.08799743652344,-3.2820000648498535 -77.20899963378906,13.986000061035156 -63.816001892089844,13.986000061035156 C-50.42300033569336,13.986000061035156 -38.54499816894531,-2.5320000648498535 -38.54499816894531,7.822000026702881z"></path></g><g opacity="1" transform="matrix(1,0,0,1,0,0)"><g opacity="1" transform="matrix(1,0,0,1,0,0)"><path fill="rgb(17,17,17)" fill-opacity="1" d=" M-39.53300094604492,4.769999980926514 C-39.53300094604492,11.468000411987305 -50.3650016784668,17.731000900268555 -63.757999420166016,17.731000900268555 C-77.1510009765625,17.731000900268555 -88.03299713134766,9.968000411987305 -88.03299713134766,4.769999980926514 C-88.03299713134766,-0.6570000052452087 -77.1510009765625,12.934000015258789 -63.757999420166016,12.934000015258789 C-50.3650016784668,12.934000015258789 -39.53300094604492,-0.7820000052452087 -39.53300094604492,4.769999980926514z"></path></g><g opacity="1" transform="matrix(1,0,0,1,0,0)"><path fill="rgb(245,245,245)" fill-opacity="1" d=" M-50.310001373291016,11.585000038146973 C-50.310001373291016,11.331999778747559 -56.40800094604492,14.468000411987305 -63.76599884033203,14.468000411987305 C-71.1240005493164,14.468000411987305 -77.06700134277344,11.107999801635742 -77.06700134277344,11.366000175476074 C-77.06700134277344,11.527000427246094 -71.1240005493164,14.440999984741211 -63.76599884033203,14.440999984741211 C-56.40800094604492,14.440999984741211 -50.310001373291016,11.746000289916992 -50.310001373291016,11.585000038146973z"></path></g><g opacity="1" transform="matrix(1,0,0,1,0,0)"><path fill="rgb(72,73,73)" fill-opacity="1" d=" M-50.555999755859375,14.02400016784668 C-50.555999755859375,16.218000411987305 -59.0620002746582,16.89699935913086 -63.816001892089844,16.89699935913086 C-68.56999969482422,16.89699935913086 -76.56999969482422,15.843000411987305 -76.56999969482422,13.64900016784668 C-76.56999969482422,12.531000137329102 -68.5739974975586,15.406999588012695 -63.81999969482422,15.406999588012695 C-59.066001892089844,15.406999588012695 -50.555999755859375,13.406000137329102 -50.555999755859375,14.02400016784668z"></path></g></g></g><g style="display: block;" transform="matrix(-0.949999988079071,0,0,0.949999988079071,261.5560607910156,255.99905395507812)" opacity="1"><g opacity="1" transform="matrix(1,0,0,1,0,0)"><path fill="rgb(219,191,151)" fill-opacity="1" d=" M-38.54499816894531,7.822000026702881 C-38.54499816894531,14.593000411987305 -50.42300033569336,19.658000946044922 -63.816001892089844,19.658000946044922 C-77.20899963378906,19.658000946044922 -89.08799743652344,12.468000411987305 -89.08799743652344,8.321999549865723 C-89.08799743652344,-3.2820000648498535 -77.20899963378906,13.986000061035156 -63.816001892089844,13.986000061035156 C-50.42300033569336,13.986000061035156 -38.54499816894531,-2.5320000648498535 -38.54499816894531,7.822000026702881z"></path></g><g opacity="1" transform="matrix(1,0,0,1,0,0)"><g opacity="1" transform="matrix(1,0,0,1,0,0)"><path fill="rgb(17,17,17)" fill-opacity="1" d=" M-39.53300094604492,4.769999980926514 C-39.53300094604492,11.468000411987305 -50.3650016784668,17.731000900268555 -63.757999420166016,17.731000900268555 C-77.1510009765625,17.731000900268555 -88.03299713134766,9.968000411987305 -88.03299713134766,4.769999980926514 C-88.03299713134766,-0.6570000052452087 -77.1510009765625,12.934000015258789 -63.757999420166016,12.934000015258789 C-50.3650016784668,12.934000015258789 -39.53300094604492,-0.7820000052452087 -39.53300094604492,4.769999980926514z"></path></g><g opacity="1" transform="matrix(1,0,0,1,0,0)"><path fill="rgb(245,245,245)" fill-opacity="1" d=" M-50.310001373291016,11.585000038146973 C-50.310001373291016,11.331999778747559 -56.40800094604492,14.468000411987305 -63.76599884033203,14.468000411987305 C-71.1240005493164,14.468000411987305 -77.06700134277344,11.107999801635742 -77.06700134277344,11.366000175476074 C-77.06700134277344,11.527000427246094 -71.1240005493164,14.440999984741211 -63.76599884033203,14.440999984741211 C-56.40800094604492,14.440999984741211 -50.310001373291016,11.746000289916992 -50.310001373291016,11.585000038146973z"></path></g><g opacity="1" transform="matrix(1,0,0,1,0,0)"><path fill="rgb(72,73,73)" fill-opacity="1" d=" M-50.555999755859375,14.02400016784668 C-50.555999755859375,16.218000411987305 -59.0620002746582,16.89699935913086 -63.816001892089844,16.89699935913086 C-68.56999969482422,16.89699935913086 -76.56999969482422,15.843000411987305 -76.56999969482422,13.64900016784668 C-76.56999969482422,12.531000137329102 -68.5739974975586,15.406999588012695 -63.81999969482422,15.406999588012695 C-59.066001892089844,15.406999588012695 -50.555999755859375,13.406000137329102 -50.555999755859375,14.02400016784668z"></path></g></g></g><g style="display: block;" transform="matrix(0.949999988079071,0,0,0.949999988079071,252,255.99905395507812)" opacity="0.2"><g opacity="1" transform="matrix(1,0,0,1,0,0)"><path fill="rgb(158,118,61)" fill-opacity="1" d=" M21.708999633789062,-58.7760009765625 C24.216999053955078,-46.8129997253418 30.966999053955078,-30.429000854492188 33.279998779296875,-12.428000450134277 C37.470001220703125,20.17300033569336 44.79899978637695,52.439998626708984 67.68599700927734,69.86100006103516 C74.66799926757812,75.04399871826172 81.87300109863281,83.73500061035156 83.96499633789062,94.70800018310547 C85.48100280761719,102.66000366210938 81.80699920654297,141.69900512695312 51.4900016784668,160.26600646972656 C84.43599700927734,153.52699279785156 132.95199584960938,132.91200256347656 147.4720001220703,120.625 C142.36900329589844,99.29499816894531 138.35800170898438,80.89600372314453 138.00399780273438,74.43900299072266 C137.3679962158203,63.05099868774414 140.7830047607422,53.402000427246094 143.55099487304688,47.59199905395508 C144.92599487304688,45.68199920654297 146.03700256347656,43.72200012207031 146.8350067138672,41.70100021362305 C146.8350067138672,41.70100021362305 157.9199981689453,23.340999603271484 153.97900390625,-5.415999889373779 C150.12899780273438,-33.47600173950195 135.22500610351562,-66.04100036621094 115.13800048828125,-64.64700317382812 C115.13800048828125,-64.64700317382812 98.16200256347656,-101.02300262451172 80.48999786376953,-109.69200134277344 C67.2030029296875,-116.1989974975586 59.01900100708008,-107.61000061035156 58.321998596191406,-100.33499908447266 C58.321998596191406,-100.33499908447266 68.17400360107422,-119.05599975585938 56.04899978637695,-118.68199920654297 C43.92399978637695,-118.30799865722656 39.08399963378906,-106.18299865722656 40.8120002746582,-94.05799865722656 C40.8120002746582,-94.05799865722656 12.164999961853027,-104.3010025024414 21.708999633789062,-58.7760009765625z"></path></g></g><g style="display: block;" transform="matrix(-0.949999988079071,0,0,0.949999988079071,262.05859375,255.99905395507812)" opacity="0.2"><g opacity="1" transform="matrix(1,0,0,1,0,0)"><path fill="rgb(158,118,61)" fill-opacity="1" d=" M21.708999633789062,-58.7760009765625 C24.216999053955078,-46.8129997253418 30.966999053955078,-30.429000854492188 33.279998779296875,-12.428000450134277 C37.470001220703125,20.17300033569336 44.79899978637695,52.439998626708984 67.68599700927734,69.86100006103516 C74.66799926757812,75.04399871826172 81.87300109863281,83.73500061035156 83.96499633789062,94.70800018310547 C85.48100280761719,102.66000366210938 81.80699920654297,141.69900512695312 51.4900016784668,160.26600646972656 C84.43599700927734,153.52699279785156 132.95199584960938,132.91200256347656 147.4720001220703,120.625 C142.36900329589844,99.29499816894531 138.35800170898438,80.89600372314453 138.00399780273438,74.43900299072266 C137.3679962158203,63.05099868774414 140.7830047607422,53.402000427246094 143.55099487304688,47.59199905395508 C144.92599487304688,45.68199920654297 146.03700256347656,43.72200012207031 146.8350067138672,41.70100021362305 C146.8350067138672,41.70100021362305 157.9199981689453,23.340999603271484 153.97900390625,-5.415999889373779 C150.12899780273438,-33.47600173950195 135.22500610351562,-66.04100036621094 115.13800048828125,-64.64700317382812 C115.13800048828125,-64.64700317382812 98.16200256347656,-101.02300262451172 80.48999786376953,-109.69200134277344 C67.2030029296875,-116.1989974975586 59.01900100708008,-107.61000061035156 58.321998596191406,-100.33499908447266 C58.321998596191406,-100.33499908447266 68.17400360107422,-119.05599975585938 56.04899978637695,-118.68199920654297 C43.92399978637695,-118.30799865722656 39.08399963378906,-106.18299865722656 40.8120002746582,-94.05799865722656 C40.8120002746582,-94.05799865722656 12.164999961853027,-104.3010025024414 21.708999633789062,-58.7760009765625z"></path></g></g><g clip-path="url(#__lottie_element_6600)" style="display: block;" transform="matrix(1,0,0,1,0,0)" opacity="1"><g style="display: block;" mask="url(#__lottie_element_6603)"><g transform="matrix(-0.949999988079071,0,0,0.949999988079071,263.0008544921875,256.00018310546875)" opacity="1"><g opacity="1" transform="matrix(1,0,0,1,0,0)"><path fill="rgb(233,201,165)" fill-opacity="1" d=" M165.23699951171875,31.599000930786133 C165.23699951171875,31.599000930786133 176.32000732421875,13.234000205993652 172.3769989013672,-15.515999794006348 C168.5279998779297,-43.57699966430664 153.63099670410156,-76.14099884033203 133.53799438476562,-74.75499725341797 C133.53799438476562,-74.75499725341797 116.56300354003906,-111.13099670410156 98.8949966430664,-119.79199981689453 C85.60600280761719,-126.30599975585938 77.41600036621094,-117.71299743652344 76.7229995727539,-110.43800354003906 C76.7229995727539,-110.43800354003906 68.75499725341797,-121.92400360107422 56.630001068115234,-121.5510025024414 C44.505001068115234,-121.1780014038086 39.654998779296875,-109.052001953125 41.387001037597656,-96.927001953125 C41.387001037597656,-96.927001953125 29.53499984741211,-101.11299896240234 24.41200065612793,-87.5739974975586 C19.562000274658203,-74.75599670410156 37.88800048828125,-43.2239990234375 41.67599868774414,-22.527999877929688 C46.236000061035156,2.384000062942505 48.83300018310547,33.380001068115234 71.86699676513672,54.4640007019043 C94.9010009765625,75.5479965209961 155.01699829101562,57.23500061035156 165.23699951171875,31.599000930786133z"></path></g><g opacity="1" transform="matrix(1,0,0,1,0,0)"><path fill="rgb(252,227,199)" fill-opacity="1" d=" M26.17300033569336,-69.75299835205078 C26.982999801635742,-71.38300323486328 27.42300033569336,-73.10299682617188 27.343000411987305,-74.75299835205078 C26.80299949645996,-85.14299774169922 35.22600173950195,-91.95899963378906 48.08300018310547,-70.75299835205078 C61.77299880981445,-48.17300033569336 64.05699920654297,-36.43299865722656 68.65299987792969,-33.84299850463867 C74.7020034790039,-30.43400001525879 74.46299743652344,-39.16299819946289 74.46299743652344,-39.16299819946289 C71.53299713134766,-50.8129997253418 61.124000549316406,-68.7030029296875 54.034000396728516,-80.3030014038086 C46.933998107910156,-91.89299774169922 44.82400131225586,-98.64299774169922 44.82400131225586,-98.64299774169922 C49.9739990234375,-116.64299774169922 62.13999938964844,-110.43800354003906 74.46299743652344,-95.21299743652344 C85.59300231933594,-81.46199798583984 94.19300079345703,-60.24300003051758 98.71299743652344,-51.33300018310547 C103.23300170898438,-42.41299819946289 108.94400024414062,-47.382999420166016 109.26399993896484,-48.41299819946289 C109.59400177001953,-49.44300079345703 108.61399841308594,-52.25299835205078 108.61399841308594,-52.25299835205078 C104.35399627685547,-67.39299774169922 84.77300262451172,-102.24299621582031 84.77300262451172,-102.24299621582031 C86.14299774169922,-113.56300354003906 95.59300231933594,-113.22899627685547 111.37300109863281,-92.13300323486328 C129.68299865722656,-67.65399932861328 133.86300659179688,-35.70100021362305 140.11399841308594,-32.472999572753906 C145.60800170898438,-29.63599967956543 147.79299926757812,-35.75299835205078 147.79299926757812,-35.75299835205078 C147.79299926757812,-35.75299835205078 142.6529998779297,-52.792999267578125 142.6529998779297,-52.792999267578125 C146.29299926757812,-68.6729965209961 159.24400329589844,-56.01300048828125 159.74400329589844,-55.51300048828125 C152.99400329589844,-67.35299682617188 144.10400390625,-75.46299743652344 133.86399841308594,-74.75299835205078 C133.86399841308594,-74.75299835205078 116.88400268554688,-111.13300323486328 99.2239990234375,-119.79299926757812 C85.93399810791016,-126.3030014038086 77.74299621582031,-117.71299743652344 77.04299926757812,-110.43299865722656 C77.04299926757812,-110.43299865722656 69.08399963378906,-121.9229965209961 56.95399856567383,-121.5530014038086 C44.83399963378906,-121.1729965209961 39.983001708984375,-109.0530014038086 41.7130012512207,-96.9229965209961 C41.7130012512207,-96.9229965209961 29.863000869750977,-101.11299896240234 24.732999801635742,-87.572998046875 C23.12299919128418,-83.322998046875 24.062999725341797,-77.03299713134766 26.17300033569336,-69.75299835205078z"></path></g><g opacity="1" transform="matrix(1,0,0,1,0,0)"><path fill="rgb(220,176,127)" fill-opacity="1" d=" M37.09000015258789,-38.53499984741211 C39.090999603271484,-32.85599899291992 40.78799819946289,-27.388999938964844 41.676998138427734,-22.52899932861328 C46.23400115966797,2.388000011444092 48.83100128173828,33.37699890136719 71.86900329589844,54.46500015258789 C94.89700317382812,75.54299926757812 155.01699829101562,57.23400115966797 165.23199462890625,31.599000930786133 C165.23199462890625,31.599000930786133 176.31700134277344,13.229999542236328 172.37600708007812,-15.517000198364258 C171.75900268554688,-20.023000717163086 170.86000061035156,-24.641000747680664 169.68800354003906,-29.218000411987305 C169.68800354003906,-29.218000411987305 168.6580047607422,29.910999298095703 125.98699951171875,33.18600082397461 C92.48600006103516,35.75699996948242 62.73500061035156,31.47800064086914 37.09000015258789,-38.53499984741211z"></path></g><g opacity="1" transform="matrix(1,0,0,1,0,0)"><path stroke-linecap="round" stroke-linejoin="round" fill-opacity="0" stroke="rgb(148,96,55)" stroke-opacity="1" stroke-width="8" d=" M165.23699951171875,31.599000930786133 C165.23699951171875,31.599000930786133 176.32000732421875,13.234000205993652 172.3769989013672,-15.515999794006348 C168.5279998779297,-43.57699966430664 153.63099670410156,-76.14099884033203 133.53799438476562,-74.75499725341797 C133.53799438476562,-74.75499725341797 116.56300354003906,-111.13099670410156 98.8949966430664,-119.79199981689453 C85.60600280761719,-126.30599975585938 77.41600036621094,-117.71299743652344 76.7229995727539,-110.43800354003906 C76.7229995727539,-110.43800354003906 68.75499725341797,-121.92400360107422 56.630001068115234,-121.5510025024414 C44.505001068115234,-121.1780014038086 39.654998779296875,-109.052001953125 41.387001037597656,-96.927001953125 C41.387001037597656,-96.927001953125 29.53499984741211,-101.11299896240234 24.41200065612793,-87.5739974975586 C19.562000274658203,-74.75599670410156 37.88800048828125,-43.2239990234375 41.67599868774414,-22.527999877929688 C46.236000061035156,2.384000062942505 48.83300018310547,33.380001068115234 71.86699676513672,54.4640007019043 C94.9010009765625,75.5479965209961 155.01699829101562,57.23500061035156 165.23699951171875,31.599000930786133z"></path></g><g opacity="1" transform="matrix(1,0,0,1,0,0)"><path stroke-linecap="round" stroke-linejoin="round" fill-opacity="0" stroke="rgb(148,96,55)" stroke-opacity="1" stroke-width="8" d=" M76.7229995727539,-110.43800354003906 C76.7229995727539,-110.43800354003906 99.93399810791016,-80.29900360107422 108.94100189208984,-50.159000396728516"></path></g><g opacity="1" transform="matrix(1,0,0,1,0,0)"><path stroke-linecap="round" stroke-linejoin="round" fill-opacity="0" stroke="rgb(148,96,55)" stroke-opacity="1" stroke-width="8" d=" M133.53799438476562,-74.75499725341797 C133.53799438476562,-74.75499725341797 143.93099975585938,-51.89099884033203 147.74200439453125,-34.569000244140625"></path></g><g opacity="1" transform="matrix(1,0,0,1,0,0)"><path stroke-linecap="round" stroke-linejoin="round" fill-opacity="0" stroke="rgb(148,96,55)" stroke-opacity="1" stroke-width="8" d=" M41.387001037597656,-96.927001953125 C41.387001037597656,-96.927001953125 62.51900100708008,-73.02300262451172 74.7020034790039,-38.380001068115234"></path></g><g opacity="1" transform="matrix(1,0,0,1,0,0)"><g opacity="1" transform="matrix(1,0,0,1,0,0)"><path fill="rgb(158,118,61)" fill-opacity="1" d=" M190.375,204.06300354003906 C190.375,204.06300354003906 157.75100708007812,83.0009994506836 156.68800354003906,64.31300354003906 C155.625,45.625 159.81300354003906,34.75 159.81300354003906,34.75 C159.81300354003906,34.75 150.43800354003906,44.5629997253418 150.43800354003906,44.5629997253418 C150.43800354003906,44.5629997253418 146.56300354003906,32.125 146.56300354003906,32.125 C146,30.312000274658203 143.62600708007812,29.687000274658203 142.31300354003906,31.125 C142.31300354003906,31.125 134.25,39.9379997253418 134.25,39.9379997253418 C134.25,39.9379997253418 123.25,26 123.25,26 C122,24.437000274658203 119.43800354003906,24.875 118.875,26.812999725341797 C118.875,26.812999725341797 113.625,44.0629997253418 113.625,44.0629997253418 C113.625,44.0629997253418 96.18800354003906,37.125 96.18800354003906,37.125 C94.56300354003906,36.5 92.75,37.6879997253418 92.75,39.4379997253418 C92.75,39.4379997253418 92.75,59.125 92.75,59.125 C92.75,59.125 73.25,51.125 73.25,51.125 C73.25,51.125 95.125,66.43699645996094 98.625,84.625 C102.125,102.81300354003906 114.06300354003906,205.06300354003906 114.06300354003906,205.06300354003906 C114.06300354003906,205.06300354003906 128.31199645996094,212.81300354003906 148,212.75 C182.31300354003906,212.68699645996094 190.375,204.06300354003906 190.375,204.06300354003906z"></path></g><g opacity="1" transform="matrix(1,0,0,1,0,0)"><path fill="rgb(188,146,89)" fill-opacity="1" d=" M131.75,211.06300354003906 C131.75,211.06300354003906 145.93699645996094,214.62600708007812 164.125,212.18800354003906 C185.625,209.31300354003906 190.375,204.06300354003906 190.375,204.06300354003906 C190.375,204.06300354003906 168.18800354003906,122.31300354003906 159.875,83.125 C159.875,83.125 157.875,87.125 157.875,87.125 C155.125,72.5 137.43800354003906,57.25 125.68800354003906,70.56300354003906 C117.43800354003906,79.93800354003906 120.625,104.375 124.75,138.06300354003906 C128.75,170.37600708007812 131.75,211.06300354003906 131.75,211.06300354003906z"></path></g><g opacity="1" transform="matrix(1,0,0,1,0,0)"><path stroke-linecap="round" stroke-linejoin="round" fill-opacity="0" stroke="rgb(94,66,31)" stroke-opacity="1" stroke-width="8" d=" M189.375,202.06300354003906 C189.375,202.06300354003906 157.75100708007812,83.0009994506836 156.68800354003906,64.31300354003906 C156.06300354003906,52.9379997253418 159.43800354003906,43.3129997253418 162.18800354003906,37.5"></path></g><g opacity="1" transform="matrix(1,0,0,1,0,0)"><path stroke-linecap="round" stroke-linejoin="round" fill-opacity="0" stroke="rgb(94,66,31)" stroke-opacity="1" stroke-width="8" d=" M73.75,56 C73.75,56 95.68699645996094,67.93699645996094 98.625,84.625 C101.81300354003906,102.875 114.06300354003906,202.06300354003906 114.06300354003906,202.06300354003906"></path></g></g></g></g></g><g clip-path="url(#__lottie_element_6590)" style="display: block;" transform="matrix(-1,0,0,1,515,0)" opacity="1"><g style="display: block;" mask="url(#__lottie_element_6593)"><g transform="matrix(-0.949999988079071,0,0,0.949999988079071,263.0008544921875,256.00018310546875)" opacity="1"><g opacity="1" transform="matrix(1,0,0,1,0,0)"><path fill="rgb(233,201,165)" fill-opacity="1" d=" M165.23699951171875,31.599000930786133 C165.23699951171875,31.599000930786133 176.32000732421875,13.234000205993652 172.3769989013672,-15.515999794006348 C168.5279998779297,-43.57699966430664 153.63099670410156,-76.14099884033203 133.53799438476562,-74.75499725341797 C133.53799438476562,-74.75499725341797 116.56300354003906,-111.13099670410156 98.8949966430664,-119.79199981689453 C85.60600280761719,-126.30599975585938 77.41600036621094,-117.71299743652344 76.7229995727539,-110.43800354003906 C76.7229995727539,-110.43800354003906 68.75499725341797,-121.92400360107422 56.630001068115234,-121.5510025024414 C44.505001068115234,-121.1780014038086 39.654998779296875,-109.052001953125 41.387001037597656,-96.927001953125 C41.387001037597656,-96.927001953125 29.53499984741211,-101.11299896240234 24.41200065612793,-87.5739974975586 C19.562000274658203,-74.75599670410156 37.88800048828125,-43.2239990234375 41.67599868774414,-22.527999877929688 C46.236000061035156,2.384000062942505 48.83300018310547,33.380001068115234 71.86699676513672,54.4640007019043 C94.9010009765625,75.5479965209961 155.01699829101562,57.23500061035156 165.23699951171875,31.599000930786133z"></path></g><g opacity="1" transform="matrix(1,0,0,1,0,0)"><path fill="rgb(252,227,199)" fill-opacity="1" d=" M26.17300033569336,-69.75299835205078 C26.982999801635742,-71.38300323486328 27.42300033569336,-73.10299682617188 27.343000411987305,-74.75299835205078 C26.80299949645996,-85.14299774169922 35.22600173950195,-91.95899963378906 48.08300018310547,-70.75299835205078 C61.77299880981445,-48.17300033569336 64.05699920654297,-36.43299865722656 68.65299987792969,-33.84299850463867 C74.7020034790039,-30.43400001525879 74.46299743652344,-39.16299819946289 74.46299743652344,-39.16299819946289 C71.53299713134766,-50.8129997253418 61.124000549316406,-68.7030029296875 54.034000396728516,-80.3030014038086 C46.933998107910156,-91.89299774169922 44.82400131225586,-98.64299774169922 44.82400131225586,-98.64299774169922 C49.9739990234375,-116.64299774169922 62.13999938964844,-110.43800354003906 74.46299743652344,-95.21299743652344 C85.59300231933594,-81.46199798583984 94.19300079345703,-60.24300003051758 98.71299743652344,-51.33300018310547 C103.23300170898438,-42.41299819946289 108.94400024414062,-47.382999420166016 109.26399993896484,-48.41299819946289 C109.59400177001953,-49.44300079345703 108.61399841308594,-52.25299835205078 108.61399841308594,-52.25299835205078 C104.35399627685547,-67.39299774169922 84.77300262451172,-102.24299621582031 84.77300262451172,-102.24299621582031 C86.14299774169922,-113.56300354003906 95.59300231933594,-113.22899627685547 111.37300109863281,-92.13300323486328 C129.68299865722656,-67.65399932861328 133.86300659179688,-35.70100021362305 140.11399841308594,-32.472999572753906 C145.60800170898438,-29.63599967956543 147.79299926757812,-35.75299835205078 147.79299926757812,-35.75299835205078 C147.79299926757812,-35.75299835205078 142.6529998779297,-52.792999267578125 142.6529998779297,-52.792999267578125 C146.29299926757812,-68.6729965209961 159.24400329589844,-56.01300048828125 159.74400329589844,-55.51300048828125 C152.99400329589844,-67.35299682617188 144.10400390625,-75.46299743652344 133.86399841308594,-74.75299835205078 C133.86399841308594,-74.75299835205078 116.88400268554688,-111.13300323486328 99.2239990234375,-119.79299926757812 C85.93399810791016,-126.3030014038086 77.74299621582031,-117.71299743652344 77.04299926757812,-110.43299865722656 C77.04299926757812,-110.43299865722656 69.08399963378906,-121.9229965209961 56.95399856567383,-121.5530014038086 C44.83399963378906,-121.1729965209961 39.983001708984375,-109.0530014038086 41.7130012512207,-96.9229965209961 C41.7130012512207,-96.9229965209961 29.863000869750977,-101.11299896240234 24.732999801635742,-87.572998046875 C23.12299919128418,-83.322998046875 24.062999725341797,-77.03299713134766 26.17300033569336,-69.75299835205078z"></path></g><g opacity="1" transform="matrix(1,0,0,1,0,0)"><path fill="rgb(220,176,127)" fill-opacity="1" d=" M37.09000015258789,-38.53499984741211 C39.090999603271484,-32.85599899291992 40.78799819946289,-27.388999938964844 41.676998138427734,-22.52899932861328 C46.23400115966797,2.388000011444092 48.83100128173828,33.37699890136719 71.86900329589844,54.46500015258789 C94.89700317382812,75.54299926757812 155.01699829101562,57.23400115966797 165.23199462890625,31.599000930786133 C165.23199462890625,31.599000930786133 176.31700134277344,13.229999542236328 172.37600708007812,-15.517000198364258 C171.75900268554688,-20.023000717163086 170.86000061035156,-24.641000747680664 169.68800354003906,-29.218000411987305 C169.68800354003906,-29.218000411987305 168.6580047607422,29.910999298095703 125.98699951171875,33.18600082397461 C92.48600006103516,35.75699996948242 62.73500061035156,31.47800064086914 37.09000015258789,-38.53499984741211z"></path></g><g opacity="1" transform="matrix(1,0,0,1,0,0)"><path stroke-linecap="round" stroke-linejoin="round" fill-opacity="0" stroke="rgb(148,96,55)" stroke-opacity="1" stroke-width="8" d=" M165.23699951171875,31.599000930786133 C165.23699951171875,31.599000930786133 176.32000732421875,13.234000205993652 172.3769989013672,-15.515999794006348 C168.5279998779297,-43.57699966430664 153.63099670410156,-76.14099884033203 133.53799438476562,-74.75499725341797 C133.53799438476562,-74.75499725341797 116.56300354003906,-111.13099670410156 98.8949966430664,-119.79199981689453 C85.60600280761719,-126.30599975585938 77.41600036621094,-117.71299743652344 76.7229995727539,-110.43800354003906 C76.7229995727539,-110.43800354003906 68.75499725341797,-121.92400360107422 56.630001068115234,-121.5510025024414 C44.505001068115234,-121.1780014038086 39.654998779296875,-109.052001953125 41.387001037597656,-96.927001953125 C41.387001037597656,-96.927001953125 29.53499984741211,-101.11299896240234 24.41200065612793,-87.5739974975586 C19.562000274658203,-74.75599670410156 37.88800048828125,-43.2239990234375 41.67599868774414,-22.527999877929688 C46.236000061035156,2.384000062942505 48.83300018310547,33.380001068115234 71.86699676513672,54.4640007019043 C94.9010009765625,75.5479965209961 155.01699829101562,57.23500061035156 165.23699951171875,31.599000930786133z"></path></g><g opacity="1" transform="matrix(1,0,0,1,0,0)"><path stroke-linecap="round" stroke-linejoin="round" fill-opacity="0" stroke="rgb(148,96,55)" stroke-opacity="1" stroke-width="8" d=" M76.7229995727539,-110.43800354003906 C76.7229995727539,-110.43800354003906 99.93399810791016,-80.29900360107422 108.94100189208984,-50.159000396728516"></path></g><g opacity="1" transform="matrix(1,0,0,1,0,0)"><path stroke-linecap="round" stroke-linejoin="round" fill-opacity="0" stroke="rgb(148,96,55)" stroke-opacity="1" stroke-width="8" d=" M133.53799438476562,-74.75499725341797 C133.53799438476562,-74.75499725341797 143.93099975585938,-51.89099884033203 147.74200439453125,-34.569000244140625"></path></g><g opacity="1" transform="matrix(1,0,0,1,0,0)"><path stroke-linecap="round" stroke-linejoin="round" fill-opacity="0" stroke="rgb(148,96,55)" stroke-opacity="1" stroke-width="8" d=" M41.387001037597656,-96.927001953125 C41.387001037597656,-96.927001953125 62.51900100708008,-73.02300262451172 74.7020034790039,-38.380001068115234"></path></g><g opacity="1" transform="matrix(1,0,0,1,0,0)"><g opacity="1" transform="matrix(1,0,0,1,0,0)"><path fill="rgb(158,118,61)" fill-opacity="1" d=" M190.375,204.06300354003906 C190.375,204.06300354003906 157.75100708007812,83.0009994506836 156.68800354003906,64.31300354003906 C155.625,45.625 159.81300354003906,34.75 159.81300354003906,34.75 C159.81300354003906,34.75 150.43800354003906,44.5629997253418 150.43800354003906,44.5629997253418 C150.43800354003906,44.5629997253418 146.56300354003906,32.125 146.56300354003906,32.125 C146,30.312000274658203 143.62600708007812,29.687000274658203 142.31300354003906,31.125 C142.31300354003906,31.125 134.25,39.9379997253418 134.25,39.9379997253418 C134.25,39.9379997253418 123.25,26 123.25,26 C122,24.437000274658203 119.43800354003906,24.875 118.875,26.812999725341797 C118.875,26.812999725341797 113.625,44.0629997253418 113.625,44.0629997253418 C113.625,44.0629997253418 96.18800354003906,37.125 96.18800354003906,37.125 C94.56300354003906,36.5 92.75,37.6879997253418 92.75,39.4379997253418 C92.75,39.4379997253418 92.75,59.125 92.75,59.125 C92.75,59.125 73.25,51.125 73.25,51.125 C73.25,51.125 95.125,66.43699645996094 98.625,84.625 C102.125,102.81300354003906 114.06300354003906,205.06300354003906 114.06300354003906,205.06300354003906 C114.06300354003906,205.06300354003906 128.31199645996094,212.81300354003906 148,212.75 C182.31300354003906,212.68699645996094 190.375,204.06300354003906 190.375,204.06300354003906z"></path></g><g opacity="1" transform="matrix(1,0,0,1,0,0)"><path fill="rgb(188,146,89)" fill-opacity="1" d=" M131.75,211.06300354003906 C131.75,211.06300354003906 145.93699645996094,214.62600708007812 164.125,212.18800354003906 C185.625,209.31300354003906 190.375,204.06300354003906 190.375,204.06300354003906 C190.375,204.06300354003906 168.18800354003906,122.31300354003906 159.875,83.125 C159.875,83.125 157.875,87.125 157.875,87.125 C155.125,72.5 137.43800354003906,57.25 125.68800354003906,70.56300354003906 C117.43800354003906,79.93800354003906 120.625,104.375 124.75,138.06300354003906 C128.75,170.37600708007812 131.75,211.06300354003906 131.75,211.06300354003906z"></path></g><g opacity="1" transform="matrix(1,0,0,1,0,0)"><path stroke-linecap="round" stroke-linejoin="round" fill-opacity="0" stroke="rgb(94,66,31)" stroke-opacity="1" stroke-width="8" d=" M189.375,202.06300354003906 C189.375,202.06300354003906 157.75100708007812,83.0009994506836 156.68800354003906,64.31300354003906 C156.06300354003906,52.9379997253418 159.43800354003906,43.3129997253418 162.18800354003906,37.5"></path></g><g opacity="1" transform="matrix(1,0,0,1,0,0)"><path stroke-linecap="round" stroke-linejoin="round" fill-opacity="0" stroke="rgb(94,66,31)" stroke-opacity="1" stroke-width="8" d=" M73.75,56 C73.75,56 95.68699645996094,67.93699645996094 98.625,84.625 C101.81300354003906,102.875 114.06300354003906,202.06300354003906 114.06300354003906,202.06300354003906"></path></g></g></g></g></g></g></svg>