<svg xmlns="http://www.w3.org/2000/svg" viewBox="0 0 512 512" width="512" height="512" style="width: 100%; height: 100%; transform: translate3d(0,0,0);" preserveAspectRatio="xMidYMid meet"><defs><clipPath id="__lottie_element_6634"><rect width="512" height="512" x="0" y="0"></rect></clipPath><clipPath id="__lottie_element_6639"><path d="M0,0 L512,0 L512,512 L0,512z"></path></clipPath><clipPath id="__lottie_element_6688"><path d="M0,0 L512,0 L512,512 L0,512z"></path></clipPath><linearGradient id="__lottie_element_6743" spreadMethod="pad" gradientUnits="userSpaceOnUse"><stop></stop><stop></stop><stop></stop><stop></stop><stop></stop></linearGradient><linearGradient id="__lottie_element_6744" spreadMethod="pad" gradientUnits="userSpaceOnUse"><stop></stop><stop></stop><stop></stop><stop></stop><stop></stop></linearGradient><mask id="__lottie_element_6754" mask-type="alpha"><g clip-path="url(#__lottie_element_6755)" style="display: block;" transform="matrix(1,0,0,1,0,4)" opacity="1"><g style="display: block;" transform="matrix(-1,0,0,-1.024999976158142,256.1659851074219,258.03466796875)" opacity="1"><path fill="rgb(255,255,255)" fill-opacity="1" d=" M139.72999572753906,-118.69300079345703 C138.19000244140625,-83.9729995727539 112.4800033569336,-54.222999572753906 83.16000366210938,-36.112998962402344 C68.51000213623047,-27.05299949645996 54.36000061035156,-20.913000106811523 43.880001068115234,-15.373000144958496 C33.40999984741211,-9.833000183105469 26.59000015258789,-4.873000144958496 26.59000015258789,1.8270000219345093 C26.59000015258789,1.8270000219345093 -26.25,1.8270000219345093 -26.25,1.8270000219345093 C-26.25,-11.572999954223633 -53.5099983215332,-17.993000030517578 -82.81999969482422,-36.112998962402344 C-112.13999938964844,-54.222999572753906 -137.85000610351562,-83.9729995727539 -139.38999938964844,-118.69300079345703 C-140.94000244140625,-153.4029998779297 -137.22999572753906,-162.7030029296875 -119.87999725341797,-165.6529998779297 C-85.87000274658203,-171.4429931640625 -48.4900016784668,-171.41299438476562 0.17000000178813934,-171.41299438476562 C48.83000183105469,-171.41299438476562 88.30999755859375,-171.4429931640625 120.22000122070312,-165.6529998779297 C137.5399932861328,-162.51300048828125 141.27999877929688,-153.4029998779297 139.72999572753906,-118.69300079345703z M120.22000122070312,169.3070068359375 C86.1989974975586,175.0970001220703 48.83000183105469,175.06700134277344 0.17000000178813934,175.06700134277344 C-48.5,175.06700134277344 -87.97000122070312,175.0970001220703 -119.87999725341797,169.3070068359375 C-137.1999969482422,166.16700744628906 -140.94000244140625,157.0469970703125 -139.39999389648438,122.33699798583984 C-137.85000610351562,87.62699890136719 -112.13999938964844,57.867000579833984 -82.81999969482422,39.75699996948242 C-68.16999816894531,30.69700050354004 -54.02000045776367,24.566999435424805 -43.540000915527344,19.017000198364258 C-33.06999969482422,13.47700023651123 -26.25,8.527000427246094 -26.25,1.8270000219345093 C-26.25,1.8270000219345093 26.59000015258789,1.8270000219345093 26.59000015258789,1.8270000219345093 C26.59000015258789,15.217000007629395 53.849998474121094,21.636999130249023 83.16000366210938,39.75699996948242 C112.4800033569336,57.867000579833984 138.19000244140625,87.62699890136719 139.72999572753906,122.33699798583984 C141.27999877929688,157.0469970703125 137.57000732421875,166.3470001220703 120.22000122070312,169.3070068359375z"></path><g opacity="1" transform="matrix(1,0,0,1,0,0)"></g><g opacity="1" transform="matrix(1,0,0,1,0,0)"></g></g><g style="display: none;"><path></path><g></g><g></g></g></g></mask><clipPath id="__lottie_element_6755"><path d="M0,0 L512,0 L512,512 L0,512z"></path></clipPath><clipPath id="__lottie_element_6765"><path d="M0,0 L512,0 L512,512 L0,512z"></path></clipPath><mask id="__lottie_element_6774" mask-type="alpha"><g clip-path="url(#__lottie_element_6775)" style="display: block;" transform="matrix(1,0,0,1.024999976158142,0,-6.399993896484375)" opacity="1"><g style="display: block;" transform="matrix(1,0,0,1,255.83200073242188,254.33200073242188)" opacity="1"><g opacity="1" transform="matrix(1,0,0,1,0,0)"><path fill="rgb(255,255,255)" fill-opacity="1" d=" M6.659999847412109,59.49700164794922 C4.605000019073486,108.35600280761719 17.97599983215332,124.06999969482422 32.375999450683594,136.6699981689453 C62.755001068115234,163.2519989013672 81.74700164794922,165.4409942626953 83.37999725341797,173.4669952392578 C58.9900016784668,175.07699584960938 32,175.06700134277344 0.17000000178813934,175.06700134277344 C-35.470001220703125,175.06700134277344 -75.08200073242188,175.66900634765625 -92.5999984741211,172.81700134277344 C-98.58200073242188,168.66900634765625 -72.52400207519531,159.81100463867188 -58.257999420166016,151.52200317382812 C-18.92099952697754,128.66700744628906 -8.510000228881836,112.5270004272461 -7.21999979019165,67.81700134277344 C-5.99399995803833,25.33300018310547 -19.610000610351562,4.9770002365112305 -28.530000686645508,-4.552999973297119 C-28.540000915527344,-4.552999973297119 -46.9900016784668,-16.792999267578125 -47.040000915527344,-16.822999954223633 C-57.66999816894531,-23.402999877929688 -64.98999786376953,-25.093000411987305 -82.81999969482422,-36.112998962402344 C-112.13999938964844,-54.222999572753906 -137.85000610351562,-74.21700286865234 -139.38999938964844,-108.93699645996094 C-139.38999938964844,-108.93699645996094 -130.67300415039062,-121.30799865722656 1.4329999685287476,-121.30899810791016 C129.06199645996094,-121.30999755859375 139.72999572753906,-108.93699645996094 139.72999572753906,-108.93699645996094 C138.19000244140625,-74.21700286865234 112.4800033569336,-54.222999572753906 83.16000366210938,-36.112998962402344 C68.51000213623047,-27.05299949645996 54.36000061035156,-20.913000106811523 43.880001068115234,-15.373000144958496 C36.59000015258789,-11.512999534606934 31.37299919128418,-7.980999946594238 27.06100082397461,-3.5869998931884766 C19.90399932861328,3.7070000171661377 8.307999610900879,20.334999084472656 6.659999847412109,59.49700164794922z"></path></g></g><g style="display: none;"><g><path></path></g></g><g style="display: none;"><g><path></path></g></g><g style="display: block;" transform="matrix(1,0,0,1,255.83200073242188,254.33200073242188)" opacity="1"></g></g></mask><clipPath id="__lottie_element_6775"><path d="M0,0 L512,0 L512,512 L0,512z"></path></clipPath><mask id="__lottie_element_6794" mask-type="alpha"><g clip-path="url(#__lottie_element_6795)" style="display: block;" transform="matrix(1,0,0,1.024999976158142,0,-6.399993896484375)" opacity="1"><g style="display: block;" transform="matrix(1,0,0,1,255.83200073242188,254.33200073242188)" opacity="1"><g opacity="1" transform="matrix(1,0,0,1,0,0)"><path fill="rgb(255,255,255)" fill-opacity="1" d=" M6.659999847412109,59.49700164794922 C4.605000019073486,108.35600280761719 17.97599983215332,124.06999969482422 32.375999450683594,136.6699981689453 C62.755001068115234,163.2519989013672 81.74700164794922,165.4409942626953 83.37999725341797,173.4669952392578 C58.9900016784668,175.07699584960938 32,175.06700134277344 0.17000000178813934,175.06700134277344 C-35.470001220703125,175.06700134277344 -75.08200073242188,175.66900634765625 -92.5999984741211,172.81700134277344 C-98.58200073242188,168.66900634765625 -72.52400207519531,159.81100463867188 -58.257999420166016,151.52200317382812 C-18.92099952697754,128.66700744628906 -8.510000228881836,112.5270004272461 -7.21999979019165,67.81700134277344 C-5.99399995803833,25.33300018310547 -19.610000610351562,4.9770002365112305 -28.530000686645508,-4.552999973297119 C-28.540000915527344,-4.552999973297119 -46.9900016784668,-16.792999267578125 -47.040000915527344,-16.822999954223633 C-57.66999816894531,-23.402999877929688 -64.98999786376953,-25.093000411987305 -82.81999969482422,-36.112998962402344 C-112.13999938964844,-54.222999572753906 -137.85000610351562,-74.21700286865234 -139.38999938964844,-108.93699645996094 C-139.38999938964844,-108.93699645996094 -130.67300415039062,-121.30799865722656 1.4329999685287476,-121.30899810791016 C129.06199645996094,-121.30999755859375 139.72999572753906,-108.93699645996094 139.72999572753906,-108.93699645996094 C138.19000244140625,-74.21700286865234 112.4800033569336,-54.222999572753906 83.16000366210938,-36.112998962402344 C68.51000213623047,-27.05299949645996 54.36000061035156,-20.913000106811523 43.880001068115234,-15.373000144958496 C36.59000015258789,-11.512999534606934 31.37299919128418,-7.980999946594238 27.06100082397461,-3.5869998931884766 C19.90399932861328,3.7070000171661377 8.307999610900879,20.334999084472656 6.659999847412109,59.49700164794922z"></path></g></g><g style="display: none;"><g><path></path></g></g><g style="display: none;"><g><path></path></g></g><g style="display: block;" transform="matrix(1,0,0,1,255.83200073242188,254.33200073242188)" opacity="1"></g></g></mask><clipPath id="__lottie_element_6795"><path d="M0,0 L512,0 L512,512 L0,512z"></path></clipPath><clipPath id="__lottie_element_6812"><path d="M0,0 L512,0 L512,512 L0,512z"></path></clipPath><radialGradient id="__lottie_element_6839" spreadMethod="pad" gradientUnits="userSpaceOnUse"><stop></stop><stop></stop><stop></stop></radialGradient><radialGradient id="__lottie_element_6840" spreadMethod="pad" gradientUnits="userSpaceOnUse"><stop></stop><stop></stop><stop></stop></radialGradient><radialGradient id="__lottie_element_6844" spreadMethod="pad" gradientUnits="userSpaceOnUse" cx="0" cy="-97.02899932861328" r="152.33900451660156" fx="0" fy="-97.02899932861328"><stop offset="0%" stop-color="rgb(255,255,255)" stop-opacity="0.20000000298023224"></stop><stop offset="72%" stop-color="rgb(233,236,248)" stop-opacity="0.4000000059604645"></stop><stop offset="100%" stop-color="rgb(210,218,241)" stop-opacity="0.6000000238418579"></stop></radialGradient><radialGradient id="__lottie_element_6845" spreadMethod="pad" gradientUnits="userSpaceOnUse" cx="-1" cy="142.24200439453125" r="212.59981872357176" fx="-1" fy="142.24200439453125"><stop offset="0%" stop-color="rgb(255,255,255)" stop-opacity="0.20000000298023224"></stop><stop offset="72%" stop-color="rgb(233,236,248)" stop-opacity="0.4000000059604645"></stop><stop offset="100%" stop-color="rgb(210,218,241)" stop-opacity="0.6000000238418579"></stop></radialGradient><linearGradient id="__lottie_element_6849" spreadMethod="pad" gradientUnits="userSpaceOnUse"><stop></stop><stop></stop><stop></stop><stop></stop><stop></stop></linearGradient><linearGradient id="__lottie_element_6850" spreadMethod="pad" gradientUnits="userSpaceOnUse"><stop></stop><stop></stop><stop></stop><stop></stop><stop></stop></linearGradient><linearGradient id="__lottie_element_6854" spreadMethod="pad" gradientUnits="userSpaceOnUse" x1="-6" y1="213" x2="104.73999786376953" y2="213"><stop offset="0%" stop-color="rgb(155,79,41)"></stop><stop offset="11%" stop-color="rgb(95,45,22)"></stop><stop offset="52%" stop-color="rgb(35,10,3)"></stop><stop offset="93%" stop-color="rgb(95,45,22)"></stop><stop offset="100%" stop-color="rgb(155,79,41)"></stop></linearGradient><linearGradient id="__lottie_element_6855" spreadMethod="pad" gradientUnits="userSpaceOnUse" x1="-17" y1="189" x2="93.73999786376953" y2="189"><stop offset="0%" stop-color="rgb(130,62,38)"></stop><stop offset="11%" stop-color="rgb(83,36,20)"></stop><stop offset="52%" stop-color="rgb(35,10,3)"></stop><stop offset="93%" stop-color="rgb(83,36,20)"></stop><stop offset="100%" stop-color="rgb(130,62,38)"></stop></linearGradient><linearGradient id="__lottie_element_6859" spreadMethod="pad" gradientUnits="userSpaceOnUse" x1="-6" y1="-210" x2="104.73999786376953" y2="-210"><stop offset="0%" stop-color="rgb(155,79,41)"></stop><stop offset="11%" stop-color="rgb(95,45,22)"></stop><stop offset="52%" stop-color="rgb(35,10,3)"></stop><stop offset="93%" stop-color="rgb(95,45,22)"></stop><stop offset="100%" stop-color="rgb(155,79,41)"></stop></linearGradient><linearGradient id="__lottie_element_6860" spreadMethod="pad" gradientUnits="userSpaceOnUse" x1="-17" y1="-186" x2="93.73999786376953" y2="-186"><stop offset="0%" stop-color="rgb(130,62,38)"></stop><stop offset="11%" stop-color="rgb(83,36,20)"></stop><stop offset="52%" stop-color="rgb(35,10,3)"></stop><stop offset="93%" stop-color="rgb(83,36,20)"></stop><stop offset="100%" stop-color="rgb(130,62,38)"></stop></linearGradient></defs><g clip-path="url(#__lottie_element_6634)"><g style="display: block;" transform="matrix(1,0,0,1,255.83200073242188,258.33197021484375)" opacity="1"><g opacity="1" transform="matrix(1,0,0,1,0,0)"><g opacity="1" transform="matrix(1,0,0,1,0,0)"><g opacity="1" transform="matrix(1,0,0,1,0,0)"><g opacity="1" transform="matrix(1,0,0,1,0,0)"><path fill="rgb(155,79,41)" fill-opacity="1" d=" M-155.0290069580078,-189.04600524902344 C-155.0290069580078,-189.04600524902344 -155.0290069580078,-216.5659942626953 -155.0290069580078,-216.5659942626953 C-155.0290069580078,-223.93600463867188 -85.54399871826172,-230.91000366210938 0.16899999976158142,-230.91000366210938 C85.88200378417969,-230.91000366210938 155.36599731445312,-223.93600463867188 155.36599731445312,-216.5659942626953 C155.36599731445312,-216.5659942626953 155.36599731445312,-189.04600524902344 155.36599731445312,-189.04600524902344 C155.36599731445312,-189.04600524902344 -155.0290069580078,-189.04600524902344 -155.0290069580078,-189.04600524902344z"></path></g></g><g opacity="0.6" transform="matrix(1,0,0,1,0,0)"><path fill="rgb(178,108,61)" fill-opacity="1" d=" M155.3699951171875,-216.56300354003906 C155.3699951171875,-216.56300354003906 155.3699951171875,-189.04299926757812 155.3699951171875,-189.04299926757812 C155.3699951171875,-189.04299926757812 144.3300018310547,-189.04299926757812 144.3300018310547,-189.04299926757812 C143.72999572753906,-189.38299560546875 142.97000122070312,-189.72300720214844 142.0500030517578,-190.06300354003906 C142.0500030517578,-190.06300354003906 142.0500030517578,-206.29299926757812 142.0500030517578,-206.29299926757812 C142.0500030517578,-213.66299438476562 78.52999877929688,-220.63299560546875 0.17000000178813934,-220.63299560546875 C-78.19000244140625,-220.63299560546875 -141.7100067138672,-213.66299438476562 -141.7100067138672,-206.29299926757812 C-141.7100067138672,-206.29299926757812 -141.7100067138672,-190.06300354003906 -141.7100067138672,-190.06300354003906 C-142.6300048828125,-189.72300720214844 -143.39999389648438,-189.38299560546875 -144,-189.04299926757812 C-144,-189.04299926757812 -155.02999877929688,-189.04299926757812 -155.02999877929688,-189.04299926757812 C-155.02999877929688,-189.04299926757812 -155.02999877929688,-216.56300354003906 -155.02999877929688,-216.56300354003906 C-155.02999877929688,-223.93299865722656 -85.54000091552734,-230.91299438476562 0.17000000178813934,-230.91299438476562 C85.87999725341797,-230.91299438476562 155.3699951171875,-223.93299865722656 155.3699951171875,-216.56300354003906z"></path></g><g opacity="0.5" transform="matrix(1,0,0,1,0,0)"><path fill="url(#__lottie_element_6859)" fill-opacity="1" d=" M104.80000305175781,-226.97300720214844 C104.80000305175781,-226.97300720214844 104.80000305175781,-189.04299926757812 104.80000305175781,-189.04299926757812 C104.80000305175781,-189.04299926757812 -5.940000057220459,-189.04299926757812 -5.940000057220459,-189.04299926757812 C-5.940000057220459,-189.04299926757812 -5.940000057220459,-230.89300537109375 -5.940000057220459,-230.89300537109375 C-3.9100000858306885,-230.91299438476562 -1.8799999952316284,-230.91299438476562 0.17000000178813934,-230.91299438476562 C40.4900016784668,-230.91299438476562 77.20999908447266,-229.3730010986328 104.80000305175781,-226.97300720214844z"></path></g><g opacity="1" transform="matrix(1,0,0,1,0,0)"><g opacity="1" transform="matrix(1,0,0,1,0,0)"><path fill="rgb(130,62,38)" fill-opacity="1" d=" M-145.60499572753906,-171.72999572753906 C-145.60499572753906,-171.72999572753906 -145.60499572753906,-187.17100524902344 -145.60499572753906,-187.17100524902344 C-145.60499572753906,-194.09300231933594 -80.33999633789062,-199.7050018310547 0.16899999976158142,-199.7050018310547 C80.6780014038086,-199.7050018310547 145.9429931640625,-194.09300231933594 145.9429931640625,-187.17100524902344 C145.9429931640625,-187.17100524902344 145.9429931640625,-171.72999572753906 145.9429931640625,-171.72999572753906 C145.9429931640625,-171.72999572753906 -145.60499572753906,-171.72999572753906 -145.60499572753906,-171.72999572753906z"></path></g></g><g opacity="0.5" transform="matrix(1,0,0,1,0,0)"><path fill="url(#__lottie_element_6860)" fill-opacity="1" d=" M93.80000305175781,-196.7830047607422 C93.80000305175781,-196.7830047607422 93.80000305175781,-171.73300170898438 93.80000305175781,-171.73300170898438 C93.80000305175781,-171.73300170898438 -16.940000534057617,-171.73300170898438 -16.940000534057617,-171.73300170898438 C-16.940000534057617,-171.73300170898438 -16.940000534057617,-199.6230010986328 -16.940000534057617,-199.6230010986328 C-11.329999923706055,-199.67300415039062 -5.619999885559082,-199.7030029296875 0.17000000178813934,-199.7030029296875 C35.81999969482422,-199.7030029296875 68.47000122070312,-198.60299682617188 93.80000305175781,-196.7830047607422z"></path></g><g opacity="1" transform="matrix(1,0,0,1,0,0)"><g opacity="1" transform="matrix(1,0,0,1,0,0)"><path stroke-linecap="round" stroke-linejoin="round" fill-opacity="0" stroke="rgb(58,25,12)" stroke-opacity="1" stroke-width="8" d=" M-145.60499572753906,-171.72999572753906 C-145.60499572753906,-171.72999572753906 -145.60499572753906,-187.17100524902344 -145.60499572753906,-187.17100524902344 C-145.60499572753906,-194.09300231933594 -80.33999633789062,-199.7050018310547 0.16899999976158142,-199.7050018310547 C80.6780014038086,-199.7050018310547 145.9429931640625,-194.09300231933594 145.9429931640625,-187.17100524902344 C145.9429931640625,-187.17100524902344 145.9429931640625,-171.72999572753906 145.9429931640625,-171.72999572753906 C145.9429931640625,-171.72999572753906 -145.60499572753906,-171.72999572753906 -145.60499572753906,-171.72999572753906z"></path></g></g><g opacity="1" transform="matrix(1,0,0,1,0,0)"><path fill="rgb(84,40,16)" fill-opacity="1" d=" M145.9429931640625,-171.72999572753906 C145.9429931640625,-178.65199279785156 80.6780014038086,-184.26400756835938 0.16899999976158142,-184.26400756835938 C-80.33999633789062,-184.26400756835938 -145.60499572753906,-178.65199279785156 -145.60499572753906,-171.72999572753906 C-145.60499572753906,-164.80799865722656 -80.33999633789062,-159.19700622558594 0.16899999976158142,-159.19700622558594 C80.6780014038086,-159.19700622558594 145.9429931640625,-164.80799865722656 145.9429931640625,-171.72999572753906z"></path></g></g><g opacity="1" transform="matrix(1,0,0,1,0,0)"><path stroke-linecap="round" stroke-linejoin="round" fill-opacity="0" stroke="rgb(84,40,20)" stroke-opacity="1" stroke-width="8" d=" M155.36599731445312,-189.04600524902344 C155.36599731445312,-187.4340057373047 152.03900146484375,-185.88800048828125 145.9429931640625,-184.45700073242188 C145.9429931640625,-184.45700073242188 145.9429931640625,-171.72999572753906 145.9429931640625,-171.72999572753906 C145.9429931640625,-171.72999572753906 145.9429931640625,-171.72999572753906 145.9429931640625,-171.72999572753906 C145.94200134277344,-164.80799865722656 80.677001953125,-159.19700622558594 0.16899999976158142,-159.19700622558594 C-80.33899688720703,-159.19700622558594 -145.60400390625,-164.80799865722656 -145.60499572753906,-171.72999572753906 C-145.60499572753906,-171.72999572753906 -145.60499572753906,-171.72999572753906 -145.60499572753906,-171.72999572753906 C-145.60499572753906,-171.72999572753906 -145.60499572753906,-184.45700073242188 -145.60499572753906,-184.45700073242188 C-151.7010040283203,-185.88800048828125 -155.0290069580078,-187.4340057373047 -155.0290069580078,-189.04600524902344 C-155.0290069580078,-189.04600524902344 -155.0290069580078,-189.04600524902344 -155.0290069580078,-189.04600524902344 C-155.0290069580078,-189.04600524902344 -155.0290069580078,-216.5659942626953 -155.0290069580078,-216.5659942626953 C-155.0290069580078,-223.93600463867188 -85.54399871826172,-230.91000366210938 0.16899999976158142,-230.91000366210938 C85.88200378417969,-230.91000366210938 155.36599731445312,-223.93600463867188 155.36599731445312,-216.5659942626953 C155.36599731445312,-216.5659942626953 155.36599731445312,-189.04600524902344 155.36599731445312,-189.04600524902344 C155.36599731445312,-189.04600524902344 155.36599731445312,-189.04600524902344 155.36599731445312,-189.04600524902344z"></path></g><g opacity="0.5" transform="matrix(1,0,0,1,0,0)"><path stroke-linecap="round" stroke-linejoin="round" fill-opacity="0" stroke="rgb(183,131,104)" stroke-opacity="1" stroke-width="6" d=" M-31.007999420166016,-223.28799438476562 C-11.920999526977539,-223.9499969482422 13.180000305175781,-224.2480010986328 39.37799835205078,-223.0030059814453"></path></g><g opacity="0.5" transform="matrix(1,0,0,1,0,0)"><path stroke-linecap="round" stroke-linejoin="round" fill-opacity="0" stroke="rgb(183,131,104)" stroke-opacity="1" stroke-width="6" d=" M-65.25800323486328,-222.36199951171875 C-65.25800323486328,-222.36199951171875 -61.099998474121094,-222.61199951171875 -54.178001403808594,-222.86399841308594"></path></g></g><g opacity="1" transform="matrix(1,0,0,1,0,0)"><path fill="rgb(29,29,27)" fill-opacity="1" d=" M116.14199829101562,-165.44900512695312 C116.14199829101562,-168.90199279785156 64.21900177001953,-171.70199584960938 0.16899999976158142,-171.70199584960938 C-63.88100051879883,-171.70199584960938 -115.80500030517578,-168.90199279785156 -115.80500030517578,-165.44900512695312 C-115.80500030517578,-161.99600219726562 -63.88100051879883,-159.19700622558594 0.16899999976158142,-159.19700622558594 C64.21900177001953,-159.19700622558594 116.14199829101562,-161.99600219726562 116.14199829101562,-165.44900512695312z"></path></g></g><g style="display: block;" transform="matrix(1,0,0,1,255.83200073242188,258.3320007324219)" opacity="1"><g opacity="1" transform="matrix(1,0,0,1,0,0)"><g opacity="1" transform="matrix(1,0,0,1,0,0)"><g opacity="1" transform="matrix(1,0,0,1,0,0)"><path fill="rgb(155,79,41)" fill-opacity="1" d=" M-155.0290069580078,192.406005859375 C-155.0290069580078,192.406005859375 -155.0290069580078,219.927001953125 -155.0290069580078,219.927001953125 C-155.0290069580078,227.2969970703125 -85.54399871826172,234.27099609375 0.16899999976158142,234.27099609375 C85.88200378417969,234.27099609375 155.36599731445312,227.2969970703125 155.36599731445312,219.927001953125 C155.36599731445312,219.927001953125 155.36599731445312,192.406005859375 155.36599731445312,192.406005859375 C155.36599731445312,192.406005859375 -155.0290069580078,192.406005859375 -155.0290069580078,192.406005859375z"></path></g></g><g opacity="0.6" transform="matrix(1,0,0,1,0,0)"><path fill="rgb(178,108,61)" fill-opacity="1" d=" M155.3699951171875,219.9239959716797 C155.3699951171875,219.9239959716797 155.3699951171875,192.4040069580078 155.3699951171875,192.4040069580078 C155.3699951171875,192.4040069580078 144.3300018310547,192.4040069580078 144.3300018310547,192.4040069580078 C143.72999572753906,192.74400329589844 142.97000122070312,193.08399963378906 142.0500030517578,193.4239959716797 C142.0500030517578,193.4239959716797 142.0500030517578,209.6540069580078 142.0500030517578,209.6540069580078 C142.0500030517578,217.0240020751953 78.52999877929688,223.9929962158203 0.17000000178813934,223.9929962158203 C-78.19000244140625,223.9929962158203 -141.7100067138672,217.0240020751953 -141.7100067138672,209.6540069580078 C-141.7100067138672,209.6540069580078 -141.7100067138672,193.4239959716797 -141.7100067138672,193.4239959716797 C-142.6300048828125,193.08399963378906 -143.39999389648438,192.74400329589844 -144,192.4040069580078 C-144,192.4040069580078 -155.02999877929688,192.4040069580078 -155.02999877929688,192.4040069580078 C-155.02999877929688,192.4040069580078 -155.02999877929688,219.9239959716797 -155.02999877929688,219.9239959716797 C-155.02999877929688,227.29400634765625 -85.54000091552734,234.2740020751953 0.17000000178813934,234.2740020751953 C85.87999725341797,234.2740020751953 155.3699951171875,227.29400634765625 155.3699951171875,219.9239959716797z"></path></g><g opacity="0.5" transform="matrix(1,0,0,1,0,0)"><path fill="url(#__lottie_element_6854)" fill-opacity="1" d=" M104.80000305175781,192.40699768066406 C104.80000305175781,192.40699768066406 104.80000305175781,230.32699584960938 104.80000305175781,230.32699584960938 C77.20999908447266,232.7270050048828 40.4900016784668,234.26699829101562 0.17000000178813934,234.26699829101562 C-1.8799999952316284,234.26699829101562 -3.9100000858306885,234.26699829101562 -5.940000057220459,234.2469940185547 C-5.940000057220459,234.2469940185547 -5.940000057220459,192.40699768066406 -5.940000057220459,192.40699768066406 C-5.940000057220459,192.40699768066406 104.80000305175781,192.40699768066406 104.80000305175781,192.40699768066406z"></path></g><g opacity="1" transform="matrix(1,0,0,1,0,0)"><g opacity="1" transform="matrix(1,0,0,1,0,0)"><path fill="rgb(130,62,38)" fill-opacity="1" d=" M-145.60499572753906,175.09100341796875 C-145.60499572753906,175.09100341796875 -145.60499572753906,190.53199768066406 -145.60499572753906,190.53199768066406 C-145.60499572753906,197.45399475097656 -80.33999633789062,203.06500244140625 0.16899999976158142,203.06500244140625 C80.6780014038086,203.06500244140625 145.9429931640625,197.45399475097656 145.9429931640625,190.53199768066406 C145.9429931640625,190.53199768066406 145.9429931640625,175.09100341796875 145.9429931640625,175.09100341796875 C145.9429931640625,175.09100341796875 -145.60499572753906,175.09100341796875 -145.60499572753906,175.09100341796875z"></path></g></g><g opacity="0.5" transform="matrix(1,0,0,1,0,0)"><path fill="url(#__lottie_element_6855)" fill-opacity="1" d=" M93.80000305175781,175.08700561523438 C93.80000305175781,175.08700561523438 93.80000305175781,200.14700317382812 93.80000305175781,200.14700317382812 C68.47000122070312,201.9669952392578 35.81999969482422,203.06700134277344 0.17000000178813934,203.06700134277344 C-5.619999885559082,203.06700134277344 -11.329999923706055,203.03700256347656 -16.940000534057617,202.98699951171875 C-16.940000534057617,202.98699951171875 -16.940000534057617,175.08700561523438 -16.940000534057617,175.08700561523438 C-16.940000534057617,175.08700561523438 93.80000305175781,175.08700561523438 93.80000305175781,175.08700561523438z"></path></g><g opacity="1" transform="matrix(1,0,0,1,0,0)"><g opacity="1" transform="matrix(1,0,0,1,0,0)"><path stroke-linecap="round" stroke-linejoin="round" fill-opacity="0" stroke="rgb(58,25,12)" stroke-opacity="1" stroke-width="8" d=" M-145.60499572753906,175.09100341796875 C-145.60499572753906,175.09100341796875 -145.60499572753906,190.53199768066406 -145.60499572753906,190.53199768066406 C-145.60499572753906,197.45399475097656 -80.33999633789062,203.06500244140625 0.16899999976158142,203.06500244140625 C80.6780014038086,203.06500244140625 145.9429931640625,197.45399475097656 145.9429931640625,190.53199768066406 C145.9429931640625,190.53199768066406 145.9429931640625,175.09100341796875 145.9429931640625,175.09100341796875 C145.9429931640625,175.09100341796875 -145.60499572753906,175.09100341796875 -145.60499572753906,175.09100341796875z"></path></g></g><g opacity="1" transform="matrix(1,0,0,1,0,0)"><path fill="rgb(84,40,16)" fill-opacity="1" d=" M145.9429931640625,175.09100341796875 C145.9429931640625,182.01300048828125 80.6780014038086,187.62399291992188 0.16899999976158142,187.62399291992188 C-80.33999633789062,187.62399291992188 -145.60499572753906,182.01300048828125 -145.60499572753906,175.09100341796875 C-145.60499572753906,168.16900634765625 -80.33999633789062,162.5570068359375 0.16899999976158142,162.5570068359375 C80.6780014038086,162.5570068359375 145.9429931640625,168.16900634765625 145.9429931640625,175.09100341796875z"></path></g></g><g opacity="1" transform="matrix(1,0,0,1,0,0)"><path stroke-linecap="round" stroke-linejoin="round" fill-opacity="0" stroke="rgb(84,40,20)" stroke-opacity="1" stroke-width="8" d=" M155.36599731445312,192.406005859375 C155.36599731445312,190.79400634765625 152.03900146484375,189.2480010986328 145.9429931640625,187.81700134277344 C145.9429931640625,187.81700134277344 145.9429931640625,175.09100341796875 145.9429931640625,175.09100341796875 C145.9429931640625,175.09100341796875 145.9429931640625,175.09100341796875 145.9429931640625,175.09100341796875 C145.94200134277344,168.16900634765625 80.677001953125,162.5570068359375 0.16899999976158142,162.5570068359375 C-80.33899688720703,162.5570068359375 -145.60400390625,168.16900634765625 -145.60499572753906,175.09100341796875 C-145.60499572753906,175.09100341796875 -145.60499572753906,175.09100341796875 -145.60499572753906,175.09100341796875 C-145.60499572753906,175.09100341796875 -145.60499572753906,187.81700134277344 -145.60499572753906,187.81700134277344 C-151.7010040283203,189.2480010986328 -155.0290069580078,190.79400634765625 -155.0290069580078,192.406005859375 C-155.0290069580078,192.406005859375 -155.0290069580078,192.406005859375 -155.0290069580078,192.406005859375 C-155.0290069580078,192.406005859375 -155.0290069580078,219.927001953125 -155.0290069580078,219.927001953125 C-155.0290069580078,227.2969970703125 -85.54399871826172,234.27099609375 0.16899999976158142,234.27099609375 C85.88200378417969,234.27099609375 155.36599731445312,227.2969970703125 155.36599731445312,219.927001953125 C155.36599731445312,219.927001953125 155.36599731445312,192.406005859375 155.36599731445312,192.406005859375 C155.36599731445312,192.406005859375 155.36599731445312,192.406005859375 155.36599731445312,192.406005859375z"></path></g><g opacity="0.5" transform="matrix(1,0,0,1,0,0)"><path stroke-linecap="round" stroke-linejoin="round" fill-opacity="0" stroke="rgb(183,131,104)" stroke-opacity="1" stroke-width="6" d=" M-35.95399856567383,209.54100036621094 C-17.325000762939453,210.43600463867188 8.890000343322754,210.29800415039062 34.43299865722656,209.447998046875"></path></g><g opacity="0.5" transform="matrix(1,0,0,1,0,0)"><path stroke-linecap="round" stroke-linejoin="round" fill-opacity="0" stroke="rgb(183,131,104)" stroke-opacity="1" stroke-width="6" d=" M-70.2040023803711,208.8070068359375 C-70.2040023803711,208.8070068359375 -65.68199920654297,209.1280059814453 -58.61000061035156,209.1280059814453"></path></g><g opacity="0.5" transform="matrix(1,0,0,1,0,0)"><path stroke-linecap="round" stroke-linejoin="round" fill-opacity="0" stroke="rgb(183,131,104)" stroke-opacity="1" stroke-width="6" d=" M-54.41999816894531,189.7270050048828 C-54.41999816894531,189.7270050048828 -21.367000579833984,191.66900634765625 14.37600040435791,190.62399291992188"></path></g><g opacity="1" transform="matrix(1,0,0,1,0,0)"><path fill="rgb(29,29,27)" fill-opacity="1" d=" M116.14199829101562,168.83799743652344 C116.14199829101562,165.38499450683594 64.21900177001953,162.58599853515625 0.16899999976158142,162.58599853515625 C-63.88100051879883,162.58599853515625 -115.80500030517578,165.38499450683594 -115.80500030517578,168.83799743652344 C-115.80500030517578,172.29100036621094 -63.88100051879883,175.09100341796875 0.16899999976158142,175.09100341796875 C64.21900177001953,175.09100341796875 116.14199829101562,172.29100036621094 116.14199829101562,168.83799743652344z"></path></g></g><g style="display: none;"><g><path></path><path stroke-linecap="round" stroke-linejoin="round" fill-opacity="0"></path></g><g><path></path></g><g><path fill="url(#__lottie_element_6849)"></path></g><g><path stroke-linecap="round" stroke-linejoin="round" fill-opacity="0"></path></g><g><path></path><path stroke-linecap="round" stroke-linejoin="round" fill-opacity="0"></path></g><g><path></path></g><g><path fill="url(#__lottie_element_6850)"></path></g><g><path stroke-linecap="round" stroke-linejoin="round" fill-opacity="0"></path></g><g><path></path><path stroke-linecap="round" stroke-linejoin="round" fill-opacity="0"></path></g><g><path></path></g></g><g style="display: block;" transform="matrix(-1,0,0,-1.024999976158142,256.1659851074219,262.03466796875)" opacity="1"><g opacity="1" transform="matrix(1,0,0,1,0,0)"><path fill="url(#__lottie_element_6844)" fill-opacity="1" d=" M139.72999572753906,-118.69300079345703 C138.19000244140625,-83.9729995727539 112.4800033569336,-54.222999572753906 83.16000366210938,-36.112998962402344 C68.51000213623047,-27.05299949645996 54.36000061035156,-20.913000106811523 43.880001068115234,-15.373000144958496 C33.40999984741211,-9.833000183105469 26.59000015258789,-4.873000144958496 26.59000015258789,1.8270000219345093 C26.59000015258789,1.8270000219345093 -26.25,1.8270000219345093 -26.25,1.8270000219345093 C-26.25,-11.572999954223633 -53.5099983215332,-17.993000030517578 -82.81999969482422,-36.112998962402344 C-112.13999938964844,-54.222999572753906 -137.85000610351562,-83.9729995727539 -139.38999938964844,-118.69300079345703 C-140.94000244140625,-153.4029998779297 -137.22999572753906,-162.7030029296875 -119.87999725341797,-165.6529998779297 C-85.87000274658203,-171.4429931640625 -48.4900016784668,-171.41299438476562 0.17000000178813934,-171.41299438476562 C48.83000183105469,-171.41299438476562 88.30999755859375,-171.4429931640625 120.22000122070312,-165.6529998779297 C137.5399932861328,-162.51300048828125 141.27999877929688,-153.4029998779297 139.72999572753906,-118.69300079345703z"></path></g><g opacity="1" transform="matrix(1,0,0,1,0,0)"><path fill="url(#__lottie_element_6845)" fill-opacity="1" d=" M120.22000122070312,169.3070068359375 C86.1989974975586,175.0970001220703 48.83000183105469,175.06700134277344 0.17000000178813934,175.06700134277344 C-48.5,175.06700134277344 -87.97000122070312,175.0970001220703 -119.87999725341797,169.3070068359375 C-137.1999969482422,166.16700744628906 -140.94000244140625,157.0469970703125 -139.39999389648438,122.33699798583984 C-137.85000610351562,87.62699890136719 -112.13999938964844,57.867000579833984 -82.81999969482422,39.75699996948242 C-68.16999816894531,30.69700050354004 -54.02000045776367,24.566999435424805 -43.540000915527344,19.017000198364258 C-33.06999969482422,13.47700023651123 -26.25,8.527000427246094 -26.25,1.8270000219345093 C-26.25,1.8270000219345093 26.59000015258789,1.8270000219345093 26.59000015258789,1.8270000219345093 C26.59000015258789,15.217000007629395 53.849998474121094,21.636999130249023 83.16000366210938,39.75699996948242 C112.4800033569336,57.867000579833984 138.19000244140625,87.62699890136719 139.72999572753906,122.33699798583984 C141.27999877929688,157.0469970703125 137.57000732421875,166.3470001220703 120.22000122070312,169.3070068359375z"></path></g></g><g style="display: none;"><g><path fill="url(#__lottie_element_6839)"></path></g><g><path fill="url(#__lottie_element_6840)"></path></g></g><g style="display: block;" mask="url(#__lottie_element_6754)"><g clip-path="url(#__lottie_element_6765)" transform="matrix(1,0,0,1,0,4)" opacity="1"><g style="display: block;" transform="matrix(1,0,0,1.024999976158142,255.83200073242188,254.29029846191406)" opacity="1"><g opacity="1" transform="matrix(1,0,0,1,0,0)"><path fill="rgb(206,168,124)" fill-opacity="1" d=" M6.659999847412109,59.49700164794922 C4.605000019073486,108.35600280761719 17.97599983215332,124.06999969482422 32.375999450683594,136.6699981689453 C62.755001068115234,163.2519989013672 81.74700164794922,165.4409942626953 83.37999725341797,173.4669952392578 C58.9900016784668,175.07699584960938 32,175.06700134277344 0.17000000178813934,175.06700134277344 C-35.470001220703125,175.06700134277344 -75.08200073242188,175.66900634765625 -92.5999984741211,172.81700134277344 C-98.58200073242188,168.66900634765625 -72.52400207519531,159.81100463867188 -58.257999420166016,151.52200317382812 C-18.92099952697754,128.66700744628906 -8.510000228881836,112.5270004272461 -7.21999979019165,67.81700134277344 C-5.99399995803833,25.33300018310547 -19.610000610351562,4.9770002365112305 -28.530000686645508,-4.552999973297119 C-28.540000915527344,-4.552999973297119 -46.9900016784668,-16.792999267578125 -47.040000915527344,-16.822999954223633 C-57.66999816894531,-23.402999877929688 -64.98999786376953,-25.093000411987305 -82.81999969482422,-36.112998962402344 C-112.13999938964844,-54.222999572753906 -137.85000610351562,-74.21700286865234 -139.38999938964844,-108.93699645996094 C-139.38999938964844,-108.93699645996094 -130.67300415039062,-121.30799865722656 1.4329999685287476,-121.30899810791016 C129.06199645996094,-121.30999755859375 139.72999572753906,-108.93699645996094 139.72999572753906,-108.93699645996094 C138.19000244140625,-74.21700286865234 112.4800033569336,-54.222999572753906 83.16000366210938,-36.112998962402344 C68.51000213623047,-27.05299949645996 54.36000061035156,-20.913000106811523 43.880001068115234,-15.373000144958496 C36.59000015258789,-11.512999534606934 31.37299919128418,-7.980999946594238 27.06100082397461,-3.5869998931884766 C19.90399932861328,3.7070000171661377 8.307999610900879,20.334999084472656 6.659999847412109,59.49700164794922z"></path></g></g><g style="display: none;"><g><path></path></g></g><g style="display: none;"><g><path></path></g></g><g style="display: block;" mask="url(#__lottie_element_6794)"><g clip-path="url(#__lottie_element_6812)" transform="matrix(1,0,0,1.024999976158142,0,-6.399993896484375)" opacity="1"><g style="display: block;" transform="matrix(1,0,0,1,255.83201599121094,254.33200073242188)" opacity="1"><g opacity="0.1" transform="matrix(1,0,0,1,0,0)"><g opacity="1" transform="matrix(1,0,0,1,0,0)"><path fill="rgb(105,51,4)" fill-opacity="1" d=" M-69.48600006103516,-95.81600189208984 C-69.48600006103516,-93.77999877929688 -71.13600158691406,-92.12999725341797 -73.1719970703125,-92.12999725341797 C-75.20800018310547,-92.12999725341797 -76.85800170898438,-93.77999877929688 -76.85800170898438,-95.81600189208984 C-76.85800170898438,-97.85199737548828 -75.20800018310547,-99.50199890136719 -73.1719970703125,-99.50199890136719 C-71.13600158691406,-99.50199890136719 -69.48600006103516,-97.85199737548828 -69.48600006103516,-95.81600189208984z"></path></g><g opacity="1" transform="matrix(1,0,0,1,0,0)"><path fill="rgb(105,51,4)" fill-opacity="1" d=" M-18.367000579833984,-32.95399856567383 C-18.367000579833984,-30.917999267578125 -20.017000198364258,-29.268999099731445 -22.05299949645996,-29.268999099731445 C-24.089000701904297,-29.268999099731445 -25.73900032043457,-30.917999267578125 -25.73900032043457,-32.95399856567383 C-25.73900032043457,-34.9900016784668 -24.089000701904297,-36.63999938964844 -22.05299949645996,-36.63999938964844 C-20.017000198364258,-36.63999938964844 -18.367000579833984,-34.9900016784668 -18.367000579833984,-32.95399856567383z"></path></g><g opacity="1" transform="matrix(1,0,0,1,0,0)"><path fill="rgb(105,51,4)" fill-opacity="1" d=" M-46.165000915527344,-60.69200134277344 C-46.165000915527344,-58.65599822998047 -47.814998626708984,-57.00699996948242 -49.85100173950195,-57.00699996948242 C-51.887001037597656,-57.00699996948242 -53.5369987487793,-58.65599822998047 -53.5369987487793,-60.69200134277344 C-53.5369987487793,-62.72800064086914 -51.887001037597656,-64.37799835205078 -49.85100173950195,-64.37799835205078 C-47.814998626708984,-64.37799835205078 -46.165000915527344,-62.72800064086914 -46.165000915527344,-60.69200134277344z"></path></g><g opacity="1" transform="matrix(1,0,0,1,0,0)"><path fill="rgb(105,51,4)" fill-opacity="1" d=" M-86.85299682617188,-63.73699951171875 C-86.85299682617188,-61.70100021362305 -88.50299835205078,-60.05099868774414 -90.53900146484375,-60.05099868774414 C-92.57499694824219,-60.05099868774414 -94.2239990234375,-61.70100021362305 -94.2239990234375,-63.73699951171875 C-94.2239990234375,-65.77300262451172 -92.57499694824219,-67.4219970703125 -90.53900146484375,-67.4219970703125 C-88.50299835205078,-67.4219970703125 -86.85299682617188,-65.77300262451172 -86.85299682617188,-63.73699951171875z"></path></g><g opacity="1" transform="matrix(1,0,0,1,0,0)"><path fill="rgb(105,51,4)" fill-opacity="1" d=" M-16.336999893188477,-106.44499969482422 C-16.336999893188477,-104.40899658203125 -17.986000061035156,-102.75900268554688 -20.02199935913086,-102.75900268554688 C-22.058000564575195,-102.75900268554688 -23.70800018310547,-104.40899658203125 -23.70800018310547,-106.44499969482422 C-23.70800018310547,-108.48100280761719 -22.058000564575195,-110.12999725341797 -20.02199935913086,-110.12999725341797 C-17.986000061035156,-110.12999725341797 -16.336999893188477,-108.48100280761719 -16.336999893188477,-106.44499969482422z"></path></g><g opacity="1" transform="matrix(1,0,0,1,0,0)"><path fill="rgb(105,51,4)" fill-opacity="1" d=" M-112.11900329589844,-103.18699645996094 C-112.11900329589844,-101.1510009765625 -113.76899719238281,-99.50199890136719 -115.80500030517578,-99.50199890136719 C-117.84100341796875,-99.50199890136719 -119.49099731445312,-101.1510009765625 -119.49099731445312,-103.18699645996094 C-119.49099731445312,-105.2229995727539 -117.84100341796875,-106.87300109863281 -115.80500030517578,-106.87300109863281 C-113.76899719238281,-106.87300109863281 -112.11900329589844,-105.2229995727539 -112.11900329589844,-103.18699645996094z"></path></g><g opacity="1" transform="matrix(1,0,0,1,0,0)"><path fill="rgb(105,51,4)" fill-opacity="1" d=" M6.611000061035156,-76.52999877929688 C6.611000061035156,-74.49400329589844 4.960999965667725,-72.84400177001953 2.924999952316284,-72.84400177001953 C0.8889999985694885,-72.84400177001953 -0.7599999904632568,-74.49400329589844 -0.7599999904632568,-76.52999877929688 C-0.7599999904632568,-78.56600189208984 0.8889999985694885,-80.21600341796875 2.924999952316284,-80.21600341796875 C4.960999965667725,-80.21600341796875 6.611000061035156,-78.56600189208984 6.611000061035156,-76.52999877929688z"></path></g><g opacity="1" transform="matrix(1,0,0,1,0,0)"><path fill="rgb(105,51,4)" fill-opacity="1" d=" M39.37799835205078,-102.75900268554688 C39.37799835205078,-100.7229995727539 37.729000091552734,-99.072998046875 35.69300079345703,-99.072998046875 C33.65700149536133,-99.072998046875 32.00699996948242,-100.7229995727539 32.00699996948242,-102.75900268554688 C32.00699996948242,-104.79499816894531 33.65700149536133,-106.44499969482422 35.69300079345703,-106.44499969482422 C37.729000091552734,-106.44499969482422 39.37799835205078,-104.79499816894531 39.37799835205078,-102.75900268554688z"></path></g><g opacity="1" transform="matrix(1,0,0,1,0,0)"><path fill="rgb(105,51,4)" fill-opacity="1" d=" M27.232999801635742,-32.95399856567383 C27.232999801635742,-30.917999267578125 25.58300018310547,-29.268999099731445 23.547000885009766,-29.268999099731445 C21.51099967956543,-29.268999099731445 19.861000061035156,-30.917999267578125 19.861000061035156,-32.95399856567383 C19.861000061035156,-34.9900016784668 21.51099967956543,-36.63999938964844 23.547000885009766,-36.63999938964844 C25.58300018310547,-36.63999938964844 27.232999801635742,-34.9900016784668 27.232999801635742,-32.95399856567383z"></path></g><g opacity="1" transform="matrix(1,0,0,1,0,0)"><path fill="rgb(105,51,4)" fill-opacity="1" d=" M76.95700073242188,-60.69200134277344 C76.95700073242188,-58.65599822998047 75.30699920654297,-57.00699996948242 73.27100372314453,-57.00699996948242 C71.23500061035156,-57.00699996948242 69.58499908447266,-58.65599822998047 69.58499908447266,-60.69200134277344 C69.58499908447266,-62.72800064086914 71.23500061035156,-64.37799835205078 73.27100372314453,-64.37799835205078 C75.30699920654297,-64.37799835205078 76.95700073242188,-62.72800064086914 76.95700073242188,-60.69200134277344z"></path></g><g opacity="1" transform="matrix(1,0,0,1,0,0)"><path fill="rgb(105,51,4)" fill-opacity="1" d=" M86.80400085449219,-109.61599731445312 C86.80400085449219,-107.58000183105469 85.15399932861328,-105.93000030517578 83.11799621582031,-105.93000030517578 C81.08200073242188,-105.93000030517578 79.43299865722656,-107.58000183105469 79.43299865722656,-109.61599731445312 C79.43299865722656,-111.6520004272461 81.08200073242188,-113.302001953125 83.11799621582031,-113.302001953125 C85.15399932861328,-113.302001953125 86.80400085449219,-111.6520004272461 86.80400085449219,-109.61599731445312z"></path></g><g opacity="1" transform="matrix(1,0,0,1,0,0)"><path fill="rgb(105,51,4)" fill-opacity="1" d=" M108.48600006103516,-86.55599975585938 C108.48600006103516,-84.5199966430664 106.83599853515625,-82.87000274658203 104.80000305175781,-82.87000274658203 C102.76399993896484,-82.87000274658203 101.11399841308594,-84.5199966430664 101.11399841308594,-86.55599975585938 C101.11399841308594,-88.59200286865234 102.76399993896484,-90.24199676513672 104.80000305175781,-90.24199676513672 C106.83599853515625,-90.24199676513672 108.48600006103516,-88.59200286865234 108.48600006103516,-86.55599975585938z"></path></g></g></g><g style="display: block;" transform="matrix(-1,0,0,-1,256.1720275878906,301.8340148925781)" opacity="1"><g opacity="0.1" transform="matrix(1,0,0,1,0,0)"><g opacity="1" transform="matrix(1,0,0,1,0,0)"><path fill="rgb(105,51,4)" fill-opacity="1" d=" M-69.48600006103516,-95.81600189208984 C-69.48600006103516,-93.77999877929688 -71.13600158691406,-92.12999725341797 -73.1719970703125,-92.12999725341797 C-75.20800018310547,-92.12999725341797 -76.85800170898438,-93.77999877929688 -76.85800170898438,-95.81600189208984 C-76.85800170898438,-97.85199737548828 -75.20800018310547,-99.50199890136719 -73.1719970703125,-99.50199890136719 C-71.13600158691406,-99.50199890136719 -69.48600006103516,-97.85199737548828 -69.48600006103516,-95.81600189208984z"></path></g><g opacity="1" transform="matrix(1,0,0,1,0,0)"><path fill="rgb(105,51,4)" fill-opacity="1" d=" M-18.367000579833984,-32.95399856567383 C-18.367000579833984,-30.917999267578125 -20.017000198364258,-29.268999099731445 -22.05299949645996,-29.268999099731445 C-24.089000701904297,-29.268999099731445 -25.73900032043457,-30.917999267578125 -25.73900032043457,-32.95399856567383 C-25.73900032043457,-34.9900016784668 -24.089000701904297,-36.63999938964844 -22.05299949645996,-36.63999938964844 C-20.017000198364258,-36.63999938964844 -18.367000579833984,-34.9900016784668 -18.367000579833984,-32.95399856567383z"></path></g><g opacity="1" transform="matrix(1,0,0,1,0,0)"><path fill="rgb(105,51,4)" fill-opacity="1" d=" M-46.165000915527344,-60.69200134277344 C-46.165000915527344,-58.65599822998047 -47.814998626708984,-57.00699996948242 -49.85100173950195,-57.00699996948242 C-51.887001037597656,-57.00699996948242 -53.5369987487793,-58.65599822998047 -53.5369987487793,-60.69200134277344 C-53.5369987487793,-62.72800064086914 -51.887001037597656,-64.37799835205078 -49.85100173950195,-64.37799835205078 C-47.814998626708984,-64.37799835205078 -46.165000915527344,-62.72800064086914 -46.165000915527344,-60.69200134277344z"></path></g><g opacity="1" transform="matrix(1,0,0,1,0,0)"><path fill="rgb(105,51,4)" fill-opacity="1" d=" M-86.85299682617188,-63.73699951171875 C-86.85299682617188,-61.70100021362305 -88.50299835205078,-60.05099868774414 -90.53900146484375,-60.05099868774414 C-92.57499694824219,-60.05099868774414 -94.2239990234375,-61.70100021362305 -94.2239990234375,-63.73699951171875 C-94.2239990234375,-65.77300262451172 -92.57499694824219,-67.4219970703125 -90.53900146484375,-67.4219970703125 C-88.50299835205078,-67.4219970703125 -86.85299682617188,-65.77300262451172 -86.85299682617188,-63.73699951171875z"></path></g><g opacity="1" transform="matrix(1,0,0,1,0,0)"><path fill="rgb(105,51,4)" fill-opacity="1" d=" M-16.336999893188477,-106.44499969482422 C-16.336999893188477,-104.40899658203125 -17.986000061035156,-102.75900268554688 -20.02199935913086,-102.75900268554688 C-22.058000564575195,-102.75900268554688 -23.70800018310547,-104.40899658203125 -23.70800018310547,-106.44499969482422 C-23.70800018310547,-108.48100280761719 -22.058000564575195,-110.12999725341797 -20.02199935913086,-110.12999725341797 C-17.986000061035156,-110.12999725341797 -16.336999893188477,-108.48100280761719 -16.336999893188477,-106.44499969482422z"></path></g><g opacity="1" transform="matrix(1,0,0,1,0,0)"><path fill="rgb(105,51,4)" fill-opacity="1" d=" M-112.11900329589844,-103.18699645996094 C-112.11900329589844,-101.1510009765625 -113.76899719238281,-99.50199890136719 -115.80500030517578,-99.50199890136719 C-117.84100341796875,-99.50199890136719 -119.49099731445312,-101.1510009765625 -119.49099731445312,-103.18699645996094 C-119.49099731445312,-105.2229995727539 -117.84100341796875,-106.87300109863281 -115.80500030517578,-106.87300109863281 C-113.76899719238281,-106.87300109863281 -112.11900329589844,-105.2229995727539 -112.11900329589844,-103.18699645996094z"></path></g><g opacity="1" transform="matrix(1,0,0,1,0,0)"><path fill="rgb(105,51,4)" fill-opacity="1" d=" M6.611000061035156,-76.52999877929688 C6.611000061035156,-74.49400329589844 4.960999965667725,-72.84400177001953 2.924999952316284,-72.84400177001953 C0.8889999985694885,-72.84400177001953 -0.7599999904632568,-74.49400329589844 -0.7599999904632568,-76.52999877929688 C-0.7599999904632568,-78.56600189208984 0.8889999985694885,-80.21600341796875 2.924999952316284,-80.21600341796875 C4.960999965667725,-80.21600341796875 6.611000061035156,-78.56600189208984 6.611000061035156,-76.52999877929688z"></path></g><g opacity="1" transform="matrix(1,0,0,1,0,0)"><path fill="rgb(105,51,4)" fill-opacity="1" d=" M39.37799835205078,-102.75900268554688 C39.37799835205078,-100.7229995727539 37.729000091552734,-99.072998046875 35.69300079345703,-99.072998046875 C33.65700149536133,-99.072998046875 32.00699996948242,-100.7229995727539 32.00699996948242,-102.75900268554688 C32.00699996948242,-104.79499816894531 33.65700149536133,-106.44499969482422 35.69300079345703,-106.44499969482422 C37.729000091552734,-106.44499969482422 39.37799835205078,-104.79499816894531 39.37799835205078,-102.75900268554688z"></path></g><g opacity="1" transform="matrix(1,0,0,1,0,0)"><path fill="rgb(105,51,4)" fill-opacity="1" d=" M27.232999801635742,-32.95399856567383 C27.232999801635742,-30.917999267578125 25.58300018310547,-29.268999099731445 23.547000885009766,-29.268999099731445 C21.51099967956543,-29.268999099731445 19.861000061035156,-30.917999267578125 19.861000061035156,-32.95399856567383 C19.861000061035156,-34.9900016784668 21.51099967956543,-36.63999938964844 23.547000885009766,-36.63999938964844 C25.58300018310547,-36.63999938964844 27.232999801635742,-34.9900016784668 27.232999801635742,-32.95399856567383z"></path></g><g opacity="1" transform="matrix(1,0,0,1,0,0)"><path fill="rgb(105,51,4)" fill-opacity="1" d=" M76.95700073242188,-60.69200134277344 C76.95700073242188,-58.65599822998047 75.30699920654297,-57.00699996948242 73.27100372314453,-57.00699996948242 C71.23500061035156,-57.00699996948242 69.58499908447266,-58.65599822998047 69.58499908447266,-60.69200134277344 C69.58499908447266,-62.72800064086914 71.23500061035156,-64.37799835205078 73.27100372314453,-64.37799835205078 C75.30699920654297,-64.37799835205078 76.95700073242188,-62.72800064086914 76.95700073242188,-60.69200134277344z"></path></g><g opacity="1" transform="matrix(1,0,0,1,0,0)"><path fill="rgb(105,51,4)" fill-opacity="1" d=" M86.80400085449219,-109.61599731445312 C86.80400085449219,-107.58000183105469 85.15399932861328,-105.93000030517578 83.11799621582031,-105.93000030517578 C81.08200073242188,-105.93000030517578 79.43299865722656,-107.58000183105469 79.43299865722656,-109.61599731445312 C79.43299865722656,-111.6520004272461 81.08200073242188,-113.302001953125 83.11799621582031,-113.302001953125 C85.15399932861328,-113.302001953125 86.80400085449219,-111.6520004272461 86.80400085449219,-109.61599731445312z"></path></g><g opacity="1" transform="matrix(1,0,0,1,0,0)"><path fill="rgb(105,51,4)" fill-opacity="1" d=" M108.48600006103516,-86.55599975585938 C108.48600006103516,-84.5199966430664 106.83599853515625,-82.87000274658203 104.80000305175781,-82.87000274658203 C102.76399993896484,-82.87000274658203 101.11399841308594,-84.5199966430664 101.11399841308594,-86.55599975585938 C101.11399841308594,-88.59200286865234 102.76399993896484,-90.24199676513672 104.80000305175781,-90.24199676513672 C106.83599853515625,-90.24199676513672 108.48600006103516,-88.59200286865234 108.48600006103516,-86.55599975585938z"></path></g></g></g><g style="display: block;" transform="matrix(1,0,0,1,255.83200073242188,254.3319854736328)" opacity="1"><g opacity="0.1" transform="matrix(1,0,0,1,0,0)"><g opacity="0" transform="matrix(1,0,0,1,66.875,80.25)"><path fill="rgb(105,51,4)" fill-opacity="1" d=" M-69.48600006103516,-95.81600189208984 C-69.48600006103516,-93.77999877929688 -71.13600158691406,-92.12999725341797 -73.1719970703125,-92.12999725341797 C-75.20800018310547,-92.12999725341797 -76.85800170898438,-93.77999877929688 -76.85800170898438,-95.81600189208984 C-76.85800170898438,-97.85199737548828 -75.20800018310547,-99.50199890136719 -73.1719970703125,-99.50199890136719 C-71.13600158691406,-99.50199890136719 -69.48600006103516,-97.85199737548828 -69.48600006103516,-95.81600189208984z"></path></g><g opacity="0.20095" transform="matrix(1,0,0,1,78.5790023803711,200.71299743652344)"><path fill="rgb(105,51,4)" fill-opacity="1" d=" M-69.48600006103516,-95.81600189208984 C-69.48600006103516,-93.77999877929688 -71.13600158691406,-92.12999725341797 -73.1719970703125,-92.12999725341797 C-75.20800018310547,-92.12999725341797 -76.85800170898438,-93.77999877929688 -76.85800170898438,-95.81600189208984 C-76.85800170898438,-97.85199737548828 -75.20800018310547,-99.50199890136719 -73.1719970703125,-99.50199890136719 C-71.13600158691406,-99.50199890136719 -69.48600006103516,-97.85199737548828 -69.48600006103516,-95.81600189208984z"></path></g><g opacity="1" transform="matrix(1,0,0,1,72.56500244140625,129.05899047851562)"><path fill="rgb(105,51,4)" fill-opacity="1" d=" M-69.48600006103516,-95.81600189208984 C-69.48600006103516,-93.77999877929688 -71.13600158691406,-92.12999725341797 -73.1719970703125,-92.12999725341797 C-75.20800018310547,-92.12999725341797 -76.85800170898438,-93.77999877929688 -76.85800170898438,-95.81600189208984 C-76.85800170898438,-97.85199737548828 -75.20800018310547,-99.50199890136719 -73.1719970703125,-99.50199890136719 C-71.13600158691406,-99.50199890136719 -69.48600006103516,-97.85199737548828 -69.48600006103516,-95.81600189208984z"></path></g></g></g><g style="display: block;" transform="matrix(1,0,0,1,255.83200073242188,254.33201599121094)" opacity="1"><g opacity="0.5" transform="matrix(1,0,0,1,0,0)"><path fill="rgb(115,70,23)" fill-opacity="1" d=" M6.659999847412109,59.49700164794922 C4.599999904632568,108.35700225830078 17.979999542236328,124.06700134277344 32.380001068115234,136.66700744628906 C62.7599983215332,163.2469940185547 81.75,165.43699645996094 83.37999725341797,173.4669952392578 C60.58000183105469,174.9669952392578 35.5,175.0570068359375 6.329999923706055,175.06700134277344 C21.1200008392334,173.60699462890625 34.17499923706055,165.66200256347656 24.55500030517578,154.58200073242188 C4.925000190734863,131.98199462890625 0.42500001192092896,107.48300170898438 -0.7599999904632568,76.68499755859375 C-2.252000093460083,37.89799880981445 -12.90999984741211,21.82699966430664 -13.300000190734863,21.386999130249023 C-13.3100004196167,21.37700080871582 -13.3100004196167,21.37700080871582 -13.3100004196167,21.37700080871582 C-17.760000228881836,8.57699966430664 -23.809999465942383,0.4970000088214874 -28.530000686645508,-4.552999973297119 C-28.540000915527344,-4.552999973297119 -28.540000915527344,-4.563000202178955 -28.540000915527344,-4.563000202178955 C-31.600000381469727,-8.593000411987305 -37.2400016784668,-11.793000221252441 -37.290000915527344,-11.822999954223633 C-47.91999816894531,-18.402999877929688 -64.98999786376953,-25.093000411987305 -82.81999969482422,-36.112998962402344 C-85.45999908447266,-37.74300003051758 -88.05999755859375,-39.4630012512207 -90.62000274658203,-41.28300094604492 C-59.71799850463867,-32.362998962402344 -7.738999843597412,-57.00600051879883 12,-88.27300262451172 C30.871999740600586,-118.16699981689453 13.539999961853027,-192.06500244140625 13.539999961853027,-192.06500244140625 C68.6969985961914,-192.06500244140625 126.36100006103516,-127.18699645996094 139.72999572753906,-118.69300079345703 C138.19000244140625,-83.9729995727539 112.4800033569336,-54.222999572753906 83.16000366210938,-36.112998962402344 C68.51000213623047,-27.05299949645996 54.36000061035156,-20.913000106811523 43.880001068115234,-15.373000144958496 C36.59000015258789,-11.512999534606934 31.3700008392334,-7.982999801635742 27.059999465942383,-3.5829999446868896 C19.899999618530273,3.7070000171661377 8.3100004196167,20.336999893188477 6.659999847412109,59.49700164794922z"></path></g></g></g></g><g style="display: none;" mask="url(#__lottie_element_6774)"><g><g><path></path></g></g></g><g style="display: none;"><g><path></path></g></g></g></g><g style="display: block;" transform="matrix(1,0,0,1.024999976158142,255.83200073242188,258.2903137207031)" opacity="1"><g opacity="0.1" transform="matrix(1,0,0,1,0,0)"><path fill="rgb(29,29,27)" fill-opacity="1" d=" M120.22000122070312,169.3070068359375 C86.19999694824219,175.0970001220703 48.83000183105469,175.06700134277344 0.17000000178813934,175.06700134277344 C-48.5,175.06700134277344 -87.97000122070312,175.0970001220703 -119.87999725341797,169.3070068359375 C-137.1999969482422,166.16700744628906 -140.94000244140625,157.0469970703125 -139.39999389648438,122.33699798583984 C-137.85000610351562,87.62699890136719 -112.13999938964844,57.867000579833984 -82.81999969482422,39.75699996948242 C-80.37000274658203,38.23699951171875 -77.93000030517578,36.80699920654297 -75.5199966430664,35.446998596191406 C-112.97000122070312,57.39699935913086 -144.83599853515625,114.47799682617188 -92.59600067138672,135.1479949951172 C-21.856000900268555,163.13800048828125 109.47599792480469,151.21299743652344 110.02999877929688,102.18699645996094 C110.5469970703125,56.41299819946289 65.7300033569336,30.19700050354004 63.119998931884766,28.66699981689453 C69.47000122070312,31.87700080871582 76.26000213623047,35.48699951171875 83.16000366210938,39.75699996948242 C112.4800033569336,57.867000579833984 138.19000244140625,87.62699890136719 139.72999572753906,122.33699798583984 C141.27999877929688,157.0469970703125 137.57000732421875,166.3470001220703 120.22000122070312,169.3070068359375z"></path></g><g opacity="0.1" transform="matrix(1,0,0,1,0,0)"><path fill="rgb(29,29,27)" fill-opacity="1" d=" M120.22000122070312,-165.97000122070312 C86.19999694824219,-171.75999450683594 48.83000183105469,-171.72999572753906 0.17000000178813934,-171.72999572753906 C-48.5,-171.72999572753906 -87.97000122070312,-171.75999450683594 -119.87999725341797,-165.97000122070312 C-137.1999969482422,-162.8300018310547 -140.94000244140625,-153.7100067138672 -139.39999389648438,-119 C-137.85000610351562,-84.29000091552734 -112.13999938964844,-54.529998779296875 -82.81999969482422,-36.41999816894531 C-80.37000274658203,-34.900001525878906 -77.93000030517578,-33.470001220703125 -75.5199966430664,-32.11000061035156 C-112.97000122070312,-54.060001373291016 -144.83599853515625,-111.14199829101562 -92.59600067138672,-131.81199645996094 C-21.856000900268555,-159.802001953125 109.47599792480469,-147.87600708007812 110.02999877929688,-98.8499984741211 C110.5469970703125,-53.07600021362305 65.7300033569336,-26.860000610351562 63.119998931884766,-25.329999923706055 C69.47000122070312,-28.540000915527344 76.26000213623047,-32.150001525878906 83.16000366210938,-36.41999816894531 C112.4800033569336,-54.529998779296875 138.19000244140625,-84.29000091552734 139.72999572753906,-119 C141.27999877929688,-153.7100067138672 137.57000732421875,-163.00999450683594 120.22000122070312,-165.97000122070312z"></path></g><g opacity="0.2" transform="matrix(1,0,0,1,0,0)"><path fill="rgb(255,255,255)" fill-opacity="1" d=" M4.261000156402588,-63.58700180053711 C-30.368000030517578,-65.3010025024414 -66.63899993896484,-52.00600051879883 -53.68199920654297,-35.909000396728516 C-38.5629997253418,-17.125 -19.823999404907227,-9.930000305175781 -23.16699981689453,5 C-26.100000381469727,18.10099983215332 -60.53900146484375,28.756000518798828 -58.138999938964844,47.612998962402344 C-55.32500076293945,69.7229995727539 27.917999267578125,69.55500030517578 50.547000885009766,58.24100112915039 C73.1760025024414,46.926998138427734 43.89799880981445,31.934999465942383 33.74700164794922,21.784000396728516 C24.40399932861328,12.440999984741211 14.119000434875488,0.9980000257492065 31.690000534057617,-12.843999862670898 C50.56800079345703,-27.71500015258789 89.62699890136719,-59.361000061035156 4.261000156402588,-63.58700180053711z"></path></g></g><g style="display: none;"><g><path></path></g><g><path></path></g><g><path></path></g></g><g style="display: block;" transform="matrix(1,0,0,1,255.83200073242188,258.3320007324219)" opacity="1"><g opacity="1" transform="matrix(1,0,0,1,0,0)"><path stroke-linecap="round" stroke-linejoin="round" fill-opacity="0" stroke="rgb(158,161,173)" stroke-opacity="1" stroke-width="8" d=" M-134.10699462890625,-163.7449951171875 C-139.2760009765625,-155.0469970703125 -140.35800170898438,-140.35899353027344 -139.39500427246094,-118.69100189208984 C-137.8520050048828,-83.97699737548828 -112.13700103759766,-54.22200012207031 -82.822998046875,-36.108001708984375 C-53.50899887084961,-17.993999481201172 -26.250999450683594,-11.574000358581543 -26.250999450683594,1.8229999542236328 C-26.250999450683594,1.8229999542236328 -26.253000259399414,1.8229999542236328 -26.253000259399414,1.8229999542236328 C-26.253000259399414,15.220000267028809 -53.5099983215332,21.641000747680664 -82.8239974975586,39.755001068115234 C-112.13800048828125,57.86899948120117 -137.85299682617188,87.6240005493164 -139.39599609375,122.33799743652344 C-140.34800720214844,143.7689971923828 -139.28700256347656,158.3000030517578 -134.26100158691406,167.02200317382812"></path></g><g opacity="1" transform="matrix(1,0,0,1,0,0)"><path stroke-linecap="round" stroke-linejoin="round" fill-opacity="0" stroke="rgb(158,161,173)" stroke-opacity="1" stroke-width="8" d=" M134.1060028076172,167.9459991455078 C139.56700134277344,159.32400512695312 140.7169952392578,144.47300720214844 139.73300170898438,122.33799743652344 C138.19000244140625,87.6240005493164 112.47599792480469,57.86899948120117 83.16200256347656,39.755001068115234 C53.847999572753906,21.641000747680664 26.59000015258789,15.220000267028809 26.59000015258789,1.8229999542236328 C26.59000015258789,1.8229999542236328 26.591999053955078,1.8229999542236328 26.591999053955078,1.8229999542236328 C26.591999053955078,-11.574000358581543 53.8489990234375,-17.993999481201172 83.16300201416016,-36.108001708984375 C112.47699737548828,-54.22200012207031 138.19200134277344,-83.97699737548828 139.73500061035156,-118.69100189208984 C140.7899932861328,-142.44400024414062 139.3730010986328,-157.7209930419922 132.82400512695312,-166.0070037841797"></path></g><g opacity="1" transform="matrix(1,0,0,1,0,0)"><g opacity="1" transform="matrix(0.9100000262260437,0,0,1.0099999904632568,20,0)"><path stroke-linecap="round" stroke-linejoin="round" fill-opacity="0" stroke="rgb(255,255,255)" stroke-opacity="1" stroke-width="6" d=" M-63.74399948120117,29.145999908447266 C-67.49400329589844,31.055999755859375 -71.39199829101562,33.11000061035156 -75.37100219726562,35.35599899291992"></path></g><g opacity="1" transform="matrix(0.9100000262260437,0,0,1.0099999904632568,20,0)"><path stroke-linecap="round" stroke-linejoin="round" fill-opacity="0" stroke="rgb(255,255,255)" stroke-opacity="1" stroke-width="6" d=" M-82.8239974975586,39.755001068115234 C-84.10299682617188,40.54600143432617 -85.3759994506836,41.358001708984375 -86.63999938964844,42.19300079345703"></path></g><g opacity="1" transform="matrix(1,0,0,1,25,0)"><path stroke-linecap="round" stroke-linejoin="round" fill-opacity="0" stroke="rgb(255,255,255)" stroke-opacity="1" stroke-width="6" d=" M-138.9499969482422,-146.97799682617188 C-139.40899658203125,-143.05999755859375 -139.64599609375,-138.68099975585938 -139.6999969482422,-133.822998046875"></path></g><g opacity="1" transform="matrix(1,0,0,1,25,0)"><path stroke-linecap="round" stroke-linejoin="round" fill-opacity="0" stroke="rgb(255,255,255)" stroke-opacity="1" stroke-width="6" d=" M-139.4770050048828,-120.64299774169922 C-139.45199584960938,-119.9990005493164 -139.4239959716797,-119.3479995727539 -139.39500427246094,-118.69100189208984 C-139.35899353027344,-117.8759994506836 -139.3090057373047,-117.06400299072266 -139.2469940185547,-116.25499725341797"></path></g></g></g><g style="display: none;"><g><path></path><path stroke-linecap="round" stroke-linejoin="round" fill-opacity="0"></path></g><g><path></path></g><g><path fill="url(#__lottie_element_6743)"></path></g><g><path stroke-linecap="round" stroke-linejoin="round" fill-opacity="0"></path></g><g><path></path><path stroke-linecap="round" stroke-linejoin="round" fill-opacity="0"></path></g><g><path></path></g><g><path fill="url(#__lottie_element_6744)"></path></g><g><path stroke-linecap="round" stroke-linejoin="round" fill-opacity="0"></path></g><g><path></path><path stroke-linecap="round" stroke-linejoin="round" fill-opacity="0"></path></g></g><g clip-path="url(#__lottie_element_6688)" style="display: block;" transform="matrix(1,0,0,1,0,0)" opacity="1"><g style="display: block;" transform="matrix(1,0,0,1,256,256)" opacity="1"><g opacity="1" transform="matrix(1,0,0,1,0,0)"><path stroke-linecap="round" stroke-linejoin="round" fill-opacity="0" stroke="rgb(155,116,69)" stroke-opacity="1" stroke-width="5" d="M0 0"></path></g></g><g style="display: none;"><g><path stroke-linecap="round" stroke-linejoin="round" fill-opacity="0"></path></g></g><g style="display: none;"><g><path stroke-linecap="round" stroke-linejoin="round" fill-opacity="0"></path></g></g><g style="display: none;"><g><path stroke-linecap="round" stroke-linejoin="round" fill-opacity="0"></path></g></g><g style="display: none;"><g><path stroke-linecap="round" stroke-linejoin="round" fill-opacity="0"></path></g></g><g style="display: none;"><g><path stroke-linecap="round" stroke-linejoin="round" fill-opacity="0"></path></g></g><g style="display: none;"><g><path stroke-linecap="round" stroke-linejoin="round" fill-opacity="0"></path></g></g><g style="display: none;"><g><path stroke-linecap="round" stroke-linejoin="round" fill-opacity="0"></path></g></g><g style="display: none;"><g><path stroke-linecap="round" stroke-linejoin="round" fill-opacity="0"></path></g></g><g style="display: none;"><g><path stroke-linecap="round" stroke-linejoin="round" fill-opacity="0"></path></g></g><g style="display: none;"><g><path stroke-linecap="round" stroke-linejoin="round" fill-opacity="0"></path></g></g><g style="display: none;"><g><path stroke-linecap="round" stroke-linejoin="round" fill-opacity="0"></path></g></g><g style="display: none;"><g><path stroke-linecap="round" stroke-linejoin="round" fill-opacity="0"></path></g></g><g style="display: none;"><g><path stroke-linecap="round" stroke-linejoin="round" fill-opacity="0"></path></g></g><g style="display: none;"><g><path stroke-linecap="round" stroke-linejoin="round" fill-opacity="0"></path></g></g></g><g clip-path="url(#__lottie_element_6639)" style="display: block;" transform="matrix(-1,0,0,1,512,0)" opacity="1"><g style="display: block;" transform="matrix(1,0,0,1,256,256)" opacity="1"><g opacity="1" transform="matrix(1,0,0,1,0,0)"><path stroke-linecap="round" stroke-linejoin="round" fill-opacity="0" stroke="rgb(206,168,124)" stroke-opacity="1" stroke-width="5" d=" M35.08599853515625,129.9759979248047 C36.402000427246094,131.53399658203125 37.349998474121094,133.11900329589844 38.03300094604492,134.56399536132812"></path></g></g><g style="display: none;"><g><path stroke-linecap="round" stroke-linejoin="round" fill-opacity="0"></path></g></g><g style="display: none;"><g><path stroke-linecap="round" stroke-linejoin="round" fill-opacity="0"></path></g></g><g style="display: none;"><g><path stroke-linecap="round" stroke-linejoin="round" fill-opacity="0"></path></g></g><g style="display: none;"><g><path stroke-linecap="round" stroke-linejoin="round" fill-opacity="0"></path></g></g><g style="display: none;"><g><path stroke-linecap="round" stroke-linejoin="round" fill-opacity="0"></path></g></g><g style="display: none;"><g><path stroke-linecap="round" stroke-linejoin="round" fill-opacity="0"></path></g></g><g style="display: none;"><g><path stroke-linecap="round" stroke-linejoin="round" fill-opacity="0"></path></g></g><g style="display: none;"><g><path stroke-linecap="round" stroke-linejoin="round" fill-opacity="0"></path></g></g><g style="display: none;"><g><path stroke-linecap="round" stroke-linejoin="round" fill-opacity="0"></path></g></g><g style="display: none;"><g><path stroke-linecap="round" stroke-linejoin="round" fill-opacity="0"></path></g></g><g style="display: none;"><g><path stroke-linecap="round" stroke-linejoin="round" fill-opacity="0"></path></g></g><g style="display: none;"><g><path stroke-linecap="round" stroke-linejoin="round" fill-opacity="0"></path></g></g><g style="display: none;"><g><path stroke-linecap="round" stroke-linejoin="round" fill-opacity="0"></path></g></g><g style="display: none;"><g><path stroke-linecap="round" stroke-linejoin="round" fill-opacity="0"></path></g></g></g><g style="display: block;" transform="matrix(1,0,0,1,256,256)" opacity="1"></g></g></svg>