<svg xmlns="http://www.w3.org/2000/svg" viewBox="0 0 512 512" width="512" height="512" style="width: 100%; height: 100%; transform: translate3d(0,0,0);" preserveAspectRatio="xMidYMid meet"><defs><clipPath id="__lottie_element_6862"><rect width="512" height="512" x="0" y="0"></rect></clipPath><linearGradient id="__lottie_element_6888" spreadMethod="pad" gradientUnits="userSpaceOnUse" x1="-3.7170000076293945" y1="-5.7230000495910645" x2="8.081000328063965" y2="12.53600025177002"><stop offset="0%" stop-color="rgb(55,10,0)"></stop><stop offset="38%" stop-color="rgb(104,48,2)"></stop><stop offset="100%" stop-color="rgb(153,87,4)"></stop></linearGradient><linearGradient id="__lottie_element_6892" spreadMethod="pad" gradientUnits="userSpaceOnUse" x1="-12.503000259399414" y1="-5.7230000495910645" x2="-0.7049999833106995" y2="12.53600025177002"><stop offset="0%" stop-color="rgb(55,10,0)"></stop><stop offset="38%" stop-color="rgb(104,48,2)"></stop><stop offset="100%" stop-color="rgb(153,87,4)"></stop></linearGradient></defs><g clip-path="url(#__lottie_element_6862)"><g style="display: block;" transform="matrix(1,0,0,1,0,0)" opacity="1"><g opacity="1" transform="matrix(1,0,0,1,255.822998046875,249.24200439453125)"><path fill="rgb(200,147,103)" fill-opacity="1" d=" M-202.6300048828125,-142.4550018310547 C-202.6300048828125,-142.4550018310547 -202.6300048828125,142.4550018310547 -202.6300048828125,142.4550018310547 C-202.6300048828125,142.4550018310547 202.6300048828125,142.4550018310547 202.6300048828125,142.4550018310547 C202.6300048828125,142.4550018310547 202.6300048828125,-142.4550018310547 202.6300048828125,-142.4550018310547 C202.6300048828125,-142.4550018310547 -202.6300048828125,-142.4550018310547 -202.6300048828125,-142.4550018310547z M183.2100067138672,123.42500305175781 C183.2100067138672,123.42500305175781 -183.2100067138672,123.42500305175781 -183.2100067138672,123.42500305175781 C-183.2100067138672,123.42500305175781 -183.2100067138672,-123.42500305175781 -183.2100067138672,-123.42500305175781 C-183.2100067138672,-123.42500305175781 183.2100067138672,-123.42500305175781 183.2100067138672,-123.42500305175781 C183.2100067138672,-123.42500305175781 183.2100067138672,123.42500305175781 183.2100067138672,123.42500305175781z"></path><path stroke-linecap="round" stroke-linejoin="round" fill-opacity="0" stroke="rgb(140,93,60)" stroke-opacity="1" stroke-width="8" d=" M-202.6300048828125,-142.4550018310547 C-202.6300048828125,-142.4550018310547 -202.6300048828125,142.4550018310547 -202.6300048828125,142.4550018310547 C-202.6300048828125,142.4550018310547 202.6300048828125,142.4550018310547 202.6300048828125,142.4550018310547 C202.6300048828125,142.4550018310547 202.6300048828125,-142.4550018310547 202.6300048828125,-142.4550018310547 C202.6300048828125,-142.4550018310547 -202.6300048828125,-142.4550018310547 -202.6300048828125,-142.4550018310547z M183.2100067138672,123.42500305175781 C183.2100067138672,123.42500305175781 -183.2100067138672,123.42500305175781 -183.2100067138672,123.42500305175781 C-183.2100067138672,123.42500305175781 -183.2100067138672,-123.42500305175781 -183.2100067138672,-123.42500305175781 C-183.2100067138672,-123.42500305175781 183.2100067138672,-123.42500305175781 183.2100067138672,-123.42500305175781 C183.2100067138672,-123.42500305175781 183.2100067138672,123.42500305175781 183.2100067138672,123.42500305175781z"></path></g><g opacity="1" transform="matrix(1,0,0,1,0,0)"><g opacity="1" transform="matrix(1,0,0,1,448.7430114746094,116.302001953125)"><path stroke-linecap="round" stroke-linejoin="round" fill-opacity="0" stroke="rgb(140,93,60)" stroke-opacity="1" stroke-width="5" d=" M9.710000038146973,-9.515000343322754 C9.710000038146973,-9.515000343322754 -9.710000038146973,9.515000343322754 -9.710000038146973,9.515000343322754"></path></g><g opacity="1" transform="matrix(1,0,0,1,448.7430114746094,382.1820068359375)"><path stroke-linecap="round" stroke-linejoin="round" fill-opacity="0" stroke="rgb(140,93,60)" stroke-opacity="1" stroke-width="5" d=" M-9.710000038146973,-9.515000343322754 C-9.710000038146973,-9.515000343322754 9.710000038146973,9.515000343322754 9.710000038146973,9.515000343322754"></path></g><g opacity="1" transform="matrix(1,0,0,1,62.90299987792969,382.1820068359375)"><path stroke-linecap="round" stroke-linejoin="round" fill-opacity="0" stroke="rgb(140,93,60)" stroke-opacity="1" stroke-width="5" d=" M9.710000038146973,-9.515000343322754 C9.710000038146973,-9.515000343322754 -9.710000038146973,9.515000343322754 -9.710000038146973,9.515000343322754"></path></g><g opacity="1" transform="matrix(1,0,0,1,62.90299987792969,116.302001953125)"><path stroke-linecap="round" stroke-linejoin="round" fill-opacity="0" stroke="rgb(140,93,60)" stroke-opacity="1" stroke-width="5" d=" M9.710000038146973,9.515000343322754 C9.710000038146973,9.515000343322754 -9.710000038146973,-9.515000343322754 -9.710000038146973,-9.515000343322754"></path></g></g><g opacity="1" transform="matrix(1,0,0,1,255.822998046875,249.24200439453125)"><path stroke-linecap="round" stroke-linejoin="round" fill-opacity="0" stroke="rgb(158,109,74)" stroke-opacity="1" stroke-width="8" d=" M183.2100067138672,-123.42500305175781 C183.2100067138672,-123.42500305175781 183.2100067138672,123.42500305175781 183.2100067138672,123.42500305175781 C183.2100067138672,123.42500305175781 -183.2100067138672,123.42500305175781 -183.2100067138672,123.42500305175781 C-183.2100067138672,123.42500305175781 -183.2100067138672,-123.42500305175781 -183.2100067138672,-123.42500305175781 C-183.2100067138672,-123.42500305175781 183.2100067138672,-123.42500305175781 183.2100067138672,-123.42500305175781z"></path></g><g opacity="1" transform="matrix(1,0,0,1,255.822998046875,249.24200439453125)"><path fill="rgb(61,94,75)" fill-opacity="1" d=" M183.2100067138672,-123.42500305175781 C183.2100067138672,-123.42500305175781 183.2100067138672,123.42500305175781 183.2100067138672,123.42500305175781 C183.2100067138672,123.42500305175781 -183.2100067138672,123.42500305175781 -183.2100067138672,123.42500305175781 C-183.2100067138672,123.42500305175781 -183.2100067138672,-123.42500305175781 -183.2100067138672,-123.42500305175781 C-183.2100067138672,-123.42500305175781 183.2100067138672,-123.42500305175781 183.2100067138672,-123.42500305175781z"></path><path stroke-linecap="round" stroke-linejoin="round" fill-opacity="0" stroke="rgb(25,49,38)" stroke-opacity="1" stroke-width="8" d=" M183.2100067138672,-123.42500305175781 C183.2100067138672,-123.42500305175781 183.2100067138672,123.42500305175781 183.2100067138672,123.42500305175781 C183.2100067138672,123.42500305175781 -183.2100067138672,123.42500305175781 -183.2100067138672,123.42500305175781 C-183.2100067138672,123.42500305175781 -183.2100067138672,-123.42500305175781 -183.2100067138672,-123.42500305175781 C-183.2100067138672,-123.42500305175781 183.2100067138672,-123.42500305175781 183.2100067138672,-123.42500305175781z"></path></g><g opacity="1" transform="matrix(1,0,0,1,255.822998046875,249.24200439453125)"><path fill="rgb(75,117,92)" fill-opacity="1" d=" M165.7239990234375,-102.94400024414062 C165.7239990234375,-102.94400024414062 165.7239990234375,102.94400024414062 165.7239990234375,102.94400024414062 C165.7239990234375,104.60099792480469 164.38099670410156,105.94400024414062 162.7239990234375,105.94400024414062 C162.7239990234375,105.94400024414062 -162.7239990234375,105.94400024414062 -162.7239990234375,105.94400024414062 C-164.38099670410156,105.94400024414062 -165.7239990234375,104.60099792480469 -165.7239990234375,102.94400024414062 C-165.7239990234375,102.94400024414062 -165.7239990234375,-102.94400024414062 -165.7239990234375,-102.94400024414062 C-165.7239990234375,-104.60099792480469 -164.38099670410156,-105.94400024414062 -162.7239990234375,-105.94400024414062 C-162.7239990234375,-105.94400024414062 162.7239990234375,-105.94400024414062 162.7239990234375,-105.94400024414062 C164.38099670410156,-105.94400024414062 165.7239990234375,-104.60099792480469 165.7239990234375,-102.94400024414062z"></path></g></g><g style="display: block;" transform="matrix(1,0,0,1,0,6)" opacity="1"><g opacity="1" transform="matrix(1,0,0,1,368.77801513671875,241.63999938964844)"><path fill="rgb(239,179,139)" fill-opacity="1" d=" M-3.63700008392334,-30.964000701904297 C-3.63700008392334,-30.964000701904297 6.692999839782715,-37.98699951171875 12.12399959564209,-28.57699966430664 C17.091999053955078,-19.9689998626709 7.5980000495910645,24.530000686645508 -1.1720000505447388,31.746999740600586 C-6.566999912261963,36.18600082397461 -12.407999992370605,30.709999084472656 -12.407999992370605,30.709999084472656 C-15.965999603271484,28.275999069213867 -10.190999984741211,-22.038000106811523 -3.63700008392334,-30.964000701904297z"></path></g><g opacity="1" transform="matrix(1,0,0,1,368.77801513671875,241.63999938964844)"><path stroke-linecap="round" stroke-linejoin="round" fill-opacity="0" stroke="rgb(193,126,93)" stroke-opacity="1" stroke-width="8" d=" M-3.63700008392334,-30.964000701904297 C-3.63700008392334,-30.964000701904297 6.692999839782715,-37.98699951171875 12.12399959564209,-28.57699966430664 C17.091999053955078,-19.9689998626709 7.5980000495910645,24.530000686645508 -1.1720000505447388,31.746999740600586 C-6.566999912261963,36.18600082397461 -12.407999992370605,30.709999084472656 -12.407999992370605,30.709999084472656 C-15.965999603271484,28.275999069213867 -10.190999984741211,-22.038000106811523 -3.63700008392334,-30.964000701904297z"></path></g></g><g style="display: block;" transform="matrix(1,0,0,1,0,6)" opacity="1"><g opacity="1" transform="matrix(1,0,0,1,144.21099853515625,241.63999938964844)"><path fill="rgb(239,179,139)" fill-opacity="1" d=" M3.63700008392334,-30.964000701904297 C3.63700008392334,-30.964000701904297 -6.692999839782715,-37.98699951171875 -12.12399959564209,-28.57699966430664 C-17.091999053955078,-19.9689998626709 -7.5980000495910645,24.530000686645508 1.1720000505447388,31.746999740600586 C6.566999912261963,36.18600082397461 12.407999992370605,30.709999084472656 12.407999992370605,30.709999084472656 C15.965999603271484,28.275999069213867 10.190999984741211,-22.038000106811523 3.63700008392334,-30.964000701904297z"></path></g><g opacity="1" transform="matrix(1,0,0,1,144.21099853515625,241.63999938964844)"><path stroke-linecap="round" stroke-linejoin="round" fill-opacity="0" stroke="rgb(193,126,93)" stroke-opacity="1" stroke-width="8" d=" M3.63700008392334,-30.964000701904297 C3.63700008392334,-30.964000701904297 -6.692999839782715,-37.98699951171875 -12.12399959564209,-28.57699966430664 C-17.091999053955078,-19.9689998626709 -7.5980000495910645,24.530000686645508 1.1720000505447388,31.746999740600586 C6.566999912261963,36.18600082397461 12.407999992370605,30.709999084472656 12.407999992370605,30.709999084472656 C15.965999603271484,28.275999069213867 10.190999984741211,-22.038000106811523 3.63700008392334,-30.964000701904297z"></path></g></g><g style="display: block;" transform="matrix(1,0,0,1,0,0)" opacity="1"><g opacity="1" transform="matrix(1,0,0,1,256.3320007324219,408.7080078125)"><path fill="rgb(225,231,236)" fill-opacity="1" d=" M-47.01900100708008,51.38100051879883 C-47.01900100708008,51.38100051879883 -47.01900100708008,-46.8120002746582 -47.01900100708008,-46.8120002746582 C-34.55699920654297,-48.94499969482422 -21.030000686645508,-50.51599884033203 -6.507999897003174,-51.38100051879883 C-6.507999897003174,-51.38100051879883 8.572999954223633,-51.09299850463867 8.572999954223633,-51.09299850463867 C8.572999954223633,-51.09299850463867 47.01900100708008,-46.81100082397461 47.01900100708008,-46.81100082397461 C47.01900100708008,-46.81100082397461 47.01900100708008,51.37900161743164 47.01900100708008,51.37900161743164"></path><path stroke-linecap="round" stroke-linejoin="round" fill-opacity="0" stroke="rgb(163,171,170)" stroke-opacity="1" stroke-width="8" d=" M-47.01900100708008,51.38100051879883 C-47.01900100708008,51.38100051879883 -47.01900100708008,-46.8120002746582 -47.01900100708008,-46.8120002746582 C-34.55699920654297,-48.94499969482422 -21.030000686645508,-50.51599884033203 -6.507999897003174,-51.38100051879883 C-6.507999897003174,-51.38100051879883 8.572999954223633,-51.09299850463867 8.572999954223633,-51.09299850463867 C8.572999954223633,-51.09299850463867 47.01900100708008,-46.81100082397461 47.01900100708008,-46.81100082397461 C47.01900100708008,-46.81100082397461 47.01900100708008,51.37900161743164 47.01900100708008,51.37900161743164"></path></g><g opacity="1" transform="matrix(1,0,0,1,154.23300170898438,413.49200439453125)"><path fill="rgb(137,105,59)" fill-opacity="1" d=" M55.08000183105469,-51.595001220703125 C55.08000183105469,-51.595001220703125 55.08000183105469,51.595001220703125 55.08000183105469,51.595001220703125 C55.08000183105469,51.595001220703125 -18.899999618530273,51.595001220703125 -18.899999618530273,51.595001220703125 C-28.81999969482422,51.595001220703125 -36.20000076293945,50.60499954223633 -41.61000061035156,49.314998626708984 C-51.90999984741211,46.845001220703125 -55.08000183105469,43.275001525878906 -55.08000183105469,43.275001525878906 C-53.279998779296875,29.875 -48.380001068115234,3.4749999046325684 -36.459999084472656,-11.425000190734863 C-23.459999084472656,-27.665000915527344 8.300000190734863,-43.595001220703125 55.08000183105469,-51.595001220703125z"></path></g><g opacity="0.8" transform="matrix(1,0,0,1,154.23300170898438,412.35198974609375)"><path fill="rgb(188,138,72)" fill-opacity="1" d=" M55.08000183105469,-50.45500183105469 C55.08000183105469,-50.45500183105469 55.08000183105469,-32.85499954223633 55.08000183105469,-32.85499954223633 C55.08000183105469,-32.85499954223633 -3.2899999618530273,-26.684999465942383 -26.200000762939453,1.774999976158142 C-34.880001068115234,12.555000305175781 -40.0099983215332,38.095001220703125 -41.61000061035156,50.45500183105469 C-51.90999984741211,47.98500061035156 -55.08000183105469,44.415000915527344 -55.08000183105469,44.415000915527344 C-53.279998779296875,31.014999389648438 -48.380001068115234,4.614999771118164 -36.459999084472656,-10.28499984741211 C-23.459999084472656,-26.524999618530273 8.300000190734863,-42.45500183105469 55.08000183105469,-50.45500183105469z"></path></g><g opacity="1" transform="matrix(1,0,0,1,0,0)"><g opacity="1" transform="matrix(1,0,0,1,99.21800231933594,454.4859924316406)"><path fill="rgb(91,65,26)" fill-opacity="1" d=" M4.03000020980835,-4.4029998779296875 C4.03000020980835,-4.4029998779296875 3.312999963760376,0.902999997138977 2.8570001125335693,4.4029998779296875 C2.8570001125335693,4.4029998779296875 -4.557000160217285,0.3409999907016754 -4,-4.202000141143799 C-4,-4.202000141143799 4.03000020980835,-4.4029998779296875 4.03000020980835,-4.4029998779296875z"></path></g><g opacity="1" transform="matrix(1,0,0,1,154.23300170898438,410.99200439453125)"><path stroke-linecap="round" stroke-linejoin="round" fill-opacity="0" stroke="rgb(91,65,26)" stroke-opacity="1" stroke-width="8" d=" M-55.08000183105469,39.72100067138672 C-54.04399871826172,31.58300018310547 -50.31700134277344,8.402000427246094 -36.459999084472656,-8.925000190734863 C-23.459999084472656,-25.165000915527344 8.300000190734863,-41.095001220703125 55.08000183105469,-49.095001220703125 C55.08000183105469,-49.095001220703125 55.08000183105469,49.095001220703125 55.08000183105469,49.095001220703125"></path></g></g><g opacity="1" transform="matrix(1,0,0,1,127.88200378417969,430.0740051269531)"><path stroke-linecap="round" stroke-linejoin="round" fill-opacity="0" stroke="rgb(91,65,26)" stroke-opacity="1" stroke-width="5" d=" M-6.704999923706055,-31.815000534057617 C-6.704999923706055,-31.815000534057617 -5.466000080108643,-4.118000030517578 6.704999923706055,31.815000534057617"></path></g><g opacity="1" transform="matrix(1,0,0,1,358.14801025390625,413.49200439453125)"><path fill="rgb(137,105,59)" fill-opacity="1" d=" M54.79499816894531,43.275001525878906 C54.79499816894531,43.275001525878906 54.79499816894531,43.275001525878906 54.79499816894531,43.275001525878906 C54.79499816894531,43.275001525878906 51.73500061035156,46.724998474121094 41.875,49.17499923706055 C36.415000915527344,50.53499984741211 28.875,51.595001220703125 18.614999771118164,51.595001220703125 C18.614999771118164,51.595001220703125 -54.79499816894531,51.595001220703125 -54.79499816894531,51.595001220703125 C-54.79499816894531,51.595001220703125 -54.79499816894531,-51.595001220703125 -54.79499816894531,-51.595001220703125 C-8.015000343322754,-43.595001220703125 23.7450008392334,-27.665000915527344 36.744998931884766,-11.425000190734863 C48.98500061035156,3.884999990463257 53.125,30.2549991607666 54.79499816894531,43.275001525878906z"></path></g><g opacity="0.8" transform="matrix(1,0,0,1,358.14801025390625,412.2820129394531)"><path fill="rgb(188,138,72)" fill-opacity="1" d=" M54.79499816894531,44.48500061035156 C54.79499816894531,44.48500061035156 54.79499816894531,44.48500061035156 54.79499816894531,44.48500061035156 C54.79499816894531,44.48500061035156 51.73500061035156,47.935001373291016 41.875,50.3849983215332 C40.255001068115234,37.974998474121094 35.1349983215332,12.585000038146973 26.485000610351562,1.8450000286102295 C3.575000047683716,-26.614999771118164 -54.79499816894531,-32.78499984741211 -54.79499816894531,-32.78499984741211 C-54.79499816894531,-32.78499984741211 -54.79499816894531,-50.3849983215332 -54.79499816894531,-50.3849983215332 C-8.015000343322754,-42.3849983215332 23.7450008392334,-26.454999923706055 36.744998931884766,-10.21500015258789 C48.98500061035156,5.09499979019165 53.125,31.46500015258789 54.79499816894531,44.48500061035156z"></path></g><g opacity="1" transform="matrix(1,0,0,1,0,0)"><g opacity="1" transform="matrix(1,0,0,1,413.552001953125,454.2900085449219)"><path fill="rgb(91,65,26)" fill-opacity="1" d=" M-4.052000045776367,-4.205999851226807 C-4.052000045776367,-4.205999851226807 -3.3259999752044678,0.7059999704360962 -2.869999885559082,4.205999851226807 C-2.869999885559082,4.205999851226807 4.578999996185303,0.5370000004768372 4.021999835968018,-4.00600004196167 C4.021999835968018,-4.00600004196167 -4.052000045776367,-4.205999851226807 -4.052000045776367,-4.205999851226807z"></path></g><g opacity="1" transform="matrix(1,0,0,1,358.47198486328125,410.99200439453125)"><path stroke-linecap="round" stroke-linejoin="round" fill-opacity="0" stroke="rgb(91,65,26)" stroke-opacity="1" stroke-width="8" d=" M55.12099838256836,39.65599822998047 C54.332000732421875,32.95000076293945 50.87900161743164,9.156000137329102 36.41899871826172,-8.925000190734863 C23.41900062561035,-25.165000915527344 -8.340999603271484,-41.095001220703125 -55.12099838256836,-49.095001220703125 C-55.12099838256836,-49.095001220703125 -55.12099838256836,49.095001220703125 -55.12099838256836,49.095001220703125"></path></g></g><g opacity="1" transform="matrix(1,0,0,1,384.44500732421875,430.17401123046875)"><path stroke-linecap="round" stroke-linejoin="round" fill-opacity="0" stroke="rgb(91,65,26)" stroke-opacity="1" stroke-width="5" d=" M7.041999816894531,-31.915000915527344 C7.041999816894531,-31.915000915527344 5.129000186920166,-4.01800012588501 -7.041999816894531,31.915000915527344"></path></g><g opacity="1" transform="matrix(1,0,0,1,256.5050048828125,373.2879943847656)"><path fill="rgb(239,191,156)" fill-opacity="1" d=" M-39.51100158691406,-16.354999542236328 C-39.51100158691406,-16.354999542236328 -39.51100158691406,-16.354999542236328 -39.51100158691406,-16.354999542236328 C-39.51100158691406,2.2769999504089355 -24.406999588012695,17.381000518798828 -5.775000095367432,17.381000518798828 C-5.775000095367432,17.381000518798828 5.775000095367432,17.381000518798828 5.775000095367432,17.381000518798828 C24.406999588012695,17.381000518798828 39.51100158691406,2.2769999504089355 39.51100158691406,-16.354999542236328 C39.51100158691406,-16.354999542236328 39.51100158691406,-17.381000518798828 39.51100158691406,-17.381000518798828 C39.51100158691406,-17.381000518798828 -39.51100158691406,-16.354999542236328 -39.51100158691406,-16.354999542236328z"></path></g><g opacity="1" transform="matrix(1,0,0,1,256.5050048828125,375.09100341796875)"><path fill="rgb(234,175,136)" fill-opacity="1" d=" M-39.51100158691406,-19.158000946044922 C-39.51100158691406,-19.158000946044922 -39.51100158691406,-19.158000946044922 -39.51100158691406,-19.158000946044922 C-39.51100158691406,-15.96500015258789 -38.3390007019043,-5.413000106811523 -36.395999908447266,-1.722000002861023 C-20.981000900268555,27.56599998474121 21.68199920654297,27.509000778198242 36.61399841308594,-2.0280001163482666 C38.42499923706055,-5.610000133514404 39.51100158691406,-16.05299949645996 39.51100158691406,-19.158000946044922 C39.51100158691406,-19.158000946044922 39.51100158691406,-20.184999465942383 39.51100158691406,-20.184999465942383 C39.51100158691406,-20.184999465942383 -39.51100158691406,-19.158000946044922 -39.51100158691406,-19.158000946044922z"></path><path stroke-linecap="round" stroke-linejoin="round" fill-opacity="0" stroke="rgb(163,171,170)" stroke-opacity="1" stroke-width="8" d=" M-39.51100158691406,-19.158000946044922 C-39.51100158691406,-19.158000946044922 -39.51100158691406,-19.158000946044922 -39.51100158691406,-19.158000946044922 C-39.51100158691406,-15.96500015258789 -38.3390007019043,-5.413000106811523 -36.395999908447266,-1.722000002861023 C-20.981000900268555,27.56599998474121 21.68199920654297,27.509000778198242 36.61399841308594,-2.0280001163482666 C38.42499923706055,-5.610000133514404 39.51100158691406,-16.05299949645996 39.51100158691406,-19.158000946044922 C39.51100158691406,-19.158000946044922 39.51100158691406,-20.184999465942383 39.51100158691406,-20.184999465942383 C39.51100158691406,-20.184999465942383 -39.51100158691406,-19.158000946044922 -39.51100158691406,-19.158000946044922z"></path></g></g><g style="display: block;" transform="matrix(1,0,0,1,0,6)" opacity="1"><g opacity="1" transform="matrix(1,0,0,1,256.90399169921875,222.72300720214844)"><path fill="rgb(237,184,144)" fill-opacity="1" d=" M106.96199798583984,17.37299919128418 C106.96199798583984,85.66899871826172 58.470001220703125,143.26100158691406 0,143.26100158691406 C-58.470001220703125,143.26100158691406 -106.96199798583984,85.66899871826172 -106.96199798583984,17.37299919128418 C-106.96199798583984,15.550000190734863 -106.95500183105469,-8.515999794006348 -106.94300079345703,-10.29800033569336 C-105.86599731445312,-166.46200561523438 -57.81100082397461,-141.8470001220703 0,-141.8470001220703 C56.29499816894531,-141.8470001220703 103.33899688720703,-154.37899780273438 106.76200103759766,-10.29800033569336 C106.89399719238281,-4.730000019073486 106.96199798583984,11.359000205993652 106.96199798583984,17.37299919128418z"></path></g><g opacity="1" transform="matrix(1,0,0,1,256.90399169921875,222.72300720214844)"><path stroke-linecap="round" stroke-linejoin="round" fill-opacity="0" stroke="rgb(193,126,93)" stroke-opacity="1" stroke-width="8" d=" M106.96199798583984,17.37299919128418 C106.96199798583984,85.66899871826172 58.470001220703125,143.26100158691406 0,143.26100158691406 C-58.470001220703125,143.26100158691406 -106.96199798583984,85.66899871826172 -106.96199798583984,17.37299919128418 C-106.96199798583984,15.550000190734863 -106.95500183105469,-8.515999794006348 -106.94300079345703,-10.29800033569336 C-105.86599731445312,-166.46200561523438 -57.81100082397461,-141.8470001220703 0,-141.8470001220703 C56.29499816894531,-141.8470001220703 103.33899688720703,-154.37899780273438 106.76200103759766,-10.29800033569336 C106.89399719238281,-4.730000019073486 106.96199798583984,11.359000205993652 106.96199798583984,17.37299919128418z"></path></g><g opacity="1" transform="matrix(1,0,0,1,256.90399169921875,214.6909942626953)"><path fill="rgb(249,207,172)" fill-opacity="1" d=" M97.12999725341797,15.668000221252441 C97.12999725341797,77.25900268554688 53.09600067138672,129.1959991455078 0,129.1959991455078 C-53.09600067138672,129.1959991455078 -97.12999725341797,77.25900268554688 -97.12999725341797,15.668000221252441 C-97.12999725341797,14.02400016784668 -97.125,-7.679999828338623 -97.11399841308594,-9.286999702453613 C-96.13600158691406,-150.11900329589844 -52.49700164794922,-127.91999816894531 0,-127.91999816894531 C51.119998931884766,-127.91999816894531 93.84100341796875,-139.2220001220703 96.9489974975586,-9.286999702453613 C97.06900024414062,-4.265999794006348 97.12999725341797,10.244999885559082 97.12999725341797,15.668000221252441z"></path></g></g><g style="display: block;" transform="matrix(1,0,0,1,256.4949951171875,240.61000061035156)" opacity="0.5"><g opacity="1" transform="matrix(1,0,0,1,0,0)"><path fill="rgb(224,160,117)" fill-opacity="1" d=" M98.62899780273438,-27.011999130249023 C98.62899780273438,-27.011999130249023 90.16699981689453,-27.007999420166016 90.16699981689453,-27.007999420166016 C87.5780029296875,-28.398000717163086 84.43599700927734,-29.18899917602539 80.73600006103516,-29.336000442504883 C72.30400085449219,-29.670000076293945 43.49599838256836,-29.781999588012695 30.195999145507812,-27.149999618530273 C24.57699966430664,-26.038000106811523 20.27199935913086,-24.68899917602539 16.99799919128418,-22.93899917602539 C16.573999404907227,-22.83300018310547 16.150999069213867,-22.722999572753906 15.722000122070312,-22.645000457763672 C13.697999954223633,-22.277000427246094 10.003999710083008,-22.273000717163086 7.572000026702881,-22.273000717163086 C7.572000026702881,-22.273000717163086 -8.866999626159668,-22.273000717163086 -8.866999626159668,-22.273000717163086 C-11.989999771118164,-22.273000717163086 -14.739999771118164,-22.652999877929688 -17.618999481201172,-23.253999710083008 C-20.812999725341797,-24.85099983215332 -24.920000076293945,-26.106000900268555 -30.195999145507812,-27.149999618530273 C-43.494998931884766,-29.783000946044922 -72.30699920654297,-29.672000885009766 -80.73699951171875,-29.336000442504883 C-84.43699645996094,-29.18899917602539 -87.5790023803711,-28.398000717163086 -90.16799926757812,-27.007999420166016 C-90.16799926757812,-27.007999420166016 -98.69100189208984,-27.011999130249023 -98.69100189208984,-27.011999130249023 C-100.23200225830078,-27.011999130249023 -99.35600280761719,-26.55500030517578 -99.35600280761719,-25.048999786376953 C-99.35600280761719,-25.048999786376953 -99.35600280761719,-8.64799976348877 -99.35600280761719,-8.64799976348877 C-99.35600280761719,-7.142000198364258 -99.05699920654297,-5.1579999923706055 -98.69100189208984,-5.1579999923706055 C-98.69100189208984,-5.1579999923706055 -98.56999969482422,-5.1529998779296875 -98.56999969482422,-5.1529998779296875 C-98.28900146484375,-1.715000033378601 -97.66500091552734,2.0989999771118164 -96.68499755859375,6.320000171661377 C-92.37000274658203,24.915000915527344 -79.81600189208984,28.256999969482422 -76.0719985961914,28.839000701904297 C-72.88500213623047,29.333999633789062 -68.62200164794922,29.510000228881836 -64.17400360107422,29.510000228881836 C-57.867000579833984,29.510000228881836 -51.191001892089844,29.156999588012695 -46.696998596191406,28.858999252319336 C-46.12799835205078,28.82200050354004 -45.512001037597656,28.788999557495117 -44.854000091552734,28.7549991607666 C-37.86600112915039,28.392000198364258 -26.172000885009766,27.783000946044922 -18.98200035095215,18.305999755859375 C-13.609000205993652,11.223999977111816 -9.604000091552734,1.399999976158142 -8.57800006866455,-6.072000026702881 C-1.4989999532699585,-14.300000190734863 5.23799991607666,-10.25 8.42199993133545,-7.379000186920166 C9.12600040435791,0.2199999988079071 13.289999961853027,10.803999900817871 18.981000900268555,18.305999755859375 C26.172000885009766,27.783000946044922 37.86600112915039,28.392000198364258 44.854000091552734,28.7549991607666 C45.512001037597656,28.788999557495117 46.12799835205078,28.82200050354004 46.696998596191406,28.858999252319336 C51.191001892089844,29.156999588012695 57.867000579833984,29.510000228881836 64.17500305175781,29.510000228881836 C68.62100219726562,29.510000228881836 72.88500213623047,29.333999633789062 76.0719985961914,28.839000701904297 C79.81600189208984,28.256999969482422 92.37000274658203,24.915000915527344 96.68399810791016,6.320000171661377 C97.66400146484375,2.0989999771118164 98.28800201416016,-1.715000033378601 98.56900024414062,-5.1529998779296875 C98.56900024414062,-5.1529998779296875 98.62899780273438,-5.1579999923706055 98.62899780273438,-5.1579999923706055 C100.16999816894531,-5.1579999923706055 99.16899871826172,-6.3480000495910645 99.16899871826172,-7.854000091552734 C99.16899871826172,-7.854000091552734 99.16899871826172,-24.2549991607666 99.16899871826172,-24.2549991607666 C99.16899871826172,-25.76099967956543 100.16999816894531,-27.011999130249023 98.62899780273438,-27.011999130249023z M-22.268999099731445,15.92300033569336 C-28.312000274658203,23.88800048828125 -38.39799880981445,22.413000106811523 -45.07099914550781,22.76099967956543 C-45.75,22.79599952697754 -46.387001037597656,22.829999923706055 -46.972999572753906,22.868999481201172 C-54.46500015258789,23.36400032043457 -68.12000274658203,24.025999069213867 -75.4280014038086,22.88800048828125 C-78.53199768066406,22.406999588012695 -88.9469985961914,21.579999923706055 -92.69400024414062,5.434999942779541 C-95.6719970703125,-7.400000095367432 -95.30699920654297,-15.95199966430664 -91.5790023803711,-20.709999084472656 C-89.2969970703125,-23.621999740600586 -85.69499969482422,-25.13599967956543 -80.57099914550781,-25.34000015258789 C-73.4260025024414,-25.621999740600586 -44.060001373291016,-25.812000274658203 -31.006999969482422,-23.229999542236328 C-17.83099937438965,-20.62299919128418 -14.241000175476074,-17.079999923706055 -12.718999862670898,-12.211000442504883 C-11.159000396728516,-7.22599983215332 -15.071000099182129,6.435999870300293 -22.268999099731445,15.92300033569336z M92.69300079345703,5.434999942779541 C88.9469985961914,21.579999923706055 78.53199768066406,22.406999588012695 75.4280014038086,22.88800048828125 C68.12000274658203,24.024999618530273 54.4640007019043,23.36400032043457 46.972999572753906,22.868999481201172 C46.387001037597656,22.829999923706055 45.75,22.79599952697754 45.07099914550781,22.76099967956543 C38.39799880981445,22.413000106811523 28.312000274658203,23.888999938964844 22.26799964904785,15.92300033569336 C15.071000099182129,6.435999870300293 11.159000396728516,-7.22599983215332 12.718000411987305,-12.211000442504883 C14.239999771118164,-17.079999923706055 17.83099937438965,-20.62299919128418 31.006999969482422,-23.229999542236328 C40.24800109863281,-25.058000564575195 57.66699981689453,-25.496999740600586 69.58699798583984,-25.496999740600586 C74.5009994506836,-25.496999740600586 78.48300170898438,-25.422000885009766 80.56999969482422,-25.34000015258789 C85.69499969482422,-25.13599967956543 89.2969970703125,-23.621999740600586 91.5790023803711,-20.709999084472656 C95.30699920654297,-15.951000213623047 95.6719970703125,-7.400000095367432 92.69300079345703,5.434999942779541z"></path></g></g><g style="display: block;" transform="matrix(1,0,0,1,0,6)" opacity="1"><g opacity="0.5" transform="matrix(1,0,0,1,256.8659973144531,325.8089904785156)"><path fill="rgb(224,160,117)" fill-opacity="1" d=" M24.20199966430664,-4.881999969482422 C24.20199966430664,-0.621999979019165 13.366000175476074,6.546999931335449 0,6.546999931335449 C-13.366000175476074,6.546999931335449 -24.20199966430664,-0.621999979019165 -24.20199966430664,-4.881999969482422 C-24.20199966430664,-9.142000198364258 -13.366000175476074,-3.881999969482422 0,-3.881999969482422 C13.366000175476074,-3.881999969482422 24.20199966430664,-9.142000198364258 24.20199966430664,-4.881999969482422z"></path></g><g opacity="0.9500000000000001" transform="matrix(1,0,0,1,256.4949951171875,306.2860107421875)"><path fill="rgb(252,225,202)" fill-opacity="1" d=" M31.92300033569336,-1.0839999914169312 C31.92300033569336,6.914999961853027 17.631000518798828,15.565999984741211 0,15.565999984741211 C-17.631000518798828,15.565999984741211 -31.92300033569336,6.914999961853027 -31.92300033569336,-1.0839999914169312 C-31.92300033569336,-9.083000183105469 -17.631000518798828,-15.565999984741211 0,-15.565999984741211 C17.631000518798828,-15.565999984741211 31.92300033569336,-9.083000183105469 31.92300033569336,-1.0839999914169312z"></path></g><g opacity="1" transform="matrix(1,0,0,1,256.4949951171875,304.5580139160156)"><path fill="rgb(126,35,18)" fill-opacity="1" d=" M27.81800079345703,0 C27.81800079345703,1.4639999866485596 27.216999053955078,2.861999988555908 26.091999053955078,4.151000022888184 C22.180999755859375,8.727999687194824 11.977999687194824,11.984000205993652 -0.006000000052154064,11.984000205993652 C-11.979000091552734,11.984000205993652 -22.180999755859375,8.727999687194824 -26.091999053955078,4.151000022888184 C-27.216999053955078,2.861999988555908 -27.81800079345703,1.4639999866485596 -27.81800079345703,0 C-27.81800079345703,-6.619999885559082 -15.364999771118164,-11.984000205993652 -0.006000000052154064,-11.984000205993652 C15.36400032043457,-11.984000205993652 27.81800079345703,-6.619999885559082 27.81800079345703,0z"></path></g><g opacity="0.5" transform="matrix(1,0,0,1,256.4949951171875,296.16400146484375)"><path fill="rgb(224,160,117)" fill-opacity="1" d=" M31.916000366210938,-12.54699993133545 C31.916000366210938,-12.54699993133545 0.33500000834465027,-12.777000427246094 0.33500000834465027,-12.777000427246094 C0.33500000834465027,-12.777000427246094 -31.916000366210938,-12.54699993133545 -31.916000366210938,-12.54699993133545 C-44.42499923706055,-12.54699993133545 -57.0359992980957,-1.3990000486373901 -58.32500076293945,10.105999946594238 C-58.47200012207031,11.414999961853027 -57.34600067138672,12.54699993133545 -55.95399856567383,12.54699993133545 C-55.95399856567383,12.54699993133545 -0.14000000059604645,12.54699993133545 -0.14000000059604645,12.54699993133545 C-0.14000000059604645,12.54699993133545 55.95399856567383,12.54699993133545 55.95399856567383,12.54699993133545 C57.34600067138672,12.54699993133545 58.47200012207031,11.414999961853027 58.32500076293945,10.105999946594238 C57.0359992980957,-1.3990000486373901 44.42499923706055,-12.54699993133545 31.916000366210938,-12.54699993133545z"></path></g><g opacity="1" transform="matrix(1,0,0,1,256.4949951171875,300.6419982910156)"><path fill="rgb(81,19,18)" fill-opacity="1" d=" M27.81800079345703,3.9159998893737793 C27.81800079345703,5.380000114440918 27.216999053955078,6.7779998779296875 26.091999053955078,8.067000389099121 C26.091999053955078,8.067000389099121 -26.091999053955078,8.067000389099121 -26.091999053955078,8.067000389099121 C-27.216999053955078,6.7779998779296875 -27.81800079345703,5.380000114440918 -27.81800079345703,3.9159998893737793 C-27.81800079345703,-2.7039999961853027 -15.364999771118164,-8.067000389099121 -0.006000000052154064,-8.067000389099121 C15.36400032043457,-8.067000389099121 27.81800079345703,-2.7039999961853027 27.81800079345703,3.9159998893737793z"></path></g><g opacity="1" transform="matrix(1,0,0,1,256.90399169921875,273.2699890136719)"><path fill="rgb(242,189,153)" fill-opacity="1" d=" M21.750999450683594,0 C21.750999450683594,9.633999824523926 13.220000267028809,17.44300079345703 0,17.44300079345703 C-13.220000267028809,17.44300079345703 -21.750999450683594,9.633999824523926 -21.750999450683594,0 C-21.750999450683594,-9.633999824523926 -13.220000267028809,-17.44300079345703 0,-17.44300079345703 C13.220000267028809,-17.44300079345703 21.750999450683594,-9.633999824523926 21.750999450683594,0z"></path></g><g opacity="1" transform="matrix(1,0,0,1,256.4949951171875,294.0880126953125)"><path fill="rgb(81,72,73)" fill-opacity="1" d=" M30.09600067138672,-10.470999717712402 C30.09600067138672,-10.470999717712402 0.3659999966621399,-10.732999801635742 0.3659999966621399,-10.732999801635742 C0.3659999966621399,-10.732999801635742 -30.09600067138672,-10.470999717712402 -30.09600067138672,-10.470999717712402 C-41.891998291015625,-10.470999717712402 -53.784000396728516,-2.2769999504089355 -54.999000549316406,8.239999771118164 C-55.137001037597656,9.437000274658203 -54.07600021362305,10.470999717712402 -52.76300048828125,10.470999717712402 C-52.76300048828125,10.470999717712402 0.1120000034570694,10.503999710083008 0.1120000034570694,10.503999710083008 C0.1120000034570694,10.503999710083008 52.76300048828125,10.470999717712402 52.76300048828125,10.470999717712402 C54.07600021362305,10.470999717712402 55.137001037597656,9.437000274658203 54.999000549316406,8.239999771118164 C53.784000396728516,-2.2769999504089355 41.891998291015625,-10.470999717712402 30.09600067138672,-10.470999717712402z"></path></g><g opacity="1" transform="matrix(1,0,0,1,256.90399169921875,287.1669921875)"><path fill="rgb(32,39,49)" fill-opacity="1" d=" M18.177000045776367,-3.549999952316284 C13.819000244140625,0.7540000081062317 7.8979997634887695,3.549999952316284 0,3.549999952316284 C-7.89900016784668,3.549999952316284 -13.819000244140625,0.7540000081062317 -18.177000045776367,-3.549999952316284 C-18.177000045776367,-3.549999952316284 -6.089000225067139,-3.8440001010894775 -0.0430000014603138,-3.8440001010894775 C6.031000137329102,-3.8440001010894775 18.177000045776367,-3.549999952316284 18.177000045776367,-3.549999952316284z"></path></g><g opacity="1" transform="matrix(1,0,0,1,256.4949951171875,298.54998779296875)"><path fill="rgb(9,9,9)" fill-opacity="1" d=" M54.99700164794922,3.7799999713897705 C55.138999938964844,4.9710001945495605 54.07899856567383,6.007999897003174 52.768001556396484,6.007999897003174 C52.768001556396484,6.007999897003174 17.790000915527344,6.072999954223633 0.3009999990463257,6.072999954223633 C-17.388999938964844,6.072999954223633 -52.768001556396484,6.007999897003174 -52.768001556396484,6.007999897003174 C-54.07899856567383,6.007999897003174 -55.138999938964844,4.9710001945495605 -54.99700164794922,3.7799999713897705 C-54.582000732421875,0.164000004529953 -52.900001525878906,-3.178999900817871 -50.39799880981445,-6.007999897003174 C-51.152000427246094,-4.446000099182129 -51.665000915527344,-2.7860000133514404 -51.86199951171875,-1.059999942779541 C-51.99300003051758,0.06499999761581421 -50.987998962402344,1.0379999876022339 -49.75299835205078,1.0379999876022339 C-49.75299835205078,1.0379999876022339 -17.433000564575195,1.0379999876022339 -1.2730000019073486,1.0379999876022339 C15.736000061035156,1.0379999876022339 49.75400161743164,1.0379999876022339 49.75400161743164,1.0379999876022339 C50.987998962402344,1.0379999876022339 51.9900016784668,0.06599999964237213 51.86199951171875,-1.059999942779541 C51.66600036621094,-2.7860000133514404 51.16299819946289,-4.446000099182129 50.39799880981445,-6.007999897003174 C52.90999984741211,-3.178999900817871 54.566001892089844,0.16599999368190765 54.99700164794922,3.7799999713897705z"></path></g><g opacity="1" transform="matrix(1,0,0,1,0,0)"><g opacity="1" transform="matrix(1,0,0,1,256.90399169921875,270.1839904785156)"><path fill="rgb(193,126,93)" fill-opacity="1" d=" M22.207000732421875,-0.19099999964237213 C22.207000732421875,8.746999740600586 12.263999938964844,15.991999626159668 0,15.991999626159668 C-12.263999938964844,15.991999626159668 -22.207000732421875,8.746999740600586 -22.207000732421875,-0.19099999964237213 C-22.207000732421875,-9.128999710083008 -12.263999938964844,-15.991999626159668 0,-15.991999626159668 C12.263999938964844,-15.991999626159668 22.207000732421875,-9.128999710083008 22.207000732421875,-0.19099999964237213z"></path></g><g opacity="1" transform="matrix(1,0,0,1,256.90399169921875,265.4309997558594)"><path fill="rgb(239,191,156)" fill-opacity="1" d=" M19.211000442504883,-0.5460000038146973 C19.211000442504883,6.107999801635742 10.609999656677246,11.50100040435791 0,11.50100040435791 C-10.609999656677246,11.50100040435791 -19.211000442504883,6.107999801635742 -19.211000442504883,-0.5460000038146973 C-19.211000442504883,-7.199999809265137 -10.609999656677246,-11.50100040435791 0,-11.50100040435791 C10.609999656677246,-11.50100040435791 19.211000442504883,-7.199999809265137 19.211000442504883,-0.5460000038146973z"></path></g><g opacity="0.8" transform="matrix(1,0,0,1,256.90399169921875,259.89599609375)"><path fill="rgb(248,216,183)" fill-opacity="1" d=" M11.60099983215332,-0.7760000228881836 C11.60099983215332,2.759999990463257 6.4070000648498535,6.085999965667725 0,6.085999965667725 C-6.4070000648498535,6.085999965667725 -11.60099983215332,2.759999990463257 -11.60099983215332,-0.7760000228881836 C-11.60099983215332,-4.311999797821045 -6.4070000648498535,-6.085999965667725 0,-6.085999965667725 C6.4070000648498535,-6.085999965667725 11.60099983215332,-4.311999797821045 11.60099983215332,-0.7760000228881836z"></path></g></g></g><g style="display: block;" transform="matrix(1,0,0,1,0,6)" opacity="1"><g opacity="1" transform="matrix(1,0,0,1,205.2169952392578,223.72300720214844)"><path fill="rgb(238,238,239)" fill-opacity="1" d=" M27.878999710083008,13.762999534606934 C27.878999710083008,13.762999534606934 29.339000701904297,-3.0350000858306885 17.42300033569336,-13.95199966430664 C7.185999870300293,-23.33099937438965 -12.08899974822998,-22.410999298095703 -21.74799919128418,-10.394000053405762 C-29.613000869750977,-0.609000027179718 -27.739999771118164,10.79800033569336 -27.739999771118164,10.79800033569336 C-27.739999771118164,10.79800033569336 -19.88800048828125,19.242000579833984 -3.7699999809265137,20.16200065612793 C16.736000061035156,21.332000732421875 27.878999710083008,13.762999534606934 27.878999710083008,13.762999534606934z"></path></g><g opacity="1" transform="matrix(1,0,0,1,0,0)"><g opacity="1" transform="matrix(1,0,0,1,206.5030059814453,223.72300720214844)"><path fill="url(#__lottie_element_6892)" fill-opacity="1" d=" M17.555999755859375,0 C17.555999755859375,9.696000099182129 9.696000099182129,17.555999755859375 0,17.555999755859375 C-9.696000099182129,17.555999755859375 -17.555999755859375,9.696000099182129 -17.555999755859375,0 C-17.555999755859375,-9.696000099182129 -9.696000099182129,-17.555999755859375 0,-17.555999755859375 C9.696000099182129,-17.555999755859375 17.555999755859375,-9.696000099182129 17.555999755859375,0z"></path></g><g opacity="1" transform="matrix(1,0,0,1,206.5030059814453,223.72300720214844)"><path fill="rgb(22,19,11)" fill-opacity="1" d=" M11.095999717712402,0 C11.095999717712402,6.127999782562256 6.127999782562256,11.095999717712402 0,11.095999717712402 C-6.127999782562256,11.095999717712402 -11.095999717712402,6.127999782562256 -11.095999717712402,0 C-11.095999717712402,-6.127999782562256 -6.127999782562256,-11.095999717712402 0,-11.095999717712402 C6.127999782562256,-11.095999717712402 11.095999717712402,-6.127999782562256 11.095999717712402,0z"></path></g><g opacity="1" transform="matrix(1,0,0,1,201.30599975585938,214.156005859375)"><path fill="rgb(245,245,245)" fill-opacity="1" d=" M4.214000225067139,0 C4.214000225067139,2.3269999027252197 2.3269999027252197,4.214000225067139 0,4.214000225067139 C-2.3269999027252197,4.214000225067139 -4.214000225067139,2.3269999027252197 -4.214000225067139,0 C-4.214000225067139,-2.3269999027252197 -2.3269999027252197,-4.214000225067139 0,-4.214000225067139 C2.3269999027252197,-4.214000225067139 4.214000225067139,-2.3269999027252197 4.214000225067139,0z"></path></g><g opacity="1" transform="matrix(1,0,0,1,215.3159942626953,232.75999450683594)"><path stroke-linecap="round" stroke-linejoin="round" fill-opacity="0" stroke="rgb(224,151,5)" stroke-opacity="1" stroke-width="3.5" d=" M4.177999973297119,-4.078000068664551 C2.872999906539917,-0.1889999955892563 -0.24799999594688416,2.865999937057495 -4.177999973297119,4.078000068664551"></path></g></g><g opacity="1" transform="matrix(1,0,0,1,205.16400146484375,219.66099548339844)"><path fill="rgb(193,126,93)" fill-opacity="1" d=" M27.930999755859375,17.825000762939453 C30.197999954223633,0.08699999749660492 18.73200035095215,-18.090999603271484 -0.36399999260902405,-17.82200050354004 C-17.534000396728516,-17.579999923706055 -31.0939998626709,-2.36299991607666 -27.687999725341797,14.859999656677246 C-28.059999465942383,-1.13100004196167 -16.249000549316406,-14.765000343322754 0.1459999978542328,-14.569000244140625 C17.756000518798828,-14.357999801635742 27.270999908447266,1.7410000562667847 27.930999755859375,17.825000762939453z"></path><path stroke-linecap="round" stroke-linejoin="round" fill-opacity="0" stroke="rgb(193,126,93)" stroke-opacity="1" stroke-width="2" d=" M27.930999755859375,17.825000762939453 C30.197999954223633,0.08699999749660492 18.73200035095215,-18.090999603271484 -0.36399999260902405,-17.82200050354004 C-17.534000396728516,-17.579999923706055 -31.0939998626709,-2.36299991607666 -27.687999725341797,14.859999656677246 C-28.059999465942383,-1.13100004196167 -16.249000549316406,-14.765000343322754 0.1459999978542328,-14.569000244140625 C17.756000518798828,-14.357999801635742 27.270999908447266,1.7410000562667847 27.930999755859375,17.825000762939453z"></path></g></g><g style="display: block;" transform="matrix(1,0,0,1,0,6)" opacity="1"><g opacity="1" transform="matrix(1,0,0,1,309.00299072265625,223.72300720214844)"><path fill="rgb(238,238,239)" fill-opacity="1" d=" M-27.878999710083008,13.762999534606934 C-27.878999710083008,13.762999534606934 -29.339000701904297,-3.0350000858306885 -17.42300033569336,-13.95199966430664 C-7.185999870300293,-23.33099937438965 12.08899974822998,-22.410999298095703 21.74799919128418,-10.394000053405762 C29.613000869750977,-0.609000027179718 27.739999771118164,10.79800033569336 27.739999771118164,10.79800033569336 C27.739999771118164,10.79800033569336 19.88800048828125,19.242000579833984 3.7699999809265137,20.16200065612793 C-16.736000061035156,21.332000732421875 -27.878999710083008,13.762999534606934 -27.878999710083008,13.762999534606934z"></path></g><g opacity="1" transform="matrix(1,0,0,1,0,0)"><g opacity="1" transform="matrix(1,0,0,1,307.7170104980469,223.72300720214844)"><path fill="url(#__lottie_element_6888)" fill-opacity="1" d=" M17.555999755859375,0 C17.555999755859375,9.696000099182129 9.696000099182129,17.555999755859375 0,17.555999755859375 C-9.696000099182129,17.555999755859375 -17.555999755859375,9.696000099182129 -17.555999755859375,0 C-17.555999755859375,-9.696000099182129 -9.696000099182129,-17.555999755859375 0,-17.555999755859375 C9.696000099182129,-17.555999755859375 17.555999755859375,-9.696000099182129 17.555999755859375,0z"></path></g><g opacity="1" transform="matrix(1,0,0,1,307.7170104980469,223.72300720214844)"><path fill="rgb(22,19,11)" fill-opacity="1" d=" M11.095999717712402,0 C11.095999717712402,6.127999782562256 6.127999782562256,11.095999717712402 0,11.095999717712402 C-6.127999782562256,11.095999717712402 -11.095999717712402,6.127999782562256 -11.095999717712402,0 C-11.095999717712402,-6.127999782562256 -6.127999782562256,-11.095999717712402 0,-11.095999717712402 C6.127999782562256,-11.095999717712402 11.095999717712402,-6.127999782562256 11.095999717712402,0z"></path></g><g opacity="1" transform="matrix(1,0,0,1,302.5199890136719,214.156005859375)"><path fill="rgb(245,245,245)" fill-opacity="1" d=" M4.214000225067139,0 C4.214000225067139,2.3269999027252197 2.3269999027252197,4.214000225067139 0,4.214000225067139 C-2.3269999027252197,4.214000225067139 -4.214000225067139,2.3269999027252197 -4.214000225067139,0 C-4.214000225067139,-2.3269999027252197 -2.3269999027252197,-4.214000225067139 0,-4.214000225067139 C2.3269999027252197,-4.214000225067139 4.214000225067139,-2.3269999027252197 4.214000225067139,0z"></path></g><g opacity="1" transform="matrix(1,0,0,1,316.5299987792969,232.75999450683594)"><path stroke-linecap="round" stroke-linejoin="round" fill-opacity="0" stroke="rgb(224,151,5)" stroke-opacity="1" stroke-width="3.5" d=" M4.177999973297119,-4.078000068664551 C2.872999906539917,-0.1889999955892563 -0.24799999594688416,2.865999937057495 -4.177999973297119,4.078000068664551"></path></g></g><g opacity="1" transform="matrix(1,0,0,1,309.05499267578125,219.66099548339844)"><path fill="rgb(193,126,93)" fill-opacity="1" d=" M-27.930999755859375,17.825000762939453 C-30.197999954223633,0.08699999749660492 -18.73200035095215,-18.090999603271484 0.36399999260902405,-17.82200050354004 C17.534000396728516,-17.579999923706055 31.0939998626709,-2.36299991607666 27.687999725341797,14.859999656677246 C28.059999465942383,-1.13100004196167 16.249000549316406,-14.765000343322754 -0.1459999978542328,-14.569000244140625 C-17.756000518798828,-14.357999801635742 -27.270999908447266,1.7410000562667847 -27.930999755859375,17.825000762939453z"></path><path stroke-linecap="round" stroke-linejoin="round" fill-opacity="0" stroke="rgb(193,126,93)" stroke-opacity="1" stroke-width="2" d=" M-27.930999755859375,17.825000762939453 C-30.197999954223633,0.08699999749660492 -18.73200035095215,-18.090999603271484 0.36399999260902405,-17.82200050354004 C17.534000396728516,-17.579999923706055 31.0939998626709,-2.36299991607666 27.687999725341797,14.859999656677246 C28.059999465942383,-1.13100004196167 16.249000549316406,-14.765000343322754 -0.1459999978542328,-14.569000244140625 C-17.756000518798828,-14.357999801635742 -27.270999908447266,1.7410000562667847 -27.930999755859375,17.825000762939453z"></path></g></g><g style="display: block;" transform="matrix(1,0,0,1,204.60699462890625,192.28399658203125)" opacity="1"><g opacity="1" transform="matrix(1,0,0,1,0,0)"><path stroke-linecap="round" stroke-linejoin="round" fill-opacity="0" stroke="rgb(16,15,15)" stroke-opacity="1" stroke-width="12" d=" M15.65999984741211,-1.2020000219345093 C15.65999984741211,-1.2020000219345093 -0.7720000147819519,-4.99399995803833 -15.65999984741211,2.200000047683716"></path></g></g><g style="display: block;" transform="matrix(1,0,0,1,309.6130065917969,192.28399658203125)" opacity="1"><g opacity="1" transform="matrix(1,0,0,1,0,0)"><path stroke-linecap="round" stroke-linejoin="round" fill-opacity="0" stroke="rgb(16,15,15)" stroke-opacity="1" stroke-width="12" d=" M-15.65999984741211,-1.2020000219345093 C-15.65999984741211,-1.2020000219345093 0.7720000147819519,-4.99399995803833 15.65999984741211,2.200000047683716"></path></g></g><g style="display: block;" transform="matrix(1,0,0,1,0,6)" opacity="1"><g opacity="1" transform="matrix(1,0,0,1,204.18499755859375,228.61500549316406)"><path stroke-linecap="butt" stroke-linejoin="miter" fill-opacity="0" stroke-miterlimit="10" stroke="rgb(19,18,18)" stroke-opacity="1" stroke-width="6" d=" M-26.51099967956543,-27.341999053955078 C-19.246000289916992,-27.636999130249023 9.348999977111816,-27.83799934387207 22.40399932861328,-25.194000244140625 C35.45899963378906,-22.549999237060547 39.974998474121094,-18.749000549316406 41.792999267578125,-12.800000190734863 C43.611000061035156,-6.85099983215332 39.25899887084961,7.525000095367432 32.15299987792969,17.110000610351562 C25.047000885009766,26.69499969482422 12.803999900817871,26.43600082397461 6.539000034332275,26.860000610351562 C-1.062999963760376,27.374000549316406 -14.446999549865723,28.017000198364258 -21.718000411987305,26.860000610351562 C-26.61400032043457,26.08099937438965 -36.590999603271484,21.902000427246094 -40.22700119018555,5.873000144958496 C-44.45600128173828,-12.772000312805176 -42.790000915527344,-26.680999755859375 -26.51099967956543,-27.341999053955078z"></path></g><g opacity="1" transform="matrix(1,0,0,1,255.82400512695312,214.05499267578125)"><path fill="rgb(19,18,18)" fill-opacity="1" d=" M-20.972999572753906,-9.402000427246094 C-20.972999572753906,-9.402000427246094 -19.56800079345703,-9.402000427246094 -19.56800079345703,-9.402000427246094 C-15.569999694824219,-8.407999992370605 -12.114999771118164,-7.7179999351501465 -7.994999885559082,-7.7179999351501465 C-7.994999885559082,-7.7179999351501465 8.069999694824219,-7.7179999351501465 8.069999694824219,-7.7179999351501465 C10.446999549865723,-7.7179999351501465 14.057000160217285,-7.7220001220703125 16.03499984741211,-8.09000015258789 C16.62299919128418,-8.199000358581543 17.207000732421875,-8.340999603271484 17.783000946044922,-8.503000259399414 C17.783000946044922,-8.503000259399414 20.972999572753906,-9.402000427246094 20.972999572753906,-9.402000427246094 C20.972999572753906,-9.402000427246094 8.6899995803833,-1.5260000228881836 10.77400016784668,9.194999694824219 C10.77400016784668,9.194999694824219 1.3769999742507935,-3.5290000438690186 -8.454999923706055,9.402000427246094 C-8.454999923706055,9.402000427246094 -5.769999980926514,-1.7109999656677246 -20.972999572753906,-9.402000427246094z"></path></g><g opacity="1" transform="matrix(1,0,0,1,161.9550018310547,212.52999877929688)"><path fill="rgb(19,18,18)" fill-opacity="1" d=" M7.99399995803833,-10.927000045776367 C7.99399995803833,-10.927000045776367 -5.267000198364258,-10.927000045776367 -5.267000198364258,-10.927000045776367 C-6.7729997634887695,-10.927000045776367 -7.99399995803833,-9.706999778747559 -7.99399995803833,-8.201000213623047 C-7.99399995803833,-8.201000213623047 -7.99399995803833,8.201000213623047 -7.99399995803833,8.201000213623047 C-7.99399995803833,9.706999778747559 -6.7729997634887695,10.927000045776367 -5.267000198364258,10.927000045776367 C-5.267000198364258,10.927000045776367 0.2029999941587448,10.927000045776367 0.2029999941587448,10.927000045776367 C0.2029999941587448,10.927000045776367 -2.6649999618530273,-3.739000082015991 7.99399995803833,-10.927000045776367z"></path></g><g opacity="1" transform="matrix(1,0,0,1,308.8039855957031,228.61500549316406)"><path stroke-linecap="butt" stroke-linejoin="miter" fill-opacity="0" stroke-miterlimit="10" stroke="rgb(19,18,18)" stroke-opacity="1" stroke-width="6" d=" M26.51099967956543,-27.341999053955078 C19.246000289916992,-27.636999130249023 -9.348999977111816,-27.83799934387207 -22.40399932861328,-25.194000244140625 C-35.45899963378906,-22.549999237060547 -39.974998474121094,-18.749000549316406 -41.792999267578125,-12.800000190734863 C-43.611000061035156,-6.85099983215332 -39.25899887084961,7.525000095367432 -32.15299987792969,17.110000610351562 C-25.047000885009766,26.69499969482422 -12.803999900817871,26.43600082397461 -6.539000034332275,26.860000610351562 C1.062999963760376,27.374000549316406 14.446999549865723,28.017000198364258 21.718000411987305,26.860000610351562 C26.61400032043457,26.08099937438965 36.590999603271484,21.902000427246094 40.22700119018555,5.873000144958496 C44.45600128173828,-12.772000312805176 42.790000915527344,-26.680999755859375 26.51099967956543,-27.341999053955078z"></path></g><g opacity="1" transform="matrix(1,0,0,1,351.03399658203125,212.52999877929688)"><path fill="rgb(19,18,18)" fill-opacity="1" d=" M-7.99399995803833,-10.927000045776367 C-7.99399995803833,-10.927000045776367 5.267000198364258,-10.927000045776367 5.267000198364258,-10.927000045776367 C6.7729997634887695,-10.927000045776367 7.99399995803833,-9.706999778747559 7.99399995803833,-8.201000213623047 C7.99399995803833,-8.201000213623047 7.99399995803833,8.201000213623047 7.99399995803833,8.201000213623047 C7.99399995803833,9.706999778747559 6.7729997634887695,10.927000045776367 5.267000198364258,10.927000045776367 C5.267000198364258,10.927000045776367 -0.2029999941587448,10.927000045776367 -0.2029999941587448,10.927000045776367 C-0.2029999941587448,10.927000045776367 2.6649999618530273,-3.739000082015991 -7.99399995803833,-10.927000045776367z"></path></g></g><g style="display: block;" transform="matrix(1,0,0,1,0,6)" opacity="1"><g opacity="0.5" transform="matrix(1,0,0,1,256.8659973144531,153.11399841308594)"><path fill="rgb(224,160,117)" fill-opacity="1" d=" M98.41799926757812,60.31399917602539 C97.53199768066406,51.24100112915039 96.74400329589844,44.69200134277344 91.5999984741211,39.027000427246094 C81.68099975585938,28.10300064086914 78.40799713134766,13.869999885559082 77.52200317382812,8.845999717712402 C77.34200286865234,7.827000141143799 76.35900115966797,7.1529998779296875 75.34500122070312,7.355000019073486 C-4.598999977111816,23.28499984741211 -58.19200134277344,2.7950000762939453 -67.8030014038086,-4.218999862670898 C-68.91799926757812,-5.0329999923706055 -70.48999786376953,-4.373000144958496 -70.71199798583984,-3.009999990463257 C-73.33200073242188,13.03499984741211 -79.0469970703125,24.8799991607666 -90.49299621582031,36.91999816894531 C-96.41600036621094,43.150001525878906 -98.36599731445312,52.5359992980957 -98.41799926757812,53.38999938964844 C-96.5530014038086,-80.45099639892578 -52.652000427246094,-59.058998107910156 0.03700000047683716,-59.058998107910156 C51.882999420166016,-59.058998107910156 95.21399688720703,-70.1760025024414 98.36499786376953,57.65800094604492 C98.38700103759766,58.36399841308594 98.39700317382812,59.270999908447266 98.41799926757812,60.31399917602539z"></path></g><g opacity="1" transform="matrix(1,0,0,1,256.5050048828125,147.906005859375)"><path fill="rgb(58,53,53)" fill-opacity="1" d=" M-79.74700164794922,-19.709999084472656 C-79.63200378417969,-20.711999893188477 -78.50599670410156,-21.24799919128418 -77.67400360107422,-20.67799949645996 C-70.68900299072266,-15.895000457763672 -43.619998931884766,0.3230000138282776 4.800000190734863,2.312999963760376 C52.10599899291992,4.256999969482422 79.20600128173828,-1.6239999532699585 85.65699768066406,-3.246000051498413 C86.44400024414062,-3.444000005722046 87.21499633789062,-2.9040000438690186 87.2969970703125,-2.0969998836517334 C87.82099914550781,3.0769999027252197 90.30500030517578,20.433000564575195 101.05899810791016,38.53499984741211 C102.02999877929688,40.16899871826172 102.52300262451172,42.04499816894531 102.52300262451172,43.94499969482422 C102.52300262451172,43.94499969482422 102.52300262451172,88.0530014038086 102.52300262451172,88.0530014038086 C102.52300262451172,89.55999755859375 104.01200103759766,90.68099975585938 105.427001953125,90.16300201416016 C108.24700164794922,89.13200378417969 112.4010009765625,85.20999908447266 114.50800323486328,71.63300323486328 C117.87899780273438,49.90999984741211 125.37000274658203,14.329000473022461 118.62799835205078,-17.131999969482422 C111.88600158691406,-48.59299850463867 88.3219985961914,-80.17900085449219 37.3849983215332,-88.57499694824219 C-18.077999114990234,-97.71700286865234 -70.51300048828125,-85.6729965209961 -94.33499908447266,-51.54600143432617 C-94.93299865722656,-50.68899917602539 -95.63999938964844,-49.92399978637695 -96.54399871826172,-49.39899826049805 C-100.73699951171875,-46.965999603271484 -113.83499908447266,-37.62799835205078 -118.8290023803711,-13.729999542236328 C-124.072998046875,11.36400032043457 -119.9219970703125,39.42300033569336 -117.30000305175781,54.77899932861328 C-115.09200286865234,67.71299743652344 -112.90499877929688,83.5719985961914 -106.89900207519531,89.81800079345703 C-105.52400207519531,91.24800109863281 -102.54399871826172,92.47200012207031 -102.54399871826172,90.48799896240234 C-102.54399871826172,90.48799896240234 -103.0979995727539,44.36399841308594 -103.0979995727539,44.36399841308594 C-103.0979995727539,42.000999450683594 -102.30999755859375,39.71200180053711 -100.88400268554688,37.827999114990234 C-95.78299713134766,31.091999053955078 -83.36499786376953,11.854999542236328 -79.74700164794922,-19.709999084472656z"></path></g><g opacity="1" transform="matrix(1,0,0,1,260.9989929199219,94.62999725341797)"><path fill="rgb(81,72,73)" fill-opacity="1" d=" M-1.4880000352859497,28.12700080871582 C-45.18899917602539,27.983999252319336 -69.33200073242188,20.659000396728516 -77.19200134277344,14 C-83.53099822998047,8.630000114440918 -82.62699890136719,0.9350000023841858 -76.96800231933594,-5.125999927520752 C-72.49099731445312,-9.920999526977539 -52.987998962402344,-27.496000289916992 0.5540000200271606,-28.118000030517578 C31.04400062561035,-28.474000930786133 55.10200119018555,-20.864999771118164 72.60900115966797,-7.8460001945495605 C72.61900329589844,-7.835999965667725 72.61799621582031,-7.835999965667725 72.62799835205078,-7.826000213623047 C96.9729995727539,12.241999626159668 71.53299713134766,28.365999221801758 -1.4880000352859497,28.12700080871582z"></path></g><g opacity="0.3" transform="matrix(1,0,0,1,256.4949951171875,148.26400756835938)"><path fill="rgb(9,9,9)" fill-opacity="1" d=" M113.55000305175781,76.31900024414062 C111.30000305175781,85.86699676513672 107.86900329589844,88.91500091552734 105.43299865722656,89.80000305175781 C104.02400207519531,90.3239974975586 101.91000366210938,90.08200073242188 101.91000366210938,88.5739974975586 C101.91000366210938,88.5739974975586 102.53800201416016,43.590999603271484 102.53800201416016,43.590999603271484 C102.53800201416016,41.689998626708984 102.03600311279297,39.8120002746582 101.07499694824219,38.17300033569336 C90.31500244140625,20.07200050354004 87.83399963378906,2.7239999771118164 87.30999755859375,-2.4539999961853027 C87.2229995727539,-3.26200008392334 86.45800018310547,-3.7980000972747803 85.6719970703125,-3.6010000705718994 C79.21600341796875,-1.9839999675750732 52.112998962402344,3.9040000438690186 4.811999797821045,1.9600000381469727 C-43.61399841308594,-0.039000000804662704 -70.6729965209961,-16.25 -77.66400146484375,-21.03499984741211 C-78.49500274658203,-21.60300064086914 -79.62000274658203,-21.06800079345703 -79.73999786376953,-20.062999725341797 C-83.35600280761719,11.496999740600586 -95.7770004272461,30.733999252319336 -100.87799835205078,37.4739990234375 C-102.2979965209961,39.35300064086914 -103.08499908447266,41.645999908447266 -103.08499908447266,44.00600051879883 C-103.08499908447266,44.00600051879883 -103.08499908447266,91.87899780273438 -103.08499908447266,91.87899780273438 C-109.02400207519531,90.13700103759766 -112.16200256347656,81.08200073242188 -114.35800170898438,70.70500183105469 C-107.14700317382812,94.54900360107422 -109.9469985961914,42.6609992980957 -109.9469985961914,42.6609992980957 C-110.74500274658203,42.957000732421875 -112.54499816894531,42.808998107910156 -112.54499816894531,42.808998107910156 C-92.57599639892578,17.834999084472656 -87.26000213623047,-9.85099983215332 -87.6989974975586,-22.79400062561035 C-88.03800201416016,-32.775001525878906 -90.03700256347656,-37.66299819946289 -93.09400177001953,-40.369998931884766 C-94.50700378417969,-41.62099838256836 -97.46600341796875,-41.803001403808594 -99.06099700927734,-40.792999267578125 C-116.19599914550781,-29.94300079345703 -120.43199920654297,-3.9719998836517334 -120.43199920654297,-3.9719998836517334 C-120.03900146484375,-7.36899995803833 -119.51399993896484,-10.755999565124512 -118.81500244140625,-14.088000297546387 C-113.822998046875,-37.9900016784668 -100.7249984741211,-47.319000244140625 -96.52999877929688,-49.755001068115234 C-95.63400268554688,-50.27899932861328 -94.92500305175781,-51.04399871826172 -94.3239974975586,-51.90700149536133 C-70.4990005493164,-86.03399658203125 -18.062000274658203,-98.07099914550781 37.39899826049805,-88.9280014038086 C88.33799743652344,-80.53800201416016 111.9000015258789,-48.94599914550781 118.64099884033203,-17.485000610351562 C119.427001953125,-13.824999809265137 120.01699829101562,-10.121999740600586 120.43199920654297,-6.386000156402588 C116.91000366210938,-59.6510009765625 72.01899719238281,-90.5199966430664 4.504000186920166,-89.4800033569336 C-50.63199996948242,-88.63099670410156 -74.75700378417969,-67.2509994506836 -83.45899963378906,-57.28900146484375 C-86.06300354003906,-54.30799865722656 -87.63300323486328,-48.5369987487793 -84.45800018310547,-43.58399963378906 C-70.7239990234375,-22.160999298095703 -41.20100021362305,-10.34000015258789 11.890999794006348,-7.249000072479248 C68.77899932861328,-3.937000036239624 107.92900085449219,-13.73900032043457 108.81400299072266,-14.01200008392334 C102.63099670410156,-8.397000312805176 94.29100036621094,-3.447999954223633 94.29100036621094,-3.447999954223633 C96.1240005493164,23.31999969482422 112.28299713134766,43.52000045776367 112.28299713134766,43.52000045776367 C110.26599884033203,44.02000045776367 108.58200073242188,43.5890007019043 108.58200073242188,43.5890007019043 C107.75299835205078,84.99299621582031 113.55000305175781,76.31900024414062 113.55000305175781,76.31900024414062z"></path></g><g opacity="1" transform="matrix(1,0,0,1,153.0399932861328,136.28599548339844)"><path fill="rgb(81,72,73)" fill-opacity="1" d=" M10.282999992370605,-3.503999948501587 C12.008999824523926,-15.57699966430664 7.894000053405762,-28.447999954223633 1.6890000104904175,-20.195999145507812 C-5.823999881744385,-10.204999923706055 -10.972000122070312,6.539999961853027 -10.666000366210938,21.329999923706055 C-10.54699993133545,27.08300018310547 -9.100000381469727,15.064000129699707 -1.930999994277954,2.242000102996826 C5.107999801635742,-10.347000122070312 9.579000473022461,1.4160000085830688 10.282999992370605,-3.503999948501587z"></path></g><g opacity="1" transform="matrix(1,0,0,1,256.51300048828125,147.38800048828125)"><path fill="rgb(9,9,9)" fill-opacity="1" d=" M2.312999963760376,-91.00700378417969 C13.689000129699707,-91.00700378417969 25.468000411987305,-90.0199966430664 37.37699890136719,-88.05699920654297 C88.31400299072266,-79.66100311279297 108.87799835205078,-48.07500076293945 115.62000274658203,-16.61400032043457 C122.36199951171875,14.847000122070312 114.87100219726562,50.42900085449219 111.5,72.1520004272461 C109.40699768066406,85.64099884033203 105.29299926757812,88.61199951171875 102.4739990234375,89.66100311279297 C102.49500274658203,89.5459976196289 102.51499938964844,89.25399780273438 102.51499938964844,88.57099914550781 C102.51499938964844,88.57099914550781 102.51499938964844,44.4630012512207 102.51499938964844,44.4630012512207 C102.51499938964844,42.5629997253418 102.02200317382812,40.6870002746582 101.0510025024414,39.053001403808594 C90.2969970703125,20.951000213623047 87.81300354003906,3.5959999561309814 87.28900146484375,-1.5779999494552612 C87.21900177001953,-2.2720000743865967 86.63899993896484,-2.7690000534057617 85.97799682617188,-2.7690000534057617 C85.87000274658203,-2.7690000534057617 85.75900268554688,-2.75600004196167 85.64900207519531,-2.7279999256134033 C80.09600067138672,-1.3320000171661377 59.242000579833984,3.2200000286102295 23.368000030517578,3.2200000286102295 C17.569000244140625,3.2200000286102295 11.375,3.1019999980926514 4.791999816894531,2.8310000896453857 C-43.62699890136719,0.8410000205039978 -70.6969985961914,-15.37600040435791 -77.68199920654297,-20.15999984741211 C-77.91500091552734,-20.31999969482422 -78.1709976196289,-20.392000198364258 -78.4219970703125,-20.392000198364258 C-79.06600189208984,-20.392000198364258 -79.6719970703125,-19.913000106811523 -79.75499725341797,-19.191999435424805 C-83.37300109863281,12.373000144958496 -95.79100036621094,31.611000061035156 -100.89199829101562,38.34700012207031 C-102.31900024414062,40.23099899291992 -103.10600280761719,42.51900100708008 -103.10600280761719,44.88199996948242 C-103.10600280761719,44.88199996948242 -103.10600280761719,88.77100372314453 -103.10600280761719,88.77100372314453 C-103.10600280761719,90.11100006103516 -102.84500122070312,91.00700378417969 -103.0979995727539,91.00700378417969 C-103.22000122070312,91.00700378417969 -103.46099853515625,90.80000305175781 -103.90699768066406,90.33599853515625 C-109.91300201416016,84.08999633789062 -112.0999984741211,68.23100280761719 -114.30799865722656,55.297000885009766 C-116.93000030517578,39.941001892089844 -121.08100128173828,11.881999969482422 -115.83699798583984,-13.211999893188477 C-110.84300231933594,-37.11000061035156 -100.74400329589844,-46.446998596191406 -96.552001953125,-48.880001068115234 C-95.64800262451172,-49.404998779296875 -94.94200134277344,-50.16999816894531 -94.34300231933594,-51.027000427246094 C-75.63600158691406,-77.82599639892578 -39.29399871826172,-91.00900268554688 2.312999963760376,-91.00700378417969 M102.4739990234375,89.66100311279297 C102.46399688720703,89.71199798583984 102.4540023803711,89.72799682617188 102.44499969482422,89.72799682617188 C102.43000030517578,89.72799682617188 102.41799926757812,89.68099975585938 102.41799926757812,89.68099975585938 C102.43599700927734,89.67400360107422 102.45500183105469,89.66799926757812 102.4739990234375,89.66100311279297 M2.313999891281128,-99.00700378417969 C-19.972000122070312,-99.00800323486328 -40.12099838256836,-95.47100067138672 -57.571998596191406,-88.49600219726562 C-76.3219985961914,-81.0009994506836 -90.9010009765625,-69.93599700927734 -100.90299987792969,-55.606998443603516 C-100.90499877929688,-55.60300064086914 -100.90799713134766,-55.5989990234375 -100.91100311279297,-55.595001220703125 C-105.1719970703125,-52.999000549316406 -117.75800323486328,-43.12900161743164 -123.66799926757812,-14.847999572753906 C-128.96099853515625,10.484999656677246 -125.36100006103516,38.08599853515625 -122.19300079345703,56.64400100708008 C-122.00499725341797,57.75 -121.81700134277344,58.87699890136719 -121.6259994506836,60.016998291015625 C-119.29199981689453,73.96499633789062 -116.87699890136719,88.38899993896484 -109.6729965209961,95.88099670410156 C-108.77300262451172,96.81700134277344 -106.66699981689453,99.00700378417969 -103.0979995727539,99.00700378417969 C-100.8280029296875,99.00700378417969 -98.6500015258789,98.04399871826172 -97.12200164794922,96.36699676513672 C-94.66400146484375,93.66899871826172 -94.9530029296875,90.58699798583984 -95.06199645996094,89.4260025024414 C-95.08599853515625,89.1709976196289 -95.10600280761719,88.95099639892578 -95.10600280761719,88.77100372314453 C-95.10600280761719,88.77100372314453 -95.10600280761719,44.88199996948242 -95.10600280761719,44.88199996948242 C-95.10600280761719,44.277000427246094 -94.9020004272461,43.6879997253418 -94.51499938964844,43.176998138427734 C-89.54299926757812,36.611000061035156 -78.33399963378906,19.347999572753906 -73.29499816894531,-8.241000175476074 C-59.86600112915039,-1.1200000047683716 -34.04199981689453,9.241999626159668 4.4629998207092285,10.824000358581543 C10.861000061035156,11.086999893188477 17.222000122070312,11.220000267028809 23.368000030517578,11.220000267028809 C51.04999923706055,11.220000267028809 70.19400024414062,8.532999992370605 80.42500305175781,6.585999965667725 C82.05400085449219,15.194999694824219 85.78099822998047,29.01300048828125 94.1729965209961,43.138999938964844 C94.39700317382812,43.51499938964844 94.51499938964844,43.972999572753906 94.51499938964844,44.4630012512207 C94.51499938964844,44.4630012512207 94.51499938964844,88.46700286865234 94.51499938964844,88.46700286865234 C94.35700225830078,89.47599792480469 94.39099884033203,90.52999877929688 94.64600372314453,91.57499694824219 C95.52899932861328,95.197998046875 98.73600006103516,97.72799682617188 102.44499969482422,97.72799682617188 C103.82599639892578,97.72799682617188 105.13800048828125,97.37300109863281 106.28600311279297,96.74099731445312 C113.23899841308594,93.63600158691406 117.4209976196289,86.16899871826172 119.40599822998047,73.37799835205078 C119.802001953125,70.83100128173828 120.25800323486328,68.06700134277344 120.74099731445312,65.13999938964844 C124.52200317382812,42.25400161743164 129.69900512695312,10.90999984741211 123.44200134277344,-18.290000915527344 C119.30699920654297,-37.5880012512207 111.03199768066406,-53.814998626708984 98.84600067138672,-66.52200317382812 C84.0989990234375,-81.89900207519531 63.85499954223633,-91.8010025024414 38.678001403808594,-95.95099639892578 C26.378000259399414,-97.97799682617188 14.144000053405762,-99.00700378417969 2.313999891281128,-99.00700378417969 C2.313999891281128,-99.00700378417969 2.313999891281128,-99.00700378417969 2.313999891281128,-99.00700378417969z"></path></g><g opacity="1" transform="matrix(1,0,0,1,0,0)"><g opacity="1" transform="matrix(1,0,0,1,301.24798583984375,72.33999633789062)"><path stroke-linecap="round" stroke-linejoin="round" fill-opacity="0" stroke="rgb(255,255,255)" stroke-opacity="1" stroke-width="6" d=" M-2.3540000915527344,-0.5569999814033508 C-0.8389999866485596,-0.22100000083446503 0.734000027179718,0.15000000596046448 2.3540000915527344,0.5569999814033508"></path></g><g opacity="1" transform="matrix(1,0,0,1,284.04998779296875,69.30899810791016)"><path stroke-linecap="round" stroke-linejoin="round" fill-opacity="0" stroke="rgb(255,255,255)" stroke-opacity="1" stroke-width="6" d=" M-6.205999851226807,-0.7829999923706055 C-6.205999851226807,-0.7829999923706055 -1.406999945640564,-0.5070000290870667 6.205999851226807,0.7829999923706055"></path></g></g></g><g style="display: block;" transform="matrix(1,0,0,1,0,0)" opacity="1"><g opacity="1" transform="matrix(1,0,0,1,256.90399169921875,437.1629943847656)"><path fill="rgb(220,225,225)" fill-opacity="1" d=" M-84.5999984741211,27.923999786376953 C-84.5999984741211,27.923999786376953 -84.5999984741211,-13.52400016784668 -84.5999984741211,-13.52400016784668 C-84.5999984741211,-13.52400016784668 -72.25700378417969,-27.923999786376953 -72.25700378417969,-27.923999786376953 C-72.25700378417969,-27.923999786376953 84.5999984741211,-27.923999786376953 84.5999984741211,-27.923999786376953 C84.5999984741211,-27.923999786376953 84.5999984741211,27.923999786376953 84.5999984741211,27.923999786376953"></path></g><g opacity="1" transform="matrix(1,0,0,1,256.90399169921875,435.1629943847656)"><path stroke-linecap="square" stroke-linejoin="round" fill-opacity="0" stroke="rgb(160,16,16)" stroke-opacity="1" stroke-width="8" d=" M-84.5999984741211,25.923999786376953 C-84.5999984741211,25.923999786376953 -84.5999984741211,-11.52400016784668 -84.5999984741211,-11.52400016784668 C-84.5999984741211,-11.52400016784668 -72.25700378417969,-25.923999786376953 -72.25700378417969,-25.923999786376953 C-72.25700378417969,-25.923999786376953 84.5999984741211,-25.923999786376953 84.5999984741211,-25.923999786376953 C84.5999984741211,-25.923999786376953 84.5999984741211,25.923999786376953 84.5999984741211,25.923999786376953"></path></g><g opacity="1" transform="matrix(1,0,0,1,250.50399780273438,444.3630065917969)"><path fill="rgb(221,40,40)" fill-opacity="1" d=" M-78.19999694824219,20.724000930786133 C-78.19999694824219,20.724000930786133 -78.19999694824219,-20.724000930786133 -78.19999694824219,-20.724000930786133 C-78.19999694824219,-20.724000930786133 78.19999694824219,-20.724000930786133 78.19999694824219,-20.724000930786133 C78.19999694824219,-20.724000930786133 78.19999694824219,20.724000930786133 78.19999694824219,20.724000930786133"></path></g><g opacity="1" transform="matrix(1,0,0,1,250.50399780273438,442.3630065917969)"><path stroke-linecap="square" stroke-linejoin="round" fill-opacity="0" stroke="rgb(160,16,16)" stroke-opacity="1" stroke-width="8" d=" M-78.19999694824219,18.724000930786133 C-78.19999694824219,18.724000930786133 -78.19999694824219,-18.724000930786133 -78.19999694824219,-18.724000930786133 C-78.19999694824219,-18.724000930786133 78.19999694824219,-18.724000930786133 78.19999694824219,-18.724000930786133 C78.19999694824219,-18.724000930786133 78.19999694824219,18.724000930786133 78.19999694824219,18.724000930786133"></path></g><g opacity="1" transform="matrix(1,0,0,1,184.13299560546875,444.3630065917969)"><path fill="rgb(68,15,15)" fill-opacity="1" d=" M-11.829000473022461,20.724000930786133 C-11.829000473022461,20.724000930786133 -11.829000473022461,-20.724000930786133 -11.829000473022461,-20.724000930786133 C-11.829000473022461,-20.724000930786133 11.829000473022461,-20.724000930786133 11.829000473022461,-20.724000930786133 C11.829000473022461,-20.724000930786133 11.829000473022461,20.724000930786133 11.829000473022461,20.724000930786133"></path></g><g opacity="1" transform="matrix(1,0,0,1,184.13299560546875,442.3630065917969)"><path stroke-linecap="square" stroke-linejoin="round" fill-opacity="0" stroke="rgb(26,6,6)" stroke-opacity="1" stroke-width="8" d=" M-11.829000473022461,18.724000930786133 C-11.829000473022461,18.724000930786133 -11.829000473022461,-18.724000930786133 -11.829000473022461,-18.724000930786133 C-11.829000473022461,-18.724000930786133 11.829000473022461,-18.724000930786133 11.829000473022461,-18.724000930786133 C11.829000473022461,-18.724000930786133 11.829000473022461,18.724000930786133 11.829000473022461,18.724000930786133"></path></g><g opacity="1" transform="matrix(1,0,0,1,190.00399780273438,429.65399169921875)"><path stroke-linecap="square" stroke-linejoin="round" fill-opacity="0" stroke="rgb(26,6,6)" stroke-opacity="1" stroke-width="8" d=" M17.700000762939453,-20.416000366210938 C17.700000762939453,-20.416000366210938 -5.35699987411499,-20.416000366210938 -5.35699987411499,-20.416000366210938 C-5.35699987411499,-20.416000366210938 -17.700000762939453,-6.015999794006348 -17.700000762939453,-6.015999794006348 C-17.700000762939453,-6.015999794006348 -17.700000762939453,20.416000366210938 -17.700000762939453,20.416000366210938"></path></g></g></g></svg>