<svg xmlns="http://www.w3.org/2000/svg" viewBox="0 0 512 512" width="512" height="512" style="width: 100%; height: 100%; transform: translate3d(0,0,0);" preserveAspectRatio="xMidYMid meet"><defs><clipPath id="__lottie_element_6932"><rect width="512" height="512" x="0" y="0"></rect></clipPath></defs><g clip-path="url(#__lottie_element_6932)"><g style="display: block;" transform="matrix(0.9999989867210388,0,0,0.9999989867210388,256,256)" opacity="1"><g opacity="0.1" transform="matrix(1,0,0,1,0,0)"><path fill="rgb(0,0,0)" fill-opacity="1" d=" M196.69500732421875,12.982000350952148 C196.69500732421875,121.24299621582031 108.93099975585938,209.00599670410156 0.6700000166893005,209.00599670410156 C-107.59100341796875,209.00599670410156 -195.35499572753906,121.24299621582031 -195.35499572753906,12.982000350952148 C-195.35499572753906,-95.27899932861328 -107.59100341796875,-183.04299926757812 0.6700000166893005,-183.04299926757812 C108.93099975585938,-183.04299926757812 196.69500732421875,-95.27899932861328 196.69500732421875,12.982000350952148z"></path></g><g opacity="1" transform="matrix(1,0,0,1,0,0)"><path fill="rgb(255,177,57)" fill-opacity="1" d=" M189.5449981689453,-2.0179998874664307 C189.5449981689453,102.29499816894531 104.98300170898438,186.85699462890625 0.6700000166893005,186.85699462890625 C-103.64299774169922,186.85699462890625 -188.2050018310547,102.29499816894531 -188.2050018310547,-2.0179998874664307 C-188.2050018310547,-106.33100128173828 -103.64299774169922,-190.8939971923828 0.6700000166893005,-190.8939971923828 C104.98300170898438,-190.8939971923828 189.5449981689453,-106.33100128173828 189.5449981689453,-2.0179998874664307z"></path><path stroke-linecap="butt" stroke-linejoin="miter" fill-opacity="0" stroke-miterlimit="10" stroke="rgb(247,126,65)" stroke-opacity="1" stroke-width="8" d=" M189.5449981689453,-2.0179998874664307 C189.5449981689453,102.29499816894531 104.98300170898438,186.85699462890625 0.6700000166893005,186.85699462890625 C-103.64299774169922,186.85699462890625 -188.2050018310547,102.29499816894531 -188.2050018310547,-2.0179998874664307 C-188.2050018310547,-106.33100128173828 -103.64299774169922,-190.8939971923828 0.6700000166893005,-190.8939971923828 C104.98300170898438,-190.8939971923828 189.5449981689453,-106.33100128173828 189.5449981689453,-2.0179998874664307z"></path></g><g opacity="1" transform="matrix(1,0,0,1,0,0)"><path fill="rgb(255,209,64)" fill-opacity="1" d=" M169.07699584960938,-1.305999994277954 C167.6199951171875,93.7229995727539 91.06600189208984,169.60299682617188 -1.9119999408721924,168.17799377441406 C-94.88999938964844,166.7530059814453 -169.08299255371094,88.56300354003906 -167.62600708007812,-6.466000080108643 C-166.16900634765625,-101.49500274658203 -89.61499786376953,-177.375 3.36299991607666,-175.9499969482422 C96.34100341796875,-174.52499389648438 170.53399658203125,-96.33499908447266 169.07699584960938,-1.305999994277954z"></path></g><g opacity="0.9" transform="matrix(1,0,0,1,0,0)"><path fill="rgb(255,223,121)" fill-opacity="1" d=" M149.93699645996094,-44.446998596191406 C149.93699645996094,28.195999145507812 83.10800170898438,-29.26799964904785 0.6700000166893005,-29.26799964904785 C-81.76799774169922,-29.26799964904785 -148.5970001220703,28.195999145507812 -148.5970001220703,-44.446998596191406 C-148.5970001220703,-117.08999633789062 -81.76799774169922,-175.97900390625 0.6700000166893005,-175.97900390625 C83.10800170898438,-175.97900390625 149.93699645996094,-117.08999633789062 149.93699645996094,-44.446998596191406z"></path></g><g opacity="1" transform="matrix(1,0,0,1,0,0)"><g opacity="1" transform="matrix(1,0,0,1,0,0)"><path stroke-linecap="round" stroke-linejoin="round" fill-opacity="0" stroke="rgb(255,255,255)" stroke-opacity="1" stroke-width="6" d=" M37.042999267578125,-171.75999450683594 C38.58100128173828,-171.4250030517578 40.17599868774414,-171.05499267578125 41.81999969482422,-170.6490020751953"></path></g><g opacity="1" transform="matrix(1,0,0,1,0,0)"><path stroke-linecap="round" stroke-linejoin="round" fill-opacity="0" stroke="rgb(255,255,255)" stroke-opacity="1" stroke-width="6" d=" M15.687999725341797,-174.97900390625 C15.687999725341797,-174.97900390625 20.55500030517578,-174.718994140625 28.277999877929688,-173.4409942626953"></path></g></g></g><g style="display: block;" transform="matrix(0.9999989867210388,0,0,0.9999989867210388,256,256)" opacity="1"><g opacity="1" transform="matrix(1,0,0,1,0,0)"><path fill="rgb(255,226,166)" fill-opacity="1" d=" M-119.6050033569336,24.898000717163086 C-104.03399658203125,33.86899948120117 -86.69100189208984,40.95500183105469 -76.40499877929688,40.95500183105469 C-66.11900329589844,40.95500183105469 -51.21799850463867,35.369998931884766 -33.59000015258789,25.027000427246094 C-24.64900016784668,19.7810001373291 -23.433000564575195,30.583999633789062 -28.062000274658203,37.65599822998047 C-32.691001892089844,44.72700119018555 -47.51900100708008,64.61299896240234 -76.40499877929688,64.61299896240234 C-105.29100036621094,64.61299896240234 -120.11900329589844,44.72700119018555 -124.74800109863281,37.65599822998047 C-129.3769989013672,30.583999633789062 -128.58700561523438,19.722999572753906 -119.6050033569336,24.898000717163086z"></path></g><g opacity="1" transform="matrix(1,0,0,1,0,0)"><path fill="rgb(134,63,20)" fill-opacity="1" d=" M-117.26200103759766,25.354999542236328 C-101.69100189208984,34.32600021362305 -86.69100189208984,35.95500183105469 -76.40499877929688,35.95500183105469 C-66.11900329589844,35.95500183105469 -53.17599868774414,35.698001861572266 -35.54800033569336,25.354999542236328 C-26.60700035095215,20.108999252319336 -23.433000564575195,25.583999633789062 -28.062000274658203,32.65599822998047 C-32.691001892089844,39.72700119018555 -47.51900100708008,59.612998962402344 -76.40499877929688,59.612998962402344 C-105.29100036621094,59.612998962402344 -120.11900329589844,39.72700119018555 -124.74800109863281,32.65599822998047 C-129.3769989013672,25.583999633789062 -126.24400329589844,20.18000030517578 -117.26200103759766,25.354999542236328z"></path></g><g opacity="1" transform="matrix(1,0,0,1,0,0)"><path fill="rgb(107,32,0)" fill-opacity="1" d=" M-125.7699966430664,30.85700035095215 C-124.30999755859375,29.60700035095215 -121.41000366210938,29.73699951171875 -117.26000213623047,32.12699890136719 C-101.69000244140625,41.09700012207031 -86.69000244140625,42.72700119018555 -76.4000015258789,42.72700119018555 C-66.12000274658203,42.72700119018555 -53.18000030517578,42.46699905395508 -35.54999923706055,32.12699890136719 C-31.399999618530273,29.69700050354004 -28.5,29.566999435424805 -27.030000686645508,30.836999893188477 C-24.040000915527344,24.707000732421875 -27.399999618530273,20.566999435424805 -35.54999923706055,25.35700035095215 C-53.18000030517578,35.696998596191406 -66.12000274658203,35.957000732421875 -76.4000015258789,35.957000732421875 C-86.69000244140625,35.957000732421875 -101.69000244140625,34.32699966430664 -117.26000213623047,25.35700035095215 C-125.45999908447266,20.62700080871582 -128.7899932861328,24.726999282836914 -125.7699966430664,30.85700035095215z"></path></g></g><g style="display: block;" transform="matrix(-0.9999989867210388,0,0,0.9999989867210388,257.0539855957031,256)" opacity="1"><g opacity="1" transform="matrix(1,0,0,1,0,0)"><path fill="rgb(255,226,166)" fill-opacity="1" d=" M-119.6050033569336,24.898000717163086 C-104.03399658203125,33.86899948120117 -86.69100189208984,40.95500183105469 -76.40499877929688,40.95500183105469 C-66.11900329589844,40.95500183105469 -51.21799850463867,35.369998931884766 -33.59000015258789,25.027000427246094 C-24.64900016784668,19.7810001373291 -23.433000564575195,30.583999633789062 -28.062000274658203,37.65599822998047 C-32.691001892089844,44.72700119018555 -47.51900100708008,64.61299896240234 -76.40499877929688,64.61299896240234 C-105.29100036621094,64.61299896240234 -120.11900329589844,44.72700119018555 -124.74800109863281,37.65599822998047 C-129.3769989013672,30.583999633789062 -128.58700561523438,19.722999572753906 -119.6050033569336,24.898000717163086z"></path></g><g opacity="1" transform="matrix(1,0,0,1,0,0)"><path fill="rgb(134,63,20)" fill-opacity="1" d=" M-117.26200103759766,25.354999542236328 C-101.69100189208984,34.32600021362305 -86.69100189208984,35.95500183105469 -76.40499877929688,35.95500183105469 C-66.11900329589844,35.95500183105469 -53.17599868774414,35.698001861572266 -35.54800033569336,25.354999542236328 C-26.60700035095215,20.108999252319336 -23.433000564575195,25.583999633789062 -28.062000274658203,32.65599822998047 C-32.691001892089844,39.72700119018555 -47.51900100708008,59.612998962402344 -76.40499877929688,59.612998962402344 C-105.29100036621094,59.612998962402344 -120.11900329589844,39.72700119018555 -124.74800109863281,32.65599822998047 C-129.3769989013672,25.583999633789062 -126.24400329589844,20.18000030517578 -117.26200103759766,25.354999542236328z"></path></g><g opacity="1" transform="matrix(1,0,0,1,0,0)"><path fill="rgb(107,32,0)" fill-opacity="1" d=" M-125.7699966430664,30.85700035095215 C-124.30999755859375,29.60700035095215 -121.41000366210938,29.73699951171875 -117.26000213623047,32.12699890136719 C-101.69000244140625,41.09700012207031 -86.69000244140625,42.72700119018555 -76.4000015258789,42.72700119018555 C-66.12000274658203,42.72700119018555 -53.18000030517578,42.46699905395508 -35.54999923706055,32.12699890136719 C-31.399999618530273,29.69700050354004 -28.5,29.566999435424805 -27.030000686645508,30.836999893188477 C-24.040000915527344,24.707000732421875 -27.399999618530273,20.566999435424805 -35.54999923706055,25.35700035095215 C-53.18000030517578,35.696998596191406 -66.12000274658203,35.957000732421875 -76.4000015258789,35.957000732421875 C-86.69000244140625,35.957000732421875 -101.69000244140625,34.32699966430664 -117.26000213623047,25.35700035095215 C-125.45999908447266,20.62700080871582 -128.7899932861328,24.726999282836914 -125.7699966430664,30.85700035095215z"></path></g></g><g style="display: block;" transform="matrix(0.9999989867210388,0,0,0.9999989867210388,256,256)" opacity="1"><g opacity="0.6" transform="matrix(1,0,0,1,0,0)"><path fill="rgb(255,177,57)" fill-opacity="1" d=" M32.72999954223633,127.70500183105469 C32.72999954223633,127.70500183105469 -31.391000747680664,127.70500183105469 -31.391000747680664,127.70500183105469 C-37.08599853515625,127.70500183105469 -41.744998931884766,123.0459976196289 -41.744998931884766,117.35099792480469 C-41.744998931884766,117.35099792480469 -41.744998931884766,113.19499969482422 -41.744998931884766,113.19499969482422 C-41.744998931884766,107.5 -37.08599853515625,102.84100341796875 -31.391000747680664,102.84100341796875 C-31.391000747680664,102.84100341796875 32.72999954223633,102.84100341796875 32.72999954223633,102.84100341796875 C38.42499923706055,102.84100341796875 43.084999084472656,107.5 43.084999084472656,113.19499969482422 C43.084999084472656,113.19499969482422 43.084999084472656,117.35099792480469 43.084999084472656,117.35099792480469 C43.084999084472656,123.0459976196289 38.42499923706055,127.70500183105469 32.72999954223633,127.70500183105469z"></path></g><g opacity="1" transform="matrix(1,0,0,1,0,0)"><path fill="rgb(255,226,166)" fill-opacity="1" d=" M32.72999954223633,133.7050018310547 C32.72999954223633,133.7050018310547 -31.391000747680664,133.7050018310547 -31.391000747680664,133.7050018310547 C-37.08599853515625,133.7050018310547 -41.744998931884766,129.04600524902344 -41.744998931884766,123.35099792480469 C-41.744998931884766,123.35099792480469 -41.744998931884766,119.19499969482422 -41.744998931884766,119.19499969482422 C-41.744998931884766,113.5 -37.08599853515625,108.84100341796875 -31.391000747680664,108.84100341796875 C-31.391000747680664,108.84100341796875 32.72999954223633,108.84100341796875 32.72999954223633,108.84100341796875 C38.42499923706055,108.84100341796875 43.084999084472656,113.5 43.084999084472656,119.19499969482422 C43.084999084472656,119.19499969482422 43.084999084472656,123.35099792480469 43.084999084472656,123.35099792480469 C43.084999084472656,129.04600524902344 38.42499923706055,133.7050018310547 32.72999954223633,133.7050018310547z"></path></g><g opacity="1" transform="matrix(1,0,0,1,0,0)"><path fill="rgb(134,63,20)" fill-opacity="1" d=" M31.36400032043457,127.86799621582031 C31.36400032043457,127.86799621582031 -30.024999618530273,127.86799621582031 -30.024999618530273,127.86799621582031 C-35.720001220703125,127.86799621582031 -40.37900161743164,123.20899963378906 -40.37900161743164,117.51399993896484 C-40.37900161743164,117.51399993896484 -40.37900161743164,117.51399993896484 -40.37900161743164,117.51399993896484 C-40.37900161743164,111.81900024414062 -35.720001220703125,107.15899658203125 -30.024999618530273,107.15899658203125 C-30.024999618530273,107.15899658203125 31.36400032043457,107.15899658203125 31.36400032043457,107.15899658203125 C37.058998107910156,107.15899658203125 41.71900177001953,111.81900024414062 41.71900177001953,117.51399993896484 C41.71900177001953,117.51399993896484 41.71900177001953,117.51399993896484 41.71900177001953,117.51399993896484 C41.71900177001953,123.20899963378906 37.058998107910156,127.86799621582031 31.36400032043457,127.86799621582031z"></path></g><g opacity="1" transform="matrix(1,0,0,1,0,0)"><path fill="rgb(107,32,0)" fill-opacity="1" d=" M41.715999603271484,117.51699829101562 C41.715999603271484,118.677001953125 41.5260009765625,119.7969970703125 41.16600036621094,120.83699798583984 C39.7760009765625,116.74700164794922 35.895999908447266,113.78700256347656 31.365999221801758,113.78700256347656 C31.365999221801758,113.78700256347656 -30.02400016784668,113.78700256347656 -30.02400016784668,113.78700256347656 C-32.874000549316406,113.78700256347656 -35.4640007019043,114.9469985961914 -37.33399963378906,116.8270034790039 C-38.45399856567383,117.9469985961914 -39.31399917602539,119.30699920654297 -39.82400131225586,120.83699798583984 C-40.183998107910156,119.7969970703125 -40.374000549316406,118.677001953125 -40.374000549316406,117.51699829101562 C-40.374000549316406,114.66699981689453 -39.2140007019043,112.0770034790039 -37.33399963378906,110.1969985961914 C-35.4640007019043,108.3270034790039 -32.874000549316406,107.15699768066406 -30.02400016784668,107.15699768066406 C-30.02400016784668,107.15699768066406 31.365999221801758,107.15699768066406 31.365999221801758,107.15699768066406 C37.055999755859375,107.15699768066406 41.715999603271484,111.81700134277344 41.715999603271484,117.51699829101562z"></path></g></g><g style="display: block;" transform="matrix(0.9999989867210388,0,0,0.9999989867210388,256,256)" opacity="1"><g opacity="1" transform="matrix(1,0,0,1,0,0)"><g opacity="1" transform="matrix(1,0,0,1,0,0)"><path fill="rgb(255,238,189)" fill-opacity="1" d=" M146.50100708007812,-21.659000396728516 C145.13699340820312,-20.457000732421875 141.25999450683594,-19.04599952697754 138.14100646972656,-18.420000076293945 C124.62699890136719,-15.706000328063965 98.7490005493164,-20.434999465942383 81.3550033569336,-36.882999420166016 C56.584999084472656,-60.30500030517578 65.41799926757812,-76.19499969482422 70.88600158691406,-71.4530029296875 C76.35399627685547,-66.71099853515625 94.80899810791016,-43.45800018310547 125.46499633789062,-36.332000732421875 C133.6790008544922,-34.422000885009766 140.88900756835938,-36.448001861572266 145.343994140625,-34.9900016784668 C151.22900390625,-33.06399917602539 151.51100158691406,-26.073999404907227 146.50100708007812,-21.659000396728516z"></path></g><g opacity="1" transform="matrix(1,0,0,1,0,0)"><path fill="rgb(134,63,20)" fill-opacity="1" d=" M146.8990020751953,-26.593000411987305 C145.6020050048828,-25.319000244140625 142.0050048828125,-23.65399932861328 138.88600158691406,-23.027999877929688 C125.37200164794922,-20.31399917602539 101.7750015258789,-23.577999114990234 84.38099670410156,-40.0260009765625 C59.611000061035156,-63.448001861572266 65.41799926757812,-76.19499969482422 70.88600158691406,-71.4530029296875 C76.35399627685547,-66.71099853515625 94.7020034790039,-46.417999267578125 125.35800170898438,-39.29199981689453 C133.57200622558594,-37.38199996948242 139.58999633789062,-36.9370002746582 144.0449981689453,-35.479000091552734 C149.92999267578125,-33.553001403808594 150.45899963378906,-30.09000015258789 146.8990020751953,-26.593000411987305z"></path></g><g opacity="1" transform="matrix(1,0,0,1,0,0)"><path fill="rgb(107,32,0)" fill-opacity="1" d=" M147.9290008544922,-27.76300048828125 C147.10899353027344,-28.572999954223633 145.81900024414062,-29.292999267578125 144.0489959716797,-29.87299919128418 C139.58900451660156,-31.33300018310547 133.56900024414062,-31.783000946044922 125.35900115966797,-33.69300079345703 C94.6989974975586,-40.8129997253418 76.3489990234375,-61.112998962402344 70.88899993896484,-65.85299682617188 C69.11900329589844,-67.38300323486328 67.31999969482422,-67.09300231933594 66.5199966430664,-65.2030029296875 C64.9800033569336,-71.5530014038086 67.97899627685547,-73.9729995727539 70.88899993896484,-71.4530029296875 C76.3489990234375,-66.71299743652344 94.6989974975586,-46.41299819946289 125.35900115966797,-39.292999267578125 C133.56900024414062,-37.382999420166016 139.58900451660156,-36.93299865722656 144.0489959716797,-35.483001708984375 C149.2689971923828,-33.77299880981445 150.2689971923828,-30.85300064086914 147.9290008544922,-27.76300048828125z"></path></g></g></g><g style="display: block;" transform="matrix(-0.9999989867210388,0,0,0.9999989867210388,254.79800415039062,256)" opacity="1"><g opacity="1" transform="matrix(1,0,0,1,0,0)"><g opacity="1" transform="matrix(1,0,0,1,0,0)"><path fill="rgb(255,238,189)" fill-opacity="1" d=" M146.50100708007812,-21.659000396728516 C145.13699340820312,-20.457000732421875 141.25999450683594,-19.04599952697754 138.14100646972656,-18.420000076293945 C124.62699890136719,-15.706000328063965 98.7490005493164,-20.434999465942383 81.3550033569336,-36.882999420166016 C56.584999084472656,-60.30500030517578 65.41799926757812,-76.19499969482422 70.88600158691406,-71.4530029296875 C76.35399627685547,-66.71099853515625 94.80899810791016,-43.45800018310547 125.46499633789062,-36.332000732421875 C133.6790008544922,-34.422000885009766 140.88900756835938,-36.448001861572266 145.343994140625,-34.9900016784668 C151.22900390625,-33.06399917602539 151.51100158691406,-26.073999404907227 146.50100708007812,-21.659000396728516z"></path></g><g opacity="1" transform="matrix(1,0,0,1,0,0)"><path fill="rgb(134,63,20)" fill-opacity="1" d=" M146.8990020751953,-26.593000411987305 C145.6020050048828,-25.319000244140625 142.0050048828125,-23.65399932861328 138.88600158691406,-23.027999877929688 C125.37200164794922,-20.31399917602539 101.7750015258789,-23.577999114990234 84.38099670410156,-40.0260009765625 C59.611000061035156,-63.448001861572266 65.41799926757812,-76.19499969482422 70.88600158691406,-71.4530029296875 C76.35399627685547,-66.71099853515625 94.7020034790039,-46.417999267578125 125.35800170898438,-39.29199981689453 C133.57200622558594,-37.38199996948242 139.58999633789062,-36.9370002746582 144.0449981689453,-35.479000091552734 C149.92999267578125,-33.553001403808594 150.45899963378906,-30.09000015258789 146.8990020751953,-26.593000411987305z"></path></g><g opacity="1" transform="matrix(1,0,0,1,0,0)"><path fill="rgb(107,32,0)" fill-opacity="1" d=" M147.9290008544922,-27.76300048828125 C147.10899353027344,-28.572999954223633 145.81900024414062,-29.292999267578125 144.0489959716797,-29.87299919128418 C139.58900451660156,-31.33300018310547 133.56900024414062,-31.783000946044922 125.35900115966797,-33.69300079345703 C94.6989974975586,-40.8129997253418 76.3489990234375,-61.112998962402344 70.88899993896484,-65.85299682617188 C69.11900329589844,-67.38300323486328 67.31999969482422,-67.09300231933594 66.5199966430664,-65.2030029296875 C64.9800033569336,-71.5530014038086 67.97899627685547,-73.9729995727539 70.88899993896484,-71.4530029296875 C76.3489990234375,-66.71299743652344 94.6989974975586,-46.41299819946289 125.35900115966797,-39.292999267578125 C133.56900024414062,-37.382999420166016 139.58900451660156,-36.93299865722656 144.0489959716797,-35.483001708984375 C149.2689971923828,-33.77299880981445 150.2689971923828,-30.85300064086914 147.9290008544922,-27.76300048828125z"></path></g></g></g></g></svg>