<svg xmlns="http://www.w3.org/2000/svg" viewBox="0 0 512 512" width="512" height="512" style="width: 100%; height: 100%; transform: translate3d(0,0,0);" preserveAspectRatio="xMidYMid meet"><defs><clipPath id="__lottie_element_6957"><rect width="512" height="512" x="0" y="0"></rect></clipPath><linearGradient id="__lottie_element_6977" spreadMethod="pad" gradientUnits="userSpaceOnUse" x1="-122" y1="77" x2="121.68099975585938" y2="77"><stop offset="0%" stop-color="rgb(202,202,201)"></stop><stop offset="22%" stop-color="rgb(227,227,227)"></stop><stop offset="50%" stop-color="rgb(253,253,253)"></stop><stop offset="78%" stop-color="rgb(229,229,229)"></stop><stop offset="100%" stop-color="rgb(206,206,205)"></stop></linearGradient><linearGradient id="__lottie_element_6978" spreadMethod="pad" gradientUnits="userSpaceOnUse" x1="-122" y1="37" x2="121.6729965209961" y2="37"><stop offset="0%" stop-color="rgb(202,202,201)"></stop><stop offset="22%" stop-color="rgb(227,227,227)"></stop><stop offset="50%" stop-color="rgb(253,253,253)"></stop><stop offset="78%" stop-color="rgb(229,229,229)"></stop><stop offset="100%" stop-color="rgb(206,206,205)"></stop></linearGradient></defs><g clip-path="url(#__lottie_element_6957)"><g style="display: none;"><g><path></path></g><g><g><path></path></g><g><path></path></g></g><g><path></path></g><g><g><path stroke-linecap="round" stroke-linejoin="round" fill-opacity="0"></path></g></g><g><path stroke-linecap="round" stroke-linejoin="round" fill-opacity="0"></path></g></g><g style="display: none;"><g><path></path></g><g><g><path></path></g><g><path></path></g></g><g><path></path></g><g><g><path stroke-linecap="round" stroke-linejoin="round" fill-opacity="0"></path></g></g><g><path stroke-linecap="round" stroke-linejoin="round" fill-opacity="0"></path></g></g><g style="display: none;"><g><path></path></g><g><g><path></path></g><g><path></path></g></g><g><path></path></g><g><g><path stroke-linecap="round" stroke-linejoin="round" fill-opacity="0"></path></g></g><g><path stroke-linecap="round" stroke-linejoin="round" fill-opacity="0"></path></g></g><g style="display: block;" transform="matrix(1,0,0,1,256,256)" opacity="1"><g opacity="0.1" transform="matrix(1,0,0,1,0,0)"><path fill="rgb(0,0,0)" fill-opacity="1" d=" M196.0800018310547,3.924999952316284 C196.0800018310547,112.18599700927734 108.31700134277344,199.9499969482422 0.0560000017285347,199.9499969482422 C-108.20500183105469,199.9499969482422 -195.968994140625,112.18599700927734 -195.968994140625,3.924999952316284 C-195.968994140625,-104.33599853515625 -108.20500183105469,-192.0989990234375 0.0560000017285347,-192.0989990234375 C108.31700134277344,-192.0989990234375 196.0800018310547,-104.33599853515625 196.0800018310547,3.924999952316284z"></path></g><g opacity="1" transform="matrix(1,0,0,1,0,0)"><g opacity="1" transform="matrix(1,0,0,1,0,0)"><path fill="rgb(255,173,0)" fill-opacity="1" d=" M188.93099975585938,-11.074999809265137 C188.93099975585938,93.23799896240234 104.36900329589844,177.80099487304688 0.0560000017285347,177.80099487304688 C-104.25700378417969,177.80099487304688 -188.82000732421875,93.23799896240234 -188.82000732421875,-11.074999809265137 C-188.82000732421875,-115.38800048828125 -104.25700378417969,-199.9499969482422 0.0560000017285347,-199.9499969482422 C104.36900329589844,-199.9499969482422 188.93099975585938,-115.38800048828125 188.93099975585938,-11.074999809265137z"></path><path stroke-linecap="round" stroke-linejoin="round" fill-opacity="0" stroke="rgb(255,118,42)" stroke-opacity="1" stroke-width="8" d=" M188.93099975585938,-11.074999809265137 C188.93099975585938,93.23799896240234 104.36900329589844,177.80099487304688 0.0560000017285347,177.80099487304688 C-104.25700378417969,177.80099487304688 -188.82000732421875,93.23799896240234 -188.82000732421875,-11.074999809265137 C-188.82000732421875,-115.38800048828125 -104.25700378417969,-199.9499969482422 0.0560000017285347,-199.9499969482422 C104.36900329589844,-199.9499969482422 188.93099975585938,-115.38800048828125 188.93099975585938,-11.074999809265137z"></path></g><g opacity="1" transform="matrix(1,0,0,1,0,0)"><path fill="rgb(255,207,0)" fill-opacity="1" d=" M168.46299743652344,-10.362000465393066 C167.00599670410156,84.66600036621094 90.4520034790039,160.5469970703125 -2.5260000228881836,159.1219940185547 C-95.50399780273438,157.69700622558594 -169.6959991455078,79.50599670410156 -168.24000549316406,-15.52299976348877 C-166.7830047607422,-110.5510025024414 -90.2300033569336,-186.4320068359375 2.747999906539917,-185.0070037841797 C95.72599792480469,-183.58200073242188 169.9199981689453,-105.39099884033203 168.46299743652344,-10.362000465393066z"></path></g><g opacity="0.9" transform="matrix(1,0,0,1,0,0)"><path fill="rgb(255,222,102)" fill-opacity="1" d=" M149.322998046875,-53.50299835205078 C149.322998046875,19.139999389648438 82.49400329589844,-38.32500076293945 0.0560000017285347,-38.32500076293945 C-82.38200378417969,-38.32500076293945 -149.21200561523438,19.139999389648438 -149.21200561523438,-53.50299835205078 C-149.21200561523438,-126.14600372314453 -82.38200378417969,-185.03599548339844 0.0560000017285347,-185.03599548339844 C82.49400329589844,-185.03599548339844 149.322998046875,-126.14600372314453 149.322998046875,-53.50299835205078z"></path></g><g opacity="1" transform="matrix(1,0,0,1,0,0)"><g opacity="1" transform="matrix(1,0,0,1,0,0)"><path stroke-linecap="round" stroke-linejoin="round" fill-opacity="0" stroke="rgb(255,255,255)" stroke-opacity="1" stroke-width="6" d=" M36.428001403808594,-180.8159942626953 C37.965999603271484,-180.4810028076172 39.5620002746582,-180.11199951171875 41.20600128173828,-179.70599365234375"></path></g><g opacity="1" transform="matrix(1,0,0,1,0,0)"><path stroke-linecap="round" stroke-linejoin="round" fill-opacity="0" stroke="rgb(255,255,255)" stroke-opacity="1" stroke-width="6" d=" M15.074000358581543,-184.03599548339844 C15.074000358581543,-184.03599548339844 19.94099998474121,-183.77499389648438 27.663999557495117,-182.4969940185547"></path></g></g></g></g><g style="display: block;" transform="matrix(1,0,0,1,256,256)" opacity="1"><g opacity="1" transform="matrix(1,0,0,1,0,0)"><path fill="url(#__lottie_element_6977)" fill-opacity="1" d=" M-121.7300033569336,61.55799865722656 C-120.82599639892578,79.87000274658203 -105.69400024414062,94.44000244140625 -87.15799713134766,94.44000244140625 C-87.15799713134766,94.44000244140625 87.37999725341797,94.44000244140625 87.37999725341797,94.44000244140625 C105.91600036621094,94.44000244140625 121.04900360107422,79.87000274658203 121.9520034790039,61.55799865722656 C121.9520034790039,61.55799865722656 -121.7300033569336,61.55799865722656 -121.7300033569336,61.55799865722656z"></path></g><g opacity="1" transform="matrix(1,0,0,1,0,0)"><path fill="url(#__lottie_element_6978)" fill-opacity="1" d=" M-121.7249984741211,53.527000427246094 C-121.7249984741211,53.527000427246094 121.9469985961914,53.527000427246094 121.9469985961914,53.527000427246094 C120.9990005493164,35.25699996948242 105.88600158691406,20.733999252319336 87.37999725341797,20.733999252319336 C87.37999725341797,20.733999252319336 -87.15799713134766,20.733999252319336 -87.15799713134766,20.733999252319336 C-105.66500091552734,20.733999252319336 -120.7770004272461,35.25699996948242 -121.7249984741211,53.527000427246094z"></path></g><g opacity="1" transform="matrix(1,0,0,1,0,0)"><g opacity="1" transform="matrix(1,0,0,1,0,0)"><path stroke-linecap="butt" stroke-linejoin="miter" fill-opacity="0" stroke-miterlimit="10" stroke="rgb(172,160,155)" stroke-opacity="1" stroke-width="5" d=" M0.11100000143051147,20.733999252319336 C0.11100000143051147,20.733999252319336 0.11100000143051147,94.44000244140625 0.11100000143051147,94.44000244140625"></path></g><g opacity="1" transform="matrix(1,0,0,1,0,0)"><path stroke-linecap="butt" stroke-linejoin="miter" fill-opacity="0" stroke-miterlimit="10" stroke="rgb(172,160,155)" stroke-opacity="1" stroke-width="5" d=" M-44.89099884033203,20.733999252319336 C-44.89099884033203,20.733999252319336 -44.89099884033203,94.44000244140625 -44.89099884033203,94.44000244140625"></path></g><g opacity="1" transform="matrix(1,0,0,1,0,0)"><path stroke-linecap="butt" stroke-linejoin="miter" fill-opacity="0" stroke-miterlimit="10" stroke="rgb(172,160,155)" stroke-opacity="1" stroke-width="5" d=" M-89.17500305175781,20.733999252319336 C-89.17500305175781,20.733999252319336 -89.17500305175781,94.44000244140625 -89.17500305175781,94.44000244140625"></path></g><g opacity="1" transform="matrix(1,0,0,1,0,0)"><path stroke-linecap="butt" stroke-linejoin="miter" fill-opacity="0" stroke-miterlimit="10" stroke="rgb(172,160,155)" stroke-opacity="1" stroke-width="5" d=" M89.08300018310547,20.733999252319336 C89.08300018310547,20.733999252319336 89.08300018310547,94.44000244140625 89.08300018310547,94.44000244140625"></path></g><g opacity="1" transform="matrix(1,0,0,1,0,0)"><path stroke-linecap="butt" stroke-linejoin="miter" fill-opacity="0" stroke-miterlimit="10" stroke="rgb(172,160,155)" stroke-opacity="1" stroke-width="5" d=" M47.65800094604492,20.733999252319336 C47.65800094604492,20.733999252319336 47.65800094604492,94.44000244140625 47.65800094604492,94.44000244140625"></path></g></g><g opacity="1" transform="matrix(1,0,0,1,0,0)"><path stroke-linecap="round" stroke-linejoin="round" fill-opacity="0" stroke="rgb(107,32,0)" stroke-opacity="1" stroke-width="8" d=" M87.37999725341797,94.44000244140625 C87.37999725341797,94.44000244140625 -87.15799713134766,94.44000244140625 -87.15799713134766,94.44000244140625 C-106.2760009765625,94.44000244140625 -121.72899627685547,79.75 -121.77300262451172,57.58700180053711 C-121.81600189208984,35.875 -106.2760009765625,20.733999252319336 -87.15799713134766,20.733999252319336 C-87.15799713134766,20.733999252319336 87.37999725341797,20.733999252319336 87.37999725341797,20.733999252319336 C106.49800109863281,20.733999252319336 121.99600219726562,36.125 121.99600219726562,57.58700180053711 C121.99600219726562,80 106.49800109863281,94.44000244140625 87.37999725341797,94.44000244140625z"></path></g><g opacity="1" transform="matrix(1,0,0,1,0,0)"><path stroke-linecap="butt" stroke-linejoin="miter" fill-opacity="0" stroke-miterlimit="10" stroke="rgb(107,32,0)" stroke-opacity="1" stroke-width="8" d=" M-121.77300262451172,57.58700180053711 C-121.77300262451172,57.58700180053711 0.8880000114440918,57.58700180053711 0.8880000114440918,57.58700180053711 C0.8880000114440918,57.58700180053711 121.99600219726562,57.58700180053711 121.99600219726562,57.58700180053711"></path></g></g><g style="display: block;" transform="matrix(1,0,0,1,256,256)" opacity="1"><g opacity="1" transform="matrix(1,0,0,1,0,0)"><g opacity="1" transform="matrix(1,0,0,1,0,0)"><path fill="rgb(255,173,0)" fill-opacity="1" d=" M-31.91200065612793,-50.79999923706055 C-31.91200065612793,-35.82699966430664 -42.2760009765625,-23.687999725341797 -55.06100082397461,-23.687999725341797 C-67.84600067138672,-23.687999725341797 -78.20999908447266,-35.82699966430664 -78.20999908447266,-50.79999923706055 C-78.20999908447266,-65.77300262451172 -67.84600067138672,-77.91100311279297 -55.06100082397461,-77.91100311279297 C-42.2760009765625,-77.91100311279297 -31.91200065612793,-65.77300262451172 -31.91200065612793,-50.79999923706055z"></path></g><g opacity="1" transform="matrix(1,0,0,1,0,0)"><path fill="rgb(255,225,156)" fill-opacity="1" d=" M-31.91200065612793,-41.05400085449219 C-31.91200065612793,-26.08099937438965 -42.2760009765625,-13.942000389099121 -55.06100082397461,-13.942000389099121 C-67.84600067138672,-13.942000389099121 -78.20999908447266,-26.08099937438965 -78.20999908447266,-41.05400085449219 C-78.20999908447266,-56.027000427246094 -67.84600067138672,-68.16500091552734 -55.06100082397461,-68.16500091552734 C-42.2760009765625,-68.16500091552734 -31.91200065612793,-56.027000427246094 -31.91200065612793,-41.05400085449219z"></path></g><g opacity="1" transform="matrix(1,0,0,1,0,0)"><path fill="rgb(143,58,0)" fill-opacity="1" d=" M-76.76300048828125,-46.26900100708008 C-76.76300048828125,-61.242000579833984 -67.0469970703125,-73.38099670410156 -55.06100082397461,-73.38099670410156 C-43.07500076293945,-73.38099670410156 -33.35900115966797,-61.242000579833984 -33.35900115966797,-46.26900100708008 C-33.35900115966797,-31.29599952697754 -43.07500076293945,-19.158000946044922 -55.06100082397461,-19.158000946044922 C-67.0469970703125,-19.158000946044922 -76.76300048828125,-31.29599952697754 -76.76300048828125,-46.26900100708008z"></path></g><g opacity="1" transform="matrix(1,0,0,1,0,0)"><path fill="rgb(107,32,0)" fill-opacity="1" d=" M-33.361000061035156,-46.27000045776367 C-33.361000061035156,-61.24599838256836 -43.069000244140625,-73.37999725341797 -55.05500030517578,-73.37999725341797 C-67.04100036621094,-73.37999725341797 -76.75900268554688,-61.24599838256836 -76.75900268554688,-46.27000045776367 C-76.75900268554688,-37.92100143432617 -73.74299621582031,-30.45800018310547 -68.99199676513672,-25.488000869750977 C-72.46199798583984,-29.760000228881836 -74.59100341796875,-35.60599899291992 -74.59100341796875,-42.0629997253418 C-74.59100341796875,-55.16299819946289 -65.79900360107422,-66.58999633789062 -54.957000732421875,-66.58999633789062 C-44.1150016784668,-66.58999633789062 -35.332000732421875,-55.16299819946289 -35.332000732421875,-42.0629997253418 C-35.332000732421875,-36.32899856567383 -37.016998291015625,-31.08300018310547 -39.80699920654297,-26.98200035095215 C-35.82500076293945,-31.895000457763672 -33.361000061035156,-38.724998474121094 -33.361000061035156,-46.27000045776367z"></path></g></g><g opacity="1" transform="matrix(1,0,0,1,0,0)"><g opacity="1" transform="matrix(1,0,0,1,0,0)"><path fill="rgb(255,173,0)" fill-opacity="1" d=" M77.71600341796875,-50.79999923706055 C77.71600341796875,-35.82699966430664 67.35199737548828,-23.687999725341797 54.56700134277344,-23.687999725341797 C41.78200149536133,-23.687999725341797 31.417999267578125,-35.82699966430664 31.417999267578125,-50.79999923706055 C31.417999267578125,-65.77300262451172 41.78200149536133,-77.91100311279297 54.56700134277344,-77.91100311279297 C67.35199737548828,-77.91100311279297 77.71600341796875,-65.77300262451172 77.71600341796875,-50.79999923706055z"></path></g><g opacity="1" transform="matrix(1,0,0,1,0,0)"><path fill="rgb(255,225,156)" fill-opacity="1" d=" M77.71600341796875,-41.05400085449219 C77.71600341796875,-26.08099937438965 67.35199737548828,-13.942000389099121 54.56700134277344,-13.942000389099121 C41.78200149536133,-13.942000389099121 31.417999267578125,-26.08099937438965 31.417999267578125,-41.05400085449219 C31.417999267578125,-56.027000427246094 41.78200149536133,-68.16500091552734 54.56700134277344,-68.16500091552734 C67.35199737548828,-68.16500091552734 77.71600341796875,-56.027000427246094 77.71600341796875,-41.05400085449219z"></path></g><g opacity="1" transform="matrix(1,0,0,1,0,0)"><path fill="rgb(143,58,0)" fill-opacity="1" d=" M32.8650016784668,-46.26900100708008 C32.8650016784668,-61.242000579833984 42.58100128173828,-73.38099670410156 54.56700134277344,-73.38099670410156 C66.5530014038086,-73.38099670410156 76.26899719238281,-61.242000579833984 76.26899719238281,-46.26900100708008 C76.26899719238281,-31.29599952697754 66.5530014038086,-19.158000946044922 54.56700134277344,-19.158000946044922 C42.58100128173828,-19.158000946044922 32.8650016784668,-31.29599952697754 32.8650016784668,-46.26900100708008z"></path></g><g opacity="1" transform="matrix(1,0,0,1,0,0)"><path fill="rgb(107,32,0)" fill-opacity="1" d=" M76.26699829101562,-46.27000045776367 C76.26699829101562,-61.24599838256836 66.55899810791016,-73.37999725341797 54.573001861572266,-73.37999725341797 C42.58700180053711,-73.37999725341797 32.86899948120117,-61.24599838256836 32.86899948120117,-46.27000045776367 C32.86899948120117,-37.92100143432617 35.8849983215332,-30.45800018310547 40.63600158691406,-25.488000869750977 C37.16699981689453,-29.760000228881836 35.0369987487793,-35.60599899291992 35.0369987487793,-42.0629997253418 C35.0369987487793,-55.16299819946289 43.82899856567383,-66.58999633789062 54.67100143432617,-66.58999633789062 C65.51300048828125,-66.58999633789062 74.2959976196289,-55.16299819946289 74.2959976196289,-42.0629997253418 C74.2959976196289,-36.32899856567383 72.61000061035156,-31.08300018310547 69.82099914550781,-26.98200035095215 C73.8030014038086,-31.895000457763672 76.26699829101562,-38.724998474121094 76.26699829101562,-46.27000045776367z"></path></g></g></g><g style="display: none;"><g><path></path></g><g><path></path></g><g><g><path></path></g><g><path></path></g></g><g><path></path></g><g><g><path stroke-linecap="round" stroke-linejoin="round" fill-opacity="0"></path></g></g><g><path stroke-linecap="round" stroke-linejoin="round" fill-opacity="0"></path></g></g><g style="display: none;"><g><path></path></g><g><path></path></g><g><g><path></path></g><g><path></path></g></g><g><path></path></g><g><g><path stroke-linecap="round" stroke-linejoin="round" fill-opacity="0"></path></g></g><g><path stroke-linecap="round" stroke-linejoin="round" fill-opacity="0"></path></g></g><g style="display: none;"><g><path></path></g><g><path></path></g><g><g><path></path></g><g><path></path></g></g><g><path></path></g><g><g><path stroke-linecap="round" stroke-linejoin="round" fill-opacity="0"></path></g></g><g><path stroke-linecap="round" stroke-linejoin="round" fill-opacity="0"></path></g></g></g></svg>