<svg xmlns="http://www.w3.org/2000/svg" viewBox="0 0 512 512" width="512" height="512" style="width: 100%; height: 100%; transform: translate3d(0,0,0);" preserveAspectRatio="xMidYMid meet"><defs><clipPath id="__lottie_element_6989"><rect width="512" height="512" x="0" y="0"></rect></clipPath><clipPath id="__lottie_element_6991"><path d="M0,0 L512,0 L512,512 L0,512z"></path></clipPath><radialGradient id="__lottie_element_7023" spreadMethod="pad" gradientUnits="userSpaceOnUse" cx="-1.3669999837875366" cy="-72.27300262451172" r="94.65500199794769" fx="-1.3669999837875366" fy="-72.27300262451172"><stop offset="0%" stop-color="rgb(255,255,255)"></stop><stop offset="68%" stop-color="rgb(251,247,213)"></stop><stop offset="100%" stop-color="rgb(248,239,172)"></stop></radialGradient><clipPath id="__lottie_element_7030"><path d="M0,0 L512,0 L512,512 L0,512z"></path></clipPath><radialGradient id="__lottie_element_7062" spreadMethod="pad" gradientUnits="userSpaceOnUse"><stop></stop><stop></stop><stop></stop></radialGradient></defs><g clip-path="url(#__lottie_element_6989)"><g clip-path="url(#__lottie_element_7030)" style="display: none;"><g style="display: none;"><g><g><path></path></g><g><path></path></g><g><path stroke-linecap="butt" stroke-linejoin="miter" fill-opacity="0" stroke-miterlimit="10"></path></g><g><g><path stroke-linecap="round" stroke-linejoin="round" fill-opacity="0"></path></g><g><path stroke-linecap="round" stroke-linejoin="round" fill-opacity="0"></path></g></g></g></g><g style="display: none;"><g><g><path></path></g><g><path fill="url(#__lottie_element_7062)"></path></g><g><path stroke-linecap="butt" stroke-linejoin="miter" fill-opacity="0" stroke-miterlimit="10"></path></g><g><g><path stroke-linecap="round" stroke-linejoin="round" fill-opacity="0"></path></g><g><path stroke-linecap="round" stroke-linejoin="round" fill-opacity="0"></path></g></g></g></g><g style="display: none;"><g><path stroke-linecap="round" stroke-linejoin="round" fill-opacity="0"></path></g><g><path stroke-linecap="round" stroke-linejoin="round" fill-opacity="0"></path></g></g><g style="display: none;"><g><path></path><path stroke-linecap="butt" stroke-linejoin="miter" fill-opacity="0" stroke-miterlimit="10"></path></g><g><path></path></g><g><path></path></g><g><path></path></g><g><path></path></g><g><path></path></g><g><path></path></g><g><path stroke-linecap="butt" stroke-linejoin="miter" fill-opacity="0" stroke-miterlimit="10"></path></g><g><path stroke-linecap="butt" stroke-linejoin="miter" fill-opacity="0" stroke-miterlimit="10"></path></g><g><path stroke-linecap="butt" stroke-linejoin="miter" fill-opacity="0" stroke-miterlimit="10"></path></g><g><path stroke-linecap="butt" stroke-linejoin="miter" fill-opacity="0" stroke-miterlimit="10"></path></g></g><g style="display: none;"><g><path stroke-linecap="round" stroke-linejoin="round" fill-opacity="0"></path></g></g><g style="display: none;"><g><path stroke-linecap="round" stroke-linejoin="round" fill-opacity="0"></path></g></g><g style="display: none;"><g><path stroke-linecap="round" stroke-linejoin="round" fill-opacity="0"></path></g></g><g style="display: none;"><g><path stroke-linecap="round" stroke-linejoin="round" fill-opacity="0"></path></g></g><g style="display: none;"><g><path stroke-linecap="round" stroke-linejoin="round" fill-opacity="0"></path></g></g><g style="display: none;"><g><path stroke-linecap="round" stroke-linejoin="round" fill-opacity="0"></path></g></g><g style="display: none;"><g><path stroke-linecap="round" stroke-linejoin="round" fill-opacity="0"></path></g></g></g><g clip-path="url(#__lottie_element_6991)" style="display: block;" transform="matrix(1,0,0,1,0,0)" opacity="1"><g style="display: block;" transform="matrix(0.9992640614509583,-0.03835858404636383,0.03835858404636383,0.9992640614509583,251.47369384765625,280.08685302734375)" opacity="1"><g opacity="1" transform="matrix(1,0,0,1,0,0)"><g opacity="1" transform="matrix(1,0,0,1,0,0)"><path fill="rgb(186,179,171)" fill-opacity="0.3" d=" M111.4020004272461,-74.39399719238281 C111.32599639892578,-45.652000427246094 100.6969985961914,-19.386999130249023 83.18199920654297,0.7229999899864197 C63.22100067138672,23.642000198364258 51.167999267578125,52.279998779296875 49.207000732421875,82.4219970703125 C48.88800048828125,87.32099914550781 44.87099838256836,91.15399932861328 39.96099853515625,91.15399932861328 C39.96099853515625,91.15399932861328 -46.94599914550781,91.16300201416016 -46.94599914550781,91.16300201416016 C-51.85499954223633,91.16300201416016 -55.87200164794922,87.33300018310547 -56.19300079345703,82.43499755859375 C-58.16999816894531,52.22600173950195 -70.34300231933594,23.576000213623047 -90.31199645996094,0.5609999895095825 C-107.80699920654297,-19.60300064086914 -118.39700317382812,-45.917999267578125 -118.39700317382812,-74.7030029296875 C-118.39700317382812,-138.6490020751953 -66.16600036621094,-190.38999938964844 -2.0369999408721924,-189.593994140625 C61.220001220703125,-188.80799865722656 111.56900024414062,-137.65499877929688 111.4020004272461,-74.39399719238281z"></path></g><g opacity="1" transform="matrix(1,0,0,1,0,0)"><path fill="rgb(186,179,171)" fill-opacity="0.3" d=" M95.11399841308594,-70.82499694824219 C95.25700378417969,-125.11799621582031 52.04499816894531,-169.02000427246094 -2.24399995803833,-169.69400024414062 C-57.28200149536133,-170.3780059814453 -102.10900115966797,-125.97100067138672 -102.10900115966797,-71.08999633789062 C-102.10900115966797,-46.38600158691406 -93.0199966430664,-23.801000595092773 -78.00499725341797,-6.495999813079834 C-60.867000579833984,13.255999565124512 -45.53799819946289,32.84400177001953 -43.840999603271484,58.770999908447266 C-43.566001892089844,62.974998474121094 -40.11800003051758,66.26100158691406 -35.904998779296875,66.26100158691406 C-35.904998779296875,66.26100158691406 28.91900062561035,66.25399780273438 28.91900062561035,66.25399780273438 C33.132999420166016,66.25399780273438 36.58000183105469,62.9640007019043 36.854000091552734,58.75899887084961 C38.5369987487793,32.88999938964844 53.76300048828125,13.312000274658203 70.89399719238281,-6.357999801635742 C85.9260025024414,-23.617000579833984 95.04900360107422,-46.15700149536133 95.11399841308594,-70.82499694824219z M111.4020004272461,-74.39399719238281 C111.32599639892578,-45.652000427246094 100.6969985961914,-19.386999130249023 83.18199920654297,0.7229999899864197 C63.22100067138672,23.642000198364258 51.167999267578125,52.279998779296875 49.207000732421875,82.4219970703125 C48.88800048828125,87.32099914550781 44.87099838256836,91.15399932861328 39.96099853515625,91.15399932861328 C39.96099853515625,91.15399932861328 -46.94599914550781,91.16300201416016 -46.94599914550781,91.16300201416016 C-51.85499954223633,91.16300201416016 -55.87200164794922,87.33300018310547 -56.19300079345703,82.43499755859375 C-58.16999816894531,52.22600173950195 -70.34300231933594,23.576000213623047 -90.31199645996094,0.5609999895095825 C-107.80699920654297,-19.60300064086914 -118.39700317382812,-45.917999267578125 -118.39700317382812,-74.7030029296875 C-118.39700317382812,-138.6490020751953 -66.16600036621094,-190.38999938964844 -2.0369999408721924,-189.593994140625 C61.220001220703125,-188.80799865722656 111.56900024414062,-137.65499877929688 111.4020004272461,-74.39399719238281z"></path></g><g opacity="1" transform="matrix(1,0,0,1,0,0)"><path stroke-linecap="butt" stroke-linejoin="miter" fill-opacity="0" stroke-miterlimit="10" stroke="rgb(175,171,160)" stroke-opacity="1" stroke-width="8" d=" M111.4020004272461,-74.39399719238281 C111.32599639892578,-45.652000427246094 100.6969985961914,-19.386999130249023 83.18199920654297,0.7229999899864197 C63.22100067138672,23.642000198364258 51.167999267578125,52.279998779296875 49.207000732421875,82.4219970703125 C48.88800048828125,87.32099914550781 44.87099838256836,91.15399932861328 39.96099853515625,91.15399932861328 C39.96099853515625,91.15399932861328 -46.94599914550781,91.16300201416016 -46.94599914550781,91.16300201416016 C-51.85499954223633,91.16300201416016 -55.87200164794922,87.33300018310547 -56.19300079345703,82.43499755859375 C-58.16999816894531,52.22600173950195 -70.34300231933594,23.576000213623047 -90.31199645996094,0.5609999895095825 C-107.80699920654297,-19.60300064086914 -118.39700317382812,-45.917999267578125 -118.39700317382812,-74.7030029296875 C-118.39700317382812,-138.6490020751953 -66.16600036621094,-190.38999938964844 -2.0369999408721924,-189.593994140625 C61.220001220703125,-188.80799865722656 111.56900024414062,-137.65499877929688 111.4020004272461,-74.39399719238281z"></path></g><g opacity="1" transform="matrix(1,0,0,1,0,0)"><g opacity="1" transform="matrix(1,0,0,1,0,0)"><path stroke-linecap="round" stroke-linejoin="round" fill-opacity="0" stroke="rgb(255,255,255)" stroke-opacity="1" stroke-width="6" d=" M22.48200035095215,-166.125 C24.020000457763672,-165.7899932861328 25.615999221801758,-165.4199981689453 27.260000228881836,-165.01400756835938"></path></g><g opacity="1" transform="matrix(1,0,0,1,0,0)"><path stroke-linecap="round" stroke-linejoin="round" fill-opacity="0" stroke="rgb(255,255,255)" stroke-opacity="1" stroke-width="6" d=" M1.128000020980835,-169.343994140625 C1.128000020980835,-169.343994140625 5.994999885559082,-169.08399963378906 13.718000411987305,-167.80599975585938"></path></g></g></g></g><g style="display: block;" transform="matrix(0.9992640614509583,-0.03835858404636383,0.03835858404636383,0.9992640614509583,251.47369384765625,280.08685302734375)" opacity="1"><g opacity="1" transform="matrix(1,0,0,1,0,0)"><g opacity="1" transform="matrix(1,0,0,1,0,0)"><path fill="rgb(249,231,142)" fill-opacity="1" d=" M111.4020004272461,-74.39399719238281 C111.32599639892578,-45.652000427246094 100.6969985961914,-19.386999130249023 83.18199920654297,0.7229999899864197 C63.22100067138672,23.642000198364258 51.167999267578125,52.279998779296875 49.207000732421875,82.4219970703125 C48.88800048828125,87.32099914550781 44.87099838256836,91.15399932861328 39.96099853515625,91.15399932861328 C39.96099853515625,91.15399932861328 -46.94599914550781,91.16300201416016 -46.94599914550781,91.16300201416016 C-51.85499954223633,91.16300201416016 -55.87200164794922,87.33300018310547 -56.19300079345703,82.43499755859375 C-58.16999816894531,52.22600173950195 -70.34300231933594,23.576000213623047 -90.31199645996094,0.5609999895095825 C-107.80699920654297,-19.60300064086914 -118.39700317382812,-45.917999267578125 -118.39700317382812,-74.7030029296875 C-118.39700317382812,-138.6490020751953 -66.16600036621094,-190.38999938964844 -2.0369999408721924,-189.593994140625 C61.220001220703125,-188.80799865722656 111.56900024414062,-137.65499877929688 111.4020004272461,-74.39399719238281z"></path></g><g opacity="1" transform="matrix(1,0,0,1,0,0)"><path fill="url(#__lottie_element_7023)" fill-opacity="1" d=" M95.11399841308594,-70.82499694824219 C95.04900360107422,-46.15700149536133 85.9260025024414,-23.617000579833984 70.89399719238281,-6.357999801635742 C53.76300048828125,13.312000274658203 38.5369987487793,32.88999938964844 36.854000091552734,58.75899887084961 C36.58000183105469,62.9640007019043 33.132999420166016,66.25399780273438 28.91900062561035,66.25399780273438 C28.91900062561035,66.25399780273438 -35.904998779296875,66.26100158691406 -35.904998779296875,66.26100158691406 C-40.11800003051758,66.26100158691406 -43.566001892089844,62.974998474121094 -43.840999603271484,58.770999908447266 C-45.53799819946289,32.84400177001953 -60.867000579833984,13.255999565124512 -78.00499725341797,-6.495999813079834 C-93.0199966430664,-23.801000595092773 -102.10900115966797,-46.38600158691406 -102.10900115966797,-71.08999633789062 C-102.10900115966797,-125.97100067138672 -57.28200149536133,-170.3780059814453 -2.24399995803833,-169.69400024414062 C52.04499816894531,-169.02000427246094 95.25700378417969,-125.11799621582031 95.11399841308594,-70.82499694824219z"></path></g><g opacity="1" transform="matrix(1,0,0,1,0,0)"><path stroke-linecap="butt" stroke-linejoin="miter" fill-opacity="0" stroke-miterlimit="10" stroke="rgb(232,198,76)" stroke-opacity="1" stroke-width="8" d=" M111.4020004272461,-74.39399719238281 C111.32599639892578,-45.652000427246094 100.6969985961914,-19.386999130249023 83.18199920654297,0.7229999899864197 C63.22100067138672,23.642000198364258 51.167999267578125,52.279998779296875 49.207000732421875,82.4219970703125 C48.88800048828125,87.32099914550781 44.87099838256836,91.15399932861328 39.96099853515625,91.15399932861328 C39.96099853515625,91.15399932861328 -46.94599914550781,91.16300201416016 -46.94599914550781,91.16300201416016 C-51.85499954223633,91.16300201416016 -55.87200164794922,87.33300018310547 -56.19300079345703,82.43499755859375 C-58.16999816894531,52.22600173950195 -70.34300231933594,23.576000213623047 -90.31199645996094,0.5609999895095825 C-107.80699920654297,-19.60300064086914 -118.39700317382812,-45.917999267578125 -118.39700317382812,-74.7030029296875 C-118.39700317382812,-138.6490020751953 -66.16600036621094,-190.38999938964844 -2.0369999408721924,-189.593994140625 C61.220001220703125,-188.80799865722656 111.56900024414062,-137.65499877929688 111.4020004272461,-74.39399719238281z"></path></g><g opacity="1" transform="matrix(1,0,0,1,0,0)"><g opacity="1" transform="matrix(1,0,0,1,0,0)"><path stroke-linecap="round" stroke-linejoin="round" fill-opacity="0" stroke="rgb(255,255,255)" stroke-opacity="1" stroke-width="6" d=" M22.48200035095215,-166.125 C24.020000457763672,-165.7899932861328 25.615999221801758,-165.4199981689453 27.260000228881836,-165.01400756835938"></path></g><g opacity="1" transform="matrix(1,0,0,1,0,0)"><path stroke-linecap="round" stroke-linejoin="round" fill-opacity="0" stroke="rgb(255,255,255)" stroke-opacity="1" stroke-width="6" d=" M1.128000020980835,-169.343994140625 C1.128000020980835,-169.343994140625 5.994999885559082,-169.08399963378906 13.718000411987305,-167.80599975585938"></path></g></g></g></g><g style="display: block;" transform="matrix(0.9992640614509583,-0.03835858404636383,0.03835858404636383,0.9992640614509583,246.99618530273438,280.75909423828125)" opacity="1"><g opacity="1" transform="matrix(1,0,0,1,0,0)"><path stroke-linecap="round" stroke-linejoin="round" fill-opacity="0" stroke="rgb(255,255,255)" stroke-opacity="1" stroke-width="8" d=" M-0.8808175325393677,93.35600280761719 C-0.8808175325393677,93.35600280761719 -11.853693008422852,-22.615999221801758 -11.572222709655762,-46.7869987487793 C-11.290751457214355,-70.95800018310547 11.599836349487305,-69.93000030517578 11.659872055053711,-60.67300033569336 C11.719908714294434,-51.41600036621094 0.00580759160220623,-34.83000183105469 -0.4248083233833313,-45.75899887084961 C-0.6078159809112549,-50.39699935913086 -0.5862074494361877,-56.301998138427734 -0.5862074494361877,-56.301998138427734 C-0.5862074494361877,-56.301998138427734 -5.1020121574401855,-44.573001861572266 -5.340851306915283,-45.073001861572266 C-5.5863494873046875,-45.58700180053711 8.03827953338623,-56.301998138427734 8.03827953338623,-56.301998138427734 C8.03827953338623,-56.301998138427734 7.989168167114258,-44.387001037597656 7.799335956573486,-44.98699951171875 C7.644071102142334,-45.47700119018555 7.582270622253418,-53.215999603271484 7.582270622253418,-56.301998138427734 C7.582270622253418,-56.301998138427734 -6.044528484344482,-45.244998931884766 -6.2518696784973145,-45.75899887084961 C-6.459210395812988,-46.27299880981445 -1.9172624349594116,-56.301998138427734 -1.9172624349594116,-56.301998138427734 C-1.9172624349594116,-56.301998138427734 -2.139012575149536,-41.17900085449219 -2.4627256393432617,-44.75899887084961 C-2.8783774375915527,-49.35900115966797 8.462268829345703,-63.50199890136719 8.630237579345703,-65.04499816894531 C8.798206329345703,-66.58799743652344 -13.641867637634277,-59.159000396728516 -13.43463134765625,-32.902000427246094 C-13.231675148010254,-7.188000202178955 -1.7568483352661133,25.726999282836914 -1.6182976961135864,93.35600280761719"></path></g><g opacity="1" transform="matrix(1,0,0,1,0,0)"><path stroke-linecap="round" stroke-linejoin="round" fill-opacity="0" stroke="rgb(255,255,255)" stroke-opacity="1" stroke-width="8" d=" M-11.572222709655762,-46.7869987487793 C-11.290751457214355,-70.95800018310547 11.599836349487305,-69.93000030517578 11.659872055053711,-60.67300033569336 C11.719908714294434,-51.41600036621094 0.00580759160220623,-34.83000183105469 -0.4248083233833313,-45.75899887084961 C-0.6078159809112549,-50.39699935913086 -0.5862074494361877,-56.301998138427734 -0.5862074494361877,-56.301998138427734 C-0.5862074494361877,-56.301998138427734 -5.1020121574401855,-44.573001861572266 -5.340851306915283,-45.073001861572266 C-5.5863494873046875,-45.58700180053711 8.03827953338623,-56.301998138427734 8.03827953338623,-56.301998138427734 C8.03827953338623,-56.301998138427734 7.989168167114258,-44.387001037597656 7.799335956573486,-44.98699951171875 C7.644071102142334,-45.47700119018555 7.582270622253418,-53.215999603271484 7.582270622253418,-56.301998138427734 C7.582270622253418,-56.301998138427734 -6.044528484344482,-45.244998931884766 -6.2518696784973145,-45.75899887084961 C-6.459210395812988,-46.27299880981445 -1.9172624349594116,-56.301998138427734 -1.9172624349594116,-56.301998138427734 C-1.9172624349594116,-56.301998138427734 -2.139012575149536,-41.17900085449219 -2.4627256393432617,-44.75899887084961 C-2.8783774375915527,-49.35900115966797 8.462268829345703,-63.50199890136719 8.630237579345703,-65.04499816894531 C8.798206329345703,-66.58799743652344 -13.641867637634277,-59.159000396728516 -13.43463134765625,-32.902000427246094"></path></g></g><g style="display: block;" transform="matrix(0.9992640614509583,-0.03835858404636383,0.03835858404636383,0.9992640614509583,251.47369384765625,280.08685302734375)" opacity="1"><g opacity="1" transform="matrix(1,0,0,1,0,0)"><path fill="rgb(63,62,61)" fill-opacity="1" d=" M-3.494999885559082,161.06700134277344 C-3.494999885559082,161.06700134277344 -3.496999979019165,161.06700134277344 -3.496999979019165,161.06700134277344 C-3.496999979019165,161.06700134277344 -30.04199981689453,161.06700134277344 -30.04199981689453,161.06700134277344 C-33.53200149536133,161.06700134277344 -35.5989990234375,164.73300170898438 -33.63800048828125,167.44400024414062 C-33.63800048828125,167.44400024414062 -25.948999404907227,178.07200622558594 -25.948999404907227,178.07200622558594 C-22.774999618530273,182.45899963378906 -17.492000579833984,185.0850067138672 -11.843999862670898,185.0850067138672 C-11.843999862670898,185.0850067138672 -3.496999979019165,185.0850067138672 -3.496999979019165,185.0850067138672 C-3.496999979019165,185.0850067138672 -3.494999885559082,185.0850067138672 -3.494999885559082,185.0850067138672 C-3.494999885559082,185.0850067138672 4.85099983215332,185.0850067138672 4.85099983215332,185.0850067138672 C10.49899959564209,185.0850067138672 15.781000137329102,182.45899963378906 18.954999923706055,178.07200622558594 C18.954999923706055,178.07200622558594 26.645000457763672,167.44400024414062 26.645000457763672,167.44400024414062 C28.606000900268555,164.73300170898438 26.538999557495117,161.06700134277344 23.048999786376953,161.06700134277344 C23.048999786376953,161.06700134277344 -3.494999885559082,161.06700134277344 -3.494999885559082,161.06700134277344z"></path><path stroke-linecap="butt" stroke-linejoin="miter" fill-opacity="0" stroke-miterlimit="10" stroke="rgb(46,45,41)" stroke-opacity="1" stroke-width="8" d=" M-3.494999885559082,161.06700134277344 C-3.494999885559082,161.06700134277344 -3.496999979019165,161.06700134277344 -3.496999979019165,161.06700134277344 C-3.496999979019165,161.06700134277344 -30.04199981689453,161.06700134277344 -30.04199981689453,161.06700134277344 C-33.53200149536133,161.06700134277344 -35.5989990234375,164.73300170898438 -33.63800048828125,167.44400024414062 C-33.63800048828125,167.44400024414062 -25.948999404907227,178.07200622558594 -25.948999404907227,178.07200622558594 C-22.774999618530273,182.45899963378906 -17.492000579833984,185.0850067138672 -11.843999862670898,185.0850067138672 C-11.843999862670898,185.0850067138672 -3.496999979019165,185.0850067138672 -3.496999979019165,185.0850067138672 C-3.496999979019165,185.0850067138672 -3.494999885559082,185.0850067138672 -3.494999885559082,185.0850067138672 C-3.494999885559082,185.0850067138672 4.85099983215332,185.0850067138672 4.85099983215332,185.0850067138672 C10.49899959564209,185.0850067138672 15.781000137329102,182.45899963378906 18.954999923706055,178.07200622558594 C18.954999923706055,178.07200622558594 26.645000457763672,167.44400024414062 26.645000457763672,167.44400024414062 C28.606000900268555,164.73300170898438 26.538999557495117,161.06700134277344 23.048999786376953,161.06700134277344 C23.048999786376953,161.06700134277344 -3.494999885559082,161.06700134277344 -3.494999885559082,161.06700134277344z"></path></g><g opacity="1" transform="matrix(1,0,0,1,0,0)"><path fill="rgb(186,179,171)" fill-opacity="1" d=" M39.250999450683594,91.16300201416016 C39.250999450683594,91.16300201416016 -46.242000579833984,91.16300201416016 -46.242000579833984,91.16300201416016 C-49.45100021362305,91.16300201416016 -52.053001403808594,93.76399993896484 -52.053001403808594,96.9729995727539 C-52.053001403808594,96.9729995727539 -52.053001403808594,113.08899688720703 -52.053001403808594,113.08899688720703 C-52.053001403808594,116.2979965209961 -49.45100021362305,118.9000015258789 -46.242000579833984,118.9000015258789 C-46.242000579833984,118.9000015258789 -41.854000091552734,118.9000015258789 -41.854000091552734,118.9000015258789 C-45.499000549316406,118.9000015258789 -48.452999114990234,121.85399627685547 -48.452999114990234,125.4990005493164 C-48.452999114990234,125.4990005493164 -48.452999114990234,126.35600280761719 -48.452999114990234,126.35600280761719 C-48.452999114990234,130.00100708007812 -45.499000549316406,132.9550018310547 -41.854000091552734,132.9550018310547 C-41.854000091552734,132.9550018310547 -40.138999938964844,132.9550018310547 -40.138999938964844,132.9550018310547 C-43.784000396728516,132.9550018310547 -46.737998962402344,135.91000366210938 -46.737998962402344,139.55499267578125 C-46.737998962402344,139.55499267578125 -46.737998962402344,140.41200256347656 -46.737998962402344,140.41200256347656 C-46.737998962402344,144.0570068359375 -43.784000396728516,147.01100158691406 -40.138999938964844,147.01100158691406 C-40.138999938964844,147.01100158691406 -38.59700012207031,147.01100158691406 -38.59700012207031,147.01100158691406 C-42.242000579833984,147.01100158691406 -45.19599914550781,149.96499633789062 -45.19599914550781,153.61000061035156 C-45.19599914550781,153.61000061035156 -45.19599914550781,154.46800231933594 -45.19599914550781,154.46800231933594 C-45.19599914550781,158.11300659179688 -42.242000579833984,161.06700134277344 -38.59700012207031,161.06700134277344 C-38.59700012207031,161.06700134277344 31.604999542236328,161.06700134277344 31.604999542236328,161.06700134277344 C35.25,161.06700134277344 38.20399856567383,158.11300659179688 38.20399856567383,154.46800231933594 C38.20399856567383,154.46800231933594 38.20399856567383,153.61000061035156 38.20399856567383,153.61000061035156 C38.20399856567383,149.96499633789062 35.25,147.01100158691406 31.604999542236328,147.01100158691406 C31.604999542236328,147.01100158691406 33.14799880981445,147.01100158691406 33.14799880981445,147.01100158691406 C36.792999267578125,147.01100158691406 39.74700164794922,144.0570068359375 39.74700164794922,140.41200256347656 C39.74700164794922,140.41200256347656 39.74700164794922,139.55499267578125 39.74700164794922,139.55499267578125 C39.74700164794922,135.91000366210938 36.792999267578125,132.9550018310547 33.14799880981445,132.9550018310547 C33.14799880981445,132.9550018310547 34.86199951171875,132.9550018310547 34.86199951171875,132.9550018310547 C38.50699996948242,132.9550018310547 41.46099853515625,130.00100708007812 41.46099853515625,126.35600280761719 C41.46099853515625,126.35600280761719 41.46099853515625,125.4990005493164 41.46099853515625,125.4990005493164 C41.46099853515625,121.85399627685547 38.50699996948242,118.9000015258789 34.86199951171875,118.9000015258789 C34.86199951171875,118.9000015258789 39.250999450683594,118.9000015258789 39.250999450683594,118.9000015258789 C42.459999084472656,118.9000015258789 45.06100082397461,116.2979965209961 45.06100082397461,113.08899688720703 C45.06100082397461,113.08899688720703 45.06100082397461,96.9729995727539 45.06100082397461,96.9729995727539 C45.06100082397461,93.76399993896484 42.459999084472656,91.16300201416016 39.250999450683594,91.16300201416016z"></path></g><g opacity="1" transform="matrix(1,0,0,1,0,0)"><path fill="rgb(242,233,224)" fill-opacity="1" d=" M3.4040000438690186,161.06700134277344 C3.4040000438690186,161.06700134277344 17.033000946044922,161.06700134277344 17.033000946044922,161.06700134277344 C17.033000946044922,161.06700134277344 17.033000946044922,91.15599822998047 17.033000946044922,91.15599822998047 C17.033000946044922,91.15599822998047 3.4040000438690186,91.15599822998047 3.4040000438690186,91.15599822998047 C3.4040000438690186,91.15599822998047 3.4040000438690186,161.06700134277344 3.4040000438690186,161.06700134277344z"></path></g><g opacity="1" transform="matrix(1,0,0,1,0,0)"><path fill="rgb(242,233,224)" fill-opacity="1" d=" M-33.624000549316406,161.06700134277344 C-33.624000549316406,161.06700134277344 -16.163000106811523,161.06700134277344 -16.163000106811523,161.06700134277344 C-16.163000106811523,161.06700134277344 -16.163000106811523,91.15599822998047 -16.163000106811523,91.15599822998047 C-16.163000106811523,91.15599822998047 -33.624000549316406,91.15599822998047 -33.624000549316406,91.15599822998047 C-33.624000549316406,91.15599822998047 -33.624000549316406,161.06700134277344 -33.624000549316406,161.06700134277344z"></path></g><g opacity="1" transform="matrix(1,0,0,1,0,0)"><path fill="rgb(209,201,189)" fill-opacity="1" d=" M-13.053000450134277,161.06700134277344 C-13.053000450134277,161.06700134277344 3.316999912261963,161.06700134277344 3.316999912261963,161.06700134277344 C3.316999912261963,161.06700134277344 3.316999912261963,91.15599822998047 3.316999912261963,91.15599822998047 C3.316999912261963,91.15599822998047 -13.053000450134277,91.15599822998047 -13.053000450134277,91.15599822998047 C-13.053000450134277,91.15599822998047 -13.053000450134277,161.06700134277344 -13.053000450134277,161.06700134277344z"></path></g><g opacity="1" transform="matrix(1,0,0,1,0,0)"><path fill="rgb(255,255,255)" fill-opacity="1" d=" M-16.163000106811523,161.06700134277344 C-16.163000106811523,161.06700134277344 -7.267000198364258,161.06700134277344 -7.267000198364258,161.06700134277344 C-7.267000198364258,161.06700134277344 -7.267000198364258,91.15599822998047 -7.267000198364258,91.15599822998047 C-7.267000198364258,91.15599822998047 -16.163000106811523,91.15599822998047 -16.163000106811523,91.15599822998047 C-16.163000106811523,91.15599822998047 -16.163000106811523,161.06700134277344 -16.163000106811523,161.06700134277344z"></path></g><g opacity="1" transform="matrix(1,0,0,1,0,0)"><path fill="rgb(209,201,189)" fill-opacity="1" d=" M17.033000946044922,161.06700134277344 C17.033000946044922,161.06700134277344 27.40399932861328,161.06700134277344 27.40399932861328,161.06700134277344 C27.40399932861328,161.06700134277344 27.40399932861328,91.15599822998047 27.40399932861328,91.15599822998047 C27.40399932861328,91.15599822998047 17.033000946044922,91.15599822998047 17.033000946044922,91.15599822998047 C17.033000946044922,91.15599822998047 17.033000946044922,161.06700134277344 17.033000946044922,161.06700134277344z"></path></g><g opacity="1" transform="matrix(1,0,0,1,0,0)"><path stroke-linecap="butt" stroke-linejoin="miter" fill-opacity="0" stroke-miterlimit="10" stroke="rgb(142,139,130)" stroke-opacity="1" stroke-width="8" d=" M39.250999450683594,118.9000015258789 C39.250999450683594,118.9000015258789 -46.242000579833984,118.9000015258789 -46.242000579833984,118.9000015258789 C-49.45100021362305,118.9000015258789 -52.053001403808594,116.2979965209961 -52.053001403808594,113.08899688720703 C-52.053001403808594,113.08899688720703 -52.053001403808594,96.9729995727539 -52.053001403808594,96.9729995727539 C-52.053001403808594,93.76399993896484 -49.45100021362305,91.16300201416016 -46.242000579833984,91.16300201416016 C-46.242000579833984,91.16300201416016 39.250999450683594,91.16300201416016 39.250999450683594,91.16300201416016 C42.459999084472656,91.16300201416016 45.06100082397461,93.76399993896484 45.06100082397461,96.9729995727539 C45.06100082397461,96.9729995727539 45.06100082397461,113.08899688720703 45.06100082397461,113.08899688720703 C45.06100082397461,116.2979965209961 42.459999084472656,118.9000015258789 39.250999450683594,118.9000015258789z"></path></g><g opacity="1" transform="matrix(1,0,0,1,0,0)"><path stroke-linecap="butt" stroke-linejoin="miter" fill-opacity="0" stroke-miterlimit="10" stroke="rgb(142,139,130)" stroke-opacity="1" stroke-width="8" d=" M34.86199951171875,132.9550018310547 C34.86199951171875,132.9550018310547 -41.854000091552734,132.9550018310547 -41.854000091552734,132.9550018310547 C-45.499000549316406,132.9550018310547 -48.452999114990234,130.00100708007812 -48.452999114990234,126.35600280761719 C-48.452999114990234,126.35600280761719 -48.452999114990234,125.4990005493164 -48.452999114990234,125.4990005493164 C-48.452999114990234,121.85399627685547 -45.499000549316406,118.9000015258789 -41.854000091552734,118.9000015258789 C-41.854000091552734,118.9000015258789 34.86199951171875,118.9000015258789 34.86199951171875,118.9000015258789 C38.50699996948242,118.9000015258789 41.46099853515625,121.85399627685547 41.46099853515625,125.4990005493164 C41.46099853515625,125.4990005493164 41.46099853515625,126.35600280761719 41.46099853515625,126.35600280761719 C41.46099853515625,130.00100708007812 38.50699996948242,132.9550018310547 34.86199951171875,132.9550018310547z"></path></g><g opacity="1" transform="matrix(1,0,0,1,0,0)"><path stroke-linecap="butt" stroke-linejoin="miter" fill-opacity="0" stroke-miterlimit="10" stroke="rgb(142,139,130)" stroke-opacity="1" stroke-width="8" d=" M33.14799880981445,147.01100158691406 C33.14799880981445,147.01100158691406 -40.138999938964844,147.01100158691406 -40.138999938964844,147.01100158691406 C-43.784000396728516,147.01100158691406 -46.73899841308594,144.0570068359375 -46.73899841308594,140.41200256347656 C-46.73899841308594,140.41200256347656 -46.73899841308594,139.55499267578125 -46.73899841308594,139.55499267578125 C-46.73899841308594,135.91000366210938 -43.784000396728516,132.9550018310547 -40.138999938964844,132.9550018310547 C-40.138999938964844,132.9550018310547 33.14799880981445,132.9550018310547 33.14799880981445,132.9550018310547 C36.792999267578125,132.9550018310547 39.74700164794922,135.91000366210938 39.74700164794922,139.55499267578125 C39.74700164794922,139.55499267578125 39.74700164794922,140.41200256347656 39.74700164794922,140.41200256347656 C39.74700164794922,144.0570068359375 36.792999267578125,147.01100158691406 33.14799880981445,147.01100158691406z"></path></g><g opacity="1" transform="matrix(1,0,0,1,0,0)"><path stroke-linecap="butt" stroke-linejoin="miter" fill-opacity="0" stroke-miterlimit="10" stroke="rgb(142,139,130)" stroke-opacity="1" stroke-width="8" d=" M31.604999542236328,161.06700134277344 C31.604999542236328,161.06700134277344 -38.59600067138672,161.06700134277344 -38.59600067138672,161.06700134277344 C-42.24100112915039,161.06700134277344 -45.19599914550781,158.11300659179688 -45.19599914550781,154.46800231933594 C-45.19599914550781,154.46800231933594 -45.19599914550781,153.61000061035156 -45.19599914550781,153.61000061035156 C-45.19599914550781,149.96499633789062 -42.24100112915039,147.01100158691406 -38.59600067138672,147.01100158691406 C-38.59600067138672,147.01100158691406 31.604999542236328,147.01100158691406 31.604999542236328,147.01100158691406 C35.25,147.01100158691406 38.20399856567383,149.96499633789062 38.20399856567383,153.61000061035156 C38.20399856567383,153.61000061035156 38.20399856567383,154.46800231933594 38.20399856567383,154.46800231933594 C38.20399856567383,158.11300659179688 35.25,161.06700134277344 31.604999542236328,161.06700134277344z"></path></g></g><g style="display: none;"><g><path stroke-linecap="round" stroke-linejoin="round" fill-opacity="0"></path></g></g><g style="display: none;"><g><path stroke-linecap="round" stroke-linejoin="round" fill-opacity="0"></path></g></g><g style="display: none;"><g><path stroke-linecap="round" stroke-linejoin="round" fill-opacity="0"></path></g></g><g style="display: none;"><g><path stroke-linecap="round" stroke-linejoin="round" fill-opacity="0"></path></g></g><g style="display: none;"><g><path stroke-linecap="round" stroke-linejoin="round" fill-opacity="0"></path></g></g><g style="display: none;"><g><path stroke-linecap="round" stroke-linejoin="round" fill-opacity="0"></path></g></g><g style="display: none;"><g><path stroke-linecap="round" stroke-linejoin="round" fill-opacity="0"></path></g></g></g></g></svg>