<svg xmlns="http://www.w3.org/2000/svg" viewBox="0 0 512 512" width="512" height="512" style="width: 100%; height: 100%; transform: translate3d(0,0,0);" preserveAspectRatio="xMidYMid meet"><defs><clipPath id="__lottie_element_7069"><rect width="512" height="512" x="0" y="0"></rect></clipPath></defs><g clip-path="url(#__lottie_element_7069)"><g style="display: block;" transform="matrix(-1,0,0,1,428.58099365234375,288.9049987792969)" opacity="1"><g opacity="1" transform="matrix(1,0,0,1,0,0)"><path fill="rgb(255,209,64)" fill-opacity="1" d=" M65.29199981689453,-75.14800262451172 C58.3650016784668,-74.78800201416016 12.118000030517578,-83.37899780273438 4.026000022888184,-85.44499969482422 C-3.4749999046325684,-87.36100006103516 -13.687999725341797,-91.82099914550781 -19.44499969482422,-84.7239990234375 C-56.49399948120117,-39.04899978637695 -61.270999908447266,50.034000396728516 -11.416999816894531,87.76000213623047 C-10.279999732971191,88.62100219726562 -8.60099983215332,88.73200225830078 -7.197999954223633,88.4749984741211 C10.60099983215332,85.21800231933594 30.32699966430664,80.4990005493164 48.03099822998047,76.76200103759766"></path></g></g><g style="display: block;" transform="matrix(-1,0,0,1,296.781005859375,281.4909973144531)" opacity="1"><g opacity="1" transform="matrix(1,0,0,1,0,0)"><path fill="rgb(255,209,64)" fill-opacity="1" d=" M-93.69300079345703,-68.26100158691406 C-81.55599975585938,-90.46399688720703 -32.71900177001953,-115.99099731445312 15.381999969482422,-101.43099975585938 C79.73600006103516,-107.70999908447266 104.89800262451172,-77.15799713134766 89.49400329589844,-49.48899841308594 C92.63500213623047,-41.33000183105469 102.74600219726562,-33.301998138427734 100.51699829101562,-17.94099998474121 C98.28800201416016,-2.5799999237060547 87.8499984741211,0.11599999666213989 88.35399627685547,6.574999809265137 C88.85800170898438,13.032999992370605 94.6259994506836,18.547000885009766 92.2750015258789,32.03300094604492 C89.77200317382812,46.400001525878906 78.37699890136719,53.810001373291016 78.37699890136719,53.810001373291016 C78.37699890136719,53.810001373291016 82.0739974975586,70.24299621582031 67.27899932861328,85.65299987792969 C61.17599868774414,92.01100158691406 50.28499984741211,97.50800323486328 33.775001525878906,100.3010025024414 C23.110000610351562,102.1050033569336 10.098999977111816,102.78099822998047 -5.480999946594238,101.83100128173828 C-42.48099899291992,99.57499694824219 -67.21499633789062,84.45500183105469 -80.98799896240234,84.31400299072266 C-99.10199737548828,74.1760025024414 -108.10199737548828,-42.65800094604492 -93.69300079345703,-68.26100158691406z"></path></g></g><g style="display: block;" transform="matrix(-1,0,0,1,289.3900146484375,154.6199951171875)" opacity="1"><g opacity="1" transform="matrix(1,0,0,1,0,0)"><path fill="rgb(255,209,64)" fill-opacity="1" d=" M-100.73999786376953,55.7130012512207 C-89.42500305175781,38.194000244140625 -84.19400024414062,18.961999893188477 -60.071998596191406,3.678999900817871 C-23.5310001373291,-19.472999572753906 2.5769999027252197,-15.661999702453613 28.131000518798828,-23.757999420166016 C56.88999938964844,-32.86899948120117 63.59600067138672,-47.10599899291992 76.51100158691406,-54.20000076293945 C82.82499694824219,-57.66899871826172 89.38400268554688,-54.89099884033203 94.08300018310547,-48.71699905395508 C101.81900024414062,-38.551998138427734 104.51200103759766,-19.179000854492188 92.76399993896484,-3.319000005722046 C81.71499633789062,11.597000122070312 57.61800003051758,20.59000015258789 31.176000595092773,23.361000061035156"></path></g></g><g style="display: block;" transform="matrix(-1,0,0,1,330.17498779296875,177.17001342773438)" opacity="1"><g opacity="1" transform="matrix(1,0,0,1,0,0)"><path fill="rgb(255,223,121)" fill-opacity="1" d=" M-143.8470001220703,112.6500015258789 C-136.9739990234375,64.58000183105469 -116.7239990234375,37.58000183105469 -104.95999908447266,40.95399856567383 C-96.48600006103516,43.38399887084961 -78.12100219726562,48.229000091552734 -67.36900329589844,50.31399917602539 C-56.9739990234375,52.33000183105469 -53.4739990234375,49.33000183105469 -49.91899871826172,40.10100173950195 C-45.334999084472656,28.20199966430664 -54.13399887084961,25.242000579833984 -60.60200119018555,34.388999938964844 C-79.15399932861328,32.39400100708008 -106.3499984741211,20.934999465942383 -114.63099670410156,24.55900001525879 C-123.01100158691406,28.225000381469727 -146.9739990234375,71.83000183105469 -143.8470001220703,112.6500015258789z"></path></g></g><g style="display: block;" transform="matrix(-1,0,0,1,330.17498779296875,177.17001342773438)" opacity="1"><g opacity="1" transform="matrix(1,0,0,1,0,0)"><path fill="rgb(255,223,121)" fill-opacity="1" d=" M-45.16899871826172,41.35100173950195 C-39.49100112915039,29.933000564575195 -24.868000030517578,-4.103000164031982 16.719999313354492,-18.132999420166016 C42.0260009765625,-26.670000076293945 89.0260009765625,-28.420000076293945 109.8759994506836,-50.165000915527344 C124.1500015258789,-65.052001953125 134.2570037841797,-63.305999755859375 139.0989990234375,-37.15800094604492 C147.81500244140625,-88.48500061035156 115.81300354003906,-79.4800033569336 112.04199981689453,-74.3239974975586 C104.88200378417969,-64.53500366210938 95.9739990234375,-59.50699996948242 80.69999694824219,-50.37799835205078 C65.4260025024414,-41.249000549316406 31.000999450683594,-41.952999114990234 -4.182000160217285,-27.86400032043457 C-41.279998779296875,-13.006999969482422 -54.13399887084961,25.242000579833984 -60.60200119018555,34.388999938964844 C-91.27400207519531,43.08000183105469 -55.9739990234375,63.08000183105469 -45.16899871826172,41.35100173950195z"></path></g><g opacity="1" transform="matrix(1,0,0,1,0,0)"><path stroke-linecap="round" stroke-linejoin="round" fill-opacity="0" stroke="rgb(255,255,255)" stroke-opacity="1" stroke-width="6" d=" M-13.343999862670898,-1.7209999561309814 C-8.673999786376953,-5.494999885559082 -3.371999979019165,-9.050000190734863 2.6519999504089355,-12.17300033569336"></path></g><g opacity="1" transform="matrix(1,0,0,1,0,0)"><path stroke-linecap="round" stroke-linejoin="round" fill-opacity="0" stroke="rgb(255,255,255)" stroke-opacity="1" stroke-width="6" d=" M14.505999565124512,-17.357999801635742 C15.236000061035156,-17.62299919128418 15.973999977111816,-17.881000518798828 16.719999313354492,-18.132999420166016 C17.56100082397461,-18.41699981689453 18.424999237060547,-18.69300079345703 19.312000274658203,-18.961999893188477"></path></g></g><g style="display: block;" transform="matrix(-1,0,0,1,239.7740020751953,151.99398803710938)" opacity="1"><g opacity="1" transform="matrix(1,0,0,1,0,0)"><path fill="rgb(255,177,57)" fill-opacity="1" d=" M41.702999114990234,-44.78499984741211 C47.625,-24.993999481201172 38.375,-8.494000434875488 20.072999954223633,2.309000015258789 C-7.593999862670898,18.639999389648438 -58.125,18.756999969482422 -48.32099914550781,29.03499984741211 C-31.049999237060547,25.993000030517578 -13.409000396728516,26.670000076293945 4.789000034332275,22.17099952697754 C16.79800033569336,19.201000213623047 33.125,11.505999565124512 41.0260009765625,1.9859999418258667 C49.7859992980957,-8.569000244140625 58.125,-30.493999481201172 41.702999114990234,-44.78499984741211z"></path></g></g><g style="display: block;" transform="matrix(-1,0,0,1,289.3900146484375,154.6199951171875)" opacity="1"><g opacity="1" transform="matrix(1,0,0,1,0,0)"><path stroke-linecap="round" stroke-linejoin="round" fill-opacity="0" stroke="rgb(247,126,65)" stroke-opacity="1" stroke-width="8" d=" M-100.73999786376953,55.7130012512207 C-89.42500305175781,38.194000244140625 -84.19400024414062,18.961999893188477 -60.071998596191406,3.678999900817871 C-23.5310001373291,-19.472999572753906 2.5769999027252197,-15.661999702453613 28.131000518798828,-23.757999420166016 C56.88999938964844,-32.86899948120117 63.59600067138672,-47.10599899291992 76.51100158691406,-54.20000076293945 C82.82499694824219,-57.66899871826172 89.38400268554688,-54.89099884033203 94.08300018310547,-48.71699905395508 C101.81900024414062,-38.551998138427734 104.51200103759766,-19.179000854492188 92.76399993896484,-3.319000005722046 C81.71499633789062,11.597000122070312 57.61800003051758,20.59000015258789 31.176000595092773,23.361000061035156"></path></g></g><g style="display: block;" transform="matrix(-1,0,0,1,164.52000427246094,203.33401489257812)" opacity="1"><g opacity="1" transform="matrix(1,0,0,1,0,0)"><path fill="rgb(255,209,64)" fill-opacity="1" d=" M-17.027000427246094,-28.003999710083008 C-42.54499816894531,-27.798999786376953 -78.52799987792969,-26.93600082397461 -121.89099884033203,-22.843000411987305 C-121.89099884033203,-22.843000411987305 -43.529998779296875,28.666000366210938 -43.529998779296875,28.666000366210938 C-33.31999969482422,28.374000549316406 -3.0390000343322754,27.222999572753906 26.702999114990234,26.018999099731445 C55.446998596191406,24.854999542236328 83.68599700927734,23.641000747680664 92.82099914550781,23.10300064086914 C129.97000122070312,20.916000366210938 131.98199462890625,-23.38599967956543 92.98600006103516,-26.040000915527344 C73.97000122070312,-27.333999633789062 30.969999313354492,-28.333999633789062 11.920000076293945,-28.128000259399414 C4.8520002365112305,-28.052000045776367 -4.9070000648498535,-28.101999282836914 -17.027000427246094,-28.003999710083008z"></path></g></g><g style="display: block;" transform="matrix(-1,0,0,1,162.82199096679688,200.13601684570312)" opacity="1"><g opacity="1" transform="matrix(1,0,0,1,0,0)"><path fill="rgb(255,223,121)" fill-opacity="1" d=" M-126.35700225830078,-18.391000747680664 C-126.3280029296875,-8.135000228881836 -35.08599853515625,-12.45199966430664 4.607999801635742,-12.411999702453613 C31.672000885009766,-12.385000228881836 43.178001403808594,-12.614999771118164 58.542999267578125,-12.125 C73.9219970703125,-11.635000228881836 93.00800323486328,-10.359000205993652 98.93599700927734,-7.960999965667725 C105.9219970703125,-5.135000228881836 111.6719970703125,2.115000009536743 110.61000061035156,14.368000030517578 C124.4219970703125,0.36500000953674316 115.22100067138672,-13.293999671936035 107.2959976196289,-18.190000534057617 C97.6719970703125,-24.135000228881836 75.91500091552734,-24.385000228881836 57.51100158691406,-24.875999450683594 C38.422000885009766,-25.385000228881836 31.172000885009766,-24.635000228881836 4.0289998054504395,-24.106000900268555 C-23.586999893188477,-23.56800079345703 -107.75900268554688,-21.79800033569336 -126.35700225830078,-18.391000747680664z"></path></g><g opacity="0" transform="matrix(1,0,0,1,0,0)"><path fill="rgb(255,223,121)" fill-opacity="1" d=" M-85.87100219726562,-11.163000106811523 C-62.96099853515625,-12.711999893188477 -63.67900085449219,-22.38599967956543 -97.52400207519531,-20.69099998474121 C-102.08499908447266,-20.46299934387207 -112.04100036621094,-20.163999557495117 -97.2750015258789,-20.816999435424805 C-93.10700225830078,-21.000999450683594 -111.11499786376953,-21.363000869750977 -125.64299774169922,-18.165000915527344 C-141.67799377441406,-14.635000228881836 -143.40899658203125,-9.75 -125.6240005493164,-10.102999687194824 C-111.4280014038086,-10.385000228881836 -93.67900085449219,-10.635000228881836 -85.87100219726562,-11.163000106811523z"></path></g></g><g style="display: block;" transform="matrix(0.9151497483253479,0.40311408042907715,-0.40311408042907715,0.9151497483253479,339.4020080566406,170.26300048828125)" opacity="1"><g opacity="1" transform="matrix(1,0,0,1,0,0)"><path stroke-linecap="round" stroke-linejoin="round" fill-opacity="0" stroke="rgb(255,255,255)" stroke-opacity="1" stroke-width="0" d=" M16.655000686645508,30.483999252319336 C24.315000534057617,30.114999771118164 31.733999252319336,29.979999542236328 37.52899932861328,30.27400016784668 C38.66899871826172,30.332000732421875 39.755001068115234,30.398000717163086 40.79399871826172,30.468000411987305"></path></g><g opacity="1" transform="matrix(1,0,0,1,0,0)"><path stroke-linecap="round" stroke-linejoin="round" fill-opacity="0" stroke="rgb(255,255,255)" stroke-opacity="1" stroke-width="0" d=" M0.7440000176429749,31.530000686645508 C1.6690000295639038,31.45400047302246 2.6050000190734863,31.3799991607666 3.5490000247955322,31.308000564575195"></path></g></g><g style="display: block;" transform="matrix(1,0,0,1,258.135986328125,282.0429992675781)" opacity="1"><g opacity="1" transform="matrix(1,0,0,1,0,0)"><path fill="rgb(255,177,57)" fill-opacity="1" d=" M-206.60699462890625,-97.1510009765625 C-223.48599243164062,-83.54199981689453 -210.98599243164062,-59.04199981689453 -191.76699829101562,-55.91699981689453 C-180.46200561523438,-54.07899856567383 -149.23399353027344,-53.15399932861328 -126.92400360107422,-52.66699981689453 C-109.73600006103516,-52.29199981689453 -79.23600006103516,-51.29199981689453 -59.33000183105469,-50.54199981689453 C-56.62200164794922,-50.57899856567383 -49.861000061035156,-50.04199981689453 -52.58000183105469,-48.604000091552734 C-61.97999954223633,-40.86800003051758 -62.21200180053711,-29.56399917602539 -62.141998291015625,-24.26099967956543 C-61.849998474121094,-2.056999921798706 -49.29800033569336,2.9579999446868896 -49.29800033569336,2.9579999446868896 C-49.29800033569336,2.9579999446868896 -55.388999938964844,13.352999687194824 -55.266998291015625,24.86400032043457 C-55.08300018310547,42.22600173950195 -39.63399887084961,53.88999938964844 -39.63399887084961,53.88999938964844 C-39.632999420166016,53.88999938964844 -43.04100036621094,76.63600158691406 -26.29800033569336,89.052001953125 C-22.924999237060547,91.5530014038086 -19.301000595092773,93.5780029296875 -15.47599983215332,95.21299743652344 C-0.039000000804662704,101.81199645996094 18.666000366210938,102.04299926757812 37.29499816894531,101.427001953125 C66.00499725341797,100.47699737548828 90.51399993896484,90.95800018310547 114.26399993896484,83.927001953125 C121.19200134277344,81.8759994506836 152.01400756835938,90.45800018310547 180.24600219726562,96.05599975585938 C180.24600219726562,96.05599975585938 220.51400756835938,70.95800018310547 216.11399841308594,4.686999797821045 C209.0659942626953,37.952999114990234 202.3000030517578,65.44100189208984 177.3260040283203,62.895999908447266 C160.74600219726562,61.20600128173828 129.5760040283203,57.61000061035156 131.06100463867188,45.85499954223633 C132.322998046875,35.85499954223633 133.96200561523438,26.32200050354004 129.625,27.024999618530273 C128.40899658203125,27.222000122070312 126.40899658203125,28.076000213623047 123.59200286865234,29.31100082397461 C114.24700164794922,33.40999984741211 95.90899658203125,41.71799850463867 67.35800170898438,44.23899841308594 C55.41699981689453,45.292999267578125 43.915000915527344,45.43299865722656 33.09299850463867,44.944000244140625 C20.614999771118164,44.380001068115234 9.041000366210938,42.97800064086914 -1.2549999952316284,41.172000885009766 C-5.540999889373779,40.41999816894531 -9.607000350952148,39.5989990234375 -13.423999786376953,38.73899841308594 C-25.05900001525879,36.117000579833984 -41.236000061035156,33.70800018310547 -41.391998291015625,22.20800018310547 C-41.61399841308594,5.822999954223633 -28.736000061035156,5.208000183105469 -39.516998291015625,-3.947999954223633 C-53.62200164794922,-15.927000045776367 -49.486000061035156,-36.04199981689453 -38.11800003051758,-44.198001861572266 C-28.277000427246094,-51.25899887084961 -25.992000579833984,-61.64699935913086 -42.520999908447266,-62.430999755859375 C-62.13600158691406,-63.361000061035156 -91.76899719238281,-64.33899688720703 -121.14399719238281,-65.29000091552734 C-142.63299560546875,-65.98600006103516 -163.98399353027344,-66.66799926757812 -181.1739959716797,-67.30899810791016 C-201.3070068359375,-68.05999755859375 -207.23599243164062,-84.54199981689453 -205.68499755859375,-93.16999816894531 C-205.44200134277344,-94.52200317382812 -205.73599243164062,-96.66699981689453 -206.60699462890625,-97.1510009765625z"></path></g></g><g style="display: block;" transform="matrix(-1,0,0,1,164.52000427246094,203.33401489257812)" opacity="1"><g opacity="1" transform="matrix(1,0,0,1,0,0)"><path stroke-linecap="round" stroke-linejoin="round" fill-opacity="0" stroke="rgb(247,126,65)" stroke-opacity="1" stroke-width="8" d=" M-121.89099884033203,-22.843000411987305 C-78.52799987792969,-26.93600082397461 -42.54499816894531,-27.798999786376953 -17.027000427246094,-28.003999710083008 C-4.9070000648498535,-28.101999282836914 4.8520002365112305,-28.052000045776367 11.920000076293945,-28.128000259399414 C30.969999313354492,-28.333999633789062 73.97000122070312,-27.333999633789062 92.98600006103516,-26.040000915527344 C131.98199462890625,-23.38599967956543 129.97000122070312,20.916000366210938 92.82099914550781,23.10300064086914 C83.68599700927734,23.641000747680664 55.446998596191406,24.854999542236328 26.702999114990234,26.018999099731445 C-3.0390000343322754,27.222999572753906 -33.31999969482422,28.374000549316406 -43.529998779296875,28.666000366210938"></path></g></g><g style="display: block;" transform="matrix(-1,0,0,1,288.0980224609375,307.9880065917969)" opacity="1"><g opacity="1" transform="matrix(1,0,0,1,0,0)"><path stroke-linecap="round" stroke-linejoin="round" fill-opacity="0" stroke="rgb(247,126,65)" stroke-opacity="1" stroke-width="8" d=" M-91.99500274658203,57.6150016784668 C-77.7030029296875,55.26900100708008 -59.007999420166016,68.7760009765625 -32.90700149536133,72.76100158691406 C-4.9629998207092285,77.0270004272461 11.468000411987305,76.48500061035156 32.73699951171875,72.25700378417969 C43.62099838256836,70.09300231933594 51.323001861572266,66.42500305175781 56.736000061035156,62.01599884033203"></path></g><g opacity="1" transform="matrix(1,0,0,1,0,0)"><path stroke-linecap="round" stroke-linejoin="round" fill-opacity="0" stroke="rgb(247,126,65)" stroke-opacity="1" stroke-width="8" d=" M56.736000061035156,62.01599884033203 C61.55699920654297,58.0890007019043 64.56199645996094,53.573001861572266 66.37999725341797,49.00699996948242 C69.20700073242188,41.909000396728516 69.16799926757812,34.689998626708984 68.62899780273438,29.371999740600586 C68.56400299072266,28.73200035095215 68.49199676513672,28.118999481201172 68.41699981689453,27.538000106811523 C71.26599884033203,25.523000717163086 73.69000244140625,23.274999618530273 75.71199798583984,20.860000610351562 C80.23100280761719,15.46399974822998 82.74700164794922,9.230999946594238 83.53299713134766,2.872999906539917 C84.56999969482422,-5.517000198364258 82.59500122070312,-14.12399959564209 78.2300033569336,-21.31100082397461 C79.17500305175781,-21.743000030517578 80.197998046875,-22.97100067138672 82.02200317382812,-24.825000762939453 C88.44200134277344,-31.351999282836914 91.76100158691406,-42.388999938964844 91.97100067138672,-48.27899932861328 C92.39199829101562,-60.08399963378906 87.2229995727539,-71.0770034790039 80.57599639892578,-75.70600128173828"></path></g></g><g style="display: block;" transform="matrix(-1,0,0,1,428.58099365234375,288.9049987792969)" opacity="1"><g opacity="1" transform="matrix(1,0,0,1,0,0)"><path stroke-linecap="round" stroke-linejoin="round" fill-opacity="0" stroke="rgb(247,126,65)" stroke-opacity="1" stroke-width="8" d=" M37.78099822998047,-77.52999877929688 C30.854000091552734,-77.16999816894531 12.118000030517578,-83.37899780273438 4.026000022888184,-85.44499969482422 C-3.4749999046325684,-87.36100006103516 -13.687999725341797,-91.82099914550781 -19.44499969482422,-84.7239990234375 C-56.49399948120117,-39.04899978637695 -61.270999908447266,50.034000396728516 -11.416999816894531,87.76000213623047 C-10.279999732971191,88.62100219726562 -8.60099983215332,88.73200225830078 -7.197999954223633,88.4749984741211 C10.60099983215332,85.21800231933594 30.32699966430664,80.4990005493164 48.03099822998047,76.76200103759766"></path></g></g></g></svg>