<svg xmlns="http://www.w3.org/2000/svg" viewBox="0 0 512 512" width="512" height="512" style="width: 100%; height: 100%; transform: translate3d(0,0,0);" preserveAspectRatio="xMidYMid meet"><defs><clipPath id="__lottie_element_7142"><rect width="512" height="512" x="0" y="0"></rect></clipPath></defs><g clip-path="url(#__lottie_element_7142)"><g style="display: block;" transform="matrix(1,0,0,1,3.875,0.125)" opacity="1"><g opacity="1" transform="matrix(1,0,0,1,412.54400634765625,440.6400146484375)"><path fill="rgb(255,177,57)" fill-opacity="1" d=" M56.79899978637695,-49.72999954223633 C56.79899978637695,-49.72999954223633 50.26100158691406,-39.9109992980957 50.26100158691406,-14.779999732971191 C50.26100158691406,-14.779999732971191 50.26100158691406,37.965999603271484 50.26100158691406,37.965999603271484 C50.26100158691406,37.965999603271484 36.571998596191406,47.374000549316406 0.4259999990463257,48.551998138427734 C-35.72200012207031,49.72999954223633 -49.409000396728516,37.965999603271484 -49.409000396728516,37.965999603271484 C-49.409000396728516,37.965999603271484 -49.409000396728516,0.09300000220537186 -49.409000396728516,0.09300000220537186 C-49.409000396728516,-27.93400001525879 -50.02899932861328,-39.430999755859375 -56.79899978637695,-45.58599853515625"></path></g><g opacity="1" transform="matrix(1,0,0,1,412.7139892578125,453.7850036621094)"><path fill="rgb(255,209,64)" fill-opacity="1" d=" M-26.552000045776367,32.97700119018555 C-5.754000186920166,36.91600036621094 12.994999885559082,35.4370002746582 26.509000778198242,32.98500061035156 C32.099998474121094,31.97100067138672 36.191001892089844,26.902999877929688 36.167999267578125,21 C36.10900115966797,6.311999797821045 33.14699935913086,-20.21500015258789 13.366000175476074,-28.21500015258789 C-8.151000022888184,-36.91699981689453 -32.24700164794922,-35.64500045776367 -34.98699951171875,-14.821999549865723 C-35.88800048828125,-7.973999977111816 -36.15700149536133,8.414999961853027 -36.180999755859375,20.961999893188477 C-36.19200134277344,26.861000061035156 -32.132999420166016,31.920000076293945 -26.552000045776367,32.97700119018555z"></path></g><g opacity="1" transform="matrix(1,0,0,1,412.54400634765625,440.6400146484375)"><path stroke-linecap="round" stroke-linejoin="round" fill-opacity="0" stroke="rgb(247,126,65)" stroke-opacity="1" stroke-width="8" d=" M56.79899978637695,-49.72999954223633 C56.79899978637695,-49.72999954223633 50.26100158691406,-39.9109992980957 50.26100158691406,-14.779999732971191 C50.26100158691406,-14.779999732971191 50.26100158691406,37.965999603271484 50.26100158691406,37.965999603271484 C50.26100158691406,37.965999603271484 36.571998596191406,47.374000549316406 0.4259999990463257,48.551998138427734 C-35.72200012207031,49.72999954223633 -49.409000396728516,37.965999603271484 -49.409000396728516,37.965999603271484 C-49.409000396728516,37.965999603271484 -49.409000396728516,0.09300000220537186 -49.409000396728516,0.09300000220537186 C-49.409000396728516,-27.93400001525879 -50.02899932861328,-39.430999755859375 -56.79899978637695,-45.58599853515625"></path></g></g><g style="display: block;" transform="matrix(1.0039000511169434,0,0,1.0039000511169434,3.258453369140625,-1.507568359375)" opacity="1"><g opacity="1" transform="matrix(1,0,0,1,377.0249938964844,327.00299072265625)"><path fill="rgb(255,209,64)" fill-opacity="1" d=" M-23.565000534057617,-55.76300048828125 C-23.29599952697754,-21.944000244140625 -29.51099967956543,-15.0649995803833 -41.63399887084961,-18.22599983215332 C-53.75600051879883,-21.38800048828125 -61.244998931884766,-34.7140007019043 -72.22000122070312,-40.79399871826172 C-83.19499969482422,-46.875 -109.67400360107422,-44.27799987792969 -113.86399841308594,-29.70400047302246 C-118.052001953125,-15.130999565124512 -107.00499725341797,-12.612000465393066 -95.5260009765625,-8.375 C-84.04499816894531,-4.138000011444092 -73.6780014038086,3.6659998893737793 -63.30400085449219,15.123000144958496 C-52.930999755859375,26.58099937438965 -49.76499938964844,30.160999298095703 -36.95600128173828,50.632999420166016 C-24.145999908447266,71.1050033569336 -3.494999885559082,82.69100189208984 16.430999755859375,86.18199920654297 C35.91299819946289,89.59600067138672 66.76399993896484,88.16500091552734 87.5199966430664,70.2229995727539 C112.2239990234375,48.86800003051758 116.21299743652344,-5.752999782562256 118.052001953125,-21.492000579833984 C118.052001953125,-21.492000579833984 108.5250015258789,-50.1349983215332 87.06199645996094,-51.426998138427734 C87.06199645996094,-51.426998138427734 73.36399841308594,-76.15699768066406 50.209999084472656,-72.3489990234375 C50.209999084472656,-72.3489990234375 32.11399841308594,-89.59600067138672 10.873000144958496,-78.9280014038086 C10.873000144958496,-78.9280014038086 -23.81399917602539,-87.12699890136719 -23.565000534057617,-55.76300048828125z"></path></g></g><g style="display: block;" transform="matrix(1.0039000511169434,0,0,1.0039000511169434,3.258453369140625,-1.507568359375)" opacity="1"><g opacity="1" transform="matrix(1,0,0,1,379.531005859375,307.9750061035156)"><path fill="rgb(255,177,57)" fill-opacity="1" d=" M-66.51000213623047,34.152000427246094 C-56.13600158691406,45.606998443603516 -52.96699905395508,49.18600082397461 -40.15599822998047,69.66300201416016 C-27.35099983215332,90.13400268554688 -6.698999881744385,102.81199645996094 13.229999542236328,106.30899810791016 C32.71099853515625,109.72200012207031 63.43299865722656,108.1449966430664 84.31600189208984,90.3489990234375 C116.73200225830078,62.724998474121094 115.8010025024414,13.277999877929688 117.63600158691406,-2.4619998931884766 C117.63600158691406,-2.4619998931884766 118.35900115966797,-34.698001861572266 119.38200378417969,-52.71900177001953 C121.25599670410156,-85.7699966430664 119.14299774169922,-106.18900299072266 109.44100189208984,-108.30500030517578 C102.93800354003906,-109.7229995727539 101.11799621582031,-106.01599884033203 99.44599914550781,-104.13300323486328 C102.0250015258789,-105.59400177001953 107.68900299072266,-104.00299835205078 110.01300048828125,-95.4749984741211 C112.16500091552734,-87.5790023803711 110.72799682617188,-65.77300262451172 110.42900085449219,-53.81399917602539 C109.70099639892578,-24.729000091552734 108.37200164794922,-8.430000305175781 104.45700073242188,20.95400047302246 C103.13600158691406,30.867000579833984 95.41699981689453,55.19499969482422 82.8219985961914,67.83499908447266 C67.2959976196289,83.41500091552734 44.790000915527344,85.19400024414062 41.268001556396484,80.32599639892578 C37.74100112915039,75.46299743652344 41.220001220703125,67.42500305175781 38.40999984741211,60.94499969482422 C35.3380012512207,53.86600112915039 33.79199981689453,55.57500076293945 32.827999114990234,61.33700180053711 C31.86400032043457,67.0979995727539 17.95400047302246,89.3479995727539 -2.7639999389648438,80.75700378417969 C-28.957000732421875,69.89299774169922 -46.62699890136719,35.16299819946289 -64.53900146484375,20.759000778198242 C-87.69100189208984,2.1440000534057617 -99.56600189208984,4.2220001220703125 -108.50700378417969,-2.380000114440918 C-115.5459976196289,-7.577000141143799 -112.59100341796875,-17.378999710083008 -112.46900177001953,-17.750999450683594 C-114.64900207519531,-15.812000274658203 -116.26499938964844,-13.465999603271484 -117.06999969482422,-10.675999641418457 C-121.25599670410156,3.8919999599456787 -110.20800018310547,6.414000034332275 -98.73200225830078,10.652999877929688 C-87.2490005493164,14.888999938964844 -76.88300323486328,22.695999145507812 -66.51000213623047,34.152000427246094z"></path></g></g><g style="display: block;" transform="matrix(1.0039000511169434,0,0,1.0039000511169434,3.258453369140625,-1.507568359375)" opacity="1"><g opacity="1" transform="matrix(1,0,0,1,471.6709899902344,356.7130126953125)"><path stroke-linecap="round" stroke-linejoin="round" fill-opacity="0" stroke="rgb(247,126,65)" stroke-opacity="1" stroke-width="8" d=" M-24.591999053955078,51.20100021362305 C-18.351999282836914,48.58100128173828 -12.411999702453613,45.08300018310547 -7.125999927520752,40.513999938964844 C17.577999114990234,19.159000396728516 23.4060001373291,-17.238000869750977 24.591999053955078,-51.20100021362305"></path></g></g><g style="display: block;" transform="matrix(1.0039000511169434,0,0,1.0039000511169434,3.258453369140625,-1.507568359375)" opacity="1"><g opacity="1" transform="matrix(1,0,0,1,483.8500061035156,252.58900451660156)"><path fill="rgb(255,209,64)" fill-opacity="1" d=" M-17.829999923706055,22.972000122070312 C-14.614999771118164,23.822999954223633 -13.512999534606934,15.583999633789062 -12.96500015258789,4.539000034332275 C-12.640999794006348,-1.9980000257492065 -12.51200008392334,-9.519000053405762 -12.253000259399414,-16.7189998626709 C-11.208000183105469,-45.8380012512207 -8.204000473022461,-52.922000885009766 1.6339999437332153,-52.922000885009766 C17.83099937438965,-52.922000885009766 14.291000366210938,-23.25200080871582 13.809000015258789,1.694000005722046 C13.684000015258789,8.17199993133545 13.614999771118164,13.519000053405762 13.524999618530273,18.81599998474121 C13.364999771118164,28.2810001373291 13.140000343322754,37.5890007019043 12.413000106811523,52.922000885009766"></path></g><g opacity="1" transform="matrix(1,0,0,1,446.4540100097656,210.79200744628906)"><path fill="rgb(255,223,121)" fill-opacity="1" d=" M25.71500015258789,23.83799934387207 C22.458999633789062,-12.807999610900879 44.74700164794922,-23.389999389648438 48.097999572753906,8.604000091552734 C34.6619987487793,-10.192000389099121 28.559999465942383,16.827999114990234 27.84000015258789,28.395999908447266"></path></g><g opacity="1" transform="matrix(1,0,0,1,483.8500061035156,252.58900451660156)"><path fill="rgb(255,177,57)" fill-opacity="1" d=" M1.6339999437332153,-52.922000885009766 C-2.3580000400543213,-52.922000885009766 -5.224999904632568,-51.75600051879883 -7.291999816894531,-48.42499923706055 C3.242000102996826,-50.37099838256836 4.5960001945495605,-41.75299835205078 4.681000232696533,-24.437999725341797 C4.736000061035156,-13.265000343322754 3.759000062942505,36.76300048828125 3.4539999961853027,50.027000427246094 C3.365999937057495,53.8489990234375 12.413000106811523,52.922000885009766 12.413000106811523,52.922000885009766 C13.140000343322754,37.5890007019043 13.364999771118164,28.2810001373291 13.524999618530273,18.81599998474121 C13.614999771118164,13.519000053405762 13.684000015258789,8.17300033569336 13.809000015258789,1.6950000524520874 C14.13599967956543,-15.232000350952148 15.869999885559082,-34.334999084472656 11.892000198364258,-44.867000579833984 C10.006999969482422,-49.856998443603516 6.841000080108643,-52.922000885009766 1.6339999437332153,-52.922000885009766z"></path></g><g opacity="1" transform="matrix(1,0,0,1,483.8500061035156,252.58900451660156)"><path fill="rgb(255,177,57)" fill-opacity="1" d=" M1.6339999437332153,-52.922000885009766 C-8.204000473022461,-52.922000885009766 -11.208000183105469,-45.8380012512207 -12.253000259399414,-16.7189998626709 C-12.51200008392334,-9.519000053405762 -12.640999794006348,-1.9980000257492065 -12.96500015258789,4.539000034332275 C-13.512999534606934,15.583999633789062 -14.614999771118164,23.822999954223633 -17.829999923706055,22.972000122070312 C-17.829999923706055,22.972000122070312 -17.266000747680664,23.73200035095215 -14.234000205993652,23.038999557495117 C-11.20199966430664,22.34600067138672 -11.717000007629395,5.184000015258789 -11.592000007629395,-1.2940000295639038 C-11.109999656677246,-26.239999771118164 -13.690999984741211,-51.117000579833984 1.6339999437332153,-52.922000885009766z"></path></g><g opacity="1" transform="matrix(1,0,0,1,483.8500061035156,252.58900451660156)"><path stroke-linecap="round" stroke-linejoin="round" fill-opacity="0" stroke="rgb(247,126,65)" stroke-opacity="1" stroke-width="8" d=" M-17.829999923706055,22.972000122070312 C-14.614999771118164,23.822999954223633 -13.512999534606934,15.583999633789062 -12.96500015258789,4.539000034332275 C-12.640999794006348,-1.9980000257492065 -12.51200008392334,-9.519000053405762 -12.253000259399414,-16.7189998626709 C-11.208000183105469,-45.8380012512207 -8.204000473022461,-52.922000885009766 1.6339999437332153,-52.922000885009766 C17.83099937438965,-52.922000885009766 14.291000366210938,-23.25200080871582 13.809000015258789,1.694000005722046 C13.684000015258789,8.17199993133545 13.614999771118164,13.519000053405762 13.524999618530273,18.81599998474121 C13.364999771118164,28.2810001373291 13.140000343322754,37.5890007019043 12.413000106811523,52.922000885009766"></path></g></g><g style="display: block;" transform="matrix(1.0039000511169434,0,0,1.0039000511169434,3.258453369140625,-1.507568359375)" opacity="1"><g opacity="1" transform="matrix(1,0,0,1,446.4540100097656,210.79200744628906)"><path fill="rgb(255,209,64)" fill-opacity="1" d=" M-19.565000534057617,46.400001525878906 C-12.16100025177002,47.01900100708008 -13.104999542236328,15.649999618530273 -12.508000373840332,-9.746999740600586 C-12.28499984741211,-19.22800064086914 -12.289999961853027,-27.913000106811523 -12.012999534606934,-35.43000030517578 C-11.352999687194824,-53.33399963378906 -9.093999862670898,-64.61299896240234 1.6540000438690186,-64.23799896240234 C14.081999778747559,-63.80500030517578 17.131000518798828,-49.94300079345703 17.503000259399414,-29.038999557495117 C17.66699981689453,-19.840999603271484 17.312000274658203,-9.277999877929688 17.010000228881836,2.1029999256134033 C16.009000778198242,39.85599899291992 12.35099983215332,64.1719970703125 19.565000534057617,64.76899719238281"></path></g><g opacity="1" transform="matrix(1,0,0,1,446.4540100097656,210.79200744628906)"><path fill="rgb(255,223,121)" fill-opacity="1" d=" M-12.38700008392334,-28.45800018310547 C-15.642999649047852,-65.10399627685547 6.271999835968018,-72.32499694824219 9.746999740600586,-46.680999755859375 C-4.435999870300293,-61.617000579833984 -8.29699993133545,-33.9739990234375 -9.017000198364258,-22.4060001373291"></path></g><g opacity="1" transform="matrix(1,0,0,1,446.4540100097656,210.79200744628906)"><path fill="rgb(255,177,57)" fill-opacity="1" d=" M-3.950000047683716,-59.755001068115234 C11.99899959564209,-60.12300109863281 8.989999771118164,-27.00200080871582 8.161999702453613,-0.7820000052452087 C7.26800012588501,27.535999298095703 2.0380001068115234,75.0999984741211 19.565000534057617,64.76899719238281 C11.99899959564209,62.64799880981445 16.009000778198242,39.85599899291992 17.010000228881836,2.1029999256134033 C17.312000274658203,-9.277999877929688 17.66699981689453,-19.840999603271484 17.503000259399414,-29.038999557495117 C17.131000518798828,-49.94300079345703 10.630000114440918,-71.7030029296875 -3.950000047683716,-59.755001068115234z"></path></g><g opacity="1" transform="matrix(1,0,0,1,446.4540100097656,210.79200744628906)"><path fill="rgb(255,177,57)" fill-opacity="1" d=" M-19.565000534057617,46.400001525878906 C-12.16100025177002,47.01900100708008 -13.104999542236328,15.649999618530273 -12.508000373840332,-9.746999740600586 C-12.28499984741211,-19.22800064086914 -12.289999961853027,-27.913000106811523 -12.012999534606934,-35.43000030517578 C-11.352999687194824,-53.33399963378906 -9.093999862670898,-64.61299896240234 1.6540000438690186,-64.23799896240234 C-13.446000099182129,-64.52400207519531 -10.826000213623047,-23.829999923706055 -10.760000228881836,-12.444999694824219 C-10.640999794006348,8.142000198364258 -10.91100025177002,46.46099853515625 -18.038000106811523,47.33700180053711"></path></g><g opacity="1" transform="matrix(1,0,0,1,446.4540100097656,210.79200744628906)"><path stroke-linecap="round" stroke-linejoin="round" fill-opacity="0" stroke="rgb(247,126,65)" stroke-opacity="1" stroke-width="8" d=" M-19.565000534057617,46.400001525878906 C-12.16100025177002,47.01900100708008 -13.104999542236328,15.649999618530273 -12.508000373840332,-9.746999740600586 C-12.28499984741211,-19.22800064086914 -12.289999961853027,-27.913000106811523 -12.012999534606934,-35.43000030517578 C-11.352999687194824,-53.33399963378906 -9.093999862670898,-64.61299896240234 1.6540000438690186,-64.23799896240234 C14.081999778747559,-63.80500030517578 17.131000518798828,-49.94300079345703 17.503000259399414,-29.038999557495117 C17.66699981689453,-19.840999603271484 17.312000274658203,-9.277999877929688 17.010000228881836,2.1029999256134033 C16.009000778198242,39.85599899291992 12.35099983215332,64.1719970703125 19.565000534057617,64.76899719238281"></path></g></g><g style="display: block;" transform="matrix(1.0039000511169434,0,0,1.0039000511169434,3.258453369140625,-1.507568359375)" opacity="1"><g opacity="1" transform="matrix(1,0,0,1,407.7640075683594,191.3260040283203)"><path fill="rgb(255,209,64)" fill-opacity="1" d=" M19.125,65.86699676513672 C12.92199993133545,65.22599792480469 16.388999938964844,45.24100112915039 16.20599937438965,5.5289998054504395 C16.124000549316406,-12.256999969482422 16.642000198364258,-28.461999893188477 15.647000312805176,-40.88999938964844 C14.425999641418457,-56.14699935913086 10.925999641418457,-65.70999908447266 1.2389999628067017,-65.51799774169922 C-11.484999656677246,-65.26499938964844 -14.72700023651123,-55.09700012207031 -15.574999809265137,-37.04800033569336 C-15.965999603271484,-28.71500015258789 -15.847000122070312,-18.70199966430664 -15.914999961853027,-7.209000110626221 C-16.09000015258789,22.413999557495117 -12.119999885559082,57.89899826049805 -19.125,57.60900115966797"></path></g><g opacity="1" transform="matrix(1,0,0,1,407.7640075683594,191.3260040283203)"><path fill="rgb(255,223,121)" fill-opacity="1" d=" M7.073999881744385,-51.3120002746582 C-3.8469998836517334,-78.01000213623047 -16.54800033569336,-55.3489990234375 -16.32200050354004,-37.297000885009766 C-16.218000411987305,-28.954999923706055 -15.847000122070312,-18.70199966430664 -15.914999961853027,-7.209000110626221 C-16.09000015258789,22.413999557495117 -12.119999885559082,57.89899826049805 -19.125,57.60900115966797 C-19.125,57.60900115966797 -25.944000244140625,60.36800003051758 -18.726999282836914,61.1349983215332 C-4.0960001945495605,62.689998626708984 -6.089000225067139,37.53900146484375 -5.958000183105469,-1.6929999589920044 C-5.8379998207092285,-37.67900085449219 -6.835000038146973,-60.82699966430664 7.073999881744385,-51.3120002746582z"></path></g><g opacity="1" transform="matrix(1,0,0,1,407.7640075683594,191.3260040283203)"><path fill="rgb(255,177,57)" fill-opacity="1" d=" M-7.228000164031982,-59.915000915527344 C10.970000267028809,-62.196998596191406 8.354999542236328,-31.441999435424805 7.743000030517578,7.484000205993652 C6.771999835968018,69.2040023803711 9.35099983215332,69.91200256347656 19.62299919128418,68.60600280761719 C13.833999633789062,66.67500305175781 16.388999938964844,45.24100112915039 16.20599937438965,5.5289998054504395 C16.124000549316406,-12.256999969482422 16.642000198364258,-28.461999893188477 15.647000312805176,-40.88999938964844 C14.425999641418457,-56.14699935913086 4.245999813079834,-71.41200256347656 -7.228000164031982,-59.915000915527344z"></path></g><g opacity="1" transform="matrix(1,0,0,1,407.7640075683594,191.3260040283203)"><path fill="rgb(255,177,57)" fill-opacity="1" d=" M-12.848999977111816,-48.821998596191406 C-14.89900016784668,-45.31100082397461 -15.423999786376953,-42.595001220703125 -15.574999809265137,-37.04800033569336 C-15.802000045776367,-28.708999633789062 -15.847000122070312,-18.70199966430664 -15.914999961853027,-7.209000110626221 C-16.09000015258789,22.413999557495117 -12.119999885559082,57.89899826049805 -19.125,57.60900115966797 C-19.125,57.60900115966797 -23.601999282836914,60.99300003051758 -16.735000610351562,58.64500045776367 C-11.815999984741211,56.9630012512207 -13.993000030517578,37.520999908447266 -14.175999641418457,-2.190999984741211 C-14.258000373840332,-19.976999282836914 -14.057999610900879,-43.37799835205078 -12.848999977111816,-48.821998596191406z"></path></g><g opacity="1" transform="matrix(1,0,0,1,407.7640075683594,191.3260040283203)"><path stroke-linecap="round" stroke-linejoin="round" fill-opacity="0" stroke="rgb(247,126,65)" stroke-opacity="1" stroke-width="8" d=" M19.125,65.86699676513672 C12.92199993133545,65.22599792480469 16.388999938964844,45.24100112915039 16.20599937438965,5.5289998054504395 C16.124000549316406,-12.256999969482422 16.642000198364258,-28.461999893188477 15.647000312805176,-40.88999938964844 C14.425999641418457,-56.14699935913086 10.925999641418457,-65.70999908447266 1.2389999628067017,-65.51799774169922 C-11.484999656677246,-65.26499938964844 -14.72700023651123,-55.09700012207031 -15.574999809265137,-37.04800033569336 C-15.965999603271484,-28.71500015258789 -15.847000122070312,-18.70199966430664 -15.914999961853027,-7.209000110626221 C-16.09000015258789,22.413999557495117 -12.119999885559082,57.89899826049805 -19.125,57.60900115966797"></path></g></g><g style="display: block;" transform="matrix(1.0039000511169434,0,0,1.0039000511169434,3.258453369140625,-1.507568359375)" opacity="1"><g opacity="1" transform="matrix(1,0,0,1,368.4549865722656,206.8800048828125)"><path fill="rgb(255,209,64)" fill-opacity="1" d=" M-14.994999885559082,64.36000061035156 C-14.810999870300293,53.20800018310547 -16.350000381469727,19.511999130249023 -16.548999786376953,7.6519999504089355 C-16.844999313354492,-10.07800006866455 -17.434999465942383,-24.679000854492188 -17.083999633789062,-35.987998962402344 C-16.503999710083008,-54.65999984741211 -13.357999801635742,-64.36000061035156 -2.0880000591278076,-64.36000061035156 C8.854999542236328,-64.36000061035156 11.413000106811523,-54.80699920654297 12.329999923706055,-37.39699935913086 C12.730999946594238,-29.797000885009766 12.819000244140625,-20.698999404907227 13.154999732971191,-10.244999885559082 C14.161999702453613,21.02899932861328 12.114999771118164,42.84299850463867 20.18400001525879,42.05400085449219"></path></g><g opacity="1" transform="matrix(1,0,0,1,368.4549865722656,206.8800048828125)"><path fill="rgb(255,223,121)" fill-opacity="1" d=" M3.640000104904175,-55.893001556396484 C-8.118000030517578,-71.1520004272461 -16.503999710083008,-54.65999984741211 -17.083999633789062,-35.987998962402344 C-17.434999465942383,-24.679000854492188 -16.844999313354492,-10.07800006866455 -16.548999786376953,7.6519999504089355 C-16.350000381469727,19.511999130249023 -14.810999870300293,53.20800018310547 -14.994999885559082,64.36000061035156 C-14.994999885559082,64.36000061035156 -14.430999755859375,88.37300109863281 -14.430999755859375,88.37300109863281 C-2.1419999599456787,84.24099731445312 -7.122000217437744,36.926998138427734 -7.763000011444092,-14.477999687194824 C-7.922999858856201,-27.32200050354004 -9.612000465393066,-49.736000061035156 3.640000104904175,-55.893001556396484z"></path></g><g opacity="1" transform="matrix(1,0,0,1,368.4549865722656,206.8800048828125)"><path fill="rgb(255,177,57)" fill-opacity="1" d=" M-11.550999641418457,-59.130001068115234 C7.818999767303467,-63.680999755859375 4.172999858856201,-30.805999755859375 4.618000030517578,4.414999961853027 C5.078999996185303,40.9109992980957 9.562000274658203,46.63800048828125 20.433000564575195,45.540000915527344 C11.305999755859375,38.17100143432617 14.161999702453613,21.02899932861328 13.154999732971191,-10.244999885559082 C12.819000244140625,-20.698999404907227 12.730999946594238,-29.797000885009766 12.329999923706055,-37.39699935913086 C11.413000106811523,-54.80699920654297 4.581999778747559,-71.1520004272461 -11.550999641418457,-59.130001068115234z"></path></g><g opacity="1" transform="matrix(1,0,0,1,368.4549865722656,206.8800048828125)"><path stroke-linecap="round" stroke-linejoin="round" fill-opacity="0" stroke="rgb(247,126,65)" stroke-opacity="1" stroke-width="8" d=" M-14.994999885559082,64.36000061035156 C-14.810999870300293,53.20800018310547 -16.350000381469727,19.511999130249023 -16.548999786376953,7.6519999504089355 C-16.844999313354492,-10.07800006866455 -17.434999465942383,-24.679000854492188 -17.083999633789062,-35.987998962402344 C-16.503999710083008,-54.65999984741211 -13.357999801635742,-64.36000061035156 -2.0880000591278076,-64.36000061035156 C8.854999542236328,-64.36000061035156 11.413000106811523,-54.80699920654297 12.329999923706055,-37.39699935913086 C12.730999946594238,-29.797000885009766 12.819000244140625,-20.698999404907227 13.154999732971191,-10.244999885559082 C14.161999702453613,21.02899932861328 12.114999771118164,42.84299850463867 20.18400001525879,42.05400085449219"></path></g></g><g style="display: block;" transform="matrix(1.0039000511169434,0,0,1.0039000511169434,3.258453369140625,-1.507568359375)" opacity="1"><g opacity="1" transform="matrix(1,0,0,1,342.2449951171875,311.739013671875)"><path fill="rgb(255,177,57)" fill-opacity="1" d=" M-67.81800079345703,-23.249000549316406 C-32.87099838256836,-36.178001403808594 -30.238000869750977,-6.2270002365112305 -6.318999767303467,3.805000066757202 C4.415999889373779,8.307999610900879 10.52299976348877,-1.4600000381469727 32.952999114990234,6.388000011444092 C48.722999572753906,11.906000137329102 57.19200134277344,25.479999542236328 61.659000396728516,31.562000274658203 C63.250999450683594,33.729000091552734 64.33399963378906,34.944000244140625 65.05899810791016,34.505001068115234 C67.81800079345703,32.83300018310547 65.37100219726562,21.98200035095215 56.948001861572266,10.706000328063965 C45.95500183105469,-4.010000228881836 28.381000518798828,-11.131999969482422 20.268999099731445,-14.187999725341797 C12.16100025177002,-17.23900032043457 11.279999732971191,-24.64299964904785 11.279999732971191,-24.64299964904785 C11.593999862670898,-5.51200008392334 2.9649999141693115,-0.4059999883174896 -6.8520002365112305,-2.9619998931884766 C-18.974000930786133,-6.122000217437744 -26.46500015258789,-19.447999954223633 -37.4370002746582,-25.5310001373291 C-44.599998474121094,-29.4950008392334 -58.380001068115234,-30.16900062561035 -67.81800079345703,-23.249000549316406z"></path></g><g opacity="1" transform="matrix(1,0,0,1,0,0)"><path fill="rgb(255,177,57)" fill-opacity="1" d=" M401.7929992675781,328.8940124511719 C401.4469909667969,328.7959899902344 401.14300537109375,328.7040100097656 400.875,328.614990234375 C396.9360046386719,327.30499267578125 400.9630126953125,326.802001953125 395.9809875488281,322.3110046386719 C385.36700439453125,312.7439880371094 407.1619873046875,349.875 407.22900390625,343.8659973144531 C407.27801513671875,339.4960021972656 405.1610107421875,329.84600830078125 401.7929992675781,328.8940124511719z"></path></g></g><g style="display: block;" transform="matrix(1.0039000511169434,0,0,1.0039000511169434,3.258453369140625,-1.507568359375)" opacity="1"><g opacity="1" transform="matrix(1,0,0,1,318.7409973144531,340.13800048828125)"><path stroke-linecap="round" stroke-linejoin="round" fill-opacity="0" stroke="rgb(247,126,65)" stroke-opacity="1" stroke-width="8" d=" M34.71900177001953,-68.89800262451172 C35.36399841308594,-50.513999938964844 33.35599899291992,-37.89699935913086 28.493000030517578,-33.972999572753906 C25.320999145507812,-31.413000106811523 21.43600082397461,-30.113000869750977 16.649999618530273,-31.361000061035156 C4.5279998779296875,-34.52299880981445 -2.9609999656677246,-47.849998474121094 -13.935999870300293,-53.93000030517578 C-24.910999298095703,-60.01100158691406 -51.39099884033203,-57.41400146484375 -55.58100128173828,-42.84000015258789 C-59.76900100708008,-28.267000198364258 -48.72100067138672,-25.74799919128418 -37.242000579833984,-21.51099967956543 C-25.76099967956543,-17.27400016784668 -15.395000457763672,-9.468999862670898 -5.020999908447266,1.9880000352859497 C5.3520002365112305,13.446000099182129 8.517999649047852,17.025999069213867 21.32699966430664,37.49800109863281 C30.934999465942383,52.85200119018555 44.95199966430664,63.207000732421875 59.768001556396484,68.89800262451172"></path></g></g><g style="display: block;" transform="matrix(0.9999699592590332,-0.008360070176422596,0.008360070176422596,0.9999699592590332,4.06036376953125,2.15850830078125)" opacity="1"><g opacity="1" transform="matrix(1,0,0,1,360.9339904785156,174.50399780273438)"><path stroke-linecap="round" stroke-linejoin="round" fill-opacity="0" stroke="rgb(255,255,255)" stroke-opacity="1" stroke-width="6" d=" M0.16599999368190765,-4.140999794006348 C0.16599999368190765,-4.140999794006348 -0.16500000655651093,-0.5910000205039978 -0.16500000655651093,4.140999794006348"></path></g></g><g style="display: block;" transform="matrix(-1,0,0,1,508.125,0.125)" opacity="1"><g opacity="1" transform="matrix(1,0,0,1,412.54400634765625,440.6400146484375)"><path fill="rgb(255,177,57)" fill-opacity="1" d=" M56.79899978637695,-49.72999954223633 C56.79899978637695,-49.72999954223633 50.26100158691406,-39.9109992980957 50.26100158691406,-14.779999732971191 C50.26100158691406,-14.779999732971191 50.26100158691406,37.965999603271484 50.26100158691406,37.965999603271484 C50.26100158691406,37.965999603271484 36.571998596191406,47.374000549316406 0.4259999990463257,48.551998138427734 C-35.72200012207031,49.72999954223633 -49.409000396728516,37.965999603271484 -49.409000396728516,37.965999603271484 C-49.409000396728516,37.965999603271484 -49.409000396728516,0.09300000220537186 -49.409000396728516,0.09300000220537186 C-49.409000396728516,-27.93400001525879 -50.02899932861328,-39.430999755859375 -56.79899978637695,-45.58599853515625"></path></g><g opacity="1" transform="matrix(1,0,0,1,412.7139892578125,453.7850036621094)"><path fill="rgb(255,209,64)" fill-opacity="1" d=" M-26.552000045776367,32.97700119018555 C-5.754000186920166,36.91600036621094 12.994999885559082,35.4370002746582 26.509000778198242,32.98500061035156 C32.099998474121094,31.97100067138672 36.191001892089844,26.902999877929688 36.167999267578125,21 C36.10900115966797,6.311999797821045 33.14699935913086,-20.21500015258789 13.366000175476074,-28.21500015258789 C-8.151000022888184,-36.91699981689453 -32.24700164794922,-35.64500045776367 -34.98699951171875,-14.821999549865723 C-35.88800048828125,-7.973999977111816 -36.15700149536133,8.414999961853027 -36.180999755859375,20.961999893188477 C-36.19200134277344,26.861000061035156 -32.132999420166016,31.920000076293945 -26.552000045776367,32.97700119018555z"></path></g><g opacity="1" transform="matrix(1,0,0,1,412.54400634765625,440.6400146484375)"><path stroke-linecap="round" stroke-linejoin="round" fill-opacity="0" stroke="rgb(247,126,65)" stroke-opacity="1" stroke-width="8" d=" M56.79899978637695,-49.72999954223633 C56.79899978637695,-49.72999954223633 50.26100158691406,-39.9109992980957 50.26100158691406,-14.779999732971191 C50.26100158691406,-14.779999732971191 50.26100158691406,37.965999603271484 50.26100158691406,37.965999603271484 C50.26100158691406,37.965999603271484 36.571998596191406,47.374000549316406 0.4259999990463257,48.551998138427734 C-35.72200012207031,49.72999954223633 -49.409000396728516,37.965999603271484 -49.409000396728516,37.965999603271484 C-49.409000396728516,37.965999603271484 -49.409000396728516,0.09300000220537186 -49.409000396728516,0.09300000220537186 C-49.409000396728516,-27.93400001525879 -50.02899932861328,-39.430999755859375 -56.79899978637695,-45.58599853515625"></path></g></g><g style="display: block;" transform="matrix(-1.0039000511169434,0,0,1.0039000511169434,508.7415466308594,-1.507568359375)" opacity="1"><g opacity="1" transform="matrix(1,0,0,1,377.0249938964844,327.00299072265625)"><path fill="rgb(255,209,64)" fill-opacity="1" d=" M-23.565000534057617,-55.76300048828125 C-23.29599952697754,-21.944000244140625 -29.51099967956543,-15.0649995803833 -41.63399887084961,-18.22599983215332 C-53.75600051879883,-21.38800048828125 -61.244998931884766,-34.7140007019043 -72.22000122070312,-40.79399871826172 C-83.19499969482422,-46.875 -109.67400360107422,-44.27799987792969 -113.86399841308594,-29.70400047302246 C-118.052001953125,-15.130999565124512 -107.00499725341797,-12.612000465393066 -95.5260009765625,-8.375 C-84.04499816894531,-4.138000011444092 -73.6780014038086,3.6659998893737793 -63.30400085449219,15.123000144958496 C-52.930999755859375,26.58099937438965 -49.76499938964844,30.160999298095703 -36.95600128173828,50.632999420166016 C-24.145999908447266,71.1050033569336 -3.494999885559082,82.69100189208984 16.430999755859375,86.18199920654297 C35.91299819946289,89.59600067138672 66.76399993896484,88.16500091552734 87.5199966430664,70.2229995727539 C112.2239990234375,48.86800003051758 116.21299743652344,-5.752999782562256 118.052001953125,-21.492000579833984 C118.052001953125,-21.492000579833984 108.5250015258789,-50.1349983215332 87.06199645996094,-51.426998138427734 C87.06199645996094,-51.426998138427734 73.36399841308594,-76.15699768066406 50.209999084472656,-72.3489990234375 C50.209999084472656,-72.3489990234375 32.11399841308594,-89.59600067138672 10.873000144958496,-78.9280014038086 C10.873000144958496,-78.9280014038086 -23.81399917602539,-87.12699890136719 -23.565000534057617,-55.76300048828125z"></path></g></g><g style="display: block;" transform="matrix(-1.0039000511169434,0,0,1.0039000511169434,508.7415466308594,-1.507568359375)" opacity="1"><g opacity="1" transform="matrix(1,0,0,1,379.531005859375,307.9750061035156)"><path fill="rgb(255,177,57)" fill-opacity="1" d=" M-66.51000213623047,34.152000427246094 C-56.13600158691406,45.606998443603516 -52.96699905395508,49.18600082397461 -40.15599822998047,69.66300201416016 C-27.35099983215332,90.13400268554688 -6.698999881744385,102.81199645996094 13.229999542236328,106.30899810791016 C32.71099853515625,109.72200012207031 63.43299865722656,108.1449966430664 84.31600189208984,90.3489990234375 C116.73200225830078,62.724998474121094 115.8010025024414,13.277999877929688 117.63600158691406,-2.4619998931884766 C117.63600158691406,-2.4619998931884766 118.35900115966797,-34.698001861572266 119.38200378417969,-52.71900177001953 C121.25599670410156,-85.7699966430664 119.14299774169922,-106.18900299072266 109.44100189208984,-108.30500030517578 C102.93800354003906,-109.7229995727539 101.11799621582031,-106.01599884033203 99.44599914550781,-104.13300323486328 C102.0250015258789,-105.59400177001953 107.68900299072266,-104.00299835205078 110.01300048828125,-95.4749984741211 C112.16500091552734,-87.5790023803711 110.72799682617188,-65.77300262451172 110.42900085449219,-53.81399917602539 C109.70099639892578,-24.729000091552734 108.37200164794922,-8.430000305175781 104.45700073242188,20.95400047302246 C103.13600158691406,30.867000579833984 95.41699981689453,55.19499969482422 82.8219985961914,67.83499908447266 C67.2959976196289,83.41500091552734 44.790000915527344,85.19400024414062 41.268001556396484,80.32599639892578 C37.74100112915039,75.46299743652344 41.220001220703125,67.42500305175781 38.40999984741211,60.94499969482422 C35.3380012512207,53.86600112915039 33.79199981689453,55.57500076293945 32.827999114990234,61.33700180053711 C31.86400032043457,67.0979995727539 17.95400047302246,89.3479995727539 -2.7639999389648438,80.75700378417969 C-28.957000732421875,69.89299774169922 -46.62699890136719,35.16299819946289 -64.53900146484375,20.759000778198242 C-87.69100189208984,2.1440000534057617 -99.56600189208984,4.2220001220703125 -108.50700378417969,-2.380000114440918 C-115.5459976196289,-7.577000141143799 -112.59100341796875,-17.378999710083008 -112.46900177001953,-17.750999450683594 C-114.64900207519531,-15.812000274658203 -116.26499938964844,-13.465999603271484 -117.06999969482422,-10.675999641418457 C-121.25599670410156,3.8919999599456787 -110.20800018310547,6.414000034332275 -98.73200225830078,10.652999877929688 C-87.2490005493164,14.888999938964844 -76.88300323486328,22.695999145507812 -66.51000213623047,34.152000427246094z"></path></g></g><g style="display: block;" transform="matrix(-1.0039000511169434,0,0,1.0039000511169434,508.7415466308594,-1.507568359375)" opacity="1"><g opacity="1" transform="matrix(1,0,0,1,471.6709899902344,356.7130126953125)"><path stroke-linecap="round" stroke-linejoin="round" fill-opacity="0" stroke="rgb(247,126,65)" stroke-opacity="1" stroke-width="8" d=" M-24.591999053955078,51.20100021362305 C-18.351999282836914,48.58100128173828 -12.411999702453613,45.08300018310547 -7.125999927520752,40.513999938964844 C17.577999114990234,19.159000396728516 23.4060001373291,-17.238000869750977 24.591999053955078,-51.20100021362305"></path></g></g><g style="display: block;" transform="matrix(-1.0039000511169434,0,0,1.0039000511169434,508.7415466308594,-1.507568359375)" opacity="1"><g opacity="1" transform="matrix(1,0,0,1,483.8500061035156,252.58900451660156)"><path fill="rgb(255,209,64)" fill-opacity="1" d=" M-17.829999923706055,22.972000122070312 C-14.614999771118164,23.822999954223633 -13.512999534606934,15.583999633789062 -12.96500015258789,4.539000034332275 C-12.640999794006348,-1.9980000257492065 -12.51200008392334,-9.519000053405762 -12.253000259399414,-16.7189998626709 C-11.208000183105469,-45.8380012512207 -8.204000473022461,-52.922000885009766 1.6339999437332153,-52.922000885009766 C17.83099937438965,-52.922000885009766 14.291000366210938,-23.25200080871582 13.809000015258789,1.694000005722046 C13.684000015258789,8.17199993133545 13.614999771118164,13.519000053405762 13.524999618530273,18.81599998474121 C13.364999771118164,28.2810001373291 13.140000343322754,37.5890007019043 12.413000106811523,52.922000885009766"></path></g><g opacity="1" transform="matrix(1,0,0,1,446.4540100097656,210.79200744628906)"><path fill="rgb(255,223,121)" fill-opacity="1" d=" M25.71500015258789,23.83799934387207 C22.458999633789062,-12.807999610900879 44.74700164794922,-23.389999389648438 48.097999572753906,8.604000091552734 C34.6619987487793,-10.192000389099121 28.559999465942383,16.827999114990234 27.84000015258789,28.395999908447266"></path></g><g opacity="1" transform="matrix(1,0,0,1,483.8500061035156,252.58900451660156)"><path fill="rgb(255,177,57)" fill-opacity="1" d=" M1.6339999437332153,-52.922000885009766 C-2.3580000400543213,-52.922000885009766 -5.224999904632568,-51.75600051879883 -7.291999816894531,-48.42499923706055 C3.242000102996826,-50.37099838256836 4.5960001945495605,-41.75299835205078 4.681000232696533,-24.437999725341797 C4.736000061035156,-13.265000343322754 3.759000062942505,36.76300048828125 3.4539999961853027,50.027000427246094 C3.365999937057495,53.8489990234375 12.413000106811523,52.922000885009766 12.413000106811523,52.922000885009766 C13.140000343322754,37.5890007019043 13.364999771118164,28.2810001373291 13.524999618530273,18.81599998474121 C13.614999771118164,13.519000053405762 13.684000015258789,8.17300033569336 13.809000015258789,1.6950000524520874 C14.13599967956543,-15.232000350952148 15.869999885559082,-34.334999084472656 11.892000198364258,-44.867000579833984 C10.006999969482422,-49.856998443603516 6.841000080108643,-52.922000885009766 1.6339999437332153,-52.922000885009766z"></path></g><g opacity="1" transform="matrix(1,0,0,1,483.8500061035156,252.58900451660156)"><path fill="rgb(255,177,57)" fill-opacity="1" d=" M1.6339999437332153,-52.922000885009766 C-8.204000473022461,-52.922000885009766 -11.208000183105469,-45.8380012512207 -12.253000259399414,-16.7189998626709 C-12.51200008392334,-9.519000053405762 -12.640999794006348,-1.9980000257492065 -12.96500015258789,4.539000034332275 C-13.512999534606934,15.583999633789062 -14.614999771118164,23.822999954223633 -17.829999923706055,22.972000122070312 C-17.829999923706055,22.972000122070312 -17.266000747680664,23.73200035095215 -14.234000205993652,23.038999557495117 C-11.20199966430664,22.34600067138672 -11.717000007629395,5.184000015258789 -11.592000007629395,-1.2940000295639038 C-11.109999656677246,-26.239999771118164 -13.690999984741211,-51.117000579833984 1.6339999437332153,-52.922000885009766z"></path></g><g opacity="1" transform="matrix(1,0,0,1,483.8500061035156,252.58900451660156)"><path stroke-linecap="round" stroke-linejoin="round" fill-opacity="0" stroke="rgb(247,126,65)" stroke-opacity="1" stroke-width="8" d=" M-17.829999923706055,22.972000122070312 C-14.614999771118164,23.822999954223633 -13.512999534606934,15.583999633789062 -12.96500015258789,4.539000034332275 C-12.640999794006348,-1.9980000257492065 -12.51200008392334,-9.519000053405762 -12.253000259399414,-16.7189998626709 C-11.208000183105469,-45.8380012512207 -8.204000473022461,-52.922000885009766 1.6339999437332153,-52.922000885009766 C17.83099937438965,-52.922000885009766 14.291000366210938,-23.25200080871582 13.809000015258789,1.694000005722046 C13.684000015258789,8.17199993133545 13.614999771118164,13.519000053405762 13.524999618530273,18.81599998474121 C13.364999771118164,28.2810001373291 13.140000343322754,37.5890007019043 12.413000106811523,52.922000885009766"></path></g></g><g style="display: block;" transform="matrix(-1.0039000511169434,0,0,1.0039000511169434,508.7415466308594,-1.507568359375)" opacity="1"><g opacity="1" transform="matrix(1,0,0,1,446.4540100097656,210.79200744628906)"><path fill="rgb(255,209,64)" fill-opacity="1" d=" M-19.565000534057617,46.400001525878906 C-12.16100025177002,47.01900100708008 -13.104999542236328,15.649999618530273 -12.508000373840332,-9.746999740600586 C-12.28499984741211,-19.22800064086914 -12.289999961853027,-27.913000106811523 -12.012999534606934,-35.43000030517578 C-11.352999687194824,-53.33399963378906 -9.093999862670898,-64.61299896240234 1.6540000438690186,-64.23799896240234 C14.081999778747559,-63.80500030517578 17.131000518798828,-49.94300079345703 17.503000259399414,-29.038999557495117 C17.66699981689453,-19.840999603271484 17.312000274658203,-9.277999877929688 17.010000228881836,2.1029999256134033 C16.009000778198242,39.85599899291992 12.35099983215332,64.1719970703125 19.565000534057617,64.76899719238281"></path></g><g opacity="1" transform="matrix(1,0,0,1,446.4540100097656,210.79200744628906)"><path fill="rgb(255,223,121)" fill-opacity="1" d=" M-12.38700008392334,-28.45800018310547 C-15.642999649047852,-65.10399627685547 6.271999835968018,-72.32499694824219 9.746999740600586,-46.680999755859375 C-4.435999870300293,-61.617000579833984 -8.29699993133545,-33.9739990234375 -9.017000198364258,-22.4060001373291"></path></g><g opacity="1" transform="matrix(1,0,0,1,446.4540100097656,210.79200744628906)"><path fill="rgb(255,177,57)" fill-opacity="1" d=" M-3.950000047683716,-59.755001068115234 C11.99899959564209,-60.12300109863281 8.989999771118164,-27.00200080871582 8.161999702453613,-0.7820000052452087 C7.26800012588501,27.535999298095703 2.0380001068115234,75.0999984741211 19.565000534057617,64.76899719238281 C11.99899959564209,62.64799880981445 16.009000778198242,39.85599899291992 17.010000228881836,2.1029999256134033 C17.312000274658203,-9.277999877929688 17.66699981689453,-19.840999603271484 17.503000259399414,-29.038999557495117 C17.131000518798828,-49.94300079345703 10.630000114440918,-71.7030029296875 -3.950000047683716,-59.755001068115234z"></path></g><g opacity="1" transform="matrix(1,0,0,1,446.4540100097656,210.79200744628906)"><path fill="rgb(255,177,57)" fill-opacity="1" d=" M-19.565000534057617,46.400001525878906 C-12.16100025177002,47.01900100708008 -13.104999542236328,15.649999618530273 -12.508000373840332,-9.746999740600586 C-12.28499984741211,-19.22800064086914 -12.289999961853027,-27.913000106811523 -12.012999534606934,-35.43000030517578 C-11.352999687194824,-53.33399963378906 -9.093999862670898,-64.61299896240234 1.6540000438690186,-64.23799896240234 C-13.446000099182129,-64.52400207519531 -10.826000213623047,-23.829999923706055 -10.760000228881836,-12.444999694824219 C-10.640999794006348,8.142000198364258 -10.91100025177002,46.46099853515625 -18.038000106811523,47.33700180053711"></path></g><g opacity="1" transform="matrix(1,0,0,1,446.4540100097656,210.79200744628906)"><path stroke-linecap="round" stroke-linejoin="round" fill-opacity="0" stroke="rgb(247,126,65)" stroke-opacity="1" stroke-width="8" d=" M-19.565000534057617,46.400001525878906 C-12.16100025177002,47.01900100708008 -13.104999542236328,15.649999618530273 -12.508000373840332,-9.746999740600586 C-12.28499984741211,-19.22800064086914 -12.289999961853027,-27.913000106811523 -12.012999534606934,-35.43000030517578 C-11.352999687194824,-53.33399963378906 -9.093999862670898,-64.61299896240234 1.6540000438690186,-64.23799896240234 C14.081999778747559,-63.80500030517578 17.131000518798828,-49.94300079345703 17.503000259399414,-29.038999557495117 C17.66699981689453,-19.840999603271484 17.312000274658203,-9.277999877929688 17.010000228881836,2.1029999256134033 C16.009000778198242,39.85599899291992 12.35099983215332,64.1719970703125 19.565000534057617,64.76899719238281"></path></g></g><g style="display: block;" transform="matrix(-1.0039000511169434,0,0,1.0039000511169434,508.7415466308594,-1.507568359375)" opacity="1"><g opacity="1" transform="matrix(1,0,0,1,407.7640075683594,191.3260040283203)"><path fill="rgb(255,209,64)" fill-opacity="1" d=" M19.125,65.86699676513672 C12.92199993133545,65.22599792480469 16.388999938964844,45.24100112915039 16.20599937438965,5.5289998054504395 C16.124000549316406,-12.256999969482422 16.642000198364258,-28.461999893188477 15.647000312805176,-40.88999938964844 C14.425999641418457,-56.14699935913086 10.925999641418457,-65.70999908447266 1.2389999628067017,-65.51799774169922 C-11.484999656677246,-65.26499938964844 -14.72700023651123,-55.09700012207031 -15.574999809265137,-37.04800033569336 C-15.965999603271484,-28.71500015258789 -15.847000122070312,-18.70199966430664 -15.914999961853027,-7.209000110626221 C-16.09000015258789,22.413999557495117 -12.119999885559082,57.89899826049805 -19.125,57.60900115966797"></path></g><g opacity="1" transform="matrix(1,0,0,1,407.7640075683594,191.3260040283203)"><path fill="rgb(255,223,121)" fill-opacity="1" d=" M7.073999881744385,-51.3120002746582 C-3.8469998836517334,-78.01000213623047 -16.54800033569336,-55.3489990234375 -16.32200050354004,-37.297000885009766 C-16.218000411987305,-28.954999923706055 -15.847000122070312,-18.70199966430664 -15.914999961853027,-7.209000110626221 C-16.09000015258789,22.413999557495117 -12.119999885559082,57.89899826049805 -19.125,57.60900115966797 C-19.125,57.60900115966797 -25.944000244140625,60.36800003051758 -18.726999282836914,61.1349983215332 C-4.0960001945495605,62.689998626708984 -6.089000225067139,37.53900146484375 -5.958000183105469,-1.6929999589920044 C-5.8379998207092285,-37.67900085449219 -6.835000038146973,-60.82699966430664 7.073999881744385,-51.3120002746582z"></path></g><g opacity="1" transform="matrix(1,0,0,1,407.7640075683594,191.3260040283203)"><path fill="rgb(255,177,57)" fill-opacity="1" d=" M-7.228000164031982,-59.915000915527344 C10.970000267028809,-62.196998596191406 8.354999542236328,-31.441999435424805 7.743000030517578,7.484000205993652 C6.771999835968018,69.2040023803711 9.35099983215332,69.91200256347656 19.62299919128418,68.60600280761719 C13.833999633789062,66.67500305175781 16.388999938964844,45.24100112915039 16.20599937438965,5.5289998054504395 C16.124000549316406,-12.256999969482422 16.642000198364258,-28.461999893188477 15.647000312805176,-40.88999938964844 C14.425999641418457,-56.14699935913086 4.245999813079834,-71.41200256347656 -7.228000164031982,-59.915000915527344z"></path></g><g opacity="1" transform="matrix(1,0,0,1,407.7640075683594,191.3260040283203)"><path fill="rgb(255,177,57)" fill-opacity="1" d=" M-12.848999977111816,-48.821998596191406 C-14.89900016784668,-45.31100082397461 -15.423999786376953,-42.595001220703125 -15.574999809265137,-37.04800033569336 C-15.802000045776367,-28.708999633789062 -15.847000122070312,-18.70199966430664 -15.914999961853027,-7.209000110626221 C-16.09000015258789,22.413999557495117 -12.119999885559082,57.89899826049805 -19.125,57.60900115966797 C-19.125,57.60900115966797 -23.601999282836914,60.99300003051758 -16.735000610351562,58.64500045776367 C-11.815999984741211,56.9630012512207 -13.993000030517578,37.520999908447266 -14.175999641418457,-2.190999984741211 C-14.258000373840332,-19.976999282836914 -14.057999610900879,-43.37799835205078 -12.848999977111816,-48.821998596191406z"></path></g><g opacity="1" transform="matrix(1,0,0,1,407.7640075683594,191.3260040283203)"><path stroke-linecap="round" stroke-linejoin="round" fill-opacity="0" stroke="rgb(247,126,65)" stroke-opacity="1" stroke-width="8" d=" M19.125,65.86699676513672 C12.92199993133545,65.22599792480469 16.388999938964844,45.24100112915039 16.20599937438965,5.5289998054504395 C16.124000549316406,-12.256999969482422 16.642000198364258,-28.461999893188477 15.647000312805176,-40.88999938964844 C14.425999641418457,-56.14699935913086 10.925999641418457,-65.70999908447266 1.2389999628067017,-65.51799774169922 C-11.484999656677246,-65.26499938964844 -14.72700023651123,-55.09700012207031 -15.574999809265137,-37.04800033569336 C-15.965999603271484,-28.71500015258789 -15.847000122070312,-18.70199966430664 -15.914999961853027,-7.209000110626221 C-16.09000015258789,22.413999557495117 -12.119999885559082,57.89899826049805 -19.125,57.60900115966797"></path></g></g><g style="display: block;" transform="matrix(-1.0039000511169434,0,0,1.0039000511169434,508.7415466308594,-1.507568359375)" opacity="1"><g opacity="1" transform="matrix(1,0,0,1,368.4549865722656,206.8800048828125)"><path fill="rgb(255,209,64)" fill-opacity="1" d=" M-14.994999885559082,64.36000061035156 C-14.810999870300293,53.20800018310547 -16.350000381469727,19.511999130249023 -16.548999786376953,7.6519999504089355 C-16.844999313354492,-10.07800006866455 -17.434999465942383,-24.679000854492188 -17.083999633789062,-35.987998962402344 C-16.503999710083008,-54.65999984741211 -13.357999801635742,-64.36000061035156 -2.0880000591278076,-64.36000061035156 C8.854999542236328,-64.36000061035156 11.413000106811523,-54.80699920654297 12.329999923706055,-37.39699935913086 C12.730999946594238,-29.797000885009766 12.819000244140625,-20.698999404907227 13.154999732971191,-10.244999885559082 C14.161999702453613,21.02899932861328 12.114999771118164,42.84299850463867 20.18400001525879,42.05400085449219"></path></g><g opacity="1" transform="matrix(1,0,0,1,368.4549865722656,206.8800048828125)"><path fill="rgb(255,223,121)" fill-opacity="1" d=" M3.640000104904175,-55.893001556396484 C-8.118000030517578,-71.1520004272461 -16.503999710083008,-54.65999984741211 -17.083999633789062,-35.987998962402344 C-17.434999465942383,-24.679000854492188 -16.844999313354492,-10.07800006866455 -16.548999786376953,7.6519999504089355 C-16.350000381469727,19.511999130249023 -14.810999870300293,53.20800018310547 -14.994999885559082,64.36000061035156 C-14.994999885559082,64.36000061035156 -14.430999755859375,88.37300109863281 -14.430999755859375,88.37300109863281 C-2.1419999599456787,84.24099731445312 -7.122000217437744,36.926998138427734 -7.763000011444092,-14.477999687194824 C-7.922999858856201,-27.32200050354004 -9.612000465393066,-49.736000061035156 3.640000104904175,-55.893001556396484z"></path></g><g opacity="1" transform="matrix(1,0,0,1,368.4549865722656,206.8800048828125)"><path fill="rgb(255,177,57)" fill-opacity="1" d=" M-11.550999641418457,-59.130001068115234 C7.818999767303467,-63.680999755859375 4.172999858856201,-30.805999755859375 4.618000030517578,4.414999961853027 C5.078999996185303,40.9109992980957 9.562000274658203,46.63800048828125 20.433000564575195,45.540000915527344 C11.305999755859375,38.17100143432617 14.161999702453613,21.02899932861328 13.154999732971191,-10.244999885559082 C12.819000244140625,-20.698999404907227 12.730999946594238,-29.797000885009766 12.329999923706055,-37.39699935913086 C11.413000106811523,-54.80699920654297 4.581999778747559,-71.1520004272461 -11.550999641418457,-59.130001068115234z"></path></g><g opacity="1" transform="matrix(1,0,0,1,368.4549865722656,206.8800048828125)"><path stroke-linecap="round" stroke-linejoin="round" fill-opacity="0" stroke="rgb(247,126,65)" stroke-opacity="1" stroke-width="8" d=" M-14.994999885559082,64.36000061035156 C-14.810999870300293,53.20800018310547 -16.350000381469727,19.511999130249023 -16.548999786376953,7.6519999504089355 C-16.844999313354492,-10.07800006866455 -17.434999465942383,-24.679000854492188 -17.083999633789062,-35.987998962402344 C-16.503999710083008,-54.65999984741211 -13.357999801635742,-64.36000061035156 -2.0880000591278076,-64.36000061035156 C8.854999542236328,-64.36000061035156 11.413000106811523,-54.80699920654297 12.329999923706055,-37.39699935913086 C12.730999946594238,-29.797000885009766 12.819000244140625,-20.698999404907227 13.154999732971191,-10.244999885559082 C14.161999702453613,21.02899932861328 12.114999771118164,42.84299850463867 20.18400001525879,42.05400085449219"></path></g></g><g style="display: block;" transform="matrix(-1.0039000511169434,0,0,1.0039000511169434,508.7415466308594,-1.507568359375)" opacity="1"><g opacity="1" transform="matrix(1,0,0,1,342.2449951171875,311.739013671875)"><path fill="rgb(255,177,57)" fill-opacity="1" d=" M-67.81800079345703,-23.249000549316406 C-32.87099838256836,-36.178001403808594 -30.238000869750977,-6.2270002365112305 -6.318999767303467,3.805000066757202 C4.415999889373779,8.307999610900879 10.52299976348877,-1.4600000381469727 32.952999114990234,6.388000011444092 C48.722999572753906,11.906000137329102 57.19200134277344,25.479999542236328 61.659000396728516,31.562000274658203 C63.250999450683594,33.729000091552734 64.33399963378906,34.944000244140625 65.05899810791016,34.505001068115234 C67.81800079345703,32.83300018310547 65.37100219726562,21.98200035095215 56.948001861572266,10.706000328063965 C45.95500183105469,-4.010000228881836 28.381000518798828,-11.131999969482422 20.268999099731445,-14.187999725341797 C12.16100025177002,-17.23900032043457 11.279999732971191,-24.64299964904785 11.279999732971191,-24.64299964904785 C11.593999862670898,-5.51200008392334 2.9649999141693115,-0.4059999883174896 -6.8520002365112305,-2.9619998931884766 C-18.974000930786133,-6.122000217437744 -26.46500015258789,-19.447999954223633 -37.4370002746582,-25.5310001373291 C-44.599998474121094,-29.4950008392334 -58.380001068115234,-30.16900062561035 -67.81800079345703,-23.249000549316406z"></path></g><g opacity="0" transform="matrix(1,0,0,1,0,0)"><path fill="rgb(255,223,121)" fill-opacity="1" d=" M458.1659851074219,328.9020080566406 C456.010009765625,328.7330017089844 453.0050048828125,328.9339904785156 449.7409973144531,329.4599914550781 C447.2820129394531,329.8559875488281 444.67498779296875,330.43701171875 442.1730041503906,331.1839904785156 C439.6180114746094,331.9469909667969 437.1730041503906,332.88299560546875 435.10400390625,333.97100830078125 C429.6910095214844,336.8190002441406 428.0719909667969,343.0450134277344 432.92498779296875,345.1000061035156 C440.0870056152344,348.13299560546875 457.7070007324219,345.78399658203125 464.1409912109375,339.0270080566406 C467.0679931640625,335.9530029296875 468.63800048828125,329.72100830078125 458.1659851074219,328.9020080566406z"></path></g></g><g style="display: block;" transform="matrix(-1.0039000511169434,0,0,1.0039000511169434,508.7415466308594,-1.507568359375)" opacity="1"><g opacity="1" transform="matrix(1,0,0,1,318.7409973144531,340.13800048828125)"><path stroke-linecap="round" stroke-linejoin="round" fill-opacity="0" stroke="rgb(247,126,65)" stroke-opacity="1" stroke-width="8" d=" M34.71900177001953,-68.89800262451172 C35.36399841308594,-50.513999938964844 33.35599899291992,-37.89699935913086 28.493000030517578,-33.972999572753906 C25.320999145507812,-31.413000106811523 21.43600082397461,-30.113000869750977 16.649999618530273,-31.361000061035156 C4.5279998779296875,-34.52299880981445 -2.9609999656677246,-47.849998474121094 -13.935999870300293,-53.93000030517578 C-24.910999298095703,-60.01100158691406 -51.39099884033203,-57.41400146484375 -55.58100128173828,-42.84000015258789 C-59.76900100708008,-28.267000198364258 -48.72100067138672,-25.74799919128418 -37.242000579833984,-21.51099967956543 C-25.76099967956543,-17.27400016784668 -15.395000457763672,-9.468999862670898 -5.020999908447266,1.9880000352859497 C5.3520002365112305,13.446000099182129 8.517999649047852,17.025999069213867 21.32699966430664,37.49800109863281 C30.934999465942383,52.85200119018555 44.95199966430664,63.207000732421875 59.768001556396484,68.89800262451172"></path></g></g><g style="display: block;" transform="matrix(-0.9999699592590332,-0.008360070176422596,-0.008360070176422596,0.9999699592590332,507.93963623046875,-9.34112548828125)" opacity="1"><g opacity="1" transform="matrix(1,0,0,1,360.9339904785156,174.50399780273438)"><path stroke-linecap="round" stroke-linejoin="round" fill-opacity="0" stroke="rgb(255,255,255)" stroke-opacity="1" stroke-width="6" d=" M0.16599999368190765,-4.140999794006348 C0.16599999368190765,-4.140999794006348 -0.16500000655651093,-0.5910000205039978 -0.16500000655651093,4.140999794006348"></path></g></g><g style="display: block;" transform="matrix(1,0,0,1,-5,0)" opacity="1"><g opacity="1" transform="matrix(1,0,0,1,296.1199951171875,65.14700317382812)"><path fill="rgb(168,168,168)" fill-opacity="1" d=" M-14.781000137329102,-29.118999481201172 C-14.781000137329102,-29.118999481201172 15.838000297546387,-19.21299934387207 15.838000297546387,-19.21299934387207 C17.042999267578125,-18.797000885009766 17.554000854492188,-17.371999740600586 16.888999938964844,-16.28499984741211 C16.888999938964844,-16.28499984741211 -9.593000411987305,27.95800018310547 -9.593000411987305,27.95800018310547 C-10.593999862670898,29.591999053955078 -13.097999572753906,29.011999130249023 -13.279999732971191,27.104000091552734 C-13.279999732971191,27.104000091552734 -17.417999267578125,-27.045000076293945 -17.417999267578125,-27.045000076293945 C-17.554000854492188,-28.48900032043457 -16.152999877929688,-29.591999053955078 -14.781000137329102,-29.118999481201172z"></path><path stroke-linecap="round" stroke-linejoin="round" fill-opacity="0" stroke="rgb(98,98,97)" stroke-opacity="1" stroke-width="8" d=" M-14.781000137329102,-29.118999481201172 C-14.781000137329102,-29.118999481201172 15.838000297546387,-19.21299934387207 15.838000297546387,-19.21299934387207 C17.042999267578125,-18.797000885009766 17.554000854492188,-17.371999740600586 16.888999938964844,-16.28499984741211 C16.888999938964844,-16.28499984741211 -9.593000411987305,27.95800018310547 -9.593000411987305,27.95800018310547 C-10.593999862670898,29.591999053955078 -13.097999572753906,29.011999130249023 -13.279999732971191,27.104000091552734 C-13.279999732971191,27.104000091552734 -17.417999267578125,-27.045000076293945 -17.417999267578125,-27.045000076293945 C-17.554000854492188,-28.48900032043457 -16.152999877929688,-29.591999053955078 -14.781000137329102,-29.118999481201172z"></path></g><g opacity="1" transform="matrix(0.7384553551673889,0.6743023991584778,-0.6743023991584778,0.7384553551673889,346.1199951171875,95.89700317382812)"><path fill="rgb(168,168,168)" fill-opacity="1" d=" M-17.152999877929688,-33.3849983215332 C-17.152999877929688,-33.3849983215332 14.82699966430664,-20.31999969482422 14.82699966430664,-20.31999969482422 C16.031999588012695,-19.90399932861328 16.542999267578125,-18.479000091552734 15.878000259399414,-17.392000198364258 C15.878000259399414,-17.392000198364258 -9.593000411987305,27.95800018310547 -9.593000411987305,27.95800018310547 C-10.593999862670898,29.591999053955078 -13.097999572753906,29.011999130249023 -13.279999732971191,27.104000091552734 C-13.279999732971191,27.104000091552734 -19.790000915527344,-31.31100082397461 -19.790000915527344,-31.31100082397461 C-19.926000595092773,-32.755001068115234 -18.524999618530273,-33.858001708984375 -17.152999877929688,-33.3849983215332z"></path><path stroke-linecap="round" stroke-linejoin="round" fill-opacity="0" stroke="rgb(98,98,97)" stroke-opacity="1" stroke-width="8" d=" M-17.152999877929688,-33.3849983215332 C-17.152999877929688,-33.3849983215332 14.82699966430664,-20.31999969482422 14.82699966430664,-20.31999969482422 C16.031999588012695,-19.90399932861328 16.542999267578125,-18.479000091552734 15.878000259399414,-17.392000198364258 C15.878000259399414,-17.392000198364258 -9.593000411987305,27.95800018310547 -9.593000411987305,27.95800018310547 C-10.593999862670898,29.591999053955078 -13.097999572753906,29.011999130249023 -13.279999732971191,27.104000091552734 C-13.279999732971191,27.104000091552734 -19.790000915527344,-31.31100082397461 -19.790000915527344,-31.31100082397461 C-19.926000595092773,-32.755001068115234 -18.524999618530273,-33.858001708984375 -17.152999877929688,-33.3849983215332z"></path></g></g><g style="display: block;" transform="matrix(-1,0,0,1,517,0)" opacity="1"><g opacity="1" transform="matrix(1,0,0,1,296.1199951171875,65.14700317382812)"><path fill="rgb(168,168,168)" fill-opacity="1" d=" M-14.781000137329102,-29.118999481201172 C-14.781000137329102,-29.118999481201172 15.838000297546387,-19.21299934387207 15.838000297546387,-19.21299934387207 C17.042999267578125,-18.797000885009766 17.554000854492188,-17.371999740600586 16.888999938964844,-16.28499984741211 C16.888999938964844,-16.28499984741211 -9.593000411987305,27.95800018310547 -9.593000411987305,27.95800018310547 C-10.593999862670898,29.591999053955078 -13.097999572753906,29.011999130249023 -13.279999732971191,27.104000091552734 C-13.279999732971191,27.104000091552734 -17.417999267578125,-27.045000076293945 -17.417999267578125,-27.045000076293945 C-17.554000854492188,-28.48900032043457 -16.152999877929688,-29.591999053955078 -14.781000137329102,-29.118999481201172z"></path><path stroke-linecap="round" stroke-linejoin="round" fill-opacity="0" stroke="rgb(98,98,97)" stroke-opacity="1" stroke-width="8" d=" M-14.781000137329102,-29.118999481201172 C-14.781000137329102,-29.118999481201172 15.838000297546387,-19.21299934387207 15.838000297546387,-19.21299934387207 C17.042999267578125,-18.797000885009766 17.554000854492188,-17.371999740600586 16.888999938964844,-16.28499984741211 C16.888999938964844,-16.28499984741211 -9.593000411987305,27.95800018310547 -9.593000411987305,27.95800018310547 C-10.593999862670898,29.591999053955078 -13.097999572753906,29.011999130249023 -13.279999732971191,27.104000091552734 C-13.279999732971191,27.104000091552734 -17.417999267578125,-27.045000076293945 -17.417999267578125,-27.045000076293945 C-17.554000854492188,-28.48900032043457 -16.152999877929688,-29.591999053955078 -14.781000137329102,-29.118999481201172z"></path></g><g opacity="1" transform="matrix(0.7384553551673889,0.6743023991584778,-0.6743023991584778,0.7384553551673889,346.1199951171875,95.89700317382812)"><path fill="rgb(168,168,168)" fill-opacity="1" d=" M-17.152999877929688,-33.3849983215332 C-17.152999877929688,-33.3849983215332 14.82699966430664,-20.31999969482422 14.82699966430664,-20.31999969482422 C16.031999588012695,-19.90399932861328 16.542999267578125,-18.479000091552734 15.878000259399414,-17.392000198364258 C15.878000259399414,-17.392000198364258 -9.593000411987305,27.95800018310547 -9.593000411987305,27.95800018310547 C-10.593999862670898,29.591999053955078 -13.097999572753906,29.011999130249023 -13.279999732971191,27.104000091552734 C-13.279999732971191,27.104000091552734 -19.790000915527344,-31.31100082397461 -19.790000915527344,-31.31100082397461 C-19.926000595092773,-32.755001068115234 -18.524999618530273,-33.858001708984375 -17.152999877929688,-33.3849983215332z"></path><path stroke-linecap="round" stroke-linejoin="round" fill-opacity="0" stroke="rgb(98,98,97)" stroke-opacity="1" stroke-width="8" d=" M-17.152999877929688,-33.3849983215332 C-17.152999877929688,-33.3849983215332 14.82699966430664,-20.31999969482422 14.82699966430664,-20.31999969482422 C16.031999588012695,-19.90399932861328 16.542999267578125,-18.479000091552734 15.878000259399414,-17.392000198364258 C15.878000259399414,-17.392000198364258 -9.593000411987305,27.95800018310547 -9.593000411987305,27.95800018310547 C-10.593999862670898,29.591999053955078 -13.097999572753906,29.011999130249023 -13.279999732971191,27.104000091552734 C-13.279999732971191,27.104000091552734 -19.790000915527344,-31.31100082397461 -19.790000915527344,-31.31100082397461 C-19.926000595092773,-32.755001068115234 -18.524999618530273,-33.858001708984375 -17.152999877929688,-33.3849983215332z"></path></g></g><g style="display: none;"><g><path></path></g></g><g style="display: none;"><g><path></path></g></g><g style="display: none;"><g><path></path></g></g><g style="display: none;"><g><path></path></g></g><g style="display: none;"><g><path></path></g></g><g style="display: none;"><g><path></path></g></g><g style="display: block;" transform="matrix(1.0000048875808716,0,0,1.0000048875808716,-1.0009384155273438,-3.501922607421875)" opacity="1"><g opacity="1" transform="matrix(1,0,0,1,143.93099975585938,326.5090026855469)"><path stroke-linecap="round" stroke-linejoin="round" fill-opacity="0" stroke="rgb(255,255,255)" stroke-opacity="1" stroke-width="6" d=" M-0.8690000176429749,0.19099999964237213 C-0.3009999990463257,0.04699999839067459 0.27900001406669617,-0.07999999821186066 0.8700000047683716,-0.1899999976158142"></path></g></g><g style="display: block;" transform="matrix(1.0000048875808716,0,0,1.0000048875808716,-1.0009384155273438,-3.501922607421875)" opacity="1"><g opacity="1" transform="matrix(1,0,0,1,127.60900115966797,336.8999938964844)"><path stroke-linecap="round" stroke-linejoin="round" fill-opacity="0" stroke="rgb(255,255,255)" stroke-opacity="1" stroke-width="6" d=" M-4.992000102996826,5.223999977111816 C-4.992000102996826,5.223999977111816 -1.628999948501587,-0.9599999785423279 4.992000102996826,-5.2230000495910645"></path></g></g></g></svg>