<svg xmlns="http://www.w3.org/2000/svg" viewBox="0 0 512 512" width="512" height="512" style="width: 100%; height: 100%; transform: translate3d(0,0,0);" preserveAspectRatio="xMidYMid meet"><defs><clipPath id="__lottie_element_7249"><rect width="512" height="512" x="0" y="0"></rect></clipPath><linearGradient id="__lottie_element_7257" spreadMethod="pad" gradientUnits="userSpaceOnUse" x1="-55" y1="0" x2="55" y2="0"><stop offset="0%" stop-color="rgb(0,194,72)"></stop><stop offset="17%" stop-color="rgb(0,194,72)"></stop><stop offset="33%" stop-color="rgb(0,194,72)"></stop><stop offset="50%" stop-color="rgb(0,177,70)"></stop><stop offset="66%" stop-color="rgb(0,161,68)"></stop><stop offset="76%" stop-color="rgb(0,161,68)"></stop><stop offset="87%" stop-color="rgb(0,161,68)"></stop><stop offset="93%" stop-color="rgb(1,171,68)"></stop><stop offset="100%" stop-color="rgb(1,180,68)"></stop></linearGradient><linearGradient id="__lottie_element_7261" spreadMethod="pad" gradientUnits="userSpaceOnUse" x1="-90" y1="-0.004999999888241291" x2="90" y2="-0.004999999888241291"><stop offset="0%" stop-color="rgb(0,194,72)"></stop><stop offset="17%" stop-color="rgb(0,194,72)"></stop><stop offset="33%" stop-color="rgb(0,194,72)"></stop><stop offset="49%" stop-color="rgb(0,177,70)"></stop><stop offset="66%" stop-color="rgb(0,161,68)"></stop><stop offset="77%" stop-color="rgb(0,161,68)"></stop><stop offset="89%" stop-color="rgb(0,161,68)"></stop><stop offset="94%" stop-color="rgb(1,171,68)"></stop><stop offset="100%" stop-color="rgb(1,180,68)"></stop></linearGradient><linearGradient id="__lottie_element_7265" spreadMethod="pad" gradientUnits="userSpaceOnUse" x1="-100" y1="100" x2="100" y2="-0.8949999809265137"><stop offset="0%" stop-color="rgb(0,194,72)"></stop><stop offset="17%" stop-color="rgb(0,194,72)"></stop><stop offset="33%" stop-color="rgb(0,194,72)"></stop><stop offset="50%" stop-color="rgb(0,177,70)"></stop><stop offset="66%" stop-color="rgb(0,161,68)"></stop><stop offset="77%" stop-color="rgb(0,161,68)"></stop><stop offset="89%" stop-color="rgb(0,161,68)"></stop><stop offset="94%" stop-color="rgb(1,171,68)"></stop><stop offset="100%" stop-color="rgb(1,180,68)"></stop></linearGradient><linearGradient id="__lottie_element_7272" spreadMethod="pad" gradientUnits="userSpaceOnUse" x1="-126" y1="-0.48500001430511475" x2="126" y2="-0.48500001430511475"><stop offset="0%" stop-color="rgb(0,194,72)"></stop><stop offset="17%" stop-color="rgb(0,194,72)"></stop><stop offset="33%" stop-color="rgb(0,194,72)"></stop><stop offset="50%" stop-color="rgb(0,177,70)"></stop><stop offset="66%" stop-color="rgb(0,161,68)"></stop><stop offset="77%" stop-color="rgb(0,161,68)"></stop><stop offset="89%" stop-color="rgb(0,161,68)"></stop><stop offset="94%" stop-color="rgb(1,171,68)"></stop><stop offset="100%" stop-color="rgb(1,180,68)"></stop></linearGradient><linearGradient id="__lottie_element_7279" spreadMethod="pad" gradientUnits="userSpaceOnUse" x1="-150" y1="0" x2="150" y2="0"><stop offset="0%" stop-color="rgb(0,194,72)"></stop><stop offset="17%" stop-color="rgb(0,194,72)"></stop><stop offset="33%" stop-color="rgb(0,194,72)"></stop><stop offset="50%" stop-color="rgb(0,177,70)"></stop><stop offset="66%" stop-color="rgb(0,161,68)"></stop><stop offset="77%" stop-color="rgb(0,161,68)"></stop><stop offset="89%" stop-color="rgb(0,161,68)"></stop><stop offset="94%" stop-color="rgb(1,171,68)"></stop><stop offset="100%" stop-color="rgb(1,180,68)"></stop></linearGradient><linearGradient id="__lottie_element_7283" spreadMethod="pad" gradientUnits="userSpaceOnUse" x1="-179" y1="0" x2="179" y2="0"><stop offset="0%" stop-color="rgb(0,194,72)"></stop><stop offset="17%" stop-color="rgb(0,194,72)"></stop><stop offset="33%" stop-color="rgb(0,194,72)"></stop><stop offset="50%" stop-color="rgb(0,177,70)"></stop><stop offset="66%" stop-color="rgb(0,161,68)"></stop><stop offset="77%" stop-color="rgb(0,161,68)"></stop><stop offset="89%" stop-color="rgb(0,161,68)"></stop><stop offset="94%" stop-color="rgb(1,171,68)"></stop><stop offset="100%" stop-color="rgb(1,180,68)"></stop></linearGradient><linearGradient id="__lottie_element_7290" spreadMethod="pad" gradientUnits="userSpaceOnUse" x1="-200" y1="-0.9980000257492065" x2="200" y2="-0.9980000257492065"><stop offset="0%" stop-color="rgb(0,194,72)"></stop><stop offset="17%" stop-color="rgb(0,194,72)"></stop><stop offset="33%" stop-color="rgb(0,194,72)"></stop><stop offset="50%" stop-color="rgb(0,177,70)"></stop><stop offset="66%" stop-color="rgb(0,161,68)"></stop><stop offset="77%" stop-color="rgb(0,161,68)"></stop><stop offset="89%" stop-color="rgb(0,161,68)"></stop><stop offset="94%" stop-color="rgb(1,171,68)"></stop><stop offset="99%" stop-color="rgb(1,180,68)"></stop></linearGradient></defs><g clip-path="url(#__lottie_element_7249)"><g style="display: block;" transform="matrix(1.0199999809265137,0,0,1.0199999809265137,-11.920562744140625,-20.094970703125)" opacity="1"><g opacity="1" transform="matrix(1,0,0,1,259.1029968261719,459.489990234375)"><path fill="rgb(169,90,0)" fill-opacity="1" d=" M0,45.0099983215332 C-10.196000099182129,45.0099983215332 -27.451000213623047,42.757999420166016 -27.451000213623047,34.31999969482422 C-27.451000213623047,34.31999969482422 -27.451000213623047,-34.31999969482422 -27.451000213623047,-34.31999969482422 C-27.451000213623047,-42.757999420166016 -10.196000099182129,-45.0099983215332 0,-45.0099983215332 C10.196000099182129,-45.0099983215332 27.451000213623047,-42.757999420166016 27.451000213623047,-34.31999969482422 C27.451000213623047,-34.31999969482422 27.451000213623047,34.31999969482422 27.451000213623047,34.31999969482422 C27.451000213623047,42.757999420166016 10.196000099182129,45.0099983215332 0,45.0099983215332z"></path><path stroke-linecap="butt" stroke-linejoin="miter" fill-opacity="0" stroke-miterlimit="10" stroke="rgb(76,36,3)" stroke-opacity="1" stroke-width="8" d=" M0,45.0099983215332 C-10.196000099182129,45.0099983215332 -27.451000213623047,42.757999420166016 -27.451000213623047,34.31999969482422 C-27.451000213623047,34.31999969482422 -27.451000213623047,-34.31999969482422 -27.451000213623047,-34.31999969482422 C-27.451000213623047,-42.757999420166016 -10.196000099182129,-45.0099983215332 0,-45.0099983215332 C10.196000099182129,-45.0099983215332 27.451000213623047,-42.757999420166016 27.451000213623047,-34.31999969482422 C27.451000213623047,-34.31999969482422 27.451000213623047,34.31999969482422 27.451000213623047,34.31999969482422 C27.451000213623047,42.757999420166016 10.196000099182129,45.0099983215332 0,45.0099983215332z"></path></g><g opacity="0.4" transform="matrix(1,0,0,1,259.10198974609375,460.6470031738281)"><path fill="rgb(99,49,4)" fill-opacity="1" d=" M26.176000595092773,-41.66999816894531 C26.176000595092773,-41.66999816894531 26.176000595092773,37.762001037597656 26.176000595092773,37.762001037597656 C22.464000701904297,36.40999984741211 3.809000015258789,42.33399963378906 -0.609000027179718,41.60900115966797 C-0.609000027179718,6.77400016784668 -21.615999221801758,6.15500020980835 -26.176000595092773,18.381000518798828 C-26.176000595092773,18.381000518798828 -26.176000595092773,-41.66999816894531 -26.176000595092773,-41.66999816894531 C-26.176000595092773,-41.66999816894531 26.176000595092773,-41.66999816894531 26.176000595092773,-41.66999816894531z"></path></g><g opacity="0.66" transform="matrix(1,0,0,1,259.10198974609375,460.39300537109375)"><path fill="rgb(76,36,3)" fill-opacity="1" d=" M26.176000595092773,-41.1619987487793 C26.176000595092773,-41.1619987487793 26.176000595092773,39.207000732421875 26.176000595092773,39.207000732421875 C22.464000701904297,37.85499954223633 13.13700008392334,41.79800033569336 8.718999862670898,41.073001861572266 C8.718999862670898,-2.371999979019165 -21.615999221801758,-7.449999809265137 -26.176000595092773,4.776000022888184 C-26.176000595092773,4.776000022888184 -26.176000595092773,-41.1619987487793 -26.176000595092773,-41.1619987487793 C-26.176000595092773,-41.1619987487793 26.176000595092773,-41.1619987487793 26.176000595092773,-41.1619987487793z"></path></g><g opacity="1" transform="matrix(1,0,0,1,275.718994140625,477.62701416015625)"><path stroke-linecap="round" stroke-linejoin="round" fill-opacity="0" stroke="rgb(123,61,0)" stroke-opacity="1" stroke-width="8" d=" M0,-10.857000350952148 C0,-10.857000350952148 0,10.857000350952148 0,10.857000350952148"></path></g><g opacity="0.5" transform="matrix(1,0,0,1,242.7969970703125,483.8009948730469)"><path stroke-linecap="round" stroke-linejoin="round" fill-opacity="0" stroke="rgb(255,159,72)" stroke-opacity="1" stroke-width="6" d=" M0,-8.015999794006348 C0,-8.015999794006348 0,8.015999794006348 0,8.015999794006348"></path></g></g><g class="1" style="display: block;" transform="matrix(1.0199999809265137,0,0,1.0199999809265137,-15.988677978515625,-14.131072998046875)" opacity="1"><g opacity="1" transform="matrix(1,0,0,1,256.0169982910156,396.99798583984375)"><path stroke-linecap="round" stroke-linejoin="round" fill-opacity="0" stroke="rgb(0,61,29)" stroke-opacity="1" stroke-width="13" d=" M188.1540069580078,8.116999626159668 C186.82699584960938,-1.6319999694824219 174.82200622558594,2.427999973297119 142.87600708007812,-10.229999542236328 C141.73500061035156,-10.682000160217285 142.2209930419922,-12.404999732971191 143.4219970703125,-12.196999549865723 C168.17100524902344,-8.116000175476074 168.48699951171875,-13.13700008392334 168.4040069580078,-19.31399917602539 C168.3260040283203,-25.288999557495117 162.88999938964844,-28.72599983215332 146.03399658203125,-33.457000732421875 C128.36900329589844,-38.41600036621094 108.7509994506836,-36.13399887084961 97.30699920654297,-53.220001220703125 C97.30699920654297,-53.220001220703125 -73.5530014038086,-50.939998626708984 -73.5530014038086,-50.939998626708984 C-87.4000015258789,-33.14400100708008 -155.57200622558594,2.0239999294281006 -172.25900268554688,8.467000007629395 C-186.54100036621094,13.982000350952148 -173.44500732421875,27.667999267578125 -164.01699829101562,23.42300033569336 C-162.77699279785156,22.871999740600586 -161.9290008544922,24.760000228881836 -163.1649932861328,25.29199981689453 C-178.57699584960938,31.929000854492188 -188.93499755859375,41.68299865722656 -187.177001953125,49.00899887084961 C-182.13099670410156,70.04199981689453 -147.71200561523438,47.89500045776367 -139.86599731445312,38.150001525878906 C-139.32400512695312,37.472999572753906 -138.25799560546875,37.7400016784668 -138.06700134277344,38.560001373291016 C-135.31300354003906,50.37300109863281 -116.11599731445312,40.91600036621094 -111.79199981689453,34.17599868774414 C-111.31199645996094,33.428001403808594 -109.97699737548828,33.57600021362305 -109.93699645996094,34.459999084472656 C-109.58100128173828,42.34600067138672 -97.4489974975586,38.91400146484375 -92.04199981689453,32.53300094604492 C-91.20500183105469,31.545000076293945 -89.70700073242188,32.948001861572266 -90.54499816894531,33.935001373291016 C-98.41600036621094,43.215999603271484 -101.34100341796875,51.604000091552734 -98.18099975585938,55.82699966430664 C-90.33499908447266,66.30599975585938 -55.53200149536133,46.229000091552734 -47.15700149536133,31.30500030517578 C-46.8489990234375,30.75200080871582 -46.12900161743164,30.613000869750977 -45.638999938964844,30.985000610351562 C-39.904998779296875,35.332000732421875 -33.22600173950195,28.131000518798828 -31.945999145507812,26.643999099731445 C-31.128000259399414,25.694000244140625 -29.635000228881836,26.7810001373291 -30.29400062561035,27.851999282836914 C-35.375,36.10100173950195 -40.4640007019043,45.777000427246094 -32.965999603271484,48.11800003051758 C-26.54599952697754,50.12200164794922 -12.76099967956543,42.41400146484375 -5.605999946594238,29.1560001373291 C-5.10099983215332,28.219999313354492 -3.674999952316284,28.582000732421875 -3.6760001182556152,29.643999099731445 C-3.7079999446868896,59.83599853515625 3.2790000438690186,58.689998626708984 10.694999694824219,57.97800064086914 C17.798999786376953,57.292999267578125 22.611000061035156,39.74800109863281 22,28.659000396728516 C21.934999465942383,27.476999282836914 23.597000122070312,27.156999588012695 23.990999221801758,28.256000518798828 C30.305999755859375,45.867000579833984 37.5989990234375,55.150001525878906 40.1150016784668,36.683998107910156 C40.249000549316406,35.69900131225586 41.56700134277344,35.4640007019043 42.0369987487793,36.33599853515625 C51.50199890136719,53.91400146484375 71.95700073242188,87.63700103759766 89.55699920654297,77.98799896240234 C95.11199951171875,74.94400024414062 86.16000366210938,52.933998107910156 80.31600189208984,44.321998596191406 C79.61799621582031,43.292999267578125 81.02400207519531,42.14400100708008 81.89399719238281,43.02299880981445 C115.79000091552734,77.18399810791016 128.36700439453125,80.7509994506836 138.63099670410156,75.375 C148.84500122070312,70.0260009765625 139.29400634765625,54.11600112915039 128.5959930419922,45.28799819946289 C127.62799835205078,44.487998962402344 128.68299865722656,42.986000061035156 129.76100158691406,43.60599899291992 C151.0760040283203,55.84400177001953 158.75100708007812,43.95100021362305 144.26300048828125,30.84000015258789 C143.41299438476562,30.06999969482422 144.2830047607422,28.70199966430664 145.33599853515625,29.128000259399414 C151.66600036621094,31.691999435424805 150.0449981689453,26.825000762939453 147.3699951171875,24.354000091552734 C146.56100463867188,23.60700035095215 147.3470001220703,22.28499984741211 148.38299560546875,22.62299919128418 C177.1300048828125,31.922000885009766 189.53599548339844,18.253999710083008 188.1540069580078,8.116999626159668z"></path><path fill="url(#__lottie_element_7290)" fill-opacity="1" d=" M188.1540069580078,8.116999626159668 C186.82699584960938,-1.6319999694824219 174.82200622558594,2.427999973297119 142.87600708007812,-10.229999542236328 C141.73500061035156,-10.682000160217285 142.2209930419922,-12.404999732971191 143.4219970703125,-12.196999549865723 C168.17100524902344,-8.116000175476074 168.48699951171875,-13.13700008392334 168.4040069580078,-19.31399917602539 C168.3260040283203,-25.288999557495117 162.88999938964844,-28.72599983215332 146.03399658203125,-33.457000732421875 C128.36900329589844,-38.41600036621094 108.7509994506836,-36.13399887084961 97.30699920654297,-53.220001220703125 C97.30699920654297,-53.220001220703125 -73.5530014038086,-50.939998626708984 -73.5530014038086,-50.939998626708984 C-87.4000015258789,-33.14400100708008 -155.57200622558594,2.0239999294281006 -172.25900268554688,8.467000007629395 C-186.54100036621094,13.982000350952148 -173.44500732421875,27.667999267578125 -164.01699829101562,23.42300033569336 C-162.77699279785156,22.871999740600586 -161.9290008544922,24.760000228881836 -163.1649932861328,25.29199981689453 C-178.57699584960938,31.929000854492188 -188.93499755859375,41.68299865722656 -187.177001953125,49.00899887084961 C-182.13099670410156,70.04199981689453 -147.71200561523438,47.89500045776367 -139.86599731445312,38.150001525878906 C-139.32400512695312,37.472999572753906 -138.25799560546875,37.7400016784668 -138.06700134277344,38.560001373291016 C-135.31300354003906,50.37300109863281 -116.11599731445312,40.91600036621094 -111.79199981689453,34.17599868774414 C-111.31199645996094,33.428001403808594 -109.97699737548828,33.57600021362305 -109.93699645996094,34.459999084472656 C-109.58100128173828,42.34600067138672 -97.4489974975586,38.91400146484375 -92.04199981689453,32.53300094604492 C-91.20500183105469,31.545000076293945 -89.70700073242188,32.948001861572266 -90.54499816894531,33.935001373291016 C-98.41600036621094,43.215999603271484 -101.34100341796875,51.604000091552734 -98.18099975585938,55.82699966430664 C-90.33499908447266,66.30599975585938 -55.53200149536133,46.229000091552734 -47.15700149536133,31.30500030517578 C-46.8489990234375,30.75200080871582 -46.12900161743164,30.613000869750977 -45.638999938964844,30.985000610351562 C-39.904998779296875,35.332000732421875 -33.22600173950195,28.131000518798828 -31.945999145507812,26.643999099731445 C-31.128000259399414,25.694000244140625 -29.635000228881836,26.7810001373291 -30.29400062561035,27.851999282836914 C-35.375,36.10100173950195 -40.4640007019043,45.777000427246094 -32.965999603271484,48.11800003051758 C-26.54599952697754,50.12200164794922 -12.76099967956543,42.41400146484375 -5.605999946594238,29.1560001373291 C-5.10099983215332,28.219999313354492 -3.674999952316284,28.582000732421875 -3.6760001182556152,29.643999099731445 C-3.7079999446868896,59.83599853515625 3.2790000438690186,58.689998626708984 10.694999694824219,57.97800064086914 C17.798999786376953,57.292999267578125 22.611000061035156,39.74800109863281 22,28.659000396728516 C21.934999465942383,27.476999282836914 23.597000122070312,27.156999588012695 23.990999221801758,28.256000518798828 C30.305999755859375,45.867000579833984 37.5989990234375,55.150001525878906 40.1150016784668,36.683998107910156 C40.249000549316406,35.69900131225586 41.56700134277344,35.4640007019043 42.0369987487793,36.33599853515625 C51.50199890136719,53.91400146484375 71.95700073242188,87.63700103759766 89.55699920654297,77.98799896240234 C95.11199951171875,74.94400024414062 86.16000366210938,52.933998107910156 80.31600189208984,44.321998596191406 C79.61799621582031,43.292999267578125 81.02400207519531,42.14400100708008 81.89399719238281,43.02299880981445 C115.79000091552734,77.18399810791016 128.36700439453125,80.7509994506836 138.63099670410156,75.375 C148.84500122070312,70.0260009765625 139.29400634765625,54.11600112915039 128.5959930419922,45.28799819946289 C127.62799835205078,44.487998962402344 128.68299865722656,42.986000061035156 129.76100158691406,43.60599899291992 C151.0760040283203,55.84400177001953 158.75100708007812,43.95100021362305 144.26300048828125,30.84000015258789 C143.41299438476562,30.06999969482422 144.2830047607422,28.70199966430664 145.33599853515625,29.128000259399414 C151.66600036621094,31.691999435424805 150.0449981689453,26.825000762939453 147.3699951171875,24.354000091552734 C146.56100463867188,23.60700035095215 147.3470001220703,22.28499984741211 148.38299560546875,22.62299919128418 C177.1300048828125,31.922000885009766 189.53599548339844,18.253999710083008 188.1540069580078,8.116999626159668z"></path></g><g opacity="1" transform="matrix(1,0,0,1,0,0)"><g opacity="1" transform="matrix(1,0,0,1,93.38400268554688,427.510009765625)"><path stroke-linecap="round" stroke-linejoin="round" fill-opacity="0" stroke="rgb(105,230,131)" stroke-opacity="1" stroke-width="4" d=" M-23.645000457763672,15.239999771118164 C-20.961999893188477,2.5769999027252197 16.277999877929688,-10.085000038146973 16.277999877929688,-10.085000038146973"></path></g><g opacity="1" transform="matrix(1,0,0,1,124.06900024414062,426.81201171875)"><path stroke-linecap="round" stroke-linejoin="round" fill-opacity="0" stroke="rgb(105,230,131)" stroke-opacity="1" stroke-width="4" d=" M-4.175000190734863,9.402999877929688 C-6.372000217437744,5.934000015258789 -6.025000095367432,0.22699999809265137 8.21399974822998,-9.88599967956543"></path></g><g opacity="1" transform="matrix(1,0,0,1,151.54400634765625,424.52398681640625)"><path stroke-linecap="round" stroke-linejoin="round" fill-opacity="0" stroke="rgb(105,230,131)" stroke-opacity="1" stroke-width="4" d=" M-3.9260001182556152,8.347999572753906 C-6.480999946594238,5.513000011444092 -4.413000106811523,-1.2569999694824219 4.934999942779541,-8.347999572753906"></path></g><g opacity="1" transform="matrix(1,0,0,1,171.15199279785156,430.0469970703125)"><path stroke-linecap="round" stroke-linejoin="round" fill-opacity="0" stroke="rgb(105,230,131)" stroke-opacity="1" stroke-width="4" d=" M-12.645000457763672,19.124000549316406 C-13.064000129699707,14.451000213623047 -9.930000305175781,3.0880000591278076 12.678999900817871,-19.124000549316406"></path></g><g opacity="0.5" transform="matrix(1,0,0,1,256.49798583984375,439.24200439453125)"><path stroke-linecap="round" stroke-linejoin="round" fill-opacity="0" stroke="rgb(105,230,131)" stroke-opacity="1" stroke-width="4" d=" M2.253999948501587,12.597000122070312 C-0.7519999742507935,9.588000297546387 -2.2690000534057617,1.1109999418258667 -2.253999948501587,-12.597000122070312"></path></g><g opacity="0.5" transform="matrix(1,0,0,1,286.5530090332031,433.2720031738281)"><path stroke-linecap="round" stroke-linejoin="round" fill-opacity="0" stroke="rgb(105,230,131)" stroke-opacity="1" stroke-width="4" d=" M4.754000186920166,8.66100025177002 C4.788000106811523,8.645000457763672 1.159999966621399,7.833000183105469 -4.754000186920166,-8.66100025177002"></path></g><g opacity="0.5" transform="matrix(1,0,0,1,319.73699951171875,454.1440124511719)"><path stroke-linecap="round" stroke-linejoin="round" fill-opacity="0" stroke="rgb(105,230,131)" stroke-opacity="1" stroke-width="4" d=" M19.41699981689453,20.621999740600586 C11.909000396728516,20.621999740600586 -0.8960000276565552,13.430000305175781 -19.41699981689453,-20.621999740600586"></path></g><g opacity="0.5" transform="matrix(1,0,0,1,368.4169921875,460.8009948730469)"><path stroke-linecap="round" stroke-linejoin="round" fill-opacity="0" stroke="rgb(105,230,131)" stroke-opacity="1" stroke-width="4" d=" M18.444000244140625,11.682000160217285 C10.312000274658203,11.682000160217285 -1.2899999618530273,4.38700008392334 -18.444000244140625,-11.682000160217285"></path></g><g opacity="0.5" transform="matrix(1,0,0,1,396.14801025390625,441.3890075683594)"><path stroke-linecap="round" stroke-linejoin="round" fill-opacity="0" stroke="rgb(105,230,131)" stroke-opacity="1" stroke-width="4" d=" M9.420999526977539,0.29499998688697815 C8.21500015258789,3.4230000972747803 1.0950000286102295,3.6040000915527344 -9.420999526977539,-2.434999942779541"></path></g><g opacity="0.5" transform="matrix(1,0,0,1,422.12298583984375,417.5950012207031)"><path stroke-linecap="round" stroke-linejoin="round" fill-opacity="0" stroke="rgb(4,61,33)" stroke-opacity="1" stroke-width="4" d=" M17.136999130249023,-3.2100000381469727 C9.494000434875488,5.544000148773193 -5.611999988555908,3.946000099182129 -17.136999130249023,0.2160000056028366"></path></g><g opacity="1" transform="matrix(1,0,0,1,90.28800201416016,404.9540100097656)"><path stroke-linecap="round" stroke-linejoin="round" fill-opacity="0" stroke="rgb(105,230,131)" stroke-opacity="1" stroke-width="4" d=" M-9.892000198364258,5.4710001945495605 C-4.02400016784668,2.0360000133514404 4.798999786376953,-1.3949999809265137 14.303999900817871,-6.452000141143799"></path></g><g opacity="0.5" transform="matrix(1,0,0,1,427.9119873046875,400.4599914550781)"><path stroke-linecap="round" stroke-linejoin="round" fill-opacity="0" stroke="rgb(105,230,131)" stroke-opacity="1" stroke-width="4" d=" M-14.666999816894531,-6.980000019073486 C3.9200000762939453,-0.08299999684095383 14.557999610900879,1.187000036239624 14.526000022888184,6.568999767303467"></path></g></g><g opacity="1" transform="matrix(1,0,0,1,260.13800048828125,393.4800109863281)"><path fill="rgb(0,61,29)" fill-opacity="0.5" d=" M-70.55599975585938,-47.39400100708008 C-88.18199920654297,-30.277999877929688 -137.4980010986328,-12.052000045776367 -151.6820068359375,1.8730000257492065 C-165.8820037841797,15.812999725341797 -135.6540069580078,14.538999557495117 -123.22899627685547,6.8979997634887695 C-126.53299713134766,23.986000061035156 -89.95800018310547,21.816999435424805 -63.62099838256836,2.4240000247955322 C-75.75700378417969,24.43000030517578 -42.992000579833984,24.785999298095703 -19.701000213623047,1.812999963760376 C-45.44300079345703,25.766000747680664 -23.476999282836914,53.5099983215332 1.1030000448226929,13.732999801635742 C5.1479997634887695,43.380001068115234 23.930999755859375,36.349998474121094 21.329999923706055,17.400999069213867 C37.79999923706055,42.76900100708008 49.645999908447266,37.573001861572266 40.97800064086914,14.649999618530273 C73.0510025024414,69.0530014038086 96.84400177001953,52.077999114990234 92.12200164794922,36.96099853515625 C110.93000030517578,50.275001525878906 122.69400024414062,39.981998443603516 103.96900177001953,21.68000030517578 C126.1259994506836,39.492000579833984 150.7790069580078,28.40399932861328 105.125,-4.605000019073486 C135.7530059814453,11.89900016784668 136.63800048828125,-4.2179999351501465 132.59300231933594,-11.248000144958496 C141.9239959716797,-11.8149995803833 141.06199645996094,-21.23200035095215 123.21299743652344,-25.57200050354004 C108.25800323486328,-29.20800018310547 106.85800170898438,-34.862998962402344 91.83300018310547,-51.979000091552734 C91.83300018310547,-51.979000091552734 -70.55599975585938,-47.39400100708008 -70.55599975585938,-47.39400100708008z"></path></g></g><g style="display: none;"><g><path></path></g><g><path stroke-linecap="round" stroke-linejoin="round" fill-opacity="0"></path></g><g><path stroke-linecap="butt" stroke-linejoin="miter" fill-opacity="0" stroke-miterlimit="4"></path></g></g><g class="1" style="display: block;" transform="matrix(1.0199999809265137,0,0,1.0199999809265137,-15.989471435546875,-14.13079833984375)" opacity="1"><g opacity="1" transform="matrix(1,0,0,1,263.3559875488281,365.406005859375)"><path stroke-linecap="round" stroke-linejoin="round" fill-opacity="0" stroke="rgb(0,61,29)" stroke-opacity="1" stroke-width="13" d=" M152.44900512695312,-19.031999588012695 C151.7969970703125,-19.503999710083008 151.92100524902344,-20.510000228881836 152.66200256347656,-20.81399917602539 C160.95599365234375,-24.208999633789062 157.7550048828125,-29.031999588012695 144.48500061035156,-27.704999923706055 C128.34500122070312,-26.094999313354492 102.97899627685547,-34.3380012512207 88.16500091552734,-50.91600036621094 C88.16500091552734,-50.91600036621094 -73.3479995727539,-46.35599899291992 -73.3479995727539,-46.35599899291992 C-91.35199737548828,-29.2450008392334 -146.06500244140625,-10.57800006866455 -157.31100463867188,5.184999942779541 C-163.75399780273438,14.213000297546387 -156.49000549316406,16.405000686645508 -147.3159942626953,15.329999923706055 C-141.0590057373047,14.597000122070312 -133.91299438476562,12.345000267028809 -129.6219940185547,9.706000328063965 C-128.83200073242188,9.217000007629395 -127.84400177001953,9.956999778747559 -128.09500122070312,10.854999542236328 C-133.46400451660156,30.165000915527344 -96.2959976196289,26.551000595092773 -66.4219970703125,2.0209999084472656 C-65.20500183105469,1.0219999551773071 -64.01899719238281,1.9579999446868896 -64.86399841308594,3.303999900817871 C-77.58200073242188,23.56999969482422 -46.994998931884766,20.5939998626709 -30.722999572753906,1.340000033378601 C-29.875,0.3370000123977661 -28.45599937438965,1.4739999771118164 -29.111000061035156,2.611999988555908 C-46.99300003051758,33.66600036621094 -16.024999618530273,48.709999084472656 -2.046999931335449,13.928000450134277 C-1.6139999628067017,12.850000381469727 -0.17800000309944153,12.833999633789062 -0.020999999716877937,13.979999542236328 C3.822000026702881,42.14500045776367 20.594999313354492,35.59299850463867 18.17099952697754,17.924999237060547 C18.020999908447266,16.843000411987305 19.454999923706055,16.312999725341797 20.048999786376953,17.22599983215332 C35.25600051879883,40.645999908447266 46.36199951171875,37.840999603271484 37.875,15.39799976348877 C37.430999755859375,14.225000381469727 39.09000015258789,13.446000099182129 39.720001220703125,14.512999534606934 C70.5009994506836,66.7239990234375 93.44300079345703,52.33599853515625 88.99700164794922,37.64500045776367 C88.69999694824219,36.66299819946289 89.84600067138672,35.935001373291016 90.65399932861328,36.573001861572266 C105.99600219726562,48.69300079345703 122.2959976196289,40.849998474121094 101.18599700927734,22.865999221801758 C100.16100311279297,21.993000030517578 101.38500213623047,20.437000274658203 102.44499969482422,21.2450008392334 C123.66400146484375,37.2760009765625 146.74899291992188,28.68899917602539 102.38099670410156,-3.3889999389648438 C101.3479995727539,-4.136000156402588 102.35299682617188,-5.73199987411499 103.46900177001953,-5.124000072479248 C128.63299560546875,8.4350004196167 127.89900207519531,4.191999912261963 122.89199829101562,-4.513999938964844 C122.43000030517578,-5.314000129699707 123.18599700927734,-6.267000198364258 124.06700134277344,-6.013000011444092 C152.73500061035156,2.2860000133514404 167.53700256347656,-8.095999717712402 152.44900512695312,-19.031999588012695z"></path><path fill="url(#__lottie_element_7283)" fill-opacity="1" d=" M152.44900512695312,-19.031999588012695 C151.7969970703125,-19.503999710083008 151.92100524902344,-20.510000228881836 152.66200256347656,-20.81399917602539 C160.95599365234375,-24.208999633789062 157.7550048828125,-29.031999588012695 144.48500061035156,-27.704999923706055 C128.34500122070312,-26.094999313354492 102.97899627685547,-34.3380012512207 88.16500091552734,-50.91600036621094 C88.16500091552734,-50.91600036621094 -73.3479995727539,-46.35599899291992 -73.3479995727539,-46.35599899291992 C-91.35199737548828,-29.2450008392334 -146.06500244140625,-10.57800006866455 -157.31100463867188,5.184999942779541 C-163.75399780273438,14.213000297546387 -156.49000549316406,16.405000686645508 -147.3159942626953,15.329999923706055 C-141.0590057373047,14.597000122070312 -133.91299438476562,12.345000267028809 -129.6219940185547,9.706000328063965 C-128.83200073242188,9.217000007629395 -127.84400177001953,9.956999778747559 -128.09500122070312,10.854999542236328 C-133.46400451660156,30.165000915527344 -96.2959976196289,26.551000595092773 -66.4219970703125,2.0209999084472656 C-65.20500183105469,1.0219999551773071 -64.01899719238281,1.9579999446868896 -64.86399841308594,3.303999900817871 C-77.58200073242188,23.56999969482422 -46.994998931884766,20.5939998626709 -30.722999572753906,1.340000033378601 C-29.875,0.3370000123977661 -28.45599937438965,1.4739999771118164 -29.111000061035156,2.611999988555908 C-46.99300003051758,33.66600036621094 -16.024999618530273,48.709999084472656 -2.046999931335449,13.928000450134277 C-1.6139999628067017,12.850000381469727 -0.17800000309944153,12.833999633789062 -0.020999999716877937,13.979999542236328 C3.822000026702881,42.14500045776367 20.594999313354492,35.59299850463867 18.17099952697754,17.924999237060547 C18.020999908447266,16.843000411987305 19.454999923706055,16.312999725341797 20.048999786376953,17.22599983215332 C35.25600051879883,40.645999908447266 46.36199951171875,37.840999603271484 37.875,15.39799976348877 C37.430999755859375,14.225000381469727 39.09000015258789,13.446000099182129 39.720001220703125,14.512999534606934 C70.5009994506836,66.7239990234375 93.44300079345703,52.33599853515625 88.99700164794922,37.64500045776367 C88.69999694824219,36.66299819946289 89.84600067138672,35.935001373291016 90.65399932861328,36.573001861572266 C105.99600219726562,48.69300079345703 122.2959976196289,40.849998474121094 101.18599700927734,22.865999221801758 C100.16100311279297,21.993000030517578 101.38500213623047,20.437000274658203 102.44499969482422,21.2450008392334 C123.66400146484375,37.2760009765625 146.74899291992188,28.68899917602539 102.38099670410156,-3.3889999389648438 C101.3479995727539,-4.136000156402588 102.35299682617188,-5.73199987411499 103.46900177001953,-5.124000072479248 C128.63299560546875,8.4350004196167 127.89900207519531,4.191999912261963 122.89199829101562,-4.513999938964844 C122.43000030517578,-5.314000129699707 123.18599700927734,-6.267000198364258 124.06700134277344,-6.013000011444092 C152.73500061035156,2.2860000133514404 167.53700256347656,-8.095999717712402 152.44900512695312,-19.031999588012695z"></path></g><g opacity="1" transform="matrix(1,0,0,1,0,0)"><g opacity="1" transform="matrix(1,0,0,1,139.6439971923828,377.9289855957031)"><path stroke-linecap="round" stroke-linejoin="round" fill-opacity="0" stroke="rgb(105,230,131)" stroke-opacity="1" stroke-width="4" d=" M9.27400016784668,8.343000411987305 C1.4270000457763672,8.343000411987305 -4.228000164031982,6.758999824523926 -2.131999969482422,-0.777999997138977"></path></g><g opacity="1" transform="matrix(1,0,0,1,198.50799560546875,374.3030090332031)"><path stroke-linecap="round" stroke-linejoin="round" fill-opacity="0" stroke="rgb(105,230,131)" stroke-opacity="1" stroke-width="4" d=" M1.3530000448226929,5.033999919891357 C-2.072000026702881,3.371000051498413 -2.1480000019073486,-0.09799999743700027 0.574999988079071,-5.033999919891357"></path></g><g opacity="1" transform="matrix(1,0,0,1,237.68800354003906,380.4280090332031)"><path stroke-linecap="round" stroke-linejoin="round" fill-opacity="0" stroke="rgb(105,230,131)" stroke-opacity="1" stroke-width="4" d=" M-5.5289998054504395,10.468999862670898 C-8.286999702453613,3.5239999294281006 -5.752999782562256,-5.63700008392334 -2.303999900817871,-10.32699966430664"></path></g><g opacity="0.5" transform="matrix(1,0,0,1,268.7430114746094,387.53900146484375)"><path stroke-linecap="round" stroke-linejoin="round" fill-opacity="0" stroke="rgb(105,230,131)" stroke-opacity="1" stroke-width="4" d=" M4.598999977111816,8.77299976348877 C1.3220000267028809,8.77299976348877 -2.9549999237060547,3.2820000648498535 -4.598999977111816,-8.77299976348877"></path></g><g opacity="0.5" transform="matrix(1,0,0,1,291.8110046386719,388.9949951171875)"><path stroke-linecap="round" stroke-linejoin="round" fill-opacity="0" stroke="rgb(105,230,131)" stroke-opacity="1" stroke-width="4" d=" M7.886000156402588,7.761000156402588 C5.770999908447266,7.761000156402588 0.0689999982714653,4.491000175476074 -7.886000156402588,-7.761000156402588"></path></g><g opacity="0.5" transform="matrix(1,0,0,1,322.5989990234375,396.5350036621094)"><path stroke-linecap="round" stroke-linejoin="round" fill-opacity="0" stroke="rgb(105,230,131)" stroke-opacity="1" stroke-width="4" d=" M18.959999084472656,17.94300079345703 C13.920999526977539,17.94300079345703 0.13600000739097595,14.446999549865723 -18.959999084472656,-17.94300079345703"></path></g><g opacity="0.5" transform="matrix(1,0,0,1,356.2619934082031,399.44000244140625)"><path stroke-linecap="round" stroke-linejoin="round" fill-opacity="0" stroke="rgb(105,230,131)" stroke-opacity="1" stroke-width="4" d=" M9.758999824523926,5.960999965667725 C2.5789999961853027,5.960999965667725 -4.084000110626221,-1.0099999904632568 -9.758999824523926,-5.960999965667725"></path></g><g opacity="0.5" transform="matrix(1,0,0,1,374.8380126953125,388.4779968261719)"><path stroke-linecap="round" stroke-linejoin="round" fill-opacity="0" stroke="rgb(4,61,33)" stroke-opacity="1" stroke-width="4" d=" M8.96500015258789,3.7070000171661377 C5.040999889373779,3.7070000171661377 -1.7309999465942383,1.7589999437332153 -8.96500015258789,-3.7070000171661377"></path></g><g opacity="0.5" transform="matrix(1,0,0,1,378.22698974609375,362.53900146484375)"><path stroke-linecap="round" stroke-linejoin="round" fill-opacity="0" stroke="rgb(4,61,33)" stroke-opacity="1" stroke-width="4" d=" M8.633000373840332,4.539000034332275 C5.343999862670898,4.539000034332275 -3.4830000400543213,0.08900000154972076 -10.939000129699707,-3.678999900817871"></path></g><g opacity="0.5" transform="matrix(1,0,0,1,404.6730041503906,357.8529968261719)"><path stroke-linecap="round" stroke-linejoin="round" fill-opacity="0" stroke="rgb(4,61,33)" stroke-opacity="1" stroke-width="4" d=" M14.71500015258789,-2.0759999752044678 C10.51200008392334,5.75600004196167 -9.519000053405762,2.128999948501587 -17.29400062561035,-0.12099999934434891"></path></g><g opacity="0.5" transform="matrix(1,0,0,1,407.1650085449219,340.3680114746094)"><path stroke-linecap="round" stroke-linejoin="round" fill-opacity="0" stroke="rgb(105,230,131)" stroke-opacity="1" stroke-width="4" d=" M-7.693999767303467,-0.07800000160932541 C-3.1630001068115234,0.3869999945163727 3.450000047683716,-0.38199999928474426 7.693999767303467,0.07100000232458115"></path></g></g><g opacity="1" transform="matrix(1,0,0,1,271.8320007324219,345.5379943847656)"><path fill="rgb(0,61,29)" fill-opacity="0.5" d=" M76.6719970703125,3.3489999771118164 C103.54399871826172,14.970000267028809 109.03399658203125,9.585000038146973 100.0770034790039,1.9320000410079956 C133.59500122070312,8.451000213623047 124.20800018310547,-9.234999656677246 117.125,-10.539999961853027 C116.0979995727539,-10.729000091552734 84.76699829101562,-24.025999069213867 78.98400115966797,-27.547000885009766 C82.5530014038086,-26.15999984741211 -82.25,-27.503999710083008 -82.25,-27.503999710083008 C-90.0009994506836,-19.976999282836914 -104.7699966430664,-11.156999588012695 -119.3290023803711,-3.8399999141693115 C-135.56700134277344,4.320000171661377 -105.51300048828125,12.847000122070312 -85.4280014038086,-7.704999923706055 C-97.39299774169922,4.744999885559082 -96.40799713134766,12.420000076293945 -86.29499816894531,8.168000221252441 C-99.5,13.649999618530273 -93.7760009765625,31.077999114990234 -67.89099884033203,13.230999946594238 C-76.76000213623047,24.16900062561035 -65.97200012207031,23.570999145507812 -52.60599899291992,17.031999588012695 C-55.08300018310547,24.820999145507812 -23.645000457763672,23.19099998474121 -12.03499984741211,-4.586999893188477 C-11.748000144958496,24.094999313354492 5.298999786376953,23.753999710083008 3.2790000438690186,5.334000110626221 C16.288000106811523,33.433998107910156 26.066999435424805,17.457000732421875 21.77199935913086,6.184000015258789 C54.40599822998047,56.70100021362305 88.61699676513672,19.79599952697754 61.93600082397461,8.168000221252441 C88.80799865722656,26.024999618530273 98.63200378417969,20.92300033569336 76.6719970703125,3.3489999771118164z"></path></g></g><g class="1" style="display: block;" transform="matrix(1.0199999809265137,0,0,1.0199999809265137,-15.988189697265625,-14.1302490234375)" opacity="1"><g opacity="1" transform="matrix(1,0,0,1,257.3590087890625,305.61199951171875)"><path stroke-linecap="round" stroke-linejoin="round" fill-opacity="0" stroke="rgb(0,61,29)" stroke-opacity="1" stroke-width="13" d=" M131.23699951171875,5.480000019073486 C105.88400268554688,-4.020999908447266 101.59500122070312,-6.330999851226807 92.9209976196289,-11.612000465393066 C91.85099792480469,-12.263999938964844 92.677001953125,-13.899999618530273 93.8270034790039,-13.446000099182129 C110.31800079345703,-7.0370001792907715 121.29100036621094,-5.310999870300293 127.80500030517578,-5.078000068664551 C138.66299438476562,-4.690000057220459 135.85299682617188,-13.079000473022461 127.43699645996094,-15.92300033569336 C121.02100372314453,-18.090999603271484 91.15899658203125,-27.05299949645996 79.56700134277344,-37.48500061035156 C53.41400146484375,-40.28799819946289 -55.150001525878906,-35.92100143432617 -55.150001525878906,-35.92100143432617 C-73.08399963378906,-19.349000930786133 -120.2760009765625,2.997999906539917 -139.4770050048828,7.7820000648498535 C-143.23800659179688,8.718999862670898 -147.06500244140625,10.35200023651123 -144.31900024414062,13.0649995803833 C-140.68899536132812,16.64900016784668 -128.36099243164062,20.100000381469727 -118.04900360107422,17.136999130249023 C-117.36199951171875,16.94099998474121 -116.74800109863281,18.270999908447266 -116.76000213623047,18.32900047302246 C-119.08999633789062,29.753000259399414 -95.4990005493164,26.761999130249023 -71.61900329589844,6.567999839782715 C-70.5979995727539,5.702000141143799 -69.2699966430664,7.22599983215332 -70.27400207519531,8.119999885559082 C-83.62899780273438,19.985000610351562 -82.00900268554688,26.395999908447266 -72.22100067138672,22.27899932861328 C-71.06400299072266,21.799999237060547 -70.2300033569336,23.408000946044922 -71.25900268554688,24.082000732421875 C-94.91799926757812,39.645999908447266 -86.51200103759766,66.16400146484375 -43.21099853515625,37.112998962402344 C-42.3380012512207,36.5260009765625 -41.16299819946289,37.53300094604492 -41.72100067138672,38.42499923706055 C-49.527000427246094,50.88800048828125 -28.448999404907227,66.08499908447266 1.5110000371932983,10.024999618530273 C2.138000011444092,8.85200023651123 3.4590001106262207,9.984999656677246 3.4630000591278076,10.461999893188477 C3.736999988555908,44.69300079345703 18.674999237060547,47.202999114990234 16.72800064086914,20.46500015258789 C16.64299964904785,19.323999404907227 18.229000091552734,18.92300033569336 18.691999435424805,19.981000900268555 C34.316001892089844,55.83399963378906 42.56800079345703,41.457000732421875 35.279998779296875,21.594999313354492 C34.85300064086914,20.43000030517578 36.492000579833984,19.652000427246094 37.125,20.71500015258789 C55.30500030517578,51.13600158691406 74.00199890136719,63.63399887084961 85.81199645996094,58.334999084472656 C96.82099914550781,53.39500045776367 87.93499755859375,35.11399841308594 75.71600341796875,23.983999252319336 C74.78800201416016,23.13599967956543 75.94200134277344,21.643999099731445 76.97599792480469,22.3700008392334 C100.88500213623047,39.167999267578125 112.88400268554688,37.01300048828125 90.50199890136719,19.208999633789062 C89.56500244140625,18.46299934387207 90.48799896240234,16.94700050354004 91.5510025024414,17.46500015258789 C113.59600067138672,28.209999084472656 124.13099670410156,25.833999633789062 113.88200378417969,17.770999908447266 C113.05799865722656,17.12299919128418 113.70800018310547,15.779999732971191 114.74500274658203,15.982000350952148 C143.87100219726562,21.64699935913086 157.52499389648438,15.331000328063965 131.23699951171875,5.480000019073486z"></path><path fill="url(#__lottie_element_7279)" fill-opacity="1" d=" M131.23699951171875,5.480000019073486 C105.88400268554688,-4.020999908447266 101.59500122070312,-6.330999851226807 92.9209976196289,-11.612000465393066 C91.85099792480469,-12.263999938964844 92.677001953125,-13.899999618530273 93.8270034790039,-13.446000099182129 C110.31800079345703,-7.0370001792907715 121.29100036621094,-5.310999870300293 127.80500030517578,-5.078000068664551 C138.66299438476562,-4.690000057220459 135.85299682617188,-13.079000473022461 127.43699645996094,-15.92300033569336 C121.02100372314453,-18.090999603271484 91.15899658203125,-27.05299949645996 79.56700134277344,-37.48500061035156 C53.41400146484375,-40.28799819946289 -55.150001525878906,-35.92100143432617 -55.150001525878906,-35.92100143432617 C-73.08399963378906,-19.349000930786133 -120.2760009765625,2.997999906539917 -139.4770050048828,7.7820000648498535 C-143.23800659179688,8.718999862670898 -147.06500244140625,10.35200023651123 -144.31900024414062,13.0649995803833 C-140.68899536132812,16.64900016784668 -128.36099243164062,20.100000381469727 -118.04900360107422,17.136999130249023 C-117.36199951171875,16.94099998474121 -116.74800109863281,18.270999908447266 -116.76000213623047,18.32900047302246 C-119.08999633789062,29.753000259399414 -95.4990005493164,26.761999130249023 -71.61900329589844,6.567999839782715 C-70.5979995727539,5.702000141143799 -69.2699966430664,7.22599983215332 -70.27400207519531,8.119999885559082 C-83.62899780273438,19.985000610351562 -82.00900268554688,26.395999908447266 -72.22100067138672,22.27899932861328 C-71.06400299072266,21.799999237060547 -70.2300033569336,23.408000946044922 -71.25900268554688,24.082000732421875 C-94.91799926757812,39.645999908447266 -86.51200103759766,66.16400146484375 -43.21099853515625,37.112998962402344 C-42.3380012512207,36.5260009765625 -41.16299819946289,37.53300094604492 -41.72100067138672,38.42499923706055 C-49.527000427246094,50.88800048828125 -28.448999404907227,66.08499908447266 1.5110000371932983,10.024999618530273 C2.138000011444092,8.85200023651123 3.4590001106262207,9.984999656677246 3.4630000591278076,10.461999893188477 C3.736999988555908,44.69300079345703 18.674999237060547,47.202999114990234 16.72800064086914,20.46500015258789 C16.64299964904785,19.323999404907227 18.229000091552734,18.92300033569336 18.691999435424805,19.981000900268555 C34.316001892089844,55.83399963378906 42.56800079345703,41.457000732421875 35.279998779296875,21.594999313354492 C34.85300064086914,20.43000030517578 36.492000579833984,19.652000427246094 37.125,20.71500015258789 C55.30500030517578,51.13600158691406 74.00199890136719,63.63399887084961 85.81199645996094,58.334999084472656 C96.82099914550781,53.39500045776367 87.93499755859375,35.11399841308594 75.71600341796875,23.983999252319336 C74.78800201416016,23.13599967956543 75.94200134277344,21.643999099731445 76.97599792480469,22.3700008392334 C100.88500213623047,39.167999267578125 112.88400268554688,37.01300048828125 90.50199890136719,19.208999633789062 C89.56500244140625,18.46299934387207 90.48799896240234,16.94700050354004 91.5510025024414,17.46500015258789 C113.59600067138672,28.209999084472656 124.13099670410156,25.833999633789062 113.88200378417969,17.770999908447266 C113.05799865722656,17.12299919128418 113.70800018310547,15.779999732971191 114.74500274658203,15.982000350952148 C143.87100219726562,21.64699935913086 157.52499389648438,15.331000328063965 131.23699951171875,5.480000019073486z"></path></g><g opacity="1" transform="matrix(1,0,0,1,0,0)"><g opacity="1" transform="matrix(1,0,0,1,183.83099365234375,321.1180114746094)"><path stroke-linecap="round" stroke-linejoin="round" fill-opacity="0" stroke="rgb(105,230,131)" stroke-opacity="1" stroke-width="4" d=" M-4.513000011444092,5.965000152587891 C-4.61299991607666,5.061999797821045 -3.440999984741211,1.1080000400543213 4.519000053405762,-5.965000152587891"></path></g><g opacity="1" transform="matrix(1,0,0,1,181.11700439453125,340.5400085449219)"><path stroke-linecap="round" stroke-linejoin="round" fill-opacity="0" stroke="rgb(105,230,131)" stroke-opacity="1" stroke-width="4" d=" M-5.7769999504089355,9.255999565124512 C-7.079999923706055,4.9039998054504395 -3.384999990463257,-3.062000036239624 6.03000020980835,-9.255999565124512"></path></g><g opacity="1" transform="matrix(1,0,0,1,219.14700317382812,343.0190124511719)"><path stroke-linecap="round" stroke-linejoin="round" fill-opacity="0" stroke="rgb(105,230,131)" stroke-opacity="1" stroke-width="4" d=" M-2.9830000400543213,8.072999954223633 C-3.9739999771118164,5.01800012588501 -1.1089999675750732,0.47699999809265137 3.180000066757202,-8.072999954223633"></path></g><g opacity="0.5" transform="matrix(1,0,0,1,266.2049865722656,332.7120056152344)"><path stroke-linecap="round" stroke-linejoin="round" fill-opacity="0" stroke="rgb(105,230,131)" stroke-opacity="1" stroke-width="4" d=" M3.184000015258789,9.61299991607666 C1.9950000047683716,9.61299991607666 -2.0490000247955322,4.64300012588501 -3.184000015258789,-9.61299991607666"></path></g><g opacity="0.5" transform="matrix(1,0,0,1,285.06500244140625,335.2699890136719)"><path stroke-linecap="round" stroke-linejoin="round" fill-opacity="0" stroke="rgb(105,230,131)" stroke-opacity="1" stroke-width="4" d=" M6.921999931335449,10.437999725341797 C5.505000114440918,10.437999725341797 0.1940000057220459,6.686999797821045 -7.269000053405762,-10.437999725341797"></path></g><g opacity="0.5" transform="matrix(1,0,0,1,321.9460144042969,352.6510009765625)"><path stroke-linecap="round" stroke-linejoin="round" fill-opacity="0" stroke="rgb(105,230,131)" stroke-opacity="1" stroke-width="4" d=" M14.807999610900879,10.815999984741211 C3.5260000228881836,10.815999984741211 -8.019000053405762,-1.8969999551773071 -14.807999610900879,-10.815999984741211"></path></g><g opacity="0.5" transform="matrix(1,0,0,1,346.31201171875,331.7030029296875)"><path stroke-linecap="round" stroke-linejoin="round" fill-opacity="0" stroke="rgb(105,230,131)" stroke-opacity="1" stroke-width="4" d=" M10.92300033569336,5.306000232696533 C7.5920000076293945,4.9710001945495605 0.16300000250339508,2.061000108718872 -10.92300033569336,-5.306000232696533"></path></g><g opacity="0.5" transform="matrix(1,0,0,1,360.5679931640625,324.5769958496094)"><path stroke-linecap="round" stroke-linejoin="round" fill-opacity="0" stroke="rgb(4,61,33)" stroke-opacity="1" stroke-width="4" d=" M10.902000427246094,3.246999979019165 C8.366999626159668,3.246999979019165 2.1640000343322754,2.4040000438690186 -10.902000427246094,-3.246999979019165"></path></g><g opacity="0.5" transform="matrix(1,0,0,1,381.1319885253906,319.72100830078125)"><path stroke-linecap="round" stroke-linejoin="round" fill-opacity="0" stroke="rgb(4,61,33)" stroke-opacity="1" stroke-width="4" d=" M19.586000442504883,0.5049999952316284 C11.260000228881836,4.427000045776367 -8.91100025177002,-0.04399999976158142 -19.586000442504883,-2.119999885559082"></path></g><g opacity="1" transform="matrix(1,0,0,1,136.88600158691406,307.9020080566406)"><path stroke-linecap="round" stroke-linejoin="round" fill-opacity="0" stroke="rgb(105,230,131)" stroke-opacity="1" stroke-width="4" d=" M-18.54400062561035,7.3379998207092285 C-10.015000343322754,5.2129998207092285 3.990000009536743,-0.3479999899864197 18.54400062561035,-7.3379998207092285"></path></g></g><g opacity="1" transform="matrix(1,0,0,1,268.7619934082031,286.6719970703125)"><path fill="rgb(0,61,29)" fill-opacity="0.5" d=" M94.76699829101562,1.5410000085830688 C103.38300323486328,4.020999908447266 109.53800201416016,3.674999952316284 113.22899627685547,1.5779999494552612 C107.67900085449219,-1.2510000467300415 67.21499633789062,-18.735000610351562 67.21499633789062,-18.735000610351562 C67.21499633789062,-18.735000610351562 -67.04399871826172,-17.926000595092773 -67.04399871826172,-17.926000595092773 C-78.0790023803711,-7.625 -104.06700134277344,2.4260001182556152 -107.60600280761719,9.178999900817871 C-103.76300048828125,10.95300006866455 -102.7509994506836,11.178000450134277 -93.86599731445312,6.10099983215332 C-116.40399932861328,23.14900016784668 -91.89399719238281,23.500999450683594 -66.75499725341797,0.38499999046325684 C-90.73799896240234,23.211999893188477 -88.71499633789062,32.16899871826172 -58.66400146484375,11.654000282287598 C-85.24700164794922,37.659000396728516 -64.44300079345703,50.95100021362305 -37.28200149536133,23.790000915527344 C-53.75199890136719,49.79499816894531 -21.389999389648438,44.59400177001953 -14.744000434875488,16.854999542236328 C-15.282999992370605,35.446998596191406 2.6410000324249268,33.612998962402344 3.4600000381469727,16.854999542236328 C8.083000183105469,48.349998474121094 24.55299949645996,36.792999267578125 23.39699935913086,25.812999725341797 C32.643001556396484,48.92900085449219 55.18199920654297,46.03900146484375 48.24700164794922,25.235000610351562 C66.16200256347656,39.10499954223633 72.51799774169922,29.569000244140625 54.60300064086914,4.142000198364258 C92.99199676513672,40.6619987487793 115.54100036621094,24.240999221801758 82.58599853515625,7.730000019073486 C103.28600311279297,15.17199993133545 116.03099822998047,14.680999755859375 94.76699829101562,1.5410000085830688z"></path></g></g><g style="display: none;"><g><path></path></g><g><path stroke-linecap="round" stroke-linejoin="round" fill-opacity="0"></path></g><g><path stroke-linecap="butt" stroke-linejoin="miter" fill-opacity="0" stroke-miterlimit="4"></path></g></g><g class="1" style="display: block;" transform="matrix(1.0199999809265137,0,0,1.0199999809265137,-15.988815307617188,-14.131103515625)" opacity="1"><g opacity="1" transform="matrix(1,0,0,1,261.46600341796875,256.4849853515625)"><path stroke-linecap="round" stroke-linejoin="round" fill-opacity="0" stroke="rgb(0,61,29)" stroke-opacity="1" stroke-width="13" d=" M-63.40700149536133,8.395999908447266 C-74.16100311279297,18.23699951171875 -68.92500305175781,25.582000732421875 -51.946998596191406,13.991000175476074 C-50.91999816894531,13.286999702453613 -49.75899887084961,14.701000213623047 -50.6510009765625,15.572999954223633 C-76.41300201416016,40.775001525878906 -56.62200164794922,52.159000396728516 -30.711999893188477,26.249000549316406 C-30.343000411987305,25.878000259399414 -28.839000701904297,27.082000732421875 -29.118999481201172,27.52400016784668 C-44.78300094604492,52.25600051879883 -14.579000473022461,45.4010009765625 -8.446999549865723,19.801000595092773 C-8.16100025177002,18.617000579833984 -6.388999938964844,18.839000701904297 -6.421999931335449,20.069000244140625 C-6.9679999351501465,39.722999572753906 8.932999610900879,38.073001861572266 9.729999542236328,19.9950008392334 C9.784000396728516,18.749000549316406 11.595000267028809,18.68000030517578 11.770999908447266,19.891000747680664 C16.163999557495117,49.816001892089844 30.70599937438965,38.93199920654297 29.672000885009766,29.104999542236328 C29.607999801635742,28.499000549316406 31.48699951171875,28.219999313354492 31.645999908447266,28.617000579833984 C40.30699920654297,50.27399826049805 61.141998291015625,48.4640007019043 54.569000244140625,28.743999481201172 C54.249000549316406,27.785999298095703 55.367000579833984,26.98900032043457 56.17100143432617,27.607999801635742 C73.927001953125,41.35499954223633 77.34300231933594,31.027999877929688 61.060001373291016,7.918000221252441 C60.33100128173828,6.881999969482422 61.77899932861328,5.702000141143799 62.64500045776367,6.620999813079834 C90.70999908447266,36.29100036621094 121.30699920654297,32.220001220703125 96.82499694824219,13.928000450134277 C95.82099914550781,13.178000450134277 96.7979965209961,11.621000289916992 97.91000366210938,12.194000244140625 C106.87899780273438,16.83300018310547 109.93900299072266,9.748000144958496 101.61000061035156,5.646999835968018 C100.49099731445312,5.0970001220703125 101.15399932861328,3.3949999809265137 102.34700012207031,3.740000009536743 C111.37000274658203,6.3379998207092285 120.55599975585938,5.546000003814697 122.88300323486328,2.996000051498413 C124.87999725341797,0.8080000281333923 121.82499694824219,-2.6760001182556152 109.28199768066406,-6.426000118255615 C80.00499725341797,-15.178999900817871 68.07099914550781,-33.81800079345703 61.6349983215332,-44.20399856567383 C61.6349983215332,-44.20399856567383 -53.959999084472656,-37.909000396728516 -53.959999084472656,-37.909000396728516 C-60.80500030517578,-27.229999542236328 -85.14199829101562,-3.443000078201294 -112.5989990234375,5.414000034332275 C-123.48600006103516,8.925999641418457 -125.27899932861328,12.565999984741211 -121.91200256347656,14.553999900817871 C-117.33399963378906,17.256999969482422 -103.21600341796875,16.906999588012695 -89.44100189208984,9.03600025177002 C-88.33499908447266,8.402999877929688 -87.2959976196289,9.97599983215332 -88.31199645996094,10.746000289916992 C-109.00800323486328,26.399999618530273 -85.28700256347656,23.364999771118164 -64.7699966430664,6.801000118255615 C-64.31300354003906,6.432000160217285 -63,8.02400016784668 -63.40700149536133,8.395999908447266z"></path><path fill="url(#__lottie_element_7272)" fill-opacity="1" d=" M-63.40700149536133,8.395999908447266 C-74.16100311279297,18.23699951171875 -68.92500305175781,25.582000732421875 -51.946998596191406,13.991000175476074 C-50.91999816894531,13.286999702453613 -49.75899887084961,14.701000213623047 -50.6510009765625,15.572999954223633 C-76.41300201416016,40.775001525878906 -56.62200164794922,52.159000396728516 -30.711999893188477,26.249000549316406 C-30.343000411987305,25.878000259399414 -28.839000701904297,27.082000732421875 -29.118999481201172,27.52400016784668 C-44.78300094604492,52.25600051879883 -14.579000473022461,45.4010009765625 -8.446999549865723,19.801000595092773 C-8.16100025177002,18.617000579833984 -6.388999938964844,18.839000701904297 -6.421999931335449,20.069000244140625 C-6.9679999351501465,39.722999572753906 8.932999610900879,38.073001861572266 9.729999542236328,19.9950008392334 C9.784000396728516,18.749000549316406 11.595000267028809,18.68000030517578 11.770999908447266,19.891000747680664 C16.163999557495117,49.816001892089844 30.70599937438965,38.93199920654297 29.672000885009766,29.104999542236328 C29.607999801635742,28.499000549316406 31.48699951171875,28.219999313354492 31.645999908447266,28.617000579833984 C40.30699920654297,50.27399826049805 61.141998291015625,48.4640007019043 54.569000244140625,28.743999481201172 C54.249000549316406,27.785999298095703 55.367000579833984,26.98900032043457 56.17100143432617,27.607999801635742 C73.927001953125,41.35499954223633 77.34300231933594,31.027999877929688 61.060001373291016,7.918000221252441 C60.33100128173828,6.881999969482422 61.77899932861328,5.702000141143799 62.64500045776367,6.620999813079834 C90.70999908447266,36.29100036621094 121.30699920654297,32.220001220703125 96.82499694824219,13.928000450134277 C95.82099914550781,13.178000450134277 96.7979965209961,11.621000289916992 97.91000366210938,12.194000244140625 C106.87899780273438,16.83300018310547 109.93900299072266,9.748000144958496 101.61000061035156,5.646999835968018 C100.49099731445312,5.0970001220703125 101.15399932861328,3.3949999809265137 102.34700012207031,3.740000009536743 C111.37000274658203,6.3379998207092285 120.55599975585938,5.546000003814697 122.88300323486328,2.996000051498413 C124.87999725341797,0.8080000281333923 121.82499694824219,-2.6760001182556152 109.28199768066406,-6.426000118255615 C80.00499725341797,-15.178999900817871 68.07099914550781,-33.81800079345703 61.6349983215332,-44.20399856567383 C61.6349983215332,-44.20399856567383 -53.959999084472656,-37.909000396728516 -53.959999084472656,-37.909000396728516 C-60.80500030517578,-27.229999542236328 -85.14199829101562,-3.443000078201294 -112.5989990234375,5.414000034332275 C-123.48600006103516,8.925999641418457 -125.27899932861328,12.565999984741211 -121.91200256347656,14.553999900817871 C-117.33399963378906,17.256999969482422 -103.21600341796875,16.906999588012695 -89.44100189208984,9.03600025177002 C-88.33499908447266,8.402999877929688 -87.2959976196289,9.97599983215332 -88.31199645996094,10.746000289916992 C-109.00800323486328,26.399999618530273 -85.28700256347656,23.364999771118164 -64.7699966430664,6.801000118255615 C-64.31300354003906,6.432000160217285 -63,8.02400016784668 -63.40700149536133,8.395999908447266z"></path></g><g opacity="1" transform="matrix(1,0,0,1,0,0)"><g opacity="1" transform="matrix(1,0,0,1,189.9669952392578,276.81500244140625)"><path stroke-linecap="round" stroke-linejoin="round" fill-opacity="0" stroke="rgb(105,230,131)" stroke-opacity="1" stroke-width="4" d=" M4.339000225067139,-3.6659998893737793 C4.781000137329102,-4.570000171661377 5.705999851226807,-6.020999908447266 7.426000118255615,-8.098999977111816"></path></g><g opacity="1" transform="matrix(1,0,0,1,204.7449951171875,284.2550048828125)"><path stroke-linecap="round" stroke-linejoin="round" fill-opacity="0" stroke="rgb(105,230,131)" stroke-opacity="1" stroke-width="4" d=" M-4.034999847412109,7.322999954223633 C-3.953000068664551,4.080999851226807 -1.5420000553131104,-1.0789999961853027 4.034999847412109,-7.322999954223633"></path></g><g opacity="1" transform="matrix(1,0,0,1,231.86700439453125,290.8909912109375)"><path stroke-linecap="round" stroke-linejoin="round" fill-opacity="0" stroke="rgb(105,230,131)" stroke-opacity="1" stroke-width="4" d=" M-1.7999999523162842,5.86299991607666 C-2.559000015258789,4.484000205993652 -1.996000051498413,0.5849999785423279 2.0880000591278076,-5.86299991607666"></path></g><g opacity="0.5" transform="matrix(1,0,0,1,279.5320129394531,285.0589904785156)"><path stroke-linecap="round" stroke-linejoin="round" fill-opacity="0" stroke="rgb(105,230,131)" stroke-opacity="1" stroke-width="4" d=" M4.4120001792907715,8.958999633789062 C1.5549999475479126,8.958999633789062 -2.4700000286102295,4.265999794006348 -4.4120001792907715,-8.958999633789062"></path></g><g opacity="0.5" transform="matrix(1,0,0,1,302.4110107421875,291.5769958496094)"><path stroke-linecap="round" stroke-linejoin="round" fill-opacity="0" stroke="rgb(105,230,131)" stroke-opacity="1" stroke-width="4" d=" M7.5320000648498535,7.182000160217285 C2.8929998874664307,7.182000160217285 -3.562999963760376,2.740999937057495 -7.5320000648498535,-7.182000160217285"></path></g><g opacity="0.5" transform="matrix(1,0,0,1,320.59698486328125,282.5199890136719)"><path stroke-linecap="round" stroke-linejoin="round" fill-opacity="0" stroke="rgb(105,230,131)" stroke-opacity="1" stroke-width="4" d=" M9.416000366210938,5.830999851226807 C4.886000156402588,5.830999851226807 -3.009999990463257,-0.871999979019165 -9.416000366210938,-5.830999851226807"></path></g><g opacity="0.5" transform="matrix(1,0,0,1,347.8810119628906,276.41400146484375)"><path stroke-linecap="round" stroke-linejoin="round" fill-opacity="0" stroke="rgb(105,230,131)" stroke-opacity="1" stroke-width="4" d=" M13.633000373840332,6.434000015258789 C7.315000057220459,6.434000015258789 -2.86899995803833,2.3919999599456787 -13.633000373840332,-6.434000015258789"></path></g><g opacity="0.5" transform="matrix(1,0,0,1,373.67401123046875,259.0459899902344)"><path stroke-linecap="round" stroke-linejoin="round" fill-opacity="0" stroke="rgb(4,61,33)" stroke-opacity="1" stroke-width="4" d=" M9.333999633789062,-0.8870000243186951 C7.60099983215332,0.7110000252723694 -0.014000000432133675,2.0329999923706055 -9.333999633789062,-0.6499999761581421"></path></g><g opacity="1" transform="matrix(1,0,0,1,157.80499267578125,259.62799072265625)"><path stroke-linecap="round" stroke-linejoin="round" fill-opacity="0" stroke="rgb(105,230,131)" stroke-opacity="1" stroke-width="4" d=" M-17.072999954223633,8.258999824523926 C-15.87399959564209,7.228000164031982 9.095999717712402,-1.1670000553131104 17.072999954223633,-8.258999824523926"></path></g><g opacity="0.5" transform="matrix(1,0,0,1,366.6730041503906,250.61300659179688)"><path stroke-linecap="round" stroke-linejoin="round" fill-opacity="0" stroke="rgb(105,230,131)" stroke-opacity="1" stroke-width="4" d=" M-8.251999855041504,-2.443000078201294 C-2.74399995803833,-1.0180000066757202 3.996000051498413,1.059999942779541 8.251999855041504,2.443000078201294"></path></g></g><g opacity="1" transform="matrix(1,0,0,1,264.3949890136719,244.17599487304688)"><path fill="rgb(0,61,29)" fill-opacity="0.5" d=" M70.99400329589844,0.47699999809265137 C86.59700012207031,13.190999984741211 93.64399719238281,2.299999952316284 81.21900177001953,-6.368000030517578 C72.88300323486328,-12.184000015258789 61.94900131225586,-22.16200065612793 53.47200012207031,-32.637001037597656 C53.47200012207031,-32.637001037597656 -57.47600173950195,-26.59600067138672 -57.47600173950195,-26.59600067138672 C-61.972999572753906,-19.288000106811523 -72.43199920654297,-6.671000003814697 -87.5780029296875,3.5160000324249268 C-82.56199645996094,3.9800000190734863 -79.81600189208984,4.080999851226807 -71.6259994506836,0.47699999809265137 C-91.85199737548828,14.347000122070312 -87.2300033569336,25.60700035095215 -58.04600143432617,5.38100004196167 C-71.62100219726562,15.85099983215332 -60.93199920654297,25.476999282836914 -46.64699935913086,14.01200008392334 C-63.29800033569336,30.7549991607666 -44.26599884033203,33.52199935913086 -35.196998596191406,15.937000274658203 C-38.69200134277344,32.875 -25.618000030517578,24.42099952697754 -15.956999778747559,5.1620001792907715 C-26.743999481201172,29.43600082397461 -21.19700050354004,31.69300079345703 -17.889999389648438,32.35100173950195 C-8.633000373840332,34.19200134277344 2.0480000972747803,27.226999282836914 4.936999797821045,9.312000274658203 C6.0929999351501465,35.02799987792969 27.209999084472656,39.266998291015625 23.743000030517578,7.193999767303467 C44.257999420166016,33.19900131225586 58.55099868774414,28.04800033569336 45.54800033569336,-1.4249999523162842 C67.66500091552734,20.486000061035156 81.10700225830078,13.769000053405762 70.99400329589844,0.47699999809265137z"></path></g></g><g style="display: none;"><g><path></path></g><g><path stroke-linecap="round" stroke-linejoin="round" fill-opacity="0"></path></g><g><path stroke-linecap="butt" stroke-linejoin="miter" fill-opacity="0" stroke-miterlimit="4"></path></g></g><g class="1" style="display: block;" transform="matrix(1.0199989080429077,0.0014953975332900882,-0.0014953975332900882,1.0199989080429077,-15.581039428710938,-14.58673095703125)" opacity="1"><g opacity="1" transform="matrix(1,0,0,1,258.6780090332031,212.89500427246094)"><path stroke-linecap="round" stroke-linejoin="round" fill-opacity="0" stroke="rgb(0,61,29)" stroke-opacity="1" stroke-width="13" d=" M86.3479995727539,3.2160000801086426 C73.21199798583984,-5.949999809265137 55.58000183105469,-23.847999572753906 48.435001373291016,-38.2239990234375 C48.435001373291016,-38.2239990234375 -32.59400177001953,-40.2140007019043 -32.59400177001953,-40.2140007019043 C-38.86399841308594,-25.801000595092773 -57.63999938964844,-7.951000213623047 -80.71499633789062,-2.693000078201294 C-86.98100280761719,-1.2649999856948853 -91.15899658203125,1.406000018119812 -91.89199829101562,4.453000068664551 C-93.1989974975586,9.880000114440918 -82.03600311279297,14.979000091552734 -63.73099899291992,6.923999786376953 C-62.595001220703125,6.426000118255615 -61.715999603271484,8.010000228881836 -62.73699951171875,8.710000038146973 C-74.27100372314453,16.6200008392334 -77.9219970703125,23.55500030517578 -76.22899627685547,24.35700035095215 C-74.36000061035156,25.243999481201172 -67.74099731445312,23.201000213623047 -55.23400115966797,14.532999992370605 C-54.17499923706055,13.800000190734863 -53.00400161743164,15.309000015258789 -53.97700119018555,16.152000427246094 C-66.11399841308594,26.67099952697754 -69.5780029296875,35.04600143432617 -67.25399780273438,35.82899856567383 C-64.88999938964844,36.62099838256836 -57.323001861572266,33.2859992980957 -43.77199935913086,21.2549991607666 C-42.79899978637695,20.389999389648438 -41.45000076293945,21.78499984741211 -42.34600067138672,22.729000091552734 C-48.95100021362305,29.680999755859375 -50.29399871826172,34.946998596191406 -49.584999084472656,36.790000915527344 C-48.486000061035156,39.645999908447266 -40.08000183105469,35.66400146484375 -29.822999954223633,17.7549991607666 C-29.243999481201172,16.743000030517578 -27.69300079345703,17.33799934387207 -27.927000045776367,18.472999572753906 C-31.392000198364258,35.26100158691406 -9.857000350952148,10.557000160217285 -9.055000305175781,8.869000434875488 C-8.48799991607666,7.670000076293945 -6.668000221252441,8.480999946594238 -7.181000232696533,9.704999923706055 C-8.029999732971191,11.737000465393066 -13.303999900817871,39.82099914550781 -11.972999572753906,40.08599853515625 C-3.447999954223633,41.784000396728516 6.863999843597412,26.356000900268555 9.640000343322754,9.145000457763672 C9.831000328063965,7.949999809265137 11.623000144958496,8.024999618530273 11.680000305175781,9.262999534606934 C12.76099967956543,33.28799819946289 28.55500030517578,38.38999938964844 25.23699951171875,7.684999942779541 C25.12700080871582,6.670000076293945 26.422000885009766,6.129000186920166 27.062999725341797,6.939000129699707 C46.071998596191406,31.035999298095703 60.69499969482422,30.731000900268555 47.85599899291992,1.6319999694824219 C47.362998962402344,0.5170000195503235 48.9010009765625,-0.3700000047683716 49.619998931884766,0.6079999804496765 C72.822998046875,31.996999740600586 84.43000030517578,20.208999633789062 74.8499984741211,7.618000030517578 C74.11699676513672,6.6529998779296875 75.37999725341797,5.439000129699707 76.31600189208984,6.201000213623047 C90.43099975585938,17.702999114990234 97.84300231933594,11.234000205993652 86.3479995727539,3.2160000801086426z"></path><path fill="url(#__lottie_element_7265)" fill-opacity="1" d=" M86.3479995727539,3.2160000801086426 C73.21199798583984,-5.949999809265137 55.58000183105469,-23.847999572753906 48.435001373291016,-38.2239990234375 C48.435001373291016,-38.2239990234375 -32.59400177001953,-40.2140007019043 -32.59400177001953,-40.2140007019043 C-38.86399841308594,-25.801000595092773 -57.63999938964844,-7.951000213623047 -80.71499633789062,-2.693000078201294 C-86.98100280761719,-1.2649999856948853 -91.15899658203125,1.406000018119812 -91.89199829101562,4.453000068664551 C-93.1989974975586,9.880000114440918 -82.03600311279297,14.979000091552734 -63.73099899291992,6.923999786376953 C-62.595001220703125,6.426000118255615 -61.715999603271484,8.010000228881836 -62.73699951171875,8.710000038146973 C-74.27100372314453,16.6200008392334 -77.9219970703125,23.55500030517578 -76.22899627685547,24.35700035095215 C-74.36000061035156,25.243999481201172 -67.74099731445312,23.201000213623047 -55.23400115966797,14.532999992370605 C-54.17499923706055,13.800000190734863 -53.00400161743164,15.309000015258789 -53.97700119018555,16.152000427246094 C-66.11399841308594,26.67099952697754 -69.5780029296875,35.04600143432617 -67.25399780273438,35.82899856567383 C-64.88999938964844,36.62099838256836 -57.323001861572266,33.2859992980957 -43.77199935913086,21.2549991607666 C-42.79899978637695,20.389999389648438 -41.45000076293945,21.78499984741211 -42.34600067138672,22.729000091552734 C-48.95100021362305,29.680999755859375 -50.29399871826172,34.946998596191406 -49.584999084472656,36.790000915527344 C-48.486000061035156,39.645999908447266 -40.08000183105469,35.66400146484375 -29.822999954223633,17.7549991607666 C-29.243999481201172,16.743000030517578 -27.69300079345703,17.33799934387207 -27.927000045776367,18.472999572753906 C-31.392000198364258,35.26100158691406 -9.857000350952148,10.557000160217285 -9.055000305175781,8.869000434875488 C-8.48799991607666,7.670000076293945 -6.668000221252441,8.480999946594238 -7.181000232696533,9.704999923706055 C-8.029999732971191,11.737000465393066 -13.303999900817871,39.82099914550781 -11.972999572753906,40.08599853515625 C-3.447999954223633,41.784000396728516 6.863999843597412,26.356000900268555 9.640000343322754,9.145000457763672 C9.831000328063965,7.949999809265137 11.623000144958496,8.024999618530273 11.680000305175781,9.262999534606934 C12.76099967956543,33.28799819946289 28.55500030517578,38.38999938964844 25.23699951171875,7.684999942779541 C25.12700080871582,6.670000076293945 26.422000885009766,6.129000186920166 27.062999725341797,6.939000129699707 C46.071998596191406,31.035999298095703 60.69499969482422,30.731000900268555 47.85599899291992,1.6319999694824219 C47.362998962402344,0.5170000195503235 48.9010009765625,-0.3700000047683716 49.619998931884766,0.6079999804496765 C72.822998046875,31.996999740600586 84.43000030517578,20.208999633789062 74.8499984741211,7.618000030517578 C74.11699676513672,6.6529998779296875 75.37999725341797,5.439000129699707 76.31600189208984,6.201000213623047 C90.43099975585938,17.702999114990234 97.84300231933594,11.234000205993652 86.3479995727539,3.2160000801086426z"></path></g><g opacity="1" transform="matrix(1,0,0,1,0,0)"><g opacity="1" transform="matrix(1,0,0,1,199.35899353027344,238.66600036621094)"><path stroke-linecap="round" stroke-linejoin="round" fill-opacity="0" stroke="rgb(105,230,131)" stroke-opacity="1" stroke-width="4" d=" M-6.590000152587891,8.180999755859375 C-5.989999771118164,5.883999824523926 -2.6070001125335693,-0.20999999344348907 6.590000152587891,-8.180999755859375"></path></g><g opacity="1" transform="matrix(1,0,0,1,214.3800048828125,242.00599670410156)"><path stroke-linecap="round" stroke-linejoin="round" fill-opacity="0" stroke="rgb(105,230,131)" stroke-opacity="1" stroke-width="4" d=" M-3.3310000896453857,5.071000099182129 C-2.734999895095825,2.9760000705718994 -0.9390000104904175,-0.5759999752044678 3.3310000896453857,-5.071000099182129"></path></g><g opacity="1" transform="matrix(1,0,0,1,248.02699279785156,239.1790008544922)"><path stroke-linecap="round" stroke-linejoin="round" fill-opacity="0" stroke="rgb(105,230,131)" stroke-opacity="1" stroke-width="4" d=" M1.0950000286102295,11.755000114440918 C0.4180000126361847,10.449000358581543 1.9129999876022339,0 4.724999904632568,-12.498000144958496"></path></g><g opacity="0.5" transform="matrix(1,0,0,1,275.718994140625,231.08099365234375)"><path stroke-linecap="round" stroke-linejoin="round" fill-opacity="0" stroke="rgb(105,230,131)" stroke-opacity="1" stroke-width="4" d=" M3.4600000381469727,9.010000228881836 C1.7209999561309814,9.010000228881836 -2.8910000324249268,3.6489999294281006 -3.4600000381469727,-9.010000228881836"></path></g><g opacity="0.5" transform="matrix(1,0,0,1,300.14599609375,230.2100067138672)"><path stroke-linecap="round" stroke-linejoin="round" fill-opacity="0" stroke="rgb(105,230,131)" stroke-opacity="1" stroke-width="4" d=" M7.369999885559082,5.098999977111816 C4.566999912261963,5.098999977111816 -0.7820000052452087,1.8969999551773071 -7.369999885559082,-5.098999977111816"></path></g><g opacity="0.5" transform="matrix(1,0,0,1,323.11199951171875,224.48300170898438)"><path stroke-linecap="round" stroke-linejoin="round" fill-opacity="0" stroke="rgb(4,61,33)" stroke-opacity="1" stroke-width="4" d=" M9.434000015258789,7.171999931335449 C5.85699987411499,7.171999931335449 -0.7960000038146973,3.299999952316284 -9.434000015258789,-7.171999931335449"></path></g><g opacity="0.5" transform="matrix(1,0,0,1,341.9750061035156,220.49899291992188)"><path stroke-linecap="round" stroke-linejoin="round" fill-opacity="0" stroke="rgb(4,61,33)" stroke-opacity="1" stroke-width="4" d=" M5.7779998779296875,2.878000020980835 C4.723999977111816,2.878000020980835 0.7770000100135803,2.4639999866485596 -5.7779998779296875,-2.878000020980835"></path></g><g opacity="1" transform="matrix(1,0,0,1,175.21299743652344,213.53700256347656)"><path stroke-linecap="round" stroke-linejoin="round" fill-opacity="0" stroke="rgb(105,230,131)" stroke-opacity="1" stroke-width="4" d=" M-4.748000144958496,1.8589999675750732 C-1.9320000410079956,-0.4189999997615814 2.6989998817443848,-1.340999960899353 4.748000144958496,-1.8589999675750732"></path></g></g><g opacity="1" transform="matrix(1.0000499486923218,0,0,1,258.14898681640625,197.25599670410156)"><path fill="rgb(0,61,29)" fill-opacity="0.5" d=" M74.08499908447266,8.312000274658203 C64.38700103759766,-1.031000018119812 54.64699935913086,-13.20300006866455 49.64899826049805,-23.610000610351562 C49.64899826049805,-23.610000610351562 -32.82400131225586,-24.506999969482422 -33.474998474121094,-23.930999755859375 C-40.24100112915039,-9.602999687194824 -54.250999450683594,4.26200008392334 -77.08999633789062,11.27299976348877 C-75.78299713134766,14.484000205993652 -68.55699920654297,14.652000427246094 -58.720001220703125,8.161999702453613 C-58.14500045776367,15.097000122070312 -50.05500030517578,15.967000007629395 -36.178001403808594,-0.7860000133514404 C-43.40800094604492,14.524999618530273 -37.34199905395508,20.305999755859375 -30.114999771118164,11.930000305175781 C-33.5890007019043,28.39900016784668 -20.58799934387207,30.715999603271484 -12.491000175476074,14.538000106811523 C-7.872000217437744,24.075000762939453 -1.7999999523162842,15.697999954223633 -0.9279999732971191,3.562999963760376 C0.21899999678134918,25.233999252319336 9.465999603271484,22.349000930786133 7.741000175476074,1.8329999446868896 C13.512999534606934,19.172000885009766 15.53499984741211,19.17300033569336 17.27199935913086,11.371999740600586 C21.641000747680664,24.4950008392334 33.619998931884766,25.34000015258789 29.69700050354004,11.666999816894531 C46.15700149536133,34.500999450683594 53.09600067138672,24.10099983215332 42.4119987487793,7.048999786376953 C62.053001403808594,24.683000564575195 73.9020004272461,20.93199920654297 61.77199935913086,7.057000160217285 C64.61399841308594,9.65999984741211 76.9739990234375,11.095000267028809 74.08499908447266,8.312000274658203z"></path></g></g><g class="1" style="display: block;" transform="matrix(1.0199685096740723,-0.008010978810489178,0.008010978810489178,1.0199685096740723,-17.710739135742188,-12.53106689453125)" opacity="1"><g opacity="1" transform="matrix(1,0,0,1,260.5299987792969,165.0050048828125)"><path stroke-linecap="round" stroke-linejoin="round" fill-opacity="0" stroke="rgb(0,61,29)" stroke-opacity="1" stroke-width="13" d=" M73.44599914550781,9.730999946594238 C54.33700180053711,-6.239999771118164 46.56999969482422,-17.79800033569336 39.45399856567383,-28.19099998474121 C39.45399856567383,-28.19099998474121 -23.29199981689453,-30.461999893188477 -23.29199981689453,-30.461999893188477 C-30.16900062561035,-19.768999099731445 -56.47200012207031,0.14300000667572021 -74.21199798583984,9.843999862670898 C-91.71399688720703,19.415000915527344 -74.8550033569336,21.40399932861328 -61.689998626708984,12.710000038146973 C-61.03900146484375,12.281000137329102 -60.16600036621094,12.704999923706055 -60.10100173950195,13.482000350952148 C-59.49700164794922,20.738000869750977 -50.45899963378906,17.34600067138672 -39.37699890136719,3.9549999237060547 C-38.61199951171875,3.0290000438690186 -37.14500045776367,3.9630000591278076 -37.65700149536133,5.047999858856201 C-43.8380012512207,18.152000427246094 -40.189998626708984,24.64900016784668 -33.29499816894531,16.652999877929688 C-32.60200119018555,15.85099983215332 -31.295000076293945,16.50200080871582 -31.51300048828125,17.534000396728516 C-34.762001037597656,32.9640007019043 -23.256000518798828,34.35499954223633 -15.8100004196167,19.464000701904297 C-15.63599967956543,19.115999221801758 -15.279999732971191,18.89699935913086 -14.892000198364258,18.89699935913086 C-14.498000144958496,18.89699935913086 -14.140000343322754,19.121999740600586 -13.968000411987305,19.47599983215332 C-9.553000450134277,28.58300018310547 -5.01200008392334,20.027000427246094 -4.357999801635742,10.869999885559082 C-4.269000053405762,9.607000350952148 -2.378000020980835,9.605999946594238 -2.309000015258789,10.888999938964844 C-1.7630000114440918,21.132999420166016 0.7329999804496765,23.69700050354004 2.069000005722046,22.785999298095703 C3.4179999828338623,21.868000030517578 5.130000114440918,16.983999252319336 4.311999797821045,7.296000003814697 C4.209000110626221,6.085000038146973 6.0970001220703125,5.708000183105469 6.308000087738037,6.885000228881836 C8.885000228881836,21.2810001373291 12.618000030517578,22.14299964904785 13.866999626159668,16.52199935913086 C14.085000038146973,15.539999961853027 15.4399995803833,15.430000305175781 15.819999694824219,16.35700035095215 C22.715999603271484,33.215999603271484 33.58000183105469,36.62799835205078 26.333999633789062,17.395999908447266 C25.913999557495117,16.280000686645508 27.429000854492188,15.468000411987305 28.12700080871582,16.43400001525879 C36.803001403808594,28.45800018310547 41.74599838256836,29.850000381469727 43.14699935913086,28.908000946044922 C44.91400146484375,27.718000411987305 44.505001068115234,21.511999130249023 39.13800048828125,12.956000328063965 C38.507999420166016,11.949999809265137 39.819000244140625,10.859000205993652 40.694000244140625,11.647000312805176 C52.59199905395508,22.31999969482422 60.933998107910156,24.535999298095703 62.82099914550781,22.666000366210938 C63.930999755859375,21.56999969482422 63.05400085449219,18.183000564575195 58.595001220703125,13.086999893188477 C57.74800109863281,12.119999885559082 59.11199951171875,10.786999702453613 60.06100082397461,11.654000282287598 C74.98200225830078,25.30900001525879 92.33499908447266,25.51799964904785 73.44599914550781,9.730999946594238z"></path><path fill="url(#__lottie_element_7261)" fill-opacity="1" d=" M73.44599914550781,9.730999946594238 C54.33700180053711,-6.239999771118164 46.56999969482422,-17.79800033569336 39.45399856567383,-28.19099998474121 C39.45399856567383,-28.19099998474121 -23.29199981689453,-30.461999893188477 -23.29199981689453,-30.461999893188477 C-30.16900062561035,-19.768999099731445 -56.47200012207031,0.14300000667572021 -74.21199798583984,9.843999862670898 C-91.71399688720703,19.415000915527344 -74.8550033569336,21.40399932861328 -61.689998626708984,12.710000038146973 C-61.03900146484375,12.281000137329102 -60.16600036621094,12.704999923706055 -60.10100173950195,13.482000350952148 C-59.49700164794922,20.738000869750977 -50.45899963378906,17.34600067138672 -39.37699890136719,3.9549999237060547 C-38.61199951171875,3.0290000438690186 -37.14500045776367,3.9630000591278076 -37.65700149536133,5.047999858856201 C-43.8380012512207,18.152000427246094 -40.189998626708984,24.64900016784668 -33.29499816894531,16.652999877929688 C-32.60200119018555,15.85099983215332 -31.295000076293945,16.50200080871582 -31.51300048828125,17.534000396728516 C-34.762001037597656,32.9640007019043 -23.256000518798828,34.35499954223633 -15.8100004196167,19.464000701904297 C-15.63599967956543,19.115999221801758 -15.279999732971191,18.89699935913086 -14.892000198364258,18.89699935913086 C-14.498000144958496,18.89699935913086 -14.140000343322754,19.121999740600586 -13.968000411987305,19.47599983215332 C-9.553000450134277,28.58300018310547 -5.01200008392334,20.027000427246094 -4.357999801635742,10.869999885559082 C-4.269000053405762,9.607000350952148 -2.378000020980835,9.605999946594238 -2.309000015258789,10.888999938964844 C-1.7630000114440918,21.132999420166016 0.7329999804496765,23.69700050354004 2.069000005722046,22.785999298095703 C3.4179999828338623,21.868000030517578 5.130000114440918,16.983999252319336 4.311999797821045,7.296000003814697 C4.209000110626221,6.085000038146973 6.0970001220703125,5.708000183105469 6.308000087738037,6.885000228881836 C8.885000228881836,21.2810001373291 12.618000030517578,22.14299964904785 13.866999626159668,16.52199935913086 C14.085000038146973,15.539999961853027 15.4399995803833,15.430000305175781 15.819999694824219,16.35700035095215 C22.715999603271484,33.215999603271484 33.58000183105469,36.62799835205078 26.333999633789062,17.395999908447266 C25.913999557495117,16.280000686645508 27.429000854492188,15.468000411987305 28.12700080871582,16.43400001525879 C36.803001403808594,28.45800018310547 41.74599838256836,29.850000381469727 43.14699935913086,28.908000946044922 C44.91400146484375,27.718000411987305 44.505001068115234,21.511999130249023 39.13800048828125,12.956000328063965 C38.507999420166016,11.949999809265137 39.819000244140625,10.859000205993652 40.694000244140625,11.647000312805176 C52.59199905395508,22.31999969482422 60.933998107910156,24.535999298095703 62.82099914550781,22.666000366210938 C63.930999755859375,21.56999969482422 63.05400085449219,18.183000564575195 58.595001220703125,13.086999893188477 C57.74800109863281,12.119999885559082 59.11199951171875,10.786999702453613 60.06100082397461,11.654000282287598 C74.98200225830078,25.30900001525879 92.33499908447266,25.51799964904785 73.44599914550781,9.730999946594238z"></path></g><g opacity="1" transform="matrix(1,0,0,1,0,0)"><g opacity="1" transform="matrix(1,0,0,1,202.19900512695312,176.8070068359375)"><path stroke-linecap="round" stroke-linejoin="round" fill-opacity="0" stroke="rgb(105,230,131)" stroke-opacity="1" stroke-width="4" d=" M0.12700000405311584,1.5219999551773071 C0.12700000405311584,1.5219999551773071 -0.12700000405311584,-1.5219999551773071 -0.12700000405311584,-1.5219999551773071"></path></g><g opacity="1" transform="matrix(1,0,0,1,223.11900329589844,175.68499755859375)"><path stroke-linecap="round" stroke-linejoin="round" fill-opacity="0" stroke="rgb(105,230,131)" stroke-opacity="1" stroke-width="4" d=" M-1.4739999771118164,4.820000171661377 C-1.3300000429153442,2.753999948501587 -0.5910000205039978,-0.44200000166893005 1.4739999771118164,-4.820000171661377"></path></g><g opacity="1" transform="matrix(1,0,0,1,232.22000122070312,182.38800048828125)"><path stroke-linecap="round" stroke-linejoin="round" fill-opacity="0" stroke="rgb(105,230,131)" stroke-opacity="1" stroke-width="4" d=" M-1.5579999685287476,7.754000186920166 C-2.3480000495910645,4.539000034332275 -1.5779999494552612,-1.875 1.8420000076293945,-7.754000186920166"></path></g><g opacity="1" transform="matrix(1,0,0,1,248.41900634765625,182.20799255371094)"><path stroke-linecap="round" stroke-linejoin="round" fill-opacity="0" stroke="rgb(105,230,131)" stroke-opacity="1" stroke-width="4" d=" M1.6369999647140503,3.9010000228881836 C0.609000027179718,3.3289999961853027 -1.4789999723434448,1.4759999513626099 -1.6369999647140503,-3.9010000228881836"></path></g><g opacity="0.5" transform="matrix(1,0,0,1,269.8710021972656,174.90699768066406)"><path stroke-linecap="round" stroke-linejoin="round" fill-opacity="0" stroke="rgb(105,230,131)" stroke-opacity="1" stroke-width="4" d=" M1.659999966621399,5.771999835968018 C0.8059999942779541,3.9089999198913574 -0.07900000363588333,0.5540000200271606 -1.659999966621399,-5.771999835968018"></path></g><g opacity="0.5" transform="matrix(1,0,0,1,282.625,187.06900024414062)"><path stroke-linecap="round" stroke-linejoin="round" fill-opacity="0" stroke="rgb(105,230,131)" stroke-opacity="1" stroke-width="4" d=" M4.514999866485596,6.427999973297119 C3.005000114440918,5.809000015258789 -0.9470000267028809,2.2929999828338623 -4.514999866485596,-6.427999973297119"></path></g><g opacity="0.5" transform="matrix(1,0,0,1,296.3999938964844,186.28700256347656)"><path stroke-linecap="round" stroke-linejoin="round" fill-opacity="0" stroke="rgb(105,230,131)" stroke-opacity="1" stroke-width="4" d=" M6.199999809265137,5.960999965667725 C4.629000186920166,5.764999866485596 0.3400000035762787,3.1040000915527344 -6.199999809265137,-5.960999965667725"></path></g><g opacity="0.5" transform="matrix(1,0,0,1,312.18701171875,180.79800415039062)"><path stroke-linecap="round" stroke-linejoin="round" fill-opacity="0" stroke="rgb(4,61,33)" stroke-opacity="1" stroke-width="4" d=" M9.692999839782715,5.506999969482422 C4.7779998779296875,6.318999767303467 -5.72599983215332,-2.005000114440918 -9.692999839782715,-5.563000202178955"></path></g><g opacity="0.5" transform="matrix(1,0,0,1,330.7409973144531,180.0229949951172)"><path stroke-linecap="round" stroke-linejoin="round" fill-opacity="0" stroke="rgb(4,61,33)" stroke-opacity="1" stroke-width="4" d=" M8.866000175476074,4.76800012588501 C5.3429999351501465,4.76800012588501 -1.7079999446868896,1.7829999923706055 -8.866000175476074,-4.76800012588501"></path></g><g opacity="1" transform="matrix(1,0,0,1,191.16900634765625,174.26300048828125)"><path stroke-linecap="round" stroke-linejoin="round" fill-opacity="0" stroke="rgb(105,230,131)" stroke-opacity="1" stroke-width="4" d=" M-9.208000183105469,5.747000217437744 C-6.619999885559082,3.3529999256134033 -1.9019999504089355,1.5989999771118164 9.208000183105469,-5.747000217437744"></path></g></g><g opacity="1" transform="matrix(1,0,0,1,257.7340087890625,155.1719970703125)"><path fill="rgb(0,61,29)" fill-opacity="0.5" d=" M44.249000549316406,6.048999786376953 C54.6510009765625,14.140000343322754 61.007999420166016,10.383999824523926 47.13800048828125,-3.197000026702881 C42.70500183105469,-7.538000106811523 37.948001861572266,-13.241000175476074 33.441001892089844,-19.702999114990234 C33.441001892089844,-19.702999114990234 -21.054000854492188,-21.676000595092773 -21.054000854492188,-21.676000595092773 C-25.41699981689453,-14.404999732971191 -39.75899887084961,-0.9760000109672546 -54.61600112915039,9.234000205993652 C-58.316001892089844,17.128999710083008 -40.566001892089844,16.73200035095215 -26.83300018310547,1.1369999647140503 C-36.94599914550781,20.20800018310547 -21.343000411987305,20.207000732421875 -14.986000061035156,9.805000305175781 C-15.26099967956543,25.4950008392334 3.1700000762939453,28.92099952697754 8.130000114440918,-1.1749999523162842 C22.288000106811523,23.38599967956543 31.246000289916992,15.585000038146973 28.06800079345703,2.2929999828338623 C43.38199996948242,22.518999099731445 47.715999603271484,12.406000137329102 44.249000549316406,6.048999786376953z"></path></g></g><g class="2" style="display: block;" transform="matrix(1.019905686378479,0.013867609202861786,-0.013867609202861786,1.019905686378479,-13.793350219726562,-19.37615966796875)" opacity="1"><g opacity="1" transform="matrix(1,0,0,1,261.0039978027344,113.80599975585938)"><path stroke-linecap="round" stroke-linejoin="round" fill-opacity="0" stroke="rgb(0,61,29)" stroke-opacity="1" stroke-width="13" d=" M47.821998596191406,24.183000564575195 C13.442999839782715,-2.052000045776367 5.139999866485596,-73.16200256347656 -1.7039999961853027,-72.84600067138672 C-8.371999740600586,-72.53800201416016 -18.996999740600586,1.5420000553131104 -50.9010009765625,28.768999099731445 C-64.20600128173828,40.124000549316406 -46.12099838256836,41.237998962402344 -30.87299919128418,23.924999237060547 C-30.075000762939453,23.016000747680664 -28.628999710083008,24.014999389648438 -29.195999145507812,25.08300018310547 C-38.68600082397461,42.981998443603516 -24.729000091552734,41.895999908447266 -19.131000518798828,32.736000061035156 C-18.604000091552734,31.875 -17.275999069213867,32.215999603271484 -17.229999542236328,33.2239990234375 C-16.416000366210938,51.15999984741211 1.6649999618530273,46.637001037597656 3.8380000591278076,22.200000762939453 C3.927999973297119,21.19700050354004 5.256999969482422,20.920000076293945 5.75,21.777999877929688 C18.687999725341797,44.22200012207031 26.934999465942383,39.11000061035156 23.798999786376953,25.996999740600586 C23.538999557495117,24.913999557495117 24.954999923706055,24.26300048828125 25.615999221801758,25.138999938964844 C39.33100128173828,43.25199890136719 43.388999938964844,36.077999114990234 40.077999114990234,30.006000518798828 C39.54800033569336,29.034000396728516 40.73099899291992,28.023000717163086 41.61000061035156,28.70400047302246 C50.22200012207031,35.402000427246094 64.19999694824219,36.680999755859375 47.821998596191406,24.183000564575195z"></path><path fill="url(#__lottie_element_7257)" fill-opacity="1" d=" M47.821998596191406,24.183000564575195 C13.442999839782715,-2.052000045776367 5.139999866485596,-73.16200256347656 -1.7039999961853027,-72.84600067138672 C-8.371999740600586,-72.53800201416016 -18.996999740600586,1.5420000553131104 -50.9010009765625,28.768999099731445 C-64.20600128173828,40.124000549316406 -46.12099838256836,41.237998962402344 -30.87299919128418,23.924999237060547 C-30.075000762939453,23.016000747680664 -28.628999710083008,24.014999389648438 -29.195999145507812,25.08300018310547 C-38.68600082397461,42.981998443603516 -24.729000091552734,41.895999908447266 -19.131000518798828,32.736000061035156 C-18.604000091552734,31.875 -17.275999069213867,32.215999603271484 -17.229999542236328,33.2239990234375 C-16.416000366210938,51.15999984741211 1.6649999618530273,46.637001037597656 3.8380000591278076,22.200000762939453 C3.927999973297119,21.19700050354004 5.256999969482422,20.920000076293945 5.75,21.777999877929688 C18.687999725341797,44.22200012207031 26.934999465942383,39.11000061035156 23.798999786376953,25.996999740600586 C23.538999557495117,24.913999557495117 24.954999923706055,24.26300048828125 25.615999221801758,25.138999938964844 C39.33100128173828,43.25199890136719 43.388999938964844,36.077999114990234 40.077999114990234,30.006000518798828 C39.54800033569336,29.034000396728516 40.73099899291992,28.023000717163086 41.61000061035156,28.70400047302246 C50.22200012207031,35.402000427246094 64.19999694824219,36.680999755859375 47.821998596191406,24.183000564575195z"></path></g><g opacity="1" transform="matrix(1,0,0,1,0,0)"><g opacity="1" transform="matrix(1,0,0,1,231.9980010986328,145.13600158691406)"><path stroke-linecap="round" stroke-linejoin="round" fill-opacity="0" stroke="rgb(105,230,131)" stroke-opacity="1" stroke-width="4" d=" M-1.1360000371932983,5.355000019073486 C-1.8849999904632568,4.111000061035156 -1.6449999809265137,0.5600000023841858 1.4919999837875366,-5.355000019073486"></path></g><g opacity="1" transform="matrix(1,0,0,1,248.17799377441406,146.7050018310547)"><path stroke-linecap="round" stroke-linejoin="round" fill-opacity="0" stroke="rgb(105,230,131)" stroke-opacity="1" stroke-width="4" d=" M2.937000036239624,9.324999809265137 C-0.16300000250339508,9.324999809265137 -3.687000036239624,2.069000005722046 -2.937000036239624,-9.324999809265137"></path></g><g opacity="0.5" transform="matrix(1,0,0,1,272.73699951171875,137.86700439453125)"><path stroke-linecap="round" stroke-linejoin="round" fill-opacity="0" stroke="rgb(105,230,131)" stroke-opacity="1" stroke-width="4" d=" M8.968999862670898,11.27400016784668 C3.2149999141693115,11.27400016784668 -5.921999931335449,-5.98799991607666 -8.968999862670898,-11.27400016784668"></path></g><g opacity="0.5" transform="matrix(1,0,0,1,294.07000732421875,143.2030029296875)"><path stroke-linecap="round" stroke-linejoin="round" fill-opacity="0" stroke="rgb(4,61,33)" stroke-opacity="1" stroke-width="4" d=" M5.932000160217285,5.4070000648498535 C5.252999782562256,5.374000072479248 1.7109999656677246,4.686999797821045 -5.932000160217285,-5.4070000648498535"></path></g><g opacity="0.5" transform="matrix(1,0,0,1,306.6199951171875,142.6699981689453)"><path stroke-linecap="round" stroke-linejoin="round" fill-opacity="0" stroke="rgb(4,61,33)" stroke-opacity="1" stroke-width="4" d=" M2.8380000591278076,1.6629999876022339 C1.559999942779541,1.2369999885559082 -0.36000001430511475,0.2639999985694885 -2.8380000591278076,-1.6629999876022339"></path></g><g opacity="1" transform="matrix(1,0,0,1,228.0590057373047,126.41100311279297)"><path stroke-linecap="round" stroke-linejoin="round" fill-opacity="0" stroke="rgb(105,230,131)" stroke-opacity="1" stroke-width="4" d=" M-17.548999786376953,18.5 C-9.065999984741211,10.593000411987305 2.0869998931884766,-3.3450000286102295 8.314000129699707,-17.58099937438965"></path></g><g opacity="0.5" transform="matrix(1,0,0,1,292.3739929199219,128.71499633789062)"><path stroke-linecap="round" stroke-linejoin="round" fill-opacity="0" stroke="rgb(105,230,131)" stroke-opacity="1" stroke-width="4" d=" M-5.639999866485596,-7.96999979019165 C-0.8600000143051147,0.2290000021457672 2.441999912261963,4.7129998207092285 6.889999866485596,7.947000026702881"></path></g><g class="2" opacity="1" transform="matrix(1,0,0,1,0.9399999976158142,-2.9539999961853027)"><path stroke-linecap="round" stroke-linejoin="round" fill-opacity="0" stroke="rgb(255,255,255)" stroke-opacity="1" stroke-width="4" d=" M242.08999633789062,88.7509994506836 C242.9759979248047,86.20999908447266 243.86700439453125,83.76499938964844 244.8489990234375,80.54499816894531"></path></g><g class="1" opacity="1" transform="matrix(1,0,0,1,0.9399999976158142,-2.9539999961853027)"><path stroke-linecap="round" stroke-linejoin="round" fill-opacity="0" stroke="rgb(255,255,255)" stroke-opacity="1" stroke-width="4" d=" M247.12399291992188,74.21600341796875 C249.03500366210938,67.8280029296875 250.947998046875,61.685001373291016 253.09100341796875,53.58000183105469"></path></g></g></g><g style="display: none;"><g><path></path></g><g><path></path></g><g><path stroke-linecap="round" stroke-linejoin="round" fill-opacity="0"></path></g><g><path stroke-linecap="round" stroke-linejoin="round" fill-opacity="0"></path></g><g><path stroke-linecap="butt" stroke-linejoin="miter" fill-opacity="0" stroke-miterlimit="4"></path></g></g></g></svg>