<svg xmlns="http://www.w3.org/2000/svg" viewBox="0 0 512 512" width="512" height="512" style="width: 100%; height: 100%; transform: translate3d(0,0,0);" preserveAspectRatio="xMidYMid meet"><defs><clipPath id="__lottie_element_7295"><rect width="512" height="512" x="0" y="0"></rect></clipPath><radialGradient id="__lottie_element_7300" spreadMethod="pad" gradientUnits="userSpaceOnUse"><stop></stop><stop></stop><stop></stop></radialGradient><linearGradient id="__lottie_element_7304" spreadMethod="pad" gradientUnits="userSpaceOnUse"><stop></stop><stop></stop><stop></stop></linearGradient><linearGradient id="__lottie_element_7308" spreadMethod="pad" gradientUnits="userSpaceOnUse" x1="-41.946998596191406" y1="604.1580200195312" x2="21.684999465942383" y2="696.68701171875"><stop offset="0%" stop-color="rgb(132,226,34)"></stop><stop offset="50%" stop-color="rgb(108,184,24)"></stop><stop offset="100%" stop-color="rgb(83,142,14)"></stop></linearGradient><linearGradient id="__lottie_element_7312" spreadMethod="pad" gradientUnits="userSpaceOnUse" x1="94" y1="238.73699951171875" x2="109.99199676513672" y2="424.468994140625"><stop offset="0%" stop-color="rgb(132,226,34)"></stop><stop offset="50%" stop-color="rgb(108,184,24)"></stop><stop offset="100%" stop-color="rgb(83,142,14)"></stop></linearGradient><linearGradient id="__lottie_element_7313" spreadMethod="pad" gradientUnits="userSpaceOnUse" x1="88" y1="424" x2="104.48699951171875" y2="352.7749938964844"><stop offset="0%" stop-color="rgb(36,91,1)"></stop><stop offset="35%" stop-color="rgb(88,144,24)"></stop><stop offset="91%" stop-color="rgb(140,196,47)"></stop></linearGradient><linearGradient id="__lottie_element_7317" spreadMethod="pad" gradientUnits="userSpaceOnUse" x1="55.051998138427734" y1="330.8380126953125" x2="-2.115999937057495" y2="487.1000061035156"><stop offset="0%" stop-color="rgb(132,226,34)"></stop><stop offset="50%" stop-color="rgb(108,184,24)"></stop><stop offset="100%" stop-color="rgb(83,142,14)"></stop></linearGradient><linearGradient id="__lottie_element_7321" spreadMethod="pad" gradientUnits="userSpaceOnUse" x1="150.48899841308594" y1="338.135986328125" x2="83.33200073242188" y2="462.2139892578125"><stop offset="0%" stop-color="rgb(132,226,34)"></stop><stop offset="50%" stop-color="rgb(108,184,24)"></stop><stop offset="100%" stop-color="rgb(83,142,14)"></stop></linearGradient><linearGradient id="__lottie_element_7325" spreadMethod="pad" gradientUnits="userSpaceOnUse" x1="-22.31599998474121" y1="379.26300048828125" x2="-88.42900085449219" y2="586.0479736328125"><stop offset="0%" stop-color="rgb(132,226,34)"></stop><stop offset="50%" stop-color="rgb(108,184,24)"></stop><stop offset="100%" stop-color="rgb(83,142,14)"></stop></linearGradient><linearGradient id="__lottie_element_7329" spreadMethod="pad" gradientUnits="userSpaceOnUse" x1="145.05299377441406" y1="520.3159790039062" x2="98.41300201416016" y2="652.364013671875"><stop offset="0%" stop-color="rgb(146,221,56)"></stop><stop offset="45%" stop-color="rgb(114,182,35)"></stop><stop offset="76%" stop-color="rgb(83,142,14)"></stop></linearGradient><linearGradient id="__lottie_element_7333" spreadMethod="pad" gradientUnits="userSpaceOnUse" x1="-128.10499572753906" y1="423.4739990234375" x2="-197.37600708007812" y2="653.9429931640625"><stop offset="0%" stop-color="rgb(146,221,56)"></stop><stop offset="45%" stop-color="rgb(114,182,35)"></stop><stop offset="76%" stop-color="rgb(83,142,14)"></stop></linearGradient><linearGradient id="__lottie_element_7337" spreadMethod="pad" gradientUnits="userSpaceOnUse" x1="172.94700622558594" y1="636.10498046875" x2="12.097000122070312" y2="772.8900146484375"><stop offset="0%" stop-color="rgb(132,226,34)"></stop><stop offset="50%" stop-color="rgb(108,184,24)"></stop><stop offset="100%" stop-color="rgb(83,142,14)"></stop></linearGradient></defs><g clip-path="url(#__lottie_element_7295)"><g style="display: block;" transform="matrix(0.949999988079071,0,0,0.949999988079071,254.500244140625,-250.19970703125)" opacity="1"><g opacity="1" transform="matrix(1,0,0,1,0,0)"><path fill="url(#__lottie_element_7337)" fill-opacity="1" d=" M-59.27899932861328,708.2230224609375 C-59.27899932861328,708.2230224609375 -27.298999786376953,669.5540161132812 27.5310001373291,659.7020263671875 C99.95800018310547,646.68798828125 156.36399841308594,684.7789916992188 185.51499938964844,708.2230224609375 C170.5,713.1669921875 134.60299682617188,740.7109985351562 114.85399627685547,752.6640014648438 C58.13800048828125,786.9910278320312 -18.124000549316406,764.823974609375 -59.27899932861328,708.2230224609375z"></path></g><g opacity="0.4" transform="matrix(1,0,0,1,0,0)"><path fill="rgb(42,104,1)" fill-opacity="1" d=" M59.65700149536133,768.906005859375 C-0.33399999141693115,754.3330078125 -15.598999977111816,723.3829956054688 -8.960000038146973,722.5830078125 C3.3480000495910645,721.0999755859375 33.17900085449219,744.1669921875 33.17900085449219,744.1669921875 C33.17900085449219,744.1669921875 -0.16699999570846558,716.125 18.51799964904785,712.9500122070312 C28.361000061035156,711.2780151367188 37.5890007019043,711.0369873046875 54.21500015258789,722.7540283203125 C54.21500015258789,722.7540283203125 41.28300094604492,712.1279907226562 36.90800094604492,702.9249877929688 C36.90800094604492,702.9249877929688 -28.14900016784668,706.7689819335938 -57.018001556396484,711.2509765625 C-57.018001556396484,711.2509765625 -12.35200023651123,773.31201171875 59.65700149536133,768.906005859375z"></path></g><g opacity="0.2" transform="matrix(1,0,0,1,0,0)"><path stroke-linecap="round" stroke-linejoin="round" fill-opacity="0" stroke="rgb(191,255,0)" stroke-opacity="1" stroke-width="3" d=" M-7.664000034332275,738.6060180664062 C-22.17300033569336,724.6370239257812 -36.78799819946289,709.3560180664062 -36.78799819946289,709.3560180664062 C-36.78799819946289,709.3560180664062 -20.791000366210938,694.1950073242188 -10.77299976348877,686.594970703125"></path></g><g opacity="0.2" transform="matrix(1,0,0,1,0,0)"><path stroke-linecap="round" stroke-linejoin="round" fill-opacity="0" stroke="rgb(191,255,0)" stroke-opacity="1" stroke-width="3" d=" M-3.8929998874664307,707.5380249023438 C-3.8929998874664307,707.5380249023438 12.565999984741211,729.1939697265625 43.65599822998047,752.3389892578125"></path></g><g opacity="0.2" transform="matrix(1,0,0,1,0,0)"><path stroke-linecap="round" stroke-linejoin="round" fill-opacity="0" stroke="rgb(191,255,0)" stroke-opacity="1" stroke-width="3" d=" M11.265999794006348,705.2080078125 C11.265999794006348,705.2080078125 26.110000610351562,689.39599609375 43.2130012512207,676.8109741210938"></path></g><g opacity="0.2" transform="matrix(1,0,0,1,0,0)"><path stroke-linecap="round" stroke-linejoin="round" fill-opacity="0" stroke="rgb(191,255,0)" stroke-opacity="1" stroke-width="3" d=" M37.59000015258789,705.4320068359375 C37.59000015258789,705.4320068359375 54.71200180053711,727.2969970703125 88.2509994506836,749.1619873046875"></path></g><g opacity="0.2" transform="matrix(1,0,0,1,0,0)"><path stroke-linecap="round" stroke-linejoin="round" fill-opacity="0" stroke="rgb(191,255,0)" stroke-opacity="1" stroke-width="3" d=" M49.6150016784668,705.2080078125 C49.6150016784668,705.2080078125 71.48400115966797,681.0999755859375 87.02999877929688,672.2030029296875"></path></g><g opacity="0.2" transform="matrix(1,0,0,1,0,0)"><path stroke-linecap="round" stroke-linejoin="round" fill-opacity="0" stroke="rgb(191,255,0)" stroke-opacity="1" stroke-width="3" d=" M83.11599731445312,706.89599609375 C83.11599731445312,706.89599609375 95.22100067138672,718.89501953125 107.31800079345703,727.7230224609375"></path></g><g opacity="0.2" transform="matrix(1,0,0,1,0,0)"><path stroke-linecap="round" stroke-linejoin="round" fill-opacity="0" stroke="rgb(210,255,0)" stroke-opacity="1" stroke-width="3" d=" M88.3550033569336,705.2080078125 C88.3550033569336,705.2080078125 103.3949966430664,692.5469970703125 114.18399810791016,686.594970703125"></path></g><g opacity="0.2" transform="matrix(1,0,0,1,0,0)"><path stroke-linecap="round" stroke-linejoin="round" fill-opacity="0" stroke="rgb(255,229,57)" stroke-opacity="1" stroke-width="3" d=" M123.30899810791016,706.89599609375 C123.30899810791016,706.89599609375 131.2969970703125,701.281005859375 136.6179962158203,698.0880126953125"></path></g><g opacity="0.45" transform="matrix(1,0,0,1,0,0)"><path fill="rgb(42,104,1)" fill-opacity="1" d=" M163.78700256347656,693.2899780273438 C138.33299255371094,682.5560302734375 108.05799865722656,690.2119750976562 77.2959976196289,684.02197265625 C53.444000244140625,679.2219848632812 18.111000061035156,663.2219848632812 1.1820000410079956,667.0469970703125 C68.77799987792969,645.4439697265625 120.53299713134766,662.7470092773438 163.78700256347656,693.2899780273438z"></path></g><g opacity="1" transform="matrix(1,0,0,1,0,0)"><path stroke-linecap="round" stroke-linejoin="round" fill-opacity="0" stroke="rgb(50,127,0)" stroke-opacity="1" stroke-width="8" d=" M-59.27899932861328,708.2230224609375 C-59.27899932861328,708.2230224609375 -27.298999786376953,669.5540161132812 27.5310001373291,659.7020263671875 C99.95800018310547,646.68798828125 156.36399841308594,684.7789916992188 185.51499938964844,708.2230224609375 C170.5,713.1669921875 134.60299682617188,740.7109985351562 114.85399627685547,752.6640014648438 C58.13800048828125,786.9910278320312 -18.124000549316406,764.823974609375 -59.27899932861328,708.2230224609375z"></path></g><g opacity="1" transform="matrix(1,0,0,1,0,0)"><path stroke-linecap="round" stroke-linejoin="round" fill-opacity="0" stroke="rgb(36,91,1)" stroke-opacity="1" stroke-width="8" d=" M185.46299743652344,708.1810302734375 C185.47999572753906,708.1950073242188 185.4980010986328,708.208984375 185.51499938964844,708.2230224609375 C170.5,713.1669921875 134.60299682617188,740.7109985351562 114.85399627685547,752.6640014648438 C58.13800048828125,786.9910278320312 -18.124000549316406,764.823974609375 -59.27899932861328,708.2230224609375"></path></g><g opacity="1" transform="matrix(1,0,0,1,0,0)"><path fill="rgb(140,196,47)" fill-opacity="1" d=" M146.1929931640625,709.9019775390625 C146.1929931640625,709.9019775390625 46.78099822998047,692.2379760742188 -71.5479965209961,706.4860229492188 C-71.5479965209961,706.4860229492188 -75.23699951171875,715.6300048828125 -75.23699951171875,715.6300048828125 C-75.23699951171875,715.6300048828125 17.30500030517578,699.8389892578125 146.1929931640625,709.9019775390625z"></path><path stroke-linecap="round" stroke-linejoin="round" fill-opacity="0" stroke="rgb(140,196,47)" stroke-opacity="1" stroke-width="2" d=" M146.1929931640625,709.9019775390625 C146.1929931640625,709.9019775390625 46.78099822998047,692.2379760742188 -71.5479965209961,706.4860229492188 C-71.5479965209961,706.4860229492188 -75.23699951171875,715.6300048828125 -75.23699951171875,715.6300048828125 C-75.23699951171875,715.6300048828125 17.30500030517578,699.8389892578125 146.1929931640625,709.9019775390625z"></path></g></g><g style="display: block;" transform="matrix(0.949999988079071,0,0,0.949999988079071,254.49964904785156,-250.19964599609375)" opacity="1"><g opacity="1" transform="matrix(1,0,0,1,0,0)"><path fill="url(#__lottie_element_7333)" fill-opacity="1" d=" M-100.01799774169922,683.5399780273438 C-100.01799774169922,683.5399780273438 -76.4489974975586,645.7479858398438 -102.10399627685547,577.7979736328125 C-127.75900268554688,509.8479919433594 -207.1790008544922,509.74700927734375 -231.07000732421875,485.7590026855469 C-231.07000732421875,485.7590026855469 -250.14999389648438,557.7570190429688 -215.8159942626953,611.3259887695312 C-177.67300415039062,670.8389892578125 -100.01799774169922,683.5399780273438 -100.01799774169922,683.5399780273438z"></path></g><g opacity="0.4" transform="matrix(1,0,0,1,0,0)"><path fill="rgb(42,104,1)" fill-opacity="1" d=" M-99.60800170898438,682.8070068359375 C-104.66600036621094,684.666015625 -187.68899536132812,660.0750122070312 -215.8179931640625,611.3270263671875 C-196.052001953125,627.3159790039062 -186.53799438476562,643.8519897460938 -150.95799255371094,647.64697265625 C-133.31500244140625,649.5289916992188 -121.94400024414062,634.8289794921875 -168.18800354003906,616.0919799804688 C-168.18800354003906,616.0919799804688 -128.56399536132812,614.02099609375 -176.0679931640625,589.4569702148438 C-176.0679931640625,589.4569702148438 -154.21099853515625,597.052001953125 -148.48599243164062,600.4580078125 C-142.1060028076172,611.5260009765625 -109.46800231933594,664.0670166015625 -99.60800170898438,682.8070068359375z"></path></g><g opacity="0.2" transform="matrix(1,0,0,1,0,0)"><path fill="rgb(168,255,77)" fill-opacity="1" d=" M-98.0459976196289,683.5289916992188 C-107.36900329589844,664.4210205078125 -134.4340057373047,620.8079833984375 -162.62399291992188,582.3280029296875 C-190.8040008544922,543.8480224609375 -226.73800659179688,499.36700439453125 -231.0679931640625,485.7569885253906 C-207.17799377441406,509.74700927734375 -130.74200439453125,511.04998779296875 -102.10800170898438,577.7969970703125 C-80.5260009765625,628.10498046875 -92.63200378417969,664.947998046875 -98.0459976196289,683.5289916992188z"></path></g><g opacity="0.3" transform="matrix(1,0,0,1,0,0)"><path fill="rgb(186,255,34)" fill-opacity="1" d=" M-90.14800262451172,639.0170288085938 C-110.5260009765625,518.89501953125 -199.2100067138672,521.5260009765625 -226.1580047607422,502.24700927734375 C-228.6840057373047,509.6839904785156 -236.21800231933594,539.291015625 -236.21800231933594,539.291015625 C-237.35800170898438,508.95098876953125 -231.0679931640625,485.7569885253906 -231.0679931640625,485.7569885253906 C-207.17799377441406,509.74700927734375 -91.5790023803711,511.5260009765625 -90.14800262451172,639.0170288085938z"></path></g><g opacity="1" transform="matrix(1,0,0,1,0,0)"><path stroke-linecap="round" stroke-linejoin="round" fill-opacity="0" stroke="rgb(50,127,0)" stroke-opacity="1" stroke-width="8" d=" M-100.01799774169922,683.5399780273438 C-100.01799774169922,683.5399780273438 -76.4489974975586,645.7479858398438 -102.10399627685547,577.7979736328125 C-127.75900268554688,509.8479919433594 -207.1790008544922,509.74700927734375 -231.07000732421875,485.7590026855469 C-231.07000732421875,485.7590026855469 -250.14999389648438,557.7570190429688 -215.8159942626953,611.3259887695312 C-177.67300415039062,670.8389892578125 -100.01799774169922,683.5399780273438 -100.01799774169922,683.5399780273438z"></path></g><g opacity="1" transform="matrix(1,0,0,1,0,0)"><path stroke-linecap="round" stroke-linejoin="round" fill-opacity="0" stroke="rgb(36,91,1)" stroke-opacity="1" stroke-width="8" d=" M-100.01799774169922,683.5399780273438 C-100.01799774169922,683.5399780273438 -86.0999984741211,661.2230224609375 -91.2969970703125,620.0540161132812"></path></g><g opacity="1" transform="matrix(1,0,0,1,0,0)"><path stroke-linecap="round" stroke-linejoin="round" fill-opacity="0" stroke="rgb(30,78,0)" stroke-opacity="1" stroke-width="8" d=" M-231.07000732421875,485.7590026855469 C-231.07000732421875,485.7590026855469 -250.14999389648438,557.7570190429688 -215.8159942626953,611.3259887695312 C-177.67300415039062,670.8389892578125 -100.01799774169922,683.5399780273438 -100.01799774169922,683.5399780273438"></path></g><g opacity="0.2" transform="matrix(1,0,0,1,0,0)"><path stroke-linecap="round" stroke-linejoin="round" fill-opacity="0" stroke="rgb(191,255,0)" stroke-opacity="1" stroke-width="3" d=" M-106.35800170898438,633.2579956054688 C-106.35800170898438,633.2579956054688 -108.61799621582031,649.7639770507812 -105.35800170898438,666.27001953125"></path></g><g opacity="0.2" transform="matrix(1,0,0,1,0,0)"><path stroke-linecap="round" stroke-linejoin="round" fill-opacity="0" stroke="rgb(191,255,0)" stroke-opacity="1" stroke-width="3" d=" M-143.27499389648438,654.68798828125 C-143.27499389648438,654.68798828125 -123.1729965209961,658.718017578125 -113.85399627685547,662.7470092773438"></path></g><g opacity="0.2" transform="matrix(1,0,0,1,0,0)"><path stroke-linecap="round" stroke-linejoin="round" fill-opacity="0" stroke="rgb(191,255,0)" stroke-opacity="1" stroke-width="3" d=" M-121.94300079345703,581.322021484375 C-121.94300079345703,581.322021484375 -124.70899963378906,614.02099609375 -121.94300079345703,639.06201171875"></path></g><g opacity="0.2" transform="matrix(1,0,0,1,0,0)"><path stroke-linecap="round" stroke-linejoin="round" fill-opacity="0" stroke="rgb(191,255,0)" stroke-opacity="1" stroke-width="3" d=" M-191.0330047607422,614.02099609375 C-191.0330047607422,614.02099609375 -153.8820037841797,617.7050170898438 -132.4340057373047,626.72900390625"></path></g><g opacity="0.2" transform="matrix(1,0,0,1,0,0)"><path stroke-linecap="round" stroke-linejoin="round" fill-opacity="0" stroke="rgb(210,255,0)" stroke-opacity="1" stroke-width="3" d=" M-148.1230010986328,544.4089965820312 C-148.1230010986328,544.4089965820312 -153.30799865722656,576.9429931640625 -149.6439971923828,597.5889892578125"></path></g><g opacity="0.2" transform="matrix(1,0,0,1,0,0)"><path stroke-linecap="round" stroke-linejoin="round" fill-opacity="0" stroke="rgb(210,255,0)" stroke-opacity="1" stroke-width="3" d=" M-211.17300415039062,581.322021484375 C-211.17300415039062,581.322021484375 -168.18800354003906,589.4559936523438 -153.8820037841797,597.5889892578125"></path></g><g opacity="0.2" transform="matrix(1,0,0,1,0,0)"><path stroke-linecap="round" stroke-linejoin="round" fill-opacity="0" stroke="rgb(210,255,0)" stroke-opacity="1" stroke-width="3" d=" M-182.52699279785156,526.2949829101562 C-182.52699279785156,526.2949829101562 -182.52699279785156,547.4000244140625 -178.4029998779297,558.573974609375"></path></g><g opacity="0.2" transform="matrix(1,0,0,1,0,0)"><path stroke-linecap="round" stroke-linejoin="round" fill-opacity="0" stroke="rgb(210,255,0)" stroke-opacity="1" stroke-width="3" d=" M-178.4029998779297,562.6170043945312 C-178.4029998779297,562.6170043945312 -191.03399658203125,555.0089721679688 -218.99200439453125,547.4000244140625"></path></g><g opacity="0.2" transform="matrix(1,0,0,1,0,0)"><path stroke-linecap="round" stroke-linejoin="round" fill-opacity="0" stroke="rgb(210,255,0)" stroke-opacity="1" stroke-width="3" d=" M-218.99200439453125,522.7410278320312 C-218.99200439453125,522.7410278320312 -211.95199584960938,523.8660278320312 -204.91099548339844,527.72900390625"></path></g><g opacity="1" transform="matrix(1,0,0,1,0,0)"><path fill="rgb(140,196,47)" fill-opacity="1" d=" M-92.64700317382812,707.5380249023438 C-92.64700317382812,707.5380249023438 -115.21499633789062,639.4039916992188 -218.99200439453125,509.4809875488281 C-218.99200439453125,509.4809875488281 -144.63800048828125,590.4409790039062 -87.62300109863281,698.0390014648438 C-87.62300109863281,698.0390014648438 -92.64700317382812,707.5380249023438 -92.64700317382812,707.5380249023438z"></path><path stroke-linecap="round" stroke-linejoin="round" fill-opacity="0" stroke="rgb(140,196,47)" stroke-opacity="1" stroke-width="2" d=" M-92.64700317382812,707.5380249023438 C-92.64700317382812,707.5380249023438 -115.21499633789062,639.4039916992188 -218.99200439453125,509.4809875488281 C-218.99200439453125,509.4809875488281 -144.63800048828125,590.4409790039062 -87.62300109863281,698.0390014648438 C-87.62300109863281,698.0390014648438 -92.64700317382812,707.5380249023438 -92.64700317382812,707.5380249023438z"></path></g></g><g style="display: block;" transform="matrix(0.949999988079071,0,0,0.949999988079071,254.49993896484375,-250.20001220703125)" opacity="1"><g opacity="1" transform="matrix(1,0,0,1,0,0)"><path fill="url(#__lottie_element_7329)" fill-opacity="1" d=" M16.06100082397461,609.3259887695312 C16.06100082397461,609.3259887695312 49.652000427246094,545.947998046875 102.84100341796875,545.9459838867188 C152.15499877929688,545.9439697265625 173.29400634765625,572.2479858398438 174.50100708007812,577.635009765625 C175.70799255371094,583.02197265625 168.93099975585938,627.1610107421875 120.7979965209961,633.7069702148438 C63.11800003051758,641.551025390625 16.06100082397461,609.3259887695312 16.06100082397461,609.3259887695312z"></path></g><g opacity="0.4" transform="matrix(1,0,0,1,0,0)"><path fill="rgb(42,104,1)" fill-opacity="1" d=" M82.44200134277344,633.5469970703125 C43.63199996948242,628.2069702148438 16.062000274658203,609.3270263671875 16.062000274658203,609.3270263671875 C16.062000274658203,609.3270263671875 69.552001953125,597.7570190429688 82.9520034790039,593.0670166015625 C30.461999893188477,613.3469848632812 67.01200103759766,628.0170288085938 82.44200134277344,633.5469970703125z"></path></g><g opacity="0.15" transform="matrix(1,0,0,1,0,0)"><path fill="rgb(191,255,0)" fill-opacity="1" d=" M174.61199951171875,579.9169921875 C146.1929931640625,562.3870239257812 123.30899810791016,572.5120239257812 90.21800231933594,578.8319702148438 C67.51100158691406,583.1680297851562 43.65700149536133,577.635009765625 25.764999389648438,594.22900390625 C33.15800094604492,583.3690185546875 59.4739990234375,544.947021484375 102.84200286865234,545.947021484375 C152.13900756835938,547.0830078125 172.16700744628906,573.25 174.61199951171875,579.9169921875z"></path></g><g opacity="0.2" transform="matrix(1,0,0,1,0,0)"><path stroke-linecap="round" stroke-linejoin="round" fill-opacity="0" stroke="rgb(191,255,0)" stroke-opacity="1" stroke-width="3" d=" M37.59000015258789,606.2860107421875 C37.59000015258789,606.2860107421875 51.92499923706055,608.5029907226562 71.49400329589844,620.375"></path></g><g opacity="0.2" transform="matrix(1,0,0,1,0,0)"><path stroke-linecap="round" stroke-linejoin="round" fill-opacity="0" stroke="rgb(191,255,0)" stroke-opacity="1" stroke-width="3" d=" M43.2130012512207,602.1859741210938 C43.2130012512207,602.1859741210938 55.882999420166016,590.4420166015625 66.21199798583984,573.989013671875"></path></g><g opacity="0.2" transform="matrix(1,0,0,1,0,0)"><path stroke-linecap="round" stroke-linejoin="round" fill-opacity="0" stroke="rgb(191,255,0)" stroke-opacity="1" stroke-width="3" d=" M66.21199798583984,600.9609985351562 C66.21199798583984,600.9609985351562 82.18900299072266,605.4959716796875 110.6729965209961,623.2059936523438"></path></g><g opacity="0.2" transform="matrix(1,0,0,1,0,0)"><path stroke-linecap="round" stroke-linejoin="round" fill-opacity="0" stroke="rgb(191,255,0)" stroke-opacity="1" stroke-width="3" d=" M78.26200103759766,594.7219848632812 C78.26200103759766,594.7219848632812 90.90899658203125,579.5640258789062 99.4520034790039,558.7750244140625"></path></g><g opacity="0.2" transform="matrix(1,0,0,1,0,0)"><path stroke-linecap="round" stroke-linejoin="round" fill-opacity="0" stroke="rgb(191,255,0)" stroke-opacity="1" stroke-width="3" d=" M97.1510009765625,588.0880126953125 C97.1510009765625,588.0880126953125 114.18399810791016,592.3040161132812 143.91600036621094,613.3309936523438"></path></g><g opacity="0.2" transform="matrix(1,0,0,1,0,0)"><path stroke-linecap="round" stroke-linejoin="round" fill-opacity="0" stroke="rgb(191,255,0)" stroke-opacity="1" stroke-width="3" d=" M104.61599731445312,586.25 C104.61599731445312,586.25 115.4800033569336,575.9119873046875 123.30899810791016,558.7750244140625"></path></g><g opacity="0.2" transform="matrix(1,0,0,1,0,0)"><path stroke-linecap="round" stroke-linejoin="round" fill-opacity="0" stroke="rgb(191,255,0)" stroke-opacity="1" stroke-width="3" d=" M133.2050018310547,582.1690063476562 C133.2050018310547,582.1690063476562 139.84100341796875,583.906982421875 152.43899536132812,590.4420166015625"></path></g><g opacity="0.2" transform="matrix(1,0,0,1,0,0)"><path stroke-linecap="round" stroke-linejoin="round" fill-opacity="0" stroke="rgb(255,229,57)" stroke-opacity="1" stroke-width="3" d=" M129.92799377441406,580.6160278320312 C129.92799377441406,580.6160278320312 136.697998046875,576.0079956054688 139.84100341796875,571.2080078125"></path></g><g opacity="0.3" transform="matrix(1,0,0,1,0,0)"><path fill="rgb(186,255,34)" fill-opacity="1" d=" M140.81199645996094,628.0170288085938 C168.2519989013672,613.656982421875 166.06199645996094,580.8270263671875 166.06199645996094,580.8270263671875 C124.72899627685547,534.27001953125 67.677001953125,558.573974609375 59.672000885009766,560.2869873046875 C127.16699981689453,522 173.29200744628906,572.2470092773438 174.5019989013672,577.6370239257812 C175.52200317382812,582.156982421875 170.89199829101562,614.0570068359375 140.81199645996094,628.0170288085938z"></path></g><g opacity="1" transform="matrix(1,0,0,1,0,0)"><path stroke-linecap="round" stroke-linejoin="round" fill-opacity="0" stroke="rgb(50,127,0)" stroke-opacity="1" stroke-width="8" d=" M16.06100082397461,609.3259887695312 C16.06100082397461,609.3259887695312 49.652000427246094,545.947998046875 102.84100341796875,545.9459838867188 C152.15499877929688,545.9439697265625 173.29400634765625,572.2479858398438 174.50100708007812,577.635009765625 C175.70799255371094,583.02197265625 168.93099975585938,627.1610107421875 120.7979965209961,633.7069702148438 C63.11800003051758,641.551025390625 16.06100082397461,609.3259887695312 16.06100082397461,609.3259887695312z"></path></g><g opacity="1" transform="matrix(1,0,0,1,0,0)"><path stroke-linecap="round" stroke-linejoin="round" fill-opacity="0" stroke="rgb(36,91,1)" stroke-opacity="1" stroke-width="8" d=" M174.50100708007812,577.635009765625 C175.70799255371094,583.02197265625 168.93099975585938,627.1610107421875 120.7979965209961,633.7069702148438 C63.11800003051758,641.551025390625 16.06100082397461,609.3259887695312 16.06100082397461,609.3259887695312"></path></g><g opacity="1" transform="matrix(1,0,0,1,0,0)"><path fill="rgb(140,196,47)" fill-opacity="1" d=" M-9.414999961853027,607.3170166015625 C-9.414999961853027,607.3170166015625 24,610.0960083007812 63.11800003051758,596.39599609375 C95.64900207519531,585.0020141601562 129.51300048828125,575.844970703125 159.27200317382812,579.7449951171875 C159.27200317382812,579.7449951171875 124.69999694824219,578.9970092773438 72.92900085449219,598.5239868164062 C21.461999893188477,617.9359741210938 -11.031000137329102,613.4089965820312 -11.031000137329102,613.4089965820312 C-11.031000137329102,613.4089965820312 -9.414999961853027,607.3170166015625 -9.414999961853027,607.3170166015625z"></path><path stroke-linecap="round" stroke-linejoin="round" fill-opacity="0" stroke="rgb(140,196,47)" stroke-opacity="1" stroke-width="2" d=" M-9.414999961853027,607.3170166015625 C-9.414999961853027,607.3170166015625 24,610.0960083007812 63.11800003051758,596.39599609375 C95.64900207519531,585.0020141601562 129.51300048828125,575.844970703125 159.27200317382812,579.7449951171875 C159.27200317382812,579.7449951171875 124.69999694824219,578.9970092773438 72.92900085449219,598.5239868164062 C21.461999893188477,617.9359741210938 -11.031000137329102,613.4089965820312 -11.031000137329102,613.4089965820312 C-11.031000137329102,613.4089965820312 -9.414999961853027,607.3170166015625 -9.414999961853027,607.3170166015625z"></path></g><g opacity="1" transform="matrix(1,0,0,1,0,0)"><path stroke-linecap="round" stroke-linejoin="round" fill-opacity="0" stroke="rgb(255,255,255)" stroke-opacity="1" stroke-width="6" d=" M121.52400207519531,557.9400024414062 C122.36799621582031,558.135009765625 123.22799682617188,558.3499755859375 124.0999984741211,558.5859985351562"></path></g><g opacity="1" transform="matrix(1,0,0,1,0,0)"><path stroke-linecap="round" stroke-linejoin="round" fill-opacity="0" stroke="rgb(255,255,255)" stroke-opacity="1" stroke-width="6" d=" M99.4520034790039,556.4879760742188 C99.4520034790039,556.4879760742188 103.46900177001953,555.8469848632812 109.82599639892578,556.2360229492188"></path></g></g><g style="display: block;" transform="matrix(0.949999988079071,0,0,0.949999988079071,254.49964904785156,-250.1993408203125)" opacity="1"><g opacity="1" transform="matrix(1,0,0,1,0,0)"><path fill="url(#__lottie_element_7325)" fill-opacity="1" d=" M-99.21299743652344,401.2590026855469 C-99.21299743652344,401.2590026855469 -84.95800018310547,416.0880126953125 -55.5,438.0820007324219 C-12.576000213623047,470.1310119628906 3.9089999198913574,522.9619750976562 -26.882999420166016,586.25 C-26.882999420166016,586.25 -83.03700256347656,566.4349975585938 -104.59700012207031,503.8370056152344 C-122.80000305175781,450.98699951171875 -99.21299743652344,401.2590026855469 -99.21299743652344,401.2590026855469z"></path></g><g opacity="0.2" transform="matrix(1,0,0,1,0,0)"><path fill="rgb(168,255,77)" fill-opacity="1" d=" M-26.878000259399414,586.2470092773438 C-26.878000259399414,586.2470092773438 -37.417999267578125,541.27001953125 -57.018001556396484,494.80999755859375 C-81.52799987792969,436.7200012207031 -90.68800354003906,438.0570068359375 -98.0479965209961,402.43701171875 C-61.84199905395508,439.9469909667969 25,469.6839904785156 -26.878000259399414,586.2470092773438z"></path></g><g opacity="0.2" transform="matrix(1,0,0,1,0,0)"><path stroke-linecap="round" stroke-linejoin="round" fill-opacity="0" stroke="rgb(192,255,0)" stroke-opacity="1" stroke-width="3" d=" M-22.83099937438965,539.8170166015625 C-22.83099937438965,539.8170166015625 -26.222000122070312,556.7750244140625 -29.61400032043457,570.5599975585938"></path></g><g opacity="0.2" transform="matrix(1,0,0,1,0,0)"><path stroke-linecap="round" stroke-linejoin="round" fill-opacity="0" stroke="rgb(192,255,0)" stroke-opacity="1" stroke-width="3" d=" M-62.7239990234375,550.844970703125 C-62.7239990234375,550.844970703125 -47.09299850463867,562.3880004882812 -31.46299934387207,566.3889770507812"></path></g><g opacity="0.2" transform="matrix(1,0,0,1,0,0)"><path stroke-linecap="round" stroke-linejoin="round" fill-opacity="0" stroke="rgb(192,255,0)" stroke-opacity="1" stroke-width="3" d=" M-28.71500015258789,497.37200927734375 C-28.71500015258789,497.37200927734375 -27.55699920654297,514.3150024414062 -36.78799819946289,544.4089965820312"></path></g><g opacity="0.2" transform="matrix(1,0,0,1,0,0)"><path stroke-linecap="round" stroke-linejoin="round" fill-opacity="0" stroke="rgb(192,255,0)" stroke-opacity="1" stroke-width="3" d=" M-87.62300109863281,520.8909912109375 C-87.62300109863281,520.8909912109375 -65.55699920654297,533.1119995117188 -43.492000579833984,538.656005859375"></path></g><g opacity="0.2" transform="matrix(1,0,0,1,0,0)"><path stroke-linecap="round" stroke-linejoin="round" fill-opacity="0" stroke="rgb(192,255,0)" stroke-opacity="1" stroke-width="3" d=" M-44.492000579833984,466.1510009765625 C-44.492000579833984,466.1510009765625 -47.09400177001953,483.14300537109375 -51.54100036621094,505.1409912109375"></path></g><g opacity="0.2" transform="matrix(1,0,0,1,0,0)"><path stroke-linecap="round" stroke-linejoin="round" fill-opacity="0" stroke="rgb(192,255,0)" stroke-opacity="1" stroke-width="3" d=" M-102.18399810791016,485.64599609375 C-102.18399810791016,485.64599609375 -76.8010025024414,502.5119934082031 -53.58399963378906,509.4809875488281"></path></g><g opacity="0.2" transform="matrix(1,0,0,1,0,0)"><path stroke-linecap="round" stroke-linejoin="round" fill-opacity="0" stroke="rgb(255,228,0)" stroke-opacity="1" stroke-width="3" d=" M-61.262001037597656,449.72601318359375 C-61.262001037597656,449.72601318359375 -59.94499969482422,463.0419921875 -59.94499969482422,486.96099853515625"></path></g><g opacity="0.2" transform="matrix(1,0,0,1,0,0)"><path stroke-linecap="round" stroke-linejoin="round" fill-opacity="0" stroke="rgb(245,255,0)" stroke-opacity="1" stroke-width="3" d=" M-100.01799774169922,460.8479919433594 C-100.01799774169922,460.8479919433594 -85.53500366210938,470.1080017089844 -65.55799865722656,479.36700439453125"></path></g><g opacity="0.2" transform="matrix(1,0,0,1,0,0)"><path stroke-linecap="round" stroke-linejoin="round" fill-opacity="0" stroke="rgb(255,246,0)" stroke-opacity="1" stroke-width="3" d=" M-90.13500213623047,444.9599914550781 C-90.13500213623047,444.9599914550781 -76.8010025024414,454.3280029296875 -76.8010025024414,454.3280029296875"></path></g><g opacity="0.3" transform="matrix(1,0,0,1,0,0)"><path fill="rgb(186,255,34)" fill-opacity="1" d=" M-12.670000076293945,524.5640258789062 C-23.158000946044922,449.9469909667969 -78.15799713134766,442.3160095214844 -96.4749984741211,416.5559997558594 C-99.21099853515625,422.8420104980469 -104.73600006103516,435.21099853515625 -110.65699768066406,454.4630126953125 C-111.5790023803711,433.8949890136719 -102.63099670410156,407.8420104980469 -99.21800231933594,401.2569885253906 C-81.052001953125,429.6839904785156 -1.8420000076293945,453.1050109863281 -12.670000076293945,524.5640258789062z"></path></g><g opacity="0.45" transform="matrix(1,0,0,1,0,0)"><path fill="rgb(42,104,1)" fill-opacity="1" d=" M-12.887999534606934,544.4169921875 C-12.887999534606934,544.4169921875 -32.595001220703125,493.20599365234375 -39.78799819946289,481.7539978027344 C-51.54100036621094,463.0419921875 -51.54100036621094,443.2760009765625 -51.54100036621094,443.2760009765625 C-19.56599998474121,471.1520080566406 -5.263000011444092,496.5260009765625 -12.887999534606934,544.4169921875z"></path></g><g opacity="1" transform="matrix(1,0,0,1,0,0)"><path stroke-linecap="round" stroke-linejoin="round" fill-opacity="0" stroke="rgb(50,127,0)" stroke-opacity="1" stroke-width="8" d=" M-99.21299743652344,401.2590026855469 C-99.21299743652344,401.2590026855469 -84.95800018310547,416.0880126953125 -55.5,438.0820007324219 C-12.576000213623047,470.1310119628906 3.9089999198913574,522.9619750976562 -26.882999420166016,586.25 C-26.882999420166016,586.25 -83.03700256347656,566.4349975585938 -104.59700012207031,503.8370056152344 C-122.80000305175781,450.98699951171875 -99.21299743652344,401.2590026855469 -99.21299743652344,401.2590026855469z"></path></g><g opacity="1" transform="matrix(1,0,0,1,0,0)"><path stroke-linecap="round" stroke-linejoin="round" fill-opacity="0" stroke="rgb(36,91,1)" stroke-opacity="1" stroke-width="8" d=" M-48.15299987792969,443.9949951171875 C-10.788999557495117,476.4280090332031 2.0850000381469727,526.7119750976562 -26.882999420166016,586.25 C-26.882999420166016,586.25 -83.03700256347656,566.4349975585938 -104.59700012207031,503.8370056152344 C-122.80000305175781,450.98699951171875 -99.21299743652344,401.2590026855469 -99.21299743652344,401.2590026855469"></path></g><g opacity="1" transform="matrix(1,0,0,1,0,0)"><path fill="rgb(140,196,47)" fill-opacity="1" d=" M-19.797000885009766,601.4550170898438 C-19.797000885009766,601.4550170898438 -41.645999908447266,509.4809875488281 -83.28500366210938,441.25799560546875 C-83.28500366210938,441.25799560546875 -42.38999938964844,518.094970703125 -25.687999725341797,608.510009765625 C-25.687999725341797,608.510009765625 -19.797000885009766,601.4550170898438 -19.797000885009766,601.4550170898438z"></path><path stroke-linecap="round" stroke-linejoin="round" fill-opacity="0" stroke="rgb(140,196,47)" stroke-opacity="1" stroke-width="2" d=" M-19.797000885009766,601.4550170898438 C-19.797000885009766,601.4550170898438 -41.645999908447266,509.4809875488281 -83.28500366210938,441.25799560546875 C-83.28500366210938,441.25799560546875 -42.38999938964844,518.094970703125 -25.687999725341797,608.510009765625 C-25.687999725341797,608.510009765625 -19.797000885009766,601.4550170898438 -19.797000885009766,601.4550170898438z"></path></g></g><g style="display: block;" transform="matrix(0.949999988079071,0,0,0.949999988079071,254.50009155273438,-250.19940185546875)" opacity="1"><g opacity="1" transform="matrix(1,0,0,1,0,0)"><path fill="url(#__lottie_element_7321)" fill-opacity="1" d=" M223.55099487304688,413.4750061035156 C223.55099487304688,413.4750061035156 177.4969940185547,408.0840148925781 147.8679962158203,418.43499755859375 C124.35700225830078,426.64898681640625 92.62799835205078,448.85101318359375 82.18900299072266,493.1449890136719 C82.18900299072266,493.1449890136719 141.35899353027344,516.1840209960938 174.62600708007812,493.7539978027344 C207.89300537109375,471.3240051269531 210.06700134277344,433.0480041503906 223.55099487304688,413.4750061035156z"></path></g><g opacity="0.2" transform="matrix(1,0,0,1,0,0)"><path fill="rgb(168,255,77)" fill-opacity="1" d=" M174.6219940185547,493.7569885253906 C140.7899932861328,516.2630004882812 92.27899932861328,496.87298583984375 82.19200134277344,493.1470031738281 C97.36900329589844,487.0530090332031 125.2249984741211,475.8810119628906 146.6750030517578,462.5409851074219 C177.9550018310547,443.08099365234375 213.25900268554688,419.76800537109375 220.1820068359375,413.1470031738281 C216.57899475097656,424.6839904785156 208.02999877929688,471.5329895019531 174.6219940185547,493.7569885253906z"></path></g><g opacity="0.5" transform="matrix(1,0,0,1,0,0)"><path fill="rgb(42,104,1)" fill-opacity="1" d=" M87.7020034790039,475.9169921875 C100.19200134277344,445.62701416015625 128.42100524902344,425.8680114746094 142.81199645996094,420.36700439453125 C138.1580047607422,436 92.62200164794922,476.84698486328125 87.7020034790039,475.9169921875z"></path></g><g opacity="0.2" transform="matrix(1,0,0,1,0,0)"><path stroke-linecap="round" stroke-linejoin="round" fill-opacity="0" stroke="rgb(192,255,0)" stroke-opacity="1" stroke-width="3" d=" M104.18599700927734,465.6159973144531 C104.18599700927734,465.6159973144531 99.45099639892578,473.80499267578125 97.072998046875,485.9010009765625"></path></g><g opacity="0.2" transform="matrix(1,0,0,1,0,0)"><path stroke-linecap="round" stroke-linejoin="round" fill-opacity="0" stroke="rgb(192,255,0)" stroke-opacity="1" stroke-width="3" d=" M104.18599700927734,485.9010009765625 C104.18599700927734,485.9010009765625 115.26100158691406,485.9010009765625 139.84100341796875,493.1449890136719"></path></g><g opacity="0.2" transform="matrix(1,0,0,1,0,0)"><path stroke-linecap="round" stroke-linejoin="round" fill-opacity="0" stroke="rgb(192,255,0)" stroke-opacity="1" stroke-width="3" d=" M113.96299743652344,477.6780090332031 C113.96299743652344,477.6780090332031 118.98899841308594,461.3190002441406 128.5760040283203,444.9599914550781"></path></g><g opacity="0.2" transform="matrix(1,0,0,1,0,0)"><path stroke-linecap="round" stroke-linejoin="round" fill-opacity="0" stroke="rgb(192,255,0)" stroke-opacity="1" stroke-width="3" d=" M133.66799926757812,470.3599853515625 C133.66799926757812,470.3599853515625 149.78799438476562,468.5830078125 177.0959930419922,473.4570007324219"></path></g><g opacity="0.2" transform="matrix(1,0,0,1,0,0)"><path stroke-linecap="round" stroke-linejoin="round" fill-opacity="0" stroke="rgb(239,255,0)" stroke-opacity="1" stroke-width="3" d=" M140.66600036621094,463.06201171875 C140.66600036621094,463.06201171875 143.64100646972656,447.0509948730469 155.3820037841797,431.0400085449219"></path></g><g opacity="0.2" transform="matrix(1,0,0,1,0,0)"><path stroke-linecap="round" stroke-linejoin="round" fill-opacity="0" stroke="rgb(255,246,18)" stroke-opacity="1" stroke-width="3" d=" M166.16200256347656,451.322998046875 C166.16200256347656,451.322998046875 177.0959930419922,449.72601318359375 191.49000549316406,451.322998046875"></path></g><g opacity="0.2" transform="matrix(1,0,0,1,0,0)"><path stroke-linecap="round" stroke-linejoin="round" fill-opacity="0" stroke="rgb(255,241,28)" stroke-opacity="1" stroke-width="3" d=" M174.02099609375,443.7659912109375 C174.02099609375,443.7659912109375 177.09500122070312,434.96099853515625 181.9340057373047,428.39599609375"></path></g><g opacity="0.3" transform="matrix(1,0,0,1,0,0)"><path fill="rgb(186,255,34)" fill-opacity="1" d=" M204.1219940185547,457.8169860839844 C206.57899475097656,438.1050109863281 210.44200134277344,422.34698486328125 210.44200134277344,422.34698486328125 C160.26300048828125,417.3160095214844 130.52699279785156,431 99.4520034790039,454.7669982910156 C146.8419952392578,393.8949890136719 221.97300720214844,414.2669982910156 221.97300720214844,414.2669982910156 C214.43299865722656,425.2170104980469 211.57899475097656,437.5790100097656 204.1219940185547,457.8169860839844z"></path></g><g opacity="1" transform="matrix(1,0,0,1,0,0)"><path stroke-linecap="round" stroke-linejoin="round" fill-opacity="0" stroke="rgb(50,127,0)" stroke-opacity="1" stroke-width="8" d=" M223.55099487304688,413.4750061035156 C223.55099487304688,413.4750061035156 177.4969940185547,408.0840148925781 147.8679962158203,418.43499755859375 C124.35700225830078,426.64898681640625 92.62799835205078,448.85101318359375 82.18900299072266,493.1449890136719 C82.18900299072266,493.1449890136719 141.35899353027344,516.1840209960938 174.62600708007812,493.7539978027344 C207.89300537109375,471.3240051269531 210.06700134277344,433.0480041503906 223.55099487304688,413.4750061035156z"></path></g><g opacity="1" transform="matrix(1,0,0,1,0,0)"><path stroke-linecap="round" stroke-linejoin="round" fill-opacity="0" stroke="rgb(36,91,1)" stroke-opacity="1" stroke-width="8" d=" M139.5019989013672,421.8240051269531 C117.36199951171875,432.0299987792969 91.43099975585938,453.9289855957031 82.18900299072266,493.1449890136719 C82.18900299072266,493.1449890136719 141.35899353027344,516.1840209960938 174.62600708007812,493.7539978027344 C207.89300537109375,471.3240051269531 210.06700134277344,433.0480041503906 223.55099487304688,413.4750061035156"></path></g><g opacity="1" transform="matrix(1,0,0,1,0,0)"><path fill="rgb(140,196,47)" fill-opacity="1" d=" M196.21299743652344,429.6610107421875 C196.21299743652344,429.6610107421875 152.8699951171875,467.1510009765625 63.882999420166016,504.6400146484375 C63.882999420166016,504.6400146484375 65.09600067138672,496.5950012207031 65.09600067138672,496.5950012207031 C65.09600067138672,496.5950012207031 115.48200225830078,482.7539978027344 196.21299743652344,429.6610107421875z"></path><path stroke-linecap="round" stroke-linejoin="round" fill-opacity="0" stroke="rgb(140,196,47)" stroke-opacity="1" stroke-width="2" d=" M196.21299743652344,429.6610107421875 C196.21299743652344,429.6610107421875 152.8699951171875,467.1510009765625 63.882999420166016,504.6400146484375 C63.882999420166016,504.6400146484375 65.09600067138672,496.5950012207031 65.09600067138672,496.5950012207031 C65.09600067138672,496.5950012207031 115.48200225830078,482.7539978027344 196.21299743652344,429.6610107421875z"></path></g></g><g style="display: block;" transform="matrix(0.949999988079071,0,0,0.949999988079071,254.49984741210938,-250.2001953125)" opacity="1"><g opacity="1" transform="matrix(1,0,0,1,0,0)"><path fill="url(#__lottie_element_7317)" fill-opacity="1" d=" M-26.875,351.8789978027344 C-26.875,351.8789978027344 18.788000106811523,372.7770080566406 39.37900161743164,409.5 C56.02799987792969,439.1919860839844 49.792999267578125,472.4670104980469 42.36399841308594,493.1449890136719 C42.36399841308594,493.1449890136719 -2.069999933242798,486.031005859375 -20.833999633789062,442.9580078125 C-36.625999450683594,406.7090148925781 -23.156999588012695,381.1549987792969 -26.875,351.8789978027344z"></path></g><g opacity="0.2" transform="matrix(1,0,0,1,0,0)"><path fill="rgb(168,255,77)" fill-opacity="1" d=" M42.36199951171875,493.6730041503906 C31.57900047302246,455.7359924316406 -11.842000007629395,366.78900146484375 -26.614999771118164,352.1400146484375 C-17.104999542236328,356 18.79199981689453,373.0400085449219 39.38199996948242,409.760009765625 C56.03200149536133,439.4599914550781 49.4739990234375,475.4729919433594 42.36199951171875,493.6730041503906z"></path></g><g opacity="0.2" transform="matrix(1,0,0,1,0,0)"><path stroke-linecap="round" stroke-linejoin="round" fill-opacity="0" stroke="rgb(192,255,0)" stroke-opacity="1" stroke-width="3" d=" M39.2239990234375,449.72601318359375 C39.2239990234375,449.72601318359375 37.49800109863281,462.96600341796875 34.39099884033203,475.04901123046875"></path></g><g opacity="0.2" transform="matrix(1,0,0,1,0,0)"><path stroke-linecap="round" stroke-linejoin="round" fill-opacity="0" stroke="rgb(192,255,0)" stroke-opacity="1" stroke-width="3" d=" M-5.946000099182129,444.9599914550781 C-5.946000099182129,444.9599914550781 15.11400032043457,459.8680114746094 29.374000549316406,463.0419921875"></path></g><g opacity="0.2" transform="matrix(1,0,0,1,0,0)"><path stroke-linecap="round" stroke-linejoin="round" fill-opacity="0" stroke="rgb(192,255,0)" stroke-opacity="1" stroke-width="3" d=" M25.31599998474121,413.4750061035156 C25.31599998474121,413.4750061035156 26.6560001373291,428.7460021972656 24.704999923706055,444.9599914550781"></path></g><g opacity="0.2" transform="matrix(1,0,0,1,0,0)"><path stroke-linecap="round" stroke-linejoin="round" fill-opacity="0" stroke="rgb(192,255,0)" stroke-opacity="1" stroke-width="3" d=" M-15.029000282287598,414.072998046875 C-15.029000282287598,414.072998046875 -4.514999866485596,421.6199951171875 15.61299991607666,431.27899169921875"></path></g><g opacity="0.2" transform="matrix(1,0,0,1,0,0)"><path stroke-linecap="round" stroke-linejoin="round" fill-opacity="0" stroke="rgb(253,255,95)" stroke-opacity="1" stroke-width="3" d=" M3.621999979019165,386.7340087890625 C3.621999979019165,386.7340087890625 7.118000030517578,394.41900634765625 10.61299991607666,414.072998046875"></path></g><g opacity="0.2" transform="matrix(1,0,0,1,0,0)"><path stroke-linecap="round" stroke-linejoin="round" fill-opacity="0" stroke="rgb(253,255,95)" stroke-opacity="1" stroke-width="3" d=" M4.785999774932861,405.2120056152344 C4.785999774932861,405.2120056152344 -5.330999851226807,398.6340026855469 -10.623000144958496,393.635986328125"></path></g><g opacity="0.3" transform="matrix(1,0,0,1,0,0)"><path fill="rgb(186,255,34)" fill-opacity="1" d=" M49.72200012207031,458.5169982910156 C44.4739990234375,409.9469909667969 0.7900000214576721,377.3160095214844 -17.6560001373291,367.6440124511719 C-16.31599998474121,388.1050109863281 -26.052000045776367,403.6310119628906 -25.527999877929688,429.6570129394531 C-33.42100143432617,405.73699951171875 -23.628000259399414,377.4469909667969 -26.878000259399414,351.87701416015625 C-26.878000259399414,351.87701416015625 58.42100143432617,392.052001953125 49.72200012207031,458.5169982910156z"></path></g><g opacity="1" transform="matrix(1,0,0,1,0,0)"><path stroke-linecap="round" stroke-linejoin="round" fill-opacity="0" stroke="rgb(50,127,0)" stroke-opacity="1" stroke-width="8" d=" M-26.875,351.8789978027344 C-26.875,351.8789978027344 18.788000106811523,372.7770080566406 39.37900161743164,409.5 C56.02799987792969,439.1919860839844 49.792999267578125,472.4670104980469 42.36399841308594,493.1449890136719 C42.36399841308594,493.1449890136719 -2.069999933242798,486.031005859375 -20.833999633789062,442.9580078125 C-36.625999450683594,406.7090148925781 -23.156999588012695,381.1549987792969 -26.875,351.8789978027344z"></path></g><g opacity="1" transform="matrix(1,0,0,1,0,0)"><path stroke-linecap="round" stroke-linejoin="round" fill-opacity="0" stroke="rgb(36,91,1)" stroke-opacity="1" stroke-width="8" d=" M38.80099868774414,408.4849853515625 C38.99599838256836,408.8219909667969 39.1879997253418,409.1600036621094 39.37900161743164,409.5 C56.02799987792969,439.1919860839844 49.792999267578125,472.4670104980469 42.36399841308594,493.1449890136719 C42.36399841308594,493.1449890136719 -2.069999933242798,486.031005859375 -20.833999633789062,442.9580078125 C-20.95400047302246,442.6820068359375 -21.072999954223633,442.406005859375 -21.190000534057617,442.1319885253906"></path></g><g opacity="1" transform="matrix(1,0,0,1,0,0)"><path fill="rgb(140,196,47)" fill-opacity="1" d=" M49.941001892089844,520.0590209960938 C49.941001892089844,520.0590209960938 41.53300094604492,481.06500244140625 17.06100082397461,427.51300048828125 C3.315999984741211,397.43499755859375 -11.031000137329102,376.1919860839844 -11.031000137329102,376.1919860839844 C-11.031000137329102,376.1919860839844 1.4119999408721924,397.7699890136719 15.61299991607666,431.27899169921875 C20.33300018310547,442.4179992675781 43.85599899291992,507.281005859375 44.638999938964844,524.8839721679688 C44.638999938964844,524.8839721679688 49.941001892089844,520.0590209960938 49.941001892089844,520.0590209960938z"></path><path stroke-linecap="round" stroke-linejoin="round" fill-opacity="0" stroke="rgb(140,196,47)" stroke-opacity="1" stroke-width="2" d=" M49.941001892089844,520.0590209960938 C49.941001892089844,520.0590209960938 41.53300094604492,481.06500244140625 17.06100082397461,427.51300048828125 C3.315999984741211,397.43499755859375 -11.031000137329102,376.1919860839844 -11.031000137329102,376.1919860839844 C-11.031000137329102,376.1919860839844 1.4119999408721924,397.7699890136719 15.61299991607666,431.27899169921875 C20.33300018310547,442.4179992675781 43.85599899291992,507.281005859375 44.638999938964844,524.8839721679688 C44.638999938964844,524.8839721679688 49.941001892089844,520.0590209960938 49.941001892089844,520.0590209960938z"></path></g></g><g style="display: block;" transform="matrix(0.949999988079071,0,0,0.949999988079071,254.50015258789062,-250.200439453125)" opacity="1"><g opacity="1" transform="matrix(1,0,0,1,0,0)"><path fill="url(#__lottie_element_7312)" fill-opacity="1" d=" M141.69700622558594,294.1719970703125 C141.69700622558594,294.1719970703125 133.1699981689453,298 98.68199920654297,316.99798583984375 C47.57400131225586,345.1510009765625 49.941001892089844,398.4280090332031 78.26200103759766,429.6610107421875 C78.26200103759766,429.6610107421875 115.7040023803711,414.5610046386719 133.06700134277344,378.0870056152344 C150.49000549316406,341.4859924316406 141.69700622558594,294.1719970703125 141.69700622558594,294.1719970703125z"></path></g><g opacity="0.2" transform="matrix(1,0,0,1,0,0)"><path fill="rgb(168,255,77)" fill-opacity="1" d=" M97.0719985961914,366.0270080566406 C84.59200286865234,396.3070068359375 80.09200286865234,417.8869934082031 78.47200012207031,429.59698486328125 C78.33200073242188,429.6369934082031 78.26200103759766,429.6570129394531 78.26200103759766,429.6570129394531 C48.11199951171875,389.93701171875 47.62200164794922,345.24700927734375 98.68199920654297,316.99700927734375 C134.49200439453125,297.18701171875 141.69200134277344,294.1669921875 141.69200134277344,294.1669921875 C141.69200134277344,294.1669921875 111.29199981689453,331.5469970703125 97.0719985961914,366.0270080566406z"></path></g><g opacity="0.2" transform="matrix(1,0,0,1,0,0)"><path stroke-linecap="round" stroke-linejoin="round" fill-opacity="0" stroke="rgb(186,255,34)" stroke-opacity="1" stroke-width="3" d=" M86.2509994506836,401.2590026855469 C86.2509994506836,401.2590026855469 102.39399719238281,396.42498779296875 116.02300262451172,385.7340087890625"></path></g><g opacity="0.2" transform="matrix(1,0,0,1,0,0)"><path stroke-linecap="round" stroke-linejoin="round" fill-opacity="0" stroke="rgb(186,255,34)" stroke-opacity="1" stroke-width="3" d=" M72.94400024414062,370.656005859375 C72.94400024414062,370.656005859375 72.94400024414062,385.7330017089844 82.18900299072266,405.2120056152344"></path></g><g opacity="0.2" transform="matrix(1,0,0,1,0,0)"><path stroke-linecap="round" stroke-linejoin="round" fill-opacity="0" stroke="rgb(186,255,34)" stroke-opacity="1" stroke-width="3" d=" M128.5760040283203,355.9219970703125 C128.5760040283203,355.9219970703125 116.02300262451172,370.66400146484375 91.73300170898438,379.760986328125"></path></g><g opacity="0.2" transform="matrix(1,0,0,1,0,0)"><path stroke-linecap="round" stroke-linejoin="round" fill-opacity="0" stroke="rgb(186,255,34)" stroke-opacity="1" stroke-width="3" d=" M87.7040023803711,344.18798828125 C87.7040023803711,344.18798828125 88.56099700927734,361.8789978027344 92.73300170898438,375.656005859375"></path></g><g opacity="0.2" transform="matrix(1,0,0,1,0,0)"><path stroke-linecap="round" stroke-linejoin="round" fill-opacity="0" stroke="rgb(221,255,34)" stroke-opacity="1" stroke-width="3" d=" M106.0479965209961,348.9079895019531 C106.0479965209961,348.9079895019531 121.5530014038086,340.68701171875 130.66799926757812,332.7489929199219"></path></g><g opacity="0.2" transform="matrix(1,0,0,1,0,0)"><path stroke-linecap="round" stroke-linejoin="round" fill-opacity="0" stroke="rgb(255,242,34)" stroke-opacity="1" stroke-width="3" d=" M104.18599700927734,329.4949951171875 C104.18599700927734,329.4949951171875 102.4020004272461,341.7829895019531 104.18599700927734,351.8789978027344"></path></g><g opacity="0.2" transform="matrix(1,0,0,1,0,0)"><path stroke-linecap="round" stroke-linejoin="round" fill-opacity="0" stroke="rgb(241,255,34)" stroke-opacity="1" stroke-width="3" d=" M116.02300262451172,321.7619934082031 C116.02300262451172,321.7619934082031 116.02300262451172,329.4949951171875 116.02300262451172,329.4949951171875"></path></g><g opacity="0.3" transform="matrix(1,0,0,1,0,0)"><path fill="rgb(186,255,34)" fill-opacity="1" d=" M136.48199462890625,369.5769958496094 C142.8719940185547,331.3970031738281 136.2220001220703,307.0270080566406 136.2220001220703,307.0270080566406 C136.2220001220703,307.0270080566406 102.86799621582031,322.6390075683594 85.052001953125,337.86700439453125 C52.60200119018555,365.60400390625 67.06199645996094,412.0669860839844 67.06199645996094,412.0669860839844 C67.06199645996094,412.0669860839844 30.790000915527344,357.8420104980469 98.68199920654297,316.99700927734375 C133.74899291992188,295.8999938964844 141.69200134277344,294.1669921875 141.69200134277344,294.1669921875 C141.69200134277344,294.1669921875 148.79200744628906,334.4070129394531 136.48199462890625,369.5769958496094z"></path></g><g opacity="1" transform="matrix(1,0,0,1,0,0)"><path stroke-linecap="round" stroke-linejoin="round" fill-opacity="0" stroke="rgb(50,127,0)" stroke-opacity="1" stroke-width="8" d=" M141.69700622558594,294.1719970703125 C141.69700622558594,294.1719970703125 133.1699981689453,298 98.68199920654297,316.99798583984375 C47.57400131225586,345.1510009765625 49.941001892089844,398.4280090332031 78.26200103759766,429.6610107421875 C78.26200103759766,429.6610107421875 115.7040023803711,414.5610046386719 133.06700134277344,378.0870056152344 C150.49000549316406,341.4859924316406 141.69700622558594,294.1719970703125 141.69700622558594,294.1719970703125z"></path></g><g opacity="1" transform="matrix(1,0,0,1,0,0)"><path stroke-linecap="round" stroke-linejoin="round" fill-opacity="0" stroke="rgb(36,91,1)" stroke-opacity="1" stroke-width="8" d=" M78.26200103759766,429.6610107421875 C78.26200103759766,429.6610107421875 115.7040023803711,414.5610046386719 133.06700134277344,378.0870056152344 C150.49000549316406,341.4859924316406 141.69700622558594,294.1719970703125 141.69700622558594,294.1719970703125"></path></g><g opacity="1" transform="matrix(1,0,0,1,0,0)"><path fill="url(#__lottie_element_7313)" fill-opacity="1" d=" M127.6780014038086,312.156005859375 C127.08300018310547,312.6189880371094 85.0770034790039,362.4630126953125 74.33499908447266,429.1300048828125 C74.30899810791016,429.2929992675781 82.18399810791016,431.47198486328125 82.18900299072266,431.260986328125 C82.19999694824219,430.7439880371094 82.18900299072266,380.8110046386719 128.46600341796875,312.76800537109375 C128.75999450683594,312.3349914550781 128.48699951171875,311.5270080566406 127.6780014038086,312.156005859375z"></path></g></g><g style="display: block;" transform="matrix(0.949999988079071,0,0,0.949999988079071,254.49978637695312,-250.19964599609375)" opacity="1"><g opacity="1" transform="matrix(1,0,0,1,0,0)"><path fill="url(#__lottie_element_7308)" fill-opacity="1" d=" M78.26200103759766,429.6610107421875 C78.26200103759766,429.6610107421875 78.34500122070312,484.7489929199219 36.37900161743164,550.68798828125 C0.2879999876022339,607.39501953125 -78.77999877929688,676.9749755859375 -95.9729995727539,785.5430297851562 C-96.70800018310547,790.1849975585938 -113.5999984741211,790.093994140625 -114.77100372314453,785.5430297851562 C-117.28399658203125,775.7780151367188 -110.26499938964844,723.4959716796875 -61.375,654.68798828125 C-24.09000015258789,602.2130126953125 21.261999130249023,560.9099731445312 39.972999572753906,532.56201171875 C74.23699951171875,480.6499938964844 74.33499908447266,455.1059875488281 78.26200103759766,429.6610107421875z"></path></g><g opacity="0.5" transform="matrix(1,0,0,1,0,0)"><path fill="rgb(50,127,0)" fill-opacity="1" d=" M1.1790000200271606,597.5889892578125 C-36.46200180053711,643.7109985351562 -83.48999786376953,706.6840209960938 -95.97699737548828,785.5460205078125 C-96.7040023803711,790.1890258789062 -113.5999984741211,790.0889892578125 -114.7750015258789,785.5460205078125 C-116.98999786376953,776.9299926757812 -111.78700256347656,735.2160034179688 -76.95500183105469,678.2630004882812 C-87.14800262451172,696.02001953125 -90.03800201416016,713.06298828125 -83.65499877929688,711.0989990234375 C-77.74600219726562,709.281005859375 -62.263999938964844,661.0659790039062 1.1790000200271606,597.5889892578125z"></path></g><g opacity="1" transform="matrix(1,0,0,1,0,0)"><path stroke-linecap="round" stroke-linejoin="round" fill-opacity="0" stroke="rgb(50,127,0)" stroke-opacity="1" stroke-width="8" d=" M78.26200103759766,429.6610107421875 C78.26200103759766,429.6610107421875 78.34500122070312,484.7489929199219 36.37900161743164,550.68798828125 C0.2879999876022339,607.39501953125 -78.77999877929688,676.9749755859375 -95.9729995727539,785.5430297851562 C-96.70800018310547,790.1849975585938 -113.5999984741211,790.093994140625 -114.77100372314453,785.5430297851562 C-117.28399658203125,775.7780151367188 -110.26499938964844,723.4959716796875 -61.375,654.68798828125 C-24.09000015258789,602.2130126953125 21.261999130249023,560.9099731445312 39.972999572753906,532.56201171875 C74.23699951171875,480.6499938964844 74.33499908447266,455.1059875488281 78.26200103759766,429.6610107421875z"></path></g><g opacity="1" transform="matrix(1,0,0,1,0,0)"><path stroke-linecap="round" stroke-linejoin="round" fill-opacity="0" stroke="rgb(36,91,1)" stroke-opacity="1" stroke-width="8" d=" M78.26200103759766,429.6610107421875 C78.26200103759766,429.6610107421875 78.34500122070312,484.7489929199219 36.37900161743164,550.68798828125 C0.2879999876022339,607.39501953125 -78.77999877929688,676.9749755859375 -95.9729995727539,785.5430297851562 C-96.70800018310547,790.1849975585938 -113.5999984741211,790.093994140625 -114.77100372314453,785.5430297851562 C-116.5459976196289,778.64501953125 -113.56500244140625,750.530029296875 -94.427001953125,710.3610229492188"></path></g><g opacity="1" transform="matrix(1,0,0,1,0,0)"><path stroke-linecap="round" stroke-linejoin="round" fill-opacity="0" stroke="rgb(30,78,0)" stroke-opacity="1" stroke-width="8" d=" M64.16699981689453,494.8330078125 C57.99800109863281,511.62298583984375 49.12900161743164,530.6539916992188 36.37900161743164,550.68798828125 C0.2879999876022339,607.39501953125 -78.77999877929688,676.9749755859375 -95.9729995727539,785.5430297851562 C-96.70800018310547,790.1849975585938 -113.5999984741211,790.093994140625 -114.77100372314453,785.5430297851562 C-114.88999938964844,785.0789794921875 -114.98799896240234,784.52001953125 -115.06099700927734,783.8670043945312"></path></g></g><g style="display: none;"><g><path fill="url(#__lottie_element_7304)"></path></g><g><path></path></g><g><path></path></g><g><path stroke-linecap="round" stroke-linejoin="round" fill-opacity="0"></path></g><g><path stroke-linecap="round" stroke-linejoin="round" fill-opacity="0"></path></g><g><path stroke-linecap="round" stroke-linejoin="round" fill-opacity="0"></path></g><g><path stroke-linecap="round" stroke-linejoin="round" fill-opacity="0"></path></g></g><g style="display: none;"><g><path fill="url(#__lottie_element_7300)"></path><path stroke-linecap="butt" stroke-linejoin="miter" fill-opacity="0" stroke-miterlimit="4"></path></g><g><path></path></g></g></g></svg>