<svg xmlns="http://www.w3.org/2000/svg" viewBox="0 0 512 512" width="512" height="512" style="width: 100%; height: 100%; transform: translate3d(0,0,0);" preserveAspectRatio="xMidYMid meet"><defs><clipPath id="__lottie_element_7339"><rect width="512" height="512" x="0" y="0"></rect></clipPath><linearGradient id="__lottie_element_7347" spreadMethod="pad" gradientUnits="userSpaceOnUse" x1="125.96299743652344" y1="15.972999572753906" x2="21.038999557495117" y2="148.06900024414062"><stop offset="0%" stop-color="rgb(201,239,91)"></stop><stop offset="62%" stop-color="rgb(149,189,70)"></stop><stop offset="99%" stop-color="rgb(98,140,50)"></stop></linearGradient><linearGradient id="__lottie_element_7352" spreadMethod="pad" gradientUnits="userSpaceOnUse" x1="-66" y1="-195" x2="-39.78799819946289" y2="40.904998779296875"><stop offset="0%" stop-color="rgb(218,33,100)"></stop><stop offset="33%" stop-color="rgb(221,77,120)"></stop><stop offset="52%" stop-color="rgb(223,120,139)"></stop><stop offset="64%" stop-color="rgb(235,118,129)"></stop><stop offset="74%" stop-color="rgb(246,116,118)"></stop><stop offset="89%" stop-color="rgb(202,99,93)"></stop><stop offset="99%" stop-color="rgb(159,83,67)"></stop></linearGradient><linearGradient id="__lottie_element_7356" spreadMethod="pad" gradientUnits="userSpaceOnUse" x1="63" y1="-151" x2="28.547000885009766" y2="30.253000259399414"><stop offset="0%" stop-color="rgb(255,71,142)"></stop><stop offset="18%" stop-color="rgb(254,113,159)"></stop><stop offset="51%" stop-color="rgb(254,155,175)"></stop><stop offset="67%" stop-color="rgb(254,136,146)"></stop><stop offset="78%" stop-color="rgb(254,118,116)"></stop><stop offset="86%" stop-color="rgb(205,103,98)"></stop><stop offset="100%" stop-color="rgb(156,87,80)"></stop></linearGradient><linearGradient id="__lottie_element_7364" spreadMethod="pad" gradientUnits="userSpaceOnUse" x1="14" y1="-188" x2="15.51200008392334" y2="-101.79000091552734"><stop offset="0%" stop-color="rgb(254,105,144)"></stop><stop offset="29%" stop-color="rgb(245,70,111)"></stop><stop offset="75%" stop-color="rgb(236,36,79)"></stop></linearGradient><linearGradient id="__lottie_element_7365" spreadMethod="pad" gradientUnits="userSpaceOnUse" x1="-43" y1="-187" x2="-41.487998962402344" y2="-100.79000091552734"><stop offset="0%" stop-color="rgb(254,105,144)"></stop><stop offset="29%" stop-color="rgb(245,70,111)"></stop><stop offset="75%" stop-color="rgb(236,36,79)"></stop></linearGradient><radialGradient id="__lottie_element_7368" spreadMethod="pad" gradientUnits="userSpaceOnUse"><stop></stop><stop></stop><stop></stop></radialGradient><linearGradient id="__lottie_element_7372" spreadMethod="pad" gradientUnits="userSpaceOnUse" x1="2" y1="204" x2="1.218999981880188" y2="46.6870002746582"><stop offset="0%" stop-color="rgb(194,251,83)"></stop><stop offset="58%" stop-color="rgb(146,196,67)"></stop><stop offset="99%" stop-color="rgb(98,140,50)"></stop></linearGradient><linearGradient id="__lottie_element_7376" spreadMethod="pad" gradientUnits="userSpaceOnUse" x1="-154.2729949951172" y1="-5.001999855041504" x2="-26.635000228881836" y2="131.718994140625"><stop offset="0%" stop-color="rgb(201,239,91)"></stop><stop offset="62%" stop-color="rgb(149,189,70)"></stop><stop offset="99%" stop-color="rgb(98,140,50)"></stop></linearGradient></defs><g clip-path="url(#__lottie_element_7339)"><g style="display: block;" transform="matrix(1,0,0,1,271,284.125)" opacity="1"><g opacity="1" transform="matrix(1,0,0,1,0,0)"><path fill="url(#__lottie_element_7376)" fill-opacity="1" d=" M-158.18600463867188,-39.25899887084961 C-158.18600463867188,-39.25899887084961 -143.16700744628906,-18.795000076293945 -114.88999938964844,-1.4520000219345093 C-70.41999816894531,25.822999954223633 -30.91900062561035,73.8499984741211 -15.982999801635742,161.60400390625 C-15.982999801635742,161.60400390625 -15.982999801635742,202.14500427246094 -15.982999801635742,202.14500427246094 C-15.982999801635742,202.14500427246094 -21.207000732421875,170.4969940185547 -62.11899948120117,131.95700073242188 C-107.46299743652344,89.24099731445312 -158.19900512695312,34.404998779296875 -158.18600463867188,-39.25899887084961z"></path></g><g opacity="0.5" transform="matrix(1,0,0,1,0,0)"><path fill="rgb(65,119,3)" fill-opacity="1" d=" M-15.984000205993652,162.10000610351562 C-15.984000205993652,162.10000610351562 -17.5,189.875 -16.503999710083008,201.5590057373047 C-20.5,175.875 -32.41699981689453,116.02300262451172 -108.54399871826172,37.52899932861328 C-131,14.375 -142.5,-9.125 -158.1739959716797,-38.7400016784668 C-148.5,-28.125 -135,-13.125 -114.39399719238281,-0.45100000500679016 C-54.74399948120117,36.237998962402344 -28.5,89.875 -15.984000205993652,162.10000610351562z"></path></g><g opacity="1" transform="matrix(1,0,0,1,0,0)"><path stroke-linecap="round" stroke-linejoin="round" fill-opacity="0" stroke="rgb(88,140,21)" stroke-opacity="1" stroke-width="8" d=" M-158.18600463867188,-39.25899887084961 C-158.18600463867188,-39.25899887084961 -141.77699279785156,-2.127000093460083 -107.84500122070312,37.68000030517578 C-73.91300201416016,77.48699951171875 -29.261999130249023,121.19300079345703 -16.444000244140625,200.08900451660156"></path></g><g opacity="1" transform="matrix(1,0,0,1,0,0)"><path stroke-linecap="round" stroke-linejoin="round" fill-opacity="0" stroke="rgb(64,106,9)" stroke-opacity="1" stroke-width="8" d=" M-90.77400207519531,57.369998931884766 C-60.34199905395508,92.49600219726562 -27.19499969482422,133.91400146484375 -16.444000244140625,200.08900451660156"></path></g><g opacity="1" transform="matrix(1,0,0,1,0,0)"><path stroke-linecap="round" stroke-linejoin="round" fill-opacity="0" stroke="rgb(65,119,3)" stroke-opacity="1" stroke-width="8" d=" M-158.18600463867188,-39.25899887084961 C-158.18600463867188,-39.25899887084961 -143.16700744628906,-18.795000076293945 -114.88999938964844,-1.4520000219345093 C-70.41999816894531,25.822999954223633 -30.91900062561035,73.8499984741211 -15.982999801635742,161.60400390625 C-15.982999801635742,161.60400390625 -15.982999801635742,202.14500427246094 -15.982999801635742,202.14500427246094 C-15.982999801635742,202.14500427246094 -21.207000732421875,170.4969940185547 -62.11899948120117,131.95700073242188 C-107.46299743652344,89.24099731445312 -158.19900512695312,34.404998779296875 -158.18600463867188,-39.25899887084961z"></path></g><g opacity="1" transform="matrix(1,0,0,1,0,0)"><path stroke-linecap="round" stroke-linejoin="round" fill-opacity="0" stroke="rgb(155,209,44)" stroke-opacity="1" stroke-width="8" d=" M-15.982999801635742,201.11700439453125 C-15.982999801635742,201.7790069580078 -15.982999801635742,202.14500427246094 -15.982999801635742,202.14500427246094 C-15.982999801635742,202.14500427246094 -21.207000732421875,170.4969940185547 -62.11899948120117,131.95700073242188 C-107.46299743652344,89.24099731445312 -158.19900512695312,34.404998779296875 -158.18600463867188,-39.25899887084961"></path></g></g><g style="display: block;" transform="matrix(1,0,0,1,271,284.125)" opacity="1"><g opacity="1" transform="matrix(1,0,0,1,0,0)"><path fill="url(#__lottie_element_7372)" fill-opacity="1" d=" M-15.982999801635742,202.14500427246094 C-15.982999801635742,202.14500427246094 -15.982999801635742,20.790000915527344 -15.982999801635742,20.790000915527344 C-15.982999801635742,20.790000915527344 17.996999740600586,20.790000915527344 17.996999740600586,20.790000915527344 C17.996999740600586,20.790000915527344 17.996999740600586,202.14500427246094 17.996999740600586,202.14500427246094 C17.996999740600586,202.14500427246094 0.9789999723434448,211.11900329589844 -15.982999801635742,202.14500427246094z"></path></g><g opacity="0.2" transform="matrix(1,0,0,1,0,0)"><path fill="rgb(255,255,255)" fill-opacity="1" d=" M-3.99399995803833,206.13800048828125 C-3.99399995803833,206.13800048828125 4.078999996185303,206.13800048828125 4.078999996185303,206.13800048828125 C4.078999996185303,206.13800048828125 4.078999996185303,20.790000915527344 4.078999996185303,20.790000915527344 C4.078999996185303,20.790000915527344 -3.99399995803833,20.790000915527344 -3.99399995803833,20.790000915527344 C-3.99399995803833,20.790000915527344 -3.99399995803833,206.13800048828125 -3.99399995803833,206.13800048828125z"></path></g><g opacity="0.4" transform="matrix(1,0,0,1,0,0)"><path fill="rgb(65,119,3)" fill-opacity="1" d=" M-3.99399995803833,97.57099914550781 C-3.99399995803833,144.26499938964844 -3.99399995803833,206.07000732421875 -3.99399995803833,206.07000732421875 C-7.382999897003174,205.52999877929688 -10.034000396728516,205.3000030517578 -15.984000205993652,202.14999389648438 C-15.984000205993652,202.14999389648438 -15.984000205993652,20.790000915527344 -15.984000205993652,20.790000915527344 C-15.984000205993652,20.790000915527344 17.996000289916992,20.790000915527344 17.996000289916992,20.790000915527344 C17.996000289916992,20.790000915527344 18,189.625 17.996000289916992,202.375 C17.868000030517578,200.76300048828125 17.805999755859375,198.18600463867188 17.78499984741211,195.11300659179688 C17.722999572753906,186.27000427246094 17.996000289916992,173.31199645996094 17.996000289916992,167.375 C17.996000289916992,159.375 17.996000289916992,68.7699966430664 17.996000289916992,68.7699966430664 C17.996000289916992,68.7699966430664 -3.99399995803833,59.409000396728516 -3.99399995803833,97.57099914550781z"></path></g><g opacity="1" transform="matrix(1,0,0,1,0,0)"><path stroke-linecap="round" stroke-linejoin="round" fill-opacity="0" stroke="rgb(65,119,3)" stroke-opacity="1" stroke-width="8" d=" M-15.982999801635742,202.14500427246094 C-15.982999801635742,202.14500427246094 -15.982999801635742,20.790000915527344 -15.982999801635742,20.790000915527344 C-15.982999801635742,20.790000915527344 17.996999740600586,20.790000915527344 17.996999740600586,20.790000915527344 C17.996999740600586,20.790000915527344 17.996999740600586,202.14500427246094 17.996999740600586,202.14500427246094 C17.996999740600586,202.14500427246094 0.9789999723434448,211.11900329589844 -15.982999801635742,202.14500427246094z"></path></g><g opacity="1" transform="matrix(1,0,0,1,0,0)"><path stroke-linecap="round" stroke-linejoin="round" fill-opacity="0" stroke="rgb(155,209,44)" stroke-opacity="1" stroke-width="8" d=" M17.996999740600586,71.0790023803711 C17.996999740600586,124.7490005493164 17.996999740600586,202.14500427246094 17.996999740600586,202.14500427246094 C17.996999740600586,202.14500427246094 0.9789999723434448,211.11900329589844 -15.982999801635742,202.14500427246094"></path></g></g><g style="display: block;" transform="matrix(1,0,0,1,271,284.12548828125)" opacity="1"><g opacity="1" transform="matrix(1,0,0,1,0,0)"><path fill="url(#__lottie_element_7364)" fill-opacity="1" d=" M-6.353000164031982,-205.28900146484375 C-41.44200134277344,-206.9929962158203 -77.13800048828125,-8.996000289916992 -5.99399995803833,-5.361000061035156 C65.1500015258789,-1.725000023841858 84.9280014038086,-93.88800048828125 77.37000274658203,-140.4969940185547 C69.81199645996094,-187.1060028076172 35.5880012512207,-200.54299926757812 32.02199935913086,-198.8780059814453 C28.45599937438965,-197.21299743652344 32.02199935913086,-190.74200439453125 32.02199935913086,-190.74200439453125 C22.405000686645508,-202.8520050048828 0.4320000112056732,-212.46099853515625 -4.574999809265137,-208.34100341796875 C-6.317999839782715,-206.90699768066406 -6.353000164031982,-205.28900146484375 -6.353000164031982,-205.28900146484375z"></path></g><g opacity="1" transform="matrix(1,0,0,1,0,0)"><path fill="rgb(232,24,88)" fill-opacity="1" d=" M-0.33399999141693115,-50.5099983215332 C-22.5,-74.875 -1,-173.625 -14.814000129699707,-202.00100708007812 C-12.034000396728516,-204.26100158691406 -9,-205.375 -6.354000091552734,-205.2899932861328 C12.25,-173.875 4,-87.875 -0.33399999141693115,-50.5099983215332z"></path></g><g opacity="0.3" transform="matrix(1,0,0,1,0,0)"><path fill="rgb(255,255,255)" fill-opacity="1" d=" M78.80599975585938,-124.5199966430664 C78.5,-134.375 62.63600158691406,-174.64300537109375 42.525001525878906,-182.1199951171875 C37.983001708984375,-183.8090057373047 45.13600158691406,-169.82000732421875 45.13600158691406,-169.82000732421875 C45.13600158691406,-169.82000732421875 24.868999481201172,-194.7899932861328 5.156000137329102,-197.64100646972656 C-0.1770000010728836,-198.41200256347656 0.6259999871253967,-189.02000427246094 0.6259999871253967,-189.02000427246094 C0.6259999871253967,-189.02000427246094 -7.3979997634887695,-205.55499267578125 -4.073999881744385,-208.58999633789062 C-0.75,-211.625 22.365999221801758,-202.8699951171875 32.00600051879883,-190.77000427246094 C31.736000061035156,-191.27000427246094 28.606000900268555,-197.27999877929688 32.0260009765625,-198.8800048828125 C35.58599853515625,-200.5399932861328 80.5,-181.125 78.80599975585938,-124.5199966430664z"></path></g><g opacity="1" transform="matrix(1,0,0,1,0,0)"><path stroke-linecap="round" stroke-linejoin="round" fill-opacity="0" stroke="rgb(216,26,76)" stroke-opacity="1" stroke-width="8" d=" M32.02199935913086,-190.74200439453125 C32.02199935913086,-190.74200439453125 47.70000076293945,-171.23800659179688 53.02899932861328,-148.89500427246094"></path></g><g opacity="1" transform="matrix(1,0,0,1,0,0)"><path stroke-linecap="round" stroke-linejoin="round" fill-opacity="0" stroke="rgb(216,26,76)" stroke-opacity="1" stroke-width="8" d=" M-6.353000164031982,-205.28900146484375 C-6.353000164031982,-205.28900146484375 7.156000137329102,-190.74200439453125 5.216000080108643,-131.62600708007812"></path></g><g opacity="1" transform="matrix(1,0,0,1,0,0)"><path stroke-linecap="round" stroke-linejoin="round" fill-opacity="0" stroke="rgb(201,31,76)" stroke-opacity="1" stroke-width="8" d=" M-6.353000164031982,-205.28900146484375 C-41.44200134277344,-206.9929962158203 -77.13800048828125,-8.996000289916992 -5.99399995803833,-5.361000061035156 C65.1500015258789,-1.725000023841858 84.9280014038086,-93.88800048828125 77.37000274658203,-140.4969940185547 C69.81199645996094,-187.1060028076172 35.5880012512207,-200.54299926757812 32.02199935913086,-198.8780059814453 C28.45599937438965,-197.21299743652344 32.02199935913086,-190.74200439453125 32.02199935913086,-190.74200439453125 C22.405000686645508,-202.8520050048828 0.4320000112056732,-212.46099853515625 -4.574999809265137,-208.34100341796875 C-6.317999839782715,-206.90699768066406 -6.353000164031982,-205.28900146484375 -6.353000164031982,-205.28900146484375z"></path></g><g opacity="1" transform="matrix(1,0,0,1,0,0)"><path fill="url(#__lottie_element_7365)" fill-opacity="1" d=" M-18.23699951171875,-208.29600524902344 C-13.00100040435791,-207.56700134277344 -7.201000213623047,-182.7989959716797 -9.484000205993652,-147.7899932861328 C-11.767000198364258,-112.77999877929688 -13.850000381469727,-69.94100189208984 -1.9579999446868896,-39.2400016784668 C9.9350004196167,-8.538999557495117 5.8460001945495605,-5.388000011444092 -25.399999618530273,-5.256999969482422 C-82.05699920654297,-5.019000053405762 -94.06300354003906,-78.11100006103516 -78.35700225830078,-136.69000244140625 C-62.71699905395508,-195.0240020751953 -25.2189998626709,-209.26800537109375 -18.23699951171875,-208.29600524902344z"></path></g><g opacity="0.3" transform="matrix(1,0,0,1,0,0)"><path fill="rgb(255,255,255)" fill-opacity="1" d=" M-9.484000205993652,-147.7899932861328 C-9.484000205993652,-147.7899932861328 -13.151000022888184,-199.5749969482422 -20.740999221801758,-197.2790069580078 C-51,-188.125 -83.86799621582031,-116.23500061035156 -84.18399810791016,-102.43000030517578 C-80.5,-186.625 -25.214000701904297,-209.27099609375 -18.233999252319336,-208.30099487304688 C-13.003999710083008,-207.5709991455078 -7.203999996185303,-182.8000030517578 -9.484000205993652,-147.7899932861328z"></path></g><g opacity="0.5" transform="matrix(1,0,0,1,0,0)"><path fill="rgb(201,31,76)" fill-opacity="1" d=" M-12.324000358581543,-33.191001892089844 C-74.5,-36.125 -85.14399719238281,-111.37100219726562 -78.35399627685547,-136.6909942626953 C-72.26399993896484,-159.39100646972656 -55.987998962402344,-184.31700134277344 -53.24399948120117,-186.4709930419922 C-56,-157.625 -8,-132.625 -2.9049999713897705,-104.37699890136719 C8.5,-141.625 64,-161.625 43.76599884033203,-194.7899932861328 C56,-189.125 72.34600067138672,-171.50100708007812 77.36599731445312,-140.50100708007812 C81.89600372314453,-112.60099792480469 76.68099975585938,-28.989999771118164 -12.324000358581543,-33.191001892089844z"></path></g></g><g style="display: none;"><g><path fill="url(#__lottie_element_7368)"></path><path stroke-linecap="butt" stroke-linejoin="miter" fill-opacity="0" stroke-miterlimit="4"></path></g><g><path></path></g></g><g style="display: block;" transform="matrix(1,0,0,1,271,284.12548828125)" opacity="1"><g opacity="1" transform="matrix(1,0,0,1,0,0)"><path stroke-linecap="round" stroke-linejoin="round" fill-opacity="0" stroke="rgb(201,31,76)" stroke-opacity="1" stroke-width="8" d=" M-18.23699951171875,-208.29600524902344 C-13.00100040435791,-207.56700134277344 -7.201000213623047,-182.7989959716797 -9.484000205993652,-147.7899932861328 C-11.767000198364258,-112.77999877929688 -13.850000381469727,-69.94100189208984 -1.9579999446868896,-39.2400016784668 C9.9350004196167,-8.538999557495117 5.8460001945495605,-5.388000011444092 -25.399999618530273,-5.256999969482422 C-82.05699920654297,-5.019000053405762 -94.06300354003906,-78.11100006103516 -78.35700225830078,-136.69000244140625 C-62.71699905395508,-195.0240020751953 -25.2189998626709,-209.26800537109375 -18.23699951171875,-208.29600524902344z"></path></g><g opacity="1" transform="matrix(1,0,0,1,0,0)"><path stroke-linecap="round" stroke-linejoin="round" fill-opacity="0" stroke="rgb(178,9,61)" stroke-opacity="1" stroke-width="8" d=" M-18.23699951171875,-208.29600524902344 C-13.00100040435791,-207.56700134277344 -7.201000213623047,-182.7989959716797 -9.484000205993652,-147.7899932861328 C-11.767000198364258,-112.77999877929688 -13.850000381469727,-69.94100189208984 -1.9579999446868896,-39.2400016784668 C2.4630000591278076,-27.82699966430664 4.676000118255615,-20.22100067138672 4.105999946594238,-15.163000106811523"></path></g></g><g style="display: block;" transform="matrix(1,0,0,1,271,284.12451171875)" opacity="1"><g opacity="1" transform="matrix(1,0,0,1,0,0)"><path fill="url(#__lottie_element_7356)" fill-opacity="1" d=" M-16.5049991607666,36.560001373291016 C-16.5049991607666,36.560001373291016 69.02999877929688,50.784000396728516 92.44000244140625,-22.1200008392334 C104.74099731445312,-60.428001403808594 90.7699966430664,-76.40699768066406 101.16899871826172,-128.052001953125 C108.66999816894531,-165.30499267578125 116.53700256347656,-174.7729949951172 109.39399719238281,-175.3679962158203 C109.39399719238281,-175.3679962158203 114.9749984741211,-192.43099975585938 106.30799865722656,-194.6199951171875 C99.03399658203125,-196.45700073242188 74.5,-184.125 50.6879997253418,-158.02499389648438 C11.725000381469727,-115.31800079345703 -20,-59.125 -16.5049991607666,36.560001373291016z"></path></g><g opacity="0.2" transform="matrix(1,0,0,1,0,0)"><path fill="rgb(201,31,76)" fill-opacity="1" d=" M-16.224000930786133,37.35900115966797 C-16.229999542236328,37.36000061035156 -20.413000106811523,-62.244998931884766 20.9060001373291,-118.70099639892578 C9.515999794006348,-98.73100280761719 7.564000129699707,-83.33999633789062 15.925999641418457,-59.941001892089844 C25.70199966430664,-32.58399963378906 37.5,27.375 -16.224000930786133,37.35900115966797z"></path></g><g opacity="0.3" transform="matrix(1,0,0,1,0,0)"><path fill="rgb(255,255,255)" fill-opacity="1" d=" M101.16600036621094,-128.05099487304688 C90.76599884033203,-76.41100311279297 104.73600006103516,-60.43000030517578 92.43599700927734,-22.1200008392334 C76.57599639892578,27.280000686645508 32.17599868774414,36.67900085449219 5.216000080108643,37.5890007019043 C93.36599731445312,19.913999557495117 86.53099822998047,-50.96200180053711 86.09600067138672,-87.87000274658203 C85.50700378417969,-137.77999877929688 103.14700317382812,-167.75100708007812 100.45600128173828,-169.82000732421875 C96.33200073242188,-172.99099731445312 103.10099792480469,-184.32899475097656 100.91300201416016,-185.52200317382812 C96.88099670410156,-187.7209930419922 79.70600128173828,-183.99000549316406 79.70600128173828,-183.99000549316406 C91.78600311279297,-191.94000244140625 102.21600341796875,-195.64999389648438 106.30599975585938,-194.6199951171875 C114.97599792480469,-192.42999267578125 109.39600372314453,-175.3699951171875 109.39600372314453,-175.3699951171875 C116.53600311279297,-174.77000427246094 108.66600036621094,-165.31100463867188 101.16600036621094,-128.05099487304688z"></path></g><g opacity="0.15" transform="matrix(1,0,0,1,0,0)"><path fill="rgb(163,52,52)" fill-opacity="1" d=" M83.65599822998047,-2.7100000381469727 C52.72600173950195,48.06999969482422 -16.503999710083008,36.558998107910156 -16.503999710083008,36.558998107910156 C-8.25,1.625 12.25,-23.125 12.925999641418457,-4.070000171661377 C13.46500015258789,11.119000434875488 26.145999908447266,-7.960000038146973 31.97599983215332,-7.730000019073486 C37.816001892089844,-7.5 33.68600082397461,5.329999923706055 39.18600082397461,7.159999847412109 C44.68600082397461,9 58.66600036621094,-11.170000076293945 65.5459976196289,-10.489999771118164 C72.4260025024414,-9.800000190734863 61.41600036621094,5.109000205993652 63.715999603271484,7.2789998054504395 C66.00599670410156,9.458999633789062 79.98600006103516,-0.8700000047683716 83.65599822998047,-2.7100000381469727z"></path></g><g opacity="1" transform="matrix(1,0,0,1,0,0)"><path stroke-linecap="round" stroke-linejoin="round" fill-opacity="0" stroke="rgb(234,54,114)" stroke-opacity="1" stroke-width="8" d=" M-16.5049991607666,36.560001373291016 C-16.5049991607666,36.560001373291016 69.02999877929688,50.784000396728516 92.44000244140625,-22.1200008392334 C104.74099731445312,-60.428001403808594 90.7699966430664,-76.40699768066406 101.16899871826172,-128.052001953125 C108.66999816894531,-165.30499267578125 116.53700256347656,-174.7729949951172 109.39399719238281,-175.3679962158203 C109.39399719238281,-175.3679962158203 114.9749984741211,-192.43099975585938 106.30799865722656,-194.6199951171875 C99.03399658203125,-196.45700073242188 74.5,-184.125 50.6879997253418,-158.02499389648438 C11.725000381469727,-115.31800079345703 -20,-59.125 -16.5049991607666,36.560001373291016z"></path></g><g opacity="1" transform="matrix(1,0,0,1,0,0)"><path stroke-linecap="round" stroke-linejoin="round" fill-opacity="0" stroke="rgb(255,151,181)" stroke-opacity="1" stroke-width="8" d=" M76.35600280761719,-181.21299743652344 C68.2979965209961,-175.35899353027344 59.444000244140625,-167.6230010986328 50.6879997253418,-158.02499389648438 C11.725000381469727,-115.31800079345703 -20,-59.125 -16.5049991607666,36.560001373291016"></path></g><g opacity="1" transform="matrix(1,0,0,1,0,0)"><path stroke-linecap="round" stroke-linejoin="round" fill-opacity="0" stroke="rgb(163,54,54)" stroke-opacity="1" stroke-width="8" d=" M-16.5049991607666,36.560001373291016 C-16.5049991607666,36.560001373291016 47.31100082397461,47.172000885009766 79.78600311279297,3.0820000171661377"></path></g><g opacity="1" transform="matrix(1,0,0,1,0,0)"><path stroke-linecap="round" stroke-linejoin="round" fill-opacity="0" stroke="rgb(255,255,255)" stroke-opacity="1" stroke-width="6" d=" M87.73200225830078,-118.25499725341797 C87.73200225830078,-118.25499725341797 87.77200317382812,-122.02400207519531 89.03900146484375,-128.0290069580078"></path></g><g opacity="1" transform="matrix(1,0,0,1,0,0)"><path stroke-linecap="round" stroke-linejoin="round" fill-opacity="0" stroke="rgb(255,255,255)" stroke-opacity="1" stroke-width="6" d=" M92.21700286865234,-139.10899353027344 C92.50800323486328,-139.91099548339844 92.81800079345703,-140.7270050048828 93.14800262451172,-141.55599975585938"></path></g></g><g style="display: block;" transform="matrix(1,0,0,1,271,284.125)" opacity="1"><g opacity="1" transform="matrix(1,0,0,1,0,0)"><path fill="url(#__lottie_element_7352)" fill-opacity="1" d=" M-121.31500244140625,-196.9739990234375 C-130.47799682617188,-194.46200561523438 -115.30699920654297,-176.5489959716797 -110.34500122070312,-148.3260040283203 C-102.81700134277344,-105.50499725341797 -111.51200103759766,-71.14299774169922 -103.69300079345703,-34.4379997253418 C-97.36299896240234,-4.7230000495910645 -78.3550033569336,34.11600112915039 -16.5049991607666,36.560001373291016 C3.433000087738037,37.347999572753906 17.996000289916992,7.994999885559082 11.258000373840332,-27.70400047302246 C4.413000106811523,-63.96799850463867 -21.489999771118164,-107.9469985961914 -45.87200164794922,-137.51600646972656 C-70.25399780273438,-167.0850067138672 -99.35600280761719,-202.99400329589844 -121.31500244140625,-196.9739990234375z"></path></g><g opacity="0.15" transform="matrix(1,0,0,1,0,0)"><path fill="rgb(163,52,52)" fill-opacity="1" d=" M11.986000061035156,2.1500000953674316 C8.746000289916992,22.93000030517578 -2.563999891281128,37.10900115966797 -16.503999710083008,36.558998107910156 C-52.39400100708008,35.138999938964844 -73.85399627685547,21.4689998626709 -86.79399871826172,4.439000129699707 C-90.54399871826172,-9.550999641418457 -40.24800109863281,22.79400062561035 -40.24800109863281,15.152000427246094 C-40.24800109863281,10.60099983215332 -44.262001037597656,-1.625 -40.24399948120117,-3.5899999141693115 C-33.854000091552734,-6.715000152587891 -13.42199993133545,24.632999420166016 -1.9579999446868896,-2.3610000610351562 C5.689000129699707,-20.368000030517578 12.815999984741211,-14.65999984741211 11.986000061035156,2.1500000953674316z"></path></g><g opacity="0.3" transform="matrix(1,0,0,1,0,0)"><path fill="rgb(255,255,255)" fill-opacity="1" d=" M-23.284000396728516,36.130001068115234 C-79.76399993896484,31.219999313354492 -97.60399627685547,-5.830999851226807 -103.69400024414062,-34.441001892089844 C-111.51399993896484,-71.14099884033203 -102.81400299072266,-105.5009994506836 -110.34400177001953,-148.33099365234375 C-115.30400085449219,-176.55099487304688 -130.4739990234375,-194.46099853515625 -121.31400299072266,-196.9709930419922 C-113.77400207519531,-199.04100036621094 -105.39399719238281,-196.16000366210938 -96.64399719238281,-190.2899932861328 C-117.8010025024414,-195.63299560546875 -115.0260009765625,-191.60800170898438 -106.69400024414062,-172.10000610351562 C-94.98899841308594,-144.69700622558594 -95.65399932861328,-109.45099639892578 -96.6240005493164,-84.39099884033203 C-97.58399963378906,-59.33100128173828 -95.40299987792969,20.791000366210938 -23.284000396728516,36.130001068115234z"></path></g><g opacity="1" transform="matrix(1,0,0,1,0,0)"><path stroke-linecap="round" stroke-linejoin="round" fill-opacity="0" stroke="rgb(234,54,114)" stroke-opacity="1" stroke-width="8" d=" M-121.31500244140625,-196.9739990234375 C-130.47799682617188,-194.46200561523438 -115.30699920654297,-176.5489959716797 -110.34500122070312,-148.3260040283203 C-102.81700134277344,-105.50499725341797 -111.51200103759766,-71.14299774169922 -103.69300079345703,-34.4379997253418 C-97.36299896240234,-4.7230000495910645 -78.3550033569336,34.11600112915039 -16.5049991607666,36.560001373291016 C3.433000087738037,37.347999572753906 17.996000289916992,7.994999885559082 11.258000373840332,-27.70400047302246 C4.413000106811523,-63.96799850463867 -21.489999771118164,-107.9469985961914 -45.87200164794922,-137.51600646972656 C-70.25399780273438,-167.0850067138672 -99.35600280761719,-202.99400329589844 -121.31500244140625,-196.9739990234375z"></path></g><g opacity="1" transform="matrix(1,0,0,1,0,0)"><path stroke-linecap="round" stroke-linejoin="round" fill-opacity="0" stroke="rgb(163,54,54)" stroke-opacity="1" stroke-width="8" d=" M-80.22899627685547,11.991999626159668 C-66.9469985961914,25.368999481201172 -46.89899826049805,35.35900115966797 -16.5049991607666,36.560001373291016 C3.3359999656677246,37.34400177001953 17.854999542236328,8.279000282287598 11.354000091552734,-27.184999465942383"></path></g><g opacity="1" transform="matrix(1,0,0,1,0,0)"><path stroke-linecap="round" stroke-linejoin="round" fill-opacity="0" stroke="rgb(255,151,181)" stroke-opacity="1" stroke-width="8" d=" M11.354000091552734,-27.184999465942383 C11.322999954223633,-27.357999801635742 11.291000366210938,-27.5310001373291 11.258000373840332,-27.70400047302246 C4.413000106811523,-63.96799850463867 -21.489999771118164,-107.9469985961914 -45.87200164794922,-137.51600646972656 C-62.59400177001953,-157.79600524902344 -81.53700256347656,-181.05799865722656 -98.87200164794922,-191.72999572753906"></path></g><g opacity="1" transform="matrix(1,0,0,1,0,0)"><path fill="rgb(255,151,181)" fill-opacity="1" d=" M7.156000137329102,-27.70400047302246 C7.156000137329102,-27.70400047302246 7.376999855041504,-26.73200035095215 9.010000228881836,-21.152999877929688 C10.642999649047852,-15.574000358581543 15.652000427246094,-4.014999866485596 14.972000122070312,7.552000045776367 C14.972000122070312,7.552000045776367 19.37700080871582,-8.38700008392334 15.12399959564209,-28.7549991607666 C15.12399959564209,-28.7549991607666 7.156000137329102,-27.70400047302246 7.156000137329102,-27.70400047302246z"></path></g></g><g style="display: block;" transform="matrix(1,0,0,1,271.00048828125,284.125)" opacity="1"><g opacity="1" transform="matrix(1,0,0,1,0,0)"><path fill="url(#__lottie_element_7347)" fill-opacity="1" d=" M158.18299865722656,-39.25899887084961 C158.18299865722656,-39.25899887084961 148.30599975585938,-22.722000122070312 106.46199798583984,6.4710001945495605 C64.61799621582031,35.66400146484375 35.5989990234375,89.18499755859375 17.996000289916992,157.78900146484375 C17.996000289916992,157.78900146484375 17.996999740600586,202.14500427246094 17.996999740600586,202.14500427246094 C17.996999740600586,202.14500427246094 32.02000045776367,156.3300018310547 75.322998046875,119.35199737548828 C118.6259994506836,82.3740005493164 156.38299560546875,29.83799934387207 158.18299865722656,-39.25899887084961z"></path></g><g opacity="0.5" transform="matrix(1,0,0,1,0,0)"><path fill="rgb(65,119,3)" fill-opacity="1" d=" M158.18600463867188,-39.2599983215332 C158.18600463867188,-39.2599983215332 153.79600524902344,-18.829999923706055 116.00599670410156,22.790000915527344 C76.20600128173828,66.62999725341797 30.18600082397461,136.5500030517578 18.006000518798828,202.1199951171875 C17.996000289916992,202.1300048828125 17.996000289916992,157.7899932861328 17.996000289916992,157.7899932861328 C35.59600067138672,89.19000244140625 64.61599731445312,35.659000396728516 106.46600341796875,6.468999862670898 C148.30599975585938,-22.72100067138672 158.18600463867188,-39.2599983215332 158.18600463867188,-39.2599983215332z"></path></g><g opacity="1" transform="matrix(1,0,0,1,0,0)"><path stroke-linecap="round" stroke-linejoin="round" fill-opacity="0" stroke="rgb(88,140,21)" stroke-opacity="1" stroke-width="8" d=" M158.18299865722656,-39.25899887084961 C158.18299865722656,-39.25899887084961 155.46600341796875,-19.87700080871582 116.00599670410156,22.790000915527344 C76.5459976196289,65.45700073242188 32.801998138427734,130.1929931640625 17.996999740600586,202.14500427246094"></path></g><g opacity="1" transform="matrix(1,0,0,1,0,0)"><path stroke-linecap="round" stroke-linejoin="round" fill-opacity="0" stroke="rgb(64,106,9)" stroke-opacity="1" stroke-width="8" d=" M88.38300323486328,55.70899963378906 C57.880001068115234,95.7509994506836 29.381999969482422,146.81399536132812 17.996999740600586,202.14500427246094"></path></g><g opacity="1" transform="matrix(1,0,0,1,0,0)"><path stroke-linecap="round" stroke-linejoin="round" fill-opacity="0" stroke="rgb(65,119,3)" stroke-opacity="1" stroke-width="8" d=" M158.18299865722656,-39.25899887084961 C158.18299865722656,-39.25899887084961 148.30599975585938,-22.722000122070312 106.46199798583984,6.4710001945495605 C64.61799621582031,35.66400146484375 35.5989990234375,89.18499755859375 17.996000289916992,157.78900146484375 C17.996000289916992,157.78900146484375 17.996999740600586,202.14500427246094 17.996999740600586,202.14500427246094 C17.996999740600586,202.14500427246094 32.02000045776367,156.3300018310547 75.322998046875,119.35199737548828 C118.6259994506836,82.3740005493164 156.38299560546875,29.83799934387207 158.18299865722656,-39.25899887084961z"></path></g><g opacity="1" transform="matrix(1,0,0,1,0,0)"><path stroke-linecap="round" stroke-linejoin="round" fill-opacity="0" stroke="rgb(155,209,44)" stroke-opacity="1" stroke-width="8" d=" M17.996999740600586,200.18499755859375 C17.996999740600586,201.43099975585938 17.996999740600586,202.14500427246094 17.996999740600586,202.14500427246094 C17.996999740600586,202.14500427246094 32.02000045776367,156.3300018310547 75.322998046875,119.35199737548828 C118.6259994506836,82.3740005493164 156.38299560546875,29.83799934387207 158.18299865722656,-39.25899887084961"></path></g></g><g style="display: block;" transform="matrix(1,0,0,1,271,284.125)" opacity="1"><g opacity="1" transform="matrix(1,0,0,1,0,0)"><path stroke-linecap="round" stroke-linejoin="round" fill-opacity="0" stroke="rgb(155,209,44)" stroke-opacity="1" stroke-width="8" d=" M17.996999740600586,71.0790023803711 C17.996999740600586,124.7490005493164 17.996999740600586,202.14500427246094 17.996999740600586,202.14500427246094 C17.996999740600586,202.14500427246094 0.9789999723434448,211.11900329589844 -15.982999801635742,202.14500427246094"></path></g></g></g></svg>