<svg xmlns="http://www.w3.org/2000/svg" viewBox="0 0 512 512" width="512" height="512" style="width: 100%; height: 100%; transform: translate3d(0,0,0);" preserveAspectRatio="xMidYMid meet"><defs><clipPath id="__lottie_element_7378"><rect width="512" height="512" x="0" y="0"></rect></clipPath><clipPath id="__lottie_element_7380"><path d="M0,0 L512,0 L512,512 L0,512z"></path></clipPath><linearGradient id="__lottie_element_7430" spreadMethod="pad" gradientUnits="userSpaceOnUse" x1="-154.39199829101562" y1="3.8980000019073486" x2="157.43499755859375" y2="3.8980000019073486"><stop offset="0%" stop-color="rgb(255,153,0)"></stop><stop offset="34%" stop-color="rgb(255,182,1)"></stop><stop offset="50%" stop-color="rgb(255,211,2)"></stop><stop offset="78%" stop-color="rgb(255,178,2)"></stop><stop offset="100%" stop-color="rgb(255,145,2)"></stop></linearGradient><linearGradient id="__lottie_element_7442" spreadMethod="pad" gradientUnits="userSpaceOnUse" x1="-154.39199829101562" y1="3.8980000019073486" x2="157.43499755859375" y2="3.8980000019073486"><stop offset="0%" stop-color="rgb(255,153,0)"></stop><stop offset="34%" stop-color="rgb(255,182,1)"></stop><stop offset="50%" stop-color="rgb(255,211,2)"></stop><stop offset="78%" stop-color="rgb(255,178,2)"></stop><stop offset="100%" stop-color="rgb(255,145,2)"></stop></linearGradient><clipPath id="__lottie_element_7450"><path d="M0,0 L512,0 L512,512 L0,512z"></path></clipPath><linearGradient id="__lottie_element_7500" spreadMethod="pad" gradientUnits="userSpaceOnUse"><stop></stop><stop></stop><stop></stop><stop></stop><stop></stop></linearGradient><linearGradient id="__lottie_element_7512" spreadMethod="pad" gradientUnits="userSpaceOnUse"><stop></stop><stop></stop><stop></stop><stop></stop><stop></stop></linearGradient></defs><g clip-path="url(#__lottie_element_7378)"><g clip-path="url(#__lottie_element_7450)" style="display: none;"><g style="display: none;"><g><path stroke-linecap="round" stroke-linejoin="round" fill-opacity="0"></path></g></g><g style="display: none;"><g><path stroke-linecap="round" stroke-linejoin="round" fill-opacity="0"></path><path></path></g></g><g style="display: none;"><g><path fill="url(#__lottie_element_7512)"></path><path stroke-linecap="round" stroke-linejoin="round" fill-opacity="0"></path></g></g><g style="display: none;"><g><path fill="url(#__lottie_element_7500)"></path><path stroke-linecap="round" stroke-linejoin="round" fill-opacity="0"></path></g></g><g style="display: none;"><g><path></path><path stroke-linecap="butt" stroke-linejoin="miter" fill-opacity="0" stroke-miterlimit="4"></path></g></g><g style="display: none;"><g><path stroke-linecap="round" stroke-linejoin="round" fill-opacity="0"></path></g></g><g style="display: none;"><g><path stroke-linecap="round" stroke-linejoin="round" fill-opacity="0"></path></g><g><path stroke-linecap="round" stroke-linejoin="round" fill-opacity="0"></path></g></g><g style="display: none;"><g><path stroke-linecap="round" stroke-linejoin="round" fill-opacity="0"></path><path></path></g></g><g style="display: none;"><g><path></path></g></g><g style="display: none;"><g><path stroke-linecap="round" stroke-linejoin="round" fill-opacity="0"></path></g></g><g style="display: none;"><g><path stroke-linecap="round" stroke-linejoin="round" fill-opacity="0"></path></g></g><g style="display: none;"><g><path stroke-linecap="round" stroke-linejoin="round" fill-opacity="0"></path><path stroke-linecap="round" stroke-linejoin="round" fill-opacity="0"></path></g></g><g style="display: none;"><g><path stroke-linecap="round" stroke-linejoin="round" fill-opacity="0"></path></g></g><g style="display: none;"><g><path stroke-linecap="round" stroke-linejoin="round" fill-opacity="0"></path></g></g><g style="display: none;"><g><path stroke-linecap="round" stroke-linejoin="round" fill-opacity="0"></path><path></path></g></g><g style="display: none;"><g><path></path></g></g><g style="display: none;"><g><path stroke-linecap="round" stroke-linejoin="miter" fill-opacity="0" stroke-miterlimit="4"></path><path></path></g></g><g style="display: none;"><g><path></path></g></g><g style="display: none;"><g><path stroke-linecap="round" stroke-linejoin="round" fill-opacity="0"></path><path></path></g></g><g style="display: none;"><g><path></path></g></g></g><g clip-path="url(#__lottie_element_7380)" style="display: block;" transform="matrix(1,0,0,1,0,0)" opacity="1"><g style="display: none;"><g><path stroke-linecap="round" stroke-linejoin="round" fill-opacity="0"></path></g></g><g style="display: none;"><g><path stroke-linecap="round" stroke-linejoin="round" fill-opacity="0"></path><path></path></g></g><g style="display: block;" transform="matrix(1,0,0,1,256.0007019042969,255.99993896484375)" opacity="1"><g opacity="1" transform="matrix(1,0,0,1,0,0)"><path fill="url(#__lottie_element_7442)" fill-opacity="1" d=" M89,-217.5 C89,-217.5 -153,20.5 -153,20.5 C-153,20.5 0.8019999861717224,20.695999145507812 0.8019999861717224,20.695999145507812 C0.8019999861717224,20.695999145507812 -129.79600524902344,222.55599975585938 -129.79600524902344,222.55599975585938 C-129.79600524902344,222.55599975585938 156.5,-39.5 156.5,-39.5 C156.5,-39.5 2.5,-39.5 2.5,-39.5 C2.5,-39.5 89,-217.5 89,-217.5z"></path><path stroke-linecap="round" stroke-linejoin="round" fill-opacity="0" stroke="rgb(247,140,0)" stroke-opacity="1" stroke-width="8" d=" M89,-217.5 C89,-217.5 -153,20.5 -153,20.5 C-153,20.5 0.8019999861717224,20.695999145507812 0.8019999861717224,20.695999145507812 C0.8019999861717224,20.695999145507812 -129.79600524902344,222.55599975585938 -129.79600524902344,222.55599975585938 C-129.79600524902344,222.55599975585938 156.5,-39.5 156.5,-39.5 C156.5,-39.5 2.5,-39.5 2.5,-39.5 C2.5,-39.5 89,-217.5 89,-217.5z"></path></g></g><g style="display: block;" transform="matrix(1,0,0,1,256.0007019042969,255.99993896484375)" opacity="1"><g opacity="1" transform="matrix(1,0,0,1,0,0)"><path fill="url(#__lottie_element_7430)" fill-opacity="1" d=" M89,-217.5 C89,-217.5 -153,20.5 -153,20.5 C-153,20.5 0.8019999861717224,20.695999145507812 0.8019999861717224,20.695999145507812 C0.8019999861717224,20.695999145507812 -129.79600524902344,222.55599975585938 -129.79600524902344,222.55599975585938 C-129.79600524902344,222.55599975585938 156.5,-39.5 156.5,-39.5 C156.5,-39.5 2.5,-39.5 2.5,-39.5 C2.5,-39.5 89,-217.5 89,-217.5z"></path><path stroke-linecap="round" stroke-linejoin="round" fill-opacity="0" stroke="rgb(247,140,0)" stroke-opacity="1" stroke-width="8" d=" M89,-217.5 C89,-217.5 -153,20.5 -153,20.5 C-153,20.5 0.8019999861717224,20.695999145507812 0.8019999861717224,20.695999145507812 C0.8019999861717224,20.695999145507812 -129.79600524902344,222.55599975585938 -129.79600524902344,222.55599975585938 C-129.79600524902344,222.55599975585938 156.5,-39.5 156.5,-39.5 C156.5,-39.5 2.5,-39.5 2.5,-39.5 C2.5,-39.5 89,-217.5 89,-217.5z"></path></g></g><g style="display: block;" transform="matrix(1,0,0,1,256.0007019042969,255.99993896484375)" opacity="1"><g opacity="1" transform="matrix(1,0,0,1,0,0)"><path fill="rgb(255,255,217)" fill-opacity="1" d=" M34.862998962402344,-142.95199584960938 C34.862998962402344,-142.95199584960938 -99.5270004272461,1.1150000095367432 -99.5270004272461,1.1150000095367432 C-99.5270004272461,1.1150000095367432 40.15999984741211,1.4769999980926514 40.15999984741211,1.4769999980926514 C40.15999984741211,1.4769999980926514 -52.46200180053711,130.55499267578125 -52.46200180053711,130.55499267578125 C-52.46200180053711,130.55499267578125 102.05699920654297,-20.31399917602539 102.05699920654297,-20.31399917602539 C102.05699920654297,-20.31399917602539 -35.7130012512207,-20.19300079345703 -35.7130012512207,-20.19300079345703 C-35.7130012512207,-20.19300079345703 34.862998962402344,-142.95199584960938 34.862998962402344,-142.95199584960938z"></path><path stroke-linecap="butt" stroke-linejoin="miter" fill-opacity="0" stroke-miterlimit="4" stroke="rgb(254,248,40)" stroke-opacity="1" stroke-width="4" d=" M34.862998962402344,-142.95199584960938 C34.862998962402344,-142.95199584960938 -99.5270004272461,1.1150000095367432 -99.5270004272461,1.1150000095367432 C-99.5270004272461,1.1150000095367432 40.15999984741211,1.4769999980926514 40.15999984741211,1.4769999980926514 C40.15999984741211,1.4769999980926514 -52.46200180053711,130.55499267578125 -52.46200180053711,130.55499267578125 C-52.46200180053711,130.55499267578125 102.05699920654297,-20.31399917602539 102.05699920654297,-20.31399917602539 C102.05699920654297,-20.31399917602539 -35.7130012512207,-20.19300079345703 -35.7130012512207,-20.19300079345703 C-35.7130012512207,-20.19300079345703 34.862998962402344,-142.95199584960938 34.862998962402344,-142.95199584960938z"></path></g></g><g style="display: block;" transform="matrix(1,0,0,1,256.0007019042969,255.99993896484375)" opacity="1"><g opacity="1" transform="matrix(1,0,0,1,0,0)"><path stroke-linecap="round" stroke-linejoin="round" fill-opacity="0" stroke="rgb(239,124,0)" stroke-opacity="1" stroke-width="8" d=" M-153,20.5 C-153,20.5 0.8019999861717224,20.695999145507812 0.8019999861717224,20.695999145507812 C0.8019999861717224,20.695999145507812 -129.79600524902344,222.55599975585938 -129.79600524902344,222.55599975585938 C-129.79600524902344,222.55599975585938 156.5,-39.5 156.5,-39.5"></path></g></g><g style="display: block;" transform="matrix(1,0,0,1,258.9936828613281,257.5059509277344)" opacity="1"><g opacity="1" transform="matrix(1,0,0,1,0,0)"><path stroke-linecap="round" stroke-linejoin="round" fill-opacity="0" stroke="rgb(255,255,255)" stroke-opacity="1" stroke-width="6" d=" M107.91999816894531,-30.700000762939453 C107.91999816894531,-30.700000762939453 109.68299865722656,-30.700000762939453 109.68299865722656,-30.700000762939453"></path></g><g opacity="1" transform="matrix(1,0,0,1,0,0)"><path stroke-linecap="round" stroke-linejoin="round" fill-opacity="0" stroke="rgb(255,255,255)" stroke-opacity="1" stroke-width="6" d=" M84.81800079345703,-30.700000762939453 C84.81800079345703,-30.700000762939453 96.75,-30.700000762939453 96.75,-30.700000762939453"></path></g></g><g style="display: none;"><g><path stroke-linecap="round" stroke-linejoin="round" fill-opacity="0"></path><path></path></g></g><g style="display: none;"><g><path></path></g></g><g style="display: none;"><g><path stroke-linecap="round" stroke-linejoin="round" fill-opacity="0"></path></g></g><g style="display: none;"><g><path stroke-linecap="round" stroke-linejoin="round" fill-opacity="0"></path></g></g><g style="display: none;"><g><path stroke-linecap="round" stroke-linejoin="round" fill-opacity="0"></path><path stroke-linecap="round" stroke-linejoin="round" fill-opacity="0"></path></g></g><g style="display: none;"><g><path stroke-linecap="round" stroke-linejoin="round" fill-opacity="0"></path></g></g><g style="display: none;"><g><path stroke-linecap="round" stroke-linejoin="round" fill-opacity="0"></path></g></g><g style="display: none;"><g><path stroke-linecap="round" stroke-linejoin="round" fill-opacity="0"></path><path></path></g></g><g style="display: none;"><g><path></path></g></g><g style="display: none;"><g><path stroke-linecap="round" stroke-linejoin="miter" fill-opacity="0" stroke-miterlimit="4"></path><path></path></g></g><g style="display: none;"><g><path></path></g></g><g style="display: none;"><g><path stroke-linecap="round" stroke-linejoin="round" fill-opacity="0"></path><path></path></g></g><g style="display: none;"><g><path></path></g></g></g></g></svg>