<svg xmlns="http://www.w3.org/2000/svg" viewBox="0 0 512 512" width="512" height="512" style="width: 100%; height: 100%; transform: translate3d(0,0,0);" preserveAspectRatio="xMidYMid meet"><defs><clipPath id="__lottie_element_7569"><rect width="512" height="512" x="0" y="0"></rect></clipPath><radialGradient id="__lottie_element_7573" spreadMethod="pad" gradientUnits="userSpaceOnUse"><stop></stop><stop></stop><stop></stop></radialGradient><radialGradient id="__lottie_element_7574" spreadMethod="pad" gradientUnits="userSpaceOnUse"><stop></stop><stop></stop><stop></stop></radialGradient><mask id="__lottie_element_7576"><path fill="url(#__lottie_element_7575)"></path></mask><radialGradient id="__lottie_element_7575" spreadMethod="pad" gradientUnits="userSpaceOnUse"><stop stop-color="rgb(255,255,255)"></stop><stop stop-color="rgb(255,255,255)"></stop><stop stop-color="rgb(255,255,255)"></stop></radialGradient><radialGradient id="__lottie_element_7580" spreadMethod="pad" gradientUnits="userSpaceOnUse"><stop></stop><stop></stop><stop></stop></radialGradient><radialGradient id="__lottie_element_7581" spreadMethod="pad" gradientUnits="userSpaceOnUse"><stop></stop><stop></stop><stop></stop></radialGradient><mask id="__lottie_element_7583"><path fill="url(#__lottie_element_7582)"></path></mask><radialGradient id="__lottie_element_7582" spreadMethod="pad" gradientUnits="userSpaceOnUse"><stop stop-color="rgb(255,255,255)"></stop><stop stop-color="rgb(255,255,255)"></stop><stop stop-color="rgb(255,255,255)"></stop></radialGradient><radialGradient id="__lottie_element_7587" spreadMethod="pad" gradientUnits="userSpaceOnUse"><stop></stop><stop></stop><stop></stop></radialGradient><radialGradient id="__lottie_element_7588" spreadMethod="pad" gradientUnits="userSpaceOnUse"><stop></stop><stop></stop><stop></stop></radialGradient><mask id="__lottie_element_7590"><path fill="url(#__lottie_element_7589)"></path></mask><radialGradient id="__lottie_element_7589" spreadMethod="pad" gradientUnits="userSpaceOnUse"><stop stop-color="rgb(255,255,255)"></stop><stop stop-color="rgb(255,255,255)"></stop><stop stop-color="rgb(255,255,255)"></stop></radialGradient><radialGradient id="__lottie_element_7594" spreadMethod="pad" gradientUnits="userSpaceOnUse"><stop></stop><stop></stop><stop></stop></radialGradient><radialGradient id="__lottie_element_7595" spreadMethod="pad" gradientUnits="userSpaceOnUse"><stop></stop><stop></stop><stop></stop></radialGradient><mask id="__lottie_element_7597"><path fill="url(#__lottie_element_7596)"></path></mask><radialGradient id="__lottie_element_7596" spreadMethod="pad" gradientUnits="userSpaceOnUse"><stop stop-color="rgb(255,255,255)"></stop><stop stop-color="rgb(255,255,255)"></stop><stop stop-color="rgb(255,255,255)"></stop></radialGradient><linearGradient id="__lottie_element_7603" spreadMethod="pad" gradientUnits="userSpaceOnUse" x1="-0.20499999821186066" y1="-172.1020050048828" x2="-0.20499999821186066" y2="109.822998046875"><stop offset="0%" stop-color="rgb(251,191,84)"></stop><stop offset="35%" stop-color="rgb(251,210,87)"></stop><stop offset="58%" stop-color="rgb(252,229,91)"></stop><stop offset="78%" stop-color="rgb(248,202,57)"></stop><stop offset="100%" stop-color="rgb(244,175,23)"></stop></linearGradient><linearGradient id="__lottie_element_7606" spreadMethod="pad" gradientUnits="userSpaceOnUse" x1="-2.2049999237060547" y1="68.27300262451172" x2="-2.2049999237060547" y2="166.85499572753906"><stop offset="0%" stop-color="rgb(255,229,89)"></stop><stop offset="61%" stop-color="rgb(253,208,57)"></stop><stop offset="100%" stop-color="rgb(251,186,26)"></stop></linearGradient><radialGradient id="__lottie_element_7607" spreadMethod="pad" gradientUnits="userSpaceOnUse" cx="-0.9549999833106995" cy="-274.22698974609375" r="329.8319892883301" fx="-0.9549999833106995" fy="-274.22698974609375"><stop offset="50%" stop-color="rgb(255,255,255)"></stop><stop offset="84%" stop-color="rgb(255,248,207)"></stop><stop offset="100%" stop-color="rgb(255,240,158)"></stop></radialGradient><mask id="__lottie_element_7609"><path fill="url(#__lottie_element_7608)" d=" M182.1540069580078,-33.4119987487793 C182.1540069580078,-33.4119987487793 97.62300109863281,40.099998474121094 97.62300109863281,40.099998474121094 C94.55500030517578,42.768001556396484 93.20899963378906,46.9109992980957 94.12300109863281,50.87300109863281 C94.12300109863281,50.87300109863281 119.3010025024414,160.031005859375 119.3010025024414,160.031005859375 C121.48200225830078,169.48800659179688 111.23899841308594,176.93099975585938 102.91899871826172,171.9340057373047 C102.91899871826172,171.9340057373047 6.882999897003174,114.25599670410156 6.882999897003174,114.25599670410156 C3.3970000743865967,112.16300201416016 -0.9580000042915344,112.16300201416016 -4.443999767303467,114.25599670410156 C-4.443999767303467,114.25599670410156 -100.4800033569336,171.9340057373047 -100.4800033569336,171.9340057373047 C-108.80000305175781,176.93099975585938 -119.04299926757812,169.48800659179688 -116.86199951171875,160.031005859375 C-116.86199951171875,160.031005859375 -91.68399810791016,50.87300109863281 -91.68399810791016,50.87300109863281 C-90.7699966430664,46.9109992980957 -92.11599731445312,42.768001556396484 -95.18399810791016,40.099998474121094 C-95.18399810791016,40.099998474121094 -179.71499633789062,-33.4119987487793 -179.71499633789062,-33.4119987487793 C-187.03900146484375,-39.78099822998047 -183.12600708007812,-51.821998596191406 -173.45799255371094,-52.66999816894531 C-173.45799255371094,-52.66999816894531 -61.861000061035156,-62.45600128173828 -61.861000061035156,-62.45600128173828 C-57.81100082397461,-62.81100082397461 -54.2859992980957,-65.37200164794922 -52.696998596191406,-69.11399841308594 C-52.696998596191406,-69.11399841308594 -8.904999732971191,-172.22500610351562 -8.904999732971191,-172.22500610351562 C-5.111000061035156,-181.1580047607422 7.550000190734863,-181.1580047607422 11.343999862670898,-172.22500610351562 C11.343999862670898,-172.22500610351562 55.13600158691406,-69.11399841308594 55.13600158691406,-69.11399841308594 C56.724998474121094,-65.37200164794922 60.25,-62.81100082397461 64.30000305175781,-62.45600128173828 C64.30000305175781,-62.45600128173828 175.89700317382812,-52.66999816894531 175.89700317382812,-52.66999816894531 C185.56500244140625,-51.821998596191406 189.47799682617188,-39.78099822998047 182.1540069580078,-33.4119987487793z"></path></mask><radialGradient id="__lottie_element_7608" spreadMethod="pad" gradientUnits="userSpaceOnUse" cx="-0.9549999833106995" cy="-274.22698974609375" r="329.8319892883301" fx="-0.9549999833106995" fy="-274.22698974609375"><stop stop-color="rgb(255,255,255)" offset="0%" stop-opacity="1"></stop><stop stop-color="rgb(255,255,255)" offset="61%" stop-opacity="1"></stop><stop stop-color="rgb(255,255,255)" offset="100%" stop-opacity="1"></stop><stop stop-color="rgb(255,255,255)" offset="100%" stop-opacity="0.5"></stop><stop stop-color="rgb(255,255,255)" offset="100%" stop-opacity="0"></stop></radialGradient></defs><g clip-path="url(#__lottie_element_7569)"><g style="display: none;"><g><path></path></g></g><g style="display: block;" transform="matrix(1,0,0,1,256,256)" opacity="1"><g opacity="1" transform="matrix(1,0,0,1,0,0)"><path stroke-linecap="round" stroke-linejoin="round" fill-opacity="0" stroke="rgb(219,147,3)" stroke-opacity="1" stroke-width="16" d=" M180.93499755859375,-29.143999099731445 C180.93499755859375,-29.143999099731445 96.40299987792969,44.36800003051758 96.40299987792969,44.36800003051758 C93.33499908447266,47.0359992980957 91.98899841308594,51.17900085449219 92.90299987792969,55.14099884033203 C92.90299987792969,55.14099884033203 118.08100128173828,164.3000030517578 118.08100128173828,164.3000030517578 C120.26200103759766,173.7570037841797 110.01899719238281,181.19900512695312 101.6989974975586,176.20199584960938 C101.6989974975586,176.20199584960938 5.664000034332275,118.52400207519531 5.664000034332275,118.52400207519531 C2.177999973297119,116.43099975585938 -2.177999973297119,116.43099975585938 -5.664000034332275,118.52400207519531 C-5.664000034332275,118.52400207519531 -101.6989974975586,176.20199584960938 -101.6989974975586,176.20199584960938 C-110.01899719238281,181.19900512695312 -120.26200103759766,173.7570037841797 -118.08100128173828,164.3000030517578 C-118.08100128173828,164.3000030517578 -92.90299987792969,55.14099884033203 -92.90299987792969,55.14099884033203 C-91.98899841308594,51.17900085449219 -93.33499908447266,47.0359992980957 -96.40299987792969,44.36800003051758 C-96.40299987792969,44.36800003051758 -180.93499755859375,-29.143999099731445 -180.93499755859375,-29.143999099731445 C-188.25900268554688,-35.51300048828125 -184.34500122070312,-47.55400085449219 -174.677001953125,-48.402000427246094 C-174.677001953125,-48.402000427246094 -63.08100128173828,-58.1879997253418 -63.08100128173828,-58.1879997253418 C-59.03099822998047,-58.542999267578125 -55.50600051879883,-61.104000091552734 -53.91699981689453,-64.84600067138672 C-53.91699981689453,-64.84600067138672 -10.125,-167.95599365234375 -10.125,-167.95599365234375 C-6.330999851226807,-176.88900756835938 6.330999851226807,-176.88900756835938 10.125,-167.95599365234375 C10.125,-167.95599365234375 53.91699981689453,-64.84600067138672 53.91699981689453,-64.84600067138672 C55.50600051879883,-61.104000091552734 59.03099822998047,-58.542999267578125 63.08100128173828,-58.1879997253418 C63.08100128173828,-58.1879997253418 174.677001953125,-48.402000427246094 174.677001953125,-48.402000427246094 C184.34500122070312,-47.55400085449219 188.25900268554688,-35.51300048828125 180.93499755859375,-29.143999099731445z"></path></g><g opacity="1" transform="matrix(1,0,0,1,0,0)"><path stroke-linecap="round" stroke-linejoin="round" fill-opacity="0" stroke="rgb(242,162,3)" stroke-opacity="1" stroke-width="16" d=" M181.4290008544922,-45.32600021362305 C179.73300170898438,-47.00299835205078 177.44000244140625,-48.15999984741211 174.677001953125,-48.402000427246094 C174.677001953125,-48.402000427246094 63.08100128173828,-58.1879997253418 63.08100128173828,-58.1879997253418 C59.03099822998047,-58.542999267578125 55.50600051879883,-61.104000091552734 53.91699981689453,-64.84600067138672 C53.91699981689453,-64.84600067138672 10.125,-167.95599365234375 10.125,-167.95599365234375 C6.330999851226807,-176.88900756835938 -6.330999851226807,-176.88900756835938 -10.125,-167.95599365234375 C-10.125,-167.95599365234375 -53.91699981689453,-64.84600067138672 -53.91699981689453,-64.84600067138672 C-55.50600051879883,-61.104000091552734 -59.03099822998047,-58.542999267578125 -63.08100128173828,-58.1879997253418 C-63.08100128173828,-58.1879997253418 -174.677001953125,-48.402000427246094 -174.677001953125,-48.402000427246094 C-176.4980010986328,-48.242000579833984 -178.11500549316406,-47.68600082397461 -179.49099731445312,-46.84400177001953"></path></g><g opacity="1" transform="matrix(1,0,0,1,0,0)"><path fill="url(#__lottie_element_7603)" fill-opacity="1" d=" M180.93499755859375,-29.143999099731445 C180.93499755859375,-29.143999099731445 96.40299987792969,44.36800003051758 96.40299987792969,44.36800003051758 C93.33499908447266,47.0359992980957 91.98899841308594,51.17900085449219 92.90299987792969,55.14099884033203 C92.90299987792969,55.14099884033203 118.08100128173828,164.3000030517578 118.08100128173828,164.3000030517578 C120.26200103759766,173.7570037841797 110.01899719238281,181.19900512695312 101.6989974975586,176.20199584960938 C101.6989974975586,176.20199584960938 5.664000034332275,118.52400207519531 5.664000034332275,118.52400207519531 C2.177999973297119,116.43099975585938 -2.177999973297119,116.43099975585938 -5.664000034332275,118.52400207519531 C-5.664000034332275,118.52400207519531 -101.6989974975586,176.20199584960938 -101.6989974975586,176.20199584960938 C-110.01899719238281,181.19900512695312 -120.26200103759766,173.7570037841797 -118.08100128173828,164.3000030517578 C-118.08100128173828,164.3000030517578 -92.90299987792969,55.14099884033203 -92.90299987792969,55.14099884033203 C-91.98899841308594,51.17900085449219 -93.33499908447266,47.0359992980957 -96.40299987792969,44.36800003051758 C-96.40299987792969,44.36800003051758 -180.93499755859375,-29.143999099731445 -180.93499755859375,-29.143999099731445 C-188.25900268554688,-35.51300048828125 -184.34500122070312,-47.55400085449219 -174.677001953125,-48.402000427246094 C-174.677001953125,-48.402000427246094 -63.08100128173828,-58.1879997253418 -63.08100128173828,-58.1879997253418 C-59.03099822998047,-58.542999267578125 -55.50600051879883,-61.104000091552734 -53.91699981689453,-64.84600067138672 C-53.91699981689453,-64.84600067138672 -10.125,-167.95599365234375 -10.125,-167.95599365234375 C-6.330999851226807,-176.88900756835938 6.330999851226807,-176.88900756835938 10.125,-167.95599365234375 C10.125,-167.95599365234375 53.91699981689453,-64.84600067138672 53.91699981689453,-64.84600067138672 C55.50600051879883,-61.104000091552734 59.03099822998047,-58.542999267578125 63.08100128173828,-58.1879997253418 C63.08100128173828,-58.1879997253418 174.677001953125,-48.402000427246094 174.677001953125,-48.402000427246094 C184.34500122070312,-47.55400085449219 188.25900268554688,-35.51300048828125 180.93499755859375,-29.143999099731445z"></path></g></g><g style="display: block;" transform="matrix(0.8199999928474426,0,0,0.8199999928474426,256,259.41998291015625)" opacity="1"><g opacity="1" transform="matrix(1,0,0,1,0,0)"><path fill="url(#__lottie_element_7606)" fill-opacity="1" d=" M182.1540069580078,-33.4119987487793 C182.1540069580078,-33.4119987487793 97.62300109863281,40.099998474121094 97.62300109863281,40.099998474121094 C94.55500030517578,42.768001556396484 93.20899963378906,46.9109992980957 94.12300109863281,50.87300109863281 C94.12300109863281,50.87300109863281 119.3010025024414,160.031005859375 119.3010025024414,160.031005859375 C121.48200225830078,169.48800659179688 111.23899841308594,176.93099975585938 102.91899871826172,171.9340057373047 C102.91899871826172,171.9340057373047 6.882999897003174,114.25599670410156 6.882999897003174,114.25599670410156 C3.3970000743865967,112.16300201416016 -0.9580000042915344,112.16300201416016 -4.443999767303467,114.25599670410156 C-4.443999767303467,114.25599670410156 -100.4800033569336,171.9340057373047 -100.4800033569336,171.9340057373047 C-108.80000305175781,176.93099975585938 -119.04299926757812,169.48800659179688 -116.86199951171875,160.031005859375 C-116.86199951171875,160.031005859375 -91.68399810791016,50.87300109863281 -91.68399810791016,50.87300109863281 C-90.7699966430664,46.9109992980957 -92.11599731445312,42.768001556396484 -95.18399810791016,40.099998474121094 C-95.18399810791016,40.099998474121094 -179.71499633789062,-33.4119987487793 -179.71499633789062,-33.4119987487793 C-187.03900146484375,-39.78099822998047 -183.12600708007812,-51.821998596191406 -173.45799255371094,-52.66999816894531 C-173.45799255371094,-52.66999816894531 -61.861000061035156,-62.45600128173828 -61.861000061035156,-62.45600128173828 C-57.81100082397461,-62.81100082397461 -54.2859992980957,-65.37200164794922 -52.696998596191406,-69.11399841308594 C-52.696998596191406,-69.11399841308594 -8.904999732971191,-172.22500610351562 -8.904999732971191,-172.22500610351562 C-5.111000061035156,-181.1580047607422 7.550000190734863,-181.1580047607422 11.343999862670898,-172.22500610351562 C11.343999862670898,-172.22500610351562 55.13600158691406,-69.11399841308594 55.13600158691406,-69.11399841308594 C56.724998474121094,-65.37200164794922 60.25,-62.81100082397461 64.30000305175781,-62.45600128173828 C64.30000305175781,-62.45600128173828 175.89700317382812,-52.66999816894531 175.89700317382812,-52.66999816894531 C185.56500244140625,-51.821998596191406 189.47799682617188,-39.78099822998047 182.1540069580078,-33.4119987487793z"></path><path fill="url(#__lottie_element_7607)" mask="url(#__lottie_element_7609)" fill-opacity="1" d="M0 0 M182.1540069580078,-33.4119987487793 C182.1540069580078,-33.4119987487793 97.62300109863281,40.099998474121094 97.62300109863281,40.099998474121094 C94.55500030517578,42.768001556396484 93.20899963378906,46.9109992980957 94.12300109863281,50.87300109863281 C94.12300109863281,50.87300109863281 119.3010025024414,160.031005859375 119.3010025024414,160.031005859375 C121.48200225830078,169.48800659179688 111.23899841308594,176.93099975585938 102.91899871826172,171.9340057373047 C102.91899871826172,171.9340057373047 6.882999897003174,114.25599670410156 6.882999897003174,114.25599670410156 C3.3970000743865967,112.16300201416016 -0.9580000042915344,112.16300201416016 -4.443999767303467,114.25599670410156 C-4.443999767303467,114.25599670410156 -100.4800033569336,171.9340057373047 -100.4800033569336,171.9340057373047 C-108.80000305175781,176.93099975585938 -119.04299926757812,169.48800659179688 -116.86199951171875,160.031005859375 C-116.86199951171875,160.031005859375 -91.68399810791016,50.87300109863281 -91.68399810791016,50.87300109863281 C-90.7699966430664,46.9109992980957 -92.11599731445312,42.768001556396484 -95.18399810791016,40.099998474121094 C-95.18399810791016,40.099998474121094 -179.71499633789062,-33.4119987487793 -179.71499633789062,-33.4119987487793 C-187.03900146484375,-39.78099822998047 -183.12600708007812,-51.821998596191406 -173.45799255371094,-52.66999816894531 C-173.45799255371094,-52.66999816894531 -61.861000061035156,-62.45600128173828 -61.861000061035156,-62.45600128173828 C-57.81100082397461,-62.81100082397461 -54.2859992980957,-65.37200164794922 -52.696998596191406,-69.11399841308594 C-52.696998596191406,-69.11399841308594 -8.904999732971191,-172.22500610351562 -8.904999732971191,-172.22500610351562 C-5.111000061035156,-181.1580047607422 7.550000190734863,-181.1580047607422 11.343999862670898,-172.22500610351562 C11.343999862670898,-172.22500610351562 55.13600158691406,-69.11399841308594 55.13600158691406,-69.11399841308594 C56.724998474121094,-65.37200164794922 60.25,-62.81100082397461 64.30000305175781,-62.45600128173828 C64.30000305175781,-62.45600128173828 175.89700317382812,-52.66999816894531 175.89700317382812,-52.66999816894531 C185.56500244140625,-51.821998596191406 189.47799682617188,-39.78099822998047 182.1540069580078,-33.4119987487793z"></path></g><g opacity="1" transform="matrix(1,0,0,1,0,0)"><path stroke-linecap="round" stroke-linejoin="round" fill-opacity="0" stroke-dasharray=" 6 10 13 30" stroke-dashoffset="0" stroke="rgb(255,255,255)" stroke-opacity="1" stroke-width="7.317" d=" M150.85299682617188,-54.86600112915039 C141.15699768066406,-55.715999603271484 129.65899658203125,-56.724998474121094 118.26300048828125,-57.7239990234375"></path></g></g><g style="display: none;"><g><path fill="url(#__lottie_element_7594)"></path></g><g><path stroke-linecap="butt" stroke-linejoin="miter" fill-opacity="0" stroke-miterlimit="4"></path></g><g><path fill="url(#__lottie_element_7595)" mask="url(#__lottie_element_7597)"></path></g><g><path></path></g></g><g style="display: none;"><g><path fill="url(#__lottie_element_7587)"></path></g><g><path stroke-linecap="butt" stroke-linejoin="miter" fill-opacity="0" stroke-miterlimit="4"></path></g><g><path fill="url(#__lottie_element_7588)" mask="url(#__lottie_element_7590)"></path></g><g><path></path></g></g><g style="display: none;"><g><path fill="url(#__lottie_element_7580)"></path></g><g><path stroke-linecap="butt" stroke-linejoin="miter" fill-opacity="0" stroke-miterlimit="4"></path></g><g><path fill="url(#__lottie_element_7581)" mask="url(#__lottie_element_7583)"></path></g><g><path></path></g></g><g style="display: none;"><g><path fill="url(#__lottie_element_7573)"></path></g><g><path stroke-linecap="butt" stroke-linejoin="miter" fill-opacity="0" stroke-miterlimit="4"></path></g><g><path fill="url(#__lottie_element_7574)" mask="url(#__lottie_element_7576)"></path></g><g><path></path></g></g></g></svg>