<svg xmlns="http://www.w3.org/2000/svg" viewBox="0 0 512 512" width="512" height="512" style="width: 100%; height: 100%; transform: translate3d(0,0,0);" preserveAspectRatio="xMidYMid meet"><defs><clipPath id="__lottie_element_8374"><rect width="512" height="512" x="0" y="0"></rect></clipPath><linearGradient id="__lottie_element_8380" spreadMethod="pad" gradientUnits="userSpaceOnUse" x1="0.7170000076293945" y1="-294.9880065917969" x2="-0.36899998784065247" y2="120.56400299072266"><stop offset="0%" stop-color="rgb(196,216,226)"></stop><stop offset="50%" stop-color="rgb(201,222,231)"></stop><stop offset="99%" stop-color="rgb(207,227,236)"></stop></linearGradient><linearGradient id="__lottie_element_8401" spreadMethod="pad" gradientUnits="userSpaceOnUse" x1="-1.6030000448226929" y1="319.927001953125" x2="1.3899999856948853" y2="-98.87799835205078"><stop offset="0%" stop-color="rgb(196,216,226)"></stop><stop offset="50%" stop-color="rgb(201,222,231)"></stop><stop offset="100%" stop-color="rgb(207,227,236)"></stop></linearGradient><linearGradient id="__lottie_element_8459" spreadMethod="pad" gradientUnits="userSpaceOnUse" x1="0.9700000286102295" y1="-45.38800048828125" x2="-1.1200000047683716" y2="75.06600189208984"><stop offset="0%" stop-color="rgb(255,255,255)"></stop><stop offset="50%" stop-color="rgb(229,239,244)"></stop><stop offset="100%" stop-color="rgb(204,224,233)"></stop></linearGradient><linearGradient id="__lottie_element_8515" spreadMethod="pad" gradientUnits="userSpaceOnUse" x1="-1.0679999589920044" y1="-68.81199645996094" x2="-1.5440000295639038" y2="93.6729965209961"><stop offset="0%" stop-color="rgb(255,255,255)"></stop><stop offset="50%" stop-color="rgb(229,239,244)"></stop><stop offset="100%" stop-color="rgb(204,224,233)"></stop></linearGradient></defs><g clip-path="url(#__lottie_element_8374)"><g style="display: block;" transform="matrix(1,0,0,1,257.489990234375,387.1969909667969)" opacity="1"><g opacity="1" transform="matrix(1,0,0,1,0,0)"><path fill="url(#__lottie_element_8380)" fill-opacity="1" d=" M166.7830047607422,28.20199966430664 C165.21299743652344,96.08699798583984 108.52300262451172,118.3030014038086 -0.10300000011920929,118.3030014038086 C-99.06199645996094,118.3030014038086 -166.99000549316406,96.10299682617188 -166.99000549316406,28.20199966430664 C-166.99000549316406,-56.95899963378906 -113.2770004272461,-113.14700317382812 -0.10300000011920929,-113.14700317382812 C109.28600311279297,-113.14700317382812 168.74099731445312,-56.5 166.7830047607422,28.20199966430664z"></path></g></g><g style="display: block;" transform="matrix(1,0,0,1,257.489990234375,382.5299987792969)" opacity="1"><g opacity="1" transform="matrix(1,0,0,1,0,0)"><path fill="url(#__lottie_element_8515)" fill-opacity="1" d=" M-0.054999999701976776,63.470001220703125 C-88.56800079345703,63.470001220703125 -156.49000549316406,37.96900177001953 -146.04800415039062,-13.699000358581543 C-141.16099548339844,-37.880001068115234 -120.60299682617188,-60.01499938964844 -94.28299713134766,-75.10700225830078 C-73.48999786376953,-87.02999877929688 -72.79399871826172,-85.81900024414062 -62.992000579833984,-82.95099639892578 C-11.989999771118164,-68.02999877929688 6.510000228881836,-68.77999877929688 61.02199935913086,-82.64399719238281 C70.14800262451172,-84.96499633789062 71.51000213623047,-85.52999877929688 89.62300109863281,-77.08899688720703 C118.28900146484375,-63.729000091552734 138.58299255371094,-39.742000579833984 145.71400451660156,-15.597000122070312 C163.00999450683594,42.970001220703125 97.10399627685547,63.470001220703125 -0.054999999701976776,63.470001220703125z"></path></g></g><g style="display: block;" transform="matrix(-0.9901999831199646,0,0,1,259.4252014160156,377.5199890136719)" opacity="1"><path stroke-linecap="round" stroke-linejoin="round" fill-opacity="0" stroke-dasharray=" 23 9" stroke-dashoffset="0" stroke="rgb(255,255,255)" stroke-opacity="1" stroke-width="5" d=" M148.572998046875,10.208000183105469 C151.43299865722656,-2.2799999713897705 146.8979949951172,-16.309999465942383 142.73199462890625,-26.715999603271484"></path><g opacity="1" transform="matrix(1,0,0,1,0,0)"></g></g><g style="display: block;" transform="matrix(1,0,0,1,257.489990234375,382.5299987792969)" opacity="1"><path fill="rgb(229,243,249)" fill-opacity="1" d=" M126.20800018310547,74.65899658203125 C117.95099639892578,81.34500122070312 83.94599914550781,97.53299713134766 0.9200000166893005,97.53099822998047 C-83.04399871826172,97.52899932861328 -119.1989974975586,80.63500213623047 -125.16200256347656,76.05999755859375 C-131.125,71.48500061035156 -137.45799255371094,70.46399688720703 -130.6479949951172,77.83200073242188 C-110.69300079345703,99.4229965209961 -61.43299865722656,107.51599884033203 -0.057999998331069946,107.51799774169922 C67.8239974975586,107.5199966430664 115.05400085449219,98.60199737548828 133.05099487304688,76.63800048828125 C139.01100158691406,69.36499786376953 134.46499633789062,67.9729995727539 126.20800018310547,74.65899658203125z"></path><g opacity="1" transform="matrix(1,0,0,1,0,0)"><path stroke-linecap="round" stroke-linejoin="round" fill-opacity="0" stroke="rgb(229,243,249)" stroke-opacity="1" stroke-width="4" d=" M126.20800018310547,74.65899658203125 C117.95099639892578,81.34500122070312 83.94599914550781,97.53299713134766 0.9200000166893005,97.53099822998047 C-83.04399871826172,97.52899932861328 -119.1989974975586,80.63500213623047 -125.16200256347656,76.05999755859375 C-131.125,71.48500061035156 -137.45799255371094,70.46399688720703 -130.6479949951172,77.83200073242188 C-110.69300079345703,99.4229965209961 -61.43299865722656,107.51599884033203 -0.057999998331069946,107.51799774169922 C67.8239974975586,107.5199966430664 115.05400085449219,98.60199737548828 133.05099487304688,76.63800048828125 C139.01100158691406,69.36499786376953 134.46499633789062,67.9729995727539 126.20800018310547,74.65899658203125z"></path></g></g><g style="display: block;" transform="matrix(1,0,0,1,138.61599731445312,323.0719909667969)" opacity="1"><g opacity="1" transform="matrix(1,0,0,1,0,0)"><path fill="rgb(170,205,219)" fill-opacity="1" d=" M11.394000053405762,-1 C5.59499979019165,9.427000045776367 -4.422999858856201,18.878999710083008 -12.526000022888184,18.878999710083008 C-20.628999710083008,18.878999710083008 -17.101999282836914,10.899999618530273 -11.303000450134277,0.4729999899864197 C-5.504000186920166,-9.954000473022461 3.884000062942505,-19.32200050354004 8.472000122070312,-18.878999710083008 C16.53700065612793,-18.100000381469727 17.19300079345703,-11.427000045776367 11.394000053405762,-1z"></path></g></g><g style="display: block;" transform="matrix(1,0,0,1,375.74700927734375,326.04498291015625)" opacity="1"><g opacity="1" transform="matrix(1,0,0,1,0,0)"><path fill="rgb(170,205,219)" fill-opacity="1" d=" M-14.670999526977539,0 C-8.871999740600586,10.427000045776367 2.3959999084472656,18.878999710083008 10.49899959564209,18.878999710083008 C18.601999282836914,18.878999710083008 18.173999786376953,11.406999588012695 12.375,0.9800000190734863 C6.576000213623047,-9.446999549865723 -2.3959999084472656,-18.878999710083008 -10.49899959564209,-18.878999710083008 C-18.601999282836914,-18.878999710083008 -20.469999313354492,-10.427000045776367 -14.670999526977539,0z"></path></g></g><g style="display: block;" transform="matrix(1,0,0,1,257.489990234375,387.1969909667969)" opacity="1"><g opacity="1" transform="matrix(1,0,0,1,0,0)"><path stroke-linecap="butt" stroke-linejoin="miter" fill-opacity="0" stroke-miterlimit="10" stroke="rgb(114,152,169)" stroke-opacity="1" stroke-width="8" d=" M166.7830047607422,28.20199966430664 C165.21299743652344,96.08699798583984 108.52300262451172,118.3030014038086 -0.10300000011920929,118.3030014038086 C-99.06199645996094,118.3030014038086 -166.99000549316406,96.10299682617188 -166.99000549316406,28.20199966430664 C-166.99000549316406,-56.95899963378906 -113.2770004272461,-113.14700317382812 -0.10300000011920929,-113.14700317382812 C109.28600311279297,-113.14700317382812 168.74099731445312,-56.5 166.7830047607422,28.20199966430664z"></path></g></g><g style="display: block;" transform="matrix(1,0,0,1,0,-2)" opacity="1"><g opacity="1" transform="matrix(1,0,0,1,252.44700622558594,422.8599853515625)"><path fill="rgb(158,192,206)" fill-opacity="1" d=" M-6.993000030517578,-22.246999740600586 C5.271999835968018,-23.93899917602539 20.031999588012695,-25.54800033569336 22.920000076293945,-14.61400032043457 C25.808000564575195,-3.680000066757202 24.777000427246094,4.984000205993652 19.826000213623047,13.854999542236328 C14.875,22.72599983215332 -0.5979999899864197,25.201000213623047 -7.611999988555908,22.312999725341797 C-14.62600040435791,19.424999237060547 -20.195999145507812,13.64900016784668 -23.702999114990234,2.302999973297119 C-27.209999084472656,-9.043000221252441 -18.95800018310547,-20.597000122070312 -6.993000030517578,-22.246999740600586z"></path></g><g opacity="1" transform="matrix(1,0,0,1,252.44700622558594,417.6050109863281)"><path fill="rgb(18,18,18)" fill-opacity="1" d=" M-6.993000030517578,-22.246999740600586 C5.271999835968018,-23.93899917602539 20.031999588012695,-25.54800033569336 22.920000076293945,-14.61400032043457 C25.808000564575195,-3.680000066757202 24.777000427246094,4.984000205993652 19.826000213623047,13.854999542236328 C14.875,22.72599983215332 -0.5979999899864197,25.201000213623047 -7.611999988555908,22.312999725341797 C-14.62600040435791,19.424999237060547 -20.195999145507812,13.64900016784668 -23.702999114990234,2.302999973297119 C-27.209999084472656,-9.043000221252441 -18.95800018310547,-20.597000122070312 -6.993000030517578,-22.246999740600586z"></path></g><g opacity="0.33" transform="matrix(1,0,0,1,256.3290100097656,423.15899658203125)"><path stroke-linecap="round" stroke-linejoin="round" fill-opacity="0" stroke="rgb(166,205,221)" stroke-opacity="1" stroke-width="6" d=" M13.246999740600586,-10.368000030517578 C13.51099967956543,-5.433000087738037 12.395999908447266,-1.034000039100647 9.899999618530273,3.437000036239624 C6.327000141143799,9.83899974822998 -4.8379998207092285,11.625 -9.899999618530273,9.541000366210938 C-11.324999809265137,8.954000473022461 -12.47599983215332,7.985000133514404 -13.28499984741211,6.801000118255615"></path></g><g opacity="0.5" transform="matrix(1,0,0,1,247.76699829101562,405.7640075683594)"><path fill="rgb(166,205,221)" fill-opacity="1" d=" M8.154000282287598,-2.6530001163482666 C9.050999641418457,0.19499999284744263 5.133999824523926,4.0970001220703125 1.6460000276565552,5.195000171661377 C-1.8420000076293945,6.293000221252441 -7.258999824523926,5.170000076293945 -8.156000137329102,2.322000026702881 C-9.053000450134277,-0.5260000228881836 -5.089000225067139,-4.021999835968018 -1.6009999513626099,-5.119999885559082 C1.8869999647140503,-6.2179999351501465 7.256999969482422,-5.500999927520752 8.154000282287598,-2.6530001163482666z"></path></g></g><g style="display: block;" transform="matrix(1,0,0,1,0.0009765625,-3.000030517578125)" opacity="1"><g opacity="1" transform="matrix(1,0,0,1,253.21099853515625,348.4519958496094)"><path fill="rgb(158,192,206)" fill-opacity="1" d=" M-21.371999740600586,6.7769999504089355 C-17.886999130249023,17 -11.057999610900879,23.899999618530273 0.7009999752044678,23.2810001373291 C12.460000038146973,22.66200065612793 20.917999267578125,17.711000442504883 22.36199951171875,10.902999877929688 C23.805999755859375,4.09499979019165 22.56800079345703,-7.25 19.474000930786133,-15.295999526977539 C16.3799991607666,-23.341999053955078 5.033999919891357,-24.57900047302246 -4.6620001792907715,-22.309999465942383 C-14.357999801635742,-20.041000366210938 -27.56100082397461,-11.376999855041504 -21.371999740600586,6.7769999504089355z"></path></g><g opacity="1" transform="matrix(1,0,0,1,253.21099853515625,343.1969909667969)"><path fill="rgb(18,18,18)" fill-opacity="1" d=" M-21.371999740600586,6.7769999504089355 C-17.886999130249023,17 -11.057999610900879,23.899999618530273 0.7009999752044678,23.2810001373291 C12.460000038146973,22.66200065612793 20.917999267578125,17.711000442504883 22.36199951171875,10.902999877929688 C23.805999755859375,4.09499979019165 22.56800079345703,-7.25 19.474000930786133,-15.295999526977539 C16.3799991607666,-23.341999053955078 5.033999919891357,-24.57900047302246 -4.6620001792907715,-22.309999465942383 C-14.357999801635742,-20.041000366210938 -27.56100082397461,-11.376999855041504 -21.371999740600586,6.7769999504089355z"></path></g><g opacity="0.33" transform="matrix(1,0,0,1,257.18701171875,349.1210021972656)"><path stroke-linecap="round" stroke-linejoin="round" fill-opacity="0" stroke="rgb(166,205,221)" stroke-opacity="1" stroke-width="6" d=" M-10.901000022888184,8.638999938964844 C-8.52400016784668,9.107000350952148 -6.051000118255615,9.291999816894531 -3.5209999084472656,9.159000396728516 C4.0970001220703125,8.758000373840332 9.576000213623047,5.550000190734863 10.51200008392334,1.1390000581741333 C11.09000015258789,-1.5850000381469727 11.005000114440918,-5.429999828338623 10.383000373840332,-9.201000213623047"></path></g><g opacity="0.5" transform="matrix(1,0,0,1,249.4250030517578,331.9289855957031)"><path fill="rgb(166,205,221)" fill-opacity="1" d=" M8.107999801635742,-2.5950000286102295 C8.807000160217285,0.40299999713897705 4.576000213623047,4.541999816894531 0.753000020980835,5.433000087738037 C-3.069999933242798,6.323999881744385 -7.388999938964844,5.548999786376953 -8.088000297546387,2.5510001182556152 C-8.786999702453613,-0.44699999690055847 -5.6020002365112305,-4.5329999923706055 -1.7790000438690186,-5.423999786376953 C2.0439999103546143,-6.315000057220459 7.408999919891357,-5.5929999351501465 8.107999801635742,-2.5950000286102295z"></path></g></g><g style="display: block;" transform="matrix(1,0,0,1,256.989990234375,81.34500122070312)" opacity="1"><g opacity="1" transform="matrix(1,0,0,1,0,0)"><path stroke-linecap="butt" stroke-linejoin="miter" fill-opacity="0" stroke-miterlimit="10" stroke="rgb(9,9,9)" stroke-opacity="1" stroke-width="16" d=" M74.99500274658203,-30.913999557495117 C74.99500274658203,-46.57699966430664 41.41899871826172,-59.27299880981445 0,-59.27299880981445 C-41.41899871826172,-59.27299880981445 -74.99500274658203,-46.57699966430664 -74.99500274658203,-30.913999557495117 C-74.99500274658203,-24.176000595092773 -74.99500274658203,24.176000595092773 -74.99500274658203,30.913999557495117 C-74.99500274658203,46.57699966430664 -41.41899871826172,59.27299880981445 0,59.27299880981445 C41.41899871826172,59.27299880981445 74.99500274658203,46.57699966430664 74.99500274658203,30.913999557495117 C74.99500274658203,24.176000595092773 74.99500274658203,-24.176000595092773 74.99500274658203,-30.913999557495117z"></path><path fill="rgb(59,52,52)" fill-opacity="1" d=" M74.99500274658203,-30.913999557495117 C74.99500274658203,-46.57699966430664 41.41899871826172,-59.27299880981445 0,-59.27299880981445 C-41.41899871826172,-59.27299880981445 -74.99500274658203,-46.57699966430664 -74.99500274658203,-30.913999557495117 C-74.99500274658203,-24.176000595092773 -74.99500274658203,24.176000595092773 -74.99500274658203,30.913999557495117 C-74.99500274658203,46.57699966430664 -41.41899871826172,59.27299880981445 0,59.27299880981445 C41.41899871826172,59.27299880981445 74.99500274658203,46.57699966430664 74.99500274658203,30.913999557495117 C74.99500274658203,24.176000595092773 74.99500274658203,-24.176000595092773 74.99500274658203,-30.913999557495117z"></path></g></g><g style="display: block;" transform="matrix(1,0,0,1,-0.5,9.499969482421875)" opacity="1"><g opacity="1" transform="matrix(1,0,0,1,222.53500366210938,46.874000549316406)"><path fill="rgb(83,72,73)" fill-opacity="1" d=" M-15.020000457763672,-26.760000228881836 C-18.23699951171875,-25.67099952697754 -20.531999588012695,-22.500999450683594 -20.531999588012695,-19.2189998626709 C-20.531999588012695,-19.2189998626709 -20.531999588012695,22.854999542236328 -20.531999588012695,22.854999542236328 C-20.531999588012695,29.673999786376953 -11.348999977111816,33.94900131225586 -0.019999999552965164,32.40599822998047 C11.309000015258789,30.863000869750977 20.492000579833984,24.083999633789062 20.492000579833984,17.264999389648438 C20.492000579833984,1.4470000267028809 20.607999801635742,-19.177000045776367 20.44499969482422,-26.820999145507812 C20.367000579833984,-30.474000930786133 17.451000213623047,-33.018001556396484 13.791000366210938,-32.69300079345703 C11.807000160217285,-32.516998291015625 9.786999702453613,-32.290000915527344 7.736000061035156,-32.01100158691406 C-0.49300000071525574,-30.889999389648438 -8.237000465393066,-29.05500030517578 -15.020000457763672,-26.760000228881836z"></path></g><g opacity="1" transform="matrix(1,0,0,1,299.052001953125,50.777000427246094)"><path fill="rgb(45,40,39)" fill-opacity="1" d=" M13.446000099182129,-28.89699935913086 C16.2450008392334,-27.562000274658203 18.20599937438965,-23.655000686645508 18.159000396728516,-19.60300064086914 C18.159000396728516,-19.60300064086914 17.650999069213867,23.95199966430664 17.650999069213867,23.95199966430664 C17.55299949645996,32.36899948120117 9.456999778747559,37.67300033569336 -0.4320000112056732,35.79899978637695 C-10.321000099182129,33.92499923706055 -18.256999969482422,25.58099937438965 -18.159000396728516,17.163999557495117 C-17.930999755859375,-2.36299991607666 -17.83300018310547,-19.43899917602539 -17.579999923706055,-28.875 C-17.458999633789062,-33.38399887084961 -14.871000289916992,-36.53499984741211 -11.673999786376953,-36.143001556396484 C-9.940999984741211,-35.930999755859375 -8.177000045776367,-35.65599822998047 -6.38700008392334,-35.31700134277344 C0.7960000038146973,-33.95500183105469 7.545000076293945,-31.711999893188477 13.446000099182129,-28.89699935913086z"></path></g></g><g style="display: block;" transform="matrix(1,0,0,1,256.989990234375,107.34698486328125)" opacity="1"><g opacity="1" transform="matrix(1,0,0,1,0,0)"><path fill="rgb(163,5,33)" fill-opacity="1" d=" M74.99500274658203,-15.321999549865723 C74.99500274658203,-30.985000610351562 41.41899871826172,-43.68199920654297 0,-43.68199920654297 C-41.41899871826172,-43.68199920654297 -74.99500274658203,-30.985000610351562 -74.99500274658203,-15.321999549865723 C-74.99500274658203,-8.583999633789062 -74.99500274658203,8.583999633789062 -74.99500274658203,15.321999549865723 C-74.99500274658203,30.985000610351562 -41.41899871826172,43.68199920654297 0,43.68199920654297 C41.41899871826172,43.68199920654297 74.99500274658203,30.985000610351562 74.99500274658203,15.321999549865723 C74.99500274658203,8.583999633789062 74.99500274658203,-8.583999633789062 74.99500274658203,-15.321999549865723z"></path></g></g><g style="display: block;" transform="matrix(1,0,0,1,219.37399291992188,98.24099731445312)" opacity="0.5"><g opacity="1" transform="matrix(1,0,0,1,0,0)"><path fill="rgb(255,0,0)" fill-opacity="1" d=" M-15.98799991607666,-25.979999542236328 C-19.41200065612793,-24.763999938964844 -21.854999542236328,-21.503999710083008 -21.854999542236328,-18.222000122070312 C-21.854999542236328,-18.222000122070312 -21.854999542236328,23.851999282836914 -21.854999542236328,23.851999282836914 C-21.854999542236328,30.67099952697754 -12.079999923706055,34.58399963378906 -0.020999999716877937,32.59199905395508 C12.038000106811523,30.600000381469727 21.812999725341797,23.458999633789062 21.812999725341797,16.639999389648438 C21.812999725341797,0.8220000267028809 21.93600082397461,-19.80699920654297 21.761999130249023,-27.444000244140625 C21.679000854492188,-31.093000411987305 18.576000213623047,-33.52399826049805 14.680000305175781,-33.05400085449219 C4.408999919891357,-31.815000534057617 -6.322000026702881,-29.41200065612793 -15.98799991607666,-25.979999542236328z"></path></g></g><g style="display: block;" transform="matrix(1,0,0,1,303.54400634765625,93.55899047851562)" opacity="0.33"><g opacity="1" transform="matrix(1,0,0,1,0,0)"><path fill="rgb(89,9,2)" fill-opacity="1" d=" M11.6899995803833,-19.260000228881836 C14.194000244140625,-18.17300033569336 15.979000091552734,-15.543999671936035 15.979000091552734,-13.001999855041504 C15.979000091552734,-13.001999855041504 15.979000091552734,19.586999893188477 15.979000091552734,19.586999893188477 C15.979000091552734,24.868000030517578 8.831999778747559,27.485000610351562 0.014999999664723873,25.43199920654297 C-8.800999641418457,23.378999710083008 -15.947999954223633,17.43199920654297 -15.947999954223633,12.151000022888184 C-15.947999954223633,-0.10100000351667404 -16.038000106811523,-16.084999084472656 -15.91100025177002,-21.993000030517578 C-15.850000381469727,-24.81599998474121 -13.581000328063965,-26.566999435424805 -10.732999801635742,-26.038000106811523 C-9.189000129699707,-25.750999450683594 -7.616000175476074,-25.42300033569336 -6.019999980926514,-25.051000595092773 C0.3840000033378601,-23.55900001525879 6.410999774932861,-21.551000595092773 11.6899995803833,-19.260000228881836z"></path></g></g><g style="display: block;" transform="matrix(1,0,0,1,256.989990234375,120.69198608398438)" opacity="1"><g opacity="1" transform="matrix(1,0,0,1,0,0)"><path fill="rgb(44,40,40)" fill-opacity="1" d=" M131.197998046875,0 C131.197998046875,24.89699935913086 72.45899963378906,45.07899856567383 0,45.07899856567383 C-72.45899963378906,45.07899856567383 -131.197998046875,24.89699935913086 -131.197998046875,0 C-131.197998046875,-24.89699935913086 -72.45899963378906,-45.07899856567383 0,-45.07899856567383 C72.45899963378906,-45.07899856567383 131.197998046875,-24.89699935913086 131.197998046875,0z"></path><path stroke-linecap="butt" stroke-linejoin="miter" fill-opacity="0" stroke-miterlimit="10" stroke="rgb(9,9,9)" stroke-opacity="1" stroke-width="8" d=" M131.197998046875,0 C131.197998046875,24.89699935913086 72.45899963378906,45.07899856567383 0,45.07899856567383 C-72.45899963378906,45.07899856567383 -131.197998046875,24.89699935913086 -131.197998046875,0 C-131.197998046875,-24.89699935913086 -72.45899963378906,-45.07899856567383 0,-45.07899856567383 C72.45899963378906,-45.07899856567383 131.197998046875,-24.89699935913086 131.197998046875,0z"></path></g></g><g style="display: block;" transform="matrix(1,0,0,1,256.989990234375,29.12799072265625)" opacity="1"><g opacity="1" transform="matrix(1,0,0,1,0,0)"><path stroke-linecap="round" stroke-linejoin="round" fill-opacity="0" stroke-dasharray=" 20 10" stroke-dashoffset="0" stroke="rgb(255,255,255)" stroke-opacity="1" stroke-width="6" d=" M-41.893001556396484,0.8679999709129333 C-32.566001892089844,-1.5820000171661377 -21.888999938964844,-3.1659998893737793 -10.567999839782715,-3.7750000953674316"></path></g></g><g style="display: block;" transform="matrix(1,0,0,1,256.968994140625,191.18798828125)" opacity="1"><g opacity="1" transform="matrix(1,0,0,1,0,0)"><path fill="url(#__lottie_element_8401)" fill-opacity="1" d=" M-46.45399856567383,-104.9209976196289 C-58.99300003051758,-103.13600158691406 -68.71299743652344,-99.4229965209961 -75.03800201416016,-91.7249984741211 C-77.73899841308594,-88.43699645996094 -86.60299682617188,-79.98699951171875 -93.1780014038086,-64.76799774169922 C-102.32499694824219,-43.59700012207031 -108.70500183105469,-21.124000549316406 -108.70500183105469,4.783999919891357 C-108.70500183105469,47.25299835205078 -84.35099792480469,75.81800079345703 -48.84600067138672,88.89900207519531 C-43.154998779296875,90.99600219726562 -36.75299835205078,92.65899658203125 -29.937000274658203,93.88400268554688 C-10.99899959564209,97.28800201416016 11.131999969482422,97.31400299072266 30.06599998474121,93.89099884033203 C36.4370002746582,92.73899841308594 42.44499969482422,91.1969985961914 47.847999572753906,89.26200103759766 C83.89299774169922,76.35099792480469 108.70500183105469,47.650001525878906 108.70500183105469,4.783999919891357 C108.70500183105469,-20.88599967956543 101.93599700927734,-44.124000549316406 90.71499633789062,-64.47599792480469 C83.69499969482422,-77.20899963378906 77.4990005493164,-84.7509994506836 74.39600372314453,-88.14800262451172 C65.24800109863281,-98.16400146484375 54.055999755859375,-102.73899841308594 39.72200012207031,-104.8219985961914 C28.790000915527344,-106.41100311279297 -33.4630012512207,-106.7699966430664 -46.45399856567383,-104.9209976196289z"></path></g></g><g style="display: block;" transform="matrix(1,0,0,1,256.968994140625,191.18798828125)" opacity="1"><g opacity="1" transform="matrix(1,0,0,1,0,0)"><path stroke-linecap="round" stroke-linejoin="round" fill-opacity="0" stroke="rgb(114,152,169)" stroke-opacity="1" stroke-width="8" d=" M35.257999420166016,92.84700012207031 C39.709999084472656,91.85700225830078 43.9379997253418,90.66200256347656 47.847999572753906,89.26200103759766 C83.89299774169922,76.35099792480469 108.70500183105469,47.650001525878906 108.70500183105469,4.783999919891357 C108.70500183105469,-20.88599967956543 101.93599700927734,-44.124000549316406 90.71499633789062,-64.47599792480469 C83.69499969482422,-77.20899963378906 77.4990005493164,-84.7509994506836 74.39600372314453,-88.14800262451172 C65.24800109863281,-98.16400146484375 54.055999755859375,-102.73899841308594 39.72200012207031,-104.8219985961914 C28.790000915527344,-106.41100311279297 -33.4630012512207,-106.7699966430664 -46.45399856567383,-104.9209976196289 C-46.45399856567383,-104.9209976196289 -46.45399856567383,-104.9209976196289 -46.45399856567383,-104.9209976196289 C-58.99300003051758,-103.13600158691406 -68.71299743652344,-99.4229965209961 -75.03800201416016,-91.7249984741211 C-77.73899841308594,-88.43699645996094 -86.60299682617188,-79.98699951171875 -93.1780014038086,-64.76799774169922 C-102.32499694824219,-43.59700012207031 -108.70500183105469,-21.124000549316406 -108.70500183105469,4.783999919891357 C-108.70500183105469,47.25299835205078 -84.35099792480469,75.81800079345703 -48.84600067138672,88.89900207519531 C-43.92599868774414,90.71199798583984 -38.4739990234375,92.20099639892578 -32.68299865722656,93.36199951171875"></path></g></g><g style="display: block;" transform="matrix(0.7924699783325195,0,0,0.7924699783325195,256.989990234375,134.8359832763672)" opacity="1"><g opacity="1" transform="matrix(1,0,0,1,0,0)"><path fill="rgb(44,40,40)" fill-opacity="1" d=" M-0.9240000247955322,-73.80899810791016 C-130.86000061035156,-74.44599914550781 -144.29100036621094,-25.04400062561035 -144.29100036621094,-25.04400062561035 C-144.29100036621094,-25.04400062561035 -137.73199462890625,-18.624000549316406 -124.63899993896484,-8.241000175476074 C-108.99600219726562,-39.387001037597656 -66.09100341796875,-51.12200164794922 -1.562000036239624,-53.36600112915039 C58.7239990234375,-55.4630012512207 104.50399780273438,-37.41899871826172 123.01399993896484,-4.669000148773193 C134.88299560546875,-18.558000564575195 139.6320037841797,-31.41900062561035 139.6320037841797,-31.41900062561035 C139.6320037841797,-31.41900062561035 133.6959991455078,-73.14900207519531 -0.9240000247955322,-73.80899810791016z"></path></g></g><g style="display: block;" transform="matrix(1,0,0,1,256.989990234375,120.69198608398438)" opacity="1"><g opacity="1" transform="matrix(1,0,0,1,0,0)"><path stroke-linecap="butt" stroke-linejoin="miter" fill-opacity="0" stroke-miterlimit="10" stroke="rgb(9,9,9)" stroke-opacity="1" stroke-width="8" d=" M-131.197998046875,0 C-131.197998046875,-24.89699935913086 -72.45899963378906,-45.07899856567383 0,-45.07899856567383 C72.45899963378906,-45.07899856567383 131.197998046875,-24.89699935913086 131.197998046875,0"></path></g></g><g style="display: block;" transform="matrix(1.0383700132369995,0,0,1.58187997341156,257.2611389160156,193.2056121826172)" opacity="1"><path stroke-linecap="round" stroke-linejoin="round" fill-opacity="0" stroke="rgb(229,243,249)" stroke-opacity="1" stroke-width="4" d=" M71.26200103759766,32.26499938964844 C65.53700256347656,36.81399917602539 41.84299850463867,47.28799819946289 0.6579999923706055,47.650001525878906 C-41.22100067138672,48.018001556396484 -66.20999908447266,37.840999603271484 -71.47599792480469,33.00600051879883 C-73.38200378417969,31.256000518798828 -82.9489974975586,27.972999572753906 -76.30400085449219,33.44300079345703 C-61.72999954223633,45.439998626708984 -33.354000091552734,51.73899841308594 -0.7350000143051147,51.73899841308594 C32.92499923706055,51.73899841308594 62.06700134277344,45.03300094604492 76.18699645996094,32.27799987792969 C81.98899841308594,27.03700065612793 76.98699951171875,27.715999603271484 71.26200103759766,32.26499938964844z"></path><path fill="rgb(229,243,249)" fill-opacity="1" d=" M71.26200103759766,32.26499938964844 C65.53700256347656,36.81399917602539 41.84299850463867,47.28799819946289 0.6579999923706055,47.650001525878906 C-41.22100067138672,48.018001556396484 -66.20999908447266,37.840999603271484 -71.47599792480469,33.00600051879883 C-73.38200378417969,31.256000518798828 -82.9489974975586,27.972999572753906 -76.30400085449219,33.44300079345703 C-61.72999954223633,45.439998626708984 -33.354000091552734,51.73899841308594 -0.7350000143051147,51.73899841308594 C32.92499923706055,51.73899841308594 62.06700134277344,45.03300094604492 76.18699645996094,32.27799987792969 C81.98899841308594,27.03700065612793 76.98699951171875,27.715999603271484 71.26200103759766,32.26499938964844z"></path><g opacity="1" transform="matrix(1,0,0,1,0,0)"></g></g><g style="display: block;" transform="matrix(1.090000033378601,0,0,1.3300000429153442,256.968994140625,179.6019744873047)" opacity="1"><g opacity="1" transform="matrix(0.9999996423721313,0.0008552112267352641,-0.0008552112267352641,0.9999996423721313,0,0)"><path fill="url(#__lottie_element_8459)" fill-opacity="1" d=" M86.96800231933594,1.8450000286102295 C86.96800231933594,33.81399917602539 50.082000732421875,50.987998962402344 0,50.987998962402344 C-50.082000732421875,50.987998962402344 -86.96800231933594,33.81399917602539 -86.96800231933594,1.8450000286102295 C-86.96800231933594,-14.092000007629395 -79.71600341796875,-29.006999969482422 -64.822998046875,-39.95899963378906 C-49.840999603271484,-50.97700119018555 -30.84000015258789,-52.50299835205078 0,-52.50299835205078 C31.533000946044922,-52.50299835205078 51.417999267578125,-50.141998291015625 66.625,-38.00600051879883 C80.08200073242188,-27.266000747680664 86.96800231933594,-13.163999557495117 86.96800231933594,1.8450000286102295z"></path></g></g><g style="display: block;" transform="matrix(1.0583699941635132,0,0,1.6123499870300293,256.7859802246094,191.010498046875)" opacity="1"><path stroke-linecap="round" stroke-linejoin="round" fill-opacity="0" stroke-dasharray=" 15 8" stroke-dashoffset="0" stroke="rgb(255,255,255)" stroke-opacity="1" stroke-width="5" d=" M-90.57499694824219,-2.5820000171661377 C-90.6449966430664,-3.3420000076293945 -90.68099975585938,-4.11299991607666 -90.68099975585938,-4.894999980926514 C-90.68099975585938,-12.824999809265137 -88.052001953125,-20.448999404907227 -82.70999908447266,-27.236000061035156"></path><g opacity="1" transform="matrix(1,0,0,1,0,0)"></g></g><g style="display: block;" transform="matrix(0.9593260288238525,0.14811721444129944,-0.1553700864315033,1.0063014030456543,205.5675506591797,146.9104766845703)" opacity="0.66"><g opacity="1" transform="matrix(1,0,0,1,0,0)"><path fill="rgb(158,192,206)" fill-opacity="1" d=" M23.64299964904785,0 C23.64299964904785,14.222000122070312 13.057999610900879,25.750999450683594 0,25.750999450683594 C-13.057999610900879,25.750999450683594 -23.64299964904785,14.222000122070312 -23.64299964904785,0 C-23.64299964904785,-14.222000122070312 -13.057999610900879,-25.750999450683594 0,-25.750999450683594 C13.057999610900879,-25.750999450683594 23.64299964904785,-14.222000122070312 23.64299964904785,0z"></path></g></g><g style="display: block;" transform="matrix(0.9593260288238525,0.14811721444129944,-0.1553700864315033,1.0063014030456543,206.67330932617188,139.74862670898438)" opacity="1"><g opacity="1" transform="matrix(1,0,0,1,0,0)"><path fill="rgb(18,18,18)" fill-opacity="1" d=" M23.64299964904785,0 C23.64299964904785,13.057999610900879 13.057999610900879,23.64299964904785 0,23.64299964904785 C-13.057999610900879,23.64299964904785 -23.64299964904785,13.057999610900879 -23.64299964904785,0 C-23.64299964904785,-13.057999610900879 -13.057999610900879,-23.64299964904785 0,-23.64299964904785 C13.057999610900879,-23.64299964904785 23.64299964904785,-13.057999610900879 23.64299964904785,0z"></path></g></g><g style="display: block;" transform="matrix(0.9593260288238525,0.14811721444129944,-0.1553700864315033,1.0063014030456543,209.6841278076172,150.99960327148438)" opacity="0.33"><g opacity="1" transform="matrix(1,0,0,1,0,0)"><path stroke-linecap="round" stroke-linejoin="round" fill-opacity="0" stroke="rgb(166,205,221)" stroke-opacity="1" stroke-width="6" d=" M10.63700008392334,-5.264999866485596 C7.363999843597412,3.2109999656677246 -2.1610000133514404,7.428999900817871 -10.63700008392334,4.156000137329102"></path></g></g><g style="display: block;" transform="matrix(0.9593260288238525,0.14811721444129944,-0.1553700864315033,1.0063014030456543,206.8898468017578,125.78866577148438)" opacity="1"><g opacity="1" transform="matrix(1,0,0,1,0,0)"><path fill="rgb(255,255,255)" fill-opacity="1" d=" M10.371000289916992,0.02800000086426735 C10.937000274658203,3.4809999465942383 5.835999965667725,1.4809999465942383 0.10300000011920929,2.4210000038146973 C-5.630000114440918,3.3610000610351562 -9.812000274658203,6.960999965667725 -10.390999794006348,3.430999994277954 C-10.75100040435791,1.2319999933242798 -6.813000202178955,-3.8559999465942383 -1.0800000429153442,-4.796000003814697 C4.6529998779296875,-5.736000061035156 10.01099967956543,-2.1700000762939453 10.371000289916992,0.02800000086426735z"></path></g></g><g style="display: block;" transform="matrix(0.9759875535964966,-0.1584600955247879,0.16026148200035095,0.9870826601982117,307.6606750488281,148.3108367919922)" opacity="0.66"><g opacity="1" transform="matrix(1,0,0,1,0,0)"><path fill="rgb(158,192,206)" fill-opacity="1" d=" M23.64299964904785,0 C23.64299964904785,14.222000122070312 13.057999610900879,25.750999450683594 0,25.750999450683594 C-13.057999610900879,25.750999450683594 -23.64299964904785,14.222000122070312 -23.64299964904785,0 C-23.64299964904785,-14.222000122070312 -13.057999610900879,-25.750999450683594 0,-25.750999450683594 C13.057999610900879,-25.750999450683594 23.64299964904785,-14.222000122070312 23.64299964904785,0z"></path></g></g><g style="display: block;" transform="matrix(0.9759875535964966,-0.1584600955247879,0.16026148200035095,0.9870826601982117,306.52008056640625,141.2857666015625)" opacity="1"><path stroke-linecap="butt" stroke-linejoin="miter" fill-opacity="0" stroke-miterlimit="4" stroke="rgb(0,0,0)" stroke-opacity="1" stroke-width="0" d=" M23.64299964904785,0 C23.64299964904785,13.057999610900879 13.057999610900879,23.64299964904785 0,23.64299964904785 C-13.057999610900879,23.64299964904785 -23.64299964904785,13.057999610900879 -23.64299964904785,0 C-23.64299964904785,-13.057999610900879 -13.057999610900879,-23.64299964904785 0,-23.64299964904785 C13.057999610900879,-23.64299964904785 23.64299964904785,-13.057999610900879 23.64299964904785,0z"></path><g opacity="1" transform="matrix(1,0,0,1,0,0)"><path fill="rgb(18,18,18)" fill-opacity="1" d=" M23.64299964904785,0 C23.64299964904785,13.057999610900879 13.057999610900879,23.64299964904785 0,23.64299964904785 C-13.057999610900879,23.64299964904785 -23.64299964904785,13.057999610900879 -23.64299964904785,0 C-23.64299964904785,-13.057999610900879 -13.057999610900879,-23.64299964904785 0,-23.64299964904785 C13.057999610900879,-23.64299964904785 23.64299964904785,-13.057999610900879 23.64299964904785,0z"></path></g></g><g style="display: block;" transform="matrix(0.9759875535964966,-0.1584600955247879,0.16026148200035095,0.9870826601982117,312.9158020019531,150.85354614257812)" opacity="0.33"><g opacity="1" transform="matrix(1,0,0,1,0,0)"><path stroke-linecap="round" stroke-linejoin="round" fill-opacity="0" stroke="rgb(166,205,221)" stroke-opacity="1" stroke-width="6" d=" M10.63700008392334,-5.264999866485596 C7.363999843597412,3.2109999656677246 -2.1610000133514404,7.428999900817871 -10.63700008392334,4.156000137329102"></path></g></g><g style="display: block;" transform="matrix(0.9879849553108215,0.05012410134077072,-0.04605637118220329,0.99846351146698,304.9664306640625,127.42852783203125)" opacity="1"><g opacity="1" transform="matrix(1,0,0,1,0,0)"><path fill="rgb(255,255,255)" fill-opacity="1" d=" M10.371000289916992,0.02800000086426735 C10.937000274658203,3.4809999465942383 5.835999965667725,1.4809999465942383 0.10300000011920929,2.4210000038146973 C-5.630000114440918,3.3610000610351562 -9.812000274658203,6.960999965667725 -10.390999794006348,3.430999994277954 C-10.75100040435791,1.2319999933242798 -6.813000202178955,-3.8559999465942383 -1.0800000429153442,-4.796000003814697 C4.6529998779296875,-5.736000061035156 10.01099967956543,-2.1700000762939453 10.371000289916992,0.02800000086426735z"></path><path fill="rgb(255,255,255)" fill-opacity="1" d=" M10.371000289916992,0.02800000086426735 C10.937000274658203,3.4809999465942383 5.835999965667725,1.4809999465942383 0.10300000011920929,2.4210000038146973 C-5.630000114440918,3.3610000610351562 -9.812000274658203,6.960999965667725 -10.390999794006348,3.430999994277954 C-10.75100040435791,1.2319999933242798 -6.813000202178955,-3.8559999465942383 -1.0800000429153442,-4.796000003814697 C4.6529998779296875,-5.736000061035156 10.01099967956543,-2.1700000762939453 10.371000289916992,0.02800000086426735z"></path></g></g><g style="display: block;" transform="matrix(0.9995239973068237,-0.030852509662508965,0.030852509662508965,0.9995239973068237,255.5248260498047,185.0426483154297)" opacity="0.66"><g opacity="1" transform="matrix(1,0,0,1,0,0)"><path fill="rgb(158,192,206)" fill-opacity="1" d=" M18.527000427246094,-4.50600004196167 C18.527000427246094,4.480999946594238 10.232000350952148,20.777999877929688 0,20.777999877929688 C-10.232000350952148,20.777999877929688 -18.527000427246094,4.480999946594238 -18.527000427246094,-4.50600004196167 C-18.527000427246094,-13.493000030517578 -10.232000350952148,-20.777999877929688 0,-20.777999877929688 C10.232000350952148,-20.777999877929688 18.527000427246094,-13.493000030517578 18.527000427246094,-4.50600004196167z"></path></g></g><g style="display: block;" transform="matrix(0.562415361404419,-0.8268548846244812,0.8268548846244812,0.562415361404419,257.6648864746094,170.26083374023438)" opacity="1"><g opacity="1" transform="matrix(1,0,0,1,0,0)"><path fill="rgb(255,121,0)" fill-opacity="1" d=" M20.860000610351562,-15.291000366210938 C19.86199951171875,-16.86199951171875 19.048999786376953,-17.472000122070312 15.151000022888184,-17.04199981689453 C11.97700023651123,-16.691999435424805 -11.71399974822998,-12.435999870300293 -14.605999946594238,-10.597999572753906 C-21.625999450683594,-6.13700008392334 -23.701000213623047,3.1710000038146973 -19.239999771118164,10.190999984741211 C-14.779000282287598,17.211000442504883 -5.46999979019165,19.28499984741211 1.5499999523162842,14.824000358581543 C4.434000015258789,12.991000175476074 18.349000930786133,-6.6479997634887695 20.066999435424805,-9.477999687194824 C22.05500030517578,-12.751999855041504 21.849000930786133,-13.734999656677246 20.860000610351562,-15.291000366210938z"></path><path stroke-linecap="butt" stroke-linejoin="miter" fill-opacity="0" stroke-miterlimit="10" stroke="rgb(179,42,0)" stroke-opacity="1" stroke-width="6" d=" M20.860000610351562,-15.291000366210938 C19.86199951171875,-16.86199951171875 19.048999786376953,-17.472000122070312 15.151000022888184,-17.04199981689453 C11.97700023651123,-16.691999435424805 -11.71399974822998,-12.435999870300293 -14.605999946594238,-10.597999572753906 C-21.625999450683594,-6.13700008392334 -23.701000213623047,3.1710000038146973 -19.239999771118164,10.190999984741211 C-14.779000282287598,17.211000442504883 -5.46999979019165,19.28499984741211 1.5499999523162842,14.824000358581543 C4.434000015258789,12.991000175476074 18.349000930786133,-6.6479997634887695 20.066999435424805,-9.477999687194824 C22.05500030517578,-12.751999855041504 21.849000930786133,-13.734999656677246 20.860000610351562,-15.291000366210938z"></path></g></g><g style="display: block;" transform="matrix(0.562415361404419,-0.8268548846244812,0.8268548846244812,0.562415361404419,259.9847412109375,171.75050354003906)" opacity="0.5"><g opacity="1" transform="matrix(1,0,0,1,0,0)"><path fill="rgb(179,42,0)" fill-opacity="1" d=" M-13.86400032043457,13.472999572753906 C-13.86400032043457,13.472999572753906 12.614999771118164,-12.859000205993652 12.614999771118164,-12.859000205993652 C12.614999771118164,-12.859000205993652 -22.784000396728516,1.0889999866485596 -22.784000396728516,1.0889999866485596 C-22.784000396728516,1.0889999866485596 -13.86400032043457,13.472999572753906 -13.86400032043457,13.472999572753906z"></path></g></g><g style="display: block;" transform="matrix(0.9901000261306763,0,0,1.0103100538253784,256.00994873046875,255.67507934570312)" opacity="1"><g opacity="1" transform="matrix(1,0,0,1,0.4300000071525574,-104.23699951171875)"><path fill="rgb(255,189,14)" fill-opacity="1" d=" M0,-3.262500047683716 C1.892741084098816,-3.262500047683716 3.429500102996826,-1.8005738258361816 3.429500102996826,0 C3.429500102996826,1.8005738258361816 1.892741084098816,3.262500047683716 0,3.262500047683716 C-1.892741084098816,3.262500047683716 -3.429500102996826,1.8005738258361816 -3.429500102996826,0 C-3.429500102996826,-1.8005738258361816 -1.892741084098816,-3.262500047683716 0,-3.262500047683716z"></path></g></g><g style="display: block;" transform="matrix(0.968999981880188,0,0,0.968999981880188,255.78233337402344,260.8988342285156)" opacity="1"><g opacity="0.66" transform="matrix(1,0,0,1,0,0)"><path fill="rgb(158,192,206)" fill-opacity="1" d=" M-36.93600082397461,-41.86899948120117 C-37.50199890136719,-35.869998931884766 -42.82400131225586,-31.46500015258789 -48.823001861572266,-32.03099822998047 C-54.821998596191406,-32.59700012207031 -59.22600173950195,-37.917999267578125 -58.65999984741211,-43.91699981689453 C-58.09400177001953,-49.91600036621094 -52.77299880981445,-54.32099914550781 -46.77399826049805,-53.755001068115234 C-40.775001525878906,-53.18899917602539 -36.369998931884766,-47.86800003051758 -36.93600082397461,-41.86899948120117z"></path></g><g opacity="1" transform="matrix(1,0,0,1,0,0)"><path fill="rgb(18,18,18)" fill-opacity="1" d=" M-35.68600082397461,-50.525001525878906 C-36.25199890136719,-44.5260009765625 -44,-38.125 -48.823001861572266,-37.9379997253418 C-54.84400177001953,-37.70399856567383 -59.22600173950195,-46.32500076293945 -58.65999984741211,-52.32400131225586 C-58.09400177001953,-58.323001861572266 -53.02299880981445,-62.22700119018555 -47.02399826049805,-61.6609992980957 C-41.025001525878906,-61.095001220703125 -35.119998931884766,-56.52399826049805 -35.68600082397461,-50.525001525878906z"></path></g><g opacity="0.5" transform="matrix(1,0,0,1,0,0)"><path fill="rgb(166,205,221)" fill-opacity="1" d=" M-44.96799850463867,-56.05400085449219 C-49.5,-52.5 -50.96500015258789,-49.178001403808594 -53.12799835205078,-49.38199996948242 C-55.29100036621094,-49.58599853515625 -55.152000427246094,-51.869998931884766 -54.42499923706055,-53.91699981689453 C-53.375,-56.875 -51.053001403808594,-58.417999267578125 -48.88999938964844,-58.2140007019043 C-46.72700119018555,-58.0099983215332 -43.25899887084961,-57.39400100708008 -44.96799850463867,-56.05400085449219z"></path></g><g opacity="0.33" transform="matrix(1,0,0,1,0,0)"><path stroke-linecap="round" stroke-linejoin="round" fill-opacity="0" stroke="rgb(166,205,221)" stroke-opacity="1" stroke-width="4" d=" M-51.678001403808594,-44.43199920654297 C-49.7859992980957,-43.42599868774414 -44.8650016784668,-42.96099853515625 -42.70399856567383,-46.564998626708984"></path></g></g><g style="display: block;" transform="matrix(0.968999981880188,0,0,0.968999981880188,281.0283508300781,273.3927917480469)" opacity="1"><g opacity="0.66" transform="matrix(1,0,0,1,0,0)"><path fill="rgb(158,192,206)" fill-opacity="1" d=" M-36.93600082397461,-41.86899948120117 C-37.50199890136719,-35.869998931884766 -42.82400131225586,-31.46500015258789 -48.823001861572266,-32.03099822998047 C-54.821998596191406,-32.59700012207031 -59.22600173950195,-37.917999267578125 -58.65999984741211,-43.91699981689453 C-58.09400177001953,-49.91600036621094 -52.77299880981445,-54.32099914550781 -46.77399826049805,-53.755001068115234 C-40.775001525878906,-53.18899917602539 -36.369998931884766,-47.86800003051758 -36.93600082397461,-41.86899948120117z"></path></g><g opacity="1" transform="matrix(1,0,0,1,0,0)"><path fill="rgb(18,18,18)" fill-opacity="1" d=" M-36.93600082397461,-47.775001525878906 C-37.50199890136719,-41.7760009765625 -41.19900131225586,-36.99700164794922 -47.198001861572266,-37.5629997253418 C-53.196998596191406,-38.12900161743164 -58.10100173950195,-41.70000076293945 -57.53499984741211,-47.69900131225586 C-57.26100158691406,-50.60900115966797 -58.617000579833984,-56.01900100708008 -56.56999969482422,-57.792999267578125 C-54.39699935913086,-59.67599868774414 -49.862998962402344,-59.95199966430664 -46.77399826049805,-59.6609992980957 C-40.775001525878906,-59.095001220703125 -36.369998931884766,-53.77399826049805 -36.93600082397461,-47.775001525878906z"></path></g><g opacity="0.5" transform="matrix(1,0,0,1,0,0)"><path fill="rgb(166,205,221)" fill-opacity="1" d=" M-44.84299850463867,-54.17900085449219 C-45.047000885009766,-52.01599884033203 -45.84000015258789,-48.678001403808594 -48.00299835205078,-48.88199996948242 C-50.16600036621094,-49.08599853515625 -53.00400161743164,-53.87900161743164 -52.79999923706055,-56.04199981689453 C-52.59600067138672,-58.20500183105469 -51.053001403808594,-57.542999267578125 -48.88999938964844,-57.3390007019043 C-46.72700119018555,-57.1349983215332 -44.638999938964844,-56.34199905395508 -44.84299850463867,-54.17900085449219z"></path></g><g opacity="0.33" transform="matrix(1,0,0,1,0,0)"><path stroke-linecap="round" stroke-linejoin="round" fill-opacity="0" stroke="rgb(166,205,221)" stroke-opacity="1" stroke-width="4" d=" M-50.303001403808594,-43.93199920654297 C-48.4109992980957,-42.92599868774414 -44.6150016784668,-42.46099853515625 -42.45399856567383,-46.064998626708984"></path></g></g><g style="display: block;" transform="matrix(0.968999981880188,0,0,0.968999981880188,344.3999328613281,261.7148132324219)" opacity="1"><g opacity="0.66" transform="matrix(1,0,0,1,0,0)"><path fill="rgb(158,192,206)" fill-opacity="1" d=" M-36.93600082397461,-41.86899948120117 C-37.50199890136719,-35.869998931884766 -42.82400131225586,-31.46500015258789 -48.823001861572266,-32.03099822998047 C-54.821998596191406,-32.59700012207031 -59.22600173950195,-37.917999267578125 -58.65999984741211,-43.91699981689453 C-58.09400177001953,-49.91600036621094 -52.77299880981445,-54.32099914550781 -46.77399826049805,-53.755001068115234 C-40.775001525878906,-53.18899917602539 -36.369998931884766,-47.86800003051758 -36.93600082397461,-41.86899948120117z"></path></g><g opacity="1" transform="matrix(1,0,0,1,0,0)"><path fill="rgb(18,18,18)" fill-opacity="1" d=" M-36.93600082397461,-47.775001525878906 C-38.012001037597656,-41.84600067138672 -41.44900131225586,-36.74700164794922 -47.448001861572266,-37.3129997253418 C-53.446998596191406,-37.87900161743164 -59.85100173950195,-44.82500076293945 -59.28499984741211,-50.82400131225586 C-58.71900177001953,-56.823001861572266 -50.89799880981445,-60.60200119018555 -44.89899826049805,-60.0359992980957 C-38.900001525878906,-59.470001220703125 -35.875,-53.625 -36.93600082397461,-47.775001525878906z"></path></g><g opacity="0.5" transform="matrix(1,0,0,1,0,0)"><path fill="rgb(166,205,221)" fill-opacity="1" d=" M-45.21799850463867,-55.55400085449219 C-48.625,-53.125 -51.59000015258789,-49.178001403808594 -53.75299835205078,-49.38199996948242 C-55.91600036621094,-49.58599853515625 -56.375,-49.5 -54.42499923706055,-53.54199981689453 C-53.48099899291992,-55.49800109863281 -51.053001403808594,-57.542999267578125 -48.88999938964844,-57.3390007019043 C-46.72700119018555,-57.1349983215332 -43.44900131225586,-56.814998626708984 -45.21799850463867,-55.55400085449219z"></path></g><g opacity="0.33" transform="matrix(1,0,0,1,0,0)"><path stroke-linecap="round" stroke-linejoin="round" fill-opacity="0" stroke="rgb(166,205,221)" stroke-opacity="1" stroke-width="4" d=" M-50.678001403808594,-43.68199920654297 C-48.7859992980957,-42.67599868774414 -44.3650016784668,-42.21099853515625 -42.20399856567383,-45.814998626708984"></path></g></g><g style="display: block;" transform="matrix(0.968999981880188,0,0,0.968999981880188,324.4691467285156,274.9850158691406)" opacity="1"><g opacity="0.66" transform="matrix(1,0,0,1,0,0)"><path fill="rgb(158,192,206)" fill-opacity="1" d=" M-36.93600082397461,-41.86899948120117 C-37.50199890136719,-35.869998931884766 -42.82400131225586,-31.46500015258789 -48.823001861572266,-32.03099822998047 C-54.821998596191406,-32.59700012207031 -59.22600173950195,-37.917999267578125 -58.65999984741211,-43.91699981689453 C-58.09400177001953,-49.91600036621094 -52.77299880981445,-54.32099914550781 -46.77399826049805,-53.755001068115234 C-40.775001525878906,-53.18899917602539 -36.369998931884766,-47.86800003051758 -36.93600082397461,-41.86899948120117z"></path></g><g opacity="1" transform="matrix(1,0,0,1,0,0)"><path fill="rgb(18,18,18)" fill-opacity="1" d=" M-36.18600082397461,-47.775001525878906 C-36.75199890136719,-41.7760009765625 -44.44900131225586,-36.62200164794922 -50.448001861572266,-37.1879997253418 C-56.446998596191406,-37.75400161743164 -59.22600173950195,-43.82500076293945 -58.65999984741211,-49.82400131225586 C-58.09400177001953,-55.823001861572266 -50.89799880981445,-61.22700119018555 -44.89899826049805,-60.6609992980957 C-38.900001525878906,-60.095001220703125 -35.619998931884766,-53.77399826049805 -36.18600082397461,-47.775001525878906z"></path></g><g opacity="0.5" transform="matrix(1,0,0,1,0,0)"><path fill="rgb(166,205,221)" fill-opacity="1" d=" M-46.71799850463867,-53.55400085449219 C-46.922000885009766,-51.39099884033203 -48.46500015258789,-48.303001403808594 -50.62799835205078,-48.50699996948242 C-52.79100036621094,-48.71099853515625 -54.25400161743164,-50.75400161743164 -54.04999923706055,-52.91699981689453 C-53.84600067138672,-55.08000183105469 -51.928001403808594,-56.417999267578125 -49.76499938964844,-56.2140007019043 C-47.60200119018555,-56.0099983215332 -46.513999938964844,-55.71699905395508 -46.71799850463867,-53.55400085449219z"></path></g><g opacity="0.33" transform="matrix(1,0,0,1,0,0)"><path stroke-linecap="round" stroke-linejoin="round" fill-opacity="0" stroke="rgb(166,205,221)" stroke-opacity="1" stroke-width="4" d=" M-52.428001403808594,-42.93199920654297 C-49.75,-40.75 -44.8650016784668,-42.96099853515625 -42.70399856567383,-46.564998626708984"></path></g></g><g style="display: block;" transform="matrix(0.9601036310195923,-0.020848946645855904,0.021227173507213593,0.9775211215019226,304.22235107421875,278.1429443359375)" opacity="1"><g opacity="0.66" transform="matrix(1,0,0,1,0,0)"><path fill="rgb(158,192,206)" fill-opacity="1" d=" M-36.93600082397461,-41.86899948120117 C-37.50199890136719,-35.869998931884766 -42.82400131225586,-31.46500015258789 -48.823001861572266,-32.03099822998047 C-54.821998596191406,-32.59700012207031 -59.22600173950195,-37.917999267578125 -58.65999984741211,-43.91699981689453 C-58.09400177001953,-49.91600036621094 -52.77299880981445,-54.32099914550781 -46.77399826049805,-53.755001068115234 C-40.775001525878906,-53.18899917602539 -36.369998931884766,-47.86800003051758 -36.93600082397461,-41.86899948120117z"></path></g><g opacity="1" transform="matrix(1,0,0,1,0,0)"><path fill="rgb(18,18,18)" fill-opacity="1" d=" M-35.560001373291016,-47.25 C-36.125999450683594,-41.250999450683594 -42.82400131225586,-37.37200164794922 -48.823001861572266,-37.9379997253418 C-54.821998596191406,-38.50400161743164 -59.66999816894531,-40.861000061035156 -59.104000091552734,-46.86000061035156 C-58.53799819946289,-52.85900115966797 -53.790000915527344,-59.87699890136719 -47.79100036621094,-59.31100082397461 C-41.79199981689453,-58.744998931884766 -34.99399948120117,-53.249000549316406 -35.560001373291016,-47.25z"></path></g><g opacity="0.5" transform="matrix(1,0,0,1,0,0)"><path fill="rgb(166,205,221)" fill-opacity="1" d=" M-43.426998138427734,-54.12799835205078 C-43.63100051879883,-51.96500015258789 -48.665000915527344,-52.69499969482422 -53.165000915527344,-49.334999084472656 C-54.90599822998047,-48.03499984741211 -54.76100158691406,-50.84199905395508 -52.66999816894531,-53.78200149536133 C-51.4109992980957,-55.551998138427734 -49.03799819946289,-57.375999450683594 -46.875,-57.172000885009766 C-44.71200180053711,-56.96799850463867 -43.222999572753906,-56.29100036621094 -43.426998138427734,-54.12799835205078z"></path></g><g opacity="0.33" transform="matrix(1,0,0,1,0,0)"><path stroke-linecap="round" stroke-linejoin="round" fill-opacity="0" stroke="rgb(166,205,221)" stroke-opacity="1" stroke-width="4" d=" M-51.678001403808594,-44.43199920654297 C-49.7859992980957,-43.42599868774414 -44.97800064086914,-42.57899856567383 -40.82899856567383,-45.78200149536133"></path></g></g><g style="display: block;" transform="matrix(1,0,0,1,0.0009765625,7.999969482421875)" opacity="1"><g opacity="1" transform="matrix(1,0,0,1,79.7020034790039,257.45098876953125)"><path fill="rgb(118,60,24)" fill-opacity="1" d=" M55.4739990234375,60.59400177001953 C53.72999954223633,60.59299850463867 52.62200164794922,59.80699920654297 51.999000549316406,59.14699935913086 C51.090999603271484,58.18600082397461 48.21099853515625,55.96200180053711 45.16299819946289,53.608001708984375 C40.15999984741211,49.74399948120117 21.27199935913086,37.95100021362305 17.600000381469727,34.0629997253418 C14.878999710083008,31.183000564575195 -61.30699920654297,7.355000019073486 -63.428001403808594,7.013999938964844 C-63.428001403808594,7.013999938964844 -63.76100158691406,6.960000038146973 -63.76100158691406,6.960000038146973 C-65.10600280761719,6.742000102996826 -65.9520034790039,5.447999954223633 -65.90299987792969,3.552000045776367 C-65.85399627685547,1.6369999647140503 -64.83200073242188,-0.6639999747276306 -63.266998291015625,-0.777999997138977 C-63.10499954223633,-0.7900000214576721 -62.94300079345703,-0.7960000038146973 -62.779998779296875,-0.7960000038146973 C-61.54499816894531,-0.7960000038146973 -37.20399856567383,-0.5389999747276306 -33.047000885009766,0.20100000500679016 C-31.735000610351562,0.4350000023841858 -30.384000778198242,0.675000011920929 -28.983999252319336,0.902999997138977 C-28.983999252319336,0.902999997138977 -28.57900047302246,0.968999981880188 -28.57900047302246,0.968999981880188 C-26.898000717163086,1.24399995803833 -25.445999145507812,1.4809999465942383 -24.433000564575195,1.4809999465942383 C-24.4060001373291,1.4809999465942383 -24.378999710083008,1.4809999465942383 -24.35300064086914,1.4809999465942383 C-24.392000198364258,0.949999988079071 -24.534000396728516,0.02500000037252903 -24.965999603271484,-1.4839999675750732 C-26.400999069213867,-6.498000144958496 -27.542999267578125,-15.097000122070312 -28.64699935913086,-23.413000106811523 C-29.493999481201172,-29.788999557495117 -30.17300033569336,-50.08000183105469 -30.327999114990234,-51.5880012512207 C-30.45199966430664,-52.79499816894531 -30.110000610351562,-53.93199920654297 -29.3700008392334,-54.79199981689453 C-28.56599998474121,-55.72700119018555 -27.945999145507812,-56.108001708984375 -26.66900062561035,-56.108001708984375 C-21.413999557495117,-56.108001708984375 -17.354999542236328,-43.207000732421875 -1.4589999914169312,-1.6779999732971191 C1.8980000019073486,7.093999862670898 7.771999835968018,8.362000465393066 14.937000274658203,10.583999633789062 C18.777999877929688,11.776000022888184 23.131999969482422,13.12600040435791 27.735000610351562,15.75 C39.9370002746582,22.704999923706055 59.888999938964844,35.768001556396484 66.93900299072266,41.64500045776367 C66.93900299072266,41.64500045776367 68.21199798583984,42.70500183105469 68.21199798583984,42.70500183105469 C69.90899658203125,44.11600112915039 70.447998046875,46.40800094604492 69.65399932861328,48.83700180053711 C68.10199737548828,53.58599853515625 60.367000579833984,60.59400177001953 55.474998474121094,60.59400177001953 C55.474998474121094,60.59400177001953 55.4739990234375,60.59400177001953 55.4739990234375,60.59400177001953z"></path><path stroke-linecap="round" stroke-linejoin="round" fill-opacity="0" stroke="rgb(85,33,11)" stroke-opacity="1" stroke-width="8" d=" M55.4739990234375,60.59400177001953 C53.72999954223633,60.59299850463867 52.62200164794922,59.80699920654297 51.999000549316406,59.14699935913086 C51.090999603271484,58.18600082397461 48.21099853515625,55.96200180053711 45.16299819946289,53.608001708984375 C40.15999984741211,49.74399948120117 21.27199935913086,37.95100021362305 17.600000381469727,34.0629997253418 C14.878999710083008,31.183000564575195 -61.30699920654297,7.355000019073486 -63.428001403808594,7.013999938964844 C-63.428001403808594,7.013999938964844 -63.76100158691406,6.960000038146973 -63.76100158691406,6.960000038146973 C-65.10600280761719,6.742000102996826 -65.9520034790039,5.447999954223633 -65.90299987792969,3.552000045776367 C-65.85399627685547,1.6369999647140503 -64.83200073242188,-0.6639999747276306 -63.266998291015625,-0.777999997138977 C-63.10499954223633,-0.7900000214576721 -62.94300079345703,-0.7960000038146973 -62.779998779296875,-0.7960000038146973 C-61.54499816894531,-0.7960000038146973 -37.20399856567383,-0.5389999747276306 -33.047000885009766,0.20100000500679016 C-31.735000610351562,0.4350000023841858 -30.384000778198242,0.675000011920929 -28.983999252319336,0.902999997138977 C-28.983999252319336,0.902999997138977 -28.57900047302246,0.968999981880188 -28.57900047302246,0.968999981880188 C-26.898000717163086,1.24399995803833 -25.445999145507812,1.4809999465942383 -24.433000564575195,1.4809999465942383 C-24.4060001373291,1.4809999465942383 -24.378999710083008,1.4809999465942383 -24.35300064086914,1.4809999465942383 C-24.392000198364258,0.949999988079071 -24.534000396728516,0.02500000037252903 -24.965999603271484,-1.4839999675750732 C-26.400999069213867,-6.498000144958496 -27.542999267578125,-15.097000122070312 -28.64699935913086,-23.413000106811523 C-29.493999481201172,-29.788999557495117 -30.17300033569336,-50.08000183105469 -30.327999114990234,-51.5880012512207 C-30.45199966430664,-52.79499816894531 -30.110000610351562,-53.93199920654297 -29.3700008392334,-54.79199981689453 C-28.56599998474121,-55.72700119018555 -27.945999145507812,-56.108001708984375 -26.66900062561035,-56.108001708984375 C-21.413999557495117,-56.108001708984375 -17.354999542236328,-43.207000732421875 -1.4589999914169312,-1.6779999732971191 C1.8980000019073486,7.093999862670898 7.771999835968018,8.362000465393066 14.937000274658203,10.583999633789062 C18.777999877929688,11.776000022888184 23.131999969482422,13.12600040435791 27.735000610351562,15.75 C39.9370002746582,22.704999923706055 59.888999938964844,35.768001556396484 66.93900299072266,41.64500045776367 C66.93900299072266,41.64500045776367 68.21199798583984,42.70500183105469 68.21199798583984,42.70500183105469 C69.90899658203125,44.11600112915039 70.447998046875,46.40800094604492 69.65399932861328,48.83700180053711 C68.10199737548828,53.58599853515625 60.367000579833984,60.59400177001953 55.474998474121094,60.59400177001953 C55.474998474121094,60.59400177001953 55.4739990234375,60.59400177001953 55.4739990234375,60.59400177001953z"></path></g><g opacity="1" transform="matrix(1,0,0,1,80.33200073242188,255.32000732421875)"><path fill="rgb(147,90,55)" fill-opacity="1" d=" M65.72799682617188,47.334999084472656 C59.347999572753906,42.0359992980957 36.55699920654297,27.1200008392334 25.586000442504883,20.865999221801758 C12.885000228881836,13.62600040435791 2.1389999389648438,16.729999542236328 -4.943999767303467,1.9910000562667847 C-11.093000411987305,-10.803999900817871 -24.235000610351562,-45.992000579833984 -24.517000198364258,-49.69900131225586 C-24.572999954223633,-50.27799987792969 -24.621999740600586,-50.82500076293945 -24.665000915527344,-51.332000732421875 C-24.66699981689453,-51.34299850463867 -24.670000076293945,-51.35300064086914 -24.67300033569336,-51.362998962402344 C-25.018999099731445,-52.77199935913086 -27.966999053955078,-52.8849983215332 -27.909000396728516,-51.39400100708008 C-27.746999740600586,-47.233001708984375 -17.71299934387207,-9.062000274658203 -16.841999053955078,-6.01800012588501 C-14.826000213623047,1.0269999504089355 -9.918000221252441,10.432999610900879 -30.10099983215332,6.386000156402588 C-36.41400146484375,5.119999885559082 -62.30699920654297,2.7790000438690186 -63.92100143432617,2.8940000534057617 C-63.926998138427734,2.8940000534057617 -63.93199920654297,2.8949999809265137 -63.9379997253418,2.8959999084472656 C-64.68299865722656,2.9649999141693115 -64.20099639892578,5.297999858856201 -63.49599838256836,5.456999778747559 C-56.957000732421875,6.7829999923706055 -23.00200080871582,12.642000198364258 -16.218000411987305,15.748000144958496 C-7.181000232696533,19.885000228881836 11.869000434875488,19.62700080871582 17.731000900268555,25.83300018310547 C23.593000411987305,32.03900146484375 56.137001037597656,52.78499984741211 59.26100158691406,55.07500076293945 C61.0890007019043,56.415000915527344 68.97799682617188,49.94900131225586 65.72799682617188,47.334999084472656z"></path></g></g><g style="display: block;" transform="matrix(1,0,0,1,98.43496704101562,260.5779724121094)" opacity="1"><g opacity="1" transform="matrix(1,0,0,1,0,0)"><path stroke-linecap="round" stroke-linejoin="round" fill-opacity="0" stroke="rgb(223,149,89)" stroke-opacity="1" stroke-width="3" d=" M-41.887001037597656,-42.9370002746582 C-35.4109992980957,-22.917999267578125 -29.309999465942383,4.664999961853027 -24.74799919128418,11.069999694824219 C-21.55900001525879,15.54699993133545 -13.5,17.12299919128418 -1.4079999923706055,22.33099937438965 C10.684000015258789,27.538999557495117 36.999000549316406,45.270999908447266 43.762001037597656,50.9370002746582 C43.762001037597656,50.9370002746582 48.066001892089844,51.672000885009766 44.316001892089844,48.047000885009766 C40.566001892089844,44.422000885009766 8.565999984741211,23.922000885009766 -1.809000015258789,19.672000885009766 C-12.184000015258789,15.42199993133545 -14.934000015258789,15.79699993133545 -22.55900001525879,7.421999931335449 C-26.503000259399414,3.0899999141693115 -33.558998107910156,-20.827999114990234 -34.558998107910156,-23.702999114990234 C-35.375999450683594,-26.052000045776367 -42.91299819946289,-48.78099822998047 -43.387001037597656,-48.28300094604492 C-43.49300003051758,-48.172000885009766 -43.07099914550781,-46.59700012207031 -41.887001037597656,-42.9370002746582z"></path><path fill="rgb(223,149,89)" fill-opacity="1" d=" M-41.887001037597656,-42.9370002746582 C-35.4109992980957,-22.917999267578125 -29.309999465942383,4.664999961853027 -24.74799919128418,11.069999694824219 C-21.55900001525879,15.54699993133545 -13.5,17.12299919128418 -1.4079999923706055,22.33099937438965 C10.684000015258789,27.538999557495117 36.999000549316406,45.270999908447266 43.762001037597656,50.9370002746582 C43.762001037597656,50.9370002746582 48.066001892089844,51.672000885009766 44.316001892089844,48.047000885009766 C40.566001892089844,44.422000885009766 8.565999984741211,23.922000885009766 -1.809000015258789,19.672000885009766 C-12.184000015258789,15.42199993133545 -14.934000015258789,15.79699993133545 -22.55900001525879,7.421999931335449 C-26.503000259399414,3.0899999141693115 -33.558998107910156,-20.827999114990234 -34.558998107910156,-23.702999114990234 C-35.375999450683594,-26.052000045776367 -42.91299819946289,-48.78099822998047 -43.387001037597656,-48.28300094604492 C-43.49300003051758,-48.172000885009766 -43.07099914550781,-46.59700012207031 -41.887001037597656,-42.9370002746582z"></path></g></g><g style="display: block;" transform="matrix(1,0,0,1,39.55897521972656,269.10296630859375)" opacity="1"><g opacity="1" transform="matrix(1,0,0,1,0,0)"><path stroke-linecap="round" stroke-linejoin="round" fill-opacity="0" stroke="rgb(223,149,89)" stroke-opacity="1" stroke-width="3" d=" M-21.93199920654297,-2.375999927520752 C-16.55699920654297,-0.7279999852180481 19.066999435424805,4.646999835968018 23.191999435424805,6.396999835968018 C27.316999435424805,8.147000312805176 27.316999435424805,3.5220000743865967 24.43199920654297,2.625999927520752 C21.547000885009766,1.7300000190734863 -9.807000160217285,-0.3529999852180481 -21.93199920654297,-2.375999927520752z"></path><path fill="rgb(223,149,89)" fill-opacity="1" d=" M-21.93199920654297,-2.375999927520752 C-16.55699920654297,-0.7279999852180481 19.066999435424805,4.646999835968018 23.191999435424805,6.396999835968018 C27.316999435424805,8.147000312805176 27.316999435424805,3.5220000743865967 24.43199920654297,2.625999927520752 C21.547000885009766,1.7300000190734863 -9.807000160217285,-0.3529999852180481 -21.93199920654297,-2.375999927520752z"></path></g></g><g style="display: block;" transform="matrix(0.8999999761581421,0,0,0.8999999761581421,36.093505859375,36.192108154296875)" opacity="1"><g opacity="1" transform="matrix(1,0,0,1,429.52301025390625,254.3820037841797)"><path fill="rgb(118,60,24)" fill-opacity="1" d=" M-52.19900131225586,67.53900146484375 C-58.28900146484375,67.53900146484375 -65.74099731445312,61.34400177001953 -67.8499984741211,56.21500015258789 C-69.11199951171875,53.14400100708008 -68.74400329589844,50.16899871826172 -66.83799743652344,48.053001403808594 C-62.340999603271484,43.06100082397461 -55.17399978637695,38.733001708984375 -48.24300003051758,34.54600143432617 C-42.04899978637695,30.80500030517578 -35.64400100708008,26.937000274658203 -31.659000396728516,22.881000518798828 C-23.256000518798828,14.331000328063965 -7.164999961853027,-9.321000099182129 -1.9730000495910645,-20.75200080871582 C0.8669999837875366,-27.006000518798828 11.697999954223633,-54.08000183105469 12.885000228881836,-56.332000732421875 C13.895000457763672,-58.24800109863281 14.767999649047852,-59.90299987792969 15.41100025177002,-61.3650016784668 C16.138999938964844,-63.01900100708008 17.645000457763672,-64.00700378417969 19.440000534057617,-64.00700378417969 C21.030000686645508,-64.00700378417969 22.60300064086914,-63.20399856567383 23.545000076293945,-61.9109992980957 C24.457000732421875,-60.659000396728516 24.726999282836914,-59.071998596191406 24.304000854492188,-57.44499969482422 C23.29599952697754,-53.56800079345703 20.476999282836914,-34.13199996948242 12.527999877929688,-4.461999893188477 C12.909000396728516,-4.730999946594238 16.559999465942383,-7.0320000648498535 16.979000091552734,-7.366000175476074 C23.871000289916992,-12.857000350952148 50.797000885009766,-27.565000534057617 53.7239990234375,-28.979000091552734 C54.26599884033203,-29.240999221801758 54.86000061035156,-29.37299919128418 55.492000579833984,-29.37299919128418 C57.680999755859375,-29.37299919128418 60.04199981689453,-27.724000930786133 61.00199890136719,-25.5 C61.85200119018555,-23.5310001373291 61.49399948120117,-21.464000701904297 60.016998291015625,-19.982999801635742 C59.013999938964844,-18.976999282836914 35.90399932861328,-0.3569999933242798 32.62799835205078,3.4210000038146973 C29.274999618530273,7.288000106811523 3.0220000743865967,25.36199951171875 -0.2029999941587448,27.840999603271484 C-3.7320001125335693,30.554000854492188 -7.480000019073486,34.00299835205078 -11.102999687194824,37.33700180053711 C-15.302000045776367,41.20100021362305 -19.643999099731445,45.196998596191406 -23.687999725341797,48.07400131225586 C-25.577999114990234,49.41899871826172 -27.628999710083008,50.803001403808594 -29.801000595092773,52.27000045776367 C-35.80099868774414,56.31999969482422 -42.60100173950195,60.9119987487793 -46.82899856567383,65.34500122070312 C-48.196998596191406,66.78099822998047 -50.05400085449219,67.53900146484375 -52.19900131225586,67.53900146484375z"></path><path stroke-linecap="round" stroke-linejoin="round" fill-opacity="0" stroke="rgb(85,33,11)" stroke-opacity="1" stroke-width="8.889" d=" M-52.19900131225586,67.53900146484375 C-58.28900146484375,67.53900146484375 -65.74099731445312,61.34400177001953 -67.8499984741211,56.21500015258789 C-69.11199951171875,53.14400100708008 -68.74400329589844,50.16899871826172 -66.83799743652344,48.053001403808594 C-62.340999603271484,43.06100082397461 -55.17399978637695,38.733001708984375 -48.24300003051758,34.54600143432617 C-42.04899978637695,30.80500030517578 -35.64400100708008,26.937000274658203 -31.659000396728516,22.881000518798828 C-23.256000518798828,14.331000328063965 -7.164999961853027,-9.321000099182129 -1.9730000495910645,-20.75200080871582 C0.8669999837875366,-27.006000518798828 11.697999954223633,-54.08000183105469 12.885000228881836,-56.332000732421875 C13.895000457763672,-58.24800109863281 14.767999649047852,-59.90299987792969 15.41100025177002,-61.3650016784668 C16.138999938964844,-63.01900100708008 17.645000457763672,-64.00700378417969 19.440000534057617,-64.00700378417969 C21.030000686645508,-64.00700378417969 22.60300064086914,-63.20399856567383 23.545000076293945,-61.9109992980957 C24.457000732421875,-60.659000396728516 24.726999282836914,-59.071998596191406 24.304000854492188,-57.44499969482422 C23.29599952697754,-53.56800079345703 20.476999282836914,-34.13199996948242 12.527999877929688,-4.461999893188477 C12.909000396728516,-4.730999946594238 16.559999465942383,-7.0320000648498535 16.979000091552734,-7.366000175476074 C23.871000289916992,-12.857000350952148 50.797000885009766,-27.565000534057617 53.7239990234375,-28.979000091552734 C54.26599884033203,-29.240999221801758 54.86000061035156,-29.37299919128418 55.492000579833984,-29.37299919128418 C57.680999755859375,-29.37299919128418 60.04199981689453,-27.724000930786133 61.00199890136719,-25.5 C61.85200119018555,-23.5310001373291 61.49399948120117,-21.464000701904297 60.016998291015625,-19.982999801635742 C59.013999938964844,-18.976999282836914 35.90399932861328,-0.3569999933242798 32.62799835205078,3.4210000038146973 C29.274999618530273,7.288000106811523 3.0220000743865967,25.36199951171875 -0.2029999941587448,27.840999603271484 C-3.7320001125335693,30.554000854492188 -7.480000019073486,34.00299835205078 -11.102999687194824,37.33700180053711 C-15.302000045776367,41.20100021362305 -19.643999099731445,45.196998596191406 -23.687999725341797,48.07400131225586 C-25.577999114990234,49.41899871826172 -27.628999710083008,50.803001403808594 -29.801000595092773,52.27000045776367 C-35.80099868774414,56.31999969482422 -42.60100173950195,60.9119987487793 -46.82899856567383,65.34500122070312 C-48.196998596191406,66.78099822998047 -50.05400085449219,67.53900146484375 -52.19900131225586,67.53900146484375z"></path></g><g opacity="1" transform="matrix(1,0,0,1,428.3840026855469,251.51400756835938)"><path fill="rgb(147,90,55)" fill-opacity="1" d=" M55.641998291015625,-24.461000442504883 C52.840999603271484,-23.09600067138672 26.527999877929688,-7.02400016784668 20.202999114990234,-1.621000051498413 C9.532999992370605,7.49399995803833 3.8989999294281006,10.010000228881836 9.508000373840332,-10.062999725341797 C13.616000175476074,-24.763999938964844 20.582000732421875,-51.57600021362305 22.1299991607666,-56.25299835205078 C22.83300018310547,-58.375999450683594 18.951000213623047,-59.867000579833984 18.020999908447266,-57.84199905395508 C18.013999938964844,-57.82600021362305 18.006999969482422,-57.81100082397461 18,-57.79499816894531 C16.55500030517578,-54.512001037597656 7.4720001220703125,-27.770000457763672 2.2760000228881836,-16.329999923706055 C-2.9200000762939453,-4.889999866485596 -19.288000106811523,19.35300064086914 -28.121000289916992,28.341999053955078 C-36.95399856567383,37.33100128173828 -55.12099838256836,44.439998626708984 -63.194000244140625,53.402000427246094 C-64.15699768066406,54.47100067138672 -64.20500183105469,55.888999938964844 -63.64500045776367,57.402000427246094 C-59.952999114990234,60.32099914550781 -55.27899932861328,62.00400161743164 -53.00199890136719,59.617000579833984 C-46.97600173950195,53.29899978637695 -36.63399887084961,47.08700180053711 -29.360000610351562,41.9119987487793 C-22.084999084472656,36.73699951171875 -13.770999908447266,27.74799919128418 -5.9770002365112305,21.7549991607666 C1.8170000314712524,15.76200008392334 15.774999618530273,11.583000183105469 22.340999603271484,7.317999839782715 C34.867000579833984,-0.8180000185966492 57.112998962402344,-18.599000930786133 59.11399841308594,-21.195999145507812 C60.03200149536133,-22.38800048828125 56.96900177001953,-25.090999603271484 55.66600036621094,-24.472999572753906 C55.65800094604492,-24.4689998626709 55.650001525878906,-24.46500015258789 55.641998291015625,-24.461000442504883z"></path></g></g><g style="display: block;" transform="matrix(0.8999999761581421,0,0,0.8999999761581421,454.5889892578125,255.10269165039062)" opacity="1"><path fill="rgb(223,149,89)" fill-opacity="1" d=" M18.375999450683594,-14.753000259399414 C3.253999948501587,-7.235000133514404 -14.019000053405762,5.369999885559082 -31.125999450683594,16.003000259399414 C-39.994998931884766,21.516000747680664 -30.2450008392334,21.766000747680664 -26.2450008392334,18.766000747680664 C-22.2450008392334,15.765999794006348 12.005000114440918,-9.484000205993652 16.7549991607666,-13.484000205993652 C21.5049991607666,-17.483999252319336 18.375999450683594,-14.753000259399414 18.375999450683594,-14.753000259399414z"></path><g opacity="1" transform="matrix(1,0,0,1,0,0)"><path stroke-linecap="round" stroke-linejoin="round" fill-opacity="0" stroke="rgb(223,149,89)" stroke-opacity="1" stroke-width="3.333" d=" M18.375999450683594,-14.753000259399414 C3.253999948501587,-7.235000133514404 -14.019000053405762,5.369999885559082 -31.125999450683594,16.003000259399414 C-39.994998931884766,21.516000747680664 -30.2450008392334,21.766000747680664 -26.2450008392334,18.766000747680664 C-22.2450008392334,15.765999794006348 12.005000114440918,-9.484000205993652 16.7549991607666,-13.484000205993652 C21.5049991607666,-17.483999252319336 18.375999450683594,-14.753000259399414 18.375999450683594,-14.753000259399414z"></path></g></g><g style="display: block;" transform="matrix(0.8999999761581421,0,0,0.8999999761581421,405.6541748046875,259.38311767578125)" opacity="1"><path fill="rgb(223,149,89)" fill-opacity="1" d=" M36.930999755859375,-54.577999114990234 C36.930999755859375,-54.577999114990234 35.37699890136719,-54.2400016784668 32.87699890136719,-47.2400016784668 C30.37700080871582,-40.2400016784668 21.62700080871582,-11.989999771118164 6.876999855041504,11.010000228881836 C-7.873000144958496,34.0099983215332 -26.37299919128418,44.0099983215332 -33.62300109863281,47.7599983215332 C-40.87300109863281,51.5099983215332 -50.50899887084961,62.64400100708008 -36.930999755859375,54.577999114990234 C-23.35300064086914,46.512001037597656 -11.463000297546387,37.724998474121094 -3.4719998836517334,29.347000122070312 C4.519000053405762,20.9689998626709 11.53499984741211,8.310999870300293 18.941999435424805,-4.77400016784668 C26.349000930786133,-17.858999252319336 36.930999755859375,-54.577999114990234 36.930999755859375,-54.577999114990234z"></path><g opacity="1" transform="matrix(1,0,0,1,0,0)"><path stroke-linecap="round" stroke-linejoin="round" fill-opacity="0" stroke="rgb(223,149,89)" stroke-opacity="1" stroke-width="3.333" d=" M36.930999755859375,-54.577999114990234 C36.930999755859375,-54.577999114990234 35.37699890136719,-54.2400016784668 32.87699890136719,-47.2400016784668 C30.37700080871582,-40.2400016784668 21.62700080871582,-11.989999771118164 6.876999855041504,11.010000228881836 C-7.873000144958496,34.0099983215332 -26.37299919128418,44.0099983215332 -33.62300109863281,47.7599983215332 C-40.87300109863281,51.5099983215332 -50.50899887084961,62.64400100708008 -36.930999755859375,54.577999114990234 C-23.35300064086914,46.512001037597656 -11.463000297546387,37.724998474121094 -3.4719998836517334,29.347000122070312 C4.519000053405762,20.9689998626709 11.53499984741211,8.310999870300293 18.941999435424805,-4.77400016784668 C26.349000930786133,-17.858999252319336 36.930999755859375,-54.577999114990234 36.930999755859375,-54.577999114990234z"></path></g></g></g></svg>