<svg xmlns="http://www.w3.org/2000/svg" viewBox="0 0 512 512" width="512" height="512" style="width: 100%; height: 100%; transform: translate3d(0,0,0);" preserveAspectRatio="xMidYMid meet"><defs><clipPath id="__lottie_element_8519"><rect width="512" height="512" x="0" y="0"></rect></clipPath></defs><g clip-path="url(#__lottie_element_8519)"><g style="display: block;" transform="matrix(1,0,0,1,256,255.99998474121094)" opacity="1"><g opacity="0.1" transform="matrix(1,0,0,1,0,0)"><path fill="rgb(0,0,0)" fill-opacity="1" d=" M195.70399475097656,10.781999588012695 C195.70399475097656,119.04299926757812 107.94000244140625,206.80599975585938 -0.32100000977516174,206.80599975585938 C-108.58200073242188,206.80599975585938 -196.34500122070312,119.04299926757812 -196.34500122070312,10.781999588012695 C-196.34500122070312,-97.47899627685547 -108.58200073242188,-185.2429962158203 -0.32100000977516174,-185.2429962158203 C107.94000244140625,-185.2429962158203 195.70399475097656,-97.47899627685547 195.70399475097656,10.781999588012695z"></path></g><g opacity="1" transform="matrix(1,0,0,1,0,0)"><path fill="rgb(255,173,0)" fill-opacity="1" d=" M188.7740020751953,-4.2179999351501465 C188.7740020751953,100.09500122070312 104.21199798583984,184.65699768066406 -0.10100000351667404,184.65699768066406 C-104.41400146484375,184.65699768066406 -188.9770050048828,100.09500122070312 -188.9770050048828,-4.2179999351501465 C-188.9770050048828,-108.53099822998047 -104.41400146484375,-193.093994140625 -0.10100000351667404,-193.093994140625 C104.21199798583984,-193.093994140625 188.7740020751953,-108.53099822998047 188.7740020751953,-4.2179999351501465z"></path></g><g opacity="1" transform="matrix(1,0,0,1,0,0)"><path fill="rgb(255,207,0)" fill-opacity="1" d=" M168.30599975585938,-3.50600004196167 C166.8489990234375,91.52200317382812 90.29499816894531,167.4029998779297 -2.683000087738037,165.97799682617188 C-95.66100311279297,164.55299377441406 -169.85299682617188,86.36199951171875 -168.39700317382812,-8.666999816894531 C-166.94000244140625,-103.69599914550781 -90.38600158691406,-179.5749969482422 2.5920000076293945,-178.14999389648438 C95.56999969482422,-176.72500610351562 169.76300048828125,-98.53500366210938 168.30599975585938,-3.50600004196167z"></path></g><g opacity="1" transform="matrix(1,0,0,1,0,0)"><path stroke-linecap="butt" stroke-linejoin="miter" fill-opacity="0" stroke-miterlimit="10" stroke="rgb(255,118,42)" stroke-opacity="1" stroke-width="8" d=" M188.7740020751953,-4.2179999351501465 C188.7740020751953,100.09500122070312 104.21199798583984,184.65699768066406 -0.10100000351667404,184.65699768066406 C-104.41400146484375,184.65699768066406 -188.9770050048828,100.09500122070312 -188.9770050048828,-4.2179999351501465 C-188.9770050048828,-108.53099822998047 -104.41400146484375,-193.093994140625 -0.10100000351667404,-193.093994140625 C104.21199798583984,-193.093994140625 188.7740020751953,-108.53099822998047 188.7740020751953,-4.2179999351501465z"></path></g><g opacity="0.9" transform="matrix(1,0,0,1,0,0)"><path fill="rgb(255,222,102)" fill-opacity="1" d=" M149.16600036621094,-46.64699935913086 C149.16600036621094,25.996000289916992 82.33699798583984,-31.468000411987305 -0.10100000351667404,-31.468000411987305 C-82.53900146484375,-31.468000411987305 -149.36900329589844,25.996000289916992 -149.36900329589844,-46.64699935913086 C-149.36900329589844,-119.29000091552734 -82.53900146484375,-178.1790008544922 -0.10100000351667404,-178.1790008544922 C82.33699798583984,-178.1790008544922 149.16600036621094,-119.29000091552734 149.16600036621094,-46.64699935913086z"></path></g><g opacity="1" transform="matrix(1,0,0,1,0,0)"><g opacity="1" transform="matrix(1,0,0,1,0,0)"><path stroke-linecap="round" stroke-linejoin="round" fill-opacity="0" stroke="rgb(255,255,255)" stroke-opacity="1" stroke-width="6" d=" M36.270999908447266,-173.9600067138672 C37.808998107910156,-173.625 39.40399932861328,-173.2550048828125 41.04899978637695,-172.8489990234375"></path></g><g opacity="1" transform="matrix(1,0,0,1,0,0)"><path stroke-linecap="round" stroke-linejoin="round" fill-opacity="0" stroke="rgb(255,255,255)" stroke-opacity="1" stroke-width="6" d=" M14.916999816894531,-177.1790008544922 C14.916999816894531,-177.1790008544922 19.784000396728516,-176.91900634765625 27.506999969482422,-175.64100646972656"></path></g></g></g><g style="display: block;" transform="matrix(1,0,0,1,256,255.99998474121094)" opacity="1"><g opacity="1" transform="matrix(1,0,0,1,0,0)"><g opacity="1" transform="matrix(1,0,0,1,0,0)"><path fill="rgb(255,225,156)" fill-opacity="1" d=" M91.36199951171875,-40.803001403808594 C91.36199951171875,-20.117000579833984 79.14800262451172,-3.3489999771118164 64.08200073242188,-3.3489999771118164 C49.01599884033203,-3.3489999771118164 36.803001403808594,-20.117000579833984 36.803001403808594,-40.803001403808594 C36.803001403808594,-61.48899841308594 91.36199951171875,-61.48899841308594 91.36199951171875,-40.803001403808594z"></path></g><g opacity="1" transform="matrix(1,0,0,1,0,0)"><path fill="rgb(255,173,0)" fill-opacity="1" d=" M91.36199951171875,-44.659000396728516 C91.36199951171875,-26.10300064086914 79.14800262451172,-11.0600004196167 64.08200073242188,-11.0600004196167 C49.01599884033203,-11.0600004196167 36.803001403808594,-26.10300064086914 36.803001403808594,-44.659000396728516 C36.803001403808594,-63.21500015258789 49.01599884033203,-78.25800323486328 64.08200073242188,-78.25800323486328 C79.14800262451172,-78.25800323486328 91.36199951171875,-63.21500015258789 91.36199951171875,-44.659000396728516z"></path></g><g opacity="1" transform="matrix(1,0,0,1,0,0)"><path fill="rgb(143,58,0)" fill-opacity="1" d=" M89.16500091552734,-40.96900177001953 C89.16500091552734,-23.48200035095215 77.93499755859375,-9.305999755859375 64.08200073242188,-9.305999755859375 C50.229000091552734,-9.305999755859375 39,-23.48200035095215 39,-40.96900177001953 C39,-58.45600128173828 50.229000091552734,-72.63200378417969 64.08200073242188,-72.63200378417969 C77.93499755859375,-72.63200378417969 89.16500091552734,-58.45600128173828 89.16500091552734,-40.96900177001953z"></path></g><g opacity="1" transform="matrix(1,0,0,1,0,0)"><path fill="rgb(107,32,0)" fill-opacity="1" d=" M88.94999694824219,-36.862998962402344 C87.36699676513672,-52.41899871826172 76.83100128173828,-64.44300079345703 64.08200073242188,-64.44300079345703 C51.33300018310547,-64.44300079345703 40.79800033569336,-52.41899871826172 39.2140007019043,-36.862998962402344 C37.33000183105469,-58.36399841308594 50.23099899291992,-72.63200378417969 64.08200073242188,-72.63200378417969 C77.93299865722656,-72.63200378417969 90.33000183105469,-59.03099822998047 88.94999694824219,-36.862998962402344z"></path></g></g><g opacity="1" transform="matrix(1,0,0,1,0,0)"><g opacity="1" transform="matrix(1,0,0,1,0,0)"><path fill="rgb(255,225,156)" fill-opacity="1" d=" M-35.83100128173828,-40.803001403808594 C-35.83100128173828,-20.117000579833984 -48.04399871826172,-3.3489999771118164 -63.11000061035156,-3.3489999771118164 C-78.1760025024414,-3.3489999771118164 -90.38999938964844,-20.117000579833984 -90.38999938964844,-40.803001403808594 C-90.38999938964844,-61.48899841308594 -35.83100128173828,-61.48899841308594 -35.83100128173828,-40.803001403808594z"></path></g><g opacity="1" transform="matrix(1,0,0,1,0,0)"><path fill="rgb(255,173,0)" fill-opacity="1" d=" M-35.83100128173828,-44.659000396728516 C-35.83100128173828,-26.10300064086914 -48.04399871826172,-11.0600004196167 -63.11000061035156,-11.0600004196167 C-78.1760025024414,-11.0600004196167 -90.38999938964844,-26.10300064086914 -90.38999938964844,-44.659000396728516 C-90.38999938964844,-63.21500015258789 -78.1760025024414,-78.25800323486328 -63.11000061035156,-78.25800323486328 C-48.04399871826172,-78.25800323486328 -35.83100128173828,-63.21500015258789 -35.83100128173828,-44.659000396728516z"></path></g><g opacity="1" transform="matrix(1,0,0,1,0,0)"><path fill="rgb(143,58,0)" fill-opacity="1" d=" M-38.027000427246094,-40.96900177001953 C-38.027000427246094,-23.48200035095215 -49.25699996948242,-9.305999755859375 -63.11000061035156,-9.305999755859375 C-76.96299743652344,-9.305999755859375 -88.19300079345703,-23.48200035095215 -88.19300079345703,-40.96900177001953 C-88.19300079345703,-58.45600128173828 -76.96299743652344,-72.63200378417969 -63.11000061035156,-72.63200378417969 C-49.25699996948242,-72.63200378417969 -38.027000427246094,-58.45600128173828 -38.027000427246094,-40.96900177001953z"></path></g><g opacity="1" transform="matrix(1,0,0,1,0,0)"><path fill="rgb(107,32,0)" fill-opacity="1" d=" M-38.242000579833984,-36.862998962402344 C-39.82500076293945,-52.41899871826172 -50.361000061035156,-64.44300079345703 -63.11000061035156,-64.44300079345703 C-75.85900115966797,-64.44300079345703 -86.39399719238281,-52.41899871826172 -87.97799682617188,-36.862998962402344 C-89.75299835205078,-57.78099822998047 -76.96099853515625,-72.63200378417969 -63.11000061035156,-72.63200378417969 C-49.25899887084961,-72.63200378417969 -36.25299835205078,-58.11399841308594 -38.242000579833984,-36.862998962402344z"></path></g></g></g><g style="display: block;" transform="matrix(1,0,0,1,256,255.99998474121094)" opacity="1"><g opacity="1" transform="matrix(1,0,0,1,0,0)"><g opacity="1" transform="matrix(1,0,0,1,0,0)"><path fill="rgb(255,237,182)" fill-opacity="1" d=" M43.465999603271484,-136.82000732421875 C49.606998443603516,-142.1540069580078 88.6510009765625,-132.44500732421875 104.62699890136719,-116.24800109863281 C127.37899780273438,-93.18199920654297 118.19999694824219,-82.3239974975586 113.50900268554688,-87.36399841308594 C83.69000244140625,-119.4020004272461 49.4739990234375,-123.19599914550781 45.29800033569336,-124.79900360107422 C39.78200149536133,-126.91600036621094 39.98400115966797,-133.7949981689453 43.465999603271484,-136.82000732421875z"></path></g><g opacity="1" transform="matrix(1,0,0,1,0,0)"><path fill="rgb(143,58,0)" fill-opacity="1" d=" M44.05500030517578,-137.3780059814453 C57.02000045776367,-144.81199645996094 86.89600372314453,-137.58099365234375 102.87300109863281,-121.38400268554688 C125.625,-98.31800079345703 119.73400115966797,-86.87000274658203 114.6989974975586,-91.56600189208984 C109.66400146484375,-96.26200103759766 92.9000015258789,-116.06700134277344 64.07499694824219,-124.40799713134766 C56.35100173950195,-126.64299774169922 50.70800018310547,-127.5199966430664 46.487998962402344,-129.0019989013672 C40.22700119018555,-131.1999969482422 41.3120002746582,-135.80499267578125 44.05500030517578,-137.3780059814453z"></path></g></g><g opacity="1" transform="matrix(1,0,0,1,0,0)"><path fill="rgb(107,32,0)" fill-opacity="1" d=" M42.388999938964844,-131.9530029296875 C59.441001892089844,-140.5279998779297 104.74700164794922,-133.12100219726562 117.5260009765625,-90.62899780273438 C120.93599700927734,-91.78800201416016 121.1729965209961,-102.8290023803711 102.86900329589844,-121.38700103759766 C86.89900207519531,-137.5760040283203 64.63600158691406,-141.947998046875 51.75899887084961,-140.21600341796875 C48.78200149536133,-139.8159942626953 39.87300109863281,-138.01800537109375 42.388999938964844,-131.9530029296875z"></path></g></g><g style="display: block;" transform="matrix(1,0,0,1,256,255.99998474121094)" opacity="1"><g opacity="1" transform="matrix(1,0,0,1,0,0)"><g opacity="1" transform="matrix(1,0,0,1,0,0)"><path fill="rgb(255,237,182)" fill-opacity="1" d=" M-38.90700149536133,-115.58200073242188 C-44.12799835205078,-121.81999969482422 -84.21499633789062,-118.4020004272461 -102.55000305175781,-104.93399810791016 C-128.66099548339844,-85.75399780273438 -121.31300354003906,-73.58200073242188 -115.88500213623047,-77.81700134277344 C-81.37699890136719,-104.73899841308594 -46.992000579833984,-103.0790023803711 -42.6150016784668,-104.00199890136719 C-36.83399963378906,-105.22100067138672 -35.946998596191406,-112.04499816894531 -38.90700149536133,-115.58200073242188z"></path></g><g opacity="1" transform="matrix(1,0,0,1,0,0)"><path fill="rgb(143,58,0)" fill-opacity="1" d=" M-39.400001525878906,-116.22599792480469 C-51.027000427246094,-125.61499786376953 -81.6719970703125,-123.1969985961914 -100.00700378417969,-109.72899627685547 C-126.11799621582031,-90.54900360107422 -122.11000061035156,-78.31400299072266 -116.39600372314453,-82.15499877929688 C-110.68199920654297,-85.99600219726562 -91,-102.9020004272461 -61.21900177001953,-106.58300018310547 C-53.23899841308594,-107.56900024414062 -47.52799987792969,-107.54399871826172 -43.125999450683594,-108.33999633789062 C-36.59600067138672,-109.52100372314453 -36.939998626708984,-114.23899841308594 -39.400001525878906,-116.22599792480469z"></path></g></g><g opacity="1" transform="matrix(1,0,0,1,0,0)"><path fill="rgb(107,32,0)" fill-opacity="1" d=" M-38.61199951171875,-110.60600280761719 C-54.09400177001953,-121.76799774169922 -100.00299835205078,-121.61399841308594 -119.33699798583984,-81.6760025024414 C-122.52100372314453,-83.35900115966797 -121.01000213623047,-94.29900360107422 -100.00299835205078,-109.73100280761719 C-81.67500305175781,-123.19300079345703 -59.000999450683594,-123.99099731445312 -46.558998107910156,-120.24600219726562 C-43.68299865722656,-119.38099670410156 -35.16899871826172,-116.1969985961914 -38.61199951171875,-110.60600280761719z"></path></g></g><g style="display: block;" transform="matrix(1.0000022649765015,0.000003011025910382159,0.003895415924489498,0.9999967813491821,255.75100708007812,255.99940490722656)" opacity="1"><g opacity="0.4" transform="matrix(1,0,0,1,0,0)"><path fill="rgb(255,118,42)" fill-opacity="1" d=" M12.345000267028809,71.71499633789062 C12.345000267028809,71.71499633789062 36.803001403808594,70.375 70.19999694824219,81.99400329589844 C92.47799682617188,89.74400329589844 118.72599792480469,103.23799896240234 130.20700073242188,131.0469970703125 C130.20700073242188,131.0469970703125 175.01100158691406,98.51300048828125 165.67799377441406,60.67399978637695 C162.8459930419922,49.194000244140625 40.21799850463867,40.040000915527344 12.345000267028809,71.71499633789062z"></path></g></g><g style="display: block;" transform="matrix(1,0,0,1,256,255.99998474121094)" opacity="1"><g opacity="1" transform="matrix(1,0,0,1,0,0)"><path fill="rgb(255,225,156)" fill-opacity="1" d=" M27.857999801635742,121.2229995727539 C34.69499969482422,113.51599884033203 25.018999099731445,98.76599884033203 -0.10100000351667404,100.05400085449219 C-28.81100082397461,101.5270004272461 -61.00400161743164,126.70999908447266 -52.082000732421875,135.8489990234375 C-45.992000579833984,142.08799743652344 -35.81800079345703,125.96800231933594 -13.093999862670898,122.12799835205078 C11.458000183105469,117.97899627685547 21.20800018310547,128.718994140625 27.857999801635742,121.2229995727539z"></path></g><g opacity="1" transform="matrix(1,0,0,1,0,0)"><path fill="rgb(255,173,0)" fill-opacity="1" d=" M28.548999786376953,115.9530029296875 C34.150001525878906,107.50800323486328 20.20800018310547,92.322998046875 -4.9120001792907715,93.61100006103516 C-33.62200164794922,95.08399963378906 -61.61399841308594,121.6780014038086 -52.72100067138672,132.2830047607422 C-49.07400131225586,136.6320037841797 -39.801998138427734,119.19200134277344 -13.093999862670898,114.12799835205078 C11.369999885559082,109.48999786376953 23.010000228881836,124.30400085449219 28.548999786376953,115.9530029296875z"></path></g><g opacity="1" transform="matrix(1,0,0,1,0,0)"><path fill="rgb(143,58,0)" fill-opacity="1" d=" M27.857999801635742,117.2229995727539 C33.45899963378906,108.77899932861328 20.20800018310547,97.322998046875 -4.9120001792907715,98.61100006103516 C-33.62200164794922,100.08399963378906 -60.02199935913086,127.43900299072266 -52.082000732421875,132.85000610351562 C-44.87699890136719,137.75999450683594 -39.801998138427734,122.19200134277344 -13.093999862670898,117.12799835205078 C11.369999885559082,112.48999786376953 22.319000244140625,125.5739974975586 27.857999801635742,117.2229995727539z"></path></g><g opacity="1" transform="matrix(1,0,0,1,0,0)"><path fill="rgb(107,32,0)" fill-opacity="1" d=" M28.548999786376953,115.9530029296875 C25.839000701904297,109.3030014038086 13.729000091552734,103.24299621582031 -4.910999774932861,104.2030029296875 C-27.381000518798828,105.35299682617188 -48.430999755859375,122.35299682617188 -52.72100067138672,132.2830047607422 C-58.37099838256836,125.75299835205078 -32.73099899291992,100.03299713134766 -4.910999774932861,98.61299896240234 C18.9689998626709,97.38300323486328 32.11899948120117,107.68299865722656 28.548999786376953,115.9530029296875z"></path></g></g><g style="display: block;" transform="matrix(1.0000022649765015,0.000003011025910382159,0.003895415924489498,0.9999967813491821,255.75100708007812,255.99940490722656)" opacity="1"><g opacity="1" transform="matrix(1,0,0,1,0,0)"><path fill="rgb(255,207,0)" fill-opacity="1" d=" M22.472000122070312,-3.3489999771118164 C22.472000122070312,-3.3489999771118164 48.0890007019043,8.949000358581543 83.23600006103516,11.557000160217285 C128.81900024414062,14.939000129699707 166.4720001220703,6.132999897003174 188.7740020751953,15.821999549865723 C219.9969940185547,29.38599967956543 223.2480010986328,90.0979995727539 167.45399475097656,89.97699737548828 C140.90499877929688,89.91999816894531 98.2300033569336,65.92500305175781 64.08200073242188,64.32599639892578 C29.93400001525879,62.72700119018555 12.345000267028809,68.05699920654297 12.345000267028809,68.05699920654297 C12.345000267028809,68.05699920654297 22.472000122070312,-3.3489999771118164 22.472000122070312,-3.3489999771118164z"></path></g><g opacity="1" transform="matrix(1,0,0,1,0,0)"><path fill="rgb(255,222,102)" fill-opacity="1" d=" M189.23800659179688,37.03099822998047 C198.35899353027344,31.240999221801758 195.48899841308594,10.947999954223633 145.68099975585938,14.253000259399414 C106.75900268554688,16.834999084472656 74.87300109863281,14.420999526977539 49.090999603271484,9.831000328063965 C33.7869987487793,7.10699987411499 27.03499984741211,16.461000442504883 62.939998626708984,20.430999755859375 C161.67599487304688,31.347999572753906 174.3040008544922,46.5099983215332 189.23800659179688,37.03099822998047z"></path></g><g opacity="1" transform="matrix(1,0,0,1,0,0)"><path fill="rgb(255,173,0)" fill-opacity="1" d=" M167.44900512695312,89.9729995727539 C107.74700164794922,75.38500213623047 77.24700164794922,59.6349983215332 14.769000053405762,63.59299850463867 C14.769000053405762,63.59299850463867 54.00699996948242,50.814998626708984 99.8290023803711,60.27299880981445 C143.75,69.33799743652344 207.6490020751953,84.38300323486328 208.73899841308594,38.26300048828125 C220.7469940185547,67.38500213623047 193.24099731445312,96.2750015258789 167.44900512695312,89.9729995727539z"></path></g><g opacity="1" transform="matrix(1,0,0,1,0,0)"><path fill="rgb(255,255,255)" fill-opacity="1" d=" M181.80099487304688,24.374000549316406 C181.3730010986328,26.51099967956543 179.83999633789062,27.006000518798828 177.08399963378906,26.38800048828125 C174.21200561523438,25.743000030517578 173.04299926757812,24.947999954223633 173.55099487304688,22.670000076293945 C174.0330047607422,20.510000228881836 175.69400024414062,20.104999542236328 178.26800537109375,20.6560001373291 C181.04600524902344,21.250999450683594 182.1790008544922,22.483999252319336 181.80099487304688,24.374000549316406z"></path></g><g opacity="1" transform="matrix(1,0,0,1,0,0)"><path stroke-linecap="round" stroke-linejoin="round" fill-opacity="0" stroke="rgb(255,118,42)" stroke-opacity="1" stroke-width="8" d=" M22.472000122070312,-3.3489999771118164 C22.472000122070312,-3.3489999771118164 48.0890007019043,8.949000358581543 83.23600006103516,11.557000160217285 C128.81900024414062,14.939000129699707 165.90499877929688,7.560999870300293 188.7740020751953,15.821999549865723 C224.2469940185547,28.63599967956543 218.2480010986328,93.53299713134766 167.45399475097656,89.97699737548828 C140.97000122070312,88.12300109863281 98.2300033569336,65.92500305175781 64.08200073242188,64.32599639892578 C29.93400001525879,62.72700119018555 12.345000267028809,68.05699920654297 12.345000267028809,68.05699920654297 C12.345000267028809,68.05699920654297 12.37399959564209,67.85399627685547 12.428000450134277,67.46900177001953"></path></g></g></g></svg>