<svg xmlns="http://www.w3.org/2000/svg" viewBox="0 0 512 512" width="512" height="512" style="width: 100%; height: 100%; transform: translate3d(0,0,0);" preserveAspectRatio="xMidYMid meet"><defs><clipPath id="__lottie_element_1740"><rect width="512" height="512" x="0" y="0"></rect></clipPath><linearGradient id="__lottie_element_1747" spreadMethod="pad" gradientUnits="userSpaceOnUse" x1="0" y1="-126" x2="0" y2="129.35699462890625"><stop offset="0%" stop-color="rgb(199,212,218)"></stop><stop offset="49%" stop-color="rgb(190,198,201)"></stop><stop offset="98%" stop-color="rgb(181,183,184)"></stop></linearGradient><linearGradient id="__lottie_element_1748" spreadMethod="pad" gradientUnits="userSpaceOnUse" x1="-1" y1="-126" x2="-1" y2="132.19700622558594"><stop offset="0%" stop-color="rgb(238,242,248)"></stop><stop offset="62%" stop-color="rgb(225,226,231)"></stop><stop offset="98%" stop-color="rgb(212,211,214)"></stop></linearGradient><linearGradient id="__lottie_element_1752" spreadMethod="pad" gradientUnits="userSpaceOnUse" x1="0" y1="61" x2="0" y2="85.802001953125"><stop offset="30%" stop-color="rgb(0,0,0)"></stop><stop offset="65%" stop-color="rgb(88,88,88)"></stop><stop offset="100%" stop-color="rgb(176,176,176)"></stop></linearGradient><radialGradient id="__lottie_element_1756" spreadMethod="pad" gradientUnits="userSpaceOnUse" cx="-82.58100128173828" cy="91.14800262451172" r="113.17653835250157" fx="-82.58100128173828" fy="91.14800262451172"><stop offset="0%" stop-color="rgb(255,255,255)"></stop><stop offset="100%" stop-color="rgb(0,0,0)"></stop></radialGradient><radialGradient id="__lottie_element_1760" spreadMethod="pad" gradientUnits="userSpaceOnUse" cx="-82.58100128173828" cy="91.14800262451172" r="113.17653835250157" fx="-82.58100128173828" fy="91.14800262451172"><stop offset="0%" stop-color="rgb(255,255,255)"></stop><stop offset="100%" stop-color="rgb(0,0,0)"></stop></radialGradient><linearGradient id="__lottie_element_1767" spreadMethod="pad" gradientUnits="userSpaceOnUse" x1="74.6050033569336" y1="80.5199966430664" x2="-106.12100219726562" y2="-99.6500015258789"><stop offset="0%" stop-color="rgb(234,236,240)"></stop><stop offset="10%" stop-color="rgb(200,206,210)"></stop><stop offset="50%" stop-color="rgb(165,177,180)"></stop><stop offset="91%" stop-color="rgb(199,206,210)"></stop><stop offset="97%" stop-color="rgb(233,235,239)"></stop></linearGradient><linearGradient id="__lottie_element_1771" spreadMethod="pad" gradientUnits="userSpaceOnUse" x1="-36.73699951171875" y1="51.93299865722656" x2="7.308000087738037" y2="-29.05299949645996"><stop offset="0%" stop-color="rgb(234,236,240)"></stop><stop offset="10%" stop-color="rgb(207,212,216)"></stop><stop offset="50%" stop-color="rgb(180,189,192)"></stop><stop offset="91%" stop-color="rgb(207,212,215)"></stop><stop offset="97%" stop-color="rgb(233,235,239)"></stop></linearGradient></defs><g clip-path="url(#__lottie_element_1740)"><g style="display: block;" transform="matrix(1,0,0,1,256,256)" opacity="1"><g opacity="1" transform="matrix(1,0,0,1,0,0)"><path fill="url(#__lottie_element_1771)" fill-opacity="1" d=" M191.50100708007812,-144.77499389648438 C183.46200561523438,-163.74600219726562 162.97900390625,-163.06500244140625 157.60899353027344,-166.08599853515625 C150.77999877929688,-169.927001953125 159.46400451660156,-186.51300048828125 143.177001953125,-193.94400024414062 C127.30000305175781,-201.18800354003906 103.0479965209961,-186.39500427246094 95.95899963378906,-154.33900451660156 C90.38099670410156,-129.11599731445312 91.50599670410156,-125.36699676513672 83.74400329589844,-115.63700103759766 C83.74400329589844,-115.63700103759766 -117.68499755859375,85.11499786376953 -117.68499755859375,85.11499786376953 C-132.81500244140625,100.24500274658203 -148.57699584960938,93.7229995727539 -172.18899536132812,107.52999877929688 C-199.3560028076172,123.41600036621094 -195.3040008544922,145.8820037841797 -183.68899536132812,156.13999938964844 C-173.56100463867188,165.0850067138672 -165.31900024414062,161.64999389648438 -159.7790069580078,167.6199951171875 C-155.5290069580078,172.19000244140625 -159.55599975585938,190.16000366210938 -144.5989990234375,197.3699951171875 C-126.90499877929688,205.89999389648438 -104.35800170898438,190.6909942626953 -98.21900177001953,162.8699951171875 C-92.94999694824219,138.99000549316406 -97.83899688720703,129.0399932861328 -85.62899780273438,116.2699966430664 C-85.62899780273438,116.2699966430664 116.56900024414062,-85.55400085449219 116.56900024414062,-85.55400085449219 C127.30899810791016,-93.94499969482422 134.968994140625,-89.75399780273438 157.60899353027344,-95.26899719238281 C183.78799438476562,-101.64600372314453 200.19500732421875,-124.25800323486328 191.50100708007812,-144.77499389648438z"></path></g><g opacity="1" transform="matrix(1,0,0,1,0,0)"><g opacity="0.3" transform="matrix(1,0,0,1,0,0)"><path fill="rgb(112,123,124)" fill-opacity="1" d=" M191.50100708007812,-144.77999877929688 C183.46099853515625,-163.75 162.9810028076172,-163.07000732421875 157.61099243164062,-166.08999633789062 C155.49099731445312,-167.27999877929688 154.87100219726562,-169.7100067138672 154.531005859375,-172.7100067138672 C154.531005859375,-172.7100067138672 147.51600646972656,-168.0850067138672 164.35000610351562,-157.89199829101562 C177.822998046875,-149.73399353027344 182.71400451660156,-131.8820037841797 171.76100158691406,-122.23999786376953 C156.5780029296875,-108.875 135.4429931640625,-108.43299865722656 124.53800201416016,-111.4219970703125 C109.2979965209961,-115.5989990234375 134.98599243164062,-135.43600463867188 131.86099243164062,-138.97500610351562 C129.62100219726562,-141.51100158691406 121.0999984741211,-132.64999389648438 115.75599670410156,-132.43699645996094 C99.78700256347656,-131.802001953125 106.09100341796875,-189.5070037841797 136.99400329589844,-192.8459930419922 C136.99400329589844,-192.8459930419922 106.05799865722656,-201.36099243164062 94.36100006103516,-146.8520050048828 C90.16200256347656,-127.28600311279297 86.78199768066406,-119.8499984741211 86.78199768066406,-119.8499984741211 C86.78199768066406,-119.8499984741211 -94.39600372314453,62.207000732421875 -94.39600372314453,62.207000732421875 C-94.39600372314453,62.207000732421875 -117.68499755859375,85.11499786376953 -117.68499755859375,85.11499786376953 C-117.68499755859375,85.11499786376953 -154.2469940185547,104.2229995727539 -154.2469940185547,104.2229995727539 C-135.3939971923828,98.72599792480469 -107.25499725341797,102.01599884033203 -111.45800018310547,122.67500305175781 C-115.03900146484375,140.2760009765625 -111.36699676513672,147.5659942626953 -121.447998046875,169.96800231933594 C-130.44900512695312,189.97000122070312 -144.5749969482422,187.32200622558594 -147.91900634765625,167.77999877929688 C-151.0070037841797,149.73300170898438 -130.9669952392578,135.927001953125 -135.87399291992188,131.48399353027344 C-139.50799560546875,128.1929931640625 -157.99600219726562,160.0959930419922 -177.47900390625,146.35000610351562 C-192.08900451660156,136.04200744628906 -179.74899291992188,112.73999786376953 -179.74899291992188,112.73999786376953 C-198.41900634765625,128.00999450683594 -194.08900451660156,146.9600067138672 -183.68899536132812,156.13999938964844 C-173.5590057373047,165.08999633789062 -164.31900024414062,161.64999389648438 -158.7790069580078,167.6199951171875 C-154.5290069580078,172.19000244140625 -159.5590057373047,190.16000366210938 -144.5989990234375,197.3699951171875 C-126.90899658203125,205.89999389648438 -104.35900115966797,190.69000244140625 -98.21900177001953,162.8699951171875 C-92.9489974975586,138.99000549316406 -97.83899688720703,129.0399932861328 -85.62899780273438,116.2699966430664 C-85.56500244140625,116.20600128173828 -75.41899871826172,105.91600036621094 -66.9739990234375,97.35199737548828 C-66.9739990234375,97.35199737548828 -66.58499908447266,97.58599853515625 -66.58499908447266,97.58599853515625 C-66.58499908447266,97.58599853515625 116.57099914550781,-85.55000305175781 116.57099914550781,-85.55000305175781 C127.31099700927734,-93.94999694824219 134.9709930419922,-89.75 157.61099243164062,-95.2699966430664 C183.79100036621094,-101.6500015258789 200.1909942626953,-124.26000213623047 191.50100708007812,-144.77999877929688z"></path></g><g opacity="0.3" transform="matrix(1,0,0,1,0,0)"><path fill="rgb(112,123,124)" fill-opacity="0" d=" M191.50100708007812,-144.77999877929688 C183.46099853515625,-163.75 162.9810028076172,-163.07000732421875 157.61099243164062,-166.08999633789062 C155.49099731445312,-167.27999877929688 154.87100219726562,-169.7100067138672 154.531005859375,-172.7100067138672 C154.531005859375,-172.7100067138672 147.51600646972656,-168.0850067138672 164.35000610351562,-157.89199829101562 C177.822998046875,-149.73399353027344 182.71400451660156,-131.8820037841797 171.76100158691406,-122.23999786376953 C156.5780029296875,-108.875 135.4429931640625,-108.43299865722656 124.53800201416016,-111.4219970703125 C117.88700103759766,-105.31600189208984 -101.26499938964844,109.01499938964844 -111.45800018310547,122.67500305175781 C-115.03900146484375,140.2760009765625 -111.36699676513672,147.5659942626953 -121.447998046875,169.96800231933594 C-130.44900512695312,189.97000122070312 -144.5749969482422,187.32200622558594 -147.91900634765625,167.77999877929688 C-151.0070037841797,149.73300170898438 -164.31900024414062,161.64999389648438 -158.7790069580078,167.6199951171875 C-154.5290069580078,172.19000244140625 -159.5590057373047,190.16000366210938 -144.5989990234375,197.3699951171875 C-126.90899658203125,205.89999389648438 -104.35900115966797,190.69000244140625 -98.21900177001953,162.8699951171875 C-92.9489974975586,138.99000549316406 -97.83899688720703,129.0399932861328 -85.62899780273438,116.2699966430664 C-85.56500244140625,116.20600128173828 -75.41899871826172,105.91600036621094 -66.9739990234375,97.35199737548828 C-66.9739990234375,97.35199737548828 -66.58499908447266,97.58599853515625 -66.58499908447266,97.58599853515625 C-66.58499908447266,97.58599853515625 116.57099914550781,-85.55000305175781 116.57099914550781,-85.55000305175781 C127.31099700927734,-93.94999694824219 134.9709930419922,-89.75 157.61099243164062,-95.2699966430664 C183.79100036621094,-101.6500015258789 200.1909942626953,-124.26000213623047 191.50100708007812,-144.77999877929688z"></path></g><g opacity="0.4" transform="matrix(1,0,0,1,0,0)"><path fill="rgb(255,255,255)" fill-opacity="1" d=" M-116.2969970703125,129.1020050048828 C-122.38899993896484,125.29900360107422 -133.9669952392578,137.9929962158203 -144.42799377441406,151.63999938964844 C-152.49000549316406,162.15699768066406 -145.55099487304688,185.24000549316406 -134.16000366210938,183.25799560546875 C-118.2239990234375,180.48500061035156 -109.61699676513672,133.27200317382812 -116.2969970703125,129.1020050048828z"></path></g><g opacity="0.4" transform="matrix(1,0,0,1,0,0)"><path fill="rgb(255,255,255)" fill-opacity="1" d=" M-138.84500122070312,115.16699981689453 C-142.55099487304688,109.3489990234375 -169.1199951171875,114.14199829101562 -177.94200134277344,127.9520034790039 C-186.2729949951172,140.99400329589844 -175.62399291992188,151.22300720214844 -163.86900329589844,149.5540008544922 C-158.5570068359375,148.8000030517578 -153.50999450683594,141.4669952392578 -148.70599365234375,135.0019989013672 C-142.322998046875,126.41200256347656 -137.05299377441406,117.97899627685547 -138.84500122070312,115.16699981689453z"></path></g></g><g opacity="1" transform="matrix(1,0,0,1,0,0)"><path stroke-linecap="round" stroke-linejoin="miter" fill-opacity="0" stroke-miterlimit="10" stroke="rgb(112,123,124)" stroke-opacity="1" stroke-width="8" d=" M191.50100708007812,-144.77499389648438 C183.46200561523438,-163.74600219726562 162.97900390625,-163.06500244140625 157.60899353027344,-166.08599853515625 C150.77999877929688,-169.927001953125 159.46400451660156,-186.51300048828125 143.177001953125,-193.94400024414062 C127.30000305175781,-201.18800354003906 103.0479965209961,-186.39500427246094 95.95899963378906,-154.33900451660156 C90.38099670410156,-129.11599731445312 91.50599670410156,-125.36699676513672 83.74400329589844,-115.63700103759766 C83.74400329589844,-115.63700103759766 -117.68499755859375,85.11499786376953 -117.68499755859375,85.11499786376953 C-132.81500244140625,100.24500274658203 -148.57699584960938,93.7229995727539 -172.18899536132812,107.52999877929688 C-199.3560028076172,123.41600036621094 -195.3040008544922,145.8820037841797 -183.68899536132812,156.13999938964844 C-173.56100463867188,165.0850067138672 -165.31900024414062,161.64999389648438 -159.7790069580078,167.6199951171875 C-155.5290069580078,172.19000244140625 -159.55599975585938,190.16000366210938 -144.5989990234375,197.3699951171875 C-126.90499877929688,205.89999389648438 -104.35800170898438,190.6909942626953 -98.21900177001953,162.8699951171875 C-92.94999694824219,138.99000549316406 -97.83899688720703,129.0399932861328 -85.62899780273438,116.2699966430664 C-85.62899780273438,116.2699966430664 116.56900024414062,-85.55400085449219 116.56900024414062,-85.55400085449219 C127.30899810791016,-93.94499969482422 134.968994140625,-89.75399780273438 157.60899353027344,-95.26899719238281 C183.78799438476562,-101.64600372314453 200.19500732421875,-124.25800323486328 191.50100708007812,-144.77499389648438z"></path></g><g opacity="0.5" transform="matrix(1,0,0,1,0,0)"><path fill="rgb(255,255,255)" fill-opacity="1" d=" M139.1219940185547,-180.75900268554688 C128.38299560546875,-185.06399536132812 117.48100280761719,-167.86500549316406 117.58499908447266,-148.968994140625 C117.68099975585938,-131.60400390625 130.33099365234375,-144.9320068359375 140.89999389648438,-158.38600158691406 C145.78500366210938,-164.60499572753906 147.91000366210938,-177.23599243164062 139.1219940185547,-180.75900268554688z"></path></g><g opacity="0.5" transform="matrix(1,0,0,1,0,0)"><path fill="rgb(255,255,255)" fill-opacity="1" d=" M177.45599365234375,-140.18499755859375 C175.27099609375,-152.18600463867188 161.80599975585938,-155.45599365234375 152.23199462890625,-152.95799255371094 C142.6580047607422,-150.46099853515625 118.23300170898438,-122.3479995727539 119.76399993896484,-115.49500274658203 C122.35099792480469,-103.91000366210938 183.08299255371094,-109.28199768066406 177.45599365234375,-140.18499755859375z"></path></g></g><g style="display: block;" transform="matrix(1,0,0,1,256,256)" opacity="1"><g opacity="1" transform="matrix(1,0,0,1,0,0)"><g opacity="1" transform="matrix(1,0,0,1,0,0)"><path fill="url(#__lottie_element_1767)" fill-opacity="1" d=" M-190.2760009765625,-144.77499389648438 C-182.23699951171875,-163.74600219726562 -161.75399780273438,-163.06500244140625 -156.38400268554688,-166.08599853515625 C-149.55499267578125,-169.927001953125 -158.23899841308594,-186.51300048828125 -141.95199584960938,-193.94400024414062 C-126.07499694824219,-201.18800354003906 -101.822998046875,-186.39500427246094 -94.73400115966797,-154.33900451660156 C-89.15599822998047,-129.11599731445312 -90.28199768066406,-125.36699676513672 -82.5199966430664,-115.63700103759766 C-82.5199966430664,-115.63700103759766 118.90899658203125,85.11499786376953 118.90899658203125,85.11499786376953 C134.03799438476562,100.24500274658203 149.802001953125,93.7229995727539 173.41400146484375,107.52999877929688 C200.58099365234375,123.41600036621094 196.5290069580078,145.8820037841797 184.91400146484375,156.13999938964844 C174.78599548339844,165.0850067138672 166.54400634765625,161.64999389648438 161.00399780273438,167.6199951171875 C156.75399780273438,172.19000244140625 160.781005859375,190.16000366210938 145.82400512695312,197.3699951171875 C128.1300048828125,205.89999389648438 105.58300018310547,190.6909942626953 99.44400024414062,162.8699951171875 C94.17500305175781,138.99000549316406 99.06400299072266,129.0399932861328 86.85399627685547,116.2699966430664 C86.85399627685547,116.2699966430664 -115.34400177001953,-85.55400085449219 -115.34400177001953,-85.55400085449219 C-126.08399963378906,-93.94499969482422 -133.7449951171875,-89.75399780273438 -156.38400268554688,-95.26899719238281 C-182.56300354003906,-101.64600372314453 -198.97000122070312,-124.25800323486328 -190.2760009765625,-144.77499389648438z"></path></g><g opacity="1" transform="matrix(1,0,0,1,0,0)"><g opacity="0.3" transform="matrix(1,0,0,1,0,0)"><path fill="rgb(112,123,124)" fill-opacity="1" d=" M-190.2760009765625,-144.77999877929688 C-182.23599243164062,-163.75 -161.75599670410156,-163.07000732421875 -156.38600158691406,-166.08999633789062 C-154.26600646972656,-167.27999877929688 -153.64599609375,-169.7100067138672 -153.30599975585938,-172.7100067138672 C-153.30599975585938,-172.7100067138672 -146.29200744628906,-168.0850067138672 -163.12600708007812,-157.89199829101562 C-176.5989990234375,-149.73399353027344 -181.48899841308594,-131.8820037841797 -170.53599548339844,-122.23999786376953 C-155.35299682617188,-108.875 -134.21800231933594,-108.43299865722656 -123.31300354003906,-111.4219970703125 C-108.072998046875,-115.5989990234375 -133.76100158691406,-135.43600463867188 -130.63600158691406,-138.97500610351562 C-128.39599609375,-141.51100158691406 -119.8759994506836,-132.64999389648438 -114.53199768066406,-132.43699645996094 C-98.56300354003906,-131.802001953125 -104.86599731445312,-189.5070037841797 -135.7689971923828,-192.8459930419922 C-135.7689971923828,-192.8459930419922 -104.83300018310547,-201.36099243164062 -93.13600158691406,-146.8520050048828 C-88.93699645996094,-127.28600311279297 -85.55699920654297,-119.8499984741211 -85.55699920654297,-119.8499984741211 C-85.55699920654297,-119.8499984741211 95.62000274658203,62.207000732421875 95.62000274658203,62.207000732421875 C95.62000274658203,62.207000732421875 124.71499633789062,89.91300201416016 124.71499633789062,89.91300201416016 C124.71499633789062,89.91300201416016 149.14300537109375,101.55999755859375 149.14300537109375,101.55999755859375 C130.18600463867188,98.51699829101562 110.0459976196289,101.53700256347656 113.34500122070312,119.67500305175781 C116.36499786376953,136.27699279785156 111.85399627685547,146.0540008544922 122.6729965209961,169.96800231933594 C131.71400451660156,189.9510040283203 145.8000030517578,187.32200622558594 149.1439971923828,167.77999877929688 C152.23199462890625,149.73300170898438 132.19200134277344,135.927001953125 137.0989990234375,131.48399353027344 C140.73300170898438,128.1929931640625 159.2209930419922,160.0959930419922 178.70399475097656,146.35000610351562 C193.31399536132812,136.04200744628906 180.9739990234375,112.73999786376953 180.9739990234375,112.73999786376953 C199.6439971923828,128.00999450683594 195.31399536132812,146.9600067138672 184.91400146484375,156.13999938964844 C174.78399658203125,165.08999633789062 165.54400634765625,161.64999389648438 160.00399780273438,167.6199951171875 C155.75399780273438,172.19000244140625 160.78399658203125,190.16000366210938 145.82400512695312,197.3699951171875 C128.13400268554688,205.89999389648438 105.58399963378906,190.69000244140625 99.44400024414062,162.8699951171875 C94.17400360107422,138.99000549316406 99.06400299072266,129.0399932861328 86.85399627685547,116.2699966430664 C86.79000091552734,116.20600128173828 76.64299774169922,105.91600036621094 68.1989974975586,97.35199737548828 C68.1989974975586,97.35199737548828 67.80999755859375,97.58599853515625 67.80999755859375,97.58599853515625 C67.80999755859375,97.58599853515625 -115.34600067138672,-85.55000305175781 -115.34600067138672,-85.55000305175781 C-126.08599853515625,-93.94999694824219 -133.74600219726562,-89.75 -156.38600158691406,-95.2699966430664 C-182.5659942626953,-101.6500015258789 -198.96600341796875,-124.26000213623047 -190.2760009765625,-144.77999877929688z"></path></g><g opacity="0" transform="matrix(1,0,0,1,0,0)"><path fill="rgb(112,123,124)" fill-opacity="1" d=" M-190.2760009765625,-144.77999877929688 C-182.23599243164062,-163.75 -161.75599670410156,-163.07000732421875 -156.38600158691406,-166.08999633789062 C-154.26600646972656,-167.27999877929688 -153.64599609375,-169.7100067138672 -153.30599975585938,-172.7100067138672 C-153.30599975585938,-172.7100067138672 -146.29200744628906,-168.0850067138672 -163.12600708007812,-157.89199829101562 C-176.5989990234375,-149.73399353027344 -181.48899841308594,-131.8820037841797 -170.53599548339844,-122.23999786376953 C-155.35299682617188,-108.875 -134.21800231933594,-108.43299865722656 -123.31300354003906,-111.4219970703125 C-119.09400177001953,-107.0989990234375 105.39900207519531,111.1989974975586 113.34500122070312,119.67500305175781 C116.36499786376953,136.27699279785156 111.85399627685547,146.0540008544922 122.6729965209961,169.96800231933594 C131.71400451660156,189.9510040283203 145.8000030517578,187.32200622558594 149.1439971923828,167.77999877929688 C152.23199462890625,149.73300170898438 165.54400634765625,161.64999389648438 160.00399780273438,167.6199951171875 C155.75399780273438,172.19000244140625 160.78399658203125,190.16000366210938 145.82400512695312,197.3699951171875 C128.13400268554688,205.89999389648438 105.58399963378906,190.69000244140625 99.44400024414062,162.8699951171875 C94.17400360107422,138.99000549316406 99.06400299072266,129.0399932861328 86.85399627685547,116.2699966430664 C86.79000091552734,116.20600128173828 76.64299774169922,105.91600036621094 68.1989974975586,97.35199737548828 C68.1989974975586,97.35199737548828 67.80999755859375,97.58599853515625 67.80999755859375,97.58599853515625 C67.80999755859375,97.58599853515625 -115.34600067138672,-85.55000305175781 -115.34600067138672,-85.55000305175781 C-126.08599853515625,-93.94999694824219 -133.74600219726562,-89.75 -156.38600158691406,-95.2699966430664 C-182.5659942626953,-101.6500015258789 -198.96600341796875,-124.26000213623047 -190.2760009765625,-144.77999877929688z"></path></g><g opacity="0.4" transform="matrix(1,0,0,1,0,0)"><path fill="rgb(255,255,255)" fill-opacity="1" d=" M117.52100372314453,129.1020050048828 C123.61299896240234,125.29900360107422 135.19200134277344,137.9929962158203 145.6529998779297,151.63999938964844 C153.71499633789062,162.15699768066406 146.7760009765625,185.24000549316406 135.38499450683594,183.25799560546875 C119.4489974975586,180.48500061035156 110.84100341796875,133.27200317382812 117.52100372314453,129.1020050048828z"></path></g><g opacity="0.4" transform="matrix(1,0,0,1,0,0)"><path fill="rgb(255,255,255)" fill-opacity="1" d=" M140.07000732421875,115.16699981689453 C143.7760009765625,109.3489990234375 170.34500122070312,114.14199829101562 179.16700744628906,127.9520034790039 C187.4980010986328,140.99400329589844 176.8489990234375,151.22300720214844 165.093994140625,149.5540008544922 C159.78199768066406,148.8000030517578 154.73500061035156,141.4669952392578 149.93099975585938,135.0019989013672 C143.54800415039062,126.41200256347656 138.2779998779297,117.97899627685547 140.07000732421875,115.16699981689453z"></path></g></g><g opacity="1" transform="matrix(1,0,0,1,0,0)"><path stroke-linecap="round" stroke-linejoin="miter" fill-opacity="0" stroke-miterlimit="10" stroke="rgb(112,123,124)" stroke-opacity="1" stroke-width="8" d=" M-190.2760009765625,-144.77499389648438 C-182.23699951171875,-163.74600219726562 -161.75399780273438,-163.06500244140625 -156.38400268554688,-166.08599853515625 C-149.55499267578125,-169.927001953125 -158.23899841308594,-186.51300048828125 -141.95199584960938,-193.94400024414062 C-126.07499694824219,-201.18800354003906 -101.822998046875,-186.39500427246094 -94.73400115966797,-154.33900451660156 C-89.15599822998047,-129.11599731445312 -90.28199768066406,-125.36699676513672 -82.5199966430664,-115.63700103759766 C-82.5199966430664,-115.63700103759766 118.90899658203125,85.11499786376953 118.90899658203125,85.11499786376953 C134.03799438476562,100.24500274658203 149.802001953125,93.7229995727539 173.41400146484375,107.52999877929688 C200.58099365234375,123.41600036621094 196.5290069580078,145.8820037841797 184.91400146484375,156.13999938964844 C174.78599548339844,165.0850067138672 166.54400634765625,161.64999389648438 161.00399780273438,167.6199951171875 C156.75399780273438,172.19000244140625 160.781005859375,190.16000366210938 145.82400512695312,197.3699951171875 C128.1300048828125,205.89999389648438 105.58300018310547,190.6909942626953 99.44400024414062,162.8699951171875 C94.17500305175781,138.99000549316406 99.06400299072266,129.0399932861328 86.85399627685547,116.2699966430664 C86.85399627685547,116.2699966430664 -115.34400177001953,-85.55400085449219 -115.34400177001953,-85.55400085449219 C-126.08399963378906,-93.94499969482422 -133.7449951171875,-89.75399780273438 -156.38400268554688,-95.26899719238281 C-182.56300354003906,-101.64600372314453 -198.97000122070312,-124.25800323486328 -190.2760009765625,-144.77499389648438z"></path></g><g opacity="0.5" transform="matrix(1,0,0,1,0,0)"><path fill="rgb(255,255,255)" fill-opacity="1" d=" M-137.89700317382812,-180.75900268554688 C-127.15799713134766,-185.06399536132812 -116.25700378417969,-167.86500549316406 -116.36100006103516,-148.968994140625 C-116.45700073242188,-131.60400390625 -129.10699462890625,-144.9320068359375 -139.67599487304688,-158.38600158691406 C-144.56100463867188,-164.60499572753906 -146.68499755859375,-177.23599243164062 -137.89700317382812,-180.75900268554688z"></path></g><g opacity="0.5" transform="matrix(1,0,0,1,0,0)"><path fill="rgb(255,255,255)" fill-opacity="1" d=" M-176.2310028076172,-140.18499755859375 C-174.04600524902344,-152.18600463867188 -160.58099365234375,-155.45599365234375 -151.0070037841797,-152.95799255371094 C-141.43299865722656,-150.46099853515625 -117.00800323486328,-122.3479995727539 -118.53900146484375,-115.49500274658203 C-121.1259994506836,-103.91000366210938 -181.85800170898438,-109.28199768066406 -176.2310028076172,-140.18499755859375z"></path></g></g></g><g style="display: block;" transform="matrix(1,0,0,1,256,256)" opacity="1"><g opacity="1" transform="matrix(1,0,0,1,0,0)"><g opacity="1" transform="matrix(1,0,0,1,0,0)"><g opacity="1" transform="matrix(1,0,0,1,0,0)"><path fill="rgb(216,216,216)" fill-opacity="1" d=" M-49.60300064086914,144.25799560546875 C-49.60300064086914,144.25799560546875 -54.02399826049805,143.99899291992188 -55.98899841308594,138.177001953125 C-57.95399856567383,132.35499572753906 -57.95399856567383,125.36900329589844 -57.95399856567383,125.36900329589844 C-57.95399856567383,125.36900329589844 -51.66600036621094,124.32099914550781 -49.60300064086914,129.677001953125 C-49.60300064086914,129.677001953125 -49.60300064086914,144.25799560546875 -49.60300064086914,144.25799560546875z"></path><path stroke-linecap="round" stroke-linejoin="round" fill-opacity="0" stroke="rgb(124,138,143)" stroke-opacity="1" stroke-width="5" d=" M-49.60300064086914,144.25799560546875 C-49.60300064086914,144.25799560546875 -54.02399826049805,143.99899291992188 -55.98899841308594,138.177001953125 C-57.95399856567383,132.35499572753906 -57.95399856567383,125.36900329589844 -57.95399856567383,125.36900329589844 C-57.95399856567383,125.36900329589844 -51.66600036621094,124.32099914550781 -49.60300064086914,129.677001953125 C-49.60300064086914,129.677001953125 -49.60300064086914,144.25799560546875 -49.60300064086914,144.25799560546875z"></path></g><g opacity="1" transform="matrix(1,0,0,1,0,0)"><path fill="rgb(216,216,216)" fill-opacity="1" d=" M49.625,144.25799560546875 C49.625,144.25799560546875 54.04600143432617,143.99899291992188 56.01100158691406,138.177001953125 C57.97600173950195,132.35499572753906 57.97600173950195,125.36900329589844 57.97600173950195,125.36900329589844 C57.97600173950195,125.36900329589844 51.6879997253418,124.32099914550781 49.625,129.677001953125 C49.625,129.677001953125 49.625,144.25799560546875 49.625,144.25799560546875z"></path><path stroke-linecap="round" stroke-linejoin="round" fill-opacity="0" stroke="rgb(124,138,143)" stroke-opacity="1" stroke-width="5" d=" M49.625,144.25799560546875 C49.625,144.25799560546875 54.04600143432617,143.99899291992188 56.01100158691406,138.177001953125 C57.97600173950195,132.35499572753906 57.97600173950195,125.36900329589844 57.97600173950195,125.36900329589844 C57.97600173950195,125.36900329589844 51.6879997253418,124.32099914550781 49.625,129.677001953125 C49.625,129.677001953125 49.625,144.25799560546875 49.625,144.25799560546875z"></path></g><g opacity="1" transform="matrix(1,0,0,1,0,0)"><path fill="rgb(216,216,216)" fill-opacity="1" d=" M-36.755001068115234,149.77000427246094 C-36.755001068115234,149.77000427246094 -46.77000045776367,150.25900268554688 -49.60300064086914,144.5279998779297 C-49.60300064086914,144.5279998779297 -49.60300064086914,129.66400146484375 -49.60300064086914,129.66400146484375 C-49.60300064086914,129.66400146484375 -41.099998474121094,127.66500091552734 -36.755001068115234,134.552001953125 C-36.755001068115234,134.552001953125 -36.755001068115234,149.77000427246094 -36.755001068115234,149.77000427246094z"></path><path stroke-linecap="round" stroke-linejoin="round" fill-opacity="0" stroke="rgb(142,157,159)" stroke-opacity="1" stroke-width="5" d=" M-36.755001068115234,149.77000427246094 C-36.755001068115234,149.77000427246094 -46.77000045776367,150.25900268554688 -49.60300064086914,144.5279998779297 C-49.60300064086914,144.5279998779297 -49.60300064086914,129.66400146484375 -49.60300064086914,129.66400146484375 C-49.60300064086914,129.66400146484375 -41.099998474121094,127.66500091552734 -36.755001068115234,134.552001953125 C-36.755001068115234,134.552001953125 -36.755001068115234,149.77000427246094 -36.755001068115234,149.77000427246094z"></path></g><g opacity="1" transform="matrix(1,0,0,1,0,0)"><path fill="rgb(216,216,216)" fill-opacity="1" d=" M36.777000427246094,149.77000427246094 C36.777000427246094,149.77000427246094 46.63399887084961,150.37100219726562 49.625,144.5279998779297 C49.625,144.5279998779297 49.625,129.66400146484375 49.625,129.66400146484375 C49.625,129.66400146484375 41.12200164794922,127.66500091552734 36.777000427246094,134.552001953125 C36.777000427246094,134.552001953125 36.777000427246094,149.77000427246094 36.777000427246094,149.77000427246094z"></path><path stroke-linecap="round" stroke-linejoin="round" fill-opacity="0" stroke="rgb(142,157,159)" stroke-opacity="1" stroke-width="5" d=" M36.777000427246094,149.77000427246094 C36.777000427246094,149.77000427246094 46.63399887084961,150.37100219726562 49.625,144.5279998779297 C49.625,144.5279998779297 49.625,129.66400146484375 49.625,129.66400146484375 C49.625,129.66400146484375 41.12200164794922,127.66500091552734 36.777000427246094,134.552001953125 C36.777000427246094,134.552001953125 36.777000427246094,149.77000427246094 36.777000427246094,149.77000427246094z"></path></g><g opacity="1" transform="matrix(1,0,0,1,0,0)"><path fill="rgb(238,238,238)" fill-opacity="1" d=" M-19.834999084472656,136.7989959716797 C-19.834999084472656,136.7989959716797 -27.913000106811523,126.79900360107422 -36.755001068115234,133.98599243164062 C-36.755001068115234,133.98599243164062 -36.755001068115234,149.21099853515625 -36.755001068115234,149.21099853515625 C-36.755001068115234,149.21099853515625 -33.23500061035156,156.5019989013672 -19.834999084472656,155.86099243164062 C-19.834999084472656,155.86099243164062 -19.834999084472656,136.7989959716797 -19.834999084472656,136.7989959716797z"></path><path stroke-linecap="round" stroke-linejoin="round" fill-opacity="0" stroke="rgb(160,167,169)" stroke-opacity="1" stroke-width="5" d=" M-19.834999084472656,136.7989959716797 C-19.834999084472656,136.7989959716797 -27.913000106811523,126.79900360107422 -36.755001068115234,133.98599243164062 C-36.755001068115234,133.98599243164062 -36.755001068115234,149.21099853515625 -36.755001068115234,149.21099853515625 C-36.755001068115234,149.21099853515625 -33.23500061035156,156.5019989013672 -19.834999084472656,155.86099243164062 C-19.834999084472656,155.86099243164062 -19.834999084472656,136.7989959716797 -19.834999084472656,136.7989959716797z"></path></g><g opacity="1" transform="matrix(1,0,0,1,0,0)"><path fill="rgb(238,238,238)" fill-opacity="1" d=" M19.85700035095215,136.7989959716797 C19.85700035095215,136.7989959716797 27.934999465942383,126.79900360107422 36.777000427246094,133.98599243164062 C36.777000427246094,133.98599243164062 36.777000427246094,149.21099853515625 36.777000427246094,149.21099853515625 C36.777000427246094,149.21099853515625 33.13100051879883,156.0279998779297 19.85700035095215,155.86099243164062 C19.85700035095215,155.86099243164062 19.85700035095215,136.7989959716797 19.85700035095215,136.7989959716797z"></path><path stroke-linecap="round" stroke-linejoin="round" fill-opacity="0" stroke="rgb(160,167,169)" stroke-opacity="1" stroke-width="5" d=" M19.85700035095215,136.7989959716797 C19.85700035095215,136.7989959716797 27.934999465942383,126.79900360107422 36.777000427246094,133.98599243164062 C36.777000427246094,133.98599243164062 36.777000427246094,149.21099853515625 36.777000427246094,149.21099853515625 C36.777000427246094,149.21099853515625 33.13100051879883,156.0279998779297 19.85700035095215,155.86099243164062 C19.85700035095215,155.86099243164062 19.85700035095215,136.7989959716797 19.85700035095215,136.7989959716797z"></path></g><g opacity="1" transform="matrix(1,0,0,1,0,0)"><path fill="rgb(244,244,244)" fill-opacity="1" d=" M0.010999999940395355,138.8820037841797 C0.010999999940395355,138.8820037841797 0.010999999940395355,157.21499633789062 0.010999999940395355,157.21499633789062 C0.010999999940395355,157.21499633789062 -11.229999542236328,160.91000366210938 -19.834999084472656,155.86099243164062 C-19.834999084472656,155.86099243164062 -19.834999084472656,136.7989959716797 -19.834999084472656,136.7989959716797 C-19.834999084472656,136.7989959716797 -8.862000465393066,128.2570037841797 0.010999999940395355,138.8820037841797z"></path><path stroke-linecap="round" stroke-linejoin="round" fill-opacity="0" stroke="rgb(166,177,180)" stroke-opacity="1" stroke-width="5" d=" M0.010999999940395355,138.8820037841797 C0.010999999940395355,138.8820037841797 0.010999999940395355,157.21499633789062 0.010999999940395355,157.21499633789062 C0.010999999940395355,157.21499633789062 -11.229999542236328,160.91000366210938 -19.834999084472656,155.86099243164062 C-19.834999084472656,155.86099243164062 -19.834999084472656,136.7989959716797 -19.834999084472656,136.7989959716797 C-19.834999084472656,136.7989959716797 -8.862000465393066,128.2570037841797 0.010999999940395355,138.8820037841797z"></path></g><g opacity="1" transform="matrix(1,0,0,1,0,0)"><path fill="rgb(244,244,244)" fill-opacity="1" d=" M0.010999999940395355,138.8820037841797 C0.010999999940395355,138.8820037841797 0.010999999940395355,157.21499633789062 0.010999999940395355,157.21499633789062 C0.010999999940395355,157.21499633789062 11.300999641418457,160.9969940185547 19.85700035095215,155.86099243164062 C19.85700035095215,155.86099243164062 19.85700035095215,136.7989959716797 19.85700035095215,136.7989959716797 C19.85700035095215,136.7989959716797 8.883999824523926,128.2570037841797 0.010999999940395355,138.8820037841797z"></path><path stroke-linecap="round" stroke-linejoin="round" fill-opacity="0" stroke="rgb(166,177,180)" stroke-opacity="1" stroke-width="5" d=" M0.010999999940395355,138.8820037841797 C0.010999999940395355,138.8820037841797 0.010999999940395355,157.21499633789062 0.010999999940395355,157.21499633789062 C0.010999999940395355,157.21499633789062 11.300999641418457,160.9969940185547 19.85700035095215,155.86099243164062 C19.85700035095215,155.86099243164062 19.85700035095215,136.7989959716797 19.85700035095215,136.7989959716797 C19.85700035095215,136.7989959716797 8.883999824523926,128.2570037841797 0.010999999940395355,138.8820037841797z"></path></g></g></g><g opacity="1" transform="matrix(1,0,0,1,0,0)"><path fill="url(#__lottie_element_1747)" fill-opacity="1" d=" M130.97900390625,-82.50700378417969 C103.96499633789062,-138.322998046875 41.80799865722656,-156.8800048828125 0.027000000700354576,-156.8800048828125 C-41.75400161743164,-156.8800048828125 -103.96399688720703,-138.322998046875 -130.97799682617188,-82.50700378417969 C-152.75799560546875,-37.50400161743164 -131.3300018310547,11.909000396728516 -122.06099700927734,33.55699920654297 C-119.92400360107422,38.54800033569336 -118.8219985961914,43.95100021362305 -118.802001953125,49.42499923706055 C-118.77300262451172,57.40599822998047 -117.79900360107422,69.947998046875 -112.37100219726562,75.37200164794922 C-104.9469985961914,82.79100036621094 -90.52400207519531,89.50900268554688 -74.48899841308594,93.00800323486328 C-71.25399780273438,93.71399688720703 -66.45600128173828,96.3949966430664 -65.83000183105469,99.80799865722656 C-64.68000030517578,106.08300018310547 -64.40599822998047,125.0739974975586 -59.099998474121094,131.2760009765625 C-58.354000091552734,132.1479949951172 -57.10599899291992,132.30299377441406 -56.15599822998047,131.68800354003906 C-55.75299835205078,131.427001953125 -55.20899963378906,130.90499877929688 -54.48400115966797,130.9510040283203 C-53.15999984741211,131.03500366210938 -52.34299850463867,132.27699279785156 -51.65599822998047,133.51100158691406 C-51.24700164794922,134.24600219726562 -50.29999923706055,134.39199829101562 -49.70800018310547,133.81100463867188 C-48.61800003051758,132.74200439453125 -47.00199890136719,131.43099975585938 -45.86600112915039,131.72500610351562 C-43.26900100708008,132.39599609375 -41.8650016784668,134.35400390625 -40.095001220703125,136.97799682617188 C-39.310001373291016,138.14100646972656 -37.78300094604492,138.39500427246094 -36.70600128173828,137.5290069580078 C-34.944000244140625,136.11300659179688 -29.805999755859375,131.16099548339844 -22.125999450683594,140.83200073242188 C-21.253000259399414,141.9320068359375 -19.69499969482422,142.06100463867188 -18.68600082397461,141.09800720214844 C-15.39799976348877,137.95899963378906 -9.586999893188477,133.05999755859375 -1.7450000047683716,141.79200744628906 C-0.8019999861717224,142.8419952392578 0.8040000200271606,142.8419952392578 1.746999979019165,141.79200744628906 C9.58899974822998,133.05999755859375 15.399999618530273,137.95799255371094 18.687999725341797,141.0970001220703 C19.69700050354004,142.05999755859375 21.253999710083008,141.9320068359375 22.12700080871582,140.83200073242188 C29.80699920654297,131.16099548339844 34.94499969482422,136.11300659179688 36.707000732421875,137.5290069580078 C37.784000396728516,138.39500427246094 39.31100082397461,138.14100646972656 40.09600067138672,136.97799682617188 C41.45399856567383,134.96600341796875 42.76900100708008,133.12100219726562 44.4739990234375,132.5240020751953 C46.374000549316406,131.85899353027344 48.486000061035156,133.23500061035156 49.731998443603516,134.2790069580078 C50.30400085449219,134.75900268554688 51.14699935913086,134.62600708007812 51.52799987792969,133.968994140625 C52.22700119018555,132.76199340820312 53.3489990234375,131.14599609375 54.43899917602539,130.93699645996094 C55.53300094604492,130.7270050048828 55.744998931884766,131.42100524902344 56.15700149536133,131.68800354003906 C57.106998443603516,132.30299377441406 58.35599899291992,132.1479949951172 59.10200119018555,131.2760009765625 C64.40499877929688,125.0770034790039 64.67900085449219,106.09200286865234 65.83000183105469,99.81600189208984 C66.45500183105469,96.40699768066406 71.23799896240234,93.71600341796875 74.47000122070312,93.01200103759766 C90.51399993896484,89.51399993896484 104.94599914550781,82.79399871826172 112.37300109863281,75.37200164794922 C117.78900146484375,69.95999908447266 118.7699966430664,57.46099853515625 118.8030014038086,49.47800064086914 C118.82599639892578,43.981998443603516 119.9209976196289,38.558998107910156 122.06700134277344,33.54800033569336 C131.33799743652344,11.895000457763672 152.75599670410156,-37.51100158691406 130.97900390625,-82.50700378417969z"></path></g><g opacity="1" transform="matrix(1,0,0,1,0,0)"><path fill="rgb(156,160,163)" fill-opacity="1" d=" M61.87300109863281,127.47699737548828 C60.78799819946289,129.65499877929688 60.597999572753906,129.52699279785156 59.099998474121094,131.2790069580078 C58.35900115966797,132.14700317382812 57.10499954223633,132.3000030517578 56.15800094604492,131.68899536132812 C55.744998931884766,131.4239959716797 55.53099822998047,130.72500610351562 54.43899917602539,130.9340057373047 C53.34600067138672,131.14300537109375 52.22999954223633,132.75799560546875 51.527000427246094,133.9720001220703 C51.14099884033203,134.63800048828125 50.33700180053711,134.78900146484375 49.75899887084961,134.30099487304688 C48.516998291015625,133.2530059814453 46.39099884033203,132.85299682617188 44.4739990234375,133.52499389648438 C42.77000045776367,134.1199951171875 41.45600128173828,134.968994140625 40.09600067138672,136.97799682617188 C39.308998107910156,138.14300537109375 37.78799819946289,138.39300537109375 36.71099853515625,137.5330047607422 C36.23699951171875,137.1510009765625 28.51099967956543,132.78399658203125 22.12299919128418,140.8280029296875 C21.25200080871582,141.9290008544922 19.694000244140625,142.05799865722656 18.684999465942383,141.093994140625 C16.690000534057617,139.19000244140625 8.300999641418457,134.49899291992188 1.74399995803833,141.79299926757812 C0.8040000200271606,142.83799743652344 -0.800000011920929,142.83799743652344 -1.7480000257492065,141.79299926757812 C-8.29800033569336,134.5 -16.684999465942383,139.18899536132812 -18.68899917602539,141.1009979248047 C-19.697999954223633,142.05799865722656 -21.249000549316406,141.9290008544922 -22.128000259399414,140.8280029296875 C-28.516000747680664,132.78399658203125 -36.23400115966797,137.1510009765625 -36.70800018310547,137.5330047607422 C-37.7859992980957,138.39300537109375 -39.31399917602539,138.14300537109375 -40.09299850463867,136.97799682617188 C-41.86600112915039,134.35800170898438 -43.270999908447266,133.39599609375 -45.86199951171875,132.7209930419922 C-47,132.4320068359375 -48.619998931884766,132.74200439453125 -49.70500183105469,133.81100463867188 C-50.30099868774414,134.38999938964844 -51.249000549316406,134.24600219726562 -51.65399932861328,133.51400756835938 C-52.34199905395508,132.2760009765625 -53.159000396728516,131.03799438476562 -54.48099899291992,130.9499969482422 C-55.207000732421875,130.90199279785156 -55.75,131.4239959716797 -56.154998779296875,131.68899536132812 C-57.10200119018555,132.3000030517578 -58.35599899291992,132.14700317382812 -59.09700012207031,131.2790069580078 C-60.55699920654297,129.5749969482422 -60.731998443603516,129.71200561523438 -61.801998138427734,127.58999633789062 C-58.68199920654297,125.86199951171875 -56.645999908447266,124.91600036621094 -55.119998931884766,125.15799713134766 C-53.65599822998047,125.38999938964844 -52.4119987487793,127.49500274658203 -51.5,128.39500427246094 C-51.071998596191406,128.8179931640625 -50.46900177001953,128.7899932861328 -49.91400146484375,128.5760040283203 C-48.22100067138672,127.9219970703125 -47.053001403808594,127.76899719238281 -45.81100082397461,127.92400360107422 C-43.332000732421875,128.23399353027344 -42.30099868774414,128.81500244140625 -40.09299850463867,131.22300720214844 C-39.150001525878906,132.2519989013672 -38.08000183105469,132.25399780273438 -36.70800018310547,131.77000427246094 C-35.5880012512207,131.375 -27.389999389648438,128.08900451660156 -21.309999465942383,135.33799743652344 C-20.884000778198242,135.8459930419922 -20.17099952697754,135.94900512695312 -19.690000534057617,135.49099731445312 C-17.902000427246094,133.81199645996094 -8.574999809265137,128.91700744628906 -0.8849999904632568,137.03500366210938 C-0.3799999952316284,137.5679931640625 0.38100001215934753,137.5659942626953 0.8880000114440918,137.03500366210938 C8.592000007629395,128.97799682617188 17.90999984741211,133.82000732421875 19.68600082397461,135.49099731445312 C20.174999237060547,135.94900512695312 20.88800048828125,135.85499572753906 21.312999725341797,135.33799743652344 C27.42099952697754,127.90699768066406 36.03099822998047,131.447998046875 36.71099853515625,131.77000427246094 C38.4640007019043,132.5989990234375 38.95399856567383,132.28199768066406 40.09600067138672,131.22300720214844 C41.9109992980957,129.5399932861328 42.4370002746582,129.07000732421875 44.14099884033203,128.4669952392578 C46.183998107910156,127.75299835205078 48.513999938964844,128.41200256347656 50.00400161743164,129.10299682617188 C50.512001037597656,129.33900451660156 51.097999572753906,129.27099609375 51.516998291015625,128.88800048828125 C52.362998962402344,128.11399841308594 53.82500076293945,126.09200286865234 54.97800064086914,125.75700378417969 C57.33599853515625,125.07099914550781 58.939998626708984,125.0469970703125 61.87300109863281,127.47699737548828z"></path></g><g opacity="1" transform="matrix(1,0,0,1,0,0)"><path fill="url(#__lottie_element_1748)" fill-opacity="1" d=" M120.96199798583984,-77.45600128173828 C96.802001953125,-127.375 37.39099884033203,-144.77499389648438 0.024000000208616257,-144.77499389648438 C-37.34299850463867,-144.77499389648438 -96.8010025024414,-127.375 -120.96099853515625,-77.45600128173828 C-134.3459930419922,-49.80099868774414 -126.9000015258789,-21.253000259399414 -122.48899841308594,-0.8220000267028809 C-120.48100280761719,8.479999542236328 -120.66200256347656,16.433000564575195 -118.06800079345703,22.489999771118164 C-116.15499877929688,26.957000732421875 -115.16999816894531,33.3489990234375 -115.1520004272461,38.24800109863281 C-115.1259994506836,45.38600158691406 -113.08399963378906,53.9640007019043 -109.4000015258789,59.84299850463867 C-101.69200134277344,72.14299774169922 -77.31900024414062,76.83599853515625 -62.7760009765625,78.74199676513672 C-57.04399871826172,79.49299621582031 -55.0099983215332,84.28900146484375 -54.04800033569336,87.23300170898438 C-49.604000091552734,100.8239974975586 -47.82600021362305,110.04499816894531 -41.95800018310547,114.34600067138672 C-25.46500015258789,126.43699645996094 34.33700180053711,124.4219970703125 42.7239990234375,114.34600067138672 C47.433998107910156,108.68699645996094 50.33300018310547,100.10299682617188 54.8129997253418,87.23699951171875 C55.83100128173828,84.31500244140625 57.99100112915039,79.49299621582031 63.54600143432617,78.74099731445312 C78.08000183105469,76.77300262451172 101.28500366210938,70.91899871826172 109.4020004272461,59.84299850463867 C113.48100280761719,54.27799987792969 115.1240005493164,45.43199920654297 115.15299987792969,38.29199981689453 C115.1729965209961,33.37699890136719 116.15299987792969,26.965999603271484 118.0719985961914,22.483999252319336 C120.70600128173828,16.33300018310547 120.56999969482422,8.229000091552734 122.58399963378906,-1.2569999694824219 C126.91100311279297,-21.635000228881836 134.2519989013672,-49.99599838256836 120.96199798583984,-77.45600128173828z"></path></g><g opacity="0.5" transform="matrix(1,0,0,1,0,0)"><path fill="rgb(255,255,255)" fill-opacity="1" d=" M84.59500122070312,-103.91100311279297 C84.59500122070312,-81.34200286865234 46.72100067138672,-63.04600143432617 0.0010000000474974513,-63.04600143432617 C-46.71900177001953,-63.04600143432617 -84.59300231933594,-81.34200286865234 -84.59300231933594,-103.91100311279297 C-84.59300231933594,-126.4800033569336 -46.71900177001953,-144.77499389648438 0.0010000000474974513,-144.77499389648438 C46.72100067138672,-144.77499389648438 84.59500122070312,-126.4800033569336 84.59500122070312,-103.91100311279297z"></path></g><g opacity="1" transform="matrix(1,0,0,1,0,0)"><g opacity="1" transform="matrix(1,0,0,1,0,0)"><path stroke-linecap="round" stroke-linejoin="miter" fill-opacity="0" stroke-miterlimit="10" stroke="rgb(112,123,124)" stroke-opacity="1" stroke-width="8" d=" M58.33700180053711,129.66900634765625 C61.86899948120117,121.63899993896484 62.79999923706055,106.09100341796875 63.95100021362305,99.81600189208984 C64.57599639892578,96.40699768066406 71.23799896240234,93.71700286865234 74.47000122070312,93.01300048828125 C90.51399993896484,89.51499938964844 104.94599914550781,82.79399871826172 112.37300109863281,75.37200164794922 C117.78800201416016,69.96099853515625 118.7699966430664,57.46099853515625 118.8030014038086,49.47800064086914 C118.82599639892578,43.981998443603516 119.9219970703125,38.558998107910156 122.06700134277344,33.54800033569336 C131.33799743652344,11.895000457763672 152.75599670410156,-37.51100158691406 130.97900390625,-82.50700378417969 C103.96499633789062,-138.322998046875 41.80799865722656,-155.8800048828125 0.027000000700354576,-155.8800048828125 C-41.75400161743164,-155.8800048828125 -103.96399688720703,-138.322998046875 -130.97799682617188,-82.50700378417969 C-152.7570037841797,-37.50699996948242 -131.33299255371094,11.904000282287598 -122.06300354003906,33.55400085449219 C-119.92400360107422,38.54899978637695 -118.8219985961914,43.95000076293945 -118.802001953125,49.428001403808594 C-118.77300262451172,57.409000396728516 -117.7979965209961,69.9489974975586 -112.37100219726562,75.37200164794922 C-104.94300079345703,82.79499816894531 -90.50900268554688,89.51699829101562 -74.46399688720703,93.01399993896484 C-71.23500061035156,93.71800231933594 -64.98300170898438,96.40599822998047 -64.35800170898438,99.81199645996094 C-63.207000732421875,106.08699798583984 -61.63800048828125,123.10800170898438 -58.33599853515625,129.66900634765625"></path></g><g opacity="1" transform="matrix(1,0,0,1,0,0)"><path stroke-linecap="round" stroke-linejoin="round" fill-opacity="0" stroke="rgb(112,123,124)" stroke-opacity="1" stroke-width="8" d=" M-119.16999816894531,44.08599853515625 C-119.16999816894531,44.08599853515625 -118.54000091552734,25.88599967956543 -120.51699829101562,3.447000026702881"></path></g><g opacity="1" transform="matrix(1,0,0,1,0,0)"><path stroke-linecap="round" stroke-linejoin="round" fill-opacity="0" stroke="rgb(112,123,124)" stroke-opacity="1" stroke-width="8" d=" M119.03500366210938,44.08599853515625 C119.03500366210938,44.08599853515625 118.76000213623047,26.017000198364258 120.86000061035156,3.690000057220459"></path></g></g><g opacity="1" transform="matrix(1,0,0,1,0,0)"><path fill="rgb(195,199,200)" fill-opacity="1" d="M0 0"></path><path stroke-linecap="round" stroke-linejoin="round" fill-opacity="0" stroke="rgb(127,130,131)" stroke-opacity="1" stroke-width="8" d="M0 0"></path></g><g opacity="1" transform="matrix(1,0,0,1,0,0)"><g opacity="1" transform="matrix(1,0,0,1,0,0)"><path stroke-linecap="round" stroke-linejoin="round" fill-opacity="0" stroke="rgb(255,255,255)" stroke-opacity="1" stroke-width="6" d=" M46.48099899291992,-137.06300354003906 C47.60200119018555,-136.67799377441406 48.76300048828125,-136.26199340820312 49.95899963378906,-135.81199645996094"></path></g><g opacity="1" transform="matrix(1,0,0,1,0,0)"><path stroke-linecap="round" stroke-linejoin="round" fill-opacity="0" stroke="rgb(255,255,255)" stroke-opacity="1" stroke-width="6" d=" M30.801000595092773,-141.28900146484375 C30.801000595092773,-141.28900146484375 34.4109992980957,-140.697998046875 40.073001861572266,-139.0800018310547"></path></g></g></g><g style="display: block;" transform="matrix(1,0,0,1,256,256)" opacity="1"><g opacity="1" transform="matrix(1,0,0,1,0,0)"><path fill="rgb(195,199,200)" fill-opacity="1" d=" M103.76799774169922,-3.4739999771118164 C107.69999694824219,4.3979997634887695 119.03199768066406,39.61899948120117 91.26300048828125,37.222999572753906 C91.26300048828125,37.222999572753906 51.51599884033203,81.97100067138672 14.305999755859375,24.576000213623047 C7.336999893188477,13.826000213623047 -7.744999885559082,13.873000144958496 -14.723999977111816,24.615999221801758 C-55.26499938964844,87.01899719238281 -92.8489990234375,36.249000549316406 -92.8489990234375,36.249000549316406 C-115.1520004272461,38.24700164794922 -109.37999725341797,10.579000473022461 -104.48100280761719,-1.7130000591278076 C-98.5479965209961,-16.597999572753906 -87.63400268554688,-27.93199920654297 -65.19999694824219,-34.15800094604492 C-44.316001892089844,-39.95399856567383 -21.52400016784668,-32.51300048828125 -0.10100000351667404,-32.51300048828125 C20.91900062561035,-32.51300048828125 43.51499938964844,-39.952999114990234 65.07599639892578,-33.737998962402344 C83.74199676513672,-28.35700035095215 95.95899963378906,-19.106000900268555 103.76799774169922,-3.4739999771118164z"></path></g></g><g style="display: block;" transform="matrix(-1,0,0,1,255.71099853515625,256)" opacity="1"><g opacity="1" transform="matrix(1,0,0,1,0,0)"><path fill="rgb(255,255,255)" fill-opacity="1" d=" M-15.678999900817871,22.36400032043457 C-11.62399959564209,1.0460000038146973 -16.509000778198242,-24.58799934387207 -56.01599884033203,-18.073999404907227 C-95.58499908447266,-11.550000190734863 -97.56999969482422,18.895000457763672 -94.6760025024414,33.24800109863281 C-91.78199768066406,47.60100173950195 -84.69999694824219,71.64800262451172 -55.178001403808594,64.99700164794922 C-30.725000381469727,59.487998962402344 -19.399999618530273,41.92499923706055 -15.678999900817871,22.36400032043457z"></path></g><g opacity="1" transform="matrix(1,0,0,1,0,0)"><path fill="url(#__lottie_element_1760)" fill-opacity="1" d=" M-16.42099952697754,15.342000007629395 C-12.364999771118164,-5.97599983215332 -17.250999450683594,-31.610000610351562 -56.757999420166016,-25.09600067138672 C-96.3270034790039,-18.57200050354004 -98.31199645996094,11.871999740600586 -95.41799926757812,26.225000381469727 C-92.52400207519531,40.577999114990234 -85.44200134277344,64.6259994506836 -55.91999816894531,57.974998474121094 C-31.466999053955078,52.465999603271484 -20.142000198364258,34.90299987792969 -16.42099952697754,15.342000007629395z"></path></g><g opacity="1" transform="matrix(1,0,0,1,0,0)"><path fill="rgb(44,48,48)" fill-opacity="1" d=" M-16.145999908447266,13.822999954223633 C-16.235000610351562,14.329999923706055 -16.325000762939453,14.836999893188477 -16.42099952697754,15.343999862670898 C-20.145000457763672,34.904998779296875 -31.464000701904297,52.46900177001953 -55.91999816894531,57.97700119018555 C-85.44200134277344,64.625 -92.5250015258789,40.57699966430664 -95.41799926757812,26.229000091552734 C-96.67900085449219,19.979000091552734 -97.01300048828125,10.670999526977539 -93.72000122070312,1.6200000047683716 C-94.4469985961914,7.394000053405762 -94.01599884033203,12.793000221252441 -93.19300079345703,16.881000518798828 C-90.30000305175781,31.238000869750977 -83.21600341796875,55.284000396728516 -53.694000244140625,48.62900161743164 C-32.55400085449219,43.86899948120117 -21.235000610351562,30.099000930786133 -16.145999908447266,13.822999954223633z"></path></g></g><g style="display: block;" transform="matrix(1,0,0,1,256.5889892578125,256)" opacity="1"><g opacity="1" transform="matrix(1,0,0,1,0,0)"><path fill="rgb(255,255,255)" fill-opacity="1" d=" M-15.678999900817871,22.36400032043457 C-11.62399959564209,1.0460000038146973 -16.509000778198242,-24.58799934387207 -56.01599884033203,-18.073999404907227 C-95.58499908447266,-11.550000190734863 -97.56999969482422,18.895000457763672 -94.6760025024414,33.24800109863281 C-91.78199768066406,47.60100173950195 -84.69999694824219,71.64800262451172 -55.178001403808594,64.99700164794922 C-30.725000381469727,59.487998962402344 -19.399999618530273,41.92499923706055 -15.678999900817871,22.36400032043457z"></path></g><g opacity="1" transform="matrix(1,0,0,1,0,0)"><path fill="url(#__lottie_element_1756)" fill-opacity="1" d=" M-16.42099952697754,15.342000007629395 C-12.364999771118164,-5.97599983215332 -17.250999450683594,-31.610000610351562 -56.757999420166016,-25.09600067138672 C-96.3270034790039,-18.57200050354004 -98.31199645996094,11.871999740600586 -95.41799926757812,26.225000381469727 C-92.52400207519531,40.577999114990234 -85.44200134277344,64.6259994506836 -55.91999816894531,57.974998474121094 C-31.466999053955078,52.465999603271484 -20.142000198364258,34.90299987792969 -16.42099952697754,15.342000007629395z"></path></g><g opacity="1" transform="matrix(1,0,0,1,0,0)"><path fill="rgb(44,48,48)" fill-opacity="1" d=" M-16.145999908447266,13.822999954223633 C-16.235000610351562,14.329999923706055 -16.325000762939453,14.836999893188477 -16.42099952697754,15.343999862670898 C-20.145000457763672,34.904998779296875 -31.464000701904297,52.46900177001953 -55.91999816894531,57.97700119018555 C-85.44200134277344,64.625 -92.5250015258789,40.57699966430664 -95.41799926757812,26.229000091552734 C-96.67900085449219,19.979000091552734 -97.01300048828125,10.670999526977539 -93.72000122070312,1.6200000047683716 C-94.4469985961914,7.394000053405762 -94.01599884033203,12.793000221252441 -93.19300079345703,16.881000518798828 C-90.30000305175781,31.238000869750977 -83.21600341796875,55.284000396728516 -53.694000244140625,48.62900161743164 C-32.55400085449219,43.86899948120117 -21.235000610351562,30.099000930786133 -16.145999908447266,13.822999954223633z"></path></g></g><g style="display: block;" transform="matrix(1,0,0,1,256,256)" opacity="1"><g opacity="1" transform="matrix(1,0,0,1,0,0)"><path fill="rgb(235,235,235)" fill-opacity="1" d=" M-20.113000869750977,81.71499633789062 C-20.113000869750977,81.71499633789062 -20.606000900268555,71.86299896240234 -13.729999542236328,55.53300094604492 C-7.708000183105469,41.23099899291992 -4.623000144958496,37.61600112915039 -0.2460000067949295,37.24300003051758 C4.13100004196167,36.869998931884766 8.506999969482422,41.4739990234375 14.1850004196167,55.65800094604492 C19.863000869750977,69.84200286865234 20.191999435424805,79.37300109863281 20.115999221801758,81.71499633789062 C20.115999221801758,81.71499633789062 -20.113000869750977,81.71499633789062 -20.113000869750977,81.71499633789062z"></path></g><g opacity="1" transform="matrix(1,0,0,1,0,0)"><path fill="rgb(255,255,255)" fill-opacity="1" d=" M18.60300064086914,76.08100128173828 C15.086999893188477,68.96600341796875 5.243000030517578,62.43199920654297 1.4850000143051147,60.124000549316406 C0.5709999799728394,59.5629997253418 -0.5680000185966492,59.5620002746582 -1.4830000400543213,60.124000549316406 C-5.241000175476074,62.43199920654297 -15.083999633789062,68.96600341796875 -18.600000381469727,76.08100128173828 C-22.982999801635742,84.95099639892578 -17.2189998626709,92.07099914550781 -9.298999786376953,89.31099700927734 C-5.9770002365112305,88.15299987792969 -3.496000051498413,86.26799774169922 -1.9359999895095825,84.80599975585938 C-0.843999981880188,83.78299713134766 0.8460000157356262,83.78299713134766 1.937999963760376,84.80599975585938 C3.497999906539917,86.26799774169922 5.980000019073486,88.15299987792969 9.302000045776367,89.31099700927734 C17.222000122070312,92.07099914550781 22.986000061035156,84.95099639892578 18.60300064086914,76.08100128173828z"></path></g><g opacity="1" transform="matrix(1,0,0,1,0,0)"><path fill="url(#__lottie_element_1752)" fill-opacity="1" d=" M17.548999786376953,71.89299774169922 C14.640000343322754,65.875 7.138999938964844,60.28900146484375 2.947000026702881,57.505001068115234 C1.1440000534057617,56.30799865722656 -1.1419999599456787,56.30799865722656 -2.944999933242798,57.505001068115234 C-7.13700008392334,60.28900146484375 -14.63700008392334,65.875 -17.54599952697754,71.89299774169922 C-21.680999755859375,80.4469985961914 -16.243000030517578,87.31199645996094 -8.772000312805176,84.6510009765625 C-5.638000011444092,83.53500366210938 -3.2980000972747803,81.71700286865234 -1.8259999752044678,80.30699920654297 C-0.7960000038146973,79.31999969482422 0.7990000247955322,79.31999969482422 1.8289999961853027,80.30699920654297 C3.3010001182556152,81.71700286865234 5.640999794006348,83.53500366210938 8.774999618530273,84.6510009765625 C16.246000289916992,87.31199645996094 21.68400001525879,80.4469985961914 17.548999786376953,71.89299774169922z"></path></g><g opacity="1" transform="matrix(1,0,0,1,0,0)"><path fill="rgb(44,48,48)" fill-opacity="1" d=" M8.776000022888184,84.65299987792969 C5.638999938964844,83.53700256347656 3.302000045776367,81.71900177001953 1.8259999752044678,80.30699920654297 C0.7950000166893005,79.31600189208984 -0.7919999957084656,79.31600189208984 -1.8229999542236328,80.30699920654297 C-3.2990000247955322,81.71900177001953 -5.635000228881836,83.53700256347656 -8.77299976348877,84.65299987792969 C-15.708999633789062,87.1259994506836 -20.893999099731445,81.3759994506836 -18.283000946044922,73.69000244140625 C-16.80699920654297,77.08399963378906 -13.142000198364258,78.77799987792969 -8.77299976348877,77.2249984741211 C-5.635000228881836,76.10900115966797 -3.2990000247955322,74.29100036621094 -1.8229999542236328,72.88700103759766 C-0.7919999957084656,71.89600372314453 0.7950000166893005,71.89600372314453 1.8259999752044678,72.88700103759766 C3.302000045776367,74.29100036621094 5.638999938964844,76.10900115966797 8.776000022888184,77.2249984741211 C13.145000457763672,78.77799987792969 16.809999465942383,77.08399963378906 18.285999298095703,73.69000244140625 C20.89699935913086,81.3759994506836 15.711999893188477,87.1259994506836 8.776000022888184,84.65299987792969z"></path></g></g></g></svg>