<svg xmlns="http://www.w3.org/2000/svg" viewBox="0 0 512 512" width="512" height="512" style="width: 100%; height: 100%; transform: translate3d(0,0,0);" preserveAspectRatio="xMidYMid meet"><defs><clipPath id="__lottie_element_9360"><rect width="512" height="512" x="0" y="0"></rect></clipPath><radialGradient id="__lottie_element_9364" spreadMethod="pad" gradientUnits="userSpaceOnUse" cx="5.409999847412109" cy="-8.704999923706055" r="223.75099563598633" fx="5.409999847412109" fy="-8.704999923706055"><stop offset="55%" stop-color="rgb(255,255,255)"></stop><stop offset="83%" stop-color="rgb(205,205,205)"></stop><stop offset="100%" stop-color="rgb(154,154,154)"></stop></radialGradient><radialGradient id="__lottie_element_9368" spreadMethod="pad" gradientUnits="userSpaceOnUse"><stop></stop><stop></stop><stop></stop></radialGradient><radialGradient id="__lottie_element_9390" spreadMethod="pad" gradientUnits="userSpaceOnUse" cx="5.409999847412109" cy="-8.704999923706055" r="223.75099563598633" fx="5.409999847412109" fy="-8.704999923706055"><stop offset="55%" stop-color="rgb(255,255,255)"></stop><stop offset="83%" stop-color="rgb(205,205,205)"></stop><stop offset="100%" stop-color="rgb(154,154,154)"></stop></radialGradient></defs><g clip-path="url(#__lottie_element_9360)"><g style="display: block;" transform="matrix(0.8947354555130005,0,0,0.8947354555130005,388.9022521972656,331.523193359375)" opacity="1"><g opacity="1" transform="matrix(1,0,0,1,0,0)"><path fill="rgb(183,183,183)" fill-opacity="1" d=" M-14.253999710083008,14.906999588012695 C-14.253999710083008,14.906999588012695 14.390000343322754,18.461999893188477 34.27399826049805,23.59000015258789 C34.27399826049805,23.59000015258789 18.641000747680664,1.7619999647140503 7.306000232696533,-18.570999145507812 C7.306000232696533,-18.570999145507812 -16.579999923706055,-29.863000869750977 -30.582000732421875,-18.570999145507812 C-44.58399963378906,-7.2789998054504395 -14.253999710083008,14.906999588012695 -14.253999710083008,14.906999588012695z"></path></g></g><g style="display: block;" transform="matrix(0.8947354555130005,0,0,0.8947354555130005,397.8585510253906,333.7680969238281)" opacity="1"><g opacity="1" transform="matrix(1,0,0,1,0,0)"><path stroke-linecap="round" stroke-linejoin="round" fill-opacity="0" stroke="rgb(119,119,119)" stroke-opacity="1" stroke-width="7" d=" M-24.263999938964844,12.39799976348877 C-24.263999938964844,12.39799976348877 4.380000114440918,15.95300006866455 24.263999938964844,21.08099937438965 C24.263999938964844,21.08099937438965 8.630999565124512,-0.7480000257492065 -2.7039999961853027,-21.08099937438965"></path></g></g><g style="display: block;" transform="matrix(0.8947354555130005,0,0,0.8947354555130005,346.8995056152344,388.9032897949219)" opacity="1"><g opacity="1" transform="matrix(1,0,0,1,0,0)"><path fill="rgb(183,183,183)" fill-opacity="1" d=" M15.895999908447266,-4.242000102996826 C16.336999893188477,8.08899974822998 17.68199920654297,20.26099967956543 17.68199920654297,20.26099967956543 C10.079000473022461,14.119999885559082 -15.831999778747559,-1.7039999961853027 -15.831999778747559,-1.7039999961853027 C-15.831999778747559,-1.7039999961853027 -21.201000213623047,-12.755000114440918 -13.644000053405762,-19.08099937438965 C-6.086999893188477,-25.406999588012695 15.895999908447266,-4.242000102996826 15.895999908447266,-4.242000102996826z"></path></g></g><g style="display: block;" transform="matrix(0.8947354555130005,0,0,0.8947354555130005,347.7271423339844,396.07012939453125)" opacity="1"><g opacity="1" transform="matrix(1,0,0,1,0,0)"><path stroke-linecap="round" stroke-linejoin="round" fill-opacity="0" stroke="rgb(119,119,119)" stroke-opacity="1" stroke-width="7" d=" M-16.756999969482422,-9.713000297546387 C-16.756999969482422,-9.713000297546387 9.154000282287598,6.111000061035156 16.756999969482422,12.251999855041504 C16.756999969482422,12.251999855041504 15.411999702453613,0.07900000363588333 14.970999717712402,-12.251999855041504"></path></g></g><g style="display: block;" transform="matrix(0.8947354555130005,0,0,0.8947354555130005,144.62330627441406,219.91818237304688)" opacity="1"><g opacity="1" transform="matrix(1,0,0,1,0,0)"><path fill="rgb(183,183,183)" fill-opacity="1" d=" M-0.6890000104904175,19.138999938964844 C-17.21500015258789,0.1550000011920929 -41.81700134277344,-22.61400032043457 -41.81700134277344,-22.61400032043457 C-16.565000534057617,-18.797000885009766 19.20599937438965,-17.334999084472656 19.20599937438965,-17.334999084472656 C19.20599937438965,-17.334999084472656 44.24399948120117,-6.816999912261963 41.625,11.892000198364258 C39.00600051879883,30.60099983215332 -0.6890000104904175,19.138999938964844 -0.6890000104904175,19.138999938964844z"></path></g></g><g style="display: block;" transform="matrix(0.8947354555130005,0,0,0.8947354555130005,134.50831604003906,218.36312866210938)" opacity="1"><g opacity="1" transform="matrix(1,0,0,1,0,0)"><path stroke-linecap="round" stroke-linejoin="round" fill-opacity="0" stroke="rgb(119,119,119)" stroke-opacity="1" stroke-width="7" d=" M30.51099967956543,-15.597999572753906 C30.51099967956543,-15.597999572753906 -5.258999824523926,-17.05900001525879 -30.51099967956543,-20.875999450683594 C-30.51099967956543,-20.875999450683594 -5.908999919891357,1.8919999599456787 10.616999626159668,20.875999450683594"></path></g></g><g style="display: block;" transform="matrix(0.8500000238418579,0,0,0.8500000238418579,60.72574996948242,58.13427734375)" opacity="1"><g opacity="1" transform="matrix(1,0,0,1,257,256)"><g opacity="1" transform="matrix(1,0,0,1,0,0)"><path fill="url(#__lottie_element_9390)" fill-opacity="1" d=" M230.86000061035156,64.34400177001953 C206.45700073242188,64.34400177001953 172.72300720214844,67.08799743652344 151.1490020751953,71.83799743652344 C141.32200622558594,73.99099731445312 134.01800537109375,76.56600189208984 131.28399658203125,79.47899627685547 C127.91699981689453,83.06800079345703 128.5290069580078,93.15799713134766 130.55499267578125,104.1989974975586 C133.78500366210938,121.78399658203125 140.60400390625,141.78599548339844 140.60400390625,141.78599548339844 C140.60400390625,141.78599548339844 116.59100341796875,135.2209930419922 96.10399627685547,130.61900329589844 C82.08699798583984,127.46299743652344 69.71600341796875,125.23600006103516 67.81600189208984,126.6500015258789 C67.10900115966797,127.18800354003906 66.37999725341797,129.23500061035156 65.66300201416016,132.3280029296875 C61.683998107910156,149.406005859375 57.92599868774414,198.26600646972656 57.92599868774414,198.26600646972656 C57.92599868774414,198.26600646972656 29.97599983215332,151.1060028076172 24.729999542236328,151.39100646972656 C19.4950008392334,151.68699645996094 0.27399998903274536,183.1300048828125 0.27399998903274536,183.1300048828125 C0.27399998903274536,183.1300048828125 -14.576000213623047,152.10899353027344 -23.020000457763672,151.39100646972656 C-31.136999130249023,150.71499633789062 -77.74800109863281,185.7050018310547 -77.74800109863281,185.7050018310547 C-77.74800109863281,185.7050018310547 -74.72899627685547,131.00900268554688 -81.8219985961914,133.63699340820312 C-104.32499694824219,141.94400024414062 -168.5399932861328,163.29100036621094 -168.5399932861328,163.29100036621094 C-135.2100067138672,102.1050033569336 -152.80499267578125,111.00800323486328 -143.54800415039062,91.90299987792969 C-162.14599609375,89.46499633789062 -175.26600646972656,92.18800354003906 -175.26600646972656,92.18800354003906 C-175.26600646972656,92.18800354003906 -146.6929931640625,64.63899993896484 -153.83900451660156,57.49300003051758 C-160.9739990234375,50.358001708984375 -218.61599731445312,43.729000091552734 -218.61599731445312,43.729000091552734 C-189.02999877929688,26.893999099731445 -168.12100219726562,10.059000015258789 -168.12100219726562,10.059000015258789 C-185.46299743652344,-1.1610000133514404 -230.86000061035156,-24.107999801635742 -230.86000061035156,-24.107999801635742 C-230.86000061035156,-24.107999801635742 -192.81900024414062,-34.61000061035156 -167.37100219726562,-46.94900131225586 C-155.6020050048828,-52.66999816894531 -146.52499389648438,-58.770999908447266 -145.16299438476562,-64.40699768066406 C-144.36000061035156,-67.73200225830078 -145.63800048828125,-74.06400299072266 -148.21299743652344,-82.08599853515625 C-158.66299438476562,-114.78600311279297 -190.55999755859375,-175.60400390625 -190.55999755859375,-175.60400390625 C-159.2220001220703,-160.7429962158203 -126.50199890136719,-147.48500061035156 -106.72200012207031,-139.75900268554688 C-109.61399841308594,-161.40699768066406 -114.74299621582031,-183.7209930419922 -114.74299621582031,-183.7209930419922 C-114.74299621582031,-183.7209930419922 -73.76899719238281,-150.197998046875 -72.22799682617188,-155.1479949951172 C-68.16400146484375,-168.2570037841797 -68.63899993896484,-210.26699829101562 -68.63899993896484,-210.26699829101562 C-68.63899993896484,-210.26699829101562 -35.11600112915039,-167.4239959716797 -33.722999572753906,-172.07899475097656 C-27.378999710083008,-193.2310028076172 -22.54599952697754,-210.26699829101562 -22.54599952697754,-210.26699829101562 C-22.54599952697754,-210.26699829101562 4.000999927520752,-154.85299682617188 6.7870001792907715,-159.74000549316406 C17.59600067138672,-178.6649932861328 42.178001403808594,-223.302001953125 42.178001403808594,-223.302001953125 C42.178001403808594,-223.302001953125 45.90399932861328,-151.1269989013672 51.02299880981445,-155.31700134277344 C66.71800231933594,-168.16299438476562 88.89399719238281,-187.91099548339844 88.89399719238281,-187.91099548339844 C88.23999786376953,-180.88099670410156 88.68399810791016,-167.46600341796875 88.84200286865234,-163.3179931640625 C130.74600219726562,-186.23300170898438 160.44700622558594,-210.26699829101562 160.44700622558594,-210.26699829101562 C148.4040069580078,-175.36099243164062 141.03700256347656,-143.36900329589844 137.33200073242188,-125.10900115966797 C163.22300720214844,-126.15399932861328 189.44200134277344,-134.22799682617188 189.44200134277344,-134.22799682617188 C177.85299682617188,-121.58300018310547 159.9510040283203,-84.97899627685547 159.9510040283203,-84.97899627685547 C182.1269989013672,-78.2030029296875 211.4600067138672,-74.82499694824219 211.4600067138672,-74.82499694824219 C211.4600067138672,-74.82499694824219 168.2259979248047,-34.96900177001953 175.36099243164062,-31.961000442504883 C195.35299682617188,-23.548999786376953 230.86000061035156,-14.291999816894531 230.86000061035156,-14.291999816894531 C217.40199279785156,-10.090999603271484 177.22999572753906,8.982999801635742 171.81500244140625,11.557999610900879 C203.60699462890625,45.915000915527344 230.86000061035156,64.34400177001953 230.86000061035156,64.34400177001953z"></path></g></g><g opacity="1" transform="matrix(1,0,0,1,163.49899291992188,118.46499633789062)"><g opacity="1" transform="matrix(1,0,0,1,0,0)"><path stroke-linecap="round" stroke-linejoin="round" fill-opacity="0" stroke="rgb(206,206,206)" stroke-opacity="1" stroke-width="7" d=" M-16.180999755859375,-5.664000034332275 C-16.180999755859375,-5.664000034332275 -1.8530000448226929,0.8270000219345093 16.180999755859375,5.664000034332275"></path></g></g><g opacity="1" transform="matrix(1,0,0,1,182.01699829101562,110.03399658203125)"><g opacity="1" transform="matrix(1,0,0,1,0,0)"><path stroke-linecap="round" stroke-linejoin="round" fill-opacity="0" stroke="rgb(206,206,206)" stroke-opacity="1" stroke-width="7" d=" M2.3369998931884766,-14.095999717712402 C2.3369998931884766,-14.095999717712402 0,2.4119999408721924 -2.3369998931884766,14.095999717712402"></path></g></g><g opacity="1" transform="matrix(1,0,0,1,114.3949966430664,341.8389892578125)"><g opacity="1" transform="matrix(1,0,0,1,0,0)"><path stroke-linecap="round" stroke-linejoin="round" fill-opacity="0" stroke="rgb(206,206,206)" stroke-opacity="1" stroke-width="7" d=" M4.683000087738037,-9.298999786376953 C4.683000087738037,-9.298999786376953 -4.683000087738037,9.298999786376953 -4.683000087738037,9.298999786376953"></path></g></g><g opacity="1" transform="matrix(1,0,0,1,392.4389953613281,133.01400756835938)"><g opacity="1" transform="matrix(1,0,0,1,0,0)"><path stroke-linecap="round" stroke-linejoin="round" fill-opacity="0" stroke="rgb(206,206,206)" stroke-opacity="1" stroke-width="7" d=" M-0.8930000066757202,4.8420000076293945 C-0.8930000066757202,4.8420000076293945 0.8930000066757202,-4.8420000076293945 0.8930000066757202,-4.8420000076293945"></path></g></g><g opacity="0.5" transform="matrix(1,0,0,1,254.35699462890625,253.33299255371094)"><g opacity="1" transform="matrix(1,0,0,1,0,0)"><path fill="rgb(255,255,255)" fill-opacity="1" d=" M-87.91100311279297,-119.1780014038086 C-99.93599700927734,-122.5009994506836 -158.9239959716797,-144.92799377441406 -158.9239959716797,-144.92799377441406 C-158.9239959716797,-144.92799377441406 -122.54199981689453,-77.18099975585938 -126.65499877929688,-56.935001373291016 C-129.52499389648438,-42.80799865722656 -202.97999572753906,-21.867000579833984 -202.97999572753906,-21.867000579833984 C-202.97999572753906,-21.867000579833984 -142.86300659179688,-1.1180000305175781 -141.90499877929688,4.885000228881836 C-140.76400756835938,12.03600025177002 -174.5590057373047,32.827999114990234 -174.5590057373047,32.827999114990234 C-174.5590057373047,32.827999114990234 -137.61000061035156,40.209999084472656 -134.03900146484375,46.236000061035156 C-130.20599365234375,52.70399856567383 -140.0290069580078,71.87000274658203 -140.0290069580078,71.87000274658203 C-140.0290069580078,71.87000274658203 -118.70800018310547,65.4020004272461 -116.95500183105469,69.80899810791016 C-114.08100128173828,77.03500366210938 -123.26200103759766,121.57099914550781 -123.26200103759766,121.57099914550781 C-123.26200103759766,121.57099914550781 -78.1050033569336,106.72799682617188 -68.5780029296875,112.2229995727539 C-61.42399978637695,116.3489990234375 -58.375999450683594,147.61300659179688 -58.375999450683594,147.61300659179688 C-58.375999450683594,147.61300659179688 -30.753999710083008,127.62100219726562 -18.66200065612793,128.90899658203125 C-10.862000465393066,129.74000549316406 1.6200000047683716,147.61300659179688 1.6200000047683716,147.61300659179688 C1.6200000047683716,147.61300659179688 15.932999610900879,130.2519989013672 24.875999450683594,129.86300659179688 C33.16999816894531,129.5019989013672 51.071998596191406,162.02499389648438 51.071998596191406,162.02499389648438 C51.071998596191406,162.02499389648438 53.76300048828125,114.2300033569336 61.37300109863281,107.57099914550781 C68.98300170898438,100.91200256347656 123.3759994506836,121.06999969482422 123.3759994506836,121.06999969482422 C123.3759994506836,121.06999969482422 111.30599975585938,82.96299743652344 119.05000305175781,70.447998046875 C127.2979965209961,57.11899948120117 199.9770050048828,52.82899856567383 199.9770050048828,52.82899856567383 C199.9770050048828,52.82899856567383 157.23300170898438,20.42300033569336 153.68299865722656,8.937999725341797 C150.3040008544922,-1.996000051498413 202.97999572753906,-12.291999816894531 202.97999572753906,-12.291999816894531 C202.97999572753906,-12.291999816894531 155.63900756835938,-22.56100082397461 154.32899475097656,-29.986000061035156 C153.21099853515625,-36.321998596191406 191.08799743652344,-67.03900146484375 191.08799743652344,-67.03900146484375 C191.08799743652344,-67.03900146484375 144.30299377441406,-69.7040023803711 142.02999877929688,-74.8740005493164 C139.9530029296875,-79.5989990234375 169.3470001220703,-117.75399780273438 169.3470001220703,-117.75399780273438 C169.3470001220703,-117.75399780273438 133.26800537109375,-109.38700103759766 129.51600646972656,-111.26300048828125 C123.28199768066406,-114.37999725341797 141.8560028076172,-181.58200073242188 141.8560028076172,-181.58200073242188 C141.8560028076172,-181.58200073242188 72.31700134277344,-136.05999755859375 58.04899978637695,-132.2550048828125 C43.78099822998047,-128.4499969482422 34.24100112915039,-175.64500427246094 34.24100112915039,-175.64500427246094 C34.24100112915039,-175.64500427246094 15.326000213623047,-140.76199340820312 7.716000080108643,-139.81100463867188 C0.10599999874830246,-138.86000061035156 -16.47599983215332,-174.68899536132812 -16.47599983215332,-174.68899536132812 C-16.47599983215332,-174.68899536132812 -20.756000518798828,-152.9080047607422 -25.511999130249023,-149.57899475097656 C-30.26799964904785,-146.25 -52.62200164794922,-174.68899536132812 -52.62200164794922,-174.68899536132812 C-52.62200164794922,-174.68899536132812 -55.59600067138672,-151.11199951171875 -57.970001220703125,-137.6820068359375 C-59.685001373291016,-127.98200225830078 -61.31100082397461,-120.19000244140625 -65.19999694824219,-117.56800079345703 C-69.91999816894531,-114.38600158691406 -76.3219985961914,-115.97599792480469 -87.91100311279297,-119.1780014038086z"></path></g></g><g opacity="1" transform="matrix(1,0,0,1,243.0760040283203,71.7509994506836)"><g opacity="1" transform="matrix(1,0,0,1,0,0)"><path stroke-linecap="round" stroke-linejoin="round" fill-opacity="0" stroke="rgb(155,155,155)" stroke-opacity="1" stroke-width="7" d=" M101.76599884033203,18.211999893188477 C101.76599884033203,18.211999893188477 101.03600311279297,1.996999979019165 101.81500244140625,-6.383999824523926 C101.81500244140625,-6.383999824523926 79.64700317382812,13.364999771118164 63.946998596191406,26.209999084472656 C58.82500076293945,30.400999069213867 55.099998474121094,-41.770999908447266 55.099998474121094,-41.770999908447266 C55.099998474121094,-41.770999908447266 30.52400016784668,2.865999937057495 19.71299934387207,21.785999298095703 C16.91900062561035,26.674999237060547 -9.621999740600586,-28.733999252319336 -9.621999740600586,-28.733999252319336 C-9.621999740600586,-28.733999252319336 -14.45199966430664,-11.70300006866455 -20.797000885009766,9.446999549865723 C-22.194000244140625,14.102999687194824 -55.71799850463867,-28.733999252319336 -55.71799850463867,-28.733999252319336 C-55.71799850463867,-28.733999252319336 -55.236000061035156,13.276000022888184 -59.30500030517578,26.385000228881836 C-60.84000015258789,31.33099937438965 -101.81500244140625,-2.193000078201294 -101.81500244140625,-2.193000078201294 C-101.81500244140625,-2.193000078201294 -96.6729965209961,19.875 -93.7979965209961,41.770999908447266"></path></g></g><g opacity="1" transform="matrix(1,0,0,1,440.0950012207031,191.94400024414062)"><g opacity="1" transform="matrix(1,0,0,1,0,0)"><path stroke-linecap="round" stroke-linejoin="round" fill-opacity="0" stroke="rgb(155,155,155)" stroke-opacity="1" stroke-width="7" d=" M-12.279999732971191,72.8949966430664 C-12.279999732971191,72.8949966430664 32.32699966430664,51.55699920654297 46.76300048828125,47.04499816894531 C46.76300048828125,47.04499816894531 11.26200008392334,37.792999267578125 -8.729999542236328,29.375 C-15.873000144958496,26.367000579833984 27.363000869750977,-13.484999656677246 27.363000869750977,-13.484999656677246 C27.363000869750977,-13.484999656677246 -1.9630000591278076,-16.868999481201172 -24.145000457763672,-23.63599967956543 C-24.145000457763672,-23.63599967956543 -6.245999813079834,-60.24599838256836 5.348999977111816,-72.8949966430664 C5.348999977111816,-72.8949966430664 -20.719999313354492,-64.73600006103516 -46.76300048828125,-63.77199935913086"></path></g></g><g opacity="1" transform="matrix(1,0,0,1,430.6969909667969,143.67799377441406)"><g opacity="1" transform="matrix(1,0,0,1,0,0)"><path stroke-linecap="round" stroke-linejoin="round" fill-opacity="0" stroke="rgb(119,119,119)" stroke-opacity="1" stroke-width="7" d=" M-14.746999740600586,24.628999710083008 C-14.746999740600586,24.628999710083008 3.1519999504089355,-11.979999542236328 14.746999740600586,-24.628999710083008"></path></g></g><g opacity="1" transform="matrix(1,0,0,1,449.01300048828125,199.88900756835938)"><g opacity="1" transform="matrix(1,0,0,1,0,0)"><path stroke-linecap="round" stroke-linejoin="round" fill-opacity="0" stroke="rgb(119,119,119)" stroke-opacity="1" stroke-width="7" d=" M-17.648000717163086,21.43000030517578 C-24.791000366210938,18.422000885009766 18.44499969482422,-21.43000030517578 18.44499969482422,-21.43000030517578"></path></g></g><g opacity="1" transform="matrix(1,0,0,1,424.2590026855469,261.2330017089844)"><g opacity="1" transform="matrix(1,0,0,1,0,0)"><path stroke-linecap="round" stroke-linejoin="round" fill-opacity="0" stroke="rgb(206,206,206)" stroke-opacity="1" stroke-width="7" d=" M-3.555999994277954,-3.6059999465942383 C-3.555999994277954,-3.6059999465942383 3.555999994277954,3.6059999465942383 3.555999994277954,3.6059999465942383"></path></g></g><g opacity="1" transform="matrix(1,0,0,1,457.3370056152344,251.91400146484375)"><g opacity="1" transform="matrix(1,0,0,1,0,0)"><path stroke-linecap="round" stroke-linejoin="round" fill-opacity="0" stroke="rgb(119,119,119)" stroke-opacity="1" stroke-width="7" d=" M-29.52199935913086,12.925000190734863 C-29.52199935913086,12.925000190734863 15.086000442504883,-8.413000106811523 29.52199935913086,-12.925000190734863"></path></g></g><g opacity="1" transform="matrix(1,0,0,1,145.27000427246094,91.54000091552734)"><g opacity="1" transform="matrix(1,0,0,1,0,0)"><path stroke-linecap="round" stroke-linejoin="round" fill-opacity="0" stroke="rgb(119,119,119)" stroke-opacity="1" stroke-width="7" d=" M-4.007999897003174,-21.98200035095215 C-4.007999897003174,-21.98200035095215 1.1330000162124634,0.0860000029206276 4.007999897003174,21.98200035095215"></path></g></g><g opacity="1" transform="matrix(1,0,0,1,334.02099609375,95.93800354003906)"><g opacity="1" transform="matrix(1,0,0,1,0,0)"><path stroke-linecap="round" stroke-linejoin="round" fill-opacity="0" stroke="rgb(206,206,206)" stroke-opacity="1" stroke-width="7" d=" M-13.383000373840332,7.307000160217285 C4.26800012588501,-1.9119999408721924 13.383000373840332,-7.307000160217285 13.383000373840332,-7.307000160217285"></path></g></g><g opacity="1" transform="matrix(1,0,0,1,344.7120056152344,77.66500091552734)"><g opacity="1" transform="matrix(1,0,0,1,0,0)"><path stroke-linecap="round" stroke-linejoin="round" fill-opacity="0" stroke="rgb(119,119,119)" stroke-opacity="1" stroke-width="7" d=" M0.12999999523162842,12.29800033569336 C0.12999999523162842,12.29800033569336 -0.5989999771118164,-3.9170000553131104 0.18000000715255737,-12.29800033569336"></path></g></g><g opacity="1" transform="matrix(1,0,0,1,87.20999908447266,211.57200622558594)"><g opacity="1" transform="matrix(1,0,0,1,0,0)"><path stroke-linecap="round" stroke-linejoin="round" fill-opacity="0" stroke="rgb(155,155,155)" stroke-opacity="1" stroke-width="7" d=" M25.242000579833984,133.61199951171875 C6.369999885559082,131.06199645996094 -6.4710001945495605,133.89199829101562 -6.4710001945495605,133.89199829101562 C-6.4710001945495605,133.89199829101562 22.091999053955078,106.3489990234375 14.951000213623047,99.20800018310547 C7.809999942779541,92.06700134277344 -49.82699966430664,85.43599700927734 -49.82699966430664,85.43599700927734 C-20.243000030517578,68.60399627685547 0.6700000166893005,51.77199935913086 0.6700000166893005,51.77199935913086 C-16.672000885009766,40.55099868774414 -62.06800079345703,17.597000122070312 -62.06800079345703,17.597000122070312 C-62.06800079345703,17.597000122070312 19.33099937438965,-4.886000156402588 23.62299919128418,-22.697999954223633 C27.691999435424805,-39.58700180053711 -21.773000717163086,-133.89199829101562 -21.773000717163086,-133.89199829101562 C27.702999114990234,-110.42900085449219 62.06800079345703,-98.05000305175781 62.06800079345703,-98.05000305175781"></path></g></g><g opacity="1" transform="matrix(1,0,0,1,88.25299835205078,133.27699279785156)"><g opacity="1" transform="matrix(1,0,0,1,0,0)"><path stroke-linecap="round" stroke-linejoin="round" fill-opacity="0" stroke="rgb(119,119,119)" stroke-opacity="1" stroke-width="7" d=" M22.57900047302246,55.59700012207031 C26.648000717163086,38.70800018310547 -22.816999435424805,-55.59700012207031 -22.816999435424805,-55.59700012207031"></path></g></g><g opacity="1" transform="matrix(1,0,0,1,68.7969970703125,287.3169860839844)"><g opacity="1" transform="matrix(1,0,0,1,0,0)"><path stroke-linecap="round" stroke-linejoin="round" fill-opacity="0" stroke="rgb(119,119,119)" stroke-opacity="1" stroke-width="7" d=" M43.654998779296875,57.867000579833984 C24.783000946044922,55.31700134277344 11.942000389099121,58.14699935913086 11.942000389099121,58.14699935913086 C11.942000389099121,58.14699935913086 40.50600051879883,30.604000091552734 33.3650016784668,23.46299934387207 C26.224000930786133,16.32200050354004 -31.413999557495117,9.690999984741211 -31.413999557495117,9.690999984741211 C-1.8300000429153442,-7.140999794006348 19.08300018310547,-23.972999572753906 19.08300018310547,-23.972999572753906 C1.7410000562667847,-35.194000244140625 -43.654998779296875,-58.14699935913086 -43.654998779296875,-58.14699935913086"></path></g></g><g opacity="1" transform="matrix(1,0,0,1,257.73199462890625,370.7130126953125)"><g opacity="1" transform="matrix(1,0,0,1,0,0)"><path stroke-linecap="round" stroke-linejoin="round" fill-opacity="0" stroke="rgb(119,119,119)" stroke-opacity="1" stroke-width="7" d=" M-145.27999877929688,-25.52899932861328 C-145.27999877929688,-25.52899932861328 -133.31100463867188,-13.65999984741211 -170.27000427246094,45.862998962402344 C-170.27000427246094,45.862998962402344 -106.05699920654297,24.510000228881836 -83.55699920654297,16.202999114990234 C-76.45600128173828,13.581000328063965 -79.48100280761719,68.27200317382812 -79.48100280761719,68.27200317382812 C-79.48100280761719,68.27200317382812 -32.867000579833984,33.27899932861328 -24.746999740600586,33.96200180053711 C-16.308000564575195,34.672000885009766 -1.4570000171661377,65.6969985961914 -1.4570000171661377,65.6969985961914 C-1.4570000171661377,65.6969985961914 17.759000778198242,34.25299835205078 23,33.96200180053711 C28.239999771118164,33.67100143432617 56.189998626708984,80.83599853515625 56.189998626708984,80.83599853515625 C56.189998626708984,80.83599853515625 61.430999755859375,12.710000038146973 66.08899688720703,9.215999603271484 C70.74700164794922,5.7220001220703125 138.8730010986328,24.354999542236328 138.8730010986328,24.354999542236328 C138.8730010986328,24.354999542236328 120.822998046875,-28.632999420166016 129.5570068359375,-37.94900131225586 C138.29100036621094,-47.26499938964844 193.60800170898438,-53.0880012512207 229.1269989013672,-53.0880012512207 C229.1269989013672,-53.0880012512207 204.36300659179688,-67.26899719238281 170.08299255371094,-105.8740005493164"></path></g></g><g opacity="1" transform="matrix(1,0,0,1,437.0740051269531,298.802001953125)"><g opacity="1" transform="matrix(1,0,0,1,0,0)"><path stroke-linecap="round" stroke-linejoin="round" fill-opacity="0" stroke="rgb(119,119,119)" stroke-opacity="1" stroke-width="7" d=" M-49.78499984741211,33.96200180053711 C-41.05099868774414,24.645999908447266 14.265999794006348,18.822999954223633 49.78499984741211,18.822999954223633 C49.78499984741211,18.822999954223633 25.020000457763672,4.64300012588501 -9.258999824523926,-33.96200180053711"></path></g></g><g opacity="1" transform="matrix(1,0,0,1,457.3370056152344,291.23199462890625)"><g opacity="1" transform="matrix(1,0,0,1,0,0)"><path stroke-linecap="round" stroke-linejoin="round" fill-opacity="0" stroke="rgb(155,155,155)" stroke-opacity="1" stroke-width="7" d=" M29.52199935913086,26.39299964904785 C29.52199935913086,26.39299964904785 4.756999969482422,12.211999893188477 -29.52199935913086,-26.39299964904785"></path></g></g><g opacity="1" transform="matrix(1,0,0,1,380.64300537109375,85.59500122070312)"><g opacity="1" transform="matrix(1,0,0,1,0,0)"><path stroke-linecap="round" stroke-linejoin="round" fill-opacity="0" stroke="rgb(155,155,155)" stroke-opacity="1" stroke-width="7" d=" M12.687999725341797,42.577999114990234 C12.687999725341797,42.577999114990234 17.176000595092773,11.434000015258789 35.80099868774414,-42.577999114990234 C35.80099868774414,-42.577999114990234 12.340999603271484,-20.47100067138672 -35.80099868774414,4.36899995803833"></path></g></g><g opacity="1" transform="matrix(1,0,0,1,351.50799560546875,102.22000122070312)"><g opacity="1" transform="matrix(1,0,0,1,0,0)"><path stroke-linecap="round" stroke-linejoin="round" fill-opacity="0" stroke="rgb(255,255,255)" stroke-opacity="1" stroke-width="6" d="M0 0"></path></g></g><g opacity="1" transform="matrix(1,0,0,1,365.14898681640625,93.60700225830078)"><g opacity="1" transform="matrix(1,0,0,1,0,0)"><path stroke-linecap="round" stroke-linejoin="round" fill-opacity="0" stroke="rgb(255,255,255)" stroke-opacity="1" stroke-width="6" d="M0 0"></path></g></g></g><g style="display: none;"><g><path></path></g></g><g style="display: none;"><g><path stroke-linecap="round" stroke-linejoin="round" fill-opacity="0"></path></g></g><g style="display: none;"><g><path></path></g></g><g style="display: none;"><g><path stroke-linecap="round" stroke-linejoin="round" fill-opacity="0"></path></g></g><g style="display: none;"><g><path></path></g></g><g style="display: none;"><g><path stroke-linecap="round" stroke-linejoin="round" fill-opacity="0"></path></g></g><g style="display: none;"><g><g><path fill="url(#__lottie_element_9368)"></path></g></g><g><g><path stroke-linecap="round" stroke-linejoin="round" fill-opacity="0"></path></g></g><g><g><path stroke-linecap="round" stroke-linejoin="round" fill-opacity="0"></path></g></g><g><g><path stroke-linecap="round" stroke-linejoin="round" fill-opacity="0"></path></g></g><g><g><path stroke-linecap="round" stroke-linejoin="round" fill-opacity="0"></path></g></g><g><g><path></path></g></g><g><g><path stroke-linecap="round" stroke-linejoin="round" fill-opacity="0"></path></g></g><g><g><path stroke-linecap="round" stroke-linejoin="round" fill-opacity="0"></path></g></g><g><g><path stroke-linecap="round" stroke-linejoin="round" fill-opacity="0"></path></g></g><g><g><path stroke-linecap="round" stroke-linejoin="round" fill-opacity="0"></path></g></g><g><g><path stroke-linecap="round" stroke-linejoin="round" fill-opacity="0"></path></g></g><g><g><path stroke-linecap="round" stroke-linejoin="round" fill-opacity="0"></path></g></g><g><g><path stroke-linecap="round" stroke-linejoin="round" fill-opacity="0"></path></g></g><g><g><path stroke-linecap="round" stroke-linejoin="round" fill-opacity="0"></path></g></g><g><g><path stroke-linecap="round" stroke-linejoin="round" fill-opacity="0"></path></g></g><g><g><path stroke-linecap="round" stroke-linejoin="round" fill-opacity="0"></path></g></g><g><g><path stroke-linecap="round" stroke-linejoin="round" fill-opacity="0"></path></g></g><g><g><path stroke-linecap="round" stroke-linejoin="round" fill-opacity="0"></path></g></g><g><g><path stroke-linecap="round" stroke-linejoin="round" fill-opacity="0"></path></g></g><g><g><path stroke-linecap="round" stroke-linejoin="round" fill-opacity="0"></path></g></g><g><g><path stroke-linecap="round" stroke-linejoin="round" fill-opacity="0"></path></g></g><g><g><path stroke-linecap="round" stroke-linejoin="round" fill-opacity="0"></path></g></g><g><g><path stroke-linecap="round" stroke-linejoin="round" fill-opacity="0"></path></g></g><g><g><path stroke-linecap="round" stroke-linejoin="round" fill-opacity="0"></path></g></g></g><g style="display: block;" transform="matrix(0.8500000238418579,0,0,0.8500000238418579,60.72574996948242,58.13427734375)" opacity="1"><g opacity="1" transform="matrix(1,0,0,1,257,256)"><g opacity="1" transform="matrix(1,0,0,1,0,0)"><path fill="url(#__lottie_element_9364)" fill-opacity="1" d=" M-81.2959976196289,129.69000244140625 C-102.45700073242188,140.98599243164062 -227.39700317382812,223.302001953125 -227.39700317382812,223.302001953125 C-178.9709930419922,160.84800720214844 -152.80499267578125,111.00800323486328 -143.54800415039062,91.90299987792969 C-139.9600067138672,84.2030029296875 -127.04000091552734,50.05500030517578 -117.31500244140625,49.75699996948242 C-98.62300109863281,49.185001373291016 -54.500999450683594,86.5009994506836 -46.12200164794922,99.45999908447266 C-40.57500076293945,108.03900146484375 -66.51699829101562,121.8010025024414 -81.2959976196289,129.69000244140625z"></path></g></g><g opacity="1" transform="matrix(1,0,0,1,163.49899291992188,118.46499633789062)"><g opacity="1" transform="matrix(1,0,0,1,0,0)"><path stroke-linecap="round" stroke-linejoin="round" fill-opacity="0" stroke="rgb(206,206,206)" stroke-opacity="1" stroke-width="7" d="M0 0"></path></g></g><g opacity="1" transform="matrix(1,0,0,1,182.01699829101562,110.03399658203125)"><g opacity="1" transform="matrix(1,0,0,1,0,0)"><path stroke-linecap="round" stroke-linejoin="round" fill-opacity="0" stroke="rgb(206,206,206)" stroke-opacity="1" stroke-width="7" d="M0 0"></path></g></g><g opacity="1" transform="matrix(1,0,0,1,114.3949966430664,341.8389892578125)"><g opacity="1" transform="matrix(1,0,0,1,0,0)"><path stroke-linecap="round" stroke-linejoin="round" fill-opacity="0" stroke="rgb(206,206,206)" stroke-opacity="1" stroke-width="7" d=" M4.683000087738037,-9.298999786376953 C4.683000087738037,-9.298999786376953 -4.683000087738037,9.298999786376953 -4.683000087738037,9.298999786376953"></path></g></g><g opacity="1" transform="matrix(1,0,0,1,392.4389953613281,133.01400756835938)"><g opacity="1" transform="matrix(1,0,0,1,0,0)"><path stroke-linecap="round" stroke-linejoin="round" fill-opacity="0" stroke="rgb(206,206,206)" stroke-opacity="1" stroke-width="7" d="M0 0"></path></g></g><g opacity="0.5" transform="matrix(1,0,0,1,254.35699462890625,253.33299255371094)"><g opacity="1" transform="matrix(1,0,0,1,0,0)"><path fill="rgb(255,255,255)" fill-opacity="1" d=" M-182.11900329589844,181.58200073242188 C-182.11900329589844,181.58200073242188 -59.409000396728516,103.45700073242188 -46.47200012207031,98.802001953125 C-38.70199966430664,96.00599670410156 -105.21800231933594,52.08599853515625 -105.21800231933594,52.08599853515625 C-105.21800231933594,52.08599853515625 -182.11900329589844,181.58200073242188 -182.11900329589844,181.58200073242188z"></path></g></g><g opacity="1" transform="matrix(1,0,0,1,243.0760040283203,71.7509994506836)"><g opacity="1" transform="matrix(1,0,0,1,0,0)"><path stroke-linecap="round" stroke-linejoin="round" fill-opacity="0" stroke="rgb(155,155,155)" stroke-opacity="1" stroke-width="7" d="M0 0"></path></g></g><g opacity="1" transform="matrix(1,0,0,1,440.0950012207031,191.94400024414062)"><g opacity="1" transform="matrix(1,0,0,1,0,0)"><path stroke-linecap="round" stroke-linejoin="round" fill-opacity="0" stroke="rgb(155,155,155)" stroke-opacity="1" stroke-width="7" d="M0 0"></path></g></g><g opacity="1" transform="matrix(1,0,0,1,430.6969909667969,143.67799377441406)"><g opacity="1" transform="matrix(1,0,0,1,0,0)"><path stroke-linecap="round" stroke-linejoin="round" fill-opacity="0" stroke="rgb(119,119,119)" stroke-opacity="1" stroke-width="7" d="M0 0"></path></g></g><g opacity="1" transform="matrix(1,0,0,1,449.01300048828125,199.88900756835938)"><g opacity="1" transform="matrix(1,0,0,1,0,0)"><path stroke-linecap="round" stroke-linejoin="round" fill-opacity="0" stroke="rgb(119,119,119)" stroke-opacity="1" stroke-width="7" d="M0 0"></path></g></g><g opacity="1" transform="matrix(1,0,0,1,424.2590026855469,261.2330017089844)"><g opacity="1" transform="matrix(1,0,0,1,0,0)"><path stroke-linecap="round" stroke-linejoin="round" fill-opacity="0" stroke="rgb(206,206,206)" stroke-opacity="1" stroke-width="7" d="M0 0"></path></g></g><g opacity="1" transform="matrix(1,0,0,1,457.3370056152344,251.91400146484375)"><g opacity="1" transform="matrix(1,0,0,1,0,0)"><path stroke-linecap="round" stroke-linejoin="round" fill-opacity="0" stroke="rgb(119,119,119)" stroke-opacity="1" stroke-width="7" d="M0 0"></path></g></g><g opacity="1" transform="matrix(1,0,0,1,145.27000427246094,91.54000091552734)"><g opacity="1" transform="matrix(1,0,0,1,0,0)"><path stroke-linecap="round" stroke-linejoin="round" fill-opacity="0" stroke="rgb(119,119,119)" stroke-opacity="1" stroke-width="7" d="M0 0"></path></g></g><g opacity="1" transform="matrix(1,0,0,1,334.02099609375,95.93800354003906)"><g opacity="1" transform="matrix(1,0,0,1,0,0)"><path stroke-linecap="round" stroke-linejoin="round" fill-opacity="0" stroke="rgb(206,206,206)" stroke-opacity="1" stroke-width="7" d="M0 0"></path></g></g><g opacity="1" transform="matrix(1,0,0,1,344.7120056152344,77.66500091552734)"><g opacity="1" transform="matrix(1,0,0,1,0,0)"><path stroke-linecap="round" stroke-linejoin="round" fill-opacity="0" stroke="rgb(119,119,119)" stroke-opacity="1" stroke-width="7" d="M0 0"></path></g></g><g opacity="1" transform="matrix(1,0,0,1,87.20999908447266,211.57200622558594)"><g opacity="1" transform="matrix(1,0,0,1,0,0)"><path stroke-linecap="round" stroke-linejoin="round" fill-opacity="0" stroke="rgb(155,155,155)" stroke-opacity="1" stroke-width="7" d=" M25.242000579833984,133.61199951171875"></path></g></g><g opacity="1" transform="matrix(1,0,0,1,88.25299835205078,133.27699279785156)"><g opacity="1" transform="matrix(1,0,0,1,0,0)"><path stroke-linecap="round" stroke-linejoin="round" fill-opacity="0" stroke="rgb(119,119,119)" stroke-opacity="1" stroke-width="7" d="M0 0"></path></g></g><g opacity="1" transform="matrix(1,0,0,1,68.7969970703125,287.3169860839844)"><g opacity="1" transform="matrix(1,0,0,1,0,0)"><path stroke-linecap="round" stroke-linejoin="round" fill-opacity="0" stroke="rgb(119,119,119)" stroke-opacity="1" stroke-width="7" d=" M43.654998779296875,57.867000579833984"></path></g></g><g opacity="1" transform="matrix(1,0,0,1,257.73199462890625,370.7130126953125)"><g opacity="1" transform="matrix(1,0,0,1,0,0)"><path stroke-linecap="round" stroke-linejoin="round" fill-opacity="0" stroke="rgb(119,119,119)" stroke-opacity="1" stroke-width="7" d=" M-145.27999877929688,-25.52899932861328 C-145.27999877929688,-25.52899932861328 -166.822998046875,25.518999099731445 -229.1269989013672,105.8740005493164 C-229.1269989013672,105.8740005493164 -106.05699920654297,24.510000228881836 -83.55699920654297,16.202999114990234"></path></g></g><g opacity="1" transform="matrix(1,0,0,1,437.0740051269531,298.802001953125)"><g opacity="1" transform="matrix(1,0,0,1,0,0)"><path stroke-linecap="round" stroke-linejoin="round" fill-opacity="0" stroke="rgb(119,119,119)" stroke-opacity="1" stroke-width="7" d="M0 0"></path></g></g><g opacity="1" transform="matrix(1,0,0,1,457.3370056152344,291.23199462890625)"><g opacity="1" transform="matrix(1,0,0,1,0,0)"><path stroke-linecap="round" stroke-linejoin="round" fill-opacity="0" stroke="rgb(155,155,155)" stroke-opacity="1" stroke-width="7" d="M0 0"></path></g></g><g opacity="1" transform="matrix(1,0,0,1,380.64300537109375,85.59500122070312)"><g opacity="1" transform="matrix(1,0,0,1,0,0)"><path stroke-linecap="round" stroke-linejoin="round" fill-opacity="0" stroke="rgb(155,155,155)" stroke-opacity="1" stroke-width="7" d="M0 0"></path></g></g><g opacity="1" transform="matrix(1,0,0,1,351.50799560546875,102.22000122070312)"><g opacity="1" transform="matrix(1,0,0,1,0,0)"><path stroke-linecap="round" stroke-linejoin="round" fill-opacity="0" stroke="rgb(255,255,255)" stroke-opacity="1" stroke-width="6" d="M0 0"></path></g></g><g opacity="1" transform="matrix(1,0,0,1,365.14898681640625,93.60700225830078)"><g opacity="1" transform="matrix(1,0,0,1,0,0)"><path stroke-linecap="round" stroke-linejoin="round" fill-opacity="0" stroke="rgb(255,255,255)" stroke-opacity="1" stroke-width="6" d="M0 0"></path></g></g></g></g></svg>