<svg xmlns="http://www.w3.org/2000/svg" viewBox="0 0 512 512" width="512" height="512" style="width: 100%; height: 100%; transform: translate3d(0,0,0);" preserveAspectRatio="xMidYMid meet"><defs><clipPath id="__lottie_element_9410"><rect width="512" height="512" x="0" y="0"></rect></clipPath></defs><g clip-path="url(#__lottie_element_9410)"><g style="display: block;" transform="matrix(0.800000011920929,0,0,0.800000011920929,256,282)" opacity="1"><g opacity="1" transform="matrix(1,0,0,1,0,0)"><path fill="rgb(255,177,57)" fill-opacity="1" d=" M-86.21099853515625,26.43899917602539 C-86.21099853515625,26.43899917602539 -99.48400115966797,6.76800012588501 -138.94400024414062,10.182000160217285 C-171.09800720214844,12.96399974822998 -193.50999450683594,-64.71499633789062 -176.78199768066406,-123.43499755859375 C-164.57899475097656,-166.27099609375 -139.05499267578125,-181.04100036621094 -117.28199768066406,-175.57200622558594 C-105.03199768066406,-172.4949951171875 -87.37799835205078,-168.71499633789062 -78.97200012207031,-170.13299560546875 C-13.022000312805176,-181.25599670410156 9.065999984741211,70.30899810791016 -86.21099853515625,26.43899917602539z"></path></g><g opacity="1" transform="matrix(1,0,0,1,0,0)"><path fill="rgb(255,209,64)" fill-opacity="1" d=" M-74.25599670410156,-132.7480010986328 C-76.86499786376953,-127.95700073242188 -80.2750015258789,-140.80299377441406 -85.99500274658203,-134.4029998779297 C-89.875,-130.05299377441406 -94.32499694824219,-122.02300262451172 -97.75499725341797,-108.93299865722656 C-98.8550033569336,-104.75299835205078 -102.23500061035156,-61.42300033569336 -119.94499969482422,-54.40299987792969 C-134.76499938964844,-48.53300094604492 -158.2449951171875,-72.52300262451172 -156.4149932861328,-102.8030014038086 C-153.94500732421875,-143.64300537109375 -132.31300354003906,-164.1320037841797 -129.3260040283203,-166.11599731445312 C-112.56999969482422,-177.2449951171875 -101.24800109863281,-163.7050018310547 -78.24099731445312,-166.21099853515625 C-75.43299865722656,-166.51699829101562 -60.74300003051758,-157.5659942626953 -74.25599670410156,-132.7480010986328z"></path></g><g opacity="1" transform="matrix(1,0,0,1,0,0)"><path fill="rgb(255,223,121)" fill-opacity="1" d=" M-111.27200317382812,-170.27499389648438 C-111.27200317382812,-170.27499389648438 -119.65599822998047,-171.14999389648438 -121.06999969482422,-167.71200561523438 C-122.60199737548828,-163.98699951171875 -116.16899871826172,-160.18299865722656 -104.8740005493164,-158.21400451660156 C-89.38600158691406,-155.51400756835938 -76.58000183105469,-154.61500549316406 -69.78199768066406,-157.41400146484375 C-62.98400115966797,-160.21299743652344 -66.19000244140625,-170.41400146484375 -81.90599822998047,-168.75399780273438 C-89.86499786376953,-167.91400146484375 -105.41999816894531,-170.531005859375 -111.27200317382812,-170.27499389648438z"></path></g><g opacity="1" transform="matrix(1,0,0,1,0,0)"><path stroke-linecap="round" stroke-linejoin="round" fill-opacity="0" stroke="rgb(247,126,65)" stroke-opacity="1" stroke-width="8" d=" M-86.21099853515625,26.43899917602539 C-86.21099853515625,26.43899917602539 -99.48400115966797,6.76800012588501 -138.94400024414062,10.182000160217285 C-171.09800720214844,12.96399974822998 -193.50999450683594,-64.71499633789062 -176.78199768066406,-123.43499755859375 C-164.57899475097656,-166.27099609375 -139.05499267578125,-181.04100036621094 -117.28199768066406,-175.57200622558594 C-105.03199768066406,-172.4949951171875 -87.37799835205078,-168.71499633789062 -78.97200012207031,-170.13299560546875 C-13.022000312805176,-181.25599670410156 9.065999984741211,70.30899810791016 -86.21099853515625,26.43899917602539z"></path></g></g><g style="display: block;" transform="matrix(0.800000011920929,0,0,0.800000011920929,256,282)" opacity="1"><g opacity="1" transform="matrix(1,0,0,1,0,0)"><path fill="rgb(255,177,57)" fill-opacity="1" d=" M-99.26799774169922,-66.90499877929688 C-99.26799774169922,-66.90499877929688 -115.94000244140625,-17.430999755859375 -80.6050033569336,35.57099914550781 C-45.27000045776367,88.572998046875 -12.614999771118164,99.1240005493164 -7.047999858856201,121.60299682617188 C1.9019999504089355,157.74400329589844 -17.007999420166016,190.99200439453125 4.785999774932861,203.0260009765625 C29.340999603271484,216.5850067138672 60.55400085449219,188.9340057373047 64.03399658203125,146.7239990234375 C67.56199645996094,103.93599700927734 41.75199890136719,78.5009994506836 45.097999572753906,55.457000732421875 C48.444000244140625,32.41299819946289 85.74199676513672,41.74300003051758 118.5999984741211,38.387001037597656 C158.71400451660156,34.290000915527344 183.46600341796875,27.461999893188477 176.8090057373047,-49.35200119018555 C170.15199279785156,-126.16600036621094 144.7169952392578,-187.35000610351562 73.53600311279297,-194.0070037841797 C2.3550000190734863,-200.66400146484375 -45.970001220703125,-194.58299255371094 -77.927001953125,-169.66900634765625 C-77.927001953125,-169.66900634765625 -99.26799774169922,-66.90499877929688 -99.26799774169922,-66.90499877929688z"></path></g><g opacity="1" transform="matrix(1,0,0,1,0,0)"><path fill="rgb(255,209,64)" fill-opacity="1" d=" M13.994999885559082,-51.542999267578125 C31.21500015258789,10.866999626159668 -13.524999618530273,35.39699935913086 -37.875,24.267000198364258 C-85.7249984741211,2.3970000743865967 -83.40499877929688,-56.92300033569336 -77.2249984741211,-83.93299865722656 C-76.20500183105469,-88.36299896240234 -83.86699676513672,-112.81600189208984 -77.45500183105469,-134.0330047607422 C-75.28399658203125,-141.218994140625 -82.18199920654297,-140.16299438476562 -88.3219985961914,-131.41700744628906 C-93.77799987792969,-123.6449966430664 -84.45099639892578,-165.5279998779297 -73.5009994506836,-174.0070037841797 C-60.2239990234375,-184.28700256347656 -30.065000534057617,-192.10299682617188 -5.864999771118164,-195.2830047607422 C-5.84499979019165,-195.29299926757812 -5.824999809265137,-195.29299926757812 -5.795000076293945,-195.29299926757812 C4.525000095367432,-196.2830047607422 15.595000267028809,-196.6929931640625 27.434999465942383,-196.572998046875 C33.005001068115234,-195.92300415039062 36.6349983215332,-194.58299255371094 37.345001220703125,-192.5030059814453 C44.28499984741211,-172.06300354003906 1.1449999809265137,-128.39300537109375 13.994999885559082,-100.572998046875 C21.684999465942383,-83.93299865722656 -28.21500015258789,-111.69300079345703 -42.28499984741211,-100.04299926757812 C-51.525001525878906,-92.38300323486328 1.3350000381469727,-97.4530029296875 13.994999885559082,-51.542999267578125z"></path></g><g opacity="1" transform="matrix(1,0,0,1,0,0)"><path fill="rgb(255,223,121)" fill-opacity="1" d=" M-71.94400024414062,-157.72300720214844 C-65.16500091552734,-160.5679931640625 -57.03799819946289,-168.9720001220703 -37.34400177001953,-174.2969970703125 C-17.649999618530273,-179.6219940185547 7.61899995803833,-182.7310028076172 39.23500061035156,-180.5679931640625 C70.85099792480469,-178.40499877929688 58.5369987487793,-193.8800048828125 43.56100082397461,-196.2100067138672 C28.584999084472656,-198.5399932861328 -14.512999534606934,-197.04200744628906 -36.97700119018555,-189.38800048828125 C-59.441001892089844,-181.73399353027344 -73.91899871826172,-169.2530059814453 -81.90599822998047,-168.75399780273438 C-88.36499786376953,-168.35000610351562 -97.43000030517578,-156.13099670410156 -84.69599914550781,-155.77699279785156 C-81.68399810791016,-155.6929931640625 -76.75499725341797,-155.70399475097656 -71.94400024414062,-157.72300720214844z"></path></g><g opacity="1" transform="matrix(1,0,0,1,0,0)"><path fill="rgb(255,223,121)" fill-opacity="1" d=" M-28.121999740600586,-168.96400451660156 C-16.733999252319336,-170.77200317382812 -2.7880001068115234,-168.07699584960938 -4.236000061035156,-156.072998046875 C-5.375,-146.63099670410156 -24.375,-147.58099365234375 -34.24399948120117,-125.76100158691406 C-41.64799880981445,-109.38999938964844 -58.45899963378906,-99.08599853515625 -65.88300323486328,-116.28199768066406 C-71.22200012207031,-128.6490020751953 -65.65799713134766,-163.00399780273438 -28.121999740600586,-168.96400451660156z"></path></g><g opacity="1" transform="matrix(1,0,0,1,0,0)"><g opacity="1" transform="matrix(1,0,0,1,0,0)"><path stroke-linecap="round" stroke-linejoin="round" fill-opacity="0" stroke="rgb(255,255,255)" stroke-opacity="1" stroke-width="6" d=" M-35.387001037597656,-158.8509979248047 C-41.18199920654297,-157.69900512695312 -47.152000427246094,-152.6840057373047 -50.52199935913086,-146.69900512695312"></path></g></g><g opacity="1" transform="matrix(1,0,0,1,0,0)"><path stroke-linecap="round" stroke-linejoin="round" fill-opacity="0" stroke="rgb(247,126,65)" stroke-opacity="1" stroke-width="8" d=" M-99.26799774169922,-66.90499877929688 C-99.26799774169922,-66.90499877929688 -115.94000244140625,-17.430999755859375 -80.6050033569336,35.57099914550781 C-45.27000045776367,88.572998046875 -12.614999771118164,99.1240005493164 -7.047999858856201,121.60299682617188 C1.9019999504089355,157.74400329589844 -17.007999420166016,190.99200439453125 4.785999774932861,203.0260009765625 C29.340999603271484,216.5850067138672 60.55400085449219,188.9340057373047 64.03399658203125,146.7239990234375 C67.56199645996094,103.93599700927734 41.75199890136719,77.37999725341797 45.097999572753906,54.33599853515625 C48.444000244140625,31.29199981689453 85.74199676513672,41.74300003051758 118.5999984741211,38.387001037597656 C158.71400451660156,34.290000915527344 183.46600341796875,27.461999893188477 176.8090057373047,-49.35200119018555 C170.15199279785156,-126.16600036621094 144.7169952392578,-187.35000610351562 73.53600311279297,-194.0070037841797 C2.3550000190734863,-200.66400146484375 -46.198001861572266,-195.01600646972656 -78.97200012207031,-170.13299560546875 C-78.97200012207031,-170.13299560546875 -83.77999877929688,-169.5850067138672 -88,-170.04400634765625"></path></g><g opacity="1" transform="matrix(1,0,0,1,0,0)"><path fill="rgb(255,223,121)" fill-opacity="1" d=" M-13.21399974822998,-72.54000091552734 C-25.1560001373291,-83.93099975585938 -54.28099822998047,-89.9489974975586 -54.28099822998047,-83.93099975585938 C-54.28099822998047,-78.09600067138672 -40.44599914550781,-78.4990005493164 -22.54800033569336,-57.34400177001953 C-5.86899995803833,-37.630001068115234 -6.281000137329102,-26.082000732421875 0.9190000295639038,-28.51300048828125 C8.119000434875488,-30.944000244140625 0.953000009059906,-59.0260009765625 -13.21399974822998,-72.54000091552734z"></path></g><g opacity="1" transform="matrix(1,0,0,1,0,0)"><path fill="rgb(255,209,64)" fill-opacity="1" d=" M49.84299850463867,118.77300262451172 C46.36199951171875,94.40399932861328 31.308000564575195,74.65499877929688 23.41900062561035,77.97100067138672 C15.529000282287598,81.28700256347656 24.47599983215332,98.15799713134766 21.922000885009766,121.10399627685547 C18.62700080871582,150.71499633789062 22.676000595092773,166.54200744628906 36.345001220703125,165.01499938964844 C51.755001068115234,163.29299926757812 52.17399978637695,135.093994140625 49.84299850463867,118.77300262451172z"></path></g></g><g style="display: block;" transform="matrix(0.800000011920929,0,0,0.800000011920929,256,282)" opacity="1"><g opacity="1" transform="matrix(1,0,0,1,0,0)"><path fill="rgb(255,177,57)" fill-opacity="1" d=" M49.125999450683594,-145.91000366210938 C40.98899841308594,-143.3979949951172 32.569000244140625,-150.23500061035156 31.541000366210938,-163.03700256347656 C30.812999725341797,-172.10699462890625 37.08000183105469,-181.76800537109375 41.784000396728516,-186.20599365234375 C46.487998962402344,-190.6439971923828 59.88800048828125,-200.85699462890625 73.2020034790039,-203.58799743652344 C86.51599884033203,-206.31900024414062 115.6989974975586,-209.1540069580078 138.91400146484375,-199.25399780273438 C162.12899780273438,-189.35299682617188 165.88400268554688,-162.35499572753906 158.71499633789062,-151.42999267578125 C151.54600524902344,-140.5050048828125 123.20899963378906,-168.78399658203125 49.125999450683594,-145.91000366210938z"></path></g><g opacity="1" transform="matrix(1,0,0,1,0,0)"><path fill="rgb(255,209,64)" fill-opacity="1" d=" M64.29399871826172,-200.75599670410156 C64.29399871826172,-200.75599670410156 54.21500015258789,-193.40199279785156 57.17900085449219,-183.82000732421875 C59.90299987792969,-175.01300048828125 68.79900360107422,-173.78500366210938 83.552001953125,-176.58599853515625 C96.73799896240234,-179.08900451660156 109.68499755859375,-178.9530029296875 127.67900085449219,-175.78500366210938 C150.62399291992188,-171.74600219726562 160.73899841308594,-163.61700439453125 160.73899841308594,-163.61700439453125 C160.73899841308594,-163.61700439453125 163.01300048828125,-174.031005859375 156.36599731445312,-184.2239990234375 C149.718994140625,-194.41700744628906 135.01699829101562,-203.64599609375 118.13899993896484,-204.9080047607422 C101.26100158691406,-206.1699981689453 80.73400115966797,-208.08399963378906 64.29399871826172,-200.75599670410156z"></path></g><g opacity="1" transform="matrix(1,0,0,1,0,0)"><path fill="rgb(255,223,121)" fill-opacity="1" d=" M61.652000427246094,-198.3489990234375 C61.652000427246094,-198.3489990234375 58.56100082397461,-192.36599731445312 60.888999938964844,-189.57699584960938 C63.33100128173828,-186.65199279785156 70.31999969482422,-187.27200317382812 81.63800048828125,-189.57699584960938 C92.95600128173828,-191.8820037841797 108.6729965209961,-192.30099487304688 120.93399810791016,-189.99600219726562 C133.19500732421875,-187.6909942626953 152.05799865722656,-180.04100036621094 158.86900329589844,-162.85499572753906 C158.86900329589844,-162.85499572753906 162.38299560546875,-159.29200744628906 161.98800659179688,-169.87600708007812 C161.59300231933594,-180.4600067138672 153.4969940185547,-191.67300415039062 139.94000244140625,-198.7989959716797 C126.38300323486328,-205.9250030517578 102.78399658203125,-206.697998046875 93.88899993896484,-206.03399658203125 C84.99400329589844,-205.3699951171875 71.71199798583984,-204.32200622558594 61.652000427246094,-198.3489990234375z"></path></g><g opacity="1" transform="matrix(1,0,0,1,0,0)"><path stroke-linecap="round" stroke-linejoin="round" fill-opacity="0" stroke="rgb(247,126,65)" stroke-opacity="1" stroke-width="8" d=" M49.125999450683594,-145.91000366210938 C40.98899841308594,-143.3979949951172 32.569000244140625,-150.23500061035156 31.541000366210938,-163.03700256347656 C30.812999725341797,-172.10699462890625 37.08000183105469,-181.76800537109375 41.784000396728516,-186.20599365234375 C46.487998962402344,-190.6439971923828 59.88800048828125,-200.85699462890625 73.2020034790039,-203.58799743652344 C86.51599884033203,-206.31900024414062 115.6989974975586,-209.1540069580078 138.91400146484375,-199.25399780273438 C162.12899780273438,-189.35299682617188 165.88400268554688,-162.35499572753906 158.71499633789062,-151.42999267578125 C151.54600524902344,-140.5050048828125 123.20899963378906,-168.78399658203125 49.125999450683594,-145.91000366210938z"></path></g></g><g style="display: block;" transform="matrix(0.800000011920929,0,0,0.800000011920929,256,282)" opacity="1"><g opacity="1" transform="matrix(1,0,0,1,0,0)"><path fill="rgb(255,177,57)" fill-opacity="1" d=" M55.270999908447266,-96.46499633789062 C46.834999084472656,-94.81199645996094 32.64899826049805,-98.71900177001953 30.007999420166016,-115.58300018310547 C27.788999557495117,-129.75100708007812 34.374000549316406,-139.70199584960938 48.029998779296875,-150.45599365234375 C64.20500183105469,-163.19400024414062 81.8949966430664,-165.77200317382812 92.45500183105469,-166.47900390625 C107.177001953125,-167.46499633789062 138.23599243164062,-165.4720001220703 158.71499633789062,-158.968994140625 C177.88699340820312,-152.88099670410156 184.09100341796875,-137.44400024414062 184.6320037841797,-128.7550048828125 C185.68499755859375,-111.85600280761719 180.90499877929688,-97.83000183105469 161.78700256347656,-96.46499633789062 C133.7949981689453,-94.46600341796875 123.20899963378906,-109.77899932861328 55.270999908447266,-96.46499633789062z"></path></g><g opacity="1" transform="matrix(1,0,0,1,0,0)"><path fill="rgb(255,209,64)" fill-opacity="1" d=" M63.83100128173828,-159.8730010986328 C63.83100128173828,-159.8730010986328 55.92100143432617,-147.7779998779297 63.152000427246094,-139.03799438476562 C69.46600341796875,-131.406005859375 83.03900146484375,-131.90899658203125 96.73500061035156,-133.6179962158203 C114.40399932861328,-135.82200622558594 129.65899658203125,-135.42100524902344 144.13800048828125,-132.43499755859375 C157.9969940185547,-129.5760040283203 161.4499969482422,-127.89900207519531 168.6750030517578,-125.18900299072266 C175.89999389648438,-122.47899627685547 184.69000244140625,-123.30799865722656 184.43499755859375,-130.64599609375 C184.17999267578125,-137.98399353027344 178.66000366210938,-150.50599670410156 163.73199462890625,-157.0399932861328 C148.8040008544922,-163.57400512695312 89.4990005493164,-173.93499755859375 63.83100128173828,-159.8730010986328z"></path></g><g opacity="1" transform="matrix(1,0,0,1,0,0)"><path fill="rgb(255,223,121)" fill-opacity="1" d=" M70.51000213623047,-161.13400268554688 C70.51000213623047,-161.13400268554688 64.82599639892578,-156.43899536132812 67.05000305175781,-151.49600219726562 C69.27400207519531,-146.55299377441406 77.06999969482422,-149.29400634765625 89.76899719238281,-150.66700744628906 C108.78299713134766,-152.72300720214844 122.22899627685547,-151.85400390625 137.55099487304688,-149.38299560546875 C152.87399291992188,-146.91200256347656 176.2899932861328,-139.08999633789062 184.44000244140625,-123.76899719238281 C184.44000244140625,-123.76899719238281 186.6649932861328,-144.822998046875 169.36500549316406,-153.9669952392578 C152.06500244140625,-163.11099243164062 126.33000183105469,-167.33700561523438 104.30899810791016,-166.67999267578125 C82.28800201416016,-166.0229949951172 70.51000213623047,-161.13400268554688 70.51000213623047,-161.13400268554688z"></path></g><g opacity="1" transform="matrix(1,0,0,1,0,0)"><path stroke-linecap="round" stroke-linejoin="round" fill-opacity="0" stroke="rgb(247,126,65)" stroke-opacity="1" stroke-width="8" d=" M55.270999908447266,-96.46499633789062 C46.834999084472656,-94.81199645996094 32.64899826049805,-98.71900177001953 30.007999420166016,-115.58300018310547 C27.788999557495117,-129.75100708007812 34.374000549316406,-139.70199584960938 48.029998779296875,-150.45599365234375 C64.20500183105469,-163.19400024414062 81.8949966430664,-165.77200317382812 92.45500183105469,-166.47900390625 C107.177001953125,-167.46499633789062 138.23599243164062,-165.4720001220703 158.71499633789062,-158.968994140625 C177.88699340820312,-152.88099670410156 184.09100341796875,-137.44400024414062 184.6320037841797,-128.7550048828125 C185.68499755859375,-111.85600280761719 180.90499877929688,-97.83000183105469 161.78700256347656,-96.46499633789062 C133.7949981689453,-94.46600341796875 123.20899963378906,-109.77899932861328 55.270999908447266,-96.46499633789062z"></path></g></g><g style="display: block;" transform="matrix(0.800000011920929,0,0,0.800000011920929,256,282)" opacity="1"><g opacity="1" transform="matrix(1,0,0,1,0,0)"><path fill="rgb(255,177,57)" fill-opacity="1" d=" M74.0479965209961,-44.91400146484375 C59.016998291015625,-44.0359992980957 33.888999938964844,-49.00899887084961 31.71500015258789,-73.2770004272461 C29.538000106811523,-97.57499694824219 59.027000427246094,-109.43800354003906 74.0479965209961,-113.8759994506836 C89.06900024414062,-118.31400299072266 121.84400177001953,-118.31400299072266 136.86500549316406,-116.26599884033203 C151.88600158691406,-114.21800231933594 182.27099609375,-107.07599639892578 192.51300048828125,-93.76200103759766 C202.7550048828125,-80.447998046875 206.50999450683594,-46.64899826049805 173.73599243164062,-36.066001892089844 C140.96200561523438,-25.482999801635742 126.62300109863281,-47.98699951171875 74.0479965209961,-44.91400146484375z"></path></g><g opacity="1" transform="matrix(1,0,0,1,0,0)"><path fill="rgb(255,209,64)" fill-opacity="1" d=" M66.98400115966797,-111.5459976196289 C66.98400115966797,-111.5459976196289 57.987998962402344,-104.14199829101562 62.14799880981445,-93.1760025024414 C66.30799865722656,-82.20999908447266 80.29900360107422,-80.50800323486328 93.91200256347656,-82.58799743652344 C107.5250015258789,-84.66799926757812 133.42799377441406,-84.29000091552734 151.38999938964844,-78.61799621582031 C169.3520050048828,-72.94599914550781 179.78599548339844,-65.56500244140625 190.2790069580078,-66.8290023803711 C200.77200317382812,-68.09300231933594 200.15699768066406,-75.0469970703125 199.7689971923828,-79.09200286865234 C199.38099670410156,-83.13800048828125 195.3300018310547,-95.65299987792969 177.88699340820312,-104.12300109863281 C160.44400024414062,-112.59300231933594 133.26199340820312,-116.46499633789062 108.61100006103516,-117.56300354003906 C83.95999908447266,-118.66200256347656 66.98400115966797,-111.5459976196289 66.98400115966797,-111.5459976196289z"></path></g><g opacity="1" transform="matrix(1,0,0,1,0,0)"><path fill="rgb(255,223,121)" fill-opacity="1" d=" M68.44499969482422,-110.677001953125 C68.44499969482422,-110.677001953125 65.76899719238281,-105.38700103759766 70.23100280761719,-101.92400360107422 C75.92900085449219,-97.50199890136719 96.9469985961914,-104.54000091552734 123.10299682617188,-103.53199768066406 C149.4010009765625,-102.51899719238281 192.0500030517578,-95.21499633789062 198.83799743652344,-66.68599700927734 C198.83799743652344,-66.68599700927734 201.74899291992188,-86.7750015258789 189.7550048828125,-96.76100158691406 C177.76100158691406,-106.74700164794922 148.68299865722656,-117.75900268554688 112.20700073242188,-117.10700225830078 C88.21900177001953,-116.6780014038086 68.44499969482422,-110.677001953125 68.44499969482422,-110.677001953125z"></path></g><g opacity="1" transform="matrix(1,0,0,1,0,0)"><path stroke-linecap="round" stroke-linejoin="round" fill-opacity="0" stroke="rgb(247,126,65)" stroke-opacity="1" stroke-width="8" d=" M74.0479965209961,-44.91400146484375 C59.016998291015625,-44.0359992980957 33.888999938964844,-49.00899887084961 31.71500015258789,-73.2770004272461 C29.538000106811523,-97.57499694824219 59.027000427246094,-109.43800354003906 74.0479965209961,-113.8759994506836 C89.06900024414062,-118.31400299072266 121.84400177001953,-118.31400299072266 136.86500549316406,-116.26599884033203 C151.88600158691406,-114.21800231933594 182.27099609375,-107.07599639892578 192.51300048828125,-93.76200103759766 C202.7550048828125,-80.447998046875 206.50999450683594,-46.64899826049805 173.73599243164062,-36.066001892089844 C140.96200561523438,-25.482999801635742 126.62300109863281,-47.98699951171875 74.0479965209961,-44.91400146484375z"></path></g></g><g style="display: block;" transform="matrix(0.800000011920929,0,0,0.800000011920929,256,282)" opacity="1"><g opacity="1" transform="matrix(1,0,0,1,0,0)"><path fill="rgb(255,177,57)" fill-opacity="1" d=" M113.75800323486328,38.76900100708008 C146.7270050048828,37.7130012512207 188.70899963378906,27.086999893188477 193.50900268554688,-3.1489999294281006 C198.74400329589844,-36.12200164794922 186.13900756835938,-46.2869987487793 163.49400329589844,-53.44900131225586 C138.57200622558594,-61.33100128173828 95.2959976196289,-64.39299774169922 65.1719970703125,-57.915000915527344 C33.422000885009766,-51.08700180053711 33.08100128173828,-18.910999298095703 50.492000579833984,-6.961999893188477 C67.90299987792969,4.986999988555908 95.64199829101562,2.947999954223633 104.51799774169922,2.881999969482422 C116.04000091552734,2.796999931335449 130.89100646972656,11.501999855041504 149.9239959716797,12.100000381469727 C149.9239959716797,12.100000381469727 113.75800323486328,38.76900100708008 113.75800323486328,38.76900100708008z"></path></g><g opacity="1" transform="matrix(1,0,0,1,0,0)"><path fill="rgb(255,209,64)" fill-opacity="1" d=" M97.98600006103516,-61.426998138427734 C97.98600006103516,-61.426998138427734 81.96199798583984,-58.887001037597656 81.96199798583984,-58.887001037597656 C81.96199798583984,-58.887001037597656 70.50199890136719,-46.49100112915039 85.01499938964844,-32.0629997253418 C94.94999694824219,-22.18600082397461 111.91300201416016,-25.8700008392334 129.0189971923828,-20.277000427246094 C146.91299438476562,-14.425999641418457 161.29100036621094,-9.442000389099121 175.08599853515625,-11.890000343322754 C189.0240020751953,-14.36299991607666 193.11099243164062,-22.635000228881836 192.25999450683594,-31.725000381469727 C191.40899658203125,-40.814998626708984 169.0229949951172,-62.638999938964844 97.98600006103516,-61.426998138427734z"></path></g><g opacity="1" transform="matrix(1,0,0,1,0,0)"><path fill="rgb(255,223,121)" fill-opacity="1" d=" M90.58999633789062,-61.10499954223633 C90.58999633789062,-61.10499954223633 84.6989974975586,-53.875999450683594 91.48699951171875,-49.5890007019043 C98.2750015258789,-45.301998138427734 104.16899871826172,-47.803001403808594 124.35299682617188,-45.48099899291992 C144.53700256347656,-43.159000396728516 187.14599609375,-39.94300079345703 192.36700439453125,-16.900999069213867 C192.36700439453125,-16.900999069213867 196.18299865722656,-25.461000442504883 190.00799560546875,-36.36399841308594 C183.83299255371094,-47.266998291015625 141.45899963378906,-66.68900299072266 90.58999633789062,-61.10499954223633z"></path></g><g opacity="1" transform="matrix(1,0,0,1,0,0)"><path stroke-linecap="round" stroke-linejoin="round" fill-opacity="0" stroke="rgb(247,126,65)" stroke-opacity="1" stroke-width="8" d=" M113.75800323486328,38.76900100708008 C146.7270050048828,37.7130012512207 188.70899963378906,27.086999893188477 193.50900268554688,-3.1489999294281006 C198.74400329589844,-36.12200164794922 186.13900756835938,-46.2869987487793 163.49400329589844,-53.44900131225586 C138.57200622558594,-61.33100128173828 95.2959976196289,-64.39299774169922 65.1719970703125,-57.915000915527344 C33.422000885009766,-51.08700180053711 33.08100128173828,-18.910999298095703 50.492000579833984,-6.961999893188477 C67.90299987792969,4.986999988555908 95.64199829101562,2.947999954223633 104.51799774169922,2.881999969482422 C116.04000091552734,2.796999931335449 130.89100646972656,11.501999855041504 149.9239959716797,12.100000381469727"></path></g></g></g></svg>