<svg xmlns="http://www.w3.org/2000/svg" viewBox="0 0 512 512" width="512" height="512" style="width: 100%; height: 100%; transform: translate3d(0,0,0);" preserveAspectRatio="xMidYMid meet"><defs><clipPath id="__lottie_element_9451"><rect width="512" height="512" x="0" y="0"></rect></clipPath><radialGradient id="__lottie_element_9513" spreadMethod="pad" gradientUnits="userSpaceOnUse" cx="1.215999960899353" cy="0.42899999022483826" r="60.213000893592834" fx="1.215999960899353" fy="0.42899999022483826"><stop offset="0%" stop-color="rgb(255,255,255)" stop-opacity="1"></stop><stop offset="78%" stop-color="rgb(237,248,255)" stop-opacity="0.5"></stop><stop offset="100%" stop-color="rgb(220,241,255)" stop-opacity="0"></stop></radialGradient><radialGradient id="__lottie_element_9553" spreadMethod="pad" gradientUnits="userSpaceOnUse" cx="0" cy="0" r="216.76499938964844" fx="0" fy="0"><stop offset="0%" stop-color="rgb(184,255,255)"></stop><stop offset="67%" stop-color="rgb(92,212,255)"></stop><stop offset="100%" stop-color="rgb(0,169,255)"></stop></radialGradient><radialGradient id="__lottie_element_9554" spreadMethod="pad" gradientUnits="userSpaceOnUse" cx="-1" cy="-145" r="83.89099884033203" fx="-1" fy="-145"><stop offset="0%" stop-color="rgb(255,255,255)" stop-opacity="1"></stop><stop offset="30%" stop-color="rgb(255,255,255)" stop-opacity="0.5"></stop><stop offset="100%" stop-color="rgb(255,255,255)" stop-opacity="0"></stop></radialGradient><radialGradient id="__lottie_element_9558" spreadMethod="pad" gradientUnits="userSpaceOnUse" cx="0" cy="0" r="216.76499938964844" fx="0" fy="0"><stop offset="0%" stop-color="rgb(184,255,255)"></stop><stop offset="67%" stop-color="rgb(92,212,255)"></stop><stop offset="100%" stop-color="rgb(0,169,255)"></stop></radialGradient><radialGradient id="__lottie_element_9559" spreadMethod="pad" gradientUnits="userSpaceOnUse" cx="-1" cy="-145" r="83.89099884033203" fx="-1" fy="-145"><stop offset="0%" stop-color="rgb(255,255,255)" stop-opacity="1"></stop><stop offset="30%" stop-color="rgb(255,255,255)" stop-opacity="0.5"></stop><stop offset="100%" stop-color="rgb(255,255,255)" stop-opacity="0"></stop></radialGradient><radialGradient id="__lottie_element_9563" spreadMethod="pad" gradientUnits="userSpaceOnUse" cx="0" cy="0" r="216.76499938964844" fx="0" fy="0"><stop offset="0%" stop-color="rgb(184,255,255)"></stop><stop offset="67%" stop-color="rgb(92,212,255)"></stop><stop offset="100%" stop-color="rgb(0,169,255)"></stop></radialGradient><radialGradient id="__lottie_element_9564" spreadMethod="pad" gradientUnits="userSpaceOnUse" cx="-1" cy="-145" r="83.89099884033203" fx="-1" fy="-145"><stop offset="0%" stop-color="rgb(255,255,255)" stop-opacity="1"></stop><stop offset="30%" stop-color="rgb(255,255,255)" stop-opacity="0.5"></stop><stop offset="100%" stop-color="rgb(255,255,255)" stop-opacity="0"></stop></radialGradient><radialGradient id="__lottie_element_9568" spreadMethod="pad" gradientUnits="userSpaceOnUse" cx="0" cy="0" r="216.76499938964844" fx="0" fy="0"><stop offset="0%" stop-color="rgb(184,255,255)"></stop><stop offset="67%" stop-color="rgb(92,212,255)"></stop><stop offset="100%" stop-color="rgb(0,169,255)"></stop></radialGradient><radialGradient id="__lottie_element_9569" spreadMethod="pad" gradientUnits="userSpaceOnUse" cx="-1" cy="-145" r="83.89099884033203" fx="-1" fy="-145"><stop offset="0%" stop-color="rgb(255,255,255)" stop-opacity="1"></stop><stop offset="30%" stop-color="rgb(255,255,255)" stop-opacity="0.5"></stop><stop offset="100%" stop-color="rgb(255,255,255)" stop-opacity="0"></stop></radialGradient><radialGradient id="__lottie_element_9573" spreadMethod="pad" gradientUnits="userSpaceOnUse" cx="0" cy="0" r="216.76499938964844" fx="0" fy="0"><stop offset="0%" stop-color="rgb(184,255,255)"></stop><stop offset="67%" stop-color="rgb(92,212,255)"></stop><stop offset="100%" stop-color="rgb(0,169,255)"></stop></radialGradient><radialGradient id="__lottie_element_9574" spreadMethod="pad" gradientUnits="userSpaceOnUse" cx="-1" cy="-145" r="83.89099884033203" fx="-1" fy="-145"><stop offset="0%" stop-color="rgb(255,255,255)" stop-opacity="1"></stop><stop offset="30%" stop-color="rgb(255,255,255)" stop-opacity="0.5"></stop><stop offset="100%" stop-color="rgb(255,255,255)" stop-opacity="0"></stop></radialGradient><radialGradient id="__lottie_element_9578" spreadMethod="pad" gradientUnits="userSpaceOnUse" cx="0" cy="0" r="216.76499938964844" fx="0" fy="0"><stop offset="0%" stop-color="rgb(184,255,255)"></stop><stop offset="67%" stop-color="rgb(92,212,255)"></stop><stop offset="100%" stop-color="rgb(0,169,255)"></stop></radialGradient><radialGradient id="__lottie_element_9579" spreadMethod="pad" gradientUnits="userSpaceOnUse" cx="-1" cy="-145" r="83.89099884033203" fx="-1" fy="-145"><stop offset="0%" stop-color="rgb(255,255,255)" stop-opacity="1"></stop><stop offset="30%" stop-color="rgb(255,255,255)" stop-opacity="0.5"></stop><stop offset="100%" stop-color="rgb(255,255,255)" stop-opacity="0"></stop></radialGradient></defs><g clip-path="url(#__lottie_element_9451)"><g style="display: block;" transform="matrix(0.9636304378509521,-0.2672383785247803,0.2672383785247803,0.9636304378509521,256,256)" opacity="1"><g opacity="1" transform="matrix(1,0,0,1,0,0)"><g opacity="1" transform="matrix(1,0,0,1,0,0)"><g opacity="1" transform="matrix(1,0,0,1,0,0)"><path fill="url(#__lottie_element_9578)" fill-opacity="1" d=" M34.25400161743164,-59.32899856567383 C17.062000274658203,-69.25399780273438 24.229999542236328,-107.58399963378906 27.82699966430664,-116.18299865722656 C34.071998596191406,-131.06900024414062 84.60900115966797,-149.75900268554688 83.48799896240234,-187.88499450683594 C60.53499984741211,-194.63699340820312 37.172000885009766,-179.87100219726562 20.069000244140625,-163.00100708007812 C23.586000442504883,-202.73500061035156 14.09000015258789,-217.6790008544922 0,-228.41099548339844 C-14.09000015258789,-217.6790008544922 -23.586000442504883,-202.73500061035156 -20.069000244140625,-163.00100708007812 C-37.172000885009766,-179.87100219726562 -60.53499984741211,-194.63699340820312 -83.48799896240234,-187.88499450683594 C-84.60900115966797,-149.75900268554688 -34.071998596191406,-131.06900024414062 -27.82699966430664,-116.18299865722656 C-24.229999542236328,-107.58399963378906 -17.062999725341797,-69.25399780273438 -34.25400161743164,-59.32899856567383 C-42.849998474121094,-54.36600112915039 -21.424999237060547,0 0,0 C21.424999237060547,0 42.849998474121094,-54.36600112915039 34.25400161743164,-59.32899856567383z"></path><path fill="url(#__lottie_element_9579)" fill-opacity="1" d=" M34.25400161743164,-59.32899856567383 C17.062000274658203,-69.25399780273438 24.229999542236328,-107.58399963378906 27.82699966430664,-116.18299865722656 C34.071998596191406,-131.06900024414062 84.60900115966797,-149.75900268554688 83.48799896240234,-187.88499450683594 C60.53499984741211,-194.63699340820312 37.172000885009766,-179.87100219726562 20.069000244140625,-163.00100708007812 C23.586000442504883,-202.73500061035156 14.09000015258789,-217.6790008544922 0,-228.41099548339844 C-14.09000015258789,-217.6790008544922 -23.586000442504883,-202.73500061035156 -20.069000244140625,-163.00100708007812 C-37.172000885009766,-179.87100219726562 -60.53499984741211,-194.63699340820312 -83.48799896240234,-187.88499450683594 C-84.60900115966797,-149.75900268554688 -34.071998596191406,-131.06900024414062 -27.82699966430664,-116.18299865722656 C-24.229999542236328,-107.58399963378906 -17.062999725341797,-69.25399780273438 -34.25400161743164,-59.32899856567383 C-42.849998474121094,-54.36600112915039 -21.424999237060547,0 0,0 C21.424999237060547,0 42.849998474121094,-54.36600112915039 34.25400161743164,-59.32899856567383z"></path></g></g></g></g><g style="display: block;" transform="matrix(0.9636304378509521,-0.2672383785247803,0.2672383785247803,0.9636304378509521,256,256)" opacity="1"><g opacity="1" transform="matrix(1,0,0,1,0,0)"><g opacity="1" transform="matrix(1,0,0,1,0,0)"><g opacity="1" transform="matrix(0.5,-0.8660253882408142,0.8660253882408142,0.5,0,0)"><path fill="url(#__lottie_element_9573)" fill-opacity="1" d=" M34.25400161743164,-59.32899856567383 C17.062000274658203,-69.25399780273438 24.229999542236328,-107.58399963378906 27.82699966430664,-116.18299865722656 C34.071998596191406,-131.06900024414062 84.60900115966797,-149.75900268554688 83.48799896240234,-187.88499450683594 C60.53499984741211,-194.63699340820312 37.172000885009766,-179.87100219726562 20.069000244140625,-163.00100708007812 C23.586000442504883,-202.73500061035156 14.09000015258789,-217.6790008544922 0,-228.41099548339844 C-14.09000015258789,-217.6790008544922 -23.586000442504883,-202.73500061035156 -20.069000244140625,-163.00100708007812 C-37.172000885009766,-179.87100219726562 -60.53499984741211,-194.63699340820312 -83.48799896240234,-187.88499450683594 C-84.60900115966797,-149.75900268554688 -34.071998596191406,-131.06900024414062 -27.82699966430664,-116.18299865722656 C-24.229999542236328,-107.58399963378906 -17.062999725341797,-69.25399780273438 -34.25400161743164,-59.32899856567383 C-42.849998474121094,-54.36600112915039 -21.424999237060547,0 0,0 C21.424999237060547,0 42.849998474121094,-54.36600112915039 34.25400161743164,-59.32899856567383z"></path><path fill="url(#__lottie_element_9574)" fill-opacity="1" d=" M34.25400161743164,-59.32899856567383 C17.062000274658203,-69.25399780273438 24.229999542236328,-107.58399963378906 27.82699966430664,-116.18299865722656 C34.071998596191406,-131.06900024414062 84.60900115966797,-149.75900268554688 83.48799896240234,-187.88499450683594 C60.53499984741211,-194.63699340820312 37.172000885009766,-179.87100219726562 20.069000244140625,-163.00100708007812 C23.586000442504883,-202.73500061035156 14.09000015258789,-217.6790008544922 0,-228.41099548339844 C-14.09000015258789,-217.6790008544922 -23.586000442504883,-202.73500061035156 -20.069000244140625,-163.00100708007812 C-37.172000885009766,-179.87100219726562 -60.53499984741211,-194.63699340820312 -83.48799896240234,-187.88499450683594 C-84.60900115966797,-149.75900268554688 -34.071998596191406,-131.06900024414062 -27.82699966430664,-116.18299865722656 C-24.229999542236328,-107.58399963378906 -17.062999725341797,-69.25399780273438 -34.25400161743164,-59.32899856567383 C-42.849998474121094,-54.36600112915039 -21.424999237060547,0 0,0 C21.424999237060547,0 42.849998474121094,-54.36600112915039 34.25400161743164,-59.32899856567383z"></path></g></g></g></g><g style="display: block;" transform="matrix(0.9636304378509521,-0.2672383785247803,0.2672383785247803,0.9636304378509521,256,256)" opacity="1"><g opacity="1" transform="matrix(1,0,0,1,0,0)"><g opacity="1" transform="matrix(1,0,0,1,0,0)"><g opacity="1" transform="matrix(0.5,0.8660253882408142,-0.8660253882408142,0.5,0,0)"><path fill="url(#__lottie_element_9568)" fill-opacity="1" d=" M34.25400161743164,-59.32899856567383 C17.062000274658203,-69.25399780273438 24.229999542236328,-107.58399963378906 27.82699966430664,-116.18299865722656 C34.071998596191406,-131.06900024414062 84.60900115966797,-149.75900268554688 83.48799896240234,-187.88499450683594 C60.53499984741211,-194.63699340820312 37.172000885009766,-179.87100219726562 20.069000244140625,-163.00100708007812 C23.586000442504883,-202.73500061035156 14.09000015258789,-217.6790008544922 0,-228.41099548339844 C-14.09000015258789,-217.6790008544922 -23.586000442504883,-202.73500061035156 -20.069000244140625,-163.00100708007812 C-37.172000885009766,-179.87100219726562 -60.53499984741211,-194.63699340820312 -83.48799896240234,-187.88499450683594 C-84.60900115966797,-149.75900268554688 -34.071998596191406,-131.06900024414062 -27.82699966430664,-116.18299865722656 C-24.229999542236328,-107.58399963378906 -17.062999725341797,-69.25399780273438 -34.25400161743164,-59.32899856567383 C-42.849998474121094,-54.36600112915039 -21.424999237060547,0 0,0 C21.424999237060547,0 42.849998474121094,-54.36600112915039 34.25400161743164,-59.32899856567383z"></path><path fill="url(#__lottie_element_9569)" fill-opacity="1" d=" M34.25400161743164,-59.32899856567383 C17.062000274658203,-69.25399780273438 24.229999542236328,-107.58399963378906 27.82699966430664,-116.18299865722656 C34.071998596191406,-131.06900024414062 84.60900115966797,-149.75900268554688 83.48799896240234,-187.88499450683594 C60.53499984741211,-194.63699340820312 37.172000885009766,-179.87100219726562 20.069000244140625,-163.00100708007812 C23.586000442504883,-202.73500061035156 14.09000015258789,-217.6790008544922 0,-228.41099548339844 C-14.09000015258789,-217.6790008544922 -23.586000442504883,-202.73500061035156 -20.069000244140625,-163.00100708007812 C-37.172000885009766,-179.87100219726562 -60.53499984741211,-194.63699340820312 -83.48799896240234,-187.88499450683594 C-84.60900115966797,-149.75900268554688 -34.071998596191406,-131.06900024414062 -27.82699966430664,-116.18299865722656 C-24.229999542236328,-107.58399963378906 -17.062999725341797,-69.25399780273438 -34.25400161743164,-59.32899856567383 C-42.849998474121094,-54.36600112915039 -21.424999237060547,0 0,0 C21.424999237060547,0 42.849998474121094,-54.36600112915039 34.25400161743164,-59.32899856567383z"></path></g></g></g></g><g style="display: block;" transform="matrix(0.9636304378509521,-0.2672383785247803,0.2672383785247803,0.9636304378509521,256,256)" opacity="1"><g opacity="1" transform="matrix(1,0,0,1,0,0)"><g opacity="1" transform="matrix(1,0,0,1,0,0)"><g opacity="1" transform="matrix(-0.5,-0.8660253882408142,0.8660253882408142,-0.5,0,0)"><path fill="url(#__lottie_element_9563)" fill-opacity="1" d=" M34.25400161743164,-59.32899856567383 C17.062000274658203,-69.25399780273438 24.229999542236328,-107.58399963378906 27.82699966430664,-116.18299865722656 C34.071998596191406,-131.06900024414062 84.60900115966797,-149.75900268554688 83.48799896240234,-187.88499450683594 C60.53499984741211,-194.63699340820312 37.172000885009766,-179.87100219726562 20.069000244140625,-163.00100708007812 C23.586000442504883,-202.73500061035156 14.09000015258789,-217.6790008544922 0,-228.41099548339844 C-14.09000015258789,-217.6790008544922 -23.586000442504883,-202.73500061035156 -20.069000244140625,-163.00100708007812 C-37.172000885009766,-179.87100219726562 -60.53499984741211,-194.63699340820312 -83.48799896240234,-187.88499450683594 C-84.60900115966797,-149.75900268554688 -34.071998596191406,-131.06900024414062 -27.82699966430664,-116.18299865722656 C-24.229999542236328,-107.58399963378906 -17.062999725341797,-69.25399780273438 -34.25400161743164,-59.32899856567383 C-42.849998474121094,-54.36600112915039 -21.424999237060547,0 0,0 C21.424999237060547,0 42.849998474121094,-54.36600112915039 34.25400161743164,-59.32899856567383z"></path><path fill="url(#__lottie_element_9564)" fill-opacity="1" d=" M34.25400161743164,-59.32899856567383 C17.062000274658203,-69.25399780273438 24.229999542236328,-107.58399963378906 27.82699966430664,-116.18299865722656 C34.071998596191406,-131.06900024414062 84.60900115966797,-149.75900268554688 83.48799896240234,-187.88499450683594 C60.53499984741211,-194.63699340820312 37.172000885009766,-179.87100219726562 20.069000244140625,-163.00100708007812 C23.586000442504883,-202.73500061035156 14.09000015258789,-217.6790008544922 0,-228.41099548339844 C-14.09000015258789,-217.6790008544922 -23.586000442504883,-202.73500061035156 -20.069000244140625,-163.00100708007812 C-37.172000885009766,-179.87100219726562 -60.53499984741211,-194.63699340820312 -83.48799896240234,-187.88499450683594 C-84.60900115966797,-149.75900268554688 -34.071998596191406,-131.06900024414062 -27.82699966430664,-116.18299865722656 C-24.229999542236328,-107.58399963378906 -17.062999725341797,-69.25399780273438 -34.25400161743164,-59.32899856567383 C-42.849998474121094,-54.36600112915039 -21.424999237060547,0 0,0 C21.424999237060547,0 42.849998474121094,-54.36600112915039 34.25400161743164,-59.32899856567383z"></path></g></g></g></g><g style="display: block;" transform="matrix(0.9636304378509521,-0.2672383785247803,0.2672383785247803,0.9636304378509521,256,256)" opacity="1"><g opacity="1" transform="matrix(1,0,0,1,0,0)"><g opacity="1" transform="matrix(1,0,0,1,0,0)"><g opacity="1" transform="matrix(-0.5,0.8660253882408142,-0.8660253882408142,-0.5,0,0)"><path fill="url(#__lottie_element_9558)" fill-opacity="1" d=" M34.25400161743164,-59.32899856567383 C17.062000274658203,-69.25399780273438 24.229999542236328,-107.58399963378906 27.82699966430664,-116.18299865722656 C34.071998596191406,-131.06900024414062 84.60900115966797,-149.75900268554688 83.48799896240234,-187.88499450683594 C60.53499984741211,-194.63699340820312 37.172000885009766,-179.87100219726562 20.069000244140625,-163.00100708007812 C23.586000442504883,-202.73500061035156 14.09000015258789,-217.6790008544922 0,-228.41099548339844 C-14.09000015258789,-217.6790008544922 -23.586000442504883,-202.73500061035156 -20.069000244140625,-163.00100708007812 C-37.172000885009766,-179.87100219726562 -60.53499984741211,-194.63699340820312 -83.48799896240234,-187.88499450683594 C-84.60900115966797,-149.75900268554688 -34.071998596191406,-131.06900024414062 -27.82699966430664,-116.18299865722656 C-24.229999542236328,-107.58399963378906 -17.062999725341797,-69.25399780273438 -34.25400161743164,-59.32899856567383 C-42.849998474121094,-54.36600112915039 -21.424999237060547,0 0,0 C21.424999237060547,0 42.849998474121094,-54.36600112915039 34.25400161743164,-59.32899856567383z"></path><path fill="url(#__lottie_element_9559)" fill-opacity="1" d=" M34.25400161743164,-59.32899856567383 C17.062000274658203,-69.25399780273438 24.229999542236328,-107.58399963378906 27.82699966430664,-116.18299865722656 C34.071998596191406,-131.06900024414062 84.60900115966797,-149.75900268554688 83.48799896240234,-187.88499450683594 C60.53499984741211,-194.63699340820312 37.172000885009766,-179.87100219726562 20.069000244140625,-163.00100708007812 C23.586000442504883,-202.73500061035156 14.09000015258789,-217.6790008544922 0,-228.41099548339844 C-14.09000015258789,-217.6790008544922 -23.586000442504883,-202.73500061035156 -20.069000244140625,-163.00100708007812 C-37.172000885009766,-179.87100219726562 -60.53499984741211,-194.63699340820312 -83.48799896240234,-187.88499450683594 C-84.60900115966797,-149.75900268554688 -34.071998596191406,-131.06900024414062 -27.82699966430664,-116.18299865722656 C-24.229999542236328,-107.58399963378906 -17.062999725341797,-69.25399780273438 -34.25400161743164,-59.32899856567383 C-42.849998474121094,-54.36600112915039 -21.424999237060547,0 0,0 C21.424999237060547,0 42.849998474121094,-54.36600112915039 34.25400161743164,-59.32899856567383z"></path></g></g></g></g><g style="display: block;" transform="matrix(0.9636304378509521,-0.2672383785247803,0.2672383785247803,0.9636304378509521,256,256)" opacity="1"><g opacity="1" transform="matrix(1,0,0,1,0,0)"><g opacity="1" transform="matrix(1,0,0,1,0,0)"><g opacity="1" transform="matrix(-1,0,0,-1,0,0)"><path fill="url(#__lottie_element_9553)" fill-opacity="1" d=" M34.25400161743164,-59.32899856567383 C17.062000274658203,-69.25399780273438 24.229999542236328,-107.58399963378906 27.82699966430664,-116.18299865722656 C34.071998596191406,-131.06900024414062 84.60900115966797,-149.75900268554688 83.48799896240234,-187.88499450683594 C60.53499984741211,-194.63699340820312 37.172000885009766,-179.87100219726562 20.069000244140625,-163.00100708007812 C23.586000442504883,-202.73500061035156 14.09000015258789,-217.6790008544922 0,-228.41099548339844 C-14.09000015258789,-217.6790008544922 -23.586000442504883,-202.73500061035156 -20.069000244140625,-163.00100708007812 C-37.172000885009766,-179.87100219726562 -60.53499984741211,-194.63699340820312 -83.48799896240234,-187.88499450683594 C-84.60900115966797,-149.75900268554688 -34.071998596191406,-131.06900024414062 -27.82699966430664,-116.18299865722656 C-24.229999542236328,-107.58399963378906 -17.062999725341797,-69.25399780273438 -34.25400161743164,-59.32899856567383 C-42.849998474121094,-54.36600112915039 -21.424999237060547,0 0,0 C21.424999237060547,0 42.849998474121094,-54.36600112915039 34.25400161743164,-59.32899856567383z"></path><path fill="url(#__lottie_element_9554)" fill-opacity="1" d=" M34.25400161743164,-59.32899856567383 C17.062000274658203,-69.25399780273438 24.229999542236328,-107.58399963378906 27.82699966430664,-116.18299865722656 C34.071998596191406,-131.06900024414062 84.60900115966797,-149.75900268554688 83.48799896240234,-187.88499450683594 C60.53499984741211,-194.63699340820312 37.172000885009766,-179.87100219726562 20.069000244140625,-163.00100708007812 C23.586000442504883,-202.73500061035156 14.09000015258789,-217.6790008544922 0,-228.41099548339844 C-14.09000015258789,-217.6790008544922 -23.586000442504883,-202.73500061035156 -20.069000244140625,-163.00100708007812 C-37.172000885009766,-179.87100219726562 -60.53499984741211,-194.63699340820312 -83.48799896240234,-187.88499450683594 C-84.60900115966797,-149.75900268554688 -34.071998596191406,-131.06900024414062 -27.82699966430664,-116.18299865722656 C-24.229999542236328,-107.58399963378906 -17.062999725341797,-69.25399780273438 -34.25400161743164,-59.32899856567383 C-42.849998474121094,-54.36600112915039 -21.424999237060547,0 0,0 C21.424999237060547,0 42.849998474121094,-54.36600112915039 34.25400161743164,-59.32899856567383z"></path></g></g></g></g><g style="display: block;" transform="matrix(0.9636304378509521,-0.2672383785247803,0.2672383785247803,0.9636304378509521,256,256)" opacity="1"><g opacity="1" transform="matrix(1,0,0,1,0,0)"><g opacity="1" transform="matrix(1,0,0,1,0,0)"><g opacity="1" transform="matrix(1,0,0,1,0,0)"><g opacity="0.5" transform="matrix(1,0,0,1,0,0)"><path fill="rgb(59,180,255)" fill-opacity="1" d=" M0,0 C0,0 -0.34599998593330383,-54.20399856567383 -0.7099999785423279,-81.31400299072266 C-1.0740000009536743,-108.42400360107422 -26.48200035095215,-125.84100341796875 -42.48500061035156,-130.7760009765625 C-35.38199996948242,-125.31099700927734 -29.672000885009766,-120.58100128173828 -27.82699966430664,-116.18299865722656 C-24.229999542236328,-107.58399963378906 -17.062999725341797,-69.25399780273438 -34.25400161743164,-59.32899856567383 C-34.25400161743164,-59.32899856567383 0,0 0,0z"></path></g></g></g></g></g><g style="display: block;" transform="matrix(0.9636304378509521,-0.2672383785247803,0.2672383785247803,0.9636304378509521,256,256)" opacity="1"><g opacity="1" transform="matrix(1,0,0,1,0,0)"><g opacity="1" transform="matrix(1,0,0,1,0,0)"><g opacity="1" transform="matrix(0.5,-0.8660253882408142,0.8660253882408142,0.5,0,0)"><g opacity="0.5" transform="matrix(1,0,0,1,0,0)"><path fill="rgb(59,180,255)" fill-opacity="1" d=" M0,0 C0,0 -0.34599998593330383,-54.20399856567383 -0.7099999785423279,-81.31400299072266 C-1.0740000009536743,-108.42400360107422 -26.48200035095215,-125.84100341796875 -42.48500061035156,-130.7760009765625 C-35.38199996948242,-125.31099700927734 -29.672000885009766,-120.58100128173828 -27.82699966430664,-116.18299865722656 C-24.229999542236328,-107.58399963378906 -17.062999725341797,-69.25399780273438 -34.25400161743164,-59.32899856567383 C-34.25400161743164,-59.32899856567383 0,0 0,0z"></path></g></g></g></g></g><g style="display: block;" transform="matrix(0.9636304378509521,-0.2672383785247803,0.2672383785247803,0.9636304378509521,256,256)" opacity="1"><g opacity="1" transform="matrix(1,0,0,1,0,0)"><g opacity="1" transform="matrix(1,0,0,1,0,0)"><g opacity="1" transform="matrix(0.5,0.8660253882408142,-0.8660253882408142,0.5,0,0)"><g opacity="0.5" transform="matrix(-1,0,0,1,0,0)"><path fill="rgb(59,180,255)" fill-opacity="1" d=" M0,0 C0,0 -0.34599998593330383,-54.20399856567383 -0.7099999785423279,-81.31400299072266 C-1.0740000009536743,-108.42400360107422 -26.48200035095215,-125.84100341796875 -42.48500061035156,-130.7760009765625 C-35.38199996948242,-125.31099700927734 -29.672000885009766,-120.58100128173828 -27.82699966430664,-116.18299865722656 C-24.229999542236328,-107.58399963378906 -17.062999725341797,-69.25399780273438 -34.25400161743164,-59.32899856567383 C-34.25400161743164,-59.32899856567383 0,0 0,0z"></path></g></g></g></g></g><g style="display: block;" transform="matrix(0.9636304378509521,-0.2672383785247803,0.2672383785247803,0.9636304378509521,256,256)" opacity="1"><g opacity="1" transform="matrix(1,0,0,1,0,0)"><g opacity="1" transform="matrix(1,0,0,1,0,0)"><g opacity="1" transform="matrix(-0.5,-0.8660253882408142,0.8660253882408142,-0.5,0,0)"><g opacity="0.6" transform="matrix(1,0,0,1,0,0)"><path fill="rgb(59,180,255)" fill-opacity="1" d=" M0,0 C0,0 -0.34599998593330383,-54.20399856567383 -0.7099999785423279,-81.31400299072266 C-1.0740000009536743,-108.42400360107422 -26.48200035095215,-125.84100341796875 -42.48500061035156,-130.7760009765625 C-35.38199996948242,-125.31099700927734 -29.672000885009766,-120.58100128173828 -27.82699966430664,-116.18299865722656 C-24.229999542236328,-107.58399963378906 -17.062999725341797,-69.25399780273438 -34.25400161743164,-59.32899856567383 C-34.25400161743164,-59.32899856567383 0,0 0,0z"></path></g></g></g></g></g><g style="display: block;" transform="matrix(0.9636304378509521,-0.2672383785247803,0.2672383785247803,0.9636304378509521,256,256)" opacity="1"><g opacity="1" transform="matrix(1,0,0,1,0,0)"><g opacity="1" transform="matrix(1,0,0,1,0,0)"><g opacity="1" transform="matrix(-0.5,0.8660253882408142,-0.8660253882408142,-0.5,0,0)"><g opacity="0.6" transform="matrix(-1,0,0,1,0,0)"><path fill="rgb(59,180,255)" fill-opacity="1" d=" M0,0 C0,0 -0.34599998593330383,-54.20399856567383 -0.7099999785423279,-81.31400299072266 C-1.0740000009536743,-108.42400360107422 -26.48200035095215,-125.84100341796875 -42.48500061035156,-130.7760009765625 C-35.38199996948242,-125.31099700927734 -29.672000885009766,-120.58100128173828 -27.82699966430664,-116.18299865722656 C-24.229999542236328,-107.58399963378906 -17.062999725341797,-69.25399780273438 -34.25400161743164,-59.32899856567383 C-34.25400161743164,-59.32899856567383 0,0 0,0z"></path></g></g></g></g></g><g style="display: block;" transform="matrix(0.9636304378509521,-0.2672383785247803,0.2672383785247803,0.9636304378509521,256,256)" opacity="1"><g opacity="1" transform="matrix(1,0,0,1,0,0)"><g opacity="1" transform="matrix(1,0,0,1,0,0)"><g opacity="1" transform="matrix(-1,0,0,-1,0,0)"><g opacity="0.6" transform="matrix(1,0,0,1,0,0)"><path fill="rgb(59,180,255)" fill-opacity="1" d=" M0,0 C0,0 -0.34599998593330383,-54.20399856567383 -0.7099999785423279,-81.31400299072266 C-1.0740000009536743,-108.42400360107422 -26.48200035095215,-125.84100341796875 -42.48500061035156,-130.7760009765625 C-35.38199996948242,-125.31099700927734 -29.672000885009766,-120.58100128173828 -27.82699966430664,-116.18299865722656 C-24.229999542236328,-107.58399963378906 -17.062999725341797,-69.25399780273438 -34.25400161743164,-59.32899856567383 C-34.25400161743164,-59.32899856567383 0,0 0,0z"></path></g><g opacity="0.6" transform="matrix(-1,0,0,1,0,0)"><path fill="rgb(59,180,255)" fill-opacity="1" d=" M0,0 C0,0 -0.34599998593330383,-54.20399856567383 -0.7099999785423279,-81.31400299072266 C-1.0740000009536743,-108.42400360107422 -26.48200035095215,-125.84100341796875 -42.48500061035156,-130.7760009765625 C-35.38199996948242,-125.31099700927734 -29.672000885009766,-120.58100128173828 -27.82699966430664,-116.18299865722656 C-24.229999542236328,-107.58399963378906 -17.062999725341797,-69.25399780273438 -34.25400161743164,-59.32899856567383 C-34.25400161743164,-59.32899856567383 0,0 0,0z"></path></g></g></g></g></g><g style="display: block;" transform="matrix(0.9636304378509521,-0.2672383785247803,0.2672383785247803,0.9636304378509521,256,256)" opacity="1"><g opacity="1" transform="matrix(1,0,0,1,0,0)"><g opacity="1" transform="matrix(1,0,0,1,0,0)"><g opacity="1" transform="matrix(1,0,0,1,0,0)"><path fill="rgb(0,180,255)" fill-opacity="1" d=" M0,-96.91899871826172 C-1.1119999885559082,-86.30699920654297 -11.387999534606934,0 0,0 C11.387999534606934,0 1.1119999885559082,-86.30699920654297 0,-96.91899871826172z"></path></g></g></g></g><g style="display: block;" transform="matrix(0.9636304378509521,-0.2672383785247803,0.2672383785247803,0.9636304378509521,256,256)" opacity="1"><g opacity="1" transform="matrix(1,0,0,1,0,0)"><g opacity="1" transform="matrix(1,0,0,1,0,0)"><g opacity="1" transform="matrix(0.5,-0.8660253882408142,0.8660253882408142,0.5,0,0)"><path fill="rgb(0,180,255)" fill-opacity="1" d=" M0,-96.91899871826172 C-1.1119999885559082,-86.30699920654297 -11.387999534606934,0 0,0 C11.387999534606934,0 1.1119999885559082,-86.30699920654297 0,-96.91899871826172z"></path></g></g></g></g><g style="display: block;" transform="matrix(0.9636304378509521,-0.2672383785247803,0.2672383785247803,0.9636304378509521,256,256)" opacity="1"><g opacity="1" transform="matrix(1,0,0,1,0,0)"><g opacity="1" transform="matrix(1,0,0,1,0,0)"><g opacity="1" transform="matrix(0.5,0.8660253882408142,-0.8660253882408142,0.5,0,0)"><path fill="rgb(0,180,255)" fill-opacity="1" d=" M0,-96.91899871826172 C-1.1119999885559082,-86.30699920654297 -11.387999534606934,0 0,0 C11.387999534606934,0 1.1119999885559082,-86.30699920654297 0,-96.91899871826172z"></path></g></g></g></g><g style="display: block;" transform="matrix(0.9636304378509521,-0.2672383785247803,0.2672383785247803,0.9636304378509521,256,256)" opacity="1"><g opacity="1" transform="matrix(1,0,0,1,0,0)"><g opacity="1" transform="matrix(1,0,0,1,0,0)"><g opacity="1" transform="matrix(-0.5,0.8660253882408142,-0.8660253882408142,-0.5,0,0)"><path fill="rgb(0,180,255)" fill-opacity="1" d=" M0,-96.91899871826172 C-1.1119999885559082,-86.30699920654297 -11.387999534606934,0 0,0 C11.387999534606934,0 1.1119999885559082,-86.30699920654297 0,-96.91899871826172z"></path></g></g></g></g><g style="display: block;" transform="matrix(0.9636304378509521,-0.2672383785247803,0.2672383785247803,0.9636304378509521,256,256)" opacity="1"><g opacity="1" transform="matrix(1,0,0,1,0,0)"><g opacity="1" transform="matrix(1,0,0,1,0,0)"><g opacity="1" transform="matrix(-0.5,-0.8660253882408142,0.8660253882408142,-0.5,0,0)"><path fill="rgb(0,180,255)" fill-opacity="1" d=" M0,-96.91899871826172 C-1.1119999885559082,-86.30699920654297 -11.387999534606934,0 0,0 C11.387999534606934,0 1.1119999885559082,-86.30699920654297 0,-96.91899871826172z"></path></g></g></g></g><g style="display: block;" transform="matrix(0.9636304378509521,-0.2672383785247803,0.2672383785247803,0.9636304378509521,256,256)" opacity="1"><g opacity="1" transform="matrix(1,0,0,1,0,0)"><g opacity="1" transform="matrix(1,0,0,1,0,0)"><g opacity="1" transform="matrix(-1,0,0,-1,0,0)"><path fill="rgb(0,180,255)" fill-opacity="1" d=" M0,-96.91899871826172 C-1.1119999885559082,-86.30699920654297 -11.387999534606934,0 0,0 C11.387999534606934,0 1.1119999885559082,-86.30699920654297 0,-96.91899871826172z"></path></g></g></g></g><g style="display: block;" transform="matrix(0.9636304378509521,-0.2672383785247803,0.2672383785247803,0.9636304378509521,256.2847595214844,256.1399841308594)" opacity="1"><g opacity="1" transform="matrix(1,0,0,1,0,0)"><g opacity="1" transform="matrix(1,0,0,1,0,0)"><g opacity="1" transform="matrix(1,0,0,1,0,0)"><path fill="url(#__lottie_element_9513)" fill-opacity="1" d=" M32.132999420166016,4.104000091552734 C50.32099914550781,3.6089999675750732 62.426998138427734,-1.2050000429153442 62.426998138427734,-1.2050000429153442 C52.39699935913086,-4.460000038146973 42.428001403808594,-5.4670000076293945 33.505001068115234,-5.341000080108643 C47.34400177001953,-14.470000267028809 50.99599838256836,-29.740999221801758 50.99599838256836,-29.740999221801758 C37.874000549316406,-32.72200012207031 27.930999755859375,-30.450000762939453 20.496999740600586,-26.06100082397461 C28.88599967956543,-41.45100021362305 30.854999542236328,-53.75 30.854999542236328,-53.75 C22.718000411987305,-46.6150016784668 16.652000427246094,-38.32699966430664 12.157999992370605,-30.41200065612793 C11.442000389099121,-47.15599822998047 -0.023000000044703484,-58.19300079345703 -0.023000000044703484,-58.19300079345703 C-9.218000411987305,-48.422000885009766 -12.3100004196167,-38.729000091552734 -12.314000129699707,-30.114999771118164 C-21.511999130249023,-44.92399978637695 -31.163000106811523,-52.67100143432617 -31.163000106811523,-52.67100143432617 C-28.983999252319336,-42.05400085449219 -24.77199935913086,-32.66600036621094 -20.107999801635742,-24.83799934387207 C-35.016998291015625,-32.856998443603516 -50.516998291015625,-28.458999633789062 -50.516998291015625,-28.458999633789062 C-46.766998291015625,-15.782999992370605 -40.095001220703125,-8.267000198364258 -32.78499984741211,-3.8929998874664307 C-49.650001525878906,-3.072999954223633 -60.71699905395508,1.3259999752044678 -60.71699905395508,1.3259999752044678 C-50.15700149536133,4.752999782562256 -39.66299819946289,5.690000057220459 -30.38800048828125,5.434000015258789 C-45.7859992980957,14.355999946594238 -49.76599884033203,31.003000259399414 -49.76599884033203,31.003000259399414 C-37.34199905395508,33.82500076293945 -27.768999099731445,31.93899917602539 -20.475000381469727,28.0049991607666 C-28.224000930786133,42.72600173950195 -30.069000244140625,54.275001525878906 -30.069000244140625,54.275001525878906 C-21.687000274658203,46.92599868774414 -15.494999885559082,38.3489990234375 -10.96399974822998,30.22100067138672 C-10.880000114440918,47.777000427246094 1.253000020980835,59.45500183105469 1.253000020980835,59.45500183105469 C10.565999984741211,49.558998107910156 13.61400032043457,39.74300003051758 13.538000106811523,31.04599952697754 C22.777000427246094,46.000999450683594 32.5260009765625,53.82400131225586 32.5260009765625,53.82400131225586 C30.371000289916992,43.32400131225586 26.22800064086914,34.0260009765625 21.625,26.25 C36.44499969482422,34.060001373291016 51.74700164794922,29.72100067138672 51.74700164794922,29.72100067138672 C47.676998138427734,15.96500015258789 40.16699981689453,8.284000396728516 32.132999420166016,4.104000091552734z"></path></g></g></g></g><g style="display: block;" transform="matrix(0.9636304378509521,-0.2672383785247803,0.2672383785247803,0.9636304378509521,256,256)" opacity="1"><g opacity="1" transform="matrix(1,0,0,1,0,0)"><path stroke-linecap="round" stroke-linejoin="round" fill-opacity="0" stroke="rgb(220,241,255)" stroke-opacity="1" stroke-width="8" d=" M24.1299991607666,-101.18800354003906 C21,-108.66699981689453 22.743000030517578,-114.99500274658203 24.368999481201172,-118.88400268554688 C31.527000427246094,-135.94700622558594 72.22799682617188,-151.5679931640625 76.22200012207031,-182.2760009765625 C49.80699920654297,-185.65899658203125 32.981998443603516,-162.1959991455078 22.4950008392334,-157.177001953125 C17.881000518798828,-154.968994140625 14.826000213623047,-156.82899475097656 13.829999923706055,-161.7830047607422 C11.449999809265137,-173.6179962158203 19.62700080871582,-201.36900329589844 0,-219.3350067138672 C-19.35099983215332,-201.62100219726562 -11.673999786376953,-174.39500427246094 -13.736000061035156,-162.2899932861328 C-14.715999603271484,-156.53799438476562 -18.136999130249023,-154.60899353027344 -23.68199920654297,-157.80599975585938 C-34.23699951171875,-163.89100646972656 -50.78200149536133,-185.53399658203125 -76.22200012207031,-182.2760009765625 C-72.22799682617188,-151.5679931640625 -31.527000427246094,-135.94700622558594 -24.368999481201172,-118.88400268554688 C-22.743000030517578,-114.99500274658203 -21,-108.66699981689453 -24.1299991607666,-101.18800354003906"></path><g opacity="1" transform="matrix(1,0,0,1,0,0)"><g opacity="1" transform="matrix(1,0,0,1,0,0)"><g opacity="1" transform="matrix(1,0,0,1,0,0)"></g></g></g></g></g><g style="display: block;" transform="matrix(0.9636304378509521,-0.2672383785247803,0.2672383785247803,0.9636304378509521,256,256)" opacity="1"><g opacity="1" transform="matrix(1,0,0,1,0,0)"><path stroke-linecap="round" stroke-linejoin="round" fill-opacity="0" stroke="rgb(220,241,255)" stroke-opacity="1" stroke-width="8" d=" M-75.57,-71.49 C-83.61,-72.52 -88.22,-77.19 -90.77,-80.55 C-101.97,-95.28 -95.15,-138.34 -119.74,-157.15 C-135.88,-135.96 -123.97,-109.66 -124.87,-98.07 C-125.27,-92.97 -128.4,-91.25 -133.19,-92.87 C-144.63,-96.72 -164.58,-117.68 -189.95,-109.67 C-184.28,-84.05 -156.87,-77.09 -147.42,-69.25 C-142.92,-65.52 -142.96,-61.6 -148.51,-58.39 C-159.05,-52.3 -186.07,-48.79 -195.97,-25.13 C-167.38,-13.23 -133.5,-40.67 -115.14,-38.34 C-110.96,-37.8 -104.61,-36.15 -99.7,-29.7"></path><g opacity="1" transform="matrix(1,0,0,1,0,0)"><g opacity="1" transform="matrix(1,0,0,1,0,0)"><g opacity="1" transform="matrix(0.5,-0.8660253882408142,0.8660253882408142,0.5,0,0)"></g></g></g></g></g><g style="display: block;" transform="matrix(0.9636304378509521,-0.2672383785247803,0.2672383785247803,0.9636304378509521,256,256)" opacity="1"><g opacity="1" transform="matrix(1,0,0,1,0,0)"><path stroke-linecap="round" stroke-linejoin="round" fill-opacity="0" stroke="rgb(220,241,255)" stroke-opacity="1" stroke-width="8" d=" M99.7,-29.7 C104.61,-36.15 110.96,-37.8 115.14,-38.34 C133.5,-40.67 167.38,-13.23 195.97,-25.13 C185.69,-49.7 156.96,-52.53 147.37,-59.11 C143.15,-62 143.23,-65.57 147.02,-68.91 C156.08,-76.89 184.2,-83.69 189.95,-109.67 C164.93,-117.57 145.19,-97.31 133.68,-93.04 C128.21,-91.01 124.83,-93.01 124.82,-99.41 C124.82,-111.6 135.29,-136.75 119.74,-157.15 C95.15,-138.34 101.97,-95.28 90.77,-80.55 C88.22,-77.19 83.61,-72.52 75.57,-71.49"></path><g opacity="1" transform="matrix(1,0,0,1,0,0)"><g opacity="1" transform="matrix(1,0,0,1,0,0)"><g opacity="1" transform="matrix(0.5,0.8660253882408142,-0.8660253882408142,0.5,0,0)"></g></g></g></g></g><g style="display: block;" transform="matrix(0.9636304378509521,-0.2672383785247803,0.2672383785247803,0.9636304378509521,256,256)" opacity="1"><g opacity="1" transform="matrix(1,0,0,1,0,0)"><path stroke-linecap="round" stroke-linejoin="round" fill-opacity="0" stroke="rgb(220,241,255)" stroke-opacity="1" stroke-width="8" d=" M-99.7,29.7 C-104.61,36.15 -110.96,37.8 -115.14,38.34 C-133.5,40.67 -167.38,13.23 -195.97,25.13 C-185.69,49.7 -156.96,52.53 -147.37,59.11 C-143.15,62 -143.23,65.57 -147.02,68.91 C-156.08,76.89 -184.2,83.69 -189.95,109.67 C-164.93,117.57 -145.19,97.31 -133.68,93.04 C-128.21,91.01 -124.83,93.01 -124.82,99.41 C-124.82,111.6 -135.29,136.75 -119.74,157.15 C-95.15,138.34 -101.97,95.28 -90.77,80.55 C-88.22,77.19 -83.61,72.52 -75.57,71.49"></path><g opacity="1" transform="matrix(1,0,0,1,0,0)"><g opacity="1" transform="matrix(1,0,0,1,0,0)"><g opacity="1" transform="matrix(-0.5,-0.8660253882408142,0.8660253882408142,-0.5,0,0)"></g></g></g></g></g><g style="display: block;" transform="matrix(0.9636304378509521,-0.2672383785247803,0.2672383785247803,0.9636304378509521,256,256)" opacity="1"><g opacity="1" transform="matrix(1,0,0,1,0,0)"><path stroke-linecap="round" stroke-linejoin="round" fill-opacity="0" stroke="rgb(220,241,255)" stroke-opacity="1" stroke-width="8" d=" M75.57,71.49 C83.61,72.52 88.22,77.19 90.77,80.55 C101.97,95.28 95.15,138.34 119.74,157.15 C135.88,135.96 123.97,109.66 124.87,98.07 C125.27,92.97 128.4,91.25 133.19,92.87 C144.63,96.72 164.58,117.68 189.95,109.67 C184.28,84.05 156.87,77.09 147.42,69.25 C142.92,65.52 142.96,61.6 148.51,58.39 C159.05,52.3 186.07,48.79 195.97,25.13 C167.38,13.23 133.5,40.67 115.14,38.34 C110.96,37.8 104.61,36.15 99.7,29.7"></path><g opacity="1" transform="matrix(1,0,0,1,0,0)"><g opacity="1" transform="matrix(1,0,0,1,0,0)"><g opacity="1" transform="matrix(-0.5,0.8660253882408142,-0.8660253882408142,-0.5,0,0)"></g></g></g></g></g><g style="display: block;" transform="matrix(0.9636304378509521,-0.2672383785247803,0.2672383785247803,0.9636304378509521,256,256)" opacity="1"><g opacity="1" transform="matrix(1,0,0,1,0,0)"><path stroke-linecap="round" stroke-linejoin="round" fill-opacity="0" stroke="rgb(220,241,255)" stroke-opacity="1" stroke-width="8" d=" M-24.13,101.19 C-21,108.67 -22.74,115 -24.37,118.88 C-31.53,135.95 -72.23,151.57 -76.22,182.28 C-49.81,185.66 -32.98,162.2 -22.5,157.18 C-17.88,154.97 -14.83,156.83 -13.83,161.78 C-11.45,173.62 -19.63,201.37 0,219.34 C19.35,201.62 11.67,174.4 13.74,162.29 C14.72,156.54 18.14,154.61 23.68,157.81 C34.24,163.89 50.78,185.53 76.22,182.28 C72.23,151.57 31.53,135.95 24.37,118.88 C22.74,115 21,108.67 24.13,101.19"></path><g opacity="1" transform="matrix(1,0,0,1,0,0)"><g opacity="1" transform="matrix(1,0,0,1,0,0)"><g opacity="1" transform="matrix(-1,0,0,-1,0,0)"></g></g></g></g></g><g style="display: block;" transform="matrix(0.9636304378509521,-0.2672383785247803,0.2672383785247803,0.9636304378509521,256,256)" opacity="1"><g opacity="1" transform="matrix(1,0,0,1,0,0)"><path stroke-linecap="round" stroke-linejoin="round" fill-opacity="0" stroke-dasharray=" 10 8 2 10" stroke-dashoffset="0" stroke="rgb(255,255,255)" stroke-opacity="1" stroke-width="6" d=" M57.07400131225586,-174.43499755859375 C50.03499984741211,-171.6199951171875 42.62200164794922,-166.94700622558594 35.17399978637695,-160.5970001220703"></path><g opacity="1" transform="matrix(1,0,0,1,0,0)"><g opacity="1" transform="matrix(1,0,0,1,0,0)"><g opacity="1" transform="matrix(1,0,0,1,0,0)"></g></g></g></g></g><g style="display: block;" transform="matrix(0.9636304378509521,-0.2672383785247803,0.2672383785247803,0.9636304378509521,256,256)" opacity="1"><g opacity="1" transform="matrix(1,0,0,1,0,0)"><path stroke-linecap="round" stroke-linejoin="round" fill-opacity="0" stroke="rgb(0,219,255)" stroke-opacity="1" stroke-width="8" d=" M34.25400161743164,-59.32899856567383 C17.062000274658203,-69.25399780273438 24.229999542236328,-107.58399963378906 27.82699966430664,-116.18299865722656 C34.071998596191406,-131.06900024414062 84.60900115966797,-149.75900268554688 83.48799896240234,-187.88499450683594 C60.53499984741211,-194.63699340820312 37.172000885009766,-179.87100219726562 20.069000244140625,-163.00100708007812 C23.586000442504883,-202.73500061035156 14.09000015258789,-217.6790008544922 0,-228.41099548339844 C-14.09000015258789,-217.6790008544922 -23.586000442504883,-202.73500061035156 -20.069000244140625,-163.00100708007812 C-37.172000885009766,-179.87100219726562 -60.53499984741211,-194.63699340820312 -83.48799896240234,-187.88499450683594 C-84.60900115966797,-149.75900268554688 -34.071998596191406,-131.06900024414062 -27.82699966430664,-116.18299865722656 C-24.229999542236328,-107.58399963378906 -17.062999725341797,-69.25399780273438 -34.25400161743164,-59.32899856567383"></path><g opacity="1" transform="matrix(1,0,0,1,0,0)"><g opacity="1" transform="matrix(1,0,0,1,0,0)"><g opacity="1" transform="matrix(1,0,0,1,0,0)"></g></g></g></g></g><g style="display: block;" transform="matrix(0.9636304378509521,-0.2672383785247803,0.2672383785247803,0.9636304378509521,256,256)" opacity="1"><g opacity="1" transform="matrix(1,0,0,1,0,0)"><path stroke-linecap="round" stroke-linejoin="round" fill-opacity="0" stroke="rgb(0,219,255)" stroke-opacity="1" stroke-width="8" d=" M-34.25,-59.33 C-51.44,-49.4 -81.06,-74.78 -86.7,-82.19 C-96.47,-95.04 -87.39,-148.15 -120.97,-166.25 C-138.29,-149.74 -137.19,-122.13 -131.13,-98.88 C-163.78,-121.79 -181.47,-121.04 -197.81,-114.21 C-195.56,-96.64 -187.37,-80.94 -151.2,-64.12 C-174.36,-57.74 -198.83,-44.89 -204.46,-21.64 C-172,-1.61 -130.55,-36.03 -114.53,-33.99 C-105.29,-32.81 -68.51,-19.85 -68.51,0"></path><g opacity="1" transform="matrix(1,0,0,1,0,0)"><g opacity="1" transform="matrix(1,0,0,1,0,0)"><g opacity="1" transform="matrix(0.5,-0.8660253882408142,0.8660253882408142,0.5,0,0)"></g></g></g></g></g><g style="display: block;" transform="matrix(0.9636304378509521,-0.2672383785247803,0.2672383785247803,0.9636304378509521,256,256)" opacity="1"><g opacity="1" transform="matrix(1,0,0,1,0,0)"><path stroke-linecap="round" stroke-linejoin="round" fill-opacity="0" stroke="rgb(0,219,255)" stroke-opacity="1" stroke-width="8" d=" M68.51,0 C68.51,-19.85 105.29,-32.81 114.53,-33.99 C130.55,-36.03 172,-1.61 204.46,-21.64 C198.83,-44.89 174.36,-57.74 151.2,-64.12 C187.37,-80.94 195.56,-96.64 197.81,-114.21 C181.47,-121.04 163.78,-121.79 131.13,-98.88 C137.19,-122.13 138.29,-149.74 120.97,-166.25 C87.39,-148.15 96.47,-95.04 86.7,-82.19 C81.06,-74.78 51.44,-49.4 34.25,-59.33"></path><g opacity="1" transform="matrix(1,0,0,1,0,0)"><g opacity="1" transform="matrix(1,0,0,1,0,0)"><g opacity="1" transform="matrix(0.5,0.8660253882408142,-0.8660253882408142,0.5,0,0)"></g></g></g></g></g><g style="display: block;" transform="matrix(0.9636304378509521,-0.2672383785247803,0.2672383785247803,0.9636304378509521,256,256)" opacity="1"><g opacity="1" transform="matrix(1,0,0,1,0,0)"><path stroke-linecap="round" stroke-linejoin="round" fill-opacity="0" stroke="rgb(0,219,255)" stroke-opacity="1" stroke-width="8" d=" M-68.51,0 C-68.51,19.85 -105.29,32.81 -114.53,33.99 C-130.55,36.03 -172,1.61 -204.46,21.64 C-198.83,44.89 -174.36,57.74 -151.2,64.12 C-187.37,80.94 -195.56,96.64 -197.81,114.21 C-181.47,121.04 -163.78,121.79 -131.13,98.88 C-137.19,122.13 -138.29,149.74 -120.97,166.25 C-87.39,148.15 -96.47,95.04 -86.7,82.19 C-81.06,74.78 -51.44,49.4 -34.25,59.33"></path><g opacity="1" transform="matrix(1,0,0,1,0,0)"><g opacity="1" transform="matrix(1,0,0,1,0,0)"><g opacity="1" transform="matrix(-0.5,-0.8660253882408142,0.8660253882408142,-0.5,0,0)"></g></g></g></g></g><g style="display: block;" transform="matrix(0.9636304378509521,-0.2672383785247803,0.2672383785247803,0.9636304378509521,256,256)" opacity="1"><g opacity="1" transform="matrix(1,0,0,1,0,0)"><path stroke-linecap="round" stroke-linejoin="round" fill-opacity="0" stroke="rgb(0,219,255)" stroke-opacity="1" stroke-width="8" d=" M34.25,59.33 C51.44,49.4 81.06,74.78 86.7,82.19 C96.47,95.04 87.39,148.15 120.97,166.25 C138.29,149.74 137.19,122.13 131.13,98.88 C163.78,121.79 181.47,121.04 197.81,114.21 C195.56,96.64 187.37,80.94 151.2,64.12 C174.36,57.74 198.83,44.89 204.46,21.64 C172,1.61 130.55,36.03 114.53,33.99 C105.29,32.81 68.51,19.85 68.51,0"></path><g opacity="1" transform="matrix(1,0,0,1,0,0)"><g opacity="1" transform="matrix(1,0,0,1,0,0)"><g opacity="1" transform="matrix(-0.5,0.8660253882408142,-0.8660253882408142,-0.5,0,0)"></g></g></g></g></g><g style="display: block;" transform="matrix(0.9636304378509521,-0.2672383785247803,0.2672383785247803,0.9636304378509521,256,256)" opacity="1"><g opacity="1" transform="matrix(1,0,0,1,0,0)"><path stroke-linecap="round" stroke-linejoin="round" fill-opacity="0" stroke="rgb(0,219,255)" stroke-opacity="1" stroke-width="8" d=" M-34.25,59.33 C-17.06,69.25 -24.23,107.58 -27.83,116.18 C-34.07,131.07 -84.61,149.76 -83.49,187.88 C-60.53,194.64 -37.17,179.87 -20.07,163 C-23.59,202.74 -14.09,217.68 0,228.41 C14.09,217.68 23.59,202.74 20.07,163 C37.17,179.87 60.53,194.64 83.49,187.88 C84.61,149.76 34.07,131.07 27.83,116.18 C24.23,107.58 17.06,69.25 34.25,59.33"></path><g opacity="1" transform="matrix(1,0,0,1,0,0)"><g opacity="1" transform="matrix(1,0,0,1,0,0)"><g opacity="1" transform="matrix(-1,0,0,-1,0,0)"></g></g></g></g></g><g style="display: block;" transform="matrix(0.9636304378509521,-0.2672383785247803,0.2672383785247803,0.9636304378509521,256,256)" opacity="1"><g opacity="1" transform="matrix(1,0,0,1,0,0)"><path stroke-linecap="round" stroke-linejoin="round" fill-opacity="0" stroke="rgb(59,180,255)" stroke-opacity="1" stroke-width="8" d=" M-34.25400161743164,-59.32899856567383 C-17.062999725341797,-69.25399780273438 -24.229999542236328,-107.58399963378906 -27.82699966430664,-116.18299865722656 C-34.071998596191406,-131.06900024414062 -84.60900115966797,-149.75900268554688 -83.48799896240234,-187.88499450683594 C-83.48799896240234,-187.88499450683594 -83.48799896240234,-187.88499450683594 -83.48799896240234,-187.88499450683594 M34.25400161743164,-59.32899856567383 C17.062000274658203,-69.25399780273438 24.229999542236328,-107.58399963378906 27.82699966430664,-116.18299865722656 C34.071998596191406,-131.06900024414062 84.60900115966797,-149.75900268554688 83.48799896240234,-187.88499450683594 C83.48799896240234,-187.88499450683594 83.48799896240234,-187.88499450683594 83.48799896240234,-187.88499450683594"></path><g opacity="1" transform="matrix(1,0,0,1,0,0)"><g opacity="1" transform="matrix(1,0,0,1,0,0)"><g opacity="1" transform="matrix(1,0,0,1,0,0)"></g><g opacity="1" transform="matrix(1,0,0,1,0,0)"></g></g></g></g></g><g style="display: block;" transform="matrix(0.9636304378509521,-0.2672383785247803,0.2672383785247803,0.9636304378509521,256,256)" opacity="1"><g opacity="1" transform="matrix(1,0,0,1,0,0)"><path stroke-linecap="round" stroke-linejoin="round" fill-opacity="0" stroke="rgb(59,180,255)" stroke-opacity="1" stroke-width="8" d=" M-68.51,0 C-68.51,-19.85 -105.29,-32.81 -114.53,-33.99 C-130.55,-36.03 -172,-1.61 -204.46,-21.64 C-204.46,-21.64 -204.46,-21.64 -204.46,-21.64 M-151.81,-64.41 C-187.46,-81.12 -195.57,-96.74 -197.81,-114.21 C-197.81,-114.21 -197.81,-114.21 -197.81,-114.21"></path><g opacity="1" transform="matrix(1,0,0,1,0,0)"><g opacity="1" transform="matrix(1,0,0,1,0,0)"><g opacity="1" transform="matrix(0.5,-0.8660253882408142,0.8660253882408142,0.5,0,0)"></g><g opacity="1" transform="matrix(0.5,-0.8660253882408142,0.8660253882408142,0.5,0,0)"></g></g></g></g></g><g style="display: block;" transform="matrix(0.9636304378509521,-0.2672383785247803,0.2672383785247803,0.9636304378509521,256,256)" opacity="1"><g opacity="1" transform="matrix(1,0,0,1,0,0)"><path stroke-linecap="round" stroke-linejoin="round" fill-opacity="0" stroke="rgb(59,180,255)" stroke-opacity="1" stroke-width="8" d=" M68.51,0 C68.51,-19.85 105.29,-32.81 114.53,-33.99 C130.55,-36.03 172,-1.61 204.46,-21.64 C204.46,-21.64 204.46,-21.64 204.46,-21.64 M151.81,-64.41 C187.46,-81.12 195.57,-96.74 197.81,-114.21 C197.81,-114.21 197.81,-114.21 197.81,-114.21 M34.25,-59.33 C50.81,-49.77 78.9,-72.96 85.99,-81.3"></path><g opacity="1" transform="matrix(1,0,0,1,0,0)"><g opacity="1" transform="matrix(1,0,0,1,0,0)"><g opacity="1" transform="matrix(0.5,0.8660253882408142,-0.8660253882408142,0.5,0,0)"></g><g opacity="1" transform="matrix(0.5,0.8660253882408142,-0.8660253882408142,0.5,0,0)"></g><g opacity="1" transform="matrix(0.5,0.8660253882408142,-0.8660253882408142,0.5,0,0)"></g></g></g></g></g><g style="display: block;" transform="matrix(0.9636304378509521,-0.2672383785247803,0.2672383785247803,0.9636304378509521,256,256)" opacity="1"><g opacity="1" transform="matrix(1,0,0,1,0,0)"><path stroke-linecap="round" stroke-linejoin="round" fill-opacity="0" stroke="rgb(59,180,255)" stroke-opacity="1" stroke-width="8" d=" M-34.25,59.33 C-51.44,49.4 -81.06,74.78 -86.7,82.19 C-96.47,95.04 -87.39,148.15 -120.97,166.25 C-138.29,149.74 -137.19,122.13 -131.13,98.88 C-163.78,121.79 -181.47,121.04 -197.81,114.21 C-197.81,114.21 -197.81,114.21 -197.81,114.21 M-152.16,63.85 C-175.02,57.39 -198.88,44.59 -204.45,21.68"></path><g opacity="1" transform="matrix(1,0,0,1,0,0)"><g opacity="1" transform="matrix(1,0,0,1,0,0)"><g opacity="1" transform="matrix(-0.5,-0.8660253882408142,0.8660253882408142,-0.5,0,0)"></g><g opacity="1" transform="matrix(-0.5,-0.8660253882408142,0.8660253882408142,-0.5,0,0)"></g></g></g></g></g><g style="display: block;" transform="matrix(0.9636304378509521,-0.2672383785247803,0.2672383785247803,0.9636304378509521,256,256)" opacity="1"><g opacity="1" transform="matrix(1,0,0,1,0,0)"><path stroke-linecap="round" stroke-linejoin="round" fill-opacity="0" stroke="rgb(59,180,255)" stroke-opacity="1" stroke-width="8" d=" M34.25,59.33 C51.44,49.4 81.06,74.78 86.7,82.19 C96.47,95.04 87.39,148.15 120.97,166.25 C138.29,149.74 137.19,122.13 131.13,98.88 C163.78,121.79 181.47,121.04 197.81,114.21 M151.81,64.41 C151.61,64.31 151.4,64.22 151.2,64.12 C174.19,57.79 198.47,45.08 204.33,22.14"></path><g opacity="1" transform="matrix(1,0,0,1,0,0)"><g opacity="1" transform="matrix(1,0,0,1,0,0)"><g opacity="1" transform="matrix(-0.5,0.8660253882408142,-0.8660253882408142,-0.5,0,0)"></g><g opacity="1" transform="matrix(-0.5,0.8660253882408142,-0.8660253882408142,-0.5,0,0)"></g></g></g></g></g><g style="display: block;" transform="matrix(0.9636304378509521,-0.2672383785247803,0.2672383785247803,0.9636304378509521,256,256)" opacity="1"><g opacity="1" transform="matrix(1,0,0,1,0,0)"><path stroke-linecap="round" stroke-linejoin="round" fill-opacity="0" stroke="rgb(59,180,255)" stroke-opacity="1" stroke-width="8" d=" M-34.25,59.33 C-17.69,68.89 -23.74,104.81 -27.42,115.12 M34.25,59.33 C17.69,68.89 23.74,104.81 27.42,115.12 M-82.7,188.11 C-60,194.3 -36.98,179.68 -20.07,163 C-23.59,202.74 -14.09,217.68 0,228.41 C14.09,217.68 23.59,202.74 20.07,163 C37.17,179.87 60.53,194.64 83.49,187.88 C83.49,187.88 83.49,187.88 83.49,187.88"></path><g opacity="1" transform="matrix(1,0,0,1,0,0)"><g opacity="1" transform="matrix(1,0,0,1,0,0)"><g opacity="1" transform="matrix(-1,0,0,-1,0,0)"></g><g opacity="1" transform="matrix(-1,0,0,-1,0,0)"></g><g opacity="1" transform="matrix(-1,0,0,-1,0,0)"></g></g></g></g></g></g></svg>