<svg xmlns="http://www.w3.org/2000/svg" viewBox="0 0 512 512" width="512" height="512" style="width: 100%; height: 100%; transform: translate3d(0,0,0);" preserveAspectRatio="xMidYMid meet"><defs><clipPath id="__lottie_element_9581"><rect width="512" height="512" x="0" y="0"></rect></clipPath></defs><g clip-path="url(#__lottie_element_9581)"><g style="display: block;" transform="matrix(1.350000023841858,0,0,1.350000023841858,253.16000366210938,266.6479797363281)" opacity="1"><g opacity="1" transform="matrix(1,0,0,1,0,0)"><path fill="rgb(255,177,57)" fill-opacity="1" d=" M17.5,6.5 C17.5,6.5 31,41.5 26,81.5 C20.940000534057617,121.97699737548828 65.5,110 65.5,110 C65.5,110 86,12 86,12 C86,12 17.5,6.5 17.5,6.5z"></path><path stroke-linecap="round" stroke-linejoin="round" fill-opacity="0" stroke="rgb(247,126,65)" stroke-opacity="1" stroke-width="8" d=" M17.5,6.5 C17.5,6.5 31,41.5 26,81.5 C20.940000534057617,121.97699737548828 65.5,110 65.5,110 C65.5,110 86,12 86,12 C86,12 17.5,6.5 17.5,6.5z"></path></g></g><g style="display: block;" transform="matrix(1.0800000429153442,0,0,1.0800000429153442,253.15972900390625,266.6488037109375)" opacity="1"><g opacity="1" transform="matrix(1,0,0,1,0,0)"><path fill="rgb(255,177,57)" fill-opacity="1" d=" M11.010000228881836,-141.0019989013672 C11.010000228881836,-141.0019989013672 61.465999603271484,-97.44200134277344 77.02999877929688,-76.20999908447266 C92.59400177001953,-54.97800064086914 49.31999969482422,-18.63599967956543 17.41699981689453,-50.111000061035156 C-14.486000061035156,-81.58599853515625 -20.559999465942383,-92.65299987792969 -23.53700065612793,-106.40399932861328 C-26.513999938964844,-120.15499877929688 -14.248000144958496,-159.01800537109375 11.010000228881836,-141.0019989013672z"></path></g><g opacity="1" transform="matrix(1,0,0,1,0,0)"><path stroke-linecap="round" stroke-linejoin="round" fill-opacity="0" stroke="rgb(247,126,65)" stroke-opacity="1" stroke-width="8" d=" M75.57099914550781,-78.14800262451172 C75.57099914550781,-78.14800262451172 25.100000381469727,-133.1510009765625 13.531000137329102,-139.1959991455078"></path></g><g opacity="1" transform="matrix(1,0,0,1,0,0)"><path stroke-linecap="round" stroke-linejoin="round" fill-opacity="0" stroke="rgb(247,126,65)" stroke-opacity="1" stroke-width="8" d=" M-23.58799934387207,-98.13099670410156 C-13.98900032043457,-89.06600189208984 -7.326000213623047,-73.33100128173828 19.33799934387207,-48.28799819946289"></path></g></g><g style="display: block;" transform="matrix(1.0800000429153442,0,0,1.0800000429153442,253.15972900390625,266.6488037109375)" opacity="1"><g opacity="1" transform="matrix(1,0,0,1,0,0)"><path fill="rgb(255,177,57)" fill-opacity="1" d=" M13.531000137329102,-139.1959991455078 C13.531000137329102,-139.1959991455078 -28.261999130249023,-169.49400329589844 -43.04800033569336,-173.49899291992188 C-57.83399963378906,-177.50399780273438 -66.65599822998047,-167.94000244140625 -67.95999908447266,-152.8249969482422 C-69.26399993896484,-137.7100067138672 -55.112998962402344,-122.11299896240234 -41.34000015258789,-112.322998046875 C-27.566999435424805,-102.53299713134766 -23.58799934387207,-98.13099670410156 -23.58799934387207,-98.13099670410156 C-23.58799934387207,-98.13099670410156 17.999000549316406,-101.98699951171875 13.531000137329102,-139.1959991455078z"></path></g><g opacity="1" transform="matrix(1,0,0,1,0,0)"><path fill="rgb(255,209,64)" fill-opacity="1" d=" M13.618000030517578,-129.32400512695312 C3.0850000381469727,-139.11900329589844 -23.20199966430664,-155.61500549316406 -36.000999450683594,-158.5590057373047 C-68.0459976196289,-165.92999267578125 -60.54199981689453,-131.8350067138672 -60.36199951171875,-130.6750030517578 C-65.43199920654297,-137.65499877929688 -68.61199951171875,-145.3040008544922 -67.96199798583984,-152.82400512695312 C-66.6520004272461,-167.9340057373047 -57.832000732421875,-177.5050048828125 -43.051998138427734,-173.4949951171875 C-28.261999130249023,-169.4949951171875 13.527999877929688,-139.19400024414062 13.527999877929688,-139.19400024414062 C13.958000183105469,-135.60400390625 13.958000183105469,-132.32400512695312 13.618000030517578,-129.32400512695312z"></path></g><g opacity="1" transform="matrix(1,0,0,1,0,0)"><path stroke-linecap="round" stroke-linejoin="round" fill-opacity="0" stroke="rgb(247,126,65)" stroke-opacity="1" stroke-width="8" d=" M13.531000137329102,-139.1959991455078 C13.531000137329102,-139.1959991455078 -28.261999130249023,-169.49400329589844 -43.04800033569336,-173.49899291992188 C-57.83399963378906,-177.50399780273438 -66.65599822998047,-167.94000244140625 -67.95999908447266,-152.8249969482422 C-69.26399993896484,-137.7100067138672 -55.112998962402344,-122.11299896240234 -41.34000015258789,-112.322998046875 C-27.566999435424805,-102.53299713134766 -23.58799934387207,-98.13099670410156 -23.58799934387207,-98.13099670410156"></path></g></g><g style="display: block;" transform="matrix(1.0800000429153442,0,0,1.0800000429153442,253.16026306152344,266.6479797363281)" opacity="1"><g opacity="1" transform="matrix(1,0,0,1,0,0)"><path fill="rgb(255,209,64)" fill-opacity="1" d=" M105.94200134277344,-99.84400177001953 C105.94200134277344,-99.84400177001953 86.65599822998047,-112.44499969482422 63.51300048828125,-101.9020004272461 C40.369998931884766,-91.35900115966797 44.93600082397461,-74.2020034790039 46.744998931884766,-68.8010025024414 C48.55400085449219,-63.400001525878906 60.16999816894531,-11.336999893188477 63.51300048828125,-8.019000053405762 C66.85600280761719,-4.701000213623047 132.427001953125,19.26300048828125 133.45599365234375,-8.019000053405762 C134.48500061035156,-35.30099868774414 105.94200134277344,-99.84400177001953 105.94200134277344,-99.84400177001953z"></path></g></g><g style="display: block;" transform="matrix(1.0800000429153442,0,0,1.0800000429153442,253.16026306152344,266.6479797363281)" opacity="1"><g opacity="1" transform="matrix(1,0,0,1,0,0)"><path fill="rgb(255,209,64)" fill-opacity="1" d=" M47.03300094604492,-178.28700256347656 C47.03300094604492,-178.28700256347656 92.69400024414062,-125.74600219726562 105.61799621582031,-101.48100280761719 C118.54199981689453,-77.21600341796875 68.39800262451172,-46.10100173950195 40.112998962402344,-83.38700103759766 C11.82800006866455,-120.6729965209961 7.198999881744385,-133.01600646972656 6.170000076293945,-147.67300415039062 C5.140999794006348,-162.3300018310547 23.610000610351562,-200.6719970703125 47.03300094604492,-178.28700256347656z"></path></g></g><g style="display: block;" transform="matrix(1.0800000429153442,0,0,1.0800000429153442,253.16026306152344,266.6479797363281)" opacity="1"><g opacity="1" transform="matrix(1,0,0,1,0,0)"><path fill="rgb(255,209,64)" fill-opacity="1" d=" M48.191001892089844,-177.17999267578125 C48.191001892089844,-177.17999267578125 10.687000274658203,-213.58700561523438 -4,-219.92999267578125 C-18.687000274658203,-226.2729949951172 -29.229999542236328,-217.70199584960938 -32.83000183105469,-202.2729949951172 C-36.43000030517578,-186.843994140625 -24.12700080871582,-168.61599731445312 -11.350000381469727,-156.44500732421875 C1.4270000457763672,-144.2740020751953 4.885000228881836,-139.1300048828125 4.885000228881836,-139.1300048828125 C4.885000228881836,-139.1300048828125 43.37200164794922,-137.4080047607422 48.191001892089844,-177.17999267578125z"></path></g></g><g style="display: block;" transform="matrix(1.0800000429153442,0,0,1.0800000429153442,253.16026306152344,266.6479797363281)" opacity="1"><g opacity="1" transform="matrix(1,0,0,1,0,0)"><path fill="rgb(255,223,121)" fill-opacity="1" d=" M121.64800262451172,-59.71500015258789 C121.60800170898438,-57.974998474121094 122.14900207519531,-56.138999938964844 121.50800323486328,-54.584999084472656 C111.08499908447266,-29.302000045776367 97.71299743652344,-84.5009994506836 89.31099700927734,-99.58699798583984 C83.6510009765625,-109.7490005493164 48.987998962402344,-153.5749969482422 43.46799850463867,-160.86500549316406 C37.178001403808594,-169.18499755859375 11.468000411987305,-191.96499633789062 3.8380000591278076,-197.98500061035156 C-23.52199935913086,-219.5850067138672 -33.152000427246094,-192.46499633789062 -33.152000427246094,-192.46499633789062 C-33.1619987487793,-192.47500610351562 -33.1619987487793,-192.47500610351562 -33.172000885009766,-192.47500610351562 C-33.641998291015625,-195.80499267578125 -33.571998596191406,-199.10499572753906 -32.832000732421875,-202.27499389648438 C-29.23200035095215,-217.7050018310547 -18.68199920654297,-226.27499389648438 -4.001999855041504,-219.93499755859375 C9.07800006866455,-214.27499389648438 40.257999420166016,-184.78500366210938 46.917999267578125,-178.40499877929688 C46.95800018310547,-178.36500549316406 46.99800109863281,-178.3249969482422 47.03799819946289,-178.28500366210938 C47.77799987792969,-177.5749969482422 48.1879997253418,-177.18499755859375 48.1879997253418,-177.18499755859375 C48.178001403808594,-177.11500549316406 48.167999267578125,-177.0449981689453 48.15800094604492,-176.98500061035156 C55.24800109863281,-168.76499938964844 93.89800262451172,-123.48500061035156 105.61799621582031,-101.48500061035156 C106.50800323486328,-99.81500244140625 107.0979995727539,-98.11499786376953 107.41799926757812,-96.41500091552734 C107.41799926757812,-96.40499877929688 107.41799926757812,-96.40499877929688 107.41799926757812,-96.40499877929688 C110.12799835205078,-90.05500030517578 116.10800170898438,-75.66500091552734 121.64800262451172,-59.71500015258789z"></path></g><g opacity="1" transform="matrix(1,0,0,1,0,0)"><path fill="rgb(255,177,57)" fill-opacity="1" d=" M63.22800064086914,-8.383999824523926 C59.54800033569336,-14.093999862670898 48.507999420166016,-63.53499984741211 46.74800109863281,-68.80500030517578 C46.13800048828125,-70.63500213623047 45.198001861572266,-73.83499908447266 45.13800048828125,-77.67500305175781 C43.39799880981445,-79.36499786376953 41.72800064086914,-81.26399993896484 40.11800003051758,-83.38400268554688 C17.33799934387207,-113.40399932861328 9.89799976348877,-127.25499725341797 7.328000068664551,-139.1649932861328 C5.788000106811523,-139.09500122070312 4.888000011444092,-139.13400268554688 4.888000011444092,-139.13400268554688 C4.888000011444092,-139.13400268554688 1.4279999732971191,-144.2740020751953 -11.35200023651123,-156.44400024414062 C-24.121999740600586,-168.61399841308594 -36.43199920654297,-186.84500122070312 -32.832000732421875,-202.27499389648438 C-31.16200065612793,-209.44500732421875 -27.992000579833984,-215.12399291992188 -23.601999282836914,-218.51400756835938 C-23.892000198364258,-217.81399536132812 -33.400001525878906,-196.4010009765625 -8.741999626159668,-174.4149932861328 C25.714000701904297,-143.6929931640625 32.797000885009766,-115.47200012207031 52.86800003051758,-93.09500122070312 C67.1709976196289,-77.14900207519531 69.94200134277344,-44.04499816894531 97.51799774169922,-12.475000381469727 C109.03199768066406,0.7070000171661377 84.83799743652344,1.5759999752044678 63.22800064086914,-8.383999824523926z"></path></g></g><g style="display: block;" transform="matrix(1.0800000429153442,0,0,1.0800000429153442,253.16000366210938,266.6479797363281)" opacity="1"><g opacity="1" transform="matrix(1,0,0,1,0,0)"><path fill="rgb(255,209,64)" fill-opacity="1" d=" M133.45599365234375,-5.4670000076293945 C137.17799377441406,17.139999389648438 141.74200439453125,64.94499969482422 139.0279998779297,79.55500030517578 C134.74200439453125,102.63099670410156 118.28399658203125,148.98399353027344 108.16999816894531,165.27000427246094 C98.05599975585938,181.55599975585938 71.31300354003906,198.01199340820312 52.970001220703125,203.4980010986328 C34.62699890136719,208.98399353027344 -9.60099983215332,215.32699584960938 -37.20100021362305,205.8979949951172 C-64.8010025024414,196.468994140625 -90.0009994506836,170.24099731445312 -103.62699890136719,155.4980010986328 C-117.25299835205078,140.7550048828125 -131.48699951171875,114.3550033569336 -131.48699951171875,114.3550033569336 C-131.48699951171875,114.3550033569336 -110.74400329589844,74.927001953125 -69.60099792480469,94.47000122070312 C-69.60099792480469,94.47000122070312 -47.316001892089844,112.0770034790039 -32.22999954223633,112.35900115966797 C-17.143999099731445,112.64099884033203 12.539999961853027,95.01100158691406 20.840999603271484,84.6259994506836 C29.142000198364258,74.24099731445312 34.7130012512207,47.38199996948242 24.89900016784668,25.496999740600586 C15.085000038146973,3.611999988555908 123.24400329589844,-67.49500274658203 133.45599365234375,-5.4670000076293945z"></path></g></g><g style="display: block;" transform="matrix(1.0800000429153442,0,0,1.0800000429153442,253.16026306152344,266.6479797363281)" opacity="1"><g opacity="1" transform="matrix(1,0,0,1,0,0)"><path stroke-linecap="round" stroke-linejoin="round" fill-opacity="0" stroke="rgb(247,126,65)" stroke-opacity="1" stroke-width="8" d=" M133.45599365234375,-5.4670000076293945 C133.45599365234375,-5.4670000076293945 117.60600280761719,-82.86799621582031 104.39900207519531,-103.7020034790039"></path></g><g opacity="1" transform="matrix(1,0,0,1,0,0)"><path stroke-linecap="round" stroke-linejoin="round" fill-opacity="0" stroke="rgb(247,126,65)" stroke-opacity="1" stroke-width="8" d=" M41.827999114990234,-81.21600341796875 C47.2859992980957,-70.15499877929688 55.444000244140625,-41.08000183105469 61.19900131225586,-19.70199966430664"></path></g></g><g style="display: block;" transform="matrix(1.0800000429153442,0,0,1.0800000429153442,253.16026306152344,266.6479797363281)" opacity="1"><g opacity="1" transform="matrix(1,0,0,1,0,0)"><path stroke-linecap="round" stroke-linejoin="round" fill-opacity="0" stroke="rgb(247,126,65)" stroke-opacity="1" stroke-width="8" d=" M104.39900207519531,-103.7020034790039 C104.39900207519531,-103.7020034790039 60.426998138427734,-168.07400512695312 49.369998931884766,-176.0449981689453"></path></g><g opacity="1" transform="matrix(1,0,0,1,0,0)"><path stroke-linecap="round" stroke-linejoin="round" fill-opacity="0" stroke="rgb(247,126,65)" stroke-opacity="1" stroke-width="8" d=" M4.885000228881836,-139.1300048828125 C13.456000328063965,-128.3300018310547 17.999000549316406,-111.072998046875 41.827999114990234,-81.21600341796875"></path></g></g><g style="display: block;" transform="matrix(1.0800000429153442,0,0,1.0800000429153442,253.16026306152344,266.6479797363281)" opacity="1"><g opacity="1" transform="matrix(1,0,0,1,0,0)"><path stroke-linecap="round" stroke-linejoin="round" fill-opacity="0" stroke="rgb(247,126,65)" stroke-opacity="1" stroke-width="8" d=" M49.369998931884766,-176.0449981689453 C49.369998931884766,-176.0449981689453 10.687000274658203,-213.58700561523438 -4,-219.92999267578125 C-18.687000274658203,-226.2729949951172 -29.229999542236328,-217.70199584960938 -32.83000183105469,-202.2729949951172 C-36.43000030517578,-186.843994140625 -24.12700080871582,-168.61599731445312 -11.350000381469727,-156.44500732421875 C1.4270000457763672,-144.2740020751953 4.885000228881836,-139.1300048828125 4.885000228881836,-139.1300048828125"></path></g><g opacity="1" transform="matrix(1,0,0,1,0,0)"><g opacity="1" transform="matrix(1,0,0,1,0,0)"><path stroke-linecap="round" stroke-linejoin="round" fill-opacity="0" stroke="rgb(255,255,255)" stroke-opacity="1" stroke-width="6" d=" M7.136000156402588,-196.16900634765625 C10.145000457763672,-193.55499267578125 13.562999725341797,-190.2259979248047 17.402999877929688,-185.98800659179688"></path></g><g opacity="1" transform="matrix(1,0,0,1,0,0)"><path stroke-linecap="round" stroke-linejoin="round" fill-opacity="0" stroke="rgb(255,255,255)" stroke-opacity="1" stroke-width="6" d=" M-10.145999908447266,-205.68299865722656 C-10.145999908447266,-205.68299865722656 -7.9730000495910645,-205.96200561523438 -3.443000078201294,-203.63999938964844"></path></g></g></g><g style="display: block;" transform="matrix(1.0800000429153442,0,0,1.0800000429153442,253.16000366210938,266.6479797363281)" opacity="1"><g opacity="1" transform="matrix(1,0,0,1,0,0)"><path fill="rgb(255,209,64)" fill-opacity="1" d=" M-51.505001068115234,-1.1790000200271606 C-77.90499877929688,30.878000259399414 -121.85600280761719,38.29800033569336 -128.9149932861328,17.32699966430664 C-134.74400329589844,0.013000000268220901 -116.05799865722656,-13.70199966430664 -102.85800170898438,-29.81599998474121 C-89.65799713134766,-45.93000030517578 -71.87200164794922,-53.816001892089844 -71.87200164794922,-53.816001892089844 C-71.87200164794922,-53.816001892089844 -57.47200012207031,-51.24399948120117 -50.4010009765625,-33.93000030517578 C-41.915000915527344,-13.152999877929688 -51.505001068115234,-1.1790000200271606 -51.505001068115234,-1.1790000200271606z"></path></g></g><g style="display: block;" transform="matrix(1.0800000429153442,0,0,1.0800000429153442,253.16000366210938,266.6479797363281)" opacity="1"><g opacity="1" transform="matrix(1,0,0,1,0,0)"><path fill="rgb(255,209,64)" fill-opacity="1" d=" M103.5009994506836,-7.329999923706055 C103.5009994506836,-7.329999923706055 93.37200164794922,55.57699966430664 24.89900016784668,25.496999740600586 C24.89900016784668,25.496999740600586 4.284999847412109,1.6059999465942383 -3.257999897003174,-8.019000053405762 C-10.800999641418457,-17.643999099731445 -5.269000053405762,-78.59500122070312 20.736000061035156,-70.39700317382812 C48.31800079345703,-61.70199966430664 103.5009994506836,-7.329999923706055 103.5009994506836,-7.329999923706055z"></path></g></g><g style="display: block;" transform="matrix(1.0800000429153442,0,0,1.0800000429153442,253.16000366210938,266.6479797363281)" opacity="1"><g opacity="1" transform="matrix(1,0,0,1,0,0)"><path fill="rgb(255,209,64)" fill-opacity="1" d=" M-71.7699966430664,-55.59600067138672 C-71.7699966430664,-55.59600067138672 -29.676000595092773,-77.51300048828125 13.866999626159668,-70.96199798583984 C13.866999626159668,-70.96199798583984 31.198999404907227,-52.27299880981445 21.084999084472656,-31.530000686645508 C10.970999717712402,-10.786999702453613 -4,-6.501999855041504 -4,-6.501999855041504 C-4,-6.501999855041504 -29.315000534057617,-9.784000396728516 -50.4010009765625,-2.9140000343322754 C-71.48699951171875,3.9560000896453857 -98.96700286865234,-31.833999633789062 -71.7699966430664,-55.59600067138672z"></path></g></g><g style="display: block;" transform="matrix(1.0800000429153442,0,0,1.0800000429153442,253.16000366210938,266.6479797363281)" opacity="1"><g opacity="1" transform="matrix(1,0,0,1,0,0)"><path fill="rgb(255,223,121)" fill-opacity="1" d=" M-83.13300323486328,-47.38199996948242 C-119.31500244140625,-12.475000381469727 -61.71500015258789,-71.15299987792969 12.085000038146973,-59.215999603271484 C25.898000717163086,-56.981998443603516 62.61800003051758,-27.240999221801758 87.94200134277344,-0.1080000028014183 C94.7300033569336,7.164999961853027 97.9219970703125,10.663999557495117 104.71199798583984,18.966999053955078 C117.66400146484375,34.80400085449219 118.38899993896484,38.071998596191406 121.51300048828125,40.869998931884766 C123.5790023803711,42.720001220703125 127.99199676513672,42.888999938964844 127.02799987792969,33.643001556396484 C124.29199981689453,7.4070000648498535 68.91400146484375,-44.04499816894531 24.253999710083008,-68.98799896240234 C14.295000076293945,-74.55000305175781 4.480999946594238,-73.39399719238281 -4,-73.38600158691406 C-48.65700149536133,-73.34500122070312 -79.7020034790039,-50.69300079345703 -83.13300323486328,-47.38199996948242z"></path></g><g opacity="1" transform="matrix(1,0,0,1,0,0)"><path fill="rgb(255,177,57)" fill-opacity="1" d=" M46.00400161743164,78.38400268554688 C40.933998107910156,110.3239974975586 -19.368000030517578,133.55599975585938 -50.4010009765625,106.71700286865234 C-49.23099899291992,106.91699981689453 -33.34199905395508,112.33499908447266 -32.231998443603516,112.3550033569336 C-17.142000198364258,112.6449966430664 12.538000106811523,95.01499938964844 20.83799934387207,84.625 C29.13800048828125,74.24500274658203 34.71799850463867,47.38600158691406 24.898000717163086,25.496000289916992 C24.898000717163086,25.496000289916992 24.88800048828125,25.485000610351562 24.88800048828125,25.475000381469727 C24.277999877929688,24.774999618530273 5.447999954223633,2.934999942779541 -2.502000093460083,-7.054999828338623 C-3.4619998931884766,-6.664999961853027 -4.001999855041504,-6.504000186920166 -4.001999855041504,-6.504000186920166 C-4.001999855041504,-6.504000186920166 -29.312000274658203,-9.78499984741211 -50.402000427246094,-2.9149999618530273 C-51.59199905395508,-2.5250000953674316 -52.801998138427734,-2.2750000953674316 -54.02199935913086,-2.1549999713897705 C-54.09199905395508,-2.0950000286102295 -54.13199996948242,-2.055000066757202 -54.13199996948242,-2.055000066757202 C-80.53199768066406,30.0049991607666 -121.85199737548828,38.29499816894531 -128.91200256347656,17.325000762939453 C-131.2220001220703,10.454999923706055 -129.6820068359375,4.156000137329102 -126.1520004272461,-1.9539999961853027 C-126.13200378417969,-1.9839999675750732 -126.10199737548828,-2.0250000953674316 -126.08200073242188,-2.055000066757202 C-126.08200073242188,-2.055000066757202 -119.7020034790039,19.514999389648438 -93.11199951171875,4.875 C-83.97200012207031,-0.1550000011920929 -78.052001953125,-5.034999847412109 -72.60199737548828,-9.335000038146973 C-65.48200225830078,-14.96500015258789 -59.1619987487793,-19.614999771118164 -47.512001037597656,-22.354999542236328 C-42.11199951171875,-23.625 -35.5620002746582,-24.485000610351562 -27.25200080871582,-24.844999313354492 C-18.242000579833984,-25.235000610351562 -11.541999816894531,-25.30500030517578 -6.3520002365112305,-24.975000381469727 C3.4179999828338623,-24.344999313354492 7.808000087738037,-22.253999710083008 12.157999992370605,-18.013999938964844 C15.718000411987305,-14.543999671936035 19.257999420166016,-9.635000228881836 25.718000411987305,-2.9049999713897705 C28.558000564575195,0.054999999701976776 31.187999725341797,2.815999984741211 33.5880012512207,5.495999813079834 C41.347999572753906,14.166000366210938 46.64799880981445,21.94499969482422 48.737998962402344,32.85499954223633 C50.20800018310547,40.48500061035156 47.92399978637695,66.31400299072266 46.00400161743164,78.38400268554688z"></path></g></g><g style="display: block;" transform="matrix(1.0800000429153442,0,0,1.0800000429153442,253.16000366210938,266.6479797363281)" opacity="1"><g opacity="1" transform="matrix(1,0,0,1,0,0)"><path stroke-linecap="round" stroke-linejoin="round" fill-opacity="0" stroke="rgb(247,126,65)" stroke-opacity="1" stroke-width="8" d=" M-70.97200012207031,-56.04499816894531 C-70.97200012207031,-56.04499816894531 -89.65799713134766,-45.93000030517578 -102.85800170898438,-29.81599998474121 C-116.05799865722656,-13.70199966430664 -134.74400329589844,0.013000000268220901 -128.9149932861328,17.32699966430664 C-121.85600280761719,38.29800033569336 -76.8010025024414,29.14299964904785 -50.4010009765625,-2.9140000343322754"></path></g></g><g style="display: block;" transform="matrix(1.0800000429153442,0,0,1.0800000429153442,253.16000366210938,266.6479797363281)" opacity="1"><g opacity="1" transform="matrix(1,0,0,1,0,0)"><path fill="rgb(255,209,64)" fill-opacity="1" d=" M-69.60099792480469,94.47000122070312 C-69.60099792480469,94.47000122070312 -74.31500244140625,54.183998107910156 -92.91500091552734,35.840999603271484 C-107.7760009765625,21.184999465942383 -136.12600708007812,18.091999053955078 -137.1439971923828,38.58399963378906 C-139,75.95500183105469 -135.42300415039062,99.93800354003906 -132.343994140625,111.2699966430664 C-132.343994140625,111.2699966430664 -98.5719985961914,130.1269989013672 -69.60099792480469,94.47000122070312z"></path></g></g><g style="display: block;" transform="matrix(1.0800000429153442,0,0,1.0800000429153442,253.16000366210938,266.6479797363281)" opacity="1"><g opacity="1" transform="matrix(1,0,0,1,0,0)"><path fill="rgb(255,223,121)" fill-opacity="1" d=" M-111.00399780273438,25.62299919128418 C-111.00399780273438,25.62299919128418 -119.1520004272461,27.684999465942383 -111.4010009765625,52.64099884033203 C-103.62799835205078,77.66999816894531 -77.83000183105469,109.55500030517578 -72.60099792480469,90.22000122070312 C-65.7239990234375,64.79000091552734 -91.72200012207031,26.033000946044922 -111.00399780273438,25.62299919128418z"></path></g><g opacity="1" transform="matrix(1,0,0,1,0,0)"><path fill="rgb(255,177,57)" fill-opacity="1" d=" M139.0279998779297,79.55599975585938 C134.73800659179688,102.63600158691406 118.28800201416016,148.98500061035156 108.16799926757812,165.26499938964844 C98.05799865722656,181.55499267578125 71.31800079345703,198.01600646972656 52.96799850463867,203.49600219726562 C34.62799835205078,208.98599243164062 -9.60200023651123,215.3249969482422 -37.20199966430664,205.89500427246094 C-64.802001953125,196.46499633789062 -90.00199890136719,170.24600219726562 -103.63200378417969,155.49600219726562 C-117.25199890136719,140.75599670410156 -131.48199462890625,114.3550033569336 -131.48199462890625,114.3550033569336 C-131.48199462890625,114.3550033569336 -132.3419952392578,111.26499938964844 -132.3419952392578,111.26499938964844 C-135.4219970703125,99.93499755859375 -139.0019989013672,75.95500183105469 -137.14199829101562,38.584999084472656 C-136.71200561523438,29.895000457763672 -139.625,29 -129.58700561523438,23.950000762939453 C-119.625,21.625 -115.83599853515625,24.902999877929688 -114.74600219726562,25.62299919128418 C-114.74600219726562,25.62299919128418 -115.02400207519531,25.618999481201172 -115.48699951171875,25.746000289916992 C-117.93299865722656,26.41900062561035 -125.53800201416016,30.743999481201172 -124.45800018310547,58.55500030517578 C-123.77200317382812,76.21199798583984 -123.60099792480469,90.22100067138672 -111.09200286865234,116.24600219726562 C-111.08200073242188,116.24600219726562 -111.08200073242188,116.25499725341797 -111.08200073242188,116.25499725341797 C-99.26200103759766,138.52499389648438 -63.090999603271484,178.38099670410156 -25.972000122070312,182.09500122070312 C28.027999877929688,187.4980010986328 67.37100219726562,176.06900024414062 96.30799865722656,149.84500122070312 C115.53500366210938,132.42100524902344 136.2779998779297,85.07599639892578 138.34800720214844,36.236000061035156 C139.83799743652344,54.22600173950195 140.48800659179688,71.69599914550781 139.0279998779297,79.55599975585938z"></path></g></g><g style="display: block;" transform="matrix(1.0800000429153442,0,0,1.0800000429153442,253.16000366210938,266.6479797363281)" opacity="1"><g opacity="1" transform="matrix(1,0,0,1,0,0)"><path stroke-linecap="round" stroke-linejoin="round" fill-opacity="0" stroke="rgb(247,126,65)" stroke-opacity="1" stroke-width="8" d=" M-69.60099792480469,94.47000122070312 C-69.60099792480469,94.47000122070312 -58.630001068115234,105.44100189208984 -35.14400100708008,111.95500183105469 C-22.7549991607666,115.39099884033203 15.085000038146973,96.18399810791016 23.142000198364258,81.18399810791016 C34.64500045776367,59.77000045776367 31.3700008392334,33.869998931884766 25.71299934387207,26.413000106811523"></path></g><g opacity="1" transform="matrix(1,0,0,1,0,0)"><path stroke-linecap="round" stroke-linejoin="round" fill-opacity="0" stroke="rgb(247,126,65)" stroke-opacity="1" stroke-width="8" d=" M-132.343994140625,111.2699966430664 C-132.343994140625,111.2699966430664 -123.25800323486328,134.24099731445312 -103.62699890136719,155.4980010986328 C-90.00700378417969,170.2469940185547 -64.8010025024414,196.468994140625 -37.20100021362305,205.8979949951172 C-9.60099983215332,215.32699584960938 34.62699890136719,208.98399353027344 52.970001220703125,203.4980010986328 C71.31300354003906,198.01199340820312 98.05599975585938,181.55599975585938 108.16999816894531,165.27000427246094 C118.28399658203125,148.98399353027344 134.74200439453125,102.63099670410156 139.0279998779297,79.55500030517578 C141.74099731445312,64.94499969482422 138.5989990234375,15.619000434875488 133.45599365234375,-5.4670000076293945"></path></g></g><g style="display: block;" transform="matrix(1.0800000429153442,0,0,1.0800000429153442,253.16000366210938,266.6479797363281)" opacity="1"><g opacity="1" transform="matrix(1,0,0,1,0,0)"><path stroke-linecap="round" stroke-linejoin="round" fill-opacity="0" stroke="rgb(247,126,65)" stroke-opacity="1" stroke-width="8" d=" M17.999000549316406,-71.51000213623047 C40.28499984741211,-65.3010025024414 104.39900207519531,-6.501999855041504 104.39900207519531,-6.501999855041504"></path></g><g opacity="1" transform="matrix(1,0,0,1,0,0)"><path stroke-linecap="round" stroke-linejoin="round" fill-opacity="0" stroke="rgb(247,126,65)" stroke-opacity="1" stroke-width="8" d=" M25.71299934387207,26.413000106811523 C25.71299934387207,26.413000106811523 11.513999938964844,9.954999923706055 -1.5440000295639038,-6.501999855041504"></path></g></g><g style="display: block;" transform="matrix(1.0800000429153442,0,0,1.0800000429153442,253.16000366210938,266.6479797363281)" opacity="1"><g opacity="1" transform="matrix(1,0,0,1,0,0)"><path stroke-linecap="round" stroke-linejoin="round" fill-opacity="0" stroke="rgb(247,126,65)" stroke-opacity="1" stroke-width="8" d=" M17.999000549316406,-71.51000213623047 C9.770000457763672,-73.20899963378906 -31.371999740600586,-74.77400207519531 -70.97200012207031,-56.04499816894531"></path></g><g opacity="1" transform="matrix(1,0,0,1,0,0)"><path stroke-linecap="round" stroke-linejoin="round" fill-opacity="0" stroke="rgb(247,126,65)" stroke-opacity="1" stroke-width="8" d=" M-50.4010009765625,-2.9140000343322754 C-50.4010009765625,-2.9140000343322754 -20.572999954223633,-11.387999534606934 -1.5440000295639038,-6.501999855041504"></path></g></g><g style="display: block;" transform="matrix(1.0800000429153442,0,0,1.0800000429153442,253.16000366210938,266.6479797363281)" opacity="1"><g opacity="1" transform="matrix(1,0,0,1,0,0)"><path stroke-linecap="round" stroke-linejoin="round" fill-opacity="0" stroke="rgb(247,126,65)" stroke-opacity="1" stroke-width="8" d=" M-69.60099792480469,94.47000122070312 C-69.60099792480469,94.47000122070312 -75.42900085449219,52.29800033569336 -92.91500091552734,35.840999603271484 C-108.11399841308594,21.535999298095703 -136.12600708007812,18.091999053955078 -137.1439971923828,38.58399963378906 C-139,75.95500183105469 -135.42300415039062,99.93800354003906 -132.343994140625,111.2699966430664"></path></g></g></g></svg>