<svg xmlns="http://www.w3.org/2000/svg" viewBox="0 0 512 512" width="512" height="512" style="width: 100%; height: 100%; transform: translate3d(0,0,0);" preserveAspectRatio="xMidYMid meet"><defs><clipPath id="__lottie_element_1773"><rect width="512" height="512" x="0" y="0"></rect></clipPath><clipPath id="__lottie_element_1777"><path d="M0,0 L512,0 L512,512 L0,512z"></path></clipPath><linearGradient id="__lottie_element_1783" spreadMethod="pad" gradientUnits="userSpaceOnUse" x1="0" y1="0" x2="100" y2="0"><stop offset="0%" stop-color="rgb(182,165,151)" stop-opacity="1"></stop><stop offset="50%" stop-color="rgb(182,165,151)" stop-opacity="0.5"></stop><stop offset="100%" stop-color="rgb(182,165,151)" stop-opacity="0"></stop></linearGradient><linearGradient id="__lottie_element_1787" spreadMethod="pad" gradientUnits="userSpaceOnUse" x1="-2.6429998874664307" y1="73.01699829101562" x2="-3.6500000953674316" y2="218.31399536132812"><stop offset="0%" stop-color="rgb(19,29,43)"></stop><stop offset="20%" stop-color="rgb(17,21,30)"></stop><stop offset="31%" stop-color="rgb(14,14,16)"></stop></linearGradient><linearGradient id="__lottie_element_1788" spreadMethod="pad" gradientUnits="userSpaceOnUse" x1="-43.0260009765625" y1="142.90199279785156" x2="-0.859000027179718" y2="143.19500732421875"><stop offset="0%" stop-color="rgb(138,150,162)" stop-opacity="0"></stop><stop offset="14%" stop-color="rgb(139,151,162)" stop-opacity="0.5"></stop><stop offset="49%" stop-color="rgb(140,152,163)" stop-opacity="1"></stop><stop offset="84%" stop-color="rgb(137,149,161)" stop-opacity="0.5"></stop><stop offset="100%" stop-color="rgb(135,147,160)" stop-opacity="0"></stop></linearGradient><linearGradient id="__lottie_element_1795" spreadMethod="pad" gradientUnits="userSpaceOnUse" x1="-25.06800079345703" y1="57.01100158691406" x2="-24.2450008392334" y2="37.720001220703125"><stop offset="0%" stop-color="rgb(255,255,255)" stop-opacity="0.5"></stop><stop offset="43%" stop-color="rgb(182,170,171)" stop-opacity="0.6499999761581421"></stop><stop offset="100%" stop-color="rgb(108,84,87)" stop-opacity="0.800000011920929"></stop></linearGradient><linearGradient id="__lottie_element_1796" spreadMethod="pad" gradientUnits="userSpaceOnUse" x1="52.11399841308594" y1="-101.02400207519531" x2="35.52199935913086" y2="32.862998962402344"><stop offset="0%" stop-color="rgb(182,165,151)" stop-opacity="1"></stop><stop offset="50%" stop-color="rgb(182,165,151)" stop-opacity="0.5"></stop><stop offset="100%" stop-color="rgb(182,165,151)" stop-opacity="0"></stop></linearGradient><linearGradient id="__lottie_element_1800" spreadMethod="pad" gradientUnits="userSpaceOnUse" x1="-22.47599983215332" y1="-223.46600341796875" x2="48.47200012207031" y2="31.5049991607666"><stop offset="0%" stop-color="rgb(153,186,221)"></stop><stop offset="25%" stop-color="rgb(203,220,237)"></stop><stop offset="50%" stop-color="rgb(253,253,253)"></stop><stop offset="75%" stop-color="rgb(161,162,164)"></stop><stop offset="100%" stop-color="rgb(70,72,75)"></stop></linearGradient><linearGradient id="__lottie_element_1804" spreadMethod="pad" gradientUnits="userSpaceOnUse" x1="-22.47599983215332" y1="-223.46600341796875" x2="48.47200012207031" y2="31.5049991607666"><stop offset="0%" stop-color="rgb(153,186,221)"></stop><stop offset="25%" stop-color="rgb(203,220,237)"></stop><stop offset="50%" stop-color="rgb(253,253,253)"></stop><stop offset="75%" stop-color="rgb(161,162,164)"></stop><stop offset="100%" stop-color="rgb(70,72,75)"></stop></linearGradient><linearGradient id="__lottie_element_1808" spreadMethod="pad" gradientUnits="userSpaceOnUse" x1="-22.47599983215332" y1="-223.46600341796875" x2="48.47200012207031" y2="31.5049991607666"><stop offset="0%" stop-color="rgb(153,186,221)"></stop><stop offset="25%" stop-color="rgb(203,220,237)"></stop><stop offset="50%" stop-color="rgb(253,253,253)"></stop><stop offset="75%" stop-color="rgb(161,162,164)"></stop><stop offset="100%" stop-color="rgb(70,72,75)"></stop></linearGradient><linearGradient id="__lottie_element_1812" spreadMethod="pad" gradientUnits="userSpaceOnUse" x1="-22.47599983215332" y1="-223.46600341796875" x2="48.47200012207031" y2="31.5049991607666"><stop offset="0%" stop-color="rgb(153,186,221)"></stop><stop offset="25%" stop-color="rgb(203,220,237)"></stop><stop offset="50%" stop-color="rgb(253,253,253)"></stop><stop offset="75%" stop-color="rgb(161,162,164)"></stop><stop offset="100%" stop-color="rgb(70,72,75)"></stop></linearGradient><linearGradient id="__lottie_element_1816" spreadMethod="pad" gradientUnits="userSpaceOnUse"><stop></stop><stop></stop><stop></stop><stop></stop><stop></stop></linearGradient><linearGradient id="__lottie_element_1820" spreadMethod="pad" gradientUnits="userSpaceOnUse"><stop></stop><stop></stop><stop></stop><stop></stop><stop></stop></linearGradient><linearGradient id="__lottie_element_1824" spreadMethod="pad" gradientUnits="userSpaceOnUse"><stop></stop><stop></stop><stop></stop><stop></stop><stop></stop></linearGradient><linearGradient id="__lottie_element_1828" spreadMethod="pad" gradientUnits="userSpaceOnUse" x1="-22.47599983215332" y1="-223.46600341796875" x2="48.47200012207031" y2="31.5049991607666"><stop offset="0%" stop-color="rgb(153,186,221)"></stop><stop offset="25%" stop-color="rgb(203,220,237)"></stop><stop offset="50%" stop-color="rgb(253,253,253)"></stop><stop offset="75%" stop-color="rgb(161,162,164)"></stop><stop offset="100%" stop-color="rgb(70,72,75)"></stop></linearGradient></defs><g clip-path="url(#__lottie_element_1773)"><g style="display: none;"><g><path></path></g></g><g clip-path="url(#__lottie_element_1777)" style="display: block;" transform="matrix(0.9999999403953552,0,0,0.9999999403953552,-0.000244140625,-0.00018310546875)" opacity="1"><g style="display: block;" transform="matrix(0.7017055153846741,0.7124670743942261,-0.7124670743942261,0.7017055153846741,227.49154663085938,281.18792724609375)" opacity="0.01"><g opacity="1" transform="matrix(1,0,0,1,0,0)"><path fill="url(#__lottie_element_1828)" fill-opacity="1" d=" M-7.502999782562256,-245.65699768066406 C-7.00600004196167,-245.65699768066406 -7.377999782562256,-245.125 -7.568999767303467,-245.656005859375 C183,-245.656005859375 178,41.242000579833984 -7.568999767303467,41.242000579833984 C-7.377999782562256,41.1879997253418 -8,40.5 -7.506999969482422,40.86399841308594 C175,40.86399841308594 184.0050048828125,-245.65699768066406 -7.502999782562256,-245.65699768066406z"></path></g></g><g style="display: none;"><g><path fill="url(#__lottie_element_1824)"></path></g></g><g style="display: none;"><g><path fill="url(#__lottie_element_1820)"></path></g></g><g style="display: none;"><g><path fill="url(#__lottie_element_1816)"></path></g><g><g><path stroke-linecap="butt" stroke-linejoin="miter" fill-opacity="0" stroke-miterlimit="10"></path></g><g><path stroke-linecap="round" stroke-linejoin="round" fill-opacity="0"></path></g></g><g><path stroke-linecap="round" stroke-linejoin="round" fill-opacity="0"></path></g><g><g><path stroke-linecap="round" stroke-linejoin="round" fill-opacity="0"></path></g><g><path stroke-linecap="round" stroke-linejoin="round" fill-opacity="0"></path></g><g><path stroke-linecap="round" stroke-linejoin="round" fill-opacity="0"></path></g></g><g><path></path></g></g><g style="display: block;" transform="matrix(0.7017055153846741,0.7124670743942261,-0.7124670743942261,0.7017055153846741,227.49154663085938,281.18792724609375)" opacity="1"><g opacity="1" transform="matrix(1,0,0,1,0,0)"><path fill="url(#__lottie_element_1812)" fill-opacity="1" d=" M97.76000213623047,-203.41099548339844 C41.85200119018555,-259.9339904785156 -49.2869987487793,-260.42498779296875 -105.80000305175781,-204.50599670410156 C-162.31300354003906,-148.59800720214844 -162.8040008544922,-57.45899963378906 -106.89600372314453,-0.9459999799728394 C-91.21600341796875,14.902999877929688 -72.77300262451172,26.3439998626709 -53.0890007019043,33.36899948120117 C-5.5,48 38.35499954223633,35.566001892089844 42.50299835205078,33.88399887084961 C62.250999450683594,27.070999145507812 80.82599639892578,15.829000473022461 96.66500091552734,0.14900000393390656 C153.18800354003906,-55.75899887084961 153.6790008544922,-146.8979949951172 97.76000213623047,-203.41099548339844z M80.99500274658203,-15.689000129699707 C33.23500061035156,31.559999465942383 -43.797000885009766,31.145000457763672 -91.05699920654297,-16.614999771118164 C-138.30599975585938,-64.38600158691406 -137.89100646972656,-141.41799926757812 -90.13099670410156,-188.66700744628906 C-42.36000061035156,-235.927001953125 34.672000885009766,-235.51300048828125 81.9209976196289,-187.74200439453125 C129.18099975585938,-139.98199462890625 128.76600646972656,-62.94900131225586 80.99500274658203,-15.689000129699707z"></path></g><g opacity="1" transform="matrix(1,0,0,1,0,0)"><path stroke-linecap="butt" stroke-linejoin="miter" fill-opacity="0" stroke-miterlimit="10" stroke="rgb(100,152,191)" stroke-opacity="1" stroke-width="8" d=" M97.76000213623047,-203.41099548339844 C41.85200119018555,-259.9339904785156 -49.2869987487793,-260.42498779296875 -105.80000305175781,-204.50599670410156 C-162.31300354003906,-148.59800720214844 -162.8040008544922,-57.45899963378906 -106.89600372314453,-0.9459999799728394 C-91.21600341796875,14.902999877929688 -72.77300262451172,26.3439998626709 -53.0890007019043,33.36899948120117 C-0.75,48.75 38.35499954223633,35.566001892089844 42.50299835205078,33.88399887084961 C62.250999450683594,27.070999145507812 80.82599639892578,15.829000473022461 96.66500091552734,0.14900000393390656 C153.18800354003906,-55.75899887084961 153.6790008544922,-146.8979949951172 97.76000213623047,-203.41099548339844z M-144.12600708007812,-137.51100158691406 C-156.04100036621094,-90.26100158691406 -143.66700744628906,-38.1150016784668 -106.89600372314453,-0.9459999799728394 C-91.21600341796875,14.902999877929688 -72.77300262451172,26.3439998626709 -53.0890007019043,33.36899948120117 C-14,49 38.35499954223633,35.566001892089844 42.50299835205078,33.88399887084961 C62.250999450683594,27.070999145507812 80.82599639892578,15.829000473022461 96.66500091552734,0.14900000393390656 C143.552001953125,-46.22700119018555 151.88299560546875,-116.84400177001953 121.44400024414062,-171.83200073242188"></path></g><g opacity="1" transform="matrix(1,0,0,1,0,0)"><path stroke-linecap="round" stroke-linejoin="round" fill-opacity="0" stroke="rgb(147,144,152)" stroke-opacity="1" stroke-width="8" d=" M-144.12600708007812,-137.51100158691406 C-156.04100036621094,-90.26100158691406 -143.66700744628906,-38.1150016784668 -106.89600372314453,-0.9459999799728394 C-91.21600341796875,14.902999877929688 -54,43.5 -2.3389999866485596,41.36899948120117"></path></g><g opacity="1" transform="matrix(1,0,0,1,0,0)"><path stroke-linecap="round" stroke-linejoin="round" fill-opacity="0" stroke="rgb(106,111,118)" stroke-opacity="1" stroke-width="8" d=" M80.83799743652344,-15.873000144958496 C33.08399963378906,31.3700008392334 -43.9379997253418,30.954999923706055 -91.19200134277344,-16.798999786376953 C-138.43499755859375,-64.56400299072266 -138.02099609375,-141.58700561523438 -90.26699829101562,-188.8300018310547 C-42.50199890136719,-236.08399963378906 34.520999908447266,-235.66900634765625 81.76399993896484,-187.9040069580078 C129.01800537109375,-140.14999389648438 128.60299682617188,-63.12699890136719 80.83799743652344,-15.873000144958496z"></path></g><g opacity="0.1" transform="matrix(1,0,0,1,0,0)"><path fill="rgb(255,255,255)" fill-opacity="1" d=" M-21.077999114990234,-143.55099487304688 C-62.439998626708984,-124.8550033569336 -98.4729995727539,-109.16699981689453 -104.66999816894531,-114.01799774169922 C-111.53600311279297,-119.39299774169922 -104.96299743652344,-165.98300170898438 -54.39099884033203,-193.83999633789062 C0.8140000104904175,-224.24899291992188 52.257999420166016,-197.27099609375 54.340999603271484,-186.8249969482422 C56.44499969482422,-176.2740020751953 9.949999809265137,-157.5760040283203 -21.077999114990234,-143.55099487304688z"></path></g><g opacity="1" transform="matrix(0.9999998211860657,-0.0006283184629864991,0.0006283184629864991,0.9999998211860657,0.06557941436767578,-0.00244140625)"><g opacity="1" transform="matrix(1,0,0,1,0,0)"><path stroke-linecap="round" stroke-linejoin="round" fill-opacity="0" stroke="rgb(152,165,186)" stroke-opacity="1" stroke-width="8" d=" M93.06199645996094,-174.75100708007812 C128.58299255371094,-126.91300201416016 124.42900085449219,-58.99700164794922 80.83899688720703,-15.873000144958496 C33.084999084472656,31.3700008392334 -43.9379997253418,30.954999923706055 -91.19200134277344,-16.798999786376953 C-106.14099884033203,-31.913000106811523 -116.31800079345703,-49.95500183105469 -121.73400115966797,-69.05699920654297"></path></g><g opacity="1" transform="matrix(0.9999998211860657,0.0006283184629864991,-0.0006283184629864991,0.9999998211860657,-0.06423425674438477,0.00342559814453125)"><path stroke-linecap="round" stroke-linejoin="round" fill-opacity="0" stroke="rgb(255,255,255)" stroke-opacity="1" stroke-width="0" d=" M102.64900207519531,-45.0890007019043 C97.03299713134766,-34.56800079345703 89.76200103759766,-24.701000213623047 80.83899688720703,-15.873000144958496 M114.17900085449219,-76.54000091552734 C113.70500183105469,-74.3489990234375 113.1709976196289,-72.16899871826172 112.57499694824219,-70.00199890136719"></path></g><g opacity="1" transform="matrix(1,0,0,1,0,0)"><path stroke-linecap="round" stroke-linejoin="round" fill-opacity="0" stroke="rgb(154,142,128)" stroke-opacity="1" stroke-width="8" d=" M-2.496999979019165,41.38399887084961 C49,40.75 80.82599639892578,15.829000473022461 96.66500091552734,0.14900000393390656 C143.552001953125,-46.22700119018555 151.8820037841797,-116.84400177001953 121.44400024414062,-171.83200073242188"></path></g></g></g><g style="display: block;" transform="matrix(0.7017055153846741,0.7124670743942261,-0.7124670743942261,0.7017055153846741,227.49154663085938,281.18792724609375)" opacity="1"><g opacity="1" transform="matrix(1,0,0,1,0,0)"><path fill="url(#__lottie_element_1808)" fill-opacity="1" d=" M97.76000213623047,-203.41099548339844 C41.85200119018555,-259.9339904785156 -49.2869987487793,-260.42498779296875 -105.80000305175781,-204.50599670410156 C-162.31300354003906,-148.59800720214844 -162.8040008544922,-57.45899963378906 -106.89600372314453,-0.9459999799728394 C-91.21600341796875,14.902999877929688 -72.77300262451172,26.3439998626709 -53.0890007019043,33.36899948120117 C-5.5,48 38.35499954223633,35.566001892089844 42.50299835205078,33.88399887084961 C62.250999450683594,27.070999145507812 80.82599639892578,15.829000473022461 96.66500091552734,0.14900000393390656 C153.18800354003906,-55.75899887084961 153.6790008544922,-146.8979949951172 97.76000213623047,-203.41099548339844z M80.99500274658203,-15.689000129699707 C33.23500061035156,31.559999465942383 -43.797000885009766,31.145000457763672 -91.05699920654297,-16.614999771118164 C-138.30599975585938,-64.38600158691406 -137.89100646972656,-141.41799926757812 -90.13099670410156,-188.66700744628906 C-42.36000061035156,-235.927001953125 34.672000885009766,-235.51300048828125 81.9209976196289,-187.74200439453125 C129.18099975585938,-139.98199462890625 128.76600646972656,-62.94900131225586 80.99500274658203,-15.689000129699707z"></path></g><g opacity="1" transform="matrix(1,0,0,1,0,0)"><path stroke-linecap="butt" stroke-linejoin="miter" fill-opacity="0" stroke-miterlimit="10" stroke="rgb(100,152,191)" stroke-opacity="1" stroke-width="8" d=" M97.76000213623047,-203.41099548339844 C41.85200119018555,-259.9339904785156 -49.2869987487793,-260.42498779296875 -105.80000305175781,-204.50599670410156 C-162.31300354003906,-148.59800720214844 -162.8040008544922,-57.45899963378906 -106.89600372314453,-0.9459999799728394 C-91.21600341796875,14.902999877929688 -72.77300262451172,26.3439998626709 -53.0890007019043,33.36899948120117 C-0.75,48.75 38.35499954223633,35.566001892089844 42.50299835205078,33.88399887084961 C62.250999450683594,27.070999145507812 80.82599639892578,15.829000473022461 96.66500091552734,0.14900000393390656 C153.18800354003906,-55.75899887084961 153.6790008544922,-146.8979949951172 97.76000213623047,-203.41099548339844z M-144.12600708007812,-137.51100158691406 C-156.04100036621094,-90.26100158691406 -143.66700744628906,-38.1150016784668 -106.89600372314453,-0.9459999799728394 C-91.21600341796875,14.902999877929688 -72.77300262451172,26.3439998626709 -53.0890007019043,33.36899948120117 C-14,49 38.35499954223633,35.566001892089844 42.50299835205078,33.88399887084961 C62.250999450683594,27.070999145507812 80.82599639892578,15.829000473022461 96.66500091552734,0.14900000393390656 C143.552001953125,-46.22700119018555 151.88299560546875,-116.84400177001953 121.44400024414062,-171.83200073242188"></path></g><g opacity="1" transform="matrix(1,0,0,1,0,0)"><path stroke-linecap="round" stroke-linejoin="round" fill-opacity="0" stroke="rgb(147,144,152)" stroke-opacity="1" stroke-width="8" d=" M-144.12600708007812,-137.51100158691406 C-156.04100036621094,-90.26100158691406 -143.66700744628906,-38.1150016784668 -106.89600372314453,-0.9459999799728394 C-91.21600341796875,14.902999877929688 -54,43.5 -2.3389999866485596,41.36899948120117"></path></g><g opacity="1" transform="matrix(1,0,0,1,0,0)"><path stroke-linecap="round" stroke-linejoin="round" fill-opacity="0" stroke="rgb(106,111,118)" stroke-opacity="1" stroke-width="8" d=" M80.83799743652344,-15.873000144958496 C33.08399963378906,31.3700008392334 -43.9379997253418,30.954999923706055 -91.19200134277344,-16.798999786376953 C-138.43499755859375,-64.56400299072266 -138.02099609375,-141.58700561523438 -90.26699829101562,-188.8300018310547 C-42.50199890136719,-236.08399963378906 34.520999908447266,-235.66900634765625 81.76399993896484,-187.9040069580078 C129.01800537109375,-140.14999389648438 128.60299682617188,-63.12699890136719 80.83799743652344,-15.873000144958496z"></path></g><g opacity="1" transform="matrix(1,0,0,1,0,0)"><path stroke-linecap="round" stroke-linejoin="round" fill-opacity="0" stroke="rgb(152,165,186)" stroke-opacity="1" stroke-width="8" d=" M93.06199645996094,-174.75100708007812 C128.58299255371094,-126.91300201416016 124.42900085449219,-58.99700164794922 80.83899688720703,-15.873000144958496 C33.084999084472656,31.3700008392334 -43.9379997253418,30.954999923706055 -91.19200134277344,-16.798999786376953 C-106.14099884033203,-31.913000106811523 -116.31800079345703,-49.95500183105469 -121.73400115966797,-69.05699920654297"></path></g><g opacity="1" transform="matrix(1,0,0,1,0,0)"><path stroke-linecap="round" stroke-linejoin="round" fill-opacity="0" stroke="rgb(255,255,255)" stroke-opacity="1" stroke-width="8" d=" M102.64900207519531,-45.0890007019043 C97.03299713134766,-34.56800079345703 89.76200103759766,-24.701000213623047 80.83899688720703,-15.873000144958496 M114.17900085449219,-76.54000091552734 C113.70500183105469,-74.3489990234375 113.1709976196289,-72.16899871826172 112.57499694824219,-70.00199890136719"></path></g><g opacity="1" transform="matrix(1,0,0,1,0,0)"><path stroke-linecap="round" stroke-linejoin="round" fill-opacity="0" stroke="rgb(154,142,128)" stroke-opacity="1" stroke-width="8" d=" M-2.496999979019165,41.38399887084961 C49,40.75 80.82599639892578,15.829000473022461 96.66500091552734,0.14900000393390656 C143.552001953125,-46.22700119018555 151.8820037841797,-116.84400177001953 121.44400024414062,-171.83200073242188"></path></g><g opacity="0" transform="matrix(1,0,0,1,0,0)"><path fill="rgb(255,255,255)" fill-opacity="1" d=" M-21.077999114990234,-143.55099487304688 C-62.439998626708984,-124.8550033569336 -98.4729995727539,-109.16699981689453 -104.66999816894531,-114.01799774169922 C-111.53600311279297,-119.39299774169922 -104.96299743652344,-165.98300170898438 -54.39099884033203,-193.83999633789062 C0.8140000104904175,-224.24899291992188 52.257999420166016,-197.27099609375 54.340999603271484,-186.8249969482422 C56.44499969482422,-176.2740020751953 9.949999809265137,-157.5760040283203 -21.077999114990234,-143.55099487304688z"></path></g></g><g style="display: block;" transform="matrix(0.7017055153846741,0.7124670743942261,-0.7124670743942261,0.7017055153846741,227.49154663085938,281.18792724609375)" opacity="0.01"><g opacity="1" transform="matrix(1,0,0,1,0,0)"><path fill="url(#__lottie_element_1804)" fill-opacity="1" d=" M-4.5,-245.65699768066406 C-5,-245.65699768066406 -4.625,-245.125 -4.433000087738037,-245.656005859375 C-198,-245.656005859375 -196,41.242000579833984 -4.433000087738037,41.242000579833984 C-4.625,41.1879997253418 -4,40.5 -4.495999813079834,40.86399841308594 C-196,40.86399841308594 -197,-245.65699768066406 -4.5,-245.65699768066406z"></path></g><g opacity="1" transform="matrix(1,0,0,1,0,0)"><path stroke-linecap="round" stroke-linejoin="round" fill-opacity="0" stroke="rgb(112,117,123)" stroke-opacity="1" stroke-width="8" d=" M-14.642000198364258,-245.38499450683594 C-11.322999954223633,-245.56500244140625 -7.941999912261963,-245.65699768066406 -4.5,-245.65699768066406 C-4.5,-245.65699768066406 -4.5,-245.65699768066406 -4.5,-245.65699768066406 C-5,-245.65699768066406 -4.625,-245.125 -4.433000087738037,-245.656005859375 C-198,-245.656005859375 -196,41.242000579833984 -4.433000087738037,41.242000579833984 C-4.625,41.1879997253418 -4,40.5 -4.495999813079834,40.86399841308594 C-23.631000518798828,40.86399841308594 -40.8650016784668,38.00299835205078 -56.19300079345703,32.85300064086914"></path></g></g><g style="display: block;" transform="matrix(0.7017055153846741,0.7124670743942261,-0.7124670743942261,0.7017055153846741,227.49154663085938,281.18792724609375)" opacity="1"><g opacity="1" transform="matrix(1,0,0,1,0,0)"><path fill="url(#__lottie_element_1800)" fill-opacity="1" d=" M-53.0890007019043,33.36899948120117 C-48.95899963378906,35.013999938964844 -37.7130012512207,42.37099838256836 -39.38999938964844,58.84600067138672 C-39.38999938964844,58.84600067138672 28.520000457763672,59.21099853515625 28.520000457763672,59.21099853515625 C26.9060001373291,43.12200164794922 38.35499954223633,35.566001892089844 42.50299835205078,33.88399887084961 C62.250999450683594,27.070999145507812 -72.77300262451172,26.3439998626709 -53.0890007019043,33.36899948120117z"></path></g><g opacity="1" transform="matrix(1,0,0,1,0,0)"><path stroke-linecap="round" stroke-linejoin="round" fill-opacity="0" stroke="rgb(147,144,152)" stroke-opacity="1" stroke-width="8" d=" M-53.0890007019043,33.36899948120117 C-48.95899963378906,35.013999938964844 -37.7130012512207,42.37099838256836 -39.38999938964844,58.84600067138672"></path></g><g opacity="1" transform="matrix(1,0,0,1,0,0)"><path stroke-linecap="round" stroke-linejoin="round" fill-opacity="0" stroke="rgb(154,142,128)" stroke-opacity="1" stroke-width="8" d=" M28.520000457763672,59.21099853515625 C26.9060001373291,43.12200164794922 38.35499954223633,35.566001892089844 42.50299835205078,33.88399887084961"></path></g></g><g style="display: block;" transform="matrix(0.7017055153846741,0.7124670743942261,-0.7124670743942261,0.7017055153846741,227.49154663085938,281.18792724609375)" opacity="1"><g opacity="1" transform="matrix(1,0,0,1,0,0)"><path fill="url(#__lottie_element_1795)" fill-opacity="1" d=" M1.305999994277954,40.58000183105469 C1.305999994277954,40.58000183105469 1.2630000114440918,48.4370002746582 1.2630000114440918,48.4370002746582 C1.2339999675750732,53.75600051879883 -3.1010000705718994,58.04499816894531 -8.420000076293945,58.01599884033203 C-8.420000076293945,58.01599884033203 -28.17300033569336,57.90999984741211 -28.17300033569336,57.90999984741211 C-32.83100128173828,57.8849983215332 -36.821998596191406,54.529998779296875 -37.60300064086914,49.9379997253418 C-39.47200012207031,38.95199966430664 -47.68299865722656,33.73500061035156 -51.082000732421875,32.375999450683594 C-52.62900161743164,31.827999114990234 -54.15599822998047,31.25 -55.68299865722656,30.642000198364258 C-55.68299865722656,30.642000198364258 -8.27400016784668,30.89699935913086 -8.27400016784668,30.89699935913086 C-2.9549999237060547,30.926000595092773 1.3350000381469727,35.26100158691406 1.305999994277954,40.58000183105469z"></path></g><g opacity="0.7000000000000001" transform="matrix(1,0,0,1,0,0)"><path stroke-linecap="round" stroke-linejoin="round" fill-opacity="0" stroke="rgb(226,233,236)" stroke-opacity="1" stroke-width="8" d=" M-45.11800003051758,38.691001892089844 C-36.49100112915039,40.07600021362305 -29.72599983215332,44.722999572753906 -31.391000747680664,58.888999938964844"></path></g><g opacity="1" transform="matrix(1,0,0,1,0,0)"><path stroke-linecap="round" stroke-linejoin="round" fill-opacity="0" stroke="rgb(75,77,79)" stroke-opacity="1" stroke-width="8" d=" M-106.89600372314453,-0.9459999799728394 C-91.21600341796875,14.902999877929688 -72.77300262451172,26.3439998626709 -53.0890007019043,33.36899948120117 C-48.95899963378906,35.013999938964844 -37.7130012512207,42.37099838256836 -39.38999938964844,58.84600067138672"></path></g><g opacity="1" transform="matrix(1,0,0,1,0,0)"><path stroke-linecap="round" stroke-linejoin="round" fill-opacity="0" stroke="rgb(75,77,79)" stroke-opacity="1" stroke-width="8" d=" M28.520000457763672,59.21099853515625 C26.9060001373291,43.12200164794922 38.35499954223633,35.566001892089844 42.50299835205078,33.88399887084961 C62.250999450683594,27.070999145507812 80.82599639892578,15.829000473022461 96.66500091552734,0.14900000393390656"></path></g><g opacity="1" transform="matrix(1,0,0,1,0,0)"><g opacity="0.4" transform="matrix(1,0,0,1,0,0)"><path fill="rgb(255,255,255)" fill-opacity="1" d=" M-94.06300354003906,-210.16400146484375 C-94.06300354003906,-210.16400146484375 -167.177001953125,-155.78500366210938 -139.0189971923828,-61.9370002746582 C-119.46700286865234,3.2279999256134033 -35.487998962402344,34.56800079345703 1.9579999446868896,22.82900047302246 C1.9579999446868896,22.82900047302246 -83.99700164794922,22.198999404907227 -118.76000213623047,-49.27299880981445 C-164.2740020751953,-136.76600646972656 -94.06300354003906,-210.16400146484375 -94.06300354003906,-210.16400146484375z"></path></g><g opacity="1" transform="matrix(1,0,0,1,0,0)"><path fill="rgb(75,77,79)" fill-opacity="1" d=" M-143.23599243164062,-50.683998107910156 C-143.23599243164062,-50.683998107910156 -133.59800720214844,-20.73699951171875 -106.9260025024414,4.636000156402588 C-106.9260025024414,4.636000156402588 -104.01799774169922,-3.7239999771118164 -104.01799774169922,-3.7239999771118164 C-104.01799774169922,-3.7239999771118164 -130.2899932861328,-24.593000411987305 -143.23599243164062,-50.683998107910156z"></path></g><g opacity="1" transform="matrix(1,0,0,1,0,0)"><path fill="rgb(75,77,79)" fill-opacity="1" d=" M137.46400451660156,-60.38199996948242 C137.46400451660156,-60.38199996948242 129.68600463867188,-25.70800018310547 96.61499786376953,5.73199987411499 C96.61499786376953,5.73199987411499 90.99600219726562,0.052000001072883606 90.99600219726562,0.052000001072883606 C90.99600219726562,0.052000001072883606 121.60199737548828,-27.218000411987305 137.46400451660156,-60.38199996948242z"></path></g><g opacity="0.6" transform="matrix(1,0,0,1,0,0)"><path fill="url(#__lottie_element_1796)" fill-opacity="1" d=" M-26.687999725341797,-220.4239959716797 C-26.687999725341797,-220.4239959716797 93.5739974975586,-248.781005859375 130.63499450683594,-151.66400146484375 C159.3280029296875,-76.4739990234375 117.53600311279297,-1.156999945640564 62.53099822998047,25.20400047302246 C53.73899841308594,29.41699981689453 27.864999771118164,32.7869987487793 28.31999969482422,64.48999786376953 C28.31999969482422,64.48999786376953 9.36299991607666,64.38800048828125 9.36299991607666,64.38800048828125 C9.36299991607666,64.38800048828125 2.8340001106262207,20.832000732421875 28.611000061035156,10.376999855041504 C54.38800048828125,-0.07800000160932541 85.29299926757812,-11.942000389099121 103.37899780273438,-56.15800094604492 C121.46499633789062,-100.3740005493164 114.08100128173828,-150.46099853515625 92.5739974975586,-174.8159942626953 C71.06700134277344,-199.17100524902344 42.2599983215332,-224.34500122070312 -26.687999725341797,-220.4239959716797z"></path></g><g opacity="0.3" transform="matrix(1,0,0,1,0,0)"><path stroke-linecap="round" stroke-linejoin="round" fill-opacity="0" stroke="rgb(105,137,156)" stroke-opacity="1" stroke-width="8" d=" M-28.684999465942383,53.104000091552734 C-33.584999084472656,53.01100158691406 -37.10499954223633,53.27399826049805 -40.08599853515625,54.55500030517578"></path></g><g opacity="0.6" transform="matrix(1,0,0,1,0,0)"><path fill="rgb(75,77,79)" fill-opacity="1" d=" M122.17400360107422,-124.28500366210938 C122.17400360107422,-124.28500366210938 138.85899353027344,-74.13700103759766 98.91000366210938,-20.45400047302246 C54.064998626708984,39.80699920654297 -49.611000061035156,47.83100128173828 -100.49099731445312,-22.99799919128418 C-100.49099731445312,-22.99799919128418 -20.832000732421875,46.29100036621094 61.025001525878906,0.28200000524520874 C126.76499938964844,-36.667999267578125 122.17400360107422,-124.28500366210938 122.17400360107422,-124.28500366210938z"></path></g><g opacity="1" transform="matrix(1,0,0,1,0,0)"><path fill="rgb(152,165,186)" fill-opacity="1" d=" M-116.9739990234375,-137.5970001220703 C-116.9739990234375,-137.5970001220703 -128.16200256347656,-106.93900299072266 -117.81900024414062,-69.9229965209961 C-117.81900024414062,-69.9229965209961 -125.59200286865234,-68.04900360107422 -125.59200286865234,-68.04900360107422 C-131.86599731445312,-88.29100036621094 -128.69000244140625,-114.06900024414062 -116.9739990234375,-137.5970001220703z"></path></g><g opacity="1" transform="matrix(1,0,0,1,0,0)"><path fill="rgb(100,152,191)" fill-opacity="1" d=" M-140.11199951171875,-137.11900329589844 C-140.11199951171875,-137.11900329589844 -150.60000610351562,-114.65699768066406 -152.156005859375,-94.34200286865234 C-152.156005859375,-94.34200286865234 -153.468994140625,-108.23200225830078 -151.31199645996094,-122.0739974975586 C-149.15499877929688,-135.91600036621094 -146.54800415039062,-143.94000244140625 -146.54800415039062,-143.94000244140625 C-146.54800415039062,-143.94000244140625 -139.10899353027344,-140.8000030517578 -139.10899353027344,-140.8000030517578 C-139.10899353027344,-140.8000030517578 -139.8159942626953,-138.36199951171875 -140.11199951171875,-137.11900329589844z"></path></g><g opacity="1" transform="matrix(1,0,0,1,0,0)"><path fill="rgb(152,165,186)" fill-opacity="1" d=" M30.87299919128418,-214.49200439453125 C30.87299919128418,-214.49200439453125 65.98200225830078,-205.28399658203125 90.1969985961914,-171.71400451660156 C90.1969985961914,-171.71400451660156 96.70500183105469,-176.54400634765625 96.70500183105469,-176.54400634765625 C96.70500183105469,-176.54400634765625 76.38700103759766,-205.71099853515625 30.87299919128418,-214.49200439453125z"></path></g><g opacity="1" transform="matrix(1,0,0,1,0,0)"><path fill="rgb(154,142,128)" fill-opacity="1" d=" M86.8010025024414,-208.27699279785156 C86.8010025024414,-208.27699279785156 116.04199981689453,-190.42999267578125 126.04199981689453,-171.8070068359375 C126.04199981689453,-171.8070068359375 118.5719985961914,-168.90899658203125 118.5719985961914,-168.90899658203125 C118.5719985961914,-168.90899658203125 106.42900085449219,-191.33799743652344 86.8010025024414,-208.27699279785156z"></path></g></g></g><g style="display: block;" transform="matrix(0.7017055153846741,0.7124670743942261,-0.7124670743942261,0.7017055153846741,227.49154663085938,281.18792724609375)" opacity="1"><g opacity="0.2" transform="matrix(1,0,0,1,0,0)"><path fill="rgb(255,255,255)" fill-opacity="1" d=" M-87.14900207519531,-87.81900024414062 C-87.14900207519531,-87.81900024414062 -86.38899993896484,-83.46499633789062 -86.38899993896484,-83.46499633789062 C-86.26300048828125,-82.74299621582031 -86.63899993896484,-82.0270004272461 -87.30500030517578,-81.72000122070312 C-87.30500030517578,-81.72000122070312 -89.2020034790039,-80.84600067138672 -89.2020034790039,-80.84600067138672 C-90.0770034790039,-80.44200134277344 -91.0999984741211,-80.89199829101562 -91.41300201416016,-81.80400085449219 C-91.90899658203125,-83.25 -92.2969970703125,-84.7239990234375 -92.5780029296875,-86.21399688720703 C-92.71499633789062,-86.94400024414062 -92.33599853515625,-87.67400360107422 -91.66000366210938,-87.98300170898438 C-91.66000366210938,-87.98300170898438 -89.41300201416016,-89.01100158691406 -89.41300201416016,-89.01100158691406 C-88.44999694824219,-89.45099639892578 -87.33100128173828,-88.86199951171875 -87.14900207519531,-87.81900024414062z"></path></g><g opacity="0.2" transform="matrix(1,0,0,1,0,0)"><path fill="rgb(255,255,255)" fill-opacity="1" d=" M-72.90799713134766,-84.7040023803711 C-72.90799713134766,-84.7040023803711 -75.5,-83.50900268554688 -75.5,-83.50900268554688 C-77.26699829101562,-82.69499969482422 -79.322998046875,-83.78700256347656 -79.63800048828125,-85.70700073242188 C-79.63800048828125,-85.70700073242188 -80.94000244140625,-93.64399719238281 -80.94000244140625,-93.64399719238281 C-81.15499877929688,-94.9540023803711 -80.46600341796875,-96.24700164794922 -79.25900268554688,-96.79900360107422 C-79.25900268554688,-96.79900360107422 -76.04399871826172,-98.2699966430664 -76.04399871826172,-98.2699966430664 C-74.18800354003906,-99.11900329589844 -72.052001953125,-97.86799621582031 -71.88400268554688,-95.83399963378906 C-71.88400268554688,-95.83399963378906 -71.20600128173828,-87.62100219726562 -71.20600128173828,-87.62100219726562 C-71.10399627685547,-86.38800048828125 -71.78399658203125,-85.22200012207031 -72.90799713134766,-84.7040023803711z"></path></g><g opacity="0.2" transform="matrix(1,0,0,1,0,0)"><path fill="rgb(255,255,255)" fill-opacity="1" d=" M7.9629998207092285,-116.99199676513672 C7.9629998207092285,-116.99199676513672 -22.510000228881836,-106.45899963378906 -22.510000228881836,-106.45899963378906 C-25.420000076293945,-105.11799621582031 -28.802000045776367,-106.94300079345703 -29.27899932861328,-110.11100006103516 C-29.27899932861328,-110.11100006103516 -29.91900062561035,-114.3550033569336 -29.91900062561035,-114.3550033569336 C-30.238000869750977,-116.47599792480469 -29.11400032043457,-118.5530014038086 -27.163000106811523,-119.44499969482422 C-27.163000106811523,-119.44499969482422 1.218000054359436,-138.1739959716797 1.218000054359436,-138.1739959716797 C4.00600004196167,-139.44900512695312 7.258999824523926,-137.8260040283203 7.915999889373779,-134.83200073242188 C7.915999889373779,-134.83200073242188 10.64799976348877,-122.39199829101562 10.64799976348877,-122.39199829101562 C11.133000373840332,-120.18499755859375 10.015000343322754,-117.93800354003906 7.9629998207092285,-116.99199676513672z"></path></g><g opacity="0.2" transform="matrix(1,0,0,1,0,0)"><path fill="rgb(255,255,255)" fill-opacity="1" d=" M75.90899658203125,-148.29400634765625 C75.90899658203125,-148.29400634765625 25.91200065612793,-125.25800323486328 25.91200065612793,-125.25800323486328 C23.165000915527344,-123.99199676513672 19.94499969482422,-125.5469970703125 19.226999282836914,-128.48500061035156 C19.226999282836914,-128.48500061035156 16.23200035095215,-140.74200439453125 16.23200035095215,-140.74200439453125 C15.684000015258789,-142.98300170898438 16.805999755859375,-145.29800415039062 18.90399932861328,-146.25799560546875 C18.90399932861328,-146.25799560546875 64.85099792480469,-167.27200317382812 64.85099792480469,-167.27200317382812 C66.86199951171875,-168.19200134277344 69.24800109863281,-167.62600708007812 70.6240005493164,-165.89500427246094 C73.36599731445312,-162.44500732421875 75.83300018310547,-158.85000610351562 78.02300262451172,-155.14100646972656 C79.47899627685547,-152.6750030517578 78.51000213623047,-149.4929962158203 75.90899658203125,-148.29400634765625z"></path></g><g opacity="0.5" transform="matrix(1,0,0,1,0,0)"><path fill="rgb(182,186,190)" fill-opacity="1" d=" M116.93199920654297,-101.6989974975586 C116.57099914550781,-34.516998291015625 61.816001892089844,19.649999618530273 -5.366000175476074,19.288999557495117 C-72.5479965209961,18.92799949645996 -126.71499633789062,-35.82600021362305 -126.35399627685547,-103.00800323486328 C-125.99299621582031,-170.19000244140625 -71.23899841308594,-224.35800170898438 -4.057000160217285,-223.9969940185547 C63.125,-223.63600158691406 117.29299926757812,-168.88099670410156 116.93199920654297,-101.6989974975586z"></path></g><g opacity="0.1" transform="matrix(1,0,0,1,0,0)"><path fill="rgb(106,111,118)" fill-opacity="1" d=" M116.87000274658203,-106.19400024414062 C114.75900268554688,-173.33799743652344 58.604000091552734,-226.0570068359375 -8.54699993133545,-223.93800354003906 C-75.697998046875,-221.81900024414062 -128.41799926757812,-165.66400146484375 -126.29900360107422,-98.51300048828125 C-124.18000030517578,-31.36199951171875 -68.02400207519531,21.35700035095215 -0.8809999823570251,19.231000900268555 C66.2699966430664,17.11199951171875 118.98899841308594,-39.042999267578125 116.87000274658203,-106.19400024414062z M-1.4210000038146973,1.659000039100647 C-58.869998931884766,3.4719998836517334 -106.90699768066406,-41.625999450683594 -108.72000122070312,-99.07499694824219 C-110.53299713134766,-156.5240020751953 -65.43499755859375,-204.56100463867188 -7.986000061035156,-206.37399291992188 C49.4630012512207,-208.18699645996094 97.5,-163.08900451660156 99.31300354003906,-105.63999938964844 C101.1259994506836,-48.191001892089844 56.02799987792969,-0.15399999916553497 -1.4210000038146973,1.659000039100647z"></path></g></g><g style="display: block;" transform="matrix(0.7017055153846741,0.7124670743942261,-0.7124670743942261,0.7017055153846741,227.49154663085938,281.18792724609375)" opacity="1"><g opacity="1" transform="matrix(1,0,0,1,0,0)"><path fill="url(#__lottie_element_1787)" fill-opacity="1" d=" M40.92399978637695,145.83599853515625 C41.19300079345703,95.80500030517578 41.95899963378906,67.7750015258789 35.16299819946289,59.61800003051758 C27.711999893188477,50.67499923706055 20.388999938964844,53.97100067138672 -5.4039998054504395,53.832000732421875 C-31.483999252319336,53.69200134277344 -38.47700119018555,50.31800079345703 -46.02299880981445,59.180999755859375 C-52.90599822998047,67.26399993896484 -52.44300079345703,95.302001953125 -52.71200180053711,145.33200073242188 C-52.89899826049805,180.14599609375 -54.40700149536133,202.97500610351562 -43.18000030517578,214.37399291992188 C-31.952999114990234,225.7729949951172 -16.209999084472656,225.77099609375 -6.326000213623047,225.82400512695312 C3.558000087738037,225.8769989013672 19.299999237060547,226.0500030517578 30.64900016784668,214.77200317382812 C41.99800109863281,203.49400329589844 40.73699951171875,180.64999389648438 40.92399978637695,145.83599853515625z"></path></g><g opacity="1" transform="matrix(1,0,0,1,0,0)"><path fill="url(#__lottie_element_1788)" fill-opacity="1" d=" M-25.301000595092773,210.82899475097656 C-25.301000595092773,210.82899475097656 -25.301000595092773,210.82899475097656 -25.301000595092773,210.82899475097656 C-36.94499969482422,210.76600646972656 -46.33399963378906,201.2760009765625 -46.270999908447266,189.6320037841797 C-46.270999908447266,189.6320037841797 -45.69300079345703,82.0999984741211 -45.69300079345703,82.0999984741211 C-45.643001556396484,72.74800109863281 -38.02000045776367,65.20700073242188 -28.667999267578125,65.25700378417969 C-28.667999267578125,65.25700378417969 -20.368000030517578,65.302001953125 -20.368000030517578,65.302001953125 C-11.015999794006348,65.35199737548828 -3.4749999046325684,72.9749984741211 -3.5250000953674316,82.3270034790039 C-3.5250000953674316,82.3270034790039 -4.104000091552734,189.85800170898438 -4.104000091552734,189.85800170898438 C-4.166999816894531,201.5019989013672 -13.656999588012695,210.89199829101562 -25.301000595092773,210.82899475097656z"></path></g><g opacity="1" transform="matrix(1,0,0,1,0,0)"><path stroke-linecap="butt" stroke-linejoin="miter" fill-opacity="0" stroke-miterlimit="10" stroke="rgb(15,16,17)" stroke-opacity="1" stroke-width="8" d=" M40.92399978637695,145.83599853515625 C41.19300079345703,95.80500030517578 41.95899963378906,67.7750015258789 35.16299819946289,59.61800003051758 C27.711999893188477,50.67499923706055 20.388999938964844,53.97100067138672 -5.4039998054504395,53.832000732421875 C-31.483999252319336,53.69200134277344 -38.47700119018555,50.31800079345703 -46.02299880981445,59.180999755859375 C-52.90599822998047,67.26399993896484 -52.44300079345703,95.302001953125 -52.71200180053711,145.33200073242188 C-52.89899826049805,180.14599609375 -54.40700149536133,202.97500610351562 -43.18000030517578,214.37399291992188 C-31.952999114990234,225.7729949951172 -16.209999084472656,225.77099609375 -6.326000213623047,225.82400512695312 C3.558000087738037,225.8769989013672 19.299999237060547,226.0500030517578 30.64900016784668,214.77200317382812 C41.99800109863281,203.49400329589844 40.73699951171875,180.64999389648438 40.92399978637695,145.83599853515625z"></path></g><g opacity="1" transform="matrix(1,0,0,1,0,0)"><path stroke-linecap="round" stroke-linejoin="round" fill-opacity="0" stroke="rgb(72,89,100)" stroke-opacity="1" stroke-width="8" d=" M37.08300018310547,203.94400024414062 C41.45100021362305,191.1280059814453 40.784000396728516,171.81399536132812 40.92399978637695,145.83599853515625 C41.19300079345703,95.80500030517578 41.95899963378906,67.7750015258789 35.16299819946289,59.61800003051758"></path></g><g opacity="1" transform="matrix(1,0,0,1,0,0)"><path fill="rgb(14,15,17)" fill-opacity="1" d=" M19.44499969482422,208.98699951171875 C19.44499969482422,208.98699951171875 19.44499969482422,208.98699951171875 19.44499969482422,208.98699951171875 C15.9350004196167,208.96800231933594 13.104000091552734,206.10699462890625 13.123000144958496,202.5970001220703 C13.123000144958496,202.5970001220703 13.791000366210938,78.29199981689453 13.791000366210938,78.29199981689453 C13.8100004196167,74.78199768066406 16.672000885009766,71.95099639892578 20.18199920654297,71.97000122070312 C20.18199920654297,71.97000122070312 20.18199920654297,71.97000122070312 20.18199920654297,71.97000122070312 C23.691999435424805,71.98899841308594 26.523000717163086,74.8499984741211 26.503999710083008,78.36000061035156 C26.503999710083008,78.36000061035156 25.834999084472656,202.6649932861328 25.834999084472656,202.6649932861328 C25.81599998474121,206.1750030517578 22.954999923706055,209.00599670410156 19.44499969482422,208.98699951171875z"></path></g><g opacity="1" transform="matrix(1,0,0,1,0,0)"><path fill="rgb(72,89,100)" fill-opacity="1" d=" M33.290000915527344,202.6580047607422 C30.77400016784668,209.8560028076172 28.95400047302246,220.9949951171875 14.029000282287598,228.16299438476562 C14.029000282287598,228.16299438476562 35.606998443603516,223.9969940185547 40.86399841308594,205.14999389648438 C40.86399841308594,205.14999389648438 33.290000915527344,202.6580047607422 33.290000915527344,202.6580047607422z"></path></g><g opacity="1" transform="matrix(1,0,0,1,0,0)"><path fill="rgb(72,89,100)" fill-opacity="1" d=" M11.786999702453613,49.48400115966797 C11.786999702453613,49.48400115966797 25.695999145507812,48.11600112915039 32.11199951171875,51.858001708984375 C37.03799819946289,54.73099899291992 38.71699905395508,57.45500183105469 40.37099838256836,60.43299865722656 C40.37099838256836,60.43299865722656 32.319000244140625,62.430999755859375 32.319000244140625,62.430999755859375 C32.319000244140625,62.430999755859375 26.099000930786133,51.23699951171875 11.786999702453613,49.48400115966797z"></path></g></g><g style="display: block;" transform="matrix(1,0,0,1,256,256)" opacity="1"><g opacity="1" transform="matrix(1,0,0,1,0,0)"><path fill="url(#__lottie_element_1783)" fill-opacity="1" d=" M1186,-180"></path><path stroke-linecap="butt" stroke-linejoin="miter" fill-opacity="0" stroke-miterlimit="4" stroke="rgb(105,137,156)" stroke-opacity="1" stroke-width="8" d=" M1186,-180"></path></g></g></g></g></svg>