<svg xmlns="http://www.w3.org/2000/svg" viewBox="0 0 512 512" width="512" height="512" style="width: 100%; height: 100%; transform: translate3d(0,0,0);" preserveAspectRatio="xMidYMid meet"><defs><clipPath id="__lottie_element_9672"><rect width="512" height="512" x="0" y="0"></rect></clipPath><linearGradient id="__lottie_element_9681" spreadMethod="pad" gradientUnits="userSpaceOnUse" x1="-131" y1="-149" x2="145.27200317382812" y2="-149"><stop offset="9%" stop-color="rgb(174,0,0)"></stop><stop offset="19%" stop-color="rgb(214,20,0)"></stop><stop offset="48%" stop-color="rgb(255,41,0)"></stop><stop offset="82%" stop-color="rgb(214,20,0)"></stop><stop offset="91%" stop-color="rgb(174,0,0)"></stop></linearGradient><linearGradient id="__lottie_element_9682" spreadMethod="pad" gradientUnits="userSpaceOnUse" x1="-169" y1="-89" x2="170.98399353027344" y2="-89"><stop offset="0%" stop-color="rgb(206,204,203)"></stop><stop offset="9%" stop-color="rgb(231,229,229)"></stop><stop offset="49%" stop-color="rgb(255,255,255)"></stop><stop offset="93%" stop-color="rgb(226,226,225)"></stop><stop offset="100%" stop-color="rgb(198,197,195)"></stop></linearGradient><linearGradient id="__lottie_element_9695" spreadMethod="pad" gradientUnits="userSpaceOnUse" x1="-63" y1="-12" x2="-49.6609992980957" y2="8.642999649047852"><stop offset="0%" stop-color="rgb(60,5,0)"></stop><stop offset="38%" stop-color="rgb(111,45,0)"></stop><stop offset="100%" stop-color="rgb(162,84,0)"></stop></linearGradient><linearGradient id="__lottie_element_9696" spreadMethod="pad" gradientUnits="userSpaceOnUse" x1="26" y1="-12" x2="39.3390007019043" y2="8.642999649047852"><stop offset="0%" stop-color="rgb(60,5,0)"></stop><stop offset="38%" stop-color="rgb(111,45,0)"></stop><stop offset="100%" stop-color="rgb(162,84,0)"></stop></linearGradient></defs><g clip-path="url(#__lottie_element_9672)"><g style="display: block;" transform="matrix(1,0,0,1,256,256)" opacity="1"><g opacity="1" transform="matrix(1,0,0,1,0,0)"><path fill="rgb(174,0,0)" fill-opacity="1" d=" M146.41400146484375,-66.71499633789062 C146.41400146484375,-66.71499633789062 152.25799560546875,-20.073999404907227 149.71499633789062,37.36800003051758 C148.1320037841797,73.12999725341797 147.28700256347656,110.96900177001953 154.25799560546875,141.75 C154.25799560546875,141.75 142.25,147 125.0250015258789,108.62699890136719 C106.08300018310547,66.4280014038086 93.68900299072266,1.4559999704360962 102.54100036621094,-38.03499984741211 C111.39299774169922,-77.5260009765625 146.41400146484375,-66.71499633789062 146.41400146484375,-66.71499633789062z"></path><path stroke-linecap="round" stroke-linejoin="round" fill-opacity="0" stroke="rgb(117,0,0)" stroke-opacity="1" stroke-width="8" d=" M146.41400146484375,-66.71499633789062 C146.41400146484375,-66.71499633789062 152.25799560546875,-20.073999404907227 149.71499633789062,37.36800003051758 C148.1320037841797,73.12999725341797 147.28700256347656,110.96900177001953 154.25799560546875,141.75 C154.25799560546875,141.75 142.25,147 125.0250015258789,108.62699890136719 C106.08300018310547,66.4280014038086 93.68900299072266,1.4559999704360962 102.54100036621094,-38.03499984741211 C111.39299774169922,-77.5260009765625 146.41400146484375,-66.71499633789062 146.41400146484375,-66.71499633789062z"></path></g></g><g style="display: block;" transform="matrix(1,0,0,1,256,256)" opacity="1"><g opacity="1" transform="matrix(1,0,0,1,0,0)"><path fill="rgb(235,234,234)" fill-opacity="1" d=" M162.4770050048828,122.53600311279297 C178.83299255371094,125.5 187.58200073242188,138.09800720214844 186.51300048828125,151.96600341796875 C185.44400024414062,165.83399963378906 176.56199645996094,177.52099609375 156.531005859375,177.66099548339844 C136.5,177.80099487304688 126.16699981689453,159.83399963378906 131.98300170898438,143.4499969482422 C135.26800537109375,134.197998046875 146.12100219726562,119.5719985961914 162.4770050048828,122.53600311279297z"></path></g><g opacity="0.2" transform="matrix(1,0,0,1,0,0)"><path fill="rgb(144,148,158)" fill-opacity="1" d=" M131.53199768066406,146.1479949951172 C131.79200744628906,149.59800720214844 135.95199584960938,152.8280029296875 135.95199584960938,152.8280029296875 C135.3730010986328,162.08900451660156 146.33200073242188,160.48800659179688 146.33200073242188,160.48800659179688 C150.25,166.08299255371094 160.08299255371094,165.41600036621094 164.07200622558594,160.84800720214844 C170.58299255371094,162.66600036621094 177.5,157.58299255371094 174.6219940185547,150.13800048828125 C174.6219940185547,150.13800048828125 179.95799255371094,147.57200622558594 177.19200134277344,143.2779998779297 C177.19200134277344,143.2779998779297 179.82200622558594,134.20799255371094 179.82200622558594,134.20799255371094 C209,189.625 114.25,188 131.53199768066406,146.1479949951172z"></path></g><g opacity="1" transform="matrix(1,0,0,1,0,0)"><path stroke-linecap="butt" stroke-linejoin="miter" fill-opacity="0" stroke-miterlimit="10" stroke="rgb(180,176,173)" stroke-opacity="1" stroke-width="8" d=" M150.18899536132812,126.62200164794922 C157.36500549316406,121.70899963378906 163.33099365234375,122.50900268554688 168.32200622558594,127.91200256347656 C168.32200622558594,127.91200256347656 175.31100463867188,126.76000213623047 179.01199340820312,132.71800231933594 C181.60899353027344,136.8990020751953 181.26100158691406,140.88900756835938 181.26100158691406,140.88900756835938 C187.625,144.375 188.375,155.48199462890625 181.93499755859375,159.3820037841797 C184.5,168 178.625,176.125 168.89599609375,174.86500549316406 C161.4739990234375,180.1060028076172 154.38400268554688,180.4250030517578 147.76300048828125,173.7899932861328 C147.76300048828125,173.7899932861328 139.69700622558594,172.7519989013672 134.94900512695312,167.69400024414062 C130.76300048828125,163.23500061035156 130.0030059814453,157.23800659179688 132.0260009765625,152.49899291992188 C132.0260009765625,152.49899291992188 128.9010009765625,141.4720001220703 137.33399963378906,135.79400634765625 C137.33399963378906,135.79400634765625 139.0780029296875,126.9540023803711 150.18899536132812,126.62200164794922z"></path></g></g><g style="display: block;" transform="matrix(1,0,0,1,256,256)" opacity="1"><g opacity="1" transform="matrix(1,0,0,1,0,0)"><path fill="rgb(255,170,0)" fill-opacity="1" d=" M-127.26599884033203,-11.34000015258789 C-127.26599884033203,-11.34000015258789 -135.3699951171875,-18.51300048828125 -142.4149932861328,-11.392999649047852 C-150.0229949951172,-3.7039999961853027 -139.1739959716797,20.031999588012695 -136.92999267578125,41.03499984741211 C-134.68600463867188,62.03799819946289 -111.33999633789062,15.25 -127.26599884033203,-11.34000015258789z"></path><path stroke-linecap="round" stroke-linejoin="round" fill-opacity="0" stroke="rgb(220,109,0)" stroke-opacity="1" stroke-width="8" d=" M-127.26599884033203,-11.34000015258789 C-127.26599884033203,-11.34000015258789 -135.3699951171875,-18.51300048828125 -142.4149932861328,-11.392999649047852 C-150.0229949951172,-3.7039999961853027 -139.1739959716797,20.031999588012695 -136.92999267578125,41.03499984741211 C-134.68600463867188,62.03799819946289 -111.33999633789062,15.25 -127.26599884033203,-11.34000015258789z"></path></g><g opacity="1" transform="matrix(1,0,0,1,0,0)"><path fill="rgb(255,170,0)" fill-opacity="1" d=" M123.24099731445312,-11.34000015258789 C123.24099731445312,-11.34000015258789 131.34500122070312,-18.51300048828125 138.38999938964844,-11.392999649047852 C145.9980010986328,-3.7039999961853027 135.1490020751953,20.031999588012695 132.90499877929688,41.03499984741211 C130.66099548339844,62.03799819946289 107.31500244140625,15.25 123.24099731445312,-11.34000015258789z"></path><path stroke-linecap="round" stroke-linejoin="round" fill-opacity="0" stroke="rgb(220,109,0)" stroke-opacity="1" stroke-width="8" d=" M123.24099731445312,-11.34000015258789 C123.24099731445312,-11.34000015258789 131.34500122070312,-18.51300048828125 138.38999938964844,-11.392999649047852 C145.9980010986328,-3.7039999961853027 135.1490020751953,20.031999588012695 132.90499877929688,41.03499984741211 C130.66099548339844,62.03799819946289 107.31500244140625,15.25 123.24099731445312,-11.34000015258789z"></path></g></g><g style="display: block;" transform="matrix(1,0,0,1,256,256)" opacity="1"><g opacity="1" transform="matrix(1,0,0,1,0,0)"><path fill="rgb(255,205,0)" fill-opacity="1" d=" M90,128.21299743652344 C11.331000328063965,184.82000732421875 -78.37799835205078,141.86700439453125 -97.5,129.73800659179688 C-145.91299438476562,99.02999877929688 -121.13300323486328,-18.226999282836914 -121.9280014038086,-75.00199890136719 C-122.70500183105469,-130.52200317382812 108,-139.5 113.58200073242188,-83.6719970703125 C119.0780029296875,-63.45199966430664 144.26199340820312,89.16899871826172 90,128.21299743652344z"></path></g></g><g style="display: block;" transform="matrix(1,0,0,1,256,256)" opacity="1"><g opacity="1" transform="matrix(1,0,0,1,0,0)"><path fill="rgb(255,169,0)" fill-opacity="1" d=" M117.71700286865234,-41.367000579833984 C117.71700286865234,-41.367000579833984 106.83699798583984,-39.66699981689453 98.75700378417969,-52.62699890136719 C98.75700378417969,-52.62699890136719 85.4469985961914,-44.21699905395508 66.46700286865234,-57.016998291015625 C66.46700286865234,-57.016998291015625 59.5369987487793,-42.547000885009766 41.5369987487793,-58.32699966430664 C26.25,-47.84000015258789 1.3420000076293945,-46.58300018310547 -10.45300006866455,-59.856998443603516 C-16.5,-45.34600067138672 -53.231998443603516,-40.5 -61.78300094604492,-55.72700119018555 C-61.78300094604492,-55.72700119018555 -73.15299987792969,-46.16699981689453 -84.59300231933594,-53.867000579833984 C-85.12799835205078,-47.77000045776367 -92.71800231933594,-41.71799850463867 -100.4260025024414,-40.25 C-105.77999877929688,-39.22999954223633 -111.19000244140625,-40.422000885009766 -114.33300018310547,-45.34600067138672 C-114.33300018310547,-45.34600067138672 -127.10199737548828,-65.74500274658203 -121.9229965209961,-74.99700164794922 C-102.75,-109.25 101.64700317382812,-118.11699676513672 113.45700073242188,-83.62699890136719 C113.45700073242188,-83.62699890136719 119.28700256347656,-27.586999893188477 117.71700286865234,-41.367000579833984z"></path></g></g><g style="display: block;" transform="matrix(1,0,0,1,256,256)" opacity="1"><g opacity="1" transform="matrix(1,0,0,1,0,0)"><path fill="rgb(255,169,0)" fill-opacity="1" d=" M117.90699768066406,-75.00199890136719 C117.90699768066406,-75.00199890136719 86.38800048828125,-82.77200317382812 86.38800048828125,-82.77200317382812 C86.38800048828125,-82.77200317382812 86.78299713134766,-52.345001220703125 86.78299713134766,-52.345001220703125 C98.70600128173828,-43.34299850463867 103.36699676513672,-26.04199981689453 102.91699981689453,-0.10199999809265137 C102.46700286865234,25.847999572753906 108.02300262451172,84.61699676513672 65.14800262451172,74.11799621582031 C13.482999801635742,61.465999603271484 -29.350000381469727,63.80400085449219 -69.16799926757812,74.11799621582031 C-111.9000015258789,85.18699645996094 -106.48799896240234,25.847999572753906 -106.93800354003906,-0.10199999809265137 C-107.38800048828125,-26.04199981689453 -106.2229995727539,-35.215999603271484 -92.86199951171875,-44.70600128173828 C-92.86199951171875,-44.70600128173828 -90.40799713134766,-82.77200317382812 -90.40799713134766,-82.77200317382812 C-90.40799713134766,-82.77200317382812 -121.9280014038086,-75.00199890136719 -121.9280014038086,-75.00199890136719 C-138.4080047607422,-5.698999881744385 -129.79400634765625,122.46399688720703 -121.73799896240234,122.50800323486328 C-82.26799774169922,97.39099884033203 -42.56700134277344,77.26100158691406 -2.249000072479248,70.47100067138672 C40.31700134277344,77.29100036621094 79.82599639892578,96.59100341796875 117.71700286865234,122.50800323486328 C126.37300109863281,126.7249984741211 126.76799774169922,-62.87799835205078 117.90699768066406,-75.00199890136719z"></path></g><g opacity="1" transform="matrix(1,0,0,1,0,0)"><path fill="rgb(255,205,0)" fill-opacity="1" d=" M110.39199829101562,160.80799865722656 C52.388999938964844,235.26400756835938 -78.2969970703125,199.5 -114.41799926757812,160.80799865722656 C-156.39599609375,115.84300231933594 -131.447998046875,13.477999687194824 -131.447998046875,-20.07200050354004 C-131.447998046875,-62.36199951171875 -118.03800201416016,-83.02200317382812 -117.61799621582031,-83.6520004272461 C-119.36799621582031,-78.53199768066406 -117.5009994506836,25.285999298095703 -119.2979965209961,35.827999114990234 C-133.1280059814453,116.96700286865234 -33.87300109863281,116.26599884033203 -18.88800048828125,105.41799926757812 C-18.88800048828125,105.41799926757812 14.732000350952148,105.41799926757812 14.732000350952148,105.41799926757812 C54.46500015258789,130.66600036621094 127.79299926757812,90.33300018310547 115.14199829101562,35.827999114990234 C112.73799896240234,25.4689998626709 115.21199798583984,-78.552001953125 113.4520034790039,-83.6719970703125 C113.4520034790039,-83.6719970703125 113.58200073242188,-83.6719970703125 113.58200073242188,-83.6719970703125 C113.58200073242188,-83.6719970703125 127.45600128173828,-63.03200149536133 127.4219970703125,-20.07200050354004 C127.38600158691406,24.5 154.2570037841797,104.5 110.39199829101562,160.80799865722656z"></path></g><g opacity="1" transform="matrix(1,0,0,1,0,0)"><path fill="rgb(245,153,0)" fill-opacity="1" d=" M110.39199829101562,160.80799865722656 C97.11399841308594,179.14999389648438 70.49199676513672,206.78799438476562 -2.007999897003174,206.78799438476562 C-74.51799774169922,206.78799438476562 -100.58799743652344,178.73800659179688 -114.41799926757812,160.80799865722656 C-146.66700744628906,119 -137.8979949951172,58.507999420166016 -137.1580047607422,49.63800048828125 C-135.22799682617188,53.72800064086914 -136.03700256347656,105.9020004272461 -110.87799835205078,134.5780029296875 C-97.3489990234375,149.9980010986328 -72.23799896240234,174.67799377441406 -2.007999897003174,174.67799377441406 C68.21199798583984,174.67799377441406 93.98200225830078,150.552001953125 106.85199737548828,134.5780029296875 C130.95199584960938,104.66699981689453 131.21200561523438,54.28799819946289 133.19200134277344,50.4379997253418 C133.90199279785156,59.06800079345703 145,113 110.39199829101562,160.80799865722656z"></path></g><g opacity="1" transform="matrix(1,0,0,1,0,0)"><path fill="rgb(255,170,0)" fill-opacity="1" d=" M-119.38700103759766,-60.34199905395508 C-119.38700103759766,-60.34199905395508 -119.38700103759766,-25.711999893188477 -119.38700103759766,-25.711999893188477 C-119.38700103759766,-25.711999893188477 -119.38700103759766,-25.711999893188477 -119.38700103759766,-25.70199966430664 C-119.58699798583984,-24.871999740600586 -128.47799682617188,12.07800006866455 -133.41799926757812,44.678001403808594 C-133.41799926757812,44.678001403808594 -136.66799926757812,44.14799880981445 -136.66799926757812,44.14799880981445 C-134.60800170898438,22.398000717163086 -131.447998046875,2.5179998874664307 -131.447998046875,-20.07200050354004 C-131.447998046875,-38.672000885009766 -128.85800170898438,-53.082000732421875 -125.90799713134766,-63.45199966430664 C-125.90799713134766,-63.45199966430664 -120.26799774169922,-60.762001037597656 -120.26799774169922,-60.762001037597656 C-120.26799774169922,-60.762001037597656 -119.38700103759766,-60.34199905395508 -119.38700103759766,-60.34199905395508z"></path></g><g opacity="1" transform="matrix(1,0,0,1,0,0)"><path fill="rgb(255,170,0)" fill-opacity="1" d=" M115.13899993896484,-60.34199905395508 C115.13899993896484,-60.34199905395508 115.13899993896484,-25.711999893188477 115.13899993896484,-25.711999893188477 C115.13899993896484,-25.711999893188477 115.13899993896484,-25.711999893188477 115.13899993896484,-25.70199966430664 C115.33899688720703,-24.871999740600586 124.22899627685547,12.07800006866455 129.16900634765625,44.678001403808594 C129.16900634765625,44.678001403808594 132.41900634765625,44.14799880981445 132.41900634765625,44.14799880981445 C130.35899353027344,22.398000717163086 127.1989974975586,2.5179998874664307 127.1989974975586,-20.07200050354004 C127.1989974975586,-38.672000885009766 124.60900115966797,-53.082000732421875 121.65899658203125,-63.45199966430664 C121.65899658203125,-63.45199966430664 116.01899719238281,-60.762001037597656 116.01899719238281,-60.762001037597656 C116.01899719238281,-60.762001037597656 115.13899993896484,-60.34199905395508 115.13899993896484,-60.34199905395508z"></path></g><g opacity="1" transform="matrix(1,0,0,1,0,0)"><path stroke-linecap="round" stroke-linejoin="round" fill-opacity="0" stroke="rgb(220,109,0)" stroke-opacity="1" stroke-width="8" d=" M-120.2979965209961,-67.14199829101562 C-120.2979965209961,-37.762001037597656 -118.51100158691406,11.993000030517578 -119.2979965209961,35.827999114990234 C-120.27899932861328,65.56099700927734 -116.46700286865234,85.5979995727539 -87.63700103759766,99.11799621582031 C-66.95500183105469,108.81900024414062 -31.465999603271484,118.25 -19.88800048828125,105.41799926757812 C-7.875,107.875 3.75,107.75 15.732000350952148,105.41799926757812 C27.93199920654297,120 62.79199981689453,108.81800079345703 83.48200225830078,99.11799621582031 C112.302001953125,85.5979995727539 116.33699798583984,65.5530014038086 115.14199829101562,35.827999114990234 C114.06800079345703,9.109000205993652 116.14199829101562,-37.84199905395508 116.14199829101562,-67.14199829101562"></path></g><g opacity="1" transform="matrix(1,0,0,1,0,0)"><path stroke-linecap="round" stroke-linejoin="round" fill-opacity="0" stroke="rgb(197,91,0)" stroke-opacity="1" stroke-width="8" d=" M127.4219970703125,-20.07200050354004 C127.00499725341797,-63.029998779296875 113.58200073242188,-83.6719970703125 113.58200073242188,-83.6719970703125 C113.58200073242188,-83.6719970703125 113.4520034790039,-83.6719970703125 113.4520034790039,-83.6719970703125 C113.45600128173828,-83.66000366210938 113.4540023803711,-83.64800262451172 113.45700073242188,-83.63600158691406 C82,-144.5850067138672 -97.5,-131.5 -117.6240005493164,-83.61299896240234 C-117.61900329589844,-83.6259994506836 -117.62300109863281,-83.63800048828125 -117.61799621582031,-83.6520004272461 C-118.03800201416016,-83.02200317382812 -131.447998046875,-62.36199951171875 -131.447998046875,-20.07200050354004 C-131.447998046875,13.477999687194824 -156.33399963378906,110.96900177001953 -114.41799926757812,160.80799865722656 C-99.84300231933594,178.13800048828125 -74.51799774169922,206.78799438476562 -2.007999897003174,206.78799438476562 C70.49199676513672,206.78799438476562 96.8740005493164,178.9739990234375 110.39199829101562,160.80799865722656 C152.66600036621094,104 127.79299926757812,18.183000564575195 127.4219970703125,-20.07200050354004z"></path></g></g><g style="display: block;" transform="matrix(1,0,0,1,255.99899291992188,256)" opacity="1"><g opacity="1" transform="matrix(1,0,0,1,0,0)"><path fill="rgb(255,224,112)" fill-opacity="1" d=" M27.93199920654297,83.06400299072266 C28.510000228881836,91.65499877929688 14.526000022888184,100.98699951171875 -2.01200008392334,100.98699951171875 C-18.549999237060547,100.98699951171875 -31.957000732421875,91.67400360107422 -31.957000732421875,83.06400299072266 C-31.957000732421875,63.40299987792969 26.33300018310547,59.28799819946289 27.93199920654297,83.06400299072266z"></path></g><g opacity="1" transform="matrix(1,0,0,1,0,0)"><path fill="rgb(136,24,4)" fill-opacity="1" d=" M22.46299934387207,87.83899688720703 C19.121999740600586,92.99400329589844 9.222999572753906,96.27100372314453 -2.0179998874664307,96.27100372314453 C-13.248000144958496,96.27100372314453 -23.10300064086914,92.96600341796875 -26.48699951171875,87.83899688720703 C-36.83300018310547,72.16600036621094 30.083999633789062,76.08300018310547 22.46299934387207,87.83899688720703z"></path></g></g><g style="display: block;" transform="matrix(1,0,0,1,255.99899291992188,256)" opacity="1"><g opacity="1" transform="matrix(1,0,0,1,0,0)"><g opacity="1" transform="matrix(1,0,0,1,0,0)"><g opacity="1" transform="matrix(1,0,0,1,0,0)"><path fill="rgb(255,245,201)" fill-opacity="1" d=" M-29.381000518798828,8.83899974822998 C-29.381000518798828,8.83899974822998 -27.36400032043457,-25.1299991607666 -55.45800018310547,-28.06599998474121 C-88.57599639892578,-31.527000427246094 -92.21900177001953,6.742000102996826 -92.21900177001953,6.742000102996826 C-92.21900177001953,6.742000102996826 -82.61699676513672,16.29599952697754 -65.1709976196289,17.878000259399414 C-39.95800018310547,20.163999557495117 -29.381000518798828,8.83899974822998 -29.381000518798828,8.83899974822998z"></path></g></g><g opacity="1" transform="matrix(1,0,0,1,0,0)"><g opacity="1" transform="matrix(1,0,0,1,0,0)"><path fill="url(#__lottie_element_9695)" fill-opacity="1" d=" M-38.57600021362305,-5.698999881744385 C-38.57600021362305,5.249000072479248 -47.492000579833984,14.123000144958496 -58.4900016784668,14.123000144958496 C-69.48799896240234,14.123000144958496 -78.40399932861328,5.249000072479248 -78.40399932861328,-5.698999881744385 C-78.40399932861328,-16.645999908447266 -69.48799896240234,-25.52199935913086 -58.4900016784668,-25.52199935913086 C-47.492000579833984,-25.52199935913086 -38.57600021362305,-16.645999908447266 -38.57600021362305,-5.698999881744385z"></path></g><g opacity="1" transform="matrix(1,0,0,1,0,0)"><path fill="rgb(24,19,9)" fill-opacity="1" d=" M-45.90399932861328,-5.698999881744385 C-45.90399932861328,1.2200000286102295 -51.53900146484375,6.828000068664551 -58.4900016784668,6.828000068664551 C-65.44100189208984,6.828000068664551 -71.07599639892578,1.2200000286102295 -71.07599639892578,-5.698999881744385 C-71.07599639892578,-12.618000030517578 -65.44100189208984,-18.226999282836914 -58.4900016784668,-18.226999282836914 C-51.53900146484375,-18.226999282836914 -45.90399932861328,-12.618000030517578 -45.90399932861328,-5.698999881744385z"></path></g><g opacity="1" transform="matrix(1,0,0,1,0,0)"><path fill="rgb(243,243,243)" fill-opacity="1" d=" M-59.60499954223633,-15.52400016784668 C-59.60499954223633,-12.897000312805176 -61.744998931884766,-10.765999794006348 -64.38500213623047,-10.765999794006348 C-67.0250015258789,-10.765999794006348 -69.16400146484375,-12.897000312805176 -69.16400146484375,-15.52400016784668 C-69.16400146484375,-18.150999069213867 -67.0250015258789,-20.2810001373291 -64.38500213623047,-20.2810001373291 C-61.744998931884766,-20.2810001373291 -59.60499954223633,-18.150999069213867 -59.60499954223633,-15.52400016784668z"></path></g><g opacity="1" transform="matrix(1,0,0,1,0,0)"><path stroke-linecap="round" stroke-linejoin="round" fill-opacity="0" stroke="rgb(235,147,0)" stroke-opacity="1" stroke-width="3.5" d=" M-43.75299835205078,-0.10000000149011612 C-45.233001708984375,4.290999889373779 -48.77399826049805,7.739999771118164 -53.231998443603516,9.109000205993652"></path></g></g><g opacity="1" transform="matrix(1,0,0,1,-113.51399993896484,-0.625)"><path fill="rgb(255,205,0)" fill-opacity="1" d=" M91.48300170898438,7.710999965667725 C56.875,28.75 33.861000061035156,16.003000259399414 23.900999069213867,9.722000122070312 C20.264999389648438,14.055000305175781 41,23.5 55.01100158691406,24.042999267578125 C72.24800109863281,24.711000442504883 84,18.5 91.48300170898438,7.710999965667725z"></path></g><g opacity="1" transform="matrix(1,0,0,1,0,0)"><g opacity="1" transform="matrix(1,0,0,1,0,0)"><path fill="rgb(255,205,0)" fill-opacity="1" d=" M-27.298999786376953,7.551000118255615 C-27.298999786376953,7.551000118255615 -27.485000610351562,-29.365999221801758 -60.54899978637695,-28.28700065612793 C-88.5,-27.375 -93.63600158691406,5.900000095367432 -93.63600158691406,5.900000095367432 C-93.63600158691406,5.900000095367432 -92.51200103759766,-29.19300079345703 -61.65299987792969,-31.5 C-46.803001403808594,-32.61000061035156 -22.75,-21 -27.298999786376953,7.551000118255615z"></path></g><g opacity="1" transform="matrix(1,0,0,1,0,0)"><path fill="rgb(142,58,0)" fill-opacity="1" d=" M-31.46500015258789,-9.730999946594238 C-31.46500015258789,-9.730999946594238 -37.417999267578125,-30.549999237060547 -60.79800033569336,-29.121999740600586 C-86.84100341796875,-27.5310001373291 -92.09500122070312,1.2680000066757202 -92.09500122070312,1.2680000066757202 C-92.09500122070312,1.2680000066757202 -84.26100158691406,-26.554000854492188 -60.79800033569336,-27.28700065612793 C-37.334999084472656,-28.020000457763672 -31.46500015258789,-9.730999946594238 -31.46500015258789,-9.730999946594238z"></path><path stroke-linecap="round" stroke-linejoin="round" fill-opacity="0" stroke="rgb(142,58,0)" stroke-opacity="1" stroke-width="2" d=" M-31.46500015258789,-9.730999946594238 C-31.46500015258789,-9.730999946594238 -37.417999267578125,-30.549999237060547 -60.79800033569336,-29.121999740600586 C-86.84100341796875,-27.5310001373291 -92.09500122070312,1.2680000066757202 -92.09500122070312,1.2680000066757202 C-92.09500122070312,1.2680000066757202 -84.26100158691406,-26.554000854492188 -60.79800033569336,-27.28700065612793 C-37.334999084472656,-28.020000457763672 -31.46500015258789,-9.730999946594238 -31.46500015258789,-9.730999946594238z"></path></g></g></g><g opacity="1" transform="matrix(1,0,0,1,0,0)"><g opacity="1" transform="matrix(1,0,0,1,0,0)"><g opacity="1" transform="matrix(1,0,0,1,0,0)"><path fill="rgb(255,245,201)" fill-opacity="1" d=" M25.35700035095215,8.83899974822998 C25.35700035095215,8.83899974822998 23.339000701904297,-25.1299991607666 51.43299865722656,-28.06599998474121 C84.5510025024414,-31.527000427246094 88.19400024414062,6.742000102996826 88.19400024414062,6.742000102996826 C88.19400024414062,6.742000102996826 78.59300231933594,16.29599952697754 61.14699935913086,17.878000259399414 C35.933998107910156,20.163999557495117 25.35700035095215,8.83899974822998 25.35700035095215,8.83899974822998z"></path></g></g><g opacity="1" transform="matrix(1,0,0,1,0,0)"><g opacity="1" transform="matrix(1,0,0,1,0,0)"><path fill="url(#__lottie_element_9696)" fill-opacity="1" d=" M74.37999725341797,-5.698999881744385 C74.37999725341797,5.249000072479248 65.46299743652344,14.123000144958496 54.46500015258789,14.123000144958496 C43.46699905395508,14.123000144958496 34.55099868774414,5.249000072479248 34.55099868774414,-5.698999881744385 C34.55099868774414,-16.645999908447266 43.46699905395508,-25.52199935913086 54.46500015258789,-25.52199935913086 C65.46299743652344,-25.52199935913086 74.37999725341797,-16.645999908447266 74.37999725341797,-5.698999881744385z"></path></g><g opacity="1" transform="matrix(1,0,0,1,0,0)"><path fill="rgb(24,19,9)" fill-opacity="1" d=" M67.0510025024414,-5.698999881744385 C67.0510025024414,1.2200000286102295 61.41600036621094,6.828000068664551 54.46500015258789,6.828000068664551 C47.513999938964844,6.828000068664551 41.87900161743164,1.2200000286102295 41.87900161743164,-5.698999881744385 C41.87900161743164,-12.618000030517578 47.513999938964844,-18.226999282836914 54.46500015258789,-18.226999282836914 C61.41600036621094,-18.226999282836914 67.0510025024414,-12.618000030517578 67.0510025024414,-5.698999881744385z"></path></g><g opacity="1" transform="matrix(1,0,0,1,0,0)"><path fill="rgb(243,243,243)" fill-opacity="1" d=" M53.349998474121094,-15.52400016784668 C53.349998474121094,-12.897000312805176 51.209999084472656,-10.765999794006348 48.56999969482422,-10.765999794006348 C45.930999755859375,-10.765999794006348 43.79100036621094,-12.897000312805176 43.79100036621094,-15.52400016784668 C43.79100036621094,-18.150999069213867 45.930999755859375,-20.2810001373291 48.56999969482422,-20.2810001373291 C51.209999084472656,-20.2810001373291 53.349998474121094,-18.150999069213867 53.349998474121094,-15.52400016784668z"></path></g><g opacity="1" transform="matrix(1,0,0,1,0,0)"><path stroke-linecap="round" stroke-linejoin="round" fill-opacity="0" stroke="rgb(235,147,0)" stroke-opacity="1" stroke-width="3.5" d=" M69.2020034790039,-0.10000000149011612 C67.72200012207031,4.290999889373779 64.18000030517578,7.739999771118164 59.72200012207031,9.109000205993652"></path></g></g><g opacity="1" transform="matrix(1,0,0,1,0,0)"><path fill="rgb(255,205,0)" fill-opacity="1" d=" M91.48300170898438,7.710999965667725 C56.875,28.75 33.861000061035156,16.003000259399414 23.900999069213867,9.722000122070312 C20.264999389648438,14.055000305175781 41,23.5 55.01100158691406,24.042999267578125 C72.24800109863281,24.711000442504883 84,18.5 91.48300170898438,7.710999965667725z"></path></g><g opacity="1" transform="matrix(1,0,0,1,0,0)"><g opacity="1" transform="matrix(1,0,0,1,0,0)"><path fill="rgb(255,205,0)" fill-opacity="1" d=" M22.79199981689453,7.051000118255615 C22.79199981689453,7.051000118255615 23.784000396728516,-30.041000366210938 55.66699981689453,-28.28700065612793 C85.875,-26.625 89.37899780273438,6.025000095367432 89.37899780273438,6.025000095367432 C89.37899780273438,6.025000095367432 89.875,-29.75 56.77000045776367,-31.5 C41.89899826049805,-32.2859992980957 22.875,-24 22.79199981689453,7.051000118255615z"></path></g><g opacity="1" transform="matrix(1,0,0,1,0,0)"><path fill="rgb(142,58,0)" fill-opacity="1" d=" M27.44099998474121,-9.730999946594238 C27.44099998474121,-9.730999946594238 33.393001556396484,-30.549999237060547 56.77299880981445,-29.121999740600586 C82.81600189208984,-27.5310001373291 88.06999969482422,1.2680000066757202 88.06999969482422,1.2680000066757202 C88.06999969482422,1.2680000066757202 80.23600006103516,-26.554000854492188 56.77299880981445,-27.28700065612793 C33.310001373291016,-28.020000457763672 27.44099998474121,-9.730999946594238 27.44099998474121,-9.730999946594238z"></path><path stroke-linecap="round" stroke-linejoin="round" fill-opacity="0" stroke="rgb(142,58,0)" stroke-opacity="1" stroke-width="2" d=" M27.44099998474121,-9.730999946594238 C27.44099998474121,-9.730999946594238 33.393001556396484,-30.549999237060547 56.77299880981445,-29.121999740600586 C82.81600189208984,-27.5310001373291 88.06999969482422,1.2680000066757202 88.06999969482422,1.2680000066757202 C88.06999969482422,1.2680000066757202 80.23600006103516,-26.554000854492188 56.77299880981445,-27.28700065612793 C33.310001373291016,-28.020000457763672 27.44099998474121,-9.730999946594238 27.44099998474121,-9.730999946594238z"></path></g></g></g></g><g style="display: block;" transform="matrix(1,0,0,1,255.99899291992188,256)" opacity="1"><g opacity="1" transform="matrix(1,0,0,1,0,0)"><g opacity="1" transform="matrix(1,0,0,1,0,0)"><path stroke-linecap="round" stroke-linejoin="round" fill-opacity="0" stroke="rgb(216,134,0)" stroke-opacity="1" stroke-width="14" d=" M-43.595001220703125,-47.777000427246094 C-43.595001220703125,-47.777000427246094 -63.617000579833984,-50.63999938964844 -78.2969970703125,-43.34299850463867"></path></g><g opacity="1" transform="matrix(1,0,0,1,0,0)"><path stroke-linecap="round" stroke-linejoin="round" fill-opacity="0" stroke="rgb(242,170,0)" stroke-opacity="1" stroke-width="11" d=" M-43.617000579833984,-49.78099822998047 C-43.617000579833984,-49.78099822998047 -63.63800048828125,-52.643001556396484 -78.31800079345703,-45.34600067138672"></path></g></g><g opacity="1" transform="matrix(1,0,0,1,0,0)"><g opacity="1" transform="matrix(1,0,0,1,0,0)"><path stroke-linecap="round" stroke-linejoin="round" fill-opacity="0" stroke="rgb(216,134,0)" stroke-opacity="1" stroke-width="14" d=" M39.39799880981445,-47.777000427246094 C39.39799880981445,-47.777000427246094 59.41999816894531,-50.63999938964844 74.0999984741211,-43.34299850463867"></path></g><g opacity="1" transform="matrix(1,0,0,1,0,0)"><path stroke-linecap="round" stroke-linejoin="round" fill-opacity="0" stroke="rgb(242,170,0)" stroke-opacity="1" stroke-width="11" d=" M39.41999816894531,-49.78099822998047 C39.41999816894531,-49.78099822998047 59.441001892089844,-52.643001556396484 74.12100219726562,-45.34600067138672"></path></g></g></g><g style="display: block;" transform="matrix(1,0,0,1,255.99899291992188,256)" opacity="1"><g opacity="1" transform="matrix(1,0,0,1,0,0)"><path fill="rgb(255,170,0)" fill-opacity="1" d=" M82.06999969482422,75.4229965209961 C82.06999969482422,75.4229965209961 84.64199829101562,77.43299865722656 82.06999969482422,79.58599853515625 C78.33499908447266,82.71199798583984 71.05000305175781,78.83100128173828 54.46500015258789,65.69000244140625 C36.095001220703125,51.1349983215332 14.89900016784668,54.66999816894531 -2.01200008392334,54.66999816894531 C-18.92300033569336,54.66999816894531 -40.119998931884766,51.1349983215332 -58.4900016784668,65.69000244140625 C-75.07499694824219,78.83100128173828 -82.33300018310547,83.01899719238281 -86.09500122070312,79.58599853515625 C-88.1709976196289,77.69100189208984 -86.09500122070312,75.4229965209961 -86.09500122070312,75.4229965209961 C-86.09500122070312,75.4229965209961 -106.2239990234375,79.66699981689453 -101.97899627685547,96.37999725341797 C-98.31099700927734,110.82099914550781 -45.90399932861328,82.08000183105469 -2.01200008392334,80.79000091552734 C41.880001068115234,79.5 94.28600311279297,110.82099914550781 97.9540023803711,96.37999725341797 C102.1989974975586,79.66699981689453 82.06999969482422,75.4229965209961 82.06999969482422,75.4229965209961z"></path></g><g opacity="0.3" transform="matrix(1,0,0,1,0,0)"><path fill="rgb(197,91,0)" fill-opacity="1" d=" M-5.822000026702881,75.25 C-31.46500015258789,72.98799896240234 -104.2239990234375,89.73300170898438 -99.97899627685547,106.44599914550781 C-95.73500061035156,123.15899658203125 -69.88099670410156,129.19900512695312 -46.270999908447266,113.01699829101562 C-22.660999298095703,96.83499908447266 -17.145999908447266,90.18800354003906 -2.01200008392334,90.18800354003906 C13.121999740600586,90.18800354003906 18.63599967956543,96.83499908447266 42.24599838256836,113.01699829101562 C65.85600280761719,129.19900512695312 91.70899963378906,123.15899658203125 95.9540023803711,106.44599914550781 C100.1989974975586,89.73300170898438 29.613000869750977,78.3759994506836 -5.822000026702881,75.25z"></path></g><g opacity="1" transform="matrix(1,0,0,1,0,0)"><path fill="rgb(88,11,14)" fill-opacity="1" d=" M22.461999893188477,87.83799743652344 C22.482999801635742,90.79000091552734 17.54199981689453,92.25800323486328 13.51200008392334,93.73799896240234 C8.46399974822998,89.9010009765625 -12.9350004196167,89.8270034790039 -17.538000106811523,93.73799896240234 C-21.577999114990234,92.25800323486328 -26.15399932861328,90.7770004272461 -26.488000869750977,87.83799743652344 C-28.621999740600586,69.03700256347656 22.315000534057617,67.06300354003906 22.461999893188477,87.83799743652344z"></path></g><g opacity="1" transform="matrix(1,0,0,1,0,0)"><path fill="rgb(255,205,0)" fill-opacity="1" d=" M87.06999969482422,81.4229965209961 C87.06999969482422,81.4229965209961 90.41400146484375,85.26200103759766 87.06999969482422,88.58599853515625 C82.64800262451172,92.98100280761719 70.05000305175781,83.83100128173828 53.46500015258789,70.69000244140625 C35.095001220703125,56.1349983215332 14.89900016784668,59.66999816894531 -2.01200008392334,59.66999816894531 C-18.92300033569336,59.66999816894531 -39.119998931884766,56.1349983215332 -57.4900016784668,70.69000244140625 C-74.07499694824219,83.83100128173828 -86.6729965209961,92.98100280761719 -91.09500122070312,88.58599853515625 C-94.43900299072266,85.26200103759766 -91.09500122070312,81.4229965209961 -91.09500122070312,81.4229965209961 C-91.09500122070312,81.4229965209961 -106.2239990234375,85.66699981689453 -101.97899627685547,102.37999725341797 C-98.31099700927734,116.82099914550781 -69.30400085449219,123.73799896240234 -46.270999908447266,107.95099639892578 C-22.660999298095703,91.76899719238281 -17.145999908447266,86.79000091552734 -2.01200008392334,86.79000091552734 C13.121999740600586,86.79000091552734 18.63599967956543,91.76899719238281 42.24599838256836,107.95099639892578 C65.27899932861328,123.73799896240234 94.28600311279297,116.82099914550781 97.9540023803711,102.37999725341797 C102.1989974975586,85.66699981689453 87.06999969482422,81.4229965209961 87.06999969482422,81.4229965209961z"></path></g><g opacity="1" transform="matrix(1,0,0,1,0,0)"><path fill="rgb(220,114,0)" fill-opacity="1" d=" M42.327999114990234,107.947998046875 C18.718000411987305,91.76799774169922 13.208000183105469,86.78800201416016 -1.9220000505447388,86.78800201416016 C-17.062000274658203,86.78800201416016 -22.6299991607666,91.68299865722656 -46.18199920654297,107.947998046875 C-69.66699981689453,124.16699981689453 -106.83100128173828,118.33300018310547 -102.1719970703125,92.76799774169922 C-101.65899658203125,110.96900177001953 -70.38700103759766,113.01399993896484 -45.18199920654297,99.20800018310547 C-21.57200050354004,86.26799774169922 -17.062000274658203,82.27799987792969 -1.9220000505447388,82.27799987792969 C13.208000183105469,82.27799987792969 17.718000411987305,86.26799774169922 41.327999114990234,99.20800018310547 C66.53299713134766,113.01399993896484 95.375,112.43000030517578 98.31800079345703,92.76799774169922 C102.375,120.375 65.36799621582031,123.73799896240234 42.327999114990234,107.947998046875z"></path></g><g opacity="0.3" transform="matrix(1,0,0,1,0,0)"><path fill="rgb(197,91,0)" fill-opacity="1" d=" M22.02199935913086,59.46799850463867 C16.941999435424805,64.31800079345703 8.071999549865723,67.51799774169922 -2.007999897003174,67.51799774169922 C-12.097999572753906,67.51799774169922 -20.968000411987305,64.31800079345703 -26.04800033569336,59.46799850463867 C-17.687999725341797,58.96799850463867 13.661999702453613,58.96799850463867 22.02199935913086,59.46799850463867z"></path></g></g><g style="display: block;" transform="matrix(1,0,0,1,255.99899291992188,256)" opacity="1"><g opacity="1" transform="matrix(1,0,0,1,0,0)"><g opacity="1" transform="matrix(1,0,0,1,0,0)"><path fill="rgb(220,119,0)" fill-opacity="1" d=" M27.93199920654297,44.97200012207031 C27.93199920654297,54.63399887084961 14.526000022888184,61.46699905395508 -2.01200008392334,61.46699905395508 C-18.549999237060547,61.46699905395508 -31.957000732421875,54.63399887084961 -31.957000732421875,44.97200012207031 C-31.957000732421875,35.310001373291016 -18.549999237060547,27.889999389648438 -2.01200008392334,27.889999389648438 C14.526000022888184,27.889999389648438 27.93199920654297,35.310001373291016 27.93199920654297,44.97200012207031z"></path></g><g opacity="1" transform="matrix(1,0,0,1,0,0)"><path fill="rgb(255,205,0)" fill-opacity="1" d=" M24.9950008392334,40.49700164794922 C24.9950008392334,47.689998626708984 15.795000076293945,54.56700134277344 -2.01200008392334,54.56700134277344 C-20.06100082397461,54.56700134277344 -29.020000457763672,47.689998626708984 -29.020000457763672,40.49700164794922 C-29.020000457763672,33.30400085449219 -16.319000244140625,27.60700035095215 -2.01200008392334,27.60700035095215 C12.295000076293945,27.60700035095215 24.9950008392334,33.30400085449219 24.9950008392334,40.49700164794922z"></path></g><g opacity="1" transform="matrix(1,0,0,1,0,0)"><path fill="rgb(255,224,112)" fill-opacity="1" d=" M13.482999801635742,36.37300109863281 C13.482999801635742,40.159000396728516 6.546000003814697,43.72100067138672 -2.01200008392334,43.72100067138672 C-10.569999694824219,43.72100067138672 -17.506999969482422,40.159000396728516 -17.506999969482422,36.37300109863281 C-17.506999969482422,32.58700180053711 -10.569999694824219,30.687000274658203 -2.01200008392334,30.687000274658203 C6.546000003814697,30.687000274658203 13.482999801635742,32.58700180053711 13.482999801635742,36.37300109863281z"></path></g></g></g><g style="display: block;" transform="matrix(1,0,0,1,256,256)" opacity="1"><g opacity="1" transform="matrix(1,0,0,1,0,0)"><g opacity="1" transform="matrix(1,0,0,1,0,0)"><path fill="url(#__lottie_element_9681)" fill-opacity="1" d=" M-130.69200134277344,-105.93800354003906 C-130.69200134277344,-105.93800354003906 -129.48399353027344,-129.38400268554688 -112.73699951171875,-155.6199951171875 C-95.98999786376953,-181.8560028076172 -83.66799926757812,-194.28700256347656 -47.49300003051758,-198.60299682617188 C-4.558000087738037,-203.7259979248047 71.15599822998047,-189.63400268554688 94.36399841308594,-178.74000549316406 C106.88999938964844,-172.86000061035156 150.2779998779297,-153.93800354003906 145.16299438476562,-97.48200225830078 C145.16299438476562,-97.48200225830078 -130.69200134277344,-105.93800354003906 -130.69200134277344,-105.93800354003906z"></path></g><g opacity="0.3" transform="matrix(1,0,0,1,0,0)"><path stroke-linecap="round" stroke-linejoin="round" fill-opacity="0" stroke="rgb(255,255,255)" stroke-opacity="1" stroke-width="8" d=" M-124.63300323486328,-103.80799865722656 C-124.63300323486328,-103.80799865722656 -123.47699737548828,-126.2249984741211 -107.46499633789062,-151.31100463867188 C-91.4530029296875,-176.39700317382812 -79.6709976196289,-188.28199768066406 -45.08300018310547,-192.40899658203125 C-4.0320000648498535,-197.3070068359375 68.36199951171875,-183.83299255371094 90.552001953125,-173.41700744628906 C102.52799987792969,-167.7949981689453 144.01300048828125,-149.7030029296875 139.1219940185547,-95.7229995727539 C139.1219940185547,-95.7229995727539 -124.63300323486328,-103.80799865722656 -124.63300323486328,-103.80799865722656z"></path></g><g opacity="1" transform="matrix(1,0,0,1,0,0)"><path stroke-linecap="round" stroke-linejoin="round" fill-opacity="0" stroke="rgb(166,0,0)" stroke-opacity="1" stroke-width="8" d=" M-130.69200134277344,-105.93800354003906 C-130.69200134277344,-105.93800354003906 -129.48399353027344,-129.38400268554688 -112.73699951171875,-155.6199951171875 C-95.98999786376953,-181.8560028076172 -83.66799926757812,-194.28700256347656 -47.49300003051758,-198.60299682617188 C-4.558000087738037,-203.7259979248047 71.15599822998047,-189.63400268554688 94.36399841308594,-178.74000549316406 C106.88999938964844,-172.86000061035156 150.2779998779297,-153.93800354003906 145.16299438476562,-97.48200225830078 C145.16299438476562,-97.48200225830078 -130.69200134277344,-105.93800354003906 -130.69200134277344,-105.93800354003906z"></path></g></g><g opacity="1" transform="matrix(1,0,0,1,0,0)"><g opacity="1" transform="matrix(1,0,0,1,0,0)"><path fill="url(#__lottie_element_9682)" fill-opacity="1" d=" M-131.2969970703125,-27.74799919128418 C-131.2969970703125,-27.74799919128418 -145.08399963378906,-6.666999816894531 -149.66099548339844,-22.861000061035156 C-157.5189971923828,-21.694000244140625 -162.05499267578125,-24.996000289916992 -160.97900390625,-35.84400177001953 C-170.5800018310547,-38.03200149536133 -170.6490020751953,-43.88800048828125 -164.0659942626953,-52.305999755859375 C-169.46200561523438,-64.39299774169922 -167.33900451660156,-71.96800231933594 -159.26400756835938,-75.97200012207031 C-163.3769989013672,-90.58999633789062 -159.33599853515625,-95.08300018310547 -150.6490020751953,-93.80699920654297 C-147.42599487304688,-115.12799835205078 -135.88600158691406,-128.31199645996094 -109.08300018310547,-126.56500244140625 C-95.53600311279297,-146.947998046875 -79.47200012207031,-150.375 -61.34700012207031,-139.9250030517578 C-38.90800094604492,-160.02200317382812 -6.665999889373779,-168 -3.611999988555908,-150.64300537109375 C-3.611999988555908,-150.64300537109375 38.86199951171875,-162.66799926757812 47.56100082397461,-149.875 C72.18800354003906,-158.66600036621094 92.65899658203125,-160.08999633789062 102.99299621582031,-143.55099487304688 C113.25700378417969,-144.7790069580078 120.625,-140.2100067138672 124.7490005493164,-129.14500427246094 C138.44700622558594,-126.96499633789062 145.03900146484375,-121.19400024414062 143.26199340820312,-111.19400024414062 C158.60800170898438,-109.20899963378906 167.59100341796875,-104.09300231933594 158.86199951171875,-90.26300048828125 C174.71299743652344,-72.95099639892578 175.44900512695312,-63.30099868774414 161.1060028076172,-61.29399871826172 C166.8719940185547,-41.06800079345703 159.5,-28.28700065612793 147.093994140625,-35.21500015258789 C147.093994140625,-35.21500015258789 140.51100158691406,-12.36400032043457 127.4229965209961,-20.07200050354004 C127.4229965209961,-20.07200050354004 129.38699340820312,-50.33399963378906 98.75800323486328,-64.63200378417969 C98.75800323486328,-64.63200378417969 48.56999969482422,-60.25 41.53200149536133,-70.33200073242188 C23,-54.75 -3.2869999408721924,-62.30799865722656 -10.458000183105469,-71.85199737548828 C-31.465999603271484,-53.5 -55.15399932861328,-61.178001403808594 -61.779998779296875,-67.7239990234375 C-75.25,-61.75 -113.44200134277344,-54.1510009765625 -129.9499969482422,-43.619998931884766 C-129.9499969482422,-43.619998931884766 -131.14599609375,-35.42399978637695 -131.2969970703125,-27.74799919128418z"></path></g><g opacity="0.3" transform="matrix(1,0,0,1,0,0)"><path fill="rgb(144,148,158)" fill-opacity="1" d=" M147.0919952392578,-35.21200180053711 C147.0919952392578,-35.21200180053711 140.51199340820312,-12.362000465393066 127.4219970703125,-20.07200050354004 C127.4219970703125,-20.07200050354004 126.5,-41.5 117.71199798583984,-53.36199951171875 C117.71199798583984,-53.36199951171875 106.83200073242188,-51.6619987487793 98.76200103759766,-64.63200378417969 C98.76200103759766,-64.63200378417969 85.4520034790039,-56.22200012207031 66.46199798583984,-69.01200103759766 C66.46199798583984,-69.01200103759766 59.53200149536133,-54.54199981689453 41.53200149536133,-70.33200073242188 C23.259000778198242,-59.9010009765625 5.810999870300293,-59.04100036621094 -10.458000183105469,-71.85199737548828 C-23,-58.5 -51,-55 -61.77799987792969,-67.72200012207031 C-61.77799987792969,-67.72200012207031 -73.15799713134766,-58.1619987487793 -84.5979995727539,-65.86199951171875 C-82,-62.625 -99.83399963378906,-45.34700012207031 -111.36799621582031,-58.86199951171875 C-111.36799621582031,-58.86199951171875 -116.56800079345703,-43.8120002746582 -129.947998046875,-43.62200164794922 C-129.947998046875,-43.62200164794922 -131.31399536132812,2.5 -149.6580047607422,-22.86199951171875 C-161.30799865722656,-23.003000259399414 -175.75,-43.53499984741211 -164.0679931640625,-52.301998138427734 C-157.1479949951172,-47.62200164794922 -151.18800354003906,-54.422000885009766 -151.18800354003906,-54.422000885009766 C-140.83399963378906,-39 -128.02699279785156,-61.5 -129.94700622558594,-67.8219985961914 C-116.56700134277344,-68.02200317382812 -111.36799621582031,-83.0719985961914 -111.36799621582031,-83.0719985961914 C-107.16699981689453,-69.33300018310547 -86,-78 -84.5979995727539,-90.0719985961914 C-73.15799713134766,-82.37200164794922 -61.77799987792969,-91.93199920654297 -61.77799987792969,-91.93199920654297 C-34.5,-73.75 -10.458000183105469,-96.06199645996094 -10.458000183105469,-96.06199645996094 C4.183000087738037,-82.09400177001953 21.783000946044922,-82.93399810791016 41.53200149536133,-94.53199768066406 C59.53200149536133,-78.75199890136719 66.46199798583984,-93.22200012207031 66.46199798583984,-93.22200012207031 C85.4520034790039,-80.4219970703125 98.76200103759766,-88.84200286865234 98.76200103759766,-88.84200286865234 C106.83200073242188,-75.87200164794922 117.71199798583984,-77.5719985961914 117.71199798583984,-77.5719985961914 C119.29199981689453,-63.79199981689453 126.25199890136719,-65.2020034790039 126.25199890136719,-65.2020034790039 C128.66600036621094,-51.16699981689453 145.57899475097656,-54.5 147.0919952392578,-59.422000885009766 C147.0919952392578,-59.422000885009766 156.48199462890625,-47.84199905395508 161.1020050048828,-61.29199981689453 C165.2270050048828,-40.34199905395508 158.16600036621094,-22.333999633789062 147.0919952392578,-35.21200180053711z"></path></g><g opacity="1" transform="matrix(1,0,0,1,0,0)"><path stroke-linecap="butt" stroke-linejoin="miter" fill-opacity="0" stroke-miterlimit="10" stroke="rgb(205,205,203)" stroke-opacity="1" stroke-width="8" d=" M-131.2969970703125,-27.74799919128418 C-131.4530029296875,-18.625 -150.375,-7.9079999923706055 -149.66099548339844,-22.861000061035156 C-160.55999755859375,-21.719999313354492 -164.10299682617188,-26.224000930786133 -160.97900390625,-35.84400177001953 C-172,-36 -172.125,-45.83700180053711 -164.0659942626953,-52.305999755859375 C-169.0970001220703,-62.540000915527344 -168.33200073242188,-70.7249984741211 -159.26400756835938,-75.97200012207031 C-163.14700317382812,-87.52200317382812 -161.38099670410156,-94.38500213623047 -150.6490020751953,-93.80699920654297 C-147.25399780273438,-118.4209976196289 -132.35899353027344,-127.9800033569336 -109.08300018310547,-126.56500244140625 C-93.5,-147 -73.5,-153.25 -61.34700012207031,-139.9250030517578 C-43.595001220703125,-157 -14.977999687194824,-171.57000732421875 -3.611999988555908,-150.64300537109375 C-3.611999988555908,-150.64300537109375 31.715999603271484,-167.5 47.56100082397461,-149.875 C69.2020034790039,-159.25 94.75,-160.98599243164062 102.99299621582031,-143.55099487304688 C115.2020034790039,-146.08099365234375 121.7770004272461,-138.52499389648438 124.7490005493164,-129.14500427246094 C137.74099731445312,-127.61599731445312 144.29800415039062,-121.88500213623047 143.26199340820312,-111.19400024414062 C159.6009979248047,-110.6240005493164 165.4429931640625,-104.01599884033203 158.86199951171875,-90.26300048828125 C171.3350067138672,-77 176.66700744628906,-62.33300018310547 162.9239959716797,-60.770999908447266 C170.8179931640625,-39.97700119018555 158.83299255371094,-21.333999633789062 147.093994140625,-35.21500015258789 C147.093994140625,-35.21500015258789 140.50999450683594,-12.36400032043457 127.4219970703125,-20.07200050354004 C127.4219970703125,-20.07200050354004 126.88800048828125,-36.152000427246094 126.25,-41.000999450683594 C126.25,-41.000999450683594 119.29000091552734,-39.5880012512207 117.71600341796875,-53.3650016784668 C117.71600341796875,-53.3650016784668 106.83599853515625,-51.66400146484375 98.75800323486328,-64.63200378417969 C98.75800323486328,-64.63200378417969 85.447998046875,-56.21699905395508 66.46199798583984,-69.01399993896484 C66.46199798583984,-69.01399993896484 59.53200149536133,-54.542999267578125 41.53499984741211,-70.33000183105469 C41.53499984741211,-70.33000183105469 25.323999404907227,-58.75600051879883 4.802999973297119,-63.54100036621094 C-5.999000072479248,-66.05999755859375 -10.456999778747559,-71.85600280761719 -10.456999778747559,-71.85600280761719 C-10.456999778747559,-71.85600280761719 -21.716999053955078,-63.96099853515625 -29.349000930786133,-61.81999969482422 C-43.59700012207031,-57.821998596191406 -56.3129997253418,-61.1870002746582 -61.779998779296875,-67.7239990234375 C-61.779998779296875,-67.7239990234375 -73.15699768066406,-58.16400146484375 -84.59300231933594,-65.86599731445312 C-85.16600036621094,-59.16699981689453 -99,-47.84000015258789 -112.83300018310547,-57.33300018310547 C-112.83300018310547,-57.33300018310547 -116.56600189208984,-43.816001892089844 -129.9499969482422,-43.619998931884766 C-129.9499969482422,-43.619998931884766 -131.14599609375,-35.42399978637695 -131.2969970703125,-27.74799919128418z"></path></g><g opacity="1" transform="matrix(1,0,0,1,0,0)"><path stroke-linecap="round" stroke-linejoin="miter" fill-opacity="0" stroke-miterlimit="10" stroke="rgb(180,176,173)" stroke-opacity="1" stroke-width="8" d=" M171.30599975585938,-68.63899993896484 C170.69400024414062,-57.21500015258789 161.1060028076172,-61.29399871826172 161.1060028076172,-61.29399871826172 C171.30599975585938,-45.34600067138672 157,-19.33300018310547 146.78599548339844,-34.24800109863281 C146.78599548339844,-34.24800109863281 140.50999450683594,-12.36400032043457 127.4219970703125,-20.07200050354004 C127.4219970703125,-20.07200050354004 126.88800048828125,-36.152000427246094 126.25,-41.000999450683594 C126.25,-41.000999450683594 119.29000091552734,-39.5880012512207 117.71600341796875,-53.3650016784668 C117.71600341796875,-53.3650016784668 106.83599853515625,-51.66400146484375 98.75800323486328,-64.63200378417969 C98.75800323486328,-64.63200378417969 85.447998046875,-56.21699905395508 66.46199798583984,-69.01399993896484 C66.46199798583984,-69.01399993896484 59.53300094604492,-54.542999267578125 41.53499984741211,-70.33000183105469 C32.58300018310547,-62.46200180053711 16.941999435424805,-59.643001556396484 3.8929998874664307,-63.457000732421875 C-1.5720000267028809,-65.05400085449219 -6.583000183105469,-67.81500244140625 -10.456999778747559,-71.85600280761719 C-22.33300018310547,-60.16600036621094 -53.231998443603516,-54.33300018310547 -61.779998779296875,-67.7239990234375 C-61.779998779296875,-67.7239990234375 -73.15699768066406,-58.16400146484375 -84.59300231933594,-65.86599731445312 C-84.5,-56.19300079345703 -103.16600036621094,-47.84000015258789 -112.83300018310547,-57.33300018310547 C-112.83300018310547,-57.33300018310547 -116.56600189208984,-43.816001892089844 -129.9499969482422,-43.619998931884766 C-129.9499969482422,-43.619998931884766 -131.14599609375,-35.42399978637695 -131.2969970703125,-27.74799919128418 C-129.83399963378906,-23.33300018310547 -148.16700744628906,-5.052000045776367 -149.66099548339844,-22.861000061035156 C-162.38099670410156,-22.459999084472656 -164.3820037841797,-27.724000930786133 -160.97900390625,-35.84400177001953 C-172.5,-37.16699981689453 -172.16700744628906,-45.34600067138672 -164.0659942626953,-52.305999755859375 C-164.0659942626953,-52.305999755859375 -168.8679962158203,-59.85100173950195 -166.80999755859375,-66.71099853515625"></path></g></g></g><g style="display: block;" transform="matrix(1,0,0,1,256,256)" opacity="1"><g opacity="1" transform="matrix(1,0,0,1,0,0)"><g opacity="1" transform="matrix(1,0,0,1,0,0)"><g opacity="1" transform="matrix(1,0,0,1,0,0)"><path stroke-linecap="round" stroke-linejoin="round" fill-opacity="0" stroke="rgb(255,255,255)" stroke-opacity="1" stroke-width="6" d=" M40.71500015258789,-181.10299682617188 C42.29399871826172,-180.7519989013672 43.93199920654297,-180.36700439453125 45.619998931884766,-179.9429931640625"></path></g><g opacity="1" transform="matrix(1,0,0,1,0,0)"><path stroke-linecap="round" stroke-linejoin="round" fill-opacity="0" stroke="rgb(255,255,255)" stroke-opacity="1" stroke-width="6" d=" M18.78499984741211,-184.49600219726562 C18.78499984741211,-184.49600219726562 23.78499984741211,-184.20899963378906 31.715999603271484,-182.86500549316406"></path></g></g></g></g></g></svg>