<svg xmlns="http://www.w3.org/2000/svg" viewBox="0 0 512 512" width="512" height="512" style="width: 100%; height: 100%; transform: translate3d(0,0,0);" preserveAspectRatio="xMidYMid meet"><defs><clipPath id="__lottie_element_9718"><rect width="512" height="512" x="0" y="0"></rect></clipPath></defs><g clip-path="url(#__lottie_element_9718)"><g style="display: block;" transform="matrix(1,0,0,1,240.99998474121094,256)" opacity="1"><g opacity="0.1" transform="matrix(1,0,0,1,0,0)"><path fill="rgb(0,0,0)" fill-opacity="1" d=" M211.8769989013672,3.924999952316284 C211.8769989013672,112.18599700927734 124.11299896240234,199.9499969482422 15.85200023651123,199.9499969482422 C-92.40899658203125,199.9499969482422 -180.1719970703125,112.18599700927734 -180.1719970703125,3.924999952316284 C-180.1719970703125,-104.33599853515625 -92.40899658203125,-192.0989990234375 15.85200023651123,-192.0989990234375 C124.11299896240234,-192.0989990234375 211.8769989013672,-104.33599853515625 211.8769989013672,3.924999952316284z"></path></g><g opacity="1" transform="matrix(1,0,0,1,0,0)"><path fill="rgb(255,173,0)" fill-opacity="1" d=" M204.72799682617188,-11.074999809265137 C204.72799682617188,93.23799896240234 120.16500091552734,177.80099487304688 15.85200023651123,177.80099487304688 C-88.46099853515625,177.80099487304688 -173.0229949951172,93.23799896240234 -173.0229949951172,-11.074999809265137 C-173.0229949951172,-115.38800048828125 -88.46099853515625,-199.9499969482422 15.85200023651123,-199.9499969482422 C120.16500091552734,-199.9499969482422 204.72799682617188,-115.38800048828125 204.72799682617188,-11.074999809265137z"></path></g><g opacity="1" transform="matrix(1,0,0,1,0,0)"><path stroke-linecap="butt" stroke-linejoin="miter" fill-opacity="0" stroke-miterlimit="10" stroke="rgb(255,118,42)" stroke-opacity="1" stroke-width="8" d=" M204.72799682617188,-11.074999809265137 C204.72799682617188,93.23799896240234 120.16500091552734,177.80099487304688 15.85200023651123,177.80099487304688 C-88.46099853515625,177.80099487304688 -173.0229949951172,93.23799896240234 -173.0229949951172,-11.074999809265137 C-173.0229949951172,-115.38800048828125 -88.46099853515625,-199.9499969482422 15.85200023651123,-199.9499969482422 C120.16500091552734,-199.9499969482422 204.72799682617188,-115.38800048828125 204.72799682617188,-11.074999809265137z"></path></g><g opacity="1" transform="matrix(1,0,0,1,0,0)"><path fill="rgb(255,207,0)" fill-opacity="1" d=" M184.25900268554688,-10.362000465393066 C182.802001953125,84.66699981689453 106.24800109863281,160.5469970703125 13.270000457763672,159.1219940185547 C-79.70800018310547,157.69700622558594 -153.89999389648438,79.50599670410156 -152.44400024414062,-15.52299976348877 C-150.98699951171875,-110.5510025024414 -74.43299865722656,-186.4320068359375 18.545000076293945,-185.0070037841797 C111.52300262451172,-183.58200073242188 185.71600341796875,-105.39099884033203 184.25900268554688,-10.362000465393066z"></path></g><g opacity="0.3" transform="matrix(1,0,0,1,0,0)"><path fill="rgb(255,255,255)" fill-opacity="1" d=" M165.1199951171875,-53.50299835205078 C165.1199951171875,19.139999389648438 98.29000091552734,-38.32500076293945 15.85200023651123,-38.32500076293945 C-66.58599853515625,-38.32500076293945 -133.4149932861328,19.139999389648438 -133.4149932861328,-53.50299835205078 C-133.4149932861328,-126.14600372314453 -66.58599853515625,-185.03599548339844 15.85200023651123,-185.03599548339844 C98.29000091552734,-185.03599548339844 165.1199951171875,-126.14600372314453 165.1199951171875,-53.50299835205078z"></path></g><g opacity="1" transform="matrix(1,0,0,1,0,0)"><g opacity="1" transform="matrix(1,0,0,1,0,0)"><path stroke-linecap="round" stroke-linejoin="round" fill-opacity="0" stroke="rgb(255,255,255)" stroke-opacity="1" stroke-width="6" d=" M52.224998474121094,-180.8159942626953 C53.76300048828125,-180.4810028076172 55.358001708984375,-180.11199951171875 57.00199890136719,-179.70599365234375"></path></g><g opacity="1" transform="matrix(1,0,0,1,0,0)"><path stroke-linecap="round" stroke-linejoin="round" fill-opacity="0" stroke="rgb(255,255,255)" stroke-opacity="1" stroke-width="6" d=" M30.8700008392334,-184.03599548339844 C30.8700008392334,-184.03599548339844 35.73699951171875,-183.77499389648438 43.459999084472656,-182.4969940185547"></path></g></g></g><g style="display: block;" transform="matrix(1,0,0,1,240.99998474121094,256)" opacity="1"><g opacity="1" transform="matrix(1,0,0,1,0,0)"><path fill="rgb(255,173,0)" fill-opacity="1" d=" M131.33299255371094,112.66699981689453 C129.0449981689453,134.61099243164062 91.58799743652344,155.83299255371094 81.50499725341797,155.83299255371094 C69.10700225830078,143.9429931640625 74.56400299072266,119.31900024414062 72.5,107.5 C70.66699981689453,97 65.55500030517578,92.0459976196289 56.2239990234375,72.5 C103.76699829101562,69.48400115966797 135.78799438476562,83.64900207519531 131.33299255371094,112.66699981689453z"></path></g></g><g style="display: block;" transform="matrix(1,0,0,1,240.99998474121094,256)" opacity="1"><g opacity="1" transform="matrix(1,0,0,1,0,0)"><path fill="rgb(255,225,156)" fill-opacity="1" d=" M62.66699981689453,142.05099487304688 C52.361000061035156,141.8350067138672 39.428001403808594,138.05099487304688 16.058000564575195,137.55099487304688 C-7.311999797821045,137.05099487304688 -22.378999710083008,141.23199462890625 -30.371999740600586,142.05099487304688 C-46.630001068115234,143.71800231933594 -51.70500183105469,129.92999267578125 -49.19200134277344,120.3010025024414 C-45.215999603271484,105.06900024414062 -9.331999778747559,98.3010025024414 16,98.3010025024414 C41.332000732421875,98.3010025024414 78.57099914550781,106.3010025024414 81.22200012207031,121.3010025024414 C82.80500030517578,130.26100158691406 77.91600036621094,142.3699951171875 62.66699981689453,142.05099487304688z"></path></g><g opacity="1" transform="matrix(1,0,0,1,0,0)"><path fill="rgb(255,173,0)" fill-opacity="1" d=" M61.632999420166016,130.05099487304688 C51.55500030517578,129.8350067138672 38.90700149536133,126.0510025024414 16.054000854492188,125.5510025024414 C-6.798999786376953,125.0510025024414 -21.534000396728516,129.23199462890625 -29.35099983215332,130.05099487304688 C-45.249000549316406,131.71800231933594 -49.832000732421875,122.71800231933594 -48.347999572753906,112.90499877929688 C-45.50899887084961,94.13400268554688 -8.776000022888184,86.3010025024414 15.996000289916992,86.3010025024414 C40.768001556396484,86.3010025024414 80.05400085449219,93.96800231933594 79.87300109863281,115.24500274658203 C79.7959976196289,124.3280029296875 76.54499816894531,130.3699951171875 61.632999420166016,130.05099487304688z"></path></g><g opacity="1" transform="matrix(1,0,0,1,0,0)"><path fill="rgb(143,58,0)" fill-opacity="1" d=" M61.632999420166016,137.05099487304688 C51.55500030517578,136.8350067138672 38.90700149536133,133.05099487304688 16.054000854492188,132.55099487304688 C-6.798999786376953,132.05099487304688 -21.534000396728516,136.23199462890625 -29.35099983215332,137.05099487304688 C-45.249000549316406,138.71800231933594 -50.2130012512207,124.93000030517578 -47.755001068115234,115.3010025024414 C-43.867000579833984,100.06900024414062 -8.776000022888184,93.3010025024414 15.996000289916992,93.3010025024414 C40.768001556396484,93.3010025024414 77.18499755859375,101.3010025024414 79.7770004272461,116.3010025024414 C81.32499694824219,125.26100158691406 76.54499816894531,137.3699951171875 61.632999420166016,137.05099487304688z"></path></g><g opacity="1" transform="matrix(1,0,0,1,0,0)"><path fill="rgb(107,32,0)" fill-opacity="1" d=" M-47.755001068115234,124.3010025024414 C-43.867000579833984,109.06900024414062 -8.776000022888184,102.3010025024414 15.996000289916992,102.3010025024414 C40.15800094604492,102.3010025024414 75.38200378417969,109.91400146484375 79.50900268554688,124.20800018310547 C80.14700317382812,121.5530014038086 80.20999908447266,118.80400085449219 79.7770004272461,116.3010025024414 C77.18499755859375,101.3010025024414 40.768001556396484,93.3010025024414 15.996000289916992,93.3010025024414 C-8.776000022888184,93.3010025024414 -43.867000579833984,100.06900024414062 -47.755001068115234,115.3010025024414 C-48.500999450683594,118.2229995727539 -48.55799865722656,121.52799987792969 -47.8390007019043,124.66799926757812 C-47.81100082397461,124.5459976196289 -47.7859992980957,124.4219970703125 -47.755001068115234,124.3010025024414z"></path></g></g><g style="display: block;" transform="matrix(1,0,0,1,240.99998474121094,256)" opacity="1"><g opacity="1" transform="matrix(1,0,0,1,0,0)"><path fill="rgb(58,162,222)" fill-opacity="1" d=" M58.69300079345703,74.2249984741211 C54.67900085449219,71.8239974975586 55.805999755859375,65.58000183105469 60.29499816894531,64.55699920654297 C78.50199890136719,60.40800094604492 107.73699951171875,59.624000549316406 122.3219985961914,61.25 C136.54600524902344,62.83599853515625 166.5030059814453,63.57500076293945 179.6739959716797,104.89199829101562 C192.2899932861328,144.468994140625 165.0970001220703,165.62600708007812 152.9709930419922,169.78399658203125 C135.62100219726562,175.73399353027344 105.91200256347656,175.14999389648438 95.58999633789062,148.72999572753906 C86.177001953125,124.63800048828125 91.77899932861328,103.83899688720703 75.5739974975586,87.76399993896484 C70.76499938964844,82.99299621582031 65.1240005493164,78.0719985961914 58.69300079345703,74.2249984741211z"></path></g><g opacity="0.61" transform="matrix(1,0,0,1,0,0)"><g opacity="0.3" transform="matrix(1,0,0,1,0,0)"><path fill="rgb(144,243,253)" fill-opacity="1" d=" M177.8159942626953,130.1909942626953 C172.51699829101562,104.31400299072266 147.1959991455078,90.58999633789062 126.58599853515625,97.9530029296875 C113.13800048828125,102.75399780273438 89.13600158691406,128.2010040283203 109.19400024414062,161.56500244140625 C127.98100280761719,185.1540069580078 185.66299438476562,168.51100158691406 177.8159942626953,130.1909942626953z"></path></g><g opacity="0.4" transform="matrix(1,0,0,1,0,0)"><path fill="rgb(144,243,253)" fill-opacity="1" d=" M173.1179962158203,133.73800659179688 C167.0260009765625,112.5510025024414 147.49099731445312,100.58799743652344 130.2530059814453,106.74600219726562 C113.00199890136719,112.90499877929688 103.39700317382812,135.302001953125 110.67500305175781,156.03199768066406 C122.2300033569336,188.9459991455078 182.1230010986328,165.0570068359375 173.1179962158203,133.73800659179688z"></path></g><g opacity="0.4" transform="matrix(1,0,0,1,0,0)"><path fill="rgb(144,243,253)" fill-opacity="1" d=" M132.48199462890625,115.2770004272461 C118.44499969482422,120.28900146484375 110.61199951171875,138.51600646972656 116.54499816894531,155.38999938964844 C127.93000030517578,187.76699829101562 179.44000244140625,170.0330047607422 167.3780059814453,137.24000549316406 C161.20799255371094,120.46600341796875 146.5189971923828,110.26499938964844 132.48199462890625,115.2770004272461z"></path></g><g opacity="0.4" transform="matrix(1,0,0,1,0,0)"><path fill="rgb(144,243,253)" fill-opacity="1" d=" M136.4040069580078,126.13600158691406 C126.01399993896484,129.8459930419922 120.94300079345703,143.0659942626953 124.60900115966797,155.8260040283203 C130.91200256347656,177.76199340820312 170.43800354003906,164.4770050048828 162.23300170898438,142.39100646972656 C157.6269989013672,129.99200439453125 146.79400634765625,122.4260025024414 136.4040069580078,126.13600158691406z"></path></g></g><g opacity="0.55" transform="matrix(1,0,0,1,0,0)"><path fill="rgb(255,255,255)" fill-opacity="1" d=" M61.518001556396484,71.92500305175781 C58.80799865722656,71.47599792480469 58.64099884033203,67.6500015258789 61.37099838256836,67.3740005493164 C73.81600189208984,66.11599731445312 100.48300170898438,64.5770034790039 117.83300018310547,66.83300018310547 C127.90299987792969,68.14199829101562 151.5500030517578,71.76000213623047 159.0019989013672,95.31500244140625 C166.49200439453125,118.98899841308594 152.3040008544922,130.91299438476562 145.4149932861328,134.39199829101562 C135.55799865722656,139.3699951171875 117.00800323486328,137.2949981689453 109,122.5 C101.6969985961914,109.00800323486328 99.40699768066406,99.40599822998047 93.19999694824219,90.3280029296875 C85.8489990234375,79.5780029296875 69.74400329589844,73.28700256347656 61.518001556396484,71.92500305175781z"></path></g><g opacity="1" transform="matrix(1,0,0,1,0,0)"><path stroke-linecap="round" stroke-linejoin="round" fill-opacity="0" stroke="rgb(0,109,196)" stroke-opacity="1" stroke-width="8" d=" M58.69300079345703,74.2249984741211 C54.67900085449219,71.8239974975586 55.805999755859375,65.58000183105469 60.29499816894531,64.55699920654297 C78.50199890136719,60.40800094604492 107.7490005493164,58.013999938964844 122.3219985961914,59.75 C143.24000549316406,62.242000579833984 168.78199768066406,69.80699920654297 179.6739959716797,104.89199829101562 C190.10299682617188,138.48699951171875 169.1959991455078,163.33299255371094 152.9709930419922,169.78399658203125 C135.89700317382812,176.57200622558594 105.91200256347656,175.14999389648438 95.58999633789062,148.72999572753906 C86.177001953125,124.63800048828125 91.77899932861328,103.83899688720703 75.5739974975586,87.76399993896484 C70.76499938964844,82.99299621582031 65.1240005493164,78.0719985961914 58.69300079345703,74.2249984741211z"></path></g><g opacity="1" transform="matrix(1,0,0,1,0,0)"><g opacity="1" transform="matrix(1,0,0,1,0,0)"><path stroke-linecap="round" stroke-linejoin="round" fill-opacity="0" stroke="rgb(255,255,255)" stroke-opacity="1" stroke-width="6" d=" M151.51300048828125,82.24700164794922 C151.51300048828125,82.24700164794922 152.3719940185547,82.9260025024414 152.3719940185547,82.9260025024414"></path></g><g opacity="1" transform="matrix(1,0,0,1,0,0)"><path stroke-linecap="round" stroke-linejoin="round" fill-opacity="0" stroke="rgb(255,255,255)" stroke-opacity="1" stroke-width="6" d=" M141.1280059814453,74.03299713134766 C141.1280059814453,74.03299713134766 145.47900390625,77.4739990234375 145.47900390625,77.4739990234375"></path></g></g></g><g style="display: block;" transform="matrix(1,0,0,1,240.99998474121094,256)" opacity="1"><g opacity="1" transform="matrix(1,0,0,1,0,0)"><g opacity="1" transform="matrix(1,0,0,1,0,0)"><path fill="rgb(255,225,156)" fill-opacity="1" d=" M136.1269989013672,-1.2710000276565552 C120.55599975585938,7.699999809265137 103.21299743652344,14.78600025177002 92.927001953125,14.78600025177002 C82.64099884033203,14.78600025177002 67.73999786376953,9.199999809265137 50.11199951171875,-1.1430000066757202 C41.17100143432617,-6.388999938964844 39.95600128173828,4.414000034332275 44.58399963378906,11.486000061035156 C49.2130012512207,18.55699920654297 64.04100036621094,38.44300079345703 92.927001953125,38.44300079345703 C121.81300354003906,38.44300079345703 136.64100646972656,18.55699920654297 141.27000427246094,11.486000061035156 C145.8979949951172,4.414000034332275 145.10899353027344,-6.446000099182129 136.1269989013672,-1.2710000276565552z"></path></g><g opacity="1" transform="matrix(1,0,0,1,0,0)"><path fill="rgb(143,58,0)" fill-opacity="1" d=" M133.78399658203125,-0.8140000104904175 C118.21299743652344,8.156999588012695 103.21299743652344,9.78600025177002 92.927001953125,9.78600025177002 C82.64099884033203,9.78600025177002 69.697998046875,9.529000282287598 52.06999969482422,-0.8140000104904175 C43.12900161743164,-6.059000015258789 39.95600128173828,-0.5860000252723694 44.58399963378906,6.486000061035156 C49.2130012512207,13.557000160217285 64.04100036621094,33.44300079345703 92.927001953125,33.44300079345703 C121.81300354003906,33.44300079345703 136.64100646972656,13.557000160217285 141.27000427246094,6.486000061035156 C145.8979949951172,-0.5860000252723694 142.76600646972656,-5.988999843597412 133.78399658203125,-0.8140000104904175z"></path></g><g opacity="1" transform="matrix(1,0,0,1,0,0)"><path fill="rgb(107,32,0)" fill-opacity="1" d=" M142.29200744628906,4.686999797821045 C140.83200073242188,3.437000036239624 137.9320068359375,3.566999912261963 133.78199768066406,5.956999778747559 C118.21199798583984,14.927000045776367 103.21199798583984,16.55699920654297 92.9219970703125,16.55699920654297 C82.64199829101562,16.55699920654297 69.7020034790039,16.297000885009766 52.071998596191406,5.956999778747559 C47.922000885009766,3.5269999504089355 45.02199935913086,3.3970000743865967 43.551998138427734,4.666999816894531 C40.5620002746582,-1.4630000591278076 43.922000885009766,-5.603000164031982 52.071998596191406,-0.8130000233650208 C69.7020034790039,9.527000427246094 82.64199829101562,9.786999702453613 92.9219970703125,9.786999702453613 C103.21199798583984,9.786999702453613 118.21199798583984,8.156999588012695 133.78199768066406,-0.8130000233650208 C141.98199462890625,-5.543000221252441 145.31199645996094,-1.4429999589920044 142.29200744628906,4.686999797821045z"></path></g></g><g opacity="1" transform="matrix(1,0,0,1,0,0)"><g opacity="1" transform="matrix(1,0,0,1,0,0)"><path fill="rgb(255,225,156)" fill-opacity="1" d=" M-104.4229965209961,-1.2710000276565552 C-88.85199737548828,7.699999809265137 -71.50900268554688,14.78600025177002 -61.222999572753906,14.78600025177002 C-50.9370002746582,14.78600025177002 -36.0359992980957,9.199999809265137 -18.408000946044922,-1.1430000066757202 C-9.467000007629395,-6.388999938964844 -8.251999855041504,4.414000034332275 -12.880000114440918,11.486000061035156 C-17.509000778198242,18.55699920654297 -32.33700180053711,38.44300079345703 -61.222999572753906,38.44300079345703 C-90.10900115966797,38.44300079345703 -104.93599700927734,18.55699920654297 -109.56500244140625,11.486000061035156 C-114.19300079345703,4.414000034332275 -113.40499877929688,-6.446000099182129 -104.4229965209961,-1.2710000276565552z"></path></g><g opacity="1" transform="matrix(1,0,0,1,0,0)"><path fill="rgb(143,58,0)" fill-opacity="1" d=" M-102.08000183105469,-0.8140000104904175 C-86.50900268554688,8.156999588012695 -71.50900268554688,9.78600025177002 -61.222999572753906,9.78600025177002 C-50.9370002746582,9.78600025177002 -37.99300003051758,9.529000282287598 -20.364999771118164,-0.8140000104904175 C-11.423999786376953,-6.059000015258789 -8.251999855041504,-0.5860000252723694 -12.880000114440918,6.486000061035156 C-17.509000778198242,13.557000160217285 -32.33700180053711,33.44300079345703 -61.222999572753906,33.44300079345703 C-90.10900115966797,33.44300079345703 -104.93599700927734,13.557000160217285 -109.56500244140625,6.486000061035156 C-114.19300079345703,-0.5860000252723694 -111.06199645996094,-5.988999843597412 -102.08000183105469,-0.8140000104904175z"></path></g><g opacity="1" transform="matrix(1,0,0,1,0,0)"><path fill="rgb(107,32,0)" fill-opacity="1" d=" M-110.58799743652344,4.686999797821045 C-109.12799835205078,3.437000036239624 -106.22799682617188,3.566999912261963 -102.0780029296875,5.956999778747559 C-86.50800323486328,14.927000045776367 -71.50800323486328,16.55699920654297 -61.21799850463867,16.55699920654297 C-50.9379997253418,16.55699920654297 -37.99800109863281,16.297000885009766 -20.368000030517578,5.956999778747559 C-16.218000411987305,3.5269999504089355 -13.317999839782715,3.3970000743865967 -11.847999572753906,4.666999816894531 C-8.857999801635742,-1.4630000591278076 -12.218000411987305,-5.603000164031982 -20.368000030517578,-0.8130000233650208 C-37.99800109863281,9.527000427246094 -50.9379997253418,9.786999702453613 -61.21799850463867,9.786999702453613 C-71.50800323486328,9.786999702453613 -86.50800323486328,8.156999588012695 -102.0780029296875,-0.8130000233650208 C-110.27799987792969,-5.543000221252441 -113.60800170898438,-1.4429999589920044 -110.58799743652344,4.686999797821045z"></path></g></g></g><g style="display: none;"><g><g><path></path></g><g><path></path></g><g><path></path></g><g><path></path></g></g><g><g><path></path></g><g><path></path></g><g><path></path></g><g><path></path></g></g></g><g style="display: block;" transform="matrix(1,0,0,1,240.99998474121094,256)" opacity="1"><g opacity="1" transform="matrix(1,0,0,1,0,0)"><g opacity="1" transform="matrix(1,0,0,1,0,0)"><g opacity="1" transform="matrix(1,0,0,1,0,0)"><g opacity="1" transform="matrix(1,0,0,1,0,0)"><path fill="rgb(255,225,156)" fill-opacity="1" d=" M-60.29999923706055,-72.50599670410156 C-61.470001220703125,-73.89800262451172 -65.26899719238281,-75.6050033569336 -68.31400299072266,-76.5250015258789 C-81.50900268554688,-80.51100158691406 -108.00499725341797,-75.27400207519531 -126.88300323486328,-60.55400085449219 C-153.76699829101562,-39.590999603271484 -146,-26.865999221801758 -140.1060028076172,-31.066999435424805 C-134.21200561523438,-35.268001556396484 -114.01899719238281,-53.72600173950195 -82.82499694824219,-57.90700149536133 C-74.46600341796875,-59.027000427246094 -68.43199920654297,-58.89899826049805 -63.85900115966797,-59.926998138427734 C-57.81800079345703,-61.2859992980957 -57.0880012512207,-68.68699645996094 -60.29999923706055,-72.50599670410156z"></path></g><g opacity="1" transform="matrix(1,0,0,1,0,0)"><path fill="rgb(143,58,0)" fill-opacity="1" d=" M-60.8380012512207,-73.20099639892578 C-62.007999420166016,-74.59300231933594 -65.43099975585938,-76.59100341796875 -68.47599792480469,-77.51100158691406 C-81.6709976196289,-81.49700164794922 -105.47200012207031,-80.48899841308594 -124.3499984741211,-65.76899719238281 C-151.23399353027344,-44.805999755859375 -146.66400146484375,-31.56599998474121 -140.77000427246094,-35.766998291015625 C-134.87600708007812,-39.96799850463867 -114.68299865722656,-58.42599868774414 -83.48899841308594,-62.606998443603516 C-75.12999725341797,-63.72700119018555 -69.09600067138672,-63.5989990234375 -64.52300262451172,-64.62699890136719 C-58.481998443603516,-65.98600006103516 -57.625999450683594,-69.38200378417969 -60.8380012512207,-73.20099639892578z"></path></g></g><g opacity="1" transform="matrix(1,0,0,1,0,0)"><path fill="rgb(107,32,0)" fill-opacity="1" d=" M-59.77899932861328,-67.02300262451172 C-59.79399871826172,-67.0510025024414 -59.81999969482422,-67.08699798583984 -59.845001220703125,-67.11299896240234 C-61.01499938964844,-68.50199890136719 -64.43399810791016,-70.50599670410156 -67.48100280761719,-71.41600036621094 C-80.66899871826172,-75.40699768066406 -104.47899627685547,-74.39600372314453 -123.3489990234375,-59.68299865722656 C-136.8000030517578,-49.191001892089844 -142.36900329589844,-40.62900161743164 -143.8459930419922,-35.229000091552734 C-147.24200439453125,-37.034000396728516 -145.97500610351562,-48.904998779296875 -124.34600067138672,-65.77200317382812 C-105.47599792480469,-80.48500061035156 -81.66600036621094,-81.49600219726562 -68.47899627685547,-77.51499938964844 C-65.43000030517578,-76.59600067138672 -62.012001037597656,-74.59100341796875 -60.84199905395508,-73.2020034790039 C-58.86800003051758,-70.86000061035156 -58.428001403808594,-68.6729965209961 -59.77899932861328,-67.02300262451172z"></path></g></g></g></g><g style="display: block;" transform="matrix(1,0,0,1,240.99998474121094,256)" opacity="1"><g opacity="1" transform="matrix(1,0,0,1,0,0)"><g opacity="1" transform="matrix(1,0,0,1,0,0)"><g opacity="1" transform="matrix(1,0,0,1,0,0)"><g opacity="1" transform="matrix(1,0,0,1,0,0)"><path fill="rgb(255,225,156)" fill-opacity="1" d=" M92.00499725341797,-72.50599670410156 C93.17500305175781,-73.89800262451172 96.9739990234375,-75.6050033569336 100.01899719238281,-76.5250015258789 C113.21399688720703,-80.51100158691406 139.7100067138672,-75.27400207519531 158.58799743652344,-60.55400085449219 C185.4720001220703,-39.590999603271484 177.7050018310547,-26.865999221801758 171.81100463867188,-31.066999435424805 C165.91700744628906,-35.268001556396484 145.72300720214844,-53.72600173950195 114.52899932861328,-57.90700149536133 C106.16999816894531,-59.027000427246094 100.13700103759766,-58.89899826049805 95.56400299072266,-59.926998138427734 C89.52300262451172,-61.2859992980957 88.79299926757812,-68.68699645996094 92.00499725341797,-72.50599670410156z"></path></g><g opacity="1" transform="matrix(1,0,0,1,0,0)"><path fill="rgb(143,58,0)" fill-opacity="1" d=" M92.54199981689453,-73.20099639892578 C93.71199798583984,-74.59300231933594 97.13500213623047,-76.59100341796875 100.18000030517578,-77.51100158691406 C113.375,-81.49700164794922 137.17599487304688,-80.48899841308594 156.0540008544922,-65.76899719238281 C182.93800354003906,-44.805999755859375 178.3679962158203,-31.56599998474121 172.4739990234375,-35.766998291015625 C166.5800018310547,-39.96799850463867 146.38699340820312,-58.42599868774414 115.19300079345703,-62.606998443603516 C106.83399963378906,-63.72700119018555 100.80000305175781,-63.5989990234375 96.22699737548828,-64.62699890136719 C90.18599700927734,-65.98600006103516 89.33000183105469,-69.38200378417969 92.54199981689453,-73.20099639892578z"></path></g></g><g opacity="1" transform="matrix(1,0,0,1,0,0)"><path fill="rgb(107,32,0)" fill-opacity="1" d=" M91.48400115966797,-67.02300262451172 C91.4990005493164,-67.0510025024414 91.52400207519531,-67.08699798583984 91.54900360107422,-67.11299896240234 C92.71900177001953,-68.50199890136719 96.13800048828125,-70.50599670410156 99.18499755859375,-71.41600036621094 C112.37300109863281,-75.40699768066406 136.18299865722656,-74.39600372314453 155.05299377441406,-59.68299865722656 C168.50399780273438,-49.191001892089844 174.07400512695312,-40.62900161743164 175.55099487304688,-35.229000091552734 C178.94700622558594,-37.034000396728516 177.6790008544922,-48.904998779296875 156.0500030517578,-65.77200317382812 C137.17999267578125,-80.48500061035156 113.37100219726562,-81.49600219726562 100.18399810791016,-77.51499938964844 C97.13500213623047,-76.59600067138672 93.71600341796875,-74.59100341796875 92.5459976196289,-73.2020034790039 C90.5719985961914,-70.86000061035156 90.13300323486328,-68.6729965209961 91.48400115966797,-67.02300262451172z"></path></g></g></g></g><g style="display: none;"><g><path stroke-linecap="round" stroke-linejoin="round" fill-opacity="0"></path></g></g><g style="display: none;"><g><path stroke-linecap="round" stroke-linejoin="round" fill-opacity="0"></path></g><g><path stroke-linecap="round" stroke-linejoin="round" fill-opacity="0"></path></g><g><path stroke-linecap="round" stroke-linejoin="round" fill-opacity="0"></path></g><g><path stroke-linecap="round" stroke-linejoin="round" fill-opacity="0"></path></g><g><path stroke-linecap="round" stroke-linejoin="round" fill-opacity="0"></path></g></g></g></svg>