<svg xmlns="http://www.w3.org/2000/svg" viewBox="0 0 512 512" width="512" height="512" style="width: 100%; height: 100%; transform: translate3d(0,0,0);" preserveAspectRatio="xMidYMid meet"><defs><clipPath id="__lottie_element_9751"><rect width="512" height="512" x="0" y="0"></rect></clipPath></defs><g clip-path="url(#__lottie_element_9751)"><g style="display: block;" transform="matrix(0.8500000238418579,0,0,0.8500000238418579,38.40008544921875,38.3995361328125)" opacity="1"><g opacity="1" transform="matrix(1,0,0,1,241.6540069580078,409.177001953125)"><path fill="rgb(253,6,17)" fill-opacity="1" d=" M45.56399917602539,0 C45.56399917602539,25.163999557495117 25.165000915527344,45.5629997253418 0.0010000000474974513,45.5629997253418 C-25.163999557495117,45.5629997253418 -45.5629997253418,25.163999557495117 -45.5629997253418,0 C-45.5629997253418,-25.163999557495117 -25.163999557495117,-45.5629997253418 0.0010000000474974513,-45.5629997253418 C25.165000915527344,-45.5629997253418 45.56399917602539,-25.163999557495117 45.56399917602539,0z"></path></g><g opacity="1" transform="matrix(1,0,0,1,241.6540069580078,409.177001953125)"><path fill="rgb(164,0,0)" fill-opacity="1" d=" M45.5629997253418,0 C45.5629997253418,25.163999557495117 25.163999557495117,45.5629997253418 0,45.5629997253418 C-25.165000915527344,45.5629997253418 -45.56399917602539,25.163999557495117 -45.56399917602539,0 C-45.56399917602539,-25.163999557495117 -25.165000915527344,-45.5629997253418 0,-45.5629997253418 C25.163999557495117,-45.5629997253418 45.5629997253418,-25.163999557495117 45.5629997253418,0z"></path></g><g opacity="1" transform="matrix(1,0,0,1,241.65499877929688,409.177001953125)"><path fill="rgb(253,6,17)" fill-opacity="1" d=" M35.15999984741211,0 C35.15999984741211,19.417999267578125 19.41900062561035,35.15999984741211 0,35.15999984741211 C-19.41900062561035,35.15999984741211 -35.15999984741211,19.417999267578125 -35.15999984741211,0 C-35.15999984741211,-19.41900062561035 -19.41900062561035,-35.15999984741211 0,-35.15999984741211 C19.41900062561035,-35.15999984741211 35.15999984741211,-19.41900062561035 35.15999984741211,0z"></path></g><g opacity="1" transform="matrix(1,0,0,1,241.65199279785156,407.7449951171875)"><path fill="rgb(248,83,104)" fill-opacity="1" d=" M44.224998474121094,12.46500015258789 C44.44499969482422,10.694999694824219 44.564998626708984,8.895999908447266 44.564998626708984,7.065999984741211 C44.564998626708984,-15.914999961853027 26.94499969482422,-34.422000885009766 3.9649999141693115,-34.53499984741211 C-21.292999267578125,-34.659000396728516 -37.625999450683594,-14.914999961853027 -37.625999450683594,8.065999984741211 C-37.625999450683594,24.236000061035156 -29.395999908447266,37.255001068115234 -15.904999732971191,44.1349983215332 C-33.22600173950195,37.68600082397461 -45.566001892089844,21.0049991607666 -45.566001892089844,1.4359999895095825 C-45.566001892089844,-23.735000610351562 -25.166000366210938,-44.1349983215332 0.004000000189989805,-44.1349983215332 C25.163999557495117,-44.1349983215332 45.564998626708984,-23.735000610351562 45.564998626708984,1.4359999895095825 C45.564998626708984,5.236000061035156 45.09400177001953,8.935999870300293 44.224998474121094,12.46500015258789z"></path></g><g opacity="1" transform="matrix(1,0,0,1,241.6540069580078,409.177001953125)"><path stroke-linecap="round" stroke-linejoin="round" fill-opacity="0" stroke="rgb(164,0,0)" stroke-opacity="1" stroke-width="8" d=" M45.56399917602539,0 C45.56399917602539,25.163999557495117 25.165000915527344,45.5629997253418 0.0010000000474974513,45.5629997253418 C-25.163999557495117,45.5629997253418 -45.5629997253418,25.163999557495117 -45.5629997253418,0 C-45.5629997253418,-25.163999557495117 -25.163999557495117,-45.5629997253418 0.0010000000474974513,-45.5629997253418 C25.165000915527344,-45.5629997253418 45.56399917602539,-25.163999557495117 45.56399917602539,0z"></path></g><g opacity="1" transform="matrix(1,0,0,1,245.61099243164062,423.09100341796875)"><path stroke-linecap="round" stroke-linejoin="round" fill-opacity="0" stroke="rgb(134,0,1)" stroke-opacity="1" stroke-width="8" d=" M38.0260009765625,-31.64900016784668 C40.332000732421875,-26.197999954223633 41.606998443603516,-20.204999923706055 41.606998443603516,-13.913999557495117 C41.606998443603516,11.25 21.20800018310547,31.649999618530273 -3.9560000896453857,31.649999618530273 C-19.600000381469727,31.649999618530273 -33.402000427246094,23.766000747680664 -41.606998443603516,11.753999710083008"></path></g><g opacity="1" transform="matrix(1,0,0,1,256.6629943847656,194.45199584960938)"><path fill="rgb(253,6,17)" fill-opacity="1" d=" M-38.49700164794922,136.18899536132812 C-38.49700164794922,136.18899536132812 10.279000282287598,136.18899536132812 10.279000282287598,136.18899536132812 C12.97599983215332,136.18899536132812 15.163000106811523,134.00100708007812 15.163000106811523,131.3040008544922 C15.163000106811523,131.3040008544922 15.163000106811523,112.7229995727539 15.163000106811523,112.7229995727539 C15.163000106811523,86.86199951171875 23.323999404907227,72.66899871826172 50.33100128173828,42.21500015258789 C77.33599853515625,11.76099967956543 94.5739974975586,-14.199999809265137 94.5739974975586,-52.16899871826172 C94.5739974975586,-91.31700134277344 61.731998443603516,-136.18899536132812 -3.440999984741211,-136.18899536132812 C-47.64899826049805,-136.18899536132812 -81.02300262451172,-118.73600006103516 -91.62899780273438,-112.43800354003906 C-93.7030029296875,-111.20600128173828 -94.57499694824219,-108.65499877929688 -93.6780014038086,-106.41600036621094 C-93.6780014038086,-106.41600036621094 -80.04900360107422,-72.38899993896484 -80.04900360107422,-72.38899993896484 C-79.01799774169922,-69.81400299072266 -76.04900360107422,-68.60299682617188 -73.52100372314453,-69.74500274658203 C-63.672000885009766,-74.19000244140625 -39.400001525878906,-83.56400299072266 -15.008000373840332,-80.7509994506836 C13.817000389099121,-77.4280014038086 26.04599952697754,-55.38600158691406 26.04599952697754,-40.82699966430664 C26.04599952697754,-33.76900100708008 30.554000854492188,-16.548999786376953 -2.440999984741211,20.52899932861328 C-31.356000900268555,53.02199935913086 -43.47999954223633,74.86599731445312 -43.47999954223633,111.2509994506836 C-43.47999954223633,121.68800354003906 -43.43299865722656,127.81199645996094 -43.38199996948242,131.3769989013672 C-43.34400177001953,134.0469970703125 -41.167999267578125,136.18899536132812 -38.49700164794922,136.18899536132812z"></path></g><g opacity="1" transform="matrix(1,0,0,1,250.26600646972656,90.6050033569336)"><path fill="rgb(248,83,104)" fill-opacity="1" d=" M88.18000030517578,15.404999732971191 C72.63999938964844,-6.625 48.861000061035156,-23.44499969482422 8.960000038146973,-23.44499969482422 C-35.25,-23.44499969482422 -68.62999725341797,-5.994999885559082 -79.2300033569336,0.3050000071525574 C-81.30999755859375,1.534999966621399 -82.18000030517578,4.085000038146973 -81.27999877929688,6.324999809265137 C-81.27999877929688,6.324999809265137 -70.45999908447266,33.345001220703125 -70.45999908447266,33.345001220703125 C-71.8499984741211,32.94499969482422 -73.05999755859375,31.915000915527344 -73.6500015258789,30.454999923706055 C-73.6500015258789,30.454999923706055 -87.27999877929688,-3.575000047683716 -87.27999877929688,-3.575000047683716 C-88.18000030517578,-5.804999828338623 -87.30999755859375,-8.354999542236328 -85.2300033569336,-9.595000267028809 C-74.62999725341797,-15.895000457763672 -41.25,-33.345001220703125 2.9600000381469727,-33.345001220703125 C48.65999984741211,-33.345001220703125 74.45999908447266,-11.28499984741211 88.18000030517578,15.404999732971191z"></path></g><g opacity="1" transform="matrix(1,0,0,1,250.4459991455078,234.46499633789062)"><path fill="rgb(248,83,104)" fill-opacity="1" d=" M8.781000137329102,-12.585000038146973 C-19.582000732421875,20.392000198364258 -28.259000778198242,38.744998931884766 -28.259000778198242,75.13500213623047 C-28.259000778198242,81.71499633789062 -28.23900032043457,91.58399963378906 -28.2189998626709,95.17500305175781 C-28.2189998626709,95.17500305175781 -32.27899932861328,95.17500305175781 -32.27899932861328,95.17500305175781 C-34.94900131225586,95.17500305175781 -37.12900161743164,93.03500366210938 -37.16899871826172,90.36499786376953 C-37.21900177001953,86.79399871826172 -37.25899887084961,80.67500305175781 -37.25899887084961,70.23500061035156 C-37.25899887084961,33.85499954223633 -25.138999938964844,12.005000114440918 3.7809998989105225,-20.485000610351562 C36.770999908447266,-57.564998626708984 32.25899887084961,-74.78500366210938 32.25899887084961,-81.84500122070312 C32.25899887084961,-85.8949966430664 31.309999465942383,-90.5250015258789 29.31999969482422,-95.17500305175781 C35.439998626708984,-87.6449966430664 37.25899887084961,-78.93499755859375 37.25899887084961,-71.94499969482422 C37.25899887084961,-64.88500213623047 36.60599899291992,-44.9379997253418 8.781000137329102,-12.585000038146973z"></path></g><g opacity="1" transform="matrix(1,0,0,1,224.1060028076172,113.70999908447266)"><path fill="rgb(164,0,0)" fill-opacity="1" d=" M57.6510009765625,32.4900016784668 C54.28099822998047,18.809999465942383 41.78099822998047,2.7799999713897705 17.549999237060547,-0.009999999776482582 C-6.839000225067139,-2.819999933242798 -31.1200008392334,6.550000190734863 -40.96900177001953,11 C-43.48899841308594,12.140000343322754 -46.45899963378906,10.930000305175781 -47.48899841308594,8.350000381469727 C-47.48899841308594,8.350000381469727 -61.119998931884766,-25.68000030517578 -61.119998931884766,-25.68000030517578 C-61.78900146484375,-27.329999923706055 -55.479000091552734,-31.149999618530273 -54.43899917602539,-32.4900016784668 C-54.43899917602539,-32.4900016784668 -45.54800033569336,-10.829999923706055 -42.48899841308594,-3.6500000953674316 C-40.933998107910156,0 -40.69900131225586,0.1940000057220459 -36.96900177001953,-1 C-18.288999557495117,-6.979000091552734 -3.7019999027252197,-11.463000297546387 16.549999237060547,-9.010000228881836 C46.4900016784668,-5.383999824523926 59.86800003051758,18.91200065612793 61.16899871826172,30.615999221801758 C61.22100067138672,31.093000411987305 57.62099838256836,31.920000076293945 57.6510009765625,32.4900016784668z"></path></g><g opacity="1" transform="matrix(1,0,0,1,282.2309875488281,230.24000549316406)"><path fill="rgb(164,0,0)" fill-opacity="1" d=" M69.00499725341797,-87.95999908447266 C69.00499725341797,-49.9900016784668 51.76499938964844,-24.030000686645508 24.764999389648438,6.429999828338623 C-2.244999885559082,36.880001068115234 -10.404999732971191,51.06999969482422 -10.404999732971191,76.94000244140625 C-10.404999732971191,76.94000244140625 -10.404999732971191,95.51899719238281 -10.404999732971191,95.51899719238281 C-10.404999732971191,98.21499633789062 -12.59000015258789,100.4000015258789 -15.28499984741211,100.4000015258789 C-15.28499984741211,100.4000015258789 -64.06500244140625,100.4000015258789 -64.06500244140625,100.4000015258789 C-66.73500061035156,100.4000015258789 -68.91500091552734,98.26000213623047 -68.95500183105469,95.58999633789062 C-68.9749984741211,94.05000305175781 -68.99500274658203,91.02999877929688 -69.00499725341797,88.4000015258789 C-68.125,89.61000061035156 -66.68499755859375,90.4000015258789 -65.06500244140625,90.4000015258789 C-65.06500244140625,90.4000015258789 -21.767000198364258,90.4000015258789 -21.767000198364258,90.4000015258789 C-21.014999389648438,90.4000015258789 -20.405000686645508,89.79000091552734 -20.405000686645508,89.03700256347656 C-20.405000686645508,89.03700256347656 -20.405000686645508,75.94000244140625 -20.405000686645508,75.94000244140625 C-20.405000686645508,41.79899978637695 -3.244999885559082,24.8799991607666 23.764999389648438,-5.570000171661377 C50.76499938964844,-36.029998779296875 65.00499725341797,-58.9900016784668 65.00499725341797,-96.95999908447266 C65.00499725341797,-98.0999984741211 67.9749984741211,-99.25 67.91500091552734,-100.4000015258789 C68.64600372314453,-96.2300033569336 69.00499725341797,-92.05999755859375 69.00499725341797,-87.95999908447266z"></path></g><g opacity="1" transform="matrix(1,0,0,1,256.6629943847656,194.45199584960938)"><path stroke-linecap="round" stroke-linejoin="round" fill-opacity="0" stroke="rgb(164,0,0)" stroke-opacity="1" stroke-width="8" d=" M-38.49700164794922,136.18899536132812 C-38.49700164794922,136.18899536132812 10.279000282287598,136.18899536132812 10.279000282287598,136.18899536132812 C12.97599983215332,136.18899536132812 15.163000106811523,134.00100708007812 15.163000106811523,131.3040008544922 C15.163000106811523,131.3040008544922 15.163000106811523,112.7229995727539 15.163000106811523,112.7229995727539 C15.163000106811523,86.86199951171875 23.323999404907227,72.66899871826172 50.33100128173828,42.21500015258789 C77.33599853515625,11.76099967956543 94.5739974975586,-14.199999809265137 94.5739974975586,-52.16899871826172 C94.5739974975586,-91.31700134277344 61.731998443603516,-136.18899536132812 -3.440999984741211,-136.18899536132812 C-47.64899826049805,-136.18899536132812 -81.02300262451172,-118.73600006103516 -91.62899780273438,-112.43800354003906 C-93.7030029296875,-111.20600128173828 -94.57499694824219,-108.65499877929688 -93.6780014038086,-106.41600036621094 C-93.6780014038086,-106.41600036621094 -80.0530014038086,-72.39800262451172 -80.0530014038086,-72.39800262451172 C-79.01699829101562,-69.80999755859375 -76.03500366210938,-68.61399841308594 -73.49700164794922,-69.76899719238281 C-63.4640007019043,-74.33499908447266 -38.645999908447266,-84.04000091552734 -15.008000373840332,-80.7509994506836 C13.730999946594238,-76.75299835205078 26.04599952697754,-55.38600158691406 26.04599952697754,-40.82699966430664 C26.04599952697754,-33.76900100708008 30.554000854492188,-16.548999786376953 -2.440999984741211,20.52899932861328 C-31.356000900268555,53.02199935913086 -43.47999954223633,74.86599731445312 -43.47999954223633,111.2509994506836 C-43.47999954223633,121.68800354003906 -43.43299865722656,127.81199645996094 -43.38199996948242,131.3769989013672 C-43.34400177001953,134.0469970703125 -41.167999267578125,136.18899536132812 -38.49700164794922,136.18899536132812z"></path></g><g opacity="1" transform="matrix(1,0,0,1,282.2590026855469,236.46200561523438)"><path stroke-linecap="round" stroke-linejoin="round" fill-opacity="0" stroke="rgb(134,0,1)" stroke-opacity="1" stroke-width="8" d=" M-68.97799682617188,89.36799621582031 C-68.94000244140625,92.03800201416016 -66.76499938964844,94.18000030517578 -64.09400177001953,94.18000030517578 C-64.09400177001953,94.18000030517578 -15.317999839782715,94.18000030517578 -15.317999839782715,94.18000030517578 C-12.621000289916992,94.18000030517578 -10.432999610900879,91.99199676513672 -10.432999610900879,89.29499816894531 C-10.432999610900879,89.29499816894531 -10.432999610900879,70.71399688720703 -10.432999610900879,70.71399688720703 C-10.432999610900879,44.85200119018555 -2.2730000019073486,30.659000396728516 24.733999252319336,0.20499999821186066 C51.7400016784668,-30.249000549316406 68.97799682617188,-56.209999084472656 68.97799682617188,-94.18000030517578"></path></g><g opacity="1" transform="matrix(1,0,0,1,229.66000366210938,132.0189971923828)"><path stroke-linecap="round" stroke-linejoin="round" fill-opacity="0" stroke="rgb(134,0,1)" stroke-opacity="1" stroke-width="8" d=" M-53.04999923706055,-9.965999603271484 C-52.01300048828125,-7.377999782562256 -49.029998779296875,-6.181000232696533 -46.49300003051758,-7.335999965667725 C-36.459999084472656,-11.902000427246094 -11.642999649047852,-21.60700035095215 11.994999885559082,-18.31800079345703 C40.73400115966797,-14.319999694824219 53.04999923706055,7.046999931335449 53.04999923706055,21.60700035095215"></path></g><g opacity="1" transform="matrix(1,0,0,1,218.9429931640625,72.92500305175781)"><path stroke-linecap="round" stroke-linejoin="round" fill-opacity="0" stroke="rgb(254,254,254)" stroke-opacity="1" stroke-width="6" d=" M-0.8809999823570251,0.18299999833106995 C-0.2919999957084656,0.05400000140070915 0.29600000381469727,-0.06700000166893005 0.8809999823570251,-0.18299999833106995"></path></g><g opacity="1" transform="matrix(1,0,0,1,200.86099243164062,78.3239974975586)"><path stroke-linecap="round" stroke-linejoin="round" fill-opacity="0" stroke="rgb(254,254,254)" stroke-opacity="1" stroke-width="6" d=" M-6.301000118255615,2.25600004196167 C-6.301000118255615,2.25600004196167 -0.8109999895095825,-0.009999999776482582 6.301000118255615,-2.25600004196167"></path></g></g></g></svg>