<svg xmlns="http://www.w3.org/2000/svg" viewBox="0 0 512 512" width="512" height="512" style="width: 100%; height: 100%; transform: translate3d(0,0,0);" preserveAspectRatio="xMidYMid meet"><defs><clipPath id="__lottie_element_9836"><rect width="512" height="512" x="0" y="0"></rect></clipPath></defs><g clip-path="url(#__lottie_element_9836)"><g style="display: none;"><path></path><g></g><g></g><g></g><g></g><g></g><g></g></g><g style="display: block;" transform="matrix(1,0,0,1,198.49400329589844,367.5579833984375)" opacity="1"><g opacity="1" transform="matrix(1,0,0,1,0,0)"><path fill="rgb(255,209,64)" fill-opacity="1" d=" M-39.8129997253418,-82.40799713134766 C-40.11399841308594,-48.11800003051758 -17.569000244140625,-53.99100112915039 64.05500030517578,-42.15999984741211 C116.50700378417969,-34.55699920654297 154.5070037841797,-32.55699920654297 159.20899963378906,-46.8849983215332 C159.20899963378906,-46.8849983215332 146.7259979248047,-90.697998046875 114.74800109863281,-72.1050033569336 C114.74800109863281,-72.1050033569336 93.46099853515625,-100.12000274658203 62.084999084472656,-94.28900146484375 C62.084999084472656,-94.28900146484375 33.292999267578125,-121.96700286865234 10.649999618530273,-99.75399780273438 C2.9820001125335693,-104.91799926757812 -31.88599967956543,-109.80500030517578 -39.8129997253418,-82.40799713134766z"></path></g></g><g style="display: block;" transform="matrix(1,0,0,1,197.34600830078125,378.14898681640625)" opacity="1"><g opacity="1" transform="matrix(1,0,0,1,0,0)"><path fill="rgb(255,209,64)" fill-opacity="1" d=" M-38.472999572753906,-97.08699798583984 C-37.07699966430664,-72.10800170898438 -38.292999267578125,-63.2599983215332 -44.025001525878906,-59.19499969482422 C-48.26599884033203,-55.624000549316406 -55.22700119018555,-52.643001556396484 -61.770999908447266,-54.20600128173828 C-78.34400177001953,-58.16299819946289 -87.27799987792969,-74.97799682617188 -102.37300109863281,-82.93599700927734 C-117.46800231933594,-90.8949966430664 -153.4010009765625,-86.61499786376953 -158.68499755859375,-66.67900085449219 C-163.97000122070312,-46.744998931884766 -147.5590057373047,-43.387001037597656 -131.8300018310547,-37.95100021362305 C-109.51200103759766,-29.28499984741211 -96.15899658203125,-14.100000381469727 -85.44000244140625,-0.41999998688697815 C-72.96700286865234,16.479000091552734 -67.88300323486328,23.613000869750977 -49.99399948120117,48.70899963378906 C-31.996999740600586,76.18399810791016 -3.5889999866485596,91.35600280761719 23.604000091552734,95.54100036621094 C50.189998626708984,99.63300323486328 91.1520004272461,96.83699798583984 118.86799621582031,71.8550033569336 C151.85899353027344,42.119998931884766 156.82899475097656,-27.280000686645508 159.6959991455078,-53.75699996948242"></path></g></g><g style="display: block;" transform="matrix(1,0,0,1,88.9219970703125,309.81201171875)" opacity="1"><g opacity="1" transform="matrix(1,0,0,1,0,0)"><path fill="rgb(255,223,121)" fill-opacity="1" d=" M3.2279999256134033,-15.767999649047852 C19.333999633789062,-10.26099967956543 31.19499969482422,7.793000221252441 53.137001037597656,18.15999984741211 C25.233999252319336,24.472999572753906 17.910999298095703,-9.994999885559082 -15.418000221252441,-6.057000160217285 C-29.96299934387207,-4.339000225067139 -40.82899856567383,-6.107999801635742 -53.137001037597656,8.41100025177002 C-44.34600067138672,-25.6560001373291 -8.890999794006348,-19.91200065612793 3.2279999256134033,-15.767999649047852z"></path></g></g><g style="display: block;" transform="matrix(1,0,0,1,337.4309997558594,256.8059997558594)" opacity="1"><g opacity="1" transform="matrix(1,0,0,1,0,0)"><path fill="rgb(255,209,64)" fill-opacity="1" d=" M-27.743999481201172,35.0369987487793 C-18.43400001525879,37.50400161743164 -15.770000457763672,35.4739990234375 -14.947999954223633,29.882999420166016 C-11.994999885559082,9.776000022888184 -12.057999610900879,-3.0850000381469727 -9.305999755859375,-27.85300064086914 C-6.900000095367432,-49.5099983215332 -5.343999862670898,-67.78800201416016 10.1850004196167,-67.58200073242188 C33.22200012207031,-67.2770004272461 27.73900032043457,-27.836999893188477 25.62299919128418,-1.628999948501587 C23.21299934387207,22.81100082397461 20.906999588012695,51.71500015258789 19.610000610351562,67.58300018310547"></path></g></g><g style="display: block;" transform="matrix(1,0,0,1,348.0670166015625,292.8269958496094)" opacity="1"><g opacity="1" transform="matrix(1,0,0,1,0,0)"><path fill="rgb(255,223,121)" fill-opacity="1" d=" M-14.635000228881836,-80.4520034790039 C-12.48900032043457,-84.50599670410156 -2.0299999713897705,-95.25900268554688 3.7279999256134033,-83.79100036621094 C7.947000026702881,-75.38800048828125 7.0370001792907715,-58.36800003051758 5.85099983215332,-39.39699935913086 C4.74399995803833,-21.676000595092773 3.2149999141693115,-6.420000076293945 1.753000020980835,8.295000076293945 C1.1740000247955322,14.123000144958496 0.6060000061988831,19.864999771118164 0.07900000363588333,25.64299964904785 C-0.48100000619888306,31.788000106811523 -0.9959999918937683,37.9739990234375 -1.4259999990463257,44.34199905395508 C-2.763000011444092,64.11799621582031 -4.730999946594238,81.08699798583984 -2.38700008392334,105.02899932861328 C11.800000190734863,62.917999267578125 15.979999542236328,-43.69900131225586 16.26099967956543,-80.91500091552734 C16.347999572753906,-92.36100006103516 11.239999771118164,-100.52799987792969 6.441999912261963,-102.72100067138672 C-11.40999984741211,-110.88200378417969 -20.1200008392334,-95.9530029296875 -14.635000228881836,-80.4520034790039z"></path></g></g><g style="display: block;" transform="matrix(1,0,0,1,332.77099609375,245.1529998779297)" opacity="1"><g opacity="1" transform="matrix(1,0,0,1,0,0)"><path fill="rgb(255,177,57)" fill-opacity="1" d=" M21.884000778198242,-50.23099899291992 C16.707000732421875,-48.819000244140625 8.293000221252441,-40.88800048828125 6.624000072479248,-22.285999298095703 C4.070000171661377,6.173999786376953 1.184999942779541,32.96699905395508 0.028999999165534973,40.132999420166016 C-1.5010000467300415,49.60900115966797 -5.073999881744385,58.428001403808594 -21.868999481201172,54.95500183105469 C-22.232999801635742,50.50400161743164 -15.553000450134277,46.417999267578125 -10.288000106811523,43.229000091552734 C-8.505000114440918,35.33100128173828 -5.610000133514404,-4.510000228881836 -4.269999980926514,-18.079999923706055 C-2.694000005722046,-34.05400085449219 -1.4140000343322754,-49.87799835205078 8.704999923706055,-54.819000244140625 C13.78600025177002,-57.30099868774414 20.589000701904297,-54.3489990234375 21.884000778198242,-50.23099899291992z"></path></g></g><g style="display: block;" transform="matrix(1,0,0,1,186.76998901367188,394.67401123046875)" opacity="1"><g opacity="1" transform="matrix(1,0,0,1,0,0)"><path fill="rgb(255,177,57)" fill-opacity="1" d=" M-39.415000915527344,32.18600082397461 C-21.423999786376953,59.65999984741211 6.985000133514404,74.82599639892578 34.18299865722656,79.01899719238281 C60.76900100708008,83.11199951171875 97.78399658203125,77.04000091552734 116.92500305175781,63.82099914550781 C136.0659942626953,50.60100173950195 142.49099731445312,39.88800048828125 149.88099670410156,24.73900032043457 C154.4810028076172,13.076000213623047 165.72999572753906,-13.423999786376953 171.0590057373047,-83.33100128173828 C165.72999572753906,-70.92400360107422 157.58299255371094,-60.5359992980957 154.87899780273438,-47.382999420166016 C147.22999572753906,-10.17300033569336 142.1909942626953,27.207000732421875 102.74099731445312,47.23400115966797 C80.41400146484375,58.569000244140625 45.62099838256836,55.72700119018555 25.952999114990234,45.891998291015625 C1.6440000534057617,33.737998962402344 -2.0190000534057617,-22.423999786376953 -6.354000091552734,-51.12099838256836 C-10.694999694824219,-79.85700225830078 -40.26900100708008,-63.92399978637695 -58.492000579833984,-61.077999114990234 C-74.71499633789062,-58.54399871826172 -83.3280029296875,-79.63999938964844 -94.6969985961914,-78.74800109863281 C-130.04400634765625,-75.9739990234375 -141.52000427246094,-81.42400360107422 -138.01499938964844,-96.38600158691406 C-164.52000427246094,-66.42400360107422 -132.91000366210938,-59.16899871826172 -117.58599853515625,-52.685001373291016 C-83.28800201416016,-38.172000885009766 -57.4119987487793,4.703000068664551 -39.415000915527344,32.18600082397461z"></path></g></g><g style="display: block;" transform="matrix(1,0,0,1,186.76998901367188,394.67401123046875)" opacity="1"><g opacity="1" transform="matrix(1,0,0,1,0,0)"><path fill="rgb(255,177,57)" fill-opacity="1" d=" M-10.104000091552734,-33.12099838256836 C-10.519000053405762,-49.17399978637695 -0.7699999809265137,-55.67399978637695 -1.9479999542236328,-73.26599884033203 C-2.7019999027252197,-84.52400207519531 -16.270000457763672,-81.17400360107422 -18.628999710083008,-124.93399810791016 C-18.937000274658203,-130.65699768066406 -23.018999099731445,-88.42400360107422 -28.52899932861328,-80.04499816894531 C-37.93299865722656,-65.74400329589844 -58.60599899291992,-72.79499816894531 -59.80799865722656,-74.16500091552734 C-61.77000045776367,-71.42400360107422 -59.76900100708008,-57.17399978637695 -53.992000579833984,-52.327999114990234 C-46.66999816894531,-46.18600082397461 -9.380000114440918,-5.151000022888184 -10.104000091552734,-33.12099838256836z"></path></g></g><g style="display: block;" transform="matrix(1,0,0,1,337.4309997558594,256.8059997558594)" opacity="1"><g opacity="1" transform="matrix(1,0,0,1,0,0)"><path stroke-linecap="round" stroke-linejoin="round" fill-opacity="0" stroke="rgb(247,126,65)" stroke-opacity="1" stroke-width="8" d=" M-27.743999481201172,35.0369987487793 C-18.43400001525879,37.50400161743164 -15.770000457763672,35.4739990234375 -14.947999954223633,29.882999420166016 C-11.994999885559082,9.776000022888184 -12.057999610900879,-3.0850000381469727 -9.305999755859375,-27.85300064086914 C-6.900000095367432,-49.5099983215332 -5.343999862670898,-67.78800201416016 10.1850004196167,-67.58200073242188 C33.22200012207031,-67.2770004272461 27.73900032043457,-27.836999893188477 25.62299919128418,-1.628999948501587 C23.21299934387207,22.81100082397461 20.906999588012695,51.71500015258789 19.610000610351562,67.58300018310547"></path></g></g><g style="display: block;" transform="matrix(1,0,0,1,285.9469909667969,206.875)" opacity="1"><g opacity="1" transform="matrix(1,0,0,1,0,0)"><path fill="rgb(255,209,64)" fill-opacity="1" d=" M-27.06999969482422,65.17400360107422 C-23.160999298095703,67.29399871826172 -16.402000427246094,66.30000305175781 -15.765000343322754,61.28200149536133 C-13.883999824523926,46.44300079345703 -14.87399959564209,6.557000160217285 -13.87399959564209,-24.711999893188477 C-12.696000099182129,-61.566001892089844 -14.128000259399414,-90.89099884033203 6.5960001945495605,-89.56400299072266 C30.900999069213867,-88.00900268554688 28.06599998474121,-54.57699966430664 25.250999450683594,-3.9769999980926514 C22.39699935913086,47.30699920654297 18.93899917602539,75.46499633789062 25.43600082397461,89.60800170898438"></path></g></g><g style="display: block;" transform="matrix(1,0,0,1,299.69000244140625,213.09300231933594)" opacity="1"><g opacity="1" transform="matrix(1,0,0,1,0,0)"><path fill="rgb(255,223,121)" fill-opacity="1" d=" M-15.873000144958496,-71.97599792480469 C-15.873000144958496,-71.97599792480469 -10.769000053405762,-82.85399627685547 -2.1480000019073486,-72.70600128173828 C1.125,-68.85199737548828 1.8660000562667847,-49.334999084472656 1.5149999856948853,-24.947999954223633 C1.1610000133514404,-0.3199999928474426 -0.3070000112056732,29.274999618530273 -1.4010000228881836,52.715999603271484 C-2.4660000801086426,75.5469970703125 -0.3400000035762787,92.73100280761719 12.75,94.86499786376953 C20.652999877929688,95.90699768066406 11.630999565124512,85.70700073242188 9.918999671936035,77.07499694824219 C2.503999948501587,39.678001403808594 20.922000885009766,-70.22799682617188 7.091000080108643,-86.48899841308594 C-10.86400032043457,-107.59700012207031 -16.69499969482422,-83.95700073242188 -15.873000144958496,-71.97599792480469"></path></g></g><g style="display: block;" transform="matrix(1,0,0,1,278.7560119628906,200.46099853515625)" opacity="1"><g opacity="1" transform="matrix(1,0,0,1,0,0)"><path fill="rgb(255,177,57)" fill-opacity="1" d=" M23.17300033569336,-76.96199798583984 C23.17300033569336,-76.96199798583984 11.666000366210938,-84.4020004272461 6.151000022888184,-52.46099853515625 C3.447999954223633,-36.805999755859375 3.0840001106262207,9.819999694824219 2.7190001010894775,38.178001403808594 C2.4000000953674316,63.02899932861328 2.36299991607666,72.8759994506836 -1.6369999647140503,78.22899627685547 C-4.815999984741211,82.48500061035156 -10.286999702453613,84.17900085449219 -17.660999298095703,82.26899719238281 C-30.204999923706055,65.22599792480469 -18.885000228881836,72.00199890136719 -8.045999526977539,69.11499786376953 C-7.076000213623047,62.32600021362305 -6.747000217437744,56.04399871826172 -6.507999897003174,42.698001861572266 C-5.867000102996826,16.25 -7.199999809265137,-29.361000061035156 -5.623000144958496,-45.334999084472656 C-4.046000003814697,-61.308998107910156 -0.9309999942779541,-81.50299835205078 10.930999755859375,-82.87699890136719 C22.79199981689453,-84.2509994506836 23.17300033569336,-76.96199798583984 23.17300033569336,-76.96199798583984"></path></g></g><g style="display: block;" transform="matrix(1,0,0,1,285.9469909667969,206.875)" opacity="1"><g opacity="1" transform="matrix(1,0,0,1,0,0)"><path stroke-linecap="round" stroke-linejoin="round" fill-opacity="0" stroke="rgb(247,126,65)" stroke-opacity="1" stroke-width="8" d=" M-27.06999969482422,65.17400360107422 C-23.160999298095703,67.29399871826172 -16.402000427246094,66.30000305175781 -15.765000343322754,61.28200149536133 C-13.883999824523926,46.44300079345703 -14.87399959564209,6.557000160217285 -13.87399959564209,-24.711999893188477 C-12.696000099182129,-61.566001892089844 -14.128000259399414,-90.89099884033203 6.5960001945495605,-89.56400299072266 C30.900999069213867,-88.00900268554688 28.06599998474121,-54.57699966430664 25.250999450683594,-3.9769999980926514 C22.39699935913086,47.30699920654297 18.93899917602539,75.46499633789062 25.43600082397461,89.60800170898438"></path></g></g><g style="display: block;" transform="matrix(1,0,0,1,229.93499755859375,182.28201293945312)" opacity="1"><g opacity="1" transform="matrix(1,0,0,1,0,0)"><path fill="rgb(255,209,64)" fill-opacity="1" d=" M27.32200050354004,97.04499816894531 C24.93000030517578,81.05999755859375 26.20599937438965,51.12900161743164 25.072999954223633,-2.869999885559082 C24.07900047302246,-50.28799819946289 26.77199935913086,-96.40399932861328 2.638000011444092,-97.03399658203125 C-22.655000686645508,-97.69400024414062 -18.3700008392334,-69.51000213623047 -17.636999130249023,-20.02899932861328 C-17.069000244140625,18.222999572753906 -14.970000267028809,76.70999908447266 -15.88599967956543,80.68199920654297 C-16.80299949645996,84.65399932861328 -23.014999389648438,85.89099884033203 -27.32200050354004,83.71199798583984"></path></g></g><g style="display: block;" transform="matrix(1,0,0,1,239.72999572753906,193.86500549316406)" opacity="1"><g opacity="1" transform="matrix(1,0,0,1,0,0)"><path fill="rgb(255,223,121)" fill-opacity="1" d=" M-25.95400047302246,-89.34200286865234 C-28.729000091552734,-87.48799896240234 -11,-100.6969985961914 -3.746999979019165,-91.43199920654297 C1.3339999914169312,-84.94200134277344 2.9140000343322754,-54.16699981689453 3.678999900817871,-22.725000381469727 C4.313000202178955,3.3410000801086426 4.386000156402588,29.865999221801758 5.427999973297119,43.39099884033203 C6.867000102996826,62.069000244140625 5.203000068664551,80.09700012207031 9.347000122070312,91.88200378417969 C13.829000473022461,104.62799835205078 18.347999572753906,109.3949966430664 25.118000030517578,108.1050033569336 C29.59600067138672,106.79000091552734 19.32900047302246,90.1780014038086 18.768999099731445,80.84100341796875 C16.902000427246094,66.08899688720703 16.767000198364258,25.834999084472656 16.23200035095215,-4.0879998207092285 C15.600000381469727,-39.39699935913086 13.229000091552734,-80.53099822998047 8.395999908447266,-93.60900115966797 C1.6419999599456787,-111.87699890136719 -23.472999572753906,-115.96299743652344 -25.95400047302246,-89.34200286865234z"></path></g></g><g style="display: block;" transform="matrix(1,0,0,1,218.56900024414062,181.35101318359375)" opacity="1"><g opacity="1" transform="matrix(1,0,0,1,0,0)"><path fill="rgb(255,177,57)" fill-opacity="1" d=" M17.46500015258789,-94.03399658203125 C12.302000045776367,-93.18499755859375 6.570000171661377,-90.3499984741211 4.504000186920166,-71.76799774169922 C1.562999963760376,-45.31800079345703 5.127999782562256,-3.5789999961853027 5.97599983215332,19.673999786376953 C6.823999881744385,42.92599868774414 7.824999809265137,73.50399780273438 5.25,86.61599731445312 C3.9200000762939453,93.38800048828125 0.9240000247955322,94.63300323486328 -3.062000036239624,95.74800109863281 C-9.600000381469727,97.5770034790039 -18.606000900268555,95.6760025024414 -17.34600067138672,89.1719970703125 C-2.815000057220459,84.59600067138672 -3.242000102996826,81.35900115966797 -4.300000190734863,41.42100143432617 C-5.15500020980835,9.168999671936035 -7.133999824523926,-58.448001861572266 -6.51800012588501,-74 C-6.059000015258789,-85.61199951171875 0.9419999718666077,-102.72699737548828 17.46500015258789,-94.03399658203125z"></path></g></g><g style="display: block;" transform="matrix(1,0,0,1,229.93499755859375,182.28201293945312)" opacity="1"><g opacity="1" transform="matrix(1,0,0,1,0,0)"><path stroke-linecap="round" stroke-linejoin="round" fill-opacity="0" stroke="rgb(247,126,65)" stroke-opacity="1" stroke-width="8" d=" M27.32200050354004,97.04499816894531 C24.93000030517578,81.05999755859375 26.20599937438965,51.12900161743164 25.072999954223633,-2.869999885559082 C24.07900047302246,-50.28799819946289 26.77199935913086,-96.40399932861328 2.638000011444092,-97.03399658203125 C-22.655000686645508,-97.69400024414062 -18.3700008392334,-69.51000213623047 -17.636999130249023,-20.02899932861328 C-17.069000244140625,18.222999572753906 -14.970000267028809,76.70999908447266 -15.88599967956543,80.68199920654297 C-16.80299949645996,84.65399932861328 -23.014999389648438,85.89099884033203 -27.32200050354004,83.71199798583984"></path></g></g><g style="display: block;" transform="matrix(1,0,0,1,176.4250030517578,196.7689971923828)" opacity="1"><g opacity="1" transform="matrix(1,0,0,1,0,0)"><path fill="rgb(255,209,64)" fill-opacity="1" d=" M-17.55299949645996,82.79299926757812 C-18.174999237060547,67.48100280761719 -21.44099998474121,22.209999084472656 -22.34600067138672,6.1020002365112305 C-25.08099937438965,-42.5629997253418 -35.08599853515625,-81.14700317382812 -9.946999549865723,-84.28600311279297 C12.973999977111816,-84.83599853515625 12.293000221252441,-53.53200149536133 15.920999526977539,-14.96399974822998 C19.599000930786133,24.135000228881836 23.274999618530273,62.33700180053711 26.618999481201172,77.33000183105469"></path></g></g><g style="display: block;" transform="matrix(1,0,0,1,182.20599365234375,204.84500122070312)" opacity="1"><g opacity="1" transform="matrix(1,0,0,1,0,0)"><path fill="rgb(255,223,121)" fill-opacity="1" d=" M-29.19300079345703,-75.50900268554688 C-26.19700050354004,-79.77899932861328 -10.102999687194824,-86.11499786376953 -5.511000156402588,-66.08399963378906 C-3.752000093460083,-58.4119987487793 -1.1069999933242798,-33.04600143432617 1.5399999618530273,-6.104000091552734 C4.500999927520752,24.0310001373291 7.464000225067139,56.13600158691406 9.190999984741211,67.66100311279297 C11.29800033569336,81.7229995727539 15.99899959564209,94.16300201416016 27.825000762939453,93.86699676513672 C32.803001403808594,93.69999694824219 22.777999877929688,75.00399780273438 20.31599998474121,66.7229995727539 C15.229000091552734,49.611000061035156 8.055000305175781,-47.59299850463867 6.5370001792907715,-61.13999938964844 C4.551000118255615,-78.86100006103516 -0.42399999499320984,-95.99800109863281 -16.43899917602539,-93.65699768066406 C-23.520000457763672,-92.62200164794922 -28.506999969482422,-84.9010009765625 -29.19300079345703,-75.50900268554688z"></path></g></g><g style="display: block;" transform="matrix(1,0,0,1,154.93800354003906,222.69700622558594)" opacity="1"><g opacity="1" transform="matrix(1,0,0,1,0,0)"><path fill="rgb(255,177,57)" fill-opacity="1" d=" M-4.659999847412109,-75.86599731445312 C-3.687000036239624,-53.61000061035156 2.696000099182129,25.26300048828125 4.004000186920166,49.68199920654297 C5.201000213623047,72.02400207519531 4.573999881744385,87.80500030517578 0.335999995470047,93.61900329589844 C-6.328999996185303,102.76599884033203 -15.359000205993652,103.33599853515625 -22.5049991607666,102.37100219726562 C-15.744999885559082,107.55500030517578 5.26800012588501,114.58100128173828 11.708999633789062,107.40799713134766 C19.07200050354004,99.20899963378906 15.670000076293945,85.89299774169922 15.310999870300293,70.41300201416016 C15.074999809265137,60.25 14.682999610900879,50.42900085449219 13.505000114440918,37.73899841308594 C11.565999984741211,16.836000442504883 6.585999965667725,-58.308998107910156 6.15500020980835,-81.1520004272461 C5.849999904632568,-97.31300354003906 15.49899959564209,-105.01100158691406 22.5049991607666,-105.72599792480469 C3.7839999198913574,-119.08100128173828 -5.829999923706055,-102.64700317382812 -4.659999847412109,-75.86599731445312z"></path></g></g><g style="display: block;" transform="matrix(1,0,0,1,176.4250030517578,196.7689971923828)" opacity="1"><g opacity="1" transform="matrix(1,0,0,1,0,0)"><path stroke-linecap="round" stroke-linejoin="round" fill-opacity="0" stroke="rgb(247,126,65)" stroke-opacity="1" stroke-width="8" d=" M-17.55299949645996,82.79299926757812 C-18.174999237060547,67.48100280761719 -21.44099998474121,22.209999084472656 -22.34600067138672,6.1020002365112305 C-25.08099937438965,-42.5629997253418 -35.08599853515625,-81.14700317382812 -9.946999549865723,-84.28600311279297 C12.973999977111816,-84.83599853515625 12.293000221252441,-53.53200149536133 15.920999526977539,-14.96399974822998 C19.599000930786133,24.135000228881836 23.274999618530273,62.33700180053711 26.618999481201172,77.33000183105469"></path></g></g><g style="display: block;" transform="matrix(1,0,0,1,197.34600830078125,378.14898681640625)" opacity="1"><g opacity="1" transform="matrix(1,0,0,1,0,0)"><path stroke-linecap="round" stroke-linejoin="round" fill-opacity="0" stroke="rgb(247,126,65)" stroke-opacity="1" stroke-width="8" d=" M-38.472999572753906,-97.08699798583984 C-37.07699966430664,-72.10800170898438 -38.292999267578125,-63.2599983215332 -44.025001525878906,-59.19499969482422 C-48.26599884033203,-55.624000549316406 -55.22700119018555,-52.643001556396484 -61.770999908447266,-54.20600128173828 C-78.34400177001953,-58.16299819946289 -87.27799987792969,-74.97799682617188 -102.37300109863281,-82.93599700927734 C-117.46800231933594,-90.8949966430664 -153.4010009765625,-86.61499786376953 -158.68499755859375,-66.67900085449219 C-163.97000122070312,-46.744998931884766 -147.5590057373047,-43.387001037597656 -131.8300018310547,-37.95100021362305 C-109.51200103759766,-29.28499984741211 -96.15899658203125,-14.100000381469727 -85.44000244140625,-0.41999998688697815 C-72.96700286865234,16.479000091552734 -67.88300323486328,23.613000869750977 -49.99399948120117,48.70899963378906 C-31.996999740600586,76.18399810791016 -3.5889999866485596,91.35600280761719 23.604000091552734,95.54100036621094 C50.189998626708984,99.63300323486328 91.1520004272461,96.83699798583984 118.86799621582031,71.8550033569336 C151.85899353027344,42.119998931884766 156.82899475097656,-27.280000686645508 159.6959991455078,-53.75699996948242"></path></g></g><g style="display: block;" transform="matrix(1,0,0,1,322.3450012207031,289.1600036621094)" opacity="1"><g opacity="1" transform="matrix(1,0,0,1,0,0)"><path stroke-linecap="round" stroke-linejoin="round" fill-opacity="0" stroke="rgb(247,126,65)" stroke-opacity="1" stroke-width="8" d=" M-0.7129999995231628,5.940999984741211 C0.09399999678134918,1.8070000410079956 0.23499999940395355,-2.700000047683716 0.7129999995231628,-5.940999984741211"></path></g></g><g style="display: block;" transform="matrix(1,0,0,1,270.3710021972656,269.6600036621094)" opacity="1"><g opacity="1" transform="matrix(1,0,0,1,0,0)"><path fill="rgb(255,223,121)" fill-opacity="1" d=" M-0.4790000021457672,9.666999816894531 C0.0949999988079071,5.168000221252441 0.3109999895095825,-0.8330000042915344 0.4790000021457672,-9.666999816894531"></path><path stroke-linecap="round" stroke-linejoin="round" fill-opacity="0" stroke="rgb(247,126,65)" stroke-opacity="1" stroke-width="8" d=" M-0.4790000021457672,9.666999816894531 C0.0949999988079071,5.168000221252441 0.3109999895095825,-0.8330000042915344 0.4790000021457672,-9.666999816894531"></path></g></g><g style="display: block;" transform="matrix(1,0,0,1,214.49000549316406,263.2330017089844)" opacity="1"><g opacity="1" transform="matrix(1,0,0,1,0,0)"><path fill="rgb(255,223,121)" fill-opacity="1" d=" M0.16099999845027924,10.34000015258789 C0.296999990940094,6.748000144958496 -0.1850000023841858,-5.439000129699707 -0.1850000023841858,-10.34000015258789"></path><path stroke-linecap="round" stroke-linejoin="round" fill-opacity="0" stroke="rgb(247,126,65)" stroke-opacity="1" stroke-width="8" d=" M0.16099999845027924,10.34000015258789 C0.296999990940094,6.748000144958496 -0.1850000023841858,-5.439000129699707 -0.1850000023841858,-10.34000015258789"></path></g></g><g style="display: block;" transform="matrix(1,0,0,1,236.61399841308594,103.21798706054688)" opacity="1"><g opacity="1" transform="matrix(1,0,0,1,0,0)"><path stroke-linecap="round" stroke-linejoin="round" fill-opacity="0" stroke="rgb(255,255,255)" stroke-opacity="1" stroke-width="6" d=" M1.4170000553131104,2.6530001163482666 C1.3619999885559082,0.3869999945163727 -0.5720000267028809,-1.8179999589920044 -1.4170000553131104,-2.6530001163482666"></path></g></g><g style="display: block;" transform="matrix(1,0,0,1,256,256)" opacity="1"><g opacity="1" transform="matrix(1,0,0,1,101.25,16.25)"><path fill="rgb(255,177,57)" fill-opacity="1" d=" M-31.770999908447266,39.72700119018555 C-32.23500061035156,40.040000915527344 -32.62699890136719,40.78200149536133 -32.9370002746582,41.80799865722656 C-34.49599838256836,46.9630012512207 -34.03799819946289,59.292999267578125 -30.81599998474121,60.41699981689453 C-27.165000915527344,61.691001892089844 -22.875,52.375 -23.474000930786133,48.99599838256836 C-24.222999572753906,44.76599884033203 -28.825000762939453,37.74300003051758 -31.770999908447266,39.72700119018555z"></path></g><g opacity="1" transform="matrix(1,0,0,1,55,5.25)"><path fill="rgb(255,177,57)" fill-opacity="1" d=" M-31.874000549316406,40.053001403808594 C-32.59400177001953,40.67399978637695 -33.07099914550781,42.305999755859375 -33.314998626708984,44.44499969482422 C-34.090999603271484,51.25400161743164 -32.50699996948242,63.198001861572266 -28.91900062561035,63.987998962402344 C-24.464000701904297,64.96900177001953 -21,52.75 -21.915000915527344,49.58000183105469 C-22.860000610351562,46.308998107910156 -28.700000762939453,37.31700134277344 -31.874000549316406,40.053001403808594z"></path></g><g opacity="1" transform="matrix(1,0,0,1,0,0)"><path fill="rgb(255,177,57)" fill-opacity="1" d=" M-31,40.25 C-32.29600143432617,41.402000427246094 -32.70000076293945,44.33599853515625 -32.512001037597656,47.972999572753906 C-32.04600143432617,56.965999603271484 -27.95400047302246,70.25399780273438 -24.75,71.5 C-23.573999404907227,71.95700073242188 -22.43199920654297,71.38999938964844 -21.422000885009766,70.15499877929688 C-18.569000244140625,66.66500091552734 -16.773000717163086,57.84400177001953 -18.25,51.75 C-20.07900047302246,44.20600128173828 -27.868000030517578,37.465999603271484 -31,40.25z"></path></g></g></g></svg>