<svg xmlns="http://www.w3.org/2000/svg" viewBox="0 0 512 512" width="512" height="512" style="width: 100%; height: 100%; transform: translate3d(0,0,0);" preserveAspectRatio="xMidYMid meet"><defs><clipPath id="__lottie_element_9924"><rect width="512" height="512" x="0" y="0"></rect></clipPath><linearGradient id="__lottie_element_9933" spreadMethod="pad" gradientUnits="userSpaceOnUse" x1="-131" y1="-149" x2="145.27200317382812" y2="-149"><stop offset="9%" stop-color="rgb(174,0,0)"></stop><stop offset="19%" stop-color="rgb(214,20,0)"></stop><stop offset="48%" stop-color="rgb(255,41,0)"></stop><stop offset="82%" stop-color="rgb(214,20,0)"></stop><stop offset="91%" stop-color="rgb(174,0,0)"></stop></linearGradient><linearGradient id="__lottie_element_9934" spreadMethod="pad" gradientUnits="userSpaceOnUse" x1="-169" y1="-89" x2="170.98399353027344" y2="-89"><stop offset="0%" stop-color="rgb(206,204,203)"></stop><stop offset="9%" stop-color="rgb(231,229,229)"></stop><stop offset="49%" stop-color="rgb(255,255,255)"></stop><stop offset="93%" stop-color="rgb(226,226,225)"></stop><stop offset="100%" stop-color="rgb(198,197,195)"></stop></linearGradient><linearGradient id="__lottie_element_9941" spreadMethod="pad" gradientUnits="userSpaceOnUse" x1="-60.534000396728516" y1="35" x2="-48.22700119018555" y2="53.73099899291992"><stop offset="0%" stop-color="rgb(60,5,0)"></stop><stop offset="38%" stop-color="rgb(111,45,0)"></stop><stop offset="100%" stop-color="rgb(162,84,0)"></stop></linearGradient><linearGradient id="__lottie_element_9942" spreadMethod="pad" gradientUnits="userSpaceOnUse" x1="62.840999603271484" y1="34.125" x2="76.14800262451172" y2="52.35599899291992"><stop offset="0%" stop-color="rgb(60,5,0)"></stop><stop offset="38%" stop-color="rgb(111,45,0)"></stop><stop offset="100%" stop-color="rgb(162,84,0)"></stop></linearGradient></defs><g clip-path="url(#__lottie_element_9924)"><g style="display: block;" transform="matrix(1,0,0,1,260.6780090332031,268.3529968261719)" opacity="1"><g opacity="1" transform="matrix(1,0,0,1,0,0)"><path fill="rgb(174,0,0)" fill-opacity="1" d=" M146.41400146484375,-66.71499633789062 C146.41400146484375,-66.71499633789062 152.25799560546875,-20.073999404907227 149.71499633789062,37.36800003051758 C148.1320037841797,73.12999725341797 147.28700256347656,110.96900177001953 154.25799560546875,141.75 C154.25799560546875,141.75 142.25,147 125.0250015258789,108.62699890136719 C106.08300018310547,66.4280014038086 93.68900299072266,1.4559999704360962 102.54100036621094,-38.03499984741211 C111.39299774169922,-77.5260009765625 146.41400146484375,-66.71499633789062 146.41400146484375,-66.71499633789062z"></path><path stroke-linecap="round" stroke-linejoin="round" fill-opacity="0" stroke="rgb(117,0,0)" stroke-opacity="1" stroke-width="8" d=" M146.41400146484375,-66.71499633789062 C146.41400146484375,-66.71499633789062 152.25799560546875,-20.073999404907227 149.71499633789062,37.36800003051758 C148.1320037841797,73.12999725341797 147.28700256347656,110.96900177001953 154.25799560546875,141.75 C154.25799560546875,141.75 142.25,147 125.0250015258789,108.62699890136719 C106.08300018310547,66.4280014038086 93.68900299072266,1.4559999704360962 102.54100036621094,-38.03499984741211 C111.39299774169922,-77.5260009765625 146.41400146484375,-66.71499633789062 146.41400146484375,-66.71499633789062z"></path></g></g><g style="display: block;" transform="matrix(1,0,0,1,260.6780090332031,268.3529968261719)" opacity="1"><g opacity="1" transform="matrix(1,0,0,1,0,0)"><path fill="rgb(235,234,234)" fill-opacity="1" d=" M162.4770050048828,122.53600311279297 C178.83299255371094,125.5 187.58200073242188,138.09800720214844 186.51300048828125,151.96600341796875 C185.44400024414062,165.83399963378906 176.56199645996094,177.52099609375 156.531005859375,177.66099548339844 C136.5,177.80099487304688 126.16699981689453,159.83399963378906 131.98300170898438,143.4499969482422 C135.26800537109375,134.197998046875 146.12100219726562,119.5719985961914 162.4770050048828,122.53600311279297z"></path></g><g opacity="0.2" transform="matrix(1,0,0,1,0,0)"><path fill="rgb(144,148,158)" fill-opacity="1" d=" M131.53199768066406,146.1479949951172 C131.79200744628906,149.59800720214844 135.95199584960938,152.8280029296875 135.95199584960938,152.8280029296875 C135.3730010986328,162.08900451660156 146.33200073242188,160.48800659179688 146.33200073242188,160.48800659179688 C150.25,166.08299255371094 160.08299255371094,165.41600036621094 164.07200622558594,160.84800720214844 C170.58299255371094,162.66600036621094 177.5,157.58299255371094 174.6219940185547,150.13800048828125 C174.6219940185547,150.13800048828125 179.95799255371094,147.57200622558594 177.19200134277344,143.2779998779297 C177.19200134277344,143.2779998779297 179.82200622558594,134.20799255371094 179.82200622558594,134.20799255371094 C209,189.625 114.25,188 131.53199768066406,146.1479949951172z"></path></g><g opacity="1" transform="matrix(1,0,0,1,0,0)"><path stroke-linecap="butt" stroke-linejoin="miter" fill-opacity="0" stroke-miterlimit="10" stroke="rgb(180,176,173)" stroke-opacity="1" stroke-width="8" d=" M150.18899536132812,126.62200164794922 C157.36500549316406,121.70899963378906 163.33099365234375,122.50900268554688 168.32200622558594,127.91200256347656 C168.32200622558594,127.91200256347656 175.31100463867188,126.76000213623047 179.01199340820312,132.71800231933594 C181.60899353027344,136.8990020751953 181.26100158691406,140.88900756835938 181.26100158691406,140.88900756835938 C187.625,144.375 188.375,155.48199462890625 181.93499755859375,159.3820037841797 C184.5,168 178.625,176.125 168.89599609375,174.86500549316406 C161.4739990234375,180.1060028076172 154.38400268554688,180.4250030517578 147.76300048828125,173.7899932861328 C147.76300048828125,173.7899932861328 139.69700622558594,172.7519989013672 134.94900512695312,167.69400024414062 C130.76300048828125,163.23500061035156 130.0030059814453,157.23800659179688 132.0260009765625,152.49899291992188 C132.0260009765625,152.49899291992188 128.9010009765625,141.4720001220703 137.33399963378906,135.79400634765625 C137.33399963378906,135.79400634765625 139.0780029296875,126.9540023803711 150.18899536132812,126.62200164794922z"></path></g></g><g style="display: block;" transform="matrix(1,0,0,1,254.17799377441406,255.85299682617188)" opacity="1"><g opacity="1" transform="matrix(1,0,0,1,0,0)"><path fill="rgb(255,169,0)" fill-opacity="1" d=" M-125.9990005493164,35.89899826049805 C-125.9990005493164,35.89899826049805 -133.60299682617188,29.304000854492188 -138.13699340820312,38.599998474121094 C-143.53799438476562,49.672000885009766 -133.08799743652344,95.86399841308594 -125.50800323486328,101.73799896240234 C-115.40599822998047,109.56500244140625 -101.24400329589844,86.29000091552734 -125.9990005493164,35.89899826049805z"></path><path stroke-linecap="round" stroke-linejoin="round" fill-opacity="0" stroke="rgb(220,119,0)" stroke-opacity="1" stroke-width="8" d=" M-125.9990005493164,35.89899826049805 C-125.9990005493164,35.89899826049805 -133.60299682617188,29.304000854492188 -138.13699340820312,38.599998474121094 C-143.53799438476562,49.672000885009766 -133.08799743652344,95.86399841308594 -125.50800323486328,101.73799896240234 C-115.40599822998047,109.56500244140625 -101.24400329589844,86.29000091552734 -125.9990005493164,35.89899826049805z"></path></g><g opacity="1" transform="matrix(1,0,0,1,0,0)"><path fill="rgb(255,169,0)" fill-opacity="1" d=" M136.76199340820312,35.89899826049805 C136.76199340820312,35.89899826049805 144.36700439453125,29.304000854492188 148.9010009765625,38.599998474121094 C154.302001953125,49.672000885009766 143.8509979248047,95.86399841308594 136.27099609375,101.73799896240234 C126.16899871826172,109.56500244140625 112.00700378417969,86.29000091552734 136.76199340820312,35.89899826049805z"></path><path stroke-linecap="round" stroke-linejoin="round" fill-opacity="0" stroke="rgb(220,119,0)" stroke-opacity="1" stroke-width="8" d=" M136.76199340820312,35.89899826049805 C136.76199340820312,35.89899826049805 144.36700439453125,29.304000854492188 148.9010009765625,38.599998474121094 C154.302001953125,49.672000885009766 143.8509979248047,95.86399841308594 136.27099609375,101.73799896240234 C126.16899871826172,109.56500244140625 112.00700378417969,86.29000091552734 136.76199340820312,35.89899826049805z"></path></g></g><g style="display: block;" transform="matrix(1,0,0,1,254.17799377441406,255.85299682617188)" opacity="1"><g opacity="1" transform="matrix(1,0,0,1,0,0)"><path fill="rgb(255,205,0)" fill-opacity="1" d=" M5.321000099182129,-105.93499755859375 C-123.3550033569336,-105.93499755859375 -139.38099670410156,32.38800048828125 -118.42900085449219,94.06099700927734 C-99.0530014038086,151.09500122070312 -68.68599700927734,155.8979949951172 -54.13600158691406,168.1750030517578 C-39.58599853515625,180.45199584960938 -21.489999771118164,190.54600524902344 5.321000099182129,190.54600524902344 C32.13199996948242,190.54600524902344 50.229000091552734,180.45199584960938 64.77899932861328,168.1750030517578 C79.3290023803711,155.8979949951172 109.69499969482422,151.09500122070312 129.0709991455078,94.06099700927734 C150.0229949951172,32.38800048828125 133.9969940185547,-105.93499755859375 5.321000099182129,-105.93499755859375z"></path></g><g opacity="1" transform="matrix(1,0,0,1,0,0)"><path fill="rgb(255,169,0)" fill-opacity="1" d=" M47.49399948120117,-100.15799713134766 C36.84400177001953,-102.01200103759766 17.60300064086914,-70.98999786376953 36.24300003051758,-50.88100051879883 C53.435001373291016,-32.33300018310547 72.5719985961914,-29.025999069213867 72.88600158691406,-36.65399932861328 C72.88600158691406,-36.65399932861328 98.48300170898438,-22.349000930786133 99.3949966430664,-18.04800033569336 C107.6709976196289,20.975000381469727 120.34200286865234,31.06999969482422 123.36399841308594,52.87200164794922 C129.07400512695312,94.06199645996094 106.28500366210938,136.44400024414062 61.75699996948242,146.81300354003906 C54.38199996948242,148.52999877929688 46.29999923706055,178.48899841308594 5.321000099182129,178.48899841308594 C-33.87699890136719,178.48899841308594 -45.821998596191406,148.62899780273438 -51.8120002746582,147.50900268554688 C-98.33799743652344,138.81300354003906 -120.90599822998047,85.73999786376953 -113.63600158691406,52.87200164794922 C-108.88300323486328,31.381000518798828 -108.18900299072266,26.704999923706055 -107.9260025024414,8.362000465393066 C-107.69599914550781,-7.630000114440918 -80.76599884033203,-34.1879997253418 -80.76599884033203,-34.1879997253418 C-74.58300018310547,-24.20199966430664 -55.13999938964844,-52.16400146484375 -55.13999938964844,-52.16400146484375 C-25.589000701904297,-66.28500366210938 -25.695999145507812,-82.73699951171875 -37.09600067138672,-100.0780029296875 C-126.73600006103516,-73.14800262451172 -136.8159942626953,39.96200180053711 -118.4260025024414,94.06199645996094 C-99.05599975585938,151.0919952392578 -68.68599700927734,155.90199279785156 -54.13600158691406,168.1719970703125 C-39.58599853515625,180.45199584960938 -21.486000061035156,190.54200744628906 5.323999881744385,190.54200744628906 C32.13399887084961,190.54200744628906 50.2239990234375,180.45199584960938 64.77400207519531,168.1719970703125 C79.3239974975586,155.90199279785156 109.69400024414062,151.0919952392578 129.07400512695312,94.06199645996094 C147.4739990234375,39.9119987487793 137.35400390625,-73.35800170898438 47.49399948120117,-100.15799713134766z"></path></g><g opacity="1" transform="matrix(1,0,0,1,0,0)"><path fill="rgb(255,169,0)" fill-opacity="1" d=" M121.46399688720703,-38.3380012512207 C118.68399810791016,-38.24800109863281 110.09400177001953,-38.95800018310547 103.42400360107422,-49.667999267578125 C103.42400360107422,-49.667999267578125 90.11399841308594,-41.257999420166016 71.13400268554688,-54.04800033569336 C69.44400024414062,-50.52799987792969 63.2239990234375,-40.4379997253418 46.20399856567383,-55.36800003051758 C28.46500015258789,-42.777000427246094 9.208999633789062,-45.14899826049805 -5.785999774932861,-55.89799880981445 C-11.65999984741211,-46.625 -48.909000396728516,-36.45600128173828 -57.11600112915039,-52.757999420166016 C-57.11600112915039,-52.757999420166016 -68.48600006103516,-43.198001861572266 -79.9260025024414,-50.89799880981445 C-79.9260025024414,-50.89799880981445 -89.78500366210938,-34.125 -111.7760009765625,-36.167999267578125 C-104.78500366210938,-120.89700317382812 57.88199996948242,-159 121.46399688720703,-38.3380012512207z"></path></g><g opacity="1" transform="matrix(1,0,0,1,0,0)"><path stroke-linecap="round" stroke-linejoin="round" fill-opacity="0" stroke="rgb(220,119,0)" stroke-opacity="1" stroke-width="8" d=" M5.321000099182129,-105.93499755859375 C-123.3550033569336,-105.93499755859375 -139.38099670410156,32.38800048828125 -118.42900085449219,94.06099700927734 C-99.0530014038086,151.09500122070312 -68.68599700927734,155.8979949951172 -54.13600158691406,168.1750030517578 C-39.58599853515625,180.45199584960938 -21.489999771118164,190.54600524902344 5.321000099182129,190.54600524902344 C32.13199996948242,190.54600524902344 50.229000091552734,180.45199584960938 64.77899932861328,168.1750030517578 C79.3290023803711,155.8979949951172 109.69499969482422,151.09500122070312 129.0709991455078,94.06099700927734 C150.0229949951172,32.38800048828125 133.9969940185547,-105.93499755859375 5.321000099182129,-105.93499755859375z"></path></g><g opacity="0.2" transform="matrix(1,0,0,1,0,0)"><path stroke-linecap="round" stroke-linejoin="round" fill-opacity="0" stroke="rgb(220,119,0)" stroke-opacity="1" stroke-width="8" d=" M-41.95100021362305,-27.332000732421875 C-41.95100021362305,-27.332000732421875 4.669000148773193,-24.422000885009766 51.28900146484375,-27.332000732421875"></path></g><g opacity="0.2" transform="matrix(1,0,0,1,0,0)"><path stroke-linecap="round" stroke-linejoin="round" fill-opacity="0" stroke="rgb(220,119,0)" stroke-opacity="1" stroke-width="8" d=" M-22.95199966430664,-44.42300033569336 C-22.95199966430664,-44.42300033569336 4.669000148773193,-42.16400146484375 32.28900146484375,-44.42300033569336"></path></g></g><g style="display: block;" transform="matrix(1,0,0,1,254.0489959716797,256.64898681640625)" opacity="1"><g opacity="0.2" transform="matrix(1,0,0,1,0,0)"><path fill="rgb(220,119,0)" fill-opacity="1" d=" M23.150999069213867,91.05699920654297 C23.150999069213867,97.77400207519531 14.628000259399414,103.74700164794922 5.3460001945495605,103.74700164794922 C-3.936000108718872,103.74700164794922 -12.460000038146973,97.77400207519531 -12.460000038146973,91.05699920654297 C-12.460000038146973,84.33999633789062 -3.936000108718872,78.18099975585938 5.3460001945495605,78.18099975585938 C14.628000259399414,78.18099975585938 23.150999069213867,84.33999633789062 23.150999069213867,91.05699920654297z"></path></g><g opacity="1" transform="matrix(1,0,0,1,0,0)"><path fill="rgb(220,119,0)" fill-opacity="1" d=" M22.150999069213867,86.05699920654297 C22.150999069213867,92.77400207519531 14.628000259399414,97.74700164794922 5.3460001945495605,97.74700164794922 C-3.936000108718872,97.74700164794922 -11.460000038146973,92.77400207519531 -11.460000038146973,86.05699920654297 C-11.460000038146973,79.33999633789062 -3.936000108718872,74.18099975585938 5.3460001945495605,74.18099975585938 C14.628000259399414,74.18099975585938 22.150999069213867,79.33999633789062 22.150999069213867,86.05699920654297z"></path></g><g opacity="1" transform="matrix(1,0,0,1,0,0)"><path fill="rgb(255,205,0)" fill-opacity="1" d=" M20.503000259399414,82.94599914550781 C20.503000259399414,87.9469985961914 15.34000015258789,92.72699737548828 5.3460001945495605,92.72699737548828 C-4.783999919891357,92.72699737548828 -9.812000274658203,87.9469985961914 -9.812000274658203,82.94599914550781 C-9.812000274658203,77.94499969482422 -2.683000087738037,73.98500061035156 5.3460001945495605,73.98500061035156 C13.375,73.98500061035156 20.503000259399414,77.94499969482422 20.503000259399414,82.94599914550781z"></path></g><g opacity="1" transform="matrix(1,0,0,1,0,0)"><path fill="rgb(255,224,112)" fill-opacity="1" d=" M14.041999816894531,79.0790023803711 C14.041999816894531,81.71099853515625 10.14900016784668,84.18699645996094 5.3460001945495605,84.18699645996094 C0.5429999828338623,84.18699645996094 -3.3510000705718994,81.71099853515625 -3.3510000705718994,79.0790023803711 C-3.3510000705718994,76.4469985961914 0.5429999828338623,75.1259994506836 5.3460001945495605,75.1259994506836 C10.14900016784668,75.1259994506836 14.041999816894531,76.4469985961914 14.041999816894531,79.0790023803711z"></path></g></g><g style="display: block;" transform="matrix(1,0,0,1,254.17799377441406,255.85299682617188)" opacity="1"><g opacity="1" transform="matrix(1,0,0,1,0,0)"><path fill="rgb(255,170,0)" fill-opacity="1" d=" M-125.86100006103516,51.7130012512207 C-123.97599792480469,55.18199920654297 -120.41899871826172,39.54899978637695 -117.45800018310547,7.432000160217285 C-115.38099670410156,-15.095999717712402 -91.52899932861328,-30.39900016784668 -76.6520004272461,-56.75299835205078 C-76.6520004272461,-56.75299835205078 -76.6520004272461,-40.17599868774414 -76.6520004272461,-40.17599868774414 C-76.6520004272461,-40.17599868774414 -58.07400131225586,-53.77799987792969 -51.698001861572266,-78.85700225830078 C-51.698001861572266,-78.85700225830078 -26.180999755859375,-89.60099792480469 13.423999786376953,-82.11699676513672 C13.423999786376953,-82.11699676513672 42.1150016784668,-49.683998107910156 64.87999725341797,-42.20000076293945 C64.87999725341797,-42.20000076293945 58.643001556396484,-62.470001220703125 58.643001556396484,-62.470001220703125 C58.643001556396484,-62.470001220703125 68.8030014038086,-44.75600051879883 101.43299865722656,-30.857999801635742 C111.79900360107422,-26.44300079345703 108.96700286865234,-15.253000259399414 119.89399719238281,16.493000030517578 C127.59300231933594,38.86199951171875 129.88900756835938,37.37300109863281 135.9980010986328,59.18000030517578 C135.9980010986328,59.18000030517578 135.95399475097656,42.305999755859375 140.84500122070312,33.82899856567383 C140.84500122070312,33.82899856567383 156.46299743652344,-2.7899999618530273 148.72900390625,-36.55500030517578 C123.31500244140625,-147.5 -139.6280059814453,-156.9669952392578 -143.6580047607422,-19.740999221801758 C-144.48800659179688,8.524999618530273 -133.51800537109375,33.92399978637695 -133.51800537109375,33.92399978637695 C-133.51800537109375,33.92399978637695 -127.76599884033203,34.617000579833984 -125.86100006103516,51.7130012512207z"></path><path stroke-linecap="round" stroke-linejoin="round" fill-opacity="0" stroke="rgb(197,91,0)" stroke-opacity="1" stroke-width="8" d=" M-125.86100006103516,51.7130012512207 C-123.97599792480469,55.18199920654297 -120.41899871826172,39.54899978637695 -117.45800018310547,7.432000160217285 C-115.38099670410156,-15.095999717712402 -91.52899932861328,-30.39900016784668 -76.6520004272461,-56.75299835205078 C-76.6520004272461,-56.75299835205078 -76.6520004272461,-40.17599868774414 -76.6520004272461,-40.17599868774414 C-76.6520004272461,-40.17599868774414 -58.07400131225586,-53.77799987792969 -51.698001861572266,-78.85700225830078 C-51.698001861572266,-78.85700225830078 -26.180999755859375,-89.60099792480469 13.423999786376953,-82.11699676513672 C13.423999786376953,-82.11699676513672 42.1150016784668,-49.683998107910156 64.87999725341797,-42.20000076293945 C64.87999725341797,-42.20000076293945 58.643001556396484,-62.470001220703125 58.643001556396484,-62.470001220703125 C58.643001556396484,-62.470001220703125 68.8030014038086,-44.75600051879883 101.43299865722656,-30.857999801635742 C111.79900360107422,-26.44300079345703 108.96700286865234,-15.253000259399414 119.89399719238281,16.493000030517578 C127.59300231933594,38.86199951171875 129.88900756835938,37.37300109863281 135.9980010986328,59.18000030517578 C135.9980010986328,59.18000030517578 135.95399475097656,42.305999755859375 140.84500122070312,33.82899856567383 C140.84500122070312,33.82899856567383 156.46299743652344,-2.7899999618530273 148.72900390625,-36.55500030517578 C123.31500244140625,-147.5 -139.6280059814453,-156.9669952392578 -143.6580047607422,-19.740999221801758 C-144.48800659179688,8.524999618530273 -133.51800537109375,33.92399978637695 -133.51800537109375,33.92399978637695 C-133.51800537109375,33.92399978637695 -127.76599884033203,34.617000579833984 -125.86100006103516,51.7130012512207z"></path></g><g opacity="0.3" transform="matrix(1,0,0,1,0,0)"><path fill="rgb(197,91,0)" fill-opacity="1" d=" M-125.86599731445312,51.71200180053711 C-127.76599884033203,34.61199951171875 -141.53399658203125,28.66699981689453 -137.1020050048828,8.60200023651123 C-137.1020050048828,8.60200023651123 -129.96099853515625,37.058998107910156 -121.46600341796875,9.781999588012695 C-121.46600341796875,9.781999588012695 -124.16600036621094,54.84199905395508 -125.86599731445312,51.71200180053711z"></path></g><g opacity="0.3" transform="matrix(1,0,0,1,0,0)"><path fill="rgb(197,91,0)" fill-opacity="1" d=" M135.99400329589844,59.172000885009766 C124.53299713134766,41.590999603271484 121.67900085449219,16.444000244140625 124.125,16.077999114990234 C124.125,16.077999114990234 134.88800048828125,39.82099914550781 144.96200561523438,4.383999824523926 C145.89599609375,1.097000002861023 135.99400329589844,58.641998291015625 135.99400329589844,59.172000885009766z"></path></g><g opacity="0.3" transform="matrix(1,0,0,1,0,0)"><path fill="rgb(197,91,0)" fill-opacity="1" d=" M144.6439971923828,8.60200023651123 C144.63400268554688,8.071999549865723 145.99600219726562,-12.484999656677246 134.88400268554688,-16.29800033569336 C125.20500183105469,-19.618999481201172 120.48500061035156,-21.496999740600586 113.89600372314453,-32.071998596191406 C98.59100341796875,-27.332000732421875 66.5999984741211,-53.018001556396484 58.65399932861328,-62.448001861572266 C58.65399932861328,-62.448001861572266 64.88400268554688,-42.198001861572266 64.88400268554688,-42.198001861572266 C42.11399841308594,-49.6879997253418 13.423999786376953,-82.11799621582031 13.423999786376953,-82.11799621582031 C-26.18600082397461,-89.5979995727539 -51.69599914550781,-78.85800170898438 -51.69599914550781,-78.85800170898438 C-58.07600021362305,-53.77799987792969 -76.65599822998047,-40.178001403808594 -76.65599822998047,-40.178001403808594 C-76.65599822998047,-40.178001403808594 -76.65599822998047,-56.757999420166016 -76.65599822998047,-56.757999420166016 C-79.40599822998047,-51.88800048828125 -91.63200378417969,-22.75 -110.53600311279297,-33.858001708984375 C-110.53600311279297,-33.858001708984375 -112.58699798583984,-28.999000549316406 -126.14600372314453,-24.167999267578125 C-135.87899780273438,-20.701000213623047 -138.47300720214844,-2.9210000038146973 -136.47999572753906,10.75 C-158.28399658203125,-44.42300033569336 -125.39600372314453,-120.89800262451172 -8.855999946594238,-120.89800262451172 C107.68399810791016,-120.89800262451172 163.71499633789062,-60.5 144.6439971923828,8.60200023651123z"></path></g></g><g style="display: block;" transform="matrix(1,0,0,1,253.83200073242188,257.0589904785156)" opacity="1"><g opacity="1" transform="matrix(1,0,0,1,0,0)"><path fill="rgb(255,246,207)" fill-opacity="1" d=" M-23.608999252319336,48.6879997253418 C-23.608999252319336,48.6879997253418 -28.525999069213867,16.075000762939453 -55.106998443603516,16.077999114990234 C-79.90799713134766,16.079999923706055 -90.81800079345703,39.68299865722656 -90.81800079345703,46.308998107910156 C-90.81800079345703,46.308998107910156 -80.83699798583984,63.584999084472656 -56.7599983215332,63.56399917602539 C-29.634000778198242,63.540000915527344 -23.608999252319336,48.6879997253418 -23.608999252319336,48.6879997253418z"></path></g><g opacity="1" transform="matrix(1,0,0,1,0,0)"><g opacity="1" transform="matrix(1,0,0,1,0,0)"><path fill="url(#__lottie_element_9941)" fill-opacity="1" d=" M-36.731998443603516,39.82099914550781 C-36.731998443603516,50.948001861572266 -45.79399871826172,59.96699905395508 -56.97200012207031,59.96699905395508 C-68.1500015258789,59.96699905395508 -77.21199798583984,50.948001861572266 -77.21199798583984,39.82099914550781 C-77.21199798583984,28.69499969482422 -68.1500015258789,19.673999786376953 -56.97200012207031,19.673999786376953 C-45.79399871826172,19.673999786376953 -36.731998443603516,28.69499969482422 -36.731998443603516,39.82099914550781z"></path></g><g opacity="1" transform="matrix(1,0,0,1,0,0)"><path fill="rgb(24,19,9)" fill-opacity="1" d=" M-44.18000030517578,39.82099914550781 C-44.18000030517578,46.85300064086914 -49.90700149536133,52.553001403808594 -56.97200012207031,52.553001403808594 C-64.03700256347656,52.553001403808594 -69.76399993896484,46.85300064086914 -69.76399993896484,39.82099914550781 C-69.76399993896484,32.78900146484375 -64.03700256347656,27.08799934387207 -56.97200012207031,27.08799934387207 C-49.90700149536133,27.08799934387207 -44.18000030517578,32.78900146484375 -44.18000030517578,39.82099914550781z"></path></g><g opacity="1" transform="matrix(1,0,0,1,0,0)"><path fill="rgb(243,243,243)" fill-opacity="1" d=" M-58.10599899291992,29.836000442504883 C-58.10599899291992,32.50600051879883 -60.279998779296875,34.67100143432617 -62.9630012512207,34.67100143432617 C-65.64600372314453,34.67100143432617 -67.82099914550781,32.50600051879883 -67.82099914550781,29.836000442504883 C-67.82099914550781,27.165000915527344 -65.64600372314453,25.000999450683594 -62.9630012512207,25.000999450683594 C-60.279998779296875,25.000999450683594 -58.10599899291992,27.165000915527344 -58.10599899291992,29.836000442504883z"></path></g><g opacity="1" transform="matrix(1,0,0,1,0,0)"><path stroke-linecap="round" stroke-linejoin="round" fill-opacity="0" stroke="rgb(235,147,0)" stroke-opacity="1" stroke-width="3.5" d=" M-41.994998931884766,45.512001037597656 C-43.499000549316406,49.9739990234375 -47.097999572753906,53.47999954223633 -51.62900161743164,54.87099838256836"></path></g></g><g opacity="1" transform="matrix(1,0,0,1,0,0)"><path fill="rgb(249,189,0)" fill-opacity="1" d=" M-23.608999252319336,48.6879997253418 C-23.608999252319336,48.6879997253418 -27.018999099731445,68.58300018310547 -48.50199890136719,72.41999816894531 C-69.98500061035156,76.25700378417969 -87.23100280761719,59.270999908447266 -90.81800079345703,46.308998107910156 C-90.81800079345703,46.308998107910156 -79.83300018310547,64.56700134277344 -56.82699966430664,63.909000396728516 C-26.905000686645508,63.05400085449219 -23.608999252319336,48.6879997253418 -23.608999252319336,48.6879997253418z"></path></g><g opacity="1" transform="matrix(1,0,0,1,0,0)"><path fill="rgb(255,205,0)" fill-opacity="1" d=" M-57.582000732421875,5.941999912261963 C-84.08200073242188,5.941999912261963 -99.33200073242188,27.941999435424805 -93.58200073242188,44.44200134277344 C-91.58200073242188,36.69200134277344 -85.08000183105469,12.126999855041504 -58.082000732421875,11.692000389099121 C-27.082000732421875,11.192000389099121 -21.582000732421875,43.94200134277344 -20.082000732421875,46.44200134277344 C-15.331999778747559,29.441999435424805 -31.082000732421875,5.941999912261963 -57.582000732421875,5.941999912261963z"></path></g><g opacity="1" transform="matrix(1,0,0,1,0,0)"><path fill="rgb(142,58,0)" fill-opacity="1" d=" M-23.871999740600586,44.097999572753906 C-23.871999740600586,44.097999572753906 -31.92799949645996,13.847999572753906 -57.96200180053711,14.121000289916992 C-83.99600219726562,14.394000053405762 -89.77200317382812,38.96099853515625 -90.81800079345703,46.308998107910156 C-90.81800079345703,46.308998107910156 -86.62999725341797,16.75200080871582 -56.96200180053711,16.41900062561035 C-32.391998291015625,16.143999099731445 -23.871999740600586,44.097999572753906 -23.871999740600586,44.097999572753906z"></path><path stroke-linecap="round" stroke-linejoin="round" fill-opacity="0" stroke="rgb(142,58,0)" stroke-opacity="1" stroke-width="2" d=" M-23.871999740600586,44.097999572753906 C-23.871999740600586,44.097999572753906 -31.92799949645996,13.847999572753906 -57.96200180053711,14.121000289916992 C-83.99600219726562,14.394000053405762 -89.77200317382812,38.96099853515625 -90.81800079345703,46.308998107910156 C-90.81800079345703,46.308998107910156 -86.62999725341797,16.75200080871582 -56.96200180053711,16.41900062561035 C-32.391998291015625,16.143999099731445 -23.871999740600586,44.097999572753906 -23.871999740600586,44.097999572753906z"></path></g><g opacity="1" transform="matrix(1,0,0,1,0,0)"><path fill="rgb(255,246,207)" fill-opacity="1" d=" M32.86399841308594,48.6879997253418 C32.86399841308594,48.6879997253418 37.78200149536133,16.075000762939453 64.36299896240234,16.077999114990234 C89.16400146484375,16.079999923706055 100.072998046875,39.68299865722656 100.072998046875,46.308998107910156 C100.072998046875,46.308998107910156 90.09300231933594,63.584999084472656 66.01599884033203,63.56399917602539 C38.88999938964844,63.540000915527344 32.86399841308594,48.6879997253418 32.86399841308594,48.6879997253418z"></path></g><g opacity="1" transform="matrix(1,0,0,1,0,0)"><g opacity="1" transform="matrix(1,0,0,1,0,0)"><path fill="url(#__lottie_element_9942)" fill-opacity="1" d=" M86.46700286865234,39.82099914550781 C86.46700286865234,50.948001861572266 77.40499877929688,59.96699905395508 66.22699737548828,59.96699905395508 C55.04899978637695,59.96699905395508 45.98699951171875,50.948001861572266 45.98699951171875,39.82099914550781 C45.98699951171875,28.69499969482422 55.04899978637695,19.673999786376953 66.22699737548828,19.673999786376953 C77.40499877929688,19.673999786376953 86.46700286865234,28.69499969482422 86.46700286865234,39.82099914550781z"></path></g><g opacity="1" transform="matrix(1,0,0,1,0,0)"><path fill="rgb(24,19,9)" fill-opacity="1" d=" M79.01899719238281,39.82099914550781 C79.01899719238281,46.85300064086914 73.29199981689453,52.553001403808594 66.22699737548828,52.553001403808594 C59.1619987487793,52.553001403808594 53.43600082397461,46.85300064086914 53.43600082397461,39.82099914550781 C53.43600082397461,32.78900146484375 59.1619987487793,27.08799934387207 66.22699737548828,27.08799934387207 C73.29199981689453,27.08799934387207 79.01899719238281,32.78900146484375 79.01899719238281,39.82099914550781z"></path></g><g opacity="1" transform="matrix(1,0,0,1,0,0)"><path fill="rgb(243,243,243)" fill-opacity="1" d=" M65.09400177001953,29.836000442504883 C65.09400177001953,32.50600051879883 62.91899871826172,34.67100143432617 60.236000061035156,34.67100143432617 C57.553001403808594,34.67100143432617 55.37900161743164,32.50600051879883 55.37900161743164,29.836000442504883 C55.37900161743164,27.165000915527344 57.553001403808594,25.000999450683594 60.236000061035156,25.000999450683594 C62.91899871826172,25.000999450683594 65.09400177001953,27.165000915527344 65.09400177001953,29.836000442504883z"></path></g><g opacity="1" transform="matrix(1,0,0,1,0,0)"><path stroke-linecap="round" stroke-linejoin="round" fill-opacity="0" stroke="rgb(235,147,0)" stroke-opacity="1" stroke-width="3.5" d=" M81.20500183105469,45.512001037597656 C79.70099639892578,49.9739990234375 76.10199737548828,53.47999954223633 71.57099914550781,54.87099838256836"></path></g></g><g opacity="1" transform="matrix(1,0,0,1,0,0)"><path fill="rgb(249,189,0)" fill-opacity="1" d=" M32.86399841308594,48.6879997253418 C32.86399841308594,48.6879997253418 36.27399826049805,68.58300018310547 57.75699996948242,72.41999816894531 C79.23999786376953,76.25700378417969 96.48600006103516,59.270999908447266 100.072998046875,46.308998107910156 C100.072998046875,46.308998107910156 92.09300231933594,62.970001220703125 65.91400146484375,63.9739990234375 C40.66699981689453,64.94200134277344 32.86399841308594,48.6879997253418 32.86399841308594,48.6879997253418z"></path></g><g opacity="1" transform="matrix(1,0,0,1,123.5,0)"><path fill="rgb(255,205,0)" fill-opacity="1" d=" M-57.582000732421875,5.941999912261963 C-84.08200073242188,5.941999912261963 -99.33200073242188,27.941999435424805 -93.58200073242188,44.44200134277344 C-91.58200073242188,36.69200134277344 -85.08000183105469,12.126999855041504 -58.082000732421875,11.692000389099121 C-27.082000732421875,11.192000389099121 -21.582000732421875,43.94200134277344 -20.082000732421875,46.44200134277344 C-15.331999778747559,29.441999435424805 -31.082000732421875,5.941999912261963 -57.582000732421875,5.941999912261963z"></path></g><g opacity="1" transform="matrix(1,0,0,1,0,0)"><path fill="rgb(142,58,0)" fill-opacity="1" d=" M33.12799835205078,44.097999572753906 C33.12799835205078,44.097999572753906 41.183998107910156,13.847999572753906 67.21800231933594,14.121000289916992 C93.25199890136719,14.394000053405762 99.0270004272461,38.96099853515625 100.072998046875,46.308998107910156 C100.072998046875,46.308998107910156 95.88600158691406,16.75200080871582 66.21800231933594,16.41900062561035 C41.64799880981445,16.143999099731445 33.12799835205078,44.097999572753906 33.12799835205078,44.097999572753906z"></path><path stroke-linecap="round" stroke-linejoin="round" fill-opacity="0" stroke="rgb(142,58,0)" stroke-opacity="1" stroke-width="2" d=" M33.12799835205078,44.097999572753906 C33.12799835205078,44.097999572753906 41.183998107910156,13.847999572753906 67.21800231933594,14.121000289916992 C93.25199890136719,14.394000053405762 99.0270004272461,38.96099853515625 100.072998046875,46.308998107910156 C100.072998046875,46.308998107910156 95.88600158691406,16.75200080871582 66.21800231933594,16.41900062561035 C41.64799880981445,16.143999099731445 33.12799835205078,44.097999572753906 33.12799835205078,44.097999572753906z"></path></g></g><g style="display: block;" transform="matrix(1,0,0,1,253.83200073242188,257.0579833984375)" opacity="1"><g opacity="0.2" transform="matrix(1,0,0,1,0,0)"><path fill="rgb(220,119,0)" fill-opacity="1" d=" M29.18400001525879,144.33599853515625 C29.18400001525879,148.4219970703125 18.28700065612793,156.2969970703125 4.8460001945495605,156.2969970703125 C-8.595000267028809,156.2969970703125 -19.490999221801758,148.4219970703125 -19.490999221801758,144.33599853515625 C-19.490999221801758,140.25 -8.595000267028809,144.2949981689453 4.8460001945495605,144.2949981689453 C18.28700065612793,144.2949981689453 29.18400001525879,140.25 29.18400001525879,144.33599853515625z"></path></g><g opacity="0.3" transform="matrix(1,0,0,1,0,0)"><path stroke-linecap="round" stroke-linejoin="round" fill-opacity="0" stroke="rgb(220,119,0)" stroke-opacity="1" stroke-width="8" d=" M-27.770999908447266,108.36100006103516 C-27.770999908447266,108.36100006103516 -38.290000915527344,116.73699951171875 -46.685001373291016,138.81300354003906"></path></g><g opacity="0.3" transform="matrix(1,0,0,1,0,0)"><path stroke-linecap="round" stroke-linejoin="round" fill-opacity="0" stroke="rgb(220,119,0)" stroke-opacity="1" stroke-width="8" d=" M37.34299850463867,108.36100006103516 C37.34299850463867,108.36100006103516 48.2239990234375,116.73699951171875 56.25699996948242,138.81300354003906"></path></g><g opacity="1" transform="matrix(1,0,0,1,0,0)"><g opacity="1" transform="matrix(1,0,0,1,0,0)"><path fill="rgb(255,224,112)" fill-opacity="1" d=" M41.292999267578125,121.10399627685547 C40.45000076293945,115.21399688720703 35.13199996948242,117.1520004272461 4.8460001945495605,117.1520004272461 C-24.711000442504883,117.1520004272461 -30.24799919128418,114.84400177001953 -31.600000381469727,121.10399627685547 C-32.14099884033203,123.60800170898438 -20.093000411987305,141.8990020751953 4.840000152587891,141.8990020751953 C29.350000381469727,141.8990020751953 41.67100143432617,123.74600219726562 41.292999267578125,121.10399627685547z"></path></g><g opacity="1" transform="matrix(1,0,0,1,0,0)"><path fill="rgb(136,24,4)" fill-opacity="1" d=" M40.35900115966797,118.43000030517578 C38.95899963378906,115.84200286865234 35.13199996948242,116.26200103759766 4.8460001945495605,116.26200103759766 C-24.711000442504883,116.26200103759766 -29.097999572753906,115.93099975585938 -30.666000366210938,118.43000030517578 C-32.04199981689453,120.62300109863281 -20.093000411987305,136.44400024414062 4.840000152587891,136.44400024414062 C29.350000381469727,136.44400024414062 41.63999938964844,120.80000305175781 40.35900115966797,118.43000030517578z"></path></g><g opacity="1" transform="matrix(1,0,0,1,0,0)"><path fill="rgb(88,11,14)" fill-opacity="1" d=" M39.1609992980957,121.72599792480469 C36.60100173950195,120.44300079345703 29.48200035095215,121.72000122070312 4.8480000495910645,121.72000122070312 C-19.514999389648438,121.72000122070312 -26.773000717163086,120.49700164794922 -29.45400047302246,121.81600189208984 C-30.583999633789062,120.19400024414062 -30.988000869750977,118.93699645996094 -30.66900062561035,118.43000030517578 C-29.100000381469727,115.93499755859375 -24.708999633789062,116.26399993896484 4.8480000495910645,116.26399993896484 C35.13399887084961,116.26399993896484 38.95500183105469,115.84600067138672 40.35599899291992,118.43000030517578 C40.645999908447266,118.96499633789062 40.244998931884766,120.1760025024414 39.1609992980957,121.72599792480469z"></path></g></g></g><g style="display: block;" transform="matrix(1,0,0,1,253.83200073242188,257.0589904785156)" opacity="1"><g opacity="0.4" transform="matrix(1,0,0,1,0,0)"><g opacity="1" transform="matrix(1,0,0,1,0,0)"><path stroke-linecap="round" stroke-linejoin="round" fill-opacity="0" stroke="rgb(220,119,0)" stroke-opacity="1" stroke-width="6" d=" M-21.24799919128418,47.8120002746582 C-21.24799919128418,47.8120002746582 3.312999963760376,29.834999084472656 31.198999404907227,47.8120002746582"></path></g><g opacity="1" transform="matrix(1,0,0,1,0,0)"><g opacity="1" transform="matrix(1,0,0,1,0,0)"><path stroke-linecap="round" stroke-linejoin="round" fill-opacity="0" stroke="rgb(220,119,0)" stroke-opacity="1" stroke-width="6" d=" M-117.37000274658203,44.11199951171875 C-117.37000274658203,44.11199951171875 -109.51399993896484,50.327999114990234 -102.66699981689453,50.19200134277344 C-102.66699981689453,50.19200134277344 -96.59300231933594,50.191001892089844 -96.59300231933594,50.191001892089844 C-96.59300231933594,50.191001892089844 -97.23100280761719,72.60099792480469 -74.0999984741211,79.87100219726562"></path></g></g><g opacity="1" transform="matrix(1,0,0,1,0,0)"><g opacity="1" transform="matrix(1,0,0,1,0,0)"><path stroke-linecap="round" stroke-linejoin="round" fill-opacity="0" stroke="rgb(220,119,0)" stroke-opacity="1" stroke-width="6" d=" M83.79299926757812,79.87100219726562 C108.59100341796875,72.97200012207031 105.61499786376953,50.191001892089844 105.61499786376953,50.191001892089844 C105.61499786376953,50.191001892089844 113.46600341796875,50.191001892089844 113.46600341796875,50.191001892089844 C120.31300354003906,50.327999114990234 125.12899780273438,45.2859992980957 125.12899780273438,45.2859992980957"></path></g></g></g><g opacity="1" transform="matrix(1,0,0,1,0,0)"><g opacity="1" transform="matrix(1,0,0,1,0,0)"><path stroke-linecap="round" stroke-linejoin="round" fill-opacity="0" stroke="rgb(154,149,136)" stroke-opacity="1" stroke-width="6" d=" M-21.24799919128418,42.8120002746582 C-21.24799919128418,42.8120002746582 3.993000030517578,29.334999084472656 31.198999404907227,42.8120002746582"></path></g><g opacity="1" transform="matrix(1,0,0,1,0,0)"><path stroke-linecap="round" stroke-linejoin="round" fill-opacity="0" stroke="rgb(154,149,136)" stroke-opacity="1" stroke-width="6" d=" M-91.38600158691406,45.19200134277344 C-91.38600158691406,45.19200134277344 -102.71499633789062,45.512001037597656 -104.66699981689453,45.19200134277344 C-107.15299987792969,44.784000396728516 -122.90399932861328,34.37799835205078 -122.90399932861328,34.37799835205078"></path></g><g opacity="1" transform="matrix(1,0,0,1,0,0)"><path stroke-linecap="round" stroke-linejoin="round" fill-opacity="0" stroke="rgb(154,149,136)" stroke-opacity="1" stroke-width="6" d=" M101.072998046875,45.19200134277344 C101.072998046875,45.19200134277344 112.40299987792969,45.512001037597656 114.3550033569336,45.19200134277344 C116.84100341796875,44.784000396728516 131.5919952392578,34.37799835205078 131.5919952392578,34.37799835205078"></path></g><g opacity="1" transform="matrix(1,0,0,1,0,0)"><g opacity="1" transform="matrix(1,0,0,1,0,0)"><path stroke-linecap="round" stroke-linejoin="round" fill-opacity="0" stroke="rgb(154,149,136)" stroke-opacity="1" stroke-width="6" d=" M-91.63200378417969,52.292999267578125 C-91.63200378417969,35.2599983215332 -76.06500244140625,23.558000564575195 -56.86399841308594,23.558000564575195 C-37.66299819946289,23.558000564575195 -21.034000396728516,35.2599983215332 -21.034000396728516,52.292999267578125"></path></g><g opacity="1" transform="matrix(1,0,0,1,0,0)"><path stroke-linecap="round" stroke-linejoin="round" fill-opacity="0" stroke="rgb(128,124,115)" stroke-opacity="1" stroke-width="6" d=" M-22.69499969482422,43.316001892089844 C-21.618000030517578,46.09299850463867 -21.034000396728516,49.0989990234375 -21.034000396728516,52.292999267578125 C-21.034000396728516,69.32599639892578 -37.66299819946289,84.18699645996094 -56.86399841308594,84.18699645996094 C-76.06500244140625,84.18699645996094 -91.63200378417969,69.32599639892578 -91.63200378417969,52.292999267578125 C-91.63200378417969,49.85200119018555 -91.31199645996094,47.52000045776367 -90.70700073242188,45.316001892089844"></path></g></g><g opacity="1" transform="matrix(1,0,0,1,0,0)"><g opacity="1" transform="matrix(1,0,0,1,0,0)"><path stroke-linecap="round" stroke-linejoin="round" fill-opacity="0" stroke="rgb(154,149,136)" stroke-opacity="1" stroke-width="6" d=" M101.28399658203125,52.292999267578125 C101.28399658203125,35.2599983215332 85.71800231933594,23.558000564575195 66.51699829101562,23.558000564575195 C47.316001892089844,23.558000564575195 30.687000274658203,35.2599983215332 30.687000274658203,52.292999267578125"></path></g><g opacity="1" transform="matrix(1,0,0,1,0,0)"><path stroke-linecap="round" stroke-linejoin="round" fill-opacity="0" stroke="rgb(128,124,115)" stroke-opacity="1" stroke-width="6" d=" M32.347999572753906,43.316001892089844 C31.270999908447266,46.09299850463867 30.687000274658203,49.0989990234375 30.687000274658203,52.292999267578125 C30.687000274658203,69.32599639892578 47.316001892089844,84.18699645996094 66.51699829101562,84.18699645996094 C85.71800231933594,84.18699645996094 101.28399658203125,69.32599639892578 101.28399658203125,52.292999267578125 C101.28399658203125,49.85200119018555 100.96499633789062,47.52000045776367 100.36000061035156,45.316001892089844"></path></g></g></g></g><g style="display: block;" transform="matrix(1,0,0,1,253.83200073242188,257.0589904785156)" opacity="1"><g opacity="1" transform="matrix(1,0,0,1,0,0)"><path fill="rgb(142,58,0)" fill-opacity="1" d=" M88.34400177001953,-1.2359999418258667 C89.76799774169922,-4.2270002365112305 74.59400177001953,-13.16100025177002 56.744998931884766,-12.484000205993652 C42.04800033569336,-11.927000045776367 40.31100082397461,-7.49399995803833 41.220001220703125,-6.039999961853027 C42.12900161743164,-4.585999965667725 51.027000427246094,-8.652000427246094 67.67400360107422,-6.4029998779296875 C84.66200256347656,-4.107999801635742 87.64700317382812,0.22699999809265137 88.34400177001953,-1.2359999418258667z"></path><path stroke-linecap="round" stroke-linejoin="round" fill-opacity="0" stroke="rgb(142,58,0)" stroke-opacity="1" stroke-width="2" d=" M88.34400177001953,-1.2359999418258667 C89.76799774169922,-4.2270002365112305 74.59400177001953,-13.16100025177002 56.744998931884766,-12.484000205993652 C42.04800033569336,-11.927000045776367 40.31100082397461,-7.49399995803833 41.220001220703125,-6.039999961853027 C42.12900161743164,-4.585999965667725 51.027000427246094,-8.652000427246094 67.67400360107422,-6.4029998779296875 C84.66200256347656,-4.107999801635742 87.64700317382812,0.22699999809265137 88.34400177001953,-1.2359999418258667z"></path></g><g opacity="1" transform="matrix(1,0,0,1,0,0)"><path fill="rgb(142,58,0)" fill-opacity="1" d=" M-77.7040023803711,-1.2359999418258667 C-79.12799835205078,-4.2270002365112305 -63.95399856567383,-13.16100025177002 -46.10499954223633,-12.484000205993652 C-31.409000396728516,-11.927000045776367 -29.672000885009766,-7.49399995803833 -30.58099937438965,-6.039999961853027 C-31.489999771118164,-4.585999965667725 -40.387001037597656,-8.652000427246094 -57.034000396728516,-6.4029998779296875 C-74.02200317382812,-4.107999801635742 -77.00700378417969,0.22699999809265137 -77.7040023803711,-1.2359999418258667z"></path><path stroke-linecap="round" stroke-linejoin="round" fill-opacity="0" stroke="rgb(142,58,0)" stroke-opacity="1" stroke-width="2" d=" M-77.7040023803711,-1.2359999418258667 C-79.12799835205078,-4.2270002365112305 -63.95399856567383,-13.16100025177002 -46.10499954223633,-12.484000205993652 C-31.409000396728516,-11.927000045776367 -29.672000885009766,-7.49399995803833 -30.58099937438965,-6.039999961853027 C-31.489999771118164,-4.585999965667725 -40.387001037597656,-8.652000427246094 -57.034000396728516,-6.4029998779296875 C-74.02200317382812,-4.107999801635742 -77.00700378417969,0.22699999809265137 -77.7040023803711,-1.2359999418258667z"></path></g></g><g style="display: block;" transform="matrix(1,0,0,1,259,258)" opacity="1"><g opacity="1" transform="matrix(1,0,0,1,0,0)"><g opacity="1" transform="matrix(1,0,0,1,0,0)"><path fill="url(#__lottie_element_9933)" fill-opacity="1" d=" M-130.69200134277344,-105.93800354003906 C-130.69200134277344,-105.93800354003906 -129.48399353027344,-129.38400268554688 -112.73699951171875,-155.6199951171875 C-95.98999786376953,-181.8560028076172 -83.66799926757812,-194.28700256347656 -47.49300003051758,-198.60299682617188 C-4.558000087738037,-203.7259979248047 71.15599822998047,-189.63400268554688 94.36399841308594,-178.74000549316406 C106.88999938964844,-172.86000061035156 150.2779998779297,-153.93800354003906 145.16299438476562,-97.48200225830078 C145.16299438476562,-97.48200225830078 -130.69200134277344,-105.93800354003906 -130.69200134277344,-105.93800354003906z"></path></g><g opacity="0.3" transform="matrix(1,0,0,1,0,0)"><path stroke-linecap="round" stroke-linejoin="round" fill-opacity="0" stroke="rgb(255,255,255)" stroke-opacity="1" stroke-width="8" d=" M-124.63300323486328,-103.80799865722656 C-124.63300323486328,-103.80799865722656 -123.47699737548828,-126.2249984741211 -107.46499633789062,-151.31100463867188 C-91.4530029296875,-176.39700317382812 -79.6709976196289,-188.28199768066406 -45.08300018310547,-192.40899658203125 C-4.0320000648498535,-197.3070068359375 68.36199951171875,-183.83299255371094 90.552001953125,-173.41700744628906 C102.52799987792969,-167.7949981689453 144.01300048828125,-149.7030029296875 139.1219940185547,-95.7229995727539 C139.1219940185547,-95.7229995727539 -124.63300323486328,-103.80799865722656 -124.63300323486328,-103.80799865722656z"></path></g><g opacity="1" transform="matrix(1,0,0,1,0,0)"><path stroke-linecap="round" stroke-linejoin="round" fill-opacity="0" stroke="rgb(166,0,0)" stroke-opacity="1" stroke-width="8" d=" M-130.69200134277344,-105.93800354003906 C-130.69200134277344,-105.93800354003906 -129.48399353027344,-129.38400268554688 -112.73699951171875,-155.6199951171875 C-95.98999786376953,-181.8560028076172 -83.66799926757812,-194.28700256347656 -47.49300003051758,-198.60299682617188 C-4.558000087738037,-203.7259979248047 71.15599822998047,-189.63400268554688 94.36399841308594,-178.74000549316406 C106.88999938964844,-172.86000061035156 150.2779998779297,-153.93800354003906 145.16299438476562,-97.48200225830078 C145.16299438476562,-97.48200225830078 -130.69200134277344,-105.93800354003906 -130.69200134277344,-105.93800354003906z"></path></g></g><g opacity="1" transform="matrix(1,0,0,1,0,0)"><g opacity="1" transform="matrix(1,0,0,1,0,0)"><path fill="url(#__lottie_element_9934)" fill-opacity="1" d=" M-145.7969970703125,-34.62300109863281 C-145.7969970703125,-34.62300109863281 -151.9980010986328,-28.875 -155.6009979248047,-24.111000061035156 C-160.01800537109375,-22.944000244140625 -164.42999267578125,-23.121000289916992 -163.35400390625,-33.96900177001953 C-172.9550018310547,-36.15700149536133 -170.6490020751953,-43.88800048828125 -164.0659942626953,-52.305999755859375 C-169.46200561523438,-64.39299774169922 -167.33900451660156,-71.96900177001953 -159.26400756835938,-75.97200012207031 C-163.3769989013672,-90.58999633789062 -159.33599853515625,-95.08300018310547 -150.6490020751953,-93.80699920654297 C-147.42599487304688,-115.12799835205078 -135.88600158691406,-128.31199645996094 -109.08300018310547,-126.56500244140625 C-95.53600311279297,-146.947998046875 -79.47200012207031,-150.375 -61.34700012207031,-139.9250030517578 C-38.90800094604492,-160.02200317382812 -6.665999889373779,-168 -3.611999988555908,-150.64300537109375 C-3.611999988555908,-150.64300537109375 38.86199951171875,-162.66799926757812 47.56100082397461,-149.875 C72.18800354003906,-158.66600036621094 92.65899658203125,-160.08999633789062 102.99299621582031,-143.55099487304688 C113.25700378417969,-144.7790069580078 120.625,-140.2100067138672 124.7490005493164,-129.14500427246094 C138.44700622558594,-126.96499633789062 145.03900146484375,-121.19400024414062 143.26199340820312,-111.19400024414062 C158.60800170898438,-109.20899963378906 167.59100341796875,-104.09300231933594 158.86199951171875,-90.26300048828125 C174.71299743652344,-72.95099639892578 176.75,-64.5 166.6060028076172,-54.04399871826172 C172.3719940185547,-33.81800079345703 170.75,-32.25 156.593994140625,-26.96500015258789 C156.593994140625,-26.96500015258789 148,-18 141.92300415039062,-34.821998596191406 C141.92300415039062,-34.821998596191406 125.5,-24.5 98.00900268554688,-61.13199996948242 C98.00900268554688,-61.13199996948242 48.56999969482422,-60.25 41.53200149536133,-70.33200073242188 C23,-54.75 -3.2869999408721924,-62.30799865722656 -10.458000183105469,-71.85199737548828 C-31.465999603271484,-53.5 -55.15399932861328,-61.178001403808594 -61.779998779296875,-67.7239990234375 C-77.25,-65 -112.81700134277344,-52.2760009765625 -129.3249969482422,-41.744998931884766 C-129.3249969482422,-41.744998931884766 -138.5,-37.25 -145.7969970703125,-34.62300109863281z"></path></g><g opacity="0.3" transform="matrix(1,0,0,1,0,0)"><path fill="rgb(144,148,158)" fill-opacity="1" d=" M150.8419952392578,-27.461999893188477 C150.8419952392578,-27.461999893188477 147.76199340820312,-24.61199951171875 134.6719970703125,-32.321998596191406 C134.6719970703125,-32.321998596191406 126.25,-34.75 117.46199798583984,-46.61199951171875 C117.46199798583984,-46.61199951171875 106.83200073242188,-51.6619987487793 98.76200103759766,-64.63200378417969 C98.76200103759766,-64.63200378417969 85.4520034790039,-56.22200012207031 66.46199798583984,-69.01200103759766 C66.46199798583984,-69.01200103759766 59.53200149536133,-54.54199981689453 41.53200149536133,-70.33200073242188 C23.259000778198242,-59.9010009765625 5.810999870300293,-59.04100036621094 -10.458000183105469,-71.85199737548828 C-23,-58.5 -51,-55 -61.77799987792969,-67.72200012207031 C-61.77799987792969,-67.72200012207031 -73.15799713134766,-58.1619987487793 -84.5979995727539,-65.86199951171875 C-82,-62.625 -99.83399963378906,-45.34700012207031 -111.36799621582031,-58.86199951171875 C-111.36799621582031,-58.86199951171875 -117.94300079345703,-41.8120002746582 -131.322998046875,-41.62200164794922 C-131.322998046875,-41.62200164794922 -148.25,-26.5 -155.5989990234375,-24.11199951171875 C-162.14599609375,-24.253000259399414 -175.75,-43.53499984741211 -164.0679931640625,-52.301998138427734 C-157.1479949951172,-47.62200164794922 -151.18800354003906,-54.422000885009766 -151.18800354003906,-54.422000885009766 C-141.25,-45.5 -128.02699279785156,-61.5 -129.94700622558594,-67.8219985961914 C-116.56700134277344,-68.02200317382812 -111.61799621582031,-81.8219985961914 -111.61799621582031,-81.8219985961914 C-107.41699981689453,-68.08300018310547 -88.25,-76.5 -86.8479995727539,-88.5719985961914 C-75.25,-77.25 -61.77799987792969,-91.93199920654297 -61.77799987792969,-91.93199920654297 C-34.5,-73.75 -10.458000183105469,-96.06199645996094 -10.458000183105469,-96.06199645996094 C4.183000087738037,-82.09400177001953 21.783000946044922,-82.93399810791016 41.53200149536133,-94.53199768066406 C59.53200149536133,-78.75199890136719 66.46199798583984,-93.22200012207031 66.46199798583984,-93.22200012207031 C85.4520034790039,-80.4219970703125 98.76200103759766,-88.84200286865234 98.76200103759766,-88.84200286865234 C106.83200073242188,-75.87200164794922 120.46199798583984,-73.5719985961914 120.46199798583984,-73.5719985961914 C124.75,-63.75 134.25,-44 149.8419952392578,-55.922000885009766 C149.8419952392578,-55.922000885009766 160.73199462890625,-35.09199905395508 165.3520050048828,-48.54199981689453 C172.375,-35.375 158.75,-21.5 150.8419952392578,-27.461999893188477z"></path></g><g opacity="1" transform="matrix(1,0,0,1,0,0)"><path stroke-linecap="round" stroke-linejoin="miter" fill-opacity="0" stroke-miterlimit="10" stroke="rgb(205,205,203)" stroke-opacity="1" stroke-width="8" d=" M-170.5330047607422,-43.80099868774414 C-169.52699279785156,-46.16899871826172 -167.64599609375,-48.61000061035156 -165.0659942626953,-50.680999755859375 C-170.0970001220703,-60.915000915527344 -170.68699645996094,-68.93800354003906 -159.13900756835938,-75.34700012207031 C-163.02200317382812,-86.89700317382812 -159,-93.5 -150.0240020751953,-92.93199920654297 C-146.62899780273438,-117.5459976196289 -132.35899353027344,-127.9800033569336 -109.08300018310547,-126.56500244140625 C-93.5,-147 -73.5,-153.25 -61.34700012207031,-139.9250030517578 C-43.595001220703125,-157 -14.977999687194824,-171.57000732421875 -3.611999988555908,-150.64300537109375 C-3.611999988555908,-150.64300537109375 31.715999603271484,-167.5 47.56100082397461,-149.875 C69.20099639892578,-159.25 94.75,-160.98599243164062 102.99299621582031,-143.55099487304688 C115.2020034790039,-146.08099365234375 121.7770004272461,-138.52499389648438 124.7490005493164,-129.14500427246094 C137.74099731445312,-127.61599731445312 143.79800415039062,-120.88500213623047 142.76199340820312,-110.19400024414062 C159.1009979248047,-109.6240005493164 173.75,-97 159.86199951171875,-89.01300048828125 C174,-80 179.25,-64.5 167.1739959716797,-51.520999908447266 C167.7259979248047,-45.75 167.73800659179688,-41.10900115966797 167.20599365234375,-37.73400115966797"></path></g><g opacity="1" transform="matrix(1,0,0,1,0,0)"><path stroke-linecap="round" stroke-linejoin="miter" fill-opacity="0" stroke-miterlimit="10" stroke="rgb(180,176,173)" stroke-opacity="1" stroke-width="8" d=" M172.93099975585938,-68.01399993896484 C175,-56.5 167.1060028076172,-51.29399871826172 167.1060028076172,-51.29399871826172 C173.5,-27 152.25,-18.25 144.41099548339844,-34.62300109863281 C144.41099548339844,-34.62300109863281 137,-31.375 129.2969970703125,-33.821998596191406 C129.2969970703125,-33.821998596191406 124.25,-34.75 121.625,-37.875999450683594 C121.625,-37.875999450683594 118.375,-41.75 118.21600341796875,-47.3650016784668 C118.21600341796875,-47.3650016784668 105.875,-46.5 98.88300323486328,-61.63199996948242 C98.88300323486328,-61.63199996948242 85.447998046875,-56.21699905395508 66.46199798583984,-69.01399993896484 C66.46199798583984,-69.01399993896484 59.53200149536133,-54.542999267578125 41.53499984741211,-70.33000183105469 C32.58300018310547,-62.46200180053711 16.941999435424805,-59.643001556396484 3.8929998874664307,-63.457000732421875 C-1.5720000267028809,-65.05400085449219 -6.583000183105469,-67.81500244140625 -10.456999778747559,-71.85600280761719 C-22.33300018310547,-60.16600036621094 -52.481998443603516,-53.58300018310547 -61.029998779296875,-66.9739990234375 C-61.029998779296875,-66.9739990234375 -73.15699768066406,-58.16400146484375 -84.59300231933594,-65.86599731445312 C-89.75,-54.25 -107,-45.75 -111.08300018310547,-57.83300018310547 C-111.08300018310547,-57.83300018310547 -118.375,-41.25 -133.0749969482422,-41.619998931884766 C-133.0749969482422,-41.619998931884766 -134.625,-32.75 -146.5469970703125,-34.74800109863281 C-147,-29 -151.1320037841797,-24.799999237060547 -155.6009979248047,-24.111000061035156 C-158.75,-23.625 -164.875,-24.75 -163.35400390625,-33.96900177001953 C-174.875,-35.29199981689453 -172.16700744628906,-44.97100067138672 -164.0659942626953,-51.930999755859375 C-164.0659942626953,-51.930999755859375 -170.875,-58.625 -167.18499755859375,-66.71099853515625"></path></g></g></g><g style="display: block;" transform="matrix(1,0,0,1,257.5,259)" opacity="1"><g opacity="1" transform="matrix(1,0,0,1,0,0)"><g opacity="1" transform="matrix(1,0,0,1,0,0)"><g opacity="1" transform="matrix(1,0,0,1,0,0)"><path stroke-linecap="round" stroke-linejoin="round" fill-opacity="0" stroke="rgb(255,255,255)" stroke-opacity="1" stroke-width="6" d=" M40.71500015258789,-181.10299682617188 C42.29399871826172,-180.7519989013672 43.93199920654297,-180.36700439453125 45.619998931884766,-179.9429931640625"></path></g><g opacity="1" transform="matrix(1,0,0,1,0,0)"><path stroke-linecap="round" stroke-linejoin="round" fill-opacity="0" stroke="rgb(255,255,255)" stroke-opacity="1" stroke-width="6" d=" M18.78499984741211,-184.49600219726562 C18.78499984741211,-184.49600219726562 23.78499984741211,-184.20899963378906 31.715999603271484,-182.86500549316406"></path></g></g></g></g></g></svg>