<svg xmlns="http://www.w3.org/2000/svg" viewBox="0 0 512 512" width="512" height="512" style="width: 100%; height: 100%; transform: translate3d(0,0,0);" preserveAspectRatio="xMidYMid meet"><defs><clipPath id="__lottie_element_10021"><rect width="512" height="512" x="0" y="0"></rect></clipPath></defs><g clip-path="url(#__lottie_element_10021)"><g style="display: block;" transform="matrix(1,0,0,1,256,256)" opacity="1"><g opacity="1" transform="matrix(1,0,0,1,0,0)"><path fill="rgb(156,118,61)" fill-opacity="1" d=" M-113.83799743652344,-148.61700439453125 C-133.60299682617188,-149.9219970703125 -162.85800170898438,-151.04200744628906 -185.02999877929688,-123.67400360107422 C-209.5019989013672,-93.46600341796875 -209.97300720214844,-34.03499984741211 -162.68499755859375,5.198999881744385 C-113.15699768066406,46.29100036621094 -58.755001068115234,-144.97999572753906 -113.83799743652344,-148.61700439453125z"></path><path stroke-linecap="butt" stroke-linejoin="miter" fill-opacity="0" stroke-miterlimit="10" stroke="rgb(94,66,31)" stroke-opacity="1" stroke-width="8" d=" M-113.83799743652344,-148.61700439453125 C-133.60299682617188,-149.9219970703125 -162.85800170898438,-151.04200744628906 -185.02999877929688,-123.67400360107422 C-209.5019989013672,-93.46600341796875 -209.97300720214844,-34.03499984741211 -162.68499755859375,5.198999881744385 C-113.15699768066406,46.29100036621094 -58.755001068115234,-144.97999572753906 -113.83799743652344,-148.61700439453125z"></path></g><g opacity="1" transform="matrix(1,0,0,1,0,0)"><path stroke-linecap="round" stroke-linejoin="round" fill-opacity="0" stroke="rgb(186,144,89)" stroke-opacity="1" stroke-width="10" d=" M-192.16600036621094,-87.00199890136719 C-192.16600036621094,-87.00199890136719 -187.33099365234375,-126.7490005493164 -151.01199340820312,-136.93099975585938"></path></g><g opacity="1" transform="matrix(1,0,0,1,0,0)"><path stroke-linecap="butt" stroke-linejoin="miter" fill-opacity="0" stroke-miterlimit="10" stroke="rgb(94,66,31)" stroke-opacity="1" stroke-width="8" d=" M-113.83799743652344,-148.61700439453125 C-133.60299682617188,-149.9219970703125 -162.85800170898438,-151.04200744628906 -185.02999877929688,-123.67400360107422 C-209.5019989013672,-93.46600341796875 -209.97300720214844,-34.03499984741211 -162.68499755859375,5.198999881744385 C-113.15699768066406,46.29100036621094 -58.755001068115234,-144.97999572753906 -113.83799743652344,-148.61700439453125z"></path></g><g opacity="1" transform="matrix(1,0,0,1,0,0)"><path fill="rgb(235,170,168)" fill-opacity="1" d=" M-124.7509994506836,-121.46299743652344 C-124.7509994506836,-121.46299743652344 -153.8509979248047,-129.9669952392578 -170.7209930419922,-101.4530029296875 C-184.46800231933594,-78.21800231933594 -176.0229949951172,-39.14500045776367 -154.39999389648438,-21.518999099731445 C-128.6840057373047,-0.5569999814033508 -107.02300262451172,-123.41200256347656 -124.7509994506836,-121.46299743652344z"></path></g><g opacity="1" transform="matrix(1,0,0,1,0,0)"><path fill="rgb(216,150,149)" fill-opacity="1" d=" M-118.5999984741211,-94.88800048828125 C-161.23599243164062,-117.04499816894531 -177.0030059814453,-67.0199966430664 -177.0030059814453,-67.0199966430664 C-177.01300048828125,-67.0199966430664 -177.01300048828125,-67.02999877929688 -177.0229949951172,-67.02999877929688 C-178.30599975585938,-79.45800018310547 -176.41700744628906,-91.81600189208984 -170.71800231933594,-101.45500183105469 C-153.85400390625,-129.968994140625 -124.75299835205078,-121.46199798583984 -124.75299835205078,-121.46199798583984 C-119.20600128173828,-122.06800079345703 -117.51899719238281,-110.47899627685547 -118.5999984741211,-94.88800048828125z"></path></g></g><g style="display: block;" transform="matrix(1,0,0,1,256,256)" opacity="1"><g opacity="1" transform="matrix(1,0,0,1,0,0)"><path fill="rgb(156,118,61)" fill-opacity="1" d=" M127.69000244140625,-148.61700439453125 C147.4550018310547,-149.9219970703125 176.7100067138672,-151.04200744628906 198.8820037841797,-123.67400360107422 C223.35400390625,-93.46600341796875 223.8249969482422,-34.03499984741211 176.53700256347656,5.198999881744385 C127.00900268554688,46.29100036621094 72.60700225830078,-144.97999572753906 127.69000244140625,-148.61700439453125z"></path></g><g opacity="1" transform="matrix(1,0,0,1,0,0)"><path fill="rgb(235,170,168)" fill-opacity="1" d=" M138.60299682617188,-121.46299743652344 C138.60299682617188,-121.46299743652344 167.7030029296875,-129.9669952392578 184.572998046875,-101.4530029296875 C198.32000732421875,-78.21800231933594 189.875,-39.14500045776367 168.2519989013672,-21.518999099731445 C142.53599548339844,-0.5569999814033508 120.875,-123.41200256347656 138.60299682617188,-121.46299743652344z"></path></g><g opacity="1" transform="matrix(1,0,0,1,0,0)"><path stroke-linecap="round" stroke-linejoin="round" fill-opacity="0" stroke="rgb(186,144,89)" stroke-opacity="1" stroke-width="10" d=" M205.86500549316406,-86.00199890136719 C205.86500549316406,-86.00199890136719 201.031005859375,-125.7490005493164 164.71200561523438,-135.93099975585938"></path></g><g opacity="1" transform="matrix(1,0,0,1,0,0)"><path stroke-linecap="butt" stroke-linejoin="miter" fill-opacity="0" stroke-miterlimit="10" stroke="rgb(94,66,31)" stroke-opacity="1" stroke-width="8" d=" M127.69000244140625,-148.61700439453125 C147.4550018310547,-149.9219970703125 176.7100067138672,-151.04200744628906 198.8820037841797,-123.67400360107422 C223.35400390625,-93.46600341796875 223.8249969482422,-34.03499984741211 176.53700256347656,5.198999881744385 C127.00900268554688,46.29100036621094 72.60700225830078,-144.97999572753906 127.69000244140625,-148.61700439453125z"></path></g><g opacity="1" transform="matrix(1,0,0,1,0,0)"><path fill="rgb(216,150,149)" fill-opacity="1" d=" M132.8769989013672,-94.88800048828125 C175.51300048828125,-117.04499816894531 191.2790069580078,-67.0199966430664 191.2790069580078,-67.0199966430664 C191.28900146484375,-67.0199966430664 191.2899932861328,-67.02999877929688 191.3000030517578,-67.02999877929688 C192.58299255371094,-79.45800018310547 190.69400024414062,-91.81600189208984 184.9949951171875,-101.45500183105469 C168.13099670410156,-129.968994140625 139.02999877929688,-121.46199798583984 139.02999877929688,-121.46199798583984 C133.48300170898438,-122.06800079345703 131.79600524902344,-110.47899627685547 132.8769989013672,-94.88800048828125z"></path></g></g><g style="display: block;" transform="matrix(1,0,0,1,256,256)" opacity="1"><g opacity="1" transform="matrix(1,0,0,1,0,0)"><path fill="rgb(156,118,61)" fill-opacity="1" d=" M171.5469970703125,-26.509000778198242 C149.54800415039062,-70.50399780273438 161.18899536132812,-72.5250015258789 147.98599243164062,-116.41000366210938 C132.781005859375,-166.94900512695312 84.51100158691406,-212.68899536132812 7.263000011444092,-212.68899536132812 C-70.81700134277344,-212.68899536132812 -118.25499725341797,-166.94900512695312 -133.4600067138672,-116.41000366210938 C-146.66299438476562,-72.5250015258789 -135.02200317382812,-70.50399780273438 -157.02099609375,-26.509000778198242 C-181.1750030517578,21.79599952697754 -191.37600708007812,153.49000549316406 7.263000011444092,153.49000549316406 C205.90199279785156,153.49000549316406 195.7010040283203,21.79599952697754 171.5469970703125,-26.509000778198242z"></path></g><g opacity="1" transform="matrix(1,0,0,1,0,0)"><path fill="rgb(186,144,89)" fill-opacity="1" d=" M158.07000732421875,-26.761999130249023 C137.87600708007812,-67.14700317382812 148.56199645996094,-69.00299835205078 136.44200134277344,-109.28800201416016 C122.48500061035156,-155.68099975585938 78.17400360107422,-197.66900634765625 7.263000011444092,-197.66900634765625 C-64.41200256347656,-197.66900634765625 -107.95800018310547,-155.68099975585938 -121.91600036621094,-109.28800201416016 C-134.03599548339844,-69.00299835205078 -123.3499984741211,-67.14700317382812 -143.54400634765625,-26.761999130249023 C-165.7169952392578,17.579999923706055 -175.0800018310547,138.4709930419922 7.263000011444092,138.4709930419922 C189.6060028076172,138.4709930419922 180.2429962158203,17.579999923706055 158.07000732421875,-26.761999130249023z"></path></g><g opacity="1" transform="matrix(1,0,0,1,0,0)"><path fill="rgb(197,157,107)" fill-opacity="1" d=" M98.81900024414062,-154.20199584960938 C98.81900024414062,-130.66600036621094 58.104000091552734,-111.58599853515625 7.88100004196167,-111.58599853515625 C-42.34199905395508,-111.58599853515625 -83.05599975585938,-130.66600036621094 -83.05599975585938,-154.20199584960938 C-83.05599975585938,-177.73800659179688 -42.34199905395508,-196.8179931640625 7.88100004196167,-196.8179931640625 C58.104000091552734,-196.8179931640625 98.81900024414062,-177.73800659179688 98.81900024414062,-154.20199584960938z"></path></g><g opacity="1" transform="matrix(1,0,0,1,0,0)"><g opacity="1" transform="matrix(1,0,0,1,0,0)"><path stroke-linecap="round" stroke-linejoin="round" fill-opacity="0" stroke="rgb(255,255,255)" stroke-opacity="1" stroke-width="6" d=" M64.6780014038086,-186.6199951171875 C66.18900299072266,-186.12600708007812 67.75499725341797,-185.5919952392578 69.36699676513672,-185.01600646972656"></path></g><g opacity="1" transform="matrix(1,0,0,1,0,0)"><path stroke-linecap="round" stroke-linejoin="round" fill-opacity="0" stroke="rgb(255,255,255)" stroke-opacity="1" stroke-width="6" d=" M43.53900146484375,-192.03700256347656 C43.53900146484375,-192.03700256347656 48.404998779296875,-191.2779998779297 56.03799819946289,-189.2050018310547"></path></g></g><g opacity="1" transform="matrix(1,0,0,1,0,0)"><path fill="rgb(156,118,61)" fill-opacity="1" d=" M-105.99199676513672,131.40899658203125 C-87.28199768066406,119.0790023803711 -70.60199737548828,84.29900360107422 -97.48200225830078,56.91899871826172 C-97.48200225830078,56.91899871826172 -122.19599914550781,68.59600067138672 -129.73199462890625,115.91899871826172 C-129.73199462890625,115.91899871826172 -105.99199676513672,131.40899658203125 -105.99199676513672,131.40899658203125z"></path></g><g opacity="1" transform="matrix(1,0,0,1,0,0)"><path fill="rgb(156,118,61)" fill-opacity="1" d=" M138.197998046875,122.76899719238281 C128.8179931640625,129.15899658203125 117.78800201416016,134.8090057373047 104.86799621582031,139.468994140625 C84.38800048828125,125.05899810791016 65.91799926757812,86.10900115966797 98.7979965209961,42.86899948120117 C98.7979965209961,42.86899948120117 134.0970001220703,54.43600082397461 138.58700561523438,112.13899993896484 C138.89199829101562,116.05899810791016 138.5780029296875,119.5989990234375 138.197998046875,122.76899719238281z"></path></g><g opacity="1" transform="matrix(1,0,0,1,0,0)"><path stroke-linecap="butt" stroke-linejoin="miter" fill-opacity="0" stroke-miterlimit="10" stroke="rgb(94,66,31)" stroke-opacity="1" stroke-width="8" d=" M171.5469970703125,-26.509000778198242 C149.54800415039062,-70.50399780273438 161.18899536132812,-72.5250015258789 147.98599243164062,-116.41000366210938 C132.781005859375,-166.94900512695312 84.51100158691406,-212.68899536132812 7.263000011444092,-212.68899536132812 C-70.81700134277344,-212.68899536132812 -118.25499725341797,-166.94900512695312 -133.4600067138672,-116.41000366210938 C-146.66299438476562,-72.5250015258789 -135.02200317382812,-70.50399780273438 -157.02099609375,-26.509000778198242 C-181.1750030517578,21.79599952697754 -191.37600708007812,153.49000549316406 7.263000011444092,153.49000549316406 C205.90199279785156,153.49000549316406 195.7010040283203,21.79599952697754 171.5469970703125,-26.509000778198242z"></path></g><g opacity="1" transform="matrix(1,0,0,1,0,0)"><path fill="rgb(238,214,177)" fill-opacity="1" d=" M90.53900146484375,-81.54499816894531 C51.73899841308594,-90.95099639892578 24.09600067138672,-64.88600158691406 12.85099983215332,-51.505001068115234 C9.928999900817871,-48.02799987792969 4.5970001220703125,-48.02799987792969 1.6749999523162842,-51.505001068115234 C-9.569999694824219,-64.88600158691406 -37.2130012512207,-90.95099639892578 -76.01300048828125,-81.54499816894531 C-127.45800018310547,-69.072998046875 -135.2530059814453,-24.384000778198242 -130.0570068359375,-1 C-125.2030029296875,20.840999603271484 -107.2030029296875,41.777000427246094 -78.59600067138672,52.066001892089844 C-75.14399719238281,53.30799865722656 -73.12999725341797,56.89099884033203 -73.91500091552734,60.4739990234375 C-77.38500213623047,76.31900024414062 -84.31500244140625,117.822998046875 -68.11499786376953,141.27999877929688 C-65.3030014038086,145.3520050048828 -60.8849983215332,148.04600524902344 -55.983001708984375,148.72000122070312 C-48.60100173950195,149.73500061035156 -35.82600021362305,152.49600219726562 -25.08799934387207,159.94700622558594 C-8.11299991607666,171.7259979248047 7.263000011444092,171.00399780273438 7.263000011444092,171.00399780273438 C7.263000011444092,171.00399780273438 22.638999938964844,171.7259979248047 39.61399841308594,159.94700622558594 C50.35100173950195,152.49600219726562 63.125999450683594,149.73500061035156 70.50800323486328,148.72000122070312 C75.41000366210938,148.04600524902344 79.8280029296875,145.3520050048828 82.63999938964844,141.27999877929688 C98.83999633789062,117.822998046875 91.91100311279297,76.31900024414062 88.44100189208984,60.4739990234375 C87.65599822998047,56.89099884033203 89.66999816894531,53.30799865722656 93.12200164794922,52.066001892089844 C121.72899627685547,41.777000427246094 139.72999572753906,20.840999603271484 144.58299255371094,-1 C149.77999877929688,-24.384000778198242 141.98399353027344,-69.072998046875 90.53900146484375,-81.54499816894531z"></path></g><g opacity="1" transform="matrix(1,0,0,1,0,0)"><path fill="rgb(217,188,149)" fill-opacity="1" d=" M136.05299377441406,-41.56700134277344 C138.5989990234375,-35.513999938964844 136.1649932861328,-28.47800064086914 130.41799926757812,-25.299999237060547 C90.71800231933594,-3.3459999561309814 39.027000427246094,-12.652000427246094 16.534000396728516,-17.243000030517578 C9.859999656677246,-18.604999542236328 2.9700000286102295,-18.547000885009766 -3.6610000133514404,-16.992000579833984 C-59.78799819946289,-3.8289999961853027 -97.5530014038086,-18.086000442504883 -114.53600311279297,-26.851999282836914 C-120.77999877929688,-30.075000762939453 -123.3759994506836,-37.72200012207031 -120.23200225830078,-44.00600051879883 C-114.74600219726562,-54.97100067138672 -103.0510025024414,-70.9749984741211 -74.3550033569336,-78.3550033569336 C-35.691001892089844,-88.29900360107422 -9.571999549865723,-64.88899993896484 1.6779999732971191,-51.50899887084961 C4.5980000495910645,-48.02899932861328 9.928000450134277,-48.02899932861328 12.847999572753906,-51.50899887084961 C24.097999572753906,-64.88899993896484 50.95100021362305,-87.24099731445312 89.7509994506836,-77.84100341796875 C116.53700256347656,-71.34200286865234 129.35800170898438,-57.487998962402344 136.05299377441406,-41.56700134277344z"></path></g><g opacity="1" transform="matrix(1,0,0,1,0,0)"><path stroke-linecap="butt" stroke-linejoin="miter" fill-opacity="0" stroke-miterlimit="10" stroke="rgb(238,214,177)" stroke-opacity="1" stroke-width="8" d=" M90.53900146484375,-81.54499816894531 C51.73899841308594,-90.95099639892578 24.09600067138672,-64.88600158691406 12.85099983215332,-51.505001068115234 C9.928999900817871,-48.02799987792969 4.5970001220703125,-48.02799987792969 1.6749999523162842,-51.505001068115234 C-9.569999694824219,-64.88600158691406 -37.2130012512207,-90.95099639892578 -76.01300048828125,-81.54499816894531 C-127.45800018310547,-69.072998046875 -135.2530059814453,-24.384000778198242 -130.0570068359375,-1 C-125.2030029296875,20.840999603271484 -107.2030029296875,41.777000427246094 -78.59600067138672,52.066001892089844 C-75.14399719238281,53.30799865722656 -73.12999725341797,56.89099884033203 -73.91500091552734,60.4739990234375 C-77.38500213623047,76.31900024414062 -84.31500244140625,117.822998046875 -68.11499786376953,141.27999877929688 C-65.3030014038086,145.3520050048828 -60.8849983215332,148.04600524902344 -55.983001708984375,148.72000122070312 C-48.60100173950195,149.73500061035156 -35.82600021362305,152.49600219726562 -25.08799934387207,159.94700622558594 C-8.11299991607666,171.7259979248047 7.263000011444092,171.00399780273438 7.263000011444092,171.00399780273438 C7.263000011444092,171.00399780273438 22.638999938964844,171.7259979248047 39.61399841308594,159.94700622558594 C50.35100173950195,152.49600219726562 63.125999450683594,148.73500061035156 70.50800323486328,147.72000122070312 C75.41000366210938,147.04600524902344 79.8280029296875,145.3520050048828 82.63999938964844,141.27999877929688 C98.83999633789062,117.822998046875 91.91100311279297,76.31900024414062 88.44100189208984,60.4739990234375 C87.65599822998047,56.89099884033203 89.66999816894531,53.30799865722656 93.12200164794922,52.066001892089844 C121.72899627685547,41.777000427246094 139.72999572753906,20.840999603271484 144.58299255371094,-1 C149.77999877929688,-24.384000778198242 141.98399353027344,-69.072998046875 90.53900146484375,-81.54499816894531z"></path></g><g opacity="0.11" transform="matrix(1,0,0,1,0,0)"><path fill="rgb(156,118,61)" fill-opacity="1" d=" M93.81600189208984,126.03099822998047 C92.1449966430664,132.63099670410156 88.56900024414062,139.91799926757812 85.75900268554688,143.98800659179688 C82.9489974975586,148.05799865722656 75.40899658203125,148.05099487304688 70.50900268554688,148.7209930419922 C63.12900161743164,149.7310028076172 50.3489990234375,152.50100708007812 39.60900115966797,159.9510040283203 C22.638999938964844,171.7310028076172 7.258999824523926,171.00100708007812 7.258999824523926,171.00100708007812 C7.258999824523926,171.00100708007812 -8.111000061035156,171.7310028076172 -25.090999603271484,159.9510040283203 C-35.82099914550781,152.50100708007812 -48.60100173950195,149.7310028076172 -55.98099899291992,148.7209930419922 C-60.88100051879883,148.05099487304688 -67.08999633789062,148.0989990234375 -70.49700164794922,144.51400756835938 C-74.33799743652344,140.47300720214844 -77.6709976196289,131.17300415039062 -79.24099731445312,126.072998046875 C-66.93099975585938,129.48300170898438 -29.56100082397461,140.17100524902344 -15.140999794006348,148.4409942626953 C2.7890000343322754,158.7310028076172 22.509000778198242,154.1009979248047 30.909000396728516,148.4409942626953 C38.79899978637695,143.12100219726562 68.96600341796875,130.04100036621094 93.81600189208984,126.03099822998047z"></path></g><g opacity="1" transform="matrix(1,0,0,1,0,0)"><path stroke-linecap="round" stroke-linejoin="round" fill-opacity="0" stroke="rgb(176,147,114)" stroke-opacity="1" stroke-width="8" d=" M-69.0260009765625,145.31100463867188 C-51.814998626708984,150.43699645996094 -36.87900161743164,153.18800354003906 -25.886999130249023,160.1479949951172 C-7.2769999504089355,171.92999267578125 7.263000011444092,171.00399780273438 7.263000011444092,171.00399780273438 C7.263000011444092,171.00399780273438 22.638999938964844,171.7259979248047 39.61399841308594,159.94700622558594 C49.79600143432617,152.8820037841797 64.61599731445312,150.09100341796875 83.27300262451172,145.31100463867188"></path></g></g><g style="display: block;" transform="matrix(1,0,0,1,257.9570007324219,250.63999938964844)" opacity="1"><g opacity="1" transform="matrix(1,0,0,1,0,0)"><g opacity="1" transform="matrix(1,0,0,1,0,0)"><path fill="rgb(219,191,151)" fill-opacity="1" d=" M35.88100051879883,85.86199951171875 C34.40599822998047,85.21299743652344 29.666000366210938,85.4010009765625 23.003999710083008,85.15299987792969 C20.309999465942383,85.0530014038086 13.008999824523926,84.88200378417969 5.921999931335449,84.88200378417969 C-1.1649999618530273,84.88200378417969 -8.772000312805176,84.86000061035156 -11.46500015258789,85 C-18.12299919128418,85.34700012207031 -22.920000076293945,85.21299743652344 -24.395000457763672,85.86199951171875 C-26.395000457763672,86.74199676513672 -24.777000427246094,91.43399810791016 -22.277000427246094,95.22899627685547 C-18.732999801635742,100.60800170898438 -5.671999931335449,108.802001953125 5.745999813079834,108.802001953125 C17.163999557495117,108.802001953125 30.225000381469727,100.60800170898438 33.76900100708008,95.22899627685547 C36.26900100708008,91.43399810791016 37.88100051879883,86.74199676513672 35.88100051879883,85.86199951171875z"></path></g></g><g opacity="1" transform="matrix(1,0,0,1,0,0)"><path fill="rgb(255,244,233)" fill-opacity="1" d=" M34.242000579833984,89.0009994506836 C32.59400177001953,88.78700256347656 29.711000442504883,90.81600189208984 22.799999237060547,90.52899932861328 C20.0049991607666,90.41300201416016 13.281999588012695,90.2239990234375 5.925000190734863,90.2239990234375 C-1.4320000410079956,90.2239990234375 -8.380999565124512,90.21299743652344 -11.173999786376953,90.37100219726562 C-18.079999923706055,90.76100158691406 -21.152000427246094,88.53700256347656 -22.749000549316406,89.0009994506836 C-25.797000885009766,89.88600158691406 -24.417999267578125,97.15299987792969 -21.822999954223633,100.947998046875 C-18.145000457763672,106.3270034790039 -6.11899995803833,115.68199920654297 5.732999801635742,115.68199920654297 C17.584999084472656,115.68199920654297 29.875,106.58899688720703 33.55400085449219,101.20999908447266 C36.14899826049805,97.41500091552734 37.43000030517578,89.41400146484375 34.242000579833984,89.0009994506836z"></path></g><g opacity="1" transform="matrix(1,0,0,1,0,0)"><path fill="rgb(63,10,36)" fill-opacity="1" d=" M34.242000579833984,89.0009994506836 C32.766998291015625,88.35199737548828 29.176000595092773,88.50199890136719 22.513999938964844,88.25399780273438 C19.81999969482422,88.15399932861328 13.01200008392334,88.02200317382812 5.925000190734863,88.02200317382812 C-1.1619999408721924,88.02200317382812 -8.229000091552734,87.9520034790039 -10.92199993133545,88.09200286865234 C-17.579999923706055,88.43900299072266 -21.27400016784668,88.35199737548828 -22.749000549316406,89.0009994506836 C-24.749000549316406,89.88099670410156 -23.134000778198242,93.63600158691406 -20.634000778198242,97.43099975585938 C-17.09000015258789,102.80999755859375 -5.671999931335449,111.00399780273438 5.745999813079834,111.00399780273438 C17.163999557495117,111.00399780273438 28.58300018310547,102.80999755859375 32.12699890136719,97.43099975585938 C34.62699890136719,93.63600158691406 36.242000579833984,89.88099670410156 34.242000579833984,89.0009994506836z"></path></g><g opacity="1" transform="matrix(1,0,0,1,0,0)"><path fill="rgb(178,70,96)" fill-opacity="1" d=" M23.02199935913086,105.55899810791016 C18.094999313354492,108.61000061035156 11.916999816894531,111.00700378417969 5.74399995803833,111.00700378417969 C-0.6029999852180481,111.00700378417969 -6.948999881744385,108.28700256347656 -11.940999984741211,105.11599731445312 C-12.177000045776367,105.11599731445312 -9.552000045776367,106.69100189208984 -8.151000022888184,106.69100189208984 C-1.746999979019165,106.69100189208984 5.554999828338623,107.58999633789062 5.554999828338623,107.58999633789062 C5.554999828338623,107.58999633789062 13.255000114440918,105.81300354003906 19.483999252319336,106.94100189208984 C20.822999954223633,107.18399810791016 23.697999954223633,105.55899810791016 23.02199935913086,105.55899810791016z"></path></g><g opacity="1" transform="matrix(1,0,0,1,0,0)"><path fill="rgb(4,0,1)" fill-opacity="1" d=" M34.08700180053711,94.05599975585938 C34.46500015258789,92.6520004272461 34.33399963378906,91.58799743652344 33.41299819946289,91.1709976196289 C31.97800064086914,90.52100372314453 28.16200065612793,90.53500366210938 21.68600082397461,90.31900024414062 C19.07200050354004,90.23200225830078 12.803999900817871,90.19499969482422 5.926000118255615,90.19499969482422 C-0.9580000042915344,90.19499969482422 -7.449999809265137,90.01899719238281 -10.067999839782715,90.1449966430664 C-16.534000396728516,90.45700073242188 -20.485000610351562,90.51899719238281 -21.91900062561035,91.1709976196289 C-22.839000701904297,91.58899688720703 -22.969999313354492,92.64700317382812 -22.597999572753906,94.0510025024414 C-23.785999298095703,91.61199951171875 -24.142000198364258,89.61399841308594 -22.750999450683594,89.00299835205078 C-21.27199935913086,88.35299682617188 -17.579999923706055,88.43900299072266 -10.920000076293945,88.09200286865234 C-8.22599983215332,87.9520034790039 -1.159999966621399,88.0199966430664 5.926000118255615,88.0199966430664 C13.01200008392334,88.0199966430664 19.81800079345703,88.15499877929688 22.513999938964844,88.25499725341797 C29.179000854492188,88.50199890136719 32.76499938964844,88.35800170898438 34.2400016784668,89.00299835205078 C35.63600158691406,89.61399841308594 35.275001525878906,91.61699676513672 34.08700180053711,94.05599975585938z"></path></g></g><g style="display: block;" transform="matrix(1,0,0,1,256,256)" opacity="1"><g opacity="1" transform="matrix(1,0,0,1,0,0)"><path fill="rgb(217,188,149)" fill-opacity="1" d=" M25.893999099731445,24.253000259399414 C22.266000747680664,24.159000396728516 16.85700035095215,25.867000579833984 13.809000015258789,27.218000411987305 C10.656999588012695,28.615999221801758 4.991000175476074,28.615999221801758 1.8389999866485596,27.218000411987305 C-1.2089999914169312,25.867000579833984 -6.618000030517578,24.159000396728516 -10.246000289916992,24.253000259399414 C-21.531999588012695,24.545000076293945 -26.770000457763672,30.979000091552734 -26.665000915527344,41.44599914550781 C-26.586000442504883,49.347999572753906 -22.0049991607666,65.05899810791016 7.823999881744385,65.05899810791016 C37.35599899291992,65.05899810791016 41.86800003051758,49.60599899291992 42.3129997253418,41.44599914550781 C42.882999420166016,30.993999481201172 37.180999755859375,24.545000076293945 25.893999099731445,24.253000259399414z"></path></g><g opacity="1" transform="matrix(1,0,0,1,0,0)"><g opacity="1" transform="matrix(1,0,0,1,0,0)"><path fill="rgb(238,214,178)" fill-opacity="1" d=" M1.690999984741211,41.38999938964844 C4.199999809265137,46.30400085449219 2.183000087738037,52.35599899291992 -1.7640000581741333,54.37099838256836 C-5.710999965667725,56.38600158691406 -10.555000305175781,54.19300079345703 -13.366999626159668,49.44599914550781 C-17.591999053955078,42.3120002746582 -15.805000305175781,36.61800003051758 -11.857999801635742,34.60300064086914 C-7.910999774932861,32.5880012512207 -2.239000082015991,33.691001892089844 1.690999984741211,41.38999938964844z"></path></g><g opacity="1" transform="matrix(1,0,0,1,0,0)"><path fill="rgb(103,68,48)" fill-opacity="1" d=" M0.47600001096725464,39.1609992980957 C2.984999895095825,44.07500076293945 1.8179999589920044,49.69300079345703 -2.128999948501587,51.70800018310547 C-6.077000141143799,53.722999572753906 -11.3100004196167,51.37300109863281 -13.819000244140625,46.45899963378906 C-16.327999114990234,41.54499816894531 -15.161999702453613,35.926998138427734 -11.21399974822998,33.9119987487793 C-7.267000198364258,31.89699935913086 -2.0329999923706055,34.24700164794922 0.47600001096725464,39.1609992980957z"></path></g><g opacity="1" transform="matrix(1,0,0,1,0,0)"><path fill="rgb(54,22,9)" fill-opacity="1" d=" M0.4749999940395355,39.1619987487793 C0.9440000057220459,40.08100128173828 1.2899999618530273,41.029998779296875 1.503000020980835,41.972999572753906 C-1.0160000324249268,37.12300109863281 -6.578000068664551,35.70100021362305 -10.321999549865723,37.61199951171875 C-14.065999984741211,39.52299880981445 -14.597000122070312,44.077999114990234 -12.119999885559082,48.97100067138672 C-12.762999534606934,48.23699951171875 -13.342000007629395,47.395999908447266 -13.819999694824219,46.459999084472656 C-16.33099937438965,41.54199981689453 -15.164999961853027,35.92599868774414 -11.217000007629395,33.90999984741211 C-7.269000053405762,31.893999099731445 -2.0360000133514404,34.24399948120117 0.4749999940395355,39.1619987487793z"></path></g></g><g opacity="1" transform="matrix(1,0,0,1,0,0)"><g opacity="1" transform="matrix(1,0,0,1,0,0)"><path fill="rgb(238,214,178)" fill-opacity="1" d=" M14.071000099182129,41.38999938964844 C11.562000274658203,46.30400085449219 13.579999923706055,52.35599899291992 17.527000427246094,54.37099838256836 C21.474000930786133,56.38600158691406 26.316999435424805,54.19300079345703 29.128999710083008,49.44599914550781 C33.354000091552734,42.3120002746582 31.56800079345703,36.61800003051758 27.621000289916992,34.60300064086914 C23.673999786376953,32.5880012512207 18.000999450683594,33.691001892089844 14.071000099182129,41.38999938964844z"></path></g><g opacity="1" transform="matrix(1,0,0,1,0,0)"><path fill="rgb(103,68,48)" fill-opacity="1" d=" M15.28600025177002,39.1609992980957 C12.777000427246094,44.07500076293945 13.944000244140625,49.69300079345703 17.891000747680664,51.70800018310547 C21.83799934387207,53.722999572753906 27.07200050354004,51.37300109863281 29.58099937438965,46.45899963378906 C32.09000015258789,41.54499816894531 30.923999786376953,35.926998138427734 26.976999282836914,33.9119987487793 C23.030000686645508,31.89699935913086 17.795000076293945,34.24700164794922 15.28600025177002,39.1609992980957z"></path></g><g opacity="1" transform="matrix(1,0,0,1,0,0)"><path fill="rgb(54,22,9)" fill-opacity="1" d=" M15.286999702453613,39.1619987487793 C14.817999839782715,40.08100128173828 14.472999572753906,41.029998779296875 14.260000228881836,41.972999572753906 C16.77899932861328,37.12300109863281 22.340999603271484,35.70100021362305 26.084999084472656,37.61199951171875 C29.82900047302246,39.52299880981445 30.358999252319336,44.077999114990234 27.882999420166016,48.97100067138672 C28.525999069213867,48.23699951171875 29.104999542236328,47.395999908447266 29.58300018310547,46.459999084472656 C32.09400177001953,41.54199981689453 30.927000045776367,35.92599868774414 26.979000091552734,33.90999984741211 C23.0310001373291,31.893999099731445 17.79800033569336,34.24399948120117 15.286999702453613,39.1619987487793z"></path></g></g></g><g style="display: block;" transform="matrix(1,0,0,1,258.1889953613281,249.70399475097656)" opacity="1"><g opacity="1" transform="matrix(1,0,0,1,0,0)"><path fill="rgb(219,191,151)" fill-opacity="1" d=" M-38.52299880981445,9.821999549865723 C-38.52299880981445,29.33799934387207 -50.38999938964844,45.15800094604492 -63.78300094604492,45.15800094604492 C-77.1760025024414,45.15800094604492 -89.04399871826172,29.33799934387207 -89.04399871826172,9.821999549865723 C-89.04399871826172,-9.694000244140625 -77.1760025024414,-25.513999938964844 -63.78300094604492,-25.513999938964844 C-50.38999938964844,-25.513999938964844 -38.52299880981445,-9.694000244140625 -38.52299880981445,9.821999549865723z"></path></g><g opacity="1" transform="matrix(1,0,0,1,0,0)"><g opacity="1" transform="matrix(1,0,0,1,0,0)"><path fill="rgb(17,17,17)" fill-opacity="1" d=" M-39.53300094604492,4.769999980926514 C-39.53300094604492,24.285999298095703 -50.38999938964844,40.10599899291992 -63.78300094604492,40.10599899291992 C-77.1760025024414,40.10599899291992 -88.03299713134766,24.285999298095703 -88.03299713134766,4.769999980926514 C-88.03299713134766,-14.746000289916992 -77.1760025024414,-30.56599998474121 -63.78300094604492,-30.56599998474121 C-50.38999938964844,-30.56599998474121 -39.53300094604492,-14.746000289916992 -39.53300094604492,4.769999980926514z"></path></g><g opacity="1" transform="matrix(1,0,0,1,0,0)"><path fill="rgb(245,245,245)" fill-opacity="1" d=" M-50.46099853515625,-12.675999641418457 C-50.46099853515625,-6.974999904632568 -56.42499923706055,-11.53499984741211 -63.78300094604492,-11.53499984741211 C-71.14099884033203,-11.53499984741211 -77.10600280761719,-6.8480000495910645 -77.10600280761719,-12.675999641418457 C-77.10600280761719,-16.305999755859375 -71.14099884033203,-23.450000762939453 -63.78300094604492,-23.450000762939453 C-56.42499923706055,-23.450000762939453 -50.46099853515625,-16.30500030517578 -50.46099853515625,-12.675999641418457z"></path></g><g opacity="1" transform="matrix(1,0,0,1,0,0)"><path fill="rgb(72,73,73)" fill-opacity="1" d=" M-46.70100021362305,12.52400016784668 C-46.70100021362305,19.60300064086914 -53.797000885009766,33.27199935913086 -63.78300094604492,33.27199935913086 C-73.76899719238281,33.27199935913086 -80.86499786376953,19.60300064086914 -80.86499786376953,12.52400016784668 C-80.86499786376953,1.1670000553131104 -73.76899719238281,11.875 -63.78300094604492,11.875 C-53.797000885009766,11.875 -46.70100021362305,0.652999997138977 -46.70100021362305,12.52400016784668z"></path></g></g></g><g style="display: block;" transform="matrix(-1,0,0,1,268.12298583984375,249.70399475097656)" opacity="1"><g opacity="1" transform="matrix(1,0,0,1,0,0)"><path fill="rgb(219,191,151)" fill-opacity="1" d=" M-38.52299880981445,9.821999549865723 C-38.52299880981445,29.33799934387207 -50.38999938964844,45.15800094604492 -63.78300094604492,45.15800094604492 C-77.1760025024414,45.15800094604492 -89.04399871826172,29.33799934387207 -89.04399871826172,9.821999549865723 C-89.04399871826172,-9.694000244140625 -77.1760025024414,-25.513999938964844 -63.78300094604492,-25.513999938964844 C-50.38999938964844,-25.513999938964844 -38.52299880981445,-9.694000244140625 -38.52299880981445,9.821999549865723z"></path></g><g opacity="1" transform="matrix(1,0,0,1,0,0)"><g opacity="1" transform="matrix(1,0,0,1,0,0)"><path fill="rgb(17,17,17)" fill-opacity="1" d=" M-39.53300094604492,4.769999980926514 C-39.53300094604492,24.285999298095703 -50.38999938964844,40.10599899291992 -63.78300094604492,40.10599899291992 C-77.1760025024414,40.10599899291992 -88.03299713134766,24.285999298095703 -88.03299713134766,4.769999980926514 C-88.03299713134766,-14.746000289916992 -77.1760025024414,-30.56599998474121 -63.78300094604492,-30.56599998474121 C-50.38999938964844,-30.56599998474121 -39.53300094604492,-14.746000289916992 -39.53300094604492,4.769999980926514z"></path></g><g opacity="1" transform="matrix(1,0,0,1,0,0)"><path fill="rgb(245,245,245)" fill-opacity="1" d=" M-50.46099853515625,-12.675999641418457 C-50.46099853515625,-6.974999904632568 -56.42499923706055,-11.53499984741211 -63.78300094604492,-11.53499984741211 C-71.14099884033203,-11.53499984741211 -77.10600280761719,-6.8480000495910645 -77.10600280761719,-12.675999641418457 C-77.10600280761719,-16.305999755859375 -71.14099884033203,-23.450000762939453 -63.78300094604492,-23.450000762939453 C-56.42499923706055,-23.450000762939453 -50.46099853515625,-16.30500030517578 -50.46099853515625,-12.675999641418457z"></path></g><g opacity="1" transform="matrix(1,0,0,1,0,0)"><path fill="rgb(72,73,73)" fill-opacity="1" d=" M-46.70100021362305,12.52400016784668 C-46.70100021362305,19.60300064086914 -53.797000885009766,33.27199935913086 -63.78300094604492,33.27199935913086 C-73.76899719238281,33.27199935913086 -80.86499786376953,19.60300064086914 -80.86499786376953,12.52400016784668 C-80.86499786376953,1.1670000553131104 -73.76899719238281,11.875 -63.78300094604492,11.875 C-53.797000885009766,11.875 -46.70100021362305,0.652999997138977 -46.70100021362305,12.52400016784668z"></path></g></g></g><g style="display: block;" transform="matrix(1,0,0,1,255.99998474121094,256)" opacity="1"><g opacity="1" transform="matrix(1,0,0,1,0,0)"><path fill="rgb(231,199,163)" fill-opacity="1" d=" M84.8010025024414,56.42599868774414 C84.8010025024414,56.42599868774414 86.51300048828125,37.930999755859375 100.79900360107422,40.87200164794922 C117.85800170898438,44.38399887084961 121.27899932861328,87.49500274658203 121.37100219726562,100.0780029296875 C121.50299835205078,118.14099884033203 110.48400115966797,141.75399780273438 103.13300323486328,153.2790069580078 C95.78199768066406,164.8040008544922 43.5989990234375,177.85000610351562 26.540000915527344,173.33399963378906 C9.480999946594238,168.8179931640625 0.9509999752044678,149.25 -2.561000108718872,135.2010040283203 C-6.072999954223633,121.1520004272461 -19.62299919128418,99.48999786376953 -28.138999938964844,82.572998046875 C-38.242000579833984,62.50299835205078 -29.645999908447266,43.46500015258789 -15.378999710083008,46.474998474121094 C-15.378999710083008,46.474998474121094 -20.86199951171875,30.334999084472656 -10.470999717712402,22.30699920654297 C-0.07999999821186066,14.279000282287598 10.930000305175781,20.356000900268555 10.930000305175781,20.356000900268555 C10.930000305175781,20.356000900268555 16.645000457763672,6.613999843597412 32.1150016784668,9.62399959564209 C47.584999084472656,12.633999824523926 76.46499633789062,41.624000549316406 84.8010025024414,56.42599868774414z"></path></g><g opacity="1" transform="matrix(1,0,0,1,0,0)"><path fill="rgb(250,224,197)" fill-opacity="1" d=" M-30.388999938964844,79.2959976196289 C-29.16200065612793,79.32499694824219 -28.530000686645508,78.81900024414062 -28.725000381469727,77.572998046875 C-29.981000900268555,69.68800354003906 -26.045000076293945,60.933998107910156 -16.097999572753906,63.56399917602539 C-0.9580000042915344,67.56800079345703 11.57699966430664,101.35199737548828 18.211000442504883,104.6050033569336 C23.215999603271484,107.05999755859375 26.25,103.40499877929688 26.25,103.40499877929688 C17.23699951171875,75.00599670410156 -13.050999641418457,45.53499984741211 -13.050999641418457,45.53499984741211 C-9.399999618530273,30.01799964904785 0.8119999766349792,30.232999801635742 14.468999862670898,40.64899826049805 C27.54800033569336,50.624000549316406 37.582000732421875,64.23899841308594 45.66899871826172,76.81300354003906 C50.667999267578125,84.58599853515625 59.66899871826172,79.33300018310547 59.66899871826172,79.33300018310547 C47.95800018310547,52.63999938964844 21.954999923706055,29.395000457763672 21.954999923706055,29.395000457763672 C24.034000396728516,9.312000274658203 66.06700134277344,37.82400131225586 86.08799743652344,83.83200073242188 C89.99199676513672,92.8030014038086 99.86699676513672,94.18599700927734 97.47799682617188,83.95899963378906 C96.63200378417969,80.33799743652344 94.00299835205078,73.95099639892578 94.00299835205078,73.95099639892578 C93.0780029296875,39.21699905395508 113.4229965209961,54.16999816894531 114.0270004272461,54.61800003051758 C110.98999786376953,47.44300079345703 106.85299682617188,42.060001373291016 101.24600219726562,40.902000427246094 C86.83799743652344,37.93299865722656 85.11499786376953,56.58399963378906 85.11499786376953,56.58399963378906 C76.71399688720703,41.6609992980957 47.59700012207031,12.428000450134277 31.992000579833984,9.399999618530273 C16.39699935913086,6.36299991607666 10.633999824523926,20.21500015258789 10.633999824523926,20.21500015258789 C10.633999824523926,20.21500015258789 -0.46399998664855957,14.092000007629395 -10.939000129699707,22.18199920654297 C-21.413000106811523,30.2810001373291 -15.883999824523926,46.54800033569336 -15.883999824523926,46.54800033569336 C-29.405000686645508,43.69599914550781 -37.8650016784668,60.46900177001953 -30.388999938964844,79.2959976196289z"></path></g><g opacity="1" transform="matrix(1,0,0,1,0,0)"><path fill="rgb(217,174,126)" fill-opacity="1" d=" M58.86800003051758,101.25900268554688 C48.80799865722656,129.10899353027344 39.13199996948242,134.3459930419922 40.42300033569336,162.1959991455078 C40.73400115966797,168.906005859375 40.696998596191406,168.28900146484375 37.80699920654297,174.20899963378906 C33.30699920654297,174.35899353027344 29.417999267578125,174.0989990234375 26.538000106811523,173.33900451660156 C9.477999687194824,168.81900024414062 0.9470000267028809,149.24899291992188 -2.562999963760376,135.19900512695312 C-6.072999954223633,121.14900207519531 -19.62299919128418,99.48899841308594 -28.14299964904785,82.56900024414062 C-38.24300003051758,62.499000549316406 -29.642000198364258,43.46900177001953 -15.381999969482422,46.479000091552734 C-15.381999969482422,46.479000091552734 -16.452999114990234,43.32899856567383 -16.753000259399414,39.11899948120117 C3.8570001125335693,35.19900131225586 19.368000030517578,32.95899963378906 24.038000106811523,33.98899841308594 C24.038000106811523,33.98899841308594 68.9280014038086,73.40899658203125 58.86800003051758,101.25900268554688z"></path></g><g opacity="1" transform="matrix(1,0,0,1,0,0)"><path fill="rgb(217,174,126)" fill-opacity="1" d=" M-15.583999633789062,106 C-9.838000297546387,116.68299865722656 -4.559999942779541,127.18099975585938 -2.559999942779541,135.2010040283203 C0.9520000219345093,149.25 9.479000091552734,168.8209991455078 26.542999267578125,173.33799743652344 C43.59700012207031,177.84500122070312 95.78299713134766,164.80099487304688 103.12899780273438,153.2790069580078 C110.48500061035156,141.7570037841797 121.5009994506836,118.13700103759766 121.3740005493164,100.0780029296875 C121.3740005493164,100.0780029296875 112.84100341796875,141.38900756835938 61.869998931884766,149.16200256347656 C21.64299964904785,155.2969970703125 -0.2280000001192093,144.79100036621094 -8.920999526977539,114.28299713134766 C-10.180000305175781,109.87300109863281 -12.51099967956543,107.2490005493164 -15.583999633789062,106z"></path></g><g opacity="1" transform="matrix(1,0,0,1,0,0)"><path stroke-linecap="round" stroke-linejoin="round" fill-opacity="0" stroke="rgb(146,96,55)" stroke-opacity="1" stroke-width="8" d=" M84.8010025024414,56.42599868774414 C84.8010025024414,56.42599868774414 86.51300048828125,37.930999755859375 100.79900360107422,40.87200164794922 C117.85800170898438,44.38399887084961 121.27899932861328,87.49500274658203 121.37100219726562,100.0780029296875 C121.50299835205078,118.14099884033203 110.48400115966797,141.75399780273438 103.13300323486328,153.2790069580078 C95.78199768066406,164.8040008544922 43.5989990234375,177.85000610351562 26.540000915527344,173.33399963378906 C9.480999946594238,168.8179931640625 1.093999981880188,149.21299743652344 -2.561000108718872,135.2010040283203 C-8.581999778747559,112.12100219726562 -13.427000045776367,100.83100128173828 -26.187000274658203,82.572998046875 C-39.05799865722656,64.15599822998047 -29.645999908447266,43.46500015258789 -15.378999710083008,46.474998474121094 C-15.378999710083008,46.474998474121094 -20.86199951171875,30.334999084472656 -10.470999717712402,22.30699920654297 C-0.07999999821186066,14.279000282287598 10.930000305175781,20.356000900268555 10.930000305175781,20.356000900268555 C10.930000305175781,20.356000900268555 16.645000457763672,6.613999843597412 32.1150016784668,9.62399959564209 C47.584999084472656,12.633999824523926 76.46499633789062,41.624000549316406 84.8010025024414,56.42599868774414z"></path></g><g opacity="1" transform="matrix(1,0,0,1,0,0)"><path stroke-linecap="round" stroke-linejoin="round" fill-opacity="0" stroke="rgb(146,96,55)" stroke-opacity="1" stroke-width="8" d=" M84.8010025024414,56.42599868774414 C84.8010025024414,56.42599868774414 95.78199768066406,71.1449966430664 97.76100158691406,91.5770034790039"></path></g><g opacity="1" transform="matrix(1,0,0,1,0,0)"><path stroke-linecap="round" stroke-linejoin="round" fill-opacity="0" stroke="rgb(146,96,55)" stroke-opacity="1" stroke-width="8" d=" M10.930000305175781,20.356000900268555 C10.930000305175781,20.356000900268555 43.5989990234375,43.130001068115234 58.652000427246094,77.5"></path></g><g opacity="1" transform="matrix(1,0,0,1,0,0)"><path stroke-linecap="round" stroke-linejoin="round" fill-opacity="0" stroke="rgb(146,96,55)" stroke-opacity="1" stroke-width="8" d=" M26.791000366210938,100.83100128173828 C26.791000366210938,100.83100128173828 9.211999893188477,61.30400085449219 -15.378999710083008,46.474998474121094"></path></g><g opacity="1" transform="matrix(1,0,0,1,0,0)"><path fill="rgb(156,118,61)" fill-opacity="1" d=" M117.76899719238281,200.5330047607422 C117.76899719238281,200.5330047607422 101.76399993896484,169.49000549316406 109.21600341796875,142.41600036621094 C109.21600341796875,142.41600036621094 100.12999725341797,150.7550048828125 100.12999725341797,150.7550048828125 C100.12999725341797,150.7550048828125 94.48799896240234,137.8820037841797 94.48799896240234,137.8820037841797 C93.64199829101562,135.9530029296875 90.92900085449219,135.88400268554688 89.98699951171875,137.76800537109375 C89.98699951171875,137.76800537109375 82.8489990234375,152.03700256347656 82.8489990234375,152.03700256347656 C82.8489990234375,152.03700256347656 73.44599914550781,143.09300231933594 73.44599914550781,143.09300231933594 C72.20999908447266,141.91700744628906 70.18199920654297,142.3070068359375 69.47200012207031,143.85899353027344 C69.47200012207031,143.85899353027344 61.132999420166016,162.07200622558594 61.132999420166016,162.07200622558594 C61.132999420166016,162.07200622558594 45.42300033569336,153.60699462890625 45.42300033569336,153.60699462890625 C43.99800109863281,152.83900451660156 42.229000091552734,153.61599731445312 41.83300018310547,155.18600463867188 C41.83300018310547,155.18600463867188 37.96900177001953,170.49099731445312 37.96900177001953,170.49099731445312 C37.96900177001953,170.49099731445312 14.364999771118164,166.29299926757812 14.364999771118164,166.29299926757812 C14.364999771118164,166.29299926757812 36.974998474121094,183.62399291992188 39.775001525878906,215.2530059814453 C39.775001525878906,215.2530059814453 56.775001525878906,219.54100036621094 79.11100006103516,216.01800537109375 C107.63999938964844,211.5189971923828 117.76899719238281,200.5330047607422 117.76899719238281,200.5330047607422z"></path></g><g opacity="1" transform="matrix(1,0,0,1,0,0)"><path stroke-linecap="round" stroke-linejoin="round" fill-opacity="0" stroke="rgb(94,66,31)" stroke-opacity="1" stroke-width="8" d=" M116.76899719238281,199.5330047607422 C116.76899719238281,199.5330047607422 101.76399993896484,169.49000549316406 109.21600341796875,142.41600036621094"></path></g><g opacity="1" transform="matrix(1,0,0,1,0,0)"><path stroke-linecap="round" stroke-linejoin="round" fill-opacity="0" stroke="rgb(94,66,31)" stroke-opacity="1" stroke-width="8" d=" M16.364999771118164,168.29299926757812 C16.364999771118164,168.29299926757812 38.2599983215332,187.2550048828125 39.775001525878906,212.93899536132812"></path></g></g><g style="display: block;" transform="matrix(1,0,0,1,256,256)" opacity="1"><g opacity="1" transform="matrix(1,0,0,1,0,0)"><g opacity="1" transform="matrix(1,0,0,1,0,0)"><path fill="rgb(231,199,163)" fill-opacity="1" d=" M-74.052001953125,71.7959976196289 C-74.052001953125,71.7959976196289 -75.82599639892578,52.64099884033203 -90.62100219726562,55.6870002746582 C-108.28900146484375,59.32400131225586 -111.83200073242188,103.9729995727539 -111.927001953125,117.00499725341797 C-112.06400299072266,135.71200561523438 -100.6510009765625,160.16799926757812 -93.03800201416016,172.10400390625 C-85.42500305175781,184.0399932861328 -31.381000518798828,197.55099487304688 -13.713000297546387,192.87399291992188 C3.9549999237060547,188.19700622558594 12.788999557495117,167.93099975585938 16.426000595092773,153.38099670410156 C20.06399917602539,138.83099365234375 34.09700012207031,116.3949966430664 42.91600036621094,98.875 C53.37900161743164,78.08899688720703 44.47700119018555,58.37099838256836 29.701000213623047,61.48899841308594 C29.701000213623047,61.48899841308594 35.38100051879883,44.77399826049805 24.618999481201172,36.459999084472656 C13.857000350952148,28.145999908447266 2.453000068664551,34.43899917602539 2.453000068664551,34.43899917602539 C2.453000068664551,34.43899917602539 -3.4660000801086426,20.20599937438965 -19.488000869750977,23.323999404907227 C-35.5099983215332,26.441999435424805 -65.41799926757812,56.465999603271484 -74.052001953125,71.7959976196289z"></path></g><g opacity="1" transform="matrix(1,0,0,1,0,0)"><path fill="rgb(250,224,197)" fill-opacity="1" d=" M44.597999572753906,95.12899780273438 C43.3380012512207,95.15899658203125 42.6879997253418,94.63899993896484 42.88800048828125,93.35900115966797 C44.178001403808594,85.25900268554688 40.13399887084961,76.26699829101562 29.91699981689453,78.96900177001953 C14.36400032043457,83.08200073242188 1.4889999628067017,117.78500366210938 -5.326000213623047,121.12699890136719 C-10.468000411987305,123.64800262451172 -13.583999633789062,119.89399719238281 -13.583999633789062,119.89399719238281 C-4.326000213623047,90.72100067138672 26.788000106811523,60.44900131225586 26.788000106811523,60.44900131225586 C23.038000106811523,44.50899887084961 12.54699993133545,44.72999954223633 -1.4819999933242798,55.42900085449219 C-14.916999816894531,65.6760025024414 -25.22599983215332,79.66200256347656 -33.53300094604492,92.5790023803711 C-38.667999267578125,100.56400299072266 -47.91400146484375,95.16699981689453 -47.91400146484375,95.16699981689453 C-35.88399887084961,67.74700164794922 -9.17300033569336,43.86899948120117 -9.17300033569336,43.86899948120117 C-7.447999954223633,20.356000900268555 -55.34000015258789,52.73899841308594 -75.0530014038086,99.78900146484375 C-78.93699645996094,109.05899810791016 -89.20700073242188,110.42500305175781 -86.75299835205078,99.91899871826172 C-85.88400268554688,96.1989974975586 -83.18199920654297,89.63899993896484 -83.18199920654297,89.63899993896484 C-82.23200225830078,53.95899963378906 -103.13300323486328,69.31900024414062 -103.75299835205078,69.77899932861328 C-100.63300323486328,62.409000396728516 -96.38300323486328,56.87900161743164 -90.62300109863281,55.68899917602539 C-75.822998046875,52.638999938964844 -74.0530014038086,71.79900360107422 -74.0530014038086,71.79900360107422 C-65.4229965209961,56.46900177001953 -35.512001037597656,26.43899917602539 -19.48200035095215,23.32900047302246 C-3.4619998931884766,20.208999633789062 2.4570000171661377,34.43899917602539 2.4570000171661377,34.43899917602539 C2.4570000171661377,34.43899917602539 13.857999801635742,28.14900016784668 24.618000030517578,36.45899963378906 C35.37799835205078,44.77899932861328 29.697999954223633,61.48899841308594 29.697999954223633,61.48899841308594 C43.5880012512207,58.558998107910156 52.27799987792969,75.78900146484375 44.597999572753906,95.12899780273438z"></path></g><g opacity="1" transform="matrix(1,0,0,1,0,0)"><path fill="rgb(217,174,126)" fill-opacity="1" d=" M29.913999557495117,123.13899993896484 C23.96299934387207,134.2030029296875 18.496000289916992,145.0749969482422 16.424999237060547,153.38099670410156 C12.786999702453613,167.93099975585938 3.9560000896453857,188.1999969482422 -13.715999603271484,192.8780059814453 C-31.378000259399414,197.54600524902344 -85.4260025024414,184.03700256347656 -93.03500366210938,172.10400390625 C-100.65399932861328,160.17100524902344 -112.06199645996094,135.70799255371094 -111.93000030517578,117.00499725341797 C-111.93000030517578,117.00499725341797 -103.09300231933594,159.7899932861328 -50.30400085449219,167.83999633789062 C-8.640999794006348,174.1929931640625 14.010000228881836,163.31300354003906 23.01300048828125,131.7169952392578 C24.31599998474121,127.1500015258789 26.731000900268555,124.43199920654297 29.913999557495117,123.13899993896484z"></path></g><g opacity="1" transform="matrix(1,0,0,1,0,0)"><path stroke-linecap="round" stroke-linejoin="round" fill-opacity="0" stroke="rgb(146,96,55)" stroke-opacity="1" stroke-width="8" d=" M-74.052001953125,71.7959976196289 C-74.052001953125,71.7959976196289 -75.82599639892578,52.64099884033203 -90.62100219726562,55.6870002746582 C-108.28900146484375,59.32400131225586 -111.83200073242188,103.9729995727539 -111.927001953125,117.00499725341797 C-112.06400299072266,135.71200561523438 -100.6510009765625,160.16799926757812 -93.03800201416016,172.10400390625 C-85.42500305175781,184.0399932861328 -31.381000518798828,197.55099487304688 -13.713000297546387,192.87399291992188 C3.9549999237060547,188.19700622558594 12.640000343322754,167.89300537109375 16.426000595092773,153.38099670410156 C22.66200065612793,129.4770050048828 27.68000030517578,117.78399658203125 40.89500045776367,98.875 C54.224998474121094,79.8010025024414 44.47700119018555,58.37099838256836 29.701000213623047,61.48899841308594 C29.701000213623047,61.48899841308594 35.38100051879883,44.77399826049805 24.618999481201172,36.459999084472656 C13.857000350952148,28.145999908447266 2.453000068664551,34.43899917602539 2.453000068664551,34.43899917602539 C2.453000068664551,34.43899917602539 -3.4660000801086426,20.20599937438965 -19.488000869750977,23.323999404907227 C-35.5099983215332,26.441999435424805 -65.41799926757812,56.465999603271484 -74.052001953125,71.7959976196289z"></path></g><g opacity="1" transform="matrix(1,0,0,1,0,0)"><path stroke-linecap="round" stroke-linejoin="round" fill-opacity="0" stroke="rgb(146,96,55)" stroke-opacity="1" stroke-width="8" d=" M-74.052001953125,71.7959976196289 C-74.052001953125,71.7959976196289 -85.55400085449219,89.63700103759766 -88.4749984741211,108.19999694824219"></path></g><g opacity="1" transform="matrix(1,0,0,1,0,0)"><path stroke-linecap="round" stroke-linejoin="round" fill-opacity="0" stroke="rgb(146,96,55)" stroke-opacity="1" stroke-width="8" d=" M2.453000068664551,34.43899917602539 C2.453000068664551,34.43899917602539 -31.381999969482422,58.025001525878906 -46.97100067138672,93.62100219726562"></path></g><g opacity="1" transform="matrix(1,0,0,1,0,0)"><path stroke-linecap="round" stroke-linejoin="round" fill-opacity="0" stroke="rgb(146,96,55)" stroke-opacity="1" stroke-width="8" d=" M-13.972999572753906,117.78500366210938 C-13.972999572753906,117.78500366210938 4.232999801635742,76.8479995727539 29.701000213623047,61.48899841308594"></path></g><g opacity="1" transform="matrix(1,0,0,1,0,0)"><path fill="rgb(156,118,61)" fill-opacity="1" d=" M-104.6520004272461,203.03199768066406 C-104.6520004272461,203.03199768066406 -93.79199981689453,173.3249969482422 -99.33799743652344,160.85299682617188 C-99.33799743652344,160.85299682617188 -89.92900085449219,169.49000549316406 -89.92900085449219,169.49000549316406 C-89.92900085449219,169.49000549316406 -84.30799865722656,156.66700744628906 -84.30799865722656,156.66700744628906 C-83.34300231933594,154.46600341796875 -80.25,154.38800048828125 -79.17500305175781,156.53700256347656 C-79.17500305175781,156.53700256347656 -72.03099822998047,170.8179931640625 -72.03099822998047,170.8179931640625 C-72.03099822998047,170.8179931640625 -62.55699920654297,161.80599975585938 -62.55699920654297,161.80599975585938 C-61.14699935913086,160.46400451660156 -58.834999084472656,160.91000366210938 -58.025001525878906,162.67999267578125 C-58.025001525878906,162.67999267578125 -49.540000915527344,181.21099853515625 -49.540000915527344,181.21099853515625 C-49.540000915527344,181.21099853515625 -33.56399917602539,172.6020050048828 -33.56399917602539,172.6020050048828 C-31.937999725341797,171.7259979248047 -29.922000885009766,172.61300659179688 -29.469999313354492,174.4040069580078 C-29.469999313354492,174.4040069580078 -25.549999237060547,189.9290008544922 -25.549999237060547,189.9290008544922 C-25.549999237060547,189.9290008544922 -3.174999952316284,187.6529998779297 -3.174999952316284,187.6529998779297 C-3.174999952316284,187.6529998779297 -21.968000411987305,198.4530029296875 -21.968000411987305,216.9669952392578 C-21.968000411987305,216.9669952392578 -39.625999450683594,221.91000366210938 -65.96499633789062,218.093994140625 C-93.57599639892578,214.093994140625 -104.6520004272461,203.03199768066406 -104.6520004272461,203.03199768066406z"></path></g></g><g opacity="1" transform="matrix(1,0,0,1,0,0)"><path stroke-linecap="round" stroke-linejoin="round" fill-opacity="0" stroke="rgb(94,66,31)" stroke-opacity="1" stroke-width="8" d=" M-104.6520004272461,201.03199768066406 C-104.6520004272461,201.03199768066406 -93.79199981689453,173.3249969482422 -99.33799743652344,160.85299682617188"></path></g><g opacity="1" transform="matrix(1,0,0,1,0,0)"><path stroke-linecap="round" stroke-linejoin="round" fill-opacity="0" stroke="rgb(94,66,31)" stroke-opacity="1" stroke-width="8" d=" M-3.174999952316284,187.6529998779297 C-3.174999952316284,187.6529998779297 -11.970999717712402,193.83900451660156 -16.13800048828125,201.03199768066406 C-20.795000076293945,209.07000732421875 -21.968000411987305,215.2530059814453 -21.968000411987305,215.2530059814453"></path></g><g opacity="1" transform="matrix(1,0,0,1,0,0)"><path fill="rgb(186,144,89)" fill-opacity="1" d=" M-39.46200180053711,219.35899353027344 C-46.582000732421875,219.73899841308594 -55.60200119018555,219.5989990234375 -65.96199798583984,218.0989990234375 C-81.43199920654297,215.85899353027344 -91.71299743652344,211.3990020751953 -97.76300048828125,207.8990020751953 C-97.69300079345703,207.33900451660156 -94.28800201416016,195.50399780273438 -85.29299926757812,192.13900756835938 C-76.0530014038086,188.6820068359375 -47.882999420166016,195.4459991455078 -42.393001556396484,205.0290069580078 C-40.20199966430664,208.85400390625 -39.34600067138672,215.2530059814453 -39.46200180053711,219.35899353027344z"></path></g></g></g></svg>